<svg id="svg" xmlns="http://www.w3.org/2000/svg" xmlns:xlink="http://www.w3.org/1999/xlink" width="400" height="400" viewBox="0, 0, 400,400" version="1.1"><g id="svgg"><path id="path0" d="M202.784 0.703 C 214.550 2.429,228.051 7.082,235.670 12.038 C 241.303 15.702,243.606 17.307,246.080 19.295 C 252.865 24.747,258.519 31.339,262.645 38.606 C 263.966 40.933,265.893 44.586,265.893 44.763 C 265.893 44.868,266.270 45.776,266.730 46.781 C 267.806 49.130,268.208 50.457,268.211 51.673 C 268.213 52.343,268.357 52.784,268.669 53.075 C 269.428 53.781,269.892 55.237,269.978 57.180 C 270.022 58.194,270.267 60.074,270.521 61.357 C 276.198 90.000,256.096 121.389,216.067 146.387 C 215.397 146.806,214.849 147.243,214.849 147.360 C 214.849 147.476,214.458 147.739,213.979 147.944 C 212.836 148.434,212.735 148.489,208.835 150.744 C 206.995 151.809,203.367 153.799,200.773 155.167 C 198.178 156.536,196.056 157.730,196.056 157.822 C 196.056 158.977,212.016 165.834,218.640 167.525 C 219.682 167.791,221.108 168.156,221.810 168.337 C 230.719 170.633,243.032 170.770,250.348 168.656 C 250.795 168.527,251.935 168.212,252.883 167.956 C 257.055 166.827,263.290 163.958,266.522 161.679 C 267.389 161.069,268.597 160.302,269.207 159.975 C 269.818 159.648,270.867 158.836,271.538 158.171 C 272.210 157.505,273.626 156.230,274.685 155.336 C 300.713 133.391,309.987 93.284,296.762 59.861 C 292.018 47.871,276.144 28.873,262.689 19.081 C 262.209 18.732,261.663 18.317,261.476 18.160 C 253.473 11.430,240.511 5.498,228.099 2.887 C 226.646 2.581,225.272 2.272,225.048 2.201 C 222.226 1.305,210.515 0.220,204.060 0.255 L 199.884 0.278 202.784 0.703 M180.496 4.494 C 180.350 4.647,175.758 5.103,173.086 5.229 C 170.024 5.373,161.960 8.248,156.237 11.236 C 136.380 21.600,119.991 40.747,110.545 64.617 C 108.799 69.029,106.265 76.516,106.265 77.263 C 106.265 77.530,106.121 78.031,105.945 78.376 C 104.333 81.531,105.014 87.465,107.273 89.946 C 110.037 92.982,112.424 93.333,153.306 96.713 L 161.021 97.350 161.021 94.073 C 161.021 89.619,161.848 85.377,163.815 79.744 L 165.258 75.613 168.070 72.091 C 172.225 66.887,174.869 64.782,180.477 62.215 L 184.623 60.318 189.933 59.368 L 195.244 58.419 201.392 58.572 C 220.992 59.060,233.024 65.255,239.267 78.074 C 239.454 78.457,239.839 80.493,240.124 82.599 L 240.641 86.427 240.049 90.255 C 239.176 95.895,237.871 99.211,235.489 101.836 C 221.132 117.658,191.692 133.167,160.789 141.187 C 159.449 141.535,158.275 141.890,158.180 141.976 C 158.045 142.098,158.421 169.127,158.560 169.302 C 158.609 169.363,160.873 168.582,162.413 167.973 C 163.115 167.696,164.087 167.321,164.573 167.141 C 165.059 166.961,166.051 166.517,166.777 166.154 C 167.503 165.790,168.515 165.363,169.026 165.203 C 169.536 165.044,170.789 164.554,171.810 164.114 C 172.831 163.674,174.188 163.090,174.826 162.816 C 175.464 162.543,177.135 161.779,178.538 161.120 C 179.942 160.461,181.926 159.532,182.947 159.058 C 186.726 157.299,189.216 156.025,189.385 155.762 C 189.481 155.614,191.610 154.474,194.116 153.229 C 196.621 151.985,198.972 150.672,199.340 150.312 C 199.708 149.953,200.294 149.603,200.643 149.534 C 201.548 149.357,203.907 148.096,208.763 145.192 C 237.874 127.788,257.923 106.718,264.021 87.123 C 264.418 85.847,264.841 84.490,264.960 84.107 C 265.676 81.801,266.474 76.671,266.710 72.854 C 266.917 69.495,266.146 60.790,265.537 59.612 C 265.354 59.258,265.145 58.203,265.073 57.268 C 264.927 55.380,264.621 54.029,264.124 53.087 C 263.943 52.744,263.536 51.670,263.220 50.703 C 262.584 48.756,259.859 43.058,258.612 41.067 C 256.747 38.092,254.150 34.216,253.716 33.760 C 253.459 33.489,252.488 32.379,251.559 31.293 C 246.010 24.808,236.324 17.363,228.411 13.499 C 224.464 11.572,218.069 9.045,215.081 8.231 C 214.252 8.005,212.793 7.575,211.839 7.274 C 210.886 6.974,209.841 6.729,209.518 6.729 C 209.194 6.729,208.565 6.623,208.119 6.495 C 207.028 6.180,204.089 5.678,199.884 5.087 C 196.462 4.606,180.844 4.128,180.496 4.494 M190.759 63.835 C 181.888 65.453,176.882 68.374,171.677 74.967 L 169.223 78.074 167.915 81.903 C 166.810 85.135,165.421 90.989,165.432 92.366 C 165.433 92.545,165.812 92.013,166.272 91.183 C 172.833 79.375,184.034 73.540,199.072 74.094 C 215.974 74.717,228.000 81.032,233.585 92.215 C 234.735 94.517,234.827 94.401,235.528 89.758 C 236.026 86.459,236.027 86.398,235.617 83.187 L 235.204 79.946 233.745 77.502 C 228.186 68.194,217.225 63.380,200.812 63.039 L 195.708 62.932 190.759 63.835 M187.587 162.091 C 183.802 163.975,175.654 167.749,175.372 167.749 C 175.256 167.749,174.563 168.048,173.833 168.414 C 173.103 168.779,172.097 169.210,171.598 169.372 C 171.098 169.534,169.897 170.030,168.929 170.474 C 167.961 170.918,166.647 171.469,166.009 171.698 C 165.371 171.927,164.432 172.272,163.921 172.465 L 162.993 172.816 164.581 173.531 C 165.454 173.924,166.289 174.248,166.437 174.251 C 166.585 174.254,167.175 174.477,167.749 174.746 C 168.324 175.016,169.211 175.316,169.722 175.413 C 170.808 175.618,171.909 175.987,173.202 176.578 C 174.763 177.292,182.785 179.386,185.035 179.668 C 185.545 179.732,186.433 179.881,187.007 179.999 C 194.338 181.507,203.327 182.285,210.673 182.047 C 215.166 181.902,216.819 181.765,221.230 181.174 C 222.251 181.037,224.078 180.843,225.290 180.744 C 228.167 180.508,230.168 180.133,232.715 179.350 C 233.034 179.252,233.765 179.044,234.339 178.888 C 235.616 178.540,238.344 177.699,240.371 177.028 C 241.201 176.754,242.195 176.450,242.580 176.352 C 242.965 176.255,243.957 175.854,244.784 175.462 C 245.611 175.070,246.630 174.621,247.049 174.466 C 248.101 174.076,247.859 173.970,246.499 174.226 C 231.697 177.009,208.917 171.657,192.759 161.602 C 190.718 160.332,191.215 160.285,187.587 162.091 M272.941 163.696 C 272.574 164.080,271.961 164.591,271.578 164.832 C 271.195 165.074,269.681 166.162,268.213 167.250 C 266.746 168.338,265.513 169.249,265.474 169.275 C 265.435 169.301,266.041 170.509,266.822 171.958 C 268.457 174.997,271.828 182.116,274.477 188.125 C 276.202 192.039,279.344 203.083,279.355 205.267 C 279.357 205.752,279.519 207.140,279.715 208.353 C 280.405 212.618,280.490 213.858,280.499 219.722 C 280.508 225.956,279.722 232.731,278.776 234.560 C 278.581 234.936,278.422 235.432,278.421 235.661 C 278.418 236.632,276.363 241.657,274.123 246.172 C 273.521 247.384,272.675 249.107,272.242 250.000 C 271.031 252.501,269.424 255.475,269.060 255.890 C 268.879 256.096,268.510 256.706,268.238 257.245 C 267.967 257.785,267.428 258.672,267.040 259.218 C 266.652 259.763,265.956 260.783,265.493 261.485 C 255.122 277.226,233.455 289.229,211.503 291.397 C 205.812 291.959,194.543 291.508,192.489 290.637 C 191.995 290.427,191.310 290.255,190.967 290.255 C 190.624 290.255,189.677 289.994,188.863 289.675 C 188.049 289.356,187.168 289.095,186.905 289.095 C 186.642 289.095,185.765 288.782,184.956 288.399 C 184.147 288.016,183.352 287.703,183.189 287.703 C 183.026 287.703,181.901 287.233,180.689 286.659 C 179.476 286.085,178.340 285.615,178.163 285.616 C 177.987 285.616,176.766 285.068,175.450 284.398 C 174.134 283.727,172.672 282.986,172.202 282.750 C 171.190 282.242,168.940 280.801,168.445 280.343 C 168.254 280.166,167.529 279.663,166.835 279.225 C 165.294 278.254,160.044 273.521,158.517 271.726 C 152.191 264.288,148.119 256.505,146.847 249.420 C 146.698 248.590,146.407 247.390,146.200 246.752 C 145.634 245.007,145.663 236.182,146.244 233.295 C 147.629 226.416,151.318 220.641,156.472 217.282 L 158.469 215.980 158.469 212.133 L 158.469 208.286 157.019 208.438 C 156.221 208.522,154.420 208.738,153.016 208.918 C 137.456 210.917,113.154 213.921,112.546 213.921 C 108.045 213.921,103.476 225.620,104.402 234.773 C 105.213 242.787,110.876 256.594,117.167 265.893 C 117.642 266.595,118.530 267.952,119.141 268.910 C 119.752 269.867,120.660 271.172,121.158 271.810 C 121.657 272.448,122.933 274.136,123.994 275.561 C 127.282 279.974,134.776 288.424,137.863 291.199 C 149.427 301.591,162.508 308.195,179.814 312.380 C 196.134 316.326,212.326 316.343,229.397 312.434 C 247.130 308.372,259.161 302.398,268.922 292.807 C 269.896 291.850,270.944 290.848,271.252 290.580 C 284.444 279.054,297.087 255.026,299.070 237.710 C 299.188 236.685,299.405 235.064,299.554 234.107 C 300.155 230.244,299.792 216.943,299.047 215.510 C 298.938 215.299,298.743 214.307,298.615 213.306 C 298.327 211.045,298.007 209.267,297.713 208.290 C 297.589 207.878,297.147 206.293,296.731 204.768 C 294.464 196.450,289.623 185.843,284.285 177.494 C 283.510 176.282,282.579 174.820,282.218 174.246 C 280.869 172.106,276.797 166.708,275.292 165.065 C 274.780 164.507,274.192 163.814,273.985 163.524 L 273.608 162.998 272.941 163.696 M260.233 172.729 C 259.791 173.171,259.135 173.605,258.775 173.694 C 258.415 173.783,257.807 174.089,257.425 174.375 C 254.734 176.382,243.851 181.276,240.719 181.887 C 239.660 182.094,237.080 182.972,236.148 183.442 C 235.804 183.616,235.208 183.759,234.825 183.759 C 234.442 183.759,233.889 183.852,233.596 183.967 C 233.302 184.081,232.615 184.308,232.067 184.471 L 231.071 184.767 232.077 185.829 C 232.630 186.413,233.487 187.517,233.981 188.283 C 234.475 189.049,235.117 190.041,235.407 190.487 C 235.939 191.307,236.043 191.565,237.285 195.128 C 238.446 198.460,238.533 199.019,238.740 204.534 C 238.850 207.474,239.007 210.241,239.090 210.682 C 239.434 212.525,237.556 220.532,236.442 221.973 C 236.166 222.330,235.351 223.457,234.630 224.478 C 227.456 234.642,216.664 241.437,204.756 243.288 C 200.487 243.951,190.238 243.733,187.703 242.924 C 187.384 242.822,186.497 242.562,185.731 242.346 C 182.550 241.448,178.422 239.677,178.422 239.211 C 178.422 238.877,176.836 237.958,175.638 237.597 C 173.454 236.939,171.930 235.678,171.924 234.524 C 171.923 234.358,171.584 233.989,171.170 233.703 C 170.405 233.175,167.908 230.736,165.491 228.153 C 163.316 225.830,162.611 224.882,161.089 222.230 L 160.198 220.677 159.159 221.366 C 154.941 224.162,152.067 228.791,150.887 234.687 C 150.256 237.843,150.320 243.905,151.006 245.874 C 151.282 246.668,151.508 247.709,151.508 248.188 C 151.508 248.994,151.972 250.813,152.829 253.364 C 156.011 262.834,166.003 274.107,175.491 278.932 C 176.274 279.330,177.488 279.993,178.190 280.406 C 178.892 280.818,179.832 281.232,180.278 281.325 C 180.725 281.419,181.588 281.746,182.196 282.053 C 184.069 282.997,188.420 284.185,193.852 285.237 C 202.415 286.896,214.410 285.904,224.671 282.690 C 226.053 282.257,227.309 281.903,227.462 281.903 C 227.614 281.903,228.502 281.537,229.434 281.090 C 230.366 280.644,231.250 280.279,231.399 280.279 C 231.549 280.279,232.088 280.072,232.599 279.819 C 233.109 279.566,234.414 278.965,235.499 278.484 C 238.281 277.252,242.578 275.025,244.079 274.038 C 248.045 271.430,254.547 265.638,257.259 262.297 C 257.984 261.404,258.788 260.440,259.045 260.156 C 260.079 259.015,260.389 258.615,261.483 257.009 C 262.110 256.089,262.869 255.110,263.170 254.832 C 263.471 254.555,263.982 253.929,264.306 253.440 C 265.567 251.539,266.543 249.968,266.909 249.252 C 267.119 248.841,267.524 248.159,267.810 247.736 C 268.985 245.998,273.039 237.343,273.542 235.499 C 273.698 234.925,273.973 234.112,274.153 233.692 C 274.332 233.273,274.630 232.072,274.815 231.024 C 275.001 229.976,275.306 228.283,275.495 227.262 C 276.215 223.356,276.179 215.084,275.425 211.369 C 275.309 210.795,275.106 209.594,274.975 208.701 C 274.591 206.097,274.280 204.398,273.890 202.784 C 273.689 201.955,273.432 200.845,273.318 200.319 C 272.976 198.739,271.365 193.825,269.600 188.979 C 268.465 185.862,261.538 171.926,261.123 171.926 C 261.076 171.926,260.675 172.287,260.233 172.729 M163.109 216.416 C 163.109 216.688,163.208 216.971,163.328 217.045 C 163.448 217.120,163.989 217.987,164.529 218.973 C 168.678 226.542,177.830 233.814,186.619 236.526 C 191.895 238.154,200.311 238.561,205.081 237.418 L 206.798 237.007 200.209 237.007 C 192.808 237.007,191.130 236.801,186.775 235.363 C 177.741 232.380,170.452 226.691,164.523 217.996 C 163.575 216.606,163.109 216.085,163.109 216.416 M197.680 370.538 L 197.680 400.009 202.726 399.947 L 207.773 399.884 207.773 383.295 C 207.773 374.171,207.696 364.206,207.602 361.152 C 207.502 357.899,207.516 355.688,207.638 355.815 C 207.751 355.935,208.374 357.807,209.021 359.977 C 209.668 362.146,211.288 367.158,212.621 371.114 C 217.773 386.404,222.255 399.550,222.391 399.770 C 222.474 399.904,223.876 400.000,225.757 400.000 L 228.981 400.000 229.202 399.246 C 229.323 398.831,231.116 393.532,233.186 387.471 C 238.135 372.974,242.287 360.439,242.920 358.078 C 243.773 354.902,243.989 355.009,243.818 358.521 C 243.735 360.215,243.657 370.241,243.644 380.800 L 243.619 400.000 248.608 400.000 L 253.596 400.000 253.596 370.534 L 253.596 341.067 246.649 341.067 C 241.986 341.067,239.652 341.149,239.550 341.314 C 239.466 341.450,237.055 348.576,234.193 357.150 C 229.599 370.914,228.158 375.420,226.215 382.105 C 225.590 384.254,225.581 384.242,224.261 379.350 C 223.321 375.871,212.377 342.626,211.791 341.473 C 211.601 341.100,211.020 341.067,204.632 341.067 L 197.680 341.067 197.680 370.538 M281.788 344.026 C 279.740 349.571,277.450 355.795,276.217 359.165 C 275.540 361.015,273.891 365.505,272.552 369.142 C 271.213 372.778,268.639 379.774,266.832 384.687 C 265.025 389.600,263.031 395.005,262.400 396.698 C 261.769 398.391,261.253 399.828,261.253 399.892 C 261.253 399.956,263.667 399.981,266.618 399.946 L 271.983 399.884 274.565 392.691 C 275.985 388.735,277.231 385.368,277.334 385.209 C 277.540 384.890,296.089 384.813,297.216 385.126 C 297.739 385.272,298.047 385.996,300.380 392.586 L 302.964 399.884 308.211 399.946 C 312.680 399.999,313.457 399.959,313.457 399.671 C 313.457 399.387,308.104 384.668,303.366 371.926 C 302.679 370.075,301.490 366.839,300.724 364.733 C 297.393 355.568,292.347 341.971,292.115 341.539 C 291.875 341.090,291.649 341.067,287.372 341.067 L 282.880 341.067 281.788 344.026 M316.536 341.359 C 316.597 341.520,318.259 344.104,320.229 347.102 C 322.199 350.100,324.527 353.648,325.402 354.988 C 326.278 356.328,328.609 359.878,330.584 362.877 C 332.558 365.876,334.426 368.730,334.735 369.219 L 335.297 370.108 333.958 372.119 C 333.222 373.225,329.135 379.403,324.876 385.847 C 320.617 392.291,316.827 397.999,316.455 398.530 C 315.387 400.053,315.211 400.001,321.404 399.991 L 327.030 399.983 328.379 397.845 C 329.120 396.670,331.121 393.567,332.825 390.951 C 335.498 386.847,338.679 381.846,340.537 378.828 C 341.270 377.639,341.236 377.615,343.167 380.684 C 344.110 382.184,347.012 386.700,349.616 390.719 C 352.220 394.739,354.624 398.472,354.958 399.014 L 355.565 400.000 361.193 400.000 C 364.593 400.000,366.821 399.913,366.821 399.780 C 366.821 399.658,364.185 395.590,360.963 390.740 C 357.741 385.889,353.344 379.255,351.192 375.997 L 347.279 370.074 349.673 366.418 C 350.990 364.407,353.749 360.203,355.804 357.077 C 364.312 344.135,366.125 341.347,366.125 341.210 C 366.125 340.910,354.787 341.054,354.520 341.357 C 354.380 341.517,352.902 343.788,351.235 346.404 C 349.568 349.020,347.139 352.831,345.837 354.872 C 344.535 356.914,343.022 359.342,342.474 360.267 C 341.927 361.192,341.412 361.947,341.331 361.944 C 341.250 361.941,340.094 360.192,338.762 358.057 C 336.348 354.189,333.438 349.642,329.783 344.026 L 327.858 341.067 322.141 341.067 C 317.641 341.067,316.448 341.129,316.536 341.359 M289.774 362.355 C 290.939 365.896,292.457 370.386,293.146 372.332 L 294.400 375.870 287.480 375.870 L 280.560 375.870 281.491 373.260 C 282.644 370.026,285.865 360.457,286.677 357.851 C 287.009 356.787,287.365 355.916,287.468 355.916 C 287.572 355.916,288.610 358.814,289.774 362.355 " stroke="none" fill="#000000" fill-rule="evenodd"></path></g></svg>