<svg version="1.1" width="400" height="400" xmlns="http://www.w3.org/2000/svg">
<g>
<path d="M117.012 180.750 C 117.021 215.802,117.337 227.669,118.364 231.500 C 124.394 254.001,144.377 267.752,165.661 264.045 C 216.176 255.249,211.573 175.525,160.500 174.639 C 144.383 174.359,131.430 181.628,132.183 190.529 L 132.500 194.268 136.500 190.678 C 153.814 175.136,178.728 180.692,189.518 202.500 C 192.932 209.401,194.258 224.287,191.995 230.305 C 180.561 260.713,147.449 266.634,131.122 241.191 C 125.106 231.816,125.023 230.988,125.011 180.750 L 125.000 135.000 121.000 135.000 L 117.000 135.000 117.012 180.750 M52.925 174.866 C 13.054 180.854,5.265 244.075,42.377 260.488 C 61.142 268.787,86.935 262.477,86.982 249.576 L 87.000 244.651 84.259 247.076 C 82.751 248.409,81.288 249.780,81.009 250.121 C 72.897 260.030,49.840 258.680,38.481 247.633 C 8.816 218.783,38.810 167.766,75.103 185.343 C 90.684 192.889,94.371 202.516,94.796 236.750 L 95.121 263.000 99.061 263.000 L 103.000 263.000 103.000 240.332 C 103.000 214.975,102.066 207.235,97.954 198.500 C 89.783 181.143,72.284 171.959,52.925 174.866 M247.500 174.879 C 202.231 183.170,201.519 253.060,246.596 263.567 C 262.141 267.190,282.961 258.999,282.988 249.250 C 283.003 244.049,282.987 244.048,277.060 249.046 C 258.096 265.037,231.318 256.101,223.090 231.035 C 211.264 195.013,253.419 165.760,279.068 192.190 C 288.233 201.634,290.000 209.382,290.000 240.136 L 290.000 263.000 293.500 263.000 L 297.000 263.000 297.000 236.149 C 297.000 208.825,296.791 206.935,292.780 198.000 C 285.418 181.599,265.722 171.542,247.500 174.879 M325.885 177.380 C 315.878 180.956,311.447 188.027,312.243 199.151 C 313.025 210.079,321.480 216.783,339.017 220.379 C 362.212 225.137,371.000 230.976,371.000 241.630 C 371.000 252.966,365.628 255.000,335.684 255.000 L 312.000 255.000 312.000 259.079 L 312.000 263.159 335.750 262.787 C 371.910 262.220,379.006 258.420,378.996 239.628 C 378.989 225.479,371.182 219.669,344.500 213.954 C 325.934 209.977,318.628 204.124,320.406 194.650 C 322.259 184.772,327.048 183.050,352.750 183.022 L 373.000 183.000 373.000 179.500 L 373.000 176.000 351.250 176.044 C 336.107 176.074,328.402 176.480,325.885 177.380 " stroke="none" fill-rule="evenodd"></path>
</g>
</svg>