<svg xmlns="http://www.w3.org/2000/svg" width="400" height="400" viewBox="0, 0, 400,400"><g><path d="M132.176 119.543 C 128.045 122.350,128.335 117.765,128.335 180.178 C 128.335 241.552,128.128 237.809,131.754 241.743 C 138.271 248.813,173.681 251.552,192.630 246.452 C 207.564 242.432,218.894 230.878,222.728 215.756 C 224.459 208.929,224.455 187.581,222.721 180.686 C 216.529 156.069,190.737 146.140,165.802 158.776 L 163.151 160.119 163.151 142.559 C 163.151 123.325,163.108 123.005,160.132 120.203 L 158.512 118.679 146.204 118.527 C 134.079 118.378,133.870 118.393,132.176 119.543 M241.169 119.015 C 235.085 122.365,235.323 120.145,235.330 173.536 C 235.337 231.530,235.526 233.242,242.753 240.902 C 247.659 246.103,249.328 246.696,259.720 246.924 C 278.011 247.327,280.711 245.848,280.981 235.277 C 281.261 224.271,279.753 220.584,274.970 220.584 C 270.222 220.584,270.682 225.452,270.394 172.214 L 270.140 125.286 268.868 123.014 C 266.508 118.800,265.246 118.440,252.859 118.448 C 246.056 118.453,241.817 118.658,241.169 119.015 M47.297 154.815 C 37.009 156.060,32.480 157.837,31.703 160.937 C 30.604 165.312,32.769 177.326,35.159 180.125 L 36.713 181.944 42.118 181.740 C 45.090 181.628,49.123 181.295,51.080 181.001 C 68.522 178.377,80.813 182.014,80.813 189.799 L 80.813 191.495 78.907 190.840 C 77.859 190.480,76.201 190.033,75.222 189.845 C 74.244 189.658,72.414 189.307,71.156 189.065 C 64.383 187.762,48.263 188.678,43.455 190.640 C 42.617 190.982,41.642 191.321,41.288 191.394 C 38.002 192.069,30.707 199.106,28.574 203.657 C 26.432 208.230,26.435 226.847,28.579 231.424 C 30.005 234.467,36.169 241.423,37.440 241.423 C 37.814 241.423,38.119 241.616,38.119 241.851 C 38.119 242.493,45.564 245.809,49.047 246.718 C 58.193 249.106,71.736 249.960,82.592 248.835 C 105.170 246.495,113.235 243.770,114.856 237.935 C 115.509 235.581,115.557 181.711,114.908 178.751 C 114.650 177.579,114.189 175.362,113.882 173.825 C 111.757 163.190,103.902 156.789,90.470 154.744 C 84.035 153.764,55.597 153.811,47.297 154.815 M285.326 156.245 C 282.824 157.354,282.084 158.843,282.084 162.765 C 282.084 177.826,301.419 230.513,312.371 245.294 L 313.544 246.879 310.708 250.317 C 309.148 252.208,305.534 256.184,302.676 259.152 C 293.189 269.005,293.546 271.035,306.599 281.520 C 316.461 289.441,317.214 289.153,330.802 272.239 C 366.197 228.182,375.140 209.087,376.059 175.604 C 376.593 156.168,376.092 155.527,360.360 155.527 C 345.087 155.527,344.130 156.481,343.528 172.300 C 343.018 185.700,340.844 195.706,335.405 209.688 C 332.562 216.996,332.222 217.360,330.936 214.470 C 328.364 208.689,319.703 176.332,318.151 166.709 C 317.373 161.884,315.981 158.897,313.696 157.153 L 311.899 155.781 299.405 155.661 C 289.660 155.568,286.563 155.696,285.326 156.245 M179.611 183.503 C 185.452 185.689,188.056 190.995,188.056 200.714 C 188.056 203.704,187.866 206.367,187.633 206.633 C 187.401 206.898,186.924 208.145,186.573 209.403 C 183.991 218.658,173.385 224.561,164.745 221.549 L 163.138 220.989 163.272 202.873 L 163.405 184.756 166.455 183.641 C 170.532 182.150,175.845 182.094,179.611 183.503 M78.526 213.222 L 80.559 214.231 80.706 219.269 C 80.883 225.375,80.947 225.300,75.354 225.564 C 66.402 225.986,60.938 221.145,63.649 215.195 C 65.117 211.973,73.715 210.833,78.526 213.222 " stroke="none" fill-rule="evenodd"></path></g></svg>