<svg xmlns="http://www.w3.org/2000/svg" width="400" height="400" viewBox="0, 0, 400,400"><g><path d="M63.821 128.523 C 57.695 129.042,46.951 131.625,43.929 133.305 C 43.495 133.546,43.071 133.736,42.986 133.726 C 42.901 133.716,41.446 134.362,39.752 135.161 C 38.059 135.960,36.587 136.614,36.483 136.614 C 36.136 136.614,34.557 138.482,34.207 139.305 C 33.524 140.916,33.778 143.242,34.871 145.373 C 35.424 146.449,35.865 147.361,35.851 147.399 C 35.838 147.437,36.271 148.379,36.813 149.493 C 37.355 150.608,37.816 151.622,37.836 151.748 C 37.856 151.874,38.333 152.866,38.896 153.954 C 39.459 155.042,39.838 156.014,39.738 156.114 C 39.638 156.213,39.708 156.295,39.894 156.295 C 40.080 156.295,40.232 156.418,40.232 156.568 C 40.232 156.718,40.948 158.359,41.823 160.216 C 42.699 162.072,43.415 163.663,43.415 163.751 C 43.415 164.195,45.045 165.954,46.038 166.581 C 47.580 167.555,49.353 167.512,52.691 166.421 C 63.952 162.741,76.374 162.610,88.419 166.043 C 90.331 166.588,92.020 167.158,92.171 167.309 C 92.322 167.460,92.603 167.583,92.795 167.583 C 92.987 167.583,94.036 167.996,95.125 168.500 C 96.214 169.005,97.171 169.434,97.250 169.455 C 105.929 171.714,124.664 191.593,126.346 200.328 C 126.401 200.613,126.661 201.340,126.923 201.943 C 127.185 202.546,127.574 203.446,127.788 203.943 C 131.220 211.943,131.821 233.428,128.772 239.124 C 128.627 239.394,128.509 239.810,128.509 240.049 C 128.509 240.288,128.358 240.850,128.172 241.298 C 127.986 241.746,127.807 242.211,127.774 242.330 C 127.741 242.449,127.687 242.580,127.655 242.619 C 127.623 242.659,127.551 242.934,127.495 243.229 C 127.148 245.067,122.924 253.648,121.703 254.998 C 121.467 255.259,121.274 255.614,121.274 255.787 C 121.274 255.961,121.136 256.148,120.967 256.204 C 120.798 256.261,120.968 256.596,121.345 256.950 L 122.029 257.593 125.367 254.195 C 130.741 248.722,134.132 243.926,137.967 236.372 C 138.951 234.436,139.756 232.814,139.756 232.768 C 139.756 232.723,140.037 232.105,140.381 231.394 C 140.725 230.684,141.037 229.939,141.075 229.740 C 141.113 229.541,141.693 227.685,142.365 225.615 C 147.155 210.856,147.090 193.821,142.189 179.595 C 141.641 178.003,141.159 176.570,141.118 176.411 C 140.958 175.783,140.350 174.345,139.928 173.596 C 139.684 173.162,139.489 172.739,139.494 172.656 C 139.509 172.449,136.509 166.317,136.305 166.136 C 136.215 166.056,135.701 165.210,135.164 164.255 C 130.881 156.647,121.285 146.506,113.300 141.150 C 112.193 140.408,111.158 139.702,110.999 139.582 C 110.839 139.462,109.993 138.986,109.117 138.524 C 108.242 138.063,107.395 137.586,107.236 137.465 C 106.767 137.109,101.178 134.299,100.938 134.299 C 100.816 134.298,100.165 134.049,99.490 133.744 C 90.067 129.487,76.274 127.468,63.821 128.523 M247.484 154.906 C 245.132 156.504,245.297 153.913,245.297 189.291 C 245.297 224.082,245.179 221.965,247.243 224.205 C 250.954 228.231,271.120 229.791,281.910 226.887 C 290.415 224.598,296.866 218.018,299.050 209.407 C 300.034 205.526,300.031 193.647,299.045 189.725 C 295.521 175.707,280.832 170.052,266.632 177.248 L 265.123 178.013 265.123 168.013 C 265.123 157.060,265.098 156.878,263.404 155.282 L 262.481 154.414 255.472 154.328 C 248.567 154.243,248.448 154.251,247.484 154.906 M309.551 154.606 C 306.088 156.512,306.222 155.268,306.226 185.508 C 306.230 218.369,306.341 219.367,310.453 223.727 C 313.247 226.688,314.198 227.026,320.116 227.156 C 330.461 227.384,332.067 226.524,332.223 220.671 C 332.386 214.563,331.505 212.446,328.800 212.446 C 326.096 212.446,326.358 215.218,326.194 184.900 L 326.049 158.177 325.325 156.883 C 323.981 154.483,323.262 154.278,316.208 154.283 C 312.335 154.285,309.920 154.402,309.551 154.606 M65.123 171.263 C 39.175 174.185,19.772 195.621,19.185 222.015 C 18.397 257.379,50.225 282.366,84.925 273.626 C 102.557 269.185,117.387 253.982,121.978 235.642 C 128.540 209.422,113.185 181.743,87.554 173.591 C 84.662 172.671,82.852 172.259,77.738 171.358 C 76.135 171.076,67.372 171.010,65.123 171.263 M199.148 174.992 C 193.288 175.701,190.711 176.713,190.267 178.480 C 189.661 180.896,190.891 187.541,192.236 189.116 L 193.121 190.152 196.199 190.036 C 197.891 189.972,200.188 189.782,201.302 189.615 C 211.382 188.098,218.234 190.185,218.234 194.770 L 218.234 195.880 217.149 195.508 C 216.552 195.303,215.608 195.048,215.051 194.941 C 214.493 194.834,213.452 194.634,212.735 194.496 C 208.878 193.754,199.698 194.276,196.960 195.393 C 196.483 195.588,195.928 195.781,195.727 195.823 C 193.855 196.207,189.700 200.215,188.486 202.806 C 187.267 205.407,187.269 215.725,188.489 218.329 C 189.301 220.062,192.811 224.023,193.535 224.023 C 193.748 224.023,193.922 224.133,193.922 224.267 C 193.922 224.632,198.161 226.521,200.145 227.038 C 205.353 228.398,213.065 228.885,219.247 228.244 C 232.105 226.911,236.697 225.360,237.620 222.037 C 237.993 220.697,238.020 190.308,237.650 188.623 C 237.504 187.956,237.241 186.693,237.066 185.818 C 235.856 179.762,231.383 176.116,223.734 174.952 C 220.069 174.394,203.875 174.421,199.148 174.992 M334.697 175.806 C 333.301 176.425,332.851 177.296,332.851 179.375 C 332.851 187.845,343.936 217.922,350.138 226.280 L 350.846 227.234 349.654 228.778 C 348.998 229.628,346.924 231.934,345.044 233.903 C 339.184 240.041,339.289 240.815,346.811 246.857 C 352.428 251.368,352.856 251.203,360.594 241.572 C 380.701 216.544,385.852 205.574,386.363 186.686 C 386.659 175.770,386.364 175.398,377.426 175.398 C 368.729 175.398,368.184 175.941,367.841 184.949 C 367.551 192.580,366.313 198.279,363.216 206.241 C 361.597 210.402,361.403 210.610,360.670 208.964 C 359.206 205.672,354.274 187.246,353.390 181.766 C 352.947 179.018,352.154 177.317,350.853 176.324 L 349.829 175.543 342.715 175.474 C 337.165 175.421,335.402 175.494,334.697 175.806 M274.496 191.040 C 277.856 192.297,279.305 195.295,279.305 200.986 C 279.305 202.768,279.197 204.349,279.065 204.501 C 278.932 204.652,278.661 205.362,278.461 206.078 C 276.991 211.349,270.951 214.710,266.031 212.995 L 265.116 212.676 265.192 202.215 L 265.268 191.753 267.004 191.118 C 269.326 190.269,272.351 190.237,274.496 191.040 M76.292 200.581 C 97.364 205.932,100.870 234.115,81.673 243.825 C 66.245 251.628,48.046 240.446,48.046 223.163 C 48.046 208.492,62.365 197.045,76.292 200.581 M216.932 207.964 L 218.090 208.538 218.173 211.552 C 218.273 215.192,218.323 215.130,215.125 215.281 C 209.946 215.525,206.841 212.640,208.460 209.087 C 209.296 207.253,214.192 206.603,216.932 207.964 " stroke="none" fill-rule="evenodd"></path></g></svg>