<svg width="100%" height="100%" viewBox="0 0 400 400" version="1.1" xmlns="http://www.w3.org/2000/svg" style="fill-rule:evenodd;clip-rule:evenodd;stroke-linejoin:round;stroke-miterlimit:2;">
    <g>
        <path d="M221,4.026C167.878,8.243 126.355,20.496 110.087,36.755C97.947,48.889 103.874,62.132 126.654,73.771L132.974,77L177.321,77.333L221.667,77.667L225.452,79.525C230.3,81.906 236.203,88.182 237.785,92.637L238.949,95.913L243.641,96.34C249.466,96.87 276.937,95.687 290.716,94.312C367.202,86.684 413.008,60.219 390.053,36.92C367.631,14.161 288.146,-1.305 221,4.026M103.333,77.333L109.333,77.333C116.282,77.333 116.183,77.406 112.534,74.992C110.995,73.973 108.295,71.792 106.534,70.145L103.333,67.151M394.015,69.649C375.747,88.513 316.544,103.329 259.419,103.333L247.837,103.333L253.32,113L253.327,154.809L253.333,196.618L261.167,196.281C331.476,193.258 383.551,177.554 394.427,156.095L396.333,152.333L396.525,118C396.63,99.117 396.63,79.974 396.525,75.461L396.333,67.255L394.015,69.649M12,85.379C8.667,86.891 4.394,90.708 2.945,93.467C1.526,96.17 1.526,303.83 2.945,306.533C4.396,309.296 8.67,313.111 12,314.616C14.973,315.959 216.617,316 216.617,316L220.413,314.58C225.388,312.718 229.388,308.713 231.255,303.724L232.684,299.905L232.333,99L230.93,95.966C228.877,91.531 225.746,88.301 221.454,86.193L217.667,84.333C217.667,84.333 14.983,84.026 12,85.379M180.555,265.757C180.272,267.226 153.141,268.069 151.714,266.653C151.321,266.263 140.889,235.667 140.889,235.667L92.453,235.667C92.453,235.667 82.383,265.008 82.02,265.833C81.162,267.788 53.642,268.246 52.902,266.318C52.361,264.908 101.31,132.642 101.31,132.642L117.107,132.821L132.905,133M115.789,156C115.596,156.55 97.484,214.373 97.595,214.484C97.707,214.596 135.208,214.333 135.208,214.333C135.208,214.333 116.251,154.686 115.789,156M394.015,169.649C376.18,188.066 316.491,203.314 262.167,203.331L253.333,203.333L253.333,296.623L262.167,296.275C329.893,293.61 384.152,277.139 394.479,256.11L396.333,252.333C396.333,252.333 396.63,179.974 396.525,175.461L396.333,167.255L394.015,169.649M394,269.685C376.854,287.512 324.027,301.486 267.57,303.128L253.474,303.538L253.21,310.602C253.065,314.488 252.619,318.267 252.218,319C251.817,319.733 251.079,321.223 250.578,322.311C249.128,325.458 241.973,332.342 237.986,334.425L234.333,336.333L103.228,336.692L103.447,345.179C103.819,359.548 109.552,366.362 129.139,375.712C197.573,408.381 352.212,401.186 389.58,363.595C396.98,356.151 396.757,357.892 396.529,309.13L396.333,267.259L394,269.685"/>
    </g>
</svg>
