<svg width="100%" height="100%" viewBox="0 0 400 400" version="1.1" xmlns="http://www.w3.org/2000/svg" style="fill-rule:evenodd;clip-rule:evenodd;stroke-linejoin:round;stroke-miterlimit:2;">
    <g>
        <path d="M189.667,117.333C189.037,118.453 186.725,121.718 184.607,119.864C177.873,113.968 142.846,37.113 141.667,37.333C140.032,37.638 5.333,310 5.333,310L92,310C92,310 67.333,360.001 67.333,363.667L67.333,367.333L399.333,367.333L399.333,365C399.333,360.494 234.525,34.562 232.647,31.699M234,45.977C234,47.979 390,360 390,360L76.667,360L76.667,358.071C76.667,354.797 99.333,310 99.333,310L278,310C278,310 211.076,175.814 190.902,134.794C187.816,128.519 194.157,122.315 196.667,117.526C204.194,103.162 229.444,48.966 232.444,44.444C232.847,43.837 234,45.249 234,45.977"/>
    </g>
</svg>
