<?xml version="1.0" encoding="UTF-8" standalone="no"?>
<!DOCTYPE svg PUBLIC "-//W3C//DTD SVG 1.1//EN" "http://www.w3.org/Graphics/SVG/1.1/DTD/svg11.dtd">
<svg width="100%" height="100%" viewBox="0 0 515 515" version="1.1" xmlns="http://www.w3.org/2000/svg" xmlns:xlink="http://www.w3.org/1999/xlink" xml:space="preserve" xmlns:serif="http://www.serif.com/" style="fill-rule:evenodd;clip-rule:evenodd;stroke-linejoin:round;stroke-miterlimit:2;">
    <g id="svgg">
        <path id="path0" d="M0,257.5L0,515L515,515L515,0L0,0L0,257.5M491,258.5L491,491L24,491L24,26L491,26L491,258.5M90,360C90,360 127.292,360.407 130.5,358C132.537,356.472 140.817,320.927 143,310.559C144.004,305.792 144.622,298.429 148.392,294.834C155.127,288.412 211.967,294.967 213.5,296.5C214.217,297.217 229.09,358.205 231.782,361.435C232.459,362.248 263.418,363.09 267.75,362.729C269.088,362.618 273.16,360.642 273.676,358.911C275.119,354.07 206.531,117.855 204.492,116.865C196.695,113.076 187.169,116 178.5,116L152,116M203,253L180,253C172.326,253 164.642,252.695 157,252C156.531,251.957 179.811,167.151 180,167C180.368,166.706 180.766,165.591 181,166M332.41,177C327.903,178.836 322.189,181.252 318.046,183.689C313.632,186.285 300.437,201.298 297.071,205C294.512,207.815 285.447,229.403 284,237C283.211,241.142 279.997,266.559 280,272.429C280.011,294.275 283.409,323.2 299.922,340.008C308.967,349.215 317.386,355.673 329.5,360C331.26,360.629 332.589,362.305 334.417,362.696C347.723,365.548 404.705,358.457 405.149,354.996C405.91,349.063 406,343.053 406,337.071L406,319C406,319 394.359,322.201 390,323C383.382,324.212 375.214,326.089 368.584,326.442C364.225,326.674 349.139,324.103 344,320.5C335.295,314.397 327.091,306.528 325,296C324.234,292.143 324.62,288.097 323.689,284.276C323.412,283.139 387.899,279.857 406,278.989C411.021,278.748 417.34,277.948 417.734,271.917C418.626,258.234 419.513,241.54 415.333,229C412.936,221.807 413.219,213.75 409,207C407.565,204.705 405.277,200.514 403.706,198.679C402.412,197.168 394.391,186.388 390.546,184.51C388.907,183.709 384.642,181.082 381.857,180.032C370.669,175.815 369.49,175 354.059,175M368.966,219.007C371.255,221.275 379,237.675 379,239.5L379,244L324,244C324,244 322.292,225.571 331.759,218.597C332.089,218.354 340.797,215.417 342,215C347.4,213.129 354.556,213.743 360.125,214.274"/>
    </g>
</svg>
