<svg xmlns="http://www.w3.org/2000/svg" width="400" height="400" viewBox="0, 0, 400,400" version="1.1">
<g>
<path d="M187.793 32.954 C 186.933 33.114,184.397 33.836,182.160 34.558 C 178.022 35.894,30.606 96.684,27.070 98.512 C 20.942 101.682,20.198 111.194,25.755 115.324 C 27.649 116.732,175.600 175.658,183.099 177.991 C 192.997 181.072,205.139 181.071,215.023 177.990 C 222.123 175.776,370.421 116.763,372.212 115.438 C 377.659 111.410,377.272 102.163,371.518 98.824 C 368.888 97.298,220.573 36.012,215.453 34.336 C 211.360 32.996,192.609 32.059,187.793 32.954 M387.480 133.768 C 375.721 137.975,217.634 199.603,216.418 200.455 C 211.901 203.617,212.207 197.610,212.207 283.301 L 212.207 360.080 213.532 362.439 C 215.194 365.395,218.746 367.449,222.196 367.449 C 226.735 367.449,394.071 302.350,396.676 299.571 C 400.118 295.898,400.032 298.154,399.853 216.436 L 399.687 140.434 397.882 138.068 C 395.277 134.653,390.513 132.683,387.480 133.768 M6.992 134.561 C 5.845 134.843,3.874 135.910,2.610 136.933 L 0.313 138.792 0.154 214.110 L -0.005 289.429 1.406 290.935 C 6.942 296.844,4.929 297.563,69.797 266.527 C 188.416 209.773,178.717 215.033,178.717 207.462 C 178.717 199.666,186.105 203.225,94.142 166.724 C 12.378 134.272,10.697 133.651,6.992 134.561 " stroke="none" fill-rule="evenodd"></path>
</g>
</svg>