<svg xmlns="http://www.w3.org/2000/svg" width="400" height="400" viewBox="0, 0, 400,400" version="1.1">
<g>
<path d="M48.761 156.464 C 48.537 156.505,47.879 156.693,47.298 156.880 C 46.224 157.227,7.947 173.011,7.029 173.486 C 5.437 174.309,5.244 176.779,6.687 177.851 C 7.179 178.217,45.595 193.517,47.542 194.123 C 50.112 194.923,53.264 194.923,55.831 194.122 C 57.674 193.548,96.180 178.225,96.645 177.881 C 98.059 176.835,97.959 174.434,96.465 173.567 C 95.782 173.171,57.272 157.258,55.942 156.823 C 54.880 156.475,50.011 156.231,48.761 156.464 M147.217 173.547 C 146.889 173.917,125.115 228.121,125.026 228.789 C 124.894 229.789,125.090 229.825,130.684 229.825 C 134.408 229.825,135.723 229.774,135.926 229.622 C 136.075 229.510,137.196 226.713,138.417 223.405 C 139.638 220.098,140.709 217.300,140.798 217.188 C 140.923 217.029,143.439 216.985,152.393 216.985 L 163.828 216.985 164.066 217.351 C 164.197 217.552,165.261 220.313,166.432 223.486 C 167.808 227.217,168.679 229.357,168.898 229.541 C 169.871 230.360,179.927 229.856,179.927 228.988 C 179.927 228.585,157.772 173.647,157.537 173.466 C 157.068 173.106,147.543 173.181,147.217 173.547 M186.962 173.410 C 182.329 174.603,180.724 180.245,184.067 183.588 C 187.889 187.410,194.296 184.710,194.298 179.277 C 194.300 175.495,190.540 172.489,186.962 173.410 M301.921 173.518 C 301.691 173.749,301.666 176.515,301.666 201.546 L 301.666 229.319 302.027 229.572 C 302.565 229.949,310.681 229.949,311.219 229.572 C 311.564 229.331,311.581 229.213,311.581 226.972 C 311.581 224.502,311.644 224.297,312.145 225.152 C 315.726 231.278,326.329 232.845,333.687 228.336 C 344.749 221.556,345.050 201.380,334.197 194.165 C 331.119 192.118,328.464 191.389,324.096 191.391 C 318.642 191.392,315.297 192.870,312.566 196.483 L 311.662 197.679 311.581 185.627 C 311.510 175.152,311.468 173.556,311.256 173.422 C 310.799 173.133,302.218 173.222,301.921 173.518 M347.085 173.494 C 346.594 173.853,346.588 228.940,347.079 229.483 C 347.549 230.003,355.923 230.018,356.440 229.500 C 356.929 229.011,356.957 173.974,356.468 173.532 C 356.054 173.157,347.592 173.123,347.085 173.494 M234.900 177.742 L 234.539 177.995 234.539 184.949 C 234.539 193.385,234.972 192.442,231.097 192.442 C 228.546 192.442,228.222 192.473,227.981 192.739 C 227.630 193.127,227.570 200.249,227.916 200.535 C 228.034 200.633,229.356 200.727,231.077 200.758 C 233.226 200.798,234.093 200.870,234.247 201.024 C 234.413 201.190,234.476 203.383,234.546 211.426 C 234.644 222.584,234.623 222.338,235.660 224.543 C 237.425 228.293,240.661 229.821,246.839 229.824 C 250.491 229.826,250.142 230.315,250.142 225.185 C 250.142 220.328,250.287 220.647,248.019 220.518 C 244.590 220.321,244.572 220.265,244.495 209.741 C 244.420 199.659,243.901 200.841,248.457 200.731 L 251.840 200.650 252.050 200.244 C 252.428 199.513,252.262 192.967,251.858 192.673 C 251.611 192.492,250.850 192.442,248.354 192.442 C 244.036 192.442,244.551 193.439,244.453 184.891 C 244.384 178.827,244.337 177.779,244.128 177.648 C 243.677 177.363,235.320 177.448,234.900 177.742 M100.610 182.640 C 97.556 183.733,56.509 199.735,56.193 199.956 C 55.020 200.777,55.100 199.217,55.100 221.467 L 55.100 241.402 55.444 242.015 C 55.875 242.782,56.798 243.316,57.693 243.316 C 58.872 243.316,102.321 226.413,102.997 225.691 C 103.891 224.737,103.869 225.323,103.822 204.105 L 103.779 184.371 103.310 183.757 C 102.634 182.870,101.397 182.359,100.610 182.640 M1.815 182.846 C 1.518 182.919,1.006 183.197,0.678 183.462 L 0.081 183.945 0.040 203.501 L -0.001 223.058 0.365 223.449 C 1.802 224.983,1.280 225.170,18.123 217.111 C 48.922 202.375,46.404 203.741,46.404 201.775 C 46.404 199.751,48.322 200.675,24.444 191.197 C 3.214 182.771,2.777 182.610,1.815 182.846 M152.902 187.211 C 153.077 187.321,160.260 206.421,160.260 206.774 C 160.260 207.535,160.036 207.558,152.495 207.558 C 144.838 207.558,144.657 207.539,144.657 206.720 C 144.657 206.335,151.584 187.592,151.840 187.284 C 152.030 187.055,152.596 187.016,152.902 187.211 M220.236 191.491 C 215.924 192.116,212.407 194.995,210.636 199.350 L 210.240 200.325 210.196 196.677 C 210.159 193.570,210.113 192.986,209.886 192.736 C 209.508 192.317,201.077 192.282,200.662 192.698 C 200.235 193.124,200.276 229.170,200.704 229.556 C 201.218 230.022,209.502 229.957,209.930 229.483 C 210.225 229.158,210.244 228.692,210.328 219.934 C 210.428 209.593,210.432 209.556,211.730 206.910 C 213.182 203.951,216.191 202.330,220.691 202.082 C 223.355 201.936,223.176 202.362,223.123 196.277 L 223.080 191.386 222.186 191.362 C 221.694 191.348,220.817 191.406,220.236 191.491 M269.297 191.549 C 264.982 192.363,261.106 194.858,258.565 198.456 C 253.706 205.337,253.774 216.913,258.715 223.942 C 264.808 232.609,279.645 233.425,284.800 225.376 L 285.331 224.547 285.412 226.845 C 285.527 230.092,285.076 229.825,290.451 229.825 C 294.447 229.825,294.810 229.802,295.058 229.528 C 295.460 229.084,295.474 193.099,295.072 192.698 C 294.798 192.424,286.360 192.302,285.965 192.566 C 285.528 192.858,285.412 193.479,285.412 195.530 L 285.412 197.665 284.524 196.476 C 281.453 192.368,275.375 190.401,269.297 191.549 M377.651 191.556 C 367.042 193.531,360.804 203.119,362.535 214.791 C 364.876 230.583,384.052 236.419,397.292 225.368 C 398.702 224.191,398.801 224.557,395.981 220.528 C 393.488 216.966,393.654 217.035,391.604 218.706 C 384.356 224.609,374.019 222.507,372.214 214.764 C 371.794 212.964,370.779 213.084,386.364 213.084 L 399.342 213.084 399.609 212.677 C 400.110 211.912,399.593 206.232,398.762 203.364 C 397.028 197.380,392.974 193.405,387.005 191.836 C 385.009 191.312,379.801 191.155,377.651 191.556 M183.609 192.739 C 183.147 193.250,183.202 229.037,183.665 229.500 C 184.147 229.982,192.553 230.007,192.986 229.528 C 193.388 229.084,193.401 193.099,192.999 192.698 C 192.581 192.279,183.991 192.317,183.609 192.739 M384.397 199.740 C 387.021 200.559,388.858 202.560,389.461 205.255 C 389.813 206.825,390.272 206.745,380.909 206.745 C 371.170 206.745,371.586 206.906,373.103 203.729 C 374.846 200.081,379.839 198.317,384.397 199.740 M278.528 201.072 C 287.593 203.846,287.907 217.879,278.975 220.995 C 276.278 221.936,272.415 221.570,270.053 220.151 C 263.934 216.475,263.812 206.049,269.842 202.172 C 272.058 200.747,275.883 200.263,278.528 201.072 M324.465 200.987 C 333.885 203.427,334.242 218.430,324.943 221.081 C 319.007 222.774,313.367 219.781,312.017 214.222 C 309.955 205.733,316.388 198.894,324.465 200.987 " stroke="none" fill-rule="evenodd"></path>
</g>
</svg>