<svg
   xmlns="http://www.w3.org/2000/svg"
  
   version="1.1"
   fill="none"
   viewBox="0 0 48 48">
  <defs
     />
  <path
    
     d="M 24 0 A 24 24 0 0 0 0 24 A 24 24 0 0 0 24 48 A 24 24 0 0 0 48 24 A 24 24 0 0 0 24 0 z M 23.871094 12.248047 C 24.319094 12.248047 24.735141 12.364909 25.119141 12.599609 C 25.524441 12.812909 25.823625 13.133847 26.015625 13.560547 L 34.880859 32.535156 C 35.008859 32.812456 35.072266 33.089888 35.072266 33.367188 C 35.072266 33.857887 34.870144 34.273934 34.464844 34.615234 C 34.080844 34.956534 33.631141 35.128906 33.119141 35.128906 C 32.777841 35.128906 32.458856 35.041794 32.160156 34.871094 C 31.861456 34.679094 31.625778 34.391813 31.455078 34.007812 L 29.535156 29.720703 L 18.271484 29.720703 L 16.351562 34.007812 C 16.180862 34.391813 15.947137 34.679094 15.648438 34.871094 C 15.349737 35.041794 15.01895 35.128906 14.65625 35.128906 C 14.16555 35.128906 13.7178 34.956534 13.3125 34.615234 C 12.9072 34.273934 12.703125 33.857888 12.703125 33.367188 C 12.703125 33.089887 12.768484 32.812456 12.896484 32.535156 L 21.728516 13.560547 C 21.920516 13.133847 22.207797 12.812909 22.591797 12.599609 C 22.997097 12.364909 23.423094 12.248047 23.871094 12.248047 z M 23.904297 17.015625 L 19.679688 26.519531 L 28.128906 26.519531 L 23.904297 17.015625 z " />
</svg>
