<svg width="100%" height="100%" viewBox="0 0 515 515" version="1.1" xmlns="http://www.w3.org/2000/svg" style="fill-rule:evenodd;clip-rule:evenodd;stroke-linejoin:round;stroke-miterlimit:2;">
    <g>
        <path d="M313.502,39.669C304.165,41.693 167.079,68.987 155.51,75.118C142.656,81.929 66.561,147.455 61.936,159.644C55.347,177.013 17,428 17,428C17,428 136.747,428.543 137,426.5C138.182,416.944 149.189,333.283 150.249,332.222C157.101,325.363 284,326 284,326L284,367C284,367 448.561,273.767 447.66,271.667C446.695,269.414 294,204 294,204C294,204 293.017,240.433 287.155,242.432C281.323,244.421 163.892,254.529 156.764,251.418C152.363,249.498 167.56,154.485 180.932,138.481C195.872,120.601 208.766,116.251 218.472,115.149C220.705,114.896 272.341,112.244 276,114C288.087,119.8 296.503,132.286 297.703,145.591C298.438,153.739 293.911,181.225 296.5,185C297.876,187.006 454.944,252.821 455.5,251C462.245,228.92 457.756,118.643 448,88C445.852,81.253 381.328,39.438 359,36M464,435L495,419.091C495,419.091 494.835,191.509 494,146C493.933,142.349 464,108 464,108M218.589,121.157C206.876,121.951 197.435,130.737 190.486,139.326C178.604,154.011 167.742,232.495 168.564,240.946C168.71,242.442 170.195,244.62 171.917,244.712C181.507,245.226 250.477,239.465 255.231,237.771C263.947,234.665 265.678,198.884 267.498,191.963C269.16,185.641 277.037,174.501 281,169.567C283.288,166.719 286.72,165.515 287.721,161.583C291.646,146.163 287.038,126.776 271.947,118.909C269.999,117.893 267.546,118.75 265.376,118.41M281.31,389C281.31,389 274.665,436.434 291.148,439.59C295.338,440.392 445.738,448.134 454,443.5C459.033,440.677 457,294 457,294M160.438,337.395L147.696,428L237.037,412.411L249,336"/>
    </g>
</svg>
