<svg width="100%" height="100%" viewBox="0 0 400 400" version="1.1" xmlns="http://www.w3.org/2000/svg" style="fill-rule:evenodd;clip-rule:evenodd;stroke-linejoin:round;stroke-miterlimit:2;">
    <g>
        <path d="M144.5,1.549C95.961,10.589 68.456,61.416 79.381,108.026C84.892,131.539 100.861,147.55 113.055,167.811C114.016,169.408 60.386,207.157 47.013,224.614C19.526,260.495 22.264,314.788 48,350.809C60.954,368.939 107.43,395.257 111.753,396.329C120.204,398.426 140.638,399.5 149.272,399.298C166.294,398.9 183.878,397.966 199.75,391.094C220.283,382.204 259.506,346.174 262.796,348.403C266.195,350.705 298.23,393 298.23,393L372,393C372,393 309.49,312.441 304.548,305.436C303.059,303.326 346.531,253.581 347,250.205C347.438,247.05 329.863,208.883 319.302,199.15C318.405,198.323 265.998,258.415 265.998,258.415C265.998,258.415 236.924,223.537 224,208.171C218.719,201.892 203.889,185.671 199.616,178.562C198.501,176.708 244.899,137.417 253.256,125.076C262.462,111.481 262.061,94.058 261.313,78.481C260.86,69.058 258.053,52.198 254.103,43.496C251.733,38.277 241.709,27.631 237.572,23.903C212.664,1.462 176.76,-4.46 144.5,1.549M178.489,50.737C180.776,51.381 183.247,51.698 185.424,52.652C191.382,55.265 196.202,59.291 200.107,64.458C213.252,81.852 199.027,104.251 185.847,116.664C178.158,123.905 162.912,135.179 162.912,135.179C162.912,135.179 138.85,109.678 135.078,95.074C134.022,90.984 133.93,72.621 135.952,68.789C141.584,58.116 152.823,52.958 163.833,49.75M151.43,213.75C153.634,220.573 223.093,300.34 222.401,302.545C218.849,313.875 160.457,345.252 148.803,345.544C111.955,346.467 83.673,309.278 87.736,274.115C89.055,262.698 150.517,210.918 151.43,213.75"/>
    </g>
</svg>
