<svg width="100%" height="100%" viewBox="0 0 400 400" version="1.1" xmlns="http://www.w3.org/2000/svg" style="fill-rule:evenodd;clip-rule:evenodd;stroke-linejoin:round;stroke-miterlimit:2;">
    <g>
        <path d="M35.447,166.06C35.368,166.189 36.015,166.827 36.887,167.477C37.758,168.128 39.134,169.263 39.944,170L41.418,171.339L39.062,173.807C36.179,176.827 36.176,176.706 39.133,176.706C54.928,176.706 65.879,192.81 59.934,207.294C54.936,219.472 40.915,224.864 29.228,219.102L27.412,218.207L19.765,218.402C19.765,218.402 20.429,226.454 20.949,226.876C28.499,233.007 43.792,233.881 54,228.766C82.087,214.692 76.7,173.38 45.878,166.471C43.804,166.006 35.678,165.686 35.447,166.06M26.446,168.315C24.566,169.073 20.865,171.061 21.028,171.225C21.123,171.319 25.81,172.471 26.101,172.471C26.328,172.471 28.513,168.008 28.419,167.736C28.383,167.631 27.495,167.891 26.446,168.315M29.131,173.444C29.356,173.65 33.21,175.294 33.468,175.294C33.583,175.294 37.047,171.486 37.047,171.486C37.047,171.486 32.096,167.765 31.922,167.765M18.588,177.146L18.588,180.471L23.902,180.175L24.446,178.146C24.745,177.03 25.041,175.898 25.103,175.63C25.216,175.138 18.588,173.822 18.588,173.822L18.588,177.146M14.235,177C12.821,178.559 10.497,181.869 10.684,182.057C10.772,182.144 14.173,181.453 15.706,181.036C16.057,180.94 16.134,175.529 15.784,175.529C15.666,175.529 14.969,176.191 14.235,177M27.331,178.087C27.052,179.106 26.824,180.008 26.824,180.092C26.824,180.175 27.591,179.838 28.529,179.341C29.468,178.845 30.599,178.312 31.044,178.157C32.004,177.824 31.892,177.694 29.926,176.863C27.881,175.999 27.907,175.987 27.331,178.087M104.224,180.131C103.207,181.357 87.041,217.069 87.273,217.578C87.512,218.101 87.615,218.118 90.623,218.118C94.395,218.118 94.102,218.327 95.884,214.349L97.252,211.294L113.078,211.294L114.446,214.339C116.249,218.351 115.955,218.146 119.791,218.066L122.941,218L123.011,217.285C123.089,216.492 106.844,180.606 106.16,180.059C105.65,179.651 104.59,179.691 104.224,180.131M127.235,180.019C126.71,180.325 126.584,217.313 127.106,217.835C127.525,218.254 133.265,218.225 133.616,217.802C133.799,217.582 134,194.365 134,194.365C134,194.365 157.003,219.703 158.353,218.353C158.883,217.823 159.112,182.435 158.594,181.074L158.365,180.471L155.211,180.471C152.862,180.471 151.991,180.551 151.796,180.786C151.614,181.005 151.412,203.284 151.412,203.284C151.412,203.284 128.766,179.127 127.235,180.019M179.478,180.176C179.033,180.685 162.353,216.773 162.353,217.226C162.353,217.983 162.904,218.118 166.011,218.118C169.7,218.118 169.311,218.406 171.175,214.294L172.535,211.294L188.353,211.305L189.647,214.245C191.467,218.378 191.138,218.144 195.015,218.065L198.235,218L198.299,217.294C198.369,216.529 181.948,180.336 181.364,179.965C180.843,179.635 179.854,179.745 179.478,180.176M214.979,180.016C199.552,182.14 192.854,201.317 203.591,212.621C210.775,220.184 223.162,220.782 230.412,213.917C231.67,212.725 231.573,212.385 229.348,210.171C227.082,207.917 226.882,207.87 224.997,209.157C214.334,216.434 201.623,204.67 207.685,193.134C211.07,186.695 218.712,184.962 225.046,189.198C227.206,190.643 226.846,190.724 229.269,188.247C231.76,185.702 231.773,185.558 229.647,183.845C225.784,180.732 220.257,179.29 214.979,180.016M250.148,180.005C237.071,181.821 229.689,196.12 235.633,208.118C242.653,222.287 263.471,222.157 270.355,207.901C277.135,193.861 265.548,177.866 250.148,180.005M278.405,180.131L277.882,180.497C277.882,180.497 277.964,217.36 278.126,217.663C278.427,218.226 284.514,218.371 284.868,217.824C284.973,217.662 285.294,194.475 285.294,194.475C285.294,194.475 307.754,219.174 309.249,218.606L309.882,218.365C309.882,218.365 309.815,180.968 309.6,180.753C309.196,180.349 303.158,180.36 302.896,180.765C302.792,180.926 302.471,203.123 302.471,203.123C302.471,203.123 279.95,179.049 278.405,180.131M366.429,179.948C366.149,180.126 349.801,215.241 349.348,216.638C348.915,217.973 349.256,218.118 352.824,218.118C356.514,218.118 356.075,218.439 357.918,214.392L359.275,211.412L375.156,211.412L376.477,214.306C378.353,218.415 377.966,218.144 381.827,218.065L385.059,218L385.132,217.363C385.212,216.676 368.724,180.306 368.175,179.958C367.805,179.723 366.792,179.717 366.429,179.948M316.753,180.753C316.344,181.162 316.344,217.426 316.753,217.835C317.208,218.29 331.969,218.225 334.227,217.759C353.92,213.691 354.044,184.977 334.385,180.81C332.301,180.368 317.187,180.319 316.753,180.753M20.039,182.998L18.783,183.085L19.659,187.882C19.659,187.882 21.719,184.989 22.278,184.328C23.685,182.663 23.808,182.736 20.039,182.998M8.662,185.25L8.801,185.945C8.957,186.729 11.332,191.592 11.965,192.428L12.379,192.973C12.379,192.973 17.311,189.877 17.436,189.835C17.744,189.732 16.455,183.287 16.133,183.319M255.599,187.409C265.028,189.865 268.238,201.314 261.352,207.926C253.864,215.117 241.636,210.493 240.794,200.152C240.15,192.238 248.047,185.442 255.599,187.409M333.621,187.77C344.543,191.626 344.084,207.651 332.957,210.919C332.01,211.197 323.765,211.294 323.765,211.294L323.765,187C323.765,187 332.349,187.321 333.621,187.77M6.741,190.765C6.158,193.125 5.46,198.48 5.704,198.723C5.763,198.783 6.278,198.377 6.847,197.82C7.417,197.264 8.564,196.202 9.397,195.46L10.912,194.11L10.389,193.232C10.102,192.748 9.393,191.426 8.813,190.294C7.493,187.714 7.495,187.714 6.741,190.765M16.102,192.706C12.908,194.706 12.959,194.28 15.529,197.482C16.869,199.152 16.846,199.158 17.035,197.069C17.123,196.104 17.407,194.503 17.667,193.511C18.254,191.267 18.334,191.308 16.102,192.706M110.313,205.059L100.027,205.059C100.027,205.059 105.089,193.724 105.127,193.759M185.563,205.059C185.563,205.059 175.425,205.151 175.382,205.108C175.339,205.064 180.363,193.672 180.659,194.296M372.425,205.176L367.246,205.176C363.198,205.176 362.093,205.112 362.184,204.882C362.603,203.824 367.157,193.668 367.193,193.711M8.973,198.257C5.886,201.195 5.997,200.808 7.824,202.266C10.719,204.578 12.706,205.777 12.706,205.214C12.706,205.106 15.732,200.427 15.732,200.427C15.732,200.427 12.728,196.768 12.517,196.412C11.958,195.468 11.841,195.529 8.973,198.257M15.441,203.561C13.499,206.575 13.436,206.3 16.39,207.706C19.436,209.156 19.243,209.299 18.253,206.328C17.805,204.983 17.365,203.326 17.277,202.647C17.068,201.042 17.061,201.046 15.441,203.561M5.882,203.081C5.882,204.589 7.689,210.956 8.644,212.81L9,213.502L11.727,206.865C11.727,206.865 5.882,202.658 5.882,203.081M10.118,215.059C10.118,215.351 11.399,215.692 14.553,216.241C18.643,216.953 18.257,217.183 18.42,213.939C18.497,212.418 18.619,211.015 18.692,210.822C18.802,210.53 15.5,208.735 13.146,207.806M19.915,211.369C19.844,211.651 19.713,213.021 19.623,214.412L19.46,216.941L22.397,216.941C26.022,216.941 25.969,217.01 23.888,215.033C22.941,214.135 21.812,212.877 21.378,212.238C20.453,210.877 20.091,210.662 19.915,211.369M10.824,216.857C10.824,217.72 17.832,225.412 18.618,225.412C18.778,225.412 18.806,225.064 18.699,224.427C18.607,223.886 18.465,222.218 18.384,220.721L18.235,218C18.235,218 10.824,216.746 10.824,216.857"/>
    </g>
</svg>
