<svg xmlns="http://www.w3.org/2000/svg" width="400" height="400" viewBox="0, 0, 400,400" version="1.1"><g><path d="M198.286 10.229 C 193.563 11.109,192.718 11.360,189.929 12.710 C 187.344 13.961,185.281 15.527,182.948 18.007 C 180.791 20.300,179.897 21.624,176.638 27.357 C 175.789 28.850,174.407 31.229,173.565 32.643 C 172.724 34.057,171.570 36.050,171.000 37.071 C 169.311 40.098,166.658 44.701,165.896 45.929 C 165.506 46.557,164.524 48.261,163.715 49.714 C 161.906 52.966,157.515 60.655,155.925 63.357 C 155.277 64.457,153.751 67.093,152.533 69.214 C 151.314 71.336,149.869 73.843,149.322 74.786 C 148.774 75.729,147.327 78.236,146.107 80.357 C 144.887 82.479,143.346 85.146,142.683 86.286 C 142.019 87.425,140.232 90.543,138.710 93.214 C 137.189 95.886,135.550 98.714,135.069 99.500 C 134.589 100.286,133.884 101.507,133.503 102.214 C 133.122 102.921,131.900 105.075,130.787 107.000 C 129.674 108.925,128.422 111.111,128.005 111.857 C 127.587 112.604,126.364 114.725,125.286 116.571 C 124.208 118.418,122.392 121.568,121.250 123.571 C 120.108 125.575,118.128 129.014,116.850 131.214 C 115.572 133.414,114.139 135.889,113.665 136.714 C 113.192 137.539,111.841 139.886,110.665 141.929 C 109.488 143.971,107.937 146.704,107.218 148.000 C 106.500 149.296,104.977 151.932,103.835 153.857 C 102.692 155.782,101.190 158.386,100.497 159.643 C 99.803 160.900,98.453 163.246,97.496 164.857 C 96.539 166.468,95.190 168.814,94.498 170.071 C 93.336 172.182,92.030 174.445,89.094 179.429 C 88.470 180.489,87.322 182.506,86.544 183.910 C 85.766 185.314,84.899 186.824,84.616 187.266 C 84.035 188.174,80.088 195.041,79.144 196.786 C 78.305 198.337,75.798 202.659,73.923 205.786 C 73.075 207.200,71.953 209.164,71.429 210.149 C 70.582 211.744,68.046 216.097,65.068 221.071 C 64.503 222.014,63.474 223.814,62.781 225.071 C 62.089 226.329,60.750 228.675,59.806 230.286 C 56.363 236.164,55.733 237.256,54.497 239.500 C 53.805 240.757,52.844 242.429,52.361 243.214 C 51.879 244.000,51.140 245.254,50.720 246.000 C 50.300 246.746,49.556 248.032,49.067 248.857 C 48.578 249.682,47.749 251.149,47.224 252.116 C 46.699 253.084,45.126 255.816,43.729 258.188 C 40.485 263.696,38.720 266.742,37.426 269.071 C 35.919 271.781,33.119 276.648,31.992 278.513 C 31.454 279.403,30.583 280.922,30.055 281.887 C 29.527 282.853,27.809 285.861,26.238 288.571 C 24.666 291.282,23.027 294.109,22.595 294.854 C 18.536 301.861,17.654 308.375,19.786 315.597 C 21.876 322.679,28.446 328.674,36.348 330.712 C 39.468 331.516,41.049 331.571,61.085 331.571 C 80.974 331.571,79.466 331.649,80.545 330.567 C 81.296 329.813,80.716 330.803,89.540 315.214 C 93.543 308.143,107.617 283.296,120.817 260.000 C 147.239 213.366,166.856 178.741,184.392 147.786 C 190.713 136.629,196.248 126.954,196.692 126.286 C 198.411 123.702,200.580 123.265,202.434 125.129 C 203.457 126.158,199.490 119.238,235.856 183.429 C 246.250 201.775,260.746 227.361,268.069 240.286 C 284.042 268.478,305.696 306.701,313.229 320.000 C 319.133 330.423,319.487 330.955,320.745 331.294 C 321.951 331.619,360.294 331.333,362.191 330.985 C 367.977 329.923,373.249 326.568,377.211 321.429 C 381.109 316.371,382.371 308.347,380.332 301.571 C 379.418 298.532,378.592 296.863,374.923 290.643 C 372.979 287.347,371.974 285.592,370.426 282.793 C 369.777 281.619,368.892 280.076,368.460 279.365 C 367.707 278.125,363.540 270.960,361.309 267.071 C 360.724 266.050,359.040 263.125,357.568 260.571 C 356.097 258.018,354.715 255.575,354.499 255.143 C 354.282 254.711,353.544 253.425,352.858 252.286 C 351.179 249.494,349.704 246.933,348.213 244.215 C 347.530 242.972,346.439 241.080,345.789 240.013 C 344.623 238.099,341.782 233.156,340.568 230.929 C 340.225 230.300,339.503 229.053,338.964 228.158 C 337.732 226.115,336.090 223.255,334.596 220.555 C 333.961 219.407,332.806 217.414,332.030 216.127 C 331.254 214.839,329.827 212.371,328.859 210.643 C 327.891 208.914,326.455 206.407,325.668 205.071 C 324.880 203.736,322.933 200.361,321.342 197.571 C 319.750 194.782,318.146 191.986,317.778 191.357 C 316.593 189.337,314.669 186.017,312.643 182.500 C 311.557 180.614,309.885 177.754,308.929 176.143 C 307.972 174.532,306.705 172.314,306.113 171.214 C 305.521 170.114,303.957 167.382,302.638 165.143 C 299.563 159.921,295.923 153.672,294.734 151.571 C 294.222 150.668,292.765 148.129,291.496 145.929 C 290.227 143.729,288.911 141.414,288.573 140.786 C 288.235 140.157,287.344 138.614,286.594 137.357 C 285.144 134.926,281.826 129.130,280.286 126.337 C 279.775 125.411,278.645 123.461,277.775 122.005 C 276.905 120.548,275.786 118.617,275.289 117.714 C 273.952 115.282,272.315 112.434,270.363 109.143 C 269.408 107.532,268.058 105.186,267.363 103.929 C 266.668 102.671,265.410 100.486,264.567 99.071 C 262.567 95.718,261.692 94.197,260.225 91.524 C 259.561 90.314,258.215 87.977,257.234 86.329 C 256.252 84.682,255.049 82.600,254.560 81.703 C 254.071 80.806,252.853 78.657,251.854 76.929 C 250.854 75.200,249.665 73.111,249.211 72.286 C 248.757 71.461,247.700 69.629,246.862 68.214 C 246.024 66.800,244.482 64.132,243.435 62.286 C 242.388 60.439,240.908 57.868,240.146 56.571 C 238.413 53.620,234.255 46.418,230.252 39.429 C 218.811 19.456,220.011 21.436,217.821 18.929 C 213.791 14.315,209.006 11.539,203.429 10.578 C 201.685 10.278,199.000 10.096,198.286 10.229 M202.006 133.517 C 201.761 133.723,201.451 134.092,201.316 134.338 C 201.079 134.772,200.854 329.974,201.089 331.549 C 201.309 333.022,201.302 333.019,212.214 337.124 C 217.243 339.016,222.064 340.854,222.929 341.209 C 223.793 341.563,224.579 341.854,224.675 341.855 C 225.053 341.859,242.588 348.494,243.969 349.156 C 247.891 351.035,261.493 355.857,262.871 355.857 C 263.303 355.857,268.496 357.725,271.775 359.060 C 272.802 359.478,274.093 359.965,274.643 360.143 C 275.550 360.437,282.660 363.077,291.643 366.456 C 293.529 367.165,295.907 368.084,296.929 368.497 C 297.950 368.910,299.236 369.394,299.786 369.571 C 300.336 369.749,307.729 372.502,316.214 375.690 C 333.284 382.101,332.432 381.841,333.643 381.008 C 335.691 379.599,339.857 374.983,339.857 374.123 C 339.857 373.671,337.344 368.944,334.930 364.857 C 334.443 364.032,333.703 362.714,333.286 361.929 C 332.356 360.179,330.191 356.345,329.857 355.857 C 329.723 355.661,329.025 354.425,328.307 353.111 C 327.589 351.797,326.753 350.317,326.450 349.821 C 325.627 348.477,320.905 340.188,319.814 338.174 C 319.292 337.209,318.426 335.827,317.890 335.102 C 316.278 332.924,316.259 332.893,309.681 321.286 C 306.185 315.118,295.655 296.539,286.281 280.000 C 274.427 259.086,269.101 249.559,268.790 248.714 C 268.545 248.046,267.344 245.732,266.120 243.571 C 264.897 241.411,260.053 232.861,255.355 224.571 C 250.658 216.282,246.666 209.126,246.485 208.669 C 246.079 207.643,247.166 209.586,234.170 186.643 C 228.162 176.036,219.550 160.832,215.033 152.857 C 204.245 133.809,204.704 134.591,203.865 133.806 C 203.040 133.036,202.650 132.975,202.006 133.517 M196.169 137.103 C 195.498 137.570,194.408 139.417,184.853 156.286 C 179.490 165.754,167.053 187.707,157.214 205.071 C 147.376 222.436,127.963 256.700,114.075 281.214 C 100.186 305.729,87.890 327.425,86.749 329.429 C 84.653 333.111,84.186 333.862,82.705 335.929 C 82.255 336.557,80.971 338.679,79.851 340.643 C 78.732 342.607,77.608 344.541,77.354 344.940 C 76.886 345.675,71.689 354.907,68.715 360.286 C 67.825 361.896,66.505 364.211,65.782 365.429 C 65.059 366.646,64.046 368.414,63.531 369.357 C 63.016 370.300,62.300 371.584,61.941 372.210 C 60.736 374.307,60.816 374.502,64.249 377.874 C 66.683 380.265,67.208 380.639,67.981 380.535 C 68.275 380.496,74.426 378.243,81.650 375.529 C 88.875 372.815,103.914 367.173,115.071 362.991 C 190.539 334.702,196.848 332.319,197.312 331.930 C 197.572 331.712,197.946 331.309,198.143 331.034 L 198.500 330.535 198.500 234.803 C 198.500 182.151,198.448 138.827,198.385 138.527 C 198.125 137.299,196.961 136.551,196.169 137.103 " stroke="none" fill-rule="evenodd"></path></g></svg>