<svg width="100%" height="100%" viewBox="0 0 400 400" version="1.1" xmlns="http://www.w3.org/2000/svg" style="fill-rule:evenodd;clip-rule:evenodd;stroke-linejoin:round;stroke-miterlimit:2;">
    <g>
        <path d="M179.5,8.972C152.222,12.255 94.7,43.827 92.5,45.434C87.327,49.214 62.25,76.725 61.931,77C52.794,84.867 35.766,123.479 30.84,147.5C28.086,160.93 27.524,195.479 29.865,207.5C35.237,235.096 54.878,273.357 61.905,283C69.97,294.067 87.861,311.267 89.257,310.732C89.958,310.462 91.189,308.95 91.991,307.371C92.793,305.792 157.924,192.375 159,191C161.635,187.632 161.497,186.273 158.203,183.151C151.934,177.208 152,177.526 152,153.478C152,124.023 154.74,119.205 172.058,118.203L180,117.743L180,86C180,86 217.675,84 218.5,84C219.77,84 220,115.711 220,115.711L227.473,116.277C234.702,116.823 241.687,120.446 246.25,127.249C251.427,132.61 248.754,170.86 247.585,175.516C247.28,176.732 245.223,179.589 243.015,181.865C238.098,186.931 238.079,186.187 243.356,195.123C245.752,199.181 250.188,206.775 253.213,212C266.431,234.832 269.53,239.998 270,239.984C272.46,239.913 285.364,216.9 287.934,208C288.649,205.525 291.334,193.599 291.677,188.773L292.299,180L323.716,181.233L323.276,188.366C321.579,215.9 309.012,245.041 290.513,264.343C286.205,268.837 286.273,269.77 291.54,278.5C293.531,281.8 310.669,311 311.205,311C313.243,311 331.007,292.037 338.839,281.5C360.628,252.189 371.432,218.893 371.449,181C371.457,164.01 371.102,158.332 369.56,150.75C369.252,149.238 368.804,146.988 368.564,145.75C367.174,138.576 363.395,125.803 360.422,118.231C358.54,113.437 357,109.231 357,108.885C357,106.646 336,74.487 336,74.034C336,72.759 312.001,48.646 307.5,45.398C305.3,43.81 303.275,42.254 303,41.94C301.781,40.545 280.471,27 279.497,27C279.333,27 275.441,25.258 270.849,23.13C245.031,11.162 208.435,5.49 179.5,8.972M191.885,133.318C166.622,142.775 173.076,179.5 200,179.5C230.604,179.5 232.332,134.341 201.803,132.372C197.965,132.124 194.086,132.494 191.885,133.318M179.199,217.306C176.501,221.813 166.044,240.054 162.125,246.843C153.537,261.721 153.573,260.067 161.75,263.72C176.899,270.487 181.877,271.5 200,271.5C217.774,271.5 225.795,269.859 239.315,263.458C246.383,260.111 246.56,260.912 234.168,240.206C232.426,237.294 217.008,210.023 216.406,209.17C216.278,208.989 213.873,211.093 211.061,213.846C202.868,221.869 197.168,221.904 189.079,213.983L184.105,209.113L179.199,217.306M114.813,330.896C114.813,330.896 88.532,311.21 81.5,323.638C78.2,329.471 73.369,337.9 70.764,342.371C61.527,358.226 61.974,356.823 60.838,373.581C59.728,389.945 59.93,392 62.645,392C64.047,392 82.046,379.762 85.158,377.723C91.124,373.814 92.326,372.084 105.478,348.5C107.74,344.445 114.65,332.661 115.666,331.127C115.802,330.921 119.353,332.408 123.557,334.431C155.127,349.619 197.207,355.972 227.5,350.124C245.645,346.621 259.422,342.203 274.767,334.965L285.035,330.123L283.146,326.811C274.175,311.087 261.245,289.079 260.423,288.136C260.248,287.936 250.35,293.034 246.5,294.506C242.65,295.979 238.6,297.573 237.5,298.048C215.598,307.51 168.168,303.662 144.615,290.512C142.14,289.131 139.977,288.003 139.808,288.007M289.75,327.337C284.161,330.57 284.177,330.487 287.872,336.684C291.44,342.665 300.49,358.279 305.581,367.236C308.911,373.094 326.828,385.643 327.421,386.134C338.303,395.148 341.21,393.844 339.977,380.5C339.52,375.55 337.333,356.528 335.432,353.19C333.962,350.611 311.84,312 311.567,312"/>
    </g>
</svg>
