<svg id="svg" version="1.1" width="400" height="400" xmlns="http://www.w3.org/2000/svg" xmlns:xlink="http://www.w3.org/1999/xlink" style="display: block;"><g id="svgg"><path id="path0" d="M132.667 9.667 C 131.107 11.227,132.339 14.695,137.869 24.303 C 143.541 34.158,148.000 42.519,148.000 43.297 C 148.000 43.504,144.460 46.003,140.134 48.850 C 113.947 66.084,97.472 92.852,95.265 121.750 L 94.711 129.000 200.500 129.000 L 306.289 129.000 305.735 121.750 C 303.528 92.852,287.053 66.084,260.866 48.850 C 251.421 42.635,251.397 45.340,261.051 28.095 C 269.332 13.302,270.311 9.757,266.276 9.184 C 263.738 8.823,263.543 9.102,253.304 27.731 C 247.573 38.159,246.185 40.033,244.500 39.620 C 243.400 39.350,238.094 37.762,232.708 36.090 C 212.123 29.701,188.915 29.693,168.372 36.066 C 162.942 37.751,157.600 39.343,156.500 39.603 C 154.805 40.006,153.205 37.715,146.000 24.566 C 137.658 9.342,135.454 6.879,132.667 9.667 M157.917 75.542 C 162.666 80.134,160.037 88.340,153.418 89.581 C 143.654 91.413,139.310 77.370,148.421 73.427 C 152.107 71.832,154.670 72.403,157.917 75.542 M252.909 73.453 C 261.595 77.945,257.159 91.378,247.582 89.581 C 239.058 87.982,238.298 76.302,246.500 72.945 C 249.324 71.790,249.759 71.824,252.909 73.453 M52.117 135.210 C 47.140 137.810,41.837 143.874,40.145 148.899 C 37.979 155.331,38.629 259.588,40.865 264.500 C 47.861 279.865,67.537 283.516,79.402 271.651 C 86.172 264.880,86.120 265.435,85.792 203.335 L 85.500 148.171 82.461 143.847 C 75.358 133.744,62.131 129.979,52.117 135.210 M329.422 134.418 C 324.675 136.486,318.879 142.058,316.865 146.491 C 314.591 151.497,313.987 255.886,316.189 263.237 C 322.068 282.860,351.124 283.697,360.088 264.500 C 362.367 259.620,363.058 155.442,360.855 148.899 C 356.730 136.649,340.972 129.389,329.422 134.418 M95.000 215.462 C 95.000 305.558,94.574 301.037,103.813 308.983 C 109.776 314.111,113.037 314.988,126.182 314.994 L 136.865 315.000 137.182 344.250 C 137.536 376.810,137.678 377.537,145.092 384.786 C 155.447 394.909,173.589 392.300,181.474 379.555 L 184.500 374.662 184.805 344.831 L 185.110 315.000 200.500 315.000 L 215.890 315.000 216.195 344.831 L 216.500 374.662 219.526 379.555 C 227.411 392.300,245.553 394.909,255.908 384.786 C 263.322 377.537,263.464 376.810,263.818 344.250 L 264.135 315.000 274.824 315.000 C 290.628 315.000,297.988 311.550,303.274 301.664 L 305.500 297.500 305.773 217.250 L 306.046 137.000 200.523 137.000 L 95.000 137.000 95.000 215.462 " stroke="none" fill="#000000" fill-rule="evenodd"></path></g></svg>