<svg id="svg" version="1.1" width="400" height="400" xmlns="http://www.w3.org/2000/svg" xmlns:xlink="http://www.w3.org/1999/xlink" style="display: block;"><g id="svgg"><path id="path0" d="M110.500 31.533 C 62.100 48.828,20.530 63.718,18.123 64.621 L 13.746 66.262 14.301 71.881 C 14.809 77.022,21.660 136.772,27.500 187.000 C 28.811 198.275,32.152 227.300,34.924 251.500 C 37.697 275.700,40.409 298.875,40.952 303.000 C 41.494 307.125,41.952 311.011,41.969 311.635 C 41.986 312.260,47.513 315.822,54.250 319.552 C 60.987 323.282,74.375 330.691,84.000 336.017 C 93.625 341.342,123.325 357.788,150.000 372.563 C 176.675 387.337,199.175 399.426,200.000 399.426 C 200.825 399.426,223.325 387.337,250.000 372.563 C 276.675 357.788,306.375 341.342,316.000 336.017 C 325.625 330.691,339.012 323.282,345.750 319.552 C 352.488 315.822,358.014 312.260,358.031 311.635 C 358.048 311.011,358.506 307.125,359.048 303.000 C 359.591 298.875,362.303 275.700,365.076 251.500 C 367.848 227.300,371.189 198.275,372.500 187.000 C 378.326 136.895,385.190 77.027,385.697 71.905 C 386.175 67.064,385.997 66.211,384.375 65.575 C 374.546 61.724,200.666 0.011,199.735 0.043 C 199.056 0.067,158.900 14.237,110.500 31.533 M258.168 175.519 L 315.739 305.038 294.138 304.769 L 272.537 304.500 261.018 275.741 L 249.500 246.983 199.714 247.241 L 149.929 247.500 138.873 275.000 C 132.792 290.125,127.585 303.063,127.301 303.750 C 126.789 304.993,84.000 305.720,84.000 304.486 C 84.000 304.204,84.442 303.191,84.982 302.236 C 85.774 300.838,95.595 278.949,109.990 246.500 C 115.598 233.859,128.473 204.911,130.005 201.500 C 130.992 199.300,139.325 180.625,148.522 160.000 C 157.718 139.375,171.988 107.425,180.232 89.000 C 188.476 70.575,196.132 53.362,197.244 50.750 C 198.357 48.138,199.566 46.000,199.931 46.000 C 200.297 46.000,226.503 104.284,258.168 175.519 M199.000 130.091 C 199.000 130.691,191.748 148.578,182.885 169.841 C 174.021 191.103,166.548 209.063,166.278 209.750 C 165.890 210.735,173.033 211.000,200.000 211.000 C 226.967 211.000,234.110 210.735,233.722 209.750 C 233.452 209.063,225.979 191.103,217.115 169.841 C 208.252 148.578,201.000 130.691,201.000 130.091 C 201.000 129.491,200.550 129.000,200.000 129.000 C 199.450 129.000,199.000 129.491,199.000 130.091 " stroke="none" fill="#000000" fill-rule="evenodd"></path></g></svg>