<svg width="100%" height="100%" viewBox="0 0 400 400" version="1.1" xmlns="http://www.w3.org/2000/svg" style="fill-rule:evenodd;clip-rule:evenodd;stroke-linejoin:round;stroke-miterlimit:2;">
<g>
<path d="M200.128,9.756C194.582,11.798 190.135,15.764 187.477,21.037C186.13,23.709 36.311,384.08 36.311,384.648C36.311,384.856 87.718,384.726 87.718,384.726C87.718,384.726 146.862,236.799 147.077,236.587C147.293,236.375 328.94,382.591 330.912,383.865C349.997,396.201 374.31,378.64 368.034,357.052C367.055,353.685 232.733,29.781 229.123,22.083C223.908,10.961 211.352,5.623 200.128,9.756M296.675,301.633C295.517,300.918 165.175,198.2 164.043,197.111C162.982,196.09 208.402,83.129 208.627,83.389"/>
</g>
</svg>
