<svg width="100%" height="100%" viewBox="0 0 400 400" version="1.1" xmlns="http://www.w3.org/2000/svg" style="fill-rule:evenodd;clip-rule:evenodd;stroke-linejoin:round;stroke-miterlimit:2;">
    <g>
        <path d="M185.833,1.021C69.583,10.479 -13.254,114.006 3.356,229.076C16.993,323.551 97.398,395.578 193,398.959C317.8,403.372 415.51,294.449 397.64,170.833C385.133,84.314 316.795,15.775 230,2.701C218.554,0.977 196.626,0.142 185.833,1.021M209.717,80.917C212.461,82.269 214.376,84.309 215.841,87.438C217.936,91.912 295.628,279.263 296.189,281.193C299.868,293.848 285.524,303.863 274.348,296.443C273.333,295.769 168.519,211.369 168.394,211.492C168.269,211.616 134.051,297.167 134.051,297.167C134.051,297.167 104.333,297.245 104.333,297.129C104.333,296.845 190.12,90.402 191.339,87.752C194.659,80.535 202.799,77.507 209.717,80.917M178.205,188.663C178.86,189.293 254.241,248.698 254.91,249.111C255.12,249.241 203.915,122.485 203.881,122.447"/>
    </g>
</svg>
