<svg id="svg" xmlns="http://www.w3.org/2000/svg" xmlns:xlink="http://www.w3.org/1999/xlink" width="400" height="400" viewBox="0, 0, 400,400"><g id="svgg"><path id="path0" d="M185.833 1.021 C 69.583 10.479,-13.254 114.006,3.356 229.076 C 16.993 323.551,97.398 395.578,193.000 398.959 C 317.800 403.372,415.510 294.449,397.640 170.833 C 385.133 84.314,316.795 15.775,230.000 2.701 C 218.554 0.977,196.626 0.142,185.833 1.021 M209.717 80.917 C 212.461 82.269,214.376 84.309,215.841 87.438 C 217.936 91.912,295.628 279.263,296.189 281.193 C 299.868 293.848,285.524 303.863,274.348 296.443 C 273.333 295.769,249.130 276.329,220.562 253.243 C 191.995 230.156,168.519 211.369,168.394 211.492 C 168.269 211.616,160.491 230.943,151.109 254.442 L 134.051 297.167 119.192 297.253 C 111.020 297.301,104.333 297.245,104.333 297.129 C 104.333 296.845,190.120 90.402,191.339 87.752 C 194.659 80.535,202.799 77.507,209.717 80.917 M190.705 155.226 C 177.895 187.265,177.592 188.073,178.205 188.663 C 178.860 189.293,254.241 248.698,254.910 249.111 C 255.120 249.241,254.942 248.482,254.514 247.424 C 243.970 221.350,203.915 122.485,203.881 122.447 C 203.855 122.418,197.926 137.168,190.705 155.226 " stroke="none" fill="#000000" fill-rule="evenodd"></path></g></svg>