<svg id="svg" version="1.1" width="515" height="515" xmlns="http://www.w3.org/2000/svg" xmlns:xlink="http://www.w3.org/1999/xlink" style="display: block;"><g id="svgg"><path id="path0" d="M207.000 71.000 C 207.000 71.550,204.750 72.000,202.000 72.000 C 199.250 72.000,197.000 72.450,197.000 73.000 C 197.000 73.550,196.100 74.000,195.000 74.000 C 193.900 74.000,193.000 74.450,193.000 75.000 C 193.000 75.550,192.073 76.000,190.941 76.000 C 189.809 76.000,189.160 76.450,189.500 77.000 C 189.840 77.550,189.416 78.000,188.559 78.000 C 187.702 78.000,187.000 78.450,187.000 79.000 C 187.000 79.550,186.328 80.000,185.507 80.000 C 183.563 80.000,171.378 91.965,80.353 183.263 C 63.772 199.893,48.151 215.300,45.639 217.500 C 43.127 219.700,41.056 222.287,41.036 223.250 C 41.016 224.213,40.550 225.000,40.000 225.000 C 39.450 225.000,39.000 225.735,39.000 226.633 C 39.000 227.531,38.202 228.993,37.226 229.883 C 36.250 230.772,35.313 233.075,35.142 235.000 C 34.971 236.925,34.419 238.928,33.916 239.450 C 33.412 239.972,33.000 242.083,33.000 244.141 C 33.000 246.199,32.550 248.160,32.000 248.500 C 31.450 248.840,31.000 251.341,31.000 254.059 C 31.000 256.777,31.450 259.000,32.000 259.000 C 32.550 259.000,33.000 261.213,33.000 263.917 C 33.000 266.621,33.407 268.983,33.905 269.167 C 34.403 269.350,34.964 270.850,35.152 272.500 C 35.339 274.150,35.796 275.729,36.166 276.009 C 36.537 276.290,36.988 277.190,37.170 278.009 C 37.351 278.829,38.259 280.203,39.188 281.063 C 40.116 281.923,41.016 283.232,41.188 283.971 C 41.555 285.552,49.315 294.000,50.400 294.000 C 51.532 294.000,54.000 296.715,54.000 297.960 C 54.000 298.567,54.759 299.354,55.687 299.710 C 57.889 300.555,86.000 328.666,86.000 330.023 C 86.000 330.595,86.760 331.355,87.690 331.711 C 90.346 332.730,114.000 356.806,114.000 358.490 C 114.000 359.333,114.883 360.000,116.000 360.000 C 117.100 360.000,118.000 360.435,118.000 360.966 C 118.000 361.870,129.313 373.251,167.985 411.250 C 176.801 419.913,184.586 427.000,185.286 427.000 C 185.986 427.000,187.207 427.900,188.000 429.000 C 188.793 430.100,190.242 431.000,191.221 431.000 C 192.199 431.000,193.000 431.450,193.000 432.000 C 193.000 432.550,193.900 433.000,195.000 433.000 C 196.100 433.000,197.000 433.450,197.000 434.000 C 197.000 434.550,198.800 435.000,201.000 435.000 C 203.200 435.000,205.000 435.450,205.000 436.000 C 205.000 436.611,209.667 437.000,217.000 437.000 C 224.333 437.000,229.000 436.611,229.000 436.000 C 229.000 435.450,230.350 435.000,232.000 435.000 C 233.650 435.000,235.000 434.550,235.000 434.000 C 235.000 433.450,235.900 433.000,237.000 433.000 C 238.100 433.000,239.000 432.550,239.000 432.000 C 239.000 431.450,239.900 431.000,241.000 431.000 C 242.100 431.000,243.000 430.550,243.000 430.000 C 243.000 429.450,243.690 429.000,244.533 429.000 C 245.377 429.000,247.652 427.414,249.590 425.476 C 251.528 423.538,253.538 422.215,254.057 422.535 C 254.576 422.856,255.000 422.384,255.000 421.488 C 255.000 419.838,257.258 417.000,258.570 417.000 C 258.963 417.000,260.574 415.650,262.150 414.000 C 263.727 412.350,265.688 411.000,266.509 411.000 C 267.329 411.000,267.887 410.663,267.750 410.250 C 267.612 409.838,267.737 409.500,268.027 409.500 C 268.316 409.500,270.281 407.587,272.393 405.250 C 277.518 399.577,277.731 399.642,288.000 410.000 C 292.908 414.950,297.516 419.000,298.241 419.000 C 298.966 419.000,300.207 419.900,301.000 421.000 C 301.793 422.100,303.242 423.000,304.221 423.000 C 305.199 423.000,306.000 423.450,306.000 424.000 C 306.000 424.550,306.900 425.000,308.000 425.000 C 309.100 425.000,310.000 425.450,310.000 426.000 C 310.000 426.550,311.800 427.000,314.000 427.000 C 316.200 427.000,318.000 427.450,318.000 428.000 C 318.000 428.583,321.333 429.000,326.000 429.000 C 330.667 429.000,334.000 428.583,334.000 428.000 C 334.000 427.450,335.800 427.000,338.000 427.000 C 340.200 427.000,342.000 426.550,342.000 426.000 C 342.000 425.450,342.900 425.000,344.000 425.000 C 345.100 425.000,346.000 424.550,346.000 424.000 C 346.000 423.450,346.695 423.000,347.545 423.000 C 348.395 423.000,350.216 421.875,351.591 420.500 C 352.966 419.125,354.452 418.000,354.892 418.000 C 356.269 418.000,359.998 414.331,359.315 413.648 C 358.958 413.292,359.304 412.998,360.083 412.995 C 361.965 412.989,367.687 407.562,368.494 405.017 C 368.847 403.908,370.004 403.000,371.067 403.000 C 372.130 403.000,372.887 402.454,372.750 401.787 C 372.612 401.119,373.488 400.123,374.695 399.573 C 375.903 399.023,377.478 397.431,378.195 396.036 C 379.857 392.807,381.561 391.000,382.946 391.000 C 384.209 391.000,391.000 384.239,391.000 382.982 C 391.000 382.516,391.900 381.849,393.000 381.500 C 394.100 381.151,395.000 380.484,395.000 380.018 C 395.000 379.030,400.143 373.794,405.332 369.500 C 407.326 367.850,408.967 365.911,408.978 365.191 C 408.990 364.471,409.450 364.160,410.000 364.500 C 410.567 364.851,411.000 364.010,411.000 362.559 C 411.000 360.937,411.556 360.000,412.519 360.000 C 414.496 360.000,427.000 347.496,427.000 345.519 C 427.000 344.683,427.654 344.000,428.453 344.000 C 429.252 344.000,437.777 336.238,447.397 326.750 C 457.017 317.262,470.025 304.477,476.304 298.337 C 482.582 292.197,487.993 286.459,488.328 285.587 C 488.663 284.714,489.626 284.000,490.469 284.000 C 491.311 284.000,492.000 283.199,492.000 282.221 C 492.000 281.242,492.900 279.793,494.000 279.000 C 495.100 278.207,496.000 276.758,496.000 275.779 C 496.000 274.801,496.450 274.000,497.000 274.000 C 497.550 274.000,498.000 273.100,498.000 272.000 C 498.000 270.900,498.450 270.000,499.000 270.000 C 499.550 270.000,499.947 269.662,499.882 269.250 C 499.458 266.570,500.157 262.979,501.000 263.500 C 501.640 263.896,502.000 260.657,502.000 254.500 C 502.000 248.343,501.640 245.104,501.000 245.500 C 500.389 245.878,500.000 244.344,500.000 241.559 C 500.000 239.052,499.550 237.000,499.000 237.000 C 498.450 237.000,498.000 236.100,498.000 235.000 C 498.000 233.900,497.550 233.000,497.000 233.000 C 496.450 233.000,495.999 232.438,495.998 231.750 C 495.996 231.063,494.647 228.925,493.000 227.000 C 491.353 225.075,490.004 222.938,490.002 222.250 C 490.001 221.563,489.310 221.000,488.467 221.000 C 486.886 221.000,480.000 214.700,480.000 213.254 C 480.000 212.807,479.045 211.780,477.877 210.971 C 474.359 208.532,472.951 206.889,473.550 205.919 C 473.862 205.414,473.396 205.000,472.514 205.000 C 470.686 205.000,466.734 201.356,465.733 198.747 C 465.365 197.786,464.342 197.000,463.460 197.000 C 461.388 197.000,459.000 194.597,459.000 192.512 C 459.000 191.616,458.550 191.160,458.000 191.500 C 457.450 191.840,457.000 191.416,457.000 190.559 C 457.000 189.702,456.310 189.000,455.467 189.000 C 453.476 189.000,447.000 182.524,447.000 180.533 C 447.000 179.690,446.293 179.000,445.429 179.000 C 443.607 179.000,441.673 177.252,440.725 174.750 C 440.361 173.787,439.426 173.000,438.648 173.000 C 437.870 173.000,436.998 172.100,436.710 171.000 C 436.423 169.900,435.470 169.000,434.594 169.000 C 433.716 169.000,433.000 168.178,433.000 167.169 C 433.000 166.162,431.766 164.699,430.257 163.919 C 426.470 161.959,421.000 156.395,421.000 154.502 C 421.000 153.641,420.249 152.649,419.330 152.296 C 417.162 151.464,385.000 119.293,385.000 117.956 C 385.000 117.396,384.214 116.635,383.253 116.267 C 381.008 115.405,377.595 111.992,376.733 109.747 C 376.365 108.786,375.374 108.000,374.531 108.000 C 373.689 108.000,373.000 107.311,373.000 106.469 C 373.000 105.626,372.328 104.679,371.506 104.364 C 370.684 104.048,370.260 103.388,370.565 102.895 C 370.869 102.403,370.372 102.000,369.460 102.000 C 368.548 102.000,366.541 100.650,365.000 99.000 C 363.459 97.350,361.703 96.000,361.099 96.000 C 360.494 96.000,360.000 95.100,360.000 94.000 C 360.000 92.845,359.333 92.000,358.422 92.000 C 357.553 92.000,355.114 90.200,353.000 88.000 C 350.886 85.800,348.447 84.000,347.578 84.000 C 346.710 84.000,346.000 83.550,346.000 83.000 C 346.000 82.450,344.650 82.000,343.000 82.000 C 341.350 82.000,340.000 81.550,340.000 81.000 C 340.000 80.381,334.667 80.000,326.000 80.000 C 317.333 80.000,312.000 80.381,312.000 81.000 C 312.000 81.550,310.650 82.000,309.000 82.000 C 307.350 82.000,306.000 82.450,306.000 83.000 C 306.000 83.550,305.199 84.000,304.221 84.000 C 303.242 84.000,301.793 84.900,301.000 86.000 C 300.207 87.100,298.962 88.000,298.234 88.000 C 296.331 88.000,292.000 92.600,292.000 94.621 C 292.000 95.563,291.727 96.060,291.393 95.727 C 290.694 95.027,289.550 95.896,283.468 101.750 C 281.040 104.088,278.109 106.000,276.955 106.000 C 274.652 106.000,272.749 104.453,271.725 101.750 C 271.361 100.787,270.584 100.000,269.998 100.000 C 268.669 100.000,262.000 93.413,262.000 92.101 C 262.000 91.569,261.100 90.849,260.000 90.500 C 258.900 90.151,258.000 89.446,258.000 88.933 C 258.000 88.420,257.515 88.000,256.922 88.000 C 256.328 88.000,254.114 86.200,252.000 84.000 C 249.886 81.800,247.546 80.000,246.799 80.000 C 246.052 80.000,244.793 79.100,244.000 78.000 C 243.207 76.900,241.758 76.000,240.779 76.000 C 239.801 76.000,239.000 75.550,239.000 75.000 C 239.000 74.450,238.100 74.000,237.000 74.000 C 235.900 74.000,235.000 73.550,235.000 73.000 C 235.000 72.450,232.750 72.000,230.000 72.000 C 227.250 72.000,225.000 71.550,225.000 71.000 C 225.000 70.407,221.333 70.000,216.000 70.000 C 210.667 70.000,207.000 70.407,207.000 71.000 M225.000 93.000 C 225.000 93.550,225.900 94.000,227.000 94.000 C 228.100 94.000,229.000 94.450,229.000 95.000 C 229.000 95.550,229.900 96.000,231.000 96.000 C 232.100 96.000,233.000 96.450,233.000 97.000 C 233.000 97.550,233.576 98.000,234.279 98.000 C 234.983 98.000,236.207 98.900,237.000 100.000 C 237.793 101.100,239.017 102.000,239.721 102.000 C 240.424 102.000,241.000 102.900,241.000 104.000 C 241.000 105.403,241.672 106.005,243.250 106.015 C 245.069 106.028,245.213 106.216,244.000 107.000 C 242.805 107.772,242.782 107.972,243.885 107.985 C 245.655 108.004,250.000 112.642,249.145 113.599 C 248.790 113.996,249.033 114.015,249.685 113.641 C 250.337 113.268,252.004 114.095,253.390 115.481 C 254.775 116.866,256.380 118.000,256.955 118.000 C 257.530 118.000,258.000 118.707,258.000 119.571 C 258.000 120.436,258.656 121.799,259.458 122.600 C 261.709 124.852,259.005 130.000,255.571 130.000 C 254.707 130.000,254.000 130.450,254.000 131.000 C 254.000 131.550,253.325 132.000,252.500 132.000 C 251.667 132.000,251.000 132.889,251.000 134.000 C 251.000 135.137,250.333 136.000,249.455 136.000 C 247.838 136.000,244.237 139.319,242.464 142.444 C 241.894 143.448,241.096 144.199,240.691 144.112 C 239.453 143.847,235.000 148.810,235.000 150.455 C 235.000 151.305,234.542 152.000,233.981 152.000 C 232.686 152.000,202.000 182.738,202.000 184.035 C 202.000 184.566,201.535 185.000,200.967 185.000 C 199.355 185.000,193.000 191.754,193.000 193.467 C 193.000 194.310,192.320 195.000,191.488 195.000 C 189.680 195.000,161.000 223.511,161.000 225.308 C 161.000 225.996,160.100 227.207,159.000 228.000 C 157.900 228.793,157.000 230.242,157.000 231.221 C 157.000 232.199,156.550 233.000,156.000 233.000 C 155.450 233.000,155.000 233.900,155.000 235.000 C 155.000 236.100,154.556 237.000,154.013 237.000 C 150.817 237.000,148.014 261.654,151.000 263.500 C 151.550 263.840,152.000 265.644,152.000 267.509 C 152.000 269.375,152.563 271.260,153.250 271.700 C 153.938 272.140,155.063 273.512,155.750 274.750 C 156.437 275.987,157.562 277.975,158.250 279.168 C 158.938 280.360,177.500 299.417,199.500 321.516 C 221.500 343.616,241.998 364.353,245.051 367.599 C 248.104 370.844,253.166 375.812,256.301 378.638 C 262.548 384.270,262.972 385.000,260.000 385.000 C 258.667 385.000,258.000 385.667,258.000 387.000 C 258.000 388.100,257.534 389.000,256.965 389.000 C 256.396 389.000,251.462 393.500,246.000 399.000 C 240.538 404.500,235.352 409.000,234.476 409.000 C 233.599 409.000,233.160 409.450,233.500 410.000 C 233.851 410.567,233.010 411.000,231.559 411.000 C 230.152 411.000,229.000 411.450,229.000 412.000 C 229.000 412.550,228.100 413.000,227.000 413.000 C 225.900 413.000,225.000 413.450,225.000 414.000 C 225.000 414.593,221.333 415.000,216.000 415.000 C 210.667 415.000,207.000 414.593,207.000 414.000 C 207.000 413.450,206.100 413.000,205.000 413.000 C 203.900 413.000,203.000 412.550,203.000 412.000 C 203.000 411.450,202.290 411.000,201.422 411.000 C 200.554 411.000,196.287 407.400,191.940 403.000 C 187.593 398.600,183.578 395.000,183.018 395.000 C 182.458 395.000,182.000 394.565,182.000 394.033 C 182.000 392.850,175.260 386.000,174.096 386.000 C 173.635 386.000,172.187 384.428,170.879 382.507 C 169.571 380.586,167.713 379.011,166.750 379.007 C 165.787 379.003,165.000 378.265,165.000 377.366 C 165.000 375.764,160.282 371.004,158.691 371.001 C 158.246 371.001,158.130 370.599,158.432 370.110 C 158.735 369.620,157.411 368.474,155.491 367.563 C 153.571 366.652,152.000 365.305,152.000 364.570 C 152.000 363.835,151.100 362.998,150.000 362.710 C 148.900 362.423,148.000 361.438,148.000 360.522 C 148.000 359.606,147.325 358.182,146.500 357.357 C 145.675 356.532,145.000 356.135,145.000 356.474 C 145.000 356.813,143.875 355.966,142.500 354.591 C 141.125 353.216,140.000 351.835,140.000 351.523 C 140.000 350.596,128.768 340.000,127.785 340.000 C 127.289 340.000,127.160 339.550,127.500 339.000 C 127.840 338.450,127.341 338.000,126.392 338.000 C 125.443 338.000,124.935 337.732,125.263 337.404 C 126.141 336.525,117.314 328.000,115.526 328.000 C 114.687 328.000,114.000 327.354,114.000 326.565 C 114.000 324.697,103.303 314.000,101.435 314.000 C 100.646 314.000,100.000 313.293,100.000 312.429 C 100.000 310.603,97.656 308.000,96.012 308.000 C 95.391 308.000,95.160 307.550,95.500 307.000 C 95.840 306.450,95.447 306.000,94.627 306.000 C 93.807 306.000,92.175 304.650,91.000 303.000 C 89.825 301.350,88.412 300.000,87.860 300.000 C 86.325 300.000,84.000 297.333,84.000 295.571 C 84.000 294.707,83.210 294.000,82.244 294.000 C 81.255 294.000,79.908 292.690,79.160 291.000 C 78.430 289.350,77.163 288.000,76.345 288.000 C 74.446 288.000,72.000 285.575,72.000 283.693 C 72.000 282.895,70.650 281.683,69.000 281.000 C 67.350 280.317,66.000 279.191,66.000 278.499 C 66.000 277.807,64.200 275.386,62.000 273.119 C 59.800 270.852,58.000 268.323,58.000 267.499 C 58.000 266.674,57.550 266.000,57.000 266.000 C 56.450 266.000,56.000 264.902,56.000 263.559 C 56.000 262.216,55.550 260.840,55.000 260.500 C 53.153 259.359,53.842 248.343,56.000 244.500 C 57.100 242.542,58.000 240.026,58.000 238.911 C 58.000 237.795,58.450 237.160,59.000 237.500 C 59.550 237.840,60.000 237.627,60.000 237.026 C 60.000 236.425,76.200 219.757,96.000 199.986 C 115.800 180.215,132.000 163.580,132.000 163.019 C 132.000 162.459,132.402 162.000,132.894 162.000 C 133.921 162.000,140.000 156.510,140.000 155.583 C 140.000 154.855,154.741 140.000,155.463 140.000 C 155.735 140.000,165.867 130.100,177.978 118.000 C 190.088 105.900,200.673 96.000,201.499 96.000 C 202.324 96.000,203.000 95.550,203.000 95.000 C 203.000 94.450,203.900 94.000,205.000 94.000 C 206.100 94.000,207.000 93.550,207.000 93.000 C 207.000 92.407,210.667 92.000,216.000 92.000 C 221.333 92.000,225.000 92.407,225.000 93.000 " stroke="none" fill="#000000" fill-rule="evenodd"></path></g></svg>