<?xml version="1.0" encoding="UTF-8" standalone="no"?>
<svg
   xmlns:dc="http://purl.org/dc/elements/1.1/"
   xmlns:cc="http://creativecommons.org/ns#"
   xmlns:rdf="http://www.w3.org/1999/02/22-rdf-syntax-ns#"
   xmlns:svg="http://www.w3.org/2000/svg"
   xmlns="http://www.w3.org/2000/svg"
   style="display: block;"
   height="400"
   width="400"
   version="1.1"
   id="svg">
  <metadata
     id="metadata9">
    <rdf:RDF>
      <cc:Work
         rdf:about="">
        <dc:format>image/svg+xml</dc:format>
        <dc:type
           rdf:resource="http://purl.org/dc/dcmitype/StillImage" />
        <dc:title></dc:title>
      </cc:Work>
    </rdf:RDF>
  </metadata>
  <defs
     id="defs7" />
  <g
     id="svgg">
    <path
       style="fill:#000000;fill-rule:evenodd;stroke:none;stroke-width:1.17904401"
       d="m 98.275217,136.66122 c -5.349327,3.21761 -9.73537,5.47077 -9.744803,5.00858 -0.01061,-0.46336 -0.407949,-0.30773 -0.884283,0.34428 -0.476334,0.65201 -3.784731,3.37796 -7.351339,6.05675 -8.545711,6.41989 -14.148528,11.56053 -14.148528,12.9801 0,4.37425 -7.119068,7.90077 -16.198886,8.02575 -31.471042,0.43271 -53.7761961,33.92699 -43.8958074,65.91445 2.7353825,8.8558 6.5884974,11.03114 16.6917254,9.42528 4.269319,-0.67795 4.881242,-0.54118 3.821282,0.85834 -7.376099,9.73537 -11.619479,14.73452 -18.6772359,22.00568 -5.5580134,5.72544 -7.62134038,8.54807 -6.2477542,8.54807 3.7352114,0 9.5196011,-4.97321 24.9308851,-21.43738 8.387719,-8.96073 16.152903,-16.29203 17.256488,-16.29203 6.413999,0 23.793108,-15.84399 29.849857,-27.21351 6.185265,-11.61005 15.056392,-14.84417 16.471245,-6.00252 1.730836,10.82481 15.299277,30.70113 21.027077,30.80253 1.74498,0.0307 3.50058,0.58598 3.90145,1.23446 1.09416,1.76974 5.61697,1.41957 8.59288,-0.66498 1.44786,-1.01398 3.60551,-1.53512 4.79281,-1.159 4.91072,1.55869 10.99223,-7.53174 8.34645,-12.47429 -0.81472,-1.52214 -0.40677,-2.06568 1.87822,-2.50193 2.61512,-0.50109 2.91813,-0.16507 2.91813,3.23058 0,4.53343 4.46622,11.61358 7.70506,12.2149 3.29778,0.61192 5.26443,2.47717 5.26443,4.99443 0,5.07932 6.22771,5.14063 15.99137,0.16035 6.14282,-3.1339 7.50226,-2.29914 13.57433,8.32876 10.01716,17.53121 16.79784,26.77963 19.63816,26.77963 3.37678,0 3.56189,0.90079 -2.49957,-12.16066 -6.32204,-13.62032 -13.60028,-26.22194 -17.69156,-30.63156 l -3.05726,-3.29425 3.87316,0.72629 c 3.19875,0.60013 4.99325,-0.0342 10.30838,-3.64796 8.26628,-5.61933 20.76297,-11.53341 22.75555,-10.76821 0.85009,0.32659 2.52551,3.16573 3.72106,6.30906 4.61596,12.13001 12.72896,27.52832 14.5046,27.52832 4.79164,0 10.59961,3.9946 13.00486,8.94541 1.36062,2.80141 3.68687,5.87164 5.17011,6.82195 4.23159,2.71534 27.95513,7.19452 29.5657,5.58395 2.66229,-2.66228 -1.93717,-4.86356 -12.71716,-6.08858 -12.16066,-1.38184 -12.81385,-1.78036 -15.32876,-9.35454 -1.59878,-4.81286 -2.59979,-5.98247 -6.42579,-7.51405 -4.11486,-1.64594 -5.20547,-3.13272 -11.82699,-16.12106 -8.46082,-16.59505 -8.49383,-16.16588 0.95975,-12.32455 11.81873,4.80225 33.05449,10.33314 36.80032,9.58327 2.63752,-0.52703 3.85901,-0.0554 5.60753,2.16826 1.33468,1.69664 5.50614,3.93919 10.3414,5.56037 9.20479,3.08674 14.70267,8.81925 17.07019,17.79885 4.41788,16.76247 13.62857,25.39071 10.95922,10.26829 -2.61276,-14.80761 -7.33837,-21.20156 -21.24166,-28.73919 -16.61862,-9.0079 -15.06818,-6.1664 -14.55412,-26.67587 0.11083,-4.42849 -0.60249,-10.00065 -1.69075,-13.19822 l -1.88293,-5.53561 5.0357,-4.75627 c 8.89471,-8.40304 34.46227,-16.25312 42.63894,-13.0921 11.06887,4.27757 52.92729,26.28207 58.70932,30.86147 5.34461,4.23395 11.56996,6.36448 11.56996,3.96041 0,-4.4108 -18.99204,-19.46248 -24.55713,-19.46248 -5.44129,0 -35.42909,-12.88459 -43.70716,-18.77981 -6.99527,-4.98028 -23.12813,-1.49621 -41.50235,8.96427 -11.50747,6.54959 -10.00419,6.9599 -23.88271,-6.52011 -20.13218,-19.55327 -41.07082,-26.12408 -51.14575,-16.04915 -2.29206,2.29206 -4.25281,4.01583 -4.35893,3.8319 -2.03385,-3.5277 -9.73183,-12.70656 -10.64087,-12.6877 -3.02071,0.0637 -11.01699,4.77277 -14.72744,8.67305 -2.23547,2.34866 -4.81404,4.2705 -5.73251,4.2705 -2.97709,0 -26.15709,19.0109 -26.92937,22.08585 -0.55886,2.22957 -1.2769,2.72006 -3.21996,2.19774 -1.37595,-0.36904 -3.635,-0.67795 -5.02155,-0.6862 -2.40761,-0.0153 -2.55853,-0.7263 -3.33552,-15.63884 -1.23092,-23.62215 -3.43455,-28.77693 -9.45711,-22.12241 -2.44062,2.69648 -2.66464,6.43994 -0.8831,14.75338 2.82734,13.18643 2.28027,27.31138 -1.16372,30.01964 -1.70726,1.34293 -3.96866,5.06871 -5.04631,8.31462 -2.04918,6.16758 -2.74717,6.78304 -5.06517,4.46504 -1.96075,-1.96075 -1.77093,-6.25483 0.35371,-8.0175 3.12918,-2.59626 2.02088,-12.96949 -1.3842,-12.96949 -1.09297,0 -1.49385,-0.75458 -1.09769,-2.06332 3.26006,-10.7576 3.96395,-25.81045 1.83577,-39.20322 -1.98668,-12.4955 -4.55111,-13.15459 -18.513343,-4.75626 m 11.474453,0.92437 c -0.0118,1.13542 -0.79821,7.10374 -1.74734,13.26425 -0.94913,6.1605 -1.73555,15.73788 -1.74734,21.28292 -0.02,9.28026 -1.69193,16.41465 -3.85312,16.43705 -0.48577,0.005 -0.88428,-2.92049 -0.88428,-6.50007 0,-9.11637 -2.771943,-10.40506 -13.999975,-6.51186 l -7.947935,2.75661 -3.093812,-3.09381 c -1.833413,-1.83342 -5.049845,-3.40744 -7.891341,-3.86137 -2.637522,-0.4221 -4.796351,-1.12599 -4.796351,-1.56459 0,-1.91831 8.121255,-8.1189 12.969484,-9.90044 3.493507,-1.28398 9.47126,-5.78085 17.499371,-13.16049 12.072239,-11.1007 15.533909,-13.14516 15.492639,-9.1482 m 89.51066,18.27518 c 4.36836,11.56525 1.37949,16.30382 -6.12159,9.70471 -3.4994,-3.07966 -3.24945,-5.11587 1.26747,-10.29423 2.40053,-2.75189 3.64796,-2.59979 4.85412,0.58952 m 3.5843,35.96085 c 1.33114,4.91189 6.60029,13.26424 8.36649,13.26424 4.70675,0 -0.71568,2.39935 -9.18003,4.06181 -5.67356,1.11537 -13.50006,3.34966 -17.3909,4.96731 -9.96764,4.14198 -12.52499,4.57587 -7.32894,1.24271 5.38116,-3.45224 10.27655,-7.92789 10.27655,-9.39816 0,-1.42664 12.14415,-18.42256 13.21826,-18.4992 0.46219,-0.033 1.3783,1.9301 2.03857,4.36129 m 43.35934,4.89892 c 5.39177,8.001 2.15411,16.28968 -4.08539,10.46166 -5.6936,-5.31631 -7.28767,-10.2624 -4.27875,-13.2725 2.68822,-2.68704 5.23614,-1.83105 8.36414,2.81084 M 82.65288,196.24303 c 0,0.27825 -1.06114,1.07411 -2.358088,1.76857 -2.073939,1.10948 -2.358088,0.89607 -2.358088,-1.76857 0,-2.66464 0.284149,-2.87805 2.358088,-1.76857 1.296948,0.69446 2.358088,1.49032 2.358088,1.76857 m 25.95194,13.85377 c 1.28516,2.10695 2.33804,5.27268 2.3404,7.03299 0.006,3.87081 3.59491,6.1499 8.07292,5.12649 3.01953,-0.68974 2.98416,-0.58834 -0.99394,2.81556 -6.30081,5.39176 -8.66833,3.11267 -14.78993,-14.23814 -2.15647,-6.11216 1.76503,-6.64981 5.37055,-0.7369 m 54.94345,6.87972 c 0.16389,4.57115 2.9877,7.36549 10.48052,10.37441 l 5.89522,2.36634 -4.24573,0.0637 c -2.33569,0.0354 -6.71112,1.37476 -9.72358,2.97708 -6.8868,3.66211 -9.02205,2.96058 -9.02205,-2.96176 0,-2.48188 -0.50227,-5.83273 -1.11537,-7.44566 -0.82887,-2.18123 -0.67677,-3.29661 0.58952,-4.34831 0.93734,-0.77817 1.7049,-2.14586 1.7049,-3.0384 0,-3.71635 5.30098,-1.75324 5.43657,2.01263"
       id="path0" />
  </g>
</svg>
