<svg width="100%" height="100%" viewBox="0 0 400 400" version="1.1" xmlns="http://www.w3.org/2000/svg" style="fill-rule:evenodd;clip-rule:evenodd;stroke-linejoin:round;stroke-miterlimit:2;">
<g>
<path d="M98.275,136.661C87.922,142.889 78.922,148.14 70.016,156.436C66.682,159.542 66.099,164.652 61.452,166.657C58,168.147 42.168,169.853 38.62,170.721C25.429,173.948 13.45,185.493 8.053,197.681C2.92,209.269 -0.692,234.516 11.634,243.627C15.737,246.659 22.401,243.798 26.652,244.067C27.055,244.092 26.818,244.961 26.565,245.275C20.516,252.757 14.154,259.98 7.887,267.28C6.02,269.456 3.856,271.387 2.164,273.702C1.733,274.291 0.921,275.96 1.64,275.828C12.23,273.896 20.047,260.989 26.57,254.391C32.132,248.766 37.64,243.029 43.827,238.099C45.662,236.637 48.361,236.697 50.345,235.446C55.374,232.276 63.779,224.693 67.36,219.934C70.086,216.311 77.883,196.592 86.713,200.571C94.24,203.962 94.675,216.522 97.707,222.339C100.554,227.8 104.814,233.319 110.571,236.027C119.19,240.081 128.504,237.215 135.469,231.297C138.525,228.701 133.865,220.592 138.842,219.933C144.47,219.187 143.042,228.64 144.243,230.932C145.791,233.887 151.092,235.137 153.179,237.348C155.518,239.826 153.386,241.752 156.221,243.995C160.079,247.048 167.638,242.028 170.566,240.72C171.84,240.151 175.771,238.003 177.38,239.724C183.694,246.481 191.745,261.329 196.651,269.013C197.456,270.275 202.203,278.556 205.665,275.765C209.76,272.464 202.364,265.589 201.279,263.668C195.981,254.291 191.1,241.134 183.587,233.036L180.53,229.742L184.403,230.468C193.131,232.106 202.322,222.989 208.442,219.042C210.363,217.803 214.892,215.321 217.467,216.052C219.666,216.677 220.568,220.807 221.188,222.361C224.391,230.39 227.683,241.849 235.04,247.689C237.489,249.634 240.658,250.54 243.09,252.506C249.702,257.852 250.352,265.601 259.545,268.044C262.004,268.698 276.531,271.399 279.261,271.738C281.044,271.96 285.326,270.637 284.085,269.339C278.488,263.478 266.117,264.59 259.435,262.797C254.912,261.584 254.982,253.52 253.01,250.81C250.498,247.36 246.251,248.282 243.988,244.477C239.007,236.101 234.676,227.319 230.897,218.337C230.646,217.74 232.133,217.677 232.767,217.81C234.627,218.198 236.262,219.333 238.095,219.838C250.315,223.206 262.795,225.644 274.895,229.421C284.341,232.371 300.394,238.535 305.542,248.814C309.416,256.547 309.138,268.086 317.744,273.034C319.349,273.956 319.436,270.238 319.435,270.208C319.357,268.536 319.296,266.837 318.873,265.217C316.779,257.19 314.273,246.847 306.449,242.066C299.695,237.94 288.04,235.521 283.93,227.453C278.893,217.568 284.841,206.753 281.387,196.604L279.504,191.068L284.539,186.312C293.55,177.8 306.446,174.412 318.317,172.75C321.247,172.34 324.425,172.139 327.178,173.22C338.001,177.47 348.224,183.127 358.516,188.537C367.803,193.42 376.769,198.891 385.888,204.081C388.489,205.562 390.973,207.267 393.677,208.551C394.826,209.096 397.776,209.273 397.458,208.042C393.007,190.823 363.993,186.411 352.111,181.4C339.166,175.941 327.75,165.821 312.709,168.491C304.26,169.991 295.16,174.878 287.691,178.764C285.148,180.087 280.066,183.993 276.639,183.015C272.783,181.914 266.541,174.693 263.808,172.244C258.233,167.247 249.657,159.906 242.848,156.556C234.87,152.631 225.613,149.933 216.927,153.189C212.817,154.731 213.635,156.226 210.539,158.93C209.914,159.476 208.92,160.582 208.304,160.026C204.201,156.333 201.853,150.931 197.663,147.339C196.793,146.593 195.281,147.436 194.295,148.018C190.305,150.367 186.718,153.341 182.935,156.012C176.257,160.726 169.194,164.942 162.911,170.172C156.13,175.817 153.554,184.56 143.704,185.142C142.013,185.242 139.917,183.272 139.753,181.647C138.836,172.603 138.917,163.482 138.155,154.424C138.043,153.085 137.274,146.698 135.531,144.715C131.311,139.914 127.189,148.178 127.214,151.389C127.304,162.686 132.316,175.497 129.225,186.913C128.025,191.343 124.308,195.33 122.146,199.206C121.182,200.934 121.247,203.369 119.714,204.621C118.057,205.975 115.476,201.714 115.726,199.588C116.356,194.234 121.082,189.855 118.143,184.345C117.218,182.611 114.935,183.163 114.953,180.621C115.089,160.842 117.224,161.109 116.789,141.417C116.75,139.675 115.966,131.002 112.023,131.204C106.379,131.493 102.923,133.865 98.275,136.661M109.75,137.586C109.703,142.113 108.447,146.374 108.002,150.85C107.299,157.933 106.872,165.041 106.255,172.133C105.915,176.033 105.729,179.954 105.131,183.823C104.944,185.036 104.404,186.172 103.913,187.297C103.649,187.901 102.537,189.214 102.402,188.57C101.36,183.603 102.325,178.743 99.132,174.574C96.932,171.701 88.749,175.131 87.518,175.558L79.57,178.314L76.476,175.221C74.12,172.865 71.672,172.22 68.585,171.359C67.438,171.04 64.69,170.864 63.788,169.795C63.243,169.148 64.946,167.854 65.133,167.689C66.234,166.716 67.222,165.592 68.455,164.793C73.462,161.552 78.91,159.005 83.807,155.6C89.305,151.777 101.279,140.597 106.546,136.498C108.194,135.215 109.771,135.477 109.75,137.586M199.26,155.861C200.528,159.217 201.81,162.463 201.148,166.116C201.059,166.606 200.86,167.073 200.651,167.525C200.231,168.431 199.368,168.647 198.418,168.533C196.969,168.359 195.162,167.237 194.054,166.432C193.457,165.999 192.876,165.533 192.379,164.99C191.902,164.468 191.503,163.874 191.152,163.261C189.516,160.405 192.675,157.141 194.406,155.271C195.42,154.176 197.433,152.229 198.61,154.369C198.871,154.844 199.068,155.353 199.26,155.861M202.845,191.822C203.928,195.819 206.498,200.673 209.346,203.704C210.034,204.437 211.152,204.593 212.007,205.122C212.286,205.295 212.827,205.486 212.725,205.798C212.585,206.228 211.992,206.358 211.56,206.493C208.446,207.471 205.286,208.299 202.129,209.126C198.988,209.949 195.748,210.417 192.667,211.443C188.809,212.727 186.731,214.921 183.192,216.777C180.662,218.103 177.289,219.842 174.719,217.521C174.162,217.019 175.211,216.498 175.365,216.41C176.005,216.043 176.701,215.772 177.311,215.358C179.834,213.645 184.823,210.008 186.739,207.563C187.928,206.044 188.434,204.085 189.502,202.478C192.29,198.282 195.355,194.278 198.288,190.183C198.658,189.666 198.932,189.059 199.41,188.64C201.949,186.417 202.371,190.077 202.845,191.822M246.204,196.721C247.846,199.157 249.13,202.078 248.926,205.083C248.879,205.779 248.717,206.467 248.523,207.137C247.611,210.286 243.8,208.613 242.119,207.182C240.928,206.168 239.561,204.531 238.625,203.289C237.211,201.411 235.831,198.952 236.438,196.506C237.199,193.441 240.424,191.294 243.198,193.246C244.378,194.075 245.473,195.636 246.204,196.721M82.653,196.243C82.653,196.561 82.154,196.842 81.96,196.971C80.664,197.832 80.496,197.986 79.051,198.578C78.824,198.671 78.589,198.68 78.377,198.544C78,198.302 77.961,197.725 77.939,197.341C77.911,196.868 77.904,196.394 77.904,195.92C77.904,195.664 77.912,195.408 77.938,195.154C77.962,194.912 77.996,194.671 78.052,194.434C78.35,193.172 80.109,194.361 80.561,194.611C81.047,194.879 81.498,195.208 81.96,195.515C82.154,195.644 82.653,195.925 82.653,196.243M108.605,210.097C109.3,211.236 109.843,212.474 110.256,213.743C111.214,216.689 110.829,219.381 113.305,221.528C114.801,222.827 117.311,222.446 119.018,222.256C119.585,222.193 120.127,221.961 120.696,221.927C120.86,221.917 121.231,221.989 121.145,222.129C119.378,225.04 113.877,229.776 110.416,226.342C109.398,225.333 108.043,223.191 107.429,221.876C104.814,216.269 104.273,214.787 102.698,208.805C102.337,207.435 103.043,205.631 104.752,206.12C106.508,206.622 107.765,208.72 108.605,210.097M163.548,216.977C163.712,221.548 166.536,224.342 174.029,227.351L179.924,229.717L175.678,229.781C170.808,229.855 166.501,232.807 162.176,234.542C161.154,234.953 158.843,235.582 157.971,234.302C156.216,231.722 157.03,228.624 156.605,225.748C156.478,224.892 155.301,221.919 155.319,220.561C155.349,218.307 156.807,218.273 157.611,216.526C157.944,215.801 157.851,214.515 158.32,213.753C158.831,212.924 159.749,212.919 160.665,213.137C162.345,213.536 163.489,215.332 163.548,216.977"/>
</g>
</svg>
