<svg id="svg" xmlns="http://www.w3.org/2000/svg" xmlns:xlink="http://www.w3.org/1999/xlink" width="400" height="400" viewBox="0, 0, 400,400"><g id="svgg"><path id="path0" d="M182.967 0.618 C 182.618 0.958,179.933 1.386,177.000 1.570 C 174.067 1.753,169.717 2.233,167.333 2.638 C 164.950 3.042,161.800 3.544,160.333 3.754 C 158.867 3.965,157.382 4.406,157.033 4.735 C 156.685 5.064,155.128 5.333,153.573 5.333 C 152.018 5.333,150.560 5.633,150.333 6.000 C 150.107 6.367,149.207 6.667,148.333 6.667 C 147.460 6.667,146.560 6.967,146.333 7.333 C 146.107 7.700,144.907 8.000,143.667 8.000 C 142.427 8.000,141.227 8.300,141.000 8.667 C 140.773 9.033,139.873 9.333,139.000 9.333 C 138.127 9.333,137.227 9.633,137.000 10.000 C 136.773 10.367,135.873 10.667,135.000 10.667 C 134.127 10.667,133.227 10.967,133.000 11.333 C 132.773 11.700,132.015 12.000,131.314 12.000 C 130.614 12.000,128.972 12.600,127.667 13.333 C 126.361 14.067,124.882 14.667,124.381 14.667 C 123.879 14.667,121.758 15.567,119.667 16.667 C 117.576 17.767,115.332 18.667,114.681 18.667 C 114.029 18.667,113.130 19.108,112.682 19.648 C 112.234 20.188,108.753 22.158,104.945 24.027 C 101.137 25.896,97.849 27.705,97.637 28.047 C 97.426 28.390,95.970 29.255,94.402 29.969 C 92.834 30.683,91.166 31.732,90.694 32.300 C 90.223 32.868,89.470 33.333,89.022 33.333 C 88.573 33.333,87.664 33.933,87.000 34.667 C 86.336 35.400,85.446 36.000,85.021 36.000 C 84.597 36.000,83.387 36.900,82.333 38.000 C 81.279 39.100,80.079 40.000,79.667 40.000 C 79.254 40.000,78.054 40.900,77.000 42.000 C 75.946 43.100,74.786 44.000,74.421 44.000 C 72.562 44.000,45.333 71.213,45.333 73.071 C 45.333 73.426,43.833 75.194,42.000 77.000 C 40.167 78.806,38.667 80.623,38.667 81.038 C 38.667 81.454,38.067 82.336,37.333 83.000 C 36.600 83.664,36.000 84.564,36.000 85.000 C 36.000 85.436,35.400 86.336,34.667 87.000 C 33.933 87.664,33.333 88.564,33.333 89.000 C 33.333 89.436,32.733 90.336,32.000 91.000 C 31.267 91.664,30.667 92.573,30.667 93.022 C 30.667 93.470,30.224 94.204,29.682 94.654 C 29.140 95.103,27.889 97.165,26.901 99.236 C 25.913 101.306,24.675 103.508,24.149 104.130 C 22.886 105.623,18.667 114.035,18.667 115.061 C 18.667 115.503,17.767 117.576,16.667 119.667 C 15.567 121.758,14.667 123.879,14.667 124.381 C 14.667 124.882,14.067 126.361,13.333 127.667 C 12.600 128.972,12.000 130.614,12.000 131.314 C 12.000 132.015,11.700 132.773,11.333 133.000 C 10.967 133.227,10.667 134.127,10.667 135.000 C 10.667 135.873,10.367 136.773,10.000 137.000 C 9.633 137.227,9.333 138.127,9.333 139.000 C 9.333 139.873,9.033 140.773,8.667 141.000 C 8.300 141.227,8.000 142.127,8.000 143.000 C 8.000 143.873,7.700 144.773,7.333 145.000 C 6.967 145.227,6.667 146.427,6.667 147.667 C 6.667 148.907,6.367 150.107,6.000 150.333 C 5.633 150.560,5.333 151.760,5.333 153.000 C 5.333 154.240,5.066 155.420,4.740 155.621 C 4.414 155.823,3.954 157.115,3.718 158.494 C 3.482 159.872,2.980 162.800,2.601 165.000 C 2.223 167.200,1.759 171.100,1.571 173.667 C 1.383 176.233,0.953 178.618,0.615 178.967 C -0.195 179.801,-0.192 214.870,0.618 215.700 C 0.958 216.048,1.386 218.733,1.570 221.667 C 1.895 226.866,2.515 231.200,4.003 238.667 C 4.405 240.683,4.900 243.533,5.102 245.000 C 5.304 246.467,5.739 247.952,6.068 248.300 C 6.397 248.648,6.667 249.606,6.667 250.427 C 6.667 251.249,6.967 252.107,7.333 252.333 C 7.700 252.560,8.000 253.760,8.000 255.000 C 8.000 256.240,8.300 257.440,8.667 257.667 C 9.033 257.893,9.333 258.793,9.333 259.667 C 9.333 260.540,9.633 261.440,10.000 261.667 C 10.367 261.893,10.667 262.793,10.667 263.667 C 10.667 264.540,10.967 265.440,11.333 265.667 C 11.700 265.893,12.000 266.652,12.000 267.352 C 12.000 268.053,12.600 269.694,13.333 271.000 C 14.067 272.306,14.667 273.746,14.667 274.201 C 14.667 275.250,26.883 299.706,28.159 301.212 C 28.682 301.829,29.605 303.417,30.209 304.741 C 30.814 306.066,31.764 307.528,32.321 307.990 C 32.878 308.452,33.333 309.197,33.333 309.645 C 33.333 310.093,33.933 311.003,34.667 311.667 C 35.400 312.330,36.000 313.221,36.000 313.645 C 36.000 314.070,36.900 315.279,38.000 316.333 C 39.100 317.387,40.000 318.582,40.000 318.989 C 40.000 319.396,41.200 320.901,42.667 322.333 C 44.133 323.765,45.333 325.231,45.333 325.590 C 45.333 327.452,72.558 354.667,74.421 354.667 C 74.786 354.667,75.946 355.567,77.000 356.667 C 78.054 357.767,79.254 358.667,79.667 358.667 C 80.079 358.667,81.279 359.567,82.333 360.667 C 83.387 361.767,84.597 362.667,85.021 362.667 C 85.446 362.667,86.336 363.267,87.000 364.000 C 87.664 364.733,88.573 365.333,89.022 365.333 C 89.470 365.333,90.223 365.798,90.694 366.366 C 91.166 366.934,92.834 367.984,94.402 368.698 C 95.970 369.412,97.428 370.281,97.643 370.629 C 97.858 370.977,100.569 372.494,103.667 374.000 C 106.765 375.506,109.463 377.004,109.663 377.327 C 110.137 378.095,113.967 380.000,115.035 380.000 C 115.491 380.000,117.576 380.900,119.667 382.000 C 121.758 383.100,123.879 384.000,124.381 384.000 C 124.882 384.000,126.361 384.600,127.667 385.333 C 128.972 386.067,130.614 386.667,131.314 386.667 C 132.015 386.667,132.773 386.967,133.000 387.333 C 133.227 387.700,134.127 388.000,135.000 388.000 C 135.873 388.000,136.773 388.300,137.000 388.667 C 137.227 389.033,138.127 389.333,139.000 389.333 C 139.873 389.333,140.773 389.633,141.000 390.000 C 141.227 390.367,142.427 390.667,143.667 390.667 C 144.907 390.667,146.107 390.967,146.333 391.333 C 146.560 391.700,147.460 392.000,148.333 392.000 C 149.207 392.000,150.107 392.300,150.333 392.667 C 150.560 393.033,151.718 393.333,152.906 393.333 C 154.094 393.333,155.352 393.603,155.700 393.932 C 156.048 394.261,157.683 394.720,159.333 394.952 C 160.983 395.183,164.433 395.675,167.000 396.044 C 190.869 399.474,216.884 398.975,238.667 394.669 C 240.683 394.271,243.311 393.774,244.506 393.565 C 245.701 393.357,246.844 392.919,247.046 392.593 C 247.247 392.267,248.427 392.000,249.667 392.000 C 250.907 392.000,252.107 391.700,252.333 391.333 C 252.560 390.967,253.760 390.667,255.000 390.667 C 256.240 390.667,257.440 390.367,257.667 390.000 C 257.893 389.633,258.793 389.333,259.667 389.333 C 260.540 389.333,261.440 389.033,261.667 388.667 C 261.893 388.300,262.793 388.000,263.667 388.000 C 264.540 388.000,265.440 387.700,265.667 387.333 C 265.893 386.967,266.652 386.667,267.352 386.667 C 268.053 386.667,269.694 386.067,271.000 385.333 C 272.306 384.600,273.747 384.000,274.203 384.000 C 275.253 384.000,297.038 373.119,298.544 371.842 C 299.162 371.318,300.750 370.395,302.075 369.791 C 303.399 369.186,304.861 368.236,305.323 367.679 C 305.785 367.122,306.530 366.667,306.978 366.667 C 307.427 366.667,308.336 366.067,309.000 365.333 C 309.664 364.600,310.564 364.000,311.000 364.000 C 311.436 364.000,312.336 363.400,313.000 362.667 C 313.664 361.933,314.564 361.333,315.000 361.333 C 315.436 361.333,316.336 360.733,317.000 360.000 C 317.664 359.267,318.502 358.667,318.864 358.667 C 321.148 358.667,357.333 322.502,357.333 320.219 C 357.333 319.869,358.233 318.721,359.333 317.667 C 360.433 316.613,361.333 315.403,361.333 314.979 C 361.333 314.554,361.933 313.664,362.667 313.000 C 363.400 312.336,364.000 311.436,364.000 311.000 C 364.000 310.564,364.600 309.664,365.333 309.000 C 366.067 308.336,366.667 307.427,366.667 306.978 C 366.667 306.530,367.122 305.785,367.679 305.323 C 368.236 304.861,369.186 303.399,369.791 302.075 C 370.395 300.750,371.319 299.161,371.842 298.544 C 373.121 297.036,382.667 277.923,382.667 276.871 C 382.667 276.414,383.267 274.972,384.000 273.667 C 384.733 272.361,385.333 270.861,385.333 270.333 C 385.333 269.806,385.933 268.306,386.667 267.000 C 387.400 265.694,388.000 264.053,388.000 263.352 C 388.000 262.652,388.300 261.893,388.667 261.667 C 389.033 261.440,389.333 260.540,389.333 259.667 C 389.333 258.793,389.633 257.893,390.000 257.667 C 390.367 257.440,390.667 256.240,390.667 255.000 C 390.667 253.760,390.967 252.560,391.333 252.333 C 391.700 252.107,392.000 250.907,392.000 249.667 C 392.000 248.427,392.267 247.247,392.593 247.046 C 392.919 246.844,393.357 245.701,393.565 244.506 C 393.774 243.311,394.271 240.683,394.669 238.667 C 397.298 225.369,398.057 217.459,398.411 199.669 C 398.601 190.113,398.464 183.835,398.047 183.002 C 397.680 182.268,397.239 179.417,397.069 176.667 C 396.689 170.548,395.163 161.241,393.405 154.333 C 393.032 152.867,392.536 150.767,392.302 149.667 C 391.079 143.895,385.536 138.000,381.333 138.000 C 375.940 138.000,367.620 149.372,371.333 151.667 C 371.700 151.893,372.000 153.093,372.000 154.333 C 372.000 155.573,372.300 156.773,372.667 157.000 C 373.033 157.227,373.333 158.427,373.333 159.667 C 373.333 160.907,373.633 162.107,374.000 162.333 C 374.367 162.560,374.667 164.360,374.667 166.333 C 374.667 168.307,374.967 170.107,375.333 170.333 C 375.700 170.560,376.000 172.618,376.000 174.906 C 376.000 177.194,376.309 179.376,376.687 179.753 C 378.087 181.153,376.762 226.759,375.277 228.300 C 374.941 228.648,374.667 230.506,374.667 232.427 C 374.667 234.349,374.367 236.107,374.000 236.333 C 373.633 236.560,373.333 237.760,373.333 239.000 C 373.333 240.240,373.033 241.440,372.667 241.667 C 372.300 241.893,372.000 243.093,372.000 244.333 C 372.000 245.573,371.700 246.773,371.333 247.000 C 370.967 247.227,370.667 248.127,370.667 249.000 C 370.667 249.873,370.367 250.773,370.000 251.000 C 369.633 251.227,369.333 252.127,369.333 253.000 C 369.333 253.873,369.033 254.773,368.667 255.000 C 368.300 255.227,368.000 256.127,368.000 257.000 C 368.000 257.873,367.700 258.773,367.333 259.000 C 366.967 259.227,366.667 259.985,366.667 260.686 C 366.667 261.386,366.067 263.028,365.333 264.333 C 364.600 265.639,364.000 267.072,364.000 267.517 C 364.000 268.756,352.690 291.151,351.613 292.044 C 351.093 292.476,350.667 293.197,350.667 293.645 C 350.667 294.093,350.067 295.003,349.333 295.667 C 348.600 296.330,348.000 297.221,348.000 297.645 C 348.000 298.070,347.100 299.279,346.000 300.333 C 344.900 301.387,344.000 302.597,344.000 303.021 C 344.000 303.446,343.400 304.336,342.667 305.000 C 341.933 305.664,341.333 306.554,341.333 306.979 C 341.333 307.403,340.433 308.613,339.333 309.667 C 338.233 310.721,337.333 311.905,337.333 312.298 C 337.333 313.224,313.211 337.333,312.285 337.333 C 311.899 337.333,310.721 338.233,309.667 339.333 C 308.613 340.433,307.413 341.333,307.000 341.333 C 306.587 341.333,305.387 342.233,304.333 343.333 C 303.279 344.433,302.070 345.333,301.645 345.333 C 301.221 345.333,300.330 345.933,299.667 346.667 C 299.003 347.400,298.103 348.000,297.667 348.000 C 297.230 348.000,296.330 348.600,295.667 349.333 C 295.003 350.067,294.093 350.667,293.645 350.667 C 293.197 350.667,292.476 351.093,292.044 351.613 C 291.151 352.690,268.756 364.000,267.517 364.000 C 267.072 364.000,265.639 364.600,264.333 365.333 C 263.028 366.067,261.386 366.667,260.686 366.667 C 259.985 366.667,259.227 366.967,259.000 367.333 C 258.773 367.700,257.873 368.000,257.000 368.000 C 256.127 368.000,255.227 368.300,255.000 368.667 C 254.773 369.033,253.873 369.333,253.000 369.333 C 252.127 369.333,251.227 369.633,251.000 370.000 C 250.773 370.367,249.873 370.667,249.000 370.667 C 248.127 370.667,247.227 370.967,247.000 371.333 C 246.773 371.700,245.573 372.000,244.333 372.000 C 243.093 372.000,241.893 372.300,241.667 372.667 C 241.440 373.033,240.240 373.333,239.000 373.333 C 237.760 373.333,236.560 373.633,236.333 374.000 C 236.107 374.367,234.349 374.667,232.427 374.667 C 230.506 374.667,228.648 374.941,228.300 375.277 C 226.055 377.441,172.612 377.441,170.367 375.277 C 170.018 374.941,168.161 374.667,166.239 374.667 C 164.318 374.667,162.560 374.367,162.333 374.000 C 162.107 373.633,160.607 373.333,159.000 373.333 C 157.393 373.333,155.893 373.033,155.667 372.667 C 155.440 372.300,154.540 372.000,153.667 372.000 C 152.793 372.000,151.893 371.700,151.667 371.333 C 151.440 370.967,150.540 370.667,149.667 370.667 C 148.793 370.667,147.893 370.367,147.667 370.000 C 147.440 369.633,146.540 369.333,145.667 369.333 C 144.793 369.333,143.893 369.033,143.667 368.667 C 143.440 368.300,142.540 368.000,141.667 368.000 C 140.793 368.000,139.893 367.700,139.667 367.333 C 139.440 366.967,138.540 366.667,137.667 366.667 C 136.793 366.667,135.893 366.367,135.667 366.000 C 135.440 365.633,134.703 365.333,134.028 365.333 C 133.354 365.333,131.091 364.433,129.000 363.333 C 126.909 362.233,124.836 361.333,124.394 361.333 C 123.369 361.333,114.957 357.114,113.463 355.851 C 112.842 355.325,110.639 354.087,108.569 353.099 C 106.498 352.111,104.437 350.860,103.987 350.318 C 103.538 349.776,102.803 349.333,102.355 349.333 C 101.907 349.333,100.997 348.733,100.333 348.000 C 99.670 347.267,98.779 346.667,98.355 346.667 C 97.930 346.667,96.721 345.767,95.667 344.667 C 94.613 343.567,93.413 342.667,93.000 342.667 C 92.587 342.667,91.387 341.767,90.333 340.667 C 89.279 339.567,88.090 338.667,87.691 338.667 C 87.291 338.667,84.880 336.567,82.333 334.000 C 79.786 331.433,77.378 329.333,76.982 329.333 C 76.097 329.333,72.000 325.184,72.000 324.288 C 72.000 323.931,69.300 320.951,66.000 317.667 C 62.700 314.382,60.000 311.369,60.000 310.972 C 60.000 310.575,59.100 309.387,58.000 308.333 C 56.900 307.279,56.000 306.070,56.000 305.645 C 56.000 305.221,55.400 304.330,54.667 303.667 C 53.933 303.003,53.333 302.103,53.333 301.667 C 53.333 301.230,52.733 300.330,52.000 299.667 C 51.267 299.003,50.667 298.103,50.667 297.667 C 50.667 297.230,50.067 296.330,49.333 295.667 C 48.600 295.003,48.000 294.093,48.000 293.645 C 48.000 293.197,47.554 292.459,47.008 292.007 C 46.462 291.554,44.796 288.675,43.305 285.609 C 41.814 282.543,40.330 279.870,40.006 279.670 C 39.239 279.196,37.333 275.367,37.333 274.299 C 37.333 273.842,36.433 271.758,35.333 269.667 C 34.233 267.576,33.333 265.454,33.333 264.953 C 33.333 264.451,32.733 262.972,32.000 261.667 C 31.267 260.361,30.667 258.720,30.667 258.019 C 30.667 257.319,30.367 256.560,30.000 256.333 C 29.633 256.107,29.333 255.207,29.333 254.333 C 29.333 253.460,29.033 252.560,28.667 252.333 C 28.300 252.107,28.000 250.907,28.000 249.667 C 28.000 248.427,27.700 247.227,27.333 247.000 C 26.967 246.773,26.667 245.573,26.667 244.333 C 26.667 243.093,26.367 241.893,26.000 241.667 C 25.633 241.440,25.333 240.240,25.333 239.000 C 25.333 237.760,25.033 236.560,24.667 236.333 C 24.300 236.107,24.000 234.649,24.000 233.094 C 24.000 231.539,23.723 229.982,23.385 229.633 C 21.930 228.134,20.603 178.464,21.981 177.086 C 22.358 176.709,22.667 174.528,22.667 172.239 C 22.667 169.951,22.967 167.893,23.333 167.667 C 23.700 167.440,24.000 165.940,24.000 164.333 C 24.000 162.727,24.300 161.227,24.667 161.000 C 25.033 160.773,25.333 159.573,25.333 158.333 C 25.333 157.093,25.633 155.893,26.000 155.667 C 26.367 155.440,26.667 154.240,26.667 153.000 C 26.667 151.760,26.967 150.560,27.333 150.333 C 27.700 150.107,28.000 149.207,28.000 148.333 C 28.000 147.460,28.300 146.560,28.667 146.333 C 29.033 146.107,29.333 145.207,29.333 144.333 C 29.333 143.460,29.633 142.560,30.000 142.333 C 30.367 142.107,30.667 141.207,30.667 140.333 C 30.667 139.460,30.967 138.560,31.333 138.333 C 31.700 138.107,32.000 137.369,32.000 136.695 C 32.000 136.021,32.900 133.758,34.000 131.667 C 35.100 129.576,36.000 127.509,36.000 127.075 C 36.000 126.053,42.906 112.266,44.156 110.792 C 44.681 110.173,45.605 108.583,46.209 107.259 C 46.814 105.934,47.764 104.472,48.321 104.010 C 48.878 103.548,49.333 102.803,49.333 102.355 C 49.333 101.907,49.933 100.997,50.667 100.333 C 51.400 99.670,52.000 98.770,52.000 98.333 C 52.000 97.897,52.600 96.997,53.333 96.333 C 54.067 95.670,54.667 94.784,54.667 94.365 C 54.667 93.947,55.867 92.432,57.333 91.000 C 58.800 89.568,60.000 88.071,60.000 87.673 C 60.000 87.275,61.500 85.472,63.333 83.667 C 65.167 81.861,66.667 80.065,66.667 79.675 C 66.667 78.778,76.134 69.333,77.034 69.333 C 77.401 69.333,79.786 67.233,82.333 64.667 C 84.880 62.100,87.291 60.000,87.691 60.000 C 88.090 60.000,89.279 59.100,90.333 58.000 C 91.387 56.900,92.587 56.000,93.000 56.000 C 93.413 56.000,94.613 55.100,95.667 54.000 C 96.721 52.900,97.940 52.000,98.376 52.000 C 98.813 52.000,99.556 51.535,100.027 50.967 C 100.499 50.399,102.167 49.350,103.735 48.635 C 105.303 47.921,106.767 47.044,106.988 46.686 C 107.209 46.328,108.502 45.527,109.862 44.906 C 111.221 44.285,112.840 43.346,113.460 42.821 C 114.978 41.534,126.058 36.000,127.117 36.000 C 127.580 36.000,129.028 35.400,130.333 34.667 C 131.639 33.933,133.280 33.333,133.981 33.333 C 134.681 33.333,135.440 33.033,135.667 32.667 C 135.893 32.300,136.652 32.000,137.352 32.000 C 138.053 32.000,139.694 31.400,141.000 30.667 C 142.306 29.933,143.947 29.333,144.648 29.333 C 145.348 29.333,146.107 29.033,146.333 28.667 C 146.560 28.300,147.760 28.000,149.000 28.000 C 150.240 28.000,151.440 27.700,151.667 27.333 C 151.893 26.967,153.093 26.667,154.333 26.667 C 155.573 26.667,156.773 26.367,157.000 26.000 C 157.227 25.633,158.427 25.333,159.667 25.333 C 160.907 25.333,162.107 25.033,162.333 24.667 C 162.560 24.300,164.060 24.000,165.667 24.000 C 167.273 24.000,168.773 23.700,169.000 23.333 C 169.227 22.967,171.284 22.667,173.573 22.667 C 175.861 22.667,178.042 22.358,178.419 21.981 C 179.790 20.610,228.140 21.936,229.633 23.385 C 229.982 23.723,231.539 24.000,233.094 24.000 C 234.649 24.000,236.107 24.300,236.333 24.667 C 236.560 25.033,237.760 25.333,239.000 25.333 C 240.240 25.333,241.440 25.633,241.667 26.000 C 241.893 26.367,243.093 26.667,244.333 26.667 C 245.573 26.667,246.773 26.967,247.000 27.333 C 247.227 27.700,248.127 28.000,249.000 28.000 C 249.873 28.000,250.773 28.300,251.000 28.667 C 251.227 29.033,252.127 29.333,253.000 29.333 C 253.873 29.333,254.773 29.633,255.000 30.000 C 255.227 30.367,256.127 30.667,257.000 30.667 C 257.873 30.667,258.773 30.967,259.000 31.333 C 259.227 31.700,259.985 32.000,260.686 32.000 C 261.386 32.000,263.028 32.600,264.333 33.333 C 265.639 34.067,267.072 34.667,267.517 34.667 C 268.756 34.667,291.151 45.976,292.044 47.054 C 292.476 47.574,293.197 48.000,293.645 48.000 C 294.093 48.000,295.003 48.600,295.667 49.333 C 296.330 50.067,297.230 50.667,297.667 50.667 C 298.103 50.667,299.003 51.267,299.667 52.000 C 300.330 52.733,301.221 53.333,301.645 53.333 C 302.070 53.333,303.279 54.233,304.333 55.333 C 305.387 56.433,306.587 57.333,307.000 57.333 C 307.413 57.333,308.613 58.233,309.667 59.333 C 310.721 60.433,311.987 61.333,312.482 61.333 C 313.163 61.333,313.214 61.644,312.690 62.623 C 312.311 63.332,312.000 64.814,312.000 65.917 C 312.000 67.019,311.672 68.124,311.271 68.372 C 309.765 69.303,311.671 77.460,314.869 83.770 C 321.033 95.933,342.478 100.730,350.027 91.634 C 350.469 91.102,351.187 90.667,351.624 90.667 C 356.041 90.667,364.220 69.863,360.667 67.667 C 360.300 67.440,360.000 66.423,360.000 65.407 C 360.000 59.288,349.132 48.000,343.242 48.000 C 342.602 48.000,341.893 47.700,341.667 47.333 C 341.136 46.475,332.293 46.463,330.694 47.319 C 329.784 47.806,329.052 47.637,327.799 46.652 C 326.877 45.927,325.851 45.333,325.520 45.333 C 325.188 45.333,324.054 44.433,323.000 43.333 C 321.946 42.233,320.746 41.333,320.333 41.333 C 319.921 41.333,318.721 40.433,317.667 39.333 C 316.613 38.233,315.409 37.333,314.991 37.333 C 314.574 37.333,313.505 36.558,312.616 35.609 C 311.727 34.661,309.743 33.312,308.207 32.611 C 306.671 31.910,305.233 31.044,305.012 30.686 C 304.791 30.328,303.498 29.527,302.138 28.906 C 300.779 28.285,299.161 27.348,298.544 26.824 C 297.076 25.580,277.937 16.000,276.919 16.000 C 276.488 16.000,274.424 15.100,272.333 14.000 C 270.242 12.900,267.979 12.000,267.305 12.000 C 266.631 12.000,265.893 11.700,265.667 11.333 C 265.440 10.967,264.540 10.667,263.667 10.667 C 262.793 10.667,261.893 10.367,261.667 10.000 C 261.440 9.633,260.240 9.333,259.000 9.333 C 257.760 9.333,256.560 9.033,256.333 8.667 C 256.107 8.300,255.207 8.000,254.333 8.000 C 253.460 8.000,252.560 7.700,252.333 7.333 C 252.107 6.967,250.907 6.667,249.667 6.667 C 248.427 6.667,247.247 6.400,247.046 6.074 C 246.844 5.748,245.701 5.310,244.506 5.101 C 243.311 4.893,240.683 4.396,238.667 3.997 C 232.274 2.734,227.123 1.937,223.000 1.573 C 220.800 1.380,218.715 0.946,218.367 0.610 C 217.531 -0.195,183.792 -0.187,182.967 0.618 M176.167 99.775 C 175.708 99.960,175.333 100.818,175.333 101.683 C 175.333 102.547,175.033 103.440,174.667 103.667 C 174.300 103.893,174.000 104.652,174.000 105.352 C 174.000 106.053,173.400 107.694,172.667 109.000 C 171.933 110.306,171.333 111.806,171.333 112.333 C 171.333 112.861,170.733 114.361,170.000 115.667 C 169.267 116.972,168.667 118.614,168.667 119.314 C 168.667 120.015,168.367 120.773,168.000 121.000 C 167.633 121.227,167.333 121.985,167.333 122.686 C 167.333 123.386,166.733 125.028,166.000 126.333 C 165.267 127.639,164.667 129.139,164.667 129.667 C 164.667 130.194,164.067 131.694,163.333 133.000 C 162.600 134.306,162.000 135.947,162.000 136.648 C 162.000 137.348,161.700 138.107,161.333 138.333 C 160.967 138.560,160.667 139.319,160.667 140.019 C 160.667 140.720,160.067 142.361,159.333 143.667 C 158.600 144.972,158.000 146.472,158.000 147.000 C 158.000 147.528,157.400 149.028,156.667 150.333 C 155.933 151.639,155.333 153.280,155.333 153.981 C 155.333 154.681,155.033 155.440,154.667 155.667 C 154.300 155.893,154.000 156.652,154.000 157.352 C 154.000 158.053,153.400 159.694,152.667 161.000 C 151.933 162.306,151.333 163.806,151.333 164.333 C 151.333 164.861,150.733 166.361,150.000 167.667 C 149.267 168.972,148.667 170.472,148.667 171.000 C 148.667 171.528,148.067 173.028,147.333 174.333 C 146.600 175.639,146.000 177.280,146.000 177.981 C 146.000 178.681,145.700 179.440,145.333 179.667 C 144.967 179.893,144.667 180.652,144.667 181.352 C 144.667 182.053,144.067 183.694,143.333 185.000 C 142.600 186.306,142.000 187.806,142.000 188.333 C 142.000 188.861,141.400 190.361,140.667 191.667 C 139.933 192.972,139.333 194.614,139.333 195.314 C 139.333 196.015,139.033 196.773,138.667 197.000 C 138.300 197.227,138.000 197.985,138.000 198.686 C 138.000 199.386,137.400 201.028,136.667 202.333 C 135.933 203.639,135.333 205.139,135.333 205.667 C 135.333 206.194,134.733 207.694,134.000 209.000 C 133.267 210.306,132.667 211.947,132.667 212.648 C 132.667 213.348,132.367 214.107,132.000 214.333 C 131.633 214.560,131.333 215.319,131.333 216.019 C 131.333 216.720,130.733 218.361,130.000 219.667 C 129.267 220.972,128.667 222.472,128.667 223.000 C 128.667 223.528,128.067 225.028,127.333 226.333 C 126.600 227.639,126.000 229.280,126.000 229.981 C 126.000 230.681,125.700 231.440,125.333 231.667 C 124.967 231.893,124.667 232.652,124.667 233.352 C 124.667 234.053,124.067 235.694,123.333 237.000 C 122.600 238.306,122.000 239.806,122.000 240.333 C 122.000 240.861,121.400 242.361,120.667 243.667 C 119.933 244.972,119.333 246.614,119.333 247.314 C 119.333 248.015,119.033 248.773,118.667 249.000 C 118.300 249.227,118.000 249.985,118.000 250.686 C 118.000 251.386,117.400 253.028,116.667 254.333 C 115.933 255.639,115.333 257.139,115.333 257.667 C 115.333 258.194,114.733 259.694,114.000 261.000 C 113.267 262.306,112.667 263.947,112.667 264.648 C 112.667 265.348,112.367 266.107,112.000 266.333 C 111.633 266.560,111.333 267.311,111.333 268.001 C 111.333 268.692,110.757 270.249,110.054 271.462 C 109.350 272.675,108.675 274.567,108.554 275.667 L 108.333 277.667 129.562 277.667 L 150.791 277.667 151.795 275.000 C 152.348 273.533,153.751 269.633,154.914 266.333 C 156.077 263.033,157.547 259.312,158.181 258.064 C 158.815 256.816,159.333 255.301,159.333 254.698 C 159.333 254.094,159.608 253.315,159.944 252.967 C 160.279 252.618,160.654 251.583,160.777 250.667 L 161.000 249.000 193.333 248.667 L 225.667 248.333 225.882 246.082 C 226.000 244.844,225.775 243.509,225.382 243.115 C 224.989 242.722,224.667 241.869,224.667 241.220 C 224.667 240.571,224.067 238.972,223.333 237.667 C 222.600 236.361,222.000 234.720,222.000 234.019 C 222.000 233.319,221.700 232.560,221.333 232.333 C 220.967 232.107,220.667 231.207,220.667 230.333 C 220.667 229.460,220.367 228.560,220.000 228.333 C 219.633 228.107,219.333 227.207,219.333 226.333 C 219.333 225.460,219.033 224.560,218.667 224.333 C 218.300 224.107,218.000 223.207,218.000 222.333 C 218.000 221.460,217.700 220.560,217.333 220.333 C 216.967 220.107,216.667 219.328,216.667 218.604 C 216.667 217.879,216.182 216.547,215.590 215.643 L 214.513 214.000 193.963 214.000 C 173.592 214.000,171.308 213.758,173.258 211.809 C 173.666 211.401,174.000 210.394,174.000 209.573 C 174.000 208.751,174.300 207.893,174.667 207.667 C 175.033 207.440,175.333 206.681,175.333 205.981 C 175.333 205.280,175.933 203.639,176.667 202.333 C 177.400 201.028,178.000 199.386,178.000 198.686 C 178.000 197.985,178.300 197.227,178.667 197.000 C 179.033 196.773,179.333 195.873,179.333 195.000 C 179.333 194.127,179.633 193.227,180.000 193.000 C 180.367 192.773,180.667 192.015,180.667 191.314 C 180.667 190.614,181.267 188.972,182.000 187.667 C 182.733 186.361,183.333 184.720,183.333 184.019 C 183.333 183.319,183.633 182.560,184.000 182.333 C 184.367 182.107,184.667 181.207,184.667 180.333 C 184.667 179.460,184.967 178.560,185.333 178.333 C 185.700 178.107,186.000 177.348,186.000 176.648 C 186.000 175.947,186.600 174.306,187.333 173.000 C 188.067 171.694,188.667 170.053,188.667 169.352 C 188.667 168.652,188.967 167.893,189.333 167.667 C 189.700 167.440,190.000 166.540,190.000 165.667 C 190.000 164.793,190.300 163.893,190.667 163.667 C 191.033 163.440,191.333 162.681,191.333 161.981 C 191.333 161.280,191.933 159.639,192.667 158.333 C 193.400 157.028,194.000 155.386,194.000 154.686 C 194.000 153.985,194.300 153.227,194.667 153.000 C 195.033 152.773,195.333 151.873,195.333 151.000 C 195.333 150.127,195.633 149.227,196.000 149.000 C 196.367 148.773,196.667 147.873,196.667 147.000 C 196.667 146.127,196.967 145.227,197.333 145.000 C 197.700 144.773,198.000 144.065,198.000 143.427 C 198.000 142.157,199.465 138.677,200.000 138.677 C 200.535 138.677,202.000 142.157,202.000 143.427 C 202.000 144.065,202.300 144.773,202.667 145.000 C 203.033 145.227,203.333 146.127,203.333 147.000 C 203.333 147.873,203.633 148.773,204.000 149.000 C 204.367 149.227,204.667 150.127,204.667 151.000 C 204.667 151.873,204.967 152.773,205.333 153.000 C 205.700 153.227,206.000 153.985,206.000 154.686 C 206.000 155.386,206.600 157.028,207.333 158.333 C 208.067 159.639,208.667 161.280,208.667 161.981 C 208.667 162.681,208.967 163.440,209.333 163.667 C 209.700 163.893,210.000 164.793,210.000 165.667 C 210.000 166.540,210.300 167.440,210.667 167.667 C 211.033 167.893,211.333 168.793,211.333 169.667 C 211.333 170.540,211.633 171.440,212.000 171.667 C 212.367 171.893,212.667 172.793,212.667 173.667 C 212.667 174.540,212.967 175.440,213.333 175.667 C 213.700 175.893,214.000 176.793,214.000 177.667 C 214.000 178.540,214.300 179.440,214.667 179.667 C 215.033 179.893,215.333 180.652,215.333 181.352 C 215.333 182.053,215.933 183.694,216.667 185.000 C 217.400 186.306,218.000 187.947,218.000 188.648 C 218.000 189.348,218.300 190.107,218.667 190.333 C 219.033 190.560,219.333 191.460,219.333 192.333 C 219.333 193.207,219.633 194.107,220.000 194.333 C 220.367 194.560,220.667 195.460,220.667 196.333 C 220.667 197.207,220.967 198.107,221.333 198.333 C 221.700 198.560,222.000 199.460,222.000 200.333 C 222.000 201.207,222.300 202.107,222.667 202.333 C 223.033 202.560,223.333 203.319,223.333 204.019 C 223.333 204.720,223.933 206.361,224.667 207.667 C 225.400 208.972,226.000 210.614,226.000 211.314 C 226.000 212.015,226.300 212.773,226.667 213.000 C 227.033 213.227,227.333 214.127,227.333 215.000 C 227.333 215.873,227.633 216.773,228.000 217.000 C 228.367 217.227,228.667 218.127,228.667 219.000 C 228.667 219.873,228.967 220.773,229.333 221.000 C 229.700 221.227,230.000 222.127,230.000 223.000 C 230.000 223.873,230.300 224.773,230.667 225.000 C 231.033 225.227,231.333 225.985,231.333 226.686 C 231.333 227.386,231.933 229.028,232.667 230.333 C 233.400 231.639,234.000 233.280,234.000 233.981 C 234.000 234.681,234.300 235.440,234.667 235.667 C 235.033 235.893,235.333 236.793,235.333 237.667 C 235.333 238.540,235.633 239.440,236.000 239.667 C 236.367 239.893,236.667 240.793,236.667 241.667 C 236.667 242.540,236.967 243.440,237.333 243.667 C 237.700 243.893,238.000 244.793,238.000 245.667 C 238.000 246.540,238.300 247.440,238.667 247.667 C 239.033 247.893,239.333 248.793,239.333 249.667 C 239.333 250.540,239.633 251.440,240.000 251.667 C 240.367 251.893,240.667 252.615,240.667 253.270 C 240.667 253.926,241.187 255.483,241.824 256.731 C 242.460 257.979,244.379 263.200,246.088 268.333 L 249.194 277.667 270.431 277.667 C 291.281 277.667,291.663 277.642,291.491 276.333 C 291.178 273.966,289.760 269.724,288.531 267.480 C 287.872 266.277,287.333 264.861,287.333 264.333 C 287.333 263.806,286.733 262.306,286.000 261.000 C 285.267 259.694,284.667 258.053,284.667 257.352 C 284.667 256.652,284.367 255.893,284.000 255.667 C 283.633 255.440,283.333 254.681,283.333 253.981 C 283.333 253.280,282.733 251.639,282.000 250.333 C 281.267 249.028,280.667 247.528,280.667 247.000 C 280.667 246.472,280.067 244.972,279.333 243.667 C 278.600 242.361,278.000 240.720,278.000 240.019 C 278.000 239.319,277.700 238.560,277.333 238.333 C 276.967 238.107,276.667 237.348,276.667 236.648 C 276.667 235.947,276.067 234.306,275.333 233.000 C 274.600 231.694,274.000 230.194,274.000 229.667 C 274.000 229.139,273.400 227.639,272.667 226.333 C 271.933 225.028,271.333 223.386,271.333 222.686 C 271.333 221.985,271.033 221.227,270.667 221.000 C 270.300 220.773,270.000 220.015,270.000 219.314 C 270.000 218.614,269.400 216.972,268.667 215.667 C 267.933 214.361,267.333 212.861,267.333 212.333 C 267.333 211.806,266.733 210.306,266.000 209.000 C 265.267 207.694,264.667 206.053,264.667 205.352 C 264.667 204.652,264.367 203.893,264.000 203.667 C 263.633 203.440,263.333 202.681,263.333 201.981 C 263.333 201.280,262.733 199.639,262.000 198.333 C 261.267 197.028,260.667 195.528,260.667 195.000 C 260.667 194.472,260.067 192.972,259.333 191.667 C 258.600 190.361,258.000 188.720,258.000 188.019 C 258.000 187.319,257.700 186.560,257.333 186.333 C 256.967 186.107,256.667 185.348,256.667 184.648 C 256.667 183.947,256.067 182.306,255.333 181.000 C 254.600 179.694,254.000 178.194,254.000 177.667 C 254.000 177.139,253.400 175.639,252.667 174.333 C 251.933 173.028,251.333 171.386,251.333 170.686 C 251.333 169.985,251.033 169.227,250.667 169.000 C 250.300 168.773,250.000 168.015,250.000 167.314 C 250.000 166.614,249.400 164.972,248.667 163.667 C 247.933 162.361,247.333 160.861,247.333 160.333 C 247.333 159.806,246.733 158.306,246.000 157.000 C 245.267 155.694,244.667 154.053,244.667 153.352 C 244.667 152.652,244.367 151.893,244.000 151.667 C 243.633 151.440,243.333 150.681,243.333 149.981 C 243.333 149.280,242.733 147.639,242.000 146.333 C 241.267 145.028,240.667 143.528,240.667 143.000 C 240.667 142.472,240.067 140.972,239.333 139.667 C 238.600 138.361,238.000 136.720,238.000 136.019 C 238.000 135.319,237.700 134.560,237.333 134.333 C 236.967 134.107,236.667 133.348,236.667 132.648 C 236.667 131.947,236.067 130.306,235.333 129.000 C 234.600 127.694,234.000 126.194,234.000 125.667 C 234.000 125.139,233.400 123.639,232.667 122.333 C 231.933 121.028,231.333 119.386,231.333 118.686 C 231.333 117.985,231.033 117.227,230.667 117.000 C 230.300 116.773,230.000 116.015,230.000 115.314 C 230.000 114.614,229.400 112.972,228.667 111.667 C 227.933 110.361,227.333 108.861,227.333 108.333 C 227.333 107.806,226.733 106.306,226.000 105.000 C 225.267 103.694,224.667 102.067,224.667 101.384 C 224.667 100.701,224.192 99.961,223.612 99.738 C 222.354 99.255,177.368 99.290,176.167 99.775 " stroke="none" fill="#000000" fill-rule="evenodd"></path></g></svg>