<svg width="100%" height="100%" viewBox="0 0 450 450" version="1.1" xmlns="http://www.w3.org/2000/svg" style="fill-rule:evenodd;clip-rule:evenodd;stroke-linejoin:round;stroke-miterlimit:2;"><g transform="matrix(1,0,0,1,25.4237,12.7119)">
<path d="M189.727,28.441C188.398,29.798 3.643,349.189 1.212,354.333C-2.049,361.231 1.081,370.675 7.74,374.037L9.648,375L392.206,375L400.639,367.556L399.833,353.167C399.833,353.167 212.186,28.076 208.523,25.975L206.833,25.006L194.833,25.018M204.431,28.534C206.186,29.154 208.409,30.885 209.813,32.726C211.477,34.908 396.66,355.861 397.244,357.575C399.27,363.521 394.514,370.701 387.693,371.995C385.04,372.498 15.973,372.462 13.6,371.959C6.335,370.417 1.845,362.745 4.603,356.584C6.168,353.085 191.458,32.736 192.599,31.556C195.898,28.143 200.204,27.043 204.431,28.534M143,159.386L143,185.531C143,185.531 198.042,183.867 204.751,185.577C213.678,187.854 219.338,191.907 222.331,198.167C224.437,202.569 224.667,225.283 224.667,225.283C224.667,225.283 179.363,225.622 171.881,227.167C142.12,233.315 127.328,254.694 130.643,286.768C133.437,313.807 150.428,327.787 179,326.558C196.34,325.811 223.964,302.333 224.639,302.333L226.108,321.931C226.108,321.931 279.785,313.867 280.134,313.769C280.748,313.595 280.287,327.443 280.287,327.443C280.287,327.443 315.667,295.138 315.667,295.029C315.667,294.727 272.18,275.745 272.074,276.001C272.022,276.124 276.456,288.431 276.213,288.517C276.004,288.591 258.019,292.008 258.019,292.008C258.019,292.008 257.938,192.061 255.468,184.667C248.97,165.217 227.74,154.655 197.333,155.744M224.667,280.629C224.667,280.629 199.566,299.324 184.626,297.699C170.406,296.153 163.856,289.135 163.903,275.5C163.955,260.581 171.85,253.485 190.167,251.895C190.9,251.831 224.667,251.667 224.667,251.667"/>
</g>
</svg>
