<?xml version="1.0" encoding="UTF-8" standalone="no"?>
<!DOCTYPE svg PUBLIC "-//W3C//DTD SVG 1.1//EN" "http://www.w3.org/Graphics/SVG/1.1/DTD/svg11.dtd">
<svg width="100%" height="100%" viewBox="0 0 450 450" version="1.1" xmlns="http://www.w3.org/2000/svg" xmlns:xlink="http://www.w3.org/1999/xlink" xml:space="preserve" xmlns:serif="http://www.serif.com/" style="fill-rule:evenodd;clip-rule:evenodd;stroke-linejoin:round;stroke-miterlimit:2;">
    <g id="svgg" transform="matrix(1,0,0,1,25.4237,27.9661)">
        <path id="path0" d="M198,25.699C195.672,26.154 192.655,27.806 190.941,29.566C188.868,31.694 3.299,352.891 2.058,356.5C-0.316,363.402 3.359,370.761 10.674,373.753C10.674,373.753 386.54,374.573 388.124,374.331C396.516,373.049 402.053,364.422 399.511,356.59C398.571,353.695 212.469,31.56 210.635,29.654C207.465,26.359 202.531,24.814 198,25.699M205.667,155.995C236.303,157.484 252.643,168.58 257.215,191C257.744,193.596 258.019,292.008 258.019,292.008C258.019,292.008 276.004,288.591 276.213,288.517C276.456,288.431 272.022,276.124 272.074,276.001C272.179,275.746 315.667,294.727 315.667,295.028C315.667,295.136 280.287,327.443 280.287,327.443C280.287,327.443 280.748,313.595 280.134,313.772C279.785,313.873 227.309,323.131 227.309,323.131L224.904,320.726L225.5,302.332C225.5,302.332 190.809,328.261 170.34,326.366C142.737,323.812 129.676,307.365 130.423,276.102C131.098,247.792 146.633,231.08 176.751,226.263C180.843,225.608 224.667,225.283 224.667,225.283L224.667,215.361C224.667,204.208 224.404,202.35 222.189,197.831C215.668,184.53 144.25,186.75 144.25,186.75L143,185.531L143,159.364L144.083,159.181C150.35,158.128 202.092,155.821 205.667,155.995M190.167,251.895C171.852,253.485 163.966,260.572 163.898,275.5C163.837,289.077 170.447,296.158 184.626,297.699C199.566,299.324 224.667,280.629 224.667,280.629L224.667,251.667C224.667,251.667 190.9,251.831 190.167,251.895"/>
    </g>
</svg>
