<svg width="100%" height="100%" viewBox="0 0 515 515" version="1.1" xmlns="http://www.w3.org/2000/svg" style="fill-rule:evenodd;clip-rule:evenodd;stroke-linejoin:round;stroke-miterlimit:2;">
    <g>
        <path d="M6.845,273.036C2.028,282.476 2.011,283.206 6.607,282.81C9.893,282.528 10.372,282.081 11.995,277.791C14.86,270.214 15.308,270 28.293,270L39.728,270C39.728,270 45,279.9 45,281C45,282.667 45.667,283 49,283C51.2,283 53,282.67 53,282.266C53,281.088 29.044,231.479 27.827,231.246M283,281.964C283,284.189 289.019,283.08 289.929,280.686C290.413,279.414 306.599,258.925 308.814,259.708C310.974,260.472 325.477,279.125 326,280.5C326.897,282.859 333,284.399 333,282.266C333,281.122 308.539,231.062 306.992,231.015M448.821,232.402C446.797,233.124 441.142,237.137 440.109,237.466C437.735,238.219 433.258,244.614 431.977,249.08C425.438,271.88 444.435,290.051 467.395,282.96L474,280.92L474,275.46C474,269.246 472.946,268.684 466.926,271.687C455.85,277.212 442.018,271.73 442.004,261.809C442.002,260.329 442.154,253.512 442.986,251.081C445.856,242.703 455.691,239.558 465.48,243.888C472.447,246.97 473.002,246.775 472.985,241.25C472.965,235.076 472.519,234.52 466.068,232.609C459.574,230.685 453.821,230.616 448.821,232.402M488.02,233.689C476.124,239.878 477.248,255.551 489.94,260.477C506.651,266.962 504.445,277.71 487.541,272.161C483.92,270.973 480.742,270 480.479,270C480.216,270 480,272.443 480,275.429L480,280.858L485.404,282.429C511.261,289.946 523.444,265.901 499.326,254.954C493.129,252.142 491,249.877 491,246.101C491,242.091 499.654,240.528 505.364,243.506C506.94,244.328 508.627,245 509.114,245C510.485,245 510.183,234.231 508.787,233.369C505.944,231.611 491.588,231.833 488.02,233.689M55.6,281.25C55.538,282.031 62.5,282.5 62.5,282.5L62.172,271.75L61.843,261L67.672,260.994C80.23,260.982 86,256.847 86,247.858C86,236.607 81.354,233 66.864,233L56,233M93.583,280.75C93.522,282.046 99.5,282.5 99.5,282.5L98.843,261L104.479,261C118.007,261 124.012,256.898 123.985,247.673C123.969,241.927 122.496,238.255 119.542,236.598C118.465,235.994 116.971,234.938 116.221,234.25C115.312,233.417 94,233 94,233M135,283L145.134,283C154.81,283 161.856,281.764 164.911,279.531C169.906,275.879 174.965,269.706 175.559,266.537C175.924,264.592 176.623,263 177.111,263C177.6,263 178,260.75 178,258C178,255.25 177.735,252.805 177.084,250.857C175.649,246.559 168.93,237.676 164.01,236.339C162.64,235.967 160.921,235.064 160.188,234.331C159.229,233.372 135,233 135,233M176.716,233.618C176.376,233.957 189.48,255.215 191.084,257.09C195.88,262.698 197,266.079 197,274.953L197,283.105L207.48,282.5L207.5,264.5C207.5,264.5 225.636,237.826 226.436,235.25C227.383,232.199 215.418,231.707 214.287,234.75C213.281,237.454 204.679,248.36 203.991,250.021C202.067,254.666 201.527,254.451 197.406,247.404C195.295,243.794 189.053,235.713 188.702,234.75C188.064,233.003 178.257,232.077 176.716,233.618M232,258L232,283L243,283L243,251.703C243,251.703 265.97,279.012 266.513,280.25C267.327,282.105 268.422,282.553 272.75,282.802L278,283.105L278,233L268,233L268,264.21C268,264.21 246.889,239.278 245.415,237.051C242.835,233.153 242.532,233 237.367,233L232,233L232,258M342.706,235.25C342.425,236.488 333.938,280.066 333.984,282.25C333.993,282.663 336.466,283 339.481,283C345.858,283 345.037,284.786 347.644,265.25C349.045,254.756 351,247.578 351,252.929C351,253.439 362.45,276.593 364.35,282.25C365.874,286.789 367.876,284.185 375.494,267.75C384.094,249.198 384.375,249.205 385.967,268L387.238,283L398,283C398,283 392,238.625 392,233.741C392,233.333 381.5,233.08 381.5,233.08L377.821,241.29C375.798,245.806 373.004,252.101 371.613,255.28C366.587,266.764 366.929,267.039 357.935,244.274L353.5,233.048L348.358,233.024C343.835,233.003 343.155,233.27 342.706,235.25M410,283L421,283L421,233L410,233M77.365,241.073C84.61,246.772 79.668,255 69,255L62,255L62,239L68.365,239C73.29,239 75.326,239.469 77.365,241.073M114.365,241.073C121.61,246.772 116.668,255 106,255L99,255L99,239C99,239 112.326,239.469 114.365,241.073M160.59,246.055C173.43,253.991 167.14,270.673 150.574,272.62L145,273.275L145,242.722L150.975,243.264C154.633,243.596 158.361,244.678 160.59,246.055M30.498,249.047C30.918,250.396 37.029,263 37.029,263L19.253,263L23.273,253.576C27.448,243.791 28.634,243.047 30.498,249.047"/>
    </g>
</svg>
