<svg id="svg" version="1.1" width="515" height="515" xmlns="http://www.w3.org/2000/svg" xmlns:xlink="http://www.w3.org/1999/xlink" style="display: block;"><g id="svgg"><path id="path0" d="M24.380 236.246 C 20.501 245.862,15.514 256.487,14.404 257.500 C 13.802 258.050,12.719 260.075,11.999 262.000 C 11.279 263.925,8.960 268.891,6.845 273.036 C 2.028 282.476,2.011 283.206,6.607 282.810 C 9.893 282.528,10.372 282.081,11.995 277.791 C 14.860 270.214,15.308 270.000,28.293 270.000 L 39.728 270.000 41.447 274.500 C 42.392 276.975,43.578 279.000,44.083 279.000 C 44.587 279.000,45.000 279.900,45.000 281.000 C 45.000 282.667,45.667 283.000,49.000 283.000 C 51.200 283.000,53.000 282.670,53.000 282.266 C 53.000 281.088,44.615 263.610,43.462 262.385 C 42.885 261.772,41.532 259.105,40.456 256.459 C 35.712 244.790,29.044 231.479,27.827 231.246 C 27.052 231.097,25.618 233.178,24.380 236.246 M304.869 235.250 C 302.828 240.622,294.683 258.334,293.948 259.000 C 293.019 259.841,283.000 280.857,283.000 281.964 C 283.000 284.189,289.019 283.080,289.929 280.686 C 290.413 279.414,292.637 276.412,294.871 274.016 C 297.106 271.620,299.633 268.187,300.487 266.387 C 302.448 262.254,306.599 258.925,308.814 259.708 C 310.974 260.472,314.000 263.062,314.000 264.147 C 314.000 265.441,323.253 278.000,324.206 278.000 C 324.670 278.000,325.477 279.125,326.000 280.500 C 326.897 282.859,333.000 284.399,333.000 282.266 C 333.000 281.122,324.634 263.631,323.506 262.418 C 322.953 261.822,321.310 258.672,319.856 255.418 C 318.402 252.163,315.506 245.675,313.422 241.000 C 310.008 233.343,308.539 231.062,306.992 231.015 C 306.713 231.007,305.758 232.912,304.869 235.250 M448.821 232.402 C 446.797 233.124,444.432 234.425,443.565 235.292 C 442.698 236.159,441.142 237.137,440.109 237.466 C 437.735 238.219,433.258 244.614,431.977 249.080 C 425.438 271.880,444.435 290.051,467.395 282.960 L 474.000 280.920 474.000 275.460 C 474.000 269.246,472.946 268.684,466.926 271.687 C 455.850 277.212,442.018 271.730,442.004 261.809 C 442.002 260.329,441.543 258.835,440.984 258.490 C 440.425 258.144,440.306 257.330,440.720 256.681 C 441.134 256.031,442.154 253.512,442.986 251.081 C 445.856 242.703,455.691 239.558,465.480 243.888 C 472.447 246.970,473.002 246.775,472.985 241.250 C 472.965 235.076,472.519 234.520,466.068 232.609 C 459.574 230.685,453.821 230.616,448.821 232.402 M488.020 233.689 C 476.124 239.878,477.248 255.551,489.940 260.477 C 506.651 266.962,504.445 277.710,487.541 272.161 C 483.920 270.973,480.742 270.000,480.479 270.000 C 480.216 270.000,480.000 272.443,480.000 275.429 L 480.000 280.858 485.404 282.429 C 511.261 289.946,523.444 265.901,499.326 254.954 C 493.129 252.142,491.000 249.877,491.000 246.101 C 491.000 242.091,499.654 240.528,505.364 243.506 C 506.940 244.328,508.627 245.000,509.114 245.000 C 510.485 245.000,510.183 234.231,508.787 233.369 C 505.944 231.611,491.588 231.833,488.020 233.689 M55.850 256.500 C 55.768 269.425,55.655 280.563,55.600 281.250 C 55.538 282.031,56.813 282.500,59.000 282.500 L 62.500 282.500 62.172 271.750 L 61.843 261.000 67.672 260.994 C 80.230 260.982,86.000 256.847,86.000 247.858 C 86.000 236.607,81.354 233.000,66.864 233.000 L 56.000 233.000 55.850 256.500 M93.833 256.000 C 93.742 268.650,93.629 279.788,93.583 280.750 C 93.522 282.046,94.278 282.500,96.500 282.500 L 99.500 282.500 99.172 271.750 L 98.843 261.000 104.479 261.000 C 118.007 261.000,124.012 256.898,123.985 247.673 C 123.969 241.927,122.496 238.255,119.542 236.598 C 118.465 235.994,116.971 234.938,116.221 234.250 C 115.312 233.417,111.377 233.000,104.429 233.000 L 94.000 233.000 93.833 256.000 M135.000 258.000 L 135.000 283.000 145.134 283.000 C 154.810 283.000,161.856 281.764,164.911 279.531 C 169.906 275.879,174.965 269.706,175.559 266.537 C 175.924 264.592,176.623 263.000,177.111 263.000 C 177.600 263.000,178.000 260.750,178.000 258.000 C 178.000 255.250,177.550 253.000,177.000 253.000 C 176.450 253.000,176.000 251.938,176.000 250.640 C 176.000 246.109,168.930 237.676,164.010 236.339 C 162.640 235.967,160.921 235.064,160.188 234.331 C 159.229 233.372,155.527 233.000,146.929 233.000 L 135.000 233.000 135.000 258.000 M176.716 233.618 C 176.376 233.957,178.224 237.445,180.823 241.368 C 183.422 245.290,186.138 249.666,186.858 251.090 C 187.578 252.515,189.480 255.215,191.084 257.090 C 195.880 262.698,197.000 266.079,197.000 274.953 L 197.000 283.105 202.240 282.802 L 207.480 282.500 207.490 273.500 L 207.500 264.500 212.250 257.240 C 214.863 253.247,217.000 249.600,217.000 249.136 C 217.000 248.672,218.064 247.144,219.364 245.741 C 222.800 242.034,225.636 237.826,226.436 235.250 C 227.383 232.199,215.418 231.707,214.287 234.750 C 213.281 237.454,206.808 247.000,205.980 247.000 C 205.574 247.000,204.679 248.360,203.991 250.021 C 202.067 254.666,201.527 254.451,197.406 247.404 C 195.295 243.794,192.616 239.864,191.454 238.670 C 190.292 237.477,189.053 235.713,188.702 234.750 C 188.064 233.003,178.257 232.077,176.716 233.618 M232.000 258.000 L 232.000 283.000 237.500 283.000 L 243.000 283.000 243.000 267.351 L 243.000 251.703 248.979 258.101 C 252.267 261.621,254.967 264.876,254.979 265.334 C 255.006 266.408,264.096 278.000,264.910 278.000 C 265.249 278.000,265.970 279.012,266.513 280.250 C 267.327 282.105,268.422 282.553,272.750 282.802 L 278.000 283.105 278.000 258.052 L 278.000 233.000 273.000 233.000 L 268.000 233.000 268.000 248.605 L 268.000 264.210 265.433 261.855 C 264.022 260.560,260.453 256.125,257.502 252.000 C 254.552 247.875,251.228 243.735,250.117 242.801 C 249.005 241.866,246.889 239.278,245.415 237.051 C 242.835 233.153,242.532 233.000,237.367 233.000 L 232.000 233.000 232.000 258.000 M342.706 235.250 C 342.425 236.488,341.399 242.675,340.425 249.000 C 339.452 255.325,338.369 260.725,338.018 261.000 C 337.476 261.426,333.938 280.066,333.984 282.250 C 333.993 282.663,336.466 283.000,339.481 283.000 C 345.858 283.000,345.037 284.786,347.644 265.250 C 349.045 254.756,351.000 247.578,351.000 252.929 C 351.000 253.439,351.594 254.452,352.319 255.179 C 353.427 256.288,362.450 276.593,364.350 282.250 C 365.874 286.789,367.876 284.185,375.494 267.750 C 384.094 249.198,384.375 249.205,385.967 268.000 L 387.238 283.000 392.619 283.000 L 398.000 283.000 398.000 278.583 C 398.000 276.154,397.603 274.017,397.117 273.833 C 396.462 273.586,392.000 238.625,392.000 233.741 C 392.000 233.333,389.637 233.018,386.750 233.040 L 381.500 233.080 377.821 241.290 C 375.798 245.806,373.004 252.101,371.613 255.280 C 366.587 266.764,366.929 267.039,357.935 244.274 L 353.500 233.048 348.358 233.024 C 343.835 233.003,343.155 233.270,342.706 235.250 M410.000 258.000 L 410.000 283.000 415.500 283.000 L 421.000 283.000 421.000 258.000 L 421.000 233.000 415.500 233.000 L 410.000 233.000 410.000 258.000 M77.365 241.073 C 84.610 246.772,79.668 255.000,69.000 255.000 L 62.000 255.000 62.000 247.000 L 62.000 239.000 68.365 239.000 C 73.290 239.000,75.326 239.469,77.365 241.073 M114.365 241.073 C 121.610 246.772,116.668 255.000,106.000 255.000 L 99.000 255.000 99.000 247.000 L 99.000 239.000 105.365 239.000 C 110.290 239.000,112.326 239.469,114.365 241.073 M160.590 246.055 C 173.430 253.991,167.140 270.673,150.574 272.620 L 145.000 273.275 145.000 257.999 L 145.000 242.722 150.975 243.264 C 154.633 243.596,158.361 244.678,160.590 246.055 M30.498 249.047 C 30.918 250.396,32.559 254.088,34.145 257.250 L 37.029 263.000 28.141 263.000 L 19.253 263.000 23.273 253.576 C 27.448 243.791,28.634 243.047,30.498 249.047 " stroke="none" fill="#000000" fill-rule="evenodd"></path></g></svg>