<svg version="1.1" width="400" height="400" xmlns="http://www.w3.org/2000/svg">
<g>
<path d="M263.000 32.982 C 248.806 36.118,231.348 43.232,226.296 47.939 C 225.258 48.906,223.859 49.880,223.187 50.104 C 221.229 50.757,207.000 65.268,207.000 66.612 C 207.000 67.284,206.646 67.983,206.213 68.167 C 204.927 68.711,200.425 77.092,198.244 83.004 C 196.355 88.120,195.591 95.023,195.881 104.354 L 196.000 108.208 204.250 107.537 C 215.148 106.650,236.000 99.604,236.000 96.809 C 236.000 96.364,236.488 96.000,237.084 96.000 C 239.275 96.000,250.186 86.490,255.341 80.088 C 265.238 67.796,269.370 56.503,269.451 41.516 C 269.505 31.613,269.461 31.555,263.000 32.982 M133.000 107.605 C 62.277 119.522,29.606 197.721,62.019 277.500 C 82.191 327.150,126.314 370.597,153.376 367.456 C 159.396 366.758,166.384 364.535,177.500 359.784 C 197.149 351.385,216.203 351.526,236.500 360.219 C 257.489 369.209,267.954 369.656,282.913 362.198 C 288.563 359.382,307.000 342.621,307.000 340.302 C 307.000 339.586,307.403 339.000,307.896 339.000 C 308.390 339.000,310.428 336.637,312.426 333.750 C 318.447 325.050,328.588 309.601,329.328 308.000 C 329.710 307.175,330.899 305.150,331.971 303.500 C 334.614 299.432,342.865 282.386,343.591 279.495 C 344.192 277.098,341.888 275.000,338.654 275.000 C 336.180 275.000,323.785 267.337,318.898 262.786 C 296.637 242.055,290.431 207.841,304.194 181.716 C 307.075 176.246,320.316 161.022,322.206 161.006 C 322.594 161.003,324.516 159.911,326.478 158.580 C 328.439 157.249,333.184 154.927,337.022 153.422 C 340.860 151.916,344.000 150.121,344.000 149.434 C 344.000 148.030,336.568 138.844,332.293 134.965 C 327.983 131.054,320.235 125.000,319.539 125.000 C 319.196 125.000,318.372 124.544,317.708 123.986 C 295.014 104.932,262.523 102.190,232.000 116.752 C 212.131 126.232,206.188 127.070,191.500 122.467 C 183.371 119.919,182.569 119.622,175.500 116.525 C 162.154 110.678,141.049 106.249,133.000 107.605 " stroke="none" fill-rule="evenodd"></path>
</g>
</svg>