<svg width="100%" height="100%" viewBox="0 0 515 515" version="1.1" xmlns="http://www.w3.org/2000/svg" style="fill-rule:evenodd;clip-rule:evenodd;stroke-linejoin:round;stroke-miterlimit:2;">
    <g>
        <path d="M97.559,5C95.542,5.351 93.508,5.603 91.5,6C83.178,7.645 72.745,10.505 65.106,14C54.973,18.636 33.343,36.662 32,38.44C25.81,46.635 18.218,55.853 14,65.386C9.076,76.513 4.153,92.898 4,105C3.359,155.83 3.359,359.17 4,410C4.153,422.102 9.076,438.487 14,449.614C16.702,455.719 21.725,462.977 26,467.901C37.119,480.709 49.932,493.62 65.574,501C76.316,506.068 93.214,510.851 105,511C155.83,511.641 359.17,511.641 410,511C415.317,510.933 421.306,509.154 426.5,508C439.822,505.039 455.137,500.187 465.724,491C473.666,484.108 485.185,475.003 491,466.28C501.6,450.38 510.755,429.389 511,410C511.641,359.17 511.641,155.83 511,105C510.933,99.683 509.154,93.694 508,88.5C502.046,61.706 488.885,44.401 467.898,26C459.641,18.76 450.094,14.105 439.75,11.006C431.815,8.628 422.521,4.058 414.167,3.946M232.5,98C234.167,100.697 241.195,102.014 243.573,104.479C244.98,105.937 245.688,107.956 247,109.5C249.647,112.614 252.95,123.971 257.5,124C263.309,124.037 280.047,96.906 287,97C291.934,97.067 299.458,102.405 302.526,105.474L307,117.974C307,125.603 303.761,130.835 300,137C294.916,145.335 289.887,153.418 284.961,161.811C266.537,193.202 210,289.495 210,293.221L210,297L246,297C258.127,297 286.704,293.877 298.877,306.971C303.366,311.799 307,321.216 307,327.5C307,328.306 307.069,337.652 303.281,338.151C269.478,342.603 131.662,338.648 97,338C90.253,337.874 82.51,329.945 81,324C80.501,322.035 80,320.028 80,318C80,292.579 114.142,297.48 129.071,297C139.824,296.655 152.964,301.868 161.287,295.051C161.774,294.653 233.493,173.819 232.698,167.738C232.152,163.569 212.42,132.535 211,130C206.355,121.706 206.464,111.085 213.591,104.379C216.486,101.655 223.604,97 227.941,97C229.497,97 231.682,96.677 232.5,98M291.571,186.429C293.483,188.339 295.551,193.667 297,196C301.694,203.559 353.253,294.683 353.72,295.057C362.367,301.998 375.844,296.702 386.929,297C401.489,297.391 435,293.419 435,318C435,337.479 413.683,338.474 399.5,339C393.458,339.224 386.4,336.501 381.383,339.874C380.231,340.648 405.38,382.006 405.764,384.613C407.125,393.858 403.667,406.641 393,409C386.962,410.335 384.038,410.331 378,409C367.331,406.648 288.787,266.476 284.088,257C276.337,241.367 273.137,221.59 279,205C280.591,200.499 282.14,195.364 285,191.464C288.348,186.897 288.096,182.95 291.571,186.429M147,352C147,352 167.75,362.351 168,363.755C168.229,365.037 155.038,387.824 153,391.221C147.231,400.836 142.212,410.125 129.5,410.125C127.037,410.125 124.587,409.62 122.188,409.063C110.822,406.425 108.447,393.807 109.885,384.116C110.265,381.556 123.874,359.907 126,356.929C126.601,356.087 147,349.458 147,352"/>
    </g>
</svg>
