<?xml version="1.0" encoding="UTF-8" standalone="no"?>
<!DOCTYPE svg PUBLIC "-//W3C//DTD SVG 1.1//EN" "http://www.w3.org/Graphics/SVG/1.1/DTD/svg11.dtd">
<svg width="100%" height="100%" viewBox="0 0 515 515" version="1.1" xmlns="http://www.w3.org/2000/svg" xmlns:xlink="http://www.w3.org/1999/xlink" xml:space="preserve" xmlns:serif="http://www.serif.com/" style="fill-rule:evenodd;clip-rule:evenodd;stroke-linejoin:round;stroke-miterlimit:2;">
    <g id="svgg">
        <path id="path0" d="M222,96L218,98C216.503,98.832 212.067,101.976 211.892,102.167C205.731,108.915 206.351,119.786 207.889,128C209.858,138.517 219.552,150.067 225,159C227.814,163.613 231.007,166.126 229,172C225.638,181.842 217.831,189.871 213,199C204.96,214.192 195.658,228.356 187,243.221C183.092,249.931 180.014,257.088 176,263.779C172.607,269.433 169.678,275.536 166,281C163.815,284.246 160.445,288.024 159.65,292L159.05,295L127.025,295C115.178,295 93.571,291.127 83.288,302.701C77.096,309.67 77.279,319.366 79,328C79.828,332.153 84.967,334.011 87.967,337C89.388,338.416 92.984,339.963 95,340C130.162,340.648 165.332,340.867 200.5,341C231.187,341.116 261.876,340.996 292.562,340.745C297.079,340.708 303.035,342.407 306,339C308.172,336.504 307.999,327.692 308,327.5C308.093,314.107 301.584,303.034 289,298C275.493,292.597 264.295,295.473 247.5,295C235.667,294.667 223.818,294.685 212,294C211.529,293.973 212.739,293.392 213,293L215,289C217.051,285.124 220.055,281.89 222,278C228.312,265.376 235.734,252.889 243,240.779C255.55,219.862 267.437,198.718 280,177.779C283.035,172.721 284.926,167.039 288,162C293.451,153.062 298.93,144.262 303.892,135C306.598,129.949 310,124.011 310,118C310,101.785 294.492,92.786 280,96C276.113,96.862 273.475,100.618 270.611,103.383C267.95,105.952 263.915,110.169 262,114C261.346,115.308 258.665,121.915 257.25,121.584C255.593,121.196 255.891,118.451 255,117C251.968,112.063 248.608,105.418 244.481,101.433C240.75,97.829 233.464,95 228.5,95C226.308,95 222,93.808 222,96M287,183.133C287,184.236 285.736,184.942 285.16,185.883C282.376,190.428 279.687,194.939 278,200C273.7,212.9 273.563,225.345 275,239C275.618,244.87 278.526,249.793 280.955,255C286.656,267.219 293.89,278.55 301,290C313.237,309.708 323.079,330.911 335,350.779C341.736,362.005 350.021,372.938 355.47,384.821C362.224,399.551 374.364,418.138 392.779,412C405.875,407.635 410.172,396.613 407.079,383C405.298,375.163 399.091,366.598 395,359.779C392.404,355.452 389.277,351.554 387,347C386.574,346.148 384.018,342.829 385.367,341.876C390.038,338.577 396.786,341.224 402.5,341C409.276,340.734 419.023,341.45 426,338C440.207,330.976 440.908,309.894 429.292,301C426.713,299.025 423.466,296.2 420,296C409.375,295.387 398.731,295 388.088,295L356.176,295L355.53,291.179C354.5,285.086 346.89,277.461 344,272C334.097,253.287 323.198,235.034 312,217C305.805,207.023 301.571,195.762 295,186C293.732,184.116 292.707,182.066 290,182C288.931,181.974 287,182.064 287,183.133M130,350C130,350.613 128.976,350.676 128.455,351C125.114,353.079 123.165,354.704 121,358C117.265,363.687 113.668,370.168 111.077,376.452C110.153,378.692 108.509,380.649 107.921,383C104.868,395.214 110.059,408.121 122.452,412C123.13,412.212 129.497,414 130,414C133.205,414 137.852,411.775 140.498,410C142.452,408.688 148.445,404.831 150.208,403C151.357,401.806 152.091,398.735 153,397.221C156.787,390.909 160.74,384.519 164,378C167.249,371.501 174.034,365.199 167.06,358.254C165.86,357.06 164.153,356.518 162.705,355.641C155.373,351.203 148.486,349 139.5,349C136.316,349 130,346.816 130,350"/>
    </g>
</svg>
