<svg width="100%" height="100%" viewBox="0 0 515 515" version="1.1" xmlns="http://www.w3.org/2000/svg" style="fill-rule:evenodd;clip-rule:evenodd;stroke-linejoin:round;stroke-miterlimit:2;">
<g>
<path d="M428.969,182.029C427.185,183.696 425.9,185.215 426.113,185.406C426.326,185.598 428.497,186.762 430.937,187.993C433.378,189.224 435.953,190.742 436.66,191.366C437.367,191.99 439.703,193.85 441.851,195.5C443.999,197.15 446.824,200.043 448.128,201.928C449.433,203.813 450.95,205.856 451.5,206.467C452.601,207.689 455,211.739 455,212.374C455,212.595 404.921,232.5 404.921,232.5L405.21,237.5C405.491,242.342 405.623,242.54 409.394,243.771C411.535,244.47 454.972,261.513 454.986,262.079C455.084,266.141 441.772,279.927 433.182,284.659C429.507,286.683 426.306,288.494 426.068,288.684C425.831,288.874 427.121,290.561 428.935,292.433L432.233,295.835L435.866,293.818C445.213,288.628 457.049,277.181 460.988,269.523C463.541,264.56 463.66,264.499 467.703,266.125C469.241,266.743 497.4,277.58 498.5,278.055C503.407,280.177 504.483,279.731 504.798,275.445C505.048,272.043 504.726,271.212 502.798,270.29C499.287,268.61 471.992,258.185 470.15,257.387C467.123,256.077 466.881,255.674 467.65,253.218C468.729,249.768 468.735,224.49 467.657,220.491C466.867,217.559 466.97,217.446 471.673,216.073C474.328,215.298 500.69,205.165 503,204.033C504.522,203.287 505.557,197.894 504.638,195.499C504.133,194.183 499.044,195.369 494.237,197.922C493.282,198.429 463,209.876 463,208.947C463,204.006 447.708,187.221 438.297,181.831C432.337,178.418 432.846,178.407 428.969,182.029M14.062,270.986C10.85,279.53 11.069,280.159 17.124,279.802L22.248,279.5L27.759,262.5L51.812,261.94L55.292,257.97C59.534,253.13 59.413,253.135 60.835,257.75C61.47,259.813 67.724,279.5 67.724,279.5L72.993,279.807C78.08,280.103 78.24,280.033 77.592,277.807C77.223,276.538 49.62,191 49.62,191L40.242,191M184.644,191.717C174.49,193.269 167.827,201.993 167.626,214C167.433,225.52 169.746,228.988 185.813,241.27C203.818,255.032 194.776,277.907 174.654,269.5C169.804,267.474 170,267.307 170,273.453C170,286.468 197.026,282.698 204.957,268.576C209.599,260.311 207.467,244.493 200.972,239.02C196.754,235.466 195.315,234.342 192,232.014C190.075,230.663 187.38,228.532 186.01,227.278C184.641,226.025 183.228,225 182.87,225C179.363,225 177.362,213.171 179.995,208.009C183.294,201.543 188.28,200.051 198.25,202.545C200.978,203.228 201,203.193 201,198.176C201,195.394 200.662,192.926 200.25,192.69C198.973,191.962 187.657,191.256 184.644,191.717M309,235.5L309,280L320,280L320,232.905L322.74,230.366C328.537,224.992 335.355,223.7 340.701,226.96C346.611,230.563 347,232.448 347,257.5L347,280.1L358.5,279.5L358.406,255.5C358.29,226.018 357.302,222.505 347.594,217.053C340.927,213.308 326.447,214.696 321.6,219.543C320.133,221.009 320,219.885 320,206.071L320,191L309,191L309,235.5M378.667,199.667C378.3,200.033 378,216 378,216L375,216C372.111,216 372,216.167 372,220.5C372,224.828 372.114,225 374.984,225L377.968,225L378.5,279.5L389,280.105L389,225L406,225L406,216L389,216L389,199C389,199 379.033,199.3 378.667,199.667M52.482,231C53.961,235.675 58.859,252 58.859,252C58.859,252 30.84,251.867 31.491,250.25C31.878,249.287 41.322,219.475 42.042,217C45.062,206.623 44.552,205.939 52.482,231M106.5,216.605C104.3,217.373 101.713,218.278 100.75,218.617C99.787,218.956 98.55,221 98,221C97.45,221 97,219.875 97,218.5C97,216.167 96.667,216 92,216L87,216L87,280L97,280L97,237.247L100.75,233.269C105,228.761 111.69,225 115.46,225C117.841,225 118,224.688 118,220L118,215L114.25,215.105C112.188,215.163 108.7,215.838 106.5,216.605M140.333,218.042C119.698,228.051 114.755,254.694 130.555,270.75C132.855,273.087 135.246,275 135.868,275C136.491,275 137.787,277.039 138.75,277.372C153.85,282.598 155,282.504 155,276.039L155,271.077L150.75,269.997C126.545,263.844 125.331,233.744 148.99,226.368L154.983,224.5L155,215L150.75,215.026C148.115,215.041 144.157,216.188 140.333,218.042M257.557,217.047C239.466,226.073 239.578,251.67 257.75,260.885L262,263.041L262,275L267.162,275C279.588,275 288.065,286.421 283.589,297.134C280.699,304.05 271.356,309.238 265.685,307.074C261.286,305.396 261,305.659 261,311.386L261,316.773L265.348,317.425C290.274,321.163 305.651,289.683 287.336,272.41C283.81,269.085 276.189,265 273.511,265C270.562,265 272.061,263.3 276.221,261.927C288.027,258.031 296.361,240.017 290.995,229.991C290.165,228.441 290.47,227.885 292.745,226.799C295.161,225.645 295.537,224.838 295.802,220.242C296.16,214.04 295.346,213.73 288.605,217.493L284.138,219.987L279.174,217.493C272.825,214.304 263.442,214.111 257.557,217.047M221,280L232,280L232,216L221,216M459.862,226.667C461.318,233.919 461.305,240.468 459.821,247.174C458.351,253.812 458.765,253.437 454.831,251.699C452.999,250.89 419.256,238 418.314,238C415.651,238 417.986,236.502 423,234.994C425.475,234.249 457.775,221.103 458.112,221.066C458.449,221.03 459.236,223.55 459.862,226.667M275.445,226.966C280.696,230.211 283.431,236.986 281.729,242.531C278.18,254.096 263.937,256.34 256.444,246.515C247.705,235.058 263.028,219.292 275.445,226.966"/>
</g>
</svg>
