<svg id="svg" version="1.1" width="515" height="515" xmlns="http://www.w3.org/2000/svg" xmlns:xlink="http://www.w3.org/1999/xlink" style="display: block;"><g id="svgg"><path id="path0" d="M428.969 182.029 C 427.185 183.696,425.900 185.215,426.113 185.406 C 426.326 185.598,428.497 186.762,430.937 187.993 C 433.378 189.224,435.953 190.742,436.660 191.366 C 437.367 191.990,439.703 193.850,441.851 195.500 C 443.999 197.150,446.824 200.043,448.128 201.928 C 449.433 203.813,450.950 205.856,451.500 206.467 C 452.601 207.689,455.000 211.739,455.000 212.374 C 455.000 212.595,451.288 214.219,446.750 215.983 C 442.212 217.747,437.600 219.560,436.500 220.011 C 435.400 220.462,427.845 223.457,419.710 226.666 L 404.921 232.500 405.210 237.500 C 405.491 242.342,405.623 242.540,409.394 243.771 C 411.535 244.470,414.685 245.658,416.394 246.410 C 418.102 247.161,423.325 249.223,428.000 250.990 C 445.067 257.443,454.972 261.513,454.986 262.079 C 455.084 266.141,441.772 279.927,433.182 284.659 C 429.507 286.683,426.306 288.494,426.068 288.684 C 425.831 288.874,427.121 290.561,428.935 292.433 L 432.233 295.835 435.866 293.818 C 445.213 288.628,457.049 277.181,460.988 269.523 C 463.541 264.560,463.660 264.499,467.703 266.125 C 469.241 266.743,471.512 267.643,472.750 268.125 C 473.988 268.606,476.012 269.407,477.250 269.905 C 478.488 270.402,483.325 272.245,488.000 274.000 C 492.675 275.755,497.400 277.580,498.500 278.055 C 503.407 280.177,504.483 279.731,504.798 275.445 C 505.048 272.043,504.726 271.212,502.798 270.290 C 499.287 268.610,484.600 262.989,483.739 262.995 C 483.321 262.998,480.846 262.063,478.239 260.919 C 475.633 259.774,471.992 258.185,470.150 257.387 C 467.123 256.077,466.881 255.674,467.650 253.218 C 468.729 249.768,468.735 224.490,467.657 220.491 C 466.867 217.559,466.970 217.446,471.673 216.073 C 474.328 215.298,477.175 214.324,478.000 213.909 C 478.825 213.495,483.325 211.727,488.000 209.982 C 497.248 206.530,500.690 205.165,503.000 204.033 C 504.522 203.287,505.557 197.894,504.638 195.499 C 504.133 194.183,499.044 195.369,494.237 197.922 C 493.282 198.429,488.675 200.273,484.000 202.018 C 479.325 203.763,474.600 205.556,473.500 206.002 C 466.088 209.010,463.000 209.876,463.000 208.947 C 463.000 204.006,447.708 187.221,438.297 181.831 C 432.337 178.418,432.846 178.407,428.969 182.029 M34.498 208.750 C 31.339 218.512,26.625 233.025,24.022 241.000 C 21.419 248.975,18.577 257.750,17.707 260.500 C 16.837 263.250,15.196 267.969,14.062 270.986 C 10.850 279.530,11.069 280.159,17.124 279.802 L 22.248 279.500 25.003 271.000 L 27.759 262.500 39.785 262.220 L 51.812 261.940 55.292 257.970 C 59.534 253.130,59.413 253.135,60.835 257.750 C 61.470 259.813,63.280 265.550,64.857 270.500 L 67.724 279.500 72.993 279.807 C 78.080 280.103,78.240 280.033,77.592 277.807 C 77.223 276.538,76.753 274.783,76.548 273.906 C 76.343 273.029,74.388 266.954,72.204 260.406 C 70.020 253.858,64.985 238.375,61.014 226.000 C 57.043 213.625,52.855 200.688,51.707 197.250 L 49.620 191.000 44.931 191.000 L 40.242 191.000 34.498 208.750 M184.644 191.717 C 174.490 193.269,167.827 201.993,167.626 214.000 C 167.433 225.520,169.746 228.988,185.813 241.270 C 203.818 255.032,194.776 277.907,174.654 269.500 C 169.804 267.474,170.000 267.307,170.000 273.453 C 170.000 286.468,197.026 282.698,204.957 268.576 C 209.599 260.311,207.467 244.493,200.972 239.020 C 196.754 235.466,195.315 234.342,192.000 232.014 C 190.075 230.663,187.380 228.532,186.010 227.278 C 184.641 226.025,183.228 225.000,182.870 225.000 C 179.363 225.000,177.362 213.171,179.995 208.009 C 183.294 201.543,188.280 200.051,198.250 202.545 C 200.978 203.228,201.000 203.193,201.000 198.176 C 201.000 195.394,200.662 192.926,200.250 192.690 C 198.973 191.962,187.657 191.256,184.644 191.717 M309.000 235.500 L 309.000 280.000 314.500 280.000 L 320.000 280.000 320.000 256.452 L 320.000 232.905 322.740 230.366 C 328.537 224.992,335.355 223.700,340.701 226.960 C 346.611 230.563,347.000 232.448,347.000 257.500 L 347.000 280.100 352.750 279.800 L 358.500 279.500 358.406 255.500 C 358.290 226.018,357.302 222.505,347.594 217.053 C 340.927 213.308,326.447 214.696,321.600 219.543 C 320.133 221.009,320.000 219.885,320.000 206.071 L 320.000 191.000 314.500 191.000 L 309.000 191.000 309.000 235.500 M378.667 199.667 C 378.300 200.033,378.000 203.858,378.000 208.167 L 378.000 216.000 375.000 216.000 C 372.111 216.000,372.000 216.167,372.000 220.500 C 372.000 224.828,372.114 225.000,374.984 225.000 L 377.968 225.000 378.234 252.250 L 378.500 279.500 383.750 279.802 L 389.000 280.105 389.000 252.552 L 389.000 225.000 397.500 225.000 L 406.000 225.000 406.000 220.500 L 406.000 216.000 397.500 216.000 L 389.000 216.000 389.000 207.500 L 389.000 199.000 384.167 199.000 C 381.508 199.000,379.033 199.300,378.667 199.667 M52.482 231.000 C 53.961 235.675,56.001 242.313,57.015 245.750 L 58.859 252.000 44.822 252.000 C 31.853 252.000,30.840 251.867,31.491 250.250 C 31.878 249.287,33.315 244.900,34.684 240.500 C 36.053 236.100,37.973 230.025,38.952 227.000 C 39.931 223.975,41.322 219.475,42.042 217.000 C 45.062 206.623,44.552 205.939,52.482 231.000 M106.500 216.605 C 104.300 217.373,101.713 218.278,100.750 218.617 C 99.787 218.956,99.000 219.631,99.000 220.117 C 99.000 220.602,98.550 221.000,98.000 221.000 C 97.450 221.000,97.000 219.875,97.000 218.500 C 97.000 216.167,96.667 216.000,92.000 216.000 L 87.000 216.000 87.000 248.000 L 87.000 280.000 92.000 280.000 L 97.000 280.000 97.000 258.624 L 97.000 237.247 100.750 233.269 C 105.000 228.761,111.690 225.000,115.460 225.000 C 117.841 225.000,118.000 224.688,118.000 220.000 L 118.000 215.000 114.250 215.105 C 112.188 215.163,108.700 215.838,106.500 216.605 M140.333 218.042 C 119.698 228.051,114.755 254.694,130.555 270.750 C 132.855 273.087,135.246 275.000,135.868 275.000 C 136.491 275.000,137.000 275.398,137.000 275.883 C 137.000 276.369,137.787 277.039,138.750 277.372 C 153.850 282.598,155.000 282.504,155.000 276.039 L 155.000 271.077 150.750 269.997 C 126.545 263.844,125.331 233.744,148.990 226.368 L 154.983 224.500 154.991 219.750 L 155.000 215.000 150.750 215.026 C 148.115 215.041,144.157 216.188,140.333 218.042 M257.557 217.047 C 239.466 226.073,239.578 251.670,257.750 260.885 L 262.000 263.041 262.000 269.020 L 262.000 275.000 267.162 275.000 C 279.588 275.000,288.065 286.421,283.589 297.134 C 280.699 304.050,271.356 309.238,265.685 307.074 C 261.286 305.396,261.000 305.659,261.000 311.386 L 261.000 316.773 265.348 317.425 C 290.274 321.163,305.651 289.683,287.336 272.410 C 283.810 269.085,276.189 265.000,273.511 265.000 C 270.562 265.000,272.061 263.300,276.221 261.927 C 288.027 258.031,296.361 240.017,290.995 229.991 C 290.165 228.441,290.470 227.885,292.745 226.799 C 295.161 225.645,295.537 224.838,295.802 220.242 C 296.160 214.040,295.346 213.730,288.605 217.493 L 284.138 219.987 279.174 217.493 C 272.825 214.304,263.442 214.111,257.557 217.047 M221.000 248.000 L 221.000 280.000 226.500 280.000 L 232.000 280.000 232.000 248.000 L 232.000 216.000 226.500 216.000 L 221.000 216.000 221.000 248.000 M459.862 226.667 C 461.318 233.919,461.305 240.468,459.821 247.174 C 458.351 253.812,458.765 253.437,454.831 251.699 C 452.999 250.890,449.025 249.321,446.000 248.213 C 432.180 243.151,423.359 239.770,421.764 238.922 C 420.809 238.415,419.256 238.000,418.314 238.000 C 415.651 238.000,417.986 236.502,423.000 234.994 C 425.475 234.249,427.950 233.328,428.500 232.946 C 429.050 232.565,432.200 231.303,435.500 230.143 C 438.800 228.983,445.100 226.481,449.500 224.583 C 453.900 222.686,457.775 221.103,458.112 221.066 C 458.449 221.030,459.236 223.550,459.862 226.667 M275.445 226.966 C 280.696 230.211,283.431 236.986,281.729 242.531 C 278.180 254.096,263.937 256.340,256.444 246.515 C 247.705 235.058,263.028 219.292,275.445 226.966 " stroke="none" fill="#000000" fill-rule="evenodd"></path></g></svg>