<svg xmlns="http://www.w3.org/2000/svg" width="400" height="400" viewBox="0, 0, 400,400" version="1.1">
<g>
<path d="M37.358 162.338 C 37.319 162.375,35.929 162.496,34.269 162.607 C 32.609 162.719,31.114 162.885,30.945 162.977 C 30.776 163.070,30.174 163.195,29.608 163.256 C 29.041 163.317,28.531 163.443,28.474 163.535 C 28.417 163.627,28.193 163.701,27.977 163.701 C 27.500 163.700,25.432 164.361,23.989 164.976 C 23.792 165.060,23.226 165.286,22.731 165.477 C 22.237 165.668,21.590 165.953,21.294 166.110 C 20.997 166.267,20.654 166.395,20.530 166.396 C 20.407 166.397,20.305 166.460,20.305 166.537 C 20.305 166.615,20.083 166.772,19.811 166.888 C 19.045 167.214,16.505 168.752,16.173 169.091 C 16.123 169.141,15.678 169.457,15.184 169.794 C 14.690 170.130,14.205 170.494,14.106 170.602 C 14.007 170.711,13.445 171.204,12.857 171.698 C 11.500 172.838,10.394 173.944,9.254 175.301 C 8.760 175.889,8.267 176.451,8.158 176.550 C 8.050 176.649,7.686 177.134,7.350 177.628 C 7.014 178.122,6.697 178.567,6.647 178.616 C 6.308 178.949,4.771 181.489,4.444 182.255 C 4.329 182.527,4.171 182.749,4.094 182.749 C 4.016 182.749,3.953 182.850,3.952 182.974 C 3.952 183.097,3.823 183.441,3.666 183.738 C 3.509 184.034,3.224 184.681,3.033 185.175 C 2.842 185.669,2.617 186.235,2.532 186.433 C 1.917 187.876,1.256 189.943,1.257 190.421 C 1.257 190.637,1.183 190.861,1.091 190.918 C 0.999 190.974,0.874 191.485,0.812 192.051 C 0.751 192.618,0.626 193.220,0.534 193.388 C 0.034 194.304,-0.081 202.370,0.362 205.483 C 0.653 207.530,1.401 210.792,1.636 211.042 C 1.725 211.136,1.797 211.349,1.797 211.514 C 1.797 211.792,2.567 213.879,3.162 215.211 C 3.301 215.523,3.414 215.866,3.414 215.975 C 3.414 216.084,3.489 216.173,3.580 216.173 C 3.671 216.173,3.798 216.415,3.863 216.712 C 3.929 217.008,4.039 217.251,4.108 217.251 C 4.177 217.251,4.328 217.473,4.442 217.745 C 4.556 218.017,4.897 218.643,5.198 219.137 C 5.499 219.632,5.803 220.157,5.874 220.305 C 5.944 220.454,6.067 220.656,6.147 220.755 C 6.227 220.854,6.798 221.622,7.417 222.462 C 9.273 224.983,11.816 227.654,13.836 229.203 C 14.479 229.696,15.045 230.142,15.094 230.195 C 15.357 230.475,18.821 232.704,18.994 232.704 C 19.106 232.704,19.224 232.767,19.257 232.844 C 19.346 233.049,22.734 234.681,23.071 234.681 C 23.230 234.681,23.360 234.761,23.360 234.859 C 23.360 234.956,23.684 235.088,24.079 235.151 C 24.474 235.214,24.798 235.328,24.798 235.403 C 24.798 235.478,25.091 235.594,25.449 235.662 C 25.807 235.729,26.232 235.854,26.392 235.939 C 26.687 236.095,27.322 236.266,29.470 236.769 C 34.510 237.948,40.821 237.951,45.642 236.776 C 46.285 236.619,47.215 236.398,47.709 236.284 C 48.203 236.170,48.688 236.015,48.787 235.939 C 48.886 235.863,49.247 235.741,49.590 235.667 C 49.932 235.594,50.337 235.467,50.488 235.386 C 50.640 235.304,51.087 235.105,51.482 234.943 C 51.878 234.781,52.534 234.494,52.940 234.305 C 53.346 234.117,53.764 233.962,53.868 233.962 C 53.973 233.962,54.085 233.902,54.118 233.827 C 54.151 233.753,54.501 233.531,54.897 233.333 C 55.292 233.136,55.696 232.914,55.795 232.841 C 55.894 232.767,56.662 232.210,57.502 231.603 C 58.342 230.995,59.565 229.945,60.220 229.270 L 61.409 228.042 61.714 229.070 C 62.535 231.841,64.464 234.288,66.667 235.353 C 68.690 236.331,73.558 236.500,74.502 235.624 C 75.529 234.673,75.472 236.728,75.472 200.647 C 75.472 165.036,75.505 166.385,74.599 165.545 L 74.146 165.125 68.380 165.177 C 61.058 165.243,61.456 164.998,61.456 169.452 L 61.456 172.172 60.782 171.386 C 60.411 170.954,59.678 170.241,59.152 169.801 C 58.627 169.362,58.059 168.875,57.891 168.720 C 57.348 168.218,55.087 166.757,54.854 166.757 C 54.729 166.757,54.627 166.677,54.627 166.580 C 54.627 166.483,54.425 166.353,54.178 166.291 C 53.931 166.229,53.729 166.106,53.729 166.018 C 53.729 165.930,53.628 165.858,53.504 165.857 C 53.381 165.856,53.037 165.728,52.740 165.571 C 52.444 165.414,51.797 165.129,51.303 164.938 C 50.809 164.747,50.243 164.523,50.045 164.440 C 49.211 164.091,47.860 163.700,47.495 163.701 C 47.278 163.701,47.055 163.627,46.998 163.535 C 46.941 163.443,46.431 163.317,45.864 163.256 C 45.297 163.195,44.695 163.069,44.526 162.977 C 44.356 162.884,42.860 162.724,41.201 162.622 C 39.542 162.520,38.015 162.399,37.807 162.353 C 37.600 162.308,37.398 162.301,37.358 162.338 M115.184 162.473 C 112.126 162.725,109.553 163.105,108.176 163.510 C 107.830 163.611,107.022 163.849,106.379 164.039 C 105.737 164.228,104.736 164.594,104.156 164.851 C 103.575 165.108,102.989 165.319,102.853 165.319 C 102.717 165.319,102.606 165.393,102.606 165.484 C 102.606 165.575,102.363 165.703,102.066 165.768 C 101.770 165.833,101.527 165.961,101.527 166.052 C 101.527 166.143,101.426 166.217,101.301 166.217 C 101.034 166.217,98.271 168.073,97.408 168.833 C 94.945 171.000,93.316 173.262,91.980 176.370 C 91.625 177.196,91.105 179.057,91.105 179.502 C 91.105 179.766,91.023 180.065,90.922 180.166 C 90.651 180.436,90.500 185.324,90.717 186.792 C 90.978 188.554,91.291 189.995,91.460 190.207 C 91.538 190.305,91.659 190.649,91.728 190.970 C 91.796 191.292,91.927 191.554,92.018 191.554 C 92.109 191.554,92.183 191.676,92.183 191.825 C 92.183 192.207,93.473 194.455,94.053 195.084 C 94.161 195.201,94.448 195.556,94.690 195.872 C 95.322 196.696,97.218 198.531,97.799 198.881 C 98.071 199.045,98.293 199.236,98.293 199.305 C 98.293 199.411,98.861 199.801,100.479 200.803 C 101.832 201.641,103.710 202.553,105.481 203.232 C 106.321 203.554,107.146 203.887,107.315 203.972 C 107.483 204.057,107.950 204.179,108.352 204.243 C 108.754 204.307,109.123 204.425,109.173 204.506 C 109.222 204.586,109.645 204.707,110.112 204.774 C 110.579 204.842,111.042 204.959,111.141 205.034 C 111.240 205.109,111.685 205.229,112.129 205.301 C 112.574 205.373,113.019 205.483,113.118 205.546 C 113.217 205.608,113.742 205.762,114.286 205.889 C 115.341 206.134,115.951 206.291,117.520 206.719 C 118.064 206.868,118.872 207.080,119.317 207.190 C 119.762 207.301,120.257 207.462,120.418 207.547 C 120.579 207.632,121.004 207.757,121.364 207.825 C 121.723 207.892,122.061 208.019,122.115 208.107 C 122.169 208.194,122.334 208.266,122.482 208.266 C 122.726 208.266,123.085 208.408,125.067 209.291 C 128.721 210.917,130.486 213.610,129.932 216.711 C 129.808 217.403,129.642 218.008,129.563 218.057 C 129.484 218.106,129.371 218.342,129.311 218.581 C 129.209 218.985,128.943 219.359,128.032 220.378 C 127.835 220.599,127.228 221.109,126.685 221.511 C 125.822 222.150,125.349 222.400,123.540 223.174 C 120.962 224.277,114.958 224.412,110.692 223.464 C 108.836 223.051,107.929 222.808,107.614 222.642 C 107.453 222.556,107.029 222.431,106.671 222.364 C 106.313 222.297,106.020 222.170,106.020 222.082 C 106.020 221.995,105.909 221.923,105.773 221.923 C 105.485 221.923,103.193 220.934,102.156 220.363 C 101.761 220.145,101.074 219.780,100.629 219.552 C 100.184 219.324,99.713 219.036,99.583 218.913 C 99.452 218.789,99.267 218.688,99.171 218.688 C 99.075 218.688,98.777 218.485,98.510 218.237 C 96.874 216.719,95.641 217.039,93.886 219.440 C 93.246 220.315,92.722 221.073,92.722 221.125 C 92.722 221.177,92.638 221.317,92.534 221.436 C 92.431 221.556,91.949 222.219,91.465 222.911 C 90.980 223.603,90.502 224.262,90.404 224.377 C 89.144 225.836,88.828 227.327,89.554 228.395 C 89.940 228.963,93.112 231.269,93.916 231.567 C 94.100 231.634,94.290 231.740,94.340 231.801 C 94.537 232.046,100.092 234.681,100.411 234.681 C 100.508 234.681,100.819 234.802,101.103 234.949 C 101.386 235.097,101.794 235.218,102.011 235.219 C 102.227 235.220,102.450 235.294,102.506 235.384 C 102.562 235.474,102.951 235.605,103.370 235.674 C 103.790 235.744,104.214 235.852,104.313 235.914 C 104.697 236.156,108.665 236.979,110.512 237.199 C 116.788 237.947,120.140 237.878,124.618 236.907 C 126.247 236.553,127.780 236.136,128.128 235.951 C 128.280 235.871,128.663 235.748,128.980 235.678 C 129.296 235.609,129.602 235.477,129.658 235.386 C 129.715 235.295,129.889 235.220,130.046 235.220 C 130.310 235.220,132.423 234.238,133.243 233.734 C 134.319 233.072,136.153 231.849,136.538 231.536 C 137.767 230.538,139.878 228.369,140.473 227.493 C 140.843 226.950,141.187 226.465,141.237 226.415 C 141.413 226.244,141.767 225.600,142.422 224.259 C 142.784 223.518,143.149 222.773,143.235 222.604 C 143.320 222.436,143.442 221.971,143.506 221.571 C 143.570 221.172,143.682 220.845,143.755 220.845 C 144.502 220.845,144.505 210.739,143.759 209.793 C 143.681 209.695,143.557 209.333,143.484 208.991 C 143.411 208.648,143.290 208.244,143.215 208.092 C 143.141 207.941,142.895 207.412,142.669 206.918 C 141.688 204.768,139.598 202.194,137.591 200.662 C 137.308 200.446,136.982 200.186,136.867 200.084 C 135.964 199.282,132.931 197.605,130.189 196.391 C 129.295 195.996,126.449 194.978,124.978 194.527 C 124.088 194.255,123.222 193.961,123.054 193.875 C 122.885 193.788,122.400 193.664,121.976 193.600 C 121.551 193.535,121.123 193.421,121.024 193.348 C 120.925 193.274,120.481 193.127,120.036 193.022 C 119.591 192.917,118.742 192.699,118.149 192.539 C 117.556 192.379,116.707 192.168,116.262 192.070 C 115.818 191.973,115.292 191.821,115.094 191.734 C 114.897 191.647,114.455 191.520,114.112 191.452 C 113.769 191.384,113.365 191.269,113.213 191.196 C 112.715 190.956,111.689 190.616,111.186 190.525 C 110.914 190.476,110.692 190.364,110.692 190.276 C 110.692 190.188,110.591 190.116,110.467 190.116 C 110.202 190.115,107.931 188.969,107.538 188.638 C 104.867 186.388,104.065 182.794,105.781 180.759 C 105.912 180.603,106.020 180.400,106.020 180.308 C 106.020 179.663,108.994 177.556,110.961 176.807 C 115.017 175.264,123.020 175.780,127.044 177.845 C 127.291 177.971,127.628 178.076,127.793 178.076 C 127.957 178.077,128.119 178.138,128.152 178.212 C 128.185 178.286,128.576 178.532,129.021 178.758 C 129.931 179.221,130.202 179.381,131.352 180.137 C 132.597 180.956,133.881 180.908,134.653 180.015 C 135.571 178.953,135.849 178.557,135.849 178.310 C 135.849 178.182,135.920 178.077,136.007 178.077 C 136.094 178.077,136.474 177.592,136.852 176.999 C 137.230 176.406,137.603 175.921,137.682 175.921 C 137.761 175.921,137.826 175.840,137.826 175.742 C 137.826 175.643,138.169 175.088,138.589 174.508 C 139.009 173.929,139.474 173.272,139.623 173.048 C 139.771 172.825,140.004 172.526,140.140 172.384 C 140.551 171.957,140.619 170.561,140.262 169.896 C 139.953 169.324,137.115 167.296,136.622 167.296 C 136.493 167.296,136.388 167.221,136.388 167.130 C 136.388 167.039,136.146 166.911,135.849 166.846 C 135.553 166.781,135.310 166.660,135.310 166.577 C 135.310 166.494,135.067 166.372,134.771 166.307 C 134.474 166.242,134.232 166.133,134.232 166.066 C 134.232 165.998,133.807 165.794,133.288 165.612 C 132.770 165.431,132.102 165.179,131.806 165.053 C 131.132 164.766,129.969 164.380,128.571 163.978 C 127.978 163.808,127.251 163.598,126.954 163.511 C 126.658 163.425,125.930 163.300,125.337 163.234 C 124.744 163.168,124.172 163.046,124.067 162.963 C 123.961 162.881,122.546 162.729,120.922 162.625 C 119.298 162.521,117.767 162.410,117.520 162.377 C 117.273 162.344,116.222 162.387,115.184 162.473 M188.769 162.475 C 186.041 162.689,182.626 163.188,181.586 163.524 C 181.287 163.621,180.517 163.857,179.874 164.050 C 179.232 164.242,178.261 164.574,177.718 164.787 C 177.174 165.001,176.548 165.217,176.325 165.268 C 176.103 165.319,175.921 165.432,175.921 165.520 C 175.921 165.607,175.823 165.678,175.703 165.678 C 175.344 165.678,172.194 167.287,170.915 168.124 C 169.292 169.186,169.080 169.332,168.846 169.553 C 168.734 169.659,168.511 169.820,168.350 169.913 C 167.599 170.343,166.305 171.498,164.241 173.578 C 161.871 175.967,161.547 176.330,160.827 177.405 C 160.580 177.773,160.317 178.075,160.243 178.076 C 160.168 178.077,160.108 178.167,160.108 178.276 C 160.108 178.385,159.865 178.781,159.569 179.155 C 159.272 179.530,159.030 179.926,159.030 180.035 C 159.030 180.144,158.950 180.234,158.853 180.234 C 158.756 180.234,158.626 180.436,158.564 180.683 C 158.502 180.930,158.388 181.132,158.311 181.132 C 158.233 181.132,158.115 181.354,158.047 181.624 C 157.979 181.895,157.859 182.158,157.782 182.208 C 157.594 182.330,155.976 185.739,155.969 186.028 C 155.966 186.152,155.845 186.410,155.700 186.602 C 155.554 186.794,155.436 187.122,155.436 187.330 C 155.436 187.538,155.360 187.786,155.266 187.880 C 155.173 187.973,155.005 188.414,154.892 188.859 C 154.779 189.304,154.564 190.153,154.414 190.746 C 153.394 194.789,152.994 200.388,153.463 204.043 C 153.843 206.996,154.038 208.187,154.171 208.356 C 154.249 208.455,154.370 208.931,154.440 209.415 C 154.510 209.899,154.630 210.425,154.707 210.583 C 154.783 210.742,154.983 211.316,155.150 211.860 C 155.626 213.410,156.701 215.945,157.436 217.251 C 157.631 217.597,157.875 218.102,157.978 218.374 C 158.082 218.646,158.239 218.868,158.328 218.868 C 158.418 218.868,158.491 218.983,158.491 219.125 C 158.491 219.266,158.592 219.492,158.715 219.626 C 158.984 219.919,159.345 220.472,159.512 220.845 C 159.578 220.993,159.679 221.155,159.736 221.204 C 159.793 221.253,160.063 221.624,160.337 222.028 C 160.610 222.431,160.974 222.917,161.145 223.108 C 161.316 223.298,161.779 223.856,162.174 224.347 C 163.190 225.608,165.930 228.283,167.206 229.258 C 167.799 229.711,168.324 230.127,168.374 230.183 C 168.423 230.238,168.949 230.606,169.542 231.000 C 170.135 231.394,170.647 231.777,170.680 231.851 C 170.713 231.925,170.815 231.986,170.908 231.986 C 171.001 231.986,171.418 232.203,171.836 232.469 C 172.993 233.203,174.837 234.142,175.125 234.142 C 175.266 234.142,175.382 234.219,175.382 234.314 C 175.382 234.408,175.665 234.538,176.011 234.603 C 176.357 234.668,176.640 234.786,176.640 234.865 C 176.640 234.944,176.963 235.063,177.358 235.130 C 177.754 235.197,178.077 235.316,178.077 235.396 C 178.077 235.475,178.370 235.594,178.728 235.662 C 179.086 235.729,179.511 235.854,179.672 235.939 C 181.373 236.842,188.382 237.828,192.004 237.673 C 195.290 237.533,200.796 236.578,201.999 235.939 C 202.160 235.854,202.585 235.729,202.943 235.662 C 203.301 235.594,203.594 235.475,203.594 235.396 C 203.594 235.316,203.917 235.197,204.313 235.130 C 204.708 235.063,205.031 234.935,205.031 234.845 C 205.031 234.755,205.146 234.681,205.287 234.681 C 205.691 234.681,208.036 233.450,209.704 232.362 C 211.520 231.177,211.713 231.019,213.409 229.340 C 214.130 228.626,214.753 228.100,214.794 228.172 C 214.834 228.243,214.926 228.625,214.997 229.021 C 215.068 229.416,215.190 229.820,215.268 229.919 C 215.346 230.018,215.470 230.301,215.543 230.548 C 215.771 231.312,217.211 233.347,218.014 234.040 C 219.118 234.992,219.151 235.014,219.661 235.142 C 219.917 235.207,220.126 235.330,220.126 235.417 C 220.126 235.504,220.451 235.627,220.849 235.691 C 221.246 235.754,221.615 235.877,221.668 235.963 C 221.786 236.154,227.314 236.173,227.314 235.982 C 227.314 235.906,227.496 235.765,227.718 235.667 C 227.940 235.569,228.202 235.308,228.300 235.085 C 228.397 234.863,228.539 234.681,228.614 234.681 C 228.945 234.681,228.771 166.775,228.439 166.256 C 227.749 165.178,228.087 165.233,221.837 165.177 L 216.065 165.125 215.590 165.537 C 214.859 166.171,214.735 166.752,214.729 169.598 C 214.724 172.217,214.721 172.234,214.387 171.788 C 213.848 171.067,213.278 170.501,212.129 169.542 C 211.536 169.048,211.024 168.583,210.991 168.509 C 210.958 168.434,210.817 168.374,210.677 168.374 C 210.537 168.374,210.422 168.304,210.422 168.218 C 210.422 167.891,205.472 165.139,204.882 165.139 C 204.767 165.139,204.672 165.078,204.672 165.004 C 204.672 164.876,204.042 164.621,202.785 164.240 C 202.489 164.149,201.801 163.942,201.258 163.777 C 200.714 163.613,199.678 163.369,198.955 163.234 C 198.233 163.100,197.580 162.952,197.505 162.906 C 197.429 162.859,196.121 162.735,194.596 162.630 C 193.071 162.525,191.581 162.412,191.285 162.380 C 190.988 162.347,189.856 162.390,188.769 162.475 M360.198 162.470 C 356.334 162.799,352.562 163.460,351.213 164.043 C 351.015 164.129,350.348 164.350,349.730 164.534 C 349.113 164.719,348.607 164.924,348.607 164.990 C 348.607 165.056,348.359 165.165,348.056 165.232 C 347.753 165.298,347.288 165.466,347.023 165.604 C 346.758 165.743,346.440 165.856,346.316 165.857 C 346.193 165.858,346.092 165.930,346.092 166.018 C 346.092 166.106,345.870 166.234,345.599 166.302 C 345.328 166.370,345.066 166.480,345.015 166.546 C 344.965 166.613,344.560 166.852,344.115 167.078 C 343.670 167.304,343.145 167.587,342.947 167.707 C 342.193 168.164,340.068 169.543,339.982 169.630 C 339.933 169.680,339.488 170.045,338.994 170.440 C 338.500 170.835,337.900 171.320,337.662 171.518 C 337.155 171.939,333.869 175.230,333.598 175.587 C 332.816 176.621,332.134 177.474,331.967 177.626 C 331.623 177.942,330.099 180.332,330.099 180.557 C 330.099 180.676,330.023 180.773,329.931 180.773 C 329.839 180.773,329.707 180.955,329.637 181.177 C 329.568 181.399,329.459 181.622,329.396 181.671 C 329.164 181.852,327.044 186.360,327.044 186.672 C 327.044 186.765,326.923 187.073,326.776 187.356 C 326.628 187.639,326.507 188.048,326.506 188.264 C 326.505 188.481,326.431 188.704,326.341 188.759 C 326.251 188.815,326.120 189.204,326.051 189.624 C 325.982 190.043,325.863 190.467,325.786 190.566 C 325.709 190.665,325.593 191.190,325.527 191.734 C 325.461 192.278,325.336 192.884,325.249 193.082 C 324.961 193.736,324.527 198.079,324.539 200.180 C 324.553 202.724,325.414 209.020,325.802 209.425 C 325.892 209.519,325.966 209.728,325.966 209.889 C 325.966 210.246,326.618 212.431,326.983 213.297 C 327.129 213.643,327.311 214.088,327.388 214.286 C 327.778 215.287,329.821 219.227,329.950 219.227 C 330.032 219.227,330.099 219.329,330.099 219.454 C 330.099 219.681,331.446 221.787,332.149 222.658 C 332.356 222.915,332.767 223.437,333.064 223.819 C 336.221 227.885,345.386 234.681,347.713 234.681 C 347.908 234.681,348.068 234.755,348.068 234.846 C 348.068 234.937,348.331 235.068,348.652 235.137 C 348.973 235.205,349.317 235.318,349.416 235.386 C 349.591 235.507,351.651 236.152,352.920 236.484 C 358.475 237.935,364.747 238.032,370.350 236.754 C 372.564 236.249,373.376 236.028,373.510 235.894 C 373.584 235.820,373.773 235.759,373.929 235.758 C 374.086 235.757,374.445 235.636,374.729 235.489 C 375.012 235.341,375.323 235.220,375.420 235.220 C 375.605 235.220,376.140 234.992,378.077 234.086 C 379.456 233.441,382.570 231.472,382.570 231.245 C 382.570 231.158,382.671 231.087,382.795 231.087 C 382.993 231.087,385.064 229.149,385.803 228.272 C 386.058 227.970,386.074 227.972,386.125 228.308 C 386.258 229.176,387.197 231.476,387.466 231.596 C 387.540 231.629,387.601 231.755,387.601 231.876 C 387.601 232.409,389.595 234.451,390.627 234.976 C 390.989 235.160,391.327 235.366,391.379 235.435 C 391.839 236.043,397.858 236.361,398.845 235.829 C 400.100 235.153,400.000 238.229,400.000 200.448 L 400.000 166.361 399.389 165.750 L 398.778 165.139 393.106 165.139 L 387.434 165.139 386.799 165.697 L 386.164 166.255 386.164 169.222 L 386.164 172.190 384.944 170.956 C 383.124 169.115,380.132 166.778,379.575 166.762 C 379.459 166.759,379.338 166.686,379.305 166.600 C 379.065 165.973,371.423 163.163,369.959 163.163 C 369.667 163.163,369.275 163.081,369.088 162.981 C 368.901 162.881,367.471 162.719,365.911 162.621 C 364.350 162.523,362.830 162.415,362.534 162.380 C 362.237 162.345,361.186 162.385,360.198 162.470 M277.269 162.816 C 274.629 163.288,274.504 163.319,272.147 164.112 C 270.932 164.520,268.046 165.877,267.954 166.083 C 267.922 166.157,267.801 166.217,267.686 166.217 C 267.457 166.217,265.534 167.485,265.439 167.700 C 265.406 167.774,265.295 167.835,265.192 167.835 C 264.915 167.835,261.815 171.035,261.815 171.320 C 261.815 171.930,261.310 171.992,261.179 171.398 C 261.108 171.075,260.989 170.687,260.915 170.536 C 260.841 170.385,260.596 169.863,260.371 169.376 C 259.958 168.483,259.508 167.862,258.850 167.277 C 257.874 166.410,257.608 166.217,257.385 166.217 C 257.252 166.217,257.143 166.146,257.143 166.058 C 257.143 165.970,256.840 165.841,256.469 165.772 C 256.098 165.703,255.682 165.552,255.543 165.438 C 255.372 165.296,254.239 165.229,252.027 165.229 C 248.465 165.229,248.540 165.209,247.755 166.379 C 247.269 167.104,247.269 234.333,247.755 235.058 C 248.563 236.263,248.259 236.203,253.895 236.264 C 259.590 236.326,259.877 236.302,260.647 235.686 L 261.186 235.254 261.289 214.527 C 261.389 194.384,261.472 191.414,261.974 190.207 C 262.057 190.009,262.274 189.362,262.458 188.769 C 262.642 188.176,262.895 187.489,263.021 187.242 C 263.147 186.995,263.251 186.691,263.251 186.568 C 263.252 186.444,263.325 186.343,263.413 186.343 C 263.501 186.343,263.629 186.122,263.696 185.851 C 263.764 185.580,263.874 185.317,263.941 185.267 C 264.113 185.136,264.870 184.041,264.870 183.923 C 264.870 183.685,267.374 181.052,268.654 179.944 C 273.132 176.070,281.425 174.879,287.089 177.297 C 287.401 177.429,287.744 177.538,287.853 177.538 C 287.961 177.538,288.050 177.613,288.050 177.704 C 288.050 177.795,288.293 177.922,288.589 177.987 C 288.886 178.053,289.128 178.180,289.128 178.271 C 289.128 178.362,289.231 178.437,289.355 178.437 C 289.587 178.437,291.120 179.419,291.977 180.116 C 293.745 181.556,296.855 185.378,296.855 186.112 C 296.855 186.239,296.936 186.343,297.035 186.343 C 297.134 186.343,297.215 186.487,297.215 186.663 C 297.215 186.838,297.318 187.142,297.445 187.336 C 297.676 187.691,298.024 188.727,298.592 190.746 C 298.867 191.723,298.902 193.824,298.965 213.223 C 299.042 237.269,298.931 235.444,300.358 236.040 C 301.312 236.438,310.841 236.415,311.690 236.012 C 313.134 235.327,313.028 237.100,313.028 213.650 C 313.028 200.616,312.960 192.364,312.847 191.603 C 312.748 190.934,312.590 189.780,312.497 189.039 C 312.245 187.035,311.933 185.378,311.769 185.175 C 311.689 185.076,311.567 184.610,311.497 184.140 C 311.426 183.669,311.298 183.240,311.210 183.186 C 311.123 183.132,311.051 182.951,311.050 182.784 C 311.049 182.617,310.928 182.248,310.781 181.965 C 310.633 181.682,310.512 181.373,310.512 181.277 C 310.512 181.017,308.840 177.637,308.677 177.568 C 308.599 177.535,308.535 177.407,308.535 177.282 C 308.535 176.681,305.757 172.973,304.022 171.258 C 302.145 169.404,298.601 166.757,297.995 166.757 C 297.862 166.757,297.754 166.684,297.754 166.596 C 297.754 166.508,297.532 166.380,297.261 166.313 C 296.991 166.245,296.728 166.135,296.677 166.068 C 296.530 165.874,295.424 165.360,294.070 164.856 C 290.999 163.712,289.750 163.405,285.714 162.802 C 284.460 162.614,278.340 162.625,277.269 162.816 M41.869 176.210 C 42.709 176.369,43.528 176.566,43.689 176.647 C 43.849 176.728,44.287 176.852,44.660 176.922 C 45.034 176.992,45.549 177.159,45.805 177.293 C 46.062 177.427,46.413 177.536,46.586 177.537 C 46.759 177.538,46.900 177.613,46.900 177.704 C 46.900 177.795,47.143 177.922,47.439 177.987 C 47.736 178.053,47.978 178.174,47.978 178.257 C 47.978 178.340,48.221 178.461,48.518 178.527 C 48.814 178.592,49.057 178.719,49.057 178.810 C 49.057 178.901,49.171 178.976,49.311 178.976 C 49.813 178.976,52.988 181.470,54.430 182.995 C 54.884 183.477,55.478 184.106,55.750 184.394 C 56.022 184.682,56.244 184.989,56.244 185.077 C 56.244 185.164,56.319 185.262,56.410 185.295 C 56.662 185.387,58.724 188.742,58.859 189.282 C 58.925 189.543,59.051 189.757,59.139 189.757 C 59.227 189.757,59.299 189.904,59.299 190.082 C 59.299 190.261,59.418 190.564,59.563 190.756 C 59.708 190.948,59.829 191.255,59.833 191.437 C 59.836 191.620,59.952 192.024,60.090 192.336 C 60.345 192.907,60.724 194.389,61.092 196.250 C 61.202 196.807,61.292 198.494,61.292 200.000 C 61.292 201.506,61.202 203.193,61.092 203.750 C 60.600 206.235,60.107 208.010,59.562 209.254 C 58.896 210.774,58.760 211.122,58.760 211.303 C 58.760 211.412,58.679 211.500,58.580 211.500 C 58.482 211.500,58.401 211.586,58.401 211.690 C 58.401 212.266,55.929 215.598,54.272 217.255 C 52.365 219.162,50.451 220.561,48.248 221.655 C 47.853 221.852,47.489 222.058,47.439 222.114 C 47.390 222.169,46.824 222.400,46.181 222.626 C 45.539 222.851,44.852 223.104,44.654 223.188 C 41.694 224.437,33.462 224.348,30.312 223.032 C 30.034 222.916,29.729 222.821,29.635 222.821 C 29.542 222.821,29.325 222.745,29.153 222.652 C 28.981 222.560,28.235 222.193,27.493 221.838 C 25.661 220.959,24.575 220.306,23.675 219.542 C 23.472 219.369,23.244 219.227,23.170 219.227 C 22.990 219.227,19.227 215.469,19.227 215.289 C 19.227 215.212,19.067 214.955,18.871 214.718 C 18.146 213.838,17.931 213.508,17.070 211.950 C 16.074 210.147,15.634 209.216,15.632 208.912 C 15.632 208.804,15.522 208.506,15.388 208.249 C 15.254 207.993,15.088 207.478,15.017 207.104 C 14.947 206.730,14.821 206.293,14.736 206.132 C 13.606 203.993,14.017 194.872,15.382 191.797 C 15.520 191.485,15.633 191.106,15.633 190.954 C 15.633 190.802,15.705 190.633,15.793 190.578 C 15.881 190.524,16.009 190.257,16.077 189.986 C 16.145 189.714,16.255 189.450,16.322 189.400 C 16.388 189.349,16.685 188.829,16.981 188.244 C 17.278 187.658,17.783 186.834,18.104 186.412 C 18.425 185.991,18.688 185.601,18.688 185.547 C 18.688 185.114,22.814 181.047,24.169 180.144 C 24.762 179.748,25.288 179.385,25.337 179.335 C 25.386 179.286,25.831 179.043,26.325 178.796 C 26.819 178.549,27.251 178.286,27.284 178.212 C 27.317 178.138,27.438 178.075,27.553 178.071 C 27.668 178.068,28.086 177.909,28.482 177.718 C 28.877 177.527,29.326 177.368,29.479 177.365 C 29.632 177.361,29.834 177.289,29.928 177.204 C 30.116 177.033,30.971 176.791,33.154 176.290 C 35.097 175.844,39.719 175.801,41.869 176.210 M195.148 176.206 C 195.988 176.363,196.837 176.561,197.035 176.645 C 197.233 176.729,197.663 176.851,197.991 176.916 C 198.318 176.980,198.804 177.146,199.069 177.284 C 199.334 177.423,199.692 177.536,199.865 177.537 C 200.038 177.538,200.180 177.610,200.180 177.698 C 200.180 177.787,200.384 177.910,200.634 177.973 C 200.884 178.035,201.479 178.327,201.956 178.621 C 202.434 178.915,202.917 179.155,203.030 179.155 C 203.142 179.155,203.235 179.236,203.235 179.335 C 203.235 179.434,203.315 179.515,203.414 179.515 C 204.005 179.515,207.848 182.861,209.025 184.402 C 209.250 184.696,209.538 185.049,209.666 185.185 C 210.102 185.652,211.500 187.870,211.500 188.095 C 211.500 188.219,211.575 188.320,211.666 188.320 C 211.757 188.320,211.885 188.562,211.950 188.859 C 212.015 189.155,212.136 189.398,212.219 189.398 C 212.302 189.398,212.423 189.640,212.488 189.935 C 212.553 190.230,212.681 190.518,212.772 190.575 C 212.863 190.631,212.938 190.802,212.938 190.954 C 212.938 191.106,213.047 191.485,213.180 191.797 C 214.737 195.446,215.037 201.917,213.846 206.199 C 213.411 207.765,212.836 209.441,212.716 209.494 C 212.640 209.527,212.578 209.648,212.578 209.763 C 212.575 210.314,210.863 213.275,209.547 215.004 C 208.723 216.087,205.635 219.227,205.395 219.227 C 205.324 219.227,205.100 219.369,204.896 219.542 C 203.638 220.610,199.148 223.001,198.398 223.001 C 198.288 223.001,198.058 223.078,197.886 223.173 C 197.522 223.374,196.194 223.685,194.789 223.899 C 193.493 224.095,188.323 224.092,187.062 223.893 C 185.649 223.670,184.054 223.287,183.900 223.133 C 183.827 223.060,183.652 223.001,183.510 223.001 C 183.067 223.001,180.266 221.698,178.691 220.760 C 176.683 219.563,174.013 217.189,172.725 215.454 C 172.468 215.108,172.169 214.744,172.062 214.645 C 171.473 214.106,169.366 210.358,169.183 209.526 C 169.118 209.228,168.990 208.985,168.899 208.985 C 168.808 208.985,168.733 208.815,168.733 208.608 C 168.733 208.400,168.618 207.976,168.477 207.664 C 166.731 203.805,167.002 195.523,169.025 190.898 C 169.161 190.587,169.272 190.209,169.272 190.060 C 169.272 189.910,169.333 189.760,169.407 189.727 C 169.481 189.695,169.825 189.102,170.171 188.411 C 171.806 185.143,177.800 178.976,179.340 178.976 C 179.436 178.976,179.515 178.901,179.515 178.810 C 179.515 178.719,179.757 178.592,180.054 178.527 C 180.350 178.461,180.593 178.334,180.593 178.243 C 180.593 178.152,180.694 178.077,180.818 178.076 C 180.941 178.076,181.259 177.962,181.524 177.824 C 181.789 177.685,182.254 177.518,182.558 177.451 C 182.861 177.384,183.109 177.271,183.109 177.200 C 183.109 177.129,183.533 176.972,184.052 176.852 C 184.571 176.733,185.642 176.483,186.433 176.297 C 188.353 175.847,192.967 175.798,195.148 176.206 M366.667 176.272 C 368.672 176.701,369.560 176.948,370.288 177.280 C 370.599 177.422,370.963 177.541,371.096 177.544 C 371.230 177.547,371.496 177.668,371.688 177.813 C 371.879 177.959,372.183 178.077,372.361 178.077 C 372.540 178.077,372.686 178.158,372.686 178.257 C 372.686 178.356,372.777 178.437,372.888 178.437 C 373.137 178.437,375.270 179.712,375.352 179.910 C 375.385 179.989,375.526 180.054,375.666 180.054 C 375.806 180.054,375.921 180.129,375.921 180.221 C 375.921 180.314,376.084 180.441,376.284 180.504 C 376.675 180.628,380.952 184.799,380.952 185.056 C 380.952 185.141,381.113 185.404,381.308 185.642 C 381.970 186.444,382.211 186.822,382.784 187.960 C 383.007 188.405,383.360 189.052,383.566 189.398 C 383.772 189.744,384.126 190.553,384.351 191.195 C 384.577 191.837,384.829 192.525,384.913 192.722 C 385.730 194.659,386.156 201.153,385.656 204.043 C 385.378 205.647,385.090 206.883,384.921 207.194 C 384.839 207.345,384.711 207.747,384.636 208.086 C 384.562 208.426,384.435 208.827,384.354 208.979 C 384.273 209.130,383.912 209.881,383.552 210.647 C 383.191 211.412,382.701 212.326,382.463 212.676 C 382.225 213.027,382.031 213.384,382.031 213.470 C 382.031 213.556,381.970 213.654,381.896 213.687 C 381.822 213.720,381.457 214.193,381.086 214.738 C 380.427 215.706,377.122 219.051,376.295 219.587 C 376.066 219.735,375.544 220.094,375.136 220.384 C 374.217 221.039,371.379 222.462,370.994 222.462 C 370.838 222.462,370.710 222.539,370.710 222.633 C 370.710 222.728,370.407 222.860,370.036 222.926 C 369.665 222.993,369.281 223.109,369.182 223.184 C 369.084 223.258,368.639 223.378,368.194 223.450 C 367.749 223.522,367.272 223.673,367.133 223.785 C 366.776 224.074,357.746 224.071,357.395 223.781 C 357.256 223.667,356.758 223.516,356.287 223.446 C 355.816 223.376,355.391 223.254,355.343 223.175 C 355.294 223.097,354.931 222.978,354.536 222.911 C 354.142 222.844,353.819 222.716,353.819 222.626 C 353.819 222.536,353.706 222.462,353.567 222.462 C 352.960 222.462,349.362 220.427,347.889 219.250 C 346.811 218.389,343.935 215.513,343.935 215.296 C 343.935 215.202,343.869 215.097,343.788 215.064 C 343.488 214.942,341.885 212.471,341.242 211.141 C 339.897 208.355,339.407 206.861,338.884 203.953 C 338.651 202.658,338.650 197.285,338.883 196.137 C 339.417 193.491,339.620 192.740,340.100 191.617 C 340.233 191.306,340.341 190.984,340.341 190.902 C 340.341 190.745,341.954 187.460,342.182 187.152 C 342.255 187.053,342.788 186.325,343.367 185.535 C 344.538 183.934,346.885 181.506,347.928 180.815 C 348.301 180.568,348.607 180.305,348.607 180.231 C 348.607 180.157,348.749 180.048,348.922 179.990 C 349.274 179.872,349.908 179.487,350.045 179.308 C 350.193 179.114,352.633 177.899,352.875 177.898 C 352.999 177.898,353.100 177.817,353.100 177.718 C 353.100 177.619,353.229 177.538,353.387 177.538 C 353.545 177.538,353.929 177.422,354.241 177.279 C 357.022 176.007,363.121 175.513,366.667 176.272 " stroke="none" fill-rule="evenodd"></path>
</g>
</svg>