<svg width="100%" height="100%" viewBox="0 0 400 400" version="1.1" xmlns="http://www.w3.org/2000/svg" style="fill-rule:evenodd;clip-rule:evenodd;stroke-linejoin:round;stroke-miterlimit:2;">
<g>
<path d="M187.75,141.673C151.253,144.385 142.913,198.962 172.971,216.325C178.884,219.741 196.003,225.184 202.5,227C207.977,228.531 213.693,228.574 218.666,231.803C224.981,235.903 227.548,249.911 218.399,252.613C214.969,253.625 211.279,253.413 207.703,253.434C201.462,253.47 193.76,251.227 191.614,244.574C191.123,243.053 190.427,232.635 186.187,232.29C171.533,231.098 151.263,235 151.263,235L120.65,145L75,144.5L28,283L70,281.5L76.706,262.164L118.84,261.107L125,283L167,283L167,279.5C167,273.296 171.313,278.526 173.753,279.558C177.148,280.994 180.643,282.326 184.273,282.965C195.022,284.857 208.348,284.842 219.162,283.738C232.176,282.409 235.771,281.565 246.567,274C249.82,271.72 252.656,268.872 255.401,266C256.426,264.928 258.603,260.686 258.631,261.147C258.881,265.343 257.917,269.591 258.483,273.756C260.171,286.184 271.821,283 281,283L301,283L301,231L319.5,231C339.837,231 358.14,225.586 366.067,204.902C371.187,191.546 369.131,176.939 364,164C361.721,158.253 357.215,149.608 350.51,147.417C327.358,139.854 269.098,141.223 263.903,142.009C262.611,142.204 260.771,142.5 260.392,143.75C257.811,152.265 259.585,164.752 258.609,173.364C258.432,174.919 258.085,170.277 257.739,168.75C257.151,166.153 256.945,163.408 255.809,161C255.394,160.12 248.387,151.478 245,149.479C227.29,139.026 207.418,140.213 187.75,141.673M215.5,172.5C217.306,174.304 219.261,178.487 219.594,181L220.258,186L232.629,186C239.12,186 245.509,184 252,184L259,184C259,184 258.407,212.939 257.951,212.563C256.461,211.336 256.078,209.139 254.756,207.732C253.667,206.573 240.746,196.504 237.577,195.369C230.445,192.815 221.598,192.37 214.295,190.665C207.792,189.146 208.342,188.045 202.208,185.365C201.217,184.932 196.139,183.722 194.595,182.521C189.43,178.502 194.15,170.427 199.416,169.304C201.239,168.915 203.142,169.143 205,169M320,174.375C320,175.021 320.756,175.529 321.241,175.731C322.768,176.366 325.462,176.652 325.919,178.741C326.897,183.206 327.85,188.601 326.479,193.181C326.039,194.65 325.281,194.315 324.441,195.42C323.436,196.739 324.166,197.273 322.73,198.134C321.995,198.574 321.102,198.705 320.253,198.82C315.259,199.492 315.268,198.979 310.25,198.986L301,199L301,173L310.5,173C317.894,173 320,173.305 320,174.375M109.25,228L88.41,229.669L84.266,223.514L85.754,218.259L97.5,186"/>
</g>
</svg>
