<svg id="svg" version="1.1" width="400" height="400" xmlns="http://www.w3.org/2000/svg" xmlns:xlink="http://www.w3.org/1999/xlink" style="display: block;"><g id="svgg"><path id="path0" d="M122.000 17.649 C 88.320 23.007,76.688 60.248,89.132 122.879 C 90.392 129.217,90.349 129.263,81.616 131.000 C 59.176 135.465,34.611 145.688,20.000 156.644 C -10.342 179.395,-5.381 214.812,31.186 236.500 C 32.113 237.050,35.488 239.056,38.686 240.957 C 46.015 245.314,52.159 245.757,55.088 242.139 C 58.636 237.758,56.943 230.786,51.756 228.414 C 49.965 227.595,46.475 225.599,44.000 223.979 C 41.525 222.358,38.836 220.713,38.024 220.322 C 28.534 215.758,16.681 199.735,16.702 191.500 C 16.719 185.177,29.053 168.000,33.577 168.000 C 33.998 168.000,35.053 167.390,35.921 166.646 C 37.588 165.216,44.485 161.628,52.000 158.281 C 60.192 154.633,74.950 149.980,88.697 146.712 L 94.893 145.238 95.481 148.369 C 96.867 155.747,105.559 181.693,109.916 191.459 L 111.683 195.417 106.082 206.459 C 96.253 225.837,86.967 248.228,82.221 264.000 C 73.683 292.368,71.688 304.480,72.275 324.385 C 72.765 340.989,74.177 348.053,78.250 354.262 C 79.213 355.729,80.003 357.283,80.006 357.715 C 80.013 358.700,88.038 367.068,90.596 368.757 C 107.325 379.804,136.039 374.285,164.177 354.615 C 171.068 349.798,172.000 348.560,172.000 344.223 C 172.000 334.925,161.801 333.973,151.500 342.309 C 148.417 344.804,140.495 349.001,130.525 353.420 C 117.304 359.281,96.049 357.404,96.007 350.372 C 96.003 349.752,95.352 348.707,94.561 348.051 C 82.132 337.735,89.736 283.964,110.054 238.500 C 120.849 214.346,120.225 214.765,125.932 227.818 C 127.692 231.843,130.460 237.388,132.083 240.141 C 133.706 242.894,135.705 246.576,136.524 248.323 C 137.344 250.070,139.024 253.177,140.257 255.226 C 141.491 257.276,143.785 261.296,145.355 264.159 C 146.926 267.023,149.063 270.633,150.105 272.183 C 151.147 273.732,152.900 276.332,154.000 277.960 C 155.100 279.587,156.000 281.140,156.000 281.409 C 156.000 281.679,157.463 283.996,159.250 286.557 C 161.037 289.119,163.175 292.235,164.000 293.481 C 168.511 300.298,183.428 320.065,187.499 324.620 C 188.050 325.236,190.975 328.548,194.000 331.980 C 203.796 343.095,213.193 352.124,223.469 360.296 C 226.786 362.934,230.293 365.747,231.261 366.546 C 232.230 367.346,233.320 368.000,233.683 368.000 C 234.046 368.000,235.053 368.638,235.921 369.419 C 238.170 371.440,255.186 379.997,256.991 380.015 C 257.821 380.023,260.300 380.679,262.500 381.471 C 299.372 394.755,323.503 353.475,314.076 293.244 C 310.201 268.487,296.936 219.825,292.897 215.550 C 292.404 215.028,292.000 213.966,292.000 213.191 C 292.000 211.786,285.537 196.333,279.791 184.000 C 278.126 180.425,276.375 176.479,275.900 175.232 C 274.249 170.897,266.918 169.704,262.635 173.073 C 259.606 175.455,258.992 181.458,261.385 185.285 C 262.147 186.503,264.903 192.450,267.509 198.500 C 270.115 204.550,272.914 211.017,273.728 212.872 C 274.543 214.726,275.590 217.426,276.055 218.872 C 276.520 220.317,278.073 224.650,279.507 228.500 C 307.399 303.377,305.174 366.076,274.628 365.988 C 259.262 365.944,240.910 354.764,217.073 330.927 C 207.275 321.129,205.797 319.507,198.004 309.990 C 195.532 306.971,193.057 303.993,192.504 303.373 C 191.952 302.752,190.825 301.244,190.000 300.021 C 186.968 295.526,181.479 288.490,180.750 288.167 C 180.338 287.983,180.000 287.402,180.000 286.874 C 180.000 286.346,178.313 283.555,176.250 280.672 C 172.121 274.900,171.002 273.184,167.982 268.000 C 166.861 266.075,165.169 263.302,164.222 261.838 C 159.435 254.437,147.691 232.917,141.663 220.500 C 137.926 212.800,134.392 205.631,133.812 204.568 C 130.359 198.249,131.634 192.727,139.021 182.016 C 140.839 179.381,149.776 165.209,151.500 162.229 C 152.050 161.278,152.748 160.275,153.052 160.000 C 153.355 159.725,154.957 157.475,156.611 155.000 C 158.266 152.525,161.617 147.699,164.060 144.277 L 168.500 138.053 179.000 138.021 C 204.424 137.942,242.829 141.473,267.000 146.110 C 292.664 151.034,307.108 155.028,330.227 163.593 C 360.227 174.708,384.000 194.834,384.000 209.116 C 384.000 217.880,374.678 228.762,360.500 236.547 C 351.433 241.526,346.184 244.000,344.686 244.000 C 342.316 244.000,339.000 248.905,339.000 252.412 C 339.000 264.168,353.610 262.022,376.531 246.898 C 410.874 224.239,408.089 189.669,369.892 164.499 C 360.508 158.316,330.164 144.000,326.441 144.000 C 325.945 144.000,323.280 143.142,320.519 142.092 C 293.730 131.911,245.901 123.961,195.785 121.359 C 186.076 120.855,183.238 120.405,183.785 119.457 C 186.594 114.579,217.204 82.944,225.839 75.993 C 228.226 74.072,230.830 71.889,231.625 71.142 C 233.356 69.519,244.805 60.949,247.162 59.513 C 290.990 32.808,311.834 39.079,311.936 79.000 C 311.952 85.469,311.317 93.562,310.483 97.500 C 308.426 107.210,308.588 109.497,311.545 112.455 C 322.942 123.851,331.083 101.865,328.107 67.729 C 327.259 58.002,326.389 54.906,321.827 45.373 C 310.254 21.186,275.463 20.167,241.000 43.004 C 238.525 44.644,235.636 46.552,234.579 47.243 C 229.194 50.767,213.052 63.871,206.500 70.038 C 195.841 80.071,194.533 81.378,186.960 89.564 C 175.568 101.877,172.944 104.863,166.150 113.250 C 162.697 117.513,159.338 121.004,158.686 121.009 C 158.034 121.013,152.325 121.476,146.000 122.037 C 139.675 122.598,129.525 123.464,123.445 123.961 C 117.365 124.457,111.258 125.148,109.873 125.496 C 107.438 126.107,107.302 125.873,105.677 118.314 C 97.867 81.968,100.465 53.015,112.702 40.000 L 116.934 35.500 126.717 35.551 C 135.615 35.597,137.043 35.880,142.500 38.673 C 153.670 44.390,154.788 45.039,156.017 46.521 C 156.692 47.334,157.690 48.000,158.234 48.000 C 158.777 48.000,161.374 49.802,164.004 52.004 C 174.505 60.796,186.543 56.270,181.413 45.458 C 179.870 42.206,167.435 32.000,165.015 32.000 C 164.457 32.000,164.000 31.635,164.000 31.188 C 164.000 26.795,131.126 16.198,122.000 17.649 M146.465 139.765 C 145.125 140.717,135.759 154.485,132.424 160.406 C 131.524 162.004,130.379 163.804,129.880 164.406 C 128.077 166.578,124.386 172.543,123.634 174.500 C 122.984 176.191,122.734 176.265,122.012 174.981 C 120.550 172.377,112.000 146.006,112.000 144.099 C 112.000 142.176,121.867 140.313,135.500 139.664 C 138.800 139.507,142.850 139.300,144.500 139.204 C 146.150 139.109,147.034 139.361,146.465 139.765 M188.946 182.874 C 165.027 198.339,183.535 235.148,210.146 225.036 C 228.091 218.218,230.219 192.245,213.630 182.523 C 207.063 178.675,195.180 178.844,188.946 182.874 " stroke="none" fill="#000000" fill-rule="evenodd"></path></g></svg>