<svg width="100%" height="100%" viewBox="0 0 400 400" version="1.1" xmlns="http://www.w3.org/2000/svg" style="fill-rule:evenodd;clip-rule:evenodd;stroke-linejoin:round;stroke-miterlimit:2;">
    <g>
        <path d="M122,17.649C83.542,23.767 82.117,70.445 85.59,100.595C86.451,108.067 88.193,115.417 89.132,122.879C89.373,124.793 90.431,127.249 89.121,128.665C87.342,130.588 84.144,130.311 81.616,131C75.96,132.54 70.179,133.625 64.576,135.35C53.945,138.623 42.422,143.286 32.636,148.643C20.967,155.03 9.671,163.297 3.805,175.67C-10.399,205.631 20.474,238.083 48.537,244.539C56.247,246.312 58.894,235.802 54.964,230.943C53.146,228.696 44.782,224.44 44,223.979C33.031,217.515 16.681,206.121 16.702,191.5C16.708,187.402 21.556,180.015 23.449,177.379C30.118,168.092 41.892,162.747 52,158.281C57.278,155.949 62.762,154.089 68.265,152.354C75.004,150.23 81.823,148.346 88.697,146.712L94.893,145.238L95.481,148.369C96.867,155.747 105.559,181.693 109.916,191.459L111.683,195.417L106.082,206.459C85.615,246.81 64.665,296.951 73.919,343.222C74.694,347.098 76.719,350.617 78.25,354.262C89.363,380.723 122.31,376.115 143.162,366.676C153.053,362.199 164.143,357.913 170.673,349.239C177.089,340.716 166.294,334.88 159.049,337.784C156.326,338.875 154.073,340.899 151.5,342.309C137.156,350.172 125.074,358.21 108.324,356.731C105.936,356.52 99.356,355.64 96.96,352.762C89.603,343.924 88.161,332.002 88.644,320.843C89.889,292.044 99.682,265.037 110.054,238.5C111.331,235.234 116.169,223.505 119.901,219.206C120.932,218.019 122.384,220.254 122.561,220.584C123.82,222.927 124.767,225.426 125.932,227.818C127.942,231.946 129.976,236.062 132.083,240.141C139.4,254.307 147.706,267.827 156,281.409C165.234,296.53 176.793,310.881 187.499,324.62C191.294,329.49 207.546,346.273 208.555,347.242C223.116,361.233 242.145,377.172 262.5,381.471C275.817,384.284 286.675,385.288 297.508,375.274C308.657,364.968 313.394,348.836 315.179,334.307C318.861,304.355 310.718,275.562 303.548,246.716C299.256,229.448 298.83,229.727 292.897,215.55C292.572,214.774 292.323,213.968 292,213.191C287.954,203.451 283.909,193.71 279.791,184C277.151,177.775 274.94,169.323 266.282,171.379C259.432,173.006 259.301,179.79 261.385,185.285C265.707,196.682 271.811,207.396 276.055,218.872C288.558,252.683 300.279,288.802 298.982,325.356C298.512,338.589 295.872,360.88 280.023,365.281C263.779,369.792 245.323,355.861 233.961,346.455C206.35,323.598 181.691,293.365 164.222,261.838C155.399,245.915 142.351,223.035 133.812,204.568C133.116,203.062 132.379,201.525 132.13,199.885C131.111,193.165 135.874,187.391 139.021,182.016C146.644,168.994 155.297,156.552 164.06,144.277L168.5,138.053L179,138.021C193.843,137.975 208.689,138.938 223.47,140.297C259.921,143.648 295.979,150.415 330.227,163.593C349.517,171.016 366.856,181.204 379.817,197.541C392.299,213.275 373.352,229.587 360.5,236.547C355.376,239.322 349.837,241.274 344.686,244C341.036,245.932 335.013,256.15 341.641,258.637C348.722,261.294 354.236,258.965 360.997,255.793C377.117,248.23 395.199,236.059 399.594,217.505C404.807,195.5 387.323,175.197 369.892,164.499C328.731,139.238 280.015,129.276 232.65,124.265C220.392,122.968 208.073,122.33 195.785,121.359C192.503,121.1 189.191,121.09 185.939,120.575C185.14,120.448 183.297,120.102 183.785,119.457C189.45,111.964 196.096,105.253 202.627,98.502C220.511,80.019 239.15,62.354 262.525,51.046C272.108,46.409 284.959,40.966 295.946,44.272C316.519,50.461 311.972,82.356 310.483,97.5C310.154,100.851 308.895,104.151 309.134,107.51C309.624,114.414 318.302,118.087 322.578,112.312C326.673,106.783 328.006,95.782 328.377,90.721C330.072,67.603 327.41,35.105 300.254,27.973C296.916,27.096 293.447,26.656 289.997,26.555C257.804,25.611 228.806,50.214 206.5,70.038C199.617,76.155 193.244,82.834 186.96,89.564C179.787,97.245 173.177,105.435 166.15,113.25C163.75,115.919 161.976,119.574 158.686,121.009C154.797,122.705 150.228,121.683 146,122.037C138.481,122.667 130.956,123.242 123.445,123.961C118.913,124.395 114.417,125.209 109.873,125.496C109.055,125.548 107.885,125.676 107.471,124.969C106.312,122.985 106.076,120.577 105.677,118.314C104.17,109.767 102.482,101.223 101.759,92.574C100.372,75.985 100.25,53.244 112.702,40L116.934,35.5L126.717,35.551C139.294,35.616 147.777,40.821 158.234,48C163.784,51.81 171.054,58.909 178.57,56.082C189.469,51.985 176.785,40.17 173.543,37.51C161.624,27.727 147.601,21.382 132.413,18.535C128.989,17.893 125.44,17.102 122,17.649M146.465,139.765C143.604,141.798 142.167,145.32 140.193,148.222C135.597,154.978 130.726,162.482 126.363,169.534C125.369,171.14 124.551,172.849 123.634,174.5C123.38,174.956 123.351,175.708 122.85,175.856C122.463,175.971 122.157,175.358 122.012,174.981C120.015,169.801 118.17,164.56 116.458,159.279C114.831,154.262 113.289,149.213 112,144.099C111.833,143.438 113.74,142.691 113.755,142.686C115.358,142.173 116.984,141.716 118.638,141.404C121.098,140.939 123.586,140.617 126.077,140.36C129.21,140.037 132.357,139.861 135.5,139.664C138.498,139.476 141.498,139.306 144.5,139.204C145.181,139.181 147.02,139.371 146.465,139.765M188.946,182.874C182.488,187.049 178.186,193.778 177.904,201.542C177.37,216.29 190.567,229.059 205.26,226.399C209.227,225.68 212.91,224.161 216.128,221.651C228.747,211.805 227.474,190.597 213.63,182.523C210.024,180.42 205.237,179.686 201.163,179.744C197.18,179.801 192.392,180.646 188.946,182.874"/>
    </g>
</svg>
