<?xml version="1.0" encoding="UTF-8" standalone="no"?>
<!DOCTYPE svg PUBLIC "-//W3C//DTD SVG 1.1//EN" "http://www.w3.org/Graphics/SVG/1.1/DTD/svg11.dtd">
<svg width="100%" height="100%" viewBox="0 0 400 400" version="1.1" xmlns="http://www.w3.org/2000/svg" xmlns:xlink="http://www.w3.org/1999/xlink" xml:space="preserve" xmlns:serif="http://www.serif.com/" style="fill-rule:evenodd;clip-rule:evenodd;stroke-linejoin:round;stroke-miterlimit:2;">
    <g id="svgg">
        <path id="path0" d="M110.505,1.777C100.919,7.289 92.536,15.563 83.515,22C71.852,30.323 59.849,38.415 48.357,46.999C45.499,49.134 42.846,52.135 39.856,54C37.535,55.448 34.15,56.194 34.739,60.047C35.31,63.784 41.986,70.047 44.146,73C52.167,83.967 59.871,95.15 68.025,106C70.877,109.795 73.865,113.51 76.592,117.397C77.078,118.09 78.065,118.726 77.922,119.561C77.735,120.655 76.614,121.377 75.785,122.115C71.261,126.141 65.992,129.387 61.03,132.823C49.118,141.072 37.289,149.954 25.807,158.75C21.936,161.715 12.354,165.799 11.072,171.033C10.823,172.047 13.097,174.353 13.461,174.878C16.581,179.379 19.809,183.617 23,188.008C32.529,201.12 41.493,214.519 51,227.673C52.933,230.347 59.605,235.625 58.389,239.428C57.603,241.886 50.482,245.383 48.415,246.75C36.743,254.469 25.349,263.181 14.084,271.454C12.933,272.299 0.239,282.572 0,283.627C-0.621,286.365 2.664,288.571 4.073,291C6.183,294.638 9.018,297.804 11.427,301.25C22.95,317.732 34.53,334.242 46.75,350.193C49.694,354.036 53.735,363.508 58.849,364.901C64.94,366.56 71.174,356.513 76.008,353C87.069,344.961 97.992,336.784 109.072,328.75C111.488,326.998 116.487,322.259 119.441,322.126C120.561,322.075 121.345,323.358 122.1,324.187C125.534,327.957 129.695,334.176 132.546,338.084C141.535,350.405 149.995,363.158 158.999,375.509C161.555,379.015 164.8,384.225 167.937,387.177C168.813,388.002 169.918,389.403 171.052,389C178.619,386.312 185.874,378.718 192.485,374C202.92,366.553 212.913,358.612 223.594,351.501C227.104,349.165 232.308,343.256 236.386,342.072C241.283,340.65 243.656,346.866 246.03,350.072C255.071,362.278 264.055,374.549 272.75,386.928C275.782,391.245 280.598,402.37 287.652,398.426C294.504,394.596 300.627,388.781 307,384.146C319.981,374.705 333.191,365.601 346,355.975C350.471,352.615 355.06,349.4 359.5,346C360.984,344.864 364.786,342.754 365,340.5C365.324,337.085 357.761,329.622 355.854,327C347.632,315.695 339.215,304.495 331.25,293.072C329.56,290.648 327.779,288.288 325.989,285.937C324.598,284.11 321.577,282.486 322.102,280.251C322.944,276.661 332.7,272.024 335.433,270C348.715,260.166 362.344,250.826 375.643,241.001C379.278,238.316 384.161,235.317 387.191,232.05C388.005,231.172 389.31,230.103 389,228.946C387.653,223.913 380.069,216.105 377.041,211.75C368.617,199.636 359.229,188.297 351,176.057C348.58,172.457 340.569,165.708 341.101,161.034C341.495,157.566 352.169,151.592 354.47,150C364.989,142.722 375.07,134.968 385.397,127.408C388.579,125.078 399.115,119.575 398.699,114.86C398.194,109.132 389.111,100.475 386,96C375.656,81.123 364.344,66.877 354,52C351.094,47.82 348.1,43.987 345,39.992C343.222,37.701 342.836,35.614 339.5,35C337.861,34.698 336.808,36.967 335.5,38C332.753,40.17 330.61,41.555 327.594,43.501C315.314,51.422 304.11,60.762 292.057,69C289.655,70.642 282.627,78.293 279.941,77.935C277.198,77.568 272.891,68.594 271,66.232C261.247,54.046 251.788,41.093 242.959,28.25C239.662,23.454 236.321,17.175 232.029,13.165C231.08,12.278 230.003,10.791 228.737,11.081C224.446,12.064 217.319,19.378 213.53,22C202.373,29.72 191.294,37.734 180.5,46C174.655,50.476 168.638,55.984 161.546,58.354C158.863,59.25 158.944,57.626 158,56.12C155.493,52.121 152.833,48.321 150,44.567C143.691,36.206 137.145,27.94 130.999,19.509C127.277,14.403 124.27,6.733 119.959,2.331C117.685,0.008 112.827,0.44 110.505,1.777M124.492,85.18C128.53,88.691 131.449,94.061 134.841,98.193C145.16,110.761 155.161,123.626 165.001,136.491C169.265,142.066 168.86,142.219 173,147.992C175.606,151.626 179.454,154.454 175.571,159.571C174.471,161.021 171.419,161.529 170,160.156C166.168,156.447 163.246,150.353 159.975,146C150.402,133.261 140.971,120.47 131,108.042C127.961,104.255 125.004,100.451 122.017,96.615C120.687,94.907 117.338,90.952 116.829,88.978C115.437,83.573 121.087,82.219 124.492,85.18M355.418,93.607C358.87,94.932 355.947,99.341 354.449,100.622C345.842,107.982 334.449,113.49 325,119.789C302.718,134.643 280.301,149.344 258,164.211C236.081,178.823 215.131,194.924 193.53,210C179.23,219.98 165.329,230.431 151.509,241.001C147.091,244.38 141.943,247.287 137.768,251C128.548,259.199 117.563,266.501 107.687,274C104.771,276.214 99.791,280.331 96.103,276.833C93.741,274.593 95.662,271.929 97.3,269.879C102.366,263.535 113.369,257.783 119.509,253.013C142.816,234.906 166.451,217.672 190,199.975C229.618,170.202 271.207,142.65 313,116.057C322.503,110.01 331.733,103.629 341.5,98C345.761,95.544 349.914,91.495 355.418,93.607M235.418,234.607C237.611,235.449 238.218,238.386 239.473,240.372C241.566,243.685 243.813,246.764 246,250C256.838,266.04 267.47,282.225 277.984,298.458C278.838,299.776 279.762,301.049 280.576,302.391C282.426,305.441 290.586,316.299 282.428,318.164C279.918,318.738 279.211,317.245 277.847,315.563C274.187,311.048 271.222,305.833 268,301C256.69,284.035 244.883,267.306 233.906,250.15C232.603,248.114 226.759,242.372 227.055,239.832C227.563,235.463 231.365,233.052 235.418,234.607"/>
    </g>
</svg>
