<svg width="100%" height="100%" viewBox="0 0 400 400" version="1.1" xmlns="http://www.w3.org/2000/svg" style="fill-rule:evenodd;clip-rule:evenodd;stroke-linejoin:round;stroke-miterlimit:2;">
    <g>
        <path d="M110.505,1.777C100.919,7.289 34.15,56.194 34.739,60.047C35.31,63.784 78.065,118.726 77.922,119.561C77.735,120.655 12.354,165.799 11.072,171.033C10.823,172.047 59.605,235.625 58.389,239.428C57.603,241.886 0.239,282.572 0,283.627C-0.621,286.365 53.735,363.508 58.849,364.901C64.94,366.56 121.345,323.358 122.1,324.187C125.534,327.957 169.918,389.403 171.052,389C178.619,386.312 232.308,343.256 236.386,342.072C241.283,340.65 280.598,402.37 287.652,398.426C294.504,394.596 364.786,342.754 365,340.5C365.324,337.085 321.577,282.486 322.102,280.251C322.944,276.661 389.31,230.103 389,228.946C387.653,223.913 340.569,165.708 341.101,161.034C341.495,157.566 399.115,119.575 398.699,114.86C398.194,109.132 342.836,35.614 339.5,35C337.861,34.698 282.627,78.293 279.941,77.935C277.198,77.568 230.003,10.791 228.737,11.081C224.446,12.064 168.638,55.984 161.546,58.354C158.863,59.25 112.827,0.44 110.505,1.777M124.492,85.18C128.53,88.691 179.454,154.454 175.571,159.571C174.471,161.021 171.419,161.529 170,160.156C166.168,156.447 117.338,90.952 116.829,88.978C115.437,83.573 121.087,82.219 124.492,85.18M355.418,93.607C358.87,94.932 355.947,99.341 354.449,100.622C345.842,107.982 117.563,266.501 107.687,274C104.771,276.214 99.791,280.331 96.103,276.833C93.741,274.593 95.662,271.929 97.3,269.879C102.366,263.535 113.369,257.783 119.509,253.013C142.816,234.906 331.733,103.629 341.5,98C345.761,95.544 349.914,91.495 355.418,93.607M235.418,234.607C237.611,235.449 279.762,301.049 280.576,302.391C282.426,305.441 290.586,316.299 282.428,318.164C279.918,318.738 279.211,317.245 277.847,315.563C274.187,311.048 226.759,242.372 227.055,239.832C227.563,235.463 231.365,233.052 235.418,234.607"/>
    </g>
</svg>
