<svg xmlns="http://www.w3.org/2000/svg" width="400" height="400" viewBox="0, 0, 400,400" version="1.1"><g><path d="M42.242 143.010 C 37.309 144.169,32.345 148.213,30.145 152.865 C 29.110 155.055,0.000 254.152,0.000 255.485 C 0.000 255.739,3.281 255.877,9.357 255.877 L 18.713 255.877 22.141 244.220 C 24.026 237.808,25.979 231.219,26.479 229.576 L 27.389 226.590 47.206 226.590 L 67.022 226.590 67.413 228.035 C 67.627 228.829,69.520 235.376,71.618 242.582 L 75.434 255.684 84.898 255.787 L 94.362 255.890 93.669 253.475 C 81.124 209.769,64.770 154.604,63.757 152.579 C 59.997 145.064,50.841 140.992,42.242 143.010 M352.794 143.195 C 333.101 147.506,321.516 167.485,320.747 198.459 C 319.875 233.557,335.798 257.198,360.308 257.198 C 389.611 257.198,406.763 221.189,397.631 178.841 C 392.154 153.443,373.548 138.651,352.794 143.195 M242.389 199.807 L 242.389 255.877 251.445 255.877 L 260.501 255.877 260.501 228.883 L 260.501 201.889 263.298 200.560 C 272.367 196.254,280.925 195.926,285.049 199.728 C 288.672 203.068,288.425 200.912,288.546 230.154 L 288.653 255.877 297.716 255.877 L 306.778 255.877 306.651 229.383 C 306.511 200.168,306.580 201.044,304.007 195.908 C 297.314 182.545,281.056 179.122,264.838 187.659 C 262.827 188.718,261.028 189.490,260.841 189.375 C 260.651 189.257,260.501 179.158,260.501 166.451 L 260.501 143.738 251.445 143.738 L 242.389 143.738 242.389 199.807 M363.378 156.873 C 384.514 161.406,387.153 230.574,366.614 241.692 C 351.431 249.911,339.064 228.950,339.992 196.571 C 340.752 170.071,350.192 154.045,363.378 156.873 M194.514 171.965 L 194.412 184.008 188.536 184.114 L 182.659 184.220 182.659 191.340 L 182.659 198.459 188.439 198.459 L 194.220 198.459 194.223 218.786 C 194.226 241.075,194.348 242.699,196.333 246.821 C 200.523 255.520,210.415 259.265,221.711 256.428 L 224.277 255.783 224.277 249.471 L 224.277 243.160 220.387 243.160 C 212.238 243.160,212.524 244.044,212.524 218.882 L 212.524 198.651 218.401 198.545 L 224.277 198.439 224.277 191.319 L 224.277 184.200 218.497 184.200 L 212.717 184.200 212.717 172.062 L 212.717 159.923 203.666 159.923 L 194.616 159.923 194.514 171.965 M54.951 186.126 C 59.037 200.198,62.294 211.850,62.189 212.021 C 61.938 212.427,32.089 212.426,31.838 212.020 C 31.663 211.737,46.020 161.366,46.495 160.598 C 47.116 159.592,48.162 162.749,54.951 186.126 M104.817 210.343 C 104.817 235.116,104.857 236.642,105.578 239.462 C 110.093 257.113,130.831 262.599,149.368 251.046 C 152.900 248.844,153.031 248.892,154.132 252.757 L 155.020 255.877 162.289 255.877 L 169.557 255.877 169.557 220.039 L 169.557 184.200 160.308 184.200 L 151.060 184.200 151.060 211.170 L 151.060 238.139 148.837 239.261 C 139.685 243.881,130.299 244.201,126.077 240.035 C 122.943 236.943,123.135 238.830,123.015 209.923 L 122.908 184.200 113.862 184.200 L 104.817 184.200 104.817 210.343 " stroke="none" fill-rule="evenodd"></path></g></svg>