<svg xmlns="http://www.w3.org/2000/svg" width="400" height="400" viewBox="0, 0, 400,400" version="1.1">
<g>
<path d="M68.337 6.360 C 53.739 51.062,29.321 126.463,28.426 129.600 C 8.642 198.964,32.818 273.763,89.476 318.479 C 90.732 319.470,116.024 337.903,145.680 359.441 C 175.336 380.979,199.686 398.669,199.791 398.752 C 199.956 398.883,296.816 328.716,306.160 321.696 C 368.175 275.108,393.528 195.667,369.584 122.960 C 368.947 121.024,359.699 92.584,349.034 59.760 L 329.643 0.080 200.028 0.040 L 70.414 -0.000 68.337 6.360 M219.911 61.320 C 230.808 94.870,239.818 122.554,239.934 122.840 L 240.144 123.360 304.770 123.400 L 369.397 123.440 317.315 161.280 C 288.670 182.092,265.136 199.192,265.017 199.280 C 264.842 199.409,268.649 211.283,284.789 260.958 C 295.782 294.793,304.760 322.493,304.740 322.513 C 304.720 322.533,281.168 305.452,252.402 284.555 C 223.636 263.658,200.059 246.562,200.010 246.564 C 199.960 246.566,176.384 263.666,147.619 284.564 C 118.853 305.462,95.296 322.560,95.270 322.560 C 95.244 322.560,95.394 322.038,95.605 321.400 C 108.228 283.154,135.183 199.423,134.933 199.236 C 134.772 199.115,111.244 182.012,82.650 161.228 L 30.659 123.440 95.302 123.400 L 159.945 123.360 179.933 61.841 C 190.926 28.005,199.960 0.322,200.009 0.321 C 200.058 0.320,209.014 27.770,219.911 61.320 " stroke="none" fill-rule="evenodd"></path>
</g>
</svg>