<svg width="100%" height="100%" viewBox="0 0 400 400" version="1.1" xmlns="http://www.w3.org/2000/svg" style="fill-rule:evenodd;clip-rule:evenodd;stroke-linejoin:round;stroke-miterlimit:2;">
<g>
<path d="M188,26C188,29.214 51.254,270.989 55.249,275.251C59.211,279.477 151.612,236.862 154.859,233.994C156.254,232.762 188,25.227 188,26M209,29.5C209,34.899 237.305,196.224 237.305,196.224C237.305,196.224 287.437,179.37 290.607,176.312C291.79,175.171 209,16.809 209,29.5M172.5,227C177.825,225.568 224.297,204.748 224.661,204.05C228.607,196.477 204.122,69.861 201.605,61.68M290.75,188.666C287.479,189.567 242.272,209.52 241.333,212C239.829,215.974 260.602,313.11 262.488,313.217C279.154,314.155 365.263,314 365.263,314C365.263,314 303.463,185.179 290.75,188.666M222.812,219.065C221.464,223.11 166.942,242.642 166.35,243.875C164.637,247.443 157.507,291.01 156.532,304.25L155.813,314L244.239,314C244.239,314 230.972,228.188 229,221C228.609,219.574 223.977,215.565 222.812,219.065M79.341,280.938C76.373,287.308 79.822,306.445 81.957,311.315C83.66,315.197 133.698,313.8 135.324,313.46C146.608,311.101 152.299,252.287 151.65,250.875M34.737,314L68,314C68,314 64.738,287.027 62.691,287.011M35,327.878C35,332.533 71.632,373.834 72.634,371.984C75.118,367.402 70,326 70,326C70,326 35,326.112 35,327.878M87.605,378.177C88.337,379.132 126.844,385.734 128.285,385.04C132.265,383.122 140,326 140,326L83.188,326M273.577,385.162C274.465,385.042 312.87,381.752 316.155,376.971C316.883,375.911 306.728,326 306.728,326L260,326M328.905,371.529C332.253,372.382 366.837,328.709 365.468,327.491C365.059,327.127 321,326 321,326"/>
</g>
</svg>
