<svg version="1.1" width="515" height="515" xmlns="http://www.w3.org/2000/svg">
<g>
<path d="M258.345 8.347 C 257.629 9.627,209.240 34.217,90.000 93.896 C 84.225 96.786,78.713 99.567,77.750 100.075 C 76.787 100.584,75.213 101.380,74.250 101.844 C 73.287 102.308,71.487 103.208,70.250 103.844 C 69.012 104.480,67.100 105.450,66.000 106.000 C 64.900 106.550,62.988 107.520,61.750 108.156 C 60.513 108.792,58.825 109.642,58.000 110.045 C 57.175 110.448,54.812 111.605,52.750 112.617 L 49.000 114.455 49.000 160.227 L 49.000 206.000 52.250 205.975 C 54.038 205.961,67.875 206.858,83.000 207.967 C 114.826 210.300,145.923 212.426,245.345 219.066 C 262.992 220.245,263.596 220.222,326.500 215.986 C 342.450 214.912,369.000 213.135,385.500 212.036 C 402.000 210.937,424.703 209.416,435.950 208.655 C 449.160 207.761,457.585 207.599,459.747 208.196 C 461.587 208.704,464.535 208.980,466.297 208.810 L 469.500 208.500 469.751 160.000 L 470.002 111.500 466.751 109.629 C 464.963 108.600,455.850 103.953,446.500 99.301 C 437.150 94.650,428.600 90.359,427.500 89.766 C 426.400 89.173,424.825 88.376,424.000 87.995 C 423.175 87.614,421.150 86.557,419.500 85.647 C 417.850 84.736,410.875 81.221,404.000 77.836 C 397.125 74.451,391.350 71.303,391.167 70.841 C 390.983 70.378,390.083 69.990,389.167 69.978 C 388.250 69.966,386.375 69.076,385.000 68.000 C 383.625 66.924,381.825 66.024,381.000 66.000 C 380.175 65.976,378.375 65.076,377.000 64.000 C 375.625 62.924,373.825 62.024,373.000 62.000 C 372.175 61.976,370.375 61.076,369.000 60.000 C 367.625 58.924,366.038 58.034,365.472 58.022 C 364.907 58.010,361.757 56.588,358.472 54.862 C 355.188 53.136,335.625 43.203,315.000 32.788 C 294.375 22.373,277.072 13.435,276.550 12.926 C 276.028 12.417,274.972 12.000,274.204 12.000 C 273.437 12.000,271.567 11.116,270.049 10.035 C 266.155 7.262,259.490 6.301,258.345 8.347 M269.215 18.500 C 271.238 19.875,273.480 21.010,274.197 21.022 C 274.914 21.034,276.625 21.924,278.000 23.000 C 279.375 24.076,280.950 24.974,281.500 24.996 C 282.050 25.019,290.375 29.046,300.000 33.945 C 309.625 38.845,333.700 51.049,353.500 61.067 C 373.300 71.084,404.692 86.979,423.260 96.390 C 441.828 105.800,458.366 114.144,460.010 114.930 L 463.000 116.361 463.000 159.287 C 463.000 193.211,462.738 202.116,461.750 201.748 C 459.850 201.039,433.970 196.746,403.000 192.002 C 395.575 190.864,383.598 188.824,376.385 187.467 C 369.172 186.110,362.003 185.000,360.454 185.000 C 358.905 185.000,352.657 184.117,346.569 183.037 C 340.481 181.957,329.762 180.157,322.750 179.037 C 315.738 177.917,304.488 176.110,297.750 175.023 C 291.012 173.936,280.663 172.288,274.750 171.361 L 264.000 169.677 264.000 92.838 C 264.000 50.577,264.346 16.000,264.768 16.000 C 265.190 16.000,267.191 17.125,269.215 18.500 M73.362 253.500 C 72.895 254.717,70.542 255.000,60.893 255.000 L 49.000 255.000 49.000 327.486 L 49.000 399.972 60.509 405.568 C 66.839 408.646,72.479 412.027,73.044 413.082 C 74.523 415.845,75.918 415.551,87.024 410.132 L 97.000 405.265 97.000 413.884 L 97.000 422.503 103.250 425.321 C 106.688 426.871,110.625 428.799,112.000 429.606 C 113.375 430.413,116.824 432.140,119.665 433.444 C 122.506 434.748,125.335 436.757,125.951 437.908 C 127.539 440.876,129.340 440.561,139.500 435.533 L 148.500 431.080 148.784 440.327 L 149.067 449.574 157.284 453.399 C 178.568 463.306,181.992 465.116,182.995 466.990 C 184.905 470.560,184.897 470.562,209.250 457.676 L 218.000 453.045 218.000 467.976 L 218.000 482.906 221.750 484.537 C 223.813 485.434,226.287 486.580,227.250 487.084 C 240.549 494.045,250.211 498.000,253.915 498.000 C 257.650 498.000,257.891 498.183,258.187 501.250 C 258.418 503.646,259.043 504.578,260.568 504.796 C 262.288 505.042,282.947 495.430,288.000 492.032 C 288.825 491.478,299.175 486.265,311.000 480.449 C 322.825 474.633,333.355 469.406,334.401 468.834 C 338.425 466.633,362.966 453.981,366.750 452.156 C 367.712 451.692,369.512 450.792,370.750 450.156 C 371.988 449.520,373.788 448.620,374.750 448.156 C 375.712 447.692,377.512 446.792,378.750 446.156 C 379.987 445.520,381.900 444.550,383.000 444.000 C 384.100 443.450,385.788 442.584,386.750 442.075 C 387.713 441.567,393.225 438.811,399.000 435.950 C 410.381 430.314,425.594 422.488,428.000 421.032 C 428.825 420.533,438.500 415.689,449.500 410.266 L 469.500 400.407 469.500 326.454 L 469.500 252.500 364.220 252.245 C 271.261 252.021,258.873 252.167,258.363 253.495 C 257.502 255.740,220.500 255.744,219.638 253.500 C 219.157 252.245,216.189 252.000,201.500 252.000 C 186.811 252.000,183.843 252.245,183.362 253.500 C 182.885 254.743,180.165 255.000,167.500 255.000 C 154.835 255.000,152.115 254.743,151.638 253.500 C 151.171 252.281,148.800 252.000,139.000 252.000 C 129.200 252.000,126.829 252.281,126.362 253.500 C 125.890 254.730,123.375 255.000,112.393 255.000 C 101.155 255.000,99.000 254.759,99.000 253.500 C 99.000 252.246,96.941 252.000,86.469 252.000 C 76.252 252.000,73.831 252.277,73.362 253.500 M93.000 328.792 L 93.000 398.583 89.250 400.366 C 87.188 401.347,84.037 402.797,82.250 403.588 L 79.000 405.027 79.000 332.013 L 79.000 259.000 86.000 259.000 L 93.000 259.000 93.000 328.792 M145.000 341.336 L 145.000 423.673 139.250 426.511 C 136.088 428.071,133.162 429.522,132.750 429.733 C 132.338 429.945,132.000 391.616,132.000 344.559 L 132.000 259.000 138.500 259.000 L 145.000 259.000 145.000 341.336 M214.000 352.763 L 214.000 446.526 206.750 449.992 C 202.762 451.898,198.375 454.216,197.000 455.144 C 195.625 456.072,193.488 457.125,192.250 457.483 L 190.000 458.135 190.000 358.567 L 190.000 259.000 202.000 259.000 L 214.000 259.000 214.000 352.763 M463.000 326.879 L 463.000 394.759 443.250 404.718 C 421.126 415.874,352.321 450.691,350.000 451.905 C 349.175 452.336,347.600 453.139,346.500 453.688 C 345.400 454.238,343.375 455.278,342.000 456.000 C 340.625 456.722,338.712 457.692,337.750 458.156 C 336.788 458.620,334.988 459.520,333.750 460.156 C 329.604 462.287,327.584 463.293,308.500 472.738 C 298.050 477.910,288.600 482.646,287.500 483.263 C 282.231 486.216,268.348 493.297,266.302 494.075 L 264.000 494.950 264.000 376.975 L 264.000 259.000 363.500 259.000 L 463.000 259.000 463.000 326.879 " stroke="none" fill-rule="evenodd"></path>
</g>
</svg>