<svg id="svg" version="1.1" width="515" height="515" xmlns="http://www.w3.org/2000/svg" xmlns:xlink="http://www.w3.org/1999/xlink" style="display: block;"><g id="svgg"><path id="path0" d="M206.000 257.500 L 206.000 443.000 257.500 443.000 L 309.000 443.000 309.000 257.500 L 309.000 72.000 257.500 72.000 L 206.000 72.000 206.000 257.500 M123.919 119.186 C 118.650 124.859,109.537 134.821,103.669 141.326 L 93.000 153.151 93.003 257.326 L 93.007 361.500 98.753 368.113 C 101.914 371.751,111.025 381.788,119.000 390.420 L 133.500 406.113 133.756 331.478 C 133.897 290.429,133.897 223.550,133.756 182.858 L 133.500 108.873 123.919 119.186 M381.046 257.250 C 381.021 339.063,381.136 406.000,381.302 406.000 C 381.728 406.000,409.317 376.087,416.247 368.113 L 421.993 361.500 421.997 257.318 L 422.000 153.135 408.068 137.818 C 400.405 129.393,391.201 119.350,387.614 115.500 L 381.093 108.500 381.046 257.250 " stroke="none" fill="#000000" fill-rule="evenodd"></path></g></svg>