<svg version="1.1" width="515" height="515" xmlns="http://www.w3.org/2000/svg">
<g>
<path d="M263.211 14.538 C 262.501 15.342,261.039 16.000,259.961 16.000 C 258.882 16.000,258.000 16.450,258.000 17.000 C 258.000 17.550,257.363 18.000,256.583 18.000 C 255.804 18.000,255.007 18.479,254.812 19.065 C 254.617 19.650,252.566 20.383,250.255 20.693 C 247.343 21.083,245.871 21.831,245.459 23.128 C 245.057 24.397,243.920 25.000,241.933 25.000 C 240.320 25.000,239.000 25.401,239.000 25.892 C 239.000 26.382,237.789 27.087,236.309 27.459 C 234.829 27.830,232.916 28.943,232.058 29.933 C 231.200 30.922,228.938 32.074,227.032 32.493 C 223.015 33.375,220.144 34.841,218.011 37.099 C 217.180 37.978,214.813 39.011,212.750 39.394 C 210.688 39.777,209.000 40.520,209.000 41.045 C 209.000 41.570,208.100 42.000,207.000 42.000 C 205.900 42.000,205.000 42.450,205.000 43.000 C 205.000 43.550,204.553 44.000,204.007 44.000 C 202.299 44.000,195.000 47.433,195.000 48.236 C 195.000 48.656,194.100 49.000,193.000 49.000 C 191.900 49.000,191.000 49.414,191.000 49.921 C 191.000 50.427,189.650 51.138,188.000 51.500 C 186.350 51.862,185.000 52.573,185.000 53.079 C 185.000 53.586,184.100 54.000,183.000 54.000 C 181.900 54.000,181.000 54.450,181.000 55.000 C 181.000 55.550,180.325 56.000,179.500 56.000 C 178.675 56.000,178.000 56.419,178.000 56.930 C 178.000 57.442,176.988 58.005,175.750 58.180 C 173.581 58.488,173.490 58.924,173.218 70.250 C 173.057 76.966,172.522 82.000,171.968 82.000 C 171.436 82.000,171.000 81.550,171.000 81.000 C 171.000 80.450,169.425 80.000,167.500 80.000 C 165.575 80.000,164.000 79.550,164.000 79.000 C 164.000 78.450,162.912 78.000,161.583 78.000 C 160.254 78.000,159.013 77.538,158.824 76.973 C 158.177 75.032,138.673 74.485,137.113 76.363 C 136.366 77.263,135.135 78.000,134.378 78.000 C 133.620 78.000,133.000 78.450,133.000 79.000 C 133.000 79.550,132.325 80.000,131.500 80.000 C 130.675 80.000,130.000 80.394,130.000 80.875 C 130.000 81.356,128.590 82.032,126.866 82.377 C 125.142 82.722,122.978 83.873,122.056 84.935 C 121.135 85.997,119.058 87.156,117.441 87.511 C 113.459 88.384,109.810 90.154,108.000 92.092 C 107.175 92.975,104.813 94.011,102.750 94.394 C 100.688 94.777,99.000 95.520,99.000 96.045 C 99.000 96.570,98.100 97.000,97.000 97.000 C 95.900 97.000,95.000 97.401,95.000 97.892 C 95.000 98.382,93.875 99.066,92.500 99.411 L 90.000 100.038 90.000 119.019 L 90.000 138.000 94.500 138.000 C 96.975 138.000,99.000 138.450,99.000 139.000 C 99.000 139.556,101.667 140.000,105.000 140.000 C 108.300 140.000,111.000 140.405,111.000 140.899 C 111.000 141.394,116.625 142.123,123.500 142.520 C 130.375 142.916,136.000 143.636,136.000 144.120 C 136.000 144.604,138.438 145.000,141.417 145.000 C 144.396 145.000,146.983 145.448,147.167 145.995 C 147.350 146.542,152.338 147.285,158.250 147.647 C 164.162 148.008,169.000 148.686,169.000 149.152 C 169.000 149.618,171.700 150.000,175.000 150.000 C 178.300 150.000,181.000 149.572,181.000 149.050 C 181.000 148.527,183.700 147.794,187.000 147.420 C 190.300 147.047,193.000 146.350,193.000 145.871 C 193.000 145.392,195.025 145.000,197.500 145.000 C 199.975 145.000,202.000 144.550,202.000 144.000 C 202.000 143.450,203.784 143.000,205.965 143.000 C 209.015 143.000,210.199 142.497,211.096 140.820 C 212.167 138.820,212.365 138.779,213.492 140.320 C 214.815 142.130,219.000 142.646,219.000 141.000 C 219.000 140.450,221.535 140.000,224.633 140.000 C 232.474 140.000,234.270 137.885,233.825 129.175 L 233.500 122.828 239.000 123.508 C 242.025 123.882,244.650 124.595,244.833 125.094 C 245.017 125.592,247.379 126.000,250.083 126.000 C 252.787 126.000,255.000 126.450,255.000 127.000 C 255.000 127.550,256.575 128.000,258.500 128.000 C 260.425 128.000,262.000 128.450,262.000 129.000 C 262.000 129.556,264.667 130.000,268.000 130.000 C 271.333 130.000,274.000 129.556,274.000 129.000 C 274.000 128.450,275.575 128.000,277.500 128.000 C 279.425 128.000,281.000 127.550,281.000 127.000 C 281.000 126.450,282.538 126.000,284.417 126.000 C 286.296 126.000,287.983 125.562,288.167 125.027 C 288.350 124.493,291.762 123.753,295.750 123.384 L 303.000 122.713 303.000 130.356 C 303.000 137.843,303.051 138.000,305.500 138.000 C 306.875 138.000,308.000 138.450,308.000 139.000 C 308.000 139.550,309.575 140.000,311.500 140.000 C 313.425 140.000,315.000 140.397,315.000 140.882 C 315.000 141.367,318.825 142.082,323.500 142.471 C 328.175 142.861,332.000 143.589,332.000 144.090 C 332.000 144.590,333.575 145.000,335.500 145.000 C 337.425 145.000,339.000 145.428,339.000 145.950 C 339.000 146.473,341.700 147.206,345.000 147.580 C 348.300 147.953,351.000 148.650,351.000 149.129 C 351.000 150.258,365.715 150.271,366.412 149.143 C 366.703 148.671,370.878 148.040,375.688 147.740 C 380.676 147.429,384.592 146.723,384.801 146.097 C 385.019 145.442,387.953 145.000,392.083 145.000 C 396.028 145.000,399.000 144.570,399.000 144.000 C 399.000 143.450,400.688 142.995,402.750 142.989 C 409.310 142.970,413.877 141.841,414.334 140.127 C 414.707 138.727,414.784 138.745,414.884 140.250 C 415.012 142.183,423.000 142.921,423.000 141.000 C 423.000 140.450,423.637 140.000,424.417 140.000 C 425.196 140.000,426.096 139.437,426.417 138.750 C 426.883 137.750,427.117 137.750,427.583 138.750 C 428.342 140.375,434.658 140.375,435.417 138.750 C 435.883 137.750,436.117 137.750,436.583 138.750 C 437.381 140.459,443.812 140.331,445.571 138.571 C 447.305 136.838,447.712 104.000,446.000 104.000 C 445.450 104.000,445.000 102.895,445.000 101.545 C 445.000 98.865,440.780 94.000,438.455 94.000 C 437.655 94.000,437.000 93.550,437.000 93.000 C 437.000 92.450,435.875 92.000,434.500 92.000 C 433.125 92.000,432.000 91.550,432.000 91.000 C 432.000 90.450,431.100 90.000,430.000 90.000 C 428.900 90.000,428.000 89.570,428.000 89.045 C 428.000 88.520,426.425 87.795,424.500 87.434 C 422.575 87.073,421.000 86.377,421.000 85.889 C 421.000 85.400,420.325 85.000,419.500 85.000 C 418.675 85.000,418.000 84.559,418.000 84.019 C 418.000 83.480,416.875 82.756,415.500 82.411 C 414.125 82.066,413.000 81.382,413.000 80.892 C 413.000 80.401,412.100 80.000,411.000 80.000 C 409.900 80.000,409.000 79.550,409.000 79.000 C 409.000 78.450,407.912 78.000,406.583 78.000 C 405.254 78.000,403.994 77.482,403.783 76.849 C 403.123 74.868,392.148 74.450,391.409 76.377 C 391.004 77.433,389.600 78.000,387.393 78.000 C 385.527 78.000,384.000 78.450,384.000 79.000 C 384.000 79.550,382.462 80.000,380.583 80.000 C 378.704 80.000,377.017 80.390,376.833 80.867 C 376.650 81.344,373.913 82.051,370.750 82.439 L 365.000 83.144 365.000 71.027 C 365.000 58.659,363.371 54.000,359.045 54.000 C 358.470 54.000,358.000 53.600,358.000 53.111 C 358.000 52.623,356.425 51.927,354.500 51.566 C 352.575 51.205,351.000 50.480,351.000 49.955 C 351.000 49.430,349.875 49.000,348.500 49.000 C 347.125 49.000,346.000 48.647,346.000 48.216 C 346.000 47.039,340.461 44.000,338.316 44.000 C 337.285 44.000,335.793 43.100,335.000 42.000 C 334.207 40.900,332.565 40.000,331.351 40.000 C 330.136 40.000,328.468 39.325,327.643 38.500 C 326.818 37.675,325.661 37.000,325.071 37.000 C 324.482 37.000,324.000 36.550,324.000 36.000 C 324.000 35.450,322.650 35.000,321.000 35.000 C 319.350 35.000,318.000 34.586,318.000 34.079 C 318.000 33.573,316.650 32.862,315.000 32.500 C 313.350 32.138,312.000 31.427,312.000 30.921 C 312.000 30.414,310.698 30.000,309.107 30.000 C 307.458 30.000,305.966 29.355,305.638 28.500 C 305.322 27.675,304.179 27.000,303.099 27.000 C 302.013 27.000,300.851 26.106,300.500 25.000 C 300.151 23.900,298.996 23.000,297.933 23.000 C 296.870 23.000,296.000 22.570,296.000 22.045 C 296.000 21.520,294.313 20.777,292.250 20.394 C 290.188 20.011,287.823 18.924,286.995 17.978 C 286.167 17.032,283.579 15.936,281.245 15.541 C 278.910 15.147,277.000 14.414,277.000 13.912 C 277.000 12.516,269.247 12.827,268.583 14.250 C 268.117 15.250,267.883 15.250,267.417 14.250 C 266.646 12.599,264.810 12.725,263.211 14.538 M280.429 28.571 C 281.293 29.436,282.000 30.561,282.000 31.071 C 282.000 31.582,283.069 32.000,284.375 32.000 C 289.223 32.000,292.951 33.269,293.538 35.119 C 293.866 36.154,294.812 37.000,295.639 37.000 C 296.466 37.000,297.818 37.675,298.643 38.500 C 299.468 39.325,301.236 40.000,302.571 40.000 C 303.907 40.000,305.000 40.450,305.000 41.000 C 305.000 41.550,305.675 42.000,306.500 42.000 C 307.325 42.000,308.000 42.422,308.000 42.939 C 308.000 43.455,310.025 44.181,312.500 44.552 C 314.975 44.923,317.000 45.626,317.000 46.114 C 317.000 46.601,317.576 47.000,318.279 47.000 C 318.983 47.000,320.207 47.900,321.000 49.000 C 321.793 50.100,323.435 51.000,324.649 51.000 C 325.864 51.000,327.532 51.675,328.357 52.500 C 329.182 53.325,330.789 54.000,331.929 54.000 C 333.068 54.000,334.000 54.450,334.000 55.000 C 334.000 55.550,334.620 56.000,335.378 56.000 C 336.135 56.000,337.315 56.675,338.000 57.500 C 338.685 58.325,340.315 59.000,341.622 59.000 C 342.930 59.000,344.000 59.450,344.000 60.000 C 344.000 60.550,344.900 61.000,346.000 61.000 C 347.100 61.000,348.000 61.450,348.000 62.000 C 348.000 62.550,348.563 63.007,349.250 63.015 C 353.072 63.062,353.420 64.500,353.585 80.940 L 353.747 97.000 351.373 97.000 C 350.068 97.000,349.000 96.555,349.000 96.012 C 349.000 95.468,347.200 94.736,345.000 94.384 C 342.800 94.032,341.000 93.352,341.000 92.872 C 341.000 92.392,339.875 92.000,338.500 92.000 C 337.125 92.000,336.000 91.550,336.000 91.000 C 336.000 90.450,334.425 90.000,332.500 90.000 C 330.575 90.000,329.000 89.578,329.000 89.061 C 329.000 88.545,326.975 87.819,324.500 87.448 C 322.025 87.077,320.000 86.374,320.000 85.886 C 320.000 85.399,318.875 85.000,317.500 85.000 C 316.125 85.000,315.000 84.601,315.000 84.114 C 315.000 83.626,312.893 82.911,310.319 82.525 C 307.077 82.039,304.838 80.968,303.039 79.042 C 300.823 76.670,299.478 76.200,293.889 75.844 C 288.404 75.495,286.893 74.984,284.622 72.713 C 283.104 71.194,280.797 70.000,279.383 70.000 C 274.285 70.000,274.000 68.787,274.000 47.071 L 274.000 27.000 276.429 27.000 C 277.764 27.000,279.564 27.707,280.429 28.571 M157.000 89.097 C 157.000 89.593,158.575 90.000,160.500 90.000 C 163.333 90.000,164.000 90.381,164.000 92.000 C 164.000 93.100,164.450 94.000,165.000 94.000 C 165.596 94.000,166.000 97.806,166.000 103.418 C 166.000 114.159,166.455 116.000,169.107 116.000 C 170.148 116.000,171.000 116.404,171.000 116.899 C 171.000 117.393,174.150 118.113,178.000 118.500 C 185.220 119.225,187.705 121.000,181.500 121.000 C 179.575 121.000,178.000 120.588,178.000 120.085 C 178.000 119.582,174.512 118.886,170.250 118.539 C 165.988 118.192,161.719 117.478,160.764 116.954 C 159.809 116.429,157.667 116.000,156.004 116.000 C 149.196 116.000,147.000 111.829,146.999 98.892 L 146.999 87.500 151.999 87.847 C 154.750 88.037,157.000 88.600,157.000 89.097 M403.000 88.847 C 403.000 90.986,406.898 93.807,410.755 94.459 C 413.090 94.853,415.000 95.586,415.000 96.088 C 415.000 96.590,415.675 97.000,416.500 97.000 C 417.325 97.000,418.000 97.430,418.000 97.955 C 418.000 98.480,419.575 99.205,421.500 99.566 C 423.425 99.927,425.000 100.623,425.000 101.111 C 425.000 101.600,426.125 102.000,427.500 102.000 C 428.875 102.000,430.000 102.343,430.000 102.763 C 430.000 103.182,431.012 103.970,432.250 104.513 C 433.641 105.123,434.621 106.550,434.816 108.250 C 434.990 109.763,435.553 111.000,436.066 111.000 C 436.580 111.000,437.000 114.375,437.000 118.500 C 437.000 125.943,434.508 129.371,432.638 124.500 C 432.244 123.472,430.637 123.000,427.531 123.000 C 425.039 123.000,423.000 122.550,423.000 122.000 C 423.000 121.450,421.875 121.000,420.500 121.000 C 419.125 121.000,418.000 120.601,418.000 120.114 C 418.000 119.626,415.893 118.911,413.319 118.525 C 410.010 118.029,407.840 116.969,405.917 114.912 C 404.421 113.310,402.703 112.000,402.099 112.000 C 401.361 112.000,401.000 108.053,401.000 100.000 C 401.000 92.667,401.389 88.000,402.000 88.000 C 402.550 88.000,403.000 88.381,403.000 88.847 M193.000 122.000 C 193.000 122.550,191.875 123.000,190.500 123.000 C 189.125 123.000,188.000 122.550,188.000 122.000 C 188.000 121.450,189.125 121.000,190.500 121.000 C 191.875 121.000,193.000 121.450,193.000 122.000 M266.096 139.867 C 265.058 141.307,262.897 141.887,256.625 142.407 C 252.156 142.777,248.350 143.512,248.167 144.040 C 247.983 144.568,246.746 145.000,245.417 145.000 C 244.088 145.000,243.000 145.392,243.000 145.871 C 243.000 146.350,238.956 147.058,234.013 147.445 C 229.071 147.832,224.769 148.565,224.454 149.074 C 224.139 149.583,221.884 150.000,219.441 150.000 C 216.998 150.000,215.000 150.450,215.000 151.000 C 215.000 151.550,213.200 152.000,211.000 152.000 C 208.800 152.000,207.000 152.397,207.000 152.882 C 207.000 153.367,203.175 154.082,198.500 154.471 C 193.825 154.861,190.000 155.589,190.000 156.090 C 190.000 156.590,187.525 157.000,184.500 157.000 C 181.475 157.000,179.000 157.450,179.000 158.000 C 179.000 158.550,177.200 159.000,175.000 159.000 C 172.800 159.000,171.000 159.397,171.000 159.882 C 171.000 160.367,167.175 161.082,162.500 161.471 C 157.825 161.861,154.000 162.589,154.000 163.090 C 154.000 163.590,151.975 164.000,149.500 164.000 C 147.025 164.000,145.000 164.404,145.000 164.899 C 145.000 165.393,141.850 166.113,138.000 166.500 C 134.150 166.887,131.000 167.607,131.000 168.101 C 131.000 168.596,128.750 169.000,126.000 169.000 C 123.250 169.000,121.000 169.450,121.000 170.000 C 121.000 170.550,118.975 171.000,116.500 171.000 C 114.025 171.000,112.000 171.416,112.000 171.925 C 112.000 172.434,107.950 173.167,103.000 173.554 C 98.050 173.941,94.000 174.650,94.000 175.129 C 94.000 175.608,93.100 176.000,92.000 176.000 C 89.489 176.000,88.813 221.956,91.287 224.430 C 92.320 225.463,124.662 225.863,255.037 226.454 C 350.324 226.886,417.638 227.564,417.833 228.095 C 418.290 229.335,425.000 229.246,425.000 228.000 C 425.000 227.450,426.125 227.000,427.500 227.000 C 428.875 227.000,430.000 227.450,430.000 228.000 C 430.000 230.579,441.090 229.064,444.077 226.077 L 447.000 223.154 447.000 200.088 C 447.000 174.208,446.700 173.000,440.278 173.000 C 438.475 173.000,437.000 172.550,437.000 172.000 C 437.000 171.450,435.875 171.000,434.500 171.000 C 433.125 171.000,432.000 170.550,432.000 170.000 C 432.000 169.450,429.975 169.000,427.500 169.000 C 425.025 169.000,423.000 168.604,423.000 168.119 C 423.000 167.634,418.725 166.917,413.500 166.526 C 408.275 166.134,404.000 165.405,404.000 164.907 C 404.000 164.408,402.200 164.000,400.000 164.000 C 397.800 164.000,396.000 163.592,396.000 163.093 C 396.000 162.595,391.725 161.866,386.500 161.474 C 381.275 161.083,377.000 160.366,377.000 159.881 C 377.000 159.396,376.100 159.000,375.000 159.000 C 373.900 159.000,373.000 158.550,373.000 158.000 C 373.000 157.450,370.750 157.000,368.000 157.000 C 365.250 157.000,363.000 156.603,363.000 156.118 C 363.000 155.633,359.175 154.918,354.500 154.529 C 349.825 154.139,346.000 153.411,346.000 152.910 C 346.000 152.410,344.425 152.000,342.500 152.000 C 340.575 152.000,339.000 151.550,339.000 151.000 C 339.000 150.450,336.777 150.000,334.059 150.000 C 331.341 150.000,328.869 149.597,328.565 149.105 C 328.260 148.612,324.409 147.890,320.006 147.500 C 315.603 147.111,312.000 146.389,312.000 145.896 C 312.000 145.403,309.337 145.000,306.083 145.000 C 302.829 145.000,300.017 144.553,299.833 144.008 C 299.650 143.462,296.012 142.721,291.750 142.361 C 287.488 142.001,284.000 141.323,284.000 140.853 C 284.000 140.384,282.875 140.000,281.500 140.000 C 280.125 140.000,279.000 139.550,279.000 139.000 C 279.000 137.051,267.572 137.818,266.096 139.867 M282.500 152.000 C 285.433 152.000,287.995 152.486,288.193 153.079 C 288.391 153.673,292.253 154.412,296.776 154.722 C 301.299 155.032,305.000 155.671,305.000 156.143 C 305.000 156.614,306.800 157.000,309.000 157.000 C 311.200 157.000,313.000 157.450,313.000 158.000 C 313.000 158.550,314.098 159.000,315.441 159.000 C 316.784 159.000,318.117 159.381,318.405 159.847 C 318.693 160.313,323.331 160.983,328.711 161.336 C 334.091 161.690,338.645 162.434,338.830 162.989 C 339.015 163.545,341.117 164.000,343.500 164.000 C 345.883 164.000,347.983 164.428,348.167 164.950 C 348.350 165.473,352.663 166.212,357.750 166.594 C 362.837 166.975,367.000 167.672,367.000 168.143 C 367.000 168.615,367.675 169.000,368.500 169.000 C 369.325 169.000,370.000 169.450,370.000 170.000 C 370.000 170.550,372.250 171.000,375.000 171.000 C 377.750 171.000,380.000 171.397,380.000 171.882 C 380.000 172.367,383.825 173.082,388.500 173.471 C 393.175 173.861,397.000 174.589,397.000 175.090 C 397.000 175.590,399.025 176.000,401.500 176.000 C 403.975 176.000,406.000 176.385,406.000 176.855 C 406.000 177.325,409.257 177.983,413.237 178.317 C 417.218 178.650,420.630 179.391,420.821 179.962 C 421.011 180.533,422.605 181.000,424.363 181.000 C 426.411 181.000,428.076 181.718,429.000 183.000 C 429.937 184.300,431.589 185.000,433.721 185.000 L 437.000 185.000 437.000 201.000 L 437.000 217.000 355.500 217.000 L 274.000 217.000 274.000 189.059 C 274.000 171.510,274.372 160.888,275.000 160.500 C 275.550 160.160,276.036 157.546,276.079 154.691 C 276.122 151.836,276.385 150.063,276.662 150.750 C 276.977 151.531,279.169 152.000,282.500 152.000 M257.000 248.856 C 257.000 249.327,244.512 250.035,229.250 250.431 C 213.988 250.827,201.073 251.566,200.550 252.075 C 200.028 252.584,193.165 253.000,185.300 253.000 C 176.433 253.000,171.000 253.380,171.000 254.000 C 171.000 254.621,165.500 255.000,156.500 255.000 C 148.525 255.000,142.000 255.383,142.000 255.850 C 142.000 256.318,132.039 257.022,119.864 257.415 C 97.093 258.149,95.000 258.572,95.000 262.429 C 95.000 263.438,94.106 264.000,92.500 264.000 L 90.000 264.000 90.000 307.500 C 90.000 350.333,90.031 351.000,92.000 351.000 C 93.100 351.000,94.000 351.414,94.000 351.921 C 94.000 352.427,95.350 353.138,97.000 353.500 C 98.650 353.862,100.000 354.573,100.000 355.079 C 100.000 355.586,100.900 356.000,102.000 356.000 C 103.100 356.000,104.000 356.450,104.000 357.000 C 104.000 357.550,104.675 358.000,105.500 358.000 C 106.325 358.000,107.000 358.400,107.000 358.889 C 107.000 359.377,108.575 360.073,110.500 360.434 C 112.425 360.795,114.000 361.520,114.000 362.045 C 114.000 362.570,114.862 363.000,115.917 363.000 C 116.971 363.000,117.983 363.337,118.167 363.750 C 118.692 364.932,124.639 368.000,126.404 368.000 C 127.282 368.000,128.000 368.450,128.000 369.000 C 128.000 369.550,128.675 370.000,129.500 370.000 C 130.325 370.000,131.000 370.400,131.000 370.889 C 131.000 371.377,132.575 372.073,134.500 372.434 C 136.425 372.795,138.000 373.520,138.000 374.045 C 138.000 374.570,138.900 375.000,140.000 375.000 C 141.100 375.000,142.000 375.450,142.000 376.000 C 142.000 376.550,142.675 377.000,143.500 377.000 C 144.325 377.000,145.000 377.400,145.000 377.889 C 145.000 378.377,146.575 379.073,148.500 379.434 C 150.425 379.795,152.000 380.520,152.000 381.045 C 152.000 381.570,152.675 382.000,153.500 382.000 C 154.325 382.000,155.000 382.400,155.000 382.889 C 155.000 383.377,156.575 384.073,158.500 384.434 C 160.425 384.795,162.000 385.520,162.000 386.045 C 162.000 386.570,162.900 387.000,164.000 387.000 C 165.100 387.000,166.000 387.450,166.000 388.000 C 166.000 388.550,166.675 389.000,167.500 389.000 C 168.325 389.000,169.000 389.400,169.000 389.889 C 169.000 390.377,170.575 391.073,172.500 391.434 C 174.425 391.795,176.000 392.520,176.000 393.045 C 176.000 393.570,176.675 394.000,177.500 394.000 C 178.325 394.000,179.000 394.400,179.000 394.889 C 179.000 395.377,180.575 396.073,182.500 396.434 C 184.425 396.795,186.000 397.520,186.000 398.045 C 186.000 398.570,186.900 399.000,188.000 399.000 C 189.100 399.000,190.000 399.450,190.000 400.000 C 190.000 400.550,190.675 401.000,191.500 401.000 C 192.325 401.000,193.000 401.400,193.000 401.889 C 193.000 402.377,194.575 403.073,196.500 403.434 C 198.425 403.795,200.000 404.520,200.000 405.045 C 200.000 405.570,200.675 406.000,201.500 406.000 C 202.325 406.000,203.000 406.400,203.000 406.889 C 203.000 407.377,204.575 408.073,206.500 408.434 C 208.425 408.795,210.000 409.520,210.000 410.045 C 210.000 410.570,210.900 411.000,212.000 411.000 C 213.100 411.000,214.000 411.450,214.000 412.000 C 214.000 412.550,214.675 413.000,215.500 413.000 C 216.325 413.000,217.000 413.400,217.000 413.889 C 217.000 414.377,218.575 415.073,220.500 415.434 C 222.425 415.795,224.000 416.520,224.000 417.045 C 224.000 417.570,224.675 418.000,225.500 418.000 C 226.325 418.000,227.000 418.400,227.000 418.889 C 227.000 419.377,228.575 420.073,230.500 420.434 C 232.425 420.795,234.000 421.520,234.000 422.045 C 234.000 422.570,234.900 423.000,236.000 423.000 C 237.100 423.000,238.000 423.450,238.000 424.000 C 238.000 424.550,238.675 425.000,239.500 425.000 C 240.325 425.000,241.000 425.400,241.000 425.889 C 241.000 426.377,242.575 427.073,244.500 427.434 C 246.425 427.795,248.000 428.414,248.000 428.809 C 248.000 429.579,255.352 433.000,257.007 433.000 C 257.553 433.000,258.000 433.450,258.000 434.000 C 258.000 434.550,259.350 435.000,261.000 435.000 C 262.650 435.000,264.000 435.450,264.000 436.000 C 264.000 436.550,264.675 437.000,265.500 437.000 C 266.325 437.000,267.000 437.450,267.000 438.000 C 267.000 438.550,268.773 439.000,270.941 439.000 C 273.109 439.000,275.160 438.550,275.500 438.000 C 275.840 437.450,277.186 437.000,278.492 437.000 C 279.987 437.000,281.100 436.260,281.500 435.000 C 281.947 433.593,283.013 433.000,285.099 433.000 C 286.811 433.000,288.306 432.366,288.638 431.500 C 288.955 430.675,290.291 430.000,291.607 430.000 C 292.923 430.000,294.000 429.600,294.000 429.111 C 294.000 428.623,295.575 427.927,297.500 427.566 C 299.425 427.205,301.000 426.480,301.000 425.955 C 301.000 425.430,301.900 425.000,303.000 425.000 C 304.100 425.000,305.000 424.550,305.000 424.000 C 305.000 423.450,305.675 423.000,306.500 423.000 C 307.325 423.000,308.000 422.600,308.000 422.111 C 308.000 421.623,309.477 420.945,311.282 420.607 C 313.088 420.268,315.212 419.093,316.003 417.995 C 316.794 416.898,318.435 416.000,319.649 416.000 C 320.864 416.000,322.532 415.325,323.357 414.500 C 324.182 413.675,325.759 413.000,326.861 413.000 C 327.963 413.000,329.133 412.158,329.459 411.128 C 329.866 409.848,331.328 409.085,334.085 408.715 C 336.729 408.361,338.883 407.283,340.340 405.587 C 341.718 403.984,343.598 403.000,345.282 403.000 C 346.777 403.000,348.000 402.550,348.000 402.000 C 348.000 401.450,349.125 401.000,350.500 401.000 C 351.875 401.000,353.000 400.550,353.000 400.000 C 353.000 399.450,353.482 399.000,354.071 399.000 C 354.661 399.000,355.818 398.325,356.643 397.500 C 357.468 396.675,359.236 396.000,360.571 396.000 C 361.907 396.000,363.000 395.550,363.000 395.000 C 363.000 394.450,363.620 394.000,364.378 394.000 C 365.135 394.000,366.315 393.325,367.000 392.500 C 367.685 391.675,369.090 391.000,370.122 391.000 C 371.155 391.000,372.000 390.550,372.000 390.000 C 372.000 389.450,373.125 389.000,374.500 389.000 C 375.875 389.000,377.000 388.550,377.000 388.000 C 377.000 387.450,377.675 387.000,378.500 387.000 C 379.325 387.000,380.000 386.550,380.000 386.000 C 380.000 385.450,380.914 385.000,382.031 385.000 C 383.149 385.000,384.322 384.325,384.638 383.500 C 384.966 382.645,386.458 382.000,388.107 382.000 C 389.698 382.000,391.000 381.550,391.000 381.000 C 391.000 380.450,391.620 380.000,392.378 380.000 C 393.135 380.000,394.315 379.325,395.000 378.500 C 395.685 377.675,397.315 377.000,398.622 377.000 C 399.930 377.000,401.000 376.550,401.000 376.000 C 401.000 375.450,401.675 375.000,402.500 375.000 C 403.325 375.000,404.000 374.600,404.000 374.111 C 404.000 373.623,405.575 372.927,407.500 372.566 C 409.425 372.205,411.000 371.480,411.000 370.955 C 411.000 370.430,411.900 370.000,413.000 370.000 C 414.100 370.000,415.000 369.586,415.000 369.079 C 415.000 368.573,416.263 367.882,417.806 367.543 C 419.349 367.204,421.248 366.043,422.027 364.963 C 422.805 363.883,424.242 363.000,425.221 363.000 C 426.199 363.000,427.000 362.550,427.000 362.000 C 427.000 361.450,428.139 361.000,429.531 361.000 C 430.924 361.000,432.322 360.325,432.638 359.500 C 432.955 358.675,433.966 358.000,434.886 358.000 C 435.806 358.000,437.207 357.100,438.000 356.000 C 438.793 354.900,440.367 354.000,441.499 354.000 C 446.932 354.000,447.000 353.443,447.000 308.912 L 447.000 267.846 444.077 264.923 C 441.818 262.664,440.243 262.000,437.144 262.000 C 434.116 262.000,432.991 261.546,432.545 260.143 C 431.827 257.879,424.607 257.018,406.250 257.007 C 398.755 257.003,394.000 256.612,394.000 256.000 C 394.000 255.376,388.167 255.000,378.500 255.000 C 368.833 255.000,363.000 254.624,363.000 254.000 C 363.000 253.385,358.020 253.000,350.059 253.000 C 342.941 253.000,336.872 252.602,336.571 252.114 C 336.270 251.627,323.193 250.897,307.512 250.492 C 291.830 250.086,279.000 249.360,279.000 248.877 C 279.000 248.395,274.050 248.000,268.000 248.000 C 261.950 248.000,257.000 248.385,257.000 248.856 M272.000 259.000 C 272.000 259.621,277.500 260.000,286.500 260.000 C 295.500 260.000,301.000 260.379,301.000 261.000 C 301.000 261.621,306.480 262.000,315.441 262.000 C 323.990 262.000,330.134 262.408,330.500 263.000 C 330.853 263.571,335.969 264.000,342.434 264.000 C 354.385 264.000,360.000 264.679,360.000 266.125 C 360.000 266.606,357.525 267.000,354.500 267.000 C 351.475 267.000,349.000 267.401,349.000 267.892 C 349.000 268.383,344.500 269.106,339.000 269.500 C 333.500 269.894,329.000 270.617,329.000 271.108 C 329.000 271.599,326.300 272.000,323.000 272.000 C 319.667 272.000,317.000 272.444,317.000 273.000 C 317.000 273.556,314.333 274.000,311.000 274.000 C 307.700 274.000,305.000 274.400,305.000 274.889 C 305.000 275.379,299.600 276.103,293.000 276.500 C 286.400 276.897,281.000 277.621,281.000 278.111 C 281.000 278.600,278.525 279.000,275.500 279.000 C 272.475 279.000,270.000 279.450,270.000 280.000 C 270.000 280.578,266.833 281.000,262.500 281.000 C 258.167 281.000,255.000 280.578,255.000 280.000 C 255.000 279.444,252.333 279.000,249.000 279.000 C 245.700 279.000,243.000 278.600,243.000 278.111 C 243.000 277.621,237.600 276.897,231.000 276.500 C 224.400 276.103,219.000 275.379,219.000 274.889 C 219.000 274.400,216.750 274.000,214.000 274.000 C 211.250 274.000,209.000 273.550,209.000 273.000 C 209.000 272.450,206.975 272.000,204.500 272.000 C 202.025 272.000,200.000 271.600,200.000 271.111 C 200.000 270.621,194.600 269.897,188.000 269.500 C 181.400 269.103,176.000 268.379,176.000 267.889 C 176.000 267.400,173.300 267.000,170.000 267.000 C 166.700 267.000,164.000 266.618,164.000 266.152 C 164.000 265.155,180.957 264.000,195.597 264.000 C 201.375 264.000,206.153 263.562,206.500 263.000 C 206.861 262.417,212.510 262.000,220.059 262.000 C 228.020 262.000,233.000 261.615,233.000 261.000 C 233.000 260.378,238.647 260.000,247.941 260.000 C 256.823 260.000,263.133 259.594,263.500 259.000 C 263.840 258.450,265.891 258.000,268.059 258.000 C 270.227 258.000,272.000 258.450,272.000 259.000 M437.000 307.500 C 437.000 329.167,436.647 341.000,436.000 341.000 C 435.450 341.000,435.000 341.675,435.000 342.500 C 435.000 343.350,434.104 344.000,432.933 344.000 C 431.796 344.000,429.380 345.575,427.565 347.500 C 425.749 349.425,423.304 351.000,422.132 351.000 C 420.959 351.000,420.000 351.450,420.000 352.000 C 420.000 352.550,419.086 353.000,417.969 353.000 C 416.851 353.000,415.678 353.675,415.362 354.500 C 415.045 355.325,413.934 356.000,412.893 356.000 C 411.852 356.000,411.000 356.450,411.000 357.000 C 411.000 357.550,410.325 358.000,409.500 358.000 C 408.675 358.000,408.000 358.400,408.000 358.889 C 408.000 359.377,406.425 360.073,404.500 360.434 C 402.575 360.795,401.000 361.520,401.000 362.045 C 401.000 362.570,400.100 363.000,399.000 363.000 C 397.900 363.000,397.000 363.450,397.000 364.000 C 397.000 364.550,396.325 365.000,395.500 365.000 C 394.675 365.000,394.000 365.450,394.000 366.000 C 394.000 366.550,392.907 367.000,391.571 367.000 C 390.236 367.000,388.468 367.675,387.643 368.500 C 386.818 369.325,385.661 370.000,385.071 370.000 C 384.482 370.000,384.000 370.450,384.000 371.000 C 384.000 371.550,382.907 372.000,381.571 372.000 C 380.236 372.000,378.468 372.675,377.643 373.500 C 376.818 374.325,375.436 375.000,374.571 375.000 C 373.707 375.000,373.000 375.450,373.000 376.000 C 373.000 376.550,372.325 377.000,371.500 377.000 C 370.675 377.000,370.000 377.399,370.000 377.886 C 370.000 378.374,367.998 379.073,365.550 379.440 C 362.460 379.904,360.920 380.677,360.509 381.973 C 360.111 383.225,358.534 384.072,355.713 384.548 C 353.402 384.939,350.780 386.100,349.888 387.129 C 348.996 388.158,347.756 389.000,347.133 389.000 C 346.510 389.000,346.000 389.399,346.000 389.886 C 346.000 390.374,343.918 391.085,341.374 391.467 C 338.500 391.898,335.833 393.076,334.329 394.580 C 332.684 396.225,330.780 397.000,328.383 397.000 C 324.642 397.000,322.000 398.833,322.000 401.429 C 322.000 402.426,321.113 403.000,319.571 403.000 C 318.236 403.000,316.468 403.675,315.643 404.500 C 314.818 405.325,313.211 406.000,312.071 406.000 C 310.932 406.000,310.000 406.441,310.000 406.981 C 310.000 407.520,308.875 408.244,307.500 408.589 C 306.125 408.934,305.000 409.618,305.000 410.108 C 305.000 410.599,304.100 411.000,303.000 411.000 C 301.900 411.000,301.000 411.450,301.000 412.000 C 301.000 412.550,300.325 413.000,299.500 413.000 C 298.675 413.000,298.000 413.400,298.000 413.889 C 298.000 414.377,296.425 415.073,294.500 415.434 C 292.575 415.795,291.000 416.520,291.000 417.045 C 291.000 417.570,290.325 418.000,289.500 418.000 C 288.675 418.000,288.000 418.410,288.000 418.911 C 288.000 419.412,285.299 419.975,281.998 420.161 L 275.996 420.500 275.998 415.750 C 275.999 413.137,275.550 411.000,275.000 411.000 C 274.345 411.000,274.000 391.167,274.000 353.500 L 274.000 296.000 277.500 296.000 C 279.425 296.000,281.000 295.588,281.000 295.084 C 281.000 294.581,285.950 293.848,292.000 293.456 C 298.050 293.064,303.000 292.351,303.000 291.871 C 303.000 291.392,305.700 291.000,309.000 291.000 C 312.300 291.000,315.000 290.600,315.000 290.111 C 315.000 289.621,320.400 288.897,327.000 288.500 C 333.600 288.103,339.000 287.379,339.000 286.889 C 339.000 286.400,341.250 286.000,344.000 286.000 C 346.750 286.000,349.000 285.550,349.000 285.000 C 349.000 284.450,351.438 284.000,354.417 284.000 C 357.396 284.000,359.983 283.573,360.167 283.051 C 360.350 282.528,365.788 281.787,372.250 281.404 C 378.712 281.020,384.000 280.323,384.000 279.853 C 384.000 279.384,386.700 279.000,390.000 279.000 C 393.300 279.000,396.000 278.600,396.000 278.111 C 396.000 277.621,401.400 276.897,408.000 276.500 C 414.600 276.103,420.000 275.379,420.000 274.889 C 420.000 274.400,423.825 274.000,428.500 274.000 L 437.000 274.000 437.000 307.500 " stroke="none" fill-rule="evenodd"></path>
</g>
</svg>