<svg version="1.1" width="515" height="515" xmlns="http://www.w3.org/2000/svg">
<g>
<path d="M260.000 55.000 C 260.000 55.550,259.325 56.000,258.500 56.000 C 257.675 56.000,257.000 56.382,257.000 56.849 C 257.000 57.316,254.975 58.534,252.500 59.554 C 250.025 60.575,248.000 61.732,248.000 62.126 C 248.000 62.519,246.538 63.162,244.751 63.555 C 242.964 63.947,240.774 65.108,239.884 66.134 C 238.994 67.160,237.306 68.000,236.133 68.000 C 234.960 68.000,234.000 68.430,234.000 68.955 C 234.000 69.480,232.425 70.205,230.500 70.566 C 228.575 70.927,227.000 71.623,227.000 72.111 C 227.000 72.600,226.325 73.000,225.500 73.000 C 224.675 73.000,224.000 73.450,224.000 74.000 C 224.000 74.550,222.907 75.000,221.571 75.000 C 220.236 75.000,218.468 75.675,217.643 76.500 C 216.818 77.325,215.854 78.000,215.500 78.000 C 212.033 78.000,212.000 78.825,212.000 164.429 L 212.000 248.000 203.929 248.000 C 192.571 248.000,193.000 247.162,193.000 269.322 C 193.000 290.968,191.541 289.000,207.582 289.000 C 214.527 289.000,219.000 289.392,219.000 290.000 C 219.000 290.587,215.528 291.000,210.583 291.000 C 205.954 291.000,202.017 291.415,201.833 291.922 C 201.650 292.429,194.637 293.166,186.250 293.561 C 177.863 293.956,171.000 294.667,171.000 295.140 C 171.000 295.613,167.850 296.000,164.000 296.000 C 160.000 296.000,157.000 296.429,157.000 297.000 C 157.000 297.571,154.000 298.000,150.000 298.000 C 146.000 298.000,143.000 298.429,143.000 299.000 C 143.000 299.550,140.750 300.000,138.000 300.000 C 135.250 300.000,133.000 299.550,133.000 299.000 C 133.000 298.444,130.326 298.000,126.978 298.000 L 120.957 298.000 121.026 333.619 C 121.101 372.478,120.943 371.439,126.942 372.638 C 128.624 372.975,130.000 373.644,130.000 374.125 C 130.000 374.606,131.017 375.000,132.259 375.000 C 133.502 375.000,135.056 375.860,135.712 376.910 C 136.368 377.961,138.276 379.121,139.952 379.490 C 141.629 379.858,143.000 380.573,143.000 381.079 C 143.000 381.586,143.900 382.000,145.000 382.000 C 146.100 382.000,147.000 382.450,147.000 383.000 C 147.000 383.550,148.800 384.000,151.000 384.000 C 153.200 384.000,155.000 383.550,155.000 383.000 C 155.000 382.450,157.025 382.000,159.500 382.000 C 161.975 382.000,164.000 381.550,164.000 381.000 C 164.000 380.450,165.012 379.997,166.250 379.994 C 167.488 379.990,169.789 379.315,171.364 378.494 C 172.940 377.672,175.302 377.000,176.614 377.000 C 177.926 377.000,179.000 376.550,179.000 376.000 C 179.000 375.450,181.025 375.000,183.500 375.000 C 185.975 375.000,188.000 374.550,188.000 374.000 C 188.000 373.450,189.125 373.000,190.500 373.000 L 193.000 373.000 193.000 389.071 C 193.000 406.793,193.225 407.505,199.192 408.676 C 201.011 409.033,203.228 410.152,204.117 411.163 C 205.980 413.279,208.597 413.572,209.349 411.750 C 209.666 410.983,210.122 411.342,210.531 412.681 C 210.937 414.009,211.745 414.651,212.599 414.324 C 213.369 414.028,214.000 414.284,214.000 414.893 C 214.000 415.502,214.510 416.000,215.133 416.000 C 215.756 416.000,216.993 416.832,217.883 417.849 C 218.772 418.866,221.090 419.993,223.032 420.353 C 224.975 420.714,227.212 421.907,228.003 423.005 C 228.794 424.102,230.242 425.000,231.221 425.000 C 232.199 425.000,233.000 425.384,233.000 425.852 C 233.000 426.321,237.319 427.008,242.599 427.380 C 252.342 428.064,255.000 429.162,255.000 432.500 C 255.000 437.544,263.660 438.377,267.112 433.665 C 267.448 433.206,271.385 432.579,275.862 432.272 C 280.338 431.965,284.000 431.329,284.000 430.857 C 284.000 430.386,285.125 430.000,286.500 430.000 C 287.875 430.000,289.000 429.550,289.000 429.000 C 289.000 428.450,289.837 428.000,290.860 428.000 C 291.883 428.000,293.565 426.875,294.597 425.500 C 295.631 424.123,297.491 423.000,298.737 423.000 C 299.982 423.000,301.000 422.606,301.000 422.125 C 301.000 421.644,302.362 420.978,304.026 420.645 C 310.244 419.401,312.000 416.187,312.000 406.045 C 312.000 400.682,311.593 397.000,311.000 397.000 C 310.342 397.000,310.000 371.833,310.000 323.500 L 310.000 250.000 318.133 250.000 C 330.258 250.000,330.004 250.524,329.985 225.597 C 329.967 202.486,330.282 203.490,322.750 202.563 C 314.986 201.608,315.457 200.000,323.500 200.000 C 327.075 200.000,330.000 199.619,330.000 199.153 C 330.000 198.687,337.762 197.993,347.250 197.610 C 356.738 197.227,364.650 196.483,364.833 195.957 C 365.384 194.376,371.722 194.833,372.362 196.500 C 372.756 197.528,374.363 198.000,377.469 198.000 C 379.961 198.000,382.000 198.450,382.000 199.000 C 382.000 199.550,384.250 200.000,387.000 200.000 C 389.750 200.000,392.000 200.450,392.000 201.000 C 392.000 203.042,398.085 202.006,400.545 199.545 L 403.000 197.091 403.000 161.226 L 403.000 125.361 400.492 123.180 C 399.113 121.981,397.538 121.000,396.992 121.000 C 396.447 121.000,396.000 120.550,396.000 120.000 C 396.000 119.450,395.086 119.000,393.969 119.000 C 392.851 119.000,391.678 118.325,391.362 117.500 C 391.045 116.675,390.099 116.000,389.260 116.000 C 388.421 116.000,386.965 115.112,386.023 114.027 C 382.974 110.511,373.384 110.064,371.879 113.367 C 370.570 116.240,369.490 116.693,368.583 114.750 C 368.117 113.750,367.883 113.750,367.417 114.750 C 367.096 115.438,365.296 116.000,363.417 116.000 C 361.538 116.000,360.000 116.392,360.000 116.871 C 360.000 117.350,357.300 118.047,354.000 118.420 C 350.700 118.794,348.000 119.527,348.000 120.050 C 348.000 120.572,346.688 121.000,345.083 121.000 C 343.479 121.000,342.017 121.408,341.833 121.906 C 341.650 122.405,338.913 123.132,335.750 123.522 L 330.000 124.230 330.000 106.337 C 330.000 88.243,329.304 85.000,325.417 85.000 C 325.109 85.000,324.182 84.325,323.357 83.500 C 322.532 82.675,320.989 82.000,319.929 82.000 C 318.868 82.000,318.000 81.550,318.000 81.000 C 318.000 80.450,317.490 80.000,316.867 80.000 C 316.244 80.000,315.004 79.158,314.112 78.129 C 313.220 77.100,310.469 75.917,308.000 75.500 C 305.531 75.083,302.833 73.964,302.005 73.014 C 301.177 72.064,299.488 70.966,298.250 70.576 C 297.012 70.185,296.000 69.446,296.000 68.933 C 296.000 68.420,294.425 68.000,292.500 68.000 C 290.575 68.000,289.000 67.550,289.000 67.000 C 289.000 66.450,288.325 66.000,287.500 66.000 C 286.675 66.000,286.000 65.559,286.000 65.019 C 286.000 64.480,284.875 63.756,283.500 63.411 C 282.125 63.066,281.000 62.382,281.000 61.892 C 281.000 61.401,280.148 61.000,279.107 61.000 C 278.066 61.000,276.955 60.325,276.638 59.500 C 276.302 58.623,274.803 58.000,273.031 58.000 C 271.364 58.000,270.000 57.550,270.000 57.000 C 270.000 56.450,269.325 56.000,268.500 56.000 C 267.675 56.000,267.000 55.550,267.000 55.000 C 267.000 54.450,265.425 54.000,263.500 54.000 C 261.575 54.000,260.000 54.450,260.000 55.000 M269.362 69.500 C 269.678 70.325,270.851 71.000,271.969 71.000 C 273.086 71.000,274.000 71.450,274.000 72.000 C 274.000 72.550,274.675 73.000,275.500 73.000 C 276.325 73.000,277.000 73.441,277.000 73.981 C 277.000 74.520,278.125 75.244,279.500 75.589 C 280.875 75.934,282.000 76.618,282.000 77.108 C 282.000 77.599,282.900 78.000,284.000 78.000 C 285.100 78.000,286.000 78.450,286.000 79.000 C 286.000 79.550,287.125 80.000,288.500 80.000 C 289.875 80.000,291.000 80.401,291.000 80.892 C 291.000 81.382,292.125 82.066,293.500 82.411 C 294.875 82.756,296.000 83.480,296.000 84.019 C 296.000 84.559,297.125 85.000,298.500 85.000 C 299.875 85.000,301.000 85.450,301.000 86.000 C 301.000 86.550,302.093 87.000,303.429 87.000 C 304.764 87.000,306.532 87.675,307.357 88.500 C 308.182 89.325,309.564 90.000,310.429 90.000 C 311.293 90.000,312.000 90.450,312.000 91.000 C 312.000 91.550,312.675 92.000,313.500 92.000 C 314.325 92.000,315.000 92.441,315.000 92.981 C 315.000 93.520,316.125 94.244,317.500 94.589 C 320.168 95.259,321.483 110.965,319.000 112.500 C 318.450 112.840,318.000 114.891,318.000 117.059 C 318.000 120.771,317.826 121.000,315.000 121.000 C 313.350 121.000,312.000 121.423,312.000 121.939 C 312.000 122.456,308.850 123.189,305.000 123.569 C 301.150 123.948,298.000 124.650,298.000 125.129 C 298.000 125.608,296.425 126.000,294.500 126.000 C 292.575 126.000,291.000 126.450,291.000 127.000 C 291.000 127.550,289.875 128.000,288.500 128.000 C 287.125 128.000,286.000 128.450,286.000 129.000 C 286.000 129.550,285.200 130.000,284.222 130.000 C 279.179 130.000,279.000 131.368,279.000 170.000 C 279.000 208.632,279.179 210.000,284.222 210.000 C 285.200 210.000,286.000 210.450,286.000 211.000 C 286.000 211.550,287.800 212.000,290.000 212.000 C 292.200 212.000,294.000 212.450,294.000 213.000 C 294.000 214.522,304.983 214.274,305.079 212.750 C 305.138 211.818,305.282 211.804,305.644 212.696 C 305.914 213.359,309.220 214.196,313.065 214.575 L 320.000 215.258 320.000 227.129 L 320.000 239.000 311.867 239.000 C 303.507 239.000,300.000 240.671,300.000 244.653 C 300.000 245.394,299.550 246.000,299.000 246.000 C 297.715 246.000,297.683 256.724,298.967 257.167 C 300.545 257.711,300.827 409.001,299.250 409.000 C 298.563 409.000,298.000 409.450,298.000 410.000 C 298.000 410.550,297.100 411.000,296.000 411.000 C 294.900 411.000,294.000 411.450,294.000 412.000 C 294.000 412.550,292.393 413.000,290.429 413.000 C 286.934 413.000,284.000 414.793,284.000 416.929 C 284.000 417.518,282.462 418.000,280.583 418.000 C 278.704 418.000,277.017 418.380,276.833 418.846 C 276.650 419.311,274.363 419.977,271.750 420.326 L 267.000 420.962 267.000 244.481 C 267.000 141.589,267.372 68.000,267.893 68.000 C 268.384 68.000,269.045 68.675,269.362 69.500 M391.082 131.000 C 391.616 131.000,392.000 141.877,392.000 157.000 L 392.000 183.000 387.000 183.000 C 384.250 183.000,382.000 183.450,382.000 184.000 C 382.000 184.550,381.550 185.000,381.000 185.000 C 380.360 185.000,380.000 176.000,380.000 160.000 C 380.000 135.379,380.031 135.000,382.071 135.000 C 384.341 135.000,387.000 132.823,387.000 130.964 C 387.000 130.301,387.691 130.051,388.582 130.393 C 389.452 130.727,390.577 131.000,391.082 131.000 M226.373 313.250 C 226.689 319.988,226.847 331.687,226.724 339.248 L 226.500 352.996 220.857 352.998 C 216.765 352.999,215.056 353.412,214.638 354.500 C 214.244 355.528,212.637 356.000,209.531 356.000 C 207.039 356.000,205.000 356.450,205.000 357.000 C 205.000 357.550,203.473 358.000,201.607 358.000 C 199.513 358.000,197.994 358.574,197.638 359.500 C 197.223 360.583,195.526 361.000,191.531 361.000 C 188.489 361.000,186.000 361.450,186.000 362.000 C 186.000 362.550,184.875 363.000,183.500 363.000 C 182.125 363.000,181.000 363.450,181.000 364.000 C 181.000 364.570,178.036 365.000,174.107 365.000 C 168.902 365.000,167.073 365.367,166.638 366.500 C 166.322 367.325,165.149 368.000,164.031 368.000 C 162.914 368.000,162.000 368.450,162.000 369.000 C 162.000 369.550,160.875 370.000,159.500 370.000 C 158.125 370.000,157.000 370.450,157.000 371.000 C 157.000 371.550,156.550 372.000,156.000 372.000 C 155.446 372.000,155.000 369.357,155.000 366.071 C 155.000 362.135,154.496 359.639,153.500 358.643 C 151.735 356.878,151.211 315.000,152.955 315.000 C 153.480 315.000,154.205 313.425,154.566 311.500 C 155.196 308.144,155.399 308.000,159.528 308.000 C 161.896 308.000,163.983 307.585,164.167 307.078 C 164.350 306.571,171.363 305.834,179.750 305.439 C 188.137 305.044,195.000 304.333,195.000 303.860 C 195.000 303.387,198.150 303.000,202.000 303.000 C 206.000 303.000,209.000 302.571,209.000 302.000 C 209.000 301.413,212.466 301.000,217.399 301.000 L 225.799 301.000 226.373 313.250 " stroke="none" fill-rule="evenodd"></path>
</g>
</svg>