<svg version="1.1" width="515" height="515" xmlns="http://www.w3.org/2000/svg"><g><path d="M113.795 90.000 C 113.683 105.400,113.570 119.858,113.545 122.130 C 113.500 126.220,113.548 126.274,118.500 127.833 C 121.250 128.698,123.636 129.722,123.802 130.108 C 123.968 130.494,126.105 131.401,128.552 132.123 C 130.998 132.846,133.000 133.716,133.000 134.058 C 133.000 134.399,135.925 135.515,139.500 136.538 C 143.075 137.560,146.000 138.757,146.000 139.198 C 146.000 139.639,197.075 140.000,259.500 140.000 C 332.326 140.000,373.000 139.652,373.000 139.028 C 373.000 138.493,375.475 137.336,378.500 136.457 C 381.525 135.578,384.000 134.493,384.000 134.048 C 384.000 133.602,386.025 132.728,388.500 132.104 C 390.975 131.481,393.000 130.576,393.000 130.094 C 393.000 129.612,394.238 128.928,395.750 128.574 C 397.262 128.220,399.738 127.442,401.250 126.844 L 404.000 125.757 404.000 93.879 L 404.000 62.000 259.000 62.000 L 114.000 62.000 113.795 90.000 M366.500 128.000 C 363.976 129.085,155.387 129.085,152.000 128.000 C 150.625 127.560,198.775 127.186,259.000 127.170 C 320.915 127.153,367.631 127.514,366.500 128.000 M225.000 163.801 C 213.725 164.637,204.275 165.637,204.000 166.025 C 203.725 166.412,194.613 167.310,183.750 168.020 C 172.887 168.730,164.000 169.606,164.000 169.967 C 164.000 170.328,151.738 171.458,136.750 172.479 C 121.762 173.499,109.275 174.636,109.000 175.004 C 108.725 175.372,101.103 176.194,92.063 176.831 C 81.062 177.605,75.362 178.403,74.828 179.244 C 73.826 180.822,73.767 235.093,74.765 236.633 C 75.227 237.344,84.985 238.434,101.000 239.562 C 115.025 240.550,126.725 241.664,127.000 242.037 C 127.275 242.411,136.275 243.303,147.000 244.020 C 157.725 244.738,166.725 245.621,167.000 245.983 C 167.455 246.582,183.396 247.958,209.500 249.651 C 215.000 250.008,219.725 250.620,220.000 251.010 C 220.478 251.688,249.366 254.000,257.363 254.000 C 260.346 254.000,261.302 253.560,261.710 252.000 C 262.047 250.711,263.170 249.934,264.867 249.814 C 266.315 249.711,269.300 249.521,271.500 249.391 C 273.700 249.260,278.425 248.920,282.000 248.635 C 285.575 248.349,292.663 247.798,297.750 247.410 C 302.837 247.022,307.000 246.321,307.000 245.852 C 307.000 245.383,308.125 245.000,309.500 245.000 C 310.875 245.000,312.000 245.450,312.000 246.000 C 312.000 247.363,314.743 247.272,315.202 245.894 C 315.405 245.285,318.480 244.636,322.035 244.451 C 337.261 243.660,347.000 242.646,347.000 241.852 C 347.000 241.383,348.125 241.000,349.500 241.000 C 350.875 241.000,352.000 241.450,352.000 242.000 C 352.000 243.349,354.740 243.279,355.194 241.919 C 355.397 241.310,358.950 240.685,363.326 240.487 C 367.601 240.295,372.313 239.891,373.799 239.591 C 375.285 239.290,381.871 238.812,388.437 238.529 C 395.002 238.246,400.630 237.599,400.943 237.092 C 401.431 236.303,407.534 235.768,430.500 234.499 C 432.700 234.378,435.288 234.216,436.250 234.139 C 437.868 234.011,438.000 232.049,438.000 208.138 L 438.000 182.275 432.250 181.543 C 429.087 181.140,423.161 180.644,419.081 180.441 C 414.553 180.215,411.309 179.570,410.755 178.786 C 410.036 177.767,409.742 177.760,409.341 178.750 C 408.778 180.137,404.000 180.496,404.000 179.151 C 404.000 178.315,394.158 177.380,374.505 176.350 C 369.008 176.062,364.263 175.425,363.960 174.935 C 363.656 174.444,357.354 173.780,349.954 173.459 C 342.554 173.137,335.790 172.672,334.922 172.425 C 334.054 172.177,329.579 171.752,324.977 171.481 C 319.967 171.185,316.257 170.488,315.729 169.744 C 315.027 168.753,314.745 168.754,314.341 169.750 C 313.733 171.248,308.312 171.435,307.825 169.975 C 307.637 169.411,304.337 168.774,300.492 168.560 C 296.646 168.346,287.875 167.872,281.000 167.508 C 274.125 167.143,268.350 166.430,268.167 165.923 C 267.983 165.415,266.569 165.000,265.024 165.000 C 263.449 165.000,261.961 164.341,261.638 163.500 C 260.918 161.622,253.603 161.682,225.000 163.801 M252.000 208.000 L 252.000 243.000 246.000 243.000 C 242.700 243.000,240.000 242.625,240.000 242.167 C 240.000 241.709,228.075 240.505,213.500 239.491 C 198.925 238.476,187.000 237.346,187.000 236.979 C 187.000 236.611,178.113 235.730,167.250 235.020 C 156.387 234.310,147.275 233.403,147.000 233.005 C 146.544 232.344,127.501 230.742,102.750 229.284 C 97.388 228.968,93.000 228.325,93.000 227.855 C 93.000 227.385,90.975 227.000,88.500 227.000 L 84.000 227.000 84.000 208.000 L 84.000 189.000 86.500 189.000 C 87.875 189.000,89.000 188.631,89.000 188.179 C 89.000 187.728,98.450 186.758,110.000 186.024 C 121.550 185.290,131.000 184.394,131.000 184.033 C 131.000 183.672,143.150 182.540,158.000 181.518 C 172.850 180.497,185.000 179.361,185.000 178.994 C 185.000 178.628,194.225 177.730,205.500 177.000 C 216.775 176.270,226.000 175.316,226.000 174.882 C 226.000 174.131,231.847 173.632,245.750 173.196 L 252.000 173.000 252.000 208.000 M147.250 280.119 C 145.463 280.635,144.000 281.494,144.000 282.029 C 144.000 282.563,143.213 283.003,142.250 283.006 C 141.287 283.010,139.211 283.685,137.636 284.506 C 136.060 285.328,133.923 286.000,132.886 286.000 C 131.849 286.000,131.000 286.430,131.000 286.955 C 131.000 287.480,129.439 288.202,127.532 288.560 C 125.624 288.918,123.080 290.063,121.878 291.105 C 120.677 292.147,118.686 293.000,117.454 293.000 C 114.098 293.000,114.000 293.899,114.000 324.582 L 114.000 353.000 259.000 353.000 L 404.000 353.000 404.000 324.722 C 404.000 293.002,404.127 293.544,396.395 292.289 C 394.528 291.986,393.000 291.324,393.000 290.817 C 393.000 290.310,391.650 289.425,390.000 288.850 C 388.350 288.275,387.000 287.398,387.000 286.902 C 387.000 286.406,385.988 285.984,384.750 285.965 C 383.512 285.945,381.375 285.286,380.000 284.500 C 378.625 283.714,376.488 283.055,375.250 283.035 C 374.012 283.016,373.000 282.622,373.000 282.161 C 373.000 279.161,367.052 279.001,259.203 279.090 C 194.762 279.144,149.177 279.562,147.250 280.119 " stroke="none" fill-rule="evenodd"></path></g></svg>