<svg version="1.1" width="515" height="515" xmlns="http://www.w3.org/2000/svg">
<g>
<path d="M207.000 47.500 C 207.000 49.500,206.500 50.000,204.500 50.000 C 202.944 50.000,202.000 50.567,202.000 51.500 C 202.000 52.433,201.056 53.000,199.500 53.000 C 198.125 53.000,197.000 53.450,197.000 54.000 C 197.000 54.550,195.875 55.000,194.500 55.000 C 192.944 55.000,192.000 55.567,192.000 56.500 C 192.000 57.583,190.889 58.000,188.000 58.000 C 185.111 58.000,184.000 58.417,184.000 59.500 C 184.000 60.433,183.056 61.000,181.500 61.000 C 180.125 61.000,179.000 61.450,179.000 62.000 C 179.000 62.550,178.325 63.000,177.500 63.000 C 176.675 63.000,176.000 63.675,176.000 64.500 C 176.000 65.325,175.550 66.000,175.000 66.000 C 174.366 66.000,174.000 73.500,174.000 86.500 L 174.000 107.000 170.000 107.000 C 167.111 107.000,166.000 106.583,166.000 105.500 C 166.000 104.321,164.611 104.000,159.500 104.000 C 154.389 104.000,153.000 104.321,153.000 105.500 C 153.000 106.325,152.550 107.000,152.000 107.000 C 151.450 107.000,151.000 108.125,151.000 109.500 C 151.000 111.750,150.600 112.000,147.000 112.000 C 144.111 112.000,143.000 112.417,143.000 113.500 C 143.000 114.433,142.056 115.000,140.500 115.000 C 139.125 115.000,138.000 115.450,138.000 116.000 C 138.000 116.550,136.875 117.000,135.500 117.000 C 133.944 117.000,133.000 117.567,133.000 118.500 C 133.000 119.500,132.000 120.000,130.000 120.000 L 127.000 120.000 127.000 208.500 L 127.000 297.000 124.500 297.000 C 122.944 297.000,122.000 297.567,122.000 298.500 C 122.000 299.679,120.611 300.000,115.500 300.000 C 110.389 300.000,109.000 300.321,109.000 301.500 C 109.000 302.667,107.667 303.000,103.000 303.000 C 99.667 303.000,97.000 303.444,97.000 304.000 C 97.000 304.550,96.325 305.000,95.500 305.000 C 94.215 305.000,94.000 307.944,94.000 325.500 L 94.000 346.000 96.500 346.000 C 98.056 346.000,99.000 346.567,99.000 347.500 C 99.000 348.433,99.944 349.000,101.500 349.000 C 102.875 349.000,104.000 349.450,104.000 350.000 C 104.000 350.550,105.125 351.000,106.500 351.000 C 108.056 351.000,109.000 351.567,109.000 352.500 C 109.000 353.500,110.000 354.000,112.000 354.000 C 114.000 354.000,115.000 354.500,115.000 355.500 C 115.000 356.433,115.944 357.000,117.500 357.000 C 118.875 357.000,120.000 357.450,120.000 358.000 C 120.000 358.550,121.125 359.000,122.500 359.000 C 124.056 359.000,125.000 359.567,125.000 360.500 C 125.000 361.433,125.944 362.000,127.500 362.000 C 128.875 362.000,130.000 362.450,130.000 363.000 C 130.000 363.550,131.125 364.000,132.500 364.000 C 134.056 364.000,135.000 364.567,135.000 365.500 C 135.000 366.433,135.944 367.000,137.500 367.000 C 138.875 367.000,140.000 367.363,140.000 367.808 C 140.000 368.817,147.089 372.000,149.336 372.000 C 150.251 372.000,151.000 372.675,151.000 373.500 C 151.000 374.433,151.944 375.000,153.500 375.000 C 154.875 375.000,156.000 375.450,156.000 376.000 C 156.000 376.550,157.125 377.000,158.500 377.000 C 160.056 377.000,161.000 377.567,161.000 378.500 C 161.000 379.433,161.944 380.000,163.500 380.000 C 164.875 380.000,166.000 380.450,166.000 381.000 C 166.000 381.550,167.125 382.000,168.500 382.000 C 170.056 382.000,171.000 382.567,171.000 383.500 C 171.000 384.415,171.933 385.000,173.393 385.000 C 174.709 385.000,176.045 385.675,176.362 386.500 C 176.678 387.325,178.076 388.000,179.469 388.000 C 180.861 388.000,182.000 388.450,182.000 389.000 C 182.000 389.550,183.125 390.000,184.500 390.000 C 186.056 390.000,187.000 390.567,187.000 391.500 C 187.000 392.433,187.944 393.000,189.500 393.000 C 190.875 393.000,192.000 393.450,192.000 394.000 C 192.000 394.550,193.125 395.000,194.500 395.000 C 196.056 395.000,197.000 395.567,197.000 396.500 C 197.000 397.433,197.944 398.000,199.500 398.000 C 200.875 398.000,202.000 398.450,202.000 399.000 C 202.000 399.550,203.800 400.000,206.000 400.000 C 208.200 400.000,210.000 400.445,210.000 400.989 C 210.000 402.943,213.490 406.000,215.722 406.000 C 216.975 406.000,218.000 406.450,218.000 407.000 C 218.000 407.550,219.125 408.000,220.500 408.000 C 222.056 408.000,223.000 408.567,223.000 409.500 C 223.000 410.433,223.944 411.000,225.500 411.000 C 226.875 411.000,228.000 411.450,228.000 412.000 C 228.000 412.550,229.800 413.000,232.000 413.000 C 234.200 413.000,236.000 413.482,236.000 414.071 C 236.000 415.836,238.715 418.000,240.929 418.000 C 242.103 418.000,243.000 418.649,243.000 419.500 C 243.000 420.438,243.948 421.000,245.531 421.000 C 246.924 421.000,248.322 421.675,248.638 422.500 C 248.955 423.325,250.098 424.000,251.178 424.000 C 253.735 424.000,256.000 426.315,256.000 428.929 C 256.000 430.103,256.649 431.000,257.500 431.000 C 258.325 431.000,259.000 431.675,259.000 432.500 C 259.000 433.633,260.222 434.000,264.000 434.000 C 267.778 434.000,269.000 433.633,269.000 432.500 C 269.000 431.417,270.111 431.000,273.000 431.000 C 275.200 431.000,277.000 430.550,277.000 430.000 C 277.000 429.450,278.125 429.000,279.500 429.000 C 281.056 429.000,282.000 428.433,282.000 427.500 C 282.000 426.675,282.675 426.000,283.500 426.000 C 284.325 426.000,285.000 425.550,285.000 425.000 C 285.000 424.450,286.125 424.000,287.500 424.000 C 289.056 424.000,290.000 423.433,290.000 422.500 C 290.000 421.567,290.944 421.000,292.500 421.000 C 294.056 421.000,295.000 420.433,295.000 419.500 C 295.000 418.417,296.111 418.000,299.000 418.000 C 301.200 418.000,303.000 417.550,303.000 417.000 C 303.000 416.450,304.125 416.000,305.500 416.000 C 307.056 416.000,308.000 415.433,308.000 414.500 C 308.000 413.649,308.897 413.000,310.071 413.000 C 312.285 413.000,315.000 410.836,315.000 409.071 C 315.000 408.482,316.350 408.000,318.000 408.000 C 319.650 408.000,321.000 407.550,321.000 407.000 C 321.000 406.450,322.125 406.000,323.500 406.000 C 325.056 406.000,326.000 405.433,326.000 404.500 C 326.000 403.452,327.056 403.000,329.500 403.000 C 331.944 403.000,333.000 402.548,333.000 401.500 C 333.000 400.556,333.952 400.000,335.571 400.000 C 338.208 400.000,341.000 397.980,341.000 396.071 C 341.000 395.482,342.125 395.000,343.500 395.000 C 344.875 395.000,346.000 394.550,346.000 394.000 C 346.000 393.450,347.125 393.000,348.500 393.000 C 350.056 393.000,351.000 392.433,351.000 391.500 C 351.000 390.417,352.111 390.000,355.000 390.000 C 357.200 390.000,359.000 389.550,359.000 389.000 C 359.000 388.450,360.125 388.000,361.500 388.000 C 363.056 388.000,364.000 387.433,364.000 386.500 C 364.000 385.675,364.675 385.000,365.500 385.000 C 366.325 385.000,367.000 384.325,367.000 383.500 C 367.000 382.567,367.944 382.000,369.500 382.000 C 370.875 382.000,372.000 381.550,372.000 381.000 C 372.000 380.450,373.125 380.000,374.500 380.000 C 376.056 380.000,377.000 379.433,377.000 378.500 C 377.000 377.417,378.111 377.000,381.000 377.000 C 383.200 377.000,385.000 376.550,385.000 376.000 C 385.000 375.450,386.125 375.000,387.500 375.000 C 389.056 375.000,390.000 374.433,390.000 373.500 C 390.000 372.635,390.904 372.000,392.135 372.000 C 393.310 372.000,395.313 370.875,396.588 369.500 C 397.862 368.125,399.826 367.000,400.952 367.000 C 402.106 367.000,403.000 366.345,403.000 365.500 C 403.000 364.417,404.111 364.000,407.000 364.000 C 409.200 364.000,411.000 363.550,411.000 363.000 C 411.000 362.450,412.125 362.000,413.500 362.000 C 415.056 362.000,416.000 361.433,416.000 360.500 C 416.000 359.635,416.904 359.000,418.135 359.000 C 419.310 359.000,421.313 357.875,422.588 356.500 C 423.862 355.125,425.826 354.000,426.952 354.000 C 428.106 354.000,429.000 353.345,429.000 352.500 C 429.000 351.452,430.056 351.000,432.500 351.000 C 434.425 351.000,436.000 350.550,436.000 350.000 C 436.000 349.450,436.675 349.000,437.500 349.000 C 438.782 349.000,439.000 346.167,439.000 329.500 C 439.000 316.300,438.654 310.000,437.929 310.000 C 437.339 310.000,436.214 309.357,435.429 308.571 C 434.643 307.786,434.000 306.661,434.000 306.071 C 434.000 305.419,431.456 305.000,427.500 305.000 C 423.833 305.000,421.000 304.564,421.000 304.000 C 421.000 303.450,420.325 303.000,419.500 303.000 C 418.675 303.000,418.000 302.325,418.000 301.500 C 418.000 300.278,416.333 300.000,409.000 300.000 C 401.667 300.000,400.000 299.722,400.000 298.500 C 400.000 297.367,398.778 297.000,395.000 297.000 L 390.000 297.000 389.968 273.250 C 389.931 245.277,390.165 246.000,381.140 246.000 C 377.713 246.000,375.000 246.442,375.000 247.000 C 375.000 247.603,370.833 248.000,364.500 248.000 C 358.167 248.000,354.000 247.603,354.000 247.000 C 354.000 246.450,353.325 246.000,352.500 246.000 C 351.181 246.000,351.000 237.444,351.000 175.000 C 351.000 112.556,351.181 104.000,352.500 104.000 C 353.633 104.000,354.000 102.778,354.000 99.000 C 354.000 95.222,353.633 94.000,352.500 94.000 C 351.675 94.000,351.000 93.325,351.000 92.500 C 351.000 91.367,349.778 91.000,346.000 91.000 C 343.250 91.000,341.000 90.550,341.000 90.000 C 341.000 89.450,339.875 89.000,338.500 89.000 C 336.944 89.000,336.000 88.433,336.000 87.500 C 336.000 86.567,335.056 86.000,333.500 86.000 C 332.125 86.000,331.000 85.550,331.000 85.000 C 331.000 84.450,328.750 84.000,326.000 84.000 C 322.222 84.000,321.000 83.633,321.000 82.500 C 321.000 81.500,320.000 81.000,318.000 81.000 C 316.350 81.000,315.000 80.550,315.000 80.000 C 315.000 79.450,313.875 79.000,312.500 79.000 C 310.944 79.000,310.000 78.433,310.000 77.500 C 310.000 76.461,308.956 76.000,306.607 76.000 C 304.513 76.000,302.994 75.426,302.638 74.500 C 302.322 73.675,300.924 73.000,299.531 73.000 C 298.139 73.000,297.000 72.550,297.000 72.000 C 297.000 71.450,295.425 71.000,293.500 71.000 C 291.056 71.000,290.000 70.548,290.000 69.500 C 290.000 68.567,289.056 68.000,287.500 68.000 C 286.125 68.000,285.000 67.550,285.000 67.000 C 285.000 66.450,283.200 66.000,281.000 66.000 C 278.111 66.000,277.000 65.583,277.000 64.500 C 277.000 63.417,275.889 63.000,273.000 63.000 C 270.800 63.000,269.000 62.550,269.000 62.000 C 269.000 61.450,267.875 61.000,266.500 61.000 C 264.944 61.000,264.000 60.433,264.000 59.500 C 264.000 58.367,262.778 58.000,259.000 58.000 C 255.222 58.000,254.000 57.633,254.000 56.500 C 254.000 55.675,253.325 55.000,252.500 55.000 C 251.675 55.000,251.000 54.550,251.000 54.000 C 251.000 53.450,249.200 53.000,247.000 53.000 C 244.111 53.000,243.000 52.583,243.000 51.500 C 243.000 50.452,241.944 50.000,239.500 50.000 C 237.575 50.000,236.000 49.550,236.000 49.000 C 236.000 48.450,234.650 48.000,233.000 48.000 C 231.000 48.000,230.000 47.500,230.000 46.500 C 230.000 45.254,228.056 45.000,218.500 45.000 L 207.000 45.000 207.000 47.500 M225.000 64.500 C 225.000 65.583,226.111 66.000,229.000 66.000 C 231.200 66.000,233.000 66.450,233.000 67.000 C 233.000 67.550,234.800 68.000,237.000 68.000 C 239.200 68.000,241.000 68.482,241.000 69.071 C 241.000 71.500,244.027 73.000,248.929 73.000 C 252.770 73.000,254.000 73.364,254.000 74.500 C 254.000 75.433,254.944 76.000,256.500 76.000 C 258.056 76.000,259.000 76.567,259.000 77.500 C 259.000 78.583,260.111 79.000,263.000 79.000 C 265.200 79.000,267.000 79.450,267.000 80.000 C 267.000 80.550,268.575 81.000,270.500 81.000 C 272.944 81.000,274.000 81.452,274.000 82.500 C 274.000 83.433,274.944 84.000,276.500 84.000 C 277.875 84.000,279.000 84.450,279.000 85.000 C 279.000 85.550,280.800 86.000,283.000 86.000 C 285.889 86.000,287.000 86.417,287.000 87.500 C 287.000 88.433,287.944 89.000,289.500 89.000 C 290.875 89.000,292.000 89.450,292.000 90.000 C 292.000 90.550,293.800 91.000,296.000 91.000 C 298.889 91.000,300.000 91.417,300.000 92.500 C 300.000 93.433,300.944 94.000,302.500 94.000 C 304.056 94.000,305.000 94.567,305.000 95.500 C 305.000 96.433,305.944 97.000,307.500 97.000 C 308.875 97.000,310.000 97.450,310.000 98.000 C 310.000 98.550,312.475 99.000,315.500 99.000 C 319.722 99.000,321.000 99.348,321.000 100.500 C 321.000 101.433,321.944 102.000,323.500 102.000 C 324.875 102.000,326.000 102.450,326.000 103.000 C 326.000 103.550,327.125 104.000,328.500 104.000 C 330.056 104.000,331.000 104.567,331.000 105.500 C 331.000 106.433,331.944 107.000,333.500 107.000 L 336.000 107.000 336.000 175.000 L 336.000 243.000 315.500 243.000 C 297.944 243.000,295.000 243.215,295.000 244.500 C 295.000 245.778,292.333 246.000,277.000 246.000 C 265.667 246.000,259.000 246.370,259.000 247.000 C 259.000 247.625,253.024 248.000,243.071 248.000 C 230.246 248.000,226.851 248.292,225.643 249.500 C 224.818 250.325,223.886 251.000,223.571 251.000 C 223.257 251.000,223.000 208.700,223.000 157.000 C 223.000 95.000,223.340 63.000,224.000 63.000 C 224.550 63.000,225.000 63.675,225.000 64.500 M375.000 279.500 C 375.000 292.611,374.769 295.000,373.500 295.000 C 372.567 295.000,372.000 295.944,372.000 297.500 C 372.000 299.750,371.600 300.000,368.000 300.000 C 365.111 300.000,364.000 300.417,364.000 301.500 C 364.000 302.548,362.944 303.000,360.500 303.000 C 358.575 303.000,357.000 303.450,357.000 304.000 C 357.000 304.550,355.200 305.000,353.000 305.000 C 350.111 305.000,349.000 305.417,349.000 306.500 C 349.000 307.583,347.889 308.000,345.000 308.000 C 342.800 308.000,341.000 308.450,341.000 309.000 C 341.000 309.550,338.750 310.000,336.000 310.000 C 332.222 310.000,331.000 310.367,331.000 311.500 C 331.000 312.583,329.889 313.000,327.000 313.000 C 324.800 313.000,323.000 313.450,323.000 314.000 C 323.000 314.550,320.750 315.000,318.000 315.000 C 314.222 315.000,313.000 315.367,313.000 316.500 C 313.000 317.583,311.889 318.000,309.000 318.000 C 306.111 318.000,305.000 318.417,305.000 319.500 C 305.000 320.583,303.889 321.000,301.000 321.000 C 298.800 321.000,297.000 321.450,297.000 322.000 C 297.000 322.550,295.425 323.000,293.500 323.000 C 291.056 323.000,290.000 323.452,290.000 324.500 C 290.000 325.652,288.722 326.000,284.500 326.000 C 281.475 326.000,279.000 326.450,279.000 327.000 C 279.000 327.550,277.425 328.000,275.500 328.000 L 272.000 328.000 272.000 301.429 C 272.000 269.130,270.395 272.000,288.460 272.000 C 299.629 272.000,302.166 271.732,302.638 270.500 C 303.112 269.266,305.680 269.000,317.107 269.000 C 325.702 269.000,331.000 268.619,331.000 268.000 C 331.000 267.383,336.177 267.000,344.531 267.000 C 355.637 267.000,358.166 266.731,358.638 265.500 C 359.083 264.342,361.013 264.000,367.107 264.000 L 375.000 264.000 375.000 279.500 M424.000 331.000 C 424.000 335.889,423.933 336.000,421.000 336.000 C 419.000 336.000,418.000 336.500,418.000 337.500 C 418.000 338.351,417.103 339.000,415.929 339.000 C 413.715 339.000,411.000 341.164,411.000 342.929 C 411.000 343.518,409.875 344.000,408.500 344.000 C 407.125 344.000,406.000 344.450,406.000 345.000 C 406.000 345.550,404.650 346.000,403.000 346.000 C 401.000 346.000,400.000 346.500,400.000 347.500 C 400.000 348.548,398.944 349.000,396.500 349.000 C 394.575 349.000,393.000 349.450,393.000 350.000 C 393.000 350.550,392.086 351.000,390.969 351.000 C 389.851 351.000,388.678 351.675,388.362 352.500 C 388.045 353.325,387.159 354.000,386.393 354.000 C 385.627 354.000,385.000 354.675,385.000 355.500 C 385.000 356.433,384.056 357.000,382.500 357.000 C 381.125 357.000,380.000 357.450,380.000 358.000 C 380.000 358.550,378.875 359.000,377.500 359.000 C 375.944 359.000,375.000 359.567,375.000 360.500 C 375.000 361.583,373.889 362.000,371.000 362.000 C 368.800 362.000,367.000 362.450,367.000 363.000 C 367.000 363.550,365.875 364.000,364.500 364.000 C 362.944 364.000,362.000 364.567,362.000 365.500 C 362.000 366.433,361.056 367.000,359.500 367.000 C 357.944 367.000,357.000 367.567,357.000 368.500 C 357.000 369.325,356.325 370.000,355.500 370.000 C 354.675 370.000,354.000 370.450,354.000 371.000 C 354.000 371.550,352.875 372.000,351.500 372.000 C 349.944 372.000,349.000 372.567,349.000 373.500 C 349.000 374.583,347.889 375.000,345.000 375.000 C 342.800 375.000,341.000 375.450,341.000 376.000 C 341.000 376.550,339.875 377.000,338.500 377.000 C 336.944 377.000,336.000 377.567,336.000 378.500 C 336.000 379.433,335.056 380.000,333.500 380.000 C 332.125 380.000,331.000 380.450,331.000 381.000 C 331.000 381.550,330.325 382.000,329.500 382.000 C 328.675 382.000,328.000 382.675,328.000 383.500 C 328.000 384.433,327.056 385.000,325.500 385.000 C 323.944 385.000,323.000 385.567,323.000 386.500 C 323.000 387.583,321.889 388.000,319.000 388.000 C 316.800 388.000,315.000 388.450,315.000 389.000 C 315.000 389.550,313.875 390.000,312.500 390.000 C 310.944 390.000,310.000 390.567,310.000 391.500 C 310.000 392.351,309.103 393.000,307.929 393.000 C 305.715 393.000,303.000 395.164,303.000 396.929 C 303.000 397.518,301.650 398.000,300.000 398.000 C 298.350 398.000,297.000 398.450,297.000 399.000 C 297.000 399.550,295.875 400.000,294.500 400.000 C 292.944 400.000,292.000 400.567,292.000 401.500 C 292.000 402.548,290.944 403.000,288.500 403.000 C 286.056 403.000,285.000 403.452,285.000 404.500 C 285.000 405.500,284.000 406.000,282.000 406.000 C 280.350 406.000,279.000 406.450,279.000 407.000 C 279.000 407.550,277.875 408.000,276.500 408.000 C 274.944 408.000,274.000 408.567,274.000 409.500 C 274.000 410.325,273.550 411.000,273.000 411.000 C 272.373 411.000,272.000 404.667,272.000 394.000 L 272.000 377.000 275.500 377.000 C 277.425 377.000,279.000 376.550,279.000 376.000 C 279.000 375.450,280.800 375.000,283.000 375.000 C 285.889 375.000,287.000 374.583,287.000 373.500 C 287.000 372.417,288.111 372.000,291.000 372.000 C 293.200 372.000,295.000 371.550,295.000 371.000 C 295.000 370.450,295.914 370.000,297.031 370.000 C 298.149 370.000,299.322 369.325,299.638 368.500 C 300.014 367.522,301.569 367.000,304.107 367.000 C 306.901 367.000,308.000 366.576,308.000 365.500 C 308.000 364.452,309.056 364.000,311.500 364.000 C 313.425 364.000,315.000 363.550,315.000 363.000 C 315.000 362.450,316.800 362.000,319.000 362.000 C 321.889 362.000,323.000 361.583,323.000 360.500 C 323.000 359.417,324.111 359.000,327.000 359.000 C 329.200 359.000,331.000 358.550,331.000 358.000 C 331.000 357.450,332.125 357.000,333.500 357.000 C 335.056 357.000,336.000 356.433,336.000 355.500 C 336.000 354.417,337.111 354.000,340.000 354.000 C 342.889 354.000,344.000 353.583,344.000 352.500 C 344.000 351.452,345.056 351.000,347.500 351.000 C 349.425 351.000,351.000 350.550,351.000 350.000 C 351.000 349.450,352.800 349.000,355.000 349.000 C 357.889 349.000,359.000 348.583,359.000 347.500 C 359.000 346.417,360.111 346.000,363.000 346.000 C 365.200 346.000,367.000 345.550,367.000 345.000 C 367.000 344.450,368.800 344.000,371.000 344.000 C 373.889 344.000,375.000 343.583,375.000 342.500 C 375.000 341.567,375.944 341.000,377.500 341.000 C 378.875 341.000,380.000 340.550,380.000 340.000 C 380.000 339.450,381.589 339.000,383.531 339.000 C 385.748 339.000,387.277 338.441,387.638 337.500 C 387.994 336.574,389.513 336.000,391.607 336.000 C 393.956 336.000,395.000 335.539,395.000 334.500 C 395.000 333.417,396.111 333.000,399.000 333.000 C 401.200 333.000,403.000 332.550,403.000 332.000 C 403.000 331.450,404.800 331.000,407.000 331.000 C 409.889 331.000,411.000 330.583,411.000 329.500 C 411.000 328.567,411.944 328.000,413.500 328.000 C 414.875 328.000,416.000 327.550,416.000 327.000 C 416.000 326.450,417.800 326.000,420.000 326.000 L 424.000 326.000 424.000 331.000 " stroke="none" fill-rule="evenodd"></path>
</g>
</svg>