<svg version="1.1" width="515" height="515" xmlns="http://www.w3.org/2000/svg">
<g>
<path d="M256.964 11.457 C 256.159 12.259,244.025 18.687,230.000 25.742 C 202.799 39.425,202.107 39.780,197.500 42.410 C 195.850 43.352,193.713 44.373,192.750 44.678 C 191.233 45.159,191.000 46.601,191.000 55.526 L 191.000 65.819 187.048 63.909 C 184.875 62.859,182.378 62.000,181.500 62.000 C 180.622 62.000,178.085 61.122,175.863 60.048 C 169.895 57.164,163.190 56.341,162.402 58.395 C 162.061 59.285,158.568 61.573,154.641 63.481 C 150.713 65.388,146.150 67.703,144.500 68.626 C 142.850 69.548,140.600 70.755,139.500 71.307 C 138.400 71.860,136.825 72.659,136.000 73.083 C 135.175 73.507,133.825 74.102,133.000 74.404 C 132.175 74.707,129.250 76.269,126.500 77.876 L 121.500 80.798 121.206 87.899 C 121.045 91.805,120.792 95.000,120.644 95.000 C 120.496 95.000,118.513 94.100,116.236 93.000 C 113.959 91.900,111.451 91.000,110.663 91.000 C 109.874 91.000,107.940 90.328,106.364 89.506 C 102.366 87.421,99.000 87.554,99.000 89.797 C 99.000 91.046,96.638 92.748,91.250 95.378 C 86.987 97.460,82.713 99.576,81.750 100.081 C 80.787 100.587,79.213 101.382,78.250 101.849 C 77.287 102.315,75.150 103.412,73.500 104.285 L 70.500 105.873 70.237 139.889 L 69.974 173.904 73.237 174.430 C 91.040 177.299,111.184 177.736,124.000 175.531 C 128.675 174.727,135.425 174.166,139.000 174.284 L 145.500 174.500 145.803 169.785 L 146.107 165.071 160.803 165.182 C 172.754 165.273,177.275 164.878,185.000 163.072 C 190.450 161.797,198.337 160.775,203.500 160.675 L 212.500 160.500 212.798 154.250 C 213.147 146.926,212.424 147.163,226.000 149.912 C 231.225 150.970,241.800 153.038,249.500 154.508 L 263.500 157.180 273.681 154.590 C 279.281 153.166,285.131 151.992,286.681 151.983 C 288.232 151.973,292.875 151.081,297.000 150.000 C 308.571 146.967,308.840 147.039,309.198 153.234 L 309.500 158.469 315.500 159.655 C 344.230 165.333,350.970 166.100,364.250 165.206 L 375.000 164.482 375.000 168.498 L 375.000 172.515 387.750 174.507 C 399.765 176.385,415.134 176.935,435.500 176.216 C 439.350 176.081,444.300 176.089,446.500 176.235 L 450.500 176.500 450.500 140.033 L 450.500 103.565 436.000 96.304 C 422.694 89.640,416.000 87.514,416.000 89.953 C 416.000 91.060,408.629 94.483,404.104 95.477 L 401.000 96.159 401.000 87.283 L 401.000 78.407 380.691 68.217 C 356.810 56.234,355.030 55.698,351.354 59.373 C 349.909 60.818,347.926 62.000,346.947 62.000 C 345.967 62.000,343.198 62.843,340.793 63.874 C 338.388 64.905,334.976 66.066,333.210 66.454 L 330.000 67.159 329.952 54.829 L 329.905 42.500 307.702 31.695 C 295.491 25.753,284.375 20.232,283.000 19.427 C 269.410 11.472,259.881 8.555,256.964 11.457 M297.000 35.214 L 323.500 48.532 323.760 93.266 C 323.903 117.870,323.731 138.000,323.376 138.000 C 323.022 138.000,321.105 137.579,319.116 137.064 C 317.127 136.549,311.675 135.170,307.000 133.999 C 302.325 132.829,295.350 131.066,291.500 130.082 C 287.650 129.098,279.891 127.215,274.257 125.897 L 264.014 123.500 264.007 71.301 L 264.000 19.102 267.250 20.499 C 269.038 21.268,282.425 27.889,297.000 35.214 M177.500 68.543 C 180.250 69.506,183.507 70.751,184.738 71.310 L 186.976 72.325 187.238 109.846 L 187.500 147.367 194.562 148.556 C 202.911 149.963,206.000 150.861,206.000 151.884 C 206.000 152.800,197.253 151.793,186.500 149.640 C 182.100 148.758,176.363 147.777,173.750 147.457 L 169.000 146.877 169.000 106.322 C 169.000 68.169,169.104 65.797,170.750 66.280 C 171.713 66.562,174.750 67.581,177.500 68.543 M377.304 75.339 L 395.000 84.178 395.000 120.089 C 395.000 139.840,394.620 156.000,394.157 156.000 C 393.693 156.000,390.697 155.100,387.500 154.000 C 384.303 152.900,380.867 152.000,379.864 152.000 C 378.862 152.000,375.220 151.124,371.771 150.053 C 368.322 148.983,363.813 147.837,361.750 147.508 L 358.000 146.909 358.000 106.371 C 358.000 84.075,358.362 65.983,358.804 66.167 C 359.246 66.350,367.571 70.478,377.304 75.339 M114.371 100.321 L 117.242 101.343 116.871 133.167 C 116.610 155.599,116.172 164.992,115.390 164.995 C 114.779 164.998,112.191 164.714,109.640 164.364 L 105.000 163.728 105.000 130.451 L 105.000 97.174 108.250 98.237 C 110.037 98.822,112.792 99.760,114.371 100.321 M434.245 104.227 L 444.989 109.500 444.995 139.250 C 444.998 155.613,444.736 169.000,444.414 169.000 C 444.091 169.000,440.604 168.119,436.664 167.041 C 432.724 165.964,427.813 164.818,425.750 164.496 L 422.000 163.909 422.000 131.455 C 422.000 113.605,422.337 98.990,422.750 98.977 C 423.163 98.964,428.335 101.327,434.245 104.227 M257.113 172.363 C 256.491 173.113,251.373 174.446,245.741 175.325 C 240.108 176.204,230.775 177.686,225.000 178.617 C 219.225 179.548,211.575 180.625,208.000 181.009 C 200.450 181.822,184.380 184.289,168.000 187.150 C 161.675 188.255,153.125 189.526,149.000 189.975 C 144.875 190.423,136.775 191.543,131.000 192.464 C 119.706 194.264,100.415 197.174,87.500 199.025 C 83.100 199.656,77.362 200.620,74.750 201.169 L 70.000 202.166 70.000 240.857 L 70.000 279.549 77.250 280.762 C 85.242 282.099,92.047 283.158,111.500 286.090 C 118.650 287.168,130.125 289.024,137.000 290.214 C 143.875 291.405,152.200 292.665,155.500 293.015 C 161.873 293.691,176.350 295.935,194.649 299.082 C 200.782 300.137,206.991 301.000,208.448 301.000 C 209.905 301.000,215.913 301.864,221.798 302.920 C 227.684 303.976,237.675 305.609,244.000 306.549 C 250.613 307.532,256.240 308.903,257.240 309.775 C 259.146 311.436,263.986 311.022,289.500 307.013 C 301.690 305.097,311.289 303.616,323.000 301.844 C 347.589 298.124,355.666 296.865,364.500 295.376 C 370.000 294.448,376.075 293.527,378.000 293.329 C 381.720 292.945,405.916 289.178,425.000 286.011 C 431.325 284.962,439.170 283.841,442.434 283.521 C 451.666 282.616,451.000 285.966,451.000 240.413 C 451.000 195.049,451.528 198.000,443.409 198.000 C 441.362 198.000,434.694 197.138,428.593 196.085 C 422.492 195.032,413.900 193.665,409.500 193.049 C 405.100 192.432,398.125 191.456,394.000 190.879 C 389.875 190.302,381.325 188.910,375.000 187.785 C 368.675 186.660,360.350 185.414,356.500 185.017 C 352.650 184.620,344.775 183.542,339.000 182.622 C 320.599 179.691,304.476 177.278,268.307 172.041 C 259.100 170.708,258.472 170.726,257.113 172.363 M294.000 182.945 C 301.975 184.117,315.925 186.206,325.000 187.587 C 370.964 194.585,376.373 195.392,389.000 197.135 C 393.125 197.704,401.492 199.032,407.593 200.085 C 413.694 201.138,420.126 202.000,421.885 202.000 C 424.582 202.000,433.641 203.538,442.750 205.543 L 445.000 206.038 445.000 240.809 L 445.000 275.579 434.750 277.434 C 429.113 278.455,422.925 279.457,421.000 279.661 C 417.242 280.061,398.746 282.908,382.500 285.588 C 377.000 286.495,369.350 287.587,365.500 288.015 C 361.650 288.442,353.100 289.729,346.500 290.874 C 339.900 292.019,328.650 293.849,321.500 294.941 C 314.350 296.033,305.462 297.393,301.750 297.963 C 290.933 299.625,282.037 300.959,274.093 302.110 C 270.019 302.700,266.082 303.415,265.343 303.699 C 264.228 304.127,264.000 293.544,264.000 241.280 L 264.000 178.347 271.750 179.581 C 276.012 180.260,286.025 181.774,294.000 182.945 M87.500 301.050 C 80.350 301.533,73.487 302.384,72.250 302.942 L 70.000 303.957 70.000 339.479 C 70.000 372.633,70.117 375.001,71.750 375.022 C 72.713 375.034,74.625 375.924,76.000 377.000 C 77.375 378.076,78.900 378.966,79.389 378.978 C 81.825 379.039,99.000 388.470,99.000 389.747 C 99.000 391.800,105.701 390.907,114.250 387.714 L 121.000 385.193 121.000 392.528 L 121.000 399.863 141.416 410.055 C 155.166 416.919,161.991 420.859,162.322 422.123 C 162.968 424.594,166.490 424.548,171.764 422.000 C 174.041 420.900,176.380 420.000,176.963 420.000 C 177.545 420.000,179.929 419.145,182.261 418.101 C 191.279 414.060,190.998 413.827,191.017 425.344 L 191.034 435.500 200.267 439.881 C 229.265 453.641,256.205 467.515,257.073 469.136 C 258.863 472.480,262.034 471.522,279.500 462.361 C 280.600 461.784,282.625 460.722,284.000 460.000 C 287.763 458.025,289.051 457.404,294.500 454.943 C 299.689 452.599,301.615 451.693,305.000 450.000 C 306.100 449.450,307.900 448.550,309.000 448.000 C 310.100 447.450,311.900 446.550,313.000 446.000 C 314.100 445.450,315.788 444.620,316.750 444.156 C 317.712 443.692,319.400 442.842,320.500 442.267 C 321.600 441.692,324.188 440.395,326.250 439.383 L 330.000 437.545 330.000 424.859 L 330.000 412.172 335.250 414.204 C 338.137 415.321,342.425 417.082,344.777 418.118 C 347.129 419.153,349.664 420.000,350.410 420.000 C 351.156 420.000,352.002 420.900,352.290 422.000 C 353.091 425.063,355.347 424.502,368.937 417.862 C 375.847 414.486,382.175 411.406,383.000 411.018 C 383.825 410.630,385.400 409.830,386.500 409.240 C 387.600 408.651,391.200 406.864,394.500 405.269 L 400.500 402.369 400.786 392.685 C 400.944 387.358,401.269 383.000,401.509 383.000 C 401.750 383.000,403.871 383.875,406.223 384.944 C 408.575 386.013,411.738 387.147,413.250 387.463 C 414.762 387.779,416.000 388.705,416.000 389.519 C 416.000 392.521,421.728 390.866,436.000 383.740 L 450.500 376.500 450.500 340.000 L 450.500 303.500 446.500 303.500 C 444.300 303.500,441.872 303.096,441.105 302.601 C 436.325 299.522,402.379 300.059,386.500 303.464 C 382.650 304.290,378.488 304.973,377.250 304.983 C 375.295 304.998,375.000 305.524,375.000 309.000 C 375.000 313.672,375.328 313.602,361.724 311.857 C 352.332 310.653,351.566 310.725,327.500 315.112 C 321.450 316.215,314.700 317.440,312.500 317.834 L 308.500 318.550 308.793 324.131 L 309.087 329.713 298.793 327.427 C 261.184 319.075,264.256 319.074,223.797 327.452 L 213.093 329.668 212.797 324.584 L 212.500 319.500 209.000 319.500 C 207.075 319.500,205.050 319.026,204.500 318.446 C 203.950 317.866,198.325 316.431,192.000 315.258 C 168.112 310.825,167.013 310.717,157.500 311.887 C 152.550 312.496,147.965 312.996,147.310 312.997 C 146.656 312.999,145.981 311.313,145.810 309.250 C 145.502 305.528,145.467 305.500,141.000 305.444 C 138.525 305.413,135.306 304.878,133.847 304.255 C 126.400 301.077,106.986 299.735,87.500 301.050 M414.502 306.639 C 416.773 307.510,414.485 308.964,410.809 308.985 C 407.140 309.006,406.301 307.237,409.733 306.718 C 411.255 306.488,412.576 306.232,412.668 306.150 C 412.761 306.067,413.586 306.288,414.502 306.639 M444.988 340.750 L 444.975 370.500 433.488 376.132 L 422.000 381.765 422.000 349.521 L 422.000 317.278 430.250 315.070 C 439.121 312.696,444.350 311.266,444.750 311.102 C 444.887 311.046,444.994 324.387,444.988 340.750 M116.342 335.661 C 117.457 368.957,117.252 379.000,115.460 379.000 C 114.613 379.000,112.156 379.900,110.000 381.000 C 107.844 382.100,105.837 383.000,105.540 383.000 C 105.243 383.000,105.000 368.176,105.000 350.057 L 105.000 317.115 109.250 316.732 C 111.588 316.522,113.991 316.271,114.592 316.175 C 115.331 316.056,115.896 322.347,116.342 335.661 M177.500 320.739 C 176.400 320.893,171.900 321.700,167.500 322.533 C 159.971 323.958,159.147 323.933,153.500 322.120 C 146.737 319.949,147.180 319.637,159.000 318.239 C 165.020 317.527,183.054 319.964,177.500 320.739 M366.500 319.367 C 367.050 319.556,364.800 320.275,361.500 320.964 C 358.200 321.652,354.107 322.790,352.404 323.493 C 349.836 324.551,347.972 324.504,341.492 323.214 L 333.676 321.659 342.588 319.823 C 347.490 318.813,351.918 317.851,352.430 317.684 C 353.368 317.377,364.647 318.726,366.500 319.367 M394.762 360.229 L 394.500 396.459 383.417 401.979 C 377.321 405.016,371.021 408.055,369.417 408.734 C 367.813 409.412,364.582 410.858,362.239 411.947 L 357.977 413.928 358.239 373.895 L 358.500 333.861 364.000 331.963 C 367.025 330.919,370.527 330.051,371.782 330.033 C 373.037 330.015,375.737 329.287,377.782 328.415 C 380.821 327.119,391.136 324.406,394.262 324.079 C 394.682 324.036,394.907 340.303,394.762 360.229 M206.000 328.363 C 206.000 329.317,204.095 329.879,199.652 330.236 C 196.160 330.516,191.998 331.371,190.402 332.136 L 187.500 333.526 187.238 370.570 L 186.976 407.613 182.461 409.807 C 179.978 411.013,177.261 412.000,176.424 412.000 C 175.586 412.000,173.568 412.689,171.939 413.531 L 168.978 415.063 169.239 374.281 L 169.500 333.500 178.500 331.823 C 183.450 330.901,190.875 329.501,195.000 328.713 C 205.006 326.800,206.000 326.769,206.000 328.363 M269.885 329.086 C 273.523 329.684,280.325 331.010,285.000 332.034 C 289.675 333.058,295.714 334.183,298.419 334.534 C 303.955 335.253,303.165 336.497,296.520 337.522 C 294.309 337.864,289.575 338.966,286.000 339.971 C 282.425 340.977,275.675 342.770,271.000 343.957 C 266.325 345.144,260.847 346.547,258.828 347.074 C 255.030 348.066,252.514 347.681,238.500 343.960 C 218.904 338.757,215.135 337.590,215.584 336.864 C 216.285 335.730,222.949 334.012,226.674 334.006 C 228.420 334.003,233.820 333.138,238.674 332.085 C 247.232 330.229,257.532 328.442,261.385 328.145 C 262.421 328.065,266.246 328.489,269.885 329.086 M324.000 386.885 L 324.000 431.771 307.750 439.762 C 298.813 444.158,285.679 450.622,278.565 454.127 C 271.451 457.632,265.263 460.650,264.815 460.833 C 264.367 461.017,264.003 437.842,264.007 409.333 L 264.014 357.500 269.344 355.750 C 272.275 354.788,275.502 354.000,276.516 354.000 C 277.529 354.000,281.315 353.119,284.929 352.042 C 288.543 350.965,295.325 349.120,300.000 347.941 C 304.675 346.763,311.200 344.980,314.500 343.980 C 325.094 340.769,324.000 335.827,324.000 386.885 " stroke="none" fill-rule="evenodd"></path>
</g>
</svg>