<svg version="1.1" width="515" height="515" xmlns="http://www.w3.org/2000/svg"><g><path d="M200.000 104.250 L 200.000 141.500 193.750 143.314 C 179.232 147.526,176.449 148.400,175.500 149.045 C 174.950 149.419,173.150 150.016,171.500 150.373 C 168.264 151.072,149.942 156.727,138.343 160.606 C 134.406 161.923,130.919 163.000,130.593 163.000 C 130.267 163.000,130.000 150.400,130.000 135.000 C 130.000 119.600,129.640 107.000,129.199 107.000 C 128.759 107.000,125.807 110.150,122.640 114.000 C 119.473 117.850,116.458 121.000,115.941 121.000 C 115.423 121.000,115.000 121.601,115.000 122.335 C 115.000 123.069,113.763 124.862,112.250 126.319 C 110.737 127.776,108.291 130.438,106.814 132.234 C 103.283 136.529,98.274 142.375,94.273 146.873 L 91.046 150.500 91.023 171.635 L 91.000 192.770 96.500 193.457 L 102.000 194.144 102.000 197.908 C 102.000 201.468,101.700 201.825,96.500 204.456 L 91.000 207.238 91.000 227.619 L 91.000 248.000 96.500 248.000 L 102.000 248.000 102.000 255.500 L 102.000 263.000 98.250 263.158 C 96.188 263.246,93.713 263.251,92.750 263.170 C 91.136 263.035,91.000 264.604,91.000 283.379 L 91.000 303.734 94.979 306.367 C 97.167 307.815,99.642 309.000,100.479 309.000 C 101.610 309.000,102.000 310.127,102.000 313.393 C 102.000 318.330,101.154 319.000,94.918 319.000 L 91.000 319.000 91.000 340.385 L 91.000 361.770 93.545 363.437 C 94.944 364.354,96.508 366.206,97.020 367.552 C 97.532 368.899,98.331 370.000,98.796 370.000 C 99.261 370.000,102.074 373.038,105.047 376.750 C 112.284 385.785,113.931 387.730,117.750 391.750 C 119.537 393.632,121.000 395.550,121.000 396.013 C 121.000 396.476,122.054 397.684,123.341 398.696 C 124.629 399.709,126.220 401.542,126.876 402.769 C 129.600 407.858,130.000 404.556,130.000 377.000 C 130.000 361.600,130.383 349.000,130.851 349.000 C 131.319 349.000,133.006 349.388,134.601 349.862 C 142.046 352.075,159.097 357.431,164.500 359.253 C 167.800 360.366,174.100 362.306,178.500 363.563 C 182.900 364.821,189.527 366.896,193.227 368.175 L 199.953 370.500 200.227 407.000 L 200.500 443.500 255.500 443.500 L 310.500 443.500 310.762 406.886 L 311.024 370.272 316.262 368.732 C 319.143 367.886,323.525 366.498,326.000 365.648 C 328.475 364.798,335.675 362.498,342.000 360.537 C 361.066 354.626,373.345 350.843,376.250 349.985 L 379.000 349.174 379.000 377.618 C 379.000 401.999,379.215 406.145,380.502 406.639 C 382.836 407.535,387.020 406.127,387.694 404.220 C 388.028 403.274,389.471 401.303,390.901 399.840 C 392.330 398.377,394.850 395.500,396.500 393.447 C 398.150 391.393,401.413 387.696,403.750 385.231 C 406.088 382.766,408.000 380.530,408.000 380.262 C 408.000 379.240,421.265 364.112,422.616 363.594 C 423.798 363.140,423.992 359.214,423.769 340.287 C 423.474 315.352,423.339 314.875,417.446 318.029 C 414.093 319.823,410.000 318.518,410.000 315.655 C 410.000 313.813,411.360 312.656,416.750 309.912 L 423.500 306.477 423.769 283.592 L 424.038 260.707 417.019 261.295 L 410.000 261.884 410.000 255.397 L 410.000 248.909 413.750 249.662 C 415.813 250.076,418.850 250.434,420.500 250.457 L 423.500 250.500 423.769 228.334 L 424.038 206.167 419.695 203.236 C 417.306 201.624,414.148 200.003,412.676 199.634 C 410.674 199.131,410.000 198.337,410.000 196.481 C 410.000 193.744,410.953 193.481,419.250 193.928 L 424.000 194.184 424.000 172.015 L 424.000 149.846 421.000 146.846 C 419.350 145.196,418.000 143.463,418.000 142.996 C 418.000 142.528,416.875 141.260,415.500 140.179 C 414.125 139.097,413.000 137.789,413.000 137.271 C 413.000 136.754,411.762 135.183,410.250 133.781 C 408.738 132.378,405.925 129.309,404.000 126.960 C 402.075 124.611,400.049 122.197,399.497 121.595 C 398.946 120.993,395.370 116.766,391.551 112.203 C 385.776 105.301,384.178 103.955,382.054 104.203 L 379.500 104.500 379.235 133.607 L 378.970 162.713 372.235 160.485 C 362.538 157.277,341.012 150.501,317.500 143.256 L 311.500 141.407 311.238 104.203 L 310.976 67.000 255.488 67.000 L 200.000 67.000 200.000 104.250 M304.000 105.000 L 304.000 137.000 255.500 137.000 L 207.000 137.000 207.000 105.000 L 207.000 73.000 255.500 73.000 L 304.000 73.000 304.000 105.000 M393.000 127.260 C 393.825 128.149,395.850 130.527,397.500 132.544 C 399.150 134.562,401.738 137.390,403.250 138.829 C 404.762 140.268,406.000 141.840,406.000 142.321 C 406.000 142.803,407.238 144.436,408.750 145.949 C 417.319 154.521,417.000 153.649,417.000 168.517 C 417.000 183.141,416.836 183.478,411.782 179.250 C 409.973 177.738,407.775 176.050,406.897 175.500 C 401.162 171.909,394.000 166.592,394.000 165.926 C 394.000 165.491,393.153 164.866,392.119 164.538 C 386.156 162.645,386.000 162.005,386.000 139.495 L 386.000 118.725 388.750 122.185 C 390.262 124.087,392.175 126.371,393.000 127.260 M343.500 179.013 C 367.149 184.482,377.080 186.931,378.060 187.537 C 378.610 187.877,379.000 199.498,379.000 215.506 L 379.000 242.893 354.250 242.415 C 340.637 242.151,325.337 241.683,320.250 241.375 L 311.000 240.813 311.000 206.050 L 311.000 171.286 320.250 173.530 C 325.337 174.765,335.800 177.232,343.500 179.013 M200.000 206.395 L 200.000 240.789 184.750 241.366 C 176.363 241.683,160.613 242.178,149.750 242.466 L 130.000 242.989 130.000 215.661 L 130.000 188.333 140.250 185.580 C 145.887 184.066,152.750 182.488,155.500 182.074 C 160.027 181.391,164.395 180.357,189.000 174.143 C 193.125 173.101,197.287 172.193,198.250 172.124 C 199.885 172.008,200.000 174.257,200.000 206.395 M304.000 206.000 L 304.000 237.000 255.500 237.000 L 207.000 237.000 207.000 206.000 L 207.000 175.000 255.500 175.000 L 304.000 175.000 304.000 206.000 M394.500 199.952 C 397.250 201.207,400.694 203.081,402.154 204.117 C 403.614 205.153,405.581 206.000,406.525 206.000 C 407.468 206.000,410.195 207.238,412.584 208.750 L 416.927 211.500 416.963 226.903 L 417.000 242.305 405.250 241.673 C 398.788 241.325,391.813 240.748,389.750 240.389 L 386.000 239.738 386.000 217.214 C 386.000 195.862,386.091 194.768,387.750 196.180 C 388.712 197.000,391.750 198.697,394.500 199.952 M168.000 269.500 C 184.775 270.296,198.838 270.959,199.250 270.973 C 199.662 270.988,200.000 286.300,200.000 305.000 L 200.000 339.000 197.697 339.000 C 196.431 339.000,191.143 337.860,185.947 336.466 C 180.751 335.073,174.925 333.691,173.000 333.396 C 171.075 333.101,164.100 331.579,157.500 330.014 C 150.900 328.450,142.012 326.418,137.750 325.500 L 130.000 323.829 130.000 295.915 L 130.000 268.000 133.750 268.027 C 135.813 268.041,151.225 268.704,168.000 269.500 M379.000 296.340 L 379.000 324.681 373.250 325.876 C 363.246 327.955,340.873 333.088,330.500 335.683 C 325.000 337.059,318.363 338.526,315.750 338.943 L 311.000 339.701 311.000 305.430 L 311.000 271.159 317.250 270.603 C 325.764 269.847,357.299 268.368,369.250 268.165 L 379.000 268.000 379.000 296.340 M417.000 284.801 L 417.000 300.603 405.250 306.395 C 398.788 309.581,391.925 313.044,390.000 314.091 L 386.500 315.994 386.230 294.350 C 386.082 282.446,386.197 272.470,386.487 272.180 C 387.007 271.659,407.472 269.366,413.750 269.125 L 417.000 269.000 417.000 284.801 M304.000 306.000 L 304.000 337.000 255.500 337.000 L 207.000 337.000 207.000 306.000 L 207.000 275.000 255.500 275.000 L 304.000 275.000 304.000 306.000 M406.286 368.784 C 400.362 375.778,394.022 383.139,392.197 385.142 C 390.371 387.146,388.245 389.621,387.471 390.642 C 386.246 392.259,386.059 389.864,386.032 372.179 C 386.008 357.218,386.330 351.528,387.250 350.610 C 387.938 349.924,390.975 347.637,394.000 345.528 C 397.025 343.419,399.860 341.087,400.300 340.346 C 400.740 339.606,401.720 339.000,402.478 339.000 C 403.237 339.000,404.638 338.212,405.592 337.250 C 406.546 336.288,409.390 334.098,411.913 332.384 L 416.500 329.267 416.778 342.668 L 417.057 356.069 406.286 368.784 M304.000 406.000 L 304.000 437.000 255.500 437.000 L 207.000 437.000 207.000 406.000 L 207.000 375.000 255.500 375.000 L 304.000 375.000 304.000 406.000 " stroke="none" fill-rule="evenodd"></path></g></svg>