<svg version="1.1" width="515" height="515" xmlns="http://www.w3.org/2000/svg"><g><path d="M98.000 72.000 L 98.000 117.000 128.500 117.000 L 159.000 117.000 159.000 134.884 L 159.000 152.769 148.499 160.384 C 142.723 164.573,137.682 168.000,137.296 168.000 C 136.911 168.000,135.224 169.289,133.548 170.865 C 130.158 174.051,104.309 193.000,103.352 193.000 C 102.366 193.000,88.776 203.124,85.306 206.444 C 83.549 208.125,78.279 211.975,73.595 215.000 C 63.943 221.233,63.862 221.360,68.109 223.557 C 71.487 225.303,88.170 237.395,97.000 244.496 C 100.025 246.929,102.872 248.937,103.326 248.959 C 103.781 248.982,110.981 253.875,119.326 259.833 C 127.672 265.792,135.963 271.514,137.750 272.549 C 139.537 273.584,141.000 274.720,141.000 275.072 C 141.000 275.425,145.050 278.567,150.000 282.055 L 159.000 288.397 159.000 309.198 L 159.000 330.000 128.500 330.000 L 98.000 330.000 98.000 375.500 L 98.000 421.000 170.000 421.000 L 242.000 421.000 242.000 375.500 L 242.000 330.000 212.000 330.000 L 182.000 330.000 182.016 309.250 L 182.033 288.500 189.654 283.053 C 193.845 280.058,198.851 276.120,200.777 274.303 C 202.704 272.487,204.674 271.000,205.156 271.000 C 205.637 271.000,213.337 265.695,222.266 259.212 C 231.195 252.729,240.637 246.091,243.248 244.462 C 245.860 242.833,247.997 241.202,247.998 240.838 C 247.999 240.474,250.893 238.111,254.429 235.588 L 260.858 231.000 305.929 231.000 L 351.000 231.000 351.000 280.500 L 351.000 330.000 323.000 330.000 L 295.000 330.000 295.000 375.500 L 295.000 421.000 366.500 421.000 L 438.000 421.000 438.000 375.500 L 438.000 330.000 405.000 330.000 L 372.000 330.000 372.000 270.000 L 372.000 210.000 315.955 210.000 L 259.909 210.000 257.645 207.736 C 255.039 205.130,241.543 195.000,240.677 195.000 C 240.358 195.000,232.988 189.813,224.299 183.473 C 215.610 177.133,202.537 167.611,195.250 162.313 L 182.000 152.681 182.000 134.840 L 182.000 117.000 212.000 117.000 L 242.000 117.000 242.000 72.000 L 242.000 27.000 170.000 27.000 L 98.000 27.000 98.000 72.000 M219.000 71.500 L 219.000 97.000 170.500 97.000 L 122.000 97.000 122.000 71.500 L 122.000 46.000 170.500 46.000 L 219.000 46.000 219.000 71.500 M174.496 172.542 C 175.760 174.118,198.632 190.665,210.279 198.430 C 215.108 201.649,219.383 204.817,219.779 205.469 C 220.814 207.173,238.567 220.000,239.891 220.000 C 240.501 220.000,241.000 220.450,241.000 221.000 C 241.000 221.550,240.606 222.000,240.125 222.000 C 239.005 222.000,217.989 236.684,215.997 238.859 C 214.097 240.933,207.347 246.000,206.484 246.000 C 206.127 246.000,198.241 251.400,188.959 258.000 C 179.677 264.600,171.407 270.000,170.580 270.000 C 169.753 270.000,162.107 265.050,153.589 259.000 C 145.071 252.950,137.741 247.975,137.301 247.944 C 136.860 247.914,134.250 246.111,131.500 243.939 C 121.340 235.912,115.988 231.939,108.088 226.560 L 99.995 221.049 102.748 219.310 C 107.632 216.223,119.480 207.386,122.533 204.553 C 124.165 203.039,129.325 199.266,134.000 196.168 C 145.473 188.566,165.072 174.276,167.329 171.867 C 169.260 169.805,172.549 170.115,174.496 172.542 M219.000 375.500 L 219.000 401.000 170.500 401.000 L 122.000 401.000 122.000 375.500 L 122.000 350.000 170.500 350.000 L 219.000 350.000 219.000 375.500 M415.000 375.500 L 415.000 401.000 366.500 401.000 L 318.000 401.000 318.000 375.500 L 318.000 350.000 366.500 350.000 L 415.000 350.000 415.000 375.500 " stroke="none" fill-rule="evenodd"></path></g></svg>