<svg version="1.1" width="515" height="515" xmlns="http://www.w3.org/2000/svg"><g><path d="M255.072 6.250 C 254.414 7.934,247.690 11.633,228.347 20.953 C 214.131 27.801,202.275 33.685,202.000 34.026 C 201.725 34.368,196.438 37.314,190.251 40.574 L 179.002 46.500 179.001 172.250 L 179.000 298.000 176.559 298.000 C 175.216 298.000,173.882 297.618,173.593 297.151 C 173.305 296.684,169.399 296.019,164.913 295.673 C 160.428 295.327,156.250 294.645,155.629 294.158 C 155.008 293.671,151.135 292.973,147.022 292.608 C 142.909 292.243,139.106 291.506,138.572 290.972 C 138.037 290.437,135.002 290.000,131.827 290.000 L 126.055 290.000 125.777 275.750 L 125.500 261.500 118.801 261.500 C 113.411 261.500,112.018 261.177,111.670 259.846 C 110.898 256.892,90.959 256.226,74.782 258.616 C 67.880 259.635,68.000 258.582,68.000 317.970 L 68.000 370.632 74.168 373.566 C 77.560 375.180,80.915 377.075,81.624 377.778 C 82.333 378.481,92.608 383.741,104.457 389.468 C 124.362 399.087,126.000 400.078,126.000 402.492 C 126.000 404.741,126.942 405.544,132.750 408.251 C 136.463 409.982,140.095 411.983,140.821 412.699 C 142.692 414.541,147.928 414.352,148.671 412.416 C 149.014 411.520,149.545 411.263,149.892 411.825 C 150.518 412.839,189.890 432.747,206.968 440.685 C 212.175 443.106,216.693 445.504,217.009 446.015 C 217.325 446.526,225.939 450.967,236.152 455.886 C 249.891 462.502,254.864 465.370,255.267 466.914 C 255.645 468.358,256.618 469.000,258.429 469.000 C 260.805 469.000,305.675 447.940,306.955 446.223 C 307.255 445.822,322.316 438.127,340.424 429.123 C 358.533 420.120,373.833 412.342,374.424 411.839 C 375.016 411.336,390.223 403.773,408.218 395.032 C 426.213 386.291,441.513 378.634,442.218 378.016 C 442.923 377.399,445.075 376.130,447.000 375.197 L 450.500 373.500 450.500 317.000 L 450.500 260.500 443.500 260.530 C 438.875 260.549,436.157 260.114,435.490 259.248 C 433.218 256.297,399.085 257.357,393.938 260.539 C 393.422 260.857,392.998 267.279,392.995 274.809 L 392.989 288.500 369.745 292.420 C 356.960 294.576,345.038 296.538,343.250 296.779 L 340.000 297.219 340.000 170.662 L 340.000 44.105 331.250 39.367 C 326.438 36.762,322.275 34.315,322.000 33.930 C 320.846 32.314,260.720 4.000,258.442 4.000 C 256.785 4.000,255.656 4.754,255.072 6.250 M291.886 30.120 C 296.483 32.529,307.277 38.100,315.872 42.500 L 331.500 50.500 331.500 174.000 L 331.500 297.500 322.500 299.070 C 317.550 299.933,312.262 300.954,310.750 301.339 L 308.000 302.038 308.000 312.000 C 308.000 323.388,308.187 323.596,317.713 322.796 C 324.060 322.262,385.359 309.777,386.000 308.887 C 386.275 308.505,395.050 306.509,405.500 304.450 C 430.819 299.464,429.000 301.003,429.000 284.556 L 429.000 271.159 431.750 270.614 C 433.262 270.314,436.188 269.778,438.250 269.423 L 442.000 268.777 442.000 317.679 L 442.000 366.580 431.849 371.540 C 426.266 374.268,421.203 376.976,420.599 377.558 C 419.994 378.140,404.437 385.926,386.027 394.860 C 367.617 403.794,352.317 411.450,352.027 411.873 C 351.737 412.297,336.650 419.983,318.500 428.955 C 300.350 437.926,285.275 445.613,285.000 446.036 C 284.725 446.459,279.663 449.070,273.750 451.838 L 263.000 456.870 263.000 372.435 C 263.000 299.577,263.198 288.000,264.441 288.000 C 268.113 288.000,312.232 282.975,313.062 282.462 C 314.284 281.707,314.283 273.293,313.061 272.538 C 312.544 272.218,301.069 270.970,287.561 269.763 L 263.000 267.569 263.000 141.850 L 263.000 16.130 273.264 20.935 C 278.909 23.578,287.289 27.711,291.886 30.120 M118.000 278.858 L 118.000 287.715 111.853 288.358 C 108.473 288.711,103.748 289.000,101.353 289.000 L 97.000 289.000 97.000 280.055 L 97.000 271.110 101.750 270.735 C 104.362 270.529,109.088 270.279,112.250 270.180 L 118.000 270.000 118.000 278.858 " stroke="none" fill-rule="evenodd"></path></g></svg>