<svg version="1.1" width="515" height="515" xmlns="http://www.w3.org/2000/svg"><g><path d="M252.000 7.894 C 252.000 14.433,251.710 16.000,250.500 16.000 C 249.675 16.000,249.000 16.450,249.000 17.000 C 249.000 17.570,246.028 18.000,242.083 18.000 C 238.279 18.000,235.017 18.382,234.833 18.848 C 234.650 19.315,231.800 19.937,228.500 20.230 C 225.200 20.524,223.512 20.561,224.750 20.312 C 225.988 20.064,227.000 19.442,227.000 18.930 C 227.000 18.419,227.675 18.000,228.500 18.000 C 229.325 18.000,230.000 17.600,230.000 17.111 C 230.000 16.623,231.575 15.927,233.500 15.566 C 235.425 15.205,237.000 14.480,237.000 13.955 C 237.000 13.430,237.675 13.000,238.500 13.000 C 239.325 13.000,240.000 12.550,240.000 12.000 C 240.000 11.450,240.900 11.000,242.000 11.000 C 243.179 11.000,244.000 10.333,244.000 9.375 C 244.000 7.561,237.806 8.148,237.167 10.023 C 236.983 10.560,236.196 11.000,235.417 11.000 C 234.637 11.000,234.000 11.450,234.000 12.000 C 234.000 12.550,233.100 13.000,232.000 13.000 C 230.900 13.000,230.000 13.430,230.000 13.955 C 230.000 14.480,228.425 15.205,226.500 15.566 C 224.575 15.927,223.000 16.623,223.000 17.111 C 223.000 17.600,222.325 18.000,221.500 18.000 C 220.675 18.000,220.000 18.400,220.000 18.889 C 220.000 19.377,218.425 20.073,216.500 20.434 C 214.575 20.795,213.000 21.520,213.000 22.045 C 213.000 22.570,212.325 23.000,211.500 23.000 C 210.675 23.000,210.000 23.450,210.000 24.000 C 210.000 24.550,209.100 25.000,208.000 25.000 C 206.900 25.000,206.000 25.430,206.000 25.955 C 206.000 26.480,204.425 27.205,202.500 27.566 C 200.575 27.927,199.000 28.623,199.000 29.111 C 199.000 29.600,198.325 30.000,197.500 30.000 C 196.675 30.000,196.000 30.400,196.000 30.889 C 196.000 31.377,194.425 32.073,192.500 32.434 C 190.575 32.795,189.000 33.520,189.000 34.045 C 189.000 34.570,188.325 35.000,187.500 35.000 C 186.675 35.000,186.000 35.450,186.000 36.000 C 186.000 36.550,185.100 37.000,184.000 37.000 C 182.900 37.000,182.000 37.430,182.000 37.955 C 182.000 38.480,180.425 39.205,178.500 39.566 C 176.575 39.927,175.000 40.623,175.000 41.111 C 175.000 41.600,174.325 42.000,173.500 42.000 C 172.675 42.000,172.000 42.430,172.000 42.955 C 172.000 43.480,170.425 44.205,168.500 44.566 C 166.575 44.927,165.000 45.623,165.000 46.111 C 165.000 46.600,164.325 47.000,163.500 47.000 C 162.675 47.000,162.000 47.400,162.000 47.889 C 162.000 48.377,160.425 49.073,158.500 49.434 C 156.575 49.795,155.000 50.520,155.000 51.045 C 155.000 51.570,154.100 52.000,153.000 52.000 C 151.900 52.000,151.000 52.450,151.000 53.000 C 151.000 53.550,150.325 54.000,149.500 54.000 C 148.675 54.000,148.000 54.430,148.000 54.955 C 148.000 55.480,146.425 56.205,144.500 56.566 C 142.575 56.927,141.000 57.623,141.000 58.111 C 141.000 58.600,140.325 59.000,139.500 59.000 C 138.675 59.000,138.000 59.400,138.000 59.889 C 138.000 60.377,136.425 61.073,134.500 61.434 C 132.575 61.795,131.000 62.520,131.000 63.045 C 131.000 63.570,130.100 64.000,129.000 64.000 C 127.900 64.000,127.000 64.450,127.000 65.000 C 127.000 65.550,126.325 66.000,125.500 66.000 C 124.675 66.000,124.000 66.430,124.000 66.955 C 124.000 67.480,122.425 68.205,120.500 68.566 C 118.575 68.927,117.000 69.623,117.000 70.111 C 117.000 70.600,116.325 71.000,115.500 71.000 C 114.675 71.000,114.000 71.400,114.000 71.889 C 114.000 72.377,112.425 73.073,110.500 73.434 C 108.575 73.795,107.000 74.520,107.000 75.045 C 107.000 75.570,106.325 76.000,105.500 76.000 C 104.675 76.000,104.000 76.450,104.000 77.000 C 104.000 77.550,103.100 78.000,102.000 78.000 C 100.900 78.000,100.000 78.430,100.000 78.955 C 100.000 79.480,98.425 80.205,96.500 80.566 C 94.575 80.927,93.000 81.623,93.000 82.111 C 93.000 82.600,92.325 83.000,91.500 83.000 C 90.675 83.000,90.000 83.400,90.000 83.889 C 90.000 84.377,88.425 85.073,86.500 85.434 C 84.575 85.795,83.000 86.520,83.000 87.045 C 83.000 87.570,82.325 88.000,81.500 88.000 C 80.675 88.000,80.000 88.450,80.000 89.000 C 80.000 89.550,79.100 90.000,78.000 90.000 C 76.900 90.000,76.000 90.430,76.000 90.955 C 76.000 91.480,74.425 92.205,72.500 92.566 C 70.575 92.927,69.000 93.623,69.000 94.111 C 69.000 94.600,68.325 95.000,67.500 95.000 C 66.675 95.000,66.000 95.400,66.000 95.889 C 66.000 96.377,64.425 97.073,62.500 97.434 C 60.575 97.795,59.000 98.520,59.000 99.045 C 59.000 99.570,58.325 100.000,57.500 100.000 C 56.675 100.000,56.000 100.450,56.000 101.000 C 56.000 101.550,55.100 102.000,54.000 102.000 C 52.900 102.000,52.000 102.430,52.000 102.955 C 52.000 103.480,50.425 104.205,48.500 104.566 L 45.000 105.223 45.000 136.411 C 45.000 171.289,44.724 170.000,52.200 170.000 C 54.840 170.000,57.000 170.450,57.000 171.000 C 57.000 171.571,60.000 172.000,64.000 172.000 C 67.850 172.000,71.000 172.396,71.000 172.879 C 71.000 173.363,77.075 174.084,84.500 174.482 C 91.925 174.880,98.000 175.609,98.000 176.102 C 98.000 176.596,101.150 177.000,105.000 177.000 C 109.000 177.000,112.000 177.429,112.000 178.000 C 112.000 178.571,114.980 179.000,118.941 179.000 C 122.759 179.000,126.135 179.409,126.444 179.910 C 126.753 180.410,132.855 181.143,140.003 181.538 C 147.151 181.933,153.000 182.649,153.000 183.128 C 153.000 183.608,156.150 184.000,160.000 184.000 C 163.850 184.000,167.000 184.396,167.000 184.879 C 167.000 185.363,173.075 186.084,180.500 186.482 C 187.925 186.880,194.000 187.609,194.000 188.102 C 194.000 188.596,192.875 189.000,191.500 189.000 C 190.125 189.000,189.000 189.392,189.000 189.871 C 189.000 190.351,184.050 191.064,178.000 191.456 L 167.000 192.169 167.000 257.468 L 167.000 322.767 169.250 323.370 C 170.487 323.701,173.188 323.979,175.250 323.986 C 177.313 323.994,179.000 324.450,179.000 325.000 C 179.000 325.571,176.000 326.000,172.000 326.000 C 168.150 326.000,165.000 326.396,165.000 326.879 C 165.000 327.363,158.925 328.084,151.500 328.482 C 144.075 328.880,138.000 329.609,138.000 330.102 C 138.000 330.596,134.850 331.000,131.000 331.000 C 127.150 331.000,124.000 331.392,124.000 331.872 C 124.000 332.351,118.151 333.067,111.003 333.462 C 103.855 333.857,97.753 334.590,97.444 335.090 C 97.135 335.591,93.759 336.000,89.941 336.000 C 85.980 336.000,83.000 336.429,83.000 337.000 C 83.000 337.571,80.000 338.000,76.000 338.000 C 72.150 338.000,69.000 338.392,69.000 338.872 C 69.000 339.351,63.634 340.063,57.075 340.455 C 49.407 340.912,45.026 341.583,44.803 342.333 C 44.612 342.975,44.615 358.419,44.810 376.654 L 45.164 409.808 48.582 410.449 C 50.462 410.802,52.000 411.520,52.000 412.045 C 52.000 412.570,52.900 413.000,54.000 413.000 C 55.100 413.000,56.000 413.450,56.000 414.000 C 56.000 414.550,56.675 415.000,57.500 415.000 C 58.325 415.000,59.000 415.430,59.000 415.955 C 59.000 416.480,60.575 417.205,62.500 417.566 C 64.425 417.927,66.000 418.623,66.000 419.111 C 66.000 419.600,66.675 420.000,67.500 420.000 C 68.325 420.000,69.000 420.400,69.000 420.889 C 69.000 421.377,70.575 422.073,72.500 422.434 C 74.425 422.795,76.000 423.520,76.000 424.045 C 76.000 424.570,76.900 425.000,78.000 425.000 C 79.100 425.000,80.000 425.450,80.000 426.000 C 80.000 426.550,80.675 427.000,81.500 427.000 C 82.325 427.000,83.000 427.430,83.000 427.955 C 83.000 428.480,84.575 429.205,86.500 429.566 C 88.425 429.927,90.000 430.623,90.000 431.111 C 90.000 431.600,90.675 432.000,91.500 432.000 C 92.325 432.000,93.000 432.400,93.000 432.889 C 93.000 433.377,94.575 434.073,96.500 434.434 C 98.425 434.795,100.000 435.520,100.000 436.045 C 100.000 436.570,100.900 437.000,102.000 437.000 C 103.100 437.000,104.000 437.450,104.000 438.000 C 104.000 438.550,104.675 439.000,105.500 439.000 C 106.325 439.000,107.000 439.430,107.000 439.955 C 107.000 440.480,108.575 441.205,110.500 441.566 C 112.425 441.927,114.000 442.623,114.000 443.111 C 114.000 443.600,114.675 444.000,115.500 444.000 C 116.325 444.000,117.000 444.400,117.000 444.889 C 117.000 445.377,118.575 446.073,120.500 446.434 C 122.425 446.795,124.000 447.520,124.000 448.045 C 124.000 448.570,124.675 449.000,125.500 449.000 C 126.325 449.000,127.000 449.450,127.000 450.000 C 127.000 450.550,127.900 451.000,129.000 451.000 C 130.100 451.000,131.000 451.430,131.000 451.955 C 131.000 452.480,132.575 453.205,134.500 453.566 C 136.425 453.927,138.000 454.623,138.000 455.111 C 138.000 455.600,138.675 456.000,139.500 456.000 C 140.325 456.000,141.000 456.400,141.000 456.889 C 141.000 457.377,142.575 458.073,144.500 458.434 C 146.425 458.795,148.000 459.520,148.000 460.045 C 148.000 460.570,148.675 461.000,149.500 461.000 C 150.325 461.000,151.000 461.450,151.000 462.000 C 151.000 462.550,151.900 463.000,153.000 463.000 C 154.100 463.000,155.000 463.430,155.000 463.955 C 155.000 464.480,156.575 465.205,158.500 465.566 C 160.425 465.927,162.000 466.623,162.000 467.111 C 162.000 467.600,162.675 468.000,163.500 468.000 C 164.325 468.000,165.000 468.400,165.000 468.889 C 165.000 469.377,166.575 470.073,168.500 470.434 C 170.425 470.795,172.000 471.520,172.000 472.045 C 172.000 472.570,172.675 473.000,173.500 473.000 C 174.325 473.000,175.000 473.450,175.000 474.000 C 175.000 474.550,175.787 475.014,176.750 475.032 C 177.713 475.049,179.374 475.724,180.441 476.532 C 181.509 477.339,183.196 478.000,184.191 478.000 C 185.186 478.000,186.000 478.450,186.000 479.000 C 186.000 479.550,186.675 480.000,187.500 480.000 C 188.325 480.000,189.000 480.430,189.000 480.955 C 189.000 481.480,190.575 482.205,192.500 482.566 C 194.425 482.927,196.000 483.623,196.000 484.111 C 196.000 484.600,196.675 485.000,197.500 485.000 C 198.325 485.000,199.000 485.400,199.000 485.889 C 199.000 486.377,200.575 487.073,202.500 487.434 C 204.425 487.795,206.000 488.520,206.000 489.045 C 206.000 489.570,206.900 490.000,208.000 490.000 C 209.100 490.000,210.000 490.450,210.000 491.000 C 210.000 491.550,210.675 492.000,211.500 492.000 C 212.325 492.000,213.000 492.430,213.000 492.955 C 213.000 493.480,214.575 494.205,216.500 494.566 C 218.425 494.927,220.000 495.623,220.000 496.111 C 220.000 496.600,220.675 497.000,221.500 497.000 C 222.325 497.000,223.000 497.400,223.000 497.889 C 223.000 498.377,224.575 499.073,226.500 499.434 C 228.425 499.795,230.000 500.520,230.000 501.045 C 230.000 501.570,230.900 502.000,232.000 502.000 C 233.100 502.000,234.000 502.450,234.000 503.000 C 234.000 503.550,234.675 504.000,235.500 504.000 C 236.325 504.000,237.000 504.430,237.000 504.955 C 237.000 505.480,238.575 506.205,240.500 506.566 C 242.425 506.927,244.000 507.623,244.000 508.111 C 244.000 508.600,244.675 509.000,245.500 509.000 C 246.325 509.000,247.000 509.450,247.000 510.000 C 247.000 510.550,247.942 511.000,249.094 511.000 C 250.379 511.000,251.399 511.810,251.736 513.099 C 252.354 515.461,267.314 515.695,268.792 513.366 C 269.182 512.753,270.962 511.934,272.750 511.546 C 274.538 511.158,276.000 510.427,276.000 509.921 C 276.000 509.414,276.900 509.000,278.000 509.000 C 279.100 509.000,280.000 508.570,280.000 508.045 C 280.000 507.520,281.575 506.795,283.500 506.434 C 285.425 506.073,287.000 505.377,287.000 504.889 C 287.000 504.400,287.675 504.000,288.500 504.000 C 289.325 504.000,290.000 503.550,290.000 503.000 C 290.000 502.450,290.675 502.000,291.500 502.000 C 292.325 502.000,293.000 501.600,293.000 501.111 C 293.000 500.623,294.575 499.927,296.500 499.566 C 298.425 499.205,300.000 498.480,300.000 497.955 C 300.000 497.430,300.900 497.000,302.000 497.000 C 303.100 497.000,304.000 496.550,304.000 496.000 C 304.000 495.450,304.447 495.000,304.993 495.000 C 306.701 495.000,314.000 491.567,314.000 490.764 C 314.000 490.344,314.675 490.000,315.500 490.000 C 316.325 490.000,317.000 489.600,317.000 489.111 C 317.000 488.623,318.575 487.927,320.500 487.566 C 322.425 487.205,324.000 486.480,324.000 485.955 C 324.000 485.430,324.900 485.000,326.000 485.000 C 327.100 485.000,328.000 484.586,328.000 484.079 C 328.000 483.573,329.350 482.862,331.000 482.500 C 332.650 482.138,334.000 481.427,334.000 480.921 C 334.000 480.414,334.900 480.000,336.000 480.000 C 337.100 480.000,338.000 479.550,338.000 479.000 C 338.000 478.450,338.447 478.000,338.993 478.000 C 340.701 478.000,348.000 474.567,348.000 473.764 C 348.000 473.344,348.900 473.000,350.000 473.000 C 351.100 473.000,352.000 472.586,352.000 472.079 C 352.000 471.573,353.350 470.862,355.000 470.500 C 356.650 470.138,358.000 469.427,358.000 468.921 C 358.000 468.414,358.900 468.000,360.000 468.000 C 361.100 468.000,362.000 467.550,362.000 467.000 C 362.000 466.450,362.447 466.000,362.993 466.000 C 364.701 466.000,372.000 462.567,372.000 461.764 C 372.000 461.344,372.900 461.000,374.000 461.000 C 375.100 461.000,376.000 460.586,376.000 460.079 C 376.000 459.573,377.350 458.862,379.000 458.500 C 380.650 458.138,382.000 457.427,382.000 456.921 C 382.000 456.414,382.900 456.000,384.000 456.000 C 385.100 456.000,386.000 455.570,386.000 455.045 C 386.000 454.520,387.575 453.795,389.500 453.434 C 391.425 453.073,393.000 452.377,393.000 451.889 C 393.000 451.400,393.675 451.000,394.500 451.000 C 395.325 451.000,396.000 450.656,396.000 450.236 C 396.000 449.433,403.299 446.000,405.007 446.000 C 405.553 446.000,406.000 445.550,406.000 445.000 C 406.000 444.450,406.900 444.000,408.000 444.000 C 409.100 444.000,410.000 443.570,410.000 443.045 C 410.000 442.520,411.575 441.795,413.500 441.434 C 415.425 441.073,417.000 440.377,417.000 439.889 C 417.000 439.400,417.675 439.000,418.500 439.000 C 419.325 439.000,420.000 438.550,420.000 438.000 C 420.000 437.450,420.675 437.000,421.500 437.000 C 422.325 437.000,423.000 436.600,423.000 436.111 C 423.000 435.623,424.575 434.927,426.500 434.566 C 428.425 434.205,430.000 433.480,430.000 432.955 C 430.000 432.430,430.900 432.000,432.000 432.000 C 433.100 432.000,434.000 431.570,434.000 431.045 C 434.000 430.520,435.575 429.795,437.500 429.434 C 439.425 429.073,441.000 428.377,441.000 427.889 C 441.000 427.400,441.675 427.000,442.500 427.000 C 443.325 427.000,444.000 426.550,444.000 426.000 C 444.000 425.450,444.675 425.000,445.500 425.000 C 446.325 425.000,447.000 424.600,447.000 424.111 C 447.000 423.623,448.575 422.927,450.500 422.566 C 452.425 422.205,454.000 421.480,454.000 420.955 C 454.000 420.430,454.900 420.000,456.000 420.000 C 457.100 420.000,458.000 419.550,458.000 419.000 C 458.000 418.450,458.447 418.000,458.993 418.000 C 460.701 418.000,468.000 414.567,468.000 413.764 C 468.000 413.344,468.482 413.000,469.071 413.000 C 472.773 413.000,473.000 410.979,473.000 378.000 C 473.000 342.045,473.191 343.000,466.000 343.000 C 463.651 343.000,461.208 342.351,460.357 341.500 C 459.335 340.478,456.810 340.000,452.429 340.000 C 448.810 340.000,446.000 339.563,446.000 339.000 C 446.000 338.429,443.000 338.000,439.000 338.000 C 435.000 338.000,432.000 337.571,432.000 337.000 C 432.000 336.429,429.020 336.000,425.059 336.000 C 421.241 336.000,417.865 335.591,417.556 335.090 C 417.247 334.590,411.145 333.857,403.997 333.462 C 396.849 333.067,391.000 332.351,391.000 331.872 C 391.000 331.392,387.850 331.000,384.000 331.000 C 380.150 331.000,377.000 330.596,377.000 330.102 C 377.000 329.609,370.925 328.880,363.500 328.482 C 351.212 327.824,350.000 327.590,350.000 325.879 C 350.000 324.846,350.450 324.000,351.000 324.000 C 351.657 324.000,352.000 301.310,352.000 257.929 C 352.000 183.978,352.541 189.000,344.571 189.000 C 342.057 189.000,340.000 188.579,340.000 188.063 C 340.000 187.548,338.538 186.945,336.750 186.723 C 334.962 186.502,336.762 186.248,340.750 186.160 C 344.810 186.070,348.000 185.560,348.000 185.000 C 348.000 184.429,351.000 184.000,355.000 184.000 C 358.850 184.000,362.000 183.608,362.000 183.128 C 362.000 182.649,367.849 181.933,374.997 181.538 C 382.145 181.143,388.247 180.410,388.556 179.910 C 388.865 179.409,392.241 179.000,396.059 179.000 C 400.020 179.000,403.000 178.571,403.000 178.000 C 403.000 177.429,406.000 177.000,410.000 177.000 C 413.850 177.000,417.000 176.596,417.000 176.102 C 417.000 175.609,423.075 174.880,430.500 174.482 C 437.925 174.084,444.000 173.363,444.000 172.879 C 444.000 172.396,447.150 172.000,451.000 172.000 C 455.000 172.000,458.000 171.571,458.000 171.000 C 458.000 170.450,459.125 170.000,460.500 170.000 C 461.875 170.000,463.000 170.450,463.000 171.000 C 463.000 172.534,469.956 172.187,471.571 170.571 C 472.750 169.393,473.000 163.524,473.000 137.000 C 473.000 104.021,472.773 102.000,469.071 102.000 C 468.482 102.000,468.000 101.656,468.000 101.236 C 468.000 100.433,460.701 97.000,458.993 97.000 C 458.447 97.000,458.000 96.550,458.000 96.000 C 458.000 95.450,457.100 95.000,456.000 95.000 C 454.900 95.000,454.000 94.570,454.000 94.045 C 454.000 93.520,452.425 92.795,450.500 92.434 C 448.575 92.073,447.000 91.377,447.000 90.889 C 447.000 90.400,446.325 90.000,445.500 90.000 C 444.675 90.000,444.000 89.550,444.000 89.000 C 444.000 88.450,443.325 88.000,442.500 88.000 C 441.675 88.000,441.000 87.600,441.000 87.111 C 441.000 86.623,439.425 85.927,437.500 85.566 C 435.575 85.205,434.000 84.480,434.000 83.955 C 434.000 83.430,433.100 83.000,432.000 83.000 C 430.900 83.000,430.000 82.570,430.000 82.045 C 430.000 81.520,428.425 80.795,426.500 80.434 C 424.575 80.073,423.000 79.377,423.000 78.889 C 423.000 78.400,422.325 78.000,421.500 78.000 C 420.675 78.000,420.000 77.550,420.000 77.000 C 420.000 76.450,419.325 76.000,418.500 76.000 C 417.675 76.000,417.000 75.600,417.000 75.111 C 417.000 74.623,415.425 73.927,413.500 73.566 C 411.575 73.205,410.000 72.480,410.000 71.955 C 410.000 71.430,409.100 71.000,408.000 71.000 C 406.900 71.000,406.000 70.586,406.000 70.079 C 406.000 69.573,404.650 68.862,403.000 68.500 C 401.350 68.138,400.000 67.427,400.000 66.921 C 400.000 66.414,399.100 66.000,398.000 66.000 C 396.900 66.000,396.000 65.550,396.000 65.000 C 396.000 64.450,395.325 64.000,394.500 64.000 C 393.675 64.000,393.000 63.600,393.000 63.111 C 393.000 62.623,391.425 61.927,389.500 61.566 C 387.575 61.205,386.000 60.480,386.000 59.955 C 386.000 59.430,385.100 59.000,384.000 59.000 C 382.900 59.000,382.000 58.586,382.000 58.079 C 382.000 57.573,380.650 56.862,379.000 56.500 C 377.350 56.138,376.000 55.427,376.000 54.921 C 376.000 54.414,375.100 54.000,374.000 54.000 C 372.900 54.000,372.000 53.656,372.000 53.236 C 372.000 52.433,364.701 49.000,362.993 49.000 C 362.447 49.000,362.000 48.550,362.000 48.000 C 362.000 47.450,361.100 47.000,360.000 47.000 C 358.900 47.000,358.000 46.586,358.000 46.079 C 358.000 45.573,356.650 44.862,355.000 44.500 C 353.350 44.138,352.000 43.427,352.000 42.921 C 352.000 42.414,351.100 42.000,350.000 42.000 C 348.900 42.000,348.000 41.570,348.000 41.045 C 348.000 40.520,346.425 39.795,344.500 39.434 C 342.575 39.073,341.000 38.377,341.000 37.889 C 341.000 37.400,340.325 37.000,339.500 37.000 C 338.675 37.000,338.000 36.550,338.000 36.000 C 338.000 35.450,337.100 35.000,336.000 35.000 C 334.900 35.000,334.000 34.586,334.000 34.079 C 334.000 33.573,332.650 32.862,331.000 32.500 C 329.350 32.138,328.000 31.427,328.000 30.921 C 328.000 30.414,327.100 30.000,326.000 30.000 C 324.900 30.000,324.000 29.570,324.000 29.045 C 324.000 28.520,322.425 27.795,320.500 27.434 C 318.575 27.073,317.000 26.377,317.000 25.889 C 317.000 25.400,316.325 25.000,315.500 25.000 C 314.675 25.000,314.000 24.656,314.000 24.236 C 314.000 23.433,306.701 20.000,304.993 20.000 C 304.447 20.000,304.000 19.550,304.000 19.000 C 304.000 18.450,303.100 18.000,302.000 18.000 C 300.900 18.000,300.000 17.570,300.000 17.045 C 300.000 16.520,298.425 15.795,296.500 15.434 C 294.575 15.073,293.000 14.377,293.000 13.889 C 293.000 13.400,292.325 13.000,291.500 13.000 C 290.675 13.000,290.000 12.550,290.000 12.000 C 290.000 11.450,289.325 11.000,288.500 11.000 C 287.675 11.000,287.000 10.600,287.000 10.111 C 287.000 9.623,285.425 8.927,283.500 8.566 C 281.575 8.205,280.000 7.480,280.000 6.955 C 280.000 6.430,279.100 6.000,278.000 6.000 C 276.900 6.000,276.000 5.586,276.000 5.079 C 276.000 4.573,274.538 3.842,272.750 3.454 C 270.962 3.066,269.182 2.247,268.792 1.634 C 268.403 1.020,264.467 0.354,260.042 0.153 L 252.000 -0.212 252.000 7.894 M266.000 13.955 C 266.000 14.480,267.575 15.205,269.500 15.566 C 271.425 15.927,273.000 16.623,273.000 17.111 C 273.000 17.600,273.675 18.000,274.500 18.000 C 275.325 18.000,276.000 18.400,276.000 18.889 C 276.000 19.377,277.575 20.073,279.500 20.434 C 281.425 20.795,283.000 21.520,283.000 22.045 C 283.000 22.570,283.900 23.000,285.000 23.000 C 286.100 23.000,287.000 23.450,287.000 24.000 C 287.000 24.550,287.675 25.000,288.500 25.000 C 289.325 25.000,290.000 25.430,290.000 25.955 C 290.000 26.480,291.575 27.205,293.500 27.566 C 295.425 27.927,297.000 28.623,297.000 29.111 C 297.000 29.600,297.675 30.000,298.500 30.000 C 299.325 30.000,300.000 30.400,300.000 30.889 C 300.000 31.377,301.575 32.073,303.500 32.434 C 305.425 32.795,307.000 33.520,307.000 34.045 C 307.000 34.570,307.900 35.000,309.000 35.000 C 310.100 35.000,311.000 35.414,311.000 35.921 C 311.000 36.427,312.350 37.138,314.000 37.500 C 315.650 37.862,317.000 38.573,317.000 39.079 C 317.000 39.586,317.900 40.000,319.000 40.000 C 320.100 40.000,321.000 40.450,321.000 41.000 C 321.000 41.550,321.675 42.000,322.500 42.000 C 323.325 42.000,324.000 42.400,324.000 42.889 C 324.000 43.377,325.575 44.073,327.500 44.434 C 329.425 44.795,331.000 45.414,331.000 45.809 C 331.000 46.579,338.352 50.000,340.007 50.000 C 340.553 50.000,341.000 50.450,341.000 51.000 C 341.000 51.550,341.900 52.000,343.000 52.000 C 344.100 52.000,345.000 52.450,345.000 53.000 C 345.000 53.550,345.675 54.000,346.500 54.000 C 347.325 54.000,348.000 54.400,348.000 54.889 C 348.000 55.377,349.575 56.073,351.500 56.434 C 353.425 56.795,355.000 57.520,355.000 58.045 C 355.000 58.570,355.675 59.000,356.500 59.000 C 357.325 59.000,358.000 59.400,358.000 59.889 C 358.000 60.377,359.575 61.073,361.500 61.434 C 363.425 61.795,365.000 62.520,365.000 63.045 C 365.000 63.570,365.900 64.000,367.000 64.000 C 368.100 64.000,369.000 64.450,369.000 65.000 C 369.000 65.550,369.675 66.000,370.500 66.000 C 371.325 66.000,372.000 66.400,372.000 66.889 C 372.000 67.377,373.575 68.073,375.500 68.434 C 377.425 68.795,379.000 69.520,379.000 70.045 C 379.000 70.570,379.675 71.000,380.500 71.000 C 381.325 71.000,382.000 71.400,382.000 71.889 C 382.000 72.377,383.575 73.073,385.500 73.434 C 387.425 73.795,389.000 74.520,389.000 75.045 C 389.000 75.570,389.900 76.000,391.000 76.000 C 392.100 76.000,393.000 76.450,393.000 77.000 C 393.000 77.550,393.675 78.000,394.500 78.000 C 395.325 78.000,396.000 78.400,396.000 78.889 C 396.000 79.377,397.575 80.073,399.500 80.434 C 401.425 80.795,403.000 81.520,403.000 82.045 C 403.000 82.570,403.675 83.000,404.500 83.000 C 405.325 83.000,406.000 83.400,406.000 83.889 C 406.000 84.377,407.575 85.073,409.500 85.434 C 411.425 85.795,413.000 86.520,413.000 87.045 C 413.000 87.570,413.900 88.000,415.000 88.000 C 416.100 88.000,417.000 88.450,417.000 89.000 C 417.000 89.550,417.675 90.000,418.500 90.000 C 419.325 90.000,420.000 90.430,420.000 90.955 C 420.000 91.480,421.575 92.205,423.500 92.566 C 425.425 92.927,427.000 93.623,427.000 94.111 C 427.000 94.600,427.675 95.000,428.500 95.000 C 429.325 95.000,430.000 95.400,430.000 95.889 C 430.000 96.377,431.575 97.073,433.500 97.434 C 435.425 97.795,437.000 98.520,437.000 99.045 C 437.000 99.570,437.900 100.000,439.000 100.000 C 440.100 100.000,441.000 100.450,441.000 101.000 C 441.000 101.550,441.675 102.000,442.500 102.000 C 443.325 102.000,444.000 102.430,444.000 102.955 C 444.000 103.480,445.575 104.205,447.500 104.566 C 449.425 104.927,451.000 105.623,451.000 106.111 C 451.000 106.600,451.675 107.000,452.500 107.000 C 453.325 107.000,454.000 107.394,454.000 107.875 C 454.000 108.356,455.376 109.025,457.058 109.362 C 462.958 110.542,463.000 110.725,463.000 135.542 L 463.000 158.227 458.250 157.524 C 455.637 157.137,453.350 156.411,453.167 155.910 C 452.983 155.410,451.521 155.000,449.917 155.000 C 448.313 155.000,447.000 154.550,447.000 154.000 C 447.000 153.450,445.650 153.000,444.000 153.000 C 442.350 153.000,441.000 152.602,441.000 152.115 C 441.000 151.629,438.525 150.921,435.500 150.543 C 432.475 150.165,430.000 149.438,430.000 148.928 C 430.000 148.418,428.425 148.000,426.500 148.000 C 424.575 148.000,423.000 147.592,423.000 147.094 C 423.000 146.595,420.750 145.878,418.000 145.500 C 415.250 145.122,413.000 144.405,413.000 143.906 C 413.000 143.408,411.425 143.000,409.500 143.000 C 407.575 143.000,406.000 142.550,406.000 142.000 C 406.000 141.450,404.875 141.000,403.500 141.000 C 402.125 141.000,401.000 140.572,401.000 140.050 C 401.000 139.527,398.300 138.794,395.000 138.420 C 391.700 138.047,389.000 137.350,389.000 136.871 C 389.000 136.392,387.875 136.000,386.500 136.000 C 385.125 136.000,384.000 135.572,384.000 135.050 C 384.000 134.527,381.300 133.794,378.000 133.420 C 374.700 133.047,372.000 132.350,372.000 131.871 C 372.000 131.392,370.875 131.000,369.500 131.000 C 368.125 131.000,367.000 130.550,367.000 130.000 C 367.000 129.450,365.875 129.000,364.500 129.000 C 363.125 129.000,362.000 128.608,362.000 128.129 C 362.000 127.650,359.300 126.953,356.000 126.580 C 352.700 126.206,350.000 125.473,350.000 124.950 C 350.000 124.428,348.875 124.000,347.500 124.000 C 346.125 124.000,345.000 123.608,345.000 123.129 C 345.000 122.650,342.300 121.953,339.000 121.580 C 335.700 121.206,333.000 120.473,333.000 119.950 C 333.000 119.428,331.875 119.000,330.500 119.000 C 329.125 119.000,328.000 118.550,328.000 118.000 C 328.000 117.450,326.452 117.000,324.559 117.000 C 322.666 117.000,320.856 116.576,320.536 116.058 C 320.215 115.540,317.939 114.813,315.477 114.444 C 313.015 114.075,311.000 113.374,311.000 112.886 C 311.000 112.399,309.425 112.000,307.500 112.000 C 305.575 112.000,304.000 111.582,304.000 111.072 C 304.000 110.562,301.525 109.835,298.500 109.457 C 295.475 109.079,293.000 108.371,293.000 107.885 C 293.000 107.398,291.650 107.000,290.000 107.000 C 288.350 107.000,287.000 106.602,287.000 106.115 C 287.000 105.629,284.525 104.921,281.500 104.543 C 278.475 104.165,276.000 103.438,276.000 102.928 C 276.000 102.418,274.425 102.000,272.500 102.000 C 270.575 102.000,269.000 101.550,269.000 101.000 C 269.000 100.450,267.923 100.000,266.607 100.000 C 263.006 100.000,263.000 99.922,263.000 54.918 C 263.000 18.324,263.191 13.000,264.500 13.000 C 265.325 13.000,266.000 13.430,266.000 13.955 M266.000 189.889 C 266.000 190.379,271.400 191.103,278.000 191.500 C 284.600 191.897,290.000 192.621,290.000 193.111 C 290.000 193.600,294.725 194.000,300.500 194.000 C 306.833 194.000,311.000 194.397,311.000 195.000 C 311.000 195.550,313.250 196.000,316.000 196.000 C 318.750 196.000,321.000 196.450,321.000 197.000 C 321.000 197.550,322.734 198.000,324.853 198.000 C 326.973 198.000,331.476 198.289,334.861 198.643 L 341.016 199.287 340.758 257.893 L 340.500 316.500 334.250 316.798 C 330.813 316.961,328.000 317.524,328.000 318.048 C 328.000 318.571,325.525 319.000,322.500 319.000 C 319.475 319.000,317.000 319.450,317.000 320.000 C 317.000 320.593,313.333 321.000,308.000 321.000 C 303.050 321.000,299.000 321.406,299.000 321.901 C 299.000 322.397,293.825 323.126,287.500 323.521 C 281.175 323.916,276.000 324.636,276.000 325.120 C 276.000 325.604,273.337 326.000,270.083 326.000 C 266.286 326.000,263.986 326.448,263.662 327.250 C 262.916 329.099,262.906 203.644,263.652 195.750 C 264.153 190.442,266.000 185.833,266.000 189.889 M252.000 323.119 L 252.000 329.238 242.250 328.517 C 236.887 328.121,232.350 327.392,232.167 326.898 C 231.983 326.404,230.746 326.000,229.417 326.000 C 223.404 326.000,229.676 322.243,237.250 321.308 C 239.863 320.985,242.000 320.334,242.000 319.861 C 242.000 319.387,243.575 319.000,245.500 319.000 C 247.425 319.000,249.000 318.550,249.000 318.000 C 249.000 317.450,249.675 317.000,250.500 317.000 C 251.670 317.000,252.000 318.347,252.000 323.119 M212.833 335.120 C 213.017 335.604,215.829 336.000,219.083 336.000 C 222.361 336.000,225.000 336.446,225.000 337.000 C 225.000 337.550,227.250 338.000,230.000 338.000 C 232.750 338.000,235.000 338.450,235.000 339.000 C 235.000 339.550,236.993 340.000,239.429 340.000 C 243.627 340.000,247.000 341.814,247.000 344.071 C 247.000 344.582,250.825 345.000,255.500 345.000 C 260.500 345.000,264.000 344.588,264.000 344.000 C 264.000 343.450,266.475 343.000,269.500 343.000 C 272.525 343.000,275.000 342.600,275.000 342.111 C 275.000 341.621,280.400 340.897,287.000 340.500 C 293.600 340.103,299.000 339.379,299.000 338.889 C 299.000 338.400,301.250 338.000,304.000 338.000 C 306.750 338.000,309.000 337.550,309.000 337.000 C 309.000 336.404,312.833 336.000,318.500 336.000 C 325.391 336.000,328.022 335.657,328.079 334.750 C 328.142 333.750,328.259 333.750,328.662 334.750 C 328.998 335.581,331.486 336.000,336.083 336.000 C 340.028 336.000,343.000 336.430,343.000 337.000 C 343.000 337.571,346.000 338.000,350.000 338.000 C 353.850 338.000,357.000 338.404,357.000 338.898 C 357.000 339.391,363.075 340.120,370.500 340.518 C 377.925 340.916,384.000 341.637,384.000 342.121 C 384.000 342.604,387.150 343.000,391.000 343.000 C 394.850 343.000,398.000 343.404,398.000 343.898 C 398.000 344.391,404.075 345.120,411.500 345.518 C 423.788 346.176,425.000 346.410,425.000 348.121 C 425.000 349.459,424.280 350.000,422.500 350.000 C 421.125 350.000,420.000 350.392,420.000 350.871 C 420.000 351.350,417.300 352.047,414.000 352.420 C 410.700 352.794,408.000 353.527,408.000 354.050 C 408.000 354.572,406.875 355.000,405.500 355.000 C 404.125 355.000,403.000 355.392,403.000 355.871 C 403.000 356.350,400.300 357.047,397.000 357.420 C 393.700 357.794,391.000 358.527,391.000 359.050 C 391.000 359.572,389.875 360.000,388.500 360.000 C 387.125 360.000,386.000 360.450,386.000 361.000 C 386.000 361.550,384.425 362.000,382.500 362.000 C 380.575 362.000,379.000 362.408,379.000 362.906 C 379.000 363.405,376.750 364.122,374.000 364.500 C 371.250 364.878,369.000 365.595,369.000 366.094 C 369.000 366.592,367.425 367.000,365.500 367.000 C 363.575 367.000,362.000 367.408,362.000 367.906 C 362.000 368.405,359.750 369.122,357.000 369.500 C 354.250 369.878,352.000 370.595,352.000 371.094 C 352.000 371.592,350.425 372.000,348.500 372.000 C 346.575 372.000,345.000 372.450,345.000 373.000 C 345.000 373.550,343.875 374.000,342.500 374.000 C 341.125 374.000,340.000 374.392,340.000 374.871 C 340.000 375.350,337.300 376.047,334.000 376.420 C 330.700 376.794,328.000 377.527,328.000 378.050 C 328.000 378.572,326.875 379.000,325.500 379.000 C 324.125 379.000,323.000 379.392,323.000 379.871 C 323.000 380.350,320.300 381.047,317.000 381.420 C 313.700 381.794,311.000 382.527,311.000 383.050 C 311.000 383.572,309.650 384.000,308.000 384.000 C 306.350 384.000,305.000 384.450,305.000 385.000 C 305.000 385.550,303.650 386.000,302.000 386.000 C 300.350 386.000,299.000 386.398,299.000 386.885 C 299.000 387.371,296.525 388.079,293.500 388.457 C 290.475 388.835,288.000 389.562,288.000 390.072 C 288.000 390.582,286.425 391.000,284.500 391.000 C 282.575 391.000,281.000 391.408,281.000 391.906 C 281.000 392.405,278.750 393.122,276.000 393.500 C 273.250 393.878,271.000 394.595,271.000 395.094 C 271.000 395.592,269.425 396.000,267.500 396.000 C 265.575 396.000,264.000 396.450,264.000 397.000 C 264.000 397.550,262.913 398.000,261.583 398.000 C 260.254 398.000,258.995 398.514,258.786 399.143 C 258.557 399.828,256.040 400.286,252.500 400.286 C 248.960 400.286,246.443 399.828,246.214 399.143 C 246.005 398.514,244.521 398.000,242.917 398.000 C 241.313 398.000,240.000 397.550,240.000 397.000 C 240.000 396.450,238.677 396.000,237.059 396.000 C 235.441 396.000,233.866 395.592,233.558 395.094 C 233.250 394.595,230.748 393.878,227.999 393.500 C 225.249 393.122,223.000 392.405,223.000 391.906 C 223.000 391.408,221.425 391.000,219.500 391.000 C 217.575 391.000,216.000 390.592,216.000 390.094 C 216.000 389.595,213.750 388.878,211.000 388.500 C 208.250 388.122,206.000 387.405,206.000 386.906 C 206.000 386.408,204.425 386.000,202.500 386.000 C 200.575 386.000,199.000 385.550,199.000 385.000 C 199.000 384.450,197.875 384.000,196.500 384.000 C 195.125 384.000,194.000 383.608,194.000 383.129 C 194.000 382.650,191.300 381.953,188.000 381.580 C 184.700 381.206,182.000 380.473,182.000 379.950 C 182.000 379.428,180.875 379.000,179.500 379.000 C 178.125 379.000,177.000 378.608,177.000 378.129 C 177.000 377.650,174.300 376.953,171.000 376.580 C 167.700 376.206,165.000 375.473,165.000 374.950 C 165.000 374.428,163.875 374.000,162.500 374.000 C 161.125 374.000,160.000 373.550,160.000 373.000 C 160.000 372.450,158.425 372.000,156.500 372.000 C 154.575 372.000,153.000 371.592,153.000 371.094 C 153.000 370.595,150.750 369.878,148.000 369.500 C 145.250 369.122,143.000 368.405,143.000 367.906 C 143.000 367.408,141.425 367.000,139.500 367.000 C 137.575 367.000,136.000 366.592,136.000 366.094 C 136.000 365.595,133.750 364.878,131.000 364.500 C 128.250 364.122,126.000 363.405,126.000 362.906 C 126.000 362.408,124.425 362.000,122.500 362.000 C 120.575 362.000,119.000 361.550,119.000 361.000 C 119.000 360.450,117.875 360.000,116.500 360.000 C 115.125 360.000,114.000 359.572,114.000 359.050 C 114.000 358.527,111.300 357.794,108.000 357.420 C 104.700 357.047,102.000 356.350,102.000 355.871 C 102.000 355.392,100.875 355.000,99.500 355.000 C 98.125 355.000,97.000 354.572,97.000 354.050 C 97.000 353.527,94.300 352.794,91.000 352.420 C 87.700 352.047,85.000 351.350,85.000 350.871 C 85.000 350.392,83.875 350.000,82.500 350.000 C 81.125 350.000,80.000 349.550,80.000 349.000 C 80.000 348.450,82.250 348.000,85.000 348.000 C 87.750 348.000,90.000 347.604,90.000 347.121 C 90.000 346.637,96.075 345.916,103.500 345.518 C 110.925 345.120,117.000 344.391,117.000 343.898 C 117.000 343.404,120.150 343.000,124.000 343.000 C 127.850 343.000,131.000 342.604,131.000 342.121 C 131.000 341.637,137.075 340.916,144.500 340.518 C 151.925 340.120,158.000 339.391,158.000 338.898 C 158.000 338.404,161.150 338.000,165.000 338.000 C 169.000 338.000,172.000 337.571,172.000 337.000 C 172.000 336.429,175.000 336.000,179.000 336.000 C 182.850 336.000,186.000 335.571,186.000 335.046 C 186.000 333.187,212.128 333.259,212.833 335.120 M463.000 379.571 C 463.000 404.265,462.956 404.459,457.058 405.638 C 455.376 405.975,454.000 406.644,454.000 407.125 C 454.000 407.606,453.325 408.000,452.500 408.000 C 451.675 408.000,451.000 408.400,451.000 408.889 C 451.000 409.377,449.425 410.073,447.500 410.434 C 445.575 410.795,444.000 411.520,444.000 412.045 C 444.000 412.570,443.325 413.000,442.500 413.000 C 441.675 413.000,441.000 413.450,441.000 414.000 C 441.000 414.550,440.100 415.000,439.000 415.000 C 437.900 415.000,437.000 415.430,437.000 415.955 C 437.000 416.480,435.425 417.205,433.500 417.566 C 431.575 417.927,430.000 418.623,430.000 419.111 C 430.000 419.600,429.325 420.000,428.500 420.000 C 427.675 420.000,427.000 420.400,427.000 420.889 C 427.000 421.377,425.425 422.073,423.500 422.434 C 421.575 422.795,420.000 423.520,420.000 424.045 C 420.000 424.570,419.325 425.000,418.500 425.000 C 417.675 425.000,417.000 425.450,417.000 426.000 C 417.000 426.550,416.100 427.000,415.000 427.000 C 413.900 427.000,413.000 427.430,413.000 427.955 C 413.000 428.480,411.425 429.205,409.500 429.566 C 407.575 429.927,406.000 430.623,406.000 431.111 C 406.000 431.600,405.325 432.000,404.500 432.000 C 403.675 432.000,403.000 432.430,403.000 432.955 C 403.000 433.480,401.425 434.205,399.500 434.566 C 397.575 434.927,396.000 435.623,396.000 436.111 C 396.000 436.600,395.325 437.000,394.500 437.000 C 393.675 437.000,393.000 437.450,393.000 438.000 C 393.000 438.550,392.100 439.000,391.000 439.000 C 389.900 439.000,389.000 439.430,389.000 439.955 C 389.000 440.480,387.425 441.205,385.500 441.566 C 383.575 441.927,382.000 442.623,382.000 443.111 C 382.000 443.600,381.325 444.000,380.500 444.000 C 379.675 444.000,379.000 444.430,379.000 444.955 C 379.000 445.480,377.425 446.205,375.500 446.566 C 373.575 446.927,372.000 447.623,372.000 448.111 C 372.000 448.600,371.325 449.000,370.500 449.000 C 369.675 449.000,369.000 449.450,369.000 450.000 C 369.000 450.550,368.100 451.000,367.000 451.000 C 365.900 451.000,365.000 451.430,365.000 451.955 C 365.000 452.480,363.425 453.205,361.500 453.566 C 359.575 453.927,358.000 454.623,358.000 455.111 C 358.000 455.600,357.325 456.000,356.500 456.000 C 355.675 456.000,355.000 456.430,355.000 456.955 C 355.000 457.480,353.425 458.205,351.500 458.566 C 349.575 458.927,348.000 459.623,348.000 460.111 C 348.000 460.600,347.325 461.000,346.500 461.000 C 345.675 461.000,345.000 461.450,345.000 462.000 C 345.000 462.550,344.100 463.000,343.000 463.000 C 341.900 463.000,341.000 463.450,341.000 464.000 C 341.000 464.550,340.553 465.000,340.007 465.000 C 338.352 465.000,331.000 468.421,331.000 469.191 C 331.000 469.586,329.425 470.205,327.500 470.566 C 325.575 470.927,324.000 471.623,324.000 472.111 C 324.000 472.600,323.325 473.000,322.500 473.000 C 321.675 473.000,321.000 473.450,321.000 474.000 C 321.000 474.550,320.100 475.000,319.000 475.000 C 317.900 475.000,317.000 475.414,317.000 475.921 C 317.000 476.427,315.650 477.138,314.000 477.500 C 312.350 477.862,311.000 478.573,311.000 479.079 C 311.000 479.586,310.100 480.000,309.000 480.000 C 307.900 480.000,307.000 480.430,307.000 480.955 C 307.000 481.480,305.425 482.205,303.500 482.566 C 301.575 482.927,300.000 483.623,300.000 484.111 C 300.000 484.600,299.325 485.000,298.500 485.000 C 297.675 485.000,297.000 485.400,297.000 485.889 C 297.000 486.377,295.425 487.073,293.500 487.434 C 291.575 487.795,290.000 488.520,290.000 489.045 C 290.000 489.570,289.325 490.000,288.500 490.000 C 287.675 490.000,287.000 490.450,287.000 491.000 C 287.000 491.550,286.100 492.000,285.000 492.000 C 283.900 492.000,283.000 492.430,283.000 492.955 C 283.000 493.480,281.425 494.205,279.500 494.566 C 277.575 494.927,276.000 495.623,276.000 496.111 C 276.000 496.600,275.325 497.000,274.500 497.000 C 273.675 497.000,273.000 497.400,273.000 497.889 C 273.000 498.377,271.425 499.073,269.500 499.434 C 267.575 499.795,266.000 500.520,266.000 501.045 C 266.000 501.570,265.325 502.000,264.500 502.000 C 263.191 502.000,263.000 496.676,263.000 460.082 C 263.000 415.078,263.006 415.000,266.607 415.000 C 267.923 415.000,269.000 414.550,269.000 414.000 C 269.000 413.450,270.350 413.000,272.000 413.000 C 273.650 413.000,275.000 412.594,275.000 412.098 C 275.000 411.602,277.700 410.883,281.000 410.500 C 284.300 410.117,287.000 409.398,287.000 408.902 C 287.000 408.406,288.125 408.000,289.500 408.000 C 290.875 408.000,292.000 407.608,292.000 407.129 C 292.000 406.650,294.700 405.953,298.000 405.580 C 301.300 405.206,304.000 404.473,304.000 403.950 C 304.000 403.428,305.125 403.000,306.500 403.000 C 307.875 403.000,309.000 402.613,309.000 402.139 C 309.000 401.666,311.328 401.003,314.173 400.666 C 317.019 400.329,319.809 399.591,320.373 399.027 C 320.938 398.462,322.435 398.000,323.700 398.000 C 324.965 398.000,326.000 397.550,326.000 397.000 C 326.000 396.450,327.575 396.000,329.500 396.000 C 331.425 396.000,333.000 395.592,333.000 395.094 C 333.000 394.595,335.250 393.878,338.000 393.500 C 340.750 393.122,343.000 392.405,343.000 391.906 C 343.000 391.408,344.575 391.000,346.500 391.000 C 348.425 391.000,350.000 390.572,350.000 390.050 C 350.000 389.527,352.700 388.794,356.000 388.420 C 359.300 388.047,362.000 387.350,362.000 386.871 C 362.000 386.392,363.125 386.000,364.500 386.000 C 365.875 386.000,367.000 385.550,367.000 385.000 C 367.000 384.450,368.125 384.000,369.500 384.000 C 370.875 384.000,372.000 383.608,372.000 383.129 C 372.000 382.650,374.700 381.953,378.000 381.580 C 381.300 381.206,384.000 380.473,384.000 379.950 C 384.000 379.428,385.125 379.000,386.500 379.000 C 387.875 379.000,389.000 378.608,389.000 378.129 C 389.000 377.650,391.700 376.953,395.000 376.580 C 398.300 376.206,401.000 375.473,401.000 374.950 C 401.000 374.428,402.125 374.000,403.500 374.000 C 404.875 374.000,406.000 373.550,406.000 373.000 C 406.000 372.450,407.575 372.000,409.500 372.000 C 411.425 372.000,413.000 371.592,413.000 371.094 C 413.000 370.595,415.250 369.878,418.000 369.500 C 420.750 369.122,423.000 368.405,423.000 367.906 C 423.000 367.408,424.575 367.000,426.500 367.000 C 428.425 367.000,430.000 366.582,430.000 366.072 C 430.000 365.562,432.475 364.835,435.500 364.457 C 438.525 364.079,441.000 363.371,441.000 362.885 C 441.000 362.398,442.350 362.000,444.000 362.000 C 445.650 362.000,447.000 361.550,447.000 361.000 C 447.000 360.450,448.350 360.000,450.000 360.000 C 451.650 360.000,453.000 359.580,453.000 359.066 C 453.000 358.178,455.832 357.477,460.750 357.150 L 463.000 357.000 463.000 379.571 " stroke="none" fill-rule="evenodd"></path></g></svg>