<svg version="1.1" width="515" height="515" xmlns="http://www.w3.org/2000/svg"><g><path d="M254.323 11.872 C 254.014 13.054,252.690 14.291,251.381 14.619 C 250.071 14.948,249.000 15.569,249.000 16.000 C 249.000 16.431,247.875 17.066,246.500 17.411 C 245.125 17.756,244.000 18.444,244.000 18.940 C 244.000 19.435,242.650 20.138,241.000 20.500 C 239.350 20.862,238.000 21.537,238.000 22.000 C 238.000 22.463,236.650 23.138,235.000 23.500 C 233.350 23.862,232.000 24.537,232.000 25.000 C 232.000 25.463,230.650 26.138,229.000 26.500 C 227.350 26.862,226.000 27.537,226.000 28.000 C 226.000 28.463,224.650 29.138,223.000 29.500 C 221.350 29.862,220.000 30.537,220.000 31.000 C 220.000 31.463,218.650 32.138,217.000 32.500 C 215.350 32.862,214.000 33.537,214.000 34.000 C 214.000 34.463,212.650 35.138,211.000 35.500 C 209.350 35.862,208.000 36.573,208.000 37.079 C 208.000 37.586,207.438 37.996,206.750 37.992 C 205.347 37.982,188.784 46.065,187.990 47.147 C 187.709 47.529,186.247 48.151,184.740 48.529 C 183.233 48.907,182.000 49.582,182.000 50.029 C 182.000 50.476,180.650 51.138,179.000 51.500 C 177.350 51.862,176.000 52.537,176.000 53.000 C 176.000 53.463,174.650 54.138,173.000 54.500 C 171.350 54.862,170.000 55.537,170.000 56.000 C 170.000 56.463,168.650 57.138,167.000 57.500 C 165.350 57.862,164.000 58.524,164.000 58.971 C 164.000 59.418,162.767 60.093,161.260 60.471 C 159.753 60.849,158.291 61.484,158.010 61.881 C 157.730 62.278,155.700 63.273,153.500 64.092 L 149.500 65.580 149.221 78.790 C 148.919 93.085,148.799 93.333,143.501 90.585 C 142.001 89.807,138.125 88.863,134.887 88.487 C 131.649 88.111,129.000 87.430,129.000 86.974 C 129.000 86.517,126.525 85.835,123.500 85.457 C 120.475 85.079,118.000 84.371,118.000 83.885 C 118.000 80.709,109.116 83.576,107.747 87.195 C 107.394 88.127,105.522 89.187,103.588 89.549 C 101.654 89.912,99.550 90.837,98.913 91.605 C 98.276 92.372,97.135 93.000,96.378 93.000 C 95.620 93.000,95.000 93.400,95.000 93.889 C 95.000 94.377,93.425 95.073,91.500 95.434 C 89.575 95.795,88.000 96.512,88.000 97.026 C 88.000 97.541,86.875 98.244,85.500 98.589 C 84.125 98.934,83.000 99.582,83.000 100.029 C 83.000 100.476,81.650 101.138,80.000 101.500 C 78.350 101.862,77.000 102.537,77.000 103.000 C 77.000 103.463,75.650 104.138,74.000 104.500 C 72.350 104.862,71.000 105.537,71.000 106.000 C 71.000 106.463,69.650 107.138,68.000 107.500 C 66.350 107.862,65.000 108.565,65.000 109.060 C 65.000 109.556,63.875 110.244,62.500 110.589 C 61.125 110.934,60.000 111.569,60.000 112.000 C 60.000 112.431,58.875 113.066,57.500 113.411 L 55.000 114.038 55.000 186.019 L 55.000 258.000 81.071 258.000 C 102.913 258.000,107.386 258.243,108.643 259.500 C 109.878 260.736,113.750 261.000,130.603 261.000 C 147.867 261.000,151.153 260.766,151.638 259.500 C 152.509 257.230,253.491 257.230,254.362 259.500 C 255.127 261.494,318.818 261.782,320.800 259.800 C 321.699 258.901,322.000 247.021,322.000 212.493 L 322.000 166.386 329.000 167.334 C 332.850 167.855,336.000 168.615,336.000 169.023 C 336.000 169.431,339.375 170.081,343.500 170.468 C 347.625 170.854,351.000 171.524,351.000 171.956 C 351.000 172.389,353.250 173.041,356.000 173.406 L 361.000 174.069 361.000 216.034 L 361.000 258.000 395.071 258.000 C 424.024 258.000,429.368 258.225,430.643 259.500 C 432.188 261.045,457.783 261.788,461.418 260.393 C 462.841 259.847,463.000 252.309,463.000 185.412 L 463.000 111.038 460.500 110.411 C 459.125 110.066,458.000 109.418,458.000 108.971 C 458.000 108.524,456.650 107.862,455.000 107.500 C 453.350 107.138,452.000 106.435,452.000 105.940 C 452.000 105.444,450.875 104.756,449.500 104.411 C 448.125 104.066,447.000 103.418,447.000 102.971 C 447.000 102.524,445.650 101.862,444.000 101.500 C 442.350 101.138,441.000 100.463,441.000 100.000 C 441.000 99.537,439.650 98.862,438.000 98.500 C 436.350 98.138,435.000 97.463,435.000 97.000 C 435.000 96.537,433.650 95.862,432.000 95.500 C 430.350 95.138,429.000 94.427,429.000 93.921 C 429.000 93.414,428.438 92.986,427.750 92.969 C 427.063 92.952,424.250 91.831,421.500 90.478 C 418.750 89.125,415.938 88.014,415.250 88.009 C 414.563 88.004,414.000 87.586,414.000 87.079 C 414.000 86.573,412.650 85.862,411.000 85.500 C 409.350 85.138,408.000 84.463,408.000 84.000 C 408.000 83.537,406.650 82.862,405.000 82.500 C 403.350 82.138,402.000 81.476,402.000 81.029 C 402.000 80.582,400.875 79.934,399.500 79.589 C 398.125 79.244,397.000 78.556,397.000 78.060 C 397.000 77.565,395.650 76.862,394.000 76.500 C 392.350 76.138,391.000 75.463,391.000 75.000 C 391.000 74.537,389.650 73.862,388.000 73.500 C 386.350 73.138,385.000 72.463,385.000 72.000 C 385.000 71.537,383.650 70.862,382.000 70.500 C 380.350 70.138,379.000 69.463,379.000 69.000 C 379.000 68.537,377.650 67.862,376.000 67.500 C 374.350 67.138,373.000 66.485,373.000 66.051 C 373.000 65.616,370.975 64.693,368.500 64.000 C 366.025 63.307,364.000 62.384,364.000 61.949 C 364.000 61.515,362.650 60.862,361.000 60.500 C 359.350 60.138,358.000 59.463,358.000 59.000 C 358.000 58.537,356.650 57.862,355.000 57.500 C 353.350 57.138,352.000 56.476,352.000 56.029 C 352.000 55.582,350.875 54.934,349.500 54.589 C 348.125 54.244,347.000 53.556,347.000 53.060 C 347.000 52.565,345.650 51.862,344.000 51.500 C 342.350 51.138,341.000 50.463,341.000 50.000 C 341.000 49.537,339.650 48.862,338.000 48.500 C 336.350 48.138,335.000 47.463,335.000 47.000 C 335.000 46.537,333.650 45.862,332.000 45.500 C 330.350 45.138,329.000 44.463,329.000 44.000 C 329.000 43.537,327.650 42.862,326.000 42.500 C 324.350 42.138,323.000 41.485,323.000 41.051 C 323.000 40.616,320.975 39.693,318.500 39.000 C 316.025 38.307,314.000 37.384,314.000 36.949 C 314.000 36.515,312.650 35.862,311.000 35.500 C 309.350 35.138,308.000 34.427,308.000 33.921 C 308.000 33.414,307.132 33.000,306.071 33.000 C 305.011 33.000,303.527 32.384,302.775 31.632 C 302.022 30.879,300.324 29.920,299.000 29.500 C 297.676 29.080,295.978 28.121,295.225 27.368 C 294.473 26.616,293.214 26.000,292.429 26.000 C 291.643 26.000,291.000 25.555,291.000 25.012 C 291.000 24.468,289.228 23.740,287.062 23.394 C 284.896 23.048,282.885 22.142,282.593 21.382 C 282.301 20.622,281.374 20.000,280.531 20.000 C 279.689 20.000,279.000 19.550,279.000 19.000 C 279.000 18.450,277.897 18.000,276.550 18.000 C 275.202 18.000,273.740 17.389,273.300 16.641 C 272.860 15.894,270.700 14.704,268.500 13.997 C 266.300 13.289,264.227 12.291,263.894 11.779 C 262.437 9.541,254.914 9.614,254.323 11.872 M267.821 25.694 C 268.548 26.412,270.011 27.000,271.071 27.000 C 272.132 27.000,273.000 27.450,273.000 28.000 C 273.000 28.550,273.689 29.000,274.531 29.000 C 275.374 29.000,276.301 29.622,276.593 30.382 C 276.885 31.142,278.896 32.048,281.062 32.394 C 283.228 32.740,285.000 33.433,285.000 33.932 C 285.000 34.432,286.350 35.138,288.000 35.500 C 289.650 35.862,291.000 36.483,291.000 36.879 C 291.000 37.274,292.575 38.168,294.500 38.864 C 296.425 39.560,298.000 40.500,298.000 40.953 C 298.000 41.407,299.575 42.073,301.500 42.434 C 303.425 42.795,305.000 43.484,305.000 43.966 C 305.000 44.447,306.350 45.138,308.000 45.500 C 309.650 45.862,311.000 46.537,311.000 47.000 C 311.000 47.463,312.350 48.138,314.000 48.500 C 315.650 48.862,317.000 49.537,317.000 50.000 C 317.000 50.463,318.350 51.138,320.000 51.500 C 321.650 51.862,323.000 52.537,323.000 53.000 C 323.000 53.463,324.350 54.138,326.000 54.500 C 327.650 54.862,329.000 55.537,329.000 56.000 C 329.000 56.463,330.350 57.138,332.000 57.500 C 333.650 57.862,335.000 58.537,335.000 59.000 C 335.000 59.463,336.350 60.138,338.000 60.500 C 339.650 60.862,341.000 61.502,341.000 61.921 C 341.000 62.340,342.800 63.223,345.000 63.882 C 347.200 64.541,349.000 65.476,349.000 65.961 C 349.000 66.445,350.350 67.138,352.000 67.500 C 353.650 67.862,355.000 68.537,355.000 69.000 C 355.000 69.463,356.350 70.138,358.000 70.500 C 359.650 70.862,361.000 71.537,361.000 72.000 C 361.000 72.463,362.350 73.138,364.000 73.500 C 365.650 73.862,367.000 74.537,367.000 75.000 C 367.000 75.463,368.350 76.138,370.000 76.500 C 371.650 76.862,373.000 77.537,373.000 78.000 C 373.000 78.463,374.350 79.138,376.000 79.500 C 377.650 79.862,379.000 80.537,379.000 81.000 C 379.000 81.463,380.350 82.138,382.000 82.500 C 383.650 82.862,385.000 83.537,385.000 84.000 C 385.000 84.463,386.350 85.138,388.000 85.500 C 389.650 85.862,391.000 86.573,391.000 87.079 C 391.000 87.586,391.556 88.000,392.236 88.000 C 393.628 88.000,404.223 93.109,405.010 94.161 C 405.291 94.535,406.753 95.151,408.260 95.529 C 409.767 95.907,411.000 96.582,411.000 97.029 C 411.000 97.476,412.350 98.138,414.000 98.500 C 415.650 98.862,417.000 99.537,417.000 100.000 C 417.000 100.463,418.350 101.138,420.000 101.500 C 421.650 101.862,423.000 102.537,423.000 103.000 C 423.000 103.463,424.350 104.138,426.000 104.500 C 427.650 104.862,429.000 105.537,429.000 106.000 C 429.000 106.463,430.350 107.138,432.000 107.500 C 433.650 107.862,435.000 108.537,435.000 109.000 C 435.000 109.463,436.350 110.138,438.000 110.500 C 439.650 110.862,441.000 111.537,441.000 112.000 C 441.000 112.463,442.350 113.138,444.000 113.500 C 445.650 113.862,447.000 114.483,447.000 114.879 C 447.000 115.274,448.575 116.168,450.500 116.864 L 454.000 118.129 454.000 185.065 L 454.000 252.000 446.500 252.000 L 439.000 252.000 439.000 206.071 C 439.000 155.548,439.180 157.000,432.929 157.000 C 431.318 157.000,430.000 156.590,430.000 156.088 C 430.000 155.586,428.200 154.872,426.000 154.500 C 423.800 154.128,422.000 153.466,422.000 153.027 C 422.000 152.589,419.525 151.921,416.500 151.543 C 413.475 151.165,411.000 150.496,411.000 150.057 C 411.000 149.617,408.750 148.959,406.000 148.594 C 403.250 148.230,401.000 147.512,401.000 147.000 C 401.000 146.488,398.750 145.770,396.000 145.406 C 393.250 145.041,391.000 144.410,391.000 144.005 C 391.000 143.599,387.625 142.668,383.500 141.935 C 379.375 141.202,376.000 140.269,376.000 139.862 C 376.000 139.455,373.975 138.819,371.500 138.448 C 369.025 138.077,367.000 137.432,367.000 137.015 C 367.000 136.599,364.750 135.959,362.000 135.594 C 359.250 135.230,357.000 134.548,357.000 134.079 C 357.000 133.610,354.975 132.923,352.500 132.552 C 350.025 132.181,348.000 131.513,348.000 131.068 C 348.000 130.622,345.750 129.959,343.000 129.594 C 340.250 129.230,338.000 128.539,338.000 128.059 C 338.000 127.580,335.637 126.866,332.750 126.473 C 329.863 126.080,327.207 125.296,326.850 124.731 C 326.492 124.167,323.342 123.659,319.850 123.603 L 313.500 123.500 313.243 187.750 L 312.985 252.000 287.993 252.000 L 263.000 252.000 263.000 137.531 C 263.000 13.134,262.678 20.611,267.821 25.694 M123.769 95.564 C 126.646 95.945,129.000 96.592,129.000 97.000 C 129.000 97.408,131.250 98.041,134.000 98.406 C 136.750 98.770,139.000 99.503,139.000 100.034 C 139.000 100.565,139.900 101.000,141.000 101.000 C 142.982 101.000,143.000 101.667,143.000 176.500 L 143.000 252.000 130.000 252.000 L 117.000 252.000 117.015 172.250 C 117.024 128.387,117.370 93.033,117.784 93.685 C 118.198 94.337,120.892 95.182,123.769 95.564 M223.250 285.669 C 216.512 285.885,211.000 286.443,211.000 286.908 C 211.000 287.374,200.875 288.086,188.500 288.489 C 176.125 288.893,166.000 289.574,166.000 290.004 C 166.000 290.434,154.750 291.116,141.000 291.520 C 127.250 291.924,116.000 292.590,116.000 293.000 C 116.000 293.410,106.122 294.074,94.050 294.476 C 65.218 295.435,61.775 295.874,60.513 298.750 C 59.908 300.130,58.650 301.000,57.263 301.000 L 55.000 301.000 55.000 351.500 C 55.000 395.722,55.186 402.000,56.500 402.000 C 57.325 402.000,58.000 402.414,58.000 402.921 C 58.000 403.427,59.350 404.138,61.000 404.500 C 62.650 404.862,64.000 405.537,64.000 406.000 C 64.000 406.463,65.350 407.138,67.000 407.500 C 68.650 407.862,70.000 408.537,70.000 409.000 C 70.000 409.463,71.350 410.138,73.000 410.500 C 74.650 410.862,76.000 411.537,76.000 412.000 C 76.000 412.463,77.350 413.138,79.000 413.500 C 80.650 413.862,82.000 414.524,82.000 414.971 C 82.000 415.418,83.233 416.093,84.740 416.471 C 86.247 416.849,87.709 417.471,87.990 417.853 C 88.661 418.768,105.241 427.019,106.385 427.008 C 106.872 427.004,108.313 428.125,109.588 429.500 C 111.945 432.043,120.000 433.230,120.000 431.034 C 120.000 430.503,122.250 429.770,125.000 429.406 C 127.750 429.041,130.000 428.431,130.000 428.051 C 130.000 427.671,133.600 426.776,138.000 426.061 C 142.400 425.347,146.000 424.366,146.000 423.881 C 146.000 423.396,146.662 423.000,147.471 423.000 C 148.677 423.000,148.992 425.377,149.221 436.210 L 149.500 449.420 153.500 450.908 C 155.700 451.727,157.730 452.722,158.010 453.119 C 158.291 453.516,159.753 454.151,161.260 454.529 C 162.767 454.907,164.000 455.582,164.000 456.029 C 164.000 456.476,165.350 457.138,167.000 457.500 C 168.650 457.862,170.000 458.537,170.000 459.000 C 170.000 459.463,171.350 460.138,173.000 460.500 C 174.650 460.862,176.000 461.537,176.000 462.000 C 176.000 462.463,177.350 463.138,179.000 463.500 C 180.650 463.862,182.000 464.524,182.000 464.971 C 182.000 465.418,183.233 466.093,184.740 466.471 C 186.247 466.849,187.709 467.471,187.990 467.853 C 188.784 468.935,205.347 477.018,206.750 477.008 C 207.438 477.004,208.000 477.414,208.000 477.921 C 208.000 478.427,209.350 479.138,211.000 479.500 C 212.650 479.862,214.000 480.537,214.000 481.000 C 214.000 481.463,215.350 482.138,217.000 482.500 C 218.650 482.862,220.000 483.537,220.000 484.000 C 220.000 484.463,221.350 485.138,223.000 485.500 C 224.650 485.862,226.000 486.537,226.000 487.000 C 226.000 487.463,227.350 488.138,229.000 488.500 C 230.650 488.862,232.000 489.537,232.000 490.000 C 232.000 490.463,233.350 491.138,235.000 491.500 C 236.650 491.862,238.000 492.537,238.000 493.000 C 238.000 493.463,239.350 494.138,241.000 494.500 C 242.650 494.862,244.000 495.565,244.000 496.060 C 244.000 496.556,245.125 497.244,246.500 497.589 C 247.875 497.934,249.000 498.618,249.000 499.108 C 249.000 499.599,249.675 500.000,250.500 500.000 C 251.325 500.000,252.900 500.900,254.000 502.000 C 255.991 503.991,263.000 504.893,263.000 503.158 C 263.000 502.695,264.800 501.777,267.000 501.118 C 269.200 500.459,271.000 499.524,271.000 499.039 C 271.000 498.555,272.350 497.862,274.000 497.500 C 275.650 497.138,277.000 496.463,277.000 496.000 C 277.000 495.537,278.350 494.862,280.000 494.500 C 281.650 494.138,283.000 493.463,283.000 493.000 C 283.000 492.537,284.350 491.862,286.000 491.500 C 287.650 491.138,289.000 490.463,289.000 490.000 C 289.000 489.537,290.350 488.862,292.000 488.500 C 293.650 488.138,295.000 487.463,295.000 487.000 C 295.000 486.537,296.350 485.862,298.000 485.500 C 299.650 485.138,301.000 484.463,301.000 484.000 C 301.000 483.537,302.350 482.862,304.000 482.500 C 305.650 482.138,307.000 481.463,307.000 481.000 C 307.000 480.537,308.350 479.862,310.000 479.500 C 311.650 479.138,313.000 478.427,313.000 477.921 C 313.000 477.414,313.556 477.000,314.236 477.000 C 315.628 477.000,326.223 471.891,327.010 470.839 C 327.291 470.465,328.753 469.849,330.260 469.471 C 331.767 469.093,333.000 468.418,333.000 467.971 C 333.000 467.524,334.350 466.862,336.000 466.500 C 337.650 466.138,339.000 465.463,339.000 465.000 C 339.000 464.537,340.350 463.862,342.000 463.500 C 343.650 463.138,345.000 462.463,345.000 462.000 C 345.000 461.537,346.350 460.862,348.000 460.500 C 349.650 460.138,351.000 459.463,351.000 459.000 C 351.000 458.537,352.350 457.862,354.000 457.500 C 355.650 457.138,357.000 456.463,357.000 456.000 C 357.000 455.537,358.350 454.862,360.000 454.500 C 361.650 454.138,363.000 453.427,363.000 452.921 C 363.000 452.414,363.556 452.000,364.236 452.000 C 365.628 452.000,376.223 446.891,377.010 445.839 C 377.291 445.465,378.753 444.849,380.260 444.471 C 381.767 444.093,383.000 443.418,383.000 442.971 C 383.000 442.524,384.350 441.862,386.000 441.500 C 387.650 441.138,389.000 440.463,389.000 440.000 C 389.000 439.537,390.350 438.862,392.000 438.500 C 393.650 438.138,395.000 437.463,395.000 437.000 C 395.000 436.537,396.350 435.862,398.000 435.500 C 399.650 435.138,401.000 434.463,401.000 434.000 C 401.000 433.537,402.350 432.862,404.000 432.500 C 405.650 432.138,407.000 431.463,407.000 431.000 C 407.000 430.537,408.350 429.862,410.000 429.500 C 411.650 429.138,413.000 428.427,413.000 427.921 C 413.000 427.414,413.556 427.000,414.236 427.000 C 415.628 427.000,426.223 421.891,427.010 420.839 C 427.291 420.465,428.753 419.849,430.260 419.471 C 431.767 419.093,433.000 418.418,433.000 417.971 C 433.000 417.524,434.350 416.862,436.000 416.500 C 437.650 416.138,439.000 415.463,439.000 415.000 C 439.000 414.537,440.350 413.862,442.000 413.500 C 443.650 413.138,445.000 412.463,445.000 412.000 C 445.000 411.537,446.350 410.862,448.000 410.500 C 449.650 410.138,451.000 409.463,451.000 409.000 C 451.000 408.537,452.350 407.862,454.000 407.500 C 455.650 407.138,457.000 406.427,457.000 405.921 C 457.000 405.414,457.575 405.000,458.278 405.000 C 458.981 405.000,460.331 404.095,461.278 402.989 C 463.675 400.189,463.954 299.811,461.571 297.429 C 459.924 295.781,456.407 295.533,455.500 297.000 C 454.563 298.517,448.021 298.217,447.412 296.630 C 447.000 295.557,441.972 295.101,424.193 294.525 C 411.609 294.118,401.233 293.362,400.900 292.829 C 399.931 291.276,338.765 291.204,338.248 292.755 C 337.345 295.466,324.305 294.350,323.589 291.500 C 322.979 289.067,322.723 289.000,314.031 289.000 C 307.147 289.000,304.908 288.657,304.263 287.506 C 303.381 285.930,251.662 284.757,223.250 285.669 M367.000 300.000 C 367.000 300.611,372.545 301.075,381.250 301.193 C 389.087 301.299,392.688 301.545,389.250 301.740 C 385.813 301.936,383.000 302.482,383.000 302.954 C 383.000 303.427,378.725 304.134,373.500 304.526 C 368.275 304.917,364.000 305.576,364.000 305.990 C 364.000 306.404,359.838 307.068,354.751 307.466 C 349.663 307.864,345.266 308.569,344.980 309.033 C 344.693 309.497,339.855 310.194,334.229 310.581 C 328.603 310.969,324.000 311.618,324.000 312.024 C 324.000 312.430,319.725 313.083,314.500 313.474 C 309.275 313.866,305.000 314.559,305.000 315.013 C 305.000 315.468,300.500 316.159,295.000 316.549 C 289.500 316.939,285.000 317.602,285.000 318.023 C 285.000 318.443,280.837 319.114,275.750 319.513 C 270.663 319.912,266.199 320.714,265.832 321.296 C 264.924 322.732,234.039 322.681,233.149 321.242 C 232.792 320.663,228.337 319.864,223.249 319.466 C 218.162 319.068,214.000 318.383,214.000 317.944 C 214.000 317.506,213.213 316.941,212.250 316.689 C 211.287 316.438,214.662 316.180,219.750 316.116 C 224.838 316.052,229.000 315.608,229.000 315.128 C 229.000 314.649,235.300 313.932,243.000 313.535 C 250.700 313.138,257.000 312.457,257.000 312.021 C 257.000 311.585,264.200 310.900,273.000 310.500 C 281.800 310.100,289.000 309.424,289.000 308.999 C 289.000 308.574,295.750 307.900,304.000 307.500 C 312.250 307.100,319.000 306.433,319.000 306.017 C 319.000 305.601,321.081 305.026,323.624 304.739 C 326.167 304.452,328.529 303.766,328.874 303.214 C 329.218 302.661,336.363 301.880,344.750 301.477 C 353.137 301.074,360.000 300.352,360.000 299.872 C 360.000 299.392,361.575 299.000,363.500 299.000 C 365.425 299.000,367.000 299.450,367.000 300.000 M454.000 352.000 C 454.000 387.328,453.731 397.002,452.750 397.009 C 452.063 397.014,449.250 398.125,446.500 399.478 C 443.750 400.831,440.938 401.952,440.250 401.969 C 439.563 401.986,439.000 402.414,439.000 402.921 C 439.000 403.427,437.650 404.138,436.000 404.500 C 434.350 404.862,433.000 405.537,433.000 406.000 C 433.000 406.463,431.650 407.138,430.000 407.500 C 428.350 407.862,427.000 408.565,427.000 409.060 C 427.000 409.556,425.875 410.244,424.500 410.589 C 423.125 410.934,422.000 411.582,422.000 412.029 C 422.000 412.476,420.650 413.138,419.000 413.500 C 417.350 413.862,416.000 414.537,416.000 415.000 C 416.000 415.463,414.650 416.138,413.000 416.500 C 411.350 416.862,410.000 417.537,410.000 418.000 C 410.000 418.463,408.650 419.138,407.000 419.500 C 405.350 419.862,404.000 420.537,404.000 421.000 C 404.000 421.463,402.650 422.138,401.000 422.500 C 399.350 422.862,398.000 423.515,398.000 423.949 C 398.000 424.384,395.975 425.307,393.500 426.000 C 391.025 426.693,389.000 427.616,389.000 428.051 C 389.000 428.485,387.650 429.138,386.000 429.500 C 384.350 429.862,383.000 430.537,383.000 431.000 C 383.000 431.463,381.650 432.138,380.000 432.500 C 378.350 432.862,377.000 433.524,377.000 433.971 C 377.000 434.418,375.875 435.066,374.500 435.411 C 373.125 435.756,372.000 436.444,372.000 436.940 C 372.000 437.435,370.650 438.138,369.000 438.500 C 367.350 438.862,366.000 439.537,366.000 440.000 C 366.000 440.463,364.650 441.138,363.000 441.500 C 361.350 441.862,360.000 442.537,360.000 443.000 C 360.000 443.463,358.650 444.138,357.000 444.500 C 355.350 444.862,354.000 445.537,354.000 446.000 C 354.000 446.463,352.650 447.138,351.000 447.500 C 349.350 447.862,348.000 448.515,348.000 448.949 C 348.000 449.384,345.975 450.307,343.500 451.000 C 341.025 451.693,339.000 452.616,339.000 453.051 C 339.000 453.485,337.650 454.138,336.000 454.500 C 334.350 454.862,333.000 455.537,333.000 456.000 C 333.000 456.463,331.650 457.138,330.000 457.500 C 328.350 457.862,327.000 458.524,327.000 458.971 C 327.000 459.418,325.875 460.066,324.500 460.411 C 323.125 460.756,322.000 461.444,322.000 461.940 C 322.000 462.435,320.650 463.138,319.000 463.500 C 317.350 463.862,316.000 464.537,316.000 465.000 C 316.000 465.463,314.650 466.138,313.000 466.500 C 311.350 466.862,310.000 467.537,310.000 468.000 C 310.000 468.463,308.650 469.138,307.000 469.500 C 305.350 469.862,304.000 470.537,304.000 471.000 C 304.000 471.463,302.650 472.138,301.000 472.500 C 299.350 472.862,298.000 473.515,298.000 473.949 C 298.000 474.384,295.975 475.307,293.500 476.000 C 291.025 476.693,289.000 477.616,289.000 478.051 C 289.000 478.485,287.650 479.138,286.000 479.500 C 284.350 479.862,283.000 480.537,283.000 481.000 C 283.000 481.463,281.650 482.138,280.000 482.500 C 278.350 482.862,277.000 483.537,277.000 484.000 C 277.000 484.463,275.650 485.138,274.000 485.500 C 272.350 485.862,271.000 486.565,271.000 487.060 C 271.000 487.556,269.875 488.244,268.500 488.589 C 267.125 488.934,266.000 489.618,266.000 490.108 C 266.000 490.599,265.322 491.000,264.494 491.000 C 263.163 491.000,263.018 481.949,263.244 413.250 L 263.500 335.500 268.750 335.198 C 271.637 335.031,274.000 334.527,274.000 334.077 C 274.000 333.626,278.500 332.939,284.000 332.549 C 289.500 332.159,294.000 331.484,294.000 331.049 C 294.000 330.614,298.500 329.939,304.000 329.549 C 309.500 329.159,314.000 328.468,314.000 328.013 C 314.000 327.559,318.275 326.866,323.500 326.474 C 328.725 326.083,333.000 325.366,333.000 324.881 C 333.000 324.396,334.784 324.000,336.964 324.000 C 343.004 324.000,361.369 321.823,362.500 320.973 C 363.050 320.559,367.775 319.893,373.000 319.491 C 378.225 319.090,382.734 318.393,383.021 317.942 C 383.308 317.492,388.145 316.806,393.771 316.419 C 399.397 316.031,404.000 315.370,404.000 314.950 C 404.000 314.530,408.275 313.866,413.500 313.474 C 418.725 313.083,423.000 312.409,423.000 311.977 C 423.000 311.546,427.725 310.870,433.500 310.477 C 439.275 310.083,444.000 309.391,444.000 308.938 C 444.000 308.485,445.913 307.943,448.250 307.732 C 450.587 307.522,452.837 307.271,453.250 307.175 C 453.663 307.079,454.000 327.250,454.000 352.000 M143.000 363.071 C 143.000 418.974,143.526 415.245,135.468 416.452 C 132.735 416.861,130.275 417.556,130.000 417.997 C 129.725 418.437,126.912 419.120,123.750 419.514 L 118.000 420.230 118.000 367.163 L 118.000 314.095 124.250 313.740 C 127.688 313.545,133.313 313.299,136.750 313.193 L 143.000 313.000 143.000 363.071 " stroke="none" fill-rule="evenodd"></path></g></svg>