<svg id="svg" version="1.1" width="515" height="515" xmlns="http://www.w3.org/2000/svg" xmlns:xlink="http://www.w3.org/1999/xlink" style="display: block;"><g id="svgg"><path id="path0" d="M257.250 68.496 C 256.563 69.277,256.000 70.349,256.000 70.878 C 256.000 71.408,254.650 72.138,253.000 72.500 C 251.350 72.862,250.000 73.573,250.000 74.079 C 250.000 74.586,249.325 75.000,248.500 75.000 C 247.675 75.000,247.000 75.430,247.000 75.955 C 247.000 76.480,245.425 77.205,243.500 77.566 C 241.575 77.927,240.000 78.587,240.000 79.032 C 240.000 79.477,238.650 80.138,237.000 80.500 C 235.350 80.862,234.000 81.537,234.000 82.000 C 234.000 82.463,232.650 83.138,231.000 83.500 C 229.350 83.862,228.000 84.537,228.000 85.000 C 228.000 85.463,226.650 86.138,225.000 86.500 C 223.350 86.862,222.000 87.537,222.000 88.000 C 222.000 88.463,220.650 89.138,219.000 89.500 C 217.350 89.862,216.000 90.573,216.000 91.079 C 216.000 91.586,215.325 92.000,214.500 92.000 C 213.675 92.000,213.000 92.430,213.000 92.955 C 213.000 93.480,211.425 94.205,209.500 94.566 C 207.575 94.927,206.000 95.570,206.000 95.995 C 206.000 96.419,205.100 97.002,204.000 97.290 C 202.067 97.795,202.000 98.654,202.000 122.906 L 202.000 148.000 199.000 148.000 C 197.350 148.000,196.000 147.602,196.000 147.116 C 196.000 146.631,193.075 145.920,189.500 145.537 C 185.925 145.154,183.000 144.471,183.000 144.019 C 183.000 143.566,180.300 142.883,177.000 142.500 C 173.700 142.117,171.000 141.398,171.000 140.902 C 171.000 140.406,169.200 140.000,167.000 140.000 C 164.800 140.000,163.000 139.594,163.000 139.098 C 163.000 138.602,160.300 137.883,157.000 137.500 C 153.700 137.117,151.000 136.434,151.000 135.981 C 151.000 135.529,148.075 134.846,144.500 134.463 C 140.925 134.080,138.000 133.369,138.000 132.884 C 138.000 130.791,129.903 132.001,127.652 134.431 C 126.413 135.768,124.184 137.167,122.699 137.539 C 121.215 137.912,120.000 138.618,120.000 139.108 C 120.000 139.599,119.325 140.000,118.500 140.000 C 117.675 140.000,117.000 140.414,117.000 140.921 C 117.000 141.427,115.650 142.138,114.000 142.500 C 112.350 142.862,111.000 143.523,111.000 143.968 C 111.000 144.413,109.425 145.073,107.500 145.434 L 104.000 146.091 104.000 256.117 C 104.000 375.344,103.658 368.123,109.379 369.559 C 110.821 369.921,112.000 370.582,112.000 371.029 C 112.000 371.476,113.350 372.138,115.000 372.500 C 116.650 372.862,118.000 373.573,118.000 374.079 C 118.000 374.586,118.675 375.000,119.500 375.000 C 120.325 375.000,121.000 375.400,121.000 375.889 C 121.000 376.377,122.529 377.064,124.398 377.415 C 126.913 377.887,127.958 378.696,128.417 380.526 C 129.026 382.951,135.000 384.406,135.000 382.129 C 135.000 381.650,138.150 380.948,142.000 380.569 C 145.850 380.189,149.000 379.492,149.000 379.019 C 149.000 378.546,151.925 377.846,155.500 377.463 C 159.075 377.080,162.000 376.369,162.000 375.884 C 162.000 375.398,163.350 375.000,165.000 375.000 C 166.650 375.000,168.000 374.594,168.000 374.098 C 168.000 373.602,170.700 372.883,174.000 372.500 C 177.300 372.117,180.000 371.434,180.000 370.981 C 180.000 370.529,183.037 369.839,186.750 369.447 C 190.463 369.055,193.725 368.414,194.000 368.022 C 194.275 367.630,196.188 367.043,198.250 366.718 L 202.000 366.126 202.000 391.656 C 202.000 416.346,202.066 417.204,204.000 417.710 C 205.100 417.998,206.000 418.581,206.000 419.005 C 206.000 419.430,207.575 420.073,209.500 420.434 C 211.425 420.795,213.000 421.520,213.000 422.045 C 213.000 422.570,213.675 423.000,214.500 423.000 C 215.325 423.000,216.000 423.414,216.000 423.921 C 216.000 424.427,217.350 425.138,219.000 425.500 C 220.650 425.862,222.000 426.537,222.000 427.000 C 222.000 427.463,223.350 428.138,225.000 428.500 C 226.650 428.862,228.000 429.537,228.000 430.000 C 228.000 430.463,229.350 431.138,231.000 431.500 C 232.650 431.862,234.000 432.537,234.000 433.000 C 234.000 433.463,235.350 434.138,237.000 434.500 C 238.650 434.862,240.000 435.523,240.000 435.968 C 240.000 436.413,241.575 437.073,243.500 437.434 C 245.425 437.795,247.000 438.520,247.000 439.045 C 247.000 439.570,247.675 440.000,248.500 440.000 C 249.325 440.000,250.000 440.414,250.000 440.921 C 250.000 441.427,251.350 442.138,253.000 442.500 C 254.650 442.862,256.000 443.605,256.000 444.151 C 256.000 445.988,258.838 448.000,261.429 448.000 C 262.843 448.000,264.000 447.586,264.000 447.079 C 264.000 446.573,265.350 445.862,267.000 445.500 C 268.650 445.138,270.000 444.463,270.000 444.000 C 270.000 443.537,271.350 442.862,273.000 442.500 C 274.650 442.138,276.000 441.427,276.000 440.921 C 276.000 440.414,276.675 440.000,277.500 440.000 C 278.325 440.000,279.000 439.586,279.000 439.079 C 279.000 438.573,280.350 437.862,282.000 437.500 C 283.650 437.138,285.000 436.447,285.000 435.966 C 285.000 435.484,286.575 434.795,288.500 434.434 C 290.425 434.073,292.000 433.413,292.000 432.968 C 292.000 432.523,293.350 431.862,295.000 431.500 C 296.650 431.138,298.000 430.463,298.000 430.000 C 298.000 429.537,299.350 428.862,301.000 428.500 C 302.650 428.138,304.000 427.463,304.000 427.000 C 304.000 426.537,305.350 425.862,307.000 425.500 C 308.650 425.138,310.000 424.427,310.000 423.921 C 310.000 423.414,310.675 423.000,311.500 423.000 C 312.325 423.000,313.000 422.550,313.000 422.000 C 313.000 421.450,313.643 421.000,314.429 421.000 C 318.723 421.000,319.000 419.179,319.000 390.929 L 319.000 364.000 323.000 364.000 C 325.200 364.000,327.000 364.406,327.000 364.902 C 327.000 365.398,329.700 366.117,333.000 366.500 C 336.300 366.883,339.000 367.550,339.000 367.982 C 339.000 368.414,341.925 369.080,345.500 369.463 C 349.075 369.846,352.000 370.529,352.000 370.981 C 352.000 371.434,354.700 372.117,358.000 372.500 C 361.300 372.883,364.000 373.602,364.000 374.098 C 364.000 374.594,365.800 375.000,368.000 375.000 C 370.200 375.000,372.000 375.406,372.000 375.902 C 372.000 376.398,374.700 377.117,378.000 377.500 C 381.300 377.883,384.000 378.634,384.000 379.170 C 384.000 380.990,386.849 383.000,389.429 383.000 C 390.843 383.000,392.000 382.586,392.000 382.079 C 392.000 381.573,393.350 380.862,395.000 380.500 C 396.650 380.138,398.000 379.463,398.000 379.000 C 398.000 378.537,399.350 377.862,401.000 377.500 C 402.650 377.138,404.000 376.427,404.000 375.921 C 404.000 375.414,404.900 375.000,406.000 375.000 C 407.100 375.000,408.000 374.599,408.000 374.108 C 408.000 373.618,409.136 372.932,410.525 372.583 C 417.557 370.818,417.000 380.761,417.000 256.929 C 417.000 136.566,417.344 143.877,411.621 142.441 C 410.179 142.079,409.000 141.382,409.000 140.892 C 409.000 140.401,408.325 140.000,407.500 140.000 C 406.675 140.000,406.000 139.586,406.000 139.079 C 406.000 138.573,404.650 137.862,403.000 137.500 C 401.350 137.138,400.000 136.463,400.000 136.000 C 400.000 135.537,398.650 134.862,397.000 134.500 C 395.350 134.138,394.000 133.427,394.000 132.921 C 394.000 132.414,392.200 132.000,390.000 132.000 C 387.800 132.000,386.000 132.441,386.000 132.981 C 386.000 133.520,384.875 134.244,383.500 134.589 C 382.125 134.934,381.000 135.574,381.000 136.010 C 381.000 136.447,378.300 137.117,375.000 137.500 C 371.700 137.883,369.000 138.602,369.000 139.098 C 369.000 139.594,367.650 140.000,366.000 140.000 C 364.350 140.000,363.000 140.398,363.000 140.884 C 363.000 141.369,360.075 142.080,356.500 142.463 C 352.925 142.846,350.000 143.528,350.000 143.978 C 350.000 144.429,346.850 145.113,343.000 145.500 C 339.150 145.887,336.000 146.563,336.000 147.003 C 336.000 147.443,333.300 148.117,330.000 148.500 C 326.700 148.883,324.000 149.602,324.000 150.098 C 324.000 150.594,322.875 151.000,321.500 151.000 L 319.000 151.000 319.000 124.071 C 319.000 95.821,318.723 94.000,314.429 94.000 C 313.643 94.000,313.000 93.550,313.000 93.000 C 313.000 92.450,312.325 92.000,311.500 92.000 C 310.675 92.000,310.000 91.586,310.000 91.079 C 310.000 90.573,308.650 89.862,307.000 89.500 C 305.350 89.138,304.000 88.463,304.000 88.000 C 304.000 87.537,302.650 86.862,301.000 86.500 C 299.350 86.138,298.000 85.463,298.000 85.000 C 298.000 84.537,296.650 83.862,295.000 83.500 C 293.350 83.138,292.000 82.477,292.000 82.032 C 292.000 81.587,290.425 80.927,288.500 80.566 C 286.575 80.205,285.000 79.516,285.000 79.034 C 285.000 78.553,283.650 77.862,282.000 77.500 C 280.350 77.138,279.000 76.427,279.000 75.921 C 279.000 75.414,278.325 75.000,277.500 75.000 C 276.675 75.000,276.000 74.586,276.000 74.079 C 276.000 73.573,274.650 72.862,273.000 72.500 C 271.350 72.138,270.000 71.463,270.000 71.000 C 270.000 70.537,268.650 69.862,267.000 69.500 C 265.350 69.138,264.000 68.427,264.000 67.921 C 264.000 66.466,258.634 66.924,257.250 68.496 M267.000 81.921 C 267.000 82.427,268.350 83.138,270.000 83.500 C 271.650 83.862,273.000 84.537,273.000 85.000 C 273.000 85.463,274.350 86.138,276.000 86.500 C 277.650 86.862,279.000 87.537,279.000 88.000 C 279.000 88.463,280.350 89.138,282.000 89.500 C 283.650 89.862,285.000 90.467,285.000 90.844 C 285.000 91.588,292.393 95.000,294.007 95.000 C 294.553 95.000,295.000 95.414,295.000 95.921 C 295.000 96.427,296.350 97.138,298.000 97.500 C 299.650 97.862,301.000 98.537,301.000 99.000 C 301.000 99.463,302.350 100.138,304.000 100.500 C 305.650 100.862,307.000 101.573,307.000 102.079 C 307.000 102.586,307.675 103.000,308.500 103.000 C 309.804 103.000,310.000 107.444,310.000 137.000 L 310.000 171.000 307.500 171.000 C 306.125 171.000,305.000 170.594,305.000 170.098 C 305.000 169.602,302.300 168.883,299.000 168.500 C 295.700 168.117,293.000 167.442,293.000 167.000 C 293.000 166.558,290.300 165.883,287.000 165.500 C 283.700 165.117,281.000 164.434,281.000 163.981 C 281.000 163.529,278.075 162.846,274.500 162.463 C 270.925 162.080,268.000 161.369,268.000 160.884 C 268.000 160.398,267.325 160.000,266.500 160.000 C 265.192 160.000,265.000 154.944,265.000 120.500 C 265.000 94.833,265.350 81.000,266.000 81.000 C 266.550 81.000,267.000 81.414,267.000 81.921 M144.750 145.478 C 148.188 145.873,151.000 146.575,151.000 147.038 C 151.000 147.500,154.150 148.189,158.000 148.569 C 161.850 148.948,165.000 149.606,165.000 150.031 C 165.000 150.456,167.700 151.117,171.000 151.500 C 174.300 151.883,177.000 152.558,177.000 153.000 C 177.000 153.442,179.700 154.117,183.000 154.500 C 186.300 154.883,189.000 155.602,189.000 156.098 C 189.000 156.594,190.527 157.000,192.393 157.000 C 196.756 157.000,197.000 157.745,197.000 171.070 C 197.000 183.901,198.015 186.000,204.222 186.000 C 206.300 186.000,208.000 186.397,208.000 186.882 C 208.000 187.367,211.825 188.082,216.500 188.471 C 221.175 188.861,225.000 189.589,225.000 190.090 C 225.000 190.590,227.025 191.000,229.500 191.000 C 231.975 191.000,234.000 191.410,234.000 191.910 C 234.000 192.411,237.825 193.139,242.500 193.529 C 247.175 193.918,251.000 194.633,251.000 195.118 C 251.000 195.603,251.675 196.000,252.500 196.000 C 253.605 196.000,254.000 197.153,254.000 200.375 C 254.000 205.321,252.663 206.000,242.934 206.000 C 240.285 206.000,237.840 206.450,237.500 207.000 C 237.160 207.550,234.209 208.000,230.941 208.000 C 227.673 208.000,225.000 208.400,225.000 208.889 C 225.000 209.379,219.547 210.107,212.882 210.507 C 195.297 211.564,197.000 206.526,197.000 257.500 C 197.000 308.296,195.471 303.473,211.910 304.539 C 218.009 304.934,223.000 305.649,223.000 306.129 C 223.000 306.608,225.925 307.000,229.500 307.000 C 233.167 307.000,236.000 307.436,236.000 308.000 C 236.000 308.550,237.962 309.000,240.360 309.000 C 242.759 309.000,246.809 309.286,249.360 309.636 L 254.000 310.272 254.000 314.636 C 254.000 317.848,253.604 319.000,252.500 319.000 C 251.675 319.000,251.000 319.397,251.000 319.882 C 251.000 320.367,247.175 321.082,242.500 321.471 C 237.825 321.861,234.000 322.589,234.000 323.090 C 234.000 323.590,231.975 324.000,229.500 324.000 C 227.025 324.000,225.000 324.410,225.000 324.910 C 225.000 325.411,221.175 326.139,216.500 326.529 C 211.825 326.918,208.000 327.633,208.000 328.118 C 208.000 328.603,206.300 329.000,204.222 329.000 C 197.952 329.000,197.000 331.044,197.000 344.511 C 197.000 354.057,196.746 356.000,195.500 356.000 C 194.675 356.000,194.000 356.450,194.000 357.000 C 194.000 357.550,192.650 358.000,191.000 358.000 C 189.350 358.000,188.000 358.392,188.000 358.871 C 188.000 359.350,184.850 360.052,181.000 360.431 C 177.150 360.811,174.000 361.500,174.000 361.962 C 174.000 362.425,171.300 363.117,168.000 363.500 C 164.700 363.883,162.000 364.544,162.000 364.969 C 162.000 365.394,159.193 366.059,155.762 366.447 C 152.331 366.836,149.293 367.523,149.012 367.975 C 148.730 368.427,145.912 369.120,142.750 369.514 L 137.000 370.230 137.015 256.365 C 137.024 193.739,137.361 143.008,137.765 143.630 C 138.169 144.251,141.313 145.083,144.750 145.478 M397.000 146.921 C 397.000 147.427,398.350 148.138,400.000 148.500 C 401.650 148.862,403.000 149.524,403.000 149.971 C 403.000 150.418,404.125 151.066,405.500 151.411 L 408.000 152.038 408.000 257.408 L 408.000 362.777 404.500 363.434 C 402.575 363.795,401.000 364.471,401.000 364.937 C 401.000 365.402,399.767 366.093,398.260 366.471 C 396.753 366.849,395.185 367.685,394.775 368.329 C 394.366 368.973,394.024 319.212,394.015 257.750 C 394.002 159.077,394.176 146.000,395.500 146.000 C 396.325 146.000,397.000 146.414,397.000 146.921 M267.000 217.899 C 267.000 218.394,272.625 219.123,279.500 219.520 C 286.375 219.916,292.000 220.636,292.000 221.120 C 292.000 221.604,293.962 222.000,296.360 222.000 C 298.759 222.000,302.809 222.286,305.360 222.636 L 310.000 223.272 310.000 257.500 L 310.000 291.728 305.360 292.364 C 302.809 292.714,298.759 293.000,296.360 293.000 C 293.962 293.000,292.000 293.411,292.000 293.912 C 292.000 294.414,286.600 295.147,280.000 295.541 C 273.400 295.935,268.000 296.649,268.000 297.128 C 268.000 297.608,267.325 298.000,266.500 298.000 C 265.191 298.000,265.000 292.833,265.000 257.500 C 265.000 231.167,265.350 217.000,266.000 217.000 C 266.550 217.000,267.000 217.405,267.000 217.899 M271.000 327.856 C 271.000 328.327,274.712 329.020,279.250 329.396 C 283.788 329.773,287.650 330.512,287.833 331.040 C 288.017 331.568,289.592 332.004,291.333 332.009 C 303.503 332.042,308.639 334.381,299.000 335.500 C 295.700 335.883,293.000 336.558,293.000 337.000 C 293.000 337.442,290.300 338.117,287.000 338.500 C 283.700 338.883,281.000 339.602,281.000 340.098 C 281.000 340.594,279.650 341.000,278.000 341.000 C 276.350 341.000,275.000 341.398,275.000 341.884 C 275.000 342.369,272.075 343.080,268.500 343.463 C 264.925 343.846,262.000 344.573,262.000 345.080 C 262.000 345.586,261.132 346.000,260.071 346.000 C 259.011 346.000,257.395 346.748,256.481 347.662 C 255.397 348.745,254.589 348.955,254.159 348.264 C 253.797 347.680,250.912 346.880,247.750 346.486 C 244.588 346.092,242.000 345.416,242.000 344.983 C 242.000 344.550,239.300 343.883,236.000 343.500 C 232.700 343.117,230.000 342.398,230.000 341.902 C 230.000 341.406,228.425 341.000,226.500 341.000 C 224.575 341.000,223.000 340.550,223.000 340.000 C 223.000 339.450,221.988 338.994,220.750 338.986 C 211.246 338.929,212.548 336.358,222.500 335.529 C 227.175 335.139,231.000 334.464,231.000 334.029 C 231.000 333.593,234.825 332.918,239.500 332.529 C 244.175 332.139,248.000 331.476,248.000 331.055 C 248.000 330.634,251.035 330.006,254.745 329.659 C 258.455 329.313,261.642 328.573,261.828 328.015 C 262.237 326.790,271.000 326.638,271.000 327.856 M310.000 378.000 C 310.000 407.556,309.804 412.000,308.500 412.000 C 307.675 412.000,307.000 412.414,307.000 412.921 C 307.000 413.427,305.650 414.138,304.000 414.500 C 302.350 414.862,301.000 415.537,301.000 416.000 C 301.000 416.463,299.650 417.138,298.000 417.500 C 296.350 417.862,295.000 418.573,295.000 419.079 C 295.000 419.586,294.553 420.000,294.007 420.000 C 292.393 420.000,285.000 423.412,285.000 424.156 C 285.000 424.533,283.650 425.138,282.000 425.500 C 280.350 425.862,279.000 426.537,279.000 427.000 C 279.000 427.463,277.650 428.138,276.000 428.500 C 274.350 428.862,273.000 429.537,273.000 430.000 C 273.000 430.463,271.650 431.138,270.000 431.500 C 268.350 431.862,267.000 432.573,267.000 433.079 C 267.000 433.586,266.550 434.000,266.000 434.000 C 265.350 434.000,265.000 420.167,265.000 394.500 C 265.000 360.056,265.192 355.000,266.500 355.000 C 267.325 355.000,268.000 354.602,268.000 354.116 C 268.000 353.631,270.925 352.920,274.500 352.537 C 278.075 352.154,281.000 351.471,281.000 351.019 C 281.000 350.566,283.700 349.883,287.000 349.500 C 290.300 349.117,293.000 348.442,293.000 348.000 C 293.000 347.558,295.700 346.883,299.000 346.500 C 302.300 346.117,305.000 345.398,305.000 344.902 C 305.000 344.406,306.125 344.000,307.500 344.000 L 310.000 344.000 310.000 378.000 " stroke="none" fill="#000000" fill-rule="evenodd"></path></g></svg>