<svg version="1.1" width="515" height="515" xmlns="http://www.w3.org/2000/svg">
<g>
<path d="M387.862 48.389 C 386.411 49.146,384.026 49.536,382.562 49.257 C 381.030 48.964,375.783 50.056,370.200 51.830 C 351.970 57.623,340.501 61.030,339.281 61.015 C 338.611 61.007,333.661 62.381,328.281 64.068 C 316.839 67.658,303.859 71.551,288.500 76.000 C 270.650 81.171,257.625 85.210,255.716 86.166 C 253.785 87.133,251.312 86.609,236.000 81.991 C 223.645 78.264,209.207 74.008,195.500 70.052 C 189.450 68.306,180.225 65.543,175.000 63.911 C 169.775 62.280,165.050 60.965,164.500 60.990 C 163.563 61.033,156.287 58.839,134.338 51.898 C 124.592 48.815,121.000 48.328,121.000 50.087 C 121.000 50.684,119.736 53.047,118.190 55.337 C 110.579 66.617,109.000 69.128,109.000 69.958 C 109.000 70.452,108.375 71.482,107.612 72.245 C 106.849 73.008,104.802 76.154,103.063 79.235 C 101.324 82.316,99.248 85.379,98.450 86.041 C 97.653 86.703,97.000 87.884,97.000 88.664 C 97.000 89.445,96.172 90.972,95.160 92.059 C 94.148 93.145,92.700 95.264,91.942 96.767 C 90.555 99.519,88.070 103.471,82.190 112.279 C 80.436 114.908,79.000 117.415,79.000 117.851 C 79.000 118.287,77.663 120.411,76.028 122.572 C 74.393 124.732,73.031 126.950,73.000 127.500 C 72.969 128.050,71.607 130.268,69.972 132.428 C 68.337 134.589,67.000 136.914,67.000 137.595 C 67.000 138.276,66.662 138.983,66.250 139.167 C 65.183 139.641,61.000 145.741,61.000 146.822 C 61.000 147.319,59.650 149.424,58.000 151.500 C 56.350 153.576,54.990 155.776,54.978 156.388 C 54.966 156.999,54.076 158.625,53.000 160.000 C 50.474 163.230,49.827 317.684,52.329 320.187 C 53.061 320.918,54.298 322.714,55.079 324.178 C 58.344 330.296,63.536 338.632,65.207 340.439 C 66.193 341.505,67.000 342.774,67.000 343.258 C 67.000 343.743,68.238 346.028,69.750 348.336 C 71.263 350.644,73.055 353.426,73.733 354.516 C 79.650 364.035,83.223 369.815,84.231 371.500 C 84.890 372.600,86.682 375.374,88.214 377.663 C 89.746 379.953,91.013 382.203,91.028 382.663 C 91.043 383.124,92.393 385.268,94.028 387.428 C 95.663 389.589,97.000 391.914,97.000 392.595 C 97.000 393.276,97.338 393.983,97.750 394.167 C 98.849 394.655,103.000 400.756,103.000 401.883 C 103.000 402.413,104.040 404.119,105.311 405.673 C 106.583 407.228,108.945 410.700,110.561 413.389 C 112.178 416.078,114.490 419.903,115.700 421.889 C 116.910 423.875,118.694 426.990,119.664 428.811 C 121.050 431.412,121.864 431.984,123.464 431.478 C 124.584 431.124,127.525 430.442,130.000 429.962 C 132.475 429.482,137.806 427.945,141.846 426.545 C 145.886 425.145,149.976 424.000,150.936 424.000 C 151.895 424.000,156.576 422.650,161.338 421.000 C 166.100 419.350,170.560 418.012,171.248 418.028 C 171.937 418.043,176.775 416.706,182.000 415.058 C 191.692 412.000,202.909 408.660,222.500 402.999 C 228.550 401.251,237.775 398.442,243.000 396.757 C 255.537 392.715,261.711 392.739,273.170 396.872 C 277.938 398.593,282.438 399.992,283.170 399.982 C 283.901 399.972,288.775 401.296,294.000 402.924 C 304.902 406.320,318.696 410.424,334.500 414.975 C 340.550 416.717,349.775 419.468,355.000 421.089 C 360.225 422.710,365.139 424.028,365.919 424.018 C 368.792 423.982,386.892 431.223,388.573 433.081 C 391.135 435.912,395.770 435.599,397.182 432.500 C 397.808 431.125,398.699 430.000,399.161 430.000 C 399.622 430.000,400.000 429.405,400.000 428.678 C 400.000 427.951,401.337 425.589,402.972 423.428 C 404.607 421.268,405.969 419.050,406.000 418.500 C 406.031 417.950,407.393 415.732,409.028 413.572 C 410.663 411.411,412.000 409.287,412.000 408.851 C 412.000 408.415,413.436 405.908,415.190 403.279 C 421.070 394.471,423.555 390.519,424.942 387.767 C 425.700 386.264,427.148 384.145,428.160 383.059 C 429.172 381.972,430.000 380.445,430.000 379.664 C 430.000 378.884,430.660 377.697,431.467 377.027 C 432.759 375.955,437.749 367.900,441.921 360.154 C 442.702 358.703,443.957 356.900,444.710 356.147 C 445.463 355.395,447.151 352.663,448.461 350.077 C 449.772 347.490,451.554 344.785,452.422 344.065 C 453.290 343.344,454.000 342.116,454.000 341.336 C 454.000 340.555,454.828 339.028,455.840 337.941 C 456.852 336.855,458.296 334.736,459.050 333.233 C 459.803 331.730,461.900 328.415,463.710 325.866 L 467.000 321.232 467.000 240.812 L 467.000 160.392 463.804 155.446 C 462.046 152.726,459.908 149.309,459.054 147.853 C 458.199 146.397,455.925 142.668,454.000 139.566 C 452.075 136.464,449.600 132.431,448.500 130.602 C 447.400 128.774,445.178 125.078,443.561 122.389 C 441.945 119.700,439.583 116.228,438.311 114.673 C 437.040 113.119,436.000 111.413,436.000 110.883 C 436.000 109.756,431.849 103.655,430.750 103.167 C 430.337 102.983,430.000 102.276,430.000 101.595 C 430.000 100.914,428.663 98.589,427.028 96.428 C 425.393 94.268,424.031 92.050,424.000 91.500 C 423.969 90.950,422.607 88.732,420.972 86.572 C 419.337 84.411,418.000 82.287,418.000 81.851 C 418.000 81.415,416.564 78.908,414.810 76.279 C 408.930 67.471,406.445 63.519,405.058 60.767 C 404.300 59.264,402.852 57.145,401.840 56.059 C 400.828 54.972,400.000 53.468,400.000 52.716 C 400.000 48.334,392.851 45.786,387.862 48.389 M395.465 61.503 C 397.096 64.527,398.783 67.000,399.215 67.000 C 399.647 67.000,400.000 67.595,400.000 68.322 C 400.000 69.049,401.337 71.411,402.972 73.572 C 404.607 75.732,405.969 77.950,406.000 78.500 C 406.031 79.050,407.393 81.268,409.028 83.428 C 410.663 85.589,412.000 87.713,412.000 88.149 C 412.000 88.585,413.436 91.092,415.190 93.721 C 421.070 102.529,423.555 106.481,424.942 109.233 C 425.700 110.736,427.148 112.855,428.160 113.941 C 429.172 115.028,430.000 116.555,430.000 117.336 C 430.000 118.116,430.653 119.297,431.450 119.959 C 432.248 120.621,434.334 123.714,436.086 126.831 C 437.837 129.949,439.590 132.725,439.981 133.000 C 440.372 133.275,441.323 134.701,442.096 136.170 C 445.160 141.995,450.510 150.604,452.207 152.439 C 453.193 153.505,454.000 154.774,454.000 155.258 C 454.000 155.743,455.350 158.102,457.000 160.500 L 460.000 164.860 459.972 240.680 L 459.944 316.500 456.972 320.428 C 455.337 322.589,454.000 324.951,454.000 325.678 C 454.000 326.405,453.654 327.000,453.231 327.000 C 452.808 327.000,450.984 329.688,449.177 332.974 C 447.371 336.260,445.459 339.217,444.928 339.545 C 444.397 339.873,442.881 342.275,441.559 344.884 C 440.237 347.492,438.446 350.215,437.578 350.935 C 436.710 351.656,436.000 353.035,436.000 354.000 C 436.000 354.965,435.347 356.297,434.550 356.959 C 433.752 357.621,431.676 360.684,429.937 363.765 C 428.198 366.846,426.151 369.992,425.388 370.755 C 424.625 371.518,424.000 372.548,424.000 373.042 C 424.000 373.872,422.421 376.383,414.810 387.663 C 413.264 389.953,412.000 392.122,412.000 392.483 C 412.000 392.844,410.762 395.028,409.250 397.336 C 406.006 402.287,405.198 403.581,400.409 411.500 C 398.413 414.800,396.408 417.734,395.953 418.020 C 395.498 418.307,394.658 419.769,394.087 421.270 C 392.842 424.545,389.847 424.867,386.823 422.050 C 385.672 420.977,383.103 419.333,381.115 418.396 C 379.127 417.458,376.108 415.636,374.406 414.346 C 372.704 413.056,370.969 412.000,370.551 412.000 C 370.132 412.000,367.790 410.650,365.345 409.000 C 362.900 407.350,360.504 406.000,360.021 406.000 C 359.538 406.000,358.541 405.398,357.806 404.663 C 357.071 403.928,354.234 402.079,351.503 400.554 C 348.772 399.029,345.456 396.931,344.134 395.891 C 342.812 394.851,341.323 394.000,340.825 394.000 C 339.741 394.000,333.641 389.818,333.167 388.750 C 332.983 388.337,332.209 388.000,331.446 388.000 C 330.683 388.000,328.020 386.650,325.529 385.000 C 323.038 383.350,318.962 380.650,316.471 379.000 C 313.980 377.350,311.317 376.000,310.554 376.000 C 309.791 376.000,309.017 375.662,308.833 375.250 C 308.373 374.214,302.274 370.000,301.235 370.000 C 300.769 370.000,298.839 368.853,296.944 367.451 C 295.050 366.050,291.587 363.945,289.250 362.774 L 285.000 360.645 285.000 240.846 L 285.000 121.046 287.750 119.286 C 289.262 118.318,291.095 116.958,291.821 116.263 C 292.548 115.568,293.592 115.000,294.141 115.000 C 294.690 115.000,297.102 113.650,299.500 112.000 C 301.898 110.350,304.187 109.000,304.586 109.000 C 304.985 109.000,306.704 107.940,308.406 106.644 C 310.108 105.349,313.300 103.294,315.500 102.078 C 317.700 100.862,321.115 98.885,323.090 97.684 C 325.064 96.483,329.114 94.067,332.090 92.316 C 335.065 90.565,337.992 88.700,338.594 88.172 C 339.196 87.645,341.221 86.437,343.094 85.488 C 344.967 84.540,347.932 82.692,349.683 81.382 C 351.434 80.072,353.394 79.000,354.039 79.000 C 354.684 79.000,356.463 77.987,357.993 76.750 C 359.523 75.513,362.963 73.264,365.637 71.754 C 370.726 68.880,371.787 68.235,378.800 63.750 C 381.165 62.237,383.440 61.000,383.856 61.000 C 384.271 61.000,386.136 59.875,388.000 58.500 C 392.379 55.269,392.025 55.127,395.465 61.503 M345.885 68.859 C 344.573 69.881,341.925 71.509,340.000 72.477 C 338.075 73.444,335.068 75.308,333.317 76.618 C 331.566 77.928,329.466 79.000,328.650 79.000 C 327.834 79.000,327.017 79.338,326.833 79.750 C 326.359 80.818,320.259 85.000,319.175 85.000 C 318.677 85.000,317.188 85.851,315.866 86.891 C 314.544 87.931,311.228 90.029,308.497 91.554 C 305.766 93.079,302.929 94.928,302.194 95.663 C 301.459 96.398,300.462 97.000,299.979 97.000 C 299.496 97.000,297.100 98.350,294.655 100.000 C 292.210 101.650,289.927 103.000,289.581 103.000 C 288.603 103.000,278.780 109.589,276.089 112.050 C 274.750 113.275,271.071 114.792,267.810 115.464 L 261.943 116.673 262.221 104.102 L 262.500 91.531 266.000 90.914 C 267.925 90.574,273.325 89.091,278.000 87.619 C 282.675 86.146,290.775 83.592,296.000 81.943 C 301.225 80.294,305.950 78.965,306.500 78.990 C 307.454 79.034,315.021 76.770,336.000 70.166 C 347.289 66.613,349.069 66.377,345.885 68.859 M246.967 125.197 L 254.000 127.394 254.000 240.539 L 254.000 353.683 249.750 354.990 C 247.412 355.709,243.813 356.620,241.750 357.014 L 238.000 357.731 238.000 240.366 C 238.000 165.426,238.350 123.000,238.967 123.000 C 239.499 123.000,243.099 123.989,246.967 125.197 " stroke="none" fill-rule="evenodd"></path>
</g>
</svg>