<svg version="1.1" width="515" height="515" xmlns="http://www.w3.org/2000/svg"><g><path d="M125.250 65.496 C 124.563 66.277,124.000 67.835,124.000 68.958 C 124.000 70.106,123.344 71.000,122.500 71.000 C 121.675 71.000,121.000 71.400,121.000 71.889 C 121.000 72.377,119.425 73.073,117.500 73.434 C 115.575 73.795,114.000 74.520,114.000 75.045 C 114.000 75.570,113.100 76.000,112.000 76.000 C 110.900 76.000,110.000 76.450,110.000 77.000 C 110.000 77.550,109.325 78.000,108.500 78.000 C 107.675 78.000,107.000 78.401,107.000 78.892 C 107.000 79.382,105.875 80.066,104.500 80.411 C 102.132 81.005,102.000 81.407,102.000 88.019 C 102.000 94.333,101.809 95.000,100.000 95.000 C 98.900 95.000,98.000 94.603,98.000 94.117 C 98.000 93.632,94.625 92.919,90.500 92.532 C 86.375 92.146,83.000 91.418,83.000 90.915 C 83.000 88.704,74.155 89.937,73.424 92.250 C 72.450 95.336,69.171 98.000,66.347 98.000 C 65.056 98.000,64.000 98.450,64.000 99.000 C 64.000 99.550,63.546 100.000,62.991 100.000 C 62.436 100.000,60.636 101.286,58.991 102.858 L 56.000 105.717 56.000 258.205 C 56.000 402.022,56.100 410.805,57.750 412.648 C 59.532 414.638,65.909 418.000,67.901 418.000 C 68.506 418.000,69.000 418.450,69.000 419.000 C 69.000 419.550,69.852 420.000,70.893 420.000 C 71.934 420.000,73.045 420.675,73.362 421.500 C 74.369 424.126,78.000 423.344,78.000 420.500 C 78.000 417.577,79.600 417.163,80.457 419.864 C 81.127 421.975,92.803 423.589,98.770 422.396 L 102.000 421.750 102.000 427.875 C 102.000 431.292,101.558 434.000,101.000 434.000 C 100.450 434.000,100.000 434.675,100.000 435.500 C 100.000 436.333,100.889 437.000,102.000 437.000 C 103.100 437.000,104.000 437.450,104.000 438.000 C 104.000 438.550,105.350 439.000,107.000 439.000 C 108.650 439.000,110.000 439.450,110.000 440.000 C 110.000 440.550,110.900 441.000,112.000 441.000 C 113.111 441.000,114.000 441.667,114.000 442.500 C 114.000 443.548,115.056 444.000,117.500 444.000 C 119.425 444.000,121.000 444.450,121.000 445.000 C 121.000 445.550,121.675 446.000,122.500 446.000 C 123.325 446.000,124.000 446.675,124.000 447.500 C 124.000 448.325,124.675 449.000,125.500 449.000 C 126.539 449.000,127.000 447.956,127.000 445.607 C 127.000 443.438,127.570 441.995,128.579 441.608 C 130.644 440.816,138.000 442.002,138.000 443.128 C 138.000 443.608,138.675 444.000,139.500 444.000 C 140.325 444.000,141.000 444.450,141.000 445.000 C 141.000 445.588,144.500 446.000,149.500 446.000 C 154.500 446.000,158.000 445.588,158.000 445.000 C 158.000 444.450,158.863 444.000,159.917 444.000 C 160.971 444.000,161.989 443.533,162.179 442.962 C 162.370 442.391,165.782 441.650,169.763 441.317 C 173.743 440.983,177.000 440.325,177.000 439.855 C 177.000 439.385,178.125 439.000,179.500 439.000 C 180.875 439.000,182.000 438.550,182.000 438.000 C 182.000 437.450,183.575 437.000,185.500 437.000 C 187.425 437.000,189.000 436.582,189.000 436.072 C 189.000 435.562,191.588 434.822,194.750 434.429 C 198.157 434.005,201.111 433.022,202.000 432.015 C 203.007 430.874,205.797 430.105,210.495 429.673 C 214.342 429.319,217.642 428.573,217.828 428.015 C 218.014 427.457,219.704 427.000,221.583 427.000 C 223.463 427.000,225.000 426.550,225.000 426.000 C 225.000 425.450,226.125 425.000,227.500 425.000 C 228.875 425.000,230.000 424.596,230.000 424.101 C 230.000 423.607,233.150 422.887,237.000 422.500 C 240.850 422.113,244.000 421.393,244.000 420.899 C 244.000 420.404,245.125 420.000,246.500 420.000 C 247.875 420.000,249.000 419.550,249.000 419.000 C 249.000 418.450,250.589 418.000,252.531 418.000 C 254.748 418.000,256.277 417.441,256.638 416.500 C 257.052 415.423,258.736 415.000,262.607 415.000 C 265.573 415.000,268.000 414.550,268.000 414.000 C 268.000 413.450,269.125 413.000,270.500 413.000 C 271.875 413.000,273.000 412.608,273.000 412.129 C 273.000 411.650,275.700 410.953,279.000 410.580 C 282.300 410.206,285.000 409.473,285.000 408.950 C 285.000 408.428,286.538 408.000,288.417 408.000 C 290.296 408.000,292.006 407.482,292.217 406.849 C 292.428 406.216,295.166 405.485,298.300 405.225 C 301.435 404.965,304.000 404.358,304.000 403.876 C 304.000 403.394,305.125 403.000,306.500 403.000 C 307.875 403.000,309.000 402.602,309.000 402.116 C 309.000 401.631,311.945 400.918,315.544 400.532 C 320.407 400.011,322.396 399.339,323.285 397.916 C 325.132 394.957,333.173 395.196,334.514 398.250 C 335.617 400.760,348.957 401.443,351.292 399.108 C 351.901 398.499,353.435 398.000,354.700 398.000 C 355.965 398.000,357.000 397.550,357.000 397.000 C 357.000 396.450,358.575 396.000,360.500 396.000 C 362.425 396.000,364.000 395.592,364.000 395.094 C 364.000 394.595,366.250 393.878,369.000 393.500 C 371.750 393.122,374.000 392.405,374.000 391.906 C 374.000 391.408,374.675 391.000,375.500 391.000 C 376.325 391.000,377.000 390.615,377.000 390.145 C 377.000 389.674,379.942 389.015,383.537 388.679 C 387.190 388.338,390.720 387.423,391.537 386.606 C 393.182 384.961,393.544 379.000,392.000 379.000 C 390.411 379.000,390.784 368.073,392.429 366.429 C 394.047 364.810,400.000 364.473,400.000 366.000 C 400.000 366.550,400.675 367.000,401.500 367.000 C 402.325 367.000,403.000 366.550,403.000 366.000 C 403.000 365.450,403.675 365.000,404.500 365.000 C 405.325 365.000,406.000 365.450,406.000 366.000 C 406.000 366.550,406.900 367.000,408.000 367.000 C 409.100 367.000,410.000 367.450,410.000 368.000 C 410.000 368.550,410.675 369.000,411.500 369.000 C 412.325 369.000,413.000 368.550,413.000 368.000 C 413.000 367.450,413.900 367.000,415.000 367.000 C 416.100 367.000,417.000 367.430,417.000 367.955 C 417.000 368.480,418.688 369.223,420.750 369.606 C 422.813 369.989,425.228 371.134,426.117 372.151 C 427.871 374.156,437.000 374.868,437.000 373.000 C 437.000 372.450,438.087 372.000,439.417 372.000 C 440.746 372.000,441.991 371.528,442.183 370.952 C 442.375 370.375,445.112 369.637,448.266 369.312 C 451.420 368.987,454.000 368.333,454.000 367.860 C 454.000 367.387,455.088 367.000,456.417 367.000 C 457.746 367.000,458.983 366.620,459.167 366.155 C 459.350 365.691,460.850 364.672,462.500 363.892 L 465.500 362.474 465.779 328.487 C 466.132 285.508,467.568 290.000,453.481 290.000 C 446.494 290.000,442.000 290.391,442.000 291.000 C 442.000 293.354,432.540 292.087,430.575 289.470 L 428.674 286.939 410.171 287.220 C 396.054 287.434,391.568 287.204,391.250 286.250 C 390.739 284.717,377.000 284.476,377.000 286.000 C 377.000 286.564,374.167 287.000,370.500 287.000 C 366.833 287.000,364.000 286.564,364.000 286.000 C 364.000 285.450,363.100 285.000,362.000 285.000 C 360.048 285.000,360.000 284.333,360.000 257.500 L 360.000 230.000 362.417 230.000 C 363.746 230.000,365.096 229.437,365.417 228.750 C 365.883 227.750,366.117 227.750,366.583 228.750 C 367.370 230.436,378.680 230.459,379.241 228.776 C 379.554 227.837,389.640 227.541,422.575 227.506 L 465.500 227.460 465.763 192.398 C 466.045 154.668,465.828 153.000,460.633 153.000 C 459.735 153.000,459.000 152.592,459.000 152.094 C 459.000 151.595,456.750 150.878,454.000 150.500 C 451.250 150.122,449.000 149.405,449.000 148.906 C 449.000 148.408,447.875 148.000,446.500 148.000 C 445.125 148.000,444.000 147.608,444.000 147.129 C 444.000 146.032,429.023 144.670,426.713 145.557 C 425.771 145.918,425.000 147.066,425.000 148.107 C 425.000 149.148,424.325 150.000,423.500 150.000 C 422.675 150.000,422.000 149.550,422.000 149.000 C 422.000 147.646,418.260 147.721,417.805 149.084 C 417.607 149.680,414.835 150.272,411.646 150.398 C 407.957 150.545,405.484 151.151,404.848 152.064 C 404.085 153.159,403.727 153.203,403.341 152.250 C 402.740 150.771,398.000 150.549,398.000 152.000 C 398.000 152.550,397.137 153.000,396.083 153.000 C 395.029 153.000,393.940 153.563,393.662 154.250 C 393.385 154.938,393.122 154.488,393.079 153.250 C 393.036 152.012,392.550 151.000,392.000 151.000 C 391.411 151.000,391.000 147.476,391.000 142.429 C 391.000 133.996,389.970 131.000,387.071 131.000 C 386.482 131.000,386.000 130.550,386.000 130.000 C 386.000 129.450,384.912 129.000,383.583 129.000 C 382.254 129.000,381.014 128.543,380.828 127.985 C 380.642 127.427,377.455 126.687,373.745 126.341 C 370.035 125.994,367.000 125.326,367.000 124.855 C 367.000 124.385,366.325 124.000,365.500 124.000 C 364.675 124.000,364.000 123.577,364.000 123.061 C 364.000 122.544,360.850 121.811,357.000 121.431 C 353.150 121.052,350.000 120.350,350.000 119.871 C 350.000 119.392,349.100 119.000,348.000 119.000 C 346.900 119.000,346.000 118.550,346.000 118.000 C 346.000 115.773,336.404 116.876,335.130 119.250 C 334.233 120.921,332.982 121.521,330.267 121.583 C 328.256 121.629,326.436 122.191,326.222 122.833 C 325.739 124.282,323.000 124.385,323.000 122.955 C 323.000 121.157,318.187 117.000,316.104 117.000 C 315.012 117.000,313.876 116.608,313.580 116.129 C 313.284 115.650,310.689 115.032,307.813 114.756 C 304.937 114.480,302.416 113.747,302.209 113.127 C 302.002 112.507,300.296 112.000,298.417 112.000 C 296.538 112.000,295.000 111.572,295.000 111.050 C 295.000 110.527,292.300 109.794,289.000 109.420 C 285.700 109.047,283.000 108.350,283.000 107.871 C 283.000 107.392,281.875 107.000,280.500 107.000 C 279.125 107.000,278.000 106.550,278.000 106.000 C 278.000 105.450,275.782 105.000,273.071 105.000 C 270.024 105.000,267.570 104.428,266.643 103.500 C 265.818 102.675,263.761 102.000,262.071 102.000 C 260.382 102.000,259.000 101.550,259.000 101.000 C 259.000 100.450,257.875 100.000,256.500 100.000 C 255.125 100.000,254.000 99.608,254.000 99.129 C 254.000 98.650,251.300 97.953,248.000 97.580 C 244.700 97.206,242.000 96.473,242.000 95.950 C 242.000 95.428,240.425 95.000,238.500 95.000 C 236.575 95.000,235.000 94.608,235.000 94.129 C 235.000 93.650,232.300 92.953,229.000 92.580 C 225.700 92.206,223.000 91.473,223.000 90.950 C 223.000 90.428,221.875 90.000,220.500 90.000 C 219.125 90.000,218.000 89.550,218.000 89.000 C 218.000 88.450,216.425 88.000,214.500 88.000 C 212.575 88.000,211.000 87.608,211.000 87.129 C 211.000 86.650,208.300 85.953,205.000 85.580 C 201.700 85.206,199.000 84.473,199.000 83.950 C 199.000 83.428,197.425 83.000,195.500 83.000 C 193.575 83.000,192.000 82.592,192.000 82.094 C 192.000 81.595,189.750 80.878,187.000 80.500 C 184.250 80.122,182.000 79.405,182.000 78.906 C 182.000 78.408,180.425 78.000,178.500 78.000 C 176.575 78.000,175.000 77.550,175.000 77.000 C 175.000 76.450,173.875 76.000,172.500 76.000 C 171.125 76.000,170.000 75.588,170.000 75.085 C 170.000 74.582,166.625 73.854,162.500 73.468 C 158.375 73.081,155.000 72.368,155.000 71.883 C 155.000 71.397,154.100 71.000,153.000 71.000 C 151.900 71.000,151.000 70.613,151.000 70.140 C 151.000 69.667,148.420 69.013,145.266 68.688 C 142.112 68.363,139.375 67.625,139.183 67.048 C 138.991 66.472,137.521 66.000,135.917 66.000 C 134.313 66.000,133.000 65.550,133.000 65.000 C 133.000 63.477,126.671 63.882,125.250 65.496 M136.000 78.876 C 136.000 79.358,138.565 79.965,141.700 80.225 C 144.834 80.485,147.572 81.216,147.783 81.849 C 147.994 82.482,149.254 83.000,150.583 83.000 C 151.912 83.000,153.000 83.450,153.000 84.000 C 153.000 84.550,155.218 85.000,157.929 85.000 C 160.976 85.000,163.430 85.572,164.357 86.500 C 165.182 87.325,167.239 88.000,168.929 88.000 C 170.618 88.000,172.000 88.450,172.000 89.000 C 172.000 89.550,174.025 90.000,176.500 90.000 C 178.975 90.000,181.000 90.392,181.000 90.872 C 181.000 91.352,182.800 92.032,185.000 92.384 C 187.200 92.736,189.000 93.468,189.000 94.012 C 189.000 94.555,190.988 95.000,193.417 95.000 C 195.846 95.000,197.998 95.494,198.199 96.098 C 198.401 96.702,200.688 97.436,203.283 97.728 C 205.877 98.021,208.000 98.652,208.000 99.130 C 208.000 99.609,209.800 100.000,212.000 100.000 C 214.200 100.000,216.000 100.450,216.000 101.000 C 216.000 101.550,217.313 102.000,218.917 102.000 C 220.521 102.000,222.006 102.518,222.217 103.151 C 222.428 103.784,225.278 104.523,228.550 104.793 C 232.538 105.122,235.010 105.870,236.047 107.061 C 237.120 108.294,239.804 109.057,244.797 109.549 C 248.759 109.939,252.000 110.650,252.000 111.129 C 252.000 111.608,252.863 112.000,253.917 112.000 C 254.971 112.000,255.986 112.457,256.172 113.015 C 256.358 113.573,259.658 114.319,263.505 114.673 C 268.462 115.129,270.971 115.853,272.117 117.158 C 273.042 118.211,275.076 119.000,276.867 119.000 C 278.590 119.000,280.000 119.450,280.000 120.000 C 280.000 120.550,281.294 121.000,282.875 121.000 C 287.151 121.000,292.000 122.129,292.000 123.125 C 292.000 123.606,290.875 124.000,289.500 124.000 C 288.125 124.000,287.000 124.392,287.000 124.871 C 287.000 125.350,283.400 126.056,279.000 126.440 C 274.600 126.823,271.000 127.557,271.000 128.069 C 271.000 128.581,269.425 129.000,267.500 129.000 C 265.575 129.000,264.000 129.450,264.000 130.000 C 264.000 130.550,262.650 131.000,261.000 131.000 C 259.350 131.000,258.000 131.392,258.000 131.871 C 258.000 132.350,254.400 133.056,250.000 133.440 C 245.600 133.823,242.000 134.557,242.000 135.069 C 242.000 135.581,240.650 136.000,239.000 136.000 C 235.811 136.000,232.000 138.994,232.000 141.500 C 232.000 142.611,230.833 143.000,227.500 143.000 C 225.025 143.000,223.000 142.550,223.000 142.000 C 223.000 141.450,221.200 141.000,219.000 141.000 C 216.800 141.000,215.000 140.603,215.000 140.118 C 215.000 139.633,211.175 138.918,206.500 138.529 C 201.825 138.139,198.000 137.411,198.000 136.910 C 198.000 136.410,195.525 136.000,192.500 136.000 C 189.475 136.000,187.000 135.550,187.000 135.000 C 187.000 133.224,175.301 133.773,174.607 135.582 C 173.814 137.649,173.814 377.351,174.607 379.418 C 175.307 381.243,189.000 381.796,189.000 380.000 C 189.000 379.450,191.250 379.000,194.000 379.000 C 196.750 379.000,199.000 378.603,199.000 378.118 C 199.000 377.633,202.825 376.918,207.500 376.529 C 212.175 376.139,216.000 375.411,216.000 374.910 C 216.000 374.410,218.475 374.000,221.500 374.000 C 224.525 374.000,227.000 373.550,227.000 373.000 C 227.000 372.450,228.125 372.000,229.500 372.000 C 231.624 372.000,232.000 372.462,232.000 375.071 C 232.000 379.194,234.219 381.158,239.558 381.759 C 242.001 382.035,244.000 382.652,244.000 383.130 C 244.000 383.609,245.575 384.000,247.500 384.000 C 249.425 384.000,251.000 384.450,251.000 385.000 C 251.000 385.550,252.537 386.000,254.417 386.000 C 256.296 386.000,257.983 386.438,258.167 386.973 C 258.350 387.507,261.762 388.247,265.750 388.616 C 269.738 388.985,273.000 389.673,273.000 390.144 C 273.000 390.615,274.575 391.000,276.500 391.000 C 278.425 391.000,280.000 391.423,280.000 391.940 C 280.000 392.456,281.653 393.019,283.673 393.190 C 288.616 393.607,289.391 396.000,284.583 396.000 C 282.613 396.000,281.000 396.450,281.000 397.000 C 281.000 397.550,280.325 398.000,279.500 398.000 C 278.675 398.000,278.000 398.385,278.000 398.856 C 278.000 399.327,274.782 400.012,270.849 400.377 C 265.794 400.847,263.230 401.576,262.099 402.863 C 260.974 404.144,258.427 404.874,253.505 405.327 C 249.658 405.681,246.358 406.427,246.172 406.985 C 245.986 407.543,244.971 408.000,243.917 408.000 C 242.863 408.000,242.000 408.397,242.000 408.883 C 242.000 409.368,238.625 410.081,234.500 410.468 C 230.375 410.854,227.000 411.582,227.000 412.085 C 227.000 412.588,226.100 413.000,225.000 413.000 C 223.900 413.000,223.000 413.450,223.000 414.000 C 223.000 414.550,221.200 415.000,219.000 415.000 C 216.800 415.000,215.000 415.450,215.000 416.000 C 215.000 416.550,213.457 417.000,211.571 417.000 C 209.686 417.000,207.468 417.675,206.643 418.500 C 205.747 419.396,203.302 420.000,200.571 420.000 C 198.057 420.000,196.000 420.450,196.000 421.000 C 196.000 421.550,194.988 422.003,193.750 422.006 C 192.512 422.010,190.211 422.685,188.636 423.506 C 187.060 424.328,184.248 425.000,182.386 425.000 C 180.524 425.000,179.000 425.450,179.000 426.000 C 179.000 426.550,177.618 427.000,175.929 427.000 C 174.239 427.000,172.182 427.675,171.357 428.500 C 170.430 429.428,167.976 430.000,164.929 430.000 C 162.218 430.000,160.000 430.450,160.000 431.000 C 160.000 431.550,158.875 432.000,157.500 432.000 C 156.125 432.000,155.000 432.392,155.000 432.871 C 155.000 433.350,152.300 434.047,149.000 434.420 C 145.700 434.794,143.000 435.527,143.000 436.050 C 143.000 436.572,141.425 437.000,139.500 437.000 C 137.575 437.000,136.000 437.450,136.000 438.000 C 136.000 438.550,135.550 439.000,135.000 439.000 C 134.337 439.000,134.000 378.167,134.000 258.500 C 134.000 138.833,134.337 78.000,135.000 78.000 C 135.550 78.000,136.000 78.394,136.000 78.876 M92.750 104.989 L 95.000 105.000 95.000 258.000 L 95.000 411.000 92.699 411.000 C 90.065 411.000,85.019 413.132,85.008 414.250 C 85.004 414.663,84.550 415.000,84.000 415.000 C 83.338 415.000,83.000 362.456,83.000 259.369 L 83.000 103.738 86.750 104.358 C 88.813 104.699,91.513 104.983,92.750 104.989 M352.362 132.500 C 352.723 133.441,354.252 134.000,356.469 134.000 C 358.411 134.000,360.000 134.450,360.000 135.000 C 360.000 135.550,361.977 136.000,364.393 136.000 C 367.375 136.000,368.971 136.482,369.362 137.500 C 369.698 138.377,371.197 139.000,372.969 139.000 C 374.636 139.000,376.000 139.450,376.000 140.000 C 376.000 140.550,377.056 141.000,378.346 141.000 C 381.186 141.000,381.989 151.398,381.996 188.250 L 382.000 210.000 375.500 210.000 C 371.833 210.000,369.000 209.564,369.000 209.000 C 369.000 208.397,364.833 208.000,358.500 208.000 C 352.167 208.000,348.000 207.603,348.000 207.000 C 348.000 206.450,347.325 206.000,346.500 206.000 C 345.193 206.000,345.000 201.167,345.000 168.500 L 345.000 131.000 348.393 131.000 C 350.487 131.000,352.006 131.574,352.362 132.500 M194.066 157.488 C 197.586 157.715,200.624 158.373,200.817 158.950 C 201.263 160.288,204.000 160.331,204.000 159.000 C 204.000 158.450,204.900 158.000,206.000 158.000 C 207.100 158.000,208.000 158.450,208.000 159.000 C 208.000 159.550,208.675 160.000,209.500 160.000 C 210.325 160.000,211.000 160.450,211.000 161.000 C 211.000 161.550,211.900 162.000,213.000 162.000 C 214.100 162.000,215.000 161.550,215.000 161.000 C 215.000 159.647,217.741 159.722,218.196 161.088 C 218.395 161.686,221.470 162.374,225.029 162.616 C 228.588 162.858,231.650 163.493,231.833 164.028 C 232.273 165.310,235.000 165.286,235.000 164.000 C 235.000 163.450,235.450 163.000,236.000 163.000 C 236.643 163.000,237.000 173.167,237.000 191.500 C 237.000 216.167,237.202 220.000,238.500 220.000 C 239.325 220.000,240.000 220.450,240.000 221.000 C 240.000 221.550,242.475 222.000,245.500 222.000 C 248.525 222.000,251.000 221.550,251.000 221.000 C 251.000 220.394,255.333 220.000,262.000 220.000 C 268.667 220.000,273.000 219.606,273.000 219.000 C 273.000 218.400,277.000 218.000,283.000 218.000 C 288.500 218.000,293.000 217.618,293.000 217.152 C 293.000 216.094,335.025 214.220,335.658 215.250 C 335.911 215.662,337.216 216.000,338.559 216.000 C 339.902 216.000,341.000 216.450,341.000 217.000 C 341.000 217.571,344.000 218.000,348.000 218.000 C 352.000 218.000,355.000 218.429,355.000 219.000 C 355.000 219.606,350.667 220.000,344.000 220.000 C 337.333 220.000,333.000 219.606,333.000 219.000 C 333.000 216.959,317.205 217.778,316.547 219.853 C 315.922 221.822,307.327 222.981,293.250 222.994 L 287.000 223.000 287.000 256.500 C 287.000 289.333,286.960 290.000,285.000 290.000 C 283.900 290.000,283.000 290.450,283.000 291.000 C 283.000 291.550,282.325 292.000,281.500 292.000 C 280.675 292.000,280.000 291.550,280.000 291.000 C 280.000 290.429,277.000 290.000,273.000 290.000 C 269.139 290.000,266.000 290.435,266.000 290.971 C 266.000 291.536,260.461 292.059,252.750 292.221 L 239.500 292.500 239.187 295.750 C 239.014 297.538,238.452 299.000,237.937 299.000 C 237.378 299.000,237.000 309.695,237.000 325.500 C 237.000 340.075,236.662 352.021,236.250 352.047 C 229.218 352.491,225.472 353.203,224.743 354.233 C 224.030 355.242,223.744 355.245,223.341 354.250 C 222.738 352.766,220.000 352.561,220.000 354.000 C 220.000 354.550,218.912 355.000,217.583 355.000 C 216.254 355.000,215.017 355.399,214.833 355.886 C 214.650 356.373,210.053 357.006,204.617 357.292 C 197.975 357.641,194.425 358.253,193.791 359.156 C 193.055 360.204,192.736 360.225,192.341 359.250 C 191.738 357.766,189.000 357.561,189.000 359.000 C 189.000 359.550,187.875 360.000,186.500 360.000 L 184.000 360.000 184.000 258.958 C 184.000 158.996,184.222 151.595,187.082 156.149 C 187.403 156.659,190.545 157.261,194.066 157.488 M438.357 158.500 C 439.182 159.325,440.789 160.000,441.929 160.000 C 443.068 160.000,444.000 160.450,444.000 161.000 C 444.000 161.550,445.688 162.006,447.750 162.014 C 449.813 162.021,452.512 162.299,453.750 162.630 L 456.000 163.233 456.000 190.617 C 456.000 208.206,455.642 218.000,455.000 218.000 C 454.450 218.000,454.000 217.550,454.000 217.000 C 454.000 216.404,450.167 216.000,444.500 216.000 L 435.000 216.000 435.000 186.500 C 435.000 157.217,435.222 155.365,438.357 158.500 M341.750 234.989 L 350.000 235.000 350.000 259.000 L 350.000 283.000 340.500 283.000 C 334.833 283.000,331.000 283.404,331.000 284.000 C 331.000 284.550,329.875 285.000,328.500 285.000 L 326.000 285.000 326.000 259.369 L 326.000 233.738 329.750 234.358 C 331.813 234.699,337.212 234.983,341.750 234.989 M456.000 326.071 C 456.000 353.420,455.754 355.000,451.500 355.000 C 450.596 355.000,449.182 355.675,448.357 356.500 C 447.532 357.325,445.089 358.000,442.929 358.000 C 440.768 358.000,439.000 358.450,439.000 359.000 C 439.000 359.550,438.100 360.000,437.000 360.000 C 435.046 360.000,435.000 359.333,435.000 331.000 L 435.000 302.000 442.000 302.000 C 446.000 302.000,449.000 301.571,449.000 301.000 C 449.000 300.450,450.575 300.000,452.500 300.000 L 456.000 300.000 456.000 326.071 M381.758 342.463 C 381.151 379.932,381.347 379.000,374.071 379.000 C 371.832 379.000,370.000 379.450,370.000 380.000 C 370.000 380.550,368.682 381.000,367.071 381.000 C 365.461 381.000,363.468 381.675,362.643 382.500 C 361.801 383.342,359.357 384.000,357.071 384.000 C 354.832 384.000,353.000 384.450,353.000 385.000 C 353.000 385.550,352.325 386.000,351.500 386.000 C 350.675 386.000,350.000 386.450,350.000 387.000 C 350.000 387.550,348.875 388.000,347.500 388.000 L 345.000 388.000 345.000 350.131 L 345.000 312.262 348.750 311.642 C 350.813 311.301,356.212 311.017,360.750 311.011 C 365.576 311.005,369.000 310.585,369.000 310.000 C 369.000 309.434,371.883 309.000,375.650 309.000 L 382.300 309.000 381.758 342.463 " stroke="none" fill-rule="evenodd"></path></g></svg>