<svg version="1.1" width="515" height="515" xmlns="http://www.w3.org/2000/svg">
<g>
<path d="M29.000 258.500 L 29.000 409.000 257.500 409.000 L 486.000 409.000 486.000 258.500 L 486.000 108.000 257.500 108.000 L 29.000 108.000 29.000 258.500 M196.000 258.500 L 196.000 365.000 172.000 365.000 L 148.000 365.000 148.000 258.500 L 148.000 152.000 172.000 152.000 L 196.000 152.000 196.000 258.500 M282.000 258.500 L 282.000 365.000 258.000 365.000 L 234.000 365.000 234.000 258.500 L 234.000 152.000 258.000 152.000 L 282.000 152.000 282.000 258.500 M368.000 258.500 L 368.000 365.000 344.000 365.000 L 320.000 365.000 320.000 258.500 L 320.000 152.000 344.000 152.000 L 368.000 152.000 368.000 258.500 M78.596 216.828 C 83.597 222.215,84.115 222.803,91.093 231.000 C 94.605 235.125,98.608 239.826,99.989 241.446 C 101.370 243.067,103.513 245.368,104.750 246.561 C 105.987 247.754,107.000 249.240,107.000 249.865 C 107.000 250.489,107.375 251.000,107.833 251.000 C 108.291 251.000,110.115 252.804,111.887 255.010 L 115.110 259.019 108.805 266.188 C 105.337 270.130,100.813 275.111,98.750 277.257 C 96.688 279.403,95.000 281.409,95.000 281.715 C 95.000 282.020,93.987 283.257,92.750 284.462 C 90.729 286.431,82.601 295.485,75.661 303.500 L 73.063 306.500 73.062 258.000 C 73.061 223.276,73.363 210.019,74.124 211.328 C 74.708 212.333,76.721 214.808,78.596 216.828 M408.342 219.350 C 410.629 222.018,414.075 226.044,416.000 228.296 C 417.925 230.549,420.512 233.368,421.750 234.561 C 422.988 235.754,424.000 236.981,424.000 237.288 C 424.000 237.595,425.238 239.133,426.750 240.707 C 434.117 248.369,442.000 257.852,442.000 259.050 C 442.000 259.870,436.463 266.369,431.451 271.431 C 430.325 272.569,424.960 278.675,419.530 285.000 C 414.100 291.325,408.385 297.741,406.829 299.259 C 405.273 300.776,404.000 302.448,404.000 302.974 C 404.000 303.499,403.100 304.411,402.000 305.000 C 400.013 306.064,400.000 305.766,400.033 257.785 L 400.067 209.500 402.125 212.000 C 403.258 213.375,406.055 216.683,408.342 219.350 " stroke="none" fill-rule="evenodd"></path>
</g>
</svg>