<svg version="1.1" width="515" height="515" xmlns="http://www.w3.org/2000/svg"><g><path d="M255.437 9.250 C 254.960 11.038,247.461 15.168,218.918 29.362 L 183.000 47.224 183.000 81.112 C 183.000 102.569,182.641 115.000,182.020 115.000 C 179.558 115.000,164.446 111.619,164.000 110.969 C 163.725 110.567,156.300 108.748,147.500 106.926 C 138.700 105.104,131.275 103.337,131.000 103.000 C 130.427 102.298,102.356 95.989,99.833 95.996 C 98.917 95.998,98.004 95.513,97.806 94.919 C 97.032 92.596,83.535 93.258,83.196 95.635 C 82.983 97.122,81.536 98.287,78.427 99.475 C 75.972 100.412,73.409 101.715,72.732 102.370 C 72.054 103.025,68.013 105.070,63.750 106.915 C 59.487 108.760,56.000 110.659,56.000 111.135 C 56.000 111.611,55.325 112.000,54.500 112.000 C 53.174 112.000,53.000 128.833,53.000 257.500 C 53.000 386.167,53.174 403.000,54.500 403.000 C 55.325 403.000,56.000 403.389,56.000 403.865 C 56.000 404.341,59.487 406.240,63.750 408.085 C 68.013 409.930,72.054 411.975,72.732 412.630 C 73.409 413.285,75.972 414.588,78.427 415.525 C 81.536 416.713,82.983 417.878,83.196 419.365 C 83.525 421.672,96.485 422.417,97.887 420.209 C 98.224 419.679,105.700 417.774,114.500 415.975 C 123.300 414.177,130.725 412.388,131.000 412.000 C 131.275 411.612,138.700 409.823,147.500 408.025 C 156.300 406.226,163.725 404.443,164.000 404.061 C 164.519 403.341,178.939 400.000,181.528 400.000 C 182.795 400.000,183.000 404.723,183.000 433.888 L 183.000 467.776 218.918 485.638 C 247.461 499.832,254.960 503.962,255.437 505.750 C 256.031 507.973,263.000 509.292,263.000 507.181 C 263.000 506.730,266.488 504.843,270.750 502.988 C 275.012 501.132,278.725 499.298,279.000 498.912 C 279.275 498.526,282.875 496.719,287.000 494.897 C 291.125 493.074,294.725 491.274,295.000 490.897 C 295.275 490.519,298.875 488.719,303.000 486.897 C 307.125 485.074,310.725 483.274,311.000 482.897 C 311.275 482.519,314.875 480.719,319.000 478.897 C 323.125 477.074,326.725 475.280,327.000 474.910 C 327.275 474.539,329.300 473.392,331.500 472.360 L 335.500 470.485 335.762 433.637 L 336.025 396.789 338.262 397.320 C 339.493 397.611,346.350 399.092,353.500 400.610 C 360.650 402.128,366.650 403.736,366.833 404.185 C 367.017 404.633,367.917 404.998,368.833 404.996 C 371.929 404.988,399.497 411.395,399.833 412.201 C 400.017 412.640,401.142 413.022,402.333 413.048 C 409.461 413.206,424.342 417.693,425.171 419.933 C 426.170 422.633,434.558 422.584,437.280 419.863 C 438.076 419.067,441.826 417.113,445.613 415.520 C 449.401 413.927,452.740 412.276,453.034 411.852 C 453.328 411.428,456.140 409.943,459.284 408.553 L 465.000 406.025 465.000 257.500 L 465.000 108.975 459.284 106.447 C 456.140 105.057,453.328 103.572,453.034 103.148 C 452.740 102.724,449.401 101.073,445.613 99.480 C 441.826 97.887,438.076 95.933,437.280 95.137 C 434.515 92.372,426.189 92.372,425.138 95.138 C 424.331 97.261,422.886 97.793,412.115 99.936 C 405.452 101.261,400.000 102.667,400.000 103.059 C 400.000 103.452,398.762 103.981,397.250 104.236 C 387.978 105.797,367.419 110.354,367.000 110.941 C 366.725 111.326,360.650 112.860,353.500 114.351 C 346.350 115.842,339.493 117.280,338.262 117.547 L 336.025 118.032 335.762 81.274 L 335.500 44.515 331.500 42.640 C 329.300 41.608,327.275 40.461,327.000 40.090 C 326.725 39.720,323.125 37.926,319.000 36.103 C 314.875 34.281,311.275 32.481,311.000 32.103 C 310.725 31.726,307.125 29.926,303.000 28.103 C 298.875 26.281,295.275 24.481,295.000 24.103 C 294.725 23.726,291.125 21.926,287.000 20.103 C 282.875 18.281,279.275 16.474,279.000 16.088 C 278.725 15.702,275.012 13.868,270.750 12.012 C 266.488 10.157,263.000 8.270,263.000 7.819 C 263.000 5.708,256.031 7.027,255.437 9.250 M270.000 24.084 C 270.000 24.439,273.488 26.240,277.750 28.085 C 282.012 29.930,286.001 31.922,286.613 32.512 C 287.226 33.101,290.826 34.894,294.613 36.496 C 298.401 38.097,302.001 39.897,302.613 40.496 C 303.226 41.094,306.826 42.894,310.613 44.496 C 314.401 46.097,318.067 47.964,318.760 48.643 C 319.454 49.322,321.591 50.446,323.510 51.140 L 327.000 52.402 327.000 257.500 L 327.000 462.598 323.510 463.860 C 321.591 464.554,319.454 465.678,318.760 466.357 C 318.067 467.036,314.401 468.903,310.613 470.504 C 306.826 472.106,303.226 473.906,302.613 474.504 C 302.001 475.103,298.401 476.903,294.613 478.504 C 290.826 480.106,287.226 481.899,286.613 482.488 C 286.001 483.078,282.012 485.070,277.750 486.915 C 273.488 488.760,270.000 490.561,270.000 490.916 C 270.000 491.271,268.650 492.071,267.000 492.694 L 264.000 493.826 264.000 257.500 L 264.000 21.174 267.000 22.306 C 268.650 22.929,270.000 23.729,270.000 24.084 M106.982 107.710 C 113.867 109.201,119.725 110.721,120.000 111.088 C 120.275 111.455,127.700 113.226,136.500 115.024 C 145.300 116.822,152.634 118.630,152.798 119.041 C 152.962 119.452,158.476 120.825,165.052 122.092 L 177.007 124.396 176.754 257.405 L 176.500 390.415 165.000 392.836 C 158.675 394.168,153.275 395.574,153.000 395.960 C 152.725 396.345,145.300 398.130,136.500 399.926 C 127.700 401.722,120.275 403.522,120.000 403.927 C 119.725 404.331,114.325 405.703,108.000 406.975 C 101.675 408.247,95.487 409.501,94.250 409.760 L 92.000 410.233 92.000 257.617 C 92.000 137.374,92.261 105.000,93.232 105.000 C 93.910 105.000,100.097 106.220,106.982 107.710 M445.913 112.150 L 456.000 117.301 456.000 257.500 L 456.000 397.699 445.913 402.850 C 440.365 405.682,435.415 408.000,434.913 408.000 C 434.366 408.000,434.000 347.587,434.000 257.500 C 434.000 167.413,434.366 107.000,434.913 107.000 C 435.415 107.000,440.365 109.318,445.913 112.150 " stroke="none" fill-rule="evenodd"></path></g></svg>