<svg id="svg" version="1.1" width="515" height="515" xmlns="http://www.w3.org/2000/svg" xmlns:xlink="http://www.w3.org/1999/xlink" style="display: block;"><g id="svgg"><path id="path0" d="M119.000 41.500 L 119.000 83.000 153.067 83.000 C 186.680 83.000,187.126 83.027,186.500 85.000 C 186.122 86.192,186.320 87.000,186.992 87.000 C 187.611 87.000,187.859 87.419,187.543 87.931 C 187.226 88.443,187.432 89.149,188.000 89.500 C 188.568 89.851,188.774 90.557,188.457 91.069 C 188.141 91.581,188.385 92.000,189.000 92.000 C 189.615 92.000,189.859 92.419,189.543 92.931 C 189.226 93.443,189.455 94.163,190.052 94.532 C 190.648 94.901,190.895 95.832,190.600 96.601 C 190.304 97.371,190.551 98.000,191.148 98.000 C 191.745 98.000,191.998 98.901,191.710 100.001 C 191.398 101.194,191.592 101.752,192.189 101.383 C 192.762 101.029,193.031 101.564,192.817 102.632 C 192.611 103.659,193.235 105.364,194.203 106.419 C 195.627 107.971,195.728 108.630,194.732 109.861 C 193.723 111.108,193.757 111.229,194.920 110.528 C 195.985 109.886,196.180 110.088,195.701 111.336 C 195.350 112.252,195.546 113.000,196.138 113.000 C 196.730 113.000,196.955 113.675,196.638 114.500 C 196.322 115.325,196.574 116.000,197.198 116.000 C 197.822 116.000,198.072 116.262,197.752 116.582 C 197.432 116.901,197.789 118.644,198.545 120.455 C 199.302 122.265,199.662 124.004,199.346 124.320 C 199.030 124.636,199.760 126.493,200.967 128.447 C 202.175 130.401,202.670 132.000,202.068 132.000 C 200.856 132.000,203.422 139.025,204.988 139.993 C 205.489 140.302,206.070 142.229,206.280 144.275 C 206.490 146.321,207.035 148.334,207.491 148.747 C 207.947 149.161,207.954 148.868,207.506 148.095 C 206.977 147.184,207.072 146.927,207.776 147.362 C 208.373 147.731,208.659 149.150,208.411 150.516 C 208.150 151.958,208.434 153.000,209.087 153.000 C 209.707 153.000,209.960 153.661,209.651 154.468 C 209.341 155.275,209.541 156.217,210.096 156.560 C 210.651 156.903,210.916 157.705,210.683 158.342 C 210.451 158.979,210.990 160.365,211.880 161.422 C 212.771 162.479,212.938 163.015,212.250 162.613 C 211.563 162.211,211.000 162.359,211.000 162.941 C 211.000 163.523,211.675 164.000,212.500 164.000 C 214.473 164.000,214.395 165.466,212.250 168.747 C 210.863 170.867,210.811 171.259,212.000 170.635 C 212.825 170.202,212.487 170.742,211.250 171.834 C 210.012 172.927,209.000 174.488,209.000 175.303 C 209.000 176.119,208.325 177.045,207.500 177.362 C 206.675 177.678,206.000 178.626,206.000 179.469 C 206.000 180.311,205.550 181.000,205.000 181.000 C 204.450 181.000,204.053 181.338,204.118 181.750 C 204.447 183.833,203.845 185.000,202.441 185.000 C 201.584 185.000,201.118 185.382,201.406 185.849 C 201.695 186.315,201.073 187.617,200.026 188.742 C 198.978 189.867,198.393 191.060,198.727 191.394 C 199.060 191.727,198.808 192.000,198.167 192.000 C 197.525 192.000,197.000 192.675,197.000 193.500 C 197.000 194.325,196.523 195.000,195.941 195.000 C 195.359 195.000,195.160 195.450,195.500 196.000 C 195.840 196.550,195.728 197.000,195.251 197.000 C 194.775 197.000,193.595 198.791,192.629 200.979 C 191.664 203.167,190.366 204.855,189.746 204.729 C 189.126 204.603,188.427 205.400,188.194 206.500 C 187.960 207.600,187.341 208.770,186.818 209.100 C 186.295 209.430,185.763 210.412,185.635 211.282 C 185.507 212.152,184.187 214.331,182.701 216.125 C 181.216 217.918,180.000 219.911,180.000 220.553 C 180.000 221.195,178.425 223.390,176.500 225.431 C 174.575 227.472,173.000 230.037,173.000 231.130 C 173.000 232.224,172.550 232.840,172.000 232.500 C 171.450 232.160,171.000 232.584,171.000 233.441 C 171.000 234.298,170.523 235.000,169.941 235.000 C 169.359 235.000,169.153 235.438,169.484 235.973 C 169.814 236.509,169.166 237.734,168.043 238.696 C 166.919 239.657,166.000 240.789,166.000 241.211 C 166.000 241.632,165.321 242.770,164.492 243.739 C 163.662 244.707,162.976 245.827,162.966 246.226 C 162.957 246.626,161.831 248.159,160.464 249.633 C 159.098 251.107,158.172 252.505,158.407 252.740 C 158.641 252.975,158.083 253.997,157.167 255.012 C 153.750 258.794,153.000 259.954,153.000 261.458 C 153.000 262.306,152.550 263.000,152.000 263.000 C 151.450 263.000,151.000 263.675,151.000 264.500 C 151.000 265.325,150.523 266.000,149.941 266.000 C 149.359 266.000,149.160 266.450,149.500 267.000 C 149.840 267.550,149.641 268.000,149.059 268.000 C 148.477 268.000,148.000 268.675,148.000 269.500 C 148.000 270.325,147.550 271.000,147.000 271.000 C 146.450 271.000,146.000 271.643,146.000 272.429 C 146.000 273.214,145.230 274.628,144.288 275.569 C 143.346 276.511,142.476 277.960,142.354 278.790 C 142.233 279.621,141.541 280.675,140.816 281.135 C 140.092 281.594,139.922 281.976,140.439 281.985 C 140.955 281.993,140.392 282.918,139.189 284.039 C 137.985 285.160,137.000 286.635,137.000 287.316 C 137.000 287.997,135.762 289.947,134.250 291.648 C 132.737 293.350,131.363 295.363,131.195 296.121 C 131.027 296.880,130.305 297.952,129.591 298.504 C 128.876 299.056,127.970 300.518,127.578 301.754 C 127.186 302.989,126.371 304.000,125.766 304.000 C 125.161 304.000,124.945 304.279,125.286 304.619 C 125.626 304.960,125.364 305.844,124.702 306.584 C 121.716 309.928,121.160 310.827,121.727 311.393 C 122.060 311.727,121.863 312.000,121.288 312.000 C 120.713 312.000,119.697 313.318,119.030 314.928 C 118.363 316.539,117.183 318.100,116.408 318.397 C 115.634 318.694,115.000 319.626,115.000 320.469 C 115.000 321.311,114.550 322.000,114.000 322.000 C 113.450 322.000,113.053 322.338,113.118 322.750 C 113.433 324.743,112.899 326.056,112.000 325.500 C 111.450 325.160,111.000 325.528,111.000 326.319 C 111.000 327.109,110.330 328.311,109.511 328.991 C 108.692 329.671,108.233 330.568,108.490 330.984 C 108.903 331.652,108.065 332.911,104.014 337.712 C 103.452 338.379,102.471 340.067,101.835 341.462 C 101.199 342.858,100.275 344.000,99.780 344.000 C 99.286 344.000,99.146 344.427,99.469 344.950 C 99.792 345.472,99.131 346.395,98.000 347.000 C 96.869 347.605,96.208 348.528,96.531 349.050 C 96.854 349.573,96.615 350.000,96.000 350.000 C 95.385 350.000,95.131 350.403,95.435 350.895 C 95.740 351.388,95.316 352.048,94.494 352.364 C 93.672 352.679,93.000 353.626,93.000 354.469 C 93.000 355.311,92.523 356.000,91.941 356.000 C 91.359 356.000,91.153 356.438,91.484 356.973 C 91.814 357.509,91.166 358.734,90.043 359.696 C 88.919 360.657,88.000 362.019,88.000 362.722 C 88.000 363.425,87.523 364.000,86.941 364.000 C 86.359 364.000,86.162 364.453,86.504 365.007 C 86.847 365.561,86.426 366.283,85.569 366.612 C 84.712 366.941,84.262 367.616,84.569 368.112 C 84.876 368.608,84.464 369.268,83.655 369.579 C 82.845 369.890,81.637 371.461,80.970 373.072 C 80.303 374.682,79.362 376.000,78.879 376.000 C 78.395 376.000,78.053 376.337,78.118 376.750 C 78.449 378.847,77.876 380.042,76.845 379.405 C 76.112 378.951,75.963 379.131,76.437 379.899 C 76.872 380.603,76.311 381.863,75.092 382.920 C 73.941 383.918,73.000 385.038,73.000 385.409 C 73.000 385.780,72.116 387.033,71.035 388.193 C 69.954 389.354,69.305 390.685,69.594 391.151 C 69.882 391.618,69.672 392.000,69.126 392.000 C 68.581 392.000,67.819 393.012,67.433 394.250 C 67.046 395.488,66.229 396.821,65.615 397.214 C 65.002 397.606,64.444 398.393,64.375 398.964 C 64.306 399.534,64.194 400.450,64.125 401.000 C 64.056 401.550,63.418 402.000,62.707 402.000 C 61.995 402.000,60.697 403.913,59.822 406.250 C 58.947 408.588,57.729 410.388,57.116 410.250 C 56.096 410.021,55.570 411.321,55.891 413.278 C 55.961 413.706,55.342 414.315,54.515 414.633 C 53.688 414.950,53.250 415.596,53.542 416.068 C 53.834 416.541,53.044 417.956,51.786 419.214 C 50.529 420.471,49.612 421.837,49.750 422.250 C 49.887 422.662,49.475 423.000,48.833 423.000 C 48.192 423.000,47.964 423.297,48.327 423.660 C 48.690 424.023,48.090 424.949,46.994 425.717 C 45.897 426.485,45.000 428.002,45.000 429.088 C 45.000 430.174,44.299 431.332,43.443 431.660 C 42.586 431.989,42.121 432.874,42.410 433.627 C 42.703 434.389,41.837 435.716,40.456 436.621 C 39.092 437.514,37.708 439.315,37.380 440.623 C 37.052 441.930,36.382 443.000,35.892 443.000 C 35.401 443.000,35.053 443.337,35.118 443.750 C 35.433 445.743,34.899 447.056,34.000 446.500 C 33.450 446.160,33.000 446.584,33.000 447.441 C 33.000 448.298,32.523 449.000,31.941 449.000 C 31.359 449.000,31.160 449.450,31.500 450.000 C 31.840 450.550,31.641 451.000,31.059 451.000 C 30.477 451.000,30.000 451.694,30.000 452.542 C 30.000 454.122,29.763 454.477,25.484 459.302 C 24.118 460.842,23.000 462.775,23.000 463.597 C 23.000 464.419,21.987 466.138,20.750 467.417 C 19.512 468.696,18.354 470.363,18.175 471.121 C 17.996 471.880,17.434 472.650,16.925 472.833 C 16.416 473.017,16.000 473.782,16.000 474.534 C 16.000 475.285,15.285 476.301,14.410 476.790 C 13.536 477.279,12.861 477.977,12.910 478.340 C 13.178 480.308,12.874 481.000,11.745 481.000 C 10.421 481.000,7.817 487.895,8.638 489.224 C 9.359 490.390,107.373 490.189,110.461 489.015 C 111.885 488.473,113.332 487.236,113.675 486.265 C 114.018 485.294,115.088 483.600,116.054 482.500 C 117.987 480.298,121.451 474.684,122.911 471.386 C 123.426 470.224,124.585 468.990,125.487 468.643 C 126.389 468.297,126.847 467.561,126.504 467.007 C 126.162 466.453,126.347 466.000,126.916 466.000 C 127.485 466.000,128.873 463.975,130.000 461.500 C 131.127 459.025,132.480 457.000,133.006 457.000 C 133.531 457.000,134.983 454.759,136.231 452.020 C 137.479 449.282,139.014 447.032,139.643 447.020 C 140.649 447.002,141.604 445.537,142.107 443.240 C 142.196 442.833,143.108 441.912,144.134 441.193 C 145.160 440.475,146.000 439.430,146.000 438.872 C 146.000 438.314,146.679 437.178,147.509 436.348 C 148.339 435.518,148.720 434.356,148.355 433.765 C 147.985 433.167,148.156 432.978,148.741 433.340 C 149.738 433.956,151.496 431.345,151.159 429.750 C 151.071 429.337,151.450 429.000,152.000 429.000 C 152.550 429.000,153.000 428.433,153.000 427.740 C 153.000 427.047,154.098 425.295,155.441 423.847 C 156.783 422.399,157.608 420.942,157.274 420.607 C 156.940 420.273,157.218 420.000,157.892 420.000 C 158.566 420.000,158.838 419.547,158.496 418.993 C 158.153 418.439,158.593 417.710,159.474 417.372 C 161.094 416.750,164.584 411.129,164.206 409.750 C 164.093 409.338,164.631 409.000,165.402 409.000 C 166.173 409.000,167.295 407.594,167.894 405.874 C 168.493 404.155,169.956 401.905,171.145 400.874 C 172.333 399.844,172.926 399.000,172.462 399.000 C 171.998 399.000,172.491 398.292,173.559 397.426 C 174.626 396.560,174.825 396.143,174.000 396.500 C 173.175 396.857,173.400 396.421,174.500 395.531 C 175.600 394.642,176.501 393.596,176.503 393.207 C 176.505 392.818,177.653 390.925,179.054 389.000 C 180.455 387.075,182.236 384.228,183.011 382.673 C 183.786 381.117,185.226 379.414,186.210 378.887 C 187.195 378.361,188.000 377.425,188.000 376.809 C 188.000 376.193,189.139 374.195,190.532 372.369 C 191.925 370.543,193.020 368.772,192.966 368.433 C 192.911 368.095,193.547 367.296,194.378 366.659 C 195.210 366.022,196.027 364.843,196.195 364.039 C 196.570 362.242,197.782 360.533,200.896 357.406 C 202.214 356.083,202.932 355.000,202.493 355.000 C 202.054 355.000,202.550 354.213,203.597 353.250 C 204.644 352.288,206.375 349.925,207.444 348.000 C 208.513 346.075,209.980 343.901,210.703 343.169 C 211.426 342.438,211.720 341.356,211.355 340.765 C 210.972 340.146,211.159 339.980,211.795 340.373 C 212.403 340.749,213.388 340.143,213.985 339.028 C 214.582 337.913,214.717 336.986,214.285 336.970 C 213.853 336.953,214.269 336.491,215.208 335.943 C 216.251 335.335,216.672 334.309,216.289 333.310 C 215.868 332.214,216.047 331.911,216.830 332.395 C 217.536 332.831,218.000 332.487,218.000 331.528 C 218.000 330.653,218.672 329.679,219.494 329.364 C 220.316 329.048,220.740 328.388,220.435 327.895 C 220.131 327.403,220.359 327.000,220.941 327.000 C 221.523 327.000,221.887 326.662,221.750 326.250 C 221.612 325.837,222.299 324.600,223.275 323.500 C 228.526 317.583,229.917 315.675,229.487 314.979 C 229.225 314.556,229.712 313.941,230.569 313.612 C 231.426 313.283,231.847 312.561,231.504 312.007 C 231.162 311.453,231.434 311.000,232.108 311.000 C 232.782 311.000,233.042 310.708,232.685 310.352 C 232.328 309.995,232.997 308.870,234.171 307.852 C 235.345 306.833,235.927 306.000,235.464 306.000 C 235.002 306.000,235.573 305.115,236.733 304.034 C 237.894 302.952,239.134 301.152,239.489 300.034 C 239.844 298.915,240.581 298.000,241.126 298.000 C 241.672 298.000,241.840 297.550,241.500 297.000 C 241.160 296.450,241.385 296.000,242.000 296.000 C 242.615 296.000,242.840 295.550,242.500 295.000 C 242.160 294.450,242.359 294.000,242.941 294.000 C 243.523 294.000,244.000 293.490,244.000 292.867 C 244.000 292.244,244.969 290.894,246.153 289.867 C 247.337 288.840,247.992 288.000,247.608 288.000 C 247.223 288.000,247.942 286.962,249.205 285.694 C 250.467 284.426,252.384 281.737,253.464 279.719 C 255.429 276.049,258.000 274.055,258.000 276.203 C 258.000 276.830,258.788 278.243,259.750 279.343 C 260.712 280.444,260.938 281.015,260.250 280.613 C 259.563 280.211,259.000 280.359,259.000 280.941 C 259.000 281.523,259.477 282.000,260.059 282.000 C 260.641 282.000,260.840 282.450,260.500 283.000 C 260.160 283.550,260.385 284.000,261.000 284.000 C 261.615 284.000,261.840 284.450,261.500 285.000 C 261.160 285.550,261.385 286.000,262.000 286.000 C 262.615 286.000,262.809 286.500,262.431 287.112 C 262.053 287.723,262.274 288.551,262.922 288.952 C 263.570 289.352,264.173 290.652,264.263 291.840 C 264.352 293.028,264.780 294.000,265.213 294.000 C 265.646 294.000,266.000 294.873,266.000 295.941 C 266.000 297.009,266.457 298.165,267.016 298.510 C 267.575 298.856,267.774 299.557,267.457 300.069 C 267.141 300.581,267.407 301.000,268.048 301.000 C 268.689 301.000,268.960 301.662,268.649 302.471 C 268.339 303.280,268.773 304.630,269.614 305.471 C 270.455 306.312,270.834 307.000,270.456 307.000 C 270.079 307.000,270.426 308.012,271.227 309.250 C 272.414 311.083,273.568 314.212,274.454 318.000 C 274.518 318.275,275.102 319.453,275.750 320.619 C 276.399 321.784,276.645 323.021,276.298 323.369 C 275.951 323.716,276.240 324.000,276.940 324.000 C 277.681 324.000,277.965 324.650,277.618 325.552 C 277.277 326.442,277.445 326.843,278.011 326.493 C 278.872 325.961,279.474 328.001,279.118 330.250 C 279.053 330.663,279.394 331.000,279.875 331.000 C 280.691 331.000,282.431 336.584,282.134 338.250 C 282.060 338.663,282.436 339.000,282.969 339.000 C 283.501 339.000,283.706 339.603,283.423 340.340 C 283.140 341.077,283.604 342.257,284.454 342.962 C 285.305 343.668,286.000 345.015,286.000 345.956 C 286.000 346.897,286.338 348.004,286.750 348.417 C 287.163 348.829,287.516 349.467,287.535 349.833 C 287.555 350.200,288.071 351.400,288.683 352.500 C 289.295 353.600,289.954 355.625,290.148 357.000 C 290.341 358.375,291.088 360.121,291.808 360.879 C 292.527 361.637,292.878 362.875,292.589 363.629 C 292.300 364.383,292.499 365.000,293.031 365.000 C 293.564 365.000,294.000 365.900,294.000 367.000 C 294.000 368.100,294.450 369.000,295.000 369.000 C 295.550 369.000,296.000 370.098,296.000 371.441 C 296.000 372.784,296.430 374.148,296.956 374.473 C 297.482 374.798,297.681 375.667,297.399 376.403 C 297.116 377.139,297.617 378.023,298.511 378.366 C 299.647 378.802,299.934 379.634,299.462 381.120 C 299.007 382.554,299.147 383.027,299.893 382.566 C 300.865 381.966,301.496 383.862,301.118 386.250 C 301.053 386.663,301.477 387.000,302.059 387.000 C 302.641 387.000,302.859 387.419,302.543 387.931 C 302.226 388.443,302.432 389.149,303.000 389.500 C 303.568 389.851,303.774 390.557,303.457 391.069 C 303.141 391.581,303.310 392.000,303.834 392.000 C 304.358 392.000,305.054 392.698,305.382 393.552 C 305.729 394.456,305.557 394.844,304.972 394.482 C 304.419 394.141,304.732 395.467,305.668 397.430 C 306.604 399.394,307.850 401.007,308.435 401.015 C 309.021 401.024,308.904 401.408,308.176 401.870 C 307.097 402.554,307.135 402.992,308.378 404.236 C 309.218 405.075,309.592 406.074,309.211 406.456 C 308.829 406.838,309.265 407.569,310.180 408.081 C 311.095 408.593,312.156 410.472,312.537 412.256 C 312.919 414.040,313.679 416.057,314.227 416.737 C 314.775 417.418,314.954 418.679,314.623 419.539 C 314.230 420.564,314.422 420.857,315.181 420.388 C 315.962 419.905,316.125 420.231,315.681 421.388 C 315.290 422.407,315.424 422.856,316.011 422.493 C 316.857 421.971,317.231 423.274,316.915 425.638 C 316.868 425.989,317.362 426.605,318.012 427.008 C 318.663 427.410,319.264 428.879,319.348 430.273 C 319.431 431.667,319.824 432.608,320.221 432.363 C 321.045 431.854,322.428 436.604,322.241 439.304 C 322.172 440.296,322.715 441.337,323.448 441.618 C 324.242 441.923,324.558 442.973,324.232 444.221 C 323.860 445.645,324.054 446.084,324.842 445.597 C 325.856 444.971,326.066 445.325,325.980 447.510 C 325.969 447.791,326.662 449.379,327.521 451.040 C 328.379 452.700,328.841 454.448,328.547 454.925 C 328.252 455.401,328.735 456.068,329.619 456.407 C 330.637 456.798,331.036 457.753,330.707 459.012 C 330.421 460.105,330.622 461.000,331.153 461.000 C 331.684 461.000,331.840 461.450,331.500 462.000 C 331.160 462.550,331.385 463.000,332.000 463.000 C 332.615 463.000,332.840 463.450,332.500 464.000 C 332.160 464.550,332.359 465.000,332.941 465.000 C 333.523 465.000,334.000 465.873,334.000 466.941 C 334.000 468.009,334.457 469.165,335.016 469.510 C 335.575 469.856,335.774 470.557,335.457 471.069 C 335.141 471.581,335.290 472.000,335.789 472.000 C 336.288 472.000,336.735 473.395,336.784 475.101 C 336.832 476.806,337.577 478.980,338.438 479.932 C 339.300 480.884,339.703 481.963,339.336 482.331 C 338.968 482.699,339.143 483.000,339.725 483.000 C 340.720 483.000,342.522 487.615,342.164 489.250 C 342.074 489.663,342.450 490.000,343.000 490.000 C 343.550 490.000,344.000 490.932,344.000 492.071 C 344.000 493.211,344.675 494.818,345.500 495.643 C 347.318 497.461,347.485 499.364,345.750 498.485 C 345.063 498.137,345.295 498.503,346.267 499.299 C 347.309 500.152,347.778 501.414,347.410 502.373 C 347.054 503.302,347.286 504.000,347.952 504.000 C 348.593 504.000,348.862 504.414,348.550 504.919 C 348.237 505.425,348.761 506.619,349.714 507.572 C 350.668 508.525,351.497 510.473,351.557 511.902 C 351.661 514.348,352.003 514.518,357.425 514.803 C 360.904 514.985,362.949 514.727,362.593 514.150 C 361.917 513.057,367.772 510.741,369.115 511.571 C 369.602 511.872,370.007 511.529,370.015 510.809 C 370.026 509.858,370.296 509.910,371.000 511.000 C 371.533 511.825,371.978 512.050,371.988 511.500 C 372.013 510.208,380.563 506.678,382.229 507.272 C 382.928 507.522,384.667 507.137,386.094 506.418 C 387.520 505.699,389.866 504.952,391.306 504.760 C 392.746 504.567,394.279 504.020,394.712 503.544 C 395.151 503.062,394.878 503.040,394.095 503.494 C 393.139 504.049,392.924 503.933,393.421 503.128 C 393.822 502.479,395.690 502.051,397.571 502.178 C 399.452 502.305,401.534 501.866,402.196 501.204 C 402.858 500.542,404.863 500.000,406.650 500.000 C 408.635 500.000,410.261 499.356,410.827 498.346 C 411.405 497.313,412.390 496.936,413.449 497.342 C 414.382 497.700,416.125 497.454,417.322 496.795 C 419.704 495.484,421.600 494.905,424.177 494.703 C 425.099 494.631,425.655 494.250,425.412 493.858 C 424.811 492.885,428.733 491.717,429.991 492.494 C 430.546 492.837,431.000 492.641,431.000 492.059 C 431.000 491.477,432.012 490.997,433.250 490.994 C 434.488 490.990,436.784 490.318,438.354 489.499 C 439.924 488.680,441.681 488.303,442.259 488.660 C 442.872 489.039,443.012 488.829,442.595 488.155 C 442.168 487.464,442.532 487.000,443.500 487.000 C 444.390 487.000,444.843 487.445,444.507 487.989 C 444.157 488.555,444.558 488.723,445.448 488.382 C 446.302 488.054,447.000 487.384,447.000 486.893 C 447.000 486.402,448.527 486.000,450.393 486.000 C 452.584 486.000,454.004 485.432,454.401 484.396 C 454.753 483.481,455.657 483.038,456.508 483.365 C 457.329 483.680,458.000 483.453,458.000 482.860 C 458.000 482.211,458.992 482.032,460.500 482.411 C 462.018 482.792,463.000 482.611,463.000 481.952 C 463.000 481.299,463.848 481.135,465.125 481.540 C 466.555 481.994,467.027 481.852,466.566 481.107 C 466.116 480.378,467.077 480.000,469.382 480.000 C 471.307 480.000,473.165 479.543,473.510 478.984 C 473.856 478.425,474.491 478.185,474.922 478.452 C 475.353 478.718,476.559 478.290,477.603 477.500 C 478.646 476.710,480.400 476.035,481.500 476.000 C 482.600 475.965,484.376 475.274,485.448 474.464 C 486.519 473.653,488.208 473.248,489.201 473.564 C 490.212 473.885,491.721 473.422,492.632 472.511 C 493.526 471.617,494.875 471.122,495.629 471.411 C 496.383 471.700,497.000 471.515,497.000 471.000 C 497.000 470.485,497.617 470.300,498.371 470.589 C 499.125 470.878,500.443 470.414,501.300 469.558 C 502.990 467.867,504.463 467.442,503.558 468.907 C 503.249 469.405,503.827 469.596,504.842 469.331 C 506.749 468.832,507.455 461.121,505.750 459.416 C 505.337 459.004,505.000 457.590,505.000 456.274 C 505.000 454.959,504.573 454.146,504.051 454.469 C 503.099 455.057,501.380 448.620,501.849 446.228 C 501.986 445.528,501.366 444.223,500.471 443.328 C 499.577 442.434,499.070 440.841,499.345 439.790 C 499.628 438.708,499.254 437.651,498.486 437.356 C 497.738 437.069,497.373 436.191,497.675 435.405 C 497.977 434.618,497.727 433.376,497.121 432.645 C 496.514 431.914,496.313 431.020,496.675 430.658 C 497.037 430.296,496.756 430.000,496.050 430.000 C 495.259 430.000,494.967 429.233,495.289 428.001 C 495.577 426.902,495.397 425.745,494.890 425.432 C 494.382 425.118,494.226 424.443,494.543 423.931 C 494.859 423.419,494.615 423.000,494.000 423.000 C 493.385 423.000,493.160 422.550,493.500 422.000 C 493.840 421.450,493.716 421.000,493.226 421.000 C 492.735 421.000,492.287 420.438,492.230 419.750 C 491.893 415.664,490.932 411.623,490.043 410.551 C 489.479 409.872,489.313 409.020,489.675 408.658 C 490.037 408.296,489.782 408.000,489.108 408.000 C 488.434 408.000,488.160 407.550,488.500 407.000 C 488.840 406.450,488.641 406.000,488.059 406.000 C 487.477 406.000,487.000 405.523,487.000 404.941 C 487.000 404.359,487.562 404.220,488.250 404.633 C 489.201 405.204,489.192 405.003,488.212 403.794 C 487.001 402.298,485.948 399.068,485.753 396.250 C 485.706 395.563,485.306 395.000,484.865 395.000 C 484.424 395.000,484.279 394.437,484.543 393.748 C 484.807 393.059,484.118 391.930,483.012 391.239 C 481.396 390.231,480.997 390.231,480.985 391.242 C 480.974 392.092,480.655 392.013,480.000 391.000 C 479.354 390.000,479.026 389.917,479.015 390.750 C 479.007 391.438,478.190 392.000,477.200 392.000 C 476.210 392.000,474.794 392.563,474.053 393.250 C 472.976 394.250,472.848 394.250,473.412 393.250 C 473.800 392.563,473.641 392.000,473.059 392.000 C 472.477 392.000,472.000 392.477,472.000 393.059 C 472.000 393.641,471.547 393.838,470.992 393.495 C 470.438 393.153,469.255 393.602,468.363 394.494 C 467.472 395.385,466.125 395.878,465.371 395.589 C 464.617 395.300,464.000 395.409,464.000 395.833 C 464.000 396.257,462.412 396.649,460.471 396.704 C 458.530 396.759,456.280 397.353,455.471 398.024 C 454.662 398.696,454.000 398.879,454.000 398.431 C 454.000 397.984,453.334 398.491,452.519 399.559 C 451.237 401.239,450.903 401.298,450.034 400.000 C 449.147 398.673,449.029 398.677,449.015 400.032 C 449.001 401.433,447.231 401.997,441.823 402.327 C 440.901 402.383,440.395 402.830,440.699 403.321 C 441.002 403.813,440.295 403.911,439.125 403.540 C 437.782 403.113,437.000 403.297,437.000 404.040 C 437.000 404.686,436.325 404.955,435.500 404.638 C 434.675 404.322,434.000 404.574,434.000 405.198 C 434.000 405.822,433.704 406.037,433.342 405.675 C 432.980 405.313,431.994 405.576,431.150 406.259 C 429.904 407.267,429.769 407.247,430.429 406.150 C 431.083 405.064,430.839 405.016,429.176 405.906 C 428.041 406.513,426.835 407.458,426.497 408.005 C 426.159 408.552,425.432 409.000,424.882 409.000 C 424.332 409.000,424.134 408.592,424.442 408.093 C 424.751 407.595,424.102 407.422,423.001 407.710 C 421.901 407.998,421.000 408.679,421.000 409.224 C 421.000 409.768,420.369 409.972,419.597 409.676 C 418.826 409.380,417.364 409.744,416.350 410.486 C 414.165 412.084,412.000 410.785,412.000 407.878 C 412.000 406.845,411.605 406.000,411.121 406.000 C 410.060 406.000,407.964 401.175,407.741 398.218 C 407.653 397.045,407.382 396.285,407.139 396.528 C 406.360 397.307,403.908 391.681,404.432 390.316 C 404.710 389.592,404.475 389.000,403.910 389.000 C 403.344 389.000,403.136 388.588,403.447 388.085 C 403.758 387.582,403.573 387.020,403.036 386.835 C 402.498 386.651,401.933 385.375,401.779 384.000 C 401.626 382.625,400.892 381.023,400.149 380.439 C 399.405 379.856,398.682 377.918,398.542 376.133 C 398.401 374.347,397.807 372.407,397.221 371.821 C 396.636 371.236,396.423 370.062,396.748 369.214 C 397.137 368.202,396.938 367.920,396.170 368.395 C 395.043 369.091,394.579 367.919,394.925 365.250 C 395.015 364.563,394.591 364.000,393.985 364.000 C 393.378 364.000,393.141 363.581,393.457 363.069 C 393.774 362.557,393.575 361.856,393.016 361.510 C 392.457 361.165,392.000 360.009,392.000 358.941 C 392.000 357.873,391.564 357.000,391.031 357.000 C 390.499 357.000,390.304 356.371,390.600 355.601 C 390.895 354.832,390.648 353.901,390.052 353.532 C 389.455 353.163,389.226 352.443,389.543 351.931 C 389.859 351.419,389.615 351.000,389.000 351.000 C 388.385 351.000,388.136 350.588,388.447 350.085 C 388.758 349.582,388.518 349.006,387.914 348.805 C 387.310 348.603,386.745 347.258,386.658 345.815 C 386.571 344.372,386.199 343.378,385.831 343.605 C 385.224 343.980,382.934 338.393,382.385 335.198 C 382.262 334.482,381.440 332.794,380.558 331.448 C 379.600 329.985,379.394 329.000,380.048 329.000 C 380.650 329.000,380.432 328.289,379.562 327.419 C 378.693 326.550,378.214 325.463,378.497 325.005 C 378.781 324.546,378.540 324.013,377.962 323.821 C 377.384 323.628,376.836 322.352,376.745 320.985 C 376.653 319.618,375.887 317.974,375.041 317.332 C 374.195 316.689,373.819 315.848,374.204 315.463 C 374.589 315.077,374.270 314.127,373.495 313.352 C 372.719 312.577,372.327 311.311,372.623 310.540 C 372.919 309.768,372.172 307.799,370.963 306.164 C 369.754 304.528,369.069 302.697,369.441 302.095 C 369.813 301.493,369.656 301.000,369.090 301.000 C 368.525 301.000,368.322 300.325,368.638 299.500 C 368.955 298.675,368.689 298.000,368.048 298.000 C 367.407 298.000,367.129 297.601,367.430 297.113 C 367.731 296.626,367.364 295.717,366.614 295.094 C 365.863 294.472,364.969 292.208,364.626 290.065 C 364.284 287.921,363.532 286.011,362.957 285.819 C 362.382 285.627,361.835 284.465,361.743 283.235 C 361.650 282.006,361.220 281.000,360.787 281.000 C 360.354 281.000,360.081 280.662,360.180 280.250 C 360.279 279.837,359.542 277.700,358.542 275.500 C 357.541 273.300,356.282 270.530,355.743 269.345 C 355.205 268.160,355.069 266.698,355.441 266.095 C 355.813 265.493,355.615 265.000,355.000 265.000 C 354.385 265.000,354.160 264.550,354.500 264.000 C 354.840 263.450,354.656 263.000,354.090 263.000 C 353.525 263.000,353.350 262.251,353.701 261.336 C 354.147 260.176,353.965 259.903,353.103 260.436 C 352.325 260.917,351.979 260.700,352.171 259.850 C 352.587 258.005,349.056 249.000,347.917 249.000 C 347.413 249.000,347.000 247.486,347.000 245.635 C 347.000 243.784,346.115 241.144,345.033 239.769 C 343.951 238.393,343.315 237.018,343.621 236.713 C 343.926 236.407,343.176 234.804,341.953 233.151 C 340.731 231.497,339.988 229.474,340.302 228.655 C 340.620 227.827,340.205 226.909,339.368 226.588 C 338.347 226.196,338.080 225.324,338.538 223.880 C 338.993 222.446,338.853 221.973,338.107 222.434 C 337.135 223.034,336.504 221.138,336.882 218.750 C 336.947 218.337,336.523 218.000,335.941 218.000 C 335.359 218.000,335.141 217.581,335.457 217.069 C 335.774 216.557,335.568 215.851,335.000 215.500 C 334.432 215.149,334.226 214.443,334.543 213.931 C 334.859 213.419,334.656 213.000,334.090 213.000 C 333.525 213.000,333.350 212.251,333.701 211.336 C 334.168 210.120,333.979 209.895,333.000 210.500 C 332.026 211.102,331.831 210.882,332.288 209.693 C 332.635 208.789,332.220 207.363,331.360 206.503 C 330.505 205.648,330.060 204.285,330.371 203.474 C 330.683 202.663,330.475 202.000,329.910 202.000 C 329.344 202.000,329.160 201.550,329.500 201.000 C 329.840 200.450,329.593 200.000,328.952 200.000 C 328.311 200.000,328.045 199.325,328.362 198.500 C 328.678 197.675,328.501 197.000,327.969 197.000 C 327.436 197.000,327.000 195.930,327.000 194.622 C 327.000 193.315,326.305 191.668,325.454 190.962 C 324.604 190.257,324.140 189.077,324.423 188.340 C 324.706 187.603,324.475 187.000,323.910 187.000 C 323.344 187.000,323.160 186.550,323.500 186.000 C 323.840 185.450,323.615 185.000,323.000 185.000 C 322.385 185.000,322.162 184.547,322.505 183.992 C 322.847 183.438,322.404 182.261,321.519 181.376 C 320.634 180.492,320.079 179.262,320.286 178.643 C 320.492 178.024,320.081 176.938,319.373 176.230 C 318.665 175.522,318.367 174.206,318.712 173.307 C 319.132 172.213,318.952 171.911,318.170 172.395 C 317.426 172.855,317.000 172.390,317.000 171.118 C 317.000 170.018,316.543 168.835,315.984 168.490 C 315.425 168.144,315.207 167.474,315.500 167.000 C 315.793 166.526,315.545 165.837,314.948 165.468 C 314.352 165.099,314.105 164.168,314.400 163.399 C 314.696 162.629,314.549 162.000,314.076 162.000 C 313.602 162.000,312.946 161.302,312.618 160.448 C 312.277 159.558,312.445 159.157,313.011 159.507 C 314.530 160.445,314.185 159.328,312.409 157.551 C 311.533 156.676,310.724 155.407,310.610 154.730 C 310.497 154.054,309.842 152.478,309.156 151.229 C 308.469 149.980,308.223 148.448,308.608 147.825 C 309.019 147.160,308.865 146.966,308.235 147.355 C 307.036 148.096,304.510 141.602,305.423 140.124 C 305.734 139.621,305.316 138.952,304.494 138.636 C 303.672 138.321,303.000 137.224,303.000 136.198 C 303.000 135.172,302.663 133.996,302.250 133.583 C 301.837 133.171,301.444 132.421,301.375 131.917 C 301.306 131.413,301.137 130.775,301.000 130.500 C 300.863 130.225,300.655 129.662,300.539 129.250 C 300.422 128.838,299.994 127.748,299.587 126.828 C 299.179 125.909,298.736 124.410,298.603 123.498 C 298.469 122.586,297.716 121.433,296.930 120.935 C 295.693 120.153,295.695 120.029,296.941 120.015 C 297.967 120.004,297.824 119.592,296.443 118.582 C 295.376 117.802,294.842 116.825,295.255 116.412 C 295.669 115.998,295.312 114.599,294.462 113.302 C 293.612 112.005,293.230 110.437,293.613 109.817 C 294.038 109.130,293.859 108.969,293.155 109.405 C 292.520 109.797,291.944 109.641,291.875 109.059 C 291.720 107.745,291.330 106.161,291.000 105.500 C 290.863 105.225,290.677 104.662,290.587 104.250 C 290.497 103.838,289.613 101.835,288.622 99.800 C 287.631 97.765,287.083 95.675,287.404 95.155 C 287.726 94.635,287.295 93.943,286.447 93.618 C 285.600 93.293,285.022 92.458,285.163 91.763 C 285.304 91.069,284.799 89.375,284.041 88.000 C 283.282 86.625,282.738 85.388,282.831 85.250 C 283.489 84.277,282.802 82.004,282.000 82.500 C 281.062 83.080,280.557 81.083,280.925 78.250 C 281.015 77.562,280.716 77.000,280.262 77.000 C 279.808 77.000,279.338 75.812,279.218 74.360 C 279.098 72.908,278.212 71.122,277.250 70.392 C 276.287 69.661,275.893 69.049,276.372 69.032 C 276.852 69.014,276.701 68.345,276.036 67.544 C 275.372 66.743,275.118 65.618,275.473 65.044 C 275.828 64.470,275.677 64.000,275.138 64.000 C 274.600 64.000,273.862 62.650,273.500 61.000 C 273.138 59.350,272.469 58.000,272.014 58.000 C 271.559 58.000,271.441 57.030,271.751 55.844 C 272.174 54.226,271.983 53.892,270.988 54.508 C 270.014 55.109,269.836 54.870,270.319 53.611 C 270.726 52.551,270.217 51.075,268.989 49.758 C 267.895 48.584,266.944 47.033,266.875 46.311 C 266.750 44.998,266.463 43.655,266.007 42.250 C 265.873 41.837,265.816 41.163,265.882 40.750 C 265.947 40.338,265.502 40.000,264.893 40.000 C 264.284 40.000,264.040 39.338,264.351 38.529 C 264.661 37.720,264.281 36.423,263.505 35.648 C 262.730 34.873,262.374 33.960,262.714 33.619 C 263.055 33.279,262.696 32.993,261.917 32.985 C 260.791 32.973,260.766 32.801,261.797 32.146 C 262.839 31.486,262.802 31.080,261.607 30.089 C 260.788 29.409,260.365 28.212,260.666 27.427 C 260.968 26.642,260.689 26.000,260.048 26.000 C 259.407 26.000,259.138 25.586,259.450 25.081 C 259.763 24.575,259.361 23.504,258.557 22.700 C 257.753 21.896,257.316 21.018,257.585 20.748 C 258.262 20.071,255.867 15.000,254.871 15.000 C 254.426 15.000,254.331 14.300,254.660 13.444 C 255.006 12.543,254.376 11.067,253.163 9.937 C 252.011 8.864,251.309 7.359,251.602 6.594 C 251.896 5.829,251.675 4.917,251.112 4.569 C 250.548 4.221,250.369 3.202,250.714 2.304 C 251.132 1.213,250.952 0.912,250.170 1.395 C 249.526 1.793,249.000 1.641,249.000 1.059 C 249.000 0.325,229.082 0.000,184.000 0.000 L 119.000 0.000 119.000 41.500 " stroke="none" fill="#000000" fill-rule="evenodd"></path></g></svg>