<svg version="1.1" width="515" height="515" xmlns="http://www.w3.org/2000/svg"><g><path d="M241.500 27.885 C 234.350 31.560,218.150 39.911,205.500 46.442 C 192.850 52.974,174.400 62.420,164.500 67.434 C 154.600 72.448,145.600 77.045,144.500 77.649 C 141.987 79.031,133.994 83.124,132.000 84.051 C 131.175 84.435,128.475 85.785,126.000 87.051 C 123.525 88.318,120.825 89.668,120.000 90.051 C 117.259 91.326,110.571 94.762,104.795 97.864 C 101.657 99.549,98.282 101.318,97.295 101.794 C 96.308 102.271,93.925 103.455,92.000 104.425 C 90.075 105.395,87.375 106.743,86.000 107.420 C 79.421 110.663,71.167 114.901,69.000 116.147 C 68.175 116.622,65.588 117.998,63.250 119.204 L 59.000 121.399 59.000 149.592 C 59.000 172.785,59.247 177.881,60.395 178.321 C 61.162 178.616,68.024 179.575,75.645 180.452 C 93.606 182.521,131.210 187.136,161.500 190.989 C 174.700 192.668,186.850 194.031,188.500 194.019 C 190.150 194.006,201.175 195.308,213.000 196.911 C 257.573 202.954,253.865 202.952,302.000 196.962 C 314.925 195.354,336.975 192.654,351.000 190.962 C 365.025 189.270,387.075 186.588,400.000 185.002 C 432.034 181.071,445.222 179.625,447.000 179.848 C 447.825 179.952,450.300 180.141,452.500 180.268 L 456.500 180.500 456.500 149.565 L 456.500 118.630 439.500 110.022 C 430.150 105.288,420.475 100.342,418.000 99.031 C 415.525 97.721,412.375 96.095,411.000 95.418 C 409.625 94.742,406.925 93.395,405.000 92.425 C 403.075 91.455,400.692 90.271,399.705 89.794 C 398.718 89.318,395.343 87.549,392.205 85.864 C 389.067 84.179,384.813 81.945,382.750 80.900 C 380.688 79.855,377.087 78.020,374.750 76.823 C 372.413 75.626,369.712 74.276,368.750 73.823 C 367.788 73.370,365.988 72.469,364.750 71.820 C 360.749 69.723,325.955 51.885,309.500 43.496 C 300.700 39.010,291.925 34.354,290.000 33.149 C 286.417 30.907,267.484 24.692,260.750 23.547 C 258.688 23.196,257.000 22.480,257.000 21.955 C 257.000 20.228,254.650 21.127,241.500 27.885 M271.111 33.168 C 273.646 34.725,276.369 36.000,277.161 36.000 C 277.952 36.000,279.028 36.408,279.550 36.906 C 280.461 37.774,288.039 41.941,296.500 46.226 C 298.700 47.340,301.400 48.720,302.500 49.292 C 303.600 49.864,307.650 51.914,311.500 53.846 C 315.350 55.779,319.573 58.179,320.885 59.180 C 322.197 60.181,323.877 61.000,324.620 61.000 C 325.362 61.000,328.164 62.350,330.846 64.000 C 333.527 65.650,336.227 67.000,336.846 67.000 C 337.464 67.000,340.164 68.350,342.846 70.000 C 345.527 71.650,348.211 73.000,348.810 73.000 C 349.410 73.000,351.900 74.350,354.345 76.000 C 356.790 77.650,359.350 79.000,360.034 79.000 C 360.719 79.000,363.473 80.350,366.154 82.000 C 368.836 83.650,371.536 85.000,372.154 85.000 C 372.773 85.000,375.473 86.350,378.154 88.000 C 380.836 89.650,383.672 91.000,384.456 91.000 C 385.240 91.000,386.142 91.421,386.461 91.936 C 386.984 92.783,395.600 97.258,436.500 117.930 L 449.500 124.500 449.768 147.690 L 450.037 170.880 446.268 170.274 C 444.196 169.941,439.401 168.393,435.612 166.834 C 431.824 165.275,427.964 164.000,427.035 164.000 C 426.105 164.000,422.455 162.809,418.922 161.353 C 415.390 159.897,410.925 158.365,409.000 157.948 C 407.075 157.531,401.225 155.733,396.000 153.953 C 390.775 152.172,382.900 149.497,378.500 148.008 C 374.100 146.519,367.575 144.283,364.000 143.039 C 360.425 141.795,354.800 139.978,351.500 139.000 C 344.936 137.055,336.738 134.260,324.686 129.855 C 320.388 128.285,316.255 127.000,315.500 127.000 C 314.745 127.000,310.612 125.701,306.314 124.113 C 302.016 122.526,296.700 120.779,294.500 120.230 C 290.391 119.207,283.682 116.942,269.250 111.707 L 261.000 108.714 261.000 68.838 L 261.000 28.962 263.750 29.649 C 265.262 30.026,268.575 31.610,271.111 33.168 M254.296 213.435 C 253.489 214.878,239.174 216.539,223.750 216.979 C 223.338 216.990,223.000 252.215,223.000 295.257 L 223.000 373.513 219.016 374.757 C 216.824 375.440,214.186 376.000,213.154 376.000 C 212.121 376.000,207.051 377.275,201.888 378.834 C 193.321 381.419,182.799 384.240,171.000 387.112 C 168.525 387.715,161.775 389.488,156.000 391.052 C 150.225 392.617,142.350 394.722,138.500 395.731 C 131.320 397.612,128.946 400.346,131.915 403.315 C 132.611 404.011,133.000 410.607,133.000 421.725 L 133.000 439.050 135.750 440.061 C 137.262 440.617,141.875 442.698,146.000 444.684 C 150.125 446.671,156.425 449.646,160.000 451.295 C 166.681 454.376,170.634 456.258,175.000 458.435 C 181.768 461.809,204.334 472.504,222.500 480.946 C 230.635 484.727,234.897 486.740,248.885 493.409 C 251.297 494.559,253.487 496.288,253.752 497.250 C 254.268 499.127,257.806 499.588,260.764 498.164 C 261.719 497.704,265.425 495.952,269.000 494.271 C 284.710 486.884,313.527 473.123,329.047 465.599 C 335.399 462.519,340.974 460.000,341.437 460.000 C 341.900 460.000,344.473 458.650,347.154 457.000 C 349.836 455.350,352.678 454.000,353.471 454.000 C 354.264 454.000,357.202 452.650,360.000 451.000 C 362.798 449.350,365.512 448.000,366.029 448.000 C 366.547 448.000,369.565 446.693,372.735 445.097 C 375.906 443.500,379.297 441.935,380.270 441.620 C 383.156 440.686,382.437 399.706,379.525 399.146 C 378.439 398.938,377.089 398.163,376.525 397.424 C 375.961 396.686,373.250 395.555,370.500 394.911 C 367.750 394.266,361.000 392.508,355.500 391.003 C 345.218 388.188,337.657 386.190,326.750 383.403 C 323.313 382.525,316.675 380.666,312.000 379.272 C 307.325 377.878,300.688 376.297,297.250 375.758 L 291.000 374.779 291.000 294.507 L 291.000 214.235 283.750 213.643 C 260.684 211.761,255.255 211.723,254.296 213.435 M178.001 217.127 C 173.876 217.605,170.360 218.421,170.186 218.941 C 170.013 219.462,169.337 219.726,168.685 219.527 C 168.033 219.329,164.232 218.901,160.238 218.576 L 152.976 217.984 153.238 256.659 L 153.500 295.334 156.000 296.035 C 167.576 299.285,170.000 300.240,170.000 301.551 C 170.000 303.864,176.518 303.325,185.736 300.250 L 193.980 297.500 193.990 256.750 L 194.000 216.000 189.750 216.130 C 187.412 216.201,182.125 216.650,178.001 217.127 M279.750 220.648 L 285.000 221.279 285.000 304.914 L 285.000 388.550 277.250 391.186 C 272.988 392.635,267.587 394.126,265.250 394.499 L 261.000 395.176 261.000 307.588 L 261.000 220.000 267.750 220.009 C 271.462 220.013,276.863 220.301,279.750 220.648 M188.000 257.265 L 188.000 290.531 183.116 292.265 C 180.429 293.219,177.954 294.000,177.616 294.000 C 177.277 294.000,177.000 278.250,177.000 259.000 L 177.000 224.000 182.500 224.000 L 188.000 224.000 188.000 257.265 M345.253 295.044 C 341.817 295.503,338.451 296.221,337.773 296.640 C 337.095 297.059,332.814 297.273,328.258 297.116 L 319.976 296.829 320.238 335.582 L 320.500 374.334 323.000 375.054 C 324.375 375.451,328.052 376.339,331.170 377.028 C 335.203 377.919,336.981 378.818,337.327 380.141 C 337.997 382.706,340.862 382.510,351.500 379.167 L 360.500 376.339 360.500 335.420 L 360.500 294.500 356.000 294.355 C 353.525 294.274,348.689 294.585,345.253 295.044 M354.000 335.809 L 354.000 369.618 349.000 371.217 L 344.000 372.816 344.000 337.981 C 344.000 299.282,343.417 302.378,350.750 302.116 L 354.000 302.000 354.000 335.809 M218.000 389.551 L 218.000 396.102 221.553 397.587 C 223.507 398.403,226.545 399.308,228.303 399.597 C 233.382 400.432,250.937 406.089,251.556 407.091 C 253.043 409.497,270.077 406.724,283.138 401.949 C 286.072 400.877,289.401 400.000,290.536 400.000 C 294.088 400.000,295.000 397.997,295.000 390.193 C 295.000 383.878,295.231 382.875,296.568 383.388 C 297.430 383.718,301.367 384.858,305.318 385.920 C 309.268 386.982,316.100 388.829,320.500 390.025 C 324.900 391.221,331.200 392.826,334.500 393.591 C 337.800 394.356,344.679 396.248,349.788 397.796 L 359.076 400.609 354.288 402.718 C 347.294 405.797,337.157 409.900,332.000 411.738 C 329.525 412.620,325.520 414.390,323.101 415.671 C 320.682 416.952,318.081 418.000,317.323 418.000 C 316.564 418.000,313.269 419.350,310.000 421.000 C 306.731 422.650,303.482 424.002,302.779 424.004 C 302.075 424.006,298.800 425.354,295.500 427.000 C 292.200 428.646,288.912 429.994,288.194 429.996 C 287.476 429.998,284.167 431.350,280.841 433.000 C 277.516 434.650,274.261 436.000,273.609 436.000 C 272.957 436.000,270.640 436.910,268.461 438.022 C 255.231 444.774,250.559 444.864,238.210 438.606 C 235.381 437.173,232.613 436.000,232.058 436.000 C 231.504 436.000,228.103 434.650,224.500 433.000 C 220.897 431.350,217.518 430.000,216.991 430.000 C 216.463 430.000,213.245 428.650,209.839 427.000 C 206.432 425.350,203.130 424.000,202.500 424.000 C 201.870 424.000,198.568 422.650,195.161 421.000 C 191.755 419.350,188.532 418.000,188.000 418.000 C 187.468 418.000,184.245 416.650,180.839 415.000 C 177.432 413.350,174.037 412.000,173.294 412.000 C 172.551 412.000,169.269 410.650,166.000 409.000 C 162.731 407.350,159.565 406.000,158.964 406.000 C 158.363 406.000,155.621 405.032,152.871 403.849 C 147.791 401.664,147.759 400.049,152.794 400.015 C 154.056 400.007,159.681 398.671,165.294 397.046 C 184.975 391.348,194.544 388.798,199.500 387.927 C 202.250 387.445,206.975 386.171,210.000 385.098 C 218.142 382.209,218.000 382.130,218.000 389.551 M375.000 421.531 C 375.000 433.536,374.803 435.127,373.250 435.628 C 372.288 435.939,366.325 438.662,360.000 441.677 C 353.675 444.693,345.350 448.653,341.500 450.477 C 327.508 457.106,306.349 467.173,300.000 470.222 C 296.425 471.939,292.825 473.636,292.000 473.995 C 291.175 474.353,288.700 475.543,286.500 476.638 C 284.300 477.734,279.350 480.125,275.500 481.952 C 271.650 483.779,267.306 485.887,265.846 486.637 C 261.023 489.114,261.000 489.038,261.000 471.000 C 261.000 456.415,261.217 454.000,262.529 454.000 C 263.369 454.000,266.731 452.650,270.000 451.000 C 273.269 449.350,276.405 448.000,276.969 448.000 C 277.533 448.000,280.852 446.650,284.344 445.000 C 287.836 443.350,291.225 442.000,291.875 442.000 C 292.525 442.000,295.731 440.650,299.000 439.000 C 302.269 437.350,305.567 436.000,306.331 436.000 C 307.094 436.000,310.369 434.656,313.609 433.013 C 316.849 431.370,320.075 430.020,320.779 430.013 C 321.482 430.006,324.731 428.650,328.000 427.000 C 331.269 425.350,334.564 424.000,335.323 424.000 C 336.081 424.000,338.682 422.957,341.101 421.682 C 343.520 420.408,347.525 418.663,350.000 417.805 C 355.417 415.927,364.030 412.430,369.500 409.887 C 371.700 408.865,373.837 408.022,374.250 408.014 C 374.663 408.006,375.000 414.089,375.000 421.531 " stroke="none" fill-rule="evenodd"></path></g></svg>