<?xml version="1.0" encoding="UTF-8" standalone="no"?>
<!DOCTYPE svg PUBLIC "-//W3C//DTD SVG 1.1//EN" "http://www.w3.org/Graphics/SVG/1.1/DTD/svg11.dtd">
<svg width="100%" height="100%" viewBox="0 0 400 400" version="1.1" xmlns="http://www.w3.org/2000/svg" xmlns:xlink="http://www.w3.org/1999/xlink" xml:space="preserve" xmlns:serif="http://www.serif.com/" style="fill-rule:evenodd;clip-rule:evenodd;stroke-linejoin:round;stroke-miterlimit:2;">
    <g id="svgg">
        <path id="path0" d="M213.144,48.47C203.848,50.68 203.36,51.083 196.25,53.98C194.833,54.557 191.982,54.186 192,55.716C192.024,57.687 194.665,58.682 196.319,59.754C198.968,61.47 201.92,62.671 204.783,64.001C208.017,65.503 211.12,67.287 214.407,68.671C222.039,71.886 233.473,71.046 241.276,69.311C246.739,68.096 246.212,67.131 251.136,65C254.666,63.472 261.322,61.523 264.235,58.651C264.917,57.979 265.171,56.578 264.609,55.802C263.763,54.633 262.062,54.441 260.75,53.839C257.128,52.177 253.677,49.991 249.817,49.001C238.543,46.111 224.483,45.775 213.144,48.47M331.111,48.072C324.954,49.516 313.824,51.85 308.222,55.866C307.569,56.334 309.075,57.295 309.75,57.731C310.958,58.512 312.086,59.422 313.346,60.114C315.957,61.549 318.653,62.826 321.346,64.101C325.383,66.013 329.18,68.656 333.527,69.683C339.069,70.991 347.85,70.764 353.313,69.762C356.134,69.245 358.869,68.276 361.523,67.189C364.794,65.85 377.211,59.828 380.496,57.042C380.915,56.687 380.378,55.819 379.935,55.494C378.94,54.763 377.636,54.593 376.5,54.108C374.465,53.24 369.302,50.829 367.25,50.13C355.629,46.173 343.17,45.247 331.111,48.072M175.003,84.614C175.005,95.551 175.299,111.551 175.657,120.17L176.307,135.84L185.403,138.037C192.736,139.809 199.811,142.522 207.067,144.589C211.191,145.764 215.364,146.776 219.45,148.076C220.471,148.401 221.444,150.018 222.354,149.453C223.641,148.653 223.929,146.741 224.032,145.23C224.783,134.212 224.745,123.153 224.9,112.11C224.916,111.006 225.264,88.25 223.905,82.902C222.759,78.386 219.729,78.346 215.972,76.956C204.621,72.756 191.721,67.022 179.649,65.365L175,64.728L175.003,84.614M273.75,65.696C264.326,68.125 254.249,73.056 244.944,76.5C240.898,77.997 237.587,77.532 236.352,82.542C234.919,88.358 235.216,115.628 235.213,115.987C235.157,123.683 234.932,131.381 235.094,139.076C235.17,142.736 235.392,146.405 235.927,150.026C236.118,151.32 237.156,152.952 238.75,152.701C248.404,151.184 259.277,145.083 268,140.965C270.665,139.707 279.96,136.331 280.239,132.102C280.709,124.97 280.252,117.803 279.934,110.663C279.323,96.953 278.612,83.242 277.45,69.568C277.134,65.845 276.85,64.897 273.75,65.696M290.75,65.558C289.424,66.926 289.137,69.099 289,71C288.39,79.465 288,87.954 288,96.441C288,105.134 288.457,113.824 289,122.5C289.097,124.043 289.524,133.332 291.497,134.745C297.81,139.266 307.373,141.828 314.5,144.434C320.716,146.707 327.661,150.558 334.449,151C335.52,151.07 336.765,151.167 337.635,150.539C338.568,149.865 339.184,148.654 339.286,147.508C339.982,139.652 339.724,131.741 340,123.859C340.296,115.405 340.476,106.943 341,98.5C341.374,92.472 343.058,83.208 336.774,78.802C336.49,78.603 325.281,74.338 323.981,73.889C318.156,71.877 312.254,70.09 306.456,68C303.721,67.014 293.624,62.588 290.75,65.558M385,66.807C377.521,70.917 367.495,73.599 359.368,76.575C355.425,78.019 352.483,77.674 351.186,82.418C350.334,85.535 350.334,88.834 350.195,92.064C349.923,98.37 349.979,104.687 349.956,111C349.911,123.205 349.727,135.413 349.989,147.615C350.018,148.984 350.129,150.46 350.829,151.637C351.136,152.154 352.01,152.134 352.596,152C357.461,150.891 362.285,149.559 367.008,147.95C374.72,145.322 381.755,140.796 389.456,138.013C391.84,137.152 396.408,138.17 396.683,135.651C399.158,112.959 398.708,89.949 397.181,67.174C397.058,65.334 393.81,65.383 391.967,65.327C389.594,65.255 387.081,65.664 385,66.807M169.5,144.635C163.702,145.805 158.283,147.745 152.556,149C146.732,150.277 146.662,149.615 141.436,152.271C139.824,153.091 138.223,153.997 136.865,155.19C136.036,155.918 134.357,157.028 135,157.924C135.79,159.024 146.103,162.516 147,162.936C159.694,168.882 173.268,168.544 187.226,166.772C192.31,166.127 197.708,162.576 202.25,160.439C204.205,159.519 207.501,159.552 208,157.45C208.435,155.618 205.472,154.587 203.875,153.589C201.39,152.035 198.58,151.071 195.9,149.884C187.731,146.265 178.444,142.838 169.5,144.635M44,146.23C39.922,146.966 36.368,148.625 32.5,149.99C29.699,150.979 26.778,151.654 24.061,152.855C21.763,153.871 17.528,156.341 18.961,158.405C19.796,159.608 21.454,159.963 22.797,160.548C25.274,161.626 27.818,162.556 30.39,163.381C44.235,167.819 56.924,169.329 71.381,166.99C75.701,166.291 75.093,165.13 78.938,163.19C84.867,160.199 85.306,161.572 91.37,158.667C92.371,158.188 91.019,156.321 90.903,156.216C89.352,154.814 87.735,153.425 85.885,152.451C83.476,151.183 80.777,150.567 78.25,149.555C75.988,148.649 73.993,147.013 71.614,146.487C62.996,144.581 52.652,144.668 44,146.23M116.629,166.257C113.787,176.851 115.982,188.19 116.032,199.159C116.081,209.879 115.62,220.667 116.927,231.308C117.114,232.83 119.094,233.504 120.357,234.375C124.467,237.21 129.395,238.628 134,240.559C136.998,241.816 139.969,243.149 143.039,244.217C145.736,245.155 159.013,251.467 165.326,249.066L168,248.05L168,215.18C168,204.871 167.93,194.553 167.36,184.26C167.275,182.726 166.937,181.092 166.043,179.842C165.542,179.141 164.374,179.377 163.6,179C157.93,176.24 158.162,176.002 152.297,173.424C149.551,172.217 146.885,170.759 144,169.937C136.546,167.812 128.954,166.186 121.365,164.606C119.038,164.121 117.312,163.702 116.629,166.257M211.607,166.513C206.716,167.795 202.441,169.229 202.107,169.699C201.773,170.169 197.486,171.891 192.58,173.527C187.674,175.162 183.174,176.955 182.58,177.512C181.986,178.068 180.262,179.071 178.75,179.74L176,180.957L176,250L179.29,250C184.08,250 193.612,247.33 200.5,244.058C203.8,242.491 208.917,240.433 211.87,239.484C214.824,238.535 218.087,236.913 219.12,235.88C220.154,234.846 221.432,234 221.96,234C225.515,234 226.498,167.191 222.976,164.964C221.206,163.845 222.405,163.682 211.607,166.513M1.575,168.25C1.32,169.488 0.827,184.073 0.479,200.663L-0.155,230.825L4.673,233.629C16.647,240.583 31.254,247.788 45.25,249.519L51,250.23L51,238.615C51,223.494 53.346,209.271 52,194C51.663,190.173 51.7,182.281 48.623,179.291C45.872,176.618 39.667,174.975 36.652,173.872C21.823,168.445 21.938,168.459 5.499,166C3.51,165.703 1.992,166.225 1.575,168.25M91.25,167.657C88.649,168.274 80.423,171.939 78.191,172.873C74.883,174.258 71.377,175.232 68.248,176.985C60.963,181.067 61.86,196.967 61.804,201.658C61.681,211.889 62.254,222.117 62.657,232.34L63.314,249L66.343,249C75.26,249 85.901,244.552 93.721,240.553C96.745,239.006 100.069,237.731 102.471,235.329L106,231.8L106,199.935C106,161.866 106.947,163.938 91.25,167.657M99.053,249.61C96.656,250.134 94.383,251.119 92.053,251.89C87.477,253.405 82.582,254.212 78.356,256.53C77.522,256.987 76.458,257.782 76.539,258.729C76.816,261.982 81.951,262.475 84.978,263.698C88.673,265.191 92.13,267.239 95.844,268.684C105.589,272.475 118.051,271.398 128.131,270.099C131.527,269.661 130.99,268.647 134,267.03C140.566,263.502 142.646,264.206 149.75,261.461C150.475,261.181 151.329,260.785 151.615,260.063C152.846,256.956 145.047,254.961 144,254.57C140.181,253.145 136.694,250.759 132.723,249.84C122.361,247.441 109.436,247.34 99.053,249.61M57.41,269.627C55.634,279.096 56.99,288.898 57.221,298.529C57.396,305.851 56.541,326.958 63.111,336.066C64.228,337.614 68.19,339.446 70.179,340.286C74.36,342.051 85.438,346.66 90,348.095C95.75,349.904 101.516,351.715 107.405,353C108.144,353.161 109.169,353.002 109.585,352.37C111.051,350.144 110.846,347.161 111,344.5C112.249,322.887 112.417,306.576 111,285C110.926,283.865 110.146,282.871 109.496,281.938C107.132,278.545 101.896,278.631 97.949,277.397C90.204,274.975 73.981,270.011 67.948,268C66.666,267.573 66.041,265.91 64.751,265.507C62.298,264.742 57.904,266.999 57.41,269.627M151,270.114C148.012,270.908 133.51,276.31 130.148,277.538C125.45,279.253 122.591,278.874 121.191,284.509C120.259,288.257 120.265,292.186 120.129,296.046C119.868,303.482 120,310.927 120,318.368L120,351L125.25,350.976C135.812,350.928 145.494,344.881 155,340.991C157.743,339.868 162.731,338.334 164.446,335.543C165.945,333.104 166.602,330.182 167.023,327.35C168.55,317.074 167.737,296.697 167.428,288.061L166.71,268L162.605,268.061C160.347,268.094 155.125,269.018 151,270.114"/>
    </g>
</svg>
