<svg version="1.1" width="400" height="400" xmlns="http://www.w3.org/2000/svg"><g><path d="M66.000 27.121 C 59.941 28.750,54.606 31.368,51.500 34.235 C 49.850 35.759,47.712 37.259,46.750 37.570 C 45.788 37.881,45.000 38.739,45.000 39.478 C 45.000 40.218,43.704 41.913,42.120 43.246 C 38.786 46.051,35.666 52.581,34.029 60.179 C 33.189 64.077,32.965 103.075,33.191 206.000 C 33.529 359.644,33.217 351.563,39.047 357.820 C 40.121 358.973,41.000 360.273,41.001 360.708 C 41.002 362.525,50.472 371.049,54.810 373.138 C 57.390 374.380,60.052 375.939,60.726 376.603 C 66.296 382.084,346.000 381.435,346.000 375.941 C 346.000 375.543,347.757 374.514,349.904 373.655 C 354.154 371.955,365.000 362.344,365.000 360.279 C 365.000 359.576,365.931 358.069,367.069 356.931 C 372.746 351.254,372.476 357.699,372.769 220.622 L 373.038 94.744 341.269 63.102 C 323.796 45.699,308.003 30.231,306.173 28.730 L 302.847 26.000 186.173 26.090 C 116.735 26.144,68.083 26.561,66.000 27.121 M290.000 81.000 L 290.000 110.000 318.500 110.000 L 347.000 110.000 346.956 221.250 C 346.915 327.451,346.594 340.969,344.094 341.802 C 343.492 342.003,343.000 342.764,343.000 343.494 C 343.000 345.258,337.471 349.844,334.423 350.609 C 333.090 350.943,332.000 351.618,332.000 352.108 C 332.000 352.626,277.877 353.000,203.000 353.000 C 117.667 353.000,74.000 352.661,74.000 352.000 C 74.000 351.450,73.286 351.000,72.413 351.000 C 69.393 351.000,62.336 344.978,60.914 341.187 C 59.093 336.331,58.282 76.783,60.061 68.210 C 61.533 61.112,67.345 55.151,74.500 53.396 C 78.275 52.470,105.281 52.149,184.750 52.085 L 290.000 52.000 290.000 81.000 M230.571 166.571 C 214.307 182.836,201.000 196.841,201.000 197.694 C 201.000 199.385,260.101 259.000,261.777 259.000 C 262.770 259.000,283.000 239.294,283.000 238.327 C 283.000 238.064,273.967 228.829,262.927 217.804 L 242.854 197.758 262.420 178.129 C 273.181 167.333,282.281 158.170,282.643 157.767 C 283.544 156.761,263.601 137.000,261.683 137.000 C 260.836 137.000,246.836 150.307,230.571 166.571 M130.250 184.527 C 118.218 196.733,117.765 194.897,137.750 214.910 C 146.963 224.136,155.544 232.830,156.820 234.231 L 159.140 236.778 140.070 255.930 C 127.549 268.504,121.000 275.797,121.000 277.164 C 121.000 279.189,138.774 298.025,140.642 297.979 C 141.114 297.967,155.421 284.017,172.435 266.978 L 203.370 235.998 172.935 205.521 C 156.196 188.759,141.825 175.067,141.000 175.094 C 140.175 175.122,135.338 179.366,130.250 184.527 " stroke="none" fill-rule="evenodd"></path></g></svg>