<svg version="1.1" width="400" height="400" xmlns="http://www.w3.org/2000/svg"><g><path d="M22.557 74.223 C 20.699 76.875,20.137 297.599,21.975 302.435 C 23.061 305.290,26.690 305.972,27.638 303.500 C 27.993 302.576,29.513 302.000,31.599 302.000 C 33.900 302.000,35.383 301.360,36.232 300.000 C 37.196 298.456,38.564 298.000,42.232 298.000 C 45.900 298.000,47.268 297.544,48.232 296.000 C 49.189 294.468,50.564 294.000,54.106 294.000 C 57.216 294.000,59.563 293.345,61.273 292.000 C 63.047 290.604,65.330 290.000,68.826 290.000 C 74.768 290.000,77.000 289.288,77.000 287.393 C 77.000 286.332,78.726 285.997,84.250 285.986 C 92.726 285.970,96.000 285.269,96.000 283.469 C 96.000 282.501,98.908 282.087,107.459 281.836 C 116.726 281.564,119.165 281.180,120.209 279.825 C 121.300 278.410,124.056 278.089,138.000 277.755 C 150.124 277.464,155.693 276.917,159.000 275.694 C 164.044 273.828,243.634 273.092,245.550 274.893 C 247.568 276.791,257.689 278.000,271.549 278.000 C 283.144 278.000,286.000 278.272,286.000 279.375 C 286.000 281.224,290.471 282.000,301.125 282.000 C 308.015 282.000,310.000 282.309,310.000 283.383 C 310.000 285.268,313.168 285.970,321.750 285.986 C 327.274 285.997,329.000 286.332,329.000 287.393 C 329.000 289.288,331.232 290.000,337.174 290.000 C 340.670 290.000,342.953 290.604,344.727 292.000 C 346.437 293.345,348.784 294.000,351.894 294.000 C 355.436 294.000,356.811 294.468,357.768 296.000 C 358.732 297.544,360.100 298.000,363.768 298.000 C 367.436 298.000,368.804 298.456,369.768 300.000 C 370.589 301.315,372.100 302.000,374.180 302.000 C 375.919 302.000,378.179 302.757,379.202 303.683 C 380.946 305.261,381.169 305.259,382.781 303.648 C 385.639 300.790,385.933 77.364,383.084 73.876 C 381.526 71.970,380.891 71.747,379.871 72.750 C 379.172 73.438,376.894 74.000,374.808 74.000 C 372.100 74.000,370.660 74.571,369.768 76.000 C 368.836 77.493,367.436 78.000,364.250 78.000 C 361.218 78.000,359.484 78.580,358.268 80.000 C 357.000 81.481,355.318 82.000,351.786 82.000 C 348.100 82.000,346.733 82.454,345.768 84.000 C 344.735 85.654,343.436 86.000,338.259 86.000 C 333.461 86.000,331.560 86.440,330.115 87.885 C 328.691 89.309,326.390 89.863,320.704 90.150 C 315.562 90.409,312.594 91.051,311.338 92.174 C 309.953 93.413,306.997 93.903,299.353 94.159 C 291.428 94.425,288.782 94.883,287.274 96.250 C 285.649 97.722,283.339 98.000,272.720 98.000 C 260.468 98.000,250.490 99.282,248.550 101.107 C 247.304 102.278,158.696 102.278,157.450 101.107 C 155.511 99.284,145.536 98.000,133.311 98.000 C 122.555 98.000,120.537 97.749,119.462 96.279 C 118.441 94.883,116.154 94.482,107.354 94.156 C 98.669 93.835,96.027 93.380,94.117 91.877 C 92.309 90.455,90.067 90.000,84.865 90.000 C 79.333 90.000,77.612 89.612,76.000 88.000 C 74.426 86.426,72.667 86.000,67.741 86.000 C 62.564 86.000,61.265 85.654,60.232 84.000 C 59.267 82.454,57.900 82.000,54.214 82.000 C 50.682 82.000,49.000 81.481,47.732 80.000 C 46.516 78.580,44.782 78.000,41.750 78.000 C 38.564 78.000,37.164 77.493,36.232 76.000 C 35.327 74.551,33.900 74.000,31.051 74.000 C 28.888 74.000,26.840 73.550,26.500 73.000 C 25.524 71.421,24.240 71.819,22.557 74.223 M209.000 128.992 C 209.000 130.900,209.724 132.435,211.000 133.232 C 212.345 134.072,213.000 135.564,213.000 137.786 C 213.000 145.343,232.188 150.475,236.232 144.000 C 238.059 141.074,243.261 141.352,246.455 144.545 C 249.625 147.716,249.883 152.799,247.000 155.268 C 241.046 160.366,246.473 177.957,254.009 177.989 C 255.427 177.995,257.062 178.870,257.768 180.000 C 258.565 181.276,260.100 182.000,262.008 182.000 C 264.998 182.000,265.000 182.004,265.000 188.000 C 265.000 193.996,264.998 194.000,262.008 194.000 C 260.100 194.000,258.565 194.724,257.768 196.000 C 257.081 197.100,255.438 198.000,254.116 198.000 C 246.511 198.000,241.003 215.597,247.000 220.732 C 249.883 223.201,249.625 228.284,246.455 231.455 C 243.261 234.648,238.059 234.926,236.232 232.000 C 232.251 225.626,213.000 231.537,213.000 239.134 C 213.000 240.466,212.100 242.326,211.000 243.268 C 209.900 244.210,209.000 246.110,209.000 247.490 C 209.000 249.891,208.740 250.000,203.000 250.000 C 197.004 250.000,197.000 249.998,197.000 247.008 C 197.000 245.100,196.276 243.565,195.000 242.768 C 193.870 242.062,192.995 240.427,192.989 239.009 C 192.957 231.405,175.031 226.135,170.460 232.386 C 168.357 235.261,162.981 234.890,159.737 231.646 C 156.356 228.265,155.991 223.111,159.000 221.232 C 162.341 219.145,161.800 202.000,158.393 202.000 C 157.627 202.000,157.000 201.373,157.000 200.607 C 157.000 199.030,154.882 198.000,151.640 198.000 C 150.433 198.000,148.674 197.100,147.732 196.000 C 146.790 194.900,144.890 194.000,143.510 194.000 C 141.109 194.000,141.000 193.740,141.000 188.000 C 141.000 182.321,141.129 182.000,143.418 182.000 C 146.870 182.000,149.000 181.005,149.000 179.393 C 149.000 178.464,150.182 178.000,152.545 178.000 C 160.374 178.000,165.297 160.660,159.000 155.268 C 156.117 152.799,156.375 147.716,159.545 144.545 C 162.791 141.300,167.941 141.074,169.827 144.094 C 171.031 146.022,171.879 146.161,180.519 145.844 C 191.102 145.456,191.927 144.985,192.736 138.871 C 193.080 136.277,194.064 133.969,195.157 133.193 C 196.234 132.430,197.000 130.663,197.000 128.943 C 197.000 126.013,197.026 126.000,203.000 126.000 C 208.996 126.000,209.000 126.002,209.000 128.992 M194.250 166.662 C 193.563 166.940,193.000 167.804,193.000 168.583 C 193.000 169.468,191.949 170.000,190.200 170.000 C 186.877 170.000,185.000 171.616,185.000 174.478 C 185.000 175.621,184.058 177.362,182.906 178.349 C 180.204 180.662,180.329 198.288,183.062 200.332 C 183.921 200.974,184.936 202.330,185.317 203.345 C 185.698 204.360,186.908 205.425,188.005 205.712 C 189.102 205.999,190.000 206.803,190.000 207.500 C 190.000 209.377,193.399 209.971,204.228 209.986 L 213.957 210.000 219.564 204.393 L 225.171 198.785 224.836 187.810 C 224.576 179.310,224.148 176.572,222.938 175.668 C 222.079 175.025,221.077 173.702,220.711 172.727 C 220.345 171.752,219.248 170.663,218.273 170.307 C 217.298 169.951,215.427 168.836,214.115 167.830 C 211.798 166.052,197.801 165.230,194.250 166.662 " stroke="none" fill-rule="evenodd"></path></g></svg>