<svg version="1.1" width="400" height="400" xmlns="http://www.w3.org/2000/svg">
<g>
<path d="M199.750 14.689 C 198.787 14.941,198.000 15.551,198.000 16.045 C 198.000 16.540,195.196 18.335,191.770 20.035 C 188.343 21.735,185.306 23.490,185.020 23.934 C 184.734 24.379,181.575 26.208,178.000 28.000 C 174.425 29.792,171.275 31.588,171.000 31.992 C 170.725 32.396,167.575 34.233,164.000 36.074 C 160.425 37.915,156.978 39.929,156.340 40.550 C 155.702 41.170,152.552 42.963,149.340 44.534 C 146.128 46.105,143.050 47.753,142.500 48.196 C 141.950 48.638,140.381 49.856,139.014 50.901 L 136.528 52.801 139.014 55.206 C 140.381 56.528,144.200 58.934,147.500 60.552 C 150.800 62.170,154.080 64.043,154.788 64.713 C 155.496 65.384,158.417 67.109,161.278 68.546 C 164.139 69.983,166.709 71.496,166.990 71.909 C 167.270 72.322,170.128 73.934,173.340 75.491 C 176.552 77.048,179.702 78.830,180.340 79.450 C 180.978 80.071,184.425 82.085,188.000 83.926 C 191.575 85.767,194.725 87.604,195.000 88.008 C 195.275 88.412,198.425 90.208,202.000 92.000 C 205.575 93.792,208.734 95.621,209.020 96.066 C 209.306 96.510,212.303 98.245,215.681 99.921 C 219.059 101.596,221.975 103.312,222.161 103.734 C 222.348 104.155,225.762 106.069,229.750 107.987 C 233.738 109.905,237.000 111.780,237.000 112.154 C 237.000 112.527,240.037 114.303,243.750 116.099 C 247.463 117.895,250.646 119.721,250.825 120.157 C 251.003 120.592,254.153 122.413,257.825 124.203 C 261.496 125.993,265.080 128.015,265.788 128.695 C 266.496 129.376,269.417 131.109,272.278 132.546 C 275.139 133.983,277.709 135.460,277.990 135.829 C 281.014 139.806,293.000 139.920,293.000 135.972 C 293.000 135.526,296.150 133.676,300.000 131.860 C 303.850 130.044,307.000 128.236,307.000 127.842 C 307.000 127.448,310.038 125.644,313.750 123.834 C 317.462 122.023,321.147 119.918,321.937 119.155 C 322.728 118.392,325.231 116.973,327.500 116.000 C 329.769 115.027,332.272 113.590,333.063 112.805 C 333.853 112.020,337.069 110.124,340.209 108.592 C 349.649 103.984,353.073 99.110,348.000 97.500 C 346.900 97.151,346.000 96.483,346.000 96.016 C 346.000 95.549,342.962 93.697,339.250 91.901 C 335.538 90.105,332.354 88.279,332.175 87.843 C 331.997 87.408,328.847 85.586,325.175 83.794 C 321.504 82.003,318.348 80.184,318.161 79.752 C 317.975 79.321,315.059 77.596,311.681 75.921 C 308.303 74.245,305.306 72.529,305.020 72.107 C 304.734 71.685,301.872 70.066,298.660 68.509 C 295.448 66.952,292.264 65.121,291.583 64.441 C 290.903 63.760,287.456 61.750,283.923 59.973 C 280.390 58.196,277.275 56.425,277.000 56.038 C 276.725 55.650,273.575 53.807,270.000 51.940 C 266.425 50.074,263.266 48.228,262.980 47.837 C 262.694 47.446,259.697 45.755,256.319 44.079 C 252.941 42.404,250.025 40.688,249.839 40.266 C 249.652 39.845,246.463 38.018,242.750 36.207 C 239.037 34.396,236.000 32.592,236.000 32.197 C 236.000 31.802,232.625 29.913,228.500 28.000 C 224.375 26.087,221.000 24.198,221.000 23.803 C 221.000 23.408,217.963 21.604,214.250 19.793 C 210.537 17.982,207.140 15.938,206.700 15.250 C 205.912 14.017,203.169 13.796,199.750 14.689 M116.300 63.325 C 115.860 64.054,112.463 66.117,108.750 67.909 C 105.037 69.701,102.000 71.473,102.000 71.846 C 102.000 72.220,98.737 74.094,94.750 76.010 C 90.763 77.925,87.050 80.011,86.500 80.645 C 85.950 81.279,82.912 83.041,79.750 84.561 C 76.588 86.081,74.000 87.654,74.000 88.058 C 74.000 88.461,71.006 90.235,67.346 92.000 C 63.686 93.765,59.776 96.062,58.657 97.105 C 57.538 98.147,56.258 99.000,55.811 99.000 C 54.110 99.000,55.093 101.895,57.000 102.500 C 58.100 102.849,59.000 103.535,59.000 104.025 C 59.000 104.514,62.038 106.396,65.750 108.207 C 69.463 110.018,72.652 111.845,72.839 112.266 C 73.025 112.688,75.941 114.404,79.319 116.079 C 82.697 117.755,85.694 119.436,85.980 119.813 C 86.742 120.820,94.063 124.936,97.250 126.149 C 98.763 126.725,100.000 127.525,100.000 127.927 C 100.000 128.329,103.037 130.170,106.750 132.018 C 110.463 133.866,113.730 135.707,114.010 136.110 C 114.291 136.512,116.861 138.017,119.722 139.454 C 122.583 140.891,125.504 142.624,126.212 143.305 C 126.920 143.985,130.504 146.007,134.175 147.797 C 137.847 149.587,140.997 151.408,141.175 151.843 C 141.354 152.279,144.537 154.105,148.250 155.901 C 151.963 157.697,155.000 159.473,155.000 159.846 C 155.000 160.220,158.262 162.095,162.250 164.013 C 166.238 165.931,169.652 167.845,169.839 168.266 C 170.025 168.688,172.941 170.404,176.319 172.079 C 179.697 173.755,182.694 175.490,182.980 175.934 C 183.266 176.379,186.425 178.208,190.000 180.000 C 193.575 181.792,196.725 183.583,197.000 183.979 C 199.177 187.120,210.000 187.064,210.000 183.913 C 210.000 183.491,212.439 181.991,215.420 180.581 C 218.401 179.171,221.439 177.423,222.170 176.698 C 222.902 175.972,226.128 174.096,229.340 172.528 C 232.552 170.960,235.726 169.131,236.393 168.464 C 237.061 167.797,240.594 165.810,244.246 164.049 C 247.897 162.288,251.023 160.508,251.192 160.093 C 251.361 159.679,254.280 157.937,257.678 156.222 C 268.601 150.709,270.436 147.959,264.500 146.000 C 262.575 145.365,261.000 144.449,261.000 143.965 C 261.000 143.481,257.962 141.604,254.250 139.793 C 250.537 137.982,247.348 136.155,247.161 135.734 C 246.975 135.312,244.059 133.596,240.681 131.921 C 237.303 130.245,234.306 128.564,234.020 128.187 C 233.258 127.180,225.937 123.064,222.750 121.851 C 221.238 121.275,220.000 120.475,220.000 120.073 C 220.000 119.671,216.963 117.822,213.250 115.966 C 209.537 114.109,205.853 111.955,205.063 111.179 C 204.272 110.403,201.769 108.973,199.500 108.000 C 197.231 107.027,194.728 105.608,193.937 104.845 C 193.147 104.082,189.463 101.977,185.750 100.166 C 182.037 98.356,179.000 96.552,179.000 96.158 C 179.000 95.764,175.850 93.956,172.000 92.140 C 168.150 90.324,165.000 88.532,165.000 88.156 C 165.000 87.781,161.738 85.905,157.750 83.987 C 153.762 82.069,150.345 80.148,150.156 79.717 C 149.966 79.286,147.041 77.540,143.656 75.838 C 140.270 74.135,137.275 72.408,137.000 72.000 C 136.725 71.592,133.575 69.794,130.000 68.004 C 126.425 66.215,123.140 64.132,122.700 63.375 C 121.680 61.620,117.349 61.587,116.300 63.325 M47.000 200.500 C 47.000 246.975,47.365 285.000,47.811 285.000 C 48.258 285.000,49.495 285.803,50.561 286.784 C 51.628 287.765,54.379 289.541,56.677 290.730 C 63.016 294.011,65.448 295.431,66.020 296.187 C 66.306 296.564,69.303 298.245,72.681 299.921 C 76.059 301.596,78.975 303.312,79.161 303.734 C 79.348 304.155,82.538 305.982,86.250 307.793 C 89.963 309.604,93.000 311.408,93.000 311.803 C 93.000 312.198,96.375 314.087,100.500 316.000 C 104.625 317.913,108.000 319.793,108.000 320.177 C 108.000 320.561,111.037 322.357,114.750 324.169 C 118.462 325.981,121.652 327.816,121.839 328.248 C 122.025 328.679,124.941 330.404,128.319 332.079 C 131.697 333.755,134.694 335.471,134.980 335.893 C 135.266 336.315,138.128 337.934,141.340 339.491 C 144.552 341.048,147.736 342.879,148.417 343.559 C 149.097 344.240,152.544 346.250,156.077 348.027 C 159.610 349.804,162.725 351.575,163.000 351.962 C 163.275 352.350,166.425 354.193,170.000 356.060 C 173.575 357.926,176.734 359.772,177.020 360.163 C 177.306 360.554,180.303 362.245,183.681 363.921 C 187.059 365.596,189.975 367.365,190.161 367.852 C 190.348 368.338,191.512 369.050,192.750 369.435 L 195.000 370.135 195.000 284.807 L 195.000 199.479 187.500 196.000 C 183.375 194.087,180.000 192.198,180.000 191.803 C 180.000 191.408,176.963 189.604,173.250 187.793 C 169.537 185.982,166.348 184.155,166.161 183.734 C 165.975 183.312,163.059 181.596,159.681 179.921 C 156.303 178.245,153.306 176.510,153.020 176.066 C 152.734 175.621,149.575 173.792,146.000 172.000 C 142.425 170.208,139.275 168.408,139.000 168.000 C 138.725 167.592,135.610 165.804,132.077 164.027 C 128.544 162.250,125.097 160.240,124.417 159.559 C 123.736 158.879,120.552 157.048,117.340 155.491 C 114.128 153.934,111.266 152.315,110.980 151.893 C 110.694 151.471,107.697 149.755,104.319 148.079 C 100.941 146.404,98.025 144.679,97.839 144.248 C 97.652 143.816,94.496 141.997,90.825 140.206 C 87.153 138.414,84.003 136.592,83.825 136.157 C 83.646 135.721,80.463 133.895,76.750 132.099 C 73.037 130.303,70.000 128.527,70.000 128.154 C 70.000 127.780,66.737 125.905,62.750 123.987 C 58.763 122.069,55.347 120.153,55.160 119.729 C 54.734 118.764,49.463 116.000,48.050 116.000 C 47.325 116.000,47.000 142.168,47.000 200.500 M354.000 117.814 C 352.075 118.741,350.348 119.845,350.161 120.266 C 349.975 120.688,347.059 122.404,343.681 124.079 C 340.303 125.755,337.306 127.446,337.020 127.837 C 336.734 128.228,333.575 130.074,330.000 131.940 C 326.425 133.807,323.275 135.650,323.000 136.038 C 322.725 136.425,319.575 138.208,316.000 140.000 C 312.425 141.792,309.275 143.575,309.000 143.962 C 308.725 144.350,305.575 146.193,302.000 148.060 C 298.425 149.926,295.266 151.772,294.980 152.163 C 294.694 152.554,291.697 154.245,288.319 155.921 C 284.941 157.596,282.025 159.312,281.839 159.734 C 281.652 160.155,278.462 161.982,274.750 163.793 C 271.038 165.604,268.000 167.408,268.000 167.803 C 268.000 168.198,264.625 170.087,260.500 172.000 C 256.375 173.913,253.000 175.793,253.000 176.177 C 253.000 176.561,249.963 178.357,246.250 180.169 C 242.537 181.981,239.348 183.816,239.161 184.248 C 238.975 184.679,236.059 186.404,232.681 188.079 C 229.303 189.755,226.306 191.471,226.020 191.893 C 225.734 192.315,222.872 193.934,219.660 195.491 C 216.448 197.048,213.186 198.957,212.410 199.733 C 210.258 201.885,210.298 370.000,212.450 370.000 C 213.248 370.000,214.260 369.423,214.700 368.717 C 215.140 368.011,218.537 365.958,222.250 364.154 C 225.963 362.351,229.000 360.561,229.000 360.177 C 229.000 359.793,232.375 357.913,236.500 356.000 C 240.625 354.087,244.000 352.198,244.000 351.803 C 244.000 351.408,247.038 349.604,250.750 347.793 C 254.463 345.982,257.652 344.155,257.839 343.734 C 258.025 343.312,260.941 341.596,264.319 339.921 C 267.697 338.245,270.694 336.554,270.980 336.163 C 271.266 335.772,274.425 333.926,278.000 332.060 C 281.575 330.193,284.725 328.350,285.000 327.962 C 285.275 327.575,288.425 325.792,292.000 324.000 C 295.575 322.208,298.725 320.425,299.000 320.038 C 299.275 319.650,302.425 317.807,306.000 315.940 C 309.575 314.074,312.734 312.228,313.020 311.837 C 313.306 311.446,316.303 309.755,319.681 308.079 C 323.059 306.404,325.975 304.688,326.161 304.266 C 326.348 303.845,329.762 301.931,333.750 300.013 C 337.738 298.095,341.000 296.220,341.000 295.846 C 341.000 295.473,343.961 293.724,347.581 291.961 C 351.200 290.197,355.250 287.746,356.581 286.513 L 359.000 284.271 359.000 200.135 C 359.000 153.861,358.663 116.029,358.250 116.064 C 357.837 116.099,355.925 116.887,354.000 117.814 " stroke="none" fill-rule="evenodd"></path>
</g>
</svg>