<svg id="svg" version="1.1" width="400" height="400" xmlns="http://www.w3.org/2000/svg" xmlns:xlink="http://www.w3.org/1999/xlink" style="display: block;"><g id="svgg"><path id="path0" d="M46.266 2.241 C 41.653 5.465,41.903 -6.905,42.214 202.566 L 42.500 394.632 45.396 397.316 L 48.292 400.000 199.990 400.000 L 351.689 400.000 354.594 397.503 L 357.500 395.007 357.500 200.253 L 357.500 5.500 355.000 3.000 L 352.500 0.500 200.999 0.241 L 49.499 -0.019 46.266 2.241 M68.886 13.879 C 70.719 15.288,71.273 16.671,71.273 19.836 C 71.273 30.547,56.917 30.626,56.637 19.917 C 56.458 13.118,63.428 9.683,68.886 13.879 M339.087 13.282 C 343.612 16.756,343.983 21.171,340.077 25.077 C 336.445 28.709,333.074 28.801,329.636 25.364 C 323.100 18.827,331.808 7.694,339.087 13.282 M215.000 42.499 C 226.862 44.001,232.808 45.427,241.587 48.872 C 250.746 52.466,261.632 57.852,262.952 59.442 C 263.663 60.299,264.618 61.000,265.075 61.000 C 266.539 61.000,278.880 70.033,280.868 72.559 C 281.924 73.902,283.121 75.000,283.529 75.000 C 284.303 75.000,289.000 79.768,289.000 80.554 C 289.000 80.802,290.506 82.466,292.347 84.252 C 295.306 87.124,300.622 94.096,303.500 98.879 C 308.287 106.836,310.136 110.378,312.433 116.000 C 313.894 119.575,315.525 123.400,316.056 124.500 C 325.568 144.179,324.909 184.097,314.618 211.680 C 312.939 216.178,303.184 235.175,302.128 236.000 C 301.776 236.275,299.490 239.200,297.048 242.500 C 290.239 251.701,269.500 271.000,266.421 271.000 C 266.001 271.000,264.947 271.635,264.079 272.411 C 262.015 274.255,246.991 282.000,245.478 282.000 C 244.834 282.000,242.920 282.692,241.223 283.538 C 229.874 289.200,198.355 292.819,184.210 290.083 C 177.725 288.830,177.629 289.947,185.505 275.000 C 200.640 246.273,185.485 219.566,156.640 224.134 C 147.079 225.648,146.383 226.144,127.688 244.750 L 114.877 257.500 110.326 252.500 C 101.124 242.391,100.000 241.034,100.000 240.027 C 100.000 239.462,99.626 239.000,99.169 239.000 C 98.712 239.000,97.719 237.762,96.962 236.250 C 96.205 234.738,95.061 232.825,94.419 232.000 C 93.393 230.681,87.886 220.136,84.496 213.000 C 70.261 183.031,73.890 133.338,92.493 103.500 C 93.864 101.300,95.298 98.825,95.678 98.000 C 96.885 95.383,106.700 83.600,112.813 77.430 C 139.852 50.138,176.476 37.618,215.000 42.499 M185.000 107.700 C 184.175 107.999,182.150 108.802,180.500 109.486 C 178.850 110.169,175.475 111.565,173.000 112.587 C 170.525 113.609,168.275 114.685,168.000 114.978 C 167.725 115.271,165.700 116.824,163.500 118.427 C 157.878 122.526,154.060 126.283,154.028 127.750 C 154.013 128.438,153.626 129.000,153.168 129.000 C 152.212 129.000,147.001 137.059,145.086 141.500 C 140.572 151.969,138.739 168.495,141.093 177.500 C 141.669 179.700,142.374 182.625,142.661 184.000 C 142.948 185.375,143.816 187.918,144.591 189.651 C 145.366 191.384,146.000 193.049,146.000 193.351 C 146.000 198.378,169.403 220.982,174.623 220.997 C 175.240 220.999,177.715 221.860,180.123 222.911 C 188.714 226.661,212.375 226.490,219.853 222.623 C 221.309 221.870,224.162 220.542,226.193 219.671 C 233.735 216.436,250.000 201.254,250.000 197.447 C 250.000 197.096,250.819 195.614,251.821 194.154 C 260.330 181.752,260.291 150.776,251.749 137.740 C 250.787 136.272,250.000 134.644,250.000 134.123 C 250.000 131.425,232.949 115.921,226.846 113.071 C 215.060 107.565,193.148 104.753,185.000 107.700 M218.622 123.984 C 227.455 128.618,236.000 135.496,236.000 137.972 C 236.000 138.420,236.675 139.045,237.500 139.362 C 238.325 139.678,239.000 140.444,239.000 141.064 C 239.000 141.684,239.811 143.386,240.802 144.846 C 247.598 154.853,247.607 177.251,240.819 187.154 C 239.819 188.614,239.000 190.212,239.000 190.705 C 239.000 192.845,228.333 203.295,222.895 206.482 C 201.602 218.962,171.247 211.007,160.727 190.190 C 159.980 188.711,158.889 186.600,158.305 185.500 C 151.481 172.664,154.646 142.816,163.217 139.167 C 163.648 138.983,164.000 138.456,164.000 137.996 C 164.000 137.008,170.895 130.039,173.613 128.278 C 187.823 119.075,205.965 117.344,218.622 123.984 M195.750 128.572 C 190.712 131.305,192.314 139.205,198.341 141.352 C 205.519 143.907,210.809 132.021,204.050 128.526 C 200.438 126.658,199.266 126.665,195.750 128.572 M173.250 137.632 C 170.303 139.743,169.929 148.652,172.742 149.731 C 178.838 152.070,185.000 148.972,185.000 143.567 C 185.000 137.996,177.811 134.364,173.250 137.632 M220.000 136.735 C 211.991 139.819,214.342 150.588,222.974 150.362 C 228.235 150.224,229.273 149.163,229.273 143.921 C 229.273 138.066,225.047 134.792,220.000 136.735 M191.368 149.295 C 177.167 156.873,177.535 176.350,192.020 183.750 C 206.278 191.034,221.138 178.743,218.593 161.771 C 216.869 150.276,202.161 143.536,191.368 149.295 M164.500 160.195 C 155.833 165.110,163.617 176.754,172.420 172.043 C 176.423 169.901,176.190 162.667,172.050 160.526 C 168.571 158.727,167.195 158.666,164.500 160.195 M227.750 160.572 C 223.571 162.839,223.727 169.817,228.012 172.348 C 233.014 175.303,239.012 172.158,238.985 166.595 C 238.953 160.173,233.688 157.350,227.750 160.572 M172.750 183.080 C 170.137 184.602,170.276 193.542,172.934 194.965 C 180.806 199.178,188.614 190.912,183.056 184.250 C 181.028 181.818,175.913 181.238,172.750 183.080 M216.750 184.470 C 213.047 189.562,216.101 196.000,222.219 196.000 C 227.345 196.000,229.273 194.087,229.273 189.000 C 229.273 181.978,220.793 178.910,216.750 184.470 M196.500 192.195 C 190.745 195.459,191.990 203.955,198.462 205.580 C 206.027 207.479,210.909 196.073,204.050 192.526 C 200.571 190.727,199.195 190.666,196.500 192.195 M169.865 238.531 C 176.208 241.996,179.000 246.526,179.000 253.356 C 179.000 258.187,164.196 290.958,152.735 311.500 C 149.607 317.104,129.033 358.619,129.018 359.356 C 129.008 359.826,127.856 361.626,126.458 363.356 C 125.059 365.085,123.147 367.492,122.208 368.704 C 121.268 369.916,119.938 370.928,119.250 370.954 C 118.563 370.979,118.000 371.403,118.000 371.895 C 118.000 377.493,93.739 381.034,85.000 376.712 C 79.100 373.794,71.088 367.819,71.039 366.300 C 71.018 365.640,70.431 364.740,69.736 364.300 C 65.928 361.890,63.500 353.792,63.520 343.570 C 63.548 328.912,64.471 327.569,97.485 294.165 C 112.343 279.131,130.552 260.681,137.948 253.165 C 155.610 235.218,160.061 233.177,169.865 238.531 M91.071 328.478 C 81.471 331.946,77.651 347.015,84.499 354.405 C 90.905 361.316,98.320 362.760,105.575 358.509 C 123.775 347.843,110.953 321.294,91.071 328.478 M338.020 370.510 C 345.250 374.249,343.766 383.515,335.610 385.562 C 327.968 387.480,324.155 373.660,331.364 370.170 C 334.275 368.760,334.675 368.781,338.020 370.510 " stroke="none" fill="#000000" fill-rule="evenodd"></path></g></svg>