<svg version="1.1" width="400" height="400" xmlns="http://www.w3.org/2000/svg"><g><path d="M39.533 3.533 L 36.000 7.067 36.000 17.871 C 36.000 23.813,35.703 41.573,35.339 57.337 L 34.678 86.000 56.839 86.000 L 79.000 86.000 79.000 64.500 L 79.000 43.000 106.000 43.000 L 133.000 43.000 133.000 64.500 L 133.000 86.000 154.533 86.000 L 176.065 86.000 175.783 45.404 L 175.500 4.809 172.500 2.409 L 169.500 0.010 106.283 0.005 L 43.067 -0.000 39.533 3.533 M189.000 67.031 C 189.000 86.186,189.156 88.112,190.750 88.610 C 207.470 93.837,224.034 108.627,233.205 126.519 C 241.985 143.648,249.275 181.919,247.503 201.576 C 247.259 204.284,246.823 210.694,246.536 215.819 L 246.012 225.138 280.316 224.819 L 314.621 224.500 319.382 226.944 C 327.628 231.177,329.000 234.798,329.000 252.338 L 329.000 267.000 259.000 267.000 L 189.000 267.000 189.000 288.500 L 189.000 310.000 273.132 310.000 C 363.502 310.000,364.000 309.972,364.000 304.918 C 364.000 304.413,364.511 304.000,365.135 304.000 C 365.760 304.000,367.447 302.762,368.885 301.250 L 371.500 298.500 371.500 263.500 C 371.500 229.260,371.450 228.370,369.176 222.500 C 359.485 197.486,338.210 183.843,306.500 182.308 C 293.088 181.659,293.034 181.628,293.023 174.500 C 292.996 156.848,282.196 121.229,271.495 103.500 C 270.167 101.300,268.336 98.037,267.426 96.250 C 266.517 94.463,265.373 93.000,264.886 93.000 C 264.399 93.000,264.000 92.311,264.000 91.469 C 264.000 90.626,263.325 89.678,262.500 89.362 C 261.675 89.045,261.000 88.327,261.000 87.766 C 261.000 86.226,242.001 68.000,240.396 68.000 C 239.628 68.000,239.000 67.594,239.000 67.099 C 239.000 66.603,237.313 65.165,235.250 63.903 C 228.343 59.676,224.704 57.729,220.000 55.746 C 218.075 54.934,214.925 53.533,213.000 52.632 C 208.836 50.685,193.241 46.051,190.750 46.021 C 189.138 46.002,189.000 47.660,189.000 67.031 M31.396 109.683 L 28.500 112.367 28.226 168.736 L 27.952 225.105 30.899 228.053 L 33.846 231.000 109.173 230.978 C 181.904 230.956,184.586 230.889,187.000 229.035 L 189.500 227.115 189.774 169.722 C 190.045 112.761,190.031 112.310,187.951 109.665 L 185.855 107.000 110.073 107.000 L 34.292 107.000 31.396 109.683 M169.450 123.862 C 168.068 125.117,123.206 159.966,118.491 163.447 C 116.296 165.068,114.214 166.812,113.864 167.322 C 112.637 169.111,108.346 168.225,105.512 165.599 C 103.939 164.141,101.155 162.023,99.326 160.892 C 97.497 159.762,96.000 158.424,96.000 157.918 C 96.000 157.413,95.325 157.000,94.500 157.000 C 93.675 157.000,93.000 156.536,93.000 155.969 C 93.000 155.401,92.247 154.648,91.326 154.295 C 90.406 153.942,88.878 152.943,87.931 152.076 C 83.985 148.463,80.780 146.000,80.022 146.000 C 79.578 146.000,78.955 145.325,78.638 144.500 C 78.322 143.675,77.374 143.000,76.531 143.000 C 75.689 143.000,75.000 142.625,75.000 142.166 C 75.000 141.708,72.525 139.628,69.500 137.544 C 66.475 135.461,64.000 133.361,64.000 132.878 C 64.000 132.395,63.373 132.000,62.607 132.000 C 61.841 132.000,60.955 131.325,60.638 130.500 C 60.322 129.675,59.374 129.000,58.531 129.000 C 57.689 129.000,57.000 128.594,57.000 128.098 C 57.000 127.602,55.538 126.260,53.750 125.115 L 50.500 123.034 110.450 123.017 C 144.106 123.007,169.983 123.378,169.450 123.862 M174.000 177.500 L 174.000 214.000 109.000 214.000 L 44.000 214.000 44.000 178.345 C 44.000 143.866,44.060 142.745,45.829 144.345 C 46.835 145.255,47.921 146.000,48.244 146.000 C 48.827 146.000,52.493 148.914,56.105 152.250 C 57.147 153.213,58.258 154.000,58.573 154.000 C 59.212 154.000,72.605 164.134,75.084 166.493 C 75.955 167.322,77.193 168.000,77.834 168.000 C 78.475 168.000,79.000 168.390,79.000 168.867 C 79.000 169.344,80.912 170.983,83.250 172.510 C 85.588 174.036,88.175 175.897,89.000 176.644 C 91.191 178.630,100.065 185.263,103.215 187.270 C 106.554 189.398,112.323 189.521,114.000 187.500 C 114.685 186.675,115.865 186.000,116.622 186.000 C 117.380 186.000,118.010 185.662,118.022 185.250 C 118.033 184.838,120.508 182.734,123.522 180.575 C 126.535 178.416,129.000 176.279,129.000 175.825 C 129.000 175.371,129.675 175.000,130.500 175.000 C 131.325 175.000,132.000 174.625,132.000 174.166 C 132.000 173.708,134.475 171.628,137.500 169.544 C 140.525 167.461,143.000 165.361,143.000 164.878 C 143.000 164.395,143.627 164.000,144.393 164.000 C 145.159 164.000,146.045 163.325,146.362 162.500 C 146.678 161.675,147.626 161.000,148.469 161.000 C 149.311 161.000,150.000 160.625,150.000 160.166 C 150.000 159.708,152.475 157.628,155.500 155.544 C 158.525 153.461,161.000 151.361,161.000 150.878 C 161.000 150.395,161.637 150.000,162.417 150.000 C 163.196 150.000,163.983 149.584,164.167 149.076 C 164.440 148.317,172.911 141.224,173.750 141.051 C 173.887 141.023,174.000 157.425,174.000 177.500 M35.199 274.752 L 35.500 298.504 39.750 302.752 C 42.087 305.088,44.395 307.000,44.878 307.000 C 45.360 307.000,46.315 307.675,47.000 308.500 C 48.064 309.782,53.451 310.000,84.122 310.000 L 120.000 310.000 120.000 288.500 L 120.000 267.000 99.500 267.000 L 79.000 267.000 79.000 259.000 L 79.000 251.000 56.949 251.000 L 34.899 251.000 35.199 274.752 M134.000 286.500 L 134.000 322.000 117.000 322.000 C 103.000 322.000,100.000 322.250,100.000 323.417 C 100.000 324.196,100.356 324.983,100.790 325.167 C 101.225 325.350,103.137 327.730,105.040 330.455 C 106.943 333.181,109.033 336.106,109.685 336.955 C 115.343 344.332,118.000 348.157,118.000 348.925 C 118.000 349.425,118.356 349.983,118.790 350.167 C 119.225 350.350,121.137 352.750,123.040 355.500 C 124.943 358.250,126.976 360.950,127.557 361.500 C 128.457 362.351,130.798 365.684,135.500 372.809 C 136.050 373.643,137.092 375.039,137.815 375.912 C 141.403 380.243,146.000 386.999,146.000 387.940 C 146.000 388.523,146.375 389.000,146.834 389.000 C 147.292 389.000,149.372 391.475,151.456 394.500 C 153.539 397.525,155.475 400.000,155.757 400.000 C 156.405 400.000,161.000 395.076,161.000 394.382 C 161.000 393.621,166.376 386.555,167.250 386.167 C 167.662 385.983,168.000 385.422,168.000 384.919 C 168.000 383.732,176.899 371.602,178.089 371.167 C 178.590 370.983,179.000 370.391,179.000 369.850 C 179.000 368.748,184.084 361.685,185.250 361.167 C 185.662 360.983,186.000 360.379,186.000 359.824 C 186.000 359.269,187.587 356.719,189.528 354.157 C 191.468 351.596,195.137 346.575,197.682 343.000 C 200.227 339.425,204.265 333.912,206.655 330.749 C 213.429 321.783,213.756 322.000,193.500 322.000 L 176.000 322.000 176.000 286.500 L 176.000 251.000 155.000 251.000 L 134.000 251.000 134.000 286.500 " stroke="none" fill-rule="evenodd"></path></g></svg>