<svg version="1.1" width="400" height="400" xmlns="http://www.w3.org/2000/svg">
<g>
<path d="M165.000 3.500 C 165.000 4.633,163.778 5.000,160.000 5.000 C 156.222 5.000,155.000 5.367,155.000 6.500 C 155.000 7.548,153.944 8.000,151.500 8.000 C 148.667 8.000,148.000 8.381,148.000 10.000 C 148.000 11.111,147.333 12.000,146.500 12.000 C 145.675 12.000,145.000 12.675,145.000 13.500 C 145.000 14.548,143.944 15.000,141.500 15.000 C 139.056 15.000,138.000 15.452,138.000 16.500 C 138.000 17.325,137.325 18.000,136.500 18.000 C 135.667 18.000,135.000 18.889,135.000 20.000 C 135.000 21.111,134.333 22.000,133.500 22.000 C 132.675 22.000,132.000 22.675,132.000 23.500 C 132.000 24.333,131.111 25.000,130.000 25.000 C 128.889 25.000,128.000 25.667,128.000 26.500 C 128.000 27.325,127.325 28.000,126.500 28.000 C 125.267 28.000,125.000 29.778,125.000 38.000 C 125.000 46.222,125.267 48.000,126.500 48.000 C 127.333 48.000,128.000 48.889,128.000 50.000 C 128.000 51.333,128.667 52.000,130.000 52.000 C 131.111 52.000,132.000 52.667,132.000 53.500 C 132.000 54.733,133.778 55.000,142.000 55.000 C 150.222 55.000,152.000 54.733,152.000 53.500 C 152.000 52.675,152.675 52.000,153.500 52.000 C 154.333 52.000,155.000 51.111,155.000 50.000 C 155.000 48.381,155.667 48.000,158.500 48.000 C 160.944 48.000,162.000 47.548,162.000 46.500 C 162.000 45.675,162.675 45.000,163.500 45.000 C 164.325 45.000,165.000 44.325,165.000 43.500 C 165.000 42.452,166.056 42.000,168.500 42.000 C 171.333 42.000,172.000 41.619,172.000 40.000 C 172.000 38.267,172.667 38.000,177.000 38.000 C 180.778 38.000,182.000 37.633,182.000 36.500 C 182.000 35.267,183.778 35.000,192.000 35.000 C 200.222 35.000,202.000 35.267,202.000 36.500 C 202.000 37.633,203.222 38.000,207.000 38.000 C 211.333 38.000,212.000 38.267,212.000 40.000 C 212.000 41.556,212.667 42.000,215.000 42.000 C 217.000 42.000,218.000 42.500,218.000 43.500 C 218.000 44.548,219.056 45.000,221.500 45.000 C 223.944 45.000,225.000 45.452,225.000 46.500 C 225.000 47.325,225.675 48.000,226.500 48.000 C 227.333 48.000,228.000 48.889,228.000 50.000 C 228.000 51.333,228.667 52.000,230.000 52.000 C 231.111 52.000,232.000 52.667,232.000 53.500 C 232.000 54.325,232.675 55.000,233.500 55.000 C 234.325 55.000,235.000 55.675,235.000 56.500 C 235.000 57.325,235.675 58.000,236.500 58.000 C 237.548 58.000,238.000 59.056,238.000 61.500 C 238.000 64.333,238.381 65.000,240.000 65.000 C 241.619 65.000,242.000 65.667,242.000 68.500 C 242.000 70.944,242.452 72.000,243.500 72.000 C 244.773 72.000,245.000 74.500,245.000 88.500 C 245.000 102.500,244.773 105.000,243.500 105.000 C 242.367 105.000,242.000 106.222,242.000 110.000 C 242.000 114.333,241.733 115.000,240.000 115.000 C 238.889 115.000,238.000 115.667,238.000 116.500 C 238.000 117.325,237.325 118.000,236.500 118.000 C 235.452 118.000,235.000 119.056,235.000 121.500 C 235.000 123.944,234.548 125.000,233.500 125.000 C 232.675 125.000,232.000 125.675,232.000 126.500 C 232.000 127.333,231.111 128.000,230.000 128.000 C 228.667 128.000,228.000 128.667,228.000 130.000 C 228.000 131.556,227.333 132.000,225.000 132.000 C 223.000 132.000,222.000 132.500,222.000 133.500 C 222.000 134.333,221.111 135.000,220.000 135.000 C 218.889 135.000,218.000 135.667,218.000 136.500 C 218.000 137.500,217.000 138.000,215.000 138.000 C 212.667 138.000,212.000 138.444,212.000 140.000 C 212.000 141.843,211.333 142.000,203.500 142.000 C 196.611 142.000,195.000 142.284,195.000 143.500 C 195.000 144.548,193.944 145.000,191.500 145.000 C 189.056 145.000,188.000 144.548,188.000 143.500 C 188.000 142.321,186.611 142.000,181.500 142.000 C 175.667 142.000,175.000 141.795,175.000 140.000 C 175.000 138.381,174.333 138.000,171.500 138.000 C 169.056 138.000,168.000 137.548,168.000 136.500 C 168.000 135.500,167.000 135.000,165.000 135.000 C 163.000 135.000,162.000 134.500,162.000 133.500 C 162.000 132.667,161.111 132.000,160.000 132.000 C 158.667 132.000,158.000 131.333,158.000 130.000 C 158.000 128.889,157.333 128.000,156.500 128.000 C 155.675 128.000,155.000 127.325,155.000 126.500 C 155.000 125.452,153.944 125.000,151.500 125.000 C 149.056 125.000,148.000 124.548,148.000 123.500 C 148.000 122.321,146.611 122.000,141.500 122.000 C 136.389 122.000,135.000 122.321,135.000 123.500 C 135.000 124.548,133.944 125.000,131.500 125.000 C 129.056 125.000,128.000 125.452,128.000 126.500 C 128.000 127.325,127.325 128.000,126.500 128.000 C 125.250 128.000,125.000 130.000,125.000 140.000 C 125.000 150.000,125.250 152.000,126.500 152.000 C 127.325 152.000,128.000 152.675,128.000 153.500 C 128.000 154.333,128.889 155.000,130.000 155.000 C 131.111 155.000,132.000 155.667,132.000 156.500 C 132.000 157.325,132.675 158.000,133.500 158.000 C 134.333 158.000,135.000 158.889,135.000 160.000 C 135.000 161.619,135.667 162.000,138.500 162.000 C 140.944 162.000,142.000 162.452,142.000 163.500 C 142.000 164.325,142.675 165.000,143.500 165.000 C 144.325 165.000,145.000 165.675,145.000 166.500 C 145.000 167.548,146.056 168.000,148.500 168.000 C 151.333 168.000,152.000 168.381,152.000 170.000 C 152.000 171.556,152.667 172.000,155.000 172.000 C 157.000 172.000,158.000 172.500,158.000 173.500 C 158.000 174.633,159.222 175.000,163.000 175.000 C 166.778 175.000,168.000 175.367,168.000 176.500 C 168.000 177.791,171.278 178.000,191.500 178.000 C 211.722 178.000,215.000 177.791,215.000 176.500 C 215.000 175.367,216.222 175.000,220.000 175.000 C 223.778 175.000,225.000 174.633,225.000 173.500 C 225.000 172.367,226.222 172.000,230.000 172.000 C 234.333 172.000,235.000 171.733,235.000 170.000 C 235.000 168.889,235.667 168.000,236.500 168.000 C 237.325 168.000,238.000 167.325,238.000 166.500 C 238.000 165.452,239.056 165.000,241.500 165.000 C 243.944 165.000,245.000 164.548,245.000 163.500 C 245.000 162.675,245.675 162.000,246.500 162.000 C 247.333 162.000,248.000 161.111,248.000 160.000 C 248.000 158.667,248.667 158.000,250.000 158.000 C 251.111 158.000,252.000 157.333,252.000 156.500 C 252.000 155.675,252.675 155.000,253.500 155.000 C 254.325 155.000,255.000 154.325,255.000 153.500 C 255.000 152.675,255.675 152.000,256.500 152.000 C 257.333 152.000,258.000 151.111,258.000 150.000 C 258.000 148.667,258.667 148.000,260.000 148.000 C 261.111 148.000,262.000 147.333,262.000 146.500 C 262.000 145.675,262.675 145.000,263.500 145.000 C 264.325 145.000,265.000 144.325,265.000 143.500 C 265.000 142.675,265.675 142.000,266.500 142.000 C 267.548 142.000,268.000 140.944,268.000 138.500 C 268.000 135.667,268.381 135.000,270.000 135.000 C 271.619 135.000,272.000 134.333,272.000 131.500 C 272.000 129.056,272.452 128.000,273.500 128.000 C 274.500 128.000,275.000 127.000,275.000 125.000 C 275.000 123.000,275.500 122.000,276.500 122.000 C 277.633 122.000,278.000 120.778,278.000 117.000 C 278.000 112.667,278.267 112.000,280.000 112.000 C 281.619 112.000,282.000 111.333,282.000 108.500 L 282.000 105.000 292.000 105.000 C 300.222 105.000,302.000 105.267,302.000 106.500 C 302.000 107.679,303.389 108.000,308.500 108.000 C 314.333 108.000,315.000 108.205,315.000 110.000 C 315.000 111.619,315.667 112.000,318.500 112.000 C 320.944 112.000,322.000 112.452,322.000 113.500 C 322.000 114.500,323.000 115.000,325.000 115.000 C 327.000 115.000,328.000 115.500,328.000 116.500 C 328.000 117.333,328.889 118.000,330.000 118.000 C 331.333 118.000,332.000 118.667,332.000 120.000 C 332.000 121.111,332.667 122.000,333.500 122.000 C 334.325 122.000,335.000 122.675,335.000 123.500 C 335.000 124.325,335.675 125.000,336.500 125.000 C 337.548 125.000,338.000 126.056,338.000 128.500 C 338.000 131.333,338.381 132.000,340.000 132.000 C 341.111 132.000,342.000 132.667,342.000 133.500 C 342.000 134.325,342.675 135.000,343.500 135.000 C 344.633 135.000,345.000 136.222,345.000 140.000 C 345.000 143.778,345.367 145.000,346.500 145.000 C 347.815 145.000,348.000 151.611,348.000 198.500 C 348.000 245.389,347.815 252.000,346.500 252.000 C 345.500 252.000,345.000 253.000,345.000 255.000 C 345.000 257.000,344.500 258.000,343.500 258.000 C 342.452 258.000,342.000 259.056,342.000 261.500 C 342.000 264.333,341.619 265.000,340.000 265.000 C 338.889 265.000,338.000 265.667,338.000 266.500 C 338.000 267.325,337.325 268.000,336.500 268.000 C 335.452 268.000,335.000 269.056,335.000 271.500 C 335.000 274.833,334.833 275.000,331.500 275.000 C 329.056 275.000,328.000 275.452,328.000 276.500 C 328.000 277.325,327.325 278.000,326.500 278.000 C 325.667 278.000,325.000 278.889,325.000 280.000 C 325.000 281.619,324.333 282.000,321.500 282.000 C 319.056 282.000,318.000 282.452,318.000 283.500 C 318.000 284.500,317.000 285.000,315.000 285.000 C 313.000 285.000,312.000 285.500,312.000 286.500 C 312.000 287.793,308.556 288.000,287.000 288.000 C 262.667 288.000,262.000 288.053,262.000 290.000 C 262.000 291.619,261.333 292.000,258.500 292.000 C 256.056 292.000,255.000 292.452,255.000 293.500 C 255.000 294.325,254.325 295.000,253.500 295.000 C 252.675 295.000,252.000 295.675,252.000 296.500 C 252.000 297.333,251.111 298.000,250.000 298.000 C 248.133 298.000,248.000 298.667,248.000 308.000 C 248.000 317.333,248.133 318.000,250.000 318.000 C 251.333 318.000,252.000 318.667,252.000 320.000 C 252.000 321.111,252.667 322.000,253.500 322.000 C 254.325 322.000,255.000 322.675,255.000 323.500 C 255.000 324.800,259.000 325.000,285.000 325.000 C 311.000 325.000,315.000 324.800,315.000 323.500 C 315.000 322.321,316.389 322.000,321.500 322.000 C 327.333 322.000,328.000 321.795,328.000 320.000 C 328.000 318.381,328.667 318.000,331.500 318.000 C 333.944 318.000,335.000 317.548,335.000 316.500 C 335.000 315.452,336.056 315.000,338.500 315.000 C 340.944 315.000,342.000 314.548,342.000 313.500 C 342.000 312.500,343.000 312.000,345.000 312.000 C 347.333 312.000,348.000 311.556,348.000 310.000 C 348.000 308.667,348.667 308.000,350.000 308.000 C 351.111 308.000,352.000 307.333,352.000 306.500 C 352.000 305.675,352.675 305.000,353.500 305.000 C 354.325 305.000,355.000 304.325,355.000 303.500 C 355.000 302.675,355.675 302.000,356.500 302.000 C 357.333 302.000,358.000 301.111,358.000 300.000 C 358.000 298.667,358.667 298.000,360.000 298.000 C 361.111 298.000,362.000 297.333,362.000 296.500 C 362.000 295.675,362.675 295.000,363.500 295.000 C 364.325 295.000,365.000 294.325,365.000 293.500 C 365.000 292.675,365.675 292.000,366.500 292.000 C 367.333 292.000,368.000 291.111,368.000 290.000 C 368.000 288.667,368.667 288.000,370.000 288.000 C 371.556 288.000,372.000 287.333,372.000 285.000 C 372.000 283.000,372.500 282.000,373.500 282.000 C 374.548 282.000,375.000 280.944,375.000 278.500 C 375.000 276.056,375.452 275.000,376.500 275.000 C 377.548 275.000,378.000 273.944,378.000 271.500 C 378.000 268.667,378.381 268.000,380.000 268.000 C 381.733 268.000,382.000 267.333,382.000 263.000 C 382.000 259.222,382.367 258.000,383.500 258.000 C 384.817 258.000,385.000 250.667,385.000 198.000 C 385.000 145.333,384.817 138.000,383.500 138.000 C 382.367 138.000,382.000 136.778,382.000 133.000 C 382.000 128.667,381.733 128.000,380.000 128.000 C 378.267 128.000,378.000 127.333,378.000 123.000 C 378.000 119.222,377.633 118.000,376.500 118.000 C 375.675 118.000,375.000 117.325,375.000 116.500 C 375.000 115.675,374.325 115.000,373.500 115.000 C 372.452 115.000,372.000 113.944,372.000 111.500 C 372.000 108.667,371.619 108.000,370.000 108.000 C 368.889 108.000,368.000 107.333,368.000 106.500 C 368.000 105.675,367.325 105.000,366.500 105.000 C 365.675 105.000,365.000 104.325,365.000 103.500 C 365.000 102.675,364.325 102.000,363.500 102.000 C 362.452 102.000,362.000 100.944,362.000 98.500 C 362.000 95.667,361.619 95.000,360.000 95.000 C 358.889 95.000,358.000 94.333,358.000 93.500 C 358.000 92.500,357.000 92.000,355.000 92.000 C 352.667 92.000,352.000 91.556,352.000 90.000 C 352.000 88.667,351.333 88.000,350.000 88.000 C 348.889 88.000,348.000 87.333,348.000 86.500 C 348.000 85.675,347.325 85.000,346.500 85.000 C 345.675 85.000,345.000 84.325,345.000 83.500 C 345.000 82.452,343.944 82.000,341.500 82.000 C 338.667 82.000,338.000 81.619,338.000 80.000 C 338.000 78.444,337.333 78.000,335.000 78.000 C 333.000 78.000,332.000 77.500,332.000 76.500 C 332.000 75.367,330.778 75.000,327.000 75.000 C 323.222 75.000,322.000 74.633,322.000 73.500 C 322.000 72.217,319.111 72.000,302.000 72.000 C 282.667 72.000,282.000 71.933,282.000 70.000 C 282.000 68.667,281.333 68.000,280.000 68.000 C 278.267 68.000,278.000 67.333,278.000 63.000 C 278.000 59.222,277.633 58.000,276.500 58.000 C 275.367 58.000,275.000 56.778,275.000 53.000 C 275.000 49.222,274.633 48.000,273.500 48.000 C 272.500 48.000,272.000 47.000,272.000 45.000 C 272.000 42.667,271.556 42.000,270.000 42.000 C 268.667 42.000,268.000 41.333,268.000 40.000 C 268.000 38.889,267.333 38.000,266.500 38.000 C 265.675 38.000,265.000 37.325,265.000 36.500 C 265.000 35.675,264.325 35.000,263.500 35.000 C 262.452 35.000,262.000 33.944,262.000 31.500 C 262.000 28.667,261.619 28.000,260.000 28.000 C 258.889 28.000,258.000 27.333,258.000 26.500 C 258.000 25.675,257.325 25.000,256.500 25.000 C 255.675 25.000,255.000 24.325,255.000 23.500 C 255.000 22.675,254.325 22.000,253.500 22.000 C 252.667 22.000,252.000 21.111,252.000 20.000 C 252.000 18.381,251.333 18.000,248.500 18.000 C 246.056 18.000,245.000 17.548,245.000 16.500 C 245.000 15.675,244.325 15.000,243.500 15.000 C 242.675 15.000,242.000 14.325,242.000 13.500 C 242.000 12.452,240.944 12.000,238.500 12.000 C 235.667 12.000,235.000 11.619,235.000 10.000 C 235.000 8.381,234.333 8.000,231.500 8.000 C 229.056 8.000,228.000 7.548,228.000 6.500 C 228.000 5.367,226.778 5.000,223.000 5.000 C 219.222 5.000,218.000 4.633,218.000 3.500 C 218.000 2.204,214.389 2.000,191.500 2.000 C 168.611 2.000,165.000 2.204,165.000 3.500 M182.000 56.500 C 182.000 57.548,180.944 58.000,178.500 58.000 C 175.667 58.000,175.000 58.381,175.000 60.000 C 175.000 61.111,174.333 62.000,173.500 62.000 C 172.675 62.000,172.000 62.675,172.000 63.500 C 172.000 64.333,171.111 65.000,170.000 65.000 C 168.889 65.000,168.000 65.667,168.000 66.500 C 168.000 67.325,167.325 68.000,166.500 68.000 C 165.667 68.000,165.000 68.889,165.000 70.000 C 165.000 71.111,164.333 72.000,163.500 72.000 C 162.367 72.000,162.000 73.222,162.000 77.000 C 162.000 81.333,161.733 82.000,160.000 82.000 C 158.167 82.000,158.000 82.667,158.000 90.000 C 158.000 97.333,158.167 98.000,160.000 98.000 C 161.733 98.000,162.000 98.667,162.000 103.000 C 162.000 106.778,162.367 108.000,163.500 108.000 C 164.333 108.000,165.000 108.889,165.000 110.000 C 165.000 111.111,165.667 112.000,166.500 112.000 C 167.325 112.000,168.000 112.675,168.000 113.500 C 168.000 114.333,168.889 115.000,170.000 115.000 C 171.111 115.000,172.000 115.667,172.000 116.500 C 172.000 117.325,172.675 118.000,173.500 118.000 C 174.333 118.000,175.000 118.889,175.000 120.000 C 175.000 121.733,175.667 122.000,180.000 122.000 C 183.778 122.000,185.000 122.367,185.000 123.500 C 185.000 124.716,186.611 125.000,193.500 125.000 C 200.389 125.000,202.000 124.716,202.000 123.500 C 202.000 122.367,203.222 122.000,207.000 122.000 C 211.333 122.000,212.000 121.733,212.000 120.000 C 212.000 118.889,212.667 118.000,213.500 118.000 C 214.325 118.000,215.000 117.325,215.000 116.500 C 215.000 115.452,216.056 115.000,218.500 115.000 C 221.833 115.000,222.000 114.833,222.000 111.500 C 222.000 109.056,222.452 108.000,223.500 108.000 C 224.500 108.000,225.000 107.000,225.000 105.000 C 225.000 103.000,225.500 102.000,226.500 102.000 C 227.750 102.000,228.000 100.000,228.000 90.000 C 228.000 80.000,227.750 78.000,226.500 78.000 C 225.367 78.000,225.000 76.778,225.000 73.000 C 225.000 69.222,224.633 68.000,223.500 68.000 C 222.675 68.000,222.000 67.325,222.000 66.500 C 222.000 65.667,221.111 65.000,220.000 65.000 C 218.889 65.000,218.000 64.333,218.000 63.500 C 218.000 62.500,217.000 62.000,215.000 62.000 C 212.667 62.000,212.000 61.556,212.000 60.000 C 212.000 58.381,211.333 58.000,208.500 58.000 C 206.056 58.000,205.000 57.548,205.000 56.500 C 205.000 55.254,203.056 55.000,193.500 55.000 C 183.944 55.000,182.000 55.254,182.000 56.500 M82.000 73.500 C 82.000 74.633,80.778 75.000,77.000 75.000 C 73.222 75.000,72.000 75.367,72.000 76.500 C 72.000 77.633,70.778 78.000,67.000 78.000 C 62.667 78.000,62.000 78.267,62.000 80.000 C 62.000 81.333,61.333 82.000,60.000 82.000 C 58.889 82.000,58.000 82.667,58.000 83.500 C 58.000 84.500,57.000 85.000,55.000 85.000 C 53.000 85.000,52.000 85.500,52.000 86.500 C 52.000 87.333,51.111 88.000,50.000 88.000 C 48.667 88.000,48.000 88.667,48.000 90.000 C 48.000 91.111,47.333 92.000,46.500 92.000 C 45.675 92.000,45.000 92.675,45.000 93.500 C 45.000 94.548,43.944 95.000,41.500 95.000 C 39.056 95.000,38.000 95.452,38.000 96.500 C 38.000 97.325,37.325 98.000,36.500 98.000 C 35.452 98.000,35.000 99.056,35.000 101.500 C 35.000 103.944,34.548 105.000,33.500 105.000 C 32.675 105.000,32.000 105.675,32.000 106.500 C 32.000 107.333,31.111 108.000,30.000 108.000 C 28.667 108.000,28.000 108.667,28.000 110.000 C 28.000 111.111,27.333 112.000,26.500 112.000 C 25.500 112.000,25.000 113.000,25.000 115.000 C 25.000 117.000,24.500 118.000,23.500 118.000 C 22.452 118.000,22.000 119.056,22.000 121.500 C 22.000 124.333,21.619 125.000,20.000 125.000 C 18.267 125.000,18.000 125.667,18.000 130.000 C 18.000 133.778,17.633 135.000,16.500 135.000 C 15.284 135.000,15.000 136.611,15.000 143.500 C 15.000 150.389,14.716 152.000,13.500 152.000 C 12.188 152.000,12.000 157.833,12.000 198.500 C 12.000 239.167,12.188 245.000,13.500 245.000 C 14.716 245.000,15.000 246.611,15.000 253.500 C 15.000 260.389,15.284 262.000,16.500 262.000 C 17.633 262.000,18.000 263.222,18.000 267.000 C 18.000 271.333,18.267 272.000,20.000 272.000 C 21.556 272.000,22.000 272.667,22.000 275.000 C 22.000 277.000,22.500 278.000,23.500 278.000 C 24.548 278.000,25.000 279.056,25.000 281.500 C 25.000 283.944,25.452 285.000,26.500 285.000 C 27.325 285.000,28.000 285.675,28.000 286.500 C 28.000 287.333,28.889 288.000,30.000 288.000 C 31.619 288.000,32.000 288.667,32.000 291.500 C 32.000 293.944,32.452 295.000,33.500 295.000 C 34.325 295.000,35.000 295.675,35.000 296.500 C 35.000 297.325,35.675 298.000,36.500 298.000 C 37.333 298.000,38.000 298.889,38.000 300.000 C 38.000 301.333,38.667 302.000,40.000 302.000 C 41.111 302.000,42.000 302.667,42.000 303.500 C 42.000 304.325,42.675 305.000,43.500 305.000 C 44.325 305.000,45.000 305.675,45.000 306.500 C 45.000 307.548,46.056 308.000,48.500 308.000 C 51.333 308.000,52.000 308.381,52.000 310.000 C 52.000 311.111,52.667 312.000,53.500 312.000 C 54.325 312.000,55.000 312.675,55.000 313.500 C 55.000 314.548,56.056 315.000,58.500 315.000 C 60.944 315.000,62.000 315.452,62.000 316.500 C 62.000 317.633,63.222 318.000,67.000 318.000 C 71.333 318.000,72.000 318.267,72.000 320.000 C 72.000 321.733,72.667 322.000,77.000 322.000 C 80.778 322.000,82.000 322.367,82.000 323.500 C 82.000 324.756,84.111 325.000,95.000 325.000 L 108.000 325.000 108.000 330.000 C 108.000 334.333,108.267 335.000,110.000 335.000 C 111.733 335.000,112.000 335.667,112.000 340.000 C 112.000 343.778,112.367 345.000,113.500 345.000 C 114.548 345.000,115.000 346.056,115.000 348.500 C 115.000 350.944,115.452 352.000,116.500 352.000 C 117.325 352.000,118.000 352.675,118.000 353.500 C 118.000 354.333,118.889 355.000,120.000 355.000 C 121.619 355.000,122.000 355.667,122.000 358.500 C 122.000 360.944,122.452 362.000,123.500 362.000 C 124.325 362.000,125.000 362.675,125.000 363.500 C 125.000 364.325,125.675 365.000,126.500 365.000 C 127.325 365.000,128.000 365.675,128.000 366.500 C 128.000 367.333,128.889 368.000,130.000 368.000 C 131.333 368.000,132.000 368.667,132.000 370.000 C 132.000 371.111,132.667 372.000,133.500 372.000 C 134.325 372.000,135.000 372.675,135.000 373.500 C 135.000 374.325,135.675 375.000,136.500 375.000 C 137.325 375.000,138.000 375.675,138.000 376.500 C 138.000 377.548,139.056 378.000,141.500 378.000 C 144.333 378.000,145.000 378.381,145.000 380.000 C 145.000 381.111,145.667 382.000,146.500 382.000 C 147.325 382.000,148.000 382.675,148.000 383.500 C 148.000 384.548,149.056 385.000,151.500 385.000 C 153.944 385.000,155.000 385.452,155.000 386.500 C 155.000 387.548,156.056 388.000,158.500 388.000 C 161.333 388.000,162.000 388.381,162.000 390.000 C 162.000 391.733,162.667 392.000,167.000 392.000 C 170.778 392.000,172.000 392.367,172.000 393.500 C 172.000 394.790,175.222 395.000,195.000 395.000 C 214.778 395.000,218.000 394.790,218.000 393.500 C 218.000 392.367,219.222 392.000,223.000 392.000 C 227.333 392.000,228.000 391.733,228.000 390.000 C 228.000 388.381,228.667 388.000,231.500 388.000 C 233.944 388.000,235.000 387.548,235.000 386.500 C 235.000 385.452,236.056 385.000,238.500 385.000 C 240.944 385.000,242.000 384.548,242.000 383.500 C 242.000 382.500,243.000 382.000,245.000 382.000 C 247.333 382.000,248.000 381.556,248.000 380.000 C 248.000 378.667,248.667 378.000,250.000 378.000 C 251.111 378.000,252.000 377.333,252.000 376.500 C 252.000 375.675,252.675 375.000,253.500 375.000 C 254.325 375.000,255.000 374.325,255.000 373.500 C 255.000 372.675,255.675 372.000,256.500 372.000 C 257.333 372.000,258.000 371.111,258.000 370.000 C 258.000 368.667,258.667 368.000,260.000 368.000 C 261.111 368.000,262.000 367.333,262.000 366.500 C 262.000 365.675,262.675 365.000,263.500 365.000 C 264.716 365.000,265.000 363.389,265.000 356.500 C 265.000 349.611,264.716 348.000,263.500 348.000 C 262.675 348.000,262.000 347.325,262.000 346.500 C 262.000 345.667,261.111 345.000,260.000 345.000 C 258.889 345.000,258.000 344.333,258.000 343.500 C 258.000 342.675,257.325 342.000,256.500 342.000 C 255.667 342.000,255.000 341.111,255.000 340.000 C 255.000 338.157,254.333 338.000,246.500 338.000 C 238.667 338.000,238.000 338.157,238.000 340.000 C 238.000 341.111,237.333 342.000,236.500 342.000 C 235.675 342.000,235.000 342.675,235.000 343.500 C 235.000 344.325,234.325 345.000,233.500 345.000 C 232.675 345.000,232.000 345.675,232.000 346.500 C 232.000 347.548,230.944 348.000,228.500 348.000 C 225.667 348.000,225.000 348.381,225.000 350.000 C 225.000 351.111,224.333 352.000,223.500 352.000 C 222.675 352.000,222.000 352.675,222.000 353.500 C 222.000 354.633,220.778 355.000,217.000 355.000 C 213.222 355.000,212.000 355.367,212.000 356.500 C 212.000 357.690,210.556 358.000,205.000 358.000 C 198.667 358.000,198.000 358.190,198.000 360.000 C 198.000 361.556,197.333 362.000,195.000 362.000 C 192.667 362.000,192.000 361.556,192.000 360.000 C 192.000 358.190,191.333 358.000,185.000 358.000 C 179.444 358.000,178.000 357.690,178.000 356.500 C 178.000 355.500,177.000 355.000,175.000 355.000 C 173.000 355.000,172.000 354.500,172.000 353.500 C 172.000 352.452,170.944 352.000,168.500 352.000 C 165.667 352.000,165.000 351.619,165.000 350.000 C 165.000 348.889,164.333 348.000,163.500 348.000 C 162.675 348.000,162.000 347.325,162.000 346.500 C 162.000 345.667,161.111 345.000,160.000 345.000 C 158.889 345.000,158.000 344.333,158.000 343.500 C 158.000 342.675,157.325 342.000,156.500 342.000 C 155.667 342.000,155.000 341.111,155.000 340.000 C 155.000 338.889,154.333 338.000,153.500 338.000 C 152.675 338.000,152.000 337.325,152.000 336.500 C 152.000 335.667,151.111 335.000,150.000 335.000 C 148.381 335.000,148.000 334.333,148.000 331.500 C 148.000 329.056,147.548 328.000,146.500 328.000 C 145.367 328.000,145.000 326.778,145.000 323.000 C 145.000 319.222,144.633 318.000,143.500 318.000 C 142.254 318.000,142.000 316.056,142.000 306.500 C 142.000 296.944,142.254 295.000,143.500 295.000 C 144.633 295.000,145.000 293.778,145.000 290.000 C 145.000 286.222,145.367 285.000,146.500 285.000 C 147.548 285.000,148.000 283.944,148.000 281.500 C 148.000 278.667,148.381 278.000,150.000 278.000 C 151.111 278.000,152.000 277.333,152.000 276.500 C 152.000 275.675,152.675 275.000,153.500 275.000 C 154.548 275.000,155.000 273.944,155.000 271.500 C 155.000 269.056,155.452 268.000,156.500 268.000 C 157.325 268.000,158.000 267.325,158.000 266.500 C 158.000 265.452,159.056 265.000,161.500 265.000 C 163.944 265.000,165.000 264.548,165.000 263.500 C 165.000 262.675,165.675 262.000,166.500 262.000 C 167.333 262.000,168.000 261.111,168.000 260.000 C 168.000 258.381,168.667 258.000,171.500 258.000 C 173.944 258.000,175.000 257.548,175.000 256.500 C 175.000 255.367,176.222 255.000,180.000 255.000 C 183.778 255.000,185.000 254.633,185.000 253.500 C 185.000 252.267,186.778 252.000,195.000 252.000 C 203.222 252.000,205.000 252.267,205.000 253.500 C 205.000 254.633,206.222 255.000,210.000 255.000 C 213.778 255.000,215.000 255.367,215.000 256.500 C 215.000 257.548,216.056 258.000,218.500 258.000 C 221.333 258.000,222.000 258.381,222.000 260.000 C 222.000 261.556,222.667 262.000,225.000 262.000 C 227.000 262.000,228.000 262.500,228.000 263.500 C 228.000 264.333,228.889 265.000,230.000 265.000 C 231.111 265.000,232.000 265.667,232.000 266.500 C 232.000 267.325,232.675 268.000,233.500 268.000 C 234.333 268.000,235.000 268.889,235.000 270.000 C 235.000 271.884,235.667 272.000,246.500 272.000 C 257.333 272.000,258.000 271.884,258.000 270.000 C 258.000 268.667,258.667 268.000,260.000 268.000 C 261.556 268.000,262.000 267.333,262.000 265.000 C 262.000 263.000,262.500 262.000,263.500 262.000 C 264.690 262.000,265.000 260.556,265.000 255.000 C 265.000 249.444,264.690 248.000,263.500 248.000 C 262.500 248.000,262.000 247.000,262.000 245.000 C 262.000 242.667,261.556 242.000,260.000 242.000 C 258.667 242.000,258.000 241.333,258.000 240.000 C 258.000 238.889,257.333 238.000,256.500 238.000 C 255.675 238.000,255.000 237.325,255.000 236.500 C 255.000 235.452,253.944 235.000,251.500 235.000 C 249.056 235.000,248.000 234.548,248.000 233.500 C 248.000 232.675,247.325 232.000,246.500 232.000 C 245.667 232.000,245.000 231.111,245.000 230.000 C 245.000 228.381,244.333 228.000,241.500 228.000 C 239.056 228.000,238.000 227.548,238.000 226.500 C 238.000 225.500,237.000 225.000,235.000 225.000 C 233.000 225.000,232.000 224.500,232.000 223.500 C 232.000 222.367,230.778 222.000,227.000 222.000 C 222.667 222.000,222.000 221.733,222.000 220.000 C 222.000 218.133,221.333 218.000,212.000 218.000 C 203.778 218.000,202.000 217.733,202.000 216.500 C 202.000 215.310,200.556 215.000,195.000 215.000 C 189.444 215.000,188.000 215.310,188.000 216.500 C 188.000 217.733,186.222 218.000,178.000 218.000 C 168.667 218.000,168.000 218.133,168.000 220.000 C 168.000 221.733,167.333 222.000,163.000 222.000 C 159.222 222.000,158.000 222.367,158.000 223.500 C 158.000 224.500,157.000 225.000,155.000 225.000 C 153.000 225.000,152.000 225.500,152.000 226.500 C 152.000 227.333,151.111 228.000,150.000 228.000 C 148.667 228.000,148.000 228.667,148.000 230.000 C 148.000 231.556,147.333 232.000,145.000 232.000 C 143.000 232.000,142.000 232.500,142.000 233.500 C 142.000 234.333,141.111 235.000,140.000 235.000 C 138.889 235.000,138.000 235.667,138.000 236.500 C 138.000 237.325,137.325 238.000,136.500 238.000 C 135.667 238.000,135.000 238.889,135.000 240.000 C 135.000 241.111,134.333 242.000,133.500 242.000 C 132.675 242.000,132.000 242.675,132.000 243.500 C 132.000 244.333,131.111 245.000,130.000 245.000 C 128.889 245.000,128.000 245.667,128.000 246.500 C 128.000 247.325,127.325 248.000,126.500 248.000 C 125.667 248.000,125.000 248.889,125.000 250.000 C 125.000 251.111,124.333 252.000,123.500 252.000 C 122.675 252.000,122.000 252.675,122.000 253.500 C 122.000 254.333,121.111 255.000,120.000 255.000 C 118.381 255.000,118.000 255.667,118.000 258.500 C 118.000 260.944,117.548 262.000,116.500 262.000 C 115.500 262.000,115.000 263.000,115.000 265.000 C 115.000 267.000,114.500 268.000,113.500 268.000 C 112.367 268.000,112.000 269.222,112.000 273.000 C 112.000 277.333,111.733 278.000,110.000 278.000 C 108.267 278.000,108.000 278.667,108.000 283.000 L 108.000 288.000 96.500 288.000 C 86.944 288.000,85.000 287.746,85.000 286.500 C 85.000 285.452,83.944 285.000,81.500 285.000 C 79.056 285.000,78.000 284.548,78.000 283.500 C 78.000 282.500,77.000 282.000,75.000 282.000 C 72.667 282.000,72.000 281.556,72.000 280.000 C 72.000 278.667,71.333 278.000,70.000 278.000 C 68.889 278.000,68.000 277.333,68.000 276.500 C 68.000 275.675,67.325 275.000,66.500 275.000 C 65.675 275.000,65.000 274.325,65.000 273.500 C 65.000 272.675,64.325 272.000,63.500 272.000 C 62.667 272.000,62.000 271.111,62.000 270.000 C 62.000 268.667,61.333 268.000,60.000 268.000 C 58.444 268.000,58.000 267.333,58.000 265.000 C 58.000 263.000,57.500 262.000,56.500 262.000 C 55.452 262.000,55.000 260.944,55.000 258.500 C 55.000 256.056,54.548 255.000,53.500 255.000 C 52.452 255.000,52.000 253.944,52.000 251.500 C 52.000 248.667,51.619 248.000,50.000 248.000 C 48.028 248.000,48.000 247.333,48.000 200.000 C 48.000 152.667,48.028 152.000,50.000 152.000 C 51.733 152.000,52.000 151.333,52.000 147.000 C 52.000 143.222,52.367 142.000,53.500 142.000 C 54.548 142.000,55.000 140.944,55.000 138.500 C 55.000 136.056,55.452 135.000,56.500 135.000 C 57.548 135.000,58.000 133.944,58.000 131.500 C 58.000 128.667,58.381 128.000,60.000 128.000 C 61.111 128.000,62.000 127.333,62.000 126.500 C 62.000 125.675,62.675 125.000,63.500 125.000 C 64.325 125.000,65.000 124.325,65.000 123.500 C 65.000 122.675,65.675 122.000,66.500 122.000 C 67.333 122.000,68.000 121.111,68.000 120.000 C 68.000 118.381,68.667 118.000,71.500 118.000 C 73.944 118.000,75.000 117.548,75.000 116.500 C 75.000 115.675,75.675 115.000,76.500 115.000 C 77.325 115.000,78.000 114.325,78.000 113.500 C 78.000 112.452,79.056 112.000,81.500 112.000 C 84.333 112.000,85.000 111.619,85.000 110.000 C 85.000 108.205,85.667 108.000,91.500 108.000 C 96.611 108.000,98.000 107.679,98.000 106.500 C 98.000 105.221,100.722 105.000,116.500 105.000 C 132.278 105.000,135.000 104.779,135.000 103.500 C 135.000 102.675,135.675 102.000,136.500 102.000 C 137.333 102.000,138.000 101.111,138.000 100.000 C 138.000 98.667,138.667 98.000,140.000 98.000 C 141.867 98.000,142.000 97.333,142.000 88.000 C 142.000 78.667,141.867 78.000,140.000 78.000 C 138.889 78.000,138.000 77.333,138.000 76.500 C 138.000 75.675,137.325 75.000,136.500 75.000 C 135.675 75.000,135.000 74.325,135.000 73.500 C 135.000 72.204,131.389 72.000,108.500 72.000 C 85.611 72.000,82.000 72.204,82.000 73.500 M185.000 273.500 C 185.000 274.548,183.944 275.000,181.500 275.000 C 179.056 275.000,178.000 275.452,178.000 276.500 C 178.000 277.500,177.000 278.000,175.000 278.000 C 172.667 278.000,172.000 278.444,172.000 280.000 C 172.000 281.333,171.333 282.000,170.000 282.000 C 168.444 282.000,168.000 282.667,168.000 285.000 C 168.000 287.000,167.500 288.000,166.500 288.000 C 165.452 288.000,165.000 289.056,165.000 291.500 C 165.000 293.944,164.548 295.000,163.500 295.000 C 162.254 295.000,162.000 296.944,162.000 306.500 C 162.000 316.056,162.254 318.000,163.500 318.000 C 164.548 318.000,165.000 319.056,165.000 321.500 C 165.000 323.944,165.452 325.000,166.500 325.000 C 167.325 325.000,168.000 325.675,168.000 326.500 C 168.000 327.333,168.889 328.000,170.000 328.000 C 171.333 328.000,172.000 328.667,172.000 330.000 C 172.000 331.111,172.667 332.000,173.500 332.000 C 174.325 332.000,175.000 332.675,175.000 333.500 C 175.000 334.325,175.675 335.000,176.500 335.000 C 177.325 335.000,178.000 335.675,178.000 336.500 C 178.000 337.633,179.222 338.000,183.000 338.000 C 187.333 338.000,188.000 338.267,188.000 340.000 C 188.000 341.843,188.667 342.000,196.500 342.000 C 204.333 342.000,205.000 341.843,205.000 340.000 C 205.000 338.267,205.667 338.000,210.000 338.000 C 213.778 338.000,215.000 337.633,215.000 336.500 C 215.000 335.675,215.675 335.000,216.500 335.000 C 217.325 335.000,218.000 334.325,218.000 333.500 C 218.000 332.667,218.889 332.000,220.000 332.000 C 221.333 332.000,222.000 331.333,222.000 330.000 C 222.000 328.889,222.667 328.000,223.500 328.000 C 224.325 328.000,225.000 327.325,225.000 326.500 C 225.000 325.675,225.675 325.000,226.500 325.000 C 227.633 325.000,228.000 323.778,228.000 320.000 C 228.000 315.667,228.267 315.000,230.000 315.000 C 231.867 315.000,232.000 314.333,232.000 305.000 C 232.000 295.667,231.867 295.000,230.000 295.000 C 228.381 295.000,228.000 294.333,228.000 291.500 C 228.000 289.056,227.548 288.000,226.500 288.000 C 225.675 288.000,225.000 287.325,225.000 286.500 C 225.000 285.675,224.325 285.000,223.500 285.000 C 222.452 285.000,222.000 283.944,222.000 281.500 C 222.000 278.167,221.833 278.000,218.500 278.000 C 216.056 278.000,215.000 277.548,215.000 276.500 C 215.000 275.452,213.944 275.000,211.500 275.000 C 209.056 275.000,208.000 274.548,208.000 273.500 C 208.000 272.254,206.056 272.000,196.500 272.000 C 186.944 272.000,185.000 272.254,185.000 273.500 " stroke="none" fill-rule="evenodd"></path>
</g>
</svg>