<svg version="1.1" width="400" height="400" xmlns="http://www.w3.org/2000/svg"><g><path d="M91.250 1.220 C 90.013 1.817,89.000 2.687,89.000 3.153 C 89.000 3.619,88.550 4.000,88.000 4.000 C 86.521 4.000,82.747 8.029,80.750 11.741 C 77.786 17.250,78.068 382.253,81.041 388.081 C 83.252 392.414,86.403 396.000,88.000 396.000 C 88.550 396.000,89.000 396.378,89.000 396.839 C 89.000 399.827,95.029 400.000,199.087 400.000 C 315.947 400.000,307.426 400.483,314.455 393.455 C 321.618 386.291,321.000 404.745,321.000 198.064 C 321.000 -12.773,322.059 9.752,311.841 3.309 L 306.593 0.000 200.046 0.068 C 125.622 0.115,92.822 0.463,91.250 1.220 M232.000 13.891 C 235.136 14.758,235.973 18.815,233.404 20.694 C 231.550 22.050,163.144 22.682,158.319 21.388 C 154.214 20.287,154.198 14.495,158.297 13.700 C 162.012 12.979,229.335 13.154,232.000 13.891 M300.000 188.500 L 300.000 343.000 200.500 343.000 L 101.000 343.000 101.000 188.500 L 101.000 34.000 200.500 34.000 L 300.000 34.000 300.000 188.500 M138.000 56.485 C 127.971 58.717,117.057 65.577,113.034 72.176 C 110.087 77.010,109.851 164.901,112.771 170.254 C 119.091 181.837,132.691 187.986,153.750 188.780 L 166.000 189.241 166.000 205.121 C 166.000 213.854,166.343 221.000,166.762 221.000 C 167.181 221.000,174.679 213.834,183.424 205.076 L 199.325 189.152 229.412 188.732 C 260.255 188.301,267.325 187.433,272.000 183.499 C 272.825 182.805,274.466 181.943,275.647 181.584 C 278.605 180.684,284.985 174.498,287.182 170.399 C 289.832 165.456,289.988 77.825,287.357 72.700 C 283.977 66.119,272.201 58.680,261.500 56.367 C 253.213 54.576,146.115 54.678,138.000 56.485 M233.000 266.000 L 233.000 322.000 256.000 322.000 L 279.000 322.000 279.000 266.000 L 279.000 210.000 256.000 210.000 L 233.000 210.000 233.000 266.000 M179.000 282.000 L 179.000 321.000 201.500 321.000 L 224.000 321.000 224.000 282.000 L 224.000 243.000 201.500 243.000 L 179.000 243.000 179.000 282.000 M122.000 299.000 L 122.000 322.000 145.000 322.000 L 168.000 322.000 168.000 299.000 L 168.000 276.000 145.000 276.000 L 122.000 276.000 122.000 299.000 M218.999 366.998 C 220.267 368.779,221.005 371.113,220.817 372.748 L 220.500 375.500 196.295 375.768 C 170.076 376.058,168.771 375.781,170.627 370.322 C 172.578 364.585,174.949 364.010,196.682 364.005 L 216.864 364.000 218.999 366.998 " stroke="none" fill-rule="evenodd"></path></g></svg>