<svg version="1.1" width="400" height="400" xmlns="http://www.w3.org/2000/svg"><g><path d="M197.000 13.858 C 197.000 14.330,188.787 14.968,178.750 15.275 C 160.388 15.837,139.929 17.738,139.000 18.970 C 138.725 19.334,133.822 20.389,128.106 21.314 C 122.389 22.238,117.214 23.376,116.606 23.842 C 115.997 24.308,113.362 25.268,110.750 25.975 C 108.138 26.682,106.000 27.553,106.000 27.912 C 106.000 28.270,103.950 29.169,101.445 29.908 C 98.939 30.648,96.352 31.759,95.695 32.377 C 95.038 32.995,93.150 34.175,91.500 35.000 C 79.994 40.753,76.939 55.972,85.950 62.649 C 86.802 63.281,88.850 64.968,90.500 66.398 C 92.150 67.828,94.030 68.998,94.679 68.999 C 95.327 68.999,96.497 69.639,97.278 70.421 C 98.060 71.202,100.567 72.345,102.850 72.959 C 105.132 73.574,107.000 74.445,107.000 74.894 C 107.000 75.343,110.712 76.509,115.250 77.484 C 119.787 78.459,123.725 79.577,124.000 79.969 C 124.549 80.752,144.896 84.015,149.167 84.006 C 150.633 84.003,151.983 84.419,152.167 84.931 C 153.469 88.570,249.531 88.570,250.833 84.931 C 251.017 84.419,252.367 84.004,253.833 84.010 C 257.774 84.025,278.418 80.698,279.000 79.954 C 279.275 79.603,282.988 78.502,287.250 77.508 C 291.512 76.514,295.000 75.369,295.000 74.962 C 295.000 74.555,296.561 73.930,298.468 73.572 C 300.375 73.214,302.520 72.377,303.233 71.711 C 303.947 71.045,306.313 69.600,308.491 68.500 C 310.669 67.400,313.250 65.713,314.226 64.750 C 315.202 63.788,316.450 63.000,317.000 63.000 C 317.550 63.000,318.000 62.311,318.000 61.469 C 318.000 60.626,318.670 59.680,319.489 59.366 C 326.707 56.596,320.506 38.937,310.922 34.968 C 309.315 34.302,308.000 33.451,308.000 33.076 C 308.000 32.702,305.750 31.586,303.000 30.597 C 300.250 29.608,298.000 28.466,298.000 28.059 C 298.000 27.651,295.413 26.742,292.250 26.039 C 289.087 25.335,286.275 24.438,286.000 24.046 C 285.384 23.167,269.528 19.998,265.750 19.999 C 264.238 20.000,263.000 19.614,263.000 19.141 C 263.000 17.768,244.069 15.907,223.750 15.282 C 213.438 14.965,205.000 14.321,205.000 13.853 C 205.000 13.384,203.200 13.000,201.000 13.000 C 198.800 13.000,197.000 13.386,197.000 13.858 M49.000 198.864 C 49.000 340.517,49.277 354.901,52.020 355.833 C 52.559 356.017,53.000 356.734,53.000 357.427 C 53.000 359.227,64.715 371.000,66.505 371.000 C 67.327 371.000,68.000 371.362,68.000 371.804 C 68.000 372.247,71.487 374.380,75.750 376.545 C 80.013 378.710,83.725 380.776,84.000 381.137 C 84.275 381.498,86.525 382.334,89.000 382.994 C 91.475 383.655,95.300 384.995,97.500 385.972 C 99.700 386.949,104.538 388.337,108.250 389.057 C 111.963 389.778,115.000 390.688,115.000 391.080 C 115.000 391.472,118.938 392.359,123.750 393.052 C 128.563 393.744,132.976 394.674,133.557 395.118 C 140.276 400.246,262.912 400.179,269.500 395.044 C 270.050 394.616,274.325 393.689,279.000 392.986 C 283.675 392.282,287.725 391.409,288.000 391.046 C 288.275 390.682,292.212 389.550,296.750 388.529 C 301.288 387.508,305.000 386.368,305.000 385.996 C 305.000 385.624,307.527 384.713,310.616 383.972 C 313.705 383.231,316.743 382.130,317.366 381.525 C 317.990 380.919,320.637 379.617,323.250 378.629 C 325.863 377.642,328.000 376.471,328.000 376.026 C 328.000 375.581,329.040 374.956,330.312 374.637 C 331.583 374.318,333.945 372.919,335.562 371.529 C 337.178 370.140,338.756 369.002,339.068 369.001 C 339.956 368.999,347.000 362.537,347.000 361.725 C 347.000 361.326,347.894 360.106,348.986 359.014 C 350.078 357.922,351.261 355.222,351.614 353.014 C 351.967 350.806,352.648 349.000,353.128 349.000 C 353.620 349.000,354.000 284.757,354.000 201.500 C 354.000 49.669,353.853 43.983,350.308 58.905 C 349.667 61.603,348.467 64.640,347.641 65.655 C 346.815 66.670,344.943 68.963,343.480 70.750 C 342.018 72.538,340.235 74.000,339.518 74.000 C 338.801 74.000,337.952 74.682,337.633 75.515 C 337.313 76.348,335.915 77.462,334.526 77.990 C 333.137 78.518,332.000 79.343,332.000 79.823 C 332.000 80.303,330.087 81.544,327.750 82.580 C 325.413 83.617,322.942 84.998,322.260 85.651 C 321.578 86.303,319.579 87.153,317.817 87.540 C 316.055 87.927,314.076 88.781,313.420 89.438 C 312.763 90.094,309.588 91.218,306.363 91.936 C 303.138 92.654,300.246 93.640,299.936 94.128 C 299.626 94.616,295.801 95.777,291.436 96.708 C 287.071 97.638,283.275 98.668,283.000 98.997 C 282.394 99.721,261.610 103.024,257.750 103.010 C 256.238 103.004,255.000 103.373,255.000 103.829 C 255.000 107.859,150.425 107.794,147.869 103.763 C 147.522 103.215,145.385 102.944,143.119 103.160 C 140.854 103.376,139.000 103.261,139.000 102.905 C 139.000 102.549,134.725 101.692,129.500 101.000 C 124.275 100.308,120.000 99.436,120.000 99.062 C 120.000 98.688,115.950 97.560,111.000 96.555 C 106.050 95.550,102.000 94.426,102.000 94.057 C 102.000 93.688,98.850 92.569,95.000 91.570 C 91.150 90.571,88.000 89.469,88.000 89.121 C 88.000 88.772,86.168 87.915,83.929 87.216 C 81.690 86.518,78.946 85.096,77.830 84.057 C 76.715 83.017,74.710 81.893,73.376 81.558 C 70.699 80.886,69.706 80.092,61.220 71.833 C 55.302 66.073,53.000 62.467,53.000 58.953 C 53.000 57.879,52.550 57.000,52.000 57.000 C 51.450 57.000,51.000 56.100,51.000 55.000 C 51.000 53.900,50.550 53.000,50.000 53.000 C 49.338 53.000,49.000 102.288,49.000 198.864 M138.000 187.871 C 138.000 188.350,140.250 189.041,143.000 189.406 L 148.000 190.069 148.000 198.034 C 148.000 202.415,147.662 205.993,147.250 205.985 C 146.838 205.977,144.700 205.321,142.500 204.529 C 140.300 203.736,136.813 203.068,134.750 203.044 C 132.688 203.020,131.000 202.550,131.000 202.000 C 131.000 201.450,129.650 201.000,128.000 201.000 C 126.350 201.000,125.000 201.450,125.000 202.000 C 125.000 202.550,123.904 203.000,122.565 203.000 C 118.036 203.000,115.219 204.728,114.513 207.940 C 114.144 209.623,113.427 211.000,112.921 211.000 C 112.414 211.000,112.000 211.675,112.000 212.500 C 112.000 213.325,112.450 214.000,113.000 214.000 C 113.550 214.000,114.000 214.697,114.000 215.550 C 114.000 218.747,116.937 222.602,120.411 223.965 C 122.385 224.740,124.000 225.694,124.000 226.086 C 124.000 226.478,126.250 227.608,129.000 228.597 C 131.750 229.586,134.000 230.756,134.000 231.198 C 134.000 231.639,134.626 232.000,135.391 232.000 C 137.363 232.000,148.680 243.049,149.474 245.750 C 149.837 246.988,150.554 248.000,151.067 248.000 C 152.258 248.000,152.299 262.697,151.111 263.432 C 150.622 263.734,149.915 265.203,149.540 266.697 C 148.872 269.357,142.300 276.997,140.679 276.999 C 140.227 277.000,139.200 277.657,138.396 278.461 C 137.593 279.264,135.263 280.229,133.218 280.605 C 131.173 280.981,129.214 281.729,128.864 282.268 C 127.959 283.664,103.668 283.503,103.199 282.098 C 102.998 281.494,102.115 281.000,101.238 281.000 C 100.360 281.000,98.148 280.460,96.321 279.799 L 93.000 278.598 93.000 269.799 C 93.000 260.444,93.355 259.819,96.831 263.057 C 98.045 264.188,101.505 265.631,104.519 266.263 C 107.534 266.896,110.000 267.770,110.000 268.206 C 110.000 268.643,113.150 269.000,117.000 269.000 C 120.909 269.000,124.000 268.567,124.000 268.019 C 124.000 267.480,125.137 266.753,126.526 266.404 C 134.284 264.457,131.905 248.520,123.543 246.421 C 122.224 246.090,120.935 245.273,120.679 244.605 C 120.422 243.937,118.365 242.780,116.106 242.035 C 113.848 241.290,112.000 240.370,112.000 239.991 C 112.000 239.612,109.975 238.466,107.500 237.446 C 105.025 236.425,102.998 235.345,102.995 235.045 C 102.993 234.745,101.452 232.825,99.571 230.777 C 97.691 228.730,95.832 226.030,95.441 224.777 C 95.050 223.525,94.309 222.229,93.795 221.898 C 92.627 221.145,92.595 206.891,93.760 206.088 C 94.229 205.765,95.227 203.985,95.977 202.133 C 97.338 198.769,101.679 194.000,103.380 194.000 C 103.875 194.000,104.779 193.326,105.390 192.503 C 106.000 191.679,108.862 190.448,111.750 189.766 C 114.638 189.084,117.000 188.183,117.000 187.763 C 117.000 187.344,121.725 187.000,127.500 187.000 C 133.275 187.000,138.000 187.392,138.000 187.871 M219.000 188.000 C 219.000 188.550,219.884 189.000,220.965 189.000 C 223.196 189.000,232.240 191.907,233.000 192.868 C 233.770 193.841,237.307 195.993,239.183 196.628 C 240.109 196.942,241.569 198.680,242.428 200.490 C 243.288 202.301,244.668 204.042,245.495 204.360 C 246.323 204.677,247.000 205.594,247.000 206.397 C 247.000 207.200,247.631 208.489,248.403 209.260 C 250.152 211.009,253.000 219.234,253.000 222.535 C 253.000 223.891,253.450 225.000,254.000 225.000 C 254.596 225.000,255.000 228.833,255.000 234.500 C 255.000 240.167,254.596 244.000,254.000 244.000 C 253.450 244.000,253.000 245.153,253.000 246.562 C 253.000 250.302,249.895 259.192,247.804 261.439 C 246.812 262.505,246.000 263.754,246.000 264.215 C 246.000 266.648,233.619 277.005,228.750 278.644 C 226.953 279.249,226.219 284.000,227.922 284.000 C 228.429 284.000,232.406 287.600,236.759 292.000 C 241.112 296.400,244.949 300.000,245.285 300.000 C 245.622 300.000,247.111 301.125,248.595 302.500 L 251.292 305.000 239.110 305.000 C 227.735 305.000,226.797 304.851,224.935 302.750 C 223.839 301.512,220.030 297.447,216.471 293.715 C 212.912 289.984,210.000 286.485,210.000 285.941 C 210.000 284.481,205.433 283.000,200.935 283.000 C 198.771 283.000,197.000 282.595,197.000 282.100 C 197.000 281.605,194.750 280.660,192.000 280.000 C 189.250 279.340,187.000 278.426,187.000 277.968 C 187.000 277.510,186.039 276.830,184.865 276.457 C 182.003 275.549,172.684 266.190,171.216 262.750 C 170.571 261.238,169.639 260.000,169.146 260.000 C 168.653 260.000,167.651 257.300,166.919 254.000 C 166.186 250.700,165.230 248.000,164.794 248.000 C 164.357 248.000,164.000 242.600,164.000 236.000 C 164.000 229.400,164.399 224.000,164.886 224.000 C 165.374 224.000,166.076 221.980,166.446 219.512 C 166.816 217.044,167.674 214.456,168.352 213.762 C 169.030 213.068,170.208 210.975,170.971 209.112 C 172.413 205.586,182.069 195.000,183.842 195.000 C 184.400 195.000,185.489 194.369,186.260 193.597 C 187.883 191.974,196.147 189.000,199.035 189.000 C 200.116 189.000,201.000 188.550,201.000 188.000 C 201.000 187.407,204.667 187.000,210.000 187.000 C 215.333 187.000,219.000 187.407,219.000 188.000 M291.000 227.500 L 291.000 266.000 309.000 266.000 L 327.000 266.000 327.000 273.500 L 327.000 281.000 299.500 281.000 L 272.000 281.000 272.000 235.000 L 272.000 189.000 281.500 189.000 L 291.000 189.000 291.000 227.500 M200.256 205.117 C 196.658 206.156,190.525 211.771,189.516 214.950 C 189.158 216.078,188.499 217.000,188.051 217.000 C 186.962 217.000,185.000 225.000,185.000 229.443 C 185.000 231.399,184.550 233.000,184.000 233.000 C 183.450 233.000,183.000 234.125,183.000 235.500 C 183.000 236.875,183.450 238.000,184.000 238.000 C 184.550 238.000,185.003 239.688,185.006 241.750 C 185.012 246.110,186.752 253.000,187.846 253.000 C 188.260 253.000,189.164 254.565,189.855 256.477 C 190.551 258.401,192.427 260.730,194.056 261.692 C 195.675 262.649,197.000 263.752,197.000 264.145 C 197.000 267.895,219.005 266.995,222.915 263.085 C 224.062 261.938,225.429 261.000,225.953 261.000 C 226.477 261.000,227.691 259.313,228.651 257.250 C 229.611 255.188,230.751 253.252,231.186 252.948 C 234.597 250.567,234.677 220.330,231.278 218.147 C 230.723 217.791,229.946 216.465,229.552 215.200 C 226.778 206.317,212.783 201.500,200.256 205.117 " stroke="none" fill-rule="evenodd"></path></g></svg>