<svg version="1.1" width="400" height="400" xmlns="http://www.w3.org/2000/svg">
<g>
<path d="M176.500 0.583 C 174.850 0.804,167.425 1.680,160.000 2.528 C 138.523 4.981,120.284 8.551,108.467 12.613 C 106.248 13.376,103.745 14.000,102.904 14.000 C 102.064 14.000,99.513 14.900,97.236 16.000 C 94.959 17.100,92.619 18.000,92.035 18.000 C 91.451 18.000,90.191 18.439,89.236 18.975 C 88.281 19.511,85.925 20.627,84.000 21.455 C 82.075 22.282,79.825 23.349,79.000 23.824 C 78.175 24.300,76.487 25.209,75.250 25.845 C 68.907 29.102,68.130 29.629,60.250 36.011 C 56.813 38.795,54.000 41.422,54.000 41.848 C 54.000 42.274,53.212 43.495,52.250 44.561 C 47.296 50.050,47.518 43.253,47.243 197.383 C 47.017 323.910,47.168 341.631,48.493 344.287 C 49.322 345.948,50.000 347.701,50.000 348.183 C 50.000 351.554,66.317 367.310,74.000 371.356 C 75.375 372.081,78.300 373.723,80.500 375.005 C 85.512 377.927,93.744 381.989,94.745 382.034 C 95.160 382.053,97.300 382.937,99.500 384.000 C 101.700 385.063,104.175 385.950,105.000 385.972 C 105.825 385.994,107.789 386.685,109.364 387.506 C 110.940 388.328,112.965 389.000,113.864 389.000 C 114.764 389.000,118.200 389.872,121.500 390.938 C 141.980 397.554,160.048 399.500,201.000 399.500 C 238.540 399.500,247.761 398.795,267.000 394.451 C 270.575 393.644,274.425 392.987,275.556 392.992 C 276.687 392.996,280.512 392.088,284.056 390.973 C 287.600 389.858,292.975 388.236,296.000 387.369 C 299.025 386.502,303.750 384.874,306.500 383.750 C 309.250 382.626,313.075 381.064,315.000 380.279 C 319.674 378.373,328.375 373.829,329.000 372.968 C 329.275 372.589,331.053 371.483,332.951 370.510 C 334.849 369.537,339.358 365.689,342.971 361.959 C 354.033 350.541,353.011 366.955,353.005 200.877 L 353.000 56.254 350.899 51.506 C 348.736 46.615,345.653 42.598,340.601 38.088 C 339.006 36.665,336.981 34.785,336.101 33.910 C 335.220 33.036,333.825 32.018,333.000 31.649 C 332.175 31.280,330.150 30.106,328.500 29.040 C 320.695 23.999,301.670 15.710,291.000 12.704 C 276.887 8.726,270.025 7.000,268.336 7.003 C 267.326 7.004,263.575 6.366,260.000 5.585 C 242.043 1.663,191.169 -1.385,176.500 0.583 M227.500 24.433 C 237.400 25.181,248.875 26.514,253.000 27.396 C 257.125 28.279,263.875 29.726,268.000 30.613 C 278.898 32.957,293.745 38.667,296.821 41.698 C 297.548 42.414,298.486 43.000,298.905 43.000 C 301.902 43.000,307.000 50.581,307.000 55.037 C 307.000 61.681,302.947 65.662,289.500 72.226 C 240.492 96.151,114.023 88.880,94.714 61.027 C 90.675 55.202,94.849 44.770,102.145 42.454 C 103.165 42.130,104.000 41.528,104.000 41.117 C 104.000 40.705,106.588 39.354,109.750 38.114 C 112.913 36.875,116.883 35.262,118.573 34.531 C 138.730 25.809,186.749 21.357,227.500 24.433 M223.500 148.430 C 228.790 150.063,234.722 152.467,243.000 156.332 C 247.348 158.363,256.832 165.120,257.396 166.589 C 257.694 167.365,258.423 168.000,259.016 168.000 C 261.448 168.000,278.978 190.524,278.994 193.669 C 278.997 194.312,279.631 196.112,280.402 197.669 C 283.913 204.761,285.113 208.766,286.506 218.040 C 287.328 223.511,288.000 230.453,288.000 233.468 L 288.000 238.949 303.734 239.225 L 319.467 239.500 292.897 266.095 L 266.327 292.691 264.191 289.595 C 263.017 287.893,261.031 285.371,259.778 283.991 C 258.525 282.611,255.715 279.236,253.534 276.491 C 251.353 273.746,249.313 271.275,249.003 271.000 C 248.692 270.725,245.526 266.900,241.969 262.500 C 238.411 258.100,235.221 254.275,234.881 254.000 C 234.540 253.725,231.742 250.350,228.663 246.500 L 223.065 239.500 243.532 239.230 L 264.000 238.959 264.000 229.318 C 264.000 220.187,262.367 211.482,259.720 206.500 C 259.135 205.400,257.552 202.374,256.200 199.776 C 253.545 194.672,242.132 182.000,240.189 182.000 C 239.535 182.000,239.000 181.583,239.000 181.073 C 239.000 180.564,237.762 179.521,236.250 178.757 C 234.738 177.993,232.600 176.864,231.500 176.248 C 216.452 167.824,194.696 166.915,178.634 174.038 C 174.585 175.834,173.567 175.970,172.573 174.848 C 162.116 163.044,158.884 157.608,161.750 156.646 C 162.713 156.322,164.175 155.661,165.000 155.175 C 179.745 146.500,207.046 143.352,223.500 148.430 M147.953 186.000 C 150.071 188.475,154.136 193.425,156.986 197.000 C 159.836 200.575,162.580 203.650,163.084 203.833 C 163.588 204.017,164.000 204.804,164.000 205.583 C 164.000 206.363,164.358 207.000,164.795 207.000 C 165.231 207.000,167.247 209.174,169.273 211.831 C 171.299 214.488,174.070 217.863,175.431 219.331 L 177.905 222.000 159.998 222.000 L 142.091 222.000 141.394 225.714 C 139.976 233.272,145.830 261.000,148.843 261.000 C 149.211 261.000,150.132 262.400,150.889 264.112 C 161.407 287.873,203.789 299.924,229.650 286.507 C 233.173 284.679,233.716 285.059,240.914 294.382 C 248.332 303.989,248.374 303.012,240.375 306.912 C 218.528 317.564,187.899 318.306,169.165 308.637 C 167.699 307.881,164.475 306.224,162.000 304.956 C 155.620 301.687,145.033 293.248,139.886 287.329 C 132.208 278.499,131.411 277.289,126.495 267.000 C 124.524 262.875,122.482 258.719,121.956 257.764 C 121.430 256.809,120.995 255.009,120.989 253.764 C 120.983 252.519,120.308 249.291,119.489 246.591 C 118.604 243.672,118.000 237.693,118.000 231.841 L 118.000 222.000 98.972 222.000 L 79.943 222.000 106.714 195.212 L 133.484 168.425 138.793 174.962 C 141.713 178.558,145.835 183.525,147.953 186.000 " stroke="none" fill-rule="evenodd"></path>
</g>
</svg>