<svg version="1.1" width="400" height="400" xmlns="http://www.w3.org/2000/svg"><g><path d="M318.925 30.703 C 308.791 40.440,295.406 53.378,289.180 59.453 C 282.955 65.529,271.930 76.271,264.680 83.325 C 257.431 90.379,246.438 101.153,240.250 107.267 L 229.000 118.384 229.000 124.172 C 229.000 134.900,215.618 157.000,209.122 157.000 C 208.466 157.000,206.731 157.787,205.266 158.750 C 202.060 160.856,193.264 162.848,186.781 162.936 C 182.118 162.999,181.920 163.141,170.031 174.928 C 163.414 181.489,158.000 187.144,158.000 187.495 C 158.000 188.521,176.987 207.000,178.041 207.000 C 180.101 207.000,178.801 209.327,174.375 213.568 C 171.831 216.006,169.584 218.000,169.382 218.000 C 169.179 218.000,164.623 222.408,159.257 227.796 C 153.891 233.183,137.125 249.460,122.000 263.965 C 106.875 278.470,89.859 294.987,84.186 300.669 C 73.395 311.478,72.489 312.051,70.496 309.326 C 69.324 307.723,46.151 323.766,46.035 326.260 C 46.016 326.678,44.425 329.261,42.500 332.000 C 40.575 334.739,39.000 337.214,39.000 337.500 C 39.000 337.786,37.425 340.261,35.500 343.000 C 33.575 345.739,32.000 348.434,32.000 348.990 C 32.000 349.545,31.652 350.000,31.227 350.000 C 30.802 350.000,29.607 351.575,28.570 353.500 C 27.533 355.425,26.306 357.000,25.843 357.000 C 25.379 357.000,25.000 357.900,25.000 359.000 C 25.000 360.100,24.621 361.000,24.157 361.000 C 23.694 361.000,22.467 362.575,21.430 364.500 C 20.393 366.425,19.198 368.000,18.773 368.000 C 18.348 368.000,18.000 368.430,18.000 368.956 C 18.000 369.481,16.875 371.569,15.500 373.595 C 12.278 378.344,12.237 378.138,17.457 383.509 L 21.914 388.096 25.207 386.408 C 27.018 385.480,28.725 384.413,29.000 384.036 C 29.275 383.659,31.522 382.259,33.994 380.925 C 36.466 379.591,38.941 378.156,39.494 377.736 C 41.842 375.952,47.818 372.231,51.994 369.952 C 54.466 368.604,56.941 367.156,57.494 366.736 C 59.465 365.239,65.545 361.477,68.250 360.081 C 69.763 359.301,71.000 358.288,71.000 357.831 C 71.000 357.374,71.760 357.000,72.688 357.000 C 74.372 357.000,86.000 345.709,86.000 344.075 C 86.000 343.601,86.675 342.955,87.500 342.638 C 88.325 342.322,89.000 341.374,89.000 340.531 C 89.000 339.689,89.419 339.000,89.932 339.000 C 92.348 339.000,95.197 333.054,93.563 331.420 C 91.407 329.265,91.449 329.214,109.000 312.409 C 117.525 304.247,129.629 292.491,135.899 286.284 C 142.168 280.078,147.476 275.000,147.693 275.000 C 147.911 275.000,153.671 269.488,160.492 262.750 C 167.314 256.012,178.340 245.186,184.995 238.692 L 197.094 226.884 202.797 231.861 C 205.934 234.599,210.733 239.125,213.462 241.919 C 219.748 248.355,218.133 248.911,232.438 235.380 L 244.722 223.760 245.338 215.770 C 245.972 207.555,248.944 199.195,252.648 195.212 C 259.895 187.419,261.434 186.000,262.640 186.000 C 263.388 186.000,264.000 185.618,264.000 185.150 C 264.000 182.921,276.583 178.994,283.718 178.997 L 290.936 179.000 302.291 167.750 C 308.536 161.563,324.623 145.925,338.039 133.000 C 351.456 120.075,367.848 104.246,374.467 97.825 C 381.085 91.404,389.538 83.242,393.250 79.688 C 401.625 71.670,402.522 74.174,385.342 57.622 C 377.280 49.855,365.419 38.325,358.985 32.000 C 345.155 18.406,339.224 13.000,338.141 13.000 C 337.706 13.000,329.058 20.967,318.925 30.703 M80.500 21.629 C 72.477 22.561,63.951 24.270,63.475 25.041 C 63.023 25.771,82.403 46.000,83.554 46.000 C 83.774 46.000,89.538 51.625,96.363 58.500 C 103.189 65.375,109.274 71.000,109.886 71.000 C 111.441 71.000,111.293 72.207,109.001 78.239 C 107.901 81.133,107.001 84.340,107.001 85.366 C 107.000 86.392,106.360 89.317,105.578 91.866 C 103.135 99.826,100.131 110.351,99.263 113.989 C 98.558 116.948,97.906 117.573,94.966 118.107 C 90.083 118.993,82.509 120.956,75.556 123.136 C 72.287 124.161,68.579 125.000,67.317 125.000 C 66.054 125.000,62.654 125.900,59.761 126.999 C 52.329 129.824,53.130 130.240,39.558 116.500 C 32.768 109.625,26.981 104.000,26.699 104.000 C 26.417 104.000,21.307 99.054,15.343 93.008 C 2.499 79.987,3.724 80.356,1.664 88.893 C -2.332 105.450,0.493 124.421,9.700 142.849 C 13.947 151.348,30.385 171.000,33.248 171.000 C 33.923 171.000,40.559 175.186,42.648 176.930 C 53.534 186.016,90.006 190.434,109.076 184.977 C 111.999 184.140,112.227 184.329,134.758 206.156 C 150.137 221.055,148.525 220.470,155.521 213.693 C 162.584 206.852,162.712 207.341,150.859 195.864 C 139.227 184.599,139.228 186.710,150.849 175.554 C 154.891 171.674,162.282 164.472,167.273 159.549 L 176.347 150.599 183.589 150.549 C 193.781 150.480,193.724 150.242,180.513 137.699 L 168.652 126.438 169.826 121.776 C 178.307 88.095,157.902 46.363,125.500 31.121 C 111.011 24.306,91.991 20.294,80.500 21.629 M258.449 218.493 C 258.078 220.965,258.048 224.452,258.381 226.243 C 258.897 229.012,258.501 229.972,255.744 232.646 C 253.960 234.376,246.761 241.464,239.746 248.396 C 232.732 255.328,226.592 261.000,226.103 261.000 C 225.614 261.000,224.955 261.675,224.638 262.500 C 223.595 265.218,221.530 264.085,214.473 256.925 C 210.638 253.034,205.849 248.525,203.831 246.905 L 200.162 243.960 194.081 250.079 C 190.736 253.444,188.000 256.414,188.000 256.679 C 188.000 258.028,240.287 308.000,241.699 308.000 C 242.734 308.000,243.000 302.592,243.000 281.545 L 243.000 255.091 246.250 254.632 C 248.037 254.379,252.875 253.719,257.000 253.163 C 277.358 250.423,281.935 249.760,287.250 248.783 C 294.722 247.410,295.453 248.678,276.490 230.140 C 257.503 211.579,259.311 212.746,258.449 218.493 M371.000 270.191 C 367.425 270.692,359.303 271.980,352.952 273.051 C 346.601 274.123,339.985 275.000,338.251 275.000 C 336.517 275.000,332.826 275.487,330.049 276.083 L 325.000 277.166 325.000 299.083 L 325.000 321.000 354.000 321.000 L 383.000 321.000 383.000 295.000 L 383.000 269.000 380.250 269.139 C 378.738 269.216,374.575 269.689,371.000 270.191 M312.000 278.715 C 309.525 278.915,303.963 279.737,299.640 280.540 C 295.316 281.343,290.276 282.000,288.439 282.000 C 286.602 282.000,282.826 282.487,280.049 283.083 L 275.000 284.166 275.000 302.583 L 275.000 321.000 298.000 321.000 L 321.000 321.000 321.000 299.500 L 321.000 278.000 318.750 278.175 C 317.512 278.271,314.475 278.514,312.000 278.715 M122.645 327.818 C 114.735 333.513,113.742 344.488,120.492 351.623 C 122.354 353.592,133.437 361.000,134.519 361.000 C 138.726 361.000,141.388 371.629,137.977 374.807 C 133.903 378.602,118.000 377.067,118.000 372.878 C 118.000 372.395,117.550 372.000,117.000 372.000 C 113.487 372.000,116.090 381.819,120.020 383.391 C 142.830 392.518,161.286 365.421,139.770 354.396 C 137.971 353.475,136.275 352.397,136.000 352.000 C 135.725 351.603,134.150 350.579,132.500 349.724 C 127.248 347.003,125.000 344.212,125.000 340.413 C 125.000 332.906,134.981 329.353,142.688 334.116 L 146.113 336.233 145.806 330.866 L 145.500 325.500 136.000 325.271 C 127.029 325.055,126.285 325.197,122.645 327.818 M159.000 354.500 L 159.000 384.000 169.750 383.988 C 189.112 383.967,198.572 379.315,204.298 367.000 C 208.174 358.665,206.249 337.461,201.449 335.619 C 200.652 335.313,200.000 334.426,200.000 333.648 C 200.000 332.870,199.213 331.945,198.250 331.592 C 197.287 331.239,195.349 330.303,193.941 329.512 C 188.951 326.707,179.622 325.000,169.290 325.000 L 159.000 325.000 159.000 354.500 M216.000 354.500 L 216.000 384.000 220.500 384.000 L 225.000 384.000 225.023 371.250 L 225.046 358.500 228.514 362.500 C 230.421 364.700,232.802 367.400,233.805 368.500 C 234.809 369.600,237.624 372.975,240.061 376.000 C 246.582 384.096,246.440 384.000,251.929 384.000 C 258.448 384.000,258.397 383.013,251.493 375.613 C 248.472 372.375,246.000 369.571,246.000 369.381 C 246.000 369.191,244.537 367.525,242.750 365.679 C 240.963 363.832,237.845 360.369,235.823 357.985 L 232.146 353.649 236.694 348.324 C 239.196 345.396,241.638 343.000,242.121 343.000 C 242.605 343.000,243.000 342.403,243.000 341.674 C 243.000 340.944,244.575 339.035,246.500 337.429 C 248.425 335.824,250.000 334.142,250.000 333.691 C 250.000 333.240,251.350 331.735,253.000 330.347 C 257.461 326.593,256.938 324.999,251.250 325.007 C 246.710 325.013,246.301 325.256,242.000 330.500 C 239.525 333.518,237.162 335.989,236.750 335.993 C 236.338 335.997,236.000 336.675,236.000 337.500 C 236.000 338.325,235.647 339.000,235.216 339.000 C 234.784 339.000,232.309 341.524,229.716 344.609 L 225.000 350.217 225.000 337.609 L 225.000 325.000 220.500 325.000 L 216.000 325.000 216.000 354.500 M275.000 343.339 L 275.000 361.678 283.750 362.871 C 288.563 363.528,297.953 364.950,304.618 366.033 C 311.283 367.115,317.695 368.000,318.868 368.000 C 320.978 368.000,321.000 367.777,321.000 346.500 L 321.000 325.000 298.000 325.000 L 275.000 325.000 275.000 343.339 M325.000 346.839 L 325.000 368.678 333.750 369.875 C 338.563 370.533,348.125 371.929,355.000 372.978 C 361.875 374.027,369.975 375.137,373.000 375.446 C 376.025 375.754,379.512 376.282,380.750 376.620 L 383.000 377.233 383.000 351.117 L 383.000 325.000 354.000 325.000 L 325.000 325.000 325.000 346.839 M187.000 335.069 C 196.561 340.541,200.062 350.631,196.488 362.413 C 193.815 371.224,187.725 375.102,174.250 376.575 L 168.000 377.258 168.000 355.004 L 168.000 332.749 176.250 333.194 C 180.787 333.438,185.625 334.282,187.000 335.069 " stroke="none" fill-rule="evenodd"></path></g></svg>