<svg version="1.1" width="400" height="400" xmlns="http://www.w3.org/2000/svg">
<g>
<path d="M16.616 16.631 C 9.754 18.749,6.595 21.407,3.065 28.030 L 0.000 33.780 -0.000 162.004 L -0.000 290.228 2.235 294.364 C 9.841 308.442,4.159 307.448,79.005 307.791 L 142.511 308.082 144.270 315.291 C 152.368 348.482,135.817 358.883,74.750 358.978 L 61.000 359.000 61.000 372.000 L 61.000 385.000 192.000 385.000 L 323.000 385.000 323.000 372.000 L 323.000 359.000 309.750 358.959 C 256.019 358.792,241.487 349.750,248.939 321.123 C 249.458 319.130,250.411 315.383,251.058 312.797 L 252.234 308.093 317.867 307.797 L 383.500 307.500 387.500 304.870 C 392.478 301.596,395.191 298.632,397.895 293.515 L 400.000 289.530 400.000 161.651 L 400.000 33.772 397.750 29.702 C 395.062 24.840,391.702 21.000,390.135 21.000 C 389.511 21.000,389.000 20.618,389.000 20.152 C 389.000 19.685,387.087 18.448,384.750 17.402 C 378.840 14.757,25.082 14.017,16.616 16.631 M368.000 161.500 L 368.000 276.000 200.000 276.000 L 32.000 276.000 32.000 161.500 L 32.000 47.000 200.000 47.000 L 368.000 47.000 368.000 161.500 M192.885 83.862 C 191.573 84.887,189.488 86.042,188.250 86.430 C 187.012 86.818,186.000 87.554,186.000 88.067 C 186.000 88.580,185.170 89.000,184.155 89.000 C 183.140 89.000,181.495 89.900,180.500 91.000 C 179.505 92.100,178.369 93.000,177.976 93.000 C 177.583 93.000,173.589 95.138,169.101 97.750 C 164.613 100.362,158.679 103.703,155.914 105.174 C 153.150 106.645,150.351 108.267,149.694 108.780 C 149.037 109.293,145.875 111.132,142.667 112.868 C 136.698 116.097,133.995 118.223,134.006 119.679 C 134.014 120.629,138.308 123.315,150.500 129.993 C 153.800 131.801,157.175 133.839,158.000 134.522 C 158.825 135.205,160.512 136.072,161.750 136.449 C 162.988 136.826,164.000 137.554,164.000 138.067 C 164.000 138.580,164.845 139.000,165.878 139.000 C 166.910 139.000,168.288 139.643,168.940 140.428 C 169.592 141.213,172.235 142.960,174.813 144.309 C 177.391 145.657,181.750 148.143,184.500 149.832 C 194.980 156.269,195.422 156.400,199.955 154.400 C 202.180 153.418,204.000 152.282,204.000 151.875 C 204.000 151.468,205.012 150.826,206.250 150.449 C 207.488 150.072,209.175 149.205,210.000 148.522 C 210.825 147.839,214.200 145.798,217.500 143.987 C 225.136 139.795,227.630 138.386,232.189 135.685 C 237.602 132.480,254.848 122.659,257.079 121.513 C 260.794 119.604,259.908 118.631,249.000 112.647 C 245.975 110.987,242.905 109.038,242.179 108.315 C 241.452 107.592,240.269 107.000,239.551 107.000 C 238.833 107.000,237.685 106.325,237.000 105.500 C 236.315 104.675,234.910 104.000,233.878 104.000 C 232.845 104.000,232.000 103.601,232.000 103.114 C 232.000 102.627,230.537 101.497,228.750 100.603 C 226.963 99.709,223.700 97.870,221.500 96.516 C 219.300 95.163,216.150 93.377,214.500 92.548 C 212.850 91.719,210.825 90.588,210.000 90.036 C 199.347 82.905,195.765 81.613,192.885 83.862 M127.000 164.845 C 127.000 204.920,126.387 201.593,134.500 205.550 C 136.700 206.622,138.725 207.764,139.000 208.086 C 139.275 208.408,142.650 210.407,146.500 212.527 C 150.350 214.648,153.725 216.634,154.000 216.942 C 154.275 217.250,156.525 218.540,159.000 219.809 C 161.475 221.078,165.525 223.358,168.000 224.875 C 170.475 226.393,175.200 229.109,178.500 230.913 C 181.800 232.716,184.950 234.528,185.500 234.940 C 190.142 238.419,190.000 239.506,190.000 200.585 C 190.000 166.865,189.873 164.189,188.250 163.619 C 187.287 163.282,184.700 161.901,182.500 160.551 C 180.300 159.201,177.818 157.737,176.985 157.298 C 176.152 156.859,171.950 154.475,167.647 152.000 C 163.344 149.525,158.925 146.990,157.828 146.366 C 156.730 145.742,155.330 144.730,154.716 144.116 C 154.102 143.502,152.827 143.000,151.883 143.000 C 150.939 143.000,150.017 142.625,149.833 142.167 C 149.535 141.421,143.570 137.822,131.736 131.250 C 129.508 130.012,127.531 129.000,127.343 129.000 C 127.154 129.000,127.000 145.130,127.000 164.845 M259.500 132.116 C 256.750 133.723,253.600 135.490,252.500 136.043 C 251.400 136.595,248.823 138.049,246.774 139.274 C 244.724 140.498,240.899 142.684,238.274 144.131 C 235.648 145.577,231.250 148.162,228.500 149.875 C 225.750 151.587,222.262 153.485,220.750 154.092 C 219.238 154.699,218.000 155.602,218.000 156.098 C 218.000 156.594,217.248 157.000,216.329 157.000 C 215.410 157.000,213.870 157.712,212.909 158.583 C 211.947 159.453,209.211 161.208,206.830 162.481 L 202.500 164.797 202.237 200.970 L 201.975 237.143 204.237 236.434 C 205.482 236.044,207.573 234.887,208.885 233.862 C 210.197 232.838,211.884 232.000,212.635 232.000 C 213.386 232.000,214.000 231.594,214.000 231.098 C 214.000 230.602,215.238 229.690,216.750 229.072 C 219.532 227.936,226.662 223.842,228.500 222.325 C 229.050 221.871,231.525 220.446,234.000 219.158 C 236.475 217.870,240.300 215.761,242.500 214.473 C 247.654 211.453,250.172 210.034,257.500 206.019 C 260.800 204.211,263.843 202.426,264.263 202.053 C 264.682 201.680,264.907 185.134,264.763 165.284 L 264.500 129.193 259.500 132.116 " stroke="none" fill-rule="evenodd"></path>
</g>
</svg>