<svg version="1.1" width="400" height="400" xmlns="http://www.w3.org/2000/svg"><g><path d="M175.000 10.857 C 175.000 11.328,170.838 12.025,165.750 12.406 C 160.662 12.788,156.350 13.527,156.167 14.050 C 155.983 14.572,154.071 15.000,151.917 15.000 C 149.762 15.000,148.000 15.450,148.000 16.000 C 148.000 16.550,146.875 17.000,145.500 17.000 C 144.125 17.000,143.000 17.450,143.000 18.000 C 143.000 18.550,141.537 19.003,139.750 19.006 C 137.963 19.010,135.211 19.685,133.636 20.506 C 132.060 21.328,129.923 22.000,128.886 22.000 C 127.849 22.000,127.000 22.450,127.000 23.000 C 127.000 23.550,126.325 24.000,125.500 24.000 C 124.675 24.000,124.000 24.450,124.000 25.000 C 124.000 25.550,123.100 26.000,122.000 26.000 C 120.900 26.000,120.000 26.450,120.000 27.000 C 120.000 27.550,118.907 28.000,117.571 28.000 C 116.236 28.000,114.468 28.675,113.643 29.500 C 112.818 30.325,111.436 31.000,110.571 31.000 C 109.707 31.000,109.000 31.450,109.000 32.000 C 109.000 32.550,108.325 33.000,107.500 33.000 C 106.675 33.000,106.000 33.400,106.000 33.889 C 106.000 34.377,104.523 35.055,102.718 35.393 C 100.912 35.732,98.788 36.907,97.997 38.005 C 97.206 39.102,95.788 40.000,94.847 40.000 C 93.905 40.000,92.849 40.900,92.500 42.000 C 92.151 43.100,91.016 44.000,89.978 44.000 C 88.940 44.000,86.966 45.125,85.591 46.500 C 84.216 47.875,82.826 49.000,82.503 49.000 C 81.424 49.000,78.932 51.310,73.849 57.021 C 72.391 58.659,70.668 60.000,70.020 60.000 C 68.487 60.000,60.000 68.487,60.000 70.020 C 60.000 70.668,58.538 72.505,56.750 74.102 C 51.094 79.157,49.000 81.427,49.000 82.503 C 49.000 82.826,47.875 84.216,46.500 85.591 C 45.125 86.966,44.000 88.940,44.000 89.978 C 44.000 91.016,43.100 92.151,42.000 92.500 C 40.900 92.849,40.000 93.905,40.000 94.847 C 40.000 95.788,39.117 97.195,38.037 97.973 C 36.957 98.752,35.772 100.763,35.403 102.443 C 35.034 104.123,33.892 106.226,32.866 107.116 C 31.840 108.006,31.000 109.244,31.000 109.867 C 31.000 110.490,30.600 111.000,30.111 111.000 C 29.623 111.000,28.927 112.575,28.566 114.500 C 28.205 116.425,27.480 118.000,26.955 118.000 C 26.430 118.000,26.000 119.350,26.000 121.000 C 26.000 122.650,25.550 124.000,25.000 124.000 C 24.450 124.000,24.000 124.675,24.000 125.500 C 24.000 126.325,23.550 127.000,23.000 127.000 C 22.450 127.000,22.000 127.849,22.000 128.886 C 22.000 129.923,21.328 132.060,20.506 133.636 C 19.685 135.211,19.010 137.512,19.006 138.750 C 19.003 139.988,18.550 141.000,18.000 141.000 C 17.450 141.000,17.000 142.575,17.000 144.500 C 17.000 146.425,16.550 148.000,16.000 148.000 C 15.450 148.000,15.000 149.350,15.000 151.000 C 15.000 152.650,14.592 154.000,14.093 154.000 C 13.595 154.000,12.866 158.275,12.474 163.500 C 12.083 168.725,11.366 173.000,10.881 173.000 C 10.396 173.000,10.000 184.673,10.000 199.000 C 10.000 213.300,10.385 225.000,10.857 225.000 C 11.328 225.000,12.025 229.162,12.406 234.250 C 12.788 239.338,13.527 243.650,14.050 243.833 C 14.572 244.017,15.000 245.929,15.000 248.083 C 15.000 250.238,15.450 252.000,16.000 252.000 C 16.550 252.000,17.000 253.125,17.000 254.500 C 17.000 255.875,17.392 257.000,17.872 257.000 C 18.352 257.000,19.045 258.913,19.412 261.250 C 20.168 266.054,22.111 271.000,23.244 271.000 C 23.660 271.000,24.000 272.125,24.000 273.500 C 24.000 274.875,24.450 276.000,25.000 276.000 C 25.550 276.000,26.000 276.900,26.000 278.000 C 26.000 279.100,26.400 280.000,26.889 280.000 C 27.377 280.000,28.073 281.575,28.434 283.500 C 28.795 285.425,29.520 287.000,30.045 287.000 C 30.570 287.000,31.000 287.900,31.000 289.000 C 31.000 290.100,31.450 291.000,32.000 291.000 C 32.550 291.000,33.000 291.675,33.000 292.500 C 33.000 293.325,33.450 294.000,34.000 294.000 C 34.550 294.000,35.000 294.845,35.000 295.878 C 35.000 296.910,35.675 298.315,36.500 299.000 C 37.325 299.685,38.000 300.765,38.000 301.402 C 38.000 302.038,38.900 303.207,40.000 304.000 C 41.100 304.793,42.000 305.824,42.000 306.292 C 42.000 306.760,42.675 307.818,43.500 308.643 C 44.325 309.468,45.000 310.911,45.000 311.851 C 45.000 312.790,45.955 314.220,47.123 315.029 C 50.775 317.560,52.000 319.078,52.000 321.071 C 52.000 322.132,52.435 323.000,52.967 323.000 C 53.498 323.000,55.475 324.624,57.358 326.608 C 60.987 330.431,61.036 330.482,65.139 334.584 C 69.444 338.889,69.633 339.074,73.392 342.642 C 75.376 344.525,77.000 346.445,77.000 346.908 C 77.000 347.371,78.314 348.013,79.920 348.334 C 81.653 348.681,83.102 349.747,83.487 350.959 C 83.843 352.082,84.812 353.000,85.639 353.000 C 86.466 353.000,87.770 353.563,88.537 354.250 C 91.621 357.016,92.947 358.000,93.590 358.000 C 93.962 358.000,94.993 358.810,95.883 359.801 C 97.728 361.856,104.049 365.000,106.334 365.000 C 107.176 365.000,108.151 365.900,108.500 367.000 C 108.849 368.100,110.004 369.000,111.067 369.000 C 112.130 369.000,113.000 369.430,113.000 369.955 C 113.000 370.480,114.575 371.205,116.500 371.566 C 118.425 371.927,120.000 372.623,120.000 373.111 C 120.000 373.600,121.125 374.000,122.500 374.000 C 123.875 374.000,125.000 374.450,125.000 375.000 C 125.000 375.550,125.900 376.000,127.000 376.000 C 128.100 376.000,129.000 376.450,129.000 377.000 C 129.000 377.550,130.125 378.000,131.500 378.000 C 132.875 378.000,134.000 378.398,134.000 378.885 C 134.000 379.371,136.475 380.079,139.500 380.457 C 142.525 380.835,145.000 381.562,145.000 382.072 C 145.000 382.582,146.125 383.000,147.500 383.000 C 148.875 383.000,150.000 383.450,150.000 384.000 C 150.000 384.550,151.988 385.000,154.417 385.000 C 156.846 385.000,158.983 385.437,159.167 385.970 C 159.350 386.504,164.563 387.246,170.750 387.620 C 176.938 387.995,182.000 388.683,182.000 389.150 C 182.000 389.618,190.100 390.000,200.000 390.000 C 209.900 390.000,218.000 389.618,218.000 389.150 C 218.000 388.683,223.063 387.995,229.250 387.620 C 235.438 387.246,240.650 386.504,240.833 385.970 C 241.017 385.437,242.704 385.000,244.583 385.000 C 246.463 385.000,248.000 384.550,248.000 384.000 C 248.000 383.450,249.575 383.000,251.500 383.000 C 253.425 383.000,255.000 382.582,255.000 382.072 C 255.000 381.562,257.475 380.835,260.500 380.457 C 263.525 380.079,266.000 379.371,266.000 378.885 C 266.000 378.398,266.675 378.000,267.500 378.000 C 268.325 378.000,269.000 377.550,269.000 377.000 C 269.000 376.450,270.350 376.000,272.000 376.000 C 273.650 376.000,275.000 375.550,275.000 375.000 C 275.000 374.450,275.675 374.000,276.500 374.000 C 277.325 374.000,278.000 373.600,278.000 373.111 C 278.000 372.623,279.575 371.927,281.500 371.566 C 283.425 371.205,285.000 370.480,285.000 369.955 C 285.000 369.430,285.900 369.000,287.000 369.000 C 288.100 369.000,289.000 368.550,289.000 368.000 C 289.000 367.450,289.675 367.000,290.500 367.000 C 291.325 367.000,292.000 366.550,292.000 366.000 C 292.000 365.450,292.868 365.000,293.929 365.000 C 294.989 365.000,296.532 364.325,297.357 363.500 C 298.182 362.675,299.339 362.000,299.929 362.000 C 300.518 362.000,301.000 361.550,301.000 361.000 C 301.000 360.450,301.793 360.000,302.763 360.000 C 303.732 360.000,305.370 358.875,306.403 357.500 C 307.435 356.125,308.937 355.000,309.739 355.000 C 310.541 355.000,312.459 353.650,314.000 352.000 C 315.541 350.350,317.276 349.000,317.856 349.000 C 319.170 349.000,324.000 344.248,324.000 342.955 C 324.000 342.430,324.694 342.000,325.542 342.000 C 327.057 342.000,328.918 340.772,331.298 338.202 C 333.501 335.823,336.886 332.515,338.452 331.211 C 339.303 330.501,340.000 329.138,340.000 328.181 C 340.000 327.224,340.962 325.780,342.138 324.971 C 345.630 322.569,351.000 316.686,351.000 315.263 C 351.000 314.811,351.900 313.793,353.000 313.000 C 354.100 312.207,355.000 310.821,355.000 309.919 C 355.000 309.018,356.125 307.435,357.500 306.403 C 358.875 305.370,360.000 303.732,360.000 302.763 C 360.000 301.793,360.450 301.000,361.000 301.000 C 361.550 301.000,362.000 300.518,362.000 299.929 C 362.000 299.339,362.675 298.182,363.500 297.357 C 364.325 296.532,365.000 294.989,365.000 293.929 C 365.000 292.868,365.450 292.000,366.000 292.000 C 366.550 292.000,367.000 291.325,367.000 290.500 C 367.000 289.675,367.450 289.000,368.000 289.000 C 368.550 289.000,369.000 288.100,369.000 287.000 C 369.000 285.900,369.430 285.000,369.955 285.000 C 370.480 285.000,371.205 283.425,371.566 281.500 C 371.927 279.575,372.623 278.000,373.111 278.000 C 373.600 278.000,374.000 277.325,374.000 276.500 C 374.000 275.675,374.450 275.000,375.000 275.000 C 375.550 275.000,376.000 273.650,376.000 272.000 C 376.000 270.350,376.450 269.000,377.000 269.000 C 377.550 269.000,378.000 268.325,378.000 267.500 C 378.000 266.675,378.398 266.000,378.885 266.000 C 379.371 266.000,380.079 263.525,380.457 260.500 C 380.835 257.475,381.562 255.000,382.072 255.000 C 382.582 255.000,383.000 253.425,383.000 251.500 C 383.000 249.575,383.450 248.000,384.000 248.000 C 384.550 248.000,385.000 246.463,385.000 244.583 C 385.000 242.704,385.437 241.017,385.970 240.833 C 386.504 240.650,387.246 235.438,387.620 229.250 C 387.995 223.063,388.683 218.000,389.150 218.000 C 389.618 218.000,390.000 210.350,390.000 201.000 C 390.000 191.650,389.614 184.000,389.142 184.000 C 388.670 184.000,387.964 178.488,387.574 171.750 C 387.183 165.012,386.445 159.350,385.932 159.167 C 385.419 158.983,385.000 157.296,385.000 155.417 C 385.000 153.537,384.550 152.000,384.000 152.000 C 383.450 152.000,383.000 150.425,383.000 148.500 C 383.000 146.575,382.582 145.000,382.072 145.000 C 381.562 145.000,380.835 142.525,380.457 139.500 C 380.079 136.475,379.371 134.000,378.885 134.000 C 378.398 134.000,378.000 132.875,378.000 131.500 C 378.000 130.125,377.550 129.000,377.000 129.000 C 376.450 129.000,376.000 128.100,376.000 127.000 C 376.000 125.900,375.550 125.000,375.000 125.000 C 374.450 125.000,374.000 124.325,374.000 123.500 C 374.000 122.675,373.600 122.000,373.111 122.000 C 372.623 122.000,371.927 120.425,371.566 118.500 C 371.205 116.575,370.480 115.000,369.955 115.000 C 369.430 115.000,369.000 114.100,369.000 113.000 C 369.000 111.900,368.550 111.000,368.000 111.000 C 367.450 111.000,367.000 110.325,367.000 109.500 C 367.000 108.675,366.600 108.000,366.111 108.000 C 365.623 108.000,364.925 106.415,364.562 104.478 C 364.198 102.540,363.023 100.407,361.950 99.737 C 360.878 99.067,360.000 97.892,360.000 97.127 C 360.000 96.361,359.164 95.007,358.143 94.117 C 357.122 93.228,355.966 91.487,355.576 90.250 C 355.185 89.012,354.446 88.000,353.933 88.000 C 353.420 88.000,353.000 87.130,353.000 86.067 C 353.000 85.004,352.123 83.856,351.051 83.516 C 349.979 83.176,348.824 82.021,348.484 80.949 C 348.144 79.877,347.446 79.000,346.933 79.000 C 346.420 79.000,346.000 78.535,346.000 77.967 C 346.000 77.398,344.474 75.325,342.608 73.358 C 339.095 69.655,338.871 69.426,334.723 65.277 C 330.576 61.130,330.347 60.907,326.608 57.358 C 324.624 55.475,323.000 53.555,323.000 53.092 C 323.000 52.629,321.686 51.987,320.080 51.666 C 318.347 51.319,316.898 50.253,316.513 49.041 C 316.157 47.918,315.188 47.000,314.361 47.000 C 313.534 47.000,312.230 46.438,311.463 45.750 C 308.379 42.984,307.053 42.000,306.410 42.000 C 306.038 42.000,305.007 41.175,304.117 40.167 C 303.228 39.158,300.587 37.497,298.250 36.474 C 295.913 35.452,294.000 34.252,294.000 33.808 C 294.000 33.363,293.325 33.000,292.500 33.000 C 291.675 33.000,291.000 32.550,291.000 32.000 C 291.000 31.450,290.100 31.000,289.000 31.000 C 287.900 31.000,287.000 30.570,287.000 30.045 C 287.000 29.520,285.425 28.795,283.500 28.434 C 281.575 28.073,280.000 27.377,280.000 26.889 C 280.000 26.400,279.100 26.000,278.000 26.000 C 276.900 26.000,276.000 25.550,276.000 25.000 C 276.000 24.450,274.875 24.000,273.500 24.000 C 272.125 24.000,271.000 23.660,271.000 23.244 C 271.000 22.111,266.054 20.168,261.250 19.412 C 258.913 19.045,257.000 18.352,257.000 17.872 C 257.000 17.392,255.875 17.000,254.500 17.000 C 253.125 17.000,252.000 16.550,252.000 16.000 C 252.000 15.450,250.238 15.000,248.083 15.000 C 245.929 15.000,244.017 14.572,243.833 14.050 C 243.650 13.527,239.338 12.788,234.250 12.406 C 229.162 12.025,225.000 11.328,225.000 10.857 C 225.000 10.385,213.750 10.000,200.000 10.000 C 186.250 10.000,175.000 10.385,175.000 10.857 M212.000 33.848 C 212.000 34.314,217.287 34.996,223.750 35.365 C 230.213 35.733,235.650 36.476,235.833 37.017 C 236.017 37.558,237.704 38.000,239.583 38.000 C 241.463 38.000,243.000 38.450,243.000 39.000 C 243.000 39.550,244.575 40.000,246.500 40.000 C 248.425 40.000,250.000 40.450,250.000 41.000 C 250.000 41.550,251.125 42.000,252.500 42.000 C 253.875 42.000,255.000 42.422,255.000 42.939 C 255.000 43.455,257.025 44.181,259.500 44.552 C 261.975 44.923,264.000 45.626,264.000 46.114 C 264.000 46.601,264.900 47.000,266.000 47.000 C 267.100 47.000,268.000 47.450,268.000 48.000 C 268.000 48.550,268.675 49.000,269.500 49.000 C 270.325 49.000,271.000 49.400,271.000 49.889 C 271.000 50.377,272.575 51.073,274.500 51.434 C 276.425 51.795,278.000 52.520,278.000 53.045 C 278.000 53.570,278.900 54.000,280.000 54.000 C 281.100 54.000,282.000 54.450,282.000 55.000 C 282.000 55.550,282.576 56.000,283.279 56.000 C 283.983 56.000,285.207 56.900,286.000 58.000 C 286.793 59.100,288.256 60.000,289.252 60.000 C 290.248 60.000,291.322 60.675,291.638 61.500 C 291.955 62.325,292.966 63.000,293.886 63.000 C 294.806 63.000,296.207 63.900,297.000 65.000 C 297.793 66.100,299.027 67.000,299.743 67.000 C 300.459 67.000,303.191 69.250,305.814 72.000 C 308.437 74.750,311.252 77.000,312.071 77.000 C 312.889 77.000,314.220 77.955,315.029 79.123 C 316.883 81.797,318.203 83.117,320.877 84.971 C 322.045 85.780,323.000 87.169,323.000 88.058 C 323.000 88.947,325.013 91.435,327.473 93.587 C 329.933 95.739,331.958 98.042,331.973 98.705 C 331.988 99.367,333.125 101.034,334.500 102.409 C 335.875 103.784,337.000 105.556,337.000 106.348 C 337.000 107.139,337.675 108.045,338.500 108.362 C 339.325 108.678,340.000 109.851,340.000 110.969 C 340.000 112.086,340.450 113.000,341.000 113.000 C 341.550 113.000,342.000 113.675,342.000 114.500 C 342.000 115.325,342.450 116.000,343.000 116.000 C 343.550 116.000,344.000 116.801,344.000 117.779 C 344.000 118.758,344.898 120.206,345.995 120.997 C 347.093 121.788,348.268 123.912,348.607 125.718 C 348.945 127.523,349.623 129.000,350.111 129.000 C 350.600 129.000,351.000 130.125,351.000 131.500 C 351.000 132.875,351.450 134.000,352.000 134.000 C 352.550 134.000,353.000 134.900,353.000 136.000 C 353.000 137.100,353.399 138.000,353.886 138.000 C 354.374 138.000,355.077 140.025,355.448 142.500 C 355.819 144.975,356.545 147.000,357.061 147.000 C 357.578 147.000,358.000 148.575,358.000 150.500 C 358.000 152.425,358.450 154.000,359.000 154.000 C 359.550 154.000,360.000 155.125,360.000 156.500 C 360.000 157.875,360.450 159.000,361.000 159.000 C 361.550 159.000,362.000 160.987,362.000 163.417 C 362.000 166.061,362.502 168.001,363.250 168.250 C 364.215 168.572,364.500 175.822,364.500 200.000 C 364.500 224.178,364.215 231.428,363.250 231.750 C 362.563 231.979,362.000 233.704,362.000 235.583 C 362.000 237.463,361.550 239.000,361.000 239.000 C 360.450 239.000,360.000 240.575,360.000 242.500 C 360.000 244.425,359.550 246.000,359.000 246.000 C 358.450 246.000,358.000 247.350,358.000 249.000 C 358.000 250.650,357.592 252.000,357.094 252.000 C 356.595 252.000,355.878 254.250,355.500 257.000 C 355.122 259.750,354.405 262.000,353.906 262.000 C 353.408 262.000,353.000 262.900,353.000 264.000 C 353.000 265.100,352.550 266.000,352.000 266.000 C 351.450 266.000,351.000 266.675,351.000 267.500 C 351.000 268.325,350.600 269.000,350.111 269.000 C 349.623 269.000,348.927 270.575,348.566 272.500 C 348.205 274.425,347.480 276.000,346.955 276.000 C 346.430 276.000,346.000 276.900,346.000 278.000 C 346.000 279.100,345.550 280.000,345.000 280.000 C 344.450 280.000,344.000 280.870,344.000 281.933 C 344.000 282.996,343.154 284.134,342.119 284.462 C 341.041 284.804,339.977 286.367,339.626 288.122 C 339.289 289.807,337.660 292.449,336.006 293.994 C 334.353 295.539,333.000 297.459,333.000 298.261 C 333.000 299.063,331.875 300.565,330.500 301.597 C 329.125 302.630,328.000 303.996,328.000 304.633 C 328.000 305.734,315.528 319.000,314.492 319.000 C 314.222 319.000,314.000 318.325,314.000 317.500 C 314.000 316.675,313.550 316.000,313.000 316.000 C 312.450 316.000,312.000 314.200,312.000 312.000 C 312.000 309.800,311.550 308.000,311.000 308.000 C 310.450 308.000,310.000 306.875,310.000 305.500 C 310.000 304.125,309.601 303.000,309.114 303.000 C 308.626 303.000,307.923 300.975,307.552 298.500 C 307.181 296.025,306.455 294.000,305.939 294.000 C 305.422 294.000,305.000 293.325,305.000 292.500 C 305.000 291.675,304.550 291.000,304.000 291.000 C 303.450 291.000,303.000 290.100,303.000 289.000 C 303.000 287.900,302.586 287.000,302.079 287.000 C 301.573 287.000,300.838 285.538,300.445 283.751 C 300.053 281.964,298.892 279.774,297.866 278.884 C 296.840 277.994,296.000 276.855,296.000 276.353 C 296.000 275.852,295.100 274.793,294.000 274.000 C 292.900 273.207,292.000 271.942,292.000 271.189 C 292.000 269.333,272.495 250.000,270.623 250.000 C 269.805 250.000,268.849 249.100,268.500 248.000 C 268.151 246.900,266.996 246.000,265.933 246.000 C 264.870 246.000,264.000 245.550,264.000 245.000 C 264.000 244.450,263.086 244.000,261.969 244.000 C 260.851 244.000,259.678 243.325,259.362 242.500 C 259.045 241.675,258.127 241.000,257.322 241.000 C 255.128 241.000,252.152 237.783,253.829 237.224 C 254.550 236.983,256.121 235.705,257.320 234.382 C 262.075 229.138,263.811 227.440,265.862 226.029 C 267.038 225.220,268.000 223.744,268.000 222.748 C 268.000 221.752,268.675 220.678,269.500 220.362 C 270.325 220.045,271.000 219.034,271.000 218.114 C 271.000 217.194,271.898 215.794,272.995 215.003 C 274.093 214.212,275.268 212.088,275.607 210.282 C 275.945 208.477,276.623 207.000,277.111 207.000 C 277.600 207.000,278.000 205.875,278.000 204.500 C 278.000 203.125,278.450 202.000,279.000 202.000 C 279.550 202.000,280.000 201.100,280.000 200.000 C 280.000 198.900,280.450 198.000,281.000 198.000 C 281.550 198.000,282.000 196.463,282.000 194.583 C 282.000 192.704,282.540 190.987,283.200 190.767 C 284.077 190.474,284.400 185.285,284.400 171.500 C 284.400 157.715,284.077 152.526,283.200 152.233 C 282.540 152.013,282.000 150.746,282.000 149.417 C 282.000 148.088,281.550 147.000,281.000 147.000 C 280.450 147.000,280.000 145.650,280.000 144.000 C 280.000 142.350,279.550 141.000,279.000 141.000 C 278.450 141.000,278.000 139.875,278.000 138.500 C 278.000 137.125,277.600 136.000,277.111 136.000 C 276.623 136.000,275.945 134.523,275.607 132.718 C 275.268 130.912,274.093 128.788,272.995 127.997 C 271.898 127.206,271.000 126.176,271.000 125.708 C 271.000 125.240,270.325 124.182,269.500 123.357 C 268.675 122.532,268.000 121.089,268.000 120.149 C 268.000 119.210,267.038 117.780,265.862 116.971 C 264.686 116.162,262.649 114.375,261.335 113.000 C 255.591 106.990,252.246 104.000,251.266 104.000 C 250.813 104.000,249.793 103.100,249.000 102.000 C 248.207 100.900,246.744 100.000,245.748 100.000 C 244.752 100.000,243.678 99.325,243.362 98.500 C 243.045 97.675,241.934 97.000,240.893 97.000 C 239.852 97.000,239.000 96.550,239.000 96.000 C 239.000 95.450,237.875 95.000,236.500 95.000 C 235.125 95.000,234.000 94.578,234.000 94.061 C 234.000 93.545,231.975 92.819,229.500 92.448 C 227.025 92.077,225.000 91.374,225.000 90.886 C 225.000 90.399,223.875 90.000,222.500 90.000 C 221.125 90.000,220.000 89.550,220.000 89.000 C 220.000 88.422,216.833 88.000,212.500 88.000 C 208.167 88.000,205.000 87.578,205.000 87.000 C 205.000 86.444,202.333 86.000,199.000 86.000 C 195.667 86.000,193.000 86.444,193.000 87.000 C 193.000 87.564,190.167 88.000,186.500 88.000 C 182.833 88.000,180.000 88.436,180.000 89.000 C 180.000 89.550,178.875 90.000,177.500 90.000 C 176.125 90.000,175.000 90.418,175.000 90.928 C 175.000 91.438,172.525 92.165,169.500 92.543 C 166.475 92.921,164.000 93.629,164.000 94.115 C 164.000 94.602,163.325 95.000,162.500 95.000 C 161.675 95.000,161.000 95.450,161.000 96.000 C 161.000 96.550,160.148 97.000,159.107 97.000 C 158.066 97.000,156.955 97.675,156.638 98.500 C 156.322 99.325,155.248 100.000,154.252 100.000 C 153.256 100.000,151.793 100.900,151.000 102.000 C 150.207 103.100,149.187 104.000,148.734 104.000 C 147.790 104.000,144.199 107.210,138.665 113.000 C 137.351 114.375,135.356 116.131,134.232 116.903 C 133.109 117.674,131.940 119.550,131.636 121.072 C 131.317 122.666,130.217 124.114,129.041 124.487 C 127.914 124.845,127.000 126.000,127.000 127.067 C 127.000 128.130,126.570 129.000,126.045 129.000 C 125.520 129.000,124.795 130.575,124.434 132.500 C 124.073 134.425,123.377 136.000,122.889 136.000 C 122.400 136.000,122.000 136.900,122.000 138.000 C 122.000 139.100,121.550 140.000,121.000 140.000 C 120.450 140.000,120.000 141.125,120.000 142.500 C 120.000 143.875,119.550 145.000,119.000 145.000 C 118.450 145.000,118.000 146.537,118.000 148.417 C 118.000 150.296,117.455 152.015,116.788 152.237 C 115.018 152.827,114.981 190.160,116.750 190.750 C 117.438 190.979,118.000 192.704,118.000 194.583 C 118.000 196.462,118.450 198.000,119.000 198.000 C 119.550 198.000,120.000 198.900,120.000 200.000 C 120.000 201.100,120.450 202.000,121.000 202.000 C 121.550 202.000,122.000 203.125,122.000 204.500 C 122.000 205.875,122.400 207.000,122.889 207.000 C 123.377 207.000,124.055 208.477,124.393 210.282 C 124.732 212.088,125.907 214.212,127.005 215.003 C 128.102 215.794,129.000 217.194,129.000 218.114 C 129.000 219.034,129.675 220.045,130.500 220.362 C 131.325 220.678,132.000 221.752,132.000 222.748 C 132.000 223.744,132.964 225.220,134.143 226.029 C 136.155 227.411,137.236 228.470,142.693 234.409 C 143.899 235.721,145.462 236.987,146.165 237.222 C 148.048 237.849,142.803 242.763,139.336 243.619 C 137.776 244.005,135.772 245.148,134.883 246.160 C 133.993 247.172,132.960 248.000,132.587 248.000 C 132.214 248.000,130.784 249.125,129.409 250.500 C 128.034 251.875,126.458 253.000,125.906 253.000 C 124.826 253.000,111.000 266.405,111.000 267.453 C 111.000 268.149,109.662 269.854,106.250 273.503 C 105.013 274.826,104.000 276.214,104.000 276.587 C 104.000 276.960,103.160 277.994,102.134 278.884 C 101.108 279.774,99.947 281.964,99.555 283.751 C 99.162 285.538,98.427 287.000,97.921 287.000 C 97.414 287.000,97.000 287.900,97.000 289.000 C 97.000 290.100,96.550 291.000,96.000 291.000 C 95.450 291.000,95.000 291.675,95.000 292.500 C 95.000 293.325,94.578 294.000,94.061 294.000 C 93.545 294.000,92.819 296.025,92.448 298.500 C 92.077 300.975,91.374 303.000,90.886 303.000 C 90.399 303.000,90.000 304.125,90.000 305.500 C 90.000 306.875,89.550 308.000,89.000 308.000 C 88.450 308.000,88.000 309.800,88.000 312.000 C 88.000 314.200,87.550 316.000,87.000 316.000 C 86.450 316.000,86.000 316.675,86.000 317.500 C 86.000 318.325,85.778 319.000,85.508 319.000 C 84.586 319.000,72.000 305.796,72.000 304.829 C 72.000 304.299,70.425 302.380,68.500 300.565 C 66.575 298.749,65.000 296.695,65.000 295.999 C 65.000 295.304,64.164 294.007,63.143 293.117 C 62.122 292.228,60.966 290.488,60.576 289.250 C 60.185 288.012,59.446 287.000,58.933 287.000 C 58.420 287.000,58.000 286.325,58.000 285.500 C 58.000 284.675,57.550 284.000,57.000 284.000 C 56.450 284.000,56.000 283.100,56.000 282.000 C 56.000 280.900,55.550 280.000,55.000 280.000 C 54.450 280.000,54.000 279.100,54.000 278.000 C 54.000 276.900,53.570 276.000,53.045 276.000 C 52.520 276.000,51.795 274.425,51.434 272.500 C 51.073 270.575,50.377 269.000,49.889 269.000 C 49.400 269.000,49.000 268.325,49.000 267.500 C 49.000 266.675,48.550 266.000,48.000 266.000 C 47.450 266.000,47.000 265.100,47.000 264.000 C 47.000 262.900,46.592 262.000,46.094 262.000 C 45.595 262.000,44.878 259.750,44.500 257.000 C 44.122 254.250,43.405 252.000,42.906 252.000 C 42.408 252.000,42.000 250.650,42.000 249.000 C 42.000 247.350,41.550 246.000,41.000 246.000 C 40.450 246.000,40.000 244.875,40.000 243.500 C 40.000 242.125,39.550 241.000,39.000 241.000 C 38.450 241.000,38.000 239.012,38.000 236.583 C 38.000 233.939,37.498 232.000,36.750 231.750 C 35.784 231.428,35.500 223.978,35.500 199.000 C 35.500 174.023,35.784 166.572,36.750 166.250 C 37.438 166.021,38.000 164.296,38.000 162.417 C 38.000 160.537,38.450 159.000,39.000 159.000 C 39.550 159.000,40.000 157.425,40.000 155.500 C 40.000 153.575,40.450 152.000,41.000 152.000 C 41.550 152.000,42.000 150.875,42.000 149.500 C 42.000 148.125,42.391 147.000,42.868 147.000 C 43.346 147.000,43.992 145.097,44.304 142.772 C 44.616 140.446,45.350 138.383,45.935 138.188 C 46.521 137.993,47.000 136.521,47.000 134.917 C 47.000 133.313,47.450 132.000,48.000 132.000 C 48.550 132.000,49.000 131.325,49.000 130.500 C 49.000 129.675,49.400 129.000,49.889 129.000 C 50.377 129.000,51.073 127.425,51.434 125.500 C 51.795 123.575,52.520 122.000,53.045 122.000 C 53.570 122.000,54.000 121.199,54.000 120.221 C 54.000 119.242,54.900 117.793,56.000 117.000 C 57.100 116.207,58.000 114.983,58.000 114.279 C 58.000 113.576,58.450 113.000,59.000 113.000 C 59.550 113.000,60.000 112.086,60.000 110.969 C 60.000 109.851,60.675 108.678,61.500 108.362 C 62.325 108.045,63.000 107.139,63.000 106.348 C 63.000 105.556,64.125 103.784,65.500 102.409 C 66.875 101.034,68.000 99.460,68.000 98.911 C 68.000 98.362,70.475 95.534,73.500 92.628 C 76.525 89.721,79.000 86.621,79.000 85.739 C 79.000 84.857,79.877 83.856,80.949 83.516 C 82.021 83.176,83.176 82.021,83.516 80.949 C 83.856 79.877,84.857 79.000,85.739 79.000 C 86.621 79.000,89.721 76.525,92.628 73.500 C 95.534 70.475,98.362 68.000,98.911 68.000 C 99.460 68.000,101.034 66.875,102.409 65.500 C 103.784 64.125,105.556 63.000,106.348 63.000 C 107.139 63.000,108.045 62.325,108.362 61.500 C 108.678 60.675,109.851 60.000,110.969 60.000 C 112.086 60.000,113.000 59.550,113.000 59.000 C 113.000 58.450,113.576 58.000,114.279 58.000 C 114.983 58.000,116.207 57.100,117.000 56.000 C 117.793 54.900,119.242 54.000,120.221 54.000 C 121.199 54.000,122.000 53.570,122.000 53.045 C 122.000 52.520,123.575 51.795,125.500 51.434 C 127.425 51.073,129.000 50.377,129.000 49.889 C 129.000 49.400,129.675 49.000,130.500 49.000 C 131.325 49.000,132.000 48.550,132.000 48.000 C 132.000 47.450,133.313 47.000,134.917 47.000 C 136.521 47.000,137.993 46.521,138.188 45.935 C 138.383 45.350,140.446 44.616,142.772 44.304 C 145.097 43.992,147.000 43.346,147.000 42.868 C 147.000 42.391,148.125 42.000,149.500 42.000 C 150.875 42.000,152.000 41.550,152.000 41.000 C 152.000 40.450,153.125 40.000,154.500 40.000 C 155.875 40.000,157.000 39.550,157.000 39.000 C 157.000 38.450,158.988 38.000,161.417 38.000 C 163.846 38.000,165.990 37.530,166.182 36.955 C 166.389 36.333,172.295 35.664,180.765 35.301 C 188.594 34.967,195.000 34.312,195.000 33.846 C 195.000 33.381,198.825 33.000,203.500 33.000 C 208.175 33.000,212.000 33.381,212.000 33.848 M212.000 117.000 C 212.000 117.550,213.350 118.000,215.000 118.000 C 216.650 118.000,218.000 118.450,218.000 119.000 C 218.000 119.550,219.125 120.000,220.500 120.000 C 221.875 120.000,223.000 120.450,223.000 121.000 C 223.000 121.550,223.852 122.000,224.893 122.000 C 225.934 122.000,227.045 122.675,227.362 123.500 C 227.678 124.325,228.671 125.000,229.567 125.000 C 230.464 125.000,232.459 126.350,234.000 128.000 C 235.541 129.650,237.297 131.000,237.901 131.000 C 238.506 131.000,239.000 131.449,239.000 131.998 C 239.000 132.546,240.575 134.665,242.500 136.706 C 244.425 138.747,246.000 140.899,246.000 141.488 C 246.000 142.077,246.900 143.207,248.000 144.000 C 249.100 144.793,250.000 146.017,250.000 146.721 C 250.000 147.424,250.414 148.000,250.920 148.000 C 251.427 148.000,252.154 150.925,252.537 154.500 C 252.920 158.075,253.631 161.000,254.116 161.000 C 254.602 161.000,255.000 165.725,255.000 171.500 C 255.000 177.275,254.613 182.000,254.139 182.000 C 253.666 182.000,252.999 184.360,252.658 187.244 C 252.316 190.128,251.578 192.641,251.018 192.827 C 250.458 193.014,250.000 193.804,250.000 194.583 C 250.000 195.363,249.550 196.000,249.000 196.000 C 248.450 196.000,248.000 196.900,248.000 198.000 C 248.000 199.100,247.550 200.000,247.000 200.000 C 246.450 200.000,246.000 200.659,246.000 201.465 C 246.000 203.267,233.488 216.000,231.718 216.000 C 231.016 216.000,229.794 216.898,229.003 217.995 C 228.212 219.093,226.088 220.268,224.282 220.607 C 222.477 220.945,221.000 221.623,221.000 222.111 C 221.000 222.600,219.875 223.000,218.500 223.000 C 217.125 223.000,216.000 223.450,216.000 224.000 C 216.000 224.550,214.425 225.000,212.500 225.000 C 210.575 225.000,209.000 225.450,209.000 226.000 C 209.000 226.593,205.333 227.000,200.000 227.000 C 194.667 227.000,191.000 226.593,191.000 226.000 C 191.000 225.450,189.425 225.000,187.500 225.000 C 185.575 225.000,184.000 224.550,184.000 224.000 C 184.000 223.450,182.875 223.000,181.500 223.000 C 180.125 223.000,179.000 222.600,179.000 222.111 C 179.000 221.623,177.523 220.945,175.718 220.607 C 173.912 220.268,171.788 219.093,170.997 217.995 C 170.206 216.898,168.973 216.000,168.257 216.000 C 166.625 216.000,156.000 205.298,156.000 203.655 C 156.000 202.987,155.100 201.793,154.000 201.000 C 152.900 200.207,152.000 198.758,152.000 197.779 C 152.000 196.801,151.550 196.000,151.000 196.000 C 150.450 196.000,150.000 195.363,150.000 194.583 C 150.000 193.804,149.542 193.014,148.982 192.827 C 148.422 192.641,147.684 190.128,147.342 187.244 C 147.001 184.360,146.334 182.000,145.861 182.000 C 145.387 182.000,145.000 177.275,145.000 171.500 C 145.000 165.725,145.387 161.000,145.861 161.000 C 146.334 161.000,147.001 158.640,147.342 155.756 C 147.684 152.872,148.422 150.359,148.982 150.173 C 149.542 149.986,150.000 148.845,150.000 147.637 C 150.000 146.430,150.900 144.793,152.000 144.000 C 153.100 143.207,154.000 142.055,154.000 141.439 C 154.000 139.673,168.701 125.000,170.471 125.000 C 171.347 125.000,172.322 124.325,172.638 123.500 C 172.955 122.675,174.066 122.000,175.107 122.000 C 176.148 122.000,177.000 121.550,177.000 121.000 C 177.000 120.450,178.125 120.000,179.500 120.000 C 180.875 120.000,182.000 119.550,182.000 119.000 C 182.000 118.450,183.350 118.000,185.000 118.000 C 186.650 118.000,188.000 117.550,188.000 117.000 C 188.000 116.389,192.667 116.000,200.000 116.000 C 207.333 116.000,212.000 116.389,212.000 117.000 M216.000 257.899 C 216.000 258.393,219.150 259.113,223.000 259.500 C 226.850 259.887,230.000 260.607,230.000 261.101 C 230.000 261.596,230.900 262.000,232.000 262.000 C 233.100 262.000,234.000 262.450,234.000 263.000 C 234.000 263.550,234.675 264.000,235.500 264.000 C 236.325 264.000,237.000 264.450,237.000 265.000 C 237.000 265.550,238.302 266.000,239.893 266.000 C 241.542 266.000,243.034 266.645,243.362 267.500 C 243.678 268.325,244.752 269.000,245.748 269.000 C 246.744 269.000,248.207 269.900,249.000 271.000 C 249.793 272.100,250.811 273.000,251.263 273.000 C 252.214 273.000,254.190 274.558,257.303 277.761 C 260.100 280.640,263.360 283.900,266.239 286.697 C 269.295 289.667,271.000 291.777,271.000 292.590 C 271.000 292.962,271.840 293.994,272.866 294.884 C 273.892 295.774,275.053 297.964,275.445 299.751 C 275.838 301.538,276.573 303.000,277.079 303.000 C 277.586 303.000,278.000 303.900,278.000 305.000 C 278.000 306.100,278.450 307.000,279.000 307.000 C 279.550 307.000,280.000 308.125,280.000 309.500 C 280.000 310.875,280.450 312.000,281.000 312.000 C 281.550 312.000,282.000 313.087,282.000 314.417 C 282.000 315.746,282.440 316.983,282.977 317.167 C 283.515 317.350,284.256 321.438,284.625 326.250 C 284.993 331.063,285.679 335.000,286.148 335.000 C 286.616 335.000,287.000 336.125,287.000 337.500 C 287.000 338.875,286.580 340.000,286.067 340.000 C 285.554 340.000,284.849 340.900,284.500 342.000 C 284.151 343.100,282.996 344.000,281.933 344.000 C 280.870 344.000,280.000 344.450,280.000 345.000 C 280.000 345.550,279.100 346.000,278.000 346.000 C 276.900 346.000,276.000 346.430,276.000 346.955 C 276.000 347.480,274.425 348.205,272.500 348.566 C 270.575 348.927,269.000 349.623,269.000 350.111 C 269.000 350.600,268.325 351.000,267.500 351.000 C 266.675 351.000,266.000 351.450,266.000 352.000 C 266.000 352.550,264.650 353.000,263.000 353.000 C 261.350 353.000,260.000 353.445,260.000 353.988 C 260.000 354.532,258.200 355.264,256.000 355.616 C 253.800 355.968,252.000 356.648,252.000 357.128 C 252.000 357.608,250.650 358.000,249.000 358.000 C 247.350 358.000,246.000 358.450,246.000 359.000 C 246.000 359.550,244.425 360.000,242.500 360.000 C 240.575 360.000,239.000 360.450,239.000 361.000 C 239.000 361.550,237.013 362.000,234.583 362.000 C 231.939 362.000,229.999 362.502,229.750 363.250 C 229.429 364.212,222.578 364.500,200.000 364.500 C 177.422 364.500,170.571 364.212,170.250 363.250 C 170.001 362.502,168.061 362.000,165.417 362.000 C 162.987 362.000,161.000 361.550,161.000 361.000 C 161.000 360.450,159.425 360.000,157.500 360.000 C 155.575 360.000,154.000 359.550,154.000 359.000 C 154.000 358.450,152.650 358.000,151.000 358.000 C 149.350 358.000,148.000 357.608,148.000 357.128 C 148.000 356.648,146.200 355.968,144.000 355.616 C 141.800 355.264,140.000 354.532,140.000 353.988 C 140.000 353.445,138.650 353.000,137.000 353.000 C 135.350 353.000,134.000 352.550,134.000 352.000 C 134.000 351.450,133.325 351.000,132.500 351.000 C 131.675 351.000,131.000 350.600,131.000 350.111 C 131.000 349.623,129.425 348.927,127.500 348.566 C 125.575 348.205,124.000 347.480,124.000 346.955 C 124.000 346.430,123.100 346.000,122.000 346.000 C 120.900 346.000,120.000 345.550,120.000 345.000 C 120.000 344.450,119.109 344.000,118.019 344.000 C 114.720 344.000,113.701 318.266,116.957 317.181 C 117.531 316.990,118.000 315.746,118.000 314.417 C 118.000 313.087,118.450 312.000,119.000 312.000 C 119.550 312.000,120.000 311.100,120.000 310.000 C 120.000 308.900,120.450 308.000,121.000 308.000 C 121.550 308.000,122.000 306.875,122.000 305.500 C 122.000 304.125,122.401 303.000,122.892 303.000 C 123.382 303.000,124.066 301.875,124.411 300.500 C 124.756 299.125,125.480 298.000,126.019 298.000 C 126.559 298.000,127.000 297.199,127.000 296.221 C 127.000 295.242,127.900 293.793,129.000 293.000 C 130.100 292.207,131.000 290.999,131.000 290.315 C 131.000 289.630,132.132 288.042,133.516 286.785 C 135.869 284.648,137.101 283.435,142.702 277.739 C 145.736 274.654,147.791 273.000,148.590 273.000 C 148.962 273.000,149.994 272.160,150.884 271.134 C 151.774 270.108,153.964 268.947,155.751 268.555 C 157.538 268.162,159.000 267.427,159.000 266.921 C 159.000 266.414,159.900 266.000,161.000 266.000 C 162.100 266.000,163.000 265.550,163.000 265.000 C 163.000 264.450,163.675 264.000,164.500 264.000 C 165.325 264.000,166.000 263.550,166.000 263.000 C 166.000 262.450,167.350 262.000,169.000 262.000 C 170.650 262.000,172.000 261.572,172.000 261.050 C 172.000 260.527,174.700 259.794,178.000 259.420 C 181.300 259.047,184.000 258.350,184.000 257.871 C 184.000 257.392,191.200 257.000,200.000 257.000 C 208.800 257.000,216.000 257.404,216.000 257.899 " stroke="none" fill-rule="evenodd"></path></g></svg>