<svg version="1.1" width="400" height="400" xmlns="http://www.w3.org/2000/svg"><g><path d="M18.323 23.612 C 11.235 27.108,11.532 22.894,11.229 124.305 C 10.980 207.891,11.093 215.395,12.652 218.679 C 15.785 225.280,11.414 225.000,111.152 225.000 L 201.369 225.000 205.857 222.827 C 214.912 218.444,214.065 228.851,213.765 125.577 L 213.500 34.185 210.405 30.343 C 208.703 28.229,205.553 25.495,203.405 24.266 L 199.500 22.033 110.500 22.039 C 31.726 22.045,21.135 22.226,18.323 23.612 M186.000 136.000 L 186.000 198.000 111.500 198.000 L 37.000 198.000 37.000 136.000 L 37.000 74.000 111.500 74.000 L 186.000 74.000 186.000 136.000 M48.000 98.500 L 48.000 111.000 111.500 111.000 L 175.000 111.000 175.000 98.500 L 175.000 86.000 111.500 86.000 L 48.000 86.000 48.000 98.500 M227.500 92.822 L 224.500 93.517 224.223 108.376 C 223.962 122.316,224.055 123.183,225.723 122.392 C 226.700 121.928,232.242 121.399,238.037 121.216 C 261.314 120.481,275.000 135.831,275.000 162.672 L 275.000 173.000 261.933 173.000 L 248.865 173.000 249.539 175.250 C 249.910 176.488,250.995 178.175,251.951 179.000 C 252.907 179.825,254.996 182.300,256.594 184.500 C 258.192 186.700,259.950 189.047,260.500 189.715 C 261.986 191.521,262.837 192.589,271.486 203.500 C 280.428 214.780,280.143 214.425,283.541 218.500 C 284.917 220.150,287.046 222.959,288.271 224.743 C 289.497 226.527,290.837 227.989,291.250 227.993 C 292.325 228.003,296.000 224.179,296.000 223.050 C 296.000 222.527,296.587 221.740,297.304 221.300 C 298.021 220.860,300.122 218.363,301.973 215.750 C 303.824 213.137,305.713 211.000,306.170 211.000 C 306.626 211.000,307.000 210.425,307.000 209.722 C 307.000 209.019,307.820 207.742,308.823 206.884 C 309.825 206.025,312.591 202.550,314.968 199.161 C 317.345 195.773,319.675 193.000,320.145 193.000 C 320.615 193.000,321.000 192.347,321.000 191.550 C 321.000 190.752,321.587 189.740,322.305 189.300 C 323.023 188.860,324.910 186.700,326.498 184.500 C 328.086 182.300,329.862 180.041,330.443 179.480 C 331.598 178.366,334.000 174.336,334.000 173.514 C 334.000 173.231,327.475 173.000,319.500 173.000 L 305.000 173.000 304.938 164.750 C 304.852 153.259,303.606 143.383,301.501 137.500 C 299.095 130.778,294.748 121.579,293.782 121.167 C 293.352 120.983,293.000 120.205,293.000 119.438 C 293.000 117.079,275.386 100.000,272.953 100.000 C 272.390 100.000,270.747 99.225,269.301 98.278 C 261.753 93.332,238.432 90.288,227.500 92.822 M48.000 136.000 L 48.000 149.000 111.500 149.000 L 175.000 149.000 175.000 136.000 L 175.000 123.000 111.500 123.000 L 48.000 123.000 48.000 136.000 M48.000 174.000 L 48.000 187.000 111.500 187.000 L 175.000 187.000 175.000 174.000 L 175.000 161.000 111.500 161.000 L 48.000 161.000 48.000 174.000 M238.241 237.986 C 237.299 239.494,237.000 251.289,237.000 286.930 L 237.000 333.887 239.223 335.443 C 243.109 338.166,334.248 337.752,337.000 335.000 C 339.985 332.015,340.147 240.348,337.171 237.655 C 334.064 234.843,240.007 235.158,238.241 237.986 M350.000 305.000 L 350.000 349.000 306.000 349.000 L 262.000 349.000 262.000 354.489 C 262.000 364.695,258.305 364.000,312.548 364.000 L 359.651 364.000 361.826 361.686 C 363.995 359.376,364.000 359.265,364.000 311.841 C 364.000 257.465,364.614 261.000,355.171 261.000 L 350.000 261.000 350.000 305.000 M325.000 293.000 L 325.000 324.000 288.000 324.000 L 251.000 324.000 251.000 293.000 L 251.000 262.000 288.000 262.000 L 325.000 262.000 325.000 293.000 M262.000 280.500 L 262.000 287.000 288.000 287.000 L 314.000 287.000 314.000 280.500 L 314.000 274.000 288.000 274.000 L 262.000 274.000 262.000 280.500 M375.000 330.000 L 375.000 374.000 330.376 374.000 L 285.752 374.000 286.222 379.666 C 287.044 389.571,283.905 389.000,337.500 389.000 C 381.570 389.000,383.891 388.909,386.139 387.089 L 388.500 385.178 388.779 337.449 C 389.098 282.633,389.650 286.000,380.345 286.000 L 375.000 286.000 375.000 330.000 " stroke="none" fill-rule="evenodd"></path></g></svg>