<svg id="svg" version="1.1" width="400" height="400" xmlns="http://www.w3.org/2000/svg" xmlns:xlink="http://www.w3.org/1999/xlink" style="display: block;"><g id="svgg"><path id="path0" d="M35.547 3.253 L 32.294 6.506 31.554 97.256 C 31.147 147.168,31.141 212.642,31.539 242.753 L 32.264 297.500 35.382 300.800 C 37.097 302.615,40.340 305.203,42.588 306.550 L 46.676 309.000 82.338 309.000 L 118.000 309.000 118.000 287.500 L 118.000 266.000 96.664 266.000 L 75.327 266.000 74.664 213.335 C 74.299 184.370,74.000 134.420,74.000 102.335 L 74.000 44.000 101.500 44.000 L 129.000 44.000 129.000 72.000 L 129.000 100.000 150.000 100.000 L 171.000 100.000 171.000 52.174 L 171.000 4.349 168.686 2.174 L 166.371 0.000 102.586 0.000 L 38.800 0.000 35.547 3.253 M186.000 66.521 L 186.000 87.043 188.750 88.129 C 191.809 89.337,192.630 89.748,200.795 94.147 C 203.933 95.838,206.860 97.847,207.300 98.611 C 207.740 99.375,208.474 100.000,208.932 100.000 C 211.726 100.000,226.844 118.471,230.063 125.817 C 231.191 128.393,232.935 132.300,233.939 134.500 C 241.247 150.518,244.619 174.420,244.117 206.638 L 243.850 223.777 275.675 223.265 C 312.135 222.678,315.882 223.188,322.073 229.575 L 325.500 233.110 325.855 249.055 L 326.210 265.000 256.105 265.000 L 186.000 265.000 186.000 286.500 L 186.000 308.000 269.435 308.000 C 360.860 308.000,355.183 308.428,363.393 300.924 L 369.154 295.658 368.827 260.579 C 368.509 226.457,368.439 225.383,366.250 221.219 C 365.012 218.865,364.000 216.498,364.000 215.959 C 364.000 215.420,362.344 212.623,360.320 209.743 C 348.345 192.707,328.989 183.470,302.823 182.304 L 290.146 181.740 289.582 174.120 C 288.349 157.461,281.542 128.730,276.524 119.000 C 275.815 117.625,273.959 113.800,272.399 110.500 C 270.839 107.200,269.212 104.350,268.782 104.167 C 268.352 103.983,268.000 102.971,268.000 101.917 C 268.000 100.862,267.621 100.000,267.157 100.000 C 266.694 100.000,265.467 98.425,264.430 96.500 C 263.393 94.575,262.198 93.000,261.773 93.000 C 261.348 93.000,261.000 92.396,261.000 91.659 C 261.000 89.509,241.070 69.766,234.500 65.408 C 226.599 60.167,205.795 50.046,202.761 49.967 C 202.067 49.949,199.025 49.064,196.000 48.000 C 192.975 46.936,189.488 46.051,188.250 46.033 L 186.000 46.000 186.000 66.521 M102.000 127.000 L 102.000 142.000 152.000 142.000 L 202.000 142.000 202.000 127.000 L 202.000 112.000 152.000 112.000 L 102.000 112.000 102.000 127.000 M102.000 169.500 L 102.000 185.000 152.000 185.000 L 202.000 185.000 202.000 169.500 L 202.000 154.000 152.000 154.000 L 102.000 154.000 102.000 169.500 M102.000 211.000 L 102.000 226.000 152.000 226.000 L 202.000 226.000 202.000 211.000 L 202.000 196.000 152.000 196.000 L 102.000 196.000 102.000 211.000 M131.000 281.000 L 131.000 323.000 114.000 323.000 C 104.650 323.000,97.000 323.255,97.000 323.567 C 97.000 324.365,102.341 331.430,103.250 331.833 C 103.662 332.017,104.000 332.627,104.000 333.190 C 104.000 334.035,108.661 340.525,112.991 345.708 C 113.546 346.372,114.000 347.362,114.000 347.908 C 114.000 348.454,114.588 349.260,115.308 349.700 C 116.027 350.140,118.128 352.863,119.976 355.750 C 121.824 358.637,123.711 361.000,124.168 361.000 C 124.626 361.000,125.000 361.637,125.000 362.417 C 125.000 363.196,125.356 363.983,125.790 364.167 C 126.225 364.350,128.137 366.750,130.040 369.500 C 131.943 372.250,133.725 374.725,134.000 375.000 C 134.275 375.275,136.057 377.750,137.960 380.500 C 139.863 383.250,141.775 385.650,142.210 385.833 C 142.644 386.017,143.000 386.598,143.000 387.126 C 143.000 387.653,143.455 388.628,144.012 389.292 C 147.437 393.380,151.000 398.400,151.000 399.138 C 151.000 401.334,153.902 399.601,156.671 395.750 C 158.353 393.413,163.416 386.335,167.923 380.023 C 172.430 373.710,176.429 368.310,176.809 368.023 C 177.189 367.735,179.057 365.250,180.960 362.500 C 182.863 359.750,184.775 357.350,185.210 357.167 C 185.644 356.983,186.000 356.196,186.000 355.417 C 186.000 354.637,186.338 353.982,186.750 353.960 C 187.162 353.937,189.075 351.466,191.000 348.467 C 192.925 345.469,194.838 343.012,195.250 343.008 C 195.662 343.004,196.000 342.524,196.000 341.941 C 196.000 340.809,201.997 332.724,203.250 332.167 C 203.662 331.983,204.000 331.358,204.000 330.777 C 204.000 330.196,204.630 329.221,205.399 328.610 C 206.168 328.000,207.099 326.488,207.466 325.250 L 208.135 323.000 191.067 323.000 L 174.000 323.000 174.000 281.000 L 174.000 239.000 152.500 239.000 L 131.000 239.000 131.000 281.000 " stroke="none" fill="#000000" fill-rule="evenodd"></path></g></svg>