<svg version="1.1" width="400" height="400" xmlns="http://www.w3.org/2000/svg"><g><path d="M189.000 78.853 C 184.487 79.826,175.000 84.112,175.000 85.178 C 175.000 85.630,174.311 86.000,173.469 86.000 C 172.626 86.000,171.678 86.675,171.362 87.500 C 171.045 88.325,170.159 89.000,169.393 89.000 C 168.627 89.000,168.000 89.369,168.000 89.820 C 168.000 90.271,166.652 92.150,165.004 93.995 C 155.427 104.722,151.797 130.154,158.333 140.731 C 158.637 141.221,137.593 162.911,111.569 188.931 L 64.254 236.239 58.589 234.119 C 31.738 224.073,0.000 247.448,-0.000 277.270 C -0.000 284.503,4.186 300.000,6.140 300.000 C 6.613 300.000,7.000 300.704,7.000 301.565 C 7.000 303.023,14.756 311.336,19.726 315.204 C 29.194 322.573,53.737 324.955,62.715 319.376 C 63.933 318.619,65.536 318.000,66.276 318.000 C 67.017 318.000,68.495 317.190,69.561 316.200 C 70.628 315.209,72.287 314.098,73.250 313.731 C 74.212 313.363,75.000 312.599,75.000 312.031 C 75.000 311.464,75.675 311.000,76.500 311.000 C 77.325 311.000,78.000 310.631,78.000 310.180 C 78.000 309.729,79.268 307.939,80.819 306.203 C 82.369 304.466,84.109 302.023,84.685 300.773 C 85.261 299.523,86.320 297.261,87.037 295.746 L 88.343 292.991 200.397 293.246 L 312.452 293.500 313.463 296.500 C 314.019 298.150,314.728 299.725,315.038 300.000 C 315.349 300.275,317.104 302.617,318.939 305.205 C 321.804 309.246,332.622 317.988,334.781 318.006 C 335.177 318.010,336.850 318.761,338.500 319.677 C 348.013 324.954,371.271 321.391,382.461 312.942 C 407.312 294.179,404.650 251.143,377.816 237.858 C 367.655 232.827,366.451 232.516,355.839 232.173 C 346.900 231.883,344.458 232.146,340.721 233.799 L 336.263 235.771 289.132 188.632 L 242.000 141.493 244.000 134.499 C 247.066 123.778,245.611 108.816,240.823 101.846 C 239.820 100.386,239.000 98.799,239.000 98.318 C 239.000 97.278,229.135 87.037,226.409 85.247 C 217.177 79.186,200.603 76.353,189.000 78.853 M205.998 110.499 C 218.983 117.214,214.863 136.000,200.404 136.000 C 186.081 136.000,181.350 118.787,193.630 111.353 C 198.107 108.643,201.901 108.381,205.998 110.499 M200.474 168.000 C 206.423 168.000,210.355 167.437,213.752 166.098 L 218.578 164.195 265.899 211.515 C 292.818 238.433,312.932 259.301,312.551 259.917 C 311.791 261.147,88.853 261.520,87.627 260.294 C 87.238 259.905,108.362 238.142,134.569 211.931 L 182.217 164.275 187.119 166.137 C 190.497 167.421,194.650 168.000,200.474 168.000 M364.433 268.058 C 371.383 275.569,367.993 287.124,357.959 290.130 C 352.497 291.767,343.105 287.790,343.031 283.809 C 343.014 282.879,342.550 281.840,342.000 281.500 C 341.450 281.160,341.000 279.588,341.000 278.006 C 341.000 265.000,355.793 258.720,364.433 268.058 M51.253 265.135 C 66.654 273.378,56.631 296.133,40.329 289.935 C 35.006 287.911,32.000 283.190,32.000 276.854 C 32.000 267.900,43.425 260.946,51.253 265.135 " stroke="none" fill-rule="evenodd"></path></g></svg>