<svg version="1.1" width="400" height="400" xmlns="http://www.w3.org/2000/svg"><g><path d="M62.250 54.540 C 59.840 57.063,59.000 58.856,59.000 61.472 C 59.000 63.412,58.550 65.000,58.000 65.000 C 57.340 65.000,57.000 99.500,57.000 166.500 C 57.000 233.500,57.340 268.000,58.000 268.000 C 58.550 268.000,59.000 269.820,59.000 272.045 C 59.000 276.338,62.361 281.000,65.455 281.000 C 66.305 281.000,67.000 281.450,67.000 282.000 C 67.000 282.647,79.024 283.000,101.071 283.000 C 136.846 283.000,138.000 283.138,138.000 287.429 C 138.000 288.293,138.450 289.000,139.000 289.000 C 139.550 289.000,140.000 289.710,140.000 290.578 C 140.000 291.447,141.800 293.886,144.000 296.000 C 146.200 298.114,148.000 300.328,148.000 300.922 C 148.000 301.515,148.801 302.000,149.779 302.000 C 150.758 302.000,152.207 302.900,153.000 304.000 C 153.793 305.100,155.467 306.000,156.721 306.000 C 157.974 306.000,159.000 306.450,159.000 307.000 C 159.000 307.550,160.350 308.000,162.000 308.000 C 163.650 308.000,165.000 308.450,165.000 309.000 C 165.000 309.609,169.500 310.000,176.500 310.000 C 183.500 310.000,188.000 309.609,188.000 309.000 C 188.000 308.450,188.900 308.000,190.000 308.000 C 191.100 308.000,192.000 307.550,192.000 307.000 C 192.000 306.450,193.251 306.000,194.779 306.000 C 196.411 306.000,198.153 305.174,199.000 304.000 C 199.793 302.900,201.242 302.000,202.221 302.000 C 203.199 302.000,204.000 301.506,204.000 300.901 C 204.000 300.297,205.350 298.541,207.000 297.000 C 208.650 295.459,210.000 293.478,210.000 292.599 C 210.000 291.719,210.450 291.000,211.000 291.000 C 211.550 291.000,212.000 290.176,212.000 289.169 C 212.000 288.162,213.125 286.736,214.500 286.000 C 216.499 284.930,217.000 283.894,217.000 280.831 C 217.000 278.724,217.450 277.000,218.000 277.000 C 218.596 277.000,219.000 273.167,219.000 267.500 C 219.000 261.833,218.596 258.000,218.000 258.000 C 217.450 258.000,217.000 256.276,217.000 254.169 C 217.000 251.106,216.499 250.070,214.500 249.000 C 213.125 248.264,212.000 246.838,212.000 245.831 C 212.000 244.824,211.550 244.000,211.000 244.000 C 210.450 244.000,210.000 243.085,210.000 241.967 C 210.000 239.716,203.824 233.000,201.754 233.000 C 201.032 233.000,199.793 232.100,199.000 231.000 C 198.207 229.900,196.758 229.000,195.779 229.000 C 194.801 229.000,194.000 228.550,194.000 228.000 C 194.000 227.450,191.975 227.000,189.500 227.000 C 187.025 227.000,185.000 226.550,185.000 226.000 C 185.000 225.407,181.333 225.000,176.000 225.000 C 170.667 225.000,167.000 225.407,167.000 226.000 C 167.000 226.550,165.200 227.000,163.000 227.000 C 160.800 227.000,159.000 227.450,159.000 228.000 C 159.000 228.550,157.875 229.000,156.500 229.000 C 155.125 229.000,154.000 229.450,154.000 230.000 C 154.000 230.550,153.315 231.000,152.478 231.000 C 150.221 231.000,140.000 241.631,140.000 243.978 C 140.000 245.090,139.550 246.000,139.000 246.000 C 138.450 246.000,138.000 246.707,138.000 247.571 C 138.000 251.695,136.183 252.000,111.571 252.000 L 88.000 252.000 88.000 182.500 L 88.000 113.000 198.000 113.000 L 308.000 113.000 308.000 182.500 L 308.000 252.000 288.000 252.000 L 268.000 252.000 268.000 248.000 C 268.000 245.800,267.550 244.000,267.000 244.000 C 266.450 244.000,266.000 242.425,266.000 240.500 C 266.000 238.575,265.550 237.000,265.000 237.000 C 264.450 237.000,264.000 235.650,264.000 234.000 C 264.000 232.350,263.550 231.000,263.000 231.000 C 262.450 231.000,262.000 230.100,262.000 229.000 C 262.000 227.900,261.550 227.000,261.000 227.000 C 260.450 227.000,260.000 226.100,260.000 225.000 C 260.000 223.900,259.550 223.000,259.000 223.000 C 258.450 223.000,258.000 222.100,258.000 221.000 C 258.000 219.900,257.550 219.000,257.000 219.000 C 256.450 219.000,256.000 218.100,256.000 217.000 C 256.000 215.900,255.550 215.000,255.000 215.000 C 254.450 215.000,254.000 214.506,254.000 213.901 C 254.000 213.297,252.650 211.541,251.000 210.000 C 249.350 208.459,248.000 206.683,248.000 206.053 C 248.000 204.743,243.507 200.000,242.266 200.000 C 241.813 200.000,240.793 199.100,240.000 198.000 C 239.207 196.900,237.948 196.000,237.201 196.000 C 236.454 196.000,234.114 194.200,232.000 192.000 C 229.886 189.800,227.495 188.000,226.685 188.000 C 225.876 188.000,224.955 187.325,224.638 186.500 C 224.322 185.675,223.374 185.000,222.531 185.000 C 221.689 185.000,221.000 184.550,221.000 184.000 C 221.000 183.450,220.100 183.000,219.000 183.000 C 217.900 183.000,217.000 182.550,217.000 182.000 C 217.000 181.450,215.875 181.000,214.500 181.000 C 213.125 181.000,212.000 180.550,212.000 180.000 C 212.000 179.450,211.100 179.000,210.000 179.000 C 208.900 179.000,208.000 178.550,208.000 178.000 C 208.000 177.450,206.200 177.000,204.000 177.000 C 201.800 177.000,200.000 176.550,200.000 176.000 C 200.000 175.444,197.333 175.000,194.000 175.000 C 190.667 175.000,188.000 174.556,188.000 174.000 C 188.000 173.391,183.500 173.000,176.500 173.000 C 169.500 173.000,165.000 173.391,165.000 174.000 C 165.000 174.564,162.167 175.000,158.500 175.000 C 154.833 175.000,152.000 175.436,152.000 176.000 C 152.000 176.550,150.200 177.000,148.000 177.000 C 145.800 177.000,144.000 177.450,144.000 178.000 C 144.000 178.550,143.100 179.000,142.000 179.000 C 140.900 179.000,140.000 179.450,140.000 180.000 C 140.000 180.550,139.100 181.000,138.000 181.000 C 136.900 181.000,136.000 181.450,136.000 182.000 C 136.000 182.550,135.100 183.000,134.000 183.000 C 132.296 183.000,132.000 183.667,132.000 187.500 C 132.000 189.975,132.450 192.000,133.000 192.000 C 133.550 192.000,134.000 192.900,134.000 194.000 C 134.000 195.100,134.450 196.000,135.000 196.000 C 135.550 196.000,136.000 196.900,136.000 198.000 C 136.000 199.100,136.450 200.000,137.000 200.000 C 137.550 200.000,138.000 200.900,138.000 202.000 C 138.000 203.100,138.450 204.000,139.000 204.000 C 139.550 204.000,140.000 204.707,140.000 205.571 C 140.000 206.436,140.643 207.786,141.429 208.571 C 143.044 210.187,150.000 210.534,150.000 209.000 C 150.000 208.450,151.350 208.000,153.000 208.000 C 154.650 208.000,156.000 207.550,156.000 207.000 C 156.000 206.450,157.575 206.000,159.500 206.000 C 161.425 206.000,163.000 205.550,163.000 205.000 C 163.000 204.387,167.833 204.000,175.500 204.000 C 183.167 204.000,188.000 204.387,188.000 205.000 C 188.000 205.550,189.800 206.000,192.000 206.000 C 194.200 206.000,196.000 206.450,196.000 207.000 C 196.000 207.550,197.251 208.000,198.779 208.000 C 200.411 208.000,202.153 208.826,203.000 210.000 C 203.793 211.100,205.194 212.000,206.114 212.000 C 207.034 212.000,208.045 212.675,208.362 213.500 C 208.678 214.325,209.585 215.000,210.377 215.000 C 212.344 215.000,229.000 231.491,229.000 233.438 C 229.000 234.297,229.450 235.000,230.000 235.000 C 230.550 235.000,231.000 235.801,231.000 236.779 C 231.000 237.758,231.900 239.207,233.000 240.000 C 234.464 241.055,235.000 242.589,235.000 245.721 C 235.000 248.074,235.450 250.000,236.000 250.000 C 236.550 250.000,237.000 251.800,237.000 254.000 C 237.000 256.200,237.450 258.000,238.000 258.000 C 238.596 258.000,239.000 261.833,239.000 267.500 C 239.000 273.167,238.596 277.000,238.000 277.000 C 237.450 277.000,237.000 278.800,237.000 281.000 C 237.000 283.200,236.550 285.000,236.000 285.000 C 235.450 285.000,235.000 286.701,235.000 288.779 C 235.000 291.411,234.393 292.996,233.000 294.000 C 231.900 294.793,231.000 296.216,231.000 297.162 C 231.000 298.108,230.550 299.160,230.000 299.500 C 229.450 299.840,229.000 300.774,229.000 301.575 C 229.000 303.207,214.604 318.000,213.016 318.000 C 212.457 318.000,212.000 318.450,212.000 319.000 C 212.000 319.550,211.199 320.000,210.221 320.000 C 209.242 320.000,207.793 320.900,207.000 322.000 C 206.153 323.174,204.411 324.000,202.779 324.000 C 201.251 324.000,200.000 324.450,200.000 325.000 C 200.000 325.550,199.100 326.000,198.000 326.000 C 196.889 326.000,196.000 326.667,196.000 327.500 C 196.000 328.500,195.000 329.000,193.000 329.000 C 191.350 329.000,190.000 329.450,190.000 330.000 C 190.000 330.617,184.833 331.000,176.500 331.000 C 168.167 331.000,163.000 330.617,163.000 330.000 C 163.000 329.450,161.425 329.000,159.500 329.000 C 157.056 329.000,156.000 328.548,156.000 327.500 C 156.000 326.500,155.000 326.000,153.000 326.000 C 151.350 326.000,150.000 325.550,150.000 325.000 C 150.000 323.466,143.044 323.813,141.429 325.429 C 140.643 326.214,140.000 327.789,140.000 328.929 C 140.000 330.068,139.550 331.000,139.000 331.000 C 138.450 331.000,138.000 331.900,138.000 333.000 C 138.000 334.100,137.550 335.000,137.000 335.000 C 136.450 335.000,136.000 335.900,136.000 337.000 C 136.000 338.100,135.550 339.000,135.000 339.000 C 134.450 339.000,134.000 339.900,134.000 341.000 C 134.000 342.100,133.550 343.000,133.000 343.000 C 131.466 343.000,131.813 349.956,133.429 351.571 C 134.214 352.357,136.014 353.000,137.429 353.000 C 138.843 353.000,140.000 353.450,140.000 354.000 C 140.000 354.550,140.852 355.000,141.893 355.000 C 142.934 355.000,144.045 355.675,144.362 356.500 C 144.723 357.441,146.252 358.000,148.469 358.000 C 150.411 358.000,152.000 358.450,152.000 359.000 C 152.000 359.550,154.475 360.000,157.500 360.000 C 160.525 360.000,163.000 360.450,163.000 361.000 C 163.000 361.613,167.833 362.000,175.500 362.000 C 183.167 362.000,188.000 361.613,188.000 361.000 C 188.000 360.444,190.667 360.000,194.000 360.000 C 197.333 360.000,200.000 359.556,200.000 359.000 C 200.000 358.450,201.800 358.000,204.000 358.000 C 206.889 358.000,208.000 357.583,208.000 356.500 C 208.000 355.667,208.889 355.000,210.000 355.000 C 211.100 355.000,212.000 354.550,212.000 354.000 C 212.000 353.450,213.125 353.000,214.500 353.000 C 215.875 353.000,217.000 352.550,217.000 352.000 C 217.000 351.450,217.900 351.000,219.000 351.000 C 220.100 351.000,221.000 350.550,221.000 350.000 C 221.000 349.450,221.900 349.000,223.000 349.000 C 224.100 349.000,225.000 348.550,225.000 348.000 C 225.000 347.450,225.710 347.000,226.578 347.000 C 227.447 347.000,229.886 345.200,232.000 343.000 C 234.114 340.800,236.349 339.000,236.967 339.000 C 237.585 339.000,239.114 337.988,240.365 336.750 C 241.616 335.512,243.846 333.606,245.320 332.513 C 246.794 331.420,248.000 329.957,248.000 329.263 C 248.000 328.568,248.450 328.000,249.000 328.000 C 249.550 328.000,250.000 327.281,250.000 326.401 C 250.000 325.522,251.350 323.541,253.000 322.000 C 254.650 320.459,256.000 318.478,256.000 317.599 C 256.000 316.719,256.450 316.000,257.000 316.000 C 257.550 316.000,258.000 315.100,258.000 314.000 C 258.000 312.900,258.450 312.000,259.000 312.000 C 259.550 312.000,260.000 311.100,260.000 310.000 C 260.000 308.900,260.450 308.000,261.000 308.000 C 261.550 308.000,262.000 307.100,262.000 306.000 C 262.000 304.900,262.450 304.000,263.000 304.000 C 263.550 304.000,264.000 302.425,264.000 300.500 C 264.000 298.575,264.450 297.000,265.000 297.000 C 265.550 297.000,266.000 295.650,266.000 294.000 C 266.000 292.350,266.450 291.000,267.000 291.000 C 267.550 291.000,268.000 289.200,268.000 287.000 L 268.000 283.000 297.000 283.000 C 315.667 283.000,326.000 282.644,326.000 282.000 C 326.000 281.450,327.370 281.000,329.045 281.000 C 330.946 281.000,333.014 280.077,334.545 278.545 L 337.000 276.091 337.000 167.000 L 337.000 57.909 334.545 55.455 C 333.195 54.105,331.170 53.000,330.045 53.000 C 328.920 53.000,328.000 52.550,328.000 52.000 C 328.000 51.338,283.629 51.023,196.750 51.069 L 65.500 51.137 62.250 54.540 " stroke="none" fill-rule="evenodd"></path></g></svg>