<svg id="svg" version="1.1" width="400" height="400" xmlns="http://www.w3.org/2000/svg" xmlns:xlink="http://www.w3.org/1999/xlink" style="display: block;"><g id="svgg"><path id="path0" d="M202.922 43.552 C 166.018 50.235,134.482 73.616,119.326 105.529 C 116.173 112.169,115.432 113.074,113.602 112.523 C 108.853 111.095,89.794 110.759,82.277 111.971 C 9.227 123.756,-15.259 216.406,42.414 262.802 C 61.465 278.127,72.997 281.242,112.615 281.759 L 142.729 282.152 145.007 287.015 C 163.694 326.913,224.500 311.563,224.500 266.948 C 224.500 218.182,156.987 208.651,141.639 255.250 C 140.853 257.637,96.662 257.835,85.500 255.502 C 50.582 248.203,29.825 210.334,41.761 175.705 C 53.058 142.931,87.093 128.018,124.409 139.491 C 131.490 141.668,131.696 141.572,133.485 135.250 C 158.908 45.378,287.942 40.668,315.352 128.612 C 321.281 147.634,321.022 163.778,314.409 187.479 C 310.216 202.508,309.683 201.436,320.669 200.089 C 334.303 198.417,339.809 198.698,345.521 201.358 C 363.932 209.931,367.539 232.554,352.592 245.710 C 344.759 252.605,342.188 253.000,305.126 253.000 L 272.482 253.000 270.727 245.193 C 260.315 198.870,206.428 167.613,160.021 180.980 C 149.619 183.976,137.788 190.005,138.528 191.934 C 140.119 196.081,152.434 214.038,153.392 213.609 C 191.035 196.759,226.923 208.968,242.722 244.000 C 265.590 294.705,209.759 348.746,160.219 323.859 C 156.017 321.748,152.248 320.354,151.842 320.760 C 149.513 323.099,138.090 342.337,138.570 343.114 C 142.469 349.423,167.304 356.494,185.500 356.477 C 228.668 356.436,262.029 329.181,270.845 286.750 L 272.456 279.000 307.591 279.000 C 326.916 279.000,345.151 278.551,348.114 278.001 C 362.367 275.358,377.734 263.110,384.372 249.102 C 388.689 239.992,389.654 214.208,385.953 206.843 C 378.847 192.697,361.661 179.091,347.559 176.445 C 343.850 175.749,343.869 175.836,345.562 167.343 C 346.959 160.329,343.119 133.345,338.825 120.000 C 321.560 66.354,262.004 32.853,202.922 43.552 " stroke="none" fill="#000000" fill-rule="evenodd"></path></g></svg>