<svg version="1.1" width="400" height="400" xmlns="http://www.w3.org/2000/svg">
<g>
<path d="M98.445 28.173 C 97.788 30.245,97.075 31.313,94.250 34.463 C 93.563 35.230,93.000 36.353,93.000 36.960 C 93.000 37.567,92.375 38.302,91.612 38.595 C 90.849 38.888,89.673 41.095,89.000 43.500 C 88.327 45.905,87.151 48.112,86.388 48.405 C 85.625 48.698,85.000 49.626,85.000 50.469 C 85.000 51.311,84.586 52.000,84.079 52.000 C 83.573 52.000,82.871 53.312,82.518 54.916 C 82.166 56.521,81.230 58.081,80.439 58.385 C 79.648 58.689,79.000 59.819,79.000 60.897 C 79.000 61.975,78.412 63.452,77.694 64.179 C 76.976 64.905,76.090 66.287,75.725 67.250 C 75.361 68.213,74.634 69.000,74.111 69.000 C 73.587 69.000,72.862 70.350,72.500 72.000 C 72.138 73.650,71.379 75.000,70.814 75.000 C 70.248 75.000,70.031 75.638,70.330 76.417 C 70.629 77.197,70.227 78.083,69.437 78.386 C 68.647 78.689,68.000 79.578,68.000 80.362 C 68.000 81.145,67.325 82.045,66.500 82.362 C 65.675 82.678,65.000 84.076,65.000 85.469 C 65.000 86.861,64.539 88.000,63.975 88.000 C 63.412 88.000,62.523 89.125,62.000 90.500 C 61.477 91.875,60.624 93.000,60.104 93.000 C 59.584 93.000,58.862 94.350,58.500 96.000 C 58.138 97.650,57.463 99.000,57.000 99.000 C 56.537 99.000,55.871 100.312,55.518 101.916 C 55.166 103.521,54.273 105.065,53.533 105.349 C 52.794 105.633,51.894 107.208,51.533 108.849 C 51.173 110.490,50.230 112.081,49.439 112.385 C 48.648 112.689,48.000 113.626,48.000 114.469 C 48.000 115.311,47.550 116.000,47.000 116.000 C 46.450 116.000,46.000 116.493,46.000 117.096 C 46.000 117.698,45.130 119.413,44.066 120.907 C 43.003 122.400,41.829 124.832,41.458 126.311 C 41.087 127.790,40.382 129.000,39.892 129.000 C 39.401 129.000,39.000 129.689,39.000 130.531 C 39.000 131.374,38.325 132.322,37.500 132.638 C 36.675 132.955,36.000 133.818,36.000 134.557 C 36.000 135.296,35.258 136.316,34.350 136.824 C 33.306 137.408,32.898 138.504,33.240 139.809 C 33.566 141.056,33.230 142.082,32.389 142.404 C 31.625 142.697,31.000 143.578,31.000 144.362 C 31.000 145.145,30.325 146.045,29.500 146.362 C 28.675 146.678,28.000 147.626,28.000 148.469 C 28.000 149.311,27.586 150.000,27.079 150.000 C 26.573 150.000,25.862 151.350,25.500 153.000 C 25.138 154.650,24.379 156.000,23.814 156.000 C 23.248 156.000,23.031 156.638,23.330 157.417 C 23.629 158.197,23.227 159.083,22.437 159.386 C 21.647 159.689,21.000 160.626,21.000 161.469 C 21.000 162.311,20.550 163.000,20.000 163.000 C 19.450 163.000,19.000 163.689,19.000 164.531 C 19.000 165.374,18.352 166.311,17.561 166.615 C 16.770 166.919,15.827 168.510,15.467 170.151 C 15.106 171.792,14.206 173.367,13.467 173.651 C 12.727 173.935,11.834 175.479,11.482 177.084 C 11.129 178.688,10.463 180.000,10.000 180.000 C 9.537 180.000,8.862 181.350,8.500 183.000 C 8.138 184.650,7.416 186.000,6.896 186.000 C 6.376 186.000,5.523 187.125,5.000 188.500 C 4.477 189.875,3.647 191.000,3.155 191.000 C -0.440 191.000,-0.105 207.978,3.518 209.368 C 4.229 209.641,5.106 211.208,5.467 212.849 C 5.827 214.490,6.770 216.081,7.561 216.385 C 8.352 216.689,9.000 217.626,9.000 218.469 C 9.000 219.311,9.414 220.000,9.921 220.000 C 10.427 220.000,11.129 221.312,11.482 222.916 C 11.834 224.521,12.727 226.065,13.467 226.349 C 14.206 226.633,15.106 228.208,15.467 229.849 C 15.827 231.490,16.770 233.081,17.561 233.385 C 18.352 233.689,19.000 234.626,19.000 235.469 C 19.000 236.311,19.450 237.000,20.000 237.000 C 20.550 237.000,21.000 237.689,21.000 238.531 C 21.000 239.374,21.625 240.303,22.389 240.596 C 23.154 240.889,23.572 241.919,23.320 242.884 C 23.068 243.850,23.567 245.226,24.430 245.942 C 25.294 246.659,26.000 247.865,26.000 248.622 C 26.000 249.380,26.450 250.000,27.000 250.000 C 27.550 250.000,28.000 250.689,28.000 251.531 C 28.000 252.374,28.675 253.322,29.500 253.638 C 30.325 253.955,31.000 254.855,31.000 255.638 C 31.000 256.422,31.625 257.303,32.389 257.596 C 33.230 257.918,33.566 258.944,33.240 260.191 C 32.898 261.496,33.306 262.592,34.350 263.176 C 35.258 263.684,36.000 264.752,36.000 265.550 C 36.000 266.347,36.450 267.000,37.000 267.000 C 37.550 267.000,38.000 267.689,38.000 268.531 C 38.000 269.374,38.634 270.306,39.410 270.604 C 40.185 270.901,41.115 272.322,41.476 273.761 C 41.837 275.201,43.003 277.600,44.066 279.093 C 45.130 280.587,46.000 282.302,46.000 282.904 C 46.000 283.507,46.450 284.000,47.000 284.000 C 47.550 284.000,48.000 284.689,48.000 285.531 C 48.000 286.374,48.648 287.311,49.439 287.615 C 50.230 287.919,51.173 289.510,51.533 291.151 C 51.894 292.792,52.794 294.367,53.533 294.651 C 54.273 294.935,55.166 296.479,55.518 298.084 C 55.871 299.688,56.537 301.000,57.000 301.000 C 57.463 301.000,58.129 302.312,58.482 303.916 C 58.834 305.521,59.727 307.065,60.467 307.349 C 61.206 307.633,62.115 309.245,62.485 310.932 C 62.856 312.620,63.573 314.000,64.079 314.000 C 64.586 314.000,65.000 314.689,65.000 315.531 C 65.000 316.374,65.648 317.311,66.439 317.615 C 67.230 317.919,68.173 319.510,68.533 321.151 C 68.894 322.792,69.794 324.367,70.533 324.651 C 71.273 324.935,72.158 326.442,72.500 328.000 C 72.842 329.558,73.770 331.081,74.561 331.385 C 75.352 331.689,76.000 332.626,76.000 333.469 C 76.000 334.311,76.414 335.000,76.921 335.000 C 77.427 335.000,78.144 336.380,78.515 338.068 C 78.885 339.755,79.794 341.367,80.533 341.651 C 81.273 341.935,82.166 343.479,82.518 345.084 C 82.871 346.688,83.573 348.000,84.079 348.000 C 84.586 348.000,85.000 348.689,85.000 349.531 C 85.000 350.374,85.625 351.302,86.388 351.595 C 87.151 351.888,88.327 354.095,89.000 356.500 C 89.673 358.905,90.849 361.112,91.612 361.405 C 92.375 361.698,93.000 362.626,93.000 363.469 C 93.000 364.311,93.450 365.000,94.000 365.000 C 94.550 365.000,95.000 365.689,95.000 366.531 C 95.000 367.374,95.634 368.306,96.410 368.604 C 97.185 368.901,98.094 370.237,98.429 371.572 L 99.038 374.000 200.519 374.000 L 302.000 374.000 302.000 371.607 C 302.000 370.291,302.675 368.955,303.500 368.638 C 304.325 368.322,305.000 367.422,305.000 366.638 C 305.000 365.855,305.675 364.955,306.500 364.638 C 307.325 364.322,308.000 363.374,308.000 362.531 C 308.000 361.689,308.392 361.000,308.870 361.000 C 309.349 361.000,310.299 359.004,310.982 356.564 C 311.665 354.124,312.849 351.888,313.612 351.595 C 314.375 351.302,315.000 350.374,315.000 349.531 C 315.000 348.689,315.450 348.000,316.000 348.000 C 316.550 348.000,317.000 347.311,317.000 346.469 C 317.000 345.626,317.625 344.698,318.388 344.405 C 319.151 344.112,320.327 341.905,321.000 339.500 C 321.673 337.095,322.849 334.888,323.612 334.595 C 324.375 334.302,325.000 333.374,325.000 332.531 C 325.000 331.689,325.414 331.000,325.921 331.000 C 326.427 331.000,327.138 329.650,327.500 328.000 C 327.862 326.350,328.584 325.000,329.104 325.000 C 329.624 325.000,330.477 323.875,331.000 322.500 C 331.523 321.125,332.376 320.000,332.896 320.000 C 333.416 320.000,334.138 318.650,334.500 317.000 C 334.862 315.350,335.489 314.000,335.893 314.000 C 336.296 314.000,337.245 312.425,338.000 310.500 C 338.755 308.575,339.704 307.000,340.107 307.000 C 340.511 307.000,341.138 305.650,341.500 304.000 C 341.862 302.350,342.537 301.000,343.000 301.000 C 343.463 301.000,344.138 299.650,344.500 298.000 C 344.862 296.350,345.584 295.000,346.104 295.000 C 346.624 295.000,347.477 293.875,348.000 292.500 C 348.523 291.125,349.376 290.000,349.896 290.000 C 350.416 290.000,351.138 288.650,351.500 287.000 C 351.862 285.350,352.573 284.000,353.079 284.000 C 353.586 284.000,354.000 283.311,354.000 282.469 C 354.000 281.626,354.625 280.698,355.388 280.405 C 356.151 280.112,357.327 277.905,358.000 275.500 C 358.673 273.095,359.849 270.888,360.612 270.595 C 361.375 270.302,362.000 269.567,362.000 268.960 C 362.000 268.353,362.563 267.230,363.250 266.463 C 366.191 263.183,366.783 262.184,368.000 258.444 C 368.706 256.275,369.894 254.140,370.641 253.700 C 371.389 253.260,372.000 252.248,372.000 251.450 C 372.000 250.653,372.450 250.000,373.000 250.000 C 373.550 250.000,374.000 249.380,374.000 248.622 C 374.000 247.865,374.706 246.659,375.570 245.942 C 376.433 245.226,376.932 243.850,376.680 242.884 C 376.428 241.919,376.846 240.889,377.611 240.596 C 378.375 240.303,379.000 239.422,379.000 238.638 C 379.000 237.855,379.675 236.955,380.500 236.638 C 381.325 236.322,382.000 235.374,382.000 234.531 C 382.000 233.689,382.414 233.000,382.921 233.000 C 383.427 233.000,384.144 231.620,384.515 229.932 C 384.885 228.245,385.781 226.638,386.504 226.360 C 387.228 226.082,388.094 224.763,388.429 223.428 C 388.764 222.092,389.480 221.000,390.019 221.000 C 390.559 221.000,391.000 220.122,391.000 219.050 C 391.000 217.977,391.589 216.740,392.309 216.300 C 393.029 215.860,394.208 214.037,394.930 212.250 C 395.652 210.463,396.580 209.000,396.991 209.000 C 400.474 209.000,400.002 191.982,396.482 190.632 C 395.771 190.359,394.894 188.792,394.533 187.151 C 394.173 185.510,393.230 183.919,392.439 183.615 C 391.648 183.311,391.000 182.374,391.000 181.531 C 391.000 180.689,390.586 180.000,390.079 180.000 C 389.573 180.000,388.871 178.688,388.518 177.084 C 388.166 175.479,387.273 173.935,386.533 173.651 C 385.794 173.367,384.894 171.792,384.533 170.151 C 384.173 168.510,383.230 166.919,382.439 166.615 C 381.648 166.311,381.000 165.374,381.000 164.531 C 381.000 163.689,380.550 163.000,380.000 163.000 C 379.450 163.000,379.000 162.311,379.000 161.469 C 379.000 160.626,378.375 159.697,377.611 159.404 C 376.846 159.111,376.428 158.081,376.680 157.116 C 376.932 156.150,376.433 154.774,375.570 154.058 C 374.706 153.341,374.000 152.135,374.000 151.378 C 374.000 150.620,373.550 150.000,373.000 150.000 C 372.450 150.000,372.000 149.311,372.000 148.469 C 372.000 147.626,371.325 146.678,370.500 146.362 C 369.675 146.045,369.000 145.145,369.000 144.362 C 369.000 143.578,368.375 142.697,367.611 142.404 C 366.770 142.082,366.434 141.056,366.760 139.809 C 367.102 138.504,366.694 137.408,365.650 136.824 C 364.742 136.316,364.000 135.248,364.000 134.450 C 364.000 133.653,363.550 133.000,363.000 133.000 C 362.450 133.000,362.000 132.311,362.000 131.469 C 362.000 130.626,361.366 129.694,360.590 129.396 C 359.815 129.099,358.885 127.678,358.524 126.239 C 358.163 124.799,356.997 122.400,355.934 120.907 C 354.870 119.413,354.000 117.698,354.000 117.096 C 354.000 116.493,353.550 116.000,353.000 116.000 C 352.450 116.000,352.000 115.311,352.000 114.469 C 352.000 113.626,351.352 112.689,350.561 112.385 C 349.770 112.081,348.827 110.490,348.467 108.849 C 348.106 107.208,347.206 105.633,346.467 105.349 C 345.727 105.065,344.834 103.521,344.482 101.916 C 344.129 100.312,343.463 99.000,343.000 99.000 C 342.537 99.000,341.871 97.688,341.518 96.084 C 341.166 94.479,340.273 92.935,339.533 92.651 C 338.794 92.367,337.885 90.755,337.515 89.068 C 337.144 87.380,336.427 86.000,335.921 86.000 C 335.414 86.000,335.000 85.311,335.000 84.469 C 335.000 83.626,334.352 82.689,333.561 82.385 C 332.770 82.081,331.827 80.490,331.467 78.849 C 331.106 77.208,330.206 75.633,329.467 75.349 C 328.727 75.065,327.842 73.558,327.500 72.000 C 327.158 70.442,326.230 68.919,325.439 68.615 C 324.648 68.311,324.000 67.374,324.000 66.531 C 324.000 65.689,323.608 65.000,323.130 65.000 C 322.651 65.000,321.701 63.004,321.018 60.564 C 320.335 58.124,319.151 55.888,318.388 55.595 C 317.625 55.302,317.000 54.374,317.000 53.531 C 317.000 52.689,316.550 52.000,316.000 52.000 C 315.450 52.000,315.000 51.311,315.000 50.469 C 315.000 49.626,314.375 48.698,313.612 48.405 C 312.849 48.112,311.673 45.905,311.000 43.500 C 310.327 41.095,309.151 38.888,308.388 38.595 C 307.625 38.302,307.000 37.374,307.000 36.531 C 307.000 35.689,306.550 35.000,306.000 35.000 C 305.450 35.000,305.000 34.311,305.000 33.469 C 305.000 32.626,304.325 31.678,303.500 31.362 C 302.675 31.045,302.000 29.709,302.000 28.393 L 302.000 26.000 200.567 26.000 L 99.135 26.000 98.445 28.173 M279.540 116.528 L 300.000 137.057 300.000 209.028 C 300.000 249.067,299.615 281.000,299.132 281.000 C 298.654 281.000,298.012 282.876,297.704 285.170 C 297.396 287.463,296.437 289.735,295.572 290.219 C 294.708 290.703,294.000 291.576,294.000 292.159 C 294.000 293.656,289.749 297.962,288.250 297.983 C 287.563 297.992,287.000 298.450,287.000 299.000 C 287.000 299.550,286.347 300.000,285.550 300.000 C 284.752 300.000,283.683 300.745,283.173 301.654 C 282.626 302.633,281.597 303.059,280.656 302.698 C 279.780 302.362,278.798 302.518,278.473 303.044 C 277.670 304.343,122.330 304.343,121.527 303.044 C 121.202 302.518,120.220 302.362,119.344 302.698 C 118.403 303.059,117.374 302.633,116.827 301.654 C 116.317 300.745,115.248 300.000,114.450 300.000 C 113.653 300.000,113.000 299.536,113.000 298.969 C 113.000 298.401,112.232 297.643,111.294 297.283 C 108.762 296.311,106.000 293.726,106.000 292.327 C 106.000 291.652,105.292 290.703,104.428 290.219 C 103.563 289.735,102.604 287.463,102.296 285.170 C 101.988 282.876,101.346 281.000,100.868 281.000 C 100.384 281.000,100.000 244.711,100.000 199.000 C 100.000 151.846,100.378 117.000,100.889 117.000 C 101.377 117.000,102.073 115.425,102.434 113.500 C 102.795 111.575,103.520 110.000,104.045 110.000 C 104.570 110.000,105.001 109.438,105.002 108.750 C 105.004 107.283,111.799 100.675,114.287 99.720 C 115.229 99.359,116.000 98.641,116.000 98.125 C 116.000 97.609,116.900 97.423,118.000 97.710 C 119.118 98.003,120.000 97.741,120.000 97.117 C 120.000 96.305,139.005 96.000,189.540 96.000 L 259.081 96.000 279.540 116.528 M122.000 110.892 C 122.000 111.382,120.913 112.056,119.585 112.389 C 118.201 112.737,116.602 114.278,115.841 115.998 C 115.110 117.649,114.172 119.000,113.756 119.000 C 113.340 119.000,113.000 155.225,113.000 199.500 C 113.000 252.500,113.342 280.000,114.000 280.000 C 114.550 280.000,115.000 280.800,115.000 281.777 C 115.000 282.755,116.427 285.117,118.172 287.027 L 121.344 290.500 198.964 290.500 L 276.584 290.500 280.292 286.899 L 284.000 283.298 284.000 213.649 L 284.000 144.000 267.500 144.000 L 251.000 144.000 251.000 128.582 C 251.000 120.102,250.727 112.452,250.393 111.582 C 249.702 109.780,122.000 109.094,122.000 110.892 M244.000 170.000 L 244.000 177.000 198.500 177.000 L 153.000 177.000 153.000 170.000 L 153.000 163.000 198.500 163.000 L 244.000 163.000 244.000 170.000 M244.000 204.000 L 244.000 211.000 198.500 211.000 L 153.000 211.000 153.000 204.000 L 153.000 197.000 198.500 197.000 L 244.000 197.000 244.000 204.000 M244.000 236.000 L 244.000 244.000 198.500 244.000 L 153.000 244.000 153.000 236.000 L 153.000 228.000 198.500 228.000 L 244.000 228.000 244.000 236.000 " stroke="none" fill-rule="evenodd"></path>
</g>
</svg>