<svg version="1.1" width="400" height="400" xmlns="http://www.w3.org/2000/svg">
<g>
<path d="M176.500 0.582 C 174.850 0.810,167.200 1.705,159.500 2.571 C 151.800 3.438,142.407 4.788,138.627 5.573 C 134.847 6.358,130.604 7.000,129.198 7.000 C 127.792 7.000,123.685 7.887,120.071 8.972 C 116.457 10.057,110.800 11.683,107.500 12.587 C 99.008 14.913,87.375 19.275,81.500 22.337 C 80.400 22.910,77.700 24.253,75.500 25.321 C 73.300 26.389,71.275 27.542,71.000 27.883 C 70.725 28.224,69.224 29.162,67.664 29.967 C 66.104 30.771,63.719 32.458,62.363 33.715 C 61.006 34.972,59.646 36.000,59.339 36.000 C 58.281 36.000,54.035 40.503,54.017 41.643 C 54.008 42.272,53.373 43.027,52.607 43.321 C 51.841 43.615,50.041 46.335,48.607 49.366 L 46.000 54.876 46.000 199.956 L 46.000 345.037 48.541 349.896 C 51.659 355.859,63.141 368.000,65.663 368.000 C 66.037 368.000,67.073 368.661,67.965 369.468 C 70.075 371.378,91.106 381.985,92.800 381.994 C 93.514 381.997,95.539 382.751,97.300 383.669 C 99.060 384.587,102.075 385.667,104.000 386.071 C 105.925 386.474,108.850 387.267,110.500 387.833 C 120.895 391.401,131.958 393.658,158.500 397.626 C 175.661 400.191,215.844 400.651,234.000 398.490 C 241.975 397.541,251.425 396.421,255.000 396.001 C 269.133 394.342,295.733 387.866,304.777 383.883 C 307.129 382.848,309.500 382.000,310.047 382.000 C 311.323 382.000,328.338 373.899,329.000 372.976 C 329.275 372.593,330.902 371.561,332.616 370.683 C 335.945 368.978,339.480 366.169,343.814 361.782 C 348.302 357.240,349.408 355.735,351.718 351.026 L 353.937 346.500 353.969 200.732 L 354.000 54.963 351.515 50.232 C 348.442 44.378,336.703 32.000,334.226 32.000 C 333.913 32.000,332.947 31.380,332.079 30.621 C 331.210 29.863,326.675 27.324,322.000 24.980 C 317.325 22.635,312.306 20.106,310.846 19.359 C 309.386 18.611,307.558 18.000,306.784 18.000 C 306.009 18.000,303.513 17.100,301.236 16.000 C 298.959 14.900,296.512 14.002,295.798 14.005 C 295.084 14.008,292.475 13.367,290.000 12.581 C 276.297 8.229,263.007 5.345,250.121 3.925 C 245.513 3.418,238.988 2.517,235.621 1.924 C 229.561 0.857,182.281 -0.216,176.500 0.582 M225.500 23.030 C 230.450 23.578,237.425 24.274,241.000 24.577 C 251.982 25.510,274.722 30.668,283.500 34.218 C 302.716 41.988,309.155 48.032,307.517 56.761 C 306.873 60.192,299.826 67.961,297.333 67.988 C 296.692 67.994,296.017 68.354,295.833 68.787 C 294.837 71.138,276.814 77.681,264.000 80.343 C 222.976 88.864,157.167 87.434,126.000 77.344 C 123.525 76.543,120.143 75.534,118.484 75.102 C 114.000 73.934,100.621 67.029,99.700 65.408 C 99.260 64.634,98.248 64.000,97.450 64.000 C 96.653 64.000,96.000 63.373,96.000 62.607 C 96.000 61.841,95.389 60.980,94.642 60.693 C 92.953 60.045,91.983 55.444,92.726 51.610 C 93.465 47.799,99.474 42.081,106.140 38.847 C 115.351 34.378,121.002 32.000,122.412 32.000 C 123.159 32.000,125.960 31.364,128.635 30.588 C 137.963 27.879,153.585 25.068,165.500 23.954 C 172.100 23.337,178.175 22.697,179.000 22.532 C 182.810 21.770,217.463 22.142,225.500 23.030 M155.000 166.000 L 155.000 177.000 149.023 177.000 C 140.308 177.000,140.280 177.076,139.776 202.500 C 139.299 226.575,138.504 229.471,131.126 234.000 C 126.174 237.040,126.103 237.804,130.475 241.000 C 133.541 243.240,136.485 247.808,138.534 253.500 C 138.930 254.600,139.535 267.011,139.877 281.080 L 140.500 306.660 143.210 310.211 C 145.370 313.041,146.840 313.899,150.460 314.442 L 155.000 315.123 155.000 325.061 L 155.000 335.000 150.947 335.000 C 145.705 335.000,133.134 332.202,130.285 330.400 C 129.067 329.630,127.593 329.000,127.009 329.000 C 124.891 329.000,119.424 322.999,116.815 317.810 C 113.239 310.699,112.000 300.734,112.000 279.084 C 112.000 254.170,110.717 251.000,100.632 251.000 L 97.000 251.000 97.000 237.500 L 97.000 224.000 101.750 223.978 C 111.088 223.934,111.395 223.235,112.167 200.309 C 112.534 189.414,113.249 178.650,113.757 176.389 C 116.658 163.476,129.919 155.645,149.750 155.135 L 155.000 155.000 155.000 166.000 M267.500 158.684 C 269.700 159.475,272.905 160.550,274.623 161.073 C 285.742 164.458,290.874 176.356,290.980 199.000 C 291.084 221.190,292.232 224.000,301.191 224.000 L 306.000 224.000 306.000 237.906 L 306.000 251.812 301.077 252.489 C 291.927 253.748,291.001 256.632,290.999 283.886 C 290.998 302.444,289.661 312.904,286.512 319.000 C 284.023 323.817,279.980 329.000,278.710 329.000 C 278.131 329.000,276.947 329.601,276.079 330.336 C 273.360 332.636,259.784 336.006,253.250 336.003 L 247.000 336.000 247.000 326.000 C 247.000 316.614,247.125 316.000,249.032 316.000 C 251.791 316.000,257.687 313.455,259.785 311.359 C 261.265 309.880,261.595 306.414,262.190 286.072 C 263.158 252.975,264.496 248.065,274.267 241.727 C 277.852 239.401,277.720 237.685,273.821 235.930 C 265.022 231.970,263.045 225.847,262.165 199.832 C 261.405 177.362,261.862 178.471,253.412 178.593 L 247.000 178.686 247.000 167.274 L 247.000 155.863 255.250 156.554 C 259.788 156.934,265.300 157.892,267.500 158.684 " stroke="none" fill-rule="evenodd"></path>
</g>
</svg>