<svg version="1.1" width="400" height="400" xmlns="http://www.w3.org/2000/svg">
<g>
<path d="M16.655 12.829 C 14.219 15.520,14.128 94.310,16.557 97.777 C 18.090 99.966,18.467 100.000,41.500 100.000 C 70.543 100.000,68.000 102.037,68.000 78.777 L 68.000 62.000 200.000 62.000 L 332.000 62.000 332.000 78.811 C 332.000 101.829,329.680 100.000,358.878 100.000 L 381.679 100.000 382.839 97.453 C 384.370 94.093,384.486 15.777,382.965 12.934 C 381.385 9.982,19.325 9.878,16.655 12.829 M94.138 100.086 C 91.802 102.262,91.069 147.410,93.333 149.669 C 93.792 150.126,107.444 150.500,123.672 150.500 L 153.177 150.500 155.088 148.139 C 157.217 145.511,158.031 107.843,156.071 102.688 C 154.494 98.538,150.648 98.000,122.539 98.000 C 97.399 98.000,96.290 98.081,94.138 100.086 M182.219 140.750 C 180.353 145.292,181.419 186.103,183.441 187.581 C 186.964 190.156,241.024 189.621,243.278 186.989 C 245.553 184.331,245.843 143.694,243.608 140.750 C 242.395 139.153,239.694 139.000,212.608 139.000 C 185.291 139.000,182.880 139.139,182.219 140.750 M95.500 176.195 C 92.133 178.105,92.031 178.832,92.015 201.179 C 91.996 228.989,88.228 226.004,123.321 225.985 C 159.048 225.965,156.000 228.229,156.000 201.715 C 156.000 181.853,155.291 177.909,151.403 176.138 C 147.959 174.568,98.279 174.619,95.500 176.195 M272.583 177.114 L 269.895 179.227 270.198 201.652 C 270.449 220.266,270.755 224.237,272.000 225.023 C 273.757 226.132,328.957 226.332,330.600 225.235 C 333.485 223.309,334.000 219.637,334.000 201.016 C 334.000 180.358,333.278 176.843,328.790 175.641 C 321.799 173.768,275.286 174.987,272.583 177.114 M183.441 215.419 C 180.806 217.346,180.398 261.376,183.000 263.021 C 186.056 264.953,242.098 264.240,243.608 262.250 C 245.748 259.430,245.555 219.777,243.385 216.465 L 241.770 214.000 213.576 214.000 C 190.805 214.000,185.009 214.273,183.441 215.419 M94.189 253.039 C 90.933 256.072,90.769 296.769,94.000 300.000 C 97.187 303.187,150.701 303.093,153.595 299.895 C 156.872 296.273,156.478 255.615,153.139 252.912 C 149.381 249.869,97.471 249.981,94.189 253.039 M19.400 302.765 C 16.249 304.869,16.000 308.143,16.000 347.480 L 16.000 387.091 18.463 389.554 L 20.925 392.016 200.858 391.758 C 376.203 391.507,380.844 391.451,382.895 389.595 C 386.143 386.656,386.204 308.669,382.961 305.189 C 380.983 303.066,380.264 303.000,359.000 303.000 C 330.874 303.000,333.000 301.308,333.000 323.689 L 333.000 340.000 200.500 340.000 L 68.000 340.000 68.000 322.615 C 68.000 300.212,70.269 301.995,41.785 302.015 C 30.078 302.024,20.005 302.361,19.400 302.765 " stroke="none" fill-rule="evenodd"></path>
</g>
</svg>