<svg id="svg" version="1.1" width="400" height="400" xmlns="http://www.w3.org/2000/svg" xmlns:xlink="http://www.w3.org/1999/xlink" style="display: block;"><g id="svgg"><path id="path0" d="M0.000 200.000 L 0.000 400.000 106.048 400.000 C 210.050 400.000,212.176 399.961,216.236 398.000 C 218.513 396.900,221.165 396.000,222.129 396.000 C 223.093 396.000,224.129 395.600,224.432 395.111 C 224.734 394.622,226.223 393.926,227.741 393.564 C 230.430 392.923,238.460 390.041,244.500 387.549 C 247.985 386.111,250.863 385.068,264.500 380.302 C 270.000 378.380,274.927 376.401,275.450 375.904 C 275.972 375.407,277.345 375.000,278.500 375.000 C 279.655 375.000,281.028 374.593,281.550 374.096 C 282.073 373.599,287.000 371.620,292.500 369.698 C 305.912 365.010,308.966 363.906,312.500 362.467 C 314.150 361.795,317.075 360.697,319.000 360.027 C 320.925 359.357,327.450 357.029,333.500 354.854 C 360.346 345.204,360.010 345.293,361.545 347.392 C 363.715 350.360,363.007 351.235,345.095 367.732 C 342.568 370.059,339.150 373.255,337.500 374.834 C 335.850 376.413,329.325 382.323,323.000 387.968 C 308.884 400.567,309.064 400.003,319.167 399.988 L 327.500 399.976 332.000 395.679 C 334.475 393.316,341.000 387.359,346.500 382.441 C 352.000 377.524,358.608 371.362,361.185 368.750 C 363.762 366.137,366.241 364.000,366.695 364.000 C 368.632 364.000,374.000 353.720,374.000 350.010 C 374.000 338.097,360.001 331.363,347.843 337.428 C 346.110 338.293,344.082 339.000,343.335 339.000 C 342.589 339.000,340.071 339.825,337.739 340.834 C 332.783 342.979,327.894 344.754,323.000 346.185 C 321.075 346.747,319.050 347.564,318.500 348.000 C 317.950 348.436,315.925 349.264,314.000 349.842 C 312.075 350.419,307.350 352.073,303.500 353.517 C 299.650 354.962,294.925 356.608,293.000 357.176 C 291.075 357.743,288.950 358.656,288.278 359.203 C 287.606 359.750,285.581 360.565,283.778 361.014 C 281.975 361.463,277.350 363.035,273.500 364.506 C 269.650 365.977,265.375 367.557,264.000 368.016 C 262.625 368.475,259.025 369.815,256.000 370.995 C 251.023 372.936,248.585 373.840,237.000 378.042 C 235.075 378.740,232.150 379.868,230.500 380.549 C 228.850 381.230,224.800 382.766,221.500 383.963 C 218.200 385.160,214.022 386.783,212.216 387.570 C 210.410 388.356,208.286 389.000,207.496 389.000 C 206.707 389.000,204.458 389.900,202.500 391.000 C 200.542 392.100,198.256 393.000,197.420 393.000 C 196.584 393.000,194.686 393.612,193.200 394.360 C 186.185 397.892,185.806 397.749,175.748 387.760 C 170.619 382.667,164.892 376.250,163.020 373.500 C 161.148 370.750,159.224 368.340,158.744 368.145 C 158.264 367.950,157.443 366.825,156.921 365.645 C 156.398 364.465,155.189 362.306,154.235 360.847 C 150.293 354.819,146.691 348.152,144.323 342.500 C 142.941 339.200,141.237 335.150,140.536 333.500 C 126.389 300.159,128.285 253.859,145.350 216.000 C 147.917 210.305,156.875 194.824,158.371 193.500 C 158.992 192.950,160.850 190.483,162.500 188.017 C 166.218 182.460,185.508 162.994,189.821 160.446 C 191.570 159.414,193.000 158.216,193.000 157.784 C 193.000 157.353,193.675 157.000,194.500 157.000 C 195.325 157.000,196.000 156.575,196.000 156.055 C 196.000 155.535,197.095 154.522,198.434 153.805 C 199.772 153.087,204.385 150.455,208.684 147.956 C 218.165 142.445,225.064 139.453,239.424 134.623 C 267.391 125.217,306.673 126.497,336.500 137.787 C 349.300 142.633,373.017 156.034,375.300 159.712 C 375.740 160.420,376.558 161.000,377.119 161.000 C 377.679 161.000,382.639 165.387,388.141 170.750 C 393.642 176.112,398.561 180.650,399.072 180.833 C 399.638 181.037,400.000 145.873,400.000 90.583 L 400.000 0.000 200.000 0.000 L 0.000 0.000 0.000 200.000 M269.000 219.702 C 262.790 221.168,255.985 223.979,249.503 227.754 C 246.195 229.682,233.188 242.382,231.313 245.516 C 221.903 261.244,218.541 279.839,222.541 294.032 C 223.389 297.039,224.450 300.850,224.900 302.500 C 227.171 310.832,244.081 332.000,248.466 332.000 C 249.309 332.000,250.000 332.374,250.000 332.831 C 250.000 334.183,261.202 338.779,270.152 341.099 C 285.214 345.004,301.967 342.076,316.497 333.000 C 318.699 331.625,320.650 330.162,320.833 329.750 C 321.017 329.337,321.619 329.000,322.173 329.000 C 323.168 329.000,332.000 320.390,332.000 319.420 C 332.000 319.143,332.837 318.018,333.859 316.921 C 345.319 304.620,349.280 268.232,340.521 255.727 C 339.685 254.532,339.000 252.755,339.000 251.777 C 339.000 250.800,338.633 250.000,338.185 250.000 C 337.737 250.000,336.619 248.425,335.701 246.500 C 334.783 244.575,333.575 243.000,333.016 243.000 C 332.457 243.000,332.000 242.483,332.000 241.850 C 332.000 240.298,322.718 231.491,317.616 228.203 C 303.303 218.977,285.360 215.839,269.000 219.702 M292.885 231.200 C 299.361 232.375,310.867 237.599,314.158 240.858 C 315.069 241.761,316.961 243.400,318.361 244.500 C 319.762 245.600,320.928 247.040,320.954 247.700 C 320.979 248.360,321.567 249.260,322.260 249.700 C 331.018 255.260,335.947 283.745,330.531 297.500 C 327.245 305.847,317.868 317.758,311.467 321.716 C 288.727 335.779,266.197 333.360,248.013 314.904 C 241.254 308.044,240.918 307.598,238.314 302.000 C 220.875 264.513,252.236 223.826,292.885 231.200 M280.000 238.699 C 279.175 238.997,277.723 240.199,276.772 241.370 C 270.810 248.720,282.110 258.300,288.548 251.354 C 294.675 244.742,288.517 235.625,280.000 238.699 M255.500 249.155 C 250.395 251.947,249.469 257.559,253.455 261.545 C 257.742 265.833,264.590 264.057,266.448 258.176 C 268.377 252.069,261.114 246.084,255.500 249.155 M304.000 249.746 C 301.031 251.234,300.452 252.086,300.183 255.364 C 299.580 262.712,307.541 266.871,312.811 261.961 C 316.466 258.556,315.138 249.000,311.010 249.000 C 310.545 249.000,309.564 248.773,308.832 248.496 C 308.099 248.219,305.925 248.781,304.000 249.746 M276.500 260.871 C 267.607 263.198,263.500 269.395,263.500 280.488 C 263.500 288.406,266.325 295.968,269.292 295.993 C 269.727 295.997,271.011 296.864,272.145 297.920 C 276.654 302.122,289.985 301.674,295.741 297.127 C 314.430 282.367,299.788 254.779,276.500 260.871 M244.158 274.520 C 238.290 279.458,241.358 288.000,249.000 288.000 C 255.950 288.000,259.326 280.715,254.750 275.593 C 251.283 271.713,247.902 271.370,244.158 274.520 M314.361 273.594 C 307.512 276.973,309.668 287.880,317.203 287.968 C 325.777 288.069,328.998 277.277,321.466 273.685 C 317.288 271.693,318.192 271.704,314.361 273.594 M253.455 299.455 C 249.419 303.490,250.469 309.058,255.799 311.898 C 259.204 313.712,264.460 311.717,265.987 308.030 C 269.311 300.006,259.569 293.340,253.455 299.455 M302.181 299.411 C 296.339 305.178,302.838 314.695,310.737 311.942 C 313.865 310.851,314.961 308.748,314.986 303.789 C 315.017 297.682,306.783 294.867,302.181 299.411 M277.687 309.805 C 274.410 313.225,274.245 316.960,277.250 319.711 C 285.185 326.974,295.838 317.579,288.820 309.508 C 285.785 306.018,281.198 306.140,277.687 309.805 " stroke="none" fill="#000000" fill-rule="evenodd"></path></g></svg>