<svg version="1.1" width="400" height="400" xmlns="http://www.w3.org/2000/svg">
<g>
<path d="M187.000 0.704 C 169.520 3.720,150.565 9.014,143.237 12.926 C 142.282 13.437,140.825 14.112,140.000 14.428 C 134.972 16.352,118.000 26.898,118.000 28.099 C 118.000 28.594,117.311 29.000,116.469 29.000 C 115.626 29.000,114.678 29.675,114.362 30.500 C 114.045 31.325,113.405 32.000,112.940 32.000 C 111.186 32.000,98.586 45.735,94.133 52.500 C 92.685 54.700,91.178 56.645,90.784 56.822 C 90.391 56.999,89.059 59.249,87.826 61.822 C 86.593 64.395,85.052 67.175,84.402 68.000 C 83.752 68.825,82.216 71.975,80.989 75.000 C 79.762 78.025,77.913 82.408,76.879 84.739 C 75.846 87.071,75.000 89.603,75.000 90.367 C 75.000 91.131,74.301 93.428,73.447 95.472 C 69.817 104.159,68.000 119.554,68.000 141.615 L 68.000 162.845 54.547 163.173 C 45.219 163.400,40.697 163.899,39.797 164.800 C 38.407 166.192,37.208 374.678,38.526 385.786 C 39.255 391.932,44.999 398.556,50.442 399.527 C 52.124 399.828,120.621 399.944,202.657 399.787 L 351.815 399.500 355.657 396.403 C 357.888 394.606,360.032 391.719,360.767 389.522 C 362.641 383.926,362.096 166.696,360.203 164.800 C 359.303 163.899,354.781 163.400,345.453 163.173 L 332.000 162.845 332.005 140.673 C 332.009 117.525,330.900 107.814,326.887 95.897 C 325.849 92.816,325.000 89.773,325.000 89.136 C 325.000 88.499,324.154 86.071,323.121 83.739 C 322.087 81.408,320.231 77.025,318.995 74.000 C 317.760 70.975,316.437 68.275,316.056 68.000 C 315.674 67.725,314.289 65.250,312.977 62.500 C 311.666 59.750,309.789 56.633,308.808 55.574 C 307.826 54.514,306.762 52.827,306.444 51.824 C 306.126 50.821,305.446 50.000,304.933 50.000 C 304.420 50.000,303.991 49.438,303.981 48.750 C 303.939 45.963,276.513 21.000,273.494 21.000 C 273.271 21.000,270.739 19.615,267.869 17.923 C 246.702 5.442,207.685 -2.866,187.000 0.704 M223.000 66.118 C 226.575 67.283,230.694 68.858,232.154 69.618 C 233.614 70.378,235.282 71.000,235.860 71.000 C 236.438 71.000,238.619 72.133,240.706 73.518 C 242.793 74.903,245.339 76.591,246.364 77.268 C 248.820 78.892,257.000 86.764,257.000 87.505 C 257.000 87.823,257.794 88.936,258.764 89.977 C 260.640 91.990,266.806 104.158,268.912 110.000 C 271.533 117.275,273.109 129.065,273.690 145.750 L 274.290 163.000 200.645 163.000 L 127.000 163.000 127.000 143.065 C 127.000 116.886,128.405 109.898,136.392 96.357 C 139.575 90.961,148.482 80.867,152.151 78.500 C 153.003 77.950,155.478 76.314,157.650 74.864 C 173.882 64.029,204.158 59.977,223.000 66.118 M253.101 206.163 C 261.333 208.979,266.608 214.676,268.974 223.307 C 274.249 242.547,250.173 259.516,233.970 247.979 C 231.343 246.108,222.845 248.920,218.550 253.080 C 218.027 253.586,216.827 254.000,215.883 254.000 C 214.939 254.000,214.017 254.362,213.833 254.805 C 213.650 255.247,207.425 258.663,200.000 262.395 C 177.200 273.855,168.670 278.489,168.293 279.621 C 168.094 280.218,182.514 287.982,200.337 296.873 L 232.743 313.039 237.331 311.072 C 260.456 301.160,280.997 327.286,265.184 346.500 C 252.430 361.998,226.657 354.771,224.429 335.072 C 223.935 330.705,223.314 329.207,221.646 328.360 C 214.590 324.777,198.191 316.207,196.500 315.220 C 195.400 314.577,192.250 312.991,189.500 311.696 C 186.750 310.400,179.175 306.564,172.667 303.170 C 160.259 296.701,158.604 296.177,157.300 298.304 C 153.603 304.332,129.000 304.085,129.000 298.021 C 129.000 297.533,128.100 296.849,127.000 296.500 C 125.900 296.151,125.000 295.221,125.000 294.433 C 125.000 293.645,124.605 293.000,124.121 293.000 C 121.297 293.000,118.922 281.110,120.442 274.573 C 123.859 259.874,142.514 251.549,154.215 259.500 C 159.485 263.081,157.561 263.664,181.766 251.154 C 182.995 250.519,185.012 249.463,186.250 248.806 C 187.488 248.150,196.150 243.727,205.500 238.978 C 219.825 231.701,222.548 229.962,222.805 227.921 C 224.816 211.937,239.387 201.472,253.101 206.163 " stroke="none" fill-rule="evenodd"></path>
</g>
</svg>