<svg version="1.1" width="400" height="400" xmlns="http://www.w3.org/2000/svg">
<g>
<path d="M270.000 33.479 C 269.175 33.666,265.125 34.358,261.000 35.016 C 246.585 37.314,221.000 48.902,221.000 53.133 C 221.000 53.610,220.550 54.000,220.000 54.000 C 219.029 54.000,211.000 61.542,211.000 62.455 C 211.000 62.705,209.886 64.023,208.524 65.385 L 206.049 67.860 201.774 65.759 C 199.423 64.603,196.607 63.214,195.515 62.673 C 181.705 55.830,140.037 61.127,136.167 70.217 C 135.983 70.648,135.286 71.000,134.616 71.000 C 127.140 71.000,108.165 103.452,108.012 116.500 C 108.004 117.125,114.470 117.535,125.250 117.592 C 146.778 117.708,161.503 121.282,177.000 130.154 C 177.825 130.626,179.175 131.303,180.000 131.659 C 180.825 132.014,183.639 133.811,186.252 135.652 C 192.047 139.734,192.184 139.740,193.847 135.983 C 197.850 126.940,210.977 111.403,220.500 104.437 C 222.700 102.828,224.725 101.284,225.000 101.006 C 226.450 99.539,235.769 94.759,244.500 91.004 C 252.966 87.362,266.228 84.293,277.680 83.325 L 284.945 82.711 285.223 69.329 L 285.500 55.946 289.000 59.044 C 290.925 60.747,293.850 63.359,295.500 64.847 C 297.150 66.336,300.525 69.174,303.000 71.155 C 305.475 73.136,309.220 76.386,311.321 78.378 C 313.423 80.370,315.348 82.000,315.598 82.000 C 315.849 82.000,317.504 83.325,319.277 84.945 C 321.050 86.565,324.704 89.862,327.398 92.271 L 332.296 96.651 326.648 101.063 C 323.542 103.489,321.000 105.817,321.000 106.237 C 321.000 106.657,320.325 107.000,319.500 107.000 C 318.675 107.000,318.000 107.366,318.000 107.813 C 318.000 108.260,313.950 111.944,309.000 116.000 C 304.050 120.056,300.000 123.740,300.000 124.187 C 300.000 124.634,299.347 125.000,298.550 125.000 C 297.752 125.000,296.740 125.625,296.300 126.389 C 295.860 127.153,293.137 129.638,290.250 131.912 L 285.000 136.047 285.000 123.157 L 285.000 110.267 277.750 110.737 C 270.273 111.222,257.644 114.021,254.363 115.921 C 253.338 116.514,251.375 117.469,250.000 118.043 C 243.491 120.759,229.000 132.008,229.000 134.345 C 229.000 134.705,228.100 135.900,227.000 137.000 C 222.629 141.371,224.122 142.525,234.544 142.836 C 239.794 142.992,245.926 143.768,248.170 144.560 C 250.415 145.352,253.087 146.000,254.108 146.000 C 255.685 146.000,269.885 152.539,276.549 156.333 C 282.504 159.724,300.000 175.785,300.000 177.861 C 300.000 178.396,300.354 178.983,300.786 179.167 C 301.218 179.350,302.681 181.069,304.036 182.986 C 311.020 192.867,316.181 205.558,317.969 217.251 C 318.699 222.025,319.413 223.459,322.174 225.694 C 328.910 231.148,337.744 240.804,341.953 247.312 C 344.332 250.990,346.671 254.000,347.150 254.000 C 348.108 254.000,354.985 251.072,362.000 247.678 C 371.259 243.197,385.328 230.642,389.423 223.206 C 405.821 193.429,403.111 162.921,382.123 141.031 C 379.470 138.264,376.819 136.000,376.233 136.000 C 375.647 136.000,375.017 135.662,374.833 135.250 C 374.244 133.924,367.178 129.001,365.817 128.968 C 361.990 128.876,361.232 126.680,360.809 114.472 C 360.211 97.198,355.076 82.150,345.400 69.317 C 344.080 67.566,343.000 65.912,343.000 65.640 C 343.000 64.825,328.019 50.532,326.712 50.100 C 326.045 49.880,325.275 49.368,325.000 48.963 C 323.875 47.304,310.438 40.328,304.000 38.060 C 296.715 35.494,274.377 32.484,270.000 33.479 M107.963 145.458 C 100.055 146.895,91.447 149.785,87.846 152.211 C 86.386 153.195,84.528 154.000,83.718 154.000 C 82.908 154.000,81.685 154.675,81.000 155.500 C 80.315 156.325,79.205 157.000,78.533 157.000 C 77.860 157.000,76.495 157.900,75.500 159.000 C 74.505 160.100,73.263 161.000,72.741 161.000 C 70.885 161.000,54.000 178.981,54.000 180.958 C 54.000 181.531,53.589 182.000,53.086 182.000 C 48.553 182.000,39.000 212.381,39.000 226.794 L 39.000 237.102 35.579 238.532 C 29.525 241.061,14.000 253.661,14.000 256.045 C 14.000 256.570,13.571 257.000,13.047 257.000 C 12.523 257.000,11.346 258.575,10.433 260.500 C 9.520 262.425,8.373 264.000,7.886 264.000 C 7.399 264.000,7.000 264.873,7.000 265.941 C 7.000 267.009,6.594 268.133,6.098 268.440 C 0.781 271.726,-1.468 302.673,2.715 315.000 C 6.734 326.843,7.685 329.152,9.350 331.096 C 10.258 332.156,11.000 333.291,11.000 333.620 C 11.000 334.539,21.084 346.999,21.836 347.009 C 22.201 347.013,24.075 348.502,26.000 350.317 C 27.925 352.132,30.175 353.934,31.000 354.321 C 31.825 354.709,34.525 356.177,37.000 357.584 C 53.520 366.977,53.739 366.993,164.500 366.993 C 275.261 366.993,275.480 366.977,292.000 357.584 C 294.475 356.177,297.175 354.715,298.000 354.336 C 298.825 353.956,299.725 353.325,300.000 352.933 C 300.275 352.541,302.590 350.483,305.146 348.360 C 310.018 344.312,318.000 334.792,318.000 333.029 C 318.000 332.463,318.350 332.000,318.777 332.000 C 319.205 332.000,320.742 329.188,322.193 325.750 C 336.319 292.284,327.275 259.997,298.750 242.064 L 292.000 237.821 291.988 231.660 C 291.975 224.540,289.194 212.294,286.276 206.500 C 281.839 197.692,280.816 196.000,279.927 196.000 C 279.417 196.000,279.000 195.550,279.000 195.000 C 279.000 193.897,268.450 183.229,265.412 181.260 C 243.441 167.019,219.008 165.381,197.310 176.695 C 193.190 178.844,193.087 178.849,192.483 176.945 C 192.143 175.875,191.431 175.000,190.901 175.000 C 190.371 175.000,189.639 174.222,189.274 173.272 C 188.099 170.209,179.853 163.131,170.101 156.816 C 153.508 146.070,129.124 141.613,107.963 145.458 " stroke="none" fill-rule="evenodd"></path>
</g>
</svg>