<svg version="1.1" width="400" height="400" xmlns="http://www.w3.org/2000/svg"><g><path d="M195.500 2.888 C 187.800 3.775,181.050 4.781,180.500 5.124 C 179.950 5.467,173.425 6.316,166.000 7.011 C 158.575 7.706,152.275 8.576,152.000 8.944 C 151.725 9.312,143.968 10.375,134.762 11.307 C 122.192 12.578,117.480 13.436,115.841 14.750 C 111.551 18.190,109.000 21.321,109.000 23.146 C 109.000 24.166,108.550 25.000,108.000 25.000 C 107.450 25.000,107.000 27.250,107.000 30.000 C 107.000 32.750,107.371 35.000,107.823 35.000 C 108.276 35.000,109.481 44.112,110.500 55.250 C 111.520 66.388,112.655 75.725,113.023 76.000 C 113.391 76.275,114.519 85.388,115.531 96.250 C 116.543 107.112,117.673 116.000,118.043 116.000 C 118.412 116.000,119.293 122.975,120.000 131.500 C 120.707 140.025,121.592 147.000,121.966 147.000 C 122.341 147.000,123.481 156.000,124.500 167.000 C 125.519 178.000,126.724 187.000,127.177 187.000 C 127.629 187.000,128.000 189.025,128.000 191.500 C 128.000 193.975,127.562 196.000,127.026 196.000 C 124.999 196.000,123.000 202.037,122.986 208.200 C 122.968 216.093,126.188 249.325,127.036 250.000 C 127.381 250.275,128.470 259.050,129.456 269.500 C 130.443 279.950,131.580 288.950,131.984 289.500 C 132.388 290.050,133.290 296.800,133.988 304.500 C 134.685 312.200,135.566 318.725,135.944 319.000 C 136.322 319.275,137.459 328.500,138.470 339.500 C 139.481 350.500,140.607 359.725,140.973 360.000 C 141.339 360.275,142.325 367.326,143.166 375.668 C 144.289 386.822,145.125 391.268,146.325 392.468 C 147.222 393.365,148.303 394.639,148.728 395.299 C 150.457 397.988,154.274 399.001,162.736 399.016 C 172.623 399.034,204.234 396.023,205.000 394.990 C 205.275 394.619,211.688 393.727,219.250 393.007 C 226.813 392.286,233.000 391.400,233.000 391.037 C 233.000 390.674,241.550 389.544,252.000 388.526 C 262.450 387.508,271.000 386.298,271.000 385.838 C 271.000 385.377,272.943 385.000,275.318 385.000 C 281.739 385.000,289.754 382.351,290.507 379.979 C 290.852 378.891,291.518 378.000,291.986 378.000 C 294.743 378.000,294.777 346.986,292.022 345.000 C 291.641 344.725,290.528 335.725,289.550 325.000 C 288.572 314.275,287.430 305.050,287.013 304.500 C 286.595 303.950,285.441 294.838,284.447 284.250 C 283.453 273.663,282.339 265.000,281.973 265.000 C 281.606 265.000,280.718 258.250,280.000 250.000 C 279.282 241.750,278.406 235.000,278.054 235.000 C 277.701 235.000,276.563 226.000,275.525 215.000 C 274.487 204.000,273.324 195.000,272.942 195.000 C 272.560 195.000,272.036 192.450,271.778 189.334 C 271.406 184.850,270.806 183.285,268.904 181.834 C 267.582 180.826,265.830 179.438,265.011 178.750 C 263.296 177.310,240.036 177.369,239.073 178.816 C 238.758 179.289,229.725 180.497,219.000 181.500 C 208.275 182.503,199.275 183.640,199.000 184.026 C 198.725 184.413,191.750 185.286,183.500 185.967 C 175.250 186.648,168.050 187.563,167.500 188.000 C 166.950 188.438,162.113 189.120,156.750 189.517 L 147.000 190.238 147.000 185.119 C 147.000 182.304,146.632 180.000,146.181 180.000 C 145.731 180.000,144.542 170.887,143.540 159.750 C 142.537 148.612,141.406 139.275,141.027 139.000 C 140.647 138.725,139.555 129.950,138.601 119.500 C 137.646 109.050,136.481 99.600,136.013 98.500 C 131.220 87.250,134.286 63.000,140.501 63.000 C 141.247 63.000,142.485 62.373,143.251 61.606 C 144.189 60.668,150.674 59.630,163.073 58.432 C 173.208 57.454,181.725 56.340,182.000 55.957 C 182.799 54.845,212.331 52.652,216.353 53.406 C 219.679 54.030,225.000 58.279,225.000 60.311 C 225.000 60.769,225.604 61.747,226.342 62.485 C 227.186 63.329,228.156 68.955,228.959 77.663 C 229.661 85.273,230.579 91.950,230.998 92.500 C 231.418 93.050,232.333 100.362,233.032 108.750 C 233.732 117.137,234.627 124.000,235.023 124.000 C 235.418 124.000,236.063 128.162,236.455 133.250 C 237.545 147.381,238.600 151.725,241.626 154.529 C 247.391 159.872,257.000 155.581,257.000 147.664 C 257.000 141.018,254.903 120.653,253.997 118.500 C 253.534 117.400,252.368 107.725,251.407 97.000 C 250.445 86.275,249.343 77.275,248.958 77.000 C 248.573 76.725,247.692 69.525,247.000 61.000 C 246.308 52.475,245.431 45.275,245.051 45.000 C 244.670 44.725,243.616 36.884,242.707 27.576 C 241.798 18.267,240.704 10.392,240.275 10.076 C 239.847 9.759,238.838 8.224,238.034 6.665 C 234.862 0.518,224.263 -0.424,195.500 2.888 M186.744 28.000 C 187.283 33.542,168.242 38.522,166.326 33.340 C 165.952 32.328,165.163 31.169,164.573 30.765 C 163.825 30.253,163.843 30.026,164.633 30.015 C 165.257 30.007,165.994 29.132,166.271 28.072 C 167.312 24.089,186.356 24.022,186.744 28.000 M215.000 238.077 C 216.375 238.859,217.798 239.950,218.162 240.500 C 218.527 241.050,219.761 242.578,220.905 243.895 C 227.076 250.998,226.406 265.946,219.635 272.225 L 216.696 274.950 217.363 285.923 C 217.729 291.958,218.296 298.231,218.623 299.863 C 219.265 303.076,218.457 303.326,204.500 304.239 L 200.500 304.500 199.613 295.250 C 199.125 290.163,198.338 286.000,197.863 286.000 C 197.388 286.000,197.000 284.123,197.000 281.829 C 197.000 277.959,194.922 274.000,192.890 274.000 C 191.036 274.000,186.538 268.273,183.199 261.662 C 181.585 258.467,182.243 249.873,184.297 247.319 C 193.097 236.373,205.467 232.649,215.000 238.077 " stroke="none" fill-rule="evenodd"></path></g></svg>