<svg width="100%" height="100%" viewBox="0 0 400 400" version="1.1" xmlns="http://www.w3.org/2000/svg" style="fill-rule:evenodd;clip-rule:evenodd;stroke-linejoin:round;stroke-miterlimit:2;">
<g>
<path d="M196.067,7.513C194.986,8.21 29.775,103.609 29.775,103.609L29.775,298.096L198.461,395.54L366.573,298.474L366.857,103.486C366.857,103.486 314.821,73.485 314.619,73.425C314.277,73.322 266.702,100.57 264.818,101.948C264.119,102.459 316.292,132.759 316.292,132.759L316.292,268.95C316.292,268.95 198.877,336.675 198.535,336.685C198.193,336.696 80.347,268.82 80.347,268.82L80.359,132.865C80.359,132.865 248.624,35.515 248.134,35.062C247.453,34.433 198.51,6.153 198.204,6.213C198.11,6.231 197.149,6.816 196.067,7.513M146.058,170.401L146.348,231.522C146.348,231.522 197.343,260.922 197.873,261.076C198.464,261.248 251.119,231.18 251.119,231.18L251.091,170.506C251.091,170.506 198.971,140.689 198.439,140.64"/>
</g>
</svg>
