<svg id="svg" xmlns="http://www.w3.org/2000/svg" xmlns:xlink="http://www.w3.org/1999/xlink" width="400" height="400" viewBox="0, 0, 400,400"><g id="svgg"><path id="path0" d="M5.474 183.604 C 5.751 217.488,5.738 217.363,9.803 225.124 C 24.820 253.790,68.226 248.976,76.210 217.758 C 84.377 185.826,49.682 159.699,22.468 177.289 L 18.907 179.590 18.907 166.309 L 18.907 153.028 12.066 153.028 L 5.225 153.028 5.474 183.604 M223.929 166.309 L 223.929 179.590 220.368 177.289 C 199.617 163.876,170.994 176.312,166.272 200.791 C 159.465 236.079,201.370 258.934,226.607 233.697 C 236.856 223.448,237.470 220.521,237.498 181.832 L 237.518 153.028 230.724 153.028 L 223.929 153.028 223.929 166.309 M112.260 172.828 C 85.987 179.978,76.346 212.503,94.595 232.420 C 107.213 246.190,125.979 248.185,142.245 237.484 L 144.165 236.221 144.165 240.415 L 144.165 244.609 150.665 244.609 L 157.164 244.609 157.154 224.668 C 157.142 201.942,156.811 199.275,153.069 191.728 C 145.717 176.906,127.787 168.601,112.260 172.828 M272.759 172.871 C 251.162 178.099,239.564 204.140,249.756 224.520 C 260.214 245.433,288.337 250.939,305.557 235.444 C 333.744 210.082,309.570 163.960,272.759 172.871 M353.272 172.556 C 325.980 179.023,316.186 213.932,336.096 233.774 C 358.879 256.479,397.046 240.441,397.046 208.163 C 397.046 184.832,375.483 167.292,353.272 172.556 M129.248 186.828 C 144.859 192.590,148.638 213.863,136.043 225.088 C 128.514 231.799,117.528 232.750,109.209 227.412 C 86.390 212.769,103.830 177.448,129.248 186.828 M51.535 187.762 C 72.805 198.241,65.128 230.625,41.359 230.689 C 19.049 230.749,10.628 200.742,29.589 188.747 C 35.805 184.815,44.740 184.414,51.535 187.762 M211.116 187.563 C 228.290 196.252,228.011 220.612,210.644 228.739 C 193.576 236.725,175.347 221.208,179.579 202.296 C 182.544 189.050,198.928 181.396,211.116 187.563 M291.424 187.415 C 302.657 192.657,307.856 206.851,302.464 217.553 C 292.969 236.400,267.265 234.845,260.535 215.017 C 254.349 196.792,273.963 179.265,291.424 187.415 M371.206 187.579 C 392.459 198.131,385.187 230.752,361.595 230.689 C 336.686 230.622,330.178 196.607,353.218 186.899 C 358.122 184.832,366.297 185.141,371.206 187.579 " stroke="none" fill="#000000" fill-rule="evenodd"></path></g></svg>