<?xml version="1.0" encoding="UTF-8" standalone="no"?>
<!DOCTYPE svg PUBLIC "-//W3C//DTD SVG 1.1//EN" "http://www.w3.org/Graphics/SVG/1.1/DTD/svg11.dtd">
<svg width="100%" height="100%" viewBox="0 0 400 400" version="1.1" xmlns="http://www.w3.org/2000/svg" xmlns:xlink="http://www.w3.org/1999/xlink" xml:space="preserve" xmlns:serif="http://www.serif.com/" style="fill-rule:evenodd;clip-rule:evenodd;stroke-linejoin:round;stroke-miterlimit:2;">
    <g id="svgg">
        <path id="path0" d="M150,43.5C150,46.533 146.951,48.744 145.442,51.376C141.295,58.611 137.044,65.769 132.893,73C118.609,97.884 104.262,122.77 90,147.689C85.361,155.795 80.307,163.721 75.991,172.01C74.039,175.759 71.28,178.272 72.862,182.336C75.356,188.744 83.703,195.44 88,199.928C94.137,206.338 100.141,213.185 105.75,219.941C107.86,222.482 115.839,233.622 121.022,232.344C124.467,231.495 131.035,228.082 135,226.922C164.217,218.376 193.337,209.366 222.75,201.516C239.136,197.143 256.107,192.67 272,186.976C276.874,185.23 282.062,184.389 286.841,182.398C287.928,181.945 289.311,181.374 289.639,180.244C289.96,179.135 289.09,177.937 288.403,177.009C284.53,171.774 279.248,167.747 274.642,163.143C250.563,139.074 226.294,115.157 202.499,90.809C191.336,79.387 181.382,66.677 169.151,56.407C164.661,52.637 161.349,47.877 156.76,44.1C155.013,42.662 150,41.238 150,43.5M290.25,185.706C286.136,186.497 281.13,189.662 277,190.996C265.541,194.698 254.033,197.847 242.75,202.045C222.531,209.568 201.45,215.056 181,221.992C166.437,226.931 151.779,231.528 137.121,236.174C131.851,237.844 125.817,240.724 120.398,242.024L114.797,243.368L112.148,240.183C102.132,228.131 92.701,215.616 82.987,203.356C80.124,199.743 75.486,191.655 71.421,188.118L68.842,185.876L66.937,188.072C62.529,193.153 58.975,201.571 55.651,207.504C48.477,220.307 40.623,232.703 33.446,245.5C30.61,250.557 27.564,255.492 24.651,260.504C24.395,260.945 21.006,265.773 21,267.5C20.992,269.661 22.301,270.235 23.354,271.75C26.078,275.67 29.414,279.602 32,283.088C40.989,295.204 50.235,307.222 59,319.55C67.297,331.219 76.183,342.31 85.047,353.535C88.47,357.87 88.871,360.099 95.037,361.43C101.432,362.81 107.882,357.982 114,356.007C132.66,349.983 151.406,344.274 170,338.031C213.02,323.586 256.284,310.027 299.25,295.589C315.616,290.089 332.064,284.827 348.47,279.43C356.691,276.726 365.929,274.969 373.79,271.486C380.425,268.547 373.478,263.149 371,260.244C367.327,255.939 363.681,252.084 359.949,248C353.887,241.366 353.25,242.288 349,238.132C335.838,225.261 327.503,215.539 315.89,204.451C310.522,199.326 301.327,183.572 290.25,185.706"/>
    </g>
</svg>
