<svg xmlns="http://www.w3.org/2000/svg" width="400" height="400" viewBox="0, 0, 400,400">
<g>
<path d="M49.498 50.168 L -0.000 99.670 -0.000 151.482 L 0.000 203.294 97.754 301.314 L 195.507 399.333 199.588 399.333 L 203.668 399.333 301.834 301.166 L 400.000 202.998 400.000 151.638 L 400.000 100.277 350.325 50.639 L 300.651 1.000 297.544 0.792 L 294.438 0.584 247.379 47.625 C 221.497 73.498,200.023 94.667,199.659 94.667 C 199.294 94.667,177.848 73.517,152.000 47.667 L 105.004 0.667 102.000 0.667 L 98.997 0.667 49.498 50.168 M146.835 59.169 L 191.333 103.670 146.831 148.169 L 102.330 192.667 57.667 148.000 L 13.004 103.333 57.333 59.000 C 81.715 34.617,101.815 14.667,102.000 14.667 C 102.185 14.667,122.361 34.693,146.835 59.169 M341.678 147.988 L 297.026 192.645 252.694 148.310 L 208.362 103.975 253.013 59.320 L 297.664 14.665 341.998 58.999 L 386.331 103.332 341.678 147.988 M244.502 156.835 L 288.667 201.004 244.167 245.492 L 199.667 289.981 155.346 245.647 L 111.025 201.312 155.344 156.989 C 179.719 132.612,199.815 112.667,200.000 112.667 C 200.185 112.667,220.211 132.543,244.502 156.835 M95.839 242.201 L 95.667 281.354 53.168 238.844 L 10.669 196.333 10.668 157.035 L 10.667 117.737 53.339 160.392 L 96.011 203.047 95.839 242.201 M389.333 157.189 L 389.333 196.378 361.500 224.022 C 346.192 239.226,327.067 258.351,319.000 266.522 C 310.933 274.694,304.108 281.369,303.833 281.356 C 303.558 281.344,303.333 263.859,303.333 242.502 L 303.333 203.671 346.165 160.835 C 369.722 137.276,389.072 118.000,389.165 118.000 C 389.257 118.000,389.333 135.635,389.333 157.189 M151.165 258.831 L 193.333 300.996 193.319 340.331 L 193.306 379.667 150.687 336.667 L 108.069 293.667 108.035 255.167 C 108.016 233.992,108.224 216.667,108.498 216.667 C 108.772 216.667,127.972 235.641,151.165 258.831 M291.333 255.273 L 291.333 293.878 248.685 336.773 L 206.037 379.667 206.018 340.335 L 206.000 301.004 248.165 258.835 C 271.355 235.643,290.555 216.667,290.831 216.667 C 291.107 216.667,291.333 234.039,291.333 255.273 " stroke="none" fill-rule="evenodd"></path>
</g>
</svg>