<svg id="svg" version="1.1" width="400" height="400" xmlns="http://www.w3.org/2000/svg" xmlns:xlink="http://www.w3.org/1999/xlink" style="display: block;"><g id="svgg"><path id="path0" d="M38.483 166.777 L 25.466 167.055 13.200 199.661 C 6.453 217.594,1.092 232.425,1.286 232.619 C 4.510 235.844,59.487 233.540,65.947 229.910 C 77.530 223.400,77.458 204.019,65.835 199.632 C 62.278 198.289,62.299 197.906,66.048 195.773 C 71.988 192.392,73.852 180.724,69.411 174.720 C 64.595 168.208,57.452 166.373,38.483 166.777 M107.500 167.792 C 70.358 180.905,78.265 231.733,117.771 233.817 C 127.378 234.323,135.526 231.978,142.719 226.634 C 147.822 222.844,147.784 223.152,143.637 219.133 L 140.275 215.874 136.596 218.370 C 114.259 233.529,86.036 212.293,97.890 189.247 C 105.126 175.177,126.226 171.518,137.849 182.317 L 140.198 184.500 143.601 180.581 C 151.540 171.438,124.402 161.824,107.500 167.792 M185.241 166.750 C 185.373 167.162,184.722 169.525,183.793 172.000 C 182.864 174.475,177.356 189.024,171.552 204.331 C 165.748 219.638,161.000 232.351,161.000 232.581 C 161.000 232.811,166.520 233.000,173.266 233.000 L 185.533 233.000 190.516 219.501 L 195.500 206.001 212.250 206.001 L 229.000 206.000 229.000 200.950 L 229.000 195.900 214.116 196.200 L 199.231 196.500 202.219 188.500 C 207.548 174.230,207.858 173.483,207.930 174.750 C 207.982 175.677,211.104 176.000,220.000 176.000 L 232.000 176.000 232.000 171.000 L 232.000 166.000 208.500 166.000 C 195.575 166.000,185.108 166.338,185.241 166.750 M372.000 177.500 L 372.000 184.000 368.000 184.000 L 364.000 184.000 364.000 188.500 L 364.000 193.000 368.000 193.000 L 372.000 193.000 372.000 208.099 C 372.000 225.692,372.955 228.916,379.098 232.050 C 384.631 234.873,393.556 234.272,398.289 230.759 C 401.224 228.581,398.491 221.609,395.058 222.516 C 384.395 225.331,383.035 223.438,383.015 205.750 L 383.000 193.000 391.000 193.000 L 399.000 193.000 399.000 188.500 L 399.000 184.000 391.000 184.000 L 383.000 184.000 383.000 177.500 L 383.000 171.000 377.500 171.000 L 372.000 171.000 372.000 177.500 M53.775 177.586 C 59.825 178.822,61.851 185.737,57.608 190.669 C 55.243 193.418,39.028 195.920,40.129 193.365 C 40.335 192.889,41.828 188.867,43.448 184.426 C 46.636 175.687,46.128 176.024,53.775 177.586 M253.969 183.536 C 235.382 189.266,230.487 215.968,245.869 227.724 C 263.621 241.291,289.537 231.579,291.707 210.547 C 293.737 190.884,274.590 177.179,253.969 183.536 M304.000 208.000 L 304.000 234.000 309.500 234.000 L 315.000 234.000 315.024 220.750 C 315.061 200.054,317.870 194.042,328.226 192.489 C 340.292 190.679,343.000 195.254,343.000 217.450 L 343.000 234.000 349.119 234.000 L 355.237 234.000 354.811 214.750 C 354.346 193.694,353.832 191.561,348.061 186.705 C 339.549 179.542,321.976 181.073,316.886 189.420 L 315.007 192.500 315.004 187.250 L 315.000 182.000 309.500 182.000 L 304.000 182.000 304.000 208.000 M273.048 194.253 C 286.492 203.313,280.410 224.000,264.302 224.000 C 254.685 224.000,249.249 219.140,248.356 209.743 C 247.057 196.082,261.923 186.757,273.048 194.253 M57.149 205.782 C 64.592 208.849,64.737 217.999,57.397 221.482 C 54.803 222.713,51.339 222.999,41.656 222.780 L 29.240 222.500 32.744 213.000 L 36.247 203.500 45.374 204.096 C 50.393 204.423,55.692 205.182,57.149 205.782 " stroke="none" fill="#000000" fill-rule="evenodd"></path></g></svg>