<svg width="100%" height="100%" viewBox="0 0 400 400" version="1.1" xmlns="http://www.w3.org/2000/svg" style="fill-rule:evenodd;clip-rule:evenodd;stroke-linejoin:round;stroke-miterlimit:2;">
<g>
<path d="M310.8,106.259C301.422,107.137 287.913,109.924 284.855,111.611C284.495,111.81 281.5,113.071 278.2,114.414C247.131,127.06 224.839,155.823 221.575,187.474C220.476,198.139 222.011,216.744 224.407,221.8C224.615,222.24 225.398,224.49 226.146,226.8C228.66,234.563 237.536,248.928 238.094,249.819C242.553,256.94 254.261,268.096 262.4,272.979C263.83,273.837 265.528,274.974 266.173,275.505C269.487,278.235 281.921,283.387 290.663,285.654C294.148,286.557 297.36,287.452 297.8,287.641C303.431,290.066 335.154,290.041 339.96,287.608C340.312,287.43 343.407,286.559 346.837,285.674C355.718,283.382 373.819,273.904 374.819,273.395C379.079,271.226 392.4,260.374 392.4,259.072C392.4,258.877 380.8,247.048 378.6,244.684C373.908,239.644 374.498,239.788 370.668,242.747C356.426,253.753 342.524,259.601 326.8,261.199C324.49,261.434 318.143,261.199 316.3,261.198C306.698,261.193 290.252,256.056 282.747,250.718C270.429,241.955 262.764,233.035 258.16,222.104C244.529,189.742 258.906,153.551 291.014,139.399C292.986,138.53 294.69,137.712 294.8,137.582C295.462,136.798 303.12,134.668 309.4,133.523C313.858,132.71 327.718,132.837 332.6,133.737C338.092,134.749 345.359,136.838 346,137.59C346.11,137.719 347.55,138.359 349.2,139.012C352.805,140.439 362.984,146.213 365.79,148.422C366.895,149.292 369.06,151.081 370.6,152.396C374.019,155.318 374.296,155.332 376.545,152.7C377.532,151.545 391.997,135.016 391.999,134.545C392,134.023 389.748,131.998 384.59,127.881C382.604,126.296 380.588,124.635 380.109,124.188C377.567,121.818 366.176,115.814 359.6,113.378C357.29,112.522 355.31,111.71 355.2,111.574C354.319,110.48 339.29,107.248 331.258,106.424C327.512,106.041 314.277,105.934 310.8,106.259M123.513,134.8L126.772,134.8C143.675,134.8 154.935,140.972 157.792,151.804C160.603,162.459 155.865,173.231 146.4,177.703C139.85,180.797 136.629,181.264 119.833,181.557L105.866,181.8C105.866,181.8 96,207.55 96,208.34C96,208.679 100.432,208.801 112.9,208.804C141.126,208.811 149.011,210.405 158.628,218.048C171.324,228.137 168.49,247.489 153.2,255.107C144.134,259.623 138.58,260.2 104.157,260.2L76.515,260.2L66.296,287.2C66.296,287.2 139.292,287.197 140.324,287.194C164.487,287.113 188.161,273.341 195.319,255.2C205.792,228.657 190.911,198.814 164.4,193.197C162.53,192.801 161.476,192.46 162.058,192.438C164.783,192.339 172.06,189.346 174.283,187.409C174.677,187.066 175.99,186.013 177.2,185.069C183.662,180.028 189.071,170.236 190.405,161.161C193.667,138.978 182.387,120.745 160.6,112.985C158.84,112.358 157.307,111.712 157.193,111.549C156.568,110.657 144.062,108.261 137.583,107.793L133.766,107.517M-0.006,285.302C-0.003,285.469 65.298,285.4 65.298,285.4C65.298,285.4 131.186,109.738 131.196,109.1C131.198,108.935 116.561,108.8 98.67,108.8L66.139,108.8"/>
</g>
</svg>
