<svg id="svg" version="1.1" width="400" height="400" xmlns="http://www.w3.org/2000/svg" xmlns:xlink="http://www.w3.org/1999/xlink" style="display: block;"><g id="svgg"><path id="path0" d="M192.500 34.947 C 182.942 35.482,182.743 35.539,188.000 36.218 C 203.754 38.255,207.709 38.222,208.277 36.048 C 208.740 34.278,208.384 34.026,205.656 34.194 C 203.920 34.300,198.000 34.639,192.500 34.947 M213.000 36.355 C 213.000 38.199,218.820 38.449,229.000 37.042 C 234.043 36.345,234.167 36.269,230.500 36.134 C 228.300 36.052,223.463 35.699,219.750 35.348 C 213.894 34.795,213.000 34.929,213.000 36.355 M150.241 62.556 C 150.537 76.612,151.002 88.336,151.275 88.609 C 151.748 89.082,156.462 90.273,190.137 98.430 C 198.187 100.380,205.499 102.254,206.387 102.595 C 207.849 103.156,208.000 100.410,208.000 73.268 L 208.000 43.321 205.453 42.161 C 204.052 41.522,200.565 40.993,197.703 40.984 C 194.841 40.975,184.175 40.076,174.000 38.987 C 163.825 37.897,154.196 37.004,152.602 37.003 L 149.703 37.000 150.241 62.556 M246.000 41.050 C 235.275 41.426,223.463 41.794,219.750 41.867 L 213.000 42.000 213.000 72.500 L 213.000 103.000 216.000 103.000 C 217.650 103.000,226.763 102.103,236.250 101.007 C 245.738 99.910,257.496 98.577,262.380 98.044 C 267.264 97.510,271.437 96.896,271.654 96.679 C 272.060 96.273,273.942 54.645,273.979 45.250 L 274.000 40.000 269.750 40.183 C 267.413 40.283,256.725 40.673,246.000 41.050 M191.000 124.046 C 183.575 125.061,169.850 126.829,160.500 127.975 C 151.150 129.121,136.300 130.944,127.500 132.026 C 88.792 136.785,79.139 137.944,73.500 138.513 C 70.200 138.846,66.663 139.363,65.639 139.662 C 64.391 140.026,76.481 146.587,102.395 159.608 C 136.236 176.611,141.254 178.858,142.981 177.780 C 144.634 176.747,145.171 176.851,146.324 178.428 C 147.656 180.250,147.980 180.255,157.099 178.576 C 177.280 174.859,186.806 173.165,194.300 171.957 C 198.590 171.266,201.740 170.407,201.300 170.048 C 198.322 167.620,152.387 150.000,149.037 150.000 C 146.667 150.000,146.000 149.561,146.000 148.000 C 146.000 146.889,146.667 146.000,147.500 146.000 C 148.333 146.000,149.000 145.111,149.000 144.000 C 149.000 141.424,152.731 141.261,153.180 143.818 C 153.489 145.571,153.913 145.574,165.000 143.890 C 171.325 142.929,183.137 141.156,191.250 139.950 C 204.236 138.019,206.000 137.531,206.000 135.878 C 206.000 134.845,206.675 134.000,207.500 134.000 C 208.348 134.000,209.000 134.895,209.000 136.059 C 209.000 137.358,209.425 137.855,210.152 137.406 C 210.785 137.015,211.798 137.358,212.402 138.169 C 213.006 138.979,222.950 142.703,234.500 146.442 C 246.050 150.182,258.650 154.292,262.500 155.576 C 268.334 157.521,269.554 157.667,269.823 156.455 C 270.246 154.551,272.901 154.579,273.636 156.495 C 274.284 158.182,276.089 158.037,292.500 154.980 C 298.000 153.956,304.772 152.836,307.548 152.493 C 315.916 151.457,315.754 150.485,306.808 148.048 C 302.238 146.804,295.800 144.993,292.500 144.024 C 289.200 143.056,282.675 141.259,278.000 140.031 C 273.325 138.802,267.475 137.204,265.000 136.479 C 262.525 135.754,256.000 133.958,250.500 132.487 C 245.000 131.017,237.800 129.007,234.500 128.019 C 211.541 121.149,211.924 121.184,191.000 124.046 M59.430 149.752 C 60.449 163.685,64.005 210.956,65.993 237.000 C 67.064 251.025,68.478 270.118,69.137 279.429 L 70.334 296.358 84.417 310.830 C 92.163 318.790,102.100 328.987,106.500 333.491 C 110.900 337.995,122.045 349.469,131.267 358.989 C 140.489 368.509,148.214 376.119,148.434 375.899 C 148.653 375.680,148.229 358.175,147.491 337.000 C 146.752 315.825,145.354 273.398,144.384 242.717 L 142.620 186.935 140.060 184.134 C 138.483 182.409,122.395 173.778,98.181 161.668 L 58.863 142.004 59.430 149.752 M190.500 143.953 C 185.000 144.910,175.853 146.267,170.173 146.969 C 158.858 148.367,158.668 148.721,167.500 151.940 C 170.800 153.142,177.100 155.628,181.500 157.464 C 191.042 161.445,205.094 167.000,205.623 167.000 C 205.830 167.000,206.000 161.375,206.000 154.500 L 206.000 142.000 203.250 142.107 C 201.738 142.166,196.000 142.997,190.500 143.953 M209.000 153.514 C 209.000 163.057,209.254 165.000,210.500 165.000 C 211.333 165.000,212.000 165.889,212.000 167.000 C 212.000 168.333,212.667 169.000,214.000 169.000 C 215.163 169.000,216.000 169.667,216.000 170.594 C 216.000 171.470,215.100 172.423,214.000 172.710 C 211.931 173.251,210.687 299.990,212.750 300.006 C 213.162 300.009,218.778 303.721,225.230 308.256 C 231.681 312.790,242.185 320.100,248.570 324.500 C 254.956 328.900,260.837 333.116,261.638 333.869 C 264.083 336.166,264.215 335.060,265.170 304.294 C 265.679 287.907,266.973 249.574,268.046 219.109 C 269.903 166.392,269.913 163.654,268.249 162.391 C 267.287 161.661,255.925 157.626,243.000 153.424 C 230.075 149.222,217.137 144.939,214.250 143.906 L 209.000 142.028 209.000 153.514 M313.500 155.164 C 302.526 157.202,283.596 160.550,277.837 161.472 L 274.175 162.058 273.591 170.279 C 273.270 174.801,272.331 199.650,271.505 225.500 C 270.678 251.350,269.535 286.621,268.964 303.879 C 267.776 339.760,267.234 336.919,274.714 334.018 C 277.896 332.783,282.750 330.945,285.500 329.932 C 288.250 328.918,295.198 326.269,300.940 324.045 C 306.682 321.820,311.888 320.000,312.509 320.000 C 313.272 320.000,314.021 313.288,314.825 299.250 C 316.974 261.698,320.136 208.964,321.915 181.000 C 322.877 165.875,323.627 153.457,323.582 153.404 C 323.537 153.351,319.000 154.143,313.500 155.164 M199.000 175.491 C 195.425 176.197,186.650 177.772,179.500 178.992 C 172.350 180.212,163.189 181.838,159.143 182.605 C 155.097 183.372,150.709 184.000,149.393 184.000 C 146.449 184.000,146.518 179.998,148.470 237.500 C 149.292 261.700,150.688 303.325,151.571 330.000 C 152.455 356.675,153.254 378.579,153.347 378.675 C 153.441 378.771,155.538 378.029,158.008 377.025 C 162.209 375.319,166.295 373.794,179.250 369.096 C 182.138 368.050,189.268 365.350,195.096 363.096 C 200.924 360.843,206.211 359.000,206.846 359.000 C 207.695 359.000,208.000 350.064,208.000 325.165 C 208.000 306.555,208.299 264.930,208.664 232.665 C 209.313 175.292,209.286 174.002,207.414 174.104 C 206.361 174.161,202.575 174.786,199.000 175.491 " stroke="none" fill="#000000" fill-rule="evenodd"></path></g></svg>