<svg id="svg" version="1.1" width="400" height="400" xmlns="http://www.w3.org/2000/svg" xmlns:xlink="http://www.w3.org/1999/xlink" style="display: block;"><g id="svgg"><path id="path0" d="M6.917 126.416 C 6.688 126.645,6.725 154.738,7.000 188.844 L 7.500 250.856 12.000 254.131 C 22.635 261.871,40.424 274.000,41.141 274.000 C 41.569 274.000,48.031 270.400,55.500 266.000 C 62.969 261.600,69.474 258.000,69.957 258.000 C 70.439 258.000,70.983 257.649,71.167 257.221 C 71.669 256.045,106.217 235.667,107.707 235.667 C 108.418 235.667,108.778 235.445,108.507 235.174 C 107.833 234.500,124.898 224.819,125.789 225.370 C 126.771 225.977,126.281 187.865,125.295 186.962 C 124.379 186.125,101.859 179.008,88.277 175.264 C 83.204 173.866,79.224 172.447,79.431 172.111 C 79.639 171.775,78.839 171.440,77.655 171.367 C 76.470 171.294,73.250 170.529,70.500 169.666 C 60.146 166.416,51.522 164.145,51.108 164.559 C 50.872 164.795,52.362 168.575,54.420 172.959 C 56.477 177.344,57.830 181.466,57.426 182.120 C 57.001 182.807,57.116 183.046,57.699 182.686 C 58.259 182.340,60.309 185.527,62.312 189.856 L 65.917 197.650 75.940 202.075 C 87.504 207.180,87.315 206.925,81.750 209.902 C 61.943 220.496,56.778 222.981,55.809 222.382 C 55.194 222.002,54.955 222.119,55.279 222.642 C 55.602 223.165,51.509 225.859,46.183 228.628 C 40.857 231.398,31.550 236.257,25.500 239.426 C 15.773 244.521,14.905 244.818,18.000 241.995 C 19.925 240.239,26.112 234.512,31.750 229.267 L 42.000 219.731 42.000 178.488 C 42.000 146.666,41.714 137.028,40.750 136.296 C 39.571 135.400,36.127 134.296,16.235 128.435 C 7.120 125.750,7.501 125.832,6.917 126.416 M169.000 197.393 L 169.000 245.000 174.441 245.000 C 180.318 245.000,181.592 244.056,181.191 240.000 C 180.978 237.849,181.093 237.742,182.011 239.231 C 186.683 246.809,206.807 248.713,214.187 242.276 C 215.115 241.466,216.321 241.081,216.868 241.418 C 217.415 241.756,218.187 241.506,218.585 240.862 C 219.078 240.065,218.860 239.955,217.905 240.518 C 217.132 240.973,217.651 240.167,219.059 238.728 C 230.605 226.915,231.756 199.544,221.219 187.355 C 212.229 176.956,193.762 176.300,184.305 186.045 L 180.500 189.965 180.701 172.936 C 180.935 153.101,180.991 153.344,175.835 151.955 C 173.657 151.369,171.228 150.641,170.437 150.338 C 169.200 149.863,169.000 156.407,169.000 197.393 M241.189 155.039 C 238.606 157.445,238.352 161.630,240.593 164.830 C 242.367 167.362,253.267 167.858,252.309 165.364 C 252.064 164.725,252.344 163.905,252.932 163.542 C 254.824 162.373,254.071 157.980,251.545 155.455 C 248.527 152.436,244.170 152.261,241.189 155.039 M290.137 180.369 C 288.287 181.038,285.052 183.032,282.948 184.799 L 279.121 188.011 278.811 184.367 L 278.500 180.722 273.000 180.728 L 267.500 180.733 267.500 213.000 L 267.500 245.267 273.000 245.268 L 278.500 245.270 279.022 223.385 C 279.572 200.307,279.767 199.160,283.897 194.668 C 289.846 188.196,306.540 187.504,305.250 193.783 C 305.112 194.452,305.406 195.000,305.902 195.000 C 308.392 195.000,309.378 202.281,309.693 223.000 L 310.021 244.500 315.510 244.800 L 321.000 245.100 321.000 222.231 C 321.000 196.752,320.137 191.503,314.980 185.630 C 313.366 183.792,312.373 181.926,312.773 181.484 C 313.173 181.041,312.985 180.974,312.356 181.333 C 311.727 181.693,309.604 181.315,307.638 180.493 C 303.403 178.724,294.852 178.663,290.137 180.369 M352.001 180.745 C 333.345 187.328,325.936 225.834,340.865 238.617 C 341.983 239.574,342.672 240.721,342.397 241.167 C 342.121 241.613,342.594 241.709,343.448 241.382 C 344.302 241.054,345.000 241.247,345.000 241.810 C 345.000 245.924,366.615 247.448,372.284 243.734 C 373.766 242.763,375.321 241.877,375.739 241.766 C 376.158 241.654,377.574 240.424,378.886 239.032 L 381.271 236.500 380.767 243.045 C 379.445 260.214,364.548 268.876,347.500 262.390 C 339.876 259.490,340.239 259.397,338.669 264.649 L 337.218 269.500 341.359 271.449 C 354.403 277.588,383.621 272.072,386.525 262.923 C 386.865 261.849,387.631 261.272,388.227 261.640 C 388.826 262.011,389.024 261.848,388.671 261.276 C 388.319 260.708,388.812 258.726,389.766 256.871 C 391.300 253.890,391.534 249.310,391.797 217.250 L 392.093 181.000 387.547 181.000 C 385.046 181.000,382.663 180.887,382.250 180.750 C 381.837 180.613,381.359 181.961,381.187 183.746 L 380.874 186.993 377.126 183.981 C 370.683 178.803,361.029 177.560,352.001 180.745 M240.438 180.896 C 239.820 181.513,239.890 242.548,240.509 244.168 C 240.872 245.116,242.608 245.401,246.523 245.157 L 252.027 244.813 251.764 212.812 L 251.500 180.811 246.188 180.635 C 243.266 180.537,240.678 180.655,240.438 180.896 M207.425 191.266 C 214.062 195.043,216.202 200.458,215.819 212.500 C 215.494 222.682,212.859 230.872,210.107 230.250 C 209.498 230.112,209.112 230.548,209.250 231.217 C 210.157 235.630,194.581 237.539,188.898 233.711 C 182.026 229.083,177.212 207.388,181.995 202.605 C 182.548 202.052,183.000 200.853,183.000 199.940 C 183.000 192.322,199.181 186.575,207.425 191.266 M368.000 189.969 C 368.000 190.501,368.597 190.708,369.326 190.428 C 370.853 189.842,378.991 196.757,379.415 199.000 C 379.571 199.825,380.035 201.276,380.446 202.225 C 381.873 205.514,380.582 222.248,378.589 226.306 C 371.723 240.282,352.331 238.949,346.599 224.108 C 341.968 212.118,348.227 191.046,356.437 190.985 C 357.572 190.976,359.175 190.533,360.000 190.000 C 361.952 188.739,368.000 188.715,368.000 189.969 " stroke="none" fill="#000000" fill-rule="evenodd"></path></g></svg>