<svg width="100%" height="100%" viewBox="0 0 426 426" version="1.1" xmlns="http://www.w3.org/2000/svg" style="fill-rule:evenodd;clip-rule:evenodd;stroke-linejoin:round;stroke-miterlimit:2;">
    <g transform="matrix(1,0,0,1,12.6356,9.02542)">
        <path d="M187.793,4.42C185.469,5.22 156.841,21.127 156.841,21.127C156.841,21.127 156.964,107.042 157.156,107.042C157.348,107.042 200.135,82.485 200.135,82.485L302.305,141.315L302.3,260.563C302.3,260.563 201.472,318.499 200.783,318.733C200.094,318.966 98.122,260.498 98.122,260.498C98.122,260.498 97.362,55.399 97.018,55.399C96.673,55.399 29.13,95.194 25.188,103.121L23.005,107.512C23.005,107.512 22.601,291.912 30.086,303.121C35.389,311.062 188.611,399.387 199.531,399.472C211.344,399.564 376.995,291.59 376.995,291.59C376.995,291.59 378.021,105.229 365.317,93.089C360.1,88.103 218.872,6.339 211.801,4.211C205.869,2.425 193.268,2.535 187.793,4.42M157.277,175.378L156.809,225.822C156.809,225.822 199.746,250.235 200.336,250.235C200.926,250.235 243.192,226.15 243.192,226.15L243.122,175.117C243.122,175.117 200.617,151.194 199.898,151.218"/>
    </g>
</svg>
