<svg width="100%" height="100%" viewBox="0 0 400 400" version="1.1" xmlns="http://www.w3.org/2000/svg" style="fill-rule:evenodd;clip-rule:evenodd;stroke-linejoin:round;stroke-miterlimit:2;">
<g>
<path d="M193.747,36.395C192.477,37.667 190.22,37.634 189,38.955C187.279,40.819 184.009,44.707 183,47C177.994,58.376 195.049,68.95 201.552,74.5C203.356,76.039 230.443,97.934 230,97.947C205.285,98.688 76.769,103.154 75.5,104C68.403,108.732 63,113.134 63,122.5C63,146.492 149.167,140.127 148.571,141.571C146.867,145.703 5.538,249.546 10.869,268C15.732,284.835 29.39,286.137 44.767,283.2C48.28,282.529 122.621,219.98 122.85,221C124.528,228.488 124.651,236.249 125.943,243.814C128.183,256.931 134.886,272.944 143,283.708C169.751,319.195 207.363,337 251.5,337C270.097,337 289.77,334.658 307,327C336.781,313.764 361.688,290.706 373,260C374.971,254.65 378.783,248.464 379.25,242.75C379.977,233.853 380.5,224.926 380.5,216C380.5,198.87 378.648,180.604 370.595,164.993C367.751,159.48 361.949,153.317 358,148.557C345.626,133.643 246.591,55.435 222.763,40C217.009,36.273 215.067,35.184 206.255,35.046C202.062,34.98 196.713,33.431 193.747,36.395M265.739,140.32C268.77,140.85 271.821,141.289 274.823,141.968C278.063,142.701 281.008,144.649 284,146C294.003,150.517 305.31,156.478 312,165.613C316.874,172.268 322.654,180.909 324.935,188.812C334.933,223.442 315.872,257.568 284,272C273.362,276.817 261.256,278.307 249.465,278.032C245.242,277.933 241.06,277.608 237,277.129C204.67,273.312 175,240.63 175,208C175,185.313 189.021,167.834 205.405,154C214.628,146.213 226.567,142.261 238.25,140.387M228.824,164.919C219.476,169.733 209.653,179.037 205.982,189.173C204.172,194.171 202.001,200.633 202,206C201.996,222.094 211.034,234.584 223.236,244C226.34,246.395 230.246,250.031 234.187,251.06C240.16,252.62 248.262,254.999 254.5,255C260.083,255.001 267.557,252.601 272.828,251.015C275.152,250.316 277.807,248.127 280,247C304.488,234.419 315.908,197.287 293.335,177C289.28,173.355 285.898,168.742 281.112,166.129C272.945,161.671 262.751,159 253.5,159"/>
</g>
</svg>
