<svg id="svg" version="1.1" width="400" height="400" xmlns="http://www.w3.org/2000/svg" xmlns:xlink="http://www.w3.org/1999/xlink" style="display: block;"><g id="svgg"><path id="path0" d="M193.747 36.395 C 192.865 37.278,191.436 38.000,190.571 38.000 C 189.707 38.000,189.000 38.430,189.000 38.955 C 189.000 39.480,187.875 41.034,186.500 42.409 C 185.125 43.784,184.000 45.380,184.000 45.955 C 184.000 46.530,183.550 47.000,183.000 47.000 C 182.450 47.000,182.000 48.575,182.000 50.500 C 182.000 52.425,182.450 54.000,183.000 54.000 C 183.550 54.000,184.000 55.320,184.000 56.933 C 184.000 58.987,184.599 60.055,186.000 60.500 C 187.100 60.849,188.000 61.534,188.000 62.022 C 188.000 63.238,195.218 70.000,196.516 70.000 C 196.846 70.000,199.112 72.025,201.552 74.500 C 203.992 76.975,206.471 79.000,207.061 79.000 C 207.652 79.000,209.620 80.575,211.435 82.500 C 213.251 84.425,215.371 86.000,216.147 86.000 C 216.923 86.000,218.220 86.955,219.029 88.123 C 221.543 91.750,223.074 93.000,225.004 93.000 C 226.028 93.000,227.151 93.900,227.500 95.000 C 227.849 96.100,228.554 97.000,229.067 97.000 C 229.580 97.000,230.000 97.426,230.000 97.947 C 230.000 98.531,201.618 99.010,155.833 99.197 C 97.605 99.435,81.577 99.769,81.250 100.750 C 81.021 101.437,79.971 102.000,78.917 102.000 C 77.862 102.000,77.000 102.450,77.000 103.000 C 77.000 103.550,76.325 104.000,75.500 104.000 C 74.675 104.000,74.000 104.450,74.000 105.000 C 74.000 105.550,73.290 106.000,72.423 106.000 C 70.140 106.000,65.000 111.487,65.000 113.923 C 65.000 115.065,64.550 116.000,64.000 116.000 C 63.436 116.000,63.000 118.833,63.000 122.500 C 63.000 126.167,63.436 129.000,64.000 129.000 C 64.550 129.000,65.000 129.675,65.000 130.500 C 65.000 131.325,65.420 132.000,65.933 132.000 C 66.446 132.000,67.151 132.900,67.500 134.000 C 67.849 135.100,69.004 136.000,70.067 136.000 C 71.130 136.000,72.000 136.450,72.000 137.000 C 72.000 137.550,73.125 138.000,74.500 138.000 C 75.875 138.000,77.000 138.450,77.000 139.000 C 77.000 139.648,89.857 140.000,113.571 140.000 C 146.818 140.000,150.000 140.143,148.571 141.571 C 147.707 142.436,147.000 143.561,147.000 144.071 C 147.000 144.582,146.264 145.000,145.365 145.000 C 144.465 145.000,142.687 146.125,141.412 147.500 C 140.138 148.875,138.512 150.010,137.798 150.022 C 137.084 150.033,135.154 151.608,133.510 153.522 C 131.865 155.435,129.893 157.000,129.127 157.000 C 127.671 157.000,124.000 160.689,124.000 162.153 C 124.000 162.619,123.120 163.000,122.045 163.000 C 120.044 163.000,115.000 167.328,115.000 169.045 C 115.000 169.570,114.264 170.000,113.365 170.000 C 112.465 170.000,110.687 171.125,109.412 172.500 C 108.138 173.875,106.604 175.000,106.002 175.000 C 105.401 175.000,103.784 176.125,102.409 177.500 C 101.034 178.875,99.435 180.000,98.856 180.000 C 97.609 180.000,92.000 185.814,92.000 187.106 C 92.000 187.598,91.120 188.000,90.045 188.000 C 88.970 188.000,86.966 189.125,85.591 190.500 C 84.216 191.875,82.813 193.000,82.474 193.000 C 82.135 193.000,81.230 193.562,80.463 194.250 C 77.474 196.931,76.061 198.000,75.509 198.000 C 75.192 198.000,73.358 199.575,71.433 201.500 C 69.508 203.425,67.454 205.000,66.868 205.000 C 66.282 205.000,64.541 206.350,63.000 208.000 C 61.459 209.650,59.724 211.000,59.144 211.000 C 58.565 211.000,56.966 212.125,55.591 213.500 C 54.216 214.875,52.825 216.000,52.500 216.000 C 52.175 216.000,50.826 217.013,49.503 218.250 C 45.910 221.609,44.151 223.000,43.497 223.000 C 43.174 223.000,41.784 224.125,40.409 225.500 C 39.034 226.875,37.435 228.000,36.856 228.000 C 36.276 228.000,34.541 229.350,33.000 231.000 C 31.459 232.650,29.909 234.000,29.557 234.000 C 28.023 234.000,17.000 244.646,17.000 246.127 C 17.000 246.753,16.061 248.080,14.912 249.076 C 13.710 250.119,12.594 252.606,12.281 254.943 C 11.982 257.174,11.346 259.000,10.868 259.000 C 10.391 259.000,10.000 261.025,10.000 263.500 C 10.000 265.975,10.391 268.000,10.869 268.000 C 11.347 268.000,11.991 269.559,12.301 271.465 C 12.839 274.782,18.719 282.000,20.883 282.000 C 21.406 282.000,22.021 282.563,22.250 283.250 C 22.826 284.979,44.190 284.931,44.767 283.200 C 44.987 282.540,45.864 282.000,46.716 282.000 C 48.284 282.000,52.000 278.390,52.000 276.866 C 52.000 276.411,53.237 275.733,54.750 275.359 C 57.429 274.698,61.000 271.548,61.000 269.847 C 61.000 269.381,61.868 269.000,62.929 269.000 C 64.922 269.000,66.440 267.775,68.971 264.123 C 69.780 262.955,71.071 262.000,71.841 262.000 C 72.610 262.000,75.180 259.975,77.552 257.500 C 79.923 255.025,82.329 253.000,82.898 253.000 C 83.468 253.000,85.508 251.425,87.433 249.500 C 89.358 247.575,91.192 246.000,91.509 246.000 C 92.152 246.000,93.927 244.594,97.503 241.250 C 98.826 240.012,100.174 239.000,100.497 239.000 C 101.829 239.000,109.000 232.215,109.000 230.955 C 109.000 230.430,109.734 230.000,110.632 230.000 C 111.529 230.000,113.749 228.425,115.565 226.500 C 117.380 224.575,119.571 223.000,120.433 223.000 C 121.295 223.000,122.000 222.550,122.000 222.000 C 122.000 221.450,122.383 221.000,122.850 221.000 C 123.318 221.000,123.967 226.054,124.293 232.231 C 124.635 238.712,125.332 243.611,125.943 243.814 C 126.524 244.008,127.000 245.929,127.000 248.083 C 127.000 250.238,127.450 252.000,128.000 252.000 C 128.550 252.000,129.000 253.125,129.000 254.500 C 129.000 255.875,129.399 257.000,129.886 257.000 C 130.374 257.000,131.077 259.025,131.448 261.500 C 131.819 263.975,132.545 266.000,133.061 266.000 C 133.578 266.000,134.000 266.675,134.000 267.500 C 134.000 268.325,134.450 269.000,135.000 269.000 C 135.550 269.000,136.000 269.900,136.000 271.000 C 136.000 272.100,136.450 273.000,137.000 273.000 C 137.550 273.000,138.000 273.675,138.000 274.500 C 138.000 275.325,138.450 276.000,139.000 276.000 C 139.550 276.000,140.000 276.868,140.000 277.929 C 140.000 278.989,140.675 280.532,141.500 281.357 C 142.325 282.182,143.000 283.240,143.000 283.708 C 143.000 284.176,143.900 285.207,145.000 286.000 C 146.100 286.793,147.000 288.040,147.000 288.771 C 147.000 290.400,164.427 308.000,166.040 308.000 C 166.677 308.000,168.459 309.350,170.000 311.000 C 171.541 312.650,173.297 314.000,173.901 314.000 C 174.506 314.000,175.000 314.420,175.000 314.933 C 175.000 315.446,176.012 316.185,177.250 316.576 C 178.488 316.966,180.228 318.122,181.117 319.143 C 182.007 320.164,183.469 321.000,184.367 321.000 C 185.265 321.000,186.000 321.430,186.000 321.955 C 186.000 322.480,187.575 323.205,189.500 323.566 C 191.425 323.927,193.000 324.623,193.000 325.111 C 193.000 325.600,194.125 326.000,195.500 326.000 C 196.875 326.000,198.000 326.450,198.000 327.000 C 198.000 327.550,198.900 328.000,200.000 328.000 C 201.100 328.000,202.000 328.450,202.000 329.000 C 202.000 329.550,203.125 330.000,204.500 330.000 C 205.875 330.000,207.000 330.404,207.000 330.899 C 207.000 331.393,210.150 332.113,214.000 332.500 C 217.850 332.887,221.000 333.607,221.000 334.101 C 221.000 334.596,223.025 335.000,225.500 335.000 C 227.975 335.000,230.000 335.450,230.000 336.000 C 230.000 336.636,237.833 337.000,251.500 337.000 C 265.167 337.000,273.000 336.636,273.000 336.000 C 273.000 335.450,275.475 335.000,278.500 335.000 C 281.525 335.000,284.000 334.608,284.000 334.129 C 284.000 333.650,286.700 332.953,290.000 332.580 C 293.300 332.206,296.000 331.473,296.000 330.950 C 296.000 330.428,297.125 330.000,298.500 330.000 C 299.875 330.000,301.000 329.550,301.000 329.000 C 301.000 328.450,302.350 328.000,304.000 328.000 C 305.650 328.000,307.000 327.550,307.000 327.000 C 307.000 326.450,307.675 326.000,308.500 326.000 C 309.325 326.000,310.000 325.600,310.000 325.111 C 310.000 324.623,311.575 323.927,313.500 323.566 C 315.425 323.205,317.000 322.480,317.000 321.955 C 317.000 321.430,317.900 321.000,319.000 321.000 C 320.100 321.000,321.000 320.550,321.000 320.000 C 321.000 319.450,321.482 319.000,322.071 319.000 C 322.661 319.000,323.818 318.325,324.643 317.500 C 325.468 316.675,327.011 316.000,328.071 316.000 C 329.132 316.000,330.000 315.550,330.000 315.000 C 330.000 314.450,330.476 314.000,331.058 314.000 C 331.640 314.000,334.112 311.975,336.552 309.500 C 338.992 307.025,341.459 305.000,342.033 305.000 C 343.457 305.000,351.000 297.438,351.000 296.011 C 351.000 295.381,352.575 293.380,354.500 291.565 C 356.425 289.749,358.000 287.529,358.000 286.632 C 358.000 285.734,358.381 285.000,358.847 285.000 C 360.714 285.000,363.773 281.312,364.445 278.249 C 364.838 276.462,365.573 275.000,366.079 275.000 C 366.586 275.000,367.000 274.100,367.000 273.000 C 367.000 271.900,367.450 271.000,368.000 271.000 C 368.550 271.000,369.000 270.518,369.000 269.929 C 369.000 269.339,369.675 268.182,370.500 267.357 C 371.325 266.532,372.000 264.539,372.000 262.929 C 372.000 261.318,372.450 260.000,373.000 260.000 C 373.550 260.000,374.000 258.875,374.000 257.500 C 374.000 256.125,374.450 255.000,375.000 255.000 C 375.550 255.000,376.000 253.875,376.000 252.500 C 376.000 251.125,376.450 250.000,377.000 250.000 C 377.550 250.000,378.000 248.463,378.000 246.583 C 378.000 244.704,378.563 242.979,379.250 242.750 C 380.208 242.431,380.500 236.178,380.500 216.000 C 380.500 195.822,380.208 189.569,379.250 189.250 C 378.563 189.021,378.000 187.296,378.000 185.417 C 378.000 183.537,377.550 182.000,377.000 182.000 C 376.450 182.000,376.000 180.875,376.000 179.500 C 376.000 178.125,375.550 177.000,375.000 177.000 C 374.450 177.000,374.000 176.100,374.000 175.000 C 374.000 173.900,373.601 173.000,373.114 173.000 C 372.626 173.000,371.927 170.998,371.560 168.550 C 371.084 165.380,370.333 163.923,368.946 163.483 C 367.876 163.143,367.000 161.996,367.000 160.933 C 367.000 159.870,366.580 159.000,366.067 159.000 C 365.554 159.000,364.816 157.997,364.427 156.770 C 364.038 155.544,362.432 153.338,360.860 151.869 C 359.287 150.400,358.000 148.909,358.000 148.557 C 358.000 147.785,356.329 145.725,353.139 142.563 C 349.497 138.954,349.022 138.468,345.358 134.608 C 343.475 132.624,341.472 131.000,340.909 131.000 C 340.345 131.000,337.888 128.975,335.448 126.500 C 333.008 124.025,330.446 121.990,329.756 121.978 C 329.065 121.967,327.154 120.392,325.510 118.478 C 323.865 116.565,321.893 115.000,321.127 115.000 C 319.671 115.000,316.000 111.311,316.000 109.847 C 316.000 109.381,315.120 109.000,314.045 109.000 C 312.044 109.000,307.000 104.672,307.000 102.955 C 307.000 102.430,306.264 102.000,305.365 102.000 C 304.465 102.000,302.687 100.875,301.412 99.500 C 300.138 98.125,298.604 97.000,298.002 97.000 C 297.401 97.000,295.784 95.875,294.409 94.500 C 293.034 93.125,291.367 91.990,290.705 91.977 C 290.042 91.965,287.952 90.165,286.060 87.977 C 284.167 85.790,282.050 84.000,281.355 84.000 C 280.660 84.000,278.966 82.875,277.591 81.500 C 276.216 80.125,274.813 79.000,274.474 79.000 C 274.135 79.000,273.230 78.438,272.463 77.750 C 269.474 75.069,268.061 74.000,267.509 74.000 C 267.192 74.000,265.358 72.425,263.433 70.500 C 261.508 68.575,259.454 67.000,258.868 67.000 C 258.282 67.000,256.541 65.650,255.000 64.000 C 253.459 62.350,251.724 61.000,251.144 61.000 C 250.565 61.000,248.966 59.875,247.591 58.500 C 246.216 57.125,244.825 56.000,244.500 56.000 C 244.175 56.000,242.784 54.875,241.409 53.500 C 240.034 52.125,238.435 51.000,237.856 51.000 C 237.276 51.000,235.541 49.650,234.000 48.000 C 232.459 46.350,230.541 45.000,229.739 45.000 C 228.937 45.000,227.435 43.875,226.403 42.500 C 225.370 41.125,223.732 40.000,222.763 40.000 C 221.793 40.000,221.000 39.550,221.000 39.000 C 221.000 38.450,220.363 38.000,219.583 38.000 C 218.804 38.000,217.982 37.447,217.757 36.772 C 217.067 34.700,195.777 34.366,193.747 36.395 M257.000 138.851 C 257.000 139.320,260.933 139.980,265.739 140.320 C 270.546 140.659,274.634 141.401,274.823 141.968 C 275.012 142.536,276.254 143.000,277.583 143.000 C 278.913 143.000,280.000 143.450,280.000 144.000 C 280.000 144.550,280.900 145.000,282.000 145.000 C 283.100 145.000,284.000 145.450,284.000 146.000 C 284.000 146.550,285.093 147.000,286.429 147.000 C 287.764 147.000,289.532 147.675,290.357 148.500 C 291.182 149.325,292.339 150.000,292.929 150.000 C 293.518 150.000,294.000 150.450,294.000 151.000 C 294.000 151.550,294.705 152.000,295.567 152.000 C 296.429 152.000,298.620 153.575,300.435 155.500 C 302.251 157.425,304.440 159.000,305.301 159.000 C 306.161 159.000,307.144 159.877,307.484 160.949 C 307.824 162.021,308.979 163.176,310.051 163.516 C 311.123 163.856,312.000 164.800,312.000 165.613 C 312.000 166.426,313.125 168.216,314.500 169.591 C 315.875 170.966,317.000 172.745,317.000 173.545 C 317.000 174.345,317.450 175.000,318.000 175.000 C 318.550 175.000,319.000 175.870,319.000 176.933 C 319.000 177.996,319.842 179.133,320.872 179.459 C 322.169 179.871,322.917 181.343,323.307 184.255 C 323.617 186.566,324.350 188.617,324.935 188.812 C 325.521 189.007,326.000 191.154,326.000 193.583 C 326.000 196.013,326.450 198.000,327.000 198.000 C 327.600 198.000,328.000 202.000,328.000 208.000 C 328.000 214.000,327.600 218.000,327.000 218.000 C 326.450 218.000,326.000 219.988,326.000 222.417 C 326.000 224.846,325.521 226.993,324.935 227.188 C 324.350 227.383,323.616 229.446,323.304 231.772 C 322.992 234.097,322.346 236.000,321.868 236.000 C 321.391 236.000,321.000 236.675,321.000 237.500 C 321.000 238.325,320.550 239.000,320.000 239.000 C 319.450 239.000,319.000 239.696,319.000 240.548 C 319.000 241.399,317.875 243.138,316.500 244.412 C 315.125 245.687,314.000 247.366,314.000 248.144 C 314.000 248.922,313.040 250.220,311.866 251.029 C 310.692 251.838,309.230 253.084,308.616 253.798 C 305.292 257.666,302.810 260.000,302.022 260.000 C 301.534 260.000,300.849 260.900,300.500 262.000 C 300.151 263.100,299.095 264.000,298.153 264.000 C 297.212 264.000,295.794 264.898,295.003 265.995 C 294.212 267.093,292.088 268.268,290.282 268.607 C 288.477 268.945,287.000 269.623,287.000 270.111 C 287.000 270.600,286.325 271.000,285.500 271.000 C 284.675 271.000,284.000 271.450,284.000 272.000 C 284.000 272.550,282.688 273.000,281.083 273.000 C 279.479 273.000,277.994 273.518,277.783 274.151 C 277.572 274.784,274.834 275.515,271.700 275.775 C 268.565 276.035,266.000 276.642,266.000 277.124 C 266.000 277.606,259.475 278.000,251.500 278.000 C 243.525 278.000,237.000 277.608,237.000 277.129 C 237.000 276.650,234.300 275.953,231.000 275.580 C 227.700 275.206,225.000 274.473,225.000 273.950 C 225.000 273.428,223.875 273.000,222.500 273.000 C 221.125 273.000,220.000 272.550,220.000 272.000 C 220.000 271.450,219.100 271.000,218.000 271.000 C 216.900 271.000,216.000 270.550,216.000 270.000 C 216.000 269.450,215.086 269.000,213.969 269.000 C 212.851 269.000,211.678 268.325,211.362 267.500 C 211.045 266.675,210.047 265.996,209.143 265.991 C 208.239 265.986,206.437 264.636,205.137 262.991 C 203.838 261.346,202.171 260.000,201.433 260.000 C 199.939 260.000,195.000 255.410,195.000 254.022 C 195.000 253.534,194.100 252.849,193.000 252.500 C 191.900 252.151,191.000 251.201,191.000 250.389 C 191.000 249.577,189.875 247.699,188.500 246.217 C 187.125 244.734,186.000 242.953,186.000 242.260 C 186.000 241.567,185.550 241.000,185.000 241.000 C 184.450 241.000,184.000 240.100,184.000 239.000 C 184.000 237.900,183.550 237.000,183.000 237.000 C 182.450 237.000,182.000 236.325,182.000 235.500 C 182.000 234.675,181.578 234.000,181.061 234.000 C 180.545 234.000,179.819 231.975,179.448 229.500 C 179.077 227.025,178.374 225.000,177.886 225.000 C 177.399 225.000,177.000 222.975,177.000 220.500 C 177.000 218.025,176.550 216.000,176.000 216.000 C 175.417 216.000,175.000 212.667,175.000 208.000 C 175.000 203.333,175.417 200.000,176.000 200.000 C 176.550 200.000,177.000 198.425,177.000 196.500 C 177.000 194.575,177.418 193.000,177.928 193.000 C 178.438 193.000,179.165 190.525,179.543 187.500 C 179.921 184.475,180.629 182.000,181.115 182.000 C 181.602 182.000,182.000 181.325,182.000 180.500 C 182.000 179.675,182.450 179.000,183.000 179.000 C 183.550 179.000,184.000 178.199,184.000 177.221 C 184.000 176.242,184.900 174.793,186.000 174.000 C 187.100 173.207,188.000 171.981,188.000 171.275 C 188.000 169.692,203.810 154.000,205.405 154.000 C 206.040 154.000,207.207 153.100,208.000 152.000 C 208.793 150.900,210.017 150.000,210.721 150.000 C 211.424 150.000,212.000 149.590,212.000 149.088 C 212.000 148.586,213.800 147.872,216.000 147.500 C 218.200 147.128,220.000 146.414,220.000 145.912 C 220.000 145.410,220.675 145.000,221.500 145.000 C 222.325 145.000,223.000 144.550,223.000 144.000 C 223.000 143.450,224.088 143.000,225.417 143.000 C 226.746 143.000,227.983 142.565,228.167 142.034 C 228.350 141.503,232.887 140.762,238.250 140.387 C 243.613 140.012,248.000 139.321,248.000 138.852 C 248.000 138.384,250.025 138.000,252.500 138.000 C 254.975 138.000,257.000 138.383,257.000 138.851 M243.000 160.000 C 243.000 160.550,241.650 161.000,240.000 161.000 C 238.350 161.000,237.000 161.450,237.000 162.000 C 237.000 162.550,236.056 163.000,234.901 163.000 C 231.765 163.000,225.848 166.047,222.849 169.207 C 221.391 170.743,219.751 172.000,219.205 172.000 C 217.596 172.000,212.341 177.350,211.573 179.770 C 211.184 180.997,210.446 182.000,209.933 182.000 C 209.420 182.000,209.000 182.900,209.000 184.000 C 209.000 185.100,208.550 186.000,208.000 186.000 C 207.450 186.000,207.000 186.637,207.000 187.417 C 207.000 188.196,206.542 188.986,205.982 189.173 C 205.422 189.359,204.684 191.872,204.342 194.756 C 204.001 197.640,203.334 200.000,202.861 200.000 C 202.387 200.000,202.000 202.700,202.000 206.000 C 202.000 209.300,202.386 212.000,202.858 212.000 C 203.329 212.000,204.009 214.813,204.367 218.250 C 204.726 221.688,205.465 224.650,206.010 224.833 C 206.554 225.017,207.000 225.705,207.000 226.363 C 207.000 227.020,207.900 228.207,209.000 229.000 C 210.100 229.793,211.000 231.095,211.000 231.893 C 211.000 233.690,221.420 244.000,223.236 244.000 C 223.963 244.000,225.207 244.900,226.000 246.000 C 226.793 247.100,228.017 248.000,228.721 248.000 C 229.424 248.000,230.000 248.450,230.000 249.000 C 230.000 249.550,230.863 250.000,231.917 250.000 C 232.971 250.000,233.992 250.477,234.187 251.060 C 234.381 251.643,238.018 252.383,242.270 252.704 C 246.521 253.026,250.000 253.674,250.000 254.144 C 250.000 254.615,252.025 255.000,254.500 255.000 C 256.975 255.000,259.000 254.615,259.000 254.145 C 259.000 253.674,262.035 253.006,265.745 252.659 C 269.455 252.313,272.642 251.573,272.828 251.015 C 273.014 250.457,273.804 250.000,274.583 250.000 C 275.363 250.000,276.000 249.550,276.000 249.000 C 276.000 248.450,276.900 248.000,278.000 248.000 C 279.100 248.000,280.000 247.550,280.000 247.000 C 280.000 246.450,280.852 246.000,281.893 246.000 C 282.934 246.000,284.045 245.325,284.362 244.500 C 284.678 243.675,285.686 243.000,286.601 243.000 C 288.233 243.000,292.000 239.451,292.000 237.914 C 292.000 237.486,292.900 236.849,294.000 236.500 C 295.100 236.151,296.000 235.095,296.000 234.153 C 296.000 233.212,296.898 231.794,297.995 231.003 C 299.093 230.212,300.268 228.088,300.607 226.282 C 300.945 224.477,301.623 223.000,302.111 223.000 C 302.600 223.000,303.000 221.875,303.000 220.500 C 303.000 219.125,303.450 218.000,304.000 218.000 C 304.609 218.000,305.000 213.500,305.000 206.500 C 305.000 199.500,304.609 195.000,304.000 195.000 C 303.450 195.000,303.000 193.650,303.000 192.000 C 303.000 190.350,302.570 189.000,302.045 189.000 C 301.520 189.000,300.809 187.498,300.465 185.663 C 300.120 183.827,298.913 181.689,297.781 180.913 C 296.650 180.136,294.649 178.375,293.335 177.000 C 287.963 171.380,284.237 168.000,283.413 168.000 C 283.040 168.000,282.004 167.158,281.112 166.129 C 280.220 165.100,277.579 163.936,275.245 163.541 C 272.910 163.147,271.000 162.414,271.000 161.912 C 271.000 161.410,269.425 161.000,267.500 161.000 C 265.575 161.000,264.000 160.550,264.000 160.000 C 264.000 159.397,259.833 159.000,253.500 159.000 C 247.167 159.000,243.000 159.397,243.000 160.000 " stroke="none" fill="#000000" fill-rule="evenodd"></path></g></svg>