<svg width="100%" height="100%" viewBox="0 0 400 400" version="1.1" xmlns="http://www.w3.org/2000/svg" style="fill-rule:evenodd;clip-rule:evenodd;stroke-linejoin:round;stroke-miterlimit:2;">
    <g>
        <path d="M178.2,34.2C177.297,35.103 177,142.483 177,142.483C177,142.483 129.554,96.046 127.682,97.918C127.087,98.513 119.257,103.72 113.488,109.488C97.62,125.357 95.221,120.246 139.128,164.128L175.255,200.235L139.128,236.372C95.213,280.3 97.704,274.725 114.489,291.511C130.1,307.122 126.739,308.094 155.159,279.75C166.603,268.337 176.198,259 176.483,259C177.499,259 175,362.091 175,362.091L177.455,364.545C182.003,369.094 289,261.85 289,258.329C289,254.854 234.777,200.196 234.777,200.196L289,141.241C289,141.241 182.387,30.013 178.2,34.2M235.001,141.541L217,159.458C217,159.458 217.122,124 217.271,124M233,259C233,260.024 218.507,275 217.516,275C217.232,275 217.232,243 217.516,243"/>
    </g>
</svg>
