<svg
   xmlns="http://www.w3.org/2000/svg"
   version="1.1"
   viewBox="0 0 107 107">
  <path
     d="m 58.677347,36.874962 h -7.47839 V 25.599851 c 0,-1.840835 -1.495678,-3.336513 -3.336513,-3.336513 H 44.525932 V 36.874962 H 37.162594 V 15.360209 h 10.69985 c 5.752608,-0.230104 10.469747,4.25693 10.699851,10.009538 0,0.115052 0,0.230104 0,0.230104 V 36.874962 Z M 56.951565,86.117286 H 37.277646 v -7.133234 0 -14.956781 h 7.363338 V 78.984052 H 56.951565 Z M 69.837406,50.336065 c 4.832191,-1.495678 6.673025,-2.6462 9.779434,-5.522504 4.717138,-4.717138 7.248286,-11.160059 7.133233,-17.833084 C 86.980178,19.617139 83.758717,12.714009 78.006109,7.9968714 71.678241,2.3593157 64.890164,0.40342898 52.004322,0.40342898 H 16.108049 V 106.59657 h 33.480178 c 5.752608,0 10.239642,-0.11505 13.576154,-0.34516 18.63845,-1.26557 27.72757,-14.611621 27.72757,-29.338297 0,-13.806259 -6.903129,-22.320119 -21.054545,-26.577048" />
</svg>
