<svg width="100%" height="100%" viewBox="0 0 400 400" version="1.1" xmlns="http://www.w3.org/2000/svg" style="fill-rule:evenodd;clip-rule:evenodd;stroke-linejoin:round;stroke-miterlimit:2;">
<g>
<path d="M51.75,0.721C35.455,2.163 1.897,24.367 1.628,47.214C1.605,49.126 1.61,350.874 1.628,352.786C1.78,369.318 21.327,397.284 47.214,398.372C49.124,398.452 350.876,398.455 352.786,398.372C374.655,397.417 398.905,370.479 398.372,352.786C398.314,350.875 398.409,49.126 398.372,47.214C398.081,32.13 368.309,2.248 352.787,1.628C351.517,1.577 64.379,-0.313 51.75,0.721M237,89C237,89.55 290.219,89.982 291,144C291.665,190.018 257,193.675 257,194.5C257,195.433 298.164,197.998 299.242,236.247C299.294,238.094 299.106,270.918 299.206,272.765C302.12,326.634 236,317.673 236,318.144C236,318.615 109,319 109,319L109,88C109,88 237,88.344 237,89M148,186C148,186 232,183.55 232,183C232,182.45 251.836,172.792 252,152C252.154,132.524 234.65,122 233,122C231.35,122 148,120 148,120M148.667,212.667C148.3,213.033 148,287 148,287C148,287 237.8,284.968 240,284.616C242.2,284.264 264.015,275.422 263.089,246.947C262.128,217.354 225,213.556 225,213C225,211.874 149.788,211.546 148.667,212.667"/>
</g>
</svg>
