<svg width="100%" height="100%" viewBox="0 0 515 515" version="1.1" xmlns="http://www.w3.org/2000/svg" style="fill-rule:evenodd;clip-rule:evenodd;stroke-linejoin:round;stroke-miterlimit:2;">
    <g>
        <path d="M13.271,124.964C8.185,127.273 5.794,129.439 3.627,133.7C1.215,138.446 1.16,296.594 3.566,311.074C15,379.884 90.953,414.096 148.707,376.451C161.013,368.429 173.357,355.716 178.514,345.75C180.983,340.979 180.778,340.895 185.5,348.583C194.651,363.48 223.851,385.891 234.272,386.015C234.947,386.023 237.3,386.644 239.5,387.395C277.711,400.448 327.819,378.82 347.957,340.581C375.2,288.853 352.914,230.724 296.571,206.547C260.042,190.874 208.57,207.889 185.304,243.328L180.459,250.709L178.729,248.416C177.778,247.155 177,245.823 177,245.456C177,243.122 160.854,225.832 153.72,220.528C122.592,197.381 73.929,196.118 45.184,217.711C40.394,221.31 39.319,137.136 37.694,133.871C33.119,124.682 22.457,120.794 13.271,124.964M485,200.539C479.323,202.305 429,263.464 429,261.19C429,260.744 388.086,211.758 386.487,209.63C375.758,195.348 354.203,197.843 348.489,214.028C345.515,222.452 346.918,225.668 360.921,242.536C365.471,248.016 403.536,294.255 403.745,294.829C403.941,295.364 365.668,343.091 354.841,356.739C340.597,374.693 353.12,393.926 376.064,389.337C379.183,388.713 408.361,355.012 411.781,350.75C433.258,323.986 430.011,326.156 436.5,334.227C439.25,337.648 469.774,374.326 472.515,377.779C487.083,396.129 513.009,391.531 512.996,370.6C512.992,363.159 456.945,294.761 456.945,294.761C456.945,294.761 511.109,226.368 512.145,222.912C516.27,209.141 500.125,195.834 485,200.539M278.54,241.552C312.938,250.506 331.68,292.867 314.133,322C312.974,323.925 311.619,326.411 311.123,327.525C310.627,328.638 307.025,332.564 303.119,336.249C271.561,366.019 220.765,351.501 209.879,309.601C199.238,268.643 237.384,230.837 278.54,241.552M113.732,243.346C159.822,258.442 167.588,320.09 126.527,344.904C89.049,367.553 41,340.641 41,297C41,259.486 78.516,231.811 113.732,243.346"/>
    </g>
</svg>
