<?xml version="1.0" encoding="UTF-8" standalone="no"?>
<!DOCTYPE svg PUBLIC "-//W3C//DTD SVG 1.1//EN" "http://www.w3.org/Graphics/SVG/1.1/DTD/svg11.dtd">
<svg width="100%" height="100%" viewBox="0 0 400 400" version="1.1" xmlns="http://www.w3.org/2000/svg" xmlns:xlink="http://www.w3.org/1999/xlink" xml:space="preserve" xmlns:serif="http://www.serif.com/" style="fill-rule:evenodd;clip-rule:evenodd;stroke-linejoin:round;stroke-miterlimit:2;">
    <g id="svgg">
        <path id="path0" d="M7.469,113.065C7.321,113.212 7.2,114.293 7.2,115.467L7.2,117.6L0,117.6L0,287.2L85.2,287.2L85.2,282.819L91.9,282.71L98.6,282.6L98.84,278L108,278L108,273.64L112.6,273.4L112.84,268.8L117.2,268.8L117.2,264.44L121.8,264.2L122.04,259.6L126.407,259.6L126.303,236.9L126.2,214.2L122,213.958L122,209.6L117.24,209.6L117,205L112.8,204.758L112.8,200.4L108.04,200.4L107.8,195.8L98.8,195.574L98.8,190.826L107.8,190.6L107.92,188.519L108.04,186.439L110.32,186.319L112.6,186.2L112.719,183.92L112.839,181.64L114.919,181.52L117,181.4L117.113,176.92L117.226,172.439L119.513,172.32L121.8,172.2L121.8,140.6L119.513,140.48L117.226,140.361L117.113,135.88L117,131.4L112.84,131.16L112.6,127L110.319,126.881L108.039,126.761L107.919,124.481L107.8,122.2L103.32,122.087L98.841,121.974L98.72,119.887L98.6,117.8L91.92,117.69L85.239,117.581L85.12,115.29L85,113L46.369,112.898C25.121,112.842 7.616,112.917 7.469,113.065M320,115.191L320,117.581L313.1,117.691L306.2,117.8L306.08,119.887L305.959,121.974L301.48,122.087L297,122.2L296.88,124.487L296.761,126.774L292.28,126.887L287.8,127L287.68,129.087L287.559,131.174L283.08,131.287L278.6,131.4L278.36,136L274,136L274,140.36L269.4,140.6L269.174,149.6L264.8,149.6L264.8,154.4L260,154.4L260,163.6L255.6,163.6L255.6,182L250.8,182L250.8,222.8L255.6,222.8L255.6,241.2L260,241.2L260,250.4L264.8,250.4L264.8,255.2L269.174,255.2L269.4,264.2L274,264.44L274,268.8L278.36,268.8L278.6,273.4L287.6,273.626L287.6,278L296.76,278L297,282.6L303.9,282.709L310.8,282.819L310.8,287.2L384,287.2L384,282.8L400,282.8L400,186.4L338.4,186.4L338.4,218.4L366,218.4L366,250.76L361.4,251L361.16,255.6L333.2,255.6L333.2,250.8L319.6,250.8L319.6,246.4L314.8,246.4L314.8,241.6L310.4,241.6L310.4,237.2L305.6,237.2L305.6,232.4L301.226,232.4L301,223.4L296.4,223.16L296.4,204.8L292,204.8L292,195.6L296.4,195.6L296.4,177.24L301,177L301.226,168L305.6,168L305.6,163.24L310.2,163L310.442,158.8L314.8,158.8L314.8,154L324,154L324,149.6L342.4,149.6L342.4,144.8L361.16,144.8L361.4,149.4L372.679,149.506L383.959,149.612L384.079,151.706L384.2,153.8L393,153.8L393.108,144.7L393.215,135.6L397.6,135.6L397.6,117.6L379.2,117.6L379.2,112.8L320,112.8L320,115.191M71.68,147.1L71.8,149.4L75.96,149.64L76.2,153.8L80.8,154.04L80.8,172.8L76,172.8L76,177.174L67,177.4L66.76,182L39.2,182L39.2,144.8L71.56,144.8L71.68,147.1M154.4,222.996L154.4,287.2L195.6,287.2L195.6,218.442L199.8,218.2L200.026,209.2L204.4,209.2L204.4,200L213.6,200L213.6,195.612L236.6,195.4L236.6,159L223.1,158.895L209.6,158.789L209.6,163.6L200.4,163.6L200.4,167.96L195.8,168.2L195.574,177.2L191.2,177.2L191.109,179.7C191.059,181.075 190.924,176.98 190.809,170.6L190.6,159L154.4,158.792L154.4,222.996M53.2,211.4L53.2,213.6L71.56,213.6L71.8,218.2L80.774,218.426L81,227.4L85.2,227.642L85.2,246.4L80.8,246.4L80.8,250.76L76.2,251L75.96,255.6L62.4,255.6L62.4,260L43.6,260L43.6,255.6L39.2,255.6L39.2,209.2L53.2,209.2L53.2,211.4"/>
        <path id="path1" d="M7.469,113.065C7.321,113.212 7.2,114.293 7.2,115.467L7.2,117.6L0,117.6L0,287.2L85.2,287.2L126.407,259.6L126.303,236.9L126.2,214.2L98.8,195.574L98.8,190.826L121.8,172.2L121.8,140.6L85,113L46.369,112.898C25.121,112.842 7.616,112.917 7.469,113.065M320,115.191L320,117.581L313.1,117.691L306.2,117.8L250.8,182L250.8,222.8L310.8,282.819L310.8,287.2L384,287.2L384,282.8L400,282.8L400,186.4L338.4,186.4L338.4,218.4L366,218.4L366,250.76L361.4,251L361.16,255.6L333.2,255.6L333.2,250.8L296.4,204.8L292,204.8L292,195.6L296.4,195.6L296.4,186.42L324,149.6L342.4,149.6L342.4,144.8L361.16,144.8L361.4,149.4L372.679,149.506L383.959,149.612L384.079,151.706L384.2,153.8L393,153.8L393.108,144.7L393.215,135.6L397.6,135.6L397.6,117.6L379.2,117.6L379.2,112.8L320,112.8L320,115.191M80.8,154.04L80.8,172.8L66.76,182L39.2,182L39.2,144.8L71.56,144.8M154.4,222.996L154.4,287.2L195.6,287.2L195.6,218.442L213.6,195.612L236.6,195.4L236.6,159L223.1,158.895L209.6,158.789L191.2,177.2L191.109,179.7C191.059,181.075 190.924,176.98 190.809,170.6L190.6,159L154.4,158.792L154.4,222.996M85.2,227.642L85.2,246.4L39.2,255.6L39.2,209.2"/>
    </g>
</svg>
