<svg id="svg" version="1.1" width="515" height="515" xmlns="http://www.w3.org/2000/svg" xmlns:xlink="http://www.w3.org/1999/xlink" style="display: block;"><g id="svgg"><path id="path0" d="M259.000 373.500 C 259.000 374.679,257.611 375.000,252.500 375.000 L 246.000 375.000 246.000 425.000 L 246.000 475.000 269.000 475.000 C 283.667 475.000,292.000 474.638,292.000 474.000 C 292.000 473.450,294.264 473.000,297.031 473.000 C 300.581 473.000,302.232 472.558,302.638 471.500 C 302.955 470.675,304.291 470.000,305.607 470.000 C 306.923 470.000,308.000 469.518,308.000 468.929 C 308.000 467.544,310.544 465.000,311.929 465.000 C 312.518 465.000,313.000 464.518,313.000 463.929 C 313.000 462.544,315.544 460.000,316.929 460.000 C 317.518 460.000,318.000 458.650,318.000 457.000 C 318.000 455.000,318.500 454.000,319.500 454.000 C 322.110 454.000,321.648 433.000,318.989 430.722 C 317.882 429.775,316.532 429.000,315.989 429.000 C 315.445 429.000,315.000 427.875,315.000 426.500 C 315.000 424.500,314.500 424.000,312.500 424.000 C 310.944 424.000,310.000 423.433,310.000 422.500 C 310.000 421.675,309.550 421.000,309.000 421.000 C 307.546 421.000,307.776 419.081,309.429 417.429 C 310.214 416.643,311.339 416.000,311.929 416.000 C 312.518 416.000,313.000 415.325,313.000 414.500 C 313.000 413.675,313.450 413.000,314.000 413.000 C 314.550 413.000,315.000 411.875,315.000 410.500 C 315.000 408.944,315.567 408.000,316.500 408.000 C 317.722 408.000,318.000 406.333,318.000 399.000 C 318.000 391.667,317.722 390.000,316.500 390.000 C 315.649 390.000,315.000 389.103,315.000 387.929 C 315.000 385.715,312.836 383.000,311.071 383.000 C 310.482 383.000,310.000 382.325,310.000 381.500 C 310.000 380.567,309.056 380.000,307.500 380.000 C 305.944 380.000,305.000 379.433,305.000 378.500 C 305.000 377.567,304.056 377.000,302.500 377.000 C 301.125 377.000,300.000 376.550,300.000 376.000 C 300.000 375.450,297.750 375.000,295.000 375.000 C 291.222 375.000,290.000 374.633,290.000 373.500 C 290.000 372.231,287.611 372.000,274.500 372.000 C 261.389 372.000,259.000 372.231,259.000 373.500 M429.000 373.500 C 429.000 374.633,427.778 375.000,424.000 375.000 C 421.250 375.000,419.000 375.450,419.000 376.000 C 419.000 376.550,417.861 377.000,416.469 377.000 C 415.076 377.000,413.678 377.675,413.362 378.500 C 413.045 379.325,411.709 380.000,410.393 380.000 C 409.077 380.000,408.000 380.482,408.000 381.071 C 408.000 382.836,405.285 385.000,403.071 385.000 C 401.897 385.000,401.000 385.649,401.000 386.500 C 401.000 387.325,400.325 388.000,399.500 388.000 C 398.675 388.000,398.000 388.450,398.000 389.000 C 398.000 389.550,397.325 390.000,396.500 390.000 C 395.567 390.000,395.000 390.944,395.000 392.500 C 395.000 393.875,394.550 395.000,394.000 395.000 C 393.450 395.000,393.000 395.675,393.000 396.500 C 393.000 397.325,392.325 398.000,391.500 398.000 C 390.417 398.000,390.000 399.111,390.000 402.000 C 390.000 404.200,389.550 406.000,389.000 406.000 C 388.450 406.000,388.000 408.250,388.000 411.000 C 388.000 414.778,387.633 416.000,386.500 416.000 C 385.278 416.000,385.000 417.667,385.000 425.000 C 385.000 432.333,385.278 434.000,386.500 434.000 C 387.633 434.000,388.000 435.222,388.000 439.000 C 388.000 441.750,388.450 444.000,389.000 444.000 C 389.550 444.000,390.000 445.800,390.000 448.000 C 390.000 450.200,390.482 452.000,391.071 452.000 C 392.764 452.000,395.000 454.679,395.000 456.706 C 395.000 458.593,398.225 462.000,400.011 462.000 C 400.555 462.000,401.000 462.675,401.000 463.500 C 401.000 464.351,401.897 465.000,403.071 465.000 C 405.285 465.000,408.000 467.164,408.000 468.929 C 408.000 469.518,409.077 470.000,410.393 470.000 C 411.709 470.000,413.045 470.675,413.362 471.500 C 413.768 472.558,415.419 473.000,418.969 473.000 C 421.736 473.000,424.000 473.450,424.000 474.000 C 424.000 474.630,430.667 475.000,442.000 475.000 C 453.333 475.000,460.000 474.630,460.000 474.000 C 460.000 473.450,462.250 473.000,465.000 473.000 C 468.778 473.000,470.000 472.633,470.000 471.500 C 470.000 470.567,470.944 470.000,472.500 470.000 L 475.000 470.000 475.000 441.500 L 475.000 413.000 454.500 413.000 L 434.000 413.000 434.000 424.500 L 434.000 436.000 442.000 436.000 L 450.000 436.000 450.000 444.000 L 450.000 452.000 440.500 452.000 C 432.722 452.000,431.000 451.728,431.000 450.500 C 431.000 449.650,430.104 449.000,428.933 449.000 C 427.796 449.000,425.380 447.425,423.565 445.500 C 421.749 443.575,419.754 442.000,419.132 442.000 C 418.509 442.000,418.000 441.325,418.000 440.500 C 418.000 439.675,417.550 439.000,417.000 439.000 C 416.450 439.000,416.000 437.200,416.000 435.000 C 416.000 432.111,415.583 431.000,414.500 431.000 C 413.321 431.000,413.000 429.611,413.000 424.500 C 413.000 419.389,413.321 418.000,414.500 418.000 C 415.548 418.000,416.000 416.944,416.000 414.500 C 416.000 412.575,416.450 411.000,417.000 411.000 C 417.550 411.000,418.000 409.875,418.000 408.500 C 418.000 406.944,418.567 406.000,419.500 406.000 C 420.325 406.000,421.000 405.325,421.000 404.500 C 421.000 403.675,421.675 403.000,422.500 403.000 C 423.325 403.000,424.000 402.325,424.000 401.500 C 424.000 400.567,424.944 400.000,426.500 400.000 C 427.875 400.000,429.000 399.550,429.000 399.000 C 429.000 398.450,430.575 398.000,432.500 398.000 C 434.944 398.000,436.000 397.548,436.000 396.500 C 436.000 395.272,437.722 395.000,445.500 395.000 C 453.278 395.000,455.000 395.272,455.000 396.500 C 455.000 397.548,456.056 398.000,458.500 398.000 C 460.425 398.000,462.000 398.450,462.000 399.000 C 462.000 399.550,463.125 400.000,464.500 400.000 C 466.500 400.000,467.000 399.500,467.000 397.500 C 467.000 395.944,467.567 395.000,468.500 395.000 C 469.633 395.000,470.000 393.778,470.000 390.000 C 470.000 386.222,470.367 385.000,471.500 385.000 C 472.528 385.000,473.000 383.969,473.000 381.722 C 473.000 376.855,470.238 375.000,462.989 375.000 C 458.332 375.000,457.000 374.666,457.000 373.500 C 457.000 372.238,454.778 372.000,443.000 372.000 C 431.222 372.000,429.000 372.238,429.000 373.500 M282.000 394.000 C 282.000 394.550,283.125 395.000,284.500 395.000 C 286.056 395.000,287.000 395.567,287.000 396.500 C 287.000 397.325,287.675 398.000,288.500 398.000 C 289.633 398.000,290.000 399.222,290.000 403.000 C 290.000 407.667,289.833 408.000,287.500 408.000 C 285.944 408.000,285.000 408.567,285.000 409.500 C 285.000 410.679,283.611 411.000,278.500 411.000 L 272.000 411.000 272.000 403.458 C 272.000 398.848,272.486 395.364,273.250 394.496 C 274.668 392.885,282.000 392.470,282.000 394.000 M367.000 399.500 C 367.000 400.433,366.056 401.000,364.500 401.000 C 363.125 401.000,362.000 401.450,362.000 402.000 C 362.000 402.550,360.875 403.000,359.500 403.000 C 358.125 403.000,357.000 402.550,357.000 402.000 C 357.000 401.391,352.500 401.000,345.500 401.000 L 334.000 401.000 334.000 438.000 L 334.000 475.000 346.500 475.000 L 359.000 475.000 359.000 453.000 C 359.000 434.111,359.212 431.000,360.500 431.000 C 361.433 431.000,362.000 430.056,362.000 428.500 C 362.000 426.500,362.500 426.000,364.500 426.000 C 365.875 426.000,367.000 425.550,367.000 425.000 C 367.000 424.436,369.833 424.000,373.500 424.000 L 380.000 424.000 380.000 411.000 L 380.000 398.000 373.500 398.000 C 368.389 398.000,367.000 398.321,367.000 399.500 M282.000 432.500 C 282.000 433.433,282.944 434.000,284.500 434.000 C 285.875 434.000,287.000 434.450,287.000 435.000 C 287.000 435.550,288.125 436.000,289.500 436.000 C 291.910 436.000,292.000 436.233,292.000 442.500 C 292.000 446.167,291.564 449.000,291.000 449.000 C 290.450 449.000,290.000 449.675,290.000 450.500 C 290.000 451.433,289.056 452.000,287.500 452.000 C 285.944 452.000,285.000 452.567,285.000 453.500 C 285.000 454.679,283.611 455.000,278.500 455.000 L 272.000 455.000 272.000 443.000 L 272.000 431.000 277.000 431.000 C 280.778 431.000,282.000 431.367,282.000 432.500 " stroke="none" fill="#000000" fill-rule="evenodd"></path></g></svg>