<?xml version="1.0" encoding="UTF-8" standalone="no"?>
<!DOCTYPE svg PUBLIC "-//W3C//DTD SVG 1.1//EN" "http://www.w3.org/Graphics/SVG/1.1/DTD/svg11.dtd">
<svg width="100%" height="100%" viewBox="0 0 400 400" version="1.1" xmlns="http://www.w3.org/2000/svg" xmlns:xlink="http://www.w3.org/1999/xlink" xml:space="preserve" xmlns:serif="http://www.serif.com/" style="fill-rule:evenodd;clip-rule:evenodd;stroke-linejoin:round;stroke-miterlimit:2;">
    <g id="svgg">
        <path id="path0" d="M24,6.5C24,6.696 24.027,6.894 24.079,7.082C24.125,7.25 24.21,7.407 24.294,7.559C24.56,8.044 25.176,8.13 25.558,7.743C25.873,7.424 26,6.936 26,6.5C26,6.304 25.973,6.106 25.921,5.918C25.875,5.75 25.79,5.593 25.706,5.441C25.44,4.956 24.824,4.87 24.442,5.257C24.127,5.576 24,6.064 24,6.5M28.765,9.21C29.492,11.988 32.041,13.985 34.152,15.931C45.719,26.585 60.882,30.364 73.71,39C84.378,46.182 84.289,46.149 92.149,50.061C92.769,50.37 93.27,52.812 94,53C94.453,53.117 94.541,51.921 95,52.014C104.879,54.011 113.312,60.47 122.19,65.241C128.092,68.413 137.842,73.778 144.457,77.968C166.19,91.732 183.141,109.967 201.163,128.431C202.85,130.16 216.685,143.808 219.389,149.179C221.017,152.413 221.564,156.088 222.775,159.5C223.066,160.321 224.001,161.001 223.89,161.865C223.824,162.378 223.089,161.12 222.578,161.038C221.572,160.877 220.282,160.486 219.525,161.168C218.113,162.441 219.176,165.7 217.441,166.477C215.056,167.544 214.938,165.363 212.578,166.556C208.321,168.708 205.187,174.278 200.325,175.836C197.495,176.742 194.117,175.073 191.423,176.328C190.31,176.847 189.368,180.324 188.462,181.157C185.665,183.731 180.831,180.112 177.068,180.652C170.483,181.596 158.257,186.558 152.679,191C139.747,201.297 133.761,219.217 130.798,235.152C129.69,241.112 129.694,247.226 129.024,253.25C128.863,254.694 129.113,256.341 128.307,257.55C127.832,258.263 126.501,258.579 125.794,258.094C113.125,249.391 115.168,247.289 103.168,237.834C100.388,235.644 96.129,232.094 93.164,236.579C91.697,238.798 91.344,241.581 90.578,244.129C87.635,253.923 83.996,265.512 84.069,275.834C84.091,278.988 86.038,282.021 85.692,285.156C84.881,292.515 77.686,299.318 78.53,307.094C78.886,310.379 84.674,309.88 86.04,309.637C88.174,309.256 90.256,308.513 92.206,307.566C101.628,302.99 105.146,298.73 116.122,294.079C116.512,293.914 117.26,294.239 117.25,294.662C116.965,307.062 106.085,319.2 101.002,329.502C98.71,334.148 97.024,339.07 95,343.84C94.457,345.12 93,346.11 93,347.5C93,353.904 107.867,350.683 109,350.556C128.35,348.394 148.22,347.397 167.437,344.549C174.959,343.434 175.436,342.122 183.145,341.407C184.924,341.242 190.068,340.766 188.5,341.622C181.9,345.227 174.419,346.928 167.527,349.937C165.485,350.828 163.487,351.904 161.75,353.3C160.66,354.176 158.37,357.388 161.75,358.153C164.189,358.705 166.75,358.081 169.25,358.052C170.961,358.032 175.321,357.8 174.266,359.148C168.429,366.609 158.468,372.716 154.848,381.944C153.813,384.583 153.7,387.453 156.395,389.171C164.53,394.359 184.023,386.32 188.843,384.901C204.75,380.217 217.653,372.788 232.034,364.796C234.685,363.323 237.172,361.225 240.16,360.707C245.71,359.743 248.238,364.577 253.791,361.897C260.251,358.779 258.811,355.932 263.484,352.448C265.488,350.954 274.03,349.741 274.366,349.628C276.225,349.001 277.101,346.49 279,346C282.779,345.025 282.788,347.287 286.477,346.044C287.244,345.786 297.132,341.023 299.348,339.215C300.293,338.444 304.129,331.629 305.699,332.052C306.468,332.26 304.722,334.681 305.479,334.433C307.061,333.917 310.843,330.151 311.437,329.104C312.131,327.883 307.08,332.273 307.674,331C308.916,328.342 313.597,324.845 315.948,323.615C317.189,322.966 312.263,326.459 313.532,327.051C316.007,328.206 318.114,322.643 318.512,322.189C320.191,320.276 320.715,321.653 323,320.278C325.687,318.66 327.893,314.037 330.781,312.988C333.878,311.863 342.636,311.318 345.25,307.25C349.534,300.583 339.31,291.252 336.25,285.994C334.798,283.499 333.687,280.792 332,278.45C331.626,277.931 329.794,278.112 330.25,277.663C337.818,270.205 345.743,266.601 353.5,260.236C354.388,259.508 356.722,256.468 358.571,256.484C359.454,256.491 357.179,257.884 357.228,258.765C357.385,261.572 362.353,256.405 364.705,254.866C366.416,253.746 368.208,252.675 369.624,251.199C370.633,250.146 369.52,247.598 370.849,247C371.374,246.764 371.872,248.561 372.195,248.084C375.415,243.322 369.917,237.733 366.866,235.583C365.732,234.784 367.513,234.115 366.71,233.286C366.04,232.595 364.549,233.525 363.854,232.86C363.518,232.538 360.405,224.039 358.75,226.032C356.018,229.321 358.31,234.652 357.1,238.754C355.438,244.394 347.321,252.246 340.65,249.81C337.749,248.751 336.806,239.046 337.949,236.814C340.092,232.63 346.874,233.591 347.589,229.586C348.203,226.142 348.555,222.648 348.753,219.155L349.282,209.81L351.809,214.405C352.882,216.356 355.326,220.968 356.551,219.109C357.317,217.947 355.457,216.574 355.085,216C354.195,214.628 353.415,213.186 352.632,211.75C350.689,208.186 348.744,204.621 346.909,201C345.553,198.323 347.286,197.881 345.021,194.291C343.528,191.925 340.15,190.255 338.5,187.638C334.697,181.604 336.589,180.9 333.098,174.793C327.685,165.326 314.232,151.169 307.467,144.72C301.361,138.898 295.073,133.225 288.325,128.16C283.675,124.67 277.815,123.062 273.075,119.696C265.719,114.472 259.256,108.166 252,102.777C236.521,91.28 219.488,81.061 203.348,71.053C197.357,67.338 189.873,61.304 184.532,57.242C182.07,55.37 174.011,48.375 169.537,46.782C168.602,46.449 169.187,48.936 169.75,49.754C170.756,51.218 171.677,52.792 173,53.977C179.583,59.871 188.435,66.036 195.5,71.618C209.174,82.422 224.171,91.366 237.954,102.017C243.98,106.674 260.388,123.031 261,123.658C270.575,133.476 274.943,135.263 276.714,145.854C277.159,148.517 279.571,151.17 278.669,153.714C278.227,154.96 276.195,154.81 275.267,155.75C272.877,158.171 272.34,160.967 268.202,160.967C264.106,160.967 258.113,152.095 257.5,151.423C248.545,141.605 238.981,133.209 228.363,125.496C226.177,123.908 223.965,122.336 221.961,120.524C220.384,119.098 220.686,117.376 218.722,116.172C217.636,115.507 216.158,115.724 215.063,115.075C199.85,106.054 185.188,93.289 170.767,83.221C165.86,79.795 161.312,75.768 156,73.012C140.045,64.734 121.99,55.004 105,47.56C86.501,39.454 68.948,29.47 51.401,19.478C45.951,16.375 40.633,12.638 35,9.864C33.225,8.99 27.773,5.417 28.765,9.21M311.927,154.036C328.424,170.4 338.035,186.828 336.588,210.53C336.087,218.729 332.723,224.292 330,231.632C326.754,240.38 324.87,249.622 321.662,258.328C321.366,259.132 320.667,260.276 319.824,260.122C318.933,259.96 318.788,258.608 318.498,257.75C317.528,254.882 316.859,251.921 316.063,249C314.359,242.745 312.76,236.461 311,230.221C310.13,227.135 306.145,221.386 307.647,218.219C308.764,215.864 310.99,214.149 312.097,211.788C315.046,205.494 317.575,195.035 318.187,188.206C319.565,172.821 312.763,159.658 303.592,148L297.691,140.5L302.522,145C305.179,147.475 309.411,151.541 311.927,154.036M256.5,155.956C266.138,167.547 274.659,179.916 283.834,191.91C289.977,199.94 300.22,208.559 299.973,219.462C299.524,239.209 291.681,261.372 283.109,279C281.269,282.785 272.645,297.442 271.439,304.889L270.693,309.5L269.875,306C268.755,301.21 269.629,296.165 269.446,291.25C269.394,289.848 270.45,287.62 269.168,287.049C267.973,286.517 266.957,288.715 266.526,289.95C263.075,299.831 266.975,306.952 268.347,316.391C269.893,327.024 262.408,337.124 256.973,345.369C255.422,347.721 254.644,350.815 252.342,352.439C251.498,353.034 245.459,354.196 245,354.888C243.385,357.323 251.849,357.886 252.472,358.25C254.406,359.381 247.851,358.965 245.753,358.18L240.319,356.148L230.41,362.065C218.681,369.069 206.375,374.788 193.5,379.318C182.868,383.059 176.136,386.071 165.492,386.33L158.5,386.5L158.17,383.606C157.998,382.098 158.86,380.548 159.797,379.354C164.466,373.401 178.242,365.041 179.569,356.75C180.018,353.942 174.275,354.378 171.44,354.161C170.383,354.08 167.475,354.32 168.3,353.654C176.208,347.263 177.012,349.333 185.836,346.427C193.243,343.988 203.435,338.361 209.163,333C212.602,329.781 215.156,324.459 217.502,320.5C221.836,313.186 226.238,305.913 230.636,298.638C241.752,280.253 250.116,262.39 258.875,243C265.887,227.478 275.918,211.898 272.832,193.885C269.627,175.188 256.007,161.517 246.559,146L243.818,141.5L247.159,145.119C248.997,147.109 253.2,151.986 256.5,155.956M286.735,154.047C288.523,156.152 291.847,159.592 292.789,162.583C294.87,169.189 293.699,179.246 293.134,185.836C292.925,188.27 291.429,190.51 291.376,192.953C291.375,193.01 293.01,196.633 292.785,196.549C291.33,196.005 290.292,194.669 289.237,193.528C283.861,187.713 278.742,181.025 274.279,174.5C272.534,171.948 270.877,169.337 269.186,166.75C268.869,166.265 268.093,165.839 268.253,165.282C268.575,164.163 270.604,164.953 271.634,164.413C273.833,163.258 276.369,161.898 278.458,160.685C279.993,159.794 281.99,155.369 281.749,153.501C281.293,149.959 280.237,146.318 282.594,149.047C284.008,150.685 285.335,152.397 286.735,154.047M228.723,155.42C242.635,167.125 246.545,194.219 241.053,210.295C238.682,217.235 232.865,224.158 228.873,230.191C224.409,236.938 220.254,243.987 215.624,250.609C211.937,255.883 211.394,255.091 206.531,260C192.696,273.967 179.118,288.187 165.284,302.155C148.644,318.956 125.33,337.12 101.831,344.067C94.944,346.103 102.316,334.514 102.5,334.107C104.011,330.754 105.368,327.329 107,324.033C109.451,319.084 114.473,314.741 116.853,309.7C119.471,304.155 117.15,303.674 119.396,297.901C120.511,295.036 122.895,296.559 123,293.433C123.126,289.688 118.112,290.251 116.358,290.572C106.705,292.342 96.777,299.872 88.611,304.561C88.009,304.907 82,309.496 82,305.188C82,300.384 86.537,295.784 87.205,291.195C88.58,281.744 87.839,272.061 89.278,262.62C90.029,257.691 92.128,253.062 93.432,248.25C94.318,244.98 93.624,240.759 96.095,238.442C97.506,237.12 99.923,239.534 101.406,240.774C108.496,246.706 116.476,261 127.572,261L131.699,261L132.371,249.933C133.571,230.191 140.459,202.38 158.505,191.462C164.063,188.1 172.634,184.627 179.351,184.35C184.19,184.15 191.139,190.106 192.556,182.553L193.223,179L199.205,179C205.669,179 207.271,175.018 212.718,171.992C214.97,170.741 217.788,170.592 219.878,169.087C220.906,168.348 220.335,166.254 221.433,165.622C223.321,164.535 225.428,168.074 227.546,165.089C229.6,162.196 219.864,147.966 228.723,155.42M200.388,188.98C199.935,189.163 192.063,195.929 191.981,196C186.464,200.807 180.652,205.3 175.469,210.466C159.724,226.159 143.725,244.613 131.249,263C125.711,271.162 118.881,278.471 114,287.041C113.56,287.814 114.508,288.939 115.279,289.384C121.226,292.811 131.05,276.264 132.298,274.968C150.145,256.422 168.859,239.406 185.204,219.5C190.295,213.3 196.743,207.057 200.917,200C202.614,197.131 208.739,185.606 200.388,188.98M358,223C358,223.511 358.07,224.285 358.528,224.645C358.907,224.944 359.397,224.746 359.736,224.483C360.178,224.139 360.5,223.569 360.5,223C360.5,222.431 360.178,221.861 359.736,221.517C359.397,221.254 358.907,221.056 358.528,221.355C358.07,221.715 358,222.489 358,223M340.667,236.667C340.405,236.928 340.221,237.916 340.196,238.136C340.094,239.018 339.736,241.06 340.226,242.151C340.391,242.518 340.566,242.892 340.826,243.198C341.782,244.321 343.546,244.476 344.664,243.503C346.331,242.052 346.136,239.3 344.985,237.617C344.028,236.217 342.074,235.26 340.667,236.667M318.88,266.251C319.541,267.617 320.322,269.023 320.41,270.538C320.578,273.403 318.908,276.094 318.524,278.938C318.16,281.632 318.128,285.172 318.539,287.876C318.792,289.535 320.438,291.48 319.439,292.828C318.174,294.536 315.678,294.855 314.016,296.178C311.55,298.142 307.925,302.206 305.365,303.927C304.81,304.3 300.108,307.001 298.955,304.739C295.352,297.671 295.505,289.23 300.176,282.828C301.623,280.844 304.731,280.639 306.549,278.962C308.105,277.526 309.46,275.878 310.753,274.202C312.091,272.468 313.372,270.675 314.427,268.756C315.132,267.473 315.609,266.066 316,264.656C316.176,264.02 315.969,263.323 316.113,262.679C316.158,262.479 316.415,262.075 316.541,262.237C317.489,263.461 318.205,264.857 318.88,266.251M340.75,270.893C340.445,271.202 340.154,271.527 339.883,271.867C339.677,272.127 339.486,272.402 339.321,272.691C339.279,272.766 338.671,273.984 339.311,273.924C339.483,273.907 339.658,273.879 339.816,273.809C340.844,273.354 341.706,272.427 342.471,271.638C342.745,271.355 343.011,271.065 343.266,270.765C343.412,270.592 343.941,269.982 344,269.635C344.106,269.011 343.427,269.012 343.049,269.159C342.186,269.493 341.359,270.276 340.75,270.893M300.667,292.667C300.432,292.902 300.237,293.581 300.196,293.842C300.074,294.623 299.759,295.808 300.255,296.602C300.615,297.178 301.288,297.526 301.909,297.727C303.336,298.188 304.974,298.076 306.194,297.164C307.055,296.52 306.857,295.303 306.357,294.521C305.558,293.271 303.955,292.293 302.479,292.151C301.828,292.088 301.143,292.191 300.667,292.667"/>
    </g>
</svg>
