<svg width="100%" height="100%" viewBox="0 0 400 400" version="1.1" xmlns="http://www.w3.org/2000/svg" style="fill-rule:evenodd;clip-rule:evenodd;stroke-linejoin:round;stroke-miterlimit:2;">
    <g>
        <path d="M186.75,2.203C174.71,5.397 38.636,84.735 29.559,93.686C27.366,95.849 23.023,101.803 22.505,104.915C17.459,135.252 19.487,283.907 22.59,298.819C23.096,301.249 163.246,389.099 177.282,395.876C188.271,401.182 204.473,400.657 215.72,398.987C219.869,398.371 223.705,394.121 227,392.131C249.379,378.612 272.067,365.609 294.752,352.611C316.916,339.911 340.834,328.485 362.15,314.094C366.667,311.044 371.777,307.584 374.25,302.417C381.028,288.256 392.997,131.479 374.221,101.21C366.755,89.174 353.549,83.529 341.821,76.75C327.534,68.493 313.301,60.143 299,51.911C280.361,41.182 261.597,30.671 243,19.869C225.592,9.758 208.027,-3.45 186.75,2.203M220.942,99.856C222.289,101.91 226.539,101.414 228.25,101.967C233.914,103.796 239.716,105.412 245,108.152C266.899,119.506 287.298,142.963 289.666,168.322L290.289,175C290.289,175 244.149,178.47 237.51,174.135C236.564,173.517 236.693,172.026 236.218,171C234.819,167.979 233.611,164.85 231.89,162C225.086,150.733 214.473,146.154 201.502,146.375C196.39,146.462 191.228,146.616 186.214,147.615C179.08,149.037 171.19,160.41 168.34,165.451C162.04,176.593 161.404,189.65 161.245,202.081C161.129,211.199 160.749,218.353 163.933,227C169.243,241.42 171.614,243.476 182.538,253.998C187.889,259.152 194.32,257.525 202.02,257.511C218.935,257.482 226.525,255.085 234.161,239.688C235.515,236.959 237,234.047 237,231L237,227L249,227C261.766,227 276.109,223.872 287.159,230.265C290.799,232.371 287.931,233.248 287,237.057C285.91,241.518 285.656,246.161 284.488,250.602C279.831,268.295 268.811,282.253 253.063,291.748C212.06,316.472 149.22,305.911 120.573,266.704C110.067,252.325 105.282,236.176 103.313,218.653C99.331,183.221 107.761,141.537 138.494,119.75C152.096,110.107 167.2,102.696 183.77,99.919C189.459,98.965 195.276,99.066 201.015,98.491C205.035,98.088 217.258,94.231 220.942,99.856"/>
    </g>
</svg>
