<svg width="100%" height="100%" viewBox="0 0 400 400" version="1.1" xmlns="http://www.w3.org/2000/svg" style="fill-rule:evenodd;clip-rule:evenodd;stroke-linejoin:round;stroke-miterlimit:2;">
<g>
<path d="M18.333,181.31C10.567,184.405 6,191.211 6,199.688L6,204.497L8.904,207.173C12.086,210.107 13.845,211.191 16.797,212.037L18.742,212.595L16.621,210.179C5.502,197.515 18.573,179.8 33.021,187.954L36.821,190.098L38.679,187.883C40.844,185.3 40.664,184.936 35.945,182.368C31.275,179.826 23.262,179.345 18.333,181.31M352.667,180.584C330.521,187.865 334.802,219.608 357.924,219.571C379.455,219.536 386.263,191.726 367.148,181.894C364.1,180.326 355.749,179.571 352.667,180.584M54.833,199.513C45.352,221.426 45.863,219.46 49.717,219.203L52.767,219L56.374,210.333L75.776,209.966L79.451,219.333L82.726,219.333C84.527,219.333 86,219.204 86,219.046C86,218.889 82.296,210.264 77.769,199.88L69.539,181L63,180.638L54.833,199.513M94.333,219L102.232,219.188C119.922,219.61 128.784,213.197 128.784,199.974C128.784,186.982 121.341,181.182 104.156,180.783L93.979,180.547M138.667,219.333L144.62,219.333L145,205.667L153.794,205.277L163.626,219.333L167.17,219.333C171.346,219.333 171.478,219.857 165.058,211C161.338,205.868 160.862,204.904 161.768,204.333C162.351,203.967 163.766,203.064 164.914,202.328C170.725,198.599 171.48,189.144 166.353,184.308C163.161,181.299 160.108,180.667 148.756,180.667L138.667,180.667M179.333,219.333L208,219.333L208,213.333L186,213.333L186,202.667L205.41,202.667L205,197L185.945,196.63L186.333,186.333L208,185.967L208,180.667L179.333,180.667M217.333,219.406L223.667,219L224.333,191.667C224.333,191.667 236.44,209.136 236.696,208.851C236.951,208.566 248.32,192 248.68,192C249.085,192 249.333,219.333 249.333,219.333L255.333,219.333L255.333,180.667L248.601,180.667C248.601,180.667 236.725,198.541 236.388,198.441C236.052,198.341 224.509,180.667 224.509,180.667L217.333,180.667M266.667,219.333L272.617,219.333L273,207L279.686,206.593C290.976,205.906 296.19,201.792 296.19,193.573C296.19,184.074 290.743,180.677 275.5,180.67L266.667,180.667M304.667,219.333L331.333,219.333L331.333,213.368L311,213L310.643,180.667L304.667,180.667M390,185.081C390,188.126 390.018,188.151 391.5,187.172C393.817,185.642 393.964,182 391.709,182C390.121,182 390,182.219 390,185.081M115.235,187.95C128.713,194.83 123.054,212.675 107.218,213.229L100.667,213.458C100.667,213.458 100.874,186.684 101.5,186.399C103.195,185.628 112.813,186.714 115.235,187.95M157.944,186.651C161.553,187.686 163.333,189.78 163.333,192.991C163.333,198.209 160.257,200 151.29,200L145.333,200L145.333,186C145.333,186 156.697,186.293 157.944,186.651M286.29,187.435C292.481,190.256 290.446,199.324 283.314,200.7C278.993,201.534 274.389,201.456 273.467,200.533C272.357,199.423 272.384,187.894 273.5,186.732C274.517,185.671 283.504,186.166 286.29,187.435M363.521,186.898C372.577,190.689 374.522,203.906 366.998,210.529C354.483,221.545 337.622,204.274 347.768,190.831C351.057,186.473 358.229,184.682 363.521,186.898M390.859,189.563L388.718,191L388.667,219.333L394.667,219.333L394.667,203.667C394.667,186.585 394.763,186.942 390.859,189.563M72.667,203.396C72.667,203.728 59.333,203.838 59.333,203.64C59.333,202.388 65.667,188.667 66.168,188.834M12.143,212.67C15.97,218.898 30.761,219.882 37.636,214.366C40.529,212.045 37.31,210.888 34.02,213.066C29.266,216.212 20.19,215.847 13.143,212.228C11.337,211.301 11.309,211.313 12.143,212.67"/>
</g>
</svg>
