<svg id="svg" version="1.1" width="400" height="400" xmlns="http://www.w3.org/2000/svg" xmlns:xlink="http://www.w3.org/1999/xlink" style="display: block;"><g id="svgg"><path id="path0" d="M300.000 123.567 C 278.890 129.076,259.989 144.876,250.183 165.212 L 245.500 174.924 234.750 174.962 L 224.000 175.000 224.000 181.000 L 224.000 187.000 231.500 187.000 L 239.000 187.000 239.000 206.000 L 239.000 225.000 242.250 225.038 C 245.363 225.074,245.696 225.484,250.173 234.788 C 280.019 296.826,371.378 291.888,395.075 226.956 C 410.842 183.755,385.495 135.030,341.298 123.577 C 333.340 121.515,307.887 121.509,300.000 123.567 M337.714 125.538 C 395.526 138.713,416.805 211.131,375.164 252.989 C 337.509 290.839,277.369 281.637,252.809 234.267 L 248.781 226.500 251.391 226.184 L 254.000 225.867 254.000 207.434 L 254.000 189.000 261.500 189.000 L 269.000 189.000 269.000 181.535 L 269.000 174.070 258.896 173.785 L 248.792 173.500 252.814 165.733 C 269.242 134.005,303.564 117.756,337.714 125.538 M315.903 173.078 C 289.331 177.195,285.030 214.221,309.844 225.246 C 320.216 229.855,335.290 226.472,341.972 218.035 C 358.279 197.446,341.820 169.063,315.903 173.078 M17.718 175.376 C 3.322 180.745,-3.328 194.875,1.656 209.504 C 7.242 225.899,30.353 231.479,43.352 219.571 C 48.016 215.300,47.960 214.878,42.188 210.731 L 37.377 207.274 34.173 210.137 C 24.955 218.373,11.183 208.345,14.860 196.074 C 17.424 187.515,26.030 184.495,33.469 189.544 C 37.593 192.342,37.625 192.334,44.495 186.668 L 47.489 184.198 45.496 181.995 C 39.438 175.302,26.307 172.173,17.718 175.376 M91.071 177.250 C 90.587 178.488,86.286 188.725,81.512 200.000 C 76.738 211.275,72.431 221.512,71.941 222.750 C 71.065 224.960,71.180 225.000,78.389 225.000 L 85.728 225.000 87.447 220.500 L 89.165 216.000 98.864 216.000 L 108.562 216.000 110.031 220.250 L 111.500 224.500 119.230 224.792 L 126.960 225.083 123.633 217.292 C 121.803 213.006,117.023 201.738,113.010 192.250 L 105.714 175.000 98.832 175.000 C 92.623 175.000,91.865 175.220,91.071 177.250 M154.000 200.000 L 154.000 225.000 160.500 225.000 L 167.000 225.000 167.000 217.500 L 167.000 210.000 170.250 210.013 C 173.189 210.025,173.966 210.743,178.371 217.513 L 183.242 225.000 191.180 225.000 C 197.256 225.000,198.945 224.707,198.382 223.750 C 197.977 223.063,195.437 219.201,192.738 215.169 C 190.038 211.136,187.980 207.728,188.165 207.595 C 188.349 207.461,189.911 206.379,191.636 205.189 C 199.683 199.639,199.928 186.325,192.105 179.742 C 187.494 175.862,183.121 175.012,167.750 175.006 L 154.000 175.000 154.000 200.000 M182.000 189.000 C 187.082 194.082,182.902 199.000,173.500 199.000 L 167.000 199.000 167.000 193.000 L 167.000 187.000 173.500 187.000 C 178.667 187.000,180.410 187.410,182.000 189.000 M101.459 198.000 C 102.427 200.475,103.443 203.063,103.717 203.750 C 104.075 204.652,102.791 205.000,99.107 205.000 C 93.204 205.000,93.328 205.311,96.232 197.822 C 98.691 191.482,98.913 191.490,101.459 198.000 " stroke="none" fill="#000000" fill-rule="evenodd"></path></g></svg>