<svg version="1.1" width="400" height="400" xmlns="http://www.w3.org/2000/svg"><g><path d="M227.000 14.640 C 214.135 18.780,198.467 29.914,190.553 40.542 C 188.932 42.719,187.357 44.725,187.053 45.000 C 184.544 47.269,179.256 56.782,175.658 65.500 C 163.964 93.834,165.721 125.243,179.909 141.462 C 182.743 144.701,180.107 143.165,176.500 139.475 C 169.997 132.822,161.011 117.938,161.003 113.809 C 161.001 112.879,160.609 111.877,160.132 111.581 C 158.838 110.782,157.843 101.687,157.919 91.349 L 157.986 82.198 152.743 84.130 C 149.859 85.193,146.600 86.479,145.500 86.987 C 144.400 87.495,140.575 89.093,137.000 90.539 C 128.935 93.801,117.403 100.012,109.500 105.350 C 101.688 110.627,102.179 110.223,92.308 119.500 C 87.626 123.900,83.492 127.725,83.122 128.000 C 72.385 135.969,66.017 158.038,65.976 187.419 C 65.947 208.359,65.399 210.975,59.825 216.764 L 55.500 221.255 60.400 220.626 C 63.094 220.280,66.558 219.369,68.096 218.602 C 70.829 217.239,70.974 217.313,74.423 221.853 C 76.365 224.409,78.302 226.957,78.727 227.516 C 80.186 229.433,89.500 240.456,91.000 242.041 C 91.825 242.913,96.775 248.292,102.000 253.994 C 107.225 259.695,112.850 265.791,114.500 267.539 C 120.592 273.992,127.684 281.766,134.500 289.463 C 138.350 293.810,142.400 298.374,143.500 299.604 C 154.971 312.429,159.466 320.871,157.770 326.399 C 156.290 331.221,155.666 330.999,173.644 332.034 C 182.365 332.536,190.925 333.197,192.666 333.503 L 195.832 334.059 195.666 321.280 L 195.500 308.500 199.904 299.692 C 208.502 282.497,244.570 246.000,252.966 246.000 C 258.368 246.000,264.557 250.896,266.070 256.367 C 270.890 273.790,244.360 307.895,234.480 296.977 C 232.533 294.827,234.679 284.000,237.051 284.000 C 237.573 284.000,238.000 283.520,238.000 282.933 C 238.000 281.513,242.884 274.965,249.749 267.183 C 253.820 262.569,253.875 261.000,249.969 261.000 C 248.197 261.000,246.698 260.377,246.362 259.500 C 245.385 256.956,243.868 257.774,237.553 264.250 C 210.811 291.675,213.383 311.000,243.777 311.000 C 264.993 311.000,289.158 295.078,306.000 270.002 C 306.825 268.774,308.214 266.808,309.087 265.634 C 312.255 261.376,317.969 250.902,321.008 243.782 C 322.718 239.777,324.520 235.600,325.012 234.500 C 332.919 216.813,335.575 168.175,328.993 161.593 C 328.447 161.047,328.000 159.881,328.000 159.002 C 328.000 157.332,322.782 146.662,319.442 141.500 C 317.228 138.081,314.715 134.950,310.736 130.657 C 307.974 127.677,307.974 127.673,309.986 125.798 C 313.230 122.776,312.630 120.959,308.757 122.070 C 304.662 123.244,304.040 123.207,306.250 121.920 C 309.465 120.048,308.288 118.420,304.014 118.827 C 300.816 119.132,299.087 118.578,295.264 116.021 C 290.740 112.995,290.164 112.866,283.822 113.471 L 277.145 114.107 275.635 110.803 C 274.804 108.987,272.925 104.575,271.459 101.000 C 269.993 97.425,267.939 92.612,266.896 90.305 C 265.853 87.998,265.000 85.900,265.000 85.644 C 265.000 85.388,263.425 81.815,261.500 77.704 C 259.575 73.594,258.000 69.929,258.000 69.560 C 258.000 69.192,257.053 66.777,255.894 64.195 C 252.561 56.763,251.361 53.996,248.000 46.000 C 244.155 36.853,243.357 34.962,238.408 23.265 C 234.300 13.557,233.126 12.670,227.000 14.640 M162.500 346.837 C 156.392 347.690,154.659 348.686,155.516 350.851 C 155.985 352.035,160.000 377.815,160.000 379.638 C 160.000 381.490,179.861 382.565,186.329 381.064 C 191.186 379.936,190.808 380.474,192.426 372.394 C 193.185 368.602,194.569 361.960,195.500 357.633 C 197.801 346.951,197.908 347.033,180.928 346.533 C 173.543 346.316,165.250 346.453,162.500 346.837 " stroke="none" fill-rule="evenodd"></path></g></svg>