<svg width="100%" height="100%" viewBox="0 0 400 400" version="1.1" xmlns="http://www.w3.org/2000/svg" style="fill-rule:evenodd;clip-rule:evenodd;stroke-linejoin:round;stroke-miterlimit:2;">
<g>
<path d="M300,123.567C278.89,129.076 259.989,144.876 250.183,165.212L245.5,174.924L224,175L224,187L239,187L239,225L242.25,225.038C245.363,225.074 245.696,225.484 250.173,234.788C280.019,296.826 371.378,291.888 395.075,226.956C410.842,183.755 385.495,135.03 341.298,123.577C333.34,121.515 307.887,121.509 300,123.567M337.714,125.538C395.526,138.713 416.805,211.131 375.164,252.989C337.509,290.839 277.369,281.637 252.809,234.267L248.781,226.5L254,225.867L254,189L269,189L269,174.07L248.792,173.5L252.814,165.733C269.242,134.005 303.564,117.756 337.714,125.538M315.903,173.078C289.331,177.195 285.03,214.221 309.844,225.246C320.216,229.855 335.29,226.472 341.972,218.035C358.279,197.446 341.82,169.063 315.903,173.078M17.718,175.376C3.322,180.745 -3.328,194.875 1.656,209.504C7.242,225.899 30.353,231.479 43.352,219.571C48.016,215.3 47.96,214.878 42.188,210.731L37.377,207.274L34.173,210.137C24.955,218.373 11.183,208.345 14.86,196.074C17.424,187.515 26.03,184.495 33.469,189.544C37.593,192.342 37.625,192.334 44.495,186.668L47.489,184.198L45.496,181.995C39.438,175.302 26.307,172.173 17.718,175.376M91.071,177.25C90.587,178.488 72.431,221.512 71.941,222.75C71.065,224.96 85.728,225 85.728,225L89.165,216L108.562,216L111.5,224.5L126.96,225.083L123.633,217.292C121.803,213.006 105.714,175 105.714,175C105.714,175 91.865,175.22 91.071,177.25M154,225L167,225L167,210L170.25,210.013C173.189,210.025 183.242,225 183.242,225C183.242,225 198.945,224.707 198.382,223.75C197.977,223.063 187.98,207.728 188.165,207.595C188.349,207.461 189.911,206.379 191.636,205.189C199.683,199.639 199.928,186.325 192.105,179.742C187.494,175.862 183.121,175.012 167.75,175.006L154,175M182,189C187.082,194.082 182.902,199 173.5,199L167,199L167,187L173.5,187C178.667,187 180.41,187.41 182,189M101.459,198C102.427,200.475 103.443,203.063 103.717,203.75C104.075,204.652 102.791,205 99.107,205C93.204,205 93.328,205.311 96.232,197.822C98.691,191.482 98.913,191.49 101.459,198"/>
</g>
</svg>
