<svg id="svg" xmlns="http://www.w3.org/2000/svg" xmlns:xlink="http://www.w3.org/1999/xlink" width="400" height="400" viewBox="0, 0, 400,400"><g id="svgg"><path id="path0" d="M176.712 0.856 C 157.243 2.692,137.996 6.112,123.085 10.385 C 113.779 13.052,104.623 15.449,102.740 15.712 C 98.391 16.319,83.562 23.144,83.562 24.538 C 83.562 25.115,81.866 26.359,79.795 27.302 C 66.203 33.488,45.599 50.575,35.936 63.674 L 29.890 71.869 30.795 90.387 C 34.034 156.716,46.906 208.915,72.756 260.558 L 80.784 276.595 76.009 277.491 C 72.494 278.150,71.233 279.092,71.233 281.057 C 71.233 284.786,75.290 328.482,76.139 333.906 L 76.837 338.360 96.559 337.464 C 120.554 336.374,116.801 334.512,150.077 364.015 C 169.757 381.463,195.552 400.000,200.153 400.000 C 204.696 400.000,231.258 380.319,252.740 361.035 C 259.521 354.948,268.897 347.030,273.576 343.439 L 282.084 336.909 302.437 337.560 L 322.790 338.211 325.105 313.284 C 328.329 278.558,328.327 278.504,323.288 277.397 C 318.271 276.295,318.219 277.183,323.904 266.828 C 349.795 219.668,366.322 155.898,368.028 96.575 L 368.777 70.548 364.444 64.114 C 355.645 51.046,327.125 28.959,310.959 22.693 C 307.568 21.379,304.178 19.825,303.425 19.239 C 301.642 17.854,278.359 10.297,267.808 7.680 C 246.747 2.456,198.268 -1.176,176.712 0.856 M204.110 10.274 C 204.110 14.688,203.783 15.068,200.000 15.068 C 196.217 15.068,195.890 14.688,195.890 10.274 C 195.890 5.860,196.217 5.479,200.000 5.479 C 203.783 5.479,204.110 5.860,204.110 10.274 M106.883 24.013 C 108.935 26.485,106.699 32.891,103.796 32.856 C 99.122 32.799,96.350 27.133,99.471 24.012 C 102.134 21.349,104.672 21.350,106.883 24.013 M245.024 26.862 C 253.035 28.047,264.469 29.494,270.432 30.078 C 277.520 30.773,281.799 31.856,282.787 33.207 C 283.618 34.344,290.759 38.515,298.656 42.477 C 316.839 51.601,327.377 58.731,337.329 68.646 L 345.205 76.493 345.205 88.694 C 345.205 145.118,327.836 211.487,299.450 263.530 L 292.817 275.691 283.737 274.821 C 264.897 273.017,172.443 272.340,140.526 273.773 C 110.166 275.136,107.634 275.072,105.985 272.896 C 93.263 256.110,71.998 203.571,62.932 166.527 C 60.731 157.535,58.310 149.794,57.551 149.325 C 55.293 147.930,52.050 121.423,51.265 97.945 C 50.479 74.436,50.672 73.582,57.534 70.194 C 59.418 69.264,65.274 65.096,70.548 60.932 C 109.138 30.466,178.209 16.978,245.024 26.862 M299.724 26.832 C 300.222 30.322,297.045 33.234,294.009 32.069 C 291.771 31.210,290.938 25.957,292.752 24.143 C 294.685 22.210,299.319 23.997,299.724 26.832 M45.151 70.482 C 48.790 74.867,43.445 81.602,38.699 78.613 C 35.655 76.697,34.911 73.048,37.041 70.482 C 39.157 67.933,43.035 67.933,45.151 70.482 M362.276 75.670 C 361.122 78.679,357.585 79.829,355.306 77.938 C 352.688 75.765,352.957 71.636,355.822 70.004 C 358.856 68.277,363.537 72.386,362.276 75.670 M52.740 154.795 C 54.144 159.220,52.247 163.014,48.630 163.014 C 45.013 163.014,43.116 159.220,44.521 154.795 C 45.067 153.072,46.593 152.055,48.630 152.055 C 50.667 152.055,52.193 153.072,52.740 154.795 M353.989 155.193 C 355.804 158.070,351.981 162.434,348.736 161.189 C 346.173 160.205,345.894 156.024,348.236 153.682 C 350.251 151.666,352.065 152.143,353.989 155.193 M78.669 239.139 C 82.030 242.500,79.802 249.315,75.342 249.315 C 73.509 249.315,69.863 245.214,69.863 243.151 C 69.863 241.088,73.509 236.986,75.342 236.986 C 75.988 236.986,77.485 237.955,78.669 239.139 M327.931 240.510 C 328.837 242.872,326.647 247.945,324.721 247.945 C 320.151 247.945,317.111 242.249,320.091 239.269 C 321.830 237.530,327.108 238.366,327.931 240.510 M323.288 285.616 C 323.288 288.356,322.603 289.041,319.863 289.041 C 317.123 289.041,316.438 288.356,316.438 285.616 C 316.438 282.877,317.123 282.192,319.863 282.192 C 322.603 282.192,323.288 282.877,323.288 285.616 M84.932 286.301 C 84.932 288.311,84.018 289.041,81.507 289.041 C 78.995 289.041,78.082 288.311,78.082 286.301 C 78.082 284.292,78.995 283.562,81.507 283.562 C 84.018 283.562,84.932 284.292,84.932 286.301 M87.671 328.767 C 87.671 330.776,86.758 331.507,84.247 331.507 C 81.735 331.507,80.822 330.776,80.822 328.767 C 80.822 326.758,81.735 326.027,84.247 326.027 C 86.758 326.027,87.671 326.758,87.671 328.767 M319.178 328.767 C 319.178 330.776,318.265 331.507,315.753 331.507 C 313.242 331.507,312.329 330.776,312.329 328.767 C 312.329 326.758,313.242 326.027,315.753 326.027 C 318.265 326.027,319.178 326.758,319.178 328.767 M246.575 334.154 C 246.575 337.517,204.078 372.574,200.000 372.574 C 196.083 372.574,153.425 337.230,153.425 333.985 C 153.425 333.375,174.384 332.877,200.000 332.877 C 227.876 332.877,246.575 333.389,246.575 334.154 M141.096 335.714 C 141.096 337.655,137.593 341.096,135.616 341.096 C 133.640 341.096,130.137 337.655,130.137 335.714 C 130.137 334.907,132.603 334.247,135.616 334.247 C 138.630 334.247,141.096 334.907,141.096 335.714 M268.493 336.275 C 268.493 338.501,262.661 340.516,260.352 339.089 C 257.027 337.034,258.953 334.247,263.699 334.247 C 267.020 334.247,268.493 334.870,268.493 336.275 " stroke="none" fill="#000000" fill-rule="evenodd"></path></g></svg>