<svg id="svg" version="1.1" width="400" height="400" xmlns="http://www.w3.org/2000/svg" xmlns:xlink="http://www.w3.org/1999/xlink" style="display: block;"><g id="svgg"><path id="path0" d="M127.166 173.534 C 109.026 177.471,104.069 184.845,96.954 218.478 C 92.130 241.282,91.754 239.962,103.079 239.985 L 110.658 240.000 112.526 230.500 L 114.394 221.000 135.089 221.000 L 155.783 221.000 153.917 229.250 C 151.302 240.815,150.846 240.000,159.929 240.000 C 170.281 240.000,169.896 240.558,174.490 218.881 C 180.330 191.325,179.608 183.077,170.847 177.280 C 163.132 172.174,141.842 170.348,127.166 173.534 M333.166 173.474 C 317.320 177.064,310.425 185.475,305.671 207.013 C 297.783 242.754,297.505 240.000,308.996 240.000 L 316.747 240.000 318.684 230.750 L 320.620 221.500 341.334 221.230 L 362.048 220.959 361.542 223.230 C 358.693 235.989,358.000 239.186,358.000 239.562 C 358.000 240.643,373.745 239.900,375.213 238.750 C 378.992 235.789,385.999 194.139,383.956 186.781 C 380.511 174.378,356.704 168.140,333.166 173.474 M41.500 174.411 C 23.356 178.914,12.218 192.508,11.232 211.351 C 9.987 235.147,18.340 239.939,61.136 239.980 L 81.773 240.000 82.466 235.379 C 83.418 229.032,83.958 229.197,61.000 228.816 C 33.312 228.357,30.178 226.439,31.227 210.593 C 32.636 189.300,40.371 184.014,70.139 184.006 C 91.179 183.999,92.344 183.638,93.561 176.750 L 94.223 173.000 70.361 173.085 C 55.000 173.140,44.719 173.612,41.500 174.411 M190.232 173.836 C 189.010 174.611,187.000 180.151,187.000 182.743 C 187.000 183.692,190.431 184.000,201.019 184.000 L 215.038 184.000 214.511 186.250 C 214.221 187.488,211.714 199.300,208.939 212.500 C 206.164 225.700,203.663 237.287,203.380 238.250 C 202.617 240.845,217.743 240.838,220.949 238.242 C 222.750 236.784,233.912 191.001,233.991 184.750 C 233.996 184.338,241.820 184.000,251.378 184.000 C 270.702 184.000,270.485 184.073,271.584 177.200 L 272.256 173.000 231.878 173.015 C 209.670 173.024,190.929 173.393,190.232 173.836 M276.681 175.846 C 276.359 177.453,275.801 179.944,275.440 181.383 L 274.783 184.000 283.873 184.000 C 293.889 184.000,293.745 184.104,294.286 176.500 L 294.500 173.500 285.882 173.213 L 277.265 172.926 276.681 175.846 M155.609 186.284 C 161.100 189.148,162.494 202.085,157.908 207.611 C 156.174 209.700,116.532 209.662,117.334 207.571 C 117.636 206.785,118.194 204.423,118.575 202.321 C 121.315 187.199,141.011 178.670,155.609 186.284 M362.085 186.618 C 366.512 189.203,367.744 193.421,366.210 200.737 C 364.403 209.350,365.387 209.000,342.966 209.000 L 323.177 209.000 324.619 202.818 C 327.053 192.386,330.526 188.246,339.224 185.410 C 345.300 183.428,357.750 184.086,362.085 186.618 M274.000 188.412 C 274.000 188.822,264.491 233.439,263.477 237.788 C 262.947 240.060,263.007 240.074,272.156 239.788 L 281.370 239.500 286.117 217.000 C 288.727 204.625,291.139 193.037,291.477 191.250 L 292.091 188.000 283.045 188.000 C 278.070 188.000,274.000 188.185,274.000 188.412 " stroke="none" fill="#000000" fill-rule="evenodd"></path></g></svg>