<?xml version="1.0" encoding="UTF-8" standalone="no"?>
<!DOCTYPE svg PUBLIC "-//W3C//DTD SVG 1.1//EN" "http://www.w3.org/Graphics/SVG/1.1/DTD/svg11.dtd">
<svg width="100%" height="100%" viewBox="0 0 400 400" version="1.1" xmlns="http://www.w3.org/2000/svg" xmlns:xlink="http://www.w3.org/1999/xlink" xml:space="preserve" xmlns:serif="http://www.serif.com/" style="fill-rule:evenodd;clip-rule:evenodd;stroke-linejoin:round;stroke-miterlimit:2;">
    <g id="svgg">
        <path id="path0" d="M153,57.495C153,58.782 191,59 191,59L191,170.067L194.467,173.533C198.187,177.254 203,178.307 203,175.401C203,174.522 204.35,172.541 206,171L209,168.198L209,59L245,59C245,59 203,14.473 203,12.506M68.527,131C69.367,131 95.982,104.963 95.982,104.963L135.982,144.982L175.982,185L185,185L185,171.981L145.981,132.981L106.961,93.98L131,65L67,65M117,93.995C117,96.37 181.139,161 183.496,161C184.814,161 185,65 185,65L143.5,65.16M216.504,159C218.469,159 283,94.469 283,92.504C283,91.677 254.055,65 254.055,65L215,65M291.039,93.98L215,169.981L215,185C215,185 225.679,183 226.51,183C227.34,183 304.02,106.961 304.02,106.961L333,131L333,65L267,65M67,141.982L67,185L163,185L163,182.496C163,178.992 99.13,114.96 95.754,115.08M237,185L333,185L333,143.983C333,143.983 303.451,115.037 302.758,115.082M13,198C13,201.174 61,243 61,243L61,205C61,205 172.588,204.959 174,203C174.793,201.9 176.242,201 177.221,201C179.891,201 179.478,196.387 176.545,193.455L174.091,191L61,191L61,153M339,191L225.909,191C225.909,191 221,196.85 221,198C221,199.15 225.909,205 225.909,205L339,205L339,243C339,243 387,201.139 387,197.506C387,195.932 341.352,153 340.517,153M67,254.018C67,254.018 94.441,281 95.002,281C95.564,281 160.657,217 161.489,217C163.4,217 163.449,214.306 161.571,212.429C160.374,211.231 67,211 67,211M95.98,289.039L67,265L67,331L133,331L108.961,302.02L185,226.019L185,211L173.5,211.16M215,224.019L293.037,302.018C293.037,302.018 267,328.633 267,329.473C267,330.812 333,331 333,331C333,331 332.812,265 331.473,265C330.633,265 304.018,291.037 304.018,291.037L224.018,211L215,211M304.005,281C305.256,281 333,254.018 333,254.018L333,211L237,211M194.25,222.54L191,225.943L191,337L155,337C155,337 196.826,385 200,385C202.371,385 247,340.851 247,338.505C247,337.218 209,337 209,337L209,225.933L205.533,222.467C201.194,218.128 198.447,218.146 194.25,222.54M215,331L256.018,331C256.018,331 283,303.256 283,302.005C283,299.63 218.861,235 216.504,235M117,301.997C117,304.371 145,329.45 145,330C145,330.633 185,331 185,331L185,237"/>
    </g>
</svg>
