<svg id="svg" version="1.1" width="400" height="400" xmlns="http://www.w3.org/2000/svg" xmlns:xlink="http://www.w3.org/1999/xlink" style="display: block;"><g id="svgg"><path id="path0" d="M191.026 0.984 C 190.337 1.410,190.162 1.964,190.637 2.215 C 191.112 2.466,190.961 2.544,190.301 2.387 C 188.358 1.925,182.696 5.098,180.000 8.160 C 178.499 9.864,175.902 11.333,173.500 11.837 C 171.300 12.298,169.612 13.199,169.750 13.838 C 169.887 14.477,169.325 15.000,168.500 15.000 C 167.675 15.000,167.000 15.436,167.000 15.969 C 167.000 16.501,166.247 16.648,165.326 16.295 C 164.039 15.801,163.807 16.055,164.321 17.395 C 164.851 18.776,164.525 19.072,162.745 18.819 C 161.151 18.592,160.161 19.225,159.331 21.000 C 158.466 22.851,158.141 23.046,158.081 21.750 C 157.986 19.708,157.574 19.622,154.857 21.077 C 153.673 21.710,153.078 22.761,153.411 23.629 C 153.731 24.464,153.545 24.837,152.981 24.489 C 152.434 24.150,151.733 24.533,151.424 25.338 C 151.114 26.144,149.361 27.085,147.527 27.429 C 145.693 27.773,143.961 28.660,143.676 29.401 C 143.392 30.142,141.520 31.055,139.516 31.431 C 137.345 31.838,136.035 32.597,136.276 33.307 C 136.504 33.978,135.110 34.972,133.090 35.578 C 131.116 36.170,129.613 37.183,129.750 37.828 C 129.888 38.472,129.325 39.056,128.500 39.125 C 127.675 39.194,126.514 39.306,125.919 39.375 C 125.325 39.444,124.263 40.288,123.559 41.250 C 122.158 43.166,119.442 43.712,120.595 41.845 C 121.038 41.130,120.870 40.962,120.155 41.405 C 119.520 41.797,119.000 42.716,119.000 43.448 C 119.000 44.179,118.213 44.715,117.250 44.639 C 116.247 44.559,115.624 45.086,115.791 45.873 C 115.971 46.721,115.521 47.030,114.614 46.682 C 113.029 46.074,108.021 48.021,108.008 49.250 C 107.995 50.480,109.219 50.110,111.313 48.250 C 113.231 46.547,113.246 46.560,111.901 48.750 C 111.039 50.154,109.539 51.000,107.914 51.000 C 106.482 51.000,104.495 51.900,103.500 53.000 C 102.505 54.100,101.085 55.000,100.345 55.000 C 99.605 55.000,99.000 55.408,99.000 55.906 C 99.000 56.405,98.146 56.589,97.102 56.316 C 94.940 55.751,91.000 57.552,91.000 59.107 C 91.000 61.074,87.934 63.216,85.885 62.680 C 84.374 62.285,83.990 62.531,84.410 63.625 C 84.722 64.438,84.566 64.850,84.064 64.540 C 83.562 64.229,82.945 64.769,82.692 65.738 C 82.257 67.403,82.226 67.403,82.116 65.750 C 81.974 63.605,80.979 63.538,78.441 65.502 C 76.529 66.982,76.530 66.995,78.500 66.356 C 79.600 65.999,78.769 66.914,76.653 68.389 C 74.537 69.865,71.162 71.433,69.153 71.874 C 67.144 72.315,65.612 73.199,65.750 73.838 C 65.887 74.477,65.325 75.000,64.500 75.000 C 63.675 75.000,63.000 75.436,63.000 75.969 C 63.000 76.501,62.247 76.648,61.326 76.295 C 60.026 75.796,59.806 76.053,60.341 77.446 C 60.903 78.911,60.606 79.158,58.711 78.796 C 56.410 78.356,53.481 80.350,54.353 81.763 C 54.603 82.168,53.657 82.569,52.251 82.654 C 50.407 82.765,50.085 82.560,51.097 81.919 C 52.005 81.344,52.079 81.025,51.307 81.015 C 50.650 81.007,49.316 82.350,48.341 84.000 C 47.366 85.650,45.766 87.000,44.784 87.000 C 43.803 87.000,43.000 87.436,43.000 87.969 C 43.000 88.501,42.247 88.648,41.326 88.295 C 40.044 87.803,39.808 88.056,40.315 89.378 C 40.686 90.344,40.568 90.851,40.048 90.530 C 39.538 90.214,38.554 90.562,37.863 91.302 C 37.172 92.042,35.496 92.435,34.139 92.176 C 32.165 91.798,31.799 92.033,32.305 93.352 C 32.747 94.504,32.399 95.000,31.149 95.000 C 30.165 95.000,28.380 96.128,27.180 97.508 L 25.000 100.015 25.000 200.079 C 25.000 280.600,25.252 300.373,26.292 301.321 C 28.293 303.147,31.240 304.926,34.189 306.091 C 35.892 306.764,36.678 307.675,36.332 308.577 C 36.032 309.359,36.284 310.000,36.893 310.000 C 37.502 310.000,38.036 309.212,38.079 308.250 C 38.131 307.106,38.494 307.416,39.127 309.144 C 39.834 311.073,40.614 311.652,42.012 311.287 C 43.950 310.780,47.000 312.986,47.000 314.893 C 47.000 316.448,50.940 318.249,53.102 317.684 C 54.146 317.411,55.000 317.595,55.000 318.094 C 55.000 318.592,55.605 319.000,56.345 319.000 C 57.085 319.000,58.505 319.900,59.500 321.000 C 60.495 322.100,62.397 323.000,63.726 323.000 C 65.055 323.000,66.786 323.643,67.571 324.429 C 69.767 326.624,69.265 327.550,66.994 325.494 C 65.890 324.496,64.690 323.976,64.327 324.339 C 63.561 325.105,63.286 324.887,68.746 327.833 C 71.081 329.093,73.443 329.844,73.996 329.503 C 74.548 329.161,75.000 329.359,75.000 329.941 C 75.000 330.523,75.900 331.000,77.000 331.000 C 78.100 331.000,79.000 331.450,79.000 332.000 C 79.000 332.550,79.675 333.000,80.500 333.000 C 81.325 333.000,81.887 333.563,81.750 334.250 C 81.599 335.004,82.391 335.406,83.746 335.263 C 85.022 335.128,85.886 335.526,85.746 336.185 C 85.611 336.823,87.116 337.830,89.090 338.422 C 91.110 339.028,92.504 340.022,92.276 340.693 C 91.917 341.750,98.209 343.749,100.214 343.214 C 100.607 343.110,100.682 343.666,100.380 344.451 C 99.995 345.455,100.845 346.068,103.248 346.519 C 105.567 346.954,107.216 348.096,108.388 350.080 C 109.337 351.686,110.650 352.993,111.307 352.985 C 112.079 352.975,112.005 352.656,111.097 352.081 C 110.085 351.440,110.407 351.235,112.251 351.346 C 113.657 351.431,114.598 351.841,114.340 352.258 C 113.336 353.884,120.242 358.587,122.021 357.487 C 122.559 357.154,123.000 357.359,123.000 357.941 C 123.000 358.523,123.675 359.000,124.500 359.000 C 125.325 359.000,125.887 359.523,125.750 360.162 C 125.612 360.801,127.277 361.713,129.450 362.188 C 131.622 362.663,134.127 363.710,135.015 364.514 C 135.904 365.318,138.028 366.256,139.735 366.597 C 141.857 367.021,143.020 367.944,143.415 369.516 C 143.846 371.233,144.506 371.681,146.022 371.284 C 147.330 370.942,148.706 371.508,149.893 372.877 C 150.906 374.044,152.455 375.000,153.336 375.000 C 154.412 375.000,154.730 375.540,154.305 376.648 C 153.790 377.989,154.169 378.201,156.336 377.787 C 157.801 377.506,159.000 377.665,159.000 378.139 C 159.000 378.612,159.702 379.000,160.559 379.000 C 161.416 379.000,161.839 379.451,161.499 380.002 C 160.782 381.161,165.050 383.000,168.458 383.000 C 169.755 383.000,171.081 383.775,171.452 384.750 C 171.986 386.153,171.869 386.252,170.859 385.250 C 169.390 383.791,168.000 383.617,168.000 384.892 C 168.000 385.382,169.238 386.092,170.750 386.470 C 172.262 386.847,174.259 387.840,175.187 388.676 C 176.115 389.512,177.301 389.932,177.823 389.609 C 178.345 389.287,179.007 389.917,179.293 391.011 C 179.579 392.105,180.417 392.993,181.156 392.985 C 182.177 392.973,182.139 392.736,181.000 392.000 C 180.175 391.467,179.993 391.024,180.595 391.015 C 181.197 391.007,182.488 391.882,183.464 392.960 C 184.440 394.038,185.522 394.885,185.869 394.842 C 188.152 394.557,190.022 395.155,189.499 396.002 C 188.531 397.568,193.889 399.248,200.750 399.528 C 205.480 399.722,207.000 399.453,207.000 398.423 C 207.000 397.562,207.614 397.298,208.674 397.705 C 209.974 398.204,210.194 397.947,209.659 396.554 C 209.090 395.071,209.393 394.842,211.415 395.229 C 213.343 395.597,213.984 395.199,214.449 393.348 C 214.900 391.551,215.679 391.032,217.769 391.136 C 220.127 391.254,220.192 391.332,218.250 391.706 C 216.169 392.107,214.979 394.000,216.809 394.000 C 219.167 394.000,221.491 391.031,220.000 389.925 C 218.709 388.967,218.734 388.886,220.177 389.346 C 221.099 389.640,222.392 389.233,223.049 388.441 C 223.707 387.648,224.752 387.007,225.372 387.015 C 225.993 387.024,225.825 387.467,225.000 388.000 C 223.861 388.736,223.823 388.973,224.844 388.985 C 225.583 388.993,226.414 388.131,226.692 387.069 C 227.023 385.805,227.741 385.347,228.772 385.743 C 229.951 386.195,230.181 385.913,229.685 384.622 C 229.314 383.656,229.432 383.149,229.952 383.470 C 230.462 383.786,231.446 383.438,232.137 382.698 C 232.828 381.958,234.489 381.562,235.828 381.818 C 237.592 382.155,238.132 381.901,237.790 380.892 C 237.481 379.978,238.553 379.130,240.910 378.422 C 242.884 377.830,244.388 376.817,244.250 376.172 C 244.113 375.528,244.675 375.000,245.500 375.000 C 246.325 375.000,247.000 374.498,247.000 373.883 C 247.000 373.231,247.899 373.002,249.162 373.332 C 251.788 374.019,255.000 372.459,255.000 370.496 C 255.000 369.567,255.588 369.289,256.674 369.705 C 257.974 370.204,258.194 369.947,257.659 368.553 C 257.107 367.115,257.370 366.863,258.985 367.286 C 261.078 367.833,265.979 366.060,265.992 364.750 C 266.005 363.520,264.781 363.890,262.687 365.750 C 260.769 367.453,260.754 367.440,262.099 365.250 C 262.961 363.846,264.461 363.000,266.086 363.000 C 267.518 363.000,269.505 362.100,270.500 361.000 C 271.495 359.900,272.915 359.000,273.655 359.000 C 274.395 359.000,275.000 358.592,275.000 358.094 C 275.000 357.595,275.854 357.411,276.898 357.684 C 279.301 358.312,283.000 356.380,283.000 354.496 C 283.000 353.567,283.588 353.289,284.674 353.705 C 285.974 354.204,286.194 353.947,285.659 352.554 C 285.088 351.066,285.393 350.842,287.451 351.235 C 289.425 351.613,290.125 351.179,290.886 349.105 C 291.520 347.378,291.869 347.090,291.921 348.250 C 291.964 349.212,292.498 350.000,293.107 350.000 C 293.716 350.000,293.997 349.435,293.732 348.745 C 293.195 347.344,295.446 344.780,296.387 345.721 C 296.718 346.051,297.801 345.585,298.794 344.686 C 299.787 343.787,302.378 342.663,304.550 342.188 C 306.723 341.713,308.388 340.801,308.250 340.162 C 308.113 339.523,308.675 339.000,309.500 339.000 C 310.325 339.000,311.000 338.564,311.000 338.031 C 311.000 337.499,311.753 337.352,312.674 337.705 C 313.974 338.204,314.194 337.947,313.659 336.554 C 313.086 335.062,313.392 334.842,315.486 335.242 C 317.077 335.546,318.000 335.268,318.000 334.484 C 318.000 332.785,320.192 331.111,322.970 330.687 C 324.242 330.493,325.831 329.584,326.502 328.667 C 327.912 326.739,330.429 326.387,329.485 328.250 C 329.137 328.938,329.497 328.712,330.286 327.750 C 331.075 326.788,332.282 326.000,332.967 326.000 C 333.660 326.000,333.960 325.339,333.643 324.512 C 333.329 323.694,333.393 323.110,333.786 323.214 C 335.791 323.749,342.083 321.750,341.724 320.693 C 341.496 320.022,342.890 319.028,344.910 318.422 C 346.884 317.830,348.387 316.817,348.250 316.172 C 348.112 315.528,348.675 315.000,349.500 315.000 C 350.325 315.000,351.000 314.550,351.000 314.000 C 351.000 313.450,351.900 313.000,353.000 313.000 C 354.100 313.000,355.000 312.550,355.000 312.000 C 355.000 311.450,355.900 311.000,357.000 311.000 C 358.100 311.000,359.000 310.600,359.000 310.111 C 359.000 309.622,359.788 309.285,360.750 309.361 C 361.753 309.441,362.376 308.914,362.209 308.127 C 362.029 307.279,362.479 306.970,363.386 307.318 C 364.971 307.926,369.979 305.979,369.992 304.750 C 370.005 303.483,368.313 303.917,366.980 305.524 C 366.284 306.362,365.501 306.834,365.238 306.572 C 364.326 305.660,367.872 303.000,370.000 303.000 C 375.235 303.000,375.000 307.846,375.000 200.026 L 375.000 99.909 372.545 97.455 C 371.195 96.105,369.620 95.000,369.045 95.000 C 368.470 95.000,368.112 94.477,368.250 93.838 C 368.387 93.199,366.723 92.287,364.550 91.812 C 362.378 91.337,359.819 90.241,358.863 89.376 C 357.908 88.512,356.648 88.100,356.063 88.461 C 355.478 88.822,355.000 88.641,355.000 88.059 C 355.000 87.477,354.149 87.000,353.108 87.000 C 351.954 87.000,350.986 86.079,350.623 84.636 C 350.148 82.742,349.527 82.368,347.501 82.755 C 345.392 83.158,345.086 82.940,345.659 81.446 C 346.194 80.053,345.974 79.796,344.674 80.295 C 343.753 80.648,343.000 80.501,343.000 79.969 C 343.000 79.436,342.114 79.000,341.031 79.000 C 339.614 79.000,339.240 78.539,339.695 77.352 C 340.210 76.011,339.831 75.799,337.664 76.213 C 336.199 76.494,335.000 76.335,335.000 75.861 C 335.000 75.388,334.395 75.000,333.655 75.000 C 332.915 75.000,331.495 74.100,330.500 73.000 C 329.505 71.900,327.458 71.000,325.952 71.000 C 324.265 71.000,322.958 70.328,322.548 69.250 C 322.014 67.847,322.131 67.748,323.141 68.750 C 324.652 70.250,326.000 70.373,326.000 69.012 C 326.000 68.468,324.218 67.739,322.040 67.390 C 319.863 67.042,318.175 66.249,318.290 65.629 C 318.406 65.008,317.712 64.563,316.750 64.639 C 315.788 64.715,315.000 64.179,315.000 63.448 C 315.000 62.716,314.480 61.797,313.845 61.405 C 313.130 60.962,312.962 61.130,313.405 61.845 C 313.827 62.530,313.483 63.000,312.559 63.000 C 311.702 63.000,311.000 62.550,311.000 62.000 C 311.000 61.450,310.325 61.000,309.500 61.000 C 308.675 61.000,308.113 60.438,308.250 59.750 C 308.401 58.996,307.609 58.594,306.254 58.737 C 304.978 58.872,304.114 58.474,304.254 57.815 C 304.389 57.177,302.884 56.170,300.910 55.578 C 298.553 54.870,297.481 54.022,297.790 53.108 C 298.132 52.099,297.592 51.845,295.828 52.182 C 294.489 52.438,292.828 52.042,292.137 51.302 C 291.446 50.562,290.462 50.214,289.952 50.530 C 289.441 50.846,289.280 50.433,289.595 49.613 C 290.012 48.526,289.214 47.943,286.653 47.463 C 284.720 47.100,282.899 46.180,282.607 45.419 C 282.314 44.654,281.387 44.298,280.538 44.624 C 279.692 44.948,279.000 44.716,279.000 44.107 C 279.000 43.498,278.109 43.000,277.019 43.000 C 275.774 43.000,274.819 42.127,274.449 40.652 C 273.984 38.801,273.343 38.403,271.415 38.771 C 269.393 39.158,269.090 38.929,269.659 37.446 C 270.194 36.053,269.974 35.796,268.674 36.295 C 267.753 36.648,267.000 36.501,267.000 35.969 C 267.000 35.436,266.325 35.000,265.500 35.000 C 264.675 35.000,264.112 34.477,264.250 33.838 C 264.387 33.199,262.723 32.287,260.550 31.812 C 258.378 31.337,255.903 30.323,255.050 29.559 C 254.198 28.795,251.925 27.723,250.000 27.175 C 248.075 26.628,247.287 26.140,248.250 26.090 C 249.213 26.041,250.000 25.602,250.000 25.117 C 250.000 24.032,246.154 22.725,243.682 22.969 C 242.682 23.068,241.054 22.215,240.065 21.074 C 239.075 19.933,237.756 19.000,237.133 19.000 C 236.510 19.000,236.112 18.438,236.250 17.750 C 236.403 16.985,235.432 16.515,233.750 16.539 C 232.238 16.561,231.000 16.224,231.000 15.789 C 231.000 15.355,230.395 15.000,229.655 15.000 C 228.915 15.000,227.495 14.100,226.500 13.000 C 225.505 11.900,223.458 11.000,221.952 11.000 C 220.422 11.000,218.956 10.328,218.629 9.477 C 218.153 8.234,218.409 8.149,220.023 9.012 C 221.122 9.601,222.000 9.663,222.000 9.152 C 222.000 8.114,218.607 7.034,215.281 7.014 C 213.620 7.003,213.224 6.579,213.705 5.326 C 214.192 4.058,213.942 3.808,212.674 4.295 C 211.597 4.708,211.000 4.435,211.000 3.528 C 211.000 2.752,210.480 1.797,209.845 1.405 C 209.130 0.962,208.962 1.130,209.405 1.845 C 209.819 2.516,209.509 3.000,208.666 3.000 C 207.867 3.000,206.973 2.372,206.679 1.605 C 206.089 0.068,193.327 -0.438,191.026 0.984 M201.000 26.000 C 201.000 26.550,201.801 27.000,202.779 27.000 C 203.758 27.000,205.207 27.900,206.000 29.000 C 206.793 30.100,208.242 31.000,209.221 31.000 C 210.199 31.000,211.000 31.450,211.000 32.000 C 211.000 32.550,211.900 33.000,213.000 33.000 C 214.100 33.000,215.000 33.450,215.000 34.000 C 215.000 34.550,215.801 35.000,216.779 35.000 C 217.758 35.000,219.207 35.900,220.000 37.000 C 220.793 38.100,222.242 39.000,223.221 39.000 C 224.199 39.000,225.000 39.450,225.000 40.000 C 225.000 40.550,225.801 41.000,226.779 41.000 C 227.758 41.000,229.207 41.900,230.000 43.000 C 230.793 44.100,232.242 45.000,233.221 45.000 C 234.199 45.000,235.000 45.450,235.000 46.000 C 235.000 46.550,235.900 47.000,237.000 47.000 C 238.100 47.000,239.000 47.450,239.000 48.000 C 239.000 48.550,239.801 49.000,240.779 49.000 C 241.758 49.000,243.207 49.900,244.000 51.000 C 244.793 52.100,246.242 53.000,247.221 53.000 C 248.199 53.000,249.000 53.450,249.000 54.000 C 249.000 54.550,249.900 55.000,251.000 55.000 C 252.100 55.000,253.000 55.450,253.000 56.000 C 253.000 56.550,253.801 57.000,254.779 57.000 C 255.758 57.000,257.207 57.900,258.000 59.000 C 258.793 60.100,260.242 61.000,261.221 61.000 C 262.199 61.000,263.000 61.450,263.000 62.000 C 263.000 62.550,263.900 63.000,265.000 63.000 C 266.100 63.000,267.000 63.450,267.000 64.000 C 267.000 64.550,267.801 65.000,268.779 65.000 C 269.758 65.000,271.207 65.900,272.000 67.000 C 272.793 68.100,274.242 69.000,275.221 69.000 C 276.199 69.000,277.000 69.450,277.000 70.000 C 277.000 70.550,277.900 71.000,279.000 71.000 C 280.100 71.000,281.000 71.450,281.000 72.000 C 281.000 72.550,281.801 73.000,282.779 73.000 C 283.758 73.000,285.207 73.900,286.000 75.000 C 286.793 76.100,288.242 77.000,289.221 77.000 C 290.199 77.000,291.000 77.450,291.000 78.000 C 291.000 78.550,291.801 79.000,292.779 79.000 C 293.758 79.000,295.207 79.900,296.000 81.000 C 296.793 82.100,298.242 83.000,299.221 83.000 C 300.199 83.000,301.000 83.450,301.000 84.000 C 301.000 84.550,301.900 85.000,303.000 85.000 C 304.100 85.000,305.000 85.450,305.000 86.000 C 305.000 86.550,305.801 87.000,306.779 87.000 C 307.758 87.000,309.207 87.900,310.000 89.000 C 310.793 90.100,312.242 91.000,313.221 91.000 C 314.199 91.000,315.000 91.450,315.000 92.000 C 315.000 92.550,315.900 93.000,317.000 93.000 C 318.100 93.000,319.000 93.450,319.000 94.000 C 319.000 94.550,319.801 95.000,320.779 95.000 C 321.758 95.000,323.207 95.900,324.000 97.000 C 324.793 98.100,326.242 99.000,327.221 99.000 C 328.199 99.000,329.000 99.450,329.000 100.000 C 329.000 100.550,329.801 101.000,330.779 101.000 C 331.758 101.000,333.207 101.900,334.000 103.000 C 334.793 104.100,336.242 105.000,337.221 105.000 C 338.199 105.000,339.000 105.450,339.000 106.000 C 339.000 106.550,339.900 107.000,341.000 107.000 C 342.100 107.000,343.000 107.450,343.000 108.000 C 343.000 108.550,343.695 109.000,344.545 109.000 C 345.395 109.000,347.195 110.105,348.545 111.455 L 351.000 113.909 351.000 145.455 C 351.000 162.805,350.760 177.000,350.467 177.000 C 349.478 177.000,343.000 170.076,343.000 169.019 C 343.000 167.503,326.272 151.000,324.735 151.000 C 324.024 151.000,322.793 150.100,322.000 149.000 C 320.996 147.607,319.411 147.000,316.779 147.000 C 314.701 147.000,313.000 146.550,313.000 146.000 C 313.000 145.400,309.000 145.000,303.000 145.000 C 297.000 145.000,293.000 145.400,293.000 146.000 C 293.000 146.550,291.650 147.000,290.000 147.000 C 288.350 147.000,287.000 147.450,287.000 148.000 C 287.000 148.550,286.317 149.000,285.481 149.000 C 283.634 149.000,271.000 161.441,271.000 163.261 C 271.000 163.974,270.100 165.207,269.000 166.000 C 267.900 166.793,267.000 168.242,267.000 169.221 C 267.000 170.199,266.550 171.000,266.000 171.000 C 265.450 171.000,265.000 171.900,265.000 173.000 C 265.000 174.100,264.550 175.000,264.000 175.000 C 263.450 175.000,263.000 175.900,263.000 177.000 C 263.000 178.100,262.550 179.000,262.000 179.000 C 261.450 179.000,261.000 179.900,261.000 181.000 C 261.000 182.100,260.550 183.000,260.000 183.000 C 259.450 183.000,259.000 183.900,259.000 185.000 C 259.000 186.100,258.550 187.000,258.000 187.000 C 257.450 187.000,257.000 187.900,257.000 189.000 C 257.000 190.100,256.550 191.000,256.000 191.000 C 255.450 191.000,255.000 191.900,255.000 193.000 C 255.000 194.100,254.550 195.000,254.000 195.000 C 253.450 195.000,253.000 195.900,253.000 197.000 C 253.000 198.100,252.550 199.000,252.000 199.000 C 251.450 199.000,251.000 199.690,251.000 200.533 C 251.000 202.524,244.524 209.000,242.533 209.000 C 241.667 209.000,241.000 208.130,241.000 207.000 C 241.000 205.900,240.550 205.000,240.000 205.000 C 239.450 205.000,239.000 204.100,239.000 203.000 C 239.000 201.900,238.550 201.000,238.000 201.000 C 237.450 201.000,237.000 200.100,237.000 199.000 C 237.000 197.900,236.550 197.000,236.000 197.000 C 235.450 197.000,235.000 195.749,235.000 194.221 C 235.000 192.589,234.174 190.847,233.000 190.000 C 231.826 189.153,231.000 187.411,231.000 185.779 C 231.000 184.251,230.550 183.000,230.000 183.000 C 229.450 183.000,229.000 182.100,229.000 181.000 C 229.000 179.900,228.550 179.000,228.000 179.000 C 227.450 179.000,227.000 178.199,227.000 177.221 C 227.000 176.242,226.100 174.793,225.000 174.000 C 223.900 173.207,223.000 171.857,223.000 171.000 C 223.000 170.143,222.100 168.793,221.000 168.000 C 219.900 167.207,219.000 165.857,219.000 165.000 C 219.000 164.143,218.100 162.793,217.000 162.000 C 215.900 161.207,215.000 159.962,215.000 159.234 C 215.000 157.517,210.483 153.000,208.766 153.000 C 208.038 153.000,206.793 152.100,206.000 151.000 C 205.207 149.900,203.758 149.000,202.779 149.000 C 201.801 149.000,201.000 148.550,201.000 148.000 C 201.000 147.417,197.667 147.000,193.000 147.000 C 188.333 147.000,185.000 147.417,185.000 148.000 C 185.000 148.550,184.100 149.000,183.000 149.000 C 181.900 149.000,181.000 149.450,181.000 150.000 C 181.000 150.550,180.315 151.000,179.478 151.000 C 177.625 151.000,167.000 161.437,167.000 163.258 C 167.000 163.973,166.100 165.207,165.000 166.000 C 163.900 166.793,163.000 168.242,163.000 169.221 C 163.000 170.199,162.550 171.000,162.000 171.000 C 161.450 171.000,161.000 171.900,161.000 173.000 C 161.000 174.100,160.550 175.000,160.000 175.000 C 159.450 175.000,159.000 175.900,159.000 177.000 C 159.000 178.100,158.550 179.000,158.000 179.000 C 157.450 179.000,157.000 179.900,157.000 181.000 C 157.000 182.100,156.550 183.000,156.000 183.000 C 155.450 183.000,155.000 183.900,155.000 185.000 C 155.000 186.333,154.333 187.000,153.000 187.000 C 151.900 187.000,151.000 186.550,151.000 186.000 C 151.000 185.450,150.293 185.000,149.429 185.000 C 147.408 185.000,145.000 182.592,145.000 180.571 C 145.000 179.707,144.550 179.000,144.000 179.000 C 143.450 179.000,143.000 178.100,143.000 177.000 C 143.000 175.900,142.550 175.000,142.000 175.000 C 141.450 175.000,141.000 174.100,141.000 173.000 C 141.000 171.900,140.550 171.000,140.000 171.000 C 139.450 171.000,139.000 170.199,139.000 169.221 C 139.000 168.242,138.100 166.793,137.000 166.000 C 135.900 165.207,135.000 163.857,135.000 163.000 C 135.000 162.143,134.100 160.793,133.000 160.000 C 131.900 159.207,131.000 157.974,131.000 157.261 C 131.000 155.570,118.430 143.000,116.739 143.000 C 116.026 143.000,114.793 142.100,114.000 141.000 C 112.996 139.607,111.411 139.000,108.779 139.000 C 106.701 139.000,105.000 138.550,105.000 138.000 C 105.000 137.429,102.000 137.000,98.000 137.000 C 94.000 137.000,91.000 137.429,91.000 138.000 C 91.000 138.550,89.200 139.000,87.000 139.000 C 84.800 139.000,83.000 139.450,83.000 140.000 C 83.000 140.550,82.100 141.000,81.000 141.000 C 79.900 141.000,79.000 141.450,79.000 142.000 C 79.000 142.550,78.313 143.000,77.474 143.000 C 75.613 143.000,67.000 151.432,67.000 153.253 C 67.000 153.971,66.100 155.207,65.000 156.000 C 63.900 156.793,63.000 158.242,63.000 159.221 C 63.000 160.199,62.550 161.000,62.000 161.000 C 61.450 161.000,61.000 161.900,61.000 163.000 C 61.000 164.100,60.550 165.000,60.000 165.000 C 59.450 165.000,59.000 165.900,59.000 167.000 C 59.000 168.100,58.550 169.000,58.000 169.000 C 57.450 169.000,57.000 169.900,57.000 171.000 C 57.000 172.100,56.550 173.000,56.000 173.000 C 55.450 173.000,55.000 174.350,55.000 176.000 C 55.000 177.650,54.550 179.000,54.000 179.000 C 53.450 179.000,53.000 179.900,53.000 181.000 C 53.000 182.100,52.550 183.000,52.000 183.000 C 51.450 183.000,51.000 184.350,51.000 186.000 C 51.000 187.650,50.550 189.000,50.000 189.000 C 49.350 189.000,49.000 175.333,49.000 150.000 C 49.000 111.667,49.034 111.000,51.000 111.000 C 52.100 111.000,53.000 110.550,53.000 110.000 C 53.000 109.450,53.801 109.000,54.779 109.000 C 55.758 109.000,57.207 108.100,58.000 107.000 C 58.793 105.900,60.242 105.000,61.221 105.000 C 62.199 105.000,63.000 104.550,63.000 104.000 C 63.000 103.450,63.900 103.000,65.000 103.000 C 66.100 103.000,67.000 102.550,67.000 102.000 C 67.000 101.450,67.801 101.000,68.779 101.000 C 69.758 101.000,71.207 100.100,72.000 99.000 C 72.793 97.900,74.242 97.000,75.221 97.000 C 76.199 97.000,77.000 96.550,77.000 96.000 C 77.000 95.450,77.900 95.000,79.000 95.000 C 80.100 95.000,81.000 94.550,81.000 94.000 C 81.000 93.450,81.801 93.000,82.779 93.000 C 83.758 93.000,85.207 92.100,86.000 91.000 C 86.793 89.900,88.242 89.000,89.221 89.000 C 90.199 89.000,91.000 88.550,91.000 88.000 C 91.000 87.450,91.900 87.000,93.000 87.000 C 94.100 87.000,95.000 86.550,95.000 86.000 C 95.000 85.450,95.801 85.000,96.779 85.000 C 97.758 85.000,99.207 84.100,100.000 83.000 C 100.793 81.900,102.242 81.000,103.221 81.000 C 104.199 81.000,105.000 80.550,105.000 80.000 C 105.000 79.450,105.801 79.000,106.779 79.000 C 107.758 79.000,109.207 78.100,110.000 77.000 C 110.793 75.900,112.242 75.000,113.221 75.000 C 114.199 75.000,115.000 74.550,115.000 74.000 C 115.000 73.450,115.900 73.000,117.000 73.000 C 118.100 73.000,119.000 72.550,119.000 72.000 C 119.000 71.450,119.801 71.000,120.779 71.000 C 121.758 71.000,123.207 70.100,124.000 69.000 C 124.793 67.900,126.242 67.000,127.221 67.000 C 128.199 67.000,129.000 66.550,129.000 66.000 C 129.000 65.450,129.900 65.000,131.000 65.000 C 132.100 65.000,133.000 64.550,133.000 64.000 C 133.000 63.450,133.801 63.000,134.779 63.000 C 135.758 63.000,137.207 62.100,138.000 61.000 C 138.793 59.900,140.242 59.000,141.221 59.000 C 142.199 59.000,143.000 58.550,143.000 58.000 C 143.000 57.450,143.801 57.000,144.779 57.000 C 145.758 57.000,147.207 56.100,148.000 55.000 C 148.793 53.900,150.242 53.000,151.221 53.000 C 152.199 53.000,153.000 52.550,153.000 52.000 C 153.000 51.450,153.900 51.000,155.000 51.000 C 156.100 51.000,157.000 50.550,157.000 50.000 C 157.000 49.450,157.801 49.000,158.779 49.000 C 159.758 49.000,161.207 48.100,162.000 47.000 C 162.793 45.900,164.242 45.000,165.221 45.000 C 166.199 45.000,167.000 44.550,167.000 44.000 C 167.000 43.450,167.900 43.000,169.000 43.000 C 170.100 43.000,171.000 42.550,171.000 42.000 C 171.000 41.450,171.801 41.000,172.779 41.000 C 173.758 41.000,175.207 40.100,176.000 39.000 C 176.793 37.900,178.242 37.000,179.221 37.000 C 180.199 37.000,181.000 36.550,181.000 36.000 C 181.000 35.450,181.900 35.000,183.000 35.000 C 184.100 35.000,185.000 34.550,185.000 34.000 C 185.000 33.450,185.801 33.000,186.779 33.000 C 187.758 33.000,189.207 32.100,190.000 31.000 C 190.793 29.900,192.242 29.000,193.221 29.000 C 194.199 29.000,195.000 28.550,195.000 28.000 C 195.000 27.450,195.900 27.000,197.000 27.000 C 198.100 27.000,199.000 26.550,199.000 26.000 C 199.000 25.450,199.450 25.000,200.000 25.000 C 200.550 25.000,201.000 25.450,201.000 26.000 " stroke="none" fill="#000000" fill-rule="evenodd"></path></g></svg>