<?xml version="1.0" encoding="UTF-8" standalone="no"?>
<svg
   xmlns:dc="http://purl.org/dc/elements/1.1/"
   xmlns:cc="http://creativecommons.org/ns#"
   xmlns:rdf="http://www.w3.org/1999/02/22-rdf-syntax-ns#"
   xmlns:svg="http://www.w3.org/2000/svg"
   xmlns="http://www.w3.org/2000/svg"
   xmlns:sodipodi="http://sodipodi.sourceforge.net/DTD/sodipodi-0.dtd"
   xmlns:inkscape="http://www.inkscape.org/namespaces/inkscape"
   id="svg"
   version="1.1"
   width="500"
   height="500"
   sodipodi:docname="image2vector (3).svg"
   inkscape:version="0.92.2 (5c3e80d, 2017-08-06)">
  <metadata
     id="metadata9">
    <rdf:RDF>
      <cc:Work
         rdf:about="">
        <dc:format>image/svg+xml</dc:format>
        <dc:type
           rdf:resource="http://purl.org/dc/dcmitype/StillImage" />
        <dc:title></dc:title>
      </cc:Work>
    </rdf:RDF>
  </metadata>
  <defs
     id="defs7" />
  <sodipodi:namedview
     pagecolor="#ffffff"
     bordercolor="#666666"
     borderopacity="1"
     objecttolerance="10"
     gridtolerance="10"
     guidetolerance="10"
     inkscape:pageopacity="0"
     inkscape:pageshadow="2"
     inkscape:window-width="1920"
     inkscape:window-height="1027"
     id="namedview5"
     showgrid="false"
     inkscape:zoom="0.31093544"
     inkscape:cx="379.5"
     inkscape:cy="379.5"
     inkscape:window-x="1912"
     inkscape:window-y="-8"
     inkscape:window-maximized="1"
     inkscape:current-layer="svg" />
  <g
     id="svgg"
     transform="translate(57.889831,49.745763)">
    <path
       id="path0"
       d="m 176.823,0.821 c -30.606,3.636 -59.786,14.188 -84.86,30.689 -6.157,4.052 -12.194,8.374 -13.75,9.844 -0.317,0.299 -1.367,1.136 -2.335,1.861 -0.967,0.724 -2.297,1.792 -2.954,2.371 -6.902,6.089 -9.386,8.37 -12.322,11.316 -3.708,3.719 -8.124,8.544 -11.063,12.085 -1.015,1.222 -2.2,2.651 -2.635,3.175 -0.851,1.025 -2.213,2.795 -5.534,7.193 -13.071,17.312 -26.068,43.047 -23.056,45.654 1.459,1.264 27.249,11.073 28.591,10.874 1.395,-0.206 1.041,0.377 5.49,-9.051 4.248,-9.002 7.812,-15.27 12.779,-22.472 5.318,-7.712 5.861,-8.456 8.08,-11.071 0.435,-0.513 1.858,-2.19 3.162,-3.728 3.091,-3.643 13.262,-13.806 16.847,-16.834 1.545,-1.304 3.073,-2.608 3.396,-2.898 32.242,-28.943 88.054,-42.551 135.153,-32.953 20.771,4.233 50.002,17.152 61.911,27.364 1.925,1.65 3.072,0.82 7.199,-5.212 0.435,-0.635 1.147,-1.596 1.581,-2.135 1.233,-1.527 2.301,-2.954 3.162,-4.225 0.435,-0.641 2.691,-3.682 5.013,-6.758 5.453,-7.224 5.451,-7.241 -1.389,-12.082 C 290.042,20.207 263.313,8.839 238.325,3.649 221.971,0.252 192.875,-1.086 176.823,0.821 m 31.346,3.926 c 34.788,2.344 65.856,12.683 95.168,31.672 2.73,1.768 4.963,3.317 4.963,3.441 0,0.212 -12.307,16.776 -13.218,17.79 -0.235,0.262 -2.603,-0.944 -5.364,-2.732 C 232.151,17.626 153.3,20.2 99.025,61.143 77.92,77.063 60.748,97.61 49.654,120.215 c -2.527,5.149 -4.832,9.377 -5.122,9.395 -1.035,0.067 -20.53,-7.802 -20.717,-8.362 -0.333,-1 8.679,-18.47 13.516,-26.201 34.7,-55.458 93.464,-88.718 160.297,-90.728 1.595,-0.048 6.338,0.144 10.541,0.428 m -21.608,33.016 c -6.394,0.613 -12.577,1.459 -17.391,2.38 -3.044,0.582 -6.018,1.111 -6.61,1.176 -0.592,0.064 -1.378,0.304 -1.748,0.532 -0.369,0.229 -0.812,0.275 -0.983,0.104 -0.171,-0.172 -0.571,-0.108 -0.887,0.142 -0.657,0.519 -11.926,3.851 -12.638,3.738 -0.257,-0.042 -0.613,0.135 -0.791,0.391 -0.441,0.638 -6.381,2.843 -6.391,2.373 -0.004,-0.208 -0.182,-0.13 -0.395,0.172 -0.455,0.646 -8.636,4.251 -9.214,4.06 -0.218,-0.071 -0.396,0.121 -0.396,0.428 0,0.307 -0.237,0.412 -0.527,0.232 -0.29,-0.179 -0.527,-0.06 -0.527,0.264 0,0.324 -0.217,0.455 -0.482,0.291 -0.265,-0.164 -0.561,-0.103 -0.659,0.136 -0.207,0.509 -8.513,5.135 -8.813,4.908 -0.113,-0.085 -0.35,0.064 -0.527,0.331 -0.177,0.267 -2.813,2.154 -5.856,4.192 -9.966,6.673 -32.911,26.621 -31.846,27.686 0.088,0.088 -1.149,1.577 -2.75,3.31 -1.6,1.733 -2.847,3.151 -2.771,3.151 0.075,0 -0.758,1.245 -1.851,2.767 -1.093,1.522 -2.242,2.767 -2.553,2.767 -0.311,0 -0.424,0.141 -0.252,0.313 0.339,0.339 -4.094,7.079 -5.075,7.716 -0.328,0.213 -0.416,0.39 -0.195,0.395 0.455,0.009 -2.137,4.314 -2.897,4.81 -0.271,0.177 -0.467,0.533 -0.436,0.79 0.087,0.717 -1.729,3.894 -2.226,3.894 -0.241,0 -0.292,0.237 -0.112,0.527 0.179,0.29 0.06,0.527 -0.264,0.527 -0.324,0 -0.443,0.237 -0.263,0.527 0.179,0.29 0.06,0.527 -0.264,0.527 -0.324,0 -0.443,0.237 -0.263,0.527 0.179,0.29 0.06,0.527 -0.264,0.527 -0.324,0 -0.443,0.237 -0.263,0.527 0.179,0.29 0.06,0.527 -0.264,0.527 -0.324,0 -0.443,0.237 -0.264,0.527 0.18,0.29 0.061,0.527 -0.263,0.527 -0.324,0 -0.443,0.237 -0.264,0.527 0.18,0.29 0.075,0.527 -0.232,0.527 -0.307,0 -0.51,0.178 -0.451,0.395 0.179,0.66 -1.343,4.348 -1.794,4.348 -0.232,0 -0.382,0.178 -0.335,0.396 0.15,0.683 -0.71,3.293 -1.085,3.293 -1.69,0 -0.176,2.149 2.089,2.963 1.429,0.514 2.599,1.074 2.599,1.245 0,0.171 0.512,0.35 1.138,0.397 0.626,0.047 1.334,0.394 1.573,0.771 0.239,0.377 0.439,0.51 0.443,0.297 0.008,-0.4 5.863,1.614 6.332,2.179 0.145,0.174 0.738,0.4 1.318,0.501 0.579,0.102 1.228,0.458 1.441,0.791 0.213,0.333 0.391,0.432 0.395,0.218 0.008,-0.4 5.863,1.614 6.332,2.179 0.145,0.174 0.738,0.4 1.318,0.502 0.58,0.101 1.228,0.457 1.441,0.79 0.213,0.333 0.391,0.434 0.395,0.224 0.005,-0.21 0.62,-0.15 1.368,0.134 1.281,0.488 3.009,0.058 2.904,-0.722 -0.157,-1.152 0.031,-1.937 0.611,-2.562 0.363,-0.39 0.728,-1.059 0.811,-1.487 0.252,-1.285 5.523,-11.535 6.437,-12.515 0.466,-0.501 0.872,-1.148 0.901,-1.438 0.086,-0.851 6.53,-10.259 8.344,-12.183 0.915,-0.97 1.559,-1.87 1.43,-1.998 -0.404,-0.404 15.221,-15.827 19.154,-18.908 4.345,-3.404 15.388,-10.749 16.546,-11.005 0.435,-0.096 0.909,-0.323 1.054,-0.504 0.437,-0.545 8.96,-4.713 8.96,-4.382 0,0.169 0.372,-0.066 0.828,-0.521 0.726,-0.726 1.469,-0.944 2.67,-0.784 0.185,0.025 0.481,-0.188 0.659,-0.474 0.177,-0.286 0.796,-0.602 1.376,-0.704 0.58,-0.101 1.173,-0.327 1.318,-0.501 0.301,-0.362 8.814,-3.244 10.013,-3.39 0.435,-0.053 1.502,-0.384 2.371,-0.735 0.87,-0.351 2.317,-0.705 3.215,-0.785 0.899,-0.081 1.859,-0.286 2.134,-0.456 0.541,-0.334 9.27,-1.902 10.989,-1.973 0.579,-0.024 2.239,-0.166 3.689,-0.315 1.449,-0.15 4.71,-0.399 7.246,-0.553 l 4.611,-0.28 V 53.701 37.418 l -5.138,0.084 c -2.826,0.046 -5.968,0.164 -6.983,0.261 m 69.279,11.125 c -1.13,0.796 -10.857,26.893 -10.684,28.666 0.16,1.65 0.489,1.877 8.614,5.954 8.429,4.23 11.361,5.99 18.546,11.13 22.994,16.453 40.616,42.597 47.571,70.579 1.653,6.653 -0.125,6.061 18.189,6.061 19.249,0 17.765,0.695 16.08,-7.53 -4.934,-24.076 -17.779,-51.328 -31.888,-67.654 -0.291,-0.336 -1.356,-1.64 -2.368,-2.898 -2.382,-2.963 -15.93,-16.511 -18.893,-18.893 -1.258,-1.012 -2.562,-2.077 -2.899,-2.368 C 286.316,61.744 258.851,46.768 255.84,48.888 m 10.036,8.941 c 34.906,17.324 61.557,46.374 75.795,82.619 3.212,8.174 7.736,23.303 7.736,25.866 0,0.132 -5.363,0.177 -11.918,0.099 l -11.918,-0.142 -0.992,-3.952 c -8.848,-35.231 -33.763,-66.149 -66.873,-82.985 -4.11,-2.09 -6.833,-3.777 -6.69,-4.143 0.133,-0.341 1.972,-5.068 4.088,-10.506 4.416,-11.353 3.231,-10.598 10.772,-6.856 M 186.445,74.87 c -0.371,0.196 -2.216,0.519 -4.1,0.716 -1.884,0.198 -6.153,0.974 -9.486,1.726 -3.333,0.752 -6.416,1.418 -6.851,1.48 -0.435,0.062 -1.146,0.263 -1.581,0.446 -2.594,1.091 -8.434,2.855 -8.44,2.549 -0.005,-0.2 -0.204,-0.056 -0.443,0.321 -0.239,0.377 -0.947,0.724 -1.573,0.771 -0.626,0.047 -1.138,0.247 -1.138,0.443 0,0.323 -1.762,0.935 -2.777,0.965 -0.224,0.007 -0.698,0.252 -1.055,0.544 -1.193,0.98 -8.816,4.739 -8.825,4.352 -0.004,-0.21 -0.182,-0.116 -0.395,0.209 -0.213,0.324 -2.047,1.596 -4.076,2.824 -2.029,1.229 -4.46,2.813 -5.402,3.521 -0.942,0.707 -1.713,1.11 -1.713,0.895 0,-0.215 -0.296,-0.033 -0.659,0.404 -0.775,0.936 -6.192,5.396 -6.192,5.098 0,-1.904 -16.888,16.719 -22.558,24.875 -1.914,2.754 -3.69,5.152 -3.945,5.329 -0.255,0.178 -0.442,0.533 -0.415,0.791 0.027,0.257 -0.357,0.942 -0.853,1.522 -0.497,0.58 -0.839,1.121 -0.761,1.203 0.212,0.223 -4.862,10.339 -5.373,10.713 -0.242,0.178 -0.431,0.534 -0.419,0.791 0.05,1.057 -0.605,2.84 -1.043,2.84 -0.258,0 -0.424,0.177 -0.369,0.395 0.194,0.764 -0.716,3.821 -1.138,3.821 -0.234,0 -0.412,0.296 -0.394,0.658 0.065,1.308 -0.819,4.085 -1.301,4.085 -0.27,0 -0.378,0.184 -0.239,0.409 0.22,0.356 -1.308,6.866 -2.13,9.077 -0.162,0.435 -0.367,1.383 -0.455,2.108 -0.089,0.725 -0.543,3.689 -1.009,6.588 -1.233,7.668 -1.609,20.866 -0.817,28.722 0.365,3.623 0.727,7.299 0.804,8.168 0.076,0.87 0.262,1.937 0.413,2.372 0.151,0.435 0.78,3.074 1.399,5.866 0.618,2.792 1.757,7.061 2.53,9.486 0.773,2.426 1.415,4.648 1.426,4.938 0.011,0.29 0.174,0.645 0.363,0.79 0.188,0.145 0.425,0.738 0.527,1.318 0.101,0.579 0.374,1.194 0.606,1.365 0.232,0.171 0.46,0.823 0.507,1.449 0.047,0.626 0.229,1.138 0.404,1.138 0.363,0 2.751,5.578 2.618,6.116 -0.049,0.195 0.137,0.499 0.413,0.676 0.559,0.36 2.631,4.276 2.649,5.007 0.006,0.257 0.234,0.613 0.505,0.791 0.724,0.473 3.363,4.802 2.928,4.802 -0.204,0 0.09,0.348 0.652,0.773 0.563,0.426 0.8,0.782 0.527,0.791 -0.273,0.009 -0.035,0.365 0.527,0.79 0.563,0.426 0.859,0.782 0.658,0.791 -0.201,0.009 0.326,0.774 1.171,1.7 0.846,0.925 1.435,1.785 1.311,1.91 -0.125,0.124 0.296,0.664 0.936,1.198 0.64,0.534 0.953,0.979 0.697,0.988 -0.256,0.01 0.171,0.519 0.95,1.132 0.779,0.613 1.302,1.228 1.163,1.367 -0.139,0.139 0.568,0.974 1.571,1.855 1.003,0.88 1.74,1.686 1.636,1.789 -0.279,0.279 9.844,10.502 10.245,10.347 0.188,-0.072 1.055,0.681 1.926,1.673 0.872,0.993 1.677,1.713 1.789,1.6 0.113,-0.112 1.196,0.702 2.407,1.809 1.212,1.108 2.282,1.935 2.379,1.838 0.096,-0.097 0.933,0.516 1.858,1.362 0.926,0.845 1.691,1.372 1.7,1.171 0.009,-0.201 0.365,0.095 0.791,0.658 0.425,0.562 0.781,0.799 0.79,0.527 0.009,-0.273 0.365,-0.036 0.791,0.527 0.425,0.562 0.773,0.856 0.773,0.652 0,-0.436 4.329,2.204 4.802,2.928 0.178,0.271 0.474,0.473 0.659,0.448 0.185,-0.024 3.263,1.378 6.84,3.118 3.577,1.739 6.778,3.161 7.114,3.161 0.337,0 0.612,0.238 0.612,0.527 0,0.29 0.178,0.482 0.395,0.427 0.82,-0.208 3.821,0.731 3.821,1.196 0,0.267 0.178,0.446 0.395,0.397 0.81,-0.182 4.348,0.748 4.348,1.143 0,0.225 0.296,0.377 0.659,0.339 0.965,-0.104 8.465,1.835 9.139,2.363 0.317,0.248 0.721,0.305 0.9,0.126 0.178,-0.178 0.749,-0.148 1.269,0.067 0.519,0.215 2.012,0.486 3.316,0.603 1.304,0.118 2.727,0.354 3.162,0.525 1.029,0.405 2.218,0.495 12.912,0.974 9.39,0.421 16.904,-0.065 25.823,-1.67 2.609,-0.469 5.336,-0.916 6.061,-0.993 0.725,-0.078 1.436,-0.196 1.581,-0.264 0.145,-0.068 0.501,-0.169 0.79,-0.225 0.29,-0.057 0.883,-0.25 1.318,-0.43 1.718,-0.709 11.37,-3.68 11.989,-3.689 0.363,-0.006 0.659,-0.161 0.659,-0.345 0,-0.289 5.064,-2.322 5.797,-2.327 0.145,-0.001 0.501,-0.191 0.791,-0.421 1.168,-0.928 8.696,-4.594 8.704,-4.238 0.004,0.21 0.182,0.121 0.395,-0.198 0.458,-0.686 4.867,-3.509 4.867,-3.116 0,0.149 0.443,-0.145 0.984,-0.652 1.432,-1.341 7.165,-5.167 7.293,-4.867 0.06,0.141 0.416,-0.128 0.791,-0.598 0.375,-0.469 2.579,-2.448 4.897,-4.398 3.521,-2.96 15.147,-14.475 15.05,-14.906 -0.045,-0.2 4.855,-6.533 5.855,-7.568 0.483,-0.5 0.777,-1.01 0.654,-1.133 -0.124,-0.124 0.359,-0.855 1.072,-1.625 0.714,-0.77 1.175,-1.4 1.024,-1.4 -0.362,0 1.96,-3.315 2.67,-3.813 0.304,-0.213 0.362,-0.391 0.128,-0.395 -0.565,-0.011 1.315,-3.171 1.887,-3.171 0.245,0 0.298,-0.237 0.119,-0.527 -0.179,-0.289 -0.035,-0.527 0.32,-0.527 0.355,0 0.499,-0.147 0.318,-0.327 -0.367,-0.367 2.118,-5.553 2.902,-6.056 0.276,-0.177 0.468,-0.533 0.427,-0.79 -0.12,-0.74 2.793,-7.804 3.395,-8.234 0.299,-0.212 0.38,-0.39 0.18,-0.395 -0.2,-0.004 0.01,-1.104 0.466,-2.443 0.457,-1.34 1.578,-5.194 2.493,-8.564 l 1.662,-6.129 h -17.236 c -9.481,0 -17.2,0.119 -17.154,0.264 0.161,0.508 -1.922,6.851 -2.25,6.851 -0.183,0 -0.37,0.512 -0.418,1.138 -0.047,0.626 -0.275,1.279 -0.507,1.45 -0.232,0.171 -0.487,0.666 -0.566,1.101 -0.263,1.44 -3.944,8.432 -4.438,8.432 -0.268,0 -0.362,0.201 -0.21,0.447 0.152,0.246 -0.199,0.958 -0.78,1.581 -0.581,0.624 -0.925,1.134 -0.765,1.134 0.161,0 -0.336,0.949 -1.103,2.108 -0.768,1.16 -1.615,2.108 -1.883,2.108 -0.269,0 -0.352,0.221 -0.185,0.491 0.167,0.27 -0.173,0.825 -0.756,1.233 -0.583,0.408 -0.93,0.872 -0.772,1.03 0.159,0.159 -0.349,0.79 -1.128,1.402 -0.779,0.613 -1.242,1.114 -1.029,1.114 0.668,0 -4.921,5.9 -9.129,9.639 -3.897,3.461 -13.251,10.242 -13.251,9.606 0,-0.172 -0.519,0.17 -1.153,0.761 -1.083,1.009 -1.73,1.285 -2.668,1.137 -0.217,-0.034 -0.395,0.189 -0.395,0.496 0,0.307 -0.237,0.411 -0.527,0.232 -0.29,-0.179 -0.527,-0.06 -0.527,0.264 0,0.324 -0.237,0.442 -0.527,0.263 -0.29,-0.179 -0.527,-0.06 -0.527,0.264 0,0.324 -0.237,0.442 -0.527,0.263 -0.29,-0.179 -0.527,-0.06 -0.527,0.264 0,0.324 -0.237,0.442 -0.527,0.263 -0.29,-0.179 -0.527,-0.097 -0.527,0.181 0,0.574 -3.158,1.81 -3.17,1.241 -0.004,-0.202 -0.204,-0.059 -0.443,0.317 -0.239,0.377 -0.947,0.724 -1.573,0.771 -0.626,0.048 -1.138,0.235 -1.138,0.418 0,0.324 -3.707,1.605 -5.27,1.821 -0.435,0.06 -1.434,0.37 -2.219,0.69 -1.962,0.797 -10.454,2.354 -10.823,1.985 -0.165,-0.165 -0.592,-0.058 -0.948,0.238 -1.443,1.197 -24.269,0.723 -25.786,-0.536 -0.35,-0.291 -0.783,-0.383 -0.961,-0.205 -0.179,0.178 -0.75,0.149 -1.269,-0.065 -0.52,-0.215 -1.663,-0.465 -2.54,-0.557 -2.23,-0.233 -12.039,-3.417 -12.43,-4.035 -0.177,-0.28 -0.474,-0.489 -0.659,-0.464 -1.201,0.161 -1.944,-0.057 -2.67,-0.783 -0.455,-0.456 -0.828,-0.689 -0.828,-0.518 0,0.423 -5.453,-2.356 -5.856,-2.984 -0.178,-0.277 -0.474,-0.483 -0.659,-0.458 -0.916,0.122 -1.28,-0.037 -2.345,-1.03 -0.634,-0.591 -1.153,-0.943 -1.153,-0.783 0,0.161 -0.949,-0.336 -2.108,-1.103 -1.16,-0.768 -2.108,-1.615 -2.108,-1.883 0,-0.269 -0.201,-0.365 -0.446,-0.213 -0.245,0.151 -1.305,-0.513 -2.357,-1.477 -1.052,-0.963 -2.017,-1.646 -2.145,-1.518 -0.402,0.402 -13.576,-13.002 -13.269,-13.5 0.161,-0.26 -0.015,-0.59 -0.39,-0.734 -0.708,-0.271 -6.449,-8.281 -5.936,-8.281 0.159,0 -0.065,-0.415 -0.5,-0.922 -0.434,-0.507 -0.767,-1.133 -0.74,-1.39 0.027,-0.258 -0.178,-0.614 -0.456,-0.791 -0.716,-0.458 -4.425,-7.962 -3.939,-7.972 0.221,-0.004 0.129,-0.182 -0.205,-0.395 -0.333,-0.213 -0.689,-0.862 -0.79,-1.442 -0.101,-0.579 -0.327,-1.172 -0.501,-1.317 -0.902,-0.75 -4.518,-13.595 -5.003,-17.77 -1.32,-11.365 -1.435,-14.343 -0.816,-21.194 0.352,-3.898 0.866,-7.36 1.143,-7.694 0.277,-0.333 0.376,-0.734 0.219,-0.891 -0.668,-0.669 3.579,-15.589 4.634,-16.278 0.271,-0.177 0.473,-0.474 0.448,-0.659 -0.161,-1.201 0.057,-1.944 0.783,-2.67 0.456,-0.456 0.689,-0.828 0.518,-0.828 -0.423,0 2.356,-5.453 2.984,-5.856 0.277,-0.178 0.473,-0.533 0.435,-0.791 -0.11,-0.76 2.107,-4.42 2.678,-4.42 0.288,0 0.377,-0.239 0.196,-0.531 -0.18,-0.292 0.042,-0.673 0.493,-0.846 0.452,-0.173 0.705,-0.503 0.563,-0.733 -0.142,-0.23 0.439,-1.166 1.292,-2.079 0.854,-0.913 1.543,-1.786 1.531,-1.939 -0.03,-0.414 6.548,-8.091 8.725,-10.181 1.04,-0.999 1.891,-1.699 1.891,-1.554 0,0.144 1.182,-0.848 2.627,-2.204 2.687,-2.524 10.994,-8.34 11.232,-7.865 0.073,0.145 0.705,-0.27 1.405,-0.922 1.192,-1.111 1.834,-1.399 2.787,-1.248 0.217,0.034 0.395,-0.189 0.395,-0.496 0,-0.307 0.237,-0.412 0.527,-0.232 0.29,0.179 0.527,0.06 0.527,-0.264 0,-0.324 0.237,-0.443 0.527,-0.263 0.29,0.179 0.527,0.06 0.527,-0.264 0,-0.324 0.237,-0.443 0.527,-0.263 0.29,0.179 0.527,0.06 0.527,-0.264 0,-0.324 0.237,-0.443 0.527,-0.263 0.29,0.179 0.527,0.097 0.527,-0.181 0,-0.607 2.94,-1.71 3.381,-1.27 0.169,0.17 0.308,0.058 0.308,-0.249 0,-0.499 2.049,-1.356 3.425,-1.433 0.29,-0.016 0.656,-0.202 0.814,-0.412 0.158,-0.21 0.869,-0.447 1.581,-0.527 0.712,-0.079 1.425,-0.319 1.585,-0.533 0.159,-0.213 1,-0.466 1.868,-0.561 0.868,-0.095 1.88,-0.359 2.248,-0.587 0.369,-0.227 0.811,-0.273 0.982,-0.102 0.171,0.172 0.591,0.08 0.933,-0.204 0.342,-0.284 1.549,-0.61 2.684,-0.725 1.134,-0.115 2.417,-0.349 2.852,-0.519 4.111,-1.609 25.531,-1.218 30.567,0.558 0.435,0.153 1.553,0.358 2.484,0.454 2.18,0.226 14.907,4.45 14.907,4.947 0,0.208 0.357,0.377 0.794,0.377 1.129,0 8.692,3.911 8.692,4.495 0,0.268 0.201,0.362 0.447,0.21 0.246,-0.152 0.933,0.175 1.525,0.728 0.593,0.552 1.185,0.897 1.315,0.767 0.13,-0.131 0.873,0.352 1.65,1.072 0.777,0.72 1.585,1.318 1.795,1.328 2.574,0.126 24.372,22.143 21.923,22.143 -0.219,0 0.063,0.348 0.625,0.773 0.563,0.426 0.845,0.782 0.628,0.791 -0.217,0.009 0.041,0.452 0.573,0.985 1.121,1.121 7.274,13.01 7.545,14.578 0.1,0.58 0.325,1.173 0.499,1.318 0.174,0.145 0.786,1.686 1.361,3.425 l 1.045,3.162 16.892,0.139 16.891,0.139 -0.14,-1.456 c -0.077,-0.801 -0.299,-1.838 -0.494,-2.305 -0.195,-0.467 -0.429,-1.415 -0.519,-2.108 -0.09,-0.693 -0.435,-1.932 -0.766,-2.753 -0.331,-0.822 -0.468,-1.711 -0.304,-1.976 0.164,-0.266 0.074,-0.483 -0.201,-0.483 -0.46,0 -1.436,-3.442 -1.232,-4.348 0.049,-0.217 -0.174,-0.395 -0.495,-0.395 -0.321,0 -0.447,-0.356 -0.28,-0.791 0.167,-0.435 0.112,-0.79 -0.123,-0.79 -0.457,0 -1.995,-4.216 -1.778,-4.875 0.071,-0.218 -0.06,-0.395 -0.292,-0.395 -0.451,0 -1.972,-3.688 -1.794,-4.348 0.059,-0.218 -0.144,-0.395 -0.451,-0.395 -0.307,0 -0.411,-0.238 -0.232,-0.528 0.179,-0.289 0.06,-0.527 -0.264,-0.527 -0.324,0 -0.442,-0.237 -0.263,-0.527 0.179,-0.289 0.06,-0.527 -0.264,-0.527 -0.324,0 -0.442,-0.237 -0.263,-0.527 0.179,-0.289 0.06,-0.527 -0.264,-0.527 -0.324,0 -0.442,-0.237 -0.263,-0.527 0.179,-0.289 0.06,-0.527 -0.264,-0.527 -0.324,0 -0.455,-0.216 -0.291,-0.482 0.164,-0.265 0.105,-0.561 -0.131,-0.658 -0.236,-0.098 -1.691,-2.276 -3.233,-4.841 -3.346,-5.567 -9.279,-13.625 -13.251,-17.997 -1.58,-1.74 -3.812,-4.23 -4.959,-5.534 -1.147,-1.304 -2.168,-2.294 -2.269,-2.199 -0.101,0.095 -1.966,-1.483 -4.145,-3.507 -2.179,-2.024 -4,-3.661 -4.047,-3.638 -0.296,0.145 -7.199,-5.165 -7.199,-5.539 0,-0.254 -0.223,-0.325 -0.495,-0.157 -0.272,0.168 -0.739,-0.114 -1.038,-0.628 -0.299,-0.513 -0.551,-0.76 -0.559,-0.549 -0.019,0.455 -8.104,-4.353 -8.362,-4.972 -0.097,-0.234 -0.393,-0.291 -0.659,-0.127 -0.265,0.164 -0.482,0.047 -0.482,-0.26 0,-0.307 -0.177,-0.502 -0.395,-0.433 -0.666,0.211 -3.821,-1.276 -3.821,-1.802 0,-0.271 -0.237,-0.347 -0.527,-0.168 -0.289,0.179 -0.527,0.075 -0.527,-0.232 0,-0.307 -0.181,-0.499 -0.402,-0.427 -0.427,0.14 -8.109,-2.803 -8.557,-3.278 -0.145,-0.153 -0.619,-0.36 -1.054,-0.46 -1.44,-0.328 -13.951,-3.857 -14.756,-4.162 -0.435,-0.164 -1.185,-0.251 -1.666,-0.192 -0.482,0.058 -1.032,-0.147 -1.222,-0.455 -0.191,-0.308 -0.542,-0.44 -0.78,-0.293 -0.239,0.147 -2.772,-0.111 -5.629,-0.575 -5.36,-0.869 -27.951,-1.405 -29.291,-0.695 m 177.192,17.211 c -10e-4,0.652 -3.091,2.562 -3.821,2.362 -0.218,-0.06 -0.396,0.123 -0.396,0.405 0,0.556 -3.173,2.408 -3.821,2.23 -0.217,-0.06 -0.395,0.123 -0.395,0.405 0,0.556 -3.173,2.408 -3.821,2.23 -0.217,-0.059 -0.395,0.123 -0.395,0.405 0,0.556 -3.173,2.408 -3.821,2.23 -0.217,-0.059 -0.395,0.123 -0.395,0.405 0,0.506 -2.827,2.196 -3.493,2.088 -0.188,-0.031 -0.487,0.153 -0.664,0.409 -0.482,0.697 -3.748,2.908 -3.748,2.539 0,-0.176 -0.493,0.139 -1.096,0.7 -1.038,0.968 -1.051,1.106 -0.252,2.65 0.463,0.897 0.817,1.784 0.787,1.972 -0.031,0.188 0.155,0.487 0.412,0.664 0.78,0.537 2.902,4.274 2.432,4.283 -0.241,0.005 -0.172,0.182 0.154,0.395 0.688,0.449 5.63,10.137 5.172,10.137 -0.168,0 0.066,0.373 0.522,0.828 0.726,0.726 0.944,1.469 0.783,2.671 -0.025,0.185 0.17,0.481 0.432,0.658 0.586,0.396 3.357,7.291 3.455,8.599 0.039,0.521 0.284,0.946 0.543,0.946 0.259,0 0.334,0.356 0.168,0.791 -0.167,0.435 -0.049,0.791 0.263,0.791 0.312,0 0.43,0.355 0.264,0.79 -0.167,0.435 -0.13,0.791 0.082,0.791 0.381,0 2.352,6.297 2.469,7.889 0.033,0.454 0.251,1.133 0.484,1.509 0.232,0.377 0.283,0.825 0.111,0.997 -0.171,0.171 -0.043,0.635 0.286,1.031 0.329,0.396 0.447,0.871 0.263,1.054 -0.183,0.184 -0.123,0.593 0.134,0.91 0.594,0.732 2.31,9.127 1.975,9.668 -0.138,0.223 0.046,0.811 0.409,1.307 1.048,1.433 34.184,1.674 33.417,0.243 -0.28,-0.523 -0.458,-1.471 -0.397,-2.108 0.062,-0.636 -0.017,-1.512 -0.175,-1.947 -0.158,-0.435 -0.665,-3.044 -1.128,-5.797 -0.463,-2.754 -1.535,-7.848 -2.382,-11.32 -0.848,-3.472 -1.429,-6.496 -1.291,-6.719 0.138,-0.224 0.026,-0.407 -0.248,-0.407 -0.484,0 -1.413,-3.271 -1.311,-4.611 0.027,-0.362 -0.116,-0.659 -0.319,-0.659 -0.386,0 -1.914,-5.241 -1.729,-5.928 0.059,-0.218 -0.1,-0.396 -0.352,-0.396 -0.451,0 -1.785,-4.034 -1.636,-4.947 0.042,-0.258 -0.157,-0.614 -0.443,-0.791 -0.285,-0.177 -0.602,-0.797 -0.703,-1.376 -0.102,-0.58 -0.314,-1.173 -0.473,-1.318 -0.633,-0.579 -3.042,-6.77 -2.749,-7.064 0.173,-0.173 -0.002,-0.314 -0.388,-0.314 -0.387,0 -0.559,-0.144 -0.383,-0.32 0.175,-0.175 0.102,-0.59 -0.164,-0.922 -0.942,-1.174 -5.714,-10.879 -5.353,-10.887 0.201,-0.005 0.116,-0.183 -0.189,-0.396 -0.731,-0.509 -3.051,-4.339 -2.63,-4.339 0.18,0 -0.148,-0.511 -0.729,-1.134 -0.581,-0.624 -0.975,-1.276 -0.877,-1.449 0.099,-0.174 -0.502,-1.027 -1.335,-1.897 -0.833,-0.869 -1.515,-1.291 -1.515,-0.936 m -177.339,19.884 c -13.751,2.16 -30.048,9.107 -38.556,16.435 -0.626,0.54 -2.163,1.811 -3.415,2.825 -22.63,18.338 -34.094,51.238 -28.07,80.558 1.02,4.965 4.284,15.207 4.984,15.639 0.283,0.176 0.41,0.49 0.28,0.699 -1.118,1.809 28.183,-9.977 30.916,-12.435 1.223,-1.1 1.17,-2.106 -0.439,-8.32 -5.118,-19.763 3.199,-41.474 20.113,-52.501 6.953,-4.533 16.917,-7.829 23.664,-7.829 1.193,0 2.454,-0.285 2.802,-0.633 0.905,-0.904 0.905,-33.667 0,-34.572 -0.807,-0.806 -6.698,-0.742 -12.279,0.134 m 8.168,17.152 v 13.175 h -1.747 c -16.414,0 -36.43,14.584 -43.334,31.573 -3.677,9.051 -4.883,24.34 -2.678,33.951 1.14,4.97 2.603,3.663 -10.7,9.558 l -11.161,4.946 -0.538,-1.41 c -17.827,-46.734 18.015,-100.841 69.5,-104.916 0.51,-0.04 0.658,2.907 0.658,13.123 m 34.419,-10.58 c -0.157,0.602 -0.445,1.094 -0.639,1.094 -0.195,0 -0.392,0.512 -0.439,1.138 -0.048,0.627 -0.395,1.334 -0.771,1.573 -0.377,0.239 -0.511,0.439 -0.298,0.443 0.401,0.008 -1.614,5.863 -2.179,6.332 -0.174,0.145 -0.4,0.738 -0.501,1.318 -0.101,0.579 -0.457,1.228 -0.791,1.441 -0.333,0.213 -0.436,0.391 -0.228,0.395 0.375,0.008 -1.644,5.829 -2.196,6.332 -0.159,0.145 -0.373,0.738 -0.474,1.318 -0.102,0.58 -0.457,1.228 -0.791,1.441 -0.333,0.213 -0.436,0.391 -0.228,0.395 0.508,0.011 -1.761,5.967 -2.46,6.456 -0.304,0.213 -0.346,0.391 -0.093,0.396 0.253,0.004 0.134,0.409 -0.263,0.899 -0.492,0.606 -0.513,0.765 -0.065,0.496 0.362,-0.217 0.659,-0.184 0.659,0.075 0,0.258 0.31,0.47 0.688,0.47 1.089,0 5.636,2.414 5.636,2.992 0,0.287 0.151,0.371 0.335,0.186 0.581,-0.581 6.278,3.786 10.061,7.713 3.934,4.085 7.154,8.45 6.623,8.98 -0.182,0.182 8.365,0.331 18.993,0.331 10.679,0 19.324,-0.206 19.324,-0.461 0,-0.253 -0.345,-1.439 -0.767,-2.635 -0.422,-1.196 -0.6,-2.178 -0.396,-2.182 0.205,-0.005 0.1,-0.182 -0.234,-0.395 -0.333,-0.213 -0.689,-0.862 -0.79,-1.442 -0.102,-0.579 -0.308,-1.172 -0.459,-1.317 -0.459,-0.441 -4.133,-8.136 -4.124,-8.637 0.005,-0.257 -0.201,-0.613 -0.457,-0.79 -0.922,-0.639 -2.748,-3.611 -2.419,-3.94 0.184,-0.184 0.099,-0.335 -0.19,-0.335 -0.487,0 -4.135,-4.679 -4.11,-5.27 0.006,-0.145 -0.658,-0.827 -1.476,-1.515 -0.818,-0.689 -1.387,-1.352 -1.265,-1.474 0.122,-0.122 -1.824,-2.142 -4.325,-4.489 -2.502,-2.348 -5.121,-4.886 -5.822,-5.642 -0.7,-0.755 -1.412,-1.323 -1.581,-1.261 -0.169,0.061 -1.068,-0.561 -1.997,-1.384 -0.93,-0.823 -1.813,-1.373 -1.964,-1.223 -0.151,0.151 -0.423,-0.114 -0.605,-0.589 -0.182,-0.474 -0.545,-0.731 -0.807,-0.569 -0.261,0.162 -0.617,-0.075 -0.79,-0.527 -0.173,-0.451 -0.492,-0.712 -0.707,-0.579 -0.216,0.134 -0.956,-0.283 -1.645,-0.925 -0.69,-0.642 -1.378,-1.115 -1.529,-1.052 -0.28,0.117 -7.959,-3.582 -8.445,-4.068 -0.834,-0.834 -2.734,-0.525 -2.999,0.487 M 41.091,195.802 c -1.736,2.093 0.617,24.183 4.017,37.712 5.315,21.149 17.187,45.489 28.8,59.048 0.655,0.765 1.902,2.293 2.772,3.396 4.941,6.27 15.273,16.608 21.553,21.565 1.102,0.87 2.719,2.174 3.593,2.899 12.393,10.265 36.663,22.968 38.849,20.333 2.665,-3.211 12.235,-30.495 10.603,-30.229 -2.227,0.363 -24.372,-12.624 -30.329,-17.787 -0.87,-0.754 -2.886,-2.476 -4.48,-3.827 -3.776,-3.2 -8.072,-7.511 -11.344,-11.382 -1.442,-1.707 -2.859,-3.368 -3.149,-3.691 -15.248,-17.013 -27.636,-50.091 -27.663,-73.865 -0.003,-2.182 -0.266,-3.977 -0.637,-4.348 -1.054,-1.054 -31.701,-0.888 -32.585,0.176 m -37.51,3.276 c -0.085,1.956 0.005,4.387 0.2,5.402 0.196,1.014 0.52,4.453 0.72,7.641 0.468,7.457 0.601,8.628 1.557,13.702 0.437,2.319 0.686,4.505 0.553,4.858 -0.132,0.353 0.007,0.795 0.309,0.982 0.302,0.187 0.433,0.787 0.29,1.334 -0.143,0.547 -0.034,1.134 0.243,1.305 0.276,0.171 0.455,0.704 0.396,1.186 -0.058,0.482 0.04,1.231 0.219,1.666 0.749,1.823 2.916,11.302 2.674,11.694 -0.145,0.235 -0.039,0.427 0.235,0.427 0.484,0 1.413,3.271 1.311,4.612 -0.027,0.362 0.187,0.658 0.475,0.658 0.289,0 0.388,0.356 0.222,0.791 -0.167,0.435 -0.049,0.79 0.263,0.79 0.312,0 0.431,0.356 0.264,0.791 -0.167,0.435 -0.049,0.791 0.263,0.791 0.312,0 0.431,0.355 0.264,0.79 -0.167,0.435 -0.049,0.791 0.263,0.791 0.312,0 0.431,0.355 0.264,0.79 -0.167,0.435 -0.093,0.791 0.165,0.791 0.434,0 1.267,2.706 1.074,3.489 -0.047,0.19 0.116,0.49 0.36,0.668 0.554,0.4 2.983,6.311 2.983,7.256 0,0.962 1.688,1.402 2.897,0.756 0.553,-0.296 1.155,-0.388 1.338,-0.205 0.183,0.183 0.332,0.074 0.332,-0.242 0,-0.554 3.546,-2.037 4.348,-1.817 0.218,0.059 0.395,-0.104 0.395,-0.362 0,-0.458 2.507,-1.37 3.294,-1.198 0.218,0.048 0.396,-0.132 0.396,-0.399 0,-0.471 2.943,-1.661 3.893,-1.575 0.258,0.024 0.613,-0.186 0.791,-0.465 0.456,-0.719 7.809,-3.778 8.182,-3.404 0.17,0.169 0.309,0.05 0.309,-0.266 0,-0.571 3.559,-2.035 4.387,-1.804 0.499,0.139 0.272,-2.669 -0.248,-3.067 -0.19,-0.145 -0.428,-0.738 -0.529,-1.318 -0.102,-0.58 -0.374,-1.194 -0.606,-1.365 -0.232,-0.171 -0.461,-0.823 -0.508,-1.449 -0.047,-0.626 -0.241,-1.139 -0.432,-1.139 -0.382,0 -1.844,-4.771 -1.656,-5.401 0.066,-0.218 -0.144,-0.396 -0.465,-0.396 -0.32,0 -0.452,-0.34 -0.293,-0.756 0.16,-0.416 0.116,-0.831 -0.097,-0.922 -0.538,-0.23 -2.76,-7.836 -2.441,-8.353 0.143,-0.23 0.031,-0.498 -0.248,-0.596 -0.555,-0.193 -3.6,-14.64 -4.081,-19.367 -0.165,-1.619 -0.406,-3.892 -0.534,-5.052 -0.315,-2.839 -1.083,-12.757 -1.153,-14.888 L 36.364,195.52 H 20.05 3.737 l -0.156,3.558 m 65.989,3.952 c 0.055,42.207 29.052,87.077 69.77,107.962 l 6.469,3.318 -4.116,10.244 c -2.263,5.634 -4.231,10.36 -4.373,10.502 -1.516,1.516 -26.419,-13.983 -37.715,-23.474 C 68.572,285.507 45.337,238.366 45.323,201.449 v -1.713 h 12.121 12.121 l 0.005,3.294 m 171.535,16.609 c -0.29,0.213 -1.386,1.692 -2.435,3.286 -3.609,5.484 -9.819,11.106 -16.009,14.49 -4.591,2.51 -5.533,3.306 -5.533,4.674 0,1.405 11.079,29.99 11.82,30.498 3.305,2.267 19.004,-7.569 30.18,-18.91 11.397,-11.564 21.777,-30.532 18.5,-33.809 -0.71,-0.71 -35.567,-0.929 -36.523,-0.229 m 118.198,0.519 c -0.444,0.507 -0.969,2.108 -1.166,3.557 -2.484,18.25 -15.159,49.158 -26.042,63.501 -0.768,1.013 -1.99,2.703 -2.714,3.757 -4.708,6.845 -16.634,19.779 -24.237,26.287 -1.524,1.304 -3.185,2.727 -3.69,3.162 -0.505,0.434 -1.704,1.383 -2.664,2.108 -0.96,0.724 -2.83,2.163 -4.155,3.197 -4.985,3.89 -14.829,9.895 -23.189,14.145 -47.337,24.062 -105.682,22.689 -151.815,-3.571 -5.567,-3.169 -17.424,-10.941 -19.561,-12.821 -0.758,-0.668 -2.161,-1.807 -3.118,-2.531 -1.983,-1.503 -4.717,-3.892 -8.592,-7.51 -1.621,-1.514 -3.17,-2.504 -3.918,-2.504 -0.832,0 -1.118,-0.215 -0.874,-0.658 0.2,-0.363 -4.885,4.556 -11.299,10.931 -11.054,10.984 -12.384,12.37 -11.136,11.598 0.29,-0.179 0.527,0.058 0.527,0.527 0,0.515 -0.261,0.716 -0.659,0.508 -1.208,-0.632 5.468,5.548 12.253,11.343 0.725,0.619 1.792,1.53 2.372,2.024 0.58,0.495 2.002,1.607 3.161,2.471 1.16,0.865 2.345,1.753 2.635,1.974 0.291,0.221 1.409,1.051 2.486,1.845 1.077,0.793 2.974,2.193 4.216,3.11 31.478,23.244 81.527,37.009 123.47,33.958 31.566,-2.296 68.006,-13.794 88.801,-28.018 0.725,-0.496 3.689,-2.471 6.588,-4.389 6.449,-4.269 9.699,-6.529 10.56,-7.343 0.36,-0.34 1.288,-1.078 2.063,-1.64 0.775,-0.561 1.837,-1.391 2.361,-1.844 0.523,-0.453 2.108,-1.772 3.523,-2.931 3.321,-2.721 19.958,-19.333 22.347,-22.314 1.009,-1.257 2.072,-2.562 2.364,-2.898 1.259,-1.452 3.237,-3.952 4.213,-5.323 0.579,-0.815 1.948,-2.636 3.04,-4.048 12.592,-16.268 25.292,-43.423 31.152,-66.603 2.02,-7.994 4.95,-24.943 4.067,-23.528 -0.311,0.499 -0.556,0.539 -0.807,0.132 -0.684,-1.106 -31.579,-0.785 -32.563,0.339 m -38.881,4.875 c -0.685,2.898 -1.453,5.27 -1.708,5.27 -0.254,0 -0.335,0.206 -0.179,0.458 0.286,0.464 -1.703,6.96 -2.281,7.447 -0.171,0.145 -0.375,0.619 -0.451,1.054 -0.307,1.745 -2.958,7.905 -3.401,7.905 -0.261,0 -0.328,0.237 -0.149,0.527 0.179,0.29 0.075,0.527 -0.232,0.527 -0.307,0 -0.499,0.183 -0.427,0.406 0.211,0.651 -1.825,4.864 -2.351,4.864 -0.263,0 -0.331,0.238 -0.152,0.527 0.179,0.29 0.074,0.527 -0.232,0.527 -0.307,0 -0.531,0.178 -0.496,0.396 0.148,0.936 -0.127,1.583 -1.128,2.657 -0.585,0.629 -1.055,1.269 -1.043,1.422 0.054,0.693 -1.664,3.431 -2.152,3.431 -0.3,0 -0.417,0.207 -0.26,0.46 0.156,0.254 -0.279,1.069 -0.968,1.812 -0.689,0.744 -1.151,1.452 -1.028,1.575 0.123,0.123 -0.472,0.968 -1.321,1.877 -0.85,0.91 -1.39,1.662 -1.201,1.671 0.188,0.01 -0.181,0.455 -0.821,0.989 -0.639,0.534 -1.042,1.092 -0.894,1.24 0.148,0.148 -0.329,0.738 -1.059,1.313 -0.73,0.574 -1.195,1.176 -1.033,1.338 0.162,0.162 -3.226,3.816 -7.528,8.12 -7.612,7.617 -16.042,14.687 -16.712,14.017 -0.183,-0.183 -0.332,-0.081 -0.332,0.227 0,0.628 -5.289,4.17 -5.92,3.964 -0.222,-0.072 -0.404,0.101 -0.404,0.385 0,0.506 -3.502,2.521 -4.421,2.544 -0.257,0.006 -0.613,0.239 -0.791,0.517 -0.457,0.716 -9.016,4.951 -9.026,4.465 -0.004,-0.221 -0.183,-0.125 -0.398,0.212 -0.431,0.678 -8.246,3.909 -9.725,4.02 -0.515,0.039 -0.936,0.283 -0.936,0.542 0,0.259 -0.356,0.335 -0.79,0.168 -0.435,-0.167 -0.791,-0.063 -0.791,0.23 0,0.294 -0.296,0.485 -0.659,0.426 -0.362,-0.059 -1.37,0.185 -2.239,0.544 -2.203,0.907 -12.183,3.278 -14.538,3.454 -1.07,0.08 -2.195,0.299 -2.499,0.487 -0.304,0.188 -1.22,0.334 -2.035,0.325 -0.815,-0.01 -3.142,0.21 -5.171,0.489 -2.029,0.278 -5.408,0.518 -7.51,0.533 l -3.821,0.027 v 16.337 16.337 l 4.875,0.063 c 2.681,0.034 5.112,-0.007 5.402,-0.091 0.29,-0.083 1.832,-0.232 3.426,-0.33 1.594,-0.097 3.491,-0.284 4.216,-0.414 0.724,-0.131 3.807,-0.621 6.851,-1.09 3.043,-0.469 8.498,-1.573 12.121,-2.453 3.623,-0.88 6.943,-1.659 7.378,-1.731 0.435,-0.072 1.147,-0.281 1.581,-0.464 2.594,-1.092 8.434,-2.856 8.441,-2.549 0.004,0.2 0.182,0.112 0.395,-0.196 0.442,-0.64 6.21,-3.042 7.304,-3.042 0.398,0 0.725,-0.154 0.725,-0.342 0,-0.411 5.891,-2.932 6.455,-2.763 0.218,0.065 0.396,-0.132 0.396,-0.439 0,-0.307 0.237,-0.412 0.527,-0.233 0.29,0.18 0.527,0.061 0.527,-0.263 0,-0.324 0.217,-0.455 0.482,-0.291 0.265,0.163 0.561,0.109 0.658,-0.121 0.299,-0.707 5.024,-3.261 5.378,-2.907 0.183,0.183 0.333,0.094 0.333,-0.198 0,-0.485 2.629,-1.974 3.103,-1.757 0.112,0.052 0.35,-0.116 0.527,-0.372 0.639,-0.922 3.611,-2.748 3.939,-2.419 0.185,0.184 0.336,0.09 0.336,-0.209 0,-0.3 0.949,-1.173 2.108,-1.94 1.159,-0.767 2.108,-1.287 2.108,-1.154 0,0.133 0.757,-0.45 1.683,-1.296 0.926,-0.845 1.785,-1.435 1.91,-1.31 0.125,0.125 0.664,-0.297 1.198,-0.937 0.534,-0.639 0.979,-1.023 0.989,-0.851 0.009,0.171 1.131,-0.711 2.492,-1.961 1.361,-1.25 2.566,-2.181 2.677,-2.07 0.448,0.447 23.134,-22.742 23.429,-23.949 0.145,-0.59 5.881,-8.216 6.639,-8.827 0.45,-0.363 0.595,-0.667 0.322,-0.676 -0.273,-0.009 -0.021,-0.375 0.558,-0.813 0.58,-0.438 1.015,-0.964 0.967,-1.169 -0.109,-0.464 5.114,-9.213 5.763,-9.654 0.261,-0.177 0.446,-0.478 0.412,-0.668 -0.096,-0.522 4.92,-10.578 5.378,-10.781 0.219,-0.097 0.265,-0.393 0.101,-0.658 -0.164,-0.266 -0.087,-0.482 0.172,-0.482 0.259,0 0.472,-0.297 0.474,-0.659 0.002,-0.363 0.872,-2.823 1.933,-5.467 1.06,-2.645 1.928,-5.076 1.928,-5.402 0,-0.327 0.23,-0.594 0.511,-0.594 0.28,0 0.374,-0.355 0.207,-0.79 -0.167,-0.435 -0.049,-0.791 0.263,-0.791 0.312,0 0.431,-0.355 0.264,-0.79 -0.167,-0.435 -0.1,-0.791 0.148,-0.791 0.248,0 0.488,-0.534 0.532,-1.186 0.044,-0.652 0.373,-1.897 0.73,-2.766 0.357,-0.87 0.719,-2.056 0.805,-2.635 0.085,-0.58 0.745,-3.467 1.467,-6.417 0.721,-2.949 1.477,-6.684 1.679,-8.3 l 0.367,-2.938 h -16.567 -16.566 l -1.244,5.27 m -48.485,-0.485 c 0,3.331 -10.276,19.052 -16.865,25.8 -5.911,6.055 -21.828,17.327 -22.922,16.233 -0.11,-0.11 -2.203,-5.346 -4.651,-11.636 l -4.45,-11.436 2.968,-1.667 c 5.878,-3.3 12.418,-9.239 16.63,-15.101 l 1.984,-2.762 h 13.653 c 9.427,0 13.653,0.176 13.653,0.569 m 115.181,0.617 c -0.14,0.652 -0.639,3.201 -1.108,5.665 -7.57,39.764 -30.425,80.008 -60.273,106.129 -73.829,64.612 -177.337,65.379 -251.579,1.866 l -6.285,-5.376 8.19,-8.19 8.19,-8.19 3.855,3.44 c 66.292,59.152 170.066,54.805 231.534,-9.699 22.554,-23.668 39.265,-56.263 43.233,-84.328 l 0.354,-2.503 h 12.071 12.072 l -0.254,1.186 m -235.362,17.526 c -6.824,6.81 -12.16,12.388 -11.858,12.396 0.303,0.008 2.269,1.641 4.371,3.629 2.101,1.987 3.828,3.463 3.838,3.279 0.01,-0.184 0.484,0.225 1.054,0.909 0.57,0.685 1.037,1.096 1.037,0.915 0,-0.181 0.948,0.298 2.108,1.066 1.159,0.767 2.108,1.6 2.108,1.852 0,0.251 0.178,0.415 0.395,0.365 0.694,-0.162 3.294,1.295 3.294,1.845 0,0.292 0.147,0.383 0.327,0.203 0.308,-0.308 5.425,2.017 5.997,2.724 0.145,0.179 0.501,0.381 0.79,0.447 0.29,0.067 2.806,0.92 5.59,1.896 6.653,2.33 7.259,2.51 9.43,2.799 1.015,0.136 2.051,0.452 2.304,0.704 0.253,0.252 0.786,0.333 1.186,0.18 0.399,-0.153 1.141,-0.108 1.648,0.1 1.078,0.443 2.438,0.578 8.696,0.859 l 4.611,0.207 v -17.453 -17.452 l -4.611,-0.303 c -4.693,-0.309 -13.215,-2.589 -13.958,-3.735 -0.212,-0.328 -0.39,-0.415 -0.395,-0.191 -0.009,0.486 -4.348,-1.649 -4.81,-2.367 -0.177,-0.275 -0.414,-0.422 -0.527,-0.326 -0.354,0.302 -3.774,-1.909 -6.916,-4.471 -1.663,-1.356 -3.086,-2.464 -3.162,-2.462 -0.077,0.002 -5.723,5.575 -12.547,12.385"
       inkscape:connector-curvature="0"
       style="fill:#000000;fill-rule:evenodd;stroke:none" />
  </g>
</svg>
