<?xml version="1.0" encoding="UTF-8" standalone="no"?>
<!DOCTYPE svg PUBLIC "-//W3C//DTD SVG 1.1//EN" "http://www.w3.org/Graphics/SVG/1.1/DTD/svg11.dtd">
<svg width="100%" height="100%" viewBox="0 0 400 400" version="1.1" xmlns="http://www.w3.org/2000/svg" xmlns:xlink="http://www.w3.org/1999/xlink" xml:space="preserve" xmlns:serif="http://www.serif.com/" style="fill-rule:evenodd;clip-rule:evenodd;stroke-linejoin:round;stroke-miterlimit:2;">
    <g id="svgg">
        <path id="path0" d="M169.5,1.608C147.48,6.552 124.683,11.614 104.622,22.431C86.402,32.255 73.559,45.173 57.504,58.585C53.14,62.231 43.487,67.633 43.235,74.888C42.926,83.782 51.857,91.62 55.912,98.193C62.349,108.627 68.242,119.387 74.378,130.001C80.022,139.764 85.643,149.54 91.25,159.325C93.366,163.017 95.479,166.711 97.545,170.431C97.978,171.21 99.121,174.535 100.778,174.482C102.297,174.433 102.796,170.831 103.021,170.287C107.028,160.608 111.359,150.322 117.25,141.576C130.54,121.845 150.27,109.7 172.643,102.464C192.139,96.159 215.182,96.442 235.053,96.823C280.668,97.699 280.44,99.843 326.199,99.436C341.805,99.297 358.325,103.474 373,98.166C377.722,96.458 367.917,89.489 365,85.402C353.219,68.892 339.429,53.159 322.771,41.359C295.364,21.945 266.746,8.056 233.303,2.706C222.26,0.939 211.026,0.645 199.86,0.014C191.61,-0.453 177.641,-0.221 169.5,1.608M19.49,112.684C-9.589,173.567 -6.635,247.26 28.398,305.283C42.74,329.034 63.733,348.037 85.338,365C103.273,379.082 125.875,389.013 148,394.091C154.44,395.569 160.963,396.688 167.5,397.646C168.733,397.827 170.179,398.154 171.237,397.495C173.472,396.102 174.936,390.974 176.055,389C181.957,378.587 188.19,368.364 194.178,358C202.248,344.031 210.176,329.979 218.229,316C221.386,310.521 226.061,305.802 228.163,299.838C228.62,298.539 225.602,298.269 224.249,298.52C221.89,298.959 219.631,299.954 217.241,300.165C202.1,301.503 187.125,302.133 172.5,297.506C155.322,292.071 137.707,282.554 125.857,268.658C114.499,255.34 110.088,246.572 101.383,231.5C84.067,201.519 66.826,171.495 49.535,141.5C43.532,131.087 37.505,120.688 31.5,110.276C26.989,102.455 23.369,104.564 19.49,112.684M271,126.853C271,129.104 274.457,131.313 275.559,132.611C281.514,139.624 286.405,145.819 290.366,154.205C301.352,177.469 304.519,202.347 297.549,227.31C292.09,246.863 278.909,264.883 269,282.009C255.062,306.099 241.332,330.309 227.504,354.462C222.88,362.538 218.538,370.782 213.645,378.698C209.98,384.627 201.982,391.489 202,399.448C202.005,401.909 205.259,401.361 206.382,401.227C208.834,400.934 211.229,400.254 213.68,399.952C219.63,399.219 225.655,399.092 231.571,398.122C265.951,392.486 297.61,380.019 324.51,357.511C343.076,341.976 360.745,323.63 373.291,302.796C395.001,266.746 402.512,223.427 399.391,181.825C398.04,163.812 392.433,147.394 388.222,130L387.373,126.5L329.187,126.242C296.701,126.098 271,126.368 271,126.853M184.5,127.961C176.877,131.114 166.132,134.555 159,138.861C146.466,146.428 137.229,158.608 131.631,172.008C127.695,181.428 126.707,190.128 126.923,200.341C127.145,210.828 128.879,222.384 133.457,231.972C151.473,269.706 196.986,282.195 233.494,265.218C276.185,245.365 284.165,186.536 256.225,151.523C246.699,139.586 231.844,132.406 217.224,129.065C210.604,127.552 192.511,124.652 184.5,127.961"/>
    </g>
</svg>
