<svg version="1.1" width="400" height="400" xmlns="http://www.w3.org/2000/svg">
<g>
<path d="M180.500 42.137 C 170.522 43.602,159.787 46.055,154.481 48.082 C 151.720 49.137,148.864 50.000,148.135 50.000 C 147.405 50.000,145.614 50.644,144.154 51.431 C 142.694 52.219,139.250 53.847,136.500 55.050 C 133.750 56.253,130.825 57.643,130.000 58.138 C 129.175 58.634,127.150 59.733,125.500 60.580 C 110.408 68.327,84.579 90.440,78.394 100.910 C 77.390 102.609,76.216 104.000,75.784 104.000 C 75.353 104.000,75.000 104.675,75.000 105.500 C 75.000 106.325,74.621 107.000,74.157 107.000 C 73.694 107.000,72.467 108.575,71.430 110.500 C 70.393 112.425,69.198 114.000,68.773 114.000 C 68.348 114.000,68.000 114.862,68.000 115.917 C 68.000 116.971,67.611 117.983,67.136 118.167 C 66.361 118.466,56.880 137.542,55.043 142.500 C 42.627 176.002,43.105 230.476,56.015 253.236 C 56.557 254.191,57.008 255.541,57.017 256.236 C 57.048 258.471,70.498 283.470,73.362 286.617 C 73.988 287.305,75.824 289.697,77.442 291.934 C 79.060 294.170,80.747 296.000,81.192 296.000 C 81.636 296.000,82.000 296.659,82.000 297.465 C 82.000 298.270,82.900 299.411,84.000 300.000 C 85.100 300.589,86.000 301.514,86.000 302.056 C 86.000 302.598,88.543 305.395,91.651 308.271 C 94.759 311.147,98.298 314.512,99.516 315.750 C 100.733 316.988,102.240 318.000,102.865 318.000 C 103.489 318.000,104.000 318.389,104.000 318.864 C 104.000 319.339,105.912 321.003,108.250 322.562 C 110.587 324.120,112.950 325.903,113.500 326.524 C 117.023 330.498,144.497 343.711,154.000 346.001 C 155.925 346.465,159.525 347.531,162.000 348.369 C 176.345 353.229,203.363 355.190,220.000 352.580 C 237.220 349.878,240.309 349.263,244.500 347.706 C 246.700 346.888,251.444 345.304,255.042 344.185 C 266.696 340.560,294.195 325.436,295.833 321.750 C 296.017 321.337,296.704 321.000,297.361 321.000 C 298.018 321.000,299.270 320.212,300.144 319.250 C 301.018 318.287,303.402 316.156,305.442 314.513 C 309.964 310.872,318.000 303.015,318.000 302.235 C 318.000 301.923,318.692 300.955,319.539 300.084 C 324.081 295.409,329.055 289.286,329.560 287.750 C 329.876 286.787,330.554 286.000,331.067 286.000 C 331.580 286.000,332.000 285.473,332.000 284.829 C 332.000 284.185,332.612 282.947,333.360 282.079 C 335.911 279.117,346.000 259.923,346.000 258.032 C 346.000 257.494,346.852 255.129,347.894 252.777 C 362.050 220.813,360.926 166.677,345.469 135.969 C 341.877 128.833,330.393 125.619,325.219 130.302 C 324.187 131.236,323.000 132.000,322.582 132.000 C 321.467 132.000,318.072 136.292,318.033 137.750 C 318.015 138.438,317.618 139.000,317.150 139.000 C 314.456 139.000,307.939 160.636,305.555 177.500 C 302.102 201.915,298.687 218.532,294.869 229.500 C 294.294 231.150,293.473 233.910,293.044 235.633 C 292.615 237.356,291.529 240.237,290.632 242.036 C 289.734 243.835,289.000 245.721,289.000 246.226 C 289.000 247.900,277.895 269.843,276.434 271.055 C 275.645 271.709,275.000 272.644,275.000 273.133 C 275.000 273.621,273.425 276.261,271.500 279.000 C 269.575 281.739,268.000 284.206,268.000 284.482 C 268.000 286.655,243.419 311.000,241.226 311.000 C 240.913 311.000,239.947 311.632,239.079 312.405 C 238.210 313.178,233.675 315.689,229.000 317.987 C 224.325 320.284,219.796 322.528,218.935 322.975 C 198.750 333.437,161.224 331.730,134.022 319.113 C 120.580 312.878,97.712 294.093,92.196 284.754 C 91.301 283.239,90.216 282.000,89.784 282.000 C 89.353 282.000,89.000 281.325,89.000 280.500 C 89.000 279.675,88.618 279.000,88.152 279.000 C 87.685 279.000,86.492 277.200,85.500 275.000 C 84.508 272.800,83.427 270.998,83.098 270.996 C 82.769 270.994,81.678 268.857,80.673 266.246 C 79.668 263.636,78.031 259.475,77.035 257.000 C 70.087 239.737,68.324 210.305,73.380 196.000 C 74.255 193.525,74.977 190.708,74.985 189.739 C 74.999 188.114,76.658 183.881,80.761 175.000 C 87.551 160.303,100.133 144.813,113.073 135.218 C 115.508 133.413,119.611 130.375,122.190 128.468 C 124.770 126.561,127.302 125.000,127.818 125.000 C 128.333 125.000,129.300 124.344,129.965 123.542 C 131.857 121.262,161.707 107.000,164.587 107.000 C 165.327 107.000,167.410 106.384,169.216 105.632 C 178.148 101.911,214.730 92.954,220.859 92.987 C 232.108 93.048,253.295 84.759,260.142 77.617 C 267.390 70.056,267.484 58.865,260.346 53.170 C 249.291 44.349,206.095 38.380,180.500 42.137 M269.860 81.457 C 263.195 90.824,249.318 97.360,226.500 101.880 C 208.731 105.399,204.589 106.189,199.500 107.027 C 196.750 107.480,192.475 108.511,190.000 109.318 C 187.525 110.126,181.969 111.784,177.653 113.003 C 173.337 114.222,168.612 115.842,167.153 116.603 C 165.694 117.365,163.926 117.990,163.224 117.994 C 160.235 118.008,138.458 129.430,127.579 136.689 C 93.946 159.132,77.094 193.167,81.033 230.695 C 82.990 249.342,91.523 269.945,101.750 280.720 C 102.988 282.024,104.000 283.365,104.000 283.700 C 104.000 285.423,125.950 304.000,127.985 304.000 C 128.543 304.000,129.000 304.370,129.000 304.823 C 129.000 305.275,132.262 307.267,136.250 309.250 C 176.044 329.037,221.478 321.027,251.696 288.899 C 256.187 284.124,264.000 273.485,264.000 272.144 C 264.000 271.722,264.788 270.480,265.750 269.384 C 268.178 266.619,269.227 264.795,274.311 254.500 C 278.736 245.541,280.034 242.472,283.831 232.000 C 287.455 222.004,293.019 199.437,292.979 194.896 C 292.802 174.864,303.928 137.640,312.912 128.208 C 315.160 125.847,317.000 123.580,317.000 123.169 C 317.000 118.653,297.471 93.000,294.034 93.000 C 293.465 93.000,293.000 92.588,293.000 92.085 C 293.000 91.582,290.637 89.459,287.750 87.368 C 284.863 85.277,282.275 83.326,282.000 83.033 C 281.364 82.355,273.380 78.000,272.774 78.000 C 272.524 78.000,271.213 79.556,269.860 81.457 " stroke="none" fill-rule="evenodd"></path>
</g>
</svg>