<svg id="svg" version="1.1" width="400" height="400" xmlns="http://www.w3.org/2000/svg" xmlns:xlink="http://www.w3.org/1999/xlink" style="display: block;"><g id="svgg"><path id="path0" d="M98.923 129.923 L 96.000 132.846 96.000 181.777 L 96.000 230.708 98.452 233.354 C 100.195 235.235,101.907 236.000,104.370 236.000 C 114.250 236.000,114.000 237.428,114.000 180.973 L 114.000 132.846 111.077 129.923 C 109.082 127.928,107.152 127.000,105.000 127.000 C 102.848 127.000,100.918 127.928,98.923 129.923 M288.923 129.923 L 286.000 132.846 286.000 180.973 C 286.000 237.426,285.750 236.000,295.627 236.000 C 297.971 236.000,299.884 235.207,301.545 233.545 L 304.000 231.091 304.000 181.969 L 304.000 132.846 301.077 129.923 C 299.082 127.928,297.152 127.000,295.000 127.000 C 292.848 127.000,290.918 127.928,288.923 129.923 M51.073 162.635 C 49.104 165.137,49.000 166.499,49.000 189.680 L 49.000 214.091 51.455 216.545 C 53.149 218.240,55.021 219.000,57.500 219.000 C 59.979 219.000,61.851 218.240,63.545 216.545 L 66.000 214.091 66.000 189.680 C 66.000 161.125,65.678 160.000,57.500 160.000 C 53.986 160.000,52.745 160.509,51.073 162.635 M146.073 162.635 C 144.104 165.137,144.000 166.499,144.000 189.680 L 144.000 214.091 146.455 216.545 C 148.149 218.240,150.021 219.000,152.500 219.000 C 154.979 219.000,156.851 218.240,158.545 216.545 L 161.000 214.091 161.000 189.680 C 161.000 161.125,160.678 160.000,152.500 160.000 C 148.986 160.000,147.745 160.509,146.073 162.635 M241.073 162.635 C 239.104 165.137,239.000 166.499,239.000 189.680 L 239.000 214.091 241.455 216.545 C 243.149 218.240,245.021 219.000,247.500 219.000 C 249.979 219.000,251.851 218.240,253.545 216.545 L 256.000 214.091 256.000 189.680 C 256.000 161.125,255.678 160.000,247.500 160.000 C 243.986 160.000,242.745 160.509,241.073 162.635 M336.073 162.635 C 334.104 165.137,334.000 166.499,334.000 189.680 L 334.000 214.091 336.455 216.545 C 339.566 219.657,344.707 219.805,348.412 216.891 L 351.093 214.781 350.797 188.809 C 350.461 159.400,350.636 160.000,342.381 160.000 C 338.996 160.000,337.729 160.529,336.073 162.635 M6.357 183.954 C 1.879 185.840,1.000 188.661,1.000 201.146 C 1.000 215.231,2.900 219.000,10.000 219.000 C 17.126 219.000,19.000 215.248,19.000 200.979 C 19.000 185.876,14.900 180.355,6.357 183.954 M196.357 183.954 C 191.879 185.840,191.000 188.661,191.000 201.146 C 191.000 215.231,192.900 219.000,200.000 219.000 C 207.126 219.000,209.000 215.248,209.000 200.979 C 209.000 185.876,204.900 180.355,196.357 183.954 M386.357 183.954 C 381.879 185.840,381.000 188.661,381.000 201.146 C 381.000 215.231,382.900 219.000,390.000 219.000 C 397.126 219.000,399.000 215.248,399.000 200.979 C 399.000 185.876,394.900 180.355,386.357 183.954 " stroke="none" fill="#000000" fill-rule="evenodd"></path></g></svg>