<svg xmlns="http://www.w3.org/2000/svg" version="1.1" viewBox="0 0 123.3738 123.36188">
<path
   d="M 15.83055,0 C 7.0852922,0 0,7.0852922 0,15.830552 v 91.700778 c 0,8.74526 7.0852922,15.83055 15.83055,15.83055 h 91.71509 c 8.74526,0 15.82816,-7.08319 15.82816,-15.81624 V 15.830552 C 123.3738,7.0852935 116.2909,0 107.54564,0 Z m 11.980264,83.849916 c 2.68709,0 5.424659,0.659272 8.991161,2.149386 v 4.031591 c -3.224509,-1.880967 -5.997575,-2.724306 -9.038873,-2.724306 -5.997097,0 -10.455893,4.261462 -10.455893,10.026493 0,5.87495 4.298678,9.95492 10.61334,9.95492 2.9558,0 6.192809,-1.03809 9.148608,-2.9557 v 4.11508 c -2.577164,1.34355 -5.385822,2.30923 -9.489742,2.30923 -9.844523,0 -14.143963,-7.57176 -14.143963,-13.068082 0,-8.000201 6.033167,-13.838612 14.375362,-13.838612 z m 30.072321,0 c 2.003105,0 3.993135,0.610416 5.837456,1.844035 v 4.241518 c 0.0081,0.0076 0.01573,0.0138 0.02386,0.02147 h -0.02386 v -0.02147 c -2.226427,-2.094485 -4.366277,-2.702834 -6.130879,-2.702834 -2.418382,0 -4.153253,1.271215 -4.153253,3.115536 0,5.032188 11.336163,4.957281 11.336163,13.299469 -2e-6,4.11615 -3.116682,7.10897 -7.342742,7.10897 -2.845873,0 -5.154043,-0.77006 -7.340357,-2.41896 v -4.76157 c 1.917605,2.45502 4.348391,3.80973 6.913342,3.80973 2.919157,0 4.262989,-1.84308 4.262989,-3.30876 0,-5.42304 -11.333778,-6.033838 -11.333778,-13.227913 0,-4.262702 3.150939,-6.999221 7.951059,-6.999221 z m 17.600634,0 c 2.003104,0 3.993135,0.610416 5.837457,1.844035 v 4.241518 c 0.0081,0.0076 0.01573,0.0138 0.02385,0.02147 h -0.02385 v -0.02147 c -2.226428,-2.094485 -4.366277,-2.702834 -6.130881,-2.702834 -2.418381,0 -4.153252,1.271215 -4.153252,3.115536 0,5.032188 11.333777,4.957281 11.333777,13.299469 0,4.11615 -3.114296,7.10897 -7.340357,7.10897 -2.845873,0 -5.154042,-0.77006 -7.340357,-2.41896 v -4.76157 c 1.917606,2.45502 4.348393,3.80973 6.913343,3.80973 2.919158,0 4.262989,-1.84308 4.262989,-3.30876 0,-5.42304 -11.333778,-6.033838 -11.333778,-13.227913 0,-4.262702 3.150938,-6.999221 7.951059,-6.999221 z M 41.723378,84.191051 H 45.4854 v 26.212479 h -3.762022 z m 44.593201,0 h 8.184844 c 5.728387,0 8.342287,3.383195 8.342287,7.535971 0,4.116134 -2.77287,7.340359 -8.843254,7.340359 h -3.921853 v 11.336149 h -3.762024 z m 23.096961,0.367375 c 1.8321,0.06107 3.18824,1.489064 3.13939,3.199031 -0.0489,1.758822 -1.50319,3.090441 -3.32309,3.041585 -1.80768,-0.04886 -3.2121,-1.478378 -3.16324,-3.237201 0.0489,-1.72218 1.53925,-3.052271 3.34694,-3.003415 z m -0.0239,0.646486 c -1.40462,-0.04886 -2.46791,1.027125 -2.51677,2.395098 -0.0366,1.380188 0.96606,2.503689 2.3951,2.552546 1.39241,0.03664 2.44195,-1.027412 2.47859,-2.383171 0.0366,-1.380188 -0.9401,-2.527831 -2.35692,-2.564473 z m -0.0358,0.88027 c 0.59849,0.01221 0.86558,0.1209 1.08543,0.255254 0.171,0.134355 0.29342,0.391518 0.29342,0.684655 -0.0122,0.341994 -0.29409,0.598871 -0.67273,0.696582 v 0.03578 c 0.30535,0.12214 0.47778,0.355257 0.55106,0.770535 0.0855,0.476348 0.13427,0.657937 0.20756,0.780077 l -0.79439,-0.02386 c -0.0977,-0.109927 -0.14591,-0.402014 -0.23141,-0.756221 -0.0488,-0.341993 -0.23149,-0.500681 -0.63455,-0.512895 l -0.34352,-0.01193 -0.0477,1.269117 -0.73237,-0.02386 0.0978,-3.103608 c 0.29313,-0.04886 0.6962,-0.07185 1.2214,-0.05964 z m -0.0859,0.53675 c -0.19542,0 -0.32987,0.01164 -0.40316,0.02386 l -0.0262,0.88027 0.34352,0.01193 c 0.40306,0.01221 0.73208,-0.109449 0.7443,-0.427015 0.0122,-0.280922 -0.19429,-0.476825 -0.65842,-0.489039 z m -19.189407,0.951837 v 8.110892 h 4.262988 c 2.809231,0 4.616051,-1.501279 4.616051,-4.115085 0,-1.917606 -1.036286,-3.995807 -4.456219,-3.995807 z" />
</svg>