<?xml version="1.0" encoding="UTF-8" standalone="no"?>
<!DOCTYPE svg PUBLIC "-//W3C//DTD SVG 1.1//EN" "http://www.w3.org/Graphics/SVG/1.1/DTD/svg11.dtd">
<svg width="100%" height="100%" viewBox="0 0 400 400" version="1.1" xmlns="http://www.w3.org/2000/svg" xmlns:xlink="http://www.w3.org/1999/xlink" xml:space="preserve" xmlns:serif="http://www.serif.com/" style="fill-rule:evenodd;clip-rule:evenodd;stroke-linejoin:round;stroke-miterlimit:2;">
    <g id="svgg">
        <path id="path0" d="M20.877,171.91C-15.439,190.326 7.26,244.616 46.697,233.662C55.01,231.353 59.594,227.181 57.108,224.186C55.321,222.033 54.568,222.102 49.035,224.925C36.611,231.263 18.851,226.152 12.913,214.529C0.651,190.528 25.387,165.566 49.156,177.955C55.165,181.087 55.417,181.101 56.866,178.394C61.774,169.223 35.509,164.491 20.877,171.91M134.831,176.73C134.831,179.458 136.066,179.709 151.417,180.101L168.003,180.524L151.947,205.243C130.522,238.229 130.15,235.206 155.631,235.206C175.78,235.206 176.779,235.064 176.779,232.21C176.779,229.396 175.78,229.213 160.375,229.213L143.97,229.213L160.375,203.493C181.001,171.153 181.405,173.783 155.805,173.783C135.947,173.783 134.831,173.939 134.831,176.73M255.056,174.687C253.648,175.321 253.184,235.572 253.184,235.572L266.318,234.945C276.682,234.449 280.867,233.537 286.15,230.623C305.437,219.983 305.751,186.629 286.651,177.492C280.976,174.778 259.154,172.84 255.056,174.687M282.526,182.232C304.888,192.613 292.898,230.371 267.702,228.914L259.925,228.464L259.512,204.835C259.019,176.593 262.666,173.012 282.526,182.232M344.974,192.814C331.937,195.332 333.553,209.518 347.646,216.28C359.733,222.079 356.301,231.859 342.806,230.069C335.508,229.101 332.113,232.057 337.95,234.297C358.977,242.366 369.681,219.784 349.206,210.551C338.183,205.581 339.794,197.071 351.58,198.009C359.08,198.605 361.725,195.509 355.679,193.21C351.778,191.727 350.788,191.691 344.974,192.814M64.419,196.255C64.419,198.252 65.418,199.251 67.416,199.251C69.413,199.251 70.412,198.252 70.412,196.255C70.412,194.257 69.413,193.258 67.416,193.258C65.418,193.258 64.419,194.257 64.419,196.255M74.906,196.255C74.906,198.752 75.905,199.251 80.899,199.251L86.891,199.251L86.891,235.206L94.382,235.206L94.382,217.228C94.382,202.247 94.757,199.251 96.629,199.251C99.338,199.251 99.525,197.503 97.079,195.056C93.716,191.693 74.906,192.71 74.906,196.255M101.873,194.09C101.873,194.547 104.569,198.892 107.865,203.745C113.549,212.115 113.858,213.153 113.858,223.888C113.858,234.962 113.938,235.206 117.603,235.206C121.252,235.206 121.349,234.928 121.363,224.345C121.376,214.262 121.805,212.808 127.355,204.06C134.41,192.939 134.343,193.258 129.633,193.258C126.886,193.258 125.052,194.8 122.517,199.239C118.306,206.613 118.211,206.613 113.109,199.251C109.517,194.069 101.873,190.557 101.873,194.09M181.273,214.232L181.273,235.206L193.258,235.206C202.913,235.206 205.243,234.769 205.243,232.959C205.243,231.211 203.246,230.712 196.255,230.712L187.266,230.712L187.266,215.73L195.506,215.73C207.004,215.73 207.327,211.599 195.88,210.94L188.015,210.487L187.094,197.753L196.169,197.753C203.236,197.753 205.243,197.256 205.243,195.506C205.243,193.695 202.913,193.258 193.258,193.258L181.273,193.258L181.273,214.232M212.734,214.128C212.734,231.865 213.09,235.206 214.981,235.206C216.836,235.206 217.228,232.459 217.228,219.476C217.228,204.894 218.53,200.165 220.868,206.257C223.855,214.041 238.861,235.206 241.393,235.206C243.996,235.206 244.195,233.721 244.195,214.232C244.195,193.873 244.102,193.258 241.024,193.258C237.967,193.258 237.875,193.793 238.455,208.24C239.187,226.448 239.535,226.437 228.384,208.553C214.568,186.394 212.734,187.047 212.734,214.128M307.116,235.206L319.101,235.206C334.713,235.206 336.938,231.133 321.723,230.409L312.36,229.963L312.36,216.479L320.225,216.027C325.739,215.709 328.09,214.949 328.09,213.483C328.09,212.017 325.739,211.257 320.225,210.94L312.36,210.487L312.36,198.502L320.974,198.053C335.05,197.318 332.83,193.258 318.352,193.258L307.116,193.258M367.041,214.232C367.041,234.207 367.184,235.206 370.037,235.206C372.662,235.206 373.034,234.207 373.034,227.15C373.034,220.157 376.056,213.416 378.081,215.891C378.346,216.215 381.388,220.693 384.843,225.843C388.982,232.015 392.125,235.206 394.063,235.206C398.067,235.206 398.022,235.081 389.44,222.364L381.876,211.155L384.799,207.075C386.407,204.832 389.473,201.362 391.614,199.364C396.266,195.023 396.539,193.258 392.558,193.258C390.763,193.258 386.808,196.734 382.446,202.143C373.489,213.25 373.034,213.255 373.034,202.247C373.034,194.257 372.701,193.258 370.037,193.258C367.184,193.258 367.041,194.257 367.041,214.232M64.419,220.974C64.419,234.207 64.63,235.206 67.416,235.206C70.202,235.206 70.412,234.207 70.412,220.974C70.412,207.74 70.202,206.742 67.416,206.742C64.63,206.742 64.419,207.74 64.419,220.974"/>
    </g>
</svg>
