<svg id="svg" version="1.1" width="400" height="400" xmlns="http://www.w3.org/2000/svg" xmlns:xlink="http://www.w3.org/1999/xlink" style="display: block;"><g id="svgg"><path id="path0" d="M146.081 2.023 C 144.200 3.072,142.400 4.290,142.081 4.730 C 141.761 5.170,139.593 6.423,137.261 7.515 C 134.930 8.607,133.018 9.831,133.011 10.237 C 133.005 10.642,131.425 11.631,129.500 12.436 C 127.575 13.240,126.000 14.279,126.000 14.744 C 126.000 15.209,123.975 16.425,121.500 17.446 C 119.025 18.466,117.000 19.662,117.000 20.104 C 117.000 20.545,115.327 21.700,113.283 22.670 C 111.239 23.640,108.764 25.236,107.783 26.217 C 106.802 27.198,105.347 28.000,104.550 28.000 C 103.752 28.000,102.740 28.567,102.300 29.260 C 101.860 29.953,99.700 31.415,97.500 32.510 C 95.300 33.604,93.140 35.063,92.700 35.750 C 92.260 36.437,91.333 37.000,90.639 37.000 C 89.945 37.000,88.505 37.802,87.439 38.783 C 86.372 39.763,83.813 41.359,81.750 42.330 C 79.687 43.300,78.000 44.455,78.000 44.896 C 78.000 45.338,75.975 46.534,73.500 47.554 C 71.025 48.575,69.000 49.791,69.000 50.256 C 69.000 50.721,67.425 51.760,65.500 52.564 C 63.575 53.369,61.995 54.358,61.989 54.763 C 61.982 55.169,60.182 56.360,57.989 57.411 C 55.795 58.462,54.000 59.613,54.000 59.968 C 54.000 60.324,52.200 61.409,50.000 62.380 C 47.800 63.351,46.000 64.513,46.000 64.964 C 46.000 65.414,44.200 66.503,42.000 67.383 C 39.800 68.264,38.000 69.407,38.000 69.925 C 38.000 70.442,37.175 71.127,36.166 71.447 C 34.445 71.993,30.919 90.567,30.983 98.750 C 30.992 99.987,30.626 101.000,30.168 101.000 C 29.711 101.000,28.512 107.638,27.505 115.750 C 26.497 123.862,25.357 130.725,24.971 131.000 C 24.585 131.275,23.443 138.250,22.433 146.500 C 21.424 154.750,20.282 161.725,19.896 162.000 C 19.510 162.275,18.382 169.025,17.390 177.000 C 16.398 184.975,15.288 191.725,14.923 192.000 C 14.558 192.275,13.443 199.025,12.445 207.000 C 11.447 214.975,10.320 221.725,9.940 222.000 C 9.561 222.275,8.475 229.025,7.527 237.000 C 6.579 244.975,5.471 251.725,5.063 252.000 C 4.021 252.704,-0.000 284.291,-0.000 291.777 C -0.000 298.019,1.817 302.000,4.666 302.000 C 5.337 302.000,6.481 302.788,7.209 303.750 C 8.526 305.494,11.150 307.403,14.000 308.691 C 14.825 309.063,16.088 310.185,16.807 311.184 C 17.525 312.183,18.741 313.000,19.507 313.000 C 20.273 313.000,21.260 313.573,21.700 314.274 C 22.140 314.975,23.838 316.401,25.474 317.444 C 27.110 318.487,29.333 320.164,30.413 321.170 C 31.493 322.177,32.672 323.000,33.033 323.000 C 33.394 323.000,34.996 324.124,36.594 325.499 C 38.193 326.873,39.772 327.998,40.104 327.999 C 40.436 327.999,42.011 329.114,43.604 330.475 C 49.321 335.361,52.160 337.407,55.000 338.691 C 55.825 339.063,57.088 340.185,57.807 341.184 C 58.525 342.183,59.777 343.000,60.588 343.000 C 61.399 343.000,62.305 343.631,62.601 344.401 C 62.896 345.172,63.895 346.059,64.819 346.372 C 67.369 347.236,70.318 349.299,71.791 351.250 C 72.519 352.212,73.741 353.000,74.507 353.000 C 75.273 353.000,76.260 353.573,76.700 354.274 C 77.140 354.975,78.838 356.401,80.474 357.444 C 82.110 358.487,84.333 360.164,85.413 361.170 C 86.493 362.177,87.672 363.000,88.033 363.000 C 88.394 363.000,89.996 364.124,91.594 365.499 C 93.193 366.873,94.772 367.998,95.104 367.999 C 95.436 367.999,97.011 369.114,98.604 370.475 C 104.321 375.361,107.160 377.407,110.000 378.691 C 110.825 379.063,112.088 380.185,112.807 381.184 C 113.525 382.183,114.741 383.000,115.507 383.000 C 116.273 383.000,117.260 383.562,117.700 384.250 C 118.624 385.694,121.745 387.802,124.181 388.628 C 125.105 388.941,126.104 389.828,126.399 390.599 C 127.647 393.850,131.356 391.794,140.108 383.000 C 145.034 378.050,149.388 373.999,149.783 373.999 C 150.177 373.998,153.788 370.623,157.807 366.499 C 161.826 362.374,165.538 359.000,166.057 359.000 C 166.576 359.000,167.000 358.580,167.000 358.067 C 167.000 357.554,167.900 356.849,169.000 356.500 C 170.100 356.151,171.000 355.221,171.000 354.433 C 171.000 353.645,171.393 353.000,171.872 353.000 C 172.352 353.000,174.940 350.762,177.622 348.026 C 182.894 342.650,185.323 341.866,187.000 345.000 C 187.589 346.100,188.704 347.000,189.478 347.000 C 190.253 347.000,191.475 347.817,192.193 348.816 C 192.912 349.815,194.175 350.937,195.000 351.309 C 197.850 352.597,200.474 354.506,201.791 356.250 C 202.519 357.212,203.711 358.000,204.442 358.000 C 205.172 358.000,206.507 359.125,207.408 360.500 C 208.309 361.875,209.695 363.000,210.488 363.000 C 211.281 363.000,212.411 363.900,213.000 365.000 C 213.589 366.100,214.704 367.000,215.478 367.000 C 216.253 367.000,217.481 367.787,218.209 368.750 C 219.526 370.494,222.150 372.403,225.000 373.691 C 225.825 374.063,227.088 375.185,227.807 376.184 C 228.525 377.183,229.708 378.000,230.435 378.000 C 231.161 378.000,232.373 378.912,233.128 380.027 C 234.083 381.437,236.478 382.409,241.000 383.221 C 244.575 383.864,247.725 384.707,248.000 385.095 C 248.275 385.483,253.450 386.573,259.500 387.518 C 265.550 388.463,270.725 389.554,271.000 389.943 C 271.275 390.333,276.225 391.466,282.000 392.462 C 287.775 393.458,292.725 394.575,293.000 394.944 C 293.987 396.271,320.676 400.026,329.028 400.013 C 338.697 399.998,339.552 399.477,341.968 392.118 C 342.760 389.707,343.905 387.232,344.513 386.618 C 345.122 386.003,346.409 383.076,347.375 380.114 C 348.340 377.151,349.719 374.139,350.438 373.419 C 351.158 372.699,352.352 370.061,353.092 367.555 C 353.831 365.050,354.727 363.000,355.082 363.000 C 355.438 363.000,356.536 360.863,357.522 358.250 C 358.509 355.637,359.602 353.275,359.950 353.000 C 360.299 352.725,361.219 350.528,361.996 348.118 C 362.772 345.707,363.921 343.222,364.548 342.595 C 365.175 341.968,366.470 339.102,367.425 336.227 C 368.379 333.352,369.526 331.000,369.972 331.000 C 370.419 331.000,371.593 328.300,372.581 325.000 C 373.570 321.700,374.698 319.000,375.089 319.000 C 375.479 319.000,376.608 316.750,377.597 314.000 C 378.586 311.250,379.663 309.000,379.990 309.000 C 380.318 309.000,381.427 306.525,382.455 303.500 C 383.484 300.475,384.670 298.000,385.091 298.000 C 385.513 298.000,386.578 295.525,387.457 292.500 C 388.336 289.475,389.432 287.000,389.891 287.000 C 390.350 287.000,391.496 284.551,392.438 281.558 C 393.379 278.566,394.470 275.978,394.862 275.808 C 398.287 274.327,401.653 256.000,398.500 256.000 C 397.675 256.000,397.000 255.650,397.000 255.222 C 397.000 254.453,386.529 251.000,384.201 251.000 C 383.540 251.000,383.000 250.650,383.000 250.222 C 383.000 249.453,372.529 246.000,370.201 246.000 C 369.540 246.000,369.000 245.598,369.000 245.108 C 369.000 244.617,365.743 243.417,361.763 242.442 C 357.782 241.466,354.008 240.151,353.376 239.519 C 352.743 238.886,349.700 237.804,346.613 237.113 C 343.526 236.422,341.000 235.439,341.000 234.928 C 341.000 234.418,340.377 234.000,339.615 234.000 C 337.216 234.000,327.533 230.646,326.765 229.549 C 326.361 228.972,326.024 223.538,326.015 217.473 C 325.999 205.544,326.349 204.504,332.428 198.432 C 334.118 196.744,336.175 194.049,337.000 192.444 C 337.825 190.838,340.413 187.595,342.750 185.236 C 345.087 182.877,347.000 180.617,347.000 180.213 C 347.000 179.809,348.566 177.683,350.481 175.489 C 352.395 173.295,353.970 171.115,353.981 170.644 C 353.991 170.173,355.125 168.903,356.500 167.821 C 357.875 166.740,359.000 165.453,359.000 164.963 C 359.000 164.472,359.932 163.042,361.070 161.785 C 368.663 153.404,370.718 150.894,372.447 147.886 C 373.518 146.024,375.430 143.680,376.697 142.677 C 377.964 141.675,379.000 140.458,379.000 139.973 C 379.000 139.488,380.012 138.022,381.250 136.715 C 382.488 135.408,384.625 132.878,386.000 131.093 C 387.375 129.309,389.512 126.645,390.749 125.174 C 391.986 123.703,392.998 121.857,392.999 121.071 C 393.001 118.926,390.703 113.000,389.870 113.000 C 389.470 113.000,388.422 110.525,387.543 107.500 C 386.664 104.475,385.596 102.000,385.170 102.000 C 384.744 102.000,383.586 99.750,382.597 97.000 C 381.608 94.250,380.483 92.000,380.097 92.000 C 379.711 92.000,378.586 89.750,377.597 87.000 C 376.608 84.250,375.483 82.000,375.097 82.000 C 374.711 82.000,373.586 79.750,372.597 77.000 C 371.608 74.250,370.483 72.000,370.097 72.000 C 369.711 72.000,368.586 69.750,367.597 67.000 C 366.608 64.250,365.483 62.000,365.097 62.000 C 364.711 62.000,363.586 59.750,362.597 57.000 C 361.608 54.250,360.483 52.000,360.097 52.000 C 359.711 52.000,358.586 49.750,357.597 47.000 C 356.608 44.250,355.483 42.000,355.097 42.000 C 354.711 42.000,353.586 39.750,352.597 37.000 C 351.608 34.250,350.483 32.000,350.097 32.000 C 349.711 32.000,348.586 29.750,347.597 27.000 C 346.608 24.250,345.466 22.000,345.058 22.000 C 344.650 22.000,343.777 20.200,343.118 18.000 C 342.056 14.455,338.000 11.902,338.000 14.778 C 338.000 15.206,335.300 16.358,332.000 17.338 C 328.700 18.318,326.000 19.448,326.000 19.851 C 326.000 20.253,322.850 21.445,319.000 22.500 C 315.150 23.555,312.000 24.702,312.000 25.050 C 312.000 25.399,309.188 26.526,305.750 27.556 C 302.313 28.586,298.946 29.966,298.270 30.623 C 297.593 31.280,295.222 32.125,293.000 32.500 C 290.778 32.875,288.407 33.735,287.730 34.410 C 287.054 35.085,283.688 36.479,280.250 37.508 C 276.813 38.537,274.000 39.677,274.000 40.041 C 274.000 40.405,271.075 41.495,267.500 42.463 C 263.925 43.430,261.000 44.550,261.000 44.951 C 261.000 45.351,258.075 46.515,254.500 47.538 C 250.925 48.560,248.000 49.705,248.000 50.082 C 248.000 51.338,242.904 51.761,241.694 50.604 C 241.037 49.978,238.588 48.617,236.250 47.580 C 233.912 46.544,231.996 45.427,231.991 45.098 C 231.985 44.769,229.960 43.612,227.491 42.526 C 225.021 41.440,223.000 40.271,223.000 39.928 C 223.000 39.585,221.088 38.454,218.750 37.415 C 216.412 36.376,213.628 34.733,212.561 33.763 C 211.495 32.793,210.102 32.000,209.464 32.000 C 208.827 32.000,207.291 31.120,206.050 30.044 C 204.810 28.968,202.306 27.596,200.486 26.995 C 198.666 26.395,196.960 25.338,196.695 24.647 C 196.430 23.956,194.365 22.780,192.106 22.035 C 189.848 21.290,188.000 20.308,188.000 19.853 C 188.000 19.399,186.425 18.369,184.500 17.564 C 182.575 16.760,181.000 15.701,181.000 15.211 C 181.000 14.721,179.178 13.719,176.951 12.984 C 174.724 12.249,172.587 11.164,172.201 10.574 C 171.815 9.983,169.700 8.604,167.500 7.510 C 165.300 6.415,163.275 5.235,163.000 4.888 C 159.916 0.993,150.718 -0.565,146.081 2.023 M323.000 201.000 L 323.000 324.000 200.000 324.000 L 77.000 324.000 77.000 201.000 L 77.000 78.000 200.000 78.000 L 323.000 78.000 323.000 201.000 M137.521 108.173 C 134.782 108.696,132.307 109.452,132.021 109.854 C 131.734 110.255,129.565 111.207,127.199 111.969 C 124.834 112.731,121.952 114.174,120.796 115.177 C 119.640 116.180,118.377 117.000,117.990 117.000 C 117.073 117.000,107.000 127.070,107.000 127.987 C 107.000 128.373,105.875 129.996,104.500 131.594 C 103.125 133.193,101.725 135.963,101.389 137.750 C 101.053 139.537,100.415 141.000,99.972 141.000 C 96.205 141.000,96.170 180.230,99.934 183.000 C 100.308 183.275,101.220 185.075,101.961 187.000 C 102.702 188.925,103.808 190.950,104.418 191.500 C 105.028 192.050,106.342 193.772,107.337 195.327 C 110.199 199.797,113.249 203.000,114.645 203.000 C 115.352 203.000,116.411 203.900,117.000 205.000 C 117.589 206.100,118.645 207.000,119.347 207.000 C 120.049 207.000,121.566 207.879,122.718 208.952 C 123.871 210.026,127.893 211.713,131.657 212.701 C 135.421 213.690,138.650 214.836,138.833 215.249 C 139.349 216.412,163.000 216.168,163.000 215.000 C 163.000 214.450,164.043 214.000,165.318 214.000 C 168.378 214.000,178.000 211.121,178.000 210.205 C 178.000 209.811,179.302 208.912,180.894 208.207 C 185.946 205.971,194.009 198.507,193.983 196.092 C 193.956 193.618,180.689 181.000,178.115 181.000 C 176.902 181.000,174.892 182.012,173.649 183.250 C 172.406 184.488,169.614 186.400,167.444 187.500 C 165.275 188.600,163.179 189.950,162.787 190.500 C 161.785 191.905,142.123 191.800,141.215 190.385 C 140.822 189.771,139.495 188.956,138.267 188.573 C 134.972 187.545,128.622 181.014,127.015 177.000 C 126.244 175.075,125.138 173.179,124.557 172.786 C 122.610 171.472,123.207 150.650,125.250 148.607 C 126.213 147.645,127.002 146.327,127.004 145.679 C 127.009 143.970,134.020 136.000,135.518 136.000 C 136.215 136.000,137.012 135.410,137.289 134.689 C 139.265 129.540,162.372 130.229,167.740 135.597 C 168.511 136.369,169.538 137.000,170.020 137.000 C 170.502 137.000,172.111 138.125,173.595 139.500 C 177.107 142.755,183.000 141.173,183.000 136.975 C 183.000 136.618,185.250 134.016,188.000 131.193 C 194.678 124.338,194.477 121.575,187.000 117.437 C 185.075 116.372,183.185 115.017,182.799 114.426 C 182.413 113.836,180.163 112.729,177.799 111.968 C 175.435 111.207,173.265 110.254,172.977 109.850 C 171.234 107.406,147.444 106.281,137.521 108.173 M207.000 161.000 L 207.000 214.000 242.000 214.000 L 277.000 214.000 277.000 203.000 L 277.000 192.000 254.500 192.000 L 232.000 192.000 232.000 150.000 L 232.000 108.000 219.500 108.000 L 207.000 108.000 207.000 161.000 M98.000 287.000 L 98.000 296.000 146.000 296.000 L 194.000 296.000 194.000 287.000 L 194.000 278.000 146.000 278.000 L 98.000 278.000 98.000 287.000 " stroke="none" fill="#000000" fill-rule="evenodd"></path></g></svg>