<?xml version="1.0" encoding="UTF-8" standalone="no"?>
<!DOCTYPE svg PUBLIC "-//W3C//DTD SVG 1.1//EN" "http://www.w3.org/Graphics/SVG/1.1/DTD/svg11.dtd">
<svg width="100%" height="100%" viewBox="0 0 400 400" version="1.1" xmlns="http://www.w3.org/2000/svg" xmlns:xlink="http://www.w3.org/1999/xlink" xml:space="preserve" xmlns:serif="http://www.serif.com/" style="fill-rule:evenodd;clip-rule:evenodd;stroke-linejoin:round;stroke-miterlimit:2;">
    <g id="svgg" transform="matrix(1,0,0,1,0.323185,3.19302)">
        <path id="path0" d="M357,145.6L399.8,145.6L399.8,102.8L357,102.8M71.6,156.337C25.788,158.433 2.262,178.806 0.169,218.196C-1.696,253.291 14.401,276.447 46.192,284.403C58.856,287.572 132.6,288 132.6,288L132.6,246.611C132.6,246.611 67.147,246.442 65.885,246.155C57.087,244.156 51.395,238.664 49.038,229.9C48.283,227.091 48.222,217.332 48.944,214.765C50.966,207.577 56.178,202.03 63.092,199.709C66.193,198.668 132.6,198.59 132.6,198.59L132.6,156.2C132.6,156.2 72.315,156.304 71.6,156.337M143.45,222.038L143.5,287.9L185.999,288.002L186.1,213.796C186.1,213.796 220.162,251.998 226.593,259.202C243.055,277.643 244.976,279.402 253.108,283.48C261.112,287.493 264.799,287.99 286.65,287.996L300,288L300,241.599L357.1,241.7L357.202,288.002L399.5,287.9L399.601,156.2L357.2,156.2L357.2,200.2L300,200.2L300,156.2L257.4,156.2C257.4,156.2 257.332,231.995 257.25,231.988C257.168,231.981 225.782,194.243 209.013,174.6C199.145,163.04 193.958,159.279 185.3,157.409C180.37,156.343 143.399,156.177 143.399,156.177L143.45,222.038"/>
    </g>
</svg>
