<svg
   xmlns="http://www.w3.org/2000/svg"
   version="1.1"
   viewBox="0 0 250 250">
  <path
     style="stroke-width:5.69979525"
     d="M 219.04662,44.632885 C 237.85595,66.292107 248.68556,94.221106 248.68556,125 c 0,23.36916 -6.26977,45.02838 -17.66936,63.83771 0,-2.27992 0,-3.98986 0,-6.26978 0,-52.43812 -26.21907,-78.65717 -63.26773,-78.65717 -17.66937,0 -37.04867,6.83975 -46.16835,23.93913 l -0.56998,-0.56997 10.25964,-82.647035 z M 1.3144403,125 C 1.3144403,56.602456 56.60246,1.3144404 125,1.3144404 c 27.929,0 54.14805,9.1196726 74.66732,25.0790996 h -84.35698 l -13.6795,121.97562 h 20.51927 c 6.83975,-19.3793 23.36916,-27.35902 41.03852,-27.35902 31.91886,0 46.73832,25.64908 46.73832,58.13791 0,17.66938 -2.8499,31.91886 -7.97971,43.31845 -14.81947,11.39959 -31.91886,19.94929 -50.72818,23.93914 -21.08925,-5.12982 -32.48884,-23.93914 -32.48884,-46.73832 H 97.070999 c 0,21.65922 6.839761,38.18863 18.809331,49.01824 C 51.472636,243.55574 1.3144403,189.97766 1.3144403,125 Z" />
</svg>
