<svg
   xmlns="http://www.w3.org/2000/svg"
  
   version="1.1"
   width="1063"
   height="1063">
  <g
    
     transform="matrix(2.7328429,0,0,2.7328429,-14.508347,-13.543769)">
    <path
      
       d="m 116.932,56.557 -82.691,48.167 0.095,95.569 0.095,95.569 82.408,47.36 c 45.325,26.047 82.716,47.32 83.093,47.271 0.376,-0.049 37.749,-21.424 83.051,-47.501 l 82.366,-47.413 -0.078,-95.695 -0.078,-95.694 -80.527,-46.669 C 240.376,31.853 203.123,10.298 201.881,9.621 l -2.257,-1.23 -82.692,48.166 m 58.14,39.499 25.119,14.491 25.224,-14.635 25.225,-14.634 28.996,16.805 c 24.131,13.985 28.88,16.869 28.302,17.187 -0.382,0.211 -24.74,14.272 -54.128,31.248 -29.389,16.976 -53.775,30.874 -54.193,30.885 -1.818,0.047 -108.715,-61.996 -107.828,-62.584 3.213,-2.134 57.49,-33.491 57.788,-33.386 0.207,0.073 11.68,6.654 25.495,14.623 m 152.674,87.105 -0.006,35.654 -24.736,14.322 -24.735,14.321 -0.096,27.453 -0.097,27.453 -29.875,17.21 c -16.431,9.465 -29.977,17.209 -30.102,17.209 -0.125,0 -0.184,-28.398 -0.132,-63.106 l 0.095,-63.105 54.563,-31.52 c 30.009,-17.337 54.689,-31.526 54.844,-31.533 0.156,-0.006 0.28,16.032 0.277,35.642 m -199.12,-2.743 51.619,29.713 v 62.981 c 0,38.788 -0.135,62.933 -0.351,62.855 -0.193,-0.069 -13.483,-7.66 -29.532,-16.87 l -29.181,-16.745 -0.007,-26.741 -0.007,-26.74 -24.644,-14.276 -24.643,-14.275 -0.004,-36.247 -0.004,-36.247 2.567,1.44 c 1.412,0.792 25.796,14.81 54.187,31.152"
       style="fill-rule:evenodd;stroke:none" />
  </g>
</svg>
