<svg id="svg" version="1.1" width="400" height="400" xmlns="http://www.w3.org/2000/svg" xmlns:xlink="http://www.w3.org/1999/xlink" style="display: block;"><g id="svgg"><path id="path0" d="M184.105 3.139 C 181.763 6.100,181.739 6.326,183.023 13.334 C 185.918 29.130,183.133 49.516,176.749 59.260 C 175.787 60.728,175.000 62.229,175.000 62.595 C 175.000 62.962,173.425 65.453,171.500 68.133 C 169.575 70.812,168.000 73.200,168.000 73.438 C 168.000 75.420,136.233 107.000,134.239 107.000 C 133.959 107.000,132.751 108.013,131.556 109.250 C 130.360 110.487,128.058 112.583,126.441 113.907 C 123.593 116.237,112.017 126.328,105.128 132.486 C 95.683 140.928,81.960 155.290,74.539 164.500 C 71.880 167.800,69.433 170.725,69.102 171.000 C 68.771 171.275,68.050 172.211,67.500 173.081 C 66.950 173.951,64.700 177.278,62.500 180.476 C 56.762 188.816,53.111 195.053,47.114 206.759 C 32.148 235.971,28.622 271.325,37.169 306.500 C 39.489 316.050,39.977 317.763,41.726 322.500 C 45.666 333.167,54.649 349.184,60.000 355.085 C 74.271 370.822,85.689 379.734,101.000 387.087 C 103.475 388.276,106.679 389.859,108.121 390.604 C 122.340 397.962,144.863 402.019,148.595 397.895 C 153.415 392.569,151.660 388.681,138.485 375.500 C 131.888 368.900,124.929 361.475,123.021 359.000 C 121.113 356.525,119.315 354.275,119.026 354.000 C 116.323 351.430,111.333 339.773,109.979 332.864 C 107.536 320.399,113.738 300.968,124.412 287.647 L 127.500 283.793 128.567 290.147 C 130.079 299.158,137.903 310.926,142.421 310.988 C 142.928 310.994,144.053 311.597,144.921 312.327 C 157.652 323.028,187.431 316.201,194.647 300.927 C 199.280 291.121,200.000 288.020,200.000 277.880 C 200.000 267.387,199.766 266.476,194.154 255.168 C 193.244 253.335,187.993 247.259,182.484 241.666 C 168.826 227.799,164.752 215.880,169.343 203.214 L 170.534 199.928 177.017 206.957 C 180.583 210.823,183.885 213.989,184.356 213.993 C 185.092 213.999,187.151 215.483,192.708 220.015 C 193.372 220.557,194.140 221.000,194.413 221.000 C 194.920 221.000,201.679 225.304,203.500 226.786 C 204.050 227.233,206.522 228.702,208.994 230.050 C 211.466 231.397,213.941 232.844,214.494 233.264 C 217.475 235.529,223.204 239.000,223.961 239.000 C 224.441 239.000,224.983 239.337,225.167 239.750 C 225.618 240.765,232.681 246.000,233.599 246.000 C 234.002 246.000,235.045 246.693,235.916 247.539 C 236.787 248.386,239.991 250.974,243.035 253.289 C 259.624 265.908,273.376 280.948,279.207 292.848 C 282.427 299.418,282.465 299.667,282.334 313.000 C 282.037 343.169,271.597 360.335,241.000 380.969 C 232.848 386.466,231.049 391.442,235.188 397.040 C 238.717 401.814,249.130 400.855,264.651 394.326 C 266.384 393.597,268.348 393.000,269.015 393.000 C 269.682 393.000,271.864 392.174,273.864 391.165 C 275.864 390.156,279.750 388.196,282.500 386.810 C 290.105 382.978,299.439 377.751,300.000 377.010 C 300.275 376.647,301.962 375.499,303.750 374.459 C 305.538 373.419,307.000 372.216,307.000 371.784 C 307.000 371.353,307.563 370.990,308.250 370.978 C 311.674 370.917,343.000 340.200,343.000 336.904 C 343.000 336.407,343.420 336.000,343.933 336.000 C 344.446 336.000,345.126 335.179,345.444 334.176 C 345.762 333.173,346.805 331.483,347.761 330.421 C 349.420 328.577,352.686 322.971,355.871 316.500 C 356.683 314.850,357.902 312.375,358.580 311.000 C 373.527 280.700,369.728 235.847,349.645 205.500 C 341.682 193.467,321.733 171.000,319.011 171.000 C 318.572 171.000,317.955 170.325,317.638 169.500 C 317.322 168.675,316.374 168.000,315.531 168.000 C 314.689 168.000,314.000 167.622,314.000 167.160 C 314.000 166.325,302.488 157.000,301.456 157.000 C 301.159 157.000,300.372 156.557,299.708 156.015 C 294.202 151.525,292.101 150.000,291.420 150.000 C 290.985 150.000,289.700 149.157,288.564 148.126 C 277.639 138.209,266.117 139.492,266.032 150.636 C 265.896 168.261,240.798 171.076,235.134 154.101 C 232.860 147.285,234.011 137.831,239.652 117.000 C 242.273 107.319,242.485 105.213,242.374 90.000 C 242.119 55.016,235.235 39.591,207.004 10.750 L 196.482 -0.000 191.491 0.055 C 187.162 0.103,186.182 0.512,184.105 3.139 " stroke="none" fill="#000000" fill-rule="evenodd"></path></g></svg>