<svg id="svg" version="1.1" width="400" height="400" xmlns="http://www.w3.org/2000/svg" xmlns:xlink="http://www.w3.org/1999/xlink" style="display: block;"><g id="svgg"><path id="path0" d="M32.670 127.663 C 32.302 128.032,32.000 160.660,32.000 200.170 L 32.000 272.007 173.750 271.753 L 315.500 271.500 315.500 199.500 L 315.500 127.500 174.420 127.247 C 96.826 127.107,33.039 127.295,32.670 127.663 M300.000 199.500 L 300.000 256.000 174.000 256.000 L 48.000 256.000 48.000 199.500 L 48.000 143.000 174.000 143.000 L 300.000 143.000 300.000 199.500 M212.956 181.706 C 212.891 220.225,211.830 225.721,204.034 227.962 C 195.503 230.414,190.764 224.384,190.815 211.136 C 190.865 197.880,193.209 194.294,202.514 193.245 L 207.000 192.740 207.000 185.870 L 207.000 179.000 200.149 179.000 C 179.393 179.000,171.121 194.412,175.820 224.332 C 178.253 239.825,194.532 247.770,208.861 240.458 C 210.972 239.381,212.460 239.114,212.861 239.742 C 213.835 241.267,225.865 241.868,227.041 240.450 C 227.657 239.708,227.925 223.867,227.761 197.884 L 227.500 156.500 220.250 156.206 L 213.000 155.912 212.956 181.706 M77.000 179.709 C 70.108 182.239,64.905 185.466,63.548 188.050 C 62.697 189.672,61.212 192.463,60.250 194.250 C 55.451 203.163,57.686 226.028,64.155 234.195 C 72.497 244.728,94.404 245.738,103.250 235.997 C 109.558 229.050,98.887 220.327,91.112 226.075 C 82.250 232.627,72.971 225.057,73.011 211.307 C 73.059 194.681,83.678 188.187,94.571 198.123 C 97.911 201.170,106.924 192.644,105.077 188.185 C 102.580 182.157,84.883 176.814,77.000 179.709 M132.000 179.891 C 115.780 185.328,108.159 205.618,114.938 225.319 C 123.062 248.933,156.217 249.357,165.107 225.960 C 175.062 199.761,155.195 172.116,132.000 179.891 M250.294 182.013 C 229.190 192.309,231.801 234.952,253.932 241.414 C 273.055 246.998,297.121 234.065,283.895 225.312 L 279.791 222.596 274.645 225.195 C 258.257 233.475,247.344 222.552,251.971 202.500 C 254.914 189.745,274.000 190.456,274.000 203.321 C 274.000 203.694,269.950 204.000,265.000 204.000 L 256.000 204.000 256.000 210.000 L 256.000 216.000 272.644 216.000 L 289.287 216.000 288.754 205.546 C 287.626 183.449,269.760 172.517,250.294 182.013 M143.316 194.122 C 156.858 201.080,154.142 228.333,139.907 228.333 C 126.616 228.333,123.679 199.965,136.396 194.429 C 140.248 192.753,140.618 192.736,143.316 194.122 M326.000 264.393 C 326.000 273.586,324.471 273.000,348.465 273.000 C 369.952 273.000,369.022 273.330,368.477 265.913 C 368.339 264.036,368.175 261.262,368.113 259.750 L 368.000 257.000 347.000 257.000 L 326.000 257.000 326.000 264.393 " stroke="none" fill="#000000" fill-rule="evenodd"></path></g></svg>