<?xml version="1.0" encoding="UTF-8" standalone="no"?>
<!DOCTYPE svg PUBLIC "-//W3C//DTD SVG 1.1//EN" "http://www.w3.org/Graphics/SVG/1.1/DTD/svg11.dtd">
<svg width="100%" height="100%" viewBox="0 0 400 400" version="1.1" xmlns="http://www.w3.org/2000/svg" xmlns:xlink="http://www.w3.org/1999/xlink" xml:space="preserve" xmlns:serif="http://www.serif.com/" style="fill-rule:evenodd;clip-rule:evenodd;stroke-linejoin:round;stroke-miterlimit:2;">
    <g id="svgg">
        <path id="path0" d="M150.8,0.4C150.8,1.539 148.605,1.064 147.6,1.6C145.397,2.775 2.774,99.2 1.2,99.2L0,99.2L2.4,296L4,296C6.146,296 157.494,397.927 158.916,398.4C168.109,401.458 181.301,401.277 187.6,392.8C190.496,388.904 191.962,382.378 192,380.4C192.417,358.411 199.437,265.495 191.255,243.2C191.032,242.592 191.3,246.301 190.435,245.2C190.43,245.194 189.257,240.007 189.255,240C188.511,237.836 187.028,235.655 186,233.6C180.799,223.197 170.947,217.431 161.6,211.2C158.45,209.1 155.555,206.904 152.4,204.8L149.2,203.2C149.2,202.007 151.408,202.262 152.4,201.6C155.555,199.496 158.45,197.3 161.6,195.2C172.497,187.936 183.036,180.455 190.8,169.6C193.421,165.936 194.485,160.367 196,156.2C204.09,133.953 204.626,28.852 192.2,4C188.411,-3.577 173.646,0 169.6,0C163.332,0 150.8,-5.868 150.8,0.4M210.4,0.4C210.4,0.8 206.839,3.341 206.4,4C204.267,7.199 201.685,12.598 201.6,16.4C200.539,63.999 200.527,106.401 201.6,154C201.668,157.025 204.25,162.1 205.6,164.8C211.092,175.785 221.217,186.334 232,192.247C237.012,194.995 241.464,198.301 246,201.6C246.964,202.301 249.2,202.007 249.2,203.2L246,204.8C243.546,206.584 241.24,208.98 238.4,210.4C229.434,214.883 219.55,222.157 214,230.516C198.387,254.032 205.885,359.725 206.4,382C206.564,389.077 213.738,397.707 220.476,399.156C239.281,403.201 252.325,390.583 266.4,381.2C292.927,363.515 392.555,296 394.4,296L396,296C396,296 396.271,143.663 396.8,113.2C396.818,112.155 399.41,111.284 399.6,110C400.133,106.4 400.133,104.4 399.6,100.8C399.374,99.274 396.262,98.662 395.2,97.6C390.426,92.826 382.816,89.744 377.2,86C355.348,71.432 333.376,56.918 311.6,42.4C295.953,31.968 280.439,21.626 264.8,11.2C260.239,8.159 253.445,0.631 247.6,0.4C241.403,0.155 235.201,0 229,0C222.799,0 210.4,-5.801 210.4,0.4M174.4,9.2C174.4,11.123 177.934,10.953 179.2,12.4C181.614,15.159 184.31,22.092 184.4,25.6C185.459,67.049 185.474,103.351 184.4,144.8C184.35,146.735 182.633,149.911 182,151.763C178.383,162.352 170.799,170.401 162,176.8C157.384,180.157 152.227,182.635 147.6,186C146.74,186.626 143.23,187.898 143.146,189.3L143.091,190.2L142.918,189.3C142.557,187.437 19.761,107.976 19.6,106.4C19.49,105.321 147.412,19.593 158.6,13.2C161.999,11.257 166.387,8.4 170.4,8.4C171.76,8.4 174.4,7.84 174.4,9.2M232,9.2C232,9.843 239.157,12.778 240,13.2C247.885,17.142 256.005,22.767 263.2,28C278.48,39.113 294.672,48.714 310.4,59.2C323.532,67.955 336.063,77.242 349.2,86C357.137,91.292 364.904,96.336 372.8,101.6C373.878,102.319 379.2,104.517 379.2,106.4C379.2,107.829 259.218,188.4 255.6,188.4C252.246,188.4 246.927,183.038 244.4,181.2C240.491,178.357 236.016,176.277 232,173.6C225.028,168.952 218.947,159.241 216.4,151.6C215.79,149.77 214.05,146.713 214,144.8C213.486,124.938 213.492,45.462 214,25.6C214.108,21.355 217.414,13.324 221.2,10.8C223.089,9.541 226.003,8.4 228.2,8.4C229.494,8.4 232,7.906 232,9.2M181.345,227C181.375,227.078 181.397,227.164 181.398,227.248C181.402,227.487 181.207,227.601 180.987,227.6C180.751,227.599 180.536,227.451 180.446,227.233C180.361,227.028 180.392,226.765 180.505,226.576C180.577,226.456 180.692,226.37 180.834,226.412C181.081,226.487 181.259,226.776 181.345,227M218,227C218,227.351 217.682,227.593 217.351,227.6C217.273,227.602 217.128,227.596 217.046,227.575C216.998,227.563 216.938,227.54 216.923,227.484C216.886,227.334 217.169,227.039 217.2,227C217.302,226.873 217.474,226.689 217.596,226.576C217.645,226.531 217.696,226.486 217.751,226.447C217.886,226.353 217.921,226.44 217.956,226.576C217.971,226.639 217.981,226.703 217.988,226.767C217.996,226.844 218,226.922 218,227M208.8,244.2C208.8,244.281 208.784,244.359 208.753,244.433C208.55,244.912 207.85,244.912 207.647,244.433C207.616,244.359 207.6,244.281 207.6,244.2C207.6,244.119 207.616,244.041 207.647,243.967C207.85,243.488 208.55,243.488 208.753,243.967C208.784,244.041 208.8,244.119 208.8,244.2M207.2,381.033C207.2,381.285 207.031,381.565 206.739,381.497C206.675,381.483 206.61,381.467 206.551,381.437C206.325,381.324 206.09,381.046 206.073,380.78C206.057,380.516 206.346,380.397 206.567,380.4C206.911,380.404 207.2,380.686 207.2,381.033"/>
    </g>
</svg>
