<svg id="svg" xmlns="http://www.w3.org/2000/svg" xmlns:xlink="http://www.w3.org/1999/xlink" width="400" height="400" viewBox="0, 0, 400,400"><g id="svgg"><path id="path0" d="M192.170 1.314 C 190.614 2.020,185.664 5.129,181.170 8.223 C 176.677 11.316,171.902 14.461,170.561 15.211 C 169.219 15.962,167.569 17.027,166.894 17.578 C 166.219 18.129,159.067 22.949,151.000 28.288 C 142.933 33.628,135.283 38.719,134.000 39.601 C 124.144 46.378,104.562 59.336,104.161 59.345 C 103.889 59.352,102.767 60.078,101.667 60.958 C 98.803 63.251,70.747 81.998,70.158 82.012 C 69.888 82.019,68.767 82.745,67.667 83.625 C 64.756 85.955,36.739 104.666,36.158 104.668 C 35.888 104.669,34.617 105.581,33.333 106.694 C 32.050 107.808,30.100 109.168,29.000 109.717 C 22.189 113.116,4.267 126.497,2.350 129.614 L 0.333 132.895 0.333 200.000 L 0.333 267.105 2.333 270.337 C 4.340 273.580,16.549 282.801,27.000 288.966 C 29.200 290.264,32.050 292.227,33.333 293.328 C 34.617 294.429,35.918 295.331,36.225 295.332 C 36.532 295.333,42.232 299.041,48.891 303.573 C 55.551 308.105,61.900 312.287,63.000 312.868 C 64.100 313.449,66.050 314.840,67.333 315.960 C 68.617 317.080,69.901 317.998,70.188 317.998 C 70.475 317.999,76.325 321.762,83.188 326.360 C 90.051 330.958,96.633 335.341,97.815 336.100 C 98.997 336.859,100.797 338.197,101.815 339.073 C 102.833 339.948,103.893 340.665,104.170 340.666 C 104.691 340.667,127.360 355.642,132.667 359.490 C 134.317 360.687,136.348 362.027,137.180 362.467 C 138.012 362.908,143.262 366.385,148.847 370.195 C 154.431 374.005,160.350 377.912,162.000 378.877 C 163.650 379.842,166.050 381.539,167.333 382.648 C 168.617 383.756,169.922 384.664,170.234 384.665 C 170.546 384.666,174.990 387.540,180.108 391.051 C 199.559 404.393,204.415 403.563,233.434 381.939 C 234.405 381.215,237.705 379.030,240.767 377.083 C 243.828 375.136,250.833 370.468,256.333 366.709 C 261.833 362.950,267.833 358.927,269.667 357.770 C 271.500 356.613,279.450 351.344,287.333 346.060 C 295.217 340.777,302.267 336.054,303.000 335.565 C 325.400 320.632,333.976 314.911,335.333 313.992 C 345.691 306.980,370.069 290.820,374.865 287.788 C 389.234 278.702,396.159 273.236,398.150 269.406 L 400.019 265.812 399.843 199.353 L 399.667 132.895 397.667 129.663 C 395.660 126.420,383.451 117.199,373.000 111.034 C 370.800 109.736,367.950 107.773,366.667 106.672 C 365.383 105.571,364.088 104.669,363.788 104.668 C 363.488 104.667,357.788 100.957,351.122 96.423 C 344.455 91.889,338.100 87.706,337.000 87.128 C 335.900 86.549,333.950 85.160,332.667 84.040 C 331.383 82.920,330.088 82.002,329.788 82.002 C 329.488 82.001,323.740 78.250,317.013 73.667 C 310.286 69.083,304.587 65.333,304.347 65.333 C 303.864 65.333,299.726 62.320,297.708 60.500 C 296.997 59.858,296.148 59.333,295.821 59.333 C 295.494 59.333,290.226 55.924,284.113 51.758 C 278.001 47.592,272.100 43.709,271.000 43.129 C 269.900 42.550,267.950 41.160,266.667 40.040 C 265.383 38.920,264.082 38.002,263.775 38.002 C 263.468 38.001,257.768 34.292,251.109 29.760 C 244.449 25.229,238.100 21.046,237.000 20.465 C 235.900 19.885,233.950 18.493,232.667 17.373 C 231.383 16.253,230.078 15.336,229.766 15.335 C 229.454 15.334,225.010 12.460,219.892 8.949 C 206.074 -0.530,199.948 -2.217,192.170 1.314 M181.991 90.500 L 181.983 129.000 176.825 132.314 C 173.988 134.137,164.248 140.662,155.181 146.814 C 146.114 152.966,138.529 158.000,138.324 158.000 C 138.120 158.000,131.357 162.505,123.296 168.011 L 108.639 178.022 101.392 173.011 C 97.406 170.255,93.965 168.000,93.745 168.000 C 93.525 168.000,86.367 163.249,77.839 157.442 C 69.311 151.635,61.583 146.495,60.667 146.020 C 59.750 145.545,57.117 143.825,54.816 142.199 L 50.632 139.241 69.933 126.344 C 80.548 119.251,90.081 112.860,91.117 112.144 C 92.153 111.427,105.900 102.269,121.667 91.792 C 137.433 81.315,152.514 71.226,155.180 69.371 C 157.845 67.517,160.186 66.000,160.380 66.000 C 160.574 66.000,165.374 62.850,171.047 59.000 C 176.719 55.150,181.504 52.000,181.680 52.000 C 181.856 52.000,181.996 69.325,181.991 90.500 M264.000 82.261 C 288.017 98.241,308.302 111.754,309.078 112.289 C 309.854 112.824,319.228 119.101,329.908 126.238 L 349.326 139.213 346.163 141.467 C 344.423 142.706,341.800 144.442,340.333 145.325 C 338.867 146.207,330.689 151.670,322.161 157.464 C 313.633 163.259,306.475 168.000,306.255 168.000 C 306.035 168.000,302.589 170.258,298.597 173.018 L 291.339 178.037 276.672 168.018 C 268.604 162.508,261.848 158.000,261.658 158.000 C 261.468 158.000,253.662 152.825,244.312 146.500 C 234.961 140.175,225.216 133.657,222.655 132.016 L 218.000 129.031 218.000 90.492 C 218.000 53.994,218.062 51.986,219.167 52.580 C 219.808 52.925,239.983 66.281,264.000 82.261 M202.810 163.000 C 204.159 163.917,205.436 164.667,205.649 164.667 C 205.861 164.667,213.248 169.542,222.064 175.500 C 230.879 181.458,242.571 189.312,248.046 192.953 C 253.521 196.594,258.000 199.765,258.000 200.000 C 258.000 200.411,246.599 208.261,240.141 212.296 C 238.414 213.376,230.864 218.435,223.363 223.539 C 201.912 238.136,200.315 239.026,198.128 237.593 C 197.141 236.946,195.632 236.052,194.776 235.607 C 193.919 235.163,186.269 230.113,177.776 224.386 C 169.282 218.659,157.833 210.971,152.333 207.302 C 146.833 203.632,142.333 200.346,142.333 200.000 C 142.333 199.654,146.833 196.368,152.333 192.698 C 157.833 189.029,169.282 181.341,177.776 175.614 C 186.269 169.887,193.990 164.801,194.933 164.312 C 195.876 163.823,197.319 162.952,198.139 162.378 C 200.037 161.048,199.913 161.032,202.810 163.000 M56.333 187.100 C 64.400 192.599,71.975 197.666,73.167 198.359 C 75.847 199.920,75.847 200.080,73.167 201.641 C 71.975 202.334,64.400 207.401,56.333 212.900 C 48.267 218.398,40.242 223.738,38.500 224.765 L 35.333 226.632 35.333 200.000 L 35.333 173.368 38.500 175.235 C 40.242 176.262,48.267 181.602,56.333 187.100 M364.667 199.983 L 364.667 226.632 361.500 224.765 C 359.758 223.738,351.733 218.398,343.667 212.900 C 335.600 207.401,328.025 202.334,326.833 201.641 C 325.642 200.947,324.667 200.209,324.667 200.000 C 324.667 199.791,325.642 199.053,326.833 198.359 C 328.025 197.665,335.900 192.409,344.333 186.679 C 357.293 177.873,363.690 173.657,364.500 173.389 C 364.592 173.358,364.667 185.326,364.667 199.983 M123.333 232.000 C 131.406 237.500,138.165 242.000,138.353 242.000 C 138.542 242.000,146.183 247.100,155.333 253.333 C 164.484 259.567,172.150 264.667,172.370 264.667 C 172.590 264.667,174.845 266.092,177.382 267.833 L 181.993 271.000 181.997 309.523 L 182.000 348.047 180.532 347.261 C 179.725 346.829,174.537 343.444,169.002 339.738 C 163.468 336.032,158.452 332.700,157.856 332.333 C 156.458 331.473,92.689 288.915,85.667 284.156 C 82.733 282.168,73.808 276.208,65.833 270.912 C 57.858 265.616,51.333 261.031,51.333 260.724 C 51.333 260.176,60.276 253.775,61.759 253.262 C 62.418 253.035,75.322 244.416,101.256 226.882 C 105.149 224.250,108.406 222.075,108.495 222.048 C 108.583 222.022,115.261 226.500,123.333 232.000 M298.570 226.833 C 302.558 229.492,312.945 236.467,321.651 242.333 C 330.358 248.200,337.823 253.118,338.241 253.262 C 339.684 253.761,348.667 260.168,348.667 260.699 C 348.667 261.100,223.115 345.134,218.833 347.599 C 218.171 347.980,218.000 340.179,218.000 309.524 L 218.000 270.969 222.655 267.984 C 225.216 266.343,234.891 259.880,244.155 253.623 C 253.420 247.365,261.450 242.059,262.000 241.831 C 262.550 241.603,269.300 237.066,277.000 231.749 C 284.700 226.432,291.072 222.063,291.159 222.041 C 291.247 222.018,294.582 224.175,298.570 226.833 " stroke="none" fill="#000000" fill-rule="evenodd"></path></g></svg>