<svg
   xmlns="http://www.w3.org/2000/svg"
  
   version="1.1"
   width="1024"
   height="1024">
  <g
    
     transform="matrix(2.8577046,0,0,2.8577046,-51.52158,-49.633258)">
    <path
      
       d="m 66.376,126.97 c -17.088,1.524 -21.678,8.246 -22.258,32.6 -0.538,22.583 -2.796,27.015 -14.528,28.521 l -1.856,0.238 v 8.375 8.374 l 1.465,0.005 c 3.655,0.011 7.734,1.799 10.193,4.466 3.685,3.998 4.363,7.48 4.757,24.435 0.335,14.43 0.555,16.006 2.917,20.916 3.851,8.007 11.533,11.501 25.297,11.505 l 5.371,0.001 v -8.535 -8.535 l -4.008,-0.227 c -10.047,-0.568 -10.608,-1.52 -11.217,-19.031 -0.206,-5.908 -0.482,-11.445 -0.613,-12.305 -1.442,-9.439 -2.739,-12.252 -8.073,-17.515 l -3.896,-3.845 0.916,-0.63 c 8.578,-5.905 10.987,-12.581 11.655,-32.306 0.612,-18.078 1.389,-19.336 11.935,-19.336 h 3.301 v -8.789 -8.789 l -4.004,0.054 c -2.202,0.03 -5.511,0.189 -7.354,0.353 m 250.421,8.327 v 8.735 l 4.408,0.194 c 9.653,0.426 10.773,2.481 10.813,19.839 0.037,15.71 2.033,22.412 8.632,28.973 l 3.801,3.779 -2.277,1.827 c -7.451,5.976 -10.115,14.003 -10.156,30.597 -0.043,17.368 -1.149,19.294 -11.413,19.876 l -3.808,0.215 v 8.586 8.585 l 6.933,-0.198 c 13.211,-0.377 20.041,-3.656 23.704,-11.378 2.339,-4.931 2.603,-6.851 2.967,-21.529 0.343,-13.86 0.657,-16.608 2.33,-20.401 1.938,-4.396 7.425,-7.896 12.406,-7.914 l 1.269,-0.005 v -8.374 -8.375 l -1.855,-0.255 c -11.465,-1.575 -13.654,-6.011 -14.164,-28.699 -0.258,-11.452 -0.397,-13.467 -1.112,-16.138 -3.198,-11.932 -11.328,-16.593 -29.06,-16.661 l -3.418,-0.013 v 8.734 m -143.555,1.277 c -25.472,2.764 -44.95,21.772 -47.683,46.533 l -0.27,2.444 -2.408,1.718 c -28.462,20.31 -17.601,65.092 17.158,70.749 5.251,0.855 114.671,0.855 119.922,0 35.533,-5.783 45.662,-51.323 15.927,-71.601 -3.185,-2.172 -3.32,-2.327 -4.601,-5.305 -5.406,-12.57 -15.734,-21.272 -29.65,-24.981 -4.063,-1.083 -16.221,-1.196 -19.723,-0.184 l -2.11,0.61 -3.33,-3.499 c -11.01,-11.569 -28.182,-18.117 -43.232,-16.484 m 13.477,18.125 c 9.694,2.326 17.192,8.244 23.153,18.273 l 3.028,5.094 4.573,-2.157 c 18.148,-8.56 35.528,-1.047 39.631,17.132 l 0.854,3.784 1.783,0.668 c 22.418,8.409 22.016,37.358 -0.599,43.142 -4.717,1.206 -113.567,1.206 -118.284,0 -22.184,-5.674 -23.165,-33.612 -1.503,-42.784 l 3.418,-1.448 0.019,-7.088 c 0.065,-24.02 20.612,-40.212 43.927,-34.616"
       style="fill-rule:evenodd;stroke:none" />
  </g>
</svg>
