<svg id="svg" version="1.1" width="515" height="515" xmlns="http://www.w3.org/2000/svg" xmlns:xlink="http://www.w3.org/1999/xlink" style="display: block;"><g id="svgg"><path id="path0" d="M222.514 1.214 C 216.472 1.727,211.294 2.525,211.007 2.988 C 210.721 3.452,207.227 4.152,203.243 4.545 C 199.259 4.937,196.000 5.608,196.000 6.035 C 196.000 6.463,193.750 7.122,191.000 7.500 C 188.250 7.878,186.000 8.537,186.000 8.965 C 186.000 9.393,183.750 10.041,181.000 10.406 C 178.250 10.770,176.000 11.413,176.000 11.834 C 176.000 12.255,173.300 13.158,170.000 13.839 C 166.700 14.521,164.000 15.461,164.000 15.928 C 164.000 16.395,162.425 17.073,160.500 17.434 C 158.575 17.795,157.000 18.515,157.000 19.033 C 157.000 19.552,155.200 20.264,153.000 20.616 C 150.800 20.968,149.000 21.612,149.000 22.048 C 149.000 22.484,147.650 23.138,146.000 23.500 C 144.350 23.862,143.000 24.565,143.000 25.060 C 143.000 25.556,141.875 26.244,140.500 26.589 C 139.125 26.934,138.000 27.582,138.000 28.029 C 138.000 28.476,136.650 29.138,135.000 29.500 C 133.350 29.862,132.000 30.565,132.000 31.060 C 132.000 31.556,130.875 32.244,129.500 32.589 C 128.125 32.934,127.000 33.618,127.000 34.108 C 127.000 34.599,126.311 35.000,125.469 35.000 C 124.626 35.000,123.689 35.648,123.385 36.439 C 123.081 37.230,121.490 38.173,119.849 38.533 C 118.208 38.894,116.638 39.781,116.360 40.504 C 116.082 41.228,114.763 42.094,113.428 42.429 C 112.092 42.764,111.000 43.480,111.000 44.019 C 111.000 44.559,110.311 45.000,109.469 45.000 C 108.626 45.000,107.685 45.658,107.376 46.462 C 107.068 47.266,105.887 48.219,104.751 48.579 C 103.616 48.939,101.694 50.306,100.479 51.617 C 99.265 52.928,97.918 54.000,97.486 54.000 C 97.055 54.000,95.249 55.462,93.472 57.250 C 91.696 59.038,88.991 61.400,87.462 62.500 C 83.854 65.095,65.095 83.854,62.500 87.462 C 61.400 88.991,59.037 91.696,57.250 93.472 C 55.462 95.249,54.000 97.055,54.000 97.486 C 54.000 97.918,52.928 99.265,51.617 100.479 C 50.306 101.694,48.939 103.616,48.579 104.751 C 48.219 105.887,47.266 107.068,46.462 107.376 C 45.658 107.685,45.000 108.626,45.000 109.469 C 45.000 110.311,44.559 111.000,44.019 111.000 C 43.480 111.000,42.764 112.092,42.429 113.428 C 42.094 114.763,41.228 116.082,40.504 116.360 C 39.781 116.638,38.894 118.208,38.533 119.849 C 38.173 121.490,37.230 123.081,36.439 123.385 C 35.648 123.689,35.000 124.626,35.000 125.469 C 35.000 126.311,34.599 127.000,34.108 127.000 C 33.618 127.000,32.934 128.125,32.589 129.500 C 32.244 130.875,31.556 132.000,31.060 132.000 C 30.565 132.000,29.862 133.350,29.500 135.000 C 29.138 136.650,28.476 138.000,28.029 138.000 C 27.582 138.000,26.934 139.125,26.589 140.500 C 26.244 141.875,25.556 143.000,25.060 143.000 C 24.565 143.000,23.862 144.350,23.500 146.000 C 23.138 147.650,22.484 149.000,22.048 149.000 C 21.612 149.000,20.968 150.800,20.616 153.000 C 20.264 155.200,19.552 157.000,19.033 157.000 C 18.515 157.000,17.795 158.575,17.434 160.500 C 17.073 162.425,16.395 164.000,15.928 164.000 C 15.461 164.000,14.521 166.700,13.839 170.000 C 13.158 173.300,12.255 176.000,11.834 176.000 C 11.413 176.000,10.770 178.250,10.406 181.000 C 10.041 183.750,9.393 186.000,8.965 186.000 C 8.537 186.000,7.878 188.250,7.500 191.000 C 7.122 193.750,6.463 196.000,6.035 196.000 C 5.608 196.000,4.937 199.259,4.545 203.243 C 4.152 207.227,3.471 210.714,3.031 210.993 C -0.706 213.360,-0.706 301.640,3.031 304.007 C 3.471 304.286,4.152 307.773,4.545 311.757 C 4.937 315.741,5.608 319.000,6.035 319.000 C 6.463 319.000,7.122 321.250,7.500 324.000 C 7.878 326.750,8.537 329.000,8.965 329.000 C 9.393 329.000,10.041 331.250,10.406 334.000 C 10.770 336.750,11.413 339.000,11.834 339.000 C 12.255 339.000,13.158 341.700,13.839 345.000 C 14.521 348.300,15.461 351.000,15.928 351.000 C 16.395 351.000,17.073 352.575,17.434 354.500 C 17.795 356.425,18.515 358.000,19.033 358.000 C 19.552 358.000,20.264 359.800,20.616 362.000 C 20.968 364.200,21.612 366.000,22.048 366.000 C 22.484 366.000,23.138 367.350,23.500 369.000 C 23.862 370.650,24.565 372.000,25.060 372.000 C 25.556 372.000,26.244 373.125,26.589 374.500 C 26.934 375.875,27.582 377.000,28.029 377.000 C 28.476 377.000,29.138 378.350,29.500 380.000 C 29.862 381.650,30.565 383.000,31.060 383.000 C 31.556 383.000,32.244 384.125,32.589 385.500 C 32.934 386.875,33.618 388.000,34.108 388.000 C 34.599 388.000,35.000 388.689,35.000 389.531 C 35.000 390.374,35.648 391.311,36.439 391.615 C 37.230 391.919,38.173 393.510,38.533 395.151 C 38.894 396.792,39.781 398.362,40.504 398.640 C 41.228 398.918,42.094 400.237,42.429 401.572 C 42.764 402.908,43.480 404.000,44.019 404.000 C 44.559 404.000,45.000 404.689,45.000 405.531 C 45.000 406.374,45.658 407.315,46.462 407.624 C 47.266 407.932,48.219 409.113,48.579 410.249 C 48.939 411.384,50.306 413.306,51.617 414.521 C 52.928 415.735,54.000 417.082,54.000 417.514 C 54.000 417.945,55.462 419.751,57.250 421.528 C 59.038 423.304,61.400 426.009,62.500 427.538 C 65.095 431.146,83.854 449.905,87.462 452.500 C 88.991 453.600,91.696 455.962,93.472 457.750 C 95.249 459.537,97.055 461.000,97.486 461.000 C 97.918 461.000,99.265 462.072,100.479 463.383 C 101.694 464.694,103.616 466.061,104.751 466.421 C 105.887 466.781,107.068 467.734,107.376 468.538 C 107.685 469.342,108.626 470.000,109.469 470.000 C 110.311 470.000,111.000 470.441,111.000 470.981 C 111.000 471.520,112.092 472.236,113.428 472.571 C 114.763 472.906,116.082 473.772,116.360 474.496 C 116.638 475.219,118.208 476.106,119.849 476.467 C 121.490 476.827,123.081 477.770,123.385 478.561 C 123.689 479.352,124.626 480.000,125.469 480.000 C 126.311 480.000,127.000 480.401,127.000 480.892 C 127.000 481.382,128.125 482.066,129.500 482.411 C 130.875 482.756,132.000 483.444,132.000 483.940 C 132.000 484.435,133.350 485.138,135.000 485.500 C 136.650 485.862,138.000 486.524,138.000 486.971 C 138.000 487.418,139.125 488.066,140.500 488.411 C 141.875 488.756,143.000 489.444,143.000 489.940 C 143.000 490.435,144.350 491.138,146.000 491.500 C 147.650 491.862,149.000 492.516,149.000 492.952 C 149.000 493.388,150.800 494.032,153.000 494.384 C 155.200 494.736,157.000 495.448,157.000 495.967 C 157.000 496.485,158.575 497.205,160.500 497.566 C 162.425 497.927,164.000 498.605,164.000 499.072 C 164.000 499.539,166.700 500.479,170.000 501.161 C 173.300 501.842,176.000 502.745,176.000 503.166 C 176.000 503.587,178.250 504.230,181.000 504.594 C 183.750 504.959,186.000 505.607,186.000 506.035 C 186.000 506.463,188.250 507.122,191.000 507.500 C 193.750 507.878,196.000 508.537,196.000 508.965 C 196.000 509.392,199.259 510.063,203.243 510.455 C 207.227 510.848,210.714 511.529,210.993 511.969 C 213.360 515.706,301.640 515.706,304.007 511.969 C 304.286 511.529,307.773 510.848,311.757 510.455 C 315.741 510.063,319.000 509.392,319.000 508.965 C 319.000 508.537,321.250 507.878,324.000 507.500 C 326.750 507.122,329.000 506.463,329.000 506.035 C 329.000 505.607,331.250 504.959,334.000 504.594 C 336.750 504.230,339.000 503.587,339.000 503.166 C 339.000 502.745,341.700 501.842,345.000 501.161 C 348.300 500.479,351.000 499.539,351.000 499.072 C 351.000 498.605,352.575 497.927,354.500 497.566 C 356.425 497.205,358.000 496.485,358.000 495.967 C 358.000 495.448,359.800 494.736,362.000 494.384 C 364.200 494.032,366.000 493.388,366.000 492.952 C 366.000 492.516,367.350 491.862,369.000 491.500 C 370.650 491.138,372.000 490.435,372.000 489.940 C 372.000 489.444,373.125 488.756,374.500 488.411 C 375.875 488.066,377.000 487.418,377.000 486.971 C 377.000 486.524,378.350 485.862,380.000 485.500 C 381.650 485.138,383.000 484.435,383.000 483.940 C 383.000 483.444,384.125 482.756,385.500 482.411 C 386.875 482.066,388.000 481.382,388.000 480.892 C 388.000 480.401,388.689 480.000,389.531 480.000 C 390.374 480.000,391.311 479.352,391.615 478.561 C 391.919 477.770,393.510 476.827,395.151 476.467 C 396.792 476.106,398.362 475.219,398.640 474.496 C 398.918 473.772,400.237 472.906,401.572 472.571 C 402.908 472.236,404.000 471.520,404.000 470.981 C 404.000 470.441,404.689 470.000,405.531 470.000 C 406.374 470.000,407.315 469.342,407.624 468.538 C 407.932 467.734,409.113 466.781,410.249 466.421 C 411.384 466.061,413.306 464.694,414.521 463.383 C 415.735 462.072,417.082 461.000,417.514 461.000 C 417.945 461.000,419.751 459.538,421.528 457.750 C 423.304 455.963,426.009 453.600,427.538 452.500 C 431.146 449.905,449.905 431.146,452.500 427.538 C 453.600 426.009,455.962 423.304,457.750 421.528 C 459.537 419.751,461.000 417.945,461.000 417.514 C 461.000 417.082,462.072 415.735,463.383 414.521 C 464.694 413.306,466.061 411.384,466.421 410.249 C 466.781 409.113,467.734 407.932,468.538 407.624 C 469.342 407.315,470.000 406.374,470.000 405.531 C 470.000 404.689,470.441 404.000,470.981 404.000 C 471.520 404.000,472.236 402.908,472.571 401.572 C 472.906 400.237,473.772 398.918,474.496 398.640 C 475.219 398.362,476.106 396.792,476.467 395.151 C 476.827 393.510,477.770 391.919,478.561 391.615 C 479.352 391.311,480.000 390.374,480.000 389.531 C 480.000 388.689,480.401 388.000,480.892 388.000 C 481.382 388.000,482.066 386.875,482.411 385.500 C 482.756 384.125,483.444 383.000,483.940 383.000 C 484.435 383.000,485.138 381.650,485.500 380.000 C 485.862 378.350,486.524 377.000,486.971 377.000 C 487.418 377.000,488.066 375.875,488.411 374.500 C 488.756 373.125,489.444 372.000,489.940 372.000 C 490.435 372.000,491.138 370.650,491.500 369.000 C 491.862 367.350,492.516 366.000,492.952 366.000 C 493.388 366.000,494.032 364.200,494.384 362.000 C 494.736 359.800,495.448 358.000,495.967 358.000 C 496.485 358.000,497.205 356.425,497.566 354.500 C 497.927 352.575,498.605 351.000,499.072 351.000 C 499.539 351.000,500.479 348.300,501.161 345.000 C 501.842 341.700,502.745 339.000,503.166 339.000 C 503.587 339.000,504.230 336.750,504.594 334.000 C 504.959 331.250,505.607 329.000,506.035 329.000 C 506.463 329.000,507.122 326.750,507.500 324.000 C 507.878 321.250,508.537 319.000,508.965 319.000 C 509.392 319.000,510.063 315.741,510.455 311.757 C 510.848 307.773,511.529 304.286,511.969 304.007 C 515.706 301.640,515.706 213.360,511.969 210.993 C 511.529 210.714,510.848 207.227,510.455 203.243 C 510.063 199.259,509.392 196.000,508.965 196.000 C 508.537 196.000,507.878 193.750,507.500 191.000 C 507.122 188.250,506.463 186.000,506.035 186.000 C 505.607 186.000,504.959 183.750,504.594 181.000 C 504.230 178.250,503.587 176.000,503.166 176.000 C 502.745 176.000,501.842 173.300,501.161 170.000 C 500.479 166.700,499.539 164.000,499.072 164.000 C 498.605 164.000,497.927 162.425,497.566 160.500 C 497.205 158.575,496.485 157.000,495.967 157.000 C 495.448 157.000,494.736 155.200,494.384 153.000 C 494.032 150.800,493.388 149.000,492.952 149.000 C 492.516 149.000,491.862 147.650,491.500 146.000 C 491.138 144.350,490.435 143.000,489.940 143.000 C 489.444 143.000,488.756 141.875,488.411 140.500 C 488.066 139.125,487.418 138.000,486.971 138.000 C 486.524 138.000,485.862 136.650,485.500 135.000 C 485.138 133.350,484.435 132.000,483.940 132.000 C 483.444 132.000,482.756 130.875,482.411 129.500 C 482.066 128.125,481.418 127.000,480.971 127.000 C 480.524 127.000,479.862 125.650,479.500 124.000 C 479.138 122.350,478.416 121.000,477.896 121.000 C 477.376 121.000,476.523 119.875,476.000 118.500 C 475.477 117.125,474.637 116.000,474.133 116.000 C 473.629 116.000,472.934 114.875,472.589 113.500 C 472.244 112.125,471.520 111.000,470.981 111.000 C 470.441 111.000,470.000 110.311,470.000 109.469 C 470.000 108.626,469.342 107.685,468.538 107.376 C 467.734 107.068,466.781 105.887,466.421 104.751 C 466.061 103.616,464.694 101.694,463.383 100.479 C 462.072 99.265,461.000 97.851,461.000 97.338 C 461.000 96.826,459.669 95.302,458.042 93.953 C 456.416 92.604,455.066 91.113,455.042 90.641 C 454.948 88.718,426.282 60.052,424.359 59.958 C 423.887 59.934,422.396 58.584,421.047 56.958 C 419.698 55.331,418.174 54.000,417.662 54.000 C 417.149 54.000,415.735 52.928,414.521 51.617 C 413.306 50.306,411.384 48.939,410.249 48.579 C 409.113 48.219,407.932 47.266,407.624 46.462 C 407.315 45.658,406.374 45.000,405.531 45.000 C 404.689 45.000,404.000 44.559,404.000 44.019 C 404.000 43.480,402.875 42.756,401.500 42.411 C 400.125 42.066,399.000 41.371,399.000 40.867 C 399.000 40.363,397.875 39.523,396.500 39.000 C 395.125 38.477,394.000 37.624,394.000 37.104 C 394.000 36.584,392.650 35.862,391.000 35.500 C 389.350 35.138,388.000 34.435,388.000 33.940 C 388.000 33.444,386.875 32.756,385.500 32.411 C 384.125 32.066,383.000 31.418,383.000 30.971 C 383.000 30.524,381.650 29.862,380.000 29.500 C 378.350 29.138,377.000 28.476,377.000 28.029 C 377.000 27.582,375.875 26.934,374.500 26.589 C 373.125 26.244,372.000 25.556,372.000 25.060 C 372.000 24.565,370.650 23.862,369.000 23.500 C 367.350 23.138,366.000 22.432,366.000 21.932 C 366.000 21.433,364.200 20.736,362.000 20.384 C 359.800 20.032,358.000 19.372,358.000 18.918 C 358.000 18.463,356.425 17.795,354.500 17.434 C 352.575 17.073,351.000 16.395,351.000 15.928 C 351.000 15.461,348.300 14.521,345.000 13.839 C 341.700 13.158,339.000 12.267,339.000 11.861 C 339.000 11.455,336.975 10.819,334.500 10.448 C 332.025 10.077,330.000 9.426,330.000 9.002 C 330.000 8.578,327.525 7.921,324.500 7.543 C 321.475 7.165,319.000 6.497,319.000 6.057 C 319.000 5.618,315.741 4.937,311.757 4.545 C 307.773 4.152,304.286 3.477,304.007 3.044 C 302.311 0.409,246.726 -0.839,222.514 1.214 M291.813 49.698 C 292.198 50.321,295.773 51.152,299.757 51.545 C 303.741 51.937,307.000 52.592,307.000 53.000 C 307.000 53.408,309.250 54.041,312.000 54.406 C 314.750 54.770,317.000 55.452,317.000 55.921 C 317.000 56.390,319.025 57.077,321.500 57.448 C 323.975 57.819,326.000 58.517,326.000 59.000 C 326.000 59.483,328.025 60.181,330.500 60.552 C 332.975 60.923,335.000 61.584,335.000 62.021 C 335.000 62.458,337.250 63.392,340.000 64.097 C 342.750 64.801,345.000 65.707,345.000 66.110 C 345.000 66.512,346.350 67.138,348.000 67.500 C 349.650 67.862,351.000 68.537,351.000 69.000 C 351.000 69.463,352.350 70.138,354.000 70.500 C 355.650 70.862,357.000 71.573,357.000 72.079 C 357.000 72.586,357.689 73.000,358.531 73.000 C 359.374 73.000,360.311 73.648,360.615 74.439 C 360.919 75.230,362.479 76.166,364.084 76.518 C 365.688 76.871,367.000 77.565,367.000 78.060 C 367.000 78.556,368.092 79.236,369.428 79.571 C 370.763 79.906,372.099 80.815,372.396 81.590 C 372.694 82.366,373.578 83.000,374.362 83.000 C 375.145 83.000,376.045 83.675,376.362 84.500 C 376.678 85.325,377.626 86.000,378.469 86.000 C 379.311 86.000,380.000 86.374,380.000 86.831 C 380.000 87.288,381.238 88.294,382.750 89.067 C 384.262 89.840,386.491 91.491,387.702 92.736 C 388.913 93.981,390.370 95.000,390.940 95.000 C 391.509 95.000,394.118 97.300,396.738 100.110 C 403.462 107.326,408.984 112.835,414.360 117.692 C 416.912 119.997,419.000 122.325,419.000 122.865 C 419.000 123.404,420.238 125.118,421.750 126.673 C 423.262 128.228,425.139 130.738,425.919 132.250 C 426.699 133.762,427.712 135.000,428.169 135.000 C 428.626 135.000,429.000 135.689,429.000 136.531 C 429.000 137.374,429.675 138.322,430.500 138.638 C 431.325 138.955,432.000 139.855,432.000 140.638 C 432.000 141.422,432.634 142.306,433.410 142.604 C 434.185 142.901,435.094 144.237,435.429 145.572 C 435.764 146.908,436.444 148.000,436.940 148.000 C 437.435 148.000,438.138 149.350,438.500 151.000 C 438.862 152.650,439.573 154.000,440.079 154.000 C 440.586 154.000,441.000 154.689,441.000 155.531 C 441.000 156.374,441.648 157.311,442.439 157.615 C 443.230 157.919,444.166 159.479,444.518 161.084 C 444.871 162.688,445.537 164.000,446.000 164.000 C 446.463 164.000,447.138 165.350,447.500 167.000 C 447.862 168.650,448.517 170.000,448.955 170.000 C 449.392 170.000,450.349 172.700,451.081 176.000 C 451.814 179.300,452.749 182.000,453.161 182.000 C 453.573 182.000,454.205 183.575,454.566 185.500 C 454.927 187.425,455.595 189.000,456.050 189.000 C 456.505 189.000,457.181 191.025,457.552 193.500 C 457.923 195.975,458.582 198.000,459.015 198.000 C 459.449 198.000,460.117 200.700,460.500 204.000 C 460.883 207.300,461.566 210.000,462.019 210.000 C 462.471 210.000,463.161 213.037,463.553 216.750 C 463.945 220.463,464.768 223.821,465.383 224.214 C 466.985 225.237,466.957 289.789,465.354 290.786 C 464.724 291.179,463.884 294.538,463.487 298.250 C 463.091 301.963,462.421 305.000,461.999 305.000 C 461.576 305.000,460.921 307.475,460.543 310.500 C 460.165 313.525,459.496 316.000,459.057 316.000 C 458.617 316.000,457.959 318.250,457.594 321.000 C 457.230 323.750,456.532 326.000,456.045 326.000 C 455.558 326.000,454.842 327.462,454.454 329.250 C 454.066 331.038,453.460 332.725,453.108 333.000 C 452.755 333.275,451.886 335.739,451.177 338.476 C 450.467 341.213,449.523 343.688,449.078 343.976 C 448.633 344.264,447.954 345.512,447.567 346.750 C 447.181 347.987,446.481 349.000,446.012 349.000 C 445.543 349.000,444.862 350.350,444.500 352.000 C 444.138 353.650,443.463 355.000,443.000 355.000 C 442.537 355.000,441.862 356.350,441.500 358.000 C 441.138 359.650,440.476 361.000,440.029 361.000 C 439.582 361.000,438.934 362.125,438.589 363.500 C 438.244 364.875,437.556 366.000,437.060 366.000 C 436.565 366.000,435.862 367.350,435.500 369.000 C 435.138 370.650,434.413 372.000,433.889 372.000 C 433.366 372.000,432.639 372.778,432.274 373.728 C 431.909 374.678,430.680 376.366,429.542 377.478 C 428.403 378.590,426.840 380.738,426.067 382.250 C 425.294 383.762,424.288 385.000,423.831 385.000 C 423.374 385.000,423.000 385.584,423.000 386.297 C 423.000 387.010,421.669 388.698,420.042 390.047 C 418.416 391.396,417.066 393.052,417.042 393.726 C 417.019 394.400,415.364 396.425,413.364 398.226 C 408.719 402.408,402.408 408.719,398.226 413.364 C 396.425 415.364,394.400 417.019,393.726 417.042 C 393.052 417.066,391.396 418.416,390.047 420.042 C 388.698 421.669,387.010 423.000,386.297 423.000 C 385.584 423.000,385.000 423.374,385.000 423.831 C 385.000 424.288,383.762 425.300,382.250 426.079 C 380.738 426.859,379.275 427.723,379.000 427.998 C 377.589 429.414,371.959 433.000,371.147 433.000 C 370.634 433.000,369.955 433.675,369.638 434.500 C 369.322 435.325,368.374 436.000,367.531 436.000 C 366.689 436.000,366.000 436.441,366.000 436.981 C 366.000 437.520,364.875 438.244,363.500 438.589 C 362.125 438.934,361.000 439.582,361.000 440.029 C 361.000 440.476,359.650 441.138,358.000 441.500 C 356.350 441.862,355.000 442.537,355.000 443.000 C 355.000 443.463,353.650 444.138,352.000 444.500 C 350.350 444.862,349.000 445.565,349.000 446.060 C 349.000 446.556,347.875 447.244,346.500 447.589 C 345.125 447.934,344.000 448.586,344.000 449.038 C 344.000 449.489,341.525 450.372,338.500 451.000 C 335.475 451.628,333.000 452.532,333.000 453.010 C 333.000 453.487,330.975 454.181,328.500 454.552 C 326.025 454.923,324.000 455.586,324.000 456.026 C 324.000 456.465,322.200 457.128,320.000 457.500 C 317.800 457.872,316.000 458.542,316.000 458.990 C 316.000 459.437,313.300 460.117,310.000 460.500 C 306.700 460.883,304.000 461.557,304.000 461.997 C 304.000 462.437,300.738 463.122,296.750 463.518 C 292.762 463.915,289.179 464.748,288.786 465.370 C 287.778 466.968,227.222 466.968,226.214 465.370 C 225.821 464.748,222.238 463.915,218.250 463.518 C 214.262 463.122,211.000 462.437,211.000 461.997 C 211.000 461.557,208.300 460.883,205.000 460.500 C 201.700 460.117,199.000 459.437,199.000 458.990 C 199.000 458.542,197.200 457.872,195.000 457.500 C 192.800 457.128,191.000 456.465,191.000 456.026 C 191.000 455.586,188.975 454.923,186.500 454.552 C 184.025 454.181,182.000 453.487,182.000 453.010 C 182.000 452.532,179.525 451.628,176.500 451.000 C 173.475 450.372,171.000 449.489,171.000 449.038 C 171.000 448.586,169.875 447.934,168.500 447.589 C 167.125 447.244,166.000 446.556,166.000 446.060 C 166.000 445.565,164.650 444.862,163.000 444.500 C 161.350 444.138,160.000 443.463,160.000 443.000 C 160.000 442.537,158.650 441.862,157.000 441.500 C 155.350 441.138,154.000 440.435,154.000 439.940 C 154.000 439.444,152.875 438.756,151.500 438.411 C 150.125 438.066,149.000 437.382,149.000 436.892 C 149.000 436.401,148.311 436.000,147.469 436.000 C 146.626 436.000,145.678 435.325,145.362 434.500 C 145.045 433.675,144.366 433.000,143.853 433.000 C 143.041 433.000,137.411 429.414,136.000 427.998 C 135.725 427.723,134.262 426.859,132.750 426.079 C 131.237 425.300,130.000 424.288,130.000 423.831 C 130.000 423.374,129.483 423.000,128.851 423.000 C 128.219 423.000,126.172 421.425,124.303 419.500 C 122.433 417.575,120.250 416.000,119.452 416.000 C 118.653 416.000,118.000 415.621,118.000 415.157 C 118.000 414.057,100.943 397.000,99.843 397.000 C 99.379 397.000,99.000 396.347,99.000 395.548 C 99.000 394.750,97.425 392.567,95.500 390.697 C 93.575 388.828,92.000 386.781,92.000 386.149 C 92.000 385.517,91.626 385.000,91.169 385.000 C 90.712 385.000,89.700 383.762,88.921 382.250 C 88.141 380.738,87.277 379.275,87.002 379.000 C 85.586 377.589,82.000 371.959,82.000 371.147 C 82.000 370.634,81.325 369.955,80.500 369.638 C 79.675 369.322,79.000 368.374,79.000 367.531 C 79.000 366.689,78.559 366.000,78.019 366.000 C 77.480 366.000,76.756 364.875,76.411 363.500 C 76.066 362.125,75.418 361.000,74.971 361.000 C 74.524 361.000,73.862 359.650,73.500 358.000 C 73.138 356.350,72.463 355.000,72.000 355.000 C 71.537 355.000,70.862 353.650,70.500 352.000 C 70.138 350.350,69.435 349.000,68.940 349.000 C 68.444 349.000,67.756 347.875,67.411 346.500 C 67.066 345.125,66.414 344.000,65.962 344.000 C 65.511 344.000,64.628 341.525,64.000 338.500 C 63.372 335.475,62.480 333.000,62.017 333.000 C 61.554 333.000,60.857 331.114,60.468 328.808 C 60.078 326.503,59.139 323.996,58.380 323.237 C 57.621 322.478,57.000 320.539,57.000 318.929 C 57.000 317.318,56.582 316.000,56.072 316.000 C 55.562 316.000,54.835 313.525,54.457 310.500 C 54.079 307.475,53.424 305.000,53.001 305.000 C 52.579 305.000,51.909 301.962,51.513 298.250 C 51.116 294.538,50.276 291.179,49.646 290.786 C 48.043 289.789,48.015 225.237,49.617 224.214 C 50.232 223.821,51.055 220.463,51.447 216.750 C 51.839 213.037,52.529 210.000,52.981 210.000 C 53.434 210.000,54.117 207.300,54.500 204.000 C 54.883 200.700,55.551 198.000,55.985 198.000 C 56.418 198.000,57.077 195.975,57.448 193.500 C 57.819 191.025,58.495 189.000,58.950 189.000 C 59.405 189.000,60.073 187.425,60.434 185.500 C 60.795 183.575,61.427 182.000,61.839 182.000 C 62.251 182.000,63.186 179.300,63.919 176.000 C 64.651 172.700,65.608 170.000,66.045 170.000 C 66.483 170.000,67.138 168.650,67.500 167.000 C 67.862 165.350,68.537 164.000,69.000 164.000 C 69.463 164.000,70.129 162.688,70.482 161.084 C 70.834 159.479,71.770 157.919,72.561 157.615 C 73.352 157.311,74.000 156.374,74.000 155.531 C 74.000 154.689,74.414 154.000,74.921 154.000 C 75.427 154.000,76.138 152.650,76.500 151.000 C 76.862 149.350,77.565 148.000,78.060 148.000 C 78.556 148.000,79.236 146.908,79.571 145.572 C 79.906 144.237,80.815 142.901,81.590 142.604 C 82.366 142.306,83.000 141.422,83.000 140.638 C 83.000 139.855,83.675 138.955,84.500 138.638 C 85.325 138.322,86.000 137.374,86.000 136.531 C 86.000 135.689,86.374 135.000,86.831 135.000 C 87.288 135.000,88.301 133.762,89.081 132.250 C 89.861 130.738,91.737 128.228,93.250 126.673 C 94.763 125.118,96.000 123.404,96.000 122.865 C 96.000 122.325,98.088 119.997,100.640 117.692 C 106.016 112.835,111.538 107.326,118.262 100.110 C 120.882 97.300,123.491 95.000,124.060 95.000 C 124.630 95.000,126.087 93.981,127.298 92.736 C 128.509 91.491,130.738 89.840,132.250 89.067 C 133.762 88.294,135.000 87.288,135.000 86.831 C 135.000 86.374,135.689 86.000,136.531 86.000 C 137.374 86.000,138.322 85.325,138.638 84.500 C 138.955 83.675,139.855 83.000,140.638 83.000 C 141.422 83.000,142.306 82.366,142.604 81.590 C 142.901 80.815,144.237 79.906,145.572 79.571 C 146.908 79.236,148.000 78.556,148.000 78.060 C 148.000 77.565,149.312 76.871,150.916 76.518 C 152.521 76.166,154.081 75.230,154.385 74.439 C 154.689 73.648,155.626 73.000,156.469 73.000 C 157.311 73.000,158.000 72.586,158.000 72.079 C 158.000 71.573,159.350 70.862,161.000 70.500 C 162.650 70.138,164.000 69.463,164.000 69.000 C 164.000 68.537,165.350 67.862,167.000 67.500 C 168.650 67.138,170.000 66.512,170.000 66.110 C 170.000 65.707,172.250 64.801,175.000 64.097 C 177.750 63.392,180.000 62.458,180.000 62.021 C 180.000 61.584,182.025 60.923,184.500 60.552 C 186.975 60.181,189.000 59.483,189.000 59.000 C 189.000 58.517,191.025 57.819,193.500 57.448 C 195.975 57.077,198.000 56.390,198.000 55.921 C 198.000 55.452,200.250 54.770,203.000 54.406 C 205.750 54.041,208.000 53.403,208.000 52.989 C 208.000 52.574,211.375 51.919,215.500 51.532 C 219.625 51.146,223.000 50.441,223.000 49.967 C 223.000 47.878,290.525 47.614,291.813 49.698 M221.500 126.487 C 218.200 130.049,215.143 132.971,214.707 132.981 C 213.612 133.007,198.597 147.287,192.226 154.364 C 190.425 156.364,188.515 158.000,187.981 158.000 C 187.447 158.000,180.939 164.075,173.518 171.500 C 166.097 178.925,159.765 185.000,159.445 185.000 C 158.774 185.000,149.250 193.921,144.639 198.868 C 137.029 207.034,133.938 210.000,133.037 210.000 C 132.506 210.000,126.240 215.850,119.113 223.000 C 111.986 230.150,105.862 236.000,105.504 236.000 C 103.789 236.000,85.014 255.700,85.014 257.500 C 85.014 259.311,103.794 279.000,105.521 279.000 C 105.888 279.000,111.772 284.625,118.598 291.500 C 125.423 298.375,131.420 304.000,131.925 304.000 C 132.812 304.000,138.175 309.118,144.620 316.114 C 148.929 320.791,155.687 327.000,156.470 327.000 C 156.827 327.000,162.699 332.625,169.520 339.500 C 176.340 346.375,182.406 352.000,183.000 352.000 C 183.594 352.000,186.650 354.751,189.790 358.112 C 199.922 368.959,208.326 377.000,209.530 377.000 C 209.942 377.000,214.203 381.050,219.000 386.000 C 223.797 390.950,228.234 395.000,228.861 395.000 C 231.344 395.000,230.369 326.280,227.857 324.240 C 226.679 323.283,225.004 321.712,224.135 320.750 C 223.266 319.788,222.229 319.000,221.831 319.000 C 221.432 319.000,216.020 313.935,209.803 307.745 C 203.586 301.555,197.262 295.854,195.750 295.076 C 194.238 294.298,193.000 293.339,193.000 292.944 C 193.000 291.862,174.011 273.000,172.921 273.000 C 172.113 273.000,157.000 258.287,157.000 257.500 C 157.000 256.722,172.108 242.000,172.907 242.000 C 173.697 242.000,180.921 234.965,195.241 220.250 C 196.981 218.463,198.835 217.000,199.363 217.000 C 199.890 217.000,205.846 211.375,212.597 204.500 C 219.349 197.625,225.319 192.000,225.865 192.000 C 229.788 192.000,230.000 190.073,230.000 154.429 C 230.000 115.137,230.498 116.775,221.500 126.487 M285.000 153.536 L 285.000 187.071 297.923 200.036 C 305.030 207.166,311.145 213.000,311.512 213.000 C 312.233 213.000,319.282 219.345,321.894 222.345 C 326.323 227.433,337.180 238.000,337.978 238.000 C 338.812 238.000,358.000 256.687,358.000 257.500 C 358.000 258.313,338.812 277.000,337.978 277.000 C 337.477 277.000,333.891 280.262,330.008 284.250 C 316.892 297.718,315.556 299.000,314.639 299.000 C 314.136 299.000,308.412 304.400,301.919 311.000 C 295.426 317.600,289.670 323.000,289.128 323.000 C 285.213 323.000,285.000 324.938,285.000 360.571 C 285.000 399.794,284.472 398.068,293.536 388.500 C 296.923 384.925,300.023 382.000,300.426 382.000 C 300.828 382.000,303.128 380.088,305.537 377.750 C 307.945 375.413,312.072 371.432,314.708 368.903 C 317.344 366.375,320.973 362.663,322.774 360.653 C 324.575 358.644,326.485 357.000,327.019 357.000 C 327.553 357.000,333.610 351.375,340.480 344.500 C 347.350 337.625,353.238 332.000,353.565 332.000 C 353.891 332.000,356.086 330.087,358.443 327.750 C 360.799 325.413,364.251 322.109,366.114 320.409 C 367.976 318.709,371.386 315.222,373.692 312.659 C 375.997 310.097,378.327 308.000,378.870 308.000 C 379.412 308.000,385.502 302.375,392.402 295.500 C 399.302 288.625,405.222 283.000,405.557 283.000 C 407.258 283.000,429.973 259.276,429.973 257.500 C 429.973 255.716,407.255 232.000,405.546 232.000 C 405.204 232.000,398.843 225.925,391.409 218.500 C 383.975 211.075,377.478 205.000,376.971 205.000 C 376.464 205.000,374.575 203.355,372.774 201.344 C 370.973 199.334,367.976 196.296,366.114 194.594 C 364.252 192.892,360.125 188.912,356.944 185.750 C 353.763 182.588,350.921 180.000,350.629 180.000 C 350.336 180.000,344.113 174.188,336.799 167.083 C 329.484 159.979,320.444 151.317,316.708 147.833 C 312.972 144.350,307.066 138.688,303.582 135.250 C 300.098 131.813,296.960 129.000,296.607 129.000 C 296.255 129.000,294.026 126.975,291.655 124.500 C 284.754 117.298,285.000 116.223,285.000 153.536 " stroke="none" fill="#000000" fill-rule="evenodd"></path></g></svg>