<svg id="svg" xmlns="http://www.w3.org/2000/svg" xmlns:xlink="http://www.w3.org/1999/xlink" width="400" height="400" viewBox="0, 0, 400,400"><g id="svgg"><path id="path0" d="M194.162 198.167 L 194.333 240.333 200.000 241.793 C 227.590 248.899,248.000 236.622,248.000 212.919 C 248.000 192.194,228.431 178.612,209.137 185.948 L 207.333 186.634 207.333 171.317 L 207.333 156.000 200.662 156.000 L 193.990 156.000 194.162 198.167 M113.465 161.782 C 109.161 163.903,107.895 170.188,111.022 173.904 C 116.146 179.995,125.333 176.658,125.333 168.707 C 125.333 162.454,119.275 158.919,113.465 161.782 M24.935 184.672 C -3.852 188.830,-10.243 228.514,15.880 240.890 C 23.408 244.457,47.704 243.254,45.853 239.407 C 43.576 234.673,40.169 230.693,38.667 231.012 C 23.631 234.200,13.094 227.166,13.177 213.994 C 13.261 200.599,26.010 192.488,38.833 197.671 C 39.598 197.980,40.000 197.835,40.000 197.251 C 40.000 196.761,41.096 194.584,42.436 192.413 C 44.785 188.607,44.827 188.432,43.603 187.537 C 40.515 185.277,30.929 183.806,24.935 184.672 M69.092 184.720 C 39.681 189.113,36.208 233.164,64.550 242.326 C 80.217 247.391,97.391 238.975,102.070 223.939 C 109.045 201.530,92.029 181.295,69.092 184.720 M153.480 184.715 C 148.186 185.227,139.696 187.091,135.833 188.589 L 134.000 189.300 134.000 215.983 L 134.000 242.667 140.667 242.667 L 147.333 242.667 147.333 220.405 C 147.333 194.569,146.265 197.337,156.426 196.833 C 170.076 196.157,170.667 197.253,170.667 223.267 L 170.667 242.667 177.333 242.667 L 184.000 242.667 184.000 221.773 C 184.000 205.600,183.785 200.165,183.049 197.719 C 179.900 187.256,170.401 183.079,153.480 184.715 M271.333 184.450 C 267.706 184.818,263.320 185.969,259.842 187.465 L 256.667 188.831 256.667 194.749 C 256.667 198.004,256.761 200.667,256.875 200.667 C 256.990 200.667,258.631 199.920,260.523 199.008 C 273.000 192.989,283.333 195.868,283.333 205.365 L 283.333 208.667 278.833 208.680 C 257.610 208.742,246.278 219.774,253.165 233.667 C 257.597 242.608,278.979 246.603,295.540 241.584 C 296.679 241.238,296.736 239.969,296.540 219.109 L 296.333 197.000 294.572 193.667 C 291.364 187.594,281.927 183.146,274.333 184.127 C 273.967 184.175,272.617 184.320,271.333 184.450 M319.742 184.743 C 308.943 186.298,302.432 195.204,304.623 205.420 C 306.236 212.941,309.248 215.525,320.497 219.037 C 328.941 221.673,331.333 223.342,331.333 226.599 C 331.333 233.561,319.446 234.861,309.662 228.969 C 307.559 227.703,305.725 226.667,305.586 226.667 C 305.447 226.667,305.333 229.509,305.333 232.983 L 305.333 239.299 307.402 240.369 C 319.539 246.645,337.778 243.558,342.311 234.460 C 348.111 222.821,342.300 212.590,327.647 208.646 C 320.062 206.605,317.333 204.698,317.333 201.440 C 317.333 194.675,328.224 193.169,336.982 198.723 C 341.278 201.448,341.333 201.396,341.333 194.680 L 341.333 188.694 338.830 187.416 C 333.797 184.849,326.298 183.799,319.742 184.743 M371.571 184.669 C 343.580 188.764,340.046 233.626,367.058 241.969 C 375.264 244.504,387.728 243.744,395.092 240.261 L 398.667 238.570 398.667 232.618 C 398.667 226.140,398.606 226.047,395.667 228.014 C 383.131 236.402,364.632 231.578,361.736 219.167 L 361.308 217.333 380.723 217.333 L 400.137 217.333 399.902 209.151 C 399.391 191.373,388.728 182.158,371.571 184.669 M110.667 214.000 L 110.667 242.667 117.333 242.667 L 124.000 242.667 124.000 214.000 L 124.000 185.333 117.333 185.333 L 110.667 185.333 110.667 214.000 M82.342 198.350 C 96.469 207.151,90.575 231.667,74.333 231.667 C 63.964 231.667,59.000 225.964,59.000 214.051 C 59.000 199.070,70.780 191.147,82.342 198.350 M225.839 198.448 C 237.733 204.066,237.786 223.188,225.924 229.644 C 222.146 231.700,214.695 232.654,209.713 231.719 L 207.333 231.273 207.333 214.953 L 207.333 198.634 209.167 197.920 C 214.745 195.747,220.507 195.929,225.839 198.448 M382.010 197.233 C 384.597 198.606,386.989 202.369,387.688 206.167 L 388.148 208.667 375.074 208.667 C 366.531 208.667,362.000 208.428,362.000 207.979 C 362.000 199.705,374.262 193.120,382.010 197.233 M283.189 225.500 L 283.000 233.000 279.667 233.216 C 268.363 233.950,262.211 229.348,265.637 222.723 C 267.261 219.583,271.110 218.195,278.522 218.077 L 283.377 218.000 283.189 225.500 " stroke="none" fill="#000000" fill-rule="evenodd"></path></g></svg>