<svg id="svg" xmlns="http://www.w3.org/2000/svg" xmlns:xlink="http://www.w3.org/1999/xlink" width="400" height="400" viewBox="0, 0, 400,400"><g id="svgg"><path id="path0" d="M201.000 1.090 C 146.500 9.570,96.713 37.931,67.694 77.026 C 65.051 80.587,62.351 84.184,61.694 85.020 C 48.510 101.798,34.371 134.198,29.192 159.500 C 19.510 206.797,29.087 264.838,52.777 302.434 C 61.390 316.102,63.730 319.320,72.460 329.500 C 129.160 395.616,231.250 418.950,312.368 384.332 C 344.963 370.423,373.908 345.359,373.978 330.985 C 374.012 323.998,371.012 319.772,352.140 300.225 C 327.369 274.569,318.531 271.559,304.500 283.999 C 287.719 298.877,257.099 309.983,232.822 309.996 C 148.912 310.040,96.768 222.290,135.176 145.673 C 166.803 82.583,249.629 67.339,305.742 114.280 C 313.855 121.067,321.174 122.384,329.312 118.522 C 332.720 116.905,364.959 84.853,370.549 77.525 C 376.928 69.162,373.986 56.556,363.776 48.500 C 360.987 46.300,358.177 43.985,357.531 43.356 C 353.159 39.101,321.058 19.273,312.500 15.540 C 310.300 14.581,307.600 13.403,306.500 12.923 C 282.486 2.439,230.093 -3.437,201.000 1.090 M234.581 6.750 C 238.913 11.147,247.714 22.025,251.686 27.892 C 251.832 28.108,254.325 26.288,257.226 23.849 C 263.763 18.350,271.100 13.101,277.009 9.693 L 281.518 7.093 289.509 9.426 C 293.904 10.710,301.202 13.193,305.727 14.944 L 313.953 18.127 315.928 24.814 C 321.089 42.294,325.443 61.728,326.304 71.135 L 326.728 75.771 319.114 77.946 C 309.421 80.716,297.186 86.735,289.503 92.514 C 286.205 94.995,283.055 96.819,282.503 96.569 C 276.488 93.836,267.356 90.386,262.512 89.017 C 257.036 87.469,256.452 87.033,255.680 83.912 C 253.400 74.697,248.826 61.000,248.029 61.000 C 247.535 61.000,244.467 66.391,241.212 72.980 C 237.957 79.569,235.028 84.695,234.704 84.371 C 234.090 83.757,212.055 85.660,209.792 86.523 C 209.014 86.819,207.375 85.009,205.669 81.966 C 202.046 75.505,191.076 61.835,190.031 62.481 C 188.957 63.145,187.095 76.700,186.772 86.209 L 186.510 93.917 182.665 95.651 C 180.551 96.604,175.970 99.257,172.487 101.545 L 166.153 105.704 159.296 100.935 C 152.187 95.990,138.156 88.511,137.402 89.265 C 136.580 90.087,141.152 103.545,145.157 112.094 L 149.183 120.688 142.842 129.395 C 136.867 137.598,136.327 138.068,133.500 137.525 C 128.478 136.559,98.000 135.687,98.000 136.509 C 98.000 138.414,110.238 151.958,117.311 157.881 C 123.508 163.070,125.008 164.843,124.569 166.461 C 124.265 167.582,123.505 171.200,122.881 174.500 C 122.257 177.800,121.627 180.974,121.480 181.554 C 121.333 182.134,117.806 183.138,113.641 183.785 C 102.528 185.513,81.000 193.664,81.000 196.143 C 81.000 197.509,104.310 208.552,112.491 211.062 C 120.846 213.626,121.412 214.208,122.439 221.286 L 123.133 226.072 120.317 225.428 C 107.680 222.538,88.047 214.428,76.036 207.135 L 69.573 203.210 64.234 207.771 C 55.354 215.358,45.074 228.377,37.576 241.532 L 33.263 249.100 32.221 244.800 C 29.254 232.545,29.249 232.575,35.628 223.184 C 38.840 218.455,45.467 210.403,50.355 205.291 L 59.241 195.995 49.870 186.223 C 44.717 180.848,38.262 173.168,35.526 169.156 L 30.552 161.862 32.792 153.181 C 34.353 147.134,35.707 143.989,37.256 142.815 C 43.682 137.944,60.261 130.700,74.773 126.421 C 75.762 126.129,75.680 125.205,74.401 122.273 C 71.030 114.540,67.904 103.473,66.391 93.918 L 64.830 84.068 69.394 78.284 C 71.904 75.103,75.086 71.150,76.465 69.500 L 78.972 66.500 94.236 66.500 C 102.631 66.500,111.570 66.820,114.100 67.210 L 118.700 67.921 119.316 55.710 C 119.654 48.995,120.435 40.747,121.049 37.382 L 122.167 31.264 130.334 26.735 C 145.690 18.217,143.771 18.648,153.200 21.594 C 157.765 23.020,165.947 26.411,171.382 29.128 C 176.817 31.846,181.382 33.941,181.527 33.785 C 181.672 33.628,183.902 29.452,186.483 24.504 C 189.063 19.557,193.157 12.731,195.581 9.335 L 199.986 3.161 206.743 2.505 C 210.459 2.145,213.950 1.694,214.500 1.504 C 215.050 1.314,218.518 1.122,222.208 1.079 L 228.915 1.000 234.581 6.750 M207.560 20.367 C 204.498 24.968,200.391 32.201,198.433 36.439 L 194.873 44.144 202.309 51.928 C 206.399 56.209,211.940 62.837,214.623 66.657 C 220.638 75.221,220.598 75.225,225.166 65.779 C 227.220 61.532,231.173 54.690,233.950 50.574 C 236.728 46.458,239.000 42.466,239.000 41.702 C 239.000 37.936,217.556 12.000,214.442 12.000 C 213.719 12.000,210.622 15.765,207.560 20.367 M287.248 23.932 C 279.666 28.112,270.151 35.146,265.259 40.187 L 261.017 44.558 264.320 53.029 C 266.136 57.688,268.654 65.325,269.914 70.000 C 271.174 74.675,272.377 79.081,272.587 79.791 C 272.841 80.650,275.449 79.408,280.376 76.083 C 287.747 71.109,298.892 65.041,304.376 63.016 C 309.199 61.235,303.967 37.493,295.833 24.250 C 293.427 20.333,293.754 20.345,287.248 23.932 M135.024 42.250 C 134.373 46.788,133.989 55.356,134.170 61.292 L 134.500 72.084 142.689 75.434 C 151.443 79.015,160.509 83.831,165.683 87.651 C 170.456 91.173,171.000 90.743,171.000 83.442 C 171.000 75.993,172.455 65.273,174.643 56.602 C 176.420 49.560,176.582 49.794,166.000 44.121 C 158.635 40.173,141.566 34.000,138.013 34.000 C 136.513 34.000,136.007 35.398,135.024 42.250 M83.196 80.667 C 80.828 80.916,78.659 81.725,78.376 82.464 C 76.937 86.211,82.555 109.013,87.263 118.540 L 89.500 123.067 111.761 123.283 C 126.314 123.425,133.866 123.154,133.571 122.500 C 129.783 114.113,124.619 99.555,122.866 92.325 L 120.643 83.151 114.571 82.036 C 107.688 80.773,89.658 79.986,83.196 80.667 M75.500 140.000 C 66.347 142.376,53.954 147.680,46.704 152.323 L 40.907 156.034 42.704 159.101 C 47.987 168.119,66.551 188.031,69.636 187.988 C 70.111 187.981,75.225 185.601,81.000 182.698 C 90.089 178.129,100.131 174.640,110.275 172.527 C 112.994 171.961,112.870 171.778,104.094 163.427 C 99.169 158.740,92.540 151.439,89.363 147.203 C 86.187 142.966,83.343 139.204,83.044 138.842 C 82.745 138.479,79.350 139.001,75.500 140.000 M86.012 244.544 C 90.144 245.783,96.114 247.120,99.279 247.516 L 105.034 248.235 108.820 255.867 C 148.488 335.837,244.739 361.558,314.900 310.938 L 323.300 304.878 327.733 309.189 C 330.172 311.560,335.811 317.474,340.266 322.332 L 348.365 331.163 345.031 333.832 C 274.681 390.122,177.238 388.844,110.986 330.762 C 91.238 313.449,62.941 276.633,63.017 268.349 C 63.073 262.148,74.266 240.460,76.836 241.572 C 77.751 241.968,81.881 243.305,86.012 244.544 " stroke="none" fill="#000000" fill-rule="evenodd"></path></g></svg>