<svg width="100%" height="100%" viewBox="0 0 400 400" version="1.1" xmlns="http://www.w3.org/2000/svg" style="fill-rule:evenodd;clip-rule:evenodd;stroke-linejoin:round;stroke-miterlimit:2;">
<g>
<path d="M201,1.09C146.5,9.57 96.713,37.931 67.694,77.026C65.051,80.587 62.351,84.184 61.694,85.02C48.51,101.798 34.371,134.198 29.192,159.5C19.51,206.797 29.087,264.838 52.777,302.434C61.39,316.102 63.73,319.32 72.46,329.5C129.16,395.616 231.25,418.95 312.368,384.332C344.963,370.423 373.908,345.359 373.978,330.985C374.012,323.998 371.012,319.772 352.14,300.225C327.369,274.569 318.531,271.559 304.5,283.999C287.719,298.877 257.099,309.983 232.822,309.996C148.912,310.04 96.768,222.29 135.176,145.673C166.803,82.583 249.629,67.339 305.742,114.28C313.855,121.067 321.174,122.384 329.312,118.522C332.72,116.905 364.959,84.853 370.549,77.525C376.928,69.162 373.986,56.556 363.776,48.5C360.987,46.3 358.177,43.985 357.531,43.356C353.159,39.101 321.058,19.273 312.5,15.54C310.3,14.581 307.6,13.403 306.5,12.923C282.486,2.439 230.093,-3.437 201,1.09M234.581,6.75C238.913,11.147 247.714,22.025 251.686,27.892C251.832,28.108 281.518,7.093 281.518,7.093L313.953,18.127L315.928,24.814C321.089,42.294 326.728,75.771 326.728,75.771L319.114,77.946C309.421,80.716 297.186,86.735 289.503,92.514C286.205,94.995 283.055,96.819 282.503,96.569C276.488,93.836 267.356,90.386 262.512,89.017C257.036,87.469 256.452,87.033 255.68,83.912C253.4,74.697 248.826,61 248.029,61C247.535,61 235.028,84.695 234.704,84.371C234.09,83.757 212.055,85.66 209.792,86.523C209.014,86.819 191.076,61.835 190.031,62.481C188.957,63.145 187.095,76.7 186.772,86.209L186.51,93.917L166.153,105.704L159.296,100.935C152.187,95.99 138.156,88.511 137.402,89.265C136.58,90.087 141.152,103.545 145.157,112.094L149.183,120.688L142.842,129.395C136.867,137.598 136.327,138.068 133.5,137.525C128.478,136.559 98,135.687 98,136.509C98,138.414 110.238,151.958 117.311,157.881C123.508,163.07 125.008,164.843 124.569,166.461C124.265,167.582 121.627,180.974 121.48,181.554C121.333,182.134 117.806,183.138 113.641,183.785C102.528,185.513 81,193.664 81,196.143C81,197.509 104.31,208.552 112.491,211.062C120.846,213.626 121.412,214.208 122.439,221.286L123.133,226.072L69.573,203.21L33.263,249.1L32.221,244.8C29.254,232.545 29.249,232.575 35.628,223.184C38.84,218.455 59.241,195.995 59.241,195.995C59.241,195.995 38.262,173.168 35.526,169.156L30.552,161.862L32.792,153.181C34.353,147.134 35.707,143.989 37.256,142.815C43.682,137.944 60.261,130.7 74.773,126.421C75.762,126.129 75.68,125.205 74.401,122.273C71.03,114.54 64.83,84.068 64.83,84.068L78.972,66.5L118.7,67.921L122.167,31.264L130.334,26.735C145.69,18.217 143.771,18.648 153.2,21.594C157.765,23.02 181.382,33.941 181.527,33.785C181.672,33.628 193.157,12.731 195.581,9.335L199.986,3.161L228.915,1L234.581,6.75M194.873,44.144L202.309,51.928C206.399,56.209 211.94,62.837 214.623,66.657C220.638,75.221 220.598,75.225 225.166,65.779C227.22,61.532 239,42.466 239,41.702C239,37.936 217.556,12 214.442,12M287.248,23.932C279.666,28.112 261.017,44.558 261.017,44.558C261.017,44.558 268.654,65.325 269.914,70C271.174,74.675 272.377,79.081 272.587,79.791C272.841,80.65 275.449,79.408 280.376,76.083C287.747,71.109 298.892,65.041 304.376,63.016C309.199,61.235 303.967,37.493 295.833,24.25C293.427,20.333 293.754,20.345 287.248,23.932M134.5,72.084L142.689,75.434C151.443,79.015 160.509,83.831 165.683,87.651C170.456,91.173 171,90.743 171,83.442C171,75.993 172.455,65.273 174.643,56.602C176.42,49.56 176.582,49.794 166,44.121C158.635,40.173 141.566,34 138.013,34M83.196,80.667C80.828,80.916 78.659,81.725 78.376,82.464C76.937,86.211 82.555,109.013 87.263,118.54L89.5,123.067L111.761,123.283C126.314,123.425 133.866,123.154 133.571,122.5C129.783,114.113 124.619,99.555 122.866,92.325L120.643,83.151C120.643,83.151 89.658,79.986 83.196,80.667M75.5,140C66.347,142.376 53.954,147.68 46.704,152.323L40.907,156.034L42.704,159.101C47.987,168.119 66.551,188.031 69.636,187.988C70.111,187.981 75.225,185.601 81,182.698C90.089,178.129 100.131,174.64 110.275,172.527C112.994,171.961 112.87,171.778 104.094,163.427C99.169,158.74 92.54,151.439 89.363,147.203C86.187,142.966 83.343,139.204 83.044,138.842C82.745,138.479 79.35,139.001 75.5,140M105.034,248.235L108.82,255.867C148.488,335.837 244.739,361.558 314.9,310.938L323.3,304.878L327.733,309.189C330.172,311.56 335.811,317.474 340.266,322.332L348.365,331.163L345.031,333.832C274.681,390.122 177.238,388.844 110.986,330.762C91.238,313.449 62.941,276.633 63.017,268.349C63.073,262.148 74.266,240.46 76.836,241.572"/>
</g>
</svg>
