<svg version="1.1" width="400" height="400" xmlns="http://www.w3.org/2000/svg">
<g>
<path d="M108.250 42.496 C 107.563 43.277,107.000 44.610,107.000 45.458 C 107.000 46.306,106.550 47.000,106.000 47.000 C 105.450 47.000,105.000 47.801,105.000 48.779 C 105.000 49.758,104.100 51.207,103.000 52.000 C 101.900 52.793,101.000 54.143,101.000 55.000 C 101.000 55.857,100.100 57.207,99.000 58.000 C 97.900 58.793,97.000 60.242,97.000 61.221 C 97.000 62.199,96.550 63.000,96.000 63.000 C 95.450 63.000,95.000 63.801,95.000 64.779 C 95.000 65.758,94.100 67.207,93.000 68.000 C 91.900 68.793,91.000 70.143,91.000 71.000 C 91.000 71.857,90.100 73.207,89.000 74.000 C 87.900 74.793,87.000 76.242,87.000 77.221 C 87.000 78.199,86.550 79.000,86.000 79.000 C 85.450 79.000,85.000 79.801,85.000 80.779 C 85.000 81.758,84.100 83.207,83.000 84.000 C 81.900 84.793,81.000 86.242,81.000 87.221 C 81.000 88.199,80.550 89.000,80.000 89.000 C 79.450 89.000,79.000 89.719,79.000 90.599 C 79.000 91.478,77.650 93.459,76.000 95.000 C 74.350 96.541,73.000 98.522,73.000 99.401 C 73.000 100.281,72.550 101.000,72.000 101.000 C 71.450 101.000,71.000 101.801,71.000 102.779 C 71.000 103.758,70.100 105.207,69.000 106.000 C 67.900 106.793,67.000 108.242,67.000 109.221 C 67.000 110.199,66.550 111.000,66.000 111.000 C 65.450 111.000,65.000 111.801,65.000 112.779 C 65.000 113.758,64.100 115.207,63.000 116.000 C 61.900 116.793,61.000 118.143,61.000 119.000 C 61.000 119.857,60.100 121.207,59.000 122.000 C 57.900 122.793,57.000 124.242,57.000 125.221 C 57.000 126.199,56.550 127.000,56.000 127.000 C 55.450 127.000,55.000 127.801,55.000 128.779 C 55.000 129.758,54.100 131.207,53.000 132.000 C 51.900 132.793,51.000 134.143,51.000 135.000 C 51.000 135.857,50.100 137.207,49.000 138.000 C 47.900 138.793,47.000 140.242,47.000 141.221 C 47.000 142.199,46.550 143.000,46.000 143.000 C 45.450 143.000,45.000 143.801,45.000 144.779 C 45.000 145.758,44.100 147.207,43.000 148.000 C 41.900 148.793,41.000 150.242,41.000 151.221 C 41.000 152.199,40.550 153.000,40.000 153.000 C 39.450 153.000,39.000 153.801,39.000 154.779 C 39.000 155.758,38.100 157.207,37.000 158.000 C 34.802 159.584,33.895 175.000,36.000 175.000 C 36.556 175.000,37.000 177.667,37.000 181.000 C 37.000 184.333,37.444 187.000,38.000 187.000 C 38.571 187.000,39.000 190.000,39.000 194.000 C 39.000 198.000,39.429 201.000,40.000 201.000 C 40.583 201.000,41.000 204.333,41.000 209.000 C 41.000 213.667,41.417 217.000,42.000 217.000 C 42.550 217.000,43.000 219.250,43.000 222.000 C 43.000 224.750,43.450 227.000,44.000 227.000 C 44.556 227.000,45.000 229.667,45.000 233.000 C 45.000 236.333,45.444 239.000,46.000 239.000 C 46.571 239.000,47.000 242.000,47.000 246.000 C 47.000 250.000,47.429 253.000,48.000 253.000 C 48.571 253.000,49.000 256.000,49.000 260.000 C 49.000 264.000,49.429 267.000,50.000 267.000 C 50.556 267.000,51.000 269.667,51.000 273.000 C 51.000 276.333,51.444 279.000,52.000 279.000 C 52.550 279.000,53.000 281.250,53.000 284.000 C 53.000 286.750,53.450 289.000,54.000 289.000 C 54.583 289.000,55.000 292.333,55.000 297.000 C 55.000 301.667,55.417 305.000,56.000 305.000 C 56.571 305.000,57.000 308.000,57.000 312.000 C 57.000 316.000,57.429 319.000,58.000 319.000 C 58.556 319.000,59.000 321.667,59.000 325.000 C 59.000 328.333,59.444 331.000,60.000 331.000 C 60.556 331.000,61.000 333.667,61.000 337.000 C 61.000 340.333,61.444 343.000,62.000 343.000 C 62.556 343.000,63.000 345.667,63.000 349.000 C 63.000 352.333,63.444 355.000,64.000 355.000 C 64.550 355.000,65.000 355.900,65.000 357.000 C 65.000 358.952,65.667 359.000,93.000 359.000 L 121.000 359.000 121.000 350.000 C 121.000 344.667,120.593 341.000,120.000 341.000 C 119.381 341.000,119.000 335.667,119.000 327.000 L 119.000 313.000 129.000 313.000 L 139.000 313.000 139.000 318.000 C 139.000 320.750,139.450 323.000,140.000 323.000 C 140.600 323.000,141.000 327.000,141.000 333.000 C 141.000 339.000,141.400 343.000,142.000 343.000 C 142.583 343.000,143.000 346.333,143.000 351.000 L 143.000 359.000 200.000 359.000 L 257.000 359.000 257.000 351.000 C 257.000 346.333,257.417 343.000,258.000 343.000 C 258.600 343.000,259.000 339.000,259.000 333.000 C 259.000 327.000,259.400 323.000,260.000 323.000 C 260.550 323.000,261.000 320.750,261.000 318.000 L 261.000 313.000 271.000 313.000 L 281.000 313.000 281.000 327.000 C 281.000 335.667,280.619 341.000,280.000 341.000 C 279.407 341.000,279.000 344.667,279.000 350.000 L 279.000 359.000 307.000 359.000 C 334.333 359.000,335.000 358.952,335.000 357.000 C 335.000 355.900,335.450 355.000,336.000 355.000 C 336.556 355.000,337.000 352.333,337.000 349.000 C 337.000 345.667,337.444 343.000,338.000 343.000 C 338.556 343.000,339.000 340.333,339.000 337.000 C 339.000 333.667,339.444 331.000,340.000 331.000 C 340.556 331.000,341.000 328.333,341.000 325.000 C 341.000 321.667,341.444 319.000,342.000 319.000 C 342.571 319.000,343.000 316.000,343.000 312.000 C 343.000 308.000,343.429 305.000,344.000 305.000 C 344.583 305.000,345.000 301.667,345.000 297.000 C 345.000 292.333,345.417 289.000,346.000 289.000 C 346.550 289.000,347.000 286.750,347.000 284.000 C 347.000 281.250,347.450 279.000,348.000 279.000 C 348.556 279.000,349.000 276.333,349.000 273.000 C 349.000 269.667,349.444 267.000,350.000 267.000 C 350.571 267.000,351.000 264.000,351.000 260.000 C 351.000 256.000,351.429 253.000,352.000 253.000 C 352.571 253.000,353.000 250.000,353.000 246.000 C 353.000 242.000,353.429 239.000,354.000 239.000 C 354.556 239.000,355.000 236.333,355.000 233.000 C 355.000 229.667,355.444 227.000,356.000 227.000 C 356.550 227.000,357.000 224.750,357.000 222.000 C 357.000 219.250,357.450 217.000,358.000 217.000 C 358.583 217.000,359.000 213.667,359.000 209.000 C 359.000 204.333,359.417 201.000,360.000 201.000 C 360.571 201.000,361.000 198.000,361.000 194.000 C 361.000 190.000,361.429 187.000,362.000 187.000 C 362.556 187.000,363.000 184.333,363.000 181.000 C 363.000 177.667,363.444 175.000,364.000 175.000 C 366.105 175.000,365.198 159.584,363.000 158.000 C 361.900 157.207,361.000 155.758,361.000 154.779 C 361.000 153.801,360.550 153.000,360.000 153.000 C 359.450 153.000,359.000 152.199,359.000 151.221 C 359.000 150.242,358.100 148.793,357.000 148.000 C 355.900 147.207,355.000 145.758,355.000 144.779 C 355.000 143.801,354.550 143.000,354.000 143.000 C 353.450 143.000,353.000 142.199,353.000 141.221 C 353.000 140.242,352.100 138.793,351.000 138.000 C 349.900 137.207,349.000 135.857,349.000 135.000 C 349.000 134.143,348.100 132.793,347.000 132.000 C 345.900 131.207,345.000 129.758,345.000 128.779 C 345.000 127.801,344.550 127.000,344.000 127.000 C 343.450 127.000,343.000 126.199,343.000 125.221 C 343.000 124.242,342.100 122.793,341.000 122.000 C 339.900 121.207,339.000 119.857,339.000 119.000 C 339.000 118.143,338.100 116.793,337.000 116.000 C 335.900 115.207,335.000 113.758,335.000 112.779 C 335.000 111.801,334.550 111.000,334.000 111.000 C 333.450 111.000,333.000 110.199,333.000 109.221 C 333.000 108.242,332.100 106.793,331.000 106.000 C 329.900 105.207,329.000 103.758,329.000 102.779 C 329.000 101.801,328.550 101.000,328.000 101.000 C 327.450 101.000,327.000 100.281,327.000 99.401 C 327.000 98.522,325.650 96.541,324.000 95.000 C 322.350 93.459,321.000 91.478,321.000 90.599 C 321.000 89.719,320.550 89.000,320.000 89.000 C 319.450 89.000,319.000 88.199,319.000 87.221 C 319.000 86.242,318.100 84.793,317.000 84.000 C 315.900 83.207,315.000 81.758,315.000 80.779 C 315.000 79.801,314.550 79.000,314.000 79.000 C 313.450 79.000,313.000 78.199,313.000 77.221 C 313.000 76.242,312.100 74.793,311.000 74.000 C 309.900 73.207,309.000 71.857,309.000 71.000 C 309.000 70.143,308.100 68.793,307.000 68.000 C 305.900 67.207,305.000 65.758,305.000 64.779 C 305.000 63.801,304.550 63.000,304.000 63.000 C 303.450 63.000,303.000 62.199,303.000 61.221 C 303.000 60.242,302.100 58.793,301.000 58.000 C 299.900 57.207,299.000 55.857,299.000 55.000 C 299.000 54.143,298.100 52.793,297.000 52.000 C 295.900 51.207,295.000 49.758,295.000 48.779 C 295.000 47.801,294.550 47.000,294.000 47.000 C 293.450 47.000,293.000 46.293,293.000 45.429 C 293.000 40.873,295.653 40.998,199.821 41.038 C 123.092 41.070,109.312 41.290,108.250 42.496 M171.000 107.000 C 171.000 108.100,170.550 109.000,170.000 109.000 C 169.407 109.000,169.000 112.667,169.000 118.000 L 169.000 127.000 200.000 127.000 L 231.000 127.000 231.000 118.000 C 231.000 112.667,230.593 109.000,230.000 109.000 C 229.450 109.000,229.000 108.100,229.000 107.000 C 229.000 105.061,229.667 105.000,251.000 105.000 C 272.333 105.000,273.000 105.061,273.000 107.000 C 273.000 108.100,273.450 109.000,274.000 109.000 C 274.550 109.000,275.000 109.801,275.000 110.779 C 275.000 111.758,275.900 113.207,277.000 114.000 C 278.174 114.847,279.000 116.589,279.000 118.221 C 279.000 119.749,279.450 121.000,280.000 121.000 C 280.550 121.000,281.000 121.900,281.000 123.000 C 281.000 124.100,281.450 125.000,282.000 125.000 C 282.550 125.000,283.000 125.801,283.000 126.779 C 283.000 127.758,283.900 129.207,285.000 130.000 C 286.174 130.847,287.000 132.589,287.000 134.221 C 287.000 135.749,287.450 137.000,288.000 137.000 C 288.550 137.000,289.000 137.900,289.000 139.000 C 289.000 140.100,289.450 141.000,290.000 141.000 C 290.550 141.000,291.000 141.801,291.000 142.779 C 291.000 143.758,291.900 145.207,293.000 146.000 C 294.174 146.847,295.000 148.589,295.000 150.221 C 295.000 151.749,295.450 153.000,296.000 153.000 C 296.550 153.000,297.000 153.900,297.000 155.000 C 297.000 156.100,297.450 157.000,298.000 157.000 C 298.550 157.000,299.000 157.900,299.000 159.000 C 299.000 160.100,299.450 161.000,300.000 161.000 C 300.583 161.000,301.000 164.333,301.000 169.000 C 301.000 173.667,300.583 177.000,300.000 177.000 C 299.429 177.000,299.000 180.000,299.000 184.000 C 299.000 188.000,298.571 191.000,298.000 191.000 C 297.407 191.000,297.000 194.667,297.000 200.000 C 297.000 205.333,296.593 209.000,296.000 209.000 C 295.407 209.000,295.000 212.667,295.000 218.000 C 295.000 223.333,294.593 227.000,294.000 227.000 C 293.429 227.000,293.000 230.000,293.000 234.000 C 293.000 238.000,292.571 241.000,292.000 241.000 C 291.429 241.000,291.000 244.000,291.000 248.000 C 291.000 252.000,290.571 255.000,290.000 255.000 C 289.407 255.000,289.000 258.667,289.000 264.000 C 289.000 269.333,288.593 273.000,288.000 273.000 C 287.450 273.000,287.000 274.350,287.000 276.000 L 287.000 279.000 200.000 279.000 L 113.000 279.000 113.000 276.000 C 113.000 274.350,112.550 273.000,112.000 273.000 C 111.407 273.000,111.000 269.333,111.000 264.000 C 111.000 258.667,110.593 255.000,110.000 255.000 C 109.429 255.000,109.000 252.000,109.000 248.000 C 109.000 244.000,108.571 241.000,108.000 241.000 C 107.429 241.000,107.000 238.000,107.000 234.000 C 107.000 230.000,106.571 227.000,106.000 227.000 C 105.407 227.000,105.000 223.333,105.000 218.000 C 105.000 212.667,104.593 209.000,104.000 209.000 C 103.407 209.000,103.000 205.333,103.000 200.000 C 103.000 194.667,102.593 191.000,102.000 191.000 C 101.429 191.000,101.000 188.000,101.000 184.000 C 101.000 180.000,100.571 177.000,100.000 177.000 C 99.417 177.000,99.000 173.667,99.000 169.000 C 99.000 164.333,99.417 161.000,100.000 161.000 C 100.550 161.000,101.000 160.100,101.000 159.000 C 101.000 157.900,101.450 157.000,102.000 157.000 C 102.550 157.000,103.000 156.100,103.000 155.000 C 103.000 153.900,103.450 153.000,104.000 153.000 C 104.550 153.000,105.000 151.749,105.000 150.221 C 105.000 148.589,105.826 146.847,107.000 146.000 C 108.100 145.207,109.000 143.758,109.000 142.779 C 109.000 141.801,109.450 141.000,110.000 141.000 C 110.550 141.000,111.000 140.100,111.000 139.000 C 111.000 137.900,111.450 137.000,112.000 137.000 C 112.550 137.000,113.000 135.749,113.000 134.221 C 113.000 132.589,113.826 130.847,115.000 130.000 C 116.100 129.207,117.000 127.758,117.000 126.779 C 117.000 125.801,117.450 125.000,118.000 125.000 C 118.550 125.000,119.000 124.100,119.000 123.000 C 119.000 121.900,119.450 121.000,120.000 121.000 C 120.550 121.000,121.000 119.749,121.000 118.221 C 121.000 116.589,121.826 114.847,123.000 114.000 C 124.100 113.207,125.000 111.758,125.000 110.779 C 125.000 109.801,125.450 109.000,126.000 109.000 C 126.550 109.000,127.000 108.100,127.000 107.000 C 127.000 105.061,127.667 105.000,149.000 105.000 C 170.333 105.000,171.000 105.061,171.000 107.000 M244.250 186.496 C 243.563 187.277,243.000 188.610,243.000 189.458 C 243.000 190.306,242.550 191.000,242.000 191.000 C 241.450 191.000,241.000 192.800,241.000 195.000 C 241.000 197.200,240.550 199.000,240.000 199.000 C 239.375 199.000,239.000 205.000,239.000 215.000 C 239.000 225.000,239.375 231.000,240.000 231.000 C 240.550 231.000,241.000 232.800,241.000 235.000 C 241.000 237.200,241.450 239.000,242.000 239.000 C 242.550 239.000,243.000 239.707,243.000 240.571 C 243.000 241.436,243.643 242.786,244.429 243.571 C 248.171 247.314,255.000 242.775,255.000 236.545 C 255.000 234.595,255.450 233.000,256.000 233.000 C 256.632 233.000,257.000 226.000,257.000 214.000 C 257.000 202.000,256.632 195.000,256.000 195.000 C 255.450 195.000,255.000 193.855,255.000 192.455 C 255.000 187.166,247.379 182.942,244.250 186.496 M150.250 188.496 C 149.563 189.277,149.000 190.610,149.000 191.458 C 149.000 192.306,148.550 193.000,148.000 193.000 C 147.450 193.000,147.000 194.350,147.000 196.000 C 147.000 197.650,146.550 199.000,146.000 199.000 C 145.370 199.000,145.000 205.667,145.000 217.000 C 145.000 228.333,145.370 235.000,146.000 235.000 C 146.550 235.000,147.000 236.350,147.000 238.000 C 147.000 239.650,147.450 241.000,148.000 241.000 C 148.550 241.000,149.000 241.707,149.000 242.571 C 149.000 244.792,151.479 247.000,153.974 247.000 C 156.886 247.000,161.000 242.635,161.000 239.545 C 161.000 238.145,161.450 237.000,162.000 237.000 C 162.556 237.000,163.000 234.333,163.000 231.000 C 163.000 227.667,163.444 225.000,164.000 225.000 C 164.583 225.000,165.000 221.667,165.000 217.000 C 165.000 212.333,164.583 209.000,164.000 209.000 C 163.444 209.000,163.000 206.333,163.000 203.000 C 163.000 199.667,162.556 197.000,162.000 197.000 C 161.450 197.000,161.000 195.855,161.000 194.455 C 161.000 189.166,153.379 184.942,150.250 188.496 " stroke="none" fill-rule="evenodd"></path>
</g>
</svg>