<?xml version="1.0" encoding="UTF-8" standalone="no"?>
<!DOCTYPE svg PUBLIC "-//W3C//DTD SVG 1.1//EN" "http://www.w3.org/Graphics/SVG/1.1/DTD/svg11.dtd">
<svg width="100%" height="100%" viewBox="0 0 515 515" version="1.1" xmlns="http://www.w3.org/2000/svg" xmlns:xlink="http://www.w3.org/1999/xlink" xml:space="preserve" xmlns:serif="http://www.serif.com/" style="fill-rule:evenodd;clip-rule:evenodd;stroke-linejoin:round;stroke-miterlimit:2;">
    <g id="svgg">
        <path id="path0" d="M287,111C287,111.55 285.65,112 284,112C282.35,112 281,112.45 281,113C281,113.55 280.315,114 279.478,114C277.498,114 267,124.498 267,126.478C267,127.315 192,405 192,405L219,405C236.333,405 259.999,397 260.76,397C262.528,397 265,394.547 265,392.792C265,392.049 323,190.393 323,188.429C323,182.011 323.047,182 351.429,182C367.81,182 377,182.359 377,183C377,183.55 387.207,186.9 388,188C388.793,189.1 390.032,190 390.754,190C392.577,190 403.45,208 404,208C404.611,208 405,212.667 405,220C405,227.333 404.611,232 404,232C403.45,232 375,259.45 375,260C375,260.632 368,261 356,261C344,261 337,261.368 337,262C337,262.55 336.1,263 335,263C333.9,263 333,263.45 333,264C333,264.55 332.315,265 331.478,265C329.498,265 319,275.498 319,277.478C319,278.315 304.55,327 304,327C303.45,327 303,328.35 303,330L303,333L340,333C364,333 377,332.649 377,332C377,331.429 380,331 384,331C388,331 391,330.571 391,330C391,329.45 435.069,309.007 435.764,309.005C437.324,308.999 454,292.457 454,290.915C454,290.303 455.35,288.541 457,287C458.65,285.459 478,235 478,231C478,227 478.429,224 479,224C479.556,224 480,221.333 480,218C480,214.667 479.556,212 479,212C478.429,212 478,209 478,205C478,201 454,150.696 454,150.083C454,148.628 439.372,134 437.917,134C437.304,134 383,111.55 383,111C383,110.347 366.333,110 335,110C303.667,110 287,110.347 287,111M140,183C140,183.571 137,184 133,184C129,184 126,184.429 126,185C126,185.55 90.857,200 90,200C89.143,200 87.793,200.9 87,202C86.207,203.1 84.789,204 83.849,204C81.845,204 59,226.278 59,228.231C59,228.961 38.556,285 38,285C37.389,285 37,289.667 37,297C37,304.333 37.389,309 38,309C38.55,309 39,311.25 39,314C39,316.75 39.45,319 40,319C40.55,319 41,320.8 41,323C41,325.2 61,362.303 61,362.915C61,364.477 111.35,399 113,399C114.65,399 144.333,405 155,405L172,405L172,402C172,400.35 186,352.156 186,348.467C186,341.648 181.82,335 177.533,335C176.69,335 176,334.55 176,334C176,333.368 169,333 157,333C145,333 138,332.632 138,332C138,331.45 136.65,331 135,331C133.35,331 132,330.55 132,330C132,329.45 131.317,329 130.481,329C128.504,329 116,316.496 116,314.519C116,313.683 115.55,313 115,313C114.45,313 114,312.1 114,311L114,278.221C114,276.589 114.826,274.847 116,274C117.1,273.207 118,271.991 118,271.297C118,269.278 126.153,261.513 130.25,259.63C132.313,258.682 134,257.477 134,256.953C134,256.429 135.35,256 137,256C138.65,256 140,255.55 140,255C140,254.357 150,254 168,254C186,254 208.195,246.895 209.545,245.545C210.895,244.195 212,242.495 212,241.766C212,241.038 230,186.65 230,185L230,182L185,182C155.667,182 140,182.348 140,183"/>
    </g>
</svg>
