<svg version="1.1" width="400" height="400" xmlns="http://www.w3.org/2000/svg">
<g>
<path d="M189.872 0.911 C 186.401 2.035,182.308 4.313,144.000 26.441 C 100.519 51.557,98.206 52.900,93.000 56.038 C 90.525 57.530,85.350 60.459,81.500 62.547 C 77.650 64.635,73.375 67.102,72.000 68.029 C 70.625 68.956,67.475 70.848,65.000 72.234 C 62.525 73.620,57.688 76.384,54.250 78.377 C 50.813 80.370,45.188 83.606,41.750 85.569 C 33.903 90.049,29.005 94.764,25.353 101.352 L 22.500 106.500 22.500 200.000 L 22.500 293.500 25.353 298.648 C 29.005 305.236,33.903 309.951,41.750 314.431 C 47.603 317.773,50.213 319.288,66.250 328.648 C 69.688 330.654,77.000 334.863,82.500 338.000 C 88.000 341.137,95.200 345.272,98.500 347.187 C 101.800 349.103,113.725 355.982,125.000 362.475 C 136.275 368.967,153.375 378.881,163.000 384.505 C 190.376 400.501,187.905 399.500,200.000 399.500 C 212.095 399.500,209.624 400.501,237.000 384.505 C 246.625 378.881,263.725 368.967,275.000 362.475 C 286.275 355.982,298.200 349.103,301.500 347.187 C 304.800 345.272,312.000 341.137,317.500 338.000 C 323.000 334.863,330.313 330.654,333.750 328.648 C 349.787 319.288,352.397 317.773,358.250 314.431 C 366.097 309.951,370.995 305.236,374.647 298.648 L 377.500 293.500 377.500 200.000 L 377.500 106.500 374.647 101.352 C 370.995 94.764,366.097 90.049,358.250 85.569 C 354.813 83.606,349.188 80.370,345.750 78.377 C 342.313 76.384,337.475 73.620,335.000 72.234 C 332.525 70.848,329.375 68.956,328.000 68.029 C 326.625 67.102,322.350 64.635,318.500 62.547 C 314.650 60.459,309.475 57.530,307.000 56.038 C 302.094 53.081,297.159 50.217,271.500 35.435 C 262.150 30.048,247.975 21.840,240.000 17.194 C 211.202 0.417,211.654 0.615,201.500 0.321 C 196.550 0.177,191.317 0.443,189.872 0.911 M219.250 83.582 C 251.376 89.078,279.951 107.531,298.446 134.726 C 302.816 141.152,302.985 140.248,296.750 143.797 C 293.863 145.440,285.875 150.047,279.000 154.034 C 272.125 158.021,264.475 162.408,262.000 163.784 C 259.525 165.160,256.237 167.171,254.692 168.252 C 253.148 169.333,251.780 170.057,251.652 169.859 C 218.042 117.999,141.500 138.944,141.500 200.000 C 141.500 257.115,213.770 281.711,247.393 236.039 L 251.724 230.154 254.612 231.908 C 256.201 232.872,259.525 234.799,262.000 236.189 C 264.475 237.580,272.125 241.979,279.000 245.966 C 285.875 249.953,293.863 254.560,296.750 256.203 C 300.013 258.060,301.736 259.628,301.303 260.345 C 252.212 341.641,133.108 335.441,92.936 249.500 C 53.109 164.298,126.621 67.737,219.250 83.582 M305.000 187.000 L 305.000 194.000 311.500 194.000 L 318.000 194.000 318.000 200.000 L 318.000 206.000 311.500 206.000 L 305.000 206.000 305.000 213.000 L 305.000 220.000 298.500 220.000 L 292.000 220.000 292.000 213.000 L 292.000 206.000 285.500 206.000 L 279.000 206.000 279.000 200.000 L 279.000 194.000 285.500 194.000 L 292.000 194.000 292.000 187.000 L 292.000 180.000 298.500 180.000 L 305.000 180.000 305.000 187.000 M354.000 187.000 L 354.000 194.000 361.000 194.000 L 368.000 194.000 368.000 200.000 L 368.000 206.000 361.000 206.000 L 354.000 206.000 354.000 213.000 L 354.000 220.000 348.000 220.000 L 342.000 220.000 342.000 213.000 L 342.000 206.000 335.500 206.000 L 329.000 206.000 329.000 200.000 L 329.000 194.000 335.500 194.000 L 342.000 194.000 342.000 187.000 L 342.000 180.000 348.000 180.000 L 354.000 180.000 354.000 187.000 " stroke="none" fill-rule="evenodd"></path>
</g>
</svg>