<svg id="svg" version="1.1" width="400" height="400" xmlns="http://www.w3.org/2000/svg" xmlns:xlink="http://www.w3.org/1999/xlink" style="display: block;"><g id="svgg"><path id="path0" d="M72.496 97.448 C 56.465 101.380,49.480 112.649,49.529 134.500 C 49.583 158.210,59.146 169.000,80.107 169.000 C 95.452 169.000,101.000 165.773,101.000 156.845 C 101.000 150.057,101.028 150.068,93.660 154.000 C 77.193 162.787,65.000 153.787,65.000 132.846 C 65.000 111.623,78.913 102.345,95.261 112.665 C 100.106 115.723,101.004 115.100,100.985 108.691 C 100.954 98.428,88.517 93.519,72.496 97.448 M192.944 97.652 C 192.010 97.904,190.144 101.749,188.270 107.286 C 186.554 112.354,183.063 122.350,180.511 129.500 C 177.960 136.650,175.491 143.850,175.024 145.500 C 173.662 150.315,171.826 155.298,170.361 158.154 C 169.613 159.614,169.000 162.652,169.000 164.904 L 169.000 169.000 174.965 169.000 C 181.775 169.000,181.663 169.114,185.103 158.637 L 187.281 152.000 199.955 152.000 L 212.630 152.000 214.315 155.534 C 215.242 157.478,216.000 159.712,216.000 160.500 C 216.000 161.288,216.758 163.522,217.685 165.466 L 219.370 169.000 226.217 169.000 C 234.153 169.000,235.107 168.010,232.769 162.196 C 231.251 158.419,230.648 156.721,226.481 144.500 C 225.168 140.650,222.471 133.000,220.488 127.500 C 218.504 122.000,215.832 114.350,214.549 110.500 C 211.193 100.425,210.021 98.241,207.628 97.598 C 205.259 96.963,195.364 96.999,192.944 97.652 M289.347 98.538 C 289.008 99.422,293.067 108.732,298.878 120.401 L 309.000 140.726 309.000 153.291 C 309.000 167.864,309.541 169.000,316.490 169.000 C 324.184 169.000,324.000 169.350,324.000 154.717 L 324.000 141.648 331.661 126.574 C 335.875 118.283,340.642 108.898,342.255 105.717 C 346.040 98.256,345.538 96.996,338.781 97.014 C 332.001 97.031,329.000 97.859,329.000 99.712 C 329.000 100.526,328.355 102.386,327.568 103.846 C 325.778 107.162,321.727 116.134,319.472 121.774 C 317.902 125.703,315.000 126.421,315.000 122.882 C 315.000 122.401,313.504 118.744,311.676 114.754 C 309.848 110.764,307.490 105.387,306.436 102.804 C 304.314 97.603,303.212 97.034,295.219 97.014 C 291.379 97.004,289.776 97.420,289.347 98.538 M112.455 99.257 C 112.190 99.948,112.091 115.810,112.236 134.507 L 112.500 168.500 116.920 168.816 C 126.264 169.483,126.000 169.929,126.000 153.481 L 126.000 139.000 129.132 139.000 C 135.547 139.000,139.157 142.774,143.482 154.000 C 144.435 156.475,145.842 159.694,146.608 161.154 C 147.374 162.614,148.000 164.511,148.000 165.369 C 148.000 167.858,151.603 169.122,157.776 168.799 L 163.500 168.500 163.273 164.694 C 163.149 162.601,162.430 159.676,161.675 158.194 C 160.921 156.712,159.504 153.700,158.526 151.500 C 155.069 143.722,152.626 139.475,150.388 137.356 L 148.125 135.211 152.562 132.406 C 155.003 130.863,157.000 129.053,157.000 128.384 C 157.000 127.714,157.543 126.986,158.207 126.764 C 159.533 126.322,160.615 113.567,159.649 109.764 C 158.828 106.532,154.125 101.792,149.713 99.750 C 144.906 97.525,113.280 97.106,112.455 99.257 M238.538 100.826 C 238.197 102.381,238.375 104.856,238.934 106.326 L 239.950 109.000 253.475 109.000 C 268.854 109.000,268.496 108.682,262.692 117.187 C 260.322 120.659,258.074 124.175,257.695 125.000 C 257.316 125.825,254.755 129.875,252.004 134.000 C 249.253 138.125,246.545 142.400,245.986 143.500 C 245.427 144.600,244.090 146.850,243.013 148.500 C 231.170 166.655,233.377 169.000,262.300 169.000 C 286.297 169.000,286.000 169.090,286.000 161.800 L 286.000 157.000 270.500 157.000 C 261.975 157.000,255.000 156.798,255.000 156.550 C 255.000 156.303,256.350 154.100,258.000 151.655 C 259.650 149.210,261.000 146.713,261.000 146.105 C 261.000 145.497,261.395 145.000,261.879 145.000 C 262.362 145.000,263.317 143.650,264.000 142.000 C 264.683 140.350,265.638 139.000,266.121 139.000 C 266.605 139.000,267.000 138.526,267.000 137.947 C 267.000 137.368,269.025 133.791,271.500 130.000 C 273.975 126.209,276.000 122.632,276.000 122.053 C 276.000 121.474,276.370 121.000,276.823 121.000 C 277.275 121.000,278.652 118.985,279.882 116.523 C 281.111 114.060,282.541 111.784,283.059 111.464 C 283.576 111.144,284.000 107.984,284.000 104.441 L 284.000 98.000 261.579 98.000 L 239.159 98.000 238.538 100.826 M142.757 111.757 C 149.432 118.432,144.258 126.962,133.047 127.765 L 126.000 128.269 126.000 118.525 L 126.000 108.781 133.257 109.148 C 139.143 109.445,140.938 109.938,142.757 111.757 M201.282 115.250 C 201.565 116.487,202.357 119.075,203.040 121.000 C 204.579 125.333,206.395 130.555,207.735 134.500 C 208.296 136.150,209.082 138.287,209.484 139.250 C 210.151 140.850,209.342 141.000,200.072 141.000 L 189.930 141.000 191.121 138.774 C 191.777 137.549,192.653 135.186,193.069 133.524 C 193.970 129.918,195.749 124.729,197.631 120.216 C 198.384 118.410,199.000 116.047,199.000 114.966 C 199.000 112.275,200.648 112.480,201.282 115.250 M110.000 231.729 C 107.175 232.804,107.031 234.562,107.015 268.133 L 107.000 301.767 109.250 302.370 C 112.175 303.154,118.402 303.167,120.418 302.393 C 123.122 301.355,122.782 233.489,120.066 232.035 C 118.018 230.939,112.514 230.772,110.000 231.729 M205.796 232.893 C 187.556 241.417,191.094 262.439,212.562 273.098 C 223.268 278.414,225.820 281.598,223.391 286.611 C 220.560 292.457,210.060 293.628,200.775 289.133 C 193.813 285.763,193.000 286.103,193.000 292.385 C 193.000 301.692,206.118 306.477,221.746 302.869 C 238.995 298.888,245.549 278.730,233.256 267.468 C 229.982 264.469,228.575 263.656,218.500 258.948 C 209.698 254.834,206.759 248.812,211.326 244.246 C 213.741 241.831,223.125 242.133,228.956 244.815 C 231.406 245.942,233.769 246.643,234.206 246.373 C 235.203 245.757,235.226 236.850,234.235 235.500 C 230.941 231.016,213.277 229.397,205.796 232.893 M45.683 232.650 C 45.307 233.026,45.000 235.460,45.000 238.060 C 45.000 243.807,45.375 244.000,56.582 244.000 L 65.000 244.000 65.000 272.893 C 65.000 304.945,64.561 303.013,71.832 302.986 C 73.849 302.979,76.513 302.701,77.750 302.370 L 80.000 301.767 80.000 272.921 L 80.000 244.075 89.250 243.788 L 98.500 243.500 98.500 238.000 L 98.500 232.500 72.433 232.234 C 58.096 232.087,46.059 232.275,45.683 232.650 M138.098 235.149 C 136.495 239.746,136.588 300.188,138.200 301.800 C 139.450 303.050,147.668 303.448,150.418 302.393 C 151.733 301.889,152.000 299.859,152.000 290.393 L 152.000 279.000 155.750 278.983 C 174.685 278.895,185.956 269.633,186.152 254.000 C 186.354 237.911,177.364 232.000,152.694 232.000 L 139.196 232.000 138.098 235.149 M165.770 244.809 C 165.988 245.464,166.714 246.000,167.382 246.000 C 168.720 246.000,171.000 251.466,171.000 254.672 C 171.000 262.121,165.511 267.000,157.132 267.000 L 152.000 267.000 152.000 254.884 L 152.000 242.767 158.686 243.193 C 162.625 243.444,165.536 244.108,165.770 244.809 " stroke="none" fill="#000000" fill-rule="evenodd"></path></g></svg>