<svg width="100%" height="100%" viewBox="0 0 515 515" version="1.1" xmlns="http://www.w3.org/2000/svg" style="fill-rule:evenodd;clip-rule:evenodd;stroke-linejoin:round;stroke-miterlimit:2;">
    <g>
        <path d="M310,68.85C310,72.965 301.832,69.864 297.75,70.388C290.305,71.344 284.059,72.217 277,74C261.468,77.924 248.008,84.587 234,92C226.802,95.809 217.919,100.408 212,105.918C205.158,112.287 198.036,118.353 191.274,124.807C187.605,128.309 184.295,132.176 181,136.033C179.213,138.124 180.064,139.708 176.571,140C175.952,140.052 175.619,139.049 175,139C167.184,138.377 159.34,138 151.5,138C124.145,138 96.525,144.651 73,159C43.797,176.812 22.486,202.786 10,234C6.604,242.489 2.482,252.006 1.753,261.249C1.012,270.648 0.392,280.072 0.391,289.5C0.39,308.319 2.066,330.148 10,348C17.318,364.465 27.424,383.425 40.138,396.029C49.79,405.597 61.822,413.982 72.847,422C119.301,455.785 194.984,444.625 242.259,444.625C292.412,444.625 326.697,449.531 369,441C428.261,429.049 478.956,383.111 501,328C505.815,315.963 512.401,301.851 513.25,288.75C513.967,277.682 514.5,266.591 514.5,255.5C514.5,244.409 513.967,233.318 513.25,222.25C512.868,216.359 510.695,207.79 508,202.401C506.519,199.438 504.059,197.024 502.653,194.024C500.589,189.619 500.554,183.663 499,179C497.671,175.014 495.096,170.711 493.108,167C475.028,133.255 445.804,105.891 412,88C391.773,77.295 368.751,70.741 346,68.858C340.014,68.363 334.007,68.001 328,68C321.993,67.999 310,62.843 310,68.85M348,98C348,99.863 351.667,98.667 353.5,99C360.812,100.329 367.951,101.65 375,104C392.215,109.738 410.318,117.695 423.936,130C455.736,158.733 482.397,193.86 486,238C487.333,254.333 487.333,258.667 486,275C484.753,290.279 479.678,305.804 474,320C469.298,331.755 461.296,343.694 453,353.074C438.204,369.803 422.013,386.402 401.97,397C365.939,416.051 321.972,420.135 283,409C247.807,398.945 220.32,374.816 195.176,349C182.977,336.475 171.727,323.228 159.312,310.837C154.73,306.264 142,297.567 142,289C142,282.832 149.149,275.878 155.057,275.034C156.946,274.764 161.942,278.111 163.029,279.159C172.483,288.273 181.713,297.617 190.9,307C211.772,328.316 230.208,353.392 256.221,369C287.837,387.97 325.054,392.987 361,384C372.461,381.135 384.946,377.658 394.933,371C412.437,359.331 428.349,344.597 440,327C442.722,322.89 444.201,318.53 446.088,314C452.263,299.18 457.188,286.305 459,270C459.575,264.822 461,259.709 461,254.5C461,235.222 454.927,218.316 448,201C443.109,188.773 437.417,175.484 427.846,165.971C415.498,153.699 399.666,139.666 383,133C336.826,114.53 277.396,116.92 240.9,154.102L234.911,160.203L233.088,158.102C229.912,154.438 222.298,152.149 218,150L214,148C213.356,147.756 211.545,148.001 212,147.484C234.059,122.422 264.688,106.803 297,100C307.464,97.797 316.945,97 328,97C334.675,97 348,91.325 348,98M160,168L179,170C188.327,171.382 198.561,174.781 207,179C236.022,193.511 255.294,219.921 277,243C278.475,244.569 292.665,259.224 296,263C298.457,265.781 305.817,272.561 305.303,278.044C304.782,283.605 297.586,293 291,293C286.282,293 282.991,287.89 279.601,284.607C266.106,271.538 254.699,255.871 242,242.008C219.732,217.699 198.613,197.127 165,194C151.366,192.732 147.634,192.602 134,194C124.344,194.99 113.515,200.024 105.221,205C93.634,211.952 83.845,219.558 75,230.118C68.613,237.743 64.363,248.753 61,258C56.831,269.465 56,279.838 56,292.5C56,325.09 70.148,352.626 97,372C117.243,386.605 139.205,389 164.099,389L192.198,389L195,392C200.864,398.279 209.233,403.514 216,409C217.289,410.045 218.679,410.96 219.973,412C221.347,413.104 225.751,415.223 224,415.429C211.419,416.91 198.668,416.072 186,416C165.959,415.887 142.223,416.436 122,411C115.264,409.189 109.32,405.783 103,403C79.601,392.697 60.459,377.558 47.187,355C41.422,345.202 35.79,335.158 33,324C20.105,272.418 41.014,218.324 85,189C101.197,178.202 118.681,171.415 138,169C143.005,168.374 147.956,167 153,167C155.357,167 160,165.643 160,168"/>
    </g>
</svg>
