<svg
   xmlns="http://www.w3.org/2000/svg"
   version="1.1"
   viewBox="0 0 120 120">
                    <g
   id="g14"
   transform="translate(-0.19899054,-42.065963)"><path
     d="m 57.3,96.3 -1.1,-0.4 c -0.1,-0.1 -0.3,-0.1 -0.4,0 -0.1,0 -0.3,0.1 -0.3,0.2 0,0 -0.1,0.1 -0.1,0.2 0,0.1 -0.1,0.1 -0.1,0.2 L 55,96.8 c -0.1,0.1 -0.2,0.2 -0.4,0.3 -0.1,0.1 -0.3,0.1 -0.4,0.2 -0.2,0.1 -0.4,0.2 -0.6,0.2 -0.7,0.1 -1.4,0 -2,-0.2 -0.4,-0.2 -0.8,-0.4 -1.1,-0.8 -0.3,-0.3 -0.6,-0.7 -0.7,-1.1 -0.2,-0.4 -0.3,-0.9 -0.3,-1.4 0,-0.5 0.1,-0.9 0.3,-1.4 0.2,-0.4 0.4,-0.8 0.7,-1.1 0.2,-0.5 0.5,-0.8 0.9,-1 0.4,-0.2 0.9,-0.3 1.4,-0.3 0.3,0 0.6,0 0.9,0.1 0.1,0.1 0.3,0.1 0.4,0.2 0.1,0.1 0.3,0.1 0.4,0.2 0.1,0.1 0.2,0.2 0.4,0.2 0,0.1 0.1,0.2 0.2,0.3 l 0.1,0.2 c 0,0.1 0.1,0.1 0.1,0.2 0.1,0.1 0.2,0.2 0.4,0.2 h 0.4 l 1.1,-0.4 c 0.1,0 0.1,-0.1 0.2,-0.1 0,0 0.1,-0.1 0.1,-0.2 v -0.2 c 0,-0.1 0,-0.1 -0.1,-0.2 -0.2,-0.3 -0.4,-0.5 -0.6,-0.8 -0.2,-0.2 -0.4,-0.3 -0.5,-0.5 -0.2,-0.2 -0.4,-0.3 -0.6,-0.4 -0.4,-0.2 -0.9,-0.4 -1.4,-0.6 -0.5,-0.1 -1,-0.2 -1.5,-0.2 -0.8,0 -1.5,0.1 -2.2,0.4 -0.7,0.3 -1.3,0.7 -1.8,1.2 -0.5,0.5 -0.9,1.1 -1.2,1.8 -0.3,0.7 -0.4,1.4 -0.4,2.2 0,0.8 0.2,1.5 0.4,2.2 0.6,1.3 1.7,2.4 3,3 0.7,0.3 1.4,0.5 2.2,0.4 0.5,0 1,-0.1 1.5,-0.2 0.2,-0.1 0.5,-0.2 0.7,-0.3 0.2,-0.1 0.4,-0.2 0.7,-0.3 0.4,-0.2 0.8,-0.6 1.2,-0.9 0.1,-0.1 0.2,-0.3 0.3,-0.4 0.1,-0.1 0.2,-0.3 0.3,-0.4 0,-0.1 0.1,-0.1 0.1,-0.2 v -0.2 c 0,-0.1 -0.1,-0.1 -0.1,-0.2 z m 10.9,0.9 c -0.3,-0.4 -0.7,-0.9 -1,-1.4 l -0.1,-0.1 v -0.1 c 0,0 0,-0.1 0.1,-0.1 0.1,0 0.1,-0.1 0.1,-0.1 0.5,-0.3 0.9,-0.7 1.2,-1.1 0.4,-0.6 0.6,-1.4 0.6,-2.2 0,-0.5 -0.1,-1 -0.3,-1.5 -0.1,-0.2 -0.2,-0.4 -0.3,-0.7 -0.1,-0.2 -0.3,-0.4 -0.5,-0.6 -0.3,-0.3 -0.7,-0.6 -1.2,-0.8 -0.5,-0.2 -1,-0.3 -1.5,-0.3 h -4.7 c -0.1,0 -0.1,0.1 -0.2,0.1 0,0 -0.1,0.1 -0.1,0.2 v 10.3 c 0,0.1 0.1,0.1 0.1,0.2 0,0 0.1,0.1 0.2,0.1 h 1.6 c 0.1,0 0.1,-0.1 0.2,-0.1 0.1,-0.1 0.1,-0.2 0.1,-0.4 V 96.1 96 c 0,0 0,-0.1 0.1,-0.1 l 0.1,-0.1 h 1.2 c 0.1,0 0.3,0 0.4,0.1 0.1,0.1 0.2,0.1 0.3,0.2 l 1,1.4 0.5,0.7 c 0.2,0.2 0.3,0.4 0.5,0.7 l 0.3,0.3 c 0.1,0.1 0.3,0.1 0.4,0.1 h 1.9 c 0.1,0 0.1,-0.1 0.1,-0.2 v -0.2 c 0,-0.1 0,-0.1 -0.1,-0.2 -0.3,-0.5 -0.6,-1 -1,-1.5 z M 67,92.1 c 0,0.3 0,0.5 -0.1,0.8 -0.1,0.2 -0.2,0.4 -0.4,0.5 -0.1,0.1 -0.3,0.3 -0.5,0.3 -0.2,0.1 -0.4,0.1 -0.6,0.1 h -2.6 c 0,0 -0.1,0 -0.1,-0.1 l -0.1,-0.1 v -2.9 -0.2 c 0,-0.1 0,-0.1 0.1,-0.1 l 0.1,-0.1 h 2.6 c 0.3,0 0.6,0.1 0.8,0.2 0.2,0.1 0.4,0.3 0.5,0.5 0,0.1 0.1,0.2 0.1,0.3 0,0.1 0.1,0.2 0.1,0.3 0,0.1 0.1,0.3 0.1,0.5 z m 14,-2.3 c -0.5,-0.5 -1.1,-0.9 -1.8,-1.2 -0.7,-0.3 -1.4,-0.4 -2.2,-0.4 -0.8,0 -1.5,0.2 -2.2,0.4 -1.4,0.6 -2.4,1.7 -3,3 -0.3,0.7 -0.4,1.4 -0.4,2.2 0,0.8 0.2,1.5 0.4,2.2 0.6,1.4 1.7,2.4 3,3 0.7,0.3 1.4,0.4 2.2,0.4 0.8,0 1.5,-0.2 2.2,-0.4 1.4,-0.6 2.4,-1.7 3,-3 0.3,-0.7 0.4,-1.4 0.4,-2.2 0,-0.8 -0.2,-1.5 -0.4,-2.2 C 82,90.9 81.6,90.3 81,89.8 Z m -4,7.6 c -0.5,0 -0.9,-0.1 -1.3,-0.3 -0.4,-0.2 -0.8,-0.5 -1.1,-0.8 -0.3,-0.3 -0.6,-0.7 -0.7,-1.1 -0.2,-0.4 -0.3,-0.9 -0.3,-1.4 0,-0.5 0.1,-0.9 0.3,-1.4 0.3,-0.9 1,-1.5 1.8,-1.9 0.4,-0.2 0.9,-0.3 1.3,-0.3 0.4,0 0.9,0.1 1.3,0.3 0.4,0.2 0.8,0.5 1.1,0.8 0.4,0.3 0.6,0.7 0.8,1.1 0.2,0.4 0.3,0.9 0.3,1.4 0,0.5 -0.1,0.9 -0.3,1.4 -0.2,0.4 -0.4,0.8 -0.7,1.1 -0.3,0.3 -0.7,0.6 -1.1,0.8 -0.4,0.2 -0.9,0.3 -1.4,0.3 z M 94.3,88.3 H 93 c -0.1,0 -0.1,0.1 -0.2,0.1 0,0 -0.1,0.1 -0.1,0.2 v 5.8 c 0,0.1 0,0.1 -0.1,0.2 -0.1,0 -0.1,0 -0.2,-0.1 l -6.5,-6.1 c -0.1,0 -0.1,-0.1 -0.2,-0.1 h -0.2 c -0.1,0 -0.1,0 -0.2,0.1 0,0.1 -0.1,0.1 -0.1,0.2 v 10.3 c 0,0.1 0.1,0.1 0.1,0.2 0,0 0.1,0.1 0.2,0.1 H 87 c 0.1,0 0.3,-0.1 0.4,-0.2 0.1,-0.1 0.2,-0.2 0.2,-0.4 v -5.4 c 0,-0.1 0,-0.2 0.1,-0.2 0.1,0 0.1,0 0.2,0.1 l 6.5,6 c 0.1,0 0.1,0.1 0.2,0.1 h 0.2 c 0.1,0 0.1,0 0.2,-0.1 0,-0.1 0.1,-0.1 0.1,-0.2 v -10 -0.2 c 0,-0.1 -0.1,-0.1 -0.1,-0.2 0,0 -0.1,-0.1 -0.2,-0.1 -0.4,-0.1 -0.4,-0.1 -0.5,-0.1 z m 12.8,1.5 c -0.5,-0.5 -1.1,-0.9 -1.8,-1.2 -0.7,-0.3 -1.4,-0.4 -2.2,-0.4 -0.8,0 -1.5,0.2 -2.2,0.4 -1.4,0.6 -2.4,1.7 -3,3 -0.3,0.7 -0.4,1.4 -0.4,2.2 0,0.8 0.2,1.5 0.4,2.2 0.6,1.4 1.7,2.4 3,3 0.7,0.3 1.4,0.4 2.2,0.4 0.8,0 1.5,-0.2 2.2,-0.4 1.4,-0.6 2.4,-1.7 3,-3 0.3,-0.7 0.4,-1.4 0.4,-2.2 0,-0.8 -0.2,-1.5 -0.4,-2.2 -0.3,-0.7 -0.7,-1.3 -1.2,-1.8 z m -4,7.6 c -0.5,0 -0.9,-0.1 -1.3,-0.3 -0.4,-0.2 -0.8,-0.5 -1.1,-0.8 -0.3,-0.3 -0.6,-0.7 -0.7,-1.1 -0.2,-0.4 -0.3,-0.9 -0.3,-1.4 0,-0.5 0.1,-0.9 0.3,-1.4 0.3,-0.9 1,-1.5 1.8,-1.9 0.4,-0.2 0.9,-0.3 1.3,-0.3 0.5,0 0.9,0.1 1.3,0.3 0.8,0.4 1.5,1.1 1.8,1.9 0.2,0.4 0.3,0.9 0.3,1.4 0,0.5 -0.1,0.9 -0.3,1.4 -0.2,0.4 -0.4,0.8 -0.7,1.1 -0.3,0.3 -0.7,0.6 -1.1,0.8 -0.4,0.2 -0.9,0.3 -1.3,0.3 z m 16.5,-2.6 c -0.1,-0.3 -0.3,-0.6 -0.6,-0.9 l -0.2,-0.2 -0.2,-0.2 c -0.1,-0.1 -0.3,-0.2 -0.4,-0.2 -0.2,-0.1 -0.3,-0.1 -0.4,-0.2 L 117.5,93 c -0.1,0 -0.2,-0.1 -0.2,-0.1 -0.1,0 -0.3,-0.1 -0.4,-0.1 -0.2,0 -0.3,-0.1 -0.4,-0.1 -0.1,0 -0.3,0 -0.4,-0.1 -0.1,0 -0.2,-0.1 -0.3,-0.1 -0.1,0 -0.3,-0.1 -0.4,-0.1 -0.1,0 -0.3,-0.1 -0.4,-0.1 -0.1,0 -0.3,-0.1 -0.4,-0.1 -0.1,0 -0.3,-0.1 -0.4,-0.1 -0.2,-0.1 -0.4,-0.2 -0.6,-0.4 l -0.2,-0.2 c 0,-0.1 -0.1,-0.2 -0.1,-0.3 0,-0.2 0.1,-0.4 0.2,-0.5 l 0.2,-0.2 c 0.1,-0.1 0.2,-0.1 0.3,-0.2 0.2,-0.1 0.4,-0.2 0.6,-0.2 h 0.6 c 0.5,0 1,0.1 1.5,0.3 0.4,0.1 0.7,0.3 1.1,0.6 0.1,0.1 0.3,0.1 0.4,0.1 0.1,0 0.1,0 0.2,-0.1 0.1,0 0.1,-0.1 0.2,-0.1 L 119,90 c 0,-0.1 0.1,-0.1 0.1,-0.2 v -0.2 c 0,-0.1 0,-0.1 -0.1,-0.2 0,-0.1 -0.1,-0.1 -0.2,-0.1 -0.1,-0.1 -0.2,-0.1 -0.3,-0.2 -0.1,-0.1 -0.2,-0.1 -0.3,-0.2 -0.2,-0.1 -0.5,-0.3 -0.8,-0.4 -0.2,-0.1 -0.4,-0.1 -0.6,-0.2 -0.2,0 -0.3,-0.1 -0.5,-0.1 -0.4,-0.1 -0.8,-0.1 -1.2,-0.1 -0.5,0 -1,0.1 -1.4,0.2 -0.5,0.1 -0.9,0.3 -1.4,0.5 -0.4,0.3 -0.7,0.6 -1,1 -0.3,0.5 -0.4,1 -0.4,1.6 0,0.4 0.1,0.8 0.2,1.1 0.1,0.3 0.3,0.6 0.6,0.9 0.2,0.2 0.5,0.4 0.8,0.6 0.3,0.2 0.6,0.3 0.9,0.4 0.3,0.1 0.6,0.2 0.9,0.2 l 0.4,0.1 0.4,0.1 c 0.2,0 0.3,0.1 0.5,0.1 0.2,0 0.3,0.1 0.4,0.1 0.2,0 0.3,0.1 0.4,0.1 0.1,0 0.2,0.1 0.3,0.1 0.2,0.1 0.4,0.2 0.5,0.3 0.1,0.1 0.2,0.3 0.2,0.5 0,0.2 0,0.3 -0.1,0.5 -0.1,0.2 -0.2,0.3 -0.4,0.4 l -0.6,0.3 c -0.3,0.1 -0.6,0.1 -0.9,0.1 -0.6,0 -1.2,-0.1 -1.8,-0.4 -0.4,-0.2 -0.9,-0.4 -1.3,-0.7 -0.1,-0.1 -0.3,-0.1 -0.4,-0.1 -0.1,0 -0.1,0 -0.2,0.1 -0.1,0 -0.1,0.1 -0.1,0.1 l -0.6,0.9 c -0.1,0.1 -0.1,0.3 -0.1,0.4 0,0.1 0,0.1 0.1,0.2 0,0.1 0.1,0.1 0.1,0.1 0.1,0.1 0.2,0.2 0.3,0.2 0.1,0.1 0.2,0.1 0.3,0.2 0.2,0.1 0.3,0.2 0.5,0.3 0.2,0.1 0.3,0.2 0.5,0.2 0.4,0.2 0.8,0.3 1.2,0.4 0.5,0.1 1,0.1 1.5,0.1 0.6,0 1.1,-0.1 1.7,-0.2 0.5,-0.1 0.9,-0.3 1.3,-0.6 0.4,-0.3 0.7,-0.6 0.9,-1 0.2,-0.5 0.3,-1 0.3,-1.5 0.2,-0.3 0.1,-0.8 0,-1.2 z m 0.2,10 H 77.3 v 1.8 h 42.5 z m -41.3,6.5 c 0.1,-0.1 0.2,-0.1 0.2,-0.1 h 3.6 c 0.1,0 0.3,0 0.4,-0.1 0.1,0 0.1,-0.1 0.1,-0.2 v -0.2 -0.2 c 0,-0.1 -0.1,-0.1 -0.1,-0.2 -0.1,-0.1 -0.2,-0.1 -0.4,-0.1 H 78 c -0.2,0 -0.3,0.1 -0.4,0.2 -0.1,0.1 -0.2,0.3 -0.2,0.4 0,0.2 -0.1,0.3 0,0.5 v 3.7 c 0,0.2 0.1,0.3 0.2,0.4 0.1,0.1 0.3,0.2 0.4,0.2 0.2,0 0.3,0.1 0.5,0 h 3.8 c 0.1,0 0.3,0 0.4,-0.1 0.1,0 0.1,-0.1 0.1,-0.2 v -0.2 -0.2 c 0,-0.1 -0.1,-0.1 -0.1,-0.2 -0.1,-0.1 -0.2,-0.1 -0.4,-0.1 h -3.6 c -0.1,0 -0.2,0 -0.2,-0.1 -0.1,-0.1 -0.1,-0.2 -0.1,-0.2 v -0.7 -0.1 c 0,0 0,-0.1 0.1,-0.1 l 0.1,-0.1 H 82 c 0.1,0 0.3,0 0.4,-0.1 0.1,0 0.1,-0.1 0.1,-0.2 v -0.2 -0.2 c 0,-0.1 -0.1,-0.1 -0.1,-0.2 -0.1,-0.1 -0.2,-0.1 -0.4,-0.1 h -3.2 -0.1 c 0,0 -0.1,0 -0.1,-0.1 l -0.1,-0.1 v -0.7 c -0.1,0.1 0,0 0,-0.1 z m 11.2,-1.2 h -0.2 c -0.1,0 -0.1,0.1 -0.2,0.1 -0.1,0.1 -0.1,0.3 -0.1,0.4 v 2.8 c 0,0.3 -0.1,0.7 -0.3,0.9 -0.3,0.2 -0.6,0.3 -1,0.3 h -1.2 c -0.3,0 -0.7,-0.1 -1,-0.3 -0.1,-0.1 -0.2,-0.3 -0.2,-0.4 0,-0.2 -0.1,-0.3 0,-0.5 v -2.8 c 0,-0.2 0,-0.3 -0.1,-0.4 -0.1,-0.1 -0.1,-0.1 -0.2,-0.1 h -0.4 c -0.1,0 -0.1,0.1 -0.2,0.1 -0.1,0.1 -0.1,0.3 -0.1,0.4 v 2.7 c 0,0.8 0.2,1.4 0.6,1.8 0.4,0.4 1,0.6 1.8,0.6 H 88 c 0.8,0 1.4,-0.2 1.8,-0.6 0.4,-0.4 0.6,-1 0.6,-1.8 v -2.7 c 0,-0.2 0,-0.3 -0.1,-0.4 0,-0.1 -0.1,-0.1 -0.2,-0.1 z m 7.2,3.2 c 0.1,-0.1 0.2,-0.1 0.3,-0.2 0.2,-0.1 0.3,-0.3 0.3,-0.5 0.1,-0.2 0.1,-0.5 0.1,-0.7 0,-0.2 0,-0.5 -0.1,-0.7 -0.1,-0.2 -0.2,-0.4 -0.4,-0.6 -0.4,-0.3 -0.8,-0.4 -1.3,-0.4 h -3.3 c -0.2,0 -0.3,0.1 -0.4,0.2 -0.1,0.1 -0.2,0.3 -0.2,0.4 0,0.2 -0.1,0.3 0,0.5 v 3.8 c 0,0.2 0,0.3 0.1,0.4 0.1,0.1 0.1,0.1 0.2,0.1 h 0.4 c 0.1,0 0.1,-0.1 0.2,-0.1 0.1,-0.1 0.1,-0.3 0.1,-0.4 v -1.4 -0.1 c 0,0 0,-0.1 0.1,-0.1 l 0.1,-0.1 h 1.6 c 0.1,0 0.2,0 0.3,0.1 l 0.3,0.3 1,1.5 c 0.1,0.1 0.2,0.3 0.3,0.4 0.1,0.1 0.2,0.1 0.3,0.1 0.1,0 0.3,-0.1 0.4,-0.1 0.1,0 0.1,-0.1 0.1,-0.2 v -0.2 c 0,-0.1 0,-0.2 -0.1,-0.3 l -1,-1.4 c 0,0 0,-0.1 -0.1,-0.1 l 0.1,-0.1 c 0.5,0 0.6,0 0.6,-0.1 z m -0.2,-1.4 c 0,0.4 -0.3,0.6 -0.8,0.6 h -2.5 -0.1 c 0,0 -0.1,0 -0.1,-0.1 l -0.1,-0.1 v -0.8 -0.1 c 0,0 0,-0.1 0.1,-0.1 0,0 0.1,0 0.1,-0.1 h 2.6 c 0.5,0.1 0.8,0.3 0.8,0.7 z m 6.4,-1.7 h -1.5 c -0.8,0 -1.4,0.2 -1.8,0.6 -0.4,0.4 -0.6,1 -0.6,1.8 v 0.8 c 0,0.8 0.2,1.4 0.6,1.8 0.4,0.4 1,0.6 1.8,0.6 h 1.5 c 0.8,0 1.4,-0.2 1.8,-0.6 0.4,-0.4 0.6,-1 0.6,-1.8 v -0.8 c 0,-0.8 -0.2,-1.4 -0.6,-1.8 -0.4,-0.4 -1,-0.6 -1.8,-0.6 z m 1.2,2.3 v 1.1 c 0,0.3 -0.1,0.7 -0.3,0.9 -0.3,0.2 -0.6,0.3 -1,0.3 h -1.5 c -0.3,0 -0.7,-0.1 -1,-0.3 -0.2,-0.3 -0.3,-0.6 -0.3,-0.9 v -1 c 0,-0.3 0.1,-0.7 0.3,-0.9 0.3,-0.2 0.6,-0.3 1,-0.3 h 1.5 c 0.3,0 0.7,0.1 1,0.3 0.3,0.1 0.4,0.4 0.3,0.8 z m 7.8,-1.8 c -0.4,-0.3 -0.8,-0.4 -1.3,-0.4 h -3.2 c -0.2,0 -0.3,0.1 -0.4,0.2 -0.1,0.1 -0.2,0.3 -0.2,0.4 0,0.2 -0.1,0.3 0,0.5 v 3.8 c 0,0.2 0,0.3 0.1,0.4 0,0.1 0.1,0.1 0.2,0.1 h 0.4 c 0.1,0 0.1,-0.1 0.2,-0.1 0.1,-0.1 0.1,-0.3 0.1,-0.4 v -1.4 c 0,-0.1 0,-0.2 0.1,-0.2 0.1,-0.1 0.2,-0.1 0.2,-0.1 h 2.4 c 0.5,0 0.9,-0.1 1.3,-0.4 0.2,-0.2 0.3,-0.4 0.4,-0.6 0.1,-0.2 0.1,-0.4 0.1,-0.7 0,-0.3 0,-0.5 -0.1,-0.7 0,-0.1 -0.1,-0.3 -0.3,-0.4 z m -0.6,1.2 c 0,0.4 -0.3,0.6 -0.8,0.6 h -2.4 c -0.1,0 -0.2,0 -0.2,-0.1 -0.1,-0.1 -0.1,-0.2 -0.1,-0.2 v -0.7 c 0,-0.1 0,-0.2 0.1,-0.2 0.1,-0.1 0.2,-0.1 0.2,-0.1 h 2.4 c 0.6,0.1 0.8,0.3 0.8,0.7 z m 8.3,3.2 -1.3,-3.9 c -0.1,-0.3 -0.2,-0.6 -0.5,-0.8 -0.3,-0.2 -0.6,-0.3 -0.9,-0.2 h -1.3 c -0.3,0 -0.6,0.1 -0.9,0.2 -0.2,0.2 -0.4,0.5 -0.5,0.8 l -1.3,3.9 v 0.3 c 0,0.1 0,0.2 0.1,0.2 l 0.2,0.2 c 0.1,0 0.2,0.1 0.3,0.1 0.3,0 0.4,-0.2 0.6,-0.5 l 0.4,-1.2 c 0,-0.1 0.1,-0.2 0.2,-0.2 0.1,-0.1 0.2,-0.1 0.3,-0.1 h 2.9 c 0.1,0 0.2,0 0.3,0.1 0.1,0.1 0.1,0.2 0.2,0.2 l 0.4,1.2 c 0.1,0.3 0.3,0.5 0.6,0.5 0.1,0 0.2,0 0.2,-0.1 0.1,0 0.1,-0.1 0.2,-0.2 0,-0.1 0.1,-0.2 0.1,-0.2 -0.2,-0.1 -0.3,-0.2 -0.3,-0.3 z m -1.9,-2.3 h -2.7 -0.1 v -0.1 l 0.4,-1.2 c 0,-0.1 0.1,-0.2 0.2,-0.2 0.1,-0.1 0.2,-0.1 0.3,-0.1 h 1.2 c 0.1,0 0.2,0 0.3,0.1 0.1,0.1 0.1,0.2 0.2,0.2 z m -79,-9 c -0.1,-0.3 -0.2,-0.6 -0.4,-0.8 -0.2,-0.3 -0.4,-0.5 -0.7,-0.6 -2.8,-1.4 -5.1,-3.5 -6.6,-6.2 -0.8,-1.5 -1.4,-3.3 -0.9,-5.1 0.3,-0.4 0.6,-0.8 0.8,-1.3 0.1,-0.3 0.3,-0.6 0.1,-0.9 -0.1,-0.2 -0.3,-0.4 -0.4,-0.5 l -0.6,-0.3 c -0.3,-0.1 -0.7,0 -0.8,0.3 -0.2,0.5 -0.6,1 -1,1.4 -2.4,2.4 -6.3,2.8 -9.6,2.6 -0.5,-0.8 -1,-1.6 -1.6,-2.3 2,0.4 4,0.4 6,0 1.5,-0.3 2.9,-1 3.9,-2.2 0.2,-0.3 0.4,-0.6 0.5,-0.9 v -0.3 c 0,-0.2 -0.1,-0.3 -0.3,-0.5 -0.2,0 -0.3,-0.1 -0.5,-0.2 -0.4,-0.2 -1,-0.3 -1.2,0.1 -0.7,1.3 -2.2,2 -3.6,2.3 -2.6,0.5 -5.4,0 -7.9,-1.1 -0.7,-0.5 -1.4,-1 -2.1,-1.4 -0.3,-0.2 -0.6,-0.4 -1,-0.5 -0.4,-0.2 -0.9,-0.2 -1.4,0 -0.8,0.3 -0.6,1 0.1,1.3 0.9,0.5 1.8,1.1 2.6,1.7 1.6,1.2 3,2.8 3.9,4.6 0.9,1.8 1.5,3.8 1.5,5.9 -1.2,0.5 -2.4,1 -3.6,1.7 0.5,-2.9 0,-5.9 -1.7,-8.3 C 11.5,91 10.3,89.8 9,89 8.4,88.6 7.7,88.2 7,87.9 6.6,87.8 6.3,87.7 6,87.8 c -0.4,0 -0.7,0.2 -1,0.4 -0.6,0.5 -0.2,1.2 0.4,1.4 6.3,3.1 7.1,9.4 3.5,15 -1.6,1.5 -3.1,3.1 -4.4,4.9 v 0.1 c -0.3,0.3 -0.5,0.6 -0.5,1 -0.1,0.4 0,0.8 0.1,1.1 0.4,0.8 1.3,1.1 2.1,0.9 C 7,112.5 7.6,112 8,111.4 l 0.1,-0.1 c 4,-6 10.2,-11.1 17.7,-11 0.7,1.1 1.4,2.1 2.2,3.1 -1.3,-0.1 -2.6,-0.1 -3.8,0.1 -2.5,0.5 -4.8,1.6 -6.8,3.2 -1.6,1.3 -3.1,2.9 -4.2,4.6 -0.3,0.5 -0.7,1 -1,1.6 -0.3,0.6 -0.7,1.1 -1,1.7 -0.1,0.1 -0.1,0.3 -0.2,0.5 -0.3,1 -0.1,2.3 0.9,2.8 1.2,0.6 2.6,-0.4 3,-1.6 1.4,-3.1 3.4,-6.1 6.4,-8 1.6,-1.1 3.4,-1.7 5.4,-1.8 1.9,-0.1 3.8,0.2 5.6,1.1 1.3,1 2.6,1.9 4.1,2.7 0.6,0.3 1.3,0.1 1.5,-0.6 0.2,-0.8 -0.2,-1.6 -0.8,-2.1 l -0.2,-0.2 -3.7,-2.4 c -3.5,-2.8 -6.6,-6.7 -7.5,-11.1 0.8,-0.2 1.5,-0.6 2.2,-1 0.7,5 5.3,9.8 9.8,11.9 0.7,0.3 1.4,-0.1 1.2,-1 z M 24,97.7 c -1.2,0 -2.3,0.2 -3.4,0.4 -0.2,-1.2 -0.5,-2.4 -0.9,-3.5 1.2,0 2.5,-0.1 3.7,-0.2 0.2,1.2 0.6,2.3 1.1,3.4 z" /><path
     d="m 13.9,85 c 0.2,0.2 0.5,0.4 0.9,0.6 0.4,0.2 0.8,0.4 1.2,0.5 1.8,0.6 3.9,0.9 5.7,0.4 0.4,-0.1 0.9,-0.3 1.2,-0.6 0.2,-0.2 0.5,-0.4 0.4,-0.8 -0.1,-0.2 -0.3,-0.4 -0.4,-0.5 -0.2,-0.1 -0.4,-0.2 -0.6,-0.2 h -0.4 c -0.1,0 -0.3,0.1 -0.4,0.2 -0.2,0.2 -0.5,0.3 -0.8,0.4 -0.9,0.3 -1.8,0.3 -2.7,0.2 -0.6,-0.1 -1.1,-0.3 -1.7,-0.5 -0.4,-0.2 -0.7,-0.4 -1.1,-0.6 -0.3,-0.1 -0.7,-0.1 -1,0 -0.1,0 -0.2,0.1 -0.3,0.1 l -0.2,0.2 v 0.3 c 0.1,0.1 0.2,0.2 0.2,0.3 z m 20.4,28.1 c -0.3,-0.9 -1,-1.3 -1.7,-1.7 -0.8,-0.5 -1.7,-0.8 -2.6,-1 -1.1,-0.2 -2.2,-0.2 -3.3,0 -1.1,0.2 -2.1,0.7 -3,1.4 -1.2,0.9 -2.3,2 -3,3.4 -0.6,1 -1.1,1.8 -0.9,3 0.2,1 1,2 2,1.9 0.3,0 0.5,-0.1 0.8,-0.3 l 0.6,-0.6 c 0.2,-0.4 0.4,-0.9 0.6,-1.2 0.6,-1.2 1.4,-2.1 2.5,-2.9 1.1,-0.7 2.5,-1 3.8,-0.8 0.7,0.1 1.3,0.4 1.9,0.7 0.4,0.2 0.8,0.6 1.2,0.7 0.3,0 0.6,0 0.9,-0.2 0.3,-0.2 0.4,-0.5 0.5,-0.8 -0.1,-0.6 -0.1,-1.2 -0.3,-1.6 z M 4.7,103.7 C 6.9,101.2 8.4,97.5 6.5,94.4 6.1,93.8 5.6,93.2 5,92.7 4.6,92.4 4.2,92.1 3.8,92 2.9,91.8 1.9,92 1.4,92.7 1.3,92.8 1.3,92.9 1.3,93.1 v 0.4 c 0,0.1 0.1,0.2 0.2,0.4 l 0.3,0.3 c 0.3,0.2 0.6,0.4 0.9,0.7 1.3,1.3 1.4,3.2 0.7,4.8 -0.5,1.1 -1.3,2.1 -2.3,2.9 -0.6,0.5 -1,1.3 -0.7,2 0.5,1 1.9,1.1 2.8,0.6 0.5,-0.4 1,-1 1.5,-1.5 z M 32.3,93.5 c 0.3,1.8 1.5,3.4 2.8,4.6 0.4,0.3 0.8,0.7 1.2,1 0.3,0.3 0.7,0.5 1.1,0.6 0.9,0.2 1.1,-0.6 0.7,-1.2 -0.2,-0.3 -0.4,-0.5 -0.7,-0.7 -0.3,-0.2 -0.5,-0.4 -0.8,-0.6 -1,-0.7 -1.7,-1.7 -2.1,-2.9 -0.2,-0.4 -0.2,-0.9 -0.2,-1.3 0,-0.2 0.1,-0.4 0.1,-0.5 V 92.2 C 34.4,92.1 34.3,92 34.3,91.9 34.2,91.7 34,91.5 33.7,91.3 33.6,91.1 33.3,91.1 33,91 c -0.4,0 -0.5,0.3 -0.6,0.6 -0.2,0.7 -0.2,1.3 -0.1,1.9 z" /></g>
                </svg>