<svg id="svg" xmlns="http://www.w3.org/2000/svg" xmlns:xlink="http://www.w3.org/1999/xlink" width="400" height="400" viewBox="0, 0, 400,400"><g id="svgg"><path id="path0" d="M131.005 50.766 C 38.483 62.616,-21.301 155.555,6.376 244.513 C 37.885 345.786,161.763 383.444,244.333 316.852 C 248.223 313.715,277.658 284.787,314.996 247.407 L 378.991 183.340 389.496 193.829 L 400.000 204.318 400.000 161.492 L 400.000 118.667 357.169 118.667 L 314.338 118.667 325.108 129.436 L 335.878 140.206 270.772 205.146 C 195.872 279.855,197.818 278.186,177.667 285.016 C 98.771 311.758,29.004 220.531,75.176 151.000 C 123.967 77.526,238.727 111.272,238.970 199.165 C 238.987 205.123,239.151 209.998,239.336 209.999 C 239.521 209.999,251.819 197.851,266.665 183.002 L 293.657 156.003 291.348 149.168 C 269.486 84.457,200.156 41.909,131.005 50.766 " stroke="none" fill="#000000" fill-rule="evenodd"></path></g></svg>