<svg width="100%" height="100%" viewBox="0 0 400 400" version="1.1" xmlns="http://www.w3.org/2000/svg" style="fill-rule:evenodd;clip-rule:evenodd;stroke-linejoin:round;stroke-miterlimit:2;">
    <g>
        <path d="M55.573,359.838C55.906,360.697 192.31,399.848 204.3,399.3C210.368,399.022 342.512,361.581 343,360.8C344.648,358.163 375.6,1.2 375.6,1.2L23.913,1.2M289.2,295.907C289.2,295.907 206.594,320 200.2,320C193.673,320 111.537,296.698 110.495,295.172C108.461,292.191 104.485,227.6 104.485,227.6L147.2,227.6L150.4,262.8C150.4,262.8 196.121,276 200,276C203.124,276 248.793,262.615 249.144,261.997C251.012,258.711 254.8,204.4 254.8,204.4L151.693,204.4L148,161.2L258.4,161.2L262.112,115.2L94,115.2C94,115.2 91.056,77.058 90.754,74.4C90.721,74.11 309.2,72.8 309.2,72.8"/>
    </g>
</svg>
