<svg width="100%" height="100%" viewBox="0 0 400 400" version="1.1" xmlns="http://www.w3.org/2000/svg" style="fill-rule:evenodd;clip-rule:evenodd;stroke-linejoin:round;stroke-miterlimit:2;">
    <g>
        <path d="M118,55L162,55L162,38L137,38L137,16L162,16L162,0L118,0M171,13.274L194.012,38.5L171,39.063L171,55L222,55L222,41.251L215.75,34.501C212.313,30.789 198.942,16.5 198.942,16.5L220.5,15.5L221.084,0L171,0M232.75,15.976C234.262,17.528 248.738,33.565 250.25,35.084C254.16,39.011 254.186,39 241.5,39L230,39L230,55L281,55L280.957,40.5L273.729,32.914C269.753,28.742 264.71,23.342 262.522,20.914L258.543,16.5L280.5,15.5L281.084,0L230,0M82.954,366.643C83.02,368.273 167.29,391.472 174,393.479C197.51,400.514 198.933,400.674 210,397.519C215.225,396.029 315.817,368.259 316.055,367.643C316.086,367.564 341,78 341,78L58,78M272.036,313.126C272.003,315.567 212.416,332.09 208.647,333.204C201.763,335.239 148.686,321.533 141.579,319.59C126.293,315.412 127.329,316.253 126.697,307.5C125.298,288.153 123.027,264.233 122.443,262.713C121.838,261.136 156.856,261 156.856,261C156.856,261 158.195,274.425 158.524,278C159.57,289.363 159.707,289.537 169.5,291.93C171.7,292.467 199.099,299.722 204.467,298.357C219.95,294.422 239.752,288.762 239.752,288.762L243.906,242L161.159,242L158,207L246.6,207L250.258,170L114.296,170L111.469,136L288.272,136"/>
    </g>
</svg>
