<?xml version="1.0" encoding="UTF-8" standalone="no"?>
<!DOCTYPE svg PUBLIC "-//W3C//DTD SVG 1.1//EN" "http://www.w3.org/Graphics/SVG/1.1/DTD/svg11.dtd">
<svg width="100%" height="100%" viewBox="0 0 400 400" version="1.1" xmlns="http://www.w3.org/2000/svg" xmlns:xlink="http://www.w3.org/1999/xlink" xml:space="preserve" xmlns:serif="http://www.serif.com/" style="fill-rule:evenodd;clip-rule:evenodd;stroke-linejoin:round;stroke-miterlimit:2;">
    <g id="svgg">
        <path id="path1" d="M24.204,8.7C25.214,34.58 28.769,60.612 31.2,86.4C36.21,139.558 41.103,192.78 45.4,246C47.501,272.014 49.938,298.019 52.4,324C53.182,332.257 53.627,340.542 54.4,348.8C54.687,351.864 54.457,356.958 55.573,359.838C55.906,360.697 58.255,361.387 59,361.6C62.931,362.723 66.815,363.821 70.8,364.832C85.93,368.671 100.871,373.403 116,377.234C133.564,381.682 151.439,386.658 168.8,392C180.21,395.511 192.31,399.848 204.3,399.3C210.368,399.022 216.882,395.52 222.8,394.041C243.062,388.976 262.941,382.246 283.2,377.247C297.962,373.604 312.425,368.801 327.2,365.2C331.126,364.243 334.959,363.182 338.8,362C339.597,361.755 342.512,361.581 343,360.8C344.648,358.163 344.523,353.906 344.8,351C345.454,344.134 346.062,337.279 346.591,330.4C348.263,308.67 350.232,286.883 352.4,265.2C358.418,205.023 363.633,144.683 368.451,84.4C369.857,66.802 371.544,49.174 373.2,31.6C373.994,23.179 375.6,14.458 375.6,6L375.6,1.2L23.913,1.2L24.204,8.7M309.2,76.4C309.2,93.741 305.748,111.909 304.354,129.2C301.267,167.474 297.821,205.793 294,244C292.775,256.255 291.956,268.54 290.8,280.8C290.389,285.164 289.2,290.03 289.2,294.353L289.2,295.907L286.6,296.185C277.084,297.203 267.234,301.845 258,304.343C245.493,307.727 232.78,310.591 220.4,314.4C214.314,316.273 206.594,320 200.2,320C193.673,320 185.8,316.308 179.6,314.4C169.238,311.212 158.509,308.268 148,305.641C138.679,303.311 129.44,300.64 120.2,298C118.126,297.408 111.537,296.698 110.495,295.172C108.461,292.191 109.145,282.827 108.849,279.2C107.592,263.784 105.349,248.151 104.699,232.7L104.485,227.6L147.2,227.6L147.2,231C147.2,240.845 150.4,250.786 150.4,260.6L150.4,262.8L151.8,262.8C154.652,262.8 158.405,264.859 161.2,265.568C169.825,267.757 178.445,269.956 187,272.4C190.852,273.501 196.121,276 200,276C203.124,276 207.722,273.747 210.8,272.8C216.66,270.997 222.701,269.685 228.6,268C233.985,266.462 239.8,265.68 245,263.6C245.81,263.276 248.793,262.615 249.144,261.997C251.012,258.711 250.432,251.276 250.8,247.6C252.171,233.887 254.8,219.475 254.8,205.8L254.8,204.4L151.693,204.4L151.4,196.4C150.993,185.271 148,173.855 148,162.8L148,161.2L258.4,161.2L258.4,159.4C258.4,147.709 261.432,135.663 261.823,123.9L262.112,115.2L94,115.2L94,110.8C94,101.465 92.151,91.703 91.4,82.4C91.185,79.733 91.056,77.058 90.754,74.4C90.721,74.11 90.108,73.604 90.4,73.6C126.864,73.065 163.332,72.8 199.8,72.8L309.2,72.8L309.2,76.4"/>
    </g>
</svg>
