<svg version="1.1" width="400" height="400" xmlns="http://www.w3.org/2000/svg">
<g>
<path d="M237.500 52.071 C 225.811 54.850,217.533 66.460,218.300 79.000 C 218.635 84.470,218.348 87.312,217.241 89.500 C 214.879 94.170,200.661 118.440,199.959 119.000 C 199.614 119.275,197.737 122.425,195.786 126.000 C 193.835 129.575,188.437 139.025,183.791 147.000 C 179.144 154.975,172.985 165.550,170.103 170.500 C 167.222 175.450,162.946 182.650,160.601 186.500 C 158.256 190.350,154.959 195.975,153.274 199.000 C 147.264 209.789,131.123 237.612,127.109 244.100 C 124.864 247.731,117.877 259.656,111.583 270.600 C 105.289 281.545,99.545 290.802,98.819 291.170 C 98.094 291.539,95.475 292.818,93.000 294.013 C 74.007 303.181,74.234 330.045,93.380 339.103 C 112.101 347.960,132.361 334.477,130.729 314.248 C 130.187 307.526,130.205 307.466,135.460 298.500 C 138.361 293.550,145.119 281.850,150.477 272.500 C 155.836 263.150,162.582 251.675,165.470 247.000 C 168.357 242.325,176.254 228.825,183.019 217.000 C 189.784 205.175,196.570 193.475,198.101 191.000 C 200.863 186.533,204.635 180.111,224.827 145.500 C 249.792 102.706,249.893 102.548,252.877 101.500 C 282.692 91.029,268.295 44.748,237.500 52.071 M342.500 51.874 C 330.341 55.025,322.590 65.849,323.118 78.941 C 323.450 87.156,322.528 89.571,313.285 104.694 C 303.873 120.095,279.000 162.844,279.000 163.620 C 279.000 163.890,276.795 167.573,274.100 171.805 C 271.405 176.037,264.004 188.559,257.653 199.632 C 244.480 222.598,237.406 234.830,236.042 237.000 C 235.144 238.430,220.773 263.025,209.310 282.750 C 206.290 287.947,203.274 292.000,202.427 292.000 C 189.738 292.000,179.837 313.196,186.079 327.000 C 197.775 352.870,236.073 343.496,234.866 315.059 C 234.580 308.331,234.829 307.060,237.124 303.500 C 238.543 301.300,245.790 288.925,253.230 276.000 C 260.669 263.075,268.118 250.250,269.782 247.500 C 271.447 244.750,278.549 232.600,285.565 220.500 C 292.581 208.400,301.018 194.000,304.314 188.500 C 309.767 179.400,319.002 163.583,338.180 130.500 C 353.391 104.259,354.276 103.003,359.064 100.864 C 386.686 88.523,371.733 44.299,342.500 51.874 M249.583 65.606 C 251.445 66.490,253.876 68.681,254.984 70.474 C 262.865 83.225,246.589 97.098,235.096 87.427 C 223.287 77.491,235.587 58.965,249.583 65.606 M355.586 66.464 C 364.538 72.330,363.529 84.531,353.693 89.353 C 348.688 91.807,343.928 90.877,339.169 86.516 C 327.787 76.085,342.619 57.968,355.586 66.464 M45.000 123.655 C 25.485 130.417,20.744 155.752,36.555 168.785 C 47.479 177.789,66.061 175.165,73.703 163.540 C 87.483 142.575,68.106 115.649,45.000 123.655 M59.701 136.960 C 66.665 141.206,68.021 151.237,62.421 157.082 C 50.543 169.480,31.627 153.104,42.668 139.983 C 47.150 134.656,53.946 133.450,59.701 136.960 M45.365 213.089 C 27.208 218.351,20.943 240.822,33.681 254.990 C 49.083 272.121,78.302 261.364,78.381 238.534 C 78.443 220.553,62.365 208.162,45.365 213.089 M58.717 225.670 C 71.342 231.661,66.532 251.000,52.418 251.000 C 44.738 251.000,38.157 243.581,39.345 236.262 C 40.918 226.571,50.069 221.566,58.717 225.670 M112.385 305.088 C 119.649 310.802,119.862 322.584,112.786 327.220 C 100.673 335.157,86.225 320.865,94.280 308.912 C 98.422 302.766,107.102 300.933,112.385 305.088 M216.810 305.026 C 223.969 309.390,224.905 319.950,218.642 325.689 C 212.040 331.740,203.410 330.608,198.250 323.015 C 190.523 311.644,204.865 297.743,216.810 305.026 " stroke="none" fill-rule="evenodd"></path>
</g>
</svg>