<svg width="100%" height="100%" viewBox="0 0 400 400" version="1.1" xmlns="http://www.w3.org/2000/svg" style="fill-rule:evenodd;clip-rule:evenodd;stroke-linejoin:round;stroke-miterlimit:2;">
<g>
<path d="M4.239,54.75L4.5,96.5L32.917,97C42.544,97.169 52.162,97.869 61.75,98.75C65.261,99.072 69.76,101.344 73,102.616C83.711,106.82 93.128,112.564 101.922,120C104.686,122.337 107.706,124.457 110,127.257C113.309,131.294 117.277,135.537 120,140C121.747,142.863 122.56,146.264 124.5,149C129.299,155.769 135.345,166.37 136.25,175.25C138.04,192.824 138.076,202.176 136.25,219.75C136.015,222.014 133.818,225.311 133,227.5C131.394,231.798 130.651,237.3 128,241.083C127.143,242.306 125.232,242.602 124.538,243.924C122.903,247.034 122.773,250.795 121.12,253.896C117.387,260.897 110.297,266.318 104.68,271.448C94.274,280.953 83.421,287.536 70,292.132C66.188,293.437 61.746,295.88 57.75,296.249C48.745,297.081 39.71,297.736 30.667,297.857L4,298.215L4,339.667C4,353.282 4.341,366.901 5,380.5C5.316,387.012 17.981,381.99 24.5,382C35.778,382.018 42.587,380.964 53,380C74.611,377.999 92.535,373.472 112,365.128C114.985,363.848 118.431,363.571 121.162,361.814C121.854,361.369 121.72,360.215 122.286,359.619C124.498,357.288 131.313,355.661 134.003,353.995C145.293,347.003 156.234,338.641 166.383,330C177.044,320.923 186.227,306.77 194,294.933C196.594,290.983 197.655,286.103 200,282C229.463,230.441 227.013,164.673 201,111.917C192.528,94.736 179.222,78.379 166.617,64.52C160.701,58.015 151.841,53.275 144.703,48C110.873,23.001 71.2,13 28.989,13L3.978,13L4.239,54.75M149,15.5C149,19.779 157.882,22.989 160.933,25C170.592,31.365 179.457,39.33 187.516,47.602C197.669,58.022 206.676,69.238 215,81.433C218.056,85.91 221.303,95.975 227.102,96.325C237.201,96.934 247.333,96.801 257.443,97.186C279.159,98.013 287.315,92.662 299.641,105.644C301.727,107.841 303.357,110.44 305,112.986C313.798,126.622 305.394,144.97 292,152C284.126,156.133 276.768,156 267.5,156C260.74,156 246.578,149.439 246.033,160.32C245.778,165.424 248.606,171.783 249,177C250.333,194.667 250.333,199.333 249,217C248.57,222.696 243.955,232.294 247.429,237.571C248.815,239.676 249.227,238.244 251,238C255.306,237.407 259.654,237 264,237C283.179,237 309,244.238 309,268C309,276.239 303.08,286.611 296.568,291C294.165,292.62 290.805,296.013 287.75,296.25C277.16,297.071 266.535,297.395 255.917,297.67C245.031,297.952 234.107,297.085 223.25,297.92C222.363,297.988 222.42,299.494 222,300.279C220.291,303.475 218.516,306.622 216.5,309.638C209.446,320.191 202.448,330.928 194,340.469C189.365,345.704 183.852,351.466 178.533,356C173.549,360.248 167.256,363.036 163,368C160.808,370.557 157.636,370.634 155.439,373C153.809,374.756 149.063,377.243 151,378.653C154.705,381.35 160.123,379.66 164.706,379.745C184.301,380.109 203.902,380.09 223.5,380C247.668,379.889 271.842,379.835 296,379.144C306.312,378.849 313.956,374.19 323.099,371C343.661,363.827 363.405,346.234 375,327.933C391.829,301.371 390.72,269.748 388.25,239.25C388.072,237.053 385.795,233.629 385,231.5C382.092,223.715 379.527,215.317 375,208.237C372.823,204.833 370.478,201.271 368.055,198.04C367.648,197.498 366.606,197.265 366.631,196.588C366.66,195.814 367.777,195.514 368.174,194.849C368.981,193.496 368.625,191.539 369.68,190.37C370.816,189.112 372.898,188.928 374,187C379.116,178.047 382.725,168.689 386,159C386.61,157.196 388.095,155.647 388.25,153.749C389.924,133.265 389.909,118.734 388.25,98.25C388.168,97.232 387.074,96.461 387.025,95.44C386.955,93.973 389.465,92.894 389,91.5C388.445,89.836 386.036,89.498 385,88.083C381.235,82.939 379.89,75.098 376.5,69.362C362.026,44.872 337.236,23.958 309,17.5C304.361,16.439 297.877,14.128 293,14C269.006,13.373 245.002,13 221,13L149,13L149,15.5"/>
</g>
</svg>
