<svg width="100%" height="100%" viewBox="0 0 400 400" version="1.1" xmlns="http://www.w3.org/2000/svg" style="fill-rule:evenodd;clip-rule:evenodd;stroke-linejoin:round;stroke-miterlimit:2;">
    <g>
        <path d="M201.737,1.406C200.86,2.283 199.535,3 198.792,3C198.049,3 88.31,77 87.467,77C85.595,77 79,83.423 79,85.246C79,85.968 78.1,87.207 77,88C75.9,88.793 3.988,199.145 2.75,200.219C0.083,202.535 -0.794,225.902 1.754,226.751C2.439,226.98 3,227.839 3,228.662C3,229.484 4.8,231.886 7,234C9.2,236.114 11,238.331 11,238.927C11,241.41 57.938,287 60.495,287C61.873,287 63,287.45 63,288C63,288.55 81,293.45 81,294C81,294.55 81.9,295 83,295C84.556,295 85,295.667 85,298C85,299.65 163,389.556 163,391.007C163,391.639 164.837,393.922 167.082,396.078L171.163,400L247.929,400C334.399,400 329,400.491 329,392.633C329,390.635 329.45,389 330,389C330.55,389 345.667,343 348,343C349.65,343 395.852,327 396.893,327C399.993,327 400,326.82 400,246.428L400,169.02L363.01,132.01C342.665,111.654 301,84.55 301,84C301,83.45 300.293,83 299.429,83C297.068,83 236.592,5 234.872,5C234.246,5 232.857,3.987 231.784,2.75C229.175,-0.26 204.506,-1.363 201.737,1.406M219,12C219,12.55 219.801,13 220.779,13C221.758,13 223.207,13.9 224,15C224.793,16.1 226.02,17 226.726,17C228.544,17 281.45,83 282,83C282.55,83 283,83.45 283,84C283,84.659 252.333,85 193,85C133.667,85 103,84.659 103,84C103,83.45 103.719,83 104.599,83C105.478,83 107.459,81.65 109,80C110.541,78.35 209.207,14.1 210,13C211.526,10.882 219,10.052 219,12M212.501,213.499C216.491,217.489 220.355,221.353 224.095,225.094C332.44,333.463 337.528,339 332,339C331.45,339 317,389 317,389L179.909,389C179.909,389 92.975,283 90.545,283C89.163,283 89,273.163 89,189.458C89,98.353 89.14,93.434 91.751,93.038C91.889,93.017 146.227,147.225 212.501,213.499"/>
    </g>
</svg>
