<svg xmlns="http://www.w3.org/2000/svg" width="400" height="400" viewBox="0, 0, 400,400"><g><path d="M299.315 20.181 C 293.716 46.925,290.978 56.825,284.987 71.979 C 262.695 128.368,219.872 172.081,162.812 196.693 C 158.053 198.746,154.040 200.545,153.893 200.691 C 153.747 200.837,155.245 205.427,157.222 210.890 C 176.628 264.514,176.189 313.334,155.776 371.621 C 153.172 379.059,151.170 385.275,151.328 385.433 C 151.692 385.796,172.055 379.232,182.186 375.486 C 314.228 326.661,379.024 177.723,324.764 47.760 C 320.474 37.485,304.056 4.627,303.212 4.628 C 302.786 4.629,301.479 9.845,299.315 20.181 M273.781 61.311 C 234.870 112.749,173.080 145.559,107.969 149.354 C 105.000 149.527,102.080 149.769,101.481 149.892 C 100.404 150.112,100.388 150.317,100.100 167.217 C 99.183 221.148,83.500 265.291,50.188 307.712 C 46.635 312.237,42.345 317.706,40.654 319.866 L 37.580 323.793 50.281 324.176 C 88.784 325.336,119.987 320.387,153.012 307.883 L 159.752 305.331 160.082 301.431 C 160.755 293.463,160.488 280.720,159.647 280.720 C 159.227 280.720,155.607 282.121,151.604 283.833 C 133.675 291.502,115.387 296.537,93.966 299.702 L 84.334 301.125 85.303 299.534 C 109.131 260.398,121.397 221.386,123.669 177.506 C 123.891 173.234,124.227 170.694,124.572 170.694 C 126.492 170.694,143.466 167.766,150.044 166.300 C 180.675 159.474,212.686 145.470,237.275 128.139 C 248.236 120.414,268.051 87.617,277.184 62.082 C 279.780 54.825,278.847 54.614,273.781 61.311 M316.432 102.571 C 333.241 194.706,291.825 287.032,211.926 335.538 C 202.066 341.524,187.489 348.920,187.834 347.761 C 188.277 346.273,190.646 333.772,191.501 328.413 C 197.249 292.384,194.967 255.039,184.882 220.068 C 183.865 216.542,183.033 213.497,183.033 213.300 C 183.033 213.104,186.333 211.216,190.366 209.105 C 243.745 181.163,281.926 139.108,306.986 80.655 L 309.769 74.164 312.444 84.768 C 313.915 90.601,315.709 98.612,316.432 102.571 M301.398 116.838 C 294.605 128.832,286.991 140.025,277.876 151.414 C 274.872 155.167,273.753 157.109,271.947 161.697 C 258.992 194.608,232.098 230.732,204.558 252.212 L 203.205 253.267 203.892 259.153 C 204.270 262.390,204.720 267.699,204.891 270.951 C 205.395 280.465,205.325 280.384,210.071 277.026 C 248.015 250.180,283.235 203.917,295.132 165.296 C 298.628 153.949,303.199 134.273,305.655 120.004 C 307.911 106.897,307.289 106.434,301.398 116.838 " stroke="none" fill-rule="evenodd"></path></g></svg>