<svg xmlns="http://www.w3.org/2000/svg" viewBox="0 0 222 222" height="222" width="222">
  <path d="m 28.884766,83.000284 c -4.373475,-0.0432 -8.763119,2.37756 -10.699219,7.39062 L 0,139.00028 H 15.074219 L 28.833984,96.959264 42.59375,139.00028 H 57.667969 L 39.482422,90.390904 c -1.8669,-4.8402 -6.224181,-7.34741 -10.597656,-7.39062 z m 81.609374,4.69336 v 10.78711 h -5.59961 v 9.957026 h 5.59961 v 17.63281 c 0,2.351 0.20741,4.35613 0.69141,6.01563 0.484,1.6595 1.17589,2.97256 2.21289,4.00976 1.037,1.0372 2.35076,1.79809 4.00976,2.21289 1.66,0.4841 3.66658,0.69141 6.01758,0.69141 h 13.13672 v -9.95703 h -8.91992 c -1.314,0 -2.28099,-0.27698 -2.83399,-0.83008 -0.553,-0.5532 -0.83007,-1.45108 -0.83007,-2.83398 v -16.87305 h 12.44726 v -9.957026 h -12.44726 v -10.85547 z m -35.955078,10.85547 c -4.0104,0 -7.121384,1.1065 -9.333984,3.249996 -2.2127,2.2127 -3.25,5.32554 -3.25,9.33594 0,4.0105 1.1065,7.12212 3.25,9.26562 2.1435,2.1436 5.323585,3.31836 9.333984,3.31836 h 9.126954 c 0.8297,0 1.520647,0.20741 1.935546,0.69141 0.484,0.484 0.691407,1.10574 0.691407,1.93554 0,0.8297 -0.207407,1.4534 -0.691407,1.9375 -0.4841,0.484 -1.105846,0.69141 -1.935546,0.69141 H 61.609375 v 9.95703 h 25.722656 c 4.0105,0 7.121285,-1.10761 9.333985,-3.32031 2.2127,-2.2126 3.318359,-5.32433 3.318359,-9.26563 0,-4.0105 -1.105659,-7.12128 -3.318359,-9.33398 -2.2127,-2.1435 -5.323485,-3.25 -9.333985,-3.25 h -9.128906 c -0.8298,0 -1.451547,-0.20741 -1.935547,-0.69141 -0.484,-0.484 -0.691406,-1.10574 -0.691406,-1.93554 0,-0.8297 0.207406,-1.4535 0.691406,-1.9375 0.484,-0.484 1.105747,-0.69141 1.935547,-0.69141 h 19.222656 v -9.957026 z m 81.523438,0 c -6.984,0 -12.6543,5.670486 -12.6543,12.654286 v 27.79688 h 13.41407 v -25.86133 c 0,-3.319 1.17631,-4.63281 3.32031,-4.63281 h 14.93359 v -9.957026 z m 26.55078,0 v 9.957026 h 21.22852 c 1.521,0 2.558,0.34645 3.25,0.96875 0.622,0.6223 0.96875,1.72964 0.96875,3.18164 v 0.48242 h -15.28321 c -4.218,0 -7.39637,1.10771 -9.60937,3.32031 -2.213,2.2127 -3.32031,5.46263 -3.32031,9.61133 0,4.1487 1.10731,7.32953 3.32031,9.61133 2.213,2.2818 5.46137,3.31836 9.60937,3.31836 h 28.69727 v -23.57813 c 0,-2.9041 -0.34611,-5.46392 -1.03711,-7.60742 -0.692,-2.1435 -1.65997,-3.8709 -3.04297,-5.2539 -1.383,-1.3829 -3.11186,-2.42067 -5.25586,-3.042966 -2.143,-0.6914 -4.70147,-0.96875 -7.60547,-0.96875 z m 13.9668,24.339836 h 11.61719 v 6.29297 h -11.61719 c -0.968,0 -1.79561,-0.27688 -2.34961,-0.83008 -0.553,-0.5532 -0.83008,-1.31325 -0.83008,-2.28125 0,-1.0372 0.27708,-1.79836 0.83008,-2.35156 0.554,-0.5531 1.31261,-0.83008 2.34961,-0.83008 z" />
</svg>
