<svg version="1.1" width="515" height="515" xmlns="http://www.w3.org/2000/svg"><g><path d="M252.000 2.019 C 252.000 2.607,250.942 2.772,249.500 2.411 C 247.960 2.024,247.000 2.209,247.000 2.892 C 247.000 3.501,245.875 4.000,244.500 4.000 C 243.125 4.000,242.000 4.408,242.000 4.906 C 242.000 5.405,239.750 6.122,237.000 6.500 C 234.250 6.878,232.000 7.595,232.000 8.094 C 232.000 8.592,230.875 9.000,229.500 9.000 C 228.125 9.000,227.000 9.450,227.000 10.000 C 227.000 10.550,225.682 11.000,224.071 11.000 C 222.461 11.000,220.468 11.675,219.643 12.500 C 218.818 13.325,217.211 14.000,216.071 14.000 C 214.932 14.000,214.000 14.418,214.000 14.928 C 214.000 15.438,211.530 16.165,208.511 16.542 C 205.493 16.919,203.269 17.626,203.570 18.114 C 203.872 18.601,202.715 19.000,201.000 19.000 C 199.285 19.000,198.129 19.400,198.431 19.888 C 198.733 20.376,196.959 21.079,194.490 21.449 C 192.020 21.820,190.000 22.545,190.000 23.061 C 190.000 23.578,188.875 24.000,187.500 24.000 C 186.125 24.000,185.000 24.418,185.000 24.928 C 185.000 25.438,182.530 26.165,179.511 26.542 C 176.493 26.919,174.269 27.626,174.570 28.114 C 174.872 28.601,173.966 29.000,172.559 29.000 C 171.152 29.000,170.000 29.392,170.000 29.872 C 170.000 30.664,162.542 32.498,160.750 32.147 C 160.338 32.066,160.000 32.450,160.000 33.000 C 160.000 33.550,159.325 34.000,158.500 34.000 C 157.675 34.000,157.000 34.408,157.000 34.906 C 157.000 35.405,154.750 36.122,152.000 36.500 C 149.250 36.878,147.000 37.595,147.000 38.094 C 147.000 38.592,145.875 39.000,144.500 39.000 C 143.125 39.000,142.000 39.392,142.000 39.871 C 142.000 40.350,139.830 41.030,137.177 41.382 C 134.524 41.734,131.415 42.896,130.269 43.964 C 129.096 45.057,125.963 46.201,123.111 46.580 C 120.321 46.950,118.281 47.646,118.578 48.126 C 118.875 48.607,117.966 49.000,116.559 49.000 C 115.152 49.000,114.000 49.408,114.000 49.906 C 114.000 50.405,111.750 51.122,109.000 51.500 C 106.250 51.878,104.000 52.595,104.000 53.094 C 104.000 53.592,103.325 54.000,102.500 54.000 C 101.675 54.000,101.000 54.408,101.000 54.906 C 101.000 55.405,98.750 56.122,96.000 56.500 C 93.250 56.878,91.000 57.595,91.000 58.094 C 91.000 58.592,89.912 59.000,88.583 59.000 C 87.254 59.000,86.017 59.399,85.833 59.888 C 85.650 60.376,83.475 61.053,81.000 61.393 C 78.525 61.732,76.349 62.461,76.165 63.011 C 75.980 63.562,75.454 63.781,74.995 63.497 C 74.537 63.214,73.505 63.638,72.703 64.440 C 71.900 65.242,68.948 66.203,66.141 66.576 C 63.334 66.948,61.281 67.646,61.578 68.126 C 61.875 68.607,60.966 69.000,59.559 69.000 C 58.152 69.000,57.000 69.408,57.000 69.906 C 57.000 70.405,54.751 71.122,52.001 71.500 C 49.252 71.878,46.750 72.595,46.442 73.094 C 46.134 73.592,45.046 74.000,44.024 74.000 C 43.003 74.000,42.017 74.426,41.833 74.947 C 41.650 75.468,39.937 76.167,38.026 76.501 C 36.115 76.835,34.315 77.421,34.026 77.804 C 33.737 78.187,32.600 78.654,31.500 78.842 C 30.400 79.029,29.350 79.592,29.167 80.092 C 28.983 80.591,28.234 81.000,27.503 81.000 C 25.395 81.000,19.000 87.756,19.000 89.982 C 19.000 91.092,18.550 92.000,18.000 92.000 C 17.450 92.000,17.000 94.502,17.000 97.559 C 17.000 101.010,17.379 102.884,18.000 102.500 C 18.637 102.106,19.000 104.990,19.000 110.441 C 19.000 115.148,19.406 119.000,19.903 119.000 C 20.399 119.000,21.132 126.191,21.530 134.981 C 21.928 143.770,22.647 150.718,23.127 150.421 C 23.607 150.125,24.000 153.284,24.000 157.441 C 24.000 161.598,24.392 165.000,24.872 165.000 C 25.352 165.000,26.070 172.200,26.469 181.000 C 26.868 189.800,27.601 197.000,28.097 197.000 C 28.594 197.000,29.000 200.600,29.000 205.000 C 29.000 209.667,29.417 213.000,30.000 213.000 C 30.550 213.000,31.000 213.702,31.000 214.559 C 31.000 215.540,30.537 215.840,29.750 215.367 C 28.758 214.771,28.753 214.929,29.727 216.133 C 30.484 217.069,31.214 223.073,31.630 231.790 C 32.001 239.567,32.686 245.694,33.152 245.406 C 33.619 245.118,34.000 248.284,34.000 252.441 C 34.000 256.598,34.399 260.000,34.886 260.000 C 35.373 260.000,36.099 267.195,36.499 275.989 C 36.902 284.834,37.623 291.733,38.113 291.430 C 38.603 291.128,39.000 294.744,39.000 299.500 C 39.000 304.240,39.396 307.873,39.880 307.574 C 40.363 307.275,41.086 313.999,41.485 322.515 C 41.884 331.032,42.613 338.000,43.105 338.000 C 43.597 338.000,44.000 341.788,44.000 346.417 C 44.000 351.046,44.399 354.983,44.887 355.167 C 45.375 355.350,46.091 362.250,46.479 370.500 C 46.866 378.750,47.592 385.650,48.092 385.833 C 48.591 386.017,49.000 388.379,49.000 391.083 C 49.000 393.787,49.450 396.000,50.000 396.000 C 50.550 396.000,51.000 397.121,51.000 398.491 C 51.000 401.142,56.596 407.368,58.128 406.421 C 58.607 406.125,59.000 406.306,59.000 406.824 C 59.000 407.851,62.743 409.309,64.750 409.065 C 65.438 408.981,66.000 409.382,66.000 409.956 C 66.000 410.530,66.675 411.000,67.500 411.000 C 68.325 411.000,69.000 411.441,69.000 411.981 C 69.000 412.520,70.122 413.243,71.493 413.588 C 72.864 413.932,73.738 414.615,73.434 415.107 C 73.130 415.598,73.809 416.000,74.941 416.000 C 76.073 416.000,77.000 416.394,77.000 416.875 C 77.000 417.356,78.410 418.032,80.134 418.377 C 81.858 418.722,84.022 419.873,84.944 420.935 C 85.865 421.997,87.829 423.170,89.309 423.541 C 90.789 423.913,92.000 424.618,92.000 425.108 C 92.000 425.599,92.900 426.000,94.000 426.000 C 95.100 426.000,96.000 426.401,96.000 426.892 C 96.000 427.382,97.211 428.087,98.691 428.459 C 100.171 428.830,102.110 429.974,103.000 431.000 C 103.890 432.026,105.826 433.169,107.302 433.540 C 108.778 433.910,109.795 434.522,109.562 434.899 C 109.329 435.276,110.079 435.656,111.229 435.742 C 112.379 435.829,113.662 436.453,114.080 437.130 C 114.498 437.806,115.655 438.479,116.652 438.625 C 117.648 438.771,118.622 439.366,118.815 439.946 C 119.008 440.525,119.611 441.000,120.155 441.000 C 120.698 441.000,121.818 441.675,122.643 442.500 C 123.468 443.325,125.236 444.000,126.571 444.000 C 127.907 444.000,129.000 444.450,129.000 445.000 C 129.000 445.550,129.675 446.000,130.500 446.000 C 131.325 446.000,132.000 446.401,132.000 446.892 C 132.000 447.382,133.125 448.066,134.500 448.411 C 135.875 448.756,137.000 449.480,137.000 450.019 C 137.000 450.559,137.482 451.000,138.071 451.000 C 138.661 451.000,139.822 451.679,140.652 452.509 C 141.482 453.339,142.578 453.761,143.088 453.446 C 143.597 453.131,144.299 453.614,144.646 454.520 C 145.151 455.837,145.448 455.900,146.124 454.834 C 146.757 453.835,146.973 453.814,146.985 454.750 C 146.993 455.438,147.675 456.000,148.500 456.000 C 149.325 456.000,150.000 456.348,150.000 456.773 C 150.000 457.725,157.085 461.595,158.196 461.250 C 158.638 461.113,159.000 461.414,159.000 461.921 C 159.000 462.427,160.350 463.138,162.000 463.500 C 163.650 463.862,165.000 464.573,165.000 465.079 C 165.000 465.586,165.852 466.000,166.893 466.000 C 167.934 466.000,169.045 466.675,169.362 467.500 C 169.678 468.325,170.851 469.000,171.969 469.000 C 173.086 469.000,174.000 469.450,174.000 470.000 C 174.000 470.550,174.675 471.000,175.500 471.000 C 176.325 471.000,177.000 471.430,177.000 471.955 C 177.000 472.480,178.560 473.202,180.466 473.560 C 182.585 473.957,184.161 474.933,184.522 476.070 C 184.882 477.203,186.456 478.183,188.548 478.575 C 190.437 478.929,191.735 479.620,191.432 480.110 C 191.130 480.599,191.809 481.000,192.941 481.000 C 194.073 481.000,195.000 481.450,195.000 482.000 C 195.000 482.550,195.845 483.000,196.878 483.000 C 197.910 483.000,199.315 483.675,200.000 484.500 C 200.685 485.325,201.672 486.000,202.194 486.000 C 202.716 486.000,203.818 486.675,204.643 487.500 C 205.468 488.325,207.011 489.000,208.071 489.000 C 209.132 489.000,210.000 489.450,210.000 490.000 C 210.000 490.550,210.900 491.000,212.000 491.000 C 213.100 491.000,214.000 491.450,214.000 492.000 C 214.000 492.550,214.689 493.000,215.531 493.000 C 216.374 493.000,217.322 493.675,217.638 494.500 C 217.955 495.325,219.066 496.000,220.107 496.000 C 221.148 496.000,222.000 496.414,222.000 496.921 C 222.000 497.427,223.354 498.138,225.009 498.502 C 226.664 498.865,227.762 499.576,227.450 500.081 C 227.137 500.587,227.985 501.000,229.334 501.000 C 230.683 501.000,232.045 501.675,232.362 502.500 C 232.678 503.325,233.851 504.000,234.969 504.000 C 236.086 504.000,237.000 504.450,237.000 505.000 C 237.000 505.550,237.675 506.000,238.500 506.000 C 239.325 506.000,240.000 506.430,240.000 506.955 C 240.000 507.480,241.575 508.205,243.500 508.566 C 245.425 508.927,247.000 509.570,247.000 509.995 C 247.000 510.767,250.837 512.312,252.250 512.108 C 252.662 512.049,253.000 512.450,253.000 513.000 C 253.000 513.550,255.250 514.000,258.000 514.000 C 260.750 514.000,263.000 513.550,263.000 513.000 C 263.000 512.450,263.477 512.000,264.059 512.000 C 264.641 512.000,264.789 512.563,264.387 513.250 C 263.985 513.938,264.556 513.712,265.657 512.750 C 266.757 511.788,268.185 511.000,268.829 511.000 C 269.473 511.000,270.000 510.586,270.000 510.079 C 270.000 509.573,271.349 508.863,272.999 508.500 C 274.648 508.138,276.561 507.038,277.249 506.055 C 277.937 505.073,279.963 503.947,281.750 503.555 C 283.538 503.162,285.000 502.427,285.000 501.921 C 285.000 501.414,285.675 501.000,286.500 501.000 C 287.325 501.000,288.000 500.550,288.000 500.000 C 288.000 499.450,288.914 499.000,290.031 499.000 C 291.149 499.000,292.322 498.325,292.638 497.500 C 292.955 496.675,294.317 496.000,295.666 496.000 C 297.046 496.000,297.848 495.563,297.500 495.000 C 297.160 494.450,297.788 494.000,298.896 494.000 C 300.003 494.000,302.016 492.893,303.368 491.541 C 304.721 490.188,306.992 488.789,308.414 488.432 C 309.836 488.075,311.000 487.382,311.000 486.892 C 311.000 486.401,311.900 486.000,313.000 486.000 C 314.100 486.000,315.000 485.599,315.000 485.108 C 315.000 484.618,316.125 483.934,317.500 483.589 C 318.875 483.244,320.000 482.520,320.000 481.981 C 320.000 481.441,320.675 481.000,321.500 481.000 C 322.325 481.000,323.000 480.600,323.000 480.111 C 323.000 479.623,324.550 478.932,326.444 478.577 C 328.543 478.183,330.118 477.204,330.478 476.070 C 330.839 474.933,332.415 473.957,334.534 473.560 C 336.440 473.202,338.000 472.453,338.000 471.896 C 338.000 471.338,338.370 471.110,338.822 471.390 C 339.274 471.669,340.394 471.021,341.312 469.949 C 342.230 468.877,343.660 468.000,344.490 468.000 C 345.321 468.000,346.000 467.550,346.000 467.000 C 346.000 466.450,347.152 466.000,348.559 466.000 C 350.010 466.000,350.851 465.567,350.500 465.000 C 350.160 464.450,350.788 464.000,351.896 464.000 C 353.003 464.000,355.043 462.866,356.429 461.480 C 357.815 460.094,360.310 458.688,361.974 458.355 C 363.638 458.022,365.000 457.356,365.000 456.875 C 365.000 456.394,365.482 456.000,366.071 456.000 C 366.661 456.000,367.818 455.325,368.643 454.500 C 369.468 453.675,371.037 453.000,372.130 453.000 C 373.224 453.000,373.840 452.550,373.500 452.000 C 373.160 451.450,373.584 451.000,374.441 451.000 C 375.298 451.000,376.000 450.523,376.000 449.941 C 376.000 449.359,376.434 449.150,376.964 449.477 C 377.493 449.805,378.843 449.157,379.964 448.036 C 381.084 446.916,382.675 446.000,383.500 446.000 C 384.325 446.000,385.000 445.586,385.000 445.079 C 385.000 444.573,386.350 443.862,388.000 443.500 C 389.650 443.138,391.000 442.427,391.000 441.921 C 391.000 441.414,391.852 441.000,392.893 441.000 C 393.934 441.000,395.045 440.325,395.362 439.500 C 395.678 438.675,396.851 438.000,397.969 438.000 C 399.086 438.000,400.000 437.550,400.000 437.000 C 400.000 436.450,400.675 436.000,401.500 436.000 C 402.325 436.000,403.000 435.599,403.000 435.108 C 403.000 434.618,404.125 433.934,405.500 433.589 C 406.875 433.244,408.000 432.520,408.000 431.981 C 408.000 431.441,408.637 431.000,409.417 431.000 C 410.196 431.000,410.983 430.563,411.167 430.029 C 411.444 429.221,413.861 428.436,417.183 428.074 C 417.558 428.033,418.139 427.136,418.474 426.081 C 418.884 424.790,420.395 423.940,423.094 423.484 C 425.394 423.096,427.611 421.995,428.292 420.903 C 428.946 419.857,430.287 419.000,431.272 419.000 C 432.257 419.000,433.322 418.325,433.638 417.500 C 433.955 416.675,435.028 416.000,436.024 416.000 C 437.019 416.000,437.983 415.563,438.167 415.029 C 438.350 414.495,439.497 413.907,440.715 413.723 C 441.933 413.539,443.821 412.359,444.911 411.102 C 446.002 409.845,447.368 409.109,447.947 409.467 C 448.526 409.825,449.000 409.641,449.000 409.059 C 449.000 408.477,449.900 408.000,451.000 408.000 C 452.100 408.000,453.000 407.550,453.000 407.000 C 453.000 406.450,453.601 406.000,454.335 406.000 C 455.785 406.000,461.000 400.595,461.000 399.092 C 461.000 398.583,461.422 398.017,461.937 397.833 C 462.452 397.650,463.191 392.438,463.579 386.250 C 463.967 380.063,464.671 375.000,465.142 375.000 C 465.614 375.000,466.000 371.850,466.000 368.000 C 466.000 364.150,466.404 361.000,466.898 361.000 C 467.391 361.000,468.120 354.925,468.518 347.500 C 468.916 340.075,469.637 334.000,470.121 334.000 C 470.604 334.000,471.000 330.887,471.000 327.083 C 471.000 323.279,471.412 320.017,471.915 319.833 C 472.418 319.650,473.145 313.650,473.531 306.500 C 473.916 299.350,474.613 293.259,475.079 292.964 C 475.545 292.669,476.010 289.646,476.112 286.247 C 476.214 282.847,476.680 280.303,477.149 280.592 C 477.617 280.881,478.011 279.179,478.026 276.809 C 478.084 266.900,479.313 252.476,480.125 252.167 C 480.606 251.983,481.000 248.721,481.000 244.917 C 481.000 241.112,481.400 238.000,481.888 238.000 C 482.377 238.000,483.102 232.150,483.500 225.000 C 483.898 217.850,484.623 212.000,485.112 212.000 C 485.600 212.000,486.000 208.662,486.000 204.583 C 486.000 200.504,486.398 197.017,486.884 196.833 C 487.370 196.650,488.074 191.561,488.449 185.524 C 488.824 179.487,489.663 173.889,490.315 173.082 C 491.241 171.936,491.227 171.780,490.250 172.367 C 489.475 172.832,489.000 172.557,489.000 171.642 C 489.000 170.831,489.435 170.017,489.966 169.833 C 490.497 169.650,491.014 166.688,491.115 163.250 C 491.217 159.813,491.628 157.000,492.029 157.000 C 492.430 157.000,493.088 150.813,493.491 143.250 C 493.893 135.688,494.615 129.253,495.095 128.951 C 495.575 128.649,496.032 125.396,496.112 121.721 C 496.192 118.047,496.582 115.242,496.980 115.488 C 497.989 116.111,499.122 95.354,498.338 90.616 C 497.914 88.056,497.077 86.571,495.881 86.259 C 494.883 85.998,493.796 84.934,493.466 83.894 C 493.137 82.855,491.772 81.730,490.433 81.394 C 489.095 81.058,488.000 80.382,488.000 79.892 C 488.000 79.401,486.848 79.000,485.441 79.000 C 484.034 79.000,483.128 78.601,483.430 78.114 C 483.731 77.626,481.507 76.919,478.489 76.542 C 475.470 76.165,473.000 75.438,473.000 74.928 C 473.000 74.418,471.912 74.000,470.583 74.000 C 469.254 74.000,468.013 73.539,467.825 72.976 C 467.638 72.413,465.688 71.669,463.492 71.322 C 461.296 70.975,459.235 70.288,458.910 69.795 C 458.586 69.303,457.348 68.827,456.160 68.737 C 454.972 68.648,454.000 68.262,454.000 67.881 C 454.000 67.500,451.750 66.878,449.000 66.500 C 446.250 66.122,444.000 65.405,444.000 64.906 C 444.000 64.408,442.875 64.000,441.500 64.000 C 440.125 64.000,439.000 63.592,439.000 63.094 C 439.000 62.595,436.750 61.878,434.000 61.500 C 431.250 61.122,429.000 60.405,429.000 59.906 C 429.000 59.408,427.875 59.000,426.500 59.000 C 425.125 59.000,424.000 58.608,424.000 58.128 C 424.000 57.648,422.200 56.968,420.000 56.616 C 417.800 56.264,416.000 55.532,416.000 54.988 C 416.000 54.445,414.913 54.000,413.583 54.000 C 412.254 54.000,411.017 53.574,410.833 53.053 C 410.650 52.532,408.925 51.833,407.000 51.500 C 405.075 51.167,403.350 50.468,403.167 49.947 C 402.983 49.426,401.296 49.000,399.417 49.000 C 397.538 49.000,396.000 48.592,396.000 48.094 C 396.000 47.595,393.750 46.878,391.000 46.500 C 388.250 46.122,386.000 45.405,386.000 44.906 C 386.000 44.408,384.875 44.000,383.500 44.000 C 382.125 44.000,381.000 43.592,381.000 43.094 C 381.000 42.595,378.750 41.878,376.000 41.500 C 373.250 41.122,371.000 40.405,371.000 39.906 C 371.000 39.408,370.068 39.000,368.929 39.000 C 367.789 39.000,366.182 38.325,365.357 37.500 C 364.532 36.675,362.577 36.000,361.012 36.000 C 359.447 36.000,358.017 35.591,357.833 35.092 C 357.650 34.592,356.600 34.029,355.500 33.842 C 354.400 33.654,353.263 33.187,352.974 32.804 C 352.685 32.421,350.897 31.834,349.000 31.500 C 347.103 31.166,345.209 30.354,344.791 29.696 C 344.249 28.843,344.022 28.930,344.000 30.000 C 343.979 31.019,343.734 31.131,343.235 30.350 C 342.831 29.717,341.600 29.042,340.500 28.850 C 339.400 28.657,338.248 28.161,337.939 27.747 C 337.631 27.333,335.381 26.720,332.939 26.385 C 330.498 26.049,328.350 25.376,328.167 24.888 C 327.983 24.399,326.746 24.000,325.417 24.000 C 324.088 24.000,323.000 23.550,323.000 23.000 C 323.000 22.450,321.961 22.000,320.691 22.000 C 319.421 22.000,317.509 21.339,316.441 20.532 C 315.374 19.724,313.488 19.049,312.250 19.032 C 311.012 19.014,310.000 18.592,310.000 18.094 C 310.000 17.595,307.750 16.878,305.000 16.500 C 302.250 16.122,300.000 15.405,300.000 14.906 C 300.000 14.408,298.875 14.000,297.500 14.000 C 296.125 14.000,295.000 13.592,295.000 13.094 C 295.000 12.595,292.750 11.878,290.000 11.500 C 287.250 11.122,285.000 10.405,285.000 9.906 C 285.000 9.408,283.875 9.000,282.500 9.000 C 281.125 9.000,280.000 8.498,280.000 7.883 C 280.000 7.232,278.959 6.966,277.500 7.245 C 276.125 7.508,275.000 7.335,275.000 6.861 C 275.000 6.388,273.875 6.000,272.500 6.000 C 271.125 6.000,270.000 5.550,270.000 5.000 C 270.000 4.450,268.902 4.000,267.559 4.000 C 266.216 4.000,264.816 3.511,264.446 2.913 C 264.077 2.315,262.925 2.048,261.887 2.319 C 260.849 2.591,260.000 2.405,260.000 1.906 C 260.000 1.408,258.200 1.000,256.000 1.000 C 253.800 1.000,252.000 1.459,252.000 2.019 M277.779 82.836 C 277.992 83.476,279.254 84.000,280.583 84.000 C 281.913 84.000,283.000 84.399,283.000 84.886 C 283.000 85.374,285.025 86.077,287.500 86.448 C 291.585 87.060,294.614 91.000,291.000 91.000 C 290.450 91.000,290.000 92.800,290.000 95.000 C 290.000 98.574,290.260 99.000,292.441 99.000 C 293.784 99.000,295.188 99.495,295.562 100.101 C 295.949 100.727,297.484 100.953,299.121 100.626 C 300.718 100.306,302.000 100.484,302.000 101.025 C 302.000 101.561,303.125 102.000,304.500 102.000 C 305.875 102.000,307.000 102.410,307.000 102.912 C 307.000 103.414,308.800 104.128,311.000 104.500 C 313.200 104.872,315.000 105.586,315.000 106.088 C 315.000 106.590,316.125 107.000,317.500 107.000 C 318.875 107.000,320.000 107.414,320.000 107.921 C 320.000 108.427,321.350 109.138,323.000 109.500 C 324.650 109.862,326.000 110.573,326.000 111.079 C 326.000 111.586,326.900 112.000,328.000 112.000 C 329.100 112.000,330.000 112.414,330.000 112.921 C 330.000 113.427,331.263 114.118,332.806 114.457 C 334.349 114.796,336.248 115.957,337.027 117.037 C 337.805 118.117,338.997 119.000,339.675 119.000 C 340.354 119.000,341.980 120.071,343.289 121.380 C 344.598 122.689,346.621 124.062,347.784 124.431 C 348.946 124.800,350.176 125.979,350.516 127.051 C 350.856 128.123,351.824 129.000,352.667 129.000 C 354.657 129.000,361.000 135.343,361.000 137.333 C 361.000 138.176,361.899 139.151,362.998 139.499 C 364.096 139.848,365.270 141.228,365.606 142.567 C 365.942 143.905,366.618 145.000,367.108 145.000 C 368.586 145.000,368.128 154.014,366.571 155.571 C 364.956 157.187,358.000 157.534,358.000 156.000 C 358.000 155.450,356.875 155.000,355.500 155.000 C 353.667 155.000,353.000 155.533,353.000 157.000 C 353.000 158.100,353.408 159.000,353.906 159.000 C 354.405 159.000,355.122 161.250,355.500 164.000 C 355.878 166.750,356.595 169.000,357.094 169.000 C 357.592 169.000,358.000 170.088,358.000 171.417 C 358.000 172.746,358.464 173.988,359.032 174.177 C 359.599 174.366,360.341 178.454,360.680 183.261 C 361.020 188.067,361.680 192.000,362.149 192.000 C 363.434 192.000,363.189 203.770,361.894 204.202 C 360.224 204.759,360.085 236.184,361.750 236.745 C 362.438 236.977,363.000 237.804,363.000 238.583 C 363.000 239.363,363.430 240.000,363.955 240.000 C 364.480 240.000,365.202 241.560,365.560 243.466 C 365.962 245.614,366.931 247.161,368.105 247.533 C 369.147 247.864,370.000 249.019,370.000 250.099 C 370.000 251.179,370.675 252.322,371.500 252.638 C 372.325 252.955,373.000 254.066,373.000 255.107 C 373.000 256.148,373.401 257.000,373.892 257.000 C 374.382 257.000,375.066 258.125,375.411 259.500 C 375.756 260.875,376.480 262.000,377.019 262.000 C 377.559 262.000,378.000 262.637,378.000 263.417 C 378.000 264.196,378.385 264.983,378.857 265.167 C 383.608 267.015,378.984 278.000,373.455 278.000 C 372.105 278.000,371.000 278.450,371.000 279.000 C 371.000 279.550,369.875 280.000,368.500 280.000 C 366.111 280.000,366.000 280.267,366.000 286.000 C 366.000 289.333,366.444 292.000,367.000 292.000 C 367.550 292.000,368.000 292.675,368.000 293.500 C 368.000 294.325,368.402 295.000,368.893 295.000 C 371.832 295.000,371.010 301.545,367.949 302.516 C 365.388 303.329,365.418 307.139,368.000 309.000 C 370.989 311.154,368.460 316.000,364.347 316.000 C 363.313 316.000,363.000 318.192,363.000 325.441 C 363.000 330.656,362.552 335.159,362.000 335.500 C 361.450 335.840,361.000 336.891,361.000 337.837 C 361.000 339.620,357.719 343.000,355.989 343.000 C 355.445 343.000,355.000 343.425,355.000 343.944 C 355.000 344.496,346.301 345.015,334.045 345.194 L 313.089 345.500 309.045 349.711 C 306.820 352.028,305.000 354.390,305.000 354.961 C 305.000 355.533,304.572 356.000,304.050 356.000 C 303.527 356.000,302.794 358.700,302.420 362.000 C 302.047 365.300,301.350 368.000,300.871 368.000 C 300.392 368.000,300.000 369.800,300.000 372.000 C 300.000 374.200,299.615 376.000,299.144 376.000 C 298.673 376.000,297.985 379.262,297.616 383.250 C 297.247 387.238,296.507 390.650,295.973 390.833 C 295.438 391.017,295.000 392.029,295.000 393.083 C 295.000 394.952,293.428 395.000,232.500 395.000 C 191.500 395.000,170.000 394.656,170.000 394.000 C 170.000 393.450,170.450 393.000,171.000 393.000 C 171.550 393.000,172.000 391.875,172.000 390.500 C 172.000 389.125,172.408 388.000,172.906 388.000 C 173.405 388.000,174.122 385.750,174.500 383.000 C 174.878 380.250,175.595 378.000,176.094 378.000 C 176.592 378.000,177.000 376.875,177.000 375.500 C 177.000 374.125,177.428 373.000,177.950 373.000 C 178.473 373.000,179.206 370.300,179.580 367.000 C 179.953 363.700,180.650 361.000,181.129 361.000 C 181.608 361.000,182.000 359.650,182.000 358.000 C 182.000 356.350,182.408 355.000,182.907 355.000 C 183.405 355.000,184.134 350.725,184.526 345.500 C 184.917 340.275,185.634 336.000,186.119 336.000 C 187.311 336.000,187.247 313.424,186.049 311.236 C 185.526 310.281,184.819 306.913,184.477 303.750 C 184.136 300.587,183.438 298.000,182.928 298.000 C 182.418 298.000,182.000 297.325,182.000 296.500 C 182.000 295.675,181.599 295.000,181.108 295.000 C 180.618 295.000,179.934 293.875,179.589 292.500 C 179.244 291.125,178.520 290.000,177.981 290.000 C 177.441 290.000,177.000 289.518,177.000 288.929 C 177.000 287.932,176.406 287.106,173.298 283.785 C 171.427 281.785,169.147 280.000,168.464 280.000 C 167.242 280.000,160.222 272.274,159.566 270.209 C 159.199 269.050,158.021 267.824,156.949 267.484 C 155.877 267.144,155.000 265.981,155.000 264.901 C 155.000 263.821,154.325 262.678,153.500 262.362 C 152.675 262.045,152.000 260.982,152.000 260.000 C 152.000 259.018,151.325 257.955,150.500 257.638 C 149.675 257.322,149.000 256.149,149.000 255.031 C 149.000 253.914,148.550 253.000,148.000 253.000 C 147.450 253.000,147.000 252.325,147.000 251.500 C 147.000 250.675,146.570 250.000,146.045 250.000 C 145.520 250.000,144.795 248.425,144.434 246.500 C 144.073 244.575,143.377 243.000,142.889 243.000 C 142.400 243.000,142.000 242.325,142.000 241.500 C 142.000 240.675,141.608 240.000,141.128 240.000 C 140.648 240.000,139.968 238.200,139.616 236.000 C 139.264 233.800,138.532 232.000,137.988 232.000 C 137.445 232.000,137.000 230.463,137.000 228.583 C 137.000 226.704,136.554 225.017,136.010 224.833 C 135.465 224.650,134.726 221.688,134.367 218.250 C 134.009 214.813,133.329 212.000,132.858 212.000 C 132.386 212.000,132.000 208.175,132.000 203.500 C 132.000 198.500,131.588 195.000,131.000 195.000 C 130.450 195.000,130.000 194.325,130.000 193.500 C 130.000 192.675,130.450 192.000,131.000 192.000 C 131.578 192.000,132.000 188.833,132.000 184.500 C 132.000 180.375,132.392 177.000,132.871 177.000 C 133.350 177.000,134.047 174.300,134.420 171.000 C 134.794 167.700,135.527 165.000,136.050 165.000 C 136.572 165.000,137.000 163.875,137.000 162.500 C 137.000 161.125,137.414 160.000,137.921 160.000 C 138.427 160.000,139.138 158.650,139.500 157.000 C 139.862 155.350,140.573 154.000,141.079 154.000 C 141.586 154.000,142.000 153.100,142.000 152.000 C 142.000 150.900,142.401 150.000,142.892 150.000 C 143.382 150.000,144.066 148.875,144.411 147.500 C 144.756 146.125,145.480 145.000,146.019 145.000 C 146.559 145.000,147.000 144.491,147.000 143.868 C 147.000 143.246,148.575 141.251,150.500 139.435 C 152.425 137.620,154.000 135.675,154.000 135.113 C 154.000 133.802,158.778 129.000,160.083 129.000 C 160.628 129.000,162.982 127.037,165.314 124.638 C 167.645 122.239,170.553 119.959,171.776 119.571 C 172.999 119.183,174.000 118.446,174.000 117.933 C 174.000 117.420,174.675 117.000,175.500 117.000 C 176.325 117.000,177.000 116.559,177.000 116.019 C 177.000 115.480,178.125 114.756,179.500 114.411 C 180.875 114.066,182.000 113.382,182.000 112.892 C 182.000 112.401,182.675 112.000,183.500 112.000 C 184.325 112.000,185.000 111.600,185.000 111.111 C 185.000 110.623,186.575 109.927,188.500 109.566 C 190.425 109.205,192.000 108.480,192.000 107.955 C 192.000 107.430,192.675 107.000,193.500 107.000 C 194.325 107.000,195.000 106.590,195.000 106.088 C 195.000 105.586,196.798 104.872,198.995 104.501 C 201.192 104.130,203.227 103.441,203.518 102.971 C 203.809 102.500,206.061 101.813,208.523 101.444 C 210.985 101.075,213.000 100.374,213.000 99.886 C 213.000 99.399,214.575 99.000,216.500 99.000 C 219.833 99.000,220.000 98.833,220.000 95.500 C 220.000 93.575,219.550 92.000,219.000 92.000 C 218.450 92.000,218.000 90.650,218.000 89.000 C 218.000 86.467,218.389 86.000,220.500 86.000 C 221.875 86.000,223.000 85.550,223.000 85.000 C 223.000 84.450,224.575 84.000,226.500 84.000 C 228.425 84.000,230.000 83.574,230.000 83.052 C 230.000 80.875,277.054 80.662,277.779 82.836 M238.000 93.000 C 238.000 93.550,236.200 94.000,234.000 94.000 C 231.800 94.000,230.000 94.423,230.000 94.940 C 230.000 95.456,228.313 96.019,226.250 96.190 L 222.500 96.500 222.714 102.488 C 222.832 105.781,223.394 108.631,223.964 108.821 C 224.534 109.011,225.000 109.804,225.000 110.583 C 225.000 111.362,225.408 112.000,225.906 112.000 C 226.405 112.000,227.122 114.250,227.500 117.000 C 227.878 119.750,228.595 122.000,229.094 122.000 C 229.592 122.000,230.000 122.675,230.000 123.500 C 230.000 124.325,230.450 125.000,231.000 125.000 C 233.906 125.000,231.750 128.824,228.500 129.434 C 226.575 129.795,225.000 130.520,225.000 131.045 C 225.000 131.570,224.325 132.000,223.500 132.000 C 222.675 132.000,222.000 132.420,222.000 132.933 C 222.000 133.446,221.003 134.182,219.785 134.568 C 218.567 134.955,216.100 136.785,214.303 138.636 C 212.506 140.486,210.685 142.000,210.257 142.000 C 208.853 142.000,204.000 147.048,204.000 148.509 C 204.000 150.356,200.973 149.290,199.193 146.816 C 198.475 145.817,197.223 145.000,196.412 145.000 C 195.601 145.000,194.678 144.325,194.362 143.500 C 194.045 142.675,192.982 142.000,192.000 142.000 C 191.018 142.000,189.943 141.293,189.611 140.430 C 188.702 138.059,184.567 139.029,184.187 141.703 C 184.014 142.914,183.026 144.174,181.990 144.503 C 180.675 144.921,179.906 146.442,179.440 149.550 C 179.073 151.998,178.374 154.000,177.886 154.000 C 177.399 154.000,177.000 154.675,177.000 155.500 C 177.000 156.325,176.572 157.000,176.050 157.000 C 175.527 157.000,174.794 159.700,174.420 163.000 C 174.047 166.300,173.350 169.000,172.871 169.000 C 172.392 169.000,172.000 170.350,172.000 172.000 C 172.000 173.650,171.550 175.000,171.000 175.000 C 170.429 175.000,170.000 178.000,170.000 182.000 L 170.000 189.000 159.391 189.000 L 148.781 189.000 149.505 200.250 C 149.903 206.438,150.627 211.650,151.114 211.833 C 151.601 212.017,152.000 213.929,152.000 216.083 C 152.000 218.238,152.408 220.000,152.906 220.000 C 153.405 220.000,154.122 222.250,154.500 225.000 C 154.878 227.750,155.595 230.000,156.094 230.000 C 156.592 230.000,157.000 230.675,157.000 231.500 C 157.000 232.325,157.400 233.000,157.889 233.000 C 158.377 233.000,159.073 234.575,159.434 236.500 C 159.795 238.425,160.520 240.000,161.045 240.000 C 161.570 240.000,162.000 240.675,162.000 241.500 C 162.000 242.325,162.420 243.000,162.933 243.000 C 163.446 243.000,164.174 243.974,164.552 245.165 C 166.314 250.717,173.209 254.068,174.500 250.000 C 174.849 248.900,175.878 248.000,176.786 248.000 C 177.693 248.000,179.351 246.956,180.468 245.681 C 183.902 241.761,189.000 241.185,189.000 244.717 C 189.000 246.140,197.207 255.000,198.524 255.000 C 198.864 255.000,199.770 255.563,200.537 256.250 C 203.846 259.218,204.977 260.000,205.958 260.000 C 206.531 260.000,207.000 260.441,207.000 260.981 C 207.000 261.520,208.125 262.244,209.500 262.589 C 210.875 262.934,212.000 263.618,212.000 264.108 C 212.000 264.599,212.675 265.000,213.500 265.000 C 214.325 265.000,215.000 265.430,215.000 265.955 C 215.000 266.480,216.575 267.205,218.500 267.566 C 220.425 267.927,222.000 268.623,222.000 269.111 C 222.000 269.600,223.088 270.000,224.417 270.000 C 225.746 270.000,226.983 270.438,227.167 270.973 C 227.350 271.507,230.762 272.247,234.750 272.616 C 238.738 272.985,242.000 273.673,242.000 274.144 C 242.000 275.642,254.007 275.136,255.571 273.571 C 256.715 272.428,257.000 268.133,257.000 252.071 L 257.000 232.000 262.500 232.000 C 265.525 232.000,268.000 231.550,268.000 231.000 C 268.000 230.450,269.088 230.000,270.417 230.000 C 271.746 230.000,272.989 229.533,273.179 228.963 C 273.943 226.670,282.475 227.325,282.813 229.703 C 282.986 230.914,283.975 232.175,285.012 232.504 C 286.049 232.833,287.176 233.979,287.516 235.051 C 287.856 236.123,288.554 237.000,289.067 237.000 C 289.580 237.000,290.000 237.675,290.000 238.500 C 290.000 239.502,291.002 240.000,293.022 240.000 C 296.027 240.000,307.593 229.769,306.531 228.050 C 306.298 227.673,306.981 226.734,308.049 225.965 C 309.117 225.195,310.268 223.088,310.607 221.282 C 310.945 219.477,311.623 218.000,312.111 218.000 C 312.600 218.000,313.000 217.325,313.000 216.500 C 313.000 215.675,313.401 215.000,313.892 215.000 C 314.382 215.000,315.066 213.875,315.411 212.500 C 315.999 210.154,318.000 208.923,318.000 210.906 C 318.000 211.405,320.250 212.122,323.000 212.500 C 325.750 212.878,328.000 213.595,328.000 214.094 C 328.000 214.592,329.800 215.000,332.000 215.000 C 335.905 215.000,336.000 214.917,336.000 211.500 C 336.000 209.575,336.450 208.000,337.000 208.000 C 337.550 208.000,338.000 205.525,338.000 202.500 C 338.000 199.475,338.450 197.000,339.000 197.000 C 339.593 197.000,340.000 193.333,340.000 188.000 C 340.000 182.667,339.593 179.000,339.000 179.000 C 338.444 179.000,338.000 176.333,338.000 173.000 C 338.000 169.667,337.556 167.000,337.000 167.000 C 336.450 167.000,336.000 165.875,336.000 164.500 C 336.000 162.638,336.529 162.000,338.071 162.000 C 340.285 162.000,343.000 159.836,343.000 158.071 C 343.000 157.482,342.592 157.000,342.094 157.000 C 341.595 157.000,340.878 154.750,340.500 152.000 C 340.122 149.250,339.405 147.000,338.906 147.000 C 338.408 147.000,338.000 146.325,338.000 145.500 C 338.000 144.675,337.559 144.000,337.019 144.000 C 336.480 144.000,335.756 142.875,335.411 141.500 C 335.066 140.125,334.382 139.000,333.892 139.000 C 333.401 139.000,333.000 138.304,333.000 137.452 C 333.000 136.601,331.875 134.862,330.500 133.588 C 329.125 132.313,328.000 130.760,328.000 130.135 C 328.000 129.511,327.580 129.000,327.067 129.000 C 326.554 129.000,325.856 128.123,325.516 127.051 C 325.176 125.979,324.044 124.831,323.000 124.500 C 321.956 124.169,320.824 123.021,320.484 121.949 C 320.144 120.877,319.122 120.000,318.214 120.000 C 317.307 120.000,315.623 118.905,314.473 117.567 C 311.285 113.857,307.729 113.362,304.863 116.228 L 302.481 118.610 300.205 116.305 C 298.953 115.037,297.270 114.000,296.465 114.000 C 295.659 114.000,295.000 113.656,295.000 113.236 C 295.000 112.433,287.701 109.000,285.993 109.000 C 285.447 109.000,285.000 108.550,285.000 108.000 C 285.000 107.450,285.391 107.000,285.869 107.000 C 286.347 107.000,287.002 105.373,287.325 103.384 C 288.036 99.002,286.486 97.115,281.510 96.308 C 279.580 95.995,278.000 95.347,278.000 94.869 C 278.000 94.391,276.650 94.000,275.000 94.000 C 273.350 94.000,272.000 93.550,272.000 93.000 C 272.000 92.373,265.667 92.000,255.000 92.000 C 244.333 92.000,238.000 92.373,238.000 93.000 M263.972 161.960 C 264.812 162.925,266.512 164.034,267.750 164.424 C 269.016 164.824,270.000 165.943,270.000 166.984 C 270.000 168.001,270.479 168.993,271.065 169.188 C 271.650 169.383,272.392 171.558,272.714 174.022 C 273.036 176.485,273.795 178.831,274.400 179.235 C 275.194 179.765,275.189 179.974,274.380 179.985 C 273.764 179.993,273.039 181.964,272.768 184.365 C 272.238 189.065,267.703 195.000,264.642 195.000 C 263.739 195.000,263.000 195.450,263.000 196.000 C 263.000 196.550,262.325 197.000,261.500 197.000 C 260.675 197.000,260.000 197.450,260.000 198.000 C 260.000 198.556,257.333 199.000,254.000 199.000 C 250.667 199.000,248.000 198.556,248.000 198.000 C 248.000 197.450,247.325 197.000,246.500 197.000 C 245.675 197.000,245.000 196.550,245.000 196.000 C 245.000 195.450,244.394 195.000,243.653 195.000 C 241.324 195.000,238.029 191.396,237.377 188.134 C 237.032 186.410,236.356 185.000,235.875 185.000 C 235.394 185.000,235.000 182.075,235.000 178.500 C 235.000 174.833,235.436 172.000,236.000 172.000 C 236.550 172.000,237.000 171.364,237.000 170.586 C 237.000 168.670,243.589 162.000,245.482 162.000 C 246.317 162.000,247.000 161.550,247.000 161.000 C 247.000 160.450,247.675 160.000,248.500 160.000 C 249.325 160.000,250.000 159.622,250.000 159.161 C 250.000 157.642,262.369 160.120,263.972 161.960 " stroke="none" fill-rule="evenodd"></path></g></svg>