<svg
   xmlns="http://www.w3.org/2000/svg"
   height="135"
   width="135"
   version="1.1">
  <path
     d="m 31.47,59.657 v 2.088 a 8.016,8.016 0 1 0 0,11.686 v 1.765 h 2.532 V 59.657 h -2.531 z m -5.483,13.41 a 5.478,5.478 0 1 1 0,-10.956 5.478,5.478 0 0 1 0,10.955 z m 32.175,-13.41 v 2.088 a 8.016,8.016 0 1 0 0,11.686 v 1.765 h 2.531 V 59.657 h -2.53 z m -5.485,13.41 a 5.478,5.478 0 1 1 10e-4,-10.956 5.478,5.478 0 0 1 0,10.955 z m -12.27,-10.984 0.001,9.559 c 0,0.566 0.46,1.026 1.027,1.026 h 2.947 v 2.529 H 41.435 A 3.56,3.56 0 0 1 37.88,71.642 L 37.873,62.083 H 35.14 V 59.63 h 2.732 v -4.26 h 2.534 v 4.26 H 44.9 v 2.454 h -4.494 z m 85.812,-2.499 c -2.114,0 -4.035,0.82 -5.467,2.156 v -2.083 h -2.532 v 21.885 h 2.532 v -8.081 a 8.016,8.016 0 1 0 5.467,-13.876 z m 0,13.494 a 5.477,5.477 0 0 1 -5.467,-5.15 v -0.656 a 5.477,5.477 0 1 1 5.467,5.806 z m -49.578,-0.77 a 8.016,8.016 0 1 1 0.202,-9.14 l -2.428,1.262 a 5.322,5.322 0 1 0 -0.364,6.617 l 2.59,1.262 z m 36.472,-12.063 c 0.226,-0.372 0.63,-0.598 1.066,-0.598 h 0.487 c 1.034,0 1.873,0.838 1.873,1.872 v 13.676 h -2.582 V 63.61 a 4386.84,4386.84 0 0 0 -6.737,10.989 c -0.227,0.371 -0.63,0.597 -1.065,0.597 h -0.529 c -0.69,0 -1.248,-0.559 -1.248,-1.248 V 63.58 a 1904.214,1904.214 0 0 0 -7.031,11.499 l -0.07,0.116 H 94.799 V 59.648 h 2.584 v 0.031 l -0.06,10.722 6.192,-10.155 a 1.25,1.25 0 0 1 1.067,-0.598 h 0.49 c 1.033,0 1.871,0.835 1.873,1.868 0.005,2.857 0.015,8.063 0.015,8.82 l 6.153,-10.09 z m -20.186,7.342 v -7.93 h -2.531 v 2.087 a 8.016,8.016 0 1 0 0,11.686 v 1.765 h 2.531 V 67.59 Z m -8.016,5.478 a 5.478,5.478 0 1 1 0,-10.955 5.478,5.478 0 0 1 0,10.955 z M 14.424,53.23 v 8.515 a 8.016,8.016 0 1 0 0,11.686 v 1.765 h 2.531 V 53.23 Z M 8.94,73.066 a 5.4775,5.4775 0 1 1 0,-10.955 5.4775,5.4775 0 0 1 0,10.955 z"
     style="fill-rule:evenodd" />
</svg>
