<svg
   xmlns="http://www.w3.org/2000/svg"
   height="171"
   width="171"
   version="1.1">
  <path
     d="M 6.4921875 65 A 1.974 1.974 0 0 0 5.4316406 65.304688 A 1.98 1.98 0 0 0 4.5 66.992188 L 4.5 87.367188 C 4.5 88.057187 4.8495938 88.688687 5.4335938 89.054688 A 1.973 1.973 0 0 0 7.4355469 89.115234 L 15.753906 84.371094 L 15.753906 90.828125 C 15.753906 91.322125 16.018266 91.781391 16.447266 92.025391 L 27.105469 98.091797 L 29.876953 96.503906 L 18.501953 90.027344 L 18.501953 82.804688 L 29.894531 76.306641 L 27.123047 74.71875 L 18.501953 79.636719 L 18.501953 72.390625 C 18.501953 71.899625 18.235547 71.441266 17.810547 71.197266 L 7.4375 65.244141 A 1.974 1.974 0 0 0 6.4921875 65 z M 7.2480469 68.310547 L 15.753906 73.189453 L 15.753906 81.203125 L 7.2480469 86.054688 L 7.2480469 68.310547 z M 50.423828 71.230469 L 50.423828 79.744141 A 8.016 8.016 0 1 0 50.423828 91.431641 L 50.423828 93.195312 L 52.955078 93.195312 L 52.955078 71.230469 L 50.423828 71.230469 z M 73.871094 73.369141 L 73.871094 77.630859 L 71.140625 77.630859 L 71.140625 80.082031 L 73.873047 80.082031 L 73.880859 89.642578 A 3.56 3.56 0 0 0 77.435547 93.197266 L 80.382812 93.197266 L 80.382812 90.667969 L 77.435547 90.667969 C 76.868547 90.667969 76.408203 90.208578 76.408203 89.642578 L 76.40625 80.083984 L 80.900391 80.083984 L 80.900391 77.630859 L 76.40625 77.630859 L 76.40625 73.369141 L 73.871094 73.369141 z M 106.29102 77.578125 A 8.016 8.016 0 1 0 112.64062 90.308594 L 110.05078 89.046875 A 5.322 5.322 0 1 1 110.41406 82.429688 L 112.84375 81.167969 A 8.016 8.016 0 0 0 106.29102 77.578125 z M 61.613281 77.580078 A 8.016 8.016 0 1 0 67.470703 91.431641 L 67.470703 93.195312 L 70.001953 93.195312 L 70.001953 77.65625 L 67.470703 77.65625 L 67.470703 79.744141 A 8.016 8.016 0 0 0 61.613281 77.580078 z M 88.306641 77.580078 A 8.016 8.016 0 1 0 94.162109 91.431641 L 94.162109 93.195312 L 96.693359 93.195312 L 96.693359 77.65625 L 94.162109 77.65625 L 94.162109 79.744141 A 8.016 8.016 0 0 0 88.306641 77.580078 z M 120.54102 77.580078 A 8.016 8.016 0 1 0 126.39648 91.429688 L 126.39648 93.195312 L 128.92773 93.195312 L 128.92773 85.589844 L 128.92773 85.587891 L 128.92773 77.65625 L 126.39648 77.65625 L 126.39648 79.744141 A 8.016 8.016 0 0 0 120.54102 77.580078 z M 162.21875 77.583984 C 160.10475 77.583984 158.18395 78.404234 156.75195 79.740234 L 156.75195 77.65625 L 154.2207 77.65625 L 154.2207 99.542969 L 156.75195 99.542969 L 156.75195 91.460938 A 8.016 8.016 0 1 0 162.21875 77.585938 L 162.21875 77.583984 z M 150.17969 77.646484 C 149.74369 77.646484 149.33928 77.872141 149.11328 78.244141 L 149.11328 78.246094 L 142.96094 88.335938 C 142.96094 87.578938 142.95031 82.372625 142.94531 79.515625 C 142.94331 78.482625 142.10527 77.648438 141.07227 77.648438 L 140.58203 77.648438 A 1.25 1.25 0 0 0 139.51562 78.246094 L 133.32227 88.400391 L 133.38281 77.679688 L 133.38281 77.648438 L 130.79883 77.648438 L 130.79883 93.195312 L 133.27734 93.195312 L 133.34766 93.078125 A 1904.214 1904.214 0 0 1 140.37891 81.580078 L 140.37891 91.947266 C 140.37891 92.636266 140.93695 93.195312 141.62695 93.195312 L 142.1543 93.195312 C 142.5893 93.195313 142.9937 92.970609 143.2207 92.599609 A 4386.84 4386.84 0 0 1 149.95703 81.609375 L 149.95703 93.195312 L 152.53906 93.195312 L 152.53906 79.519531 C 152.53906 78.485531 151.70002 77.646484 150.66602 77.646484 L 150.17969 77.646484 z M 120.91016 80.109375 A 5.478 5.478 0 0 1 120.91016 91.064453 A 5.478 5.478 0 1 1 120.91016 80.109375 z M 44.939453 80.111328 A 5.4775 5.4775 0 0 1 44.939453 91.066406 A 5.4775 5.4775 0 1 1 44.939453 80.111328 z M 61.986328 80.111328 A 5.478 5.478 0 0 1 61.986328 91.066406 A 5.478 5.478 0 0 1 61.986328 80.111328 z M 88.677734 80.111328 A 5.478 5.478 0 0 1 88.677734 91.066406 A 5.478 5.478 0 0 1 88.677734 80.111328 z M 162.16016 80.125 A 5.477 5.477 0 1 1 162.21875 91.078125 A 5.477 5.477 0 0 1 156.75195 85.927734 L 156.75195 85.271484 A 5.477 5.477 0 0 1 162.16016 80.125 z "
     style="fill-rule:evenodd" />
</svg>
