<svg version="1.1" width="400" height="400" xmlns="http://www.w3.org/2000/svg">
<g>
<path d="M273.000 52.000 C 273.000 52.556,270.333 53.000,267.000 53.000 C 263.667 53.000,261.000 53.444,261.000 54.000 C 261.000 54.550,259.650 55.000,258.000 55.000 C 256.350 55.000,255.000 55.450,255.000 56.000 C 255.000 56.550,253.650 57.000,252.000 57.000 C 250.350 57.000,249.000 57.450,249.000 58.000 C 249.000 58.550,247.749 59.000,246.221 59.000 C 244.589 59.000,242.847 59.826,242.000 61.000 C 241.207 62.100,239.758 63.000,238.779 63.000 C 237.801 63.000,237.000 63.450,237.000 64.000 C 237.000 64.550,236.281 65.000,235.401 65.000 C 234.522 65.000,232.541 66.350,231.000 68.000 C 229.459 69.650,227.691 71.000,227.072 71.000 C 225.608 71.000,217.000 79.608,217.000 81.072 C 217.000 81.691,215.650 83.459,214.000 85.000 C 212.350 86.541,211.000 88.522,211.000 89.401 C 211.000 90.281,210.550 91.000,210.000 91.000 C 209.450 91.000,209.000 91.900,209.000 93.000 C 209.000 94.100,208.550 95.000,208.000 95.000 C 207.450 95.000,207.000 95.900,207.000 97.000 C 207.000 98.100,206.550 99.000,206.000 99.000 C 205.450 99.000,205.000 99.900,205.000 101.000 C 205.000 102.100,204.550 103.000,204.000 103.000 C 203.450 103.000,203.000 104.350,203.000 106.000 C 203.000 107.650,202.550 109.000,202.000 109.000 C 201.450 109.000,201.000 110.350,201.000 112.000 C 201.000 113.650,200.550 115.000,200.000 115.000 C 199.412 115.000,199.000 118.500,199.000 123.500 C 199.000 128.500,198.588 132.000,198.000 132.000 C 197.450 132.000,197.000 133.575,197.000 135.500 C 197.000 137.425,197.450 139.000,198.000 139.000 C 198.593 139.000,199.000 142.667,199.000 148.000 C 199.000 153.333,199.407 157.000,200.000 157.000 C 200.550 157.000,201.000 158.800,201.000 161.000 C 201.000 163.200,201.450 165.000,202.000 165.000 C 202.550 165.000,203.000 165.900,203.000 167.000 C 203.000 168.100,203.450 169.000,204.000 169.000 C 204.550 169.000,205.000 170.350,205.000 172.000 C 205.000 173.650,205.450 175.000,206.000 175.000 C 206.550 175.000,207.000 175.801,207.000 176.779 C 207.000 177.758,207.900 179.207,209.000 180.000 C 210.100 180.793,211.000 182.143,211.000 183.000 C 211.000 183.857,211.900 185.207,213.000 186.000 C 214.100 186.793,215.000 188.027,215.000 188.742 C 215.000 190.331,225.512 201.000,227.077 201.000 C 227.693 201.000,229.459 202.350,231.000 204.000 C 232.541 205.650,234.522 207.000,235.401 207.000 C 236.281 207.000,237.000 207.450,237.000 208.000 C 237.000 208.550,237.900 209.000,239.000 209.000 C 240.100 209.000,241.000 209.450,241.000 210.000 C 241.000 210.550,241.900 211.000,243.000 211.000 C 244.100 211.000,245.000 211.450,245.000 212.000 C 245.000 212.550,245.900 213.000,247.000 213.000 C 248.100 213.000,249.000 213.450,249.000 214.000 C 249.000 214.550,250.800 215.000,253.000 215.000 C 255.200 215.000,257.000 215.450,257.000 216.000 C 257.000 216.550,258.800 217.000,261.000 217.000 C 263.200 217.000,265.000 217.450,265.000 218.000 C 265.000 218.630,271.667 219.000,283.000 219.000 C 294.333 219.000,301.000 218.630,301.000 218.000 C 301.000 217.450,303.250 217.000,306.000 217.000 C 308.750 217.000,311.000 216.550,311.000 216.000 C 311.000 215.450,312.350 215.000,314.000 215.000 C 315.650 215.000,317.000 214.550,317.000 214.000 C 317.000 213.450,318.350 213.000,320.000 213.000 C 321.650 213.000,323.000 212.550,323.000 212.000 C 323.000 211.450,323.900 211.000,325.000 211.000 C 326.100 211.000,327.000 210.550,327.000 210.000 C 327.000 209.450,327.900 209.000,329.000 209.000 C 330.100 209.000,331.000 208.550,331.000 208.000 C 331.000 207.450,331.900 207.000,333.000 207.000 C 334.100 207.000,335.000 206.550,335.000 206.000 C 335.000 205.450,335.900 205.000,337.000 205.000 C 338.100 205.000,339.000 204.550,339.000 204.000 C 339.000 203.450,339.719 203.000,340.599 203.000 C 341.478 203.000,343.459 201.650,345.000 200.000 C 346.541 198.350,348.329 197.000,348.973 197.000 C 352.824 197.000,353.000 195.323,353.000 158.571 L 353.000 123.000 317.000 123.000 L 281.000 123.000 281.000 139.000 L 281.000 155.000 299.000 155.000 L 317.000 155.000 317.000 166.000 C 317.000 175.878,316.819 177.000,315.221 177.000 C 314.242 177.000,312.793 177.900,312.000 179.000 C 311.153 180.174,309.411 181.000,307.779 181.000 C 306.251 181.000,305.000 181.450,305.000 182.000 C 305.000 182.550,303.650 183.000,302.000 183.000 C 300.350 183.000,299.000 183.450,299.000 184.000 C 299.000 184.619,293.667 185.000,285.000 185.000 C 276.333 185.000,271.000 184.619,271.000 184.000 C 271.000 183.450,269.650 183.000,268.000 183.000 C 266.350 183.000,265.000 182.550,265.000 182.000 C 265.000 181.450,264.199 181.000,263.221 181.000 C 262.242 181.000,260.793 180.100,260.000 179.000 C 259.207 177.900,257.973 177.000,257.258 177.000 C 255.437 177.000,245.000 166.375,245.000 164.522 C 245.000 163.685,244.550 163.000,244.000 163.000 C 243.450 163.000,243.000 162.100,243.000 161.000 C 243.000 159.900,242.550 159.000,242.000 159.000 C 241.450 159.000,241.000 158.100,241.000 157.000 C 241.000 155.900,240.550 155.000,240.000 155.000 C 239.450 155.000,239.000 153.650,239.000 152.000 C 239.000 150.350,238.550 149.000,238.000 149.000 C 237.385 149.000,237.000 144.000,237.000 136.000 C 237.000 128.000,237.385 123.000,238.000 123.000 C 238.550 123.000,239.000 121.650,239.000 120.000 C 239.000 118.350,239.450 117.000,240.000 117.000 C 240.550 117.000,241.000 116.100,241.000 115.000 C 241.000 113.900,241.450 113.000,242.000 113.000 C 242.550 113.000,243.000 112.100,243.000 111.000 C 243.000 109.900,243.450 109.000,244.000 109.000 C 244.550 109.000,245.000 108.317,245.000 107.481 C 245.000 105.634,257.441 93.000,259.261 93.000 C 259.974 93.000,261.207 92.100,262.000 91.000 C 262.847 89.826,264.589 89.000,266.221 89.000 C 267.749 89.000,269.000 88.550,269.000 88.000 C 269.000 87.450,270.800 87.000,273.000 87.000 C 275.200 87.000,277.000 86.550,277.000 86.000 C 277.000 85.444,279.667 85.000,283.000 85.000 C 286.333 85.000,289.000 85.444,289.000 86.000 C 289.000 86.550,291.250 87.000,294.000 87.000 C 296.750 87.000,299.000 87.450,299.000 88.000 C 299.000 88.550,300.350 89.000,302.000 89.000 C 303.650 89.000,305.000 89.450,305.000 90.000 C 305.000 90.550,305.900 91.000,307.000 91.000 C 308.100 91.000,309.000 91.450,309.000 92.000 C 309.000 92.550,309.719 93.000,310.599 93.000 C 311.478 93.000,313.459 94.350,315.000 96.000 C 316.541 97.650,318.522 99.000,319.401 99.000 C 320.281 99.000,321.000 99.450,321.000 100.000 C 321.000 100.550,322.157 101.000,323.571 101.000 C 326.245 101.000,329.000 98.973,329.000 97.007 C 329.000 96.382,331.250 93.679,334.000 91.000 C 336.750 88.321,339.000 85.615,339.000 84.987 C 339.000 84.358,340.800 82.114,343.000 80.000 C 345.200 77.886,347.000 75.657,347.000 75.045 C 347.000 73.490,340.348 67.000,338.754 67.000 C 338.032 67.000,336.793 66.100,336.000 65.000 C 335.207 63.900,333.758 63.000,332.779 63.000 C 331.801 63.000,331.000 62.550,331.000 62.000 C 331.000 61.450,330.100 61.000,329.000 61.000 C 327.900 61.000,327.000 60.550,327.000 60.000 C 327.000 59.450,326.100 59.000,325.000 59.000 C 323.900 59.000,323.000 58.550,323.000 58.000 C 323.000 57.450,321.650 57.000,320.000 57.000 C 318.350 57.000,317.000 56.550,317.000 56.000 C 317.000 55.450,315.200 55.000,313.000 55.000 C 310.800 55.000,309.000 54.550,309.000 54.000 C 309.000 53.429,306.000 53.000,302.000 53.000 C 298.000 53.000,295.000 52.571,295.000 52.000 C 295.000 51.394,290.667 51.000,284.000 51.000 C 277.333 51.000,273.000 51.394,273.000 52.000 M43.000 136.000 L 43.000 217.000 81.000 217.000 C 105.667 217.000,119.000 216.649,119.000 216.000 C 119.000 215.444,121.667 215.000,125.000 215.000 C 128.333 215.000,131.000 214.556,131.000 214.000 C 131.000 213.450,132.800 213.000,135.000 213.000 C 137.200 213.000,139.000 212.550,139.000 212.000 C 139.000 211.450,139.900 211.000,141.000 211.000 C 142.100 211.000,143.000 210.550,143.000 210.000 C 143.000 209.450,144.350 209.000,146.000 209.000 C 147.650 209.000,149.000 208.550,149.000 208.000 C 149.000 207.450,149.801 207.000,150.779 207.000 C 151.758 207.000,153.207 206.100,154.000 205.000 C 154.793 203.900,156.143 203.000,157.000 203.000 C 157.857 203.000,159.207 202.100,160.000 201.000 C 160.793 199.900,162.026 199.000,162.739 199.000 C 164.430 199.000,177.000 186.430,177.000 184.739 C 177.000 184.026,177.900 182.793,179.000 182.000 C 180.100 181.207,181.000 179.758,181.000 178.779 C 181.000 177.801,181.450 177.000,182.000 177.000 C 182.550 177.000,183.000 176.100,183.000 175.000 C 183.000 173.900,183.450 173.000,184.000 173.000 C 184.550 173.000,185.000 172.100,185.000 171.000 C 185.000 169.900,185.450 169.000,186.000 169.000 C 186.550 169.000,187.000 168.100,187.000 167.000 C 187.000 165.900,187.450 165.000,188.000 165.000 C 188.550 165.000,189.000 163.650,189.000 162.000 C 189.000 160.350,189.450 159.000,190.000 159.000 C 190.550 159.000,191.000 156.750,191.000 154.000 C 191.000 151.250,191.450 149.000,192.000 149.000 C 192.619 149.000,193.000 143.667,193.000 135.000 C 193.000 126.333,192.619 121.000,192.000 121.000 C 191.450 121.000,191.000 118.750,191.000 116.000 C 191.000 113.250,190.550 111.000,190.000 111.000 C 189.450 111.000,189.000 109.650,189.000 108.000 C 189.000 106.350,188.550 105.000,188.000 105.000 C 187.450 105.000,187.000 104.100,187.000 103.000 C 187.000 101.900,186.550 101.000,186.000 101.000 C 185.450 101.000,185.000 100.100,185.000 99.000 C 185.000 97.900,184.550 97.000,184.000 97.000 C 183.450 97.000,183.000 96.100,183.000 95.000 C 183.000 93.900,182.550 93.000,182.000 93.000 C 181.450 93.000,181.000 92.290,181.000 91.422 C 181.000 90.553,179.200 88.114,177.000 86.000 C 174.800 83.886,173.000 81.639,173.000 81.007 C 173.000 79.522,170.478 77.000,168.993 77.000 C 168.361 77.000,166.114 75.200,164.000 73.000 C 161.886 70.800,159.546 69.000,158.799 69.000 C 158.052 69.000,156.793 68.100,156.000 67.000 C 155.207 65.900,153.758 65.000,152.779 65.000 C 151.801 65.000,151.000 64.550,151.000 64.000 C 151.000 63.450,150.100 63.000,149.000 63.000 C 147.900 63.000,147.000 62.550,147.000 62.000 C 147.000 61.450,145.650 61.000,144.000 61.000 C 142.350 61.000,141.000 60.550,141.000 60.000 C 141.000 59.450,139.650 59.000,138.000 59.000 C 136.350 59.000,135.000 58.550,135.000 58.000 C 135.000 57.450,133.200 57.000,131.000 57.000 C 128.800 57.000,127.000 56.550,127.000 56.000 C 127.000 55.349,112.333 55.000,85.000 55.000 L 43.000 55.000 43.000 136.000 M113.000 88.000 C 113.000 88.550,114.800 89.000,117.000 89.000 C 119.200 89.000,121.000 89.450,121.000 90.000 C 121.000 90.550,122.350 91.000,124.000 91.000 C 125.650 91.000,127.000 91.450,127.000 92.000 C 127.000 92.550,127.900 93.000,129.000 93.000 C 130.100 93.000,131.000 93.450,131.000 94.000 C 131.000 94.550,131.683 95.000,132.519 95.000 C 134.496 95.000,147.000 107.504,147.000 109.481 C 147.000 110.317,147.450 111.000,148.000 111.000 C 148.550 111.000,149.000 111.900,149.000 113.000 C 149.000 114.100,149.450 115.000,150.000 115.000 C 150.550 115.000,151.000 115.900,151.000 117.000 C 151.000 118.100,151.450 119.000,152.000 119.000 C 152.550 119.000,153.000 121.250,153.000 124.000 C 153.000 126.750,153.450 129.000,154.000 129.000 C 154.571 129.000,155.000 132.000,155.000 136.000 C 155.000 140.000,154.571 143.000,154.000 143.000 C 153.450 143.000,153.000 144.800,153.000 147.000 C 153.000 149.200,152.550 151.000,152.000 151.000 C 151.450 151.000,151.000 152.350,151.000 154.000 C 151.000 155.650,150.550 157.000,150.000 157.000 C 149.450 157.000,149.000 157.801,149.000 158.779 C 149.000 159.758,148.100 161.207,147.000 162.000 C 145.900 162.793,145.000 164.029,145.000 164.747 C 145.000 166.568,136.387 175.000,134.526 175.000 C 133.687 175.000,133.000 175.450,133.000 176.000 C 133.000 176.550,132.100 177.000,131.000 177.000 C 129.900 177.000,129.000 177.450,129.000 178.000 C 129.000 178.550,128.100 179.000,127.000 179.000 C 125.900 179.000,125.000 179.450,125.000 180.000 C 125.000 180.550,123.200 181.000,121.000 181.000 C 118.800 181.000,117.000 181.450,117.000 182.000 C 117.000 183.708,82.165 183.308,80.438 181.580 C 79.342 180.485,79.301 180.028,80.259 179.580 C 81.244 179.120,81.242 178.880,80.250 178.417 C 79.278 177.963,79.000 168.064,79.000 133.874 C 79.000 100.131,79.290 89.586,80.250 88.496 C 81.769 86.770,113.000 86.297,113.000 88.000 M39.000 332.000 L 39.000 345.000 113.000 345.000 L 187.000 345.000 187.000 332.000 L 187.000 319.000 113.000 319.000 L 39.000 319.000 39.000 332.000 " stroke="none" fill-rule="evenodd"></path>
</g>
</svg>