<svg version="1.1" width="515" height="515" xmlns="http://www.w3.org/2000/svg"><g><path d="M388.000 58.594 C 387.175 58.794,366.700 61.209,342.500 63.961 C 318.300 66.714,269.250 72.351,233.500 76.489 C 197.750 80.626,158.600 85.156,146.500 86.555 C 134.400 87.954,117.300 89.941,108.500 90.972 C 99.700 92.002,87.662 93.395,81.750 94.068 C 71.186 95.270,71.000 95.336,71.000 97.863 C 71.000 99.278,73.013 116.875,75.474 136.968 C 77.934 157.061,82.912 197.800,86.536 227.500 C 90.160 257.200,95.081 297.475,97.472 317.000 C 99.862 336.525,103.771 368.644,106.157 388.377 C 109.507 416.074,110.830 424.381,111.963 424.816 C 113.265 425.316,143.806 421.550,148.250 420.341 C 151.672 419.411,149.874 416.434,140.105 406.861 C 128.982 395.962,127.416 392.949,128.320 384.189 C 129.586 371.924,134.274 365.658,159.512 342.500 C 184.843 319.256,188.342 313.102,185.989 295.919 C 183.675 279.020,174.366 261.658,172.763 271.250 C 172.458 273.076,171.890 272.462,169.753 268.000 C 166.929 262.105,163.812 258.000,162.159 258.000 C 161.598 258.000,160.967 259.012,160.757 260.250 C 160.506 261.723,160.098 260.860,159.573 257.750 C 158.883 253.653,156.000 250.628,156.000 254.000 C 156.000 257.867,154.062 253.803,153.497 248.750 C 153.112 245.313,151.943 239.929,150.900 236.787 C 149.069 231.272,146.088 207.578,147.098 206.569 C 147.370 206.296,149.822 206.768,152.547 207.617 C 164.860 211.454,182.702 206.489,188.523 197.606 C 193.017 190.746,191.950 171.206,186.081 152.901 C 182.420 141.485,174.439 122.143,172.509 120.010 C 171.755 119.177,170.669 117.260,170.094 115.748 C 169.227 113.468,166.000 111.728,166.000 113.541 C 166.000 114.994,170.399 127.565,171.061 128.004 C 176.746 131.772,181.419 175.047,176.999 183.000 C 170.424 194.832,155.379 200.431,144.522 195.086 C 122.908 184.445,108.254 159.721,115.310 145.799 C 119.339 137.849,119.884 135.447,117.448 136.382 C 114.656 137.453,116.917 135.220,123.573 130.333 C 128.229 126.915,129.980 125.032,129.657 123.795 C 129.328 122.536,130.141 121.717,132.601 120.827 C 136.424 119.445,137.098 117.303,133.863 116.820 C 131.485 116.464,154.235 106.399,159.769 105.358 C 165.208 104.334,171.100 107.310,176.948 114.034 C 182.602 120.534,187.618 123.845,195.824 126.492 L 201.149 128.210 208.896 124.669 C 213.157 122.721,217.961 120.808,219.572 120.418 C 221.182 120.027,224.348 118.024,226.606 115.966 C 228.864 113.908,231.745 111.672,233.007 110.996 C 235.448 109.690,235.435 109.521,233.297 114.750 C 232.511 116.673,235.435 116.233,238.271 114.001 C 240.811 112.003,240.812 112.003,240.289 114.001 C 239.607 116.613,241.858 116.623,246.938 114.032 C 250.776 112.074,250.793 112.074,250.281 114.032 C 249.805 115.853,250.356 116.018,257.633 116.236 C 279.514 116.893,282.435 115.534,294.693 99.000 C 307.096 82.270,319.725 86.067,342.925 113.500 C 351.459 123.591,358.134 143.311,354.310 147.134 C 347.110 154.334,324.623 130.361,319.410 109.928 C 317.141 101.036,312.740 93.000,310.140 93.000 C 308.696 93.000,308.714 93.345,310.500 100.000 C 311.312 103.025,311.989 107.750,312.005 110.500 C 312.044 117.131,314.458 128.249,316.998 133.496 C 320.412 140.549,318.814 141.589,312.096 136.687 C 304.625 131.236,293.356 125.311,292.358 126.309 C 291.927 126.739,294.483 129.620,298.037 132.710 C 323.647 154.972,331.188 166.836,333.021 187.744 C 334.125 200.331,334.250 200.638,341.764 209.170 C 358.223 227.857,361.507 246.814,352.067 268.647 L 349.842 273.795 340.062 275.041 C 334.683 275.727,329.117 275.995,327.692 275.638 L 325.103 274.988 327.030 270.744 C 331.248 261.450,328.192 260.890,319.972 269.451 C 296.087 294.325,274.632 293.367,233.186 265.575 C 223.455 259.050,224.000 259.207,224.000 262.916 C 224.000 266.158,229.892 272.077,244.330 283.339 C 253.325 290.357,253.408 290.225,239.262 291.477 C 234.899 291.863,230.747 292.538,230.038 292.977 C 229.007 293.614,229.993 303.596,234.928 342.499 C 238.328 369.298,240.964 391.369,240.787 391.547 C 240.609 391.724,238.181 392.172,235.392 392.542 L 230.320 393.215 229.070 388.749 C 221.295 360.979,194.013 343.970,166.250 349.583 C 162.229 350.396,163.440 353.353,167.523 352.690 C 210.960 345.641,242.647 427.786,203.218 445.228 C 193.790 449.398,178.558 448.366,169.193 442.923 C 162.234 438.877,162.090 441.995,168.919 448.824 C 176.150 456.055,181.642 458.414,192.244 458.844 C 218.075 459.891,232.760 443.490,232.965 413.364 L 233.000 408.227 237.592 407.539 C 243.206 406.697,242.336 404.900,244.522 421.853 C 246.687 438.647,245.418 437.567,260.638 435.577 C 267.162 434.725,289.375 432.007,310.000 429.539 C 395.440 419.313,423.041 416.030,433.000 414.906 C 438.775 414.254,443.831 413.430,444.236 413.074 C 444.641 412.719,443.630 399.394,441.989 383.464 C 440.349 367.534,438.576 350.000,438.050 344.500 C 436.165 324.795,430.010 264.405,429.400 259.624 L 428.778 254.748 423.975 255.317 L 419.172 255.885 418.577 251.193 C 418.030 246.879,416.641 232.548,409.544 158.000 C 408.157 143.425,405.442 115.151,403.511 95.169 C 401.580 75.186,400.000 58.649,400.000 58.419 C 400.000 57.925,390.176 58.069,388.000 58.594 M307.479 166.392 C 305.964 167.499,305.819 168.077,306.766 169.218 C 307.668 170.304,307.682 171.383,306.825 173.652 C 303.693 181.950,313.331 193.247,323.865 193.626 L 331.160 193.889 330.491 186.194 C 329.100 170.218,316.764 159.602,307.479 166.392 M233.913 180.250 C 221.447 186.721,219.093 201.009,228.940 210.442 L 231.787 213.170 238.643 210.702 C 242.415 209.345,248.127 207.692,251.338 207.028 C 259.822 205.275,263.167 194.860,257.955 186.427 C 256.207 183.599,256.098 182.813,257.205 181.028 C 260.525 175.673,243.808 175.114,233.913 180.250 M315.952 230.304 C 304.794 233.177,302.000 235.007,302.000 239.441 C 302.000 244.618,302.774 245.772,309.147 250.100 C 324.814 260.739,333.761 259.242,340.518 244.850 C 342.158 241.357,343.837 238.350,344.250 238.167 C 345.660 237.540,345.003 232.026,343.278 230.011 C 340.836 227.159,327.619 227.301,315.952 230.304 M417.378 275.750 C 417.959 280.631,418.530 287.407,421.995 330.500 C 423.100 344.250,424.707 363.984,425.566 374.353 C 426.424 384.723,426.878 393.455,426.575 393.759 C 426.045 394.288,399.661 399.256,361.500 406.012 C 351.600 407.765,323.949 412.740,300.052 417.069 C 276.156 421.397,256.400 424.733,256.150 424.483 C 255.900 424.233,254.653 415.359,253.380 404.764 C 249.225 370.191,246.115 343.831,244.027 325.500 C 242.899 315.600,241.749 306.101,241.469 304.390 L 240.962 301.280 252.453 299.737 L 263.944 298.195 271.722 300.682 C 288.029 305.896,302.035 303.281,313.000 292.974 C 317.369 288.867,317.878 288.675,330.500 286.375 C 337.650 285.072,359.250 281.115,378.500 277.582 C 421.207 269.744,416.688 269.957,417.378 275.750 M395.585 314.265 C 389.031 328.144,383.559 339.647,383.425 339.826 C 383.291 340.006,376.366 335.595,368.036 330.024 C 359.707 324.454,352.302 319.669,351.580 319.392 C 350.300 318.901,343.063 329.867,328.019 355.096 L 321.700 365.693 316.600 364.255 C 313.795 363.464,307.085 361.480,301.689 359.847 C 288.845 355.958,290.888 354.494,274.967 379.000 L 260.999 400.500 261.625 407.000 C 262.550 416.602,259.943 416.295,291.000 410.470 C 297.875 409.180,312.275 406.524,323.000 404.567 C 333.725 402.610,353.750 398.957,367.500 396.448 C 409.940 388.704,418.187 387.147,418.499 386.818 C 418.665 386.643,416.827 364.900,414.415 338.500 C 412.004 312.100,410.024 290.163,410.015 289.750 C 409.933 285.689,405.611 293.031,395.585 314.265 " stroke="none" fill-rule="evenodd"></path></g></svg>