<svg version="1.1" width="515" height="515" xmlns="http://www.w3.org/2000/svg"><g><path d="M388.000 13.594 C 387.175 13.794,366.700 16.209,342.500 18.961 C 318.300 21.714,269.250 27.351,233.500 31.489 C 197.750 35.626,158.600 40.156,146.500 41.555 C 134.400 42.954,117.300 44.941,108.500 45.972 C 99.700 47.002,87.662 48.395,81.750 49.068 L 71.000 50.291 71.000 53.107 C 71.000 54.656,71.878 62.803,72.950 71.212 C 74.023 79.620,77.182 105.400,79.970 128.500 C 82.758 151.600,86.152 179.500,87.511 190.500 C 90.527 214.905,105.088 334.312,108.227 360.377 C 109.926 374.483,110.870 379.395,111.965 379.816 C 113.265 380.316,143.807 376.549,148.250 375.341 C 151.673 374.410,149.877 371.393,140.425 362.199 C 120.094 342.422,123.260 328.871,154.623 301.438 C 187.684 272.520,191.304 264.591,183.480 238.244 C 180.919 229.620,173.000 219.991,173.000 225.500 C 173.000 228.379,171.259 226.967,169.609 222.750 C 166.604 215.067,161.520 210.760,160.757 215.250 C 160.506 216.723,160.098 215.860,159.573 212.750 C 158.883 208.653,156.000 205.628,156.000 209.000 C 156.000 212.867,154.062 208.803,153.497 203.750 C 153.112 200.313,151.983 195.025,150.989 192.000 C 147.552 181.541,145.760 159.310,148.437 160.338 C 164.703 166.579,185.969 160.391,190.146 148.200 C 192.962 139.981,190.850 121.763,185.129 104.925 C 181.212 93.395,172.975 74.000,171.996 74.000 C 171.556 74.000,170.725 72.650,170.150 71.000 C 169.295 68.548,166.000 66.595,166.000 68.541 C 166.000 69.994,170.399 82.565,171.061 83.004 C 173.234 84.444,179.382 113.793,179.440 123.000 C 179.533 137.740,176.514 142.068,160.212 150.573 C 150.468 155.656,129.902 142.861,118.581 124.672 C 111.287 112.954,110.832 109.634,115.310 100.799 C 119.339 92.849,119.884 90.447,117.448 91.382 C 114.656 92.453,116.917 90.220,123.573 85.333 C 128.229 81.915,129.980 80.032,129.657 78.795 C 129.328 77.536,130.141 76.717,132.601 75.827 C 136.424 74.445,137.098 72.303,133.863 71.820 C 131.485 71.464,154.235 61.399,159.769 60.358 C 165.208 59.334,171.100 62.310,176.948 69.034 C 182.602 75.534,187.618 78.845,195.824 81.492 L 201.149 83.210 208.896 79.669 C 213.157 77.721,217.961 75.808,219.572 75.418 C 221.182 75.027,224.348 73.024,226.606 70.966 C 228.864 68.908,231.745 66.672,233.007 65.996 C 235.448 64.690,235.435 64.521,233.297 69.750 C 232.511 71.673,235.435 71.233,238.271 69.001 C 240.811 67.003,240.812 67.003,240.289 69.001 C 239.607 71.613,241.858 71.623,246.938 69.032 C 250.776 67.074,250.793 67.074,250.281 69.032 C 249.805 70.853,250.356 71.018,257.633 71.236 C 279.514 71.893,282.435 70.534,294.693 54.000 C 305.921 38.855,315.609 40.130,334.260 59.209 C 361.093 86.657,363.888 120.304,337.198 94.575 C 327.091 84.832,322.310 76.289,318.127 60.500 C 316.842 55.649,312.038 48.000,310.277 48.000 C 308.684 48.000,308.693 48.267,310.500 55.000 C 311.312 58.025,311.989 62.750,312.005 65.500 C 312.044 72.131,314.458 83.249,316.998 88.496 C 320.412 95.549,318.814 96.589,312.096 91.687 C 304.625 86.236,293.356 80.311,292.358 81.309 C 291.927 81.739,294.483 84.620,298.037 87.710 C 326.098 112.103,333.130 124.807,333.966 152.619 C 334.003 153.833,341.438 163.560,344.194 166.000 C 346.000 167.599,350.728 175.598,354.241 183.000 C 358.649 192.287,357.766 210.490,352.296 223.104 L 349.827 228.797 340.054 230.042 C 334.679 230.727,329.117 230.995,327.692 230.638 L 325.103 229.988 327.030 225.744 C 331.248 216.450,328.192 215.890,319.972 224.451 C 296.087 249.325,274.632 248.367,233.186 220.575 C 223.455 214.050,224.000 214.207,224.000 217.916 C 224.000 221.158,229.892 227.077,244.330 238.339 C 253.325 245.357,253.408 245.225,239.262 246.477 C 234.899 246.863,230.741 247.542,230.024 247.985 C 228.977 248.633,229.950 258.346,234.982 297.440 C 238.426 324.197,241.068 346.265,240.854 346.480 C 240.639 346.694,238.166 347.174,235.358 347.547 L 230.253 348.224 229.080 343.332 C 222.476 315.804,194.221 297.928,166.250 303.583 C 162.229 304.396,163.440 307.353,167.523 306.690 C 192.134 302.696,215.520 327.241,221.047 362.868 C 225.832 393.704,194.445 414.260,168.285 397.425 C 162.240 393.535,162.637 397.542,168.919 403.824 C 176.150 411.055,181.642 413.414,192.244 413.844 C 218.075 414.891,232.760 398.490,232.965 368.364 L 233.000 363.227 237.592 362.539 C 243.206 361.697,242.336 359.900,244.522 376.853 C 246.687 393.647,245.418 392.567,260.638 390.577 C 271.972 389.096,301.188 385.572,386.000 375.457 C 407.175 372.932,429.000 370.318,434.500 369.648 L 444.500 368.431 444.293 363.965 C 444.048 358.697,441.816 335.087,439.048 308.500 C 437.960 298.050,435.484 273.750,433.546 254.500 C 431.608 235.250,429.742 217.306,429.400 214.624 L 428.778 209.748 423.975 210.317 L 419.172 210.885 418.570 206.193 C 418.240 203.612,416.619 187.100,414.969 169.500 C 413.318 151.900,410.852 126.025,409.488 112.000 C 405.398 69.947,400.000 13.866,400.000 13.419 C 400.000 12.925,390.176 13.069,388.000 13.594 M307.441 121.433 C 305.992 122.502,305.787 123.157,306.632 124.015 C 307.441 124.836,307.468 125.948,306.729 127.907 C 303.708 135.910,313.522 147.254,323.785 147.623 C 332.054 147.921,331.605 148.695,330.070 136.799 C 328.429 124.073,315.635 115.385,307.441 121.433 M233.913 134.250 C 221.447 140.721,219.093 155.009,228.940 164.442 L 231.787 167.170 238.643 164.702 C 242.415 163.345,248.127 161.692,251.338 161.028 C 259.822 159.275,263.167 148.860,257.955 140.427 C 256.207 137.599,256.098 136.813,257.205 135.028 C 260.525 129.673,243.808 129.114,233.913 134.250 M315.952 185.304 C 304.794 188.177,302.000 190.007,302.000 194.441 C 302.000 205.855,325.286 216.679,334.023 209.327 C 337.266 206.598,345.000 192.176,345.000 188.858 C 345.000 182.503,332.685 180.996,315.952 185.304 M417.382 230.750 C 417.696 233.363,418.422 241.350,418.995 248.500 C 419.568 255.650,420.910 272.075,421.978 285.000 C 423.045 297.925,424.655 317.420,425.554 328.322 C 426.453 339.224,426.927 348.407,426.606 348.727 C 426.049 349.284,400.279 354.147,361.500 361.012 C 351.600 362.765,323.949 367.740,300.052 372.069 C 276.156 376.397,256.400 379.733,256.150 379.483 C 255.747 379.080,253.612 362.227,250.071 331.500 C 247.397 308.297,242.031 263.226,241.546 259.886 L 241.020 256.272 252.482 254.733 L 263.944 253.195 271.722 255.682 C 288.029 260.896,302.035 258.281,313.000 247.974 C 317.369 243.867,317.878 243.675,330.500 241.375 C 337.650 240.072,359.250 236.115,378.500 232.582 C 421.206 224.744,416.687 224.957,417.382 230.750 M395.585 269.265 C 389.031 283.144,383.559 294.647,383.425 294.826 C 383.291 295.006,376.305 290.554,367.901 284.934 C 359.497 279.313,352.052 274.666,351.356 274.607 C 349.796 274.475,344.194 282.647,331.482 303.599 L 321.715 319.698 316.608 318.257 C 313.798 317.465,307.175 315.508,301.889 313.908 C 296.603 312.309,291.597 311.000,290.764 311.000 C 289.537 311.000,270.603 338.463,269.094 342.432 C 268.871 343.020,266.968 346.234,264.865 349.574 C 261.144 355.488,261.059 355.828,261.674 362.415 C 262.524 371.510,260.369 371.335,293.500 365.005 C 299.000 363.955,313.400 361.292,325.500 359.089 C 337.600 356.885,357.625 353.227,370.000 350.960 C 382.375 348.692,395.425 346.348,399.000 345.750 C 402.575 345.152,405.725 344.364,406.000 343.999 C 406.275 343.634,409.162 342.810,412.417 342.168 C 415.671 341.525,418.442 340.888,418.576 340.750 C 418.709 340.613,417.982 331.500,416.960 320.500 C 413.073 278.660,410.000 245.142,410.000 244.582 C 410.000 240.588,405.433 248.407,395.585 269.265 M10.850 461.902 C 10.768 481.756,10.655 498.563,10.600 499.250 C 10.434 501.325,48.757 501.503,55.783 499.461 C 71.885 494.780,78.638 482.646,77.810 459.884 C 76.834 433.069,68.660 426.966,32.750 426.242 L 11.000 425.804 10.850 461.902 M107.087 428.209 C 106.595 429.469,99.624 445.903,91.596 464.728 C 74.380 505.100,75.148 501.000,84.804 501.000 L 92.607 501.000 103.976 472.972 C 110.228 457.557,115.680 445.294,116.090 445.722 C 116.500 446.150,118.863 451.093,121.342 456.708 L 125.848 466.915 118.829 467.208 L 111.810 467.500 109.405 473.420 C 108.082 476.676,107.000 479.713,107.000 480.170 C 107.000 480.626,112.291 481.000,118.759 481.000 L 130.517 481.000 135.000 491.000 L 139.483 501.000 147.741 501.000 C 152.284 501.000,156.000 500.642,156.000 500.204 C 156.000 499.766,148.878 483.003,140.174 462.954 L 124.348 426.500 116.165 426.209 C 108.434 425.935,107.932 426.045,107.087 428.209 M146.412 427.369 C 146.123 428.122,146.024 431.160,146.193 434.119 L 146.500 439.500 156.750 439.785 L 167.000 440.070 167.000 470.535 L 167.000 501.000 175.500 501.000 L 184.000 501.000 184.000 470.500 L 184.000 440.000 194.500 440.000 L 205.000 440.000 205.000 433.000 L 205.000 426.000 175.969 426.000 C 152.318 426.000,146.840 426.254,146.412 427.369 M211.655 462.763 C 203.045 482.982,196.000 499.857,196.000 500.263 C 196.000 500.668,199.544 501.000,203.875 501.000 L 211.749 501.000 220.225 480.250 C 224.887 468.837,230.006 456.243,231.600 452.262 C 235.222 443.223,234.669 442.998,240.175 455.750 L 244.816 466.500 238.158 467.000 L 231.500 467.500 228.808 473.000 C 224.748 481.297,224.412 481.000,237.849 481.000 L 249.697 481.000 254.305 491.000 L 258.913 501.000 267.073 501.000 C 277.056 501.000,278.072 505.872,258.811 461.399 L 243.500 426.048 235.405 426.024 L 227.310 426.000 211.655 462.763 M282.000 463.472 L 282.000 501.137 304.250 500.819 C 341.602 500.284,351.841 491.360,350.827 460.226 C 349.956 433.471,341.032 426.961,304.250 426.242 L 282.000 425.807 282.000 463.472 M380.321 427.804 C 351.069 438.198,350.790 487.767,379.921 499.168 C 391.839 503.832,411.433 501.816,420.912 494.949 C 434.663 484.988,437.754 454.530,426.658 438.343 C 419.249 427.537,395.973 422.243,380.321 427.804 M464.929 427.312 C 447.902 432.108,441.500 441.865,441.500 463.021 C 441.500 483.768,447.506 493.926,462.889 499.193 C 471.538 502.155,489.618 502.376,497.750 499.619 L 503.000 497.839 503.000 477.920 L 503.000 458.000 491.464 458.000 L 479.929 458.000 477.919 462.688 C 474.369 470.970,474.573 471.456,481.750 471.798 L 488.000 472.095 488.000 479.431 C 488.000 487.539,487.620 487.956,480.193 487.986 C 465.715 488.046,456.990 478.669,457.006 463.068 C 457.024 444.498,469.235 436.450,491.126 440.582 C 504.312 443.070,503.271 443.451,503.393 436.094 C 503.500 429.695,503.497 429.687,500.000 428.163 C 495.265 426.099,471.302 425.518,464.929 427.312 M405.585 441.093 C 422.305 446.259,420.655 482.116,403.477 486.885 C 385.714 491.816,374.255 481.614,375.180 461.690 C 376.034 443.310,387.538 435.517,405.585 441.093 M49.219 441.044 C 59.879 444.005,65.124 455.835,62.084 470.063 C 59.322 482.991,53.401 486.944,36.750 486.978 L 26.000 487.000 26.000 463.500 L 26.000 440.000 35.750 440.006 C 41.112 440.009,47.174 440.476,49.219 441.044 M321.477 441.115 C 331.186 443.811,336.358 454.591,334.197 467.629 C 331.696 482.726,327.101 486.346,309.828 486.834 L 298.000 487.167 298.000 463.584 L 298.000 440.000 307.750 440.006 C 313.113 440.009,319.290 440.508,321.477 441.115 " stroke="none" fill-rule="evenodd"></path></g></svg>