<svg version="1.1" width="400" height="400" xmlns="http://www.w3.org/2000/svg">
<g>
<path d="M226.661 3.309 C 224.854 4.479,219.530 9.185,213.392 15.037 C 211.683 16.667,209.943 18.000,209.525 18.000 C 209.108 18.000,207.019 19.800,204.884 22.000 C 202.749 24.200,200.584 26.000,200.074 26.000 C 199.563 26.000,198.325 27.042,197.323 28.315 C 192.945 33.874,191.761 34.105,176.969 32.294 C 169.561 31.387,163.275 30.367,163.000 30.027 C 162.725 29.687,155.525 28.573,147.000 27.552 C 138.475 26.530,131.275 25.391,131.000 25.020 C 130.725 24.649,123.975 23.534,116.000 22.541 C 108.025 21.549,101.050 20.401,100.500 19.989 C 99.576 19.297,88.611 17.731,74.750 16.311 C 71.587 15.987,69.000 15.405,69.000 15.017 C 69.000 14.629,62.250 13.482,54.000 12.467 C 45.750 11.452,39.000 10.319,39.000 9.948 C 39.000 9.577,32.025 8.454,23.500 7.452 C 14.975 6.450,8.000 5.264,8.000 4.815 C 8.000 4.367,6.650 4.000,5.000 4.000 L 2.000 4.000 2.000 94.826 L 2.000 185.652 5.665 188.576 C 7.681 190.184,10.402 192.512,11.711 193.750 C 13.020 194.988,14.488 196.000,14.973 196.000 C 15.458 196.000,16.740 197.125,17.821 198.500 C 18.903 199.875,20.178 201.000,20.654 201.000 C 21.131 201.000,22.648 202.046,24.027 203.324 C 25.405 204.602,27.838 206.503,29.434 207.548 C 32.931 209.840,35.926 212.300,41.123 217.150 C 43.274 219.157,45.702 221.055,46.517 221.368 C 48.624 222.176,47.432 232.377,45.041 234.000 C 44.636 234.275,43.513 237.762,42.545 241.750 C 41.577 245.737,40.383 249.000,39.892 249.000 C 39.402 249.000,39.000 249.623,39.000 250.385 C 39.000 252.174,35.781 262.346,35.008 263.000 C 34.683 263.275,33.589 267.100,32.576 271.500 C 31.562 275.900,30.332 279.758,29.842 280.074 C 29.352 280.390,28.204 283.315,27.291 286.574 C 26.379 289.833,25.350 292.725,25.004 293.000 C 24.659 293.275,23.545 296.650,22.529 300.500 C 21.512 304.350,20.387 307.725,20.029 308.000 C 19.670 308.275,18.545 311.650,17.529 315.500 C 16.512 319.350,15.387 322.725,15.029 323.000 C 14.670 323.275,13.545 326.650,12.529 330.500 C 11.512 334.350,10.413 337.725,10.085 338.000 C 7.367 340.281,4.908 356.000,7.269 356.000 C 11.159 356.000,33.554 359.277,34.000 359.912 C 34.275 360.303,41.588 361.445,50.250 362.449 C 58.913 363.452,66.000 364.600,66.000 365.000 C 66.000 365.399,68.813 365.984,72.250 366.298 C 83.942 367.368,96.498 369.206,97.000 369.922 C 97.275 370.314,104.700 371.480,113.500 372.513 C 122.300 373.545,129.788 374.811,130.139 375.325 C 130.491 375.839,132.178 376.054,133.889 375.803 C 135.600 375.552,137.000 375.670,137.000 376.066 C 137.000 376.462,142.400 377.350,149.000 378.041 C 155.600 378.731,161.000 379.609,161.000 379.990 C 161.000 380.372,167.637 381.488,175.750 382.470 C 183.863 383.453,190.725 384.578,191.000 384.972 C 191.275 385.365,198.248 386.472,206.496 387.432 C 214.743 388.392,221.777 389.639,222.127 390.205 C 222.476 390.770,224.615 391.056,226.881 390.840 C 229.146 390.624,231.000 390.735,231.000 391.086 C 231.000 391.438,235.831 392.269,241.735 392.934 C 247.639 393.598,252.701 394.494,252.985 394.924 C 254.378 397.040,269.000 397.148,269.000 395.042 C 269.000 393.919,269.375 393.000,269.833 393.000 C 270.292 393.000,271.505 389.175,272.529 384.500 C 273.553 379.825,274.697 376.000,275.072 376.000 C 275.446 376.000,276.539 371.950,277.500 367.000 C 278.461 362.050,279.546 358.000,279.910 358.000 C 280.274 358.000,281.407 353.838,282.428 348.750 C 283.449 343.663,284.657 339.257,285.112 338.960 C 286.060 338.341,289.000 325.089,289.000 321.435 L 289.000 319.000 234.559 319.000 C 199.344 319.000,179.900 319.353,179.500 320.000 C 178.699 321.296,174.000 321.305,174.000 320.010 C 174.000 319.373,156.930 318.927,126.250 318.760 L 78.500 318.500 78.500 198.500 L 78.500 78.500 198.500 78.867 C 264.500 79.069,318.609 79.328,318.742 79.442 C 318.875 79.557,318.995 129.679,319.009 190.825 C 319.031 288.405,319.215 302.000,320.517 302.000 C 321.498 302.000,322.000 300.985,322.000 299.000 C 322.000 297.350,322.493 296.000,323.096 296.000 C 325.012 296.000,335.479 299.235,336.000 299.988 C 336.770 301.103,343.364 302.059,344.587 301.233 C 345.554 300.581,346.517 292.376,348.635 266.750 C 348.988 262.487,349.664 259.000,350.138 259.000 C 350.612 259.000,351.000 257.650,351.000 256.000 C 351.000 252.477,353.247 249.942,358.043 248.053 C 359.944 247.304,361.950 246.198,362.500 245.596 C 363.050 244.993,365.300 243.604,367.500 242.510 C 369.700 241.415,371.725 240.244,372.000 239.907 C 372.275 239.571,374.300 238.456,376.500 237.431 C 378.700 236.405,381.372 234.763,382.439 233.783 C 383.505 232.802,384.935 232.000,385.617 232.000 C 386.299 232.000,387.452 231.438,388.179 230.750 C 388.905 230.063,391.200 228.714,393.278 227.753 L 397.056 226.006 396.379 219.253 C 396.007 215.539,395.391 212.275,395.011 212.000 C 394.631 211.725,393.506 204.637,392.512 196.250 C 391.517 187.863,390.400 181.000,390.028 181.000 C 389.657 181.000,388.513 173.575,387.485 164.500 C 386.457 155.425,385.313 148.000,384.943 148.000 C 384.572 148.000,383.459 140.800,382.469 132.000 C 381.479 123.200,380.373 116.000,380.011 116.000 C 379.650 116.000,378.513 108.575,377.485 99.500 C 376.457 90.425,375.305 83.000,374.925 83.000 C 374.544 83.000,373.931 79.962,373.562 76.250 C 372.337 63.927,372.002 62.897,368.870 61.805 C 367.292 61.255,366.000 60.398,366.000 59.902 C 366.000 59.406,365.127 59.000,364.059 59.000 C 362.991 59.000,361.871 58.601,361.570 58.113 C 361.269 57.626,359.442 56.930,357.511 56.568 C 355.580 56.206,354.000 55.553,354.000 55.117 C 354.000 54.681,351.525 53.484,348.500 52.455 C 345.475 51.427,343.000 50.177,343.000 49.676 C 343.000 49.176,342.100 49.002,341.000 49.290 C 339.900 49.577,339.000 49.423,339.000 48.947 C 339.000 48.470,337.087 47.516,334.750 46.826 C 332.413 46.136,329.903 44.991,329.174 44.281 C 328.444 43.571,325.857 42.489,323.424 41.876 C 320.991 41.264,319.000 40.379,319.000 39.909 C 319.000 39.440,316.525 38.336,313.500 37.457 C 310.475 36.578,308.000 35.453,308.000 34.957 C 308.000 34.461,305.525 33.336,302.500 32.457 C 299.475 31.578,297.000 30.498,297.000 30.059 C 297.000 29.620,294.938 28.683,292.419 27.977 C 289.899 27.272,287.311 26.201,286.669 25.597 C 286.026 24.994,282.913 23.639,279.750 22.588 C 276.587 21.536,274.000 20.374,274.000 20.005 C 274.000 19.636,271.300 18.472,268.000 17.418 C 264.700 16.363,262.000 15.236,262.000 14.913 C 262.000 14.589,259.525 13.484,256.500 12.455 C 253.475 11.427,251.000 10.278,251.000 9.901 C 251.000 9.524,248.300 8.407,245.000 7.419 C 241.700 6.430,239.000 5.278,239.000 4.858 C 239.000 2.719,229.427 1.517,226.661 3.309 M237.521 108.173 C 234.782 108.696,232.307 109.474,232.021 109.903 C 231.734 110.332,229.391 111.480,226.814 112.453 C 224.237 113.426,221.889 114.848,221.596 115.611 C 221.303 116.375,220.483 117.000,219.775 117.000 C 218.337 117.000,207.000 128.474,207.000 129.930 C 207.000 130.440,206.414 131.452,205.698 132.179 C 204.033 133.867,201.000 141.459,201.000 143.937 C 201.000 144.980,200.438 146.021,199.750 146.251 C 198.052 146.818,197.959 174.738,199.652 175.787 C 200.284 176.179,201.541 179.047,202.445 182.160 C 203.350 185.273,204.745 188.072,205.545 188.379 C 206.345 188.686,207.009 189.514,207.021 190.219 C 207.044 191.676,218.217 203.000,219.631 203.000 C 220.139 203.000,221.238 203.798,222.073 204.772 C 222.908 205.747,225.595 207.191,228.045 207.980 C 230.495 208.770,232.738 209.751,233.030 210.161 C 235.096 213.066,269.901 213.077,271.962 210.174 C 272.258 209.757,274.472 208.781,276.882 208.004 C 279.293 207.228,281.774 206.122,282.398 205.546 C 283.021 204.971,285.299 203.600,287.460 202.500 C 296.219 198.041,296.000 198.785,296.000 173.455 L 296.000 151.000 273.500 151.000 L 251.000 151.000 251.000 161.500 L 251.000 172.000 262.000 172.000 L 273.000 172.000 273.000 177.566 C 273.000 185.428,272.031 186.709,264.984 188.164 C 261.693 188.844,259.000 189.760,259.000 190.200 C 259.000 190.640,256.300 191.000,253.000 191.000 C 249.700 191.000,247.000 190.590,247.000 190.088 C 247.000 189.586,245.176 188.868,242.947 188.491 C 238.598 187.756,235.490 185.496,229.478 178.698 C 228.115 177.158,227.000 175.277,227.000 174.520 C 227.000 173.763,226.213 172.355,225.250 171.393 C 223.245 169.388,222.625 150.539,224.520 149.214 C 225.082 148.821,226.091 147.247,226.765 145.716 C 230.016 138.319,238.094 131.000,243.007 131.000 C 243.553 131.000,244.000 130.550,244.000 130.000 C 244.000 129.422,247.167 129.000,251.500 129.000 C 255.833 129.000,259.000 129.422,259.000 130.000 C 259.000 130.550,259.891 131.000,260.980 131.000 C 263.394 131.000,271.000 133.955,271.000 134.893 C 271.000 135.265,272.338 136.359,273.973 137.325 C 276.933 139.073,282.000 137.599,282.000 134.990 C 282.000 134.561,284.057 132.032,286.572 129.370 C 291.772 123.865,293.263 119.639,290.347 118.671 C 288.130 117.935,285.304 116.096,282.940 113.852 C 281.985 112.945,279.695 111.876,277.852 111.476 C 276.008 111.076,274.242 110.345,273.926 109.851 C 272.299 107.303,247.964 106.182,237.521 108.173 M102.000 159.394 L 102.000 211.000 127.500 211.000 C 143.833 211.000,153.000 210.641,153.000 210.000 C 153.000 209.450,153.983 209.000,155.184 209.000 C 158.154 209.000,169.000 205.903,169.000 205.055 C 169.000 204.680,170.579 203.754,172.510 202.996 C 174.440 202.239,176.701 200.580,177.533 199.310 C 178.365 198.039,179.711 197.000,180.523 197.000 C 181.335 197.000,182.000 196.335,182.000 195.523 C 182.000 194.711,183.079 193.339,184.399 192.474 C 185.718 191.610,187.385 189.462,188.102 187.701 C 188.820 185.941,189.941 184.050,190.594 183.500 C 191.247 182.950,192.366 180.137,193.080 177.250 C 193.794 174.363,194.743 172.000,195.189 172.000 C 195.635 172.000,196.000 166.600,196.000 160.000 C 196.000 152.667,195.611 148.000,195.000 148.000 C 194.450 148.000,194.000 147.116,194.000 146.035 C 194.000 142.831,190.978 134.893,188.915 132.679 C 187.862 131.548,187.000 130.213,187.000 129.712 C 187.000 128.281,177.421 119.269,174.045 117.523 C 172.370 116.657,171.000 115.603,171.000 115.180 C 171.000 114.377,160.936 111.000,158.544 111.000 C 157.786 111.000,156.979 110.438,156.750 109.750 C 156.434 108.803,149.753 108.414,129.167 108.144 L 102.000 107.787 102.000 159.394 M152.818 132.539 C 155.668 133.385,158.000 134.510,158.000 135.039 C 158.000 135.567,158.618 136.000,159.373 136.000 C 161.597 136.000,166.702 142.739,168.122 147.549 C 168.845 149.997,169.788 152.000,170.218 152.000 C 170.648 152.000,171.000 155.600,171.000 160.000 C 171.000 164.400,170.660 168.000,170.243 168.000 C 169.827 168.000,168.901 169.879,168.184 172.175 C 167.055 175.791,163.127 180.466,157.822 184.507 C 154.129 187.320,149.636 188.298,138.250 188.766 L 126.000 189.270 126.000 160.135 L 126.000 131.000 136.818 131.000 C 143.644 131.000,149.549 131.568,152.818 132.539 M99.000 283.000 L 99.000 292.000 145.500 292.000 L 192.000 292.000 192.000 283.000 L 192.000 274.000 145.500 274.000 L 99.000 274.000 99.000 283.000 M319.001 315.250 L 319.002 319.500 310.341 319.500 C 305.233 319.500,301.535 319.927,301.326 320.541 C 301.097 321.215,304.644 321.612,311.384 321.666 L 321.796 321.751 321.860 316.375 C 321.909 312.296,321.572 311.000,320.462 311.000 C 319.408 311.000,319.000 312.187,319.001 315.250 M291.000 320.417 C 291.000 321.288,291.712 322.000,292.583 322.000 C 294.349 322.000,294.042 319.847,292.188 319.229 C 291.534 319.011,291.000 319.546,291.000 320.417 " stroke="none" fill-rule="evenodd"></path>
</g>
</svg>