<svg
   xmlns="http://www.w3.org/2000/svg"
   height="34"
   width="34"
   version="1.1">
  <path
     d="m 18.501,25.028 v -7.224 l 11.393,-6.498 -2.77,-1.588 -8.623,4.918 V 7.391 c 0,-0.491 -0.265,-0.95 -0.69,-1.194 L 7.438,0.245 A 1.974,1.974 0 0 0 5.432,0.305 1.98,1.98 0 0 0 4.5,1.992 v 20.375 c 0,0.69 0.35,1.321 0.934,1.687 a 1.973,1.973 0 0 0 2.002,0.061 l 8.317,-4.743 v 6.457 c 0,0.494 0.266,0.952 0.695,1.196 l 10.658,6.067 2.771,-1.589 z M 15.753,8.188 v 8.016 l -8.504,4.85 V 3.31 l 8.504,4.88 z"
     style="fill-rule:evenodd" />
</svg>
