<svg xmlns="http://www.w3.org/2000/svg" width="400" height="400" viewBox="0, 0, 400,400"><g><path d="M40.405 33.721 C 39.137 37.024,40.002 100.541,41.309 100.199 C 42.508 99.886,56.672 104.153,61.856 106.389 C 63.060 106.908,64.594 107.333,65.265 107.333 C 65.936 107.333,69.301 108.406,72.743 109.718 C 76.184 111.030,79.450 112.245,80.000 112.419 C 80.964 112.724,81.300 36.107,80.347 33.500 C 79.834 32.097,40.945 32.313,40.405 33.721 M39.333 214.727 C 39.333 290.216,39.111 326.503,38.643 327.377 C 37.986 328.606,37.056 328.667,18.977 328.667 L 0.000 328.667 0.000 350.000 L 0.000 371.333 18.977 371.333 C 41.777 371.333,39.333 369.458,39.333 386.956 L 39.333 400.000 60.667 400.000 L 82.000 400.000 82.000 386.467 C 82.000 376.830,82.230 372.703,82.800 372.133 C 83.417 371.516,115.985 371.333,225.333 371.333 C 334.681 371.333,367.249 371.151,367.867 370.533 C 369.009 369.391,369.009 330.609,367.867 329.467 C 367.249 328.849,334.681 328.667,225.333 328.667 C 115.985 328.667,83.417 328.484,82.800 327.867 C 82.185 327.251,82.000 302.741,82.000 221.603 L 82.000 116.140 79.500 115.791 C 78.125 115.600,69.500 112.914,60.333 109.823 C 51.167 106.732,42.692 104.015,41.500 103.785 L 39.333 103.367 39.333 214.727 M219.868 121.500 C 218.765 122.372,218.097 132.528,217.929 151.000 L 217.857 159.000 219.837 158.803 C 220.945 158.693,226.559 160.199,232.584 162.225 C 238.506 164.215,243.495 165.610,243.671 165.326 C 243.848 165.041,243.794 155.150,243.554 143.346 L 243.115 121.884 241.514 121.275 C 238.999 120.319,221.127 120.505,219.868 121.500 M174.288 156.919 C 151.801 162.489,139.126 181.942,139.085 210.945 C 139.027 251.530,167.297 275.110,200.894 262.499 C 203.394 261.561,210.533 256.969,212.794 254.845 C 215.463 252.338,216.667 253.176,216.667 257.542 C 216.667 263.242,216.896 263.333,231.172 263.333 C 241.252 263.333,243.411 263.161,244.286 262.286 C 245.218 261.354,245.333 256.172,245.333 215.286 L 245.333 169.333 243.347 169.333 C 242.254 169.333,239.479 168.598,237.180 167.700 C 223.521 162.364,217.161 161.522,216.782 165.000 C 216.418 168.337,215.588 168.424,212.108 165.489 C 201.540 156.578,188.026 153.516,174.288 156.919 M307.000 158.589 C 305.900 158.871,304.345 159.454,303.544 159.884 C 302.743 160.315,301.509 160.667,300.803 160.667 C 297.109 160.667,285.127 168.305,279.548 174.216 C 275.765 178.224,275.738 178.666,279.278 178.668 C 282.845 178.669,300.122 184.479,301.380 186.100 C 302.423 187.445,302.433 187.444,304.395 185.793 C 314.069 177.653,332.799 178.734,340.937 187.903 C 343.341 190.612,345.026 189.826,352.430 182.540 C 356.227 178.804,359.333 175.321,359.333 174.800 C 359.333 171.695,347.582 163.334,338.667 160.096 C 334.073 158.428,311.771 157.366,307.000 158.589 M271.384 184.090 C 270.249 186.057,268.996 188.867,268.598 190.333 C 268.200 191.800,267.409 194.200,266.841 195.667 C 265.541 199.018,264.872 217.177,265.891 221.427 C 272.096 247.294,286.030 260.381,312.667 265.360 C 318.133 266.382,327.344 266.054,332.622 264.651 C 335.347 263.926,337.989 263.333,338.493 263.333 C 342.756 263.333,358.103 252.979,360.387 248.563 C 361.885 245.667,361.315 244.769,353.305 237.396 C 345.004 229.756,344.475 229.590,340.093 233.247 C 325.685 245.267,305.032 240.833,297.188 224.036 C 295.224 219.831,295.146 219.315,295.114 210.333 L 295.081 201.000 297.513 196.022 C 299.666 191.614,299.833 190.921,298.972 189.969 C 298.438 189.379,298.000 188.544,298.000 188.114 C 298.000 187.685,297.556 187.333,297.014 187.333 C 296.472 187.333,292.452 186.133,288.080 184.667 C 283.709 183.200,278.962 182.000,277.533 182.000 C 276.103 182.000,274.599 181.666,274.190 181.257 C 273.644 180.711,272.901 181.461,271.384 184.090 M206.128 183.992 C 216.504 188.968,216.784 189.717,216.532 211.810 L 216.333 229.271 213.667 232.010 C 206.446 239.424,192.096 242.146,183.192 237.790 C 161.866 227.356,164.017 187.684,186.221 181.928 C 191.154 180.650,201.366 181.709,206.128 183.992 " stroke="none" fill-rule="evenodd"></path></g></svg>