<svg xmlns="http://www.w3.org/2000/svg" width="400" height="400" viewBox="0, 0, 400,400">
<g>
<path d="M181.600 9.651 C 155.650 12.663,137.951 17.651,116.588 27.975 C 60.309 55.171,21.815 106.675,11.187 169.000 C 8.899 182.417,8.420 214.021,10.323 226.000 C 17.439 270.783,34.463 304.937,64.769 335.226 C 95.071 365.511,129.719 382.713,174.400 389.656 C 182.374 390.895,215.859 391.047,223.800 389.881 C 256.244 385.114,282.091 375.342,307.200 358.350 C 377.545 310.744,407.855 221.949,381.564 140.497 C 359.471 72.050,300.603 22.317,228.232 10.958 C 218.439 9.421,190.363 8.634,181.600 9.651 M186.949 30.500 C 187.074 32.755,187.275 38.740,187.397 43.800 C 187.520 48.860,187.794 56.780,188.008 61.400 C 188.222 66.020,188.667 76.910,188.999 85.600 C 190.195 116.954,190.791 131.043,191.019 133.355 L 191.252 135.710 189.391 135.500 C 188.368 135.385,187.376 135.135,187.188 134.945 C 186.701 134.454,186.176 125.316,184.805 93.400 C 182.782 46.349,182.400 36.527,182.400 31.596 L 182.400 26.853 183.500 26.687 C 184.105 26.595,185.078 26.493,185.662 26.460 L 186.723 26.400 186.949 30.500 M230.744 28.619 L 231.887 28.839 232.242 59.119 C 232.438 75.774,232.598 91.290,232.599 93.600 L 232.600 97.800 230.603 97.670 C 229.505 97.598,228.551 97.484,228.483 97.416 C 228.086 97.019,226.639 31.183,226.987 29.331 C 227.226 28.052,227.336 27.964,228.423 28.173 C 229.070 28.298,230.115 28.499,230.744 28.619 M123.934 48.900 C 124.182 51.375,125.559 67.620,126.994 85.000 C 128.428 102.380,129.850 119.477,130.153 122.993 C 130.767 130.119,130.757 130.195,129.171 131.015 C 127.723 131.764,127.727 131.765,127.465 130.700 C 127.147 129.407,120.000 48.242,120.000 45.921 C 120.000 45.520,122.046 44.436,122.841 44.416 C 123.367 44.403,123.564 45.213,123.934 48.900 M252.559 54.054 C 254.142 54.775,254.178 55.091,254.299 69.400 C 254.426 84.336,254.413 84.424,252.268 83.406 C 249.799 82.234,249.879 82.730,249.838 68.284 C 249.794 52.738,249.784 52.790,252.559 54.054 M165.769 54.500 C 166.038 55.441,167.682 95.396,167.541 97.585 C 167.403 99.724,167.370 99.777,166.000 100.061 C 163.727 100.531,163.788 100.873,162.419 79.800 C 161.719 69.020,161.043 59.077,160.916 57.705 L 160.685 55.210 162.043 54.620 C 163.720 53.892,165.577 53.832,165.769 54.500 M297.571 63.438 C 297.688 63.554,297.853 70.840,297.938 79.628 L 298.093 95.607 296.347 94.866 L 294.600 94.125 294.351 86.763 C 294.010 76.690,293.949 63.400,294.239 62.643 C 294.465 62.053,296.725 62.591,297.571 63.438 M210.131 68.791 C 210.577 69.210,211.168 86.182,211.186 99.100 L 211.200 109.600 210.100 109.595 C 206.755 109.578,207.250 113.539,205.761 74.855 L 205.494 67.910 207.647 68.196 C 208.831 68.353,209.949 68.621,210.131 68.791 M318.036 71.843 C 319.018 73.026,319.705 204.829,318.734 205.799 C 318.588 205.945,318.111 205.873,317.673 205.639 C 316.474 204.997,316.434 203.300,315.994 135.400 C 315.775 101.520,315.478 72.822,315.334 71.627 L 315.071 69.454 316.271 70.308 C 316.931 70.778,317.725 71.469,318.036 71.843 M275.089 81.221 C 276.133 81.585,276.331 81.892,276.549 83.477 C 276.852 85.694,276.890 161.200,276.587 161.200 C 276.470 161.200,275.750 160.939,274.987 160.620 L 273.600 160.041 273.600 120.420 C 273.600 98.629,273.663 80.800,273.740 80.800 C 273.817 80.800,274.424 80.990,275.089 81.221 M146.559 83.037 C 147.318 85.015,148.643 108.548,148.067 109.813 C 147.517 111.021,145.444 111.206,144.856 110.100 C 144.456 109.347,143.369 97.102,142.943 88.553 L 142.682 83.306 143.841 82.885 C 145.523 82.273,146.282 82.316,146.559 83.037 M70.772 110.470 C 73.289 135.581,73.289 134.272,70.779 135.147 C 69.285 135.668,69.533 136.904,67.413 118.350 C 65.100 98.104,64.608 92.820,64.919 91.580 C 65.185 90.521,67.963 87.029,68.284 87.350 C 68.388 87.454,69.507 97.858,70.772 110.470 M253.415 101.373 C 254.251 101.921,254.279 102.248,254.548 114.467 C 254.892 130.083,254.862 130.266,252.145 129.537 L 250.889 129.200 250.643 120.100 C 250.507 115.095,250.291 108.589,250.163 105.643 L 249.930 100.286 251.244 100.549 C 251.967 100.693,252.944 101.064,253.415 101.373 M89.767 117.800 C 90.521 125.940,91.910 141.020,92.853 151.311 L 94.567 170.022 92.962 171.627 L 91.357 173.232 89.231 151.716 C 88.061 139.882,86.533 124.388,85.834 117.285 L 84.562 104.370 86.181 103.020 C 88.341 101.221,88.160 100.475,89.767 117.800 M55.599 132.200 C 62.246 191.274,67.600 239.919,67.600 241.240 C 67.600 242.484,66.695 243.682,66.189 243.109 C 65.966 242.858,50.392 121.428,49.857 115.768 C 49.641 113.487,49.718 113.183,51.106 110.837 C 53.005 107.626,52.638 105.882,55.599 132.200 M42.405 160.517 C 43.732 170.811,45.250 182.421,45.778 186.317 C 46.655 192.782,46.684 193.461,46.107 194.100 C 44.638 195.729,45.064 197.813,40.627 167.281 L 36.831 141.162 37.907 138.281 L 38.983 135.400 39.488 138.600 C 39.765 140.360,41.078 150.223,42.405 160.517 M297.424 138.968 C 298.175 139.517,298.203 140.308,298.309 163.768 L 298.418 188.000 297.223 188.000 C 294.948 188.000,294.916 187.644,294.580 158.700 L 294.345 138.400 295.496 138.400 C 296.129 138.400,296.996 138.655,297.424 138.968 M187.723 146.815 C 223.590 149.255,250.480 169.870,264.577 205.735 C 272.164 225.037,277.750 268.136,280.994 332.400 C 281.321 338.890,281.707 345.948,281.851 348.085 C 282.202 353.310,282.109 353.434,275.460 356.591 C 253.127 367.193,230.061 372.352,201.875 373.051 L 190.750 373.327 191.001 366.763 C 191.140 363.153,191.427 356.780,191.640 352.600 C 193.581 314.443,191.869 272.273,187.581 252.620 C 186.648 248.342,186.141 248.926,193.000 246.387 C 208.065 240.811,211.879 237.500,208.690 232.769 C 206.080 228.895,203.428 228.686,195.894 231.760 C 181.253 237.732,162.864 242.336,150.220 243.195 C 120.868 245.187,92.176 233.749,87.529 218.204 C 83.311 204.090,91.577 185.802,107.930 173.070 L 110.408 171.141 109.555 172.587 C 105.509 179.444,116.651 185.713,120.840 178.936 C 123.454 174.706,120.410 169.213,115.441 169.191 L 113.400 169.182 114.400 168.390 C 126.906 158.487,155.655 148.034,173.724 146.819 C 180.324 146.375,181.245 146.375,187.723 146.815 M340.700 149.436 L 341.600 150.018 341.557 169.909 C 341.506 193.236,341.423 194.551,340.000 194.717 C 337.498 195.009,337.288 191.946,337.526 158.657 L 337.600 148.313 338.700 148.584 C 339.305 148.732,340.205 149.116,340.700 149.436 M144.608 174.115 C 142.428 175.349,141.213 177.599,141.213 180.400 C 141.213 188.852,152.575 190.264,154.777 182.085 C 156.360 176.207,149.881 171.128,144.608 174.115 M361.990 179.138 C 361.933 200.999,361.119 258.750,360.821 262.065 C 360.365 267.128,358.245 273.538,357.478 272.168 C 357.186 271.647,357.205 259.666,357.538 232.610 C 357.801 211.265,358.013 190.180,358.008 185.756 C 358.004 181.332,358.112 176.895,358.249 175.897 L 358.498 174.082 360.249 174.678 L 362.000 175.275 361.990 179.138 M78.143 183.900 C 78.708 187.319,78.430 190.434,77.342 192.858 C 76.014 195.818,76.000 195.799,75.385 190.140 C 74.839 185.114,74.998 184.067,76.464 183.040 C 77.742 182.145,77.863 182.207,78.143 183.900 M48.982 212.698 C 49.236 213.360,50.920 226.164,54.940 258.000 C 57.195 275.859,57.322 277.087,56.857 276.595 C 56.030 275.719,47.204 213.364,47.776 212.438 C 48.174 211.795,48.677 211.903,48.982 212.698 M81.726 233.954 L 83.216 235.908 84.066 243.759 C 84.885 251.322,84.890 251.638,84.196 252.404 C 82.669 254.092,82.585 253.818,81.391 243.218 C 80.857 238.478,80.337 234.015,80.235 233.300 C 80.001 231.655,79.958 231.636,81.726 233.954 M120.280 253.447 C 121.498 253.773,123.542 267.276,122.604 268.793 C 122.177 269.485,120.112 269.268,119.813 268.500 C 119.409 267.462,118.380 254.714,118.635 253.900 C 118.875 253.132,118.989 253.101,120.280 253.447 M157.556 253.964 C 158.197 254.370,158.400 256.535,159.583 275.600 C 160.027 282.750,160.485 290.130,160.602 292.000 C 160.806 295.276,160.423 297.279,159.869 295.835 C 159.621 295.189,159.031 288.687,157.614 271.000 C 156.104 252.131,156.107 253.047,157.556 253.964 M70.130 264.100 C 70.553 265.853,75.976 313.698,75.778 313.933 C 75.107 314.734,74.071 312.096,73.823 308.952 C 73.312 302.473,72.002 290.364,70.376 277.085 C 69.493 269.872,68.878 263.797,69.009 263.585 C 69.413 262.932,69.903 263.157,70.130 264.100 M340.445 282.605 C 340.339 301.786,340.283 302.432,338.516 304.741 L 337.400 306.200 337.141 304.000 C 336.998 302.790,336.976 293.970,337.091 284.400 L 337.299 267.000 338.724 265.507 C 339.507 264.686,340.237 264.104,340.347 264.213 C 340.456 264.323,340.500 272.599,340.445 282.605 M296.600 285.500 C 297.169 286.895,297.335 342.088,296.774 343.400 C 296.264 344.595,296.260 344.589,295.964 342.200 C 295.722 340.241,295.466 305.426,295.573 288.900 C 295.598 285.043,295.945 283.894,296.600 285.500 M144.080 296.000 C 145.808 312.041,146.322 322.991,145.364 323.359 C 144.002 323.881,143.901 323.244,142.247 303.681 L 141.357 293.161 142.578 293.281 C 143.770 293.397,143.807 293.465,144.080 296.000 M107.378 312.288 C 107.511 312.632,107.800 315.183,108.022 317.957 C 108.244 320.731,108.869 327.680,109.411 333.400 C 110.454 344.399,110.614 348.000,110.062 348.000 C 108.676 348.000,108.046 344.268,106.787 328.600 C 106.557 325.740,106.200 321.870,105.995 320.000 C 105.509 315.579,105.411 312.229,105.753 311.676 C 106.102 311.112,107.066 311.475,107.378 312.288 M129.273 343.000 C 129.843 345.101,130.188 358.400,129.672 358.400 C 128.354 358.400,127.650 355.565,126.811 346.883 C 126.328 341.888,126.411 341.499,127.911 341.677 C 128.676 341.768,129.032 342.114,129.273 343.000 " stroke="none" fill-rule="evenodd"></path>
</g>
</svg>