<svg id="svg" xmlns="http://www.w3.org/2000/svg" xmlns:xlink="http://www.w3.org/1999/xlink" width="400" height="400" viewBox="0, 0, 400,400"><g id="svgg"><path id="path0" d="M184.492 67.200 C 184.020 67.640,183.446 68.000,183.217 68.000 C 182.988 68.000,182.800 68.407,182.800 68.905 C 182.800 69.404,182.351 70.147,181.800 70.561 C 181.250 70.974,180.800 71.647,180.800 72.056 C 180.800 72.465,180.620 72.800,180.400 72.800 C 180.180 72.800,180.000 73.070,180.000 73.400 C 180.000 73.730,179.807 74.000,179.571 74.000 C 178.866 74.000,178.000 75.086,178.000 75.971 C 178.000 76.427,177.820 76.800,177.600 76.800 C 177.380 76.800,177.200 77.070,177.200 77.400 C 177.200 77.730,176.930 78.000,176.600 78.000 C 176.267 78.000,176.000 78.356,176.000 78.800 C 176.000 79.240,175.820 79.600,175.600 79.600 C 175.380 79.600,175.200 80.050,175.200 80.600 C 175.200 81.222,174.973 81.600,174.600 81.600 C 174.270 81.600,174.000 81.870,174.000 82.200 C 174.000 82.530,173.820 82.800,173.600 82.800 C 173.380 82.800,173.200 83.250,173.200 83.800 C 173.200 84.422,172.973 84.800,172.600 84.800 C 172.227 84.800,172.000 85.178,172.000 85.800 C 172.000 86.350,171.820 86.800,171.600 86.800 C 171.380 86.800,171.200 87.444,171.200 88.231 L 171.200 89.661 170.300 88.528 C 169.195 87.136,168.512 86.061,168.032 84.961 C 167.831 84.499,167.111 83.514,166.433 82.772 C 165.755 82.029,165.200 81.230,165.200 80.996 C 165.200 80.762,164.300 79.683,163.200 78.600 C 162.100 77.517,161.200 76.360,161.200 76.030 C 161.200 74.682,153.716 68.000,152.206 68.000 C 150.874 68.000,150.800 68.072,150.800 69.357 C 150.800 70.195,150.570 70.803,150.200 70.945 C 149.789 71.102,149.600 71.745,149.600 72.987 C 149.600 73.984,149.420 74.800,149.200 74.800 C 148.980 74.800,148.794 75.655,148.787 76.700 C 148.780 77.745,148.510 78.949,148.187 79.376 C 147.804 79.883,147.600 81.101,147.600 82.876 C 147.600 84.425,147.428 85.600,147.200 85.600 C 146.944 85.600,146.800 89.111,146.800 95.332 L 146.800 105.065 145.800 105.600 C 145.250 105.894,144.800 106.298,144.800 106.496 C 144.800 107.143,143.677 108.000,142.829 108.000 C 142.359 108.000,142.000 108.260,142.000 108.600 C 142.000 108.930,141.805 109.200,141.567 109.200 C 141.328 109.200,140.521 109.830,139.774 110.600 C 139.026 111.370,138.141 112.000,137.807 112.000 C 137.473 112.000,137.200 112.180,137.200 112.400 C 137.200 112.620,136.930 112.800,136.600 112.800 C 136.270 112.800,136.000 112.993,136.000 113.229 C 136.000 113.464,135.743 113.914,135.429 114.229 C 135.114 114.543,134.664 114.800,134.429 114.800 C 134.193 114.800,134.000 114.993,134.000 115.229 C 134.000 115.750,132.995 116.800,132.496 116.800 C 132.298 116.800,131.894 117.250,131.600 117.800 C 131.306 118.350,130.902 118.800,130.704 118.800 C 130.310 118.800,129.200 119.807,129.200 120.164 C 129.200 120.286,128.570 121.034,127.800 121.827 C 127.030 122.620,126.400 123.613,126.400 124.034 C 126.400 124.455,126.205 124.800,125.967 124.800 C 125.325 124.800,122.918 127.398,122.584 128.451 C 122.270 129.441,121.454 130.400,120.926 130.400 C 120.744 130.400,120.339 130.978,120.026 131.685 C 119.714 132.392,119.040 133.357,118.529 133.831 C 118.018 134.304,117.600 135.076,117.600 135.546 C 117.600 136.016,117.407 136.400,117.171 136.400 C 116.466 136.400,115.600 137.486,115.600 138.371 C 115.600 138.841,115.340 139.200,115.000 139.200 C 114.670 139.200,114.400 139.470,114.400 139.800 C 114.400 140.130,114.220 140.400,114.000 140.400 C 113.780 140.400,113.600 140.760,113.600 141.200 C 113.600 141.640,113.420 142.000,113.200 142.000 C 112.980 142.000,112.800 142.450,112.800 143.000 C 112.800 143.622,112.573 144.000,112.200 144.000 C 111.870 144.000,111.600 144.270,111.600 144.600 C 111.600 144.930,111.420 145.200,111.200 145.200 C 110.980 145.200,110.800 145.650,110.800 146.200 C 110.800 146.750,110.607 147.200,110.371 147.200 C 109.666 147.200,108.800 148.286,108.800 149.171 C 108.800 149.641,108.540 150.000,108.200 150.000 C 107.827 150.000,107.600 150.378,107.600 151.000 C 107.600 151.550,107.420 152.000,107.200 152.000 C 106.980 152.000,106.800 152.379,106.800 152.842 C 106.800 153.306,106.350 154.039,105.800 154.471 C 105.250 154.904,104.800 155.605,104.800 156.029 C 104.800 156.453,104.620 156.800,104.400 156.800 C 104.180 156.800,104.000 157.250,104.000 157.800 C 104.000 158.422,103.773 158.800,103.400 158.800 C 103.027 158.800,102.800 159.178,102.800 159.800 C 102.800 160.350,102.620 160.800,102.400 160.800 C 102.180 160.800,102.000 161.250,102.000 161.800 C 102.000 162.422,101.773 162.800,101.400 162.800 C 101.027 162.800,100.800 163.178,100.800 163.800 C 100.800 164.350,100.620 164.800,100.400 164.800 C 100.180 164.800,100.000 165.141,100.000 165.557 C 100.000 165.974,99.730 166.418,99.400 166.545 C 99.070 166.671,98.800 167.141,98.800 167.587 C 98.800 168.034,98.620 168.400,98.400 168.400 C 98.180 168.400,98.000 168.850,98.000 169.400 C 98.000 169.950,97.820 170.400,97.600 170.400 C 97.380 170.400,97.200 170.850,97.200 171.400 C 97.200 172.022,96.973 172.400,96.600 172.400 C 96.181 172.400,96.000 172.822,96.000 173.800 C 96.000 174.570,95.820 175.200,95.600 175.200 C 95.380 175.200,95.200 175.650,95.200 176.200 C 95.200 176.822,94.973 177.200,94.600 177.200 C 94.227 177.200,94.000 177.578,94.000 178.200 C 94.000 178.750,93.820 179.200,93.600 179.200 C 93.380 179.200,93.200 179.811,93.200 180.557 C 93.200 181.395,92.970 182.003,92.600 182.145 C 92.270 182.271,92.000 182.741,92.000 183.187 C 92.000 183.634,91.820 184.000,91.600 184.000 C 91.380 184.000,91.200 184.431,91.200 184.957 C 91.200 185.484,90.930 186.018,90.600 186.145 C 90.270 186.271,90.000 186.730,90.000 187.164 C 90.000 187.598,89.820 188.064,89.600 188.200 C 89.380 188.336,89.200 188.977,89.200 189.624 C 89.200 190.271,89.020 190.800,88.800 190.800 C 88.580 190.800,88.400 191.231,88.400 191.757 C 88.400 192.284,88.130 192.818,87.800 192.945 C 87.423 193.089,87.200 193.701,87.200 194.587 C 87.200 195.364,87.020 196.000,86.800 196.000 C 86.580 196.000,86.400 196.431,86.400 196.957 C 86.400 197.484,86.130 198.018,85.800 198.145 C 85.449 198.279,85.200 198.879,85.200 199.587 C 85.200 200.254,85.020 200.800,84.800 200.800 C 84.580 200.800,84.400 201.411,84.400 202.157 C 84.400 202.995,84.170 203.603,83.800 203.745 C 83.449 203.879,83.200 204.479,83.200 205.187 C 83.200 205.854,83.020 206.400,82.800 206.400 C 82.580 206.400,82.400 206.940,82.400 207.600 C 82.400 208.260,82.240 208.800,82.045 208.800 C 81.849 208.800,81.571 209.430,81.426 210.200 C 81.282 210.970,80.992 211.600,80.782 211.600 C 80.572 211.600,80.400 212.230,80.400 213.000 C 80.400 213.770,80.220 214.400,80.000 214.400 C 79.780 214.400,79.600 215.030,79.600 215.800 C 79.600 216.778,79.419 217.200,79.000 217.200 C 78.567 217.200,78.400 217.644,78.400 218.800 C 78.400 219.680,78.220 220.400,78.000 220.400 C 77.780 220.400,77.600 221.030,77.600 221.800 C 77.600 222.778,77.419 223.200,77.000 223.200 C 76.556 223.200,76.400 223.667,76.400 225.000 C 76.400 226.272,76.563 226.800,76.957 226.800 C 77.264 226.800,77.618 227.070,77.745 227.400 C 77.937 227.900,79.091 228.000,84.699 228.000 C 92.181 228.000,92.800 227.786,92.800 225.195 C 92.800 224.399,93.001 224.000,93.400 224.000 C 93.817 224.000,94.000 223.580,94.000 222.624 C 94.000 221.867,94.180 221.136,94.400 221.000 C 94.620 220.864,94.800 220.133,94.800 219.376 C 94.800 218.420,94.983 218.000,95.400 218.000 C 95.819 218.000,96.000 217.578,96.000 216.600 C 96.000 215.830,96.180 215.200,96.400 215.200 C 96.620 215.200,96.800 214.570,96.800 213.800 C 96.800 213.030,96.957 212.400,97.149 212.400 C 97.341 212.400,97.613 211.680,97.754 210.800 C 97.894 209.920,98.187 209.200,98.405 209.200 C 98.622 209.200,98.800 208.750,98.800 208.200 C 98.800 207.650,98.980 207.200,99.200 207.200 C 99.420 207.200,99.600 206.592,99.600 205.849 C 99.600 205.106,99.870 204.274,100.200 204.000 C 100.530 203.726,100.800 203.085,100.800 202.575 C 100.800 202.065,100.980 201.536,101.200 201.400 C 101.420 201.264,101.600 200.611,101.600 199.948 C 101.600 199.285,101.870 198.473,102.200 198.143 C 102.530 197.813,102.800 197.106,102.800 196.571 C 102.800 196.037,102.980 195.600,103.200 195.600 C 103.420 195.600,103.600 194.989,103.600 194.243 C 103.600 193.405,103.830 192.797,104.200 192.655 C 104.530 192.529,104.800 192.059,104.800 191.613 C 104.800 191.166,104.980 190.800,105.200 190.800 C 105.420 190.800,105.600 190.170,105.600 189.400 C 105.600 188.630,105.780 188.000,106.000 188.000 C 106.220 188.000,106.400 187.569,106.400 187.043 C 106.400 186.516,106.670 185.982,107.000 185.855 C 107.377 185.711,107.600 185.099,107.600 184.213 C 107.600 183.436,107.780 182.800,108.000 182.800 C 108.220 182.800,108.400 182.350,108.400 181.800 C 108.400 181.178,108.627 180.800,109.000 180.800 C 109.373 180.800,109.600 180.422,109.600 179.800 C 109.600 179.250,109.780 178.800,110.000 178.800 C 110.220 178.800,110.400 178.170,110.400 177.400 C 110.400 176.422,110.581 176.000,111.000 176.000 C 111.373 176.000,111.600 175.622,111.600 175.000 C 111.600 174.450,111.780 174.000,112.000 174.000 C 112.220 174.000,112.400 173.389,112.400 172.643 C 112.400 171.805,112.630 171.197,113.000 171.055 C 113.330 170.929,113.600 170.459,113.600 170.013 C 113.600 169.566,113.780 169.200,114.000 169.200 C 114.220 169.200,114.400 168.750,114.400 168.200 C 114.400 167.650,114.580 167.200,114.800 167.200 C 115.020 167.200,115.200 166.750,115.200 166.200 C 115.200 165.578,115.427 165.200,115.800 165.200 C 116.133 165.200,116.400 164.844,116.400 164.400 C 116.400 163.960,116.580 163.600,116.800 163.600 C 117.020 163.600,117.200 163.150,117.200 162.600 C 117.200 161.978,117.427 161.600,117.800 161.600 C 118.173 161.600,118.400 161.222,118.400 160.600 C 118.400 160.050,118.580 159.600,118.800 159.600 C 119.020 159.600,119.200 159.150,119.200 158.600 C 119.200 157.978,119.427 157.600,119.800 157.600 C 120.173 157.600,120.400 157.222,120.400 156.600 C 120.400 156.050,120.580 155.600,120.800 155.600 C 121.020 155.600,121.200 155.193,121.200 154.695 C 121.200 154.196,121.649 153.453,122.200 153.039 C 122.750 152.626,123.200 151.953,123.200 151.544 C 123.200 151.135,123.380 150.800,123.600 150.800 C 123.820 150.800,124.000 150.350,124.000 149.800 C 124.000 149.178,124.227 148.800,124.600 148.800 C 124.946 148.800,125.200 148.439,125.200 147.947 C 125.200 146.736,126.938 145.219,127.146 146.249 C 127.226 146.645,127.091 147.036,126.846 147.118 C 126.601 147.200,126.400 147.702,126.400 148.233 C 126.400 148.826,126.168 149.200,125.800 149.200 C 125.431 149.200,125.200 149.575,125.200 150.176 C 125.200 150.713,125.020 151.264,124.800 151.400 C 124.580 151.536,124.400 152.177,124.400 152.824 C 124.400 153.603,124.197 154.000,123.800 154.000 C 123.427 154.000,123.200 154.378,123.200 155.000 C 123.200 155.550,123.020 156.000,122.800 156.000 C 122.580 156.000,122.400 156.630,122.400 157.400 C 122.400 158.170,122.240 158.800,122.043 158.800 C 121.847 158.800,121.574 159.250,121.436 159.800 C 121.298 160.350,121.008 160.800,120.792 160.800 C 120.577 160.800,120.400 161.430,120.400 162.200 C 120.400 162.970,120.220 163.600,120.000 163.600 C 119.780 163.600,119.600 164.031,119.600 164.557 C 119.600 165.084,119.330 165.618,119.000 165.745 C 118.649 165.879,118.400 166.479,118.400 167.187 C 118.400 167.854,118.220 168.400,118.000 168.400 C 117.780 168.400,117.600 168.863,117.600 169.429 C 117.600 169.994,117.330 170.727,117.000 171.057 C 116.670 171.387,116.400 172.094,116.400 172.629 C 116.400 173.163,116.220 173.600,116.000 173.600 C 115.780 173.600,115.600 174.211,115.600 174.957 C 115.600 175.795,115.370 176.403,115.000 176.545 C 114.653 176.678,114.400 177.276,114.400 177.964 C 114.400 178.618,114.220 179.264,114.000 179.400 C 113.780 179.536,113.600 180.267,113.600 181.024 C 113.600 181.781,113.420 182.400,113.200 182.400 C 112.980 182.400,112.800 183.210,112.800 184.200 C 112.800 185.533,112.644 186.000,112.200 186.000 C 111.767 186.000,111.600 186.444,111.600 187.600 C 111.600 188.480,111.420 189.200,111.200 189.200 C 110.980 189.200,110.800 189.830,110.800 190.600 C 110.800 191.578,110.619 192.000,110.200 192.000 C 109.783 192.000,109.600 192.420,109.600 193.376 C 109.600 194.133,109.420 194.864,109.200 195.000 C 108.980 195.136,108.800 196.047,108.800 197.024 C 108.800 198.336,108.643 198.800,108.200 198.800 C 107.781 198.800,107.600 199.222,107.600 200.200 C 107.600 200.970,107.420 201.600,107.200 201.600 C 106.980 201.600,106.800 202.423,106.800 203.429 C 106.800 204.521,106.558 205.499,106.200 205.857 C 105.870 206.187,105.600 207.164,105.600 208.029 C 105.600 208.893,105.420 209.600,105.200 209.600 C 104.980 209.600,104.800 210.500,104.800 211.600 C 104.800 212.700,104.620 213.600,104.400 213.600 C 104.178 213.600,104.000 214.667,104.000 216.000 C 104.000 217.867,103.867 218.400,103.400 218.400 C 102.933 218.400,102.800 218.933,102.800 220.800 C 102.800 222.133,102.622 223.200,102.400 223.200 C 101.585 223.200,101.957 226.469,102.861 227.253 C 104.060 228.293,182.307 228.436,183.343 227.400 C 183.673 227.070,184.136 226.800,184.371 226.800 C 184.650 226.800,184.800 225.269,184.800 222.424 C 184.800 219.937,184.973 217.940,185.200 217.800 C 185.420 217.664,185.600 215.943,185.600 213.976 C 185.600 211.064,185.711 210.400,186.200 210.400 C 186.530 210.400,186.800 210.580,186.800 210.800 C 186.800 211.020,187.250 211.200,187.800 211.200 C 188.422 211.200,188.800 211.427,188.800 211.800 C 188.800 212.173,189.178 212.400,189.800 212.400 C 190.350 212.400,190.800 212.580,190.800 212.800 C 190.800 213.020,191.599 213.200,192.576 213.200 C 193.553 213.200,194.464 213.380,194.600 213.600 C 194.736 213.820,196.077 214.000,197.581 214.000 C 199.642 214.000,200.371 214.148,200.545 214.600 C 200.737 215.101,201.902 215.200,207.600 215.200 C 213.298 215.200,214.463 215.101,214.655 214.600 C 214.839 214.123,215.694 214.000,218.843 214.000 C 221.214 214.000,222.800 213.840,222.800 213.600 C 222.800 213.371,224.000 213.200,225.600 213.200 C 227.200 213.200,228.400 213.029,228.400 212.800 C 228.400 212.567,229.738 212.400,231.613 212.400 C 234.099 212.400,234.877 212.264,235.055 211.800 C 235.224 211.362,235.914 211.200,237.619 211.200 C 238.903 211.200,240.064 211.020,240.200 210.800 C 240.336 210.580,241.697 210.400,243.224 210.400 C 245.425 210.400,246.000 210.276,246.000 209.800 C 246.000 209.320,246.600 209.200,249.000 209.200 C 250.733 209.200,252.000 209.031,252.000 208.800 C 252.000 208.556,253.867 208.400,256.800 208.400 C 260.800 208.400,261.600 208.300,261.600 207.800 C 261.600 207.299,262.417 207.200,266.557 207.200 C 270.595 207.200,271.557 207.311,271.745 207.800 C 271.927 208.275,272.768 208.400,275.787 208.400 C 278.062 208.400,279.600 208.561,279.600 208.800 C 279.600 209.020,280.391 209.200,281.357 209.200 C 282.550 209.200,283.188 209.393,283.345 209.800 C 283.489 210.177,284.101 210.400,284.987 210.400 C 285.764 210.400,286.400 210.580,286.400 210.800 C 286.400 211.020,287.030 211.200,287.800 211.200 C 288.778 211.200,289.200 211.381,289.200 211.800 C 289.200 212.173,289.578 212.400,290.200 212.400 C 290.750 212.400,291.200 212.580,291.200 212.800 C 291.200 213.020,291.830 213.200,292.600 213.200 C 293.370 213.200,294.000 213.380,294.000 213.600 C 294.000 213.820,294.900 214.000,296.000 214.000 C 297.511 214.000,298.000 214.147,298.000 214.600 C 298.000 215.091,298.689 215.200,301.800 215.200 C 304.911 215.200,305.600 215.091,305.600 214.600 C 305.600 214.147,306.089 214.000,307.600 214.000 C 308.700 214.000,309.600 213.820,309.600 213.600 C 309.600 213.380,309.915 213.194,310.300 213.187 C 311.165 213.172,312.400 212.271,312.400 211.656 C 312.400 211.405,312.773 211.200,313.229 211.200 C 314.114 211.200,315.200 210.334,315.200 209.629 C 315.200 209.393,315.393 209.200,315.629 209.200 C 316.334 209.200,317.200 208.114,317.200 207.229 C 317.200 206.759,317.460 206.400,317.800 206.400 C 318.130 206.400,318.400 206.130,318.400 205.800 C 318.400 205.470,318.580 205.200,318.800 205.200 C 319.020 205.200,319.200 204.859,319.200 204.443 C 319.200 204.026,319.470 203.582,319.800 203.455 C 320.130 203.329,320.400 202.859,320.400 202.413 C 320.400 201.966,320.580 201.600,320.800 201.600 C 321.020 201.600,321.200 201.150,321.200 200.600 C 321.200 200.050,321.380 199.600,321.600 199.600 C 321.820 199.600,322.000 198.880,322.000 198.000 C 322.000 196.844,322.167 196.400,322.600 196.400 C 323.108 196.400,323.200 195.421,323.200 189.987 C 323.200 184.656,323.099 183.536,322.600 183.345 C 322.270 183.218,321.996 182.639,321.991 182.057 C 321.986 181.476,321.630 180.550,321.200 180.000 C 320.770 179.450,320.414 178.797,320.409 178.550 C 320.383 177.261,311.642 169.600,310.197 169.600 C 309.916 169.600,309.582 169.330,309.455 169.000 C 309.329 168.670,308.870 168.400,308.436 168.400 C 308.002 168.400,307.536 168.220,307.400 168.000 C 307.264 167.780,306.578 167.594,305.876 167.587 C 305.174 167.580,304.251 167.310,303.824 166.987 C 303.396 166.664,302.552 166.400,301.947 166.400 C 301.342 166.400,300.736 166.220,300.600 166.000 C 300.464 165.780,299.744 165.600,299.000 165.600 C 298.256 165.600,297.536 165.420,297.400 165.200 C 297.264 164.980,296.643 164.800,296.019 164.800 C 295.381 164.800,294.785 164.538,294.655 164.200 C 294.529 163.870,294.070 163.600,293.636 163.600 C 293.202 163.600,292.736 163.420,292.600 163.200 C 292.464 162.980,291.843 162.800,291.219 162.800 C 290.581 162.800,289.985 162.538,289.855 162.200 C 289.729 161.870,289.270 161.600,288.836 161.600 C 288.402 161.600,287.936 161.420,287.800 161.200 C 287.664 160.980,287.225 160.800,286.825 160.800 C 286.425 160.800,285.874 160.530,285.600 160.200 C 285.326 159.870,284.685 159.600,284.175 159.600 C 283.665 159.600,283.136 159.420,283.000 159.200 C 282.864 158.980,282.423 158.800,282.019 158.800 C 281.616 158.800,281.199 158.575,281.093 158.300 C 280.875 157.733,277.795 156.000,277.005 156.000 C 276.719 156.000,276.382 155.730,276.255 155.400 C 276.129 155.070,275.670 154.800,275.236 154.800 C 274.802 154.800,274.336 154.620,274.200 154.400 C 274.064 154.180,273.623 154.000,273.219 154.000 C 272.816 154.000,272.382 153.730,272.255 153.400 C 272.129 153.070,271.670 152.800,271.236 152.800 C 270.802 152.800,270.336 152.620,270.200 152.400 C 270.064 152.180,269.623 152.000,269.219 152.000 C 268.816 152.000,268.382 151.730,268.255 151.400 C 268.129 151.070,267.794 150.796,267.513 150.791 C 267.231 150.786,266.550 150.430,266.000 150.000 C 265.450 149.570,264.704 149.214,264.343 149.209 C 263.981 149.204,263.582 148.930,263.455 148.600 C 263.329 148.270,262.887 148.000,262.475 148.000 C 262.062 148.000,261.397 147.639,260.997 147.197 C 260.188 146.303,258.168 145.200,257.339 145.200 C 257.042 145.200,256.800 145.016,256.800 144.790 C 256.800 144.565,256.395 144.208,255.900 143.997 C 255.405 143.786,254.280 143.162,253.400 142.610 C 252.520 142.057,251.530 141.501,251.200 141.374 C 250.870 141.246,250.287 140.975,249.905 140.771 C 249.523 140.567,248.958 140.400,248.648 140.400 C 248.339 140.400,247.982 140.130,247.855 139.800 C 247.729 139.470,247.287 139.200,246.875 139.200 C 246.462 139.200,245.797 138.839,245.397 138.397 C 244.582 137.497,242.566 136.400,241.724 136.400 C 240.123 136.400,239.200 135.148,239.200 132.978 C 239.200 131.806,239.020 130.736,238.800 130.600 C 238.580 130.464,238.400 129.998,238.400 129.564 C 238.400 129.130,238.148 128.678,237.839 128.560 C 237.531 128.441,237.189 127.999,237.078 127.577 C 236.968 127.155,236.448 126.646,235.922 126.446 C 235.397 126.247,234.727 125.795,234.435 125.442 C 234.142 125.089,233.583 124.800,233.194 124.800 C 232.804 124.800,232.382 124.530,232.255 124.200 C 232.129 123.870,231.670 123.600,231.236 123.600 C 230.802 123.600,230.336 123.420,230.200 123.200 C 230.064 122.980,229.445 122.800,228.825 122.800 C 228.205 122.800,227.474 122.530,227.200 122.200 C 226.926 121.870,226.195 121.600,225.575 121.600 C 224.955 121.600,224.336 121.420,224.200 121.200 C 224.064 120.980,223.263 120.800,222.419 120.800 C 221.425 120.800,220.805 120.589,220.655 120.200 C 220.512 119.826,219.902 119.600,219.036 119.600 C 218.272 119.600,217.536 119.420,217.400 119.200 C 217.264 118.980,216.645 118.800,216.025 118.800 C 215.405 118.800,214.674 118.530,214.400 118.200 C 214.126 117.870,213.562 117.600,213.146 117.600 C 212.730 117.600,212.032 117.420,211.595 117.200 C 211.158 116.980,210.442 116.620,210.005 116.400 C 209.568 116.180,208.778 116.000,208.248 116.000 C 207.719 116.000,207.182 115.730,207.055 115.400 C 206.929 115.070,206.470 114.800,206.036 114.800 C 205.602 114.800,205.136 114.620,205.000 114.400 C 204.864 114.180,204.423 114.000,204.019 114.000 C 203.616 114.000,203.182 113.730,203.055 113.400 C 202.929 113.070,202.470 112.800,202.036 112.800 C 201.602 112.800,201.136 112.620,201.000 112.400 C 200.864 112.180,200.423 112.000,200.019 112.000 C 199.616 112.000,199.182 111.730,199.055 111.400 C 198.929 111.070,198.470 110.800,198.036 110.800 C 197.602 110.800,197.136 110.620,197.000 110.400 C 196.864 110.180,196.435 110.000,196.046 110.000 C 194.248 110.000,193.715 108.513,193.477 102.847 C 193.354 99.902,193.061 97.301,192.827 97.067 C 192.586 96.826,192.400 95.029,192.400 92.944 C 192.400 90.911,192.220 89.136,192.000 89.000 C 191.780 88.864,191.600 87.498,191.600 85.964 C 191.600 83.854,191.454 83.119,191.000 82.945 C 190.570 82.780,190.400 82.108,190.400 80.581 C 190.400 79.407,190.220 78.336,190.000 78.200 C 189.780 78.064,189.600 76.995,189.600 75.825 C 189.600 74.422,189.396 73.528,189.000 73.200 C 188.658 72.916,188.400 72.044,188.400 71.175 C 188.400 70.335,188.220 69.536,188.000 69.400 C 187.780 69.264,187.600 68.643,187.600 68.019 C 187.600 66.286,185.942 65.849,184.492 67.200 M157.600 98.200 C 157.600 98.750,157.780 99.200,158.000 99.200 C 158.220 99.200,158.400 99.566,158.400 100.013 C 158.400 100.459,158.670 100.929,159.000 101.055 C 159.330 101.182,159.600 101.626,159.600 102.043 C 159.600 102.459,159.780 102.800,160.000 102.800 C 160.220 102.800,160.400 103.070,160.400 103.400 C 160.400 103.730,160.593 104.000,160.829 104.000 C 161.064 104.000,161.514 104.257,161.829 104.571 C 162.526 105.269,162.572 106.000,161.917 106.000 C 161.149 106.000,158.400 103.113,158.400 102.306 C 158.400 101.904,158.130 101.471,157.800 101.345 C 157.462 101.215,157.200 100.619,157.200 99.981 C 157.200 99.357,157.020 98.736,156.800 98.600 C 156.182 98.218,156.327 97.200,157.000 97.200 C 157.373 97.200,157.600 97.578,157.600 98.200 M203.400 139.600 C 203.538 139.824,205.414 140.000,207.652 140.000 C 210.679 140.000,211.804 140.147,212.257 140.600 C 212.701 141.044,213.787 141.200,216.429 141.200 C 219.713 141.200,220.888 141.574,219.400 142.145 C 219.070 142.271,218.800 142.741,218.800 143.187 C 218.800 143.634,218.620 144.000,218.400 144.000 C 218.180 144.000,218.000 144.270,218.000 144.600 C 218.000 144.973,217.622 145.200,217.000 145.200 C 216.450 145.200,216.000 145.380,216.000 145.600 C 216.000 145.828,214.808 146.000,213.224 146.000 C 211.697 146.000,210.336 145.820,210.200 145.600 C 210.064 145.380,209.533 145.200,209.019 145.200 C 208.506 145.200,207.982 144.930,207.855 144.600 C 207.729 144.270,207.304 143.998,206.913 143.995 C 206.323 143.991,201.600 139.868,201.600 139.357 C 201.600 139.014,203.168 139.225,203.400 139.600 M128.860 143.113 C 128.607 143.198,128.400 143.702,128.400 144.233 C 128.400 144.826,128.168 145.200,127.800 145.200 C 127.470 145.200,127.200 144.930,127.200 144.600 C 127.200 144.270,127.380 144.000,127.600 144.000 C 127.820 144.000,128.000 143.812,128.000 143.583 C 128.000 142.904,128.975 142.010,129.160 142.519 C 129.248 142.762,129.113 143.029,128.860 143.113 M237.600 151.200 C 237.600 151.420,238.050 151.600,238.600 151.600 C 239.222 151.600,239.600 151.827,239.600 152.200 C 239.600 152.573,239.978 152.800,240.600 152.800 C 241.150 152.800,241.600 152.980,241.600 153.200 C 241.600 153.420,241.941 153.600,242.357 153.600 C 242.774 153.600,243.218 153.870,243.345 154.200 C 243.471 154.530,243.941 154.800,244.387 154.800 C 244.834 154.800,245.200 154.980,245.200 155.200 C 245.200 155.420,245.569 155.600,246.019 155.600 C 246.470 155.600,247.255 156.050,247.765 156.600 C 248.275 157.150,248.975 157.600,249.322 157.600 C 249.669 157.600,250.064 157.780,250.200 158.000 C 250.336 158.220,250.797 158.400,251.224 158.400 C 251.651 158.400,252.000 158.670,252.000 159.000 C 252.000 159.373,252.378 159.600,253.000 159.600 C 253.550 159.600,254.000 159.780,254.000 160.000 C 254.000 160.220,254.270 160.400,254.600 160.400 C 254.930 160.400,255.200 160.670,255.200 161.000 C 255.200 161.373,255.578 161.600,256.200 161.600 C 256.750 161.600,257.200 161.780,257.200 162.000 C 257.200 162.220,257.541 162.400,257.957 162.400 C 258.374 162.400,258.818 162.670,258.945 163.000 C 259.071 163.330,259.541 163.600,259.987 163.600 C 260.434 163.600,260.800 163.780,260.800 164.000 C 260.800 164.220,261.250 164.400,261.800 164.400 C 262.350 164.400,262.800 164.560,262.800 164.757 C 262.800 164.953,263.250 165.226,263.800 165.364 C 264.350 165.502,264.800 165.828,264.800 166.088 C 264.800 166.447,264.685 166.445,264.320 166.080 C 264.056 165.816,263.347 165.600,262.744 165.600 C 262.141 165.600,261.536 165.420,261.400 165.200 C 261.264 164.980,260.823 164.800,260.419 164.800 C 260.016 164.800,259.582 164.530,259.455 164.200 C 259.329 163.870,258.870 163.600,258.436 163.600 C 258.002 163.600,257.536 163.420,257.400 163.200 C 257.264 162.980,256.643 162.800,256.019 162.800 C 255.381 162.800,254.785 162.538,254.655 162.200 C 254.529 161.870,254.070 161.600,253.636 161.600 C 253.202 161.600,252.736 161.420,252.600 161.200 C 252.464 160.980,252.023 160.800,251.619 160.800 C 251.216 160.800,250.782 160.530,250.655 160.200 C 250.529 159.870,250.156 159.600,249.827 159.600 C 249.498 159.600,248.367 159.121,247.314 158.536 C 246.261 157.951,245.085 157.321,244.700 157.136 C 244.315 156.951,243.642 156.620,243.205 156.400 C 242.768 156.180,241.980 156.000,241.454 156.000 C 240.928 156.000,240.274 155.730,240.000 155.400 C 239.726 155.070,238.995 154.800,238.375 154.800 C 237.755 154.800,237.136 154.620,237.000 154.400 C 236.864 154.180,236.016 154.000,235.115 154.000 L 233.478 154.000 234.339 153.253 C 234.812 152.842,235.200 152.302,235.200 152.053 C 235.200 151.804,235.470 151.600,235.800 151.600 C 236.130 151.600,236.400 151.420,236.400 151.200 C 236.400 150.980,236.670 150.800,237.000 150.800 C 237.330 150.800,237.600 150.980,237.600 151.200 M266.800 166.773 C 266.800 166.979,267.295 167.222,267.900 167.313 C 268.958 167.474,268.952 167.482,267.743 167.540 C 266.951 167.578,266.400 167.378,266.255 167.000 C 266.129 166.670,266.199 166.400,266.413 166.400 C 266.626 166.400,266.800 166.568,266.800 166.773 M306.800 191.200 C 306.800 191.420,307.443 191.600,308.229 191.600 C 309.498 191.600,309.590 191.667,309.057 192.200 C 308.339 192.918,305.954 192.994,305.280 192.320 C 304.486 191.526,304.735 190.800,305.800 190.800 C 306.350 190.800,306.800 190.980,306.800 191.200 M186.165 196.600 C 186.675 197.150,187.433 197.600,187.851 197.600 C 188.268 197.600,188.948 198.050,189.361 198.600 C 189.774 199.150,190.447 199.600,190.856 199.600 C 191.265 199.600,191.600 199.780,191.600 200.000 C 191.600 200.220,192.031 200.400,192.557 200.400 C 193.084 200.400,193.618 200.670,193.745 201.000 C 193.879 201.351,194.479 201.600,195.187 201.600 C 195.854 201.600,196.400 201.780,196.400 202.000 C 196.400 202.220,197.120 202.400,198.000 202.400 C 199.156 202.400,199.600 202.567,199.600 203.000 C 199.600 203.443,200.064 203.600,201.376 203.600 C 202.353 203.600,203.264 203.780,203.400 204.000 C 203.539 204.225,205.463 204.400,207.800 204.400 C 210.137 204.400,212.061 204.575,212.200 204.800 C 212.349 205.040,215.071 205.200,219.024 205.200 C 223.141 205.200,225.600 205.050,225.600 204.800 C 225.600 204.550,227.513 204.430,230.700 204.480 C 234.309 204.537,234.894 204.601,232.700 204.697 C 230.995 204.772,229.600 205.006,229.600 205.217 C 229.600 205.434,227.955 205.600,225.800 205.600 C 223.533 205.600,222.000 205.761,222.000 206.000 C 222.000 206.253,219.075 206.400,214.024 206.400 C 209.137 206.400,205.951 206.245,205.800 206.000 C 205.664 205.780,204.584 205.600,203.400 205.600 C 202.216 205.600,201.136 205.420,201.000 205.200 C 200.864 204.980,199.973 204.800,199.019 204.800 C 197.847 204.800,197.211 204.606,197.055 204.200 C 196.929 203.870,196.470 203.600,196.036 203.600 C 195.602 203.600,195.136 203.420,195.000 203.200 C 194.864 202.980,194.481 202.800,194.150 202.800 C 193.818 202.800,192.957 202.350,192.236 201.800 C 191.514 201.250,190.712 200.800,190.453 200.800 C 189.930 200.800,184.411 195.623,184.919 195.609 C 185.095 195.604,185.655 196.050,186.165 196.600 M0.000 288.227 L 0.000 332.854 22.232 332.727 C 42.859 332.609,44.502 332.549,44.977 331.900 C 45.321 331.428,46.029 331.200,47.144 331.200 C 48.055 331.200,48.800 331.020,48.800 330.800 C 48.800 330.580,49.250 330.400,49.800 330.400 C 50.422 330.400,50.800 330.173,50.800 329.800 C 50.800 329.427,51.178 329.200,51.800 329.200 C 52.350 329.200,52.800 329.020,52.800 328.800 C 52.800 328.580,53.250 328.400,53.800 328.400 C 54.422 328.400,54.800 328.173,54.800 327.800 C 54.800 327.427,55.178 327.200,55.800 327.200 C 56.350 327.200,56.800 327.020,56.800 326.800 C 56.800 326.580,57.135 326.400,57.544 326.400 C 57.953 326.400,58.626 325.950,59.039 325.400 C 59.452 324.850,60.017 324.400,60.295 324.400 C 60.573 324.400,60.800 324.220,60.800 324.000 C 60.800 323.780,61.089 323.600,61.443 323.600 C 62.139 323.600,66.400 319.481,66.400 318.809 C 66.400 318.584,66.593 318.400,66.829 318.400 C 67.534 318.400,68.400 317.314,68.400 316.429 C 68.400 315.973,68.593 315.600,68.829 315.600 C 69.362 315.600,70.400 314.590,70.400 314.071 C 70.400 313.859,70.670 313.582,71.000 313.455 C 71.330 313.329,71.600 312.859,71.600 312.413 C 71.600 311.966,71.780 311.600,72.000 311.600 C 72.220 311.600,72.400 311.150,72.400 310.600 C 72.400 309.978,72.627 309.600,73.000 309.600 C 73.333 309.600,73.600 309.244,73.600 308.800 C 73.600 308.360,73.780 308.000,74.000 308.000 C 74.220 308.000,74.400 307.550,74.400 307.000 C 74.400 306.450,74.580 306.000,74.800 306.000 C 75.020 306.000,75.200 305.280,75.200 304.400 C 75.200 303.244,75.367 302.800,75.800 302.800 C 76.219 302.800,76.400 302.378,76.400 301.400 C 76.400 300.630,76.580 300.000,76.800 300.000 C 77.020 300.000,77.200 299.177,77.200 298.171 C 77.200 297.079,77.442 296.101,77.800 295.743 C 78.286 295.257,78.400 293.863,78.400 288.420 C 78.400 282.933,78.290 281.606,77.800 281.200 C 77.404 280.872,77.200 279.978,77.200 278.575 C 77.200 277.405,77.020 276.336,76.800 276.200 C 76.580 276.064,76.400 275.445,76.400 274.825 C 76.400 274.205,76.130 273.474,75.800 273.200 C 75.470 272.926,75.200 272.460,75.200 272.163 C 75.200 271.867,74.840 270.983,74.400 270.200 C 73.960 269.417,73.600 268.505,73.600 268.175 C 73.600 267.845,73.330 267.471,73.000 267.345 C 72.670 267.218,72.400 266.784,72.400 266.381 C 72.400 265.977,72.220 265.536,72.000 265.400 C 71.780 265.264,71.597 264.848,71.593 264.476 C 71.589 264.104,71.139 263.376,70.593 262.858 C 70.047 262.340,69.600 261.734,69.600 261.510 C 69.600 260.791,61.059 252.400,60.326 252.400 C 59.937 252.400,59.324 251.950,58.963 251.400 C 58.603 250.850,57.979 250.400,57.578 250.400 C 57.176 250.400,56.736 250.220,56.600 250.000 C 56.464 249.780,56.103 249.600,55.797 249.600 C 55.491 249.600,54.756 249.150,54.162 248.600 C 53.556 248.038,52.602 247.600,51.984 247.600 C 51.377 247.600,50.783 247.332,50.655 247.000 C 50.529 246.670,50.070 246.400,49.636 246.400 C 49.202 246.400,48.736 246.220,48.600 246.000 C 48.464 245.780,47.834 245.600,47.200 245.600 C 46.566 245.600,45.936 245.420,45.800 245.200 C 45.664 244.980,44.775 244.800,43.825 244.800 C 42.778 244.800,41.902 244.564,41.600 244.200 C 41.169 243.681,38.331 243.600,20.551 243.600 L 0.000 243.600 0.000 288.227 M93.200 288.197 L 93.200 332.800 122.400 332.800 L 151.600 332.800 151.600 323.270 C 151.600 310.513,154.177 312.000,132.074 312.000 L 114.400 312.000 114.400 305.600 L 114.400 299.200 129.213 299.200 C 142.010 299.200,144.056 299.118,144.255 298.600 C 144.382 298.270,144.736 298.000,145.043 298.000 C 145.800 298.000,145.874 278.834,145.120 278.080 C 144.764 277.724,140.747 277.600,129.520 277.600 L 114.400 277.600 114.400 271.200 L 114.400 264.800 132.400 264.800 C 144.133 264.800,150.400 264.661,150.400 264.400 C 150.400 264.180,150.673 264.000,151.007 264.000 C 151.536 264.000,151.600 262.709,151.507 253.900 L 151.400 243.800 122.300 243.697 L 93.200 243.595 93.200 288.197 M167.200 288.200 L 167.200 332.800 177.700 332.787 C 185.797 332.777,188.360 332.653,188.900 332.243 C 189.546 331.752,189.600 330.469,189.600 315.456 L 189.600 299.200 192.600 299.200 C 195.303 299.200,195.600 299.277,195.600 299.976 C 195.600 300.403,195.780 300.864,196.000 301.000 C 196.220 301.136,196.400 301.597,196.400 302.024 C 196.400 302.451,196.670 302.800,197.000 302.800 C 197.373 302.800,197.600 303.178,197.600 303.800 C 197.600 304.350,197.780 304.800,198.000 304.800 C 198.220 304.800,198.400 305.250,198.400 305.800 C 198.400 306.422,198.627 306.800,199.000 306.800 C 199.373 306.800,199.600 307.178,199.600 307.800 C 199.600 308.350,199.780 308.800,200.000 308.800 C 200.220 308.800,200.400 309.231,200.400 309.757 C 200.400 310.284,200.670 310.818,201.000 310.945 C 201.330 311.071,201.600 311.541,201.600 311.987 C 201.600 312.434,201.780 312.800,202.000 312.800 C 202.220 312.800,202.400 313.250,202.400 313.800 C 202.400 314.350,202.580 314.800,202.800 314.800 C 203.020 314.800,203.200 315.166,203.200 315.613 C 203.200 316.059,203.470 316.529,203.800 316.655 C 204.130 316.782,204.400 317.226,204.400 317.643 C 204.400 318.059,204.580 318.400,204.800 318.400 C 205.020 318.400,205.200 318.850,205.200 319.400 C 205.200 320.022,205.427 320.400,205.800 320.400 C 206.173 320.400,206.400 320.778,206.400 321.400 C 206.400 321.950,206.580 322.400,206.800 322.400 C 207.020 322.400,207.200 322.850,207.200 323.400 C 207.200 324.022,207.427 324.400,207.800 324.400 C 208.173 324.400,208.400 324.778,208.400 325.400 C 208.400 325.950,208.580 326.400,208.800 326.400 C 209.020 326.400,209.200 326.850,209.200 327.400 C 209.200 327.950,209.360 328.400,209.557 328.400 C 209.753 328.400,210.026 328.850,210.164 329.400 C 210.302 329.950,210.592 330.400,210.808 330.400 C 211.023 330.400,211.200 330.724,211.200 331.120 C 211.200 332.736,211.694 332.800,224.280 332.800 L 236.400 332.800 236.400 331.387 C 236.400 330.501,236.177 329.889,235.800 329.745 C 235.470 329.618,235.200 329.261,235.200 328.952 C 235.200 328.438,234.845 327.609,233.937 326.000 C 233.751 325.670,233.437 325.033,233.241 324.584 C 233.044 324.135,232.595 323.527,232.242 323.235 C 231.889 322.942,231.600 322.358,231.600 321.938 C 231.600 321.519,231.330 321.071,231.000 320.945 C 230.670 320.818,230.400 320.384,230.400 319.981 C 230.400 319.577,230.220 319.136,230.000 319.000 C 229.780 318.864,229.600 318.398,229.600 317.964 C 229.600 317.530,229.330 317.071,229.000 316.945 C 228.670 316.818,228.400 316.384,228.400 315.981 C 228.400 315.577,228.220 315.136,228.000 315.000 C 227.780 314.864,227.600 314.398,227.600 313.964 C 227.600 313.530,227.330 313.071,227.000 312.945 C 226.670 312.818,226.400 312.469,226.400 312.169 C 226.400 311.621,225.114 309.116,224.259 308.000 C 223.427 306.913,222.800 305.621,222.800 304.993 C 222.800 304.653,222.530 304.271,222.200 304.145 C 221.870 304.018,221.600 303.691,221.600 303.419 C 221.600 302.650,220.386 300.400,219.971 300.400 C 219.767 300.400,219.600 300.051,219.600 299.624 C 219.600 299.197,219.420 298.736,219.200 298.600 C 218.605 298.232,218.716 297.200,219.351 297.200 C 219.654 297.200,220.126 296.930,220.400 296.600 C 220.674 296.270,221.236 296.000,221.649 296.000 C 222.062 296.000,222.400 295.820,222.400 295.600 C 222.400 295.380,222.670 295.200,223.000 295.200 C 223.330 295.200,223.600 294.930,223.600 294.600 C 223.600 294.270,223.870 294.000,224.200 294.000 C 224.530 294.000,224.800 293.820,224.800 293.600 C 224.800 293.380,225.094 293.200,225.453 293.200 C 225.812 293.200,226.700 292.570,227.426 291.800 C 228.152 291.030,228.938 290.400,229.173 290.400 C 229.408 290.400,229.600 290.130,229.600 289.800 C 229.600 289.470,229.780 289.200,230.000 289.200 C 230.220 289.200,230.400 289.007,230.400 288.771 C 230.400 288.536,230.625 288.092,230.900 287.785 C 232.140 286.403,232.400 285.996,232.400 285.437 C 232.400 285.110,232.850 284.356,233.400 283.762 C 233.981 283.135,234.400 282.205,234.400 281.542 C 234.400 280.914,234.580 280.400,234.800 280.400 C 235.020 280.400,235.200 279.584,235.200 278.587 C 235.200 277.345,235.389 276.702,235.800 276.545 C 236.658 276.215,236.669 268.108,235.813 266.976 C 235.490 266.549,235.220 265.523,235.213 264.695 C 235.206 263.867,235.035 262.877,234.834 262.495 C 234.632 262.113,234.177 261.133,233.823 260.317 C 233.469 259.501,233.003 258.726,232.789 258.593 C 232.575 258.461,232.400 258.030,232.400 257.635 C 232.400 257.240,231.950 256.431,231.400 255.838 C 230.850 255.244,230.400 254.600,230.400 254.405 C 230.400 253.856,226.010 249.600,225.444 249.600 C 225.166 249.600,224.517 249.150,224.000 248.600 C 223.483 248.050,222.751 247.600,222.373 247.600 C 221.995 247.600,221.582 247.330,221.455 247.000 C 221.329 246.670,220.947 246.400,220.607 246.400 C 220.267 246.400,219.632 246.220,219.195 246.000 C 218.758 245.780,218.042 245.420,217.605 245.200 C 217.168 244.980,216.380 244.800,215.854 244.800 C 215.328 244.800,214.674 244.530,214.400 244.200 C 213.968 243.679,210.820 243.600,190.551 243.600 L 167.200 243.600 167.200 288.200 M250.184 244.100 C 250.080 244.375,250.040 264.400,250.097 288.600 L 250.200 332.600 272.132 332.600 C 292.559 332.600,294.100 332.552,294.577 331.900 C 294.876 331.491,295.610 331.200,296.344 331.200 C 297.035 331.200,297.600 331.020,297.600 330.800 C 297.600 330.580,298.050 330.400,298.600 330.400 C 299.222 330.400,299.600 330.173,299.600 329.800 C 299.600 329.427,299.978 329.200,300.600 329.200 C 301.150 329.200,301.600 329.020,301.600 328.800 C 301.600 328.580,301.870 328.400,302.200 328.400 C 302.530 328.400,302.800 328.207,302.800 327.971 C 302.800 327.400,303.825 326.400,304.411 326.400 C 305.021 326.400,307.600 323.821,307.600 323.211 C 307.600 322.625,308.600 321.600,309.171 321.600 C 309.407 321.600,309.600 321.150,309.600 320.600 C 309.600 320.050,309.780 319.600,310.000 319.600 C 310.220 319.600,310.400 319.150,310.400 318.600 C 310.400 317.978,310.627 317.600,311.000 317.600 C 311.373 317.600,311.600 317.222,311.600 316.600 C 311.600 316.050,311.780 315.600,312.000 315.600 C 312.222 315.600,312.400 314.533,312.400 313.200 C 312.400 311.867,312.578 310.800,312.800 310.800 C 313.025 310.800,313.200 309.675,313.200 308.224 C 313.200 306.807,313.020 305.536,312.800 305.400 C 312.580 305.264,312.400 304.441,312.400 303.571 C 312.400 301.973,312.322 301.727,311.007 299.200 C 310.607 298.430,310.045 297.348,309.758 296.795 C 309.138 295.602,303.880 290.400,303.293 290.400 C 303.068 290.400,302.460 289.953,301.942 289.407 C 301.424 288.861,300.696 288.411,300.324 288.407 C 299.952 288.403,299.536 288.220,299.400 288.000 C 299.264 287.780,298.758 287.579,298.276 287.554 C 297.600 287.518,297.559 287.466,298.100 287.324 C 298.485 287.224,298.800 286.975,298.800 286.771 C 298.800 286.567,299.250 286.400,299.800 286.400 C 300.350 286.400,300.800 286.207,300.800 285.971 C 300.800 285.505,301.785 284.400,302.200 284.400 C 302.615 284.400,303.600 283.295,303.600 282.829 C 303.600 282.593,303.793 282.400,304.029 282.400 C 304.495 282.400,305.600 281.415,305.600 281.000 C 305.600 280.585,306.705 279.600,307.171 279.600 C 307.407 279.600,307.600 279.150,307.600 278.600 C 307.600 278.050,307.780 277.600,308.000 277.600 C 308.220 277.600,308.400 277.150,308.400 276.600 C 308.400 275.978,308.627 275.600,309.000 275.600 C 309.373 275.600,309.600 275.222,309.600 274.600 C 309.600 274.050,309.780 273.600,310.000 273.600 C 310.248 273.600,310.400 271.475,310.400 268.024 C 310.400 264.737,310.236 262.346,310.000 262.200 C 309.780 262.064,309.600 261.418,309.600 260.764 C 309.600 260.076,309.347 259.478,309.000 259.345 C 308.670 259.218,308.400 258.784,308.400 258.381 C 308.400 257.977,308.220 257.536,308.000 257.400 C 307.780 257.264,307.600 256.824,307.600 256.422 C 307.600 256.021,307.150 255.397,306.600 255.037 C 306.050 254.676,305.600 254.052,305.600 253.649 C 305.600 252.969,302.225 249.600,301.544 249.600 C 301.378 249.600,300.756 249.150,300.162 248.600 C 299.569 248.050,298.749 247.600,298.342 247.600 C 297.934 247.600,297.600 247.433,297.600 247.229 C 297.600 246.666,295.221 245.600,293.962 245.600 C 293.349 245.600,292.736 245.420,292.600 245.200 C 292.464 244.980,291.843 244.800,291.219 244.800 C 290.581 244.800,289.985 244.538,289.855 244.200 C 289.541 243.380,250.496 243.282,250.184 244.100 M317.600 245.394 C 317.600 246.387,317.780 247.200,318.000 247.200 C 318.220 247.200,318.400 247.470,318.400 247.800 C 318.400 248.130,318.670 248.400,319.000 248.400 C 319.338 248.400,319.600 248.758,319.600 249.218 C 319.600 249.668,320.050 250.486,320.600 251.036 C 321.150 251.586,321.600 252.258,321.600 252.530 C 321.600 252.801,321.960 253.283,322.400 253.600 C 322.840 253.917,323.200 254.587,323.200 255.088 C 323.200 255.632,323.442 256.000,323.800 256.000 C 324.130 256.000,324.400 256.270,324.400 256.600 C 324.400 256.930,324.580 257.200,324.800 257.200 C 325.020 257.200,325.200 257.476,325.200 257.813 C 325.200 258.149,325.470 258.529,325.800 258.655 C 326.130 258.782,326.400 259.071,326.400 259.297 C 326.400 259.523,326.850 260.125,327.400 260.635 C 327.950 261.145,328.400 261.840,328.400 262.181 C 328.400 262.521,328.580 262.800,328.800 262.800 C 329.020 262.800,329.200 263.070,329.200 263.400 C 329.200 263.730,329.380 264.000,329.600 264.000 C 329.820 264.000,330.000 264.335,330.000 264.744 C 330.000 265.153,330.450 265.826,331.000 266.239 C 331.551 266.653,332.000 267.396,332.000 267.895 C 332.000 268.393,332.193 268.800,332.429 268.800 C 333.071 268.800,334.000 269.855,334.000 270.584 C 334.000 270.937,334.270 271.329,334.600 271.455 C 334.930 271.582,335.200 271.859,335.200 272.071 C 335.200 272.590,336.238 273.600,336.771 273.600 C 337.007 273.600,337.200 274.050,337.200 274.600 C 337.200 275.150,337.380 275.600,337.600 275.600 C 337.820 275.600,338.000 275.870,338.000 276.200 C 338.000 276.530,338.180 276.800,338.400 276.800 C 338.620 276.800,338.800 277.160,338.800 277.600 C 338.800 278.044,339.067 278.400,339.400 278.400 C 339.730 278.400,340.000 278.670,340.000 279.000 C 340.000 279.330,340.180 279.600,340.400 279.600 C 340.620 279.600,340.800 279.935,340.800 280.344 C 340.800 280.753,341.250 281.426,341.800 281.839 C 342.350 282.252,342.800 282.882,342.800 283.239 C 342.800 283.596,343.250 284.226,343.800 284.639 C 344.350 285.052,344.800 285.617,344.800 285.895 C 344.800 286.173,344.980 286.400,345.200 286.400 C 345.420 286.400,345.600 286.662,345.600 286.982 C 345.600 287.302,346.050 288.014,346.600 288.564 L 347.600 289.564 347.600 310.638 C 347.600 330.239,347.649 331.749,348.300 332.243 C 348.840 332.653,351.403 332.777,359.500 332.787 L 370.000 332.800 370.000 311.600 C 370.000 297.733,370.138 290.400,370.400 290.400 C 370.620 290.400,370.800 290.149,370.800 289.843 C 370.800 289.536,371.070 289.182,371.400 289.055 C 371.730 288.929,372.000 288.537,372.000 288.184 C 372.000 287.455,372.929 286.400,373.571 286.400 C 373.807 286.400,374.000 285.993,374.000 285.495 C 374.000 284.996,374.449 284.253,375.000 283.839 C 375.550 283.426,376.000 282.753,376.000 282.344 C 376.000 281.935,376.180 281.600,376.400 281.600 C 376.620 281.600,376.800 281.330,376.800 281.000 C 376.800 280.670,376.968 280.400,377.173 280.400 C 377.378 280.400,377.674 279.995,377.830 279.500 C 377.987 279.005,378.449 278.309,378.857 277.953 C 379.266 277.597,379.600 277.102,379.600 276.853 C 379.600 276.604,379.870 276.400,380.200 276.400 C 380.533 276.400,380.800 276.044,380.800 275.600 C 380.800 275.160,380.980 274.800,381.200 274.800 C 381.420 274.800,381.600 274.530,381.600 274.200 C 381.600 273.870,381.870 273.600,382.200 273.600 C 382.557 273.600,382.800 273.233,382.800 272.695 C 382.800 272.196,383.249 271.453,383.800 271.039 C 384.350 270.626,384.800 269.993,384.800 269.632 C 384.800 269.272,385.160 268.717,385.600 268.400 C 386.040 268.083,386.400 267.413,386.400 266.912 C 386.400 266.368,386.642 266.000,387.000 266.000 C 387.330 266.000,387.600 265.773,387.600 265.495 C 387.600 265.217,388.050 264.652,388.600 264.239 C 389.150 263.826,389.600 263.153,389.600 262.744 C 389.600 262.335,389.780 262.000,390.000 262.000 C 390.220 262.000,390.400 261.730,390.400 261.400 C 390.400 261.070,390.670 260.800,391.000 260.800 C 391.333 260.800,391.600 260.444,391.600 260.000 C 391.600 259.560,391.780 259.200,392.000 259.200 C 392.220 259.200,392.400 258.930,392.400 258.600 C 392.400 258.270,392.568 258.000,392.773 258.000 C 392.978 258.000,393.274 257.595,393.430 257.100 C 393.587 256.605,394.049 255.909,394.457 255.553 C 394.866 255.197,395.200 254.522,395.200 254.053 C 395.200 253.584,395.393 253.200,395.629 253.200 C 396.182 253.200,397.200 252.182,397.200 251.629 C 397.200 251.393,397.470 251.200,397.800 251.200 C 398.158 251.200,398.400 250.832,398.400 250.288 C 398.400 249.787,398.760 249.117,399.200 248.800 C 399.841 248.338,400.000 247.765,400.000 245.912 L 400.000 243.600 388.000 243.600 C 379.733 243.600,376.000 243.733,376.000 244.029 C 376.000 244.582,374.982 245.600,374.429 245.600 C 374.193 245.600,374.000 246.007,374.000 246.505 C 374.000 247.004,373.551 247.747,373.000 248.161 C 372.450 248.574,372.000 249.247,372.000 249.656 C 372.000 250.065,371.820 250.400,371.600 250.400 C 371.380 250.400,371.200 250.670,371.200 251.000 C 371.200 251.330,370.995 251.600,370.744 251.600 C 370.129 251.600,369.228 252.835,369.213 253.700 C 369.206 254.085,369.020 254.400,368.800 254.400 C 368.580 254.400,368.400 254.850,368.400 255.400 C 368.400 255.950,368.207 256.400,367.971 256.400 C 367.418 256.400,366.400 257.418,366.400 257.971 C 366.400 258.207,366.223 258.400,366.008 258.400 C 365.792 258.400,365.511 258.815,365.384 259.323 C 365.256 259.831,364.713 260.576,364.176 260.979 C 363.639 261.382,363.200 262.007,363.200 262.368 C 363.200 262.728,362.840 263.283,362.400 263.600 C 361.960 263.917,361.600 264.503,361.600 264.901 C 361.600 265.299,361.330 265.729,361.000 265.855 C 360.670 265.982,360.400 266.336,360.400 266.643 C 360.400 266.949,360.220 267.200,360.000 267.200 C 359.780 267.200,359.600 267.574,359.600 268.030 C 359.600 269.094,357.260 267.448,357.222 266.358 C 357.210 266.006,356.750 265.231,356.200 264.638 C 355.650 264.044,355.200 263.372,355.200 263.143 C 355.200 262.754,354.811 262.192,352.500 259.236 C 352.005 258.603,351.597 257.840,351.593 257.542 C 351.589 257.244,351.139 256.576,350.593 256.058 C 350.047 255.540,349.600 254.910,349.599 254.658 C 349.599 254.406,348.879 253.523,347.999 252.695 C 347.120 251.867,346.396 250.967,346.391 250.695 C 346.386 250.423,346.030 249.750,345.600 249.200 C 345.170 248.650,344.814 248.006,344.809 247.770 C 344.804 247.533,344.360 246.926,343.821 246.420 C 343.283 245.914,342.788 245.118,342.721 244.650 C 342.601 243.807,342.503 243.799,330.100 243.694 L 317.600 243.589 317.600 245.394 M207.400 264.400 C 207.536 264.620,208.082 264.800,208.613 264.800 C 209.688 264.800,213.200 268.024,213.200 269.011 C 213.200 269.335,213.380 269.600,213.600 269.600 C 213.820 269.600,214.000 270.590,214.000 271.800 C 214.000 273.010,213.820 274.000,213.600 274.000 C 213.380 274.000,213.200 274.368,213.200 274.817 C 213.200 275.579,212.977 275.962,211.700 277.385 C 211.425 277.692,211.200 278.136,211.200 278.371 C 211.200 278.607,210.930 278.800,210.600 278.800 C 210.270 278.800,210.000 278.980,210.000 279.200 C 210.000 279.420,209.454 279.600,208.787 279.600 C 208.079 279.600,207.479 279.849,207.345 280.200 C 207.150 280.708,205.772 280.800,198.357 280.800 L 189.600 280.800 189.600 272.400 L 189.600 264.000 198.376 264.000 C 203.796 264.000,207.247 264.153,207.400 264.400 M281.600 264.400 C 281.600 264.620,282.230 264.800,283.000 264.800 C 283.770 264.800,284.400 264.993,284.400 265.229 C 284.400 265.782,285.418 266.800,285.971 266.800 C 286.207 266.800,286.400 267.070,286.400 267.400 C 286.400 267.730,286.580 268.000,286.800 268.000 C 287.020 268.000,287.200 268.630,287.200 269.400 C 287.200 270.462,287.369 270.803,287.900 270.812 C 288.567 270.824,288.567 270.844,287.900 271.232 C 287.484 271.475,287.200 272.118,287.200 272.820 C 287.200 273.469,287.020 274.000,286.800 274.000 C 286.580 274.000,286.400 274.450,286.400 275.000 C 286.400 275.550,286.170 276.000,285.888 276.000 C 285.607 276.000,285.117 276.360,284.800 276.800 C 284.483 277.240,283.897 277.600,283.499 277.600 C 283.101 277.600,282.671 277.870,282.545 278.200 C 282.357 278.689,281.395 278.800,277.357 278.800 L 272.400 278.800 272.400 271.400 L 272.400 264.000 277.000 264.000 C 279.800 264.000,281.600 264.157,281.600 264.400 M37.745 265.400 C 37.879 265.751,38.479 266.000,39.187 266.000 C 39.854 266.000,40.400 266.180,40.400 266.400 C 40.400 266.620,40.831 266.800,41.357 266.800 C 41.884 266.800,42.418 267.070,42.545 267.400 C 42.671 267.730,43.058 268.000,43.404 268.000 C 43.750 268.000,44.420 268.360,44.892 268.800 C 45.364 269.240,46.077 269.600,46.475 269.600 C 46.874 269.600,47.200 269.870,47.200 270.200 C 47.200 270.530,47.393 270.800,47.629 270.800 C 48.286 270.800,49.200 271.862,49.200 272.626 C 49.200 273.001,49.650 273.725,50.200 274.235 C 50.750 274.745,51.200 275.440,51.200 275.781 C 51.200 276.121,51.380 276.400,51.600 276.400 C 51.820 276.400,52.000 276.670,52.000 277.000 C 52.000 277.330,52.270 277.600,52.600 277.600 C 53.019 277.600,53.200 278.022,53.200 279.000 C 53.200 279.770,53.380 280.400,53.600 280.400 C 53.820 280.400,54.000 281.216,54.000 282.213 C 54.000 283.455,54.189 284.098,54.600 284.255 C 55.077 284.439,55.200 285.294,55.200 288.443 C 55.200 291.694,55.093 292.400,54.600 292.400 C 54.147 292.400,54.000 292.889,54.000 294.400 C 54.000 295.500,53.820 296.400,53.600 296.400 C 53.380 296.400,53.200 296.850,53.200 297.400 C 53.200 298.022,52.973 298.400,52.600 298.400 C 52.227 298.400,52.000 298.778,52.000 299.400 C 52.000 299.950,51.820 300.400,51.600 300.400 C 51.380 300.400,51.200 300.673,51.200 301.007 C 51.200 301.341,50.570 302.226,49.800 302.974 C 49.030 303.721,48.400 304.528,48.400 304.767 C 48.400 305.005,48.207 305.200,47.971 305.200 C 47.418 305.200,46.400 306.218,46.400 306.771 C 46.400 307.007,46.130 307.200,45.800 307.200 C 45.470 307.200,45.200 307.380,45.200 307.600 C 45.200 307.820,44.973 308.000,44.696 308.000 C 44.419 308.000,43.707 308.450,43.113 309.000 C 42.454 309.611,41.562 310.000,40.817 310.000 C 40.148 310.000,39.600 310.180,39.600 310.400 C 39.600 310.620,38.964 310.800,38.187 310.800 C 37.301 310.800,36.689 311.023,36.545 311.400 C 36.352 311.903,35.128 312.000,28.957 312.000 L 21.600 312.000 21.600 288.400 L 21.600 264.800 29.557 264.800 C 36.261 264.800,37.551 264.894,37.745 265.400 M280.600 297.600 C 280.736 297.820,281.647 298.000,282.624 298.000 C 283.936 298.000,284.400 298.157,284.400 298.600 C 284.400 298.933,284.756 299.200,285.200 299.200 C 287.218 299.200,289.200 302.173,289.200 305.200 C 289.200 306.800,289.029 308.000,288.800 308.000 C 288.580 308.000,288.400 308.270,288.400 308.600 C 288.400 308.930,288.226 309.200,288.013 309.200 C 287.801 309.200,286.997 309.830,286.227 310.600 C 285.457 311.370,284.461 312.000,284.013 312.000 C 283.566 312.000,283.200 312.180,283.200 312.400 C 283.200 312.647,281.133 312.800,277.800 312.800 L 272.400 312.800 272.400 305.000 L 272.400 297.200 276.376 297.200 C 278.596 297.200,280.462 297.377,280.600 297.600 " stroke="none" fill="#000000" fill-rule="evenodd"></path></g></svg>