<svg xmlns="http://www.w3.org/2000/svg" width="400" height="400" viewBox="0, 0, 400,400"><g><path d="M46.522 150.964 C 46.011 151.529,43.738 155.548,41.471 159.895 C 35.722 170.921,37.614 170.063,19.045 170.063 L 4.025 170.063 4.025 182.138 C 4.025 191.451,4.169 194.219,4.654 194.238 C 5.000 194.251,8.650 194.240,12.765 194.215 C 20.301 194.167,22.138 194.585,22.138 196.347 C 22.138 196.604,18.063 204.594,13.082 214.102 L 4.025 231.389 4.025 240.223 L 4.025 249.057 12.994 249.057 C 23.814 249.057,22.570 249.890,28.417 238.718 C 33.985 228.077,32.047 228.938,50.440 228.934 L 65.409 228.931 65.409 216.604 L 65.409 204.277 56.873 204.277 C 45.404 204.277,45.452 206.163,56.393 185.274 L 65.409 168.062 65.409 159.000 L 65.409 149.937 56.430 149.937 C 48.029 149.937,47.392 150.003,46.522 150.964 M126.667 155.403 C 123.176 161.998,123.196 161.509,126.415 161.512 C 133.784 161.520,137.850 165.477,137.859 172.647 C 137.866 178.728,133.604 182.642,126.975 182.642 L 123.291 182.642 123.155 172.495 L 123.019 162.349 116.604 174.626 L 110.189 186.904 110.189 190.863 L 110.189 194.822 122.138 194.595 C 132.392 194.401,134.492 194.227,136.933 193.369 C 157.480 186.144,155.667 154.962,134.441 150.498 C 129.657 149.492,129.865 149.361,126.667 155.403 M154.465 172.327 L 154.465 194.717 171.572 194.717 L 188.679 194.717 188.679 188.679 L 188.679 182.642 178.365 182.642 L 168.050 182.642 168.050 180.388 L 168.050 178.135 177.484 177.999 L 186.918 177.862 187.061 172.201 L 187.203 166.541 177.627 166.541 L 168.050 166.541 168.050 164.277 L 168.050 162.013 178.365 162.013 L 188.679 162.013 188.679 155.975 L 188.679 149.937 171.572 149.937 L 154.465 149.937 154.465 172.327 M191.943 150.552 C 192.066 150.906,194.452 160.818,197.245 172.579 C 200.038 184.340,202.498 194.139,202.711 194.354 C 202.924 194.570,206.212 194.683,210.018 194.606 L 216.937 194.465 228.270 172.860 C 234.503 160.977,239.716 150.958,239.855 150.596 C 240.056 150.072,238.674 149.938,233.136 149.940 L 226.164 149.942 219.371 163.009 C 215.635 170.196,212.465 176.080,212.327 176.085 C 212.189 176.090,210.702 170.266,209.024 163.142 L 205.972 150.189 198.846 150.049 C 193.235 149.939,191.767 150.046,191.943 150.552 M242.516 172.327 L 242.516 194.717 249.308 194.717 L 256.101 194.717 256.101 172.327 L 256.101 149.937 249.308 149.937 L 242.516 149.937 242.516 172.327 M278.828 155.597 C 271.474 169.471,258.616 194.191,258.616 194.455 C 258.616 194.615,261.730 194.682,265.535 194.605 L 272.453 194.465 274.116 191.321 L 275.779 188.176 283.495 188.176 L 291.212 188.176 291.546 189.560 C 291.729 190.321,292.104 191.799,292.378 192.844 L 292.877 194.745 299.772 194.605 C 303.993 194.520,306.643 194.270,306.605 193.962 C 306.571 193.686,304.207 183.667,301.352 171.698 L 296.160 149.937 288.994 149.937 L 281.829 149.937 278.828 155.597 M309.051 172.201 L 309.182 194.465 315.839 194.606 L 322.496 194.746 322.632 183.625 L 322.767 172.503 330.823 183.484 L 338.879 194.465 344.786 194.607 L 350.692 194.749 350.692 172.343 L 350.692 149.937 343.910 149.937 L 337.127 149.937 336.991 160.174 L 336.855 170.410 329.651 160.174 L 322.447 149.937 315.684 149.937 L 308.920 149.937 309.051 172.201 M353.208 155.975 L 353.208 162.013 359.497 162.013 L 365.786 162.013 365.786 178.386 L 365.786 194.759 369.680 194.612 L 373.574 194.465 376.441 189.182 L 379.308 183.899 379.340 172.956 L 379.371 162.013 385.031 162.002 L 390.692 161.992 393.848 155.964 L 397.004 149.937 375.106 149.937 L 353.208 149.937 353.208 155.975 M287.628 172.830 L 288.670 177.107 285.173 177.107 C 283.250 177.107,281.757 176.937,281.855 176.730 C 283.284 173.691,286.075 168.553,286.297 168.553 C 286.456 168.553,287.055 170.478,287.628 172.830 M99.733 206.905 C 97.155 211.501,77.987 248.354,77.987 248.714 C 77.987 248.902,81.109 249.057,84.923 249.057 L 91.859 249.057 93.472 245.786 L 95.085 242.516 102.801 242.516 L 110.517 242.516 111.243 245.660 L 111.969 248.805 118.877 248.945 C 125.221 249.074,125.785 249.012,125.771 248.190 C 125.763 247.698,123.442 237.673,120.614 225.912 L 115.471 204.528 108.346 204.389 L 101.221 204.250 99.733 206.905 M128.302 226.629 L 128.302 249.057 135.094 249.057 L 141.887 249.057 141.887 242.491 L 141.887 235.925 144.749 236.076 L 147.611 236.226 150.777 242.642 L 153.942 249.057 161.036 249.057 L 168.130 249.057 164.049 241.273 L 159.969 233.490 161.888 231.571 C 168.027 225.432,167.685 214.064,161.188 208.345 C 157.251 204.880,155.908 204.614,141.258 204.395 L 128.302 204.202 128.302 226.629 M168.050 210.314 L 168.050 216.352 174.340 216.352 L 180.629 216.352 180.629 232.704 L 180.629 249.057 184.528 249.048 L 188.428 249.040 191.334 243.388 L 194.240 237.736 194.227 227.044 L 194.214 216.352 199.874 216.344 L 205.535 216.336 208.450 210.683 C 210.054 207.575,211.356 204.862,211.343 204.654 C 211.331 204.447,201.585 204.277,189.686 204.277 L 168.050 204.277 168.050 210.314 M151.491 217.792 C 154.533 221.548,151.977 224.906,146.076 224.906 L 141.887 224.906 141.887 220.577 L 141.887 216.249 146.208 216.426 C 150.028 216.583,150.641 216.742,151.491 217.792 M106.849 227.022 C 107.980 231.653,108.094 231.447,104.403 231.447 C 100.524 231.447,100.616 231.815,103.270 226.906 C 105.695 222.423,105.726 222.424,106.849 227.022 " stroke="none" fill-rule="evenodd"></path></g></svg>