<svg xmlns="http://www.w3.org/2000/svg" width="400" height="400" viewBox="0, 0, 400,400">
<g>
<path d="M250.180 16.349 C 229.554 24.485,217.070 29.646,216.716 30.183 C 216.406 30.653,207.647 46.581,197.251 65.578 L 178.349 100.117 118.813 100.235 L 59.277 100.354 59.277 140.956 L 59.277 181.559 101.713 181.678 L 144.150 181.797 111.539 260.519 L 78.928 339.240 88.265 367.246 L 97.602 395.252 98.859 394.889 C 105.737 392.900,160.956 375.995,161.462 375.723 C 161.829 375.526,171.725 356.806,183.454 334.123 L 204.778 292.882 230.393 292.598 C 244.482 292.442,274.519 292.284,297.141 292.248 C 319.764 292.212,338.929 292.051,339.732 291.890 L 341.190 291.599 341.190 248.716 L 341.190 205.834 291.015 205.834 C 263.419 205.834,240.840 205.718,240.840 205.577 C 240.840 205.435,254.596 174.555,271.410 136.954 L 301.979 68.588 292.824 36.511 C 287.789 18.869,283.537 4.195,283.375 3.902 C 283.179 3.547,272.131 7.690,250.180 16.349 " stroke="none" fill-rule="evenodd"></path>
</g>
</svg>