<svg width="100%" height="100%" viewBox="0 0 400 400" version="1.1" xmlns="http://www.w3.org/2000/svg" style="fill-rule:evenodd;clip-rule:evenodd;stroke-linejoin:round;stroke-miterlimit:2;">
<g>
<path d="M218.5,15.944C202.905,17.124 185.448,21.603 170.792,26.624C101.211,50.463 40.555,108.848 20.464,180.625C16.984,193.059 12.834,218.184 13.098,231.918C14.219,290.338 51.186,344.169 108,360.991C129.241,367.28 152.581,369.056 174.628,367.934C198.388,366.725 222.855,359.104 244.373,349.58C306.847,321.929 354.348,269.797 375.995,205C382.15,186.576 384.39,165.743 383.469,146.425C381.313,101.174 360.709,64.012 323.708,38.986C316.412,34.051 313.338,31.005 304.764,27.878C276.85,17.696 248.209,13.697 218.5,15.944M265,30.434C309.736,38.807 350.693,67.333 363.966,112.845C368.637,128.862 370.328,145.498 369.517,162.144C368.644,180.05 364.976,199.089 357.881,215.723C352.796,227.645 346.851,239.057 340.341,250.25C331.882,264.795 318.535,278.521 307.214,290.369C300.046,297.871 287.265,307.054 281.079,312C237.456,346.878 173.397,364.735 119,349.818C105.004,345.98 84.395,338.322 73.387,328C58.638,314.17 47.673,303.841 39.223,285.91C21.36,248.005 25.019,199.463 41.28,161.732C48.997,143.825 55.507,136.476 66.702,119.7C74.513,107.996 83.856,99.344 94.442,88.821C116.634,66.758 146.431,48.86 176,39.028C186.431,35.56 197.278,33.483 208,31.059C226.109,26.965 246.797,27.027 265,30.434M207,37.62C191.525,40.91 176.615,44.099 162,50.656C101.316,77.88 54.589,128.178 38.283,193.5C36.036,202.502 35.386,217.61 35.322,226.39C35.232,238.892 35.768,252.289 39.987,264.261C44.648,277.491 50.739,291.893 60,302.633C69.881,314.091 81.803,324.959 95.143,332.34C123.17,347.847 159.761,350.668 190.869,345.512C268.279,332.684 337.058,271.423 357.474,195.535C361.446,180.771 362.456,166.313 361.77,151.058C361.046,134.935 358.934,123.04 353.539,108C336.082,59.331 284.112,36.346 235.58,36.013C226.038,35.948 216.333,35.636 207,37.62M236.507,86.351C244.935,90.277 247.408,97.122 252.75,104.167C261.841,116.156 261.933,115.891 270.944,128C278.199,137.748 285.07,147.86 292,157.845C294.959,162.109 298.731,165.835 301.231,170.384C305.567,178.275 304.441,190.656 300.948,198.595C295.696,210.528 273.77,224.946 267.512,230.013C259.375,236.601 251.189,243.127 243.012,249.666C230.482,259.686 218.23,270.066 205.402,279.689C204.665,280.242 188.593,293.892 182.342,296.294C167.473,302.005 149.183,297.907 146.895,279.785C146.371,275.629 146.745,271.267 147.977,267.263C149.315,262.915 151.703,258.876 154.447,255.247C157.626,251.042 161.639,247.518 165.566,244C187.918,223.977 160.986,226 131.015,226L75.031,226L75.6,219.75C76.804,206.518 85.436,179.165 91.857,168.236L94.64,163.5L149.82,163.242C168.219,163.155 187.248,166.738 205,161.903C209.481,160.683 199.901,154.138 197.25,150.324C192.974,144.173 183.935,135.221 184.03,126.407C184.273,103.969 213.387,75.585 236.507,86.351"/>
</g>
</svg>
