<svg
   xmlns="http://www.w3.org/2000/svg"
   viewBox="0 0 652 652"
   version="1.1">
<path
   style="stroke-width:1.05051172"
   d="m 114.95297,244.74333 c -0.94546,0 -1.78505,0.73453 -1.78505,1.78505 v 17.8587 c 0,0.94546 0.83959,1.78709 1.78505,1.78709 h 19.95972 c 0.94546,0 1.78505,-0.73658 1.78505,-1.78709 v -17.8587 c 0,-0.94546 -0.83959,-1.78505 -1.78505,-1.78505 z m -55.677125,25.63289 c -0.945461,0 -1.78505,0.73454 -1.78505,1.78505 v 17.8587 c 0.105051,0.94546 0.839589,1.78505 1.78505,1.78505 h 19.959723 c 0.945461,0 1.78505,-0.83959 1.78505,-1.78505 v -17.8587 c 0,-0.94546 -0.734538,-1.78505 -1.78505,-1.78505 z m 28.047843,0 c -0.94546,0 -1.785049,0.73454 -1.785049,1.78505 v 17.8587 c 0,0.94546 0.734537,1.78505 1.785049,1.78505 h 19.959722 c 0.94546,0 1.7871,-0.83959 1.7871,-1.78505 v -17.8587 c 0,-0.94546 -0.73659,-1.78505 -1.7871,-1.78505 z m 27.629282,0 c -0.94546,0 -1.78505,0.73454 -1.78505,1.78505 v 17.8587 c 0,0.94546 0.83959,1.78505 1.78505,1.78505 h 19.95972 c 0.94546,0 1.78505,-0.83959 1.78505,-1.78505 v -17.8587 c 0,-0.94546 -0.83959,-1.78505 -1.78505,-1.78505 z m 72.69459,5.67113 -2.10102,3.04689 c -2.62628,4.097 -4.62226,8.72007 -5.77782,13.44737 -2.20607,9.13945 -0.83877,17.75406 3.78348,25.10764 -5.56771,3.15154 -14.60334,3.88567 -16.49426,3.99072 H 17.885271 c -3.886893,0 -7.037607,3.15276 -7.037607,7.03965 -0.210103,13.02635 1.995151,26.0527 6.512351,38.34368 5.147507,13.44655 12.815834,23.42601 22.690644,29.51897 11.135425,6.82833 29.309688,10.7144 49.794667,10.7144 9.244505,0 18.489824,-0.84081 27.629274,-2.52163 12.7112,-2.31113 24.89754,-6.72328 36.13802,-13.1314 9.2445,-5.35761 17.54191,-12.18512 24.58033,-20.16901 11.87079,-13.3415 18.90963,-28.25876 24.05713,-41.49521 h 2.10103 c 12.92129,0 20.90477,-5.1471 25.31692,-9.55925 2.94143,-2.73133 5.14792,-6.09338 6.72368,-9.87522 l 0.94588,-2.73092 -2.20567,-1.57577 c -0.63031,-0.52525 -6.30266,-4.83194 -18.4886,-4.83194 -3.15153,0 -6.40976,0.31392 -9.56129,0.83918 -2.31113,-16.07283 -15.65099,-23.84621 -16.17624,-24.26641 z M 307.19662,292.121 c -3.36164,-0.10506 -6.09338,2.52122 -6.19843,5.77781 v 0.42061 29.83495 c -14.39201,-11.55563 -35.50607,-9.24614 -47.0617,5.14587 -4.7273,5.98791 -7.35358,13.3415 -7.35358,21.01023 -0.31516,18.48901 14.39078,33.72184 32.87979,34.03699 18.489,0.31516 33.72183,-14.39078 34.03699,-32.87979 v -1.1572 -55.99105 c 0,-1.68081 -0.62949,-3.25781 -1.78505,-4.41337 -1.26062,-1.15557 -2.8372,-1.78505 -4.51802,-1.78505 z m 156.63089,0 c -3.46669,0 -6.19802,2.73174 -6.30307,6.19842 v 0.10465 82.99043 c 0,1.68081 0.63154,3.25576 1.7871,4.41133 1.15556,1.26061 2.73051,1.89174 4.41133,1.89174 1.68082,0 3.25577,-0.63113 4.41133,-1.89174 1.15556,-1.15557 1.89215,-2.73052 1.7871,-4.41133 V 359.879 l 7.24894,-4.7273 27.62723,30.9901 c 1.15556,1.05051 2.62628,1.68082 4.20205,1.57577 0.8404,0 1.68163,-0.10506 2.41699,-0.52526 0.73536,-0.31515 1.36608,-0.73618 1.99638,-1.36648 0.52526,-0.63031 1.04929,-1.25898 1.36444,-1.99434 0.31515,-0.73536 0.52526,-1.57659 0.52526,-2.41699 0,-1.57577 -0.6299,-3.15113 -1.68041,-4.30669 l -25.6329,-28.88908 25.003,-16.28293 c 1.68082,-1.05051 2.52,-2.94266 2.41495,-4.93863 0,-0.84041 -0.2101,-1.67959 -0.52526,-2.41495 -0.31515,-0.73536 -0.83918,-1.36608 -1.36443,-1.99638 -0.52526,-0.52526 -1.26103,-1.05133 -1.99639,-1.36649 -0.73535,-0.31515 -1.57658,-0.52525 -2.41699,-0.52525 -1.15557,0 -2.31031,0.31556 -3.36082,0.94587 l -35.7174,23.2159 v -46.4318 c 0,-1.68082 -0.62949,-3.25577 -1.78505,-4.41133 -1.15556,-1.15557 -2.73256,-1.89174 -4.41338,-1.89174 z m -432.074253,3.78143 c -0.94546,0 -1.787101,0.73659 -1.787101,1.7871 v 17.8587 c 0.105051,1.05051 0.841641,1.78505 1.787101,1.78505 H 51.71298 c 0.945461,0 1.78505,-0.73454 1.78505,-1.78505 v -17.8587 c 0,-0.94546 -0.734538,-1.7871 -1.78505,-1.7871 z m 27.522588,0 c -0.945461,0 -1.78505,0.73659 -1.78505,1.7871 v 17.8587 c 0.105051,1.05051 0.839589,1.78505 1.78505,1.78505 h 19.959723 c 0.945461,0 1.78505,-0.73454 1.78505,-1.78505 v -17.8587 c 0,-0.94546 -0.734538,-1.7871 -1.78505,-1.7871 z m 28.047843,0 c -0.94546,0 -1.785049,0.73659 -1.785049,1.7871 v 17.8587 c 0,1.05051 0.734537,1.78505 1.785049,1.78505 h 19.959722 c 0.94546,0 1.7871,-0.73454 1.7871,-1.78505 v -17.8587 c 0,-0.94546 -0.73659,-1.7871 -1.7871,-1.7871 z m 27.629282,0 c -0.94546,0 -1.78505,0.73659 -1.78505,1.7871 v 17.8587 c 0,1.05051 0.83959,1.78505 1.78505,1.78505 h 19.95972 c 0.94546,0 1.78505,-0.73454 1.78505,-1.78505 v -17.8587 c 0,-0.94546 -0.73454,-1.7871 -1.78505,-1.7871 z m 27.83856,0 c -0.94546,0 -1.78505,0.73659 -1.78505,1.7871 v 17.8587 c 0.10505,1.05051 0.83959,1.78505 1.78505,1.78505 h 19.95972 c 0.94546,0 1.78505,-0.73454 1.78505,-1.78505 v -17.8587 c 0,-0.94546 -0.73454,-1.7871 -1.78505,-1.7871 z m 285.36166,24.68498 c -0.50273,-0.0113 -1.00865,-0.0111 -1.51421,0.002 -18.489,0 -33.50968,15.02273 -33.50968,33.51174 0,18.48901 14.91645,33.40668 33.3004,33.51173 8.08894,0 15.86314,-2.83761 21.95611,-8.09017 1.26061,-1.15556 1.99638,-2.83474 1.99638,-4.62061 0.10505,-3.36164 -2.52123,-6.09338 -5.77782,-6.19843 h -0.42061 c -1.47072,0 -2.8372,0.41939 -3.99276,1.2598 -1.89093,1.68082 -3.99195,2.94266 -6.30308,3.88812 -2.31112,0.84041 -4.83276,1.25979 -7.24894,1.25979 -2.83638,0 -5.56648,-0.52484 -8.19276,-1.6804 -2.52123,-1.05052 -4.72771,-2.6271 -6.72368,-4.51802 -8.194,-8.194 -8.19359,-21.42962 -0.10464,-29.62362 0.10505,0.21011 0.10464,0.2097 0.10464,0.10464 1.89092,-1.89092 4.20245,-3.4675 6.72368,-4.51802 2.62628,-1.05051 5.35638,-1.6804 8.19276,-1.6804 2.52123,0 4.93782,0.42143 7.24894,1.26184 2.31113,0.94546 4.5168,2.20525 6.40772,3.88607 1.15556,0.94546 2.62669,1.36649 4.0974,1.36649 1.68082,0.10505 3.36246,-0.52649 4.51802,-1.7871 1.15557,-1.15556 1.78505,-2.83515 1.78505,-4.51597 0,-1.78587 -0.73495,-3.57174 -2.20566,-4.72731 -5.61367,-5.02275 -12.79619,-7.92256 -20.33726,-8.09221 z m -74.73406,0.31802 c -8.56167,0 -17.12334,3.25536 -23.63651,9.76853 -6.30307,6.30307 -9.77058,14.81221 -9.77058,23.63651 -0.31515,18.48901 14.39283,33.72184 32.88184,34.03699 18.48901,0.31516 33.72184,-14.39078 34.03699,-32.87979 v -1.1572 c 0,-4.41215 -0.84082,-8.71843 -2.52164,-12.81542 -1.68082,-4.097 -4.20205,-7.77461 -7.35358,-10.82109 -6.51317,-6.51317 -15.07484,-9.76853 -23.63652,-9.76853 z m 197.0756,0 c -18.48901,0 -33.40668,14.91604 -33.51173,33.40504 0,18.48901 15.02272,33.51174 33.51173,33.51174 7.98389,0 15.7585,-2.83557 21.85146,-8.08812 l 0.20929,-0.21134 c 0.52525,-0.4202 1.05133,-0.94546 1.36648,-1.57576 1.99597,-2.94144 1.26062,-6.82669 -1.57577,-8.82266 -2.41617,-1.57577 -5.56853,-1.26144 -7.66955,0.73454 -0.2101,0.2101 -0.83918,0.73617 -0.83918,0.84122 l -0.10669,0.10465 c -1.78587,1.47071 -3.78102,2.7301 -5.9871,3.46546 -2.31113,0.84041 -4.72771,1.26225 -7.24894,1.1572 -2.31113,0 -4.51761,-0.31516 -6.72369,-1.05051 -2.10102,-0.73536 -4.09658,-1.68123 -5.88245,-3.0469 -1.78587,-1.26061 -3.36205,-2.83679 -4.62266,-4.62266 -1.36567,-1.78587 -2.3099,-3.88607 -2.94021,-5.9871 h 47.27303 c 1.68082,0 3.25577,-0.63153 4.41133,-1.7871 1.26062,-1.15556 1.89215,-2.73051 1.7871,-4.41133 0.10505,-4.5172 -0.73659,-8.92976 -2.31235,-13.02675 -5.35761,-12.39604 -17.54355,-20.48457 -30.9901,-20.58962 z m 73.53582,0 c -3.78184,0 -7.66791,0.63071 -11.23965,1.99638 -3.57174,1.26061 -6.82915,3.15072 -9.77058,5.46184 v -1.25979 c -0.10505,-3.46669 -3.04567,-6.0942 -6.51236,-5.98915 -3.25658,0.10505 -5.88409,2.73256 -5.98914,5.98915 v 54.51992 c 0.10505,3.46669 3.04771,6.0942 6.5144,5.98914 3.25659,-0.10505 5.88205,-2.73256 5.9871,-5.98914 v -27.20662 c 0,-2.83638 0.52484,-5.56853 1.68041,-8.19481 1.05051,-2.52123 2.52204,-4.72812 4.51802,-6.61904 1.89092,-1.89092 4.20286,-3.46546 6.61904,-4.51597 2.62628,-1.05052 5.35638,-1.68041 8.19276,-1.68041 2.83638,0 5.56853,0.52361 8.19481,1.46907 0.84041,0.42021 1.68082,0.63195 2.62628,0.63195 0.84041,0 1.67959,-0.10505 2.41495,-0.52526 0.73536,-0.31515 1.36608,-0.73617 1.99638,-1.36648 0.52526,-0.52526 1.05133,-1.26102 1.36649,-1.99638 0.31515,-0.73536 0.52525,-1.57454 0.52525,-2.41495 0.10505,-1.57577 -0.52484,-3.04648 -1.68041,-4.20205 -1.26061,-1.15556 -2.62627,-1.99638 -4.20204,-2.52163 -1.78587,-0.63031 -3.67761,-1.05175 -5.56853,-1.26185 -1.89093,-0.2101 -3.78226,-0.31392 -5.67318,-0.31392 z m -270.61142,12.31684 c 2.78386,0 5.56854,0.5507 8.19482,1.65373 2.52122,1.05052 4.72607,2.6271 6.61699,4.51802 1.89092,1.89093 3.46751,4.20287 4.51802,6.61905 2.20607,5.35761 2.20607,11.24047 0,16.28293 -1.05051,2.52123 -2.6271,4.72607 -4.51802,6.617 -1.89092,1.89092 -4.20082,3.4675 -6.61699,4.51802 -5.25256,2.20607 -11.13707,2.20607 -16.38963,0 -5.04245,-2.10103 -9.03399,-6.19761 -11.13501,-11.13502 -2.20608,-5.14751 -2.20608,-11.03037 0,-16.28293 2.10102,-5.04246 6.09256,-8.93099 11.13501,-11.13707 2.62628,-1.10303 5.41096,-1.65373 8.19481,-1.65373 z m -73.43118,0.20928 c 2.78386,0 5.56853,0.55275 8.19481,1.65579 5.04246,2.20607 9.034,6.1972 11.13502,11.23965 2.20607,5.04246 2.20607,10.92614 0,16.07365 -2.10102,5.04246 -6.09256,9.03358 -11.13502,11.23966 -5.25255,2.20607 -11.13501,2.20607 -16.38757,0 -5.04246,-2.10103 -8.92935,-6.19761 -11.03037,-11.13502 -2.20608,-5.1475 -2.20608,-11.03037 0,-16.28293 2.10102,-5.04246 6.09296,-9.03399 11.03037,-11.13501 2.62628,-1.10304 5.40891,-1.65579 8.19276,-1.65579 z m 270.40214,0.08 c 2.20607,0 4.51802,0.31515 6.61904,1.05051 4.20205,1.36567 7.87884,4.09577 10.50512,7.66751 1.36566,1.78587 2.30949,3.88812 3.04484,5.98914 h -40.23337 c 0.63031,-2.20607 1.57454,-4.20327 2.94021,-5.98914 1.26061,-1.78587 2.83679,-3.36 4.62266,-4.62062 1.78587,-1.26061 3.78143,-2.31153 5.88245,-3.04689 2.10103,-0.73536 4.41297,-1.05051 6.61905,-1.05051 z" />
</svg>