<svg version="1.1" width="400" height="400" xmlns="http://www.w3.org/2000/svg">
<g>
<path d="M107.000 162.162 L 107.000 212.325 103.930 217.110 C 100.171 222.967,93.229 229.287,88.000 231.611 C 78.742 235.727,77.581 236.000,69.321 236.000 C 31.131 236.000,15.122 184.657,46.550 162.973 C 59.965 153.718,83.284 154.101,93.783 163.750 C 96.693 166.425,97.240 165.279,98.495 153.867 C 99.199 147.468,97.559 145.777,88.000 143.050 C 85.525 142.344,82.195 141.369,80.601 140.883 C 73.471 138.711,59.205 140.112,48.000 144.084 C 37.859 147.678,25.085 159.178,20.318 169.003 C 11.315 187.558,11.594 208.110,21.070 224.500 C 24.181 229.881,33.157 240.000,34.819 240.000 C 35.377 240.000,35.983 240.387,36.167 240.860 C 37.993 245.571,56.841 251.467,70.000 251.444 C 80.981 251.424,88.463 249.759,95.000 245.878 C 95.825 245.388,97.175 244.685,98.000 244.317 C 98.825 243.948,99.725 243.388,100.000 243.073 C 100.275 242.758,101.963 241.474,103.750 240.220 L 107.000 237.940 107.000 243.470 L 107.000 249.000 117.000 249.000 L 127.000 249.000 127.000 180.500 L 127.000 112.000 117.000 112.000 L 107.000 112.000 107.000 162.162 M249.000 127.000 L 249.000 138.000 257.000 138.000 L 265.000 138.000 265.000 127.000 L 265.000 116.000 257.000 116.000 L 249.000 116.000 249.000 127.000 M164.026 120.469 C 163.301 121.343,163.043 123.036,163.412 124.505 L 164.047 127.036 187.665 126.768 C 213.115 126.479,215.366 125.977,212.387 121.250 C 210.819 118.764,166.041 118.041,164.026 120.469 M306.000 121.000 C 305.240 122.421,305.240 123.579,306.000 125.000 C 307.479 127.763,353.341 128.159,354.393 125.418 C 356.792 119.167,356.141 119.000,329.453 119.000 C 308.094 119.000,307.021 119.091,306.000 121.000 M173.906 141.508 C 158.048 145.858,144.285 156.506,138.372 169.003 C 132.611 181.175,132.499 181.714,132.528 196.977 C 132.569 217.803,141.424 234.490,157.000 243.089 C 158.925 244.151,161.175 245.414,162.000 245.895 C 168.631 249.757,175.941 251.373,187.000 251.423 C 196.805 251.466,206.158 249.910,208.450 247.853 C 208.972 247.384,210.021 247.000,210.781 247.000 C 212.704 247.000,222.388 240.441,226.866 236.106 C 244.532 219.003,249.011 190.404,237.375 169.000 C 225.705 147.533,197.106 135.145,173.906 141.508 M316.320 141.444 C 281.613 150.222,264.613 186.882,279.312 221.250 C 279.959 222.762,280.828 224.000,281.244 224.000 C 281.660 224.000,282.000 224.594,282.000 225.320 C 282.000 226.046,283.238 228.030,284.750 229.730 C 286.262 231.429,288.400 233.929,289.500 235.285 C 307.445 257.409,352.514 256.445,371.500 233.532 C 373.700 230.876,375.965 228.208,376.534 227.602 C 381.121 222.712,386.021 205.868,385.964 195.188 C 385.775 159.549,350.959 132.682,316.320 141.444 M249.000 195.179 C 249.000 233.435,248.676 248.311,247.787 250.929 C 246.108 255.874,240.425 264.465,236.833 267.487 L 233.840 270.005 236.151 273.753 C 237.422 275.814,239.024 278.175,239.712 279.000 C 240.399 279.825,241.533 281.267,242.231 282.204 C 244.498 285.248,254.017 273.885,260.811 260.025 L 264.500 252.500 264.790 197.750 L 265.080 143.000 257.040 143.000 L 249.000 143.000 249.000 195.179 M199.000 157.591 C 217.849 164.134,227.552 177.241,227.434 196.000 C 227.191 234.870,178.739 250.945,155.707 219.796 C 133.273 189.456,163.924 145.415,199.000 157.591 M341.000 157.397 C 346.851 159.186,353.000 162.152,353.000 163.185 C 353.000 163.633,353.675 164.000,354.500 164.000 C 355.325 164.000,356.005 164.338,356.011 164.750 C 356.017 165.162,357.818 167.379,360.014 169.674 C 393.749 204.947,340.236 259.016,303.935 226.336 C 290.592 214.323,285.613 187.744,294.678 176.921 C 295.405 176.053,296.022 174.928,296.049 174.421 C 296.076 173.915,297.873 171.700,300.042 169.500 C 302.211 167.300,303.989 165.162,303.993 164.750 C 303.997 164.338,304.675 164.000,305.500 164.000 C 306.325 164.000,307.000 163.627,307.000 163.171 C 307.000 162.328,314.055 158.924,319.500 157.140 C 323.948 155.684,335.860 155.826,341.000 157.397 " stroke="none" fill-rule="evenodd"></path>
</g>
</svg>