<svg id="svg" xmlns="http://www.w3.org/2000/svg" xmlns:xlink="http://www.w3.org/1999/xlink" width="400" height="400" viewBox="0, 0, 400,400"><g id="svgg"><path id="path0" d="M96.203 5.928 C 96.203 8.888,98.402 10.127,103.656 10.127 C 107.884 10.127,114.184 12.770,118.213 16.234 L 125.316 22.342 126.042 112.437 C 126.849 212.733,125.929 208.313,143.734 197.458 C 156.372 189.752,156.962 185.561,156.962 103.466 C 156.962 12.834,155.540 17.722,181.908 17.722 C 238.015 17.722,260.759 43.078,260.759 105.626 C 260.759 163.470,248.861 178.443,183.544 202.787 C 140.739 218.742,121.292 246.204,120.924 291.218 C 120.203 379.448,177.353 413.821,286.709 390.929 L 293.671 389.471 293.671 336.508 L 293.671 283.544 262.025 283.544 C 244.620 283.544,230.380 284.562,230.380 285.805 C 230.380 288.712,236.746 291.139,244.370 291.139 C 260.681 291.139,264.384 299.813,265.436 340.471 C 266.546 383.411,267.044 382.357,244.798 384.143 C 197.016 387.978,163.998 359.700,156.898 308.861 C 149.114 253.122,173.755 213.410,223.485 201.547 C 269.198 190.641,293.802 159.813,295.696 111.069 C 297.953 52.973,277.399 21.655,228.558 8.775 C 205.183 2.610,96.203 0.266,96.203 5.928 " stroke="none" fill="#000000" fill-rule="evenodd"></path></g></svg>