<svg version="1.1" width="400" height="400" xmlns="http://www.w3.org/2000/svg">
<g>
<path d="M268.500 55.000 C 268.160 55.550,266.109 56.000,263.941 56.000 C 261.773 56.000,260.000 56.450,260.000 57.000 C 260.000 57.550,258.650 58.000,257.000 58.000 C 255.350 58.000,254.000 58.450,254.000 59.000 C 254.000 59.550,252.875 60.000,251.500 60.000 C 250.125 60.000,249.000 60.450,249.000 61.000 C 249.000 61.550,248.100 62.000,247.000 62.000 C 245.900 62.000,245.000 62.450,245.000 63.000 C 245.000 63.550,244.199 64.000,243.221 64.000 C 242.242 64.000,240.793 64.900,240.000 66.000 C 239.207 67.100,237.758 68.000,236.779 68.000 C 235.801 68.000,235.000 68.470,235.000 69.045 C 235.000 70.130,230.521 75.000,229.524 75.000 C 228.231 75.000,218.000 86.078,218.000 87.478 C 218.000 88.315,217.550 89.000,217.000 89.000 C 216.450 89.000,216.000 90.026,216.000 91.279 C 216.000 92.533,215.100 94.207,214.000 95.000 C 212.900 95.793,212.000 97.194,212.000 98.114 C 212.000 99.034,211.325 100.045,210.500 100.362 C 209.675 100.678,209.000 102.076,209.000 103.469 C 209.000 104.861,208.550 106.000,208.000 106.000 C 207.450 106.000,207.000 107.575,207.000 109.500 C 207.000 111.425,206.550 113.000,206.000 113.000 C 205.450 113.000,205.000 114.800,205.000 117.000 C 205.000 119.200,204.550 121.000,204.000 121.000 C 203.374 121.000,203.000 127.147,203.000 137.441 C 203.000 147.323,203.399 154.129,204.000 154.500 C 204.550 154.840,205.000 156.891,205.000 159.059 C 205.000 161.227,205.450 163.000,206.000 163.000 C 206.550 163.000,207.000 164.350,207.000 166.000 C 207.000 167.650,207.450 169.000,208.000 169.000 C 208.550 169.000,209.000 169.914,209.000 171.031 C 209.000 172.149,209.675 173.322,210.500 173.638 C 211.325 173.955,212.000 175.066,212.000 176.107 C 212.000 177.148,212.450 178.000,213.000 178.000 C 213.550 178.000,214.000 178.900,214.000 180.000 C 214.000 181.100,214.450 182.000,215.000 182.000 C 215.550 182.000,216.000 182.801,216.000 183.779 C 216.000 184.758,216.900 186.207,218.000 187.000 C 219.100 187.793,220.000 189.044,220.000 189.780 C 220.000 190.516,220.450 190.840,221.000 190.500 C 221.550 190.160,222.000 190.824,222.000 191.974 C 222.000 194.105,228.086 201.000,229.967 201.000 C 230.535 201.000,231.000 201.450,231.000 202.000 C 231.000 202.550,231.719 203.000,232.599 203.000 C 233.478 203.000,235.459 204.350,237.000 206.000 C 238.541 207.650,240.522 209.000,241.401 209.000 C 242.281 209.000,243.000 209.675,243.000 210.500 C 243.000 211.333,243.889 212.000,245.000 212.000 C 246.100 212.000,247.000 212.450,247.000 213.000 C 247.000 213.550,248.125 214.000,249.500 214.000 C 250.875 214.000,252.000 214.450,252.000 215.000 C 252.000 215.550,252.900 216.000,254.000 216.000 C 255.100 216.000,256.000 216.450,256.000 217.000 C 256.000 217.550,257.350 218.000,259.000 218.000 C 260.650 218.000,262.000 218.450,262.000 219.000 C 262.000 219.550,264.475 220.000,267.500 220.000 C 270.525 220.000,273.000 220.450,273.000 221.000 C 273.000 221.624,278.833 222.000,288.500 222.000 C 298.167 222.000,304.000 221.624,304.000 221.000 C 304.000 220.450,306.475 220.000,309.500 220.000 C 312.525 220.000,315.000 219.550,315.000 219.000 C 315.000 218.450,316.350 218.000,318.000 218.000 C 319.650 218.000,321.000 217.550,321.000 217.000 C 321.000 216.450,321.900 216.000,323.000 216.000 C 324.100 216.000,325.000 215.550,325.000 215.000 C 325.000 214.450,325.900 214.000,327.000 214.000 C 328.100 214.000,329.000 213.550,329.000 213.000 C 329.000 212.450,330.125 212.000,331.500 212.000 C 332.875 212.000,334.000 211.518,334.000 210.929 C 334.000 209.547,336.543 207.000,337.922 207.000 C 338.508 207.000,341.729 204.300,345.081 201.000 C 348.432 197.700,351.585 195.000,352.087 195.000 C 354.881 195.000,351.769 190.714,341.537 180.473 C 328.224 167.148,329.830 167.803,324.449 173.500 C 322.111 175.975,319.479 178.000,318.599 178.000 C 317.720 178.000,317.000 178.450,317.000 179.000 C 317.000 179.550,316.199 180.000,315.221 180.000 C 314.242 180.000,312.793 180.900,312.000 182.000 C 311.166 183.157,309.411 184.000,307.838 184.000 C 306.342 184.000,304.840 184.450,304.500 185.000 C 304.160 185.550,302.559 186.000,300.941 186.000 C 299.323 186.000,298.000 186.450,298.000 187.000 C 298.000 187.596,294.167 188.000,288.500 188.000 C 282.833 188.000,279.000 187.596,279.000 187.000 C 279.000 186.450,277.227 186.000,275.059 186.000 C 272.891 186.000,270.840 185.550,270.500 185.000 C 270.160 184.450,269.108 184.000,268.162 184.000 C 267.216 184.000,265.793 183.100,265.000 182.000 C 264.207 180.900,262.971 180.000,262.253 180.000 C 260.509 180.000,252.000 171.424,252.000 169.666 C 252.000 168.904,250.875 167.435,249.500 166.403 C 248.125 165.370,247.000 163.732,247.000 162.763 C 247.000 161.793,246.550 161.000,246.000 161.000 C 245.450 161.000,245.000 159.650,245.000 158.000 C 245.000 156.350,244.550 155.000,244.000 155.000 C 243.450 155.000,243.000 152.975,243.000 150.500 C 243.000 148.025,242.550 146.000,242.000 146.000 C 241.412 146.000,241.000 142.500,241.000 137.500 C 241.000 132.500,241.412 129.000,242.000 129.000 C 242.550 129.000,243.000 127.200,243.000 125.000 C 243.000 122.800,243.450 121.000,244.000 121.000 C 244.550 121.000,245.000 120.100,245.000 119.000 C 245.000 117.900,245.450 117.000,246.000 117.000 C 246.550 117.000,247.000 116.100,247.000 115.000 C 247.000 113.900,247.450 113.000,248.000 113.000 C 248.550 113.000,249.000 111.875,249.000 110.500 C 249.000 109.125,249.482 108.000,250.071 108.000 C 251.488 108.000,254.000 105.443,254.000 104.000 C 254.000 102.512,256.529 100.000,258.027 100.000 C 258.671 100.000,260.459 98.650,262.000 97.000 C 263.541 95.350,265.522 94.000,266.401 94.000 C 267.281 94.000,268.000 93.550,268.000 93.000 C 268.000 92.450,269.125 92.000,270.500 92.000 C 272.056 92.000,273.000 91.433,273.000 90.500 C 273.000 89.417,274.111 89.000,277.000 89.000 C 279.525 89.000,281.006 88.539,281.015 87.750 C 281.026 86.917,281.354 87.000,282.000 88.000 C 282.646 89.000,282.974 89.083,282.985 88.250 C 282.995 87.403,284.775 87.000,288.500 87.000 C 291.525 87.000,294.000 87.450,294.000 88.000 C 294.000 88.550,296.250 89.000,299.000 89.000 C 302.778 89.000,304.000 89.367,304.000 90.500 C 304.000 91.333,304.889 92.000,306.000 92.000 C 307.100 92.000,308.000 92.450,308.000 93.000 C 308.000 93.550,309.125 94.000,310.500 94.000 C 311.875 94.000,313.000 94.450,313.000 95.000 C 313.000 95.550,313.719 96.000,314.599 96.000 C 315.478 96.000,317.459 97.350,319.000 99.000 C 320.541 100.650,322.316 102.000,322.943 102.000 C 323.570 102.000,325.050 102.900,326.230 104.000 C 328.876 106.465,330.851 106.554,331.733 104.250 C 332.101 103.287,335.012 99.937,338.201 96.805 C 341.391 93.673,344.000 90.390,344.000 89.510 C 344.000 87.983,348.230 83.000,349.526 83.000 C 350.574 83.000,353.000 80.206,353.000 79.000 C 353.000 77.557,350.488 75.000,349.071 75.000 C 348.482 75.000,348.000 74.550,348.000 74.000 C 348.000 73.450,347.293 73.000,346.429 73.000 C 344.869 73.000,342.000 70.733,342.000 69.500 C 342.000 68.444,339.228 66.000,338.030 66.000 C 337.417 66.000,335.950 65.100,334.770 64.000 C 333.589 62.900,331.808 62.000,330.811 62.000 C 329.815 62.000,329.000 61.550,329.000 61.000 C 329.000 60.450,327.650 60.000,326.000 60.000 C 324.350 60.000,323.000 59.550,323.000 59.000 C 323.000 58.450,321.650 58.000,320.000 58.000 C 318.350 58.000,317.000 57.550,317.000 57.000 C 317.000 56.450,314.975 56.000,312.500 56.000 C 310.025 56.000,308.000 55.550,308.000 55.000 C 308.000 54.368,300.853 54.000,288.559 54.000 C 276.677 54.000,268.878 54.389,268.500 55.000 M41.000 137.000 L 41.000 218.000 83.000 218.000 C 110.333 218.000,125.000 217.651,125.000 217.000 C 125.000 216.450,127.025 216.000,129.500 216.000 C 131.975 216.000,134.000 215.550,134.000 215.000 C 134.000 214.450,135.350 214.000,137.000 214.000 C 138.650 214.000,140.000 213.550,140.000 213.000 C 140.000 212.450,141.350 212.000,143.000 212.000 C 145.000 212.000,146.000 211.500,146.000 210.500 C 146.000 209.567,146.944 209.000,148.500 209.000 C 149.875 209.000,151.000 208.550,151.000 208.000 C 151.000 207.450,151.801 207.000,152.779 207.000 C 153.758 207.000,155.207 206.100,156.000 205.000 C 156.793 203.900,158.046 203.000,158.786 203.000 C 159.525 203.000,162.321 200.750,165.000 198.000 C 167.679 195.250,170.349 193.000,170.935 193.000 C 171.521 193.000,172.000 192.617,172.000 192.148 C 172.000 191.680,173.350 189.884,175.000 188.157 C 176.650 186.431,178.000 184.545,178.000 183.967 C 178.000 183.389,178.900 181.950,180.000 180.770 C 181.100 179.589,182.000 178.033,182.000 177.311 C 182.000 176.590,182.450 176.000,183.000 176.000 C 183.550 176.000,184.000 175.127,184.000 174.059 C 184.000 172.991,184.450 171.840,185.000 171.500 C 185.550 171.160,186.000 169.559,186.000 167.941 C 186.000 166.323,186.450 165.000,187.000 165.000 C 187.550 165.000,188.000 163.200,188.000 161.000 C 188.000 158.214,188.430 157.000,189.418 157.000 C 190.447 157.000,190.987 155.150,191.389 150.250 C 191.693 146.537,192.221 140.912,192.563 137.750 C 193.049 133.260,192.887 132.000,191.823 132.000 C 190.761 132.000,190.545 130.348,190.840 124.500 C 191.162 118.117,190.979 117.000,189.609 117.000 C 188.488 117.000,188.000 116.091,188.000 114.000 C 188.000 112.350,187.550 111.000,187.000 111.000 C 186.450 111.000,186.000 109.425,186.000 107.500 C 186.000 105.575,185.550 104.000,185.000 104.000 C 184.450 104.000,184.000 103.100,184.000 102.000 C 184.000 100.900,183.550 100.000,183.000 100.000 C 182.450 100.000,182.000 99.100,182.000 98.000 C 182.000 96.900,181.550 96.000,181.000 96.000 C 180.450 96.000,180.000 95.100,180.000 94.000 C 180.000 92.900,179.550 92.000,179.000 92.000 C 178.450 92.000,178.000 91.424,178.000 90.721 C 178.000 90.017,177.100 88.793,176.000 88.000 C 174.900 87.207,174.000 85.951,174.000 85.208 C 174.000 83.807,171.647 81.000,170.473 81.000 C 170.104 81.000,168.541 79.650,167.000 78.000 C 165.459 76.350,163.688 75.000,163.065 75.000 C 162.443 75.000,160.398 73.537,158.521 71.750 C 153.146 66.630,152.216 66.000,150.042 66.000 C 148.919 66.000,148.000 65.550,148.000 65.000 C 148.000 64.450,147.100 64.000,146.000 64.000 C 144.900 64.000,144.000 63.550,144.000 63.000 C 144.000 62.450,142.650 62.000,141.000 62.000 C 139.350 62.000,138.000 61.550,138.000 61.000 C 138.000 60.450,136.650 60.000,135.000 60.000 C 133.350 60.000,132.000 59.550,132.000 59.000 C 132.000 58.450,129.525 58.000,126.500 58.000 C 123.475 58.000,121.000 57.550,121.000 57.000 C 121.000 56.350,107.000 56.000,81.000 56.000 L 41.000 56.000 41.000 137.000 M113.000 90.500 C 113.000 91.583,114.111 92.000,117.000 92.000 C 119.200 92.000,121.000 92.450,121.000 93.000 C 121.000 93.550,121.900 94.000,123.000 94.000 C 124.100 94.000,125.000 94.450,125.000 95.000 C 125.000 95.550,125.900 96.000,127.000 96.000 C 128.100 96.000,129.000 96.450,129.000 97.000 C 129.000 97.550,129.910 98.000,131.022 98.000 C 133.652 98.000,144.000 108.348,144.000 110.978 C 144.000 112.090,144.450 113.000,145.000 113.000 C 145.550 113.000,146.000 113.900,146.000 115.000 C 146.000 116.100,146.450 117.000,147.000 117.000 C 147.550 117.000,148.000 117.900,148.000 119.000 C 148.000 120.111,148.667 121.000,149.500 121.000 C 150.583 121.000,151.000 122.111,151.000 125.000 C 151.000 127.200,151.450 129.000,152.000 129.000 C 152.588 129.000,153.000 132.500,153.000 137.500 C 153.000 142.500,152.588 146.000,152.000 146.000 C 151.450 146.000,151.000 148.025,151.000 150.500 C 151.000 153.833,150.611 155.000,149.500 155.000 C 148.667 155.000,148.000 155.889,148.000 157.000 C 148.000 158.100,147.550 159.000,147.000 159.000 C 146.450 159.000,146.000 159.900,146.000 161.000 C 146.000 162.100,145.550 163.000,145.000 163.000 C 144.450 163.000,144.000 163.801,144.000 164.779 C 144.000 165.758,143.100 167.207,142.000 168.000 C 140.900 168.793,140.000 169.807,140.000 170.254 C 140.000 171.938,132.983 178.000,131.033 178.000 C 129.915 178.000,129.000 178.450,129.000 179.000 C 129.000 179.550,128.100 180.000,127.000 180.000 C 125.900 180.000,125.000 180.450,125.000 181.000 C 125.000 181.550,123.650 182.000,122.000 182.000 C 120.350 182.000,119.000 182.450,119.000 183.000 C 119.000 183.550,117.200 184.000,115.000 184.000 C 112.800 184.000,111.000 184.450,111.000 185.000 C 111.000 185.625,105.000 186.000,95.000 186.000 L 79.000 186.000 79.000 137.500 L 79.000 89.000 96.000 89.000 C 110.444 89.000,113.000 89.225,113.000 90.500 M41.000 333.500 L 41.000 346.000 114.500 346.000 L 188.000 346.000 188.000 333.500 L 188.000 321.000 114.500 321.000 L 41.000 321.000 41.000 333.500 " stroke="none" fill-rule="evenodd"></path>
</g>
</svg>