<svg width="100%" height="100%" viewBox="0 0 400 400" version="1.1" xmlns="http://www.w3.org/2000/svg" style="fill-rule:evenodd;clip-rule:evenodd;stroke-linejoin:round;stroke-miterlimit:2;">
<g>
<path d="M41,136.978L41,218L82,218C100.232,218 127.134,221.81 144,210.5C154.275,203.61 168.204,194.84 176.165,184.095C184.827,172.405 184.963,160.785 188.308,147.333C188.466,146.699 190.661,144.897 190.711,144.167C191.464,133.049 193.581,132.392 189.572,127.237C189.173,126.724 188.446,126.386 188.312,125.75C185.52,112.464 187.638,112.052 182.014,99.619C175.413,85.027 165.968,80.299 155,69.929C154.251,69.221 154.227,67.87 153.366,67.303C132.929,53.839 104.915,56.564 82.25,56.349L41,55.957L41,136.978M197,137L197,218L235,218L235,168.5C235,151.999 234.119,135.437 235.571,119C235.616,118.489 240.545,125.284 241,126C243.427,129.817 245.322,135.206 248.399,138.501C256.699,147.39 261.442,160.095 269.929,169C272.727,171.936 273,180.025 278,180C283.809,179.971 286.452,166.294 290.071,163C298.6,155.236 305.221,141.694 312,132C314.463,128.478 316.358,124.614 319,121.208C320.109,119.778 322.273,115.197 322.429,117C323.878,133.772 323,150.666 323,167.5L323,218L359,218L359,56L339,56C332.307,56 323.891,53.21 319,57.779C315.709,60.854 313.252,66.861 311,70.721C307.692,76.392 303.399,81.557 300,87.221C296.731,92.669 294.568,97.734 290.071,102C288.527,103.465 287.701,106.849 286.748,108.696C284.691,112.681 280.67,118.564 277.545,121C277.056,121.381 277.281,119.774 277,119.221C276.427,118.095 275.667,117.074 275,116C273.224,113.14 273.305,113.375 272,111C268.334,104.329 263.418,98.558 260,91.721C257.272,86.264 254.196,81.02 250.071,77C248.177,75.154 248.185,69.473 246.727,68.297C245.997,67.708 246.003,71.292 245.273,70.703C244.009,69.684 244.675,67.477 244,66C242.91,63.614 240.896,59.503 239,57.779C233.802,53.053 225.025,56 218,56L197,56L197,137M115,90.5C115,91.618 116.968,91.57 118,92C121.072,93.28 124.008,94.504 127,96C134.072,99.536 139.068,104.118 143,111C145.862,116.008 146.404,120.91 148.344,126.083C149.021,127.89 150.394,126.827 150.711,128.833C151.097,131.278 151.097,141.722 150.711,144.167C150.391,146.188 148.972,145.083 148.333,147C147.478,149.565 147.795,152.416 147,155C145.376,160.277 140.587,168.971 136.459,172.633C125.832,182.061 109.002,184 96,184L77,184L77,89L96,89C112.222,89 115,89.219 115,90.5M41,333.5L41,346L188,346L188,321L41,321L41,333.5"/>
</g>
</svg>
