<svg version="1.1" width="400" height="400" xmlns="http://www.w3.org/2000/svg"><g><path d="M41.000 137.000 L 41.000 218.000 83.000 218.000 C 110.333 218.000,125.000 217.651,125.000 217.000 C 125.000 216.450,127.025 216.000,129.500 216.000 C 131.975 216.000,134.000 215.550,134.000 215.000 C 134.000 214.450,135.350 214.000,137.000 214.000 C 138.650 214.000,140.000 213.550,140.000 213.000 C 140.000 212.450,141.350 212.000,143.000 212.000 C 145.000 212.000,146.000 211.500,146.000 210.500 C 146.000 209.567,146.944 209.000,148.500 209.000 C 149.875 209.000,151.000 208.550,151.000 208.000 C 151.000 207.450,151.801 207.000,152.779 207.000 C 153.758 207.000,155.207 206.100,156.000 205.000 C 156.793 203.900,158.046 203.000,158.786 203.000 C 159.525 203.000,162.321 200.750,165.000 198.000 C 167.679 195.250,170.349 193.000,170.935 193.000 C 171.521 193.000,172.000 192.617,172.000 192.148 C 172.000 191.680,173.350 189.884,175.000 188.157 C 176.650 186.431,178.000 184.545,178.000 183.967 C 178.000 183.389,178.900 181.950,180.000 180.770 C 181.100 179.589,182.000 178.033,182.000 177.311 C 182.000 176.590,182.450 176.000,183.000 176.000 C 183.550 176.000,184.000 175.127,184.000 174.059 C 184.000 172.991,184.450 171.840,185.000 171.500 C 185.550 171.160,186.000 169.559,186.000 167.941 C 186.000 166.323,186.450 165.000,187.000 165.000 C 187.550 165.000,188.000 163.200,188.000 161.000 C 188.000 158.214,188.430 157.000,189.418 157.000 C 190.447 157.000,190.987 155.150,191.389 150.250 C 191.693 146.537,192.221 140.912,192.563 137.750 C 193.049 133.260,192.887 132.000,191.823 132.000 C 190.761 132.000,190.545 130.348,190.840 124.500 C 191.162 118.117,190.979 117.000,189.609 117.000 C 188.488 117.000,188.000 116.091,188.000 114.000 C 188.000 112.350,187.550 111.000,187.000 111.000 C 186.450 111.000,186.000 109.425,186.000 107.500 C 186.000 105.575,185.550 104.000,185.000 104.000 C 184.450 104.000,184.000 103.100,184.000 102.000 C 184.000 100.900,183.550 100.000,183.000 100.000 C 182.450 100.000,182.000 99.100,182.000 98.000 C 182.000 96.900,181.550 96.000,181.000 96.000 C 180.450 96.000,180.000 95.100,180.000 94.000 C 180.000 92.900,179.550 92.000,179.000 92.000 C 178.450 92.000,178.000 91.424,178.000 90.721 C 178.000 90.017,177.100 88.793,176.000 88.000 C 174.900 87.207,174.000 85.951,174.000 85.208 C 174.000 83.807,171.647 81.000,170.473 81.000 C 170.104 81.000,168.541 79.650,167.000 78.000 C 165.459 76.350,163.688 75.000,163.065 75.000 C 162.443 75.000,160.398 73.537,158.521 71.750 C 153.146 66.630,152.216 66.000,150.042 66.000 C 148.919 66.000,148.000 65.550,148.000 65.000 C 148.000 64.450,147.100 64.000,146.000 64.000 C 144.900 64.000,144.000 63.550,144.000 63.000 C 144.000 62.450,142.650 62.000,141.000 62.000 C 139.350 62.000,138.000 61.550,138.000 61.000 C 138.000 60.450,136.650 60.000,135.000 60.000 C 133.350 60.000,132.000 59.550,132.000 59.000 C 132.000 58.450,129.525 58.000,126.500 58.000 C 123.475 58.000,121.000 57.550,121.000 57.000 C 121.000 56.350,107.000 56.000,81.000 56.000 L 41.000 56.000 41.000 137.000 M205.000 137.000 L 205.000 218.000 224.000 218.000 L 243.000 218.000 243.000 195.000 L 243.000 172.000 261.000 172.000 C 276.333 172.000,279.000 171.778,279.000 170.500 C 279.000 169.321,280.389 169.000,285.500 169.000 C 289.167 169.000,292.000 168.564,292.000 168.000 C 292.000 167.450,293.350 167.000,295.000 167.000 C 296.650 167.000,298.000 166.550,298.000 166.000 C 298.000 165.450,298.900 165.000,300.000 165.000 C 301.100 165.000,302.000 164.550,302.000 164.000 C 302.000 163.450,302.900 163.000,304.000 163.000 C 305.100 163.000,306.000 162.550,306.000 162.000 C 306.000 161.450,307.125 161.000,308.500 161.000 C 309.875 161.000,311.000 160.550,311.000 160.000 C 311.000 159.450,311.603 159.000,312.341 159.000 C 314.389 159.000,322.454 150.915,324.062 147.250 C 324.846 145.463,325.828 144.000,326.244 144.000 C 326.660 144.000,327.000 143.100,327.000 142.000 C 327.000 140.900,327.450 140.000,328.000 140.000 C 328.550 140.000,329.000 139.100,329.000 138.000 C 329.000 136.889,329.667 136.000,330.500 136.000 C 331.548 136.000,332.000 134.944,332.000 132.500 C 332.000 130.575,332.471 129.000,333.048 129.000 C 335.632 129.000,333.035 90.334,330.382 89.316 C 329.622 89.025,329.000 87.934,329.000 86.893 C 329.000 85.852,328.550 85.000,328.000 85.000 C 327.450 85.000,327.000 84.199,327.000 83.221 C 327.000 82.242,326.100 80.793,325.000 80.000 C 323.900 79.207,323.000 77.938,323.000 77.180 C 323.000 76.423,321.650 74.541,320.000 73.000 C 318.350 71.459,317.000 69.703,317.000 69.099 C 317.000 68.494,316.306 68.000,315.458 68.000 C 314.610 68.000,312.950 67.100,311.770 66.000 C 310.589 64.900,308.808 64.000,307.811 64.000 C 306.815 64.000,306.000 63.550,306.000 63.000 C 306.000 62.450,305.100 62.000,304.000 62.000 C 302.900 62.000,302.000 61.550,302.000 61.000 C 302.000 60.450,300.650 60.000,299.000 60.000 C 297.350 60.000,296.000 59.550,296.000 59.000 C 296.000 58.450,293.525 58.000,290.500 58.000 C 287.475 58.000,285.000 57.550,285.000 57.000 C 285.000 56.350,271.000 56.000,245.000 56.000 L 205.000 56.000 205.000 137.000 M113.000 90.500 C 113.000 91.583,114.111 92.000,117.000 92.000 C 119.200 92.000,121.000 92.450,121.000 93.000 C 121.000 93.550,121.900 94.000,123.000 94.000 C 124.100 94.000,125.000 94.450,125.000 95.000 C 125.000 95.550,125.900 96.000,127.000 96.000 C 128.100 96.000,129.000 96.450,129.000 97.000 C 129.000 97.550,129.910 98.000,131.022 98.000 C 133.652 98.000,144.000 108.348,144.000 110.978 C 144.000 112.090,144.450 113.000,145.000 113.000 C 145.550 113.000,146.000 113.900,146.000 115.000 C 146.000 116.100,146.450 117.000,147.000 117.000 C 147.550 117.000,148.000 117.900,148.000 119.000 C 148.000 120.111,148.667 121.000,149.500 121.000 C 150.583 121.000,151.000 122.111,151.000 125.000 C 151.000 127.200,151.450 129.000,152.000 129.000 C 152.588 129.000,153.000 132.500,153.000 137.500 C 153.000 142.500,152.588 146.000,152.000 146.000 C 151.450 146.000,151.000 148.025,151.000 150.500 C 151.000 153.833,150.611 155.000,149.500 155.000 C 148.667 155.000,148.000 155.889,148.000 157.000 C 148.000 158.100,147.550 159.000,147.000 159.000 C 146.450 159.000,146.000 159.900,146.000 161.000 C 146.000 162.100,145.550 163.000,145.000 163.000 C 144.450 163.000,144.000 163.801,144.000 164.779 C 144.000 165.758,143.100 167.207,142.000 168.000 C 140.900 168.793,140.000 169.807,140.000 170.254 C 140.000 171.938,132.983 178.000,131.033 178.000 C 129.915 178.000,129.000 178.450,129.000 179.000 C 129.000 179.550,128.100 180.000,127.000 180.000 C 125.900 180.000,125.000 180.450,125.000 181.000 C 125.000 181.550,123.650 182.000,122.000 182.000 C 120.350 182.000,119.000 182.450,119.000 183.000 C 119.000 183.550,117.200 184.000,115.000 184.000 C 112.800 184.000,111.000 184.450,111.000 185.000 C 111.000 185.625,105.000 186.000,95.000 186.000 L 79.000 186.000 79.000 137.500 L 79.000 89.000 96.000 89.000 C 110.444 89.000,113.000 89.225,113.000 90.500 M279.000 90.500 C 279.000 91.449,279.955 92.000,281.599 92.000 C 283.197 92.000,285.277 93.155,287.000 95.000 C 288.541 96.650,290.104 98.000,290.473 98.000 C 292.023 98.000,294.000 101.042,294.000 103.429 C 294.000 104.843,294.450 106.000,295.000 106.000 C 295.564 106.000,296.000 108.833,296.000 112.500 C 296.000 116.167,295.564 119.000,295.000 119.000 C 294.450 119.000,294.000 120.104,294.000 121.452 C 294.000 124.169,284.952 134.000,282.452 134.000 C 281.654 134.000,281.000 134.450,281.000 135.000 C 281.000 135.550,278.750 136.000,276.000 136.000 C 273.250 136.000,271.000 136.450,271.000 137.000 C 271.000 138.698,244.152 138.295,242.429 136.571 C 241.273 135.416,241.000 130.733,241.000 112.071 L 241.000 89.000 260.000 89.000 C 276.222 89.000,279.000 89.219,279.000 90.500 M41.000 333.500 L 41.000 346.000 114.500 346.000 L 188.000 346.000 188.000 333.500 L 188.000 321.000 114.500 321.000 L 41.000 321.000 41.000 333.500 " stroke="none" fill-rule="evenodd"></path></g></svg>