<svg version="1.1" width="400" height="400" xmlns="http://www.w3.org/2000/svg"><g><path d="M243.000 6.613 C 238.841 10.624,234.423 14.000,233.334 14.000 C 232.663 14.000,231.525 14.787,230.807 15.750 C 230.088 16.712,227.925 18.363,226.000 19.418 C 224.075 20.472,221.426 22.385,220.114 23.668 C 218.801 24.950,217.226 26.001,216.614 26.002 C 216.001 26.004,213.925 27.353,212.000 29.000 C 210.075 30.647,208.223 31.996,207.886 31.998 C 207.548 31.999,205.748 33.343,203.886 34.984 C 202.023 36.625,200.088 37.975,199.584 37.984 C 199.080 37.993,197.955 38.680,197.084 39.512 C 194.306 42.162,183.032 50.000,181.997 50.000 C 181.449 50.000,181.000 50.421,181.000 50.936 C 181.000 51.451,179.200 52.884,177.000 54.120 C 174.800 55.357,173.000 56.747,173.000 57.209 C 173.000 57.671,171.863 58.482,170.474 59.010 C 169.085 59.538,167.688 60.649,167.370 61.479 C 167.051 62.309,166.404 62.750,165.932 62.458 C 165.459 62.166,164.157 62.731,163.036 63.714 C 161.916 64.696,160.100 66.287,159.000 67.250 C 157.900 68.212,156.986 68.662,156.970 68.250 C 156.953 67.837,156.481 68.288,155.920 69.250 C 155.359 70.213,154.360 71.004,153.700 71.010 C 153.040 71.015,150.524 72.590,148.109 74.510 C 145.694 76.429,143.332 78.000,142.859 78.000 C 142.387 78.000,142.000 78.675,142.000 79.500 C 142.000 80.822,152.389 81.000,229.500 81.000 L 317.000 81.000 317.000 200.000 L 317.000 319.000 197.500 319.000 L 78.000 319.000 78.000 222.000 C 78.000 133.574,77.693 121.147,75.638 126.500 C 75.322 127.325,74.577 128.000,73.983 128.000 C 72.609 128.000,60.765 136.085,59.700 137.750 C 59.260 138.438,58.356 139.000,57.690 139.000 C 57.024 139.000,55.359 140.027,53.990 141.283 C 52.620 142.539,49.700 144.651,47.500 145.978 C 45.300 147.305,43.140 148.977,42.700 149.695 C 42.260 150.413,41.329 151.000,40.631 151.000 C 39.932 151.000,38.382 152.125,37.187 153.500 C 35.991 154.875,34.624 156.000,34.147 156.000 C 33.671 156.000,31.306 157.571,28.891 159.490 C 26.476 161.410,23.963 162.985,23.307 162.990 C 22.650 162.996,21.525 163.833,20.807 164.851 C 20.088 165.869,18.038 167.456,16.250 168.377 C 14.462 169.298,13.000 170.479,13.000 171.001 C 13.000 171.523,11.028 172.848,8.618 173.946 C 6.208 175.044,3.968 176.640,3.641 177.494 C 2.975 179.230,4.977 189.204,6.158 190.033 C 6.576 190.327,7.694 194.152,8.642 198.533 C 9.591 202.915,10.711 206.737,11.132 207.027 C 11.552 207.317,12.843 211.805,14.000 217.000 C 15.157 222.195,16.448 226.683,16.868 226.973 C 17.289 227.263,18.410 231.100,19.360 235.500 C 20.311 239.900,21.471 243.634,21.938 243.798 C 22.405 243.962,22.546 245.020,22.250 246.150 C 21.955 247.280,22.158 248.496,22.702 248.852 C 23.246 249.209,24.730 254.000,26.000 259.500 C 27.270 265.000,28.607 269.725,28.971 270.000 C 29.336 270.275,30.463 274.100,31.475 278.500 C 32.487 282.900,33.606 286.725,33.961 287.000 C 34.317 287.275,35.625 292.000,36.869 297.500 C 38.112 303.000,39.551 307.650,40.065 307.833 C 40.579 308.017,41.000 308.808,41.000 309.593 C 41.000 311.907,45.332 329.455,46.038 330.000 C 46.394 330.275,47.513 334.100,48.525 338.500 C 49.537 342.900,50.681 346.725,51.066 347.000 C 51.451 347.275,52.354 350.200,53.071 353.500 C 53.788 356.800,54.438 359.725,54.515 360.000 C 54.592 360.275,55.008 362.188,55.439 364.250 C 55.870 366.313,56.565 368.000,56.983 368.000 C 57.402 368.000,58.095 369.913,58.524 372.250 C 58.953 374.587,59.375 376.725,59.462 377.000 C 59.548 377.275,60.240 380.200,60.998 383.500 C 61.756 386.800,62.764 389.765,63.238 390.090 C 63.712 390.414,64.173 391.652,64.263 392.840 C 64.423 394.962,71.000 396.299,71.000 394.210 C 71.000 393.775,76.063 392.584,82.250 391.563 C 88.438 390.542,93.725 389.405,94.000 389.038 C 94.275 388.670,101.025 387.315,109.000 386.027 C 116.975 384.740,123.725 383.375,124.000 382.996 C 124.275 382.617,131.250 381.244,139.500 379.947 C 147.750 378.649,154.725 377.304,155.000 376.957 C 155.275 376.611,162.025 375.280,170.000 374.000 C 177.975 372.720,184.725 371.359,185.000 370.974 C 185.275 370.590,190.675 369.461,197.000 368.465 C 203.325 367.470,208.725 366.353,209.000 365.985 C 209.275 365.616,215.800 364.260,223.500 362.972 C 231.200 361.683,237.725 360.336,238.000 359.978 C 238.275 359.620,245.025 358.280,253.000 357.000 C 260.975 355.720,267.725 354.384,268.000 354.031 C 268.275 353.679,273.900 352.562,280.500 351.550 C 287.100 350.538,292.725 349.407,293.000 349.036 C 293.275 348.665,299.800 347.299,307.500 346.000 C 315.200 344.701,321.725 343.332,322.000 342.958 C 322.275 342.584,324.573 341.972,327.107 341.599 L 331.714 340.920 333.998 326.210 C 335.255 318.120,336.590 311.275,336.966 311.000 C 337.342 310.725,338.722 303.300,340.033 294.500 C 341.344 285.700,342.773 278.350,343.208 278.167 C 343.644 277.983,344.000 276.521,344.000 274.917 L 344.000 272.000 368.000 272.000 L 392.000 272.000 392.010 268.750 C 392.035 260.607,389.754 230.293,388.981 228.500 C 388.507 227.400,387.115 211.200,385.888 192.500 C 384.661 173.800,383.368 158.275,383.015 158.000 C 382.662 157.725,381.402 143.329,380.215 126.009 C 378.701 103.927,377.694 94.398,376.847 94.116 C 376.182 93.894,374.707 92.759,373.569 91.592 C 372.431 90.426,370.174 88.803,368.554 87.986 C 366.933 87.169,364.505 85.487,363.157 84.250 C 361.810 83.012,360.121 82.000,359.404 82.000 C 358.686 82.000,357.740 81.403,357.300 80.673 C 356.860 79.943,354.475 78.255,352.000 76.923 C 349.525 75.590,346.912 73.713,346.193 72.750 C 345.475 71.787,344.350 70.992,343.693 70.983 C 343.037 70.973,341.440 69.848,340.145 68.483 C 338.850 67.117,337.335 66.000,336.779 66.000 C 336.223 66.000,333.622 64.425,331.000 62.500 C 328.378 60.575,325.752 59.000,325.166 59.000 C 324.579 59.000,323.740 58.386,323.300 57.635 C 322.860 56.885,321.060 55.535,319.300 54.636 C 317.540 53.736,315.740 52.413,315.300 51.696 C 314.860 50.979,312.813 49.608,310.750 48.649 C 308.688 47.690,307.000 46.548,307.000 46.110 C 307.000 45.673,304.975 44.273,302.500 43.000 C 300.025 41.727,298.000 40.386,298.000 40.020 C 298.000 39.654,295.975 38.343,293.500 37.107 C 291.025 35.871,289.000 34.544,289.000 34.157 C 289.000 33.771,287.425 32.607,285.500 31.570 C 283.575 30.533,282.000 29.351,282.000 28.943 C 282.000 28.536,280.175 27.251,277.944 26.088 C 275.713 24.925,272.929 23.080,271.756 21.987 C 270.583 20.894,269.118 20.000,268.500 20.000 C 267.882 20.000,266.417 19.106,265.244 18.013 C 264.071 16.920,261.287 15.075,259.056 13.912 C 256.825 12.749,255.000 11.386,255.000 10.883 C 255.000 10.379,253.425 9.217,251.500 8.299 C 249.575 7.381,248.000 6.263,248.000 5.815 C 248.000 4.502,244.632 5.039,243.000 6.613 M77.000 80.500 C 77.000 81.325,77.450 82.000,78.000 82.000 C 78.550 82.000,79.000 81.325,79.000 80.500 C 79.000 79.675,78.550 79.000,78.000 79.000 C 77.450 79.000,77.000 79.675,77.000 80.500 M100.000 161.500 L 100.000 212.000 125.500 212.000 C 141.833 212.000,151.000 211.641,151.000 211.000 C 151.000 210.450,152.012 209.997,153.250 209.994 C 156.559 209.986,162.740 208.112,164.216 206.670 C 164.922 205.980,167.067 204.774,168.981 203.991 C 175.788 201.204,188.000 186.843,188.000 181.623 C 188.000 180.822,188.492 180.003,189.094 179.802 C 192.825 178.558,192.680 142.000,188.945 142.000 C 188.516 142.000,187.386 139.960,186.434 137.467 C 185.482 134.973,184.189 132.611,183.561 132.217 C 182.934 131.822,181.532 130.064,180.447 128.310 C 177.401 123.386,164.185 115.000,159.471 115.000 C 158.662 115.000,158.000 114.605,158.000 114.122 C 158.000 112.339,142.329 111.000,121.459 111.000 L 100.000 111.000 100.000 161.500 M196.667 111.667 C 196.300 112.033,196.000 116.983,196.000 122.667 L 196.000 133.000 211.000 133.000 L 226.000 133.000 226.000 172.500 L 226.000 212.000 238.000 212.000 L 250.000 212.000 250.000 172.500 L 250.000 133.000 264.500 133.000 L 279.000 133.000 279.000 122.000 L 279.000 111.000 238.167 111.000 C 215.708 111.000,197.033 111.300,196.667 111.667 M148.633 134.582 C 151.625 135.451,155.247 137.251,156.683 138.582 C 158.118 139.912,159.631 141.000,160.045 141.000 C 161.007 141.000,165.000 148.613,165.000 150.447 C 165.000 151.210,165.563 152.021,166.250 152.250 C 167.889 152.796,168.013 170.745,166.385 171.786 C 165.771 172.179,164.919 173.625,164.490 175.000 C 163.501 178.172,160.806 181.928,159.491 181.969 C 158.935 181.986,157.975 182.811,157.356 183.802 C 156.737 184.793,154.266 186.237,151.865 187.010 C 149.464 187.783,147.228 188.806,146.895 189.283 C 146.562 189.760,141.049 190.408,134.645 190.724 L 123.000 191.297 123.000 162.149 L 123.000 133.000 133.096 133.000 C 139.342 133.000,145.267 133.603,148.633 134.582 M100.000 282.500 L 100.000 290.000 145.500 290.000 L 191.000 290.000 191.000 282.500 L 191.000 275.000 145.500 275.000 L 100.000 275.000 100.000 282.500 " stroke="none" fill-rule="evenodd"></path></g></svg>