<svg version="1.1" width="515" height="515" xmlns="http://www.w3.org/2000/svg">
<g>
<path d="M199.500 63.867 C 193.870 66.434,189.630 70.267,186.335 75.768 L 183.500 80.500 183.500 124.500 C 183.500 168.829,183.629 171.253,186.260 176.243 C 188.146 179.822,194.200 185.994,195.212 185.369 C 195.645 185.101,196.000 185.381,196.000 185.992 C 196.000 186.603,197.688 187.801,199.750 188.656 C 201.813 189.511,203.631 190.331,203.790 190.479 C 203.950 190.626,201.069 195.867,197.388 202.124 C 193.707 208.381,186.852 220.146,182.155 228.268 C 177.458 236.391,172.793 243.919,171.789 244.997 C 169.696 247.243,163.282 257.949,162.813 259.977 C 162.641 260.723,161.696 262.175,160.714 263.203 C 159.731 264.232,159.195 265.507,159.523 266.036 C 159.850 266.566,159.673 267.000,159.128 267.000 C 158.584 267.000,155.379 271.837,152.005 277.750 L 145.872 288.500 116.009 288.500 L 86.145 288.500 80.492 291.459 C 65.689 299.205,64.712 303.391,65.166 357.074 L 65.500 396.647 68.518 402.545 C 76.274 417.703,79.056 418.261,144.500 417.791 C 196.205 417.419,199.736 417.145,203.903 413.185 C 204.878 412.258,206.536 411.006,207.588 410.402 C 211.072 408.402,215.032 400.644,216.113 393.702 C 217.951 381.896,216.846 310.315,214.754 305.662 C 212.476 300.595,207.195 294.000,205.416 294.000 C 204.637 294.000,204.000 293.618,204.000 293.152 C 204.000 290.744,194.340 288.539,181.724 288.066 C 180.092 288.005,180.068 287.768,181.434 285.127 C 182.252 283.547,182.638 281.972,182.293 281.627 C 181.949 281.282,182.149 281.000,182.738 281.000 C 183.952 281.000,189.333 272.259,189.333 270.288 C 189.333 269.579,189.670 269.000,190.081 269.000 C 190.492 269.000,191.919 267.088,193.250 264.750 C 194.582 262.413,198.961 254.885,202.981 248.023 C 207.001 241.160,211.071 234.185,212.026 232.523 C 212.981 230.860,217.641 222.902,222.381 214.837 C 227.122 206.772,231.000 199.685,231.000 199.087 C 231.000 198.489,231.348 198.000,231.773 198.000 C 232.198 198.000,233.393 196.425,234.430 194.500 L 236.315 191.000 258.522 191.000 L 280.728 191.000 282.447 195.500 C 283.392 197.975,284.578 200.000,285.083 200.000 C 285.587 200.000,286.000 200.470,286.000 201.043 C 286.000 201.617,290.563 209.830,296.139 219.293 C 301.716 228.757,308.078 239.650,310.278 243.500 C 321.175 262.573,328.238 274.000,329.130 274.000 C 329.673 274.000,329.840 274.450,329.500 275.000 C 329.160 275.550,329.385 276.000,330.000 276.000 C 330.615 276.000,330.850 276.434,330.523 276.964 C 330.195 277.493,330.731 278.768,331.714 279.797 C 332.696 280.825,333.637 282.304,333.805 283.083 C 333.973 283.863,334.787 285.019,335.615 285.654 C 337.749 287.291,336.552 287.706,327.500 288.464 C 319.261 289.155,314.000 290.580,314.000 292.121 C 314.000 292.605,313.360 293.000,312.577 293.000 C 308.872 293.000,302.508 301.629,300.485 309.396 C 298.396 317.416,298.333 388.906,300.408 396.700 C 302.667 405.185,307.658 411.128,316.000 415.267 C 322.126 418.307,427.583 418.825,434.140 415.847 C 439.900 413.231,446.106 406.980,448.659 401.221 C 451.968 393.761,452.322 312.508,449.078 305.363 C 442.230 290.284,437.348 288.575,399.929 288.165 L 369.359 287.830 362.429 275.786 C 358.618 269.162,354.825 262.975,354.000 262.038 C 353.175 261.100,352.362 259.733,352.194 259.000 C 351.639 256.578,346.828 249.000,345.846 249.000 C 345.316 249.000,345.144 248.577,345.463 248.060 C 345.783 247.542,345.190 246.305,344.145 245.310 C 343.100 244.314,337.301 234.950,331.258 224.500 C 325.215 214.050,318.207 202.012,315.684 197.750 C 312.021 191.560,311.440 189.995,312.799 189.977 C 315.633 189.938,324.376 184.650,325.565 182.256 C 326.177 181.022,326.924 180.258,327.225 180.558 C 327.525 180.859,328.835 178.943,330.136 176.302 L 332.500 171.500 332.780 126.768 C 333.111 73.831,332.962 73.181,318.612 64.951 L 313.500 62.019 258.500 62.031 C 207.420 62.043,203.215 62.174,199.500 63.867 " stroke="none" fill-rule="evenodd"></path>
</g>
</svg>