<svg id="svg" xmlns="http://www.w3.org/2000/svg" xmlns:xlink="http://www.w3.org/1999/xlink" width="400" height="400" viewBox="0, 0, 400,400"><g id="svgg"><path id="path0" d="M310.667 152.537 C 302.007 161.522,297.771 190.386,301.747 213.320 C 302.880 219.858,302.456 220.667,297.898 220.667 C 295.496 220.667,295.354 220.541,294.681 217.833 C 291.698 205.825,280.848 196.366,276.925 202.354 C 274.627 205.861,277.614 215.424,283.197 222.439 L 285.935 225.878 284.835 229.746 C 283.409 234.759,278.658 240.000,275.541 240.000 C 270.688 240.000,266.024 231.457,264.633 220.019 L 263.940 214.317 267.900 205.992 C 281.257 177.914,283.714 158.806,274.735 152.839 C 263.590 145.433,254.670 166.665,254.667 200.605 L 254.667 207.544 251.409 212.674 C 249.618 215.496,247.947 218.449,247.698 219.236 C 246.878 221.817,244.230 221.111,243.687 218.167 C 241.818 208.049,232.603 198.659,227.033 201.197 C 222.842 203.107,225.918 215.478,232.357 222.605 C 235.065 225.602,235.116 226.083,233.257 231.052 C 229.128 242.086,221.313 242.687,216.617 232.331 C 212.214 222.619,212.202 215.056,216.576 206.218 C 230.621 177.842,232.889 157.619,222.620 152.309 C 212.006 146.821,204.963 163.539,203.556 197.562 L 203.120 208.124 200.461 212.229 C 198.999 214.486,197.385 217.328,196.874 218.543 C 195.420 222.007,193.459 221.247,192.035 216.667 C 189.094 207.206,183.290 200.667,177.836 200.667 C 171.612 200.667,173.483 213.704,180.960 222.439 C 186.931 229.414,176.854 244.201,169.872 238.709 C 167.300 236.686,164.039 229.875,162.972 224.295 C 161.350 215.817,161.563 214.443,165.930 205.262 C 180.917 173.757,181.878 153.013,168.421 151.511 C 159.628 150.529,154.189 165.568,152.591 195.281 L 151.894 208.229 144.816 219.615 C 135.259 234.988,133.437 236.659,130.100 233.107 C 127.678 230.529,127.279 227.665,127.433 214.000 C 127.594 199.741,127.404 198.837,123.791 196.633 C 117.286 192.667,115.751 196.087,114.869 216.519 L 114.453 226.130 110.658 230.119 C 102.417 238.779,99.893 234.139,100.603 211.630 C 100.957 200.414,99.542 198.815,87.798 197.160 L 81.930 196.333 80.349 192.442 C 77.853 186.298,75.037 184.000,70.003 184.000 C 62.810 184.000,61.232 193.394,67.062 201.508 L 69.360 204.707 67.600 209.187 C 60.678 226.806,49.692 238.498,45.584 232.617 L 44.169 230.590 46.681 223.457 C 55.582 198.187,56.645 167.630,48.972 157.571 C 43.198 150.001,34.566 150.876,29.973 159.496 C 26.385 166.231,24.011 191.367,26.196 199.487 C 26.663 201.224,26.607 201.278,24.966 200.654 C 0.390 191.310,-10.433 236.018,13.508 247.982 C 21.844 252.147,30.273 250.241,36.745 242.727 L 39.590 239.425 42.147 241.450 C 53.946 250.794,66.763 240.531,77.675 213.000 L 79.789 207.667 82.723 207.896 C 88.147 208.321,88.242 208.486,87.743 216.572 C 86.091 243.373,98.766 255.527,114.773 242.489 L 118.491 239.461 120.862 242.297 C 128.800 251.794,138.547 248.481,149.000 232.734 C 153.770 225.548,153.479 225.642,155.034 230.779 C 161.967 253.676,185.762 256.723,192.192 235.538 L 193.667 230.679 196.667 230.670 C 199.798 230.661,204.000 228.679,204.000 227.210 C 204.000 225.781,205.133 227.540,206.010 230.333 C 213.417 253.895,237.033 256.866,243.449 235.043 L 244.834 230.333 247.917 230.552 C 250.336 230.723,251.525 230.414,253.434 229.117 L 255.869 227.463 257.285 231.349 C 265.697 254.417,288.040 256.602,294.615 235.000 L 296.035 230.333 301.308 230.330 L 306.581 230.327 309.107 234.663 C 316.768 247.812,326.481 250.629,340.202 243.681 L 346.456 240.514 349.538 242.867 C 365.274 254.879,400.000 245.557,400.000 229.323 C 400.000 221.695,395.776 219.771,391.243 225.333 C 383.092 235.336,371.548 239.079,361.463 234.989 L 358.592 233.825 363.250 231.572 C 385.467 220.826,386.177 192.400,364.228 192.441 C 350.299 192.468,338.857 207.926,340.265 224.815 L 340.695 229.963 338.181 231.616 C 330.198 236.864,325.208 235.421,320.306 226.447 L 317.819 221.894 319.233 220.113 C 331.960 204.090,336.315 186.378,332.303 166.957 C 329.021 151.067,318.709 144.194,310.667 152.537 M43.859 174.333 C 44.218 184.923,40.811 209.690,38.648 212.209 C 37.628 213.396,36.333 199.109,36.333 186.667 C 36.333 172.590,37.234 167.333,40.194 164.145 L 41.607 162.623 42.597 164.478 C 43.259 165.717,43.678 168.993,43.859 174.333 M167.667 170.376 C 166.607 176.852,164.778 183.652,163.106 187.333 L 162.046 189.667 162.396 187.000 C 163.433 179.102,166.329 167.072,167.823 164.456 C 168.613 163.072,168.565 164.890,167.667 170.376 M269.379 172.420 C 268.129 178.536,264.828 189.272,264.716 187.587 C 264.481 184.047,269.797 163.214,270.459 165.087 C 270.605 165.501,270.119 168.801,269.379 172.420 M319.870 166.315 C 323.675 174.666,321.887 192.672,316.171 203.553 C 312.965 209.656,312.350 208.514,312.467 196.667 C 312.584 184.831,314.956 168.641,317.076 165.211 C 317.736 164.142,319.132 164.694,319.870 166.315 M218.342 172.387 C 217.260 178.162,214.219 188.667,213.630 188.667 C 212.863 188.667,215.758 174.522,217.791 168.333 C 219.344 163.608,219.614 165.597,218.342 172.387 M117.543 173.967 C 114.733 175.680,114.000 177.213,114.000 181.377 C 114.000 192.498,128.926 195.152,130.945 184.391 C 132.511 176.044,124.436 169.763,117.543 173.967 M366.114 205.770 C 369.868 209.167,364.443 218.055,356.006 222.330 L 352.631 224.040 352.940 222.520 C 353.110 221.684,353.426 219.700,353.641 218.112 C 354.773 209.773,362.304 202.322,366.114 205.770 M26.417 211.275 C 28.516 212.555,29.395 214.650,32.090 224.792 C 34.622 234.317,19.933 243.752,13.144 236.962 C 3.157 226.976,14.899 204.252,26.417 211.275 " stroke="none" fill="#000000" fill-rule="evenodd"></path></g></svg>