<svg id="svg" version="1.1" width="515" height="515" xmlns="http://www.w3.org/2000/svg" xmlns:xlink="http://www.w3.org/1999/xlink" style="display: block;"><g id="svgg"><path id="path0" d="M36.000 198.883 C 36.000 199.369,35.212 200.026,34.250 200.343 C 31.983 201.089,20.234 208.310,16.990 210.951 C 15.610 212.074,13.107 213.783,11.428 214.747 C -2.225 222.589,-2.075 222.226,5.750 228.503 C 8.912 231.041,13.448 234.778,15.828 236.808 C 18.208 238.839,20.908 240.904,21.828 241.397 C 22.748 241.891,23.667 242.433,23.870 242.601 C 24.453 243.083,16.869 250.015,13.000 252.536 C 5.272 257.573,-0.679 264.040,1.363 265.183 C 2.387 265.757,4.062 267.062,5.085 268.085 C 6.683 269.683,11.053 272.537,21.891 279.061 C 23.207 279.852,25.340 281.448,26.632 282.606 C 27.924 283.765,30.965 285.764,33.388 287.050 L 37.795 289.388 41.647 286.110 C 43.766 284.307,47.933 280.732,50.906 278.166 C 53.880 275.600,57.542 272.749,59.046 271.832 C 60.549 270.915,61.972 269.584,62.208 268.875 C 62.512 267.964,63.353 268.266,65.069 269.900 C 66.406 271.173,69.075 273.238,71.000 274.488 C 72.925 275.738,76.075 278.295,78.000 280.171 C 79.925 282.046,83.171 284.811,85.214 286.314 L 88.928 289.047 94.089 286.273 C 96.927 284.748,100.206 282.495,101.375 281.267 C 102.544 280.039,103.859 279.027,104.298 279.017 C 104.737 279.008,107.558 277.425,110.567 275.500 C 113.577 273.575,116.368 271.999,116.769 271.999 C 117.171 271.998,119.525 270.191,122.000 267.983 L 126.500 263.969 122.000 259.753 C 119.525 257.435,115.025 253.646,112.000 251.334 C 108.975 249.023,105.412 246.255,104.082 245.184 L 101.663 243.238 105.739 240.665 C 107.980 239.250,111.364 236.496,113.258 234.546 C 115.152 232.596,117.020 231.000,117.410 231.000 C 119.049 231.000,126.000 224.528,126.000 223.002 C 126.000 222.007,123.315 219.769,119.316 217.430 C 115.641 215.281,111.703 212.723,110.566 211.747 C 108.451 209.929,98.677 203.848,93.750 201.285 C 92.237 200.497,91.000 199.436,91.000 198.927 C 91.000 197.354,89.023 197.898,86.708 200.108 C 85.494 201.267,82.925 203.238,81.000 204.488 C 79.075 205.738,75.925 208.295,74.000 210.171 C 72.075 212.046,68.828 214.811,66.785 216.314 L 63.071 219.048 58.133 215.500 C 55.418 213.549,52.948 211.308,52.646 210.519 C 52.343 209.731,50.387 208.005,48.298 206.683 C 46.209 205.362,42.990 202.868,41.144 201.141 C 37.792 198.003,36.000 197.217,36.000 198.883 M357.393 219.582 C 357.727 220.452,358.000 237.552,358.000 257.582 L 358.000 294.000 365.500 294.000 C 371.500 294.000,373.000 293.700,373.000 292.500 C 373.000 290.437,375.682 290.609,376.880 292.750 C 377.684 294.186,379.275 294.500,385.751 294.500 C 391.934 294.500,394.022 294.121,395.393 292.750 C 396.355 291.788,397.739 291.000,398.468 291.000 C 406.295 291.000,412.121 263.635,406.557 253.000 C 400.453 241.332,386.673 235.971,377.000 241.500 C 375.625 242.286,374.163 242.945,373.750 242.965 C 373.337 242.984,373.000 237.375,373.000 230.500 L 373.000 218.000 364.893 218.000 C 357.911 218.000,356.870 218.220,357.393 219.582 M71.000 226.798 C 81.506 232.446,83.275 233.512,85.626 235.610 C 86.926 236.770,90.242 238.789,92.995 240.096 C 95.748 241.403,98.000 242.716,98.000 243.014 C 98.000 244.292,83.081 254.000,81.117 254.000 C 80.710 254.000,79.347 254.960,78.088 256.133 C 76.829 257.306,73.914 259.267,71.611 260.492 C 69.308 261.717,66.517 263.284,65.410 263.976 C 63.087 265.427,55.371 262.102,50.428 257.520 C 48.932 256.134,47.332 255.000,46.873 255.000 C 46.414 255.000,43.577 253.425,40.567 251.500 C 37.558 249.575,34.610 248.000,34.017 248.000 C 33.423 248.000,32.685 247.342,32.376 246.538 C 32.068 245.734,30.873 244.777,29.721 244.411 C 27.170 243.602,28.677 242.185,35.608 238.875 C 37.867 237.796,40.649 236.044,41.789 234.981 C 43.651 233.248,46.374 231.638,59.250 224.661 C 61.313 223.543,63.000 222.176,63.000 221.623 C 63.000 221.070,63.563 221.343,64.250 222.230 C 64.938 223.116,67.975 225.172,71.000 226.798 M144.000 257.500 L 144.000 294.000 159.500 294.000 C 169.167 294.000,175.000 293.624,175.000 293.000 C 175.000 292.450,176.012 291.995,177.250 291.989 C 184.371 291.955,195.235 286.142,197.037 281.402 C 197.540 280.081,198.428 279.000,199.011 279.000 C 204.219 279.000,206.617 250.447,202.223 240.750 C 201.040 238.137,199.630 236.000,199.090 236.000 C 198.551 236.000,197.522 234.782,196.805 233.293 C 194.787 229.108,188.161 225.044,181.197 223.720 C 177.789 223.072,175.000 222.195,175.000 221.771 C 175.000 221.347,168.025 221.000,159.500 221.000 L 144.000 221.000 144.000 257.500 M178.899 238.448 C 182.118 240.112,186.000 244.543,186.000 246.552 C 186.000 247.257,186.563 248.021,187.250 248.250 C 188.124 248.541,188.500 251.322,188.500 257.500 C 188.500 263.678,188.124 266.459,187.250 266.750 C 186.563 266.979,186.000 267.743,186.000 268.448 C 186.000 273.548,178.375 277.879,167.987 278.681 L 160.000 279.296 160.000 257.500 L 160.000 235.704 167.987 236.319 C 172.380 236.658,177.290 237.616,178.899 238.448 M262.169 240.617 C 254.777 242.535,247.022 249.720,247.004 254.667 C 247.002 255.308,246.438 256.021,245.750 256.250 C 244.107 256.798,243.983 275.740,245.615 276.786 C 246.229 277.178,247.068 278.625,247.481 280.000 C 248.742 284.198,253.068 289.131,256.882 290.718 C 258.872 291.547,260.821 292.737,261.213 293.362 C 262.152 294.860,277.810 294.897,278.785 293.404 C 279.178 292.801,280.650 292.027,282.056 291.684 C 285.395 290.868,293.317 282.438,294.821 278.101 C 296.984 271.865,295.938 255.047,293.265 253.070 C 292.841 252.757,291.146 250.513,289.497 248.084 C 284.551 240.797,273.310 237.725,262.169 240.617 M228.250 241.674 C 226.853 242.649,226.000 242.819,226.000 242.122 C 226.000 241.386,223.242 241.000,217.983 241.000 L 209.967 241.000 210.233 267.250 L 210.500 293.500 218.250 293.792 L 226.000 294.084 226.005 277.292 C 226.011 256.403,226.954 254.336,236.295 254.733 C 242.537 254.998,242.955 254.290,242.183 244.750 L 241.799 240.000 236.149 240.052 C 232.716 240.084,229.618 240.720,228.250 241.674 M319.750 241.572 C 318.157 242.436,317.000 242.630,317.000 242.032 C 317.000 241.409,313.832 241.000,309.000 241.000 L 301.000 241.000 301.000 276.500 L 301.000 312.000 309.000 312.000 L 317.000 312.000 317.000 301.500 C 317.000 291.333,317.773 288.985,319.880 292.750 C 321.108 294.945,337.036 295.391,337.750 293.250 C 337.979 292.563,338.702 292.000,339.355 292.000 C 341.524 292.000,347.702 286.134,349.055 282.791 C 349.787 280.981,350.862 279.178,351.443 278.785 C 353.022 277.717,352.829 256.829,351.224 254.974 C 350.522 254.163,348.528 251.304,346.794 248.621 C 341.687 240.719,327.931 237.134,319.750 241.572 M428.000 241.586 C 409.439 249.580,408.222 285.945,426.326 291.592 C 427.522 291.964,428.821 292.771,429.214 293.385 C 430.119 294.800,447.793 294.896,448.786 293.490 C 449.179 292.935,451.239 291.585,453.364 290.490 C 469.770 282.040,467.870 249.776,450.500 241.866 C 445.457 239.569,433.041 239.414,428.000 241.586 M463.000 241.886 C 463.000 243.540,465.688 247.960,468.255 250.527 C 469.662 251.934,471.504 254.529,472.348 256.293 C 473.193 258.057,475.012 261.019,476.392 262.876 L 478.900 266.253 475.336 271.876 C 473.375 274.969,471.148 278.210,470.386 279.079 C 469.624 279.947,469.000 281.185,469.000 281.829 C 469.000 282.473,468.611 283.000,468.136 283.000 C 466.847 283.000,462.000 290.349,462.000 292.304 C 462.000 293.736,463.082 294.000,468.955 294.000 C 476.952 294.000,478.930 292.645,484.569 283.303 C 487.575 278.323,490.000 277.607,490.000 281.700 C 490.000 282.415,490.422 283.000,490.938 283.000 C 491.455 283.000,493.367 285.462,495.188 288.472 L 498.500 293.943 506.750 293.972 C 512.082 293.990,515.000 293.612,515.000 292.904 C 515.000 291.475,504.732 275.893,501.474 272.377 C 496.973 267.521,497.206 265.820,503.514 257.439 C 506.660 253.258,509.885 248.533,510.680 246.939 C 511.476 245.344,512.548 243.779,513.063 243.461 C 515.694 241.835,513.167 241.000,505.614 241.000 L 497.228 241.000 495.661 244.303 C 494.799 246.120,492.756 249.005,491.122 250.715 L 488.150 253.825 485.575 249.934 C 484.159 247.794,483.000 245.609,483.000 245.078 C 483.000 242.550,478.356 241.000,470.777 241.000 C 466.500 241.000,463.000 241.399,463.000 241.886 M274.399 254.136 C 281.363 257.309,281.840 275.339,275.055 278.970 C 266.051 283.789,258.224 274.516,260.963 262.275 C 262.745 254.313,267.914 251.181,274.399 254.136 M331.816 255.293 C 337.260 259.685,337.888 271.958,332.923 276.923 C 323.185 286.661,313.247 274.593,317.610 258.328 C 318.808 253.860,327.688 251.962,331.816 255.293 M388.816 255.293 C 395.589 260.757,394.315 276.300,386.881 278.892 C 375.891 282.723,369.659 273.060,373.613 258.317 C 374.770 254.000,384.753 252.014,388.816 255.293 M442.646 254.189 C 450.829 257.148,451.429 274.454,443.500 278.840 C 441.850 279.753,440.163 280.950,439.750 281.500 C 439.263 282.149,438.733 282.089,438.240 281.329 C 437.822 280.685,436.327 279.869,434.918 279.516 C 427.052 277.541,426.820 257.879,434.622 254.434 C 438.346 252.789,438.740 252.777,442.646 254.189 M60.500 273.000 C 59.505 274.100,58.175 275.000,57.546 275.000 C 56.917 275.000,54.430 276.896,52.019 279.213 C 39.810 290.944,36.952 291.950,29.965 286.975 C 26.064 284.197,25.859 284.372,26.198 290.181 L 26.500 295.362 33.378 299.080 C 37.161 301.124,40.536 303.229,40.878 303.757 C 41.495 304.710,52.519 310.959,58.750 313.889 C 60.538 314.729,62.000 315.773,62.000 316.208 C 62.000 317.298,64.754 317.211,65.167 316.109 C 65.472 315.292,71.285 311.933,81.500 306.669 C 83.700 305.536,85.800 304.167,86.168 303.628 C 86.535 303.089,89.910 301.000,93.668 298.985 L 100.500 295.322 100.802 290.161 C 100.969 287.323,100.919 285.000,100.693 285.000 C 100.467 285.000,97.690 286.383,94.522 288.073 L 88.763 291.147 86.077 288.573 C 84.599 287.158,82.923 286.000,82.351 286.000 C 81.779 286.000,79.103 283.751,76.405 281.001 C 73.707 278.252,71.016 276.002,70.424 276.001 C 69.833 276.001,68.292 274.875,67.000 273.500 C 64.160 270.477,62.873 270.378,60.500 273.000 " stroke="none" fill="#000000" fill-rule="evenodd"></path></g></svg>