<svg version="1.1" width="400" height="400" xmlns="http://www.w3.org/2000/svg"><g><path d="M187.613 12.141 C 187.389 12.888,186.240 18.450,185.061 24.500 C 180.655 47.088,177.832 56.897,165.920 91.000 C 161.856 102.636,154.395 121.520,151.443 127.639 C 149.549 131.566,148.000 135.130,148.000 135.559 C 148.000 136.256,144.788 143.087,136.508 160.000 C 131.261 170.720,128.709 175.567,125.375 181.151 C 123.519 184.259,122.000 187.242,122.000 187.780 C 122.000 188.867,115.537 199.863,113.987 201.413 C 113.444 201.956,113.000 203.125,113.000 204.011 C 113.000 204.898,112.115 206.573,111.034 207.733 C 109.952 208.894,107.441 212.916,105.452 216.672 C 103.464 220.427,101.207 224.202,100.436 225.059 C 99.666 225.917,98.015 228.427,96.768 230.639 C 93.801 235.898,88.892 243.367,87.985 244.000 C 87.592 244.275,86.989 245.400,86.646 246.500 C 86.303 247.600,84.439 250.300,82.504 252.500 C 80.569 254.700,78.715 257.512,78.384 258.750 C 78.054 259.988,77.455 261.000,77.053 261.000 C 76.651 261.000,74.434 263.941,72.126 267.536 C 69.818 271.131,66.471 275.743,64.688 277.786 C 62.904 279.829,60.819 282.738,60.054 284.250 C 59.288 285.762,58.349 287.000,57.967 287.000 C 57.585 287.000,55.973 288.913,54.386 291.250 C 52.799 293.587,49.925 297.227,48.000 299.338 C 46.075 301.449,44.079 303.924,43.565 304.838 C 43.050 305.752,42.150 307.000,41.565 307.611 C 40.979 308.222,39.150 310.412,37.500 312.477 C 35.850 314.542,33.017 317.820,31.205 319.760 C 29.393 321.701,27.250 324.237,26.443 325.395 C 25.116 327.298,17.845 335.279,4.750 349.206 L 0.000 354.257 -0.000 370.491 L -0.000 386.725 2.250 386.445 C 3.487 386.291,6.525 385.476,9.000 384.636 C 19.942 380.918,39.928 375.026,44.500 374.170 C 47.250 373.654,56.700 371.562,65.500 369.519 C 74.300 367.477,84.650 365.438,88.500 364.989 C 92.350 364.540,102.925 363.044,112.000 361.665 C 127.608 359.293,132.654 358.706,151.329 357.091 C 163.667 356.023,237.320 356.644,249.500 357.918 C 261.477 359.170,287.590 362.767,290.000 363.495 C 290.825 363.745,295.680 364.417,300.788 364.989 C 310.571 366.084,311.503 366.273,330.397 371.015 C 336.940 372.657,343.169 374.000,344.238 374.000 C 345.308 374.000,352.554 375.963,360.341 378.362 C 368.129 380.760,376.300 383.195,378.500 383.772 C 380.700 384.348,384.510 385.567,386.966 386.480 C 390.721 387.875,392.114 387.948,395.716 386.940 L 400.000 385.740 400.000 263.492 C 400.000 166.877,399.738 141.042,398.750 140.278 C 395.041 137.408,394.046 137.950,384.228 148.200 C 378.877 153.785,373.534 159.287,372.354 160.427 C 371.173 161.567,365.773 166.786,360.354 172.025 C 354.934 177.264,346.942 184.689,342.594 188.525 C 338.246 192.361,331.510 198.537,327.625 202.250 C 323.740 205.962,320.289 209.000,319.955 209.000 C 319.622 209.000,318.370 210.042,317.174 211.314 L 315.000 213.629 315.000 279.737 L 315.000 345.845 311.441 347.019 C 308.870 347.868,307.136 347.899,305.191 347.131 C 281.958 337.953,209.344 332.237,170.000 336.488 C 161.475 337.410,150.450 338.557,145.500 339.038 C 137.287 339.836,128.984 341.426,111.000 345.644 C 107.425 346.483,102.250 347.547,99.500 348.010 C 96.750 348.472,89.100 350.501,82.500 352.518 C 75.900 354.535,68.700 356.571,66.500 357.043 C 64.300 357.515,58.675 359.490,54.000 361.432 C 49.325 363.374,44.825 364.949,44.000 364.932 C 41.599 364.881,53.440 359.453,61.305 356.998 C 65.262 355.763,68.950 354.413,69.500 353.998 C 71.013 352.857,85.598 348.000,87.512 348.000 C 88.433 348.000,93.533 346.679,98.844 345.065 C 146.252 330.653,224.797 327.107,276.500 337.046 C 287.291 339.120,298.959 340.002,305.750 339.256 L 310.000 338.790 310.000 208.395 L 310.000 78.000 307.059 78.000 C 305.441 78.000,303.840 77.550,303.500 77.000 C 302.489 75.364,299.276 75.864,298.683 77.750 C 296.862 83.541,294.449 89.458,291.036 96.500 C 288.903 100.900,286.380 106.412,285.428 108.750 C 284.475 111.087,283.397 113.000,283.032 113.000 C 282.667 113.000,281.054 115.812,279.448 119.250 C 277.842 122.688,275.059 127.688,273.264 130.362 C 271.469 133.036,270.000 136.074,270.000 137.112 C 270.000 138.150,269.613 139.000,269.139 139.000 C 268.665 139.000,267.204 141.025,265.891 143.500 C 264.578 145.975,263.220 148.000,262.873 148.000 C 262.526 148.000,261.653 149.463,260.932 151.250 C 260.212 153.037,258.207 156.300,256.478 158.500 C 254.749 160.700,252.261 164.300,250.949 166.500 C 249.637 168.700,247.723 171.400,246.695 172.500 C 245.667 173.600,243.998 176.105,242.986 178.067 C 241.974 180.029,240.365 182.279,239.411 183.067 C 238.457 183.855,236.961 185.672,236.087 187.104 C 235.214 188.537,232.699 191.738,230.500 194.219 C 228.300 196.699,225.228 200.345,223.674 202.321 C 220.246 206.678,214.954 212.766,209.250 218.915 L 205.000 223.496 205.000 268.141 C 205.000 307.661,204.821 312.855,203.440 313.384 C 202.583 313.714,196.620 314.455,190.190 315.032 C 183.761 315.609,171.975 317.225,164.000 318.623 C 156.025 320.021,146.762 321.525,143.417 321.965 C 133.286 323.297,97.331 333.416,89.562 337.122 C 87.396 338.155,84.836 339.000,83.872 339.000 C 82.909 339.000,77.770 341.046,72.453 343.548 C 67.136 346.049,62.271 347.901,61.643 347.664 C 61.014 347.427,61.400 346.882,62.500 346.454 C 63.600 346.025,65.625 344.928,67.000 344.016 C 68.375 343.104,71.750 341.532,74.500 340.523 C 78.995 338.874,82.716 337.299,94.000 332.270 C 95.925 331.412,99.075 330.368,101.000 329.950 C 102.925 329.532,108.325 327.773,113.000 326.042 C 117.675 324.310,123.525 322.515,126.000 322.053 C 128.475 321.592,136.798 319.589,144.496 317.604 C 152.194 315.618,162.994 313.538,168.496 312.980 C 187.097 311.096,193.583 310.147,196.290 308.914 L 198.987 307.685 199.243 160.723 L 199.500 13.760 197.357 12.946 C 192.571 11.126,188.030 10.751,187.613 12.141 M59.917 348.377 C 58.848 349.345,51.000 352.978,51.000 352.506 C 51.000 351.635,57.378 348.008,58.917 348.004 C 59.696 348.002,60.146 348.170,59.917 348.377 " stroke="none" fill-rule="evenodd"></path></g></svg>