<svg version="1.1" width="400" height="400" xmlns="http://www.w3.org/2000/svg"><g><path d="M157.750 19.309 C 153.488 19.859,150.000 20.627,150.000 21.016 C 150.000 21.405,148.875 21.508,147.500 21.245 C 146.125 20.982,145.000 21.187,145.000 21.700 C 145.000 22.213,142.075 23.214,138.500 23.925 C 134.925 24.636,132.000 25.579,132.000 26.021 C 132.000 26.463,130.177 27.132,127.949 27.509 C 125.721 27.885,123.372 28.756,122.729 29.445 C 122.085 30.134,120.758 30.488,119.780 30.232 C 118.801 29.976,118.000 30.197,118.000 30.723 C 118.000 31.249,116.200 32.274,114.000 33.000 C 111.800 33.726,110.000 34.653,110.000 35.060 C 110.000 35.466,107.750 36.608,105.000 37.597 C 102.250 38.586,100.000 39.756,100.000 40.198 C 100.000 40.639,99.519 41.000,98.930 41.000 C 98.342 41.000,95.898 42.350,93.500 44.000 C 91.102 45.650,88.766 47.000,88.310 47.000 C 87.854 47.000,86.919 47.900,86.232 49.000 C 85.545 50.100,84.412 51.000,83.714 51.000 C 83.016 51.000,81.642 51.938,80.661 53.083 C 79.549 54.381,78.252 54.927,77.219 54.531 C 76.307 54.181,75.891 54.224,76.294 54.628 C 77.032 55.366,72.259 61.000,70.896 61.000 C 70.220 61.000,59.705 71.551,53.457 78.500 C 51.973 80.150,50.330 81.376,49.805 81.225 C 49.281 81.074,49.136 81.412,49.485 81.975 C 49.833 82.539,49.694 83.000,49.176 83.000 C 48.657 83.000,47.969 83.787,47.646 84.750 C 46.778 87.335,44.532 90.534,39.750 96.000 C 38.788 97.100,38.000 98.477,38.000 99.059 C 38.000 99.641,37.555 99.843,37.011 99.507 C 36.437 99.152,36.281 99.570,36.640 100.504 C 37.011 101.471,36.408 102.903,35.128 104.095 C 33.958 105.186,33.000 106.762,33.000 107.598 C 33.000 108.434,32.592 108.866,32.093 108.558 C 31.595 108.249,31.421 108.892,31.707 109.986 C 32.036 111.245,31.638 112.202,30.624 112.591 C 29.743 112.929,28.531 115.027,27.932 117.253 C 27.332 119.480,26.202 121.940,25.421 122.722 C 24.639 123.503,24.000 124.812,24.000 125.630 C 24.000 126.449,23.592 126.866,23.093 126.558 C 22.595 126.249,22.434 126.944,22.737 128.101 C 23.039 129.258,22.882 130.496,22.388 130.852 C 21.278 131.652,19.346 137.243,18.449 142.250 C 18.080 144.313,17.424 146.000,16.992 146.000 C 16.560 146.000,15.638 149.825,14.943 154.500 C 14.247 159.175,13.314 163.000,12.868 163.000 C 12.423 163.000,12.059 177.175,12.059 194.500 C 12.059 211.825,12.423 226.000,12.868 226.000 C 13.314 226.000,14.247 229.825,14.943 234.500 C 15.638 239.175,16.560 243.000,16.992 243.000 C 17.424 243.000,18.080 244.688,18.449 246.750 C 19.346 251.757,21.278 257.348,22.388 258.148 C 22.882 258.504,23.039 259.742,22.737 260.899 C 22.434 262.056,22.595 262.751,23.093 262.442 C 23.592 262.134,24.000 262.551,24.000 263.370 C 24.000 264.188,24.639 265.497,25.421 266.278 C 26.202 267.060,27.332 269.520,27.932 271.747 C 28.531 273.973,29.743 276.071,30.624 276.409 C 31.638 276.798,32.036 277.755,31.707 279.014 C 31.421 280.108,31.595 280.751,32.093 280.442 C 32.592 280.134,33.000 280.566,33.000 281.402 C 33.000 282.238,33.958 283.814,35.128 284.905 C 36.408 286.097,37.011 287.529,36.640 288.496 C 36.281 289.430,36.437 289.848,37.011 289.493 C 37.555 289.157,38.000 289.359,38.000 289.941 C 38.000 290.523,38.900 292.012,40.000 293.250 C 44.248 298.029,46.780 301.672,47.646 304.250 C 47.969 305.212,48.657 306.000,49.176 306.000 C 49.694 306.000,49.833 306.461,49.485 307.025 C 49.136 307.588,49.281 307.926,49.805 307.775 C 50.330 307.624,51.973 308.850,53.457 310.500 C 59.705 317.449,70.220 328.000,70.896 328.000 C 72.259 328.000,77.032 333.634,76.294 334.372 C 75.891 334.776,76.307 334.819,77.219 334.469 C 78.252 334.073,79.549 334.619,80.661 335.917 C 81.642 337.062,83.016 338.000,83.714 338.000 C 84.412 338.000,85.545 338.900,86.232 340.000 C 86.919 341.100,87.854 342.000,88.310 342.000 C 88.766 342.000,91.102 343.350,93.500 345.000 C 95.898 346.650,98.342 348.000,98.930 348.000 C 99.519 348.000,100.000 348.361,100.000 348.802 C 100.000 349.244,102.250 350.414,105.000 351.403 C 107.750 352.392,110.000 353.534,110.000 353.940 C 110.000 354.347,111.800 355.274,114.000 356.000 C 116.200 356.726,118.000 357.751,118.000 358.277 C 118.000 358.803,118.801 359.024,119.780 358.768 C 120.758 358.512,122.085 358.866,122.729 359.555 C 123.372 360.244,125.721 361.115,127.949 361.491 C 130.177 361.868,132.000 362.537,132.000 362.979 C 132.000 363.421,134.925 364.364,138.500 365.075 C 142.075 365.786,145.000 366.787,145.000 367.300 C 145.000 367.813,146.125 368.018,147.500 367.755 C 148.875 367.492,150.000 367.576,150.000 367.941 C 150.000 369.215,169.603 371.019,183.333 371.010 C 199.878 370.998,201.618 369.332,187.418 367.096 C 182.513 366.324,178.209 365.247,177.852 364.703 C 177.496 364.159,176.259 363.961,175.102 364.263 C 173.946 364.565,173.000 364.456,173.000 364.020 C 173.000 363.584,170.980 362.924,168.512 362.554 C 166.044 362.184,163.445 361.302,162.737 360.594 C 162.029 359.887,159.099 358.743,156.225 358.054 C 153.351 357.365,151.000 356.369,151.000 355.841 C 151.000 355.314,150.550 355.160,150.000 355.500 C 149.450 355.840,149.000 355.692,149.000 355.170 C 149.000 354.649,147.439 353.930,145.532 353.572 C 143.625 353.214,141.487 352.351,140.782 351.655 C 140.077 350.958,138.684 350.079,137.687 349.701 C 136.689 349.323,136.127 348.603,136.438 348.100 C 136.749 347.598,136.102 347.422,135.001 347.710 C 133.838 348.014,133.000 347.741,133.000 347.058 C 133.000 346.411,132.550 346.160,132.000 346.500 C 131.450 346.840,131.000 346.694,131.000 346.176 C 131.000 345.657,130.055 344.986,128.899 344.684 C 127.563 344.334,127.073 343.690,127.554 342.913 C 128.020 342.159,127.893 341.948,127.223 342.362 C 126.250 342.964,122.789 341.068,116.269 336.359 C 115.042 335.473,114.324 334.285,114.673 333.720 C 115.051 333.108,114.815 332.996,114.091 333.443 C 112.704 334.301,108.764 331.191,109.576 329.878 C 109.866 329.408,109.443 329.276,108.636 329.586 C 107.676 329.955,103.021 325.967,95.196 318.075 C 88.612 311.434,83.454 306.000,83.735 306.000 C 84.015 306.000,83.744 305.396,83.131 304.658 C 82.519 303.920,82.351 302.948,82.759 302.498 C 83.166 302.048,82.953 301.994,82.284 302.378 C 81.172 303.016,79.487 301.114,74.000 293.025 C 73.175 291.808,71.487 289.418,70.250 287.712 C 69.012 286.007,68.000 284.010,68.000 283.274 C 68.000 282.539,67.328 281.679,66.506 281.364 C 65.684 281.048,65.260 280.388,65.565 279.895 C 65.869 279.403,65.589 279.000,64.942 279.000 C 64.259 279.000,63.986 278.162,64.290 276.999 C 64.578 275.898,64.453 275.220,64.013 275.492 C 63.573 275.764,62.932 274.864,62.588 273.493 C 62.243 272.122,61.594 271.000,61.143 271.000 C 60.693 271.000,59.464 268.413,58.412 265.250 C 57.361 262.087,55.979 258.946,55.341 258.270 C 54.704 257.593,53.877 255.231,53.503 253.020 C 53.130 250.809,52.471 249.000,52.040 249.000 C 51.608 249.000,50.440 245.063,49.444 240.250 C 48.448 235.438,47.313 231.275,46.921 231.000 C 46.009 230.360,44.007 214.103,44.003 207.309 C 44.001 204.454,43.550 201.840,43.000 201.500 C 41.697 200.695,41.697 188.305,43.000 187.500 C 43.550 187.160,44.001 184.546,44.003 181.691 C 44.007 174.897,46.009 158.640,46.921 158.000 C 47.313 157.725,48.448 153.563,49.444 148.750 C 50.440 143.938,51.608 140.000,52.040 140.000 C 52.471 140.000,53.130 138.191,53.503 135.980 C 53.877 133.769,54.704 131.407,55.341 130.730 C 55.979 130.054,57.361 126.912,58.412 123.750 C 59.464 120.587,60.693 118.000,61.143 118.000 C 61.594 118.000,62.243 116.878,62.588 115.507 C 62.932 114.136,63.573 113.236,64.013 113.508 C 64.453 113.780,64.578 113.102,64.290 112.001 C 63.986 110.838,64.259 110.000,64.942 110.000 C 65.589 110.000,65.869 109.597,65.565 109.105 C 65.260 108.612,65.684 107.952,66.506 107.636 C 67.328 107.321,68.000 106.461,68.000 105.726 C 68.000 104.990,69.013 102.993,70.250 101.288 C 71.488 99.582,73.175 97.192,74.000 95.975 C 79.487 87.886,81.172 85.984,82.284 86.622 C 82.953 87.006,83.166 86.952,82.759 86.502 C 82.351 86.052,82.519 85.080,83.131 84.342 C 83.744 83.604,84.015 83.000,83.735 83.000 C 83.454 83.000,88.612 77.566,95.196 70.925 C 103.021 63.033,107.676 59.045,108.636 59.414 C 109.443 59.724,109.866 59.592,109.576 59.122 C 108.764 57.809,112.704 54.699,114.091 55.557 C 114.815 56.004,115.051 55.892,114.673 55.280 C 114.324 54.715,115.042 53.527,116.269 52.641 C 122.789 47.932,126.250 46.036,127.223 46.638 C 127.893 47.052,128.020 46.841,127.554 46.087 C 127.073 45.310,127.563 44.666,128.899 44.316 C 130.055 44.014,131.000 43.343,131.000 42.824 C 131.000 42.306,131.450 42.160,132.000 42.500 C 132.550 42.840,133.000 42.589,133.000 41.942 C 133.000 41.259,133.838 40.986,135.001 41.290 C 136.102 41.578,136.749 41.402,136.438 40.900 C 136.127 40.397,136.689 39.677,137.687 39.299 C 138.684 38.921,140.077 38.042,140.782 37.345 C 141.487 36.649,143.625 35.786,145.532 35.428 C 147.439 35.070,149.000 34.351,149.000 33.830 C 149.000 33.308,149.450 33.160,150.000 33.500 C 150.550 33.840,151.000 33.686,151.000 33.159 C 151.000 32.631,153.351 31.635,156.225 30.946 C 159.099 30.257,162.029 29.113,162.737 28.406 C 163.445 27.698,166.044 26.816,168.512 26.446 C 170.980 26.076,173.000 25.388,173.000 24.918 C 173.000 24.448,173.720 24.339,174.601 24.677 C 175.481 25.015,176.494 24.859,176.851 24.331 C 177.208 23.803,181.739 22.725,186.920 21.935 C 192.451 21.093,196.511 19.984,196.754 19.250 C 197.263 17.709,169.835 17.750,157.750 19.309 M201.250 24.669 C 197.087 24.910,194.000 25.538,194.000 26.145 C 194.000 26.780,192.244 27.062,189.595 26.851 C 187.173 26.658,185.352 26.760,185.548 27.078 C 185.745 27.396,182.479 28.189,178.291 28.840 C 174.103 29.491,170.187 30.410,169.588 30.883 C 168.990 31.356,166.137 32.335,163.250 33.060 C 160.363 33.785,158.000 34.690,158.000 35.070 C 158.000 35.451,155.975 36.272,153.500 36.896 C 151.025 37.519,149.000 38.472,149.000 39.014 C 149.000 39.556,148.662 39.926,148.250 39.836 C 146.705 39.499,133.236 46.496,131.888 48.335 C 131.552 48.795,131.102 49.033,130.888 48.866 C 130.281 48.389,119.237 56.131,115.258 59.824 C 113.287 61.653,110.868 63.210,109.880 63.284 C 108.893 63.358,108.306 63.639,108.575 63.908 C 109.341 64.674,91.746 81.961,90.797 81.375 C 90.331 81.087,90.060 81.222,90.195 81.676 C 90.525 82.792,84.956 91.000,83.867 91.000 C 83.390 91.000,83.000 91.649,83.000 92.443 C 83.000 93.237,82.183 94.475,81.184 95.193 C 80.185 95.912,79.064 97.316,78.691 98.313 C 78.299 99.363,77.525 99.824,76.853 99.409 C 76.157 98.979,75.960 99.126,76.362 99.777 C 76.925 100.688,74.291 105.675,71.227 109.500 C 70.787 110.050,69.793 112.075,69.020 114.000 C 68.246 115.925,67.322 117.725,66.965 118.000 C 66.608 118.275,65.509 120.638,64.522 123.250 C 63.536 125.862,62.411 128.000,62.023 128.000 C 61.636 128.000,60.742 130.587,60.039 133.750 C 59.335 136.912,58.420 139.725,58.005 140.000 C 57.591 140.275,56.934 141.963,56.546 143.750 L 55.841 147.000 216.296 147.000 C 304.545 147.000,378.156 147.281,379.875 147.625 C 383.540 148.358,384.247 144.915,381.510 139.667 C 380.697 138.109,379.539 135.003,378.937 132.766 C 378.335 130.529,377.164 128.021,376.335 127.192 C 375.505 126.363,375.026 124.644,375.269 123.372 C 375.512 122.101,375.326 121.298,374.856 121.589 C 374.385 121.880,374.000 121.449,374.000 120.630 C 374.000 119.812,373.410 118.548,372.689 117.821 C 371.967 117.095,370.732 115.037,369.944 113.250 C 369.156 111.463,368.226 110.000,367.877 110.000 C 367.528 110.000,366.683 108.650,366.000 107.000 C 365.317 105.350,364.376 104.000,363.910 104.000 C 363.444 104.000,363.322 103.325,363.638 102.500 C 363.955 101.675,363.689 101.000,363.048 101.000 C 362.407 101.000,362.203 100.480,362.595 99.845 C 363.039 99.128,362.870 98.963,362.147 99.409 C 361.475 99.825,360.705 99.364,360.318 98.313 C 359.951 97.316,359.054 96.140,358.325 95.700 C 357.596 95.260,357.000 94.412,357.000 93.815 C 357.000 93.218,355.988 91.719,354.750 90.484 C 351.456 87.197,348.464 82.649,348.839 81.500 C 349.019 80.950,348.815 80.852,348.385 81.282 C 347.325 82.342,329.943 64.924,330.711 63.572 C 331.047 62.982,330.968 62.818,330.537 63.207 C 329.910 63.772,324.354 60.387,322.000 58.006 C 321.725 57.728,318.800 55.706,315.500 53.514 C 312.200 51.321,309.169 49.071,308.765 48.514 C 308.284 47.849,308.020 47.845,308.000 48.500 C 307.980 49.167,307.724 49.167,307.235 48.500 C 305.779 46.519,292.385 39.480,290.750 39.836 C 290.337 39.926,290.000 39.556,290.000 39.014 C 290.000 38.472,287.975 37.519,285.500 36.896 C 283.025 36.272,281.000 35.438,281.000 35.040 C 281.000 34.643,278.533 33.766,275.517 33.091 C 272.501 32.416,269.809 31.499,269.533 31.054 C 269.258 30.608,265.446 29.661,261.064 28.949 C 256.681 28.237,253.261 27.387,253.463 27.059 C 253.666 26.731,252.016 26.636,249.797 26.848 C 247.546 27.063,245.464 26.751,245.089 26.144 C 244.358 24.962,213.921 23.938,201.250 24.669 M383.508 163.013 C 383.908 163.661,327.036 164.000,218.167 164.000 L 52.217 164.000 51.686 166.250 C 51.395 167.488,50.843 172.438,50.460 177.250 L 49.763 186.000 219.382 186.000 L 389.000 186.000 388.901 180.250 C 388.699 168.486,387.699 163.793,385.199 162.873 C 383.733 162.334,383.120 162.385,383.508 163.013 M50.460 211.750 C 50.843 216.563,51.395 221.512,51.686 222.750 L 52.217 225.000 219.964 225.000 L 387.711 225.000 388.348 218.250 C 388.699 214.537,388.989 209.588,388.993 207.250 L 389.000 203.000 219.382 203.000 L 49.763 203.000 50.460 211.750 M380.000 241.750 C 380.000 242.162,307.064 242.385,217.919 242.244 L 55.838 241.988 56.545 245.244 C 56.933 247.035,57.709 248.791,58.269 249.148 C 58.829 249.504,59.039 250.742,58.737 251.899 C 58.434 253.056,58.545 253.781,58.984 253.510 C 59.422 253.239,60.075 254.589,60.436 256.509 C 60.796 258.429,61.427 260.000,61.838 260.000 C 62.249 260.000,63.427 262.475,64.455 265.500 C 65.484 268.525,66.630 271.000,67.002 271.000 C 67.375 271.000,68.274 272.800,69.000 275.000 C 69.726 277.200,70.692 279.000,71.147 279.000 C 71.601 279.000,72.631 280.575,73.436 282.500 C 74.240 284.425,75.423 286.000,76.066 286.000 C 76.741 286.000,77.013 286.843,76.710 288.001 C 76.422 289.102,76.598 289.749,77.100 289.438 C 77.603 289.127,78.319 289.689,78.691 290.687 C 79.064 291.684,80.185 293.088,81.184 293.807 C 82.183 294.525,83.000 295.763,83.000 296.557 C 83.000 297.351,83.338 298.000,83.750 298.000 C 84.904 298.000,90.333 305.138,90.333 306.655 C 90.333 307.395,90.568 307.765,90.856 307.477 C 91.749 306.584,99.949 315.268,99.296 316.416 C 98.957 317.012,99.062 317.152,99.529 316.727 C 100.543 315.805,109.139 323.966,108.405 325.154 C 108.125 325.607,108.565 325.720,109.383 325.406 C 110.254 325.072,111.801 325.906,113.116 327.418 C 114.350 328.838,115.804 330.000,116.346 330.000 C 116.889 330.000,118.045 330.654,118.916 331.454 C 123.715 335.857,124.879 336.715,128.203 338.292 C 130.203 339.241,131.988 340.351,132.170 340.759 C 132.792 342.155,146.805 349.479,148.250 349.164 C 148.662 349.074,149.000 349.369,149.000 349.819 C 149.000 350.270,151.250 351.251,154.000 352.000 C 156.750 352.749,159.000 353.672,159.000 354.051 C 159.000 354.430,161.137 355.297,163.750 355.979 C 166.363 356.660,169.850 357.803,171.500 358.520 C 173.150 359.236,177.082 360.138,180.239 360.525 C 183.395 360.911,185.795 361.522,185.573 361.882 C 185.350 362.242,186.984 362.364,189.203 362.152 C 191.859 361.899,193.523 362.228,194.071 363.114 C 195.292 365.090,243.708 365.090,244.929 363.114 C 245.477 362.228,247.141 361.899,249.797 362.152 C 252.016 362.364,253.666 362.269,253.463 361.941 C 253.261 361.613,256.681 360.763,261.064 360.051 C 265.446 359.339,269.258 358.392,269.533 357.946 C 269.809 357.501,272.501 356.584,275.517 355.909 C 278.533 355.234,281.000 354.357,281.000 353.960 C 281.000 353.562,283.025 352.728,285.500 352.104 C 287.975 351.481,290.000 350.528,290.000 349.986 C 290.000 349.444,290.337 349.074,290.750 349.164 C 292.385 349.520,305.779 342.481,307.235 340.500 C 307.724 339.833,307.980 339.833,308.000 340.500 C 308.020 341.155,308.284 341.151,308.765 340.486 C 309.169 339.929,312.200 337.679,315.500 335.486 C 318.800 333.294,323.030 330.015,324.900 328.200 C 326.777 326.378,328.927 325.142,329.702 325.439 C 330.473 325.735,330.875 325.607,330.595 325.154 C 329.961 324.128,338.366 315.761,339.311 316.477 C 339.690 316.765,339.765 316.690,339.477 316.311 C 338.745 315.344,347.140 306.968,348.190 307.618 C 348.663 307.910,348.940 307.778,348.805 307.324 C 348.475 306.208,354.044 298.000,355.133 298.000 C 355.610 298.000,356.000 297.351,356.000 296.557 C 356.000 295.763,356.817 294.525,357.816 293.807 C 358.815 293.088,359.936 291.684,360.309 290.687 C 360.681 289.689,361.434 289.150,361.981 289.489 C 362.529 289.827,362.742 289.492,362.455 288.744 C 362.168 287.995,362.835 286.344,363.937 285.073 C 365.039 283.802,366.209 281.916,366.538 280.881 C 366.866 279.847,367.464 279.000,367.866 279.000 C 368.269 279.000,369.168 277.425,369.864 275.500 C 370.560 273.575,371.518 272.000,371.994 272.000 C 372.469 272.000,373.578 269.525,374.457 266.500 C 375.336 263.475,376.458 261.000,376.948 261.000 C 377.439 261.000,378.153 259.538,378.534 257.750 C 378.915 255.963,380.076 252.612,381.113 250.305 C 383.416 245.185,383.590 241.000,381.500 241.000 C 380.675 241.000,380.000 241.338,380.000 241.750 " stroke="none" fill-rule="evenodd"></path></g></svg>