<svg id="svg" xmlns="http://www.w3.org/2000/svg" xmlns:xlink="http://www.w3.org/1999/xlink" width="400" height="400" viewBox="0, 0, 400,400"><g id="svgg"><path id="path0" d="M189.340 8.428 C 188.084 8.540,184.382 8.861,181.113 9.140 C 152.363 11.597,116.001 24.426,94.411 39.728 C 58.973 64.844,36.436 92.335,22.313 127.671 C -28.437 254.651,63.863 391.287,200.254 391.086 C 263.860 390.992,320.662 361.371,357.208 309.237 C 363.680 300.004,364.276 297.875,361.294 294.645 C 358.520 291.640,357.016 291.728,349.392 295.339 C 266.561 334.563,162.858 289.594,153.007 210.180 C 149.805 184.365,160.461 164.482,182.129 155.843 C 229.388 137.001,269.061 195.456,234.319 232.741 C 218.495 249.723,267.030 268.579,311.474 262.717 C 324.948 260.940,337.925 256.190,348.903 249.017 C 429.161 196.576,389.604 66.070,280.457 23.203 C 253.134 12.472,214.389 6.189,189.340 8.428 " stroke="none" fill="#000000" fill-rule="evenodd"></path></g></svg>