<svg xmlns="http://www.w3.org/2000/svg" width="400" height="400" viewBox="0, 0, 400,400">
<g>
<path d="M190.102 10.709 C 107.799 16.280,38.078 72.923,17.192 151.186 C 15.338 158.134,15.507 158.559,18.198 153.712 C 20.022 150.426,22.960 146.061,26.504 141.371 C 61.598 94.935,143.895 82.082,198.224 114.551 C 201.999 116.808,207.762 120.461,208.629 121.148 C 215.722 126.767,217.883 128.636,221.621 132.382 C 246.813 157.631,256.878 195.890,245.119 221.703 C 243.294 225.709,239.115 232.096,236.521 234.843 C 233.322 238.232,233.027 239.454,234.715 242.335 C 244.238 258.585,295.647 266.931,325.299 257.041 C 329.195 255.742,337.371 252.426,338.325 251.759 C 338.604 251.563,340.203 250.653,341.878 249.735 C 382.631 227.410,400.112 175.238,382.015 129.949 C 369.283 98.087,354.964 77.303,331.980 57.320 C 309.786 38.023,278.784 22.781,247.970 16.014 C 234.018 12.950,223.875 11.533,209.791 10.681 C 200.222 10.102,199.046 10.104,190.102 10.709 M117.513 101.036 C 83.680 103.874,48.231 121.976,30.570 145.431 C 20.103 159.332,15.549 169.100,11.637 186.041 C 5.599 212.186,19.336 267.623,39.623 298.985 C 40.435 300.241,41.263 301.612,41.462 302.030 C 42.708 304.658,56.537 322.843,57.289 322.843 C 57.478 322.843,57.992 323.435,58.432 324.159 C 59.565 326.026,72.680 339.086,73.422 339.086 C 73.760 339.086,74.111 339.395,74.201 339.773 C 74.815 342.339,95.804 357.704,107.920 364.456 C 116.670 369.332,124.550 373.055,132.995 376.301 C 151.983 383.601,170.488 387.573,191.117 388.778 C 200.396 389.319,214.284 388.862,209.898 388.159 C 202.036 386.899,194.739 385.317,192.132 384.308 C 189.507 383.291,185.804 382.234,184.873 382.234 C 184.305 382.234,183.765 382.050,183.672 381.825 C 183.579 381.601,181.904 380.753,179.949 379.942 C 173.013 377.062,160.302 369.826,159.239 368.152 C 159.015 367.800,158.387 367.513,157.843 367.513 C 157.298 367.513,156.853 367.323,156.853 367.091 C 156.853 366.859,155.882 365.971,154.695 365.117 C 153.509 364.264,151.535 362.683,150.309 361.605 C 149.083 360.527,147.598 359.227,147.009 358.717 C 144.648 356.671,140.773 352.792,139.242 350.943 C 138.350 349.866,136.733 348.000,135.648 346.796 C 132.292 343.071,126.156 334.195,124.004 329.949 C 123.226 328.414,122.461 327.043,122.304 326.904 C 122.002 326.634,119.735 321.988,117.527 317.114 C 113.707 308.679,109.976 295.060,108.528 284.264 C 107.676 277.909,107.700 254.437,108.564 248.985 C 109.971 240.107,112.351 229.686,113.931 225.487 C 116.639 218.290,117.607 215.950,119.648 211.675 C 121.660 207.463,126.865 198.151,128.019 196.701 C 128.241 196.421,129.497 194.708,130.810 192.893 C 136.174 185.479,144.434 176.535,149.239 172.939 C 150.774 171.790,152.953 170.000,154.081 168.961 C 155.208 167.923,157.607 166.156,159.410 165.035 C 161.214 163.914,164.252 162.014,166.160 160.813 C 171.687 157.336,173.175 156.476,176.142 155.048 C 195.642 145.661,219.681 148.903,234.692 162.945 C 236.550 164.684,238.071 165.995,238.071 165.859 C 238.071 162.199,226.034 144.937,217.560 136.443 C 213.822 132.697,211.661 130.828,204.569 125.209 C 203.701 124.522,197.939 120.868,194.163 118.612 C 172.570 105.707,142.907 98.905,117.513 101.036 M148.906 180.838 C 144.228 185.321,138.755 191.608,134.877 196.954 C 133.561 198.769,132.302 200.482,132.080 200.761 C 130.925 202.212,125.720 211.523,123.709 215.736 C 121.668 220.011,120.700 222.350,117.992 229.548 C 116.989 232.213,115.368 238.520,114.236 244.162 C 109.585 267.343,112.266 292.472,121.588 313.053 C 123.796 317.927,126.063 322.573,126.365 322.843 C 126.522 322.982,127.287 324.353,128.065 325.888 C 130.217 330.134,136.353 339.010,139.709 342.735 C 140.794 343.939,142.411 345.805,143.303 346.882 C 145.053 348.997,148.669 352.555,152.229 355.666 C 153.455 356.738,154.940 358.037,155.529 358.554 C 156.117 359.071,157.570 360.195,158.756 361.052 C 159.943 361.908,160.914 362.798,160.914 363.030 C 160.914 363.262,161.359 363.452,161.904 363.452 C 162.448 363.452,163.076 363.740,163.300 364.091 C 164.362 365.765,177.074 373.001,184.010 375.881 C 185.964 376.692,187.640 377.540,187.733 377.764 C 187.826 377.989,188.366 378.173,188.934 378.173 C 189.865 378.173,193.567 379.231,196.193 380.247 C 205.805 383.968,229.432 385.972,240.609 384.015 C 248.847 382.572,264.843 377.430,274.112 373.246 C 285.918 367.917,299.386 360.483,305.838 355.735 C 323.540 342.707,336.665 330.738,344.690 320.305 C 345.656 319.048,346.582 317.906,346.747 317.766 C 347.737 316.929,354.315 307.790,354.315 307.251 C 354.315 306.892,354.517 306.599,354.764 306.599 C 355.011 306.599,356.373 304.851,357.789 302.715 L 360.365 298.830 359.357 297.415 C 357.740 295.144,356.956 295.216,350.468 298.234 C 343.002 301.708,341.830 302.221,339.594 302.995 C 320.986 309.441,308.782 311.600,288.579 312.024 C 265.923 312.499,253.071 310.652,232.741 304.000 C 230.228 303.178,227.716 302.296,227.157 302.039 C 226.599 301.783,223.330 300.305,219.893 298.755 C 205.430 292.231,192.528 283.598,182.695 273.865 C 180.576 271.767,178.577 270.051,178.253 270.051 C 177.930 270.051,177.665 269.801,177.665 269.495 C 177.665 269.189,175.961 266.908,173.877 264.425 C 171.794 261.942,168.900 258.138,167.446 255.971 C 165.992 253.803,164.670 251.916,164.508 251.776 C 163.743 251.116,157.571 238.987,156.819 236.664 C 156.482 235.623,155.803 233.858,155.312 232.741 C 149.262 219.004,148.111 192.840,153.016 180.579 C 155.139 175.271,154.685 175.299,148.906 180.838 " stroke="none" fill-rule="evenodd"></path>
</g>
</svg>