<svg id="svg" version="1.1" width="515" height="515" xmlns="http://www.w3.org/2000/svg" xmlns:xlink="http://www.w3.org/1999/xlink" style="display: block;"><g id="svgg"><path id="path0" d="M434.750 139.749 L 413.000 140.039 413.000 158.486 L 413.000 176.932 423.349 177.216 L 433.699 177.500 417.334 198.000 C 408.333 209.275,400.141 219.529,399.130 220.786 L 397.292 223.071 394.449 219.286 C 392.885 217.204,391.357 215.275,391.053 215.000 C 390.749 214.725,388.700 212.291,386.500 209.592 C 384.300 206.892,377.664 198.792,371.754 191.592 L 361.007 178.500 371.004 178.215 L 381.000 177.930 381.000 158.807 L 381.000 139.684 343.250 140.332 C 322.488 140.688,293.012 140.984,277.750 140.990 L 250.000 141.000 250.000 160.121 L 250.000 179.241 262.500 178.825 L 275.000 178.409 275.000 193.788 C 275.000 202.246,274.663 209.017,274.250 208.833 C 273.837 208.650,270.575 206.842,267.000 204.816 C 234.829 186.584,192.930 191.765,164.033 217.549 L 157.932 222.993 151.352 217.411 C 91.761 166.859,2.707 207.603,2.531 285.500 C 2.355 364.006,96.894 406.030,152.793 352.294 L 158.821 346.500 161.591 349.370 C 188.992 377.752,237.078 383.058,271.750 361.526 L 276.000 358.887 276.000 367.103 L 276.000 375.320 300.162 374.660 C 313.451 374.297,337.566 374.000,353.750 374.000 L 383.176 374.000 382.872 357.250 C 382.705 348.038,382.399 339.333,382.193 337.906 L 381.819 335.312 370.159 335.766 C 358.856 336.206,358.550 336.163,360.135 334.360 C 362.466 331.707,394.947 290.911,396.644 288.504 C 397.557 287.208,398.311 286.881,398.778 287.579 C 399.607 288.817,407.238 298.248,408.020 299.000 C 409.603 300.523,437.000 334.085,437.000 334.502 C 437.000 334.776,432.081 335.000,426.070 335.000 C 413.078 335.000,414.381 332.470,414.796 356.900 L 415.092 374.300 426.296 373.655 C 432.458 373.300,453.137 373.007,472.250 373.005 L 507.000 373.000 507.000 353.598 L 507.000 334.197 498.349 334.348 L 489.698 334.500 483.099 326.437 C 479.470 322.003,471.325 312.141,465.000 304.522 C 458.675 296.903,446.839 282.639,438.698 272.823 C 429.343 261.542,424.169 254.520,424.636 253.738 C 425.043 253.057,427.878 249.398,430.938 245.608 C 433.997 241.817,437.850 236.965,439.500 234.826 C 441.150 232.688,452.175 218.820,464.000 204.009 L 485.500 177.081 495.750 177.041 L 506.000 177.000 505.989 161.750 C 505.983 153.363,505.699 144.813,505.358 142.750 L 504.738 139.000 480.619 139.229 C 467.354 139.356,446.712 139.589,434.750 139.749 M323.134 196.183 C 363.867 245.558,371.000 254.319,371.000 254.978 C 371.000 255.887,371.235 255.582,347.498 285.500 C 337.025 298.700,325.316 313.470,321.478 318.322 L 314.500 327.144 313.875 322.322 C 313.531 319.670,313.197 302.875,313.133 285.000 C 313.069 267.125,312.758 236.750,312.443 217.500 C 311.955 187.702,312.075 182.750,313.246 184.183 C 314.003 185.108,318.452 190.508,323.134 196.183 M236.307 233.492 C 285.237 246.236,288.899 316.468,241.543 333.930 C 217.687 342.727,189.228 331.289,177.619 308.237 C 173.274 299.609,173.310 300.000,176.875 300.000 C 181.409 300.000,182.551 286.159,179.474 268.513 L 177.949 259.764 180.438 255.515 C 190.430 238.466,216.281 228.276,236.307 233.492 M102.201 234.097 C 119.739 237.727,138.042 253.867,136.475 264.319 L 135.801 268.815 124.650 269.466 C 118.518 269.824,97.386 269.978,77.692 269.809 L 41.884 269.500 45.610 262.000 C 55.856 241.381,79.964 229.494,102.201 234.097 M137.577 308.261 C 138.720 312.792,140.006 317.288,140.434 318.250 C 141.118 319.785,140.610 320.000,136.300 320.000 C 131.885 320.000,130.913 320.441,126.719 324.347 C 100.777 348.505,55.112 337.913,43.517 305.048 L 42.102 301.037 64.801 300.749 C 77.285 300.590,98.300 300.362,111.500 300.241 L 135.500 300.021 137.577 308.261 " stroke="none" fill="#000000" fill-rule="evenodd"></path></g></svg>