<svg width="100%" height="100%" viewBox="0 0 24 24" version="1.1" xmlns="http://www.w3.org/2000/svg" style="fill-rule:evenodd;clip-rule:evenodd;stroke-linejoin:round;stroke-miterlimit:2;">
<g>    <g transform="matrix(0.659854,0,0,0.659854,4.82718,4.08175)">
<path d="M12,6L10.383,6C11.408,7.765 12,9.811 12,12C12,14.189 11.408,16.235 10.383,18L12,18C15.313,18 18,15.313 18,12C18,8.687 15.313,6 12,6"/>    </g>
<path d="M12,0C9.812,0 7.767,0.595 6,1.619C7.816,2.671 9.328,4.186 10.383,6L12,6C15.313,6 18,8.687 18,12C18,15.313 15.313,18 12,18L10.383,18C9.328,19.814 7.816,21.329 6,22.381C7.767,23.405 9.812,24 12,24C18.627,24 24,18.627 24,12C24,5.373 18.627,0 12,0"/>
<path d="M6,18L6.668,18C8.136,16.368 9,14.241 9,12C9,9.759 8.136,7.632 6.668,6L6,6C2.687,6 0,8.686 0,12C0,15.313 2.687,18 6,18"/>
</g>
</svg>
