<?xml version="1.0" encoding="UTF-8" standalone="no"?>
<!DOCTYPE svg PUBLIC "-//W3C//DTD SVG 1.1//EN" "http://www.w3.org/Graphics/SVG/1.1/DTD/svg11.dtd">
<svg width="100%" height="100%" viewBox="0 0 64 64" version="1.1" xmlns="http://www.w3.org/2000/svg" xmlns:xlink="http://www.w3.org/1999/xlink" xml:space="preserve" xmlns:serif="http://www.serif.com/" style="fill-rule:evenodd;clip-rule:evenodd;stroke-linejoin:round;stroke-miterlimit:2;">
    <g transform="matrix(1,0,0,1,8,5)">
        <g id="icon---product-logo---64x64px---ece---color" serif:id="icon-/-product-logo-/-64x64px-/-ece-/-color">
            <g id="logo-elastic-cloud-enterprise-64x64-color">
                <g id="Group-3" transform="matrix(1,0,0,1,5,35)">
                    <path id="Fill-1" d="M32.518,0.878C31.01,0.239 29.272,0.366 27.893,1.248C26.191,2.336 24.17,2.969 22,2.969C19.83,2.969 17.81,2.336 16.108,1.248C14.729,0.366 12.991,0.239 11.483,0.878C7.332,2.637 3.712,5.406 0.93,8.875C5.879,15.045 13.476,19 22,19C30.525,19 38.122,15.045 43.071,8.875C40.289,5.406 36.668,2.637 32.518,0.878"/>
                </g>
                <g id="Group-6" transform="matrix(1,0,0,1,5,35)">
                    <path id="Fill-4" d="M32.518,0.878C31.01,0.239 29.272,0.366 27.893,1.248C26.191,2.336 24.17,2.969 22,2.969C19.83,2.969 17.81,2.336 16.108,1.248C14.729,0.366 12.991,0.239 11.483,0.878C7.332,2.637 3.712,5.406 0.93,8.875C5.879,15.045 13.476,19 22,19C30.525,19 38.122,15.045 43.071,8.875C40.289,5.406 36.668,2.637 32.518,0.878"/>
                </g>
                <path id="Fill-7" d="M27,0C18.476,0 10.879,3.955 5.93,10.125C8.712,13.594 12.332,16.363 16.482,18.122C17.99,18.761 19.729,18.634 21.107,17.752C22.81,16.664 24.83,16.031 27,16.031C29.17,16.031 31.19,16.664 32.893,17.752C34.271,18.634 36.01,18.761 37.518,18.122C41.668,16.363 45.288,13.594 48.07,10.125C43.121,3.955 35.524,0 27,0"/>
                <path id="Fill-9" d="M32.906,27C32.906,30.262 30.261,32.906 27,32.906C23.738,32.906 21.093,30.262 21.093,27C21.093,23.738 23.738,21.094 27,21.094C30.261,21.094 32.906,23.738 32.906,27"/>
                <g id="Fill-11" transform="matrix(0.830078,0,0,0.830078,1.828,4.21757)">
                    <path d="M16.482,18.122C12.332,16.363 8.711,13.594 5.929,10.125C5.929,10.124 5.93,10.124 5.93,10.123C2.22,14.745 0,20.612 0,27C0,31.519 1.116,35.776 3.079,39.518C6.238,35.963 10.164,33.125 14.531,31.274C15.222,30.982 15.936,30.777 16.665,30.645C16.261,29.503 16.031,28.28 16.031,27C16.031,22.942 18.24,19.408 21.515,17.511C21.378,17.59 21.24,17.667 21.107,17.752C19.728,18.634 17.99,18.761 16.482,18.122"/>
                </g>
            </g>
        </g>
    </g>
</svg>
