<svg version="1.1" xmlns="http://www.w3.org/2000/svg" width="400" height="400" viewBox="0, 0, 400,400">
<g>
<path d="M205.434 2.015 C 177.073 3.988,146.670 12.957,122.457 26.494 L 119.913 27.916 123.857 31.052 C 150.422 52.176,172.930 80.738,185.838 109.705 L 187.400 113.211 250.600 113.087 C 309.241 112.972,314.103 112.912,318.000 112.245 C 338.208 108.789,355.612 99.660,370.248 84.842 C 376.459 78.553,376.732 80.210,367.767 69.800 C 328.017 23.644,266.110 -2.206,205.434 2.015 M112.328 36.861 C 85.591 54.581,62.469 79.585,48.116 106.300 L 46.343 109.600 113.571 109.600 C 164.128 109.600,180.800 109.485,180.800 109.138 C 180.800 108.250,174.107 95.749,170.448 89.800 C 157.793 69.232,141.404 50.660,122.331 35.275 C 118.546 32.221,119.574 32.058,112.328 36.861 M194.800 144.163 C 194.800 144.496,195.347 147.215,196.016 150.206 C 203.107 181.922,202.964 220.008,195.638 250.532 C 194.806 254.002,194.631 255.314,194.982 255.448 C 196.579 256.061,286.364 255.335,289.901 254.681 C 350.535 243.463,352.169 157.839,292.000 144.694 C 286.861 143.571,194.800 143.068,194.800 144.163 M31.052 149.300 C 22.403 179.345,22.359 216.414,30.932 249.400 L 31.452 251.400 111.286 251.501 L 191.120 251.602 191.545 249.701 C 198.620 218.106,198.905 186.445,192.411 153.588 C 191.745 150.219,191.200 147.404,191.200 147.332 C 191.200 147.259,155.303 147.200,111.428 147.200 L 31.657 147.200 31.052 149.300 M190.819 287.900 C 179.150 316.823,154.956 349.928,130.700 370.161 C 128.115 372.317,126.000 374.151,126.000 374.237 C 126.000 374.546,135.687 379.242,141.090 381.552 C 222.566 416.397,319.848 391.517,373.719 322.059 C 376.546 318.415,376.788 319.303,371.500 313.938 C 355.220 297.421,334.747 287.879,311.620 286.030 C 308.120 285.750,286.234 285.600,248.994 285.600 L 191.747 285.600 190.819 287.900 M46.669 289.500 C 46.091 290.470,57.646 308.638,64.413 317.400 C 79.777 337.294,101.081 356.070,121.086 367.347 C 125.075 369.596,124.878 369.591,127.374 367.518 C 144.802 353.047,163.422 330.668,174.912 310.381 C 178.673 303.740,185.597 289.918,185.357 289.530 C 185.102 289.118,46.914 289.088,46.669 289.500 " stroke="none" fill-rule="evenodd"></path>
</g>
</svg>