<svg version="1.1" width="400" height="400" xmlns="http://www.w3.org/2000/svg">
<g>
<path d="M36.455 60.455 C 34.914 61.996,33.963 64.136,33.901 66.205 C 33.847 68.017,33.734 80.637,33.651 94.250 L 33.500 119.000 55.261 119.000 C 89.652 119.000,89.000 118.326,89.000 153.905 L 89.000 177.743 85.116 182.121 L 81.232 186.500 57.616 186.801 L 34.000 187.103 33.911 190.551 C 33.863 192.448,33.783 212.787,33.733 235.750 L 33.644 277.500 63.599 278.000 C 103.421 278.665,102.000 277.624,102.000 306.115 C 102.000 315.402,102.156 323.000,102.346 323.000 C 102.537 323.000,104.125 322.286,105.875 321.412 C 114.313 317.203,122.263 327.646,115.475 334.023 C 110.904 338.318,102.122 335.855,102.022 330.250 C 101.989 328.373,101.370 328.676,97.432 332.500 L 93.828 336.000 64.914 336.000 C 40.188 336.000,36.000 336.212,36.000 337.465 C 36.000 340.835,39.467 341.000,110.434 341.000 L 181.000 341.000 181.000 334.000 L 181.000 327.000 236.000 327.000 L 291.000 327.000 291.000 334.000 L 291.000 341.000 294.000 341.000 L 297.000 341.000 297.000 334.000 L 297.000 327.000 338.500 327.000 L 380.000 327.000 380.000 334.067 C 380.000 340.930,380.065 341.115,382.250 340.460 C 386.075 339.313,387.284 337.346,388.177 330.816 C 388.974 324.986,389.444 324.109,394.519 318.981 L 400.000 313.442 400.000 227.138 L 400.000 140.833 396.443 137.167 C 387.534 127.984,388.561 133.067,388.000 95.392 L 387.500 61.820 385.139 59.910 C 382.836 58.047,378.591 58.000,210.844 58.000 L 38.909 58.000 36.455 60.455 M85.772 84.372 C 86.112 109.314,88.228 107.000,65.078 107.000 C 41.887 107.000,44.000 109.155,44.000 85.500 C 44.000 61.707,41.741 63.894,65.970 64.230 L 85.500 64.500 85.772 84.372 M120.166 66.750 C 124.647 71.600,124.174 77.231,119.055 79.970 C 110.431 84.586,102.585 72.893,110.077 66.589 C 114.028 63.264,116.990 63.312,120.166 66.750 M263.000 74.007 L 263.000 82.014 194.250 81.757 L 125.500 81.500 125.199 75.105 C 125.033 71.588,125.131 68.101,125.417 67.355 C 125.848 66.233,137.726 66.000,194.469 66.000 L 263.000 66.000 263.000 74.007 M378.792 74.250 L 379.084 82.000 323.542 82.000 L 268.000 82.000 268.000 73.992 L 268.000 65.983 323.250 66.242 L 378.500 66.500 378.792 74.250 M129.000 73.500 L 129.000 79.000 134.000 79.000 L 139.000 79.000 139.000 73.500 L 139.000 68.000 134.000 68.000 L 129.000 68.000 129.000 73.500 M143.000 73.500 L 143.000 79.000 147.500 79.000 L 152.000 79.000 152.000 73.500 L 152.000 68.000 147.500 68.000 L 143.000 68.000 143.000 73.500 M156.000 73.500 L 156.000 79.000 161.000 79.000 L 166.000 79.000 166.000 73.500 L 166.000 68.000 161.000 68.000 L 156.000 68.000 156.000 73.500 M168.000 73.450 L 168.000 79.000 174.052 79.000 L 180.105 79.000 179.802 73.750 L 179.500 68.500 173.750 68.200 L 168.000 67.900 168.000 73.450 M182.000 73.500 L 182.000 79.000 187.500 79.000 L 193.000 79.000 193.000 73.500 L 193.000 68.000 187.500 68.000 L 182.000 68.000 182.000 73.500 M195.000 73.500 L 195.000 79.000 201.000 79.000 L 207.000 79.000 207.000 73.500 L 207.000 68.000 201.000 68.000 L 195.000 68.000 195.000 73.500 M209.000 73.500 L 209.000 79.000 214.000 79.000 L 219.000 79.000 219.000 73.500 L 219.000 68.000 214.000 68.000 L 209.000 68.000 209.000 73.500 M223.000 73.500 L 223.000 79.000 228.000 79.000 L 233.000 79.000 233.000 73.500 L 233.000 68.000 228.000 68.000 L 223.000 68.000 223.000 73.500 M236.000 73.500 L 236.000 79.000 241.000 79.000 L 246.000 79.000 246.000 73.500 L 246.000 68.000 241.000 68.000 L 236.000 68.000 236.000 73.500 M250.000 73.500 L 250.000 79.000 255.000 79.000 L 260.000 79.000 260.000 73.500 L 260.000 68.000 255.000 68.000 L 250.000 68.000 250.000 73.500 M271.000 73.500 L 271.000 79.000 276.000 79.000 L 281.000 79.000 281.000 73.500 L 281.000 68.000 276.000 68.000 L 271.000 68.000 271.000 73.500 M283.000 73.500 L 283.000 79.000 288.500 79.000 L 294.000 79.000 294.000 73.500 L 294.000 68.000 288.500 68.000 L 283.000 68.000 283.000 73.500 M297.000 73.500 L 297.000 79.000 302.000 79.000 L 307.000 79.000 307.000 73.500 L 307.000 68.000 302.000 68.000 L 297.000 68.000 297.000 73.500 M311.000 73.500 L 311.000 79.000 316.000 79.000 L 321.000 79.000 321.000 73.500 L 321.000 68.000 316.000 68.000 L 311.000 68.000 311.000 73.500 M325.000 73.500 L 325.000 79.000 329.500 79.000 L 334.000 79.000 334.000 73.500 L 334.000 68.000 329.500 68.000 L 325.000 68.000 325.000 73.500 M337.667 68.667 C 337.300 69.033,337.000 71.508,337.000 74.167 L 337.000 79.000 342.500 79.000 L 348.000 79.000 348.000 73.500 L 348.000 68.000 343.167 68.000 C 340.508 68.000,338.033 68.300,337.667 68.667 M351.000 73.500 L 351.000 79.000 356.000 79.000 L 361.000 79.000 361.000 73.500 L 361.000 68.000 356.000 68.000 L 351.000 68.000 351.000 73.500 M365.000 73.500 L 365.000 79.000 370.000 79.000 L 375.000 79.000 375.000 73.500 L 375.000 68.000 370.000 68.000 L 365.000 68.000 365.000 73.500 M56.706 73.016 C 47.977 79.883,47.944 90.799,56.632 97.317 C 65.495 103.966,77.963 97.655,78.799 86.097 C 79.631 74.597,65.405 66.174,56.706 73.016 M120.784 97.750 L 120.500 108.500 116.250 108.807 L 112.000 109.115 112.000 98.057 L 112.000 87.000 116.534 87.000 L 121.068 87.000 120.784 97.750 M135.784 97.750 L 135.500 108.500 131.000 108.500 L 126.500 108.500 126.210 99.075 C 125.843 87.148,125.908 87.000,131.502 87.000 L 136.068 87.000 135.784 97.750 M149.000 98.057 L 149.000 109.115 144.750 108.807 L 140.500 108.500 140.216 97.750 L 139.932 87.000 144.466 87.000 L 149.000 87.000 149.000 98.057 M2.156 127.334 C 0.007 129.621,-0.031 130.150,0.232 153.966 L 0.500 178.264 4.000 180.156 C 9.450 183.101,76.305 182.547,79.750 179.528 C 82.966 176.709,83.233 131.058,80.056 127.250 L 78.179 125.000 41.264 125.000 L 4.349 125.000 2.156 127.334 M153.780 158.750 L 153.500 171.500 139.750 171.778 L 126.000 172.056 126.000 159.028 L 126.000 146.000 140.030 146.000 L 154.060 146.000 153.780 158.750 M393.460 148.740 C 397.758 153.375,396.240 159.415,390.143 161.941 C 384.782 164.161,377.936 158.376,379.334 152.807 C 381.058 145.937,388.795 143.709,393.460 148.740 M390.810 182.750 L 390.500 186.500 379.750 186.784 L 369.000 187.068 369.000 183.034 L 369.000 179.000 380.060 179.000 L 391.121 179.000 390.810 182.750 M390.807 197.250 L 390.500 201.500 379.750 201.784 L 369.000 202.068 369.000 197.534 L 369.000 193.000 380.057 193.000 L 391.115 193.000 390.807 197.250 M153.701 195.250 C 161.772 198.860,163.537 207.396,157.467 213.467 L 153.933 217.000 134.000 217.000 L 114.067 217.000 110.533 213.467 C 104.569 207.502,106.191 199.011,114.000 195.318 C 117.550 193.639,149.974 193.583,153.701 195.250 M64.000 207.893 C 64.000 216.511,63.656 219.905,62.750 220.217 C 61.736 220.566,53.896 220.486,50.750 220.094 C 50.337 220.042,50.000 214.600,50.000 208.000 L 50.000 196.000 57.000 196.000 L 64.000 196.000 64.000 207.893 M390.810 210.750 L 390.500 214.500 379.750 214.784 L 369.000 215.068 369.000 211.034 L 369.000 207.000 380.060 207.000 L 391.121 207.000 390.810 210.750 M145.000 233.000 C 145.000 236.926,145.070 237.003,148.750 237.168 L 152.500 237.336 148.750 237.728 C 146.688 237.944,145.000 238.544,145.000 239.060 C 145.000 239.577,146.688 240.067,148.750 240.150 C 152.133 240.285,152.206 240.341,149.500 240.727 C 147.850 240.962,146.072 241.569,145.550 242.077 C 144.259 243.331,132.000 243.261,132.000 242.000 C 132.000 241.450,130.313 240.924,128.250 240.832 L 124.500 240.664 128.250 240.272 C 130.313 240.056,132.000 239.456,132.000 238.940 C 132.000 238.423,130.313 237.924,128.250 237.832 L 124.500 237.664 128.250 237.272 C 131.882 236.892,132.000 236.756,132.000 232.940 L 132.000 229.000 138.500 229.000 L 145.000 229.000 145.000 233.000 M82.000 235.000 C 82.000 235.571,85.000 236.000,89.000 236.000 C 95.800 236.000,96.000 236.071,96.000 238.500 C 96.000 240.910,95.767 241.000,89.500 241.000 L 83.000 241.000 83.000 244.256 L 83.000 247.512 89.500 247.506 L 96.000 247.500 96.000 250.750 L 96.000 254.000 89.500 254.000 L 83.000 254.000 83.000 257.000 L 83.000 260.000 89.500 260.000 C 95.333 260.000,96.000 260.205,96.000 262.000 C 96.000 263.788,95.333 264.000,89.722 264.000 C 84.698 264.000,83.105 264.396,81.745 265.985 C 80.342 267.623,79.091 267.903,74.588 267.584 C 67.563 267.088,67.000 266.669,67.000 261.941 L 67.000 258.000 62.250 257.985 C 55.373 257.963,54.847 257.360,55.198 249.909 L 55.500 243.500 61.250 243.200 L 67.000 242.900 67.000 239.117 C 67.000 237.036,67.300 235.033,67.667 234.667 C 68.747 233.587,82.000 233.895,82.000 235.000 M197.000 241.000 C 197.000 242.556,196.333 243.000,194.000 243.000 C 191.667 243.000,191.000 242.556,191.000 241.000 C 191.000 239.444,191.667 239.000,194.000 239.000 C 196.333 239.000,197.000 239.444,197.000 241.000 M211.000 241.000 C 211.000 242.619,210.333 243.000,207.500 243.000 C 204.667 243.000,204.000 242.619,204.000 241.000 C 204.000 239.381,204.667 239.000,207.500 239.000 C 210.333 239.000,211.000 239.381,211.000 241.000 M224.815 241.250 C 225.081 242.652,224.436 243.000,221.573 243.000 C 218.630 243.000,218.000 242.636,218.000 240.937 C 218.000 238.203,224.293 238.493,224.815 241.250 M238.000 241.000 C 238.000 242.556,237.333 243.000,235.000 243.000 C 232.667 243.000,232.000 242.556,232.000 241.000 C 232.000 239.444,232.667 239.000,235.000 239.000 C 237.333 239.000,238.000 239.444,238.000 241.000 M251.815 241.250 C 252.087 242.685,251.412 243.000,248.073 243.000 C 244.196 243.000,242.769 241.564,244.714 239.619 C 246.114 238.220,251.474 239.451,251.815 241.250 M265.000 241.000 C 265.000 242.619,264.333 243.000,261.500 243.000 C 258.206 243.000,256.886 241.447,258.667 239.667 C 260.314 238.019,265.000 239.006,265.000 241.000 M279.000 241.000 C 279.000 242.667,278.333 243.000,275.000 243.000 C 271.229 243.000,269.781 241.552,271.667 239.667 C 273.361 237.972,279.000 238.997,279.000 241.000 M292.815 241.250 C 293.087 242.685,292.412 243.000,289.073 243.000 C 285.196 243.000,283.769 241.564,285.714 239.619 C 287.114 238.220,292.474 239.451,292.815 241.250 M305.000 241.000 C 305.000 242.556,304.333 243.000,302.000 243.000 C 299.667 243.000,299.000 242.556,299.000 241.000 C 299.000 239.444,299.667 239.000,302.000 239.000 C 304.333 239.000,305.000 239.444,305.000 241.000 M318.815 241.250 C 319.081 242.652,318.436 243.000,315.573 243.000 C 312.176 243.000,310.873 241.461,312.713 239.621 C 314.047 238.286,318.477 239.469,318.815 241.250 M332.000 241.000 C 332.000 242.556,331.333 243.000,329.000 243.000 C 326.667 243.000,326.000 242.556,326.000 241.000 C 326.000 239.444,326.667 239.000,329.000 239.000 C 331.333 239.000,332.000 239.444,332.000 241.000 M346.000 241.000 C 346.000 242.619,345.333 243.000,342.500 243.000 C 339.206 243.000,337.886 241.447,339.667 239.667 C 341.314 238.019,346.000 239.006,346.000 241.000 M360.000 241.000 C 360.000 242.619,359.333 243.000,356.500 243.000 C 353.206 243.000,351.886 241.447,353.667 239.667 C 355.314 238.019,360.000 239.006,360.000 241.000 M373.000 241.000 C 373.000 242.609,372.333 243.000,369.594 243.000 C 366.680 243.000,366.263 242.711,366.710 241.000 C 367.081 239.583,368.074 239.000,370.117 239.000 C 372.333 239.000,373.000 239.462,373.000 241.000 M378.775 262.750 L 379.050 279.000 283.025 279.000 L 187.000 279.000 187.000 263.167 C 187.000 254.458,187.302 247.031,187.672 246.662 C 188.041 246.292,231.129 246.105,283.422 246.245 L 378.500 246.500 378.775 262.750 M158.000 262.500 L 158.000 268.000 154.500 268.000 C 151.433 268.000,151.000 267.690,151.000 265.500 C 151.000 263.379,150.507 262.976,147.750 262.840 L 144.500 262.680 147.750 262.277 C 150.417 261.946,151.000 261.436,151.000 259.437 C 151.000 257.319,151.458 257.000,154.500 257.000 L 158.000 257.000 158.000 262.500 M138.500 281.748 C 153.290 289.175,149.818 311.784,133.500 314.305 C 129.017 314.998,121.721 313.664,121.184 312.053 C 120.991 311.474,120.308 310.997,119.667 310.993 C 116.638 310.975,113.588 303.903,113.588 296.898 C 113.588 288.041,117.563 283.285,128.000 279.658 C 130.027 278.953,134.846 279.912,138.500 281.748 M176.096 280.534 C 195.094 287.237,191.465 314.124,171.537 314.312 C 151.377 314.501,146.522 287.591,165.501 280.857 C 171.657 278.673,170.887 278.696,176.096 280.534 M13.316 281.331 C 9.986 282.987,9.000 289.031,9.000 307.794 C 9.000 331.580,9.701 333.000,21.434 333.000 L 28.000 333.000 28.000 306.500 L 28.000 280.000 21.750 280.123 C 18.313 280.190,14.517 280.734,13.316 281.331 M33.901 285.500 C 33.847 286.875,33.802 296.100,33.802 306.000 C 33.802 315.900,33.847 325.575,33.901 327.500 L 34.000 331.000 61.453 331.000 C 98.364 331.000,96.000 332.685,96.000 306.376 L 96.000 288.846 93.077 285.923 L 90.154 283.000 62.077 283.000 L 34.000 283.000 33.901 285.500 M197.000 284.500 C 197.000 285.500,196.000 286.000,194.000 286.000 C 192.000 286.000,191.000 285.500,191.000 284.500 C 191.000 283.500,192.000 283.000,194.000 283.000 C 196.000 283.000,197.000 283.500,197.000 284.500 M211.000 284.500 C 211.000 285.548,209.944 286.000,207.500 286.000 C 205.056 286.000,204.000 285.548,204.000 284.500 C 204.000 283.452,205.056 283.000,207.500 283.000 C 209.944 283.000,211.000 283.452,211.000 284.500 M224.756 284.250 C 224.116 286.201,218.000 286.485,218.000 284.563 C 218.000 283.436,219.000 283.000,221.583 283.000 C 224.002 283.000,225.033 283.406,224.756 284.250 M238.000 284.500 C 238.000 285.500,237.000 286.000,235.000 286.000 C 233.000 286.000,232.000 285.500,232.000 284.500 C 232.000 283.500,233.000 283.000,235.000 283.000 C 237.000 283.000,238.000 283.500,238.000 284.500 M252.000 284.560 C 252.000 285.747,251.121 286.046,248.327 285.810 C 243.052 285.365,242.706 283.000,247.917 283.000 C 250.950 283.000,252.000 283.401,252.000 284.560 M265.000 284.500 C 265.000 285.548,263.944 286.000,261.500 286.000 C 259.056 286.000,258.000 285.548,258.000 284.500 C 258.000 283.452,259.056 283.000,261.500 283.000 C 263.944 283.000,265.000 283.452,265.000 284.500 M279.000 284.500 C 279.000 285.583,277.889 286.000,275.000 286.000 C 272.111 286.000,271.000 285.583,271.000 284.500 C 271.000 283.417,272.111 283.000,275.000 283.000 C 277.889 283.000,279.000 283.417,279.000 284.500 M293.000 284.500 C 293.000 285.583,291.889 286.000,289.000 286.000 C 286.111 286.000,285.000 285.583,285.000 284.500 C 285.000 283.417,286.111 283.000,289.000 283.000 C 291.889 283.000,293.000 283.417,293.000 284.500 M305.000 284.500 C 305.000 285.500,304.000 286.000,302.000 286.000 C 300.000 286.000,299.000 285.500,299.000 284.500 C 299.000 283.500,300.000 283.000,302.000 283.000 C 304.000 283.000,305.000 283.500,305.000 284.500 M318.756 284.250 C 318.116 286.201,312.000 286.485,312.000 284.563 C 312.000 283.436,313.000 283.000,315.583 283.000 C 318.002 283.000,319.033 283.406,318.756 284.250 M332.000 284.500 C 332.000 285.500,331.000 286.000,329.000 286.000 C 327.000 286.000,326.000 285.500,326.000 284.500 C 326.000 283.500,327.000 283.000,329.000 283.000 C 331.000 283.000,332.000 283.500,332.000 284.500 M346.000 284.500 C 346.000 285.548,344.944 286.000,342.500 286.000 C 340.056 286.000,339.000 285.548,339.000 284.500 C 339.000 283.452,340.056 283.000,342.500 283.000 C 344.944 283.000,346.000 283.452,346.000 284.500 M360.000 284.500 C 360.000 285.548,358.944 286.000,356.500 286.000 C 354.056 286.000,353.000 285.548,353.000 284.500 C 353.000 283.452,354.056 283.000,356.500 283.000 C 358.944 283.000,360.000 283.452,360.000 284.500 M373.000 284.500 C 373.000 285.488,372.012 286.000,370.107 286.000 C 368.458 286.000,366.966 285.355,366.638 284.500 C 366.195 283.344,366.859 283.000,369.531 283.000 C 371.948 283.000,373.000 283.455,373.000 284.500 M122.073 289.728 C 120.028 292.209,119.000 294.550,119.000 296.728 L 119.000 300.000 130.500 300.000 L 142.000 300.000 142.000 296.535 C 142.000 286.537,128.503 281.927,122.073 289.728 M163.547 288.375 C 161.503 290.132,160.647 291.956,160.261 295.375 L 159.740 300.000 170.870 300.000 L 182.000 300.000 182.000 295.923 C 182.000 287.087,170.514 282.389,163.547 288.375 M393.534 298.109 C 393.865 299.149,394.554 300.000,395.067 300.000 C 396.668 300.000,396.021 306.395,394.200 308.572 C 387.377 316.731,374.865 307.616,381.020 298.971 C 383.960 294.844,392.315 294.268,393.534 298.109 M183.000 334.500 L 183.000 339.000 188.000 339.000 L 193.000 339.000 193.000 334.500 L 193.000 330.000 188.000 330.000 L 183.000 330.000 183.000 334.500 M196.000 334.500 L 196.000 339.000 201.500 339.000 L 207.000 339.000 207.000 334.500 L 207.000 330.000 201.500 330.000 L 196.000 330.000 196.000 334.500 M210.000 334.500 L 210.000 339.000 215.000 339.000 L 220.000 339.000 220.000 334.500 L 220.000 330.000 215.000 330.000 L 210.000 330.000 210.000 334.500 M224.000 334.500 L 224.000 339.000 229.000 339.000 L 234.000 339.000 234.000 334.500 L 234.000 330.000 229.000 330.000 L 224.000 330.000 224.000 334.500 M237.000 334.500 L 237.000 339.000 241.500 339.000 L 246.000 339.000 246.000 334.500 L 246.000 330.000 241.500 330.000 L 237.000 330.000 237.000 334.500 M250.000 334.500 L 250.000 339.000 255.500 339.000 L 261.000 339.000 261.000 334.500 L 261.000 330.000 255.500 330.000 L 250.000 330.000 250.000 334.500 M264.000 334.500 L 264.000 339.000 269.500 339.000 L 275.000 339.000 275.000 334.500 L 275.000 330.000 269.500 330.000 L 264.000 330.000 264.000 334.500 M278.000 334.500 L 278.000 339.000 283.000 339.000 L 288.000 339.000 288.000 334.500 L 288.000 330.000 283.000 330.000 L 278.000 330.000 278.000 334.500 M300.000 334.500 L 300.000 339.000 305.000 339.000 L 310.000 339.000 310.000 334.500 L 310.000 330.000 305.000 330.000 L 300.000 330.000 300.000 334.500 M313.667 330.667 C 313.300 331.033,313.000 333.058,313.000 335.167 L 313.000 339.000 318.500 339.000 L 324.000 339.000 324.000 334.500 L 324.000 330.000 319.167 330.000 C 316.508 330.000,314.033 330.300,313.667 330.667 M327.000 334.500 L 327.000 339.000 332.000 339.000 L 337.000 339.000 337.000 334.500 L 337.000 330.000 332.000 330.000 L 327.000 330.000 327.000 334.500 M341.000 334.500 L 341.000 339.000 345.500 339.000 L 350.000 339.000 350.000 334.500 L 350.000 330.000 345.500 330.000 L 341.000 330.000 341.000 334.500 M354.000 334.500 L 354.000 339.000 359.000 339.000 L 364.000 339.000 364.000 334.500 L 364.000 330.000 359.000 330.000 L 354.000 330.000 354.000 334.500 M368.000 334.500 L 368.000 339.000 373.000 339.000 L 378.000 339.000 378.000 334.500 L 378.000 330.000 373.000 330.000 L 368.000 330.000 368.000 334.500 " stroke="none" fill-rule="evenodd"></path>
</g>
</svg>