<svg
   xmlns="http://www.w3.org/2000/svg"
   version="1.1"
   viewBox="0, 0, 400,400"
   height="400"
   width="400">
  <path
     d="m 225.497,0.434 c -0.387,0.225 -0.882,0.299 -1.1,0.164 C 224.179,0.463 224,0.554 224,0.8 c 0,0.246 -0.18,0.336 -0.4,0.2 -0.22,-0.136 -0.4,-0.069 -0.4,0.149 0,0.433 -1.527,1.059 -2.25,0.923 -0.248,-0.046 -0.75,0.374 -1.118,0.935 -0.392,0.598 -0.866,0.904 -1.15,0.742 -0.265,-0.153 -0.362,-0.143 -0.214,0.021 0.367,0.409 -1.272,2.23 -2.007,2.23 -0.327,0 -0.485,0.109 -0.352,0.243 0.134,0.133 -0.106,0.617 -0.533,1.075 -0.427,0.458 -0.776,1.069 -0.776,1.357 0,0.289 -0.245,0.525 -0.545,0.525 -0.365,0 -0.481,0.329 -0.353,1 0.105,0.55 0.011,1 -0.209,1 -0.426,0 -0.908,1.186 -1.124,2.765 -0.072,0.53 -0.365,1.112 -0.65,1.294 -0.424,0.268 -0.423,0.33 0.005,0.335 0.288,0.003 0.42,0.173 0.294,0.377 -0.126,0.205 -0.227,34.765 -0.224,76.8 0.004,60.855 -0.096,76.43 -0.494,76.435 -0.368,0.005 -0.356,0.097 0.043,0.35 0.398,0.252 0.419,0.42 0.078,0.631 -0.341,0.211 -0.304,0.532 0.142,1.213 0.334,0.509 0.651,1.573 0.704,2.363 0.053,0.79 0.261,1.437 0.461,1.437 0.201,0 0.273,0.353 0.16,0.785 -0.113,0.432 0.044,0.993 0.349,1.246 0.305,0.253 0.456,0.619 0.335,0.814 -0.121,0.195 -0.018,0.355 0.228,0.355 0.246,0 0.344,0.167 0.218,0.371 -0.126,0.204 0.133,0.486 0.576,0.627 0.443,0.141 0.806,0.422 0.806,0.626 0,0.203 0.349,0.776 0.776,1.273 0.426,0.497 1.12,1.305 1.54,1.796 0.421,0.491 0.878,0.78 1.015,0.642 0.138,-0.137 0.364,0.046 0.502,0.408 0.139,0.361 0.503,0.657 0.81,0.657 0.306,0 0.557,0.18 0.557,0.4 0,0.22 0.23,0.4 0.511,0.4 0.281,0 0.828,0.37 1.215,0.822 0.488,0.57 0.96,0.741 1.539,0.557 0.495,-0.157 0.959,-0.064 1.139,0.228 0.168,0.271 0.811,0.493 1.429,0.493 0.618,0 1.396,0.272 1.728,0.604 0.332,0.332 0.656,0.444 0.721,0.25 0.134,-0.402 152.744,-0.308 153.394,0.093 0.228,0.141 0.546,0.041 0.708,-0.221 0.162,-0.262 0.907,-0.573 1.655,-0.691 0.749,-0.118 1.653,-0.371 2.01,-0.561 0.357,-0.191 1.037,-0.273 1.511,-0.182 0.477,0.092 0.757,-0.003 0.627,-0.213 -0.129,-0.208 0.046,-0.379 0.389,-0.379 0.343,0 0.627,-0.225 0.63,-0.5 0.004,-0.333 0.136,-0.3 0.394,0.1 0.334,0.517 0.389,0.506 0.394,-0.077 0.004,-0.446 0.263,-0.628 0.757,-0.533 0.493,0.096 0.904,-0.194 1.201,-0.845 0.248,-0.545 0.631,-0.879 0.85,-0.744 0.219,0.135 0.398,0.006 0.398,-0.288 0,-0.544 1.365,-1.913 1.907,-1.913 0.164,0 0.542,-0.552 0.841,-1.227 0.298,-0.674 0.916,-1.574 1.373,-2 0.456,-0.425 0.684,-0.773 0.505,-0.773 -0.178,0 -0.094,-0.277 0.188,-0.616 0.281,-0.34 0.546,-1.015 0.589,-1.5 0.042,-0.486 0.195,-1.154 0.34,-1.484 0.625,-1.421 0.088,-161.61 -0.543,-162.008 -0.533,-0.338 -0.533,-0.382 0,-0.398 0.469,-0.014 0.445,-0.109 -0.108,-0.431 -0.39,-0.227 -0.608,-0.575 -0.486,-0.773 0.238,-0.385 -0.112,-0.846 -2.82,-3.72 -1.024,-1.086 -1.531,-1.903 -1.253,-2.016 0.257,-0.105 0.141,-0.205 -0.257,-0.222 -0.461,-0.021 -0.619,-0.213 -0.435,-0.532 0.158,-0.275 0.138,-0.365 -0.044,-0.199 -0.183,0.165 -0.662,0.002 -1.065,-0.362 C 392.33,2.974 392,2.834 392,3.027 392,3.22 391.72,2.978 391.377,2.489 391.035,2 390.572,1.6 390.349,1.6 c -0.223,0 -0.677,-0.271 -1.008,-0.602 -0.338,-0.338 -1.028,-0.525 -1.572,-0.427 -0.533,0.097 -0.969,0.008 -0.969,-0.197 0,-0.538 -160.379,-0.478 -161.303,0.06 m -81.909,29.973 c -0.302,0.187 -0.671,0.265 -0.82,0.174 -0.337,-0.209 -4.415,0.976 -4.999,1.452 -0.238,0.193 -0.805,0.408 -1.261,0.478 -0.457,0.069 -1.099,0.349 -1.427,0.622 -0.328,0.272 -0.758,0.444 -0.954,0.381 -0.197,-0.063 -0.854,0.381 -1.46,0.986 -0.607,0.605 -1.365,1.1 -1.685,1.1 -0.32,0 -0.582,0.163 -0.582,0.361 0,0.687 -2.524,3.21 -2.961,2.961 -0.241,-0.138 -0.319,-0.117 -0.173,0.046 0.335,0.374 -3.036,3.83 -3.743,3.838 -0.379,0.005 -0.358,0.113 0.077,0.394 0.505,0.327 0.509,0.389 0.024,0.394 -0.317,0.003 -1.262,0.764 -2.1,1.69 -0.838,0.926 -1.524,1.556 -1.524,1.4 0,-0.156 -0.331,0.031 -0.737,0.416 -0.405,0.385 -0.681,0.807 -0.615,0.937 0.067,0.131 -1.851,2.142 -4.263,4.47 -2.412,2.328 -4.388,4.472 -4.391,4.763 -0.005,0.393 -0.106,0.375 -0.394,-0.07 -0.308,-0.476 -0.39,-0.393 -0.4,0.4 -0.007,0.576 -0.137,0.807 -0.306,0.544 -0.215,-0.333 -0.426,-0.314 -0.782,0.071 -0.385,0.414 -0.385,0.568 0,0.724 0.268,0.109 0.038,0.215 -0.512,0.236 -0.797,0.03 -0.878,0.116 -0.4,0.425 0.391,0.253 0.428,0.39 0.105,0.394 -0.272,0.003 -2.368,1.896 -4.659,4.206 -2.29,2.31 -4.373,4.2 -4.629,4.2 -0.255,0 -0.366,0.159 -0.246,0.352 0.119,0.194 -0.769,1.229 -1.974,2.3 -1.206,1.072 -2.196,2.218 -2.201,2.548 -0.007,0.533 -0.051,0.533 -0.396,0 -0.308,-0.476 -0.39,-0.393 -0.4,0.4 -0.01,0.793 -0.092,0.876 -0.4,0.4 -0.327,-0.506 -0.389,-0.485 -0.394,0.137 -0.003,0.408 -0.379,0.835 -0.84,0.956 -0.634,0.166 -0.706,0.299 -0.3,0.556 0.375,0.238 0.236,0.342 -0.466,0.351 -0.793,0.01 -0.876,0.092 -0.4,0.4 0.33,0.213 0.396,0.391 0.148,0.394 C 89.557,77.202 77.202,89.557 77.194,90.148 77.191,90.396 77.013,90.33 76.8,90 c -0.308,-0.476 -0.39,-0.393 -0.4,0.4 -0.009,0.702 -0.113,0.841 -0.351,0.466 -0.257,-0.406 -0.39,-0.334 -0.556,0.3 -0.121,0.461 -0.548,0.837 -0.956,0.84 -0.622,0.005 -0.643,0.067 -0.137,0.394 0.476,0.308 0.393,0.39 -0.4,0.4 -0.793,0.01 -0.876,0.092 -0.4,0.4 0.533,0.345 0.533,0.389 0,0.396 -0.33,0.005 -1.476,0.995 -2.548,2.201 -1.071,1.205 -2.106,2.093 -2.3,1.974 -0.193,-0.12 -0.352,-0.007 -0.352,0.251 0,0.259 -1.89,2.339 -4.2,4.624 -2.31,2.285 -4.203,4.38 -4.206,4.654 -0.004,0.333 -0.136,0.299 -0.394,-0.1 -0.308,-0.476 -0.39,-0.393 -0.4,0.4 -0.007,0.576 -0.137,0.807 -0.306,0.544 -0.215,-0.333 -0.426,-0.314 -0.782,0.071 -0.385,0.414 -0.385,0.568 0,0.724 0.268,0.109 0.038,0.215 -0.512,0.236 -0.797,0.03 -0.878,0.116 -0.4,0.425 0.391,0.253 0.428,0.39 0.105,0.394 -0.272,0.003 -2.368,1.896 -4.659,4.206 -2.29,2.31 -4.373,4.2 -4.629,4.2 -0.255,0 -0.366,0.159 -0.246,0.352 0.119,0.194 -0.769,1.229 -1.974,2.3 -1.206,1.072 -2.208,2.218 -2.226,2.548 -0.026,0.459 -0.084,0.474 -0.248,0.064 -0.148,-0.372 -0.355,-0.252 -0.676,0.392 -0.255,0.511 -0.88,1.136 -1.391,1.391 -0.644,0.321 -0.764,0.528 -0.392,0.676 0.295,0.118 0.086,0.231 -0.464,0.252 -0.797,0.03 -0.878,0.116 -0.4,0.425 0.33,0.213 0.396,0.391 0.148,0.394 -0.591,0.008 -12.946,12.363 -12.954,12.954 -0.003,0.248 -0.181,0.182 -0.394,-0.148 -0.308,-0.476 -0.39,-0.393 -0.4,0.4 -0.009,0.702 -0.113,0.841 -0.351,0.466 -0.257,-0.406 -0.39,-0.334 -0.556,0.3 -0.121,0.461 -0.548,0.837 -0.956,0.84 -0.622,0.005 -0.643,0.067 -0.137,0.394 0.476,0.308 0.393,0.39 -0.4,0.4 -0.793,0.01 -0.876,0.092 -0.4,0.4 0.533,0.345 0.533,0.389 0,0.396 -0.33,0.005 -1.476,0.995 -2.548,2.201 -1.071,1.205 -2.106,2.093 -2.3,1.974 -0.193,-0.12 -0.352,0.007 -0.352,0.282 0,0.276 -1.837,2.285 -4.083,4.466 -2.245,2.18 -4.117,4.198 -4.158,4.483 -0.042,0.286 -0.635,1.104 -1.318,1.818 -0.682,0.714 -1.241,1.542 -1.241,1.839 0,0.298 -0.18,0.541 -0.4,0.541 -0.22,0 -0.4,0.258 -0.4,0.573 0,0.315 -0.365,0.689 -0.811,0.83 -0.445,0.142 -0.777,0.469 -0.736,0.727 0.04,0.259 -0.06,0.83 -0.224,1.27 -0.869,2.34 -1.585,3.8 -1.865,3.8 -0.173,0 -0.315,0.315 -0.315,0.7 0,0.385 -0.302,1.69 -0.67,2.9 -0.368,1.21 -0.721,2.7 -0.785,3.312 -0.064,0.612 -0.289,1.332 -0.501,1.6 -0.494,0.628 -0.519,13.138 -0.026,13.752 0.236,0.295 0.203,0.569 -0.09,0.75 -0.345,0.213 -0.346,0.358 -0.007,0.568 0.251,0.155 0.52,0.897 0.598,1.65 0.2,1.935 1.14,5.168 1.502,5.168 0.168,0 0.19,0.3 0.049,0.666 -0.171,0.447 -0.102,0.57 0.213,0.376 0.287,-0.177 0.492,-0.009 0.529,0.434 0.033,0.398 0.081,0.942 0.105,1.209 0.024,0.266 0.252,0.693 0.507,0.948 0.256,0.256 0.366,0.72 0.247,1.032 -0.132,0.343 -10e-4,0.522 0.331,0.451 0.302,-0.064 0.549,0.154 0.549,0.484 0,0.33 0.121,0.692 0.268,0.804 0.147,0.112 0.327,0.472 0.4,0.8 0.073,0.328 0.461,0.899 0.864,1.27 0.402,0.371 0.775,0.971 0.828,1.332 0.053,0.362 0.354,0.821 0.668,1.02 0.315,0.199 0.409,0.365 0.211,0.368 -0.199,0.003 0.026,0.342 0.5,0.753 0.473,0.411 0.863,0.906 0.866,1.1 0.003,0.194 0.842,1.073 1.864,1.953 1.022,0.88 2.189,2.14 2.593,2.8 0.404,0.66 0.736,1.043 0.737,0.852 0,-0.192 0.765,0.438 1.698,1.4 0.933,0.961 1.641,1.991 1.573,2.288 -0.068,0.299 0.067,0.422 0.303,0.277 0.235,-0.146 0.427,-0.063 0.427,0.183 0,0.246 0.156,0.351 0.347,0.233 0.413,-0.256 1.743,1.115 1.454,1.499 -0.111,0.148 -0.1,0.197 0.024,0.11 0.335,-0.236 2.392,1.794 2.265,2.236 -0.06,0.21 0.051,0.282 0.247,0.161 0.472,-0.292 1.751,1.14 1.364,1.527 -0.166,0.165 -0.031,0.241 0.299,0.167 0.33,-0.073 0.555,0.092 0.5,0.367 -0.055,0.275 0.125,0.455 0.4,0.4 0.275,-0.055 0.44,0.17 0.367,0.5 -0.074,0.33 -0.01,0.476 0.142,0.324 0.389,-0.388 2.287,1.597 1.989,2.079 -0.135,0.219 0.057,0.397 0.427,0.397 0.828,0 5.406,4.826 5.08,5.354 -0.131,0.211 0.039,0.276 0.38,0.146 0.403,-0.155 0.771,0.105 1.067,0.754 0.248,0.545 0.631,0.88 0.85,0.745 0.219,-0.135 0.398,0.034 0.398,0.377 0,0.343 0.142,0.579 0.315,0.524 0.335,-0.106 2.485,1.893 2.485,2.31 0,0.135 0.827,0.998 1.838,1.918 4.631,4.212 5.418,5.058 5.134,5.518 -0.187,0.302 -0.125,0.372 0.166,0.192 0.254,-0.157 0.462,-0.095 0.462,0.138 0,0.233 0.281,0.424 0.624,0.424 0.343,0 0.529,0.153 0.413,0.34 -0.115,0.187 0.214,0.566 0.733,0.844 0.518,0.277 1.169,0.928 1.446,1.446 0.278,0.519 0.612,0.891 0.744,0.827 0.294,-0.142 2.233,1.789 2.353,2.343 0.048,0.22 0.222,0.4 0.387,0.4 0.447,0 2.316,1.953 2.2,2.3 -0.055,0.165 0.125,0.255 0.4,0.2 0.275,-0.055 0.44,0.17 0.367,0.5 -0.074,0.33 -0.013,0.479 0.135,0.332 0.313,-0.313 5.398,4.585 5.398,5.2 0,0.228 0.36,0.528 0.8,0.668 0.44,0.14 0.8,0.5 0.8,0.8 0,0.3 0.36,0.66 0.8,0.8 0.44,0.14 0.8,0.522 0.8,0.851 0,0.328 0.135,0.514 0.3,0.415 0.165,-0.1 0.532,0.069 0.816,0.376 0.283,0.307 0.415,0.558 0.292,0.558 -0.394,0 2.536,2.693 3.214,2.953 0.36,0.138 0.747,0.608 0.861,1.045 0.115,0.436 0.367,0.694 0.562,0.574 0.195,-0.121 0.355,0.091 0.355,0.471 0,0.38 0.107,0.584 0.237,0.453 0.308,-0.308 5.707,5.01 5.485,5.404 -0.093,0.165 0.122,0.3 0.478,0.3 0.356,0 0.536,0.18 0.4,0.4 -0.136,0.22 -0.034,0.4 0.228,0.4 0.619,0 8.772,8.153 8.772,8.772 0,0.262 0.18,0.364 0.4,0.228 0.22,-0.136 0.4,0.063 0.4,0.443 0,0.38 0.105,0.585 0.234,0.457 0.298,-0.298 3.6,2.901 3.466,3.358 -0.055,0.188 0.125,0.297 0.4,0.242 0.275,-0.055 0.455,0.125 0.4,0.4 -0.055,0.275 0.035,0.458 0.2,0.407 0.401,-0.125 13.928,13.384 13.8,13.782 -0.055,0.171 0.125,0.266 0.4,0.211 0.275,-0.055 0.455,0.125 0.4,0.4 -0.055,0.275 0.125,0.455 0.4,0.4 0.275,-0.055 0.455,0.125 0.4,0.4 -0.055,0.275 0.049,0.455 0.231,0.4 0.25,-0.075 11.307,10.818 13.869,13.664 0.22,0.245 6.07,6.047 13,12.894 6.93,6.847 12.562,12.585 12.515,12.752 -0.047,0.166 1.303,1.528 3,3.026 3.672,3.242 13.806,13.363 13.382,13.366 -0.163,10e-4 0.918,1.171 2.402,2.6 1.485,1.429 2.89,2.598 3.124,2.598 0.233,0 0.313,0.18 0.177,0.4 -0.136,0.22 -0.033,0.4 0.229,0.4 0.521,0 1.971,1.517 1.971,2.061 0,0.187 0.225,0.342 0.5,0.345 0.532,0.006 11.269,10.712 12.419,12.383 0.375,0.544 0.681,0.832 0.681,0.641 0,-0.192 0.543,0.219 1.206,0.913 0.663,0.694 1.828,1.595 2.589,2.003 0.761,0.408 1.288,0.837 1.171,0.954 -0.116,0.117 0.338,0.456 1.011,0.754 0.673,0.298 1.223,0.677 1.223,0.844 0,0.166 0.27,0.302 0.6,0.302 0.33,0 0.6,0.151 0.6,0.336 0,0.39 1.617,1.252 3.5,1.864 0.495,0.162 0.9,0.452 0.9,0.647 0,0.194 0.45,0.353 1,0.353 0.55,0 1,0.199 1,0.443 0,0.243 0.277,0.336 0.615,0.207 0.338,-0.13 0.704,-0.006 0.812,0.277 0.109,0.284 0.83,0.513 1.612,0.513 0.778,0 1.538,0.18 1.688,0.401 0.15,0.22 0.858,0.372 1.573,0.337 0.715,-0.035 1.3,0.103 1.3,0.307 0,0.37 16.807,0.281 18,-0.096 0.33,-0.104 0.717,-0.351 0.86,-0.549 0.144,-0.197 0.684,-0.4 1.2,-0.449 1.764,-0.168 3.54,-0.69 3.54,-1.041 0,-0.192 0.324,-0.35 0.72,-0.35 0.396,0 0.962,-0.225 1.259,-0.5 0.438,-0.406 0.477,-0.388 0.211,0.1 -0.237,0.435 -0.107,0.407 0.473,-0.1 0.44,-0.385 0.989,-0.7 1.22,-0.7 0.23,0 0.65,-0.279 0.933,-0.619 0.41,-0.494 0.58,-0.514 0.843,-0.1 0.244,0.386 0.33,0.34 0.335,-0.181 0.003,-0.385 0.141,-0.671 0.306,-0.636 0.588,0.124 1.692,-0.554 1.474,-0.906 -0.122,-0.197 0.016,-0.358 0.307,-0.358 0.29,0 1.243,-0.618 2.117,-1.373 0.874,-0.756 1.659,-1.303 1.745,-1.218 0.085,0.086 0.882,-0.556 1.77,-1.426 0.888,-0.871 1.766,-1.583 1.951,-1.583 0.185,0 0.336,-0.281 0.336,-0.624 0,-0.343 0.18,-0.512 0.4,-0.376 0.22,0.136 0.4,-0.044 0.4,-0.4 0,-0.356 0.18,-0.536 0.4,-0.4 0.22,0.136 0.4,0.065 0.4,-0.158 0,-0.527 1.915,-2.442 2.442,-2.442 0.223,0 0.294,-0.18 0.158,-0.4 -0.136,-0.22 0.044,-0.4 0.4,-0.4 0.356,0 0.536,-0.18 0.4,-0.4 -0.136,-0.22 0.033,-0.4 0.376,-0.4 0.343,0 0.624,-0.152 0.624,-0.339 0,-0.531 1.647,-2.272 2.044,-2.161 0.196,0.055 0.311,-0.125 0.256,-0.4 -0.055,-0.275 0.125,-0.455 0.4,-0.4 0.275,0.055 0.455,-0.062 0.4,-0.26 -0.055,-0.198 10e-4,-0.333 0.124,-0.3 0.202,0.054 1.238,-1.055 3.383,-3.62 0.405,-0.483 0.888,-0.785 1.074,-0.67 0.186,0.115 0.289,0.056 0.229,-0.131 -0.148,-0.459 2.746,-3.33 3.05,-3.026 0.132,0.132 0.24,-0.07 0.24,-0.45 0,-0.38 0.142,-0.602 0.316,-0.495 0.174,0.107 0.651,-0.304 1.062,-0.915 0.41,-0.61 1.245,-1.445 1.855,-1.855 0.611,-0.411 1.022,-0.888 0.915,-1.062 -0.107,-0.174 0.115,-0.316 0.495,-0.316 0.38,0 0.582,-0.108 0.45,-0.24 -0.291,-0.292 2.557,-3.201 2.996,-3.06 0.171,0.055 0.266,-0.066 0.211,-0.268 -0.055,-0.202 0.807,-1.147 1.916,-2.1 1.108,-0.953 2.098,-1.912 2.2,-2.132 0.101,-0.22 0.319,-0.355 0.484,-0.3 0.165,0.055 0.255,-0.125 0.2,-0.4 -0.055,-0.275 0.138,-0.451 0.43,-0.39 0.291,0.06 0.421,-0.066 0.288,-0.281 -0.133,-0.215 0.259,-0.662 0.87,-0.994 0.612,-0.332 0.955,-0.61 0.763,-0.619 -0.192,-0.009 -0.127,-0.284 0.145,-0.612 0.272,-0.327 0.654,-0.497 0.849,-0.376 0.195,0.121 0.355,-0.072 0.355,-0.428 0,-0.356 0.18,-0.536 0.4,-0.4 0.22,0.136 0.4,0.007 0.4,-0.287 0,-0.503 1.53,-2.092 2.029,-2.106 0.499,-0.015 1.515,-1.331 1.252,-1.623 -0.155,-0.171 0.074,-0.183 0.507,-0.027 0.433,0.157 0.664,0.162 0.514,0.012 -0.31,-0.311 2.875,-3.802 7.263,-7.96 1.63,-1.545 3.16,-3.054 3.4,-3.353 1.284,-1.604 13.853,-13.905 14.028,-13.73 0.114,0.114 0.207,-0.013 0.207,-0.283 0,-0.27 0.208,-0.362 0.462,-0.205 0.29,0.179 0.353,0.11 0.169,-0.188 -0.388,-0.628 5.602,-6.6 6.232,-6.211 0.285,0.176 0.352,0.109 0.175,-0.177 -0.171,-0.277 -0.025,-0.462 0.362,-0.462 0.356,0 0.536,-0.18 0.4,-0.4 -0.136,-0.22 0.063,-0.4 0.443,-0.4 0.38,0 0.575,-0.115 0.434,-0.256 -0.14,-0.141 0.415,-0.886 1.234,-1.657 0.819,-0.771 1.236,-1.258 0.927,-1.083 -0.376,0.214 -0.467,0.167 -0.276,-0.142 0.157,-0.254 0.555,-0.462 0.885,-0.462 0.33,0 0.489,-0.18 0.353,-0.4 -0.136,-0.22 0.044,-0.4 0.4,-0.4 0.356,0 0.551,-0.155 0.434,-0.345 -0.26,-0.421 2.781,-3.307 3.123,-2.965 0.134,0.134 0.243,-0.05 0.243,-0.409 0,-0.359 0.405,-0.869 0.9,-1.133 0.495,-0.265 1.371,-0.985 1.947,-1.6 0.576,-0.616 1.161,-1.006 1.3,-0.867 0.139,0.139 0.253,-0.058 0.253,-0.438 0,-0.425 0.18,-0.579 0.468,-0.401 0.309,0.191 0.386,0.076 0.228,-0.337 -0.293,-0.762 2.069,-3.05 2.871,-2.783 0.328,0.11 0.433,0.002 0.265,-0.27 -0.164,-0.265 -0.011,-0.452 0.368,-0.452 0.356,0 0.548,-0.161 0.426,-0.357 -0.121,-0.197 0.305,-0.776 0.947,-1.287 0.642,-0.511 1.088,-1.057 0.991,-1.214 -0.096,-0.156 0.19,-0.4 0.636,-0.542 0.446,-0.142 0.708,-0.425 0.582,-0.629 -0.126,-0.204 0.062,-0.371 0.418,-0.371 0.356,0 0.564,-0.135 0.463,-0.3 -0.247,-0.401 2.758,-3.345 3.083,-3.021 0.14,0.14 0.254,-0.056 0.254,-0.436 0,-0.38 0.167,-0.587 0.371,-0.461 0.204,0.126 0.487,-0.136 0.629,-0.582 0.142,-0.446 0.386,-0.732 0.542,-0.636 0.157,0.097 0.703,-0.349 1.214,-0.991 0.511,-0.642 1.09,-1.068 1.287,-0.947 0.196,0.122 0.357,-0.07 0.357,-0.426 0,-0.379 0.187,-0.532 0.452,-0.368 0.272,0.168 0.38,0.063 0.27,-0.265 -0.267,-0.802 2.021,-3.164 2.783,-2.871 0.413,0.158 0.528,0.081 0.337,-0.228 -0.178,-0.288 -0.024,-0.468 0.401,-0.468 0.38,0 0.577,-0.114 0.438,-0.253 -0.139,-0.139 0.251,-0.724 0.867,-1.3 0.615,-0.576 1.335,-1.452 1.6,-1.947 0.264,-0.495 0.774,-0.9 1.133,-0.9 0.359,0 0.543,-0.109 0.41,-0.243 -0.134,-0.133 0.117,-0.628 0.556,-1.1 0.439,-0.471 0.833,-0.775 0.876,-0.675 0.154,0.364 1.877,-1.375 1.877,-1.895 0,-0.294 0.18,-0.423 0.4,-0.287 0.22,0.136 0.4,-0.023 0.4,-0.353 0,-0.33 0.208,-0.728 0.462,-0.885 0.301,-0.187 0.364,-0.091 0.181,0.276 -0.154,0.309 0.043,0.113 0.438,-0.436 0.396,-0.55 1.169,-1.453 1.719,-2.007 1.441,-1.452 3.2,-3.867 3.2,-4.392 0,-0.248 0.178,-0.34 0.395,-0.206 0.234,0.145 0.29,-0.032 0.135,-0.434 -0.148,-0.388 -0.018,-0.868 0.305,-1.121 0.311,-0.243 0.565,-0.712 0.565,-1.042 0,-0.33 0.232,-0.553 0.516,-0.495 0.317,0.065 0.486,-0.244 0.438,-0.8 -0.133,-1.539 0.032,-2.761 0.346,-2.567 0.165,0.102 0.3,-1.777 0.3,-4.176 0,-2.399 -0.146,-4.362 -0.324,-4.362 -0.178,0 -0.212,-0.18 -0.076,-0.4 0.136,-0.22 0.087,-0.4 -0.11,-0.4 -0.196,0 -0.357,-0.646 -0.357,-1.435 0,-0.803 -0.249,-1.593 -0.566,-1.794 -0.312,-0.197 -0.411,-0.362 -0.221,-0.365 0.19,-0.003 0.051,-0.456 -0.309,-1.006 -0.361,-0.55 -0.516,-1.005 -0.346,-1.012 0.17,-0.007 0.008,-0.188 -0.36,-0.403 -0.368,-0.214 -0.784,-0.914 -0.924,-1.554 -0.141,-0.64 -0.526,-1.268 -0.857,-1.395 -0.33,-0.127 -0.524,-0.367 -0.43,-0.533 0.094,-0.167 -0.603,-0.933 -1.551,-1.703 -0.947,-0.77 -1.649,-1.623 -1.56,-1.895 0.089,-0.273 0.034,-0.476 -0.123,-0.453 -0.721,0.108 -1.316,-0.08 -1.142,-0.361 0.105,-0.169 -0.605,-0.637 -1.576,-1.039 -0.972,-0.402 -1.666,-0.893 -1.544,-1.091 0.123,-0.199 -0.038,-0.361 -0.358,-0.361 -0.319,0 -0.679,-0.256 -0.799,-0.569 -0.12,-0.313 -0.544,-0.488 -0.943,-0.39 -0.398,0.098 -1.353,-0.21 -2.123,-0.685 -1.875,-1.159 4.23,-1.068 -82.116,-1.22 -61.739,-0.11 -76.776,-0.236 -77.03,-0.647 -0.174,-0.282 -0.933,-0.594 -1.686,-0.694 -3.202,-0.426 -4.369,-0.704 -4.369,-1.039 0,-0.196 -0.27,-0.356 -0.6,-0.356 -0.33,0 -0.6,-0.18 -0.6,-0.4 0,-0.22 -0.377,-0.4 -0.838,-0.4 -0.878,0 -2.906,-1.255 -4.009,-2.481 -0.356,-0.395 -0.761,-0.719 -0.9,-0.719 -0.419,0 -3.661,-3.376 -3.553,-3.7 0.055,-0.165 -0.112,-0.3 -0.372,-0.3 -0.619,0 -3.176,-2.799 -2.926,-3.203 0.106,-0.172 -0.075,-0.416 -0.403,-0.542 -0.789,-0.303 -3.485,-5.866 -3.262,-6.729 0.096,-0.371 -0.097,-0.779 -0.43,-0.906 -0.442,-0.17 -0.537,-0.568 -0.354,-1.483 0.15,-0.75 0.056,-1.485 -0.234,-1.835 -0.266,-0.32 -0.518,-0.79 -0.56,-1.042 -0.042,-0.253 -0.204,-0.955 -0.361,-1.56 -0.19,-0.735 -0.13,-1.1 0.182,-1.1 0.263,0 0.337,-0.211 0.169,-0.483 -0.455,-0.735 -0.547,-2.363 -0.119,-2.099 0.235,0.146 0.373,-27.238 0.367,-72.812 -0.006,-41.345 -0.161,-72.952 -0.358,-72.83 -0.49,0.303 -0.685,-0.78 -0.66,-3.676 0.014,-1.681 -0.135,-2.5 -0.456,-2.5 -0.262,0 -0.408,-0.356 -0.325,-0.792 0.084,-0.435 -0.016,-0.896 -0.223,-1.023 -0.206,-0.128 -0.375,-0.606 -0.375,-1.063 0,-0.457 -0.452,-1.249 -1.005,-1.762 -0.553,-0.512 -0.958,-1.072 -0.9,-1.245 0.058,-0.173 -0.215,-0.675 -0.605,-1.115 -2.176,-2.452 -2.651,-3.14 -2.421,-3.512 0.14,-0.226 0.061,-0.292 -0.175,-0.146 -0.237,0.146 -0.766,-0.162 -1.177,-0.684 -0.411,-0.523 -1.146,-1.077 -1.632,-1.231 -0.487,-0.155 -0.885,-0.449 -0.885,-0.654 0,-0.205 -0.287,-0.373 -0.638,-0.373 -0.351,0 -1.176,-0.382 -1.832,-0.85 -0.657,-0.468 -1.633,-0.85 -2.169,-0.85 -0.537,0 -1.073,-0.157 -1.192,-0.35 -0.119,-0.192 -0.656,-0.35 -1.193,-0.35 -0.661,0 -0.978,-0.226 -0.982,-0.7 -0.004,-0.439 -0.116,-0.533 -0.3,-0.252 -0.162,0.247 -0.834,0.386 -1.494,0.309 -3.593,-0.42 -4.916,-0.456 -5.412,-0.15"
     style="fill-rule:evenodd;stroke:none" />
</svg>
