<svg width="100%" height="100%" viewBox="0 0 400 400" version="1.1" xmlns="http://www.w3.org/2000/svg" style="fill-rule:evenodd;clip-rule:evenodd;stroke-linejoin:round;stroke-miterlimit:2;">
<g>
<path d="M255,52C255,52.55 199.758,79 198.779,79C197.801,79 197,79.401 197,79.892C197,80.382 134.794,127 133.909,127C133.047,127 130.455,129.1 126.777,132.777C126.227,133.327 124.652,134.902 123.277,136.277C121.902,137.652 120.328,139.228 119.778,139.778C119.228,140.328 114.954,144.604 110.279,149.279C94.316,165.241 94,165.588 94,167.138C94,167.919 93.045,169.22 91.877,170.029C89.845,171.438 35,243.851 35,244.969C35,246.086 34.55,247 34,247C33.45,247 33,247.576 33,248.279C33,248.983 2.819,302.025 2.448,304.5C2.077,306.975 1.374,309 0.886,309C0.399,309 0,310.125 0,311.5C0,313.056 0.567,314 1.5,314C2.325,314 3,314.45 3,315C3,315.55 83,349.428 83,349.95C83,350.473 128,359.634 128,360.119C128,360.604 138.575,361 151.5,361C164.425,361 175,360.615 175,360.144C175,359.673 178.262,358.985 182.25,358.616C186.238,358.247 189.65,357.507 189.833,356.973C190.017,356.438 191.029,356 192.083,356C193.137,356 212.289,345.371 214.298,343.202C219.124,337.99 220.201,337 221.045,337C221.57,337 397.675,62.678 398.5,62.362C401.636,61.158 399.6,56.96 395.203,55.565C393.992,55.18 350,40.368 350,39.883C350,39.397 339.875,39 327.5,39"/>
</g>
</svg>
