<svg id="svg" version="1.1" width="400" height="400" xmlns="http://www.w3.org/2000/svg" xmlns:xlink="http://www.w3.org/1999/xlink" style="display: block;"><g id="svgg"><path id="path0" d="M0.000 194.000 L 0.000 320.000 31.155 320.000 C 60.741 320.000,62.233 319.912,60.784 318.250 C 1.474 250.238,-2.652 142.218,51.369 71.742 L 54.237 68.000 27.119 68.000 L 0.000 68.000 0.000 194.000 M347.649 69.250 C 348.071 69.938,349.624 72.300,351.099 74.500 C 361.987 90.731,370.267 112.879,373.442 134.263 C 375.098 145.419,376.531 178.752,375.494 182.018 C 374.872 183.979,373.638 184.000,258.933 184.000 C 149.183 184.000,143.001 184.093,143.010 185.750 C 143.166 213.337,149.407 243.782,158.743 262.500 C 183.548 312.233,244.813 320.683,291.189 280.768 C 301.651 271.764,308.477 263.466,324.569 240.192 C 324.754 239.925,382.967 268.735,383.824 269.518 C 384.431 270.073,380.744 276.486,373.409 287.633 C 367.084 297.244,362.285 303.619,351.178 317.167 L 348.855 320.000 373.928 320.000 L 399.000 320.000 399.000 194.000 L 399.000 68.000 372.941 68.000 C 352.351 68.000,347.043 68.262,347.649 69.250 M187.500 75.892 C 166.125 82.125,151.301 99.134,147.532 121.750 L 146.824 126.000 199.912 126.000 L 253.000 126.000 252.985 122.250 C 252.858 89.974,219.702 66.502,187.500 75.892 " stroke="none" fill="#000000" fill-rule="evenodd"></path></g></svg>