<?xml version="1.0" encoding="UTF-8" standalone="no"?>
<svg
   xmlns="http://www.w3.org/2000/svg"
   version="1.1"
   width="1300"
   viewBox="0 0 133.9 133.81173"
   height="1300">
  <path
     d="m 65.904912,33.861844 c -1.692009,2.58778 -3.384129,4.777469 -5.076139,6.668538 -2.289189,2.58778 -4.67785,4.678009 -7.166102,6.270489 -2.488248,1.59248 -5.374534,2.886324 -8.459964,3.682564 -1.39342,0.398119 -2.886365,0.597223 -4.578375,0.895813 -1.094829,0.19906 -2.189683,0.298519 -3.284514,0.398049 -0.497648,0 -37.32379551,3.881588 -37.32379551,3.881588 v 2.587926 c 0,0 39.61297451,-5.175616 40.80733351,-5.374676 1.692011,-0.29859 3.28447,-0.597205 4.677889,-0.995325 3.18496,-0.89577 6.170922,-2.189562 8.758702,-3.981102 2.48825,-1.692008 4.876912,-4.180253 7.166103,-6.867563 1.492948,-1.69201 2.985912,-3.981316 4.478862,-6.170976 z m 27.868306,0 v 4.478862 c 0,0 11.247042,16.024455 13.934352,19.806592 3.2845,4.578381 6.17072,5.07606 13.33688,6.66854 7.16616,1.59248 12.7398,2.786747 12.7398,2.786747 v -0.69678 c 0,0 -3.78214,-0.796172 -12.54078,-2.687242 -8.75864,-1.89107 -11.24671,-4.578364 -13.43638,-8.061915 C 105.61742,52.673099 93.773218,33.861844 93.773218,33.861844 Z M 65.8054,39.037496 c -1.891071,2.488249 -3.583136,4.677973 -5.374676,6.469513 -2.38872,2.68731 -4.777365,4.677843 -7.265613,6.071264 -2.488252,1.39342 -5.374719,2.488308 -8.559679,3.085488 -1.39342,0.298589 -2.786853,0.497527 -4.478863,0.696588 l -2.985776,0.298536 c -0.497649,0 -1.09495,0.09972 -1.5926,0.09972 -12.14266,1.19436 -24.185751,2.289196 -35.53217051,3.384026 v 2.587726 C 11.362442,60.336929 23.604558,58.843931 35.747219,57.450512 c 0.497649,-0.09954 1.09495,-0.0995 1.592599,-0.199026 0.995301,-0.09953 1.990476,-0.198989 2.985775,-0.398049 1.692013,-0.19906 3.284488,-0.497711 4.578377,-0.796301 3.28449,-0.69671 6.270435,-1.891058 8.858214,-3.483538 2.587781,-1.59248 4.777565,-3.682692 7.265814,-6.370002 1.492951,-1.69201 3.184922,-3.981116 4.777402,-6.170775 z m 28.067331,0.199024 v 4.080813 c 0.49765,0.59718 10.948449,14.33234 13.934359,18.114479 3.28449,4.279791 8.45989,5.274993 13.43638,6.270293 4.97651,1.09483 12.64051,2.58772 12.64051,2.58772 v -0.59707 c -0.0996,0 -10.25176,-1.99055 -12.74001,-2.58773 -9.65441,-2.090129 -11.84392,-5.573716 -13.4364,-7.763377 C 106.1151,57.151989 93.872731,39.23652 93.872731,39.23652 Z M 65.8054,44.710708 c -1.9906,2.488251 -3.782143,4.47875 -5.673214,6.270288 -2.38872,2.189661 -4.976589,3.981275 -7.46484,5.275165 -2.488249,1.19436 -5.274987,2.090076 -8.559475,2.587725 -1.393421,0.19906 -2.786854,0.398216 -4.478864,0.597277 l -39.61298451,3.185 v 2.587724 L 27.386766,62.267557 v -0.935458 h 8.680614 l 3.66114,-0.398049 c 1.692008,-0.19906 3.184955,-0.397998 4.578375,-0.696588 3.38402,-0.597179 6.270436,-1.592573 8.858216,-2.886463 2.687309,-1.39342 5.274925,-3.583031 7.763174,-5.971751 1.692011,-1.59248 3.185105,-3.682598 4.877115,-5.772727 z m 28.067331,0 v 3.782077 c 0.49765,0.59718 11.048019,13.038563 13.834839,16.323053 3.2845,3.782137 7.86271,4.777427 13.4364,5.772727 5.57368,0.99529 12.64028,2.3887 12.64028,2.3887 v -0.59728 c 0,0 -8.06191,-1.49293 -12.64028,-2.3887 -7.9624,-1.59247 -11.1472,-4.080684 -13.4364,-7.066585 C 105.41838,59.839271 93.872731,44.710708 93.872731,44.710708 Z m -0.09951,5.175452 v 3.483538 c 0,0 10.450619,11.147408 13.834639,14.531417 4.37933,4.37933 8.55962,4.67794 13.43659,5.57371 4.87697,0.89577 12.64029,2.28919 12.64029,2.28919 v -0.59707 c 0.0996,0 -9.25629,-1.59249 -12.54077,-2.28919 -8.26099,-1.59248 -9.95284,-2.88638 -13.4364,-6.768054 C 105.51792,63.720981 94.270868,50.48334 93.773218,49.88616 Z m -27.967819,0.298738 c -2.189661,2.189659 -3.981169,4.080751 -5.872239,5.5737 -2.48825,1.9906 -4.47894,3.483529 -7.46484,4.67789 -0.90169,0.367355 -1.826456,0.655078 -2.776739,0.895611 h 3.613287 c 2.48758,-1.211869 5.03284,-3.051113 7.32488,-4.976425 1.692009,-1.492951 3.384111,-3.284564 5.175651,-5.275164 z m 27.967819,5.175451 0.09951,3.384026 c 0,0 10.848939,10.15219 13.834839,12.93903 3.38402,3.08543 7.56412,3.68259 13.4364,4.67789 5.97181,0.9953 12.64028,2.09016 12.64028,2.09016 v -0.59728 c 0,0 -7.0666,-1.19437 -12.64028,-2.18967 -5.87228,-1.09483 -10.1519,-2.28918 -13.4364,-5.77274 -3.18495,-3.28448 -13.934352,-14.531416 -13.934351,-14.531416 z m -27.868307,0.09951 c -2.09013,2.090131 -3.384024,3.284651 -5.673212,4.777601 -0.584052,0.402795 -1.242109,0.764286 -1.936591,1.094637 h 2.306808 c 2.351737,-1.743513 5.302995,-4.880586 5.302995,-4.976425 z m 27.868306,5.076138 v 3.085289 c 0,0 9.7541,7.962409 13.93435,11.346429 3.58308,2.9859 7.4646,3.28454 13.4364,4.27984 5.97181,0.9953 12.64028,2.09016 12.64028,2.09016 v -0.69679 c 0,0 -5.27506,-0.79607 -12.64028,-2.08996 -7.36522,-1.39342 -10.05238,-2.28926 -13.4364,-5.27516 -3.6826,-3.18496 -13.934353,-12.739804 -13.934353,-12.739804 z M 27.88413,61.82946 V 99.352885 H 84.517356 V 61.829462 Z m -0.497364,2.219912 -27.37074351,1.960816 v 2.587727 L 27.386766,65.931499 Z m 28.863632,0.766466 0.597274,1.990447 h 1.990651 l -1.5926,1.29387 0.597274,1.99065 -1.592599,-1.19435 -1.592401,1.19435 0.597075,-1.99065 -1.592401,-1.29387 h 1.990651 z m 37.52282,1.094637 v 2.98598 c 0,0 9.555032,6.76814 13.934352,9.65451 4.47885,2.98589 8.36036,3.28441 13.4364,3.88159 5.07603,0.59718 12.64028,1.69191 12.64028,1.69191 v -0.69658 c 0,0 -4.27977,-0.59727 -12.64028,-1.79163 -8.36053,-1.29389 -11.24673,-3.18492 -13.4364,-4.7774 -2.18965,-1.69201 -13.934352,-10.94838 -13.934352,-10.94838 z m -31.053307,0.69679 0.497564,1.89114 h 1.990651 l -1.592401,1.19435 0.597075,1.89093 -1.5924,-1.19435 -1.592402,1.29407 0.696588,-1.99065 -1.5924,-1.19435 h 1.990651 z m -12.938828,0.0996 0.497564,1.79162 h 1.990649 l -1.5926,1.19436 0.597275,1.89093 -1.492888,-1.09463 -1.692112,1.19435 0.597274,-1.89114 -1.592599,-1.19435 h 1.99065 z m -22.394317,0.99332 c -3.575938,0.21842 -7.144429,0.45847 -10.749152,0.69879 l -16.62159151,1.1943 v 2.58773 L 16.737126,70.588565 c 3.286518,-0.30431 6.920842,-0.64485 10.64964,-0.97811 z m 66.386452,3.38603 v 2.68724 c 0,0 9.853622,5.67321 13.934352,7.9624 4.08075,2.28919 7.86271,3.08558 13.4364,3.68276 5.57368,0.59719 12.64028,1.39338 12.64028,1.39338 v -0.69679 c 0,0 -4.08071,-0.49757 -12.64028,-1.5924 -8.55958,-1.09483 -11.24673,-3.18499 -13.4364,-4.37935 -2.18965,-1.19436 -13.934352,-9.05724 -13.934352,-9.05724 z m -48.670022,0.29854 0.597075,1.89114 h 1.99065 l -1.592601,1.19435 0.597276,1.89113 -1.5924,-1.19435 -1.592602,1.19435 0.597277,-1.89113 -1.592602,-1.19435 h 1.990651 z m 22.294604,0 0.597275,1.89114 h 1.99045 l -1.5924,1.19435 0.597276,1.89113 -1.592601,-1.19435 -1.5924,1.19435 0.597076,-1.89113 -1.592402,-1.19435 h 1.990651 z m -40.011034,0.21545 c -8.765142,0.42571 -17.6690313,0.901 -27.271231,1.37715 v 2.58772 c 9.2130269,-0.71489 18.236173,-1.42863 27.271231,-2.09285 z m 0,3.80329 c -8.998464,0.35054 -18.0855792,0.75319 -27.37074351,1.15689 v 2.58773 C 9.2172398,78.502345 18.288107,77.921305 27.386766,77.300345 Z m 66.386452,0.95789 v 2.3887 c 0,0 9.754102,4.47872 13.934352,6.3698 4.67791,2.09012 6.96694,2.38879 13.4364,2.98597 6.56897,0.59718 12.64028,1.29387 12.64028,1.29387 v -0.59708 c 0,0 -6.56896,-0.69686 -12.64028,-1.39357 -6.17086,-0.79624 -9.55473,-1.69197 -13.4364,-3.68257 -3.58307,-1.69201 -13.934352,-7.36512 -13.934352,-7.36512 z m -50.362137,1.393371 0.597276,1.891139 h 1.990451 l -1.592401,1.19435 0.597076,1.89094 -1.592402,-1.19436 -1.592399,1.19436 0.597075,-1.89094 -1.592401,-1.19435 h 1.990651 z m 25.678832,0 0.696587,1.891139 h 1.990651 l -1.5924,1.19435 0.597075,1.89094 -1.592401,-1.19436 -1.5926,1.19436 0.597275,-1.89094 -1.692112,-1.19435 h 1.99065 z m -41.703147,1.36793 -27.37074351,0.72221 v 2.587729 L 27.386766,80.966135 Z m 66.386452,2.513639 -0.09951,2.18968 c 0,0 9.057182,3.18492 13.934152,4.7774 4.87697,1.59248 7.46479,1.89125 13.43659,2.3889 6.07134,0.59718 12.64029,1.09463 12.64029,1.09463 v -0.59707 c 0,0 -11.04783,-1.0948 -12.54077,-1.29386 -3.48354,-0.29859 -7.76319,-0.49776 -13.4364,-2.78695 -5.77273,-2.28919 -13.93435,-5.77273 -13.93435,-5.77273 z m -66.386452,1.29687 -27.37074351,0.49476 v 2.58772 L 27.386766,84.864915 Z m 17.71643,1.39057 0.597075,1.89094 h 1.99065 l -1.592601,1.19435 0.597276,1.89113 -1.5924,-1.19435 -1.592602,1.19435 0.597277,-1.89113 -1.592602,-1.19435 h 1.990651 z m 22.294604,0 0.597275,1.89094 h 1.99045 l -1.5924,1.19435 0.597276,1.89113 -1.592601,-1.19435 -1.5924,1.19435 0.597076,-1.89113 -1.592402,-1.19435 h 1.990651 z m -40.011034,2.29819 c -9.093006,0.0256 -18.1974793,0.107381 -27.37074351,0.190021 v 2.587729 C 8.7908129,89.068505 18.048917,88.805565 27.386766,88.497615 Z m 66.386452,0.38905 v 2.18966 c 0,0 10.251752,2.488281 13.934352,3.284531 3.2845,0.796239 7.76319,1.19428 13.4364,1.592399 6.96709,0.49765 12.64028,0.895811 12.64028,0.895811 v -0.59728 c 0,0 -10.0525,-0.79606 -12.64028,-0.99512 -2.58778,-0.19907 -7.76319,-0.79625 -13.4364,-2.28919 -5.67319,-1.49295 -13.934352,-4.08081 -13.934352,-4.080811 z m -31.152818,1.89112 0.597075,1.89095 h 1.990651 l -1.592401,1.19435 0.597075,1.891141 -1.5924,-1.19435 -1.592402,1.19435 0.597076,-1.891141 -1.592401,-1.19435 h 1.990452 z m -12.839317,0.0996 0.597076,1.89093 h 1.990651 l -1.592402,1.19436 0.597076,1.89114 -1.592401,-1.19435 -1.5926,1.19435 0.597277,-1.89114 -1.592602,-1.19436 h 1.990651 z m -34.039282,1.29385 -15.72577851,0.0996 v 2.58773 L 15.841314,92.584635 c 3.739562,-0.068 7.62239,-0.18132 11.545452,-0.27871 v -1.9352 c -3.977504,-0.0293 -7.884717,-0.0752 -11.644965,-0.0752 z m 40.508597,0.29854 0.597274,1.89114 h 1.990651 l -1.5926,1.19435 0.597274,1.89113 -1.592599,-1.19455 -1.592401,1.19455 0.597075,-1.89113 -1.592401,-1.19435 h 1.990651 z m 37.52282,1.69211 v 2.18968 c 0,0 7.265852,0.89569 13.934352,1.592401 2.9859,0.298589 8.1613,0.597219 13.4364,0.89581 5.07603,0.29859 12.64028,0.69659 12.64028,0.69659 v -0.597081 c 0,0 -11.84404,-0.89581 -12.64028,-0.89581 -0.79625,0 -8.06178,-0.59712 -13.4364,-1.49289 -7.16615,-1.19436 -13.934352,-2.3887 -13.934352,-2.3887 z M 0.01602249,93.779116 v 2.58772 C 8.8345459,96.283495 18.140641,96.200405 27.386766,96.117225 v -1.83908 C 18.314167,94.111785 9.2505148,93.945365 0.01602249,93.778985 Z m 0,3.58305 v 2.587719 H 27.386766 v -1.88372 z m 93.75719551,0.4977 v 2.08996 h 40.011032 v -0.597071 c 0,0 -22.79218,-0.8958 -26.07668,-0.995329 -3.28449,-0.0996 -13.934352,-0.49756 -13.934352,-0.49756 z"
     style="fill:currentColor;stroke-width:0.97385037" />
</svg>
