<svg version="1.1" width="400" height="400" xmlns="http://www.w3.org/2000/svg">
<g>
<path d="M35.653 165.437 C 25.616 170.354,21.141 178.852,23.841 187.864 C 24.479 189.992,25.000 191.992,25.000 192.310 C 25.000 192.628,22.300 194.100,19.000 195.580 C 15.700 197.061,13.000 198.662,13.000 199.137 C 13.000 199.611,12.419 200.000,11.708 200.000 C 10.998 200.000,8.575 201.912,6.325 204.250 C -4.403 215.393,-2.640 228.534,10.396 234.604 C 16.941 237.651,69.472 238.359,75.050 235.474 C 77.694 234.107,78.000 234.107,78.000 235.474 C 78.000 236.756,79.898 237.000,89.887 237.000 L 101.773 237.000 107.607 229.750 C 122.450 211.303,122.773 211.000,127.599 211.000 C 132.066 211.000,132.903 211.697,130.874 213.726 C 128.205 216.395,130.344 226.744,134.431 230.929 C 140.021 236.654,142.649 237.018,177.931 236.955 L 208.936 236.899 214.718 232.441 C 217.898 229.990,222.037 226.750,223.915 225.242 C 226.970 222.789,227.208 222.730,226.165 224.684 C 224.506 227.795,224.724 233.582,226.571 235.429 C 228.742 237.599,257.679 237.735,261.818 235.594 C 264.154 234.386,264.808 234.386,266.460 235.594 C 270.206 238.334,304.894 237.561,309.195 234.642 L 312.670 232.284 315.560 234.392 C 318.654 236.650,336.957 237.981,344.764 236.516 C 353.615 234.856,362.659 219.837,358.965 212.934 C 357.962 211.060,358.420 211.000,373.843 211.000 C 394.212 211.000,398.122 209.642,399.642 202.040 L 400.296 198.771 361.898 199.163 L 323.500 199.555 318.486 202.308 C 311.996 205.871,307.769 212.890,307.769 220.103 L 307.769 225.000 297.450 225.000 L 287.131 225.000 289.403 218.250 C 291.626 211.642,291.756 211.490,295.587 211.000 C 300.938 210.316,305.665 207.548,307.483 204.033 C 309.860 199.437,309.476 199.000,303.061 199.000 L 297.121 199.000 298.578 194.250 C 299.379 191.637,300.702 187.415,301.517 184.866 C 303.717 177.989,303.725 178.000,296.464 178.000 L 289.929 178.000 288.094 182.282 C 285.614 188.066,276.360 196.388,270.090 198.470 C 262.407 201.022,259.614 211.000,266.583 211.000 C 268.554 211.000,270.012 211.337,269.823 211.750 C 269.635 212.162,268.412 215.313,267.106 218.750 L 264.732 225.000 256.971 225.000 L 249.211 225.000 249.981 221.750 C 250.404 219.963,251.707 216.121,252.875 213.213 C 259.760 196.082,244.149 192.124,228.238 206.966 C 223.597 211.295,223.437 210.983,226.046 202.705 C 227.199 199.048,226.576 198.858,214.560 199.212 L 204.763 199.500 202.523 206.000 C 201.291 209.575,199.473 215.313,198.483 218.750 L 196.683 225.000 174.711 225.000 L 152.738 225.000 153.289 221.750 C 154.484 214.696,156.796 211.000,160.013 211.000 C 163.556 211.000,163.554 210.993,161.000 216.000 C 157.965 221.950,158.031 222.000,168.813 222.000 C 185.940 222.000,191.626 208.689,177.662 201.283 C 174.213 199.454,116.614 198.010,114.497 199.699 C 113.946 200.140,112.259 202.300,110.750 204.500 C 109.240 206.700,106.204 210.489,104.003 212.920 C 101.801 215.351,99.912 218.051,99.804 218.920 C 99.697 219.789,99.359 215.775,99.054 210.000 L 98.500 199.500 87.137 199.216 L 75.773 198.932 76.498 211.966 L 77.223 225.000 54.046 225.000 C 26.907 225.000,25.046 224.519,25.019 217.500 C 24.996 211.617,36.933 200.000,43.000 200.000 C 48.005 200.000,48.968 194.217,45.896 182.620 C 44.662 177.959,44.707 177.655,46.913 175.870 C 50.624 172.864,52.678 173.454,53.463 177.750 C 56.712 195.533,85.485 192.807,83.762 174.880 C 83.384 170.940,82.579 169.161,79.945 166.443 L 76.608 163.000 58.554 163.031 C 41.612 163.061,40.201 163.209,35.653 165.437 M76.613 169.275 C 81.509 174.617,81.301 178.592,75.871 183.498 C 67.717 190.864,55.577 184.100,57.600 173.318 L 58.281 169.691 52.390 170.294 C 42.538 171.303,39.093 176.964,42.529 186.500 C 45.178 193.853,42.469 198.196,33.912 200.316 C 25.244 202.463,18.848 217.055,23.601 223.841 C 26.395 227.830,29.560 228.371,53.500 228.947 L 76.500 229.500 73.547 231.500 C 69.881 233.984,30.537 235.069,18.797 233.011 C -2.442 229.286,-1.681 208.107,20.000 199.543 C 30.071 195.565,29.749 195.985,27.595 189.649 C 22.227 173.855,35.654 164.737,63.363 165.358 L 73.227 165.580 76.613 169.275 M295.809 190.250 C 291.052 203.112,290.832 201.995,298.133 202.036 L 304.500 202.072 301.500 204.531 C 299.255 206.371,297.310 206.991,293.769 206.995 C 289.419 207.000,288.991 207.221,288.451 209.750 C 288.128 211.262,286.769 215.721,285.432 219.657 C 284.094 223.594,283.000 227.293,283.000 227.878 C 283.000 228.562,287.730 229.042,296.250 229.221 L 309.500 229.500 306.547 231.500 C 304.022 233.210,301.580 233.550,289.723 233.848 C 265.951 234.443,265.442 234.051,271.100 219.500 C 275.947 207.033,275.947 207.000,271.032 207.000 C 265.157 207.000,266.758 203.152,273.593 200.842 C 278.648 199.134,285.640 194.002,286.827 191.129 C 289.109 185.605,292.586 182.024,295.680 182.012 L 298.860 182.000 295.809 190.250 M250.345 206.170 C 250.260 208.738,248.797 214.621,247.095 219.242 C 245.393 223.864,244.000 227.950,244.000 228.322 C 244.000 228.695,248.275 229.000,253.500 229.000 C 263.117 229.000,264.954 229.814,260.750 232.214 C 257.454 234.096,230.255 234.021,229.081 232.127 C 228.546 231.265,229.303 227.811,231.115 222.848 C 235.453 210.960,234.433 209.880,226.393 217.851 C 223.702 220.519,219.588 223.953,217.250 225.484 C 214.912 227.014,213.000 228.616,213.000 229.044 C 213.000 230.502,204.379 234.000,200.785 234.000 L 197.202 234.000 199.939 225.250 C 201.444 220.438,203.957 213.238,205.524 209.250 L 208.373 202.000 215.619 202.000 L 222.865 202.000 219.432 210.743 C 214.895 222.300,215.562 222.994,224.000 215.500 C 226.787 213.025,229.389 210.998,229.783 210.995 C 230.178 210.993,232.278 209.358,234.450 207.363 C 243.205 199.322,250.591 198.768,250.345 206.170 M95.000 215.500 C 95.000 231.338,95.121 231.434,102.500 221.457 C 105.568 217.308,108.961 213.158,110.039 212.234 C 111.118 211.311,112.000 210.136,112.000 209.622 C 112.000 209.109,113.176 207.147,114.614 205.262 L 117.227 201.835 144.364 202.168 C 172.787 202.516,173.637 202.643,178.750 207.299 C 184.147 212.215,179.647 218.000,170.427 218.000 C 163.291 218.000,163.172 217.871,166.004 213.226 C 169.393 207.667,168.872 207.000,161.139 207.000 L 154.278 207.000 152.139 212.589 C 149.769 218.781,149.319 226.441,151.250 227.691 C 151.938 228.136,161.950 228.727,173.500 229.005 L 194.500 229.509 189.595 231.870 C 183.256 234.921,149.735 234.745,142.500 231.623 C 134.365 228.113,131.412 219.427,136.000 212.500 C 139.349 207.443,138.846 207.000,129.750 207.002 L 121.500 207.003 117.847 210.885 C 115.839 213.020,113.674 215.740,113.038 216.930 C 112.401 218.119,109.207 222.042,105.940 225.647 C 102.673 229.252,100.000 232.606,100.000 233.101 C 100.000 233.595,96.008 234.000,91.129 234.000 L 82.258 234.000 81.668 228.250 C 81.343 225.088,80.777 217.887,80.410 212.250 L 79.742 202.000 87.371 202.000 L 95.000 202.000 95.000 215.500 M395.000 202.974 C 395.000 206.062,389.068 207.000,369.550 207.000 C 349.509 207.000,348.051 207.322,352.443 210.777 C 366.847 222.107,339.197 240.733,320.768 232.113 C 305.011 224.743,309.977 205.988,328.500 202.914 C 335.085 201.821,395.000 201.875,395.000 202.974 M327.241 213.250 C 322.858 225.471,324.685 230.000,333.996 230.000 C 336.379 230.000,345.000 212.502,345.000 207.666 C 345.000 207.300,341.508 207.000,337.241 207.000 L 329.482 207.000 327.241 213.250 M339.261 212.250 C 338.720 212.938,338.030 215.075,337.727 217.000 C 336.446 225.135,334.401 227.242,329.582 225.393 C 327.532 224.606,327.581 223.856,330.134 216.853 C 332.249 211.051,332.303 211.000,336.256 211.000 C 339.305 211.000,340.013 211.295,339.261 212.250 " stroke="none" fill-rule="evenodd"></path>
</g>
</svg>