<svg id="svg" xmlns="http://www.w3.org/2000/svg" xmlns:xlink="http://www.w3.org/1999/xlink" width="400" height="400" viewBox="0, 0, 400,400"><g id="svgg"><path id="path0" d="M95.200 59.056 C 85.032 60.549,78.151 67.146,76.550 76.937 C 75.819 81.408,75.833 114.894,76.567 116.100 C 76.969 116.762,80.262 116.800,136.653 116.800 C 189.316 116.800,196.341 116.870,196.545 117.400 C 196.671 117.730,197.141 118.000,197.587 118.000 C 198.043 118.000,198.400 118.264,198.400 118.600 C 198.400 118.930,198.730 119.200,199.133 119.200 C 200.059 119.200,202.564 122.019,203.831 124.487 L 204.800 126.373 204.803 157.887 C 204.806 192.082,204.901 194.988,205.998 194.401 C 207.902 193.382,214.473 185.501,216.115 182.267 C 220.300 174.024,220.145 175.747,220.299 135.933 L 220.433 101.267 201.717 82.458 C 180.859 61.498,179.846 60.662,173.841 59.421 C 171.058 58.846,98.910 58.511,95.200 59.056 M272.400 59.056 C 268.339 59.652,264.739 61.001,261.884 62.997 C 261.054 63.578,256.000 68.346,256.000 68.549 C 256.000 68.720,251.931 72.800,251.761 72.800 C 251.598 72.800,249.600 74.798,249.600 74.961 C 249.600 75.124,245.524 79.200,245.361 79.200 C 245.198 79.200,243.200 81.198,243.200 81.361 C 243.200 81.524,239.124 85.600,238.961 85.600 C 238.798 85.600,236.800 87.598,236.800 87.761 C 236.800 87.897,232.738 92.000,232.603 92.000 C 232.558 92.000,230.559 93.935,228.160 96.300 L 223.800 100.600 223.581 137.200 C 223.343 177.092,223.417 175.812,221.008 181.800 C 218.505 188.023,213.487 194.408,207.782 198.626 L 204.800 200.831 204.800 241.145 L 204.800 281.458 203.649 283.829 C 202.463 286.272,198.521 290.400,197.374 290.400 C 197.043 290.400,196.291 290.715,195.704 291.100 C 194.700 291.757,191.042 291.806,135.498 291.905 L 76.360 292.010 76.498 312.905 L 76.635 333.800 77.739 336.314 C 79.204 339.649,82.893 344.800,83.816 344.800 C 83.937 344.800,84.492 345.224,85.052 345.743 C 85.986 346.609,88.475 347.863,92.000 349.243 C 94.267 350.130,168.854 350.269,173.092 349.394 C 176.696 348.649,180.518 346.896,182.659 345.005 C 184.861 343.060,188.800 339.059,188.800 338.766 C 188.800 338.565,188.961 338.400,189.159 338.400 C 189.627 338.400,195.200 332.827,195.200 332.359 C 195.200 332.161,195.361 332.000,195.559 332.000 C 196.027 332.000,201.600 326.427,201.600 325.959 C 201.600 325.761,201.761 325.600,201.959 325.600 C 202.427 325.600,208.000 320.027,208.000 319.559 C 208.000 319.361,208.161 319.200,208.359 319.200 C 208.827 319.200,214.400 313.627,214.400 313.159 C 214.400 312.961,214.536 312.800,214.703 312.800 C 214.869 312.800,216.174 311.705,217.603 310.367 L 220.200 307.934 220.416 270.867 L 220.632 233.800 221.756 230.400 C 223.313 225.691,224.483 223.238,226.872 219.669 C 228.767 216.840,234.837 210.400,235.609 210.400 C 235.793 210.400,236.187 210.156,236.485 209.858 C 237.560 208.783,243.134 205.979,246.543 204.797 C 251.903 202.940,254.731 202.814,291.282 202.807 L 325.165 202.800 327.382 200.600 C 328.602 199.390,329.600 198.220,329.600 198.000 C 329.600 197.780,329.761 197.600,329.959 197.600 C 330.427 197.600,336.000 192.027,336.000 191.559 C 336.000 191.361,336.161 191.200,336.359 191.200 C 336.827 191.200,342.400 185.627,342.400 185.159 C 342.400 184.961,342.561 184.800,342.759 184.800 C 343.227 184.800,348.800 179.227,348.800 178.759 C 348.800 178.561,348.961 178.400,349.159 178.400 C 349.627 178.400,355.200 172.827,355.200 172.359 C 355.200 172.161,355.455 172.000,355.767 172.000 C 356.078 172.000,356.393 171.828,356.467 171.618 C 356.540 171.408,357.962 169.833,359.627 168.118 C 363.721 163.900,364.625 162.610,365.905 159.156 L 367.000 156.200 367.120 117.000 C 367.239 78.235,367.118 73.691,365.943 72.965 C 365.754 72.848,365.600 72.461,365.600 72.104 C 365.600 71.156,362.687 66.415,362.100 66.407 C 361.825 66.403,361.600 66.215,361.600 65.988 C 361.600 65.095,357.354 61.886,354.600 60.698 C 350.144 58.775,350.648 58.796,310.816 58.854 C 290.237 58.884,272.950 58.975,272.400 59.056 M59.800 120.391 C 42.939 120.611,42.575 120.651,39.800 122.566 C 37.673 124.034,35.681 126.353,34.527 128.705 L 33.400 131.000 33.281 203.000 C 33.153 280.816,33.082 277.867,35.151 281.200 C 36.348 283.130,38.501 285.600,38.986 285.600 C 39.256 285.600,39.802 285.960,40.200 286.400 C 40.598 286.840,41.220 287.200,41.582 287.200 C 41.944 287.200,42.465 287.425,42.740 287.700 C 44.051 289.012,190.509 289.207,192.504 287.900 C 193.091 287.515,193.843 287.200,194.174 287.200 C 195.321 287.200,199.263 283.072,200.449 280.629 L 201.600 278.258 201.600 203.916 L 201.600 129.573 200.631 127.687 C 199.364 125.219,196.859 122.400,195.933 122.400 C 195.530 122.400,195.200 122.130,195.200 121.800 C 195.200 121.464,194.843 121.200,194.387 121.200 C 193.941 121.200,193.471 120.930,193.345 120.600 C 193.108 119.984,101.927 119.841,59.800 120.391 M147.107 165.300 L 147.000 174.600 127.200 174.809 C 116.310 174.925,107.355 175.060,107.300 175.109 C 107.245 175.159,107.200 179.500,107.200 184.757 L 107.200 194.313 108.300 194.591 C 108.905 194.744,117.140 194.835,126.600 194.793 C 136.060 194.751,144.028 194.736,144.307 194.759 C 144.705 194.791,144.791 196.814,144.707 204.092 L 144.600 213.384 127.400 213.254 C 117.940 213.183,109.522 213.252,108.693 213.408 L 107.187 213.692 107.293 223.946 L 107.400 234.200 127.400 234.268 C 138.400 234.306,147.898 234.351,148.508 234.368 L 149.615 234.400 149.508 243.500 L 149.400 252.600 117.600 252.600 L 85.800 252.600 85.698 204.300 L 85.597 156.000 116.406 156.000 L 147.215 156.000 147.107 165.300 M256.372 206.428 C 251.575 206.937,242.002 210.741,239.685 213.058 C 239.387 213.356,238.993 213.600,238.809 213.600 C 238.037 213.600,231.967 220.040,230.072 222.869 C 227.687 226.432,226.518 228.881,224.952 233.600 L 223.824 237.000 223.698 272.226 L 223.571 307.453 230.741 314.626 C 234.685 318.572,238.606 322.460,239.456 323.267 C 240.305 324.075,242.662 326.415,244.694 328.467 C 246.725 330.520,249.650 333.441,251.194 334.958 C 252.737 336.475,254.000 337.870,254.000 338.058 C 254.000 338.246,254.140 338.400,254.311 338.400 C 254.482 338.400,255.281 339.075,256.087 339.900 C 256.893 340.725,258.297 342.165,259.208 343.100 C 260.118 344.035,261.007 344.800,261.183 344.800 C 261.358 344.800,261.719 345.062,261.985 345.382 C 262.251 345.702,264.028 346.737,265.934 347.682 L 269.400 349.400 308.751 349.513 C 347.803 349.625,348.128 349.620,351.515 348.771 C 356.192 347.600,361.499 343.733,363.690 339.900 C 364.161 339.075,364.694 338.400,364.874 338.400 C 365.053 338.400,365.200 338.047,365.200 337.615 C 365.200 337.183,365.605 335.878,366.100 334.715 L 367.000 332.600 367.000 292.800 L 367.000 253.000 366.049 250.506 C 365.526 249.135,364.851 247.808,364.549 247.557 C 364.247 247.307,364.000 246.856,364.000 246.556 C 364.000 246.052,363.344 245.095,362.100 243.784 C 361.825 243.494,361.600 243.194,361.600 243.116 C 361.600 242.745,354.802 236.000,354.428 236.000 C 354.193 236.000,354.000 235.857,354.000 235.682 C 354.000 235.294,348.556 229.600,348.185 229.600 C 347.879 229.600,345.600 227.221,345.600 226.901 C 345.600 226.582,339.849 221.212,339.500 221.206 C 339.335 221.203,339.200 221.006,339.200 220.768 C 339.200 220.206,335.794 216.800,335.232 216.800 C 334.994 216.800,334.800 216.637,334.800 216.437 C 334.800 215.975,327.207 208.400,326.744 208.400 C 326.555 208.400,326.400 208.130,326.400 207.800 C 326.400 207.470,326.124 207.200,325.787 207.200 C 325.451 207.200,325.071 206.930,324.945 206.600 C 324.687 205.929,262.538 205.773,256.372 206.428 " stroke="none" fill="#000000" fill-rule="evenodd"></path></g></svg>