<svg version="1.1" xmlns="http://www.w3.org/2000/svg" width="400" height="400" viewBox="0, 0, 400,400">
<g>
<path d="M174.444 37.256 L 125.556 65.556 76.923 162.055 C 43.343 228.686,28.899 259.492,30.256 261.582 C 31.338 263.247,37.222 267.447,43.333 270.917 L 54.444 277.225 105.327 247.458 C 133.312 231.086,156.472 217.960,156.793 218.290 C 157.114 218.619,172.043 253.937,189.967 296.773 L 222.556 374.658 239.714 385.107 C 249.152 390.854,257.704 395.556,258.719 395.556 C 260.957 395.556,353.349 342.519,357.084 339.090 C 359.097 337.242,355.904 325.051,343.644 287.778 L 327.563 238.889 314.005 237.381 C 258.591 231.220,236.786 166.483,277.986 130.443 L 288.665 121.101 273.120 73.130 L 257.575 25.159 242.939 17.024 C 224.199 6.608,230.718 4.682,174.444 37.256 M235.908 22.402 C 247.074 28.099,249.359 26.045,200.417 54.292 C 154.666 80.696,158.493 79.367,146.236 73.113 L 137.093 68.449 160.213 54.993 C 172.929 47.592,192.333 36.225,203.333 29.734 C 226.615 15.994,224.348 16.504,235.908 22.402 M144.565 81.872 L 154.444 88.188 201.835 233.184 C 227.901 312.933,248.711 378.697,248.080 379.327 C 247.450 379.958,242.753 377.617,237.642 374.126 C 228.503 367.882,227.634 366.063,184.728 263.363 C 157.273 197.647,139.871 158.712,137.775 158.310 C 135.652 157.904,119.940 177.394,94.444 212.060 C 72.444 241.974,53.944 266.494,53.333 266.549 C 52.722 266.605,48.909 264.630,44.859 262.161 L 37.496 257.671 83.630 166.614 C 109.004 116.532,130.872 75.556,132.225 75.556 C 133.578 75.556,139.131 78.398,144.565 81.872 M301.001 140.904 C 297.274 142.527,291.550 147.033,288.282 150.917 C 256.911 188.199,307.539 238.063,343.051 204.859 C 374.482 175.471,340.454 123.719,301.001 140.904 M335.385 152.420 C 343.909 159.592,343.931 163.103,335.533 176.344 C 323.684 195.029,297.759 203.648,290.479 191.324 C 274.074 163.552,310.801 131.734,335.385 152.420 " stroke="none" fill-rule="evenodd"></path>
</g>
</svg>