<svg width="100%" height="100%" viewBox="0 0 400 400" version="1.1" xmlns="http://www.w3.org/2000/svg" style="fill-rule:evenodd;clip-rule:evenodd;stroke-linejoin:round;stroke-miterlimit:2;">
<g>
<path d="M45,106.142C14.421,111.197 1.13,147.339 0.245,174.001C0.008,181.141 0.606,188.315 1.595,195.39C3.537,209.276 8.509,224.316 19.452,233.887C52.827,263.078 112.972,247.631 121.401,201.75L122.091,198L115.545,198C113.661,198 111.529,197.393 109.904,198.346C108.464,199.191 108.095,201.177 107.483,202.73C104.547,210.176 105.645,210.541 101.376,217.379C94.873,227.796 85.514,233.841 73.496,236.395C49.77,241.436 22.471,229.894 15.85,204.977C14.313,199.193 14.131,193.128 13.008,187.25C12.8,186.159 10.263,181.189 11.961,179.854C13.731,178.462 16.323,178.69 18.552,178.371C25.431,177.384 80.274,178.703 113.326,178.74C115.252,178.742 118.914,179.484 121.051,178.71C125.796,176.99 122.694,168.641 122.242,163.614C121.346,153.658 119.728,144.921 115.139,135.855C101.195,108.305 73.605,101.418 45,106.142M308.25,106.195C299.66,107.763 291.832,114.113 286.037,120.138C283.013,123.281 280.707,127.047 277.904,130.388C277.291,131.118 276.755,132.238 275.807,132.331C275.193,132.391 275.033,131.287 274.991,130.672C274.76,127.289 275,123.891 275,120.5L275,107L263,107L263,295L275,295C275,295 275.144,237.754 275.519,227.139C275.568,225.754 275.185,223.912 276.27,223.049C277.005,222.465 276.888,224.852 277.439,225.613C279.686,228.72 281.989,231.811 284.624,234.596C286.959,237.065 295.466,242.954 298,244.092C324.291,255.9 360.275,247.777 375.99,223C379.51,217.45 383.44,208.418 384.485,201.835C389.231,171.936 387.66,129.485 357.405,112.612C342.436,104.264 324.85,103.167 308.25,106.195M130,109.007C130,110.631 131.555,111.867 132.5,113.187C135.892,117.925 177.797,167.672 177.933,173.097C178.097,179.668 146.541,216.287 136.573,229.25C135.809,230.244 123.908,241.071 127.196,245.161C128.703,247.035 133.712,246.621 134.922,246.463C146.866,244.91 181.764,190.429 184.592,186.603C185.27,185.687 185.38,183.871 186.516,183.777C190.872,183.415 229.462,245.11 241.002,245.998C242.969,246.149 247.051,246.278 248.852,244.951C249.845,244.219 247.902,242.629 247.103,241.69C246.062,240.466 244.984,239.27 244,238C241.085,234.24 195.109,174.223 195.629,173.03C197.585,168.543 239.619,114.791 242,112C242.487,111.429 245.412,109.153 244.549,107.855C241.784,103.696 230.057,107.581 227.971,109.165C224.576,111.742 192.392,161.98 187.523,161.881C182.577,161.78 147.079,107.507 137.621,106.649C136.365,106.535 130,106.056 130,109.007M69,115.771C69,117.68 75.101,117.698 75.154,117.712C79.87,118.971 85.114,121.105 89,124.153C100.7,133.329 108.438,146.937 109.69,161.837L110.29,169L13,169L13,166.332C13,148.955 25.089,126.548 42,119.914C46.811,118.027 51.969,117.177 57,116C58.974,115.538 60.993,115.285 63,115C64.996,114.717 69,113.755 69,115.771M330,116C330,117.072 332.009,116.773 333.057,117C338.075,118.087 341.683,117.735 346.237,120.548C361.377,129.899 371.992,144.775 373.891,162.647C375.072,173.759 374.24,184.874 372.193,195.821C369.556,209.928 362.233,225.825 348.778,232.642C340.909,236.63 332.653,237.522 323.996,237.481C315.429,237.44 304.86,236.932 297.679,231.273C277.342,215.244 272.054,185.137 276.586,160.942C278.676,149.786 283.422,136.087 292.585,128.342C302.28,120.147 305.721,118.87 318,116C318,116 330,113.333 330,116"/>
</g>
</svg>
