<svg xmlns="http://www.w3.org/2000/svg" width="400" height="400" viewBox="0, 0, 400,400">
<g>
<path d="M189.827 1.127 C 69.213 7.811,-17.500 117.724,4.217 236.398 C 17.063 306.596,67.822 365.382,135.511 388.452 C 146.467 392.186,154.871 394.288,168.549 396.716 L 169.015 396.799 168.968 327.191 L 168.921 257.583 143.630 257.583 L 118.339 257.583 118.339 228.838 L 118.339 200.093 143.620 200.093 L 168.902 200.093 168.973 174.288 C 169.048 146.957,169.043 147.129,169.959 140.644 C 175.045 104.611,197.725 82.965,234.438 79.107 C 237.497 78.785,252.873 78.781,257.490 79.101 C 266.641 79.734,274.931 80.593,283.218 81.766 C 286.076 82.170,288.491 82.501,288.584 82.501 C 288.685 82.501,288.754 92.444,288.754 107.035 L 288.754 131.569 273.682 131.642 C 257.544 131.719,257.337 131.730,253.046 132.733 C 242.167 135.275,235.096 142.072,232.382 152.600 C 231.157 157.352,231.172 157.005,231.172 179.561 L 231.171 200.000 258.773 200.047 L 286.375 200.095 286.263 200.794 C 286.202 201.179,284.258 213.840,281.944 228.931 C 279.629 244.022,277.685 256.643,277.624 256.976 L 277.513 257.583 254.296 257.583 L 231.078 257.583 231.078 327.181 L 231.078 396.778 234.018 396.264 C 339.369 377.824,411.568 279.631,397.470 173.962 C 384.887 79.645,308.911 8.433,213.252 1.295 C 209.703 1.030,193.652 0.915,189.827 1.127 M191.181 399.009 C 191.360 399.056,191.654 399.056,191.834 399.009 C 192.014 398.962,191.867 398.923,191.507 398.923 C 191.148 398.923,191.001 398.962,191.181 399.009 M208.166 399.009 C 208.346 399.056,208.640 399.056,208.819 399.009 C 208.999 398.962,208.852 398.923,208.493 398.923 C 208.133 398.923,207.986 398.962,208.166 399.009 M198.639 399.205 C 199.327 399.241,200.503 399.241,201.252 399.205 C 202.001 399.170,201.437 399.141,200.000 399.140 C 198.563 399.140,197.950 399.169,198.639 399.205 " stroke="none" fill-rule="evenodd"></path>
</g>
</svg>