<svg id="svg" version="1.1" width="400" height="400" xmlns="http://www.w3.org/2000/svg" xmlns:xlink="http://www.w3.org/1999/xlink" style="display: block;"><g id="svgg"><path id="path0" d="M186.500 0.584 C 169.527 1.804,151.217 5.486,136.605 10.618 C 131.047 12.570,125.600 14.421,124.500 14.730 C 120.441 15.871,95.967 28.961,88.610 33.926 C 47.766 61.487,16.434 106.500,5.614 153.162 C 0.444 175.461,0.500 174.160,0.500 271.500 L 0.500 362.500 2.808 369.181 C 7.397 382.459,17.541 392.603,30.819 397.192 L 37.500 399.500 128.500 399.500 C 230.507 399.500,232.947 399.343,258.524 391.146 C 373.780 354.207,430.506 230.429,382.944 119.660 C 350.370 43.797,269.265 -5.366,186.500 0.584 M276.901 50.455 C 298.579 56.248,305.341 79.042,288.483 89.500 L 283.648 92.500 267.074 92.212 C 244.703 91.823,236.004 94.490,224.817 105.167 C 210.956 118.395,209.710 122.639,209.242 158.227 L 208.863 186.954 211.386 189.477 L 213.909 192.000 233.994 192.000 C 251.796 192.000,254.502 192.217,257.790 193.908 C 271.948 201.191,274.144 218.873,262.164 229.128 C 256.370 234.087,251.143 235.000,228.536 235.000 L 209.224 235.000 208.722 266.750 C 208.199 299.827,207.778 303.370,202.686 317.546 C 191.643 348.288,161.780 371.816,127.308 376.933 C 91.922 382.185,66.740 364.184,79.356 342.655 C 83.972 334.778,88.112 333.500,109.000 333.500 C 132.165 333.500,139.288 331.019,151.262 318.777 C 163.372 306.397,165.000 300.054,165.000 265.251 C 165.000 231.198,167.816 234.671,139.648 233.985 C 116.351 233.418,114.735 233.033,109.468 226.786 C 100.047 215.613,103.133 200.688,116.288 193.795 C 120.182 191.755,122.179 191.558,142.750 191.185 L 165.000 190.783 165.000 163.833 C 165.000 127.735,167.151 115.106,176.186 98.152 C 195.727 61.481,239.892 40.566,276.901 50.455 M343.000 352.500 C 343.000 353.325,343.450 354.000,344.000 354.000 C 344.550 354.000,345.000 353.325,345.000 352.500 C 345.000 351.675,344.550 351.000,344.000 351.000 C 343.450 351.000,343.000 351.675,343.000 352.500 M364.000 354.000 C 364.000 354.550,364.675 355.000,365.500 355.000 C 366.325 355.000,367.000 354.550,367.000 354.000 C 367.000 353.450,366.325 353.000,365.500 353.000 C 364.675 353.000,364.000 353.450,364.000 354.000 " stroke="none" fill="#000000" fill-rule="evenodd"></path></g></svg>