<svg version="1.1" width="515" height="515" xmlns="http://www.w3.org/2000/svg">
<g>
<path d="M81.026 186.078 C 81.012 188.045,82.174 192.544,83.609 196.075 C 86.560 203.339,86.440 208.137,83.056 218.194 C 79.968 227.369,79.554 232.258,81.516 236.393 C 83.554 240.687,85.592 241.289,84.416 237.250 C 83.119 232.798,83.686 228.515,86.171 223.984 C 87.452 221.648,89.266 218.334,90.202 216.619 C 92.987 211.516,92.523 203.662,89.081 197.622 C 87.476 194.805,85.013 190.250,83.607 187.500 L 81.051 182.500 81.026 186.078 M95.488 216.655 C 93.271 218.872,92.000 222.426,92.000 226.406 C 92.000 228.208,91.342 231.870,90.537 234.544 C 88.724 240.569,88.786 240.625,93.244 236.951 C 96.198 234.515,97.028 234.226,97.688 235.402 C 98.135 236.198,103.516 242.028,109.646 248.357 C 129.102 268.448,132.466 285.207,119.496 297.439 C 116.453 300.309,100.309 309.000,98.022 309.000 C 97.460 309.000,97.000 309.428,97.000 309.952 C 97.000 310.488,99.077 310.279,101.750 309.475 C 104.362 308.689,106.500 308.064,106.500 308.087 C 106.500 310.179,123.460 300.166,127.411 295.741 C 140.600 280.970,134.594 258.791,112.238 239.703 C 103.632 232.356,99.000 224.989,99.000 218.650 C 99.000 214.660,98.033 214.110,95.488 216.655 M155.000 279.000 L 155.000 312.000 160.000 312.000 L 165.000 312.000 165.000 297.500 L 165.000 283.000 184.500 283.000 L 204.000 283.000 204.000 278.500 L 204.000 274.000 186.082 274.000 C 163.439 274.000,165.000 274.711,165.000 264.393 L 165.000 256.000 185.500 256.000 L 206.000 256.000 206.000 251.000 L 206.000 246.000 180.500 246.000 L 155.000 246.000 155.000 279.000 M215.000 251.500 L 215.000 257.000 220.000 257.000 L 225.000 257.000 225.000 251.500 L 225.000 246.000 220.000 246.000 L 215.000 246.000 215.000 251.500 M337.000 279.500 L 337.000 312.000 364.000 312.000 L 391.000 312.000 391.000 307.500 L 391.000 303.000 369.000 303.000 L 347.000 303.000 347.000 293.000 L 347.000 283.000 368.000 283.000 L 389.000 283.000 389.000 278.500 L 389.000 274.000 368.131 274.000 L 347.263 274.000 347.081 265.000 L 346.899 256.000 368.449 256.000 L 390.000 256.000 390.000 251.500 L 390.000 247.000 363.500 247.000 L 337.000 247.000 337.000 279.500 M62.500 251.069 C 50.965 253.573,47.861 254.416,47.394 255.171 C 47.113 255.627,46.183 256.000,45.329 256.000 C 43.131 256.000,23.860 265.769,16.346 270.693 C 12.260 273.370,7.729 275.932,4.250 277.532 C 2.463 278.354,1.000 279.211,1.000 279.436 C 1.000 280.003,13.932 288.993,14.798 289.028 C 15.184 289.044,18.200 290.872,21.500 293.091 C 39.265 305.035,56.969 311.031,74.000 310.870 L 84.500 310.771 76.500 309.506 C 59.302 306.787,44.088 301.372,33.508 294.205 C 27.318 290.011,17.463 280.119,18.547 279.186 C 21.213 276.891,51.386 265.042,54.644 265.011 C 55.463 265.003,55.530 266.144,54.881 269.033 C 50.524 288.428,72.416 306.189,92.321 299.406 C 98.940 297.151,98.819 296.313,91.946 296.810 C 70.291 298.377,58.992 270.361,77.694 261.472 C 83.564 258.682,89.658 258.484,95.940 260.879 C 102.299 263.303,103.249 262.959,99.938 259.434 C 92.598 251.621,76.513 248.027,62.500 251.069 M101.000 252.624 C 101.000 252.967,102.800 255.943,105.000 259.238 C 112.631 270.666,108.066 283.000,96.205 283.000 C 89.328 283.000,88.453 274.659,95.188 273.312 C 98.847 272.581,97.772 271.000,93.615 271.000 C 84.214 271.000,82.111 285.241,90.766 290.295 C 106.372 299.410,123.466 281.595,115.013 265.026 C 111.800 258.727,101.000 249.169,101.000 252.624 M256.840 264.022 C 254.827 265.085,252.240 267.151,251.090 268.612 L 249.000 271.270 249.000 267.135 L 249.000 263.000 244.000 263.000 L 239.000 263.000 239.000 287.500 L 239.000 312.000 243.910 312.000 L 248.821 312.000 249.160 296.750 C 249.615 276.360,251.945 272.750,264.656 272.750 L 271.000 272.750 271.000 267.375 L 271.000 262.000 265.750 262.044 C 262.565 262.071,259.061 262.849,256.840 264.022 M291.358 262.954 C 269.076 268.267,266.145 301.933,287.176 310.980 C 301.040 316.944,318.236 311.737,324.491 299.680 L 325.881 297.000 320.497 297.000 C 316.208 297.000,314.822 297.416,313.682 299.044 C 306.877 308.760,285.926 304.856,283.749 293.467 L 283.277 291.000 305.237 291.000 L 327.196 291.000 326.478 284.813 C 324.511 267.866,309.622 258.599,291.358 262.954 M467.000 263.539 C 448.387 268.734,442.880 293.181,457.193 307.072 C 469.124 318.650,497.520 313.414,501.306 298.937 C 502.166 295.651,492.459 296.147,489.802 299.525 C 482.342 309.009,463.308 305.262,460.463 293.750 L 459.783 291.000 481.512 291.000 L 503.240 291.000 502.807 285.250 C 501.499 267.901,485.699 258.321,467.000 263.539 M215.000 287.500 L 215.000 312.000 220.000 312.000 L 225.000 312.000 225.000 287.500 L 225.000 263.000 220.000 263.000 L 215.000 263.000 215.000 287.500 M397.443 271.250 C 399.274 275.238,402.578 282.367,404.786 287.093 C 406.993 291.819,410.464 299.562,412.499 304.299 L 416.199 312.911 413.845 317.178 C 410.960 322.408,407.743 324.247,402.750 323.521 L 399.000 322.976 399.000 327.488 L 399.000 332.000 405.852 332.000 C 417.172 332.000,420.320 328.568,429.703 306.000 C 431.418 301.875,434.163 295.575,435.804 292.000 C 437.444 288.425,439.792 283.250,441.022 280.500 C 442.251 277.750,444.324 273.278,445.629 270.563 C 448.821 263.915,448.793 263.857,442.452 264.200 L 436.903 264.500 432.891 274.000 C 430.684 279.225,428.268 284.850,427.521 286.500 C 426.775 288.150,425.385 291.525,424.432 294.000 C 423.479 296.475,422.391 298.853,422.015 299.285 C 421.639 299.716,419.178 294.991,416.547 288.785 C 413.917 282.578,410.872 275.475,409.782 273.000 C 405.554 263.397,406.216 264.000,399.888 264.000 L 394.114 264.000 397.443 271.250 M308.954 273.094 C 312.471 275.071,316.000 279.484,316.000 281.904 C 316.000 282.653,310.932 283.000,300.000 283.000 C 283.492 283.000,282.940 282.849,285.052 278.903 C 288.926 271.664,301.132 268.698,308.954 273.094 M485.026 273.013 C 487.580 274.316,489.691 276.434,491.007 279.013 L 493.041 283.000 476.552 283.000 C 458.386 283.000,458.780 283.179,463.131 276.890 C 467.163 271.063,477.585 269.217,485.026 273.013 " stroke="none" fill-rule="evenodd"></path>
</g>
</svg>