<svg id="svg" version="1.1" width="400" height="400" xmlns="http://www.w3.org/2000/svg" xmlns:xlink="http://www.w3.org/1999/xlink" style="display: block;"><g id="svgg"><path id="path0" d="M55.250 41.540 C 52.148 44.788,50.878 49.000,53.000 49.000 C 53.550 49.000,54.000 49.675,54.000 50.500 C 54.000 51.325,54.450 52.000,55.000 52.000 C 55.550 52.000,56.000 52.707,56.000 53.571 C 56.000 55.367,58.335 58.000,59.929 58.000 C 60.518 58.000,61.000 59.105,61.000 60.455 C 61.000 63.035,56.811 68.000,54.635 68.000 C 51.001 68.000,46.899 78.133,50.100 79.200 C 55.810 81.103,48.769 91.564,41.092 92.582 C 38.291 92.954,36.000 93.629,36.000 94.083 C 36.000 94.538,34.875 96.034,33.500 97.409 C 30.814 100.095,30.078 105.403,32.250 106.417 C 33.245 106.881,33.241 107.120,32.232 107.589 C 31.535 107.913,30.329 108.813,29.554 109.589 C 28.778 110.365,27.865 111.000,27.526 111.000 C 26.723 111.000,22.000 115.723,22.000 116.526 C 22.000 116.865,21.325 117.818,20.500 118.643 C 19.675 119.468,19.000 121.236,19.000 122.571 C 19.000 123.907,18.550 125.000,18.000 125.000 C 17.450 125.000,17.000 127.025,17.000 129.500 C 17.000 131.975,17.391 134.000,17.868 134.000 C 18.346 134.000,18.992 135.903,19.304 138.228 C 19.616 140.554,20.350 142.617,20.935 142.812 C 21.521 143.007,22.000 144.254,22.000 145.583 C 22.000 146.912,22.450 148.000,23.000 148.000 C 23.550 148.000,24.000 149.350,24.000 151.000 C 24.000 152.650,24.450 154.000,25.000 154.000 C 25.550 154.000,26.000 155.125,26.000 156.500 C 26.000 157.875,26.404 159.000,26.899 159.000 C 27.393 159.000,28.113 162.150,28.500 166.000 C 28.887 169.850,29.607 173.000,30.101 173.000 C 30.596 173.000,31.000 174.575,31.000 176.500 C 31.000 178.425,31.450 180.000,32.000 180.000 C 32.550 180.000,33.000 181.800,33.000 184.000 C 33.000 186.200,33.392 188.000,33.871 188.000 C 34.350 188.000,35.047 190.700,35.420 194.000 C 35.794 197.300,36.527 200.000,37.050 200.000 C 37.572 200.000,38.000 201.575,38.000 203.500 C 38.000 205.425,38.450 207.000,39.000 207.000 C 39.550 207.000,40.000 207.900,40.000 209.000 C 40.000 210.100,40.450 211.000,41.000 211.000 C 41.550 211.000,42.000 212.125,42.000 213.500 C 42.000 214.875,42.422 216.000,42.939 216.000 C 43.455 216.000,44.181 218.025,44.552 220.500 C 44.923 222.975,45.626 225.000,46.114 225.000 C 46.601 225.000,47.000 225.675,47.000 226.500 C 47.000 227.325,47.450 228.000,48.000 228.000 C 48.550 228.000,49.000 228.900,49.000 230.000 C 49.000 231.100,49.400 232.000,49.889 232.000 C 50.377 232.000,51.073 233.575,51.434 235.500 C 51.795 237.425,52.520 239.000,53.045 239.000 C 53.570 239.000,54.000 239.900,54.000 241.000 C 54.000 242.100,54.450 243.000,55.000 243.000 C 55.550 243.000,56.000 243.675,56.000 244.500 C 56.000 245.325,56.450 246.000,57.000 246.000 C 57.550 246.000,58.000 246.900,58.000 248.000 C 58.000 249.100,58.401 250.000,58.892 250.000 C 59.382 250.000,60.066 251.125,60.411 252.500 C 60.756 253.875,61.480 255.000,62.019 255.000 C 62.559 255.000,63.000 255.900,63.000 257.000 C 63.000 258.100,63.450 259.000,64.000 259.000 C 64.550 259.000,65.000 259.675,65.000 260.500 C 65.000 261.325,65.406 262.000,65.902 262.000 C 66.398 262.000,67.277 263.356,67.855 265.013 C 68.432 266.670,69.601 268.294,70.453 268.620 C 71.304 268.947,72.000 269.966,72.000 270.886 C 72.000 271.806,72.900 273.207,74.000 274.000 C 75.100 274.793,76.000 275.997,76.000 276.675 C 76.000 277.354,77.125 279.034,78.500 280.409 C 79.875 281.784,81.000 283.187,81.000 283.526 C 81.000 283.865,81.563 284.770,82.250 285.537 C 84.931 288.526,86.000 289.939,86.000 290.491 C 86.000 290.808,87.575 292.642,89.500 294.567 C 91.425 296.492,93.000 298.517,93.000 299.067 C 93.000 300.368,99.632 307.000,100.933 307.000 C 101.832 307.000,106.388 311.346,109.789 315.446 C 110.499 316.301,111.961 317.000,113.039 317.000 C 114.118 317.000,115.000 317.430,115.000 317.955 C 115.000 319.643,120.029 324.000,121.978 324.000 C 123.016 324.000,124.151 324.900,124.500 326.000 C 124.849 327.100,125.839 328.000,126.700 328.000 C 127.561 328.000,128.993 328.836,129.883 329.857 C 130.772 330.878,132.512 332.034,133.750 332.424 C 134.987 332.815,136.000 333.554,136.000 334.067 C 136.000 334.580,136.900 335.000,138.000 335.000 C 139.100 335.000,140.000 335.450,140.000 336.000 C 140.000 336.550,140.675 337.000,141.500 337.000 C 142.325 337.000,143.000 337.400,143.000 337.889 C 143.000 338.377,144.575 339.073,146.500 339.434 C 148.425 339.795,150.000 340.520,150.000 341.045 C 150.000 341.570,150.900 342.000,152.000 342.000 C 153.100 342.000,154.000 342.450,154.000 343.000 C 154.000 343.550,154.675 344.000,155.500 344.000 C 156.325 344.000,157.000 344.450,157.000 345.000 C 157.000 345.550,158.350 346.000,160.000 346.000 C 161.650 346.000,163.000 346.408,163.000 346.906 C 163.000 347.405,165.250 348.122,168.000 348.500 C 170.750 348.878,173.000 349.595,173.000 350.094 C 173.000 350.592,174.350 351.000,176.000 351.000 C 177.650 351.000,179.000 351.450,179.000 352.000 C 179.000 352.550,180.125 353.000,181.500 353.000 C 182.875 353.000,184.000 353.402,184.000 353.894 C 184.000 354.385,188.050 355.108,193.000 355.500 C 197.950 355.892,202.000 356.615,202.000 357.106 C 202.000 357.598,205.150 358.000,209.000 358.000 C 213.000 358.000,216.000 358.429,216.000 359.000 C 216.000 359.593,219.667 360.000,225.000 360.000 C 230.333 360.000,234.000 360.407,234.000 361.000 C 234.000 361.642,243.500 362.000,260.500 362.000 C 277.500 362.000,287.000 361.642,287.000 361.000 C 287.000 360.429,290.000 360.000,294.000 360.000 C 298.000 360.000,301.000 359.571,301.000 359.000 C 301.000 358.417,304.333 358.000,309.000 358.000 C 313.400 358.000,317.000 357.602,317.000 357.115 C 317.000 356.629,319.475 355.921,322.500 355.543 C 325.525 355.165,328.000 354.438,328.000 353.928 C 328.000 353.418,329.575 353.000,331.500 353.000 C 333.425 353.000,335.000 352.550,335.000 352.000 C 335.000 351.450,337.025 351.000,339.500 351.000 C 341.975 351.000,344.000 351.450,344.000 352.000 C 344.000 353.872,350.486 353.101,351.962 351.053 C 353.056 349.535,355.089 348.955,361.183 348.424 C 365.482 348.049,369.000 347.350,369.000 346.871 C 369.000 346.392,370.370 346.000,372.045 346.000 C 376.583 346.000,380.000 342.123,380.000 336.974 C 380.000 330.521,378.885 330.000,365.071 330.000 C 357.690 330.000,353.000 329.611,353.000 329.000 C 353.000 328.450,352.100 328.000,351.000 328.000 C 349.900 328.000,349.000 327.550,349.000 327.000 C 349.000 325.199,344.476 325.953,343.000 328.000 C 341.452 330.148,332.000 331.007,332.000 329.000 C 332.000 328.400,328.000 328.000,322.000 328.000 C 312.783 328.000,312.000 327.849,312.000 326.067 C 312.000 325.004,312.877 323.856,313.949 323.516 C 315.021 323.176,316.176 322.021,316.516 320.949 C 316.856 319.877,317.554 319.000,318.067 319.000 C 318.580 319.000,319.000 317.875,319.000 316.500 C 319.000 315.125,319.450 314.000,320.000 314.000 C 321.485 314.000,321.210 311.067,319.571 309.429 C 317.267 307.124,307.785 307.524,306.000 310.000 C 305.207 311.100,303.788 312.000,302.847 312.000 C 301.905 312.000,300.849 312.900,300.500 314.000 C 300.151 315.100,299.455 316.000,298.954 316.000 C 298.453 316.000,295.816 318.250,293.095 321.000 C 288.582 325.561,285.000 327.376,285.000 325.101 C 285.000 324.607,281.850 323.887,278.000 323.500 C 274.150 323.113,271.000 322.393,271.000 321.899 C 271.000 321.404,269.875 321.000,268.500 321.000 C 267.125 321.000,266.000 320.550,266.000 320.000 C 266.000 319.450,264.425 319.000,262.500 319.000 C 260.575 319.000,259.000 318.578,259.000 318.061 C 259.000 317.545,256.975 316.819,254.500 316.448 C 252.025 316.077,250.000 315.374,250.000 314.886 C 250.000 314.399,249.100 314.000,248.000 314.000 C 246.900 314.000,246.000 313.550,246.000 313.000 C 246.000 312.450,245.325 312.000,244.500 312.000 C 243.675 312.000,243.000 311.550,243.000 311.000 C 243.000 310.450,242.100 310.000,241.000 310.000 C 239.900 310.000,239.000 309.586,239.000 309.079 C 239.000 308.573,237.538 307.838,235.751 307.445 C 233.964 307.053,231.774 305.892,230.884 304.866 C 229.994 303.840,228.756 303.000,228.133 303.000 C 227.510 303.000,227.000 302.550,227.000 302.000 C 227.000 301.450,226.132 301.000,225.071 301.000 C 224.011 301.000,222.468 300.325,221.643 299.500 C 220.818 298.675,219.841 298.000,219.473 298.000 C 219.104 298.000,217.541 296.650,216.000 295.000 C 214.459 293.350,212.723 292.000,212.143 292.000 C 210.781 292.000,193.000 274.308,193.000 272.953 C 193.000 272.388,190.975 269.957,188.500 267.552 C 186.025 265.146,184.000 262.494,184.000 261.657 C 184.000 260.820,183.082 259.843,181.959 259.487 C 180.747 259.102,179.681 257.653,179.334 255.920 C 179.013 254.314,178.425 253.000,178.028 253.000 C 176.316 253.000,173.215 249.256,172.597 246.443 C 172.228 244.763,171.043 242.752,169.963 241.973 C 168.883 241.195,168.000 239.758,168.000 238.779 C 168.000 237.801,167.550 237.000,167.000 237.000 C 166.450 237.000,166.000 236.325,166.000 235.500 C 166.000 234.675,165.602 234.000,165.115 234.000 C 164.629 234.000,163.921 231.525,163.543 228.500 C 163.165 225.475,162.438 223.000,161.928 223.000 C 161.418 223.000,161.000 221.875,161.000 220.500 C 161.000 219.125,160.550 218.000,160.000 218.000 C 159.450 218.000,159.000 216.463,159.000 214.583 C 159.000 212.704,158.553 211.017,158.008 210.833 C 157.462 210.650,156.721 207.012,156.361 202.750 C 156.001 198.487,155.323 195.000,154.853 195.000 C 154.384 195.000,154.000 192.525,154.000 189.500 C 154.000 186.475,153.550 184.000,153.000 184.000 C 152.407 184.000,152.000 180.333,152.000 175.000 C 152.000 169.667,151.593 166.000,151.000 166.000 C 150.397 166.000,150.000 161.833,150.000 155.500 C 150.000 149.167,149.603 145.000,149.000 145.000 C 146.777 145.000,147.763 116.210,150.010 115.497 C 152.618 114.669,163.000 115.963,163.000 117.115 C 163.000 117.602,164.125 118.000,165.500 118.000 C 166.875 118.000,168.000 118.450,168.000 119.000 C 168.000 119.583,171.333 120.000,176.000 120.000 L 184.000 120.000 184.000 116.961 C 184.000 113.649,177.472 106.000,174.646 106.000 C 173.815 106.000,172.849 105.100,172.500 104.000 C 172.061 102.616,170.987 102.000,169.016 102.000 C 167.449 102.000,166.007 101.521,165.812 100.935 C 165.617 100.350,163.554 99.616,161.228 99.304 C 158.903 98.992,157.000 98.346,157.000 97.868 C 157.000 97.391,156.325 97.000,155.500 97.000 C 154.675 97.000,154.000 96.550,154.000 96.000 C 154.000 95.450,152.425 95.000,150.500 95.000 C 148.575 95.000,147.000 94.600,147.000 94.111 C 147.000 93.623,145.425 92.927,143.500 92.566 C 141.575 92.205,140.000 91.480,140.000 90.955 C 140.000 90.430,139.199 90.000,138.221 90.000 C 137.242 90.000,135.793 89.100,135.000 88.000 C 134.207 86.900,132.983 86.000,132.279 86.000 C 131.576 86.000,131.000 85.550,131.000 85.000 C 131.000 84.450,129.650 84.000,128.000 84.000 C 126.042 84.000,125.000 83.495,125.000 82.545 C 125.000 79.748,120.107 76.000,116.455 76.000 C 114.555 76.000,113.000 75.550,113.000 75.000 C 113.000 74.450,110.975 74.000,108.500 74.000 C 106.025 74.000,104.000 73.550,104.000 73.000 C 104.000 72.450,102.875 72.000,101.500 72.000 C 99.237 72.000,99.000 71.609,99.000 67.867 C 99.000 61.394,96.669 60.000,85.847 60.000 C 79.537 60.000,76.946 59.642,76.810 58.750 C 76.706 58.063,76.594 54.331,76.560 50.457 C 76.453 37.898,63.789 32.599,55.250 41.540 " stroke="none" fill="#000000" fill-rule="evenodd"></path></g></svg>