<svg xmlns="http://www.w3.org/2000/svg" width="400" height="400" viewBox="0, 0, 400,400">
<g>
<path d="M92.188 37.345 C 81.655 38.606,77.964 39.375,70.332 41.896 C -3.419 66.258,-16.540 165.159,48.242 208.397 C 109.845 249.513,192.726 204.935,192.768 130.664 C 192.794 84.379,160.841 46.364,115.234 38.419 C 109.756 37.464,96.391 36.842,92.188 37.345 M291.016 37.667 C 212.916 47.681,180.288 141.971,235.923 196.875 C 295.003 255.179,394.955 213.127,394.690 130.078 C 394.512 74.498,345.373 30.697,291.016 37.667 M47.070 232.307 C 31.125 234.471,24.140 243.059,23.550 261.223 L 23.331 267.953 15.474 268.058 L 7.617 268.164 7.617 277.734 L 7.617 287.305 15.332 287.411 L 23.047 287.517 23.047 317.201 L 23.047 346.886 36.035 346.783 L 49.023 346.680 49.124 317.090 L 49.224 287.500 58.401 287.500 L 67.578 287.500 67.578 277.734 L 67.578 267.969 58.380 267.969 L 49.182 267.969 49.247 263.579 C 49.404 253.013,53.422 249.579,63.444 251.447 C 65.113 251.757,66.533 251.955,66.601 251.885 C 66.886 251.592,68.283 233.767,68.040 233.531 C 66.970 232.494,52.093 231.626,47.070 232.307 M81.250 290.234 L 81.250 346.875 94.336 346.875 L 107.422 346.875 107.422 290.234 L 107.422 233.594 94.336 233.594 L 81.250 233.594 81.250 290.234 M248.047 290.234 L 248.047 346.875 260.938 346.875 C 268.027 346.875,273.836 346.743,273.845 346.582 C 273.855 346.421,273.887 337.720,273.917 327.246 C 273.946 316.772,274.076 308.203,274.206 308.203 C 274.335 308.203,279.113 316.860,284.824 327.441 L 295.207 346.680 311.114 346.782 C 319.863 346.838,326.962 346.750,326.889 346.586 C 326.740 346.248,319.335 335.185,307.181 317.141 C 302.606 310.348,298.811 304.624,298.747 304.422 C 298.684 304.220,304.434 296.108,311.523 286.396 C 318.613 276.684,324.473 268.565,324.544 268.353 C 324.628 268.106,319.609 267.969,310.443 267.969 L 296.212 267.969 285.368 284.378 C 279.404 293.404,274.359 300.890,274.158 301.014 C 273.931 301.154,273.806 288.698,273.829 268.296 C 273.849 250.177,273.857 234.956,273.847 234.473 L 273.828 233.594 260.938 233.594 L 248.047 233.594 248.047 290.234 M129.688 245.508 L 129.688 255.469 142.760 255.469 L 155.833 255.469 155.944 245.895 C 156.005 240.630,155.996 236.148,155.924 235.934 C 155.842 235.688,151.028 235.547,142.741 235.547 L 129.688 235.547 129.688 245.508 M209.715 266.584 C 209.635 266.662,208.632 266.829,207.485 266.956 C 191.723 268.698,178.352 279.227,173.706 293.555 C 165.730 318.152,180.088 343.432,204.297 347.418 C 205.049 347.542,206.719 347.821,208.008 348.038 C 210.946 348.533,220.069 348.542,223.438 348.054 C 224.834 347.851,226.680 347.580,227.539 347.452 C 229.743 347.124,236.457 345.340,236.808 344.989 C 237.215 344.582,236.672 325.000,236.254 325.000 C 236.067 325.000,234.880 325.435,233.616 325.967 C 231.538 326.842,229.821 327.335,226.367 328.050 C 208.571 331.734,194.750 317.269,199.795 300.241 C 203.583 287.459,219.477 282.333,232.601 289.659 C 233.614 290.225,234.493 290.630,234.554 290.559 C 234.816 290.256,236.404 271.465,236.210 270.960 C 235.868 270.068,229.927 268.025,224.609 266.970 C 223.167 266.684,209.963 266.342,209.715 266.584 M377.756 266.834 C 371.718 268.013,365.710 273.071,361.856 280.222 L 360.565 282.617 360.556 275.287 L 360.547 267.957 348.535 268.061 L 336.523 268.164 336.523 307.422 L 336.523 346.680 349.609 346.680 L 362.695 346.680 362.924 326.563 C 363.159 305.882,363.186 305.522,364.896 300.902 C 368.375 291.503,378.473 286.897,389.533 289.664 C 391.020 290.036,390.874 291.169,391.659 273.145 C 391.875 268.173,391.827 267.183,391.369 267.158 C 391.067 267.141,390.469 267.038,390.039 266.928 C 388.601 266.561,379.513 266.491,377.756 266.834 M129.688 307.427 L 129.688 346.885 142.852 346.783 L 156.016 346.680 155.977 345.605 C 155.955 345.015,155.920 327.305,155.898 306.250 L 155.859 267.969 142.773 267.969 L 129.688 267.969 129.688 307.427 " stroke="none" fill-rule="evenodd"></path>
</g>
</svg>