<svg version="1.1" width="400" height="400" viewBox="0 0 400 400" xmlns="http://www.w3.org/2000/svg">
<g>
<path d="M238.400 12.400 C 238.400 12.620,238.200 12.800,237.956 12.800 C 237.528 12.800,235.982 14.207,231.965 18.252 C 231.338 18.884,230.595 19.616,230.313 19.881 C 230.031 20.145,229.580 20.595,229.311 20.881 C 229.042 21.166,228.616 21.604,228.363 21.852 C 228.111 22.101,227.392 22.821,226.765 23.452 C 226.138 24.084,225.395 24.808,225.113 25.063 C 224.831 25.318,224.240 25.984,223.800 26.545 C 223.360 27.105,222.705 27.571,222.343 27.582 C 221.982 27.592,221.577 28.038,221.442 28.573 C 221.308 29.109,220.839 29.661,220.399 29.800 C 219.960 29.940,219.600 30.208,219.600 30.396 C 219.600 30.584,219.062 31.247,218.405 31.869 C 217.747 32.491,216.982 33.228,216.705 33.507 C 216.049 34.166,211.889 38.326,211.505 38.707 C 211.342 38.868,210.673 39.540,210.017 40.200 C 209.362 40.860,208.595 41.616,208.313 41.881 C 208.031 42.145,207.580 42.595,207.311 42.881 C 207.042 43.166,206.592 43.627,206.311 43.905 C 206.030 44.182,205.291 44.947,204.669 45.605 C 204.047 46.262,203.384 46.800,203.196 46.800 C 203.008 46.800,202.740 47.160,202.600 47.600 C 202.460 48.040,202.088 48.400,201.773 48.400 C 201.458 48.400,201.200 48.592,201.200 48.827 C 201.200 49.062,200.525 49.868,199.700 50.619 C 198.875 51.370,198.044 52.146,197.852 52.345 C 197.057 53.168,195.190 55.034,194.713 55.481 C 194.431 55.745,193.980 56.195,193.711 56.481 C 193.442 56.766,193.016 57.204,192.763 57.452 C 192.511 57.701,191.765 58.445,191.105 59.105 C 190.445 59.765,189.725 60.485,189.505 60.705 C 189.285 60.925,188.592 61.621,187.965 62.252 C 187.338 62.884,186.595 63.616,186.313 63.881 C 186.031 64.145,185.580 64.595,185.311 64.881 C 185.042 65.166,184.616 65.604,184.363 65.852 C 184.111 66.101,183.372 66.866,182.722 67.552 C 182.071 68.239,181.282 68.800,180.969 68.800 C 180.656 68.800,180.400 69.071,180.400 69.402 C 180.400 69.733,179.455 70.903,178.300 72.002 C 177.145 73.100,176.044 74.158,175.852 74.352 C 174.394 75.831,173.146 77.075,172.713 77.481 C 172.431 77.745,171.980 78.195,171.711 78.481 C 171.442 78.766,170.992 79.227,170.711 79.505 C 170.205 80.005,168.476 81.731,167.505 82.707 C 167.227 82.986,166.043 84.201,164.874 85.407 C 163.705 86.613,162.592 87.600,162.401 87.600 C 162.210 87.600,161.940 87.960,161.800 88.399 C 161.661 88.839,161.109 89.308,160.573 89.442 C 160.038 89.577,159.600 89.855,159.600 90.060 C 159.600 90.447,158.982 91.285,158.081 92.119 C 157.795 92.384,157.345 92.831,157.081 93.113 C 156.816 93.395,156.060 94.162,155.400 94.817 C 153.910 96.298,153.663 96.544,152.313 97.905 C 151.715 98.507,150.995 99.216,150.713 99.481 C 150.431 99.745,149.980 100.195,149.711 100.481 C 149.442 100.766,148.992 101.227,148.711 101.505 C 148.210 101.999,146.398 103.809,145.612 104.600 C 140.119 110.125,139.818 110.400,139.260 110.400 C 139.055 110.400,138.777 110.838,138.642 111.373 C 138.508 111.909,138.048 112.458,137.620 112.594 C 137.191 112.730,136.733 113.183,136.600 113.600 C 136.467 114.017,136.008 114.470,135.580 114.606 C 135.151 114.743,134.800 115.008,134.800 115.196 C 134.800 115.384,134.215 116.094,133.500 116.774 C 132.785 117.453,132.067 118.142,131.905 118.305 C 131.742 118.467,131.073 119.140,130.417 119.800 C 129.762 120.460,128.995 121.216,128.713 121.481 C 128.431 121.745,127.980 122.195,127.711 122.481 C 127.442 122.766,126.992 123.227,126.711 123.505 C 126.430 123.782,125.711 124.502,125.113 125.105 C 124.515 125.707,123.795 126.416,123.513 126.681 C 123.231 126.945,122.784 127.395,122.519 127.681 C 122.255 127.966,121.805 128.408,121.519 128.663 C 121.234 128.918,120.640 129.584,120.200 130.145 C 119.760 130.705,119.085 131.171,118.700 131.182 C 118.315 131.192,118.000 131.456,118.000 131.769 C 118.000 132.266,117.485 132.856,115.113 135.081 C 114.831 135.345,114.380 135.795,114.111 136.081 C 113.842 136.366,113.392 136.827,113.111 137.105 C 112.613 137.597,110.601 139.606,109.800 140.412 C 109.280 140.934,105.227 144.988,104.706 145.506 C 104.485 145.725,103.772 146.466,103.122 147.152 C 102.471 147.839,101.784 148.400,101.596 148.400 C 101.408 148.400,101.143 148.751,101.006 149.180 C 100.870 149.608,100.417 150.067,100.000 150.200 C 99.583 150.333,99.130 150.792,98.994 151.220 C 98.857 151.649,98.488 152.000,98.173 152.000 C 97.858 152.000,97.600 152.258,97.600 152.573 C 97.600 152.888,97.240 153.260,96.800 153.400 C 96.360 153.540,96.000 153.808,96.000 153.996 C 96.000 154.294,95.390 154.945,93.113 157.081 C 92.831 157.345,92.380 157.795,92.111 158.081 C 91.842 158.366,91.416 158.804,91.163 159.052 C 90.717 159.492,88.708 161.498,87.906 162.306 C 87.387 162.827,83.227 166.987,82.706 167.506 C 82.485 167.725,81.772 168.466,81.122 169.152 C 80.471 169.839,79.784 170.400,79.596 170.400 C 79.408 170.400,79.140 170.760,79.000 171.199 C 78.861 171.639,78.309 172.108,77.773 172.242 C 77.238 172.377,76.792 172.782,76.782 173.143 C 76.771 173.505,76.305 174.160,75.745 174.600 C 75.184 175.040,74.518 175.632,74.263 175.915 C 73.881 176.340,72.402 177.829,69.106 181.106 C 68.885 181.325,68.192 182.021,67.565 182.652 C 66.938 183.284,66.195 184.016,65.913 184.281 C 65.631 184.545,65.180 184.995,64.911 185.281 C 64.642 185.566,64.216 186.004,63.963 186.252 C 63.711 186.501,62.965 187.245,62.305 187.905 C 61.645 188.565,60.925 189.285,60.705 189.505 C 60.485 189.725,59.792 190.421,59.165 191.052 C 58.538 191.684,57.795 192.416,57.513 192.681 C 57.231 192.945,56.780 193.395,56.511 193.681 C 56.242 193.966,55.816 194.404,55.563 194.652 C 55.311 194.901,54.572 195.666,53.922 196.352 C 53.271 197.039,52.572 197.600,52.369 197.600 C 52.166 197.600,52.000 198.230,52.000 199.000 C 52.000 199.770,52.180 200.400,52.400 200.400 C 52.620 200.400,52.800 200.596,52.800 200.837 C 52.800 201.297,66.537 215.200,66.992 215.200 C 67.338 215.200,68.400 216.265,68.400 216.611 C 68.400 217.160,71.143 219.600,71.760 219.600 C 72.112 219.600,72.400 219.889,72.400 220.242 C 72.400 221.054,81.933 230.598,83.119 230.974 C 83.604 231.128,84.000 231.532,84.000 231.871 C 84.000 232.652,87.178 235.812,88.332 236.178 C 88.809 236.330,89.200 236.727,89.200 237.061 C 89.200 237.815,91.591 240.400,92.288 240.400 C 92.570 240.400,92.800 240.591,92.800 240.825 C 92.800 241.388,104.202 252.800,104.764 252.800 C 105.004 252.800,105.200 252.989,105.200 253.219 C 105.200 254.352,108.725 257.200,110.127 257.200 C 111.447 257.200,112.800 256.389,112.800 255.598 C 112.800 255.409,113.151 255.143,113.580 255.006 C 114.008 254.870,114.482 254.372,114.632 253.898 C 114.979 252.807,115.607 252.179,116.698 251.832 C 117.172 251.682,117.670 251.208,117.806 250.780 C 117.943 250.351,118.208 250.000,118.396 250.000 C 118.584 250.000,119.247 249.466,119.869 248.813 C 120.491 248.160,121.220 247.395,121.489 247.113 C 121.758 246.831,122.161 246.420,122.384 246.200 C 122.608 245.980,123.327 245.260,123.983 244.600 C 124.638 243.940,125.405 243.180,125.687 242.911 C 125.969 242.642,126.404 242.216,126.652 241.963 C 126.901 241.711,127.621 240.992,128.252 240.365 C 128.884 239.738,129.616 238.995,129.881 238.713 C 130.145 238.431,130.595 237.980,130.881 237.711 C 131.166 237.442,131.604 237.016,131.852 236.763 C 132.101 236.511,132.821 235.792,133.452 235.165 C 134.933 233.695,135.600 232.895,135.600 232.588 C 135.600 232.222,136.692 231.200,137.083 231.200 C 137.269 231.200,137.720 230.885,138.083 230.500 C 138.446 230.115,138.981 229.580,139.272 229.311 C 139.562 229.042,140.004 228.616,140.252 228.363 C 140.501 228.111,141.221 227.392,141.852 226.765 C 142.484 226.138,143.216 225.395,143.481 225.113 C 143.745 224.831,144.195 224.380,144.481 224.111 C 144.766 223.842,145.204 223.416,145.452 223.163 C 145.701 222.911,146.421 222.192,147.052 221.565 C 147.684 220.938,148.420 220.195,148.689 219.913 C 148.958 219.631,149.384 219.196,149.637 218.948 C 149.889 218.699,150.608 217.979,151.235 217.348 C 151.862 216.716,152.605 215.980,152.887 215.711 C 153.169 215.442,153.580 215.033,153.800 214.802 C 154.020 214.571,154.677 213.962,155.260 213.447 C 155.843 212.933,156.385 212.172,156.464 211.756 C 156.544 211.337,157.007 210.943,157.504 210.872 C 157.997 210.802,158.400 210.591,158.400 210.403 C 158.400 210.215,158.934 209.553,159.587 208.931 C 160.240 208.309,161.005 207.580,161.287 207.311 C 161.569 207.042,161.980 206.639,162.200 206.416 C 162.718 205.889,165.089 203.518,165.616 203.000 C 165.839 202.780,166.242 202.366,166.511 202.081 C 166.780 201.795,167.231 201.345,167.513 201.081 C 168.115 200.516,169.988 198.648,170.689 197.913 C 170.958 197.631,171.384 197.196,171.637 196.948 C 171.889 196.699,172.628 195.934,173.278 195.248 C 173.929 194.561,174.616 194.000,174.804 194.000 C 174.992 194.000,175.257 193.649,175.394 193.220 C 175.530 192.792,175.974 192.335,176.381 192.206 C 176.788 192.077,177.232 191.528,177.368 190.986 C 177.504 190.444,177.799 190.000,178.025 190.000 C 178.443 190.000,179.263 189.406,180.119 188.481 C 180.384 188.195,180.831 187.745,181.113 187.481 C 181.395 187.216,182.138 186.484,182.765 185.852 C 184.180 184.427,184.427 184.180,185.852 182.765 C 186.484 182.138,187.216 181.395,187.481 181.113 C 187.745 180.831,188.195 180.380,188.481 180.111 C 188.766 179.842,189.204 179.416,189.452 179.163 C 189.701 178.911,190.421 178.192,191.052 177.565 C 191.684 176.938,192.420 176.195,192.689 175.913 C 192.958 175.631,193.384 175.196,193.637 174.948 C 193.889 174.699,194.628 173.934,195.278 173.248 C 195.929 172.561,196.616 172.000,196.804 172.000 C 196.992 172.000,197.272 171.603,197.426 171.119 C 197.779 170.007,198.401 169.380,199.498 169.032 C 199.972 168.882,200.467 168.417,200.600 168.000 C 200.733 167.583,201.183 167.133,201.600 167.000 C 202.017 166.867,202.470 166.408,202.606 165.980 C 202.743 165.551,203.008 165.200,203.196 165.200 C 203.384 165.200,204.047 164.666,204.669 164.013 C 205.291 163.360,206.020 162.595,206.289 162.313 C 206.558 162.031,206.984 161.596,207.237 161.348 C 207.489 161.099,208.208 160.379,208.835 159.748 C 209.462 159.116,210.205 158.380,210.487 158.111 C 210.769 157.842,211.204 157.416,211.452 157.163 C 211.701 156.911,212.421 156.192,213.052 155.565 C 213.684 154.938,214.420 154.195,214.689 153.913 C 214.958 153.631,215.384 153.196,215.637 152.948 C 217.112 151.493,218.400 150.027,218.400 149.802 C 218.400 149.399,219.497 148.400,219.941 148.400 C 220.287 148.400,220.915 147.822,223.081 145.513 C 223.345 145.231,223.795 144.780,224.081 144.511 C 224.366 144.242,224.804 143.816,225.052 143.563 C 225.301 143.311,226.021 142.592,226.652 141.965 C 227.284 141.338,228.020 140.595,228.289 140.313 C 228.558 140.031,228.984 139.596,229.237 139.348 C 229.829 138.763,231.963 136.629,232.548 136.037 C 232.796 135.784,233.231 135.358,233.513 135.089 C 234.248 134.388,236.116 132.515,236.681 131.913 C 236.945 131.631,237.395 131.184,237.681 130.919 C 238.606 130.063,239.200 129.243,239.200 128.825 C 239.200 128.599,239.644 128.304,240.186 128.168 C 240.728 128.032,241.277 127.588,241.406 127.181 C 241.535 126.774,241.992 126.330,242.420 126.194 C 242.849 126.057,243.200 125.792,243.200 125.604 C 243.200 125.416,243.734 124.753,244.387 124.131 C 245.040 123.509,245.805 122.780,246.087 122.511 C 246.369 122.242,246.827 121.792,247.105 121.511 C 247.756 120.851,249.771 118.836,250.363 118.252 C 250.616 118.004,251.042 117.569,251.311 117.287 C 251.941 116.626,253.826 114.741,254.487 114.111 C 254.769 113.842,255.204 113.416,255.452 113.163 C 255.701 112.911,256.466 112.172,257.152 111.522 C 257.839 110.871,258.400 110.184,258.400 109.996 C 258.400 109.808,258.749 109.543,259.175 109.408 C 259.601 109.273,260.006 108.768,260.075 108.285 C 260.144 107.803,260.540 107.343,260.956 107.264 C 261.372 107.185,262.133 106.643,262.647 106.060 C 263.162 105.477,263.771 104.820,264.002 104.600 C 264.233 104.380,264.642 103.969,264.911 103.687 C 265.541 103.026,267.426 101.141,268.087 100.511 C 268.369 100.242,268.804 99.816,269.052 99.563 C 269.301 99.311,270.021 98.592,270.652 97.965 C 271.284 97.338,272.016 96.595,272.281 96.313 C 272.545 96.031,272.995 95.580,273.281 95.311 C 273.566 95.042,274.004 94.616,274.252 94.363 C 274.501 94.111,275.221 93.392,275.852 92.765 C 276.484 92.138,277.220 91.395,277.489 91.113 C 278.312 90.249,278.968 89.590,279.700 88.891 C 280.085 88.523,280.400 88.069,280.400 87.883 C 280.400 87.492,281.422 86.400,281.788 86.400 C 282.161 86.400,283.646 85.064,285.889 82.713 C 286.158 82.431,286.561 82.020,286.784 81.800 C 287.008 81.580,287.727 80.860,288.383 80.200 C 289.038 79.540,289.805 78.780,290.087 78.511 C 290.369 78.242,290.827 77.792,291.105 77.511 C 291.382 77.230,292.102 76.511,292.705 75.913 C 293.307 75.315,294.016 74.595,294.281 74.313 C 294.545 74.031,294.995 73.580,295.281 73.311 C 295.566 73.042,296.004 72.616,296.252 72.363 C 296.501 72.111,297.266 71.372,297.952 70.722 C 298.639 70.071,299.200 69.384,299.200 69.196 C 299.200 69.008,299.551 68.743,299.980 68.606 C 300.408 68.470,300.882 67.972,301.032 67.498 C 301.379 66.407,302.007 65.779,303.098 65.432 C 303.572 65.282,304.070 64.808,304.206 64.380 C 304.343 63.951,304.608 63.600,304.796 63.600 C 305.094 63.600,305.745 62.990,307.881 60.713 C 308.145 60.431,308.595 59.980,308.881 59.711 C 309.166 59.442,309.627 58.992,309.905 58.711 C 310.182 58.430,310.902 57.711,311.505 57.113 C 312.107 56.515,312.820 55.795,313.089 55.513 C 313.358 55.231,313.761 54.820,313.984 54.600 C 314.208 54.380,314.927 53.660,315.583 53.000 C 316.238 52.340,317.005 51.580,317.287 51.311 C 317.569 51.042,318.004 50.616,318.252 50.363 C 318.501 50.111,319.221 49.392,319.852 48.765 C 321.333 47.295,322.000 46.495,322.000 46.188 C 322.000 45.822,323.092 44.800,323.483 44.800 C 323.669 44.800,324.120 44.485,324.483 44.100 C 324.846 43.715,325.381 43.180,325.672 42.911 C 325.962 42.642,326.404 42.216,326.652 41.963 C 326.901 41.711,327.621 40.992,328.252 40.365 C 328.884 39.738,329.616 38.995,329.881 38.713 C 330.145 38.431,330.595 37.980,330.881 37.711 C 331.166 37.442,331.604 37.016,331.852 36.763 C 332.101 36.511,332.821 35.792,333.452 35.165 C 334.084 34.538,334.820 33.795,335.089 33.513 C 335.358 33.231,335.784 32.796,336.037 32.548 C 336.289 32.299,337.008 31.579,337.635 30.948 C 338.262 30.316,339.005 29.580,339.287 29.311 C 339.569 29.042,339.980 28.633,340.200 28.402 C 340.420 28.171,341.077 27.562,341.660 27.047 C 342.243 26.533,342.785 25.772,342.864 25.356 C 342.943 24.940,343.403 24.544,343.885 24.475 C 344.368 24.406,344.873 24.001,345.008 23.575 C 345.143 23.149,345.408 22.800,345.596 22.800 C 345.784 22.800,346.447 22.266,347.069 21.613 C 347.691 20.960,348.420 20.195,348.689 19.913 C 348.958 19.631,349.384 19.196,349.637 18.948 C 349.889 18.699,350.608 17.979,351.235 17.348 C 351.862 16.716,352.661 15.958,353.010 15.663 C 353.955 14.864,353.620 13.031,352.500 12.872 C 352.005 12.802,351.600 12.577,351.600 12.372 C 351.600 12.144,329.646 12.000,295.000 12.000 C 257.533 12.000,238.400 12.135,238.400 12.400 M237.636 183.886 C 236.797 184.218,232.800 188.243,232.800 188.757 C 232.800 189.001,232.632 189.200,232.427 189.200 C 232.222 189.200,231.943 189.551,231.806 189.980 C 231.670 190.408,231.172 190.882,230.698 191.032 C 229.808 191.315,228.800 192.148,228.800 192.602 C 228.800 192.926,227.015 194.844,224.448 197.278 C 223.761 197.929,223.200 198.616,223.200 198.804 C 223.200 198.992,222.849 199.257,222.420 199.394 C 221.992 199.530,221.533 199.983,221.400 200.400 C 221.267 200.817,220.772 201.282,220.298 201.432 C 219.201 201.780,218.579 202.407,218.226 203.519 C 218.072 204.003,217.672 204.400,217.336 204.400 C 216.760 204.400,210.800 210.055,210.800 210.601 C 210.800 210.934,209.733 212.000,209.400 212.000 C 208.944 212.000,208.113 213.013,207.826 213.919 C 207.672 214.403,207.392 214.800,207.204 214.800 C 207.016 214.800,206.329 215.361,205.678 216.048 C 204.211 217.595,203.995 217.811,202.448 219.278 C 201.761 219.929,201.200 220.616,201.200 220.804 C 201.200 220.992,200.803 221.272,200.319 221.426 C 199.441 221.704,198.400 222.540,198.400 222.967 C 198.400 223.439,196.998 224.800,196.511 224.800 C 196.230 224.800,196.000 225.160,196.000 225.600 C 196.000 226.093,195.731 226.403,195.300 226.407 C 194.454 226.415,191.423 229.468,191.029 230.709 C 190.874 231.198,190.309 231.708,189.773 231.842 C 189.238 231.977,188.800 232.255,188.800 232.460 C 188.800 232.847,188.182 233.685,187.281 234.519 C 186.995 234.784,186.545 235.234,186.281 235.519 C 186.016 235.805,185.569 236.255,185.287 236.519 C 185.005 236.784,184.262 237.516,183.635 238.148 C 183.008 238.779,182.285 239.499,182.028 239.748 C 181.770 239.996,181.259 240.515,180.891 240.900 C 180.523 241.285,180.069 241.600,179.883 241.600 C 179.401 241.600,178.400 242.661,178.400 243.171 C 178.400 243.407,178.232 243.600,178.027 243.600 C 177.822 243.600,177.543 243.951,177.406 244.380 C 177.270 244.808,176.772 245.282,176.299 245.432 C 175.405 245.716,170.400 250.521,170.400 251.095 C 170.400 251.525,168.901 252.800,168.395 252.800 C 168.178 252.800,168.000 252.994,168.000 253.231 C 168.000 253.468,167.505 254.182,166.900 254.818 C 166.295 255.454,165.584 256.205,165.319 256.487 C 165.055 256.769,164.605 257.220,164.319 257.489 C 164.034 257.758,163.620 258.161,163.400 258.384 C 163.180 258.608,162.415 259.347,161.700 260.026 C 160.985 260.706,160.400 261.416,160.400 261.604 C 160.400 261.792,160.003 262.072,159.519 262.226 C 158.611 262.514,157.600 263.344,157.600 263.802 C 157.600 264.141,155.340 266.400,155.000 266.400 C 154.561 266.400,149.200 271.922,149.200 272.375 C 149.200 272.609,148.930 272.800,148.600 272.800 C 148.270 272.800,148.000 272.988,148.000 273.217 C 148.000 273.639,147.422 274.443,146.487 275.319 C 144.210 277.455,143.600 278.106,143.600 278.404 C 143.600 278.592,143.249 278.857,142.820 278.994 C 142.392 279.130,141.933 279.583,141.800 280.000 C 141.667 280.417,141.189 280.877,140.737 281.020 C 139.508 281.410,138.400 282.486,138.400 283.289 C 138.400 283.680,138.220 284.000,138.000 284.000 C 137.780 284.000,137.600 284.360,137.600 284.800 C 137.600 285.240,137.780 285.600,138.000 285.600 C 138.220 285.600,138.400 285.884,138.400 286.232 C 138.400 286.929,237.270 386.000,237.966 386.000 C 238.205 386.000,238.400 386.180,238.400 386.400 C 238.400 386.665,257.667 386.800,295.400 386.800 C 333.133 386.800,352.400 386.665,352.400 386.400 C 352.400 386.180,352.694 386.000,353.052 386.000 C 353.809 386.000,353.565 383.122,352.787 382.862 C 352.550 382.783,352.140 382.461,351.878 382.146 C 351.615 381.832,350.884 381.062,350.252 380.435 C 349.621 379.808,348.949 379.139,348.759 378.948 C 348.569 378.756,347.424 377.610,346.214 376.400 C 345.004 375.190,343.834 374.020,343.614 373.800 C 343.394 373.580,342.176 372.362,340.907 371.093 C 339.638 369.824,338.444 368.631,338.252 368.441 C 337.802 367.994,335.637 365.829,335.052 365.241 C 334.804 364.991,333.634 363.820,332.453 362.640 C 331.273 361.459,330.127 360.313,329.907 360.093 C 329.687 359.873,328.517 358.703,327.307 357.493 C 326.097 356.283,324.950 355.137,324.758 354.947 C 324.306 354.497,321.903 352.094,321.453 351.642 C 321.003 351.188,316.827 347.013,316.306 346.494 C 315.787 345.978,313.622 343.813,313.106 343.294 C 312.886 343.074,311.717 341.903,310.507 340.693 C 309.297 339.483,308.127 338.313,307.907 338.093 C 307.687 337.873,306.517 336.703,305.307 335.493 C 304.097 334.283,302.926 333.114,302.706 332.894 C 302.187 332.378,300.022 330.213,299.506 329.694 C 299.286 329.474,298.117 328.303,296.907 327.093 C 295.697 325.883,294.527 324.713,294.307 324.493 C 294.087 324.273,292.917 323.103,291.707 321.893 C 290.497 320.683,289.326 319.514,289.106 319.294 C 288.587 318.778,286.422 316.613,285.906 316.094 C 285.387 315.573,281.104 311.290,280.652 310.841 C 280.202 310.394,278.022 308.214,277.506 307.694 C 277.286 307.474,276.141 306.327,274.960 305.147 C 273.780 303.966,272.634 302.820,272.414 302.600 C 272.194 302.380,271.024 301.210,269.814 300.000 C 268.604 298.790,267.409 297.596,267.159 297.348 C 266.571 296.763,264.406 294.598,263.959 294.148 C 263.510 293.696,259.350 289.536,258.759 288.948 C 258.509 288.699,257.772 287.934,257.122 287.248 C 256.471 286.561,255.772 286.000,255.569 286.000 C 255.366 286.000,255.200 285.640,255.200 285.200 C 255.200 284.760,255.380 284.400,255.600 284.400 C 255.820 284.400,256.000 284.130,256.000 283.800 C 256.000 283.470,256.192 283.200,256.426 283.200 C 256.981 283.200,261.200 278.981,261.200 278.426 C 261.200 278.192,261.394 278.000,261.631 278.000 C 261.996 278.000,263.111 277.076,264.896 275.296 C 265.418 274.775,274.775 265.418,275.296 264.896 C 275.712 264.478,277.839 262.351,278.444 261.748 C 280.521 259.673,282.000 257.955,282.000 257.616 C 282.000 257.387,282.202 257.200,282.449 257.200 C 282.696 257.200,286.022 254.095,289.841 250.300 C 293.660 246.505,296.989 243.196,297.240 242.948 C 298.411 241.784,300.139 240.050,300.548 239.628 C 300.796 239.370,301.315 238.859,301.700 238.491 C 302.085 238.123,302.400 237.502,302.400 237.111 C 302.400 236.716,302.694 236.400,303.063 236.400 C 303.427 236.400,305.222 234.915,307.051 233.100 C 308.881 231.285,310.562 229.620,310.789 229.400 C 315.378 224.937,323.200 216.768,323.200 216.439 C 323.200 216.197,323.395 216.000,323.633 216.000 C 323.974 216.000,327.776 212.427,332.896 207.296 C 333.116 207.076,333.835 206.355,334.495 205.695 C 341.379 198.811,344.000 196.040,344.000 195.645 C 344.000 195.400,344.188 195.200,344.417 195.200 C 344.834 195.200,345.618 194.640,346.519 193.697 C 350.457 189.577,352.147 188.000,352.624 188.000 C 353.980 188.000,353.352 184.130,351.950 183.850 C 350.406 183.541,238.419 183.577,237.636 183.886 M350.000 376.400 C 350.000 376.844,350.267 377.200,350.600 377.200 C 350.933 377.200,351.200 376.844,351.200 376.400 C 351.200 375.956,350.933 375.600,350.600 375.600 C 350.267 375.600,350.000 375.956,350.000 376.400 " stroke="none" fill-rule="evenodd"></path>
</g>
</svg>