<svg version="1.1" width="400" height="400" xmlns="http://www.w3.org/2000/svg">
<g>
<path d="M78.748 72.366 C 59.151 79.679,53.541 112.260,63.661 160.000 C 67.423 177.751,67.468 176.793,62.640 181.954 L 58.343 186.548 54.168 182.222 C 39.005 166.507,18.518 176.789,11.708 203.530 C 5.471 228.024,9.248 264.163,20.079 283.613 C 21.032 285.325,22.417 287.793,23.156 289.098 C 33.970 308.183,51.613 317.998,68.684 314.426 C 76.486 312.793,79.274 310.932,83.860 304.293 C 92.238 292.163,95.424 256.358,90.026 235.000 C 89.539 233.075,88.645 229.025,88.038 226.000 C 80.953 190.671,79.771 182.981,81.166 181.300 C 83.158 178.900,84.000 179.968,84.000 184.893 C 84.000 225.284,118.947 237.659,126.440 199.921 C 126.853 197.842,130.338 195.000,132.475 195.000 C 132.685 195.000,133.161 197.588,133.534 200.750 C 134.882 212.188,139.492 222.199,143.691 222.807 C 146.973 223.283,151.000 218.324,151.000 213.807 C 151.000 211.765,151.422 209.060,151.937 207.797 C 152.452 206.534,153.885 201.508,155.120 196.629 C 157.612 186.790,157.980 186.967,159.998 198.967 C 161.286 206.625,161.413 207.017,164.549 213.000 C 171.137 225.569,184.503 226.141,190.931 214.128 C 191.864 212.385,192.215 212.514,195.787 215.912 C 202.345 222.150,209.158 223.353,216.332 219.538 L 220.962 217.076 226.048 219.715 C 233.205 223.428,240.445 220.511,244.946 212.101 L 246.220 209.720 248.332 213.110 C 257.165 227.287,268.469 225.986,277.181 209.791 L 279.862 204.807 281.089 208.903 C 281.764 211.157,282.695 213.000,283.158 213.000 C 283.621 213.000,284.000 213.591,284.000 214.313 C 284.000 216.323,289.281 220.933,292.710 221.917 C 298.773 223.656,305.074 220.376,309.653 213.100 L 311.793 209.699 313.535 213.100 C 317.917 221.651,327.062 226.156,333.316 222.843 C 338.246 220.231,343.996 210.408,345.516 202.000 C 346.774 195.045,346.813 195.000,351.663 195.000 C 381.525 195.000,397.582 163.426,372.172 154.671 C 368.159 153.289,365.906 154.588,369.000 156.500 C 375.036 160.230,366.227 179.583,356.500 183.961 C 347.835 187.862,348.001 187.923,347.989 180.817 C 347.963 165.550,341.356 156.000,330.819 156.000 C 324.156 156.000,319.126 162.052,318.921 170.315 C 318.878 172.067,318.615 172.938,318.338 172.250 C 317.552 170.302,312.613 170.780,310.189 173.039 C 308.183 174.908,308.000 176.036,308.000 186.553 C 308.000 210.670,297.116 213.793,290.543 191.562 C 288.982 186.285,289.153 185.283,293.968 171.500 C 294.928 168.750,296.483 162.900,297.422 158.500 C 298.361 154.100,299.550 148.873,300.065 146.884 C 308.287 115.092,284.434 86.973,273.866 116.000 C 269.751 127.304,270.566 173.195,275.157 188.659 C 276.640 193.654,269.514 207.000,265.364 207.000 C 262.356 207.000,255.000 193.073,255.000 187.379 C 255.000 185.990,256.166 181.398,257.591 177.176 C 270.417 139.180,267.488 104.000,251.500 104.000 C 242.598 104.000,237.836 114.325,236.512 136.500 C 235.660 150.763,238.369 183.220,241.127 191.799 C 243.464 199.068,230.973 216.620,227.483 210.973 C 227.134 210.408,227.789 208.002,228.939 205.627 C 239.293 184.238,233.343 157.408,218.672 159.329 C 206.602 160.910,202.255 183.380,210.522 201.455 C 213.541 208.054,213.539 208.000,210.723 208.000 C 199.706 208.000,194.074 179.712,199.023 149.237 L 200.360 141.000 207.097 141.000 C 221.873 141.000,227.512 135.605,227.479 121.500 C 227.457 112.104,225.893 106.530,224.381 110.457 C 221.951 116.767,203.000 128.536,203.000 123.736 C 203.000 123.494,204.086 118.842,205.412 113.398 C 209.068 98.398,209.060 98.464,207.605 96.474 C 206.368 94.783,205.778 94.732,200.687 95.871 C 190.925 98.055,189.843 99.896,187.468 118.368 C 186.770 123.800,187.363 123.654,176.500 121.060 C 171.384 119.839,160.197 117.368,152.500 115.759 C 145.734 114.345,124.199 114.066,119.250 115.329 L 116.000 116.159 115.989 106.829 C 115.960 81.382,98.323 65.060,78.748 72.366 M99.271 90.471 C 107.296 98.496,108.305 117.857,100.958 122.807 C 86.903 132.274,81.476 146.306,89.936 151.303 C 97.799 155.948,103.909 150.498,111.015 132.500 C 114.836 122.823,113.095 124.232,123.469 122.421 C 132.492 120.847,146.186 122.100,153.838 125.202 C 160.676 127.974,162.743 128.791,166.000 130.010 C 167.925 130.731,169.928 131.698,170.450 132.160 C 170.973 132.622,172.098 133.003,172.950 133.006 C 173.803 133.010,175.655 133.615,177.067 134.352 C 178.478 135.088,180.869 136.001,182.379 136.380 L 185.125 137.069 184.482 157.285 C 183.857 176.940,184.314 184.358,187.073 199.369 C 188.317 206.140,188.301 206.265,185.918 208.097 C 175.002 216.488,167.836 195.600,172.528 169.065 C 174.129 160.015,173.827 159.048,169.399 159.015 C 162.785 158.967,159.710 161.768,156.243 171.000 C 155.107 174.025,153.612 177.850,152.919 179.500 C 152.227 181.150,150.422 186.100,148.907 190.500 C 145.715 199.777,145.566 199.515,147.494 188.000 C 149.924 173.484,151.049 168.967,153.055 165.678 C 157.276 158.754,153.860 155.038,145.199 157.134 C 138.440 158.771,139.090 157.573,135.094 175.762 C 133.777 181.759,132.624 184.593,130.890 186.104 L 128.500 188.185 127.929 181.842 C 127.616 178.354,127.005 174.600,126.572 173.500 C 123.018 164.462,120.088 161.353,114.257 160.433 C 99.375 158.087,96.020 178.696,109.244 191.226 C 114.818 196.508,115.079 199.004,110.913 207.170 C 107.777 213.318,104.471 214.380,100.581 210.491 C 94.584 204.493,93.463 183.398,98.595 173.110 C 100.149 169.994,99.800 166.772,97.658 164.479 C 96.345 163.073,87.843 165.019,81.773 168.116 C 77.158 170.470,77.459 171.122,75.947 155.500 C 72.104 115.802,74.715 98.341,85.780 89.750 C 90.797 85.855,94.873 86.073,99.271 90.471 M255.474 125.950 C 257.206 129.299,257.653 149.584,256.106 154.601 C 255.614 156.195,254.671 160.135,254.011 163.355 C 253.180 167.404,252.489 168.889,251.771 168.171 C 250.106 166.506,249.525 139.878,250.975 131.656 C 252.723 121.742,253.070 121.302,255.474 125.950 M290.213 125.250 C 292.206 128.745,291.766 151.960,289.563 159.500 C 288.599 162.800,287.475 166.850,287.065 168.500 C 285.888 173.241,284.624 151.398,285.329 138.502 C 285.958 126.978,286.665 123.000,288.081 123.000 C 288.548 123.000,289.507 124.013,290.213 125.250 M101.164 133.429 C 100.047 137.516,93.990 145.390,92.844 144.244 C 91.641 143.041,93.612 138.803,97.553 134.120 C 100.700 130.379,102.068 130.118,101.164 133.429 M336.011 171.250 C 337.323 173.402,337.994 176.282,337.996 179.773 L 338.000 185.046 335.552 183.442 C 332.071 181.161,329.358 173.705,330.831 170.471 C 332.339 167.163,333.638 167.358,336.011 171.250 M225.609 170.765 C 230.470 173.985,228.138 194.823,222.240 200.869 C 220.634 202.515,220.660 202.545,219.180 197.384 C 216.028 186.391,218.612 170.031,223.500 170.031 C 224.050 170.031,224.999 170.361,225.609 170.765 M114.446 180.500 L 115.082 185.500 113.083 182.000 C 111.040 178.424,110.452 174.881,111.695 173.639 C 112.767 172.566,113.748 175.012,114.446 180.500 M327.681 188.126 C 329.862 190.121,332.625 192.064,333.823 192.444 C 336.479 193.287,336.511 194.149,334.125 200.432 C 329.437 212.777,321.050 213.460,317.535 201.783 C 316.586 198.630,316.506 196.847,317.253 195.512 C 317.827 194.486,318.521 189.359,318.795 184.120 L 319.294 174.593 321.505 179.546 C 322.721 182.271,325.500 186.132,327.681 188.126 M49.250 192.199 C 52.581 194.546,52.585 194.726,49.483 203.500 C 42.802 222.401,49.497 237.920,62.795 234.358 C 69.187 232.646,71.019 217.439,66.500 203.597 C 65.125 199.385,64.000 195.481,64.000 194.921 C 64.000 193.867,69.086 188.752,69.611 189.278 C 69.985 189.652,74.767 212.816,76.676 223.500 C 77.462 227.900,78.559 233.975,79.115 237.000 C 83.328 259.937,80.799 283.126,73.199 291.250 C 65.199 299.800,46.293 286.308,39.217 267.000 C 34.822 255.004,34.633 254.278,31.430 237.000 C 25.668 205.923,35.093 182.228,49.250 192.199 M61.123 210.074 C 62.375 214.554,62.120 223.207,60.750 222.751 C 59.241 222.249,58.278 218.192,58.118 211.667 C 57.991 206.472,59.842 205.491,61.123 210.074 M210.000 232.671 C 192.641 233.209,163.371 235.141,159.500 236.004 C 157.300 236.495,151.450 237.630,146.500 238.527 C 137.139 240.224,131.724 241.627,128.764 243.123 C 127.809 243.605,126.457 244.000,125.760 244.000 C 119.324 244.000,104.676 254.757,105.611 258.797 C 107.815 268.320,112.588 272.214,118.405 269.235 C 125.839 265.427,132.180 262.852,141.398 259.900 C 155.739 255.308,158.568 254.630,176.500 251.489 C 202.669 246.905,252.182 247.096,281.000 251.890 C 295.725 254.341,304.145 256.044,311.000 257.961 C 324.142 261.635,324.797 261.658,325.597 258.468 C 326.788 253.725,318.307 247.539,305.899 244.099 C 303.479 243.429,299.925 242.422,298.000 241.863 C 293.600 240.584,282.919 238.336,272.397 236.475 C 265.355 235.229,220.653 231.648,219.077 232.204 C 218.760 232.315,214.675 232.526,210.000 232.671 " stroke="none" fill-rule="evenodd"></path>
</g>
</svg>