<svg id="svg" version="1.1" width="400" height="400" xmlns="http://www.w3.org/2000/svg" xmlns:xlink="http://www.w3.org/1999/xlink" style="display: block;"><g id="svgg"><path id="path0" d="M102.000 107.893 C 16.747 193.339,13.081 197.295,16.481 200.157 C 17.359 200.896,19.297 202.744,20.788 204.264 C 22.280 205.784,25.466 208.992,27.870 211.394 C 33.240 216.760,33.240 216.760,38.606 222.130 C 41.008 224.534,44.216 227.730,45.736 229.233 C 47.256 230.736,50.406 233.886,52.735 236.233 C 55.064 238.580,57.481 241.009,58.105 241.630 C 58.729 242.252,61.204 244.727,63.606 247.130 C 66.008 249.534,69.216 252.730,70.736 254.233 C 72.256 255.736,75.406 258.886,77.735 261.233 C 82.973 266.511,83.489 267.027,88.767 272.265 C 91.114 274.594,94.264 277.744,95.767 279.264 C 97.270 280.784,100.525 284.051,103.000 286.524 C 105.475 288.998,107.950 291.473,108.500 292.025 C 109.050 292.578,111.420 294.936,113.767 297.265 C 116.114 299.594,119.264 302.744,120.767 304.264 C 122.270 305.784,125.408 308.934,127.739 311.264 C 130.071 313.594,132.546 316.069,133.239 316.765 C 133.933 317.461,136.420 319.936,138.767 322.265 C 141.114 324.594,144.264 327.744,145.767 329.264 C 147.270 330.784,150.525 334.051,153.000 336.524 C 155.475 338.998,157.950 341.473,158.500 342.025 C 159.050 342.578,161.420 344.936,163.767 347.265 C 166.114 349.594,169.264 352.744,170.767 354.264 C 177.545 361.118,182.038 365.590,183.219 366.658 C 183.924 367.294,185.400 368.961,186.500 370.361 C 190.966 376.048,191.000 375.729,191.000 327.579 L 191.000 282.158 186.514 277.829 C 181.168 272.670,177.945 269.490,172.265 263.767 C 169.936 261.420,167.519 258.991,166.895 258.370 C 166.271 257.748,163.796 255.273,161.394 252.870 C 158.992 250.466,155.784 247.270,154.264 245.767 C 152.744 244.264,149.594 241.114,147.265 238.767 C 144.936 236.420,142.578 234.050,142.025 233.500 C 141.473 232.950,138.998 230.475,136.524 228.000 C 134.051 225.525,130.784 222.270,129.264 220.767 C 127.744 219.264,124.594 216.114,122.265 213.767 C 119.936 211.420,117.578 209.050,117.025 208.500 C 116.473 207.950,113.994 205.401,111.517 202.836 C 109.040 200.270,106.511 198.004,105.897 197.799 C 105.283 197.594,124.181 178.033,147.891 154.329 L 191.000 111.231 191.000 66.115 C 191.000 30.637,190.733 21.021,189.750 21.098 C 189.063 21.153,149.575 60.210,102.000 107.893 M202.046 66.250 L 202.092 111.500 204.639 113.500 C 206.039 114.600,207.706 116.076,208.342 116.781 C 209.410 117.962,213.882 122.455,220.736 129.233 C 222.256 130.736,225.406 133.886,227.735 136.233 C 232.973 141.511,233.489 142.027,238.767 147.265 C 241.114 149.594,244.264 152.744,245.767 154.264 C 247.270 155.784,250.466 158.992,252.870 161.394 C 255.273 163.796,257.748 166.271,258.370 166.895 C 258.991 167.519,261.420 169.936,263.767 172.265 C 266.114 174.594,269.264 177.744,270.767 179.264 C 275.647 184.198,281.908 190.470,283.219 191.738 C 288.900 197.228,292.648 192.484,245.118 239.974 L 202.000 283.057 202.000 328.028 C 202.000 360.068,202.316 373.000,203.100 373.000 C 203.705 373.000,207.819 369.400,212.243 365.000 C 216.667 360.600,220.656 357.000,221.109 357.000 C 221.561 357.000,231.832 347.100,243.933 335.000 C 256.033 322.900,266.246 313.000,266.628 313.000 C 267.009 313.000,270.614 309.738,274.640 305.750 C 278.665 301.762,283.205 297.272,284.729 295.771 C 286.253 294.270,288.728 291.795,290.229 290.271 C 291.730 288.747,294.205 286.270,295.729 284.767 C 297.253 283.264,300.365 280.114,302.645 277.767 C 304.925 275.420,308.253 272.375,310.042 271.000 C 311.830 269.625,322.895 258.938,334.630 247.250 C 346.365 235.562,356.312 225.997,356.733 225.993 C 357.155 225.989,359.300 224.177,361.500 221.965 C 363.700 219.754,366.076 217.395,366.781 216.722 C 368.229 215.340,375.133 208.421,379.212 204.264 C 380.703 202.744,382.616 200.920,383.462 200.211 C 384.308 199.501,385.000 198.065,385.000 197.019 C 385.000 195.181,364.792 174.000,363.039 174.000 C 362.574 174.000,352.507 164.438,340.668 152.750 C 328.829 141.063,316.382 129.025,313.008 126.000 C 309.633 122.975,306.339 119.923,305.686 119.217 C 304.493 117.926,283.179 96.571,280.783 94.265 C 280.077 93.586,278.150 91.674,276.500 90.016 C 274.850 88.359,273.184 87.002,272.798 87.001 C 272.412 87.001,262.193 77.100,250.090 65.000 C 237.987 52.900,227.804 43.000,227.463 43.000 C 226.956 43.000,222.016 38.495,216.761 33.239 C 216.211 32.689,213.803 30.273,211.411 27.870 C 205.761 22.193,204.307 21.000,203.042 21.000 C 202.334 21.000,202.015 35.499,202.046 66.250 M157.750 164.935 C 140.838 181.901,127.000 196.293,127.000 196.917 C 127.000 198.339,188.544 260.000,189.962 260.000 C 190.668 260.000,191.000 239.860,191.000 197.000 C 191.000 147.243,190.737 134.009,189.750 134.044 C 189.063 134.069,174.662 147.970,157.750 164.935 " stroke="none" fill="#000000" fill-rule="evenodd"></path></g></svg>