<svg xmlns="http://www.w3.org/2000/svg" width="400" height="400" viewBox="0, 0, 400,400">
<g>
<path d="M183.029 0.620 C 182.818 0.961,180.925 1.418,178.823 1.636 C 67.507 13.181,-14.965 119.989,3.264 229.000 C 5.532 242.560,6.273 245.896,9.320 256.256 C 30.684 328.912,91.228 382.677,166.667 395.986 C 178.542 398.081,181.382 398.279,200.000 398.305 C 220.013 398.334,221.789 398.190,238.333 395.199 C 322.496 379.987,389.444 307.186,398.364 221.177 C 398.582 219.075,399.039 217.182,399.380 216.971 C 400.195 216.467,400.201 183.536,399.386 183.032 C 399.048 182.823,398.586 180.631,398.359 178.160 C 390.089 88.013,314.682 11.804,224.000 1.945 C 220.517 1.566,217.382 0.974,217.033 0.628 C 216.201 -0.197,183.539 -0.205,183.029 0.620 M226.333 44.621 C 264.434 51.258,299.568 71.810,322.583 100.921 C 327.870 107.609,328.102 106.988,316.485 117.277 C 304.792 127.633,305.927 127.432,300.130 120.167 C 268.593 80.642,216.519 63.483,167.408 76.434 C 136.626 84.551,108.484 105.365,92.138 132.103 C 87.091 140.357,80.667 153.649,80.667 155.834 C 80.667 156.482,242.011 317.904,243.472 318.717 C 246.192 320.230,265.195 310.517,277.255 301.450 C 294.626 288.388,309.146 269.747,317.849 249.333 C 319.620 245.180,324.000 232.556,324.000 231.607 C 324.000 231.456,307.030 231.333,286.290 231.333 C 261.570 231.333,248.135 231.096,247.290 230.643 C 245.679 229.782,245.255 201.422,246.833 200.167 C 247.950 199.280,354.653 198.566,356.208 199.436 C 358.668 200.813,356.974 220.540,352.982 237.000 C 339.396 293.011,294.206 338.555,238.801 352.073 L 235.269 352.935 141.167 258.833 L 47.065 164.731 47.941 161.199 C 67.431 82.625,146.790 30.765,226.333 44.621 M123.832 276.166 C 167.191 319.523,202.667 355.373,202.667 355.832 C 202.667 357.510,184.910 356.611,172.417 354.301 C 107.530 342.300,57.700 292.470,45.699 227.583 C 43.390 215.100,42.490 197.333,44.166 197.333 C 44.623 197.333,80.473 232.808,123.832 276.166 " stroke="none" fill-rule="evenodd"></path>
</g>
</svg>