<svg xmlns="http://www.w3.org/2000/svg" width="400" height="400" viewBox="0, 0, 400,400"><g><path d="M61.000 127.685 C 2.268 138.485,-20.070 209.858,22.242 251.519 C 66.664 295.257,142.741 265.555,145.806 203.278 C 148.090 156.863,106.059 119.399,61.000 127.685 M87.333 144.099 C 97.559 146.667,106.677 152.089,114.651 160.343 L 119.635 165.502 115.718 169.148 L 111.800 172.795 108.170 168.719 C 86.465 144.353,46.228 149.342,31.692 178.202 L 29.072 183.403 59.159 213.491 L 89.247 243.579 94.124 241.159 C 105.216 235.654,116.260 222.465,117.818 212.862 L 118.174 210.667 104.060 210.667 L 89.946 210.667 90.140 205.167 L 90.333 199.667 110.333 199.667 L 130.333 199.667 130.119 204.248 C 129.160 224.699,114.417 244.740,94.549 252.599 C 85.238 256.282,90.254 259.945,51.426 221.102 L 17.186 186.848 18.236 183.257 C 26.762 154.095,57.585 136.627,87.333 144.099 M321.333 194.667 L 321.333 225.333 325.333 225.333 C 328.889 225.333,329.333 225.185,329.333 224.000 C 329.333 222.355,329.661 222.342,331.897 223.898 C 343.725 232.128,358.446 221.637,357.129 205.918 C 356.031 192.826,344.054 185.413,333.564 191.333 C 331.615 192.433,329.866 193.333,329.677 193.333 C 329.488 193.333,329.333 186.733,329.333 178.667 L 329.333 164.000 325.333 164.000 L 321.333 164.000 321.333 194.667 M185.667 168.749 C 169.560 171.052,158.127 188.497,162.236 204.499 C 170.058 234.962,214.305 233.313,215.867 202.500 L 216.163 196.667 204.748 196.667 L 193.333 196.667 193.333 200.333 L 193.333 204.000 199.961 204.000 C 207.639 204.000,207.868 204.178,205.943 208.652 C 197.955 227.220,170.333 218.699,170.333 197.667 C 170.333 178.181,191.642 168.950,205.244 182.544 L 208.155 185.453 210.744 182.924 C 213.886 179.856,213.913 179.471,211.167 176.900 C 203.667 169.880,195.661 167.320,185.667 168.749 M270.667 183.667 C 270.667 189.978,270.661 190.000,269.000 190.000 C 267.407 190.000,267.333 190.178,267.333 194.000 C 267.333 197.822,267.407 198.000,269.000 198.000 L 270.667 198.000 270.667 211.667 L 270.667 225.333 274.667 225.333 L 278.667 225.333 278.667 211.667 L 278.667 198.000 282.000 198.000 L 285.333 198.000 285.333 194.000 L 285.333 190.000 282.000 190.000 L 278.667 190.000 278.667 183.667 L 278.667 177.333 274.667 177.333 L 270.667 177.333 270.667 183.667 M233.243 191.191 C 220.854 197.627,221.021 218.633,233.512 225.092 C 238.573 227.709,242.957 227.153,251.500 222.810 C 251.775 222.670,252.000 223.181,252.000 223.944 C 252.000 225.198,252.391 225.333,256.000 225.333 L 260.000 225.333 260.000 207.667 L 260.000 190.000 256.000 190.000 C 252.022 190.000,252.000 190.011,252.000 191.951 L 252.000 193.903 248.206 191.618 C 243.169 188.585,238.515 188.452,233.243 191.191 M295.990 190.568 C 287.899 194.867,288.665 204.426,297.465 208.989 C 303.616 212.179,305.333 213.729,305.333 216.093 C 305.333 219.760,300.326 220.537,297.333 217.333 C 295.121 214.965,294.748 214.925,291.307 216.680 C 288.046 218.344,288.047 218.442,291.372 222.219 C 299.611 231.579,315.838 224.811,313.612 212.942 C 312.940 209.361,310.540 207.046,304.346 204.006 C 298.621 201.197,297.131 199.517,298.693 197.635 C 299.832 196.263,302.001 196.435,303.703 198.034 L 305.158 199.401 308.246 197.901 C 311.852 196.149,311.873 196.077,309.587 193.361 C 306.135 189.257,300.596 188.120,295.990 190.568 M361.822 193.469 C 362.913 195.411,366.553 201.987,369.910 208.083 L 376.014 219.166 369.341 231.522 C 361.363 246.292,361.504 245.446,367.057 245.197 L 371.447 245.000 385.381 218.000 C 393.044 203.150,399.319 190.775,399.324 190.500 C 399.329 190.225,397.385 190.000,395.004 190.000 L 390.675 190.000 385.631 200.071 C 382.857 205.610,380.380 209.941,380.127 209.695 C 379.874 209.449,377.385 204.992,374.596 199.791 L 369.524 190.333 364.681 190.136 L 359.838 189.938 361.822 193.469 M247.365 198.169 C 250.702 200.418,252.222 203.494,252.222 208.000 C 252.222 221.032,236.017 223.776,232.661 211.312 C 230.026 201.525,239.620 192.949,247.365 198.169 M343.839 197.996 C 353.269 203.746,348.921 219.944,338.162 219.149 C 332.453 218.727,329.121 214.590,329.115 207.919 C 329.107 199.266,337.094 193.884,343.839 197.996 M70.843 256.549 C 44.708 258.319,16.000 229.832,16.000 202.126 L 16.000 198.339 45.009 227.336 L 74.019 256.333 70.843 256.549 " stroke="none" fill-rule="evenodd"></path></g></svg>