<?xml version="1.0" encoding="UTF-8" standalone="no"?>
<!DOCTYPE svg PUBLIC "-//W3C//DTD SVG 1.1//EN" "http://www.w3.org/Graphics/SVG/1.1/DTD/svg11.dtd">
<svg width="100%" height="100%" viewBox="0 0 515 515" version="1.1" xmlns="http://www.w3.org/2000/svg" xmlns:xlink="http://www.w3.org/1999/xlink" xml:space="preserve" xmlns:serif="http://www.serif.com/" style="fill-rule:evenodd;clip-rule:evenodd;stroke-linejoin:round;stroke-miterlimit:2;">
    <g id="svgg">
        <path id="path0" d="M144.638,22.5C143.946,24.304 137.806,23.951 136.922,24.343C125.709,29.313 126.641,30.53 117.865,39C115.837,40.957 112.776,41.774 111.048,44C109.031,46.599 108.526,50.086 107,53C101.914,62.709 97.26,72.675 91.5,82C90.868,83.023 89.153,82.991 88.5,84C85.422,88.758 83.413,94.139 80.5,99C78.737,101.943 76.186,104.375 74.5,107.362C70.339,114.733 67.19,122.646 63,130C58.514,137.875 52.994,145.129 48.5,153C46.45,156.59 45.555,160.776 43.411,164.31C42.529,165.764 40.437,166.216 39.589,167.69C29.644,184.963 30.019,184.969 20,202C15.692,209.324 13.977,218.106 9.011,225C4.231,231.636 2.218,230.706 1.275,238.816C0.305,247.149 0.659,255.617 1.284,263.983C1.534,267.333 5.432,273.301 7,276C14.167,288.333 21.438,300.606 28.5,313C38.352,330.29 47.724,347.853 57.741,365.048C67.727,382.19 78.496,398.868 88.5,416C100.18,436.003 99.373,436.301 111.5,456C114.711,461.215 118.347,467.892 124.071,471C129.188,473.778 134.761,475.816 140.441,477.094C146.34,478.421 152.459,478.646 158.505,478.747C190.509,479.282 222.522,479 254.531,479C286.54,479 318.552,479.164 350.559,478.745C366.644,478.535 366.601,478.081 381.638,472.5C383.78,471.705 386.237,471.405 388,469.952C393.286,465.595 396.547,458.271 400.5,453C401.221,452.039 402.85,452.011 403.5,451C410.032,440.84 414.414,429.433 420.5,419C426.002,409.568 432.158,400.523 437.5,391C441.676,383.556 440.86,379.947 445.966,373C447.035,371.546 449.155,371.125 450.251,369.691C457.089,360.74 454.832,359.602 460.5,350C462.194,347.129 464.736,344.828 466.5,342C476.118,326.579 474.289,325.745 483.5,310C485.183,307.123 487.829,304.884 489.5,302C491.765,298.091 492.918,293.596 495.249,289.726C495.797,288.815 497.312,288.865 497.929,288C500.793,283.984 504.969,274.612 506.5,270C509.315,261.521 508.228,261.163 508,251.5C507.802,243.126 509.074,237.619 506.044,230.433C500.708,217.778 490.602,207.371 485.049,194.858C484.55,193.734 485.308,192.273 484.743,191.181C482.951,187.719 479.369,185.421 477.5,182C468.99,166.425 469.955,165.102 460.5,150C459.243,147.992 457.161,146.565 456,144.5C453.386,139.854 451.95,134.598 449.25,130.001C445.761,124.061 440.993,118.938 437.5,113C434.307,107.571 432.39,101.461 429.25,96.001C424.71,88.105 419.085,80.87 414.5,73C409.534,64.477 405.768,55.479 400.5,47C396.144,39.989 393.86,39.988 388,34.5C386.823,33.397 382.762,27.991 381,27.333C378.804,26.514 376.241,27.352 374,26.667C367.536,24.688 368.537,22.583 361.992,21.076C352.153,18.811 341.801,21.187 331.705,21.218C306.349,21.296 280.994,20.791 255.638,20.791C230.282,20.791 204.927,21.462 179.572,21.218C170.708,21.133 168.175,18.858 159.302,17.847C154.099,17.254 146.984,16.389 144.638,22.5M242,125.5C242,127.194 247.369,128.525 247.781,128.849C254.36,134.025 254.651,133.301 262,137.5C264.057,138.675 265.424,140.858 267.5,142C288.026,153.289 288.071,152.751 307.969,165C311.692,167.292 315.515,169.423 319.362,171.5C321.084,172.43 325.603,173.731 326.5,176C331.402,188.403 328.232,206.782 328,219C327.775,230.859 327.912,242.723 327.741,254.583C327.725,255.703 327.072,265.249 323.888,264.919C318.785,264.389 319.661,255.908 319.571,253.102C319.364,246.659 319.049,240.216 319.015,233.769C318.982,227.505 318.917,221.228 319.369,214.98C319.631,211.353 321.927,208.731 321.699,204.993C321.401,200.121 318.953,200.846 318.953,196C318.953,190.944 323.601,187.826 320.651,182.616C318.776,179.305 312.127,176.681 310,175C308.992,174.204 308.836,172.583 307.781,171.849C298.467,165.369 297.45,167.574 287.5,162C272.357,153.517 273.275,152.25 257.929,144C250.191,139.84 246.53,139.821 240.5,133C239.019,131.325 238.65,128.917 237.5,127C237.136,126.394 235.684,126.132 236,125.5C236.596,124.308 242,122.184 242,125.5M230,151.5C230.894,152.596 231.816,153.726 233,154.5C237.205,157.248 241.694,159.535 246.071,162C260.899,170.349 275.755,178.649 290.583,187C293.536,188.663 303.812,192.407 298.583,198.375C297.007,200.174 294.183,198.239 293,197.5C288.295,194.56 283.809,191.265 279,188.5C270.467,183.593 261.561,179.358 253,174.5C242.782,168.701 233.233,159.638 220.416,162.304C218.728,162.655 217.498,164.145 216,165C205.663,170.901 206.257,171.517 196,177.5C188.673,181.774 180.318,184.102 173,188.392C170.106,190.089 167.812,192.67 165,194.5C163.126,195.719 160.878,196.286 159,197.5C156.1,199.375 152.31,203.998 148.584,204.696C144.925,205.382 141.122,205.049 137.416,204.696C136.801,204.638 135.602,203.973 136,203.5C137.74,201.433 144.941,198.703 147,197.5C171.682,183.077 171.156,182.488 196,168.5C202.63,164.767 209.465,161.396 216,157.5C221.335,154.319 220.378,153.202 226.191,150.665C226.938,150.339 230,148.993 230,151.5M356,226L356,279L353.469,279C348.275,279 342.696,285.728 339,288C329.855,293.623 319.503,297.153 310.504,303.007C305.971,305.956 307.107,307.256 302.145,309.279C293.574,312.774 293.625,312.654 285.638,317.5C284.926,317.932 284.471,319 283.638,319C283.01,319 275.708,315.497 276,314.5C276.315,313.427 277.976,313.449 279,313C285.421,310.182 286.969,310.108 293,306.5C307.375,297.902 321.57,289.005 336,280.5C340.453,277.876 345.563,275.615 348,270.559C354.749,256.555 350.26,237.128 350,222.941C349.778,210.82 349.997,198.693 350.258,186.574C350.363,181.737 355.416,170.537 355.743,182.084C356.157,196.717 356,211.361 356,226M233,186.113C233,187.264 230.533,188.164 230,188.5C225.305,191.456 220.736,194.611 216,197.5C201.7,206.221 187.403,214.949 173,223.5C170.203,225.16 165.011,226.425 163.5,230C158.216,242.503 161.872,262.265 162,274.5C162.128,286.777 162.034,299.059 161.742,311.333C161.63,316.002 160.288,315.464 159.333,320C158.851,322.294 159.376,324.766 158.667,327C158.223,328.398 156.837,329.295 156,330.5C155.446,331.298 154.874,333.897 154.5,333C153.325,330.179 153.344,326.971 153.257,323.917C152.843,309.283 153,294.639 153,280C153,265.361 152.843,250.717 153.257,236.084C153.344,233.029 153.407,229.854 154.5,227C154.93,225.878 156.504,225.673 157.5,225C162.671,221.506 167.622,217.666 173,214.5C194.75,201.694 194.683,201.976 216,188.5C220.652,185.559 224.854,184.545 230.324,184.904C231.301,184.968 233,185.134 233,186.113M259,203.5C259,205.186 261.292,204.73 262,205C264.72,206.036 267.303,207.406 270,208.5C275.679,210.804 274.577,212.176 279.75,215.625C281.015,216.469 282.904,215.667 284.25,216.375C288.236,218.473 290.775,222.764 294.75,224.882C297.144,226.158 301.777,225.212 297.906,230.297C296.372,232.312 292.385,232.348 290.75,233.375L287.25,238.625C285.912,239.348 284.11,238.695 282.75,239.375C281.944,239.778 282.056,241.222 281.25,241.625C279.89,242.305 278.082,241.642 276.75,242.375C271.323,245.36 266.677,249.64 261.25,252.625C259.918,253.358 258.151,252.784 256.75,253.375C256.424,253.513 255.479,256.424 254.5,256C250.642,254.327 248.16,250.294 244.357,248.5C240.953,246.894 237.109,246.324 233.75,244.625C232.946,244.218 233.056,242.778 232.25,242.375C230.89,241.695 229.088,242.348 227.75,241.625C225.899,240.626 226.101,237.374 224.25,236.375C222.912,235.652 221.107,236.311 219.75,235.625C216.346,233.903 218.196,231.908 214.75,230.269C213.418,229.635 209.341,230.886 209.2,227.725C209.099,225.461 213.337,225.839 215.25,224.625C216.011,224.142 215.944,222.778 216.75,222.375C218.11,221.695 219.905,222.334 221.25,221.625C224.96,219.669 227.039,215.33 230.75,213.375C232.095,212.666 233.985,213.469 235.25,212.625C240.263,209.283 239.465,208.171 245,206C249.927,204.067 249.356,202.893 254.5,202C254.856,201.938 259,201.753 259,203.5M190,280.5C190,294.109 187.267,308.617 191.5,322C193.149,327.212 200.801,327.865 204.5,330C213.098,334.961 221.268,341.697 230,346.5C247.795,356.287 248.528,354.791 265,366.5C265.686,366.987 277.376,375.715 271.5,379C269.878,379.906 269.294,375.927 267.781,374.849C259.685,369.081 258.565,371.68 250,366.5C244.065,362.911 238.907,358.136 233,354.5C230.779,353.133 212.258,344.781 210,343.5C203.242,339.668 197.489,334.219 190.726,330.396C188.79,329.302 186.724,328 184.5,328L182,328L182,285.5C182,239.112 181.977,239.297 187.75,239.083L190,239L190,280.5M216,254.5C216,254.698 216.048,254.897 216.118,255.082C216.578,256.301 218.372,255.719 218.882,256.918C219.398,258.131 218.109,259.355 216.918,258.882C215.862,258.462 216.26,257.142 215.559,256.441C214.873,255.754 213.491,256.144 213.118,255.082C213.053,254.895 213,254.698 213,254.5C213,254.302 213.045,254.102 213.118,253.918C213.704,252.452 216,252.949 216,254.5M299,254.5C299,254.676 298.96,254.922 298.882,255.082C298.734,255.384 298.594,255.577 298.308,255.756C297.329,256.366 296,255.657 296,254.5C296,254.324 296.04,254.078 296.118,253.918C296.266,253.616 296.406,253.423 296.692,253.244C297.671,252.634 299,253.343 299,254.5M293,257.5C293,257.698 292.947,257.895 292.882,258.082C292.497,259.179 291.068,258.673 290.441,259.441C289.9,260.101 290.122,261.041 289.388,261.57C288.724,262.05 287.704,261.94 286.975,261.851C286.821,261.832 286.663,261.795 286.53,261.717C286.473,261.683 286.412,261.595 286.446,261.539C286.509,261.432 286.651,261.401 286.756,261.336C287.076,261.137 287.307,261.079 287.477,260.71C287.691,260.247 287.084,259.656 287.506,259.269C288.082,258.741 288.967,259.113 289.542,258.559C290.141,257.982 289.894,257.061 290.441,256.441C291.315,255.449 293,256.271 293,257.5M225,260.5C225,262.352 228.423,262.145 229.334,262.4C230.368,262.69 229.651,264.249 230.666,264.6C231.977,265.052 233.605,264.906 234.853,265.588C235.605,265.998 236.338,266.456 237,267C237.018,267.015 239.097,268.846 238.891,269.548C238.736,270.073 237.762,270.02 237.504,270C237.138,269.973 236.772,269.866 236.441,269.706C235.718,269.358 236.044,268.479 235.119,268.294C234.15,268.099 231.708,267.907 230.75,267.625C229.644,267.299 230.372,265.784 229.334,265.4C228.269,265.006 225.915,265.255 225.208,264.205C224.669,263.405 225.139,263.209 224.559,262.441C224.021,261.728 222.809,262.129 222.281,261.415C220.7,259.275 225,257.987 225,260.5M285,263.5C285,263.676 284.96,263.922 284.882,264.082C284.734,264.384 284.594,264.577 284.308,264.756C283.329,265.366 282,264.657 282,263.5C282,263.324 282.04,263.078 282.118,262.918C282.266,262.616 282.406,262.423 282.692,262.244C283.671,261.634 285,262.343 285,263.5M279,266.5C279,267.745 277.529,268.02 276.571,267.977C276.113,267.957 275.506,267.699 275.502,267.165C275.496,266.175 276.353,265.217 277.315,265.031C278.213,264.857 279,265.615 279,266.5M273,269C273,269.711 272.073,270.012 271.5,270C271.304,269.996 271.106,269.973 270.918,269.921C270.75,269.875 270.595,269.788 270.441,269.706C270.196,269.577 269.996,269.282 270,269C270.011,268.289 270.917,267.987 271.5,268C271.696,268.004 271.894,268.027 272.082,268.079C272.25,268.125 272.405,268.212 272.559,268.294C272.807,268.425 273,268.717 273,269M245,271.5C245,272.657 243.671,273.366 242.692,272.756C242.406,272.577 242.266,272.384 242.118,272.082C242.04,271.922 242,271.676 242,271.5C242,271.324 242.04,271.078 242.118,270.918C242.266,270.616 242.406,270.423 242.692,270.244C243.671,269.634 245,270.343 245,271.5M268,271.5C268,271.698 267.947,271.895 267.882,272.082C267.498,273.176 266.075,272.681 265.441,273.441C264.823,274.18 265.146,275.335 264.184,275.833C263.253,276.314 261.952,275.589 262,274.5C262.009,274.302 262.053,274.105 262.118,273.918C262.502,272.824 263.925,273.319 264.559,272.559C265.091,271.923 264.892,271.063 265.441,270.441C266.315,269.449 268,270.271 268,271.5M250.257,274.873C250.344,275.205 250.525,275.749 250.343,276.109C250.162,276.469 249.689,276.428 249.362,276.365C248.411,276.181 247.308,275.701 247.038,274.671C246.827,273.863 247.484,272.778 248.417,273.042C249.334,273.301 250.012,273.938 250.257,274.873M213,277.5C213,278.657 211.671,279.366 210.692,278.756C210.406,278.577 210.266,278.384 210.118,278.082C210.04,277.922 210,277.676 210,277.5C210,276.343 211.329,275.634 212.308,276.244C212.594,276.423 212.734,276.616 212.882,276.918C212.96,277.078 213,277.324 213,277.5M259,277.563C259,278.55 258.143,278.841 257.312,278.878C256.263,278.926 255.179,278.831 254.168,278.539C253.388,278.314 252.551,278.045 252.208,277.237C252.161,277.126 252.264,276.841 252.352,276.771C252.913,276.325 253.236,276.197 253.949,276.102C254.435,276.038 254.927,276.019 255.417,276C255.753,275.987 256.091,275.984 256.426,276.008C257.392,276.076 259,276.235 259,277.563M299,277.5C299,277.698 298.947,277.895 298.882,278.082C298.498,279.176 297.075,278.681 296.441,279.441C295.823,280.18 296.146,281.335 295.184,281.833C294.253,282.314 292.952,281.589 293,280.5C293.009,280.302 293.053,280.105 293.118,279.918C293.502,278.824 294.925,279.319 295.559,278.559C296.091,277.923 295.892,277.063 296.441,276.441C297.315,275.449 299,276.271 299,277.5M219,280.5C219,280.698 219.048,280.897 219.118,281.082C219.578,282.301 221.372,281.719 221.882,282.918C222.398,284.131 221.109,285.355 219.918,284.882C218.862,284.462 219.26,283.142 218.559,282.441C217.873,281.754 216.491,282.144 216.118,281.082C216.053,280.895 216,280.698 216,280.5C216,280.302 216.045,280.102 216.118,279.918C216.704,278.452 219,278.949 219,280.5M290,283.5C290,284.151 289.504,284.876 288.826,284.969C288.25,285.049 287.461,284.85 287.504,284.12C287.546,283.41 287.956,282.655 288.539,282.238C288.633,282.171 288.73,282.105 288.837,282.062C289.237,281.905 289.523,282.08 289.738,282.441C289.825,282.588 289.888,282.751 289.93,282.918C289.977,283.107 290,283.304 290,283.5M227.362,286.5C227.443,286.711 227.487,286.894 227.496,287.12C227.518,287.685 226.989,288.01 226.469,288C225.877,287.988 225.347,287.628 225.116,287.082C224.891,286.552 224.991,285.931 225.262,285.441C225.43,285.137 225.735,284.945 226.084,285.031C226.723,285.188 227.147,285.94 227.362,286.5M285,286.5C285,287.964 283.418,287.902 282.441,288.294C281.715,288.585 282.018,289.549 281.119,289.706C279.855,289.928 277.963,289.699 276.75,290.375C275.708,290.955 276.2,292.36 275.082,292.882C274.161,293.311 272.954,292.523 273,291.5C273.067,290.018 274.5,290.131 275.559,289.706C276.243,289.432 275.933,288.484 276.744,288.294C277.894,288.024 279.393,288.141 280.488,287.559C281.586,286.976 281.845,285.59 283.021,285.118C283.988,284.73 285,285.485 285,286.5M233,289C233,289.283 232.807,289.575 232.559,289.706C231.889,290.06 231.23,290.076 230.54,289.767C230.242,289.634 230,289.335 230,289C230,288.665 230.242,288.366 230.54,288.233C231.23,287.924 231.889,287.94 232.559,288.294C232.807,288.425 233,288.717 233,289M239,291.5C239,291.698 239.048,291.897 239.118,292.082C239.578,293.301 241.372,292.719 241.882,293.918C242.398,295.131 241.109,296.355 239.918,295.882C238.862,295.462 239.26,294.142 238.559,293.441C237.873,292.754 236.491,293.144 236.118,292.082C236.053,291.895 236.003,291.698 236,291.5C235.973,289.938 238.301,289.466 238.882,290.918C238.955,291.102 239,291.302 239,291.5M270,294.5C270,295.151 269.504,295.876 268.826,295.969C268.25,296.049 267.461,295.85 267.504,295.12C267.546,294.41 267.956,293.655 268.539,293.238C268.633,293.171 268.73,293.105 268.837,293.062C269.237,292.905 269.523,293.08 269.738,293.441C269.825,293.588 269.888,293.751 269.93,293.918C269.977,294.107 270,294.304 270,294.5M247.362,297.5C247.443,297.711 247.487,297.894 247.496,298.12C247.518,298.685 246.989,299.01 246.469,299C245.877,298.988 245.347,298.628 245.116,298.082C244.891,297.552 244.991,296.931 245.262,296.441C245.43,296.137 245.735,295.945 246.084,296.031C246.723,296.188 247.147,296.94 247.362,297.5M262,300.5C262,302.418 258.622,301.989 257.688,302.094C257.405,302.125 257.12,302.194 256.866,302.321C255.63,302.939 256.309,304.666 254.787,304.961C254.554,305.006 254.304,305 254.076,304.932C252.726,304.529 253.403,303.049 252.417,302.438C251.785,302.046 251.005,302.089 250.325,301.878C249.571,301.645 248.924,301.375 249,300.5C249.125,299.064 251.445,299.089 252.328,299.069C254.442,299.019 256.558,299.019 258.672,299.069C259.457,299.087 262,299.053 262,300.5M373,300.5C373,303.56 367.683,303.529 365,305C357.349,309.196 349.438,312.938 342,317.5C325.2,327.804 325.452,327.875 308.362,337.5C301.586,341.317 292.578,350.559 283.5,350C277.887,349.654 271.553,346.529 267.219,343.151C266.206,342.361 266.097,340.668 265,340C261.241,337.713 256.761,336.784 253,334.5C251.401,333.529 250.827,331.275 249.178,330.39C246.643,329.03 243.494,329.215 240.886,328C239.143,327.188 223.546,317.042 222,316C216.998,312.631 211.172,311.463 209.919,305.886C209.818,305.434 210.157,301.74 211.5,302C213.27,302.342 214.388,304.194 216,305C219.739,306.869 223.91,307.86 227.5,310C232.626,313.056 237.01,317.227 242,320.5C253.195,327.844 253.708,326.463 265.607,333C270.822,335.865 277.694,342.304 284.5,342C292.7,341.634 299.417,333.962 305.89,330.183C321.49,321.077 338.108,313.425 353,303.5C358.248,300.002 359.83,299.742 366,299C366.435,298.948 373,297.82 373,300.5"/>
    </g>
</svg>
