<svg xmlns="http://www.w3.org/2000/svg" viewBox="0 0 24 24">
  <path d="M 20 2.4765625 A 1.524 1.524 0 0 0 18.476562 4 A 1.524 1.524 0 0 0 20 5.5234375 A 1.524 1.524 0 0 0 21.523438 4 A 1.524 1.524 0 0 0 20 2.4765625 z M 4.0253906 2.6503906 A 1.375 1.375 0 0 0 2.6503906 4.0253906 A 1.375 1.375 0 0 0 4.0253906 5.4003906 A 1.375 1.375 0 0 0 5.2402344 4.6679688 L 16.630859 4.6679688 L 17.332031 4 L 16.630859 3.3359375 L 5.2128906 3.3359375 A 1.375 1.375 0 0 0 4.0253906 2.6503906 z M 17.003906 6.4765625 A 1.524 1.524 0 0 0 15.480469 8.0019531 A 1.524 1.524 0 0 0 17.003906 9.5253906 A 1.524 1.524 0 0 0 18.527344 8.0019531 A 1.524 1.524 0 0 0 17.003906 6.4765625 z M 7.0253906 6.6503906 A 1.375 1.375 0 0 0 5.6503906 8.0253906 A 1.375 1.375 0 0 0 7.0253906 9.4003906 A 1.375 1.375 0 0 0 8.2402344 8.6679688 L 13.855469 8.6679688 L 14.558594 8 L 13.855469 7.3339844 L 8.2109375 7.3339844 A 1.375 1.375 0 0 0 7.0253906 6.6503906 z M 12.025391 10.5 A 1.525 1.525 0 0 0 10.5 12.025391 A 1.525 1.525 0 0 0 12.025391 13.550781 A 1.525 1.525 0 0 0 13.550781 12.025391 A 1.525 1.525 0 0 0 12.025391 10.5 z M 7.0039062 14.480469 A 1.524 1.524 0 0 0 5.4804688 16.003906 A 1.524 1.524 0 0 0 7.0039062 17.527344 A 1.524 1.524 0 0 0 8.5273438 16.003906 A 1.524 1.524 0 0 0 7.0039062 14.480469 z M 17.025391 14.650391 A 1.375 1.375 0 0 0 15.839844 15.330078 L 10.189453 15.330078 L 9.4863281 15.996094 L 10.189453 16.664062 L 15.808594 16.664062 A 1.375 1.375 0 0 0 17.025391 17.400391 A 1.375 1.375 0 0 0 18.400391 16.025391 A 1.375 1.375 0 0 0 17.025391 14.650391 z M 15.638672 16.023438 L 15.650391 16.025391 A 1.375 1.375 0 0 0 15.744141 16.523438 A 1.375 1.375 0 0 0 15.773438 16.587891 A 1.36 1.36 0 0 1 15.744141 16.523438 A 1.36 1.36 0 0 1 15.638672 16.023438 z M 4 18.480469 A 1.524 1.524 0 0 0 2.4765625 20.003906 A 1.524 1.524 0 0 0 4 21.527344 A 1.524 1.524 0 0 0 5.5234375 20.003906 A 1.524 1.524 0 0 0 4 18.480469 z M 20.025391 18.650391 A 1.375 1.375 0 0 0 18.839844 19.330078 L 7.3691406 19.330078 L 6.6679688 20.001953 L 7.3691406 20.671875 L 18.808594 20.671875 A 1.358 1.358 0 0 1 18.798828 20.648438 A 1.358 1.358 0 0 1 18.638672 20.03125 L 18.650391 20.025391 A 1.375 1.375 0 0 0 18.798828 20.648438 A 1.375 1.375 0 0 0 20.025391 21.400391 A 1.375 1.375 0 0 0 21.400391 20.025391 A 1.375 1.375 0 0 0 20.025391 18.650391 z " />
</svg>
