<svg xmlns="http://www.w3.org/2000/svg" viewBox="0 0 24 24">
  <path d="M 6 1.8046875 L 1 4.6894531 L 1 7.1582031 L 3 5.9980469 L 6 4.2597656 L 6 1.8046875 z M 1 7.1582031 L 3 6.7050781 L 3 6 L 1 7.1582031 z M 18 1.8046875 L 18 4.2597656 L 21 6 L 21 6.7050781 L 22.994141 7.15625 L 23 7.1601562 L 23 7.1582031 L 23 4.6914062 L 18 1.8046875 z M 23 7.1601562 L 21 6.7070312 L 21 17.4375 L 21 18.009766 L 18 19.740234 L 18 22.197266 L 23 19.310547 L 23 16.857422 L 23 16.855469 L 23 7.1601562 z M 12 3.5 L 9 5.25 L 9 8.75 L 12 10.5 L 15 8.75 L 15 5.25 L 12 3.5 z M 3 6.7070312 L 1 7.1601562 L 1 16.857422 L 1 19.310547 L 6 22.197266 L 6 19.740234 L 3 18.009766 L 3 17.4375 L 3 6.7070312 z M 8 11 L 5 12.75 L 5 16.25 L 8 18 L 11 16.25 L 11 12.75 L 8 11 z M 16 11 L 13 12.75 L 13 16.25 L 16 18 L 19 16.25 L 19 12.75 L 16 11 z " />
</svg>
