<?xml version="1.0" encoding="UTF-8" standalone="no"?>
<svg
   xmlns:dc="http://purl.org/dc/elements/1.1/"
   xmlns:cc="http://creativecommons.org/ns#"
   xmlns:rdf="http://www.w3.org/1999/02/22-rdf-syntax-ns#"
   xmlns:svg="http://www.w3.org/2000/svg"
   xmlns="http://www.w3.org/2000/svg"
   id="svg20"
   version="1.1"
   focusable="false"
   preserveAspectRatio="xMidYMid meet"
   fit=""
   width="100%"
   viewBox="0 0 24 24"
   height="100%"
   fill-rule="evenodd"
   fill="currentColor">
  <metadata
     id="metadata26">
    <rdf:RDF>
      <cc:Work
         rdf:about="">
        <dc:format>image/svg+xml</dc:format>
        <dc:type
           rdf:resource="http://purl.org/dc/dcmitype/StillImage" />
        <dc:title></dc:title>
      </cc:Work>
    </rdf:RDF>
  </metadata>
  <defs
     id="defs24" />
  <path
     id="path8"
     d="M 4 5 A 1 1 0 0 0 3 6 L 3 7 L 12 7 L 21 7 L 21 6 A 1 1 0 0 0 20 5 L 12 5 L 4 5 z M 3 9 L 3 18 A 1 1 0 0 0 4 19 L 12 18.996094 L 20 18.992188 A 1 1 0 0 0 21 17.992188 L 21 9 L 12 9 L 3 9 z M 5 11 L 12 11 L 19 11 L 19 13 L 12 13 L 5 13 L 5 11 z M 5 15 L 8 15 L 8 17 L 5 17 L 5 15 z M 14 15 L 15 15 L 15 16 L 14 16 L 14 15 z M 17 15 L 18 15 L 18 16 L 17 16 L 17 15 z " />
</svg>
