<?xml version="1.0" encoding="UTF-8" standalone="no"?>
<svg
   xmlns:dc="http://purl.org/dc/elements/1.1/"
   xmlns:cc="http://creativecommons.org/ns#"
   xmlns:rdf="http://www.w3.org/1999/02/22-rdf-syntax-ns#"
   xmlns:svg="http://www.w3.org/2000/svg"
   xmlns="http://www.w3.org/2000/svg"
   xmlns:xlink="http://www.w3.org/1999/xlink"
   id="svg35"
   version="1.1"
   focusable="false"
   preserveAspectRatio="xMidYMid meet"
   fit=""
   viewBox="0 0 24 24"
   height="100%"
   width="100%">
  <metadata
     id="metadata39">
    <rdf:RDF>
      <cc:Work
         rdf:about="">
        <dc:format>image/svg+xml</dc:format>
        <dc:type
           rdf:resource="http://purl.org/dc/dcmitype/StillImage" />
        <dc:title></dc:title>
      </cc:Work>
    </rdf:RDF>
  </metadata>
  <defs
     id="defs4">
    <path
       id="logos-24-alpha-healthcare-api-a"
       d="M2 .83v.675H0V.83a2.995 2.995 0 0 0 2 0z" />
    <path
       d="M.394 2.456h1.212V.458L.394.456z"
       id="logos-24-alpha-healthcare-api-b" />
    <mask
       id="logos-24-alpha-healthcare-api-c"
       fill="#fff">
      <use
         xlink:href="#logos-24-alpha-healthcare-api-a"
         id="use16"
         x="0"
         y="0"
         width="100%"
         height="100%" />
    </mask>
  </defs>
  <path
     id="path6"
     d="M 12,1 A 3,3 0 0 0 9,4 3,3 0 0 0 9.0410156,4.5 H 9 a 3,3 0 0 0 1.996094,2.8222656 V 8 H 5.9492188 C 4.3142186,8 3,9.35 3,11 c 0,1.65 1.3142188,3 2.9492188,3 H 10 V 12 H 5.9492188 C 5.4292188,12 5,11.558 5,11 5,10.442 5.4292186,10 5.9492188,10 H 11 V 10.5 16 H 10 V 14.5 L 6,17 10,19.5 V 18 h 1 v 0.5 h 0.002 L 11,22.234375 12,23 13,22.234375 V 18.5 18 h 2.050781 C 16.685781,18 18,16.65 18,15 18,13.35 16.685781,12 15.050781,12 H 13 V 10.5 10 h 4 v 1.5 L 21,9 17,6.5 V 8 H 12.978516 V 7.3320312 A 3,3 0 0 0 15,4.5 h -0.04687 A 3,3 0 0 0 15,4 3,3 0 0 0 12,1 Z m 1,13 h 2.050781 C 15.570781,14 16,14.442 16,15 c 0,0.558 -0.429219,1 -0.949219,1 H 13 Z" />
</svg>
