<?xml version="1.0" encoding="UTF-8" standalone="no"?>
<!DOCTYPE svg PUBLIC "-//W3C//DTD SVG 1.1//EN" "http://www.w3.org/Graphics/SVG/1.1/DTD/svg11.dtd">
<svg width="100%" height="100%" viewBox="0 0 515 515" version="1.1" xmlns="http://www.w3.org/2000/svg" xmlns:xlink="http://www.w3.org/1999/xlink" xml:space="preserve" xmlns:serif="http://www.serif.com/" style="fill-rule:evenodd;clip-rule:evenodd;stroke-linejoin:round;stroke-miterlimit:2;">
    <g id="svgg">
        <path id="path0" d="M241.5,144.309C235.468,147.901 228.901,150.508 222.599,153.602C221.361,154.21 219.748,154.343 218.879,155.414C214.927,160.288 217.803,171.796 218,176.5C218.376,185.491 214.703,196.314 224.095,201.225C226.948,202.717 230.091,203.59 232.986,205C234.737,205.853 236.2,207.255 238,208L241,209.243L241,229.687C241,236.454 241.192,243.275 240.244,249.975C239.647,254.191 235.845,254.493 233,256.079C226.023,259.968 219.155,264.049 212.25,268.064C210.717,268.956 207.43,271.345 205.522,271.123C195.963,270.008 191.468,258.111 181.5,258C178.913,257.971 174.325,261.35 172.349,262.533C166.583,265.984 160.831,269.46 155,272.799C153.192,273.834 148.27,275.346 147.784,278.199C146.974,282.963 147.637,287.865 147.765,292.696C147.866,296.523 147.958,300.365 148.473,304.158C148.632,305.331 148.6,307.273 149.768,307.465C151.864,307.809 153.869,306.283 155.78,305.358C162.647,302.036 168.162,295.585 175.589,293.306C182.145,291.295 191.517,298.701 191.388,305.513C191.208,315.012 178.724,320.23 172.303,323.668C170.44,324.665 168.373,325.232 166.467,326.147C164.707,326.992 161.069,328.235 162.009,329.947C163.291,332.283 167.888,334.475 169.929,335.93C172.613,337.843 175.04,340.118 177.813,341.9C180.545,343.656 183.255,345.68 186.393,346.514C188.851,347.166 192.95,344.135 194.75,343.086C201.123,339.374 207.468,335.614 213.897,332C216.017,330.808 218.677,330.399 220.389,328.672C225.971,323.042 220.8,307.565 221.244,302.014C221.524,298.496 225.809,297.294 228.05,296C234.614,292.209 241.171,288.4 247.651,284.467C249.209,283.522 255.209,278.748 257.5,279C259.946,279.269 261.873,281.262 264,282.5C271.042,286.599 277.957,290.913 285,295.01C287.122,296.244 291.941,297.75 292.577,300.932C293.761,306.854 289.424,325.813 295.268,329.382C303.169,334.208 310.98,339.182 318.948,343.895C320.564,344.851 324.885,347.059 327.118,346.445C336.749,343.798 336.891,341.151 345.071,335.93C345.99,335.344 353.053,333.099 352.921,330.503C352.831,328.724 346.493,325.708 345.5,325.136C335.512,319.384 316.718,314.672 325.793,299.773C326.62,298.415 327.859,297.264 329.239,296.476C339.601,290.561 346.71,298.482 355.469,304C357.017,304.975 358.558,305.971 360.188,306.803C361.532,307.49 364.169,308.726 364.689,307.309C365.559,304.937 365.598,302.337 365.936,299.833C366.457,295.975 367.098,292.119 367.264,288.23C367.427,284.406 367.788,280.481 366.92,276.753C366.412,274.569 361.068,274.508 360.121,274C353.881,270.655 348.067,266.57 341.969,262.973C339.025,261.236 336.367,258.59 333,258C331.142,257.675 329.601,259.636 327.932,260.515C324.6,262.27 321.189,263.899 318,265.902C314.697,267.976 313.286,271.279 308.78,271.352C304.728,271.419 302.013,267.922 299,266.066C292.53,262.08 285.983,258.211 279.326,254.546C276.716,253.109 273.692,253.74 273.091,249.722C272.129,243.288 272.023,236.74 272.017,230.235L272,210.971L275.25,209.045C278.421,207.165 290.097,203.331 293.94,199.35C299.508,193.582 296.756,182.325 297,176.5C297.153,172.848 297.749,169.225 297.928,165.574C298.539,153.142 290.434,152.325 279.75,147.454C277.331,146.351 273.491,142.937 271.1,142.514C268.111,141.986 268.641,148.222 268.55,151.257C268.294,159.855 273.173,170.454 267.167,178.285C265.983,179.829 263.749,180.147 262,181C260.525,181.72 259.141,183 257.5,183C255.859,183 254.419,181.825 253,181C241.055,174.06 247.043,160.996 246.668,149.396C246.554,145.839 245.487,141.934 241.5,144.309"/>
    </g>
</svg>
