<?xml version="1.0" encoding="UTF-8" standalone="no"?>
<svg
   xmlns:dc="http://purl.org/dc/elements/1.1/"
   xmlns:cc="http://creativecommons.org/ns#"
   xmlns:rdf="http://www.w3.org/1999/02/22-rdf-syntax-ns#"
   xmlns:svg="http://www.w3.org/2000/svg"
   xmlns="http://www.w3.org/2000/svg"
   id="svg8"
   version="1.1"
   focusable="false"
   preserveAspectRatio="xMidYMid meet"
   fit=""
   width="100%"
   viewBox="0 0 24 24"
   height="100%"
   fill-rule="evenodd"
   fill="currentColor">
  <metadata
     id="metadata14">
    <rdf:RDF>
      <cc:Work
         rdf:about="">
        <dc:format>image/svg+xml</dc:format>
        <dc:type
           rdf:resource="http://purl.org/dc/dcmitype/StillImage" />
        <dc:title></dc:title>
      </cc:Work>
    </rdf:RDF>
  </metadata>
  <defs
     id="defs12" />
  <path
     id="path2"
     d="M 7 2 L 2 7 L 2 17 L 7 22 L 12 22 L 9.5 19 L 8.25 19 L 5 15.75 L 5 8.25 L 8.25 5 L 9.5 5 L 12 2 L 7 2 z M 14.5 2 L 12 5 L 15.75 5 L 19 8.25 L 19 15.75 L 15.75 19 L 12 19 L 14.5 22 L 17 22 L 22 17 L 22 7 L 17 2 L 14.5 2 z M 9.5 7 L 7 9.5 L 7 14.5 L 9.5 17 L 12 17 L 9.5 14.5 L 12.003906 11.996094 L 9.5039062 9.4960938 L 12 7 L 9.5 7 z M 14.5 7 L 12 9.5 L 14.503906 12.003906 L 12.003906 14.503906 L 14.5 17 L 17 14.5 L 17 9.5 L 14.5 7 z " />
</svg>
