<svg xmlns="http://www.w3.org/2000/svg" viewBox="0 0 24 24">
  <path d="M 6.7988281 1 C 6.0008281 1 5.3476094 1.6472656 5.3496094 2.4472656 L 5.3457031 2.4472656 L 5.3457031 3.8984375 L 22 3.8984375 L 22 2.4472656 C 22 1.6422656 21.350781 1 20.550781 1 L 6.7988281 1 z M 2.4492188 5.3457031 C 1.6522188 5.3457031 1 5.9949219 1 6.7949219 L 1 8.2402344 L 5.3457031 8.2402344 L 5.3457031 8.2421875 L 5.3457031 22.724609 L 8.2421875 22.724609 L 8.2421875 8.2402344 L 17.660156 8.2402344 L 17.660156 6.7929688 C 17.660156 5.9879688 17.010938 5.3457031 16.210938 5.3457031 L 8.2421875 5.3457031 L 8.2402344 5.3457031 L 5.3457031 5.3457031 L 2.4492188 5.3457031 z M 19.103516 5.3457031 L 19.111328 8.2421875 L 20.550781 8.2421875 L 20.550781 5.3457031 L 19.103516 5.3457031 z M 20.552734 5.3457031 L 20.552734 8.2421875 L 22 8.2421875 L 22 5.3457031 L 20.552734 5.3457031 z M 1 9.6894531 L 1 12.587891 L 2.4472656 12.587891 L 3.8964844 12.587891 L 3.8964844 9.6894531 L 2.4472656 9.6894531 L 1 9.6894531 z M 9.6894531 9.6894531 L 9.6894531 12.587891 L 11.138672 12.587891 L 12.585938 12.587891 L 12.585938 9.6894531 L 11.138672 9.6894531 L 9.6894531 9.6894531 z M 14.759766 9.6894531 L 14.759766 12.587891 L 16.207031 12.587891 L 17.654297 12.587891 L 17.654297 9.6894531 L 16.207031 9.6894531 L 14.759766 9.6894531 z M 19.103516 9.6894531 L 19.111328 12.587891 L 20.550781 12.587891 L 20.550781 9.6894531 L 19.103516 9.6894531 z M 20.552734 9.6894531 L 20.552734 12.587891 L 22 12.587891 L 22 9.6894531 L 20.552734 9.6894531 z M 1 14.759766 L 1 17.65625 L 2.4472656 17.65625 L 3.8964844 17.65625 L 3.8964844 14.759766 L 2.4472656 14.759766 L 1 14.759766 z M 9.6894531 14.759766 L 9.6894531 17.65625 L 11.138672 17.65625 L 12.585938 17.65625 L 12.585938 14.759766 L 11.138672 14.759766 L 9.6894531 14.759766 z M 14.759766 14.759766 L 14.759766 17.65625 L 16.207031 17.65625 L 17.654297 17.65625 L 17.654297 14.759766 L 16.207031 14.759766 L 14.759766 14.759766 z M 19.103516 14.759766 L 19.111328 17.65625 L 20.550781 17.65625 L 20.550781 14.759766 L 19.103516 14.759766 z M 20.552734 14.759766 L 20.552734 17.654297 C 21.357734 17.654297 22 17.007031 22 16.207031 L 22 14.759766 L 20.552734 14.759766 z M 1 19.828125 L 1 21.275391 C 1 22.080391 1.6472656 22.724609 2.4472656 22.724609 L 3.8964844 22.724609 L 3.8964844 19.828125 L 2.4472656 19.828125 L 1 19.828125 z M 9.6894531 19.828125 L 9.6894531 22.724609 L 11.138672 22.724609 L 12.585938 22.724609 L 12.585938 19.828125 L 11.138672 19.828125 L 9.6894531 19.828125 z M 14.759766 19.828125 L 14.759766 22.724609 L 16.207031 22.724609 C 17.012031 22.724609 17.654297 22.075391 17.654297 21.275391 L 17.654297 19.828125 L 16.207031 19.828125 L 14.759766 19.828125 z " />
</svg>
