<svg xmlns="http://www.w3.org/2000/svg" viewBox="0 0 24 24">
  <path d="M 3.7226562 4 C 3.3226563 4 3 4.34925 3 4.78125 L 3 17.21875 C 3 17.65075 3.3236562 18 3.7226562 18 L 10 18 L 10 20 L 9.1425781 20 C 8.5115781 20 8 20.448 8 21 L 16 21 C 16 20.448 15.487422 20 14.857422 20 L 14 20 L 14 18 L 20.277344 18 C 20.677344 18 21 17.65075 21 17.21875 L 21 4.78125 C 21 4.34925 20.676344 4 20.277344 4 L 3.7226562 4 z M 5 6 L 19 6 L 19 16 L 5 16 L 5 6 z M 14.316406 7.4492188 L 11.142578 10.976562 L 10.539062 10.316406 L 10.546875 10.308594 L 9.5292969 9.2011719 L 6 13.076172 L 6 15.292969 L 9.4804688 11.476562 L 10.398438 12.484375 L 11.140625 13.296875 L 12.199219 12.134766 L 15.408203 8.6542969 L 14.316406 7.4492188 z M 15.408203 8.6542969 L 14.34375 9.8203125 L 15.408203 10.974609 L 15.408203 10.970703 L 18 13.824219 L 18 11.576172 L 15.408203 8.6679688 L 15.408203 8.6542969 z M 10.521484 10.335938 L 10.398438 10.476562 L 10.398438 10.470703 L 10.521484 10.335938 z " />
</svg>
