<?xml version="1.0" encoding="UTF-8" standalone="no"?>
<svg
   xmlns:dc="http://purl.org/dc/elements/1.1/"
   xmlns:cc="http://creativecommons.org/ns#"
   xmlns:rdf="http://www.w3.org/1999/02/22-rdf-syntax-ns#"
   xmlns:svg="http://www.w3.org/2000/svg"
   xmlns="http://www.w3.org/2000/svg"
   id="svg38"
   version="1.1"
   focusable="false"
   preserveAspectRatio="xMidYMid meet"
   fit=""
   width="100%"
   viewBox="0 0 24 24"
   height="100%"
   fill-rule="evenodd"
   fill="currentColor">
  <metadata
     id="metadata44">
    <rdf:RDF>
      <cc:Work
         rdf:about="">
        <dc:format>image/svg+xml</dc:format>
        <dc:type
           rdf:resource="http://purl.org/dc/dcmitype/StillImage" />
        <dc:title></dc:title>
      </cc:Work>
    </rdf:RDF>
  </metadata>
  <defs
     id="defs42" />
  <path
     id="path2"
     d="M 3 6 L 3 11 L 8 11 L 8 6 L 3 6 z M 9 6 L 9 11 L 14 11 L 14 6 L 9 6 z M 15 6 L 15 11 L 20 11 L 20 6 L 15 6 z M 10 7 L 13 7 L 13 10 L 10 10 L 10 7 z M 16 7 L 19 7 L 19 10 L 16 10 L 16 7 z M 3 12 L 3 17 L 8 17 L 8 12 L 3 12 z M 9 12 L 9 17 L 14 17 L 14 12 L 9 12 z M 15 12 L 15 17 L 20 17 L 20 12 L 15 12 z M 4 13 L 7 13 L 7 16 L 4 16 L 4 13 z " />
</svg>
