<?xml version="1.0" encoding="UTF-8" standalone="no"?>
<svg
   xmlns:dc="http://purl.org/dc/elements/1.1/"
   xmlns:cc="http://creativecommons.org/ns#"
   xmlns:rdf="http://www.w3.org/1999/02/22-rdf-syntax-ns#"
   xmlns:svg="http://www.w3.org/2000/svg"
   xmlns="http://www.w3.org/2000/svg"
   id="svg8"
   version="1.1"
   focusable="false"
   preserveAspectRatio="xMidYMid meet"
   fit=""
   width="100%"
   viewBox="0 0 24 24"
   height="100%"
   fill-rule="evenodd"
   fill="currentColor">
  <metadata
     id="metadata14">
    <rdf:RDF>
      <cc:Work
         rdf:about="">
        <dc:format>image/svg+xml</dc:format>
        <dc:type
           rdf:resource="http://purl.org/dc/dcmitype/StillImage" />
        <dc:title></dc:title>
      </cc:Work>
    </rdf:RDF>
  </metadata>
  <defs
     id="defs12" />
  <path
     id="path2"
     d="M 6 3 L 6 5 L 3 5 L 3 7 L 6 7 L 6 9 L 3 9 L 3 11 L 6 11 L 6 13 L 3 13 L 3 15 L 6 15 L 6 17 L 3 17 L 3 19 L 6 19 L 6 21 L 11 21 L 18 21 L 18 19 L 20 19 L 21 19 L 21 17 L 18 17 L 18 15 L 20 15 L 21 15 L 21 13 L 18 13 L 18 11 L 20 11 L 21 11 L 21 9 L 18 9 L 18 7 L 20 7 L 21 7 L 21 5 L 18 5 L 18 3 L 13 3 L 6 3 z M 13 6 L 13 11 L 16 11 L 11 18 L 11 13 L 8 13 L 13 6 z " />
</svg>
