<svg xmlns="http://www.w3.org/2000/svg" viewBox="0 0 24 24">
  <path d="M 4.5195312 3 C 3.6795312 3 3 3.6795313 3 4.5195312 L 3 10.599609 A 0.76 0.76 0 0 0 3 10.630859 L 3 11.359375 L 9.0800781 11.359375 A 0.76 0.76 0 0 0 9.0800781 9.8398438 L 4.5195312 9.8398438 L 4.5195312 4.5195312 L 9.0800781 4.5195312 A 0.76 0.76 0 0 0 9.0800781 3 L 4.5195312 3 z M 11.34375 3 L 11.34375 6.34375 L 8 6.34375 L 8 8.015625 L 11.34375 8.015625 L 11.34375 11.359375 L 13.015625 11.359375 L 13.015625 8.015625 L 16.359375 8.015625 L 16.359375 6.34375 L 13.015625 6.34375 L 13.015625 3 L 11.34375 3 z M 15.160156 3 A 0.76 0.76 0 1 0 15.160156 4.5195312 L 19.720703 4.5195312 L 19.720703 9.8398438 L 15.160156 9.8398438 A 0.76 0.76 0 0 0 15.160156 11.359375 L 21.240234 11.359375 L 21.240234 10.630859 A 0.76 0.76 0 0 0 21.240234 10.599609 L 21.240234 9.8398438 L 21.240234 4.5195312 C 21.240234 3.6795313 20.560703 3 19.720703 3 L 15.160156 3 z M 4.7109375 12.880859 C 3.7669375 12.880859 3 13.645844 3 14.589844 L 3 21.144531 A 0.855 0.855 0 0 0 3.7597656 21.994141 L 3.7597656 22 L 20.480469 22 A 0.76 0.76 0 0 0 21.238281 21.195312 A 0.855 0.855 0 0 0 21.240234 21.144531 L 21.240234 14.589844 A 1.71 1.71 0 0 0 19.529297 12.880859 L 15.230469 12.880859 A 0.83 0.83 0 0 0 15.230469 14.537109 L 19.529297 14.537109 L 19.529297 20.480469 L 4.7109375 20.480469 L 4.7109375 14.537109 L 9.0097656 14.537109 A 0.83 0.83 0 1 0 9.0097656 12.880859 L 4.7109375 12.880859 z M 12.15625 12.880859 A 1.1402097 1.1402097 0 0 0 11.333984 13.214844 A 1.1402097 1.1402097 0 1 0 12.945312 14.826172 A 1.1402097 1.1402097 0 0 0 12.15625 12.880859 z M 8.0761719 16.681641 A 1.1402097 1.1402097 0 0 0 7.3339844 18.626953 A 1.1402097 1.1402097 0 1 0 8.9472656 17.013672 A 1.1402097 1.1402097 0 0 0 8.0761719 16.681641 z M 12.076172 16.681641 A 1.1402097 1.1402097 0 0 0 11.333984 18.626953 A 1.1402097 1.1402097 0 1 0 12.947266 17.013672 A 1.1402097 1.1402097 0 0 0 12.076172 16.681641 z M 16.076172 16.681641 A 1.1402097 1.1402097 0 0 0 15.333984 18.626953 A 1.1402097 1.1402097 0 1 0 16.947266 17.013672 A 1.1402097 1.1402097 0 0 0 16.076172 16.681641 z " />
</svg>
