<svg xmlns="http://www.w3.org/2000/svg" viewBox="0 0 24 24">
  <path d="M 2.6992188 5.3007812 C 2.2992188 5.3007812 2 5.6 2 6 L 2 12.800781 L 5.5 12.800781 L 7.9003906 9.5996094 C 8.0003906 9.4996094 8.0992188 9.4003906 8.1992188 9.4003906 C 8.2992187 9.4003906 8.4996094 9.4 8.5996094 9.5 L 10.699219 11.199219 L 13.5 8.3007812 C 13.6 8.2007813 13.700391 8.0996094 13.900391 8.0996094 C 14.100391 8.0996094 14.200781 8.2007813 14.300781 8.3007812 L 18.599609 12.800781 L 22 12.800781 L 22 6 C 22 5.6 21.700781 5.3007813 21.300781 5.3007812 L 2.6992188 5.3007812 z M 14 9.5 L 11.300781 12.400391 C 11.100781 12.600391 10.8 12.6 10.5 12.5 L 8.4003906 10.800781 L 6.1992188 13.699219 C 6.0992188 13.799219 5.9007813 13.900391 5.8007812 13.900391 L 2 13.900391 L 2 15.599609 C 2 15.999609 2.2992187 16.300391 2.6992188 16.400391 L 10.800781 16.400391 L 10.800781 18.199219 L 9 18.199219 C 8.8 18.199219 8.6992188 18.3 8.6992188 18.5 C 8.6992188 18.7 8.8 18.800781 9 18.800781 L 15 18.800781 C 15.2 18.800781 15.300781 18.7 15.300781 18.5 C 15.300781 18.3 15.2 18.199219 15 18.199219 L 13.099609 18.199219 L 13.099609 16.400391 L 21.199219 16.400391 C 21.599219 16.400391 21.900391 16.099609 21.900391 15.599609 L 21.900391 13.900391 L 18.5 13.900391 C 18.3 13.900391 18.199609 13.799219 18.099609 13.699219 L 14 9.5 z " />
</svg>
