<?xml version="1.0" encoding="UTF-8" standalone="no"?>
<svg
   xmlns:dc="http://purl.org/dc/elements/1.1/"
   xmlns:cc="http://creativecommons.org/ns#"
   xmlns:rdf="http://www.w3.org/1999/02/22-rdf-syntax-ns#"
   xmlns:svg="http://www.w3.org/2000/svg"
   xmlns="http://www.w3.org/2000/svg"
   id="svg10"
   version="1.1"
   focusable="false"
   preserveAspectRatio="xMidYMid meet"
   fit=""
   width="100%"
   viewBox="0 0 24 24"
   height="100%"
   fill-rule="evenodd"
   fill="currentColor">
  <metadata
     id="metadata16">
    <rdf:RDF>
      <cc:Work
         rdf:about="">
        <dc:format>image/svg+xml</dc:format>
        <dc:type
           rdf:resource="http://purl.org/dc/dcmitype/StillImage" />
        <dc:title></dc:title>
      </cc:Work>
    </rdf:RDF>
  </metadata>
  <defs
     id="defs14" />
  <path
     id="path2"
     d="M 11 3 A 8 8 0 0 0 11 19 A 8 8 0 0 0 15.785156 17.400391 A 0.37 0.37 0 0 0 15.882812 17.689453 L 19.070312 20.869141 A 0.38 0.38 0 0 0 19.607422 20.869141 L 20.886719 19.589844 A 0.38 0.38 0 0 0 20.886719 19.048828 L 20.890625 19.072266 L 17.699219 15.884766 A 0.363 0.363 0 0 0 17.398438 15.789062 A 8 8 0 0 0 11 3 z M 11 5 A 6 6 0 0 1 11 17 A 6 6 0 0 1 11 5 z M 10 9 L 10 14.933594 C 10.34 14.973594 10.687922 15 11.044922 15 C 11.370922 15 11.688 14.976406 12 14.941406 L 12 9 L 10 9 z M 7 11 L 7 12.921875 C 7.25 13.791875 8.176 14.401484 9 14.771484 L 9 11 L 7 11 z M 13.007812 12 L 13.007812 14.699219 C 13.843813 14.326219 14.625813 13.874609 15.007812 12.849609 L 15.007812 12 L 13.007812 12 z " />
</svg>
