<svg xmlns="http://www.w3.org/2000/svg" viewBox="0 0 24 24">
  <path d="M 10.990234 0 L 10.990234 9.8320312 A 2 2 0 0 0 10.789062 9.8203125 A 2 2 0 0 0 10.789062 13.820312 A 2 2 0 0 0 10.990234 13.810547 L 10.990234 23.929688 L 13 23.929688 L 13 20.400391 L 15.779297 20.400391 C 15.939297 20.400391 16.060547 20.189922 16.060547 19.919922 L 16.060547 16.550781 C 16.070547 16.290781 15.939297 16.070312 15.779297 16.070312 L 13 16.070312 L 13 14.080078 L 22.859375 14.080078 C 23.229375 14.080078 23.529297 13.869609 23.529297 13.599609 L 23.529297 10.230469 C 23.529297 10.000469 23.229375 9.75 22.859375 9.75 L 13 9.75 L 13 7.7597656 L 17.689453 7.7597656 A 0.43 0.43 0 0 0 18.050781 7.2792969 L 18.050781 3.9199219 C 18.080781 3.6899219 17.919453 3.4754531 17.689453 3.4394531 L 13 3.4394531 L 13 0 L 10.990234 0 z M 7.3105469 3.5800781 A 2 2 0 0 0 7.3105469 7.5800781 A 2 2 0 0 0 7.3105469 3.5800781 z M 7.3105469 4.5292969 A 1.0900459 1.0900459 0 0 1 7.3300781 6.7109375 A 1.0900459 1.0900459 0 0 1 7.3105469 4.5292969 z M 3.7109375 9.8203125 A 2 2 0 0 0 3.7109375 13.820312 A 2 2 0 0 0 3.7109375 9.8203125 z M 3.7109375 10.769531 A 1.09 1.09 0 1 1 3.7109375 12.949219 A 1.09 1.09 0 0 1 3.7109375 10.769531 z M 10.787109 10.769531 L 10.789062 10.769531 A 1.09 1.09 0 0 1 10.990234 10.789062 L 10.990234 12.929688 A 1.09 1.09 0 0 1 9.6992188 11.859375 C 9.6992188 11.258041 10.186028 10.77061 10.787109 10.769531 z M 7.3105469 16.169922 A 2 2 0 0 0 7.3105469 20.169922 A 2 2 0 0 0 7.3105469 16.169922 z M 7.3105469 17.119141 A 1.09 1.09 0 1 1 7.3105469 19.300781 A 1.09 1.09 0 0 1 7.3105469 17.119141 z " />
</svg>
