<svg version="1.1" width="515" height="515" xmlns="http://www.w3.org/2000/svg"><g><path d="M230.000 121.500 C 230.000 123.056,230.567 124.000,231.500 124.000 C 232.500 124.000,233.000 125.000,233.000 127.000 C 233.000 129.000,233.500 130.000,234.500 130.000 C 235.500 130.000,236.000 131.000,236.000 133.000 C 236.000 135.000,236.500 136.000,237.500 136.000 C 238.325 136.000,239.000 136.675,239.000 137.500 C 239.000 138.500,240.000 139.000,242.000 139.000 C 243.650 139.000,245.000 139.513,245.000 140.140 C 245.000 141.821,248.171 143.932,250.750 143.968 C 252.069 143.987,253.000 144.621,253.000 145.500 C 253.000 146.500,254.000 147.000,256.000 147.000 C 258.000 147.000,259.000 147.500,259.000 148.500 C 259.000 149.500,260.000 150.000,262.000 150.000 C 264.000 150.000,265.000 150.500,265.000 151.500 C 265.000 152.433,265.944 153.000,267.500 153.000 C 269.056 153.000,270.000 153.567,270.000 154.500 C 270.000 155.325,270.675 156.000,271.500 156.000 C 272.325 156.000,273.000 156.675,273.000 157.500 C 273.000 158.500,274.000 159.000,276.000 159.000 C 278.000 159.000,279.000 159.500,279.000 160.500 C 279.000 161.325,279.627 162.000,280.393 162.000 C 281.159 162.000,282.045 162.675,282.362 163.500 C 282.678 164.325,284.076 165.000,285.469 165.000 C 286.861 165.000,288.000 165.450,288.000 166.000 C 288.000 166.550,289.125 167.000,290.500 167.000 C 292.056 167.000,293.000 167.567,293.000 168.500 C 293.000 169.500,294.000 170.000,296.000 170.000 C 298.000 170.000,299.000 170.500,299.000 171.500 C 299.000 172.500,300.000 173.000,302.000 173.000 C 304.000 173.000,305.000 173.500,305.000 174.500 C 305.000 175.325,305.675 176.000,306.500 176.000 C 307.325 176.000,308.000 176.675,308.000 177.500 C 308.000 178.433,308.944 179.000,310.500 179.000 C 312.056 179.000,313.000 179.567,313.000 180.500 C 313.000 181.325,313.675 182.000,314.500 182.000 C 315.809 182.000,316.000 187.278,316.000 223.500 C 316.000 258.306,316.225 265.000,317.393 265.000 C 318.159 265.000,319.045 265.675,319.362 266.500 C 320.168 268.602,325.253 268.382,327.847 266.133 C 330.247 264.051,331.374 173.000,329.000 173.000 C 328.450 173.000,328.000 172.325,328.000 171.500 C 328.000 170.500,327.000 170.000,325.000 170.000 C 323.000 170.000,322.000 169.500,322.000 168.500 C 322.000 167.675,321.325 167.000,320.500 167.000 C 319.675 167.000,319.000 166.550,319.000 166.000 C 319.000 165.450,317.650 165.000,316.000 165.000 C 314.000 165.000,313.000 164.500,313.000 163.500 C 313.000 162.567,312.056 162.000,310.500 162.000 C 308.944 162.000,308.000 161.433,308.000 160.500 C 308.000 159.500,307.000 159.000,305.000 159.000 C 303.000 159.000,302.000 158.500,302.000 157.500 C 302.000 156.675,301.325 156.000,300.500 156.000 C 299.675 156.000,299.000 155.325,299.000 154.500 C 299.000 153.500,298.000 153.000,296.000 153.000 C 294.000 153.000,293.000 152.500,293.000 151.500 C 293.000 150.675,292.116 150.000,291.034 150.000 C 289.953 150.000,287.688 148.650,286.000 147.000 C 284.312 145.350,282.047 144.000,280.966 144.000 C 279.884 144.000,279.000 143.550,279.000 143.000 C 279.000 142.450,277.650 142.000,276.000 142.000 C 274.000 142.000,273.000 141.500,273.000 140.500 C 273.000 139.667,272.111 139.000,271.000 139.000 C 268.917 139.000,265.000 135.736,265.000 134.000 C 265.000 133.450,263.650 133.000,262.000 133.000 C 260.000 133.000,259.000 132.500,259.000 131.500 C 259.000 130.500,258.000 130.000,256.000 130.000 C 254.000 130.000,253.000 129.500,253.000 128.500 C 253.000 127.675,252.325 127.000,251.500 127.000 C 250.675 127.000,250.000 126.325,250.000 125.500 C 250.000 124.567,249.056 124.000,247.500 124.000 C 246.125 124.000,245.000 123.550,245.000 123.000 C 245.000 122.450,243.650 122.000,242.000 122.000 C 240.000 122.000,239.000 121.500,239.000 120.500 C 239.000 119.389,237.833 119.000,234.500 119.000 C 230.367 119.000,230.000 119.204,230.000 121.500 M222.000 148.500 C 222.000 149.500,221.000 150.000,219.000 150.000 C 217.000 150.000,216.000 150.500,216.000 151.500 C 216.000 152.325,215.325 153.000,214.500 153.000 C 213.675 153.000,213.000 153.675,213.000 154.500 C 213.000 155.500,212.000 156.000,210.000 156.000 C 208.000 156.000,207.000 156.500,207.000 157.500 C 207.000 158.433,206.056 159.000,204.500 159.000 C 202.944 159.000,202.000 159.567,202.000 160.500 C 202.000 161.500,201.000 162.000,199.000 162.000 C 197.000 162.000,196.000 162.500,196.000 163.500 C 196.000 164.325,195.325 165.000,194.500 165.000 C 193.675 165.000,193.000 165.450,193.000 166.000 C 193.000 166.550,191.861 167.000,190.469 167.000 C 189.076 167.000,187.678 167.675,187.362 168.500 C 187.045 169.325,185.709 170.000,184.393 170.000 C 182.933 170.000,182.000 170.585,182.000 171.500 C 182.000 172.325,181.325 173.000,180.500 173.000 C 179.675 173.000,179.000 173.675,179.000 174.500 C 179.000 175.500,178.000 176.000,176.000 176.000 C 174.000 176.000,173.000 176.500,173.000 177.500 C 173.000 178.500,172.000 179.000,170.000 179.000 C 168.000 179.000,167.000 179.500,167.000 180.500 C 167.000 181.433,166.056 182.000,164.500 182.000 C 162.944 182.000,162.000 182.567,162.000 183.500 C 162.000 184.500,161.000 185.000,159.000 185.000 C 157.350 185.000,156.000 185.450,156.000 186.000 C 156.000 186.550,155.325 187.000,154.500 187.000 C 153.675 187.000,153.000 187.675,153.000 188.500 C 153.000 189.500,152.000 190.000,150.000 190.000 C 148.350 190.000,147.000 190.445,147.000 190.989 C 147.000 192.943,143.510 196.000,141.278 196.000 C 139.920 196.000,139.000 196.606,139.000 197.500 C 139.000 198.500,138.000 199.000,136.000 199.000 C 134.000 199.000,133.000 199.500,133.000 200.500 C 133.000 201.500,132.000 202.000,130.000 202.000 C 127.467 202.000,127.000 202.389,127.000 204.500 L 127.000 207.000 140.000 207.000 C 148.000 207.000,153.000 206.615,153.000 206.000 C 153.000 205.450,154.350 205.000,156.000 205.000 C 158.000 205.000,159.000 204.500,159.000 203.500 C 159.000 202.675,159.675 202.000,160.500 202.000 C 161.325 202.000,162.000 201.325,162.000 200.500 C 162.000 199.567,162.944 199.000,164.500 199.000 C 166.056 199.000,167.000 198.433,167.000 197.500 C 167.000 196.675,167.675 196.000,168.500 196.000 C 169.325 196.000,170.000 195.325,170.000 194.500 C 170.000 193.500,171.000 193.000,173.000 193.000 C 175.000 193.000,176.000 192.500,176.000 191.500 C 176.000 190.500,177.000 190.000,179.000 190.000 C 181.000 190.000,182.000 189.500,182.000 188.500 C 182.000 187.567,182.944 187.000,184.500 187.000 C 185.875 187.000,187.000 186.550,187.000 186.000 C 187.000 185.450,188.350 185.000,190.000 185.000 C 192.000 185.000,193.000 184.500,193.000 183.500 C 193.000 182.500,194.000 182.000,196.000 182.000 C 198.000 182.000,199.000 181.500,199.000 180.500 C 199.000 179.675,199.675 179.000,200.500 179.000 C 201.325 179.000,202.000 178.325,202.000 177.500 C 202.000 176.567,202.944 176.000,204.500 176.000 C 206.056 176.000,207.000 175.433,207.000 174.500 C 207.000 173.675,207.675 173.000,208.500 173.000 C 209.325 173.000,210.000 172.325,210.000 171.500 C 210.000 170.500,211.000 170.000,213.000 170.000 C 215.000 170.000,216.000 169.500,216.000 168.500 C 216.000 167.500,217.000 167.000,219.000 167.000 C 220.650 167.000,222.000 166.550,222.000 166.000 C 222.000 165.450,223.800 165.000,226.000 165.000 C 228.200 165.000,230.000 165.450,230.000 166.000 C 230.000 166.550,231.350 167.000,233.000 167.000 C 235.000 167.000,236.000 167.500,236.000 168.500 C 236.000 169.500,237.000 170.000,239.000 170.000 C 241.000 170.000,242.000 170.500,242.000 171.500 C 242.000 172.333,242.889 173.000,244.000 173.000 C 246.083 173.000,250.000 176.264,250.000 178.000 C 250.000 178.550,251.350 179.000,253.000 179.000 C 255.000 179.000,256.000 179.500,256.000 180.500 C 256.000 181.500,257.000 182.000,259.000 182.000 C 261.000 182.000,262.000 182.500,262.000 183.500 C 262.000 184.444,262.952 185.000,264.571 185.000 C 267.208 185.000,270.000 187.020,270.000 188.929 C 270.000 189.518,271.350 190.000,273.000 190.000 C 275.000 190.000,276.000 190.500,276.000 191.500 C 276.000 192.500,277.000 193.000,279.000 193.000 C 281.000 193.000,282.000 193.500,282.000 194.500 C 282.000 195.500,283.000 196.000,285.000 196.000 C 287.000 196.000,288.000 196.500,288.000 197.500 C 288.000 198.325,288.450 199.000,289.000 199.000 C 289.550 199.000,290.000 199.675,290.000 200.500 C 290.000 201.500,291.000 202.000,293.000 202.000 C 295.000 202.000,296.000 202.500,296.000 203.500 C 296.000 204.500,297.000 205.000,299.000 205.000 L 302.000 205.000 302.000 196.000 L 302.000 187.000 299.000 187.000 C 297.350 187.000,296.000 186.550,296.000 186.000 C 296.000 185.450,294.650 185.000,293.000 185.000 C 291.000 185.000,290.000 184.500,290.000 183.500 C 290.000 182.567,289.056 182.000,287.500 182.000 C 285.944 182.000,285.000 181.433,285.000 180.500 C 285.000 179.675,284.325 179.000,283.500 179.000 C 282.675 179.000,282.000 178.325,282.000 177.500 C 282.000 176.500,281.000 176.000,279.000 176.000 C 277.000 176.000,276.000 175.500,276.000 174.500 C 276.000 173.500,275.000 173.000,273.000 173.000 C 271.350 173.000,270.000 172.550,270.000 172.000 C 270.000 170.264,266.083 167.000,264.000 167.000 C 262.900 167.000,262.000 166.550,262.000 166.000 C 262.000 165.450,261.325 165.000,260.500 165.000 C 259.675 165.000,259.000 164.325,259.000 163.500 C 259.000 162.389,257.833 162.000,254.500 162.000 C 251.167 162.000,250.000 161.611,250.000 160.500 C 250.000 159.567,249.056 159.000,247.500 159.000 C 245.944 159.000,245.000 158.433,245.000 157.500 C 245.000 156.675,244.325 156.000,243.500 156.000 C 242.675 156.000,242.000 155.325,242.000 154.500 C 242.000 153.500,241.000 153.000,239.000 153.000 C 237.000 153.000,236.000 152.500,236.000 151.500 C 236.000 150.675,235.325 150.000,234.500 150.000 C 233.675 150.000,233.000 149.325,233.000 148.500 C 233.000 147.348,231.722 147.000,227.500 147.000 C 223.278 147.000,222.000 147.348,222.000 148.500 M353.000 167.071 C 353.000 168.211,352.325 169.818,351.500 170.643 C 350.675 171.468,350.000 173.011,350.000 174.071 C 350.000 175.132,349.550 176.000,349.000 176.000 C 348.348 176.000,348.000 191.500,348.000 220.500 C 348.000 259.389,347.811 265.000,346.500 265.000 C 345.567 265.000,345.000 265.944,345.000 267.500 C 345.000 269.056,344.433 270.000,343.500 270.000 C 342.675 270.000,342.000 270.675,342.000 271.500 C 342.000 272.325,341.325 273.000,340.500 273.000 C 339.675 273.000,339.000 273.675,339.000 274.500 C 339.000 275.500,338.000 276.000,336.000 276.000 C 334.000 276.000,333.000 276.500,333.000 277.500 C 333.000 278.325,332.325 279.000,331.500 279.000 C 330.675 279.000,330.000 279.675,330.000 280.500 C 330.000 281.433,329.056 282.000,327.500 282.000 C 325.944 282.000,325.000 282.567,325.000 283.500 C 325.000 284.500,324.000 285.000,322.000 285.000 C 320.000 285.000,319.000 285.500,319.000 286.500 C 319.000 287.454,318.041 288.000,316.365 288.000 C 314.838 288.000,312.754 289.052,311.412 290.500 C 310.138 291.875,308.174 293.000,307.048 293.000 C 305.894 293.000,305.000 293.655,305.000 294.500 C 305.000 295.500,304.000 296.000,302.000 296.000 C 300.000 296.000,299.000 296.500,299.000 297.500 C 299.000 298.500,298.000 299.000,296.000 299.000 C 294.000 299.000,293.000 299.500,293.000 300.500 C 293.000 301.325,292.325 302.000,291.500 302.000 C 290.675 302.000,290.000 302.675,290.000 303.500 C 290.000 304.433,289.056 305.000,287.500 305.000 C 285.944 305.000,285.000 305.567,285.000 306.500 C 285.000 307.500,284.000 308.000,282.000 308.000 C 280.350 308.000,279.000 308.450,279.000 309.000 C 279.000 309.550,277.650 310.000,276.000 310.000 C 273.111 310.000,273.000 310.167,273.000 314.500 C 273.000 318.833,273.111 319.000,276.000 319.000 C 278.000 319.000,279.000 319.500,279.000 320.500 C 279.000 321.611,280.167 322.000,283.500 322.000 C 286.833 322.000,288.000 321.611,288.000 320.500 C 288.000 319.567,288.944 319.000,290.500 319.000 C 292.056 319.000,293.000 318.433,293.000 317.500 C 293.000 316.500,294.000 316.000,296.000 316.000 C 298.000 316.000,299.000 315.500,299.000 314.500 C 299.000 313.500,300.000 313.000,302.000 313.000 C 304.000 313.000,305.000 312.500,305.000 311.500 C 305.000 310.567,305.944 310.000,307.500 310.000 C 308.875 310.000,310.000 309.550,310.000 309.000 C 310.000 308.450,310.675 308.000,311.500 308.000 C 312.325 308.000,313.000 307.325,313.000 306.500 C 313.000 305.500,314.000 305.000,316.000 305.000 C 318.000 305.000,319.000 304.500,319.000 303.500 C 319.000 302.500,320.000 302.000,322.000 302.000 C 324.000 302.000,325.000 301.500,325.000 300.500 C 325.000 299.675,325.675 299.000,326.500 299.000 C 327.325 299.000,328.000 298.325,328.000 297.500 C 328.000 296.567,328.944 296.000,330.500 296.000 C 332.056 296.000,333.000 295.433,333.000 294.500 C 333.000 293.500,334.000 293.000,336.000 293.000 C 338.000 293.000,339.000 292.500,339.000 291.500 C 339.000 290.546,339.959 290.000,341.635 290.000 C 343.162 290.000,345.246 288.948,346.588 287.500 C 347.862 286.125,349.826 285.000,350.952 285.000 C 352.106 285.000,353.000 284.345,353.000 283.500 C 353.000 282.500,354.000 282.000,356.000 282.000 C 358.667 282.000,359.000 281.667,359.000 279.000 C 359.000 277.000,359.500 276.000,360.500 276.000 C 361.500 276.000,362.000 275.000,362.000 273.000 C 362.000 271.000,361.500 270.000,360.500 270.000 C 359.186 270.000,359.000 263.500,359.000 217.500 L 359.000 165.000 356.000 165.000 C 353.632 165.000,353.000 165.437,353.000 167.071 M225.000 180.500 C 225.000 181.500,224.000 182.000,222.000 182.000 C 220.000 182.000,219.000 182.500,219.000 183.500 C 219.000 184.500,218.000 185.000,216.000 185.000 C 214.350 185.000,213.000 185.450,213.000 186.000 C 213.000 186.550,212.325 187.000,211.500 187.000 C 210.675 187.000,210.000 187.675,210.000 188.500 C 210.000 189.433,209.056 190.000,207.500 190.000 C 205.944 190.000,205.000 190.567,205.000 191.500 C 205.000 192.325,204.325 193.000,203.500 193.000 C 202.675 193.000,202.000 193.675,202.000 194.500 C 202.000 195.500,201.000 196.000,199.000 196.000 C 197.000 196.000,196.000 196.500,196.000 197.500 C 196.000 198.500,195.000 199.000,193.000 199.000 C 191.000 199.000,190.000 199.500,190.000 200.500 C 190.000 201.433,189.056 202.000,187.500 202.000 C 185.944 202.000,185.000 202.567,185.000 203.500 C 185.000 204.500,184.000 205.000,182.000 205.000 C 180.350 205.000,179.000 205.450,179.000 206.000 C 179.000 206.550,177.650 207.000,176.000 207.000 C 174.000 207.000,173.000 207.500,173.000 208.500 C 173.000 209.325,172.325 210.000,171.500 210.000 C 170.675 210.000,170.000 210.675,170.000 211.500 C 170.000 212.433,169.056 213.000,167.500 213.000 C 165.944 213.000,165.000 213.567,165.000 214.500 C 165.000 215.325,164.325 216.000,163.500 216.000 C 162.675 216.000,162.000 216.675,162.000 217.500 C 162.000 218.500,161.000 219.000,159.000 219.000 C 157.000 219.000,156.000 219.500,156.000 220.500 C 156.000 221.325,155.325 222.000,154.500 222.000 C 153.675 222.000,153.000 222.675,153.000 223.500 C 153.000 224.325,152.325 225.000,151.500 225.000 C 150.184 225.000,150.000 232.000,150.000 282.000 L 150.000 339.000 153.000 339.000 C 155.000 339.000,156.000 338.500,156.000 337.500 C 156.000 336.675,156.675 336.000,157.500 336.000 C 158.500 336.000,159.000 335.000,159.000 333.000 C 159.000 331.000,159.500 330.000,160.500 330.000 C 161.553 330.000,162.000 328.937,162.000 326.429 C 162.000 324.464,162.675 322.182,163.500 321.357 C 164.787 320.070,165.000 313.698,165.000 276.429 C 165.000 248.143,165.349 233.000,166.000 233.000 C 166.550 233.000,167.000 232.325,167.000 231.500 C 167.000 230.675,167.675 230.000,168.500 230.000 C 169.325 230.000,170.000 229.325,170.000 228.500 C 170.000 227.500,171.000 227.000,173.000 227.000 C 174.650 227.000,176.000 226.550,176.000 226.000 C 176.000 225.450,176.675 225.000,177.500 225.000 C 178.325 225.000,179.000 224.325,179.000 223.500 C 179.000 222.562,179.948 222.000,181.531 222.000 C 182.924 222.000,184.322 221.325,184.638 220.500 C 184.955 219.675,186.291 219.000,187.607 219.000 C 189.067 219.000,190.000 218.415,190.000 217.500 C 190.000 216.500,191.000 216.000,193.000 216.000 C 195.000 216.000,196.000 215.500,196.000 214.500 C 196.000 213.675,196.675 213.000,197.500 213.000 C 198.325 213.000,199.000 212.325,199.000 211.500 C 199.000 210.500,200.000 210.000,202.000 210.000 C 204.000 210.000,205.000 209.500,205.000 208.500 C 205.000 207.567,205.944 207.000,207.500 207.000 C 208.875 207.000,210.000 206.550,210.000 206.000 C 210.000 205.450,211.350 205.000,213.000 205.000 C 215.000 205.000,216.000 204.500,216.000 203.500 C 216.000 202.675,216.675 202.000,217.500 202.000 C 218.325 202.000,219.000 201.325,219.000 200.500 C 219.000 199.500,220.000 199.000,222.000 199.000 C 224.000 199.000,225.000 198.500,225.000 197.500 C 225.000 196.675,225.450 196.000,226.000 196.000 C 226.550 196.000,227.000 195.325,227.000 194.500 C 227.000 193.500,228.000 193.000,230.000 193.000 C 232.000 193.000,233.000 192.500,233.000 191.500 C 233.000 190.500,234.000 190.000,236.000 190.000 C 238.533 190.000,239.000 189.611,239.000 187.500 C 239.000 185.944,238.433 185.000,237.500 185.000 C 236.675 185.000,236.000 184.325,236.000 183.500 C 236.000 182.500,235.000 182.000,233.000 182.000 C 231.000 182.000,230.000 181.500,230.000 180.500 C 230.000 179.567,229.056 179.000,227.500 179.000 C 225.944 179.000,225.000 179.567,225.000 180.500 M247.362 200.500 C 247.045 201.325,245.709 202.000,244.393 202.000 C 242.933 202.000,242.000 202.585,242.000 203.500 C 242.000 204.500,241.000 205.000,239.000 205.000 C 237.350 205.000,236.000 205.450,236.000 206.000 C 236.000 206.550,235.325 207.000,234.500 207.000 C 233.675 207.000,233.000 207.675,233.000 208.500 C 233.000 209.438,232.052 210.000,230.469 210.000 C 229.076 210.000,227.678 210.675,227.362 211.500 C 227.045 212.325,225.709 213.000,224.393 213.000 C 222.933 213.000,222.000 213.585,222.000 214.500 C 222.000 215.325,221.325 216.000,220.500 216.000 C 219.675 216.000,219.000 216.675,219.000 217.500 C 219.000 218.500,218.000 219.000,216.000 219.000 C 214.000 219.000,213.000 219.500,213.000 220.500 C 213.000 221.500,212.000 222.000,210.000 222.000 C 207.030 222.000,207.000 222.056,207.000 227.500 C 207.000 232.944,207.030 233.000,210.000 233.000 C 212.000 233.000,213.000 233.500,213.000 234.500 C 213.000 235.325,213.675 236.000,214.500 236.000 C 215.325 236.000,216.000 236.675,216.000 237.500 C 216.000 238.500,217.000 239.000,219.000 239.000 C 221.000 239.000,222.000 239.500,222.000 240.500 C 222.000 241.325,222.675 242.000,223.500 242.000 C 224.325 242.000,225.000 242.675,225.000 243.500 C 225.000 244.433,225.944 245.000,227.500 245.000 C 228.875 245.000,230.000 245.450,230.000 246.000 C 230.000 246.550,231.350 247.000,233.000 247.000 C 235.000 247.000,236.000 247.500,236.000 248.500 C 236.000 249.500,237.000 250.000,239.000 250.000 C 241.000 250.000,242.000 250.500,242.000 251.500 C 242.000 252.333,242.889 253.000,244.000 253.000 C 246.083 253.000,250.000 256.264,250.000 258.000 C 250.000 258.550,252.025 259.000,254.500 259.000 C 257.833 259.000,259.000 258.611,259.000 257.500 C 259.000 256.500,260.000 256.000,262.000 256.000 C 264.000 256.000,265.000 255.500,265.000 254.500 C 265.000 253.567,265.944 253.000,267.500 253.000 C 269.056 253.000,270.000 252.433,270.000 251.500 C 270.000 250.675,270.675 250.000,271.500 250.000 C 272.325 250.000,273.000 249.325,273.000 248.500 C 273.000 247.500,274.000 247.000,276.000 247.000 C 277.650 247.000,279.000 246.550,279.000 246.000 C 279.000 245.450,280.350 245.000,282.000 245.000 C 284.000 245.000,285.000 244.500,285.000 243.500 C 285.000 242.567,285.944 242.000,287.500 242.000 C 289.056 242.000,290.000 241.433,290.000 240.500 C 290.000 239.675,290.675 239.000,291.500 239.000 C 292.325 239.000,293.000 238.325,293.000 237.500 C 293.000 236.500,294.000 236.000,296.000 236.000 C 298.000 236.000,299.000 235.500,299.000 234.500 C 299.000 233.675,299.675 233.000,300.500 233.000 C 301.325 233.000,302.000 232.325,302.000 231.500 C 302.000 230.675,302.675 230.000,303.500 230.000 C 304.433 230.000,305.000 229.056,305.000 227.500 C 305.000 225.944,304.433 225.000,303.500 225.000 C 302.675 225.000,302.000 224.325,302.000 223.500 C 302.000 222.500,301.000 222.000,299.000 222.000 C 297.000 222.000,296.000 221.500,296.000 220.500 C 296.000 219.675,295.325 219.000,294.500 219.000 C 293.675 219.000,293.000 218.325,293.000 217.500 C 293.000 216.585,292.067 216.000,290.607 216.000 C 289.291 216.000,287.955 215.325,287.638 214.500 C 287.322 213.675,285.924 213.000,284.531 213.000 C 282.948 213.000,282.000 212.438,282.000 211.500 C 282.000 210.675,281.325 210.000,280.500 210.000 C 279.675 210.000,279.000 209.325,279.000 208.500 C 279.000 207.500,278.000 207.000,276.000 207.000 C 274.350 207.000,273.000 206.550,273.000 206.000 C 273.000 205.450,271.923 205.000,270.607 205.000 C 269.291 205.000,267.955 204.325,267.638 203.500 C 267.322 202.675,265.924 202.000,264.531 202.000 C 262.948 202.000,262.000 201.438,262.000 200.500 C 262.000 199.309,260.552 199.000,254.969 199.000 C 249.641 199.000,247.798 199.363,247.362 200.500 M187.000 234.500 C 187.000 235.433,186.056 236.000,184.500 236.000 C 182.944 236.000,182.000 236.567,182.000 237.500 C 182.000 238.325,181.325 239.000,180.500 239.000 C 179.189 239.000,179.000 244.722,179.000 284.500 L 179.000 330.000 182.000 330.000 C 184.000 330.000,185.000 330.500,185.000 331.500 C 185.000 332.433,185.944 333.000,187.500 333.000 C 189.056 333.000,190.000 333.567,190.000 334.500 C 190.000 335.325,190.675 336.000,191.500 336.000 C 192.325 336.000,193.000 336.675,193.000 337.500 C 193.000 338.500,194.000 339.000,196.000 339.000 C 198.000 339.000,199.000 339.500,199.000 340.500 C 199.000 341.500,200.000 342.000,202.000 342.000 C 203.650 342.000,205.000 342.445,205.000 342.989 C 205.000 344.943,208.490 348.000,210.722 348.000 C 211.975 348.000,213.000 348.450,213.000 349.000 C 213.000 349.550,214.350 350.000,216.000 350.000 C 218.000 350.000,219.000 350.500,219.000 351.500 C 219.000 352.500,220.000 353.000,222.000 353.000 C 224.000 353.000,225.000 353.500,225.000 354.500 C 225.000 355.433,225.944 356.000,227.500 356.000 C 229.056 356.000,230.000 356.567,230.000 357.500 C 230.000 358.325,230.675 359.000,231.500 359.000 C 232.325 359.000,233.000 359.675,233.000 360.500 C 233.000 361.500,234.000 362.000,236.000 362.000 C 238.000 362.000,239.000 362.500,239.000 363.500 C 239.000 364.325,239.675 365.000,240.500 365.000 C 241.325 365.000,242.000 365.675,242.000 366.500 C 242.000 367.413,242.931 368.000,244.378 368.000 C 245.685 368.000,247.315 368.675,248.000 369.500 C 248.685 370.325,250.090 371.000,251.122 371.000 C 252.155 371.000,253.000 371.450,253.000 372.000 C 253.000 372.550,254.350 373.000,256.000 373.000 C 258.000 373.000,259.000 373.500,259.000 374.500 C 259.000 375.500,260.000 376.000,262.000 376.000 C 264.000 376.000,265.000 376.500,265.000 377.500 C 265.000 378.325,265.675 379.000,266.500 379.000 C 267.325 379.000,268.000 379.675,268.000 380.500 C 268.000 381.433,268.944 382.000,270.500 382.000 C 272.056 382.000,273.000 382.567,273.000 383.500 C 273.000 384.500,274.000 385.000,276.000 385.000 C 278.889 385.000,279.000 384.833,279.000 380.500 C 279.000 377.167,278.611 376.000,277.500 376.000 C 276.567 376.000,276.000 375.056,276.000 373.500 C 276.000 371.944,275.433 371.000,274.500 371.000 C 273.675 371.000,273.000 370.325,273.000 369.500 C 273.000 368.675,272.325 368.000,271.500 368.000 C 270.675 368.000,270.000 367.555,270.000 367.011 C 270.000 365.057,266.510 362.000,264.278 362.000 C 262.920 362.000,262.000 361.394,262.000 360.500 C 262.000 359.675,261.325 359.000,260.500 359.000 C 259.675 359.000,259.000 358.325,259.000 357.500 C 259.000 356.500,258.000 356.000,256.000 356.000 C 254.000 356.000,253.000 355.500,253.000 354.500 C 253.000 353.520,252.019 353.000,250.169 353.000 C 248.173 353.000,246.943 352.263,246.000 350.500 C 245.057 348.737,243.827 348.000,241.831 348.000 C 239.981 348.000,239.000 347.480,239.000 346.500 C 239.000 345.500,238.000 345.000,236.000 345.000 C 234.000 345.000,233.000 344.500,233.000 343.500 C 233.000 342.500,232.000 342.000,230.000 342.000 C 228.000 342.000,227.000 341.500,227.000 340.500 C 227.000 339.675,226.550 339.000,226.000 339.000 C 225.450 339.000,225.000 338.325,225.000 337.500 C 225.000 336.500,224.000 336.000,222.000 336.000 C 220.000 336.000,219.000 335.500,219.000 334.500 C 219.000 333.500,218.000 333.000,216.000 333.000 C 214.000 333.000,213.000 332.500,213.000 331.500 C 213.000 330.675,212.325 330.000,211.500 330.000 C 210.675 330.000,210.000 329.550,210.000 329.000 C 210.000 328.450,208.875 328.000,207.500 328.000 C 205.944 328.000,205.000 327.433,205.000 326.500 C 205.000 325.500,204.000 325.000,202.000 325.000 C 200.000 325.000,199.000 324.500,199.000 323.500 C 199.000 322.675,198.325 322.000,197.500 322.000 C 196.675 322.000,196.000 321.325,196.000 320.500 C 196.000 319.675,195.325 319.000,194.500 319.000 C 193.190 319.000,193.000 313.556,193.000 276.000 L 193.000 233.000 190.000 233.000 C 188.000 233.000,187.000 233.500,187.000 234.500 M208.250 247.662 C 206.379 248.417,206.606 256.000,208.500 256.000 C 209.325 256.000,210.000 256.675,210.000 257.500 C 210.000 258.325,210.675 259.000,211.500 259.000 C 212.325 259.000,213.000 259.675,213.000 260.500 C 213.000 261.500,214.000 262.000,216.000 262.000 C 218.000 262.000,219.000 262.500,219.000 263.500 C 219.000 264.325,219.627 265.000,220.393 265.000 C 221.159 265.000,222.045 265.675,222.362 266.500 C 222.678 267.325,223.851 268.000,224.969 268.000 C 226.086 268.000,227.000 268.450,227.000 269.000 C 227.000 269.550,228.350 270.000,230.000 270.000 C 232.000 270.000,233.000 270.500,233.000 271.500 C 233.000 272.500,234.000 273.000,236.000 273.000 C 238.000 273.000,239.000 273.500,239.000 274.500 C 239.000 275.500,240.000 276.000,242.000 276.000 C 244.000 276.000,245.000 276.500,245.000 277.500 C 245.000 278.433,245.944 279.000,247.500 279.000 C 249.056 279.000,250.000 279.567,250.000 280.500 C 250.000 281.667,251.333 282.000,256.000 282.000 C 260.667 282.000,262.000 281.667,262.000 280.500 C 262.000 279.606,262.920 279.000,264.278 279.000 C 266.510 279.000,270.000 275.943,270.000 273.989 C 270.000 273.445,271.350 273.000,273.000 273.000 C 275.000 273.000,276.000 272.500,276.000 271.500 C 276.000 270.500,277.000 270.000,279.000 270.000 C 280.650 270.000,282.000 269.550,282.000 269.000 C 282.000 268.450,282.868 268.000,283.929 268.000 C 284.989 268.000,286.532 267.325,287.357 266.500 C 288.182 265.675,289.789 265.000,290.929 265.000 C 292.103 265.000,293.000 264.351,293.000 263.500 C 293.000 262.675,293.675 262.000,294.500 262.000 C 295.325 262.000,296.000 261.325,296.000 260.500 C 296.000 259.500,297.000 259.000,299.000 259.000 C 301.667 259.000,302.000 258.667,302.000 256.000 C 302.000 254.000,302.500 253.000,303.500 253.000 C 305.886 253.000,305.394 248.260,302.928 247.477 C 300.415 246.680,296.000 247.662,296.000 249.019 C 296.000 249.559,295.325 250.000,294.500 250.000 C 293.675 250.000,293.000 250.675,293.000 251.500 C 293.000 252.433,292.056 253.000,290.500 253.000 C 288.944 253.000,288.000 253.567,288.000 254.500 C 288.000 255.325,287.325 256.000,286.500 256.000 C 285.675 256.000,285.000 256.675,285.000 257.500 C 285.000 258.500,284.000 259.000,282.000 259.000 C 280.000 259.000,279.000 259.500,279.000 260.500 C 279.000 261.500,278.000 262.000,276.000 262.000 C 274.000 262.000,273.000 262.500,273.000 263.500 C 273.000 264.433,272.056 265.000,270.500 265.000 C 268.944 265.000,268.000 265.567,268.000 266.500 C 268.000 267.500,267.000 268.000,265.000 268.000 C 263.350 268.000,262.000 268.450,262.000 269.000 C 262.000 269.550,261.325 270.000,260.500 270.000 C 259.675 270.000,259.000 270.675,259.000 271.500 C 259.000 272.500,258.000 273.000,256.000 273.000 C 254.000 273.000,253.000 272.500,253.000 271.500 C 253.000 270.500,252.000 270.000,250.000 270.000 C 248.350 270.000,247.000 269.550,247.000 269.000 C 247.000 268.450,245.875 268.000,244.500 268.000 C 242.944 268.000,242.000 267.433,242.000 266.500 C 242.000 265.675,241.325 265.000,240.500 265.000 C 239.675 265.000,239.000 264.325,239.000 263.500 C 239.000 262.500,238.000 262.000,236.000 262.000 C 234.000 262.000,233.000 261.500,233.000 260.500 C 233.000 259.500,232.000 259.000,230.000 259.000 C 228.000 259.000,227.000 258.500,227.000 257.500 C 227.000 256.567,226.056 256.000,224.500 256.000 C 222.944 256.000,222.000 255.433,222.000 254.500 C 222.000 253.675,221.325 253.000,220.500 253.000 C 219.675 253.000,219.000 252.325,219.000 251.500 C 219.000 250.512,218.012 250.000,216.107 250.000 C 214.458 250.000,212.966 249.355,212.638 248.500 C 212.062 246.998,210.592 246.717,208.250 247.662 M207.000 277.500 C 207.000 281.833,207.111 282.000,210.000 282.000 C 212.000 282.000,213.000 282.500,213.000 283.500 C 213.000 284.325,213.675 285.000,214.500 285.000 C 215.325 285.000,216.000 285.675,216.000 286.500 C 216.000 287.500,217.000 288.000,219.000 288.000 C 220.650 288.000,222.000 288.450,222.000 289.000 C 222.000 289.550,223.125 290.000,224.500 290.000 C 226.056 290.000,227.000 290.567,227.000 291.500 C 227.000 292.500,228.000 293.000,230.000 293.000 C 232.000 293.000,233.000 293.500,233.000 294.500 C 233.000 295.325,233.675 296.000,234.500 296.000 C 235.325 296.000,236.000 296.675,236.000 297.500 C 236.000 298.500,237.000 299.000,239.000 299.000 C 241.000 299.000,242.000 299.500,242.000 300.500 C 242.000 301.408,242.928 302.000,244.350 302.000 C 245.784 302.000,247.597 303.170,249.000 305.000 C 251.606 308.401,259.000 309.510,259.000 306.500 C 259.000 305.500,260.000 305.000,262.000 305.000 C 263.650 305.000,265.000 304.555,265.000 304.011 C 265.000 302.057,268.490 299.000,270.722 299.000 C 272.080 299.000,273.000 298.394,273.000 297.500 C 273.000 296.500,274.000 296.000,276.000 296.000 C 278.000 296.000,279.000 295.500,279.000 294.500 C 279.000 293.500,280.000 293.000,282.000 293.000 C 284.000 293.000,285.000 292.500,285.000 291.500 C 285.000 290.675,285.675 290.000,286.500 290.000 C 287.325 290.000,288.000 289.550,288.000 289.000 C 288.000 288.450,289.125 288.000,290.500 288.000 C 292.056 288.000,293.000 287.433,293.000 286.500 C 293.000 285.500,294.000 285.000,296.000 285.000 C 298.000 285.000,299.000 284.500,299.000 283.500 C 299.000 282.675,299.675 282.000,300.500 282.000 C 301.611 282.000,302.000 280.833,302.000 277.500 L 302.000 273.000 297.500 273.000 C 294.167 273.000,293.000 273.389,293.000 274.500 C 293.000 275.325,292.325 276.000,291.500 276.000 C 290.675 276.000,290.000 276.675,290.000 277.500 C 290.000 278.433,289.056 279.000,287.500 279.000 C 285.944 279.000,285.000 279.567,285.000 280.500 C 285.000 281.500,284.000 282.000,282.000 282.000 C 280.000 282.000,279.000 282.500,279.000 283.500 C 279.000 284.500,278.000 285.000,276.000 285.000 C 274.000 285.000,273.000 285.500,273.000 286.500 C 273.000 287.325,272.325 288.000,271.500 288.000 C 270.675 288.000,270.000 288.450,270.000 289.000 C 270.000 289.550,268.875 290.000,267.500 290.000 C 265.944 290.000,265.000 290.567,265.000 291.500 C 265.000 292.325,264.325 293.000,263.500 293.000 C 262.675 293.000,262.000 293.675,262.000 294.500 C 262.000 295.667,260.667 296.000,256.000 296.000 C 251.333 296.000,250.000 295.667,250.000 294.500 C 250.000 293.655,249.106 293.000,247.952 293.000 C 246.826 293.000,244.862 291.875,243.588 290.500 C 242.246 289.052,240.162 288.000,238.635 288.000 C 236.959 288.000,236.000 287.454,236.000 286.500 C 236.000 285.500,235.000 285.000,233.000 285.000 C 231.000 285.000,230.000 284.500,230.000 283.500 C 230.000 282.567,229.056 282.000,227.500 282.000 C 225.944 282.000,225.000 281.433,225.000 280.500 C 225.000 279.675,224.325 279.000,223.500 279.000 C 222.675 279.000,222.000 278.325,222.000 277.500 C 222.000 276.500,221.000 276.000,219.000 276.000 C 217.000 276.000,216.000 275.500,216.000 274.500 C 216.000 273.389,214.833 273.000,211.500 273.000 L 207.000 273.000 207.000 277.500 M356.000 297.500 C 356.000 298.394,355.080 299.000,353.722 299.000 C 351.490 299.000,348.000 302.057,348.000 304.011 C 348.000 304.555,346.650 305.000,345.000 305.000 C 343.000 305.000,342.000 305.500,342.000 306.500 C 342.000 307.500,341.000 308.000,339.000 308.000 C 337.350 308.000,336.000 308.450,336.000 309.000 C 336.000 309.550,334.975 310.000,333.722 310.000 C 331.490 310.000,328.000 313.057,328.000 315.011 C 328.000 315.555,326.650 316.000,325.000 316.000 C 323.000 316.000,322.000 316.500,322.000 317.500 C 322.000 318.500,321.000 319.000,319.000 319.000 C 317.000 319.000,316.000 319.500,316.000 320.500 C 316.000 321.325,315.325 322.000,314.500 322.000 C 313.675 322.000,313.000 322.675,313.000 323.500 C 313.000 324.433,312.056 325.000,310.500 325.000 C 308.944 325.000,308.000 325.567,308.000 326.500 C 308.000 327.500,307.000 328.000,305.000 328.000 C 303.350 328.000,302.000 328.450,302.000 329.000 C 302.000 329.550,300.650 330.000,299.000 330.000 C 297.000 330.000,296.000 330.500,296.000 331.500 C 296.000 332.325,295.325 333.000,294.500 333.000 C 293.675 333.000,293.000 333.675,293.000 334.500 C 293.000 335.433,292.056 336.000,290.500 336.000 C 288.944 336.000,288.000 336.567,288.000 337.500 C 288.000 338.500,287.000 339.000,285.000 339.000 C 283.000 339.000,282.000 338.500,282.000 337.500 C 282.000 336.500,281.000 336.000,279.000 336.000 C 277.000 336.000,276.000 335.500,276.000 334.500 C 276.000 333.500,275.000 333.000,273.000 333.000 C 271.000 333.000,270.000 332.500,270.000 331.500 C 270.000 330.567,269.056 330.000,267.500 330.000 C 266.125 330.000,265.000 329.550,265.000 329.000 C 265.000 328.450,264.325 328.000,263.500 328.000 C 262.675 328.000,262.000 327.325,262.000 326.500 C 262.000 325.500,261.000 325.000,259.000 325.000 C 257.000 325.000,256.000 324.500,256.000 323.500 C 256.000 322.500,255.000 322.000,253.000 322.000 C 251.000 322.000,250.000 321.500,250.000 320.500 C 250.000 319.567,249.056 319.000,247.500 319.000 C 245.944 319.000,245.000 318.433,245.000 317.500 C 245.000 316.675,244.325 316.000,243.500 316.000 C 242.675 316.000,242.000 315.325,242.000 314.500 C 242.000 313.500,241.000 313.000,239.000 313.000 C 237.000 313.000,236.000 312.500,236.000 311.500 C 236.000 310.675,235.325 310.000,234.500 310.000 C 233.675 310.000,233.000 309.550,233.000 309.000 C 233.000 308.450,231.650 308.000,230.000 308.000 C 228.000 308.000,227.000 307.500,227.000 306.500 C 227.000 305.567,226.056 305.000,224.500 305.000 C 222.944 305.000,222.000 304.433,222.000 303.500 C 222.000 302.500,221.000 302.000,219.000 302.000 C 217.000 302.000,216.000 301.500,216.000 300.500 C 216.000 299.389,214.833 299.000,211.500 299.000 L 207.000 299.000 207.000 306.000 L 207.000 313.000 210.000 313.000 C 212.000 313.000,213.000 313.500,213.000 314.500 C 213.000 315.325,213.675 316.000,214.500 316.000 C 215.325 316.000,216.000 316.675,216.000 317.500 C 216.000 318.500,217.000 319.000,219.000 319.000 C 221.000 319.000,222.000 319.500,222.000 320.500 C 222.000 321.333,222.889 322.000,224.000 322.000 C 226.083 322.000,230.000 325.264,230.000 327.000 C 230.000 327.550,231.350 328.000,233.000 328.000 C 234.650 328.000,236.000 328.450,236.000 329.000 C 236.000 329.550,237.350 330.000,239.000 330.000 C 241.000 330.000,242.000 330.500,242.000 331.500 C 242.000 332.333,242.889 333.000,244.000 333.000 C 246.083 333.000,250.000 336.264,250.000 338.000 C 250.000 338.550,251.350 339.000,253.000 339.000 C 255.000 339.000,256.000 339.500,256.000 340.500 C 256.000 341.500,257.000 342.000,259.000 342.000 C 261.000 342.000,262.000 342.500,262.000 343.500 C 262.000 344.325,262.675 345.000,263.500 345.000 C 264.325 345.000,265.000 345.675,265.000 346.500 C 265.000 347.433,265.944 348.000,267.500 348.000 C 268.875 348.000,270.000 348.450,270.000 349.000 C 270.000 349.550,271.350 350.000,273.000 350.000 C 275.000 350.000,276.000 350.500,276.000 351.500 C 276.000 352.690,277.444 353.000,283.000 353.000 C 288.556 353.000,290.000 352.690,290.000 351.500 C 290.000 350.500,291.000 350.000,293.000 350.000 C 294.650 350.000,296.000 349.550,296.000 349.000 C 296.000 348.450,297.350 348.000,299.000 348.000 C 301.000 348.000,302.000 347.500,302.000 346.500 C 302.000 345.500,303.000 345.000,305.000 345.000 C 307.000 345.000,308.000 344.500,308.000 343.500 C 308.000 342.675,308.450 342.000,309.000 342.000 C 309.550 342.000,310.000 341.325,310.000 340.500 C 310.000 339.500,311.000 339.000,313.000 339.000 C 315.000 339.000,316.000 338.500,316.000 337.500 C 316.000 336.500,317.000 336.000,319.000 336.000 C 321.000 336.000,322.000 335.500,322.000 334.500 C 322.000 333.500,323.000 333.000,325.000 333.000 C 327.000 333.000,328.000 332.500,328.000 331.500 C 328.000 330.567,328.944 330.000,330.500 330.000 C 331.875 330.000,333.000 329.550,333.000 329.000 C 333.000 328.450,333.675 328.000,334.500 328.000 C 335.325 328.000,336.000 327.325,336.000 326.500 C 336.000 325.500,337.000 325.000,339.000 325.000 C 341.000 325.000,342.000 324.500,342.000 323.500 C 342.000 322.675,342.675 322.000,343.500 322.000 C 344.325 322.000,345.000 321.325,345.000 320.500 C 345.000 319.567,345.944 319.000,347.500 319.000 C 349.056 319.000,350.000 318.433,350.000 317.500 C 350.000 316.500,351.000 316.000,353.000 316.000 C 355.000 316.000,356.000 315.500,356.000 314.500 C 356.000 313.500,357.000 313.000,359.000 313.000 C 361.000 313.000,362.000 312.500,362.000 311.500 C 362.000 310.675,362.675 310.000,363.500 310.000 C 364.325 310.000,365.000 309.550,365.000 309.000 C 365.000 308.450,366.077 308.000,367.393 308.000 C 368.709 308.000,370.045 307.325,370.362 306.500 C 370.678 305.675,372.076 305.000,373.469 305.000 C 375.052 305.000,376.000 304.438,376.000 303.500 C 376.000 302.500,377.000 302.000,379.000 302.000 C 381.667 302.000,382.000 301.667,382.000 299.000 L 382.000 296.000 369.000 296.000 C 358.111 296.000,356.000 296.244,356.000 297.500 " stroke="none" fill-rule="evenodd"></path></g></svg>