<svg xmlns="http://www.w3.org/2000/svg" viewBox="0 0 24 24">
  <path d="M 20.589844 0.921875 A 2.492 2.492 0 0 0 20.566406 0.92382812 L 13.845703 0.92382812 L 13.845703 5.5371094 L 18.462891 5.5371094 L 18.462891 10.154297 L 23.076172 10.154297 L 23.076172 3.4335938 A 2.49 2.49 0 0 0 22.412109 1.5878906 A 2.492 2.492 0 0 0 20.589844 0.921875 z M 3.4492188 3.6699219 A 2.446 2.446 0 0 0 0.921875 6.4628906 L 0.921875 20.308594 A 2.825 2.825 0 0 0 1.6152344 22.384766 C 2.1852344 22.884766 2.9344063 23.134172 3.6914062 23.076172 L 18.462891 23.076172 A 2.852 2.852 0 0 0 20.537109 22.384766 C 21.037109 21.814766 21.287469 21.065594 21.230469 20.308594 L 21.230469 13.845703 L 16.615234 13.845703 L 16.615234 18.462891 L 5.5371094 18.462891 L 5.5371094 8.3085938 L 10.154297 8.3085938 L 10.154297 3.6914062 L 3.6914062 3.6914062 A 2.446 2.446 0 0 0 3.4492188 3.6699219 z " />
</svg>
