<?xml version="1.0" encoding="UTF-8" standalone="no"?>
<svg
   xmlns:dc="http://purl.org/dc/elements/1.1/"
   xmlns:cc="http://creativecommons.org/ns#"
   xmlns:rdf="http://www.w3.org/1999/02/22-rdf-syntax-ns#"
   xmlns:svg="http://www.w3.org/2000/svg"
   xmlns="http://www.w3.org/2000/svg"
   id="svg8"
   version="1.1"
   focusable="false"
   preserveAspectRatio="xMidYMid meet"
   fit=""
   width="100%"
   viewBox="0 0 24 24"
   height="100%"
   fill-rule="evenodd"
   fill="currentColor">
  <metadata
     id="metadata14">
    <rdf:RDF>
      <cc:Work
         rdf:about="">
        <dc:format>image/svg+xml</dc:format>
        <dc:type
           rdf:resource="http://purl.org/dc/dcmitype/StillImage" />
        <dc:title></dc:title>
      </cc:Work>
    </rdf:RDF>
  </metadata>
  <defs
     id="defs12" />
  <path
     id="path2"
     d="M 2 2 L 2 6 L 5.1152344 6 L 8 8.8847656 L 8 11 L 6 11 L 6 10 L 2 10 L 2 14 L 6 14 L 6 13 L 8 13 L 8 15.222656 L 5.2226562 18 L 2 18 L 2 22 L 6 22 L 6 18.990234 L 8.9902344 16 L 15.115234 16 L 18 18.884766 L 18 22 L 22 22 L 22 18 L 18.884766 18 L 16 15.115234 L 16 13 L 18 13 L 18 14 L 22 14 L 22 10 L 18 10 L 18 11 L 16 11 L 16 8.8847656 L 18.884766 6 L 22 6 L 22 2 L 18 2 L 18 5.1152344 L 15.115234 8 L 8.8847656 8 L 6 5.1152344 L 6 2 L 2 2 z " />
</svg>
