<svg xmlns="http://www.w3.org/2000/svg" viewBox="0 0 24 24">
  <path d="M 9.5195312 2.0605469 L 9.5195312 6.3691406 L 5.1992188 6.3691406 L 5.1992188 12.648438 A 5.29 5.29 0 0 1 7.0292969 12.566406 L 7.0292969 8.2070312 L 11.349609 8.2070312 L 11.349609 3.8925781 L 20.228516 3.8925781 L 20.228516 12.757812 L 15.908203 12.757812 L 15.908203 17.072266 L 11.548828 17.072266 A 5.243 5.243 0 0 1 11.466797 18.900391 L 17.742188 18.900391 L 17.742188 14.585938 L 22.0625 14.585938 L 22.0625 2.0625 L 9.5195312 2.0605469 z M 18.447266 5.6738281 L 13.142578 5.6757812 L 13.142578 9.9882812 L 8.8222656 9.9902344 L 8.8222656 13.128906 A 5.256 5.256 0 0 1 10.976562 15.289062 L 14.126953 15.289062 L 14.126953 10.972656 L 18.447266 10.972656 L 18.447266 5.6738281 z M 6.34375 13.507812 A 4.28 4.28 0 0 0 2.0625 17.785156 A 4.28 4.28 0 0 0 6.34375 22.0625 A 4.28 4.28 0 0 0 10.626953 17.785156 A 4.28 4.28 0 0 0 6.34375 13.507812 z M 6.3105469 15.373047 L 8.8046875 17.859375 L 6.3105469 20.369141 L 5.6601562 19.71875 L 7.0390625 18.339844 L 3.9296875 18.339844 L 3.9296875 17.412109 L 7.0371094 17.412109 L 5.6601562 16.027344 L 6.3105469 15.373047 z " />
</svg>
