<svg xmlns="http://www.w3.org/2000/svg" viewBox="0 0 24 24">
  <path d="M 11.701172 1 C 11.451172 1 11.271172 1.156625 11.201172 1.390625 L 10.251953 3.9863281 A 10.164 10.164 0 0 1 11.962891 3.8398438 L 11.970703 3.8398438 L 11.980469 3.8398438 C 12.59123 3.8409097 13.187296 3.8970001 13.761719 4 L 12.660156 1.390625 C 12.580156 1.156625 12.410156 1 12.160156 1 L 11.701172 1 z M 12 5.5 A 7.5 7.5 0 0 0 12 20.5 A 7.5 7.5 0 0 0 12 5.5 z M 12 7.6679688 A 5.332 5.332 0 0 1 12 18.332031 A 5.332 5.332 0 0 1 12 7.6679688 z M 14.761719 9.9394531 L 13.964844 10.736328 A 3 3 0 0 0 12 10 A 3 3 0 0 0 9.7363281 14.964844 L 8.9433594 15.757812 A 4.11 4.11 0 0 0 12 17.123047 A 4.125 4.125 0 0 0 16.125 13 A 4.11 4.11 0 0 0 14.761719 9.9394531 z M 21 11.160156 L 21 11.162109 C 21.11 11.754109 21.167969 12.368047 21.167969 12.998047 C 21.167969 13.438047 21.166609 13.688 21.099609 14 L 23.609375 14 A 0.587 0.587 0 0 0 24 13.441406 L 24 12.628906 C 24 12.368906 23.843375 12.199141 23.609375 12.119141 L 21 11.160156 z M 3 11.162109 L 0.390625 12.126953 C 0.156625 12.201953 7.4014868e-17 12.377859 0 12.630859 L 0 13.410156 C 0 13.663156 0.23089063 13.92 0.46289062 14 L 2.9023438 14 A 6.13 6.13 0 0 1 2.8320312 12.998047 C 2.8320312 12.368047 2.892 11.754109 3 11.162109 z M 12 11.5 A 1.5 1.5 0 0 1 12 14.5 A 1.5 1.5 0 0 1 12 11.5 z M 14.949219 12.46875 A 2.98 2.98 0 0 1 14.964844 12.556641 A 3 3 0 0 0 14.949219 12.46875 z M 14.982422 12.724609 A 2.98 2.98 0 0 1 14.996094 12.892578 A 3 3 0 0 0 14.982422 12.724609 z M 14.998047 12.929688 A 2.98 2.98 0 0 1 15 13 A 3 3 0 0 1 14.994141 13.111328 A 3 3 0 0 0 14.998047 12.929688 z M 14.986328 13.263672 A 3 3 0 0 1 14.972656 13.371094 A 3 3 0 0 0 14.986328 13.263672 z M 14.943359 13.570312 A 3 3 0 0 1 14.921875 13.662109 A 3 3 0 0 0 14.943359 13.570312 z M 14.873047 13.857422 A 3 3 0 0 1 14.839844 13.955078 A 3 3 0 0 0 14.873047 13.857422 z M 14.775391 14.136719 A 3 3 0 0 1 14.724609 14.248047 A 3 3 0 0 0 14.775391 14.136719 z M 14.648438 14.404297 A 3 3 0 0 1 14.574219 14.535156 A 3 3 0 0 0 14.648438 14.404297 z M 14.503906 14.648438 A 3 3 0 0 1 14.398438 14.796875 A 3 3 0 0 0 14.503906 14.648438 z M 14.328125 14.890625 A 3 3 0 0 1 14.210938 15.023438 A 3 3 0 0 0 14.328125 14.890625 z M 14.119141 15.119141 A 3 3 0 0 1 14.023438 15.210938 A 3 3 0 0 0 14.119141 15.119141 z M 13.890625 15.328125 A 3 3 0 0 1 13.796875 15.398438 A 3 3 0 0 0 13.890625 15.328125 z M 13.648438 15.503906 A 3 3 0 0 1 13.535156 15.574219 A 3 3 0 0 0 13.648438 15.503906 z M 13.404297 15.648438 A 3 3 0 0 1 13.248047 15.724609 A 3 3 0 0 0 13.404297 15.648438 z M 13.136719 15.775391 A 3 3 0 0 1 12.955078 15.839844 A 3 3 0 0 0 13.136719 15.775391 z M 11.09375 15.855469 A 3 3 0 0 0 11.166016 15.876953 A 2.98 2.98 0 0 1 11.09375 15.855469 z M 12.857422 15.873047 A 3 3 0 0 1 12.662109 15.921875 A 3 3 0 0 0 12.857422 15.873047 z M 11.367188 15.929688 A 3 3 0 0 0 11.457031 15.947266 A 2.98 2.98 0 0 1 11.367188 15.929688 z M 12.570312 15.943359 A 3 3 0 0 1 12.371094 15.972656 A 3 3 0 0 0 12.570312 15.943359 z M 11.669922 15.978516 A 3 3 0 0 0 11.755859 15.986328 A 2.98 2.98 0 0 1 11.669922 15.978516 z M 12.263672 15.986328 A 3 3 0 0 1 12 16 A 3 3 0 0 0 12.263672 15.986328 z " />
</svg>
