<?xml version="1.0" encoding="UTF-8" standalone="no"?>
<svg
   xmlns:dc="http://purl.org/dc/elements/1.1/"
   xmlns:cc="http://creativecommons.org/ns#"
   xmlns:rdf="http://www.w3.org/1999/02/22-rdf-syntax-ns#"
   xmlns:svg="http://www.w3.org/2000/svg"
   xmlns="http://www.w3.org/2000/svg"
   id="svg6"
   version="1.1"
   focusable="false"
   preserveAspectRatio="xMidYMid meet"
   fit=""
   width="100%"
   viewBox="0 0 24 24"
   height="100%"
   fill-rule="evenodd"
   fill="currentColor">
  <metadata
     id="metadata12">
    <rdf:RDF>
      <cc:Work
         rdf:about="">
        <dc:format>image/svg+xml</dc:format>
        <dc:type
           rdf:resource="http://purl.org/dc/dcmitype/StillImage" />
        <dc:title></dc:title>
      </cc:Work>
    </rdf:RDF>
  </metadata>
  <defs
     id="defs10" />
  <path
     id="path2"
     d="M 12 0.75 L 3 4.5 L 3 10.666016 C 3 16.216016 6.84 21.406016 12 22.666016 C 17.16 21.406016 21 16.216016 21 10.666016 L 21 4.5 L 12 0.75 z M 12 4.5800781 A 1.266 1.266 0 0 1 13.189453 6.2792969 L 13.201172 6.3007812 L 16.513672 9.6542969 L 16.515625 9.6542969 A 1.688 1.688 0 1 1 15.515625 11.925781 L 12 11.925781 L 8.484375 11.925781 C 8.435375 12.035781 8.3785938 12.140328 8.3085938 12.236328 L 11.578125 15.423828 L 11.578125 12.597656 L 12 12.597656 L 12.421875 12.597656 L 12.421875 15.451172 A 1.266 1.266 0 0 1 12 17.912109 A 1.266 1.266 0 0 1 10.824219 16.175781 L 7.4707031 12.851562 A 1.688 1.688 0 1 1 8.484375 10.574219 L 12 10.574219 L 15.515625 10.574219 C 15.559625 10.472219 15.613781 10.377109 15.675781 10.287109 L 12.435547 7.0429688 L 12.455078 7.0273438 L 12.421875 7.0390625 L 12.421875 9.9003906 L 12 9.9003906 L 11.578125 9.9003906 L 11.578125 7.0390625 A 1.266 1.266 0 0 1 12 4.5820312 L 12 4.5800781 z " />
</svg>
