<?xml version="1.0" encoding="UTF-8" standalone="no"?>
<svg
   xmlns:dc="http://purl.org/dc/elements/1.1/"
   xmlns:cc="http://creativecommons.org/ns#"
   xmlns:rdf="http://www.w3.org/1999/02/22-rdf-syntax-ns#"
   xmlns:svg="http://www.w3.org/2000/svg"
   xmlns="http://www.w3.org/2000/svg"
   id="svg8"
   version="1.1"
   focusable="false"
   preserveAspectRatio="xMidYMid meet"
   width="100%"
   height="100%"
   fit=""
   viewBox="0 0 24 24">
  <metadata
     id="metadata14">
    <rdf:RDF>
      <cc:Work
         rdf:about="">
        <dc:format>image/svg+xml</dc:format>
        <dc:type
           rdf:resource="http://purl.org/dc/dcmitype/StillImage" />
        <dc:title></dc:title>
      </cc:Work>
    </rdf:RDF>
  </metadata>
  <defs
     id="defs12" />
  <path
     id="path2"
     d="M 9.3808594 2.2695312 L 2.25 6.3808594 L 2.25 8.8808594 L 9.3808594 13 L 9.3808594 12.980469 L 16.789062 8.6992188 L 19.230469 8.6992188 L 19.230469 10.060547 L 21.740234 7.5507812 L 19.230469 5.0507812 L 19.230469 6.3691406 L 16.359375 6.3691406 L 15.130859 7.0898438 L 14.070312 7.6992188 L 11.349609 9.2695312 L 9.3652344 10.410156 L 4.6894531 7.6992188 L 9.3808594 4.9902344 L 12.539062 6.8203125 L 14.900391 5.4609375 L 9.3808594 2.2695312 z M 2.25 10.660156 L 2.25 13.25 L 9.3808594 17.359375 L 9.3808594 17.369141 L 16.779297 13.080078 L 18.460938 13.080078 L 18.460938 10.75 L 16.380859 10.75 L 9.3808594 14.75 L 9.3808594 14.779297 L 2.25 10.660156 z M 2.25 15 L 2.25 17.599609 L 9.3808594 21.720703 L 9.3808594 21.730469 L 16.380859 17.730469 L 16.380859 15.099609 L 9.3808594 19.099609 L 9.3808594 19.130859 L 2.25 15 z " />
</svg>
