<svg xmlns="http://www.w3.org/2000/svg" viewBox="0 0 24 24">
  <path d="M 12 3 L 5.0195312 6.4960938 L 5 6.4863281 L 5 9.1992188 L 12 12.707031 L 19 9.1992188 L 19 6.4863281 L 18.980469 6.4960938 L 12 3 z M 12 5.7128906 L 16.271484 7.8535156 L 12 9.9941406 L 7.7304688 7.8535156 L 12 5.7148438 L 12 5.7128906 z M 19 10.589844 L 12 14.099609 L 12 14.103516 L 5 10.595703 L 5 13.308594 L 12 16.818359 L 12 16.816406 L 19 13.308594 L 19 10.589844 z M 5 14.779297 L 5 17.492188 L 12 21 L 19 17.492188 L 19 14.779297 L 12 18.287109 L 5 14.779297 z " />
</svg>
