<svg xmlns="http://www.w3.org/2000/svg" viewBox="0 0 24 24">
  <path d="M 14.800781 3.9960938 C 14.793861 3.9960938 14.78815 3.999827 14.78125 4 L 14 4 L 7.6171875 4 A 1 1 0 0 0 7.609375 4 A 1 1 0 0 0 6.7226562 4.5527344 L 5.25 7.5 L 3.25 11.5 L 2 11.5 L 2 12.5 L 3.25 12.5 L 5.4863281 12.5 L 7.0507812 12.5 C 7.2905824 13.91607 8.5164127 15 10 15 C 11.655 15 13 13.655 13 12 C 13 10.345 11.655 9 10 9 C 8.5164127 9 7.2905824 10.08393 7.0507812 11.5 L 5.4863281 11.5 L 7.4863281 7.5 L 8.2363281 6 L 14 6 L 20 6 L 20 7.9960938 L 20.835938 7.9960938 L 20.835938 8 L 17 8 L 17 10 L 22 10 L 22 8.2773438 L 22.001953 8.2773438 L 22.001953 6.28125 L 22 6.28125 L 22 4.796875 C 22 4.353675 21.64242 3.9960877 21.199219 3.9960938 L 14.800781 3.9960938 z M 9.9550781 11 A 1 1 0 0 1 9.9707031 11 A 1 1 0 0 1 11 12 A 1 1 0 0 1 9.1347656 12.5 L 10 12.5 L 10 11.5 L 9.1367188 11.5 A 1 1 0 0 1 9.9550781 11 z M 14 11 L 14 13 L 22 13 L 22 11 L 14 11 z M 3.75 13.5 L 6.25 18.5 L 6.7226562 19.447266 A 1 1 0 0 0 7.6171875 20 L 14 20 L 14.78125 20 C 14.78815 20.000173 14.793861 20.003906 14.800781 20.003906 L 21.199219 20.003906 C 21.642419 20.003906 22 19.646325 22 19.203125 L 22 17.71875 L 22.001953 17.71875 L 22.001953 15.722656 L 22 15.722656 L 22 14 L 16 14 L 16 16 L 20.835938 16 L 20.835938 16.003906 L 20 16.003906 L 20 18 L 14 18 L 8.2363281 18 L 5.9863281 13.5 L 3.75 13.5 z " />
</svg>
