<svg xmlns="http://www.w3.org/2000/svg" viewBox="0 0 24 24">
  <path d="M 12.201172 2.015625 A 5.2 5.2 0 0 0 7.3164062 5.0585938 A 3.808 3.808 0 1 0 5.9257812 12.417969 L 6.1679688 12.417969 L 6.1679688 9.5996094 A 1.133 1.133 0 1 1 7.2167969 9.5996094 L 7.2167969 12.417969 L 11.40625 12.417969 L 11.40625 8.0078125 A 1.133 1.133 0 1 1 12.457031 8.0078125 L 12.457031 12.417969 L 16.675781 12.417969 L 16.675781 9.5996094 A 1.133 1.133 0 1 1 17.724609 9.5996094 L 17.724609 12.408203 L 17.974609 12.408203 A 3.8125 3.8125 0 0 0 17.974609 4.7832031 L 17.966797 4.7929688 C 17.552797 4.7929688 17.142 4.8591875 16.75 4.9921875 A 5.2 5.2 0 0 0 12.201172 2.015625 z M 12.457031 12.417969 L 11.408203 12.417969 L 11.408203 17.900391 A 2.058 2.058 0 1 0 12.457031 17.900391 L 12.457031 17.892578 L 12.457031 12.417969 z M 7.2167969 12.417969 L 6.1679688 12.417969 L 6.1679688 15.332031 A 2.058 2.058 0 1 0 8.75 17.316406 A 2 2 0 0 0 7.2167969 15.332031 L 7.2167969 12.417969 z M 16.675781 12.425781 L 16.675781 15.332031 A 2.058 2.058 0 1 0 17.724609 15.332031 L 17.724609 12.425781 L 16.675781 12.425781 z M 6.6503906 16.277344 A 1.008 1.008 0 0 1 7.6992188 17.283203 A 1.008 1.008 0 0 1 6.6914062 18.324219 L 6.6914062 18.292969 A 1.008 1.008 0 0 1 6.6503906 16.277344 z M 17.158203 16.308594 A 1.0085 1.0085 0 0 1 17.199219 16.308594 A 1.0085 1.0085 0 0 1 17.199219 18.324219 A 1.0085 1.0085 0 0 1 17.158203 16.308594 z M 11.894531 18.867188 A 1.008 1.008 0 0 1 12.943359 19.875 A 1.008 1.008 0 0 1 11.933594 20.892578 L 11.933594 20.882812 A 1.008 1.008 0 0 1 11.894531 18.867188 z " />
</svg>
