<svg version="1.1" width="515" height="515" xmlns="http://www.w3.org/2000/svg"><g><path d="M139.698 30.096 C 120.767 34.551,118.179 37.836,77.145 109.500 C -10.368 262.339,-0.350 242.599,0.182 261.157 C 0.637 276.989,-1.101 272.971,23.406 314.872 C 32.533 330.476,40.000 343.444,40.000 343.689 C 40.000 345.392,113.026 468.884,116.095 472.371 C 121.028 477.975,128.423 482.722,135.752 484.989 C 141.091 486.640,149.689 486.792,256.500 487.112 L 371.500 487.458 377.946 485.152 C 394.454 479.248,397.697 475.470,421.963 433.867 C 452.498 381.517,473.185 345.636,473.774 344.000 C 474.071 343.175,482.429 328.550,492.347 311.500 C 514.506 273.406,514.372 273.722,514.372 259.500 C 514.372 245.269,514.664 245.952,491.184 205.226 C 480.633 186.926,472.000 171.725,472.000 171.448 C 472.000 169.095,400.668 47.704,396.796 43.468 C 391.371 37.532,381.231 31.791,373.201 30.110 C 366.670 28.742,145.506 28.729,139.698 30.096 M286.824 156.655 C 300.946 164.715,312.950 171.823,313.500 172.452 C 314.517 173.613,333.798 184.761,342.000 188.929 C 350.659 193.330,359.529 198.822,361.506 201.007 C 363.450 203.154,363.500 204.671,363.500 261.082 L 363.500 318.955 361.000 321.417 C 359.625 322.771,351.525 327.902,343.000 332.820 C 264.963 377.836,261.062 380.000,257.949 380.000 C 255.066 380.000,207.759 354.032,189.425 342.386 C 186.634 340.613,182.584 338.182,180.425 336.983 C 158.711 324.925,154.987 322.492,153.523 319.408 C 151.241 314.599,151.236 207.413,153.518 202.604 C 154.810 199.880,172.697 188.000,175.505 188.000 C 176.507 188.000,199.436 174.739,201.500 172.966 C 207.123 168.135,254.645 142.000,257.805 142.000 C 260.276 142.000,267.848 145.824,286.824 156.655 M244.500 166.118 C 240.650 168.364,237.275 170.548,237.000 170.971 C 236.372 171.939,174.307 207.922,171.250 209.090 L 169.000 209.950 169.000 257.545 C 169.000 303.204,169.075 305.126,170.839 304.820 C 171.851 304.644,179.715 300.450,188.316 295.500 L 203.952 286.500 204.226 262.823 L 204.500 239.147 228.250 252.702 L 252.000 266.258 252.000 291.126 L 252.000 315.994 229.750 304.899 L 207.500 293.804 191.270 303.152 C 182.343 308.293,175.030 313.033,175.020 313.685 C 175.009 314.337,185.858 321.065,199.130 328.636 C 212.401 336.207,223.763 342.896,224.380 343.499 C 224.996 344.102,232.813 348.770,241.750 353.873 L 258.000 363.149 274.250 353.878 C 283.188 348.779,290.950 344.091,291.500 343.460 C 292.050 342.829,303.413 336.069,316.750 328.438 C 330.087 320.808,340.995 314.100,340.990 313.532 C 340.977 312.202,311.028 295.000,308.725 295.000 C 307.767 295.000,297.087 299.952,284.991 306.004 L 263.000 317.009 263.000 291.605 L 263.000 266.202 287.250 252.647 L 311.500 239.092 311.777 262.796 L 312.055 286.500 327.467 295.328 C 335.944 300.183,343.807 304.398,344.940 304.695 C 347.926 305.475,348.235 210.389,345.250 209.297 C 342.244 208.197,278.518 171.656,278.176 170.836 C 277.838 170.024,263.718 162.000,262.627 162.000 C 262.282 162.000,262.000 172.099,262.000 184.443 L 262.000 206.886 276.750 214.631 C 284.863 218.890,294.500 223.995,298.168 225.975 L 304.836 229.575 281.576 242.787 C 268.783 250.054,257.949 256.000,257.500 256.000 C 257.051 256.000,246.217 250.054,233.424 242.787 L 210.164 229.575 216.832 225.975 C 220.500 223.995,230.137 218.890,238.250 214.631 L 253.000 206.886 253.000 184.443 C 253.000 172.099,252.662 162.008,252.250 162.018 C 251.838 162.027,248.350 163.873,244.500 166.118 " stroke="none" fill-rule="evenodd"></path></g></svg>