<?xml version="1.0" encoding="UTF-8" standalone="no"?>
<svg
   xmlns:dc="http://purl.org/dc/elements/1.1/"
   xmlns:cc="http://creativecommons.org/ns#"
   xmlns:rdf="http://www.w3.org/1999/02/22-rdf-syntax-ns#"
   xmlns:svg="http://www.w3.org/2000/svg"
   xmlns="http://www.w3.org/2000/svg"
   id="svg8"
   version="1.1"
   focusable="false"
   preserveAspectRatio="xMidYMid meet"
   fit=""
   width="100%"
   viewBox="0 0 24 24"
   height="100%"
   fill="currentColor">
  <metadata
     id="metadata14">
    <rdf:RDF>
      <cc:Work
         rdf:about="">
        <dc:format>image/svg+xml</dc:format>
        <dc:type
           rdf:resource="http://purl.org/dc/dcmitype/StillImage" />
        <dc:title></dc:title>
      </cc:Work>
    </rdf:RDF>
  </metadata>
  <defs
     id="defs12" />
  <path
     id="path2"
     d="M 12.013672 1.2011719 L 3.0390625 6.3808594 L 7.2636719 8.8144531 L 12.013672 6.0703125 L 16.763672 8.8203125 L 20.990234 6.3808594 L 12.013672 1.2011719 z M 2.2675781 7.7246094 L 2.2675781 18.080078 L 11.236328 23.257812 L 11.236328 18.380859 L 6.4902344 15.640625 L 6.4902344 10.164062 L 2.2675781 7.7246094 z M 21.761719 7.7304688 L 17.535156 10.164062 L 17.535156 15.638672 L 12.792969 18.378906 L 12.792969 23.248047 L 21.761719 18.068359 L 21.761719 7.7304688 z M 12.013672 7.8789062 L 8.0546875 10.164062 L 8.0546875 14.736328 L 9.3867188 15.503906 L 13.345703 8.6464844 L 12.013672 7.8789062 z M 14.644531 9.3964844 L 10.681641 16.253906 L 12.013672 17.019531 L 15.974609 14.736328 L 15.974609 10.164062 L 14.644531 9.3964844 z " />
</svg>
