<svg xmlns="http://www.w3.org/2000/svg" viewBox="0 0 24 24">
  <path d="M 12.150391 0.75 L 2.5 6.2597656 L 2.5 17.066406 L 6.2070312 14.099609 L 12.150391 14.099609 L 12.150391 14.097656 L 18.074219 14.097656 L 21.783203 17.066406 L 21.783203 6.2597656 L 12.150391 0.75 z M 12.142578 3.7167969 L 12.150391 3.7167969 A 4.45 4.45 0 0 1 12.478516 12.603516 C 12.370093 12.61133 12.260722 12.616962 12.150391 12.617188 A 4.452 4.452 0 0 1 7.6914062 8.1679688 A 4.45 4.45 0 0 1 12.142578 3.7167969 z M 12.140625 5.1992188 A 2.9665 2.9665 0 0 0 12.142578 11.132812 L 12.142578 11.109375 A 2.962 2.962 0 0 0 15.107422 8.1542969 A 2.96 2.96 0 0 0 12.140625 5.1992188 z M 6.9492188 15.582031 L 3.2421875 18.550781 L 12.142578 23 L 12.142578 22.998047 L 21.042969 18.550781 L 17.332031 15.582031 L 12.142578 15.582031 L 6.9492188 15.582031 z " />
</svg>
