<svg xmlns="http://www.w3.org/2000/svg" viewBox="0 0 24 24">
  <path d="M 5.0019531 2.0039062 A 2 2 0 0 0 3.0019531 4.0039062 L 3.0019531 19.996094 A 2 2 0 0 0 5.0019531 21.996094 L 11.400391 21.996094 L 11.400391 19.998047 L 4.9941406 19.998047 L 4.9941406 4.0039062 L 12 4.0039062 L 12 2.0039062 L 5.0019531 2.0039062 z M 16.490234 3 A 1.5 1.5 0 0 0 16.003906 5.9160156 L 16.005859 8 L 13.998047 8 L 13.998047 9 L 16 9 C 16.55 8.998 17 8.55 17 8 L 17 5.9140625 A 1.5 1.5 0 0 0 16.5 3 A 1.5 1.5 0 0 0 16.490234 3 z M 8 7 L 8 9 L 12 9 L 12 7 L 8 7 z M 19.498047 8 A 1.5 1.5 0 0 0 19.005859 10.914062 L 19.007812 12 L 14 12 L 14 13 L 19.001953 13 A 1 1 0 0 0 20.001953 12 L 20.001953 10.914062 A 1.5 1.5 0 0 0 19.5 8 A 1.5 1.5 0 0 1 19.498047 8 z M 8 11 L 8 13 L 12 13 L 12 11 L 8 11 z M 8 15 L 8 17 L 12 17 L 12 15 L 8 15 z M 13.998047 16 L 13.998047 17 L 17.998047 17 L 17.998047 18.085938 A 1.5 1.5 0 1 0 18.998047 18.085938 L 18.998047 17.003906 L 18.992188 16.886719 C 18.933188 16.389719 18.512047 16.001953 17.998047 16.001953 L 13.998047 16 z " />
</svg>
