<svg xmlns="http://www.w3.org/2000/svg" viewBox="0 0 24 24">
  <path d="M 12 1.5351562 L 9 3.2675781 L 9 6.7324219 L 12 8.4648438 L 12 8.4628906 L 15 6.7304688 L 15 3.2675781 L 12 1.5351562 z M 4.1171875 4 L 1.3867188 8.8105469 L 3.1621094 11.787109 L 4.8964844 10.787109 L 3.6992188 8.7851562 L 5.2792969 6 L 8 6 L 8 4 L 4.1171875 4 z M 16 4 L 16 6 L 18.720703 6 L 20.296875 8.7832031 L 19.078125 10.773438 L 20.808594 11.773438 L 22.609375 8.8222656 L 19.880859 4 L 16 4 z M 6 11.535156 L 3 13.267578 L 3 16.732422 L 6 18.464844 L 9 16.732422 L 9 13.267578 L 6 11.535156 z M 18 11.535156 L 15 13.267578 L 15 16.732422 L 18 18.464844 L 21 16.732422 L 21 13.267578 L 18 11.535156 z M 14.695312 17.943359 L 13.439453 20 L 10.396484 20 L 9.2011719 18 L 7.4707031 19 L 9.2597656 22 L 14.560547 22 L 16.429688 18.943359 L 14.695312 17.943359 z " />
</svg>
