<svg xmlns="http://www.w3.org/2000/svg" viewBox="0 0 24 24" height="24" width="24">
  <path d="M 6.2421875 3 L 4.4960938 6 L 6 6 L 6.5 5 L 9 5 L 9 6 L 8 6 L 7.5 7 L 3.9140625 7 L 1 12 L 2.1621094 14 L 7 14 L 7.5371094 15 L 9 15 L 9 16 L 5.8789062 16 L 5.2871094 15 L 2.7539062 15 L 6.2421875 21 L 11 21 L 11 19 L 7.6074219 19 L 7 18 L 11 18 L 11 12 L 6.5 12 L 6 11 L 3.5039062 11 L 4 10 L 7.5 10 L 8 11 L 11 11 L 11 9 L 8.4648438 9 L 8.9824219 8 L 11 8 L 11 3 L 6.2421875 3 z M 13 3 L 13 8 L 15.017578 8 L 15.535156 9 L 13 9 L 13 11 L 16 11 L 16.5 10 L 20 10 L 20.496094 11 L 18 11 L 17.5 12 L 13 12 L 13 18 L 17 18 L 16.392578 19 L 13 19 L 13 21 L 17.757812 21 L 21.248047 15 L 18.712891 15 L 18.123047 16 L 15 16 L 15 15 L 16.462891 15 L 17 14 L 21.837891 14 L 23 12 L 20.085938 7 L 16.5 7 L 16 6 L 15 6 L 15 5 L 17.5 5 L 18 6 L 19.503906 6 L 17.757812 3 L 13 3 z " />
</svg>
