<?xml version="1.0" encoding="UTF-8" standalone="no"?>
<svg
   xmlns:dc="http://purl.org/dc/elements/1.1/"
   xmlns:cc="http://creativecommons.org/ns#"
   xmlns:rdf="http://www.w3.org/1999/02/22-rdf-syntax-ns#"
   xmlns:svg="http://www.w3.org/2000/svg"
   xmlns="http://www.w3.org/2000/svg"
   id="svg6"
   version="1.1"
   focusable="false"
   preserveAspectRatio="xMidYMid meet"
   fit=""
   width="100%"
   viewBox="0 0 24 24"
   height="100%"
   fill-rule="evenodd"
   fill="currentColor">
  <metadata
     id="metadata12">
    <rdf:RDF>
      <cc:Work
         rdf:about="">
        <dc:format>image/svg+xml</dc:format>
        <dc:type
           rdf:resource="http://purl.org/dc/dcmitype/StillImage" />
        <dc:title></dc:title>
      </cc:Work>
    </rdf:RDF>
  </metadata>
  <defs
     id="defs10" />
  <path
     id="path2"
     d="M 4 4 L 4 11 L 5 11 L 19 11 L 20 11 L 20 4 L 19 4 L 5 4 L 4 4 z M 15.958984 6.5 A 1 1 0 0 1 16 6.5 A 1 1 0 0 1 16 8.5 A 1 1 0 0 1 15.958984 6.5 z M 7 7 L 13 7 L 13 8 L 7 8 L 7 7 z M 4 13 L 4 20 L 5 20 L 19 20 L 20 20 L 20 13 L 19 13 L 5 13 L 4 13 z M 15.958984 15.5 A 1 1 0 0 1 16 15.5 A 1 1 0 0 1 16 17.5 A 1 1 0 0 1 15.958984 15.5 z M 7 16 L 13 16 L 13 17 L 7 17 L 7 16 z " />
</svg>
