<svg xmlns="http://www.w3.org/2000/svg" viewBox="0 0 24 24">
  <path d="M 5.6191406 4 L 1 12 L 2.8457031 15.197266 L 2.8476562 15.197266 L 5.3261719 13.097656 L 4.6914062 12 L 9.3105469 4 L 5.6191406 4 z M 2.8476562 15.197266 L 5.6171875 20 L 9.3066406 20 L 5.3261719 13.099609 L 2.8476562 15.197266 z M 14.693359 4 L 18.673828 10.900391 L 21.152344 8.8027344 L 18.382812 4 L 14.693359 4 z M 21.152344 8.8027344 L 18.673828 10.902344 L 19.308594 12 L 14.689453 20 L 18.380859 20 L 23 12 L 21.154297 8.8027344 L 21.152344 8.8027344 z M 9.1542969 10 L 8 12 L 9.1542969 14 L 14.845703 14 L 16 12 L 14.845703 10 L 9.1542969 10 z " />
</svg>
