<?xml version="1.0" encoding="UTF-8" standalone="no"?>
<svg
   xmlns:dc="http://purl.org/dc/elements/1.1/"
   xmlns:cc="http://creativecommons.org/ns#"
   xmlns:rdf="http://www.w3.org/1999/02/22-rdf-syntax-ns#"
   xmlns:svg="http://www.w3.org/2000/svg"
   xmlns="http://www.w3.org/2000/svg"
   id="svg6"
   version="1.1"
   focusable="false"
   preserveAspectRatio="xMidYMid meet"
   fit=""
   width="100%"
   viewBox="0 0 24 24"
   height="100%"
   fill-rule="evenodd"
   fill="currentColor">
  <metadata
     id="metadata12">
    <rdf:RDF>
      <cc:Work
         rdf:about="">
        <dc:format>image/svg+xml</dc:format>
        <dc:type
           rdf:resource="http://purl.org/dc/dcmitype/StillImage" />
        <dc:title></dc:title>
      </cc:Work>
    </rdf:RDF>
  </metadata>
  <defs
     id="defs10" />
  <path
     id="path2"
     d="M 3 5 L 3 12 L 3 19 L 5 19 L 5 12 L 5 5 L 3 5 z M 7 5 L 7 12 L 7 19 L 9 19 L 9 12 L 9 5 L 7 5 z M 11 5 L 11 12 L 11 19 L 13 19 L 13 12 L 13 5 L 11 5 z M 15 5 L 15 12 L 15 19 L 17 19 L 17 12 L 17 5 L 15 5 z M 19 5 L 19 12 L 19 19 L 21 19 L 21 12 L 21 5 L 19 5 z " />
</svg>
