<?xml version="1.0" encoding="UTF-8" standalone="no"?>
<svg
   xmlns:dc="http://purl.org/dc/elements/1.1/"
   xmlns:cc="http://creativecommons.org/ns#"
   xmlns:rdf="http://www.w3.org/1999/02/22-rdf-syntax-ns#"
   xmlns:svg="http://www.w3.org/2000/svg"
   xmlns="http://www.w3.org/2000/svg"
   id="svg24"
   version="1.1"
   focusable="false"
   preserveAspectRatio="xMidYMid meet"
   fit=""
   width="100%"
   viewBox="0 0 24 24"
   height="100%"
   fill-rule="evenodd"
   fill="currentColor">
  <metadata
     id="metadata30">
    <rdf:RDF>
      <cc:Work
         rdf:about="">
        <dc:format>image/svg+xml</dc:format>
        <dc:type
           rdf:resource="http://purl.org/dc/dcmitype/StillImage" />
        <dc:title></dc:title>
      </cc:Work>
    </rdf:RDF>
  </metadata>
  <defs
     id="defs28" />
  <path
     id="circle2"
     d="M 8.3574219 1 L 6.4472656 2.0390625 L 10.230469 4.2890625 L 4 7.5175781 L 4 10 L 5.9609375 10 L 5.9609375 8.6191406 L 11 6 L 11 8 L 12 8 L 13 8 L 13 6 L 18 8.7695312 L 18 10 L 20 10 L 20 7.7167969 L 13.970703 4.3398438 L 17.8125 2.1894531 L 15.982422 1.0996094 L 15.929688 1.0996094 L 12.115234 3.2363281 L 8.3574219 1 z M 12 8.75 A 1.25 1.25 0 0 0 10.75 10 A 1.25 1.25 0 0 0 12 11.25 A 1.25 1.25 0 0 0 13.25 10 A 1.25 1.25 0 0 0 12 8.75 z M 5 10.75 A 1.25 1.25 0 0 0 3.75 12 A 1.25 1.25 0 0 0 5 13.25 A 1.25 1.25 0 0 0 6.25 12 A 1.25 1.25 0 0 0 5 10.75 z M 19 10.75 A 1.25 1.25 0 0 0 17.75 12 A 1.25 1.25 0 0 0 19 13.25 A 1.25 1.25 0 0 0 20.25 12 A 1.25 1.25 0 0 0 19 10.75 z M 12 12.75 A 1.25 1.25 0 0 0 10.75 14 A 1.25 1.25 0 0 0 12 15.25 A 1.25 1.25 0 0 0 13.25 14 A 1.25 1.25 0 0 0 12 12.75 z M 4 14 L 4 16.279297 L 10.027344 19.65625 L 11.884766 20.763672 L 12 20.697266 L 13.759766 19.712891 L 13.763672 19.705078 L 20 16.478516 L 20 14 L 18 14 L 18 15.371094 L 13 18 L 13 16 L 12 16 L 11 16 L 11.033203 18.039062 L 5.9609375 15.226562 L 5.9609375 14 L 4 14 z M 11.884766 20.763672 L 10.027344 19.660156 L 6.1875 21.810547 L 8.0175781 22.900391 L 8.0703125 22.900391 L 11.884766 20.763672 z M 13.767578 19.710938 L 11.892578 20.763672 L 15.650391 23 L 15.699219 23 L 17.550781 21.960938 L 13.767578 19.710938 z " />
</svg>
