<?xml version="1.0" encoding="UTF-8" standalone="no"?>
<svg
   xmlns:dc="http://purl.org/dc/elements/1.1/"
   xmlns:cc="http://creativecommons.org/ns#"
   xmlns:rdf="http://www.w3.org/1999/02/22-rdf-syntax-ns#"
   xmlns:svg="http://www.w3.org/2000/svg"
   xmlns="http://www.w3.org/2000/svg"
   id="svg22"
   version="1.1"
   focusable="false"
   preserveAspectRatio="xMidYMid meet"
   fit=""
   width="100%"
   viewBox="0 0 24 24"
   height="100%"
   fill-rule="evenodd"
   fill="currentColor">
  <metadata
     id="metadata28">
    <rdf:RDF>
      <cc:Work
         rdf:about="">
        <dc:format>image/svg+xml</dc:format>
        <dc:type
           rdf:resource="http://purl.org/dc/dcmitype/StillImage" />
        <dc:title></dc:title>
      </cc:Work>
    </rdf:RDF>
  </metadata>
  <defs
     id="defs26" />
  <g
     id="g20"
     transform="translate(1,1)">
    <path
       id="path2"
       transform="translate(-1,-1)"
       d="M 5.2441406,1.7578125 1.0078125,5.9960938 V 10.222656 L 1,10.230469 V 13.759766 18 L 5.2421875,22.242188 7.359375,20.121094 3.9921875,16.753906 v -0.002 V 15.257812 8.7324219 7.2441406 L 7.359375,3.875 Z m 13.5136714,0 -2.117187,2.1210937 3.367187,3.3691407 v 1.4941406 6.5253905 1.488281 l -3.367187,3.369141 2.115234,2.117188 4.236329,-4.238282 V 13.777344 L 23,13.769531 V 10.240234 6 Z M 7.5019531,10.494141 a 1.5039999,1.5039999 0 0 0 -1.5058593,1.503906 1.5039999,1.5039999 0 0 0 1.5058593,1.503906 1.5039999,1.5039999 0 0 0 1.5039063,-1.503906 1.5039999,1.5039999 0 0 0 -1.5039063,-1.503906 z m 4.4960939,0 a 1.5039999,1.5039999 0 0 0 -1.503906,1.503906 1.5039999,1.5039999 0 0 0 1.503906,1.503906 1.5039999,1.5039999 0 0 0 1.505859,-1.503906 1.5039999,1.5039999 0 0 0 -1.505859,-1.503906 z m 4.498047,0 a 1.5039999,1.5039999 0 0 0 -1.503906,1.503906 1.5039999,1.5039999 0 0 0 1.503906,1.503906 1.5039999,1.5039999 0 0 0 1.505859,-1.503906 1.5039999,1.5039999 0 0 0 -1.505859,-1.503906 z" />
  </g>
</svg>
