<svg xmlns="http://www.w3.org/2000/svg" viewBox="0 0 24 24">
  <path d="M 12 1.5 L 12 12 L 22.5 12 L 22.5 1.5 L 12 1.5 z M 2.25 3.75 L 2.25 12 L 10.5 12 L 10.5 3.75 L 2.25 3.75 z M 19.572266 3.75 L 20.832031 5.015625 L 16.345703 9.5019531 L 13.558594 6.7148438 L 14.818359 5.4550781 L 16.345703 6.9765625 L 19.572266 3.75 z M 3.75 5.25 L 9 5.25 L 9 10.5 L 3.75 10.5 L 3.75 5.25 z M 2.25 13.5 L 2.25 21.75 L 10.5 21.75 L 10.5 13.5 L 2.25 13.5 z M 12 13.5 L 12 21.75 L 20.25 21.75 L 20.25 13.5 L 12 13.5 z M 3.75 15 L 9 15 L 9 20.25 L 3.75 20.25 L 3.75 15 z M 13.5 15 L 18.75 15 L 18.75 20.25 L 13.5 20.25 L 13.5 15 z " />
</svg>
