<svg version="1.1" width="515" height="515" xmlns="http://www.w3.org/2000/svg"><g><path d="M142.000 34.500 C 142.000 35.611,140.833 36.000,137.500 36.000 C 134.167 36.000,133.000 36.389,133.000 37.500 C 133.000 38.428,132.059 39.000,130.534 39.000 C 128.083 39.000,122.000 43.965,122.000 45.966 C 122.000 46.535,121.325 47.000,120.500 47.000 C 119.675 47.000,119.000 47.675,119.000 48.500 C 119.000 49.325,118.325 50.000,117.500 50.000 C 116.675 50.000,116.000 50.627,116.000 51.393 C 116.000 52.159,115.325 53.045,114.500 53.362 C 113.675 53.678,113.000 55.076,113.000 56.469 C 113.000 58.052,112.438 59.000,111.500 59.000 C 110.567 59.000,110.000 59.944,110.000 61.500 C 110.000 63.056,109.433 64.000,108.500 64.000 C 107.500 64.000,107.000 65.000,107.000 67.000 C 107.000 69.000,106.500 70.000,105.500 70.000 C 104.675 70.000,104.000 70.675,104.000 71.500 C 104.000 72.325,103.550 73.000,103.000 73.000 C 102.450 73.000,102.000 74.350,102.000 76.000 C 102.000 78.000,101.500 79.000,100.500 79.000 C 99.567 79.000,99.000 79.944,99.000 81.500 C 99.000 83.056,98.433 84.000,97.500 84.000 C 96.500 84.000,96.000 85.000,96.000 87.000 C 96.000 89.000,95.500 90.000,94.500 90.000 C 93.675 90.000,93.000 90.675,93.000 91.500 C 93.000 92.325,92.325 93.000,91.500 93.000 C 90.500 93.000,90.000 94.000,90.000 96.000 C 90.000 98.000,89.500 99.000,88.500 99.000 C 87.585 99.000,87.000 99.933,87.000 101.393 C 87.000 102.709,86.325 104.045,85.500 104.362 C 84.675 104.678,84.000 106.076,84.000 107.469 C 84.000 108.861,83.550 110.000,83.000 110.000 C 82.450 110.000,82.000 110.675,82.000 111.500 C 82.000 112.325,81.325 113.000,80.500 113.000 C 79.500 113.000,79.000 114.000,79.000 116.000 C 79.000 118.000,78.500 119.000,77.500 119.000 C 76.567 119.000,76.000 119.944,76.000 121.500 C 76.000 123.056,75.433 124.000,74.500 124.000 C 73.675 124.000,73.000 124.675,73.000 125.500 C 73.000 126.325,72.325 127.000,71.500 127.000 C 70.500 127.000,70.000 128.000,70.000 130.000 C 70.000 132.000,69.500 133.000,68.500 133.000 C 67.500 133.000,67.000 134.000,67.000 136.000 C 67.000 138.000,66.500 139.000,65.500 139.000 C 64.621 139.000,63.987 139.931,63.968 141.250 C 63.932 143.829,61.821 147.000,60.140 147.000 C 59.513 147.000,59.000 148.350,59.000 150.000 C 59.000 152.000,58.500 153.000,57.500 153.000 C 56.500 153.000,56.000 154.000,56.000 156.000 C 56.000 158.000,55.500 159.000,54.500 159.000 C 53.500 159.000,53.000 160.000,53.000 162.000 C 53.000 164.000,52.500 165.000,51.500 165.000 C 50.675 165.000,50.000 165.450,50.000 166.000 C 50.000 166.550,49.325 167.000,48.500 167.000 C 47.500 167.000,47.000 168.000,47.000 170.000 C 47.000 172.000,46.500 173.000,45.500 173.000 C 44.559 173.000,44.000 173.950,44.000 175.548 C 44.000 176.981,42.906 179.109,41.500 180.412 C 40.125 181.687,39.000 183.690,39.000 184.865 C 39.000 186.096,38.365 187.000,37.500 187.000 C 36.500 187.000,36.000 188.000,36.000 190.000 C 36.000 192.000,35.500 193.000,34.500 193.000 C 33.500 193.000,33.000 194.000,33.000 196.000 C 33.000 198.000,32.500 199.000,31.500 199.000 C 30.675 199.000,30.000 199.675,30.000 200.500 C 30.000 201.325,29.325 202.000,28.500 202.000 C 27.585 202.000,27.000 202.933,27.000 204.393 C 27.000 205.709,26.325 207.045,25.500 207.362 C 24.675 207.678,24.000 209.028,24.000 210.362 C 24.000 211.695,23.325 213.045,22.500 213.362 C 21.675 213.678,21.000 215.076,21.000 216.469 C 21.000 217.861,20.550 219.000,20.000 219.000 C 19.450 219.000,19.000 219.675,19.000 220.500 C 19.000 221.325,18.325 222.000,17.500 222.000 C 16.567 222.000,16.000 222.944,16.000 224.500 C 16.000 226.056,15.433 227.000,14.500 227.000 C 13.500 227.000,13.000 228.000,13.000 230.000 C 13.000 232.000,12.500 233.000,11.500 233.000 C 10.675 233.000,10.000 233.675,10.000 234.500 C 10.000 235.325,9.325 236.000,8.500 236.000 C 7.500 236.000,7.000 237.000,7.000 239.000 C 7.000 241.000,6.500 242.000,5.500 242.000 C 4.227 242.000,4.000 244.503,4.000 258.531 C 4.000 272.303,4.250 275.159,5.500 275.638 C 6.325 275.955,7.000 276.841,7.000 277.607 C 7.000 278.373,7.675 279.000,8.500 279.000 C 9.500 279.000,10.000 280.000,10.000 282.000 C 10.000 284.000,10.500 285.000,11.500 285.000 C 12.433 285.000,13.000 285.944,13.000 287.500 C 13.000 289.056,13.567 290.000,14.500 290.000 C 15.500 290.000,16.000 291.000,16.000 293.000 C 16.000 295.000,16.500 296.000,17.500 296.000 C 18.325 296.000,19.000 296.675,19.000 297.500 C 19.000 298.325,19.450 299.000,20.000 299.000 C 20.550 299.000,21.000 300.139,21.000 301.531 C 21.000 302.924,21.675 304.322,22.500 304.638 C 23.325 304.955,24.000 306.291,24.000 307.607 C 24.000 309.067,24.585 310.000,25.500 310.000 C 26.500 310.000,27.000 311.000,27.000 313.000 C 27.000 315.000,27.500 316.000,28.500 316.000 C 29.325 316.000,30.000 316.675,30.000 317.500 C 30.000 318.325,30.675 319.000,31.500 319.000 C 32.500 319.000,33.000 320.000,33.000 322.000 C 33.000 324.000,33.500 325.000,34.500 325.000 C 35.433 325.000,36.000 325.944,36.000 327.500 C 36.000 329.056,36.567 330.000,37.500 330.000 C 38.325 330.000,39.000 330.675,39.000 331.500 C 39.000 332.325,39.450 333.000,40.000 333.000 C 40.550 333.000,41.000 334.139,41.000 335.531 C 41.000 336.924,41.675 338.322,42.500 338.638 C 43.355 338.966,44.000 340.458,44.000 342.107 C 44.000 344.012,44.512 345.000,45.500 345.000 C 46.433 345.000,47.000 345.944,47.000 347.500 C 47.000 349.056,47.567 350.000,48.500 350.000 C 49.325 350.000,50.000 350.675,50.000 351.500 C 50.000 352.325,50.675 353.000,51.500 353.000 C 52.500 353.000,53.000 354.000,53.000 356.000 C 53.000 358.000,53.500 359.000,54.500 359.000 C 55.500 359.000,56.000 360.000,56.000 362.000 C 56.000 364.000,56.500 365.000,57.500 365.000 C 58.410 365.000,59.000 365.929,59.000 367.360 C 59.000 368.710,60.070 370.523,61.500 371.597 C 63.110 372.807,64.000 374.458,64.000 376.237 C 64.000 378.026,64.529 379.000,65.500 379.000 C 66.500 379.000,67.000 380.000,67.000 382.000 C 67.000 384.000,67.500 385.000,68.500 385.000 C 69.325 385.000,70.000 385.675,70.000 386.500 C 70.000 387.325,70.675 388.000,71.500 388.000 C 72.433 388.000,73.000 388.944,73.000 390.500 C 73.000 392.056,73.567 393.000,74.500 393.000 C 75.500 393.000,76.000 394.000,76.000 396.000 C 76.000 398.000,76.500 399.000,77.500 399.000 C 78.500 399.000,79.000 400.000,79.000 402.000 C 79.000 404.000,79.500 405.000,80.500 405.000 C 81.325 405.000,82.000 405.675,82.000 406.500 C 82.000 407.325,82.450 408.000,83.000 408.000 C 83.550 408.000,84.000 409.125,84.000 410.500 C 84.000 412.056,84.567 413.000,85.500 413.000 C 86.500 413.000,87.000 414.000,87.000 416.000 C 87.000 418.000,87.500 419.000,88.500 419.000 C 89.500 419.000,90.000 420.000,90.000 422.000 C 90.000 424.000,90.500 425.000,91.500 425.000 C 92.325 425.000,93.000 425.675,93.000 426.500 C 93.000 427.325,93.675 428.000,94.500 428.000 C 95.433 428.000,96.000 428.944,96.000 430.500 C 96.000 432.056,96.567 433.000,97.500 433.000 C 98.500 433.000,99.000 434.000,99.000 436.000 C 99.000 438.000,99.500 439.000,100.500 439.000 C 101.500 439.000,102.000 440.000,102.000 442.000 C 102.000 443.650,102.450 445.000,103.000 445.000 C 103.550 445.000,104.000 445.675,104.000 446.500 C 104.000 447.325,104.675 448.000,105.500 448.000 C 106.433 448.000,107.000 448.944,107.000 450.500 C 107.000 452.056,107.567 453.000,108.500 453.000 C 109.500 453.000,110.000 454.000,110.000 456.000 C 110.000 458.000,110.500 459.000,111.500 459.000 C 112.325 459.000,113.000 459.675,113.000 460.500 C 113.000 461.325,113.675 462.000,114.500 462.000 C 115.500 462.000,116.000 463.000,116.000 465.000 C 116.000 467.000,116.500 468.000,117.500 468.000 C 118.325 468.000,119.000 468.675,119.000 469.500 C 119.000 470.325,119.599 471.000,120.331 471.000 C 121.063 471.000,122.264 472.125,123.000 473.500 C 123.736 474.875,124.937 476.000,125.669 476.000 C 126.401 476.000,127.000 476.675,127.000 477.500 C 127.000 478.500,128.000 479.000,130.000 479.000 C 132.000 479.000,133.000 479.500,133.000 480.500 C 133.000 481.667,134.333 482.000,139.000 482.000 C 143.667 482.000,145.000 482.333,145.000 483.500 C 145.000 484.824,158.056 485.000,256.500 485.000 C 354.944 485.000,368.000 484.824,368.000 483.500 C 368.000 482.348,369.278 482.000,373.500 482.000 C 377.722 482.000,379.000 481.652,379.000 480.500 C 379.000 479.500,380.000 479.000,382.000 479.000 C 384.000 479.000,385.000 478.500,385.000 477.500 C 385.000 476.675,385.675 476.000,386.500 476.000 C 387.325 476.000,388.000 475.581,388.000 475.070 C 388.000 474.558,389.012 473.995,390.250 473.820 C 391.861 473.591,392.590 472.719,392.816 470.750 C 392.998 469.176,393.746 468.000,394.566 468.000 C 395.355 468.000,396.000 467.325,396.000 466.500 C 396.000 465.675,396.675 465.000,397.500 465.000 C 398.500 465.000,399.000 464.000,399.000 462.000 C 399.000 460.000,399.500 459.000,400.500 459.000 C 401.325 459.000,402.000 458.325,402.000 457.500 C 402.000 456.675,402.675 456.000,403.500 456.000 C 404.433 456.000,405.000 455.056,405.000 453.500 C 405.000 451.944,405.567 451.000,406.500 451.000 C 407.500 451.000,408.000 450.000,408.000 448.000 C 408.000 446.000,408.500 445.000,409.500 445.000 C 410.500 445.000,411.000 444.000,411.000 442.000 C 411.000 440.350,411.450 439.000,412.000 439.000 C 412.550 439.000,413.000 438.325,413.000 437.500 C 413.000 436.675,413.675 436.000,414.500 436.000 C 415.433 436.000,416.000 435.056,416.000 433.500 C 416.000 431.944,416.567 431.000,417.500 431.000 C 418.500 431.000,419.000 430.000,419.000 428.000 C 419.000 426.000,419.500 425.000,420.500 425.000 C 421.500 425.000,422.000 424.000,422.000 422.000 C 422.000 420.000,422.500 419.000,423.500 419.000 C 424.325 419.000,425.000 418.325,425.000 417.500 C 425.000 416.675,425.675 416.000,426.500 416.000 C 427.415 416.000,428.000 415.067,428.000 413.607 C 428.000 412.291,428.675 410.955,429.500 410.638 C 430.325 410.322,431.000 408.924,431.000 407.531 C 431.000 406.139,431.450 405.000,432.000 405.000 C 432.550 405.000,433.000 404.325,433.000 403.500 C 433.000 402.675,433.675 402.000,434.500 402.000 C 435.500 402.000,436.000 401.000,436.000 399.000 C 436.000 397.000,436.500 396.000,437.500 396.000 C 438.433 396.000,439.000 395.056,439.000 393.500 C 439.000 391.944,439.567 391.000,440.500 391.000 C 441.500 391.000,442.000 390.000,442.000 388.000 C 442.000 386.000,442.500 385.000,443.500 385.000 C 444.325 385.000,445.000 384.325,445.000 383.500 C 445.000 382.675,445.675 382.000,446.500 382.000 C 447.500 382.000,448.000 381.000,448.000 379.000 C 448.000 377.000,448.500 376.000,449.500 376.000 C 450.342 376.000,451.000 375.107,451.000 373.965 C 451.000 371.392,453.926 366.836,455.109 367.568 C 455.599 367.870,456.000 366.741,456.000 365.059 C 456.000 363.007,456.494 362.000,457.500 362.000 C 458.500 362.000,459.000 361.000,459.000 359.000 C 459.000 357.000,459.500 356.000,460.500 356.000 C 461.500 356.000,462.000 355.000,462.000 353.000 C 462.000 351.000,462.500 350.000,463.500 350.000 C 464.325 350.000,465.000 349.550,465.000 349.000 C 465.000 348.450,465.675 348.000,466.500 348.000 C 467.500 348.000,468.000 347.000,468.000 345.000 C 468.000 343.000,468.500 342.000,469.500 342.000 C 470.488 342.000,471.000 341.012,471.000 339.107 C 471.000 337.458,471.645 335.966,472.500 335.638 C 473.325 335.322,474.000 333.924,474.000 332.531 C 474.000 331.139,474.450 330.000,475.000 330.000 C 475.550 330.000,476.000 329.339,476.000 328.531 C 476.000 327.637,476.586 327.288,477.500 327.638 C 478.635 328.074,479.000 327.458,479.000 325.107 C 479.000 323.012,479.489 322.000,480.500 322.000 C 481.500 322.000,482.000 321.000,482.000 319.000 C 482.000 317.000,482.500 316.000,483.500 316.000 C 484.500 316.000,485.000 315.000,485.000 313.000 C 485.000 311.350,485.445 310.000,485.989 310.000 C 487.903 310.000,491.000 306.530,491.000 304.385 C 491.000 303.191,491.675 301.955,492.500 301.638 C 493.325 301.322,494.000 299.924,494.000 298.531 C 494.000 297.139,494.450 296.000,495.000 296.000 C 495.550 296.000,496.000 294.650,496.000 293.000 C 496.000 291.000,496.500 290.000,497.500 290.000 C 498.325 290.000,499.000 289.550,499.000 289.000 C 499.000 288.450,499.675 288.000,500.500 288.000 C 501.500 288.000,502.000 287.000,502.000 285.000 C 502.000 283.000,502.500 282.000,503.500 282.000 C 504.500 282.000,505.000 281.000,505.000 279.000 C 505.000 277.000,505.500 276.000,506.500 276.000 C 507.585 276.000,508.000 274.885,508.000 271.969 C 508.000 269.308,508.510 267.742,509.500 267.362 C 511.700 266.517,511.700 250.000,509.500 250.000 C 508.417 250.000,508.000 248.889,508.000 246.000 C 508.000 243.111,507.583 242.000,506.500 242.000 C 505.500 242.000,505.000 241.000,505.000 239.000 C 505.000 237.000,504.500 236.000,503.500 236.000 C 502.500 236.000,502.000 235.000,502.000 233.000 C 502.000 231.000,501.500 230.000,500.500 230.000 C 499.567 230.000,499.000 229.056,499.000 227.500 C 499.000 225.944,498.433 225.000,497.500 225.000 C 496.675 225.000,496.000 224.325,496.000 223.500 C 496.000 222.675,495.550 222.000,495.000 222.000 C 494.450 222.000,494.000 220.650,494.000 219.000 C 494.000 217.000,493.500 216.000,492.500 216.000 C 491.500 216.000,491.000 215.000,491.000 213.000 C 491.000 211.000,490.500 210.000,489.500 210.000 C 488.675 210.000,488.000 209.325,488.000 208.500 C 488.000 207.675,487.325 207.000,486.500 207.000 C 485.567 207.000,485.000 206.056,485.000 204.500 C 485.000 202.944,484.433 202.000,483.500 202.000 C 482.500 202.000,482.000 201.000,482.000 199.000 C 482.000 197.000,481.500 196.000,480.500 196.000 C 479.500 196.000,479.000 195.000,479.000 193.000 C 479.000 191.000,478.500 190.000,477.500 190.000 C 476.675 190.000,476.000 189.325,476.000 188.500 C 476.000 187.675,475.550 187.000,475.000 187.000 C 474.450 187.000,474.000 186.086,474.000 184.969 C 474.000 183.851,473.325 182.678,472.500 182.362 C 471.645 182.034,471.000 180.542,471.000 178.893 C 471.000 176.988,470.488 176.000,469.500 176.000 C 468.562 176.000,468.000 175.052,468.000 173.469 C 468.000 172.076,467.325 170.678,466.500 170.362 C 465.675 170.045,465.000 169.159,465.000 168.393 C 465.000 167.627,464.325 167.000,463.500 167.000 C 462.567 167.000,462.000 166.056,462.000 164.500 C 462.000 162.944,461.433 162.000,460.500 162.000 C 459.500 162.000,459.000 161.000,459.000 159.000 C 459.000 157.000,458.500 156.000,457.500 156.000 C 456.675 156.000,456.000 155.325,456.000 154.500 C 456.000 153.675,455.325 153.000,454.500 153.000 C 453.500 153.000,453.000 152.000,453.000 150.000 C 453.000 148.350,452.550 147.000,452.000 147.000 C 451.450 147.000,451.000 145.875,451.000 144.500 C 451.000 142.944,450.433 142.000,449.500 142.000 C 448.500 142.000,448.000 141.000,448.000 139.000 C 448.000 137.000,447.500 136.000,446.500 136.000 C 445.675 136.000,445.000 135.325,445.000 134.500 C 445.000 133.675,444.325 133.000,443.500 133.000 C 442.500 133.000,442.000 132.000,442.000 130.000 C 442.000 128.000,441.500 127.000,440.500 127.000 C 439.567 127.000,439.000 126.056,439.000 124.500 C 439.000 122.944,438.433 122.000,437.500 122.000 C 436.500 122.000,436.000 121.000,436.000 119.000 C 436.000 117.000,435.500 116.000,434.500 116.000 C 433.675 116.000,433.000 115.325,433.000 114.500 C 433.000 113.675,432.550 113.000,432.000 113.000 C 431.450 113.000,431.000 111.650,431.000 110.000 C 431.000 108.000,430.500 107.000,429.500 107.000 C 428.567 107.000,428.000 106.056,428.000 104.500 C 428.000 102.944,427.433 102.000,426.500 102.000 C 425.675 102.000,425.000 101.325,425.000 100.500 C 425.000 99.675,424.325 99.000,423.500 99.000 C 422.500 99.000,422.000 98.000,422.000 96.000 C 422.000 94.000,421.500 93.000,420.500 93.000 C 419.500 93.000,419.000 92.000,419.000 90.000 C 419.000 88.000,418.500 87.000,417.500 87.000 C 416.567 87.000,416.000 86.056,416.000 84.500 C 416.000 82.944,415.433 82.000,414.500 82.000 C 413.675 82.000,413.000 81.325,413.000 80.500 C 413.000 79.675,412.550 79.000,412.000 79.000 C 411.450 79.000,411.000 77.650,411.000 76.000 C 411.000 74.000,410.500 73.000,409.500 73.000 C 408.500 73.000,408.000 72.000,408.000 70.000 C 408.000 68.000,407.500 67.000,406.500 67.000 C 405.567 67.000,405.000 66.056,405.000 64.500 C 405.000 62.944,404.433 62.000,403.500 62.000 C 402.675 62.000,402.000 61.325,402.000 60.500 C 402.000 59.675,401.325 59.000,400.500 59.000 C 399.500 59.000,399.000 58.000,399.000 56.000 C 399.000 54.000,398.500 53.000,397.500 53.000 C 396.500 53.000,396.000 52.000,396.000 50.000 C 396.000 48.000,395.500 47.000,394.500 47.000 C 393.675 47.000,393.000 46.325,393.000 45.500 C 393.000 44.675,392.298 44.000,391.441 44.000 C 390.584 44.000,390.163 43.545,390.507 42.988 C 390.855 42.426,389.770 41.704,388.066 41.363 C 386.380 41.026,385.000 40.356,385.000 39.875 C 385.000 39.394,383.650 39.000,382.000 39.000 C 380.000 39.000,379.000 38.500,379.000 37.500 C 379.000 36.424,377.901 36.000,375.107 36.000 C 372.569 36.000,371.014 35.478,370.638 34.500 C 370.131 33.179,356.470 33.000,256.031 33.000 C 155.337 33.000,142.000 33.175,142.000 34.500 M276.000 168.500 C 276.000 169.667,277.333 170.000,282.000 170.000 C 286.667 170.000,288.000 170.333,288.000 171.500 C 288.000 172.433,288.944 173.000,290.500 173.000 C 292.056 173.000,293.000 173.567,293.000 174.500 C 293.000 175.500,294.000 176.000,296.000 176.000 C 298.000 176.000,299.000 176.500,299.000 177.500 C 299.000 178.500,300.000 179.000,302.000 179.000 C 304.000 179.000,305.000 179.500,305.000 180.500 C 305.000 181.345,305.894 182.000,307.048 182.000 C 308.174 182.000,310.138 183.125,311.412 184.500 C 312.687 185.875,314.240 187.000,314.865 187.000 C 315.489 187.000,316.000 187.675,316.000 188.500 C 316.000 189.325,316.675 190.000,317.500 190.000 C 318.325 190.000,319.000 190.675,319.000 191.500 C 319.000 192.325,319.675 193.000,320.500 193.000 C 321.325 193.000,322.000 193.675,322.000 194.500 C 322.000 195.325,322.675 196.000,323.500 196.000 C 324.325 196.000,325.000 196.675,325.000 197.500 C 325.000 198.325,325.675 199.000,326.500 199.000 C 327.325 199.000,328.000 199.511,328.000 200.135 C 328.000 200.760,329.125 202.313,330.500 203.588 C 331.875 204.862,333.000 206.826,333.000 207.952 C 333.000 209.106,333.655 210.000,334.500 210.000 C 335.500 210.000,336.000 211.000,336.000 213.000 C 336.000 215.000,336.500 216.000,337.500 216.000 C 338.500 216.000,339.000 217.000,339.000 219.000 C 339.000 221.000,339.500 222.000,340.500 222.000 C 341.583 222.000,342.000 223.111,342.000 226.000 C 342.000 228.889,342.417 230.000,343.500 230.000 C 344.667 230.000,345.000 231.333,345.000 236.000 C 345.000 240.667,345.333 242.000,346.500 242.000 C 347.769 242.000,348.000 244.389,348.000 257.500 C 348.000 270.611,347.769 273.000,346.500 273.000 C 345.389 273.000,345.000 274.167,345.000 277.500 C 345.000 280.833,344.611 282.000,343.500 282.000 C 342.417 282.000,342.000 283.111,342.000 286.000 C 342.000 288.889,341.583 290.000,340.500 290.000 C 339.500 290.000,339.000 291.000,339.000 293.000 C 339.000 295.000,338.500 296.000,337.500 296.000 C 336.500 296.000,336.000 297.000,336.000 299.000 C 336.000 301.000,335.500 302.000,334.500 302.000 C 333.500 302.000,333.000 303.000,333.000 305.000 C 333.000 306.650,332.518 308.000,331.929 308.000 C 330.020 308.000,328.000 310.792,328.000 313.429 C 328.000 314.843,328.450 316.000,329.000 316.000 C 329.550 316.000,330.000 316.675,330.000 317.500 C 330.000 318.325,330.675 319.000,331.500 319.000 C 332.325 319.000,333.000 319.675,333.000 320.500 C 333.000 321.325,333.675 322.000,334.500 322.000 C 335.325 322.000,336.000 322.675,336.000 323.500 C 336.000 324.325,336.675 325.000,337.500 325.000 C 338.325 325.000,339.000 325.675,339.000 326.500 C 339.000 327.325,339.675 328.000,340.500 328.000 C 341.325 328.000,342.000 328.450,342.000 329.000 C 342.000 329.550,342.675 330.000,343.500 330.000 C 344.325 330.000,345.000 330.675,345.000 331.500 C 345.000 332.325,345.675 333.000,346.500 333.000 C 347.325 333.000,348.000 333.675,348.000 334.500 C 348.000 335.325,348.450 336.000,349.000 336.000 C 349.550 336.000,350.000 336.868,350.000 337.929 C 350.000 338.989,350.675 340.532,351.500 341.357 C 352.325 342.182,353.000 343.339,353.000 343.929 C 353.000 344.518,353.675 345.000,354.500 345.000 C 355.325 345.000,356.000 345.675,356.000 346.500 C 356.000 347.325,356.675 348.000,357.500 348.000 C 358.325 348.000,359.000 348.450,359.000 349.000 C 359.000 349.550,359.675 350.000,360.500 350.000 C 361.325 350.000,362.000 350.675,362.000 351.500 C 362.000 352.500,361.000 353.000,359.000 353.000 C 357.000 353.000,356.000 353.500,356.000 354.500 C 356.000 355.325,355.325 356.000,354.500 356.000 C 353.675 356.000,353.000 356.445,353.000 356.989 C 353.000 358.229,349.823 362.000,348.778 362.000 C 348.350 362.000,348.000 361.325,348.000 360.500 C 348.000 359.675,347.325 359.000,346.500 359.000 C 345.675 359.000,345.000 358.325,345.000 357.500 C 345.000 356.675,344.325 356.000,343.500 356.000 C 342.667 356.000,342.000 355.111,342.000 354.000 C 342.000 351.917,338.736 348.000,337.000 348.000 C 336.450 348.000,336.000 347.325,336.000 346.500 C 336.000 345.675,335.325 345.000,334.500 345.000 C 333.675 345.000,333.000 344.325,333.000 343.500 C 333.000 342.675,332.325 342.000,331.500 342.000 C 330.675 342.000,330.000 341.325,330.000 340.500 C 330.000 339.675,329.550 339.000,329.000 339.000 C 328.450 339.000,328.000 338.325,328.000 337.500 C 328.000 336.675,327.325 336.000,326.500 336.000 C 325.675 336.000,325.000 335.325,325.000 334.500 C 325.000 333.675,324.325 333.000,323.500 333.000 C 322.675 333.000,322.000 332.325,322.000 331.500 C 322.000 330.675,321.325 330.000,320.500 330.000 C 319.675 330.000,319.000 329.550,319.000 329.000 C 319.000 328.450,316.975 328.000,314.500 328.000 C 312.025 328.000,310.000 328.450,310.000 329.000 C 310.000 329.550,308.875 330.000,307.500 330.000 C 305.944 330.000,305.000 330.567,305.000 331.500 C 305.000 332.500,304.000 333.000,302.000 333.000 C 300.000 333.000,299.000 333.500,299.000 334.500 C 299.000 335.500,298.000 336.000,296.000 336.000 C 294.000 336.000,293.000 336.500,293.000 337.500 C 293.000 338.433,292.056 339.000,290.500 339.000 C 288.944 339.000,288.000 339.567,288.000 340.500 C 288.000 341.667,286.667 342.000,282.000 342.000 C 277.333 342.000,276.000 342.333,276.000 343.500 C 276.000 344.779,273.278 345.000,257.500 345.000 C 241.722 345.000,239.000 344.779,239.000 343.500 C 239.000 342.389,237.833 342.000,234.500 342.000 C 231.167 342.000,230.000 341.611,230.000 340.500 C 230.000 339.417,228.889 339.000,226.000 339.000 C 223.111 339.000,222.000 338.583,222.000 337.500 C 222.000 336.500,221.000 336.000,219.000 336.000 C 217.000 336.000,216.000 335.500,216.000 334.500 C 216.000 333.500,215.000 333.000,213.000 333.000 C 211.000 333.000,210.000 332.500,210.000 331.500 C 210.000 330.675,209.325 330.000,208.500 330.000 C 207.675 330.000,207.000 329.550,207.000 329.000 C 207.000 328.450,205.875 328.000,204.500 328.000 C 202.944 328.000,202.000 327.433,202.000 326.500 C 202.000 325.675,201.325 325.000,200.500 325.000 C 199.675 325.000,199.000 324.325,199.000 323.500 C 199.000 322.675,198.325 322.000,197.500 322.000 C 196.675 322.000,196.000 321.325,196.000 320.500 C 196.000 319.675,195.325 319.000,194.500 319.000 C 193.675 319.000,193.000 318.325,193.000 317.500 C 193.000 316.675,192.325 316.000,191.500 316.000 C 190.675 316.000,190.000 315.325,190.000 314.500 C 190.000 313.675,189.325 313.000,188.500 313.000 C 187.675 313.000,187.000 312.325,187.000 311.500 C 187.000 310.675,186.550 310.000,186.000 310.000 C 185.450 310.000,185.000 308.875,185.000 307.500 C 185.000 305.944,184.433 305.000,183.500 305.000 C 182.215 305.000,181.446 302.507,181.882 299.750 C 181.947 299.337,181.325 299.000,180.500 299.000 C 179.675 299.000,179.000 298.325,179.000 297.500 C 179.000 296.675,178.325 296.000,177.500 296.000 C 176.417 296.000,176.000 294.889,176.000 292.000 C 176.000 289.111,175.583 288.000,174.500 288.000 C 173.389 288.000,173.000 286.833,173.000 283.500 C 173.000 280.167,172.611 279.000,171.500 279.000 C 170.310 279.000,170.000 277.556,170.000 272.000 C 170.000 266.444,169.690 265.000,168.500 265.000 C 167.278 265.000,167.000 263.333,167.000 256.000 C 167.000 248.667,167.278 247.000,168.500 247.000 C 169.690 247.000,170.000 245.556,170.000 240.000 C 170.000 234.444,170.310 233.000,171.500 233.000 C 172.583 233.000,173.000 231.889,173.000 229.000 C 173.000 226.190,173.427 225.000,174.437 225.000 C 175.327 225.000,175.993 223.763,176.187 221.750 C 176.374 219.804,177.002 218.600,177.750 218.750 C 178.528 218.906,179.000 217.867,179.000 216.000 C 179.000 214.000,179.500 213.000,180.500 213.000 C 181.500 213.000,182.000 212.000,182.000 210.000 C 182.000 208.000,182.500 207.000,183.500 207.000 C 184.325 207.000,185.000 206.298,185.000 205.441 C 185.000 204.584,185.450 204.160,186.000 204.500 C 186.583 204.861,187.000 203.844,187.000 202.059 C 187.000 200.007,187.494 199.000,188.500 199.000 C 189.325 199.000,190.000 198.325,190.000 197.500 C 190.000 196.675,190.675 196.000,191.500 196.000 C 192.325 196.000,193.000 195.325,193.000 194.500 C 193.000 193.675,193.675 193.000,194.500 193.000 C 195.325 193.000,196.000 192.325,196.000 191.500 C 196.000 190.675,196.675 190.000,197.500 190.000 C 198.325 190.000,199.000 189.325,199.000 188.500 C 199.000 187.675,199.675 187.000,200.500 187.000 C 201.325 187.000,202.000 186.550,202.000 186.000 C 202.000 185.450,203.125 185.000,204.500 185.000 C 206.056 185.000,207.000 184.433,207.000 183.500 C 207.000 182.675,207.675 182.000,208.500 182.000 C 209.325 182.000,210.000 181.325,210.000 180.500 C 210.000 179.500,211.000 179.000,213.000 179.000 C 215.000 179.000,216.000 178.500,216.000 177.500 C 216.000 176.500,217.000 176.000,219.000 176.000 C 221.000 176.000,222.000 175.500,222.000 174.500 C 222.000 173.417,223.111 173.000,226.000 173.000 C 228.889 173.000,230.000 172.583,230.000 171.500 C 230.000 170.333,231.333 170.000,236.000 170.000 C 240.667 170.000,242.000 169.667,242.000 168.500 C 242.000 167.225,244.556 167.000,259.000 167.000 C 273.444 167.000,276.000 167.225,276.000 168.500 M239.000 186.000 C 239.000 186.550,236.975 187.000,234.500 187.000 C 231.167 187.000,230.000 187.389,230.000 188.500 C 230.000 189.433,229.056 190.000,227.500 190.000 C 225.944 190.000,225.000 190.567,225.000 191.500 C 225.000 192.500,224.000 193.000,222.000 193.000 C 220.000 193.000,219.000 193.500,219.000 194.500 C 219.000 195.325,218.325 196.000,217.500 196.000 C 216.675 196.000,216.000 196.675,216.000 197.500 C 216.000 198.500,215.000 199.000,213.000 199.000 C 211.000 199.000,210.000 199.500,210.000 200.500 C 210.000 201.325,209.325 202.000,208.500 202.000 C 207.675 202.000,207.000 202.482,207.000 203.071 C 207.000 204.456,204.456 207.000,203.071 207.000 C 202.482 207.000,202.000 208.350,202.000 210.000 C 202.000 212.000,201.500 213.000,200.500 213.000 C 199.675 213.000,199.000 213.675,199.000 214.500 C 199.000 215.325,198.325 216.000,197.500 216.000 C 196.500 216.000,196.000 217.000,196.000 219.000 C 196.000 221.000,195.500 222.000,194.500 222.000 C 193.585 222.000,193.000 222.933,193.000 224.393 C 193.000 225.709,192.325 227.045,191.500 227.362 C 190.675 227.678,190.000 229.076,190.000 230.469 C 190.000 232.052,189.438 233.000,188.500 233.000 C 187.284 233.000,187.000 234.611,187.000 241.500 C 187.000 246.500,186.588 250.000,186.000 250.000 C 185.444 250.000,185.000 252.667,185.000 256.000 C 185.000 259.333,185.444 262.000,186.000 262.000 C 186.588 262.000,187.000 265.500,187.000 270.500 C 187.000 277.389,187.284 279.000,188.500 279.000 C 189.500 279.000,190.000 280.000,190.000 282.000 C 190.000 284.000,190.500 285.000,191.500 285.000 C 192.433 285.000,193.000 285.944,193.000 287.500 C 193.000 289.056,193.567 290.000,194.500 290.000 C 195.500 290.000,196.000 291.000,196.000 293.000 C 196.000 295.000,196.500 296.000,197.500 296.000 C 198.325 296.000,199.000 296.675,199.000 297.500 C 199.000 298.325,199.675 299.000,200.500 299.000 C 201.500 299.000,202.000 300.000,202.000 302.000 C 202.000 304.000,202.500 305.000,203.500 305.000 C 204.325 305.000,205.000 305.482,205.000 306.071 C 205.000 307.456,207.544 310.000,208.929 310.000 C 209.518 310.000,210.000 310.675,210.000 311.500 C 210.000 312.500,211.000 313.000,213.000 313.000 C 215.000 313.000,216.000 313.500,216.000 314.500 C 216.000 315.325,216.675 316.000,217.500 316.000 C 218.325 316.000,219.000 316.675,219.000 317.500 C 219.000 318.500,220.000 319.000,222.000 319.000 C 224.000 319.000,225.000 319.500,225.000 320.500 C 225.000 321.433,225.944 322.000,227.500 322.000 C 229.056 322.000,230.000 322.567,230.000 323.500 C 230.000 324.611,231.167 325.000,234.500 325.000 C 237.833 325.000,239.000 325.389,239.000 326.500 C 239.000 327.783,241.889 328.000,259.000 328.000 C 276.111 328.000,279.000 327.783,279.000 326.500 C 279.000 325.415,280.115 325.000,283.031 325.000 C 285.692 325.000,287.258 324.490,287.638 323.500 C 287.955 322.675,289.291 322.000,290.607 322.000 C 292.067 322.000,293.000 321.415,293.000 320.500 C 293.000 319.500,294.000 319.000,296.000 319.000 C 298.000 319.000,299.000 318.500,299.000 317.500 C 299.000 316.675,299.675 316.000,300.500 316.000 C 301.325 316.000,302.000 315.325,302.000 314.500 C 302.000 313.675,302.675 313.000,303.500 313.000 C 304.325 313.000,305.000 312.325,305.000 311.500 C 305.000 310.675,305.482 310.000,306.071 310.000 C 307.456 310.000,310.000 307.456,310.000 306.071 C 310.000 305.482,310.675 305.000,311.500 305.000 C 312.325 305.000,313.000 304.325,313.000 303.500 C 313.000 302.675,313.675 302.000,314.500 302.000 C 315.325 302.000,316.000 301.325,316.000 300.500 C 316.000 299.675,316.675 299.000,317.500 299.000 C 318.325 299.000,319.000 298.325,319.000 297.500 C 319.000 296.675,319.675 296.000,320.500 296.000 C 321.500 296.000,322.000 295.000,322.000 293.000 C 322.000 291.000,322.500 290.000,323.500 290.000 C 324.433 290.000,325.000 289.056,325.000 287.500 C 325.000 285.944,325.567 285.000,326.500 285.000 C 327.611 285.000,328.000 283.833,328.000 280.500 C 328.000 278.025,328.450 276.000,329.000 276.000 C 329.633 276.000,330.000 268.667,330.000 256.000 C 330.000 244.147,329.616 236.000,329.057 236.000 C 328.539 236.000,327.977 234.088,327.807 231.750 C 327.609 229.005,327.057 227.589,326.250 227.750 C 325.472 227.906,325.000 226.867,325.000 225.000 C 325.000 223.000,324.500 222.000,323.500 222.000 C 322.675 222.000,322.000 221.325,322.000 220.500 C 322.000 219.675,321.325 219.000,320.500 219.000 C 319.500 219.000,319.000 218.000,319.000 216.000 C 319.000 214.000,318.500 213.000,317.500 213.000 C 316.675 213.000,316.000 212.325,316.000 211.500 C 316.000 210.675,315.325 210.000,314.500 210.000 C 313.675 210.000,313.000 209.325,313.000 208.500 C 313.000 207.675,312.518 207.000,311.929 207.000 C 310.544 207.000,308.000 204.456,308.000 203.071 C 308.000 202.482,307.325 202.000,306.500 202.000 C 305.675 202.000,305.000 201.325,305.000 200.500 C 305.000 199.675,304.325 199.000,303.500 199.000 C 302.675 199.000,302.000 198.325,302.000 197.500 C 302.000 196.500,301.000 196.000,299.000 196.000 C 297.000 196.000,296.000 195.500,296.000 194.500 C 296.000 193.675,295.325 193.000,294.500 193.000 C 293.675 193.000,293.000 192.325,293.000 191.500 C 293.000 190.585,292.067 190.000,290.607 190.000 C 289.291 190.000,287.955 189.325,287.638 188.500 C 287.258 187.510,285.692 187.000,283.031 187.000 C 280.814 187.000,279.000 186.550,279.000 186.000 C 279.000 185.367,271.667 185.000,259.000 185.000 C 246.333 185.000,239.000 185.367,239.000 186.000 M262.000 270.500 L 262.000 305.000 256.000 305.000 L 250.000 305.000 250.000 270.500 L 250.000 236.000 256.000 236.000 L 262.000 236.000 262.000 270.500 M227.000 274.500 C 227.000 284.675,226.754 293.000,226.452 293.000 C 226.151 293.000,224.862 291.875,223.588 290.500 C 222.313 289.125,220.760 288.000,220.135 288.000 C 219.511 288.000,219.000 287.325,219.000 286.500 C 219.000 285.675,218.325 285.000,217.500 285.000 C 216.236 285.000,216.000 282.722,216.000 270.500 L 216.000 256.000 221.500 256.000 L 227.000 256.000 227.000 274.500 M296.000 277.500 C 296.000 283.500,295.700 285.000,294.500 285.000 C 293.675 285.000,293.000 285.675,293.000 286.500 C 293.000 287.325,292.518 288.000,291.929 288.000 C 291.339 288.000,290.214 288.643,289.429 289.429 C 288.643 290.214,288.000 291.339,288.000 291.929 C 288.000 292.518,287.325 293.000,286.500 293.000 C 285.254 293.000,285.000 291.056,285.000 281.500 L 285.000 270.000 290.500 270.000 L 296.000 270.000 296.000 277.500 " stroke="none" fill-rule="evenodd"></path></g></svg>