<svg xmlns="http://www.w3.org/2000/svg" width="400" height="400">
  <path
     d="M 201,24 C 187.78002,25.730993 173.4451,28.441332 163.079,37.475 122.76314,75.849419 83.328288,115.27022 45,155.628 c -7.530437,8.79922 -12.597274,20.66203 -14.27025,32.43144 -1.528305,15.9207 -0.189087,31.98168 7.4125,45.91431 13.315515,19.4618 32.304174,34.45132 48.28275,51.76539 10.001635,11.13137 21.41167,20.70728 30.846,31.99048 9.16719,7.40687 16.14615,16.75092 25.34882,24.13423 7.64011,8.57356 15.35477,15.91625 24.55518,22.94802 15.72996,8.87425 33.82396,11.52952 51.79728,9.10722 15.72282,-2.92419 29.84588,-11.34986 40.28634,-23.65671 36.54884,-36.25644 73.24285,-72.38702 109.03238,-109.39338 8.15389,-13.42844 13.42904,-28.97824 12.63712,-44.96275 -2.37386,-16.22501 -6.65284,-33.54825 -19.70575,-45.0585 C 322.66981,112.31052 284.72762,73.095987 245.21983,35.552875 232.67917,26.731659 217.02211,24.315233 202.32188,23.29375 Z m 17.963,11.915 c 9.31454,2.944072 34.90996,10.901612 20.4945,22.258625 -8.68744,9.751577 -36.73637,18.713451 -29.69976,-4.361779 C 212.75276,39.897739 176.04569,51.119247 188.559,37 c 9.14817,-3.662126 20.72595,-3.114794 30.404,-1.085 z m -61.366,32.319 c 18.74109,16.531164 -21.4131,26.858094 -14.96362,45.61412 -0.65784,15.33507 35.72428,12.7324 22.01357,27.41315 -11.58358,6.18342 -26.3011,16.58951 -20.68595,31.73873 9.88026,6.46779 7.86585,37.34393 -5.02725,24.67812 -1.26079,-18.26081 -19.42707,-24.49976 -29.44976,-7.72728 -11.845983,15.75038 13.651,18.68864 22.61501,25.28779 8.10708,7.65434 24.90486,13.54336 20.15925,27.82512 -7.10649,12.39797 -21.86167,16.93858 -32.1395,25.8365 -11.88332,6.75309 -20.611195,24.50598 -30.743348,5.243 C 81.818849,262.92882 75.302016,249.856 74.346875,235.99212 71.239587,219.16015 88.727905,210.43875 91.29375,195.72062 98.01802,179.24468 78.130431,170.63978 64.522625,171.34687 54.68387,170.06328 45.717767,163.88929 58,156.622 65.143478,148.97908 72.860555,142.11283 79.733594,134.48959 95.615877,119.50951 110.63676,102.62611 126.54215,87.14124 133.5281,80.103494 140.51405,73.065747 147.5,66.028 c 3.405,0.453425 7.03975,0.406085 10.097,2.206 z M 264.516,69 c 7.46393,7.844679 16.57152,14.715077 23.0715,23.65075 8.38196,6.711907 15.04138,15.16818 23.1945,22.00225 7.30021,8.81634 16.0399,15.5472 23.48013,24.34175 9.75085,7.32537 17.22679,17.92576 25.62287,26.94325 9.86958,9.75721 10.95348,25.6443 -5.885,22.17 -12.75726,-8.01208 -23.92345,-23.14976 -40.87363,-20.95085 -15.34305,2.45346 10.17066,19.89029 -6.81472,25.11479 C 288.11904,199.42001 279.58388,177.21352 280,163 c -0.42494,-13.37897 -10.17942,-23.76396 -21.26562,-29.9725 -15.76745,-7.09965 -12.56361,21.66592 -28.75338,23.1005 -11.80876,7.73056 -24.28275,-9.23334 -9.40672,-15.11941 9.40865,-8.17077 -15.89221,-10.42161 0.69905,-15.80739 9.49956,-8.07865 31.77189,-8.42764 28.89378,-25.0567 C 237.27733,88.988434 255.31622,69.402386 263.415,68.633 Z m -35.389,37.727 c 6.96965,15.83353 -24.85396,-2.72126 -5.17263,-1.28113 l 3.25949,0.5223 z m 5.541,59.376 c 16.84616,-0.0348 18.29669,21.99691 33.87544,23.10773 16.18839,-3.26481 22.2501,10.89305 11.44356,21.78927 -7.09522,12.12222 -15.80739,24.61351 -13.49622,39.64515 0.19458,14.99639 1.2808,30.57125 -8.35478,42.85485 -6.35168,11.36225 -17.15617,26.89076 -32.49459,19.58386 C 215.17781,301.97254 210.0193,285.4825 216.082,270.949 225.75818,251.62885 206.43223,229.30311 186.515,229 c -18.24463,-5.02771 -12.97023,-29.39851 -4.665,-41 6.50353,-10.43359 16.42538,-20.0816 29.06465,-22.12799 7.86934,-0.9821 15.91217,-1.02183 23.75335,0.23099 z M 350,191.8 c 8.01638,-1.13869 18.02212,11.90909 6.75,7.194 -5.4385,2.43277 -16.12298,-8.43793 -6.75,-7.194 z m -12,36.092 c 11.0605,3.88755 20.56508,15.50756 6.22247,23.03117 -6.57141,6.76039 -13.28076,13.38479 -19.92147,20.07683 -11.22905,-1.54695 -20.7107,5.48948 -31.9532,2.0054 -19.68146,-5.02255 1.14116,-27.56183 10.5802,-33.7554 9.38982,-7.6408 22.83082,-14.08596 35.072,-11.358 z M 247.268,348 c -9.35358,8.0174 -20.83015,14.39831 -33.268,16 -7.45929,2.99549 -37.80607,-1.70101 -16.71797,-5.51156 16.13169,-4.13162 32.24759,-8.74499 48.48084,-12.08619 0.87487,-1.3937 4.29676,0.48973 1.50513,1.59775 z"
     style="fill-rule:evenodd" />
</svg>
