<svg id="svg" xmlns="http://www.w3.org/2000/svg" xmlns:xlink="http://www.w3.org/1999/xlink" width="400" height="400" viewBox="0, 0, 400,400"><g id="svgg"><path id="path0" d="M210.198 19.315 C 209.023 19.949,205.723 20.841,202.864 21.298 C 147.212 30.195,96.076 66.533,71.539 114.620 C 67.976 121.602,67.973 122.738,71.500 128.149 C 73.058 130.539,75.083 133.755,76.000 135.296 C 77.696 138.146,79.982 141.274,87.681 151.280 C 90.056 154.367,92.000 157.255,92.000 157.698 C 92.000 158.141,92.493 158.913,93.095 159.413 C 94.310 160.421,100.275 168.321,104.210 174.134 C 108.621 180.649,108.733 180.542,111.977 166.667 C 126.130 106.134,172.316 69.743,235.000 69.737 C 277.065 69.732,306.513 83.609,334.234 116.500 C 337.093 119.892,339.785 122.666,340.216 122.664 C 342.695 122.656,377.750 94.227,378.381 91.713 C 379.707 86.429,357.357 62.902,338.609 49.847 C 329.234 43.319,313.450 34.568,307.576 32.642 C 306.159 32.178,304.400 31.439,303.667 31.001 C 300.305 28.992,276.664 22.436,268.778 21.326 C 266.089 20.947,262.726 20.044,261.305 19.319 C 257.601 17.429,213.700 17.426,210.198 19.315 M-0.000 126.505 C -0.000 130.756,0.129 131.178,1.635 131.864 C 2.534 132.274,3.715 133.471,4.260 134.524 C 5.687 137.284,16.597 152.613,28.482 168.557 C 30.030 170.634,31.880 173.383,32.593 174.667 C 33.306 175.950,35.789 179.532,38.111 182.626 C 40.433 185.720,43.882 190.520,45.774 193.292 C 47.667 196.065,50.434 199.833,51.925 201.667 C 53.416 203.500,56.434 207.700,58.632 211.000 C 63.996 219.054,67.133 223.485,70.367 227.581 C 78.756 238.206,80.268 243.930,76.333 250.173 C 70.465 259.485,68.620 262.180,65.891 265.432 C 64.244 267.395,60.891 272.000,58.439 275.667 C 55.988 279.333,52.111 284.808,49.824 287.832 C 47.538 290.857,44.167 295.645,42.333 298.474 C 40.500 301.302,37.800 305.021,36.333 306.739 C 34.867 308.456,32.317 312.055,30.667 314.737 C 29.017 317.418,26.617 320.791,25.333 322.233 C 24.050 323.675,22.400 325.841,21.667 327.047 C 20.933 328.252,18.590 331.711,16.458 334.733 C 14.327 337.755,12.127 341.110,11.569 342.190 C 11.010 343.269,9.433 345.393,8.063 346.910 C 6.693 348.426,4.904 350.776,4.086 352.132 C 3.269 353.488,2.015 354.784,1.300 355.011 C 0.189 355.363,0.000 356.045,0.000 359.712 L 0.000 364.000 18.302 364.000 C 40.551 364.000,39.163 364.571,47.333 352.045 C 48.250 350.640,50.650 347.162,52.667 344.316 C 59.644 334.470,60.348 333.465,63.558 328.746 C 65.331 326.140,67.051 323.841,67.380 323.638 C 67.904 323.314,69.969 320.348,75.915 311.384 C 76.784 310.073,78.172 308.250,78.998 307.333 C 79.824 306.417,83.070 301.767,86.211 297.000 C 89.352 292.233,93.065 286.886,94.461 285.117 C 97.700 281.012,101.239 276.152,104.982 270.667 C 106.609 268.283,110.958 262.151,114.648 257.039 C 124.877 242.867,124.842 242.130,113.264 227.816 C 112.144 226.431,108.378 221.031,104.894 215.816 C 101.410 210.600,97.710 205.433,96.671 204.333 C 95.633 203.233,92.909 199.483,90.617 196.000 C 88.325 192.517,85.346 188.317,83.996 186.667 C 82.647 185.017,80.971 182.725,80.272 181.574 C 78.208 178.178,71.781 168.878,65.982 160.896 C 64.342 158.639,61.950 155.243,60.667 153.349 C 59.383 151.455,56.922 148.290,55.198 146.314 C 53.474 144.338,51.595 141.818,51.024 140.713 C 48.497 135.826,40.311 124.545,38.333 123.224 C 37.323 122.549,32.524 122.280,18.500 122.112 L 0.000 121.890 -0.000 126.505 M236.961 190.946 C 235.311 192.153,234.909 235.842,236.533 237.467 C 237.223 238.157,247.916 238.401,289.092 238.667 L 340.785 239.000 342.059 240.574 C 343.240 242.032,343.333 243.400,343.327 259.241 L 343.321 276.333 341.400 279.667 C 315.701 324.256,240.982 343.240,184.015 319.654 C 166.555 312.425,148.877 298.722,135.867 282.333 C 129.089 273.794,129.576 273.420,110.655 301.667 C 109.426 303.500,107.579 305.983,106.548 307.185 C 105.518 308.387,104.061 310.487,103.311 311.852 C 102.560 313.217,101.209 315.353,100.307 316.599 C 97.528 320.437,97.983 321.683,104.425 327.878 C 120.161 343.010,137.967 354.912,159.000 364.357 C 166.383 367.672,182.198 372.943,187.907 373.992 C 189.975 374.371,193.317 375.126,195.333 375.670 C 197.350 376.213,201.700 376.967,205.000 377.345 C 208.300 377.723,213.100 378.451,215.667 378.962 C 225.936 381.007,228.705 381.333,235.762 381.333 C 242.866 381.333,245.709 380.999,255.667 378.994 C 258.233 378.477,263.445 377.720,267.248 377.313 C 271.051 376.905,274.951 376.271,275.915 375.904 C 276.878 375.537,279.917 374.789,282.667 374.240 C 297.499 371.283,319.575 362.202,336.642 352.036 C 359.843 338.217,381.885 316.196,396.901 291.833 C 397.522 290.825,398.474 290.000,399.015 290.000 C 399.875 290.000,400.000 283.653,400.000 240.000 L 400.000 190.000 319.127 190.000 C 250.334 190.000,238.062 190.141,236.961 190.946 " stroke="none" fill="#000000" fill-rule="evenodd"></path></g></svg>