<svg version="1.1" width="400" height="400" xmlns="http://www.w3.org/2000/svg"><g><path d="M126.000 39.840 C 126.000 40.302,124.200 41.274,122.000 42.000 C 119.800 42.726,118.000 43.709,118.000 44.185 C 118.000 44.660,116.875 45.477,115.500 46.000 C 114.125 46.523,113.000 47.412,113.000 47.975 C 113.000 48.539,112.372 49.000,111.605 49.000 C 110.838 49.000,109.150 50.117,107.855 51.483 C 106.560 52.848,105.097 53.973,104.605 53.983 C 103.551 54.003,102.315 55.138,90.726 66.726 C 79.690 77.763,78.493 79.098,77.704 81.250 C 77.351 82.213,76.653 83.000,76.153 83.000 C 75.652 83.000,74.683 84.350,74.000 86.000 C 73.317 87.650,72.417 89.000,72.000 89.000 C 71.583 89.000,70.683 90.350,70.000 92.000 C 69.317 93.650,68.391 95.000,67.943 95.000 C 67.496 95.000,66.560 96.575,65.864 98.500 C 65.168 100.425,64.311 102.000,63.959 102.000 C 63.608 102.000,62.726 103.800,62.000 106.000 C 61.274 108.200,60.352 110.000,59.950 110.000 C 59.549 110.000,58.623 112.025,57.892 114.500 C 57.161 116.975,56.244 119.000,55.853 119.000 C 55.463 119.000,54.590 121.475,53.913 124.500 C 53.236 127.525,52.365 130.000,51.978 130.000 C 51.591 130.000,50.714 133.488,50.028 137.750 C 49.343 142.012,48.420 145.728,47.977 146.006 C 45.478 147.577,44.385 199.002,46.851 198.999 C 47.208 198.999,47.344 201.249,47.153 203.999 C 46.963 206.750,47.228 209.000,47.743 209.000 C 48.258 209.000,49.243 212.150,49.931 216.000 C 50.619 219.850,51.591 223.000,52.091 223.000 C 52.591 223.000,53.000 223.907,53.000 225.016 C 53.000 227.675,55.306 235.000,56.144 235.000 C 56.505 235.000,57.340 237.250,58.000 240.000 C 58.660 242.750,59.570 245.000,60.022 245.000 C 60.475 245.000,61.393 246.688,62.064 248.750 C 62.734 250.813,63.894 252.860,64.641 253.300 C 65.389 253.740,66.000 254.720,66.000 255.478 C 66.000 256.237,66.563 257.452,67.250 258.179 C 67.938 258.905,69.175 260.836,70.000 262.470 C 70.825 264.103,72.095 266.128,72.823 266.970 C 76.412 271.122,78.998 274.571,78.999 275.208 C 78.999 275.597,81.475 278.332,84.500 281.285 C 87.525 284.239,90.000 287.197,90.000 287.859 C 90.000 288.521,90.788 289.345,91.750 289.690 C 92.713 290.035,95.779 292.608,98.564 295.409 C 101.348 298.209,104.935 301.175,106.533 302.000 C 108.131 302.825,110.187 304.175,111.101 305.000 C 114.560 308.123,117.574 310.101,119.678 310.632 C 120.875 310.934,122.082 311.772,122.360 312.496 C 122.638 313.219,124.245 314.115,125.932 314.485 C 127.620 314.856,129.000 315.555,129.000 316.039 C 129.000 316.524,130.800 317.459,133.000 318.118 C 135.200 318.777,137.000 319.689,137.000 320.144 C 137.000 320.599,139.025 321.481,141.500 322.104 C 143.975 322.728,146.000 323.585,146.000 324.010 C 146.000 324.435,148.925 325.364,152.500 326.075 C 156.075 326.786,159.000 327.734,159.000 328.183 C 159.000 328.633,160.575 329.000,162.500 329.000 L 166.000 329.000 166.015 295.750 C 166.024 277.462,166.371 263.035,166.786 263.688 C 167.202 264.342,169.782 265.252,172.521 265.711 L 177.500 266.546 177.762 304.886 L 178.024 343.227 174.762 342.664 C 172.968 342.354,169.363 341.802,166.750 341.437 C 164.137 341.072,162.000 340.446,162.000 340.047 C 162.000 339.648,158.738 338.710,154.750 337.963 C 150.762 337.216,146.946 336.060,146.270 335.394 C 145.593 334.727,143.231 333.877,141.020 333.503 C 138.809 333.130,137.000 332.485,137.000 332.070 C 137.000 331.656,135.200 330.777,133.000 330.118 C 130.800 329.459,129.000 328.559,129.000 328.118 C 129.000 327.677,127.200 326.777,125.000 326.118 C 122.800 325.459,121.000 324.572,121.000 324.147 C 121.000 323.721,119.425 322.755,117.500 322.000 C 115.575 321.245,114.000 320.345,114.000 320.000 C 114.000 319.655,112.444 318.763,110.542 318.016 C 108.640 317.270,106.854 316.061,106.573 315.330 C 106.292 314.598,105.389 314.000,104.567 314.000 C 103.744 314.000,102.589 313.100,102.000 312.000 C 101.411 310.900,100.383 309.992,99.715 309.983 C 99.047 309.973,97.440 308.848,96.145 307.483 C 94.850 306.117,93.432 305.000,92.995 305.000 C 91.944 305.000,75.000 288.036,75.000 286.985 C 75.000 286.536,73.650 284.895,72.000 283.338 C 70.350 281.781,69.000 279.943,69.000 279.253 C 69.000 278.564,68.539 278.000,67.975 278.000 C 67.412 278.000,66.523 276.875,66.000 275.500 C 65.477 274.125,64.643 273.000,64.146 273.000 C 63.649 273.000,62.683 271.650,62.000 270.000 C 61.317 268.350,60.406 267.000,59.977 267.000 C 59.547 267.000,58.725 265.650,58.150 264.000 C 57.575 262.350,56.702 261.000,56.210 261.000 C 55.719 261.000,54.777 259.200,54.118 257.000 C 53.459 254.800,52.559 253.000,52.118 253.000 C 51.677 253.000,50.777 251.200,50.118 249.000 C 49.459 246.800,48.573 245.000,48.149 245.000 C 47.725 245.000,46.801 242.750,46.097 240.000 C 45.392 237.250,44.500 235.000,44.114 235.000 C 43.728 235.000,42.797 232.188,42.045 228.750 C 41.293 225.313,40.328 222.266,39.901 221.979 C 39.473 221.693,38.553 217.418,37.856 212.479 C 37.159 207.541,36.119 203.179,35.545 202.786 C 34.094 201.795,34.108 151.191,35.559 150.213 C 36.141 149.821,37.162 145.922,37.827 141.548 C 38.492 137.174,39.381 133.349,39.801 133.048 C 40.222 132.747,41.151 129.575,41.865 126.000 C 42.580 122.425,43.578 119.350,44.082 119.167 C 45.264 118.737,45.289 112.000,44.108 112.000 C 43.618 112.000,42.934 110.875,42.589 109.500 C 41.552 105.368,31.719 105.754,29.840 110.000 C 29.109 111.650,28.233 113.000,27.893 113.000 C 27.552 113.000,26.686 115.813,25.968 119.250 C 25.250 122.688,24.304 125.742,23.864 126.039 C 23.425 126.335,22.505 129.935,21.820 134.039 C 21.135 138.142,20.226 141.748,19.800 142.051 C 16.728 144.237,16.685 208.829,19.754 210.898 C 20.245 211.229,21.248 215.438,21.984 220.250 C 22.720 225.063,23.638 229.000,24.024 229.000 C 24.411 229.000,25.300 231.700,26.000 235.000 C 26.700 238.300,27.580 241.000,27.956 241.000 C 28.331 241.000,29.251 243.250,30.000 246.000 C 30.749 248.750,31.659 251.000,32.022 251.000 C 32.386 251.000,33.223 252.800,33.882 255.000 C 34.541 257.200,35.441 259.000,35.882 259.000 C 36.323 259.000,37.223 260.800,37.882 263.000 C 38.541 265.200,39.428 267.000,39.853 267.000 C 40.279 267.000,41.245 268.575,42.000 270.500 C 42.755 272.425,43.655 274.000,44.000 274.000 C 44.345 274.000,45.245 275.575,46.000 277.500 C 46.755 279.425,47.750 281.000,48.211 281.000 C 48.672 281.000,49.477 282.125,50.000 283.500 C 50.523 284.875,51.412 286.000,51.975 286.000 C 52.539 286.000,53.000 286.649,53.000 287.443 C 53.000 288.237,53.829 289.475,54.841 290.193 C 55.854 290.912,57.182 292.442,57.793 293.594 C 59.003 295.876,83.812 320.999,84.858 321.001 C 85.439 321.002,89.002 323.695,93.030 327.177 C 93.872 327.905,95.897 329.174,97.530 329.998 C 99.164 330.822,100.860 332.060,101.300 332.748 C 101.740 333.437,102.730 334.000,103.500 334.000 C 104.270 334.000,105.260 334.589,105.700 335.309 C 106.140 336.029,108.075 337.240,110.000 338.002 C 111.925 338.763,113.725 339.637,114.000 339.943 C 115.059 341.123,119.043 343.000,120.486 343.000 C 121.319 343.000,122.000 343.378,122.000 343.840 C 122.000 344.302,123.800 345.274,126.000 346.000 C 128.200 346.726,130.000 347.626,130.000 348.000 C 130.000 348.374,132.475 349.274,135.500 350.000 C 138.525 350.726,141.000 351.639,141.000 352.030 C 141.000 352.420,143.813 353.293,147.250 353.969 C 150.688 354.644,153.738 355.581,154.030 356.051 C 154.321 356.521,158.821 357.423,164.030 358.056 C 169.238 358.689,174.400 359.599,175.500 360.079 C 176.600 360.558,181.325 361.074,186.000 361.225 L 194.500 361.500 194.760 315.250 L 195.020 269.000 201.010 269.000 L 207.000 269.000 207.000 314.893 C 207.000 356.200,207.161 360.848,208.614 361.405 C 210.727 362.216,229.000 360.925,229.000 359.965 C 229.000 359.558,233.500 358.652,239.000 357.951 C 244.500 357.250,249.000 356.350,249.000 355.952 C 249.000 355.553,251.925 354.675,255.500 354.000 C 259.075 353.325,262.000 352.428,262.000 352.005 C 262.000 351.583,264.025 350.728,266.500 350.104 C 268.975 349.481,271.000 348.613,271.000 348.175 C 271.000 347.737,273.250 346.801,276.000 346.097 C 278.750 345.392,281.000 344.425,281.000 343.948 C 281.000 343.471,282.800 342.541,285.000 341.882 C 287.200 341.223,289.000 340.349,289.000 339.940 C 289.000 339.530,290.350 338.725,292.000 338.150 C 293.650 337.575,295.000 336.666,295.000 336.131 C 295.000 335.597,296.380 334.856,298.068 334.485 C 299.755 334.115,301.378 333.179,301.675 332.406 C 301.971 331.633,302.815 331.000,303.550 331.000 C 304.285 331.000,305.475 330.212,306.193 329.250 C 306.912 328.287,308.845 326.825,310.490 326.000 C 312.134 325.175,314.706 323.262,316.206 321.750 C 317.706 320.238,319.235 319.000,319.605 319.000 C 320.461 319.000,343.000 296.494,343.000 295.638 C 343.000 294.956,344.056 293.659,349.425 287.751 C 351.299 285.689,353.429 282.651,354.160 281.001 C 354.890 279.350,355.744 278.000,356.057 278.000 C 356.371 278.000,357.245 276.425,358.000 274.500 C 358.755 272.575,359.685 271.000,360.065 271.000 C 360.446 271.000,361.317 269.650,362.000 268.000 C 362.683 266.350,363.567 265.000,363.963 265.000 C 364.359 265.000,365.223 263.200,365.882 261.000 C 366.541 258.800,367.512 257.000,368.040 257.000 C 368.568 257.000,369.000 256.121,369.000 255.047 C 369.000 253.061,370.963 247.909,372.066 247.000 C 372.400 246.725,373.295 244.362,374.055 241.750 C 374.815 239.137,375.748 237.000,376.128 237.000 C 376.508 237.000,377.366 233.737,378.034 229.750 C 378.702 225.762,379.657 222.240,380.156 221.921 C 380.655 221.603,381.576 217.103,382.203 211.921 C 382.829 206.740,383.792 202.200,384.344 201.834 C 385.748 200.901,385.664 152.029,384.256 151.154 C 383.677 150.794,382.652 146.113,381.978 140.750 C 381.304 135.387,380.441 131.000,380.060 131.000 C 379.679 131.000,378.786 128.075,378.075 124.500 C 377.364 120.925,376.432 118.000,376.003 118.000 C 375.574 118.000,374.908 116.313,374.523 114.250 C 373.218 107.253,364.871 104.247,359.818 108.955 C 357.570 111.050,357.536 123.458,359.775 124.876 C 360.316 125.219,361.348 128.200,362.068 131.500 C 362.787 134.800,363.658 137.725,364.002 138.000 C 364.864 138.688,367.015 153.544,367.007 158.750 C 367.003 161.088,367.450 163.000,368.000 163.000 C 368.619 163.000,369.000 168.333,369.000 177.000 C 369.000 185.667,368.619 191.000,368.000 191.000 C 367.450 191.000,367.000 192.861,367.000 195.137 C 367.000 201.088,364.768 217.000,363.933 217.000 C 363.544 217.000,362.675 219.925,362.000 223.500 C 361.325 227.075,360.446 230.000,360.046 230.000 C 359.647 230.000,358.726 232.475,358.000 235.500 C 357.274 238.525,356.309 241.000,355.855 241.000 C 355.400 241.000,354.519 243.025,353.896 245.500 C 353.272 247.975,352.438 250.000,352.041 250.000 C 351.645 250.000,350.734 251.777,350.017 253.948 C 349.301 256.119,348.146 258.114,347.451 258.380 C 346.757 258.647,345.885 260.245,345.515 261.932 C 345.144 263.620,344.416 265.000,343.896 265.000 C 343.376 265.000,342.523 266.125,342.000 267.500 C 341.477 268.875,340.698 270.000,340.269 270.000 C 339.840 270.000,338.848 271.462,338.067 273.250 C 337.285 275.038,335.825 277.088,334.822 277.807 C 333.820 278.525,333.000 279.538,333.000 280.057 C 333.000 280.576,331.313 282.795,329.250 284.989 C 327.188 287.184,322.800 291.904,319.500 295.478 C 316.200 299.053,313.103 301.983,312.618 301.989 C 312.133 301.995,310.251 303.575,308.435 305.500 C 306.620 307.425,304.680 309.000,304.124 309.000 C 303.568 309.000,302.525 309.820,301.807 310.822 C 301.088 311.825,299.038 313.285,297.250 314.067 C 295.462 314.848,294.000 315.840,294.000 316.269 C 294.000 316.698,292.875 317.477,291.500 318.000 C 290.125 318.523,289.000 319.328,289.000 319.789 C 289.000 320.250,287.425 321.245,285.500 322.000 C 283.575 322.755,282.000 323.667,282.000 324.027 C 282.000 324.386,280.200 325.274,278.000 326.000 C 275.800 326.726,274.000 327.648,274.000 328.050 C 274.000 328.451,271.975 329.377,269.500 330.108 C 267.025 330.839,265.000 331.744,265.000 332.119 C 265.000 332.494,262.750 333.340,260.000 334.000 C 257.250 334.660,255.000 335.532,255.000 335.939 C 255.000 336.346,251.850 337.274,248.000 338.000 C 244.150 338.726,241.000 339.641,241.000 340.032 C 241.000 340.422,238.687 341.049,235.860 341.424 C 233.033 341.799,229.433 342.363,227.860 342.678 L 225.000 343.250 225.000 304.719 L 225.000 266.188 230.000 265.500 C 232.750 265.122,235.000 264.405,235.000 263.906 C 235.000 263.408,235.450 263.000,236.000 263.000 C 236.646 263.000,237.000 274.667,237.000 296.000 L 237.000 329.000 240.000 329.000 C 241.650 329.000,243.000 328.550,243.000 328.000 C 243.000 327.450,243.907 327.000,245.016 327.000 C 247.576 327.000,255.000 324.707,255.000 323.916 C 255.000 323.588,257.475 322.726,260.500 322.000 C 263.525 321.274,266.000 320.374,266.000 320.000 C 266.000 319.626,267.800 318.726,270.000 318.000 C 272.200 317.274,274.000 316.386,274.000 316.027 C 274.000 315.667,275.575 314.755,277.500 314.000 C 279.425 313.245,281.000 312.315,281.000 311.935 C 281.000 311.554,282.350 310.683,284.000 310.000 C 285.650 309.317,287.000 308.434,287.000 308.039 C 287.000 307.644,288.142 306.801,289.538 306.165 C 292.359 304.880,294.098 303.581,297.459 300.250 C 298.708 299.012,300.073 298.000,300.493 298.000 C 301.694 298.000,322.000 277.383,322.000 276.163 C 322.000 275.562,322.900 274.589,324.000 274.000 C 325.100 273.411,326.000 272.256,326.000 271.433 C 326.000 270.611,326.634 269.694,327.408 269.397 C 328.183 269.100,329.363 267.539,330.030 265.928 C 330.697 264.318,331.583 263.000,332.000 263.000 C 332.417 263.000,333.317 261.650,334.000 260.000 C 334.683 258.350,335.602 257.000,336.042 257.000 C 336.481 257.000,337.144 255.620,337.515 253.932 C 337.885 252.245,338.775 250.640,339.493 250.364 C 340.210 250.089,341.299 247.870,341.913 245.432 C 342.527 242.994,343.431 241.000,343.922 241.000 C 344.413 241.000,345.392 238.750,346.097 236.000 C 346.801 233.250,347.694 231.000,348.081 231.000 C 348.467 231.000,349.364 228.075,350.075 224.500 C 350.786 220.925,351.668 218.000,352.037 218.000 C 352.819 218.000,355.000 205.528,355.000 201.057 C 355.000 199.376,355.450 198.000,356.000 198.000 C 356.634 198.000,357.000 190.500,357.000 177.500 C 357.000 164.500,356.634 157.000,356.000 157.000 C 355.450 157.000,355.003 155.537,355.007 153.750 C 355.016 148.911,352.759 135.000,351.964 135.000 C 351.584 135.000,350.700 132.300,350.000 129.000 C 349.300 125.700,348.436 123.000,348.082 123.000 C 347.727 123.000,346.839 120.975,346.108 118.500 C 345.377 116.025,344.429 114.000,344.001 114.000 C 343.573 114.000,342.930 112.439,342.572 110.532 C 342.214 108.625,341.377 106.487,340.711 105.782 C 340.045 105.077,338.826 103.150,338.002 101.500 C 337.177 99.850,336.252 98.275,335.945 98.000 C 335.638 97.725,334.795 96.037,334.072 94.250 C 333.349 92.463,332.392 91.000,331.946 91.000 C 331.500 91.000,330.838 90.066,330.476 88.924 C 330.113 87.782,328.396 85.381,326.658 83.589 C 324.921 81.797,322.916 79.233,322.202 77.891 C 321.488 76.549,319.577 74.562,317.955 73.476 C 316.333 72.389,315.004 70.970,315.003 70.321 C 315.000 68.984,308.682 62.000,307.476 62.000 C 307.043 62.000,304.951 60.228,302.828 58.062 C 300.705 55.897,298.075 53.841,296.984 53.495 C 295.893 53.149,295.000 52.434,295.000 51.908 C 295.000 51.381,293.875 50.523,292.500 50.000 C 291.125 49.477,290.000 48.672,290.000 48.211 C 290.000 47.750,288.425 46.755,286.500 46.000 C 284.575 45.245,283.000 44.237,283.000 43.761 C 283.000 43.285,281.650 42.425,280.000 41.850 C 278.350 41.275,277.000 40.398,277.000 39.902 C 277.000 39.406,275.200 39.000,273.000 39.000 C 270.800 39.000,269.000 39.450,269.000 40.000 C 269.000 40.550,268.334 41.000,267.519 41.000 C 264.183 41.000,264.167 52.563,267.500 54.399 C 268.600 55.004,269.725 55.761,270.000 56.080 C 270.275 56.399,271.962 57.297,273.750 58.074 C 275.538 58.852,277.000 59.840,277.000 60.269 C 277.000 60.698,278.125 61.477,279.500 62.000 C 280.875 62.523,282.000 63.460,282.000 64.082 C 282.000 64.705,282.618 64.977,283.374 64.687 C 284.162 64.385,285.296 65.185,286.034 66.563 C 286.741 67.885,288.107 69.217,289.069 69.522 C 290.876 70.095,308.999 87.657,309.001 88.836 C 309.002 89.451,311.992 93.396,315.220 97.043 C 315.971 97.891,317.184 100.029,317.914 101.793 C 318.645 103.557,319.594 105.000,320.023 105.000 C 320.453 105.000,321.275 106.350,321.850 108.000 C 322.425 109.650,323.298 111.000,323.790 111.000 C 324.281 111.000,325.223 112.800,325.882 115.000 C 326.541 117.200,327.440 119.000,327.880 119.000 C 328.321 119.000,329.274 121.475,330.000 124.500 C 330.726 127.525,331.636 130.000,332.023 130.000 C 332.410 130.000,333.314 132.813,334.032 136.250 C 334.750 139.688,335.636 142.725,336.001 143.000 C 336.903 143.679,339.000 156.923,339.000 161.943 C 339.000 164.174,339.450 166.000,340.000 166.000 C 340.609 166.000,341.000 170.500,341.000 177.500 C 341.000 183.825,340.641 189.000,340.202 189.000 C 339.764 189.000,338.868 193.809,338.211 199.686 C 337.554 205.563,336.661 210.626,336.225 210.936 C 335.790 211.246,334.855 214.375,334.149 217.889 C 333.442 221.404,332.274 224.869,331.552 225.590 C 330.831 226.312,329.941 228.499,329.575 230.451 C 329.209 232.403,328.552 234.000,328.115 234.000 C 327.678 234.000,326.726 235.800,326.000 238.000 C 325.274 240.200,324.374 242.000,324.000 242.000 C 323.626 242.000,322.726 243.800,322.000 246.000 C 321.274 248.200,320.291 250.000,319.815 250.000 C 319.340 250.000,318.523 251.125,318.000 252.500 C 317.477 253.875,316.588 255.000,316.025 255.000 C 315.461 255.000,314.994 255.563,314.987 256.250 C 314.972 257.615,311.795 261.975,308.250 265.495 C 307.013 266.724,306.000 268.074,306.000 268.494 C 306.000 269.493,293.493 282.000,292.494 282.000 C 292.074 282.000,290.724 283.013,289.495 284.250 C 285.975 287.795,281.615 290.972,280.250 290.987 C 279.563 290.994,279.000 291.461,279.000 292.025 C 279.000 292.588,277.875 293.477,276.500 294.000 C 275.125 294.523,274.000 295.340,274.000 295.815 C 274.000 296.291,272.200 297.274,270.000 298.000 C 267.800 298.726,266.000 299.722,266.000 300.212 C 266.000 300.703,264.650 301.575,263.000 302.150 C 261.350 302.725,260.000 303.551,260.000 303.984 C 260.000 304.418,258.650 304.971,257.000 305.213 L 254.000 305.654 254.000 277.827 C 254.000 254.191,254.218 250.000,255.449 250.000 C 257.190 250.000,266.000 241.878,266.000 240.273 C 266.000 239.651,266.708 238.435,267.572 237.571 C 269.345 235.797,270.841 225.000,269.313 225.000 C 268.781 225.000,268.545 223.650,268.787 222.000 C 269.051 220.199,268.782 219.000,268.113 219.000 C 267.501 219.000,267.000 218.194,267.000 217.209 C 267.000 216.224,265.200 213.763,263.000 211.740 C 259.207 208.253,256.863 199.000,259.772 199.000 C 260.197 199.000,261.118 195.976,261.819 192.280 C 262.520 188.584,263.453 185.322,263.893 185.030 C 264.332 184.739,264.974 183.345,265.319 181.934 C 265.664 180.523,266.844 178.332,267.943 177.066 C 269.042 175.799,270.209 173.916,270.538 172.881 C 270.866 171.847,271.667 170.999,272.317 170.999 C 272.968 170.998,274.807 169.873,276.406 168.499 C 278.004 167.124,279.621 166.000,280.000 166.000 C 283.331 166.000,286.275 160.891,286.747 154.293 C 287.243 147.363,285.456 133.000,284.099 133.000 C 283.702 133.000,282.801 130.750,282.097 128.000 C 281.392 125.250,280.425 123.000,279.948 123.000 C 279.471 123.000,278.541 121.200,277.882 119.000 C 277.223 116.800,276.349 115.000,275.940 115.000 C 275.530 115.000,274.725 113.650,274.150 112.000 C 273.575 110.350,272.666 109.000,272.131 109.000 C 271.597 109.000,270.856 107.620,270.485 105.932 C 270.115 104.245,269.255 102.652,268.576 102.391 C 267.897 102.130,266.730 100.360,265.984 98.458 C 265.237 96.556,264.250 95.000,263.789 95.000 C 263.328 95.000,262.523 93.875,262.000 92.500 C 261.477 91.125,260.588 90.000,260.025 90.000 C 259.461 90.000,259.000 89.329,259.000 88.508 C 259.000 87.688,258.100 86.455,257.000 85.768 C 255.900 85.081,255.000 83.999,255.000 83.364 C 255.000 82.729,253.883 81.150,252.517 79.855 C 251.152 78.560,250.027 77.103,250.017 76.618 C 250.008 76.133,248.425 74.251,246.500 72.435 C 244.575 70.620,243.000 68.811,243.000 68.415 C 243.000 67.254,225.341 50.000,224.153 50.000 C 223.558 50.000,222.589 49.100,222.000 48.000 C 221.411 46.900,220.256 46.000,219.433 46.000 C 218.611 46.000,217.691 45.357,217.389 44.572 C 217.088 43.787,214.627 42.577,211.921 41.883 C 209.214 41.189,207.000 40.257,207.000 39.811 C 207.000 39.365,204.300 39.000,201.000 39.000 C 197.700 39.000,195.000 39.352,195.000 39.782 C 195.000 40.212,192.975 41.161,190.500 41.892 C 188.025 42.623,186.000 43.632,186.000 44.135 C 186.000 44.638,184.875 45.477,183.500 46.000 C 182.125 46.523,181.000 47.381,181.000 47.908 C 181.000 48.434,180.132 49.141,179.070 49.478 C 176.903 50.166,158.000 68.716,158.000 70.155 C 158.000 70.663,156.313 72.852,154.250 75.020 C 148.481 81.081,147.000 82.914,147.000 83.992 C 147.000 84.537,146.100 85.545,145.000 86.232 C 143.900 86.919,142.999 87.935,142.999 88.491 C 142.998 89.046,141.886 90.793,140.527 92.372 C 139.169 93.952,137.789 96.090,137.461 97.122 C 137.133 98.155,136.500 99.000,136.054 99.000 C 135.608 99.000,134.652 100.463,133.930 102.250 C 133.208 104.037,132.064 105.840,131.387 106.256 C 130.710 106.672,129.860 108.359,129.499 110.006 C 129.137 111.653,128.427 113.000,127.921 113.000 C 127.414 113.000,127.000 113.590,127.000 114.311 C 127.000 115.033,126.135 116.551,125.078 117.686 C 124.020 118.821,122.574 121.719,121.864 124.125 C 121.153 126.531,120.006 129.082,119.315 129.793 C 118.623 130.504,117.762 133.316,117.400 136.043 C 117.038 138.769,116.350 141.000,115.871 141.000 C 115.392 141.000,115.000 145.050,115.000 150.000 C 115.000 154.950,115.340 159.000,115.756 159.000 C 116.172 159.000,117.079 160.281,117.772 161.847 C 118.465 163.412,120.167 165.211,121.554 165.842 C 124.564 167.214,125.971 168.328,130.822 173.178 C 136.347 178.704,136.835 179.459,138.084 184.421 C 138.719 186.940,139.579 189.000,139.997 189.000 C 140.754 189.000,143.000 202.002,143.000 206.380 C 143.000 207.862,142.111 209.084,140.500 209.818 C 139.125 210.445,138.000 211.619,138.000 212.429 C 138.000 213.238,137.373 214.260,136.607 214.700 C 127.722 219.800,135.440 246.813,146.580 249.609 L 149.000 250.217 149.000 278.127 L 149.000 306.038 146.260 305.350 C 144.753 304.972,142.957 304.100,142.270 303.413 C 141.583 302.726,139.666 301.866,138.010 301.502 C 136.355 301.139,135.000 300.403,135.000 299.869 C 135.000 299.334,133.650 298.425,132.000 297.850 C 130.350 297.275,129.000 296.508,129.000 296.146 C 129.000 295.784,127.582 294.861,125.850 294.094 C 122.527 292.623,122.085 292.290,115.087 285.979 C 112.660 283.791,110.339 282.000,109.929 282.000 C 108.878 282.000,97.000 269.892,97.000 268.820 C 97.000 268.335,95.425 266.493,93.500 264.726 C 91.575 262.959,90.000 260.964,90.000 260.292 C 90.000 259.620,89.137 258.608,88.081 258.044 C 87.026 257.479,85.865 255.663,85.502 254.008 C 85.138 252.354,84.403 251.000,83.869 251.000 C 83.334 251.000,82.425 249.650,81.850 248.000 C 81.275 246.350,80.427 245.000,79.967 245.000 C 79.506 245.000,78.560 243.425,77.864 241.500 C 77.168 239.575,76.292 238.000,75.918 238.000 C 75.544 238.000,74.728 235.975,74.104 233.500 C 73.481 231.025,72.599 229.000,72.145 229.000 C 71.690 229.000,70.764 226.525,70.087 223.500 C 69.410 220.475,68.494 218.000,68.051 218.000 C 67.607 218.000,66.673 214.288,65.976 209.750 C 65.278 205.213,64.210 201.179,63.603 200.787 C 62.116 199.825,62.059 155.229,63.544 154.214 C 64.119 153.821,65.178 149.900,65.899 145.500 C 66.620 141.100,67.547 137.275,67.959 137.000 C 68.372 136.725,69.270 134.137,69.955 131.250 C 70.639 128.363,71.555 126.000,71.988 126.000 C 72.422 126.000,73.070 124.439,73.428 122.532 C 73.786 120.625,74.668 118.475,75.388 117.755 C 76.109 117.034,77.251 114.770,77.927 112.722 C 78.602 110.675,79.486 109.000,79.891 109.000 C 80.296 109.000,81.245 107.425,82.000 105.500 C 82.755 103.575,83.750 102.000,84.211 102.000 C 84.672 102.000,85.477 100.875,86.000 99.500 C 86.523 98.125,87.412 97.000,87.975 97.000 C 88.539 97.000,89.006 96.438,89.013 95.750 C 89.050 92.328,116.107 65.059,119.509 65.013 C 120.065 65.006,121.081 64.100,121.768 63.000 C 122.455 61.900,123.688 61.000,124.508 61.000 C 125.329 61.000,126.000 60.660,126.000 60.244 C 126.000 59.828,127.463 58.844,129.250 58.056 C 131.037 57.268,133.054 56.073,133.732 55.401 C 134.410 54.729,135.467 54.011,136.080 53.807 C 138.768 52.911,138.410 44.109,135.580 41.487 C 132.975 39.073,126.000 37.874,126.000 39.840 M162.179 215.306 C 162.905 216.024,164.287 216.910,165.250 217.275 C 166.213 217.639,167.000 218.578,167.000 219.362 C 167.000 220.145,167.675 221.045,168.500 221.362 C 169.581 221.777,170.000 223.470,170.000 227.427 C 170.000 239.388,155.985 246.432,148.426 238.269 C 143.304 232.738,143.000 232.163,143.000 228.000 C 143.000 223.897,143.333 223.247,148.079 218.085 C 151.937 213.890,159.281 212.442,162.179 215.306 M254.264 217.355 C 260.889 223.980,260.825 234.696,254.140 238.140 C 252.688 238.888,250.855 240.112,250.068 240.861 C 248.454 242.394,239.744 241.695,239.167 239.986 C 238.983 239.444,238.229 239.000,237.490 239.000 C 236.100 239.000,233.000 233.716,233.000 231.346 C 233.000 230.606,232.550 230.000,232.000 230.000 C 231.450 230.000,231.000 229.100,231.000 228.000 C 231.000 226.900,231.400 226.000,231.889 226.000 C 232.377 226.000,233.077 224.404,233.443 222.454 C 233.895 220.042,234.890 218.552,236.554 217.793 C 237.899 217.180,239.000 216.334,239.000 215.913 C 239.000 212.850,250.881 213.972,254.264 217.355 " stroke="none" fill-rule="evenodd"></path></g></svg>