<svg id="svg" version="1.1" width="400" height="400" xmlns="http://www.w3.org/2000/svg" xmlns:xlink="http://www.w3.org/1999/xlink" style="display: block;"><g id="svgg"><path id="path0" d="M88.961 41.462 C 86.215 42.955,85.985 43.564,73.994 81.000 C 70.559 91.725,63.827 112.425,59.034 127.000 C 54.241 141.575,49.282 156.875,48.013 161.000 C 46.744 165.125,44.481 172.325,42.983 177.000 C 41.486 181.675,39.263 188.875,38.043 193.000 C 36.824 197.125,35.025 202.975,34.047 206.000 C 30.029 218.420,29.502 220.725,29.551 225.651 C 29.610 231.635,31.804 234.294,43.000 241.950 C 46.575 244.394,49.725 246.665,50.000 246.995 C 50.275 247.326,52.075 248.678,54.000 250.000 C 55.925 251.322,57.725 252.650,58.000 252.952 C 58.275 253.253,61.425 255.501,65.000 257.947 C 68.575 260.393,71.725 262.665,72.000 262.995 C 72.275 263.326,74.075 264.678,76.000 266.000 C 77.925 267.322,79.725 268.650,80.000 268.952 C 80.275 269.253,83.425 271.501,87.000 273.947 C 90.575 276.393,93.725 278.656,94.000 278.976 C 94.275 279.295,99.225 282.906,105.000 287.000 C 110.775 291.094,115.725 294.694,116.000 295.000 C 116.275 295.306,121.225 298.906,127.000 303.000 C 132.775 307.094,137.725 310.694,138.000 311.000 C 138.275 311.306,143.225 314.906,149.000 319.000 C 154.775 323.094,159.725 326.694,160.000 327.000 C 160.275 327.306,165.225 330.906,171.000 335.000 C 176.775 339.094,181.725 342.686,182.000 342.983 C 182.275 343.281,186.434 346.355,191.242 349.815 L 199.984 356.107 204.742 352.869 C 207.359 351.089,209.725 349.356,210.000 349.018 C 210.275 348.680,212.075 347.322,214.000 346.000 C 215.925 344.678,217.725 343.350,218.000 343.048 C 218.275 342.747,221.425 340.499,225.000 338.053 C 228.575 335.607,231.725 333.335,232.000 333.005 C 232.275 332.674,234.075 331.322,236.000 330.000 C 237.925 328.678,239.725 327.350,240.000 327.048 C 240.275 326.747,243.425 324.499,247.000 322.053 C 250.575 319.607,253.725 317.335,254.000 317.005 C 254.275 316.674,256.075 315.322,258.000 314.000 C 259.925 312.678,261.725 311.350,262.000 311.048 C 262.275 310.747,265.425 308.499,269.000 306.053 C 272.575 303.607,275.725 301.335,276.000 301.005 C 276.275 300.674,278.075 299.322,280.000 298.000 C 281.925 296.678,283.725 295.326,284.000 294.995 C 284.275 294.665,287.425 292.393,291.000 289.947 C 294.575 287.501,297.725 285.253,298.000 284.952 C 298.275 284.650,300.075 283.322,302.000 282.000 C 303.925 280.678,305.725 279.326,306.000 278.995 C 306.275 278.665,309.425 276.393,313.000 273.947 C 316.575 271.501,319.725 269.253,320.000 268.952 C 320.275 268.650,322.075 267.322,324.000 266.000 C 325.925 264.678,327.725 263.326,328.000 262.995 C 328.275 262.665,331.425 260.393,335.000 257.947 C 338.575 255.501,341.725 253.253,342.000 252.952 C 342.275 252.650,344.075 251.322,346.000 250.000 C 347.925 248.678,349.725 247.326,350.000 246.995 C 350.275 246.665,353.425 244.394,357.000 241.950 C 368.196 234.294,370.390 231.635,370.449 225.651 C 370.498 220.725,369.971 218.420,365.953 206.000 C 364.975 202.975,363.176 197.125,361.957 193.000 C 360.737 188.875,358.514 181.675,357.017 177.000 C 355.519 172.325,353.256 165.125,351.987 161.000 C 350.718 156.875,345.759 141.575,340.966 127.000 C 336.173 112.425,329.441 91.725,326.006 81.000 C 313.443 41.776,313.891 42.916,310.362 41.233 C 302.417 37.444,302.029 38.275,280.992 104.000 C 273.504 127.395,264.098 156.012,262.832 159.250 L 261.757 162.000 200.000 162.000 L 138.243 162.000 137.168 159.250 C 135.902 156.012,126.496 127.395,119.008 104.000 C 97.804 37.751,97.384 36.879,88.961 41.462 " stroke="none" fill="#000000" fill-rule="evenodd"></path></g></svg>