<?xml version="1.0" encoding="UTF-8" standalone="no"?>
<!DOCTYPE svg PUBLIC "-//W3C//DTD SVG 1.1//EN" "http://www.w3.org/Graphics/SVG/1.1/DTD/svg11.dtd">
<svg width="100%" height="100%" viewBox="0 0 515 515" version="1.1" xmlns="http://www.w3.org/2000/svg" xmlns:xlink="http://www.w3.org/1999/xlink" xml:space="preserve" xmlns:serif="http://www.serif.com/" style="fill-rule:evenodd;clip-rule:evenodd;stroke-linejoin:round;stroke-miterlimit:2;">
    <g id="svgg">
        <path id="path0" d="M156,1C156,1.951 147.85,2.095 147.083,2.325C146.063,2.631 145.937,4.369 144.917,4.675C144.388,4.834 137.289,5.185 136.875,5.35C134.928,6.129 137.097,7.92 135.062,8.659C134.631,8.816 126.726,9.165 126.167,9.318C124.473,9.78 120.664,12.502 119,13.5C117.13,14.622 115.711,17.808 114.312,18.607C111.336,20.308 110.884,18.77 108,20.5C106.282,21.531 105.633,24.853 104.312,25.607C102.405,26.697 99.928,26.448 98,27.5C92.832,30.319 88.187,37.38 84,41.567C81.267,44.3 77.381,46.552 75.5,50C74.448,51.928 74.697,54.405 73.607,56.312C73.029,57.324 70.971,56.676 70.393,57.688C68.692,60.664 70.23,61.116 68.5,64C67.694,65.343 64.761,66.63 64.325,68.083C64.166,68.612 63.815,75.711 63.65,76.125C62.828,78.18 60.913,76.055 60.321,78.125C60.185,78.602 59.834,88.941 59.696,89.584C59.235,91.738 57.617,90.681 57.286,93C57.163,93.862 56.818,109.83 56.702,110.437C56.179,113.186 53.447,111.398 53.283,114.125C52.906,120.415 52.906,133.585 53.283,139.875C53.447,142.602 56.179,140.814 56.702,143.563C56.818,144.17 57.163,160.138 57.286,161C57.575,163.025 59.059,162.031 59.675,164.083C59.834,164.612 60.185,171.711 60.35,172.125C61.172,174.18 63.087,172.055 63.679,174.125C63.815,174.602 64.166,184.941 64.304,185.584C64.695,187.411 66.264,188.782 67,190.5C68.206,193.315 68.983,197.844 70.393,200.312C70.971,201.324 73.029,200.676 73.607,201.688C77.539,208.568 75.563,216.267 77.309,223.687C77.829,225.899 79.831,223.828 80.65,225.875C81.117,227.042 81.117,232.958 80.65,234.125C79.828,236.18 77.913,234.055 77.321,236.125C77.185,236.602 76.834,246.941 76.696,247.584C76.297,249.449 74.86,248.301 74.325,250.083C74.166,250.612 73.815,257.711 73.65,258.125C73.065,259.587 71.094,258.461 70.393,259.688C69.303,261.595 69.552,264.072 68.5,266C66.99,268.769 65.178,272.984 63.584,275.375C62.568,276.898 59.654,277.884 58.5,280C57.448,281.928 57.697,284.405 56.607,286.312C54.992,289.138 48.298,291.804 46.417,294.625C44.2,297.95 43.83,303.444 41.567,307C40.538,308.618 38.462,309.382 37.433,311C36.075,313.134 35.849,315.86 34.5,318C33.586,319.45 31.924,320.324 31,321.768C28.498,325.677 27.721,330.613 25.607,334.312C25.029,335.324 22.971,334.676 22.393,335.688C19.616,340.548 20.618,346.204 18.65,351.125C17.828,353.18 15.913,351.055 15.321,353.125C15.185,353.602 14.834,363.941 14.696,364.583C14.567,365.188 13.735,365.428 13.5,366C10.475,373.361 12,386.451 12,391.5C12,395.276 10.475,409.922 13.5,417C13.716,417.506 14.534,417.623 14.681,418.153C16.171,423.535 13.951,423.719 15.582,429.086C16.471,432.014 20.74,435.968 21.675,439.083C21.834,439.612 22.185,446.711 22.35,447.125C22.935,448.587 24.906,447.461 25.607,448.688C27.308,451.664 25.77,452.116 27.5,455C28.531,456.718 31.853,457.367 32.607,458.688C33.697,460.595 33.448,463.072 34.5,465C36.247,468.202 39.776,469.276 41.607,472C44.39,476.138 45.993,482.924 50.688,485.607C53.664,487.308 54.116,485.77 57,487.5C59,488.7 60.237,491.458 62,493C64.39,495.091 67.562,495.629 70,497.531C73.567,500.314 77.651,504.345 82.083,505.675C82.612,505.834 89.711,506.185 90.125,506.35C91.281,506.813 90.719,509.187 91.875,509.65C92.289,509.815 99.388,510.166 99.917,510.325C101.699,510.86 100.551,512.297 102.417,512.696C112.602,514.879 128.662,515 137.5,515C145.57,515 161.921,514.941 171.667,512.692C173.469,512.276 172.303,510.826 174.167,510.318C174.726,510.165 182.631,509.816 183.062,509.659C184.689,509.068 183.381,507.139 184.688,506.393C189.96,503.38 198.04,502.62 203.312,499.607C204.324,499.029 203.676,496.971 204.688,496.393C207.574,494.744 208.051,496.381 211,494.617C212.516,493.71 213.617,491.62 215,490.594C217.51,488.731 220.603,488.098 223,486C224.128,485.013 224.386,483.137 225.688,482.393C229.345,480.303 234.976,479.481 239,477.5C241.503,476.268 243.696,473.543 245.857,472.436C249.373,470.637 254.929,470.541 258.312,468.607C259.324,468.029 258.676,465.971 259.688,465.393C261.137,464.565 265.611,462.767 267.083,462.325C267.612,462.166 274.711,461.815 275.125,461.65C277.18,460.828 275.055,458.913 277.125,458.321C277.602,458.185 287.941,457.834 288.583,457.696C290.581,457.268 289.511,455.674 291.667,455.294C292.411,455.163 305.146,454.818 305.687,454.691C307.585,454.245 305.849,452.397 307.875,451.855C309.696,451.368 311.615,451.293 313.5,451.26C343.752,450.734 379.161,454.573 408.417,448.304C412.062,447.523 415.938,448.477 419.583,447.696C421.387,447.31 420.262,445.904 422.016,445.332C423.389,444.883 428.1,445.121 429.399,444.613C430.934,444.012 430.471,442.146 431.857,441.436C435.373,439.637 440.929,439.541 444.312,437.607C445.22,437.088 444.789,434.974 445.625,434.417C447.76,432.993 450.751,432.968 453,431C454.763,429.458 456,426.7 458,425.5C460.164,424.202 462.834,423.912 465,422.617C468.492,420.528 475.379,413.438 477.567,410C478.925,407.866 479.198,405.169 480.5,403C481.531,401.282 484.853,400.633 485.607,399.312C487.308,396.336 485.77,395.884 487.5,393C488.531,391.282 491.853,390.633 492.607,389.312C495.381,384.459 494.574,378.996 496.384,373.959C496.933,372.43 498.794,372.625 499.525,371.32C500.28,369.974 502.401,365.961 502.696,364.583C503.477,360.938 502.523,357.062 503.304,353.417C504.01,350.119 505.545,350.725 505.736,347.417C506.088,341.307 506.088,310.693 505.736,304.583C505.545,301.288 504.077,301.999 503.308,298.667C502.532,295.304 503.468,291.696 502.692,288.333C502.279,286.545 500.853,287.698 500.324,285.901C499.93,284.565 500.07,278.912 499.626,277.667C499.079,276.129 497.215,276.485 496.469,275.214C493.602,270.331 494.443,265.767 492.626,260.667C491.781,258.295 489.859,259.864 489.325,257.488C488.806,255.175 489.003,252.754 489,250.383C488.997,248.019 488.761,245.597 489.31,243.298C489.838,241.084 491.599,243.077 492.607,241.312C493.44,239.854 495.219,235.415 495.673,233.936C496.089,232.583 495.909,227.329 496.379,226.06C496.949,224.517 498.814,224.927 499.546,223.604C500.315,222.213 502.39,218.011 502.696,216.584C503.477,212.938 502.523,209.062 503.304,205.416C504.412,200.245 505.45,200.702 505.772,195.585C506.888,177.82 507.98,157.376 502.673,140.065C502.362,139.051 500.63,138.933 500.325,137.917C500.166,137.388 499.815,130.289 499.65,129.875C499.065,128.413 497.094,129.539 496.393,128.312C494.451,124.914 494.549,119.086 492.607,115.688C492.029,114.676 489.971,115.324 489.393,114.312C487.547,111.082 487.397,105.742 485.546,102.396C483.334,98.397 476.811,94.05 473.393,91C468.273,86.431 464.07,78.811 458,75.5C456.072,74.448 453.595,74.697 451.688,73.607C450.367,72.853 449.718,69.531 448,68.5C444.018,66.111 438.451,65.758 434.688,63.607C433.676,63.029 434.324,60.971 433.312,60.393C428.452,57.616 422.796,58.618 417.875,56.65C415.82,55.828 417.945,53.913 415.875,53.321C415.398,53.185 405.059,52.834 404.417,52.696C401.256,52.019 402.014,50.469 398.75,50.266C393.086,49.911 364.914,49.911 359.25,50.266C355.983,50.47 356.72,51.988 353.667,52.692C353.051,52.834 343.525,53.185 343.063,53.327C340.915,53.988 343.071,55.929 341.062,56.659C340.631,56.816 332.726,57.165 332.167,57.318C330.433,57.791 331.691,59.143 329.917,59.675C329.388,59.834 322.289,60.185 321.875,60.35C319.828,61.169 321.899,63.171 319.687,63.691C317.937,64.103 307.063,64.103 305.313,63.691C303.095,63.169 305.096,61.412 303.312,60.393C300.336,58.692 299.884,60.23 297,58.5C293.291,56.275 289.835,51.24 287,48C286.028,46.889 284.262,46.603 283.423,45.388C282.274,43.726 282.458,41.418 281.5,39.638C279.69,36.274 274.31,31.733 271.469,29C269.205,26.822 265.819,27.103 263.612,25.577C262.076,24.515 261.142,21.668 259,20.5C257.072,19.448 254.595,19.697 252.688,18.607C251.367,17.853 250.718,14.531 249,13.5C247.182,12.409 242.745,9.874 240.917,9.325C240.388,9.166 233.289,8.815 232.875,8.65C231.413,8.065 232.539,6.094 231.312,5.393C225.74,2.209 217.308,1.366 211,1C211,1 156,-1.667 156,1M205,44.5C205,46.256 209.572,45.881 210.375,46.417C211.211,46.974 210.78,49.088 211.688,49.607C213.595,50.697 215.981,50.635 218,51.5C220.019,52.365 222.405,52.303 224.312,53.393C225.633,54.147 226.282,57.469 228,58.5C230.169,59.802 232.866,60.075 235,61.433C237.888,63.271 241.19,67.368 243.5,70C245.622,72.417 244.331,72.849 245.73,75.577C246.604,77.28 249.388,79.112 250.5,81C252.074,83.672 251.003,83.981 252.454,86.604C252.975,87.545 254.991,87.865 255.531,88.786C257.428,92.017 257.605,97.184 259.393,100.312C259.971,101.324 262.029,100.676 262.607,101.688C263.697,103.595 263.448,106.072 264.5,108C266.722,112.074 271.5,114.5 274.5,118C275.415,119.068 275.467,120.909 276.688,121.607C286.397,127.155 303.603,127.155 313.312,121.607C314.324,121.029 313.676,118.971 314.688,118.393C317.664,116.692 318.116,118.23 321,116.5C322.213,115.772 322.787,114.228 324,113.5C326.884,111.77 327.336,113.308 330.312,111.607C331.77,110.774 333.002,107.59 335,106.5C336.928,105.448 339.405,105.697 341.312,104.607C342.22,104.088 341.789,101.974 342.625,101.417C343.664,100.724 348.239,98.556 349.417,98.304C350.059,98.166 360.398,97.815 360.875,97.679C363.297,96.987 361.374,94.688 363.75,94.292C366.083,93.903 381.917,93.903 384.25,94.292C386.626,94.688 384.703,96.987 387.125,97.679C387.602,97.815 397.941,98.166 398.583,98.304C400.449,98.703 399.301,100.14 401.083,100.675C401.612,100.834 408.711,101.185 409.125,101.35C410.587,101.935 409.461,103.906 410.688,104.607C412.595,105.697 415.072,105.448 417,106.5C420.052,108.165 421.193,111.816 424,113.5C426.177,114.806 428.823,115.194 431,116.5C434.073,118.344 432.995,121.866 434.393,124.312C436.103,127.304 442.979,129.838 444.607,132.688C447.711,138.12 448.86,145.983 451.73,151.577C452.552,153.179 454.289,152.515 454.697,154.417C454.822,155 455.197,164.373 455.317,164.822C455.887,166.938 457.857,165.45 458.165,167.701C458.504,170.182 458.078,182.257 457.644,184.866C457.272,187.1 455.77,186.183 455.301,188.469C454.562,192.074 455.419,195.884 454.7,199.494C454.234,201.836 452.536,200.399 451.649,202.639C449.677,207.618 449.485,213.141 446.5,218C444.846,220.692 441.145,222.207 439.5,225C437.726,228.012 439.28,228.384 437.607,231.312C436.853,232.633 433.531,233.282 432.5,235C430.77,237.884 432.308,238.336 430.607,241.312C429.539,243.182 427.75,241.237 427.299,243.512C426.88,245.627 426.916,258.584 427.313,260.692C427.728,262.898 431.399,264.208 432.5,266C434.331,268.979 432.715,269.376 434.393,272.312C436.021,275.162 442.897,277.696 444.607,280.688C446.697,284.345 447.519,289.976 449.5,294C450.586,296.206 454.227,299.449 454.679,301.575C454.928,302.745 455.062,314.906 455.292,316.269C455.681,318.573 457.321,317.487 457.706,319.667C458.098,321.888 458.098,331.112 457.706,333.333C457.469,334.679 455.535,335.302 455.295,336.647C455.053,337.999 454.938,349.317 454.675,350.489C454.115,352.981 452.502,351.502 451.454,353.396C449.395,357.119 448.79,362.184 446.5,366C445.855,367.076 445.272,368.38 444.149,368.939C443.431,369.296 442.281,368.517 441.75,369.118C440.151,370.926 440.742,373.93 439.5,376C438.414,377.809 435.755,379.543 434.29,381C431.111,384.16 427.769,389.184 424,391.5C421.021,393.331 420.624,391.715 417.688,393.393C416,394.357 415.311,399.006 412.833,399.682C410.039,400.444 406.961,399.556 404.167,400.318C402.451,400.786 403.685,402.113 401.984,402.669C400.611,403.117 395.9,402.879 394.601,403.387C391.876,404.453 393.212,406.403 390.165,406.717C385.198,407.229 362.581,406.958 357.611,406.723C354.92,406.596 356.578,404.331 354.125,403.35C353.711,403.185 346.612,402.834 346.083,402.675C343.924,402.027 340.348,399.506 338,398.5C335.981,397.635 333.595,397.697 331.688,396.607C330.467,395.909 330.415,394.068 329.5,393C326.512,389.514 322.802,386.388 319.617,383C316.906,380.116 314.01,377.08 311,374.5C309.932,373.585 308.091,373.533 307.393,372.312C305.451,368.914 305.549,363.086 303.607,359.688C303.029,358.676 300.971,359.324 300.393,358.312C297.006,352.385 298.083,345.887 296.696,339.417C296.222,337.202 294.578,338.122 294.281,335.75C293.906,332.75 293.906,319.25 294.281,316.25C294.578,313.878 296.222,314.798 296.696,312.583C297.477,308.938 296.523,305.062 297.304,301.417C297.585,300.103 299.729,296.047 300.469,294.787C301.009,293.865 303.025,293.545 303.546,292.604C305.397,289.258 305.547,283.918 307.393,280.688C308.137,279.386 310.013,279.128 311,278C313.015,275.697 313.132,273.075 314.475,270.68C315.467,268.91 318.388,267.828 319.5,266C321.973,261.933 324.01,257.12 324,252.469C323.993,249.059 322.629,242.512 320.573,239.604C319.915,238.672 317.791,239.462 317.371,238.402C317.208,237.992 317.927,232.992 317.759,232.587C317.373,231.66 313.424,229.569 312.5,228C310.926,225.328 311.997,225.019 310.546,222.396C309.613,220.709 306.583,219.763 305.5,218C303.669,215.021 305.285,214.624 303.607,211.688C303.029,210.676 300.971,211.324 300.393,210.312C297.388,205.053 297.003,196.754 293.583,191.625C292.762,190.393 290.975,190.114 290,189C288.063,186.786 284.553,181.673 282.312,180.393C276.472,177.055 267.013,177 261,177C254.987,177 245.528,177.055 239.688,180.393C236.696,182.103 234.162,188.979 231.312,190.607C225.765,193.777 217.235,194.223 211.688,197.393C210.461,198.094 211.587,200.065 210.125,200.65C209.711,200.815 202.612,201.166 202.083,201.325C199.443,202.117 200.254,203.519 197.583,203.73C193.03,204.09 170.97,204.09 166.417,203.73C163.748,203.52 164.551,202.13 161.936,201.327C160.583,200.911 155.329,201.091 154.06,200.621C152.548,200.062 152.902,198.192 151.619,197.461C146.139,194.338 138.083,193.69 132.688,190.607C131.597,189.984 130.262,186.582 129,185.5C122.456,179.891 117.899,174.331 113.5,167C112.307,165.011 109.389,163.846 108.415,162.371C105.63,158.151 106.462,151.3 104.648,146.862C103.969,145.2 102.706,147.04 101.869,145.555C98.253,139.147 101,130.857 101,123.5C101,117.02 101.017,110.537 101.272,104.063C101.385,101.204 103.593,102.766 104.65,100.125C104.815,99.711 105.166,92.612 105.325,92.083C105.767,90.611 107.565,86.137 108.393,84.688C109.147,83.367 112.469,82.718 113.5,81L116.5,74C118.106,71.056 121.172,69.276 123.5,67C125.84,64.712 128.326,62.443 130.5,60C131.394,58.996 131.377,57.065 132.628,56.575C133.067,56.404 137.985,56.992 138.406,56.804C139.864,56.153 140.856,50.42 142.984,49.876C143.543,49.733 151.642,49.958 152.134,49.802C153.103,49.493 152.929,46.842 153.668,46.4C161.048,41.987 176.144,43 182.5,43C188.667,43 194.846,42.856 201,43.267C202.392,43.359 205,43.105 205,44.5M153,312.5C153,315.049 160.865,313.846 162.125,314.35C163.587,314.935 162.461,316.906 163.688,317.607C167.451,319.758 173.018,320.111 177,322.5C178.478,323.387 179.776,327.492 180.75,327.882C182.079,328.414 183.656,327.661 185.042,328.02C188.268,328.855 193.812,335.187 195.5,338C197.23,340.884 195.692,341.336 197.393,344.312C198.147,345.633 201.469,346.282 202.5,348C204.23,350.884 202.692,351.336 204.393,354.312C204.971,355.324 207.029,354.676 207.607,355.688C207.822,356.064 208.164,360.747 208.362,361.19C209.173,363.007 210.68,361.733 210.948,363.75C211.336,366.667 210.485,369.676 210.971,372.578C211.598,376.318 214.521,374.793 214.718,378.188C215.094,384.672 215.094,398.328 214.718,404.812C214.521,408.207 211.598,406.682 210.971,410.422C210.485,413.324 211.336,416.333 210.948,419.25C210.799,420.372 208.193,425.086 207.531,426.214C206.991,427.135 204.975,427.455 204.454,428.396C203.085,430.872 203.093,433.608 201,436C200.013,437.128 198.137,437.386 197.393,438.688C195.692,441.664 197.23,442.116 195.5,445C191.964,450.894 185.401,453.259 180,456.5C178.282,457.531 177.633,460.853 176.312,461.607C172.914,463.549 167.086,463.451 163.688,465.393C162.461,466.094 163.587,468.065 162.125,468.65C161.711,468.815 154.612,469.166 154.083,469.325C151.422,470.124 152.104,471.529 149.334,471.732C144.448,472.089 120.552,472.089 115.667,471.732C112.779,471.521 113.49,470.043 110.833,469.318C110.274,469.165 102.369,468.816 101.938,468.659C100.311,468.068 101.619,466.139 100.312,465.393C97.336,463.692 96.884,465.23 94,463.5C92.282,462.469 91.633,459.147 90.312,458.393C87.336,456.692 86.884,458.23 84,456.5C80.156,454.193 77.418,449.43 74,446.5C72.015,444.798 69.801,443.385 68.5,441C68.357,440.737 65.645,434.241 65.469,434C64.207,432.265 62.596,432.789 61.393,431C60.353,429.453 57.813,424.544 57.325,422.917C57.166,422.388 56.815,415.289 56.65,414.875C56.02,413.301 54.75,415.117 53.869,413.555C50.253,407.147 53,398.857 53,391.5C53,384.143 50.253,375.853 53.869,369.445C54.75,367.883 56.02,369.699 56.65,368.125C56.815,367.711 57.166,360.612 57.325,360.083C58.746,355.348 62.826,351.915 65.567,348C66.844,346.176 67.355,343.909 68.5,342C71.222,337.463 77.009,332.921 81,329.5C82.262,328.418 83.597,325.016 84.688,324.393C87.664,322.692 88.116,324.23 91,322.5C92.265,321.741 93.856,317.767 94.821,317.509C97.582,316.769 100.635,318.612 103.391,317.853C104.788,317.468 104.668,314.92 106.016,314.389C107.101,313.961 112.739,314.041 113.936,313.673C114.441,313.518 114.535,312.75 115,312.5C120.448,309.577 129.466,311 134,311C139.195,311 144.404,310.861 149.583,311.27C150.79,311.365 153,311.289 153,312.5"/>
    </g>
</svg>
