<svg version="1.1" width="515" height="515" xmlns="http://www.w3.org/2000/svg">
<g>
<path d="M414.407 183.981 C 407.887 185.353,392.442 194.200,390.001 197.960 C 385.731 204.538,359.161 209.298,341.725 206.609 C 329.311 204.695,325.000 209.426,325.000 224.964 L 325.000 235.027 321.656 233.630 C 319.817 232.861,315.542 231.911,312.156 231.518 L 306.000 230.804 306.000 227.286 C 306.000 211.743,274.730 199.121,265.250 210.837 C 264.439 211.839,264.000 215.840,264.000 222.219 L 264.000 232.056 257.750 231.435 C 250.755 230.740,244.022 234.790,242.573 240.565 L 241.920 243.168 239.922 240.628 C 230.627 228.811,206.389 228.635,203.445 240.363 L 202.787 242.983 198.314 239.045 C 189.396 231.195,173.345 228.655,167.787 234.213 C 165.726 236.274,165.596 236.281,161.093 234.569 C 151.806 231.040,134.328 231.523,126.620 235.522 C 125.053 236.335,123.330 237.000,122.790 237.000 C 122.250 237.000,120.561 237.888,119.037 238.974 L 116.265 240.948 115.782 234.224 C 114.202 212.213,105.061 206.741,69.000 206.218 C 34.923 205.725,26.859 208.128,14.149 222.568 C -2.013 240.929,-3.379 279.022,11.619 293.112 C 12.929 294.342,14.000 295.891,14.000 296.554 C 14.000 303.296,36.395 312.171,52.936 311.983 C 58.196 311.923,64.072 312.353,65.993 312.937 C 73.290 315.157,86.485 314.304,89.950 311.388 L 93.054 308.777 98.277 311.045 C 104.566 313.777,122.939 315.125,125.452 313.040 C 126.575 312.107,128.130 312.077,132.011 312.909 C 145.402 315.781,160.276 313.596,169.727 307.368 C 175.294 303.700,176.717 303.860,181.811 308.727 C 186.973 313.659,213.736 315.812,221.500 311.920 C 224.221 310.556,225.058 310.591,230.500 312.293 C 235.293 313.792,238.730 314.090,247.583 313.777 C 259.137 313.367,259.558 313.239,271.969 306.302 L 275.438 304.363 279.667 307.218 C 294.436 317.185,320.979 316.360,333.788 305.537 C 336.656 303.114,337.294 302.934,338.788 304.129 C 343.944 308.257,352.448 312.025,359.130 313.141 C 373.401 315.525,375.851 316.178,377.543 318.048 C 378.515 319.121,379.681 320.000,380.135 320.000 C 380.588 320.000,383.331 321.807,386.230 324.016 C 398.541 333.399,417.391 333.449,428.987 324.131 C 438.629 316.382,454.999 311.992,473.500 312.192 C 502.686 312.509,520.899 288.401,510.608 263.075 C 507.443 255.284,507.439 255.129,510.250 249.781 C 513.886 242.863,513.550 226.573,509.611 218.798 C 501.353 202.497,479.206 193.601,463.628 200.328 C 457.268 203.074,455.589 202.567,448.757 195.834 C 438.675 185.899,426.028 181.534,414.407 183.981 M429.282 197.357 C 433.595 199.175,441.326 207.630,443.957 213.406 C 447.033 220.157,454.969 222.174,459.729 217.414 C 473.416 203.727,499.027 214.740,498.990 234.297 C 498.979 240.100,495.368 249.135,492.393 250.800 C 489.559 252.386,490.027 258.375,493.247 261.737 C 509.630 278.841,488.673 307.730,467.000 297.919 C 453.477 291.798,448.025 274.455,456.406 264.221 C 461.413 258.108,461.639 255.581,457.753 249.230 C 455.824 246.078,453.939 242.499,453.564 241.276 C 452.529 237.902,447.756 234.993,443.346 235.048 C 439.731 235.093,438.218 235.694,429.931 240.377 C 415.121 248.745,394.854 232.867,398.109 215.446 C 400.734 201.394,416.777 192.084,429.282 197.357 M82.401 218.840 C 83.220 220.166,79.565 226.236,76.626 228.430 C 74.361 230.121,71.853 230.506,60.131 230.962 C 49.983 231.357,45.810 231.899,44.436 233.000 C 30.161 244.443,31.030 276.843,45.830 284.965 C 56.210 290.662,65.000 285.884,65.000 274.545 C 65.000 264.404,67.773 259.210,75.217 255.409 C 83.465 251.197,83.000 249.878,83.000 277.500 L 83.000 302.000 77.640 302.000 C 73.569 302.000,71.392 301.398,68.589 299.496 C 64.936 297.017,64.851 297.008,59.893 298.630 C 49.385 302.067,31.992 296.853,25.196 288.228 C 4.884 262.453,16.339 225.167,46.500 218.888 C 51.103 217.929,81.813 217.888,82.401 218.840 M94.030 221.250 C 102.596 225.577,102.997 226.986,103.024 252.898 C 103.052 279.132,103.552 282.267,108.432 286.750 C 112.584 290.564,120.918 291.695,119.487 288.250 C 110.080 265.613,120.976 246.539,144.077 245.202 C 166.673 243.894,180.880 266.373,170.660 287.263 C 162.910 303.102,138.677 307.180,125.803 294.811 C 120.576 289.788,120.000 289.969,120.000 296.639 L 120.000 302.278 114.059 301.739 C 103.260 300.760,93.482 294.562,88.739 285.689 C 86.579 281.647,86.489 280.401,86.197 250.250 C 85.854 214.831,85.310 216.845,94.030 221.250 M284.846 221.422 C 291.853 224.973,294.000 229.555,294.000 240.962 C 294.000 246.019,294.010 246.035,296.750 245.269 C 301.888 243.832,314.269 244.424,317.750 246.273 C 319.538 247.223,322.339 248.702,323.975 249.561 C 336.192 255.970,337.983 283.854,326.821 293.886 C 315.284 304.255,297.328 304.710,285.500 294.933 C 277.222 288.091,277.542 289.730,277.168 252.250 C 276.793 214.691,276.207 217.044,284.846 221.422 M345.500 220.881 C 354.912 225.203,355.901 228.646,355.956 257.300 C 356.010 285.086,357.228 288.595,367.286 289.938 L 371.500 290.500 371.800 296.250 L 372.100 302.000 368.800 301.988 C 356.264 301.943,344.002 293.965,339.990 283.245 C 338.169 278.376,338.000 275.429,338.000 248.462 C 338.000 215.355,337.497 217.206,345.500 220.881 M184.500 245.966 C 194.138 250.597,195.000 252.595,195.000 270.299 C 195.000 288.046,195.907 290.000,204.138 290.000 C 214.997 290.000,216.000 287.721,216.000 263.050 C 216.000 240.630,217.336 239.470,230.496 250.465 L 233.493 252.968 234.069 268.234 C 234.824 288.248,235.612 290.000,243.851 290.000 C 254.044 290.000,254.436 289.084,254.807 264.422 C 255.033 249.381,255.430 244.000,256.314 244.000 C 261.242 244.000,269.088 248.776,271.715 253.374 C 273.685 256.824,273.312 278.408,271.175 284.591 C 265.796 300.152,246.174 306.805,230.696 298.317 L 224.892 295.134 221.457 297.464 C 213.691 302.735,200.414 303.284,191.437 298.705 C 179.989 292.865,177.836 287.338,177.242 262.250 C 176.753 241.625,176.526 242.135,184.500 245.966 M298.750 257.080 C 292.041 260.988,291.296 282.941,297.702 287.980 C 303.703 292.700,314.074 289.996,315.956 283.221 C 320.968 265.174,310.960 249.969,298.750 257.080 M136.924 259.578 C 133.199 263.540,132.728 280.844,136.205 286.000 C 138.650 289.625,144.533 291.087,150.572 289.571 C 155.894 288.236,158.165 269.165,153.980 260.960 L 151.959 257.000 145.654 257.000 C 140.171 257.000,139.032 257.336,136.924 259.578 M419.750 276.585 C 443.681 293.049,422.797 328.730,396.640 316.068 C 377.422 306.764,380.639 280.687,402.000 272.617 C 406.354 270.972,414.112 272.706,419.750 276.585 " stroke="none" fill-rule="evenodd"></path>
</g>
</svg>