<svg xmlns="http://www.w3.org/2000/svg" version="1.1" width="400" height="400"
  >
  <g>
<path d="M 308.418,5.132 C 308.123,5.609 306.334,6 304.441,6 302.548,6 301,6.408 301,6.906 c 0,0.499 -2.25,1.216 -5,1.594 -2.75,0.378 -5,1.095 -5,1.594 0,0.498 -1.125,0.906 -2.5,0.906 -1.375,0 -2.5,0.441 -2.5,0.981 0,0.539 -1.125,1.263 -2.5,1.608 -1.375,0.345 -2.5,1.029 -2.5,1.519 0,0.491 -0.482,0.892 -1.071,0.892 -0.59,0 -1.699,0.563 -2.466,1.25 -3.004,2.694 -4.403,3.75 -4.968,3.75 -1.317,0 -9.495,8.89 -9.495,10.322 0,0.849 -0.877,1.822 -1.949,2.162 -1.072,0.34 -2.261,1.608 -2.643,2.817 -0.382,1.21 -1.53,2.927 -2.551,3.816 -1.021,0.89 -1.857,1.899 -1.857,2.243 0,1.365 -3.515,8.64 -4.175,8.64 -0.386,0 -1.005,2.02 -1.376,4.49 -0.37,2.469 -1.073,4.243 -1.561,3.941 C 246.4,59.129 246,60.896 246,63.358 c 0,2.691 -0.498,4.641 -1.25,4.892 -0.93,0.31 -1.25,4.472 -1.25,16.25 0,11.777 0.32,15.94 1.25,16.25 0.688,0.229 1.25,1.756 1.25,3.392 0,1.637 0.402,2.728 0.893,2.424 0.492,-0.304 1.175,0.57 1.519,1.941 0.345,1.371 1.068,2.493 1.607,2.493 0.54,0 0.981,0.445 0.981,0.989 0,1.557 3.304,5.011 4.794,5.011 1.457,0 4.374,2.499 3.701,3.172 -0.753,0.752 5.925,1.293 13.494,1.092 4.119,-0.109 7.644,-0.664 7.833,-1.231 0.19,-0.568 0.982,-1.033 1.761,-1.033 0.78,0 1.417,-0.43 1.417,-0.955 0,-0.525 1.536,-1.243 3.413,-1.595 1.878,-0.352 4.275,-1.442 5.327,-2.423 1.053,-0.98 2.892,-2.093 4.087,-2.472 1.195,-0.379 2.173,-1.109 2.173,-1.622 0,-0.513 0.675,-0.933 1.5,-0.933 0.825,0 1.5,-0.42 1.5,-0.933 0,-0.513 0.977,-1.242 2.171,-1.621 2.797,-0.888 26.373,-24.434 27.259,-27.224 0.37,-1.166 1.549,-2.398 2.621,-2.738 1.072,-0.34 1.949,-1.503 1.949,-2.583 0,-1.08 0.675,-2.223 1.5,-2.539 0.825,-0.317 1.5,-1.428 1.5,-2.469 0,-1.041 0.401,-1.893 0.892,-1.893 0.49,0 1.174,-1.125 1.519,-2.5 0.345,-1.375 1.069,-2.5 1.608,-2.5 0.54,0 0.981,-0.675 0.981,-1.5 0,-0.825 0.43,-1.5 0.955,-1.5 0.525,0 1.25,-1.575 1.611,-3.5 0.361,-1.925 1.057,-3.5 1.545,-3.5 0.489,0 0.889,-1.087 0.889,-2.417 0,-1.329 0.563,-2.603 1.25,-2.832 2.834,-0.941 2.283,-26.491 -0.634,-29.408 -1.4,-1.4 -2.817,-3.4 -3.148,-4.444 C 346.136,11.855 344.996,11 343.933,11 342.87,11 342,10.586 342,10.079 342,9.573 340.65,8.862 339,8.5 337.35,8.138 336,7.427 336,6.921 336,6.414 334.425,6 332.5,6 330.575,6 329,5.617 329,5.148 329,4.024 309.113,4.009 308.418,5.132 M 188,20 c 0,0.55 -1.284,1 -2.854,1 -1.658,0 -3.984,1.047 -5.551,2.5 -1.484,1.375 -3.109,2.5 -3.612,2.5 -1.882,0 -7.051,6.088 -7.631,8.988 -0.331,1.657 -0.996,3.012 -1.477,3.012 -0.481,0 -0.875,1.087 -0.875,2.417 0,1.329 -0.562,2.604 -1.25,2.833 -0.939,0.313 -1.25,4.972 -1.25,18.75 0,13.778 0.311,18.437 1.25,18.75 0.688,0.229 1.25,1.504 1.25,2.833 0,1.33 0.391,2.417 0.869,2.417 0.478,0 1.132,1.616 1.452,3.591 0.321,1.975 1.44,4.338 2.488,5.25 1.048,0.912 2.217,2.648 2.599,3.858 0.382,1.209 1.548,2.47 2.592,2.801 1.044,0.331 2.161,1.43 2.482,2.443 1.213,3.823 16.815,3.847 18.027,0.027 0.327,-1.027 1.447,-2.139 2.491,-2.47 1.044,-0.331 2.169,-1.456 2.5,-2.5 0.331,-1.044 1.426,-2.159 2.432,-2.478 1.033,-0.328 2.1,-1.934 2.451,-3.686 0.341,-1.708 1.454,-3.832 2.473,-4.72 1.029,-0.898 2.166,-3.725 2.559,-6.366 0.389,-2.612 1.13,-4.75 1.646,-4.75 0.517,0 0.939,-1.088 0.939,-2.417 0,-1.329 0.435,-2.566 0.966,-2.75 0.531,-0.183 1.272,-4.721 1.647,-10.083 0.375,-5.362 1.066,-9.75 1.535,-9.75 0.468,0 0.852,-1.8 0.852,-4 0,-2.2 -0.45,-4 -1,-4 -0.55,0 -1.005,-1.687 -1.011,-3.75 -0.02,-6.839 -1.146,-11.165 -3.064,-11.774 -1.003,-0.318 -2.13,-1.547 -2.506,-2.731 C 210.465,22.74 208.505,21 206.071,21 204.932,21 204,20.55 204,20 c 0,-0.583 -3.333,-1 -8,-1 -4.667,0 -8,0.417 -8,1 m -74,30 c 0,0.55 -0.675,1 -1.5,1 -0.825,0 -1.5,0.45 -1.5,1 0,0.55 -1.093,1 -2.429,1 C 106.153,53 103,55.304 103,57.071 103,57.582 102.149,58 101.108,58 99.925,58 98.982,58.936 98.589,60.5 98.244,61.875 97.52,63 96.981,63 96.441,63 96,63.675 96,64.5 c 0,0.825 -0.45,1.5 -1,1.5 -1.517,0 -1.295,26.967 0.25,30.293 0.688,1.48 1.567,2.695 1.955,2.699 0.387,0.004 0.986,1.511 1.331,3.349 0.345,1.837 1.715,4.607 3.045,6.155 1.331,1.548 2.419,3.225 2.419,3.727 0,0.501 1.575,2.397 3.5,4.212 1.925,1.816 3.5,3.811 3.5,4.433 0,0.623 0.675,1.132 1.5,1.132 0.825,0 1.5,0.45 1.5,1 0,0.55 0.852,1 1.893,1 1.041,0 2.161,0.697 2.488,1.55 1.242,3.236 13.619,0.915 13.619,-2.554 0,-0.474 0.876,-1.139 1.946,-1.479 1.387,-0.44 2.138,-1.897 2.614,-5.067 0.367,-2.448 1.066,-4.45 1.554,-4.45 0.487,0 0.886,-1.312 0.886,-2.917 0,-1.604 0.552,-3.1 1.228,-3.326 1.776,-0.592 1.798,-31.915 0.022,-32.507 C 139.563,73.021 139,71.296 139,69.417 139,67.537 138.55,66 138,66 c -0.55,0 -1,-1.093 -1,-2.429 0,-1.335 -0.675,-3.103 -1.5,-3.928 C 134.675,58.818 134,57.891 134,57.583 134,56.18 130.377,53 128.778,53 127.8,53 127,52.55 127,52 c 0,-0.55 -0.675,-1 -1.5,-1 -0.825,0 -1.5,-0.45 -1.5,-1 0,-0.55 -2.25,-1 -5,-1 -2.75,0 -5,0.45 -5,1 M 55.231,98.725 c -1.798,0.222 -3.009,0.825 -2.691,1.34 0.318,0.514 -0.108,0.935 -0.947,0.935 -2.387,0 -7.575,5.658 -8.241,8.988 -0.331,1.657 -0.996,3.012 -1.477,3.012 -0.481,0 -0.875,1.35 -0.875,3 0,1.65 -0.45,3 -1,3 -0.55,0 -1,1.125 -1,2.5 0,1.375 0.45,2.5 1,2.5 0.55,0 1,1.8 1,4 0,2.2 0.45,4 1,4 0.55,0 1,1.543 1,3.429 0,1.885 0.675,4.103 1.5,4.928 0.825,0.825 1.5,1.982 1.5,2.572 0,0.589 0.45,1.071 1,1.071 0.55,0 1,0.655 1,1.455 0,0.8 1.071,2.525 2.38,3.834 1.309,1.309 2.682,3.332 3.051,4.495 0.369,1.162 1.548,2.392 2.62,2.732 1.072,0.34 1.949,1.038 1.949,1.551 0,0.513 0.47,0.933 1.044,0.933 0.574,0 2.257,1.125 3.739,2.5 1.523,1.412 3.898,2.5 5.457,2.5 1.518,0 2.76,0.45 2.76,1 0,0.55 1.35,1 3,1 1.65,0 3,-0.45 3,-1 0,-0.55 0.71,-1 1.577,-1 0.867,0 3.005,-1.428 4.75,-3.174 L 86.5,157.651 86.449,141.325 C 86.413,130.029 86.028,124.628 85.199,123.799 84.539,123.139 84,121.79 84,120.8 c 0,-0.99 -0.414,-1.8 -0.921,-1.8 -0.506,0 -1.217,-1.35 -1.579,-3 -0.362,-1.65 -1.073,-3 -1.579,-3 -0.507,0 -0.921,-0.9 -0.921,-2 0,-1.1 -0.401,-2 -0.892,-2 -0.49,0 -1.166,-1.095 -1.502,-2.433 -0.336,-1.339 -1.487,-2.712 -2.557,-3.052 -1.071,-0.339 -2.207,-1.437 -2.525,-2.44 -0.834,-2.627 -6.941,-3.508 -16.293,-2.35 M 208,135 c 0,0.592 -3.647,1 -8.941,1 -4.918,0 -9.186,0.397 -9.486,0.881 -0.299,0.485 -3.926,1.198 -8.059,1.585 -4.133,0.388 -7.514,1.116 -7.514,1.619 0,0.503 -1.8,0.915 -4,0.915 -2.2,0 -4,0.392 -4,0.872 0,0.48 -1.8,1.16 -4,1.512 -2.2,0.352 -4,1.084 -4,1.628 0,0.543 -1.323,0.988 -2.941,0.988 -1.618,0 -3.219,0.45 -3.559,1 -0.34,0.55 -1.684,1 -2.988,1 -1.303,0 -3.044,0.675 -3.869,1.5 -0.825,0.825 -2.432,1.5 -3.572,1.5 -1.139,0 -2.071,0.45 -2.071,1 0,0.55 -1.139,1 -2.531,1 -1.393,0 -2.791,0.675 -3.107,1.5 -0.317,0.825 -1.428,1.5 -2.469,1.5 -1.041,0 -1.893,0.45 -1.893,1 0,0.55 -1.139,1 -2.531,1 -1.393,0 -2.791,0.675 -3.107,1.5 -0.317,0.825 -1.428,1.5 -2.469,1.5 -1.041,0 -1.893,0.441 -1.893,0.981 0,0.539 -1.109,1.259 -2.464,1.599 -1.355,0.341 -2.736,1.474 -3.068,2.519 -0.331,1.046 -1.409,1.901 -2.395,1.901 -0.986,0 -2.638,1.125 -3.67,2.5 -1.033,1.375 -2.415,2.5 -3.071,2.5 C 102.924,173 84,191.579 84,192.962 c 0,0.521 -1.071,2.018 -2.38,3.327 -1.309,1.309 -2.724,3.467 -3.143,4.796 -0.42,1.328 -1.531,3.09 -2.469,3.915 -0.938,0.825 -2.019,3.188 -2.402,5.25 -0.383,2.063 -1.126,3.75 -1.651,3.75 -0.525,0 -0.955,0.873 -0.955,1.941 0,1.068 -0.412,2.196 -0.915,2.507 -0.504,0.311 -1.232,3.937 -1.618,8.059 -0.386,4.121 -1.099,7.493 -1.584,7.493 -1.143,0 -1.16,22.727 -0.018,23.167 0.476,0.183 1.176,4.383 1.555,9.333 0.379,4.95 1.114,9.15 1.634,9.333 0.521,0.184 0.946,1.421 0.946,2.75 0,1.329 0.445,2.417 0.988,2.417 0.544,0 1.276,1.8 1.628,4 0.352,2.2 1.032,4 1.512,4 0.48,0 0.872,0.675 0.872,1.5 0,0.825 0.422,1.5 0.939,1.5 0.516,0 1.242,2.025 1.613,4.5 0.371,2.475 1.074,4.5 1.562,4.5 0.487,0 0.886,0.482 0.886,1.071 0,0.59 0.675,1.747 1.5,2.572 0.825,0.825 1.5,2.287 1.5,3.248 0,0.962 1.125,2.727 2.5,3.922 1.375,1.196 2.5,2.852 2.5,3.68 0,0.829 0.45,1.507 1,1.507 0.55,0 1,0.927 1,2.059 0,1.132 0.45,1.781 1,1.441 0.55,-0.34 1,-0.211 1,0.285 0,0.497 1.128,2.211 2.506,3.809 1.378,1.599 2.751,3.67 3.051,4.605 0.3,0.934 1.399,1.97 2.443,2.301 1.044,0.331 2.181,1.496 2.528,2.588 0.701,2.208 15.36,17.283 19.848,20.412 1.578,1.1 3.377,2.584 3.997,3.298 3.948,4.546 7.786,7.234 15.627,10.945 4.125,1.952 7.65,3.934 7.833,4.403 0.184,0.47 0.778,0.854 1.322,0.854 0.543,0 1.663,0.675 2.488,1.5 0.825,0.825 2.593,1.5 3.928,1.5 1.336,0 2.429,0.45 2.429,1 0,0.55 0.675,1 1.5,1 0.825,0 1.5,0.41 1.5,0.912 0,0.502 1.76,1.21 3.911,1.573 2.151,0.363 4.702,1.535 5.669,2.603 0.966,1.068 3.491,2.22 5.611,2.559 2.119,0.338 4.095,1.007 4.39,1.484 0.295,0.478 1.995,0.869 3.778,0.869 1.783,0 3.745,0.504 4.362,1.121 1.43,1.43 39.62,1.29 40.112,-0.147 0.184,-0.536 1.196,-0.974 2.25,-0.974 1.054,0 1.917,-0.392 1.917,-0.872 0,-0.48 1.688,-1.147 3.75,-1.484 2.063,-0.336 5.057,-1.743 6.656,-3.128 1.598,-1.384 3.51,-2.516 4.25,-2.516 0.739,0 1.344,-0.353 1.344,-0.784 0,-0.432 1.463,-1.622 3.25,-2.646 1.788,-1.024 4.409,-3.034 5.826,-4.466 10.08972,-11.33323 32.63658,-22.27025 32.924,-34.211 0,-1.041 0.45,-1.893 1,-1.893 0.55,0 1,-0.643 1,-1.429 0,-0.785 0.563,-2.04 1.25,-2.788 2.195,-2.389 3.594,-5.431 4.326,-9.41 0.392,-2.13 0.985,-4.098 1.318,-4.373 2.856,-2.357 4.9,-23.227 2.106,-21.5 -0.55,0.34 -1,-0.068 -1,-0.907 0,-2.596 -5.448,-7.267 -9.326,-7.994 C 292.654,288.22 291,287.48 291,286.955 291,286.43 288.525,286 285.5,286 c -3.025,0 -5.5,-0.45 -5.5,-1 0,-0.55 -1.35,-1 -3,-1 -1.65,0 -3,0.45 -3,1 0,0.564 -2.833,1 -6.5,1 -3.575,0 -6.5,0.392 -6.5,0.871 0,0.479 -2.686,1.175 -5.97,1.546 -3.283,0.372 -6.234,1.105 -6.559,1.629 -0.324,0.525 -1.414,0.954 -2.423,0.954 -1.009,0 -2.093,0.675 -2.41,1.5 -0.316,0.825 -1.414,1.5 -2.44,1.5 -2.08,0 -10.198,7.042 -10.198,8.846 0,0.635 -0.41,1.154 -0.912,1.154 -0.501,0 -1.063,4.914 -1.25,10.919 -0.186,6.006 -0.643,11.224 -1.016,11.595 -1.034,1.03 -41.721,2.125 -41.089,1.106 0.3,-0.484 -0.063,-0.677 -0.805,-0.429 -1.576,0.525 -9.928,-7.706 -9.928,-9.783 0,-0.774 -0.45,-1.408 -1,-1.408 -0.578,0 -1,-3.167 -1,-7.5 0,-4.333 0.422,-7.5 1,-7.5 0.55,0 1,-0.914 1,-2.031 0,-1.118 0.675,-2.291 1.5,-2.607 0.825,-0.317 1.5,-1.191 1.5,-1.943 0,-1.87 8.685,-10.419 10.585,-10.419 0.843,0 1.255,-0.45 0.915,-1 -0.34,-0.55 -0.162,-1 0.396,-1 0.557,0 2.138,-1.125 3.513,-2.5 1.375,-1.375 2.873,-2.5 3.328,-2.5 0.885,0 5.432,-3.368 8.438,-6.25 1.004,-0.962 2.752,-1.75 3.884,-1.75 1.132,0 1.811,-0.402 1.507,-0.893 -0.304,-0.492 0.57,-1.175 1.941,-1.519 1.371,-0.345 2.493,-1.068 2.493,-1.607 0,-0.54 0.675,-0.981 1.5,-0.981 0.825,0 1.5,-0.401 1.5,-0.892 0,-0.49 1.125,-1.174 2.5,-1.519 1.375,-0.345 2.5,-1.069 2.5,-1.608 0,-0.54 0.637,-0.981 1.417,-0.981 0.779,0 1.575,-0.475 1.768,-1.054 0.193,-0.58 1.113,-1.167 2.045,-1.303 0.932,-0.137 2.498,-1.173 3.482,-2.303 0.983,-1.13 2.8,-2.374 4.038,-2.764 1.238,-0.391 2.25,-1.13 2.25,-1.643 0,-0.513 0.675,-0.933 1.5,-0.933 0.825,0 1.5,-0.45 1.5,-1 0,-0.55 0.914,-1 2.031,-1 1.118,0 2.291,-0.675 2.607,-1.5 0.317,-0.825 1.38,-1.5 2.362,-1.5 0.982,0 2.045,-0.675 2.362,-1.5 0.316,-0.825 1.459,-1.5 2.539,-1.5 1.086,0 2.248,-0.894 2.599,-2 0.349,-1.1 1.343,-2 2.209,-2 0.866,0 2.865,-1.35 4.441,-3 1.577,-1.65 3.304,-3 3.837,-3 1.558,0 22.013,-20.951 22.013,-22.548 0,-0.798 0.401,-1.452 0.892,-1.452 0.49,0 1.174,-1.125 1.519,-2.5 0.345,-1.375 1.069,-2.5 1.608,-2.5 0.54,0 0.981,-1.125 0.981,-2.5 0,-1.375 0.445,-2.5 0.988,-2.5 0.544,0 1.276,-1.8 1.628,-4 0.352,-2.2 1.032,-4 1.512,-4 0.48,0 0.872,-4.05 0.872,-9 0,-4.95 -0.392,-9 -0.872,-9 -0.48,0 -1.16,-1.8 -1.512,-4 -0.352,-2.2 -1.084,-4 -1.628,-4 -0.543,0 -0.988,-0.852 -0.988,-1.893 0,-1.041 -0.675,-2.152 -1.5,-2.469 -0.825,-0.316 -1.5,-1.481 -1.5,-2.588 0,-1.311 -0.869,-2.23 -2.493,-2.638 -1.371,-0.344 -2.245,-1.027 -1.941,-1.519 0.304,-0.491 -0.15,-0.893 -1.007,-0.893 -0.857,0 -1.559,-0.42 -1.559,-0.933 0,-0.513 -1.012,-1.252 -2.25,-1.643 -1.238,-0.39 -2.952,-1.516 -3.809,-2.5 -0.858,-0.985 -2.775,-2.095 -4.26,-2.468 -1.485,-0.373 -2.947,-1.078 -3.249,-1.567 C 270.129,141.4 268.559,141 266.941,141 265.323,141 264,140.565 264,140.034 c 0,-0.531 -2.26,-1.265 -5.022,-1.631 -2.763,-0.367 -5.264,-1.057 -5.559,-1.535 -0.296,-0.477 -4.11,-0.868 -8.478,-0.868 -4.627,0 -7.941,-0.417 -7.941,-1 0,-0.621 -5.5,-1 -14.5,-1 -9,0 -14.5,0.379 -14.5,1 m 18,194.299 c 0,0.897 -1.087,1.172 -3.509,0.89 -4.99,-0.583 -5.393,-2.189 -0.55,-2.189 2.663,0 4.059,0.447 4.059,1.299"   style="fill-rule:evenodd;stroke:none" />
  </g>
</svg>
