<svg version="1.1" width="400" height="400" xmlns="http://www.w3.org/2000/svg"><g><path d="M180.750 30.664 C 178.137 30.909,176.000 31.482,176.000 31.937 C 176.000 32.391,172.175 33.082,167.500 33.471 C 162.825 33.861,159.000 34.538,159.000 34.976 C 159.000 35.414,156.975 36.077,154.500 36.448 C 152.025 36.819,150.000 37.494,150.000 37.948 C 150.000 38.402,147.975 39.077,145.500 39.448 C 143.025 39.819,141.000 40.509,141.000 40.982 C 141.000 41.454,139.650 42.138,138.000 42.500 C 136.350 42.862,135.000 43.524,135.000 43.971 C 135.000 44.418,133.875 45.066,132.500 45.411 C 131.125 45.756,130.000 46.480,130.000 47.019 C 130.000 47.559,129.395 48.000,128.655 48.000 C 127.915 48.000,126.495 48.900,125.500 50.000 C 124.505 51.100,123.122 52.000,122.428 52.000 C 121.734 52.000,120.930 52.562,120.641 53.250 C 120.265 54.145,119.802 54.003,119.008 52.750 C 118.399 51.788,117.248 51.000,116.450 51.000 C 115.653 51.000,115.000 50.550,115.000 50.000 C 115.000 49.412,111.500 49.000,106.500 49.000 C 101.825 49.000,98.000 49.401,98.000 49.892 C 98.000 50.382,96.893 51.061,95.539 51.401 C 92.786 52.092,86.000 58.615,86.000 60.570 C 86.000 61.265,85.506 61.998,84.902 62.199 C 84.298 62.401,83.564 64.688,83.272 67.283 C 82.979 69.877,82.348 72.000,81.870 72.000 C 81.391 72.000,81.000 72.675,81.000 73.500 C 81.000 74.325,81.391 75.000,81.868 75.000 C 82.346 75.000,82.977 76.791,83.270 78.979 C 83.877 83.503,88.181 88.505,92.372 89.557 C 93.817 89.920,95.000 90.618,95.000 91.108 C 95.000 91.599,95.675 92.000,96.500 92.000 C 97.325 92.000,98.000 91.550,98.000 91.000 C 98.000 90.450,98.450 90.000,99.000 90.000 C 100.287 90.000,100.312 93.726,99.027 94.167 C 98.493 94.350,97.753 97.762,97.384 101.750 C 97.015 105.737,96.327 109.000,95.856 109.000 C 94.674 109.000,94.754 153.746,95.937 154.167 C 96.452 154.350,97.192 163.500,97.581 174.500 C 98.031 187.230,98.690 194.773,99.394 195.250 C 100.971 196.320,98.176 197.966,94.750 197.985 C 93.237 197.993,92.000 198.450,92.000 199.000 C 92.000 199.550,90.200 200.000,88.000 200.000 C 85.800 200.000,84.000 200.450,84.000 201.000 C 84.000 201.550,83.483 202.000,82.851 202.000 C 82.219 202.000,80.194 203.553,78.351 205.450 C 74.766 209.142,73.748 214.000,76.559 214.000 C 77.416 214.000,77.837 214.454,77.494 215.009 C 77.152 215.564,77.155 216.914,77.503 218.009 C 78.318 220.577,88.404 220.995,89.362 218.500 C 89.678 217.675,90.851 217.000,91.969 217.000 C 93.086 217.000,94.000 216.602,94.000 216.117 C 94.000 215.631,94.945 214.986,96.100 214.684 C 98.336 214.099,98.113 253.982,95.876 254.833 C 94.746 255.263,94.723 288.000,95.852 288.000 C 96.321 288.000,97.006 291.917,97.374 296.704 C 97.742 301.492,98.414 305.654,98.868 305.954 C 99.321 306.254,99.990 308.726,100.354 311.446 C 100.718 314.166,101.426 316.645,101.928 316.956 C 102.431 317.266,103.151 318.753,103.529 320.260 C 103.907 321.767,104.569 323.000,105.000 323.000 C 105.431 323.000,106.066 324.125,106.411 325.500 C 106.756 326.875,107.480 328.000,108.019 328.000 C 108.559 328.000,109.000 328.689,109.000 329.531 C 109.000 330.374,109.675 331.322,110.500 331.638 C 111.325 331.955,112.000 332.805,112.000 333.528 C 112.000 334.251,114.061 336.903,116.579 339.421 C 119.517 342.359,120.587 344.000,119.565 344.000 C 113.081 344.000,102.166 356.927,103.505 363.022 C 104.100 365.730,107.000 367.371,107.000 365.000 C 107.000 364.450,107.450 364.000,108.000 364.000 C 108.550 364.000,109.000 365.088,109.000 366.418 C 109.000 370.568,110.054 372.000,113.107 372.000 C 114.698 372.000,116.000 371.599,116.000 371.108 C 116.000 370.618,117.125 369.934,118.500 369.589 C 119.875 369.244,121.000 368.520,121.000 367.981 C 121.000 367.441,121.563 366.988,122.250 366.972 C 122.938 366.957,124.812 365.607,126.417 363.972 C 128.021 362.338,129.947 361.000,130.698 361.000 C 131.449 361.000,132.306 360.366,132.604 359.590 C 132.901 358.815,134.237 357.906,135.572 357.571 C 136.908 357.236,138.000 356.338,138.000 355.575 C 138.000 354.680,138.710 354.373,140.000 354.710 C 141.100 354.998,142.000 355.610,142.000 356.071 C 142.000 356.532,143.688 357.220,145.750 357.599 C 147.813 357.978,149.759 358.685,150.075 359.171 C 150.392 359.656,153.092 360.335,156.075 360.679 C 159.059 361.024,161.744 361.675,162.043 362.127 C 162.341 362.578,165.829 363.249,169.793 363.617 C 173.757 363.986,177.000 364.673,177.000 365.144 C 177.000 365.615,186.225 366.000,197.500 366.000 C 208.775 366.000,218.000 365.603,218.000 365.118 C 218.000 364.633,221.825 363.918,226.500 363.529 C 231.175 363.139,235.000 362.455,235.000 362.008 C 235.000 361.562,237.700 360.883,241.000 360.500 C 244.300 360.117,247.000 359.455,247.000 359.030 C 247.000 358.604,248.800 357.968,251.000 357.616 C 253.200 357.264,255.000 356.567,255.000 356.068 C 255.000 355.568,256.350 354.862,258.000 354.500 C 259.650 354.138,261.000 353.479,261.000 353.037 C 261.000 352.595,261.900 351.998,263.000 351.710 C 264.100 351.423,265.000 351.613,265.000 352.134 C 265.000 353.149,273.072 360.967,274.142 360.988 C 274.494 360.994,275.064 362.118,275.407 363.485 C 275.792 365.018,276.982 366.208,278.515 366.593 C 279.882 366.936,281.000 367.618,281.000 368.108 C 281.000 368.599,282.575 369.000,284.500 369.000 C 286.425 369.000,288.000 368.559,288.000 368.019 C 288.000 367.480,289.113 366.759,290.474 366.417 C 294.102 365.507,295.490 352.000,291.955 352.000 C 291.430 352.000,291.000 351.511,291.000 350.914 C 291.000 349.354,284.801 343.000,283.280 343.000 C 282.576 343.000,282.000 342.550,282.000 342.000 C 282.000 341.450,281.271 341.000,280.379 341.000 C 279.296 341.000,280.091 339.707,282.782 337.096 C 284.994 334.949,287.104 332.249,287.469 331.096 C 287.835 329.943,288.554 329.000,289.067 329.000 C 289.580 329.000,290.000 328.311,290.000 327.469 C 290.000 326.626,290.648 325.689,291.439 325.385 C 292.230 325.081,293.166 323.521,293.518 321.916 C 293.871 320.312,294.516 319.000,294.952 319.000 C 295.388 319.000,296.032 317.200,296.384 315.000 C 296.736 312.800,297.416 311.000,297.897 311.000 C 298.377 311.000,299.079 308.525,299.457 305.500 C 299.835 302.475,300.516 300.000,300.970 300.000 C 301.425 300.000,302.122 296.738,302.518 292.750 C 302.915 288.762,303.748 285.179,304.370 284.786 C 305.178 284.275,305.471 274.131,305.398 249.168 L 305.295 214.264 307.398 214.792 C 308.554 215.082,309.860 215.922,310.300 216.659 C 310.740 217.397,312.202 218.000,313.550 218.000 C 314.897 218.000,316.000 218.450,316.000 219.000 C 316.000 220.485,318.933 220.210,320.571 218.571 C 321.357 217.786,322.000 215.986,322.000 214.571 C 322.000 212.952,322.556 212.000,323.500 212.000 C 326.006 212.000,325.270 207.155,322.354 204.452 C 320.899 203.104,319.099 202.000,318.354 202.000 C 317.609 202.000,317.000 201.550,317.000 201.000 C 317.000 200.450,316.325 200.000,315.500 200.000 C 314.675 200.000,314.000 199.550,314.000 199.000 C 314.000 198.450,311.975 198.000,309.500 198.000 L 305.000 198.000 305.000 205.000 C 305.000 208.850,304.620 212.000,304.156 212.000 C 303.691 212.000,302.988 191.197,302.594 165.771 C 302.199 140.345,301.518 119.307,301.080 119.021 C 300.643 118.734,299.961 114.005,299.564 108.511 C 299.168 103.017,298.496 98.292,298.070 98.011 C 295.303 96.187,296.006 87.249,298.962 86.658 C 302.537 85.943,311.000 78.292,311.000 75.775 C 311.000 74.799,311.450 74.000,312.000 74.000 C 312.550 74.000,313.000 71.525,313.000 68.500 C 313.000 65.475,312.606 63.000,312.125 63.000 C 311.644 63.000,310.981 61.656,310.653 60.013 C 310.055 57.026,302.220 48.000,300.224 48.000 C 299.643 48.000,298.979 47.437,298.749 46.750 C 298.452 45.863,295.475 45.500,288.498 45.500 C 281.521 45.500,278.545 45.863,278.250 46.750 C 278.021 47.437,277.196 48.000,276.417 48.000 C 275.637 48.000,275.000 48.436,275.000 48.969 C 275.000 50.316,271.863 49.053,269.711 46.840 C 268.727 45.828,267.265 45.000,266.461 45.000 C 265.657 45.000,265.000 44.550,265.000 44.000 C 265.000 43.450,264.311 43.000,263.469 43.000 C 262.626 43.000,261.677 42.322,261.359 41.494 C 261.042 40.666,259.031 39.709,256.891 39.367 C 254.751 39.024,253.000 38.372,253.000 37.918 C 253.000 37.463,251.425 36.795,249.500 36.434 C 247.575 36.073,246.000 35.413,246.000 34.968 C 246.000 34.523,242.963 33.839,239.250 33.447 C 235.537 33.055,232.220 32.297,231.877 31.763 C 231.229 30.754,189.371 29.854,180.750 30.664 M243.000 46.868 C 243.000 47.346,244.903 47.992,247.228 48.304 C 249.554 48.616,251.617 49.350,251.812 49.935 C 252.007 50.521,252.620 51.000,253.174 51.000 C 254.717 51.000,263.797 60.781,264.579 63.286 C 264.959 64.504,265.771 65.821,266.385 66.214 C 268.026 67.263,267.900 88.200,266.250 88.750 C 265.563 88.979,265.000 89.755,265.000 90.473 C 265.000 92.345,254.571 102.686,251.816 103.547 C 250.542 103.944,249.179 104.771,248.787 105.385 C 247.727 107.041,221.806 106.914,221.250 105.250 C 221.021 104.563,220.182 104.000,219.385 104.000 C 218.589 104.000,217.678 103.325,217.362 102.500 C 217.045 101.675,216.213 101.000,215.514 101.000 C 212.971 101.000,205.867 92.957,205.295 89.429 C 204.989 87.543,204.347 86.000,203.869 86.000 C 203.391 86.000,203.000 82.625,203.000 78.500 C 203.000 74.167,203.422 71.000,204.000 71.000 C 204.550 71.000,205.000 69.861,205.000 68.469 C 205.000 67.076,205.634 65.694,206.410 65.396 C 207.185 65.099,208.094 63.763,208.429 62.428 C 208.764 61.092,209.480 60.000,210.019 60.000 C 210.559 60.000,211.000 59.311,211.000 58.469 C 211.000 57.626,211.787 56.645,212.750 56.288 C 213.713 55.931,215.175 54.884,216.000 53.962 C 216.825 53.040,218.625 51.936,220.000 51.508 C 221.375 51.080,222.773 50.307,223.106 49.789 C 223.439 49.272,225.577 48.598,227.856 48.293 C 230.135 47.987,232.000 47.346,232.000 46.868 C 232.000 46.391,234.475 46.000,237.500 46.000 C 240.525 46.000,243.000 46.391,243.000 46.868 M169.778 52.833 C 169.992 53.475,170.804 54.000,171.583 54.000 C 172.363 54.000,173.000 54.450,173.000 55.000 C 173.000 55.550,173.503 56.000,174.118 56.000 C 175.572 56.000,183.000 63.428,183.000 64.882 C 183.000 65.497,183.445 66.000,183.988 66.000 C 184.532 66.000,185.264 67.800,185.616 70.000 C 185.968 72.200,186.648 74.000,187.128 74.000 C 187.608 74.000,188.000 76.700,188.000 80.000 C 188.000 83.300,187.609 86.000,187.132 86.000 C 186.654 86.000,186.023 87.792,185.729 89.982 C 185.134 94.423,175.647 105.036,170.966 106.499 C 169.610 106.923,168.179 107.771,167.786 108.385 C 167.324 109.108,162.655 109.500,154.500 109.500 C 146.345 109.500,141.676 109.108,141.214 108.385 C 140.821 107.771,139.391 106.923,138.036 106.499 C 135.322 105.651,127.000 97.793,127.000 96.079 C 127.000 95.486,126.555 95.000,126.012 95.000 C 125.468 95.000,124.736 93.200,124.384 91.000 C 124.032 88.800,123.352 87.000,122.872 87.000 C 122.392 87.000,122.000 84.075,122.000 80.500 C 122.000 76.925,122.392 74.000,122.872 74.000 C 123.352 74.000,124.024 72.249,124.367 70.109 C 124.709 67.969,125.670 65.957,126.503 65.637 C 127.336 65.318,128.541 63.908,129.180 62.504 C 129.820 61.100,131.358 59.697,132.599 59.386 C 133.840 59.074,135.099 58.185,135.396 57.410 C 135.694 56.634,136.626 56.000,137.469 56.000 C 138.311 56.000,139.000 55.550,139.000 55.000 C 139.000 54.450,139.675 54.000,140.500 54.000 C 141.325 54.000,142.000 53.580,142.000 53.066 C 142.000 50.841,169.038 50.614,169.778 52.833 M285.861 59.000 C 290.031 59.000,292.728 61.392,293.628 65.889 C 294.247 68.987,291.020 73.619,290.148 70.884 C 289.905 70.123,289.098 69.140,288.353 68.700 C 287.609 68.260,287.000 67.248,287.000 66.450 C 287.000 65.653,286.559 65.000,286.019 65.000 C 285.480 65.000,284.764 63.908,284.429 62.572 C 284.094 61.237,283.185 59.901,282.410 59.604 C 281.634 59.306,281.036 58.486,281.079 57.781 C 281.141 56.778,281.267 56.771,281.662 57.750 C 281.940 58.438,283.829 59.000,285.861 59.000 M106.000 64.000 C 106.000 64.550,106.949 65.000,108.108 65.000 C 110.556 65.000,110.028 69.832,107.420 71.300 C 106.639 71.740,106.000 72.752,106.000 73.550 C 106.000 74.347,105.555 75.000,105.012 75.000 C 104.468 75.000,103.736 76.800,103.384 79.000 C 102.700 83.278,101.000 84.506,101.000 80.722 C 101.000 79.469,100.100 77.674,99.000 76.732 C 97.900 75.790,97.000 74.340,97.000 73.510 C 97.000 72.679,96.438 71.964,95.750 71.921 C 94.750 71.858,94.750 71.741,95.750 71.338 C 96.438 71.060,97.000 69.704,97.000 68.323 C 97.000 66.654,97.670 65.638,99.000 65.290 C 100.100 65.002,101.000 64.369,101.000 63.883 C 101.000 63.398,102.125 63.000,103.500 63.000 C 104.875 63.000,106.000 63.450,106.000 64.000 M212.750 70.893 C 211.787 71.869,211.000 73.643,211.000 74.834 C 211.000 76.025,210.550 77.000,210.000 77.000 C 209.450 77.000,209.000 78.350,209.000 80.000 C 209.000 81.650,209.414 83.000,209.921 83.000 C 210.427 83.000,211.134 84.336,211.493 85.968 C 213.503 95.120,229.000 89.769,229.000 79.923 C 229.000 70.866,218.520 65.043,212.750 70.893 M135.125 71.653 C 127.656 74.894,127.550 92.000,135.000 92.000 C 135.550 92.000,136.000 92.450,136.000 93.000 C 136.000 93.550,137.350 94.000,139.000 94.000 C 140.650 94.000,142.000 93.550,142.000 93.000 C 142.000 92.450,142.445 92.000,142.989 92.000 C 144.510 92.000,148.000 88.712,148.000 87.278 C 148.000 86.575,148.450 86.000,149.000 86.000 C 149.550 86.000,150.000 84.200,150.000 82.000 C 150.000 79.800,149.550 78.000,149.000 78.000 C 148.450 78.000,148.000 77.425,148.000 76.722 C 148.000 73.354,139.195 69.888,135.125 71.653 M226.000 82.000 C 226.000 83.303,223.415 83.877,221.909 82.907 C 220.697 82.127,220.697 81.873,221.909 81.093 C 223.415 80.123,226.000 80.697,226.000 82.000 M145.000 84.500 C 145.000 85.325,144.325 86.000,143.500 86.000 C 142.675 86.000,142.000 85.325,142.000 84.500 C 142.000 83.675,142.675 83.000,143.500 83.000 C 144.325 83.000,145.000 83.675,145.000 84.500 M202.000 98.875 C 202.000 99.356,203.376 100.025,205.058 100.362 C 212.220 101.794,214.594 110.881,208.224 112.480 C 206.737 112.853,205.251 113.595,204.921 114.127 C 203.921 115.745,189.988 115.599,188.976 113.960 C 188.447 113.105,186.378 112.545,183.685 112.528 C 180.567 112.508,179.402 112.131,179.738 111.250 C 180.000 110.563,181.291 110.000,182.607 110.000 C 184.271 110.000,185.000 109.435,185.000 108.146 C 185.000 105.224,189.662 100.929,193.512 100.304 C 195.431 99.993,197.000 99.347,197.000 98.869 C 197.000 98.391,198.125 98.000,199.500 98.000 C 200.875 98.000,202.000 98.394,202.000 98.875 M194.000 101.921 C 194.000 102.427,192.650 103.138,191.000 103.500 C 189.350 103.862,188.000 104.798,188.000 105.579 C 188.000 106.361,187.550 107.000,187.000 107.000 C 185.463 107.000,185.812 108.955,187.681 110.821 C 189.714 112.852,205.120 113.139,205.780 111.159 C 205.993 110.521,206.804 110.000,207.583 110.000 C 209.947 110.000,209.419 103.922,207.000 103.290 C 205.900 103.002,205.000 102.369,205.000 101.883 C 205.000 101.398,202.525 101.000,199.500 101.000 C 196.475 101.000,194.000 101.414,194.000 101.921 M176.290 117.000 C 176.002 118.100,175.369 119.000,174.883 119.000 C 173.530 119.000,173.834 116.234,175.250 115.662 C 175.938 115.385,176.570 115.122,176.656 115.079 C 176.742 115.036,176.577 115.900,176.290 117.000 M175.073 124.000 C 175.583 124.000,176.000 124.675,176.000 125.500 C 176.000 126.975,174.013 127.715,173.986 126.250 C 173.979 125.838,173.818 124.600,173.630 123.500 C 173.441 122.400,173.480 122.063,173.717 122.750 C 173.953 123.438,174.564 124.000,175.073 124.000 M203.000 128.000 C 203.000 128.550,201.875 129.000,200.500 129.000 C 198.028 129.000,197.998 129.105,197.792 138.250 L 197.585 147.500 197.255 138.250 C 196.995 130.950,196.617 129.000,195.462 129.000 C 194.658 129.000,194.000 128.550,194.000 128.000 C 194.000 127.450,196.025 127.000,198.500 127.000 C 200.975 127.000,203.000 127.450,203.000 128.000 M222.177 130.050 C 220.980 131.165,220.000 131.761,220.000 131.373 C 220.000 130.401,223.400 127.169,223.927 127.640 C 224.162 127.849,223.375 128.934,222.177 130.050 M215.503 132.260 L 218.500 132.700 215.294 132.850 L 212.088 133.000 211.743 140.250 C 211.401 147.434,211.396 147.418,211.214 138.500 C 211.113 133.550,211.363 130.022,211.769 130.660 C 212.174 131.298,213.855 132.018,215.503 132.260 M182.716 139.750 C 182.487 141.262,182.300 140.025,182.300 137.000 C 182.300 133.975,182.487 132.738,182.716 134.250 C 182.945 135.762,182.945 138.238,182.716 139.750 M100.000 205.500 C 100.000 208.525,99.550 211.000,99.000 211.000 C 98.450 211.000,98.000 208.525,98.000 205.500 C 98.000 202.475,98.450 200.000,99.000 200.000 C 99.550 200.000,100.000 202.475,100.000 205.500 M124.768 346.000 C 125.455 347.100,125.756 348.000,125.437 348.000 C 124.688 348.000,122.000 345.318,122.000 344.571 C 122.000 343.299,123.596 344.123,124.768 346.000 " stroke="none" fill-rule="evenodd"></path></g></svg>