<svg width="100%" height="100%" viewBox="0 0 400 400" version="1.1" xmlns="http://www.w3.org/2000/svg" style="fill-rule:evenodd;clip-rule:evenodd;stroke-linejoin:round;stroke-miterlimit:2;">
<g>
<path d="M91,48C91,49.374 88.333,48.667 87,49C83.643,49.839 80.223,50.711 77,52C66.088,56.365 55.753,63.246 47.5,71.5C20.997,98.003 16.221,138.553 30,173C32.499,179.248 36.901,184.777 41,190C64.982,220.559 106.571,226.107 143,217C153.81,214.297 163.751,209.166 173,203C174.375,202.083 180.426,199.321 181.169,198.19C188.429,187.141 183,171.792 183,158.571L183,121L109,121L109,153L147,153L147,165C147,168.356 147.205,171.744 146.713,175.064C146.172,178.717 137.784,181.036 135,182C122.174,186.439 110.206,187.773 97,184C69.154,176.044 60.799,146.606 64,121C66.546,100.636 89.571,81 110,81C115.137,81 121.98,82.884 127,84C132.27,85.171 138.101,88.001 142.599,91C143.687,91.725 149.446,95.857 151.027,96.287C156.973,97.903 158.276,94.759 161,90.99C164.632,85.964 169.126,81.618 173,76.776C174.863,74.448 177.493,71.847 176.69,68.575C175.862,65.2 169.731,62.821 167,61C157.065,54.377 145.086,48.93 133,48C126.013,47.463 119.008,47 112,47C104.992,47 91,40.992 91,48M269,48C266.31,48.564 263.608,49.131 261,50C255.596,51.801 250.175,53.62 245,56C238.415,59.029 230.228,64.908 224.948,69.819C202.287,90.895 195.254,123.61 200.473,153.437C209.741,206.394 272.401,234.373 321,216C342.318,207.941 362.729,190.302 371.737,169.042C376.511,157.774 377.175,144.983 377,133C376.541,101.637 364.209,75.16 336.779,59C320.891,49.64 305.77,48.754 288,47C284.011,46.606 280.107,45.553 276.122,45.122C274.319,44.927 269,43.988 269,48M293,82C293,83.7 296.332,82.673 298,83C300.381,83.467 302.816,83.942 305,85C314.643,89.672 321.463,94.371 328,103C344.206,124.393 338.882,160.238 317.521,176.096C304.692,185.621 290.301,185.958 275,184C266.881,182.961 258.762,175.897 253.496,170.504C232.325,148.818 233.697,109.124 259.253,91C268.098,84.727 272.665,84.403 283,82C283.086,81.98 293,79.112 293,82M32.853,347.67L187,353L187,327L33,327"/>
</g>
</svg>
