<svg width="100%" height="100%" viewBox="0 0 400 400" version="1.1" xmlns="http://www.w3.org/2000/svg" style="fill-rule:evenodd;clip-rule:evenodd;stroke-linejoin:round;stroke-miterlimit:2;">
<g>
<path d="M113.476,5.765C110.16,8.14 109.085,12.641 106.772,16C99.908,25.969 93.672,36.352 87.074,46.5C67.215,77.048 48.25,108.5 26.916,138C20.344,147.088 15.21,157.063 8.75,166.25C7.092,168.608 5.011,169.729 5.04,173.007C5.075,177.016 12.351,190.645 12.88,191.989C17.723,204.293 22.624,216.547 27.678,228.767C30.014,234.415 35.182,241.923 35.056,248.161C34.913,255.222 30.07,263.188 27.101,269C22.218,278.561 17.93,288.424 13.653,298.265C11.723,302.706 5.33,312.315 5.186,317.068C5.067,320.976 14.389,324.38 14.465,324.424C21.757,328.655 29.543,331.98 37,335.893C65.451,350.822 93.449,365.692 121.996,380.162C128.559,383.489 135.283,386.466 141.75,389.987C144.689,391.587 147.218,394.981 150.56,394.804C155.39,394.547 162.568,384.392 163.085,383.864C172.834,373.915 179.956,360.269 192.471,354.155C193.25,353.775 218.281,362.007 223,363.538C245.846,370.951 268.192,379.511 291,386.937C294.421,388.051 305.688,391.957 309.05,393.169C310.477,393.683 311.791,394.944 313.3,394.793C316.551,394.468 318.019,390.705 319.298,388.5C323.73,380.859 328.351,373.284 332.515,365.492C346.688,338.972 363.02,313.192 378.381,287.258C382.22,280.777 386.15,274.259 390.001,267.75C390.812,266.379 394.727,260.188 394.891,258.716C395.158,256.326 392.91,254.117 392,252.154C389.523,246.808 387.17,241.405 384.824,236C376.951,217.857 368.18,200.02 360.663,181.735C358.685,176.924 356.91,172.028 354.854,167.25C353.84,164.893 351.693,163.049 351.024,160.572C350.608,159.03 350.272,157.288 350.813,155.785C352.146,152.079 356.573,147.336 358.821,143.807C367.411,130.325 376.542,117.201 385.25,103.788C387.219,100.755 389.204,97.732 391.25,94.75C392.319,93.192 392.948,91.391 393.971,90.039C394.311,89.589 395.266,89.374 395.147,88.824C395.034,88.307 394.143,88.36 393.617,88.41C389.982,88.753 386.359,89.274 382.779,89.991C365.482,93.453 348.345,98.269 331.183,102.368C327.528,103.241 320.615,101.147 320.192,104.881C316.171,140.381 318.846,176.326 318.759,212.053L318.5,318.5L81.5,318.5L81.5,81.5L176.75,81.245C208.501,81.16 241.336,88.544 272,80.305C279.674,78.243 268.689,64.76 266.98,57C263.44,40.926 260.029,24.682 255.897,8.75L254.923,5L184.711,5.015C146.095,5.024 114.039,5.361 113.476,5.765ZM139.5,109.635C128.711,111.812 120.076,115.143 111.617,122.5C105.268,128.021 98.611,137.471 97.058,145.81C93.741,163.619 95.17,182.759 107.818,196.633C116.516,206.175 125.758,209.326 137.75,211.67C141.018,212.309 144.139,214.044 147.468,213.98C152.644,213.88 163.445,211.096 167.518,210.114C175.669,208.149 175.334,207.485 181.919,203.601C184.351,202.167 189.378,200.426 189.91,196.67C190.958,189.262 190.956,181.732 190.967,174.25L191,152L145.932,152L146.5,173.5L157.297,173.784L168.094,174.069L167.797,180.284C167.19,193.014 149.827,191.977 140.942,189.837C128.337,186.8 118.879,173.927 119.02,160.931C119.129,150.857 126.269,137.492 136.038,133.75C146.168,129.869 156.452,131.996 166.338,135.66C168.982,136.64 171.941,143.314 175,139.91C177.952,136.624 186.244,128.086 185.549,122.871C185.048,119.115 180.206,117.338 177.746,115.929C167.154,109.864 151.491,107.218 139.5,109.635ZM237.51,110.594C202.722,118.377 185.83,164.2 208.206,192.494C217.776,204.595 229.976,208.35 244.23,212C252.953,214.234 253.005,214.265 261.813,212.355C273.612,209.796 284.57,205.149 292.562,195.721C316.902,167.008 303.756,120.922 267.183,111.009C257.582,108.406 247.179,108.43 237.51,110.594ZM261.877,132.801C263.668,135.701 268.172,136.531 270.636,138.423C275.334,142.029 277.291,148.466 278.924,153.75C280.559,159.041 281.576,162.443 280.079,168C277.707,176.806 272.427,184.35 264.096,188.279C250.359,194.757 232.035,188.114 225.396,174.395C224.207,171.94 223.467,166.89 223.433,164.101C223.294,152.597 226.061,141.851 236.561,135.488C242.958,131.61 246.103,131.808 253.342,131.29C255.32,131.148 260.343,130.316 261.877,132.801ZM102.667,274.667C102.3,275.033 102,278.858 102,283.167L102,291L194,291L194,283.107C194,248.806 134.644,242.69 102.667,274.667Z"/>
</g>
</svg>
