<svg id="svg" version="1.1" width="400" height="400" xmlns="http://www.w3.org/2000/svg" xmlns:xlink="http://www.w3.org/1999/xlink" style="display: block;"><g id="svgg"><path id="path0" d="M91.000 48.000 C 91.000 48.550,89.200 49.000,87.000 49.000 C 84.800 49.000,83.000 49.450,83.000 50.000 C 83.000 50.550,81.650 51.000,80.000 51.000 C 78.350 51.000,77.000 51.450,77.000 52.000 C 77.000 52.550,76.100 53.000,75.000 53.000 C 73.900 53.000,73.000 53.450,73.000 54.000 C 73.000 54.550,72.100 55.000,71.000 55.000 C 69.900 55.000,69.000 55.450,69.000 56.000 C 69.000 56.550,68.100 57.000,67.000 57.000 C 65.900 57.000,65.000 57.450,65.000 58.000 C 65.000 58.550,64.199 59.000,63.221 59.000 C 62.242 59.000,60.793 59.900,60.000 61.000 C 59.207 62.100,57.976 63.000,57.265 63.000 C 55.578 63.000,39.000 79.578,39.000 81.265 C 39.000 81.976,38.100 83.207,37.000 84.000 C 35.900 84.793,35.000 86.242,35.000 87.221 C 35.000 88.199,34.550 89.000,34.000 89.000 C 33.450 89.000,33.000 89.900,33.000 91.000 C 33.000 92.100,32.550 93.000,32.000 93.000 C 31.450 93.000,31.000 93.900,31.000 95.000 C 31.000 96.100,30.550 97.000,30.000 97.000 C 29.450 97.000,29.000 97.900,29.000 99.000 C 29.000 100.100,28.550 101.000,28.000 101.000 C 27.450 101.000,27.000 102.350,27.000 104.000 C 27.000 105.650,26.550 107.000,26.000 107.000 C 25.450 107.000,25.000 108.800,25.000 111.000 C 25.000 113.200,24.550 115.000,24.000 115.000 C 23.368 115.000,23.000 122.000,23.000 134.000 C 23.000 146.000,23.368 153.000,24.000 153.000 C 24.550 153.000,25.000 154.800,25.000 157.000 C 25.000 159.200,25.450 161.000,26.000 161.000 C 26.550 161.000,27.000 162.350,27.000 164.000 C 27.000 165.650,27.450 167.000,28.000 167.000 C 28.550 167.000,29.000 168.350,29.000 170.000 C 29.000 171.650,29.450 173.000,30.000 173.000 C 30.550 173.000,31.000 173.900,31.000 175.000 C 31.000 176.100,31.450 177.000,32.000 177.000 C 32.550 177.000,33.000 177.801,33.000 178.779 C 33.000 179.758,33.900 181.207,35.000 182.000 C 36.100 182.793,37.000 184.052,37.000 184.799 C 37.000 185.546,38.800 187.886,41.000 190.000 C 43.200 192.114,45.000 194.361,45.000 194.993 C 45.000 196.478,47.522 199.000,49.007 199.000 C 49.639 199.000,51.886 200.800,54.000 203.000 C 56.114 205.200,58.553 207.000,59.422 207.000 C 60.290 207.000,61.000 207.450,61.000 208.000 C 61.000 208.550,61.900 209.000,63.000 209.000 C 64.100 209.000,65.000 209.450,65.000 210.000 C 65.000 210.550,65.900 211.000,67.000 211.000 C 68.100 211.000,69.000 211.450,69.000 212.000 C 69.000 212.550,69.900 213.000,71.000 213.000 C 72.100 213.000,73.000 213.450,73.000 214.000 C 73.000 214.550,73.900 215.000,75.000 215.000 C 76.100 215.000,77.000 215.450,77.000 216.000 C 77.000 216.550,78.800 217.000,81.000 217.000 C 83.200 217.000,85.000 217.450,85.000 218.000 C 85.000 218.550,86.800 219.000,89.000 219.000 C 91.200 219.000,93.000 219.450,93.000 220.000 C 93.000 220.630,99.667 221.000,111.000 221.000 C 122.333 221.000,129.000 220.630,129.000 220.000 C 129.000 219.450,131.250 219.000,134.000 219.000 C 136.750 219.000,139.000 218.550,139.000 218.000 C 139.000 217.450,140.800 217.000,143.000 217.000 C 145.200 217.000,147.000 216.550,147.000 216.000 C 147.000 215.450,148.350 215.000,150.000 215.000 C 151.650 215.000,153.000 214.550,153.000 214.000 C 153.000 213.450,153.900 213.000,155.000 213.000 C 156.100 213.000,157.000 212.550,157.000 212.000 C 157.000 211.450,157.900 211.000,159.000 211.000 C 160.100 211.000,161.000 210.550,161.000 210.000 C 161.000 209.450,161.900 209.000,163.000 209.000 C 164.100 209.000,165.000 208.550,165.000 208.000 C 165.000 207.450,165.801 207.000,166.779 207.000 C 167.758 207.000,169.207 206.100,170.000 205.000 C 170.793 203.900,172.143 203.000,173.000 203.000 C 173.857 203.000,175.207 202.100,176.000 201.000 C 176.793 199.900,178.049 199.000,178.792 199.000 C 182.868 199.000,183.000 197.734,183.000 158.571 L 183.000 121.000 146.000 121.000 L 109.000 121.000 109.000 137.000 L 109.000 153.000 128.000 153.000 L 147.000 153.000 147.000 165.000 C 147.000 175.837,146.828 177.000,145.221 177.000 C 144.242 177.000,142.793 177.900,142.000 179.000 C 141.153 180.174,139.411 181.000,137.779 181.000 C 136.251 181.000,135.000 181.450,135.000 182.000 C 135.000 182.550,133.650 183.000,132.000 183.000 C 130.350 183.000,129.000 183.450,129.000 184.000 C 129.000 184.550,126.750 185.000,124.000 185.000 C 121.250 185.000,119.000 185.450,119.000 186.000 C 119.000 186.556,116.333 187.000,113.000 187.000 C 109.667 187.000,107.000 186.556,107.000 186.000 C 107.000 185.450,104.750 185.000,102.000 185.000 C 99.250 185.000,97.000 184.550,97.000 184.000 C 97.000 183.450,96.100 183.000,95.000 183.000 C 93.900 183.000,93.000 182.550,93.000 182.000 C 93.000 181.450,92.100 181.000,91.000 181.000 C 89.900 181.000,89.000 180.550,89.000 180.000 C 89.000 179.450,88.199 179.000,87.221 179.000 C 86.242 179.000,84.793 178.100,84.000 177.000 C 83.207 175.900,81.962 175.000,81.234 175.000 C 79.610 175.000,75.000 170.523,75.000 168.947 C 75.000 168.317,73.650 166.541,72.000 165.000 C 70.350 163.459,69.000 161.478,69.000 160.599 C 69.000 159.719,68.550 159.000,68.000 159.000 C 67.450 159.000,67.000 157.650,67.000 156.000 C 67.000 154.350,66.550 153.000,66.000 153.000 C 65.450 153.000,65.000 151.650,65.000 150.000 C 65.000 148.350,64.550 147.000,64.000 147.000 C 63.385 147.000,63.000 142.000,63.000 134.000 C 63.000 126.000,63.385 121.000,64.000 121.000 C 64.550 121.000,65.000 119.650,65.000 118.000 C 65.000 116.350,65.450 115.000,66.000 115.000 C 66.550 115.000,67.000 113.749,67.000 112.221 C 67.000 110.589,67.826 108.847,69.000 108.000 C 70.100 107.207,71.000 105.857,71.000 105.000 C 71.000 104.143,71.900 102.793,73.000 102.000 C 74.100 101.207,75.000 99.836,75.000 98.954 C 75.000 96.989,79.083 93.000,81.094 93.000 C 81.899 93.000,83.207 92.100,84.000 91.000 C 84.793 89.900,86.143 89.000,87.000 89.000 C 87.857 89.000,89.207 88.100,90.000 87.000 C 90.847 85.826,92.589 85.000,94.221 85.000 C 95.749 85.000,97.000 84.550,97.000 84.000 C 97.000 83.450,98.800 83.000,101.000 83.000 C 103.200 83.000,105.000 82.550,105.000 82.000 C 105.000 81.450,107.250 81.000,110.000 81.000 C 112.750 81.000,115.000 81.450,115.000 82.000 C 115.000 82.556,117.667 83.000,121.000 83.000 C 124.333 83.000,127.000 83.444,127.000 84.000 C 127.000 84.550,128.350 85.000,130.000 85.000 C 131.650 85.000,133.000 85.450,133.000 86.000 C 133.000 86.550,133.900 87.000,135.000 87.000 C 136.100 87.000,137.000 87.450,137.000 88.000 C 137.000 88.550,137.900 89.000,139.000 89.000 C 140.100 89.000,141.000 89.450,141.000 90.000 C 141.000 90.550,141.719 91.000,142.599 91.000 C 143.478 91.000,145.459 92.350,147.000 94.000 C 151.360 98.667,161.000 96.595,161.000 90.990 C 161.000 90.385,163.700 87.239,167.000 84.000 C 170.300 80.761,173.000 77.510,173.000 76.776 C 173.000 76.042,173.900 74.793,175.000 74.000 C 178.423 71.533,176.820 65.000,172.792 65.000 C 172.049 65.000,170.793 64.100,170.000 63.000 C 169.207 61.900,167.857 61.000,167.000 61.000 C 166.143 61.000,164.793 60.100,164.000 59.000 C 163.207 57.900,161.758 57.000,160.779 57.000 C 159.801 57.000,159.000 56.550,159.000 56.000 C 159.000 55.450,158.100 55.000,157.000 55.000 C 155.900 55.000,155.000 54.550,155.000 54.000 C 155.000 53.450,153.650 53.000,152.000 53.000 C 150.350 53.000,149.000 52.550,149.000 52.000 C 149.000 51.450,147.650 51.000,146.000 51.000 C 144.350 51.000,143.000 50.550,143.000 50.000 C 143.000 49.450,140.750 49.000,138.000 49.000 C 135.250 49.000,133.000 48.550,133.000 48.000 C 133.000 47.365,125.333 47.000,112.000 47.000 C 98.667 47.000,91.000 47.365,91.000 48.000 M269.000 48.000 C 269.000 48.550,267.200 49.000,265.000 49.000 C 262.800 49.000,261.000 49.450,261.000 50.000 C 261.000 50.550,259.650 51.000,258.000 51.000 C 256.350 51.000,255.000 51.450,255.000 52.000 C 255.000 52.550,253.650 53.000,252.000 53.000 C 250.350 53.000,249.000 53.450,249.000 54.000 C 249.000 54.550,248.100 55.000,247.000 55.000 C 245.900 55.000,245.000 55.450,245.000 56.000 C 245.000 56.550,244.100 57.000,243.000 57.000 C 241.900 57.000,241.000 57.450,241.000 58.000 C 241.000 58.550,240.199 59.000,239.221 59.000 C 238.242 59.000,236.793 59.900,236.000 61.000 C 235.207 62.100,233.976 63.000,233.265 63.000 C 231.578 63.000,215.000 79.578,215.000 81.265 C 215.000 81.976,214.100 83.207,213.000 84.000 C 211.900 84.793,211.000 86.242,211.000 87.221 C 211.000 88.199,210.550 89.000,210.000 89.000 C 209.450 89.000,209.000 89.900,209.000 91.000 C 209.000 92.100,208.550 93.000,208.000 93.000 C 207.450 93.000,207.000 93.900,207.000 95.000 C 207.000 96.100,206.550 97.000,206.000 97.000 C 205.450 97.000,205.000 97.900,205.000 99.000 C 205.000 100.100,204.550 101.000,204.000 101.000 C 203.450 101.000,203.000 102.350,203.000 104.000 C 203.000 105.650,202.550 107.000,202.000 107.000 C 201.450 107.000,201.000 108.350,201.000 110.000 C 201.000 111.650,200.550 113.000,200.000 113.000 C 199.367 113.000,199.000 120.333,199.000 133.000 C 199.000 145.667,199.367 153.000,200.000 153.000 C 200.550 153.000,201.000 154.800,201.000 157.000 C 201.000 159.200,201.450 161.000,202.000 161.000 C 202.550 161.000,203.000 162.350,203.000 164.000 C 203.000 165.650,203.450 167.000,204.000 167.000 C 204.550 167.000,205.000 168.350,205.000 170.000 C 205.000 171.650,205.450 173.000,206.000 173.000 C 206.550 173.000,207.000 173.801,207.000 174.779 C 207.000 175.758,207.900 177.207,209.000 178.000 C 210.100 178.793,211.000 180.143,211.000 181.000 C 211.000 181.857,211.900 183.207,213.000 184.000 C 214.100 184.793,215.000 186.024,215.000 186.737 C 215.000 188.426,229.574 203.000,231.263 203.000 C 231.976 203.000,233.207 203.900,234.000 205.000 C 234.793 206.100,236.143 207.000,237.000 207.000 C 237.857 207.000,239.207 207.900,240.000 209.000 C 240.793 210.100,242.242 211.000,243.221 211.000 C 244.199 211.000,245.000 211.450,245.000 212.000 C 245.000 212.550,245.900 213.000,247.000 213.000 C 248.100 213.000,249.000 213.450,249.000 214.000 C 249.000 214.550,250.350 215.000,252.000 215.000 C 253.650 215.000,255.000 215.450,255.000 216.000 C 255.000 216.550,256.350 217.000,258.000 217.000 C 259.650 217.000,261.000 217.450,261.000 218.000 C 261.000 218.550,263.250 219.000,266.000 219.000 C 268.750 219.000,271.000 219.450,271.000 220.000 C 271.000 220.627,277.333 221.000,288.000 221.000 C 298.667 221.000,305.000 220.627,305.000 220.000 C 305.000 219.450,306.800 219.000,309.000 219.000 C 311.200 219.000,313.000 218.550,313.000 218.000 C 313.000 217.450,314.800 217.000,317.000 217.000 C 319.200 217.000,321.000 216.550,321.000 216.000 C 321.000 215.450,321.900 215.000,323.000 215.000 C 324.100 215.000,325.000 214.550,325.000 214.000 C 325.000 213.450,326.251 213.000,327.779 213.000 C 329.411 213.000,331.153 212.174,332.000 211.000 C 332.793 209.900,334.242 209.000,335.221 209.000 C 336.199 209.000,337.000 208.550,337.000 208.000 C 337.000 207.450,337.719 207.000,338.599 207.000 C 339.478 207.000,341.459 205.650,343.000 204.000 C 344.541 202.350,346.307 201.000,346.923 201.000 C 348.383 201.000,359.000 190.383,359.000 188.923 C 359.000 188.307,360.350 186.541,362.000 185.000 C 363.650 183.459,365.000 181.478,365.000 180.599 C 365.000 179.719,365.450 179.000,366.000 179.000 C 366.550 179.000,367.000 178.100,367.000 177.000 C 367.000 175.900,367.450 175.000,368.000 175.000 C 368.550 175.000,369.000 174.100,369.000 173.000 C 369.000 171.900,369.450 171.000,370.000 171.000 C 370.550 171.000,371.000 170.100,371.000 169.000 C 371.000 167.900,371.450 167.000,372.000 167.000 C 372.550 167.000,373.000 165.650,373.000 164.000 C 373.000 162.350,373.450 161.000,374.000 161.000 C 374.550 161.000,375.000 159.200,375.000 157.000 C 375.000 154.800,375.450 153.000,376.000 153.000 C 376.633 153.000,377.000 145.667,377.000 133.000 C 377.000 120.333,376.633 113.000,376.000 113.000 C 375.450 113.000,375.000 111.650,375.000 110.000 C 375.000 108.350,374.550 107.000,374.000 107.000 C 373.450 107.000,373.000 105.650,373.000 104.000 C 373.000 102.350,372.550 101.000,372.000 101.000 C 371.450 101.000,371.000 99.650,371.000 98.000 C 371.000 96.350,370.550 95.000,370.000 95.000 C 369.450 95.000,369.000 94.100,369.000 93.000 C 369.000 91.900,368.550 91.000,368.000 91.000 C 367.450 91.000,367.000 90.281,367.000 89.401 C 367.000 88.522,365.650 86.541,364.000 85.000 C 362.350 83.459,361.000 81.697,361.000 81.085 C 361.000 79.523,344.312 63.000,342.735 63.000 C 342.024 63.000,340.793 62.100,340.000 61.000 C 339.207 59.900,337.758 59.000,336.779 59.000 C 335.801 59.000,335.000 58.550,335.000 58.000 C 335.000 57.450,334.100 57.000,333.000 57.000 C 331.900 57.000,331.000 56.550,331.000 56.000 C 331.000 55.450,330.100 55.000,329.000 55.000 C 327.900 55.000,327.000 54.550,327.000 54.000 C 327.000 53.450,326.100 53.000,325.000 53.000 C 323.900 53.000,323.000 52.550,323.000 52.000 C 323.000 51.450,321.650 51.000,320.000 51.000 C 318.350 51.000,317.000 50.550,317.000 50.000 C 317.000 49.450,314.750 49.000,312.000 49.000 C 309.250 49.000,307.000 48.550,307.000 48.000 C 307.000 47.368,300.000 47.000,288.000 47.000 C 276.000 47.000,269.000 47.368,269.000 48.000 M293.000 82.000 C 293.000 82.550,295.250 83.000,298.000 83.000 C 300.750 83.000,303.000 83.450,303.000 84.000 C 303.000 84.550,303.900 85.000,305.000 85.000 C 306.100 85.000,307.000 85.450,307.000 86.000 C 307.000 86.550,307.900 87.000,309.000 87.000 C 310.100 87.000,311.000 87.450,311.000 88.000 C 311.000 88.550,311.710 89.000,312.578 89.000 C 313.447 89.000,315.886 90.800,318.000 93.000 C 320.114 95.200,322.553 97.000,323.422 97.000 C 324.290 97.000,325.000 97.719,325.000 98.599 C 325.000 99.478,326.350 101.459,328.000 103.000 C 329.650 104.541,331.000 106.522,331.000 107.401 C 331.000 108.281,331.450 109.000,332.000 109.000 C 332.550 109.000,333.000 110.350,333.000 112.000 C 333.000 113.650,333.450 115.000,334.000 115.000 C 334.550 115.000,335.000 115.900,335.000 117.000 C 335.000 118.100,335.450 119.000,336.000 119.000 C 336.619 119.000,337.000 124.333,337.000 133.000 C 337.000 141.667,336.619 147.000,336.000 147.000 C 335.450 147.000,335.000 148.350,335.000 150.000 C 335.000 151.650,334.550 153.000,334.000 153.000 C 333.450 153.000,333.000 154.350,333.000 156.000 C 333.000 157.650,332.550 159.000,332.000 159.000 C 331.450 159.000,331.000 159.681,331.000 160.514 C 331.000 162.488,314.488 179.000,312.514 179.000 C 311.681 179.000,311.000 179.450,311.000 180.000 C 311.000 180.550,310.100 181.000,309.000 181.000 C 307.900 181.000,307.000 181.450,307.000 182.000 C 307.000 182.550,305.650 183.000,304.000 183.000 C 302.350 183.000,301.000 183.450,301.000 184.000 C 301.000 184.615,296.000 185.000,288.000 185.000 C 280.000 185.000,275.000 184.615,275.000 184.000 C 275.000 183.450,273.650 183.000,272.000 183.000 C 270.350 183.000,269.000 182.550,269.000 182.000 C 269.000 181.450,268.199 181.000,267.221 181.000 C 266.242 181.000,264.793 180.100,264.000 179.000 C 263.207 177.900,261.974 177.000,261.261 177.000 C 259.570 177.000,247.000 164.430,247.000 162.739 C 247.000 162.026,246.100 160.793,245.000 160.000 C 243.826 159.153,243.000 157.411,243.000 155.779 C 243.000 154.251,242.550 153.000,242.000 153.000 C 241.450 153.000,241.000 151.688,241.000 150.083 C 241.000 148.479,240.536 147.012,239.969 146.823 C 238.565 146.355,238.557 119.648,239.962 119.179 C 240.533 118.989,241.000 117.521,241.000 115.917 C 241.000 114.313,241.450 113.000,242.000 113.000 C 242.550 113.000,243.000 112.100,243.000 111.000 C 243.000 109.900,243.450 109.000,244.000 109.000 C 244.550 109.000,245.000 108.199,245.000 107.221 C 245.000 106.242,245.900 104.793,247.000 104.000 C 248.100 103.207,249.000 101.971,249.000 101.253 C 249.000 99.554,257.554 91.000,259.253 91.000 C 259.971 91.000,261.207 90.100,262.000 89.000 C 262.793 87.900,264.242 87.000,265.221 87.000 C 266.199 87.000,267.000 86.550,267.000 86.000 C 267.000 85.450,268.350 85.000,270.000 85.000 C 271.650 85.000,273.000 84.550,273.000 84.000 C 273.000 83.450,275.250 83.000,278.000 83.000 C 280.750 83.000,283.000 82.550,283.000 82.000 C 283.000 81.450,285.250 81.000,288.000 81.000 C 290.750 81.000,293.000 81.450,293.000 82.000 M33.000 338.571 C 33.000 354.796,23.237 353.000,111.429 353.000 L 187.000 353.000 187.000 340.000 L 187.000 327.000 110.000 327.000 L 33.000 327.000 33.000 338.571 " stroke="none" fill="#000000" fill-rule="evenodd"></path></g></svg>