<svg id="svg" xmlns="http://www.w3.org/2000/svg" xmlns:xlink="http://www.w3.org/1999/xlink" width="400" height="400" viewBox="0, 0, 400,400"><g id="svgg"><path id="path0" d="M58.400 28.751 C 45.797 30.094,36.351 38.394,33.125 50.957 C 32.786 52.279,25.986 76.532,18.014 104.854 C 5.896 147.907,3.520 156.509,3.521 157.334 C 3.542 172.352,12.346 187.886,25.520 196.150 C 52.213 212.893,87.460 198.743,95.441 168.080 C 96.385 164.451,97.086 159.075,96.869 157.121 C 96.799 156.491,97.529 149.581,99.428 132.880 C 103.245 99.309,110.329 37.076,110.852 32.520 L 111.297 28.640 85.129 28.666 C 70.736 28.680,58.708 28.718,58.400 28.751 M117.845 29.160 C 117.761 29.646,111.817 81.689,109.516 102.080 C 108.945 107.140,107.321 121.432,105.907 133.840 L 103.336 156.400 103.509 158.960 C 104.821 178.369,116.793 194.273,134.894 200.649 C 161.504 210.023,190.724 193.147,195.998 165.360 C 196.842 160.913,196.800 164.669,196.800 94.121 L 196.800 28.640 157.367 28.640 L 117.935 28.640 117.845 29.160 M203.202 91.640 C 203.203 156.106,203.227 158.819,203.830 162.962 C 208.173 192.781,238.603 210.822,266.640 200.202 C 283.073 193.977,294.526 179.135,296.552 161.440 C 296.916 158.261,297.006 159.273,294.161 134.376 C 292.710 121.673,289.436 92.992,286.887 70.640 C 284.337 48.288,282.209 29.694,282.156 29.320 L 282.060 28.640 242.630 28.640 L 203.200 28.640 203.202 91.640 M288.800 28.905 C 288.800 29.056,289.666 36.780,290.726 46.070 C 295.257 85.823,297.806 108.242,298.319 112.880 C 298.622 115.608,299.839 126.336,301.025 136.720 C 302.211 147.104,303.258 156.887,303.351 158.461 C 304.261 173.838,311.681 187.049,324.050 195.314 C 353.982 215.311,394.035 195.513,396.626 159.440 L 396.764 157.520 381.814 104.240 C 366.060 48.097,365.900 47.538,364.989 45.520 C 361.111 36.927,353.443 30.891,344.108 29.084 C 341.581 28.595,288.800 28.424,288.800 28.905 M99.608 176.450 C 95.735 186.537,87.669 195.997,77.680 202.169 C 62.027 211.841,40.390 212.231,24.359 203.130 L 23.358 202.562 23.399 282.441 L 23.440 362.320 23.816 363.440 C 25.187 367.526,28.270 370.298,32.193 370.974 C 33.338 371.171,55.811 371.197,195.760 371.161 L 358.000 371.120 359.120 370.742 C 362.951 369.448,365.333 366.941,366.515 362.960 C 366.825 361.916,367.058 207.200,366.750 207.200 C 366.676 207.200,366.037 207.373,365.328 207.586 C 339.616 215.281,311.640 202.305,301.196 177.839 C 300.708 176.695,300.247 175.616,300.171 175.440 L 300.034 175.120 299.914 175.440 C 298.683 178.732,296.619 182.714,294.483 185.920 C 273.322 217.675,226.995 217.717,205.765 186.000 C 203.918 183.240,200.800 177.427,200.800 176.742 C 200.800 176.708,200.649 176.339,200.464 175.922 L 200.129 175.163 199.433 176.870 C 189.360 201.585,162.334 214.818,136.033 207.915 C 120.639 203.875,106.692 191.587,100.897 176.960 C 100.120 174.999,100.159 175.014,99.608 176.450 M301.393 238.471 C 313.249 239.881,324.263 244.836,332.619 252.519 L 333.318 253.161 325.189 261.291 L 317.061 269.420 316.164 268.589 C 305.318 258.548,287.040 257.997,274.450 267.333 C 253.385 282.952,255.848 315.234,279.040 327.488 C 289.324 332.921,303.026 332.563,313.196 326.595 C 313.902 326.180,314.533 325.841,314.597 325.841 C 314.742 325.840,316.242 324.688,317.503 323.607 C 321.338 320.323,324.879 314.398,325.921 309.520 C 326.015 309.080,326.130 308.594,326.177 308.440 C 326.257 308.175,325.436 308.160,310.491 308.160 L 294.720 308.160 294.720 296.400 L 294.720 284.640 321.901 284.640 L 349.081 284.640 349.266 285.880 C 354.875 323.471,333.293 351.954,297.840 353.751 C 264.405 355.446,236.761 329.339,236.772 296.080 C 236.782 265.287,260.136 240.443,291.200 238.179 C 292.913 238.054,299.467 238.242,301.393 238.471 " stroke="none" fill="#000000" fill-rule="evenodd"></path></g></svg>