<svg id="svg" version="1.1" width="515" height="515" xmlns="http://www.w3.org/2000/svg" xmlns:xlink="http://www.w3.org/1999/xlink" style="display: block;"><g id="svgg"><path id="path0" d="M107.516 22.668 C 97.159 25.845,89.649 33.521,86.585 44.060 C 85.133 49.056,85.006 69.397,85.241 260.038 L 85.500 470.500 88.150 475.500 C 91.525 481.866,97.134 487.475,103.500 490.850 L 108.500 493.500 257.500 493.500 L 406.500 493.500 411.500 490.850 C 417.866 487.475,423.475 481.866,426.850 475.500 L 429.500 470.500 429.762 309.845 L 430.024 149.190 365.262 85.095 L 300.500 21.001 206.500 21.070 C 125.133 21.130,111.830 21.345,107.516 22.668 M402.500 128.960 L 422.500 149.055 373.500 148.778 L 324.500 148.500 318.786 145.694 C 301.920 137.412,301.000 133.800,301.000 75.841 L 301.000 28.757 341.750 68.811 C 364.163 90.841,391.500 117.908,402.500 128.960 M342.000 284.000 L 342.000 310.000 257.500 310.000 L 173.000 310.000 173.000 284.000 L 173.000 258.000 257.500 258.000 L 342.000 258.000 342.000 284.000 M268.000 370.000 L 268.000 407.000 220.500 407.000 L 173.000 407.000 173.000 370.000 L 173.000 333.000 220.500 333.000 L 268.000 333.000 268.000 370.000 M342.000 370.000 L 342.000 407.000 316.000 407.000 L 290.000 407.000 290.000 370.000 L 290.000 333.000 316.000 333.000 L 342.000 333.000 342.000 370.000 " stroke="none" fill="#000000" fill-rule="evenodd"></path></g></svg>