<svg xmlns="http://www.w3.org/2000/svg" width="400" height="400" viewBox="0, 0, 400,400"><g><path d="M194.340 5.914 C 160.437 9.753,136.465 34.200,133.236 68.229 C 132.750 73.341,132.756 73.494,133.701 80.863 C 138.904 121.451,178.748 148.126,217.790 137.160 C 222.821 135.747,228.229 133.535,229.826 132.236 C 230.664 131.555,231.755 130.993,232.252 130.987 C 234.208 130.965,242.160 124.937,248.003 119.047 C 269.727 97.147,272.995 61.520,255.659 35.580 C 248.656 25.102,232.942 12.506,223.989 10.195 C 223.100 9.965,221.280 9.374,219.946 8.882 C 213.619 6.546,201.331 5.122,194.340 5.914 M123.450 163.627 C 86.315 168.086,60.691 197.820,62.159 234.753 C 63.016 256.344,67.057 263.793,88.941 284.129 L 100.524 294.891 147.261 248.157 L 193.997 201.423 192.282 199.018 C 187.400 192.174,180.070 184.756,172.694 179.196 C 162.424 171.453,157.042 168.833,143.396 164.938 C 141.599 164.425,130.073 162.724,129.421 162.875 C 129.250 162.915,126.563 163.253,123.450 163.627 M264.420 163.131 C 258.761 163.714,247.386 167.131,241.779 169.932 C 228.477 176.579,211.347 191.425,206.474 200.529 C 205.845 201.706,297.082 294.340,298.871 294.340 C 299.379 294.340,307.946 286.839,308.268 286.112 C 308.368 285.886,309.460 284.997,310.694 284.137 C 320.746 277.131,333.821 260.383,335.555 252.291 C 335.778 251.253,336.199 249.434,336.491 248.248 C 338.904 238.444,338.924 225.715,336.541 216.712 C 334.200 207.872,333.725 206.513,331.261 201.605 C 321.100 181.373,305.206 169.269,281.775 163.921 C 278.956 163.278,267.889 162.774,264.420 163.131 M153.507 254.924 L 107.284 301.174 134.639 328.623 C 158.985 353.052,190.506 383.997,197.367 390.205 L 199.855 392.456 245.755 346.530 L 291.655 300.604 245.693 254.639 L 199.730 208.673 153.507 254.924 " stroke="none" fill-rule="evenodd"></path></g></svg>