<svg version="1.1" width="515" height="515" xmlns="http://www.w3.org/2000/svg">
<g>
<path d="M103.536 16.759 C 94.541 19.113,85.980 27.789,83.069 37.500 L 80.970 44.500 81.235 260.000 L 81.500 475.500 84.125 481.092 C 87.461 488.199,92.813 493.550,99.914 496.880 L 105.500 499.500 257.500 499.500 L 409.500 499.500 415.086 496.880 C 422.187 493.550,427.539 488.199,430.875 481.092 L 433.500 475.500 433.762 311.327 L 434.023 147.153 367.941 81.077 L 301.858 15.000 205.679 15.099 C 121.951 15.186,108.728 15.401,103.536 16.759 M362.884 83.085 C 392.246 112.463,418.539 138.879,421.313 141.786 L 426.358 147.072 376.429 146.786 L 326.500 146.500 320.907 143.753 C 314.488 140.601,307.614 133.547,304.585 127.005 C 302.573 122.658,302.490 120.755,302.214 72.601 L 301.928 22.703 305.714 26.187 C 307.796 28.103,333.523 53.707,362.884 83.085 M188.021 254.511 C 196.713 259.006,198.702 272.338,191.783 279.725 C 178.628 293.768,156.198 274.673,167.702 259.224 C 171.983 253.475,181.672 251.228,188.021 254.511 M345.000 268.500 L 345.000 279.000 285.000 279.000 L 225.000 279.000 225.000 268.500 L 225.000 258.000 285.000 258.000 L 345.000 258.000 345.000 268.500 M190.111 311.828 C 203.824 324.569,190.619 344.799,173.640 337.064 C 162.681 332.072,161.245 318.675,170.860 311.142 C 178.471 305.180,183.135 305.346,190.111 311.828 M345.000 323.500 L 345.000 334.000 285.000 334.000 L 225.000 334.000 225.000 323.500 L 225.000 313.000 285.000 313.000 L 345.000 313.000 345.000 323.500 M187.030 364.250 C 201.690 371.656,197.352 394.000,181.254 394.000 C 162.357 394.000,157.903 369.787,175.637 363.465 C 180.898 361.589,181.900 361.659,187.030 364.250 M345.000 378.500 L 345.000 389.000 285.000 389.000 L 225.000 389.000 225.000 378.500 L 225.000 368.000 285.000 368.000 L 345.000 368.000 345.000 378.500 " stroke="none" fill-rule="evenodd"></path>
</g>
</svg>