<svg xmlns="http://www.w3.org/2000/svg" width="400" height="400" viewBox="0, 0, 400,400">
<g>
<path d="M86.232 18.115 C 8.744 35.425,-25.547 125.869,20.903 190.425 C 69.341 257.745,171.400 248.313,207.423 173.188 C 246.671 91.337,174.106 -1.515,86.232 18.115 M366.325 89.785 C 346.177 96.174,339.059 118.899,352.434 134.132 C 370.311 154.493,401.660 141.318,399.703 114.267 C 398.498 97.610,381.339 85.024,366.325 89.785 M272.330 128.744 C 226.348 147.301,223.946 209.433,268.397 230.455 C 322.059 255.834,371.407 187.202,330.932 143.483 C 316.207 127.579,290.955 121.228,272.330 128.744 M273.948 255.854 C 218.463 271.412,210.948 349.463,262.457 375.203 C 318.531 403.223,376.731 341.884,346.691 286.425 C 333.243 261.596,301.317 248.179,273.948 255.854 " stroke="none" fill-rule="evenodd"></path>
</g>
</svg>