<svg id="svg" xmlns="http://www.w3.org/2000/svg" xmlns:xlink="http://www.w3.org/1999/xlink" width="400" height="400" viewBox="0, 0, 400,400"><g id="svgg"><path id="path0" d="M181.539 17.437 C 82.820 26.964,8.654 116.325,17.329 215.288 C 30.969 370.871,219.148 439.688,329.418 329.418 C 401.709 257.128,401.709 142.872,329.418 70.582 C 289.567 30.730,237.540 12.033,181.539 17.437 M274.667 120.667 L 274.667 133.333 296.000 133.333 L 317.333 133.333 317.314 153.000 C 317.271 195.069,302.784 218.928,271.244 228.870 C 265.674 230.626,263.229 232.302,260.507 236.231 C 253.004 247.058,241.334 255.842,226.667 261.702 L 218.000 265.165 217.620 278.583 L 217.240 292.000 232.440 292.000 C 252.546 292.000,258.667 296.496,258.667 311.267 L 258.667 317.333 199.840 317.333 L 141.013 317.333 141.605 309.140 C 142.650 294.696,151.828 289.601,174.511 290.871 L 182.757 291.333 182.379 278.191 L 182.000 265.048 173.840 261.984 C 159.842 256.727,147.039 247.120,139.465 236.190 C 136.936 232.541,134.290 230.577,130.289 229.381 C 98.853 219.981,84.117 197.230,82.996 156.368 L 82.366 133.403 103.516 133.035 L 124.667 132.667 125.050 120.333 L 125.433 108.000 200.050 108.000 L 274.667 108.000 274.667 120.667 M193.719 157.667 L 188.331 171.333 173.974 172.302 C 166.078 172.835,159.370 173.519,159.066 173.823 C 158.763 174.126,163.654 178.751,169.936 184.100 C 179.339 192.106,181.200 194.312,180.468 196.579 C 178.786 201.791,173.467 223.245,173.779 223.557 C 173.951 223.729,179.747 220.299,186.658 215.935 C 193.570 211.571,199.574 208.000,200.000 208.000 C 200.426 208.000,206.430 211.571,213.342 215.935 C 220.253 220.299,226.034 223.744,226.188 223.589 C 226.475 223.302,221.109 201.593,219.491 196.496 C 218.746 194.150,220.512 192.067,230.049 184.035 C 236.348 178.731,241.250 174.139,240.942 173.831 C 240.634 173.523,233.922 172.835,226.026 172.302 L 211.669 171.333 206.281 157.667 C 203.318 150.150,200.492 144.000,200.000 144.000 C 199.508 144.000,196.682 150.150,193.719 157.667 M104.403 165.993 C 105.529 181.946,111.442 194.290,121.330 201.331 L 125.333 204.182 125.333 179.424 L 125.333 154.667 114.469 154.667 L 103.604 154.667 104.403 165.993 M274.667 179.380 C 274.667 207.350,274.503 207.075,284.542 195.963 C 291.858 187.864,294.840 179.921,295.663 166.333 L 296.370 154.667 285.518 154.667 L 274.667 154.667 274.667 179.380 " stroke="none" fill="#000000" fill-rule="evenodd"></path></g></svg>