<svg id="svg" xmlns="http://www.w3.org/2000/svg" xmlns:xlink="http://www.w3.org/1999/xlink" width="400" height="400" viewBox="0, 0, 400,400"><g id="svgg"><path id="path0" d="M33.197 4.468 C 19.180 14.285,19.178 14.317,19.178 200.000 C 19.178 382.025,19.330 384.424,31.504 394.521 C 38.974 400.716,361.026 400.716,368.496 394.521 C 380.670 384.424,380.822 382.025,380.822 200.000 C 380.822 14.317,380.820 14.285,366.803 4.468 C 357.078 -2.344,42.922 -2.344,33.197 4.468 M347.284 180.137 L 346.575 327.397 200.000 327.397 L 53.425 327.397 52.712 183.562 C 52.321 104.452,52.590 38.185,53.311 36.301 C 54.338 33.621,86.485 32.877,201.308 32.877 L 347.993 32.877 347.284 180.137 M195.701 50.000 C 127.891 130.225,241.000 249.899,325.342 187.166 L 334.247 180.543 334.247 110.819 L 334.247 41.096 268.737 41.096 L 203.227 41.096 195.701 50.000 M292.089 52.172 C 329.341 66.335,341.498 118.759,314.216 147.587 C 291.395 171.700,252.198 170.824,229.522 145.693 C 190.693 102.663,238.184 31.677,292.089 52.172 M155.594 89.726 C 142.319 108.296,142.560 107.769,138.535 127.010 C 120.158 214.842,226.412 277.801,295.430 219.977 L 304.558 212.329 272.142 212.329 C 206.016 212.329,165.753 172.173,165.753 106.222 C 165.753 89.992,165.561 76.712,165.325 76.712 C 165.090 76.712,160.711 82.568,155.594 89.726 M256.237 91.160 C 245.720 101.677,244.414 108.421,250.584 120.352 C 261.265 141.008,298.654 131.697,298.617 108.392 C 298.579 85.406,272.568 74.830,256.237 91.160 M118.195 127.673 C 58.491 217.809,166.275 322.566,253.943 259.608 C 268.234 249.344,268.182 249.261,249.315 252.274 C 181.624 263.085,121.969 206.690,126.784 136.438 C 128.508 111.291,128.829 111.618,118.195 127.673 " stroke="none" fill="#000000" fill-rule="evenodd"></path></g></svg>