<svg version="1.1" width="515" height="515" xmlns="http://www.w3.org/2000/svg">
<g>
<path d="M76.219 2.437 C 62.083 7.689,51.892 18.775,48.125 33.000 C 47.216 36.434,47.000 90.228,47.217 260.052 L 47.500 482.604 51.218 490.127 C 55.823 499.443,63.354 506.852,72.741 511.299 L 79.500 514.500 257.052 514.500 L 434.604 514.500 442.210 510.741 C 453.610 505.107,460.766 496.807,465.110 484.181 C 466.936 478.874,467.000 472.650,467.000 301.575 L 467.000 124.463 404.716 62.231 L 342.431 0.000 212.466 0.052 L 82.500 0.104 76.219 2.437 M438.254 123.748 C 426.839 123.884,400.512 124.109,379.750 124.248 L 341.999 124.500 342.000 65.503 L 342.000 6.506 400.504 65.003 L 459.009 123.500 438.254 123.748 M240.500 128.365 C 264.705 134.591,290.567 153.335,300.917 172.155 C 311.010 190.505,315.582 203.717,316.651 217.616 L 317.294 225.982 265.397 226.241 L 213.500 226.500 213.241 278.364 L 212.982 330.228 207.241 329.541 C 127.983 320.049,89.951 244.504,128.428 172.990 C 147.338 137.842,198.361 117.526,240.500 128.365 M398.755 320.250 L 399.010 412.000 307.505 412.000 L 216.000 412.000 216.000 372.224 L 216.000 332.447 220.250 332.369 C 231.073 332.169,244.829 329.793,248.392 327.509 C 249.551 326.765,253.060 325.422,256.189 324.525 C 259.318 323.628,263.500 321.793,265.483 320.447 C 267.466 319.101,269.449 318.000,269.889 318.000 C 270.330 318.000,271.505 317.100,272.500 316.000 C 273.495 314.900,274.929 314.000,275.686 314.000 C 276.443 314.000,277.322 313.325,277.638 312.500 C 277.955 311.675,278.789 311.000,279.492 311.000 C 280.195 311.000,281.507 309.875,282.408 308.500 C 283.309 307.125,284.577 306.000,285.225 306.000 C 286.831 306.000,293.000 299.917,293.000 298.334 C 293.000 297.633,294.350 296.062,296.000 294.842 C 297.650 293.622,299.000 292.082,299.000 291.419 C 299.000 290.756,299.585 289.989,300.301 289.715 C 301.016 289.440,303.888 284.555,306.682 278.858 C 314.563 262.791,315.758 259.847,316.461 254.773 C 316.821 252.174,317.566 249.768,318.117 249.428 C 318.668 249.087,319.025 247.839,318.910 246.654 C 318.796 245.470,318.979 243.825,319.316 243.000 C 319.654 242.175,319.856 240.150,319.765 238.500 C 319.675 236.850,319.691 233.807,319.800 231.738 L 320.000 227.977 359.250 228.238 L 398.500 228.500 398.755 320.250 M312.613 238.476 C 311.066 253.569,303.359 272.736,293.742 285.407 C 290.859 289.206,288.050 292.991,287.500 293.819 C 286.208 295.763,283.730 298.234,281.801 299.500 C 280.963 300.050,277.731 302.556,274.618 305.069 C 261.393 315.744,234.812 326.000,220.369 326.000 C 219.230 326.000,219.000 318.112,219.000 279.000 L 219.000 232.000 266.138 232.000 L 313.276 232.000 312.613 238.476 " stroke="none" fill-rule="evenodd"></path>
</g>
</svg>