<svg xmlns="http://www.w3.org/2000/svg" width="400" height="400" viewBox="0, 0, 400,400">
<g>
<path d="M163.944 33.931 C 111.037 40.774,53.513 69.782,16.942 108.060 C -4.770 130.787,-4.833 132.422,15.093 156.180 C 23.386 166.067,46.273 193.371,65.952 216.854 C 108.000 267.028,114.153 274.157,115.409 274.157 C 115.926 274.157,126.139 262.554,138.105 248.373 L 159.861 222.588 124.527 180.635 C 84.648 133.286,85.497 136.123,107.585 124.003 C 127.844 112.886,150.611 105.829,175.717 102.883 L 197.753 100.298 197.753 65.879 L 197.753 31.461 188.202 31.745 C 182.949 31.901,172.033 32.885,163.944 33.931 M202.247 66.028 L 202.247 101.124 209.818 101.124 C 224.260 101.124,256.160 107.904,272.779 114.506 C 300.136 125.373,332.729 146.822,328.425 151.125 C 326.987 152.564,323.393 151.169,318.064 147.105 C 313.255 143.437,309.095 141.715,307.933 142.913 C 274.247 177.614,205.142 266.402,208.514 270.650 C 210.629 273.315,220.357 285.131,230.133 296.909 L 247.906 318.323 254.989 310.285 C 261.939 302.398,350.952 195.869,357.029 188.165 C 359.807 184.644,358.452 182.643,343.912 168.778 C 333.309 158.668,328.615 152.749,330.350 151.677 C 332.781 150.175,343.924 159.418,358.805 175.281 L 364.076 180.899 369.117 174.962 C 406.125 131.370,405.879 132.292,386.175 111.228 C 343.853 65.986,285.522 38.405,219.663 32.495 L 202.247 30.933 202.247 66.028 M141.168 254.491 L 119.726 279.873 154.482 321.352 C 198.505 373.889,199.763 374.714,213.101 359.791 C 222.986 348.730,242.697 324.221,242.697 322.991 C 242.697 321.636,207.953 279.285,198.026 268.539 C 194.601 264.831,185.886 254.719,178.660 246.067 C 171.435 237.416,164.867 230.061,164.066 229.723 C 163.265 229.386,152.961 240.531,141.168 254.491 " stroke="none" fill-rule="evenodd"></path>
</g>
</svg>