<svg id="svg" xmlns="http://www.w3.org/2000/svg" xmlns:xlink="http://www.w3.org/1999/xlink" width="400" height="400" viewBox="0, 0, 400,400"><g id="svgg"><path id="path0" d="M133.333 71.399 L 133.333 142.850 168.047 108.143 L 202.761 73.437 201.450 71.294 C 190.126 52.771,166.931 25.640,154.363 16.215 C 152.492 14.812,148.696 11.801,145.926 9.524 C 143.157 7.246,139.190 4.160,137.112 2.665 L 133.333 -0.052 133.333 71.399 M122.171 3.566 C 101.655 18.679,80.823 39.192,69.442 55.487 C 63.951 63.349,60.184 68.860,58.640 71.294 L 57.281 73.437 91.580 107.729 L 125.880 142.022 125.880 71.839 C 125.880 33.238,125.600 1.677,125.259 1.702 C 124.917 1.728,123.528 2.566,122.171 3.566 M46.890 92.950 C 43.316 100.358,40.111 107.164,39.768 108.075 C 39.426 108.986,38.369 111.781,37.421 114.286 C 29.220 135.960,22.182 169.843,23.574 180.952 L 24.093 185.093 70.636 231.677 C 106.809 267.882,117.631 278.261,119.207 278.261 C 120.322 278.261,122.280 279.262,123.557 280.486 L 125.880 282.712 125.880 217.336 L 125.880 151.960 89.634 115.721 L 53.388 79.482 46.890 92.950 M169.562 115.738 L 133.333 151.974 133.333 217.385 L 133.333 282.795 185.038 231.030 L 236.743 179.265 235.213 167.272 C 233.783 156.070,233.023 152.064,229.711 138.302 C 228.330 132.561,224.046 119.304,221.148 111.801 C 220.180 109.296,219.155 106.501,218.869 105.590 C 218.317 103.834,206.292 79.503,205.976 79.503 C 205.874 79.503,189.487 95.809,169.562 115.738 M245.135 200.402 C 245.135 210.872,244.771 221.027,244.327 222.969 C 243.883 224.912,242.966 230.787,242.289 236.025 C 240.545 249.526,237.364 262.887,232.726 276.190 C 231.296 280.290,229.627 285.135,229.017 286.957 C 228.406 288.778,227.313 291.387,226.588 292.754 C 225.863 294.120,225.267 295.522,225.264 295.868 C 225.257 296.699,217.391 312.541,214.885 316.770 C 213.805 318.592,212.537 320.927,212.067 321.958 C 211.597 322.990,210.510 324.853,209.651 326.099 C 208.793 327.345,206.774 330.414,205.164 332.919 C 192.555 352.545,171.799 375.156,151.680 391.182 L 144.769 396.687 150.958 396.687 C 155.449 396.687,157.430 397.028,158.178 397.930 C 160.048 400.183,353.306 399.761,359.909 397.490 C 367.918 394.734,372.487 390.516,375.791 382.825 L 377.669 378.455 377.447 289.641 C 377.241 206.917,377.127 200.658,375.781 198.344 C 374.987 196.977,374.333 195.487,374.328 195.031 C 374.295 192.230,365.121 184.778,360.484 183.786 C 357.849 183.222,355.340 182.447,354.907 182.064 C 354.474 181.680,329.598 181.366,299.627 181.366 L 245.135 181.366 245.135 200.402 M185.298 239.961 L 133.333 291.930 133.333 343.067 C 133.333 371.192,133.554 394.203,133.824 394.203 C 134.354 394.203,138.602 391.037,149.301 382.666 C 192.027 349.239,227.649 287.458,234.330 235.197 C 234.767 231.781,235.514 226.377,235.990 223.188 C 236.875 217.258,238.216 187.992,237.602 187.992 C 237.415 187.992,213.878 211.378,185.298 239.961 M22.373 197.932 C 22.389 208.970,24.992 234.850,26.922 243.154 C 30.504 258.566,34.966 274.405,37.161 279.503 C 37.553 280.414,38.726 283.395,39.768 286.128 C 52.164 318.641,77.382 354.184,104.687 377.623 C 112.493 384.324,124.262 393.325,125.259 393.356 C 125.600 393.366,125.880 370.548,125.880 342.648 L 125.880 291.920 74.120 240.166 L 22.360 188.411 22.373 197.932 " stroke="none" fill="#000000" fill-rule="evenodd"></path></g></svg>