<svg xmlns="http://www.w3.org/2000/svg" width="400" height="405" viewBox="0, 0, 400,405">
<g>
<path d="M225.833 3.559 C 221.291 4.195,217.335 7.121,215.378 11.293 L 214.500 13.167 214.409 45.417 L 214.317 77.667 215.909 77.670 C 220.114 77.678,230.692 79.186,236.818 80.650 C 283.728 91.861,319.059 133.490,321.846 180.833 C 321.954 182.667,322.110 184.504,322.194 184.917 L 322.346 185.667 352.961 185.667 C 389.206 185.667,388.360 185.755,392.462 181.553 C 396.659 177.255,397.232 170.759,395.001 152.758 C 385.102 72.872,321.359 11.181,241.500 4.201 C 235.325 3.661,227.420 3.337,225.833 3.559 M52.268 18.673 C 33.783 21.578,11.980 53.547,6.222 86.188 C 6.049 87.168,7.868 89.035,51.670 132.836 L 97.298 178.464 99.232 176.651 C 100.296 175.655,110.467 165.826,121.833 154.809 C 133.200 143.792,143.089 134.266,143.809 133.639 C 152.317 126.238,154.600 114.268,149.427 104.182 C 148.058 101.513,72.570 25.369,68.558 22.610 C 63.908 19.412,57.468 17.856,52.268 18.673 M214.335 131.748 C 214.337 183.740,214.218 180.902,216.494 183.178 C 219.155 185.840,215.545 185.667,268.440 185.667 L 315.425 185.667 315.197 182.417 C 311.485 129.465,270.636 88.846,216.750 84.523 L 214.333 84.329 214.335 131.748 M4.550 97.378 C -0.646 134.420,14.161 192.141,39.757 234.617 L 40.430 235.735 61.403 214.784 C 72.938 203.261,84.607 191.499,87.334 188.646 L 92.292 183.458 48.523 139.690 L 4.754 95.922 4.550 97.378 M70.724 215.324 L 44.296 241.982 47.017 246.241 C 73.840 288.235,115.701 330.167,158.160 357.573 L 163.487 361.011 190.077 334.423 L 216.667 307.834 157.084 248.251 C 124.313 215.479,97.422 188.667,97.326 188.667 C 97.229 188.667,85.258 200.663,70.724 215.324 M288.667 250.171 C 283.288 251.380,280.023 254.361,238.417 296.060 L 226.668 307.836 272.318 353.485 L 317.968 399.134 322.487 398.224 C 339.282 394.842,353.648 387.908,367.186 376.648 C 371.465 373.089,381.738 363.429,383.433 361.371 C 389.080 354.514,388.734 344.903,382.596 338.152 C 374.354 329.088,304.937 255.206,303.586 254.061 C 299.475 250.576,293.639 249.054,288.667 250.171 M195.543 338.957 L 169.588 364.913 172.544 366.576 C 218.322 392.326,265.360 404.521,305.113 400.946 L 309.393 400.561 265.614 356.781 C 241.535 332.701,221.759 313.000,221.666 313.000 C 221.574 313.000,209.819 324.681,195.543 338.957 " stroke="none" fill-rule="evenodd"></path>
</g>
</svg>