<svg xmlns="http://www.w3.org/2000/svg" width="400" height="400" viewBox="0, 0, 400,400"><g><path d="M208.356 4.145 C 201.482 5.939,201.804 5.660,124.935 76.369 C 52.406 143.087,48.008 147.325,46.097 152.352 C 44.878 155.557,33.588 156.083,130.635 148.418 L 212.913 141.920 263.499 145.556 C 291.321 147.556,328.815 150.507,346.819 152.112 C 364.823 153.718,379.810 154.775,380.124 154.461 C 382.962 151.623,381.212 149.943,244.678 24.501 C 222.387 4.021,218.080 1.607,208.356 4.145 M128.169 154.993 C 84.272 158.527,47.426 161.437,46.289 161.460 C 40.271 161.583,43.037 165.883,81.352 215.983 L 112.606 256.848 131.185 255.679 C 141.404 255.035,163.771 253.646,180.888 252.591 L 212.011 250.672 258.353 253.488 C 283.841 255.036,306.675 256.417,309.096 256.555 L 313.496 256.808 343.287 217.840 C 381.063 168.427,383.670 164.577,381.094 162.001 C 379.880 160.788,221.426 148.161,211.268 148.468 C 209.460 148.522,172.066 151.459,128.169 154.993 M201.408 257.908 C 199.343 258.082,179.906 259.298,158.216 260.610 C 136.526 261.923,118.519 263.083,118.202 263.188 C 117.556 263.403,189.162 357.526,195.345 364.591 C 205.155 375.800,219.966 376.427,229.699 366.045 C 231.315 364.321,246.331 344.953,263.069 323.005 C 304.853 268.214,308.201 263.756,307.833 263.395 C 307.344 262.913,213.216 257.232,208.920 257.424 C 206.854 257.517,203.474 257.735,201.408 257.908 M32.350 312.925 C 25.260 315.799,18.959 321.536,21.810 322.521 C 22.467 322.749,27.230 323.986,32.394 325.272 C 42.727 327.843,42.375 327.577,50.350 338.858 L 55.160 345.662 60.025 338.973 C 66.507 330.061,66.456 330.649,61.320 323.865 C 53.582 313.645,41.671 309.147,32.350 312.925 M66.622 319.953 C 70.225 324.472,83.145 341.577,95.333 357.964 C 125.542 398.578,121.866 396.244,155.622 396.244 L 177.569 396.244 173.808 391.784 C 166.345 382.935,162.167 377.474,140.691 348.497 C 111.595 309.236,115.554 311.737,82.500 311.737 L 60.072 311.737 66.622 319.953 M175.671 367.636 L 169.652 375.657 171.855 378.673 C 178.588 387.892,180.079 389.639,182.831 391.540 C 195.221 400.095,207.223 396.502,218.871 380.751 C 219.319 380.144,217.616 379.924,214.057 380.128 C 202.635 380.782,193.733 375.614,183.990 362.672 L 181.690 359.616 175.671 367.636 " stroke="none" fill-rule="evenodd"></path></g></svg>