<svg xmlns="http://www.w3.org/2000/svg" width="400" height="400" viewBox="0, 0, 400,400"><g><path d="M187.500 17.212 C 177.204 17.909,165.690 19.676,156.645 21.947 C 146.736 24.436,135.212 28.364,135.665 29.098 C 135.894 29.467,134.921 30.190,133.504 30.705 C 132.088 31.220,126.908 33.476,121.994 35.720 C 117.080 37.964,112.704 39.579,112.269 39.310 C 111.831 39.039,111.715 39.206,112.011 39.684 C 112.304 40.158,111.854 40.916,111.011 41.367 C 109.018 42.434,108.366 42.406,109.059 41.286 C 109.407 40.722,109.273 40.596,108.702 40.949 C 108.199 41.260,107.969 41.808,108.191 42.167 C 108.412 42.526,107.037 43.732,105.134 44.848 C 101.279 47.107,100.422 47.339,101.251 45.898 C 101.578 45.331,101.515 45.195,101.102 45.573 C 100.711 45.931,100.391 46.605,100.391 47.070 C 100.391 47.536,99.902 48.079,99.305 48.278 C 98.563 48.526,98.417 48.300,98.845 47.562 C 99.213 46.926,99.178 46.751,98.758 47.135 C 98.367 47.493,98.047 48.167,98.047 48.633 C 98.047 49.098,97.558 49.642,96.962 49.841 C 96.219 50.088,96.074 49.862,96.501 49.125 C 96.870 48.488,96.834 48.314,96.414 48.698 C 96.023 49.056,95.698 49.583,95.691 49.870 C 95.669 50.849,94.440 52.344,93.658 52.344 C 93.228 52.344,93.129 51.904,93.439 51.367 C 93.765 50.800,93.703 50.663,93.289 51.042 C 92.898 51.400,92.578 52.074,92.578 52.539 C 92.578 53.005,92.090 53.548,91.493 53.747 C 90.750 53.995,90.605 53.768,91.032 53.031 C 91.401 52.395,91.365 52.220,90.946 52.604 C 90.554 52.962,90.229 53.490,90.222 53.776 C 90.216 54.063,89.931 54.736,89.590 55.273 C 88.780 56.550,87.228 56.550,87.994 55.273 C 88.383 54.627,88.128 54.665,87.240 55.385 C 86.503 55.983,86.081 56.654,86.302 56.875 C 86.824 57.397,85.187 59.375,84.233 59.375 C 83.831 59.375,83.758 58.936,84.073 58.398 C 84.387 57.861,83.878 58.094,82.942 58.914 C 82.006 59.735,81.419 60.586,81.638 60.804 C 82.154 61.321,79.674 64.062,78.690 64.062 C 78.274 64.063,78.399 63.447,78.967 62.695 C 79.535 61.943,78.363 62.881,76.362 64.778 C 74.361 66.675,72.872 68.467,73.053 68.760 C 73.234 69.053,72.340 70.291,71.066 71.511 C 69.792 72.731,68.750 73.415,68.750 73.030 C 68.750 72.646,67.183 73.869,65.268 75.748 C 63.353 77.627,61.952 79.433,62.154 79.760 C 62.357 80.088,61.726 81.189,60.753 82.208 C 59.579 83.439,59.378 83.523,60.156 82.460 C 61.318 80.874,61.312 80.873,59.589 82.331 C 58.632 83.140,58.051 84.129,58.298 84.528 C 58.544 84.927,57.218 86.711,55.350 88.491 C 53.482 90.272,52.480 91.455,53.125 91.119 C 53.770 90.784,53.594 91.078,52.734 91.773 C 51.875 92.467,51.172 93.357,51.172 93.750 C 51.172 94.143,50.469 95.033,49.609 95.727 C 48.750 96.422,48.574 96.759,49.219 96.475 C 49.863 96.191,49.512 96.684,48.438 97.571 C 47.363 98.458,46.815 99.192,47.220 99.201 C 47.624 99.211,47.272 99.772,46.438 100.449 C 45.604 101.125,45.449 101.450,46.094 101.172 C 46.738 100.893,46.583 101.219,45.749 101.895 C 44.915 102.572,44.563 103.136,44.968 103.150 C 45.372 103.164,45.021 103.691,44.187 104.322 C 43.353 104.953,42.927 105.469,43.240 105.469 C 43.554 105.469,43.106 106.225,42.245 107.150 C 41.384 108.074,40.863 109.129,41.089 109.493 C 41.314 109.858,41.148 110.156,40.720 110.156 C 39.504 110.156,31.012 128.299,27.444 138.521 C -14.504 258.677,73.398 382.991,200.214 382.861 C 332.842 382.725,420.809 246.851,367.175 124.972 C 336.752 55.838,263.747 12.053,187.500 17.212 M116.992 36.379 C 114.951 37.442,113.281 38.486,113.281 38.700 C 113.281 39.049,121.015 35.396,121.810 34.672 C 122.777 33.790,120.235 34.691,116.992 36.379 M78.125 64.307 C 78.125 64.441,76.982 65.584,75.586 66.846 L 73.047 69.141 75.341 66.602 C 77.480 64.235,78.125 63.703,78.125 64.307 M68.750 73.670 C 68.750 73.797,67.256 75.291,65.430 76.990 L 62.109 80.078 65.198 76.758 C 68.070 73.670,68.750 73.078,68.750 73.670 M307.416 119.038 C 322.427 125.910,329.225 144.226,322.103 158.610 C 318.071 166.755,180.622 303.740,174.089 306.125 C 148.027 315.640,124.894 290.915,136.328 265.765 C 138.858 260.202,276.075 122.450,281.641 119.887 C 290.406 115.850,299.779 115.541,307.416 119.038 M111.876 167.267 C 136.679 172.424,149.666 201.949,136.544 223.352 C 118.902 252.130,76.136 245.620,67.602 212.858 C 60.798 186.733,85.105 161.701,111.876 167.267 " stroke="none" fill-rule="evenodd"></path></g></svg>