<svg xmlns="http://www.w3.org/2000/svg" width="400" height="400" viewBox="0, 0, 400,400"><g><path d="M186.601 45.704 C 171.434 48.574,153.951 57.769,143.960 68.129 L 141.436 70.747 158.218 84.788 C 167.449 92.510,175.264 98.891,175.586 98.967 C 175.908 99.043,185.923 87.442,197.842 73.186 L 219.511 47.266 215.420 46.244 C 209.115 44.669,193.603 44.378,186.601 45.704 M208.896 68.555 C 199.995 79.189,192.268 88.418,191.724 89.063 C 190.855 90.094,191.832 90.234,199.860 90.234 C 219.043 90.234,232.014 101.943,233.496 120.597 L 233.984 126.741 241.078 118.253 C 244.980 113.585,252.843 104.212,258.551 97.423 L 268.929 85.081 265.447 79.845 C 256.826 66.885,234.114 49.219,226.073 49.219 C 225.527 49.219,217.797 57.920,208.896 68.555 M134.220 80.281 C 120.797 101.119,117.472 126.614,124.999 150.985 C 125.893 153.881,126.895 156.250,127.225 156.250 C 127.556 156.250,137.692 144.519,149.751 130.181 L 171.677 104.112 154.979 90.142 C 135.202 73.597,137.747 74.806,134.220 80.281 M249.088 118.217 C 236.769 132.905,213.478 160.680,197.330 179.940 C 181.181 199.200,167.969 215.203,167.969 215.502 C 167.969 215.801,170.281 219.203,173.108 223.062 C 183.207 236.851,188.031 246.213,193.334 262.318 C 198.512 278.044,202.028 277.750,207.399 261.142 C 213.274 242.973,220.907 230.549,244.600 200.591 C 271.510 166.566,278.906 150.181,278.906 124.592 C 278.906 113.017,275.155 95.101,272.107 92.121 C 271.765 91.786,261.406 103.529,249.088 118.217 M147.945 141.462 L 129.874 162.891 132.684 168.302 C 136.704 176.041,161.984 210.156,163.699 210.156 C 164.157 210.156,207.813 157.901,207.813 157.353 C 207.813 157.058,205.967 157.030,203.711 157.291 C 184.601 159.501,167.788 145.726,166.482 126.788 L 166.016 120.033 147.945 141.462 M162.891 305.159 C 160.742 305.314,152.656 305.816,144.922 306.276 C 95.819 309.194,46.961 317.324,3.320 329.839 L 0.000 330.792 0.000 365.396 L 0.000 400.000 200.000 400.000 L 400.000 400.000 400.000 365.396 L 400.000 330.792 396.680 329.839 C 354.115 317.633,310.782 310.300,257.031 306.208 C 246.317 305.393,171.250 304.556,162.891 305.159 M183.039 322.959 C 185.278 324.032,188.164 325.828,189.453 326.950 L 191.797 328.989 187.927 332.450 C 184.078 335.893,184.048 335.903,182.448 334.399 C 172.197 324.769,154.762 333.119,154.705 347.686 C 154.640 363.975,175.984 371.166,184.942 357.874 C 187.554 353.999,187.413 353.906,178.906 353.906 L 171.094 353.906 171.094 349.219 L 171.094 344.531 183.984 344.531 L 196.875 344.531 196.875 349.861 C 196.875 377.412,157.964 384.034,146.477 358.438 C 136.316 335.795,160.619 312.211,183.039 322.959 M236.697 321.550 C 256.244 327.355,262.424 352.185,247.929 366.679 C 236.281 378.327,215.075 376.253,206.320 362.609 C 192.531 341.121,212.357 314.322,236.697 321.550 M221.021 332.287 C 211.983 337.058,209.481 350.685,216.181 358.648 C 224.210 368.190,240.683 365.176,244.550 353.458 C 248.361 341.911,240.575 330.469,228.906 330.469 C 225.764 330.469,223.457 331.001,221.021 332.287 " stroke="none" fill-rule="evenodd"></path></g></svg>