<svg version="1.1" width="515" height="515" xmlns="http://www.w3.org/2000/svg">
<g>
<path d="M83.750 0.689 C 82.787 0.941,82.000 1.564,82.000 2.073 C 82.000 2.583,81.132 3.000,80.071 3.000 C 79.011 3.000,77.468 3.675,76.643 4.500 C 75.818 5.325,74.891 6.000,74.583 6.000 C 73.273 6.000,70.000 9.572,70.000 11.001 C 70.000 11.858,69.100 13.207,68.000 14.000 C 66.900 14.793,66.000 15.980,66.000 16.637 C 66.000 17.295,65.438 18.021,64.750 18.250 C 62.911 18.863,62.911 496.137,64.750 496.750 C 65.438 496.979,66.000 497.705,66.000 498.363 C 66.000 499.020,66.900 500.207,68.000 501.000 C 69.100 501.793,70.000 503.142,70.000 503.999 C 70.000 505.653,73.354 509.000,75.011 509.000 C 75.555 509.000,76.000 509.441,76.000 509.981 C 76.000 510.520,77.237 511.265,78.750 511.635 C 80.263 512.005,81.821 512.801,82.214 513.404 C 83.229 514.963,431.771 514.963,432.786 513.404 C 433.179 512.801,434.738 512.005,436.250 511.635 C 437.763 511.265,439.000 510.520,439.000 509.981 C 439.000 509.441,439.445 509.000,439.989 509.000 C 441.646 509.000,445.000 505.653,445.000 503.999 C 445.000 503.142,445.900 501.793,447.000 501.000 C 448.100 500.207,449.000 499.020,449.000 498.363 C 449.000 497.705,449.562 496.979,450.250 496.750 C 452.327 496.058,452.595 126.000,450.518 126.000 C 449.683 126.000,449.000 125.580,449.000 125.067 C 449.000 124.554,448.100 123.849,447.000 123.500 C 445.900 123.151,445.000 122.044,445.000 121.041 C 445.000 119.929,444.024 118.972,442.500 118.589 C 441.125 118.244,440.000 117.541,440.000 117.026 C 440.000 116.199,439.004 115.119,433.798 110.298 C 433.084 109.637,431.959 108.512,431.298 107.798 C 430.637 107.084,429.512 105.959,428.798 105.298 C 426.474 103.145,425.000 101.106,425.000 100.042 C 425.000 99.469,424.130 99.000,423.067 99.000 C 422.004 99.000,420.856 98.123,420.516 97.051 C 420.176 95.979,419.021 94.824,417.949 94.484 C 416.877 94.144,416.000 92.996,416.000 91.933 C 416.000 90.870,415.531 90.000,414.958 90.000 C 413.894 90.000,411.855 88.526,409.702 86.202 C 409.041 85.488,407.916 84.363,407.202 83.702 C 406.488 83.041,405.363 81.916,404.702 81.202 C 403.157 79.533,399.467 75.843,397.798 74.298 C 397.084 73.637,395.950 72.512,395.278 71.798 C 393.526 69.938,383.914 60.256,380.945 57.361 C 380.303 56.735,378.652 55.098,377.277 53.723 C 375.902 52.348,374.265 50.729,373.639 50.126 C 370.664 47.260,362.743 39.358,361.687 38.202 C 360.230 36.608,356.551 32.921,354.798 31.298 C 354.084 30.637,352.950 29.512,352.278 28.798 C 351.605 28.084,350.543 26.988,349.916 26.361 C 348.448 24.893,344.107 20.552,342.639 19.084 C 342.012 18.457,340.916 17.395,340.202 16.722 C 339.488 16.050,338.363 14.916,337.702 14.202 C 336.263 12.648,332.603 8.977,330.798 7.278 C 328.821 5.416,327.071 3.680,325.227 1.750 C 323.633 0.081,90.004 -0.945,83.750 0.689 M328.298 16.798 C 328.959 17.512,330.084 18.637,330.798 19.298 C 331.512 19.959,333.150 21.563,334.437 22.861 C 335.724 24.160,337.290 25.735,337.916 26.361 C 338.543 26.988,339.605 28.084,340.278 28.798 C 340.950 29.512,342.084 30.637,342.798 31.298 C 344.066 32.472,347.921 36.321,349.639 38.129 C 350.112 38.628,352.750 41.268,355.500 43.996 C 361.661 50.108,361.892 50.339,368.004 56.500 C 370.732 59.250,373.310 61.825,373.732 62.223 C 374.155 62.620,375.625 64.070,377.000 65.445 C 378.375 66.820,380.075 68.520,380.778 69.223 C 381.480 69.925,382.605 71.084,383.278 71.798 C 383.950 72.512,385.084 73.637,385.798 74.298 C 386.512 74.959,388.212 76.625,389.575 78.000 C 390.939 79.375,392.505 80.950,393.055 81.500 C 393.605 82.050,394.605 83.084,395.278 83.798 C 395.950 84.512,397.084 85.637,397.798 86.298 C 398.512 86.959,400.087 88.500,401.298 89.723 C 402.509 90.945,404.075 92.520,404.778 93.223 C 405.480 93.925,406.605 95.084,407.278 95.798 C 407.950 96.512,409.084 97.637,409.798 98.298 C 410.512 98.959,412.150 100.563,413.437 101.861 C 414.724 103.160,416.290 104.735,416.916 105.361 C 417.543 105.988,418.605 107.084,419.278 107.798 C 419.950 108.512,421.084 109.637,421.798 110.298 C 423.467 111.843,427.157 115.533,428.702 117.202 C 429.363 117.916,430.488 119.041,431.202 119.702 C 431.916 120.363,433.002 121.488,433.616 122.202 C 434.230 122.916,435.692 124.162,436.866 124.971 C 438.040 125.780,439.000 126.792,439.000 127.221 C 439.000 127.649,419.200 128.000,395.000 128.000 C 366.333 128.000,351.000 127.652,351.000 127.000 C 351.000 126.450,349.425 126.000,347.500 126.000 C 345.575 126.000,344.000 125.570,344.000 125.045 C 344.000 124.520,342.425 123.795,340.500 123.434 C 338.575 123.073,337.000 122.377,337.000 121.889 C 337.000 121.400,336.325 121.000,335.500 121.000 C 334.675 121.000,334.000 120.580,334.000 120.067 C 334.000 119.554,333.100 118.849,332.000 118.500 C 330.900 118.151,330.000 117.028,330.000 116.004 C 330.000 114.980,329.325 113.468,328.500 112.643 C 327.675 111.818,327.000 110.698,327.000 110.155 C 327.000 109.611,326.438 108.979,325.750 108.751 C 324.779 108.427,324.434 97.683,324.204 60.585 C 323.887 9.377,323.661 11.791,328.298 16.798 M270.000 168.000 C 270.000 168.550,272.025 169.000,274.500 169.000 C 276.975 169.000,279.000 169.450,279.000 170.000 C 279.000 170.550,280.125 171.000,281.500 171.000 C 282.875 171.000,284.000 171.422,284.000 171.939 C 284.000 172.455,286.025 173.181,288.500 173.552 C 290.975 173.923,293.000 174.626,293.000 175.114 C 293.000 175.601,293.675 176.000,294.500 176.000 C 295.325 176.000,296.000 176.420,296.000 176.933 C 296.000 177.446,297.012 178.185,298.250 178.576 C 299.488 178.966,301.228 180.122,302.117 181.143 C 303.007 182.164,304.186 183.000,304.738 183.000 C 306.258 183.000,322.000 198.910,322.000 200.446 C 322.000 201.183,322.675 202.045,323.500 202.362 C 324.325 202.678,325.000 203.851,325.000 204.969 C 325.000 206.086,325.450 207.000,326.000 207.000 C 326.550 207.000,327.000 207.675,327.000 208.500 C 327.000 209.325,327.400 210.000,327.889 210.000 C 328.377 210.000,329.073 211.575,329.434 213.500 C 329.795 215.425,330.520 217.000,331.045 217.000 C 331.570 217.000,332.000 218.125,332.000 219.500 C 332.000 220.875,332.450 222.000,333.000 222.000 C 333.550 222.000,334.000 223.088,334.000 224.417 C 334.000 225.746,334.563 227.021,335.250 227.250 C 336.193 227.564,336.500 232.422,336.500 247.000 C 336.500 261.578,336.193 266.436,335.250 266.750 C 334.563 266.979,334.000 268.704,334.000 270.583 C 334.000 272.462,333.550 274.000,333.000 274.000 C 332.450 274.000,332.000 275.087,332.000 276.417 C 332.000 277.746,331.521 278.993,330.935 279.188 C 330.350 279.383,329.616 281.446,329.304 283.772 C 328.992 286.097,328.346 288.000,327.868 288.000 C 327.391 288.000,327.000 288.675,327.000 289.500 C 327.000 290.325,326.570 291.000,326.045 291.000 C 325.520 291.000,324.795 292.575,324.434 294.500 C 324.073 296.425,323.377 298.000,322.889 298.000 C 322.400 298.000,322.000 298.576,322.000 299.279 C 322.000 299.983,321.117 301.195,320.037 301.973 C 318.957 302.752,317.772 304.763,317.403 306.443 C 317.034 308.123,315.956 310.174,315.009 310.999 C 314.061 311.825,312.966 313.512,312.576 314.750 C 312.185 315.988,311.446 317.000,310.933 317.000 C 310.420 317.000,310.000 317.675,310.000 318.500 C 310.000 319.325,309.550 320.000,309.000 320.000 C 308.450 320.000,308.000 320.852,308.000 321.893 C 308.000 322.934,307.325 324.045,306.500 324.362 C 305.675 324.678,305.000 325.851,305.000 326.969 C 305.000 328.086,304.550 329.000,304.000 329.000 C 303.450 329.000,303.000 329.675,303.000 330.500 C 303.000 331.325,302.580 332.000,302.067 332.000 C 301.554 332.000,300.815 333.012,300.424 334.250 C 300.034 335.488,298.953 337.175,298.024 338.000 C 297.094 338.825,295.497 341.413,294.474 343.750 C 293.452 346.087,292.252 348.000,291.808 348.000 C 291.363 348.000,291.000 348.675,291.000 349.500 C 291.000 350.325,290.570 351.000,290.045 351.000 C 289.520 351.000,288.795 352.575,288.434 354.500 C 288.073 356.425,287.377 358.000,286.889 358.000 C 286.400 358.000,286.000 358.675,286.000 359.500 C 286.000 360.325,285.550 361.000,285.000 361.000 C 284.450 361.000,284.000 361.900,284.000 363.000 C 284.000 364.100,283.570 365.000,283.045 365.000 C 282.520 365.000,281.795 366.575,281.434 368.500 C 281.073 370.425,280.377 372.000,279.889 372.000 C 279.400 372.000,279.000 373.125,279.000 374.500 C 279.000 375.875,278.555 377.000,278.012 377.000 C 277.468 377.000,276.736 378.800,276.384 381.000 C 276.032 383.200,275.352 385.000,274.872 385.000 C 274.392 385.000,274.000 386.350,274.000 388.000 C 274.000 389.650,273.550 391.000,273.000 391.000 C 272.450 391.000,272.000 392.088,272.000 393.417 C 272.000 394.746,271.554 395.983,271.010 396.167 C 270.465 396.350,269.726 399.313,269.367 402.750 C 269.009 406.188,268.329 409.000,267.858 409.000 C 267.386 409.000,267.000 411.025,267.000 413.500 C 267.000 415.975,266.615 418.000,266.144 418.000 C 265.673 418.000,264.985 421.634,264.614 426.075 C 264.056 432.763,263.524 434.567,261.516 436.575 C 258.444 439.647,253.000 439.972,253.000 437.083 C 253.000 436.029,252.568 435.017,252.040 434.833 C 251.512 434.650,250.773 430.788,250.396 426.250 C 250.020 421.712,249.327 418.000,248.856 418.000 C 248.385 418.000,248.000 415.975,248.000 413.500 C 248.000 411.025,247.614 409.000,247.142 409.000 C 246.671 409.000,245.991 406.188,245.633 402.750 C 245.274 399.313,244.535 396.350,243.990 396.167 C 243.446 395.983,243.000 394.746,243.000 393.417 C 243.000 392.088,242.550 391.000,242.000 391.000 C 241.450 391.000,241.000 389.650,241.000 388.000 C 241.000 386.350,240.608 385.000,240.128 385.000 C 239.648 385.000,238.968 383.200,238.616 381.000 C 238.264 378.800,237.532 377.000,236.988 377.000 C 236.445 377.000,236.000 375.875,236.000 374.500 C 236.000 373.125,235.600 372.000,235.111 372.000 C 234.623 372.000,233.927 370.425,233.566 368.500 C 233.205 366.575,232.480 365.000,231.955 365.000 C 231.430 365.000,231.000 364.100,231.000 363.000 C 231.000 361.900,230.550 361.000,230.000 361.000 C 229.450 361.000,229.000 360.325,229.000 359.500 C 229.000 358.675,228.600 358.000,228.111 358.000 C 227.623 358.000,226.927 356.425,226.566 354.500 C 226.205 352.575,225.480 351.000,224.955 351.000 C 224.430 351.000,224.000 350.325,224.000 349.500 C 224.000 348.675,223.637 348.000,223.192 348.000 C 222.748 348.000,221.548 346.087,220.526 343.750 C 219.503 341.413,217.906 338.825,216.976 338.000 C 216.047 337.175,214.966 335.488,214.576 334.250 C 214.185 333.012,213.446 332.000,212.933 332.000 C 212.420 332.000,212.000 331.325,212.000 330.500 C 212.000 329.675,211.550 329.000,211.000 329.000 C 210.450 329.000,210.000 328.086,210.000 326.969 C 210.000 325.851,209.325 324.678,208.500 324.362 C 207.675 324.045,207.000 323.099,207.000 322.260 C 207.000 321.421,206.164 320.007,205.143 319.117 C 204.122 318.228,202.932 316.375,202.500 315.000 C 202.068 313.625,200.939 311.825,199.991 310.999 C 199.044 310.174,197.966 308.123,197.597 306.443 C 197.228 304.763,196.043 302.752,194.963 301.973 C 193.883 301.195,193.000 299.983,193.000 299.279 C 193.000 298.576,192.600 298.000,192.111 298.000 C 191.623 298.000,190.927 296.425,190.566 294.500 C 190.205 292.575,189.480 291.000,188.955 291.000 C 188.430 291.000,188.000 290.325,188.000 289.500 C 188.000 288.675,187.609 288.000,187.132 288.000 C 186.654 288.000,186.008 286.097,185.696 283.772 C 185.384 281.446,184.650 279.383,184.065 279.188 C 183.479 278.993,183.000 277.746,183.000 276.417 C 183.000 275.087,182.550 274.000,182.000 274.000 C 181.450 274.000,181.000 272.462,181.000 270.583 C 181.000 268.704,180.438 266.979,179.750 266.750 C 178.807 266.436,178.500 261.578,178.500 247.000 C 178.500 232.422,178.807 227.564,179.750 227.250 C 180.438 227.021,181.000 225.521,181.000 223.917 C 181.000 222.313,181.450 221.000,182.000 221.000 C 182.550 221.000,183.000 220.100,183.000 219.000 C 183.000 217.900,183.430 217.000,183.955 217.000 C 184.480 217.000,185.205 215.425,185.566 213.500 C 185.927 211.575,186.623 210.000,187.111 210.000 C 187.600 210.000,188.000 209.325,188.000 208.500 C 188.000 207.675,188.450 207.000,189.000 207.000 C 189.550 207.000,190.000 206.086,190.000 204.969 C 190.000 203.851,190.675 202.678,191.500 202.362 C 192.325 202.045,193.000 201.183,193.000 200.446 C 193.000 198.910,208.742 183.000,210.262 183.000 C 210.814 183.000,211.993 182.164,212.883 181.143 C 213.772 180.122,215.512 178.966,216.750 178.576 C 217.988 178.185,219.000 177.446,219.000 176.933 C 219.000 176.420,219.675 176.000,220.500 176.000 C 221.325 176.000,222.000 175.578,222.000 175.061 C 222.000 174.545,224.025 173.819,226.500 173.448 C 228.975 173.077,231.000 172.374,231.000 171.886 C 231.000 171.399,232.125 171.000,233.500 171.000 C 234.875 171.000,236.000 170.550,236.000 170.000 C 236.000 169.450,238.025 169.000,240.500 169.000 C 242.975 169.000,245.000 168.550,245.000 168.000 C 245.000 167.387,249.833 167.000,257.500 167.000 C 265.167 167.000,270.000 167.387,270.000 168.000 M253.000 219.870 C 253.000 220.348,250.962 220.970,248.471 221.250 C 245.700 221.563,243.274 222.528,242.221 223.737 C 241.274 224.824,239.488 226.034,238.250 226.424 C 237.012 226.815,236.000 227.812,236.000 228.639 C 236.000 229.466,235.325 230.818,234.500 231.643 C 233.675 232.468,233.000 234.236,233.000 235.571 C 233.000 236.907,232.550 238.000,232.000 238.000 C 231.404 238.000,231.000 241.833,231.000 247.500 C 231.000 252.725,231.401 257.000,231.892 257.000 C 232.382 257.000,233.089 258.218,233.462 259.706 C 234.308 263.074,240.892 269.998,243.250 269.999 C 244.213 270.000,245.000 270.450,245.000 271.000 C 245.000 271.550,245.675 272.000,246.500 272.000 C 247.325 272.000,248.000 272.450,248.000 273.000 C 248.000 273.596,251.833 274.000,257.500 274.000 C 263.167 274.000,267.000 273.596,267.000 273.000 C 267.000 272.450,267.675 272.000,268.500 272.000 C 269.325 272.000,270.000 271.550,270.000 271.000 C 270.000 270.450,270.788 270.000,271.750 269.999 C 274.108 269.998,280.692 263.074,281.538 259.706 C 281.911 258.218,282.618 257.000,283.108 257.000 C 283.599 257.000,284.000 252.725,284.000 247.500 C 284.000 241.833,283.596 238.000,283.000 238.000 C 282.450 238.000,282.000 236.907,282.000 235.571 C 282.000 234.236,281.325 232.468,280.500 231.643 C 279.675 230.818,279.000 229.466,279.000 228.639 C 279.000 227.812,277.988 226.815,276.750 226.424 C 275.512 226.034,273.726 224.824,272.779 223.737 C 271.726 222.528,269.300 221.563,266.529 221.250 C 264.038 220.970,262.000 220.348,262.000 219.870 C 262.000 219.391,259.975 219.000,257.500 219.000 C 255.025 219.000,253.000 219.391,253.000 219.870 " stroke="none" fill-rule="evenodd"></path>
</g>
</svg>