<svg xmlns="http://www.w3.org/2000/svg" width="400" height="400" viewBox="0, 0, 400,400"><g><path d="M112.114 35.106 C 84.650 51.606,62.168 65.340,62.154 65.626 C 62.122 66.253,230.065 193.876,231.798 194.541 C 233.859 195.332,338.169 136.084,336.847 134.873 C 335.239 133.399,162.736 5.106,162.363 5.106 C 162.190 5.106,139.578 18.606,112.114 35.106 M290.378 171.410 L 239.905 199.847 252.080 206.701 C 258.776 210.472,281.489 223.271,302.553 235.144 L 340.851 256.731 341.075 228.366 C 341.198 212.765,341.198 187.169,341.075 171.487 L 340.851 142.974 290.378 171.410 M147.152 269.334 C 100.632 304.660,62.489 333.862,62.388 334.228 C 62.287 334.594,84.730 348.425,112.262 364.964 L 162.321 395.035 249.458 330.192 C 297.384 294.528,336.907 265.059,337.287 264.706 C 337.919 264.119,329.749 259.319,294.468 239.546 C 287.681 235.742,271.114 226.437,257.654 218.868 C 244.193 211.299,232.854 205.106,232.456 205.106 C 232.058 205.106,193.671 234.009,147.152 269.334 " stroke="none" fill-rule="evenodd"></path></g></svg>