<svg xmlns="http://www.w3.org/2000/svg" width="400" height="400" viewBox="0, 0, 400,400" version="1.1">
<g>
<path d="M153.167 23.382 C 148.272 24.008,139.533 26.939,139.734 27.888 C 140.039 29.335,199.859 132.206,200.126 131.744 C 200.288 131.466,213.905 107.897,230.387 79.369 L 260.355 27.500 258.012 26.409 C 255.048 25.029,250.365 23.783,246.500 23.345 C 242.747 22.920,156.515 22.955,153.167 23.382 M134.120 31.105 C 129.934 34.189,126.214 38.429,123.103 43.667 C 114.320 58.449,5.923 246.790,5.083 248.729 C 3.747 251.810,2.407 256.927,2.116 260.053 L 1.904 262.333 63.371 262.333 L 124.838 262.333 161.276 199.156 C 181.318 164.408,197.666 135.845,197.607 135.682 C 197.310 134.864,136.469 29.693,136.287 29.681 C 136.169 29.673,135.194 30.314,134.120 31.105 M233.000 82.556 C 216.225 111.630,202.500 135.612,202.500 135.850 C 202.500 136.088,218.850 164.642,238.833 199.303 L 275.167 262.323 336.552 262.328 L 397.937 262.333 397.780 260.917 C 397.236 255.983,395.771 250.815,393.804 246.897 C 391.430 242.166,277.246 43.981,274.985 40.667 C 273.459 38.429,270.684 35.258,268.667 33.446 C 266.829 31.794,264.029 29.662,263.724 29.681 C 263.601 29.689,249.775 53.483,233.000 82.556 M2.000 267.198 C 2.000 274.235,3.802 278.032,22.478 310.333 C 53.957 364.780,51.335 360.471,55.678 364.900 C 57.851 367.116,61.775 370.341,62.283 370.328 C 62.444 370.324,114.504 280.472,121.603 267.946 L 122.705 266.000 62.353 266.000 L 2.000 266.000 2.000 267.198 M96.416 319.242 L 65.665 372.482 66.749 373.060 C 68.388 373.933,73.482 375.564,76.667 376.236 C 81.000 377.150,318.535 377.167,323.000 376.254 C 326.177 375.604,329.959 374.424,332.591 373.261 L 334.348 372.485 304.309 320.492 C 287.788 291.897,273.947 267.939,273.552 267.253 L 272.833 266.005 200.000 266.004 L 127.167 266.003 96.416 319.242 M278.222 267.626 C 278.742 268.520,292.292 291.990,308.333 319.781 C 324.375 347.573,337.598 370.316,337.717 370.322 C 338.201 370.347,342.065 367.190,344.328 364.921 C 348.544 360.692,346.341 364.294,374.445 315.667 C 396.495 277.513,398.000 274.417,398.000 267.198 L 398.000 266.000 337.639 266.000 L 277.278 266.000 278.222 267.626 " stroke="none" fill-rule="evenodd"></path>
</g>
</svg>