<svg xmlns="http://www.w3.org/2000/svg" width="400" height="400" viewBox="0, 0, 400,400"><g><path d="M50.202 142.499 C 49.536 142.792,44.093 145.851,38.105 149.296 C 32.117 152.742,22.220 158.438,16.112 161.954 C 10.004 165.470,4.492 168.724,3.864 169.185 L 2.721 170.024 17.383 178.467 L 32.045 186.910 33.961 184.608 C 37.742 180.064,43.688 176.757,48.853 176.324 L 51.613 176.093 51.613 159.014 C 51.613 149.621,51.568 141.943,51.512 141.951 C 51.457 141.960,50.867 142.207,50.202 142.499 M52.823 159.274 L 52.823 176.210 54.536 176.220 C 59.533 176.248,64.671 178.726,69.270 183.325 L 72.644 186.700 78.157 183.527 C 101.010 170.375,100.782 170.521,100.306 169.279 C 100.181 168.955,96.659 166.716,92.479 164.303 C 88.299 161.891,80.978 157.666,76.210 154.914 C 71.442 152.163,66.996 149.594,66.331 149.206 C 57.472 144.041,54.328 142.339,53.642 142.339 C 52.831 142.339,52.823 142.520,52.823 159.274 M249.814 170.207 C 221.333 174.356,212.603 212.524,236.259 229.473 C 248.320 238.115,266.896 236.680,277.520 226.285 C 280.366 223.501,280.427 223.986,276.821 220.759 L 273.803 218.058 271.010 220.644 C 252.698 237.598,224.607 218.736,232.157 194.556 C 237.246 178.259,258.009 172.306,269.902 183.734 L 272.252 185.993 275.037 183.229 C 278.375 179.917,278.365 180.001,275.706 177.594 C 268.755 171.304,259.807 168.751,249.814 170.207 M139.475 172.480 C 139.242 173.090,137.137 178.669,134.797 184.879 C 132.458 191.089,129.484 198.982,128.189 202.419 C 126.893 205.857,123.751 214.193,121.207 220.945 C 118.663 227.697,116.672 233.367,116.782 233.546 C 117.136 234.119,124.881 233.933,125.475 233.337 C 125.768 233.044,127.278 229.236,128.831 224.876 L 131.653 216.948 144.628 216.942 L 157.603 216.935 158.383 219.052 C 158.811 220.217,160.122 223.891,161.296 227.218 C 162.469 230.544,163.629 233.399,163.872 233.562 C 164.535 234.006,172.092 233.932,172.372 233.479 C 172.615 233.086,171.724 230.625,162.366 205.847 C 159.602 198.528,155.668 188.095,153.624 182.661 C 151.579 177.228,149.740 172.465,149.536 172.077 C 149.216 171.467,148.535 171.371,144.532 171.371 L 139.899 171.371 139.475 172.480 M177.671 172.631 C 177.142 175.277,177.387 232.463,177.930 233.206 C 178.362 233.796,179.005 233.887,182.064 233.787 L 185.685 233.669 185.887 221.169 L 186.089 208.669 190.323 208.669 L 194.556 208.669 202.959 221.270 L 211.362 233.871 216.212 233.871 C 222.131 233.871,222.156 234.592,215.926 225.605 C 213.312 221.835,209.810 216.754,208.144 214.315 C 206.477 211.875,204.870 209.593,204.573 209.242 C 203.685 208.197,203.939 207.792,205.817 207.267 C 218.780 203.637,222.826 186.332,212.944 176.785 C 207.911 171.923,205.580 171.371,190.087 171.371 L 177.923 171.371 177.671 172.631 M1.842 172.083 C 1.449 172.476,1.585 226.951,1.979 227.195 C 2.304 227.396,6.185 225.227,25.806 213.877 C 28.615 212.252,30.817 210.721,30.780 210.420 C 30.744 210.122,30.296 208.790,29.784 207.460 C 28.421 203.915,28.421 195.679,29.785 192.137 C 30.297 190.806,30.796 189.446,30.894 189.113 C 31.018 188.690,29.761 187.763,26.725 186.035 C 24.335 184.675,17.810 180.928,12.225 177.708 C 6.640 174.488,1.968 171.957,1.842 172.083 M47.400 178.680 C 42.811 179.755,33.772 186.194,34.363 187.967 C 34.837 189.391,50.158 197.379,52.413 197.379 C 54.411 197.379,67.809 190.580,70.298 188.303 C 70.483 188.133,69.414 186.699,67.922 185.117 C 62.682 179.563,54.537 177.008,47.400 178.680 M203.725 180.188 C 210.621 183.536,212.090 192.640,206.543 197.652 C 203.701 200.220,202.005 200.605,193.548 200.605 L 186.089 200.605 185.981 190.330 C 185.921 184.678,185.969 179.803,186.087 179.496 C 186.492 178.441,201.326 179.023,203.725 180.188 M149.554 195.007 C 152.043 201.908,154.181 207.942,154.305 208.414 L 154.530 209.274 144.576 209.274 L 134.623 209.274 134.901 208.367 C 135.053 207.868,137.082 202.198,139.409 195.766 C 141.736 189.335,143.823 183.560,144.047 182.933 C 144.627 181.313,144.569 181.185,149.554 195.007 M298.664 190.122 C 277.187 196.026,277.468 228.853,299.045 234.473 C 313.648 238.276,326.374 228.054,326.401 212.500 C 326.429 196.475,313.500 186.044,298.664 190.122 M348.253 190.502 C 344.884 191.887,342.882 193.326,341.408 195.420 L 340.121 197.249 340.004 193.973 L 339.886 190.697 335.971 190.812 L 332.056 190.927 331.952 212.189 L 331.848 233.451 332.760 233.680 C 333.262 233.805,335.123 233.855,336.897 233.789 L 340.121 233.669 340.323 220.363 L 340.524 207.056 341.656 204.752 C 343.992 199.996,348.271 197.647,353.625 198.185 L 356.380 198.462 357.424 195.040 C 358.828 190.437,358.834 190.468,356.432 189.953 C 353.284 189.278,350.830 189.443,348.253 190.502 M372.571 190.434 C 353.309 197.002,352.976 226.614,372.082 233.892 C 380.723 237.183,391.975 233.910,397.412 226.525 C 399.744 223.357,399.761 223.404,395.665 221.483 L 392.137 219.828 391.533 220.700 C 384.062 231.497,368.536 228.444,366.764 215.831 L 366.524 214.122 383.161 214.017 L 399.798 213.911 399.755 210.282 C 399.579 195.496,386.255 185.768,372.571 190.434 M309.436 198.004 C 320.553 202.163,321.292 220.821,310.549 226.097 C 301.620 230.481,291.714 224.127,291.206 213.690 C 290.635 201.963,299.539 194.301,309.436 198.004 M384.064 198.015 C 387.591 199.335,390.026 202.095,390.884 205.746 L 391.144 206.855 379.242 206.855 C 366.056 206.855,366.814 207.048,368.176 204.032 C 370.820 198.180,377.620 195.604,384.064 198.015 M25.403 216.559 C 21.966 218.566,15.615 222.224,11.290 224.686 C 6.966 227.149,3.356 229.221,3.269 229.290 C 2.843 229.629,4.498 230.815,8.989 233.390 C 11.696 234.942,18.538 238.886,24.194 242.154 C 50.294 257.238,50.624 257.418,51.309 256.995 C 51.494 256.881,51.620 249.372,51.590 240.308 L 51.535 223.828 49.659 223.577 C 43.958 222.814,37.658 219.409,34.347 215.301 C 31.987 212.373,32.756 212.265,25.403 216.559 M69.389 216.179 C 65.987 219.823,61.757 222.254,57.460 223.035 C 56.129 223.276,54.657 223.542,54.189 223.626 C 52.941 223.848,52.823 225.473,52.823 242.395 C 52.823 255.481,52.896 257.258,53.441 257.258 C 54.057 257.258,56.164 256.213,59.758 254.125 C 67.338 249.721,73.085 246.410,80.242 242.325 C 100.970 230.493,101.001 230.473,100.165 229.149 C 99.867 228.677,94.184 225.249,85.282 220.171 C 84.617 219.791,81.683 218.091,78.762 216.393 C 75.842 214.695,73.210 213.232,72.915 213.141 C 72.620 213.050,71.033 214.417,69.389 216.179 " stroke="none" fill-rule="evenodd"></path></g></svg>