<svg id="svg" xmlns="http://www.w3.org/2000/svg" xmlns:xlink="http://www.w3.org/1999/xlink" width="400" height="400" viewBox="0, 0, 400,400"><g id="svgg"><path id="path0" d="M19.478 172.986 C 1.088 175.221,-6.593 196.395,6.450 208.899 C 17.710 219.694,36.590 215.475,40.269 201.341 C 40.902 198.906,41.208 193.027,40.740 192.270 C 40.657 192.135,38.489 192.096,30.973 192.096 L 21.313 192.096 21.313 194.919 L 21.313 197.742 28.158 197.742 L 35.004 197.742 35.003 198.130 C 35.001 198.739,34.481 200.756,34.079 201.711 C 31.016 208.987,20.412 211.511,13.055 206.716 C 5.805 201.990,4.051 191.708,9.292 184.663 C 14.395 177.801,24.337 176.615,30.908 182.084 L 31.715 182.756 33.724 180.744 L 35.732 178.732 34.838 177.921 C 31.002 174.439,24.557 172.368,19.478 172.986 M132.345 174.547 C 132.294 174.599,132.251 183.554,132.251 194.448 L 132.251 214.255 135.215 214.255 L 138.179 214.255 138.179 194.354 L 138.179 174.453 135.309 174.453 C 133.731 174.453,132.397 174.495,132.345 174.547 M183.696 175.466 C 183.657 175.569,183.642 184.323,183.662 194.919 L 183.698 214.185 186.309 214.185 L 188.920 214.185 188.957 206.326 L 188.993 198.468 194.532 198.414 C 199.665 198.364,200.150 198.338,201.162 198.057 C 213.811 194.550,213.487 178.609,200.706 175.643 C 199.282 175.313,183.816 175.152,183.696 175.466 M265.232 183.275 C 265.258 187.661,265.254 191.249,265.225 191.249 C 265.195 191.249,264.795 190.839,264.336 190.338 C 260.574 186.233,253.423 185.563,248.534 188.858 C 240.116 194.532,240.095 207.337,248.493 212.925 C 253.434 216.213,260.161 215.683,264.119 211.693 C 264.723 211.084,265.247 210.586,265.283 210.586 C 265.320 210.586,265.349 211.411,265.349 212.421 L 265.349 214.255 267.890 214.255 L 270.430 214.255 270.430 194.778 L 270.430 175.300 267.808 175.300 L 265.186 175.300 265.232 183.275 M361.468 183.557 L 361.468 187.579 358.998 187.579 L 356.528 187.579 356.528 189.834 L 356.528 192.089 358.963 192.128 L 361.397 192.167 361.471 200.282 C 361.539 207.660,361.569 208.469,361.805 209.174 C 362.871 212.366,365.072 214.052,368.807 214.538 C 370.789 214.795,374.349 214.408,374.539 213.915 C 374.670 213.573,372.940 209.808,372.662 209.829 C 372.521 209.839,371.973 209.914,371.443 209.996 C 369.698 210.264,368.237 209.836,367.519 208.845 C 366.704 207.720,366.690 207.560,366.690 199.480 L 366.690 192.096 370.152 192.096 L 373.613 192.096 373.575 189.873 L 373.536 187.650 370.113 187.612 L 366.690 187.574 366.690 183.554 L 366.690 179.534 364.079 179.534 L 361.468 179.534 361.468 183.557 M199.595 180.302 C 205.368 181.526,206.985 188.817,202.255 192.299 C 200.528 193.570,200.530 193.570,194.390 193.620 L 188.991 193.664 188.991 186.881 L 188.991 180.099 193.825 180.101 C 197.432 180.103,198.897 180.154,199.595 180.302 M223.077 186.880 C 217.302 187.639,212.768 191.541,211.264 197.045 C 210.786 198.795,210.791 203.021,211.273 204.799 C 214.860 218.032,234.488 218.684,238.910 205.716 C 242.457 195.314,234.144 185.424,223.077 186.880 M286.450 186.894 C 277.792 187.994,272.413 196.402,274.814 205.081 C 277.906 216.256,293.981 218.789,300.255 209.090 C 301.352 207.394,301.424 207.531,298.915 206.517 C 296.309 205.463,296.577 205.463,295.977 206.514 C 293.767 210.387,288.102 211.749,284.155 209.357 C 277.987 205.618,277.982 196.141,284.148 192.476 C 288.140 190.102,293.585 191.435,295.706 195.305 C 296.290 196.370,296.004 196.368,298.653 195.325 C 301.240 194.305,300.998 194.466,300.773 193.923 C 298.732 188.995,292.805 186.087,286.450 186.894 M313.409 186.884 C 309.605 187.404,306.107 189.658,304.653 192.529 L 304.317 193.191 306.605 194.127 C 309.265 195.215,309.119 195.190,309.377 194.606 C 310.385 192.328,314.130 190.857,317.421 191.446 C 320.615 192.017,322.715 194.099,323.097 197.075 C 323.291 198.579,323.289 198.581,322.244 198.112 C 316.981 195.750,308.800 196.947,305.337 200.586 C 303.152 202.882,302.593 207.061,304.078 209.992 C 307.147 216.048,317.844 216.886,322.209 211.411 C 323.164 210.213,323.218 210.267,323.218 212.421 L 323.218 214.255 325.695 214.255 L 328.171 214.255 328.124 204.975 C 328.071 194.611,328.100 194.925,327.006 192.755 C 324.853 188.484,319.288 186.081,313.409 186.884 M341.284 186.884 C 335.539 187.606,331.678 191.417,332.381 195.672 C 332.969 199.232,335.699 201.116,342.530 202.678 C 346.204 203.517,346.744 203.675,347.545 204.144 C 350.587 205.927,349.493 209.633,345.688 210.429 C 341.905 211.221,338.155 209.627,336.515 206.531 L 336.050 205.655 335.315 205.946 C 334.911 206.107,333.913 206.494,333.098 206.807 C 331.181 207.542,331.246 207.420,332.052 208.781 C 334.962 213.693,340.791 216.041,346.891 214.758 C 353.293 213.411,356.495 207.871,353.626 203.105 C 352.196 200.731,350.339 199.757,344.884 198.519 C 339.159 197.221,338.173 196.767,337.764 195.234 C 336.545 190.677,346.696 189.615,349.282 194.029 C 349.719 194.773,349.450 194.796,351.955 193.804 C 354.361 192.851,354.328 192.898,353.493 191.592 C 351.226 188.049,346.505 186.228,341.284 186.884 M386.591 186.884 C 377.985 187.965,374.452 195.894,380.718 200.064 C 382.703 201.384,383.564 201.701,387.832 202.678 C 393.036 203.869,394.035 204.382,394.508 206.103 C 395.767 210.683,386.934 212.376,383.113 208.287 C 382.658 207.801,382.077 207.009,381.822 206.528 L 381.357 205.655 380.693 205.915 C 380.327 206.059,379.330 206.446,378.476 206.776 C 376.490 207.543,376.566 207.420,377.291 208.708 C 380.407 214.245,387.863 216.609,394.337 214.113 C 402.003 211.156,401.772 202.002,393.966 199.456 C 393.481 199.298,391.521 198.814,389.612 198.381 C 384.228 197.159,383.304 196.685,382.981 194.977 C 382.152 190.592,392.099 189.779,394.589 194.029 C 395.025 194.772,394.767 194.791,397.192 193.841 C 399.686 192.865,399.556 192.996,399.022 191.994 C 397.038 188.273,392.004 186.203,386.591 186.884 M113.550 187.868 C 103.928 189.363,99.112 200.548,104.519 208.843 C 108.498 214.947,117.080 216.739,121.675 212.424 C 122.091 212.034,122.449 211.715,122.472 211.715 C 122.616 211.715,122.476 215.258,122.298 216.101 C 120.905 222.725,112.057 223.718,108.883 217.608 C 108.455 216.784,108.778 216.748,105.893 217.945 C 103.120 219.096,103.207 218.983,104.022 220.376 C 109.192 229.224,122.270 229.305,126.658 220.517 C 128.138 217.552,128.157 217.316,128.158 201.800 L 128.158 188.567 125.335 188.567 L 122.512 188.567 122.512 189.700 L 122.512 190.833 121.572 190.035 C 119.487 188.266,116.382 187.427,113.550 187.868 M53.990 188.363 C 44.403 190.174,39.786 200.954,45.063 209.204 C 51.029 218.531,66.027 216.551,69.341 205.999 C 72.474 196.019,64.141 186.445,53.990 188.363 M84.095 188.287 C 71.213 190.330,68.188 207.699,79.680 213.645 C 88.993 218.463,99.563 212.109,99.563 201.694 C 99.563 193.152,92.426 186.965,84.095 188.287 M151.550 188.367 C 139.197 190.601,137.291 208.579,148.834 213.988 C 154.532 216.659,162.040 214.709,165.532 209.652 L 165.835 209.213 163.578 207.710 L 161.322 206.206 160.160 207.380 C 156.474 211.104,150.263 210.518,148.230 206.254 C 147.954 205.676,146.758 206.252,156.951 202.049 C 161.803 200.048,165.831 198.358,165.903 198.293 C 166.065 198.144,165.442 196.492,164.684 195.060 C 161.947 189.891,157.017 187.379,151.550 188.367 M228.118 191.762 C 236.355 194.356,236.516 207.290,228.345 210.005 C 221.910 212.144,216.180 207.867,216.171 200.917 C 216.161 194.114,221.818 189.779,228.118 191.762 M259.357 191.798 C 267.736 194.645,267.264 208.019,258.705 210.251 C 253.894 211.505,248.922 208.480,247.766 203.595 C 245.942 195.885,252.311 189.403,259.357 191.798 M117.384 193.281 C 124.564 195.193,124.831 206.987,117.744 209.176 C 112.090 210.923,106.851 205.184,108.465 199.012 C 109.542 194.892,113.611 192.277,117.384 193.281 M58.871 193.855 C 64.319 195.699,65.923 203.444,61.719 207.600 C 56.708 212.555,48.840 208.904,48.840 201.623 C 48.840 195.924,53.750 192.121,58.871 193.855 M88.362 193.794 C 93.836 195.384,95.620 203.126,91.514 207.478 C 86.706 212.575,78.462 208.925,78.478 201.706 C 78.491 196.013,83.152 192.281,88.362 193.794 M155.773 193.563 C 157.223 193.949,159.068 195.369,159.068 196.099 C 159.068 196.261,147.472 201.135,147.096 201.131 C 146.870 201.129,146.974 199.937,147.306 198.730 C 148.314 195.063,152.291 192.636,155.773 193.563 M319.835 201.342 C 322.391 201.879,323.267 202.549,323.071 203.818 C 322.296 208.829,315.669 212.080,311.042 209.720 C 307.225 207.772,308.370 202.818,312.953 201.457 C 314.642 200.956,317.752 200.904,319.835 201.342 " stroke="none" fill="#000000" fill-rule="evenodd"></path></g></svg>