<svg id="svg" xmlns="http://www.w3.org/2000/svg" xmlns:xlink="http://www.w3.org/1999/xlink" width="400" height="400" viewBox="0, 0, 400,400"><g id="svgg"><path id="path0" d="M0.123 160.279 C 0.080 160.353,1.120 164.260,2.435 168.961 C 3.750 173.662,5.476 179.856,6.270 182.726 C 7.064 185.596,8.412 190.454,9.265 193.522 C 13.994 210.541,15.346 215.412,16.118 218.219 L 16.973 221.323 20.967 221.323 L 24.962 221.323 27.308 214.170 C 28.598 210.236,31.165 202.362,33.014 196.671 C 37.995 181.334,38.062 181.135,38.281 181.062 C 38.404 181.021,39.230 183.296,40.399 186.899 C 42.377 192.989,46.022 204.174,49.565 215.025 L 51.593 221.233 55.619 221.233 L 59.646 221.233 60.234 218.983 C 60.558 217.746,61.828 212.969,63.058 208.367 C 64.287 203.765,66.725 194.615,68.477 188.034 C 70.228 181.453,72.609 172.546,73.767 168.241 C 74.926 163.936,75.842 160.353,75.803 160.279 C 75.702 160.086,67.878 160.111,67.758 160.304 C 67.704 160.393,66.040 166.850,64.062 174.654 C 56.511 204.441,55.537 208.187,55.343 208.187 C 55.234 208.187,52.188 199.260,48.575 188.349 L 42.006 168.511 38.312 168.462 L 34.619 168.414 28.048 188.256 C 23.840 200.962,21.393 208.097,21.244 208.097 C 21.091 208.097,20.416 205.871,19.255 201.529 C 18.288 197.917,16.359 190.711,14.966 185.515 C 13.574 180.319,11.493 172.549,10.342 168.247 C 9.191 163.945,8.211 160.362,8.163 160.285 C 8.052 160.104,0.227 160.099,0.123 160.279 M153.211 160.365 C 153.163 160.491,153.145 174.238,153.170 190.913 L 153.216 221.233 157.130 221.281 L 161.044 221.330 161.044 214.621 L 161.044 207.913 164.149 204.811 C 165.858 203.105,167.317 201.709,167.392 201.709 C 167.510 201.709,173.494 210.657,178.794 218.758 L 180.472 221.323 185.142 221.323 C 187.711 221.323,189.852 221.258,189.901 221.180 C 189.949 221.101,186.143 215.418,181.443 208.551 L 172.897 196.065 181.140 187.821 L 189.382 179.577 184.224 179.577 L 179.067 179.577 170.100 188.669 L 161.134 197.760 161.044 178.997 L 160.954 160.234 157.126 160.185 C 154.161 160.148,153.278 160.188,153.211 160.365 M92.937 178.421 C 80.444 180.339,72.725 192.895,75.826 206.255 C 80.657 227.066,110.605 228.400,117.013 208.089 C 122.316 191.281,109.782 175.836,92.937 178.421 M203.599 178.325 C 188.493 180.312,185.289 196.099,198.920 201.373 C 199.712 201.680,202.547 202.486,205.221 203.165 C 211.845 204.847,213.620 205.630,214.945 207.454 C 217.774 211.347,213.853 215.585,207.377 215.635 C 202.787 215.671,199.092 213.375,196.836 209.087 C 196.498 208.444,196.202 207.884,196.178 207.844 C 196.096 207.705,189.431 210.617,189.348 210.828 C 189.132 211.381,191.185 214.809,192.801 216.595 C 202.636 227.463,223.842 222.758,223.842 209.708 C 223.842 202.546,220.154 199.411,208.079 196.308 C 200.283 194.305,198.471 193.185,198.471 190.373 C 198.471 183.807,211.546 183.363,215.687 189.789 L 216.295 190.733 216.965 190.449 C 217.333 190.293,218.808 189.677,220.243 189.081 C 223.434 187.755,223.280 187.903,222.687 186.730 C 219.634 180.696,211.800 177.247,203.599 178.325 M248.223 178.324 C 244.195 178.943,240.052 181.223,237.897 184.006 C 236.572 185.718,236.617 185.772,236.617 182.456 L 236.617 179.577 232.839 179.577 L 229.060 179.577 229.060 209.627 L 229.060 239.676 232.973 239.676 L 236.887 239.676 236.854 230.364 C 236.835 225.243,236.766 219.818,236.700 218.309 C 236.566 215.269,236.636 215.095,237.488 216.329 C 242.472 223.552,255.016 224.730,262.521 218.681 C 279.489 205.006,268.909 175.144,248.223 178.324 M288.529 178.409 C 283.792 179.172,279.736 181.363,276.904 184.688 C 276.222 185.489,275.664 186.185,275.664 186.235 C 275.665 186.376,282.207 190.463,282.433 190.463 C 282.544 190.463,283.007 190.007,283.461 189.449 C 290.003 181.417,303.734 185.309,303.734 195.194 C 303.734 196.023,303.673 196.672,303.599 196.636 C 293.247 191.620,279.547 194.391,275.679 202.282 C 271.571 210.664,276.703 220.248,286.367 222.242 C 293.074 223.627,298.955 221.493,302.909 216.239 C 303.683 215.211,303.734 215.347,303.734 218.444 L 303.734 221.323 307.512 221.323 L 311.291 221.323 311.291 207.868 C 311.291 191.678,311.212 190.779,309.484 187.193 C 306.268 180.521,297.701 176.930,288.529 178.409 M334.233 178.391 C 311.566 182.186,309.952 215.989,332.150 222.006 C 334.802 222.725,340.936 222.710,343.583 221.979 C 349.013 220.479,353.294 217.025,355.733 212.176 C 356.147 211.352,356.459 210.658,356.426 210.633 C 356.376 210.597,349.953 207.823,349.629 207.698 C 349.573 207.676,349.163 208.324,348.718 209.138 C 344.302 217.204,332.640 217.728,327.234 210.104 C 320.269 200.283,325.931 185.855,336.932 185.387 C 342.037 185.170,345.862 187.240,348.250 191.513 C 348.735 192.381,349.221 193.055,349.330 193.011 C 351.912 191.981,355.868 190.299,355.997 190.175 C 356.475 189.720,353.820 185.618,351.748 183.612 C 347.236 179.241,340.733 177.303,334.233 178.391 M376.338 178.324 C 354.330 181.754,352.765 216.264,374.359 221.969 C 380.131 223.494,387.389 222.359,392.173 219.185 C 394.942 217.348,399.173 212.641,399.089 211.492 C 399.080 211.369,392.799 208.197,392.298 208.064 C 392.229 208.045,391.808 208.603,391.363 209.304 C 386.737 216.584,377.111 217.682,371.022 211.626 C 368.446 209.063,367.589 207.158,366.989 202.655 L 366.888 201.891 383.305 201.845 L 399.721 201.799 399.893 201.312 C 400.280 200.212,399.312 193.683,398.357 190.949 C 395.216 181.957,386.201 176.788,376.338 178.324 M141.316 178.586 C 137.573 179.400,133.581 182.276,132.075 185.243 C 131.253 186.863,131.174 186.658,131.174 182.895 L 131.174 179.577 127.485 179.577 L 123.797 179.577 123.797 200.450 L 123.797 221.323 127.665 221.323 L 131.534 221.323 131.534 209.259 C 131.534 194.546,131.593 194.128,134.129 190.781 C 136.738 187.338,139.952 185.993,144.489 186.445 C 145.529 186.548,146.570 186.645,146.804 186.659 C 147.165 186.681,149.458 180.545,149.522 179.385 C 149.530 179.240,147.828 178.734,146.571 178.509 C 145.147 178.254,142.678 178.290,141.316 178.586 M99.916 185.685 C 113.065 189.048,113.993 210.307,101.185 214.758 C 93.572 217.404,85.591 213.002,83.581 205.051 C 80.613 193.307,89.326 182.977,99.916 185.685 M253.062 185.690 C 264.843 188.703,266.941 207.455,256.207 213.815 C 250.887 216.967,243.788 215.626,239.858 210.727 C 235.463 205.247,235.521 195.297,239.979 189.967 C 243.189 186.130,248.277 184.466,253.062 185.690 M382.689 185.614 C 387.375 186.555,391.543 191.053,391.543 195.170 C 391.543 195.370,389.459 195.412,379.577 195.412 C 370.142 195.412,367.611 195.364,367.611 195.187 C 367.611 194.651,368.578 192.130,369.144 191.190 C 371.961 186.512,376.945 184.460,382.689 185.614 M298.426 200.994 C 301.565 201.690,303.734 202.967,303.734 204.122 C 303.734 208.710,299.046 214.127,294.017 215.349 C 287.281 216.987,280.991 212.314,282.580 206.851 C 284.027 201.873,290.906 199.330,298.426 200.994 " stroke="none" fill="#000000" fill-rule="evenodd"></path></g></svg>