<svg id="svg" version="1.1" width="400" height="400" xmlns="http://www.w3.org/2000/svg" xmlns:xlink="http://www.w3.org/1999/xlink" style="display: block;"><g id="svgg"><path id="path0" d="M158.117 14.192 C 155.706 14.730,152.809 16.032,151.678 17.085 C 150.548 18.138,149.278 19.000,148.857 19.000 C 147.234 19.000,143.133 24.067,142.016 27.452 C 141.372 29.403,140.501 31.000,140.082 31.000 C 139.662 31.000,138.764 33.475,138.087 36.500 C 137.410 39.525,136.500 42.000,136.065 42.000 C 135.630 42.000,134.700 44.700,134.000 48.000 C 133.300 51.300,132.383 54.000,131.963 54.000 C 131.543 54.000,130.635 56.351,129.946 59.225 C 129.257 62.099,128.128 65.015,127.437 65.705 C 126.747 66.396,125.877 68.769,125.503 70.980 C 125.130 73.191,124.486 75.000,124.072 75.000 C 123.658 75.000,122.726 77.475,122.000 80.500 C 121.274 83.525,120.374 86.000,119.999 86.000 C 119.625 86.000,118.764 88.475,118.087 91.500 C 117.410 94.525,116.532 97.000,116.135 97.000 C 115.737 97.000,114.814 99.700,114.081 103.000 C 113.349 106.300,112.396 109.000,111.963 109.000 C 111.530 109.000,110.870 110.809,110.497 113.020 C 110.123 115.231,109.253 117.604,108.563 118.295 C 107.872 118.985,106.743 121.901,106.054 124.775 C 105.365 127.649,104.457 130.000,104.037 130.000 C 103.617 130.000,102.700 132.700,102.000 136.000 C 101.300 139.300,100.383 142.000,99.963 142.000 C 99.543 142.000,98.635 144.351,97.946 147.225 C 97.257 150.099,96.128 153.015,95.437 153.705 C 94.747 154.396,93.877 156.769,93.503 158.980 C 93.130 161.191,92.486 163.000,92.072 163.000 C 91.658 163.000,90.726 165.475,90.000 168.500 C 89.274 171.525,88.395 174.000,88.047 174.000 C 87.698 174.000,86.814 176.700,86.081 180.000 C 85.349 183.300,84.428 186.000,84.035 186.000 C 83.641 186.000,82.726 188.475,82.000 191.500 C 81.274 194.525,80.342 197.000,79.928 197.000 C 79.514 197.000,78.870 198.809,78.497 201.020 C 78.123 203.231,77.253 205.604,76.563 206.295 C 75.872 206.985,74.743 209.901,74.054 212.775 C 73.365 215.649,72.457 218.000,72.037 218.000 C 71.617 218.000,70.700 220.700,70.000 224.000 C 69.300 227.300,68.383 230.000,67.963 230.000 C 67.543 230.000,66.635 232.351,65.946 235.225 C 65.257 238.099,64.113 241.029,63.406 241.737 C 62.698 242.445,61.801 245.141,61.413 247.730 C 61.025 250.318,60.099 253.044,59.354 253.789 C 58.610 254.533,57.718 256.910,57.373 259.071 C 57.027 261.232,56.424 263.000,56.032 263.000 C 55.640 263.000,54.726 265.475,54.000 268.500 C 53.274 271.525,52.374 274.000,52.000 274.000 C 51.626 274.000,50.726 276.475,50.000 279.500 C 49.274 282.525,48.342 285.000,47.928 285.000 C 47.514 285.000,46.870 286.809,46.497 289.020 C 46.123 291.231,45.253 293.604,44.563 294.295 C 43.872 294.985,42.743 297.901,42.054 300.775 C 41.365 303.649,40.457 306.000,40.037 306.000 C 39.617 306.000,38.700 308.700,38.000 312.000 C 37.300 315.300,36.383 318.000,35.963 318.000 C 35.543 318.000,34.639 320.363,33.955 323.250 C 33.270 326.137,32.435 328.725,32.099 329.000 C 31.190 329.745,29.000 336.382,29.000 338.392 C 29.000 339.355,28.366 340.777,27.591 341.552 C 26.816 342.326,25.877 344.769,25.503 346.980 C 25.130 349.191,24.486 351.000,24.072 351.000 C 23.658 351.000,22.726 353.475,22.000 356.500 C 21.274 359.525,20.388 362.000,20.029 362.000 C 19.671 362.000,18.779 364.363,18.046 367.250 C 17.314 370.137,16.263 372.793,15.710 373.150 C 15.157 373.508,14.659 376.658,14.603 380.150 L 14.500 386.500 159.393 386.753 C 310.184 387.017,307.000 387.101,307.000 382.878 C 307.000 381.845,307.378 381.000,307.840 381.000 C 308.302 381.000,309.274 378.525,310.000 375.500 C 310.726 372.475,311.626 370.000,312.000 370.000 C 312.374 370.000,313.274 367.525,314.000 364.500 C 314.726 361.475,315.636 359.000,316.023 359.000 C 316.410 359.000,317.300 356.300,318.000 353.000 C 318.700 349.700,319.622 347.000,320.049 347.000 C 320.475 347.000,321.130 345.191,321.503 342.980 C 321.877 340.769,322.747 338.396,323.437 337.705 C 324.128 337.015,325.257 334.099,325.946 331.225 C 326.635 328.351,327.543 326.000,327.963 326.000 C 328.383 326.000,329.300 323.300,330.000 320.000 C 330.700 316.700,331.630 314.000,332.065 314.000 C 332.500 314.000,333.410 311.525,334.087 308.500 C 334.764 305.475,335.615 303.000,335.978 303.000 C 336.341 303.000,337.251 300.750,338.000 298.000 C 338.749 295.250,339.669 293.000,340.044 293.000 C 340.420 293.000,341.300 290.300,342.000 287.000 C 342.700 283.700,343.590 281.000,343.977 281.000 C 344.364 281.000,345.274 278.525,346.000 275.500 C 346.726 272.475,347.626 270.000,348.000 270.000 C 348.374 270.000,349.274 267.525,350.000 264.500 C 350.726 261.475,351.658 259.000,352.072 259.000 C 352.486 259.000,353.130 257.191,353.503 254.980 C 353.877 252.769,354.747 250.396,355.437 249.705 C 356.128 249.015,357.277 245.987,357.991 242.975 C 358.706 239.964,359.788 237.179,360.395 236.786 C 362.340 235.530,361.840 214.697,359.816 212.673 C 358.889 211.746,357.846 210.091,357.498 208.994 C 357.150 207.897,356.518 207.000,356.093 207.000 C 355.668 207.000,354.808 205.875,354.182 204.500 C 353.555 203.125,352.381 202.000,351.571 202.000 C 350.762 202.000,349.740 201.373,349.300 200.607 C 347.448 197.381,340.811 197.011,284.683 197.006 C 231.993 197.000,228.894 196.902,229.385 195.250 C 229.671 194.287,230.227 192.154,230.621 190.510 C 231.015 188.865,231.895 186.962,232.577 186.280 C 233.259 185.598,234.123 183.231,234.497 181.020 C 234.870 178.809,235.514 177.000,235.928 177.000 C 236.342 177.000,237.274 174.525,238.000 171.500 C 238.726 168.475,239.636 166.000,240.023 166.000 C 240.410 166.000,241.300 163.300,242.000 160.000 C 242.700 156.700,243.590 154.000,243.977 154.000 C 244.364 154.000,245.274 151.525,246.000 148.500 C 246.726 145.475,247.616 143.000,247.979 143.000 C 248.342 143.000,249.251 140.750,250.000 138.000 C 250.749 135.250,251.659 133.000,252.022 133.000 C 252.385 133.000,253.236 130.525,253.913 127.500 C 254.590 124.475,255.490 122.000,255.913 122.000 C 256.336 122.000,257.236 119.525,257.913 116.500 C 258.590 113.475,259.490 111.000,259.913 111.000 C 260.336 111.000,261.254 108.442,261.954 105.316 C 262.654 102.189,263.809 99.048,264.522 98.335 C 265.234 97.623,266.123 95.231,266.497 93.020 C 266.870 90.809,267.525 89.000,267.951 89.000 C 268.378 89.000,269.300 86.300,270.000 83.000 C 270.700 79.700,271.630 77.000,272.065 77.000 C 272.500 77.000,273.410 74.525,274.087 71.500 C 274.764 68.475,275.625 66.000,275.999 66.000 C 276.374 66.000,277.274 63.525,278.000 60.500 C 278.726 57.475,279.616 55.000,279.979 55.000 C 280.342 55.000,281.251 52.750,282.000 50.000 C 282.749 47.250,283.659 45.000,284.022 45.000 C 284.385 45.000,285.236 42.525,285.913 39.500 C 286.590 36.475,287.500 34.000,287.935 34.000 C 288.370 34.000,289.300 31.300,290.000 28.000 C 290.700 24.700,291.662 22.000,292.137 22.000 C 293.767 22.000,293.104 14.254,291.418 13.607 C 288.738 12.578,162.873 13.131,158.117 14.192 M281.539 24.644 C 281.163 26.648,280.254 28.889,279.519 29.624 C 278.784 30.359,277.877 32.769,277.503 34.980 C 277.130 37.191,276.486 39.000,276.072 39.000 C 275.658 39.000,274.726 41.475,274.000 44.500 C 273.274 47.525,272.374 50.000,272.000 50.000 C 271.626 50.000,270.726 52.475,270.000 55.500 C 269.274 58.525,268.342 61.000,267.928 61.000 C 267.514 61.000,266.870 62.809,266.497 65.020 C 266.123 67.231,265.234 69.623,264.522 70.335 C 263.809 71.048,262.654 74.189,261.954 77.316 C 261.254 80.442,260.375 83.000,260.000 83.000 C 259.625 83.000,258.764 85.475,258.087 88.500 C 257.410 91.525,256.500 94.000,256.065 94.000 C 255.630 94.000,254.700 96.700,254.000 100.000 C 253.300 103.300,252.383 106.000,251.963 106.000 C 251.543 106.000,250.635 108.351,249.946 111.225 C 249.257 114.099,248.128 117.015,247.437 117.705 C 246.747 118.396,245.877 120.769,245.503 122.980 C 245.130 125.191,244.486 127.000,244.072 127.000 C 243.658 127.000,242.726 129.475,242.000 132.500 C 241.274 135.525,240.374 138.000,240.000 138.000 C 239.626 138.000,238.726 140.475,238.000 143.500 C 237.274 146.525,236.364 149.000,235.977 149.000 C 235.590 149.000,234.700 151.700,234.000 155.000 C 233.300 158.300,232.420 161.000,232.044 161.000 C 231.669 161.000,230.749 163.250,230.000 166.000 C 229.251 168.750,228.341 171.000,227.978 171.000 C 227.615 171.000,226.764 173.475,226.087 176.500 C 225.410 179.525,224.500 182.000,224.065 182.000 C 223.630 182.000,222.700 184.700,222.000 188.000 C 221.300 191.300,220.338 194.000,219.863 194.000 C 219.389 194.000,219.000 196.025,219.000 198.500 C 219.000 200.975,219.450 203.000,220.000 203.000 C 220.550 203.000,221.000 203.900,221.000 205.000 C 221.000 206.100,220.582 207.000,220.072 207.000 C 219.561 207.000,218.590 209.475,217.913 212.500 C 217.236 215.525,216.375 218.000,216.001 218.000 C 215.626 218.000,214.726 220.475,214.000 223.500 C 213.274 226.525,212.374 229.000,211.999 229.000 C 211.625 229.000,210.746 231.558,210.046 234.684 C 209.346 237.811,208.191 240.952,207.478 241.665 C 206.766 242.377,205.877 244.769,205.503 246.980 C 205.130 249.191,204.486 251.000,204.072 251.000 C 203.658 251.000,202.726 253.475,202.000 256.500 C 201.274 259.525,200.374 262.000,199.999 262.000 C 199.625 262.000,198.764 264.475,198.087 267.500 C 197.410 270.525,196.500 273.000,196.065 273.000 C 195.630 273.000,194.700 275.700,194.000 279.000 C 193.300 282.300,192.420 285.000,192.044 285.000 C 191.669 285.000,190.749 287.250,190.000 290.000 C 189.251 292.750,188.331 295.000,187.956 295.000 C 187.580 295.000,186.700 297.700,186.000 301.000 C 185.300 304.300,184.370 307.000,183.935 307.000 C 183.500 307.000,182.590 309.475,181.913 312.500 C 181.236 315.525,180.375 318.000,180.001 318.000 C 179.626 318.000,178.726 320.475,178.000 323.500 C 177.274 326.525,176.342 329.000,175.928 329.000 C 175.514 329.000,174.870 330.809,174.497 333.020 C 174.123 335.231,173.234 337.623,172.522 338.335 C 171.809 339.048,170.654 342.189,169.954 345.316 C 169.254 348.442,168.336 351.000,167.913 351.000 C 167.490 351.000,166.590 353.475,165.913 356.500 C 165.236 359.525,164.375 362.000,164.000 362.000 C 163.625 362.000,162.764 364.475,162.087 367.500 C 161.410 370.525,160.495 373.000,160.053 373.000 C 159.611 373.000,158.980 374.350,158.650 376.000 L 158.050 379.000 90.275 378.985 C 52.999 378.976,22.998 378.639,23.607 378.235 C 24.216 377.831,25.314 375.137,26.046 372.250 C 26.779 369.363,27.662 367.000,28.008 367.000 C 28.355 367.000,29.251 364.750,30.000 362.000 C 30.749 359.250,31.659 357.000,32.022 357.000 C 32.385 357.000,33.236 354.525,33.913 351.500 C 34.590 348.475,35.468 346.000,35.865 346.000 C 36.263 346.000,37.186 343.300,37.919 340.000 C 38.651 336.700,39.572 334.000,39.966 334.000 C 40.360 334.000,41.236 331.525,41.913 328.500 C 42.590 325.475,43.490 323.000,43.913 323.000 C 44.336 323.000,45.254 320.442,45.954 317.316 C 46.654 314.189,47.809 311.048,48.522 310.335 C 49.234 309.623,50.123 307.231,50.497 305.020 C 50.870 302.809,51.554 301.000,52.016 301.000 C 52.478 301.000,53.410 298.525,54.087 295.500 C 54.764 292.475,55.625 290.000,55.999 290.000 C 56.374 290.000,57.274 287.525,58.000 284.500 C 58.726 281.475,59.616 279.000,59.979 279.000 C 60.342 279.000,61.251 276.750,62.000 274.000 C 62.749 271.250,63.730 269.000,64.181 269.000 C 64.631 269.000,65.000 267.896,65.000 266.547 C 65.000 264.189,66.833 259.038,68.041 258.000 C 68.362 257.725,69.191 254.912,69.884 251.750 C 70.576 248.588,71.490 246.000,71.913 246.000 C 72.336 246.000,73.236 243.525,73.913 240.500 C 74.590 237.475,75.490 235.000,75.913 235.000 C 76.336 235.000,77.254 232.442,77.954 229.316 C 78.654 226.189,79.809 223.048,80.522 222.335 C 81.234 221.623,82.123 219.231,82.497 217.020 C 82.870 214.809,83.554 213.000,84.016 213.000 C 84.478 213.000,85.410 210.525,86.087 207.500 C 86.764 204.475,87.625 202.000,87.999 202.000 C 88.374 202.000,89.274 199.525,90.000 196.500 C 90.726 193.475,91.588 191.000,91.916 191.000 C 92.707 191.000,95.000 183.576,95.000 181.016 C 95.000 179.907,95.369 179.000,95.819 179.000 C 96.270 179.000,97.251 176.750,98.000 174.000 C 98.749 171.250,99.659 169.000,100.022 169.000 C 100.385 169.000,101.236 166.525,101.913 163.500 C 102.590 160.475,103.490 158.000,103.913 158.000 C 104.336 158.000,105.236 155.525,105.913 152.500 C 106.590 149.475,107.490 147.000,107.913 147.000 C 108.336 147.000,109.254 144.442,109.954 141.316 C 110.654 138.189,111.809 135.048,112.522 134.335 C 113.234 133.623,114.123 131.231,114.497 129.020 C 114.870 126.809,115.554 125.000,116.016 125.000 C 116.478 125.000,117.410 122.525,118.087 119.500 C 118.764 116.475,119.640 114.000,120.034 114.000 C 120.428 114.000,121.349 111.300,122.081 108.000 C 122.814 104.700,123.737 102.000,124.135 102.000 C 124.532 102.000,125.410 99.525,126.087 96.500 C 126.764 93.475,127.615 91.000,127.978 91.000 C 128.341 91.000,129.251 88.750,130.000 86.000 C 130.749 83.250,131.659 81.000,132.022 81.000 C 132.385 81.000,133.236 78.525,133.913 75.500 C 134.590 72.475,135.490 70.000,135.913 70.000 C 136.336 70.000,137.236 67.525,137.913 64.500 C 138.590 61.475,139.490 59.000,139.913 59.000 C 140.336 59.000,141.254 56.442,141.954 53.316 C 142.654 50.189,143.809 47.048,144.522 46.335 C 145.234 45.623,146.123 43.231,146.497 41.020 C 146.870 38.809,147.515 37.000,147.930 37.000 C 148.344 37.000,149.190 35.310,149.809 33.245 C 150.427 31.179,151.923 28.817,153.132 27.995 C 154.341 27.173,156.123 25.746,157.092 24.823 C 160.486 21.593,167.386 21.214,224.861 21.107 L 282.223 21.000 281.539 24.644 " stroke="none" fill="#000000" fill-rule="evenodd"></path></g></svg>