<svg id="svg" xmlns="http://www.w3.org/2000/svg" xmlns:xlink="http://www.w3.org/1999/xlink" width="400" height="400" viewBox="0, 0, 400,400"><g id="svgg"><path id="path0" d="M191.561 17.631 C 191.838 18.353,191.152 18.712,188.831 19.060 C 186.724 19.376,185.649 19.281,185.476 18.763 C 185.082 17.580,184.006 17.864,183.947 19.167 C 183.916 19.864,183.759 19.998,183.558 19.500 C 183.090 18.339,182.000 18.456,182.000 19.667 C 182.000 20.266,181.385 20.667,180.467 20.667 C 179.623 20.667,178.556 21.042,178.094 21.500 C 177.421 22.168,177.342 22.102,177.698 21.167 C 178.254 19.708,177.422 19.691,174.189 21.097 C 167.452 24.025,166.305 24.870,168.167 25.532 C 168.625 25.695,168.182 25.726,167.183 25.601 C 165.076 25.337,160.575 27.916,160.997 29.145 C 161.150 29.592,161.014 30.119,160.694 30.316 C 160.375 30.513,159.996 30.320,159.851 29.886 C 159.704 29.444,159.225 29.322,158.762 29.608 C 158.127 30.000,158.117 30.337,158.716 31.059 C 159.145 31.577,159.223 32.000,158.890 32.000 C 158.556 32.000,156.654 33.529,154.663 35.398 C 152.672 37.267,150.934 38.467,150.799 38.065 C 150.665 37.663,150.281 37.333,149.944 37.333 C 149.087 37.333,149.179 39.171,150.051 39.461 C 150.446 39.593,150.076 40.293,149.229 41.017 C 148.062 42.015,147.908 42.051,148.593 41.167 C 149.549 39.932,148.943 39.634,147.429 40.594 C 146.922 40.915,146.692 41.717,146.905 42.417 C 147.151 43.224,146.592 44.493,145.327 46.000 C 144.250 47.283,143.361 47.958,143.351 47.500 C 143.341 47.042,143.651 46.667,144.039 46.667 C 144.428 46.667,144.554 46.357,144.320 45.978 C 144.071 45.576,143.334 46.001,142.549 46.998 C 141.505 48.325,141.376 48.915,141.974 49.635 C 142.597 50.386,142.483 50.494,141.371 50.203 C 139.962 49.834,139.394 51.020,140.762 51.476 C 141.325 51.664,141.311 52.129,140.708 53.256 C 140.259 54.095,139.719 54.608,139.507 54.396 C 138.879 53.768,137.333 55.400,137.333 56.693 C 137.333 57.351,137.652 57.995,138.042 58.125 C 138.539 58.291,138.533 58.930,138.023 60.273 C 137.623 61.325,137.130 62.019,136.927 61.816 C 136.725 61.613,136.912 60.787,137.344 59.980 C 137.965 58.820,137.952 58.572,137.283 58.794 C 136.818 58.950,135.810 60.709,135.043 62.705 C 134.276 64.701,133.289 66.969,132.848 67.746 C 132.407 68.522,132.261 69.396,132.523 69.686 C 132.786 69.976,132.591 69.977,132.092 69.688 C 131.548 69.373,130.951 69.531,130.602 70.081 C 129.757 71.415,129.869 72.000,130.968 72.000 C 131.780 72.000,131.927 73.861,131.876 83.500 C 131.825 93.077,131.713 94.331,131.205 91.000 C 130.870 88.800,130.704 84.375,130.837 81.167 C 131.059 75.774,130.720 74.296,129.656 76.018 C 129.423 76.394,128.825 76.619,128.327 76.518 C 127.828 76.416,127.476 76.633,127.544 77.000 C 127.611 77.367,127.881 77.595,128.143 77.508 C 128.404 77.421,128.448 77.794,128.239 78.338 C 128.031 78.881,127.589 79.158,127.258 78.954 C 126.513 78.493,125.386 79.620,123.484 82.731 C 121.950 85.240,122.165 86.579,123.875 85.161 C 124.576 84.579,124.495 85.002,123.603 86.584 C 122.905 87.822,121.883 89.638,121.333 90.620 C 119.233 94.369,118.217 95.375,117.002 94.909 C 116.153 94.583,115.915 94.720,116.159 95.394 C 116.347 95.911,116.869 96.248,117.320 96.143 C 117.771 96.039,117.313 97.389,116.303 99.143 C 115.292 100.898,113.581 103.921,112.501 105.861 C 110.917 108.706,110.358 109.240,109.613 108.622 C 108.876 108.011,108.548 108.226,107.992 109.687 C 107.118 111.987,107.679 112.640,109.080 110.951 C 110.073 109.755,110.078 109.781,109.163 111.333 C 108.623 112.250,107.540 113.096,106.757 113.213 C 105.138 113.455,104.800 114.667,106.350 114.667 C 107.469 114.667,107.644 114.256,103.365 121.667 C 102.307 123.500,100.891 125.110,100.220 125.244 C 98.424 125.603,97.107 128.000,98.706 128.000 C 99.094 128.000,99.227 127.700,99.000 127.333 C 98.773 126.967,98.906 126.667,99.294 126.667 C 100.318 126.667,100.163 127.408,98.667 129.667 C 97.720 131.097,97.341 131.334,97.338 130.500 C 97.332 129.046,96.281 128.972,95.738 130.388 C 95.165 131.880,95.211 132.000,96.350 132.000 C 97.490 132.000,96.118 135.437,94.605 136.372 C 94.066 136.704,94.065 136.457,94.600 135.458 C 95.479 133.815,95.519 133.333,94.774 133.333 C 94.142 133.333,92.807 135.980,92.924 137.000 C 92.966 137.367,93.214 137.595,93.476 137.508 C 94.194 137.269,93.308 139.304,91.174 142.799 C 89.917 144.858,88.933 145.805,88.303 145.563 C 87.752 145.352,87.149 145.704,86.886 146.391 C 86.616 147.093,86.753 147.696,87.218 147.850 C 88.386 148.240,87.459 149.333,85.961 149.333 C 84.523 149.333,84.197 150.398,85.500 150.835 C 87.113 151.377,83.035 157.847,81.301 157.496 C 80.257 157.285,77.578 161.800,78.312 162.534 C 78.779 163.001,80.617 160.611,80.645 159.500 C 80.657 159.042,80.951 158.667,81.298 158.667 C 82.067 158.667,79.202 164.207,75.441 169.995 C 73.915 172.344,72.667 174.496,72.667 174.778 C 72.667 175.061,72.186 175.107,71.599 174.882 C 71.012 174.657,70.282 174.877,69.977 175.371 C 69.141 176.723,69.970 177.519,71.184 176.532 C 71.789 176.041,71.480 176.963,70.469 178.667 C 69.214 180.780,68.315 181.609,67.426 181.472 C 66.732 181.365,65.990 181.730,65.778 182.284 C 65.269 183.610,66.649 184.435,67.398 183.252 C 67.718 182.747,67.984 182.563,67.990 182.843 C 68.010 183.865,64.981 187.965,64.314 187.818 C 63.936 187.735,63.636 187.967,63.647 188.333 C 63.658 188.700,63.907 188.920,64.202 188.822 C 64.496 188.724,63.907 190.074,62.894 191.822 C 58.874 198.755,57.657 200.361,56.584 200.149 C 55.988 200.031,55.306 200.442,55.068 201.063 C 54.507 202.525,55.227 203.250,56.000 202.000 C 56.327 201.471,56.791 201.235,57.031 201.476 C 57.271 201.716,56.732 202.907,55.833 204.123 C 54.933 205.339,53.971 206.933,53.694 207.667 C 53.194 208.991,53.187 208.991,52.700 207.682 C 52.221 206.394,52.191 206.397,51.438 207.804 C 50.408 209.728,50.466 210.220,51.667 209.759 C 53.043 209.231,53.009 209.318,50.018 214.100 C 48.562 216.428,46.875 219.313,46.271 220.511 C 45.107 222.815,44.000 223.885,44.000 222.706 C 44.000 222.318,43.700 222.000,43.333 222.000 C 42.502 222.000,42.448 223.808,43.270 224.111 C 44.278 224.482,41.738 228.999,40.517 229.008 C 39.894 229.012,39.039 229.361,38.617 229.783 C 37.705 230.695,38.440 232.219,39.482 231.575 C 39.904 231.314,40.015 231.436,39.748 231.868 C 39.497 232.275,38.850 232.439,38.312 232.233 C 37.774 232.026,37.333 232.189,37.333 232.595 C 37.333 233.001,37.651 233.333,38.039 233.333 C 38.428 233.333,38.568 233.620,38.351 233.971 C 38.135 234.322,37.517 234.439,36.979 234.233 C 36.440 234.026,36.000 234.164,36.000 234.540 C 36.000 234.915,36.359 235.342,36.797 235.488 C 37.342 235.669,37.101 236.551,36.040 238.269 C 35.017 239.924,34.316 240.512,33.992 239.988 C 33.617 239.381,33.373 239.397,32.965 240.056 C 32.656 240.556,32.748 241.027,33.182 241.172 C 34.108 241.481,33.211 244.098,31.380 246.425 C 30.533 247.503,30.019 247.750,29.810 247.180 C 29.574 246.535,29.304 246.518,28.675 247.109 C 27.772 247.957,28.381 249.589,29.372 248.976 C 29.709 248.768,29.819 249.030,29.616 249.558 C 29.392 250.141,28.673 250.398,27.790 250.210 C 26.446 249.925,26.422 249.974,27.483 250.845 C 28.560 251.730,28.534 251.921,27.051 253.931 C 26.181 255.110,25.353 255.725,25.210 255.298 C 25.036 254.776,24.658 254.874,24.061 255.594 C 23.302 256.508,23.337 256.667,24.301 256.667 C 25.250 256.667,25.102 257.242,23.382 260.248 C 21.092 264.251,20.868 265.333,22.333 265.333 C 22.883 265.333,23.333 265.054,23.333 264.712 C 23.333 264.370,23.858 263.920,24.500 263.713 C 25.142 263.506,26.752 262.361,28.078 261.168 C 31.096 258.455,38.574 254.451,43.114 253.116 C 45.010 252.559,47.158 251.784,47.887 251.394 C 48.616 251.003,50.709 250.567,52.537 250.425 C 54.365 250.282,56.135 249.996,56.470 249.788 C 57.880 248.917,70.546 248.578,74.667 249.303 C 77.050 249.722,80.745 250.330,82.878 250.655 C 85.011 250.979,87.111 251.514,87.545 251.843 C 87.979 252.172,90.283 253.133,92.667 253.978 C 95.050 254.824,97.715 256.074,98.590 256.758 C 99.464 257.441,100.431 258.000,100.737 258.000 C 101.608 258.000,107.565 262.201,108.537 263.500 C 109.016 264.142,109.702 264.667,110.060 264.667 C 110.738 264.667,112.919 266.788,118.000 272.389 C 129.106 284.631,135.545 303.675,134.380 320.833 C 133.946 327.235,135.049 330.054,136.468 326.167 C 136.702 325.525,138.267 322.669,139.947 319.821 C 141.626 316.973,143.450 313.807,144.000 312.785 C 145.949 309.167,147.115 307.958,148.240 308.390 C 148.841 308.621,149.333 308.499,149.333 308.120 C 149.333 307.741,148.894 307.334,148.357 307.216 C 147.615 307.052,148.008 305.960,149.993 302.667 C 151.429 300.283,153.218 297.077,153.967 295.540 C 155.282 292.846,157.075 290.827,156.254 292.965 C 156.036 293.534,156.157 294.000,156.524 294.000 C 157.548 294.000,158.145 291.835,157.271 291.295 C 156.084 290.561,157.162 289.413,158.667 289.807 C 159.412 290.002,160.000 289.827,160.000 289.411 C 160.000 289.002,159.700 288.667,159.333 288.667 C 158.187 288.667,158.603 287.104,160.503 284.269 C 161.510 282.766,162.708 281.666,163.167 281.824 C 163.625 281.982,164.000 281.786,164.000 281.389 C 164.000 280.992,163.692 280.667,163.316 280.667 C 162.550 280.667,163.929 277.756,165.686 275.667 C 166.745 274.408,166.747 274.435,165.737 276.143 C 164.579 278.102,164.364 279.333,165.182 279.333 C 165.618 279.333,166.287 278.227,168.574 273.720 C 168.746 273.382,168.349 273.312,167.692 273.565 C 166.569 273.996,166.563 273.925,167.583 272.368 C 168.179 271.458,168.667 270.352,168.667 269.909 C 168.667 268.598,170.717 266.728,171.729 267.116 C 172.245 267.314,172.667 267.144,172.667 266.738 C 172.667 266.332,172.373 266.000,172.014 266.000 C 171.624 266.000,171.678 265.306,172.150 264.270 C 172.803 262.836,173.006 262.733,173.334 263.668 C 173.693 264.693,173.809 264.700,174.606 263.739 C 175.339 262.856,175.317 262.618,174.471 262.294 C 173.487 261.916,174.054 260.585,178.572 252.670 C 178.885 252.122,179.631 251.672,180.230 251.670 C 180.829 251.668,181.247 251.367,181.159 251.000 C 181.072 250.633,180.768 250.411,180.484 250.505 C 180.200 250.600,180.581 249.475,181.331 248.005 C 182.080 246.536,182.855 245.333,183.053 245.333 C 183.250 245.333,183.239 245.613,183.028 245.954 C 182.818 246.295,182.983 246.784,183.397 247.039 C 183.811 247.295,184.411 247.091,184.731 246.585 C 185.582 245.242,185.463 244.667,184.333 244.667 C 183.085 244.667,183.064 244.075,184.266 242.719 C 184.778 242.140,185.782 240.617,186.497 239.333 C 191.730 229.929,193.407 227.294,192.267 230.266 C 192.070 230.779,192.221 231.391,192.602 231.626 C 192.984 231.863,193.485 231.295,193.719 230.361 C 193.953 229.429,194.412 228.667,194.739 228.667 C 195.066 228.667,195.333 228.049,195.333 227.294 C 195.333 226.539,195.033 226.107,194.667 226.333 C 193.759 226.894,193.820 225.780,194.748 224.852 C 195.159 224.441,195.909 224.263,196.415 224.457 C 196.920 224.651,197.333 224.477,197.333 224.071 C 197.333 223.665,197.043 223.333,196.688 223.333 C 196.332 223.333,196.202 222.916,196.397 222.407 C 196.603 221.871,197.297 221.623,198.043 221.818 C 198.753 222.004,199.333 221.821,199.333 221.411 C 199.333 221.002,198.893 220.667,198.354 220.667 C 197.776 220.667,197.526 220.274,197.743 219.708 C 197.946 219.180,197.010 216.780,195.665 214.374 C 194.319 211.968,193.369 210.000,193.552 210.000 C 193.735 210.000,195.010 212.025,196.385 214.500 C 197.760 216.975,199.094 219.150,199.350 219.333 C 199.605 219.517,200.314 220.642,200.924 221.833 C 201.535 223.025,202.410 224.000,202.869 224.000 C 203.911 224.000,205.594 225.933,207.047 228.802 C 207.660 230.011,208.621 231.525,209.184 232.167 C 210.110 233.223,210.097 233.333,209.048 233.333 C 208.410 233.333,208.020 233.708,208.180 234.167 C 208.341 234.625,208.948 234.916,209.531 234.813 C 210.313 234.675,210.556 235.111,210.462 236.480 C 210.374 237.740,210.653 238.333,211.333 238.333 C 212.651 238.333,213.460 239.510,212.534 240.082 C 211.492 240.726,212.486 242.879,213.624 242.442 C 214.144 242.243,214.928 242.511,215.366 243.040 C 215.932 243.721,215.946 244.000,215.415 244.000 C 215.003 244.000,214.667 244.487,214.667 245.082 C 214.667 245.877,214.890 245.978,215.508 245.465 C 216.131 244.948,216.547 245.186,217.112 246.384 C 217.531 247.273,217.603 248.000,217.271 248.000 C 216.938 248.000,216.667 248.332,216.667 248.738 C 216.667 249.144,217.095 249.312,217.618 249.111 C 218.648 248.716,220.464 250.425,219.762 251.127 C 219.526 251.363,219.333 251.206,219.333 250.778 C 219.333 250.350,219.011 250.000,218.618 250.000 C 218.224 250.000,218.010 250.525,218.142 251.167 C 218.288 251.880,218.861 252.249,219.615 252.117 C 220.596 251.944,220.769 252.203,220.461 253.382 C 219.961 255.294,222.591 259.988,224.167 259.995 C 225.241 260.000,225.654 261.077,225.383 263.167 C 225.324 263.625,225.579 264.000,225.950 264.000 C 226.321 264.000,226.454 264.446,226.245 264.991 C 226.000 265.628,226.434 266.198,227.460 266.588 C 228.337 266.922,229.492 267.751,230.027 268.431 C 230.921 269.566,230.905 269.592,229.833 268.752 C 228.369 267.603,228.106 270.004,229.537 271.452 C 230.016 271.937,230.619 272.889,230.876 273.569 C 231.143 274.274,231.748 274.650,232.284 274.445 C 232.800 274.246,233.388 274.515,233.591 275.042 C 233.793 275.569,233.643 276.000,233.257 276.000 C 232.871 276.000,232.693 276.375,232.861 276.833 C 233.029 277.292,233.468 277.604,233.837 277.526 C 234.206 277.449,235.040 277.974,235.691 278.693 C 236.369 279.443,236.545 280.000,236.103 280.000 C 235.680 280.000,235.333 280.487,235.333 281.082 C 235.333 281.944,235.527 282.003,236.287 281.372 C 237.050 280.739,237.389 280.858,237.982 281.966 C 238.390 282.729,238.486 283.273,238.195 283.176 C 237.317 282.883,237.112 283.585,237.614 285.167 C 237.876 285.992,238.402 286.667,238.783 286.667 C 239.164 286.667,239.287 286.174,239.056 285.572 C 238.694 284.628,238.785 284.602,239.726 285.383 C 241.258 286.654,241.971 288.845,241.175 289.833 C 240.715 290.405,240.773 290.991,241.360 291.698 C 241.928 292.383,242.365 292.489,242.659 292.013 C 242.919 291.592,243.419 291.992,243.870 292.981 C 244.335 294.001,244.381 294.667,243.986 294.667 C 243.627 294.667,243.333 294.967,243.333 295.333 C 243.333 295.700,243.933 296.000,244.667 296.000 C 245.400 296.000,246.000 296.398,246.000 296.884 C 246.000 297.370,246.750 298.472,247.667 299.333 C 248.583 300.194,249.324 301.222,249.313 301.616 C 249.302 302.011,248.983 301.802,248.605 301.153 C 247.579 299.389,246.589 300.434,247.465 302.357 C 248.239 304.055,249.333 304.574,249.333 303.243 C 249.333 302.827,249.933 303.250,250.667 304.182 C 251.400 305.114,252.000 306.112,252.000 306.399 C 252.000 306.686,251.575 306.340,251.055 305.628 C 250.534 304.917,249.863 304.581,249.563 304.881 C 248.789 305.656,251.653 310.332,252.908 310.341 C 253.480 310.345,254.335 310.738,254.808 311.214 C 255.510 311.921,255.454 311.998,254.500 311.635 C 253.089 311.098,252.887 312.787,254.204 314.119 C 254.683 314.604,255.283 315.550,255.538 316.222 C 255.792 316.894,256.376 317.317,256.834 317.161 C 257.723 316.859,261.043 321.180,260.408 321.814 C 260.201 322.021,259.842 321.698,259.611 321.095 C 259.163 319.928,258.000 319.584,258.000 320.619 C 258.000 320.960,258.378 321.635,258.841 322.119 C 259.304 322.604,260.045 323.819,260.487 324.820 C 261.064 326.123,261.630 326.532,262.480 326.257 C 263.325 325.985,263.420 326.052,262.811 326.490 C 262.340 326.829,262.147 327.608,262.382 328.220 C 262.953 329.709,264.257 329.657,263.729 328.167 C 263.483 327.473,263.847 327.675,264.628 328.667 C 265.695 330.022,265.759 330.374,264.970 330.549 C 263.859 330.796,263.774 331.278,264.610 332.597 C 264.934 333.109,265.616 333.368,266.125 333.172 C 266.683 332.958,267.641 333.716,268.532 335.075 C 269.714 336.879,269.810 337.333,269.006 337.333 C 267.381 337.333,267.854 338.662,269.500 338.719 C 270.325 338.748,270.625 338.923,270.167 339.108 C 269.708 339.293,269.333 339.752,269.333 340.127 C 269.333 340.502,269.817 340.624,270.408 340.397 C 271.217 340.086,271.374 340.267,271.043 341.129 C 270.801 341.758,271.136 343.261,271.787 344.470 C 272.996 346.714,273.992 347.325,274.010 345.833 C 274.017 345.262,274.213 345.304,274.633 345.969 C 274.970 346.501,275.078 347.776,274.873 348.802 C 274.579 350.270,274.746 350.667,275.655 350.667 C 276.424 350.667,276.677 350.322,276.412 349.632 C 276.194 349.063,276.276 348.758,276.594 348.955 C 277.426 349.469,277.989 352.000,277.271 352.000 C 276.939 352.000,276.667 352.332,276.667 352.738 C 276.667 353.144,277.080 353.317,277.585 353.123 C 278.561 352.749,280.000 353.824,280.000 354.927 C 280.000 355.291,279.560 355.006,279.021 354.294 C 278.239 353.260,278.038 353.208,278.021 354.039 C 277.990 355.570,279.992 357.887,280.432 356.829 C 281.052 355.339,282.018 356.695,281.580 358.440 C 281.229 359.838,281.369 360.091,282.387 359.895 C 284.101 359.565,288.830 364.133,288.274 365.582 C 287.948 366.430,288.208 366.638,289.427 366.505 C 290.702 366.366,290.970 366.617,290.841 367.833 C 290.672 369.428,291.654 369.898,292.236 368.500 C 292.488 367.894,292.841 367.984,293.532 368.833 C 294.053 369.475,294.805 370.000,295.201 370.000 C 295.597 370.000,296.105 370.297,296.329 370.659 C 296.562 371.037,296.295 371.149,295.701 370.921 C 294.085 370.301,294.488 371.730,296.257 372.889 C 298.081 374.084,299.054 373.607,297.828 372.119 C 297.115 371.254,297.185 371.216,298.333 371.842 C 300.655 373.108,302.367 374.623,301.500 374.645 C 299.662 374.692,300.852 375.916,304.092 377.309 C 306.870 378.504,307.625 378.614,308.092 377.891 C 308.527 377.217,308.767 377.365,309.078 378.500 C 309.438 379.813,310.479 380.345,312.167 380.079 C 312.442 380.036,312.667 380.300,312.667 380.667 C 312.667 381.033,312.967 381.333,313.333 381.333 C 313.700 381.333,314.000 380.925,314.000 380.426 C 314.000 379.824,314.546 379.623,315.619 379.828 C 316.666 380.028,317.112 380.467,316.881 381.069 C 316.685 381.581,316.831 382.000,317.206 382.000 C 317.582 382.000,317.996 381.677,318.128 381.283 C 318.472 380.250,322.000 381.273,322.000 382.406 C 322.000 383.479,323.062 383.645,323.667 382.667 C 324.143 381.895,326.666 381.755,326.667 382.500 C 326.667 382.775,329.817 383.000,333.667 383.000 C 337.517 383.000,340.667 382.775,340.667 382.500 C 340.667 382.225,341.267 382.000,342.000 382.000 C 342.733 382.000,343.333 382.300,343.333 382.667 C 343.333 383.033,343.633 383.333,344.000 383.333 C 344.367 383.333,344.667 382.883,344.667 382.333 C 344.667 381.783,344.967 381.333,345.333 381.333 C 345.700 381.333,346.000 381.633,346.000 382.000 C 346.000 382.367,346.482 382.667,347.071 382.667 C 347.750 382.667,348.002 382.300,347.759 381.667 C 347.548 381.117,347.641 380.667,347.965 380.667 C 348.290 380.667,348.707 381.042,348.892 381.500 C 349.093 381.998,349.249 381.864,349.281 381.167 C 349.335 379.955,350.667 379.484,350.667 380.676 C 350.667 381.475,354.694 380.897,355.633 379.963 C 356.007 379.592,356.014 379.333,355.652 379.333 C 355.313 379.333,355.736 378.843,356.591 378.245 C 357.728 377.448,358.274 377.365,358.626 377.934 C 359.168 378.811,361.333 378.217,361.333 377.191 C 361.333 376.824,360.868 376.703,360.299 376.921 C 359.730 377.139,359.425 377.058,359.622 376.740 C 360.301 375.640,362.667 375.403,362.667 376.435 C 362.667 376.972,362.987 377.214,363.379 376.972 C 363.770 376.730,363.941 376.142,363.758 375.665 C 363.575 375.188,363.930 374.627,364.546 374.418 C 365.955 373.941,368.162 372.541,368.884 371.667 C 369.241 371.235,369.554 371.293,369.773 371.833 C 370.250 373.008,371.557 372.878,371.105 371.701 C 370.865 371.073,371.055 370.858,371.649 371.085 C 373.218 371.688,375.422 370.058,375.201 368.458 C 375.050 367.360,375.343 367.000,376.392 367.000 C 378.218 367.000,380.063 365.437,379.842 364.078 C 379.741 363.457,380.055 363.082,380.583 363.194 C 382.092 363.514,384.072 361.277,383.599 359.787 C 383.288 358.807,383.430 358.561,384.150 358.837 C 385.765 359.457,387.073 358.293,386.091 357.110 C 385.534 356.438,385.494 355.979,385.968 355.687 C 386.352 355.449,386.667 355.572,386.667 355.961 C 386.667 356.349,387.002 356.667,387.411 356.667 C 387.821 356.667,388.004 356.089,387.820 355.383 C 387.584 354.483,387.760 354.206,388.409 354.455 C 389.560 354.896,389.610 353.910,388.500 352.665 C 387.802 351.883,387.839 351.860,388.728 352.526 C 389.312 352.964,389.987 353.124,390.228 352.883 C 391.011 352.100,390.693 351.333,389.585 351.333 C 388.719 351.333,388.662 351.142,389.300 350.373 C 389.739 349.845,390.500 349.567,390.991 349.756 C 391.580 349.981,392.587 348.627,393.942 345.787 C 396.071 341.328,396.411 340.000,395.425 340.000 C 395.109 340.000,395.469 337.554,396.225 334.565 C 396.980 331.576,397.714 329.476,397.855 329.898 C 398.227 331.014,399.333 330.841,399.333 329.667 C 399.333 329.117,399.033 328.667,398.667 328.667 C 398.300 328.667,398.000 328.076,398.000 327.354 C 398.000 326.462,398.320 326.165,399.000 326.426 C 400.108 326.851,400.388 325.652,399.333 325.000 C 398.967 324.773,398.667 323.856,398.667 322.961 C 398.667 322.066,398.967 321.333,399.333 321.333 C 399.710 321.333,400.000 319.431,400.000 316.961 C 400.000 314.556,399.741 312.748,399.425 312.943 C 399.108 313.139,398.671 311.582,398.453 309.483 C 398.223 307.270,398.324 305.573,398.695 305.444 C 399.805 305.058,399.385 303.336,398.167 303.281 C 397.470 303.249,397.336 303.093,397.833 302.892 C 398.790 302.506,398.974 300.667,398.056 300.667 C 397.719 300.667,397.293 301.042,397.108 301.500 C 396.907 301.998,396.751 301.864,396.719 301.167 C 396.690 300.525,396.967 300.000,397.333 300.000 C 397.700 300.000,398.000 299.668,398.000 299.262 C 398.000 298.856,397.575 298.687,397.055 298.887 C 396.536 299.086,395.936 298.794,395.722 298.237 C 395.168 296.793,395.217 296.667,396.333 296.667 C 396.883 296.667,397.333 296.367,397.333 296.000 C 397.333 295.633,396.915 295.333,396.405 295.333 C 395.310 295.333,394.446 293.518,395.390 293.203 C 395.747 293.084,395.226 291.104,394.233 288.802 C 393.112 286.204,392.111 284.737,391.595 284.935 C 391.138 285.111,390.405 284.822,389.967 284.294 C 389.402 283.613,389.388 283.333,389.918 283.333 C 390.330 283.333,390.667 283.001,390.667 282.595 C 390.667 282.189,390.241 282.021,389.722 282.220 C 389.202 282.419,388.619 282.171,388.426 281.668 C 388.233 281.164,388.375 280.653,388.742 280.530 C 389.109 280.408,389.204 279.771,388.952 279.116 C 388.700 278.460,388.093 278.078,387.602 278.266 C 386.365 278.741,385.724 277.470,386.642 276.363 C 387.121 275.786,387.159 275.304,386.745 275.048 C 386.386 274.827,385.887 274.976,385.637 275.381 C 385.346 275.853,384.909 275.628,384.424 274.757 C 384.008 274.009,382.365 271.259,380.773 268.647 C 379.182 266.035,378.029 263.748,378.212 263.565 C 378.395 263.382,378.743 263.855,378.984 264.616 C 379.404 265.941,380.667 266.578,380.667 265.466 C 380.667 264.118,378.920 261.363,378.229 261.621 C 377.805 261.780,376.934 261.330,376.293 260.622 C 375.618 259.876,375.451 259.333,375.897 259.333 C 376.320 259.333,376.667 258.698,376.667 257.922 C 376.667 256.848,376.354 256.593,375.357 256.854 C 373.868 257.243,373.025 255.578,373.752 253.684 C 374.115 252.737,373.942 252.595,372.846 252.943 C 371.947 253.228,371.360 253.030,371.100 252.353 C 370.858 251.723,371.083 251.333,371.688 251.333 C 372.226 251.333,372.667 251.033,372.667 250.667 C 372.667 250.300,372.099 250.000,371.405 250.000 C 370.061 250.000,369.056 248.321,369.739 247.216 C 369.964 246.852,369.597 245.529,368.923 244.277 C 367.720 242.043,366.667 241.310,366.667 242.706 C 366.667 243.094,366.335 243.207,365.929 242.956 C 365.404 242.632,365.431 242.352,366.019 241.988 C 367.449 241.105,366.215 237.886,364.540 238.129 C 363.761 238.241,362.996 237.958,362.840 237.500 C 362.683 237.042,362.881 236.667,363.278 236.667 C 363.675 236.667,364.000 236.335,364.000 235.929 C 364.000 235.523,363.573 235.355,363.050 235.555 C 362.487 235.771,361.626 235.190,360.934 234.126 C 359.894 232.528,359.888 232.432,360.884 233.248 C 361.864 234.052,362.000 233.991,362.000 232.748 C 362.000 231.847,361.577 231.332,360.833 231.329 C 359.639 231.324,356.177 226.934,356.843 226.268 C 357.046 226.065,357.409 226.522,357.651 227.283 C 358.087 228.657,359.333 229.228,359.333 228.054 C 359.333 226.727,356.955 223.348,356.215 223.626 C 355.784 223.788,355.096 223.518,354.688 223.025 C 354.136 222.360,354.154 222.060,354.759 221.858 C 355.236 221.699,355.387 221.102,355.125 220.418 C 354.878 219.775,354.369 219.439,353.994 219.670 C 353.619 219.902,353.510 220.446,353.754 220.879 C 354.047 221.401,353.974 221.442,353.539 221.000 C 352.205 219.644,348.678 212.667,349.328 212.667 C 349.697 212.667,350.000 213.017,350.000 213.444 C 350.000 213.872,350.161 214.061,350.358 213.864 C 351.029 213.194,349.106 209.945,348.236 210.278 C 347.112 210.710,346.264 209.328,347.271 208.705 C 348.111 208.186,347.566 206.000,346.595 206.000 C 346.268 206.000,346.000 205.525,346.000 204.944 C 346.000 204.364,345.628 204.013,345.173 204.165 C 344.138 204.510,342.667 203.094,342.667 201.754 C 342.667 201.199,342.335 200.540,341.929 200.289 C 341.408 199.967,341.441 199.679,342.043 199.307 C 342.714 198.892,342.652 198.410,341.751 197.036 C 341.123 196.076,340.288 195.489,339.896 195.731 C 339.505 195.973,338.934 195.765,338.627 195.270 C 338.308 194.753,338.357 194.191,338.743 193.953 C 339.774 193.315,336.627 187.300,335.368 187.501 C 334.641 187.617,334.384 187.198,334.505 186.093 C 334.628 184.966,334.408 184.623,333.727 184.885 C 333.204 185.085,332.619 184.837,332.426 184.334 C 332.233 183.831,332.375 183.319,332.742 183.197 C 333.109 183.075,333.204 182.438,332.952 181.782 C 332.679 181.071,332.091 180.745,331.496 180.973 C 330.947 181.184,330.095 180.826,329.603 180.178 C 328.393 178.583,328.432 177.642,329.667 178.667 C 330.480 179.342,330.667 179.310,330.667 178.497 C 330.667 177.047,328.895 175.681,328.474 176.806 C 328.291 177.293,327.709 176.655,327.132 175.333 C 326.512 173.913,326.348 172.718,326.712 172.279 C 327.080 171.836,326.934 171.064,326.335 170.279 C 325.489 169.171,325.269 169.133,324.690 170.000 C 324.273 170.623,324.017 170.697,324.010 170.196 C 324.005 169.754,323.243 168.277,322.317 166.913 C 321.259 165.353,320.868 164.198,321.265 163.802 C 322.006 163.060,321.488 161.333,320.524 161.333 C 320.157 161.333,320.030 161.783,320.241 162.333 C 320.836 163.884,320.274 163.518,318.960 161.500 C 318.096 160.173,318.046 159.895,318.778 160.494 C 319.334 160.949,319.976 161.135,320.205 160.907 C 320.829 160.282,319.364 157.902,318.633 158.354 C 317.484 159.065,316.532 157.965,317.396 156.925 C 317.833 156.398,317.981 155.759,317.725 155.503 C 317.470 155.248,317.019 155.430,316.723 155.909 C 316.308 156.581,316.084 156.513,315.737 155.609 C 315.484 154.950,315.643 154.221,316.101 153.937 C 317.293 153.201,315.562 151.309,314.118 151.769 C 313.291 152.033,313.225 151.964,313.867 151.502 C 314.560 151.005,314.572 150.522,313.927 149.106 C 313.050 147.181,312.307 146.858,311.767 148.167 C 311.578 148.625,311.601 147.975,311.817 146.721 C 312.150 144.796,312.042 144.508,311.116 144.863 C 309.749 145.388,308.382 143.218,309.423 142.177 C 309.903 141.697,309.870 141.332,309.317 140.990 C 308.877 140.718,308.293 140.859,308.018 141.304 C 307.659 141.884,307.393 141.783,307.070 140.943 C 306.823 140.299,306.942 139.575,307.333 139.333 C 308.317 138.725,307.365 136.512,306.296 136.922 C 305.820 137.105,305.072 136.822,304.634 136.294 C 303.994 135.523,304.055 135.333,304.942 135.333 C 305.833 135.333,305.912 135.080,305.347 134.025 C 304.961 133.305,304.240 132.872,303.743 133.063 C 303.245 133.254,302.659 132.943,302.440 132.372 C 302.221 131.801,302.323 131.333,302.667 131.333 C 303.010 131.333,303.112 130.866,302.893 130.295 C 302.674 129.724,302.093 129.411,301.602 129.599 C 300.406 130.058,299.602 128.658,300.678 127.993 C 301.828 127.282,300.928 125.090,299.682 125.568 C 299.147 125.774,298.503 125.609,298.252 125.201 C 297.975 124.753,298.098 124.648,298.564 124.936 C 299.028 125.223,299.333 124.971,299.333 124.301 C 299.333 123.593,298.975 123.328,298.344 123.571 C 297.762 123.794,297.065 123.411,296.653 122.642 C 296.174 121.746,296.171 121.333,296.643 121.333 C 297.648 121.333,297.488 119.625,296.398 118.720 C 295.695 118.137,295.399 118.135,295.207 118.712 C 295.039 119.216,294.641 119.106,294.048 118.391 C 293.269 117.452,293.295 117.360,294.239 117.723 C 294.963 118.001,295.333 117.794,295.333 117.111 C 295.333 115.734,293.979 114.955,293.351 115.971 C 293.010 116.524,292.737 116.340,292.488 115.390 C 292.288 114.625,292.397 114.000,292.729 114.000 C 293.509 114.000,293.482 113.258,292.656 112.000 C 292.112 111.171,291.900 111.155,291.417 111.905 C 290.992 112.562,290.704 112.600,290.359 112.042 C 290.099 111.620,290.252 110.832,290.701 110.292 C 291.621 109.183,289.905 106.667,288.230 106.667 C 287.107 106.667,287.081 105.869,288.167 104.709 C 288.850 103.979,288.730 103.884,287.500 104.180 C 286.675 104.379,286.000 104.270,286.000 103.938 C 286.000 103.605,286.311 103.333,286.690 103.333 C 287.133 103.333,287.093 102.796,286.578 101.835 C 286.094 100.930,285.668 100.662,285.503 101.158 C 285.222 102.001,281.981 98.664,282.020 97.570 C 282.031 97.257,282.346 97.525,282.720 98.167 C 283.094 98.808,283.685 99.333,284.033 99.333 C 285.009 99.333,284.784 97.545,283.667 96.429 C 283.117 95.879,282.667 95.107,282.667 94.714 C 282.667 93.821,281.523 93.771,281.222 94.652 C 281.100 95.010,280.481 94.396,279.846 93.287 C 279.212 92.178,278.966 91.440,279.300 91.646 C 280.237 92.225,280.660 91.053,279.905 89.968 C 279.391 89.229,279.152 89.198,278.892 89.837 C 278.706 90.298,278.246 90.486,277.872 90.254 C 277.430 89.981,277.475 89.658,278.000 89.333 C 278.490 89.030,278.628 88.261,278.349 87.381 C 277.979 86.218,277.700 86.086,276.944 86.713 C 276.413 87.154,276.000 87.210,276.000 86.841 C 276.000 86.481,275.274 85.117,274.388 83.810 C 272.993 81.755,272.918 81.379,273.832 81.029 C 274.659 80.711,274.714 80.447,274.084 79.817 C 273.454 79.187,273.164 79.196,272.755 79.858 C 272.379 80.465,272.018 80.237,271.478 79.051 C 270.835 77.640,270.879 77.456,271.773 77.800 C 272.674 78.146,272.707 77.988,272.006 76.678 C 271.348 75.448,271.064 75.332,270.541 76.077 C 270.073 76.742,269.993 76.533,270.252 75.328 C 270.706 73.217,269.792 71.681,268.401 72.215 C 267.322 72.629,266.995 71.755,267.233 69.093 C 267.308 68.252,267.027 67.975,266.360 68.231 C 265.148 68.696,264.199 67.368,265.271 66.705 C 266.458 65.972,265.347 63.841,263.966 64.202 C 263.201 64.402,262.665 64.066,262.453 63.256 C 262.273 62.565,262.397 62.000,262.729 62.000 C 263.061 62.000,263.333 61.515,263.333 60.922 C 263.333 60.185,262.926 59.951,262.043 60.182 C 261.297 60.377,260.603 60.129,260.397 59.593 C 260.202 59.084,260.332 58.667,260.688 58.667 C 261.043 58.667,261.333 58.335,261.333 57.929 C 261.333 57.523,260.893 57.360,260.355 57.566 C 259.125 58.038,258.282 56.785,259.206 55.861 C 260.172 54.895,259.427 53.333,258.000 53.333 C 256.630 53.333,255.857 51.816,256.445 50.283 C 256.732 49.534,256.507 49.295,255.660 49.450 C 255.006 49.569,254.341 49.292,254.180 48.833 C 254.020 48.375,254.214 48.000,254.611 48.000 C 255.008 48.000,255.333 47.665,255.333 47.256 C 255.333 46.832,254.741 46.666,253.962 46.870 C 252.826 47.167,252.728 47.063,253.390 46.265 C 253.830 45.735,253.981 45.092,253.725 44.837 C 253.470 44.581,253.015 44.770,252.714 45.257 C 252.291 45.941,252.052 45.957,251.665 45.330 C 251.385 44.877,251.569 44.256,252.081 43.925 C 252.854 43.428,252.844 43.233,252.018 42.702 C 251.395 42.302,250.889 42.307,250.635 42.718 C 250.413 43.077,249.681 42.752,248.988 41.987 C 247.905 40.790,247.890 40.666,248.871 41.043 C 249.643 41.339,250.000 41.138,250.000 40.405 C 250.000 39.367,249.274 39.049,247.462 39.292 C 246.963 39.359,246.678 38.895,246.795 38.205 C 246.935 37.381,246.579 36.994,245.667 36.981 C 244.677 36.967,244.376 36.569,244.500 35.436 C 244.634 34.211,244.418 33.989,243.404 34.311 C 242.490 34.601,242.167 34.403,242.237 33.594 C 242.290 32.980,241.911 32.329,241.394 32.147 C 240.722 31.912,240.584 32.156,240.909 33.003 C 241.280 33.969,241.189 34.043,240.417 33.403 C 239.897 32.971,239.625 32.029,239.813 31.309 C 240.002 30.585,239.823 30.000,239.411 30.000 C 239.002 30.000,238.667 30.487,238.667 31.082 C 238.667 32.000,238.505 32.029,237.594 31.273 C 236.922 30.716,236.797 30.290,237.260 30.135 C 238.769 29.633,237.937 28.623,236.167 28.808 C 234.718 28.960,234.333 28.722,234.332 27.676 C 234.331 26.946,233.808 26.250,233.168 26.127 C 232.290 25.958,232.117 26.196,232.463 27.096 C 232.868 28.154,232.801 28.178,231.877 27.315 C 231.303 26.779,230.978 25.964,231.155 25.504 C 231.331 25.043,231.169 24.667,230.794 24.667 C 230.418 24.667,229.960 25.042,229.775 25.500 C 229.590 25.958,229.415 25.690,229.386 24.905 C 229.357 24.119,228.859 23.294,228.279 23.071 C 226.783 22.497,226.667 22.543,226.667 23.706 C 226.667 24.278,226.362 24.557,225.989 24.327 C 225.616 24.096,225.505 23.595,225.741 23.213 C 226.201 22.469,224.872 21.360,223.500 21.344 C 222.324 21.329,222.461 22.505,223.680 22.883 C 224.392 23.104,224.343 23.167,223.513 23.095 C 222.864 23.038,222.040 22.325,221.681 21.509 C 220.862 19.647,219.449 19.074,218.211 20.101 C 217.459 20.725,217.301 20.696,217.462 19.962 C 217.580 19.425,217.032 18.935,216.167 18.803 C 215.342 18.677,214.667 18.895,214.667 19.287 C 214.667 19.679,213.992 19.976,213.167 19.947 C 212.342 19.918,212.042 19.743,212.500 19.558 C 213.661 19.090,213.544 18.000,212.333 18.000 C 211.783 18.000,211.333 18.300,211.333 18.667 C 211.333 19.033,211.043 19.333,210.688 19.333 C 210.332 19.333,210.215 18.883,210.426 18.333 C 210.669 17.700,210.416 17.333,209.738 17.333 C 209.149 17.333,208.667 17.633,208.667 18.000 C 208.667 18.367,208.076 18.667,207.354 18.667 C 206.425 18.667,206.161 18.355,206.452 17.599 C 206.755 16.808,206.534 16.602,205.597 16.805 C 204.902 16.956,204.384 17.361,204.446 17.706 C 204.592 18.513,193.887 18.118,193.033 17.285 C 192.061 16.336,191.146 16.551,191.561 17.631 M187.333 18.000 C 187.333 18.367,187.783 18.667,188.333 18.667 C 188.883 18.667,189.333 18.367,189.333 18.000 C 189.333 17.633,188.883 17.333,188.333 17.333 C 187.783 17.333,187.333 17.633,187.333 18.000 M144.754 43.561 C 144.346 44.053,144.206 44.651,144.444 44.889 C 144.945 45.389,146.667 44.121,146.667 43.252 C 146.667 42.374,145.596 42.547,144.754 43.561 M134.278 76.611 C 134.027 78.499,133.682 79.904,133.509 79.732 C 133.337 79.560,133.408 77.880,133.667 76.000 C 133.925 74.120,134.271 72.715,134.435 72.879 C 134.599 73.043,134.528 74.723,134.278 76.611 M127.319 80.500 C 127.286 81.606,124.836 84.147,124.433 83.494 C 124.199 83.116,124.456 82.634,125.004 82.424 C 125.552 82.214,126.000 81.582,126.000 81.021 C 126.000 80.459,126.300 80.000,126.667 80.000 C 127.033 80.000,127.327 80.225,127.319 80.500 M120.464 88.038 C 120.235 88.910,120.389 89.315,120.886 89.149 C 121.845 88.830,122.345 86.667,121.460 86.667 C 121.109 86.667,120.661 87.284,120.464 88.038 M134.199 91.333 C 134.444 93.700,134.381 94.409,134.022 93.333 C 133.471 91.682,133.109 86.855,133.576 87.389 C 133.710 87.542,133.990 89.317,134.199 91.333 M113.533 99.928 C 112.591 101.436,113.179 102.292,114.439 101.246 C 115.397 100.451,115.665 98.667,114.827 98.667 C 114.549 98.667,113.966 99.234,113.533 99.928 M135.605 107.278 C 135.173 107.719,134.883 107.145,134.455 105.000 L 134.055 103.000 134.966 105.000 C 135.467 106.100,135.754 107.125,135.605 107.278 M139.329 115.974 C 139.327 116.172,138.729 115.433,138.000 114.333 C 137.271 113.233,136.673 111.895,136.671 111.359 C 136.669 110.823,137.267 111.562,138.000 113.000 C 138.733 114.438,139.331 115.777,139.329 115.974 M103.722 117.095 C 103.491 117.698,103.439 118.328,103.607 118.496 C 104.136 119.025,105.333 117.961,105.333 116.961 C 105.333 115.653,104.241 115.744,103.722 117.095 M142.892 121.501 C 143.421 123.448,142.226 122.180,140.697 119.170 L 139.255 116.333 140.915 118.333 C 141.828 119.433,142.718 120.859,142.892 121.501 M101.333 121.056 C 101.333 122.233,102.769 122.028,103.181 120.792 C 103.326 120.356,102.969 120.000,102.389 120.000 C 101.808 120.000,101.333 120.475,101.333 121.056 M100.000 123.667 C 100.000 124.217,100.300 124.667,100.667 124.667 C 101.033 124.667,101.333 124.217,101.333 123.667 C 101.333 123.117,101.033 122.667,100.667 122.667 C 100.300 122.667,100.000 123.117,100.000 123.667 M146.141 126.667 C 146.473 126.667,146.573 126.946,146.362 127.287 C 146.151 127.629,146.283 128.096,146.656 128.327 C 147.028 128.557,147.333 129.068,147.333 129.463 C 147.333 130.620,144.890 127.156,144.422 125.333 C 144.001 123.698,144.007 123.695,144.765 125.167 C 145.190 125.992,145.809 126.667,146.141 126.667 M150.023 134.045 C 151.863 137.651,151.165 137.355,149.095 133.651 C 148.168 131.992,147.697 130.813,148.048 131.029 C 148.399 131.246,149.288 132.603,150.023 134.045 M155.333 143.333 C 156.082 144.800,156.544 146.000,156.360 146.000 C 156.177 146.000,155.415 144.800,154.667 143.333 C 153.918 141.867,153.456 140.667,153.640 140.667 C 153.823 140.667,154.585 141.867,155.333 143.333 M160.912 152.691 C 161.460 153.790,161.627 154.515,161.283 154.302 C 160.939 154.090,160.185 153.001,159.607 151.884 C 159.029 150.767,158.862 150.042,159.236 150.273 C 159.610 150.504,160.364 151.592,160.912 152.691 M166.587 163.000 C 167.763 165.200,168.237 166.400,167.642 165.667 C 166.420 164.161,162.845 157.302,163.820 158.333 C 164.167 158.700,165.412 160.800,166.587 163.000 M171.308 171.000 C 171.313 171.713,170.390 170.508,169.266 168.333 C 168.809 167.448,169.035 167.560,169.940 168.667 C 170.690 169.583,171.306 170.633,171.308 171.000 M73.028 169.954 C 72.573 170.691,73.625 171.486,74.240 170.871 C 74.874 170.237,74.756 169.333,74.039 169.333 C 73.694 169.333,73.239 169.613,73.028 169.954 M174.656 176.907 C 174.646 177.703,173.763 176.595,172.607 174.333 C 172.071 173.285,172.218 173.337,173.296 174.574 C 174.050 175.439,174.662 176.489,174.656 176.907 M177.449 181.580 C 177.939 182.473,177.924 182.698,177.395 182.372 C 176.989 182.121,176.195 180.959,175.630 179.791 C 174.489 177.432,175.974 178.893,177.449 181.580 M180.000 186.255 C 180.000 186.622,179.560 186.339,179.021 185.627 C 178.483 184.916,178.042 184.033,178.042 183.667 C 178.042 183.300,178.483 183.582,179.021 184.294 C 179.560 185.006,180.000 185.888,180.000 186.255 M185.042 194.833 C 185.588 195.842,185.906 196.667,185.750 196.667 C 185.380 196.667,182.664 192.066,182.677 191.462 C 182.689 190.907,183.683 192.324,185.042 194.833 M189.333 202.164 C 189.333 202.539,188.733 202.084,188.000 201.151 C 187.267 200.219,186.677 199.204,186.689 198.895 C 186.720 198.102,189.333 201.333,189.333 202.164 M191.269 205.707 C 192.039 207.012,192.366 207.893,191.996 207.664 C 191.274 207.218,189.110 203.333,189.584 203.333 C 189.740 203.333,190.498 204.401,191.269 205.707 M47.000 215.333 C 46.773 215.700,46.773 216.300,47.000 216.667 C 47.227 217.033,47.044 217.333,46.595 217.333 C 46.145 217.333,46.002 217.558,46.277 217.832 C 46.771 218.327,48.667 216.244,48.667 215.206 C 48.667 214.445,47.494 214.535,47.000 215.333 M352.262 217.721 C 352.485 218.301,352.667 218.919,352.667 219.094 C 352.667 219.269,352.954 219.235,353.304 219.018 C 354.078 218.540,353.457 216.667,352.524 216.667 C 352.157 216.667,352.039 217.141,352.262 217.721 M185.722 241.762 C 185.164 243.217,185.905 243.893,186.693 242.647 C 187.481 241.401,187.498 240.667,186.738 240.667 C 186.411 240.667,185.953 241.160,185.722 241.762 M30.667 244.082 C 30.667 245.264,30.831 245.360,31.667 244.667 C 32.217 244.210,32.667 243.573,32.667 243.252 C 32.667 242.930,32.217 242.667,31.667 242.667 C 31.092 242.667,30.667 243.268,30.667 244.082 M181.722 248.429 C 181.491 249.031,181.439 249.661,181.607 249.829 C 182.136 250.359,183.333 249.295,183.333 248.294 C 183.333 246.986,182.241 247.078,181.722 248.429 M59.333 251.000 C 59.333 252.104,57.576 252.389,57.222 251.342 C 57.091 250.952,56.221 251.088,55.090 251.675 C 54.040 252.220,52.540 252.631,51.757 252.588 C 50.694 252.529,50.839 252.380,52.333 252.000 L 54.333 251.491 52.407 251.412 C 51.302 251.367,50.073 251.831,49.524 252.500 C 48.998 253.142,48.758 253.292,48.990 252.833 C 49.222 252.375,49.094 252.000,48.706 252.000 C 48.318 252.000,48.000 252.291,48.000 252.646 C 48.000 253.001,47.598 253.137,47.107 252.949 C 46.616 252.760,45.832 253.066,45.365 253.629 C 44.898 254.192,44.269 254.500,43.968 254.314 C 43.071 253.759,38.000 256.071,38.000 257.034 C 38.000 257.565,37.462 257.820,36.667 257.667 C 35.904 257.520,35.333 257.769,35.333 258.248 C 35.333 259.133,31.291 261.333,29.665 261.333 C 29.032 261.333,28.856 261.728,29.146 262.500 C 29.534 263.535,29.452 263.560,28.421 262.720 C 27.781 262.200,27.350 262.050,27.462 262.387 C 27.575 262.724,27.509 263.000,27.317 263.000 C 26.600 263.000,24.818 265.019,25.109 265.500 C 25.276 265.775,24.927 266.000,24.333 266.000 C 23.688 266.000,23.446 266.309,23.730 266.770 C 24.023 267.243,23.913 267.359,23.445 267.069 C 22.398 266.422,19.723 269.013,20.365 270.052 C 20.702 270.597,20.597 270.702,20.052 270.365 C 19.565 270.064,18.694 270.435,17.909 271.277 C 17.182 272.058,16.267 272.498,15.875 272.256 C 15.419 271.974,15.553 271.597,16.248 271.208 C 16.845 270.874,17.333 270.165,17.333 269.634 C 17.333 267.941,16.345 268.588,14.991 271.167 C 14.270 272.542,13.518 273.817,13.321 274.000 C 13.124 274.183,12.401 275.608,11.714 277.167 C 11.026 278.725,10.250 280.000,9.989 280.000 C 9.486 280.000,7.162 285.643,7.345 286.422 C 7.404 286.674,6.973 287.149,6.387 287.477 C 5.704 287.859,5.428 288.664,5.619 289.717 C 5.783 290.621,5.657 291.200,5.340 291.004 C 4.543 290.512,3.879 292.868,4.381 294.406 C 4.689 295.348,4.628 295.436,4.141 294.754 C 3.262 293.522,1.884 297.540,0.969 304.000 C 0.787 305.283,0.454 307.351,0.230 308.595 C -0.059 310.193,0.043 310.719,0.577 310.389 C 1.017 310.117,1.333 310.355,1.333 310.961 C 1.333 311.532,1.033 312.000,0.667 312.000 C 0.300 312.000,0.000 313.650,0.000 315.667 C 0.000 318.150,0.269 319.337,0.833 319.344 C 1.401 319.350,1.356 319.550,0.692 319.970 C -0.414 320.670,0.738 331.468,1.962 331.876 C 2.308 331.992,2.425 332.520,2.222 333.051 C 1.446 335.073,7.870 350.403,9.805 351.145 C 10.279 351.327,10.667 352.019,10.667 352.682 C 10.667 353.346,10.892 353.989,11.167 354.111 C 11.442 354.233,12.137 355.233,12.712 356.333 C 13.287 357.433,14.212 358.300,14.768 358.259 C 15.323 358.219,15.778 358.528,15.778 358.946 C 15.778 360.397,18.198 363.400,19.091 363.057 C 19.582 362.869,19.913 363.065,19.825 363.494 C 19.738 363.922,20.088 364.286,20.603 364.303 C 21.118 364.320,21.627 364.928,21.733 365.655 C 21.840 366.381,22.277 367.092,22.705 367.235 C 23.132 367.377,24.110 368.216,24.878 369.099 C 25.645 369.982,26.677 370.549,27.171 370.360 C 27.665 370.170,27.904 370.282,27.702 370.609 C 27.242 371.354,31.881 374.152,32.718 373.635 C 33.056 373.426,33.333 373.671,33.333 374.180 C 33.333 375.363,39.562 378.311,40.942 377.781 C 41.564 377.543,41.920 377.708,41.825 378.191 C 41.737 378.639,42.321 378.978,43.134 378.951 C 43.940 378.923,44.448 379.148,44.261 379.451 C 44.074 379.753,44.214 380.000,44.572 380.000 C 44.930 380.000,45.374 379.625,45.558 379.167 C 45.743 378.708,45.923 378.933,45.958 379.667 C 46.010 380.776,46.129 380.832,46.667 380.000 C 47.228 379.131,47.314 379.142,47.323 380.089 C 47.336 381.411,49.608 382.126,50.610 381.123 C 51.130 380.603,51.333 380.647,51.333 381.278 C 51.333 381.827,51.832 382.025,52.667 381.807 C 53.400 381.615,54.000 381.763,54.000 382.135 C 54.000 382.523,54.709 382.633,55.667 382.393 C 56.583 382.163,57.333 382.247,57.333 382.579 C 57.333 383.435,72.883 383.226,73.490 382.363 C 73.809 381.909,73.983 381.957,73.990 382.500 C 73.995 382.958,74.450 383.333,75.000 383.333 C 75.550 383.333,76.000 383.028,76.000 382.654 C 76.000 382.270,76.694 382.149,77.594 382.375 C 78.471 382.595,79.371 382.479,79.595 382.117 C 79.818 381.755,80.648 381.628,81.438 381.834 C 82.548 382.124,82.746 381.996,82.310 381.272 C 81.838 380.488,81.921 380.476,82.813 381.199 C 83.544 381.791,84.020 381.840,84.320 381.355 C 84.561 380.964,85.016 380.804,85.329 380.998 C 86.089 381.467,89.377 379.944,88.983 379.306 C 88.813 379.031,89.138 378.628,89.705 378.411 C 90.295 378.184,90.562 378.297,90.329 378.674 C 89.819 379.499,89.841 379.497,92.667 378.445 C 96.835 376.893,98.633 375.819,98.209 375.133 C 97.968 374.742,98.129 374.668,98.593 374.954 C 99.367 375.433,101.502 374.360,103.406 372.538 C 103.916 372.050,105.158 371.286,106.167 370.840 C 107.175 370.394,108.000 369.572,108.000 369.014 C 108.000 368.456,108.548 368.000,109.217 368.000 C 109.887 368.000,111.139 367.250,112.000 366.333 C 112.861 365.417,113.323 364.667,113.026 364.667 C 112.730 364.667,113.280 364.043,114.250 363.280 C 115.219 362.517,115.844 361.621,115.638 361.288 C 115.433 360.954,115.682 360.842,116.192 361.038 C 117.369 361.490,118.943 359.653,118.288 358.593 C 117.979 358.093,118.077 357.969,118.549 358.260 C 119.347 358.754,124.974 350.563,126.146 347.200 C 126.504 346.173,127.103 345.333,127.476 345.333 C 127.850 345.333,127.998 344.733,127.807 343.999 C 127.615 343.265,127.732 342.834,128.067 343.041 C 128.402 343.248,128.879 342.874,129.126 342.209 C 129.554 341.060,130.280 339.878,133.333 335.360 C 134.788 333.208,135.033 332.000,134.014 332.000 C 133.654 332.000,132.748 333.200,132.000 334.667 C 130.719 337.177,129.333 338.196,129.333 336.627 C 129.333 336.239,129.602 336.087,129.930 336.290 C 130.258 336.493,130.719 336.160,130.953 335.549 C 131.187 334.939,131.030 334.224,130.604 333.961 C 130.178 333.698,130.038 333.144,130.294 332.730 C 130.550 332.317,131.038 332.151,131.379 332.362 C 132.198 332.868,132.179 331.779,131.355 330.955 C 130.598 330.198,131.201 327.333,132.117 327.333 C 132.463 327.333,132.539 327.000,132.287 326.592 C 132.035 326.184,132.199 325.623,132.650 325.344 C 133.267 324.962,133.288 324.495,132.734 323.459 C 132.222 322.502,132.211 321.949,132.697 321.648 C 133.170 321.356,133.116 320.867,132.532 320.146 C 131.883 319.345,131.875 319.203,132.500 319.578 C 132.958 319.853,133.333 319.761,133.333 319.373 C 133.333 318.984,133.033 318.667,132.667 318.667 C 131.699 318.667,131.847 315.507,132.833 315.106 C 133.480 314.844,133.463 314.626,132.758 314.131 C 131.991 313.594,131.991 313.438,132.758 313.131 C 133.395 312.877,133.448 312.604,132.934 312.217 C 132.090 311.582,131.941 309.218,132.778 309.735 C 133.813 310.375,133.341 307.503,132.264 306.609 C 131.494 305.970,131.290 305.014,131.534 303.194 C 131.721 301.804,131.633 300.815,131.340 300.996 C 130.606 301.450,129.956 299.557,130.426 298.333 C 130.637 297.783,130.533 297.333,130.195 297.333 C 129.447 297.333,127.132 292.646,127.632 292.145 C 127.828 291.950,127.654 291.387,127.246 290.895 C 126.700 290.237,126.701 290.000,127.252 290.000 C 127.663 290.000,128.000 289.700,128.000 289.333 C 128.000 288.967,127.556 288.667,127.013 288.667 C 126.470 288.667,125.837 287.917,125.607 287.000 C 125.377 286.083,124.846 285.329,124.428 285.323 C 123.906 285.316,123.889 285.159,124.374 284.823 C 125.100 284.321,123.961 281.203,123.084 281.291 C 121.925 281.408,121.740 281.266,122.459 280.809 C 123.018 280.454,122.702 279.678,121.386 278.170 C 120.360 276.995,119.329 276.227,119.094 276.462 C 118.695 276.861,118.468 275.648,118.833 275.070 C 119.352 274.251,116.385 272.033,115.820 272.818 C 115.377 273.431,115.307 273.356,115.564 272.549 C 115.956 271.320,114.506 269.717,113.716 270.506 C 113.445 270.778,113.322 270.550,113.444 270.000 C 113.579 269.394,113.273 269.088,112.667 269.222 C 112.117 269.344,111.867 269.244,112.113 268.998 C 112.646 268.465,110.179 265.487,108.420 264.539 C 107.443 264.013,107.283 264.062,107.684 264.767 C 107.966 265.262,107.552 265.004,106.765 264.195 C 105.977 263.385,105.333 262.378,105.333 261.957 C 105.333 261.535,104.912 261.352,104.398 261.550 C 103.884 261.747,102.909 261.462,102.231 260.917 C 101.102 260.008,101.138 259.991,102.667 260.711 C 103.999 261.339,104.175 261.329,103.547 260.662 C 103.114 260.203,102.015 259.745,101.104 259.645 C 100.193 259.545,98.896 259.111,98.224 258.681 C 97.078 257.949,97.085 257.926,98.333 258.322 C 99.221 258.604,99.444 258.523,99.000 258.081 C 98.444 257.526,96.361 256.982,93.794 256.721 C 93.497 256.691,93.421 256.398,93.623 256.070 C 94.042 255.393,92.502 254.667,90.647 254.667 C 89.963 254.667,87.984 253.912,86.248 252.989 C 84.059 251.825,82.950 251.542,82.627 252.064 C 82.299 252.596,82.055 252.550,81.800 251.909 C 81.543 251.264,81.423 251.242,81.386 251.833 C 81.306 253.096,78.667 252.854,78.667 251.585 C 78.667 250.693,78.489 250.651,77.654 251.344 C 76.829 252.029,76.419 251.982,75.435 251.092 C 74.048 249.836,72.667 249.660,72.667 250.738 C 72.667 251.185,72.207 251.281,71.500 250.980 C 70.029 250.355,68.557 250.358,64.167 250.996 C 61.711 251.353,60.667 251.281,60.667 250.753 C 60.667 250.339,60.367 250.000,60.000 250.000 C 59.633 250.000,59.333 250.450,59.333 251.000 M25.722 252.429 C 25.491 253.031,25.439 253.661,25.607 253.829 C 26.136 254.359,27.333 253.295,27.333 252.294 C 27.333 250.986,26.241 251.078,25.722 252.429 M21.778 259.111 C 21.141 259.748,21.230 260.667,21.929 260.667 C 22.256 260.667,22.697 260.217,22.908 259.667 C 23.298 258.650,22.588 258.301,21.778 259.111 M19.667 262.667 C 19.440 263.033,19.497 263.338,19.794 263.344 C 20.091 263.349,19.892 263.633,19.353 263.974 C 18.813 264.315,18.591 264.814,18.860 265.082 C 19.331 265.554,21.269 263.514,21.312 262.500 C 21.343 261.768,20.147 261.889,19.667 262.667 M17.433 266.633 C 17.580 267.073,17.917 267.411,18.183 267.383 C 18.980 267.301,18.826 266.386,17.967 266.100 C 17.527 265.953,17.287 266.193,17.433 266.633 M381.333 268.212 C 381.333 269.457,382.421 270.271,382.947 269.420 C 383.151 269.089,382.872 268.447,382.326 267.994 C 381.519 267.324,381.333 267.365,381.333 268.212 M16.789 273.945 C 16.172 274.598,15.408 274.904,15.091 274.625 C 14.257 273.887,15.021 272.974,16.571 272.857 C 17.831 272.762,17.844 272.826,16.789 273.945 M161.921 283.127 C 161.878 283.424,161.878 283.892,161.921 284.167 C 161.964 284.442,161.700 284.667,161.333 284.667 C 160.967 284.667,160.667 284.967,160.667 285.333 C 160.667 286.425,161.621 286.093,162.493 284.698 C 163.005 283.878,163.064 283.246,162.653 282.992 C 162.294 282.770,161.964 282.831,161.921 283.127 M239.333 287.627 C 239.333 288.156,239.633 288.773,240.000 289.000 C 240.367 289.227,240.667 288.794,240.667 288.039 C 240.667 287.284,240.367 286.667,240.000 286.667 C 239.633 286.667,239.333 287.099,239.333 287.627 M145.440 311.698 C 144.326 314.145,144.482 314.416,146.000 312.667 C 147.405 311.047,147.709 310.000,146.774 310.000 C 146.466 310.000,145.866 310.764,145.440 311.698 M143.333 315.381 C 143.333 315.774,142.883 316.545,142.333 317.095 C 141.159 318.270,141.030 319.333,142.062 319.333 C 142.463 319.333,142.948 318.733,143.140 318.000 C 143.332 317.267,143.754 316.667,144.078 316.667 C 144.402 316.667,144.667 316.217,144.667 315.667 C 144.667 315.117,144.367 314.667,144.000 314.667 C 143.633 314.667,143.333 314.988,143.333 315.381 M266.819 335.458 C 266.965 335.894,267.440 336.369,267.875 336.514 C 268.363 336.676,268.512 336.372,268.262 335.722 C 267.797 334.511,266.419 334.258,266.819 335.458 " stroke="none" fill="#000000" fill-rule="evenodd"></path></g></svg>