<svg version="1.1" width="515" height="515" xmlns="http://www.w3.org/2000/svg"><g><path d="M167.000 34.500 C 167.000 35.875,167.394 37.000,167.875 37.000 C 168.356 37.000,169.032 38.410,169.377 40.134 C 169.722 41.858,170.839 43.996,171.859 44.884 C 172.879 45.773,174.064 47.625,174.492 49.000 C 174.920 50.375,175.557 51.725,175.908 52.000 C 177.299 53.089,180.000 58.017,180.000 59.465 C 180.000 60.309,180.450 61.000,181.000 61.000 C 181.550 61.000,182.000 61.675,182.000 62.500 C 182.000 63.325,182.441 64.000,182.981 64.000 C 183.520 64.000,184.244 65.125,184.589 66.500 C 184.934 67.875,185.618 69.000,186.108 69.000 C 186.599 69.000,187.000 69.675,187.000 70.500 C 187.000 71.325,187.441 72.000,187.981 72.000 C 188.520 72.000,189.244 73.125,189.589 74.500 C 189.934 75.875,190.618 77.000,191.108 77.000 C 191.599 77.000,192.000 77.900,192.000 79.000 C 192.000 80.100,192.401 81.000,192.892 81.000 C 193.382 81.000,194.066 82.125,194.411 83.500 C 194.756 84.875,195.480 86.000,196.019 86.000 C 196.559 86.000,197.000 86.675,197.000 87.500 C 197.000 88.325,197.401 89.000,197.892 89.000 C 198.382 89.000,199.087 90.211,199.459 91.691 C 199.830 93.171,200.943 95.084,201.933 95.942 C 202.922 96.800,204.053 98.964,204.445 100.751 C 204.838 102.538,205.552 104.000,206.033 104.000 C 206.513 104.000,207.691 105.688,208.651 107.750 C 209.611 109.813,210.696 111.725,211.063 112.000 C 211.430 112.275,212.046 113.513,212.433 114.750 C 212.819 115.987,213.554 117.000,214.067 117.000 C 214.580 117.000,215.000 117.675,215.000 118.500 C 215.000 119.325,215.450 120.000,216.000 120.000 C 216.550 120.000,217.000 120.914,217.000 122.031 C 217.000 123.149,217.675 124.322,218.500 124.638 C 219.325 124.955,220.000 126.066,220.000 127.107 C 220.000 128.148,220.401 129.000,220.892 129.000 C 221.382 129.000,222.087 130.211,222.459 131.691 C 222.830 133.171,224.003 135.135,225.065 136.056 C 226.127 136.978,227.276 139.128,227.617 140.836 C 227.959 142.545,229.037 144.194,230.014 144.505 C 231.062 144.837,232.057 146.490,232.440 148.534 C 232.798 150.440,233.520 152.000,234.045 152.000 C 234.570 152.000,235.000 152.675,235.000 153.500 C 235.000 154.325,235.441 155.000,235.981 155.000 C 236.520 155.000,237.244 156.125,237.589 157.500 C 237.934 158.875,238.618 160.000,239.108 160.000 C 239.599 160.000,240.000 160.852,240.000 161.893 C 240.000 162.934,240.675 164.045,241.500 164.362 C 242.325 164.678,243.000 165.851,243.000 166.969 C 243.000 168.086,243.450 169.000,244.000 169.000 C 244.550 169.000,245.000 169.675,245.000 170.500 C 245.000 171.325,245.401 172.000,245.892 172.000 C 246.382 172.000,247.066 173.125,247.411 174.500 C 247.756 175.875,248.480 177.000,249.019 177.000 C 249.559 177.000,250.000 177.675,250.000 178.500 C 250.000 179.325,250.394 180.000,250.875 180.000 C 251.356 180.000,252.026 181.380,252.363 183.066 C 252.704 184.770,253.426 185.855,253.988 185.507 C 254.545 185.163,255.000 185.807,255.000 186.941 C 255.000 188.073,255.401 189.000,255.892 189.000 C 256.382 189.000,257.087 190.211,257.459 191.691 C 257.830 193.171,258.974 195.110,260.000 196.000 C 261.026 196.890,262.173 198.840,262.547 200.333 C 262.922 201.825,264.177 203.711,265.337 204.523 C 266.802 205.550,266.996 206.009,265.973 206.030 C 264.847 206.054,264.913 206.301,266.250 207.080 C 267.212 207.641,268.000 208.977,268.000 210.050 C 268.000 211.122,268.450 212.000,269.000 212.000 C 269.550 212.000,270.000 212.675,270.000 213.500 C 270.000 214.325,270.441 215.000,270.981 215.000 C 271.520 215.000,272.244 216.125,272.589 217.500 C 272.934 218.875,273.618 220.000,274.108 220.000 C 274.599 220.000,275.000 220.675,275.000 221.500 C 275.000 222.325,275.401 223.000,275.892 223.000 C 276.382 223.000,277.066 224.125,277.411 225.500 C 277.756 226.875,278.480 228.000,279.019 228.000 C 279.559 228.000,280.000 228.900,280.000 230.000 C 280.000 231.100,280.401 232.000,280.892 232.000 C 281.382 232.000,282.066 233.125,282.411 234.500 C 282.756 235.875,283.480 237.000,284.019 237.000 C 284.559 237.000,285.000 237.675,285.000 238.500 C 285.000 239.325,285.430 240.000,285.955 240.000 C 286.480 240.000,287.202 241.560,287.560 243.466 C 287.943 245.510,288.938 247.163,289.986 247.495 C 290.963 247.806,292.041 249.455,292.383 251.164 C 292.724 252.872,293.873 255.022,294.935 255.944 C 295.997 256.865,297.170 258.829,297.541 260.309 C 297.913 261.789,298.618 263.000,299.108 263.000 C 299.599 263.000,300.000 263.852,300.000 264.893 C 300.000 265.934,300.675 267.045,301.500 267.362 C 302.325 267.678,303.000 268.851,303.000 269.969 C 303.000 271.086,303.450 272.000,304.000 272.000 C 304.550 272.000,305.000 272.675,305.000 273.500 C 305.000 274.325,305.420 275.000,305.933 275.000 C 306.446 275.000,307.181 276.012,307.567 277.250 C 307.954 278.488,308.570 279.725,308.937 280.000 C 309.304 280.275,310.389 282.188,311.349 284.250 C 312.309 286.313,313.466 288.000,313.922 288.000 C 314.377 288.000,315.032 289.410,315.377 291.134 C 315.722 292.858,316.873 295.022,317.935 295.944 C 318.997 296.865,320.170 298.829,320.541 300.309 C 320.913 301.789,321.618 303.000,322.108 303.000 C 322.599 303.000,323.000 303.482,323.000 304.071 C 323.000 308.046,321.919 308.000,415.929 308.000 C 504.065 308.000,506.000 307.959,506.000 306.081 C 506.000 304.026,502.993 297.719,501.750 297.167 C 501.337 296.983,501.000 296.019,501.000 295.024 C 501.000 294.028,500.325 292.955,499.500 292.638 C 498.675 292.322,498.000 291.149,498.000 290.031 C 498.000 288.914,497.550 288.000,497.000 288.000 C 496.450 288.000,496.000 287.325,496.000 286.500 C 496.000 285.675,495.599 285.000,495.108 285.000 C 494.618 285.000,493.934 283.875,493.589 282.500 C 493.244 281.125,492.520 280.000,491.981 280.000 C 491.441 280.000,491.000 279.325,491.000 278.500 C 491.000 277.675,490.550 277.000,490.000 277.000 C 489.450 277.000,489.000 276.086,489.000 274.969 C 489.000 273.851,488.325 272.678,487.500 272.362 C 486.675 272.045,486.000 270.934,486.000 269.893 C 486.000 268.852,485.599 268.000,485.108 268.000 C 484.618 268.000,483.913 266.789,483.541 265.309 C 483.170 263.829,481.997 261.865,480.935 260.944 C 479.873 260.022,478.724 257.872,478.383 256.164 C 478.041 254.455,476.963 252.806,475.986 252.495 C 474.938 252.163,473.943 250.510,473.560 248.466 C 473.202 246.560,472.480 245.000,471.955 245.000 C 471.430 245.000,471.000 244.325,471.000 243.500 C 471.000 242.675,470.559 242.000,470.019 242.000 C 469.480 242.000,468.756 240.875,468.411 239.500 C 468.066 238.125,467.382 237.000,466.892 237.000 C 466.401 237.000,466.000 236.148,466.000 235.107 C 466.000 234.066,465.325 232.955,464.500 232.638 C 463.675 232.322,463.000 231.149,463.000 230.031 C 463.000 228.914,462.550 228.000,462.000 228.000 C 461.450 228.000,461.000 227.325,461.000 226.500 C 461.000 225.675,460.599 225.000,460.108 225.000 C 459.618 225.000,458.934 223.875,458.589 222.500 C 458.244 221.125,457.520 220.000,456.981 220.000 C 456.441 220.000,456.000 219.325,456.000 218.500 C 456.000 217.675,455.606 217.000,455.125 217.000 C 454.644 217.000,453.966 215.578,453.618 213.840 C 453.270 212.102,452.682 210.985,452.310 211.357 C 451.675 211.992,448.108 205.535,448.034 203.617 C 448.015 203.132,447.164 202.007,446.143 201.117 C 445.122 200.228,443.932 198.375,443.500 197.000 C 443.068 195.625,441.879 193.773,440.859 192.884 C 439.839 191.996,438.722 189.858,438.377 188.134 C 438.032 186.410,437.356 185.000,436.875 185.000 C 436.394 185.000,436.000 184.325,436.000 183.500 C 436.000 182.675,435.559 182.000,435.019 182.000 C 434.480 182.000,433.756 180.875,433.411 179.500 C 433.066 178.125,432.382 177.000,431.892 177.000 C 431.401 177.000,431.000 176.325,431.000 175.500 C 431.000 174.675,430.599 174.000,430.108 174.000 C 429.618 174.000,428.934 172.875,428.589 171.500 C 428.244 170.125,427.520 169.000,426.981 169.000 C 426.441 169.000,426.000 168.100,426.000 167.000 C 426.000 165.900,425.599 165.000,425.108 165.000 C 424.618 165.000,423.934 163.875,423.589 162.500 C 423.244 161.125,422.520 160.000,421.981 160.000 C 421.441 160.000,421.000 159.325,421.000 158.500 C 421.000 157.675,420.570 157.000,420.045 157.000 C 419.520 157.000,418.798 155.440,418.440 153.534 C 418.054 151.477,417.063 149.837,416.000 149.500 C 414.937 149.163,413.946 147.523,413.560 145.466 C 413.202 143.560,412.552 142.000,412.116 142.000 C 411.679 142.000,410.462 140.205,409.411 138.011 C 408.360 135.818,407.163 134.018,406.750 134.011 C 406.337 134.005,406.000 133.086,406.000 131.969 C 406.000 130.851,405.325 129.678,404.500 129.362 C 403.675 129.045,403.000 127.934,403.000 126.893 C 403.000 125.852,402.602 125.000,402.117 125.000 C 401.631 125.000,400.969 124.212,400.646 123.250 C 399.981 121.272,397.839 117.758,396.829 116.990 C 396.460 116.709,395.846 115.236,395.465 113.717 C 395.084 112.197,393.926 110.361,392.893 109.638 C 391.860 108.914,390.733 106.913,390.388 105.190 C 390.042 103.459,388.968 101.807,387.986 101.495 C 386.938 101.163,385.943 99.510,385.560 97.466 C 385.202 95.560,384.480 94.000,383.955 94.000 C 383.430 94.000,383.000 93.325,383.000 92.500 C 383.000 91.675,382.559 91.000,382.019 91.000 C 381.480 91.000,380.756 89.875,380.411 88.500 C 380.066 87.125,379.382 86.000,378.892 86.000 C 378.401 86.000,378.000 85.100,378.000 84.000 C 378.000 82.900,377.559 82.000,377.019 82.000 C 376.480 82.000,375.756 80.875,375.411 79.500 C 375.066 78.125,374.382 77.000,373.892 77.000 C 373.401 77.000,373.000 76.325,373.000 75.500 C 373.000 74.675,372.599 74.000,372.108 74.000 C 371.618 74.000,370.934 72.875,370.589 71.500 C 370.244 70.125,369.520 69.000,368.981 69.000 C 368.441 69.000,368.000 68.325,368.000 67.500 C 368.000 66.675,367.606 66.000,367.125 66.000 C 366.644 66.000,365.968 64.590,365.623 62.866 C 365.278 61.142,364.161 59.004,363.141 58.116 C 362.121 57.227,360.932 55.375,360.500 54.000 C 360.068 52.625,358.879 50.773,357.859 49.884 C 356.839 48.996,355.722 46.858,355.377 45.134 C 355.032 43.410,354.356 42.000,353.875 42.000 C 353.394 42.000,353.000 41.325,353.000 40.500 C 353.000 39.675,352.580 39.000,352.067 39.000 C 351.554 39.000,350.820 38.008,350.435 36.797 C 348.843 31.779,353.144 32.000,257.071 32.000 L 167.000 32.000 167.000 34.500 M157.000 48.893 C 157.000 49.934,156.325 51.045,155.500 51.362 C 154.675 51.678,154.000 52.851,154.000 53.969 C 154.000 55.086,153.550 56.000,153.000 56.000 C 152.450 56.000,152.000 56.675,152.000 57.500 C 152.000 58.325,151.559 59.000,151.019 59.000 C 150.480 59.000,149.756 60.125,149.411 61.500 C 149.066 62.875,148.382 64.000,147.892 64.000 C 147.401 64.000,147.000 64.675,147.000 65.500 C 147.000 66.325,146.550 67.000,146.000 67.000 C 145.450 67.000,145.000 67.914,145.000 69.031 C 145.000 70.149,144.325 71.322,143.500 71.638 C 142.675 71.955,142.000 73.066,142.000 74.107 C 142.000 75.148,141.599 76.000,141.108 76.000 C 140.618 76.000,139.934 77.125,139.589 78.500 C 139.244 79.875,138.520 81.000,137.981 81.000 C 137.441 81.000,137.000 81.675,137.000 82.500 C 137.000 83.325,136.570 84.000,136.045 84.000 C 135.520 84.000,134.798 85.560,134.440 87.466 C 134.057 89.510,133.062 91.163,132.014 91.495 C 131.037 91.806,129.959 93.455,129.617 95.164 C 129.276 96.872,128.161 98.996,127.141 99.884 C 126.121 100.773,124.936 102.625,124.508 104.000 C 124.080 105.375,123.454 106.725,123.115 107.000 C 122.127 107.803,119.992 111.351,119.354 113.250 C 119.031 114.213,118.369 115.000,117.883 115.000 C 117.398 115.000,117.000 115.852,117.000 116.893 C 117.000 117.934,116.325 119.045,115.500 119.362 C 114.675 119.678,114.000 120.851,114.000 121.969 C 114.000 123.086,113.550 124.000,113.000 124.000 C 112.450 124.000,112.000 124.675,112.000 125.500 C 112.000 126.325,111.550 127.000,111.000 127.000 C 110.450 127.000,110.000 127.643,110.000 128.429 C 110.000 129.214,109.420 130.452,108.712 131.179 C 108.004 131.905,106.633 134.188,105.665 136.250 C 104.698 138.313,103.527 140.000,103.064 140.000 C 102.601 140.000,101.927 141.575,101.566 143.500 C 101.205 145.425,100.480 147.000,99.955 147.000 C 99.430 147.000,99.000 147.675,99.000 148.500 C 99.000 149.325,98.559 150.000,98.019 150.000 C 97.480 150.000,96.756 151.125,96.411 152.500 C 96.066 153.875,95.382 155.000,94.892 155.000 C 94.401 155.000,94.000 155.852,94.000 156.893 C 94.000 157.934,93.325 159.045,92.500 159.362 C 91.675 159.678,91.000 160.851,91.000 161.969 C 91.000 163.086,90.550 164.000,90.000 164.000 C 89.450 164.000,89.000 164.675,89.000 165.500 C 89.000 166.325,88.599 167.000,88.108 167.000 C 87.618 167.000,86.934 168.125,86.589 169.500 C 86.244 170.875,85.520 172.000,84.981 172.000 C 84.441 172.000,84.000 172.675,84.000 173.500 C 84.000 174.325,83.550 175.000,83.000 175.000 C 82.450 175.000,82.000 175.914,82.000 177.031 C 82.000 178.149,81.325 179.322,80.500 179.638 C 79.675 179.955,79.000 181.066,79.000 182.107 C 79.000 183.148,78.599 184.000,78.108 184.000 C 77.618 184.000,76.913 185.211,76.541 186.691 C 76.170 188.171,74.997 190.135,73.935 191.056 C 72.873 191.978,71.724 194.128,71.383 195.836 C 71.041 197.545,69.963 199.194,68.986 199.505 C 67.938 199.837,66.943 201.490,66.560 203.534 C 66.202 205.440,65.480 207.000,64.955 207.000 C 64.430 207.000,64.000 207.675,64.000 208.500 C 64.000 209.325,63.559 210.000,63.019 210.000 C 62.480 210.000,61.756 211.125,61.411 212.500 C 61.066 213.875,60.382 215.000,59.892 215.000 C 59.401 215.000,59.000 215.675,59.000 216.500 C 59.000 217.325,58.559 218.000,58.019 218.000 C 57.480 218.000,56.756 219.125,56.411 220.500 C 56.066 221.875,55.382 223.000,54.892 223.000 C 54.401 223.000,54.000 223.900,54.000 225.000 C 54.000 226.100,53.599 227.000,53.108 227.000 C 52.618 227.000,51.934 228.125,51.589 229.500 C 51.244 230.875,50.520 232.000,49.981 232.000 C 49.441 232.000,49.000 232.675,49.000 233.500 C 49.000 234.325,48.599 235.000,48.108 235.000 C 47.618 235.000,46.934 236.125,46.589 237.500 C 46.244 238.875,45.520 240.000,44.981 240.000 C 44.441 240.000,44.000 240.675,44.000 241.500 C 44.000 242.325,43.606 243.000,43.125 243.000 C 42.644 243.000,41.968 244.410,41.623 246.134 C 41.278 247.858,40.161 249.996,39.141 250.884 C 38.121 251.773,36.932 253.625,36.500 255.000 C 36.068 256.375,34.879 258.227,33.859 259.116 C 32.839 260.004,31.722 262.142,31.377 263.866 C 31.032 265.590,30.356 267.000,29.875 267.000 C 29.394 267.000,29.000 267.675,29.000 268.500 C 29.000 269.325,28.559 270.000,28.019 270.000 C 27.480 270.000,26.756 271.125,26.411 272.500 C 26.066 273.875,25.382 275.000,24.892 275.000 C 24.401 275.000,24.000 275.675,24.000 276.500 C 24.000 277.325,23.559 278.000,23.019 278.000 C 22.480 278.000,21.756 279.125,21.411 280.500 C 21.066 281.875,20.382 283.000,19.892 283.000 C 19.401 283.000,19.000 283.900,19.000 285.000 C 19.000 286.100,18.599 287.000,18.108 287.000 C 17.618 287.000,16.934 288.125,16.589 289.500 C 16.244 290.875,15.520 292.000,14.981 292.000 C 14.441 292.000,14.000 292.675,14.000 293.500 C 14.000 294.325,13.599 295.000,13.108 295.000 C 12.618 295.000,11.934 296.125,11.589 297.500 C 11.244 298.875,10.520 300.000,9.981 300.000 C 9.441 300.000,9.000 300.675,9.000 301.500 C 9.000 302.325,8.606 303.000,8.125 303.000 C 7.644 303.000,6.973 304.387,6.633 306.083 C 6.294 307.778,5.164 309.916,4.121 310.833 C 0.418 314.089,-1.432 324.513,1.494 325.636 C 2.316 325.952,2.751 326.594,2.460 327.064 C 1.963 327.868,3.769 331.906,5.115 333.000 C 5.454 333.275,6.046 334.512,6.433 335.750 C 6.819 336.988,7.554 338.000,8.067 338.000 C 8.580 338.000,9.000 338.675,9.000 339.500 C 9.000 340.325,9.450 341.000,10.000 341.000 C 10.550 341.000,11.000 341.914,11.000 343.031 C 11.000 344.149,11.675 345.322,12.500 345.638 C 13.325 345.955,14.000 347.066,14.000 348.107 C 14.000 349.148,14.401 350.000,14.892 350.000 C 15.382 350.000,16.066 351.125,16.411 352.500 C 16.756 353.875,17.480 355.000,18.019 355.000 C 18.559 355.000,19.000 355.675,19.000 356.500 C 19.000 357.325,19.401 358.000,19.892 358.000 C 20.382 358.000,21.087 359.211,21.459 360.691 C 21.830 362.171,22.932 364.083,23.907 364.941 C 24.882 365.798,26.007 367.823,26.407 369.441 C 26.807 371.058,27.939 373.083,28.924 373.941 C 29.908 374.798,31.068 376.625,31.500 378.000 C 31.932 379.375,33.121 381.227,34.141 382.116 C 35.161 383.004,36.276 385.128,36.617 386.836 C 36.959 388.545,38.037 390.194,39.014 390.505 C 40.062 390.837,41.057 392.490,41.440 394.534 C 41.798 396.440,42.520 398.000,43.045 398.000 C 43.570 398.000,44.000 398.675,44.000 399.500 C 44.000 400.325,44.441 401.000,44.981 401.000 C 45.520 401.000,46.244 402.125,46.589 403.500 C 46.934 404.875,47.618 406.000,48.108 406.000 C 48.599 406.000,49.000 406.675,49.000 407.500 C 49.000 408.325,49.441 409.000,49.981 409.000 C 50.520 409.000,51.244 410.125,51.589 411.500 C 51.934 412.875,52.618 414.000,53.108 414.000 C 53.599 414.000,54.000 414.852,54.000 415.893 C 54.000 416.934,54.675 418.045,55.500 418.362 C 56.325 418.678,57.000 419.851,57.000 420.969 C 57.000 422.086,57.450 423.000,58.000 423.000 C 58.550 423.000,59.000 423.675,59.000 424.500 C 59.000 425.325,59.441 426.000,59.981 426.000 C 60.520 426.000,61.244 427.125,61.589 428.500 C 61.934 429.875,62.618 431.000,63.108 431.000 C 63.599 431.000,64.000 431.675,64.000 432.500 C 64.000 433.325,64.450 434.000,65.000 434.000 C 65.550 434.000,66.000 434.914,66.000 436.031 C 66.000 437.149,66.675 438.322,67.500 438.638 C 68.325 438.955,69.000 440.066,69.000 441.107 C 69.000 442.148,69.401 443.000,69.892 443.000 C 70.382 443.000,71.066 444.125,71.411 445.500 C 71.756 446.875,72.480 448.000,73.019 448.000 C 73.559 448.000,74.000 448.675,74.000 449.500 C 74.000 450.325,74.401 451.000,74.892 451.000 C 75.382 451.000,76.066 452.125,76.411 453.500 C 76.756 454.875,77.480 456.000,78.019 456.000 C 78.559 456.000,79.000 456.675,79.000 457.500 C 79.000 458.325,79.450 459.000,80.000 459.000 C 80.550 459.000,81.000 459.914,81.000 461.031 C 81.000 462.149,81.675 463.322,82.500 463.638 C 83.325 463.955,84.000 465.066,84.000 466.107 C 84.000 467.148,84.414 468.000,84.921 468.000 C 85.427 468.000,86.138 469.350,86.500 471.000 C 87.413 475.157,94.000 475.063,94.000 470.893 C 94.000 469.852,94.450 469.000,95.000 469.000 C 95.550 469.000,96.000 468.357,96.000 467.571 C 96.000 466.786,96.562 465.540,97.250 464.803 C 99.201 462.712,102.000 457.349,102.000 455.703 C 102.000 454.884,102.675 453.955,103.500 453.638 C 104.325 453.322,105.000 452.149,105.000 451.031 C 105.000 449.914,105.450 449.000,106.000 449.000 C 106.550 449.000,107.000 448.325,107.000 447.500 C 107.000 446.675,107.441 446.000,107.981 446.000 C 108.520 446.000,109.244 444.875,109.589 443.500 C 109.934 442.125,110.618 441.000,111.108 441.000 C 111.599 441.000,112.000 440.325,112.000 439.500 C 112.000 438.675,112.401 438.000,112.892 438.000 C 113.382 438.000,114.066 436.875,114.411 435.500 C 114.756 434.125,115.480 433.000,116.019 433.000 C 116.559 433.000,117.000 432.100,117.000 431.000 C 117.000 429.900,117.401 429.000,117.892 429.000 C 118.382 429.000,119.066 427.875,119.411 426.500 C 119.756 425.125,120.480 424.000,121.019 424.000 C 121.559 424.000,122.000 423.325,122.000 422.500 C 122.000 421.675,122.401 421.000,122.892 421.000 C 123.382 421.000,124.066 419.875,124.411 418.500 C 124.756 417.125,125.480 416.000,126.019 416.000 C 126.559 416.000,127.000 415.325,127.000 414.500 C 127.000 413.675,127.430 413.000,127.955 413.000 C 128.480 413.000,129.202 411.440,129.560 409.534 C 129.943 407.490,130.938 405.837,131.986 405.505 C 132.963 405.194,134.041 403.545,134.383 401.836 C 134.724 400.128,135.873 397.978,136.935 397.056 C 137.997 396.135,139.170 394.171,139.541 392.691 C 139.913 391.211,140.618 390.000,141.108 390.000 C 141.599 390.000,142.000 389.380,142.000 388.622 C 142.000 387.865,142.675 386.685,143.500 386.000 C 144.325 385.315,145.000 383.910,145.000 382.878 C 145.000 381.845,145.450 381.000,146.000 381.000 C 146.550 381.000,147.000 380.325,147.000 379.500 C 147.000 378.675,147.441 378.000,147.981 378.000 C 148.520 378.000,149.244 376.875,149.589 375.500 C 149.934 374.125,150.618 373.000,151.108 373.000 C 151.599 373.000,152.000 372.325,152.000 371.500 C 152.000 370.675,152.441 370.000,152.981 370.000 C 153.520 370.000,154.244 368.875,154.589 367.500 C 154.934 366.125,155.618 365.000,156.108 365.000 C 156.599 365.000,157.000 364.100,157.000 363.000 C 157.000 361.900,157.401 361.000,157.892 361.000 C 158.382 361.000,159.066 359.875,159.411 358.500 C 159.756 357.125,160.480 356.000,161.019 356.000 C 161.559 356.000,162.000 355.325,162.000 354.500 C 162.000 353.675,162.401 353.000,162.892 353.000 C 163.382 353.000,164.066 351.875,164.411 350.500 C 164.756 349.125,165.480 348.000,166.019 348.000 C 166.559 348.000,167.000 347.325,167.000 346.500 C 167.000 345.675,167.394 345.000,167.875 345.000 C 168.356 345.000,169.026 343.620,169.363 341.934 C 169.761 339.944,170.386 339.120,171.143 339.588 C 171.838 340.018,172.041 339.876,171.645 339.235 C 171.280 338.644,171.601 337.541,172.359 336.784 C 173.116 336.026,174.085 334.303,174.511 332.953 C 174.937 331.604,176.121 329.773,177.141 328.884 C 178.161 327.996,179.276 325.872,179.617 324.164 C 179.959 322.455,181.037 320.806,182.014 320.495 C 183.062 320.163,184.057 318.510,184.440 316.466 C 184.798 314.560,185.520 313.000,186.045 313.000 C 186.570 313.000,187.000 312.325,187.000 311.500 C 187.000 310.675,187.420 310.000,187.933 310.000 C 188.446 310.000,189.181 308.987,189.567 307.750 C 189.954 306.512,190.546 305.275,190.885 305.000 C 191.873 304.197,194.008 300.649,194.646 298.750 C 194.969 297.788,195.631 297.000,196.117 297.000 C 196.602 297.000,197.000 296.100,197.000 295.000 C 197.000 293.900,197.441 293.000,197.981 293.000 C 198.520 293.000,199.244 291.875,199.589 290.500 C 199.934 289.125,200.506 287.995,200.858 287.989 C 201.211 287.982,202.360 286.182,203.411 283.989 C 204.462 281.795,205.679 280.000,206.116 280.000 C 206.552 280.000,207.202 278.440,207.560 276.534 C 207.946 274.477,208.937 272.837,210.000 272.500 C 211.063 272.163,212.054 270.523,212.440 268.466 C 212.798 266.560,213.520 265.000,214.045 265.000 C 214.570 265.000,215.000 264.325,215.000 263.500 C 215.000 262.675,215.441 262.000,215.981 262.000 C 216.520 262.000,217.244 260.875,217.589 259.500 C 217.934 258.125,218.618 257.000,219.108 257.000 C 219.599 257.000,220.000 256.148,220.000 255.107 C 220.000 254.066,220.675 252.955,221.500 252.638 C 222.325 252.322,223.000 251.149,223.000 250.031 C 223.000 248.914,223.450 248.000,224.000 248.000 C 224.550 248.000,225.000 247.325,225.000 246.500 C 225.000 245.675,225.441 245.000,225.981 245.000 C 226.520 245.000,227.244 243.875,227.589 242.500 C 227.934 241.125,228.618 240.000,229.108 240.000 C 229.599 240.000,230.000 239.325,230.000 238.500 C 230.000 237.675,230.450 237.000,231.000 237.000 C 231.550 237.000,232.000 236.086,232.000 234.969 C 232.000 233.851,232.675 232.678,233.500 232.362 C 234.325 232.045,235.000 230.934,235.000 229.893 C 235.000 228.852,235.401 228.000,235.892 228.000 C 236.382 228.000,237.066 226.875,237.411 225.500 C 237.756 224.125,238.480 223.000,239.019 223.000 C 239.559 223.000,240.000 222.325,240.000 221.500 C 240.000 220.675,240.430 220.000,240.955 220.000 C 241.480 220.000,242.202 218.440,242.560 216.534 C 242.946 214.477,243.937 212.837,245.000 212.500 C 246.063 212.163,247.054 210.523,247.440 208.466 C 247.798 206.560,248.520 205.000,249.045 205.000 C 249.570 205.000,250.000 203.650,250.000 202.000 C 250.000 200.350,249.600 199.000,249.111 199.000 C 248.623 199.000,247.927 197.425,247.566 195.500 C 247.205 193.575,246.480 192.000,245.955 192.000 C 245.430 192.000,245.000 191.325,245.000 190.500 C 245.000 189.675,244.559 189.000,244.019 189.000 C 243.480 189.000,242.756 187.875,242.411 186.500 C 242.066 185.125,241.382 184.000,240.892 184.000 C 240.401 184.000,240.000 183.148,240.000 182.107 C 240.000 181.066,239.325 179.955,238.500 179.638 C 237.675 179.322,237.000 178.149,237.000 177.031 C 237.000 175.914,236.550 175.000,236.000 175.000 C 235.450 175.000,235.000 174.325,235.000 173.500 C 235.000 172.675,234.599 172.000,234.108 172.000 C 233.618 172.000,232.934 170.875,232.589 169.500 C 232.244 168.125,231.520 167.000,230.981 167.000 C 230.441 167.000,230.000 166.325,230.000 165.500 C 230.000 164.675,229.550 164.000,229.000 164.000 C 228.450 164.000,228.000 163.086,228.000 161.969 C 228.000 160.851,227.325 159.678,226.500 159.362 C 225.675 159.045,225.000 157.934,225.000 156.893 C 225.000 155.852,224.599 155.000,224.108 155.000 C 223.618 155.000,222.913 153.789,222.541 152.309 C 222.170 150.829,220.997 148.865,219.935 147.944 C 218.873 147.022,217.724 144.872,217.383 143.164 C 217.041 141.455,215.963 139.806,214.986 139.495 C 213.938 139.163,212.943 137.510,212.560 135.466 C 212.202 133.560,211.480 132.000,210.955 132.000 C 210.430 132.000,210.000 131.325,210.000 130.500 C 210.000 129.675,209.559 129.000,209.019 129.000 C 208.480 129.000,207.756 127.875,207.411 126.500 C 207.066 125.125,206.382 124.000,205.892 124.000 C 205.401 124.000,205.000 123.148,205.000 122.107 C 205.000 121.066,204.325 119.955,203.500 119.638 C 202.675 119.322,202.000 118.149,202.000 117.031 C 202.000 115.914,201.599 115.000,201.108 115.000 C 200.618 115.000,199.913 113.789,199.541 112.309 C 199.170 110.829,198.061 108.917,197.076 108.059 C 196.092 107.202,194.932 105.375,194.500 104.000 C 194.068 102.625,192.879 100.773,191.859 99.884 C 190.839 98.996,189.722 96.858,189.377 95.134 C 189.032 93.410,188.356 92.000,187.875 92.000 C 187.394 92.000,187.000 91.325,187.000 90.500 C 187.000 89.675,186.559 89.000,186.019 89.000 C 185.480 89.000,184.756 87.875,184.411 86.500 C 184.066 85.125,183.382 84.000,182.892 84.000 C 182.401 84.000,182.000 83.325,182.000 82.500 C 182.000 81.675,181.559 81.000,181.019 81.000 C 180.480 81.000,179.756 79.875,179.411 78.500 C 179.066 77.125,178.382 76.000,177.892 76.000 C 177.401 76.000,177.000 75.100,177.000 74.000 C 177.000 72.900,176.599 72.000,176.108 72.000 C 175.618 72.000,174.934 70.875,174.589 69.500 C 174.244 68.125,173.520 67.000,172.981 67.000 C 172.441 67.000,172.000 66.325,172.000 65.500 C 172.000 64.675,171.599 64.000,171.108 64.000 C 170.618 64.000,169.934 62.875,169.589 61.500 C 169.244 60.125,168.520 59.000,167.981 59.000 C 167.441 59.000,167.000 58.325,167.000 57.500 C 167.000 56.675,166.606 56.000,166.125 56.000 C 165.644 56.000,164.975 54.624,164.638 52.942 C 163.577 47.633,157.000 44.146,157.000 48.893 M194.667 320.667 C 194.300 321.033,194.000 322.158,194.000 323.167 C 194.000 324.175,193.550 325.000,193.000 325.000 C 192.450 325.000,192.000 325.675,192.000 326.500 C 192.000 327.325,191.559 328.000,191.019 328.000 C 190.480 328.000,189.756 329.125,189.411 330.500 C 189.066 331.875,188.382 333.000,187.892 333.000 C 187.401 333.000,187.000 333.675,187.000 334.500 C 187.000 335.325,186.550 336.000,186.000 336.000 C 185.450 336.000,185.000 336.914,185.000 338.031 C 185.000 339.149,184.325 340.322,183.500 340.638 C 182.675 340.955,182.000 342.066,182.000 343.107 C 182.000 344.148,181.599 345.000,181.108 345.000 C 180.618 345.000,179.913 346.211,179.541 347.691 C 179.170 349.171,177.997 351.135,176.935 352.056 C 175.873 352.978,174.722 355.142,174.377 356.866 C 174.032 358.590,173.356 360.000,172.875 360.000 C 172.394 360.000,172.000 360.675,172.000 361.500 C 172.000 362.325,171.559 363.000,171.019 363.000 C 170.480 363.000,169.756 364.125,169.411 365.500 C 169.066 366.875,168.382 368.000,167.892 368.000 C 167.401 368.000,167.000 368.675,167.000 369.500 C 167.000 370.325,166.550 371.000,166.000 371.000 C 165.450 371.000,165.000 371.914,165.000 373.031 C 165.000 374.149,164.325 375.322,163.500 375.638 C 162.675 375.955,162.000 377.066,162.000 378.107 C 162.000 379.148,161.599 380.000,161.108 380.000 C 160.618 380.000,159.960 381.021,159.647 382.270 C 159.334 383.518,158.178 385.505,157.079 386.685 C 155.980 387.864,154.773 390.058,154.396 391.560 C 154.019 393.061,152.887 395.113,151.881 396.119 C 150.874 397.126,149.766 399.086,149.417 400.475 C 149.068 401.864,148.382 403.000,147.892 403.000 C 147.401 403.000,147.000 403.675,147.000 404.500 C 147.000 405.325,146.580 406.000,146.067 406.000 C 145.554 406.000,144.819 407.012,144.433 408.250 C 144.046 409.488,143.430 410.725,143.063 411.000 C 142.696 411.275,141.619 413.075,140.670 415.000 C 138.621 419.156,136.735 422.309,135.885 423.000 C 135.546 423.275,134.920 424.625,134.492 426.000 C 134.064 427.375,132.879 429.227,131.859 430.116 C 130.839 431.004,129.722 433.142,129.377 434.866 C 129.032 436.590,128.356 438.000,127.875 438.000 C 127.394 438.000,127.000 438.675,127.000 439.500 C 127.000 440.325,126.559 441.000,126.019 441.000 C 125.480 441.000,124.756 442.125,124.411 443.500 C 124.066 444.875,123.382 446.000,122.892 446.000 C 122.401 446.000,122.000 446.675,122.000 447.500 C 122.000 448.325,121.550 449.000,121.000 449.000 C 120.450 449.000,120.000 449.914,120.000 451.031 C 120.000 452.149,119.325 453.322,118.500 453.638 C 117.675 453.955,117.000 455.066,117.000 456.107 C 117.000 457.148,116.599 458.000,116.108 458.000 C 115.618 458.000,114.913 459.211,114.541 460.691 C 114.170 462.171,112.975 464.155,111.885 465.100 C 110.795 466.045,109.642 468.434,109.321 470.409 L 108.738 474.000 267.119 473.985 C 354.229 473.976,425.993 473.639,426.596 473.235 C 427.199 472.831,428.016 471.177,428.413 469.559 C 428.809 467.942,429.939 465.917,430.924 465.059 C 431.908 464.202,433.068 462.375,433.500 461.000 C 433.932 459.625,435.121 457.773,436.141 456.884 C 437.161 455.996,438.276 453.872,438.617 452.164 C 438.959 450.456,440.031 448.808,441.000 448.500 C 441.969 448.192,443.041 446.544,443.383 444.836 C 443.724 443.128,444.839 441.004,445.859 440.116 C 446.879 439.227,448.058 437.410,448.479 436.077 C 448.900 434.744,450.107 432.728,451.161 431.597 C 452.215 430.465,453.350 428.453,453.683 427.125 C 454.017 425.797,455.113 423.887,456.119 422.881 C 457.126 421.874,458.234 419.914,458.583 418.525 C 458.932 417.136,459.618 416.000,460.108 416.000 C 460.599 416.000,461.000 415.325,461.000 414.500 C 461.000 413.675,461.420 413.000,461.933 413.000 C 462.446 413.000,463.181 411.988,463.567 410.750 C 463.954 409.512,464.546 408.275,464.885 408.000 C 465.873 407.197,468.008 403.649,468.646 401.750 C 468.969 400.788,469.631 400.000,470.117 400.000 C 470.602 400.000,471.000 399.148,471.000 398.107 C 471.000 397.066,471.675 395.955,472.500 395.638 C 473.325 395.322,474.000 394.149,474.000 393.031 C 474.000 391.914,474.450 391.000,475.000 391.000 C 475.550 391.000,476.000 390.325,476.000 389.500 C 476.000 388.675,476.441 388.000,476.981 388.000 C 477.520 388.000,478.244 386.875,478.589 385.500 C 478.934 384.125,479.618 383.000,480.108 383.000 C 480.599 383.000,481.000 382.325,481.000 381.500 C 481.000 380.675,481.441 380.000,481.981 380.000 C 482.520 380.000,483.244 378.875,483.589 377.500 C 483.934 376.125,484.618 375.000,485.108 375.000 C 485.599 375.000,486.000 374.148,486.000 373.107 C 486.000 372.066,486.675 370.955,487.500 370.638 C 488.325 370.322,489.000 369.149,489.000 368.031 C 489.000 366.914,489.450 366.000,490.000 366.000 C 490.550 366.000,491.000 365.325,491.000 364.500 C 491.000 363.675,491.441 363.000,491.981 363.000 C 492.520 363.000,493.244 361.875,493.589 360.500 C 493.934 359.125,494.618 358.000,495.108 358.000 C 495.599 358.000,496.000 357.325,496.000 356.500 C 496.000 355.675,496.441 355.000,496.981 355.000 C 497.520 355.000,498.244 353.875,498.589 352.500 C 498.934 351.125,499.618 350.000,500.108 350.000 C 500.599 350.000,501.000 349.100,501.000 348.000 C 501.000 346.900,501.441 346.000,501.981 346.000 C 502.520 346.000,503.244 344.875,503.589 343.500 C 503.934 342.125,504.618 341.000,505.108 341.000 C 505.599 341.000,506.000 340.325,506.000 339.500 C 506.000 338.675,506.420 338.000,506.933 338.000 C 507.446 338.000,508.181 336.988,508.567 335.750 C 508.954 334.512,509.546 333.275,509.885 333.000 C 511.231 331.906,513.037 327.868,512.540 327.064 C 512.249 326.594,512.684 325.952,513.506 325.636 C 514.328 325.321,515.000 323.924,515.000 322.531 L 515.000 320.000 355.167 320.000 C 267.258 320.000,195.033 320.300,194.667 320.667 " stroke="none" fill-rule="evenodd"></path></g></svg>