<svg xmlns="http://www.w3.org/2000/svg" width="400" height="400" viewBox="0, 0, 400,400" version="1.1"><g><path d="M39.444 1.341 C 24.823 6.452,24.498 7.852,24.469 65.833 L 24.444 114.444 53.314 114.444 L 82.183 114.444 82.481 86.944 L 82.778 59.444 196.944 59.161 L 311.111 58.878 311.111 29.439 L 311.111 0.000 176.944 0.088 C 86.431 0.147,41.693 0.555,39.444 1.341 M317.778 118.889 L 317.778 237.778 346.667 237.778 L 375.556 237.778 375.556 127.742 C 375.556 9.961,375.714 13.555,370.235 7.383 C 364.981 1.465,358.577 0.022,337.500 0.011 L 317.778 0.000 317.778 118.889 M247.442 88.204 C 219.022 98.795,217.030 136.573,244.207 149.582 C 271.188 162.498,300.723 132.853,287.692 105.935 C 280.497 91.072,261.822 82.845,247.442 88.204 M24.702 204.804 L 25.000 288.497 27.982 293.003 C 29.856 295.833,32.954 298.488,36.316 300.143 L 41.667 302.778 200.000 302.778 L 358.333 302.778 363.684 300.143 C 373.929 295.099,374.943 292.171,375.343 266.474 L 375.685 244.444 230.287 244.444 C 118.681 244.444,84.579 244.135,83.556 243.111 C 82.551 242.107,82.222 226.889,82.222 181.444 L 82.222 121.111 53.313 121.111 L 24.403 121.111 24.702 204.804 M88.889 150.593 L 88.889 179.864 94.167 180.494 C 116.463 183.154,127.995 186.201,141.667 193.045 C 159.110 201.778,176.874 216.726,187.222 231.378 L 191.667 237.671 224.105 237.724 L 256.544 237.778 254.200 232.139 C 229.251 172.105,164.655 127.121,95.833 121.853 L 88.889 121.322 88.889 150.593 M142.688 322.024 C 110.401 333.185,106.577 378.317,136.564 394.300 C 164.457 409.167,199.325 388.030,193.972 359.499 L 193.233 355.556 174.394 355.556 L 155.556 355.556 155.556 361.667 L 155.556 367.778 167.720 367.778 L 179.884 367.778 178.682 371.389 C 172.585 389.701,143.606 390.331,134.216 372.356 C 121.204 347.449,148.546 322.715,171.712 338.436 L 175.909 341.284 180.881 336.312 L 185.853 331.340 181.143 327.928 C 170.429 320.167,154.939 317.789,142.688 322.024 M228.801 322.538 C 187.963 339.765,199.738 399.006,244.034 399.186 C 285.501 399.354,298.639 341.929,261.312 323.667 C 252.374 319.294,237.700 318.785,228.801 322.538 M255.439 336.625 C 278.645 348.564,269.896 385.418,243.829 385.531 C 224.706 385.614,212.774 364.930,221.659 347.099 C 227.739 334.899,242.930 330.189,255.439 336.625 " stroke="none" fill-rule="evenodd"></path></g></svg>