<svg id="svg" xmlns="http://www.w3.org/2000/svg" xmlns:xlink="http://www.w3.org/1999/xlink" width="400" height="400" viewBox="0, 0, 400,400"><g id="svgg"><path id="path0" d="M235.344 165.955 C 220.655 168.256,214.541 184.400,224.743 193.943 C 227.853 196.852,229.271 197.584,239.456 201.540 C 250.759 205.929,253.579 208.846,252.940 215.487 C 251.702 228.374,230.072 228.501,225.885 215.646 C 225.471 214.374,225.051 213.333,224.953 213.333 C 222.729 213.333,217.653 216.387,217.944 217.549 C 223.038 237.846,257.527 238.207,261.263 218.003 C 263.387 206.510,258.036 200.165,240.816 193.763 C 228.849 189.313,225.292 184.908,228.716 178.776 C 233.141 170.851,246.748 171.797,251.706 180.374 C 252.535 181.808,259.723 178.948,259.150 177.412 C 256.262 169.673,245.297 164.396,235.344 165.955 M0.544 199.456 L 0.544 231.837 4.626 231.837 L 8.707 231.837 8.707 219.048 L 8.707 206.259 17.044 206.259 C 34.866 206.259,43.615 199.180,42.889 185.349 C 42.190 172.029,33.781 167.075,11.873 167.075 L 0.544 167.075 0.544 199.456 M47.891 198.595 C 47.891 235.089,47.463 231.837,52.262 231.837 L 55.973 231.837 56.154 217.823 C 56.408 198.256,59.391 193.145,69.728 194.567 C 77.237 195.600,78.055 197.753,78.255 217.007 L 78.415 232.381 82.473 232.381 L 86.531 232.381 86.531 216.697 C 86.531 199.283,86.279 197.533,83.101 192.840 C 78.031 185.351,62.900 184.942,57.571 192.150 C 56.923 193.025,56.256 193.742,56.088 193.742 C 55.920 193.742,55.859 187.742,55.953 180.409 L 56.124 167.075 52.008 167.075 L 47.891 167.075 47.891 198.595 M147.846 174.512 C 147.646 174.712,147.483 177.773,147.483 181.315 L 147.483 187.755 143.673 187.755 L 139.864 187.755 139.864 191.565 L 139.864 195.374 143.619 195.374 L 147.374 195.374 147.590 209.116 C 147.910 229.516,150.065 232.669,163.408 232.265 L 168.588 232.109 167.206 228.745 L 165.825 225.382 162.901 225.441 C 156.496 225.571,155.718 223.638,155.677 207.483 L 155.646 195.374 161.088 195.374 L 166.531 195.374 166.531 191.565 L 166.531 187.755 161.088 187.755 L 155.646 187.755 155.646 180.952 L 155.646 174.150 151.927 174.150 C 149.882 174.150,148.045 174.313,147.846 174.512 M28.720 176.995 C 35.549 181.519,35.695 191.205,29.012 196.308 C 27.048 197.807,26.931 197.825,17.867 197.995 L 8.707 198.167 8.707 186.666 L 8.707 175.165 17.593 175.338 C 26.222 175.505,26.544 175.553,28.720 176.995 M111.146 186.700 C 96.705 189.242,88.943 205.230,94.962 220.035 C 102.048 237.462,127.403 238.353,135.583 221.463 C 144.497 203.057,130.593 183.277,111.146 186.700 M187.755 186.467 C 161.056 191.549,163.227 232.188,190.262 233.375 C 204.225 233.988,213.048 225.712,213.747 211.345 C 214.523 195.391,202.306 183.698,187.755 186.467 M285.364 186.668 C 264.204 189.766,260.132 222.073,279.718 231.456 C 289.897 236.332,303.317 232.220,308.231 222.718 L 309.144 220.951 306.069 219.591 C 302.776 218.135,301.497 217.906,301.497 218.774 C 301.497 219.862,297.358 223.870,295.238 224.835 C 283.028 230.396,270.630 215.903,276.545 202.983 C 281.513 192.132,295.689 190.620,300.748 200.403 C 301.640 202.128,301.818 202.118,306.453 200.072 L 309.138 198.887 307.581 196.451 C 303.909 190.700,299.574 187.629,293.807 186.693 C 289.988 186.074,289.436 186.072,285.364 186.668 M328.707 186.860 C 321.157 188.630,312.524 196.038,316.309 197.500 C 316.992 197.764,318.621 198.411,319.929 198.939 L 322.306 199.898 324.010 197.950 C 327.999 193.390,335.301 192.525,340.444 196.003 C 343.687 198.195,346.815 206.400,344.082 205.542 C 327.014 200.184,313.708 206.114,313.776 219.048 C 313.848 233.015,332.670 238.930,342.482 228.069 C 345.022 225.259,345.034 225.262,345.034 228.844 L 345.034 231.837 348.888 231.837 L 352.742 231.837 352.529 216.463 C 352.274 198.063,352.018 196.886,347.228 192.061 C 342.487 187.286,335.393 185.293,328.707 186.860 M380.125 187.204 C 376.491 187.738,372.971 189.587,370.476 192.271 L 368.435 194.467 368.435 191.111 L 368.435 187.755 364.626 187.755 L 360.816 187.755 360.816 209.796 L 360.816 231.837 364.898 231.837 L 368.980 231.837 368.980 218.874 C 368.980 198.986,372.278 193.071,382.546 194.549 C 390.159 195.645,390.978 197.774,391.188 217.007 L 391.355 232.381 395.441 232.381 L 399.527 232.381 399.355 215.646 L 399.184 198.912 397.748 195.918 C 394.374 188.883,388.493 185.975,380.125 187.204 M122.445 194.981 C 132.000 199.708,132.872 216.641,123.880 222.849 C 113.158 230.250,101.497 223.167,101.497 209.252 C 101.497 196.546,111.641 189.636,122.445 194.981 M198.517 194.768 C 209.305 200.271,209.314 218.524,198.531 223.898 C 187.796 229.247,177.013 221.878,177.521 209.539 C 178.045 196.828,188.347 189.579,198.517 194.768 M341.694 211.483 L 344.612 212.785 344.233 214.802 C 341.898 227.252,321.088 230.579,321.088 218.503 C 321.088 211.268,332.495 207.382,341.694 211.483 " stroke="none" fill="#000000" fill-rule="evenodd"></path></g></svg>