<svg version="1.1" width="400" height="400" xmlns="http://www.w3.org/2000/svg">
<g>
<path d="M318.000 41.450 C 294.778 45.255,287.344 53.952,294.659 68.757 C 299.959 79.483,303.535 80.957,312.432 76.079 C 338.306 61.896,369.604 89.351,359.111 117.026 C 357.015 122.555,353.621 129.385,352.256 130.821 C 351.565 131.548,351.000 132.478,351.000 132.887 C 351.000 134.004,339.941 145.274,336.500 147.664 C 313.520 163.624,290.832 161.824,260.526 141.636 C 248.536 133.650,226.864 122.018,223.950 122.006 C 223.098 122.003,221.973 121.628,221.450 121.174 C 220.928 120.720,218.475 119.767,216.000 119.058 C 213.525 118.348,210.375 117.403,209.000 116.958 C 206.612 116.183,202.990 115.390,191.174 113.053 C 184.164 111.667,150.282 111.699,142.560 113.099 C 123.466 116.560,105.207 121.798,93.000 127.316 C 88.932 129.155,79.000 136.001,79.000 136.966 C 79.000 137.456,78.212 138.645,77.250 139.608 C 71.272 145.589,80.259 170.473,98.602 198.735 C 100.471 201.614,102.000 204.426,102.000 204.985 C 102.000 205.543,102.450 206.000,103.000 206.000 C 103.550 206.000,104.000 206.576,104.000 207.279 C 104.000 215.096,123.789 222.505,135.101 218.924 C 138.832 217.742,151.203 211.970,152.000 211.038 C 152.275 210.717,153.713 209.682,155.196 208.739 C 156.678 207.796,160.503 204.905,163.696 202.314 L 169.500 197.602 166.539 201.551 C 155.105 216.801,137.043 228.000,123.882 228.000 C 119.294 228.000,117.803 227.592,110.037 224.211 C 105.979 222.445,97.155 213.811,95.002 209.500 C 94.177 207.850,93.231 206.275,92.898 206.000 C 92.565 205.725,88.683 198.300,84.271 189.500 C 75.026 171.058,75.830 171.539,64.105 177.452 C 32.987 193.144,14.057 223.987,5.464 273.000 C 2.030 292.587,2.149 342.434,5.664 356.750 L 6.217 359.000 30.038 359.000 L 53.860 359.000 56.098 351.750 C 70.142 306.264,107.137 308.178,114.507 354.772 L 115.183 359.043 133.842 358.772 L 152.500 358.500 154.507 352.500 C 157.036 344.935,164.062 330.000,165.090 330.000 C 165.517 330.000,166.137 329.145,166.468 328.099 C 166.800 327.054,169.261 323.974,171.937 321.256 C 191.775 301.103,224.670 312.602,257.023 351.000 C 260.035 354.575,262.950 357.831,263.500 358.235 C 264.050 358.639,275.240 358.976,288.367 358.985 L 312.233 359.000 311.599 356.750 C 308.965 347.408,308.738 321.594,311.179 309.000 C 314.819 290.222,327.121 267.230,346.760 242.500 C 347.197 241.950,348.652 239.925,349.994 238.000 C 351.336 236.075,353.011 233.905,353.717 233.179 C 354.423 232.452,355.000 231.471,355.000 231.000 C 355.000 230.529,355.578 229.548,356.284 228.821 C 360.121 224.871,384.000 179.137,384.000 175.738 C 384.000 175.002,384.411 173.973,384.912 173.450 C 386.874 171.408,391.512 155.480,394.895 139.174 C 400.676 111.308,389.575 72.104,371.782 57.547 C 369.977 56.070,367.775 54.275,366.888 53.559 C 360.360 48.283,345.820 42.612,336.000 41.511 C 332.975 41.172,329.375 40.743,328.000 40.557 C 326.625 40.372,322.125 40.774,318.000 41.450 M313.912 90.179 C 310.003 92.361,307.241 96.276,305.222 102.500 C 302.468 110.988,295.936 123.579,293.032 126.000 C 291.365 127.389,285.000 135.831,285.000 136.653 C 285.000 139.367,303.825 140.851,313.174 138.873 C 328.287 135.677,340.085 123.342,340.010 110.817 C 340.005 109.891,342.025 107.475,344.500 105.446 C 350.787 100.294,350.520 98.626,343.500 99.208 C 338.669 99.609,338.000 99.442,338.000 97.832 C 338.000 96.825,337.580 96.000,337.067 96.000 C 336.554 96.000,335.859 95.133,335.523 94.073 C 333.742 88.460,321.080 86.179,313.912 90.179 M255.891 187.960 C 262.002 190.194,262.895 190.825,261.332 191.804 C 257.040 194.493,257.734 204.783,262.534 209.612 C 270.625 217.753,286.000 211.815,286.000 200.550 C 286.000 199.147,286.113 198.002,286.250 198.004 C 286.387 198.006,288.750 198.825,291.500 199.824 C 297.605 202.041,297.630 203.641,291.654 209.591 C 275.029 226.144,246.000 216.247,246.000 194.028 C 246.000 186.142,247.836 185.016,255.891 187.960 " stroke="none" fill-rule="evenodd"></path>
</g>
</svg>