<svg id="svg" version="1.1" width="400" height="400" xmlns="http://www.w3.org/2000/svg" xmlns:xlink="http://www.w3.org/1999/xlink" style="display: block;"><g id="svgg"><path id="path0" d="M197.750 101.080 C 196.787 101.641,195.987 102.640,195.972 103.300 C 195.957 103.960,194.607 106.268,192.972 108.428 C 191.337 110.589,190.000 112.929,190.000 113.628 C 190.000 114.328,189.433 115.260,188.740 115.700 C 188.047 116.140,186.585 118.300,185.490 120.500 C 184.396 122.700,183.007 124.950,182.404 125.500 C 181.802 126.050,180.696 128.075,179.947 130.000 C 179.197 131.925,178.003 134.095,177.292 134.821 C 176.582 135.548,176.000 136.701,176.000 137.383 C 176.000 138.065,175.198 139.495,174.217 140.561 C 173.237 141.628,171.641 144.188,170.670 146.250 C 169.700 148.313,168.546 150.000,168.105 150.000 C 167.664 150.000,166.448 151.909,165.402 154.242 C 163.366 158.782,162.866 159.475,157.450 165.250 C 154.122 168.799,149.000 170.466,149.000 168.000 C 149.000 167.450,147.875 167.000,146.500 167.000 C 145.125 167.000,144.000 167.450,144.000 168.000 C 144.000 168.550,143.394 169.000,142.654 169.000 C 141.913 169.000,139.889 169.708,138.155 170.573 C 133.280 173.005,132.299 171.270,131.563 158.913 C 130.129 134.856,129.138 131.766,122.144 129.546 C 120.965 129.171,120.000 128.446,120.000 127.933 C 120.000 127.420,118.200 127.000,116.000 127.000 C 113.800 127.000,112.000 127.450,112.000 128.000 C 112.000 128.550,111.309 129.000,110.465 129.000 C 108.798 129.000,104.647 131.444,101.561 134.242 C 100.495 135.209,99.258 136.000,98.811 136.000 C 98.365 136.000,98.000 136.675,98.000 137.500 C 98.000 138.325,97.604 139.000,97.119 139.000 C 95.888 139.000,82.000 152.682,82.000 153.895 C 82.000 154.440,81.213 155.481,80.250 156.209 C 78.277 157.699,76.229 160.644,75.354 163.250 C 75.031 164.213,74.358 165.000,73.859 165.000 C 73.359 165.000,72.548 166.012,72.057 167.250 C 71.565 168.488,70.184 170.686,68.987 172.135 L 66.812 174.771 34.906 174.237 C 5.715 173.748,3.000 173.842,3.000 175.351 C 3.000 176.309,3.803 177.000,4.917 177.000 C 5.971 177.000,6.987 177.462,7.176 178.027 C 7.364 178.592,9.949 179.695,12.920 180.479 C 15.892 181.263,18.588 182.321,18.911 182.832 C 19.235 183.342,22.138 184.346,25.363 185.064 C 28.588 185.782,31.818 186.961,32.542 187.684 C 33.265 188.408,34.288 189.000,34.814 189.000 C 36.389 189.000,46.460 192.350,47.000 193.053 C 47.275 193.412,49.862 194.483,52.750 195.433 C 55.638 196.383,58.000 197.484,58.000 197.879 C 58.000 198.275,59.551 199.159,61.447 199.845 C 63.343 200.530,65.141 201.868,65.442 202.817 C 65.924 204.335,67.741 206.696,73.470 213.250 C 74.312 214.213,74.550 215.000,74.000 215.000 C 73.450 215.000,73.000 215.620,73.000 216.378 C 73.000 217.135,72.325 218.315,71.500 219.000 C 68.515 221.477,70.686 231.700,74.750 234.300 C 75.437 234.740,76.000 235.752,76.000 236.550 C 76.000 237.347,76.838 238.838,77.862 239.862 C 78.886 240.886,80.550 243.123,81.561 244.833 C 84.410 249.657,101.000 251.395,101.000 246.870 C 101.000 246.391,102.350 246.000,104.000 246.000 C 105.650 246.000,107.000 246.204,107.000 246.453 C 107.000 247.666,104.315 252.720,102.757 254.439 C 101.791 255.505,101.000 256.935,101.000 257.617 C 101.000 258.299,100.420 259.452,99.712 260.179 C 99.004 260.905,97.633 263.188,96.665 265.250 C 95.698 267.313,94.545 269.000,94.104 269.000 C 93.662 269.000,92.466 271.025,91.446 273.500 C 90.425 275.975,89.238 278.000,88.808 278.000 C 88.379 278.000,87.369 279.575,86.564 281.500 C 85.760 283.425,84.742 285.002,84.301 285.004 C 83.860 285.006,82.668 287.031,81.651 289.504 C 80.634 291.977,79.396 294.000,78.901 294.000 C 78.405 294.000,78.000 294.958,78.000 296.128 C 78.000 298.316,85.569 298.272,86.970 296.075 C 87.262 295.618,90.200 294.414,93.500 293.399 C 96.800 292.385,99.725 291.249,100.000 290.877 C 100.275 290.504,103.088 289.447,106.250 288.528 C 109.413 287.610,112.000 286.538,112.000 286.147 C 112.000 285.756,114.137 284.832,116.750 284.093 C 119.362 283.353,122.400 282.219,123.500 281.572 C 124.600 280.925,127.525 279.758,130.000 278.978 C 132.475 278.199,135.054 277.025,135.730 276.372 C 136.407 275.718,138.778 274.875,141.000 274.500 C 143.222 274.125,145.593 273.280,146.270 272.623 C 146.946 271.966,150.313 270.586,153.750 269.556 C 157.188 268.526,160.000 267.411,160.000 267.079 C 160.000 266.747,163.037 265.608,166.750 264.548 C 170.463 263.488,174.054 262.072,174.730 261.402 C 175.407 260.731,177.778 259.875,180.000 259.500 C 182.222 259.125,184.593 258.275,185.270 257.612 C 189.874 253.099,215.000 252.590,215.000 257.009 C 215.000 257.380,217.813 258.520,221.250 259.544 C 224.688 260.567,227.725 261.718,228.000 262.102 C 228.275 262.487,231.088 263.553,234.250 264.472 C 237.412 265.390,240.000 266.471,240.000 266.873 C 240.000 267.275,242.925 268.440,246.500 269.462 C 250.075 270.485,253.000 271.640,253.000 272.029 C 253.000 272.418,255.700 273.494,259.000 274.420 C 262.300 275.346,265.000 276.432,265.000 276.833 C 265.000 277.235,267.137 278.177,269.750 278.927 C 272.363 279.677,274.950 280.616,275.500 281.013 C 276.050 281.410,278.975 282.536,282.000 283.515 C 285.025 284.494,287.725 285.588,288.000 285.947 C 288.604 286.735,298.699 290.000,300.532 290.000 C 301.248 290.000,301.987 290.462,302.176 291.027 C 302.364 291.592,304.949 292.695,307.920 293.479 C 310.892 294.263,313.601 295.355,313.941 295.905 C 314.282 296.456,316.459 297.210,318.780 297.581 C 323.267 298.298,324.505 296.730,321.748 293.821 C 321.059 293.095,319.596 290.700,318.498 288.500 C 317.399 286.300,315.938 284.140,315.250 283.700 C 314.563 283.260,314.000 282.442,314.000 281.880 C 314.000 281.319,312.726 278.979,311.168 276.680 C 305.843 268.818,306.067 266.593,312.353 264.914 C 314.634 264.304,317.305 262.949,318.289 261.903 C 319.273 260.856,320.447 260.000,320.899 260.000 C 321.684 260.000,326.571 255.315,330.227 251.057 C 332.364 248.568,335.000 242.395,335.000 239.878 C 335.000 238.845,335.450 238.000,336.000 238.000 C 336.596 238.000,337.000 234.167,337.000 228.500 C 337.000 223.275,336.603 219.000,336.117 219.000 C 335.394 219.000,333.638 207.524,333.528 202.083 C 333.513 201.304,334.850 200.224,336.500 199.683 C 338.150 199.143,339.725 198.408,340.000 198.052 C 340.275 197.695,343.313 196.567,346.750 195.544 C 350.188 194.520,353.000 193.391,353.000 193.034 C 353.000 192.678,356.150 191.569,360.000 190.570 C 363.850 189.571,367.000 188.454,367.000 188.086 C 367.000 187.718,370.150 186.555,374.000 185.500 C 377.850 184.445,381.000 183.253,381.000 182.851 C 381.000 182.448,383.700 181.318,387.000 180.338 C 390.300 179.358,393.000 178.242,393.000 177.858 C 393.000 177.473,394.350 176.862,396.000 176.500 C 405.870 174.332,397.080 173.800,363.000 174.500 C 330.178 175.175,327.000 175.097,327.000 173.620 C 327.000 172.729,326.594 172.000,326.098 172.000 C 325.602 172.000,324.745 170.708,324.195 169.130 C 322.677 164.776,307.000 163.393,307.000 167.614 C 307.000 168.376,306.587 169.000,306.082 169.000 C 305.577 169.000,304.535 169.241,303.767 169.536 C 302.998 169.831,301.138 168.931,299.633 167.536 C 295.878 164.056,287.514 164.582,284.792 168.470 C 284.340 169.116,283.022 168.853,281.138 167.741 C 277.124 165.369,255.959 165.184,253.643 167.500 C 252.818 168.325,251.484 169.000,250.678 169.000 C 249.873 169.000,248.955 168.325,248.638 167.500 C 248.322 166.675,247.423 166.000,246.642 166.000 C 245.861 166.000,243.934 164.344,242.361 162.321 C 240.787 160.297,238.736 157.846,237.803 156.874 C 236.870 155.902,235.396 153.732,234.528 152.053 C 233.659 150.374,232.616 149.000,232.210 149.000 C 231.804 149.000,230.692 147.200,229.739 145.000 C 228.786 142.800,227.622 141.000,227.154 141.000 C 226.685 141.000,225.466 138.975,224.446 136.500 C 223.425 134.025,222.209 132.000,221.744 132.000 C 221.279 132.000,220.240 130.425,219.436 128.500 C 218.631 126.575,217.642 124.996,217.237 124.991 C 216.831 124.985,215.612 122.960,214.526 120.491 C 213.440 118.021,212.303 116.000,212.000 116.000 C 211.697 116.000,210.560 113.979,209.474 111.509 C 208.388 109.040,207.151 107.015,206.725 107.009 C 206.299 107.004,205.523 105.875,205.000 104.500 C 204.477 103.125,203.363 102.000,202.525 102.000 C 201.686 102.000,201.000 101.550,201.000 101.000 C 201.000 99.747,199.997 99.771,197.750 101.080 M201.000 113.500 C 201.000 114.325,201.457 115.000,202.016 115.000 C 202.575 115.000,203.783 116.575,204.701 118.500 C 205.619 120.425,206.665 122.000,207.024 122.000 C 207.384 122.000,208.538 123.795,209.589 125.989 C 210.640 128.182,211.769 129.982,212.098 129.989 C 212.427 129.995,213.552 131.909,214.598 134.242 C 215.644 136.575,217.287 139.275,218.250 140.242 C 219.213 141.209,220.000 142.653,220.000 143.450 C 220.000 144.248,220.563 145.260,221.250 145.700 C 221.938 146.140,223.396 148.300,224.490 150.500 C 225.585 152.700,226.745 154.725,227.069 155.000 C 228.975 156.621,230.784 162.000,229.423 162.000 C 228.641 162.000,228.000 162.450,228.000 163.000 C 228.000 163.550,227.394 164.000,226.654 164.000 C 224.447 164.000,219.238 166.937,218.629 168.525 C 217.885 170.463,215.544 170.401,213.534 168.391 C 208.212 163.070,185.000 162.876,185.000 168.153 C 185.000 168.584,183.763 169.585,182.250 170.377 C 179.497 171.819,174.000 170.092,174.000 167.784 C 174.000 167.353,172.875 167.000,171.500 167.000 C 170.125 167.000,169.000 167.450,169.000 168.000 C 169.000 168.550,168.550 169.000,168.000 169.000 C 167.450 169.000,167.000 168.100,167.000 167.000 C 167.000 165.900,167.349 165.000,167.776 165.000 C 168.203 165.000,169.440 162.979,170.526 160.509 C 171.612 158.040,172.769 156.015,173.098 156.009 C 173.427 156.004,174.546 154.088,175.585 151.750 C 176.624 149.412,178.267 146.628,179.237 145.561 C 180.207 144.495,181.000 143.065,181.000 142.383 C 181.000 141.701,181.691 140.451,182.536 139.606 C 183.381 138.761,184.737 136.479,185.550 134.535 C 186.362 132.591,187.403 131.000,187.863 131.000 C 188.322 131.000,189.534 128.975,190.554 126.500 C 191.575 124.025,192.762 122.000,193.192 122.000 C 193.621 122.000,194.631 120.425,195.436 118.500 C 196.240 116.575,197.371 115.000,197.949 115.000 C 198.527 115.000,199.000 114.325,199.000 113.500 C 199.000 112.675,199.450 112.000,200.000 112.000 C 200.550 112.000,201.000 112.675,201.000 113.500 M120.937 140.249 C 123.169 146.651,121.702 160.800,117.985 168.739 C 116.893 171.071,116.000 173.411,116.000 173.939 C 116.000 174.468,115.438 175.260,114.750 175.700 C 113.341 176.602,111.212 179.717,110.404 182.058 C 110.109 182.916,108.209 184.486,106.183 185.549 C 104.158 186.611,102.211 187.884,101.857 188.377 C 100.714 189.968,92.816 189.423,91.844 187.686 C 91.356 186.813,90.291 185.434,89.478 184.621 C 87.799 182.942,87.495 180.000,89.000 180.000 C 89.550 180.000,90.000 178.482,90.000 176.626 C 90.000 173.128,92.478 164.988,93.832 164.041 C 94.257 163.743,95.402 161.786,96.377 159.690 C 98.926 154.215,102.543 154.700,102.405 160.500 C 102.293 165.261,99.847 175.000,98.763 175.000 C 98.344 175.000,98.000 176.350,98.000 178.000 C 98.000 179.650,98.450 181.000,99.000 181.000 C 99.550 181.000,100.000 181.675,100.000 182.500 C 100.000 188.172,109.002 180.682,111.705 172.762 C 112.692 169.868,114.030 166.938,114.678 166.251 C 117.421 163.342,118.504 142.590,116.000 140.936 C 114.129 139.700,108.837 140.580,107.500 142.350 C 106.950 143.078,105.487 144.213,104.250 144.872 C 103.013 145.531,102.000 146.730,102.000 147.535 C 102.000 148.341,101.535 149.000,100.967 149.000 C 99.509 149.000,93.735 154.947,91.471 158.780 C 90.425 160.551,89.318 162.000,89.012 162.000 C 88.705 162.000,87.569 163.688,86.487 165.750 C 85.405 167.813,84.271 169.725,83.968 170.000 C 81.300 172.418,79.532 188.056,81.240 194.133 C 83.389 201.784,97.276 207.557,102.073 202.794 C 102.858 202.015,104.947 200.739,106.716 199.960 C 108.485 199.180,110.724 197.070,111.693 195.271 C 112.662 193.472,113.825 192.000,114.278 192.000 C 114.731 192.000,115.805 190.313,116.663 188.250 C 117.522 186.188,118.559 184.275,118.967 184.000 C 119.376 183.725,120.290 181.025,121.000 178.000 C 122.164 173.037,123.331 171.059,125.121 171.015 C 125.463 171.007,126.055 173.354,126.436 176.231 C 126.818 179.108,127.457 181.696,127.856 181.981 C 128.256 182.267,129.411 186.100,130.424 190.500 C 131.438 194.900,132.746 198.807,133.332 199.182 C 134.924 200.200,134.848 219.214,133.250 219.748 C 132.563 219.978,132.000 220.692,131.999 221.333 C 131.998 222.997,124.926 229.598,122.250 230.433 C 121.013 230.819,120.000 231.488,120.000 231.919 C 120.000 232.350,116.963 233.517,113.250 234.511 C 109.537 235.506,106.275 236.645,106.000 237.044 C 103.340 240.897,87.000 240.373,87.000 236.435 C 87.000 235.708,86.192 234.525,85.204 233.807 C 81.603 231.186,78.797 223.000,81.500 223.000 C 82.325 223.000,83.000 222.632,83.000 222.183 C 83.000 221.733,86.375 220.570,90.500 219.598 C 94.625 218.625,98.000 217.525,98.000 217.152 C 98.000 216.780,100.895 215.646,104.433 214.633 C 107.972 213.619,111.107 212.162,111.402 211.395 C 111.696 210.628,112.641 210.000,113.502 210.000 C 114.888 210.000,118.904 206.359,122.849 201.525 C 124.983 198.910,125.716 184.000,123.710 184.000 C 122.844 184.000,121.830 184.960,121.458 186.133 C 120.643 188.700,112.182 200.000,111.074 200.000 C 110.644 200.000,109.078 201.125,107.595 202.500 C 106.111 203.875,104.277 205.000,103.520 205.000 C 102.763 205.000,101.418 205.725,100.532 206.611 C 99.340 207.803,96.990 208.222,91.500 208.222 C 86.010 208.222,83.660 207.803,82.468 206.611 C 81.582 205.725,80.225 205.000,79.452 205.000 C 78.679 205.000,77.259 203.762,76.296 202.250 C 75.334 200.738,74.117 199.198,73.593 198.829 C 71.910 197.646,71.608 186.535,73.215 184.928 C 74.001 184.142,75.460 181.362,76.458 178.749 C 77.456 176.137,78.558 174.000,78.908 174.000 C 79.259 174.000,80.433 172.313,81.518 170.250 C 82.603 168.188,84.280 165.912,85.245 165.193 C 86.210 164.475,87.000 163.253,87.000 162.478 C 87.000 161.704,87.900 160.589,89.000 160.000 C 90.100 159.411,91.000 158.429,91.000 157.817 C 91.000 156.320,107.180 140.056,108.700 140.025 C 109.360 140.011,110.260 139.368,110.700 138.596 C 112.716 135.057,119.510 136.155,120.937 140.249 M203.000 172.902 C 203.000 173.398,204.350 174.275,206.000 174.850 C 207.650 175.425,209.000 176.510,209.000 177.259 C 209.000 178.009,210.007 179.703,211.237 181.024 C 213.867 183.847,214.693 199.934,212.250 200.749 C 211.563 200.979,211.000 201.753,211.000 202.469 C 211.000 206.213,205.042 213.175,199.356 216.074 C 195.595 217.991,187.000 218.753,187.000 217.169 C 187.000 216.712,185.913 215.756,184.584 215.045 C 182.201 213.770,181.698 212.787,180.007 206.112 C 179.025 202.239,180.586 191.573,182.407 189.707 C 183.054 189.043,184.197 186.925,184.947 185.000 C 185.696 183.075,186.802 181.040,187.404 180.477 C 188.007 179.914,188.987 178.564,189.582 177.477 C 190.177 176.390,191.639 175.056,192.832 174.513 C 194.024 173.970,195.000 173.182,195.000 172.763 C 195.000 172.343,196.800 172.000,199.000 172.000 C 201.200 172.000,203.000 172.406,203.000 172.902 M239.000 172.933 C 239.000 173.446,240.012 174.166,241.250 174.533 C 243.932 175.329,250.000 181.536,250.000 183.484 C 250.000 184.239,250.775 185.632,251.722 186.579 C 253.033 187.890,253.444 190.022,253.444 195.500 C 253.444 200.978,253.033 203.110,251.722 204.421 C 250.775 205.368,250.000 206.703,250.000 207.387 C 250.000 215.742,231.039 218.113,223.623 210.685 C 217.465 204.517,216.405 185.055,221.951 180.000 C 222.253 179.725,222.987 178.600,223.582 177.500 C 224.177 176.400,225.639 175.056,226.832 174.513 C 228.024 173.970,229.000 173.182,229.000 172.763 C 229.000 172.343,231.250 172.000,234.000 172.000 C 236.750 172.000,239.000 172.420,239.000 172.933 M319.000 182.998 C 319.700 186.299,320.589 189.000,320.975 189.000 C 321.361 189.000,322.497 193.838,323.500 199.750 C 324.503 205.662,325.791 210.807,326.362 211.182 C 327.951 212.228,327.846 239.215,326.250 239.748 C 325.563 239.978,325.000 240.753,325.000 241.469 C 325.000 245.155,318.385 252.807,313.250 255.061 C 311.462 255.846,310.000 256.783,310.000 257.144 C 310.000 259.133,291.889 261.393,283.060 260.506 C 275.455 259.742,275.652 260.418,281.188 254.062 C 282.116 252.996,283.352 249.548,283.934 246.399 C 284.516 243.251,285.130 240.537,285.299 240.368 C 285.962 239.704,293.000 241.315,293.000 242.131 C 293.000 242.609,297.275 243.000,302.500 243.000 C 307.725 243.000,312.000 242.594,312.000 242.098 C 312.000 241.602,313.353 240.724,315.006 240.148 C 316.731 239.546,318.424 238.014,318.981 236.550 C 319.514 235.148,320.334 234.000,320.804 234.000 C 321.691 234.000,324.000 225.278,324.000 221.924 C 324.000 220.866,323.550 220.000,323.000 220.000 C 322.450 220.000,322.000 220.675,322.000 221.500 C 322.000 222.325,321.601 223.000,321.114 223.000 C 320.627 223.000,319.494 224.547,318.596 226.438 C 317.699 228.329,316.073 230.160,314.982 230.506 C 313.892 230.852,313.000 231.554,313.000 232.067 C 313.000 233.453,311.258 233.198,309.261 231.519 C 308.293 230.704,306.740 229.467,305.812 228.769 C 304.853 228.048,303.571 224.692,302.845 221.000 C 302.142 217.425,301.306 214.275,300.988 214.000 C 300.670 213.725,299.655 207.936,298.732 201.135 C 297.809 194.334,296.647 188.259,296.151 187.635 C 295.082 186.292,291.934 175.732,292.450 175.217 C 293.886 173.780,296.916 178.218,298.536 184.133 C 299.571 187.910,300.774 191.000,301.209 191.000 C 301.644 191.000,302.003 191.563,302.006 192.250 C 302.021 195.697,304.324 200.891,307.325 204.250 C 310.490 207.791,314.000 209.226,314.000 206.979 C 314.000 206.417,315.125 205.445,316.500 204.818 C 319.869 203.283,319.487 184.433,316.037 182.000 C 315.157 181.379,313.000 175.200,313.000 173.299 C 313.000 169.687,317.833 177.500,319.000 182.998 M234.384 175.442 C 233.430 177.927,234.425 180.462,236.756 181.487 C 239.698 182.781,239.607 184.766,236.541 186.163 C 233.988 187.327,229.000 185.219,229.000 182.977 C 229.000 182.440,228.044 182.000,226.876 182.000 C 221.719 182.000,226.462 196.818,231.667 196.967 C 232.308 196.985,233.019 197.557,233.246 198.238 C 233.752 199.756,241.941 199.714,242.884 198.188 C 243.245 197.603,244.777 196.655,246.288 196.080 C 252.743 193.626,251.548 186.470,243.377 178.640 C 238.460 173.928,235.384 172.835,234.384 175.442 M275.628 175.605 C 281.836 178.178,287.715 184.993,288.644 190.695 C 289.981 198.899,289.660 217.377,288.131 220.246 C 284.996 226.126,276.328 227.432,273.571 222.440 C 272.982 221.373,271.989 220.169,271.365 219.764 C 270.740 219.360,269.629 216.997,268.896 214.514 C 268.163 212.032,267.297 210.000,266.971 210.000 C 266.408 210.000,264.855 204.336,263.474 197.250 C 263.126 195.463,262.509 194.000,262.104 194.000 C 261.699 194.000,260.781 191.054,260.066 187.454 C 259.350 183.853,258.143 180.285,257.382 179.525 C 255.350 177.493,255.680 175.000,257.981 175.000 C 259.260 175.000,260.184 175.886,260.589 177.500 C 260.934 178.875,261.561 180.000,261.981 180.000 C 262.402 180.000,263.563 183.600,264.561 188.000 C 265.560 192.400,266.742 196.000,267.189 196.000 C 267.635 196.000,268.000 196.695,268.000 197.545 C 268.000 203.208,277.363 205.817,282.250 201.516 C 288.548 195.973,284.106 179.152,276.313 179.033 C 274.383 179.004,274.190 179.397,274.673 182.373 C 275.653 188.409,273.007 187.790,267.250 180.637 C 265.384 178.319,265.731 176.435,268.250 175.220 C 271.255 173.771,271.196 173.768,275.628 175.605 M170.939 181.194 C 167.789 188.905,162.454 191.814,154.974 189.897 C 152.258 189.201,149.822 188.844,149.562 189.105 C 148.756 189.911,151.811 202.873,153.194 204.517 C 157.021 209.067,157.341 209.222,161.975 208.776 C 167.714 208.225,169.000 209.456,169.000 215.500 C 169.000 230.769,151.824 225.195,149.848 209.284 C 149.320 205.030,148.576 201.313,148.194 201.024 C 147.812 200.736,146.698 197.360,145.718 193.522 C 144.737 189.684,143.275 186.174,142.468 185.722 C 140.454 184.595,140.627 181.736,142.867 179.153 C 145.138 176.534,146.000 176.431,146.000 178.778 C 146.000 184.302,151.813 185.123,156.531 180.265 C 159.758 176.942,160.265 176.722,161.129 178.265 C 162.436 180.602,166.624 180.462,168.722 178.012 C 171.204 175.113,172.603 177.120,170.939 181.194 M197.000 178.500 C 197.000 179.875,197.340 181.000,197.756 181.000 C 198.982 181.000,201.242 186.926,200.628 188.528 C 199.788 190.716,194.296 190.369,192.268 188.000 C 191.326 186.900,189.756 186.000,188.778 186.000 C 186.084 186.000,186.263 194.027,189.000 196.000 C 190.100 196.793,191.008 197.905,191.017 198.471 C 191.054 200.682,195.658 203.861,198.389 203.562 C 207.556 202.555,214.966 183.227,207.311 180.289 C 206.590 180.012,206.000 179.207,206.000 178.500 C 206.000 176.917,203.769 176.000,199.918 176.000 C 197.472 176.000,197.000 176.404,197.000 178.500 M45.000 178.000 C 45.000 178.604,49.193 179.000,55.579 179.000 L 66.159 179.000 65.458 182.250 C 65.072 184.037,64.361 185.650,63.878 185.833 C 63.395 186.017,63.000 187.003,63.000 188.024 C 63.000 190.918,54.155 190.897,52.000 187.998 C 51.725 187.628,48.688 186.492,45.250 185.473 C 41.813 184.455,39.000 183.328,39.000 182.969 C 39.000 182.610,37.199 181.777,34.998 181.118 C 31.656 180.116,31.203 179.685,32.248 178.497 C 33.700 176.849,45.000 176.408,45.000 178.000 M367.515 180.546 C 364.772 181.298,362.372 182.383,362.181 182.956 C 361.990 183.530,361.248 184.000,360.532 184.000 C 358.791 184.000,348.633 187.242,348.000 188.000 C 347.367 188.758,337.209 192.000,335.468 192.000 C 334.752 192.000,333.981 192.558,333.753 193.241 C 332.854 195.939,330.021 191.032,329.393 185.688 C 328.587 178.826,327.114 179.239,352.500 179.205 C 371.152 179.181,372.164 179.271,367.515 180.546 M263.158 224.807 C 264.171 225.525,265.000 226.747,265.000 227.522 C 265.000 228.296,266.012 229.461,267.250 230.111 C 268.488 230.760,269.860 231.901,270.300 232.646 C 270.740 233.391,271.712 234.000,272.461 234.000 C 273.210 234.000,275.032 235.438,276.510 237.195 C 280.573 242.023,279.385 246.578,272.250 253.535 C 265.151 260.457,272.204 268.456,285.500 268.562 C 297.846 268.661,297.928 268.679,299.000 271.500 C 299.523 272.875,300.343 274.000,300.823 274.000 C 301.303 274.000,302.544 275.913,303.579 278.250 C 304.615 280.587,306.146 283.048,306.981 283.718 C 308.328 284.799,308.315 284.940,306.865 284.968 C 304.859 285.007,294.691 281.842,294.000 280.963 C 293.725 280.613,291.363 279.705,288.750 278.945 C 286.137 278.185,284.000 277.262,284.000 276.893 C 284.000 276.524,281.075 275.430,277.500 274.463 C 273.925 273.495,271.000 272.370,271.000 271.963 C 271.000 271.555,268.075 270.430,264.500 269.463 C 260.925 268.495,258.000 267.392,258.000 267.012 C 258.000 266.632,255.075 265.485,251.500 264.462 C 247.925 263.440,245.000 262.266,245.000 261.853 C 245.000 261.441,242.300 260.346,239.000 259.420 C 235.700 258.494,233.000 257.431,233.000 257.057 C 233.000 256.684,230.188 255.545,226.750 254.527 C 223.313 253.508,220.275 252.388,220.000 252.038 C 219.285 251.127,209.129 248.000,206.885 248.000 C 205.848 248.000,205.000 247.550,205.000 247.000 C 205.000 246.450,202.525 246.000,199.500 246.000 C 196.475 246.000,194.000 246.343,194.000 246.762 C 194.000 247.182,191.075 248.363,187.500 249.386 C 183.925 250.410,181.000 251.535,181.000 251.886 C 181.000 252.238,177.963 253.392,174.250 254.452 C 170.537 255.512,166.946 256.928,166.270 257.598 C 165.593 258.269,163.222 259.125,161.000 259.500 C 158.778 259.875,156.407 260.735,155.730 261.410 C 155.054 262.085,151.688 263.479,148.250 264.508 C 144.813 265.537,142.000 266.677,142.000 267.041 C 142.000 267.405,139.075 268.495,135.500 269.463 C 131.925 270.430,129.000 271.550,129.000 271.951 C 129.000 272.351,126.075 273.515,122.500 274.538 C 118.925 275.560,116.000 276.699,116.000 277.068 C 116.000 277.438,113.975 278.307,111.500 279.000 C 109.025 279.693,107.000 280.634,107.000 281.091 C 107.000 281.549,105.288 282.384,103.196 282.947 C 98.434 284.230,92.068 285.223,93.775 284.418 C 94.476 284.087,95.697 282.267,96.488 280.373 C 97.280 278.479,98.619 276.239,99.464 275.394 C 100.309 274.549,101.000 273.299,101.000 272.617 C 101.000 271.935,101.802 270.505,102.783 269.439 C 103.763 268.372,105.403 265.700,106.427 263.500 C 107.451 261.300,108.898 259.140,109.644 258.700 C 110.390 258.260,111.000 257.273,111.000 256.507 C 111.000 255.741,111.817 254.525,112.816 253.807 C 113.815 253.088,114.937 251.825,115.309 251.000 C 117.363 246.454,120.583 243.124,128.905 236.937 C 134.651 232.664,142.000 225.335,142.000 223.876 C 142.000 222.114,143.611 223.071,145.214 225.786 C 146.120 227.318,148.467 229.202,150.430 229.973 C 152.394 230.743,154.000 231.739,154.000 232.187 C 154.000 232.634,157.375 233.000,161.500 233.000 C 165.625 233.000,169.000 232.586,169.000 232.079 C 169.000 231.573,170.389 230.854,172.086 230.481 C 174.320 229.990,175.461 228.976,176.216 226.810 C 177.111 224.243,177.633 223.903,179.880 224.423 C 191.686 227.156,200.690 226.210,208.058 221.462 C 214.832 217.099,218.880 217.388,224.678 222.653 C 228.094 225.753,245.195 224.948,248.617 221.525 C 249.456 220.686,250.673 219.999,251.321 219.999 C 251.970 219.998,253.841 218.845,255.479 217.436 L 258.458 214.874 259.887 219.187 C 260.673 221.559,262.145 224.088,263.158 224.807 " stroke="none" fill="#000000" fill-rule="evenodd"></path></g></svg>