<svg version="1.1" width="515" height="515" xmlns="http://www.w3.org/2000/svg">
<g>
<path d="M115.000 180.526 C 93.241 186.703,87.000 197.486,87.000 228.904 L 87.000 247.000 76.500 247.000 L 66.000 247.000 66.000 236.500 L 66.000 226.000 69.000 226.000 C 70.650 226.000,72.000 225.495,72.000 224.877 C 72.000 223.905,63.625 211.382,62.051 210.000 C 61.738 209.725,60.242 207.588,58.726 205.250 C 54.890 199.332,54.529 199.447,48.514 208.500 C 46.321 211.800,44.262 214.725,43.938 215.000 C 43.614 215.275,42.499 216.963,41.459 218.750 C 40.419 220.537,39.216 222.000,38.784 222.000 C 38.353 222.000,38.000 222.900,38.000 224.000 C 38.000 225.541,38.667 226.000,40.903 226.000 L 43.806 226.000 44.170 243.750 C 44.680 268.636,43.999 268.000,70.149 268.000 L 87.000 268.000 87.011 286.250 C 87.025 309.818,88.390 315.083,96.848 324.180 C 110.790 339.176,137.799 339.161,151.028 324.149 C 160.768 313.097,161.000 311.987,161.000 276.462 L 161.000 247.000 141.000 247.000 L 121.000 247.000 121.000 257.500 L 121.000 268.000 129.500 268.000 L 138.000 268.000 138.000 284.532 C 138.000 302.621,137.249 306.086,132.520 309.806 C 126.530 314.517,118.056 313.317,112.868 307.023 L 110.000 303.544 110.000 257.500 L 110.000 211.456 112.868 207.977 C 122.817 195.907,138.000 203.151,138.000 219.968 L 138.000 226.000 149.500 226.000 L 161.000 226.000 161.000 217.817 C 161.000 210.194,158.589 200.084,155.933 196.569 C 145.245 182.426,129.728 176.345,115.000 180.526 M383.000 180.446 C 368.888 184.418,360.733 192.467,357.109 206.000 C 356.226 209.299,355.984 223.713,356.202 260.000 L 356.500 309.500 358.874 315.211 C 367.719 336.491,397.562 342.616,415.531 326.839 C 423.795 319.583,428.000 309.387,428.000 296.606 L 428.000 290.000 416.500 290.000 L 405.000 290.000 404.996 296.250 C 404.987 311.937,388.147 319.094,380.878 306.500 C 378.724 302.769,378.064 217.084,380.142 210.899 C 385.503 194.936,404.986 201.874,404.996 219.750 L 405.000 226.000 416.500 226.000 L 428.000 226.000 428.000 219.081 C 428.000 191.669,407.044 173.677,383.000 180.446 M179.000 257.500 L 179.000 334.000 190.500 334.000 L 202.000 334.000 202.000 301.000 L 202.000 268.000 207.895 268.000 L 213.789 268.000 216.970 278.250 C 218.720 283.887,222.129 294.800,224.546 302.500 C 226.963 310.200,230.132 320.438,231.588 325.250 L 234.236 334.000 246.118 334.000 C 255.938 334.000,258.000 333.743,258.000 332.521 C 258.000 330.945,253.543 316.848,251.986 313.500 C 247.586 304.038,235.512 263.971,236.922 263.509 C 256.239 257.184,259.895 205.953,242.179 189.845 C 233.745 182.177,228.403 181.024,201.250 181.011 L 179.000 181.000 179.000 257.500 M270.000 257.500 L 270.000 334.000 281.500 334.000 L 293.000 334.000 293.000 301.000 L 293.000 268.000 300.750 267.980 C 332.685 267.899,341.873 258.758,341.944 227.000 C 342.026 190.095,331.956 181.000,291.015 181.000 L 270.000 181.000 270.000 257.500 M220.193 203.176 C 227.654 205.411,230.985 212.015,230.994 224.591 C 231.008 242.214,226.294 246.960,208.750 246.989 L 202.000 247.000 202.000 224.500 L 202.000 202.000 209.134 202.000 C 213.058 202.000,218.034 202.529,220.193 203.176 M312.434 203.983 C 319.004 207.187,320.000 210.019,320.000 225.481 L 320.000 238.800 316.542 242.258 C 312.833 245.967,308.872 247.000,298.360 247.000 L 293.000 247.000 293.000 224.500 L 293.000 202.000 300.684 202.000 C 306.313 202.000,309.456 202.530,312.434 203.983 M405.000 257.500 L 405.000 268.000 427.000 268.000 L 449.000 268.000 449.000 278.500 L 449.000 289.000 446.000 289.000 C 444.350 289.000,443.000 289.482,443.000 290.071 C 443.000 290.984,451.391 303.542,452.975 305.000 C 453.274 305.275,454.778 307.441,456.316 309.814 C 459.498 314.721,460.581 314.737,463.762 309.923 C 466.712 305.458,469.254 301.936,470.502 300.585 C 476.319 294.285,477.959 289.000,474.097 289.000 L 471.194 289.000 470.830 271.250 C 470.301 245.447,472.702 247.000,433.351 247.000 L 405.000 247.000 405.000 257.500 " stroke="none" fill-rule="evenodd"></path>
</g>
</svg>