<svg version="1.1" xmlns="http://www.w3.org/2000/svg" width="400" height="400" viewBox="0, 0, 400,400"><g><path d="M46.539 160.565 C 24.749 182.355,6.922 200.350,6.922 200.553 C 6.922 200.937,86.026 280.146,86.409 280.146 C 86.528 280.146,92.920 273.834,100.614 266.120 L 114.601 252.095 105.296 252.095 L 95.991 252.095 68.852 224.954 L 41.714 197.814 68.852 170.674 L 95.991 143.534 102.619 143.534 L 109.247 143.534 98.091 132.240 C 91.955 126.029,86.760 120.947,86.545 120.947 C 86.331 120.947,68.328 138.775,46.539 160.565 M117.851 167.577 L 93.809 191.621 125.500 191.621 L 157.192 191.621 141.438 175.864 L 125.684 160.107 133.970 151.820 C 138.528 147.263,142.175 143.534,142.074 143.534 C 141.974 143.534,131.074 154.353,117.851 167.577 M71.220 171.949 L 45.357 197.814 71.220 223.679 L 97.084 249.545 116.391 249.545 L 135.699 249.545 113.569 227.412 C 89.470 203.311,90.215 204.191,92.282 202.249 L 93.125 201.457 213.348 201.457 L 333.571 201.457 334.363 202.300 C 336.124 204.175,335.856 204.575,326.688 213.749 L 318.221 222.222 326.052 222.222 L 333.884 222.222 346.084 210.018 L 358.284 197.814 346.084 185.610 L 333.884 173.406 326.052 173.406 L 318.221 173.406 326.688 181.879 C 335.914 191.111,336.225 191.581,334.312 193.379 L 333.469 194.171 213.246 194.171 L 93.023 194.171 92.231 193.328 C 90.340 191.315,89.594 192.194,113.569 168.216 L 135.699 146.084 116.391 146.084 L 97.084 146.084 71.220 171.949 M340.881 159.484 C 334.926 165.440,330.055 170.436,330.055 170.585 C 330.055 170.734,331.162 170.856,332.516 170.856 L 334.976 170.856 348.452 184.335 L 361.927 197.814 348.450 211.370 C 341.037 218.826,335.129 224.803,335.320 224.653 C 335.512 224.503,339.283 227.993,343.701 232.408 L 351.734 240.435 374.683 217.480 L 397.632 194.525 374.669 171.589 L 351.707 148.653 340.881 159.484 M314.754 185.610 L 308.751 191.621 320.765 191.621 L 332.779 191.621 326.776 185.610 C 323.475 182.304,320.770 179.599,320.765 179.599 C 320.760 179.599,318.056 182.304,314.754 185.610 M111.097 221.297 C 120.604 230.806,128.391 238.546,128.399 238.496 C 128.408 238.446,136.120 230.665,145.536 221.206 L 162.656 204.007 128.233 204.007 L 93.810 204.007 111.097 221.297 M319.672 208.379 L 324.033 212.751 328.319 208.476 C 330.676 206.125,332.605 204.157,332.605 204.104 C 332.605 204.051,328.714 204.007,323.958 204.007 L 315.312 204.007 319.672 208.379 " stroke="none" fill-rule="evenodd"></path></g></svg>