<svg width="100%" height="100%" viewBox="0 0 400 400" version="1.1" xmlns="http://www.w3.org/2000/svg" style="fill-rule:evenodd;clip-rule:evenodd;stroke-linejoin:round;stroke-miterlimit:2;">
    <g>
        <path d="M211.25,0.706C202.048,2.475 193.352,13.684 189,20.481C188.488,21.281 186.426,29 186,29L184,23C183.142,18.71 184.141,14.061 182.66,9.945C182.392,9.2 181.194,8.656 180.481,9C177.241,10.565 174.307,12.79 171.68,15.248C168.255,18.452 161.253,27.36 160,33C159.489,35.301 159.254,37.657 159,40C158.812,41.734 159.168,43.549 158.675,45.221C158.473,45.905 157.647,47 157.049,46.612C152.953,43.955 149.665,40.224 146,37C130.176,23.079 118.881,15 97,15C87.043,15 75.758,16.675 67.478,23C66.37,23.846 49.984,35.022 55.647,38.593C57.758,39.924 60.579,39.395 63,40C70.431,41.858 76.882,43.827 82.526,49.474L87,53.947L87,71L82,71C78.418,71 74.355,72.884 71.474,75C69.387,76.533 67.016,77.765 65.27,79.678C56.05,89.778 59.162,103.138 65,114C66.407,116.618 69.395,119.973 70,123C71.429,130.144 71.238,131.856 70,139C68.29,148.87 60.581,153.159 54.814,160.696C50.156,166.785 50.61,176.049 52,183C52.331,184.657 53.947,187.184 55,188.519C59.909,194.738 64.102,199.817 71,204C77.27,207.802 86.279,211.253 91.513,216.487C97.269,222.243 99,231.277 99,239C99,247.028 97.402,254.982 97,263C96.808,266.825 97.143,270.679 96.723,274.485C96.62,275.418 96.394,276.985 95.455,277C92.352,277.049 90.276,272.62 89,270.766C85.743,266.033 82.824,261.471 81,256C80.708,255.125 78.528,246.921 77.467,247C71.448,247.45 67.392,258.215 65,263C55.369,282.261 56.914,307.947 69,326C73.951,333.396 80.375,338.492 88,343C90.706,344.6 94.023,345.256 96.368,347.349C102.172,352.528 104.851,361.89 110.481,367.52C121.804,378.843 134.476,381.715 149,386C157.302,388.449 164.085,397.455 173.25,398.25C182.145,399.022 191.072,399.611 200,399.611C208.928,399.611 217.855,399.022 226.75,398.25C235.915,397.455 242.698,388.449 251,386C264.898,381.9 277.584,379.247 288.472,368.552C294.473,362.656 297.488,352.673 303.675,347.316C306.061,345.25 310.028,344.65 312.779,343C320.225,338.533 326.131,333.265 331,326C342.642,308.631 343.474,285.421 337,266C335.213,260.638 331.509,254.374 327.469,250.439C326.032,249.04 324.534,247.136 322.533,247C321.463,246.927 319.294,255.119 319,256C317.174,261.478 314.244,266.018 311,270.766C310.115,272.061 308.064,276.325 305.694,276.565C304.947,276.641 304.134,275.798 304.023,275.056C302.438,264.468 302.988,253.661 302,243C301.813,240.981 301,239.028 301,237C301,230.341 303.654,221.32 308.487,216.487C314.504,210.47 323.929,208.315 330.516,203C340.032,195.322 340.232,195.633 347,185.516C348.619,183.096 349,176.174 349,175C349,160.818 339.13,157.467 332.126,146.56C332.101,146.522 330.065,137.344 330,137C326.854,120.415 341,111.045 341,95C341,82.77 330.908,71 318,71L313,71L313,53.947L317.474,49.474C323.118,43.827 329.569,41.858 337,40C339.421,39.395 342.242,39.924 344.353,38.593C350.016,35.022 333.63,23.846 332.522,23C324.242,16.675 312.957,15 303,15C289.707,15 275.642,18.088 265.244,27C258.724,32.588 252.838,38.897 246.235,44.387C244.857,45.533 243.438,46.891 241.681,47.242C239.157,47.747 238.906,42.573 239,40C239.162,35.543 240.35,31.125 242,27C243.34,23.651 246.541,19.582 244.625,15.75C243.778,14.055 237.659,16.835 237,17C233.373,17.907 230.417,19.082 227.221,21C225.197,22.214 223.667,24.671 221.32,24.912C220.263,25.02 218.785,24.572 218.429,23.571C217.196,20.11 217.028,16.321 216.952,12.648C216.771,3.998 219.696,-0.922 211.25,0.706M105,30C105,30.457 105.733,30.589 106.175,30.706C109.919,31.699 111.309,31.018 114.779,33C122.737,37.545 132.527,45.109 137,53.484C137.895,55.16 135.016,54.913 134.806,54.888C132.422,54.613 131.348,54.291 129.701,52.59C127.207,50.015 128.467,49.134 125.544,46.437C123.607,44.65 121.168,43.499 119,42C115.529,39.6 112.163,36.765 108.119,35.294C106.779,34.807 105.266,35.046 103.881,34.706C102.025,34.25 102.383,33.422 100.5,33.278C96.175,32.948 91.823,33.078 87.5,32.722C86.636,32.651 85.651,32.574 85,32C84.718,31.751 85.516,31.386 85.881,31.294C87.264,30.944 88.735,31.051 90.119,30.706C90.64,30.576 91.028,30.13 91.51,29.893C95.27,28.039 97.546,29.224 103,29.286C103.133,29.288 105,29.27 105,30M309,30C309,31.385 313.904,31.238 314.119,31.294C314.483,31.388 315.2,31.681 315,32C313.661,34.139 307.286,32.972 306,33C299.438,33.144 291.457,34.727 285.92,38.325C281.727,41.05 273.006,49.833 270.66,51.923C269.874,52.623 265.607,56.276 263.928,55.28C260.217,53.078 270.44,44.56 270.449,44.551C275.181,39.837 276.615,38.909 282,35C283.304,34.054 286.592,31.701 288.175,31.294C290.009,30.823 291.979,31.126 293.825,30.706C294.955,30.449 295.847,29.41 297,29.286C300.314,28.929 303.667,29.248 307,29.286C307.133,29.288 309,29.27 309,30M103,48C103,48.894 104.518,48.908 105,49C106.567,49.3 106.232,49.827 107.588,50.706C108.608,51.367 109.508,50.593 110.469,51.472C111.371,52.297 110.935,53.539 111.588,54.459C112.394,55.596 113.594,56.413 114.412,57.541C114.712,57.956 115.055,60.052 115.294,60.477C115.417,60.696 116.607,61.316 116.706,61.563C117.064,62.461 117.009,63.487 117.356,64.389C117.464,64.671 118.557,65.262 118.481,65.745C118.084,68.273 114.313,70.783 112.564,71.872C111.768,72.367 110.897,72.771 109.988,73C107.996,73.502 105.75,71.341 104.855,69.959C102.401,66.171 103.2,61.027 102.712,56.886C102.511,55.181 101.72,55.512 101.294,53.825C101.062,52.907 101,51.947 101,51C101,50.404 100.956,48.24 101.698,47.4C102.306,46.711 103,47.196 103,48M299,51C299,51.947 298.938,52.907 298.706,53.825C298.28,55.512 297.489,55.181 297.288,56.886C296.61,62.637 297.742,68.07 292.947,72.217C290.112,74.669 286.319,71.182 284.299,69.346C283.563,68.676 281.457,67.13 281.52,65.745C281.555,64.972 282.407,65.005 282.644,64.389C282.991,63.487 282.938,62.462 283.294,61.563C283.411,61.268 284.555,60.779 284.706,60.552C285.802,58.901 285.142,58.597 286.357,57C287.933,54.93 290.93,51.933 293,50.357C294.039,49.566 295.528,49.516 296.552,48.706C297.053,48.31 296.995,47.419 297.518,47.052C298.077,46.661 298.451,47.502 298.59,47.826C298.948,48.655 299,50.224 299,51M209,58L225,60C230.879,60.905 236.744,62.113 242.4,63.955C248.051,65.795 253.394,68.485 258.779,71C259.216,71.204 270.326,76.235 269,79.429C268.092,81.618 262.713,83.843 261.18,85C247.275,95.493 247.338,95.805 236,109C233.39,112.038 228.68,115.197 229.514,119.114C230.379,123.184 235.792,119.528 236.599,119C242.358,115.232 247.554,110.63 253.401,107C268.612,97.555 284.955,88.547 303,86C311.775,84.762 319.252,84.251 325,91.429C329.26,96.749 326.177,97.375 323,105C322.713,105.688 322.651,107.363 322,107C320.262,106.03 320.202,101.359 318.411,102.227C313.308,104.699 313.339,126.527 313.319,127.165C312.845,142.114 315.928,153.607 322,167C322.409,167.901 324.034,171.794 325.523,172.685C329.97,175.345 327.496,166.718 330,167C331.047,167.118 330.63,169.013 331,170C331.63,171.681 333.167,173.213 333,175C332.84,176.722 328.274,184.752 326.73,186.322C316.641,196.585 302.076,199.989 293,211.474C279.374,228.717 289,257.646 289,276L289,289L285,289C280.286,289 275.714,291 271,291L261,291L261,288C261,285.689 257.827,279.936 257,278C252.6,267.695 248.201,257.388 244,247C243.169,244.945 241.864,238.8 239.581,236.582C235.708,232.82 234.763,236.85 235,240L237,250C239.489,262.447 242.69,274.746 246,287C246.748,289.771 251.112,297.847 251,301C250.911,303.493 244.64,302.738 244.375,302.74C209.527,302.947 209.661,303.177 174.74,304.164C172.657,304.223 148.935,305.737 149.114,300.589C149.317,294.725 153.436,289.655 155,284C157.931,273.403 160.509,262.709 163,252C164.132,247.134 166.301,241.984 165.035,237.151C163.573,231.567 159.474,238.222 158.737,239.866C157.693,242.189 156.985,244.651 156,247C152.072,256.364 147.792,265.58 144,275C142.709,278.207 141.245,286.118 139,289C134.457,294.832 118.327,290.908 113.823,288.579C107.986,285.561 111.657,271.565 112,267C113.232,250.606 115.873,232.961 110,217C103.568,199.519 80.679,197.882 70.969,183.306C66.366,176.396 67.139,175.342 70,167C70.342,166.003 70.591,169.028 71,170C71.823,171.955 73.09,174.853 75.543,171.543C84.176,159.896 86.476,143.964 87,130C87.207,124.493 88.157,105.098 81.544,102.48C79.764,101.776 79.731,106.182 78,107C77.326,107.319 77.302,105.681 77,105C76.154,103.095 75.12,101.251 74.558,99.245C73.093,94.027 72.958,91.902 77.712,88.218C82.805,84.272 91.822,85.311 97,86C116.973,88.656 134.648,98.949 151,110C155.367,112.951 159.622,116.065 164,119C165.364,119.914 168.22,121.924 170.17,120.624C171.889,119.478 169.595,116.376 168.419,114.677C167.053,112.706 165.562,110.819 164,109C160.209,104.585 156.58,99.997 152.368,95.982C148.16,91.971 143.46,88.502 138.82,85C137.469,83.981 131.739,81.49 131,79.429C129.683,75.758 142.451,70.256 143,70C146.903,68.177 150.829,66.366 154.908,64.979C158.988,63.592 163.175,62.478 167.414,61.701C175.89,60.148 184.442,59.007 193,58C193,58 209,55.333 209,58M101,132C101,134.949 92.987,130.767 93,134.571C93.011,137.885 97.567,137.836 99,140C99.26,140.393 98.092,140.538 98,141C97.408,143.96 97,146.982 97,150C97,153.018 97.467,156.029 98,159C98.892,163.975 102.274,161.256 105.371,164.329C111.239,170.153 107.752,172.245 113.433,178.481C115.691,180.96 118.603,182.826 121.551,184.423C130.137,189.076 141.519,190.424 151,188C154.612,187.077 155.088,183.352 157.975,186.278C161.904,190.26 157.271,201.783 157,205C156.895,206.249 157.184,209.593 159.431,208.911C165.207,207.158 168.621,195.797 170,191C170.483,189.319 169.974,185.064 171.47,183.534C174.01,180.937 176.109,183.674 178.858,181.753C183.314,178.638 189.459,172.101 186.639,165.816C185.727,163.783 183.802,165.824 183,166C177.156,167.28 170.506,167.722 165.236,164.263C158.434,159.797 153.293,151.924 146.875,146.857C136.712,138.834 125.718,134.312 113,132C113,132 101,129.333 101,132M177,132.522C177,133.441 178.053,134.637 178.609,135.206C181.306,137.965 183.906,140.832 186.794,143.391C190.041,146.268 190.301,145.762 194.413,147.294C198.339,148.756 198.247,149.406 202.351,148.695C208.32,147.661 213.282,143.534 217.504,139.504C219.308,137.782 222.026,134.814 223,132.522C223.549,131.231 221.235,131.02 220.907,131.013C219.894,130.991 218.864,131.051 217.881,131.294C216.772,131.569 217.423,132.321 216.413,132.706C215.514,133.048 214.487,132.952 213.588,133.294C212.571,133.681 213.175,134.443 212.119,134.706C210.735,135.05 209.267,134.959 207.881,135.294C203.911,136.253 204.124,137 200,137C195.876,137 196.089,136.253 192.119,135.294C190.733,134.959 189.265,135.05 187.881,134.706C186.825,134.443 187.435,133.683 186.413,133.294C185.514,132.952 184.487,133.048 183.588,132.706C182.581,132.323 183.178,131.576 182.119,131.294C181.27,131.068 177,130.165 177,132.522M287,132L277,134C260.439,138.141 249.983,151.384 237.434,161.842C232.677,165.805 230.152,167 224,167C219.412,167 211.151,161.537 212.894,170.623C213.868,175.696 219.301,179.57 223,182C224.674,183.099 227.113,181.707 228.562,183.583C229.983,185.423 229.42,189.017 230,191C231.337,195.567 234.881,207.803 240.847,209.005C242.628,209.364 243.086,205.814 243,204C242.707,197.826 240.197,195.31 242,189L244,185C244.422,184.789 244.608,185.739 245,186L249,188C267.068,191.012 279.815,186.551 291,172C293.552,168.68 291.381,167.458 294.512,164.451C298.352,160.763 301.269,163.783 302.794,158.271C304.102,153.542 302.74,144.852 302,141C301.911,140.537 300.685,140.351 301,140C302.785,138.009 306.88,137.743 307.36,135.113C307.49,134.404 306.806,133.546 306.114,133.348C301.845,132.125 297.389,131.678 293,131C290.996,130.69 287,129.972 287,132M123,150C123,151.158 126.042,151.357 126.459,151.588C127.068,151.926 127.45,152.572 128,153C129.431,154.114 131.193,154.756 132.616,155.881C134.269,157.188 135.671,158.792 137.308,160.119C139.217,161.666 139.54,161.108 141.419,162.68C142.846,163.874 144.155,165.202 145.503,166.485C147.862,168.73 149.449,169.768 150.722,172.57C151.009,173.202 150.943,174.33 150.416,174.855C147.907,177.355 143.737,177.04 140.571,177C138.759,176.977 136.944,176.916 135.143,176.717C133.6,176.546 133.868,176.04 132.55,175.294C132.139,175.061 129.763,174.259 129.365,173.982C127.392,172.608 125.392,170.608 124.018,168.635C123.105,167.324 123.579,166.78 122.706,165.45C122.553,165.217 122.139,165.242 122,165C120.745,162.822 120.948,159.293 121,157C121.044,155.082 121.043,153.154 121.281,151.25C121.379,150.469 121.576,149.663 122,149C122.254,148.603 123,149.529 123,150M279,157C279,158.919 278.916,160.841 278.719,162.75C278.558,164.309 278.066,164.068 277.294,165.45C277.059,165.87 276.244,168.29 275.957,168.696C274.756,170.395 272.395,172.756 270.696,173.957C270.278,174.253 267.883,175.05 267.45,175.294C266.124,176.04 266.399,176.545 264.857,176.717C260.617,177.191 255.579,177.693 251.425,176.08C250.742,175.815 248.331,174.37 249,173.045C250.599,169.875 254.106,166.466 256.876,164.368C258.155,163.4 259.709,162.827 260.961,161.825C263.135,160.085 264.973,157.956 267.113,156.175C267.801,155.602 269.871,154.927 270.583,154.413C272.081,153.332 271.949,152.576 273.541,151.588C274.409,151.049 275.637,151.287 276.477,150.706C276.821,150.468 276.904,149.985 277.142,149.641C277.345,149.347 277.824,148.69 278,149C279.277,151.251 279,154.576 279,157M77,278.779C77,281.176 79.494,282.89 81,284.754C89.382,295.129 100.268,300.7 113,304C117.305,305.116 121.65,306.074 126,307C126.342,307.073 128.597,306.936 128.863,307.74C129.126,308.534 127.207,309.742 127,310C126.249,310.938 125.603,311.96 125,313C121.623,318.822 119,323.263 119,330L119,337L115,337C112.502,337 107.201,334.923 105,334C91.578,328.374 81.198,321.196 76,307C73.446,300.026 72.319,291.675 73.181,284.268C73.407,282.324 73.53,280.315 74.25,278.496C74.992,276.621 77,276.413 77,278.779M327,288C327,292.262 326.604,296.548 325.768,300.728C324.929,304.924 323.708,309.077 322,313C317.134,324.176 305.593,329.773 295,334C292.688,334.923 287.607,337 285,337L281,337L281,329C281,322.816 279.974,320.655 277,315.401C275.056,311.966 274.712,312.317 272.154,309.417C271.679,308.879 271.007,308.317 271,307.599C270.99,306.579 273.002,307.208 274,307C275.032,306.785 275.975,306.245 277,306C286.458,303.738 289.998,303.89 299,300C304.444,297.647 312.359,292.718 316.556,288.461C321.172,283.779 319.161,282.428 323.5,277.5C324.685,276.154 326.508,277.191 326.705,278.625C327.13,281.723 327,284.873 327,288M257,318L261,320C270.833,324.917 265.776,335.66 262,343C258.705,349.404 255.536,355.904 251.635,361.958C249.69,364.975 247.141,367.583 244.554,370.071C223.144,390.67 187.443,392.818 162.908,376.379C154,370.411 148.237,362.383 143,353.221C138.041,344.547 138.329,344.609 135,335C134.31,333.008 132.715,331.089 133,329C133.482,325.46 138.927,318.334 143,318C161.939,316.446 181.019,317.903 200,317C211.244,316.465 224.776,312.44 235.626,310.374C242.55,309.056 257,306.773 257,318M143.25,327.525C141.485,329.409 140.82,331.629 141.092,334.172C141.165,334.858 142.487,335.056 142.706,335.587C143.073,336.477 142.956,337.512 143.294,338.413C143.51,338.989 144.413,338.975 144.706,339.447C145.468,340.673 145.742,342.202 146.671,343.307C152.217,349.906 159.378,357.382 168.589,354.037C169.866,353.573 171.081,352.927 172.22,352.186C173.387,351.427 174.486,350.546 175.469,349.561C177.491,347.535 181.059,342.992 182.413,340.459C182.895,339.558 182.838,338.437 183.294,337.523C183.53,337.05 184.957,336.547 185.016,335.86C185.288,332.693 184.805,329.877 182.545,327.455C181.884,326.747 180.863,326.422 179.917,326.217C174.161,324.968 168.664,324.642 162.812,324.651C157.003,324.66 151.509,325.006 145.803,326.278C144.879,326.484 143.897,326.834 143.25,327.525M217.25,327.525C215.781,329.094 214.527,331.941 215.092,334.172C215.277,334.904 216.353,335.095 216.706,335.763C217.817,337.868 216.482,338.239 217.808,340.253C219.361,342.611 221.236,344.742 223,346.947C227.489,352.56 232.088,355.623 239.531,354.706C240.905,354.537 240.384,353.742 241.588,353.294C243.727,352.497 243.643,352.531 245.462,351.294C246.718,350.44 248.356,350.787 249.477,349.615C250.18,348.88 250.408,347.799 251,346.973C252.65,344.673 254.638,342.619 256.192,340.253C257.491,338.275 256.17,337.868 257.294,335.763C257.654,335.088 258.758,334.905 258.936,334.161C259.423,332.123 258.195,328.73 256.545,327.455C251.7,323.712 242.137,324.605 236.812,324.651C230.812,324.703 225.727,324.958 219.803,326.278C218.879,326.484 217.897,326.834 217.25,327.525M127,355C127,355.63 127.156,356.364 127.612,356.842C127.971,357.218 128.554,356.98 128.706,357.587C128.939,358.52 129.023,359.49 129.294,360.413C129.561,361.321 131.791,361.206 130.849,362.673C130.227,363.642 128.504,362.578 127.902,362.194C126.074,361.027 125.016,360.008 123.301,358.357C122.566,357.65 119.849,355.346 119.325,353.72C119.182,353.277 120.013,353.111 120.206,353.097C121.136,353.03 122.068,353.022 123,353C124.544,352.963 127,352.854 127,355M281,353.526C281,354.249 280.089,354.798 279.686,355.212C277.282,357.678 275.033,360.321 272.098,362.194C271.481,362.587 270.551,363.14 269.77,363.019C269.276,362.943 268.905,362.524 269,362C269.202,360.89 270.428,361.36 270.706,360.413C270.977,359.49 271.041,358.515 271.294,357.587C271.49,356.868 272.515,357.133 272.706,356.413C272.916,355.62 272.747,353.869 273.75,353.375C275.5,352.513 278.06,352.968 279.825,353.155C280.115,353.186 280.406,353.234 280.684,353.322C280.804,353.36 281,353.401 281,353.526"/>
    </g>
</svg>
