<svg id="svg" version="1.1" width="400" height="400" xmlns="http://www.w3.org/2000/svg" xmlns:xlink="http://www.w3.org/1999/xlink" style="display: block;"><g id="svgg"><path id="path0" d="M263.607 14.377 C 255.573 22.384,249.000 29.397,249.000 29.960 C 249.000 30.524,244.725 35.232,239.500 40.423 C 231.037 48.831,230.000 50.252,230.000 53.431 C 230.000 55.394,229.550 57.000,229.000 57.000 C 228.450 57.000,228.000 58.350,228.000 60.000 C 228.000 61.650,227.550 63.000,227.000 63.000 C 226.450 63.000,226.000 65.025,226.000 67.500 C 226.000 69.975,225.550 72.000,225.000 72.000 C 224.450 72.000,224.000 73.350,224.000 75.000 C 224.000 76.650,223.550 78.000,223.000 78.000 C 222.450 78.000,222.000 80.177,222.000 82.839 L 222.000 87.677 185.759 88.312 C 162.411 88.720,149.396 89.311,149.176 89.973 C 148.978 90.567,145.286 91.000,140.417 91.000 C 135.472 91.000,132.000 91.413,132.000 92.000 C 132.000 92.550,129.750 93.000,127.000 93.000 C 124.250 93.000,122.000 93.450,122.000 94.000 C 122.000 94.550,120.650 95.000,119.000 95.000 C 117.350 95.000,116.000 95.450,116.000 96.000 C 116.000 96.550,114.875 97.000,113.500 97.000 C 111.250 97.000,111.000 97.400,111.000 101.000 C 111.000 103.889,111.417 105.000,112.500 105.000 C 113.325 105.000,114.000 105.450,114.000 106.000 C 114.000 106.550,115.800 107.000,118.000 107.000 C 120.200 107.000,122.000 107.450,122.000 108.000 C 122.000 108.554,124.639 109.000,127.917 109.000 C 131.272 109.000,133.989 109.468,134.194 110.082 C 134.432 110.796,142.627 111.359,158.277 111.735 C 171.325 112.049,182.000 112.687,182.000 113.153 C 182.000 113.619,190.100 114.000,200.000 114.000 C 209.900 114.000,218.000 113.619,218.000 113.153 C 218.000 112.687,228.675 112.049,241.723 111.735 C 257.373 111.359,265.568 110.796,265.806 110.082 C 266.011 109.468,268.728 109.000,272.083 109.000 C 275.361 109.000,278.000 108.554,278.000 108.000 C 278.000 107.450,279.800 107.000,282.000 107.000 C 284.200 107.000,286.000 106.550,286.000 106.000 C 286.000 105.450,286.675 105.000,287.500 105.000 C 288.583 105.000,289.000 103.889,289.000 101.000 C 289.000 98.111,288.583 97.000,287.500 97.000 C 286.675 97.000,286.000 96.550,286.000 96.000 C 286.000 95.450,284.200 95.000,282.000 95.000 C 279.800 95.000,278.000 94.550,278.000 94.000 C 278.000 93.450,275.750 93.000,273.000 93.000 C 270.250 93.000,268.000 92.550,268.000 92.000 C 268.000 91.412,264.500 91.000,259.500 91.000 C 254.500 91.000,251.000 90.588,251.000 90.000 C 251.000 89.429,248.000 89.000,244.000 89.000 C 237.200 89.000,237.000 88.929,237.000 86.500 C 237.000 85.125,237.450 84.000,238.000 84.000 C 238.550 84.000,239.000 82.650,239.000 81.000 C 239.000 79.350,239.450 78.000,240.000 78.000 C 240.550 78.000,241.000 76.200,241.000 74.000 C 241.000 71.800,241.450 70.000,242.000 70.000 C 242.550 70.000,243.000 67.975,243.000 65.500 C 243.000 63.025,243.450 61.000,244.000 61.000 C 244.550 61.000,245.000 60.319,245.000 59.486 C 245.000 58.653,248.713 54.165,253.250 49.512 C 257.788 44.860,262.494 40.029,263.710 38.777 C 264.925 37.525,267.717 34.925,269.914 33.000 C 272.110 31.075,273.929 28.929,273.954 28.231 C 273.979 27.534,276.813 24.074,280.250 20.544 C 283.688 17.013,287.063 13.440,287.750 12.604 C 289.422 10.571,289.336 6.193,287.589 4.446 C 286.813 3.671,286.026 2.615,285.839 2.101 C 285.653 1.588,283.861 0.863,281.857 0.492 C 278.240 -0.178,278.108 -0.077,263.607 14.377 M216.000 104.000 C 216.000 104.550,217.350 105.000,219.000 105.000 C 220.650 105.000,222.000 105.450,222.000 106.000 C 222.000 107.518,217.052 107.195,215.429 105.571 C 213.753 103.896,213.604 103.000,215.000 103.000 C 215.550 103.000,216.000 103.450,216.000 104.000 M236.000 105.000 C 236.000 106.556,235.333 107.000,233.000 107.000 C 231.350 107.000,230.000 106.550,230.000 106.000 C 230.000 105.450,230.900 105.000,232.000 105.000 C 233.100 105.000,234.000 104.550,234.000 104.000 C 234.000 103.450,234.450 103.000,235.000 103.000 C 235.550 103.000,236.000 103.900,236.000 105.000 M111.000 112.500 C 111.000 114.425,111.395 116.000,111.878 116.000 C 112.361 116.000,113.085 125.225,113.488 136.500 C 113.891 147.775,114.621 157.000,115.110 157.000 C 115.600 157.000,116.000 160.375,116.000 164.500 C 116.000 168.833,116.422 172.000,117.000 172.000 C 117.603 172.000,118.000 176.167,118.000 182.500 C 118.000 188.833,118.397 193.000,119.000 193.000 C 119.550 193.000,120.000 195.250,120.000 198.000 C 120.000 202.333,120.267 203.000,122.000 203.000 C 123.333 203.000,124.000 202.333,124.000 201.000 C 124.000 199.900,124.450 199.000,125.000 199.000 C 125.550 199.000,126.000 197.650,126.000 196.000 C 126.000 194.350,126.450 193.000,127.000 193.000 C 127.550 193.000,128.000 192.100,128.000 191.000 C 128.000 189.900,128.450 189.000,129.000 189.000 C 129.550 189.000,130.000 188.325,130.000 187.500 C 130.000 186.675,130.450 186.000,131.000 186.000 C 131.550 186.000,132.000 185.199,132.000 184.221 C 132.000 183.242,132.900 181.793,134.000 181.000 C 135.100 180.207,136.000 178.788,136.000 177.846 C 136.000 175.807,145.285 166.000,147.214 166.000 C 147.954 166.000,149.207 165.100,150.000 164.000 C 155.040 157.007,174.000 166.865,174.000 176.478 C 174.000 179.725,173.765 180.000,171.000 180.000 C 168.791 180.000,168.000 179.531,168.000 178.221 C 168.000 177.242,167.100 175.793,166.000 175.000 C 164.900 174.207,164.000 172.758,164.000 171.779 C 164.000 170.289,163.106 170.000,158.500 170.000 C 155.475 170.000,153.000 170.450,153.000 171.000 C 153.000 171.550,152.305 172.000,151.455 172.000 C 149.565 172.000,145.000 176.409,145.000 178.234 C 145.000 178.962,144.100 180.207,143.000 181.000 C 141.900 181.793,141.000 183.242,141.000 184.221 C 141.000 185.199,140.559 186.000,140.019 186.000 C 139.480 186.000,138.756 187.125,138.411 188.500 C 138.066 189.875,137.382 191.000,136.892 191.000 C 136.401 191.000,136.000 191.900,136.000 193.000 C 136.000 194.100,135.550 195.000,135.000 195.000 C 134.450 195.000,134.000 195.900,134.000 197.000 C 134.000 198.100,133.550 199.000,133.000 199.000 C 132.450 199.000,132.000 200.350,132.000 202.000 C 132.000 203.650,131.550 205.000,131.000 205.000 C 130.450 205.000,130.000 206.350,130.000 208.000 C 130.000 209.650,129.550 211.000,129.000 211.000 C 127.373 211.000,127.755 224.898,129.429 226.571 C 131.621 228.764,138.266 228.405,140.000 226.000 C 140.793 224.900,142.032 224.000,142.754 224.000 C 144.460 224.000,151.000 217.460,151.000 215.754 C 151.000 215.032,151.900 213.793,153.000 213.000 C 154.100 212.207,155.000 210.983,155.000 210.279 C 155.000 209.576,155.450 209.000,156.000 209.000 C 156.550 209.000,157.000 208.100,157.000 207.000 C 157.000 205.900,157.450 205.000,158.000 205.000 C 158.550 205.000,159.000 203.200,159.000 201.000 C 159.000 198.800,159.420 197.000,159.933 197.000 C 160.446 197.000,161.151 196.100,161.500 195.000 C 162.905 190.574,166.000 192.637,166.000 198.000 C 166.000 200.750,165.586 203.000,165.080 203.000 C 164.573 203.000,163.846 205.925,163.463 209.500 C 163.080 213.075,162.369 216.000,161.884 216.000 C 161.398 216.000,161.000 217.350,161.000 219.000 C 161.000 220.650,160.550 222.000,160.000 222.000 C 159.450 222.000,159.000 223.350,159.000 225.000 C 159.000 226.650,158.550 228.000,158.000 228.000 C 157.450 228.000,157.000 229.800,157.000 232.000 C 157.000 234.200,156.550 236.000,156.000 236.000 C 155.450 236.000,155.000 237.125,155.000 238.500 C 155.000 239.875,154.550 241.000,154.000 241.000 C 153.450 241.000,153.000 241.900,153.000 243.000 C 153.000 244.100,152.550 245.000,152.000 245.000 C 151.450 245.000,151.000 245.900,151.000 247.000 C 151.000 248.333,150.333 249.000,149.000 249.000 C 147.222 249.000,147.000 248.333,147.000 243.000 C 147.000 239.667,147.444 237.000,148.000 237.000 C 148.550 237.000,149.000 235.875,149.000 234.500 C 149.000 233.125,149.450 232.000,150.000 232.000 C 150.550 232.000,151.000 231.100,151.000 230.000 C 151.000 228.749,150.333 228.000,149.221 228.000 C 148.242 228.000,146.793 228.900,146.000 230.000 C 145.207 231.100,143.857 232.000,143.000 232.000 C 142.143 232.000,140.793 232.900,140.000 234.000 C 139.207 235.100,137.983 236.000,137.279 236.000 C 136.576 236.000,136.000 236.450,136.000 237.000 C 136.000 237.556,133.333 238.000,130.000 238.000 L 124.000 238.000 124.000 243.500 C 124.000 246.525,124.450 249.000,125.000 249.000 C 125.578 249.000,126.000 252.167,126.000 256.500 C 126.000 260.833,126.422 264.000,127.000 264.000 C 127.606 264.000,128.000 268.333,128.000 275.000 C 128.000 281.667,128.394 286.000,129.000 286.000 C 129.564 286.000,130.000 288.833,130.000 292.500 C 130.000 298.065,130.256 299.000,131.779 299.000 C 132.758 299.000,134.207 299.900,135.000 301.000 C 135.793 302.100,137.467 303.000,138.721 303.000 C 139.974 303.000,141.000 303.450,141.000 304.000 C 141.000 304.550,142.350 305.000,144.000 305.000 C 145.650 305.000,147.000 305.450,147.000 306.000 C 147.000 306.550,148.800 307.000,151.000 307.000 C 153.200 307.000,155.000 307.450,155.000 308.000 C 155.000 308.563,157.806 309.000,161.417 309.000 C 165.382 309.000,167.981 309.442,168.219 310.156 C 168.768 311.805,227.232 311.805,227.781 310.156 C 228.019 309.442,230.618 309.000,234.583 309.000 C 238.194 309.000,241.000 308.563,241.000 308.000 C 241.000 307.450,242.800 307.000,245.000 307.000 C 247.200 307.000,249.000 306.550,249.000 306.000 C 249.000 305.450,250.800 305.000,253.000 305.000 C 255.200 305.000,257.000 304.550,257.000 304.000 C 257.000 303.450,257.900 303.000,259.000 303.000 C 260.100 303.000,261.000 302.550,261.000 302.000 C 261.000 301.450,261.675 301.000,262.500 301.000 C 263.325 301.000,264.000 300.550,264.000 300.000 C 264.000 299.450,264.900 299.000,266.000 299.000 C 267.843 299.000,268.000 298.333,268.000 290.500 C 268.000 285.500,268.412 282.000,269.000 282.000 C 269.593 282.000,270.000 278.333,270.000 273.000 C 270.000 267.667,270.407 264.000,271.000 264.000 C 271.596 264.000,272.000 260.167,272.000 254.500 C 272.000 248.833,272.404 245.000,273.000 245.000 C 273.564 245.000,274.000 242.167,274.000 238.500 C 274.000 234.833,274.436 232.000,275.000 232.000 C 275.550 232.000,276.000 231.100,276.000 230.000 C 276.000 228.667,275.333 228.000,274.000 228.000 C 272.900 228.000,272.000 228.450,272.000 229.000 C 272.000 229.550,271.199 230.000,270.221 230.000 C 269.242 230.000,267.793 230.900,267.000 232.000 C 266.207 233.100,264.533 234.000,263.279 234.000 C 262.026 234.000,261.000 234.450,261.000 235.000 C 261.000 235.550,260.100 236.000,259.000 236.000 C 257.900 236.000,257.000 236.450,257.000 237.000 C 257.000 238.951,251.872 237.963,249.455 235.545 C 247.037 233.128,246.049 228.000,248.000 228.000 C 248.550 228.000,249.000 227.296,249.000 226.435 C 249.000 225.574,251.250 222.679,254.000 220.000 C 256.750 217.321,259.000 214.426,259.000 213.565 C 259.000 212.704,259.675 212.000,260.500 212.000 C 261.433 212.000,262.000 211.056,262.000 209.500 C 262.000 207.500,261.500 207.000,259.500 207.000 C 258.125 207.000,257.000 207.450,257.000 208.000 C 257.000 208.550,256.305 209.000,255.455 209.000 C 254.605 209.000,252.867 210.012,251.593 211.250 C 250.318 212.488,248.314 214.162,247.138 214.971 C 245.962 215.780,245.000 217.242,245.000 218.221 C 245.000 219.199,244.550 220.000,244.000 220.000 C 243.450 220.000,243.000 220.900,243.000 222.000 C 243.000 223.100,242.550 224.000,242.000 224.000 C 241.450 224.000,241.000 224.900,241.000 226.000 C 241.000 227.100,240.590 228.000,240.088 228.000 C 239.586 228.000,238.872 229.800,238.500 232.000 C 238.128 234.200,237.414 236.000,236.912 236.000 C 236.410 236.000,236.000 237.125,236.000 238.500 C 236.000 239.875,235.550 241.000,235.000 241.000 C 234.450 241.000,234.000 241.900,234.000 243.000 C 234.000 244.100,233.550 245.000,233.000 245.000 C 232.450 245.000,232.000 246.350,232.000 248.000 C 232.000 249.650,231.550 251.000,231.000 251.000 C 230.450 251.000,230.000 251.801,230.000 252.779 C 230.000 253.758,229.100 255.207,228.000 256.000 C 226.900 256.793,226.000 258.049,226.000 258.792 C 226.000 261.537,223.180 263.323,221.500 261.643 C 219.803 259.946,219.486 257.000,221.000 257.000 C 221.550 257.000,222.000 255.650,222.000 254.000 C 222.000 252.350,222.450 251.000,223.000 251.000 C 223.550 251.000,224.000 250.100,224.000 249.000 C 224.000 247.900,224.450 247.000,225.000 247.000 C 225.550 247.000,226.000 246.100,226.000 245.000 C 226.000 243.900,226.450 243.000,227.000 243.000 C 227.550 243.000,228.000 241.650,228.000 240.000 C 228.000 238.350,228.450 237.000,229.000 237.000 C 229.550 237.000,230.000 236.325,230.000 235.500 C 230.000 234.675,230.450 234.000,231.000 234.000 C 231.550 234.000,232.000 233.100,232.000 232.000 C 232.000 230.749,231.333 230.000,230.221 230.000 C 229.242 230.000,227.793 230.900,227.000 232.000 C 226.207 233.100,224.758 234.000,223.779 234.000 C 222.801 234.000,222.000 234.450,222.000 235.000 C 222.000 235.550,220.688 236.000,219.083 236.000 C 217.479 236.000,215.965 236.562,215.718 237.250 C 215.414 238.098,214.625 237.776,213.267 236.250 C 211.226 233.956,205.000 233.014,205.000 235.000 C 205.000 235.550,204.138 236.000,203.083 236.000 C 202.029 236.000,200.904 236.563,200.583 237.250 C 200.117 238.250,199.883 238.250,199.417 237.250 C 199.096 236.562,198.164 236.000,197.345 236.000 C 195.060 236.000,193.000 233.426,193.000 230.571 C 193.000 228.667,192.481 228.000,191.000 228.000 C 189.722 228.000,189.000 228.667,189.000 229.847 C 189.000 232.246,185.725 236.000,183.633 236.000 C 182.735 236.000,182.000 236.450,182.000 237.000 C 182.000 239.116,174.951 238.042,172.455 235.545 C 169.891 232.982,168.712 222.000,171.000 222.000 C 171.550 222.000,172.000 220.650,172.000 219.000 C 172.000 217.350,172.450 216.000,173.000 216.000 C 173.550 216.000,174.000 215.100,174.000 214.000 C 174.000 212.900,174.450 212.000,175.000 212.000 C 175.550 212.000,176.000 211.325,176.000 210.500 C 176.000 209.675,176.450 209.000,177.000 209.000 C 177.550 209.000,178.000 208.310,178.000 207.467 C 178.000 206.062,184.228 199.000,185.467 199.000 C 185.760 199.000,186.000 200.350,186.000 202.000 C 186.000 203.650,185.550 205.000,185.000 205.000 C 184.450 205.000,184.000 205.900,184.000 207.000 C 184.000 208.100,183.550 209.000,183.000 209.000 C 182.450 209.000,182.000 210.125,182.000 211.500 C 182.000 212.875,181.550 214.000,181.000 214.000 C 180.450 214.000,180.000 214.900,180.000 216.000 C 180.000 217.100,179.550 218.000,179.000 218.000 C 178.450 218.000,178.000 219.350,178.000 221.000 C 178.000 222.650,177.550 224.000,177.000 224.000 C 176.450 224.000,176.000 225.350,176.000 227.000 C 176.000 230.906,182.514 231.523,185.029 227.855 C 185.838 226.675,187.963 224.215,189.750 222.388 C 191.537 220.561,193.000 218.377,193.000 217.533 C 193.000 216.690,193.450 216.000,194.000 216.000 C 194.550 216.000,195.000 215.100,195.000 214.000 C 195.000 212.900,195.450 212.000,196.000 212.000 C 196.550 212.000,197.000 211.325,197.000 210.500 C 197.000 209.675,197.450 209.000,198.000 209.000 C 198.550 209.000,199.000 208.310,199.000 207.467 C 199.000 206.062,205.228 199.000,206.467 199.000 C 206.760 199.000,207.000 199.900,207.000 201.000 C 207.000 202.100,206.550 203.000,206.000 203.000 C 205.450 203.000,205.000 204.350,205.000 206.000 C 205.000 207.650,204.550 209.000,204.000 209.000 C 203.450 209.000,203.000 209.900,203.000 211.000 C 203.000 212.100,202.550 213.000,202.000 213.000 C 201.450 213.000,201.000 214.125,201.000 215.500 C 201.000 216.875,200.550 218.000,200.000 218.000 C 199.444 218.000,199.000 220.667,199.000 224.000 L 199.000 230.000 202.545 230.000 C 207.835 230.000,211.004 226.361,211.715 219.470 C 212.026 216.462,212.667 214.000,213.140 214.000 C 213.613 214.000,214.000 213.325,214.000 212.500 C 214.000 211.675,214.450 211.000,215.000 211.000 C 215.550 211.000,216.000 209.650,216.000 208.000 C 216.000 206.350,216.450 205.000,217.000 205.000 C 217.550 205.000,218.000 203.650,218.000 202.000 C 218.000 200.350,218.450 199.000,219.000 199.000 C 219.550 199.000,220.000 198.100,220.000 197.000 C 220.000 195.900,220.450 195.000,221.000 195.000 C 221.550 195.000,222.000 193.650,222.000 192.000 C 222.000 190.350,222.450 189.000,223.000 189.000 C 223.550 189.000,224.000 188.325,224.000 187.500 C 224.000 186.675,224.450 186.000,225.000 186.000 C 225.550 186.000,226.000 185.100,226.000 184.000 C 226.000 182.900,226.450 182.000,227.000 182.000 C 227.550 182.000,228.000 180.650,228.000 179.000 C 228.000 177.350,228.450 176.000,229.000 176.000 C 229.550 176.000,230.000 175.305,230.000 174.455 C 230.000 171.437,234.819 167.676,236.513 169.370 C 238.199 171.056,238.509 174.000,237.000 174.000 C 236.450 174.000,236.000 175.800,236.000 178.000 C 236.000 180.200,235.550 182.000,235.000 182.000 C 234.450 182.000,234.000 182.900,234.000 184.000 C 234.000 185.100,233.550 186.000,233.000 186.000 C 232.450 186.000,232.000 186.675,232.000 187.500 C 232.000 188.325,231.550 189.000,231.000 189.000 C 230.450 189.000,230.000 190.350,230.000 192.000 C 230.000 193.650,229.550 195.000,229.000 195.000 C 228.450 195.000,228.000 195.900,228.000 197.000 C 228.000 198.100,227.550 199.000,227.000 199.000 C 226.450 199.000,226.000 199.900,226.000 201.000 C 226.000 202.100,225.550 203.000,225.000 203.000 C 224.450 203.000,224.000 204.350,224.000 206.000 C 224.000 207.650,223.550 209.000,223.000 209.000 C 222.450 209.000,222.000 209.900,222.000 211.000 C 222.000 212.100,221.550 213.000,221.000 213.000 C 220.450 213.000,220.000 214.125,220.000 215.500 C 220.000 216.875,219.550 218.000,219.000 218.000 C 218.444 218.000,218.000 220.667,218.000 224.000 C 218.000 229.333,218.222 230.000,220.000 230.000 C 221.100 230.000,222.000 229.550,222.000 229.000 C 222.000 228.450,222.900 228.000,224.000 228.000 C 225.100 228.000,226.000 227.550,226.000 227.000 C 226.000 226.450,226.710 226.000,227.578 226.000 C 229.767 226.000,237.000 218.261,237.000 215.918 C 237.000 214.863,237.450 214.000,238.000 214.000 C 238.550 214.000,239.000 213.325,239.000 212.500 C 239.000 211.675,239.450 211.000,240.000 211.000 C 240.550 211.000,241.000 209.650,241.000 208.000 C 241.000 206.350,241.450 205.000,242.000 205.000 C 242.550 205.000,243.000 204.100,243.000 203.000 C 243.000 201.667,243.667 201.000,245.000 201.000 C 246.333 201.000,247.000 201.667,247.000 203.000 C 247.000 204.520,247.667 205.000,249.779 205.000 C 251.411 205.000,253.153 204.174,254.000 203.000 C 254.793 201.900,256.242 201.000,257.221 201.000 C 258.199 201.000,259.000 200.550,259.000 200.000 C 259.000 198.460,266.959 198.816,268.571 200.429 C 270.801 202.658,270.426 210.251,268.000 212.000 C 266.900 212.793,266.000 213.811,266.000 214.263 C 266.000 215.276,264.695 216.874,259.250 222.532 C 254.145 227.836,253.782 230.000,258.000 230.000 C 259.650 230.000,261.000 229.550,261.000 229.000 C 261.000 228.450,261.675 228.000,262.500 228.000 C 263.325 228.000,264.000 227.550,264.000 227.000 C 264.000 226.450,264.687 226.000,265.526 226.000 C 268.105 226.000,276.000 217.351,276.000 214.526 C 276.000 213.137,276.450 212.000,277.000 212.000 C 277.588 212.000,278.000 208.500,278.000 203.500 C 278.000 198.500,278.412 195.000,279.000 195.000 C 279.578 195.000,280.000 191.833,280.000 187.500 C 280.000 183.167,280.422 180.000,281.000 180.000 C 281.603 180.000,282.000 175.833,282.000 169.500 C 282.000 163.167,282.397 159.000,283.000 159.000 C 283.570 159.000,284.000 156.028,284.000 152.083 C 284.000 148.279,284.396 145.017,284.880 144.833 C 286.694 144.146,287.408 109.000,285.607 109.000 C 284.723 109.000,284.000 109.450,284.000 110.000 C 284.000 110.550,282.200 111.000,280.000 111.000 C 277.800 111.000,276.000 111.407,276.000 111.904 C 276.000 112.401,271.275 113.130,265.500 113.523 C 259.725 113.917,255.000 114.635,255.000 115.119 C 255.000 115.604,246.225 116.000,235.500 116.000 C 223.167 116.000,216.000 116.368,216.000 117.000 C 216.000 117.630,209.333 118.000,198.000 118.000 C 186.667 118.000,180.000 117.630,180.000 117.000 C 180.000 116.369,173.167 116.000,161.500 116.000 C 151.325 116.000,143.000 115.604,143.000 115.119 C 143.000 114.635,138.275 113.917,132.500 113.523 C 126.725 113.130,122.000 112.401,122.000 111.904 C 122.000 111.407,120.200 111.000,118.000 111.000 C 115.800 111.000,114.000 110.550,114.000 110.000 C 114.000 109.450,113.325 109.000,112.500 109.000 C 111.452 109.000,111.000 110.056,111.000 112.500 M136.000 308.893 C 136.000 309.934,136.675 311.045,137.500 311.362 C 138.325 311.678,139.000 312.851,139.000 313.969 C 139.000 315.086,139.450 316.000,140.000 316.000 C 140.550 316.000,141.000 316.801,141.000 317.779 C 141.000 318.758,141.900 320.207,143.000 321.000 C 144.100 321.793,145.000 323.242,145.000 324.221 C 145.000 325.199,145.450 326.000,146.000 326.000 C 146.609 326.000,147.000 330.500,147.000 337.500 C 147.000 344.500,147.391 349.000,148.000 349.000 C 148.624 349.000,149.000 354.833,149.000 364.500 C 149.000 374.167,149.376 380.000,150.000 380.000 C 150.550 380.000,151.000 382.282,151.000 385.071 C 151.000 390.297,152.510 393.000,155.429 393.000 C 156.293 393.000,157.000 393.450,157.000 394.000 C 157.000 394.550,158.350 395.000,160.000 395.000 C 161.650 395.000,163.000 395.450,163.000 396.000 C 163.000 396.550,164.988 397.000,167.417 397.000 C 169.846 397.000,171.993 397.478,172.187 398.061 C 172.425 398.776,181.524 399.123,200.000 399.123 C 218.476 399.123,227.575 398.776,227.813 398.061 C 228.007 397.478,230.154 397.000,232.583 397.000 C 235.013 397.000,237.000 396.550,237.000 396.000 C 237.000 395.450,238.350 395.000,240.000 395.000 C 241.650 395.000,243.000 394.550,243.000 394.000 C 243.000 393.450,243.707 393.000,244.571 393.000 C 247.814 393.000,249.000 390.342,249.000 383.071 C 249.000 379.024,249.428 376.000,250.000 376.000 C 250.629 376.000,251.000 369.500,251.000 358.500 C 251.000 347.500,251.371 341.000,252.000 341.000 C 252.588 341.000,253.000 337.500,253.000 332.500 C 253.000 327.500,253.412 324.000,254.000 324.000 C 254.550 324.000,255.000 323.100,255.000 322.000 C 255.000 320.900,255.450 320.000,256.000 320.000 C 256.550 320.000,257.000 319.100,257.000 318.000 C 257.000 316.900,257.450 316.000,258.000 316.000 C 258.550 316.000,259.000 315.148,259.000 314.107 C 259.000 313.066,259.675 311.955,260.500 311.638 C 263.710 310.407,262.241 307.000,258.500 307.000 C 256.575 307.000,255.000 307.450,255.000 308.000 C 255.000 308.550,253.650 309.000,252.000 309.000 C 250.350 309.000,249.000 309.450,249.000 310.000 C 249.000 310.550,247.238 311.000,245.083 311.000 C 242.929 311.000,241.017 311.429,240.833 311.953 C 240.650 312.477,233.412 313.220,224.750 313.604 C 216.088 313.988,209.000 314.684,209.000 315.151 C 209.000 315.618,204.500 316.000,199.000 316.000 C 193.500 316.000,189.000 315.618,189.000 315.151 C 189.000 314.684,181.912 313.988,173.250 313.604 C 164.588 313.220,157.350 312.477,157.167 311.953 C 156.983 311.429,154.621 311.000,151.917 311.000 C 149.213 311.000,147.000 310.550,147.000 310.000 C 147.000 309.450,145.650 309.000,144.000 309.000 C 142.350 309.000,141.000 308.550,141.000 308.000 C 141.000 307.450,139.875 307.000,138.500 307.000 C 136.714 307.000,136.000 307.540,136.000 308.893 " stroke="none" fill="#000000" fill-rule="evenodd"></path></g></svg>