<svg xmlns="http://www.w3.org/2000/svg" width="400" height="400" viewBox="0, 0, 400,400">
  <path d="M60.610 137.732 C 0.281 198.061,0.000 198.349,0.000 199.815 C 0.000 202.141,120.366 322.509,122.691 322.509 C 124.998 322.509,163.469 284.044,163.469 281.738 C 163.469 280.286,163.119 279.923,124.170 240.958 L 84.871 201.642 84.871 199.815 L 84.871 197.989 124.170 158.673 C 163.119 119.708,163.469 119.345,163.469 117.893 C 163.469 115.587,124.998 77.122,122.691 77.122 C 121.228 77.122,120.904 77.438,60.610 137.732 M215.444 137.510 C 153.785 199.164,154.172 198.760,154.899 200.703 C 155.444 202.156,192.937 239.778,194.285 240.223 C 196.455 240.939,196.247 241.133,236.354 201.071 L 275.476 161.993 277.306 161.993 L 279.135 161.993 297.132 179.990 L 315.129 197.986 315.129 199.814 L 315.129 201.642 275.830 240.958 C 236.881 279.923,236.531 280.286,236.531 281.738 C 236.531 284.044,275.002 322.509,277.309 322.509 C 279.634 322.509,400.000 202.141,400.000 199.815 C 400.000 197.489,279.634 77.122,277.308 77.122 C 275.843 77.122,275.535 77.422,215.444 137.510 " fill-rule="evenodd"></path>
</svg>