<svg version="1.1" width="400" height="400" xmlns="http://www.w3.org/2000/svg">
<g>
<path d="M151.500 170.426 C 143.965 173.434,136.000 177.884,136.000 179.085 C 136.000 179.588,135.425 180.000,134.722 180.000 C 134.019 180.000,132.714 180.787,131.820 181.750 C 129.052 184.732,116.981 195.286,111.232 199.750 C 99.859 208.582,82.539 201.325,90.944 191.250 C 94.233 187.307,99.774 189.778,98.553 194.644 C 97.770 197.766,99.356 197.635,101.927 194.365 C 106.029 189.150,104.605 181.859,98.917 178.957 C 84.834 171.773,72.054 181.967,72.019 200.412 C 71.983 219.233,80.221 226.859,104.500 230.481 C 108.102 231.018,113.259 230.485,127.004 228.155 C 129.482 227.735,133.038 226.629,134.908 225.696 C 136.778 224.763,138.709 224.000,139.200 224.000 C 139.691 224.000,143.559 222.390,147.796 220.422 C 152.033 218.454,157.750 215.821,160.500 214.570 C 192.759 199.896,207.241 199.896,239.500 214.570 C 242.250 215.821,247.875 218.383,252.000 220.264 C 281.451 233.694,308.133 233.831,321.387 220.620 C 332.385 209.658,330.191 184.620,317.737 178.967 C 303.947 172.707,289.769 183.809,298.073 194.365 C 300.551 197.516,302.395 197.821,301.477 194.928 C 299.855 189.817,306.525 187.233,309.284 191.904 C 313.039 198.260,308.443 204.000,299.599 204.000 C 293.650 204.000,288.731 200.712,273.500 186.558 C 264.470 178.166,257.194 173.505,248.078 170.275 C 233.278 165.032,217.331 168.098,206.606 178.250 C 199.324 185.142,200.960 185.104,193.871 178.541 C 182.632 168.136,165.471 164.849,151.500 170.426 " stroke="none" fill-rule="evenodd"></path>
</g>
</svg>