<svg xmlns="http://www.w3.org/2000/svg" width="400" height="400" viewBox="0, 0, 400,400">
<g>
<path d="M183.600 0.612 C 167.351 2.633,157.503 4.795,144.200 9.262 C 92.289 26.696,50.346 70.588,35.266 123.260 C 11.954 204.681,50.013 289.714,126.085 326.174 C 142.754 334.163,155.871 338.088,177.000 341.409 C 179.866 341.859,192.093 342.797,195.200 342.804 C 197.070 342.809,198.870 342.983,199.200 343.191 C 199.721 343.521,199.826 347.292,200.000 371.819 L 200.200 400.067 208.600 395.889 C 311.600 344.649,371.625 261.534,371.592 170.200 C 371.564 89.746,313.646 19.675,233.600 3.251 C 228.391 2.182,225.366 1.751,213.573 0.394 C 208.712 -0.165,188.677 -0.019,183.600 0.612 M181.033 122.198 C 182.325 122.955,183.033 123.791,183.968 125.662 L 185.200 128.128 185.200 162.822 C 185.200 207.492,185.045 209.071,179.586 220.008 C 172.216 234.772,158.462 244.755,141.834 247.410 C 134.552 248.572,134.400 248.319,134.400 235.002 L 134.400 225.164 135.357 224.206 C 135.907 223.656,137.567 222.888,139.257 222.401 C 151.442 218.887,156.885 213.447,159.161 202.508 C 160.400 196.554,162.948 197.200,138.217 197.200 C 112.846 197.200,112.265 197.107,109.891 192.666 L 109.000 191.000 109.027 158.925 L 109.054 126.849 110.227 124.956 C 110.989 123.726,112.018 122.736,113.163 122.131 L 114.926 121.200 147.128 121.200 L 179.330 121.200 181.033 122.198 M285.874 121.625 C 287.394 122.200,289.091 123.861,290.137 125.800 L 291.000 127.400 291.000 165.200 L 291.000 203.000 290.070 207.155 C 285.206 228.880,269.806 243.560,247.876 247.377 C 240.756 248.616,240.400 248.033,240.400 235.133 C 240.400 223.093,240.115 223.738,246.200 222.028 C 257.387 218.884,262.909 213.184,265.199 202.420 C 266.435 196.611,269.073 197.250,243.278 197.116 L 221.000 197.000 219.215 196.000 C 217.249 194.898,215.822 193.065,215.206 190.847 C 214.953 189.935,214.804 177.902,214.802 158.306 L 214.800 127.212 216.032 125.210 C 216.755 124.035,217.954 122.794,218.932 122.207 L 220.600 121.208 252.674 121.204 C 274.372 121.201,285.112 121.338,285.874 121.625 " stroke="none" fill-rule="evenodd"></path>
</g>
</svg>