<svg xmlns="http://www.w3.org/2000/svg" width="400" height="400" viewBox="0, 0, 400,400">
<g>
<path d="M87.500 16.206 C 76.534 22.485,75.945 33.019,86.250 38.570 C 88.991 40.047,89.000 40.041,89.015 36.776 C 89.038 31.826,90.317 30.624,96.183 30.033 C 104.110 29.235,102.835 22.095,93.864 17.046 C 89.654 14.677,90.073 14.733,87.500 16.206 M95.408 37.378 C 94.693 39.242,97.754 48.353,99.867 50.650 C 101.427 52.345,110.000 66.659,110.000 67.568 C 110.000 67.784,111.680 70.557,113.734 73.731 C 115.788 76.904,118.068 80.625,118.802 82.000 C 127.438 98.189,128.552 99.063,135.284 94.920 C 138.037 93.226,141.349 91.438,142.645 90.945 C 145.715 89.778,145.617 88.872,142.000 85.000 C 140.350 83.234,139.000 81.424,139.000 80.978 C 139.000 80.532,138.645 80.017,138.210 79.833 C 137.586 79.570,131.220 71.864,124.719 63.504 C 124.290 62.952,122.560 60.925,120.875 59.000 C 119.190 57.075,115.942 53.277,113.656 50.559 C 103.583 38.584,96.820 33.699,95.408 37.378 M207.000 90.610 C 182.213 95.278,176.882 96.915,158.000 105.663 C 135.620 116.031,127.834 121.005,111.603 135.305 C 103.109 142.788,88.916 157.015,86.000 160.969 C 84.625 162.834,81.813 166.515,79.750 169.150 C 77.688 171.785,76.000 174.404,76.000 174.971 C 76.000 175.537,75.622 176.000,75.161 176.000 C 74.482 176.000,72.168 179.782,71.490 182.000 C 71.406 182.275,69.868 185.650,68.072 189.500 C 60.699 205.308,58.031 234.503,61.334 263.250 C 61.508 264.762,61.729 268.338,61.825 271.196 L 62.000 276.392 65.250 273.347 C 75.372 263.864,82.929 264.602,99.006 276.648 C 124.331 295.621,138.172 326.623,127.000 339.348 L 124.083 342.669 127.792 344.453 C 142.876 351.709,166.660 355.013,175.537 351.087 C 186.654 346.169,191.032 335.890,184.704 329.562 C 183.865 328.722,183.026 327.649,182.839 327.176 C 182.653 326.702,179.575 324.180,176.000 321.569 C 172.425 318.959,167.832 315.288,165.794 313.412 C 163.755 311.535,161.618 310.000,161.044 310.000 C 160.470 310.000,160.000 309.611,160.000 309.136 C 160.000 308.661,158.952 307.199,157.672 305.886 C 154.318 302.450,147.000 292.270,147.000 291.043 C 147.000 290.469,146.615 290.000,146.145 290.000 C 144.091 290.000,133.000 264.374,133.000 259.629 C 133.000 258.366,132.691 257.024,132.314 256.647 C 129.476 253.809,131.225 236.547,135.266 227.500 C 137.576 222.330,138.286 221.195,141.250 217.928 C 142.213 216.868,142.750 216.000,142.444 216.000 C 141.442 216.000,149.400 208.944,154.000 205.753 C 156.475 204.037,158.725 202.344,159.000 201.991 C 162.944 196.935,199.315 178.542,217.095 172.613 C 252.284 160.878,290.057 167.423,298.620 186.741 C 299.654 189.073,300.786 190.985,301.137 190.991 C 301.487 190.996,302.049 192.350,302.387 194.000 C 302.724 195.650,303.276 198.350,303.613 200.000 C 303.951 201.650,304.538 203.000,304.918 203.000 C 305.298 203.000,305.718 204.850,305.852 207.112 C 305.985 209.374,306.505 213.391,307.007 216.039 C 307.510 218.687,308.170 226.624,308.475 233.677 C 309.717 262.408,310.383 265.495,316.488 270.855 C 320.546 274.418,320.230 274.342,325.204 272.960 C 343.438 267.896,349.045 230.919,338.010 188.500 C 334.712 175.825,325.675 153.065,323.119 151.000 C 322.778 150.725,321.670 148.866,320.656 146.868 C 319.642 144.870,317.054 141.109,314.906 138.509 C 312.758 135.909,311.000 133.465,311.000 133.078 C 311.000 128.804,284.422 107.605,271.500 101.573 C 254.022 93.414,221.480 87.883,207.000 90.610 M148.676 95.965 C 142.323 98.675,134.936 103.381,134.167 105.209 C 133.983 105.644,133.234 106.000,132.501 106.000 C 131.768 106.000,129.856 107.688,128.252 109.750 C 123.578 115.760,123.532 116.320,127.944 113.535 C 132.789 110.477,152.908 100.435,161.233 96.920 C 164.386 95.589,166.974 94.162,166.983 93.750 C 167.028 91.748,155.209 93.178,148.676 95.965 M378.205 144.725 C 375.670 147.280,375.626 147.471,377.500 147.764 C 384.217 148.817,384.000 148.559,384.000 155.519 C 384.000 163.200,385.209 163.804,389.896 158.465 C 397.201 150.146,385.948 136.922,378.205 144.725 M368.500 153.886 C 366.034 154.733,350.758 161.909,350.170 162.497 C 349.935 162.732,351.151 165.118,352.871 167.800 C 354.592 170.481,356.007 173.086,356.015 173.588 C 356.101 178.716,369.107 171.689,375.750 162.924 C 381.465 155.384,377.723 150.720,368.500 153.886 M339.031 170.750 C 341.402 177.273,343.971 186.827,346.627 199.000 C 347.104 201.187,347.485 200.748,349.663 195.500 C 353.899 185.291,351.459 175.526,342.412 166.479 C 336.693 160.760,335.807 161.879,339.031 170.750 M74.259 274.927 C 69.779 278.173,66.000 282.614,66.000 284.635 C 66.000 285.386,65.652 286.000,65.227 286.000 C 63.687 286.000,57.475 299.984,55.377 308.173 C 52.773 318.339,54.679 322.000,62.575 322.000 C 72.903 322.000,76.000 325.443,76.000 336.927 C 76.000 345.074,76.183 345.277,87.294 349.459 C 91.800 351.155,94.999 351.797,96.794 351.364 C 110.257 348.122,127.140 332.714,125.398 325.259 C 121.315 307.785,101.165 283.705,82.867 274.432 L 78.204 272.070 74.259 274.927 M56.000 330.142 C 48.938 336.364,39.000 346.362,39.000 347.246 C 39.000 347.745,40.350 349.504,42.000 351.154 C 43.650 352.804,45.000 354.794,45.000 355.577 C 45.000 358.264,63.315 347.730,68.385 342.127 C 75.641 334.109,64.135 322.975,56.000 330.142 M18.000 350.948 C 7.056 356.764,3.959 369.102,11.540 376.683 C 12.245 377.388,12.974 378.326,13.161 378.768 C 13.754 380.175,19.526 383.843,22.203 384.515 C 27.728 385.901,37.682 377.088,41.331 367.580 C 44.709 358.776,27.012 346.159,18.000 350.948 " stroke="none" fill-rule="evenodd"></path>
</g>
</svg>