<svg id="svg" version="1.1" width="515" height="515" xmlns="http://www.w3.org/2000/svg" xmlns:xlink="http://www.w3.org/1999/xlink" style="display: block;"><g id="svgg"><path id="path0" d="M0.000 223.500 L 0.000 229.000 4.500 229.000 L 9.000 229.000 9.000 257.000 L 9.000 285.000 4.500 285.000 L 0.000 285.000 0.000 290.500 L 0.000 296.000 16.000 296.000 L 32.000 296.000 32.000 290.500 L 32.000 285.000 27.000 285.000 L 22.000 285.000 22.000 272.500 L 22.000 260.000 38.000 260.000 L 54.000 260.000 54.000 272.500 L 54.000 285.000 49.000 285.000 L 44.000 285.000 44.000 290.500 L 44.000 296.000 60.000 296.000 L 76.000 296.000 76.000 290.500 L 76.000 285.000 71.500 285.000 L 67.000 285.000 67.000 257.000 L 67.000 229.000 71.500 229.000 L 76.000 229.000 76.000 223.500 L 76.000 218.000 60.000 218.000 L 44.000 218.000 44.000 223.500 L 44.000 229.000 49.000 229.000 L 54.000 229.000 54.000 239.500 L 54.000 250.000 38.000 250.000 L 22.000 250.000 22.000 239.500 L 22.000 229.000 27.000 229.000 L 32.000 229.000 32.000 223.500 L 32.000 218.000 16.000 218.000 L 0.000 218.000 0.000 223.500 M408.000 233.006 L 408.000 248.013 403.926 245.061 C 384.298 230.843,357.748 250.075,363.027 274.688 C 367.083 293.605,388.915 302.812,403.927 291.938 L 408.000 288.987 408.000 292.494 L 408.000 296.000 418.500 296.000 L 429.000 296.000 429.000 290.500 L 429.000 285.000 424.000 285.000 L 419.000 285.000 419.000 257.000 L 419.000 229.000 424.000 229.000 L 429.000 229.000 429.000 223.500 L 429.000 218.000 418.500 218.000 L 408.000 218.000 408.000 233.006 M432.000 218.836 C 432.000 219.296,433.498 221.658,435.328 224.086 C 443.292 234.650,458.206 255.379,458.571 256.392 C 458.790 257.001,454.657 263.350,449.387 270.500 C 444.116 277.650,438.740 285.075,437.440 287.000 C 436.139 288.925,434.121 291.738,432.954 293.250 L 430.833 296.000 445.233 296.000 L 459.633 296.000 465.043 288.250 C 468.018 283.988,474.176 275.398,478.726 269.163 C 488.631 255.592,488.479 257.872,480.226 246.684 C 476.500 241.633,470.329 233.113,466.511 227.750 L 459.571 218.000 445.785 218.000 C 438.203 218.000,432.000 218.376,432.000 218.836 M482.443 224.667 C 479.724 228.333,477.150 231.917,476.721 232.629 C 475.999 233.830,488.571 252.953,490.105 252.987 C 490.438 252.994,492.663 250.188,495.049 246.750 C 497.435 243.313,502.900 235.713,507.194 229.862 C 511.487 224.011,515.000 218.949,515.000 218.612 C 515.000 218.275,508.787 218.000,501.193 218.000 L 487.386 218.000 482.443 224.667 M93.591 241.573 C 68.502 250.766,69.312 288.221,94.759 295.618 C 101.570 297.598,107.177 296.852,114.521 292.989 L 120.000 290.107 120.000 293.053 L 120.000 296.000 130.500 296.000 L 141.000 296.000 141.000 290.500 L 141.000 285.000 136.500 285.000 L 132.000 285.000 132.000 268.500 L 132.000 252.000 136.500 252.000 L 141.000 252.000 141.000 247.000 L 141.000 242.000 130.500 242.000 L 120.000 242.000 120.000 244.568 L 120.000 247.136 116.928 244.948 C 110.383 240.288,100.857 238.911,93.591 241.573 M269.994 240.934 C 249.475 247.176,243.202 273.333,258.545 288.675 C 267.529 297.659,277.897 299.103,289.521 292.989 L 295.000 290.107 295.000 293.053 L 295.000 296.000 305.500 296.000 L 316.000 296.000 316.000 290.500 L 316.000 285.000 311.500 285.000 L 307.000 285.000 307.000 268.500 L 307.000 252.000 311.500 252.000 L 316.000 252.000 316.000 247.000 L 316.000 242.000 305.500 242.000 L 295.000 242.000 295.000 244.513 L 295.000 247.025 291.168 244.606 C 284.591 240.454,276.299 239.016,269.994 240.934 M175.223 242.661 C 173.420 243.549,170.833 245.599,169.473 247.215 L 167.000 250.153 167.000 246.077 L 167.000 242.000 157.000 242.000 L 147.000 242.000 147.000 247.000 L 147.000 252.000 152.000 252.000 L 157.000 252.000 157.000 268.500 L 157.000 285.000 152.000 285.000 L 147.000 285.000 147.000 290.500 L 147.000 296.000 163.500 296.000 L 180.000 296.000 180.000 290.500 L 180.000 285.000 174.500 285.000 L 169.000 285.000 169.000 274.968 C 169.000 259.497,172.379 254.048,182.492 253.209 L 188.000 252.752 188.000 246.876 L 188.000 241.000 183.250 241.023 C 180.637 241.035,177.025 241.772,175.223 242.661 M350.500 242.412 C 347.411 243.785,344.108 246.990,342.167 250.500 C 341.243 252.170,341.056 251.634,341.030 247.250 L 341.000 242.000 331.000 242.000 L 321.000 242.000 321.000 247.000 L 321.000 252.000 326.500 252.000 L 332.000 252.000 332.000 268.500 L 332.000 285.000 326.500 285.000 L 321.000 285.000 321.000 290.500 L 321.000 296.000 338.000 296.000 L 355.000 296.000 355.000 290.500 L 355.000 285.000 349.500 285.000 L 344.000 285.000 344.000 275.020 C 344.000 259.245,347.251 254.058,357.680 253.193 L 363.000 252.752 363.000 246.876 L 363.000 241.000 358.250 241.039 C 355.637 241.061,352.150 241.678,350.500 242.412 M191.000 247.000 L 191.000 252.000 195.016 252.000 C 199.645 252.000,199.087 251.104,206.533 270.500 C 209.067 277.100,212.384 285.650,213.905 289.500 L 216.670 296.500 221.729 296.799 L 226.788 297.097 229.534 289.799 C 231.044 285.784,233.741 278.675,235.527 274.000 C 237.313 269.325,239.857 262.575,241.180 259.000 C 243.580 252.519,243.599 252.499,247.793 252.193 L 252.000 251.885 252.000 246.943 L 252.000 242.000 238.500 242.000 L 225.000 242.000 225.000 247.000 L 225.000 252.000 228.607 252.000 C 231.642 252.000,232.103 252.278,231.515 253.750 C 231.131 254.713,228.756 261.037,226.238 267.805 L 221.660 280.111 216.967 267.805 C 214.385 261.037,211.939 254.713,211.530 253.750 C 210.913 252.299,211.317 252.000,213.893 252.000 C 216.955 252.000,217.000 251.927,217.000 247.000 L 217.000 242.000 204.000 242.000 L 191.000 242.000 191.000 247.000 M110.998 252.499 C 121.790 258.080,123.153 275.205,113.397 282.647 C 104.282 289.598,91.123 284.599,88.000 272.998 C 84.275 259.166,98.820 246.202,110.998 252.499 M287.087 253.280 C 300.084 262.038,296.065 283.706,281.070 285.717 C 262.968 288.145,255.176 263.098,270.823 252.778 C 274.786 250.165,282.834 250.413,287.087 253.280 M398.996 253.118 C 408.426 258.418,410.364 271.960,402.908 280.452 C 392.347 292.481,373.994 283.582,375.193 267.013 C 376.126 254.115,388.214 247.058,398.996 253.118 M483.000 270.073 C 475.301 280.777,475.360 279.709,481.974 288.775 L 487.246 296.000 501.238 296.000 L 515.230 296.000 513.467 293.250 C 512.497 291.738,507.787 285.100,503.000 278.500 C 498.213 271.900,493.503 265.262,492.533 263.750 C 490.135 260.010,490.332 259.880,483.000 270.073 " stroke="none" fill="#000000" fill-rule="evenodd"></path></g></svg>