<?xml version="1.0" encoding="UTF-8" standalone="no"?>
<svg
   xmlns:dc="http://purl.org/dc/elements/1.1/"
   xmlns:cc="http://creativecommons.org/ns#"
   xmlns:rdf="http://www.w3.org/1999/02/22-rdf-syntax-ns#"
   xmlns:svg="http://www.w3.org/2000/svg"
   xmlns="http://www.w3.org/2000/svg"
   xmlns:sodipodi="http://sodipodi.sourceforge.net/DTD/sodipodi-0.dtd"
   xmlns:inkscape="http://www.inkscape.org/namespaces/inkscape"
   id="svg"
   version="1.1"
   width="400"
   height="400"
   sodipodi:docname="image2vector (16).svg"
   inkscape:version="0.92.2 (5c3e80d, 2017-08-06)">
  <metadata
     id="metadata9">
    <rdf:RDF>
      <cc:Work
         rdf:about="">
        <dc:format>image/svg+xml</dc:format>
        <dc:type
           rdf:resource="http://purl.org/dc/dcmitype/StillImage" />
        <dc:title></dc:title>
      </cc:Work>
    </rdf:RDF>
  </metadata>
  <defs
     id="defs7" />
  <sodipodi:namedview
     pagecolor="#ffffff"
     bordercolor="#666666"
     borderopacity="1"
     objecttolerance="10"
     gridtolerance="10"
     guidetolerance="10"
     inkscape:pageopacity="0"
     inkscape:pageshadow="2"
     inkscape:window-width="1920"
     inkscape:window-height="1027"
     id="namedview5"
     showgrid="false"
     inkscape:zoom="0.929678"
     inkscape:cx="58.394243"
     inkscape:cy="234.11021"
     inkscape:window-x="1912"
     inkscape:window-y="-8"
     inkscape:window-maximized="1"
     inkscape:current-layer="svg" />
  <g
     id="svgg"
     transform="translate(-2.5045523,1.4491525)">
    <path
       id="path0"
       d="m 4.457,117.27 v 11.978 h 11.42 11.421 v 68.802 68.802 H 15.877 4.457 v 12.261 12.26 l 38.022,-0.144 38.022,-0.143 0.151,-12.117 0.15,-12.117 H 68.813 56.825 v -30.64 -30.641 H 96.1 135.376 v 30.641 30.64 h -11.978 -11.977 v 12.257 12.256 h 38.161 38.162 v -12.256 -12.257 h -11.421 -11.42 V 198.05 129.248 h 11.42 11.421 V 117.27 105.292 h -38.162 -38.161 v 11.978 11.978 h 11.977 11.978 v 25.627 25.626 H 96.1 56.825 V 154.875 129.248 H 68.802 80.78 V 117.27 105.292 H 42.618 4.457 v 11.978 m 189.972,-10.607 c 0,0.141 11.823,16.624 26.274,36.629 14.451,20.006 29.406,40.71 33.233,46.01 l 6.958,9.637 -1.096,1.505 c -1.97,2.705 -18.265,25.226 -19.408,26.825 -2.672,3.734 -6.08,8.461 -9.461,13.121 -2,2.758 -5.257,7.27 -7.237,10.028 -1.979,2.757 -5.683,7.897 -8.229,11.42 -4.251,5.881 -15.292,21.188 -19.738,27.365 -1.019,1.415 -1.853,2.732 -1.853,2.925 0,0.193 15.104,0.343 33.565,0.333 l 33.566,-0.018 7.286,-10.149 c 4.008,-5.582 19.112,-26.508 33.566,-46.503 14.453,-19.995 26.279,-36.549 26.279,-36.787 0,-0.513 -4.748,-7.263 -16.149,-22.959 -2.559,-3.524 -5.824,-8.037 -7.256,-10.028 -1.433,-1.992 -4.155,-5.752 -6.049,-8.357 -1.895,-2.604 -4.524,-6.239 -5.842,-8.078 -1.318,-1.838 -4.132,-5.738 -6.252,-8.666 -2.121,-2.927 -8.604,-11.89 -14.406,-19.916 l -10.551,-14.593 h -33.6 c -18.48,0 -33.6,0.115 -33.6,0.256 m 131.965,1.554 c -1.36,1.958 -12.896,17.936 -20.396,28.251 -5.458,7.506 -5.496,6.163 0.409,14.285 5.132,7.059 9.753,13.436 20.874,28.801 3.947,5.454 7.326,10.008 7.508,10.121 0.182,0.112 5.144,-6.481 11.027,-14.652 5.883,-8.171 15.606,-21.625 21.607,-29.898 10.105,-13.93 19.452,-26.876 25.195,-34.897 1.303,-1.818 2.368,-3.422 2.368,-3.564 0,-0.141 -15.15,-0.257 -33.667,-0.257 h -33.667 l -1.258,1.81 m 4.329,105.293 c -6.816,9.537 -18.559,25.813 -24.213,33.562 l -5.612,7.69 2.595,3.678 c 2.699,3.823 13.276,18.44 20.5,28.329 l 4.171,5.71 h 33.411 c 22.998,0 33.411,-0.183 33.411,-0.586 0,-0.322 -2.049,-3.393 -4.553,-6.824 -2.504,-3.432 -5.28,-7.242 -6.168,-8.467 -5.359,-7.396 -9.411,-12.994 -10.283,-14.205 -0.551,-0.765 -3.268,-4.526 -6.039,-8.357 -18.915,-26.152 -27.548,-38.127 -30.013,-41.635 -3.475,-4.943 -2.811,-5.045 -7.207,1.105"
       inkscape:connector-curvature="0"
       style="fill:#000000;fill-rule:evenodd;stroke:none" />
  </g>
</svg>
