<svg width="100%" height="100%" viewBox="0 0 400 400" version="1.1" xmlns="http://www.w3.org/2000/svg" style="fill-rule:evenodd;clip-rule:evenodd;stroke-linejoin:round;stroke-miterlimit:2;">
<g>
<path d="M94.007,200L-0.007,341L70.993,341L165.007,200L70.993,59L-0.007,59M95,59.501C95,59.777 188.329,200 188.329,200C188.329,200 95,340.223 95,340.499C95,340.774 164.993,341 164.993,341L223.676,252.99L282.318,341L353.004,341L164.996,59C164.996,59 95,59.226 95,59.501M274.321,188L400,188L400,141L242.995,141M291.167,212.888C291.35,213.377 321.5,258.952 321.5,258.952L400,259L400,212C400,212 290.975,212.377 291.167,212.888"/>
</g>
</svg>
