<svg id="svg" version="1.1" width="400" height="400" xmlns="http://www.w3.org/2000/svg" xmlns:xlink="http://www.w3.org/1999/xlink" style="display: block;"><g id="svgg"><path id="path0" d="M47.000 129.500 L 94.007 200.000 47.000 270.500 L -0.007 341.000 35.493 341.000 L 70.993 341.000 118.000 270.500 L 165.007 200.000 118.000 129.500 L 70.993 59.000 35.493 59.000 L -0.007 59.000 47.000 129.500 M95.000 59.501 C 95.000 59.777,115.999 91.502,141.665 130.001 L 188.329 200.000 141.665 269.999 C 115.999 308.498,95.000 340.223,95.000 340.499 C 95.000 340.774,110.748 341.000,129.997 341.000 L 164.993 341.000 194.334 296.995 L 223.676 252.990 252.997 296.995 L 282.318 341.000 317.661 341.000 L 353.004 341.000 259.000 200.000 L 164.996 59.000 129.998 59.000 C 110.749 59.000,95.000 59.226,95.000 59.501 M258.658 164.500 L 274.321 188.000 337.161 188.000 L 400.000 188.000 400.000 164.500 L 400.000 141.000 321.498 141.000 L 242.995 141.000 258.658 164.500 M291.167 212.888 C 291.350 213.377,298.250 223.941,306.500 236.364 L 321.500 258.952 360.750 258.976 L 400.000 259.000 400.000 235.500 L 400.000 212.000 345.417 212.000 C 314.026 212.000,290.975 212.377,291.167 212.888 " stroke="none" fill="#000000" fill-rule="evenodd"></path></g></svg>