<?xml version="1.0" encoding="UTF-8" standalone="no"?>
<!DOCTYPE svg PUBLIC "-//W3C//DTD SVG 1.1//EN" "http://www.w3.org/Graphics/SVG/1.1/DTD/svg11.dtd">
<svg width="100%" height="100%" viewBox="0 0 515 515" version="1.1" xmlns="http://www.w3.org/2000/svg" xmlns:xlink="http://www.w3.org/1999/xlink" xml:space="preserve" xmlns:serif="http://www.serif.com/" style="fill-rule:evenodd;clip-rule:evenodd;stroke-linejoin:round;stroke-miterlimit:2;">
    <g id="svgg">
        <path id="path0" d="M125,54C125,54.898 123.303,54.599 122.5,55C120.062,56.219 117.255,58.49 116,61C114.91,63.181 115.169,64.053 113.5,66C112.628,67.017 109.835,67.606 109.344,68.917C107.44,73.994 106.797,81.161 105.5,86C99.147,109.7 106.983,134.635 107,158.429C107.006,166.51 106.681,179.604 100.929,187C97.813,191.006 95.875,190.728 92.836,193.939C90.274,196.646 92.114,197.48 89.67,200.407C88.021,202.383 86.253,202.493 85,205C84.798,205.405 83.208,209.642 82.929,210C78.736,215.392 73.264,219.608 69.071,225C68.792,225.358 67.202,229.595 67,230C62.963,238.074 55.596,248.35 48.72,254C48.716,254.003 43.851,246.418 43.5,246C39.349,241.059 35.087,236.224 28.083,238.325C25.217,239.185 24.201,242.901 22,244.929C14.716,251.637 14.335,262.161 11.674,270.926C9.184,279.13 9,278.98 9,287.5C9,291.723 8.867,295.963 9.274,300.167C9.596,303.498 12.463,309.426 14,312.5C14.394,313.287 17,317.204 17,318C17,318.796 14.394,322.713 14,323.5C12.465,326.571 10.436,331.004 9.344,333.917C8.618,335.853 9.382,338.147 8.656,340.083C8.311,341.004 6.689,340.996 6.344,341.917C-0.341,359.743 -0.007,379.713 0.005,398.401C0.014,413.616 -2.494,434.013 5,449C6.247,451.494 8.501,452.334 10.5,454C12.976,456.064 13.449,458.475 16.5,460C21.287,462.393 26.572,462 32,462C36.346,462 40.69,461.556 45,461C48.916,460.495 53.609,456.409 56.5,454C60.876,450.353 66.879,447.93 71.597,444.5C86.017,434.016 101.416,426.042 117.5,418C124.396,414.552 132.377,411.471 138.366,406.697C142.983,403.017 147.917,398.063 152.634,394.303C155.065,392.365 155.724,393.699 158,391.5C161.496,388.122 169.775,381.272 172.569,376.612C173.232,375.506 172.51,373.653 173.53,372.864C174.135,372.395 174.983,372.299 175.747,372.266C195.44,371.433 195.333,372.537 215,371C220.291,370.587 225.398,367.928 230.607,367C237.792,365.72 244.067,361.889 251,359C259.746,355.356 270.001,350.568 277.366,344.697C282.806,340.361 288.5,333.236 293.5,328C295.669,325.728 294.338,325.099 296.303,322.634C296.945,321.828 298.286,321.806 298.929,321C303.467,315.312 306.634,303.324 304.702,296.544C303.421,292.052 299.007,292.372 295.21,292.138C278.029,291.083 278.134,292.825 261,291C260.402,290.936 262.025,290.369 262.5,290C263.996,288.838 265.213,287.374 266.5,286C270.017,282.245 273.596,280.702 277.366,277.697C280.12,275.502 281.323,272.932 284.565,270.5C287.402,268.372 292.586,265.832 295,262.929C295.679,262.112 295.865,260.872 296.726,260.249C298.575,258.91 301.035,258.663 303,257.5C306.252,255.576 309.76,254.444 313,252.5C314.619,251.528 317.363,248.926 318.917,248.344C322.134,247.137 326.141,247.2 329.5,246C330.22,245.743 335.418,243.345 336.333,243.27C340.779,242.91 362.221,242.91 366.667,243.27C369.411,243.493 368.569,244.92 371.083,245.675C376.042,247.163 382.179,246.505 387.083,248.344C389.66,249.31 392.781,252.641 395.5,254C401.727,257.113 413.125,259.887 416.924,266.208C417.901,267.835 416.665,270.268 416,271.583C414.175,275.192 410.854,280.442 408,283.071C404.327,286.454 401.53,290.399 398,293.929C396.897,295.032 395.163,295.462 394.249,296.726C393.977,297.1 392.593,302.225 391.929,303C391.201,303.85 389.747,303.949 389.164,304.904C386.057,309.986 383.97,318.871 385.308,324.667C385.723,326.464 387.38,327.763 388,329.5C390.171,335.58 392.568,347.224 402.083,343.656C406.072,342.16 405.359,335.252 407.31,332.708C411.309,327.491 418.88,329.421 423.874,326.946C424.942,326.417 424.896,324.52 426,324.071C433.122,321.173 434.308,324.818 441.567,322.083C444.326,321.044 442.984,317.698 446.5,318C449.211,318.233 451.455,321.654 454.5,322C463.097,322.976 471.823,322.351 480.426,323.277C482.695,323.521 481.847,324.88 483.917,325.656C487.63,327.049 492.664,326.344 496,329.14C498.624,331.339 502.315,333.087 504.5,336C506.327,338.436 507.996,344 512,344L515,344L515,326.647C515,319.062 515.058,311.455 514.385,303.899C513.826,297.629 510.662,294.016 507.071,290C502.895,285.331 501.315,279.204 496,275.071C495.642,274.792 491.405,273.202 491,273C486.407,270.704 481.804,266.114 477.083,264.344C475.147,263.618 472.853,264.382 470.917,263.656C466.739,262.09 461.118,257.308 458.071,254C455.013,250.68 453.92,246.248 450.929,243C446.208,237.874 441.716,232.999 437.077,228C436.843,227.748 435.152,223.304 435,223C433.304,219.607 429.801,217.739 427.5,215C425.842,213.026 425.628,210.454 424,208.5C421.267,205.22 417.032,203.215 414.071,200C411.047,196.717 409.442,193.241 406,190.071C402.717,187.047 399.241,185.442 396.071,182C394.334,180.113 393.517,177.681 391.5,176C389.546,174.372 386.974,174.158 385,172.5C382.008,169.986 382.96,169.373 380,167.071C378.105,165.597 375.409,165.591 373.5,164C365.554,157.378 356.04,152.844 346.929,148C342.69,145.747 337.776,145.138 333.5,143C332.21,142.355 331.434,140.85 330.083,140.344C325.787,138.733 320.213,139.267 315.917,137.656C314.323,137.059 315.527,135.757 313.75,135.312C305.695,133.298 296.696,134.224 288.583,132.703C284.176,131.877 284.74,130.432 280.333,130.26C271.44,129.913 225.56,129.913 216.666,130.26C211.976,130.443 212.486,132.11 207.834,132.717C198.774,133.899 188.131,135 179,135C169.664,135 164.999,132.108 159.034,125C157.497,123.168 157.071,119.643 156,117.5C155.357,116.213 153.86,115.441 153.346,114.097C149.634,104.405 150.008,92.367 147.692,82.333C147.424,81.172 145.576,80.828 145.308,79.667C143.672,72.579 144.465,64.546 142.596,57.474C141.372,52.848 135.799,52.801 131.989,53C129.639,53.123 125,51.647 125,54M339.643,203.5C340.174,204.031 357.549,205.799 359,206C366.269,207.008 372.852,208.676 379.5,212C379.817,212.158 388.252,218 383.5,218C382.793,218 382.603,216.87 382,216.5C379.332,214.864 374.194,212.555 371.069,212.281C366.573,211.887 362.045,212.001 357.531,212C350.339,211.998 333,211.441 333,223L333,228L345,228C349.014,228 360.485,227.009 357,229C354.877,230.213 332.327,229.936 328.833,230.274C326.296,230.52 327.224,232.03 324.833,232.682C322.039,233.444 318.961,232.556 316.167,233.318C314.436,233.79 313.19,235.397 311.5,236C306.94,237.629 300.632,239.422 296.726,242.249C295.865,242.872 295.762,244.188 295,244.929C292.364,247.491 287.197,249.035 284.048,251C281.147,252.81 279.068,255.408 277,257.929C275.029,260.332 271.082,260.777 268.925,262.847C268.034,263.702 267.785,265.059 267,266.011C265.528,267.796 262.486,268.26 261,270.071C258.275,273.393 255.154,275.652 252.071,279C251.84,279.251 249.995,282.165 249.5,282C245.658,280.719 250.162,275.897 251,274.5C255.187,267.522 260.032,260.699 264,253.607C266.152,249.761 267.678,244.359 270.5,241C272.086,239.112 274.368,237.748 275.929,236C276.476,235.388 278.142,229.873 278.249,229.726C282.536,223.801 289.697,221.046 295,216.5L297,213.5C299.714,211.464 303.41,211.103 306.5,210C310.875,208.437 313.067,206.759 318,206C323.371,205.174 328.89,205.602 334.25,204.708C337.358,204.19 337.411,201.268 339.643,203.5M454.362,275.5C454.922,276.96 457.55,276.879 458.469,277C460.949,277.327 460.648,277.872 462.734,278.706C463.501,279.013 465.611,278.967 466.333,279.4C467.291,279.974 466.702,281.101 467.75,281.625C468.275,281.888 471.529,282.104 472.119,282.315C473.158,282.686 474.459,285.558 474.634,285.697C476.675,287.324 477.268,285.883 479.405,287.431C480.231,288.03 480.285,289.349 481.071,290C483.265,291.818 483.212,291.771 485,293.929C486.371,295.584 489.135,296.017 490.559,297.441C492.569,299.45 492.106,302.177 493.4,304.333C493.986,305.31 494.855,304.736 495.559,305.441C497.096,306.977 498.572,310.101 497.706,312.266C496.768,314.611 496.002,310.801 495.333,310.4C493.63,309.378 487.495,308.337 486.125,308.263C476.54,307.745 466.924,308.12 457.333,307.73C454.503,307.614 454.181,305 457,305L460,305L460,297.5C460,295.096 460.742,292.205 459.241,290.328C458.549,289.464 457.994,290.323 457.4,289.333C456.756,288.261 457.244,286.739 456.6,285.667C456.014,284.69 455.145,285.264 454.441,284.559C453.018,283.136 452.59,280.362 450.929,279C449.013,277.428 448.284,278.247 447.245,276.03C445.987,273.346 453.53,273.336 454.362,275.5M426,286C426,287.205 427.932,286.867 428.559,287.315C429.578,288.042 429.544,289.686 430.429,290.571C431.3,291.442 432.815,291.444 433.685,292.315C434.556,293.185 434.558,294.7 435.429,295.571C435.828,295.97 438.287,296.764 438.685,297.881C439.207,299.341 439.38,301.958 437.929,303C437.151,303.559 436.122,303.768 435.445,304.445C434.561,305.329 434.576,306.959 433.559,307.685C432.881,308.17 432.127,307.836 431.441,308.294C430.53,308.901 430.989,309.416 429.972,309.706C429.341,309.887 425.37,310.127 424.833,310.357C423.152,311.078 424.218,312.525 422.417,312.703C418.376,313.102 414.279,312.778 410.25,313.281C407.71,313.599 406.544,315.83 403.734,314.706C403,314.413 402.688,313.83 403.378,313.294C404.25,312.616 404.64,313.273 405.246,312.343C405.707,311.635 405.827,309.811 406.168,309.084C406.646,308.065 407.108,308.508 407.693,307.52C408.024,306.961 407.917,305.911 408.441,305.416C409.162,304.734 410.008,305.32 410.6,304.333C411.033,303.611 410.987,301.501 411.294,300.734C411.654,299.835 412.152,300.391 412.706,299.559C413.164,298.873 412.83,298.119 413.315,297.441C414.041,296.424 415.671,296.439 416.555,295.555C417.439,294.671 417.424,293.041 418.441,292.315C419.119,291.83 419.873,292.164 420.559,291.706C421.021,291.398 420.979,290.602 421.441,290.294C422.205,289.784 423.015,290.308 423.6,289.333C424.033,288.611 423.987,286.501 424.294,285.734C424.73,284.645 426,284.925 426,286M130,323.5C130,326.372 127.578,325.155 127.308,327.333C126.906,330.579 127.209,333.893 126.712,337.125C126.477,338.65 125.868,338.3 125.294,339.734C124.877,340.776 125.13,342.229 124.685,343.266C124.173,344.462 122.366,344.525 121.445,345.445C120.768,346.122 120.59,347.174 120,347.929C118.982,349.232 118.574,348.575 117.336,349.734C116.259,350.743 115.741,352.257 114.664,353.266C114.042,353.849 112.957,353.803 112.391,354.441C111.739,355.175 112.323,356.006 111.334,356.6C110.611,357.033 108.501,356.987 107.734,357.294C106.991,357.591 105.003,358.878 104.441,359.441C103.649,360.232 104.393,360.853 103.405,361.569C102.035,362.562 100.101,362.459 98.634,363.303C97.197,364.129 98.095,364.758 97,365.929C95.858,367.151 92.387,367 91.5,367L86,367L86,362C86,360.69 85.949,359.338 86.325,358.083C86.79,356.535 88.064,357.663 88.656,356.083C88.828,355.624 89.146,350.765 89.294,350.175C89.612,348.9 90.255,349.394 90.706,348.266C91.013,347.499 90.967,345.389 91.4,344.667C91.844,343.926 93.077,344.078 93.567,343.409C94.309,342.395 94.11,340.916 94.734,339.826C95.985,337.643 98.047,334.469 100.071,333C100.846,332.437 101.878,332.232 102.555,331.555C103.475,330.634 103.538,328.827 104.734,328.315C105.771,327.87 107.224,328.123 108.266,327.706C109.34,327.276 108.818,326.648 109.881,326.294C110.569,326.064 113.626,325.937 114.25,325.625C115.559,324.971 114.423,323.961 115.834,323.357C116.37,323.127 120.341,322.887 120.972,322.706C122.301,322.327 121.868,321.621 123.175,321.294C125.486,320.716 130,319.913 130,323.5M130,373.5C130,374.116 134.617,375.882 135,376C137.297,376.707 139.833,376.5 142.083,377.344C143.434,377.85 144.173,379.434 145.5,380C146.291,380.338 148,379.775 148,380.635C148,381.925 146.3,382.577 145.5,383.588C142.429,387.468 139.981,387.099 136.5,390C132.025,393.729 125.793,395.636 121.55,399.36C119.084,401.525 118.165,402.774 115,404.5C109.874,407.296 103.224,408.644 98.634,412.303C97.828,412.945 97.806,414.286 97,414.929C93.99,417.33 89.114,416.831 86,419.5C85.087,420.282 84.913,421.718 84,422.5C81.515,424.63 76.478,427.511 73.5,429C69.847,430.827 66.533,433.233 63,435C62.197,435.401 61.392,435.905 60.5,436C59.657,436.09 57.544,436.249 58,435.534C62.372,428.681 66.216,428.802 71.366,424.697C72.172,424.055 72.194,422.714 73,422.071C75.998,419.679 81.307,419.135 84.366,416.697C85.172,416.055 85.231,414.758 86,414.071C87.73,412.524 90.634,412.555 92.5,411C97.566,406.778 102.959,403.151 107.555,398.555C109.855,396.255 114.499,393.001 116,390C117.444,387.113 119.607,384.787 121,382C121.148,381.705 122.848,377.248 123.071,377C123.445,376.584 130,369.463 130,373.5"/>
    </g>
</svg>
