<svg xmlns="http://www.w3.org/2000/svg" width="400" height="400" viewBox="0, 0, 400,400">
<g>
<path d="M128.312 91.867 C 123.393 92.975,118.324 97.050,115.914 101.833 C 113.710 106.208,113.854 103.459,113.744 143.083 L 113.644 179.000 78.169 179.000 L 42.695 179.000 42.589 143.250 C 42.490 109.729,42.445 107.386,41.876 105.667 C 35.790 87.285,11.171 86.740,4.771 104.846 L 3.833 107.500 3.746 197.495 C 3.649 297.172,3.517 290.878,5.804 295.507 C 13.623 311.327,36.685 309.086,41.911 291.997 C 42.418 290.341,42.481 286.715,42.581 253.917 L 42.692 217.667 97.679 217.667 L 152.667 217.667 152.667 174.500 L 152.667 131.333 153.655 131.333 C 163.191 131.333,183.535 136.861,194.713 142.488 C 247.070 168.848,245.341 234.578,191.667 258.265 C 176.902 264.780,162.087 267.515,139.000 267.984 C 125.488 268.259,124.885 268.353,121.008 270.798 C 108.314 278.802,109.040 297.807,122.295 304.481 C 126.065 306.379,127.977 306.654,137.438 306.661 C 180.958 306.691,216.886 293.453,242.417 267.979 L 248.000 262.408 248.012 275.954 C 248.025 291.331,248.213 293.191,250.155 297.121 C 256.987 310.947,277.297 311.331,284.424 297.767 C 286.785 293.274,286.667 295.525,286.667 255.106 L 286.667 218.685 320.750 218.583 C 351.669 218.490,354.981 218.429,356.427 217.920 C 373.043 212.072,375.208 190.209,359.966 182.175 C 355.719 179.937,357.074 180.010,320.083 180.005 L 286.667 180.000 286.667 155.167 L 286.667 130.333 332.083 130.331 C 384.705 130.328,382.350 130.478,387.761 126.789 C 401.218 117.614,397.538 96.279,381.794 92.200 C 379.255 91.542,131.201 91.217,128.312 91.867 " stroke="none" fill-rule="evenodd"></path>
</g>
</svg>