<svg id="svg" version="1.1" width="400" height="400" xmlns="http://www.w3.org/2000/svg" xmlns:xlink="http://www.w3.org/1999/xlink" style="display: block;"><g id="svgg"><path id="path0" d="M297.608 32.000 C 272.419 32.421,267.589 32.736,266.906 34.000 C 266.460 34.825,265.079 37.830,263.836 40.678 C 262.594 43.527,261.153 45.595,260.634 45.274 C 260.115 44.953,260.006 45.201,260.392 45.825 C 261.127 47.014,259.594 50.549,257.385 52.758 C 256.670 53.473,256.338 54.716,256.646 55.521 C 256.961 56.340,256.502 57.254,255.604 57.599 C 254.722 57.937,254.000 58.841,254.000 59.607 C 254.000 60.373,253.523 61.000,252.941 61.000 C 252.359 61.000,252.179 61.480,252.541 62.067 C 252.904 62.653,252.455 63.678,251.544 64.344 C 250.092 65.406,249.340 67.256,249.077 70.417 C 249.034 70.921,248.709 71.042,248.353 70.687 C 247.998 70.331,246.664 72.168,245.391 74.770 C 241.303 83.120,237.145 89.508,235.982 89.225 C 235.360 89.074,235.126 89.395,235.462 89.939 C 235.798 90.482,235.157 91.843,234.036 92.964 C 232.916 94.084,232.000 95.464,232.000 96.031 C 232.000 96.599,231.325 97.322,230.500 97.638 C 229.675 97.955,229.000 98.848,229.000 99.622 C 229.000 100.807,233.712 100.988,258.750 100.765 L 288.500 100.500 289.487 98.250 C 290.030 97.013,290.806 96.000,291.211 96.000 C 291.617 96.000,292.654 94.635,293.517 92.967 C 294.379 91.299,295.511 90.198,296.031 90.519 C 296.570 90.852,296.694 90.365,296.319 89.388 C 295.836 88.132,296.015 87.891,296.985 88.490 C 297.830 89.013,298.069 88.921,297.645 88.235 C 297.280 87.644,297.661 86.482,298.491 85.652 C 299.321 84.822,300.000 83.761,300.000 83.294 C 300.000 82.827,300.788 81.701,301.750 80.793 C 304.975 77.749,308.763 72.000,307.545 72.000 C 307.256 72.000,307.770 71.123,308.688 70.051 C 309.606 68.979,310.796 68.374,311.333 68.706 C 311.873 69.040,311.991 68.795,311.597 68.157 C 310.689 66.688,314.042 60.908,315.338 61.709 C 315.874 62.040,315.990 61.792,315.597 61.157 C 314.860 59.965,317.850 54.000,319.184 54.000 C 319.598 54.000,319.700 53.383,319.411 52.629 C 319.122 51.875,319.578 50.992,320.426 50.667 C 321.283 50.338,321.715 49.421,321.400 48.599 C 321.086 47.782,321.763 46.328,322.917 45.339 C 324.062 44.358,325.000 42.531,325.000 41.278 C 325.000 40.025,325.430 39.000,325.955 39.000 C 326.857 39.000,328.658 32.137,327.870 31.703 C 327.667 31.592,314.049 31.725,297.608 32.000 M106.000 119.500 C 106.000 167.625,106.283 207.000,106.629 207.000 C 108.502 207.000,123.000 201.540,123.000 200.835 C 123.000 200.376,124.427 200.000,126.171 200.000 C 127.915 200.000,130.110 199.306,131.047 198.457 C 131.985 197.609,134.495 196.639,136.626 196.303 C 138.757 195.966,140.781 195.262,141.125 194.739 C 141.661 193.922,144.856 193.305,149.809 193.064 C 150.529 193.029,150.840 192.550,150.500 192.000 C 149.951 191.112,152.091 190.595,155.750 190.731 C 156.438 190.757,157.000 190.330,157.000 189.782 C 157.000 189.234,157.646 189.034,158.435 189.337 C 159.225 189.640,160.012 189.480,160.185 188.981 C 160.526 188.000,185.123 181.000,188.229 181.000 C 189.402 181.000,189.848 180.563,189.405 179.845 C 189.001 179.192,189.127 178.960,189.695 179.312 C 190.835 180.016,205.970 177.174,207.500 175.968 C 208.050 175.535,211.872 175.150,215.992 175.113 C 220.149 175.076,223.636 174.591,223.826 174.023 C 224.268 172.697,237.000 172.674,237.000 174.000 C 237.000 174.550,239.165 175.000,241.811 175.000 C 245.241 175.000,247.240 175.575,248.770 177.000 C 249.950 178.100,251.349 179.000,251.879 179.000 C 252.408 179.000,253.138 180.350,253.500 182.000 C 253.862 183.650,254.663 185.000,255.279 185.000 C 256.063 185.000,256.039 185.361,255.200 186.200 C 253.460 187.940,253.460 373.060,255.200 374.800 C 256.602 376.202,305.626 376.524,307.800 375.145 C 311.501 372.797,308.462 164.000,304.726 164.000 C 304.144 164.000,303.930 163.737,304.252 163.415 C 304.976 162.691,303.004 156.721,301.770 155.900 C 300.990 155.382,300.350 153.436,300.077 150.750 C 300.034 150.338,299.325 150.000,298.500 150.000 C 297.667 150.000,297.000 149.111,297.000 148.000 C 297.000 146.889,296.333 146.000,295.500 146.000 C 294.675 146.000,294.000 145.325,294.000 144.500 C 294.000 143.675,293.325 143.000,292.500 143.000 C 291.675 143.000,291.000 142.298,291.000 141.441 C 291.000 140.584,290.550 140.160,290.000 140.500 C 289.450 140.840,289.000 140.641,289.000 140.059 C 289.000 139.477,288.325 139.000,287.500 139.000 C 286.675 139.000,286.000 138.580,286.000 138.067 C 286.000 137.554,285.093 136.847,283.985 136.495 C 282.877 136.144,282.272 135.369,282.640 134.773 C 283.018 134.161,282.847 133.977,282.245 134.349 C 280.821 135.228,277.861 134.034,278.580 132.870 C 278.893 132.364,278.778 132.053,278.324 132.178 C 276.738 132.615,270.000 130.901,270.000 130.061 C 270.000 129.594,265.950 128.892,261.000 128.500 C 256.050 128.108,252.000 127.385,252.000 126.894 C 252.000 125.720,228.285 125.729,227.559 126.904 C 227.252 127.401,222.163 128.129,216.250 128.521 C 210.338 128.913,204.980 129.651,204.345 130.161 C 203.710 130.671,200.756 131.265,197.782 131.481 C 191.457 131.942,189.684 132.273,189.000 133.119 C 188.523 133.710,163.313 141.001,161.750 141.000 C 161.338 141.000,161.000 116.475,161.000 86.500 L 161.000 32.000 133.500 32.000 L 106.000 32.000 106.000 119.500 M107.000 321.000 C 107.000 350.700,107.188 375.000,107.418 375.000 C 109.015 375.000,111.000 373.555,111.000 372.393 C 111.000 371.627,111.675 371.000,112.500 371.000 C 113.325 371.000,114.000 370.325,114.000 369.500 C 114.000 368.675,114.689 368.000,115.531 368.000 C 116.374 368.000,117.361 367.222,117.726 366.272 C 118.392 364.537,118.879 364.035,127.385 356.308 C 129.923 354.003,132.000 351.641,132.000 351.058 C 132.000 350.476,132.717 350.000,133.594 350.000 C 134.470 350.000,135.423 349.100,135.710 348.000 C 135.998 346.900,136.856 346.000,137.617 346.000 C 138.377 346.000,139.000 345.325,139.000 344.500 C 139.000 343.675,139.341 343.000,139.757 343.000 C 140.911 343.000,157.000 327.135,157.000 325.997 C 157.000 325.449,157.567 325.000,158.259 325.000 C 158.952 325.000,160.081 324.100,160.768 323.000 C 162.173 320.751,160.605 317.000,158.259 317.000 C 157.567 317.000,157.000 316.325,157.000 315.500 C 157.000 314.675,156.325 314.000,155.500 314.000 C 154.675 314.000,154.000 313.325,154.000 312.500 C 154.000 311.675,153.325 311.000,152.500 311.000 C 151.675 311.000,151.000 310.614,151.000 310.143 C 151.000 309.025,140.975 299.000,139.857 299.000 C 139.386 299.000,139.000 298.325,139.000 297.500 C 139.000 296.675,138.377 296.000,137.617 296.000 C 136.856 296.000,135.995 295.087,135.703 293.971 C 135.411 292.856,134.591 292.068,133.882 292.221 C 133.172 292.375,132.546 292.050,132.492 291.500 C 132.376 290.325,120.018 278.000,118.957 278.000 C 118.559 278.000,117.995 277.087,117.703 275.971 C 117.411 274.856,116.571 274.068,115.836 274.221 C 115.101 274.375,114.625 273.899,114.779 273.164 C 114.932 272.429,114.144 271.589,113.029 271.297 C 111.913 271.005,111.000 270.192,111.000 269.490 C 111.000 268.422,108.955 267.000,107.418 267.000 C 107.188 267.000,107.000 291.300,107.000 321.000 " stroke="none" fill="#000000" fill-rule="evenodd"></path></g></svg>