<svg id="svg" version="1.1" width="400" height="400" xmlns="http://www.w3.org/2000/svg" xmlns:xlink="http://www.w3.org/1999/xlink" style="display: block;"><g id="svgg"><path id="path0" d="M320.587 92.990 L 247.674 93.500 247.559 96.133 C 247.476 98.043,247.841 98.615,248.886 98.213 C 249.811 97.858,250.069 98.080,249.605 98.830 C 249.135 99.590,249.666 100.000,251.120 100.000 C 253.521 100.000,260.000 106.293,260.000 108.626 C 260.000 109.382,260.450 110.000,261.000 110.000 C 262.248 110.000,262.350 125.226,261.111 126.550 C 260.168 127.558,258.577 134.981,256.835 146.500 C 256.252 150.350,255.443 153.725,255.035 154.000 C 254.628 154.275,254.044 157.329,253.739 160.787 C 253.433 164.245,252.752 167.620,252.226 168.287 C 251.699 168.954,250.967 172.569,250.599 176.320 C 250.231 180.070,249.545 183.895,249.073 184.820 C 247.831 187.257,243.983 207.876,243.992 212.050 C 243.997 214.003,243.628 216.028,243.174 216.550 C 241.738 218.202,240.093 225.187,238.880 234.781 C 238.235 239.886,237.323 244.300,236.854 244.590 C 236.384 244.881,236.000 247.026,236.000 249.359 C 236.000 251.692,235.539 254.061,234.975 254.625 C 234.411 255.189,233.495 259.649,232.940 264.538 C 232.385 269.426,231.545 273.667,231.075 273.963 C 230.604 274.258,229.977 276.750,229.681 279.500 C 229.385 282.250,228.831 285.986,228.451 287.801 C 227.259 293.480,228.853 293.932,250.191 293.968 C 261.808 293.988,269.120 293.615,269.510 292.984 C 269.856 292.425,270.445 292.157,270.819 292.388 C 271.194 292.620,271.596 291.839,271.714 290.655 C 272.380 283.961,274.312 273.252,275.137 271.690 C 275.662 270.695,276.484 267.095,276.964 263.690 C 277.443 260.286,278.312 255.700,278.894 253.500 C 279.476 251.300,279.963 248.037,279.976 246.250 C 279.989 244.463,280.386 243.000,280.858 243.000 C 281.329 243.000,282.004 240.234,282.358 236.852 C 282.711 233.471,283.389 230.209,283.863 229.602 C 284.338 228.996,285.006 225.352,285.348 221.505 C 285.691 217.658,286.427 214.358,286.985 214.172 C 287.543 213.986,288.000 212.521,288.000 210.917 L 288.000 208.000 320.571 208.000 C 346.418 208.000,353.419 207.724,354.479 206.664 C 356.273 204.870,357.988 198.426,357.994 193.450 C 357.997 191.223,358.404 188.973,358.898 188.450 C 360.328 186.936,360.744 179.161,359.366 179.690 C 358.726 179.935,357.898 179.644,357.526 179.042 C 357.058 178.285,347.233 177.967,325.675 178.010 C 300.797 178.060,294.542 177.813,294.709 176.786 C 294.824 176.079,295.602 171.900,296.439 167.500 C 297.276 163.100,297.970 158.031,297.980 156.236 C 297.991 154.441,298.395 152.191,298.877 151.236 C 300.585 147.857,301.903 142.399,303.008 134.135 C 304.804 120.703,300.122 122.000,346.812 122.000 C 390.309 122.000,390.000 122.037,390.000 116.771 C 390.000 115.467,390.418 113.973,390.929 113.450 C 391.869 112.489,393.892 98.392,393.684 94.250 C 393.622 93.013,393.555 92.108,393.536 92.240 C 393.516 92.372,360.689 92.710,320.587 92.990 M27.000 94.831 C 27.000 96.824,29.935 100.000,31.777 100.000 C 38.965 100.000,44.392 118.566,40.608 130.215 C 39.843 132.572,38.972 137.119,38.674 140.319 C 38.375 143.520,37.711 146.670,37.198 147.319 C 36.685 147.969,36.022 151.329,35.724 154.787 C 35.427 158.245,34.742 161.620,34.202 162.287 C 33.663 162.954,32.897 166.875,32.500 171.000 C 32.103 175.125,31.445 178.950,31.038 179.500 C 30.042 180.845,27.871 192.205,28.491 192.825 C 28.762 193.095,28.537 193.853,27.991 194.510 C 27.446 195.167,26.740 198.584,26.421 202.102 C 26.103 205.621,25.457 209.400,24.985 210.500 C 23.672 213.565,21.241 224.834,20.513 231.234 C 20.154 234.388,19.442 237.227,18.930 237.543 C 18.419 237.859,18.000 240.062,18.000 242.437 C 18.000 244.812,17.384 248.273,16.630 250.128 C 15.877 251.983,14.955 256.630,14.581 260.457 C 14.208 264.283,13.527 267.883,13.069 268.457 C 12.292 269.431,11.769 271.898,10.356 281.256 C 10.044 283.322,9.386 285.261,8.894 285.565 C 8.402 285.869,8.004 287.329,8.008 288.809 C 8.021 293.286,11.219 294.000,31.271 294.000 C 51.296 294.000,51.508 293.932,52.600 287.099 C 52.961 284.845,53.595 283.000,54.010 283.000 C 54.424 283.000,55.082 279.175,55.471 274.500 C 55.861 269.825,56.553 266.000,57.010 266.000 C 57.467 266.000,58.123 262.962,58.468 259.250 C 58.813 255.537,59.562 251.657,60.132 250.628 C 60.703 249.598,61.391 246.223,61.662 243.128 C 61.933 240.032,62.535 236.600,63.001 235.500 C 64.149 232.785,66.754 220.634,67.502 214.500 C 67.837 211.750,68.783 208.037,69.603 206.250 L 71.094 203.000 110.194 203.000 L 149.293 203.000 148.642 210.705 C 148.284 214.942,147.543 218.857,146.995 219.405 C 146.448 219.952,146.000 222.110,146.000 224.200 C 146.000 226.290,145.607 228.000,145.127 228.000 C 144.282 228.000,143.678 231.653,142.357 244.750 C 142.010 248.188,141.338 251.000,140.863 251.000 C 140.388 251.000,140.000 252.098,140.000 253.441 C 140.000 254.784,139.550 256.160,139.000 256.500 C 138.450 256.840,137.976 258.779,137.947 260.809 C 137.918 262.839,137.215 267.875,136.384 272.000 C 135.554 276.125,134.624 281.075,134.319 283.000 C 134.013 284.925,133.387 286.971,132.928 287.546 C 131.687 289.102,132.217 292.854,133.603 292.322 C 134.260 292.070,135.095 292.344,135.458 292.932 C 135.887 293.627,142.538 294.000,154.488 294.000 C 173.995 294.000,176.000 293.533,176.000 288.988 C 176.000 287.959,176.450 286.840,177.000 286.500 C 177.550 286.160,178.000 284.327,178.000 282.427 C 178.000 280.527,178.418 278.191,178.928 277.236 C 180.035 275.165,182.000 262.577,182.000 257.557 C 182.000 255.601,182.450 254.000,183.000 254.000 C 183.550 254.000,184.000 252.875,184.000 251.500 C 184.000 250.125,184.450 249.000,185.000 249.000 C 185.550 249.000,186.009 247.313,186.020 245.250 C 186.030 243.188,186.746 237.900,187.610 233.500 C 188.473 229.100,189.419 223.700,189.712 221.500 C 190.004 219.300,190.601 217.271,191.039 216.992 C 191.477 216.712,192.308 212.249,192.886 207.074 C 193.464 201.898,194.401 197.199,194.968 196.632 C 195.536 196.064,196.000 193.440,196.000 190.800 C 196.000 188.160,196.386 186.000,196.858 186.000 C 197.330 186.000,198.264 181.838,198.934 176.750 C 200.137 167.620,201.410 162.154,203.123 158.764 C 203.605 157.809,204.000 155.303,204.000 153.195 C 204.000 151.087,204.657 147.144,205.460 144.432 C 206.264 141.719,206.925 138.600,206.930 137.500 C 206.945 134.419,208.162 128.615,209.027 127.500 C 209.454 126.950,210.127 123.350,210.523 119.500 C 210.919 115.650,211.688 111.944,212.231 111.265 C 212.775 110.586,213.458 106.199,213.751 101.515 L 214.282 93.000 194.723 93.000 C 173.727 93.000,172.000 93.232,172.000 96.048 C 172.000 97.057,171.550 98.160,171.000 98.500 C 170.450 98.840,170.000 101.251,170.000 103.859 C 170.000 106.467,169.545 109.055,168.988 109.612 C 168.432 110.168,167.505 114.646,166.928 119.562 C 166.352 124.478,165.457 129.281,164.940 130.236 C 164.423 131.191,164.000 132.852,164.000 133.927 C 164.000 135.002,163.613 136.121,163.139 136.414 C 162.666 136.707,161.983 139.771,161.622 143.223 C 160.984 149.333,159.768 157.152,158.431 163.750 C 158.069 165.537,157.374 167.000,156.887 167.000 C 156.399 167.000,156.000 167.863,156.000 168.918 C 156.000 174.235,157.859 174.000,115.862 174.000 C 71.913 174.000,75.042 174.699,77.510 165.436 C 78.380 162.171,79.362 156.448,79.694 152.718 C 80.025 148.987,80.679 145.698,81.148 145.409 C 81.616 145.119,82.000 143.810,82.000 142.500 C 82.000 141.190,82.369 139.890,82.819 139.612 C 83.270 139.333,84.251 134.108,85.000 128.000 C 85.749 121.892,86.730 116.667,87.181 116.388 C 87.631 116.110,88.000 114.199,88.000 112.141 C 88.000 110.083,88.518 107.882,89.150 107.250 C 89.783 106.617,90.346 103.264,90.400 99.800 L 90.500 93.500 58.750 93.236 C 28.374 92.983,27.000 93.052,27.000 94.831 " stroke="none" fill="#000000" fill-rule="evenodd"></path></g></svg>