<svg width="100%" height="100%" viewBox="0 0 400 400" version="1.1" xmlns="http://www.w3.org/2000/svg" style="fill-rule:evenodd;clip-rule:evenodd;stroke-linejoin:round;stroke-miterlimit:2;">
<g>
<path d="M78.296,2.75C67.849,19.18 58.289,36.693 49,53.834C35.084,79.512 18.681,103.881 4.945,129.656L2.73,133.811L4.75,136.656C7.276,140.209 8.842,144.362 11.111,148.085C22.626,166.983 33.318,186.37 44.447,205.5C70.019,249.456 95.915,293.27 120.633,337.733C129.476,353.64 139.055,369.136 148,385C150.157,388.825 152.176,392.73 154.427,396.5C155.013,397.482 155.357,399.188 156.5,399.235C183.843,400.367 211.229,399.945 238.595,399.985C263.575,400.022 288.559,400.04 313.533,399.467C316.421,399.4 319.447,399.241 322.087,398.067C322.988,397.666 322.64,396.172 323,395.255C323.978,392.764 325.557,390.552 326.921,388.25C332.066,379.57 337.091,370.893 342,362.036C359.098,331.185 378.438,301.517 395.04,270.373L397.24,266.246L394.62,262.391C379.152,239.635 367.03,213.906 353.317,190C326.54,143.318 299.683,96.888 272.427,50.5C263.202,34.8 255.464,16.929 245,2.125C242.53,-1.37 236.568,0.372 232.289,0.322C208.508,0.043 184.724,0 160.941,-0L80.046,0L78.296,2.75M241.073,7.573C257.591,38.704 276.478,69.238 294.304,99.78C298.799,107.482 303.054,115.297 307.54,123C308.328,124.353 309.122,125.704 310,127C310.824,128.217 313.483,129.327 312.641,130.532C311.384,132.33 308.492,132.226 306.299,132.297C283.044,133.046 259.768,132.981 236.5,132.985L164.5,132.998L161.572,127.749C146.26,100.291 129.983,73.365 114.502,46C105.778,30.579 104.247,28.995 99,19.983C97.397,17.23 96.032,14.346 94.5,11.553C93.031,8.875 86.968,3.941 90,3.57C114.591,0.558 139.548,3 164.323,3L238.645,3L241.073,7.573M308,137.596C308,140.644 305.026,142.917 303.5,145.555C298.982,153.363 294.463,161.143 290.026,169C274.03,197.325 255.451,224.862 240.966,253.974L236.5,262.948L164.25,262.974C140.166,262.982 115.9,265.357 92,262.386C89.012,262.015 95.039,257.185 96.5,254.552C98.039,251.778 99.454,248.936 101,246.166C105.726,237.695 110.967,229.403 115.859,221C130.525,195.804 145.487,170.72 159.713,145.25L164.319,137L236.16,137C275.672,137 308,137.268 308,137.596M239.078,273.259C256.308,303.316 273.726,333.258 291.135,363.21C295.997,371.576 300.713,380.037 305.5,388.447C307.011,391.102 313.032,396.058 310,396.43C285.426,399.442 260.485,397 235.727,397L161.455,397L159.493,393.25C145.096,365.737 128.71,337.111 111.814,311.167C103.953,299.096 97.016,285.488 89.947,273C89.092,271.49 87.482,267.92 89.216,267.845C113.789,266.784 138.404,267.027 163,267.025L235.5,267.019L239.078,273.259"/>
</g>
</svg>
