<svg version="1.1" width="515" height="515" xmlns="http://www.w3.org/2000/svg">
<g>
<path d="M95.666 39.310 C 88.425 46.631,78.450 56.901,73.500 62.134 C 60.687 75.677,58.719 76.500,39.139 76.500 L 23.777 76.500 19.639 81.072 C 10.383 91.296,0.000 116.917,-0.000 129.532 C -0.000 148.646,7.813 163.227,30.527 186.500 C 47.208 203.591,53.745 213.148,59.940 229.500 C 68.196 251.292,65.645 249.638,92.443 250.581 C 113.631 251.327,126.757 249.295,145.270 242.403 C 150.405 240.492,150.964 240.683,147.858 243.286 C 130.268 258.027,119.252 303.922,124.884 339.000 C 134.018 395.882,158.982 430.064,209.000 454.175 C 239.624 468.937,259.895 471.960,282.000 465.062 C 304.561 458.020,348.229 443.144,349.231 442.158 C 349.633 441.762,345.808 441.818,340.731 442.282 C 307.667 445.303,276.124 443.139,274.069 437.708 C 272.987 434.850,272.755 435.002,281.205 433.017 C 289.177 431.143,289.226 431.182,276.678 429.426 C 272.750 428.876,271.678 428.282,270.894 426.221 C 270.365 424.830,268.470 420.723,266.683 417.096 L 263.434 410.500 273.708 410.406 C 283.265 410.318,292.002 408.261,291.999 406.098 C 291.999 405.769,287.386 405.472,281.749 405.437 C 259.838 405.304,251.105 397.540,251.016 378.113 L 251.000 374.726 255.858 379.270 C 265.686 388.463,284.809 394.477,293.457 391.094 C 294.949 390.511,294.289 390.174,290.681 389.680 C 279.277 388.117,257.000 368.578,257.000 360.139 C 257.000 358.605,261.697 355.695,262.935 356.460 C 263.498 356.808,267.903 357.257,272.723 357.459 C 278.792 357.712,281.669 358.236,282.080 359.162 C 290.529 378.209,294.585 381.036,313.386 380.978 C 322.490 380.950,327.256 378.817,333.075 372.164 L 337.545 367.054 346.523 371.507 C 368.167 382.244,391.921 381.644,411.042 369.879 C 418.955 365.010,434.744 340.899,440.758 324.500 C 441.364 322.850,442.998 318.443,444.392 314.707 C 452.897 291.898,454.642 275.901,449.447 268.358 C 443.666 259.964,440.716 259.586,427.500 265.543 C 417.836 269.899,414.732 271.000,412.128 270.996 L 409.500 270.992 409.474 261.746 L 409.448 252.500 400.834 235.500 C 396.097 226.150,391.384 216.264,390.361 213.531 C 389.201 210.434,386.334 206.306,382.750 202.574 C 379.334 199.017,377.000 195.701,377.000 194.403 C 377.000 191.543,380.638 173.914,382.433 168.074 C 385.235 158.959,390.135 145.655,392.132 141.741 C 394.838 136.437,394.180 133.370,387.613 120.683 C 371.899 90.324,358.134 73.011,342.683 64.170 C 322.641 52.703,292.784 55.838,275.593 71.216 C 272.344 74.122,268.294 77.742,266.593 79.261 C 260.799 84.432,257.732 83.456,236.256 69.612 C 232.540 67.217,222.075 61.609,213.000 57.150 C 203.925 52.690,196.046 48.667,195.492 48.208 C 186.201 40.517,133.502 26.044,114.666 26.010 L 108.833 26.000 95.666 39.310 M133.794 36.553 C 165.960 44.000,188.430 53.165,228.500 75.180 C 234.000 78.201,245.700 84.351,254.500 88.846 C 274.198 98.908,293.204 112.915,299.516 122.023 C 304.460 129.157,317.083 163.499,320.091 178.000 C 321.687 185.694,322.932 187.542,322.970 182.275 C 322.998 178.317,323.142 178.102,325.250 178.885 C 326.488 179.344,329.300 180.047,331.500 180.446 L 335.500 181.172 329.136 176.336 C 320.504 169.777,321.268 171.568,314.483 142.000 C 309.236 119.136,308.899 118.034,306.176 114.797 C 302.694 110.659,292.430 102.641,279.733 94.141 C 267.417 85.895,267.479 86.157,276.108 78.859 C 278.942 76.461,281.765 74.035,282.381 73.467 C 291.641 64.922,312.500 61.158,322.533 66.222 C 324.165 67.045,326.806 68.033,328.403 68.417 L 331.305 69.115 329.610 66.528 L 327.915 63.941 330.707 64.603 C 339.336 66.651,348.764 75.068,361.397 92.000 C 363.654 95.024,366.208 98.287,367.074 99.250 C 370.472 103.027,382.725 124.757,383.923 129.129 C 385.768 135.860,384.245 142.708,374.945 169.500 C 370.148 183.320,369.532 191.996,372.559 203.116 C 374.776 211.257,376.000 212.634,376.000 206.986 C 376.000 200.977,377.907 203.090,380.976 212.500 C 382.231 216.350,384.551 222.075,386.129 225.221 C 389.506 231.952,389.513 231.996,387.250 232.015 C 385.941 232.026,386.112 232.341,387.929 233.265 C 389.282 233.953,391.851 237.380,393.729 241.000 C 395.584 244.575,397.987 249.004,399.071 250.842 C 403.038 257.571,402.798 272.846,398.819 266.854 C 397.715 265.191,395.622 264.430,389.531 263.474 C 382.148 262.316,381.802 262.342,383.860 263.894 C 385.591 265.200,385.794 265.806,384.826 266.774 C 383.858 267.742,384.142 268.000,386.178 268.000 C 389.589 268.000,391.393 270.300,390.566 273.594 C 389.887 276.300,387.953 276.531,382.500 274.560 C 380.601 273.873,380.591 273.912,382.303 275.317 C 383.295 276.132,386.797 277.631,390.086 278.649 C 396.084 280.506,397.358 282.932,394.096 286.283 C 393.011 287.398,390.000 286.044,390.000 284.440 C 390.000 282.904,384.927 281.282,377.215 280.353 C 371.232 279.632,369.338 280.816,363.894 288.680 C 359.825 294.558,360.294 295.106,365.250 290.266 C 370.337 285.299,373.638 283.905,378.459 284.687 C 381.803 285.230,381.922 285.366,380.140 286.614 C 379.086 287.353,376.677 290.329,374.787 293.229 C 366.127 306.516,364.684 310.306,371.950 300.682 C 379.385 290.835,388.821 286.389,393.107 290.714 C 394.038 291.653,387.277 306.359,383.451 311.715 C 381.964 313.797,383.805 312.203,387.542 308.173 C 394.250 300.939,397.337 295.159,401.920 281.250 L 403.320 277.000 412.587 277.000 C 421.233 277.000,422.305 276.765,428.569 273.500 C 446.211 264.305,448.905 275.259,438.035 311.989 C 434.947 322.425,421.991 344.661,412.788 355.321 C 391.383 380.114,355.780 375.728,324.408 344.431 C 318.683 338.721,314.000 333.588,314.000 333.024 C 314.000 330.351,312.116 332.462,311.121 336.250 C 310.506 338.587,308.202 342.975,306.000 346.000 C 296.882 358.526,296.779 358.718,297.481 361.912 C 298.587 366.949,303.144 371.006,307.651 370.967 C 311.935 370.930,312.062 371.150,304.389 365.296 C 301.704 363.248,301.879 363.269,306.850 365.597 C 314.719 369.281,320.649 368.718,323.689 364.000 C 327.924 357.428,329.092 356.648,331.338 358.894 C 333.901 361.457,333.046 363.302,327.466 367.248 C 311.963 378.213,298.725 374.285,289.551 356.000 C 282.596 342.140,281.058 339.767,275.297 334.023 C 263.067 321.829,261.345 308.178,270.186 293.500 C 272.852 289.073,272.547 288.536,266.250 286.572 C 254.799 283.001,244.531 277.143,239.834 271.501 C 234.723 265.361,234.522 223.789,239.540 210.750 C 239.911 209.788,240.053 209.000,239.857 209.001 C 239.661 209.001,236.125 209.699,232.000 210.550 C 203.444 216.447,175.522 224.405,159.500 231.212 C 155.650 232.848,150.475 234.763,148.000 235.468 C 145.525 236.173,138.100 238.439,131.500 240.505 C 118.446 244.589,117.161 244.702,88.849 244.250 L 73.198 244.000 70.982 240.250 C 69.764 238.188,67.024 231.232,64.893 224.793 C 59.464 208.386,57.259 204.955,42.131 189.382 C 2.825 148.921,-1.832 120.650,25.775 90.091 L 29.759 85.681 41.129 86.333 C 65.752 87.744,75.167 90.344,108.409 104.918 C 120.988 110.432,127.241 112.542,120.268 108.918 C 118.767 108.138,112.805 104.779,107.019 101.454 C 92.426 93.066,80.699 87.433,72.750 84.992 C 64.720 82.527,64.591 82.066,70.745 77.832 C 77.505 73.180,84.702 65.808,92.056 56.000 C 107.365 35.583,114.749 32.143,133.794 36.553 M332.005 86.000 C 331.999 90.155,335.239 97.134,340.361 104.000 C 346.843 112.688,348.539 116.211,353.603 131.500 C 358.477 146.218,358.870 146.360,355.944 132.347 C 354.814 126.931,353.621 120.749,353.294 118.608 C 352.733 114.944,348.242 105.308,345.553 102.000 C 344.883 101.175,342.877 98.079,341.096 95.120 C 339.316 92.161,336.543 88.336,334.934 86.620 L 332.009 83.500 332.005 86.000 M209.500 132.885 C 215.000 133.904,224.675 135.510,231.000 136.454 C 253.414 139.799,270.270 146.756,254.439 146.128 C 249.423 145.929,247.490 146.406,242.000 149.196 L 235.500 152.500 246.000 153.090 C 265.430 154.181,267.695 155.605,279.658 174.250 C 287.000 185.695,290.379 189.318,287.585 182.750 C 286.824 180.963,285.525 177.700,284.697 175.500 C 268.473 132.376,268.673 132.517,222.500 131.526 L 199.500 131.032 209.500 132.885 M321.600 223.892 C 317.158 224.585,314.555 227.532,313.582 232.972 L 312.961 236.444 316.731 232.881 C 321.384 228.482,325.860 226.434,333.000 225.437 C 337.563 224.799,338.074 224.543,336.000 223.934 C 333.038 223.064,327.024 223.046,321.600 223.892 M185.864 241.250 C 191.953 260.144,201.961 282.314,215.544 307.001 C 223.633 321.704,223.884 322.146,226.045 325.500 C 227.108 327.150,228.270 329.175,228.628 330.000 C 231.074 335.644,241.493 347.025,247.098 350.175 C 250.779 352.244,251.195 356.526,247.911 358.555 C 247.036 359.096,227.024 348.110,223.921 345.386 C 223.053 344.624,222.043 344.000,221.677 344.000 C 220.731 344.000,199.916 329.716,191.000 322.947 C 168.989 306.239,158.644 288.276,152.442 256.000 C 150.225 244.464,150.064 244.892,158.427 240.107 C 165.602 236.002,177.885 231.064,181.030 231.021 C 182.095 231.006,183.565 234.117,185.864 241.250 M326.929 253.367 C 322.952 254.440,313.000 259.478,313.000 260.419 C 313.000 260.604,314.957 260.534,317.348 260.264 L 321.697 259.774 322.299 265.612 C 322.780 270.265,322.562 271.826,321.228 273.300 C 319.407 275.313,321.884 275.107,328.000 272.739 C 329.375 272.206,335.776 271.536,342.225 271.249 C 353.580 270.744,356.348 269.719,349.715 268.474 C 346.919 267.950,346.489 267.456,346.415 264.686 C 346.369 262.934,345.987 260.097,345.567 258.383 C 344.870 255.541,345.054 255.196,347.652 254.474 C 350.490 253.685,350.486 253.680,346.500 252.899 C 340.657 251.754,332.158 251.958,326.929 253.367 M331.066 263.035 C 334.456 264.850,333.506 268.352,329.263 269.680 C 325.131 270.973,324.043 270.272,324.015 266.300 C 323.991 262.857,327.606 261.184,331.066 263.035 M433.085 278.630 C 422.379 283.782,415.741 283.946,406.761 279.280 C 403.939 277.813,407.885 282.129,410.932 283.842 C 417.736 287.666,428.598 285.683,435.856 279.292 C 440.299 275.380,439.991 275.306,433.085 278.630 M142.191 310.555 C 164.754 339.667,205.572 364.163,238.750 368.501 C 241.637 368.879,244.000 369.315,244.000 369.472 C 244.000 369.628,243.379 371.273,242.619 373.128 C 241.860 374.983,240.922 379.551,240.536 383.280 L 239.834 390.060 236.167 389.430 C 234.150 389.083,228.225 387.668,223.000 386.285 C 217.775 384.901,212.150 383.432,210.500 383.019 C 188.269 377.460,160.834 363.241,145.417 349.290 C 138.802 343.304,129.794 335.491,128.795 334.873 C 126.909 333.708,125.839 315.302,126.986 303.762 C 128.471 288.820,128.543 288.747,133.408 297.283 C 135.704 301.313,139.657 307.286,142.191 310.555 M303.810 326.696 C 302.343 328.238,300.821 330.801,300.428 332.391 L 299.712 335.282 305.197 331.141 C 308.214 328.863,311.627 327.000,312.782 327.000 C 313.937 327.000,315.160 326.550,315.500 326.000 C 315.855 325.425,314.924 324.994,313.309 324.986 C 311.764 324.979,309.595 324.729,308.489 324.432 C 307.122 324.065,305.624 324.790,303.810 326.696 M157.000 387.233 C 182.880 399.836,216.645 409.979,232.824 410.009 C 243.220 410.028,247.711 411.087,249.149 413.857 C 249.892 415.288,252.412 419.394,254.750 422.980 L 259.000 429.500 254.250 430.321 C 233.325 433.939,199.423 429.619,176.117 420.365 C 155.810 412.301,154.169 410.769,144.025 390.407 C 136.795 375.896,136.853 376.382,142.750 379.829 C 145.363 381.357,151.775 384.688,157.000 387.233 M309.000 415.658 L 309.000 441.316 333.646 440.627 C 347.201 440.248,358.676 439.700,359.146 439.410 C 359.616 439.120,360.000 427.884,360.000 414.441 L 360.000 390.000 349.000 390.000 L 338.000 390.000 338.000 408.560 L 338.000 427.121 334.250 426.810 L 330.500 426.500 330.227 408.250 L 329.955 390.000 319.477 390.000 L 309.000 390.000 309.000 415.658 M369.000 438.000 L 369.000 486.000 379.500 486.000 L 390.000 486.000 390.000 438.000 L 390.000 390.000 379.500 390.000 L 369.000 390.000 369.000 438.000 M398.036 394.250 C 398.431 396.587,399.476 402.325,400.357 407.000 C 402.928 420.628,405.994 437.095,406.967 442.500 C 407.462 445.250,409.204 454.250,410.838 462.500 C 412.473 470.750,414.117 479.413,414.493 481.750 L 415.176 486.000 428.517 486.000 L 441.858 486.000 442.872 480.750 C 443.429 477.863,445.267 468.075,446.957 459.000 C 452.214 430.757,453.157 425.712,454.521 418.500 C 457.054 405.117,459.096 394.487,459.566 392.250 C 460.034 390.021,459.933 390.000,448.664 390.000 L 437.290 390.000 436.049 399.250 C 435.367 404.337,434.178 412.325,433.407 417.000 C 432.637 421.675,432.005 426.705,432.003 428.179 C 432.001 429.652,431.261 431.596,430.357 432.500 C 427.643 435.214,426.472 432.566,424.604 419.500 C 421.402 397.098,420.852 393.502,420.358 391.750 C 419.926 390.216,418.474 390.000,408.591 390.000 L 397.317 390.000 398.036 394.250 M468.000 438.000 L 468.000 486.000 490.000 486.000 L 512.000 486.000 512.000 474.500 L 512.000 463.000 499.000 463.000 L 486.000 463.000 486.000 456.000 L 486.000 449.000 492.000 449.000 L 498.000 449.000 498.000 437.500 L 498.000 426.000 492.000 426.000 L 486.000 426.000 486.000 420.000 L 486.000 414.000 499.000 414.000 L 512.000 414.000 512.000 402.000 L 512.000 390.000 490.000 390.000 L 468.000 390.000 468.000 438.000 M355.000 441.968 C 352.525 443.014,347.688 444.860,344.250 446.069 L 338.000 448.268 338.000 467.134 L 338.000 486.000 349.000 486.000 L 360.000 486.000 360.000 463.000 C 360.000 450.350,359.887 440.015,359.750 440.033 C 359.613 440.051,357.475 440.921,355.000 441.968 M276.570 457.421 C 279.682 469.822,243.004 468.180,215.071 454.668 L 206.500 450.522 224.500 449.876 C 242.653 449.225,253.521 447.628,262.513 444.289 L 267.409 442.471 271.678 448.707 C 274.026 452.137,276.227 456.058,276.570 457.421 M326.500 452.025 C 325.400 452.514,321.012 454.117,316.750 455.587 L 309.000 458.259 309.000 472.130 L 309.000 486.000 319.500 486.000 L 330.000 486.000 330.000 468.500 C 330.000 458.875,329.663 451.030,329.250 451.068 C 328.837 451.105,327.600 451.536,326.500 452.025 " stroke="none" fill-rule="evenodd"></path>
</g>
</svg>