<svg id="svg" xmlns="http://www.w3.org/2000/svg" xmlns:xlink="http://www.w3.org/1999/xlink" width="400" height="400" viewBox="0, 0, 400,400"><g id="svgg"><path id="path0" d="M45.302 152.619 C 39.879 154.431,37.750 156.439,40.671 156.987 C 45.925 157.973,52.315 163.796,53.413 168.600 C 55.364 177.129,60.027 181.049,65.116 178.439 C 70.671 175.590,71.790 168.138,67.884 160.000 C 64.732 153.433,53.677 149.819,45.302 152.619 M73.600 154.521 C 73.600 154.858,73.735 155.193,73.900 155.267 C 74.631 155.592,76.417 160.154,76.814 162.713 C 77.445 166.784,76.058 172.742,74.000 174.800 C 71.041 177.759,71.899 186.040,75.359 187.912 C 83.719 192.435,95.058 178.765,91.233 168.776 C 89.237 163.564,87.149 160.605,83.292 157.523 C 80.534 155.319,73.600 153.172,73.600 154.521 M130.400 190.800 L 130.400 227.200 136.000 227.200 L 141.600 227.200 141.600 213.673 C 141.600 199.202,141.834 196.691,143.485 193.433 C 148.326 183.878,162.022 183.367,166.282 192.582 L 167.400 195.000 167.521 211.100 L 167.642 227.200 173.021 227.200 L 178.400 227.200 178.394 210.300 C 178.385 186.306,176.968 181.899,167.747 177.200 L 165.000 175.800 158.600 175.800 L 152.200 175.800 149.114 177.321 C 147.371 178.180,145.064 179.754,143.814 180.936 L 141.600 183.030 141.600 168.715 L 141.600 154.400 136.000 154.400 L 130.400 154.400 130.400 190.800 M318.650 156.225 C 314.737 157.659,313.269 162.560,315.580 166.476 C 317.081 169.021,322.138 170.147,324.714 168.510 C 331.869 163.965,326.608 153.308,318.650 156.225 M30.579 164.561 C 23.399 166.810,17.043 173.762,16.173 180.317 C 15.855 182.718,15.887 182.735,18.172 181.395 C 23.350 178.361,30.781 178.278,35.200 181.206 C 42.984 186.361,50.400 184.107,50.400 176.584 C 50.400 168.527,39.339 161.818,30.579 164.561 M208.800 175.863 C 189.706 179.472,181.694 204.063,194.523 219.684 C 196.905 222.585,203.003 226.800,204.817 226.800 C 205.160 226.800,205.611 226.951,205.820 227.136 C 206.029 227.320,207.190 227.673,208.400 227.921 C 218.700 230.025,228.622 227.090,235.102 220.021 C 236.563 218.428,239.200 214.317,239.200 213.634 C 239.200 213.389,239.367 212.877,239.571 212.495 C 242.356 207.282,242.049 196.080,238.950 189.869 C 237.897 187.759,233.728 182.000,233.254 182.000 C 233.110 182.000,232.544 181.595,231.996 181.100 C 227.275 176.834,216.516 174.405,208.800 175.863 M274.463 175.866 C 271.182 176.563,266.848 179.095,264.100 181.920 L 262.800 183.257 262.800 180.028 L 262.800 176.800 257.400 176.800 L 252.000 176.800 252.000 212.400 L 252.000 248.000 257.400 248.000 L 262.800 248.000 262.800 234.372 L 262.800 220.743 264.100 222.088 C 269.815 228.001,283.322 230.811,288.600 227.185 C 288.820 227.034,289.510 226.788,290.132 226.639 C 291.163 226.393,293.315 225.150,295.395 223.600 C 296.889 222.487,300.103 219.011,301.111 217.419 C 303.381 213.834,304.438 210.364,305.348 203.513 C 305.545 202.030,304.710 194.520,304.180 193.000 C 301.714 185.931,297.278 180.827,290.893 177.711 L 287.000 175.811 281.200 175.739 C 278.010 175.700,274.978 175.757,274.463 175.866 M362.400 175.865 C 360.240 176.293,355.613 178.873,353.576 180.786 C 352.396 181.894,351.379 182.800,351.315 182.800 C 351.252 182.800,351.200 181.450,351.200 179.800 L 351.200 176.800 345.600 176.800 L 340.000 176.800 340.000 202.000 L 340.000 227.200 345.600 227.200 L 351.200 227.200 351.200 212.928 C 351.200 198.702,351.272 197.791,352.661 194.540 C 352.958 193.846,353.200 193.081,353.200 192.840 C 353.200 192.598,353.368 192.400,353.573 192.400 C 353.778 192.400,354.056 192.054,354.190 191.631 C 355.641 187.061,366.482 184.331,371.169 187.355 C 376.846 191.019,377.200 192.479,377.200 212.232 L 377.200 227.200 382.600 227.200 L 388.000 227.200 387.997 211.700 C 387.992 190.759,387.510 187.467,383.682 182.243 C 382.298 180.353,377.485 176.800,376.310 176.800 C 376.007 176.800,375.537 176.577,375.265 176.305 C 374.760 175.800,364.498 175.449,362.400 175.865 M315.600 202.000 L 315.600 227.200 321.000 227.200 L 326.400 227.200 326.400 202.000 L 326.400 176.800 321.000 176.800 L 315.600 176.800 315.600 202.000 M99.199 178.202 C 98.980 178.780,98.800 179.423,98.800 179.631 C 98.800 179.840,98.629 180.323,98.419 180.705 C 98.210 181.087,97.742 182.071,97.378 182.890 C 95.614 186.873,91.532 189.977,85.425 191.979 C 73.091 196.023,74.321 208.400,87.058 208.400 C 97.556 208.400,104.405 200.523,103.888 189.042 C 103.596 182.542,100.378 175.103,99.199 178.202 M26.100 186.218 C 17.209 188.612,12.183 197.736,13.966 208.247 C 14.765 212.956,18.400 219.307,18.400 215.995 C 18.400 215.552,18.560 214.877,18.755 214.495 C 18.950 214.113,19.616 212.736,20.235 211.436 C 22.156 207.400,28.230 202.429,31.283 202.394 C 31.567 202.391,32.587 202.114,33.548 201.780 C 47.110 197.057,40.116 182.444,26.100 186.218 M218.840 186.032 C 223.515 187.518,227.167 190.447,228.909 194.110 C 230.661 197.795,230.800 198.374,230.800 202.000 C 230.800 203.959,230.598 206.066,230.351 206.681 C 224.006 222.504,204.174 222.196,199.405 206.200 C 195.981 194.714,207.745 182.506,218.840 186.032 M283.867 186.403 C 290.925 189.333,294.400 194.497,294.400 202.057 C 294.400 221.100,268.467 224.522,263.005 206.200 C 259.391 194.078,272.467 181.670,283.867 186.403 M34.417 206.300 C 24.354 211.463,23.187 225.202,32.028 234.428 C 33.642 236.112,37.656 238.800,38.557 238.800 C 38.885 238.800,39.254 238.963,39.377 239.163 C 39.623 239.562,43.535 240.198,43.844 239.889 C 43.950 239.783,43.487 238.615,42.816 237.294 C 39.986 231.725,39.978 223.622,42.800 220.800 C 45.408 218.192,46.365 210.753,44.440 208.053 C 42.373 205.156,38.103 204.409,34.417 206.300 M71.284 210.578 C 62.488 214.568,68.518 227.642,80.262 230.041 C 89.138 231.855,101.600 221.855,101.600 212.919 L 101.600 211.558 99.500 212.708 C 94.025 215.705,87.363 215.843,82.857 213.054 C 78.443 210.320,73.964 209.362,71.284 210.578 M53.800 215.077 C 46.475 216.611,45.446 229.961,52.105 237.066 C 57.151 242.450,68.045 244.012,75.235 240.382 C 79.055 238.454,79.677 237.443,77.280 237.059 C 71.705 236.168,65.972 230.873,64.222 224.999 C 62.808 220.255,62.214 219.043,60.401 217.201 C 58.313 215.080,56.528 214.505,53.800 215.077 " stroke="none" fill="#000000" fill-rule="evenodd"></path></g></svg>