<svg width="100%" height="100%" viewBox="0 0 400 400" version="1.1" xmlns="http://www.w3.org/2000/svg" style="fill-rule:evenodd;clip-rule:evenodd;stroke-linejoin:round;stroke-miterlimit:2;">
    <g>
        <path d="M45.302,152.619C39.879,154.431 37.75,156.439 40.671,156.987C45.925,157.973 52.315,163.796 53.413,168.6C55.364,177.129 60.027,181.049 65.116,178.439C70.671,175.59 71.79,168.138 67.884,160C64.732,153.433 53.677,149.819 45.302,152.619M73.6,154.521C73.6,154.858 73.735,155.193 73.9,155.267C74.631,155.592 76.417,160.154 76.814,162.713C77.445,166.784 76.058,172.742 74,174.8C71.041,177.759 71.899,186.04 75.359,187.912C83.719,192.435 95.058,178.765 91.233,168.776C89.237,163.564 87.149,160.605 83.292,157.523C80.534,155.319 73.6,153.172 73.6,154.521M130.4,227.2L141.6,227.2L141.6,213.673C141.6,199.202 141.834,196.691 143.485,193.433C148.326,183.878 162.022,183.367 166.282,192.582L167.4,195L167.642,227.2L178.4,227.2L178.394,210.3C178.385,186.306 176.968,181.899 167.747,177.2L165,175.8L152.2,175.8L149.114,177.321C147.371,178.18 145.064,179.754 143.814,180.936L141.6,183.03L141.6,154.4L130.4,154.4M318.65,156.225C314.737,157.659 313.269,162.56 315.58,166.476C317.081,169.021 322.138,170.147 324.714,168.51C331.869,163.965 326.608,153.308 318.65,156.225M30.579,164.561C23.399,166.81 17.043,173.762 16.173,180.317C15.855,182.718 15.887,182.735 18.172,181.395C23.35,178.361 30.781,178.278 35.2,181.206C42.984,186.361 50.4,184.107 50.4,176.584C50.4,168.527 39.339,161.818 30.579,164.561M208.8,175.863C189.706,179.472 181.694,204.063 194.523,219.684C196.905,222.585 203.003,226.8 204.817,226.8C205.16,226.8 205.611,226.951 205.82,227.136C206.029,227.32 207.19,227.673 208.4,227.921C218.7,230.025 228.622,227.09 235.102,220.021C236.563,218.428 239.2,214.317 239.2,213.634C239.2,213.389 239.367,212.877 239.571,212.495C242.356,207.282 242.049,196.08 238.95,189.869C237.897,187.759 233.728,182 233.254,182C233.11,182 232.544,181.595 231.996,181.1C227.275,176.834 216.516,174.405 208.8,175.863M274.463,175.866C271.182,176.563 266.848,179.095 264.1,181.92L262.8,183.257L262.8,176.8L252,176.8L252,248L262.8,248L262.8,220.743L264.1,222.088C269.815,228.001 283.322,230.811 288.6,227.185C288.82,227.034 289.51,226.788 290.132,226.639C291.163,226.393 293.315,225.15 295.395,223.6C296.889,222.487 300.103,219.011 301.111,217.419C303.381,213.834 304.438,210.364 305.348,203.513C305.545,202.03 304.71,194.52 304.18,193C301.714,185.931 297.278,180.827 290.893,177.711L287,175.811L281.2,175.739C278.01,175.7 274.978,175.757 274.463,175.866M362.4,175.865C360.24,176.293 355.613,178.873 353.576,180.786C352.396,181.894 351.379,182.8 351.315,182.8C351.252,182.8 351.2,176.8 351.2,176.8L340,176.8L340,227.2L351.2,227.2L351.2,212.928C351.2,198.702 351.272,197.791 352.661,194.54C352.958,193.846 353.2,193.081 353.2,192.84C353.2,192.598 353.368,192.4 353.573,192.4C353.778,192.4 354.056,192.054 354.19,191.631C355.641,187.061 366.482,184.331 371.169,187.355C376.846,191.019 377.2,192.479 377.2,212.232L377.2,227.2L388,227.2L387.997,211.7C387.992,190.759 387.51,187.467 383.682,182.243C382.298,180.353 377.485,176.8 376.31,176.8C376.007,176.8 375.537,176.577 375.265,176.305C374.76,175.8 364.498,175.449 362.4,175.865M315.6,227.2L326.4,227.2L326.4,176.8L315.6,176.8M99.199,178.202C98.98,178.78 98.8,179.423 98.8,179.631C98.8,179.84 98.629,180.323 98.419,180.705C98.21,181.087 97.742,182.071 97.378,182.89C95.614,186.873 91.532,189.977 85.425,191.979C73.091,196.023 74.321,208.4 87.058,208.4C97.556,208.4 104.405,200.523 103.888,189.042C103.596,182.542 100.378,175.103 99.199,178.202M26.1,186.218C17.209,188.612 12.183,197.736 13.966,208.247C14.765,212.956 18.4,219.307 18.4,215.995C18.4,215.552 18.56,214.877 18.755,214.495C18.95,214.113 19.616,212.736 20.235,211.436C22.156,207.4 28.23,202.429 31.283,202.394C31.567,202.391 32.587,202.114 33.548,201.78C47.11,197.057 40.116,182.444 26.1,186.218M218.84,186.032C223.515,187.518 227.167,190.447 228.909,194.11C230.661,197.795 230.8,198.374 230.8,202C230.8,203.959 230.598,206.066 230.351,206.681C224.006,222.504 204.174,222.196 199.405,206.2C195.981,194.714 207.745,182.506 218.84,186.032M283.867,186.403C290.925,189.333 294.4,194.497 294.4,202.057C294.4,221.1 268.467,224.522 263.005,206.2C259.391,194.078 272.467,181.67 283.867,186.403M34.417,206.3C24.354,211.463 23.187,225.202 32.028,234.428C33.642,236.112 37.656,238.8 38.557,238.8C38.885,238.8 39.254,238.963 39.377,239.163C39.623,239.562 43.535,240.198 43.844,239.889C43.95,239.783 43.487,238.615 42.816,237.294C39.986,231.725 39.978,223.622 42.8,220.8C45.408,218.192 46.365,210.753 44.44,208.053C42.373,205.156 38.103,204.409 34.417,206.3M71.284,210.578C62.488,214.568 68.518,227.642 80.262,230.041C89.138,231.855 101.6,221.855 101.6,212.919L101.6,211.558L99.5,212.708C94.025,215.705 87.363,215.843 82.857,213.054C78.443,210.32 73.964,209.362 71.284,210.578M53.8,215.077C46.475,216.611 45.446,229.961 52.105,237.066C57.151,242.45 68.045,244.012 75.235,240.382C79.055,238.454 79.677,237.443 77.28,237.059C71.705,236.168 65.972,230.873 64.222,224.999C62.808,220.255 62.214,219.043 60.401,217.201C58.313,215.08 56.528,214.505 53.8,215.077"/>
    </g>
</svg>
