<svg xmlns="http://www.w3.org/2000/svg" width="400" height="400" viewBox="0, 0, 400,400"><g><path d="M156.701 25.742 C 154.703 26.204,152.831 26.435,152.540 26.255 C 152.249 26.075,151.483 26.258,150.839 26.662 C 149.776 27.328,149.792 27.364,151.000 27.040 C 152.319 26.686,152.331 26.964,152.151 52.675 C 151.988 75.993,152.084 78.841,153.079 80.361 C 154.740 82.896,153.466 85.333,150.481 85.333 C 146.897 85.333,145.259 81.979,147.667 79.571 C 148.521 78.717,148.667 74.836,148.667 52.952 C 148.667 29.272,148.427 25.690,147.000 28.000 C 146.773 28.367,146.231 28.662,145.794 28.656 C 145.317 28.650,145.399 28.388,146.000 28.000 C 147.662 26.926,146.082 27.255,143.800 28.458 C 142.627 29.077,141.217 29.625,140.667 29.677 C 140.117 29.729,139.124 29.823,138.461 29.886 C 137.797 29.949,137.423 30.272,137.628 30.604 C 137.834 30.937,137.476 31.072,136.834 30.903 C 135.732 30.615,135.677 32.439,135.846 63.632 L 136.025 96.667 141.218 96.667 C 144.753 96.667,146.825 96.354,147.706 95.688 C 149.664 94.207,151.831 94.456,153.040 96.301 C 155.241 99.659,151.722 103.282,148.384 101.095 C 147.118 100.265,145.110 100.000,140.095 100.000 C 134.756 100.000,133.400 99.802,133.083 98.975 C 132.867 98.412,132.674 83.063,132.654 64.866 C 132.627 39.702,132.433 31.967,131.843 32.557 C 131.416 32.984,130.544 33.333,129.904 33.333 C 129.265 33.333,128.275 34.000,127.704 34.815 C 127.009 35.808,126.662 35.973,126.652 35.315 C 126.642 34.664,126.173 34.896,125.261 36.000 C 124.504 36.917,124.092 37.270,124.345 36.784 C 124.724 36.060,124.563 36.054,123.446 36.751 C 122.698 37.218,122.266 37.891,122.486 38.247 C 122.712 38.613,122.429 38.718,121.831 38.489 C 121.210 38.250,120.617 38.500,120.389 39.097 C 119.679 40.946,119.951 143.891,120.667 144.333 C 122.857 145.687,120.828 150.000,118.000 150.000 C 115.172 150.000,113.143 145.687,115.333 144.333 C 115.768 144.064,116.000 126.260,116.000 93.094 C 116.000 53.373,116.182 42.063,116.833 41.337 C 117.292 40.825,116.467 41.275,115.000 42.336 C 113.533 43.397,111.623 45.031,110.755 45.966 C 109.887 46.901,109.411 47.240,109.698 46.719 C 110.023 46.128,109.575 46.254,108.505 47.053 C 107.562 47.757,106.838 48.633,106.896 49.000 C 106.953 49.367,106.603 49.584,106.117 49.483 C 105.632 49.383,105.426 49.610,105.660 49.989 C 105.894 50.368,105.541 50.900,104.876 51.172 C 103.739 51.637,103.667 53.112,103.667 75.667 L 103.667 99.667 80.667 99.832 C 60.620 99.976,57.396 100.141,55.563 101.116 C 52.853 102.558,50.000 101.075,50.000 98.225 C 50.000 95.202,54.152 93.440,56.007 95.676 C 56.729 96.546,59.842 96.660,78.589 96.509 L 100.333 96.333 100.510 76.500 C 100.706 54.457,100.667 54.283,96.649 59.355 C 95.026 61.405,94.206 61.944,93.196 61.623 C 89.225 60.363,72.122 61.251,70.175 62.818 C 69.721 63.184,68.858 63.294,68.257 63.063 C 67.656 62.832,66.766 62.975,66.278 63.379 C 65.791 63.784,65.032 63.893,64.593 63.621 C 64.051 63.286,63.969 63.411,64.340 64.010 C 64.734 64.648,64.583 64.777,63.797 64.476 C 63.199 64.246,62.529 64.350,62.309 64.707 C 62.088 65.063,61.629 65.182,61.287 64.972 C 60.946 64.761,60.667 64.896,60.667 65.273 C 60.667 65.650,60.217 65.785,59.667 65.574 C 59.117 65.363,58.667 65.540,58.667 65.968 C 58.667 66.396,58.367 66.560,58.000 66.333 C 57.633 66.107,57.333 66.257,57.333 66.667 C 57.333 67.077,57.040 67.231,56.681 67.009 C 56.054 66.621,52.189 68.956,51.177 70.333 C 50.898 70.714,50.683 70.730,50.677 70.373 C 50.671 70.027,50.194 70.327,49.617 71.039 C 49.040 71.751,48.766 71.883,49.008 71.333 C 49.251 70.783,48.797 71.083,48.000 72.000 C 47.203 72.917,46.749 73.217,46.990 72.667 C 47.232 72.117,46.625 72.567,45.642 73.667 C 44.658 74.767,44.094 75.217,44.388 74.667 C 44.847 73.807,44.765 73.795,43.802 74.576 C 43.186 75.075,42.830 75.725,43.011 76.018 C 43.192 76.311,42.461 76.941,41.385 77.417 C 40.310 77.893,39.576 78.519,39.754 78.808 C 39.933 79.097,39.593 79.333,39.000 79.333 C 38.407 79.333,38.107 79.633,38.333 80.000 C 39.059 81.174,81.466 80.878,83.039 79.688 C 86.654 76.954,91.680 81.387,88.533 84.533 C 87.565 85.501,83.575 85.598,83.000 84.667 C 82.738 84.242,73.980 84.000,58.921 84.000 C 40.173 84.000,35.356 83.827,35.742 83.167 C 36.010 82.708,35.578 82.905,34.781 83.603 C 33.197 84.993,32.819 85.842,34.198 84.915 C 34.674 84.595,34.463 84.881,33.730 85.549 C 32.997 86.218,32.325 87.254,32.238 87.850 C 32.150 88.447,31.418 89.433,30.610 90.043 C 29.675 90.748,29.335 91.463,29.674 92.012 C 29.984 92.513,29.940 92.709,29.570 92.479 C 29.220 92.263,28.551 92.698,28.084 93.446 C 27.615 94.197,27.556 94.608,27.951 94.364 C 29.235 93.570,28.704 94.754,27.167 96.111 C 26.342 96.839,26.101 97.208,26.631 96.930 C 27.169 96.649,26.889 97.418,26.000 98.667 C 25.122 99.899,24.795 100.666,25.271 100.372 C 25.832 100.025,25.759 100.414,25.067 101.471 C 24.477 102.371,24.196 103.307,24.442 103.553 C 24.688 103.799,24.519 104.000,24.066 104.000 C 23.547 104.000,23.400 104.492,23.667 105.333 C 23.926 106.150,23.786 106.667,23.307 106.667 C 22.876 106.667,22.689 107.097,22.891 107.624 C 23.093 108.150,22.928 108.691,22.524 108.825 C 22.075 108.975,21.965 109.770,22.241 110.868 L 22.692 112.667 60.219 112.667 C 92.182 112.667,97.937 112.522,99.039 111.688 C 102.089 109.381,105.333 110.821,105.333 114.481 C 105.333 117.719,102.952 118.697,99.804 116.751 C 97.042 115.044,23.805 114.462,22.133 116.133 C 21.626 116.641,21.333 119.200,21.333 123.133 L 21.333 129.333 46.000 129.333 L 70.667 129.333 70.667 144.667 C 70.667 153.100,70.919 160.000,71.226 160.000 C 72.365 160.000,73.166 162.952,72.455 164.533 C 71.878 165.818,71.340 166.033,69.123 165.866 C 65.918 165.624,64.914 163.844,66.386 161.007 C 67.112 159.608,67.333 156.081,67.333 145.924 L 67.333 132.667 45.083 132.667 L 22.833 132.667 22.417 134.750 C 21.836 137.655,21.891 138.146,22.738 137.623 C 23.241 137.312,23.324 137.645,23.000 138.667 C 22.647 139.778,22.740 140.033,23.359 139.651 C 23.987 139.263,24.081 139.587,23.737 140.956 C 23.404 142.283,23.496 142.645,24.076 142.286 C 24.590 141.969,24.697 142.078,24.379 142.593 C 22.921 144.952,25.107 145.333,40.082 145.333 L 54.667 145.333 54.667 152.027 C 54.667 157.851,54.855 158.975,56.114 160.678 C 58.800 164.311,53.997 168.397,50.800 165.200 C 49.831 164.231,49.740 160.906,50.667 160.333 C 51.033 160.107,51.333 157.389,51.333 154.294 L 51.333 148.667 39.444 148.667 C 26.778 148.667,26.012 148.814,27.832 150.894 C 28.474 151.628,28.625 152.010,28.167 151.742 C 26.855 150.975,27.191 151.816,28.792 153.307 C 29.595 154.055,29.988 154.667,29.665 154.667 C 29.342 154.667,29.661 155.139,30.373 155.716 C 31.084 156.293,31.292 156.576,30.833 156.343 C 29.431 155.633,29.902 156.637,31.833 158.474 C 32.842 159.433,33.217 159.997,32.667 159.726 C 31.794 159.297,31.795 159.346,32.676 160.117 C 33.231 160.603,34.219 161.835,34.872 162.855 C 35.525 163.875,36.353 164.527,36.712 164.305 C 37.072 164.083,37.284 164.298,37.183 164.784 C 37.082 165.269,37.397 165.584,37.883 165.483 C 38.368 165.383,38.603 165.564,38.403 165.887 C 37.917 166.674,40.962 169.483,41.605 168.839 C 41.883 168.561,42.011 168.633,41.889 169.000 C 41.767 169.367,41.840 169.667,42.052 169.667 C 42.264 169.667,43.429 170.717,44.640 172.000 C 45.852 173.283,46.627 173.883,46.364 173.333 C 46.100 172.783,46.536 173.083,47.333 174.000 C 48.130 174.917,48.580 175.217,48.333 174.667 C 48.086 174.117,48.536 174.417,49.333 175.333 C 50.130 176.250,50.557 176.550,50.282 176.000 C 50.007 175.450,50.567 175.825,51.526 176.833 C 53.345 178.746,54.424 179.267,53.599 177.833 C 53.334 177.375,53.965 177.750,55.000 178.667 C 56.035 179.583,56.632 179.883,56.326 179.333 C 55.956 178.667,56.239 178.744,57.177 179.565 C 57.950 180.243,58.881 180.613,59.245 180.388 C 59.610 180.163,60.095 180.282,60.324 180.652 C 60.553 181.023,61.360 181.658,62.118 182.063 C 63.170 182.626,63.377 182.611,62.998 181.997 C 62.726 181.556,63.276 181.702,64.222 182.322 C 65.168 182.941,66.301 183.226,66.740 182.954 C 67.217 182.660,67.365 182.743,67.107 183.160 C 66.854 183.570,67.361 183.888,68.338 183.929 C 69.252 183.968,70.748 184.032,71.662 184.071 C 72.643 184.113,73.147 184.429,72.891 184.843 C 72.597 185.319,73.612 185.405,76.062 185.111 C 78.045 184.873,80.642 184.676,81.833 184.672 L 84.000 184.667 84.000 159.482 C 84.000 137.509,83.864 134.103,82.937 132.779 C 80.606 129.451,84.283 125.388,87.636 127.586 C 89.580 128.859,89.959 131.984,88.333 133.333 C 87.477 134.044,87.333 137.774,87.333 159.337 L 87.333 184.511 88.833 184.913 C 91.497 185.627,94.485 185.421,93.333 184.603 C 92.560 184.053,92.739 183.980,94.126 184.282 C 95.126 184.499,96.117 184.350,96.368 183.944 C 96.615 183.544,97.412 183.373,98.140 183.563 C 101.022 184.317,101.008 184.439,100.818 158.728 C 100.664 138.015,100.480 134.008,99.651 133.320 C 96.671 130.847,100.280 125.521,103.697 127.350 C 105.381 128.251,106.205 133.333,104.667 133.333 C 104.234 133.333,104.000 142.361,104.000 159.082 C 104.000 183.508,103.940 184.783,102.833 183.915 C 101.776 183.086,101.752 183.109,102.582 184.167 C 103.085 184.808,103.928 185.333,104.454 185.333 C 104.981 185.333,105.282 185.558,105.123 185.833 C 104.963 186.108,105.754 187.233,106.878 188.333 C 108.003 189.433,108.491 189.718,107.962 188.967 C 107.433 188.215,108.165 188.815,109.589 190.300 C 111.013 191.785,111.931 192.550,111.628 192.000 C 111.155 191.140,111.235 191.128,112.198 191.909 C 112.814 192.409,113.174 193.052,112.996 193.339 C 112.819 193.626,113.138 194.038,113.705 194.256 C 114.385 194.517,114.591 194.370,114.310 193.826 C 114.076 193.372,114.435 193.674,115.109 194.497 C 116.304 195.958,116.333 195.584,116.333 178.830 L 116.333 161.667 147.897 161.493 C 174.583 161.347,179.679 161.167,180.878 160.327 C 184.134 158.047,188.155 160.385,186.943 163.854 C 186.255 165.823,182.532 166.799,181.115 165.382 C 180.627 164.894,170.818 164.667,150.222 164.667 L 120.045 164.667 119.856 181.398 C 119.748 190.884,119.928 198.290,120.270 198.501 C 120.601 198.705,120.654 198.451,120.387 197.936 C 120.120 197.421,120.357 197.559,120.913 198.243 C 122.179 199.797,125.569 201.659,124.973 200.472 C 124.750 200.029,124.995 200.187,125.516 200.823 C 126.038 201.459,126.661 201.784,126.899 201.545 C 127.138 201.306,127.333 201.479,127.333 201.928 C 127.333 202.378,127.633 202.560,128.000 202.333 C 128.367 202.107,128.667 202.289,128.667 202.738 C 128.667 203.188,128.852 203.370,129.079 203.143 C 129.306 202.916,129.928 203.166,130.460 203.698 C 130.993 204.231,131.782 204.662,132.214 204.656 C 132.675 204.650,132.586 204.379,132.000 204.000 C 131.357 203.584,131.292 203.350,131.819 203.344 C 132.431 203.336,132.684 200.097,132.819 190.500 L 133.000 177.667 159.000 177.667 L 185.000 177.667 185.000 187.000 L 185.000 196.333 169.167 196.512 C 160.458 196.610,153.333 196.953,153.333 197.273 C 153.333 198.476,149.870 198.735,148.222 197.655 C 146.063 196.241,146.323 193.421,148.735 192.073 C 150.320 191.187,150.649 191.230,152.525 192.565 C 154.499 193.972,155.099 194.021,168.122 193.847 L 181.667 193.667 181.667 187.333 L 181.667 181.000 158.833 180.825 L 136.000 180.649 136.000 193.301 C 136.000 205.511,136.049 205.980,137.414 206.710 C 138.407 207.242,138.693 207.248,138.374 206.733 C 138.125 206.330,138.221 206.000,138.588 206.000 C 138.955 206.000,139.439 206.298,139.664 206.663 C 139.890 207.028,140.694 207.658,141.451 208.063 C 142.279 208.506,142.661 208.531,142.411 208.126 C 142.182 207.755,143.225 208.046,144.728 208.773 C 146.232 209.499,147.633 209.922,147.842 209.713 C 148.051 209.504,147.822 209.333,147.333 209.333 C 146.844 209.333,146.612 209.166,146.817 208.961 C 147.022 208.756,148.279 209.044,149.611 209.600 C 150.943 210.157,152.525 210.424,153.126 210.193 C 153.901 209.895,154.065 210.022,153.691 210.628 C 153.274 211.302,153.899 211.381,156.667 211.000 C 158.597 210.735,160.011 210.776,159.816 211.092 C 159.620 211.408,163.903 211.667,169.333 211.667 C 174.763 211.667,179.046 211.408,178.851 211.092 C 178.656 210.776,180.070 210.735,182.000 211.000 C 184.679 211.369,185.386 211.291,185.002 210.670 C 184.639 210.082,184.901 209.985,185.949 210.317 C 186.745 210.570,187.758 210.489,188.199 210.137 C 188.639 209.785,189.750 209.290,190.667 209.038 C 191.939 208.688,192.097 208.745,191.333 209.279 C 189.727 210.404,191.177 210.107,194.035 208.726 C 195.485 208.025,196.505 207.722,196.301 208.052 C 196.098 208.381,196.321 208.502,196.799 208.319 C 197.497 208.051,197.632 202.199,197.486 178.326 L 197.306 148.667 167.359 148.667 C 148.114 148.667,137.265 148.905,137.000 149.333 C 135.597 151.603,130.667 149.527,130.667 146.667 C 130.667 143.508,134.606 142.035,136.905 144.333 C 137.765 145.194,142.282 145.333,169.299 145.333 L 200.693 145.333 200.513 176.270 C 200.394 196.750,200.559 207.081,201.000 206.835 C 201.367 206.631,202.243 205.984,202.948 205.399 C 203.858 204.642,204.070 204.605,203.678 205.270 C 203.046 206.345,204.159 205.830,206.281 204.065 C 206.986 203.479,207.345 203.372,207.080 203.826 C 206.754 204.384,206.933 204.523,207.632 204.254 C 208.201 204.036,208.667 203.572,208.667 203.223 C 208.667 202.874,208.967 202.773,209.333 203.000 C 209.700 203.227,210.000 203.094,210.000 202.706 C 210.000 202.318,210.225 202.036,210.500 202.079 C 213.488 202.551,213.333 204.540,213.333 165.667 L 213.333 129.333 228.167 129.319 C 241.862 129.305,243.128 129.204,244.667 128.000 C 247.967 125.419,252.165 128.458,250.295 132.074 C 249.274 134.048,245.933 134.843,245.000 133.333 C 244.747 132.923,239.215 132.667,230.627 132.667 L 216.667 132.667 216.667 168.929 C 216.667 201.086,216.784 205.236,217.701 205.588 C 218.400 205.856,218.579 205.717,218.253 205.159 C 217.988 204.705,218.347 204.813,219.052 205.399 C 220.999 207.017,222.292 207.679,221.730 206.769 C 221.468 206.345,222.378 206.661,223.753 207.472 C 225.127 208.283,226.044 208.611,225.790 208.199 C 225.536 207.788,226.515 208.025,227.965 208.726 C 230.823 210.107,232.273 210.404,230.667 209.279 C 229.282 208.310,232.356 209.174,234.903 210.471 C 236.258 211.160,237.770 211.307,240.155 210.979 C 242.541 210.651,243.372 210.731,243.046 211.259 C 242.743 211.749,243.336 211.982,244.794 211.947 C 246.007 211.918,246.700 211.769,246.333 211.614 C 245.899 211.431,245.729 200.429,245.846 180.000 L 246.026 148.667 239.346 148.667 L 232.667 148.667 232.667 170.023 C 232.667 188.165,232.822 191.617,233.697 192.953 C 236.049 196.543,232.574 200.070,228.995 197.725 C 227.103 196.485,226.888 194.932,228.325 192.882 C 229.146 191.709,229.346 187.547,229.491 168.567 L 229.667 145.667 239.167 145.482 L 248.667 145.297 248.667 178.315 L 248.667 211.333 252.833 211.341 C 255.125 211.345,258.104 211.531,259.453 211.754 L 261.907 212.159 261.974 197.080 C 262.012 188.786,261.783 182.000,261.467 182.000 C 261.151 182.000,260.498 181.264,260.016 180.364 C 257.898 176.406,263.945 173.262,266.418 177.035 C 267.478 178.653,267.462 178.832,266.100 180.675 C 264.738 182.516,264.667 183.326,264.667 196.973 L 264.667 211.333 267.167 211.286 C 269.252 211.247,269.446 211.135,268.333 210.607 C 267.256 210.096,267.397 210.034,269.069 210.284 C 270.208 210.455,271.408 210.344,271.736 210.039 C 272.065 209.733,273.083 209.280,274.000 209.031 C 275.274 208.686,275.431 208.744,274.667 209.279 C 273.061 210.404,274.510 210.107,277.368 208.726 C 278.819 208.025,279.798 207.788,279.543 208.199 C 279.289 208.611,280.206 208.283,281.581 207.472 C 282.955 206.661,283.866 206.345,283.604 206.769 C 283.041 207.679,284.334 207.017,286.281 205.399 C 287.191 204.642,287.403 204.605,287.012 205.270 C 286.379 206.345,287.493 205.830,289.615 204.065 C 290.319 203.479,290.679 203.372,290.413 203.826 C 290.093 204.374,290.262 204.524,290.914 204.274 C 291.455 204.067,292.073 203.439,292.287 202.879 C 292.502 202.320,293.050 202.005,293.506 202.179 C 294.154 202.428,294.333 198.067,294.333 182.082 L 294.333 161.667 317.204 161.491 C 336.827 161.341,340.304 161.165,341.699 160.251 C 344.975 158.105,349.211 161.412,347.236 164.574 C 346.302 166.070,341.333 166.709,341.333 165.333 C 341.333 164.902,333.562 164.667,319.354 164.667 L 297.375 164.667 297.187 182.960 L 297.000 201.254 298.608 199.794 C 299.492 198.991,299.980 198.739,299.692 199.236 C 299.344 199.837,299.753 199.756,300.918 198.992 C 301.880 198.362,302.667 197.581,302.667 197.257 C 302.667 196.932,303.131 196.667,303.698 196.667 C 304.266 196.667,305.515 195.842,306.474 194.833 C 307.433 193.825,307.996 193.450,307.725 194.000 C 307.454 194.550,307.888 194.250,308.691 193.333 C 309.494 192.417,310.291 191.767,310.464 191.889 C 310.637 192.011,310.978 191.888,311.222 191.615 C 311.467 191.343,311.292 191.335,310.833 191.599 C 310.200 191.964,310.000 190.936,310.000 187.309 C 310.000 184.034,309.648 181.943,308.877 180.638 C 307.185 177.773,308.468 175.333,311.667 175.333 C 314.938 175.333,316.130 177.751,314.422 180.922 C 312.984 183.591,313.003 190.438,314.444 189.241 C 314.925 188.842,315.150 188.242,314.943 187.908 C 314.737 187.574,314.965 187.383,315.450 187.483 C 315.936 187.584,316.258 187.292,316.167 186.833 C 316.075 186.375,316.232 186.075,316.515 186.167 C 317.173 186.380,323.657 179.927,323.697 179.018 C 323.714 178.641,324.125 178.421,324.612 178.527 C 325.177 178.651,325.350 178.337,325.089 177.659 C 324.853 177.043,324.959 176.769,325.342 177.005 C 325.705 177.230,326.295 176.646,326.651 175.707 C 327.008 174.768,327.475 174.000,327.690 174.000 C 327.904 174.000,327.853 174.375,327.578 174.833 C 327.193 175.474,327.300 175.491,328.039 174.908 C 328.567 174.491,330.200 174.000,331.667 173.817 C 333.133 173.634,335.083 173.275,336.000 173.018 C 337.287 172.657,337.439 172.714,336.667 173.265 C 335.081 174.398,336.490 174.116,339.368 172.726 C 340.819 172.025,341.798 171.788,341.543 172.199 C 341.289 172.611,342.206 172.283,343.581 171.472 C 344.955 170.661,345.897 170.295,345.672 170.658 C 345.438 171.037,345.704 171.149,346.299 170.921 C 346.868 170.703,347.333 170.238,347.333 169.889 C 347.333 169.540,347.633 169.440,348.000 169.667 C 348.367 169.893,348.667 169.770,348.667 169.394 C 348.667 169.017,349.078 168.866,349.581 169.059 C 350.083 169.252,350.681 168.924,350.909 168.329 C 351.139 167.730,351.664 167.459,352.087 167.720 C 352.514 167.984,353.422 167.489,354.149 166.596 C 354.864 165.718,355.247 165.450,355.000 166.000 C 354.753 166.550,355.170 166.250,355.927 165.333 C 356.684 164.417,357.310 163.938,357.319 164.270 C 357.327 164.602,358.119 164.002,359.078 162.937 C 360.038 161.872,360.592 161.450,360.309 162.000 C 360.025 162.550,360.810 162.100,362.053 161.000 C 364.919 158.463,365.337 157.879,364.853 157.095 C 364.637 156.746,364.773 156.654,365.155 156.890 C 365.537 157.126,366.258 156.814,366.758 156.198 C 367.539 155.235,367.526 155.153,366.667 155.612 C 366.117 155.906,366.567 155.342,367.667 154.358 C 368.767 153.375,369.217 152.768,368.667 153.010 C 368.117 153.251,368.417 152.797,369.333 152.000 C 370.250 151.203,370.550 150.753,370.000 151.000 C 369.450 151.247,369.750 150.835,370.667 150.084 L 372.333 148.718 326.833 148.684 L 281.333 148.649 281.333 170.372 C 281.333 188.793,281.485 192.247,282.333 193.095 C 283.691 194.453,283.590 195.744,282.000 197.333 C 278.750 200.583,273.860 196.720,276.681 193.133 C 277.937 191.536,278.000 190.361,278.000 168.395 L 278.000 145.333 325.585 145.333 C 369.477 145.333,373.241 145.246,374.085 144.205 C 374.874 143.233,374.862 143.157,374.000 143.653 C 373.344 144.031,373.424 143.745,374.232 142.823 C 374.928 142.029,375.246 141.064,374.962 140.606 C 374.627 140.063,374.740 139.966,375.302 140.314 C 375.920 140.696,376.024 140.459,375.693 139.417 C 375.432 138.595,375.533 138.000,375.934 138.000 C 376.314 138.000,376.433 137.501,376.199 136.891 C 375.913 136.145,376.029 135.939,376.553 136.263 C 377.402 136.787,377.597 135.463,376.929 133.721 C 376.564 132.771,370.980 132.667,320.595 132.667 L 264.667 132.667 264.669 145.500 C 264.671 157.109,264.797 158.540,265.990 160.496 C 267.905 163.636,266.766 166.000,263.339 166.000 C 259.812 166.000,258.558 163.627,260.583 160.784 C 261.925 158.899,262.000 158.016,262.000 144.067 L 262.000 129.341 319.833 129.170 L 377.667 129.000 377.860 123.506 C 377.967 120.460,377.734 117.416,377.337 116.673 C 376.625 115.342,376.067 115.333,294.977 115.333 L 213.333 115.333 213.333 84.415 C 213.333 57.293,213.206 53.391,212.299 52.638 C 209.429 50.256,213.363 45.107,216.535 47.093 C 217.853 47.918,218.426 51.841,217.382 52.885 C 216.895 53.372,216.667 62.869,216.667 82.691 L 216.667 111.782 254.776 112.224 C 335.236 113.158,377.333 112.852,377.333 111.333 C 377.333 110.600,377.043 110.000,376.688 110.000 C 376.332 110.000,376.215 109.550,376.426 109.000 C 376.637 108.450,376.487 108.000,376.092 108.000 C 375.698 108.000,375.552 107.539,375.768 106.975 C 375.985 106.412,375.646 105.380,375.016 104.684 C 374.385 103.987,374.054 103.119,374.279 102.754 C 374.505 102.390,374.017 101.621,373.196 101.046 C 371.518 99.870,346.667 99.448,346.667 100.595 C 346.667 102.685,341.812 101.913,340.785 99.661 C 339.323 96.451,344.435 92.978,346.667 95.667 C 347.344 96.483,349.560 96.667,358.748 96.667 C 370.661 96.667,370.744 96.641,369.025 93.467 C 367.991 91.558,358.114 81.629,358.945 83.333 C 359.213 83.883,358.947 83.733,358.354 83.000 C 357.761 82.267,357.002 81.667,356.667 81.667 C 356.332 81.667,355.572 81.067,354.979 80.333 C 354.386 79.600,354.125 79.450,354.398 80.000 C 354.731 80.669,354.416 80.579,353.448 79.730 C 352.652 79.032,352.000 78.723,352.000 79.045 C 352.000 79.367,351.533 78.963,350.962 78.148 C 350.391 77.333,349.566 76.671,349.129 76.677 C 348.649 76.683,348.730 76.943,349.333 77.333 C 350.818 78.293,349.746 78.135,347.753 77.101 C 346.800 76.607,346.241 75.969,346.510 75.685 C 346.780 75.400,346.287 75.387,345.417 75.655 C 344.221 76.023,343.962 75.934,344.359 75.291 C 344.733 74.686,344.565 74.563,343.776 74.866 C 343.165 75.100,342.667 74.969,342.667 74.573 C 342.667 74.134,341.998 74.023,340.944 74.288 C 339.997 74.526,339.375 74.472,339.562 74.170 C 339.749 73.867,339.399 73.556,338.784 73.479 C 338.170 73.402,336.768 73.237,335.670 73.111 C 334.371 72.963,333.672 72.507,333.670 71.806 C 333.668 71.214,333.067 70.242,332.333 69.648 C 331.600 69.054,331.421 68.786,331.936 69.054 C 332.552 69.373,332.710 69.276,332.397 68.770 C 331.787 67.782,314.667 67.682,314.667 68.667 C 314.667 70.236,309.329 69.386,308.558 67.694 C 307.040 64.363,311.682 60.873,313.967 63.627 C 314.556 64.337,316.765 64.641,322.419 64.794 C 329.799 64.993,330.022 64.958,328.630 63.833 C 327.835 63.192,327.444 62.659,327.759 62.649 C 328.075 62.639,327.422 61.814,326.307 60.815 C 325.193 59.817,324.743 59.269,325.307 59.598 C 325.872 59.927,325.306 59.241,324.050 58.075 C 322.794 56.908,321.438 55.295,321.037 54.490 C 320.635 53.685,319.640 52.694,318.824 52.287 C 318.009 51.880,317.539 51.349,317.782 51.107 C 318.024 50.865,317.756 50.667,317.186 50.667 C 316.616 50.667,315.441 49.769,314.575 48.673 C 313.709 47.576,312.692 46.676,312.315 46.673 C 311.938 46.669,310.848 45.842,309.892 44.833 C 307.439 42.245,306.205 41.350,305.738 41.818 C 305.515 42.040,305.333 41.872,305.333 41.444 C 305.333 41.017,304.958 40.742,304.500 40.833 C 304.042 40.925,303.732 40.653,303.812 40.230 C 303.892 39.806,303.502 39.285,302.944 39.071 C 302.283 38.817,302.076 38.969,302.348 39.508 C 302.578 39.962,302.293 39.751,301.716 39.039 C 301.139 38.327,300.667 38.005,300.667 38.322 C 300.667 38.639,299.932 38.209,299.034 37.365 L 297.401 35.831 297.351 58.249 L 297.302 80.667 318.903 80.667 C 337.290 80.667,340.627 80.518,341.333 79.667 C 343.766 76.735,348.818 80.142,347.224 83.640 C 346.436 85.369,341.333 86.266,341.333 84.675 C 341.333 84.258,332.734 83.953,317.833 83.842 L 294.333 83.667 294.159 58.833 C 293.988 34.554,293.954 34.000,292.659 34.000 C 291.930 34.000,291.333 33.668,291.333 33.262 C 291.333 32.856,290.868 32.703,290.299 32.921 C 289.623 33.180,289.430 33.050,289.741 32.546 C 290.060 32.030,289.850 31.915,289.109 32.199 C 288.499 32.433,288.000 32.317,288.000 31.940 C 288.000 31.563,287.700 31.440,287.333 31.667 C 286.967 31.893,286.667 31.741,286.667 31.328 C 286.667 30.899,286.135 30.746,285.427 30.970 C 284.712 31.197,283.832 30.934,283.346 30.348 C 281.498 28.122,281.333 30.211,281.333 55.867 C 281.333 75.615,281.129 82.605,280.533 83.200 C 279.959 83.774,275.549 84.000,264.906 84.000 C 255.740 84.000,249.921 84.255,249.667 84.667 C 249.050 85.665,245.375 85.470,244.286 84.381 C 241.164 81.259,246.117 76.931,249.706 79.645 C 250.742 80.429,253.687 80.628,264.500 80.645 L 278.000 80.667 278.000 54.405 C 278.000 27.651,277.780 25.331,275.460 27.651 C 275.268 27.843,275.511 28.000,276.000 28.000 C 276.489 28.000,276.738 28.151,276.553 28.336 C 276.368 28.521,275.343 28.252,274.275 27.738 C 271.397 26.352,268.715 25.692,270.000 26.686 C 270.827 27.325,270.769 27.374,269.667 26.969 C 268.933 26.699,267.508 26.336,266.500 26.163 L 264.667 25.849 264.669 43.758 C 264.671 60.424,264.763 61.817,265.990 63.829 C 267.871 66.913,266.761 69.333,263.466 69.333 C 259.734 69.333,258.310 66.683,260.677 64.142 C 262.755 61.912,262.433 25.115,260.333 24.848 L 259.000 24.678 260.333 25.292 C 261.259 25.719,259.681 25.921,255.167 25.953 L 248.667 26.000 248.667 44.585 C 248.667 60.292,248.822 63.299,249.667 64.000 C 252.199 66.102,250.459 69.504,247.000 69.213 C 243.351 68.906,242.597 67.340,244.500 64.020 C 246.582 60.388,246.883 26.008,244.833 25.990 C 243.825 25.981,243.802 25.882,244.667 25.260 C 245.473 24.680,245.408 24.629,244.333 24.998 C 243.600 25.249,241.800 25.597,240.333 25.771 C 238.867 25.946,237.382 26.368,237.033 26.711 C 236.685 27.053,235.935 27.329,235.367 27.323 C 234.454 27.314,234.450 27.229,235.333 26.594 C 236.165 25.995,236.128 25.941,235.112 26.270 C 234.440 26.488,233.615 26.667,233.279 26.667 C 232.915 26.667,232.667 40.856,232.667 61.667 L 232.667 96.667 278.585 96.667 C 318.588 96.667,324.610 96.538,325.333 95.667 C 327.861 92.621,333.018 97.078,330.823 100.410 C 329.887 101.832,327.330 102.151,325.657 101.055 C 324.227 100.118,318.800 100.000,277.095 100.000 C 235.438 100.000,230.098 99.884,229.749 98.974 C 229.532 98.409,229.340 82.031,229.322 62.578 L 229.288 27.210 227.625 28.299 C 226.711 28.898,225.624 29.180,225.211 28.925 C 224.730 28.627,224.647 28.763,224.980 29.302 C 225.363 29.920,225.126 30.024,224.083 29.693 C 223.261 29.432,222.667 29.533,222.667 29.934 C 222.667 30.314,222.167 30.433,221.557 30.199 C 220.769 29.896,220.600 30.019,220.974 30.625 C 221.364 31.256,221.133 31.360,220.083 31.026 C 219.211 30.750,218.667 30.865,218.667 31.328 C 218.667 31.741,218.367 31.893,218.000 31.667 C 217.633 31.440,217.333 31.590,217.333 32.000 C 217.333 32.410,217.014 32.548,216.625 32.307 C 216.235 32.066,215.410 32.303,214.791 32.833 C 212.875 34.476,211.717 35.001,212.358 33.936 C 212.818 33.173,212.736 33.151,211.912 33.817 C 211.114 34.463,210.716 34.463,210.020 33.817 C 209.312 33.161,209.247 33.190,209.689 33.964 C 209.998 34.504,209.309 34.265,208.125 33.422 C 206.961 32.594,205.707 32.102,205.338 32.331 C 204.969 32.559,204.667 32.410,204.667 32.000 C 204.667 31.590,204.392 31.424,204.057 31.631 C 203.722 31.839,203.341 31.689,203.211 31.299 C 203.081 30.909,202.457 30.789,201.825 31.032 C 200.752 31.443,200.664 34.864,200.504 81.903 L 200.333 132.333 166.667 132.333 L 133.000 132.333 132.812 124.897 C 132.672 119.349,132.376 117.255,131.645 116.649 C 129.348 114.742,131.091 110.667,134.204 110.667 C 137.021 110.667,138.391 113.543,136.922 116.375 C 136.247 117.676,136.009 119.892,136.142 123.624 L 136.333 129.000 166.079 129.173 C 190.616 129.317,195.958 129.187,196.584 128.433 C 197.139 127.765,197.296 114.406,197.171 78.630 L 197.000 29.741 194.712 28.405 C 193.454 27.671,192.647 27.429,192.918 27.868 C 193.549 28.889,193.298 28.872,190.936 27.735 C 188.255 26.444,185.326 25.674,186.667 26.613 C 187.493 27.191,187.406 27.315,186.167 27.323 L 184.667 27.333 184.667 71.333 L 184.667 115.333 169.640 115.333 C 155.149 115.333,154.541 115.386,152.605 116.817 C 149.050 119.446,144.477 114.761,147.574 111.664 C 148.704 110.535,151.711 110.326,152.333 111.333 C 152.587 111.744,158.229 112.000,167.039 112.000 L 181.333 112.000 181.333 68.667 L 181.333 25.333 179.833 25.245 C 179.008 25.196,176.020 25.121,173.192 25.078 L 168.051 25.000 168.015 59.670 C 167.983 90.261,168.103 94.517,169.034 95.847 C 171.461 99.311,167.882 103.386,164.410 101.112 C 162.307 99.734,162.143 97.480,164.000 95.487 C 165.661 93.705,166.147 26.077,164.500 25.921 C 164.042 25.878,164.567 25.625,165.667 25.360 C 167.244 24.980,166.891 24.881,164.000 24.890 C 161.983 24.897,158.699 25.280,156.701 25.742 M1.056 161.910 C 0.710 162.469,1.201 165.551,2.663 172.000 C 2.954 173.283,3.701 176.733,4.323 179.667 C 4.945 182.600,5.696 186.050,5.993 187.333 C 6.289 188.617,6.893 191.317,7.333 193.333 C 7.774 195.350,8.374 198.050,8.667 199.333 C 8.959 200.617,9.559 203.317,10.000 205.333 C 10.441 207.350,11.035 210.050,11.321 211.333 C 11.607 212.617,12.484 216.667,13.271 220.333 C 14.057 224.000,15.014 228.350,15.397 230.000 C 16.071 232.906,16.706 235.736,18.089 242.000 C 18.453 243.650,19.011 246.050,19.330 247.333 C 19.648 248.617,20.400 252.067,21.002 255.000 C 21.604 257.933,22.368 261.008,22.700 261.833 L 23.305 263.333 193.152 263.323 C 286.569 263.318,363.300 263.093,363.667 262.823 C 364.650 262.101,366.000 259.503,366.000 258.333 C 366.000 257.773,366.280 256.794,366.622 256.158 C 366.965 255.521,368.625 250.800,370.313 245.667 C 372.001 240.533,373.671 235.812,374.024 235.176 C 374.378 234.539,374.667 233.464,374.667 232.787 C 374.667 232.110,374.831 231.391,375.032 231.190 C 375.394 230.828,388.462 192.898,389.109 190.333 C 389.293 189.600,389.760 188.250,390.145 187.333 C 391.392 184.365,391.811 183.153,395.212 172.686 C 397.055 167.013,398.419 162.138,398.242 161.853 C 397.808 161.151,379.898 161.207,378.783 161.914 C 378.296 162.223,377.246 163.531,376.449 164.822 C 368.760 177.277,350.682 187.948,337.203 187.989 L 333.407 188.000 327.752 194.500 C 324.642 198.075,319.808 202.800,317.010 205.000 C 314.212 207.200,311.198 209.602,310.314 210.338 C 309.429 211.074,307.571 212.271,306.186 212.998 C 304.800 213.726,303.517 214.487,303.333 214.689 C 298.231 220.336,270.281 227.965,254.609 227.988 C 244.818 228.003,230.344 225.785,224.333 223.348 C 223.600 223.051,221.500 222.282,219.667 221.640 C 217.833 220.997,215.056 219.881,213.495 219.160 L 210.657 217.849 207.124 219.521 C 197.062 224.285,184.431 227.148,170.667 227.784 C 162.790 228.148,152.858 227.399,147.333 226.024 C 128.139 221.248,113.384 213.609,101.256 202.168 C 96.192 197.390,97.397 197.640,88.000 199.422 C 60.636 204.610,33.772 190.781,18.543 163.667 L 17.420 161.667 9.428 161.480 C 5.027 161.377,1.266 161.570,1.056 161.910 M31.142 303.080 C 30.881 303.341,30.667 315.956,30.667 331.111 L 30.667 358.667 33.943 358.667 L 37.219 358.667 37.448 344.500 C 37.635 332.938,37.878 329.965,38.770 328.332 C 42.155 322.135,50.126 321.143,53.736 326.468 C 54.867 328.137,55.023 329.931,55.221 343.500 L 55.442 358.667 58.388 358.667 L 61.333 358.667 61.333 342.748 C 61.333 330.152,61.126 326.333,60.340 324.451 C 56.974 316.395,46.937 315.000,39.517 321.556 C 37.507 323.333,37.384 322.829,37.174 312.000 L 37.000 303.000 34.309 302.802 C 32.829 302.693,31.404 302.818,31.142 303.080 M284.667 307.000 L 284.667 310.667 288.000 310.667 L 291.333 310.667 291.333 307.000 L 291.333 303.333 288.000 303.333 L 284.667 303.333 284.667 307.000 M99.195 312.500 L 99.000 317.667 94.361 317.867 C 89.124 318.093,87.844 318.794,88.133 321.276 C 88.327 322.945,88.498 323.006,93.494 323.195 C 99.762 323.431,99.249 322.051,99.487 339.333 C 99.734 357.186,100.851 358.667,114.081 358.667 L 120.667 358.667 120.667 356.333 L 120.667 354.000 115.698 354.000 C 106.145 354.000,105.907 353.569,106.148 336.667 L 106.333 323.667 113.500 323.477 L 120.667 323.288 120.667 320.644 L 120.667 318.000 113.333 318.000 L 106.000 318.000 106.000 312.667 L 106.000 307.333 102.695 307.333 L 99.389 307.333 99.195 312.500 M159.333 312.667 L 159.333 318.000 154.000 318.000 L 148.667 318.000 148.667 320.667 L 148.667 323.333 152.945 323.333 C 159.780 323.333,159.333 322.446,159.333 336.039 C 159.333 356.814,160.742 358.921,174.367 358.526 L 181.000 358.333 181.000 356.333 L 181.000 354.333 175.233 354.000 C 166.112 353.473,165.333 352.017,165.333 335.504 C 165.333 322.750,164.843 323.444,174.039 323.191 C 180.973 323.001,181.001 322.993,181.200 321.276 C 181.511 318.605,180.158 318.065,172.628 317.858 L 165.667 317.667 165.472 312.500 L 165.277 307.333 162.305 307.333 L 159.333 307.333 159.333 312.667 M223.092 318.272 C 221.675 318.798,219.653 320.055,218.598 321.065 L 216.681 322.903 216.250 320.751 C 215.840 318.700,215.691 318.608,213.077 318.799 L 210.333 319.000 210.148 345.333 C 209.932 375.986,209.788 374.667,213.346 374.667 L 216.000 374.667 216.000 365.111 C 216.000 354.133,216.016 354.092,219.246 356.644 C 234.257 368.504,249.530 346.729,240.587 326.217 C 237.583 319.326,229.787 315.786,223.092 318.272 M342.333 317.785 C 341.233 317.960,340.048 318.380,339.700 318.718 C 339.352 319.056,338.680 319.333,338.208 319.333 C 331.397 319.333,324.602 338.629,328.500 346.899 C 328.958 347.871,329.708 349.466,330.167 350.443 C 333.477 357.501,344.015 361.596,353.000 359.316 C 361.448 357.172,361.973 356.851,361.990 353.812 C 362.004 351.282,360.816 351.025,356.950 352.721 C 345.633 357.688,334.671 352.495,334.668 342.167 L 334.667 338.667 349.000 338.667 L 363.333 338.667 363.333 334.959 C 363.333 323.781,353.778 315.967,342.333 317.785 M274.935 319.597 C 273.728 322.741,274.781 323.658,279.833 323.863 L 284.667 324.058 284.667 339.029 L 284.667 354.000 278.000 354.000 L 271.333 354.000 271.333 356.333 L 271.333 358.667 287.667 358.667 L 304.000 358.667 304.000 356.333 L 304.000 354.000 297.678 354.000 L 291.355 354.000 291.178 336.500 L 291.000 319.000 283.154 318.812 C 276.769 318.659,275.238 318.805,274.935 319.597 M231.116 323.962 C 236.806 327.431,238.450 340.632,234.322 349.702 C 231.462 355.986,222.157 356.226,218.861 350.100 C 211.445 336.316,220.323 317.381,231.116 323.962 M351.123 323.662 C 354.215 325.204,356.667 328.741,356.667 331.658 L 356.667 333.333 346.039 333.333 C 334.525 333.333,334.218 333.233,335.613 329.904 C 338.087 323.999,345.676 320.944,351.123 323.662 " stroke="none" fill-rule="evenodd"></path></g></svg>