<svg id="svg" version="1.1" width="400" height="400" xmlns="http://www.w3.org/2000/svg" xmlns:xlink="http://www.w3.org/1999/xlink" style="display: block;"><g id="svgg"><path id="path0" d="M41.000 138.000 L 41.000 220.000 60.000 220.000 L 79.000 220.000 79.000 187.500 L 79.000 155.000 111.500 155.000 L 144.000 155.000 144.000 187.500 L 144.000 220.000 162.000 220.000 L 180.000 220.000 180.000 138.000 L 180.000 56.000 162.000 56.000 L 144.000 56.000 144.000 87.071 C 144.000 112.667,143.748 118.395,142.571 119.571 C 141.395 120.748,135.667 121.000,110.071 121.000 L 79.000 121.000 79.000 88.500 L 79.000 56.000 60.000 56.000 L 41.000 56.000 41.000 138.000 M205.000 139.000 L 205.000 222.000 252.500 222.000 C 283.500 222.000,300.000 221.653,300.000 221.000 C 300.000 220.450,302.475 220.000,305.500 220.000 C 308.525 220.000,311.000 219.550,311.000 219.000 C 311.000 218.450,312.350 218.000,314.000 218.000 C 315.650 218.000,317.000 217.550,317.000 217.000 C 317.000 216.450,317.900 216.000,319.000 216.000 C 320.100 216.000,321.000 215.550,321.000 215.000 C 321.000 214.450,321.900 214.000,323.000 214.000 C 324.100 214.000,325.000 213.550,325.000 213.000 C 325.000 212.450,325.900 212.000,327.000 212.000 C 328.111 212.000,329.000 211.333,329.000 210.500 C 329.000 209.675,329.462 209.000,330.026 209.000 C 331.642 209.000,340.000 200.223,340.000 198.526 C 340.000 197.687,340.450 197.000,341.000 197.000 C 341.550 197.000,342.000 195.650,342.000 194.000 C 342.000 192.350,342.450 191.000,343.000 191.000 C 343.622 191.000,344.000 185.333,344.000 176.000 C 344.000 166.667,343.622 161.000,343.000 161.000 C 342.450 161.000,342.000 159.650,342.000 158.000 C 342.000 156.350,341.550 155.000,341.000 155.000 C 340.450 155.000,340.000 154.100,340.000 153.000 C 340.000 151.900,339.550 151.000,339.000 151.000 C 338.450 151.000,338.000 150.535,338.000 149.967 C 338.000 148.217,331.175 142.000,329.254 142.000 C 328.257 142.000,326.793 141.100,326.000 140.000 C 325.207 138.900,323.758 138.000,322.779 138.000 C 321.801 138.000,321.000 137.550,321.000 137.000 C 321.000 136.450,320.100 136.000,319.000 136.000 C 317.900 136.000,317.000 135.743,317.000 135.429 C 317.000 134.255,319.913 132.000,321.429 132.000 C 322.293 132.000,323.000 131.506,323.000 130.901 C 323.000 130.297,324.350 128.541,326.000 127.000 C 327.650 125.459,329.000 123.478,329.000 122.599 C 329.000 121.719,329.675 121.000,330.500 121.000 C 331.333 121.000,332.000 120.111,332.000 119.000 C 332.000 117.900,332.450 117.000,333.000 117.000 C 333.550 117.000,334.000 115.848,334.000 114.441 C 334.000 112.990,334.433 112.149,335.000 112.500 C 335.647 112.900,336.000 108.510,336.000 100.059 C 336.000 92.020,335.616 87.000,335.000 87.000 C 334.450 87.000,334.000 85.650,334.000 84.000 C 334.000 82.350,333.550 81.000,333.000 81.000 C 332.450 81.000,332.000 80.100,332.000 79.000 C 332.000 77.900,331.518 77.000,330.929 77.000 C 329.335 77.000,327.000 74.367,327.000 72.571 C 327.000 71.707,326.550 71.000,326.000 71.000 C 325.450 71.000,325.000 70.518,325.000 69.929 C 325.000 68.422,322.406 66.000,320.792 66.000 C 320.049 66.000,318.793 65.100,318.000 64.000 C 317.207 62.900,315.784 62.000,314.838 62.000 C 313.892 62.000,312.840 61.550,312.500 61.000 C 312.160 60.450,310.559 60.000,308.941 60.000 C 307.323 60.000,306.000 59.550,306.000 59.000 C 306.000 58.450,304.227 58.000,302.059 58.000 C 299.891 58.000,297.840 57.550,297.500 57.000 C 297.102 56.357,280.490 56.000,250.941 56.000 L 205.000 56.000 205.000 139.000 M283.000 88.000 C 283.000 88.550,285.025 89.000,287.500 89.000 C 290.051 89.000,292.000 89.467,292.000 90.078 C 292.000 90.672,293.800 92.886,296.000 95.000 C 299.979 98.823,302.262 111.000,299.000 111.000 C 298.450 111.000,298.000 111.707,298.000 112.571 C 298.000 114.592,295.592 117.000,293.571 117.000 C 292.707 117.000,292.000 117.450,292.000 118.000 C 292.000 118.550,290.902 119.000,289.559 119.000 C 288.216 119.000,286.840 119.450,286.500 120.000 C 286.119 120.616,277.656 121.000,264.441 121.000 L 243.000 121.000 243.000 104.000 L 243.000 87.000 263.000 87.000 C 275.667 87.000,283.000 87.367,283.000 88.000 M292.000 154.000 C 292.000 154.550,293.131 155.000,294.514 155.000 C 301.526 155.000,308.000 162.185,308.000 169.967 C 308.000 173.322,307.556 176.000,307.000 176.000 C 306.450 176.000,306.000 176.695,306.000 177.545 C 306.000 179.546,301.546 184.000,299.545 184.000 C 298.695 184.000,298.000 184.450,298.000 185.000 C 298.000 185.550,295.525 186.000,292.500 186.000 C 289.475 186.000,287.000 186.450,287.000 187.000 C 287.000 187.636,279.000 188.000,265.000 188.000 L 243.000 188.000 243.000 170.500 L 243.000 153.000 267.500 153.000 C 283.167 153.000,292.000 153.361,292.000 154.000 M41.000 333.500 L 41.000 346.000 114.500 346.000 L 188.000 346.000 188.000 333.500 L 188.000 321.000 114.500 321.000 L 41.000 321.000 41.000 333.500 " stroke="none" fill="#000000" fill-rule="evenodd"></path></g></svg>