<svg xmlns="http://www.w3.org/2000/svg" height="106" width="106" viewBox="0 0 106 106">
  <path d="m 71.060547,37.972656 a 3.06,3.06 0 0 0 0.08008,6.119141 3.027,3.027 0 0 0 1.505859,-0.410156 l 9.525391,7.412109 a 7.715,7.715 0 0 0 0.117187,8.689453 l -2.896484,2.898438 a 2.488,2.488 0 0 0 -0.722656,-0.119141 2.513,2.513 0 1 0 2.513672,2.515625 2.48,2.48 0 0 0 -0.117188,-0.724609 l 2.865235,-2.867188 a 7.728,7.728 0 1 0 5.875,-13.763672 v -3.527344 a 2.716,2.716 0 0 0 1.564453,-2.447265 v -0.08008 c 0,-1.5 -1.214844,-2.716797 -2.714844,-2.716797 h -0.08203 a 2.716,2.716 0 0 0 -2.714844,2.716797 v 0.08008 a 2.716,2.716 0 0 0 1.566406,2.447265 v 3.527344 a 7.691,7.691 0 0 0 -3.658203,1.609375 l -9.671875,-7.533203 c 0.069,-0.249 0.103422,-0.504719 0.107422,-0.761719 A 3.06,3.06 0 0 0 71.060547,37.972656 Z M 0,42.947266 v 20.230468 h 3.6953125 v -8.199218 h 7.7832035 v 8.199218 h 3.697265 V 42.947266 h -3.695312 v 8.474609 H 3.6933594 v -8.474609 z m 55.662109,0 c -3.803,0 -6.552734,2.225968 -6.552734,5.917968 0,6.85 8.371094,4.677719 8.371094,8.511719 0,1.182 -1.146938,2.224609 -2.460938,2.224609 -2.073,0 -2.745265,-1.011984 -3.697265,-2.083984 l -2.548828,2.648438 c 1.63,2 3.639875,3.015625 6.046874,3.015625 3.613,0 6.519532,-2.253344 6.519532,-5.777344 0,-7.604 -8.373047,-5.242063 -8.373047,-8.539063 h 0.0059 c 0,-1.777 1.175891,-2.339843 2.462891,-2.339843 1.038,0 2.407687,0.790046 3.304687,1.748047 l 2.294922,-2.705079 c -1.146,-1.55 -3.470047,-2.621093 -5.373047,-2.621093 z m -22.947265,0.121093 v 12.341797 c 0,4.62 3.33975,7.78711 7.09375,7.78711 4.164,0 7.826172,-3.222547 7.826172,-7.560547 0,-4.284 -3.371016,-7.560547 -7.291016,-7.560547 v -0.002 c -1.736,0 -2.947141,0.503343 -4.119141,1.652343 v -6.658203 z m 69.392576,1.396485 -3.554686,1.59375 v 12.375 c 0,3.165 2.183736,4.759765 5.177736,4.759765 0.47,0.008 0.94034,-0.03128 1.40234,-0.113281 L 106,59.888672 c -0.391,0.027 -0.83942,0.05469 -1.23242,0.05469 v 0.002 c -2.071,0 -2.66016,-0.895578 -2.66016,-2.267578 v -6.074218 h 3.21875 v -3.078125 h -3.21875 z m -31.470701,3.427734 c -3.753,0 -7.09375,3.166109 -7.09375,7.78711 v 12.349609 h 3.509765 v -6.667969 c 1.17,1.147 2.385141,1.652344 4.119141,1.652344 3.92,0 7.291016,-3.275547 7.291016,-7.560547 h 0.002 c 0,-4.346 -3.656125,-7.560547 -7.828125,-7.560547 z m -53.253907,0.08008 v 8.666016 a 6.556,6.556 0 0 0 13.111329,0 v -8.666016 h -3.492188 v 8.666016 a 3.057617,3.057617 0 0 1 -6.115234,0 v -8.666016 z m 71.234376,3.423828 a 3.965,3.965 0 0 1 0.0039,7.923828 l -0.0039,0.002 a 3.965,3.965 0 1 1 0,-7.925782 z m -17.34375,0.03125 a 3.9835,3.9835 0 0 1 3.867187,3.980469 3.9835,3.9835 0 1 1 -7.966797,0 3.9835,3.9835 0 0 1 4.09961,-3.980469 z m -30.951172,0.269532 a 3.9835,3.9835 0 0 1 0,7.966796 3.9835,3.9835 0 1 1 0,-7.966796 z" />
</svg>
