<svg width="100%" height="100%" viewBox="0 0 400 400" version="1.1" xmlns="http://www.w3.org/2000/svg" style="fill-rule:evenodd;clip-rule:evenodd;stroke-linejoin:round;stroke-miterlimit:2;">
    <g>
        <path d="M171.513,0.743C111.181,6.878 50.508,50.653 26.804,105.241C-6.278,181.423 23.406,278.236 97.724,318.081C119.269,329.632 140.58,337.554 164.917,340.073C192.5,342.928 221.354,338.575 247.025,327.99L254.362,324.964L258.431,328.923C278.441,348.389 297.526,369.16 317.844,388.284C321.797,392.005 325.035,400.13 330.295,398.784C339.309,396.476 344.292,386.493 350.804,379.846C357.21,373.308 364.555,367.281 369,359.279C370.074,357.345 366.739,355.446 365.283,353.781C361.362,349.298 357.128,345.095 352.916,340.885L336.831,324.809L339.166,322.163C361.525,296.806 375.928,269.743 385.483,237.324C391.697,216.243 391.78,192.648 389.887,170.957C388.262,152.327 383.306,132.669 374.87,115.954C361.191,88.848 356.092,80.74 336.735,57.667C326.04,44.919 310.964,34.684 296.651,26.449C257.591,3.975 218.044,-4.005 171.513,0.743M219,6.492C248.874,10.327 278.097,21.3 303.688,37.215C326.397,51.338 347.694,75.031 360.592,98.626C362.503,102.122 362.814,106.349 364.74,109.837C366.869,113.691 368.024,112.757 369.934,116.75C384.254,146.698 388.305,182.438 383.899,215C379.791,245.36 368.536,275.57 349.898,300.055C346.151,304.978 342.579,309.846 338.5,314.506C336.764,316.489 335.845,319.906 333.262,320.428C331.049,320.876 329.275,318.223 327.598,316.711C323.254,312.791 314.45,303.633 311.135,300.328L302.771,291.989L305.37,288.581C326.367,261.065 340.244,234.93 342.679,199.177C344.447,173.213 338.253,154.176 330.058,130.113C325.722,117.38 315.339,104.479 307.031,94.855C292.704,78.26 274.666,65.321 255,55.831C253.487,55.101 246.71,53.993 246.297,53.875C231.912,49.752 220.147,46.522 204.816,45.993C148.281,44.041 84.729,74.982 66.964,132C62.084,147.663 59.384,163.532 60.274,180.008C61.21,197.316 66.294,213.154 73.767,228.686C82.765,247.389 97.316,260.828 113,274.048C115.448,276.111 118.847,276.699 121.574,278.377C123.713,279.694 125.328,281.765 127.49,283.044C131.918,285.665 138.145,286.992 143,288.024C163.833,292.453 168.44,294.116 190.528,293.126C199.375,292.729 213.361,291.313 222.844,287.609C236.672,282.207 248.632,273.339 260.5,264.649C261.675,263.788 264.077,260.292 266.423,262.137C271.596,266.206 276.188,270.971 280.85,275.616L295.517,290.233L292.197,293.753C289.008,297.134 284.675,299.213 280.956,302C268.607,311.257 261.604,316.063 246.402,322.484C194.438,344.434 138.216,336.777 91,307.664C87.547,305.535 77.031,298.437 73.589,295.173C63.239,285.358 47.756,265.912 41.671,256.317C32.32,241.573 25.476,222.061 22.087,205.038C16.783,178.39 17.86,150.229 25.398,124.112C30.204,107.459 37.781,91.184 48.216,77.272C66.504,52.888 93.416,33.015 121.303,21.29C151.682,8.518 186.135,2.273 219,6.492M215.199,97.02C256.056,105.031 288.115,136.927 292.292,179.456C292.893,185.576 293.145,191.765 292.719,197.9C291.693,212.677 284.962,228.543 276.565,240.776C273.95,244.584 272.153,249.787 267.09,248.893C261.618,247.926 260.186,244.477 256.884,241C249.543,233.272 247.874,232.926 241.455,226.507L236.962,222.015L239.545,218.111C258.409,189.606 240.635,143.08 204.781,141.151C191.265,140.424 182.262,142.062 170.149,149.033C167.484,150.566 163.235,151.838 163.037,154.906C162.808,158.451 166.803,160.98 169.21,163.592C174.695,169.546 222.614,217.203 227,222.97C228.022,224.314 225.106,225.805 223.86,226.943C222.079,228.57 220.028,229.882 218,231.188C211.791,235.186 204.513,238.33 197.34,239.801C174.307,244.525 152.588,239.06 135.192,223.988C109.637,201.848 105.031,160.936 124.651,133.215C128.111,128.326 128.973,129.298 133,124.799C152.961,102.494 185.651,91.226 215.199,97.02"/>
    </g>
</svg>
