<svg version="1.1" width="515" height="515" xmlns="http://www.w3.org/2000/svg"><g><path d="M0.000 257.500 L 0.000 515.000 257.500 515.000 L 515.000 515.000 515.000 257.500 L 515.000 0.000 257.500 0.000 L 0.000 0.000 0.000 257.500 M491.000 257.500 L 491.000 491.000 257.500 491.000 L 24.000 491.000 24.000 257.500 L 24.000 24.000 257.500 24.000 L 491.000 24.000 491.000 257.500 M149.000 238.500 L 149.000 360.000 169.000 360.000 L 189.000 360.000 189.000 238.500 L 189.000 117.000 169.000 117.000 L 149.000 117.000 149.000 238.500 M323.000 147.500 L 323.000 178.000 307.500 178.000 C 297.833 178.000,292.000 178.376,292.000 179.000 C 292.000 179.550,289.961 180.000,287.469 180.000 C 284.363 180.000,282.756 180.472,282.362 181.500 C 282.045 182.325,280.934 183.000,279.893 183.000 C 278.852 183.000,278.000 183.450,278.000 184.000 C 278.000 184.550,276.524 185.000,274.721 185.000 C 272.589 185.000,270.937 185.700,270.000 187.000 C 269.207 188.100,267.533 189.000,266.279 189.000 C 264.920 189.000,264.000 189.605,264.000 190.500 C 264.000 191.325,263.199 192.000,262.221 192.000 C 261.242 192.000,259.793 192.900,259.000 194.000 C 258.207 195.100,256.983 196.000,256.279 196.000 C 255.576 196.000,255.000 196.470,255.000 197.045 C 255.000 198.161,250.509 203.000,249.474 203.000 C 248.556 203.000,246.000 205.728,246.000 206.708 C 246.000 207.176,245.100 208.207,244.000 209.000 C 242.900 209.793,242.000 211.242,242.000 212.221 C 242.000 213.199,241.325 214.000,240.500 214.000 C 239.675 214.000,239.000 214.675,239.000 215.500 C 239.000 216.325,238.550 217.000,238.000 217.000 C 237.450 217.000,237.000 217.900,237.000 219.000 C 237.000 220.100,236.550 221.000,236.000 221.000 C 235.450 221.000,235.000 222.125,235.000 223.500 C 235.000 224.875,234.550 226.000,234.000 226.000 C 233.450 226.000,233.000 226.900,233.000 228.000 C 233.000 229.111,232.333 230.000,231.500 230.000 C 230.452 230.000,230.000 231.056,230.000 233.500 C 230.000 235.425,229.550 237.000,229.000 237.000 C 228.450 237.000,228.000 239.025,228.000 241.500 C 228.000 243.975,227.550 246.000,227.000 246.000 C 226.359 246.000,226.000 255.333,226.000 272.000 C 226.000 288.667,226.359 298.000,227.000 298.000 C 227.550 298.000,228.000 300.025,228.000 302.500 C 228.000 304.975,228.450 307.000,229.000 307.000 C 229.550 307.000,230.000 308.575,230.000 310.500 C 230.000 312.944,230.452 314.000,231.500 314.000 C 232.548 314.000,233.000 315.056,233.000 317.500 C 233.000 319.425,233.450 321.000,234.000 321.000 C 234.550 321.000,235.000 322.026,235.000 323.279 C 235.000 324.533,235.900 326.207,237.000 327.000 C 238.100 327.793,239.000 329.242,239.000 330.221 C 239.000 331.199,239.675 332.000,240.500 332.000 C 241.325 332.000,242.000 332.675,242.000 333.500 C 242.000 334.325,242.450 335.000,243.000 335.000 C 243.550 335.000,244.000 335.801,244.000 336.779 C 244.000 337.758,244.900 339.207,246.000 340.000 C 247.100 340.793,248.000 342.017,248.000 342.721 C 248.000 343.424,248.675 344.000,249.500 344.000 C 250.325 344.000,251.000 344.450,251.000 345.000 C 251.000 345.550,251.900 346.000,253.000 346.000 C 254.100 346.000,255.000 346.450,255.000 347.000 C 255.000 347.550,255.675 348.000,256.500 348.000 C 257.325 348.000,258.000 348.482,258.000 349.071 C 258.000 350.665,260.633 353.000,262.429 353.000 C 263.293 353.000,264.000 353.450,264.000 354.000 C 264.000 354.550,265.125 355.000,266.500 355.000 C 267.875 355.000,269.000 355.450,269.000 356.000 C 269.000 356.550,270.575 357.000,272.500 357.000 C 274.944 357.000,276.000 357.452,276.000 358.500 C 276.000 359.500,277.000 360.000,279.000 360.000 C 281.333 360.000,282.000 360.444,282.000 362.000 C 282.000 363.778,282.667 364.000,288.000 364.000 C 291.333 364.000,294.000 364.444,294.000 365.000 C 294.000 365.617,299.167 366.000,307.500 366.000 C 315.833 366.000,321.000 365.617,321.000 365.000 C 321.000 364.429,324.000 364.000,328.000 364.000 C 334.333 364.000,335.000 363.810,335.000 362.000 C 335.000 360.242,335.667 360.000,340.500 360.000 C 344.722 360.000,346.000 359.652,346.000 358.500 C 346.000 357.452,347.056 357.000,349.500 357.000 C 351.425 357.000,353.000 356.550,353.000 356.000 C 353.000 355.450,353.900 355.000,355.000 355.000 C 356.100 355.000,357.000 354.550,357.000 354.000 C 357.000 353.450,358.382 353.000,360.071 353.000 C 366.413 353.000,366.000 361.326,366.000 233.571 L 366.000 117.000 344.500 117.000 L 323.000 117.000 323.000 147.500 M323.000 268.500 C 323.000 304.167,322.654 323.000,322.000 323.000 C 321.450 323.000,321.000 323.675,321.000 324.500 C 321.000 325.746,319.056 326.000,309.500 326.000 C 299.944 326.000,298.000 325.746,298.000 324.500 C 298.000 323.500,297.000 323.000,295.000 323.000 C 293.350 323.000,292.000 322.550,292.000 322.000 C 292.000 321.450,291.325 321.000,290.500 321.000 C 289.675 321.000,289.000 320.550,289.000 320.000 C 289.000 319.450,288.343 319.000,287.540 319.000 C 285.544 319.000,278.000 311.462,278.000 309.468 C 278.000 307.639,275.679 305.000,274.071 305.000 C 273.482 305.000,273.000 303.425,273.000 301.500 C 273.000 299.575,272.550 298.000,272.000 298.000 C 271.450 298.000,271.000 296.650,271.000 295.000 C 271.000 293.350,270.550 292.000,270.000 292.000 C 269.429 292.000,269.000 289.000,269.000 285.000 C 269.000 281.000,268.571 278.000,268.000 278.000 C 267.429 278.000,267.000 275.000,267.000 271.000 C 267.000 267.000,267.429 264.000,268.000 264.000 C 268.583 264.000,269.000 260.667,269.000 256.000 C 269.000 251.333,269.417 248.000,270.000 248.000 C 270.550 248.000,271.000 246.650,271.000 245.000 C 271.000 243.350,271.450 242.000,272.000 242.000 C 272.550 242.000,273.000 240.875,273.000 239.500 C 273.000 237.944,273.567 237.000,274.500 237.000 C 275.333 237.000,276.000 236.111,276.000 235.000 C 276.000 233.900,276.450 233.000,277.000 233.000 C 277.550 233.000,278.000 232.530,278.000 231.955 C 278.000 230.597,282.597 226.000,283.955 226.000 C 284.530 226.000,285.000 225.530,285.000 224.955 C 285.000 223.132,289.826 219.000,291.955 219.000 C 293.080 219.000,294.000 218.550,294.000 218.000 C 294.000 217.450,294.900 217.000,296.000 217.000 C 297.111 217.000,298.000 216.333,298.000 215.500 C 298.000 214.247,300.056 214.000,310.500 214.000 L 323.000 214.000 323.000 268.500 " stroke="none" fill-rule="evenodd"></path></g></svg>