<svg xmlns="http://www.w3.org/2000/svg" width="400" height="400" viewBox="0, 0, 400,400"><g><path d="M19.641 144.390 C 11.410 148.244,3.262 158.528,0.806 168.164 C -1.434 176.954,1.847 184.976,9.025 188.263 C 12.957 190.063,14.697 188.857,12.729 185.695 C 8.310 178.598,8.561 168.966,13.427 158.902 C 15.251 155.132,19.564 149.841,20.256 150.526 C 21.551 151.807,20.077 218.529,18.648 223.306 C 16.946 229.000,17.292 229.885,20.714 228.578 C 25.214 226.859,29.213 220.990,30.647 214.000 C 31.805 208.356,32.009 148.228,30.875 146.787 C 28.758 144.094,22.929 142.851,19.641 144.390 M130.991 144.157 C 130.102 144.807,129.674 148.318,129.628 155.352 L 129.600 159.703 123.900 159.552 L 118.200 159.400 117.300 161.185 C 114.931 165.883,115.997 167.198,122.180 167.205 C 124.831 167.208,127.405 167.319,127.900 167.452 L 128.800 167.693 128.800 180.174 C 128.800 195.717,128.433 197.212,122.925 204.100 C 120.410 207.245,120.241 207.327,120.595 205.228 C 121.484 199.965,118.448 195.418,109.649 188.836 L 103.650 184.350 105.224 182.275 C 111.090 174.542,110.358 168.780,103.513 168.809 C 95.408 168.842,89.817 178.906,94.213 185.548 L 95.255 187.123 94.378 188.862 C 90.802 195.943,84.507 206.181,82.269 208.555 C 78.350 212.709,77.467 207.825,78.350 186.879 C 78.847 175.087,78.768 174.531,76.326 172.669 C 66.972 165.535,59.656 171.035,52.740 190.400 L 50.812 195.800 50.869 184.117 C 50.913 175.152,50.808 172.291,50.415 171.819 C 49.201 170.355,42.552 169.053,41.677 170.107 C 40.796 171.169,40.875 215.114,41.762 217.146 C 42.687 219.266,44.162 220.000,47.498 220.000 C 50.741 220.000,51.421 219.426,51.735 216.420 C 52.860 205.654,59.246 188.705,65.099 180.948 C 68.076 177.002,68.156 177.076,67.857 183.491 C 66.459 213.404,67.690 220.000,74.672 220.000 C 80.350 220.000,84.507 215.740,93.594 200.610 C 96.702 195.435,99.409 191.200,99.609 191.200 C 100.424 191.200,107.883 199.122,108.939 201.109 C 113.224 209.173,107.580 215.012,100.153 210.200 C 96.029 207.529,94.298 207.940,92.235 212.080 C 89.744 217.079,94.217 219.819,104.800 219.777 C 115.466 219.733,121.816 215.578,127.232 205.097 L 129.094 201.493 129.376 203.847 C 131.549 222.036,145.092 225.592,153.018 210.055 L 154.675 206.807 155.183 208.503 C 158.186 218.548,167.111 222.598,175.682 217.804 C 177.624 216.718,181.374 212.934,182.111 211.317 C 182.691 210.043,183.068 210.171,183.363 211.743 C 185.118 221.099,196.841 222.403,202.600 213.883 L 203.895 211.966 205.206 214.010 C 210.175 221.753,221.766 221.738,227.128 213.981 C 228.568 211.897,228.803 211.999,228.783 214.700 L 228.766 217.000 225.083 220.281 C 214.055 230.106,209.733 235.065,208.137 239.725 C 203.561 253.088,220.177 262.034,231.187 252.136 C 236.556 247.308,238.534 239.407,238.342 223.561 L 238.237 214.922 240.725 211.829 C 246.495 204.657,252.525 194.230,255.814 185.736 L 257.388 181.673 260.994 181.513 C 265.746 181.302,265.619 181.121,264.488 186.483 C 260.706 204.416,264.848 217.630,274.882 219.645 C 278.976 220.467,284.476 217.679,285.996 214.010 C 286.631 212.476,286.943 212.490,287.941 214.100 C 293.110 222.435,305.640 221.418,311.469 212.191 C 312.859 209.992,312.924 209.989,313.491 212.108 C 315.960 221.341,328.033 222.437,332.566 213.840 L 333.600 211.881 333.600 214.496 C 333.600 218.564,335.058 219.600,340.783 219.600 C 345.452 219.600,345.348 219.767,345.652 211.733 C 346.076 200.507,348.140 191.703,352.082 184.306 C 353.740 181.196,354.179 181.498,354.299 185.832 C 354.891 207.145,357.074 214.992,362.645 215.828 C 366.713 216.438,367.999 215.116,368.001 210.326 C 368.003 205.021,369.579 197.119,372.093 189.800 C 373.325 186.215,375.435 181.200,375.712 181.200 C 375.792 181.200,375.867 185.925,375.878 191.700 C 375.908 206.830,377.273 212.593,381.807 216.737 C 389.710 223.960,400.000 216.671,400.000 203.850 C 400.000 200.653,397.367 200.169,396.464 203.200 C 396.169 204.190,395.549 206.260,395.086 207.800 C 393.589 212.782,391.080 214.360,388.599 211.879 C 385.789 209.069,385.066 203.219,385.449 186.400 L 385.718 174.600 384.626 173.303 C 382.233 170.461,375.561 168.631,373.319 170.202 C 371.437 171.520,364.803 191.672,364.801 196.076 C 364.800 196.668,364.644 197.249,364.454 197.366 C 363.933 197.688,363.554 193.193,363.258 183.196 C 362.919 171.745,361.955 170.182,354.923 169.685 C 351.119 169.416,350.340 170.630,345.742 184.000 L 343.610 190.200 343.605 181.274 C 343.602 176.226,343.430 172.029,343.208 171.616 C 342.741 170.743,337.620 169.485,335.311 169.675 L 333.800 169.800 333.566 185.600 C 333.406 196.405,333.173 201.969,332.828 203.200 C 331.005 209.721,327.632 214.150,325.080 213.373 C 321.415 212.257,320.596 206.383,321.275 186.091 C 321.767 171.431,321.907 172.189,318.488 171.024 C 314.481 169.658,311.200 170.314,311.200 172.480 C 311.200 173.957,310.899 173.890,309.033 171.996 C 305.683 168.598,300.197 167.692,295.685 169.792 C 287.463 173.620,282.451 188.471,284.403 203.222 C 285.741 213.335,277.100 217.846,274.391 208.447 C 272.672 202.481,273.001 196.039,275.650 183.800 C 278.023 172.833,276.358 171.888,260.300 175.081 L 259.200 175.300 259.200 172.704 C 259.200 169.592,258.356 168.234,256.033 167.609 C 248.800 165.661,243.697 175.263,249.014 180.815 L 249.987 181.830 249.163 184.739 C 248.059 188.642,245.898 193.940,243.918 197.600 C 242.285 200.619,238.437 206.800,238.191 206.800 C 238.118 206.800,238.164 199.065,238.292 189.611 L 238.525 172.421 236.363 171.415 C 232.095 169.428,228.000 170.155,228.000 172.901 L 228.000 174.144 226.555 172.456 C 223.250 168.595,217.491 167.433,212.726 169.666 C 205.017 173.279,200.692 185.233,201.418 200.918 L 201.692 206.836 200.443 209.374 C 198.485 213.350,195.388 214.629,193.378 212.293 C 191.361 209.947,191.065 206.637,191.291 188.938 C 191.522 170.834,191.737 172.177,188.430 171.011 C 184.367 169.577,181.130 170.350,181.042 172.775 L 181.000 173.928 178.768 171.800 C 176.064 169.223,174.408 168.658,170.161 168.861 C 160.837 169.308,155.016 178.148,154.003 193.400 C 153.798 196.480,153.465 199.540,153.263 200.200 C 151.326 206.508,147.194 212.100,144.471 212.100 C 140.418 212.100,139.322 201.780,140.543 175.109 L 140.886 167.618 147.921 167.509 L 154.956 167.400 155.730 166.074 C 158.008 162.171,156.955 160.995,150.868 160.646 C 148.301 160.499,145.056 160.267,143.657 160.130 L 141.113 159.881 141.403 153.138 L 141.692 146.396 139.837 145.575 C 138.226 144.863,133.418 143.627,132.176 143.607 C 131.944 143.603,131.410 143.851,130.991 144.157 M177.042 178.033 C 184.674 185.157,180.168 213.188,171.389 213.199 C 162.719 213.209,161.991 182.920,170.531 177.553 C 172.304 176.439,175.594 176.682,177.042 178.033 M225.050 178.515 C 230.315 184.260,228.187 207.594,221.997 212.002 C 214.376 217.429,209.099 202.963,213.010 187.364 C 215.369 177.955,220.847 173.929,225.050 178.515 M306.686 177.587 C 315.000 182.657,310.933 212.072,301.775 213.104 C 292.516 214.148,292.353 180.433,301.600 177.081 C 302.954 176.590,305.460 176.839,306.686 177.587 M228.813 237.298 C 227.586 249.334,221.601 255.397,216.473 249.801 C 212.839 245.836,215.566 239.096,225.040 228.623 L 229.000 224.245 229.126 228.623 C 229.195 231.030,229.055 234.934,228.813 237.298 " stroke="none" fill-rule="evenodd"></path></g></svg>