<svg xmlns="http://www.w3.org/2000/svg" width="400" height="400" viewBox="0, 0, 400,400" version="1.1">
<g>
<path d="M369.836 198.464 L 369.836 281.530 384.699 281.530 L 399.563 281.530 399.563 198.907 C 399.563 153.464,399.563 116.137,399.563 115.956 C 399.563 115.776,392.875 115.577,384.700 115.513 L 369.836 115.398 369.836 198.464 M15.404 117.929 L 0.426 118.044 0.541 133.667 L 0.656 149.290 16.175 149.290 L 31.694 149.290 31.809 133.714 C 31.916 119.137,31.874 118.127,31.153 117.976 C 30.729 117.887,23.642 117.866,15.404 117.929 M177.608 185.902 C 177.757 246.909,177.770 247.708,178.695 252.459 C 182.846 273.782,195.534 282.404,222.761 282.404 L 229.083 282.404 228.968 268.525 L 228.852 254.645 225.137 254.525 C 207.819 253.967,207.244 252.712,207.224 215.417 L 207.213 194.114 218.033 193.997 L 228.852 193.880 228.968 181.093 L 229.084 168.306 218.149 168.306 L 207.213 168.306 207.213 146.230 L 207.213 124.153 192.335 124.153 L 177.458 124.153 177.608 185.902 M105.792 166.593 C 96.051 168.319,84.502 175.424,79.202 182.951 L 78.279 184.262 78.265 176.284 L 78.251 168.306 63.388 168.306 L 48.525 168.306 48.525 224.918 L 48.525 281.530 63.388 281.530 L 78.251 281.530 78.259 251.475 C 78.268 219.446,78.463 215.738,80.452 209.758 C 84.267 198.285,94.797 191.282,107.073 192.053 C 120.048 192.867,127.466 199.523,130.305 212.896 C 130.701 214.763,131.325 263.972,131.158 280.109 L 131.148 281.093 146.230 281.093 L 161.311 281.093 161.310 247.541 C 161.308 212.150,161.091 206.842,159.365 200.042 C 154.992 182.811,144.475 171.829,128.302 167.606 C 123.412 166.329,110.549 165.750,105.792 166.593 M289.180 166.418 C 245.006 172.037,222.620 221.290,247.304 258.552 C 263.362 282.792,299.179 291.024,327.424 276.967 C 335.055 273.170,347.670 263.226,347.045 261.502 C 346.957 261.258,342.190 257.505,336.451 253.161 L 326.016 245.263 323.336 247.581 C 306.239 262.368,279.951 260.735,269.525 244.239 C 268.070 241.938,265.792 236.676,265.792 235.618 C 265.792 235.343,281.584 235.191,310.217 235.191 L 354.641 235.191 354.412 225.683 C 353.489 187.447,325.288 161.825,289.180 166.418 M1.311 224.918 L 1.311 281.530 16.393 281.530 L 31.475 281.530 31.475 224.918 L 31.475 168.306 16.393 168.306 L 1.311 168.306 1.311 224.918 M304.520 192.594 C 315.177 195.155,324.331 203.681,325.496 212.131 L 325.782 214.208 295.787 214.208 C 261.415 214.208,265.009 214.757,266.691 209.763 C 271.174 196.457,288.284 188.691,304.520 192.594 " stroke="none" fill-rule="evenodd"></path>
</g>
</svg>