<svg xmlns="http://www.w3.org/2000/svg" width="400" height="400" viewBox="0, 0, 400,400" version="1.1"><g><path d="M120.455 0.616 C 120.955 1.076,124.636 2.796,128.636 4.437 C 132.636 6.078,137.253 8.001,138.894 8.711 C 140.536 9.420,142.485 10.000,143.225 10.000 C 143.965 10.000,145.280 10.380,146.149 10.844 C 150.551 13.196,172.916 17.558,189.186 19.237 C 213.418 21.737,251.176 14.557,273.478 3.208 C 279.729 0.027,279.056 -0.420,269.823 0.778 C 215.896 7.776,179.730 7.677,124.091 0.375 C 121.303 0.009,119.897 0.102,120.455 0.616 M106.364 23.880 L 106.364 45.372 109.318 45.820 C 110.943 46.066,116.364 46.488,121.364 46.758 C 143.712 47.964,155.990 59.655,168.213 91.364 C 168.599 92.364,169.936 95.841,171.184 99.091 C 172.433 102.341,174.679 108.068,176.177 111.818 C 177.674 115.568,179.998 121.909,181.341 125.909 C 182.683 129.909,184.507 134.818,185.394 136.818 C 186.281 138.818,187.723 142.500,188.599 145.000 C 190.142 149.403,190.894 151.383,192.657 155.682 C 193.118 156.807,194.177 159.773,195.010 162.273 C 195.843 164.773,196.898 167.529,197.353 168.397 C 197.809 169.265,198.182 170.775,198.182 171.752 C 198.182 172.729,198.591 173.782,199.091 174.091 C 199.591 174.400,200.000 175.283,200.000 176.053 C 200.000 176.823,200.586 178.742,201.302 180.317 C 202.019 181.893,203.207 185.023,203.944 187.273 C 204.680 189.523,205.781 192.591,206.391 194.091 C 209.975 202.911,217.922 224.991,218.824 228.636 C 219.071 229.636,220.000 232.091,220.888 234.091 C 221.775 236.091,222.788 239.052,223.139 240.671 C 223.489 242.291,224.154 243.849,224.615 244.134 C 225.077 244.419,225.455 245.452,225.455 246.430 C 225.455 247.407,225.838 248.917,226.307 249.785 C 227.362 251.738,231.146 262.387,233.168 269.091 C 234.628 273.933,235.066 275.164,237.055 280.000 C 237.569 281.250,238.680 284.216,239.524 286.591 C 240.369 288.966,241.222 290.909,241.422 290.909 C 241.621 290.909,241.778 244.989,241.771 188.864 C 241.758 85.474,241.880 81.027,244.976 72.273 C 251.992 52.437,261.438 46.326,286.818 45.201 L 291.364 45.000 291.608 23.707 C 291.845 3.050,291.802 2.460,290.173 3.935 C 289.249 4.771,288.171 5.455,287.777 5.455 C 287.384 5.455,285.166 6.813,282.849 8.472 C 278.335 11.706,267.936 16.847,263.854 17.862 C 262.484 18.203,260.136 19.167,258.636 20.003 C 257.136 20.840,254.886 21.746,253.636 22.017 C 252.386 22.287,248.909 23.218,245.909 24.084 C 225.101 30.097,174.906 30.777,160.909 25.235 C 160.159 24.938,157.909 24.468,155.909 24.189 C 151.245 23.541,143.648 21.412,139.813 19.680 C 138.166 18.935,135.795 18.039,134.545 17.687 C 130.017 16.414,111.303 6.946,108.864 4.695 L 106.364 2.387 106.364 23.880 M109.091 52.185 C 109.091 52.387,110.585 55.149,112.410 58.322 C 114.236 61.495,116.660 65.970,117.798 68.267 L 119.867 72.443 130.867 72.996 C 143.588 73.636,148.801 75.714,153.930 82.189 L 156.818 85.835 157.469 183.145 C 157.827 236.665,157.902 281.068,157.636 281.818 C 157.370 282.568,156.779 291.361,156.322 301.358 C 155.261 324.587,154.493 328.463,150.020 333.182 C 148.124 335.182,145.534 338.499,144.265 340.554 C 140.147 347.219,127.278 351.818,112.744 351.818 L 104.545 351.818 104.545 375.909 C 104.545 389.159,104.852 399.991,105.227 399.980 C 105.602 399.969,106.932 399.160,108.182 398.182 C 109.432 397.204,111.170 396.395,112.045 396.384 C 112.920 396.373,113.636 395.964,113.636 395.476 C 113.636 394.333,120.309 391.104,124.168 390.380 C 125.806 390.073,127.358 389.270,127.617 388.597 C 127.875 387.924,129.642 387.110,131.543 386.788 C 133.444 386.467,136.289 385.626,137.865 384.920 C 139.440 384.214,141.302 383.636,142.001 383.636 C 142.700 383.636,143.718 383.191,144.262 382.647 C 144.806 382.103,149.490 381.427,154.671 381.146 C 160.146 380.848,164.874 380.125,165.960 379.418 C 172.284 375.308,230.206 374.319,245.000 378.068 C 247.000 378.575,251.598 379.604,255.217 380.356 C 258.837 381.108,263.132 382.303,264.763 383.011 C 266.393 383.719,269.568 385.018,271.818 385.897 C 277.874 388.262,292.703 395.589,293.260 396.491 C 295.035 399.363,295.455 395.193,295.455 374.662 L 295.455 352.051 292.018 351.501 C 290.128 351.199,283.825 350.535,278.011 350.025 C 260.361 348.478,253.007 343.501,243.588 326.731 C 242.614 324.999,241.818 323.162,241.818 322.650 C 241.818 322.138,240.934 319.798,239.853 317.450 C 237.923 313.258,234.332 303.474,227.109 282.727 C 225.107 276.977,222.929 271.045,222.269 269.545 C 221.609 268.045,220.370 264.568,219.516 261.818 C 218.663 259.068,217.408 255.591,216.728 254.091 C 215.017 250.318,210.366 237.363,207.589 228.636 C 206.316 224.636,204.935 220.545,204.520 219.545 C 204.106 218.545,202.884 215.068,201.806 211.818 C 199.845 205.904,195.099 192.967,193.636 189.545 C 193.208 188.545,191.981 184.864,190.909 181.364 C 189.837 177.864,188.629 174.182,188.225 173.182 C 185.161 165.598,184.241 163.148,181.740 155.909 C 180.185 151.409,178.693 146.705,178.425 145.455 C 178.157 144.205,177.638 142.773,177.271 142.273 C 176.904 141.773,175.907 139.114,175.055 136.364 C 174.204 133.614,173.170 130.545,172.759 129.545 C 170.803 124.792,169.091 119.325,169.091 117.834 C 169.091 116.927,168.513 114.895,167.807 113.319 C 167.101 111.744,166.025 108.205,165.415 105.455 C 164.806 102.705,164.022 100.045,163.674 99.545 C 163.325 99.045,162.302 96.591,161.401 94.091 C 160.499 91.591,159.406 89.157,158.971 88.682 C 158.537 88.207,158.182 87.243,158.182 86.539 C 158.182 84.748,153.006 74.098,149.485 68.647 C 144.595 61.074,136.638 55.521,126.818 52.826 C 123.420 51.894,109.091 51.376,109.091 52.185 M276.818 52.915 C 264.385 55.232,259.416 58.590,254.530 67.977 C 251.069 74.625,251.113 74.787,255.909 73.114 C 257.909 72.416,262.881 71.839,266.957 71.832 L 274.368 71.818 280.139 62.955 C 283.312 58.080,286.236 53.580,286.636 52.955 C 287.495 51.612,283.889 51.598,276.818 52.915 M126.632 338.127 C 120.530 338.407,115.209 339.045,114.807 339.545 C 114.405 340.045,112.853 341.839,111.357 343.530 L 108.636 346.606 116.364 346.049 C 126.310 345.331,138.182 341.010,138.182 338.108 C 138.182 337.648,138.080 337.350,137.955 337.445 C 137.830 337.540,132.735 337.846,126.632 338.127 M260.985 337.630 C 264.652 341.084,277.600 344.774,284.634 344.369 L 289.468 344.091 285.870 340.690 L 282.273 337.288 271.439 337.281 C 265.481 337.276,260.777 337.433,260.985 337.630 M200.749 380.463 C 200.494 380.718,193.574 381.367,185.370 381.906 C 177.167 382.444,170.045 383.185,169.545 383.552 C 167.863 384.785,161.407 386.267,155.494 386.777 C 152.266 387.056,149.219 387.691,148.722 388.187 C 148.225 388.684,146.955 389.091,145.901 389.091 C 144.847 389.091,143.190 389.692,142.219 390.426 C 141.249 391.160,139.141 391.773,137.535 391.789 C 135.887 391.806,133.908 392.565,132.990 393.533 C 132.095 394.476,129.627 395.534,127.505 395.885 C 125.382 396.235,123.399 396.921,123.097 397.410 C 122.757 397.960,123.708 398.084,125.592 397.737 C 150.438 393.162,250.909 393.198,277.500 397.792 C 282.470 398.650,281.704 397.733,274.773 394.528 C 263.917 389.509,261.125 388.558,245.000 384.387 C 243.000 383.870,240.418 383.078,239.263 382.627 C 235.967 381.340,201.792 379.420,200.749 380.463 " stroke="none" fill-rule="evenodd"></path></g></svg>