<svg version="1.1" width="400" height="400" xmlns="http://www.w3.org/2000/svg"><g><path d="M177.000 61.105 C 141.321 67.487,112.257 84.755,89.250 113.242 C 85.813 117.498,83.000 121.241,83.000 121.560 C 83.000 121.879,81.709 124.021,80.131 126.320 C 63.528 150.513,55.589 190.416,61.066 222.150 C 82.070 343.843,233.084 382.920,310.750 286.758 C 314.188 282.502,317.000 278.759,317.000 278.440 C 317.000 278.121,318.291 275.979,319.869 273.680 C 343.180 239.714,347.337 174.335,328.250 141.860 L 326.698 139.219 322.099 143.658 C 319.570 146.099,314.743 149.421,311.374 151.040 L 305.249 153.983 308.551 163.742 C 346.999 277.365,204.035 365.765,119.135 280.865 C 41.802 203.532,107.890 70.783,215.872 86.552 C 228.248 88.360,236.516 90.731,247.286 95.563 C 249.368 96.497,251.168 97.090,251.286 96.881 C 251.404 96.671,252.625 94.262,254.000 91.528 C 255.375 88.793,258.914 84.218,261.864 81.362 L 267.227 76.168 260.943 73.050 C 253.211 69.214,235.660 63.330,228.107 62.041 C 225.023 61.515,219.800 60.618,216.500 60.048 C 207.481 58.490,188.827 58.989,177.000 61.105 M280.500 85.374 C 252.479 98.569,259.672 139.076,290.506 141.720 C 316.568 143.954,331.535 108.974,312.141 91.154 C 303.165 82.907,290.610 80.613,280.500 85.374 M187.000 136.947 C 164.896 141.114,146.031 158.612,137.889 182.500 C 136.037 187.935,136.037 212.065,137.889 217.500 C 144.357 236.477,156.504 250.558,173.000 258.200 C 183.272 262.958,185.913 263.474,200.000 263.474 C 208.776 263.474,214.900 262.997,217.500 262.111 C 239.816 254.505,254.505 239.816,262.111 217.500 C 262.997 214.900,263.474 208.776,263.474 200.000 C 263.474 191.224,262.997 185.100,262.111 182.500 C 254.861 161.229,241.292 146.936,221.104 139.304 C 213.814 136.548,195.742 135.299,187.000 136.947 " stroke="none" fill-rule="evenodd"></path></g></svg>