<svg id="svg" version="1.1" width="515" height="515" xmlns="http://www.w3.org/2000/svg" xmlns:xlink="http://www.w3.org/1999/xlink" style="display: block;"><g id="svgg"><path id="path0" d="M1.750 212.217 C 0.163 214.203,0.000 217.486,-0.000 247.548 L -0.000 280.689 2.499 283.594 C 3.873 285.193,4.998 286.837,4.999 287.250 C 4.999 287.663,9.950 288.000,16.000 288.000 L 27.000 288.000 27.000 293.000 C 27.000 295.750,27.450 298.000,28.000 298.000 C 28.550 298.000,29.000 298.470,29.000 299.045 C 29.000 299.620,30.105 301.195,31.455 302.545 L 33.909 305.000 63.500 305.000 L 93.091 305.000 95.545 302.545 C 96.895 301.195,98.000 299.170,98.000 298.045 C 98.000 296.920,98.450 296.000,99.000 296.000 C 99.584 296.000,100.000 292.656,100.000 287.967 C 100.000 279.283,96.236 273.000,91.033 273.000 C 89.893 273.000,89.000 272.342,89.000 271.500 C 89.000 270.211,85.833 270.000,66.500 270.000 L 44.000 270.000 44.000 262.500 L 44.000 255.000 35.500 255.000 L 27.000 255.000 27.000 262.500 L 27.000 270.000 20.500 270.000 L 14.000 270.000 14.000 247.500 L 14.000 225.000 63.500 225.000 L 113.000 225.000 113.000 247.500 L 113.000 270.000 107.500 270.000 L 102.000 270.000 102.000 279.000 L 102.000 288.000 112.000 288.000 C 117.500 288.000,122.000 287.617,122.000 287.148 C 122.000 286.680,123.350 284.884,125.000 283.157 L 128.000 280.018 128.000 247.464 L 128.000 214.909 125.545 212.455 L 123.091 210.000 63.295 210.013 L 3.500 210.026 1.750 212.217 M311.000 224.000 C 311.000 224.560,308.246 225.000,304.737 225.000 C 299.118 225.000,298.271 225.274,296.487 227.665 C 295.394 229.131,293.938 230.899,293.250 231.594 C 291.672 233.188,291.433 270.000,293.000 270.000 C 293.550 270.000,294.000 270.470,294.000 271.045 C 294.000 275.634,298.475 277.000,313.500 277.000 C 329.295 277.000,333.000 275.679,333.000 270.045 C 333.000 268.920,333.450 268.000,334.000 268.000 C 334.550 268.000,335.000 268.920,335.000 270.045 C 335.000 275.681,338.703 277.000,354.526 277.000 C 370.064 277.000,372.000 276.454,372.000 272.071 C 372.000 270.932,372.450 270.000,373.000 270.000 C 373.633 270.000,374.000 262.751,373.999 250.250 C 373.997 226.505,373.409 225.000,364.134 225.000 C 361.310 225.000,359.000 224.550,359.000 224.000 C 359.000 223.450,356.975 223.000,354.500 223.000 C 352.025 223.000,350.000 223.450,350.000 224.000 C 350.000 224.550,347.690 225.000,344.866 225.000 C 339.407 225.000,335.004 228.235,335.001 232.250 C 335.001 233.213,334.743 234.000,334.429 234.000 C 333.231 234.000,331.000 231.072,331.000 229.500 C 331.000 226.728,328.340 225.000,324.071 225.000 C 321.832 225.000,320.000 224.550,320.000 224.000 C 320.000 223.450,317.975 223.000,315.500 223.000 C 313.025 223.000,311.000 223.450,311.000 224.000 M488.000 224.000 C 488.000 224.550,486.140 225.000,483.866 225.000 C 478.532 225.000,475.003 228.682,475.001 234.250 C 475.001 236.313,474.550 238.000,474.000 238.000 C 473.385 238.000,473.000 243.000,473.000 251.000 C 473.000 259.000,473.385 264.000,474.000 264.000 C 474.550 264.000,475.000 265.820,475.000 268.045 C 475.000 276.013,477.269 277.000,495.587 277.000 C 515.679 277.000,515.000 277.565,515.000 260.847 L 515.000 249.000 503.500 249.000 L 492.000 249.000 492.000 253.000 L 492.000 257.000 499.500 257.000 L 507.000 257.000 507.000 261.071 C 507.000 267.131,505.558 268.000,495.500 268.000 C 483.740 268.000,484.000 268.384,484.000 251.000 C 484.000 233.616,483.740 234.000,495.500 234.000 C 504.976 234.000,507.000 234.956,507.000 239.429 C 507.000 241.762,507.370 242.000,511.000 242.000 L 515.000 242.000 515.000 235.653 C 515.000 227.547,513.119 225.000,507.133 225.000 C 504.860 225.000,503.000 224.550,503.000 224.000 C 503.000 223.422,499.833 223.000,495.500 223.000 C 491.167 223.000,488.000 223.422,488.000 224.000 M145.000 251.000 L 145.000 277.000 154.000 277.000 L 163.000 277.000 163.000 251.000 L 163.000 225.000 154.000 225.000 L 145.000 225.000 145.000 251.000 M178.000 226.000 C 178.000 226.550,176.501 227.000,174.669 227.000 C 172.139 227.000,171.016 227.601,170.000 229.500 C 169.264 230.875,168.288 232.000,167.831 232.000 C 167.374 232.000,167.000 236.520,167.000 242.045 C 167.000 253.480,168.596 256.468,175.132 257.268 C 177.342 257.538,176.523 257.735,172.750 257.840 L 167.000 258.000 167.000 265.045 C 167.000 271.192,167.313 272.404,169.455 274.545 L 171.909 277.000 197.000 277.000 L 222.091 277.000 224.545 274.545 C 229.463 269.628,227.842 247.000,222.571 247.000 C 221.707 247.000,221.000 246.550,221.000 246.000 C 221.000 245.450,222.350 245.000,224.000 245.000 C 226.889 245.000,227.000 244.833,227.000 240.500 C 227.000 238.025,226.550 236.000,226.000 236.000 C 225.450 236.000,225.000 235.100,225.000 234.000 C 225.000 232.900,224.626 232.000,224.169 232.000 C 223.712 232.000,222.736 230.875,222.000 229.500 C 220.984 227.601,219.861 227.000,217.331 227.000 C 215.499 227.000,214.000 226.550,214.000 226.000 C 214.000 225.370,207.333 225.000,196.000 225.000 C 184.667 225.000,178.000 225.370,178.000 226.000 M232.000 251.000 L 232.000 277.000 240.500 277.000 L 249.000 277.000 249.000 271.500 L 249.000 266.000 265.000 266.000 C 275.000 266.000,281.000 265.625,281.000 265.000 C 281.000 264.450,281.788 263.986,282.750 263.968 C 285.407 263.920,288.000 261.535,288.000 259.140 C 288.000 257.963,288.450 257.000,289.000 257.000 C 289.606 257.000,290.000 252.653,290.000 245.960 L 290.000 234.921 285.960 230.960 C 282.825 227.888,281.143 227.000,278.460 227.000 C 276.557 227.000,275.000 226.550,275.000 226.000 C 275.000 225.364,267.167 225.000,253.500 225.000 L 232.000 225.000 232.000 251.000 M378.000 251.000 L 378.000 277.000 382.500 277.000 L 387.000 277.000 387.000 259.500 C 387.000 248.500,387.371 242.000,388.000 242.000 C 388.550 242.000,389.000 242.675,389.000 243.500 C 389.000 244.325,389.450 245.000,390.000 245.000 C 390.550 245.000,391.000 245.900,391.000 247.000 C 391.000 248.100,391.450 249.000,392.000 249.000 C 392.550 249.000,393.000 249.707,393.000 250.571 C 393.000 252.367,395.335 255.000,396.929 255.000 C 397.518 255.000,398.000 256.125,398.000 257.500 C 398.000 258.875,398.450 260.000,399.000 260.000 C 399.550 260.000,400.000 260.801,400.000 261.779 C 400.000 262.758,400.900 264.207,402.000 265.000 C 403.100 265.793,404.000 267.242,404.000 268.221 C 404.000 269.199,404.450 270.000,405.000 270.000 C 405.550 270.000,406.000 270.932,406.000 272.071 C 406.000 275.673,408.404 277.000,414.929 277.000 L 421.000 277.000 421.000 251.000 L 421.000 225.000 417.000 225.000 L 413.000 225.000 413.000 243.500 C 413.000 259.278,412.779 262.000,411.500 262.000 C 410.667 262.000,410.000 261.111,410.000 260.000 C 410.000 258.900,409.550 258.000,409.000 258.000 C 408.450 258.000,408.000 256.875,408.000 255.500 C 408.000 254.125,407.550 253.000,407.000 253.000 C 406.450 253.000,406.000 252.199,406.000 251.221 C 406.000 250.242,405.100 248.793,404.000 248.000 C 402.900 247.207,402.000 245.533,402.000 244.279 C 402.000 243.026,401.550 242.000,401.000 242.000 C 400.450 242.000,400.000 241.293,400.000 240.429 C 400.000 238.633,397.665 236.000,396.071 236.000 C 395.482 236.000,395.000 235.100,395.000 234.000 C 395.000 232.900,394.550 232.000,394.000 232.000 C 393.450 232.000,393.000 231.068,393.000 229.929 C 393.000 226.327,390.596 225.000,384.071 225.000 L 378.000 225.000 378.000 251.000 M426.000 251.000 L 426.000 277.000 431.000 277.000 L 436.000 277.000 436.000 266.000 L 436.000 255.000 447.000 255.000 L 458.000 255.000 458.000 251.000 L 458.000 247.000 447.000 247.000 L 436.000 247.000 436.000 240.500 L 436.000 234.000 448.000 234.000 L 460.000 234.000 460.000 229.500 L 460.000 225.000 443.000 225.000 L 426.000 225.000 426.000 251.000 M462.000 251.000 L 462.000 277.000 466.500 277.000 L 471.000 277.000 471.000 251.000 L 471.000 225.000 466.500 225.000 L 462.000 225.000 462.000 251.000 M322.000 237.000 C 322.000 238.650,322.450 240.000,323.000 240.000 C 323.550 240.000,324.000 241.125,324.000 242.500 C 324.000 244.796,324.367 245.000,328.500 245.000 L 333.000 245.000 333.000 251.500 L 333.000 258.000 328.500 258.000 C 324.007 258.000,324.000 258.005,324.000 261.571 C 324.000 266.967,322.313 268.000,313.500 268.000 C 305.641 268.000,303.000 266.886,303.000 263.571 C 303.000 262.707,302.550 262.000,302.000 262.000 C 301.391 262.000,301.000 257.488,301.000 250.464 C 301.000 235.158,301.783 234.150,313.750 234.061 L 322.000 234.000 322.000 237.000 M363.000 236.000 C 363.000 237.100,363.450 238.000,364.000 238.000 C 364.615 238.000,365.000 243.000,365.000 251.000 C 365.000 259.000,364.615 264.000,364.000 264.000 C 363.450 264.000,363.000 264.900,363.000 266.000 C 363.000 268.568,347.916 269.058,345.429 266.571 C 343.507 264.650,343.352 237.652,345.250 235.496 C 347.449 232.998,363.000 233.440,363.000 236.000 M208.000 242.500 L 208.000 245.000 197.000 245.000 L 186.000 245.000 186.000 242.500 L 186.000 240.000 197.000 240.000 L 208.000 240.000 208.000 242.500 M270.000 245.500 L 270.000 249.000 259.500 249.000 L 249.000 249.000 249.000 245.500 L 249.000 242.000 259.500 242.000 L 270.000 242.000 270.000 245.500 M210.000 260.571 C 210.000 263.083,206.521 264.000,197.000 264.000 C 187.479 264.000,184.000 263.083,184.000 260.571 C 184.000 260.257,189.850 260.000,197.000 260.000 C 204.150 260.000,210.000 260.257,210.000 260.571 M83.000 289.000 C 83.000 289.632,75.833 290.000,63.500 290.000 C 51.167 290.000,44.000 289.632,44.000 289.000 C 44.000 288.368,51.167 288.000,63.500 288.000 C 75.833 288.000,83.000 288.368,83.000 289.000 " stroke="none" fill="#000000" fill-rule="evenodd"></path></g></svg>