<svg width="100%" height="100%" viewBox="0 0 515 515" version="1.1" xmlns="http://www.w3.org/2000/svg" style="fill-rule:evenodd;clip-rule:evenodd;stroke-linejoin:round;stroke-miterlimit:2;">
    <g>
        <path d="M1.75,212.217C0.163,214.203 0,217.486 -0,247.548L-0,280.689L2.499,283.594C3.873,285.193 4.998,286.837 4.999,287.25C4.999,287.663 9.95,288 16,288L27,288L27,293C27,295.75 27.45,298 28,298C28.55,298 29,298.47 29,299.045C29,299.62 30.105,301.195 31.455,302.545L33.909,305L93.091,305L95.545,302.545C96.895,301.195 98,299.17 98,298.045C98,296.92 98.45,296 99,296C99.584,296 100,292.656 100,287.967C100,279.283 96.236,273 91.033,273C89.893,273 89,272.342 89,271.5C89,270.211 85.833,270 66.5,270L44,270L44,255L27,255L27,270L14,270L14,225L113,225L113,270L102,270L102,288L112,288C117.5,288 122,287.617 122,287.148C122,286.68 123.35,284.884 125,283.157L128,280.018L128,214.909L125.545,212.455L123.091,210L63.295,210.013L3.5,210.026L1.75,212.217M311,224C311,226.114 306.836,224.745 304.737,225C300.105,225.562 299.634,224.394 296.487,227.665C295.311,228.888 293.569,229.927 293.25,231.594C291.784,239.253 290.449,263.864 294,271.045C294.445,271.946 294.272,273.156 294.934,273.911C295.74,274.832 296.908,275.543 298.116,275.743C308.018,277.391 319.289,277.483 329.173,275.635C332.888,274.941 332.136,272.651 333,270.045C333.239,269.325 333.241,268 334,268C334.759,268 334.761,269.325 335,270.045C335.864,272.652 335.111,274.942 338.829,275.636C343.992,276.6 349.275,276.906 354.526,277C359.388,277.087 364.272,276.836 369.09,276.179C371.434,275.859 372.821,271.951 373,270C373.601,263.436 373.85,256.84 373.999,250.25C374.104,245.596 374.075,240.932 373.761,236.287C373.538,232.991 373.618,227.389 369.588,225.606C367.915,224.866 365.943,225.274 364.134,225C360.891,224.508 357.78,223 354.5,223C350.068,223 341.647,225.29 337.888,227.119C335.595,228.235 335.602,230.209 335.001,232.25C334.828,232.839 335.042,233.98 334.429,234C331.258,234.104 331.075,227.47 329.136,226.211C327.045,224.852 318.115,223 315.5,223C313.963,223 311,222.463 311,224M488,224C488,224.55 486.14,225 483.866,225C478.532,225 475.003,228.682 475.001,234.25C475.001,236.313 474.55,238 474,238C473.385,238 473,243 473,251C473,259 473.385,264 474,264C474.55,264 475,265.82 475,268.045C475,276.013 477.269,277 495.587,277C515.679,277 515,277.565 515,260.847L515,249L492,249L492,257L507,257L507,261.071C507,267.131 505.558,268 495.5,268C483.74,268 484,268.384 484,251C484,233.616 483.74,234 495.5,234C504.976,234 507,234.956 507,239.429C507,241.762 507.37,242 511,242L515,242L515,235.653C515,227.547 513.119,225 507.133,225C504.86,225 503,224.55 503,224C503,223.422 499.833,223 495.5,223C491.167,223 488,223.422 488,224M145,251L145,277L163,277L163,225L145,225L145,251M178,226C178,226.55 176.501,227 174.669,227C172.139,227 171.016,227.601 170,229.5C169.264,230.875 168.288,232 167.831,232C167.374,232 167,236.52 167,242.045C167,253.48 168.596,256.468 175.132,257.268C177.342,257.538 176.523,257.735 172.75,257.84L167,258L167,265.045C167,271.192 167.313,272.404 169.455,274.545L171.909,277L222.091,277L224.545,274.545C229.463,269.628 227.842,247 222.571,247C221.707,247 221,246.55 221,246C221,245.45 222.35,245 224,245C226.889,245 227,244.833 227,240.5C227,238.025 226.55,236 226,236C225.45,236 225,235.1 225,234C225,232.9 224.626,232 224.169,232C223.712,232 222.736,230.875 222,229.5C220.984,227.601 219.861,227 217.331,227C215.499,227 214,226.55 214,226C214,225.37 207.333,225 196,225C184.667,225 178,225.37 178,226M232,251L232,277L249,277L249,266L265,266C275,266 281,265.625 281,265C281,264.45 281.788,263.986 282.75,263.968C285.407,263.92 288,261.535 288,259.14C288,257.963 288.45,257 289,257C289.606,257 290,252.653 290,245.96L290,234.921L285.96,230.96C282.825,227.888 281.143,227 278.46,227C276.557,227 275,226.55 275,226C275,225.364 267.167,225 253.5,225L232,225L232,251M378,251L378,277L387,277L387,259.5C387,248.5 387.371,242 388,242C388.55,242 389,242.675 389,243.5C389,244.325 389.45,245 390,245C390.55,245 391,245.9 391,247C391,248.1 391.45,249 392,249C392.55,249 393,249.707 393,250.571C393,252.367 395.335,255 396.929,255C397.518,255 398,256.125 398,257.5C398,258.875 398.45,260 399,260C399.55,260 400,260.801 400,261.779C400,262.758 400.9,264.207 402,265C403.1,265.793 404,267.242 404,268.221C404,269.199 404.45,270 405,270C405.55,270 406,270.932 406,272.071C406,275.673 408.404,277 414.929,277L421,277L421,225L413,225L413,243.5C413,259.278 412.779,262 411.5,262C410.667,262 410,261.111 410,260C410,258.9 409.55,258 409,258C408.45,258 408,256.875 408,255.5C408,254.125 407.55,253 407,253C406.45,253 406,252.199 406,251.221C406,250.242 405.1,248.793 404,248C402.9,247.207 402,245.533 402,244.279C402,243.026 401.55,242 401,242C400.45,242 400,241.293 400,240.429C400,238.633 397.665,236 396.071,236C395.482,236 395,235.1 395,234C395,232.9 394.55,232 394,232C393.45,232 393,231.068 393,229.929C393,226.327 390.596,225 384.071,225L378,225L378,251M426,251L426,277L436,277L436,255L458,255L458,247L436,247L436,234L460,234L460,225L426,225L426,251M462,251L462,277L471,277L471,225L462,225L462,251M322,237C322,238.65 322.45,240 323,240C323.55,240 324,241.125 324,242.5C324,244.796 324.367,245 328.5,245L333,245L333,258L328.5,258C324.007,258 324,258.005 324,261.571C324,266.967 322.313,268 313.5,268C305.641,268 303,266.886 303,263.571C303,262.707 302.55,262 302,262C301.391,262 301,257.488 301,250.464C301,235.158 301.783,234.15 313.75,234.061L322,234L322,237M363,236C363,237.187 363.613,236.898 364,238C364.395,239.124 364.639,240.312 364.731,241.5C365.344,249.468 366.029,258.717 363,266C362.061,268.257 356.041,268.152 355.147,268.181C354.03,268.217 347.022,268.532 345.429,266.571C344.669,265.635 344.352,261.65 344.323,261.208C344.106,257.85 343.926,254.487 343.907,251.122C343.895,248.954 343.936,241.046 344.634,237.371C344.757,236.725 344.855,236.022 345.25,235.496C345.846,234.703 348.306,234.226 348.951,234.161C353.627,233.686 355.95,233.688 360.536,234.49C360.81,234.538 363,235.057 363,236M208,242.5L208,245L186,245L186,240L208,240L208,242.5M270,245.5L270,249L249,249L249,242L270,242L270,245.5M210,260.571C210,262.178 208.445,262.865 207.07,263.228C202.054,264.551 196.054,264.209 190.952,263.817C188.431,263.624 186.742,263.494 184.692,262.167C184.206,261.851 183.453,260.762 184,260.571C185.209,260.15 186.54,260.224 187.819,260.168C192.911,259.944 201.089,259.944 206.181,260.168C207.46,260.224 210,259.291 210,260.571M83,289C83,290.726 79.599,289.649 77.875,289.737C71.037,290.088 55.963,290.088 49.125,289.737C47.401,289.649 44,290.726 44,289C44,287.274 47.401,288.351 49.125,288.263C55.963,287.912 71.037,287.912 77.875,288.263C79.599,288.351 83,287.274 83,289"/>
    </g>
</svg>
