<svg version="1.1" width="515" height="515" xmlns="http://www.w3.org/2000/svg"><g><path d="M33.887 70.377 C 18.077 75.958,6.602 87.676,1.939 103.000 C 0.012 109.333,-0.031 112.373,0.231 221.500 L 0.500 333.500 3.283 340.527 C 10.038 357.580,24.438 368.918,43.213 371.965 C 47.283 372.625,101.613 372.988,197.250 372.992 L 345.000 373.000 345.000 384.000 L 345.000 395.000 257.000 395.000 L 169.000 395.000 169.000 388.500 L 169.000 382.000 142.404 382.000 L 115.808 382.000 116.215 395.750 C 116.933 419.987,127.317 435.924,147.775 444.188 L 153.500 446.500 254.430 446.769 C 365.905 447.066,360.244 447.357,372.000 440.723 C 390.840 430.093,396.951 416.323,396.951 384.500 C 396.951 348.559,387.604 332.070,362.000 322.842 L 355.500 320.500 203.250 320.225 L 51.000 319.951 51.000 219.475 L 51.000 119.000 256.500 119.000 L 462.000 119.000 462.000 219.500 L 462.000 320.000 442.000 320.000 L 422.000 320.000 422.000 346.500 L 422.000 373.000 445.951 373.000 C 485.763 373.000,500.949 365.884,511.046 342.500 L 514.500 334.500 514.771 222.000 C 515.036 112.330,514.993 109.337,513.063 103.000 C 508.394 87.672,496.921 75.957,481.113 70.377 L 474.500 68.042 257.500 68.042 L 40.500 68.042 33.887 70.377 M115.233 284.250 L 115.500 310.500 142.250 310.766 L 169.000 311.033 169.000 284.516 L 169.000 258.000 141.983 258.000 L 114.967 258.000 115.233 284.250 " stroke="none" fill-rule="evenodd"></path></g></svg>