<svg id="svg" version="1.1" width="400" height="400" xmlns="http://www.w3.org/2000/svg" xmlns:xlink="http://www.w3.org/1999/xlink" style="display: block;"><g id="svgg"><path id="path0" d="M1.637 173.848 C 0.152 175.490,-0.006 178.483,0.232 200.561 L 0.500 225.425 3.204 226.942 C 5.703 228.344,6.121 228.300,8.704 226.372 L 11.500 224.286 11.768 200.161 C 12.024 177.108,11.946 175.946,10.018 174.018 C 7.499 171.499,3.831 171.425,1.637 173.848 M22.655 173.829 C 16.099 181.073,21.473 184.000,41.329 184.000 L 58.000 184.000 58.015 203.750 C 58.031 224.352,58.131 224.980,61.684 226.850 C 68.841 230.618,70.000 227.434,70.000 204.000 L 70.000 184.000 87.943 184.000 C 105.352 184.000,105.933 183.934,107.443 181.777 C 109.538 178.786,109.403 176.403,107.000 174.000 C 104.020 171.020,25.342 170.860,22.655 173.829 M119.655 173.829 C 117.469 176.244,117.552 180.284,119.829 182.345 C 122.778 185.014,201.920 184.851,204.345 182.171 C 206.531 179.756,206.448 175.716,204.171 173.655 C 201.222 170.986,122.080 171.149,119.655 173.829 M217.055 174.657 C 212.945 179.883,214.625 181.726,232.864 192.000 C 247.973 200.510,247.386 199.732,241.242 203.097 C 214.491 217.747,212.113 220.048,217.530 226.033 C 220.259 229.049,222.429 228.495,233.893 221.860 C 255.744 209.213,258.524 207.673,259.500 207.682 C 260.390 207.690,270.651 213.328,289.846 224.354 C 297.276 228.623,298.897 228.803,301.826 225.686 C 307.087 220.085,302.993 216.187,278.252 203.245 C 271.591 199.761,271.018 200.634,285.261 192.576 C 304.907 181.462,307.066 179.066,302.000 174.000 C 298.521 170.521,289.753 174.197,265.912 189.127 C 259.732 192.998,260.756 193.290,240.998 182.012 C 222.074 171.209,220.216 170.639,217.055 174.657 M314.000 174.000 C 306.953 181.047,312.284 184.000,332.057 184.000 L 349.000 184.000 349.000 203.545 C 349.000 224.445,349.945 228.000,355.500 228.000 C 361.055 228.000,362.000 224.445,362.000 203.545 L 362.000 184.000 379.345 184.000 C 398.336 184.000,400.000 183.503,400.000 177.826 C 400.000 171.984,400.119 172.000,356.171 172.000 C 317.333 172.000,315.934 172.066,314.000 174.000 M119.655 195.829 C 117.293 198.439,117.566 202.582,120.223 204.443 C 123.899 207.018,201.997 206.766,204.345 204.171 C 206.274 202.040,206.533 196.933,204.800 195.200 C 202.541 192.941,121.728 193.538,119.655 195.829 M121.009 216.290 C 116.750 218.445,117.060 224.795,121.523 226.829 C 123.347 227.659,135.355 228.000,162.825 228.000 C 206.152 228.000,206.000 228.023,206.000 221.500 C 206.000 214.971,206.186 214.998,162.527 215.015 C 133.143 215.026,122.884 215.341,121.009 216.290 " stroke="none" fill="#000000" fill-rule="evenodd"></path></g></svg>