<svg version="1.1" width="515" height="515" xmlns="http://www.w3.org/2000/svg">
<g>
<path d="M88.750 189.689 C 87.113 190.117,87.000 193.341,87.000 239.573 L 87.000 289.000 97.500 289.000 L 108.000 289.000 108.000 239.607 C 108.000 195.490,107.831 190.149,106.418 189.607 C 104.639 188.924,91.443 188.986,88.750 189.689 M117.750 189.579 C 116.057 191.282,116.894 262.801,118.671 268.233 C 120.311 273.246,123.021 277.000,125.000 277.000 C 125.550 277.000,126.000 277.444,126.000 277.987 C 126.000 279.629,133.371 285.944,135.321 285.973 C 136.323 285.988,137.818 286.675,138.643 287.500 C 139.814 288.671,142.849 289.000,152.500 289.000 C 162.151 289.000,165.186 288.671,166.357 287.500 C 167.182 286.675,168.495 286.000,169.275 286.000 C 171.769 286.000,177.000 282.903,177.000 281.427 C 177.000 280.642,177.650 280.000,178.443 280.000 C 179.237 280.000,180.684 278.650,181.659 277.000 C 182.634 275.350,183.767 274.000,184.177 274.000 C 184.587 274.000,185.432 272.087,186.054 269.750 C 186.677 267.413,187.836 264.771,188.630 263.881 C 190.245 262.069,190.296 191.959,188.683 190.348 C 187.396 189.063,173.798 188.717,170.750 189.891 L 168.000 190.950 167.999 226.225 L 167.998 261.500 165.572 264.500 C 160.979 270.179,159.994 271.000,157.750 271.015 C 156.513 271.024,154.903 271.409,154.174 271.871 C 153.400 272.362,151.317 272.132,149.174 271.320 C 147.153 270.555,144.749 269.677,143.832 269.369 C 142.914 269.061,141.622 267.502,140.961 265.905 C 140.299 264.307,139.378 263.000,138.915 263.000 C 138.451 263.000,137.943 246.837,137.786 227.082 C 137.629 207.327,137.126 190.790,136.668 190.332 C 135.593 189.257,118.737 188.586,117.750 189.579 M198.975 191.565 C 197.919 194.344,197.598 282.898,198.630 286.750 C 199.200 288.877,199.734 288.999,208.367 288.985 C 221.033 288.963,219.928 291.805,220.234 258.451 C 220.424 237.770,220.795 230.071,221.533 231.500 C 224.076 236.426,226.581 239.988,227.506 239.994 C 228.059 239.997,229.142 241.463,229.912 243.250 C 230.682 245.037,231.896 247.175,232.610 248.000 C 233.323 248.825,234.716 250.411,235.704 251.524 C 236.692 252.638,238.390 255.225,239.477 257.274 C 240.565 259.323,241.814 261.000,242.252 261.000 C 242.691 261.000,243.477 262.125,244.000 263.500 C 244.523 264.875,245.357 266.000,245.854 266.000 C 246.351 266.000,247.317 267.350,248.000 269.000 C 248.683 270.650,249.541 272.000,249.906 272.000 C 250.270 272.000,251.431 273.462,252.484 275.250 C 254.790 279.162,255.675 280.314,259.250 284.055 C 260.762 285.638,262.000 287.398,262.000 287.966 C 262.000 288.612,265.919 289.000,272.439 289.000 L 282.877 289.000 283.497 284.750 C 284.362 278.810,283.668 191.333,282.749 190.415 C 281.605 189.272,271.658 188.674,266.544 189.441 L 262.000 190.123 262.000 221.217 L 262.000 252.311 259.501 249.406 C 258.127 247.807,257.002 245.923,257.001 245.217 C 257.001 244.511,255.509 242.442,253.687 240.620 C 251.864 238.798,249.593 235.663,248.640 233.653 C 247.686 231.644,246.466 230.000,245.928 230.000 C 245.391 230.000,244.523 228.875,244.000 227.500 C 243.477 226.125,242.641 225.000,242.141 225.000 C 241.642 225.000,240.969 224.213,240.646 223.250 C 239.810 220.760,237.713 217.636,236.250 216.700 C 235.563 216.260,235.000 215.270,235.000 214.500 C 235.000 213.730,234.438 212.740,233.750 212.300 C 232.287 211.364,230.190 208.240,229.354 205.750 C 229.031 204.787,228.358 204.000,227.859 204.000 C 227.359 204.000,226.523 202.875,226.000 201.500 C 225.477 200.125,224.587 199.000,224.022 199.000 C 223.457 199.000,222.218 197.208,221.269 195.018 C 218.427 188.459,201.172 185.786,198.975 191.565 M290.741 189.691 C 289.087 190.123,288.997 193.108,289.241 239.325 L 289.500 288.500 317.911 288.766 C 350.545 289.071,350.000 289.211,350.000 280.542 C 350.000 272.168,348.707 271.652,328.345 271.906 L 311.000 272.122 311.002 259.811 L 311.003 247.500 328.824 247.500 C 349.410 247.500,350.000 247.280,350.000 239.583 C 350.000 231.276,349.317 231.000,328.778 231.000 L 311.000 231.000 310.999 219.250 L 310.997 207.500 327.232 207.800 C 344.770 208.124,348.000 207.763,348.000 205.481 C 348.000 204.666,348.450 204.000,349.000 204.000 C 349.550 204.000,350.000 201.525,350.000 198.500 C 350.000 195.475,349.550 193.000,349.000 193.000 C 348.450 193.000,348.000 192.373,348.000 191.607 C 348.000 190.841,347.288 189.941,346.418 189.607 C 344.613 188.914,293.422 188.991,290.741 189.691 M359.667 189.667 C 358.203 191.130,359.000 198.887,360.750 200.205 C 362.857 201.793,365.000 205.429,365.000 207.415 C 365.000 208.208,365.568 209.452,366.262 210.179 C 366.956 210.905,368.071 212.738,368.740 214.250 C 369.410 215.762,370.417 217.000,370.979 217.000 C 371.540 217.000,372.000 217.606,372.000 218.346 C 372.000 220.351,375.006 226.000,376.073 226.000 C 376.583 226.000,377.000 226.585,377.000 227.301 C 377.000 229.140,379.352 233.983,380.250 233.992 C 381.837 234.009,380.902 237.580,379.000 238.768 C 377.900 239.455,377.000 240.865,377.000 241.901 C 377.000 242.938,376.325 244.045,375.500 244.362 C 374.675 244.678,374.000 245.632,374.000 246.482 C 374.000 248.383,371.912 252.234,370.328 253.256 C 369.684 253.672,368.869 255.322,368.517 256.922 C 368.165 258.523,367.230 260.081,366.439 260.385 C 365.648 260.689,365.000 261.632,365.000 262.482 C 365.000 264.281,363.238 267.559,360.750 270.388 C 359.788 271.482,359.000 272.919,359.000 273.582 C 359.000 274.244,358.325 275.045,357.500 275.362 C 356.675 275.678,356.000 276.825,356.000 277.910 C 356.000 278.994,355.550 280.160,355.000 280.500 C 354.450 280.840,354.000 282.891,354.000 285.059 L 354.000 289.000 364.000 289.000 C 372.115 289.000,374.000 288.724,374.000 287.535 C 374.000 286.730,374.900 285.589,376.000 285.000 C 377.100 284.411,378.000 283.072,378.000 282.024 C 378.000 280.976,378.450 279.840,379.000 279.500 C 379.550 279.160,380.000 278.057,380.000 277.048 C 380.000 276.039,380.675 274.955,381.500 274.638 C 382.325 274.322,383.000 273.396,383.000 272.581 C 383.000 271.766,383.563 270.740,384.250 270.300 C 385.594 269.440,389.000 262.647,389.000 260.826 C 389.000 259.237,392.186 257.134,393.708 257.718 C 394.419 257.991,395.000 258.837,395.000 259.599 C 395.000 260.360,395.900 261.545,397.000 262.232 C 398.100 262.919,399.000 264.246,399.000 265.182 C 399.000 266.117,399.450 267.160,400.000 267.500 C 400.550 267.840,401.000 268.996,401.000 270.069 C 401.000 271.142,401.900 272.790,403.000 273.732 C 404.100 274.674,405.000 276.222,405.000 277.173 C 405.000 278.123,405.563 279.260,406.252 279.700 C 407.474 280.482,409.257 283.744,410.378 287.250 C 410.864 288.770,412.318 289.000,421.469 289.000 L 432.000 289.000 432.000 284.500 C 432.000 281.167,431.611 280.000,430.500 280.000 C 429.675 280.000,429.000 279.155,429.000 278.122 C 429.000 277.090,428.325 275.685,427.500 275.000 C 426.675 274.315,426.000 272.958,426.000 271.985 C 426.000 271.011,425.325 269.955,424.500 269.638 C 423.675 269.322,423.000 268.219,423.000 267.187 C 423.000 266.155,421.854 264.004,420.454 262.406 C 419.054 260.807,417.654 258.291,417.342 256.814 C 417.031 255.337,416.151 253.888,415.388 253.595 C 414.625 253.302,414.000 252.164,414.000 251.067 C 414.000 249.969,413.100 248.589,412.000 248.000 C 410.900 247.411,410.000 246.115,410.000 245.120 C 410.000 244.125,408.876 242.004,407.501 240.406 C 406.127 238.807,405.002 236.375,405.002 235.000 C 405.002 233.625,406.127 231.193,407.501 229.594 C 408.876 227.996,410.000 225.875,410.000 224.880 C 410.000 223.885,410.900 222.589,412.000 222.000 C 413.100 221.411,414.000 220.068,414.000 219.015 C 414.000 217.961,414.563 216.740,415.250 216.300 C 416.805 215.305,419.000 211.463,419.000 209.736 C 419.000 209.026,419.900 207.674,421.000 206.732 C 422.100 205.790,423.000 204.138,423.000 203.059 C 423.000 201.981,423.705 200.705,424.566 200.223 C 426.452 199.167,428.073 192.736,426.922 190.874 C 424.851 187.524,405.000 189.079,405.000 192.591 C 405.000 193.198,404.100 194.732,403.000 196.000 C 401.900 197.268,401.000 199.111,401.000 200.094 C 401.000 201.077,400.550 202.160,400.000 202.500 C 399.450 202.840,399.000 203.883,399.000 204.818 C 399.000 205.754,398.100 207.081,397.000 207.768 C 395.900 208.455,395.000 209.876,395.000 210.925 C 395.000 215.429,389.919 212.797,388.619 207.619 C 388.251 206.151,387.072 204.072,386.000 203.000 C 384.928 201.928,383.757 199.878,383.397 198.445 C 383.037 197.011,382.126 195.602,381.371 195.312 C 380.617 195.023,380.000 193.923,380.000 192.868 C 380.000 189.701,362.403 186.930,359.667 189.667 M16.409 299.377 C 16.118 300.134,16.020 302.947,16.190 305.627 L 16.500 310.500 256.000 310.754 L 495.500 311.008 495.165 304.504 L 494.829 298.000 255.883 298.000 C 53.890 298.000,16.856 298.213,16.409 299.377 M122.000 322.000 C 122.000 322.550,120.253 323.000,118.119 323.000 C 113.894 323.000,108.000 327.708,108.000 331.083 C 108.000 332.020,107.325 333.045,106.500 333.362 C 105.566 333.720,104.956 335.363,104.884 337.719 C 104.820 339.798,104.562 340.712,104.311 339.750 C 104.059 338.788,103.476 338.000,103.015 338.000 C 102.553 338.000,101.870 336.191,101.497 333.980 C 101.123 331.769,100.184 329.326,99.409 328.552 C 98.634 327.777,98.000 326.187,98.000 325.019 C 98.000 320.397,87.767 322.632,86.642 327.500 C 86.134 329.700,85.107 331.860,84.359 332.300 C 83.612 332.740,83.000 333.971,83.000 335.035 C 83.000 337.316,80.764 346.277,80.015 347.000 C 78.101 348.847,76.872 353.141,77.474 355.881 C 78.966 362.675,88.891 358.676,88.967 351.250 C 88.998 348.172,91.844 344.000,93.912 344.000 C 94.414 344.000,95.134 345.831,95.512 348.070 C 95.890 350.308,96.779 352.362,97.487 352.634 C 98.196 352.905,99.040 354.449,99.363 356.064 C 100.475 361.626,108.000 359.246,108.000 353.332 L 108.000 350.520 110.540 353.260 C 111.938 354.767,113.977 356.000,115.072 356.000 C 116.167 356.000,117.322 356.675,117.638 357.500 C 118.291 359.201,129.000 359.715,129.000 358.045 C 129.000 357.520,130.575 356.795,132.500 356.434 C 134.782 356.006,136.014 355.207,136.039 354.139 C 136.061 353.237,136.714 353.962,137.491 355.750 L 138.903 359.000 147.895 359.000 C 155.683 359.000,157.070 358.738,158.255 357.046 C 159.614 355.107,159.635 355.107,161.033 357.046 C 164.855 362.349,171.000 357.697,171.000 349.500 C 171.000 343.370,172.263 343.689,176.323 350.842 C 179.057 355.662,182.802 359.000,185.473 359.000 C 188.440 359.000,191.998 354.708,191.287 351.988 C 190.515 349.037,192.321 349.581,194.274 352.887 C 195.442 354.865,197.085 355.981,199.490 356.432 C 201.420 356.794,203.000 357.520,203.000 358.045 C 203.000 358.570,205.250 359.000,208.000 359.000 C 210.750 359.000,213.000 358.600,213.000 358.111 C 213.000 357.623,214.575 356.927,216.500 356.566 C 218.823 356.130,220.027 355.336,220.079 354.205 C 220.143 352.828,220.264 352.789,220.709 354.000 C 222.301 358.329,224.035 359.000,233.636 359.000 C 242.668 359.000,242.981 358.924,243.570 356.579 C 244.855 351.457,243.952 350.523,237.407 350.207 C 231.433 349.918,231.333 349.866,231.333 347.000 C 231.333 344.134,231.431 344.082,237.417 343.793 L 243.500 343.500 243.805 339.299 L 244.110 335.098 237.805 334.799 C 230.979 334.475,229.531 332.678,235.729 332.223 C 241.750 331.781,244.000 330.178,244.000 326.331 L 244.000 323.000 233.059 323.000 C 226.824 323.000,221.851 323.431,221.498 324.003 C 221.084 324.673,220.257 324.673,219.005 324.003 C 217.975 323.451,215.752 323.000,214.066 323.000 C 212.380 323.000,211.000 322.550,211.000 322.000 C 211.000 321.450,209.650 321.000,208.000 321.000 C 206.350 321.000,205.000 321.450,205.000 322.000 C 205.000 322.550,203.405 323.000,201.455 323.000 C 197.964 323.000,193.000 326.496,193.000 328.955 C 193.000 329.530,192.498 330.000,191.883 330.000 C 191.269 330.000,190.985 329.164,191.253 328.142 C 192.143 324.736,190.220 323.000,185.557 323.000 C 180.603 323.000,180.000 323.823,180.000 330.582 C 180.000 334.883,178.520 336.519,177.362 333.500 C 177.045 332.675,176.159 332.000,175.393 332.000 C 174.627 332.000,174.000 331.282,174.000 330.404 C 174.000 329.527,173.241 327.524,172.314 325.955 L 170.628 323.101 154.362 323.054 C 139.896 323.013,137.986 323.201,137.115 324.754 C 136.182 326.415,136.102 326.414,135.460 324.750 C 134.978 323.498,133.677 323.000,130.893 323.000 C 128.752 323.000,127.000 322.550,127.000 322.000 C 127.000 321.450,125.875 321.000,124.500 321.000 C 123.125 321.000,122.000 321.450,122.000 322.000 M271.000 322.000 C 271.000 322.550,269.313 323.014,267.250 323.032 C 263.578 323.063,260.000 324.834,260.000 326.620 C 260.000 327.114,259.100 328.081,258.000 328.768 C 256.900 329.455,256.000 330.945,256.000 332.080 C 256.000 333.215,255.325 334.818,254.500 335.643 C 253.675 336.468,253.000 338.204,253.000 339.500 C 253.000 340.796,253.675 342.532,254.500 343.357 C 255.325 344.182,256.000 345.856,256.000 347.078 C 256.000 349.564,261.482 355.383,264.823 356.444 C 266.020 356.824,267.000 357.554,267.000 358.067 C 267.000 359.731,278.712 359.193,279.362 357.500 C 279.678 356.675,281.024 356.000,282.352 356.000 C 283.987 356.000,284.988 355.273,285.451 353.750 C 286.167 351.393,286.435 351.731,287.432 356.250 C 288.921 363.002,294.995 359.328,295.006 351.668 L 295.012 347.500 296.506 350.364 C 297.328 351.940,298.000 353.852,298.000 354.614 C 298.000 355.376,298.689 356.000,299.531 356.000 C 300.374 356.000,301.322 356.675,301.638 357.500 C 302.796 360.518,309.983 359.456,310.100 356.250 L 310.199 353.500 310.893 356.000 C 312.538 361.928,341.000 359.406,341.000 353.332 C 341.000 352.114,341.392 350.876,341.871 350.580 C 342.350 350.284,343.014 348.682,343.346 347.021 C 344.154 342.980,347.000 342.925,347.000 346.950 C 347.000 348.573,347.632 350.260,348.404 350.700 C 349.176 351.140,349.963 352.545,350.154 353.821 C 350.982 359.378,358.145 360.312,360.487 355.168 C 361.833 352.211,362.639 352.446,363.350 356.000 C 363.852 358.511,364.426 359.000,366.868 359.000 C 370.760 359.000,371.000 358.067,371.000 342.918 C 371.000 331.259,371.744 327.666,373.417 331.250 C 373.883 332.250,374.117 332.250,374.583 331.250 C 376.245 327.690,377.000 331.226,377.000 342.566 C 377.000 357.032,377.649 359.000,382.419 359.000 C 386.650 359.000,386.933 358.035,387.102 343.000 C 387.174 336.675,387.438 332.288,387.689 333.250 C 387.941 334.212,388.564 335.000,389.073 335.000 C 389.583 335.000,390.000 336.323,390.000 337.941 C 390.000 339.559,390.450 341.160,391.000 341.500 C 391.550 341.840,392.000 343.409,392.000 344.988 C 392.000 346.566,392.675 348.532,393.500 349.357 C 394.325 350.182,395.000 351.527,395.000 352.347 C 395.000 354.926,396.162 357.000,397.607 357.000 C 398.373 357.000,399.000 357.450,399.000 358.000 C 399.000 358.550,400.042 359.000,401.315 359.000 C 403.872 359.000,407.000 353.813,407.000 349.573 C 407.000 348.276,407.643 346.967,408.430 346.665 C 409.216 346.363,410.168 344.065,410.544 341.558 C 411.662 334.099,412.999 336.368,413.014 345.750 C 413.035 359.491,412.663 359.000,423.035 359.000 C 434.351 359.000,435.000 358.723,435.000 353.893 L 435.000 350.000 429.000 350.000 L 423.000 350.000 423.000 347.000 L 423.000 344.000 429.000 344.000 L 435.000 344.000 435.000 339.500 L 435.000 335.000 429.000 335.000 C 424.333 335.000,423.000 334.667,423.000 333.500 C 423.000 332.385,424.175 332.000,427.571 332.000 C 432.945 332.000,435.000 330.360,435.000 326.071 L 435.000 323.000 420.061 323.000 L 405.123 323.000 404.458 327.433 C 404.092 329.871,403.165 332.107,402.397 332.401 C 401.628 332.696,400.948 333.964,400.884 335.219 C 400.798 336.912,400.650 337.049,400.311 335.750 C 400.059 334.788,399.436 334.000,398.927 334.000 C 398.417 334.000,398.000 332.853,398.000 331.450 C 398.000 330.048,397.327 327.600,396.505 326.010 L 395.010 323.119 375.444 323.045 L 355.878 322.972 356.189 326.733 C 356.451 329.906,357.047 330.760,360.000 332.199 C 361.925 333.137,362.938 333.926,362.250 333.952 C 361.351 333.986,360.971 336.601,360.895 343.250 C 360.800 351.671,360.687 352.186,359.635 349.000 C 359.000 347.075,357.922 344.517,357.240 343.316 C 356.558 342.114,356.000 340.234,356.000 339.137 C 356.000 338.040,355.325 336.468,354.500 335.643 C 353.675 334.818,353.000 333.166,353.000 331.973 C 353.000 330.779,352.274 328.272,351.386 326.401 C 348.379 320.065,338.000 322.535,338.000 329.587 C 338.000 331.316,337.100 333.874,336.000 335.273 C 334.900 336.671,334.000 338.955,334.000 340.349 C 334.000 341.742,333.550 343.160,333.000 343.500 C 332.450 343.840,332.001 345.554,332.002 347.309 L 332.004 350.500 326.002 350.161 C 320.118 349.829,320.000 349.765,320.000 346.911 C 320.000 344.020,320.041 344.000,326.000 344.000 L 332.000 344.000 332.000 339.500 L 332.000 335.000 326.000 335.000 C 321.333 335.000,320.000 334.667,320.000 333.500 C 320.000 332.385,321.175 332.000,324.571 332.000 C 329.956 332.000,332.000 330.360,332.000 326.038 L 332.000 322.932 321.250 323.216 C 310.962 323.488,310.486 323.597,310.180 325.750 C 309.781 328.563,309.644 328.553,306.591 325.500 C 303.516 322.425,287.000 321.582,287.000 324.500 C 287.000 325.325,286.605 326.000,286.122 326.000 C 285.640 326.000,284.685 325.325,284.000 324.500 C 283.315 323.675,281.235 323.000,279.378 323.000 C 277.520 323.000,276.000 322.550,276.000 322.000 C 276.000 321.450,274.875 321.000,273.500 321.000 C 272.125 321.000,271.000 321.450,271.000 322.000 M159.000 332.500 C 159.000 334.889,158.733 335.000,153.000 335.000 C 148.333 335.000,147.000 334.667,147.000 333.500 C 147.000 332.348,148.278 332.000,152.500 332.000 C 155.525 332.000,158.000 331.550,158.000 331.000 C 158.000 330.450,158.225 330.000,158.500 330.000 C 158.775 330.000,159.000 331.125,159.000 332.500 M128.558 333.094 C 128.930 333.696,130.980 334.021,133.117 333.817 C 136.572 333.488,137.000 333.692,137.000 335.666 C 137.000 337.562,136.381 337.930,132.750 338.193 L 128.500 338.500 128.186 342.886 C 127.770 348.698,124.128 352.383,122.638 348.500 C 122.322 347.675,121.201 347.000,120.148 347.000 C 116.818 347.000,115.696 337.099,118.655 333.829 C 120.499 331.791,127.435 331.276,128.558 333.094 M213.878 333.747 C 214.692 335.201,215.328 335.315,217.678 334.429 L 220.500 333.365 220.503 340.057 C 220.506 345.030,220.183 346.624,219.246 346.264 C 216.949 345.383,211.000 347.028,211.000 348.545 C 211.000 350.440,208.270 350.413,206.357 348.500 C 205.532 347.675,203.989 347.000,202.929 347.000 C 201.868 347.000,201.000 346.319,201.000 345.486 C 201.000 344.654,200.459 343.107,199.798 342.048 C 198.484 339.944,200.040 335.686,203.000 333.282 C 205.369 331.358,212.717 331.672,213.878 333.747 M278.523 333.217 C 282.108 334.176,283.491 334.174,285.037 333.209 C 286.920 332.033,287.000 332.279,286.999 339.242 L 286.999 346.500 281.863 346.576 C 278.281 346.629,276.358 347.158,275.504 348.326 C 274.039 350.329,273.405 350.394,271.364 348.750 C 259.453 339.157,263.984 329.329,278.523 333.217 M299.241 333.385 C 300.891 334.638,300.887 334.793,299.162 336.353 C 296.438 338.819,295.000 338.351,295.000 335.000 C 295.000 331.762,296.400 331.228,299.241 333.385 M310.000 346.000 C 310.000 351.469,308.541 352.553,306.920 348.288 C 306.173 346.326,306.227 344.945,307.113 343.288 C 309.042 339.684,310.000 340.584,310.000 346.000 M159.002 346.750 L 159.004 350.500 153.002 350.161 C 143.842 349.644,143.633 344.311,152.750 343.739 C 155.912 343.541,158.613 343.293,158.750 343.189 C 158.887 343.085,159.001 344.688,159.002 346.750 " stroke="none" fill-rule="evenodd"></path>
</g>
</svg>