<svg id="svg" xmlns="http://www.w3.org/2000/svg" xmlns:xlink="http://www.w3.org/1999/xlink" width="400" height="400" viewBox="0, 0, 400,400"><g id="svgg"><path id="path0" d="M44.632 155.484 L 44.692 176.774 65.865 176.834 L 87.038 176.894 87.038 155.544 L 87.038 134.194 65.805 134.194 L 44.572 134.194 44.632 155.484 M234.839 199.742 L 234.839 221.655 238.123 221.688 L 241.408 221.721 241.408 219.374 L 241.408 217.026 242.457 218.046 C 243.839 219.389,245.877 220.727,247.623 221.435 C 250.533 222.617,256.842 222.219,258.299 220.762 C 258.364 220.698,258.575 220.611,258.768 220.569 C 258.962 220.527,259.155 220.395,259.198 220.276 C 259.241 220.156,259.401 220.059,259.554 220.059 C 260.121 220.059,262.724 217.696,263.864 216.147 C 264.953 214.667,266.191 212.317,265.882 212.317 C 265.809 212.317,265.871 212.170,266.019 211.991 C 266.905 210.924,267.273 204.707,266.630 201.672 C 266.016 198.775,262.713 193.314,261.575 193.314 C 261.462 193.314,261.114 193.058,260.801 192.745 C 257.349 189.292,248.462 188.867,245.097 191.993 C 244.739 192.326,244.370 192.579,244.276 192.556 C 244.182 192.533,243.525 193.209,242.815 194.059 L 241.525 195.604 241.463 186.717 L 241.402 177.830 238.120 177.830 L 234.839 177.830 234.839 199.742 M393.431 186.393 C 393.431 191.103,393.385 194.956,393.329 194.956 C 393.273 194.956,392.621 194.328,391.879 193.560 C 391.138 192.793,390.456 192.212,390.364 192.269 C 390.271 192.326,390.137 192.219,390.065 192.032 C 389.917 191.647,387.769 190.496,387.008 190.393 C 386.734 190.356,386.299 190.233,386.041 190.119 C 384.328 189.363,378.772 190.069,376.207 191.369 C 373.896 192.540,369.984 196.051,370.343 196.632 C 370.412 196.742,370.358 196.833,370.225 196.833 C 369.921 196.833,369.234 198.129,369.433 198.328 C 369.513 198.409,369.461 198.475,369.315 198.475 C 367.749 198.475,367.283 207.997,368.651 212.041 C 369.555 214.714,374.166 220.634,374.827 219.972 C 374.893 219.906,375.158 220.049,375.417 220.289 C 378.958 223.589,388.401 222.491,392.204 218.337 C 393.491 216.932,393.431 216.876,393.431 219.472 L 393.431 221.701 396.716 221.701 L 400.000 221.701 400.000 199.765 L 400.000 177.830 396.716 177.830 L 393.431 177.830 393.431 186.393 M44.575 200.000 L 44.575 221.466 65.806 221.466 L 87.038 221.466 87.038 200.000 L 87.038 178.534 65.806 178.534 L 44.575 178.534 44.575 200.000 M38.592 179.115 C 34.686 179.670,30.064 180.827,27.801 181.815 C -1.392 194.560,-9.213 228.833,11.793 251.965 C 22.918 264.215,42.900 269.249,57.478 263.474 C 58.059 263.244,59.167 262.815,59.941 262.521 C 62.899 261.397,66.555 259.291,70.540 256.417 C 71.869 255.459,75.729 251.573,77.385 249.527 C 79.125 247.378,82.581 242.025,82.581 241.479 C 82.581 241.404,82.781 240.908,83.026 240.378 C 85.343 235.364,86.978 228.628,87.032 223.871 L 87.038 223.343 65.256 223.343 C 44.477 223.343,43.457 223.323,43.087 222.915 C 42.735 222.525,42.695 220.564,42.641 200.687 L 42.581 178.886 41.642 178.850 C 41.126 178.830,39.754 178.949,38.592 179.115 M125.051 195.168 C 125.030 211.533,125.040 211.414,123.518 213.192 C 120.776 216.396,115.402 216.078,111.491 212.481 C 110.620 211.680,110.453 211.792,108.535 214.475 L 106.697 217.044 107.249 217.634 C 113.387 224.191,126.358 223.343,130.139 216.139 C 131.978 212.634,132.082 211.481,132.082 194.587 L 132.082 180.411 128.576 180.411 L 125.069 180.411 125.051 195.168 M191.059 190.129 C 188.407 190.733,185.727 192.479,184.360 194.494 C 183.279 196.088,183.226 196.016,183.226 192.962 L 183.226 190.264 179.941 190.264 L 176.657 190.264 176.657 205.989 L 176.657 221.714 179.883 221.649 L 183.109 221.584 183.240 212.082 C 183.327 205.829,183.465 202.309,183.644 201.785 C 183.794 201.347,183.860 200.898,183.792 200.788 C 183.723 200.677,183.762 200.587,183.878 200.587 C 184.082 200.587,184.598 199.666,184.543 199.400 C 184.492 199.153,186.991 197.071,187.865 196.632 C 189.988 195.565,193.368 195.395,195.035 196.270 C 195.443 196.484,196.014 196.778,196.303 196.922 C 196.592 197.067,196.830 197.274,196.831 197.383 C 196.832 197.492,197.028 197.862,197.267 198.204 C 198.511 199.989,198.558 200.441,198.655 211.447 L 198.745 221.720 202.000 221.688 L 205.255 221.655 205.328 211.649 C 205.409 200.408,205.380 200.601,207.309 198.466 C 210.490 194.945,216.918 194.727,219.430 198.056 C 221.003 200.140,221.232 202.044,221.232 213.073 L 221.232 221.701 224.457 221.701 L 227.683 221.700 227.658 210.733 C 227.624 195.970,226.942 193.741,221.640 191.054 C 217.660 189.037,209.378 189.856,207.774 192.425 C 207.630 192.656,207.396 192.845,207.253 192.845 C 207.111 192.845,206.323 193.544,205.502 194.400 C 204.680 195.255,203.976 195.862,203.937 195.749 C 203.666 194.961,202.403 193.089,202.219 193.202 C 202.095 193.279,201.994 193.199,201.994 193.024 C 201.994 191.044,195.081 189.214,191.059 190.129 M285.179 190.043 C 282.831 190.436,279.653 191.738,278.915 192.609 C 278.705 192.857,278.469 192.995,278.391 192.917 C 278.216 192.742,274.721 196.250,274.721 196.600 C 274.721 196.739,274.526 197.062,274.287 197.319 C 270.618 201.257,271.130 211.610,275.214 216.089 C 275.735 216.659,276.233 217.241,276.321 217.381 C 276.638 217.886,279.490 220.039,279.684 219.919 C 279.793 219.852,279.883 219.898,279.883 220.023 C 279.883 220.390,283.153 221.644,284.906 221.949 C 288.555 222.585,296.305 221.460,296.305 220.295 C 296.305 220.208,296.445 220.137,296.616 220.137 C 297.341 220.137,301.356 216.729,301.175 216.268 C 301.142 216.182,301.406 215.884,301.762 215.604 C 302.118 215.324,302.349 214.997,302.276 214.879 C 302.202 214.760,302.249 214.663,302.379 214.663 C 303.356 214.663,304.830 209.443,304.830 205.982 C 304.830 195.575,295.814 188.263,285.179 190.043 M363.166 189.971 C 363.166 190.067,362.799 190.165,362.351 190.188 C 360.534 190.281,356.691 193.059,355.271 195.308 C 354.315 196.821,354.252 196.699,354.252 193.307 L 354.252 190.251 351.069 190.316 L 347.886 190.381 347.910 205.861 C 347.922 214.375,348.017 221.425,348.121 221.528 C 348.224 221.631,349.619 221.686,351.222 221.650 L 354.135 221.584 354.265 213.607 C 354.412 204.651,354.595 203.327,356.028 200.902 C 357.587 198.265,359.633 196.925,362.734 196.509 L 364.575 196.263 364.575 193.029 L 364.575 189.795 363.871 189.795 C 363.484 189.795,363.167 189.874,363.166 189.971 M149.912 190.627 C 134.670 193.914,134.237 217.805,149.347 221.821 C 153.902 223.032,160.878 220.903,162.884 217.689 C 163.394 216.873,163.519 217.225,163.519 219.472 L 163.519 221.701 166.745 221.701 L 169.971 221.701 169.967 206.041 L 169.964 190.381 160.700 190.340 C 153.510 190.308,151.096 190.372,149.912 190.627 M321.877 190.419 C 304.787 193.077,305.086 220.000,322.229 222.139 C 324.630 222.439,328.595 221.753,329.459 220.889 C 329.645 220.702,329.863 220.616,329.943 220.695 C 330.023 220.775,330.088 220.700,330.088 220.528 C 330.088 220.356,330.155 220.282,330.237 220.365 C 330.447 220.574,331.630 219.728,333.073 218.336 C 334.567 216.895,334.596 216.918,334.567 219.579 L 334.544 221.715 337.653 221.649 L 340.762 221.584 340.823 205.924 L 340.883 190.264 331.673 190.296 C 326.608 190.313,322.199 190.369,321.877 190.419 M163.513 201.466 C 163.505 210.586,162.320 213.490,157.719 215.669 C 148.278 220.141,140.352 206.953,147.452 198.585 C 149.643 196.002,151.469 195.474,158.299 195.446 L 163.519 195.425 163.513 201.466 M253.841 196.011 C 254.394 196.206,255.227 196.602,255.693 196.891 C 256.159 197.180,256.627 197.388,256.733 197.353 C 256.839 197.319,256.863 197.393,256.785 197.519 C 256.654 197.731,257.543 198.386,257.849 198.303 C 257.925 198.283,257.988 198.393,257.989 198.547 C 257.991 198.701,258.329 199.323,258.741 199.929 C 264.965 209.098,254.566 220.854,245.568 214.822 C 241.145 211.857,239.826 204.504,242.905 199.973 C 243.231 199.493,243.434 198.996,243.355 198.869 C 243.276 198.741,243.310 198.698,243.431 198.772 C 243.551 198.847,244.063 198.491,244.569 197.982 C 246.840 195.698,250.655 194.887,253.841 196.011 M334.503 201.935 L 334.422 208.446 333.761 209.971 C 333.397 210.809,333.090 211.628,333.079 211.789 C 333.069 211.950,332.954 212.082,332.825 212.082 C 332.696 212.082,332.650 212.142,332.724 212.215 C 332.797 212.289,332.155 212.996,331.297 213.788 C 330.438 214.579,329.683 215.284,329.619 215.355 C 329.554 215.426,329.396 215.510,329.267 215.541 C 329.138 215.572,328.399 215.822,327.625 216.095 C 325.028 217.012,321.125 216.214,319.401 214.415 C 319.046 214.044,318.666 213.796,318.556 213.864 C 318.447 213.931,318.358 213.838,318.358 213.657 C 318.358 213.476,318.161 213.149,317.919 212.931 C 317.294 212.366,316.059 209.580,315.780 208.107 C 315.363 205.912,315.452 205.072,316.501 201.290 C 316.554 201.097,316.657 200.886,316.728 200.821 C 316.799 200.757,317.095 200.313,317.386 199.834 C 319.498 196.358,321.887 195.482,329.345 195.449 L 334.584 195.425 334.503 201.935 M385.691 195.660 C 396.517 197.713,395.814 215.432,384.867 216.444 C 376.989 217.173,371.724 208.500,375.458 200.945 C 376.157 199.529,377.925 197.302,378.349 197.302 C 378.411 197.302,378.742 197.110,379.084 196.875 C 380.821 195.683,383.355 195.217,385.691 195.660 M291.710 196.140 C 297.960 198.070,300.538 207.026,296.402 212.444 C 295.962 213.021,295.601 213.598,295.601 213.726 C 295.601 213.854,295.456 213.959,295.278 213.959 C 295.100 213.959,294.810 214.134,294.633 214.348 C 292.139 217.362,284.566 216.940,281.216 213.601 C 273.457 205.866,281.244 192.907,291.710 196.140 " stroke="none" fill="#000000" fill-rule="evenodd"></path></g></svg>