<svg id="svg" version="1.1" width="400" height="400" xmlns="http://www.w3.org/2000/svg" xmlns:xlink="http://www.w3.org/1999/xlink" style="display: block;"><g id="svgg"><path id="path0" d="M239.450 1.730 C 239.815 2.682,240.550 6.938,241.083 11.188 C 244.210 36.125,231.561 57.754,198.927 83.273 C 192.054 88.648,185.321 94.056,183.965 95.291 C 182.609 96.526,176.921 101.461,171.325 106.258 C 133.570 138.623,137.458 161.040,189.500 211.035 C 204.832 225.764,204.902 221.745,189.704 199.274 C 165.046 162.815,163.730 152.093,180.806 126.788 C 185.881 119.267,191.220 114.110,203.000 105.353 C 245.426 73.814,264.174 25.534,243.231 1.750 C 241.189 -0.569,238.562 -0.583,239.450 1.730 M282.000 82.661 C 207.358 107.585,181.825 145.564,212.948 185.371 C 227.282 203.703,227.992 218.743,215.076 230.431 C 209.566 235.418,213.619 235.012,221.280 229.810 C 249.445 210.684,253.812 193.435,236.557 169.477 C 223.917 151.926,221.888 143.817,227.431 133.000 C 230.615 126.788,243.465 113.531,252.000 107.654 C 260.339 101.911,275.633 91.953,283.750 86.981 C 293.542 80.983,292.766 79.066,282.000 82.661 M301.233 217.384 C 295.850 218.751,292.000 221.326,292.000 223.560 C 292.000 224.530,293.289 224.472,297.750 223.300 C 320.791 217.246,336.669 236.952,325.899 258.233 C 321.541 266.843,297.967 286.540,285.750 291.778 C 280.181 294.166,283.756 296.184,289.612 293.958 C 291.120 293.384,295.682 292.023,299.751 290.933 C 341.488 279.748,362.360 241.512,337.203 222.325 C 329.900 216.754,312.904 214.419,301.233 217.384 M135.274 220.064 C 108.813 223.506,80.230 236.955,84.081 244.151 C 89.434 254.153,167.782 259.389,223.000 253.437 C 245.738 250.985,265.516 246.949,271.294 243.581 C 273.607 242.232,278.200 239.785,281.500 238.141 C 290.191 233.813,287.067 233.410,267.841 236.380 C 204.412 246.177,122.284 247.277,114.939 238.427 C 112.623 235.636,125.179 229.434,145.187 223.486 C 150.515 221.902,154.651 220.244,154.378 219.803 C 153.774 218.825,143.746 218.961,135.274 220.064 M131.667 266.473 C 77.043 288.679,162.820 308.157,246.127 292.464 C 272.230 287.547,274.339 286.571,266.420 283.068 C 263.902 281.954,260.061 279.632,257.885 277.909 L 253.930 274.776 244.715 276.392 C 220.914 280.566,214.553 281.196,191.500 281.659 C 145.060 282.593,127.439 278.458,136.693 268.798 C 140.707 264.609,138.624 263.645,131.667 266.473 M143.500 309.461 C 128.628 313.957,123.247 322.076,130.752 328.694 C 151.199 346.724,220.168 347.808,259.123 330.713 L 264.165 328.500 252.789 322.625 L 241.413 316.750 229.457 318.892 C 188.158 326.290,132.952 321.283,146.509 311.369 C 149.437 309.229,147.768 308.171,143.500 309.461 M94.500 338.161 C 69.121 342.918,48.277 355.756,52.346 364.125 C 56.853 373.398,116.345 381.336,181.500 381.359 C 274.275 381.391,349.000 361.547,326.603 342.825 C 323.810 340.489,321.559 340.448,322.506 342.750 C 324.315 347.143,324.180 348.203,321.447 351.055 C 317.948 354.707,311.779 357.052,296.871 360.396 C 285.404 362.967,279.282 363.657,243.000 366.466 C 161.279 372.793,65.294 364.203,81.000 351.968 C 86.262 347.869,107.227 341.273,115.750 341.035 C 118.421 340.960,116.813 339.042,113.250 338.053 C 108.808 336.819,101.432 336.861,94.500 338.161 M345.513 362.979 C 339.090 373.371,288.792 386.425,237.500 391.011 C 199.724 394.389,127.123 392.336,107.156 387.324 C 102.510 386.158,105.456 389.423,111.074 391.667 C 131.264 399.730,229.538 403.391,271.000 397.625 C 319.400 390.893,343.515 380.638,348.040 364.861 C 348.859 362.005,346.980 360.606,345.513 362.979 " stroke="none" fill="#000000" fill-rule="evenodd"></path></g></svg>