<svg id="svg" version="1.1" width="400" height="400" xmlns="http://www.w3.org/2000/svg" xmlns:xlink="http://www.w3.org/1999/xlink" style="display: block;"><g id="svgg"><path id="path0" d="M117.000 61.559 C 117.000 62.416,117.419 62.859,117.931 62.542 C 118.479 62.204,118.880 65.681,118.905 70.983 C 118.930 76.197,118.537 80.000,117.974 80.000 C 117.438 80.000,117.000 81.538,117.000 83.417 C 117.000 85.296,116.662 86.983,116.250 87.167 C 115.838 87.350,114.256 89.412,112.736 91.750 C 111.216 94.088,109.528 96.000,108.986 96.000 C 108.444 96.000,108.000 96.707,108.000 97.571 C 108.000 99.434,105.507 102.173,104.619 101.286 C 104.279 100.945,104.000 101.443,104.000 102.392 C 104.000 103.341,103.589 103.864,103.086 103.553 C 102.583 103.242,99.469 105.691,96.166 108.994 C 92.863 112.297,89.422 115.000,88.521 115.000 C 87.620 115.000,87.160 115.450,87.500 116.000 C 87.840 116.550,87.416 117.000,86.559 117.000 C 85.702 117.000,85.000 117.477,85.000 118.059 C 85.000 118.641,84.597 118.869,84.105 118.565 C 83.612 118.260,82.941 118.712,82.612 119.569 C 82.278 120.440,81.502 120.810,80.853 120.409 C 80.175 119.990,79.959 120.125,80.336 120.734 C 81.117 121.998,74.574 127.208,73.463 126.207 C 73.032 125.818,72.971 126.010,73.327 126.634 C 73.683 127.257,72.405 129.108,70.487 130.746 C 68.569 132.384,67.000 134.462,67.000 135.362 C 67.000 136.263,66.562 137.000,66.026 137.000 C 60.800 137.000,60.273 160.802,65.416 164.562 C 66.287 165.199,67.000 166.293,67.000 166.993 C 67.000 167.693,67.972 169.109,69.160 170.139 C 70.349 171.170,71.023 172.311,70.658 172.675 C 69.793 173.541,72.936 177.000,74.588 177.000 C 75.290 177.000,76.151 177.900,76.500 179.000 C 76.849 180.100,77.629 181.000,78.234 181.000 C 78.839 181.000,79.085 181.248,78.782 181.551 C 78.058 182.275,83.276 187.704,84.250 187.240 C 84.662 187.043,85.000 187.584,85.000 188.441 C 85.000 189.298,85.702 190.000,86.559 190.000 C 87.416 190.000,87.840 190.450,87.500 191.000 C 87.160 191.550,87.709 192.000,88.720 192.000 C 89.731 192.000,91.207 192.900,92.000 194.000 C 94.003 196.779,96.000 196.500,96.000 193.441 C 96.000 191.990,95.567 191.149,95.000 191.500 C 94.450 191.840,94.000 191.416,94.000 190.559 C 94.000 189.702,93.550 189.000,93.000 189.000 C 92.450 189.000,92.000 188.100,92.000 187.000 C 92.000 185.900,91.523 185.000,90.941 185.000 C 90.359 185.000,90.160 184.550,90.500 184.000 C 90.840 183.450,90.416 183.000,89.559 183.000 C 88.702 183.000,88.000 182.532,88.000 181.961 C 88.000 181.389,86.425 178.582,84.500 175.724 C 82.575 172.865,81.000 169.932,81.000 169.204 C 81.000 168.477,80.550 168.160,80.000 168.500 C 79.450 168.840,79.000 168.191,79.000 167.059 C 79.000 165.927,78.550 165.000,78.000 165.000 C 77.412 165.000,77.000 161.500,77.000 156.500 C 77.000 151.500,77.412 148.000,78.000 148.000 C 78.550 148.000,79.000 147.100,79.000 146.000 C 79.000 144.900,79.450 144.000,80.000 144.000 C 80.550 144.000,81.000 143.323,81.000 142.497 C 81.000 140.899,95.789 125.654,97.704 125.278 C 98.893 125.044,109.260 114.472,109.833 112.908 C 110.017 112.409,110.831 112.000,111.642 112.000 C 112.454 112.000,112.840 111.550,112.500 111.000 C 112.160 110.450,112.531 110.000,113.324 110.000 C 114.118 110.000,115.014 109.055,115.316 107.899 C 115.666 106.563,116.310 106.073,117.087 106.554 C 117.784 106.984,118.052 106.893,117.711 106.342 C 116.939 105.093,120.418 99.751,121.378 100.711 C 121.778 101.112,121.831 100.723,121.495 99.848 C 121.160 98.974,121.564 97.578,122.395 96.748 C 123.225 95.918,123.626 94.960,123.286 94.619 C 122.945 94.279,123.079 93.998,123.583 93.996 C 124.087 93.993,124.588 92.314,124.695 90.264 C 124.802 88.214,125.365 86.378,125.945 86.185 C 126.551 85.983,127.000 82.861,127.000 78.858 C 127.000 73.873,126.673 72.084,125.855 72.590 C 125.066 73.077,124.866 72.483,125.211 70.679 C 125.486 69.239,125.405 68.250,125.031 68.481 C 124.657 68.712,123.378 66.899,122.188 64.451 C 120.088 60.128,117.000 58.407,117.000 61.559 M141.821 111.828 C 139.247 112.747,136.810 113.838,136.404 114.250 C 135.998 114.662,134.617 115.000,133.333 115.000 C 132.050 115.000,131.000 115.450,131.000 116.000 C 131.000 116.550,129.875 117.000,128.500 117.000 C 127.125 117.000,126.000 117.498,126.000 118.107 C 126.000 118.716,125.337 118.960,124.526 118.649 C 123.711 118.336,122.628 118.842,122.101 119.783 C 121.578 120.718,120.844 121.177,120.469 120.802 C 120.094 120.428,118.682 121.228,117.329 122.580 C 115.977 123.932,114.450 124.778,113.935 124.460 C 113.421 124.142,113.000 124.262,113.000 124.725 C 113.000 125.189,111.763 126.308,110.250 127.211 C 100.620 132.960,95.076 141.808,94.118 152.957 C 93.743 157.324,93.633 160.700,93.875 160.459 C 94.116 160.217,95.108 162.366,96.079 165.234 C 97.050 168.102,98.329 170.610,98.922 170.807 C 99.515 171.005,100.000 171.849,100.000 172.682 C 100.000 173.516,101.350 175.459,103.000 177.000 C 104.650 178.541,106.000 180.522,106.000 181.401 C 106.000 182.281,106.498 183.000,107.107 183.000 C 107.716 183.000,107.946 183.698,107.618 184.552 C 107.277 185.442,107.445 185.843,108.011 185.493 C 108.597 185.131,109.000 186.445,109.000 188.718 C 109.000 192.409,107.591 195.305,103.785 199.439 C 100.693 202.796,101.373 205.375,104.873 203.566 C 106.453 202.748,108.028 202.287,108.373 202.540 C 108.718 202.793,108.781 202.706,108.513 202.347 C 107.943 201.581,113.530 197.284,116.195 196.438 C 117.204 196.118,117.793 195.475,117.505 195.009 C 117.217 194.543,117.661 193.482,118.491 192.652 C 119.321 191.822,120.000 190.634,120.000 190.012 C 120.000 189.391,120.461 189.167,121.025 189.515 C 121.588 189.864,121.985 189.778,121.906 189.324 C 121.558 187.319,122.066 184.923,122.750 185.345 C 123.162 185.600,123.500 182.745,123.500 179.000 C 123.500 175.110,123.106 172.435,122.580 172.760 C 122.071 173.074,121.954 172.562,122.319 171.612 C 122.762 170.456,122.599 170.130,121.819 170.612 C 121.038 171.095,120.875 170.769,121.319 169.612 C 121.733 168.533,121.585 168.138,120.921 168.549 C 120.341 168.908,119.618 168.256,119.316 167.101 C 119.014 165.945,118.294 165.000,117.717 165.000 C 117.139 165.000,116.958 164.708,117.315 164.352 C 117.672 163.995,117.003 162.870,115.829 161.852 C 114.655 160.833,114.100 159.986,114.597 159.968 C 115.094 159.951,114.667 159.306,113.650 158.535 C 112.632 157.764,112.079 156.681,112.421 156.128 C 112.763 155.575,112.426 154.758,111.672 154.311 C 110.056 153.354,108.542 148.000,109.887 148.000 C 110.396 148.000,110.577 147.100,110.290 146.000 C 109.997 144.882,110.259 144.000,110.883 144.000 C 111.498 144.000,112.000 143.100,112.000 142.000 C 112.000 140.889,112.667 140.000,113.500 140.000 C 114.325 140.000,115.000 139.514,115.000 138.921 C 115.000 137.482,123.533 129.000,124.980 129.000 C 125.606 129.000,125.840 128.550,125.500 128.000 C 125.160 127.450,125.499 127.000,126.252 127.000 C 127.006 127.000,128.589 126.100,129.770 125.000 C 130.950 123.900,132.562 123.000,133.351 123.000 C 134.140 123.000,135.063 122.278,135.401 121.396 C 135.795 120.370,136.633 120.029,137.728 120.449 C 138.669 120.810,139.118 120.785,138.726 120.393 C 137.684 119.351,141.796 116.756,143.156 117.597 C 143.832 118.014,144.039 117.872,143.656 117.252 C 143.297 116.671,144.577 115.267,146.501 114.132 C 153.116 110.229,150.246 108.816,141.821 111.828 M233.000 139.103 C 233.000 139.774,231.833 140.056,230.104 139.802 C 227.863 139.473,227.335 139.710,227.772 140.849 C 228.197 141.955,227.797 142.180,226.167 141.754 C 224.775 141.390,224.233 141.568,224.655 142.251 C 225.075 142.930,224.545 143.114,223.191 142.760 C 222.023 142.455,221.106 142.496,221.153 142.853 C 221.438 145.048,220.813 146.142,219.551 145.658 C 218.579 145.285,218.286 145.582,218.662 146.562 C 219.046 147.562,218.746 147.840,217.712 147.443 C 216.882 147.124,215.862 147.414,215.447 148.086 C 214.963 148.868,215.107 149.052,215.845 148.595 C 216.480 148.203,217.000 148.359,217.000 148.941 C 217.000 149.523,216.539 150.000,215.975 150.000 C 215.412 150.000,214.523 151.125,214.000 152.500 C 213.477 153.875,212.594 155.000,212.037 155.000 C 211.479 155.000,210.732 156.825,210.375 159.055 C 209.964 161.627,209.286 162.940,208.520 162.646 C 207.701 162.332,207.470 163.006,207.801 164.740 C 208.137 166.495,207.931 167.075,207.145 166.590 C 206.348 166.097,206.000 167.286,206.000 170.500 C 206.000 173.736,205.655 174.905,204.845 174.405 C 204.110 173.950,203.963 174.132,204.441 174.905 C 205.619 176.811,203.989 190.210,202.642 189.693 C 201.863 189.393,201.612 190.645,201.851 193.635 C 202.127 197.078,201.902 197.900,200.798 197.476 C 199.707 197.057,199.490 197.755,199.822 200.605 C 200.074 202.756,199.860 204.032,199.306 203.689 C 198.775 203.361,198.516 204.284,198.715 205.803 C 199.195 209.471,197.580 217.541,196.409 217.327 C 195.888 217.232,195.637 218.988,195.851 221.230 C 196.150 224.375,195.927 225.186,194.870 224.780 C 193.805 224.371,193.580 225.257,193.861 228.755 C 194.136 232.193,193.923 233.070,192.956 232.473 C 192.113 231.952,191.940 232.094,192.437 232.899 C 193.681 234.911,191.988 246.209,190.526 245.648 C 189.580 245.285,189.393 246.311,189.781 249.746 C 190.192 253.397,190.013 254.221,188.899 253.802 C 187.792 253.385,187.463 254.756,187.321 260.364 C 187.221 264.358,186.675 267.608,186.071 267.810 C 185.482 268.006,185.000 269.731,185.000 271.642 C 185.000 273.705,184.593 274.867,184.000 274.500 C 183.408 274.134,183.000 275.272,183.000 277.288 C 183.000 282.205,176.061 289.005,172.456 287.621 C 171.598 287.292,171.149 287.431,171.457 287.931 C 172.869 290.215,144.828 296.157,125.750 297.617 C 120.937 297.986,117.000 298.672,117.000 299.143 C 117.000 299.615,103.248 300.000,86.441 300.000 C 66.323 300.000,56.093 299.658,56.500 299.000 C 56.866 298.408,55.726 298.000,53.706 298.000 C 51.829 298.000,47.595 297.718,44.296 297.373 C 38.757 296.794,38.257 296.909,37.743 298.875 C 37.437 300.045,37.518 300.798,37.923 300.548 C 38.327 300.298,40.832 300.747,43.488 301.546 C 46.145 302.346,49.596 303.000,51.159 303.000 C 52.722 303.000,54.003 303.337,54.006 303.750 C 54.033 307.318,132.968 305.461,153.242 301.416 C 157.500 300.567,161.507 300.195,162.146 300.590 C 162.787 300.986,163.042 300.877,162.714 300.346 C 162.387 299.816,164.211 298.824,166.767 298.140 C 173.059 296.457,178.102 293.975,177.432 292.890 C 177.130 292.401,177.643 292.000,178.574 292.000 C 180.808 292.000,184.006 288.221,184.697 284.764 L 185.250 282.000 198.066 282.000 C 205.668 282.000,211.137 281.587,211.510 280.984 C 211.856 280.425,212.453 280.162,212.838 280.400 C 213.222 280.637,213.374 279.122,213.175 277.033 C 212.975 274.944,213.304 272.930,213.906 272.558 C 214.508 272.186,215.000 270.307,215.000 268.382 C 215.000 266.457,215.356 265.102,215.791 265.371 C 216.226 265.640,216.402 264.316,216.182 262.430 C 215.938 260.344,216.216 259.000,216.891 259.000 C 217.521 259.000,218.000 257.247,218.000 254.941 C 218.000 252.709,218.346 251.096,218.768 251.357 C 219.191 251.618,219.363 250.010,219.151 247.784 C 218.883 244.979,219.108 243.949,219.882 244.427 C 220.644 244.898,221.000 243.648,221.000 240.500 C 221.000 237.960,221.356 236.102,221.791 236.371 C 222.226 236.640,222.402 235.316,222.182 233.430 C 221.938 231.344,222.216 230.000,222.891 230.000 C 223.501 230.000,224.000 228.875,224.000 227.500 L 224.000 225.000 261.883 225.000 L 299.767 225.000 300.256 222.442 C 300.632 220.472,300.402 220.016,299.252 220.457 C 298.131 220.887,297.897 220.503,298.312 218.916 C 298.616 217.753,298.594 217.073,298.263 217.403 C 297.425 218.242,294.000 214.982,294.000 213.345 C 294.000 212.605,293.502 212.000,292.893 212.000 C 292.284 212.000,292.054 211.302,292.382 210.448 C 292.723 209.558,292.555 209.157,291.989 209.507 C 291.445 209.843,291.000 209.594,291.000 208.953 C 291.000 208.312,289.839 206.874,288.419 205.758 C 286.753 204.447,286.011 203.066,286.326 201.862 C 286.594 200.837,286.437 200.230,285.976 200.515 C 285.515 200.800,284.856 200.575,284.510 200.016 C 284.110 199.369,274.111 199.000,256.941 199.000 C 230.409 199.000,230.000 198.969,230.000 196.941 C 230.000 195.809,230.338 195.091,230.750 195.346 C 231.162 195.600,231.337 193.759,231.137 191.254 C 230.854 187.698,231.077 186.815,232.152 187.228 C 233.216 187.637,233.443 186.845,233.147 183.747 C 232.933 181.499,233.164 179.983,233.673 180.298 C 234.178 180.610,234.404 179.333,234.182 177.430 C 233.952 175.460,234.225 174.000,234.824 174.000 C 235.398 174.000,236.010 172.762,236.184 171.250 C 236.401 169.357,237.042 168.543,238.239 168.637 C 239.196 168.712,239.774 168.443,239.523 168.038 C 237.902 165.415,244.612 164.950,280.167 165.221 C 300.334 165.374,316.780 165.275,316.714 165.000 C 316.156 162.687,319.574 145.006,320.510 145.365 C 321.302 145.669,321.471 144.682,321.060 142.152 L 320.466 138.500 276.733 138.239 C 244.873 138.050,233.000 138.284,233.000 139.103 M296.750 174.748 C 281.342 175.044,277.851 175.936,282.016 178.510 C 282.575 178.856,282.774 179.557,282.457 180.069 C 282.141 180.581,282.407 181.000,283.048 181.000 C 283.691 181.000,283.947 181.696,283.618 182.552 C 283.277 183.442,283.445 183.843,284.011 183.493 C 284.555 183.157,285.056 183.359,285.125 183.941 C 285.194 184.523,285.316 185.563,285.397 186.250 C 285.479 186.938,286.288 187.376,287.197 187.224 C 288.946 186.931,290.571 190.268,289.513 191.980 C 289.155 192.558,289.553 192.725,290.459 192.377 C 291.648 191.921,291.862 192.223,291.352 193.639 C 290.983 194.662,291.038 195.178,291.473 194.784 C 292.582 193.782,296.305 198.763,295.675 200.405 C 295.363 201.217,295.806 201.702,296.791 201.626 C 297.689 201.557,298.606 202.389,298.828 203.475 C 299.051 204.561,299.929 205.959,300.779 206.580 C 301.726 207.273,302.064 208.391,301.651 209.467 C 301.138 210.805,301.363 211.075,302.600 210.600 C 303.718 210.171,304.057 210.409,303.690 211.364 C 303.359 212.228,303.789 212.704,304.829 212.626 C 306.047 212.534,306.500 213.313,306.500 215.500 C 306.500 217.888,306.885 218.434,308.386 218.175 C 309.841 217.924,310.153 218.308,309.749 219.850 C 309.384 221.247,309.632 221.695,310.571 221.334 C 311.405 221.014,312.158 221.782,312.552 223.352 C 313.298 226.322,312.337 228.343,310.512 227.643 C 309.664 227.318,309.390 227.776,309.708 228.990 C 310.245 231.046,305.805 234.616,304.055 233.534 C 303.438 233.153,303.264 233.524,303.623 234.459 C 304.075 235.638,303.786 235.855,302.447 235.341 C 301.170 234.851,300.891 235.015,301.454 235.925 C 302.489 237.600,299.975 242.204,298.363 241.586 C 297.583 241.286,297.314 241.654,297.658 242.551 C 298.152 243.838,296.979 244.470,294.750 244.118 C 294.337 244.053,294.053 244.337,294.118 244.750 C 294.470 246.979,293.838 248.152,292.551 247.658 C 291.582 247.286,291.286 247.582,291.658 248.551 C 292.152 249.838,290.979 250.470,288.750 250.118 C 288.337 250.053,288.053 250.337,288.118 250.750 C 288.483 253.058,287.844 254.154,286.448 253.618 C 285.594 253.291,285.131 253.402,285.417 253.866 C 286.149 255.050,281.535 259.185,280.515 258.259 C 280.056 257.842,279.963 257.997,280.309 258.605 C 280.655 259.212,279.841 260.740,278.500 262.000 C 277.159 263.260,276.280 264.645,276.548 265.077 C 277.171 266.086,272.942 269.082,271.848 268.406 C 271.394 268.126,271.259 268.510,271.547 269.261 C 272.181 270.914,268.794 274.199,266.875 273.792 C 266.082 273.624,265.611 274.185,265.763 275.117 C 265.908 276.006,265.345 277.298,264.513 277.989 C 263.681 278.680,263.000 279.865,263.000 280.622 C 263.000 282.749,296.517 282.626,298.652 280.491 C 299.482 279.661,300.570 279.234,301.069 279.543 C 301.569 279.851,301.741 279.490,301.453 278.739 C 300.767 276.952,304.509 273.578,306.091 274.557 C 306.819 275.006,307.051 274.892,306.668 274.272 C 305.724 272.745,309.977 267.777,311.672 268.428 C 312.460 268.730,312.862 268.585,312.566 268.106 C 311.696 266.699,316.085 261.819,317.672 262.428 C 318.501 262.746,318.835 262.542,318.466 261.945 C 317.616 260.569,320.817 255.769,322.069 256.542 C 322.608 256.876,322.926 256.553,322.775 255.824 C 322.624 255.096,323.096 254.624,323.824 254.775 C 324.553 254.926,324.904 254.654,324.605 254.170 C 324.306 253.686,325.211 252.213,326.615 250.895 L 329.168 248.500 331.643 251.375 C 333.004 252.956,333.872 254.891,333.571 255.677 C 333.267 256.468,333.463 256.832,334.011 256.493 C 334.555 256.157,335.056 256.359,335.125 256.941 C 335.194 257.523,335.306 258.412,335.375 258.917 C 335.444 259.421,335.910 260.208,336.410 260.667 C 336.948 261.159,336.993 260.935,336.521 260.120 C 335.972 259.173,336.157 258.893,337.111 259.228 C 337.875 259.496,338.438 260.449,338.363 261.347 C 338.287 262.248,338.694 262.689,339.270 262.333 C 339.924 261.929,340.111 262.467,339.771 263.769 C 339.377 265.273,339.614 265.702,340.625 265.314 C 341.636 264.926,341.837 265.292,341.352 266.639 C 340.983 267.662,341.038 268.178,341.473 267.784 C 342.647 266.723,346.286 271.811,345.612 273.570 C 345.216 274.601,345.570 274.988,346.730 274.790 C 347.747 274.616,348.585 275.272,348.821 276.427 C 349.987 282.133,383.000 285.585,383.000 280.000 C 383.000 278.900,382.523 278.000,381.941 278.000 C 381.359 278.000,381.179 277.520,381.541 276.933 C 381.904 276.347,381.407 275.287,380.438 274.578 C 379.313 273.756,378.919 272.654,379.349 271.533 C 379.840 270.253,379.627 269.929,378.562 270.338 C 377.618 270.700,377.285 270.421,377.620 269.549 C 377.947 268.696,377.468 268.255,376.319 268.350 C 375.047 268.455,374.522 267.839,374.574 266.300 C 374.615 265.082,374.204 264.374,373.654 264.714 C 373.054 265.085,372.930 264.624,373.341 263.553 C 373.848 262.233,373.635 261.926,372.511 262.357 C 371.611 262.703,371.000 262.377,371.000 261.552 C 371.000 260.790,370.663 260.017,370.250 259.833 C 368.619 259.108,364.868 252.785,365.340 251.556 C 365.638 250.779,365.164 250.300,364.171 250.374 C 362.953 250.466,362.549 249.771,362.680 247.808 C 362.802 245.994,362.447 245.275,361.591 245.604 C 359.955 246.231,358.286 244.179,357.846 241.000 C 357.595 239.188,356.981 238.589,355.614 238.825 C 354.139 239.079,353.846 238.697,354.270 237.074 C 354.569 235.932,354.437 235.230,353.976 235.515 C 353.188 236.002,351.701 234.411,351.390 232.750 C 351.313 232.338,351.142 231.662,351.010 231.250 C 350.005 228.115,352.233 223.408,354.158 224.598 C 354.649 224.901,354.985 224.778,354.906 224.324 C 354.552 222.286,355.118 221.629,356.046 223.000 C 356.811 224.132,356.915 223.868,356.466 221.926 C 355.802 219.051,358.097 216.324,360.126 217.578 C 360.978 218.104,361.137 217.798,360.659 216.553 C 360.172 215.284,360.373 214.929,361.364 215.310 C 362.228 215.641,362.704 215.211,362.626 214.171 C 362.551 213.183,363.183 212.551,364.171 212.626 C 365.211 212.704,365.641 212.228,365.310 211.364 C 364.929 210.373,365.284 210.172,366.553 210.659 C 367.798 211.137,368.104 210.978,367.578 210.126 C 366.618 208.572,368.913 205.753,370.609 206.404 C 371.421 206.715,371.691 206.357,371.338 205.438 C 370.927 204.369,371.253 204.160,372.553 204.659 C 373.798 205.137,374.104 204.978,373.578 204.126 C 372.570 202.496,374.951 199.767,376.772 200.466 C 377.746 200.840,378.039 200.543,377.662 199.562 C 377.285 198.579,377.579 198.285,378.562 198.662 C 379.589 199.056,379.840 198.746,379.408 197.620 C 379.029 196.632,379.430 195.772,380.454 195.379 C 381.409 195.013,381.873 194.112,381.546 193.260 C 381.107 192.115,381.527 191.916,383.394 192.384 C 385.442 192.898,385.731 192.686,385.289 190.995 C 384.916 189.572,385.260 189.000,386.490 189.000 C 387.665 189.000,388.017 188.486,387.596 187.389 C 387.155 186.240,387.408 185.942,388.477 186.353 C 389.328 186.679,389.873 186.423,389.738 185.759 C 389.607 185.117,390.175 184.560,391.000 184.523 C 391.871 184.484,392.371 183.707,392.193 182.671 C 391.980 181.429,392.429 180.980,393.671 181.193 C 394.707 181.371,395.484 180.871,395.523 180.000 C 395.560 179.175,396.020 178.575,396.545 178.667 C 397.070 178.758,397.501 177.858,397.501 176.667 C 397.503 174.123,364.188 173.769,361.161 176.281 C 360.373 176.935,359.041 177.477,358.201 177.485 C 357.360 177.493,356.487 178.175,356.260 179.000 C 355.894 180.333,355.966 180.333,356.909 179.000 C 357.492 178.175,357.976 177.921,357.985 178.436 C 358.015 180.302,353.779 183.852,352.230 183.258 C 351.161 182.848,350.913 183.051,351.441 183.904 C 352.447 185.533,348.244 190.031,346.382 189.316 C 345.471 188.967,345.167 189.273,345.518 190.187 C 346.155 191.847,341.591 196.483,340.179 195.611 C 339.646 195.281,338.943 195.707,338.616 196.558 C 338.216 197.601,338.426 197.868,339.261 197.380 C 339.943 196.982,339.652 197.623,338.616 198.805 C 337.580 199.986,336.332 200.705,335.842 200.402 C 335.351 200.099,335.015 200.222,335.094 200.676 C 335.444 202.692,334.918 204.067,334.011 203.507 C 333.445 203.157,333.277 203.558,333.618 204.448 C 333.946 205.302,333.701 206.000,333.075 206.000 C 331.736 206.000,329.992 201.908,330.772 200.595 C 331.067 200.098,330.844 199.978,330.276 200.329 C 329.693 200.690,328.993 199.715,328.667 198.087 C 328.272 196.112,327.527 195.253,326.296 195.353 C 325.051 195.455,324.522 194.828,324.573 193.309 C 324.613 192.104,324.234 191.204,323.730 191.309 C 323.226 191.414,322.293 190.600,321.657 189.500 C 321.021 188.400,319.938 187.140,319.250 186.700 C 318.563 186.260,318.000 185.303,318.000 184.573 C 318.000 183.842,317.294 182.659,316.430 181.942 C 315.567 181.226,315.060 179.880,315.302 178.952 C 315.589 177.855,315.176 177.306,314.122 177.382 C 313.153 177.453,312.556 176.795,312.639 175.750 C 312.715 174.787,312.715 174.100,312.639 174.223 C 312.563 174.345,305.413 174.582,296.750 174.748 M156.250 192.976 C 154.463 193.400,153.000 193.547,153.000 193.302 C 153.000 193.057,152.325 193.532,151.500 194.357 C 149.937 195.920,149.444 199.000,150.757 199.000 C 151.173 199.000,153.039 198.563,154.903 198.028 C 159.739 196.641,165.157 198.166,169.116 202.028 C 170.977 203.844,171.943 205.007,171.261 204.613 C 170.427 204.130,170.217 204.401,170.616 205.442 C 170.943 206.293,171.612 206.740,172.105 206.435 C 173.620 205.499,173.096 214.047,171.542 215.600 C 170.741 216.402,170.339 217.720,170.649 218.529 C 171.007 219.461,170.603 220.000,169.548 220.000 C 168.632 220.000,168.160 220.450,168.500 221.000 C 168.840 221.550,168.641 222.000,168.059 222.000 C 167.477 222.000,167.000 222.675,167.000 223.500 C 167.000 224.325,166.578 225.000,166.062 225.000 C 165.546 225.000,163.645 226.350,161.839 228.000 C 160.032 229.650,157.980 231.000,157.277 231.000 C 156.575 231.000,156.000 231.450,156.000 232.000 C 156.000 232.550,155.298 233.000,154.441 233.000 C 153.584 233.000,153.160 233.450,153.500 234.000 C 153.840 234.550,153.384 235.000,152.488 235.000 C 151.591 235.000,150.156 235.701,149.300 236.558 C 148.443 237.414,147.219 237.914,146.580 237.669 C 145.924 237.417,145.332 238.263,145.220 239.612 C 145.052 241.641,145.472 242.000,148.011 242.000 C 149.655 242.000,151.000 241.550,151.000 241.000 C 151.000 240.450,152.313 240.000,153.917 240.000 C 155.521 240.000,156.997 239.509,157.197 238.908 C 157.398 238.307,158.747 237.745,160.197 237.658 C 161.646 237.571,162.665 237.333,162.462 237.129 C 162.258 236.925,164.358 235.629,167.127 234.249 C 169.897 232.869,172.399 231.124,172.688 230.370 C 172.977 229.617,173.757 229.000,174.420 229.000 C 175.953 229.000,181.000 223.781,181.000 222.195 C 181.000 221.538,181.378 221.000,181.839 221.000 C 183.402 221.000,185.000 215.931,185.000 210.973 C 185.000 205.864,182.484 198.000,180.850 198.000 C 180.336 198.000,179.023 197.168,177.931 196.150 C 173.994 192.482,164.307 191.064,156.250 192.976 M54.000 195.111 C 44.985 196.550,39.000 198.141,39.000 199.100 C 39.000 199.595,37.650 200.000,36.000 200.000 C 34.350 200.000,33.000 200.450,33.000 201.000 C 33.000 201.550,32.068 202.000,30.929 202.000 C 29.789 202.000,28.178 202.679,27.348 203.509 C 26.518 204.339,25.414 204.756,24.895 204.435 C 24.375 204.114,24.074 204.447,24.225 205.176 C 24.376 205.904,24.050 206.425,23.500 206.333 C 22.950 206.242,22.500 207.211,22.500 208.488 C 22.500 209.764,22.838 210.600,23.250 210.345 C 23.663 210.091,24.000 210.541,24.000 211.347 C 24.000 212.320,24.672 212.637,26.000 212.290 C 27.100 212.002,28.000 212.224,28.000 212.784 C 28.000 215.319,51.505 217.968,74.000 217.968 C 94.718 217.968,127.000 214.833,127.000 212.821 C 127.000 212.287,128.238 211.931,129.750 212.031 C 135.154 212.387,138.114 211.993,137.500 211.000 C 137.160 210.450,137.584 210.000,138.441 210.000 C 139.298 210.000,140.000 209.502,140.000 208.893 C 140.000 208.284,140.698 208.054,141.552 208.382 C 142.416 208.713,142.841 208.552,142.511 208.018 C 142.185 207.490,143.062 206.772,144.459 206.421 C 145.857 206.070,147.000 205.382,147.000 204.892 C 147.000 203.426,133.963 203.493,133.000 204.964 C 132.312 206.015,109.927 208.410,106.651 207.784 C 105.193 207.505,104.000 207.610,104.000 208.017 C 104.000 210.747,47.093 209.727,46.165 206.980 C 45.980 206.434,45.418 206.242,44.915 206.553 C 44.412 206.864,44.000 206.449,44.000 205.631 C 44.000 203.866,50.782 201.113,62.750 198.021 C 73.046 195.361,66.363 193.139,54.000 195.111 M54.000 221.923 C 54.000 222.828,46.216 226.468,44.500 226.365 C 43.950 226.333,43.375 228.177,43.223 230.463 C 42.901 235.286,46.988 240.000,51.491 240.000 C 52.871 240.000,54.000 240.450,54.000 241.000 C 54.000 241.564,56.833 242.000,60.500 242.000 C 64.167 242.000,67.000 242.436,67.000 243.000 C 67.000 243.632,74.020 244.000,86.059 244.000 C 98.510 244.000,104.904 243.653,104.500 243.000 C 104.108 242.365,106.823 242.000,111.941 242.000 C 116.647 242.000,120.000 241.584,120.000 241.000 C 120.000 240.450,121.987 240.000,124.417 240.000 C 126.846 240.000,129.001 239.498,129.205 238.885 C 129.409 238.272,131.649 237.710,134.182 237.635 C 138.237 237.516,138.677 237.291,137.859 235.750 C 137.348 234.787,137.283 233.990,137.715 233.978 C 138.147 233.966,136.487 233.043,134.028 231.927 C 131.568 230.812,129.290 229.470,128.966 228.946 C 128.602 228.356,124.585 228.598,118.439 229.579 C 89.432 234.210,49.389 231.754,55.429 225.714 C 57.403 223.739,57.427 222.378,55.500 221.638 C 54.675 221.322,54.000 221.450,54.000 221.923 M53.039 251.946 C 52.267 253.017,51.316 253.695,50.925 253.453 C 49.851 252.790,48.903 257.581,49.695 259.671 C 50.662 262.222,51.995 263.378,55.737 264.908 C 57.518 265.636,58.686 266.699,58.333 267.271 C 57.980 267.842,58.171 268.013,58.758 267.650 C 59.344 267.287,63.126 267.747,67.162 268.672 C 75.139 270.499,109.301 271.297,108.272 269.631 C 107.972 269.146,109.363 268.940,111.364 269.174 C 113.364 269.407,115.000 269.338,115.000 269.021 C 115.000 268.703,118.156 267.630,122.014 266.636 C 125.872 265.642,129.664 264.193,130.442 263.415 C 131.221 262.637,132.339 262.000,132.929 262.000 C 135.237 262.000,133.821 260.337,130.484 259.131 C 128.411 258.381,127.244 257.415,127.639 256.775 C 128.018 256.161,127.847 255.976,127.245 256.349 C 125.838 257.218,122.857 256.041,123.565 254.895 C 123.869 254.403,121.418 254.000,118.118 254.000 C 114.818 254.000,111.814 254.492,111.442 255.094 C 111.070 255.696,109.056 256.025,106.967 255.825 C 104.878 255.626,103.417 255.865,103.721 256.357 C 104.041 256.875,96.419 257.074,85.572 256.829 C 71.824 256.520,66.661 256.069,66.079 255.127 C 65.643 254.423,64.482 253.993,63.497 254.173 C 62.513 254.353,61.514 253.825,61.278 253.000 C 60.896 251.667,60.978 251.667,62.018 253.000 C 63.013 254.275,63.100 254.225,62.594 252.668 C 62.267 251.661,62.000 250.648,62.000 250.418 C 62.000 248.931,54.261 250.251,53.039 251.946 M34.250 266.745 C 28.502 266.950,25.000 267.484,25.000 268.154 C 25.000 268.748,24.092 268.996,22.982 268.706 C 21.873 268.415,20.330 268.813,19.554 269.589 C 18.778 270.365,17.643 271.000,17.032 271.000 C 15.106 271.000,8.162 274.909,6.038 277.189 C 3.759 279.635,3.158 286.168,5.250 285.750 C 5.938 285.613,6.427 285.950,6.339 286.500 C 6.250 287.050,8.049 287.611,10.337 287.746 C 12.625 287.881,14.648 288.443,14.832 288.996 C 15.016 289.548,18.306 290.000,22.142 290.000 C 26.538 290.000,28.889 290.370,28.500 291.000 C 28.104 291.641,31.490 292.000,37.941 292.000 C 43.473 292.000,48.000 292.398,48.000 292.885 C 48.000 293.372,55.653 294.099,65.007 294.500 C 83.989 295.314,118.278 294.258,117.429 292.885 C 117.128 292.398,120.482 292.000,124.882 292.000 C 129.282 292.000,133.160 291.550,133.500 291.000 C 133.840 290.450,136.791 290.000,140.059 290.000 C 143.353 290.000,146.000 289.554,146.000 289.000 C 146.000 288.450,146.821 288.000,147.824 288.000 C 153.723 288.000,168.982 282.109,172.691 278.399 C 174.829 276.262,175.879 269.339,173.878 270.575 C 173.489 270.816,172.994 270.483,172.778 269.835 C 171.796 266.887,168.438 268.315,168.813 271.521 C 169.396 276.521,147.499 283.000,130.017 283.000 C 127.807 283.000,126.000 283.373,126.000 283.829 C 126.000 285.472,49.324 284.506,40.000 282.746 C 26.104 280.123,24.998 279.813,25.671 278.724 C 26.038 278.130,25.822 277.992,25.162 278.400 C 24.532 278.789,23.225 278.648,22.258 278.085 C 20.594 277.115,20.597 277.059,22.309 277.030 C 23.304 277.014,23.840 276.550,23.500 276.000 C 23.160 275.450,23.835 275.000,25.000 275.000 C 26.165 275.000,26.872 274.601,26.570 274.114 C 26.269 273.626,26.918 272.993,28.013 272.707 C 29.107 272.421,29.777 272.553,29.500 273.000 C 29.223 273.447,29.898 273.578,30.999 273.290 C 32.099 273.002,33.000 272.317,33.000 271.767 C 33.000 271.217,34.111 270.979,35.470 271.239 C 36.828 271.499,37.702 271.326,37.411 270.856 C 37.120 270.385,38.484 270.000,40.441 270.000 C 43.333 270.000,44.000 269.625,44.000 268.000 C 44.000 266.900,43.888 266.093,43.750 266.208 C 43.612 266.322,39.337 266.564,34.250 266.745 " stroke="none" fill="#000000" fill-rule="evenodd"></path></g></svg>