<svg id="svg" version="1.1" width="400" height="400" xmlns="http://www.w3.org/2000/svg" xmlns:xlink="http://www.w3.org/1999/xlink" style="display: block;"><g id="svgg"><path id="path0" d="M134.500 12.000 C 134.151 13.100,133.461 14.000,132.966 14.000 C 132.471 14.000,130.472 15.688,128.522 17.750 C 124.935 21.545,124.038 22.458,117.728 28.728 C 113.391 33.037,113.067 33.361,108.597 37.858 C 106.607 39.861,104.078 42.400,102.978 43.500 C 101.878 44.600,99.520 46.947,97.739 48.717 C 93.719 52.709,93.057 53.371,88.728 57.728 C 84.341 62.142,82.142 64.341,77.728 68.728 C 73.408 73.020,73.336 73.092,68.869 77.586 C 64.307 82.177,62.140 84.343,57.728 88.728 C 55.797 90.647,53.767 92.667,53.217 93.217 C 52.667 93.767,50.647 95.797,48.728 97.728 C 44.341 102.142,42.142 104.341,37.728 108.728 C 33.389 113.039,33.039 113.389,28.728 117.728 C 24.341 122.142,22.142 124.341,17.728 128.728 C 0.697 145.650,-1.220 148.000,2.000 148.000 C 2.550 148.000,3.000 149.575,3.000 151.500 C 3.000 153.425,3.397 155.000,3.883 155.000 C 4.368 155.000,5.081 158.375,5.468 162.500 C 5.854 166.625,6.582 170.000,7.085 170.000 C 7.588 170.000,8.000 171.125,8.000 172.500 C 8.000 173.875,8.450 175.000,9.000 175.000 C 9.550 175.000,10.000 176.800,10.000 179.000 C 10.000 181.200,10.450 183.000,11.000 183.000 C 11.550 183.000,12.000 184.575,12.000 186.500 C 12.000 188.425,12.398 190.000,12.884 190.000 C 13.369 190.000,14.080 192.925,14.463 196.500 C 14.846 200.075,15.573 203.000,16.080 203.000 C 16.586 203.000,17.000 204.575,17.000 206.500 C 17.000 208.425,17.450 210.000,18.000 210.000 C 18.550 210.000,19.000 211.575,19.000 213.500 C 19.000 215.425,19.450 217.000,20.000 217.000 C 20.550 217.000,21.000 218.800,21.000 221.000 C 21.000 223.200,21.450 225.000,22.000 225.000 C 22.550 225.000,23.000 226.125,23.000 227.500 C 23.000 228.875,23.404 230.000,23.899 230.000 C 24.393 230.000,25.114 233.152,25.500 237.004 C 25.887 240.856,26.608 244.258,27.102 244.563 C 27.596 244.868,28.000 246.666,28.000 248.559 C 28.000 250.452,28.450 252.000,29.000 252.000 C 29.550 252.000,30.000 253.125,30.000 254.500 C 30.000 255.875,30.450 257.000,31.000 257.000 C 31.550 257.000,32.000 258.800,32.000 261.000 C 32.000 263.200,32.404 265.000,32.899 265.000 C 33.393 265.000,34.113 268.150,34.500 272.000 C 34.887 275.850,35.607 279.000,36.101 279.000 C 36.596 279.000,37.000 280.350,37.000 282.000 C 37.000 283.650,37.450 285.000,38.000 285.000 C 38.550 285.000,39.000 286.575,39.000 288.500 C 39.000 290.425,39.450 292.000,40.000 292.000 C 40.550 292.000,41.000 293.575,41.000 295.500 C 41.000 297.425,41.450 299.000,42.000 299.000 C 42.550 299.000,43.000 300.350,43.000 302.000 C 43.000 303.650,43.404 305.000,43.899 305.000 C 44.393 305.000,45.113 308.150,45.500 312.000 C 45.887 315.850,46.607 319.000,47.101 319.000 C 47.596 319.000,48.000 320.575,48.000 322.500 C 48.000 324.425,48.450 326.000,49.000 326.000 C 49.550 326.000,50.000 327.157,50.000 328.571 C 50.000 332.251,52.035 333.803,57.878 334.578 C 60.695 334.952,63.000 335.650,63.000 336.129 C 63.000 336.608,64.575 337.000,66.500 337.000 C 68.425 337.000,70.000 337.450,70.000 338.000 C 70.000 338.550,71.575 339.000,73.500 339.000 C 75.425 339.000,77.000 339.450,77.000 340.000 C 77.000 340.550,78.800 341.000,81.000 341.000 C 83.200 341.000,85.000 341.450,85.000 342.000 C 85.000 342.550,86.125 343.000,87.500 343.000 C 88.875 343.000,90.000 343.412,90.000 343.915 C 90.000 344.418,93.375 345.146,97.500 345.532 C 101.625 345.919,105.000 346.632,105.000 347.117 C 105.000 347.603,106.125 348.000,107.500 348.000 C 108.875 348.000,110.000 348.450,110.000 349.000 C 110.000 349.550,111.575 350.000,113.500 350.000 C 115.425 350.000,117.000 350.450,117.000 351.000 C 117.000 351.550,118.800 352.000,121.000 352.000 C 123.200 352.000,125.000 352.392,125.000 352.871 C 125.000 353.350,127.700 354.047,131.000 354.420 C 134.300 354.794,137.000 355.527,137.000 356.050 C 137.000 356.572,138.800 357.000,141.000 357.000 C 143.200 357.000,145.000 357.450,145.000 358.000 C 145.000 358.550,146.575 359.000,148.500 359.000 C 150.425 359.000,152.000 359.450,152.000 360.000 C 152.000 360.550,153.575 361.000,155.500 361.000 C 157.425 361.000,159.000 361.450,159.000 362.000 C 159.000 362.550,160.350 363.000,162.000 363.000 C 163.650 363.000,165.000 363.404,165.000 363.899 C 165.000 364.393,168.150 365.113,172.000 365.500 C 175.850 365.887,179.000 366.607,179.000 367.101 C 179.000 367.596,180.350 368.000,182.000 368.000 C 183.650 368.000,185.000 368.450,185.000 369.000 C 185.000 369.550,186.575 370.000,188.500 370.000 C 190.425 370.000,192.000 370.450,192.000 371.000 C 192.000 371.550,193.575 372.000,195.500 372.000 C 197.425 372.000,199.000 372.398,199.000 372.884 C 199.000 373.369,201.925 374.080,205.500 374.463 C 209.075 374.846,212.000 375.573,212.000 376.080 C 212.000 376.586,213.575 377.000,215.500 377.000 C 217.425 377.000,219.000 377.450,219.000 378.000 C 219.000 378.550,220.575 379.000,222.500 379.000 C 224.425 379.000,226.000 379.450,226.000 380.000 C 226.000 380.550,227.350 381.000,229.000 381.000 C 230.650 381.000,232.000 381.450,232.000 382.000 C 232.000 382.550,233.340 383.000,234.978 383.000 C 239.489 383.000,374.000 248.490,374.000 243.979 C 374.000 242.340,373.550 241.000,373.000 241.000 C 372.450 241.000,372.000 239.650,372.000 238.000 C 372.000 236.350,371.550 235.000,371.000 235.000 C 370.450 235.000,370.000 233.425,370.000 231.500 C 370.000 229.575,369.550 228.000,369.000 228.000 C 368.450 228.000,368.000 226.425,368.000 224.500 C 368.000 222.575,367.602 221.000,367.116 221.000 C 366.631 221.000,365.920 218.075,365.537 214.500 C 365.154 210.925,364.427 208.000,363.920 208.000 C 363.414 208.000,363.000 206.425,363.000 204.500 C 363.000 202.575,362.550 201.000,362.000 201.000 C 361.450 201.000,361.000 199.425,361.000 197.500 C 361.000 195.575,360.550 194.000,360.000 194.000 C 359.450 194.000,359.000 192.200,359.000 190.000 C 359.000 187.800,358.550 186.000,358.000 186.000 C 357.450 186.000,357.000 184.875,357.000 183.500 C 357.000 182.125,356.588 181.000,356.085 181.000 C 355.582 181.000,354.854 177.625,354.468 173.500 C 354.081 169.375,353.368 166.000,352.883 166.000 C 352.397 166.000,352.000 164.425,352.000 162.500 C 352.000 160.575,351.550 159.000,351.000 159.000 C 350.450 159.000,350.000 157.875,350.000 156.500 C 350.000 155.125,349.550 154.000,349.000 154.000 C 348.450 154.000,348.000 152.200,348.000 150.000 C 348.000 147.800,347.596 146.000,347.101 146.000 C 346.607 146.000,345.887 142.850,345.500 139.000 C 345.113 135.150,344.393 132.000,343.899 132.000 C 343.404 132.000,343.000 130.650,343.000 129.000 C 343.000 127.350,342.550 126.000,342.000 126.000 C 341.450 126.000,341.000 124.425,341.000 122.500 C 341.000 120.575,340.550 119.000,340.000 119.000 C 339.450 119.000,339.000 117.425,339.000 115.500 C 339.000 113.575,338.550 112.000,338.000 112.000 C 337.450 112.000,337.000 110.650,337.000 109.000 C 337.000 107.350,336.596 106.000,336.101 106.000 C 335.607 106.000,334.887 102.850,334.500 99.000 C 334.113 95.150,333.393 92.000,332.899 92.000 C 332.404 92.000,332.000 90.425,332.000 88.500 C 332.000 86.575,331.550 85.000,331.000 85.000 C 330.450 85.000,330.000 83.650,330.000 82.000 C 330.000 80.350,329.550 79.000,329.000 79.000 C 328.450 79.000,328.000 77.425,328.000 75.500 C 328.000 73.575,327.602 72.000,327.116 72.000 C 326.631 72.000,325.920 69.075,325.537 65.500 C 324.856 59.143,324.777 59.000,321.920 59.000 C 320.314 59.000,319.000 58.550,319.000 58.000 C 319.000 57.450,317.425 57.000,315.500 57.000 C 313.575 57.000,312.000 56.602,312.000 56.116 C 312.000 55.631,309.075 54.920,305.500 54.537 C 301.925 54.154,299.000 53.427,299.000 52.920 C 299.000 52.414,297.425 52.000,295.500 52.000 C 293.575 52.000,292.000 51.550,292.000 51.000 C 292.000 50.450,290.425 50.000,288.500 50.000 C 286.575 50.000,285.000 49.550,285.000 49.000 C 285.000 48.450,283.200 48.000,281.000 48.000 C 278.800 48.000,277.000 47.572,277.000 47.050 C 277.000 46.527,274.300 45.794,271.000 45.420 C 267.700 45.047,265.000 44.350,265.000 43.871 C 265.000 43.392,263.200 43.000,261.000 43.000 C 258.800 43.000,257.000 42.550,257.000 42.000 C 257.000 41.450,255.875 41.000,254.500 41.000 C 253.125 41.000,252.000 40.550,252.000 40.000 C 252.000 39.450,250.425 39.000,248.500 39.000 C 246.575 39.000,245.000 38.550,245.000 38.000 C 245.000 37.450,243.200 37.000,241.000 37.000 C 238.800 37.000,237.000 36.608,237.000 36.129 C 237.000 35.650,234.300 34.953,231.000 34.580 C 227.700 34.206,225.000 33.473,225.000 32.950 C 225.000 32.428,223.200 32.000,221.000 32.000 C 218.800 32.000,217.000 31.550,217.000 31.000 C 217.000 30.450,215.425 30.000,213.500 30.000 C 211.575 30.000,210.000 29.550,210.000 29.000 C 210.000 28.450,208.425 28.000,206.500 28.000 C 204.575 28.000,203.000 27.586,203.000 27.080 C 203.000 26.573,200.075 25.846,196.500 25.463 C 192.925 25.080,190.000 24.369,190.000 23.884 C 190.000 23.398,188.425 23.000,186.500 23.000 C 184.575 23.000,183.000 22.550,183.000 22.000 C 183.000 21.450,181.650 21.000,180.000 21.000 C 178.350 21.000,177.000 20.550,177.000 20.000 C 177.000 19.450,175.425 19.000,173.500 19.000 C 171.575 19.000,170.000 18.550,170.000 18.000 C 170.000 17.450,168.425 17.000,166.500 17.000 C 164.575 17.000,163.000 16.614,163.000 16.142 C 163.000 15.671,160.188 14.991,156.750 14.633 C 153.313 14.274,150.350 13.535,150.167 12.990 C 149.983 12.446,148.296 12.000,146.417 12.000 C 144.537 12.000,143.000 11.550,143.000 11.000 C 143.000 8.941,135.179 9.862,134.500 12.000 M146.000 32.920 C 146.000 33.427,148.925 34.154,152.500 34.537 C 156.075 34.920,159.000 35.631,159.000 36.116 C 159.000 36.602,160.575 37.000,162.500 37.000 C 164.425 37.000,166.000 37.450,166.000 38.000 C 166.000 38.550,167.800 39.000,170.000 39.000 C 172.200 39.000,174.000 39.450,174.000 40.000 C 174.000 40.550,175.125 41.000,176.500 41.000 C 177.875 41.000,179.000 41.450,179.000 42.000 C 179.000 42.550,180.548 43.000,182.441 43.000 C 184.334 43.000,186.132 43.404,186.437 43.898 C 186.742 44.392,190.144 45.113,193.996 45.500 C 197.848 45.886,201.000 46.607,201.000 47.101 C 201.000 47.596,202.125 48.000,203.500 48.000 C 204.875 48.000,206.000 48.450,206.000 49.000 C 206.000 49.550,207.800 50.000,210.000 50.000 C 212.200 50.000,214.000 50.450,214.000 51.000 C 214.000 51.550,215.537 52.000,217.417 52.000 C 219.296 52.000,220.983 52.446,221.167 52.990 C 221.350 53.535,224.313 54.274,227.750 54.633 C 231.188 54.991,234.000 55.671,234.000 56.142 C 234.000 56.614,235.575 57.000,237.500 57.000 C 239.425 57.000,241.000 57.450,241.000 58.000 C 241.000 58.550,242.575 59.000,244.500 59.000 C 246.425 59.000,248.000 59.450,248.000 60.000 C 248.000 60.550,249.350 61.000,251.000 61.000 C 252.650 61.000,254.000 61.450,254.000 62.000 C 254.000 62.550,255.575 63.000,257.500 63.000 C 259.425 63.000,261.000 63.398,261.000 63.884 C 261.000 64.369,263.925 65.080,267.500 65.463 C 271.075 65.846,274.000 66.573,274.000 67.080 C 274.000 67.586,275.575 68.000,277.500 68.000 C 279.425 68.000,281.000 68.450,281.000 69.000 C 281.000 69.550,282.575 70.000,284.500 70.000 C 286.425 70.000,288.000 70.450,288.000 71.000 C 288.000 71.550,289.350 72.000,291.000 72.000 C 292.650 72.000,294.000 72.388,294.000 72.862 C 294.000 73.337,296.516 74.020,299.591 74.382 C 305.863 75.119,308.000 76.656,308.000 80.429 C 308.000 81.843,308.450 83.000,309.000 83.000 C 309.550 83.000,310.000 84.575,310.000 86.500 C 310.000 88.425,310.450 90.000,311.000 90.000 C 311.550 90.000,312.000 91.575,312.000 93.500 C 312.000 95.425,312.386 97.000,312.858 97.000 C 313.329 97.000,314.009 99.813,314.367 103.250 C 314.726 106.688,315.465 109.650,316.010 109.833 C 316.554 110.017,317.000 111.704,317.000 113.583 C 317.000 115.463,317.450 117.000,318.000 117.000 C 318.550 117.000,319.000 118.800,319.000 121.000 C 319.000 123.200,319.450 125.000,320.000 125.000 C 320.550 125.000,321.000 126.575,321.000 128.500 C 321.000 130.425,321.450 132.000,322.000 132.000 C 322.550 132.000,323.000 133.125,323.000 134.500 C 323.000 135.875,323.397 137.000,323.883 137.000 C 324.368 137.000,325.081 140.375,325.468 144.500 C 325.854 148.625,326.582 152.000,327.085 152.000 C 327.588 152.000,328.000 153.575,328.000 155.500 C 328.000 157.425,328.450 159.000,329.000 159.000 C 329.550 159.000,330.000 160.350,330.000 162.000 C 330.000 163.650,330.450 165.000,331.000 165.000 C 331.550 165.000,332.000 166.575,332.000 168.500 C 332.000 170.425,332.404 172.000,332.899 172.000 C 333.393 172.000,334.113 175.150,334.500 179.000 C 334.887 182.850,335.607 186.000,336.101 186.000 C 336.596 186.000,337.000 187.800,337.000 190.000 C 337.000 192.200,337.450 194.000,338.000 194.000 C 338.550 194.000,339.000 195.125,339.000 196.500 C 339.000 197.875,339.450 199.000,340.000 199.000 C 340.550 199.000,341.000 200.575,341.000 202.500 C 341.000 204.425,341.450 206.000,342.000 206.000 C 342.550 206.000,343.000 207.800,343.000 210.000 C 343.000 212.200,343.392 214.000,343.871 214.000 C 344.350 214.000,345.047 216.700,345.420 220.000 C 345.794 223.300,346.527 226.000,347.050 226.000 C 347.572 226.000,348.000 227.800,348.000 230.000 C 348.000 232.200,348.450 234.000,349.000 234.000 C 349.550 234.000,350.000 235.782,350.000 237.960 C 350.000 241.784,349.260 242.659,328.460 263.460 C 306.731 285.188,305.000 286.630,305.000 283.000 C 305.000 281.900,304.550 281.000,304.000 281.000 C 303.450 281.000,303.000 280.199,303.000 279.221 C 303.000 278.242,302.100 276.793,301.000 276.000 C 299.900 275.207,299.000 273.983,299.000 273.279 C 299.000 272.576,298.550 272.000,298.000 272.000 C 297.450 272.000,297.000 271.100,297.000 270.000 C 297.000 268.900,296.559 268.000,296.019 268.000 C 295.480 268.000,294.756 266.875,294.411 265.500 C 294.066 264.125,293.382 263.000,292.892 263.000 C 292.401 263.000,292.000 262.100,292.000 261.000 C 292.000 259.900,291.550 259.000,291.000 259.000 C 290.450 259.000,290.000 258.130,290.000 257.067 C 290.000 256.004,289.100 254.849,288.000 254.500 C 286.900 254.151,286.000 253.224,286.000 252.439 C 286.000 250.406,282.676 243.000,281.764 243.000 C 281.344 243.000,281.000 241.650,281.000 240.000 C 281.000 238.350,281.340 237.000,281.756 237.000 C 282.707 237.000,284.625 232.512,285.495 228.250 C 285.860 226.463,286.573 225.000,287.079 225.000 C 287.586 225.000,288.000 223.200,288.000 221.000 C 288.000 218.800,288.450 217.000,289.000 217.000 C 289.550 217.000,290.000 215.425,290.000 213.500 C 290.000 211.575,290.450 210.000,291.000 210.000 C 291.583 210.000,292.000 206.667,292.000 202.000 C 292.000 197.333,292.417 194.000,293.000 194.000 C 293.564 194.000,294.000 191.167,294.000 187.500 C 294.000 183.833,293.564 181.000,293.000 181.000 C 292.422 181.000,292.000 177.833,292.000 173.500 C 292.000 169.167,291.578 166.000,291.000 166.000 C 290.450 166.000,290.000 164.425,290.000 162.500 C 290.000 160.575,289.550 159.000,289.000 159.000 C 288.450 159.000,288.000 157.425,288.000 155.500 C 288.000 153.575,287.578 152.000,287.061 152.000 C 286.545 152.000,285.819 149.975,285.448 147.500 C 285.077 145.025,284.374 143.000,283.886 143.000 C 283.399 143.000,283.000 142.100,283.000 141.000 C 283.000 139.900,282.550 139.000,282.000 139.000 C 281.450 139.000,281.000 138.100,281.000 137.000 C 281.000 135.900,280.550 135.000,280.000 135.000 C 279.450 135.000,279.000 134.424,279.000 133.721 C 279.000 133.017,278.100 131.793,277.000 131.000 C 275.900 130.207,275.000 128.744,275.000 127.748 C 275.000 126.752,274.325 125.678,273.500 125.362 C 272.675 125.045,272.000 124.144,272.000 123.360 C 272.000 122.575,270.425 120.358,268.500 118.433 C 266.575 116.508,265.000 114.483,265.000 113.933 C 265.000 112.471,258.290 106.000,256.774 106.000 C 256.063 106.000,254.135 104.435,252.490 102.522 C 250.846 100.608,248.761 99.033,247.857 99.022 C 246.953 99.010,245.947 98.304,245.620 97.453 C 245.294 96.601,243.670 95.432,242.013 94.855 C 240.356 94.277,239.000 93.398,239.000 92.902 C 239.000 92.406,238.100 92.000,237.000 92.000 C 235.900 92.000,235.000 91.550,235.000 91.000 C 235.000 90.450,234.325 90.000,233.500 90.000 C 232.675 90.000,232.000 89.550,232.000 89.000 C 232.000 88.450,231.137 88.000,230.083 88.000 C 229.029 88.000,228.007 87.521,227.812 86.935 C 227.617 86.350,225.554 85.616,223.228 85.304 C 220.903 84.992,219.000 84.346,219.000 83.868 C 219.000 83.391,217.875 83.000,216.500 83.000 C 215.125 83.000,214.000 82.550,214.000 82.000 C 214.000 81.450,212.200 81.000,210.000 81.000 C 207.800 81.000,206.000 80.550,206.000 80.000 C 206.000 79.429,203.000 79.000,199.000 79.000 C 195.000 79.000,192.000 78.571,192.000 78.000 C 192.000 77.407,188.333 77.000,183.000 77.000 C 177.667 77.000,174.000 77.407,174.000 78.000 C 174.000 78.564,171.167 79.000,167.500 79.000 C 163.833 79.000,161.000 79.436,161.000 80.000 C 161.000 80.550,158.975 81.000,156.500 81.000 C 154.025 81.000,152.000 81.450,152.000 82.000 C 152.000 82.550,150.650 83.000,149.000 83.000 C 147.350 83.000,146.000 83.399,146.000 83.886 C 146.000 84.374,143.975 85.077,141.500 85.448 C 139.025 85.819,137.000 86.545,137.000 87.061 C 137.000 87.578,136.325 88.000,135.500 88.000 C 134.675 88.000,134.000 88.450,134.000 89.000 C 134.000 89.550,133.100 90.000,132.000 90.000 C 130.667 90.000,130.000 90.667,130.000 92.000 C 130.000 93.158,130.667 94.000,131.583 94.000 C 132.454 94.000,137.613 98.500,143.048 104.000 C 148.483 109.500,153.387 114.000,153.944 114.000 C 154.502 114.000,159.455 118.500,164.951 124.000 C 170.447 129.500,175.388 134.000,175.931 134.000 C 176.474 134.000,180.956 138.050,185.892 143.000 C 190.828 147.950,195.140 152.000,195.475 152.000 C 196.278 152.000,198.393 153.776,202.304 157.733 C 208.211 163.709,210.077 166.000,209.035 166.000 C 208.466 166.000,208.000 167.350,208.000 169.000 C 208.000 170.650,207.570 172.000,207.045 172.000 C 206.520 172.000,205.795 173.575,205.434 175.500 C 205.073 177.425,204.377 179.000,203.889 179.000 C 203.400 179.000,203.000 179.900,203.000 181.000 C 203.000 182.100,202.550 183.000,202.000 183.000 C 201.450 183.000,201.000 183.576,201.000 184.279 C 201.000 184.983,200.100 186.207,199.000 187.000 C 197.900 187.793,197.000 189.048,197.000 189.788 C 197.000 190.529,194.300 193.810,191.000 197.080 C 187.700 200.349,185.000 203.460,185.000 203.993 C 185.000 204.526,183.762 205.267,182.250 205.641 C 180.738 206.014,178.772 207.148,177.883 208.160 C 176.993 209.172,175.921 210.000,175.500 210.000 C 175.079 210.000,174.006 210.840,173.116 211.866 C 172.226 212.892,170.036 214.053,168.249 214.445 C 166.462 214.838,165.000 215.573,165.000 216.079 C 165.000 217.418,162.088 217.207,160.463 215.750 C 157.474 213.069,156.061 212.000,155.509 212.000 C 154.717 212.000,149.447 207.011,141.511 198.750 C 139.001 196.138,136.497 194.000,135.946 194.000 C 135.395 194.000,130.447 189.500,124.951 184.000 C 119.455 178.500,114.510 174.000,113.961 174.000 C 113.413 174.000,108.717 169.725,103.526 164.500 C 98.334 159.275,93.610 155.000,93.027 155.000 C 92.444 155.000,90.026 152.975,87.655 150.500 C 85.283 148.025,83.009 146.000,82.600 146.000 C 80.985 146.000,79.000 148.993,79.000 151.429 C 79.000 152.843,78.550 154.000,78.000 154.000 C 77.450 154.000,77.000 155.088,77.000 156.417 C 77.000 157.746,76.438 159.021,75.750 159.250 C 73.935 159.855,73.935 214.144,75.750 214.750 C 76.466 214.989,77.000 216.839,77.000 219.083 C 77.000 221.238,77.450 223.000,78.000 223.000 C 78.550 223.000,79.000 224.125,79.000 225.500 C 79.000 226.875,79.450 228.000,80.000 228.000 C 80.550 228.000,81.000 228.900,81.000 230.000 C 81.000 231.100,81.450 232.000,82.000 232.000 C 82.550 232.000,83.000 232.675,83.000 233.500 C 83.000 234.325,83.410 235.000,83.912 235.000 C 84.414 235.000,85.128 236.800,85.500 239.000 C 85.872 241.200,86.586 243.000,87.088 243.000 C 87.590 243.000,88.000 243.576,88.000 244.279 C 88.000 244.983,88.900 246.207,90.000 247.000 C 91.100 247.793,92.000 249.078,92.000 249.856 C 92.000 250.634,93.125 252.313,94.500 253.588 C 95.875 254.862,97.000 256.376,97.000 256.952 C 97.000 258.262,112.652 274.000,113.955 274.000 C 114.480 274.000,116.034 275.125,117.409 276.500 C 118.784 277.875,120.505 279.000,121.234 279.000 C 121.962 279.000,123.207 279.900,124.000 281.000 C 124.793 282.100,126.017 283.000,126.721 283.000 C 127.424 283.000,128.000 283.400,128.000 283.889 C 128.000 284.377,129.575 285.073,131.500 285.434 C 133.425 285.795,135.000 286.520,135.000 287.045 C 135.000 287.570,135.900 288.000,137.000 288.000 C 138.100 288.000,139.000 288.450,139.000 289.000 C 139.000 289.550,139.900 290.000,141.000 290.000 C 142.100 290.000,143.000 290.450,143.000 291.000 C 143.000 291.550,144.088 292.000,145.417 292.000 C 146.746 292.000,147.983 292.432,148.167 292.960 C 148.350 293.488,152.213 294.227,156.750 294.604 C 161.287 294.980,165.000 295.673,165.000 296.144 C 165.000 296.615,169.982 297.000,176.071 297.000 C 187.316 297.000,190.000 297.811,190.000 301.208 C 190.000 301.951,190.898 303.206,191.995 303.997 C 193.093 304.788,194.268 306.912,194.607 308.718 C 194.945 310.523,195.623 312.000,196.111 312.000 C 196.600 312.000,197.000 312.576,197.000 313.279 C 197.000 313.983,197.900 315.207,199.000 316.000 C 200.100 316.793,201.000 318.242,201.000 319.221 C 201.000 320.199,201.450 321.000,202.000 321.000 C 202.550 321.000,203.000 321.900,203.000 323.000 C 203.000 324.100,203.401 325.000,203.892 325.000 C 204.382 325.000,205.066 326.125,205.411 327.500 C 205.756 328.875,206.480 330.000,207.019 330.000 C 207.559 330.000,208.000 330.900,208.000 332.000 C 208.000 333.100,208.450 334.000,209.000 334.000 C 209.550 334.000,210.000 334.675,210.000 335.500 C 210.000 336.325,210.450 337.000,211.000 337.000 C 211.550 337.000,212.000 337.900,212.000 339.000 C 212.000 340.100,212.400 341.000,212.889 341.000 C 213.377 341.000,214.055 342.477,214.393 344.282 C 214.732 346.088,215.907 348.212,217.005 349.003 C 218.102 349.794,219.000 351.242,219.000 352.221 C 219.000 353.199,219.450 354.000,220.000 354.000 C 220.550 354.000,221.000 354.637,221.000 355.417 C 221.000 356.196,221.563 357.034,222.250 357.280 C 222.977 357.539,223.129 358.097,222.613 358.613 C 222.097 359.129,221.539 358.977,221.280 358.250 C 221.034 357.562,219.322 357.000,217.476 357.000 C 215.629 357.000,213.877 356.609,213.581 356.132 C 213.286 355.654,210.335 354.957,207.022 354.582 C 203.710 354.207,201.000 353.473,201.000 352.950 C 201.000 352.428,199.425 352.000,197.500 352.000 C 195.575 352.000,194.000 351.550,194.000 351.000 C 194.000 350.450,192.200 350.000,190.000 350.000 C 187.800 350.000,186.000 349.550,186.000 349.000 C 186.000 348.450,184.463 348.000,182.583 348.000 C 180.704 348.000,179.017 347.554,178.833 347.010 C 178.650 346.465,175.688 345.726,172.250 345.367 C 168.813 345.009,166.000 344.329,166.000 343.858 C 166.000 343.386,164.425 343.000,162.500 343.000 C 160.575 343.000,159.000 342.550,159.000 342.000 C 159.000 341.450,157.425 341.000,155.500 341.000 C 153.575 341.000,152.000 340.550,152.000 340.000 C 152.000 339.450,150.650 339.000,149.000 339.000 C 147.350 339.000,146.000 338.550,146.000 338.000 C 146.000 337.450,144.425 337.000,142.500 337.000 C 140.575 337.000,139.000 336.602,139.000 336.116 C 139.000 335.631,136.075 334.920,132.500 334.537 C 128.925 334.154,126.000 333.427,126.000 332.920 C 126.000 332.414,124.425 332.000,122.500 332.000 C 120.575 332.000,119.000 331.550,119.000 331.000 C 119.000 330.450,117.425 330.000,115.500 330.000 C 113.575 330.000,112.000 329.550,112.000 329.000 C 112.000 328.450,110.452 328.000,108.559 328.000 C 106.666 328.000,104.877 327.609,104.581 327.132 C 104.286 326.654,101.335 325.957,98.022 325.582 C 94.710 325.207,92.000 324.473,92.000 323.950 C 92.000 323.428,90.425 323.000,88.500 323.000 C 86.575 323.000,85.000 322.550,85.000 322.000 C 85.000 321.450,83.200 321.000,81.000 321.000 C 78.800 321.000,77.000 320.550,77.000 320.000 C 77.000 319.450,75.875 319.000,74.500 319.000 C 73.125 319.000,72.000 318.550,72.000 318.000 C 72.000 317.450,70.692 317.000,69.094 317.000 C 66.365 317.000,66.146 316.695,65.500 312.001 C 65.122 309.252,64.405 306.750,63.906 306.442 C 63.408 306.134,63.000 304.334,63.000 302.441 C 63.000 300.548,62.550 299.000,62.000 299.000 C 61.450 299.000,61.000 297.425,61.000 295.500 C 61.000 293.575,60.550 292.000,60.000 292.000 C 59.450 292.000,59.000 290.650,59.000 289.000 C 59.000 287.350,58.550 286.000,58.000 286.000 C 57.450 286.000,57.000 284.425,57.000 282.500 C 57.000 280.575,56.602 279.000,56.116 279.000 C 55.631 279.000,54.920 276.075,54.537 272.500 C 54.154 268.925,53.427 266.000,52.920 266.000 C 52.414 266.000,52.000 264.425,52.000 262.500 C 52.000 260.575,51.550 259.000,51.000 259.000 C 50.450 259.000,50.000 257.425,50.000 255.500 C 50.000 253.575,49.550 252.000,49.000 252.000 C 48.450 252.000,48.000 250.650,48.000 249.000 C 48.000 247.350,47.596 246.000,47.101 246.000 C 46.607 246.000,45.887 242.850,45.500 239.000 C 45.113 235.150,44.393 232.000,43.899 232.000 C 43.404 232.000,43.000 230.425,43.000 228.500 C 43.000 226.575,42.550 225.000,42.000 225.000 C 41.450 225.000,41.000 223.650,41.000 222.000 C 41.000 220.350,40.550 219.000,40.000 219.000 C 39.450 219.000,39.000 217.425,39.000 215.500 C 39.000 213.575,38.550 212.000,38.000 212.000 C 37.450 212.000,37.000 210.425,37.000 208.500 C 37.000 206.575,36.614 205.000,36.142 205.000 C 35.671 205.000,34.991 202.188,34.633 198.750 C 34.274 195.313,33.535 192.350,32.990 192.167 C 32.446 191.983,32.000 190.296,32.000 188.417 C 32.000 186.537,31.550 185.000,31.000 185.000 C 30.450 185.000,30.000 183.200,30.000 181.000 C 30.000 178.800,29.550 177.000,29.000 177.000 C 28.450 177.000,28.000 175.463,28.000 173.583 C 28.000 171.704,27.554 170.017,27.010 169.833 C 26.465 169.650,25.726 166.688,25.367 163.250 C 25.009 159.813,24.329 157.000,23.858 157.000 C 22.559 157.000,22.831 153.119,24.250 151.405 C 24.938 150.574,26.520 148.906,27.766 147.697 C 29.012 146.489,31.037 144.480,32.266 143.233 C 33.495 141.986,36.016 139.452,37.869 137.602 C 39.723 135.752,42.198 133.281,43.369 132.110 C 44.541 130.938,46.520 128.972,47.766 127.740 C 49.012 126.508,51.037 124.480,52.266 123.233 C 53.495 121.986,56.016 119.452,57.869 117.602 C 59.723 115.752,62.198 113.281,63.369 112.110 C 64.541 110.938,66.520 108.972,67.766 107.740 C 69.012 106.508,71.037 104.480,72.266 103.233 C 73.495 101.986,76.016 99.452,77.869 97.602 C 79.723 95.752,82.198 93.281,83.369 92.110 C 84.541 90.938,86.520 88.972,87.766 87.740 C 89.012 86.508,91.037 84.480,92.266 83.233 C 95.129 80.328,100.328 75.129,103.233 72.266 C 104.480 71.037,106.508 69.012,107.740 67.766 C 109.934 65.547,111.039 64.439,117.869 57.608 C 124.513 50.965,125.531 49.950,127.766 47.740 C 129.012 46.508,131.037 44.480,132.266 43.233 C 136.978 38.451,140.984 34.453,142.217 33.300 C 143.756 31.861,146.000 31.636,146.000 32.920 " stroke="none" fill="#000000" fill-rule="evenodd"></path></g></svg>