<svg version="1.1" width="400" height="400" xmlns="http://www.w3.org/2000/svg">
<g>
<path d="M187.627 1.101 C 184.397 1.573,181.247 2.324,180.627 2.770 C 180.007 3.216,176.912 4.423,173.750 5.453 C 170.588 6.482,168.000 7.702,168.000 8.162 C 168.000 8.623,167.132 9.000,166.071 9.000 C 165.011 9.000,163.468 9.675,162.643 10.500 C 161.818 11.325,160.818 12.000,160.421 12.000 C 158.733 12.000,148.770 17.437,148.322 18.602 C 148.053 19.304,146.552 20.159,144.986 20.503 C 143.420 20.847,141.602 21.775,140.947 22.564 C 140.291 23.354,139.299 24.000,138.742 24.000 C 138.185 24.000,136.687 25.125,135.412 26.500 C 134.138 27.875,132.817 29.000,132.476 29.000 C 131.672 29.000,129.000 31.672,129.000 32.476 C 129.000 32.817,127.853 34.158,126.452 35.457 C 125.039 36.766,123.644 39.419,123.321 41.409 C 123.001 43.384,122.347 45.000,121.869 45.000 C 121.391 45.000,121.000 45.675,121.000 46.500 C 121.000 47.325,120.360 48.000,119.577 48.000 C 117.730 48.000,112.000 53.730,112.000 55.577 C 112.000 56.360,111.570 57.000,111.045 57.000 C 110.520 57.000,109.821 58.687,109.491 60.750 C 109.161 62.813,108.465 65.281,107.945 66.236 C 107.425 67.191,107.000 69.957,107.000 72.382 C 107.000 76.636,106.648 77.142,97.000 86.757 C 91.500 92.237,87.000 97.197,87.000 97.777 C 87.000 98.358,86.659 98.983,86.243 99.167 C 84.949 99.736,79.000 107.726,79.000 108.894 C 79.000 109.502,78.580 110.000,78.067 110.000 C 77.554 110.000,76.820 110.992,76.435 112.203 C 76.051 113.415,75.121 115.022,74.368 115.775 C 73.616 116.527,73.000 117.786,73.000 118.571 C 73.000 119.357,72.586 120.000,72.079 120.000 C 71.573 120.000,70.862 121.350,70.500 123.000 C 70.138 124.650,69.537 126.000,69.165 126.000 C 68.360 126.000,66.378 130.398,65.448 134.250 C 65.082 135.762,64.410 137.000,63.953 137.000 C 63.496 137.000,62.819 139.025,62.448 141.500 C 62.077 143.975,61.406 146.000,60.958 146.000 C 60.510 146.000,59.835 148.475,59.457 151.500 C 59.079 154.525,58.431 157.000,58.016 157.000 C 57.602 157.000,56.945 158.912,56.557 161.250 C 56.168 163.588,55.467 167.750,54.998 170.500 C 53.849 177.245,53.935 209.033,55.124 216.500 C 55.649 219.800,56.333 224.188,56.644 226.250 C 56.955 228.313,57.580 230.000,58.033 230.000 C 58.486 230.000,59.165 232.475,59.543 235.500 C 59.921 238.525,60.571 241.000,60.987 241.000 C 61.404 241.000,62.032 242.800,62.384 245.000 C 62.736 247.200,63.411 249.000,63.884 249.000 C 64.357 249.000,65.032 250.800,65.384 253.000 C 65.736 255.200,66.468 257.000,67.012 257.000 C 67.555 257.000,68.000 257.675,68.000 258.500 C 68.000 259.325,68.414 260.000,68.921 260.000 C 69.427 260.000,70.138 261.350,70.500 263.000 C 70.862 264.650,71.537 266.000,72.000 266.000 C 72.463 266.000,73.138 267.350,73.500 269.000 C 73.862 270.650,74.565 272.000,75.060 272.000 C 75.556 272.000,76.244 273.125,76.589 274.500 C 76.934 275.875,77.521 277.000,77.893 277.000 C 78.265 277.000,79.418 278.463,80.456 280.250 C 81.494 282.038,82.941 283.860,83.672 284.300 C 84.402 284.740,85.000 285.533,85.000 286.063 C 85.000 287.464,98.606 302.094,103.346 305.789 C 104.714 306.856,105.000 309.066,105.000 318.553 C 105.000 325.879,105.452 330.832,106.250 332.253 C 108.093 335.534,111.054 338.000,113.153 338.000 C 114.169 338.000,115.000 338.414,115.000 338.921 C 115.000 339.427,116.345 340.136,117.989 340.497 C 119.632 340.858,121.234 341.569,121.548 342.077 C 121.861 342.585,122.991 343.000,124.059 343.000 C 125.127 343.000,126.000 343.414,126.000 343.921 C 126.000 344.427,127.350 345.138,129.000 345.500 C 130.650 345.862,132.000 346.537,132.000 347.000 C 132.000 347.463,133.350 348.138,135.000 348.500 C 136.650 348.862,138.000 349.546,138.000 350.018 C 138.000 350.491,140.137 351.192,142.750 351.578 C 145.363 351.963,147.756 352.673,148.070 353.156 C 148.383 353.639,152.346 354.321,156.875 354.670 C 164.950 355.293,165.122 355.361,165.685 358.173 C 166.000 359.751,166.650 361.284,167.129 361.580 C 167.608 361.876,168.000 363.441,168.000 365.059 C 168.000 366.677,168.399 368.000,168.886 368.000 C 169.374 368.000,170.077 370.025,170.448 372.500 C 170.819 374.975,171.484 377.000,171.925 377.000 C 172.367 377.000,172.993 378.933,173.317 381.295 C 173.641 383.657,174.599 386.919,175.447 388.545 C 176.294 390.170,176.990 392.436,176.994 393.581 C 177.008 398.442,187.074 399.953,219.614 399.980 C 254.431 400.009,260.000 398.324,260.000 387.763 C 260.000 382.062,261.152 380.562,266.154 379.750 C 271.175 378.935,274.000 376.275,274.000 372.361 C 274.000 370.604,274.511 368.996,275.136 368.788 C 275.967 368.511,275.979 367.883,275.182 366.455 C 274.583 365.380,273.808 361.012,273.461 356.750 C 273.114 352.487,272.418 349.000,271.915 349.000 C 271.412 349.000,271.000 346.975,271.000 344.500 C 271.000 340.376,271.207 340.000,273.481 340.000 C 275.351 340.000,276.131 339.326,276.650 337.260 C 277.464 334.017,279.273 332.000,281.370 332.000 C 282.201 332.000,283.160 331.550,283.500 331.000 C 284.478 329.417,296.000 329.722,296.000 331.331 C 296.000 334.401,300.451 335.195,315.694 334.845 L 330.666 334.500 334.333 330.610 C 336.350 328.471,338.000 326.108,338.000 325.360 C 338.000 324.612,338.428 324.000,338.950 324.000 C 339.473 324.000,340.206 321.300,340.580 318.000 C 340.953 314.700,341.650 312.000,342.129 312.000 C 342.608 312.000,343.000 309.525,343.000 306.500 C 343.000 303.475,342.613 301.000,342.140 301.000 C 341.667 301.000,341.018 298.461,340.697 295.358 C 340.377 292.254,339.639 289.239,339.058 288.658 C 338.476 288.076,337.997 286.903,337.994 286.050 C 337.990 285.198,337.385 283.345,336.648 281.933 C 335.912 280.522,334.993 278.109,334.607 276.572 C 334.222 275.035,332.259 272.224,330.246 270.325 C 327.897 268.109,326.990 266.624,327.714 266.177 C 328.334 265.794,329.151 264.247,329.529 262.740 C 329.907 261.233,330.618 260.000,331.108 260.000 C 331.599 260.000,332.000 259.325,332.000 258.500 C 332.000 257.675,332.445 257.000,332.988 257.000 C 333.532 257.000,334.264 255.200,334.616 253.000 C 334.968 250.800,335.643 249.000,336.116 249.000 C 336.589 249.000,337.264 247.200,337.616 245.000 C 337.968 242.800,338.596 241.000,339.013 241.000 C 339.429 241.000,340.079 238.525,340.457 235.500 C 340.835 232.475,341.514 230.000,341.967 230.000 C 342.420 230.000,343.017 228.313,343.294 226.250 C 343.572 224.188,344.343 219.125,345.008 215.000 C 346.542 205.480,345.889 167.489,344.161 165.761 C 343.523 165.123,343.000 162.890,343.000 160.800 C 343.000 158.710,342.602 157.000,342.115 157.000 C 341.629 157.000,340.921 154.525,340.543 151.500 C 340.165 148.475,339.490 146.000,339.042 146.000 C 338.594 146.000,337.923 143.975,337.552 141.500 C 337.181 139.025,336.504 137.000,336.047 137.000 C 335.590 137.000,334.918 135.763,334.552 134.250 C 333.622 130.398,331.640 126.000,330.835 126.000 C 330.463 126.000,329.862 124.650,329.500 123.000 C 329.138 121.350,328.427 120.000,327.921 120.000 C 327.414 120.000,327.000 119.357,327.000 118.571 C 327.000 117.786,326.384 116.527,325.632 115.775 C 324.879 115.022,323.949 113.415,323.565 112.203 C 323.180 110.992,322.446 110.000,321.933 110.000 C 321.420 110.000,321.000 109.502,321.000 108.894 C 321.000 107.726,315.051 99.736,313.757 99.167 C 313.341 98.983,313.000 98.346,313.000 97.751 C 313.000 97.156,310.300 94.011,307.000 90.762 C 303.700 87.513,301.000 84.212,301.000 83.427 C 301.000 82.642,300.618 82.000,300.152 82.000 C 299.686 82.000,299.008 77.162,298.647 71.250 C 298.285 65.337,297.542 60.350,296.995 60.167 C 296.448 59.983,296.002 58.858,296.005 57.667 C 296.011 54.824,292.833 46.000,291.802 46.000 C 291.361 46.000,291.000 45.132,291.000 44.071 C 291.000 43.011,290.384 41.527,289.632 40.775 C 288.879 40.022,287.949 38.415,287.565 37.203 C 287.180 35.992,286.446 35.000,285.933 35.000 C 285.420 35.000,285.000 34.502,285.000 33.893 C 285.000 31.552,260.884 9.000,258.380 9.000 C 257.713 9.000,257.017 8.662,256.833 8.250 C 256.239 6.913,250.250 4.000,248.096 4.000 C 246.943 4.000,246.000 3.605,246.000 3.122 C 246.000 0.426,202.553 -1.078,187.627 1.101 M223.000 10.871 C 223.000 11.350,226.150 12.052,230.000 12.431 C 233.850 12.811,237.000 13.504,237.000 13.973 C 237.000 14.441,238.800 15.128,241.000 15.500 C 243.200 15.872,245.000 16.586,245.000 17.088 C 245.000 17.590,245.580 18.000,246.289 18.000 C 250.509 18.000,268.000 30.556,268.000 33.586 C 268.000 33.962,269.071 35.263,270.379 36.476 C 275.182 40.927,275.549 43.000,271.535 43.000 C 269.591 43.000,268.000 43.450,268.000 44.000 C 268.000 44.550,267.357 45.000,266.571 45.000 C 264.147 45.000,262.000 47.986,262.000 51.357 L 262.000 54.571 270.281 54.536 L 278.563 54.500 282.647 58.538 C 284.893 60.759,287.072 63.684,287.488 65.038 C 287.904 66.392,288.612 67.963,289.061 68.529 C 289.511 69.095,290.115 74.270,290.404 80.029 C 290.693 85.788,290.688 89.713,290.392 88.750 C 290.096 87.787,289.472 87.000,289.006 87.000 C 288.540 87.000,287.862 85.650,287.500 84.000 C 287.138 82.350,286.427 81.000,285.921 81.000 C 285.414 81.000,285.000 80.343,285.000 79.541 C 285.000 76.247,281.513 70.988,279.500 71.245 C 277.422 71.510,275.788 79.000,277.808 79.000 C 278.319 79.000,278.977 80.688,279.270 82.750 C 279.563 84.813,280.097 87.226,280.456 88.114 C 281.174 89.887,277.672 91.000,271.375 91.000 C 267.298 91.000,266.521 95.521,270.000 99.000 C 272.025 101.025,283.377 102.027,284.167 100.250 C 284.350 99.837,286.032 98.694,287.905 97.708 L 291.309 95.916 290.717 110.530 C 290.391 118.568,289.702 125.675,289.186 126.322 C 288.669 126.970,287.934 130.088,287.551 133.250 C 287.169 136.412,286.498 139.000,286.060 139.000 C 285.622 139.000,285.008 140.903,284.696 143.228 C 284.384 145.554,283.650 147.617,283.065 147.812 C 282.479 148.007,282.000 149.003,282.000 150.024 C 282.000 151.046,281.585 152.139,281.077 152.452 C 280.569 152.766,279.858 154.368,279.497 156.011 C 279.136 157.655,278.427 159.000,277.921 159.000 C 277.414 159.000,277.000 159.468,277.000 160.040 C 277.000 161.024,273.208 166.925,271.885 168.000 C 271.546 168.275,270.954 169.512,270.567 170.750 C 270.181 171.987,269.446 173.000,268.933 173.000 C 268.420 173.000,268.000 173.424,268.000 173.941 C 268.000 175.534,259.351 183.754,256.855 184.534 C 255.560 184.939,254.275 185.546,254.000 185.885 C 252.637 187.562,239.551 193.000,236.878 193.000 C 235.845 193.000,235.000 193.450,235.000 194.000 C 235.000 194.588,231.500 195.000,226.500 195.000 C 221.500 195.000,218.000 194.588,218.000 194.000 C 218.000 193.450,217.151 193.000,216.114 193.000 C 215.077 193.000,212.940 192.328,211.364 191.506 C 209.789 190.685,207.761 190.010,206.857 190.006 C 205.953 190.003,204.955 189.325,204.638 188.500 C 204.322 187.675,203.374 187.000,202.531 187.000 C 201.689 187.000,201.000 186.550,201.000 186.000 C 201.000 185.450,200.327 185.000,199.503 185.000 C 198.187 185.000,182.000 169.649,182.000 168.400 C 182.000 168.134,181.542 167.372,180.981 166.708 C 179.075 164.447,176.504 161.168,174.610 158.581 C 171.449 154.264,169.616 155.178,170.372 160.696 C 170.726 163.278,171.401 165.641,171.873 165.946 C 172.345 166.251,173.075 167.604,173.497 168.953 C 173.919 170.303,174.767 171.943,175.382 172.599 C 175.997 173.254,177.625 175.237,179.000 177.004 C 183.646 182.976,191.946 191.000,193.478 191.000 C 194.315 191.000,195.000 191.450,195.000 192.000 C 195.000 192.550,193.875 193.000,192.500 193.000 C 191.125 193.000,190.000 193.401,190.000 193.892 C 190.000 194.382,188.875 195.066,187.500 195.411 C 186.125 195.756,185.000 196.480,185.000 197.019 C 185.000 197.559,183.200 198.000,181.000 198.000 C 178.800 198.000,177.000 197.613,177.000 197.140 C 177.000 196.667,174.420 196.013,171.266 195.688 C 168.112 195.363,165.375 194.625,165.183 194.048 C 164.991 193.472,164.074 193.000,163.145 193.000 C 160.659 193.000,152.263 184.896,151.468 181.729 C 151.091 180.228,150.418 179.000,149.971 179.000 C 149.524 179.000,148.862 177.650,148.500 176.000 C 148.138 174.350,147.447 173.000,146.966 173.000 C 146.484 173.000,145.794 171.420,145.432 169.489 C 145.070 167.558,144.374 165.731,143.887 165.430 C 143.399 165.129,143.000 163.821,143.000 162.524 C 143.000 161.228,142.617 160.017,142.150 159.833 C 139.614 158.839,140.218 151.022,143.082 147.773 C 148.907 141.167,144.721 132.422,138.643 138.500 C 137.818 139.325,136.647 140.000,136.040 140.000 C 135.433 140.000,134.678 140.675,134.362 141.500 C 133.752 143.088,129.000 143.627,129.000 142.108 C 129.000 141.618,127.785 140.912,126.301 140.539 C 122.348 139.547,116.258 132.542,115.335 127.926 C 115.009 126.294,114.350 124.716,113.871 124.420 C 112.662 123.673,112.766 110.000,113.981 110.000 C 114.520 110.000,115.244 108.875,115.589 107.500 C 115.934 106.125,116.586 105.000,117.037 105.000 C 117.488 105.000,118.620 104.237,119.552 103.305 C 124.403 98.454,135.670 100.830,137.443 107.077 C 137.821 108.410,137.764 109.040,137.316 108.477 C 131.489 101.167,118.000 103.329,118.000 111.573 C 118.000 114.981,120.296 116.505,121.280 113.750 C 121.525 113.063,122.108 112.858,122.575 113.295 C 123.042 113.733,122.879 114.964,122.212 116.032 C 120.750 118.373,120.600 124.000,122.000 124.000 C 122.550 124.000,123.000 124.930,123.000 126.066 C 123.000 128.611,124.733 132.000,126.035 132.000 C 126.566 132.000,127.000 129.525,127.000 126.500 C 127.000 123.475,127.450 121.000,128.000 121.000 C 128.550 121.000,129.000 119.902,129.000 118.559 C 129.000 113.432,131.626 114.973,135.422 122.328 C 137.927 127.184,139.430 126.529,139.791 120.421 L 140.083 115.500 146.634 115.839 C 152.211 116.128,153.468 115.874,155.092 114.131 C 157.013 112.070,157.750 107.000,156.129 107.000 C 155.650 107.000,154.948 103.850,154.569 100.000 C 154.189 96.150,153.456 93.000,152.939 93.000 C 152.423 93.000,152.000 91.200,152.000 89.000 C 152.000 86.800,152.403 85.000,152.896 85.000 C 153.389 85.000,154.111 81.400,154.500 77.000 C 154.889 72.600,155.611 69.000,156.104 69.000 C 156.597 69.000,157.000 64.500,157.000 59.000 C 157.000 53.000,156.600 49.000,156.000 49.000 C 155.450 49.000,155.000 48.325,155.000 47.500 C 155.000 46.675,155.450 46.000,156.000 46.000 C 156.550 46.000,157.000 45.325,157.000 44.500 C 157.000 43.675,157.420 43.000,157.933 43.000 C 158.446 43.000,159.153 42.094,159.504 40.986 C 160.971 36.364,184.210 18.000,188.592 18.000 C 189.275 18.000,189.983 17.663,190.167 17.250 C 190.793 15.841,199.714 12.000,202.360 12.000 C 203.812 12.000,205.000 11.550,205.000 11.000 C 205.000 10.407,208.667 10.000,214.000 10.000 C 218.950 10.000,223.000 10.392,223.000 10.871 M162.654 25.564 C 159.544 28.625,157.000 31.726,157.000 32.457 C 157.000 33.188,156.325 34.045,155.500 34.362 C 154.675 34.678,154.000 35.396,154.000 35.957 C 154.000 38.947,150.449 41.000,145.278 41.000 C 142.375 41.000,140.000 41.450,140.000 42.000 C 140.000 42.550,138.875 43.000,137.500 43.000 C 136.125 43.000,135.000 42.497,135.000 41.883 C 135.000 39.801,147.339 29.000,149.717 29.000 C 150.423 29.000,151.000 28.550,151.000 28.000 C 151.000 27.450,151.689 27.000,152.531 27.000 C 153.374 27.000,154.305 26.369,154.601 25.598 C 154.896 24.827,156.682 23.907,158.569 23.553 C 160.456 23.199,162.000 22.511,162.000 22.024 C 162.000 21.264,163.576 20.713,167.404 20.136 C 167.901 20.061,165.763 22.504,162.654 25.564 M195.000 46.875 C 195.000 47.356,193.762 48.008,192.250 48.324 C 182.690 50.317,172.791 73.000,181.481 73.000 C 183.293 73.000,184.131 72.326,184.589 70.500 C 184.934 69.125,185.588 68.000,186.041 68.000 C 186.494 68.000,187.165 67.056,187.531 65.901 C 188.457 62.985,191.474 60.170,194.484 59.415 C 195.878 59.065,197.266 58.378,197.568 57.889 C 197.871 57.400,200.791 57.000,204.059 57.000 L 210.000 57.000 210.000 53.115 C 210.000 50.089,209.455 48.873,207.535 47.615 C 204.938 45.913,195.000 45.327,195.000 46.875 M148.501 54.002 C 149.358 57.906,148.005 77.000,146.871 77.000 C 146.392 77.000,146.000 81.275,146.000 86.500 C 146.000 92.167,146.404 96.000,147.000 96.000 C 147.550 96.000,148.000 97.125,148.000 98.500 C 148.000 99.875,147.599 101.000,147.108 101.000 C 146.618 101.000,145.934 99.875,145.589 98.500 C 145.244 97.125,144.539 96.000,144.021 96.000 C 143.504 96.000,141.932 94.763,140.529 93.250 C 138.073 90.604,137.599 90.500,127.988 90.500 L 117.999 90.500 118.000 83.188 C 118.000 70.035,125.736 56.610,134.596 54.386 C 135.918 54.055,137.000 53.413,137.000 52.961 C 137.000 52.038,139.937 51.339,144.671 51.136 C 147.425 51.018,147.928 51.394,148.501 54.002 M214.250 72.496 C 212.833 74.105,212.546 79.000,213.868 79.000 C 214.346 79.000,214.992 80.903,215.304 83.228 C 215.616 85.554,216.350 87.617,216.935 87.812 C 217.521 88.007,218.000 88.804,218.000 89.583 C 218.000 90.362,218.398 91.000,218.883 91.000 C 219.369 91.000,220.002 91.900,220.290 93.000 C 220.773 94.846,220.320 95.000,214.406 95.000 C 210.802 95.000,208.000 94.563,208.000 94.000 C 208.000 92.515,205.067 92.790,203.429 94.429 C 198.105 99.752,204.300 104.500,216.571 104.500 C 230.091 104.500,234.718 97.145,226.609 88.547 C 224.624 86.442,223.000 84.108,223.000 83.360 C 223.000 82.612,222.643 82.000,222.207 82.000 C 221.771 82.000,220.573 79.525,219.545 76.500 C 217.634 70.878,216.457 69.989,214.250 72.496 M246.000 82.500 C 246.000 85.525,246.392 88.000,246.872 88.000 C 247.352 88.000,248.032 89.800,248.384 92.000 C 248.736 94.200,249.433 96.000,249.932 96.000 C 250.432 96.000,251.138 97.350,251.500 99.000 C 251.862 100.650,252.476 102.000,252.864 102.000 C 253.252 102.000,254.378 103.370,255.367 105.045 C 257.180 108.113,258.641 109.878,265.984 117.871 C 271.920 124.331,271.415 126.674,263.261 130.507 C 260.930 131.603,259.018 132.798,259.011 133.162 C 259.005 133.526,257.200 134.128,255.000 134.500 C 252.800 134.872,251.000 135.586,251.000 136.088 C 251.000 138.530,241.048 137.038,240.411 134.500 C 240.066 133.125,239.382 132.000,238.892 132.000 C 238.401 132.000,238.000 130.875,238.000 129.500 C 238.000 127.667,237.467 127.000,236.000 127.000 C 234.667 127.000,234.000 127.667,234.000 129.000 C 234.000 130.100,233.550 131.000,233.000 131.000 C 231.373 131.000,232.001 138.252,233.908 141.500 C 236.114 145.256,259.000 145.710,259.000 141.998 C 259.000 141.571,260.575 140.927,262.500 140.566 C 264.425 140.205,266.000 139.516,266.000 139.034 C 266.000 138.553,267.319 137.869,268.931 137.515 C 270.543 137.161,272.398 136.225,273.053 135.436 C 273.709 134.646,274.865 134.000,275.622 134.000 C 276.380 134.000,277.000 133.138,277.000 132.083 C 277.000 131.029,277.472 130.009,278.048 129.817 C 281.879 128.540,280.243 118.509,275.364 113.360 C 266.681 104.195,263.110 99.922,262.482 97.942 C 262.143 96.874,261.467 96.000,260.980 96.000 C 260.492 96.000,259.356 94.446,258.455 92.546 C 257.553 90.646,256.182 88.566,255.408 87.924 C 254.634 87.281,254.000 86.135,254.000 85.378 C 254.000 84.620,253.550 84.000,253.000 84.000 C 252.450 84.000,252.000 83.137,252.000 82.082 C 252.000 78.646,250.832 77.000,248.393 77.000 C 246.159 77.000,246.000 77.366,246.000 82.500 M107.033 97.195 C 105.872 98.441,104.688 100.594,104.401 101.980 C 104.114 103.366,103.456 105.281,102.940 106.236 C 101.685 108.556,101.733 121.717,103.000 122.500 C 103.550 122.840,104.000 124.432,104.000 126.039 C 104.000 128.944,106.741 137.046,108.046 138.000 C 108.423 138.275,109.046 139.512,109.433 140.750 C 109.819 141.988,110.554 143.000,111.067 143.000 C 111.580 143.000,112.000 143.450,112.000 144.000 C 112.000 144.550,112.900 145.900,114.000 147.000 C 115.100 148.100,116.450 149.000,117.000 149.000 C 117.550 149.000,118.000 149.441,118.000 149.981 C 118.000 150.520,119.125 151.244,120.500 151.589 C 121.875 151.934,123.000 152.562,123.000 152.983 C 123.000 153.405,124.310 154.012,125.911 154.332 C 128.219 154.794,128.961 155.597,129.493 158.207 C 130.478 163.042,132.301 168.000,133.092 168.000 C 133.472 168.000,134.093 169.233,134.471 170.740 C 134.849 172.247,135.589 173.746,136.115 174.071 C 137.994 175.233,138.435 182.000,136.631 182.000 C 135.734 182.000,135.000 182.410,135.000 182.911 C 135.000 183.411,132.863 184.899,130.250 186.215 C 124.887 188.919,120.742 191.258,120.000 192.000 C 118.990 193.010,115.451 195.075,113.750 195.646 C 112.787 195.969,112.000 196.631,112.000 197.117 C 112.000 197.602,111.357 198.000,110.571 198.000 C 109.786 198.000,108.541 198.563,107.806 199.250 C 107.071 199.938,104.763 201.372,102.678 202.438 C 100.592 203.504,97.827 205.358,96.533 206.557 C 95.238 207.757,93.003 209.033,91.564 209.394 C 85.517 210.912,80.734 228.078,85.880 229.793 C 86.496 229.999,87.002 230.917,87.004 231.833 C 87.009 233.705,91.435 246.768,92.386 247.720 C 92.724 248.057,93.000 249.158,93.000 250.167 C 93.000 251.175,93.445 252.000,93.988 252.000 C 94.532 252.000,95.264 253.800,95.616 256.000 C 95.968 258.200,96.606 260.000,97.034 260.000 C 97.462 260.000,98.134 262.363,98.527 265.250 C 98.920 268.137,99.590 270.725,100.015 271.000 C 100.440 271.275,101.118 275.032,101.521 279.349 L 102.253 287.197 100.127 285.376 C 98.957 284.375,98.000 283.018,98.000 282.361 C 98.000 281.704,97.659 281.017,97.243 280.833 C 96.826 280.650,94.925 278.475,93.018 276.000 C 91.112 273.525,89.315 271.274,89.026 270.997 C 88.439 270.436,84.191 262.727,82.556 259.258 C 81.975 258.025,81.198 257.012,80.829 257.008 C 80.461 257.004,79.862 255.650,79.500 254.000 C 79.138 252.350,78.463 251.000,78.000 251.000 C 77.537 251.000,76.856 249.620,76.485 247.933 C 76.115 246.246,75.182 243.658,74.412 242.183 C 73.642 240.707,73.010 238.488,73.006 237.250 C 73.003 236.012,72.602 235.000,72.115 235.000 C 71.629 235.000,70.922 232.532,70.545 229.516 C 70.168 226.499,69.442 223.773,68.930 223.457 C 68.419 223.141,68.000 221.146,68.000 219.024 C 68.000 216.903,67.499 215.000,66.886 214.795 C 65.346 214.282,65.373 171.709,66.914 171.195 C 67.511 170.996,68.000 169.097,68.000 166.976 C 68.000 164.854,68.398 162.872,68.885 162.571 C 69.371 162.271,70.074 159.992,70.447 157.507 C 70.819 155.022,71.768 151.754,72.556 150.245 C 73.343 148.735,73.990 146.488,73.994 145.250 C 73.997 144.012,74.445 143.000,74.988 143.000 C 75.532 143.000,76.264 141.200,76.616 139.000 C 76.968 136.800,77.599 135.000,78.019 135.000 C 78.439 135.000,79.075 133.837,79.432 132.415 C 79.789 130.993,80.980 128.864,82.079 127.685 C 83.178 126.505,84.334 124.518,84.647 123.270 C 84.960 122.021,85.569 121.000,86.000 121.000 C 86.431 121.000,87.066 119.875,87.411 118.500 C 87.756 117.125,88.480 116.000,89.019 116.000 C 89.559 116.000,90.000 115.347,90.000 114.550 C 90.000 113.752,90.602 112.740,91.339 112.300 C 92.075 111.860,93.151 110.631,93.730 109.568 C 95.422 106.463,108.469 93.023,108.822 94.021 C 108.999 94.521,108.194 95.949,107.033 97.195 M305.475 108.281 C 306.503 110.052,307.941 111.860,308.672 112.300 C 309.402 112.740,310.000 113.752,310.000 114.550 C 310.000 115.347,310.441 116.000,310.981 116.000 C 311.520 116.000,312.244 117.125,312.589 118.500 C 312.934 119.875,313.569 121.000,314.000 121.000 C 314.431 121.000,315.066 122.125,315.411 123.500 C 315.756 124.875,316.480 126.000,317.019 126.000 C 317.559 126.000,318.000 126.675,318.000 127.500 C 318.000 128.325,318.414 129.000,318.921 129.000 C 319.427 129.000,320.138 130.350,320.500 132.000 C 320.862 133.650,321.516 135.000,321.952 135.000 C 322.388 135.000,323.032 136.800,323.384 139.000 C 323.736 141.200,324.417 143.000,324.898 143.000 C 325.379 143.000,326.077 145.025,326.448 147.500 C 326.819 149.975,327.483 152.000,327.923 152.000 C 328.640 152.000,330.048 158.017,331.669 168.000 C 331.981 169.925,332.673 172.043,333.205 172.707 C 334.609 174.457,334.509 214.330,333.100 214.800 C 332.495 215.002,332.000 216.903,332.000 219.024 C 332.000 221.146,331.592 223.134,331.094 223.442 C 330.595 223.750,329.878 226.251,329.500 229.000 C 329.122 231.749,328.444 234.226,327.993 234.504 C 327.543 234.783,326.870 236.808,326.499 239.005 C 326.128 241.202,325.471 243.000,325.040 243.000 C 324.609 243.000,323.968 244.800,323.616 247.000 C 323.264 249.200,322.567 251.000,322.068 251.000 C 321.568 251.000,320.862 252.350,320.500 254.000 C 320.138 255.650,319.537 257.000,319.165 257.000 C 318.793 257.000,317.886 258.360,317.150 260.022 C 315.162 264.514,313.242 266.000,309.429 266.000 C 307.543 266.000,306.000 266.450,306.000 267.000 C 306.000 267.550,304.875 268.000,303.500 268.000 C 302.125 268.000,301.000 268.392,301.000 268.872 C 301.000 269.352,299.101 270.048,296.780 270.419 C 294.459 270.790,292.233 271.622,291.834 272.268 C 290.308 274.737,289.900 272.005,291.320 268.831 C 292.140 266.999,293.569 263.250,294.494 260.500 C 295.420 257.750,296.597 254.703,297.111 253.728 C 297.624 252.754,298.320 249.941,298.658 247.478 C 298.996 245.015,299.610 243.000,300.022 243.000 C 300.435 243.000,301.075 240.985,301.444 238.523 C 301.813 236.061,302.514 233.801,303.000 233.500 C 303.486 233.199,304.187 230.939,304.556 228.477 C 304.925 226.015,305.626 224.000,306.114 224.000 C 306.601 224.000,307.000 222.688,307.000 221.083 C 307.000 219.479,307.477 218.008,308.060 217.813 C 308.643 217.619,309.379 214.023,309.697 209.822 L 310.275 202.184 305.644 197.342 C 297.804 189.144,295.532 187.002,294.676 187.001 C 293.001 186.999,282.000 174.782,282.000 172.925 C 282.000 171.866,282.401 171.000,282.892 171.000 C 283.382 171.000,284.066 169.875,284.411 168.500 C 284.756 167.125,285.444 166.000,285.940 166.000 C 286.435 166.000,287.138 164.650,287.500 163.000 C 287.862 161.350,288.522 160.000,288.966 160.000 C 289.410 160.000,290.077 157.975,290.448 155.500 C 290.819 153.025,291.545 151.000,292.061 151.000 C 292.578 151.000,293.007 150.213,293.015 149.250 C 293.023 148.287,293.679 145.700,294.471 143.500 C 295.264 141.300,295.932 137.850,295.956 135.833 C 295.980 133.817,296.438 132.017,296.973 131.833 C 297.509 131.650,298.252 125.650,298.624 118.500 C 299.425 103.127,301.063 100.683,305.475 108.281 M278.750 137.689 C 277.788 137.941,277.000 138.528,277.000 138.994 C 277.000 139.460,275.650 140.138,274.000 140.500 C 272.350 140.862,271.000 141.573,271.000 142.079 C 271.000 142.586,270.325 143.000,269.500 143.000 C 268.675 143.000,268.000 143.428,268.000 143.950 C 268.000 144.473,265.300 145.206,262.000 145.580 C 258.700 145.953,256.000 146.650,256.000 147.129 C 256.000 147.608,251.725 148.000,246.500 148.000 C 241.275 148.000,237.000 147.608,237.000 147.128 C 237.000 146.649,233.383 146.048,228.963 145.792 C 224.543 145.536,220.403 144.803,219.763 144.163 C 218.033 142.433,213.000 142.683,213.000 144.500 C 213.000 145.325,213.343 146.000,213.763 146.000 C 214.182 146.000,214.970 146.976,215.513 148.168 C 216.056 149.361,217.381 150.823,218.458 151.418 C 219.535 152.013,221.029 153.063,221.779 153.750 C 222.529 154.438,224.011 155.000,225.071 155.000 C 226.132 155.000,227.000 155.450,227.000 156.000 C 227.000 156.550,228.035 157.000,229.300 157.000 C 230.565 157.000,232.028 157.417,232.550 157.928 C 233.837 159.184,255.000 160.535,255.000 159.360 C 255.000 158.858,256.839 158.622,259.086 158.837 C 265.025 159.403,280.000 150.624,280.000 146.576 C 280.000 146.213,280.900 144.950,282.000 143.770 C 286.058 139.414,284.354 136.225,278.750 137.689 M209.000 153.929 C 209.000 155.539,209.675 157.532,210.500 158.357 C 211.325 159.182,212.000 160.189,212.000 160.595 C 212.000 163.704,223.844 174.000,227.421 174.000 C 229.389 174.000,231.000 174.450,231.000 175.000 C 231.000 175.583,234.314 176.000,238.941 176.000 C 243.309 176.000,247.160 175.550,247.500 175.000 C 247.840 174.450,249.687 174.000,251.604 174.000 C 255.597 174.000,260.000 170.353,260.000 167.045 C 260.000 165.082,259.437 165.000,246.000 165.000 C 238.300 165.000,232.000 164.608,232.000 164.128 C 232.000 163.648,230.170 162.963,227.934 162.605 C 225.697 162.248,223.208 161.403,222.402 160.728 C 217.982 157.025,215.000 153.680,215.000 152.423 C 215.000 151.509,213.928 151.000,212.000 151.000 C 209.350 151.000,209.000 151.341,209.000 153.929 M281.161 192.764 C 284.275 195.919,287.821 199.175,289.041 200.000 C 296.832 205.269,298.514 207.887,298.233 214.305 C 298.087 217.659,297.570 220.649,297.085 220.951 C 296.600 221.253,295.871 224.200,295.466 227.500 C 295.061 230.800,294.449 233.725,294.106 234.000 C 293.175 234.748,289.989 244.238,289.995 246.250 C 289.998 247.213,289.578 248.000,289.061 248.000 C 288.545 248.000,287.819 250.025,287.448 252.500 C 287.077 254.975,286.379 257.000,285.898 257.000 C 285.417 257.000,284.736 258.800,284.384 261.000 C 284.032 263.200,283.442 265.000,283.073 265.000 C 282.704 265.000,281.808 266.688,281.081 268.750 C 278.654 275.643,276.589 277.000,268.526 277.000 C 264.192 277.000,260.886 277.490,260.088 278.250 C 259.014 279.272,258.911 279.044,259.522 277.000 C 259.933 275.625,260.610 274.275,261.025 274.000 C 261.441 273.725,262.776 271.587,263.992 269.250 C 265.207 266.913,266.494 264.995,266.851 264.989 C 267.208 264.982,268.360 263.182,269.411 260.989 C 270.462 258.795,271.664 257.000,272.081 257.000 C 272.499 257.000,273.138 255.650,273.500 254.000 C 273.862 252.350,274.565 251.000,275.060 251.000 C 275.556 251.000,276.244 249.875,276.589 248.500 C 276.934 247.125,277.569 246.000,278.000 246.000 C 278.431 246.000,279.066 244.875,279.411 243.500 C 279.756 242.125,280.480 241.000,281.019 241.000 C 282.998 241.000,281.943 235.852,279.500 233.588 C 276.814 231.098,276.323 229.392,278.121 228.793 C 278.874 228.542,279.241 224.021,279.241 215.000 C 279.241 205.979,278.874 201.458,278.121 201.207 C 277.504 201.001,277.000 199.846,277.000 198.639 C 277.000 197.432,276.212 195.701,275.250 194.793 C 270.005 189.842,269.767 187.401,274.500 187.093 C 275.050 187.057,278.048 189.609,281.161 192.764 M146.000 195.000 C 147.100 196.100,148.000 197.433,148.000 197.963 C 148.000 199.321,156.153 207.000,157.594 207.000 C 158.250 207.000,159.045 207.675,159.362 208.500 C 159.678 209.325,160.626 210.000,161.469 210.000 C 162.311 210.000,163.000 210.430,163.000 210.955 C 163.000 211.480,164.575 212.205,166.500 212.566 C 168.425 212.927,170.000 213.587,170.000 214.032 C 170.000 214.477,171.350 215.138,173.000 215.500 C 174.650 215.862,176.000 216.463,176.000 216.835 C 176.000 217.207,177.350 218.109,179.000 218.840 C 181.109 219.773,182.000 220.867,182.000 222.525 C 182.000 223.821,182.397 225.128,182.883 225.428 C 183.369 225.728,184.076 228.455,184.455 231.487 C 184.834 234.519,185.534 237.000,186.011 237.000 C 186.487 237.000,187.181 239.025,187.552 241.500 C 187.923 243.975,188.626 246.000,189.114 246.000 C 189.601 246.000,190.000 246.643,190.000 247.429 C 190.000 249.798,192.958 252.000,196.139 252.000 C 199.059 252.000,199.628 255.773,196.868 256.833 C 191.586 258.862,201.039 271.000,207.901 271.000 C 208.506 271.000,209.000 271.414,209.000 271.921 C 209.000 272.427,210.350 273.138,212.000 273.500 C 213.650 273.862,215.000 274.537,215.000 275.000 C 215.000 275.463,216.350 276.138,218.000 276.500 C 225.647 278.180,217.803 280.000,202.919 280.000 C 198.079 280.000,193.840 280.450,193.500 281.000 C 193.160 281.550,189.560 282.000,185.500 282.000 C 181.440 282.000,177.840 282.450,177.500 283.000 C 177.160 283.550,174.464 284.000,171.508 284.000 C 164.693 284.000,164.724 284.094,165.025 264.634 C 165.350 243.657,165.514 244.808,162.250 245.184 L 159.500 245.500 159.227 263.750 C 158.962 281.545,158.567 283.593,156.000 280.500 C 155.315 279.675,154.135 279.000,153.378 279.000 C 152.620 279.000,152.000 278.520,152.000 277.934 C 152.000 277.347,150.766 277.010,149.259 277.184 C 146.482 277.504,144.824 280.630,146.767 281.880 C 149.289 283.502,149.079 286.763,146.410 287.433 C 136.760 289.855,139.471 294.436,150.761 294.788 L 160.000 295.075 160.000 300.038 C 160.000 302.767,160.392 305.000,160.872 305.000 C 161.351 305.000,162.071 310.512,162.473 317.250 C 162.874 323.988,163.549 329.725,163.972 330.000 C 164.396 330.275,164.941 333.313,165.185 336.750 L 165.628 343.000 161.314 343.000 C 158.941 343.000,157.000 342.611,157.000 342.136 C 157.000 341.661,155.067 341.007,152.705 340.683 C 150.343 340.359,147.081 339.401,145.455 338.553 C 143.830 337.706,141.938 337.010,141.250 337.006 C 140.563 337.003,140.000 336.550,140.000 336.000 C 140.000 335.450,139.464 335.000,138.810 335.000 C 137.517 335.000,124.816 328.903,124.000 327.890 C 123.725 327.549,122.396 326.925,121.047 326.503 C 116.641 325.126,116.303 323.989,115.539 307.960 C 115.134 299.457,114.457 292.050,114.034 291.500 C 113.612 290.950,112.958 286.237,112.581 281.026 C 112.203 275.816,111.528 271.316,111.080 271.026 C 110.632 270.737,109.946 267.467,109.554 263.761 C 109.163 260.054,108.428 256.765,107.922 256.452 C 107.415 256.138,107.000 254.784,107.000 253.441 C 107.000 252.098,106.602 251.000,106.115 251.000 C 105.629 251.000,104.921 248.525,104.543 245.500 C 104.165 242.475,103.490 240.000,103.042 240.000 C 102.594 240.000,101.923 237.975,101.552 235.500 C 101.181 233.025,100.505 231.000,100.050 231.000 C 99.595 231.000,98.927 229.425,98.566 227.500 C 98.205 225.575,97.396 224.000,96.768 224.000 C 96.140 224.000,96.919 222.650,98.500 221.000 C 100.081 219.350,101.761 218.000,102.235 218.000 C 102.708 218.000,104.087 216.938,105.298 215.639 C 106.509 214.340,108.513 212.960,109.750 212.572 C 110.987 212.183,112.000 211.446,112.000 210.933 C 112.000 210.420,112.689 210.000,113.531 210.000 C 114.374 210.000,115.322 209.325,115.638 208.500 C 115.955 207.675,116.841 207.000,117.607 207.000 C 118.373 207.000,119.000 206.559,119.000 206.019 C 119.000 205.480,120.125 204.756,121.500 204.411 C 122.875 204.066,124.000 203.431,124.000 203.000 C 124.000 202.569,125.125 201.934,126.500 201.589 C 127.875 201.244,129.000 200.556,129.000 200.060 C 129.000 199.565,130.350 198.862,132.000 198.500 C 133.650 198.138,135.000 197.463,135.000 197.000 C 135.000 196.537,136.350 195.862,138.000 195.500 C 139.650 195.138,141.000 194.427,141.000 193.921 C 141.000 192.301,143.934 192.934,146.000 195.000 M268.053 203.046 C 270.252 204.953,270.415 205.821,270.456 215.796 L 270.500 226.500 261.145 226.216 C 250.981 225.908,249.000 224.988,249.000 220.571 C 249.000 218.238,249.370 218.000,253.000 218.000 C 255.200 218.000,257.000 217.518,257.000 216.929 C 257.000 214.898,254.135 213.000,251.071 213.000 C 247.649 213.000,246.727 210.409,249.750 209.288 C 250.713 208.931,252.202 207.850,253.059 206.886 C 253.917 205.922,255.829 204.830,257.309 204.459 C 258.789 204.087,260.000 203.415,260.000 202.965 C 260.000 202.204,262.029 201.388,264.597 201.116 C 265.200 201.052,266.756 201.921,268.053 203.046 M181.500 207.000 C 181.500 209.511,177.038 210.268,176.167 207.905 C 175.983 207.407,174.939 207.000,173.845 207.000 C 172.752 207.000,171.159 206.302,170.306 205.449 C 168.905 204.048,169.370 203.927,175.128 204.199 C 181.178 204.485,181.500 204.626,181.500 207.000 M206.242 206.186 C 207.750 206.908,208.988 207.838,208.992 208.250 C 208.996 208.662,209.513 209.000,210.140 209.000 C 211.391 209.000,220.198 213.135,221.000 214.099 C 221.275 214.430,222.175 214.957,223.000 215.271 C 224.218 215.735,224.180 215.857,222.797 215.921 C 217.466 216.168,213.378 221.000,218.500 221.000 C 219.875 221.000,221.000 221.450,221.000 222.000 C 221.000 222.550,222.098 223.000,223.441 223.000 C 228.853 223.000,227.318 225.637,216.746 234.500 C 213.713 237.043,205.770 241.000,203.699 241.000 C 202.830 241.000,201.840 241.450,201.500 242.000 C 199.590 245.091,196.387 242.919,194.495 237.250 C 193.440 234.088,192.110 231.179,191.538 230.787 C 189.770 229.572,190.188 206.140,192.000 204.914 C 193.869 203.649,202.573 204.427,206.242 206.186 M239.000 205.500 C 237.699 207.067,234.342 207.452,231.498 206.361 C 228.930 205.376,231.719 204.034,236.372 204.015 C 239.702 204.002,240.070 204.210,239.000 205.500 M238.418 215.607 C 241.616 216.834,239.333 223.000,235.681 223.000 C 234.295 223.000,232.747 216.586,233.864 215.469 C 234.512 214.821,236.529 214.882,238.418 215.607 M246.595 232.500 C 248.078 233.875,249.901 235.000,250.646 235.000 C 251.676 235.000,251.996 236.971,251.985 243.250 C 251.976 248.090,251.622 250.953,251.130 250.176 C 249.676 247.883,243.558 249.095,243.180 251.750 C 242.727 254.943,241.277 254.537,240.500 251.000 C 240.138 249.350,239.463 248.000,239.000 248.000 C 238.537 248.000,237.842 246.537,237.454 244.750 C 237.066 242.963,236.468 241.275,236.124 241.000 C 235.078 240.162,232.000 234.263,232.000 233.096 C 232.000 232.493,233.350 232.000,235.000 232.000 C 236.650 232.000,238.000 231.550,238.000 231.000 C 238.000 228.982,243.912 230.014,246.595 232.500 M271.156 237.156 C 273.070 239.070,273.691 243.000,272.079 243.000 C 271.573 243.000,270.862 244.350,270.500 246.000 C 270.138 247.650,269.498 249.000,269.078 249.000 C 268.658 249.000,267.457 250.681,266.407 252.735 C 265.358 254.789,263.938 257.071,263.250 257.806 C 262.563 258.541,262.000 259.786,262.000 260.571 C 262.000 261.357,261.580 262.000,261.067 262.000 C 260.554 262.000,259.849 262.900,259.500 264.000 C 258.543 267.016,257.000 266.399,257.000 263.000 C 257.000 261.350,257.450 260.000,258.000 260.000 C 258.550 260.000,259.003 257.413,259.007 254.250 C 259.021 242.896,260.168 235.120,261.890 234.702 C 264.669 234.028,269.238 235.238,271.156 237.156 M240.607 236.582 C 238.530 241.995,241.935 246.262,246.626 244.124 C 251.160 242.059,249.515 235.000,244.500 235.000 C 242.426 235.000,240.990 235.583,240.607 236.582 M228.000 246.512 C 229.375 249.507,230.838 251.968,231.250 251.979 C 231.662 251.991,232.000 252.675,232.000 253.500 C 232.000 254.325,232.400 255.000,232.889 255.000 C 233.377 255.000,234.073 256.575,234.434 258.500 C 234.795 260.425,235.470 262.000,235.934 262.000 C 236.398 262.000,237.073 263.575,237.434 265.500 C 237.795 267.425,238.468 269.000,238.929 269.000 C 239.390 269.000,239.965 270.035,240.207 271.301 C 240.595 273.331,240.315 273.553,237.823 273.187 C 236.270 272.959,235.000 272.432,235.000 272.014 C 235.000 271.597,233.200 270.968,231.000 270.616 C 228.800 270.264,227.000 269.532,227.000 268.988 C 227.000 268.445,226.325 268.000,225.500 268.000 C 224.675 268.000,224.000 267.550,224.000 267.000 C 224.000 266.450,223.438 265.998,222.750 265.995 C 222.063 265.992,218.435 264.417,214.689 262.495 C 210.943 260.573,207.231 259.000,206.439 259.000 C 205.648 259.000,205.000 258.550,205.000 258.000 C 205.000 257.450,205.450 257.000,206.000 257.000 C 206.550 257.000,207.000 256.555,207.000 256.011 C 207.000 254.769,209.640 251.506,213.389 248.114 C 214.979 246.676,216.859 244.938,217.568 244.250 C 218.277 243.563,219.146 243.000,219.500 243.000 C 219.854 243.000,220.799 242.344,221.600 241.542 C 223.782 239.361,225.236 240.491,228.000 246.512 M251.000 262.500 C 251.000 266.722,250.652 268.000,249.500 268.000 C 248.675 268.000,248.000 267.325,248.000 266.500 C 248.000 265.675,247.602 265.000,247.117 265.000 C 246.631 265.000,246.014 263.988,245.745 262.750 C 245.477 261.512,244.926 259.712,244.522 258.750 C 243.900 257.271,244.344 257.000,247.393 257.000 L 251.000 257.000 251.000 262.500 M321.866 278.790 C 324.855 281.804,328.303 290.733,329.583 298.772 C 329.957 301.122,330.654 303.286,331.131 303.581 C 334.912 305.918,328.842 324.000,324.278 324.000 C 323.575 324.000,323.000 324.450,323.000 325.000 C 323.000 325.550,322.100 326.000,321.000 326.000 C 319.900 326.000,319.000 325.550,319.000 325.000 C 319.000 324.450,319.450 324.000,320.000 324.000 C 320.550 324.000,321.000 323.367,321.000 322.594 C 321.000 320.542,312.662 319.665,301.049 320.496 L 291.233 321.199 290.505 309.090 C 290.105 302.430,289.378 296.734,288.889 296.431 C 287.275 295.434,287.821 287.000,289.500 287.000 C 290.325 287.000,291.000 286.555,291.000 286.012 C 291.000 285.468,292.800 284.736,295.000 284.384 C 297.200 284.032,299.000 283.352,299.000 282.872 C 299.000 282.392,300.125 282.000,301.500 282.000 C 302.875 282.000,304.000 281.590,304.000 281.088 C 304.000 280.586,305.800 279.872,308.000 279.500 C 310.200 279.128,312.000 278.447,312.000 277.985 C 312.000 275.535,319.222 276.124,321.866 278.790 M305.750 284.728 C 303.688 284.944,302.000 285.495,302.000 285.952 C 302.000 286.409,300.837 287.075,299.415 287.432 C 293.461 288.926,289.816 296.000,295.000 296.000 C 297.533 296.000,298.000 296.389,298.000 298.500 L 298.000 301.000 308.393 301.000 C 317.172 301.000,318.885 300.741,319.426 299.333 C 320.432 296.711,319.009 296.087,310.165 295.267 L 301.897 294.500 306.699 292.000 C 309.339 290.625,311.650 289.163,311.833 288.750 C 312.017 288.337,312.804 288.000,313.583 288.000 C 314.363 288.000,315.000 287.100,315.000 286.000 C 315.000 283.901,314.422 283.821,305.750 284.728 M236.853 290.642 C 242.462 291.229,243.000 291.491,243.000 293.642 C 243.000 294.939,243.382 296.000,243.849 296.000 C 244.315 296.000,245.019 306.679,245.412 319.730 C 245.806 332.782,246.485 343.695,246.922 343.980 C 247.359 344.266,247.955 354.016,248.247 365.647 L 248.778 386.794 245.764 387.397 C 244.106 387.729,241.456 388.000,239.875 388.000 C 238.294 388.000,237.000 388.450,237.000 389.000 C 237.000 389.625,231.000 390.000,221.000 390.000 C 212.200 390.000,205.000 389.615,205.000 389.144 C 205.000 388.673,201.738 387.985,197.750 387.616 C 193.762 387.247,190.350 386.507,190.167 385.973 C 189.983 385.438,188.773 385.000,187.478 385.000 C 185.453 385.000,185.028 384.369,184.448 380.500 C 184.077 378.025,183.374 376.000,182.886 376.000 C 182.399 376.000,182.000 374.875,182.000 373.500 C 182.000 372.125,181.594 371.000,181.098 371.000 C 180.602 371.000,179.883 368.300,179.500 365.000 C 179.117 361.700,178.450 359.000,178.018 359.000 C 177.586 359.000,176.920 356.075,176.537 352.500 C 176.154 348.925,175.479 346.000,175.038 346.000 C 174.596 346.000,173.911 342.512,173.514 338.250 C 173.118 333.988,172.503 330.050,172.147 329.500 C 171.366 328.293,169.071 312.109,168.353 302.750 C 168.040 298.668,167.374 295.955,166.668 295.885 C 165.055 295.726,172.621 293.974,177.500 293.376 C 179.700 293.107,182.400 292.469,183.500 291.958 C 186.904 290.379,225.275 289.432,236.853 290.642 M277.628 290.765 C 278.248 291.169,279.074 293.410,279.465 295.745 C 279.855 298.079,280.585 300.243,281.087 300.554 C 281.589 300.864,282.000 303.566,282.000 306.559 C 282.000 309.552,282.450 312.000,283.000 312.000 C 286.145 312.000,283.993 322.774,280.750 323.267 C 276.207 323.959,276.000 323.665,276.000 316.524 C 276.000 313.028,275.606 310.017,275.125 309.833 C 274.644 309.650,273.927 305.113,273.532 299.750 C 272.784 289.607,273.487 288.067,277.628 290.765 M260.541 292.398 C 261.524 293.381,262.142 297.837,262.622 307.398 C 262.997 314.879,263.686 321.000,264.152 321.000 C 264.618 321.000,265.000 323.025,265.000 325.500 C 265.000 329.288,264.693 330.000,263.059 330.000 C 261.991 330.000,260.840 330.450,260.500 331.000 C 259.784 332.158,255.028 332.315,253.377 331.235 C 252.634 330.749,252.102 323.802,251.809 310.750 L 251.365 291.000 255.254 291.000 C 257.393 291.000,259.772 291.629,260.541 292.398 M297.750 306.392 C 294.382 308.948,295.767 310.000,302.500 310.000 C 306.167 310.000,309.000 310.436,309.000 311.000 C 309.000 312.635,319.933 312.209,321.635 310.508 C 323.653 308.490,322.509 307.000,318.941 307.000 C 317.323 307.000,316.000 306.550,316.000 306.000 C 316.000 304.453,299.847 304.800,297.750 306.392 M316.762 326.687 C 315.806 326.937,314.006 326.946,312.762 326.707 C 311.518 326.468,312.300 326.263,314.500 326.252 C 316.700 326.241,317.718 326.437,316.762 326.687 M260.000 343.500 C 260.000 344.875,260.397 346.000,260.883 346.000 C 261.368 346.000,262.081 349.372,262.467 353.493 C 262.853 357.615,263.581 361.241,264.085 361.552 C 267.513 363.671,264.058 369.523,258.796 370.510 L 255.305 371.165 254.659 364.333 C 253.319 350.136,253.767 343.000,256.000 343.000 C 257.100 343.000,258.000 342.550,258.000 342.000 C 258.000 341.450,258.450 341.000,259.000 341.000 C 259.550 341.000,260.000 342.125,260.000 343.500 " stroke="none" fill-rule="evenodd"></path>
</g>
</svg>