<svg version="1.1" width="400" height="400" xmlns="http://www.w3.org/2000/svg">
<g>
<path d="M212.000 15.618 C 138.520 19.177,95.890 38.785,83.835 74.569 C 82.551 78.381,80.825 81.921,80.000 82.436 C 71.585 87.684,64.343 98.420,61.404 110.000 C 59.517 117.440,59.890 145.434,61.969 152.295 C 63.106 156.047,63.061 156.152,58.006 161.684 C 31.926 190.219,49.154 242.234,85.853 245.760 L 90.733 246.229 91.970 251.864 C 93.434 258.535,99.240 274.503,102.690 281.349 C 104.035 284.017,104.992 286.328,104.817 286.485 C 104.643 286.643,93.700 292.937,80.500 300.472 C 28.350 330.240,20.777 335.505,19.637 342.782 C 19.008 346.797,30.468 378.885,34.268 383.750 C 36.047 386.027,358.701 385.531,359.407 383.250 C 361.328 377.038,368.053 332.773,368.227 325.190 L 368.438 316.032 364.470 311.969 C 359.811 307.198,350.586 300.730,336.000 292.008 C 330.225 288.554,325.339 285.591,325.142 285.423 C 324.945 285.255,326.422 282.421,328.424 279.126 C 360.313 226.630,366.272 136.565,341.449 82.261 C 320.316 36.030,274.763 12.578,212.000 15.618 M257.000 35.861 C 287.081 42.796,307.349 57.057,321.801 81.456 C 326.586 89.534,326.566 89.632,320.400 88.079 C 315.004 86.720,296.094 86.506,294.811 87.789 C 294.058 88.542,294.458 91.725,296.565 101.750 C 297.012 103.877,297.519 104.000,305.838 104.000 C 326.282 104.000,334.558 110.959,337.352 130.500 C 337.866 134.089,337.407 133.550,332.889 125.250 C 327.099 114.613,327.788 114.902,319.412 119.586 C 311.640 123.933,311.663 122.955,319.025 135.785 C 326.099 148.114,326.293 147.168,316.968 145.806 C 304.956 144.052,305.976 143.587,303.390 151.992 C 302.122 156.113,301.403 159.750,301.792 160.075 C 305.291 162.993,327.665 164.735,334.453 162.618 C 340.663 160.682,340.153 158.894,339.021 178.636 C 334.582 256.038,305.017 301.147,257.664 302.766 C 212.894 304.297,171.432 282.307,161.947 252.000 C 161.000 248.975,159.837 246.513,159.363 246.528 C 145.623 246.973,143.093 248.607,145.035 255.785 C 149.808 273.422,162.889 290.237,178.926 299.346 L 183.099 301.716 180.045 302.981 C 178.365 303.677,175.614 305.814,173.932 307.730 C 170.318 311.847,165.761 311.776,151.843 307.386 C 130.601 300.687,117.691 283.588,109.459 251.247 L 107.613 243.994 110.707 240.747 C 114.651 236.608,119.000 230.119,119.000 228.373 C 119.000 226.211,104.927 219.521,103.842 221.167 C 103.359 221.900,102.055 223.930,100.944 225.679 C 98.491 229.540,95.018 230.461,88.452 228.989 C 57.315 222.011,52.278 176.019,81.456 165.103 C 96.213 159.581,101.993 165.451,103.449 187.437 C 103.774 192.352,104.208 196.541,104.413 196.746 C 104.618 196.951,112.064 193.475,120.960 189.020 L 137.134 180.921 136.474 175.211 C 136.111 172.070,134.694 165.297,133.325 160.160 C 129.815 146.982,129.888 146.576,141.271 116.000 C 145.286 105.216,145.703 94.184,142.369 86.927 L 140.269 82.353 144.730 75.927 C 168.564 41.594,213.034 25.724,257.000 35.861 M145.305 48.820 C 140.934 53.121,135.168 59.759,132.491 63.570 C 129.815 67.382,127.513 70.659,127.376 70.854 C 127.238 71.048,123.385 71.848,118.813 72.631 C 114.241 73.415,108.156 74.644,105.291 75.363 L 100.081 76.671 101.791 73.585 C 108.417 61.624,140.212 41.350,152.876 41.010 C 153.083 41.005,149.676 44.519,145.305 48.820 M188.475 87.807 C 176.831 91.261,167.182 99.768,162.030 111.123 C 158.844 118.144,159.104 118.636,166.947 120.420 C 176.171 122.518,175.624 122.675,178.443 117.112 C 183.870 106.403,191.992 102.378,206.185 103.365 L 214.870 103.969 216.554 96.403 C 217.771 90.931,217.935 88.535,217.144 87.744 C 215.156 85.756,195.243 85.800,188.475 87.807 M126.474 92.950 C 128.921 97.682,128.324 101.301,122.588 116.490 C 115.350 135.656,113.615 143.101,114.214 152.430 L 114.692 159.885 111.475 155.672 C 105.096 147.316,92.560 143.685,81.274 146.921 C 77.135 148.108,76.479 145.550,76.550 128.500 C 76.638 107.187,81.061 99.977,96.687 95.680 C 121.791 88.777,124.202 88.556,126.474 92.950 M223.005 119.636 C 219.433 121.022,216.382 122.285,216.224 122.442 C 215.770 122.897,222.432 140.816,225.871 148.388 C 227.592 152.177,229.000 155.439,229.000 155.638 C 229.000 156.630,222.488 155.785,217.021 154.084 L 210.863 152.167 207.573 159.334 C 203.834 167.477,203.834 167.472,208.818 169.607 C 235.936 181.217,254.178 169.431,243.986 146.887 C 241.652 141.724,238.046 133.000,235.974 127.500 C 231.701 116.160,231.803 116.222,223.005 119.636 M268.250 127.710 C 262.974 128.213,262.637 131.095,266.391 143.637 C 271.463 160.581,276.911 168.917,294.149 186.111 C 308.631 200.556,308.393 200.096,303.120 203.424 C 289.829 211.814,261.725 218.593,263.507 212.979 C 264.216 210.745,255.813 206.083,250.375 205.693 C 242.789 205.150,245.011 223.186,253.291 229.368 C 266.954 239.569,319.547 221.538,323.963 205.139 C 326.269 196.574,322.960 190.809,305.497 172.975 C 289.567 156.706,284.146 147.921,281.647 134.325 L 280.393 127.500 276.446 127.402 C 274.276 127.349,270.587 127.487,268.250 127.710 M80.055 179.941 C 75.010 185.342,71.745 193.288,71.222 201.442 C 70.612 210.942,70.041 210.703,85.622 207.467 C 87.361 207.106,87.831 206.113,88.231 201.949 C 88.517 198.974,89.605 195.673,90.859 193.976 C 93.716 190.113,93.730 190.168,88.009 183.012 L 83.019 176.768 80.055 179.941 M224.001 231.094 C 218.041 238.257,218.050 238.377,224.917 243.195 C 236.470 251.300,255.879 256.962,272.191 256.987 C 282.504 257.002,282.247 257.277,280.682 247.910 L 279.443 240.500 269.736 239.806 C 254.926 238.747,241.511 234.293,232.298 227.376 L 229.096 224.972 224.001 231.094 M310.628 228.866 C 307.162 232.484,299.058 236.612,292.250 238.228 C 286.370 239.623,286.326 239.743,287.648 250.750 C 288.382 256.860,289.520 257.222,299.068 254.388 C 309.594 251.263,326.000 241.053,326.000 237.627 C 326.000 236.509,314.942 226.000,313.766 226.000 C 313.551 226.000,312.138 227.290,310.628 228.866 M215.252 255.383 C 207.289 257.709,207.020 258.158,210.041 264.081 C 218.173 280.020,241.182 286.668,272.471 282.118 C 282.736 280.625,282.739 280.622,280.448 271.421 L 278.547 263.790 274.024 264.446 C 245.571 268.574,228.856 265.444,224.919 255.250 C 224.441 254.012,223.701 253.060,223.275 253.133 C 222.849 253.206,219.239 254.218,215.252 255.383 M116.674 310.378 C 126.115 326.923,141.693 342.280,159.485 352.585 C 164.153 355.288,168.164 358.175,168.399 359.000 C 168.633 359.825,169.111 362.191,169.459 364.258 L 170.093 368.015 107.951 367.758 L 45.809 367.500 41.545 356.892 L 37.280 346.285 41.890 343.281 C 46.714 340.137,79.285 320.952,99.000 309.641 C 113.012 301.602,111.633 301.545,116.674 310.378 M346.858 319.375 L 351.215 322.494 350.528 330.497 C 350.150 334.899,348.755 344.800,347.429 352.500 C 346.102 360.200,345.013 366.837,345.008 367.250 C 345.004 367.663,338.474 368.000,330.497 368.000 L 315.994 368.000 319.954 364.422 C 331.224 354.241,332.592 316.708,322.133 304.610 C 320.465 302.680,338.977 313.735,346.858 319.375 M306.463 314.420 C 314.260 317.678,314.290 349.085,306.500 352.987 C 302.281 355.100,285.300 354.926,277.846 352.693 C 268.252 349.820,248.605 350.305,241.279 353.596 C 214.975 365.411,189.930 370.327,186.991 364.250 C 184.300 358.685,184.325 321.675,187.022 318.978 C 191.860 314.140,201.788 316.477,229.153 328.896 C 249.467 338.116,256.070 338.674,265.069 331.931 C 268.056 329.693,274.100 325.683,278.500 323.020 C 295.534 312.708,299.469 311.498,306.463 314.420 M161.899 327.060 L 168.000 328.260 168.000 332.165 C 168.000 335.582,167.780 335.953,166.241 335.129 C 163.290 333.550,152.387 324.675,154.149 325.287 C 155.056 325.602,158.543 326.400,161.899 327.060 " stroke="none" fill-rule="evenodd"></path>
</g>
</svg>