<svg xmlns="http://www.w3.org/2000/svg" width="400" height="400" viewBox="0, 0, 400,400"><g><path d="M144.849 21.667 C 194.148 166.268,189.731 151.050,183.000 153.102 C 152.545 162.385,143.220 206.100,166.689 229.569 L 174.277 237.157 168.654 244.245 C 154.509 262.073,132.628 279.741,115.084 287.500 L 107.586 290.816 101.871 285.206 C 87.740 271.338,85.879 245.135,98.626 239.512 C 127.574 226.740,134.213 185.488,110.840 163.624 C 69.587 125.037,7.710 177.184,39.555 223.699 L 44.369 230.731 36.661 247.024 C 3.220 317.712,16.070 374.637,70.185 395.542 C 99.203 406.751,128.271 400.739,190.667 370.622 C 240.921 346.365,245.357 344.846,285.844 338.042 C 317.001 332.806,328.576 328.962,341.972 319.403 C 370.776 298.849,380.493 261.642,365.804 228.154 L 362.654 220.974 365.468 213.257 C 374.106 189.567,361.639 161.603,338.714 153.244 C 334.317 151.640,331.022 149.837,331.393 149.236 C 332.531 147.396,381.333 2.956,381.333 1.429 C 381.333 0.423,345.264 0.000,259.398 0.000 L 137.462 0.000 144.849 21.667 M354.683 19.667 C 354.770 25.112,309.871 151.897,307.650 152.478 C 305.365 153.075,302.202 147.384,282.883 107.915 C 270.701 83.028,260.385 62.667,259.958 62.667 C 259.532 62.667,249.368 82.767,237.373 107.333 C 215.542 152.044,213.206 155.680,209.745 150.333 C 209.152 149.417,198.731 119.417,186.587 83.667 L 164.508 18.667 259.587 18.667 C 311.881 18.667,354.674 19.117,354.683 19.667 M274.331 134.752 L 287.873 162.837 283.397 169.085 C 255.480 208.053,299.070 259.883,341.927 238.679 C 348.171 235.590,348.442 235.782,351.212 245.242 C 356.896 264.647,350.823 285.580,335.380 299.815 C 324.005 310.300,310.707 314.831,276.234 319.966 C 243.757 324.803,231.900 329.021,178.667 354.665 C 160.700 363.321,141.724 371.922,136.497 373.780 C 50.954 404.186,8.299 329.762,60.753 241.622 C 60.876 241.415,63.313 241.618,66.168 242.075 L 71.358 242.905 71.346 257.804 C 71.327 280.126,81.090 297.273,100.184 308.457 L 106.368 312.079 113.182 309.393 C 141.217 298.343,169.701 276.279,187.071 252.161 L 193.196 243.655 201.598 243.296 C 239.466 241.675,260.156 198.467,237.434 168.457 L 232.227 161.580 245.690 134.123 C 253.094 119.022,259.520 106.667,259.971 106.667 C 260.421 106.667,266.884 119.305,274.331 134.752 M91.454 172.877 C 110.449 182.692,109.978 212.040,90.667 221.936 C 73.013 230.982,50.798 217.470,50.696 197.624 C 50.588 176.606,72.693 163.185,91.454 172.877 M211.345 171.820 C 239.226 184.486,229.115 225.364,198.504 223.735 C 163.151 221.854,164.596 169.392,200.000 169.392 C 203.300 169.392,208.405 170.485,211.345 171.820 M332.678 171.820 C 360.560 184.486,350.449 225.364,319.837 223.735 C 284.485 221.854,285.929 169.392,321.333 169.392 C 324.633 169.392,329.738 170.485,332.678 171.820 " stroke="none" fill-rule="evenodd"></path></g></svg>