<svg xmlns="http://www.w3.org/2000/svg" width="400" height="400" viewBox="0, 0, 400,400"><g><path d="M200.712 200.953 C 91.887 309.843,2.849 399.174,2.849 399.467 C 2.849 399.797,78.621 400.000,201.425 400.000 L 400.000 400.000 400.000 201.425 C 400.000 42.911,399.856 2.861,399.288 2.910 C 398.896 2.944,309.537 92.063,200.712 200.953 M17.094 183.333 L 17.094 349.572 183.191 183.476 C 274.544 92.123,349.288 17.315,349.288 17.237 C 349.288 17.158,274.544 17.094,183.191 17.094 L 17.094 17.094 17.094 183.333 M350.046 327.779 C 350.920 328.418,351.006 329.660,350.867 339.603 L 350.712 350.712 300.000 350.712 L 249.288 350.712 249.133 339.358 C 249.014 330.654,249.147 327.895,249.703 327.543 C 250.993 326.724,348.918 326.955,350.046 327.779 " stroke="none" fill-rule="evenodd"></path></g></svg>