<svg id="svg" version="1.1" width="400" height="400" xmlns="http://www.w3.org/2000/svg" xmlns:xlink="http://www.w3.org/1999/xlink" style="display: block;"><g id="svgg"><path id="path0" d="M231.816 16.278 C 204.559 54.516,211.234 104.102,247.590 133.466 C 250.290 135.647,252.725 137.702,253.000 138.032 C 254.360 139.664,263.735 145.443,270.690 148.937 C 305.927 166.636,349.700 160.909,373.299 135.512 C 379.727 128.593,391.027 111.000,389.042 111.000 C 388.469 111.000,388.000 111.355,388.000 111.788 C 388.000 118.366,364.799 132.604,349.225 135.584 C 279.566 148.912,209.238 71.785,237.066 12.582 C 240.544 5.185,238.897 6.344,231.816 16.278 M146.500 38.122 C 141.550 45.285,137.050 51.688,136.500 52.350 C 116.237 76.740,110.234 123.678,122.606 161.000 C 137.849 206.988,178.281 246.102,227.500 262.477 C 244.923 268.273,285.638 269.699,305.680 265.215 C 347.227 255.920,376.868 233.539,394.929 197.827 C 401.167 185.491,401.228 182.427,395.076 190.401 C 365.518 228.714,306.487 243.255,253.171 225.358 C 165.063 195.781,117.059 101.198,154.149 30.250 C 158.661 21.619,156.039 24.317,146.500 38.122 M50.713 64.250 C 50.298 65.285,37.185 82.218,31.158 89.503 C 14.572 109.549,4.099 134.591,0.850 161.971 C -0.454 172.957,0.218 203.995,1.922 211.500 C 2.546 214.250,3.540 218.750,4.131 221.500 C 15.256 273.272,50.899 324.669,97.000 355.416 C 121.926 372.041,152.813 385.564,173.918 389.093 C 211.780 395.424,248.701 393.724,280.000 384.209 C 326.087 370.198,365.298 336.823,387.138 293.018 C 391.666 283.938,391.380 283.219,385.787 289.614 C 378.182 298.310,369.378 306.564,363.000 310.980 C 361.075 312.313,359.275 313.690,359.000 314.040 C 358.117 315.164,341.700 324.502,335.500 327.406 C 322.214 333.630,303.395 338.906,285.000 341.564 C 130.914 363.826,-9.460 201.605,50.106 70.112 C 51.698 66.598,53.000 63.561,53.000 63.362 C 53.000 62.427,51.156 63.143,50.713 64.250 " stroke="none" fill="#000000" fill-rule="evenodd"></path></g></svg>