<svg version="1.1" width="400" height="400" xmlns="http://www.w3.org/2000/svg"><g><path d="M18.341 34.957 C 14.089 35.971,5.182 44.842,4.377 48.864 C 4.032 50.589,3.356 52.000,2.875 52.000 C 2.382 52.000,2.000 88.238,2.000 135.000 C 2.000 189.667,2.341 218.000,3.000 218.000 C 3.550 218.000,4.000 219.411,4.000 221.137 C 4.000 226.577,6.325 242.000,7.146 242.000 C 7.578 242.000,8.230 244.250,8.594 247.000 C 8.959 249.750,9.622 252.000,10.068 252.000 C 10.513 252.000,11.181 254.025,11.552 256.500 C 11.923 258.975,12.581 261.000,13.014 261.000 C 13.446 261.000,14.340 263.250,15.000 266.000 C 15.660 268.750,16.556 271.000,16.991 271.000 C 17.427 271.000,18.066 272.125,18.411 273.500 C 18.756 274.875,19.444 276.000,19.940 276.000 C 20.435 276.000,21.138 277.350,21.500 279.000 C 21.862 280.650,22.515 282.000,22.949 282.000 C 23.384 282.000,24.299 283.996,24.982 286.436 C 25.665 288.876,26.849 291.112,27.612 291.405 C 28.375 291.698,29.000 292.578,29.000 293.362 C 29.000 294.145,29.675 295.045,30.500 295.362 C 31.325 295.678,32.000 296.626,32.000 297.469 C 32.000 298.311,32.441 299.000,32.981 299.000 C 33.520 299.000,34.247 300.137,34.596 301.526 C 34.945 302.916,36.078 304.507,37.115 305.062 C 38.152 305.616,39.000 306.527,39.000 307.085 C 39.000 307.643,40.575 309.721,42.500 311.703 C 44.425 313.685,46.000 315.656,46.000 316.082 C 46.000 317.094,62.906 334.000,63.918 334.000 C 64.344 334.000,66.315 335.575,68.297 337.500 C 70.279 339.425,72.357 341.000,72.915 341.000 C 73.473 341.000,74.384 341.848,74.938 342.885 C 75.493 343.922,77.084 345.055,78.474 345.404 C 79.863 345.753,81.000 346.480,81.000 347.019 C 81.000 347.559,81.689 348.000,82.531 348.000 C 83.374 348.000,84.322 348.675,84.638 349.500 C 84.955 350.325,85.855 351.000,86.638 351.000 C 87.422 351.000,88.302 351.625,88.595 352.388 C 88.888 353.151,91.124 354.335,93.564 355.018 C 96.004 355.701,98.000 356.616,98.000 357.051 C 98.000 357.485,99.350 358.138,101.000 358.500 C 102.650 358.862,104.000 359.565,104.000 360.060 C 104.000 360.556,105.125 361.244,106.500 361.589 C 107.875 361.934,109.000 362.573,109.000 363.009 C 109.000 363.444,111.250 364.340,114.000 365.000 C 116.750 365.660,119.000 366.554,119.000 366.986 C 119.000 367.419,121.025 368.077,123.500 368.448 C 125.975 368.819,128.000 369.487,128.000 369.932 C 128.000 370.378,130.250 371.041,133.000 371.406 C 135.750 371.770,138.000 372.422,138.000 372.854 C 138.000 373.675,153.423 376.000,158.863 376.000 C 160.589 376.000,162.000 376.450,162.000 377.000 C 162.000 377.649,175.333 378.000,200.000 378.000 C 224.667 378.000,238.000 377.649,238.000 377.000 C 238.000 376.450,239.411 376.000,241.137 376.000 C 246.577 376.000,262.000 373.675,262.000 372.854 C 262.000 372.422,264.250 371.770,267.000 371.406 C 269.750 371.041,272.000 370.378,272.000 369.932 C 272.000 369.487,274.025 368.819,276.500 368.448 C 278.975 368.077,281.000 367.419,281.000 366.986 C 281.000 366.554,283.250 365.660,286.000 365.000 C 288.750 364.340,291.000 363.444,291.000 363.009 C 291.000 362.573,292.125 361.934,293.500 361.589 C 294.875 361.244,296.000 360.556,296.000 360.060 C 296.000 359.565,297.350 358.862,299.000 358.500 C 300.650 358.138,302.000 357.485,302.000 357.051 C 302.000 356.616,303.996 355.701,306.436 355.018 C 308.876 354.335,311.112 353.151,311.405 352.388 C 311.698 351.625,312.578 351.000,313.362 351.000 C 314.145 351.000,315.045 350.325,315.362 349.500 C 315.678 348.675,316.626 348.000,317.469 348.000 C 318.311 348.000,319.000 347.559,319.000 347.019 C 319.000 346.480,320.137 345.753,321.526 345.404 C 322.916 345.055,324.507 343.922,325.062 342.885 C 325.616 341.848,326.527 341.000,327.085 341.000 C 327.643 341.000,329.721 339.425,331.703 337.500 C 333.685 335.575,335.656 334.000,336.082 334.000 C 337.094 334.000,354.000 317.094,354.000 316.082 C 354.000 315.656,355.575 313.685,357.500 311.703 C 359.425 309.721,361.000 307.643,361.000 307.085 C 361.000 306.527,361.848 305.616,362.885 305.062 C 363.922 304.507,365.055 302.916,365.404 301.526 C 365.753 300.137,366.480 299.000,367.019 299.000 C 367.559 299.000,368.000 298.311,368.000 297.469 C 368.000 296.626,368.648 295.689,369.439 295.385 C 370.230 295.081,371.158 293.558,371.500 292.000 C 371.842 290.442,372.727 288.935,373.467 288.651 C 374.206 288.367,375.115 286.755,375.485 285.068 C 375.856 283.380,376.537 282.000,377.000 282.000 C 377.463 282.000,378.138 280.650,378.500 279.000 C 378.862 277.350,379.565 276.000,380.060 276.000 C 380.556 276.000,381.244 274.875,381.589 273.500 C 381.934 272.125,382.573 271.000,383.009 271.000 C 383.444 271.000,384.340 268.750,385.000 266.000 C 385.660 263.250,386.554 261.000,386.986 261.000 C 387.419 261.000,388.077 258.975,388.448 256.500 C 388.819 254.025,389.487 252.000,389.932 252.000 C 390.378 252.000,391.041 249.750,391.406 247.000 C 391.770 244.250,392.422 242.000,392.854 242.000 C 393.675 242.000,396.000 226.577,396.000 221.137 C 396.000 219.411,396.450 218.000,397.000 218.000 C 397.659 218.000,398.000 189.667,398.000 135.000 C 398.000 88.238,397.618 52.000,397.125 52.000 C 396.644 52.000,395.968 50.589,395.623 48.864 C 394.754 44.521,385.954 36.012,381.184 34.904 C 376.663 33.853,22.755 33.906,18.341 34.957 M292.000 90.011 C 292.000 90.447,294.700 91.117,298.000 91.500 C 301.300 91.883,304.000 92.556,304.000 92.995 C 304.000 93.434,307.825 94.362,312.500 95.057 C 317.175 95.753,321.000 96.667,321.000 97.089 C 321.000 97.511,323.475 98.165,326.500 98.543 C 329.525 98.921,332.000 99.584,332.000 100.017 C 332.000 100.450,334.700 101.117,338.000 101.500 C 341.300 101.883,344.000 102.602,344.000 103.098 C 344.000 103.594,345.097 104.000,346.437 104.000 C 348.831 104.000,349.272 110.368,346.992 112.000 C 346.608 112.275,345.722 116.213,345.024 120.750 C 344.327 125.287,343.405 129.000,342.976 129.000 C 342.547 129.000,341.883 131.700,341.500 135.000 C 341.117 138.300,340.430 141.000,339.974 141.000 C 339.517 141.000,338.835 143.475,338.457 146.500 C 338.079 149.525,337.371 152.000,336.885 152.000 C 336.398 152.000,336.000 152.751,336.000 153.668 C 336.000 160.871,333.711 168.000,331.397 168.000 C 330.079 168.000,329.000 167.597,329.000 167.104 C 329.000 166.611,325.175 165.638,320.500 164.943 C 315.825 164.247,312.000 163.352,312.000 162.954 C 312.000 162.556,309.525 161.921,306.500 161.543 C 303.475 161.165,301.000 160.483,301.000 160.026 C 301.000 159.570,298.300 158.883,295.000 158.500 C 291.700 158.117,289.000 157.444,289.000 157.005 C 289.000 156.566,285.175 155.638,280.500 154.943 C 275.825 154.247,272.000 153.300,272.000 152.839 C 272.000 152.378,271.325 152.000,270.500 152.000 C 269.667 152.000,269.000 151.111,269.000 150.000 C 269.000 148.900,269.406 148.000,269.902 148.000 C 270.398 148.000,271.117 145.300,271.500 142.000 C 271.883 138.700,272.556 136.000,272.995 136.000 C 273.434 136.000,274.362 132.175,275.057 127.500 C 275.753 122.825,276.667 119.000,277.089 119.000 C 277.511 119.000,278.165 116.525,278.543 113.500 C 278.921 110.475,279.584 108.000,280.017 108.000 C 280.450 108.000,281.117 105.300,281.500 102.000 C 281.883 98.700,282.545 96.000,282.970 96.000 C 283.396 96.000,284.018 94.289,284.352 92.198 C 284.919 88.653,292.000 86.628,292.000 90.011 M132.000 157.000 C 132.000 184.333,132.349 199.000,133.000 199.000 C 133.550 199.000,134.000 200.119,134.000 201.486 C 134.000 205.140,136.288 213.297,137.741 214.821 C 138.433 215.548,139.000 216.786,139.000 217.571 C 139.000 218.357,139.450 219.000,140.000 219.000 C 140.550 219.000,141.000 219.583,141.000 220.297 C 141.000 222.810,157.668 241.000,159.971 241.000 C 160.571 241.000,161.302 241.625,161.595 242.388 C 161.888 243.151,164.124 244.335,166.564 245.018 C 169.004 245.701,171.000 246.601,171.000 247.019 C 171.000 247.436,172.686 248.094,174.748 248.480 C 176.809 248.867,178.817 249.705,179.211 250.342 C 180.202 251.947,217.771 251.976,218.786 250.372 C 219.179 249.752,221.412 248.925,223.750 248.535 C 226.087 248.144,228.000 247.485,228.000 247.070 C 228.000 246.656,229.800 245.777,232.000 245.118 C 234.200 244.459,236.000 243.518,236.000 243.027 C 236.000 242.536,236.907 241.847,238.016 241.495 C 240.584 240.680,254.698 226.526,255.517 223.945 C 255.857 222.875,256.506 222.000,256.959 222.000 C 257.412 222.000,258.079 220.821,258.441 219.379 C 258.803 217.938,259.752 216.106,260.549 215.308 C 261.347 214.510,262.000 212.802,262.000 211.512 C 262.000 210.222,262.451 209.016,263.001 208.833 C 263.552 208.649,264.544 204.787,265.205 200.250 L 266.407 192.000 300.204 192.000 C 329.578 192.000,334.000 192.196,334.000 193.500 C 334.000 194.325,333.618 195.000,333.151 195.000 C 332.684 195.000,332.015 199.357,331.666 204.682 C 331.316 210.007,330.627 214.619,330.136 214.932 C 329.644 215.244,328.920 217.863,328.527 220.750 C 328.134 223.637,327.497 226.000,327.112 226.000 C 326.728 226.000,325.814 228.700,325.081 232.000 C 324.349 235.300,323.392 238.000,322.955 238.000 C 322.517 238.000,321.862 239.350,321.500 241.000 C 321.138 242.650,320.435 244.000,319.940 244.000 C 319.444 244.000,318.756 245.125,318.411 246.500 C 318.066 247.875,317.418 249.000,316.971 249.000 C 316.524 249.000,315.856 250.380,315.485 252.068 C 315.115 253.755,314.219 255.362,313.496 255.640 C 312.772 255.918,311.906 257.237,311.571 258.572 C 311.236 259.908,310.520 261.000,309.981 261.000 C 309.441 261.000,309.000 261.659,309.000 262.465 C 309.000 263.270,308.100 264.411,307.000 265.000 C 305.900 265.589,305.000 266.695,305.000 267.458 C 305.000 268.767,300.306 274.065,297.667 275.735 C 297.002 276.156,295.915 277.738,295.250 279.250 C 294.586 280.762,293.358 282.000,292.521 282.000 C 291.685 282.000,291.000 282.374,291.000 282.831 C 291.000 283.288,289.925 284.238,288.610 284.941 C 287.296 285.645,285.663 287.261,284.982 288.534 C 284.301 289.806,282.676 291.115,281.372 291.443 C 280.067 291.770,279.000 292.491,279.000 293.044 C 279.000 293.597,277.875 294.477,276.500 295.000 C 275.125 295.523,274.000 296.412,274.000 296.975 C 274.000 297.539,273.357 298.000,272.571 298.000 C 271.786 298.000,270.527 298.616,269.775 299.368 C 269.022 300.121,267.415 301.051,266.203 301.435 C 264.992 301.820,264.000 302.496,264.000 302.937 C 264.000 303.379,261.975 304.307,259.500 305.000 C 257.025 305.693,255.000 306.631,255.000 307.085 C 255.000 307.538,253.425 308.205,251.500 308.566 C 249.575 308.927,248.000 309.602,248.000 310.066 C 248.000 310.530,246.425 311.205,244.500 311.566 C 242.575 311.927,241.000 312.557,241.000 312.966 C 241.000 313.375,236.838 314.298,231.750 315.017 C 226.662 315.736,222.186 316.802,221.803 317.385 C 220.850 318.836,177.163 318.850,176.197 317.400 C 175.814 316.825,171.563 315.752,166.750 315.016 C 161.938 314.280,158.000 313.350,158.000 312.950 C 158.000 312.550,156.425 311.927,154.500 311.566 C 152.575 311.205,151.000 310.480,151.000 309.955 C 151.000 309.430,149.907 309.000,148.571 309.000 C 147.236 309.000,145.507 308.365,144.731 307.588 C 143.954 306.811,141.447 305.615,139.159 304.930 C 136.872 304.244,135.000 303.340,135.000 302.921 C 135.000 302.502,133.688 301.871,132.084 301.518 C 130.479 301.166,128.919 300.230,128.615 299.439 C 128.311 298.648,127.374 298.000,126.531 298.000 C 125.689 298.000,125.000 297.527,125.000 296.948 C 125.000 296.369,123.686 295.438,122.080 294.878 C 120.474 294.318,118.913 293.217,118.612 292.430 C 118.310 291.644,117.610 291.000,117.058 291.000 C 116.505 291.000,114.028 288.975,111.553 286.500 C 109.078 284.025,106.691 282.000,106.249 282.000 C 105.383 282.000,102.000 278.346,102.000 277.410 C 102.000 277.098,100.200 275.114,98.000 273.000 C 95.800 270.886,94.000 268.523,94.000 267.747 C 94.000 266.972,92.875 265.736,91.500 265.000 C 90.125 264.264,89.000 263.095,89.000 262.402 C 89.000 261.710,88.410 260.548,87.689 259.821 C 86.967 259.095,85.732 257.038,84.944 255.250 C 84.156 253.463,83.207 252.000,82.835 252.000 C 82.463 252.000,81.862 250.650,81.500 249.000 C 81.138 247.350,80.435 246.000,79.940 246.000 C 79.444 246.000,78.756 244.875,78.411 243.500 C 78.066 242.125,77.427 241.000,76.991 241.000 C 76.556 241.000,75.660 238.750,75.000 236.000 C 74.340 233.250,73.438 231.000,72.994 231.000 C 72.551 231.000,71.878 228.750,71.500 226.000 C 71.122 223.250,70.449 221.000,70.004 221.000 C 69.560 221.000,68.873 218.188,68.478 214.750 C 68.083 211.313,67.251 208.179,66.630 207.787 C 65.825 207.279,65.397 193.815,65.144 161.037 L 64.788 115.000 98.394 115.000 L 132.000 115.000 132.000 157.000 " stroke="none" fill-rule="evenodd"></path></g></svg>