<svg version="1.1" width="400" height="400" xmlns="http://www.w3.org/2000/svg"><g><path d="M129.000 92.181 C 127.625 92.755,124.925 93.876,123.000 94.671 C 108.233 100.771,104.232 123.747,115.868 135.626 C 120.593 140.449,123.995 143.211,124.015 142.240 C 124.024 141.833,124.361 141.950,124.765 142.500 C 125.718 143.797,138.853 150.112,141.218 150.410 C 141.612 150.459,142.850 151.283,143.968 152.240 C 145.085 153.197,146.000 153.760,146.000 153.490 C 146.000 151.862,150.160 157.549,150.608 159.790 C 152.771 170.607,133.103 172.541,123.318 162.473 L 119.007 158.037 115.753 160.023 C 113.964 161.115,110.972 162.716,109.104 163.579 C 107.237 164.442,105.055 165.802,104.256 166.601 C 100.525 170.333,117.326 184.859,127.500 186.697 C 133.922 187.858,143.841 188.050,146.950 187.074 C 148.902 186.460,151.400 185.828,152.500 185.668 C 153.600 185.508,156.075 184.394,158.000 183.192 C 159.925 181.991,161.728 180.894,162.007 180.754 C 162.287 180.614,163.881 178.700,165.551 176.500 C 176.907 161.541,169.223 138.248,151.000 132.392 C 146.833 131.053,146.000 130.634,146.000 129.883 C 146.000 129.398,145.438 128.990,144.750 128.978 C 144.063 128.966,141.475 128.038,139.000 126.915 C 136.525 125.792,134.453 125.015,134.396 125.187 C 134.338 125.359,133.101 124.085,131.646 122.356 C 123.445 112.610,137.193 103.482,145.737 113.000 C 150.022 117.773,150.017 117.772,155.320 114.124 C 157.619 112.542,159.736 111.305,160.023 111.374 C 160.311 111.443,161.624 110.496,162.941 109.269 C 171.516 101.281,142.354 86.598,129.000 92.181 M235.000 93.408 C 227.878 95.499,222.380 98.229,220.765 100.477 C 220.361 101.040,220.024 101.204,220.015 100.841 C 219.962 98.557,209.529 111.518,206.413 117.738 C 199.600 131.343,199.499 150.152,206.178 161.500 C 206.825 162.600,208.063 164.798,208.928 166.384 C 212.893 173.658,223.138 181.331,234.500 185.537 C 245.148 189.479,262.308 187.938,273.027 182.076 C 277.378 179.697,287.989 171.000,286.541 171.000 C 286.218 171.000,286.638 169.955,287.475 168.679 C 288.975 166.389,285.399 160.935,283.586 162.748 C 283.264 163.070,283.000 162.911,283.000 162.394 C 283.000 161.877,281.425 160.607,279.500 159.570 C 277.575 158.533,276.000 157.306,276.000 156.843 C 276.000 155.096,272.108 156.085,271.505 157.984 C 268.328 167.995,243.823 172.787,234.883 165.145 C 234.122 164.495,232.588 163.184,231.474 162.231 C 229.530 160.570,227.199 157.347,224.073 152.000 C 222.035 148.514,222.041 130.470,224.081 127.000 C 232.243 113.119,237.934 109.569,251.670 109.793 C 258.724 109.909,270.000 116.168,270.000 119.968 C 270.000 121.410,275.831 120.884,276.404 119.390 C 276.655 118.736,279.142 116.959,281.930 115.442 C 288.546 111.841,288.430 110.270,281.000 102.840 C 277.700 99.540,275.000 97.111,275.000 97.443 C 275.000 97.775,273.892 97.320,272.538 96.433 C 264.590 91.225,247.210 89.825,235.000 93.408 M340.216 93.439 C 336.759 94.723,333.020 96.837,331.905 98.137 C 330.791 99.436,328.958 101.572,327.832 102.881 C 317.663 114.711,327.946 141.872,344.000 145.587 C 353.713 147.834,365.000 155.710,365.000 160.240 C 365.000 172.784,342.219 171.935,335.050 159.124 C 334.419 157.998,332.706 158.596,326.511 162.108 C 318.996 166.367,316.391 168.964,318.820 169.773 C 319.469 169.990,320.004 170.692,320.009 171.333 C 320.013 171.975,321.629 174.200,323.599 176.279 C 333.546 186.774,354.195 190.867,368.315 185.141 C 369.863 184.514,371.353 184.000,371.625 184.000 C 372.855 184.000,380.866 177.199,380.301 176.634 C 379.952 176.285,380.148 176.000,380.736 176.000 C 381.323 176.000,382.372 174.537,383.066 172.750 C 388.690 158.268,384.722 144.640,372.628 136.895 C 369.808 135.089,367.169 133.136,366.765 132.555 C 366.361 131.975,366.024 131.806,366.015 132.179 C 366.007 132.552,363.413 131.546,360.250 129.942 C 357.087 128.338,353.938 127.020,353.250 127.013 C 352.563 127.006,352.000 126.523,352.000 125.941 C 352.000 125.359,351.623 125.115,351.163 125.399 C 348.332 127.149,342.444 118.546,343.912 114.806 C 346.885 107.233,355.915 106.988,362.146 114.311 L 364.792 117.421 370.927 113.210 C 374.302 110.895,377.472 109.000,377.972 109.000 C 380.228 109.000,379.903 106.633,377.129 102.861 C 369.234 92.125,354.130 88.270,340.216 93.439 M51.500 127.677 C 51.500 168.742,51.616 168.220,42.399 168.818 C 37.698 169.123,37.337 168.953,33.453 164.608 C 29.619 160.318,25.000 158.989,25.000 162.176 C 25.000 162.694,24.550 162.840,24.000 162.500 C 23.450 162.160,23.000 162.287,23.000 162.782 C 23.000 163.277,20.771 164.895,18.046 166.378 C 14.162 168.493,13.251 169.445,13.829 170.787 C 22.912 191.907,57.652 193.933,68.465 173.973 L 71.429 168.500 71.797 130.816 L 72.165 93.132 61.833 92.816 L 51.500 92.500 51.500 127.677 M229.808 251.327 C 219.739 261.408,210.882 270.408,210.128 271.327 C 208.858 272.874,209.657 273.000,220.738 273.000 L 232.720 273.000 236.360 269.567 C 238.362 267.679,240.003 265.767,240.006 265.317 C 240.010 264.868,241.360 263.733,243.007 262.796 C 244.653 261.859,246.521 259.951,247.157 258.555 L 248.313 256.018 256.766 264.509 L 265.218 273.000 276.732 273.000 C 286.852 273.000,288.094 272.819,287.000 271.500 C 286.315 270.675,286.027 270.000,286.360 270.000 C 286.692 270.000,278.637 261.675,268.460 251.500 C 258.283 241.325,249.542 233.000,249.036 233.000 C 248.530 233.000,239.877 241.247,229.808 251.327 M18.000 280.500 L 18.000 289.000 42.500 289.000 L 67.000 289.000 67.000 280.500 L 67.000 272.000 42.500 272.000 L 18.000 272.000 18.000 280.500 M114.000 280.500 L 114.000 289.000 138.500 289.000 L 163.000 289.000 163.000 280.500 L 163.000 272.000 138.500 272.000 L 114.000 272.000 114.000 280.500 " stroke="none" fill-rule="evenodd"></path></g></svg>