<svg version="1.1" width="400" height="400" xmlns="http://www.w3.org/2000/svg"><g><path d="M103.189 104.683 C 102.159 105.095,102.228 105.594,103.508 107.009 C 105.042 108.704,104.944 108.853,101.858 109.531 C 77.116 114.965,81.370 152.772,106.839 153.803 C 134.629 154.928,140.547 113.745,113.218 109.413 C 110.466 108.977,108.271 107.889,107.074 106.367 C 106.050 105.065,105.052 104.036,104.856 104.079 C 104.660 104.122,103.910 104.394,103.189 104.683 M38.000 124.532 C 38.000 141.065,37.236 144.753,33.033 148.500 C 29.980 151.222,22.054 151.264,19.081 148.574 C 17.385 147.039,16.704 146.900,15.726 147.893 C 14.755 148.880,15.083 149.644,17.306 151.570 C 24.532 157.829,38.418 152.659,40.352 142.988 C 41.778 135.861,41.104 109.000,39.500 109.000 C 38.231 109.000,38.000 111.392,38.000 124.532 M54.378 110.375 C 48.610 113.000,46.232 119.813,49.163 125.316 C 51.273 129.276,53.529 130.329,67.746 133.983 C 82.546 137.788,75.687 153.158,60.304 150.662 C 58.333 150.342,54.992 148.937,52.881 147.540 C 48.779 144.825,45.572 144.202,46.243 146.250 C 49.950 157.555,77.138 155.849,78.698 144.213 C 79.869 135.483,76.776 132.338,64.214 129.480 C 56.378 127.698,51.000 124.184,51.000 120.845 C 51.000 113.197,61.926 109.502,71.236 114.000 C 76.029 116.316,78.000 116.524,78.000 114.716 C 78.000 110.457,61.043 107.341,54.378 110.375 M103.519 113.979 C 100.577 117.230,104.150 117.692,107.589 114.505 C 115.940 106.766,130.518 122.936,126.993 136.027 C 122.903 151.215,105.216 155.974,94.202 144.849 C 84.945 135.500,87.546 119.840,99.303 114.136 C 104.654 111.540,105.764 111.499,103.519 113.979 M145.990 125.177 C 145.985 125.905,146.867 131.000,147.951 136.500 C 150.621 150.044,153.760 167.481,154.554 173.183 C 155.746 181.732,157.469 180.275,165.130 164.236 C 176.667 140.086,177.000 139.354,177.000 138.154 C 177.000 133.786,173.219 139.439,165.941 154.686 L 157.500 172.371 155.772 162.436 C 154.822 156.971,153.142 147.325,152.041 141.000 C 150.939 134.675,149.916 128.380,149.769 127.010 C 149.492 124.443,146.008 122.753,145.990 125.177 M135.448 147.576 C 131.302 156.237,128.161 163.976,128.467 164.774 C 129.461 167.365,131.293 164.595,137.500 151.109 L 143.500 138.073 144.730 145.787 C 148.200 167.547,149.366 173.974,150.039 175.062 C 151.236 177.001,153.155 175.064,152.399 172.680 C 152.023 171.497,150.282 161.998,148.530 151.572 C 146.669 140.504,144.853 132.451,144.165 132.222 C 143.472 131.991,139.879 138.320,135.448 147.576 M207.765 157.250 C 205.271 162.045,190.000 194.165,190.000 194.615 C 190.000 197.695,194.217 193.908,196.530 188.750 C 198.072 185.313,202.184 176.614,205.667 169.420 C 209.150 162.226,212.000 155.814,212.000 155.170 C 212.000 152.816,209.409 154.088,207.765 157.250 M195.395 158.163 C 192.742 162.431,183.932 181.266,184.380 181.713 C 185.720 183.054,187.797 180.707,190.878 174.370 C 192.715 170.592,195.173 165.602,196.340 163.282 C 198.434 159.121,197.601 154.613,195.395 158.163 M209.205 179.186 C 204.622 188.825,203.017 195.399,205.976 192.417 C 206.879 191.506,218.000 169.354,218.000 168.464 C 218.000 164.489,213.702 169.728,209.205 179.186 M238.999 170.250 C 238.999 171.488,239.695 176.325,240.547 181.000 C 244.042 200.178,245.907 210.742,246.552 215.000 C 247.398 220.594,248.851 223.549,250.127 222.273 C 250.717 221.683,250.646 218.604,249.939 214.046 C 248.529 204.960,247.138 206.547,265.812 195.943 C 275.321 190.544,275.314 190.060,265.989 209.399 C 261.562 218.581,258.205 226.522,258.529 227.047 C 259.787 229.082,260.993 227.723,264.564 220.250 C 266.600 215.988,270.907 206.998,274.133 200.274 C 277.360 193.550,280.000 187.587,280.000 187.024 C 280.000 185.758,276.743 185.673,275.450 186.906 C 274.928 187.404,272.813 188.754,270.750 189.906 C 268.688 191.058,265.313 192.966,263.250 194.147 C 247.000 203.452,247.453 203.354,246.635 197.750 C 244.168 180.868,241.417 168.000,240.275 168.000 C 239.574 168.000,239.000 169.012,238.999 170.250 M233.631 179.250 C 232.864 181.037,229.483 188.168,226.118 195.095 C 219.271 209.189,219.331 209.000,221.756 209.000 C 222.777 209.000,224.110 207.640,224.941 205.750 C 225.728 203.963,228.492 198.065,231.084 192.644 C 236.298 181.742,236.256 181.731,237.968 194.465 C 240.249 211.425,242.193 220.000,243.755 220.000 C 245.384 220.000,245.375 219.889,242.487 204.500 C 241.662 200.100,240.220 191.887,239.283 186.250 C 237.453 175.239,236.083 173.541,233.631 179.250 M288.643 210.973 C 281.143 218.108,273.430 225.380,271.503 227.133 C 266.462 231.721,266.719 232.052,280.573 238.840 C 298.361 247.555,296.682 248.944,298.110 224.331 C 298.916 210.437,299.581 205.107,300.648 204.000 C 301.914 202.688,302.018 203.313,301.483 209.000 C 298.890 236.527,298.313 245.609,299.105 246.450 C 301.025 248.489,301.758 244.935,302.908 228.000 C 303.562 218.375,304.362 207.688,304.686 204.250 C 305.519 195.426,304.563 195.826,288.643 210.973 M315.667 204.667 C 315.300 205.033,315.000 205.704,315.000 206.158 C 315.000 207.500,340.186 219.143,341.772 218.534 C 343.639 217.817,341.816 215.392,338.660 214.395 C 337.472 214.020,332.053 211.527,326.617 208.856 C 315.464 203.376,316.544 203.789,315.667 204.667 M313.000 210.416 C 313.000 211.285,315.308 213.126,318.250 214.603 C 321.137 216.054,323.654 217.378,323.842 217.545 C 324.030 217.713,320.972 224.493,317.047 232.613 C 313.121 240.732,309.818 248.254,309.705 249.328 C 309.339 252.815,311.689 252.176,313.526 248.289 C 322.935 228.384,327.220 219.450,327.485 219.183 C 327.659 219.008,330.141 220.051,333.002 221.501 C 337.910 223.988,341.889 224.247,340.493 221.988 C 339.865 220.972,319.203 210.834,315.118 209.538 C 313.582 209.050,313.000 209.291,313.000 210.416 M348.099 224.557 C 346.944 226.514,346.000 228.259,346.000 228.436 C 346.000 228.613,342.625 235.798,338.500 244.402 C 334.375 253.005,331.000 260.454,331.000 260.954 C 331.000 262.022,355.348 274.000,357.519 274.000 C 359.591 274.000,359.375 271.066,357.250 270.338 C 356.288 270.008,350.882 267.535,345.238 264.842 L 334.977 259.945 336.294 257.223 C 337.019 255.725,338.450 252.695,339.475 250.488 L 341.338 246.477 349.919 250.711 C 358.523 254.957,362.502 256.007,361.780 253.840 C 361.352 252.555,358.454 250.900,349.201 246.656 C 345.790 245.091,343.000 243.404,343.000 242.906 C 343.000 241.365,344.588 241.862,352.880 246.000 C 357.289 248.200,361.632 250.000,362.531 250.000 C 366.063 250.000,363.011 247.308,354.979 243.337 C 344.968 238.388,345.131 238.707,348.686 231.068 C 352.073 223.790,350.482 223.855,364.132 230.433 C 374.819 235.582,377.000 236.171,377.000 233.908 C 377.000 232.919,353.244 221.000,351.272 221.000 C 350.681 221.000,349.253 222.601,348.099 224.557 " stroke="none" fill-rule="evenodd"></path></g></svg>