<svg version="1.1" width="400" height="400" xmlns="http://www.w3.org/2000/svg"><g><path d="M97.573 105.881 C 97.212 106.465,97.623 108.022,98.487 109.339 C 100.038 111.706,100.009 111.743,96.154 112.359 C 67.388 116.959,73.741 162.995,102.838 160.801 C 129.630 158.780,135.047 120.021,109.545 112.814 C 107.320 112.186,103.864 110.129,101.865 108.245 C 99.657 106.164,97.972 105.236,97.573 105.881 M46.534 112.507 C 33.217 115.976,32.528 132.771,45.591 135.487 C 64.795 139.479,69.831 143.625,65.544 151.915 C 61.968 158.831,50.194 159.906,40.953 154.162 C 35.717 150.907,32.575 150.768,35.425 153.917 C 43.434 162.767,61.590 162.913,67.527 154.175 C 73.896 144.802,69.238 138.334,53.396 134.552 C 44.676 132.470,40.264 129.901,39.383 126.391 C 36.963 116.747,49.921 111.343,61.951 116.977 C 67.096 119.387,69.255 119.218,67.064 116.577 C 63.970 112.849,53.325 110.738,46.534 112.507 M24.998 129.750 C 24.997 149.868,24.192 152.913,18.016 156.165 C 13.447 158.571,9.520 158.485,5.315 155.886 C 1.800 153.713,0.349 153.862,1.285 156.299 C 3.974 163.308,19.430 161.794,24.750 154.001 C 27.219 150.383,28.362 112.000,26.000 112.000 C 25.371 112.000,24.999 118.584,24.998 129.750 M98.988 116.513 C 97.271 118.341,96.927 119.327,97.726 120.126 C 98.526 120.926,99.633 120.323,101.784 117.916 C 108.910 109.940,123.000 122.112,123.000 136.245 C 123.000 151.674,108.614 161.658,93.971 156.392 C 77.173 150.352,74.856 125.770,90.334 117.813 C 93.833 116.015,95.680 115.368,100.924 114.102 C 101.158 114.046,100.286 115.131,98.988 116.513 M144.046 125.250 C 144.215 129.907,154.762 182.421,155.582 182.694 C 156.146 182.882,157.847 180.440,159.361 177.268 C 169.627 155.769,177.000 139.749,177.000 138.943 C 177.000 136.819,174.127 138.196,173.230 140.750 C 170.623 148.175,156.527 175.898,155.931 174.770 C 155.563 174.071,154.955 171.025,154.580 168.000 C 154.205 164.975,152.347 154.175,150.452 144.000 C 148.557 133.825,147.005 125.162,147.003 124.750 C 147.002 124.338,146.325 124.000,145.500 124.000 C 144.675 124.000,144.020 124.563,144.046 125.250 M132.048 149.647 C 124.936 164.356,122.963 170.377,125.835 168.602 C 126.302 168.313,129.780 161.538,133.564 153.546 L 140.444 139.014 143.692 157.257 C 147.615 179.294,147.780 180.000,149.019 180.000 C 151.256 180.000,143.691 134.051,141.326 133.271 C 140.641 133.045,136.779 139.861,132.048 149.647 M209.829 162.750 C 208.155 166.463,203.458 176.409,199.392 184.854 C 191.102 202.074,191.498 201.000,193.442 201.000 C 194.277 201.000,196.867 196.898,199.596 191.250 C 209.724 170.295,215.000 158.691,215.000 157.375 C 215.000 154.067,212.640 156.520,209.829 162.750 M189.484 175.646 C 182.115 191.154,182.511 190.000,184.563 190.000 C 185.533 190.000,187.246 187.442,189.082 183.250 C 190.708 179.537,193.380 173.968,195.019 170.873 C 196.659 167.778,198.000 164.516,198.000 163.623 C 198.000 159.486,195.457 163.076,189.484 175.646 M245.616 172.812 C 244.305 174.933,254.954 231.000,256.668 231.000 C 258.337 231.000,258.329 230.228,256.561 221.000 C 255.771 216.875,255.434 213.203,255.812 212.841 C 256.190 212.478,261.225 209.622,267.000 206.495 C 272.775 203.367,278.962 199.915,280.750 198.823 C 285.214 196.095,285.159 196.267,274.960 216.970 C 268.798 229.479,266.246 235.646,266.944 236.344 C 268.269 237.669,267.974 238.094,273.763 226.500 C 282.149 209.706,289.127 193.889,288.805 192.406 C 288.591 191.418,283.438 193.822,271.500 200.480 C 262.150 205.694,254.411 209.631,254.303 209.230 C 254.195 208.828,252.677 200.625,250.930 191.000 C 247.851 174.030,246.892 170.748,245.616 172.812 M213.494 186.165 C 207.889 197.681,206.173 203.227,209.129 200.271 C 210.659 198.741,222.000 175.988,222.000 174.449 C 222.000 170.508,219.314 174.209,213.494 186.165 M234.441 194.585 C 224.585 215.231,224.294 216.000,226.357 216.000 C 227.124 216.000,230.712 209.639,234.607 201.372 L 241.500 186.744 242.765 193.622 C 243.460 197.405,244.927 206.332,246.025 213.460 C 247.912 225.721,249.069 229.265,250.663 227.670 C 251.046 227.287,250.338 221.242,249.089 214.237 C 247.839 207.232,246.101 196.887,245.225 191.250 C 243.128 177.756,242.363 177.992,234.441 194.585 M295.623 222.637 C 285.380 232.338,277.000 240.419,277.000 240.596 C 277.000 241.147,305.770 255.000,306.915 255.000 C 307.512 255.000,308.003 254.438,308.007 253.750 C 308.100 237.757,311.875 208.542,313.623 210.290 C 313.809 210.476,313.298 219.374,312.488 230.064 C 310.645 254.370,310.611 258.295,312.250 257.753 C 313.324 257.397,316.509 223.600,316.914 208.250 C 317.057 202.856,315.146 204.147,295.623 222.637 M329.000 212.525 C 329.000 214.037,353.741 227.000,356.627 227.000 C 360.405 227.000,356.719 224.372,344.013 218.007 C 328.461 210.216,329.000 210.412,329.000 212.525 M326.000 218.357 C 326.000 219.103,328.914 221.016,332.476 222.607 L 338.952 225.500 330.476 242.978 C 321.844 260.778,321.041 263.002,323.250 262.997 C 323.938 262.996,328.294 254.891,332.931 244.987 C 342.242 225.099,341.173 226.074,349.210 230.128 C 353.199 232.140,356.000 232.545,356.000 231.109 C 356.000 230.080,329.474 217.000,327.388 217.000 C 326.625 217.000,326.000 217.611,326.000 218.357 M366.347 230.234 C 364.627 232.984,346.000 272.320,346.000 273.200 C 346.000 274.126,372.153 287.000,374.033 287.000 C 377.767 287.000,373.130 283.628,362.489 278.605 C 355.620 275.363,349.999 272.438,349.998 272.105 C 349.996 271.772,351.405 268.290,353.127 264.366 L 356.259 257.232 363.880 260.624 C 368.071 262.490,372.281 264.463,373.236 265.008 C 375.323 266.200,379.000 266.320,379.000 265.197 C 379.000 264.755,374.278 262.167,368.506 259.447 C 362.734 256.726,358.009 254.189,358.006 253.809 C 357.988 251.748,360.809 252.409,369.408 256.482 C 379.606 261.311,381.005 261.706,380.991 259.750 C 380.986 259.063,377.173 256.758,372.518 254.630 C 359.637 248.740,360.157 249.630,364.511 240.936 C 366.559 236.846,368.328 233.391,368.442 233.258 C 368.557 233.125,374.141 235.713,380.853 239.008 C 387.564 242.304,393.718 245.000,394.528 245.000 C 398.543 245.000,394.739 242.305,382.250 236.303 C 374.688 232.669,368.194 229.531,367.819 229.331 C 367.445 229.131,366.782 229.537,366.347 230.234 " stroke="none" fill-rule="evenodd"></path></g></svg>