<svg version="1.1" width="400" height="400" xmlns="http://www.w3.org/2000/svg">
<g>
<path d="M299.773 135.750 C 295.049 141.130,297.255 152.000,303.071 152.000 C 306.659 152.000,309.000 148.446,309.000 143.000 C 309.000 135.450,303.696 131.283,299.773 135.750 M32.667 136.667 C 32.300 137.033,32.000 166.816,32.000 202.851 C 32.000 277.268,32.387 273.664,23.778 279.334 C 19.694 282.023,19.057 282.135,9.750 281.790 L -0.000 281.429 -0.000 285.598 C 0.000 290.654,0.762 290.967,13.128 290.986 C 26.590 291.008,34.149 286.937,38.807 277.156 L 41.500 271.500 41.777 203.750 L 42.054 136.000 37.694 136.000 C 35.295 136.000,33.033 136.300,32.667 136.667 M74.205 183.750 L 74.500 231.500 77.606 238.000 C 93.576 271.418,147.952 270.568,163.313 236.661 C 166.192 230.307,167.076 214.465,166.781 174.500 L 166.500 136.500 161.750 136.195 L 157.000 135.890 157.000 179.764 C 157.000 227.888,156.851 229.336,150.910 238.992 C 139.744 257.139,103.359 258.275,90.891 240.867 C 83.518 230.573,83.002 226.408,83.001 177.250 L 83.000 136.000 78.455 136.000 L 73.909 136.000 74.205 183.750 M341.124 151.750 C 337.913 167.210,338.172 166.800,330.536 168.511 C 325.892 169.552,325.476 169.887,325.187 172.820 L 324.873 176.000 331.437 176.000 L 338.000 176.000 338.000 209.057 C 338.000 244.837,338.425 248.634,343.059 254.255 C 351.387 264.358,377.000 265.535,377.000 255.814 L 377.000 251.824 372.750 252.662 C 362.058 254.770,354.600 253.093,350.590 247.678 C 348.580 244.965,348.489 243.539,348.201 210.428 L 347.902 176.000 360.951 176.000 L 374.000 176.000 374.000 172.000 L 374.000 168.000 361.000 168.000 L 348.000 168.000 348.000 157.000 L 348.000 146.000 345.159 146.000 C 342.506 146.000,342.239 146.380,341.124 151.750 M224.500 167.887 C 216.440 170.230,212.898 172.213,209.148 176.484 L 206.000 180.070 206.000 177.160 C 206.000 169.715,205.040 168.000,200.875 168.000 L 197.000 168.000 197.000 214.000 L 197.000 260.000 201.500 260.000 L 206.000 260.000 206.017 232.250 C 206.047 184.422,211.098 175.000,236.710 175.000 C 258.006 175.000,260.228 179.682,260.783 225.750 L 261.196 260.000 265.675 260.000 L 270.153 260.000 269.822 223.750 C 269.457 183.699,269.234 182.272,262.145 174.661 C 254.706 166.675,238.625 163.781,224.500 167.887 M298.000 214.000 L 298.000 260.000 303.000 260.000 L 308.000 260.000 308.000 214.000 L 308.000 168.000 303.000 168.000 L 298.000 168.000 298.000 214.000 " stroke="none" fill-rule="evenodd"></path>
</g>
</svg>