<svg xmlns="http://www.w3.org/2000/svg" width="400" height="400" viewBox="0, 0, 400,400">
<g>
<path d="M305.626 6.539 C 294.274 10.546,287.146 23.256,290.037 34.333 C 296.585 59.425,332.008 58.360,336.618 32.933 C 339.754 15.644,322.196 0.691,305.626 6.539 M188.333 38.435 C 132.334 41.697,79.779 78.241,56.590 130.041 C 52.124 140.016,52.505 140.510,59.333 133.602 C 106.290 86.099,205.745 70.754,282.333 99.194 C 304.591 107.460,326.169 120.737,339.311 134.252 C 345.469 140.587,345.567 139.094,339.779 127.058 C 311.874 69.030,253.140 34.659,188.333 38.435 M51.255 44.528 C 40.407 50.195,38.741 64.920,48.047 72.885 C 64.166 86.683,85.952 63.900,71.712 48.138 C 66.521 42.392,58.166 40.918,51.255 44.528 M255.091 154.294 C 250.981 155.399,250.689 155.913,250.677 162.082 L 250.667 167.164 247.262 167.491 C 240.460 168.144,240.836 175.333,247.673 175.333 L 250.583 175.333 250.792 192.167 L 251.000 209.000 252.865 212.799 C 257.322 221.874,274.724 223.289,273.064 214.442 L 272.606 212.000 268.926 212.000 C 261.056 212.000,260.667 211.012,260.667 191.033 L 260.667 175.333 266.585 175.333 C 273.371 175.333,274.201 174.826,273.876 170.880 L 273.667 168.333 267.333 168.000 L 261.000 167.667 260.833 162.000 C 260.556 152.627,260.680 152.793,255.091 154.294 M151.131 167.948 C 149.369 168.654,146.578 170.338,144.927 171.691 C 141.569 174.443,141.295 174.387,140.718 170.841 L 140.311 168.333 136.322 168.333 L 132.333 168.333 132.562 203.667 C 132.688 223.100,133.019 239.241,133.298 239.536 C 133.577 239.831,135.574 239.981,137.736 239.870 L 141.667 239.667 141.848 226.833 C 141.947 219.775,142.170 214.000,142.342 214.000 C 142.514 214.000,144.020 215.042,145.688 216.315 C 156.113 224.273,172.487 219.345,178.357 206.482 C 188.385 184.509,171.042 159.964,151.131 167.948 M298.000 168.121 C 276.030 175.613,276.030 211.896,298.000 219.127 C 304.623 221.306,320.282 219.990,323.281 217.002 C 325.365 214.925,323.016 210.428,320.116 210.945 C 318.769 211.186,315.867 211.697,313.667 212.081 C 301.695 214.174,291.363 207.460,291.337 197.571 C 291.331 195.426,292.107 195.333,310.055 195.333 L 326.667 195.333 326.659 190.500 C 326.634 173.157,313.440 162.855,298.000 168.121 M357.487 168.060 C 355.921 168.844,353.448 170.877,351.991 172.576 L 349.342 175.667 349.338 172.548 C 349.331 168.054,343.894 165.217,340.944 168.167 C 340.425 168.686,340.285 217.827,340.800 218.349 C 341.669 219.230,347.128 219.490,348.569 218.719 C 349.966 217.971,350.000 217.605,350.000 203.272 C 350.000 182.086,351.697 178.011,361.418 175.852 L 365.667 174.908 365.667 170.954 L 365.667 167.000 363.000 166.817 C 361.297 166.700,359.305 167.149,357.487 168.060 M45.806 167.750 C 45.546 168.010,45.326 177.997,45.316 189.944 C 45.287 226.999,44.682 229.535,35.114 232.694 C 31.684 233.826,31.668 233.845,31.882 236.406 C 32.591 244.894,47.485 239.162,52.405 228.508 L 54.333 224.333 54.333 196.000 L 54.333 167.667 50.306 167.472 C 48.091 167.365,46.066 167.490,45.806 167.750 M106.023 168.623 C 105.602 169.410,105.333 176.192,105.333 186.022 C 105.333 203.919,105.133 204.948,100.935 208.635 C 96.095 212.884,89.311 212.892,85.257 208.654 C 81.969 205.215,81.875 204.649,81.410 185.333 L 81.000 168.333 76.520 168.137 C 72.237 167.949,72.022 168.012,71.626 169.592 C 70.929 172.369,71.776 203.413,72.643 206.841 C 76.067 220.394,92.287 224.569,103.448 214.770 C 106.099 212.442,106.667 212.605,106.667 215.696 C 106.667 218.581,107.934 219.451,111.782 219.205 L 115.000 219.000 115.175 193.711 C 115.312 173.923,115.167 168.306,114.508 167.888 C 112.702 166.741,106.755 167.257,106.023 168.623 M188.211 168.412 C 187.969 169.042,191.726 179.236,197.241 192.912 C 202.435 205.794,206.681 216.720,206.676 217.193 C 206.639 220.745,198.956 229.822,193.758 232.456 C 190.521 234.096,190.513 234.108,190.944 236.800 C 191.896 242.753,193.230 243.100,199.911 239.127 C 208.952 233.752,214.145 224.389,227.346 189.667 C 229.576 183.800,232.280 176.788,233.355 174.084 C 235.723 168.127,235.661 168.000,230.376 168.000 C 225.020 168.000,225.854 166.601,218.842 187.333 C 212.230 206.882,212.182 206.964,210.432 201.903 C 208.612 196.641,207.043 192.313,204.788 186.333 C 196.915 165.462,198.149 167.333,192.258 167.333 C 189.525 167.333,188.522 167.601,188.211 168.412 M308.584 173.750 C 313.315 174.696,318.527 181.573,317.897 186.036 L 317.667 187.667 305.333 187.831 C 291.115 188.021,290.748 187.916,291.918 184.011 C 294.030 176.960,301.535 172.340,308.584 173.750 M161.549 175.289 C 173.585 179.865,174.987 203.269,163.648 210.333 C 150.169 218.731,137.101 202.615,143.104 184.997 C 145.692 177.402,154.674 172.675,161.549 175.289 M53.755 247.856 C 52.196 250.379,67.369 276.891,77.683 289.667 C 150.410 379.752,295.469 360.591,341.666 254.797 C 345.102 246.928,344.554 246.538,338.333 252.428 C 269.878 317.243,127.509 316.990,59.018 251.931 C 56.322 249.369,53.954 247.536,53.755 247.856 M73.262 339.583 C 52.429 346.937,46.219 372.132,61.271 388.228 C 79.582 407.808,112.651 394.575,112.651 367.667 C 112.651 347.235,92.429 332.817,73.262 339.583 " stroke="none" fill-rule="evenodd"></path>
</g>
</svg>