<svg version="1.1" width="515" height="515" xmlns="http://www.w3.org/2000/svg"><g><path d="M293.250 73.626 C 292.563 73.923,292.000 74.804,292.000 75.583 C 292.000 76.362,291.550 77.000,291.000 77.000 C 290.337 77.000,290.000 140.000,290.000 264.000 C 290.000 366.850,290.343 451.000,290.763 451.000 C 291.182 451.000,291.970 452.012,292.513 453.250 L 293.500 455.500 353.000 455.500 C 415.843 455.500,437.621 454.522,440.575 451.568 C 441.455 450.687,443.829 450.000,445.990 450.000 C 450.807 450.000,453.000 449.184,453.000 447.393 C 453.000 446.597,454.008 446.000,455.351 446.000 C 458.163 446.000,464.000 444.074,464.000 443.146 C 464.000 442.784,465.462 441.850,467.250 441.070 C 469.038 440.290,471.175 438.894,472.000 437.969 C 472.825 437.043,474.512 435.966,475.750 435.576 C 476.987 435.185,478.000 434.221,478.000 433.433 C 478.000 432.645,478.659 432.000,479.465 432.000 C 480.270 432.000,481.411 431.100,482.000 430.000 C 482.589 428.900,483.730 428.000,484.535 428.000 C 485.341 428.000,486.000 427.604,486.000 427.121 C 486.000 426.637,487.688 424.461,489.750 422.285 C 491.813 420.109,494.069 417.468,494.764 416.415 C 495.460 415.362,496.921 413.150,498.011 411.500 C 499.101 409.850,499.994 407.712,499.996 406.750 C 499.998 405.788,500.655 405.000,501.455 405.000 C 502.352 405.000,503.161 403.564,503.566 401.250 C 503.927 399.188,504.753 397.050,505.401 396.500 C 507.315 394.874,510.000 383.501,510.000 377.015 C 510.000 372.560,510.359 371.000,511.383 371.000 C 513.601 371.000,513.973 367.626,513.973 347.500 C 513.973 327.374,513.601 324.000,511.383 324.000 C 510.365 324.000,510.002 322.483,510.008 318.250 C 510.018 311.751,507.104 298.879,505.372 297.764 C 504.743 297.359,503.931 295.447,503.569 293.514 C 503.206 291.581,502.353 290.000,501.673 290.000 C 500.993 290.000,499.863 288.056,499.161 285.679 C 498.459 283.303,497.011 280.729,495.943 279.959 C 494.874 279.189,494.000 278.059,494.000 277.448 C 494.000 276.838,492.875 275.736,491.500 275.000 C 490.125 274.264,489.000 273.010,489.000 272.214 C 489.000 270.364,481.460 263.000,479.566 263.000 C 478.779 263.000,477.849 262.100,477.500 261.000 C 477.151 259.900,476.276 259.000,475.555 259.000 C 474.834 259.000,473.685 258.325,473.000 257.500 C 472.315 256.675,470.958 256.000,469.985 256.000 C 469.011 256.000,467.977 255.382,467.687 254.626 C 467.397 253.871,465.549 252.950,463.580 252.581 C 458.838 251.691,459.854 247.151,464.821 247.032 C 465.548 247.014,466.774 246.437,467.546 245.750 C 468.318 245.062,470.151 243.600,471.618 242.500 C 473.086 241.400,475.302 239.553,476.543 238.395 C 477.785 237.238,479.520 236.014,480.400 235.677 C 481.280 235.339,482.000 234.149,482.000 233.031 C 482.000 231.878,482.659 231.000,483.525 231.000 C 484.363 231.000,485.477 229.875,486.000 228.500 C 486.523 227.125,487.412 226.000,487.975 226.000 C 488.539 226.000,489.000 224.861,489.000 223.469 C 489.000 222.076,489.675 220.678,490.500 220.362 C 491.325 220.045,492.000 218.934,492.000 217.893 C 492.000 216.852,492.450 216.000,493.000 216.000 C 493.550 216.000,494.000 215.127,494.000 214.059 C 494.000 212.991,494.450 211.840,495.000 211.500 C 495.550 211.160,496.000 209.334,496.000 207.441 C 496.000 205.548,496.409 204.000,496.909 204.000 C 500.540 204.000,501.295 143.990,497.750 137.096 C 496.788 135.224,496.000 132.663,496.000 131.405 C 496.000 130.147,495.550 128.840,495.000 128.500 C 494.450 128.160,494.000 126.784,494.000 125.441 C 494.000 124.098,493.663 122.995,493.250 122.989 C 492.837 122.982,491.607 121.070,490.516 118.739 C 489.424 116.407,487.962 114.140,487.266 113.700 C 486.570 113.260,486.000 112.340,486.000 111.654 C 486.000 108.896,472.163 94.170,467.124 91.564 C 465.406 90.676,464.000 89.554,464.000 89.072 C 464.000 88.590,462.650 87.725,461.000 87.150 C 459.350 86.575,458.000 85.703,458.000 85.212 C 458.000 84.722,456.200 83.726,454.000 83.000 C 451.800 82.274,450.000 81.400,450.000 81.058 C 450.000 80.716,448.788 80.336,447.306 80.213 C 445.824 80.091,444.306 79.495,443.932 78.890 C 443.558 78.285,440.158 77.542,436.376 77.240 C 431.734 76.868,429.120 76.171,428.331 75.095 C 427.168 73.508,296.799 72.091,293.250 73.626 M28.462 78.250 C 28.201 78.938,28.102 162.750,28.243 264.500 L 28.500 449.500 61.500 449.789 C 79.650 449.948,95.963 449.815,97.750 449.493 L 101.000 448.909 101.000 381.464 C 101.000 314.115,101.003 314.022,103.000 315.732 C 104.100 316.674,105.000 318.179,105.000 319.076 C 105.000 319.974,106.125 321.922,107.500 323.405 C 108.875 324.889,110.000 326.530,110.000 327.052 C 110.000 327.573,110.675 328.000,111.500 328.000 C 112.325 328.000,113.000 328.815,113.000 329.811 C 113.000 330.808,113.900 332.589,115.000 333.770 C 116.100 334.950,117.000 336.337,117.000 336.851 C 117.000 337.365,117.675 338.045,118.500 338.362 C 119.325 338.678,120.000 339.851,120.000 340.969 C 120.000 342.096,120.659 343.000,121.481 343.000 C 122.295 343.000,123.244 344.125,123.589 345.500 C 123.934 346.875,124.521 348.000,124.893 348.000 C 125.265 348.000,126.431 349.462,127.484 351.250 C 129.504 354.676,130.486 356.017,133.112 358.934 C 133.998 359.918,135.573 362.219,136.612 364.046 C 137.650 365.874,139.287 368.186,140.250 369.185 C 141.212 370.183,142.000 371.675,142.000 372.500 C 142.000 373.325,142.675 374.000,143.500 374.000 C 144.325 374.000,145.001 374.563,145.001 375.250 C 145.002 375.938,146.127 377.807,147.501 379.406 C 148.876 381.004,150.000 382.671,150.000 383.110 C 150.000 383.550,151.012 384.968,152.250 386.263 C 154.869 389.004,156.611 391.588,157.987 394.776 C 158.528 396.027,159.611 397.297,160.393 397.597 C 161.176 397.898,162.363 399.461,163.030 401.072 C 163.697 402.682,164.827 404.000,165.542 404.000 C 166.256 404.000,167.144 405.380,167.515 407.068 C 167.885 408.755,168.821 410.378,169.594 410.675 C 170.367 410.971,171.000 411.841,171.000 412.607 C 171.000 413.373,171.401 414.000,171.892 414.000 C 172.382 414.000,173.066 415.125,173.411 416.500 C 173.756 417.875,174.705 419.000,175.519 419.000 C 176.334 419.000,177.000 419.878,177.000 420.950 C 177.000 422.023,177.598 423.260,178.328 423.700 C 179.059 424.140,180.521 426.054,181.578 427.954 C 182.635 429.854,184.704 432.618,186.175 434.097 C 187.646 435.576,189.896 438.693,191.175 441.024 C 192.454 443.355,194.089 446.333,194.810 447.641 L 196.119 450.021 240.310 449.760 L 284.500 449.500 284.832 446.588 C 285.194 443.414,283.519 439.426,280.757 436.883 C 279.791 435.993,279.000 434.855,279.000 434.353 C 279.000 433.852,278.100 432.793,277.000 432.000 C 275.900 431.207,275.000 430.052,275.000 429.432 C 275.000 428.813,274.100 427.268,273.000 426.000 C 271.900 424.732,271.000 423.379,271.000 422.993 C 271.000 422.367,269.506 420.465,264.525 414.750 C 263.686 413.788,263.000 412.764,263.000 412.476 C 263.000 412.188,261.425 409.662,259.500 406.864 C 257.575 404.065,256.000 401.376,256.000 400.888 C 256.000 400.400,255.325 400.000,254.500 400.000 C 253.659 400.000,253.000 399.108,253.000 397.969 C 253.000 396.851,252.381 395.700,251.625 395.410 C 250.869 395.120,249.455 393.119,248.484 390.963 C 247.512 388.808,245.880 386.779,244.858 386.455 C 243.836 386.131,243.000 385.221,243.000 384.433 C 243.000 383.645,242.599 383.000,242.108 383.000 C 241.618 383.000,240.949 381.987,240.621 380.750 C 240.030 378.516,237.337 374.686,233.500 370.619 C 232.400 369.454,230.614 366.760,229.530 364.634 C 228.447 362.508,226.984 360.547,226.280 360.277 C 225.576 360.007,225.000 358.964,225.000 357.960 C 225.000 356.956,224.100 355.849,223.000 355.500 C 221.894 355.149,221.000 353.987,221.000 352.901 C 221.000 351.821,220.366 350.694,219.592 350.397 C 218.817 350.100,217.637 348.539,216.970 346.928 C 216.303 345.318,215.371 344.000,214.898 344.000 C 214.425 344.000,213.756 342.875,213.411 341.500 C 213.066 340.125,212.168 339.000,211.417 339.000 C 210.665 339.000,209.161 337.049,208.074 334.664 C 206.988 332.278,205.402 329.748,204.550 329.041 C 203.697 328.334,203.000 327.166,203.000 326.445 C 203.000 325.724,202.100 324.849,201.000 324.500 C 199.894 324.149,199.000 322.987,199.000 321.901 C 199.000 320.821,198.325 319.678,197.500 319.362 C 196.675 319.045,196.000 318.163,196.000 317.401 C 196.000 316.640,195.100 315.455,194.000 314.768 C 192.900 314.081,192.000 312.938,192.000 312.228 C 192.000 311.518,191.325 310.678,190.500 310.362 C 189.675 310.045,189.000 308.934,189.000 307.893 C 189.000 306.852,188.634 306.000,188.187 306.000 C 187.739 306.000,186.755 304.425,186.000 302.500 C 185.245 300.575,184.066 299.000,183.381 299.000 C 182.695 299.000,181.849 298.100,181.500 297.000 C 181.151 295.900,180.256 295.000,179.512 295.000 C 178.768 295.000,177.856 293.620,177.485 291.932 C 177.115 290.245,176.179 288.622,175.406 288.325 C 174.633 288.029,174.000 287.159,174.000 286.393 C 174.000 285.627,173.550 285.000,173.000 285.000 C 172.450 285.000,172.000 284.264,172.000 283.365 C 172.000 282.465,170.988 280.690,169.750 279.421 C 166.020 275.593,164.513 273.638,163.018 270.685 C 162.234 269.137,160.447 266.638,159.046 265.133 C 157.646 263.627,155.604 260.619,154.510 258.447 C 153.415 256.276,152.065 254.169,151.510 253.765 C 150.857 253.290,150.901 253.025,151.633 253.015 C 152.257 253.007,153.031 252.213,153.354 251.250 C 154.162 248.846,156.159 245.847,158.250 243.897 C 159.213 243.000,160.000 241.756,160.000 241.133 C 160.000 240.510,160.429 240.000,160.953 240.000 C 161.477 240.000,162.654 238.425,163.567 236.500 C 164.480 234.575,165.627 233.000,166.114 233.000 C 166.601 233.000,167.000 232.403,167.000 231.674 C 167.000 230.945,168.125 229.292,169.500 228.000 C 170.875 226.708,172.000 225.259,172.000 224.780 C 172.000 224.301,173.090 222.819,174.422 221.487 C 175.755 220.154,177.169 218.037,177.566 216.782 C 177.962 215.527,179.122 213.912,180.143 213.193 C 181.165 212.475,182.000 211.253,182.000 210.478 C 182.000 209.704,182.900 208.589,184.000 208.000 C 185.100 207.411,186.000 206.256,186.000 205.433 C 186.000 204.611,186.675 203.678,187.500 203.362 C 188.325 203.045,189.000 201.982,189.000 201.000 C 189.000 200.018,189.675 198.955,190.500 198.638 C 191.325 198.322,192.000 197.374,192.000 196.531 C 192.000 195.689,192.473 195.000,193.052 195.000 C 193.631 195.000,194.575 193.650,195.150 192.000 C 195.725 190.350,196.547 189.000,196.977 189.000 C 197.406 189.000,198.317 187.650,199.000 186.000 C 199.683 184.350,200.854 183.000,201.602 183.000 C 202.350 183.000,203.246 181.869,203.593 180.487 C 203.939 179.105,204.736 177.643,205.362 177.237 C 206.868 176.261,211.000 170.334,211.000 169.147 C 211.000 168.634,211.675 167.955,212.500 167.638 C 213.325 167.322,214.000 166.374,214.000 165.531 C 214.000 164.689,214.461 164.000,215.025 164.000 C 215.588 164.000,216.477 162.875,217.000 161.500 C 217.523 160.125,218.363 159.000,218.867 159.000 C 219.371 159.000,220.058 157.905,220.394 156.567 C 220.730 155.228,221.821 153.874,222.819 153.557 C 223.817 153.241,225.243 151.429,225.987 149.532 C 226.732 147.635,227.894 145.871,228.570 145.612 C 229.246 145.352,230.329 143.534,230.977 141.570 C 231.625 139.607,232.787 138.000,233.559 138.000 C 234.330 138.000,235.244 136.875,235.589 135.500 C 235.934 134.125,236.843 133.000,237.608 133.000 C 238.374 133.000,239.000 132.170,239.000 131.155 C 239.000 130.140,239.900 128.495,241.000 127.500 C 242.100 126.505,243.000 125.115,243.000 124.412 C 243.000 123.710,243.818 122.875,244.817 122.558 C 245.816 122.241,247.265 120.374,248.036 118.409 C 248.807 116.444,250.239 114.407,251.219 113.883 C 252.198 113.359,253.000 112.045,253.000 110.965 C 253.000 109.884,253.640 109.000,254.422 109.000 C 255.205 109.000,256.364 107.428,256.997 105.508 C 257.631 103.587,258.749 101.674,259.482 101.258 C 260.670 100.582,268.000 90.385,268.000 89.408 C 268.000 89.193,269.350 87.727,271.000 86.150 C 279.799 77.742,276.569 77.000,231.148 77.000 C 190.753 77.000,189.000 77.119,189.000 79.866 C 189.000 80.775,188.100 82.081,187.000 82.768 C 185.900 83.455,185.000 84.640,185.000 85.401 C 185.000 86.163,184.318 87.048,183.485 87.367 C 182.652 87.687,181.538 89.085,181.010 90.474 C 180.482 91.863,179.588 93.000,179.025 93.000 C 178.461 93.000,178.000 93.608,178.000 94.352 C 178.000 95.095,176.650 97.116,175.000 98.843 C 173.350 100.569,172.000 102.366,172.000 102.835 C 172.000 103.305,170.876 104.996,169.501 106.594 C 168.127 108.193,167.002 110.257,167.001 111.183 C 167.001 112.108,166.145 113.137,165.099 113.468 C 164.054 113.800,162.921 115.181,162.580 116.536 C 162.240 117.891,161.509 119.000,160.956 119.000 C 160.403 119.000,159.523 120.125,159.000 121.500 C 158.477 122.875,157.588 124.000,157.025 124.000 C 156.461 124.000,156.000 124.567,156.000 125.260 C 156.000 125.953,154.875 127.734,153.500 129.217 C 152.125 130.699,151.000 132.501,151.000 133.219 C 151.000 133.937,149.875 135.370,148.500 136.403 C 147.125 137.435,146.000 138.845,146.000 139.535 C 146.000 140.225,144.883 141.850,143.517 143.145 C 142.152 144.440,141.027 146.287,141.017 147.250 C 141.008 148.213,140.370 149.000,139.599 149.000 C 138.829 149.000,137.371 151.001,136.359 153.446 C 135.348 155.891,133.728 158.099,132.760 158.352 C 131.792 158.606,131.000 159.509,131.000 160.361 C 131.000 161.212,129.988 163.012,128.750 164.359 C 125.085 168.351,124.000 169.856,124.000 170.949 C 124.000 171.518,123.100 172.545,122.000 173.232 C 120.900 173.919,120.000 174.967,120.000 175.560 C 120.000 176.154,118.674 178.125,117.053 179.941 C 115.432 181.756,113.821 184.537,113.473 186.121 C 113.126 187.704,112.191 189.000,111.396 189.000 C 110.601 189.000,109.523 190.125,109.000 191.500 C 108.477 192.875,107.632 194.000,107.123 194.000 C 106.613 194.000,105.725 195.350,105.150 197.000 C 104.575 198.650,103.664 200.000,103.125 200.000 C 102.587 200.000,101.941 200.787,101.689 201.750 C 101.438 202.713,101.180 175.503,101.116 141.285 C 101.003 80.861,100.944 79.041,99.066 78.035 C 96.060 76.427,29.078 76.630,28.462 78.250 M418.250 123.520 C 421.961 123.949,424.000 124.646,424.000 125.486 C 424.000 126.937,426.162 128.000,429.113 128.000 C 430.185 128.000,431.322 128.675,431.638 129.500 C 431.955 130.325,432.728 131.002,433.357 131.005 C 434.414 131.009,438.442 134.606,443.648 140.195 C 444.829 141.463,446.102 143.963,446.477 145.750 C 446.852 147.537,447.467 149.000,447.843 149.000 C 448.219 149.000,449.087 151.363,449.773 154.250 C 450.458 157.137,451.465 159.650,452.009 159.833 C 453.750 160.419,453.280 188.863,451.500 190.642 C 450.676 191.467,449.718 193.910,449.373 196.071 C 449.027 198.232,448.405 200.000,447.991 200.000 C 447.576 200.000,446.728 202.025,446.104 204.500 C 445.398 207.305,444.412 209.000,443.486 209.000 C 442.669 209.000,442.000 209.592,442.000 210.316 C 442.000 211.040,440.425 213.026,438.500 214.731 C 436.575 216.435,435.000 218.233,435.000 218.725 C 435.000 219.218,432.188 220.426,428.750 221.410 C 425.313 222.393,420.925 223.941,419.000 224.849 C 415.973 226.277,410.328 226.538,377.250 226.784 L 339.000 227.068 339.000 174.488 L 339.000 121.908 375.750 122.381 C 395.962 122.641,415.087 123.154,418.250 123.520 M406.000 276.000 C 406.000 276.550,408.475 277.000,411.500 277.000 C 414.525 277.000,417.000 277.450,417.000 278.000 C 417.000 278.550,419.448 279.000,422.441 279.000 C 425.434 279.000,428.160 279.450,428.500 280.000 C 428.840 280.550,429.991 281.000,431.059 281.000 C 432.127 281.000,433.004 281.337,433.008 281.750 C 433.018 282.765,437.965 285.000,440.199 285.000 C 441.190 285.000,442.000 285.645,442.000 286.433 C 442.000 287.221,442.900 288.151,444.000 288.500 C 445.100 288.849,446.000 289.572,446.000 290.107 C 446.000 290.642,447.688 292.794,449.750 294.888 C 455.219 300.442,456.000 301.638,456.000 304.458 C 456.000 305.856,456.379 307.000,456.842 307.000 C 457.893 307.000,460.000 313.861,460.000 317.283 C 460.000 318.686,460.563 320.020,461.250 320.249 C 463.192 320.894,463.644 360.052,461.726 361.468 C 460.957 362.036,460.043 364.924,459.695 367.887 C 459.347 370.850,458.373 374.036,457.531 374.966 C 456.689 375.896,456.000 377.811,456.000 379.222 C 456.000 380.632,455.325 382.045,454.500 382.362 C 453.675 382.678,453.000 383.518,453.000 384.228 C 453.000 384.938,452.100 386.081,451.000 386.768 C 449.900 387.455,449.000 388.913,449.000 390.008 C 449.000 391.130,448.331 392.000,447.469 392.000 C 446.626 392.000,445.678 392.675,445.362 393.500 C 445.045 394.325,444.214 395.000,443.515 395.000 C 442.817 395.000,441.685 395.675,441.000 396.500 C 440.315 397.325,438.910 398.000,437.878 398.000 C 436.845 398.000,436.000 398.450,436.000 399.000 C 436.000 399.550,435.325 400.000,434.500 400.000 C 433.675 400.000,433.000 400.450,433.000 401.000 C 433.000 401.550,431.650 402.000,430.000 402.000 C 428.350 402.000,427.000 402.360,427.000 402.800 C 427.000 405.147,413.721 406.000,377.190 406.000 L 339.000 406.000 339.000 340.500 L 339.000 275.000 372.500 275.000 C 394.167 275.000,406.000 275.353,406.000 276.000 " stroke="none" fill-rule="evenodd"></path></g></svg>