<svg xmlns="http://www.w3.org/2000/svg" version="1.1" width="400" height="400">
  <g transform="translate(-1.3241527,-0.55614403)">
<path d="m 145.28,91.797 v 45.557 l 24.152,89.043 c 13.284,48.974 26.389,97.431 29.121,107.683 2.733,10.252 5.039,18.802 5.125,19 l 0.155,0.36 h 15.204 15.203 v -38.415 -38.416 l 4.272,-6.304 c 2.349,-3.468 4.311,-6.301 4.36,-6.297 0.048,0.005 13.554,20.111 30.012,44.68 l 29.925,44.672 48.435,0.04 c 31.957,0.027 48.436,-0.013 48.436,-0.118 0,-0.088 -24.326,-36.106 -54.058,-80.04 -29.732,-43.935 -54.147,-80.027 -54.255,-80.204 -0.178,-0.291 4.594,-7.381 48.56,-72.16 26.816,-39.511 49.181,-72.468 49.699,-73.238 l 0.942,-1.4 -48.524,0.002 -48.524,0.002 -29.6,43.738 -29.6,43.737 -0.04,-43.739 -0.041,-43.74 H 189.76 145.28 V 91.797 M 0,141.023 c 0,0.26 45.958,169.621 46.057,169.726 0.057,0.06 10.183,-9.386 22.503,-20.991 20.836,-19.627 22.418,-21.08 22.658,-20.829 0.229,0.24 69.475,81.99 70.863,83.659 0.306,0.368 0.583,0.641 0.616,0.608 0.098,-0.097 -45.958,-169.843 -46.069,-169.797 -0.056,0.022 -10.164,9.532 -22.465,21.133 -12.3,11.6 -22.418,21.032 -22.484,20.96 C 71.613,225.419 55.52,206.424 35.918,183.28 -4.083,136.052 0,140.856 0,141.023"   style="fill-rule:evenodd;stroke:none" />
  </g>
</svg>
