<svg version="1.1" width="400" height="400" xmlns="http://www.w3.org/2000/svg">
<g>
<path d="M194.500 19.064 C 181.850 20.055,169.813 20.896,167.750 20.933 L 164.000 21.000 164.000 154.826 L 164.000 288.653 196.250 284.560 L 228.500 280.467 229.000 222.585 L 229.500 164.702 273.343 227.350 C 297.457 261.806,317.556 290.226,318.007 290.504 C 318.747 290.962,380.199 273.084,384.151 271.261 C 385.499 270.640,377.758 259.311,341.961 209.516 L 298.119 148.533 300.798 145.016 C 302.271 143.082,322.312 117.677,345.332 88.560 L 387.187 35.621 351.988 26.673 C 330.052 21.097,316.545 18.103,316.144 18.729 C 315.790 19.281,296.150 45.283,272.500 76.512 L 229.500 133.290 229.242 75.145 L 228.984 17.000 223.242 17.131 C 220.084 17.203,207.150 18.073,194.500 19.064 M72.250 78.183 C 64.963 85.423,59.000 91.501,59.000 91.691 C 59.000 91.880,65.300 101.469,73.000 113.000 C 80.700 124.531,87.000 134.279,87.000 134.663 C 87.000 135.047,84.802 139.667,82.115 144.931 C 77.548 153.877,72.000 168.501,72.000 171.595 C 72.000 173.243,73.263 172.942,43.120 178.462 C 29.711 180.918,18.602 183.065,18.433 183.233 C 18.265 183.402,17.761 192.351,17.313 203.121 L 16.500 222.701 43.487 227.421 C 58.330 230.017,70.517 232.222,70.570 232.320 C 70.623 232.419,72.076 237.000,73.800 242.500 C 75.523 248.000,79.087 256.775,81.720 262.000 L 86.506 271.500 70.165 294.399 L 53.824 317.299 68.088 331.588 L 82.351 345.877 105.926 329.949 L 129.500 314.021 138.500 318.715 C 143.450 321.296,152.207 325.006,157.959 326.960 L 168.418 330.511 173.385 358.256 L 178.352 386.000 198.631 386.000 L 218.909 386.000 219.505 382.750 C 219.833 380.962,222.008 368.316,224.340 354.646 L 228.580 329.792 238.040 326.579 C 243.243 324.811,251.897 321.097,257.270 318.324 L 267.041 313.283 289.920 329.529 L 312.799 345.774 326.770 331.102 L 340.742 316.430 335.485 309.163 C 332.594 305.166,330.047 301.714,329.825 301.492 C 329.603 301.269,325.872 302.182,321.535 303.520 C 311.983 306.468,314.573 308.623,297.000 283.105 C 280.841 259.640,282.068 260.922,279.665 264.990 C 262.968 293.255,214.157 311.906,176.987 304.223 C 86.436 285.506,64.570 161.384,143.828 116.000 L 149.941 112.500 149.970 97.802 L 150.000 83.104 147.250 84.078 C 145.738 84.613,140.908 86.972,136.518 89.320 L 128.536 93.589 108.294 79.294 C 97.160 71.432,87.477 65.004,86.776 65.010 C 86.074 65.015,79.537 70.943,72.250 78.183 M334.000 175.766 C 334.000 175.981,341.538 187.035,350.750 200.332 L 367.500 224.507 373.402 223.618 L 379.303 222.728 378.706 203.252 C 378.378 192.540,377.909 183.576,377.665 183.332 C 377.067 182.733,334.000 175.271,334.000 175.766 " stroke="none" fill-rule="evenodd"></path>
</g>
</svg>