<svg version="1.1" width="400" height="400" xmlns="http://www.w3.org/2000/svg">
<g>
<path d="M166.984 94.046 C 158.061 102.872,150.536 109.869,150.262 109.595 C 149.988 109.321,149.838 104.013,149.929 97.799 C 150.136 83.621,149.844 83.150,140.709 82.881 C 131.367 82.607,131.939 80.162,132.237 119.063 L 132.500 153.500 140.193 153.791 C 149.946 154.160,150.169 153.819,149.932 138.920 C 149.836 132.865,150.053 127.614,150.414 127.252 C 150.776 126.891,158.476 133.988,167.525 143.024 L 183.977 159.454 189.489 154.011 C 196.590 146.998,196.548 146.762,186.500 137.115 C 181.825 132.627,178.000 128.740,178.000 128.477 C 178.000 128.215,197.970 128.000,222.378 128.000 C 273.372 128.000,269.241 128.904,268.796 117.842 L 268.500 110.500 222.750 110.240 C 197.587 110.097,177.000 109.816,177.000 109.616 C 177.000 109.416,181.050 105.289,186.000 100.445 C 196.491 90.179,196.601 89.696,189.952 83.048 C 183.501 76.596,185.685 75.551,166.984 94.046 M210.712 241.784 C 204.487 248.105,204.560 248.394,214.981 258.766 C 219.921 263.682,223.671 267.996,223.315 268.352 C 222.958 268.708,202.248 269.000,177.293 269.000 L 131.919 269.000 132.210 277.250 L 132.500 285.500 177.250 285.760 C 202.072 285.905,222.000 286.412,222.000 286.899 C 222.000 287.381,218.400 291.280,214.000 295.562 C 204.579 304.729,204.464 305.369,211.048 311.952 C 217.602 318.507,215.928 319.283,233.663 301.479 C 252.594 282.475,251.327 282.789,251.066 297.177 C 250.803 311.682,251.620 313.000,260.878 313.000 C 269.486 313.000,269.063 314.994,268.763 275.882 L 268.500 241.500 261.363 241.208 C 251.062 240.788,250.754 241.239,251.170 256.153 C 251.380 263.699,251.132 268.002,250.488 268.001 C 249.931 268.001,242.512 261.025,234.000 252.500 C 216.550 235.022,217.116 235.283,210.712 241.784 " stroke="none" fill-rule="evenodd"></path>
</g>
</svg>