<?xml version="1.0" encoding="UTF-8" standalone="no"?>
<!DOCTYPE svg PUBLIC "-//W3C//DTD SVG 1.1//EN" "http://www.w3.org/Graphics/SVG/1.1/DTD/svg11.dtd">
<svg width="100%" height="100%" viewBox="0 0 400 400" version="1.1" xmlns="http://www.w3.org/2000/svg" xmlns:xlink="http://www.w3.org/1999/xlink" xml:space="preserve" xmlns:serif="http://www.serif.com/" style="fill-rule:evenodd;clip-rule:evenodd;stroke-linejoin:round;stroke-miterlimit:2;">
    <g id="svgg">
        <path id="path0" d="M125,74C123.157,76.556 116.124,76.76 113.643,77.5C109.011,78.881 105.219,82.644 101,83.975C99.26,84.524 97.159,83.407 95.533,84.233C94.177,84.922 91.63,90.574 90,92C88.127,93.639 85.236,94.111 83.563,95.45C73.285,103.672 64.738,119.247 60.434,131.686C60.18,132.42 57.145,139.366 57,141C55.331,159.778 54.173,179.703 62.877,196.893C64.418,199.936 66.914,200.395 68.279,202.449C68.894,203.375 67.757,204.833 68.335,205.781C69.163,207.14 72.468,208.275 73.75,209.427C76.923,212.278 80.014,216.082 83.965,217.951C89.818,220.72 96.955,223.05 103.5,223C107.425,222.97 117.538,221.457 121.365,219.99C124.208,218.9 126.576,214.433 128,212C132.361,204.549 133.244,196.618 127,189.133C123.733,185.217 118.258,184.321 114,182C106.091,177.689 96.752,169.069 97,159C97.045,157.158 98.698,153.997 99.094,152C99.688,149.008 99.671,145.851 100.756,143C102.033,139.644 104.694,136.993 106.693,134.01C115.559,120.781 132.081,109.6 148.565,113.895C149.133,114.043 149.025,115.11 149.563,115.346C153.195,116.94 156.615,116.839 159.721,120C162.623,122.954 163.5,129.531 164,132.99C164.42,135.895 167.185,140.12 164.753,141.764C164.196,142.14 161.79,140.707 161.316,141.783C159.932,144.926 160.877,148.68 160,152C158.297,158.443 155.001,166.277 152,172.279C148.586,179.106 147.384,186.817 144.305,193.493C143.965,194.23 142.844,194.326 142.393,195C141.377,196.518 139.935,202.123 139.5,203.357C137.259,209.706 134.195,215.616 132.067,222C128.248,233.458 122.242,244.308 118,255.649C114.152,265.937 107.016,277.258 107.8,288.534C108.185,294.062 109.822,303.752 116.752,305.267C133.439,308.913 144.482,302.009 152,288.567C152.945,286.878 155.118,285.962 155.746,284.132C155.961,283.506 155.716,277.428 155.907,276.754C156.558,274.453 159.941,270.358 161,268C163.791,261.787 166.503,255.203 169,249C169.775,247.075 169.361,244.758 170.317,242.916C170.84,241.907 172.171,243.379 172.686,242.338C174.085,239.511 174.734,235.165 176,232C178.456,225.859 179.794,218.67 182.422,212.808C183.122,211.247 184.956,211.743 185.601,210.108C186.612,207.549 184.249,202.044 188.5,202C192.491,201.958 190.525,206.929 191.454,209.361C192.055,210.938 193.925,211.514 194.539,213.081C195.32,215.072 194.578,217.463 195.397,219.438C195.853,220.538 197.727,220.622 198.126,221.744C198.831,223.723 198.225,226.007 198.891,228C202.278,238.138 206.976,248.354 211,258.292C212.784,262.698 212.923,267.604 214.454,271.93C217.014,279.161 220.881,286.981 224,294C228.099,303.222 229.507,314.692 234.392,323.309C234.63,323.728 236.973,324.26 237.145,324.778C237.86,326.925 236.173,329.526 237.152,331.566C237.368,332.018 240.239,331.548 240.518,331.697C242.808,332.92 243.232,338.263 245.672,340C253.219,345.374 263.007,347.569 271.903,347.745C291.098,348.124 310.301,348 329.5,348L400,348L400,307L341,307C321.67,307 301.861,310.45 283.016,306.147C281.287,305.752 282.574,304.114 281.312,303.393C278.401,301.729 277.919,303.424 275,301.567C269.665,298.172 267.858,288.661 266,283C265.262,280.752 263.698,279.094 263,277C262.133,274.398 262.658,271.434 261.651,268.883C261.254,267.877 259.208,268.258 258.856,267.236C258.111,265.074 259.348,262.572 258.704,260.378C257.635,256.737 254.549,252.909 253.209,249.151C250.906,242.692 249.373,236.428 247,230C245.254,225.272 244.17,219.989 242.459,215.2C241.691,213.049 240.36,214.288 239.422,212.191C238.361,209.82 238.589,207.02 237.62,204.61C237.045,203.181 234.53,200.805 235.744,198.747C236.373,197.68 238.147,197.854 239,196.955C242.146,193.641 245.832,189.483 248.797,186C250.137,184.425 250.101,181.957 251.456,180.395C252.777,178.873 257.438,178.126 258.673,176.576C258.95,176.228 258.479,173.801 258.726,173.444C259.394,172.48 262.923,170.942 264,170C269.872,164.862 273.562,158.699 280.035,154C282.609,152.132 285.884,148.017 287.5,145.409C288.67,143.522 288.594,140.687 290.419,139.421C290.765,139.181 293.24,139.821 293.585,139.574C295.299,138.346 297.862,133.91 299.5,132C304.96,125.63 311.626,121.083 317,114.867C319.132,112.401 321.636,108.917 323.067,106C323.881,104.342 323.392,102.162 324.417,100.625C325.33,99.255 327.12,100.923 327.683,98.812C328.106,97.229 328.106,87.771 327.683,86.188C327.12,84.077 325.33,85.745 324.417,84.375C323.361,82.792 323.555,80.583 322.5,79C320.37,75.806 314.271,75.331 311.23,74C310.148,73.527 309.397,72.36 308.247,72.088C307.025,71.799 306.123,73.438 305,74C301.667,75.667 298.062,76.044 294.643,77.5C283.658,82.178 275.581,95.326 267.444,103.481C261.006,109.932 253.546,116.494 248,123.906C246.728,125.606 245.946,123.853 244.226,125.131C242.42,126.473 243.066,129.636 241.616,131.356C240.552,132.618 238.863,133.198 237.634,134.3C235.561,136.16 235.019,139.946 232.715,141.444C231.624,142.153 230.103,142.184 229.182,143.103C227.754,144.527 228.11,147.217 226.633,148.591C224.974,150.134 224.176,147.746 222.461,149.461C220.799,151.123 223.172,151.974 221.585,153.635C220.507,154.764 217.414,155.763 216,157C213.02,159.607 209.607,163.02 207,166C205.281,167.965 202.371,172.907 200.571,174C199.978,174.36 199.904,172.687 200,172C200.419,169.005 201.469,169.4 201.689,166.472C201.984,162.543 203.925,160.381 205,156.48C208.454,143.952 208.993,144.15 209,128.779C209.003,121.986 211.65,114.228 208.129,108.418C207.637,107.607 206.056,108.179 205.455,107.445C203.324,104.844 204.126,99.864 202,97C196.485,89.57 187.254,80.723 178.357,77.5C175.383,76.422 172.052,76.601 169.07,75.546C165.673,74.343 166.513,72.638 162.895,72.294C157.288,71.76 151.633,72 146,72C140.367,72 134.712,71.76 129.105,72.294C127.63,72.434 125.866,72.798 125,74"/>
    </g>
</svg>
