<svg xmlns="http://www.w3.org/2000/svg" width="400" height="400" viewBox="0, 0, 400,400"><g><path d="M2.854 91.735 C 2.515 92.143,2.424 119.096,2.499 196.842 L 2.600 301.400 12.600 301.400 L 22.600 301.400 22.800 267.759 L 23.000 234.118 24.400 232.516 C 25.170 231.636,26.680 229.892,27.756 228.642 C 29.617 226.480,29.744 226.405,30.356 227.100 C 31.513 228.412,32.800 230.358,32.800 230.796 C 32.800 231.032,33.070 231.329,33.400 231.455 C 33.730 231.582,34.000 231.841,34.000 232.030 C 34.000 232.220,34.765 233.469,35.700 234.807 C 36.635 236.145,37.670 237.669,38.000 238.193 C 38.963 239.724,42.566 244.981,42.803 245.200 C 43.013 245.395,44.186 247.139,44.995 248.461 C 46.533 250.974,48.701 254.208,49.231 254.780 C 49.577 255.155,49.977 255.762,50.118 256.131 C 50.259 256.499,50.561 256.800,50.787 256.800 C 51.014 256.800,51.200 257.057,51.200 257.371 C 51.200 257.686,51.426 258.181,51.703 258.471 C 52.170 258.963,58.099 267.613,59.005 269.124 C 59.705 270.293,60.973 272.192,61.192 272.400 C 61.308 272.510,61.942 273.410,62.601 274.400 C 63.261 275.390,63.935 276.260,64.100 276.333 C 64.265 276.407,64.400 276.630,64.400 276.829 C 64.400 277.028,65.130 278.228,66.022 279.496 C 66.914 280.763,68.847 283.600,70.316 285.800 C 71.786 288.000,73.126 289.860,73.294 289.933 C 73.462 290.007,73.600 290.294,73.600 290.571 C 73.600 290.849,73.960 291.402,74.400 291.800 C 74.840 292.198,75.200 292.772,75.200 293.075 C 75.200 293.377,75.470 293.729,75.800 293.855 C 76.130 293.982,76.400 294.323,76.400 294.614 C 76.400 294.905,76.625 295.381,76.900 295.671 C 77.175 295.962,77.940 297.010,78.600 298.000 C 79.260 298.990,80.025 300.038,80.300 300.329 C 80.575 300.619,80.800 301.027,80.800 301.236 C 80.800 301.466,84.668 301.572,90.700 301.507 L 100.600 301.400 100.731 300.478 C 100.803 299.971,100.630 299.277,100.346 298.935 C 100.063 298.594,99.644 297.979,99.416 297.568 C 99.187 297.157,98.235 295.731,97.300 294.398 C 96.365 293.065,95.600 291.801,95.600 291.587 C 95.600 291.374,95.414 291.200,95.187 291.200 C 94.961 291.200,94.658 290.885,94.514 290.500 C 94.276 289.860,92.878 287.678,92.400 287.200 C 91.922 286.722,90.524 284.540,90.286 283.900 C 90.142 283.515,89.839 283.200,89.613 283.200 C 89.386 283.200,89.200 283.018,89.200 282.796 C 89.200 282.574,88.570 281.494,87.800 280.396 C 87.030 279.298,85.770 277.502,85.000 276.404 C 84.230 275.306,83.600 274.226,83.600 274.004 C 83.600 273.782,83.465 273.597,83.300 273.592 C 83.135 273.588,82.460 272.692,81.800 271.600 C 81.140 270.508,80.465 269.612,80.300 269.608 C 80.135 269.603,80.000 269.358,80.000 269.062 C 80.000 268.766,79.640 268.198,79.200 267.800 C 78.760 267.402,78.400 266.828,78.400 266.525 C 78.400 266.223,78.130 265.871,77.800 265.745 C 77.470 265.618,77.188 265.309,77.173 265.057 C 77.158 264.806,76.346 263.520,75.368 262.200 C 74.390 260.880,73.416 259.395,73.205 258.900 C 72.993 258.405,72.635 258.000,72.410 258.000 C 72.184 258.000,72.000 257.796,72.000 257.548 C 72.000 257.299,71.370 256.219,70.600 255.147 C 69.830 254.075,69.200 253.019,69.200 252.799 C 69.200 252.580,69.014 252.400,68.787 252.400 C 68.560 252.400,68.245 252.081,68.087 251.692 C 67.685 250.699,64.681 246.228,64.308 246.067 C 64.139 245.993,64.000 245.673,64.000 245.354 C 64.000 245.036,63.730 244.671,63.400 244.545 C 63.070 244.418,62.800 244.062,62.800 243.753 C 62.800 243.445,62.440 242.884,62.000 242.507 C 61.560 242.130,61.200 241.666,61.200 241.474 C 61.200 241.283,60.885 240.714,60.500 240.209 C 59.707 239.170,59.327 238.616,57.476 235.800 C 56.754 234.700,55.496 232.857,54.681 231.704 C 53.867 230.551,53.200 229.446,53.200 229.247 C 53.200 229.048,52.930 228.782,52.600 228.655 C 52.270 228.529,52.000 228.232,52.000 227.996 C 52.000 227.629,50.608 225.406,49.999 224.800 C 49.888 224.690,49.258 223.790,48.599 222.800 C 47.939 221.810,47.265 220.940,47.100 220.867 C 46.935 220.793,46.788 220.523,46.773 220.267 C 46.758 220.010,45.949 218.720,44.974 217.400 C 42.055 213.447,41.899 213.060,42.823 212.067 C 43.256 211.603,45.075 209.553,46.867 207.512 C 48.658 205.470,50.276 203.740,50.462 203.667 C 50.648 203.593,50.800 203.374,50.800 203.180 C 50.800 202.986,51.385 202.233,52.100 201.507 C 52.815 200.781,54.570 198.853,56.000 197.222 C 57.430 195.591,58.915 193.929,59.300 193.528 C 59.685 193.128,60.000 192.713,60.000 192.607 C 60.000 192.501,60.585 191.805,61.300 191.060 C 62.429 189.884,66.111 185.842,68.600 183.047 C 69.040 182.553,70.210 181.200,71.200 180.040 C 72.190 178.881,73.782 177.092,74.738 176.066 C 75.695 175.040,77.315 173.215,78.338 172.012 C 79.362 170.808,80.695 169.329,81.300 168.725 C 81.905 168.121,82.400 167.540,82.400 167.434 C 82.400 167.327,83.304 166.286,84.410 165.120 C 86.824 162.574,86.931 161.461,84.780 161.281 C 83.465 161.170,83.157 161.386,80.580 164.231 C 79.051 165.919,77.616 167.503,77.390 167.750 C 77.039 168.136,72.899 172.814,69.609 176.544 C 69.054 177.173,68.240 178.082,67.800 178.564 C 65.598 180.977,61.764 185.333,61.218 186.042 C 60.878 186.483,59.970 187.518,59.200 188.343 C 58.430 189.168,56.630 191.177,55.200 192.807 C 53.770 194.437,51.955 196.497,51.167 197.385 C 50.379 198.273,49.209 199.609,48.567 200.354 C 47.925 201.099,46.860 202.275,46.200 202.968 C 45.540 203.661,43.920 205.473,42.600 206.994 C 41.280 208.516,39.930 210.058,39.600 210.420 C 39.270 210.782,37.920 212.303,36.600 213.800 C 35.280 215.296,33.300 217.504,32.200 218.705 C 31.100 219.907,30.138 221.055,30.063 221.256 C 29.987 221.458,29.087 222.492,28.063 223.554 C 27.038 224.615,25.538 226.230,24.729 227.142 C 23.920 228.054,23.156 228.800,23.030 228.800 C 22.905 228.800,22.757 197.885,22.701 160.100 L 22.600 91.400 12.955 91.293 C 5.170 91.207,3.222 91.292,2.854 91.735 M171.600 160.666 C 169.950 160.983,167.880 161.425,167.000 161.646 C 166.120 161.868,164.528 162.210,163.463 162.406 C 162.398 162.603,161.318 162.927,161.063 163.127 C 160.808 163.326,160.060 163.611,159.400 163.759 C 158.740 163.907,157.615 164.291,156.900 164.614 C 156.185 164.936,154.925 165.490,154.100 165.844 C 153.275 166.198,152.330 166.643,152.000 166.833 C 151.670 167.022,150.500 167.647,149.400 168.220 C 148.300 168.794,147.116 169.519,146.769 169.832 C 146.421 170.144,145.954 170.400,145.730 170.400 C 145.506 170.400,144.952 170.715,144.499 171.100 C 144.045 171.485,143.273 172.070,142.782 172.400 C 140.560 173.893,136.697 177.318,133.985 180.200 C 131.248 183.108,129.619 184.996,129.609 185.271 C 129.604 185.421,129.375 185.786,129.100 186.082 C 128.297 186.948,126.800 189.142,126.800 189.452 C 126.800 189.609,126.548 190.021,126.240 190.369 C 125.403 191.313,122.800 196.281,122.800 196.934 C 122.800 197.246,122.530 197.726,122.200 198.000 C 121.870 198.274,121.594 198.791,121.586 199.149 C 121.579 199.507,121.225 200.520,120.800 201.400 C 120.375 202.280,120.021 203.369,120.014 203.820 C 120.006 204.271,119.834 204.811,119.631 205.020 C 119.428 205.229,119.078 206.300,118.854 207.400 C 118.629 208.500,118.269 210.120,118.052 211.000 C 116.705 216.477,116.358 218.952,116.029 225.400 C 115.586 234.066,116.102 248.015,116.990 251.425 C 117.325 252.714,117.600 254.288,117.600 254.924 C 117.600 255.559,117.856 256.646,118.169 257.340 C 118.482 258.033,118.823 259.230,118.926 260.000 C 119.120 261.435,119.985 264.023,121.018 266.260 C 121.338 266.954,121.600 267.693,121.600 267.904 C 121.600 268.114,122.261 269.527,123.069 271.043 C 123.876 272.559,124.885 274.475,125.310 275.300 C 125.736 276.125,126.245 276.800,126.442 276.800 C 126.639 276.800,126.800 276.987,126.800 277.216 C 126.800 278.305,137.352 289.600,138.370 289.600 C 138.575 289.600,138.981 289.829,139.271 290.109 C 139.723 290.544,141.998 292.044,145.004 293.889 C 146.819 295.003,149.701 296.400,150.184 296.400 C 150.469 296.400,150.926 296.670,151.200 297.000 C 151.474 297.330,151.991 297.606,152.349 297.614 C 152.707 297.621,153.720 297.975,154.600 298.400 C 155.480 298.825,156.650 299.185,157.200 299.199 C 157.750 299.214,158.549 299.490,158.976 299.813 C 159.404 300.136,160.247 300.400,160.850 300.400 C 161.454 300.400,162.455 300.599,163.074 300.842 C 169.707 303.447,195.041 303.454,199.903 300.852 C 200.367 300.603,201.355 300.400,202.097 300.400 C 202.840 300.400,203.796 300.136,204.224 299.813 C 204.651 299.490,205.406 299.220,205.901 299.213 C 206.397 299.206,207.475 298.840,208.296 298.400 C 209.116 297.960,209.987 297.600,210.230 297.600 C 210.844 297.600,218.401 293.723,219.206 292.995 C 219.567 292.668,219.994 292.400,220.155 292.400 C 221.833 292.400,234.089 280.926,236.800 276.817 C 237.130 276.317,237.684 275.523,238.032 275.054 C 238.379 274.584,238.786 273.930,238.936 273.600 C 239.086 273.270,239.559 272.460,239.987 271.800 C 240.685 270.723,243.195 265.747,244.626 262.600 C 244.927 261.940,245.293 260.860,245.441 260.200 C 245.589 259.540,245.866 258.801,246.057 258.557 C 246.247 258.314,246.572 257.324,246.780 256.357 C 246.987 255.391,247.359 253.790,247.605 252.800 C 248.663 248.552,248.927 247.322,249.069 246.000 C 249.151 245.230,249.507 242.058,249.859 238.951 C 250.762 230.997,249.899 212.673,248.453 209.074 C 248.204 208.455,247.999 207.285,247.998 206.474 C 247.996 205.663,247.726 204.484,247.398 203.854 C 247.069 203.224,246.799 202.414,246.798 202.054 C 246.796 201.295,245.180 196.609,244.478 195.326 C 244.215 194.846,244.000 194.193,244.000 193.875 C 244.000 193.558,243.730 193.074,243.400 192.800 C 243.070 192.526,242.795 192.009,242.789 191.651 C 242.783 191.293,241.975 189.740,240.994 188.200 C 240.013 186.660,239.032 184.995,238.815 184.500 C 238.598 184.005,238.235 183.600,238.010 183.600 C 237.784 183.600,237.600 183.364,237.600 183.075 C 237.600 182.249,231.710 176.342,228.400 173.848 C 226.750 172.604,225.048 171.320,224.619 170.994 C 224.189 170.667,223.604 170.400,223.319 170.400 C 223.033 170.400,222.800 170.235,222.800 170.033 C 222.800 169.832,221.675 169.103,220.300 168.415 C 218.925 167.727,217.530 167.011,217.200 166.826 C 216.870 166.640,215.970 166.222,215.200 165.898 C 214.430 165.573,213.170 165.014,212.400 164.655 C 211.630 164.296,210.370 163.887,209.600 163.745 C 208.830 163.603,208.020 163.349,207.800 163.179 C 207.580 163.010,206.500 162.685,205.400 162.458 C 204.300 162.231,202.680 161.865,201.800 161.645 C 194.868 159.906,178.329 159.370,171.600 160.666 M315.400 160.624 C 314.080 160.921,312.149 161.173,311.108 161.183 C 310.068 161.192,308.538 161.455,307.708 161.767 C 306.879 162.079,305.214 162.451,304.010 162.593 C 302.805 162.735,301.635 162.995,301.410 163.171 C 301.184 163.347,300.190 163.614,299.200 163.765 C 297.120 164.083,293.904 165.048,292.268 165.847 C 291.645 166.151,290.835 166.401,290.468 166.402 C 290.100 166.404,289.338 166.646,288.773 166.941 C 288.209 167.235,287.249 167.601,286.641 167.754 C 285.676 167.996,281.321 169.858,279.600 170.765 C 278.810 171.181,278.625 173.209,279.294 174.124 C 279.828 174.852,280.429 174.764,282.400 173.668 C 284.302 172.611,285.746 172.000,286.343 172.000 C 286.717 172.000,287.377 171.753,287.811 171.451 C 288.245 171.149,289.197 170.772,289.927 170.613 C 290.657 170.455,291.737 170.073,292.327 169.765 C 292.917 169.457,293.850 169.197,294.400 169.188 C 294.950 169.179,295.850 168.914,296.400 168.600 C 296.950 168.286,297.793 168.022,298.274 168.014 C 298.755 168.006,299.655 167.788,300.274 167.528 C 301.392 167.060,303.994 166.458,308.600 165.601 C 309.920 165.355,312.310 164.894,313.911 164.577 C 317.856 163.795,332.274 163.769,334.119 164.541 C 334.831 164.838,336.261 165.208,337.297 165.364 C 338.334 165.519,339.286 165.816,339.414 166.023 C 339.542 166.230,339.932 166.400,340.280 166.400 C 341.870 166.400,346.945 169.537,348.531 171.500 C 348.933 171.997,349.494 172.637,349.778 172.921 C 350.062 173.205,350.415 173.818,350.563 174.283 C 350.710 174.747,351.094 175.346,351.415 175.613 C 351.737 175.880,352.000 176.423,352.000 176.820 C 352.000 177.218,352.225 177.781,352.500 178.071 C 354.265 179.938,354.352 181.302,354.388 207.700 L 354.422 232.800 341.466 232.800 C 334.340 232.800,327.542 232.983,326.361 233.207 C 325.179 233.432,321.509 233.778,318.206 233.977 C 314.903 234.176,311.693 234.533,311.074 234.769 C 310.455 235.006,309.015 235.208,307.874 235.217 C 306.733 235.227,304.990 235.416,304.000 235.637 C 303.010 235.859,300.903 236.290,299.318 236.596 C 297.733 236.902,296.080 237.343,295.644 237.576 C 295.209 237.809,294.335 238.000,293.703 238.000 C 293.070 238.000,292.204 238.264,291.776 238.587 C 291.349 238.910,290.675 239.180,290.278 239.187 C 289.881 239.194,288.711 239.578,287.678 240.041 C 286.645 240.503,284.945 241.267,283.900 241.738 C 282.855 242.210,282.000 242.731,282.000 242.898 C 282.000 243.064,281.794 243.200,281.541 243.200 C 280.649 243.200,274.000 249.253,274.000 250.064 C 274.000 250.218,273.768 250.581,273.484 250.871 C 272.626 251.751,271.200 254.767,271.196 255.712 C 271.193 256.201,270.923 257.484,270.596 258.564 C 269.834 261.075,269.836 266.754,270.600 269.600 C 270.925 270.810,271.194 272.520,271.198 273.400 C 271.202 274.280,271.474 275.516,271.802 276.146 C 272.131 276.776,272.400 277.641,272.400 278.068 C 272.400 279.264,275.415 285.751,277.285 288.578 C 278.269 290.064,283.396 295.200,283.896 295.200 C 284.173 295.200,284.400 295.370,284.400 295.578 C 284.400 295.972,284.856 296.245,288.688 298.147 C 289.960 298.778,291.478 299.543,292.062 299.847 C 292.646 300.151,293.512 300.400,293.988 300.400 C 294.464 300.400,295.246 300.611,295.726 300.870 C 298.934 302.594,315.661 303.243,322.000 301.889 C 326.507 300.926,328.480 300.383,329.732 299.762 C 330.355 299.453,331.116 299.200,331.422 299.200 C 332.634 299.200,340.302 294.835,342.264 293.028 C 342.520 292.792,343.506 291.970,344.456 291.200 C 345.407 290.430,346.728 289.185,347.392 288.433 C 348.056 287.681,348.915 286.736,349.300 286.333 C 349.685 285.930,350.000 285.429,350.000 285.220 C 350.000 285.011,350.225 284.696,350.500 284.520 C 351.162 284.096,352.800 281.744,352.800 281.216 C 352.800 280.987,353.055 280.800,353.367 280.800 C 353.678 280.800,354.024 280.575,354.135 280.300 C 354.246 280.025,354.351 281.093,354.368 282.674 C 354.408 286.264,354.727 287.098,357.440 290.704 C 360.395 294.631,366.390 299.200,368.587 299.200 C 368.874 299.200,369.624 299.469,370.254 299.798 C 370.884 300.126,372.043 300.396,372.829 300.398 C 373.615 300.399,375.060 300.674,376.042 301.008 C 377.472 301.495,379.606 301.594,386.813 301.508 L 395.800 301.400 395.922 300.138 C 396.131 297.994,395.070 297.600,389.089 297.600 C 383.054 297.600,381.511 297.095,378.901 294.263 C 374.297 289.269,374.432 291.052,374.411 234.600 C 374.395 189.974,374.223 181.936,373.249 180.128 C 373.034 179.727,372.451 178.500,371.954 177.400 C 371.129 175.573,370.493 174.530,368.800 172.233 C 367.657 170.683,363.108 166.400,362.604 166.400 C 362.326 166.400,361.874 166.130,361.600 165.800 C 361.326 165.470,360.800 165.200,360.431 165.200 C 360.062 165.200,359.563 165.003,359.322 164.762 C 358.698 164.138,353.597 162.404,352.380 162.402 C 351.819 162.401,351.180 162.220,350.960 162.000 C 350.741 161.781,349.210 161.430,347.560 161.220 C 345.910 161.011,343.759 160.655,342.780 160.430 C 340.059 159.803,318.357 159.956,315.400 160.624 M193.534 164.651 C 198.920 165.967,205.347 168.593,207.231 170.246 C 207.579 170.551,207.991 170.800,208.148 170.800 C 209.171 170.800,218.773 180.624,219.666 182.585 C 219.920 183.143,220.280 183.600,220.464 183.600 C 220.649 183.600,220.800 183.848,220.800 184.151 C 220.800 184.454,221.058 184.917,221.374 185.179 C 221.690 185.441,222.064 186.183,222.206 186.828 C 222.348 187.472,222.629 188.000,222.832 188.000 C 223.034 188.000,223.200 188.232,223.200 188.515 C 223.200 188.799,223.560 189.737,224.000 190.600 C 224.440 191.463,224.800 192.418,224.800 192.723 C 224.800 193.027,225.048 193.754,225.351 194.338 C 225.904 195.404,226.505 197.446,227.251 200.800 C 227.471 201.790,227.910 203.516,228.226 204.635 C 228.542 205.754,228.803 207.464,228.807 208.435 C 228.811 209.406,229.084 211.460,229.413 213.000 C 230.287 217.080,230.294 240.311,229.423 244.009 C 229.087 245.434,228.809 247.443,228.806 248.474 C 228.803 249.505,228.605 250.855,228.366 251.474 C 228.128 252.093,227.758 253.674,227.544 254.986 C 227.330 256.299,227.006 257.559,226.824 257.786 C 226.641 258.014,226.309 259.010,226.084 260.000 C 225.671 261.819,225.085 263.607,224.181 265.800 C 223.132 268.344,221.935 271.025,221.592 271.600 C 221.395 271.930,220.784 273.116,220.235 274.235 C 219.687 275.355,218.959 276.502,218.619 276.784 C 218.278 277.067,218.000 277.531,218.000 277.816 C 218.000 278.100,217.865 278.393,217.700 278.467 C 217.535 278.540,216.867 279.384,216.216 280.343 C 214.890 282.295,208.316 289.074,206.851 290.000 C 206.329 290.330,205.623 290.869,205.282 291.197 C 204.523 291.929,203.357 292.629,201.900 293.227 C 201.295 293.475,200.800 293.841,200.800 294.039 C 200.800 294.238,200.572 294.400,200.294 294.400 C 200.016 294.400,199.116 294.760,198.296 295.200 C 197.475 295.640,196.482 296.000,196.090 296.000 C 195.699 296.000,195.023 296.246,194.589 296.546 C 194.155 296.846,192.768 297.219,191.506 297.374 C 190.245 297.529,189.109 297.823,188.983 298.028 C 188.656 298.556,174.713 298.501,173.326 297.966 C 172.707 297.727,171.390 297.382,170.400 297.199 C 168.296 296.811,165.445 295.838,163.938 294.995 C 163.354 294.668,162.589 294.400,162.238 294.400 C 161.887 294.400,161.600 294.232,161.600 294.027 C 161.600 293.822,161.195 293.525,160.700 293.369 C 159.813 293.087,156.801 291.000,155.566 289.810 C 155.218 289.475,154.819 289.200,154.680 289.200 C 154.281 289.200,148.800 283.613,148.800 283.206 C 148.800 283.005,148.575 282.696,148.300 282.520 C 147.791 282.194,146.000 279.793,146.000 279.436 C 146.000 279.328,145.473 278.459,144.829 277.505 C 144.185 276.551,143.537 275.289,143.390 274.701 C 143.242 274.114,142.869 273.423,142.561 273.167 C 142.252 272.911,142.000 272.398,142.000 272.027 C 142.000 271.656,141.736 271.004,141.413 270.576 C 141.090 270.149,140.819 269.440,140.810 269.000 C 140.802 268.560,140.537 267.706,140.222 267.102 C 139.907 266.498,139.528 265.191,139.379 264.197 C 139.230 263.203,138.959 262.298,138.777 262.186 C 138.595 262.073,138.339 261.131,138.208 260.091 C 138.077 259.051,137.720 257.210,137.415 256.000 C 135.267 247.478,135.251 222.785,137.386 212.200 C 138.723 205.573,139.442 202.739,140.240 200.940 C 140.548 200.246,140.800 199.374,140.800 199.001 C 140.800 198.628,141.043 197.846,141.339 197.262 C 141.636 196.678,142.159 195.570,142.502 194.800 C 144.355 190.641,146.342 186.784,147.497 185.104 C 148.213 184.061,148.800 183.026,148.800 182.804 C 148.800 182.582,148.949 182.400,149.132 182.400 C 149.315 182.400,150.059 181.572,150.786 180.560 C 152.755 177.818,157.634 173.039,160.244 171.295 C 163.803 168.918,165.248 168.075,166.150 167.848 C 166.728 167.703,167.200 167.408,167.200 167.192 C 167.200 166.977,167.515 166.794,167.900 166.786 C 168.285 166.779,169.320 166.425,170.200 166.000 C 171.080 165.575,172.184 165.221,172.654 165.214 C 173.124 165.206,174.114 164.937,174.854 164.616 C 176.862 163.744,189.923 163.769,193.534 164.651 M353.960 237.352 C 354.292 237.752,354.381 242.339,354.285 254.052 C 354.150 270.463,353.982 272.439,352.494 275.074 C 352.222 275.554,352.000 276.210,352.000 276.531 C 352.000 276.852,351.730 277.218,351.400 277.345 C 351.070 277.471,350.800 277.823,350.800 278.125 C 350.800 278.428,350.440 279.002,350.000 279.400 C 349.560 279.798,349.200 280.258,349.200 280.421 C 349.200 281.788,338.267 292.000,336.804 292.000 C 336.568 292.000,336.271 292.270,336.145 292.600 C 336.018 292.930,335.596 293.200,335.206 293.200 C 334.817 293.200,334.274 293.470,334.000 293.800 C 333.726 294.130,333.299 294.406,333.051 294.414 C 332.803 294.421,331.880 294.775,331.000 295.200 C 330.120 295.625,329.119 295.979,328.776 295.986 C 328.434 295.994,327.804 296.264,327.376 296.587 C 326.949 296.910,326.137 297.180,325.571 297.187 C 325.005 297.194,323.722 297.480,322.718 297.822 C 319.096 299.056,307.166 298.126,305.522 296.482 C 305.257 296.217,304.814 296.000,304.538 296.000 C 303.726 296.000,301.182 294.115,299.221 292.060 C 297.343 290.092,296.681 289.090,295.215 286.000 C 294.745 285.010,294.100 283.690,293.780 283.068 C 293.461 282.445,293.192 281.545,293.182 281.068 C 293.173 280.590,292.892 279.480,292.559 278.600 C 290.628 273.497,290.643 258.294,292.583 254.573 C 292.920 253.928,293.196 253.107,293.198 252.749 C 293.199 252.391,293.470 251.874,293.800 251.600 C 294.130 251.326,294.400 250.937,294.400 250.735 C 294.400 248.692,302.293 242.000,304.703 242.000 C 305.143 242.000,305.726 241.730,306.000 241.400 C 306.274 241.070,306.971 240.799,307.549 240.798 C 308.127 240.796,309.116 240.526,309.746 240.198 C 310.376 239.869,311.283 239.600,311.762 239.600 C 312.240 239.600,313.615 239.344,314.816 239.031 C 316.018 238.718,318.530 238.271,320.400 238.037 C 322.270 237.803,324.520 237.450,325.400 237.252 C 328.226 236.616,353.423 236.705,353.960 237.352 " stroke="none" fill-rule="evenodd"></path></g></svg>