<svg width="100%" height="100%" viewBox="0 0 515 515" version="1.1" xmlns="http://www.w3.org/2000/svg" style="fill-rule:evenodd;clip-rule:evenodd;stroke-linejoin:round;stroke-miterlimit:2;">
<g>
<path d="M411,135.5C411,137.836 412.765,139.825 413.616,142C415.547,146.939 418.255,152.059 419.902,157C423.605,168.11 424.87,179.353 423,191C422.424,194.587 416.951,198.907 413.791,200.127C405.008,203.516 395.149,204.382 387.568,210.684C384.513,213.223 381.725,216.08 379.031,219C375.135,223.222 369.013,234.724 368.521,240.4C367.975,246.706 376.883,247.467 380.992,245.507C383.412,244.352 384.426,240.159 385.5,238C387.91,233.153 390.691,228.021 394.735,224.299C404.4,215.404 418.795,216.81 428.572,208.274C437.809,200.21 437.77,192.648 438.463,180.536C438.732,175.83 435.685,165.057 440.173,166.498C444.964,168.037 450.22,174.777 453.486,178.171C461.521,186.521 461.665,186.174 470.063,194C472.319,196.103 473.333,199.993 475,202.546C482.695,214.334 491.62,226.691 493.371,241.214C494.913,254.003 494.919,266.065 493.253,278.844C492.261,286.454 487.504,294.961 483,301C470.647,317.562 450.931,330.071 430,332.5L424,333.196L424,347.287L431.207,346.617C439.241,345.871 447.547,343.05 455,340.012C465.9,335.568 477.909,329.844 486.418,321.454C514.35,293.916 514.989,248.118 499.654,214.24C487.24,186.815 464.458,167.456 441.506,149.018C434.805,143.635 426.342,140.317 419,135.892C416.995,134.683 411,130.279 411,135.5M449.434,197.5C447.24,209.199 435.654,220.854 424.827,225.018C414.267,229.08 412.564,226.414 402.916,232.916C400.89,234.281 397.379,240.986 396.5,243C395.527,245.229 394,247.423 394,249.855L394,253.711L400.745,254.341C423.109,256.427 421.5,275.35 421.5,293.001C421.5,301.261 421.003,309.524 420.25,317.75C420.177,318.548 418.302,319.529 419.044,319.831C421.618,320.875 424.569,320.843 427.338,320.626C430.137,320.407 432.827,319.404 435.5,318.543C440.521,316.926 445.646,315.494 450.396,313.201C455.133,310.915 459.659,308.119 463.804,304.881C486.909,286.83 486.329,251.382 476.068,227C472.537,218.61 462.904,206.79 458.042,199.25C457.421,198.287 457.62,196.813 456.755,196.061C454.322,193.949 450.136,193.759 449.434,197.5M12.213,303.037C12.311,314.963 12.727,326.895 13.634,338.787C13.804,341.01 17.986,345.203 20.213,345.366C32.605,346.275 45.038,346.689 57.463,346.786L94,347.071L94,335L67.429,335C60.195,335 52.954,335.092 45.73,334.723C43.598,334.614 40.845,335.169 39.429,333.571C37.802,331.734 38.377,328.754 38.272,326.303C37.9,317.566 38,308.815 38,300.071L38,268L11.926,268L12.213,303.037M105,306.947L105,345.962L107.25,346.521C108.487,346.829 114.675,346.95 121,346.79L132.5,346.5L132.777,332.25L133.055,318L168,318L168,347L194.077,347L193.788,313.333C193.732,306.752 198.744,273.369 182.751,269.75C179.976,269.122 177.122,268.815 174.279,268.703C164.081,268.303 153.872,268.291 143.667,268.216L105,267.932L105,306.947M205,307.455L205,347L232,347L232,280L246,280L246,347L272,347L272,280L276,280C291.858,280 285,314.275 285,316L285,347L311.075,347L310.787,312.67L310.5,278.34L300.66,268.5L252.83,268.205L205,267.909L205,307.455M327,307.466L327,347L353,347L353,313L377.5,313C387.962,313 399.495,315.83 407.604,308.316L410.5,305.632L410.5,275.346L403.656,268.5L327,267.932L327,307.466M165.077,282.923C169.02,286.866 167.883,290.337 168,296.423C168.26,309.886 165.294,331.912 133,307C125.874,301.503 126.397,286.115 133,280C140.13,273.397 152.476,279.118 162.154,280C163.526,280.125 164.409,281.718 165.077,282.923M383.571,281.429C385.348,283.205 385.121,289.588 385.11,290.902C385.094,292.786 384.898,294.668 384.657,296.536C383.698,303.977 373.028,300 367.418,300L353,300L353,280L367.571,280C378.867,280 382.464,280.321 383.571,281.429"/>
</g>
</svg>
