<svg width="100%" height="100%" viewBox="0 0 400 400" version="1.1" xmlns="http://www.w3.org/2000/svg" style="fill-rule:evenodd;clip-rule:evenodd;stroke-linejoin:round;stroke-miterlimit:2;">
    <g>
        <path d="M77.579,61.872C74.14,67.437 64.54,62.949 58.02,63.473C39.833,64.935 40.007,64.816 22,66.471C15.067,67.108 5.522,64.192 1.378,69.787C-0.707,72.602 0.812,80.329 1.036,81.615C3.204,94.035 12.313,106.396 17.097,118C24.8,136.683 33.968,155.061 43.108,173C45.637,177.965 46.614,183.67 48.969,188.75C55.051,201.869 61.836,214.861 68.034,228C71.78,235.941 75.24,244.027 79,251.969C83.16,260.757 84.679,267.432 93.512,271.696C101.82,275.707 111.289,270.692 120,268.5C131.821,265.526 143.728,262.899 155.547,259.925C164.946,257.56 174.514,253.699 184.148,252.499L189.796,251.795L190.477,254.898C190.967,257.126 193.225,259.698 194.439,261.615C197.094,265.806 199.077,270.346 201.533,274.651C209.222,288.128 216.832,301.603 224.518,315.084C227.309,319.98 229.891,325.022 233,329.732C234.387,331.833 235.982,334.969 238.773,335.63C250.992,338.524 261.001,333.212 272,329.068C292.506,321.342 313.49,314.795 334,307.068C347.026,302.16 360.244,297.251 373.5,293C377.661,291.666 390.43,288.904 392.425,283.905C394.378,279.013 385.643,270.243 383,266.433C374.705,254.472 365.902,242.597 357.145,231C353.256,225.85 345.687,219.156 343.75,212.662C343.489,211.787 345.133,211.386 346,211.098C346.887,210.803 357.098,208.19 358,207.936C367.985,205.127 377.953,202.361 388.031,199.878C390.186,199.347 402.224,198.335 399.722,192.195C396.469,184.211 389.036,176.769 383.5,170.274C376.034,161.515 369.33,152.139 362,143.28C357.599,137.961 352.568,129.661 346,127C341.198,125.055 334.686,127.691 330,128.5C324.006,129.534 318.001,130.504 312,131.5C302.147,133.136 291.755,134.16 282.155,137C281.394,137.225 275.876,138.051 275.186,140.48C274.702,142.187 276.687,143.698 277.529,145.26C279.257,148.466 281.332,151.434 283.441,154.406C291.336,165.533 299.16,176.761 306.933,188C309.217,191.303 311.558,194.625 314,197.815C314.809,198.872 317.61,199.798 316.693,200.762C315.582,201.928 313.546,201.455 312,201.902C305.897,203.667 299.687,205.036 293.5,206.463C271.248,211.596 249.209,217.659 227,222.943C220.34,224.528 213.629,225.768 207,227.5C204.275,228.212 201.589,230.927 198.929,230.001C196.314,229.091 194.01,223.672 192.561,221.385C187.283,213.054 182.171,204.465 177.108,196C156.266,161.154 134.972,126.329 114.94,91C110.739,83.591 106.143,76.418 101.94,69C100.52,66.494 98.086,62.566 95,61.892C92.236,61.288 89.386,61.021 86.557,61.018C83.55,61.015 79.159,59.315 77.579,61.872M88.5,77C89.816,81.149 93.787,85.132 95.921,89C101.017,98.235 105.795,107.707 111.439,116.615C127.938,142.658 143.056,170.084 158.079,197C162.985,205.79 167.711,215.073 173,223.622C174.361,225.822 179.787,231.205 178.446,233.794C177.813,235.015 175.828,234.641 174.5,235C169.356,236.391 164.163,237.688 159,239.017C144.71,242.694 130.288,245.811 116,249.5C110.471,250.927 107.21,254.635 102.397,249.702C98.782,245.999 96.819,239.547 94.5,235C89.278,224.76 84.716,214.299 79.5,204C66.286,177.911 54.536,151.185 41.5,125C36.517,114.991 31.5,105 26.5,95C24.918,91.836 23.773,88.002 22.009,85C21.463,84.071 20.113,83.645 19.841,82.602C18.798,78.59 27.646,79.602 31.75,79.014C46.814,76.855 70.947,75.724 80.683,75.162C81.754,75.1 87.571,74.074 88.5,77M345.901,140.901C350.441,145.441 354.562,152.783 358,157.96C361.731,163.579 366.618,168.855 371.042,173.953C372.455,175.581 380.285,182.727 378.993,185.279C377.754,187.726 368.77,188.557 367,189C361,190.5 355.002,192.008 349,193.5C341.871,195.272 336.956,198.87 329.552,194.526C326.647,192.821 324.665,188.019 323,185.311C318.639,178.219 313.012,171.377 308,164.749C304.945,160.709 301.867,156.789 299,152.617C298.736,152.232 294.881,148.916 295.985,148.32C297.695,147.395 303.123,146.495 305,146.129C312.993,144.569 321.008,143.123 329,141.56C333.146,140.749 341.741,136.741 345.901,140.901M328.592,217.25C330.168,218.745 332.041,222.193 333.516,224.051C343.615,236.77 352.098,250.65 362,263.507C364.107,266.242 367.095,268.891 368.75,271.932C369.072,272.523 369.694,273.416 369.222,273.896C368.395,274.737 360.258,277.186 359.5,277.448C353.512,279.52 347.511,281.548 341.5,283.552C319.8,290.785 298.202,298.318 276.5,305.552C269.302,307.951 262.169,310.475 255.002,312.948C251.569,314.133 249.749,315.746 246.293,313.298C245.144,312.484 243.696,308.69 243,307.429C240.851,303.534 238.131,299.888 235.921,296C229.656,284.979 223.082,274.109 217,263C214.651,258.709 207.989,251.613 207.671,246.775C207.57,245.235 210.526,245.589 212,245.129C212.212,245.063 221.785,242.124 222,242.064C239.213,237.223 256.638,233.208 274,228.984C286.983,225.826 300.203,222.436 313,218.594C317.972,217.101 324.03,212.926 328.592,217.25"/>
    </g>
</svg>
