<svg width="100%" height="100%" viewBox="0 0 400 400" version="1.1" xmlns="http://www.w3.org/2000/svg" style="fill-rule:evenodd;clip-rule:evenodd;stroke-linejoin:round;stroke-miterlimit:2;"><g transform="matrix(1.171,0,0,1.171,-68.4001,-1.50816)">
<path d="M304,11C302.069,13.679 297.023,15.294 294.311,17C285.823,22.338 277.199,27.583 268.763,33C241.515,50.495 215.459,69.678 193,93.127C180.845,105.818 170.561,124.599 164,141C161.311,147.722 158.868,154.554 157,161.559C156.75,162.496 155.255,168.972 153.211,168.972C151.955,168.972 151.069,167.66 150,167C146.747,164.991 143.562,162.865 140.23,161C127.498,153.874 114.27,147.976 101,142C96.536,139.99 92.202,138.233 87.85,136.094C87.434,135.89 83.666,134.317 82.88,135.898C79.158,143.391 79.531,156.179 79,163.7C78.498,170.814 77,177.869 77,185C77,207.535 81.824,232.648 92,253C97.658,264.315 104.293,273.83 114.262,281.919C117.537,284.576 121.227,286.113 125,288C126.281,288.641 129.744,288.347 129,289.571C126.055,294.421 115.907,297.546 111,300C110.074,300.463 105.94,303.235 105,303C103.21,302.552 102.658,297.46 100.424,298.847C95.056,302.178 96.855,303.876 92.435,308.564C87.885,313.388 77.843,315 72,315L63,315L63,329L92.018,329L95.157,326C101.779,319.673 112.927,317.711 120.779,313C139.801,301.587 157.58,288.293 177.595,279C183.346,276.33 188.91,274.058 195,272C197.101,271.29 199.05,269.584 201.262,269.75C205.752,270.086 209.416,275.844 213,278.169C225.85,286.504 242.284,286.062 256.5,282C270.594,277.973 283.087,269.794 293.445,259.555C296.012,257.017 303.271,245.584 308.674,243.756C312.874,242.336 312.855,243.02 316.947,244.25C318.251,244.642 317.745,243.292 318.978,243.273C323.353,243.207 327.625,245.006 332,244.931C337.702,244.834 343.297,243 349,243L355,243L355,238.455C355,232.098 356.971,232.047 361.053,229C367.993,223.819 374.84,218.521 381.711,213.25C387.464,208.837 387.888,206.791 395.138,206.848L400,206.885L400,201.065C400,187.162 389.409,196.171 383.01,201C373.42,208.237 364.744,216.541 355.151,223.75C351.165,226.746 344.553,233.26 339,234C333.654,234.713 320.655,235.601 314.875,234.711C314.039,234.583 313.194,233.824 313,233L315,229C316.495,226.01 317.941,223.178 319,220C323.508,206.476 327.43,193.057 330,179C336.305,144.509 334.228,107.936 328,73.5C324.763,55.601 319.742,38.225 314,21C312.992,17.977 310.095,2.542 304,11M249,151C249,153.981 246.242,156.29 245,159C242.574,164.292 240.263,169.636 238,175C231.263,190.97 224.681,207.006 218,223C213.681,233.339 209.285,243.647 205,254C204.001,256.415 203.72,260.682 201.11,260.807C199.267,260.894 196.881,258.53 197.043,256.671C197.163,255.29 198.437,254.267 199,253C200.758,249.039 202.141,244.914 204,241C217.834,211.876 218.4,212.376 232,183C235.697,175.014 239.258,166.965 243,159C244.02,156.829 245.091,154.678 246.283,152.596C246.805,151.684 249,149.95 249,151M151.69,242.548C151.891,242.749 152.078,242.965 152.246,243.194C152.388,243.386 152.516,243.591 152.616,243.808C152.741,244.08 152.944,244.856 152.339,244.741C152.17,244.709 152.008,244.646 151.851,244.576C151.155,244.261 150.535,243.7 150.008,243.17C149.782,242.942 149.57,242.701 149.374,242.447C149.165,242.175 148.927,241.726 149.012,241.365C149.057,241.173 149.219,241.001 149.433,241.017C149.56,241.027 149.685,241.062 149.804,241.106C150.522,241.366 151.164,242.022 151.69,242.548M155.571,248.429C156.748,249.605 156.938,251.35 157.881,252.677C159.105,254.397 160.889,255.668 162.119,257.384C162.801,258.336 162.907,259.623 163.588,260.577C164.684,262.113 165.403,261.916 166.413,263.541C166.952,264.409 166.684,265.657 167.294,266.477C167.665,266.978 170.273,267.843 168.413,268.706C167.976,268.909 167.481,269.017 167,269C164.861,268.924 165.235,266.966 164.413,265.541C164.064,264.937 163.471,264.514 163,264C162.529,263.486 161.957,263.05 161.588,262.459C160.937,261.42 161.301,260.582 160.706,259.523C160.42,259.012 159.58,258.988 159.294,258.477C158.699,257.418 159.063,256.58 158.413,255.541C157.673,254.36 156.327,253.64 155.588,252.459C155.045,251.593 155.309,250.348 154.706,249.523C154.257,248.908 153.043,248.852 152.919,248.101C152.518,245.659 155.409,248.266 155.571,248.429"/>
</g>
</svg>
