<svg version="1.1" width="400" height="400" xmlns="http://www.w3.org/2000/svg">
<g>
<path d="M62.000 176.962 C 62.000 229.296,62.063 231.094,64.096 236.526 C 68.999 249.631,79.634 253.457,100.981 249.796 L 108.000 248.593 108.000 238.717 L 108.000 228.841 101.707 229.515 C 95.676 230.161,95.280 230.064,92.207 227.193 L 89.000 224.198 89.000 173.599 L 89.000 123.000 75.500 123.000 L 62.000 123.000 62.000 176.962 M32.500 131.465 C 16.021 134.836,11.000 144.177,11.000 171.463 C 11.000 188.798,10.047 192.094,4.308 194.616 L 0.019 196.500 0.009 204.058 L 0.000 211.615 4.063 213.408 C 9.701 215.895,10.315 218.012,11.050 237.500 C 12.191 267.777,17.805 275.079,41.250 276.779 L 48.000 277.269 48.000 268.696 L 48.000 260.123 43.459 259.442 C 36.479 258.395,35.010 254.737,34.965 238.290 C 34.925 223.702,33.265 214.275,30.148 210.929 C 28.967 209.661,28.000 208.330,28.000 207.972 C 28.000 207.614,26.884 206.812,25.520 206.191 C 23.041 205.062,22.922 202.000,25.357 202.000 C 30.907 202.000,35.000 187.739,35.000 168.398 C 35.000 152.933,36.364 149.615,43.783 147.031 L 48.000 145.562 48.000 137.781 L 48.000 130.000 43.250 130.119 C 40.638 130.185,35.800 130.791,32.500 131.465 M353.000 137.889 L 353.000 145.777 356.461 146.427 C 365.300 148.085,366.856 152.068,367.239 174.000 C 367.550 191.825,369.082 197.359,375.101 202.398 L 377.368 204.295 374.843 206.398 C 368.701 211.514,367.000 217.834,367.000 235.548 C 367.000 255.086,365.937 257.820,357.720 259.418 L 353.000 260.335 353.000 268.802 L 353.000 277.269 359.750 276.776 C 382.679 275.100,387.757 268.441,388.939 238.500 C 389.794 216.845,390.215 215.546,397.250 212.856 C 399.922 211.834,399.999 211.588,399.974 204.152 L 399.948 196.500 395.906 194.635 C 390.285 192.042,389.727 190.027,388.943 169.500 C 387.752 138.312,380.985 130.009,356.750 130.001 L 353.000 130.000 353.000 137.889 M143.000 163.844 C 130.416 167.690,121.323 176.019,116.425 188.186 C 110.758 202.263,113.320 231.114,120.608 235.300 C 121.373 235.740,122.000 236.640,122.000 237.300 C 122.000 238.718,128.041 243.712,132.999 246.393 C 144.349 252.529,171.941 252.473,184.361 246.288 L 187.951 244.500 187.975 234.750 C 188.004 223.434,188.284 223.636,178.660 228.000 C 162.150 235.486,143.065 230.087,140.659 217.250 L 140.050 214.000 167.177 214.000 L 194.305 214.000 193.629 201.362 C 192.011 171.099,170.767 155.357,143.000 163.844 M225.552 164.097 C 221.180 165.170,216.870 166.713,215.973 167.524 C 215.076 168.336,213.900 169.000,213.358 169.000 C 206.026 169.000,199.689 190.863,204.411 199.872 C 207.969 206.663,221.491 216.000,227.766 216.000 C 230.195 216.000,241.819 222.085,242.429 223.677 C 245.143 230.748,226.433 234.092,215.419 228.504 C 212.714 227.131,209.993 226.006,209.372 226.004 C 208.752 226.002,207.685 225.325,207.000 224.500 C 203.211 219.934,202.000 222.438,202.000 234.840 L 202.000 246.680 205.750 247.807 C 230.209 255.161,256.361 250.430,266.061 236.898 C 273.162 226.990,266.507 202.000,256.768 202.000 C 255.860 202.000,254.847 201.562,254.516 201.026 C 254.185 200.490,251.571 199.362,248.707 198.518 C 238.317 195.458,231.191 191.899,230.580 189.463 C 229.989 187.108,230.702 184.035,231.857 183.956 C 232.211 183.932,234.525 183.495,237.000 182.984 C 242.575 181.834,254.956 183.520,260.210 186.146 C 262.251 187.166,264.163 188.000,264.460 188.000 C 264.757 188.000,265.000 182.924,265.000 176.720 L 265.000 165.441 255.716 163.720 C 243.915 161.534,235.564 161.638,225.552 164.097 M300.458 163.936 C 290.438 166.463,284.403 170.612,279.685 178.215 C 277.000 182.541,277.370 197.376,280.281 202.105 C 284.401 208.798,288.691 211.352,306.000 217.417 C 316.062 220.943,318.748 224.101,315.426 228.500 C 312.833 231.935,296.973 231.992,289.786 228.592 C 286.773 227.166,283.981 226.000,283.582 226.000 C 283.183 226.000,282.182 225.325,281.357 224.500 C 278.463 221.606,278.000 223.047,278.000 234.941 C 278.000 248.536,277.328 247.522,287.651 249.498 C 320.685 255.819,344.008 244.788,343.996 222.849 C 343.990 213.751,336.705 202.000,331.070 202.000 C 330.443 202.000,328.933 201.359,327.715 200.575 C 326.497 199.791,322.575 198.180,319.000 196.996 C 315.425 195.811,312.072 194.428,311.550 193.921 C 311.028 193.415,309.802 193.000,308.826 193.000 C 306.238 193.000,303.721 187.756,305.293 185.640 C 308.308 181.580,326.778 181.898,335.250 186.156 L 339.000 188.041 339.000 176.726 L 339.000 165.410 330.750 163.701 C 320.405 161.557,309.557 161.641,300.458 163.936 M162.626 184.056 C 164.969 184.938,169.000 192.376,169.000 195.816 C 169.000 197.961,168.742 198.000,154.481 198.000 L 139.962 198.000 140.619 195.250 C 143.164 184.606,152.065 180.078,162.626 184.056 " stroke="none" fill-rule="evenodd"></path>
</g>
</svg>