<svg width="100%" height="100%" viewBox="0 0 400 400" version="1.1" xmlns="http://www.w3.org/2000/svg" style="fill-rule:evenodd;clip-rule:evenodd;stroke-linejoin:round;stroke-miterlimit:2;">
<g>
<path d="M23.218,171.75L23.5,243.5L26.123,249C33.215,263.868 53.345,269.408 76.75,262.932L81,261.757L81,236L77.5,236C75.575,236 74,236.45 74,237C74,237.55 72.2,238 70,238C67.8,238 66,237.586 66,237.079C66,236.573 64.763,235.885 63.25,235.551C60.322,234.903 58,231.254 58,227.301C58,226.035 57.55,225 57,225C56.344,225 56,203.5 56,162.5L56,100L22.937,100L23.218,171.75M126.75,151.648C110.88,156.163 97.017,171.498 91.341,186.108C89.228,191.546 89.093,206.786 89.092,208.722C89.084,220.038 90.021,231.193 95.149,241.25C97.079,245.036 105.718,252.597 107.131,254C108.711,255.568 109.871,257.618 111.734,258.836C117.83,262.823 130.93,264.178 135.791,264.524C148.151,265.403 164.811,264.602 176.75,260.368L184,257.797L184,244.399C184,239.823 186.131,229.525 181.753,230.857C178.783,231.76 176.473,234.196 173.581,235.323C163.052,239.427 152.137,241.079 140.823,238.975C135.723,238.027 128.334,231.952 125.961,227.385C125.006,225.548 124.77,223.414 124,221.493C123.999,221.49 121.995,218.503 122,218.5C132.464,212.952 145.656,217 157.5,217L193,217L193,202.5C193,185.155 187.383,170.221 173.75,159.206C170.624,156.68 165.849,153.334 161.788,152.647C156.373,151.732 150.856,151.476 145.366,151.32C139.162,151.143 132.718,149.946 126.75,151.648M235,151.687C218.015,155.183 204.452,168.158 204.543,186.016C204.567,190.559 205.963,199.151 209.178,203.347C212.332,207.462 218.45,211.667 222.816,214.021C231.704,218.814 242.959,220.177 251.374,225.316C253.583,226.665 255.535,229.706 255.172,232.433C254.21,239.66 240.713,239.717 236.177,239.875C227.174,240.187 220.477,236.348 212.607,232.418C211.604,231.917 206.002,227.918 204.88,229.334C201.768,233.262 204,239.331 204,244.343L204,259.686L212.25,261.999C223.8,265.237 239.215,265.43 250.944,264.236C265.011,262.803 281.59,257.899 287.658,243.37C288.867,240.474 289.229,237.294 289.99,234.25C290.482,232.28 292,230.53 292,228.5C292,226.933 290.42,225.758 289.994,224.25C287.88,216.761 288.668,216.489 284.185,210.17C277.081,200.158 264.523,198.529 253.915,194.037C250.368,192.535 237.602,188.893 239.46,181.907C240.462,178.143 244.802,178.2 247.917,177.234C257.921,174.133 265.179,177.068 275.5,179.989C278.414,180.814 282.216,184.886 284.203,182.6C287.139,179.222 285,173.672 285,169.196L285,155.159L281.75,154.454C280.328,154.145 279.23,152.814 277.787,152.624C270.136,151.618 241.653,150.315 235,151.687M331.25,151.656C324.342,153.14 315.978,157.606 311.017,162.5C299.64,173.723 295.914,194.687 308.364,206.948C314.702,213.19 323.923,216.777 332,219.947C338.309,222.422 344.63,222.915 350.012,227.599C350.935,228.402 354.056,231.785 353.475,233.781C353.015,235.357 350.769,235.66 349.3,236.393C342.998,239.539 342.498,239.605 334.217,239.793C325.434,239.992 318.025,237.386 310.337,233.435C309.977,233.25 302.886,228.73 302.5,229C298.255,231.971 301,239.29 301,244.472L301,259.944L306.25,261.434C317.771,264.703 331.989,265.463 343.827,264.622C352.605,263.998 364.879,262.335 372.547,256.724C377.386,253.184 382.206,248.911 384.689,243.454C387.03,238.308 387.052,235.505 386.76,229.451C386.4,222.007 384.688,214.01 380,207.95C374.963,201.439 362.438,198.609 355.25,195.533C351.89,194.095 333.989,189.789 335.454,181.494C336.275,176.844 343.189,177.546 346.149,177C348.022,176.655 349.596,175 351.5,175C353.691,175 355.621,176.519 357.75,177.036C363.897,178.529 370.1,179.791 376.218,181.397C377.682,181.781 379.922,184.412 380.468,183C382.149,178.65 381,173.683 381,169.019L381,155.038L378.25,154.365C376.991,154.057 376.073,152.76 374.787,152.596C367.53,151.671 337.528,150.308 331.25,151.656M146,175.875C146,176.276 146.54,176.498 146.9,176.673C149.231,177.805 151.438,177.793 153.451,179.706C157.842,183.878 160,185.703 160,191.458L160,196L141,196C135.805,196 130.608,195.936 125.417,195.73C125.043,195.716 122.29,195.778 122,194.5C121.733,193.324 123.465,192.721 123.929,191.923C124.403,191.11 124.633,190.175 125.055,189.334C128.146,183.172 132.238,178.847 138.986,177C140.838,176.493 141.432,175.021 143.5,175C144.383,174.991 146,174.992 146,175.875"/>
</g>
</svg>
