<svg id="svg" version="1.1" width="515" height="515" xmlns="http://www.w3.org/2000/svg" xmlns:xlink="http://www.w3.org/1999/xlink" style="display: block;"><g id="svgg"><path id="path0" d="M0.000 257.500 L 0.000 515.000 257.500 515.000 L 515.000 515.000 515.000 257.500 L 515.000 0.000 257.500 0.000 L 0.000 0.000 0.000 257.500 M489.571 25.429 C 491.726 27.583,491.726 487.417,489.571 489.571 C 487.417 491.726,27.583 491.726,25.429 489.571 C 23.432 487.575,23.255 27.761,25.250 25.496 C 27.141 23.348,487.425 23.282,489.571 25.429 M140.000 113.500 C 140.000 114.325,139.325 115.000,138.500 115.000 C 137.175 115.000,137.000 129.278,137.000 237.500 C 137.000 345.722,137.175 360.000,138.500 360.000 C 139.333 360.000,140.000 360.889,140.000 362.000 C 140.000 363.978,140.667 364.000,201.000 364.000 C 261.333 364.000,262.000 363.978,262.000 362.000 C 262.000 360.900,262.450 360.000,263.000 360.000 C 263.550 360.000,264.000 358.875,264.000 357.500 C 264.000 355.944,264.567 355.000,265.500 355.000 C 266.325 355.000,267.000 354.127,267.000 353.059 C 267.000 351.991,267.450 350.840,268.000 350.500 C 268.550 350.160,269.000 346.984,269.000 343.441 C 269.000 339.814,269.437 337.000,270.000 337.000 C 271.637 337.000,271.252 322.109,269.571 320.429 C 268.377 319.234,260.933 319.000,224.071 319.000 L 180.000 319.000 180.000 217.000 C 180.000 149.667,179.660 115.000,179.000 115.000 C 178.450 115.000,178.000 114.325,178.000 113.500 C 178.000 112.219,175.222 112.000,159.000 112.000 C 142.778 112.000,140.000 112.219,140.000 113.500 M373.000 175.000 C 373.000 175.613,368.167 176.000,360.500 176.000 C 352.833 176.000,348.000 176.387,348.000 177.000 C 348.000 177.550,345.525 178.000,342.500 178.000 C 339.475 178.000,337.000 178.450,337.000 179.000 C 337.000 179.550,334.525 180.000,331.500 180.000 C 327.278 180.000,326.000 180.348,326.000 181.500 C 326.000 182.608,324.840 183.000,321.559 183.000 C 319.116 183.000,316.840 183.450,316.500 184.000 C 316.160 184.550,314.559 185.000,312.941 185.000 C 311.323 185.000,310.000 185.450,310.000 186.000 C 310.000 186.550,308.618 187.000,306.929 187.000 C 303.865 187.000,301.000 188.898,301.000 190.929 C 301.000 191.518,300.325 192.000,299.500 192.000 C 298.179 192.000,298.000 201.833,298.000 274.500 C 298.000 347.167,298.179 357.000,299.500 357.000 C 300.548 357.000,301.000 358.056,301.000 360.500 L 301.000 364.000 321.000 364.000 C 340.333 364.000,341.000 363.933,341.000 362.000 C 341.000 360.889,341.667 360.000,342.500 360.000 C 343.433 360.000,344.000 359.056,344.000 357.500 C 344.000 355.944,343.433 355.000,342.500 355.000 C 341.182 355.000,341.000 346.889,341.000 288.000 C 341.000 238.767,341.300 221.000,342.133 221.000 C 342.756 221.000,344.166 219.988,345.267 218.750 C 346.625 217.224,347.414 216.902,347.718 217.750 C 348.248 219.227,355.000 219.458,355.000 218.000 C 355.000 217.450,357.025 217.000,359.500 217.000 C 362.833 217.000,364.000 216.611,364.000 215.500 C 364.000 214.675,364.450 214.000,365.000 214.000 C 365.550 214.000,366.000 214.692,366.000 215.538 C 366.000 216.831,367.469 217.029,375.250 216.788 L 384.500 216.500 384.771 196.250 C 385.006 178.675,384.840 176.000,383.521 176.000 C 382.684 176.000,382.000 175.550,382.000 175.000 C 382.000 174.450,379.975 174.000,377.500 174.000 C 375.025 174.000,373.000 174.450,373.000 175.000 " stroke="none" fill="#000000" fill-rule="evenodd"></path></g></svg>