<svg xmlns="http://www.w3.org/2000/svg" width="400" height="400" viewBox="0, 0, 400,400">
<g>
<path d="M76.400 0.169 C 36.431 2.750,3.773 34.774,0.237 74.854 C -0.060 78.223,-0.126 319.267,0.169 323.547 C 2.809 361.834,32.226 393.774,69.760 399.108 C 75.973 399.991,64.613 399.920,199.920 399.920 C 336.112 399.920,323.937 400.002,330.525 399.035 C 368.076 393.522,397.422 361.348,399.842 323.040 C 400.106 318.854,399.978 78.100,399.710 75.440 C 397.406 52.575,387.770 33.861,370.862 19.414 C 358.547 8.891,344.181 2.687,326.938 0.443 L 324.240 0.093 201.280 0.069 C 133.652 0.056,77.456 0.101,76.400 0.169 M211.200 66.636 C 296.598 72.117,357.929 134.636,344.461 202.480 C 340.069 224.604,326.867 246.564,308.240 262.727 C 307.184 263.644,305.204 265.405,303.840 266.641 C 261.795 304.742,201.848 343.985,190.659 340.732 C 187.265 339.746,186.884 336.389,188.954 325.680 C 192.428 307.711,189.338 301.434,176.198 299.765 C 89.603 288.763,34.101 218.571,58.598 151.040 C 76.235 102.422,129.574 68.977,193.680 66.340 C 196.639 66.219,207.573 66.403,211.200 66.636 " stroke="none" fill-rule="evenodd"></path>
</g>
</svg>