<svg xmlns="http://www.w3.org/2000/svg" width="400" height="400" viewBox="0, 0, 400,400"><g><path d="M76.400 0.169 C 36.431 2.750,3.773 34.774,0.237 74.854 C -0.060 78.223,-0.126 319.267,0.169 323.547 C 2.809 361.834,32.226 393.774,69.760 399.108 C 75.973 399.991,64.613 399.920,199.920 399.920 C 336.112 399.920,323.937 400.002,330.525 399.035 C 368.076 393.522,397.422 361.348,399.842 323.040 C 400.106 318.854,399.978 78.100,399.710 75.440 C 397.406 52.575,387.770 33.861,370.862 19.414 C 358.547 8.891,344.181 2.687,326.938 0.443 L 324.240 0.093 201.280 0.069 C 133.652 0.056,77.456 0.101,76.400 0.169 M211.200 66.636 C 296.598 72.117,357.929 134.636,344.461 202.480 C 340.069 224.604,326.867 246.564,308.240 262.727 C 307.184 263.644,305.204 265.405,303.840 266.641 C 261.795 304.742,201.848 343.985,190.659 340.732 C 187.265 339.746,186.884 336.389,188.954 325.680 C 192.428 307.711,189.338 301.434,176.198 299.765 C 89.603 288.763,34.101 218.571,58.598 151.040 C 76.235 102.422,129.574 68.977,193.680 66.340 C 196.639 66.219,207.573 66.403,211.200 66.636 M113.280 149.227 C 110.026 149.745,107.312 152.558,106.883 155.858 C 106.675 157.461,106.677 212.954,106.885 214.558 C 107.311 217.841,109.826 220.522,113.029 221.107 C 114.301 221.339,144.237 221.348,145.457 221.117 C 153.590 219.574,153.814 207.428,145.745 205.526 C 144.883 205.323,142.966 205.284,133.720 205.282 L 122.720 205.280 122.718 180.520 C 122.717 159.842,122.679 155.622,122.493 154.921 C 121.444 150.982,117.515 148.554,113.280 149.227 M164.375 149.287 C 161.721 149.758,159.463 151.549,158.400 154.028 L 158.000 154.960 157.958 184.788 C 157.912 217.600,157.854 215.567,158.880 217.361 C 161.970 222.762,170.394 222.509,173.038 216.937 C 173.957 215.001,173.938 215.735,173.887 184.400 L 173.840 155.600 173.497 154.600 C 172.195 150.808,168.368 148.578,164.375 149.287 M191.095 149.295 C 188.472 149.733,186.185 151.545,185.120 154.028 L 184.720 154.960 184.678 184.788 C 184.632 217.600,184.574 215.567,185.600 217.361 C 188.612 222.625,196.952 222.528,199.641 217.197 C 200.597 215.301,200.542 216.401,200.635 197.420 L 200.720 179.880 209.680 192.127 C 214.608 198.863,220.930 207.512,223.729 211.347 C 229.498 219.252,229.855 219.674,231.435 220.422 C 236.273 222.714,241.792 220.272,242.959 215.323 C 243.309 213.838,243.315 156.968,242.965 155.317 C 241.365 147.767,230.567 146.982,227.650 154.204 L 227.280 155.120 227.200 172.566 L 227.120 190.011 213.200 171.296 C 205.544 161.002,198.862 152.134,198.352 151.588 C 196.507 149.616,193.971 148.815,191.095 149.295 M258.707 149.571 C 256.087 150.261,254.024 152.312,253.218 155.029 C 252.835 156.321,252.822 214.124,253.205 215.593 C 253.970 218.529,256.397 220.760,259.373 221.262 C 260.775 221.499,289.872 221.508,291.360 221.273 C 299.215 220.028,300.269 208.898,292.817 205.883 L 291.920 205.520 280.440 205.475 L 268.960 205.430 268.960 199.355 L 268.960 193.280 280.226 193.280 C 292.765 193.280,292.457 193.304,294.221 192.172 C 299.234 188.955,299.067 181.341,293.918 178.362 C 292.303 177.429,292.473 177.440,280.211 177.440 L 268.960 177.440 268.960 171.360 L 268.960 165.280 279.811 165.280 C 286.913 165.280,290.989 165.220,291.611 165.107 C 299.349 163.693,300.123 152.553,292.680 149.711 L 291.760 149.360 275.760 149.327 C 261.032 149.297,259.676 149.316,258.707 149.571 " stroke="none" fill-rule="evenodd"></path></g></svg>