<svg xmlns="http://www.w3.org/2000/svg" width="400" height="400" viewBox="0, 0, 400,400"><g><path d="M15.589 125.264 C 8.843 126.336,3.217 132.168,2.329 139.009 C 1.897 142.332,1.901 257.366,2.333 260.693 C 3.216 267.498,8.429 273.055,15.069 274.267 C 17.705 274.749,79.762 274.768,82.292 274.288 C 99.149 271.091,99.614 245.913,82.888 241.970 C 81.102 241.549,77.126 241.468,57.960 241.464 L 35.158 241.459 35.154 190.133 C 35.150 147.268,35.073 138.519,34.687 137.067 C 32.513 128.902,24.368 123.868,15.589 125.264 M121.508 125.387 C 116.006 126.363,111.325 130.077,109.121 135.215 L 108.292 137.148 108.205 198.980 C 108.109 266.998,107.989 262.784,110.117 266.502 C 116.523 277.698,133.984 277.175,139.466 265.623 C 141.370 261.611,141.330 263.133,141.225 198.176 L 141.128 138.474 140.416 136.402 C 137.718 128.540,129.784 123.918,121.508 125.387 M176.898 125.405 C 171.460 126.313,166.719 130.068,164.511 135.215 L 163.682 137.148 163.594 198.980 C 163.498 266.998,163.379 262.784,165.507 266.502 C 171.751 277.416,189.037 277.214,194.611 266.164 C 196.595 262.232,196.480 264.512,196.672 225.165 L 196.849 188.805 215.423 214.194 C 225.638 228.157,238.744 246.087,244.545 254.037 C 256.504 270.423,257.246 271.297,260.520 272.848 C 270.549 277.600,281.990 272.538,284.409 262.278 C 285.135 259.200,285.147 141.309,284.421 137.887 C 281.105 122.237,258.721 120.610,252.674 135.581 L 251.907 137.479 251.741 173.643 L 251.575 209.807 222.720 171.011 C 206.849 149.672,192.998 131.288,191.940 130.157 C 188.115 126.069,182.859 124.409,176.898 125.405 M317.054 125.976 C 311.622 127.406,307.347 131.657,305.675 137.291 C 304.881 139.968,304.856 259.793,305.649 262.839 C 307.234 268.925,312.266 273.549,318.435 274.590 C 321.342 275.081,381.659 275.101,384.743 274.612 C 401.026 272.032,403.210 248.959,387.762 242.709 L 385.904 241.957 362.106 241.863 L 338.308 241.770 338.308 229.177 L 338.308 216.584 361.662 216.584 C 387.656 216.584,387.016 216.634,390.673 214.288 C 401.067 207.618,400.720 191.835,390.045 185.660 C 386.698 183.724,387.051 183.748,361.631 183.748 L 338.308 183.748 338.308 171.144 L 338.308 158.541 360.801 158.541 C 375.524 158.541,383.974 158.416,385.262 158.181 C 401.304 155.251,402.908 132.159,387.479 126.267 L 385.572 125.539 352.405 125.471 C 321.874 125.407,319.064 125.448,317.054 125.976 " stroke="none" fill-rule="evenodd"></path></g></svg>