<svg id="svg" xmlns="http://www.w3.org/2000/svg" xmlns:xlink="http://www.w3.org/1999/xlink" width="400" height="400" viewBox="0, 0, 400,400"><g id="svgg"><path id="path0" d="M88.000 67.728 C 56.572 76.070,56.350 119.482,87.694 127.646 C 115.388 134.859,138.645 112.115,129.649 86.615 C 124.340 71.568,105.581 63.061,88.000 67.728 M261.667 151.307 C 246.716 154.540,235.566 161.610,226.606 173.538 C 224.349 176.542,222.240 179.100,221.918 179.222 C 221.596 179.345,221.333 173.741,221.333 166.722 L 221.333 154.000 191.500 154.000 L 161.667 154.000 161.667 244.667 L 161.667 335.334 191.452 335.333 L 221.238 335.333 221.459 280.167 L 221.679 225.000 223.431 220.189 C 233.087 193.685,269.004 188.622,280.510 212.143 C 285.131 221.588,284.914 218.436,285.161 279.833 L 285.384 335.333 315.359 335.333 L 345.333 335.333 345.333 277.715 C 345.333 212.120,345.146 209.266,339.852 194.000 C 328.633 161.647,296.073 143.868,261.667 151.307 M68.000 244.667 L 68.000 335.333 98.000 335.333 L 128.000 335.333 128.000 244.667 L 128.000 154.000 98.000 154.000 L 68.000 154.000 68.000 244.667 " stroke="none" fill="#000000" fill-rule="evenodd"></path></g></svg>