<svg xmlns="http://www.w3.org/2000/svg" width="400" height="400" viewBox="0, 0, 400,400">
<g>
<path d="M50.440 0.693 C 25.260 4.959,5.184 24.977,0.701 50.289 C -0.277 55.807,-0.277 344.193,0.701 349.711 C 4.759 372.621,20.879 390.649,43.700 397.797 L 49.667 399.667 200.000 399.667 L 350.333 399.667 356.300 397.797 C 376.872 391.354,391.354 376.872,397.797 356.300 L 399.667 350.333 399.667 200.000 L 399.667 49.667 397.797 43.700 C 391.354 23.128,376.872 8.646,356.300 2.203 L 350.333 0.333 202.000 0.240 C 120.417 0.189,52.215 0.393,50.440 0.693 M108.190 67.716 C 127.384 72.690,137.040 93.201,128.660 111.201 C 117.728 134.684,78.263 134.666,67.326 111.172 C 55.432 85.622,79.307 60.232,108.190 67.716 M295.413 152.199 C 321.078 158.922,337.377 177.438,343.326 206.632 C 345.484 217.220,345.988 232.050,345.994 285.167 L 346.000 335.333 315.692 335.333 L 285.384 335.333 285.161 279.833 C 284.916 218.903,285.102 221.778,280.819 212.667 C 271.394 192.614,241.238 192.028,227.915 211.639 C 221.663 220.840,222.000 216.948,222.000 280.014 L 222.000 335.333 191.833 335.333 L 161.667 335.334 161.667 244.667 L 161.667 154.001 191.819 154.000 L 221.971 154.000 222.152 166.652 L 222.333 179.305 226.315 173.914 C 235.889 160.953,249.074 153.087,265.667 150.437 C 271.526 149.501,289.084 150.542,295.413 152.199 M128.000 244.667 L 128.000 335.333 98.000 335.333 L 68.000 335.333 68.000 244.667 L 68.000 154.000 98.000 154.000 L 128.000 154.000 128.000 244.667 " stroke="none" fill-rule="evenodd"></path>
</g>
</svg>