<svg xmlns="http://www.w3.org/2000/svg" width="400" height="400" viewBox="0, 0, 400,400"><g><path d="M293.039 144.635 C 291.960 145.346,290.386 147.069,289.542 148.464 L 288.007 151.000 288.003 199.909 L 288.000 248.818 289.462 251.419 C 292.598 257.000,289.127 256.667,344.126 256.667 C 398.840 256.667,395.383 256.980,398.633 251.721 C 399.979 249.543,400.000 248.751,400.000 200.000 C 400.000 144.391,400.319 147.954,395.054 144.700 C 391.681 142.616,296.195 142.555,293.039 144.635 M2.667 199.989 L 2.667 234.685 24.500 234.509 L 46.333 234.333 46.523 227.167 L 46.712 220.000 33.030 220.000 L 19.348 220.000 19.174 192.833 L 19.000 165.667 10.833 165.479 L 2.667 165.292 2.667 199.989 M55.555 166.065 C 52.144 167.052,50.000 170.161,50.000 174.118 C 50.000 184.870,66.956 185.245,67.846 174.512 C 68.386 167.999,62.603 164.024,55.555 166.065 M126.667 200.000 L 126.667 234.667 134.667 234.667 L 142.667 234.667 142.685 227.167 C 142.702 219.951,142.773 219.582,144.563 217.423 L 146.424 215.180 152.379 224.757 L 158.333 234.333 168.167 234.518 C 179.000 234.721,179.246 234.614,176.500 230.893 C 175.675 229.775,174.475 228.142,173.832 227.264 C 173.190 226.385,170.032 222.067,166.815 217.667 C 163.598 213.267,160.321 208.753,159.534 207.636 L 158.103 205.606 160.787 202.636 C 162.263 201.003,166.139 196.764,169.402 193.217 C 172.664 189.669,175.333 186.594,175.333 186.383 C 175.333 186.172,170.978 186.000,165.656 186.000 L 155.978 186.000 150.156 193.941 C 146.953 198.309,143.976 202.434,143.539 203.108 C 142.915 204.072,142.737 200.172,142.706 184.833 L 142.667 165.333 134.667 165.333 L 126.667 165.333 126.667 200.000 M258.667 177.367 L 258.667 189.401 256.500 187.792 C 249.634 182.694,236.852 184.134,229.877 190.792 C 220.005 200.213,220.117 220.381,230.094 229.775 C 237.642 236.882,250.698 237.230,257.781 230.512 L 259.894 228.507 260.356 231.587 L 260.818 234.667 268.076 234.667 L 275.333 234.667 275.333 201.055 C 275.333 182.568,275.151 166.968,274.929 166.388 C 274.591 165.508,273.210 165.333,266.595 165.333 L 258.667 165.333 258.667 177.367 M322.298 167.784 C 325.010 169.077,326.366 172.173,325.723 175.603 C 324.500 182.117,314.184 183.613,310.633 177.791 C 306.391 170.832,314.357 163.997,322.298 167.784 M190.576 185.627 C 167.962 190.585,165.235 225.223,186.815 233.412 C 194.857 236.464,218.000 234.967,218.000 231.395 C 218.000 230.572,216.014 221.902,215.745 221.550 C 215.696 221.486,213.858 221.856,211.661 222.373 C 202.115 224.618,192.029 222.862,189.139 218.452 C 187.123 215.376,187.168 215.366,204.167 215.179 L 220.333 215.000 220.265 208.000 C 220.095 190.475,208.459 181.707,190.576 185.627 M96.930 187.425 C 95.424 187.763,92.949 189.105,91.430 190.405 L 88.667 192.771 88.667 190.385 L 88.667 188.000 80.325 188.000 L 71.983 188.000 72.158 211.167 L 72.333 234.333 80.500 234.521 L 88.667 234.708 88.667 220.661 C 88.667 203.396,90.248 199.333,96.967 199.333 C 103.081 199.333,104.299 202.629,104.546 219.833 L 104.758 234.667 112.712 234.667 L 120.667 234.667 120.667 218.454 C 120.667 198.722,120.277 196.857,115.071 191.650 C 110.421 187.001,104.721 185.673,96.930 187.425 M370.219 189.284 C 378.590 192.873,379.616 195.762,379.884 216.500 L 380.101 233.333 372.717 233.333 L 365.333 233.333 365.333 219.038 C 365.333 200.872,363.914 197.787,356.040 198.843 C 349.012 199.786,348.000 202.398,348.000 219.601 L 348.000 233.333 340.667 233.333 L 333.333 233.333 333.333 211.000 L 333.333 188.667 340.667 188.667 L 348.000 188.667 348.000 191.667 C 348.000 194.819,348.820 195.538,349.968 193.393 C 352.666 188.352,363.104 186.234,370.219 189.284 M50.825 211.167 L 51.000 234.333 59.167 234.521 L 67.333 234.708 67.333 211.354 L 67.333 188.000 58.991 188.000 L 50.649 188.000 50.825 211.167 M324.667 211.000 L 324.667 233.333 317.667 233.333 L 310.667 233.333 310.667 211.000 L 310.667 188.667 317.667 188.667 L 324.667 188.667 324.667 211.000 M200.602 196.176 C 202.580 197.193,204.464 199.736,205.042 202.167 L 205.478 204.000 196.739 204.000 C 186.733 204.000,186.310 203.688,190.095 199.095 C 193.143 195.398,197.002 194.326,200.602 196.176 M253.351 198.009 C 262.583 202.719,259.541 222.667,249.591 222.667 C 238.333 222.667,234.994 203.434,245.337 198.167 C 248.955 196.324,250.007 196.303,253.351 198.009 " stroke="none" fill-rule="evenodd"></path></g></svg>