<?xml version="1.0" encoding="UTF-8" standalone="no"?>
<svg
   xmlns:dc="http://purl.org/dc/elements/1.1/"
   xmlns:cc="http://creativecommons.org/ns#"
   xmlns:rdf="http://www.w3.org/1999/02/22-rdf-syntax-ns#"
   xmlns:svg="http://www.w3.org/2000/svg"
   xmlns="http://www.w3.org/2000/svg"
   xmlns:sodipodi="http://sodipodi.sourceforge.net/DTD/sodipodi-0.dtd"
   xmlns:inkscape="http://www.inkscape.org/namespaces/inkscape"
   id="svg"
   version="1.1"
   width="400"
   height="400"
   sodipodi:docname="image2vector (22).svg"
   inkscape:version="0.92.2 (5c3e80d, 2017-08-06)">
  <metadata
     id="metadata9">
    <rdf:RDF>
      <cc:Work
         rdf:about="">
        <dc:format>image/svg+xml</dc:format>
        <dc:type
           rdf:resource="http://purl.org/dc/dcmitype/StillImage" />
        <dc:title></dc:title>
      </cc:Work>
    </rdf:RDF>
  </metadata>
  <defs
     id="defs7" />
  <sodipodi:namedview
     pagecolor="#ffffff"
     bordercolor="#666666"
     borderopacity="1"
     objecttolerance="10"
     gridtolerance="10"
     guidetolerance="10"
     inkscape:pageopacity="0"
     inkscape:pageshadow="2"
     inkscape:window-width="1920"
     inkscape:window-height="1027"
     id="namedview5"
     showgrid="false"
     inkscape:zoom="0.50319829"
     inkscape:cx="234.5"
     inkscape:cy="234.5"
     inkscape:window-x="1912"
     inkscape:window-y="-8"
     inkscape:window-maximized="1"
     inkscape:current-layer="svg" />
  <g
     id="svgg"
     transform="translate(-5.9618644,0.55508475)">
    <path
       id="path0"
       d="m 91.471,18.984 -47.121,14.625 0.06,3.025 c 0.034,1.664 4.739,25.656 10.456,53.316 l 10.395,50.291 14.303,11.116 14.304,11.116 -10.15,4.807 c -5.582,2.644 -10.389,5.195 -10.683,5.669 -0.293,0.475 3.102,18.269 7.544,39.543 l 8.077,38.681 10.264,9.808 10.264,9.808 -6.476,3.741 c -3.561,2.057 -6.688,4.294 -6.947,4.97 -0.491,1.279 11.381,59.338 12.624,61.737 1.551,2.994 47.897,53.271 49.771,53.993 1.879,0.723 65.21,-48.176 67.094,-51.804 0.284,-0.548 0.211,-8.47 -0.162,-17.607 -0.373,-9.136 -0.561,-16.729 -0.417,-16.872 0.144,-0.144 4.879,3.589 10.523,8.295 5.643,4.707 10.902,8.558 11.685,8.558 1.496,0 53.292,-40.587 53.804,-42.161 0.162,-0.5 0.652,-6.204 1.087,-12.674 0.963,-14.308 0.288,-13.679 8.504,-7.922 3.737,2.619 7.453,4.761 8.257,4.761 1.73,0 44.795,-33.949 44.796,-35.313 0,-0.514 1.712,-13.216 3.805,-28.227 2.968,-21.297 3.577,-27.507 2.771,-28.273 -3.05,-2.896 -53.85,-30.278 -55.566,-29.95 -1.042,0.199 -11.892,6.441 -24.112,13.871 l -22.217,13.508 -0.61,12.65 c -0.335,6.958 -0.776,12.651 -0.98,12.651 -0.203,0 -4.214,-2.495 -8.912,-5.544 -10.424,-6.764 -7.903,-6.955 -23.594,1.778 -7.236,4.027 -13.359,7.119 -13.607,6.871 -0.247,-0.247 -0.787,-6.48 -1.199,-13.85 -0.413,-7.371 -0.85,-13.48 -0.973,-13.578 -0.122,-0.097 -6.22,-4.165 -13.551,-9.04 l -13.329,-8.863 13.116,-6.8 c 11.613,-6.021 13.118,-7.046 13.139,-8.951 0.079,-6.889 -4.465,-98.867 -4.964,-100.505 -0.631,-2.066 -69.147,-36.034 -72.47,-35.927 -0.814,0.026 -22.686,6.629 -48.603,14.672 m -9.722,42.025 c 15.644,9.77 28.594,18.174 28.777,18.676 0.466,1.28 14.695,99.796 14.453,100.071 C 124.87,179.88 112.347,170.18 97.15,158.2 L 69.519,136.418 59.987,91.024 C 54.745,66.057 50.234,44.53 49.963,43.187 c -0.476,-2.363 -0.43,-2.402 1.425,-1.192 1.054,0.688 14.717,9.244 30.361,19.014 m 126.4,-14.74 c 0.026,1.524 0.929,23.113 2.006,47.974 1.078,24.861 1.92,45.263 1.872,45.337 -0.354,0.547 -81.185,42.635 -81.448,42.409 -1.258,-1.081 -15.23,-102.324 -14.218,-103.027 1.103,-0.766 89.841,-35.236 91.102,-35.388 0.351,-0.042 0.66,1.17 0.686,2.695 M 105.727,202.844 c 14.149,11.884 25.881,22.055 26.071,22.601 0.486,1.397 10.649,69.92 10.406,70.157 -0.11,0.106 -11.302,-10.253 -24.871,-23.022 L 92.661,249.365 86.018,217.007 c -3.654,-17.797 -6.865,-33.26 -7.136,-34.361 -0.731,-2.978 -0.891,-3.099 26.845,20.198 m 108.368,-17.983 c 0.013,2.229 0.578,15.757 1.257,30.064 0.678,14.307 1.244,28.569 1.256,31.694 l 0.023,5.68 -34.552,23.146 c -21.899,14.67 -34.679,22.74 -34.898,22.038 -1.613,-5.17 -10.478,-72.823 -9.611,-73.342 8.259,-4.94 75.398,-43.242 75.863,-43.279 0.352,-0.029 0.65,1.771 0.662,3.999 m 82.835,10.96 c 13.298,8.256 24.247,15.072 24.331,15.148 0.138,0.125 -3.636,44.287 -4.186,48.997 -0.217,1.85 -0.685,1.647 -7.725,-3.355 -4.121,-2.928 -7.323,-5.77 -7.114,-6.314 0.209,-0.544 0.657,-6.588 0.996,-13.43 l 0.616,-12.441 -16.41,-10.879 -16.411,-10.879 0.521,-3.798 c 0.286,-2.09 0.52,-7.008 0.52,-10.929 0,-3.922 0.154,-7.131 0.342,-7.131 0.188,0 11.222,6.755 24.52,15.011 m 65.16,11.152 c -1.704,12.583 -3.255,23.336 -3.445,23.896 -0.326,0.961 -36.401,30.259 -36.778,29.869 -0.731,-0.759 4.296,-48.999 5.206,-49.954 1.744,-1.833 37.466,-27.34 37.808,-26.997 0.169,0.169 -1.087,10.603 -2.791,23.186 m -64.814,50.943 c -0.73,11.474 -1.327,21.424 -1.327,22.11 0,1.132 -45.872,38.613 -46.449,37.953 -0.136,-0.155 -0.391,-11.887 -0.567,-26.072 l -0.319,-25.79 24.734,-17.773 24.733,-17.772 0.261,3.24 c 0.144,1.783 -0.336,12.629 -1.066,24.104 M 244.3,281.023 c 0.329,8.444 0.475,20.248 0.324,26.232 l -0.274,10.88 -10.448,-8.604 -10.448,-8.604 -0.009,-6.54 c -0.018,-12.122 0.095,-11.901 -10.359,-20.216 l -9.312,-7.407 6.215,-4.308 c 11.579,-8.025 11.759,-8.192 11.759,-10.925 0,-2.518 0.097,-2.467 10.977,5.8 l 10.977,8.341 0.598,15.351 m -25.61,14.286 c 0.278,3.87 0.879,15.816 1.334,26.547 l 0.829,19.51 -1.898,1.504 c -1.044,0.827 -14.556,11.545 -30.027,23.819 -15.472,12.273 -28.228,22.006 -28.347,21.629 -0.799,-2.526 -7.85,-53.491 -7.457,-53.902 0.957,-1.002 63.943,-45.986 64.497,-46.064 0.309,-0.043 0.791,3.087 1.069,6.957 m -69.027,48.741 c 5.264,35.366 6.1,41.481 5.645,41.266 -0.281,-0.133 -7.969,-8.109 -17.084,-17.725 -9.116,-9.617 -18.84,-19.83 -21.608,-22.698 l -5.034,-5.213 -5.019,-23.785 c -2.761,-13.081 -5.031,-24.486 -5.045,-25.344 -0.016,-0.977 8.702,6.95 23.355,21.236 l 23.381,22.795 1.409,9.468"
       inkscape:connector-curvature="0"
       style="fill:#000000;fill-rule:evenodd;stroke:none" />
  </g>
</svg>
