<svg version="1.1" width="400" height="400" xmlns="http://www.w3.org/2000/svg">
<g>
<path d="M127.000 73.688 C 115.737 75.678,100.192 84.309,93.331 92.383 C 87.716 98.991,86.880 100.199,83.702 106.303 C 75.831 121.419,75.810 121.666,76.178 193.000 C 76.471 249.893,76.657 255.846,78.245 259.361 C 84.778 273.813,104.353 275.627,112.852 262.568 L 115.500 258.500 116.000 194.000 L 116.500 129.500 118.803 125.626 C 122.549 119.322,125.804 116.873,133.560 114.520 C 140.756 112.337,334.930 112.235,340.128 114.412 C 357.796 121.809,354.442 151.000,335.924 151.000 C 310.199 151.000,285.198 166.668,276.832 188.033 C 274.185 194.792,271.831 265.088,273.934 274.557 C 277.884 292.344,301.794 295.241,310.602 279.000 C 312.326 275.821,312.553 272.337,313.073 241.000 C 313.704 202.977,314.142 200.502,321.000 196.137 C 322.375 195.262,323.746 194.207,324.047 193.793 C 324.347 193.379,329.886 192.346,336.354 191.498 C 385.631 185.039,407.634 123.567,373.076 88.904 C 366.599 82.407,363.377 80.246,353.500 75.767 L 348.500 73.500 239.000 73.373 C 178.775 73.304,128.375 73.446,127.000 73.688 M28.255 113.489 C 24.007 115.335,20.464 118.955,18.647 123.303 C 16.696 127.971,15.932 274.722,17.834 279.315 C 18.475 280.863,19.000 283.113,19.001 284.315 C 19.002 288.372,26.074 301.557,31.500 307.617 C 32.050 308.231,33.443 309.806,34.595 311.117 C 35.747 312.428,37.712 314.175,38.961 315.000 C 40.210 315.825,42.263 317.288,43.523 318.250 C 44.784 319.213,46.307 320.000,46.908 320.000 C 47.508 320.000,48.000 320.450,48.000 321.000 C 48.000 321.550,48.590 322.000,49.312 322.000 C 50.034 322.000,52.621 323.012,55.062 324.250 L 59.500 326.500 134.000 326.500 C 193.152 326.500,209.324 326.227,212.500 325.176 C 249.216 313.019,263.286 274.532,244.697 237.105 C 238.446 224.521,220.063 214.204,200.000 212.019 C 180.030 209.844,171.818 201.097,176.503 186.992 C 180.766 174.156,184.891 173.000,226.439 173.000 C 261.133 173.000,260.287 173.134,266.236 166.714 C 275.019 157.236,271.051 138.391,259.233 133.453 C 254.312 131.397,194.140 131.421,182.563 133.484 C 164.886 136.634,146.583 150.258,140.383 164.880 C 136.031 175.147,135.573 177.521,135.542 190.000 C 135.484 213.720,146.446 234.402,164.090 243.865 C 171.783 247.990,182.969 250.913,191.261 250.964 C 215.815 251.116,220.280 284.111,196.279 288.042 C 189.071 289.223,86.928 289.248,77.806 288.071 C 56.657 285.343,56.155 282.957,56.056 184.616 C 55.996 125.499,55.940 124.809,50.683 118.432 C 45.589 112.252,35.976 110.133,28.255 113.489 " stroke="none" fill-rule="evenodd"></path>
</g>
</svg>