<svg width="100%" height="100%" viewBox="0 0 400 400" version="1.1" xmlns="http://www.w3.org/2000/svg" style="fill-rule:evenodd;clip-rule:evenodd;stroke-linejoin:round;stroke-miterlimit:2;">
<g>
<path d="M67.25,92.496C65.126,94.908 65.453,305.576 67.582,306.393C69.648,307.186 184.352,307.186 186.418,306.393C187.774,305.873 188,303.375 188,288.893L188,272L108,272L108,183.082C108,134.177 107.727,93.452 107.393,92.582C106.535,90.347 69.213,90.267 67.25,92.496M274,127C274,127.128 265.038,128.896 265,128.906L255,132.094C245.464,135.5 235.62,142.474 228.553,149.377C201.547,175.753 199.651,215.565 205.916,250.805C206.385,253.444 208.163,256.432 209,259C219.69,291.808 252.964,311 286.5,311C298.444,311 313.402,308.467 324.583,304C327.375,302.884 333.262,300.232 333.706,296.745C334.252,292.462 334,288.113 334,283.795L334,268.725L328.25,269.397C317.983,270.598 308.603,276 298,276C289.525,276 279.647,273.188 271.989,269.497C254.533,261.084 249.603,247.713 246,230.5C241.758,210.237 246.711,183.346 263,168.955C275.1,158.264 297.457,157.879 311.5,161C315.99,161.998 320.231,163.292 324.5,165L329.5,167L332,167L332,150C332,148.208 333.375,137.239 330.5,133C329.28,131.201 326.55,131.171 324.5,130.448C314.186,126.809 302.24,126 291.5,126C285.657,126 274,121.157 274,127"/>
</g>
</svg>
