<svg xmlns="http://www.w3.org/2000/svg" width="400" height="400" viewBox="0, 0, 400,400"><g><path d="M0.303 178.172 C 0.126 178.634,0.060 188.609,0.157 200.339 L 0.333 221.667 12.833 221.848 L 25.333 222.029 25.333 217.015 L 25.333 212.000 18.333 212.000 L 11.333 212.000 11.333 194.667 L 11.333 177.333 5.979 177.333 C 2.291 177.333,0.525 177.594,0.303 178.172 M31.333 199.667 L 31.333 222.000 37.000 222.000 L 42.667 222.000 42.667 199.667 L 42.667 177.333 37.000 177.333 L 31.333 177.333 31.333 199.667 M47.517 178.167 C 47.893 179.126,58.792 205.102,62.973 215.000 L 65.789 221.667 70.251 221.864 L 74.713 222.062 76.428 218.198 C 79.259 211.821,93.333 178.075,93.333 177.664 C 93.333 177.455,90.576 177.370,87.205 177.475 L 81.077 177.667 75.893 190.589 C 73.043 197.697,70.599 203.623,70.464 203.758 C 70.328 203.894,67.855 198.004,64.968 190.669 L 59.718 177.333 53.454 177.333 C 48.714 177.333,47.270 177.536,47.517 178.167 M98.303 178.172 C 98.126 178.634,98.060 188.609,98.157 200.339 L 98.333 221.667 110.833 221.848 L 123.333 222.029 123.333 217.015 L 123.333 212.000 116.333 212.000 L 109.333 212.000 109.333 208.357 L 109.333 204.715 115.833 204.524 L 122.333 204.333 122.529 199.500 L 122.725 194.667 116.029 194.667 L 109.333 194.667 109.333 191.000 L 109.333 187.333 116.333 187.333 L 123.333 187.333 123.333 182.333 L 123.333 177.333 110.979 177.333 C 101.665 177.333,98.546 177.540,98.303 178.172 M137.079 177.872 C 136.793 178.336,130.247 216.626,129.820 220.333 C 129.677 221.574,130.060 221.667,135.333 221.667 L 141.000 221.667 142.567 210.667 C 144.728 195.495,144.410 195.655,148.956 207.458 C 151.118 213.073,153.272 218.642,153.743 219.833 C 154.476 221.689,154.926 222.000,156.878 222.000 L 159.158 222.000 163.014 212.500 C 165.135 207.275,167.471 201.650,168.205 200.000 L 169.541 197.000 170.681 204.667 C 171.308 208.883,172.189 214.508,172.638 217.167 L 173.454 222.000 179.136 222.000 L 184.818 222.000 184.489 220.167 C 184.308 219.158,183.068 211.733,181.734 203.667 C 180.400 195.600,178.831 186.364,178.247 183.142 L 177.186 177.284 171.513 177.475 L 165.840 177.667 164.707 180.667 C 164.084 182.317,162.268 187.267,160.671 191.667 C 159.074 196.067,157.587 199.884,157.367 200.149 C 157.148 200.415,155.502 196.665,153.710 191.816 C 151.918 186.967,149.917 181.725,149.264 180.167 L 148.075 177.333 142.743 177.333 C 139.811 177.333,137.262 177.576,137.079 177.872 M192.000 199.667 L 192.000 222.029 204.500 221.848 L 217.000 221.667 217.000 217.000 L 217.000 212.333 210.167 212.143 L 203.333 211.953 203.333 208.334 L 203.333 204.715 209.833 204.524 L 216.333 204.333 216.333 199.667 L 216.333 195.000 209.833 194.809 L 203.333 194.618 203.333 190.976 L 203.333 187.333 210.363 187.333 L 217.392 187.333 217.196 182.500 L 217.000 177.667 204.500 177.485 L 192.000 177.304 192.000 199.667 M225.333 199.667 L 225.333 222.000 230.986 222.000 L 236.639 222.000 236.820 208.500 L 237.000 195.000 247.385 208.333 L 257.771 221.667 263.552 221.859 L 269.333 222.052 269.333 199.693 L 269.333 177.333 263.667 177.333 L 258.000 177.333 257.979 190.833 L 257.958 204.333 256.479 202.604 C 255.666 201.654,250.855 195.579,245.788 189.104 L 236.577 177.333 230.955 177.333 L 225.333 177.333 225.333 199.667 M274.667 182.333 L 274.667 187.333 279.333 187.333 L 284.000 187.333 284.000 204.667 L 284.000 222.000 289.667 222.000 L 295.333 222.000 295.333 204.667 L 295.333 187.333 300.000 187.333 L 304.667 187.333 304.667 182.333 L 304.667 177.333 289.667 177.333 L 274.667 177.333 274.667 182.333 M320.877 178.629 C 303.172 186.668,302.944 211.625,320.494 220.579 C 324.903 222.828,338.659 222.674,343.637 220.319 C 360.419 212.380,360.017 186.735,342.985 178.730 C 338.818 176.771,325.106 176.709,320.877 178.629 M363.636 178.172 C 363.459 178.634,363.393 188.609,363.490 200.339 L 363.667 221.667 369.333 221.667 L 375.000 221.667 375.333 213.702 L 375.667 205.737 380.676 213.702 L 385.685 221.667 392.509 221.857 C 396.355 221.964,399.333 221.779,399.333 221.433 C 399.333 220.850,392.600 211.631,388.559 206.681 C 386.266 203.872,386.239 203.585,388.225 203.087 C 399.039 200.373,398.028 182.194,386.851 178.386 C 382.848 177.022,364.144 176.850,363.636 178.172 M382.243 188.048 C 386.430 191.342,383.283 197.333,377.366 197.333 L 375.333 197.333 375.333 192.000 L 375.333 186.667 377.910 186.667 C 379.507 186.667,381.154 187.192,382.243 188.048 M337.042 188.756 C 348.537 194.160,344.628 212.130,332.000 211.935 C 318.609 211.728,314.858 194.219,327.000 188.597 C 330.507 186.973,333.345 187.018,337.042 188.756 M334.906 194.693 C 329.480 197.726,329.729 197.467,326.360 203.590 L 323.834 208.181 329.141 205.314 C 334.268 202.545,334.543 202.271,337.269 197.224 C 338.821 194.351,339.995 192.007,339.879 192.016 C 339.762 192.025,337.524 193.229,334.906 194.693 " stroke="none" fill-rule="evenodd"></path></g></svg>