<svg id="svg" version="1.1" width="515" height="515" xmlns="http://www.w3.org/2000/svg" xmlns:xlink="http://www.w3.org/1999/xlink" style="display: block;"><g id="svgg"><path id="path0" d="M253.352 36.958 C 251.621 37.369,233.765 47.213,213.671 58.833 C 193.578 70.453,175.194 80.958,172.819 82.177 C 166.934 85.196,86.298 131.655,82.303 134.327 C 80.545 135.503,78.070 138.273,76.803 140.483 L 74.500 144.500 74.500 245.000 C 74.500 358.477,73.908 350.148,82.385 355.864 C 86.339 358.530,144.027 391.762,191.000 418.433 C 203.375 425.459,213.803 431.499,214.174 431.854 C 214.544 432.209,213.216 441.655,211.222 452.846 C 206.994 476.574,207.211 478.251,214.571 478.797 C 218.964 479.123,213.924 481.874,304.203 429.870 C 326.040 417.292,344.123 407.000,344.388 407.000 C 345.357 407.000,433.558 355.804,435.391 354.178 C 441.196 349.028,440.956 353.728,440.956 245.000 C 440.956 150.565,440.863 145.296,439.119 141.500 C 436.306 135.373,450.646 144.040,308.409 62.500 C 259.886 34.683,260.916 35.161,253.352 36.958 M301.078 73.598 C 322.760 86.126,341.850 97.036,343.500 97.842 C 349.231 100.644,424.510 144.249,426.250 145.775 C 427.976 147.289,429.110 336.267,427.431 342.515 C 426.957 344.280,358.755 384.733,340.517 394.068 C 337.758 395.480,323.575 403.544,309.000 411.989 C 256.931 442.159,223.719 461.052,223.369 460.702 C 223.174 460.507,224.358 452.987,226.002 443.990 C 228.644 429.526,228.825 427.381,227.563 425.456 C 226.407 423.692,173.248 392.000,171.445 392.000 C 168.874 392.000,88.657 344.228,87.904 342.249 C 86.399 338.289,86.734 148.729,88.250 146.750 C 89.333 145.336,170.312 98.000,171.649 98.000 C 171.923 98.000,189.731 87.841,211.221 75.423 C 260.143 47.155,256.741 48.951,259.438 49.977 C 260.658 50.440,279.396 61.070,301.078 73.598 M227.500 113.689 C 187.349 118.893,157.540 139.023,183.348 143.505 C 194.829 145.498,195.052 145.884,187.568 150.804 C 161.966 167.637,150.676 200.170,160.001 230.243 C 164.031 243.241,167.608 244.241,178.572 235.434 C 186.490 229.073,200.635 221.847,209.644 219.560 C 219.494 217.059,219.239 216.736,215.755 227.311 C 212.277 237.871,212.481 241.472,216.649 243.057 C 219.553 244.161,220.811 243.534,230.422 236.197 C 255.552 217.012,299.066 218.896,326.425 240.353 C 332.638 245.226,333.905 245.656,337.066 243.965 C 338.641 243.122,339.000 241.840,339.000 237.058 C 339.000 229.882,339.704 229.882,348.985 237.066 C 358.738 244.614,364.031 243.327,363.969 233.421 C 363.860 215.959,358.033 194.433,348.935 177.882 C 346.771 173.945,345.000 170.589,345.000 170.425 C 345.000 170.260,348.783 167.660,353.406 164.647 C 362.435 158.762,364.093 156.316,361.617 152.538 C 359.836 149.819,359.854 149.824,338.282 146.598 C 322.247 144.200,322.010 144.128,317.282 140.188 C 293.883 120.692,257.140 109.847,227.500 113.689 M259.317 126.496 C 275.874 129.383,292.813 136.719,305.969 146.698 C 309.451 149.339,313.590 152.450,315.168 153.610 C 317.134 155.057,320.941 156.113,327.268 156.969 C 338.933 158.545,340.047 159.130,335.506 161.296 C 327.950 164.899,328.378 167.463,339.791 186.969 C 345.669 197.016,352.969 220.365,350.883 222.450 C 350.629 222.704,347.284 221.412,343.448 219.580 L 336.474 216.248 334.124 208.874 C 318.702 160.480,276.300 128.895,226.334 128.582 C 219.093 128.537,213.270 128.398,213.395 128.273 C 216.176 125.479,246.708 124.297,259.317 126.496 M197.384 251.349 C 187.649 253.831,177.340 262.026,173.303 270.490 C 172.383 272.421,171.268 274.000,170.827 274.000 C 170.385 274.000,169.736 275.800,169.384 278.000 C 168.773 281.819,168.579 282.000,165.095 282.000 C 154.846 282.000,153.532 292.775,163.638 293.946 C 168.264 294.482,168.442 294.626,169.236 298.458 C 169.686 300.635,170.430 302.660,170.888 302.958 C 171.346 303.256,172.414 304.850,173.260 306.500 C 193.857 346.649,257.677 319.277,243.180 276.512 C 240.820 269.552,241.123 268.887,247.829 266.311 C 254.796 263.636,263.257 263.980,270.250 267.223 C 276.561 270.149,276.622 270.261,274.598 275.128 C 269.310 287.842,273.079 304.921,283.464 315.306 C 302.841 334.683,339.831 325.873,347.570 300.037 C 349.370 294.027,349.395 294.000,353.189 294.000 C 357.451 294.000,361.000 291.274,361.000 288.000 C 361.000 284.684,357.453 282.000,353.071 282.000 C 349.191 282.000,349.123 281.934,347.614 276.745 C 340.643 252.764,309.320 242.789,287.752 257.681 L 284.004 260.269 276.752 256.897 C 265.952 251.874,250.999 251.860,240.329 256.861 L 233.159 260.223 229.638 257.538 C 221.639 251.437,207.602 248.743,197.384 251.349 M217.500 264.390 C 235.454 272.903,238.885 295.129,224.234 308.025 C 200.656 328.779,166.578 296.939,186.090 272.387 C 193.982 262.456,206.630 259.236,217.500 264.390 M323.321 265.342 C 344.000 277.461,340.242 306.932,317.162 313.641 C 295.990 319.796,276.948 297.434,286.387 277.500 C 293.063 263.403,310.319 257.723,323.321 265.342 M197.424 271.019 C 188.710 275.332,184.799 292.000,192.500 292.000 C 195.083 292.000,197.000 289.492,197.000 286.113 C 197.000 282.268,199.211 279.221,203.111 277.688 C 206.415 276.391,207.000 275.714,207.000 273.187 C 207.000 268.567,203.828 267.849,197.424 271.019 M302.619 270.034 C 293.165 272.865,287.418 291.500,296.000 291.500 C 299.345 291.500,299.524 291.317,300.050 287.380 C 300.790 281.836,303.139 278.536,307.162 277.387 C 311.107 276.260,312.318 272.437,309.404 270.306 C 307.397 268.838,306.706 268.811,302.619 270.034 M214.571 347.571 C 210.251 351.892,214.992 359.326,227.262 367.473 C 250.583 382.958,287.765 377.262,302.541 355.941 C 309.407 346.034,299.435 342.348,290.348 351.435 C 272.731 369.052,244.960 369.110,226.704 351.568 C 220.619 345.722,217.461 344.681,214.571 347.571 " stroke="none" fill="#000000" fill-rule="evenodd"></path></g></svg>