<svg id="svg" version="1.1" width="400" height="400" xmlns="http://www.w3.org/2000/svg" xmlns:xlink="http://www.w3.org/1999/xlink" style="display: block;"><g id="svgg"><path id="path0" d="M10.461 30.250 C 10.200 30.938,10.101 90.675,10.243 163.000 L 10.500 294.500 98.250 294.755 L 186.000 295.011 186.000 279.005 L 186.000 263.000 116.500 263.000 L 47.000 263.000 47.000 146.000 L 47.000 29.000 28.969 29.000 C 15.464 29.000,10.818 29.314,10.461 30.250 M285.000 92.862 C 285.000 93.336,281.962 94.034,278.250 94.413 C 270.274 95.227,263.000 96.933,263.000 97.989 C 263.000 98.402,260.975 99.307,258.500 100.000 C 256.025 100.693,254.000 101.603,254.000 102.021 C 254.000 102.440,252.200 103.503,250.000 104.383 C 247.800 105.264,246.000 106.328,246.000 106.748 C 246.000 107.168,244.609 108.127,242.909 108.880 C 241.210 109.632,238.351 111.716,236.557 113.510 C 234.763 115.304,232.328 117.289,231.147 117.921 C 229.966 118.553,228.987 119.617,228.972 120.285 C 228.957 120.953,227.607 122.813,225.972 124.417 C 224.337 126.021,223.000 127.933,223.000 128.667 C 223.000 129.400,222.539 130.000,221.975 130.000 C 221.412 130.000,220.523 131.125,220.000 132.500 C 219.477 133.875,218.611 135.000,218.076 135.000 C 217.540 135.000,216.322 137.475,215.368 140.500 C 214.415 143.525,213.299 146.000,212.889 146.000 C 212.479 146.000,211.590 148.475,210.913 151.500 C 210.236 154.525,209.350 157.000,208.945 157.000 C 208.063 157.000,204.995 173.130,204.998 177.750 C 204.999 179.537,204.550 181.000,204.000 181.000 C 203.385 181.000,203.000 186.000,203.000 194.000 C 203.000 202.000,203.385 207.000,204.000 207.000 C 204.550 207.000,205.000 208.516,205.000 210.369 C 205.000 215.228,207.933 231.339,208.933 231.968 C 209.398 232.260,210.369 234.525,211.091 237.000 C 211.812 239.475,212.681 241.725,213.020 242.000 C 213.360 242.275,214.401 244.439,215.334 246.809 C 216.959 250.936,217.644 252.030,221.000 255.852 C 221.825 256.792,223.175 258.897,224.000 260.530 C 225.920 264.331,237.644 276.039,241.494 278.000 C 243.114 278.825,245.240 280.288,246.220 281.250 C 247.199 282.212,248.675 283.000,249.500 283.000 C 250.325 283.000,251.000 283.401,251.000 283.892 C 251.000 284.383,253.700 285.593,257.000 286.581 C 260.300 287.570,263.000 288.671,263.000 289.029 C 263.000 289.387,266.262 290.284,270.250 291.022 C 274.238 291.761,277.802 292.815,278.171 293.364 C 279.074 294.708,313.883 294.767,314.809 293.426 C 315.189 292.876,318.858 291.865,322.961 291.180 C 327.065 290.495,330.665 289.583,330.961 289.154 C 331.258 288.726,334.195 287.540,337.490 286.519 C 340.784 285.498,344.079 284.064,344.811 283.331 C 345.544 282.599,346.763 282.000,347.522 282.000 C 348.280 282.000,349.260 281.437,349.700 280.748 C 350.140 280.060,351.825 278.822,353.445 277.998 C 358.195 275.582,372.203 261.007,375.550 255.000 C 376.623 253.075,377.751 251.275,378.057 251.000 C 378.363 250.725,379.237 248.925,380.000 247.000 C 380.763 245.075,381.659 243.275,381.991 243.000 C 382.819 242.316,386.000 230.490,386.000 228.098 C 386.000 227.036,386.416 226.017,386.925 225.833 C 390.772 224.447,390.718 162.000,386.869 162.000 C 386.391 162.000,386.000 161.277,386.000 160.393 C 386.000 157.349,382.671 145.000,381.851 145.000 C 381.399 145.000,380.519 142.975,379.896 140.500 C 379.272 138.025,378.372 136.000,377.895 136.000 C 377.417 136.000,376.337 134.349,375.493 132.330 C 374.650 130.312,373.069 128.036,371.980 127.273 C 370.891 126.511,370.000 125.482,370.000 124.987 C 370.000 123.837,359.283 113.000,358.146 113.000 C 357.676 113.000,356.144 111.987,354.742 110.750 C 350.092 106.647,347.588 104.981,344.277 103.783 C 342.475 103.131,341.000 102.257,341.000 101.839 C 341.000 101.422,339.087 100.516,336.750 99.826 C 334.413 99.136,331.943 98.031,331.263 97.370 C 330.583 96.710,325.970 95.595,321.013 94.893 C 316.056 94.192,312.000 93.254,312.000 92.809 C 312.000 92.364,305.925 92.000,298.500 92.000 C 291.075 92.000,285.000 92.388,285.000 92.862 M308.412 123.857 C 308.703 124.329,311.692 125.298,315.054 126.011 C 318.415 126.725,321.691 127.821,322.333 128.446 C 322.975 129.072,324.930 130.169,326.678 130.884 C 328.426 131.598,330.100 132.817,330.397 133.592 C 330.694 134.366,331.518 135.000,332.227 135.000 C 332.937 135.000,335.088 136.799,337.009 138.998 C 338.929 141.197,341.509 144.141,342.742 145.541 C 343.974 146.940,345.261 149.191,345.600 150.542 C 345.939 151.894,346.600 153.000,347.068 153.000 C 347.537 153.000,348.478 154.912,349.161 157.250 C 349.844 159.588,350.695 161.725,351.052 162.000 C 355.616 165.514,355.717 220.731,351.165 223.968 C 350.753 224.260,349.800 226.412,349.048 228.750 C 348.296 231.088,347.389 233.000,347.032 233.000 C 346.676 233.000,345.554 234.883,344.539 237.184 C 343.524 239.485,341.463 242.570,339.958 244.041 C 338.454 245.511,336.707 247.679,336.076 248.857 C 335.446 250.036,334.286 251.000,333.500 251.000 C 332.714 251.000,331.604 251.871,331.035 252.936 C 330.465 254.000,328.424 255.440,326.499 256.136 C 324.575 256.832,323.000 257.743,323.000 258.161 C 323.000 258.578,321.087 259.478,318.750 260.161 C 316.413 260.844,314.179 261.875,313.786 262.451 C 312.754 263.969,283.153 263.866,282.211 262.342 C 281.818 261.705,279.787 260.863,277.699 260.471 C 275.610 260.080,273.361 259.251,272.701 258.630 C 272.040 258.008,270.150 256.825,268.500 256.000 C 265.949 254.725,257.055 246.349,253.394 241.775 C 250.618 238.306,247.088 232.170,245.900 228.750 C 245.184 226.688,244.300 225.000,243.936 225.000 C 243.571 225.000,242.686 222.188,241.968 218.750 C 241.250 215.313,240.196 212.191,239.626 211.814 C 238.069 210.784,238.229 179.757,239.794 179.235 C 240.457 179.014,241.000 177.780,241.000 176.493 C 241.000 173.566,243.193 163.673,243.991 163.000 C 244.317 162.725,245.219 160.528,245.996 158.118 C 246.772 155.707,247.969 153.174,248.654 152.489 C 249.340 151.803,250.191 150.086,250.546 148.673 C 250.900 147.261,252.273 145.396,253.595 144.530 C 254.918 143.663,256.000 142.352,256.000 141.617 C 256.000 140.882,257.205 139.430,258.679 138.390 C 260.152 137.351,262.388 135.522,263.647 134.328 C 264.906 133.133,266.848 131.866,267.962 131.512 C 269.076 131.158,270.639 130.218,271.435 129.423 C 272.230 128.627,275.945 127.194,279.690 126.238 C 283.436 125.282,286.650 124.162,286.833 123.750 C 287.298 122.704,307.762 122.805,308.412 123.857 M10.000 350.500 L 10.000 371.000 200.000 371.000 L 390.000 371.000 390.000 350.500 L 390.000 330.000 200.000 330.000 L 10.000 330.000 10.000 350.500 " stroke="none" fill="#000000" fill-rule="evenodd"></path></g></svg>