<svg id="svg" xmlns="http://www.w3.org/2000/svg" xmlns:xlink="http://www.w3.org/1999/xlink" width="400" height="400" viewBox="0, 0, 400,400"><g id="svgg"><path id="path0" d="M0.000 200.000 L 0.000 248.193 36.145 248.193 L 72.289 248.193 72.289 240.964 L 72.289 233.735 43.373 233.735 L 14.458 233.735 14.458 192.771 L 14.458 151.807 7.229 151.807 L 0.000 151.807 0.000 200.000 M19.277 190.361 L 19.277 228.916 45.783 228.916 L 72.289 228.916 72.289 190.361 L 72.289 151.807 45.783 151.807 L 19.277 151.807 19.277 190.361 M77.108 159.036 L 77.108 166.265 103.614 166.265 L 130.120 166.265 130.120 159.036 L 130.120 151.807 103.614 151.807 L 77.108 151.807 77.108 159.036 M134.940 159.036 L 134.940 166.265 142.169 166.265 L 149.398 166.265 149.398 159.036 L 149.398 151.807 142.169 151.807 L 134.940 151.807 134.940 159.036 M154.217 159.036 L 154.217 166.265 180.723 166.265 L 207.229 166.265 207.229 159.036 L 207.229 151.807 180.723 151.807 L 154.217 151.807 154.217 159.036 M212.048 159.036 L 212.048 166.265 238.554 166.265 L 265.060 166.265 265.060 159.036 L 265.060 151.807 238.554 151.807 L 212.048 151.807 212.048 159.036 M269.880 159.036 L 269.880 166.265 277.108 166.265 L 284.337 166.265 284.337 159.036 L 284.337 151.807 277.108 151.807 L 269.880 151.807 269.880 159.036 M289.157 159.036 L 289.157 166.265 315.663 166.265 L 342.169 166.265 342.169 159.036 L 342.169 151.807 315.663 151.807 L 289.157 151.807 289.157 159.036 M346.988 159.036 L 346.988 166.265 373.494 166.265 L 400.000 166.265 400.000 159.036 L 400.000 151.807 373.494 151.807 L 346.988 151.807 346.988 159.036 M57.831 190.361 L 57.831 214.458 45.783 214.458 L 33.735 214.458 33.735 190.361 L 33.735 166.265 45.783 166.265 L 57.831 166.265 57.831 190.361 M77.108 209.639 L 77.108 248.193 103.614 248.193 L 130.120 248.193 130.120 220.482 L 130.120 192.771 116.867 192.771 L 103.614 192.771 103.614 200.000 L 103.614 207.229 109.639 207.229 L 115.663 207.229 115.663 220.482 L 115.663 233.735 103.614 233.735 L 91.566 233.735 91.566 202.410 L 91.566 171.084 84.337 171.084 L 77.108 171.084 77.108 209.639 M134.940 209.639 L 134.940 248.193 142.169 248.193 L 149.398 248.193 149.398 209.639 L 149.398 171.084 142.169 171.084 L 134.940 171.084 134.940 209.639 M154.217 189.157 L 154.217 207.229 173.494 207.229 L 192.771 207.229 192.771 220.482 L 192.771 233.735 173.494 233.735 L 154.217 233.735 154.217 240.964 L 154.217 248.193 180.723 248.193 L 207.229 248.193 207.229 220.482 L 207.229 192.771 187.952 192.771 L 168.675 192.771 168.675 181.928 L 168.675 171.084 161.446 171.084 L 154.217 171.084 154.217 189.157 M231.325 209.639 L 231.325 248.193 238.554 248.193 L 245.783 248.193 245.783 209.639 L 245.783 171.084 238.554 171.084 L 231.325 171.084 231.325 209.639 M269.880 209.639 L 269.880 248.193 277.108 248.193 L 284.337 248.193 284.337 209.639 L 284.337 171.084 277.108 171.084 L 269.880 171.084 269.880 209.639 M289.157 209.639 L 289.157 248.193 315.663 248.193 L 342.169 248.193 342.169 240.964 L 342.169 233.735 322.892 233.735 L 303.614 233.735 303.614 202.410 L 303.614 171.084 296.386 171.084 L 289.157 171.084 289.157 209.639 M346.988 189.157 L 346.988 207.229 366.265 207.229 L 385.542 207.229 385.542 220.482 L 385.542 233.735 366.265 233.735 L 346.988 233.735 346.988 240.964 L 346.988 248.193 373.494 248.193 L 400.000 248.193 400.000 220.482 L 400.000 192.771 380.723 192.771 L 361.446 192.771 361.446 181.928 L 361.446 171.084 354.217 171.084 L 346.988 171.084 346.988 189.157 " stroke="none" fill="#000000" fill-rule="evenodd"></path></g></svg>