<svg version="1.1" width="515" height="515" xmlns="http://www.w3.org/2000/svg"><g><path d="M265.000 246.500 L 265.000 277.000 270.500 277.000 L 276.000 277.000 276.000 260.117 C 276.000 241.280,275.680 242.049,283.527 242.014 C 290.487 241.982,291.000 243.290,291.000 261.057 L 291.000 277.000 297.000 277.000 L 303.000 277.000 303.000 259.968 C 303.000 241.763,302.099 237.194,298.088 235.047 C 294.319 233.030,285.651 231.939,280.718 232.860 L 276.000 233.742 276.000 224.871 L 276.000 216.000 270.500 216.000 L 265.000 216.000 265.000 246.500 M390.000 246.500 L 390.000 277.000 395.500 277.000 L 401.000 277.000 401.000 260.045 L 401.000 243.091 404.500 242.434 C 415.299 240.408,417.000 243.226,417.000 263.149 L 417.000 277.000 422.500 277.000 L 428.000 277.000 428.000 260.149 C 428.000 242.043,427.255 238.052,423.402 235.528 C 419.740 233.128,411.188 231.838,405.718 232.860 L 401.000 233.742 401.000 224.871 L 401.000 216.000 395.500 216.000 L 390.000 216.000 390.000 246.500 M29.500 220.195 C 26.646 221.813,26.033 223.028,26.015 227.095 C 25.983 234.704,36.279 237.101,39.850 230.316 C 43.459 223.460,36.222 216.383,29.500 220.195 M49.455 221.455 C 44.318 226.591,47.502 234.000,54.845 234.000 C 59.637 234.000,62.000 231.604,62.000 226.744 C 62.000 219.927,54.250 216.659,49.455 221.455 M217.000 219.841 L 212.500 220.500 212.234 248.750 L 211.969 277.000 217.984 277.000 L 224.000 277.000 224.000 266.440 L 224.000 255.879 227.598 256.190 C 231.203 256.501,234.063 260.402,241.202 274.750 C 242.199 276.755,243.066 277.000,249.161 277.000 C 256.936 277.000,256.890 277.066,253.348 271.000 C 246.609 259.461,243.971 254.705,244.225 254.556 C 257.654 246.684,258.369 227.998,245.500 221.233 C 242.212 219.504,225.030 218.665,217.000 219.841 M76.000 244.050 C 76.000 276.930,76.048 277.000,98.401 277.000 L 111.000 277.000 111.000 272.000 L 111.000 267.000 100.535 267.000 C 87.201 267.000,88.000 268.621,88.000 241.566 L 88.000 220.000 82.000 220.000 L 76.000 220.000 76.000 244.050 M363.250 221.723 C 360.031 222.123,360.000 222.179,360.000 227.563 L 360.000 233.000 356.500 233.000 C 353.019 233.000,353.000 233.024,353.000 237.500 C 353.000 241.976,353.019 242.000,356.500 242.000 L 360.000 242.000 360.000 255.032 C 360.000 275.084,364.840 281.018,378.416 277.610 C 382.872 276.492,382.248 269.000,377.700 269.000 C 372.434 269.000,372.000 267.880,372.000 254.300 L 372.000 242.000 376.500 242.000 L 381.000 242.000 381.000 237.500 L 381.000 233.000 376.500 233.000 L 372.000 233.000 372.000 227.000 C 372.000 220.339,372.411 220.586,363.250 221.723 M238.316 230.150 C 247.265 234.860,242.400 245.186,230.927 245.834 L 224.000 246.226 224.000 237.613 L 224.000 229.000 230.066 229.000 C 233.402 229.000,237.114 229.517,238.316 230.150 M127.380 232.906 C 117.213 234.619,114.500 239.272,114.500 255.000 C 114.500 273.276,118.067 277.500,133.500 277.500 C 148.407 277.500,152.304 273.519,152.850 257.734 C 153.569 236.910,146.207 229.733,127.380 232.906 M174.230 232.945 C 164.315 234.558,160.500 240.547,160.500 254.500 C 160.500 271.540,165.902 277.471,180.801 276.790 L 188.102 276.456 187.496 278.978 C 186.428 283.426,184.368 284.145,173.500 283.860 L 163.500 283.599 163.194 287.766 C 162.814 292.939,163.897 293.327,179.000 293.429 C 198.404 293.560,198.966 292.631,198.985 260.371 L 199.000 236.243 196.250 235.107 C 193.346 233.907,182.542 231.929,180.000 232.131 C 179.175 232.197,176.578 232.563,174.230 232.945 M450.500 232.651 C 448.850 232.896,445.137 233.762,442.250 234.576 L 437.000 236.056 437.000 256.528 L 437.000 277.000 442.976 277.000 L 448.953 277.000 449.226 259.750 L 449.500 242.500 453.193 242.193 C 460.218 241.609,461.000 243.542,461.000 261.500 L 461.000 277.000 466.500 277.000 L 472.000 277.000 472.000 260.107 C 472.000 241.718,471.908 242.000,477.891 242.000 C 484.015 242.000,484.468 243.237,484.819 260.917 L 485.138 277.000 490.569 277.000 L 496.000 277.000 495.985 259.250 C 495.969 239.622,495.535 237.801,490.128 234.643 C 486.430 232.483,475.239 232.039,469.416 233.821 C 467.720 234.340,465.671 234.395,464.863 233.943 C 462.935 232.865,454.303 232.088,450.500 232.651 M306.313 233.750 C 307.203 235.299,313.000 248.158,313.000 248.583 C 313.000 248.827,315.478 254.626,318.506 261.469 L 324.012 273.911 321.119 281.705 C 319.528 285.992,317.902 290.288,317.506 291.250 C 316.868 292.802,317.463 293.000,322.770 293.000 L 328.755 293.000 331.863 284.250 C 338.386 265.887,349.000 234.674,349.000 233.855 C 349.000 233.385,346.398 233.000,343.218 233.000 L 337.435 233.000 333.519 245.502 C 331.366 252.378,329.276 257.665,328.876 257.252 C 328.477 256.838,326.754 252.900,325.049 248.500 C 323.343 244.100,321.216 238.813,320.322 236.750 L 318.696 233.000 312.289 233.000 C 308.765 233.000,306.076 233.338,306.313 233.750 M6.039 243.189 C -0.298 249.991,9.033 259.695,16.365 253.927 C 19.619 251.368,20.055 245.265,17.171 242.655 C 14.496 240.234,8.525 240.520,6.039 243.189 M27.655 242.829 C 23.474 247.449,27.096 256.000,33.234 256.000 C 40.403 256.000,43.550 245.738,37.600 241.765 C 35.433 240.318,29.337 240.970,27.655 242.829 M49.000 243.000 C 43.057 248.943,50.807 258.803,58.316 254.850 C 62.514 252.640,63.566 245.727,60.171 242.655 C 57.605 240.332,51.478 240.522,49.000 243.000 M138.916 243.750 C 141.430 245.808,142.628 253.326,141.568 260.392 C 139.517 274.070,125.013 270.062,125.004 255.815 C 124.996 243.857,131.819 237.940,138.916 243.750 M187.780 254.619 L 188.059 266.738 185.030 267.344 C 175.078 269.334,169.680 262.210,172.084 250.258 C 173.422 243.605,175.719 241.831,182.500 242.216 L 187.500 242.500 187.780 254.619 M6.073 264.635 C 1.544 270.392,4.796 276.954,12.193 276.985 C 16.581 277.003,19.000 274.278,19.000 269.316 C 19.000 262.473,10.262 259.309,6.073 264.635 M28.000 264.000 C 25.586 266.414,25.370 271.656,27.557 274.777 C 31.150 279.908,41.000 276.041,41.000 269.500 C 41.000 263.153,32.460 259.540,28.000 264.000 " stroke="none" fill-rule="evenodd"></path></g></svg>