<svg id="svg" version="1.1" width="515" height="515" xmlns="http://www.w3.org/2000/svg" xmlns:xlink="http://www.w3.org/1999/xlink" style="display: block;"><g id="svgg"><path id="path0" d="M241.000 38.500 C 241.000 39.679,239.611 40.000,234.500 40.000 C 230.925 40.000,228.000 40.392,228.000 40.872 C 228.000 41.352,226.200 42.032,224.000 42.384 C 221.800 42.736,220.000 43.468,220.000 44.012 C 220.000 44.555,218.875 45.000,217.500 45.000 C 215.944 45.000,215.000 45.567,215.000 46.500 C 215.000 47.325,214.325 48.000,213.500 48.000 C 212.675 48.000,212.000 48.419,212.000 48.930 C 212.000 49.442,210.988 50.015,209.750 50.204 C 208.512 50.393,207.610 51.091,207.744 51.755 C 207.878 52.419,206.753 53.752,205.244 54.717 C 201.734 56.963,200.072 59.046,200.032 61.250 C 200.014 62.212,199.325 63.000,198.500 63.000 C 197.675 63.000,197.000 63.675,197.000 64.500 C 197.000 65.325,196.637 66.000,196.192 66.000 C 194.967 66.000,192.000 73.315,192.000 76.336 C 192.000 77.964,191.451 79.000,190.588 79.000 C 189.434 79.000,189.153 82.016,189.049 95.500 C 188.940 109.739,189.134 112.000,190.461 112.000 C 191.590 112.000,192.000 113.066,192.000 116.000 C 192.000 118.200,192.450 120.000,193.000 120.000 C 193.550 120.000,194.000 121.125,194.000 122.500 C 194.000 124.056,194.567 125.000,195.500 125.000 C 196.433 125.000,197.000 125.944,197.000 127.500 C 197.000 129.056,197.567 130.000,198.500 130.000 C 199.325 130.000,200.000 130.482,200.000 131.071 C 200.000 132.456,202.544 135.000,203.929 135.000 C 204.518 135.000,205.000 135.482,205.000 136.071 C 205.000 137.456,207.544 140.000,208.929 140.000 C 209.518 140.000,210.000 140.482,210.000 141.071 C 210.000 142.980,212.792 145.000,215.429 145.000 C 217.048 145.000,218.000 145.556,218.000 146.500 C 218.000 147.433,218.944 148.000,220.500 148.000 C 222.056 148.000,223.000 148.567,223.000 149.500 C 223.000 150.548,224.056 151.000,226.500 151.000 C 228.425 151.000,230.000 151.450,230.000 152.000 C 230.000 152.627,236.333 153.000,247.000 153.000 C 257.667 153.000,264.000 152.627,264.000 152.000 C 264.000 151.450,265.350 151.000,267.000 151.000 C 268.650 151.000,270.000 150.580,270.000 150.067 C 270.000 149.138,272.991 147.810,274.066 148.262 C 274.377 148.393,275.779 147.262,277.181 145.750 C 278.582 144.238,280.313 143.000,281.025 143.000 C 281.738 143.000,283.559 141.614,285.071 139.920 C 286.584 138.226,288.086 136.876,288.411 136.920 C 288.735 136.964,289.080 136.662,289.179 136.250 C 289.277 135.838,289.952 134.905,290.679 134.179 C 291.405 133.452,292.000 132.214,292.000 131.429 C 292.000 130.643,292.675 130.000,293.500 130.000 C 294.325 130.000,295.000 129.325,295.000 128.500 C 295.000 127.675,295.450 127.000,296.000 127.000 C 296.550 127.000,297.000 125.875,297.000 124.500 C 297.000 122.944,297.567 122.000,298.500 122.000 C 299.539 122.000,300.000 120.956,300.000 118.607 C 300.000 116.513,300.574 114.994,301.500 114.638 C 302.604 114.215,303.000 112.470,303.000 108.031 C 303.000 104.677,303.444 102.000,304.000 102.000 C 304.550 102.000,305.000 99.525,305.000 96.500 C 305.000 93.475,304.550 91.000,304.000 91.000 C 303.428 91.000,303.000 87.990,303.000 83.969 C 303.000 78.641,302.637 76.798,301.500 76.362 C 300.675 76.045,300.000 74.709,300.000 73.393 C 300.000 71.933,299.415 71.000,298.500 71.000 C 297.567 71.000,297.000 70.056,297.000 68.500 C 297.000 67.125,296.550 66.000,296.000 66.000 C 295.450 66.000,295.000 64.848,295.000 63.441 C 295.000 61.882,294.583 61.140,293.933 61.542 C 293.345 61.905,292.619 61.257,292.316 60.101 C 292.014 58.945,291.369 58.000,290.883 58.000 C 290.398 58.000,290.000 57.325,290.000 56.500 C 290.000 55.675,289.520 55.000,288.933 55.000 C 288.346 55.000,286.352 53.395,284.503 51.434 C 282.653 49.473,280.883 47.898,280.570 47.934 C 278.090 48.221,277.000 47.783,277.000 46.500 C 277.000 45.649,276.103 45.000,274.929 45.000 C 273.789 45.000,272.182 44.325,271.357 43.500 C 270.532 42.675,269.016 42.000,267.988 42.000 C 266.959 42.000,265.840 41.550,265.500 41.000 C 265.160 40.450,261.759 40.000,257.941 40.000 C 252.438 40.000,251.000 39.689,251.000 38.500 C 251.000 37.367,249.778 37.000,246.000 37.000 C 242.222 37.000,241.000 37.367,241.000 38.500 M401.638 38.500 C 401.208 39.621,399.415 40.000,394.531 40.000 C 390.939 40.000,388.000 40.410,388.000 40.912 C 388.000 41.414,386.198 42.129,383.996 42.501 C 381.793 42.873,380.245 43.587,380.555 44.089 C 380.865 44.590,380.191 45.000,379.059 45.000 C 377.895 45.000,377.000 45.652,377.000 46.500 C 377.000 47.351,376.103 48.000,374.929 48.000 C 372.715 48.000,370.000 50.164,370.000 51.929 C 370.000 52.518,369.325 53.000,368.500 53.000 C 367.675 53.000,367.000 53.450,367.000 54.000 C 367.000 54.550,366.325 55.000,365.500 55.000 C 364.675 55.000,364.000 55.675,364.000 56.500 C 364.000 57.325,363.550 58.000,363.000 58.000 C 362.450 58.000,362.000 58.675,362.000 59.500 C 362.000 60.325,361.518 61.000,360.929 61.000 C 359.164 61.000,357.000 63.715,357.000 65.929 C 357.000 67.103,356.351 68.000,355.500 68.000 C 354.424 68.000,354.000 69.099,354.000 71.893 C 354.000 74.431,353.478 75.986,352.500 76.362 C 351.510 76.742,351.000 78.308,351.000 80.969 C 351.000 83.186,350.550 85.000,350.000 85.000 C 349.394 85.000,349.000 89.333,349.000 96.000 C 349.000 102.667,349.394 107.000,350.000 107.000 C 350.550 107.000,351.000 109.039,351.000 111.531 C 351.000 114.637,351.472 116.244,352.500 116.638 C 353.325 116.955,354.000 118.291,354.000 119.607 C 354.000 121.067,354.585 122.000,355.500 122.000 C 356.420 122.000,357.000 122.935,357.000 124.417 C 357.000 125.746,357.470 126.990,358.044 127.181 C 358.619 127.373,359.162 128.504,359.252 129.696 C 359.342 130.887,359.739 131.661,360.136 131.416 C 360.532 131.171,361.144 131.877,361.495 132.985 C 361.847 134.093,362.554 135.000,363.067 135.000 C 363.580 135.000,364.000 135.675,364.000 136.500 C 364.000 137.325,364.675 138.000,365.500 138.000 C 366.325 138.000,367.000 138.450,367.000 139.000 C 367.000 139.550,367.675 140.000,368.500 140.000 C 369.325 140.000,370.000 140.675,370.000 141.500 C 370.000 142.351,370.897 143.000,372.071 143.000 C 374.285 143.000,377.000 145.164,377.000 146.929 C 377.000 147.518,378.077 148.000,379.393 148.000 C 380.709 148.000,382.045 148.675,382.362 149.500 C 382.723 150.441,384.252 151.000,386.469 151.000 C 388.411 151.000,390.000 151.450,390.000 152.000 C 390.000 152.627,396.333 153.000,407.000 153.000 C 417.667 153.000,424.000 152.627,424.000 152.000 C 424.000 151.450,425.575 151.000,427.500 151.000 C 429.944 151.000,431.000 150.548,431.000 149.500 C 431.000 148.567,431.944 148.000,433.500 148.000 C 435.056 148.000,436.000 147.433,436.000 146.500 C 436.000 145.621,436.931 144.987,438.250 144.968 C 440.829 144.932,444.000 142.821,444.000 141.140 C 444.000 140.513,444.482 140.000,445.071 140.000 C 446.456 140.000,449.000 137.456,449.000 136.071 C 449.000 135.482,449.482 135.000,450.071 135.000 C 451.980 135.000,454.000 132.208,454.000 129.571 C 454.000 127.952,454.556 127.000,455.500 127.000 C 456.325 127.000,457.000 126.550,457.000 126.000 C 457.000 125.450,457.675 125.000,458.500 125.000 C 459.424 125.000,460.000 124.062,460.000 122.559 C 460.000 121.216,460.450 119.840,461.000 119.500 C 461.550 119.160,462.000 116.659,462.000 113.941 C 462.000 110.216,462.369 109.000,463.500 109.000 C 464.759 109.000,465.000 106.845,465.000 95.607 C 465.000 84.625,464.730 82.110,463.500 81.638 C 462.510 81.258,462.000 79.692,462.000 77.031 C 462.000 74.814,461.550 73.000,461.000 73.000 C 460.450 73.000,460.000 71.875,460.000 70.500 C 460.000 68.944,459.433 68.000,458.500 68.000 C 457.567 68.000,457.000 67.056,457.000 65.500 C 457.000 64.125,456.518 63.000,455.929 63.000 C 454.544 63.000,452.000 60.456,452.000 59.071 C 452.000 58.482,451.325 58.000,450.500 58.000 C 449.675 58.000,449.000 57.518,449.000 56.929 C 449.000 55.544,446.456 53.000,445.071 53.000 C 444.482 53.000,444.000 52.518,444.000 51.929 C 444.000 50.347,441.373 48.000,439.603 48.000 C 438.645 48.000,438.280 47.433,438.638 46.500 C 439.059 45.403,438.513 45.000,436.607 45.000 C 435.173 45.000,434.000 44.550,434.000 44.000 C 434.000 43.450,433.663 43.060,433.250 43.134 C 431.584 43.431,426.000 41.691,426.000 40.875 C 426.000 40.394,423.075 40.000,419.500 40.000 C 414.389 40.000,413.000 39.679,413.000 38.500 C 413.000 37.352,411.734 37.000,407.607 37.000 C 403.736 37.000,402.052 37.423,401.638 38.500 M71.000 201.000 C 71.000 201.550,69.200 202.000,67.000 202.000 C 64.111 202.000,63.000 202.417,63.000 203.500 C 63.000 204.433,62.056 205.000,60.500 205.000 C 59.125 205.000,58.000 205.450,58.000 206.000 C 58.000 206.550,56.875 207.000,55.500 207.000 C 53.944 207.000,53.000 207.567,53.000 208.500 C 53.000 209.325,52.324 210.000,51.497 210.000 C 49.406 210.000,40.000 219.259,40.000 221.316 C 40.000 222.242,39.518 223.000,38.929 223.000 C 37.198 223.000,35.000 225.698,35.000 227.822 C 35.000 228.902,34.325 230.045,33.500 230.362 C 32.675 230.678,32.000 232.076,32.000 233.469 C 32.000 234.861,31.550 236.000,31.000 236.000 C 30.436 236.000,30.000 238.833,30.000 242.500 C 30.000 247.611,29.679 249.000,28.500 249.000 C 27.300 249.000,27.000 250.500,27.000 256.500 C 27.000 262.500,27.300 264.000,28.500 264.000 C 29.679 264.000,30.000 265.389,30.000 270.500 C 30.000 274.167,30.436 277.000,31.000 277.000 C 31.550 277.000,32.000 278.602,32.000 280.559 C 32.000 282.827,32.387 283.879,33.067 283.458 C 33.655 283.095,34.381 283.743,34.684 284.899 C 34.986 286.055,35.631 287.000,36.117 287.000 C 36.602 287.000,37.000 288.125,37.000 289.500 C 37.000 291.056,37.567 292.000,38.500 292.000 C 39.325 292.000,40.000 292.599,40.000 293.331 C 40.000 294.063,41.125 295.264,42.500 296.000 C 43.875 296.736,45.000 297.937,45.000 298.669 C 45.000 299.401,45.675 300.000,46.500 300.000 C 47.325 300.000,48.000 300.482,48.000 301.071 C 48.000 302.836,50.715 305.000,52.929 305.000 C 54.068 305.000,55.004 305.563,55.008 306.250 C 55.018 307.882,59.644 310.000,63.199 310.000 C 64.940 310.000,66.000 310.533,66.000 311.407 C 66.000 312.908,70.406 313.623,85.750 314.614 C 91.291 314.972,94.000 314.794,94.000 314.073 C 94.000 313.442,96.214 313.000,99.378 313.000 C 102.938 313.000,105.176 312.493,106.000 311.500 C 106.685 310.675,108.315 310.000,109.622 310.000 C 110.930 310.000,112.000 309.550,112.000 309.000 C 112.000 308.450,113.125 308.000,114.500 308.000 C 116.056 308.000,117.000 307.433,117.000 306.500 C 117.000 305.675,117.469 305.000,118.042 305.000 C 119.288 305.000,120.908 303.736,126.052 298.750 C 128.180 296.688,130.380 295.000,130.941 295.000 C 131.503 295.000,132.244 293.875,132.589 292.500 C 132.934 291.125,133.618 290.000,134.108 290.000 C 134.599 290.000,135.000 289.073,135.000 287.941 C 135.000 286.809,135.403 286.131,135.895 286.435 C 136.986 287.109,138.000 284.693,138.000 281.418 C 138.000 280.088,138.450 279.000,139.000 279.000 C 139.550 279.000,140.000 277.425,140.000 275.500 C 140.000 273.056,140.452 272.000,141.500 272.000 C 142.769 272.000,143.000 269.611,143.000 256.500 C 143.000 243.389,142.769 241.000,141.500 241.000 C 140.417 241.000,140.000 239.889,140.000 237.000 C 140.000 234.800,139.550 233.000,139.000 233.000 C 138.450 233.000,138.000 231.875,138.000 230.500 C 138.000 228.944,137.433 228.000,136.500 228.000 C 135.667 228.000,135.000 227.111,135.000 226.000 C 135.000 224.900,134.550 224.000,134.000 224.000 C 133.450 224.000,133.000 223.100,133.000 222.000 C 133.000 220.889,132.333 220.000,131.500 220.000 C 130.675 220.000,130.000 219.550,130.000 219.000 C 130.000 218.450,129.325 218.000,128.500 218.000 C 127.675 218.000,127.000 217.325,127.000 216.500 C 127.000 215.675,126.550 215.000,126.000 215.000 C 125.450 215.000,125.000 214.325,125.000 213.500 C 125.000 212.675,124.325 212.000,123.500 212.000 C 122.675 212.000,122.000 211.550,122.000 211.000 C 122.000 210.450,121.325 210.000,120.500 210.000 C 119.675 210.000,119.112 209.497,119.250 208.883 C 119.387 208.268,118.608 207.618,117.518 207.437 C 116.428 207.257,115.378 206.634,115.185 206.054 C 114.992 205.475,113.521 205.000,111.917 205.000 C 109.991 205.000,109.000 204.490,109.000 203.500 C 109.000 202.452,107.944 202.000,105.500 202.000 C 103.575 202.000,102.000 201.550,102.000 201.000 C 102.000 200.376,96.167 200.000,86.500 200.000 C 76.833 200.000,71.000 200.376,71.000 201.000 M230.000 201.000 C 230.000 201.550,228.425 202.000,226.500 202.000 C 224.056 202.000,223.000 202.452,223.000 203.500 C 223.000 204.433,222.056 205.000,220.500 205.000 C 219.125 205.000,218.000 205.450,218.000 206.000 C 218.000 206.550,217.050 207.000,215.890 207.000 C 213.757 207.000,205.000 215.004,205.000 216.953 C 205.000 217.529,204.518 218.000,203.929 218.000 C 202.544 218.000,200.000 220.544,200.000 221.929 C 200.000 222.518,199.325 223.000,198.500 223.000 C 197.567 223.000,197.000 223.944,197.000 225.500 C 197.000 227.056,196.433 228.000,195.500 228.000 C 194.567 228.000,194.000 228.944,194.000 230.500 C 194.000 231.875,193.550 233.000,193.000 233.000 C 192.450 233.000,192.000 234.800,192.000 237.000 C 192.000 239.889,191.583 241.000,190.500 241.000 C 189.229 241.000,189.000 243.448,189.000 257.031 C 189.000 270.359,189.253 273.160,190.500 273.638 C 191.478 274.014,192.000 275.569,192.000 278.107 C 192.000 280.248,192.401 282.000,192.892 282.000 C 193.382 282.000,194.066 283.125,194.411 284.500 C 194.756 285.875,195.480 287.000,196.019 287.000 C 196.559 287.000,197.000 287.675,197.000 288.500 C 197.000 289.325,197.675 290.000,198.500 290.000 C 199.351 290.000,200.000 290.897,200.000 292.071 C 200.000 294.285,202.164 297.000,203.929 297.000 C 204.518 297.000,205.000 297.482,205.000 298.071 C 205.000 299.597,207.222 301.618,209.797 302.435 C 211.008 302.820,212.000 303.554,212.000 304.067 C 212.000 304.580,212.675 305.000,213.500 305.000 C 214.325 305.000,215.000 305.675,215.000 306.500 C 215.000 307.433,215.944 308.000,217.500 308.000 C 218.875 308.000,220.000 308.450,220.000 309.000 C 220.000 309.550,221.077 310.000,222.393 310.000 C 223.709 310.000,225.045 310.675,225.362 311.500 C 225.785 312.604,227.530 313.000,231.969 313.000 C 235.323 313.000,238.000 313.444,238.000 314.000 C 238.000 314.593,241.667 315.000,247.000 315.000 C 252.333 315.000,256.000 314.593,256.000 314.000 C 256.000 313.450,258.264 313.000,261.031 313.000 C 264.581 313.000,266.232 312.558,266.638 311.500 C 266.955 310.675,268.291 310.000,269.607 310.000 C 270.923 310.000,272.000 309.550,272.000 309.000 C 272.000 308.450,273.125 308.000,274.500 308.000 C 276.056 308.000,277.000 307.433,277.000 306.500 C 277.000 305.648,277.897 305.000,279.077 305.000 C 281.234 305.000,287.000 299.962,287.000 298.077 C 287.000 297.485,287.482 297.000,288.071 297.000 C 289.456 297.000,292.000 294.456,292.000 293.071 C 292.000 292.482,292.675 292.000,293.500 292.000 C 294.433 292.000,295.000 291.056,295.000 289.500 C 295.000 288.125,295.450 287.000,296.000 287.000 C 296.550 287.000,297.000 285.875,297.000 284.500 C 297.000 282.944,297.567 282.000,298.500 282.000 C 299.415 282.000,300.000 281.067,300.000 279.607 C 300.000 278.291,300.675 276.955,301.500 276.638 C 302.604 276.215,303.000 274.470,303.000 270.031 C 303.000 266.677,303.444 264.000,304.000 264.000 C 304.564 264.000,305.000 261.167,305.000 257.500 C 305.000 253.833,304.564 251.000,304.000 251.000 C 303.436 251.000,303.000 248.167,303.000 244.500 C 303.000 239.389,302.679 238.000,301.500 238.000 C 300.450 238.000,300.000 236.941,300.000 234.469 C 300.000 232.252,299.441 230.723,298.500 230.362 C 297.675 230.045,296.986 229.047,296.968 228.143 C 296.928 226.070,294.643 223.000,293.140 223.000 C 292.513 223.000,292.000 222.065,292.000 220.923 C 292.000 218.504,287.414 213.584,284.211 212.567 C 282.995 212.181,282.000 211.446,282.000 210.933 C 282.000 210.420,281.325 210.000,280.500 210.000 C 279.675 210.000,279.000 209.325,279.000 208.500 C 279.000 207.567,278.056 207.000,276.500 207.000 C 275.125 207.000,274.000 206.550,274.000 206.000 C 274.000 205.450,272.875 205.000,271.500 205.000 C 269.944 205.000,269.000 204.433,269.000 203.500 C 269.000 202.417,267.889 202.000,265.000 202.000 C 262.800 202.000,261.000 201.550,261.000 201.000 C 261.000 200.376,255.167 200.000,245.500 200.000 C 235.833 200.000,230.000 200.376,230.000 201.000 M390.000 201.088 C 390.000 201.590,388.473 202.000,386.607 202.000 C 384.513 202.000,382.994 202.574,382.638 203.500 C 382.322 204.325,381.149 205.000,380.031 205.000 C 378.914 205.000,378.000 205.450,378.000 206.000 C 378.000 206.550,377.325 207.000,376.500 207.000 C 375.675 207.000,375.000 207.675,375.000 208.500 C 375.000 209.805,373.173 210.501,370.750 210.118 C 370.337 210.053,370.000 210.450,370.000 211.000 C 370.000 211.550,369.325 212.000,368.500 212.000 C 367.675 212.000,367.000 212.675,367.000 213.500 C 367.000 214.325,366.325 215.000,365.500 215.000 C 364.675 215.000,364.000 215.511,364.000 216.135 C 364.000 216.760,362.875 218.313,361.500 219.588 C 360.125 220.862,359.000 222.601,359.000 223.452 C 359.000 224.304,358.550 225.000,358.000 225.000 C 357.450 225.000,357.000 226.125,357.000 227.500 C 357.000 229.056,356.433 230.000,355.500 230.000 C 354.512 230.000,354.000 230.988,354.000 232.893 C 354.000 234.542,353.355 236.034,352.500 236.362 C 351.472 236.756,351.000 238.363,351.000 241.469 C 351.000 243.961,350.550 246.000,350.000 246.000 C 349.391 246.000,349.000 250.500,349.000 257.500 C 349.000 263.825,349.391 269.000,349.870 269.000 C 350.348 269.000,350.979 271.123,351.272 273.717 C 351.564 276.312,352.298 278.599,352.902 278.801 C 353.506 279.002,354.000 280.268,354.000 281.615 C 354.000 282.961,354.675 284.322,355.500 284.638 C 356.325 284.955,357.014 285.953,357.032 286.857 C 357.072 288.930,359.357 292.000,360.860 292.000 C 361.487 292.000,362.000 292.482,362.000 293.071 C 362.000 294.456,364.544 297.000,365.929 297.000 C 366.518 297.000,367.000 297.675,367.000 298.500 C 367.000 299.325,367.675 300.000,368.500 300.000 C 369.325 300.000,370.000 300.482,370.000 301.071 C 370.000 302.417,372.529 305.000,373.845 305.000 C 374.389 305.000,374.999 305.497,375.202 306.105 C 375.640 307.419,382.558 309.964,385.750 309.985 C 387.077 309.994,388.000 310.616,388.000 311.500 C 388.000 312.652,389.278 313.000,393.500 313.000 C 396.679 313.000,399.000 313.444,399.000 314.051 C 399.000 314.719,402.104 315.034,407.500 314.915 C 412.175 314.812,416.000 314.339,416.000 313.864 C 416.000 313.389,418.250 313.000,421.000 313.000 C 424.778 313.000,426.000 312.633,426.000 311.500 C 426.000 310.447,427.063 310.000,429.571 310.000 C 431.536 310.000,433.822 309.321,434.652 308.491 C 435.482 307.661,436.578 307.239,437.088 307.554 C 437.597 307.869,438.284 307.423,438.614 306.563 C 438.944 305.704,439.648 305.000,440.178 305.000 C 441.476 305.000,444.000 302.405,444.000 301.071 C 444.000 300.482,445.073 300.000,446.383 300.000 C 447.964 300.000,448.952 299.292,449.316 297.899 C 449.619 296.743,450.345 296.095,450.933 296.458 C 451.562 296.847,452.000 296.243,452.000 294.988 C 452.000 292.724,454.146 290.000,455.929 290.000 C 456.518 290.000,457.000 288.923,457.000 287.607 C 457.000 286.291,457.675 284.955,458.500 284.638 C 459.325 284.322,460.000 282.924,460.000 281.531 C 460.000 280.139,460.450 279.000,461.000 279.000 C 461.550 279.000,462.000 277.411,462.000 275.469 C 462.000 273.252,462.559 271.723,463.500 271.362 C 464.734 270.888,465.000 268.320,465.000 256.893 C 465.000 245.210,464.761 243.000,463.500 243.000 C 462.452 243.000,462.000 241.944,462.000 239.500 C 462.000 237.575,461.577 236.000,461.060 236.000 C 460.544 236.000,459.981 234.313,459.810 232.250 C 459.616 229.905,459.032 228.594,458.250 228.750 C 457.563 228.888,457.000 228.100,457.000 227.000 C 457.000 225.889,456.333 225.000,455.500 225.000 C 454.649 225.000,454.000 224.103,454.000 222.929 C 454.000 220.715,451.836 218.000,450.071 218.000 C 449.482 218.000,449.000 217.325,449.000 216.500 C 449.000 215.675,448.550 215.000,448.000 215.000 C 447.450 215.000,447.000 214.325,447.000 213.500 C 447.000 212.675,446.325 212.000,445.500 212.000 C 444.675 212.000,444.000 211.550,444.000 211.000 C 444.000 210.450,442.875 210.000,441.500 210.000 C 439.944 210.000,439.000 209.433,439.000 208.500 C 439.000 207.675,438.325 207.000,437.500 207.000 C 436.675 207.000,436.000 206.550,436.000 206.000 C 436.000 205.450,434.875 205.000,433.500 205.000 C 431.944 205.000,431.000 204.433,431.000 203.500 C 431.000 202.417,429.889 202.000,427.000 202.000 C 424.800 202.000,423.000 201.533,423.000 200.961 C 423.000 200.280,417.324 199.966,406.500 200.049 C 397.318 200.120,390.000 200.580,390.000 201.088 M76.000 360.451 C 76.000 361.643,74.848 362.000,71.000 362.000 C 68.250 362.000,66.000 362.450,66.000 363.000 C 66.000 363.550,64.411 364.000,62.469 364.000 C 60.252 364.000,58.723 364.559,58.362 365.500 C 58.045 366.325,56.709 367.000,55.393 367.000 C 53.933 367.000,53.000 367.585,53.000 368.500 C 53.000 369.325,52.518 370.000,51.929 370.000 C 50.544 370.000,48.000 372.544,48.000 373.929 C 48.000 374.518,47.520 375.000,46.933 375.000 C 46.346 375.000,44.380 376.575,42.565 378.500 C 40.749 380.425,38.754 382.000,38.132 382.000 C 37.509 382.000,37.000 383.145,37.000 384.544 C 37.000 385.943,35.875 388.301,34.500 389.783 C 33.088 391.306,32.000 393.681,32.000 395.240 C 32.000 396.758,31.550 398.000,31.000 398.000 C 30.450 398.000,30.000 400.264,30.000 403.031 C 30.000 406.581,29.558 408.232,28.500 408.638 C 26.300 409.483,26.300 426.000,28.500 426.000 C 29.633 426.000,30.000 427.222,30.000 431.000 C 30.000 433.750,30.450 436.000,31.000 436.000 C 31.550 436.000,32.000 437.800,32.000 440.000 C 32.000 442.889,32.417 444.000,33.500 444.000 C 34.433 444.000,35.000 444.944,35.000 446.500 C 35.000 447.875,35.450 449.000,36.000 449.000 C 36.550 449.000,37.000 449.675,37.000 450.500 C 37.000 451.325,37.675 452.000,38.500 452.000 C 39.433 452.000,40.000 452.944,40.000 454.500 C 40.000 455.914,40.578 457.000,41.331 457.000 C 42.063 457.000,43.264 458.125,44.000 459.500 C 44.840 461.069,46.206 462.000,47.669 462.000 C 49.074 462.000,50.000 462.596,50.000 463.500 C 50.000 464.325,50.675 465.000,51.500 465.000 C 52.325 465.000,53.000 465.450,53.000 466.000 C 53.000 466.550,54.125 467.000,55.500 467.000 C 57.056 467.000,58.000 467.567,58.000 468.500 C 58.000 469.415,58.933 470.000,60.393 470.000 C 61.709 470.000,63.045 470.675,63.362 471.500 C 63.723 472.441,65.252 473.000,67.469 473.000 C 69.411 473.000,71.000 473.468,71.000 474.041 C 71.000 475.276,100.724 475.255,101.488 474.019 C 101.757 473.583,103.558 472.930,105.489 472.568 C 107.420 472.206,109.000 471.480,109.000 470.955 C 109.000 470.430,110.350 470.000,112.000 470.000 C 114.000 470.000,115.000 469.500,115.000 468.500 C 115.000 467.557,115.951 467.000,117.559 467.000 C 119.010 467.000,119.851 466.567,119.500 466.000 C 119.160 465.450,119.584 465.000,120.441 465.000 C 121.298 465.000,122.000 464.325,122.000 463.500 C 122.000 462.675,122.482 462.000,123.071 462.000 C 124.456 462.000,127.000 459.456,127.000 458.071 C 127.000 457.482,127.675 457.000,128.500 457.000 C 129.325 457.000,130.000 456.325,130.000 455.500 C 130.000 454.675,130.482 454.000,131.071 454.000 C 132.836 454.000,135.000 451.285,135.000 449.071 C 135.000 447.897,135.649 447.000,136.500 447.000 C 137.433 447.000,138.000 446.056,138.000 444.500 C 138.000 443.125,138.450 442.000,139.000 442.000 C 139.550 442.000,140.000 440.200,140.000 438.000 C 140.000 435.111,140.417 434.000,141.500 434.000 C 142.770 434.000,143.000 431.569,143.000 418.122 C 143.000 405.229,142.718 402.011,141.500 401.000 C 140.675 400.315,140.000 398.273,140.000 396.461 C 140.000 394.649,139.530 393.010,138.956 392.819 C 138.381 392.627,137.835 391.465,137.743 390.235 C 137.650 389.006,136.995 388.000,136.287 388.000 C 135.579 388.000,135.000 387.325,135.000 386.500 C 135.000 385.675,134.599 385.000,134.108 385.000 C 133.618 385.000,132.930 383.857,132.579 382.459 C 132.228 381.062,131.505 380.188,130.971 380.518 C 130.437 380.848,130.000 380.191,130.000 379.059 C 130.000 377.927,129.530 377.000,128.956 377.000 C 128.382 377.000,126.699 375.875,125.217 374.500 C 123.734 373.125,121.953 372.000,121.260 372.000 C 120.567 372.000,120.000 371.550,120.000 371.000 C 120.000 370.450,119.325 370.000,118.500 370.000 C 117.675 370.000,117.000 369.325,117.000 368.500 C 117.000 367.567,116.056 367.000,114.500 367.000 C 112.944 367.000,112.000 366.433,112.000 365.500 C 112.000 364.567,111.056 364.000,109.500 364.000 C 108.125 364.000,107.000 363.572,107.000 363.050 C 107.000 362.527,104.412 361.965,101.250 361.800 C 97.664 361.613,95.579 361.076,95.709 360.373 C 95.851 359.607,92.725 359.190,85.959 359.074 C 77.559 358.929,76.000 359.144,76.000 360.451 M236.000 360.500 C 236.000 361.652,234.722 362.000,230.500 362.000 C 227.475 362.000,225.000 362.450,225.000 363.000 C 225.000 363.550,223.875 364.000,222.500 364.000 C 220.944 364.000,220.000 364.567,220.000 365.500 C 220.000 366.433,219.056 367.000,217.500 367.000 C 215.944 367.000,215.000 367.567,215.000 368.500 C 215.000 369.443,214.049 370.000,212.441 370.000 C 210.990 370.000,210.149 370.433,210.500 371.000 C 210.840 371.550,210.191 372.000,209.059 372.000 C 207.927 372.000,207.000 372.482,207.000 373.071 C 207.000 374.456,204.456 377.000,203.071 377.000 C 202.482 377.000,202.000 377.927,202.000 379.059 C 202.000 380.191,201.550 380.840,201.000 380.500 C 200.433 380.149,200.000 380.990,200.000 382.441 C 200.000 384.049,199.443 385.000,198.500 385.000 C 197.675 385.000,197.000 385.482,197.000 386.071 C 197.000 386.661,196.325 387.818,195.500 388.643 C 194.675 389.468,194.000 391.011,194.000 392.071 C 194.000 393.132,193.550 394.000,193.000 394.000 C 192.450 394.000,192.000 395.302,192.000 396.893 C 192.000 398.542,191.355 400.034,190.500 400.362 C 189.250 400.841,189.000 403.697,189.000 417.469 C 189.000 431.497,189.227 434.000,190.500 434.000 C 191.583 434.000,192.000 435.111,192.000 438.000 C 192.000 440.200,192.450 442.000,193.000 442.000 C 193.550 442.000,194.000 443.125,194.000 444.500 C 194.000 446.056,194.567 447.000,195.500 447.000 C 196.433 447.000,197.000 447.944,197.000 449.500 C 197.000 450.875,197.482 452.000,198.071 452.000 C 199.456 452.000,202.000 454.544,202.000 455.929 C 202.000 456.518,202.675 457.000,203.500 457.000 C 204.325 457.000,205.000 457.482,205.000 458.071 C 205.000 459.456,207.544 462.000,208.929 462.000 C 209.518 462.000,210.000 462.675,210.000 463.500 C 210.000 464.325,210.675 465.000,211.500 465.000 C 212.325 465.000,213.000 465.450,213.000 466.000 C 213.000 466.550,214.125 467.000,215.500 467.000 C 217.056 467.000,218.000 467.567,218.000 468.500 C 218.000 469.433,218.944 470.000,220.500 470.000 C 221.875 470.000,223.000 470.410,223.000 470.912 C 223.000 471.414,224.798 472.128,226.995 472.499 C 229.192 472.870,231.243 473.585,231.554 474.087 C 232.341 475.360,261.000 475.276,261.000 474.000 C 261.000 473.450,262.589 473.000,264.531 473.000 C 266.748 473.000,268.277 472.441,268.638 471.500 C 268.955 470.675,270.291 470.000,271.607 470.000 C 273.067 470.000,274.000 469.415,274.000 468.500 C 274.000 467.567,274.944 467.000,276.500 467.000 C 277.875 467.000,279.000 466.550,279.000 466.000 C 279.000 465.450,279.675 465.000,280.500 465.000 C 281.325 465.000,282.000 464.325,282.000 463.500 C 282.000 462.675,282.675 462.000,283.500 462.000 C 284.325 462.000,285.000 461.550,285.000 461.000 C 285.000 460.450,285.675 460.000,286.500 460.000 C 287.325 460.000,288.000 459.523,288.000 458.941 C 288.000 458.359,288.450 458.160,289.000 458.500 C 289.550 458.840,290.000 458.159,290.000 456.988 C 290.000 454.724,292.146 452.000,293.929 452.000 C 294.518 452.000,295.000 451.325,295.000 450.500 C 295.000 449.675,295.450 449.000,296.000 449.000 C 296.550 449.000,297.000 447.875,297.000 446.500 C 297.000 444.944,297.567 444.000,298.500 444.000 C 299.583 444.000,300.000 442.889,300.000 440.000 C 300.000 437.111,300.417 436.000,301.500 436.000 C 302.667 436.000,303.000 434.667,303.000 430.000 C 303.000 426.667,303.444 424.000,304.000 424.000 C 304.556 424.000,305.000 421.333,305.000 418.000 C 305.000 414.667,304.556 412.000,304.000 412.000 C 303.429 412.000,303.000 409.000,303.000 405.000 C 303.000 399.444,302.690 398.000,301.500 398.000 C 300.567 398.000,300.000 397.056,300.000 395.500 C 300.000 393.944,299.433 393.000,298.500 393.000 C 297.567 393.000,297.000 392.056,297.000 390.500 C 297.000 389.125,296.550 388.000,296.000 388.000 C 295.450 388.000,295.000 386.650,295.000 385.000 C 295.000 383.350,294.518 382.000,293.929 382.000 C 292.544 382.000,290.000 379.456,290.000 378.071 C 290.000 377.482,289.518 377.000,288.929 377.000 C 287.544 377.000,285.000 374.456,285.000 373.071 C 285.000 372.482,284.325 372.000,283.500 372.000 C 282.675 372.000,282.000 371.550,282.000 371.000 C 282.000 370.450,280.875 370.000,279.500 370.000 C 277.944 370.000,277.000 369.433,277.000 368.500 C 277.000 367.675,276.373 367.000,275.607 367.000 C 274.841 367.000,273.955 366.325,273.638 365.500 C 273.305 364.632,271.810 364.000,270.090 364.000 C 268.456 364.000,266.840 363.550,266.500 363.000 C 266.160 362.450,263.659 362.000,260.941 362.000 C 257.216 362.000,256.000 361.631,256.000 360.500 C 256.000 359.267,254.222 359.000,246.000 359.000 C 237.778 359.000,236.000 359.267,236.000 360.500 " stroke="none" fill="#000000" fill-rule="evenodd"></path></g></svg>