<svg width="100%" height="100%" viewBox="0 0 1356 1356" version="1.1" xmlns="http://www.w3.org/2000/svg" style="fill-rule:evenodd;clip-rule:evenodd;stroke-linejoin:round;stroke-miterlimit:2;">
	<path fill="currentColor" fill-opacity="0.5" d="M1236,682c0,-0.009 0,-0.018 0,-0.026c0,-32.949 27.113,-60.062 60.062,-60.062c32.949,0 60.062,27.113 60.062,60.062c0,32.949 -27.113,60.062 -60.062,60.062c-6.835,0 -13.62,-1.167 -20.062,-3.45l0,-34.226c5.499,4.918 12.623,7.639 20,7.639c16.458,0 30,-13.542 30,-30c0,-16.457 -13.542,-30 -30,-30c-16.458,0 -30,13.543 -30,30l0,117.001c0,8.279 -6.721,15 -15,15c-8.279,0 -15,-6.721 -15,-15l0,-117Z" style="fill-rule:nonzero;"/>
	<path fill="currentColor" fill-opacity="0.5" d="M1101,682c0,-0.009 0,-0.018 0,-0.026c0,-32.949 27.113,-60.062 60.062,-60.062c32.949,0 60.062,27.113 60.062,60.062c0,32.949 -27.113,60.062 -60.062,60.062c-6.835,0 -13.62,-1.167 -20.062,-3.45l0,-34.226c5.499,4.918 12.623,7.639 20,7.639c16.458,0 30,-13.542 30,-30c0,-16.457 -13.542,-30 -30,-30c-16.458,0 -30,13.543 -30,30l0,117.001c0,8.279 -6.721,15 -15,15c-8.279,0 -15,-6.721 -15,-15l0,-117Z" style="fill-rule:nonzero;"/>
	<path fill="currentColor" fill-opacity="0.5" d="M1056,680.001c-0.001,-16.457 -13.543,-29.999 -30,-29.999c-16.458,0 -30,13.543 -30,30c0,16.458 13.542,30 30,30c7.377,0 14.501,-2.721 20,-7.639l0,34.224c-6.424,2.268 -13.188,3.423 -20,3.414c-32.903,-0.011 -59.972,-27.09 -59.972,-59.993c0,-32.911 27.081,-59.993 59.993,-59.993c32.911,0 59.993,27.082 59.993,59.993c0,0.425 -0.005,0.85 -0.014,1.276l0,43.716c0,8.279 -6.721,15 -15,15c-8.279,0 -15,-6.721 -15,-15l0,-44.999Z" style="fill-rule:nonzero;"/>
	<path fill="currentColor" fill-opacity="0.5" d="M951,725c0,-8.279 -6.721,-15 -15,-15c-8.279,0 -15,6.721 -15,15c0,8.279 6.721,15 15,15c8.279,0 15,-6.721 15,-15Z"/>
	<path fill="currentColor" d="M894.633,729.997c-6.21,5.398 -15.763,4.73 -21.161,-1.48l-45.924,-52.83l22.641,-19.681l45.924,52.829c5.399,6.211 4.731,15.763 -1.48,21.162Zm-85.633,-50.782l0,38.785c0,8.279 -6.721,15 -15,15c-8.279,0 -15,-6.721 -15,-15l0,-170c0,-8.279 6.721,-15 15,-15c8.279,0 15,6.721 15,15l0,91.466l57.047,-49.567c6.249,-5.43 15.731,-4.764 21.161,1.485l0.004,0.004c5.43,6.249 4.764,15.731 -1.485,21.161l-76.727,66.666Z"/>
	<path fill="currentColor" d="M734.575,613.303c8.152,0.146 14.725,6.81 14.725,14.997c0,8.099 -6.433,14.708 -14.464,14.991l0,0.044c-8,0 -21.367,2.788 -27.04,8.461c-5.644,5.606 -8.815,13.245 -8.8,21.2c0,16.307 18.349,29.632 34.716,30.007c0.096,-0.002 0.192,-0.003 0.288,-0.003c8.279,0 15,6.721 15,15c0,8.149 -6.512,14.789 -14.612,14.995l0.003,0.005c-0.087,0 -0.174,0 -0.262,-0.001c-0.043,0.001 -0.086,0.001 -0.129,0.001c-0.123,0 -0.246,-0.002 -0.369,-0.005c-8.148,-0.094 -20.815,-1.678 -27.984,-4.711c-22.162,-9.381 -36.632,-31.219 -36.632,-55.285c0,-24.065 14.47,-45.903 36.632,-55.284c7.394,-3.129 20.826,-4.416 28.928,-4.416l0,0.004Z"/>
	<path fill="currentColor" d="M623.999,672.807c-0.105,-16.369 -13.606,-29.806 -29.999,-29.806c-16.458,0 -30,13.543 -30,30c0,16.458 13.542,30 30,30c7.377,0 14.501,-2.721 20,-7.639l0,34.223c-6.423,2.269 -13.188,3.424 -20,3.416c-32.852,-0.037 -59.864,-27.08 -59.864,-59.932c0,-32.878 27.054,-59.932 59.932,-59.932c32.854,0 59.894,27.016 59.932,59.863l0,0l0,45c0,8.279 -6.721,15 -15,15c-8.279,0 -15,-6.721 -15,-15l0,-45l-0.001,-0.193Z" style="fill-rule:nonzero;"/>
	<path fill="currentColor" d="M460,718l0,-90c0,-8.229 6.771,-15 15,-15l29,0c0.027,0 0.053,0 0.08,0c8.229,0 15,6.771 15,15c0,8.199 -6.721,14.956 -14.92,15l0.84,0c-8.136,0.033 -14.851,6.652 -15,14.787l0,60.213c0,8.229 -6.771,15 -15,15c-8.229,0 -15,-6.771 -15,-15Z" style="fill-rule:nonzero;"/>
	<path fill="currentColor" d="M400,718l0,-155l0,14.787c-0.149,-8.135 -6.864,-14.754 -15,-14.787l-40,0c-8.229,0 -15,-6.771 -15,-15c0,-8.229 6.771,-15 15,-15l70,0c8.229,0 15,6.771 15,15l0,170c0,8.229 -6.771,15 -15,15c-8.229,0 -15,-6.771 -15,-15Z" style="fill-rule:nonzero;"/>
	<g>
		<path fill="currentColor" d="M370,673c0.009,21.414 -11.452,41.269 -30,51.972l0,-51.972c0,-0.001 0,-0.001 0,-0.002c0,-16.457 -13.542,-30 -30,-30c-16.458,0 -30,13.543 -30,30c0,16.458 13.542,30 30,30c7.377,0 14.501,-2.721 20,-7.639l0,34.225c-6.442,2.283 -13.227,3.45 -20.062,3.45c-32.949,0 -60.062,-27.113 -60.062,-60.062c0,-32.949 27.113,-60.062 60.062,-60.062c32.949,0 60.062,27.113 60.062,60.062c0,0.009 0,0.019 0,0.028Z" style="fill-rule:nonzero;"/>
		<path fill="currentColor" d="M370,762.995l0,0.047c0,32.889 -27.064,59.953 -59.953,59.953c-0.016,0 -0.031,0 -0.047,0l0,0.005c-32.851,0.03 -59.92,-26.949 -60,-59.8l0,-0.205c0,-8.229 6.771,-15 15,-15c8.229,0 15,6.771 15,15c0,16.458 13.542,30 30,30c16.458,0 30,-13.542 30,-30l0,-89.995l30,0l0,89.995Z" style="fill-rule:nonzero;"/>
	</g>
	<path fill="currentColor" d="M175,643.001c-16.457,0.001 -29.999,13.543 -29.999,30c0,16.458 13.543,30 30,30c16.458,0 30,-13.542 30,-30c0,-7.377 -2.721,-14.501 -7.639,-20l34.223,0c2.269,6.423 3.424,13.188 3.416,20c-0.037,32.852 -27.08,59.864 -59.932,59.864c-32.878,0 -59.932,-27.054 -59.932,-59.932c0,-32.854 27.016,-59.894 59.863,-59.932l0,0l45,0l0.097,0c8.234,0.052 14.903,6.754 14.903,15c0,8.279 -6.721,15 -15,15c0,0 -45,0 -45,0Z" style="fill-rule:nonzero;"/>
	<path fill="currentColor" d="M85,733l-70,0c-8.229,0 -15,-6.771 -15,-15l0,-170c0,-8.229 6.771,-15 15,-15c8.229,0 15,6.771 15,15l0,140.213c0.15,8.135 6.864,14.754 15,14.787l40,0c8.229,0 15,6.771 15,15c0,8.229 -6.771,15 -15,15Z" style="fill-rule:nonzero;"/>
</svg>