<svg
   xmlns="http://www.w3.org/2000/svg"
  
   height="400"
   width="400"
   version="1.1"
  >
  <g
    >
    <path
       style="fill-rule:evenodd;stroke:none;stroke-width:1.10572755"
       d="M 196.64868,5.4734829 C 189.27458,7.128757 35.396005,133.34203 31.868734,140.62877 c -3.124786,6.45524 -3.066183,14.38331 0.153696,20.69591 3.197764,6.27058 3.758368,6.35351 9.470557,1.39211 l 4.770108,-4.14316 -1.905168,-3.7838 c -1.672966,-3.32161 -1.716089,-4.12105 -0.348304,-6.54923 2.126314,-3.77606 154.453557,-128.435782 156.940337,-128.435782 2.47683,0 -0.22336,-2.144006 84.00765,66.714072 82.07484,67.09555 77.96706,63.16579 72.41631,69.29926 -1.506,1.66523 6.86767,11.04843 9.85977,11.04843 3.77053,0 6.97383,-15.84507 4.62968,-22.90183 -2.45139,-7.37741 -0.96419,-6.06823 -84.87786,-74.739439 C 203.43121,0.84822447 206.76719,3.2023185 196.64868,5.4734829 M 192.3662,56.017395 C 182.02101,61.664346 34.119995,184.6301 31.726095,189.57602 c -4.101143,8.46987 -1.705032,23.93347 3.957399,25.54562 3.542751,1.00953 10.484509,-8.01321 8.785006,-11.41995 -3.000945,-6.01627 -2.460244,-6.51937 76.21117,-70.96007 83.45036,-68.357184 79.91424,-65.760936 84.74074,-62.192753 7.05012,5.2124 150.92739,123.215643 152.23879,124.860963 2.46024,3.0872 1.60662,7.30002 -2.21146,10.91022 -14.85545,14.05048 -151.75005,124.192 -154.33745,124.17542 -2.24131,-0.0144 -17.29911,-11.76605 -62.50015,-48.77696 -54.46703,-44.59842 -59.750196,-48.6487 -61.920739,-47.46778 -4.12547,2.24573 -9.905108,8.0132 -8.771737,8.75294 0.599304,0.39142 28.079951,22.85317 61.070436,49.91586 65.99093,54.13531 65.16385,53.54375 73.81285,52.82613 7.40174,-0.61368 -1.13337,5.90016 88.69262,-67.69706 75.52561,-61.87984 78.67362,-64.72045 80.94589,-73.02889 3.90874,-14.29705 6.55475,-11.5836 -82.19094,-84.28961 C 199.85308,46.671786 204.21185,49.552206 192.3662,56.017395 m 0.26316,48.582355 c -9.17533,4.91496 -158.675224,129.02403 -160.862353,133.54203 -2.961138,6.11689 -2.946764,15.01025 0.03428,21.16805 2.240204,4.62747 150.910803,128.15604 160.553853,133.40161 4.87183,2.65043 13.669,2.52327 18.23897,-0.26206 6.2551,-3.81365 155.88769,-126.96406 158.17433,-130.17952 5.4623,-7.68149 5.59941,-19.85112 0.30408,-26.77851 l -2.05997,-2.69465 -5.64474,4.30349 c -6.18102,4.71482 -6.42096,5.14605 -3.98504,7.16732 2.82292,2.34304 1.98588,6.99262 -1.93503,10.74878 -6.11246,5.85483 -148.27032,121.98387 -151.30444,123.60154 -4.24157,2.26122 -1.86979,4.04697 -84.26418,-63.45328 C 46.561642,255.09922 42.331128,251.28888 43.594975,246.45464 44.167742,244.26309 192.7532,121.66555 198.36256,118.75527 c 4.15974,-2.15838 3.03854,-2.95561 50.55386,35.94831 51.28586,41.99111 44.24458,37.59363 50.86789,31.76534 l 5.38489,-4.73694 -46.58651,-38.11664 c -25.62192,-20.96459 -47.95762,-38.71594 -49.635,-39.44904 -4.30128,-1.87863 -12.40295,-1.66412 -16.31833,0.43345 m 71.87229,127.66288 c -63.81928,52.52869 -63.40684,52.21245 -66.661,51.00832 -1.28154,-0.47325 -22.27598,-17.18412 -46.65507,-37.13476 l -44.32419,-36.27339 -4.21614,3.3393 c -2.31871,1.83661 -4.815444,4.06133 -5.548541,4.94481 -1.345671,1.6221 85.138811,74.12576 93.701561,78.5542 4.48926,2.32093 13.15484,2.22804 17.54237,-0.18797 3.65996,-2.01574 125.1573,-101.03254 125.16062,-102.00337 0.004,-0.97193 -10.34297,-8.84914 -11.49735,-8.75404 -0.61037,0.0509 -26.4866,20.97897 -57.50226,46.5069"
       />
  </g>
</svg>
