<svg id="svg" version="1.1" width="400" height="400" xmlns="http://www.w3.org/2000/svg" xmlns:xlink="http://www.w3.org/1999/xlink" style="display: block;"><g id="svgg"><path id="path0" d="M193.000 16.500 C 193.000 17.448,192.045 18.000,190.406 18.000 C 188.654 18.000,187.643 18.649,187.290 20.000 C 186.897 21.503,185.926 22.000,183.383 22.000 C 181.169 22.000,180.000 22.478,180.000 23.383 C 180.000 24.144,179.100 25.002,178.000 25.290 C 176.900 25.577,176.000 26.530,176.000 27.406 C 176.000 28.510,175.078 29.000,173.000 29.000 C 171.000 29.000,170.000 29.500,170.000 30.500 C 170.000 31.548,168.944 32.000,166.500 32.000 C 164.056 32.000,163.000 32.452,163.000 33.500 C 163.000 34.548,161.944 35.000,159.500 35.000 C 156.667 35.000,156.000 35.381,156.000 37.000 C 156.000 38.111,155.333 39.000,154.500 39.000 C 153.675 39.000,153.000 39.675,153.000 40.500 C 153.000 41.548,151.944 42.000,149.500 42.000 C 147.056 42.000,146.000 42.452,146.000 43.500 C 146.000 44.500,145.000 45.000,143.000 45.000 C 140.667 45.000,140.000 45.444,140.000 47.000 C 140.000 48.333,139.333 49.000,138.000 49.000 C 136.889 49.000,136.000 49.667,136.000 50.500 C 136.000 51.548,134.944 52.000,132.500 52.000 C 130.056 52.000,129.000 52.452,129.000 53.500 C 129.000 54.500,128.000 55.000,126.000 55.000 C 123.667 55.000,123.000 55.444,123.000 57.000 C 123.000 58.333,122.333 59.000,121.000 59.000 C 119.889 59.000,119.000 59.667,119.000 60.500 C 119.000 61.500,118.000 62.000,116.000 62.000 C 113.667 62.000,113.000 62.444,113.000 64.000 C 113.000 65.619,112.333 66.000,109.500 66.000 C 107.056 66.000,106.000 66.452,106.000 67.500 C 106.000 68.325,105.325 69.000,104.500 69.000 C 103.675 69.000,103.000 69.675,103.000 70.500 C 103.000 71.548,101.944 72.000,99.500 72.000 C 96.667 72.000,96.000 72.381,96.000 74.000 C 96.000 75.619,95.333 76.000,92.500 76.000 C 90.056 76.000,89.000 76.452,89.000 77.500 C 89.000 78.325,88.325 79.000,87.500 79.000 C 86.675 79.000,86.000 79.675,86.000 80.500 C 86.000 81.548,84.944 82.000,82.500 82.000 C 79.667 82.000,79.000 82.381,79.000 84.000 C 79.000 85.111,78.333 86.000,77.500 86.000 C 76.500 86.000,76.000 87.000,76.000 89.000 L 76.000 92.000 148.000 92.000 C 219.333 92.000,220.000 92.019,220.000 94.000 C 220.000 95.843,220.667 96.000,228.500 96.000 C 235.389 96.000,237.000 96.284,237.000 97.500 C 237.000 98.548,238.056 99.000,240.500 99.000 C 242.976 99.000,244.000 99.448,244.000 100.531 C 244.000 101.374,244.675 102.322,245.500 102.638 C 246.325 102.955,247.000 103.841,247.000 104.607 C 247.000 105.373,247.675 106.000,248.500 106.000 C 249.325 106.000,250.000 106.675,250.000 107.500 C 250.000 108.333,250.889 109.000,252.000 109.000 C 253.333 109.000,254.000 109.667,254.000 111.000 C 254.000 112.111,254.667 113.000,255.500 113.000 C 256.633 113.000,257.000 114.222,257.000 118.000 C 257.000 122.333,257.267 123.000,259.000 123.000 C 260.843 123.000,261.000 123.667,261.000 131.500 C 261.000 139.333,260.843 140.000,259.000 140.000 C 257.267 140.000,257.000 140.667,257.000 145.000 C 257.000 148.778,256.633 150.000,255.500 150.000 C 254.675 150.000,254.000 150.675,254.000 151.500 C 254.000 152.333,253.111 153.000,252.000 153.000 C 250.889 153.000,250.000 153.667,250.000 154.500 C 250.000 155.325,249.325 156.000,248.500 156.000 C 247.667 156.000,247.000 156.889,247.000 158.000 C 247.000 159.733,246.333 160.000,242.000 160.000 C 238.222 160.000,237.000 160.367,237.000 161.500 C 237.000 162.716,235.389 163.000,228.500 163.000 C 221.611 163.000,220.000 163.284,220.000 164.500 C 220.000 165.810,214.500 166.000,176.500 166.000 L 133.000 166.000 133.000 191.500 L 133.000 217.000 197.000 217.000 C 253.222 217.000,261.000 217.182,261.000 218.500 C 261.000 219.677,262.376 220.000,267.383 220.000 C 272.926 220.000,273.836 220.263,274.290 222.000 C 274.717 223.634,275.654 224.000,279.406 224.000 C 282.823 224.000,284.000 224.384,284.000 225.500 C 284.000 226.325,284.675 227.000,285.500 227.000 C 286.325 227.000,287.000 227.675,287.000 228.500 C 287.000 229.333,287.889 230.000,289.000 230.000 C 290.333 230.000,291.000 230.667,291.000 232.000 C 291.000 233.111,291.667 234.000,292.500 234.000 C 293.633 234.000,294.000 235.222,294.000 239.000 C 294.000 242.778,294.367 244.000,295.500 244.000 C 296.716 244.000,297.000 245.611,297.000 252.500 C 297.000 259.389,296.716 261.000,295.500 261.000 C 294.500 261.000,294.000 262.000,294.000 264.000 C 294.000 266.000,293.500 267.000,292.500 267.000 C 291.452 267.000,291.000 268.056,291.000 270.500 C 291.000 273.333,290.619 274.000,289.000 274.000 C 287.205 274.000,287.000 274.667,287.000 280.500 L 287.000 287.000 290.500 287.000 C 292.944 287.000,294.000 286.548,294.000 285.500 C 294.000 284.204,297.667 284.000,321.000 284.000 L 348.000 284.000 348.000 280.500 C 348.000 278.056,348.452 277.000,349.500 277.000 C 350.793 277.000,351.000 273.556,351.000 252.000 C 351.000 230.444,350.793 227.000,349.500 227.000 C 348.452 227.000,348.000 225.944,348.000 223.500 C 348.000 221.056,347.548 220.000,346.500 220.000 C 345.490 220.000,345.000 218.990,345.000 216.906 C 345.000 214.654,344.456 213.671,343.000 213.290 C 341.583 212.919,341.000 211.926,341.000 209.883 C 341.000 207.987,340.487 207.000,339.500 207.000 C 338.667 207.000,338.000 206.111,338.000 205.000 C 338.000 203.667,337.333 203.000,336.000 203.000 C 334.444 203.000,334.000 202.333,334.000 200.000 C 334.000 198.000,333.500 197.000,332.500 197.000 C 331.667 197.000,331.000 196.111,331.000 195.000 C 331.000 193.889,330.333 193.000,329.500 193.000 C 328.675 193.000,328.000 192.325,328.000 191.500 C 328.000 190.452,326.944 190.000,324.500 190.000 C 322.056 190.000,321.000 189.548,321.000 188.500 C 321.000 187.675,320.325 187.000,319.500 187.000 C 318.667 187.000,318.000 186.111,318.000 185.000 C 318.000 183.667,317.333 183.000,316.000 183.000 C 314.889 183.000,314.000 182.333,314.000 181.500 C 314.000 180.513,313.013 180.000,311.117 180.000 C 309.074 180.000,308.081 179.417,307.710 178.000 C 307.329 176.544,306.346 176.000,304.094 176.000 C 302.010 176.000,301.000 175.510,301.000 174.500 C 301.000 173.675,301.675 173.000,302.500 173.000 C 303.548 173.000,304.000 171.944,304.000 169.500 C 304.000 166.667,304.381 166.000,306.000 166.000 C 307.733 166.000,308.000 165.333,308.000 161.000 C 308.000 157.222,308.367 156.000,309.500 156.000 C 310.791 156.000,311.000 152.722,311.000 132.500 C 311.000 112.278,310.791 109.000,309.500 109.000 C 308.367 109.000,308.000 107.778,308.000 104.000 C 308.000 99.667,307.733 99.000,306.000 99.000 C 304.381 99.000,304.000 98.333,304.000 95.500 C 304.000 93.056,303.548 92.000,302.500 92.000 C 301.500 92.000,301.000 91.000,301.000 89.000 C 301.000 86.667,300.556 86.000,299.000 86.000 C 297.381 86.000,297.000 85.333,297.000 82.500 C 297.000 80.056,296.548 79.000,295.500 79.000 C 294.675 79.000,294.000 78.325,294.000 77.500 C 294.000 76.675,293.325 76.000,292.500 76.000 C 291.452 76.000,291.000 74.944,291.000 72.500 C 291.000 69.667,290.619 69.000,289.000 69.000 C 287.889 69.000,287.000 68.333,287.000 67.500 C 287.000 66.675,286.325 66.000,285.500 66.000 C 284.667 66.000,284.000 65.111,284.000 64.000 C 284.000 62.889,283.333 62.000,282.500 62.000 C 281.675 62.000,281.000 61.325,281.000 60.500 C 281.000 59.452,279.944 59.000,277.500 59.000 C 275.024 59.000,274.000 58.552,274.000 57.469 C 274.000 56.626,273.325 55.678,272.500 55.362 C 271.675 55.045,271.000 54.159,271.000 53.393 C 271.000 52.468,269.825 52.000,267.500 52.000 C 265.056 52.000,264.000 51.548,264.000 50.500 C 264.000 49.452,262.944 49.000,260.500 49.000 C 257.667 49.000,257.000 48.619,257.000 47.000 C 257.000 45.205,256.333 45.000,250.500 45.000 C 245.389 45.000,244.000 44.679,244.000 43.500 C 244.000 42.215,241.056 42.000,223.500 42.000 L 203.000 42.000 203.000 28.500 L 203.000 15.000 198.000 15.000 C 194.222 15.000,193.000 15.367,193.000 16.500 M72.000 218.500 L 72.000 338.000 134.480 338.000 L 196.961 338.000 197.230 359.750 L 197.500 381.500 201.405 381.820 C 206.567 382.242,210.000 381.308,210.000 379.481 C 210.000 378.666,210.675 378.000,211.500 378.000 C 212.325 378.000,213.000 377.325,213.000 376.500 C 213.000 375.452,214.056 375.000,216.500 375.000 C 219.333 375.000,220.000 374.619,220.000 373.000 C 220.000 371.667,220.667 371.000,222.000 371.000 C 223.111 371.000,224.000 370.333,224.000 369.500 C 224.000 368.500,225.000 368.000,227.000 368.000 C 229.000 368.000,230.000 367.500,230.000 366.500 C 230.000 365.452,231.056 365.000,233.500 365.000 C 236.333 365.000,237.000 364.619,237.000 363.000 C 237.000 361.889,237.667 361.000,238.500 361.000 C 239.325 361.000,240.000 360.325,240.000 359.500 C 240.000 358.452,241.056 358.000,243.500 358.000 C 245.944 358.000,247.000 357.548,247.000 356.500 C 247.000 355.675,247.675 355.000,248.500 355.000 C 249.333 355.000,250.000 354.111,250.000 353.000 C 250.000 351.381,250.667 351.000,253.500 351.000 C 255.944 351.000,257.000 350.548,257.000 349.500 C 257.000 348.452,258.056 348.000,260.500 348.000 C 262.944 348.000,264.000 347.548,264.000 346.500 C 264.000 345.675,264.675 345.000,265.500 345.000 C 266.333 345.000,267.000 344.111,267.000 343.000 C 267.000 341.381,267.667 341.000,270.500 341.000 C 272.944 341.000,274.000 340.548,274.000 339.500 C 274.000 338.675,274.675 338.000,275.500 338.000 C 276.333 338.000,277.000 337.111,277.000 336.000 C 277.000 334.381,277.667 334.000,280.500 334.000 C 282.944 334.000,284.000 333.548,284.000 332.500 C 284.000 331.452,285.056 331.000,287.500 331.000 C 289.944 331.000,291.000 330.548,291.000 329.500 C 291.000 328.675,291.675 328.000,292.500 328.000 C 293.333 328.000,294.000 327.111,294.000 326.000 C 294.000 324.381,294.667 324.000,297.500 324.000 C 299.944 324.000,301.000 323.548,301.000 322.500 C 301.000 321.675,301.675 321.000,302.500 321.000 C 303.325 321.000,304.000 320.325,304.000 319.500 C 304.000 318.452,305.056 318.000,307.500 318.000 C 310.333 318.000,311.000 317.619,311.000 316.000 C 311.000 314.381,311.667 314.000,314.500 314.000 C 316.944 314.000,318.000 313.548,318.000 312.500 C 318.000 311.675,318.675 311.000,319.500 311.000 C 320.325 311.000,321.000 310.325,321.000 309.500 C 321.000 308.490,322.010 308.000,324.094 308.000 C 326.346 308.000,327.329 307.456,327.710 306.000 C 327.998 304.900,328.856 304.000,329.617 304.000 C 330.377 304.000,331.000 303.325,331.000 302.500 C 331.000 301.452,332.056 301.000,334.500 301.000 C 337.333 301.000,338.000 300.619,338.000 299.000 C 338.000 297.889,338.667 297.000,339.500 297.000 C 340.500 297.000,341.000 296.000,341.000 294.000 L 341.000 291.000 235.000 291.000 L 129.000 291.000 129.000 195.000 L 129.000 99.000 100.500 99.000 L 72.000 99.000 72.000 218.500 " stroke="none" fill="#000000" fill-rule="evenodd"></path></g></svg>