<svg id="svg" version="1.1" width="400" height="400" viewBox="0 0 400 400" xmlns="http://www.w3.org/2000/svg" xmlns:xlink="http://www.w3.org/1999/xlink" ><g id="svgg"><path id="path0" d="M235.873 48.260 C 235.723 48.410,235.600 49.403,235.600 50.467 L 235.600 52.400 227.400 52.400 L 219.200 52.400 219.200 54.392 L 219.200 56.384 210.900 56.492 L 202.600 56.600 202.479 58.700 L 202.358 60.800 193.979 60.800 L 185.600 60.800 185.600 62.800 L 185.600 64.800 177.400 64.800 L 169.200 64.800 169.200 67.000 L 169.200 69.200 160.800 69.200 L 152.400 69.200 152.400 71.192 L 152.400 73.184 144.100 73.292 L 135.800 73.400 135.678 75.300 L 135.556 77.200 127.378 77.200 L 119.200 77.200 119.200 79.400 L 119.200 81.600 110.800 81.600 L 102.400 81.600 102.400 83.592 L 102.400 85.584 94.100 85.692 L 85.800 85.800 85.679 87.900 L 85.558 90.000 77.379 90.000 L 69.200 90.000 69.200 91.992 L 69.200 93.984 60.900 94.092 L 52.600 94.200 52.478 96.092 L 52.357 97.984 44.078 98.092 L 35.800 98.200 35.679 100.300 L 35.558 102.400 33.579 102.400 L 31.600 102.400 31.600 104.379 L 31.600 106.358 29.500 106.479 L 27.400 106.600 27.290 112.900 L 27.180 119.200 25.190 119.200 L 23.200 119.200 23.200 125.400 L 23.200 131.600 21.200 131.600 L 19.200 131.600 19.200 135.800 L 19.200 140.000 16.998 140.000 L 14.795 140.000 14.898 173.100 L 15.000 206.200 17.100 206.321 L 19.200 206.442 19.200 216.821 L 19.200 227.200 21.178 227.200 L 23.156 227.200 23.278 229.100 L 23.400 231.000 25.286 231.121 L 27.172 231.243 27.286 235.321 L 27.400 239.400 29.500 239.521 L 31.600 239.642 31.600 241.621 L 31.600 243.600 33.579 243.600 L 35.558 243.600 35.679 245.700 L 35.800 247.800 37.900 247.921 L 40.000 248.042 40.000 252.221 L 40.000 256.400 41.978 256.400 L 43.956 256.400 44.078 258.300 L 44.200 260.200 46.100 260.322 L 48.000 260.444 48.000 262.422 L 48.000 264.400 50.200 264.400 L 52.400 264.400 52.400 268.600 L 52.400 272.800 62.798 272.800 L 73.195 272.800 73.298 304.100 L 73.400 335.400 75.279 335.521 L 77.158 335.642 77.279 337.521 L 77.400 339.400 79.500 339.521 L 81.600 339.642 81.600 341.621 L 81.600 343.600 83.579 343.600 L 85.558 343.600 85.679 345.700 L 85.800 347.800 93.900 347.908 L 102.000 348.017 102.000 337.608 L 102.000 327.200 100.022 327.200 L 98.044 327.200 97.922 325.300 L 97.800 323.400 95.700 323.279 L 93.600 323.158 93.600 297.979 L 93.600 272.800 104.198 272.800 L 114.795 272.800 114.898 304.100 L 115.000 335.400 117.100 335.521 L 119.200 335.642 119.200 337.621 L 119.200 339.600 121.200 339.600 L 123.200 339.600 123.200 341.600 L 123.200 343.600 125.179 343.600 L 127.158 343.600 127.279 345.700 L 127.400 347.800 135.500 347.908 L 143.600 348.017 143.600 337.608 L 143.600 327.200 141.622 327.200 L 139.644 327.200 139.522 325.300 L 139.400 323.400 137.500 323.278 L 135.600 323.156 135.600 297.978 L 135.600 272.800 166.798 272.800 L 197.995 272.800 198.098 304.100 L 198.200 335.400 200.279 335.520 L 202.358 335.640 202.479 337.520 L 202.600 339.400 204.500 339.522 L 206.400 339.644 206.400 341.622 L 206.400 343.600 208.600 343.600 L 210.800 343.600 210.800 345.808 L 210.800 348.017 218.900 347.908 L 227.000 347.800 227.000 337.600 L 227.000 327.400 224.900 327.279 L 222.800 327.158 222.800 325.179 L 222.800 323.200 220.800 323.200 L 218.800 323.200 218.800 298.000 L 218.800 272.800 229.400 272.800 L 240.000 272.800 240.000 304.200 L 240.000 335.600 241.978 335.600 L 243.956 335.600 244.078 337.500 L 244.200 339.400 246.100 339.522 L 248.000 339.644 248.000 341.622 L 248.000 343.600 250.179 343.600 L 252.358 343.600 252.479 345.700 L 252.600 347.800 260.600 347.800 L 268.600 347.800 268.600 337.600 L 268.600 327.400 266.500 327.279 L 264.400 327.158 264.400 325.179 L 264.400 323.200 262.400 323.200 L 260.400 323.200 260.400 298.000 L 260.400 272.800 275.000 272.800 L 289.600 272.800 289.600 268.600 L 289.600 264.400 291.600 264.400 L 293.600 264.400 293.600 262.421 L 293.600 260.442 295.700 260.321 L 297.800 260.200 297.922 258.300 L 298.044 256.400 300.022 256.400 L 302.000 256.400 302.000 252.221 L 302.000 248.042 304.100 247.921 L 306.200 247.800 306.321 245.700 L 306.442 243.600 308.421 243.600 L 310.400 243.600 310.400 239.600 L 310.400 235.600 312.400 235.600 L 314.400 235.600 314.400 233.421 L 314.400 231.242 316.500 231.121 L 318.600 231.000 318.722 229.100 L 318.844 227.200 320.822 227.200 L 322.800 227.200 322.800 223.021 L 322.800 218.842 324.900 218.721 L 327.000 218.600 327.121 216.500 L 327.242 214.400 329.221 214.400 L 331.200 214.400 331.200 210.421 L 331.200 206.442 333.300 206.321 L 335.400 206.200 335.521 204.100 L 335.642 202.000 337.621 202.000 L 339.600 202.000 339.600 200.000 L 339.600 198.000 341.600 198.000 L 343.600 198.000 343.600 193.821 L 343.600 189.642 345.700 189.521 L 347.800 189.400 347.922 187.500 L 348.044 185.600 350.022 185.600 L 352.000 185.600 352.000 181.421 L 352.000 177.242 354.100 177.121 L 356.200 177.000 356.321 174.900 L 356.442 172.800 358.421 172.800 L 360.400 172.800 360.400 168.600 L 360.400 164.400 362.400 164.400 L 364.400 164.400 364.400 162.421 L 364.400 160.442 366.500 160.321 L 368.600 160.200 368.722 158.300 L 368.844 156.400 370.822 156.400 L 372.800 156.400 372.800 152.221 L 372.800 148.042 374.900 147.921 L 377.000 147.800 377.000 141.800 L 377.000 135.800 374.900 135.679 L 372.800 135.558 372.800 133.579 L 372.800 131.600 368.600 131.600 L 364.400 131.600 364.400 129.400 L 364.400 127.200 362.422 127.200 L 360.444 127.200 360.322 125.300 L 360.200 123.400 356.100 123.286 L 352.000 123.172 352.000 121.186 L 352.000 119.200 350.021 119.200 L 348.042 119.200 347.921 117.100 L 347.800 115.000 345.700 114.879 L 343.600 114.758 343.600 112.779 L 343.600 110.800 339.621 110.800 L 335.642 110.800 335.521 108.700 L 335.400 106.600 333.321 106.480 L 331.242 106.360 331.121 104.480 L 331.000 102.600 329.120 102.479 L 327.240 102.358 327.120 100.279 L 327.000 98.200 322.921 98.086 L 318.843 97.972 318.721 96.086 L 318.600 94.200 316.500 94.079 L 314.400 93.958 314.400 91.979 L 314.400 90.000 312.421 90.000 L 310.442 90.000 310.321 87.900 L 310.200 85.800 306.100 85.686 L 302.000 85.572 302.000 83.586 L 302.000 81.600 300.021 81.600 L 298.042 81.600 297.921 79.500 L 297.800 77.400 293.721 77.286 L 289.643 77.172 289.521 75.286 L 289.400 73.400 287.500 73.278 L 285.600 73.156 285.600 71.178 L 285.600 69.200 283.421 69.200 L 281.242 69.200 281.121 67.100 L 281.000 65.000 276.900 64.886 L 272.800 64.772 272.800 62.786 L 272.800 60.800 270.821 60.800 L 268.842 60.800 268.721 58.700 L 268.600 56.600 266.500 56.479 L 264.400 56.358 264.400 54.379 L 264.400 52.400 260.421 52.400 L 256.442 52.400 256.321 50.300 L 256.200 48.200 246.173 48.093 C 240.659 48.035,236.024 48.110,235.873 48.260 " stroke="none" fill="#000000" fill-rule="evenodd"></path><path id="path1" d="M235.873 48.260 C 235.723 48.410,235.600 49.403,235.600 50.467 L 235.600 52.400 227.400 52.400 L 219.200 52.400 219.200 54.392 L 219.200 56.384 210.900 56.492 L 202.600 56.600 202.479 58.700 L 202.358 60.800 193.979 60.800 L 185.600 60.800 185.600 62.800 L 185.600 64.800 177.400 64.800 L 169.200 64.800 169.200 67.000 L 169.200 69.200 160.800 69.200 L 152.400 69.200 152.400 71.192 L 152.400 73.184 144.100 73.292 L 135.800 73.400 135.678 75.300 L 135.556 77.200 127.378 77.200 L 119.200 77.200 119.200 79.400 L 119.200 81.600 110.800 81.600 L 102.400 81.600 102.400 83.592 L 102.400 85.584 94.100 85.692 L 85.800 85.800 85.679 87.900 L 85.558 90.000 77.379 90.000 L 69.200 90.000 69.200 91.992 L 69.200 93.984 60.900 94.092 L 52.600 94.200 52.478 96.092 L 52.357 97.984 44.078 98.092 L 35.800 98.200 35.679 100.300 L 35.558 102.400 33.579 102.400 L 31.600 102.400 31.600 104.379 L 31.600 106.358 29.500 106.479 L 27.400 106.600 27.290 112.900 L 27.180 119.200 25.190 119.200 L 23.200 119.200 23.200 125.400 L 23.200 131.600 21.200 131.600 L 19.200 131.600 19.200 135.800 L 19.200 140.000 16.998 140.000 L 14.795 140.000 14.898 173.100 L 15.000 206.200 17.100 206.321 L 19.200 206.442 19.200 216.821 L 19.200 227.200 21.178 227.200 L 23.156 227.200 23.278 229.100 L 23.400 231.000 25.286 231.121 L 27.172 231.243 27.286 235.321 L 27.400 239.400 29.500 239.521 L 31.600 239.642 31.600 241.621 L 31.600 243.600 33.579 243.600 L 35.558 243.600 35.679 245.700 L 35.800 247.800 37.900 247.921 L 40.000 248.042 40.000 252.221 L 40.000 256.400 41.978 256.400 L 43.956 256.400 44.078 258.300 L 44.200 260.200 46.100 260.322 L 48.000 260.444 48.000 262.422 L 48.000 264.400 50.200 264.400 L 52.400 264.400 52.400 268.600 L 52.400 272.800 62.798 272.800 L 73.195 272.800 73.298 304.100 L 73.400 335.400 75.279 335.521 L 77.158 335.642 77.279 337.521 L 77.400 339.400 79.500 339.521 L 81.600 339.642 81.600 341.621 L 81.600 343.600 83.579 343.600 L 85.558 343.600 85.679 345.700 L 85.800 347.800 93.900 347.908 L 102.000 348.017 102.000 337.608 L 102.000 327.200 100.022 327.200 L 98.044 327.200 97.922 325.300 L 97.800 323.400 95.700 323.279 L 93.600 323.158 93.600 297.979 L 93.600 272.800 104.198 272.800 L 114.795 272.800 114.898 304.100 L 115.000 335.400 117.100 335.521 L 119.200 335.642 119.200 337.621 L 119.200 339.600 121.200 339.600 L 123.200 339.600 123.200 341.600 L 123.200 343.600 125.179 343.600 L 127.158 343.600 127.279 345.700 L 127.400 347.800 135.500 347.908 L 143.600 348.017 143.600 337.608 L 143.600 327.200 141.622 327.200 L 139.644 327.200 139.522 325.300 L 139.400 323.400 137.500 323.278 L 135.600 323.156 135.600 297.978 L 135.600 272.800 166.798 272.800 L 197.995 272.800 198.098 304.100 L 198.200 335.400 200.279 335.520 L 202.358 335.640 202.479 337.520 L 202.600 339.400 204.500 339.522 L 206.400 339.644 206.400 341.622 L 206.400 343.600 208.600 343.600 L 210.800 343.600 210.800 345.808 L 210.800 348.017 218.900 347.908 L 227.000 347.800 227.000 337.600 L 227.000 327.400 224.900 327.279 L 222.800 327.158 222.800 325.179 L 222.800 323.200 220.800 323.200 L 218.800 323.200 218.800 298.000 L 218.800 272.800 229.400 272.800 L 240.000 272.800 240.000 304.200 L 240.000 335.600 241.978 335.600 L 243.956 335.600 244.078 337.500 L 244.200 339.400 246.100 339.522 L 248.000 339.644 248.000 341.622 L 248.000 343.600 250.179 343.600 L 252.358 343.600 252.479 345.700 L 252.600 347.800 260.600 347.800 L 268.600 347.800 268.600 337.600 L 268.600 327.400 266.500 327.279 L 264.400 327.158 264.400 325.179 L 264.400 323.200 262.400 323.200 L 260.400 323.200 260.400 298.000 L 260.400 272.800 275.000 272.800 L 289.600 272.800 289.600 268.600 L 289.600 264.400 291.600 264.400 L 293.600 264.400 293.600 262.421 L 293.600 260.442 295.700 260.321 L 297.800 260.200 297.922 258.300 L 298.044 256.400 300.022 256.400 L 302.000 256.400 302.000 252.221 L 302.000 248.042 304.100 247.921 L 306.200 247.800 306.321 245.700 L 306.442 243.600 308.421 243.600 L 310.400 243.600 310.400 239.600 L 310.400 235.600 312.400 235.600 L 314.400 235.600 314.400 233.421 L 314.400 231.242 316.500 231.121 L 318.600 231.000 318.722 229.100 L 318.844 227.200 320.822 227.200 L 322.800 227.200 322.800 223.021 L 322.800 218.842 324.900 218.721 L 327.000 218.600 327.121 216.500 L 327.242 214.400 329.221 214.400 L 331.200 214.400 331.200 210.421 L 331.200 206.442 333.300 206.321 L 335.400 206.200 335.521 204.100 L 335.642 202.000 337.621 202.000 L 339.600 202.000 339.600 200.000 L 339.600 198.000 341.600 198.000 L 343.600 198.000 343.600 193.821 L 343.600 189.642 345.700 189.521 L 347.800 189.400 347.922 187.500 L 348.044 185.600 350.022 185.600 L 352.000 185.600 352.000 181.421 L 352.000 177.242 354.100 177.121 L 356.200 177.000 356.321 174.900 L 356.442 172.800 358.421 172.800 L 360.400 172.800 360.400 168.600 L 360.400 164.400 362.400 164.400 L 364.400 164.400 364.400 162.421 L 364.400 160.442 366.500 160.321 L 368.600 160.200 368.722 158.300 L 368.844 156.400 370.822 156.400 L 372.800 156.400 372.800 152.221 L 372.800 148.042 374.900 147.921 L 377.000 147.800 377.000 141.800 L 377.000 135.800 374.900 135.679 L 372.800 135.558 372.800 133.579 L 372.800 131.600 368.600 131.600 L 364.400 131.600 364.400 129.400 L 364.400 127.200 362.422 127.200 L 360.444 127.200 360.322 125.300 L 360.200 123.400 356.100 123.286 L 352.000 123.172 352.000 121.186 L 352.000 119.200 350.021 119.200 L 348.042 119.200 347.921 117.100 L 347.800 115.000 345.700 114.879 L 343.600 114.758 343.600 112.779 L 343.600 110.800 339.621 110.800 L 335.642 110.800 335.521 108.700 L 335.400 106.600 333.321 106.480 L 331.242 106.360 331.121 104.480 L 331.000 102.600 329.120 102.479 L 327.240 102.358 327.120 100.279 L 327.000 98.200 322.921 98.086 L 318.843 97.972 318.721 96.086 L 318.600 94.200 316.500 94.079 L 314.400 93.958 314.400 91.979 L 314.400 90.000 312.421 90.000 L 310.442 90.000 310.321 87.900 L 310.200 85.800 306.100 85.686 L 302.000 85.572 302.000 83.586 L 302.000 81.600 300.021 81.600 L 298.042 81.600 297.921 79.500 L 297.800 77.400 293.721 77.286 L 289.643 77.172 289.521 75.286 L 289.400 73.400 287.500 73.278 L 285.600 73.156 285.600 71.178 L 285.600 69.200 283.421 69.200 L 281.242 69.200 281.121 67.100 L 281.000 65.000 276.900 64.886 L 272.800 64.772 272.800 62.786 L 272.800 60.800 270.821 60.800 L 268.842 60.800 268.721 58.700 L 268.600 56.600 266.500 56.479 L 264.400 56.358 264.400 54.379 L 264.400 52.400 260.421 52.400 L 256.442 52.400 256.321 50.300 L 256.200 48.200 246.173 48.093 C 240.659 48.035,236.024 48.110,235.873 48.260 " stroke="none" fill="#000000" fill-rule="evenodd"></path></g></svg>