<svg id="svg" version="1.1" width="515" height="515" xmlns="http://www.w3.org/2000/svg" xmlns:xlink="http://www.w3.org/1999/xlink" style="display: block;"><g id="svgg"><path id="path0" d="M369.500 154.598 C 352.560 155.906,325.960 159.687,325.000 160.923 C 324.725 161.277,321.575 162.134,318.000 162.828 C 314.425 163.521,307.675 164.953,303.000 166.010 C 298.325 167.067,285.950 169.770,275.500 172.017 C 265.050 174.264,251.550 177.212,245.500 178.569 C 239.450 179.927,228.200 182.443,220.500 184.161 C 212.800 185.879,206.275 187.586,206.000 187.955 C 205.725 188.324,201.000 189.664,195.500 190.933 C 180.984 194.283,152.001 201.407,141.000 204.330 C 135.775 205.718,129.025 207.513,126.000 208.318 C 114.843 211.288,104.486 214.409,104.000 214.947 C 103.725 215.251,97.425 217.466,90.000 219.869 C 31.969 238.650,17.345 264.678,53.642 284.583 C 56.314 286.048,59.850 288.040,61.500 289.008 C 69.094 293.465,84.644 301.238,96.500 306.502 C 103.650 309.677,115.063 314.913,121.863 318.137 C 128.662 321.362,134.625 324.000,135.113 324.000 C 135.601 324.000,136.000 324.378,136.000 324.840 C 136.000 325.580,158.938 337.000,160.426 337.000 C 160.745 337.000,166.301 339.631,172.771 342.846 C 179.241 346.061,186.214 349.246,188.267 349.923 C 190.320 350.601,192.000 351.473,192.000 351.861 C 192.000 352.580,203.249 358.130,231.000 371.103 C 239.525 375.088,246.725 378.676,247.000 379.075 C 248.385 381.086,288.917 397.133,306.500 402.631 C 313.100 404.696,318.725 406.686,319.000 407.054 C 321.636 410.585,359.597 414.862,372.345 413.065 C 381.416 411.786,392.000 408.568,392.000 407.089 C 392.000 406.666,393.223 405.764,394.718 405.082 C 404.449 400.649,412.765 391.153,421.502 374.500 C 424.675 368.450,428.673 360.823,430.386 357.551 C 432.099 354.279,433.979 351.068,434.565 350.415 C 435.151 349.762,440.736 339.164,446.977 326.864 C 453.218 314.564,459.132 303.150,460.119 301.500 C 467.568 289.045,487.000 246.785,487.000 243.039 C 487.000 242.009,487.563 240.979,488.250 240.750 C 490.044 240.152,490.044 209.848,488.250 209.250 C 487.563 209.021,487.000 208.183,487.000 207.388 C 487.000 201.533,473.789 182.313,465.641 176.314 C 459.484 171.782,443.902 163.761,438.750 162.471 C 437.238 162.093,436.000 161.464,436.000 161.074 C 436.000 160.269,424.695 157.542,415.000 156.009 C 408.011 154.904,377.711 153.964,369.500 154.598 M239.313 234.489 C 247.850 238.607,255.481 242.624,256.271 243.414 C 257.061 244.203,262.385 247.434,268.103 250.594 C 273.822 253.753,282.325 258.844,287.000 261.908 C 291.675 264.972,296.388 267.844,297.472 268.290 C 298.557 268.735,300.177 269.865,301.073 270.800 C 301.968 271.735,307.302 275.650,312.927 279.500 C 326.398 288.721,336.029 295.863,338.507 298.468 C 339.611 299.629,344.786 303.789,350.007 307.714 C 359.113 314.558,370.864 325.534,369.941 326.333 C 368.231 327.815,340.661 333.135,324.000 335.199 C 310.491 336.873,246.052 336.868,234.087 335.193 C 224.514 333.853,223.275 333.027,219.924 325.749 C 218.595 322.862,217.000 319.963,216.381 319.306 C 208.423 310.867,201.733 272.725,205.892 259.500 C 209.525 247.945,213.573 238.438,215.839 236.132 C 216.753 235.203,218.625 232.771,220.000 230.728 C 223.116 226.099,221.118 225.710,239.313 234.489 " stroke="none" fill="#000000" fill-rule="evenodd"></path></g></svg>