<?xml version="1.0" encoding="UTF-8" standalone="no"?>
<!DOCTYPE svg PUBLIC "-//W3C//DTD SVG 1.1//EN" "http://www.w3.org/Graphics/SVG/1.1/DTD/svg11.dtd">
<svg width="100%" height="100%" viewBox="0 0 515 515" version="1.1" xmlns="http://www.w3.org/2000/svg" xmlns:xlink="http://www.w3.org/1999/xlink" xml:space="preserve" xmlns:serif="http://www.serif.com/" style="fill-rule:evenodd;clip-rule:evenodd;stroke-linejoin:round;stroke-miterlimit:2;">
    <g id="svgg">
        <path id="path0" d="M345,61.573C319.806,64.412 296.951,69.56 272.5,75.005C231.698,84.091 191.098,93.644 150.897,105.108C136.758,109.14 122.072,113.213 109,120C102.104,123.58 94.621,127.729 90.32,134.48C87.172,139.421 86.568,145.963 90.861,150.5C103.687,164.055 117.881,168.547 135,177.038C172.394,195.586 209.657,214.08 247.5,231.663C275.88,244.849 308.209,259.763 340.144,258.907C344.748,258.783 349.37,258.176 353.836,257.052C375.988,251.478 384.551,227.451 393.974,209.426C399.39,199.065 405.121,188.871 410.518,178.5C414.262,171.306 429.844,143.021 432.976,131.904C438.593,111.967 433.441,89.876 416,77.668C411.586,74.578 406.765,72.077 401.895,69.773C393.428,65.768 389.119,64.58 380.5,63.513C371.322,62.377 354.354,60.519 345,61.573M239,119.938C246.149,124.648 254.381,127.692 261.85,131.75C282.932,143.206 304.325,157.986 322.75,173.35C328.2,177.895 334.611,182.527 339.601,187.543C341.061,189.01 343.805,190.48 343.344,192.498C342.919,194.358 339.845,194.066 338,194.553C334.547,195.465 331.033,196.161 327.5,196.683C319.39,197.88 311.267,199.094 303.092,199.706C283.168,201.198 265.352,201.071 245.513,199.939C240.992,199.681 234.708,200.861 232.235,197.068C222.575,182.251 212.482,157.738 219.703,139.5C222.821,131.624 227.057,112.072 239,119.938M290.5,304.398C270.211,309.38 262.489,337.251 273.48,354.001C279.93,363.831 292.788,365.46 303.519,365.824C305.346,365.886 315.352,366.414 318.457,364.773C321.437,363.197 321.07,353.311 318.393,351.636C316.154,350.236 307.121,352.658 305.176,352.632C294.325,352.482 286.536,346.477 285.647,335.362C285.473,333.192 285.499,330.97 285.94,328.839C288.105,318.389 297.285,317.05 306.538,317.313C308.905,317.38 311.253,317.777 313.595,318.128C315.166,318.364 317.557,319.952 318.339,318.57C319.298,316.876 319.574,314.87 320.005,312.972C321.535,306.235 318.18,304.959 311.885,304.156C303.701,303.112 298.519,302.429 290.5,304.398M9.62,305.547C8.819,307.635 8.807,362.332 9.607,364.418C10.079,365.649 11.744,366 17.107,366L24,366L24.023,349.25C24.043,334.325 24.193,332.827 25.403,335.5C27.774,340.74 31,349.231 31,350.232C31,350.763 31.666,352.616 32.48,354.349C33.294,356.082 34.575,359.3 35.328,361.5L36.696,365.5L52.5,366.026L54.75,361.233C55.987,358.597 57,355.89 57,355.217C57,354.543 57.9,352.314 59,350.261C60.1,348.209 61,345.959 61,345.261C61,344.564 61.9,342.314 63,340.261C64.1,338.209 65.095,335.848 65.211,335.015C65.328,334.182 65.665,340.7 65.961,349.5L66.5,365.5L80.5,365.5L80.5,304.5L62.4,303.93L59.7,310.843C58.215,314.646 57,318.291 57,318.944C57,319.597 56.451,321.114 55.78,322.316C54.386,324.811 52.776,328.926 49.852,337.467C45.971,348.805 45.541,348.733 41.049,336C40.37,334.075 38.909,330.25 37.802,327.5C36.696,324.75 35.15,320.7 34.368,318.5C33.586,316.3 32.541,313.6 32.046,312.5C31.551,311.4 30.739,309.15 30.242,307.5L29.338,304.5L19.789,304.215C11.747,303.975 10.143,304.186 9.62,305.547M113.24,305.987C112.02,307.94 110.18,312.591 107.499,320.5C106.753,322.7 104.536,328.308 102.571,332.962C100.607,337.617 99,341.824 99,342.311C99,342.799 98.379,344.616 97.62,346.349C93.879,354.888 92.122,359.789 91.825,362.51L91.5,365.5L106.5,366.072L107.63,362.786C108.908,359.07 110.868,353.594 112.117,350.25C112.914,348.117 113.491,348 123.25,348L133.543,348L139.725,365.5L147.363,365.792C156.745,366.151 156.666,366.832 149.478,347.5C148.046,343.65 146.045,338.25 145.031,335.5C144.017,332.75 142.499,328.7 141.658,326.5C136.047,311.823 134.746,308.25 134.285,306.25C133.534,302.989 115.255,302.761 113.24,305.987M165.469,305.219C165.194,305.936 165.089,319.793 165.235,336.012L165.5,365.5L181.5,365.5L181.5,304.5L173.735,304.208C168.057,303.994 165.835,304.266 165.469,305.219M200,334.961L200,366L214,366L214.044,328.5L216,331C217.076,332.375 217.966,334.063 217.978,334.75C217.99,335.438 218.367,336 218.815,336C219.263,336 220.392,337.462 221.324,339.25C222.256,341.038 223.984,344.075 225.164,346C226.344,347.925 227.813,350.4 228.428,351.5C229.043,352.6 231.335,356.31 233.523,359.744L237.5,365.987L246.5,365.744L255.5,365.5L255.764,334.75L256.029,304L241,304L240.956,342.5L237.728,337.145C235.953,334.2 233.468,330.15 232.207,328.145C230.946,326.14 229.656,323.712 229.341,322.75C229.025,321.788 228.453,321 228.069,321C227.685,321 226.608,319.402 225.677,317.449C224.746,315.496 223.53,313.359 222.975,312.699C222.42,312.04 220.944,309.925 219.696,308L217.427,304.5L208.714,304.211L200,303.922L200,334.961M349.047,308.627C347.124,312.973 347.935,313.164 346.183,317.55C342.148,327.65 337.824,337.635 333.894,347.777C331.851,353.049 332.22,353.098 330,358.261C329.803,358.718 327.014,363.114 328.145,364.712C329.264,366.292 334.978,366 335.48,366L342.959,366L344.98,362.04C347.548,357.006 346.27,356.598 348.685,351.534L350.37,348L360.435,348.004L370.5,348.007L372.131,352.254C373.028,354.589 374.528,358.637 375.464,361.25L377.165,366L384.524,366C385.03,366 390.788,366.264 392.06,364.975C393.334,363.684 391.23,359.878 391.052,359.384C388.998,353.676 389.108,353.782 387,348.236C383.376,338.701 380.002,329.071 376.471,319.5C375.573,317.067 373.261,306.866 369.929,304.95C367.798,303.724 362.032,304 360.424,304L351.094,304L349.047,308.627M402,334.916L402,366.084L417.5,365.5L418.07,345L420.785,345.032C423.449,345.063 427,347.014 427,348.447C427,349.555 439.811,362 440.952,362C441.502,362 443.425,362.898 445.226,363.996C447.281,365.249 450.269,365.994 453.25,365.996L458,366L458,360.047C458,354.138 457.972,354.081 454.25,352.384C452.188,351.444 448.357,348.481 445.737,345.8L440.974,340.926L443.421,338.713C452.899,330.138 451.533,314.175 440.735,307.316C436.649,304.721 435.895,304.611 419.25,304.187L402,303.748L402,334.916M468.453,305.262C468.187,305.955 468.089,319.793 468.235,336.012L468.5,365.5L511,366.04L511,352L484,352L484,341L507,341L507,328L484,328L484,317L509,317L509,304L488.969,304C473.768,304 468.82,304.304 468.453,305.262M431.472,319.564C435.845,325.346 432.145,331.571 423.75,332.556L418,333.23L418,316.76L424.004,317.194C428.425,317.514 430.394,318.139 431.472,319.564M362.583,324.75C363.203,326.928 363.964,329.419 365.111,331.45C365.592,332.302 366.628,332.997 366.286,334.149C366.009,335.084 364.727,335.57 363.887,335.692C361.573,336.03 359.109,336.109 356.78,335.905C356.178,335.852 355.501,335.611 355.307,334.954C355.203,334.6 355.231,334.213 355.279,333.846C355.519,332.001 357.555,326.578 357.581,326.5C358.273,324.42 358.918,322.323 359.63,320.25C359.76,319.872 359.883,319.481 360.106,319.15C360.233,318.961 360.606,319.261 360.71,319.462C361.017,320.054 361.29,320.665 361.513,321.294C361.916,322.43 362.252,323.59 362.583,324.75M124.593,322.75C125.467,324.971 126.198,327.245 126.979,329.5C127.583,331.245 128.236,332.976 128.748,334.75C128.802,334.937 128.794,335.187 128.659,335.328C128.449,335.549 128.132,335.675 127.829,335.715C125.114,336.076 122.505,336.124 119.799,335.688C119.108,335.577 118.339,335.113 118.063,334.43C117.752,333.661 117.961,332.443 118.202,331.742C119.144,328.997 120.475,326.397 121.419,323.654C121.768,322.64 121.902,318.221 123.704,320.98C124.065,321.533 124.351,322.135 124.593,322.75M16,391.098C8.485,395.701 4.614,408.015 10.062,415.585C13.384,420.202 18.684,422.974 23.438,425.734C28.35,428.586 37.322,429.997 35.843,437.822C34.534,444.743 22.211,443.442 17.55,442.786C15.873,442.55 14.265,441.958 12.636,441.494C11.345,441.126 10.025,439.758 8.794,440.291C8.457,440.437 4.061,447.392 5.654,448.58C14.751,455.364 30.442,455.233 39.516,448.632C41.564,447.141 43.367,445.223 44.683,443.057C45.906,441.043 46.757,438.713 46.967,436.365C48.179,422.862 34.388,419.485 25.589,413.626C22.436,411.526 17.77,407.353 18.774,402.871C20.386,395.685 31.615,398.664 35.917,399.568C37.746,399.952 39.996,402.072 41.382,400.818C43.595,398.816 43.506,395.2 44,392.257C44.232,390.872 41.792,390.305 40.411,390.054C33.499,388.793 22.456,387.144 16,391.098M74.138,391.479C65.854,396.018 59.755,403.315 57.86,412.693C53.852,432.522 66.782,454.933 88.82,453.362C95.119,452.913 100.166,450.872 105.545,447.624C111.819,443.836 115.475,434.753 117.068,428.35C120.673,413.847 115.654,398.925 102.308,391.25C98.773,389.217 92,388.786 88.306,388.816C84.294,388.848 77.908,389.413 74.138,391.479M132.85,419C132.767,435.5 132.655,449.563 132.6,450.25C132.524,451.199 136.881,451.566 150.676,451.772C170.586,452.071 170.124,452.211 169.679,446L169.5,443.5L143,442.942L143,389L133,389L132.85,419M178,411.057C178,445.712 182.8,453.397 204.318,453.191C225.562,452.988 231.358,442.87 230.781,407L230.5,389.5L225.25,389.198L220,388.895L220,408.766C220,432.129 219.008,437.169 213.707,440.75C209.142,443.833 198.432,443.977 195,441C193.732,439.9 192.406,439 192.054,439C190.104,439 189,428.336 189,409.486L189,389L178,389L178,411.057M241,394L241,399L262,399L262,452.105L267.25,451.802L272.5,451.5L272.767,425.25L273.033,399L293,399L293,389L241,389L241,394M304.779,418.75C304.441,454.813 303.989,452 310.117,452L315,452L315,389L305.058,389L304.779,418.75M346.492,391.608C320.697,405.085 325.663,450.317 356.649,452.972C359.537,453.22 362.485,453.09 365.336,452.564C368.221,452.031 371.075,451.132 373.701,449.822C389.163,442.103 391.147,427.605 388.944,412.174C388.147,406.586 385.285,399.926 381.333,395.814C375.817,390.074 367.852,388.547 360.252,388.873C356.485,389.034 350.088,389.729 346.492,391.608M405,420.454L405,452L416,452L416,407.73L418,410.273C419.1,411.671 420,413.532 420,414.408C420,415.283 420.399,416 420.886,416C421.373,416 422.517,417.462 423.428,419.25C424.339,421.038 426.035,424.075 427.197,426C428.359,427.925 429.81,430.4 430.422,431.5C431.728,433.847 433.829,437.181 439.418,445.775L443.5,452.051L450,451.775L456.5,451.5L457.028,389L446.037,389L445.768,412.25C445.502,435.341 445.488,435.475 443.723,431.792C442.746,429.753 441.537,427.832 441.037,427.523C440.536,427.213 439.485,425.732 438.7,424.23C435.559,418.22 434.592,416.616 427.167,405.092C425.251,402.117 422.461,397.392 420.967,394.592L418.25,389.5L411.625,389.204L405,388.909L405,420.454M480.881,391.2C478.781,392.479 476.08,395.284 475.181,397.617C474.106,400.408 473.356,403.336 472.873,406.288C471.066,417.328 480.416,421.318 488.464,425.5C493.065,427.891 500.95,429.58 500.811,436.246C500.718,440.731 498.053,442.519 493.925,442.934C488.004,443.53 483.876,442.744 477.729,441.515C476.382,441.246 475.115,439.815 473.81,440.244C472.763,440.587 470.626,445.284 470.398,446.452C469.73,449.865 473.965,450.286 476.542,451.162C484.743,453.95 494.861,454.478 502.642,450.093C509.062,446.475 512.97,438.959 511.315,431.565C510.003,425.703 504.02,420.307 498.986,417.603C493.941,414.892 482.003,412.614 483.432,404.134C484.717,396.508 496.108,398.546 500.917,399.568C502.745,399.957 504.775,401.771 506.382,400.818C508.092,399.804 508.078,397.152 508.321,395.179C508.879,390.63 506.922,390.227 502.865,389.553C496.821,388.549 486.448,387.808 480.881,391.2M98.768,401.534C103.255,404.71 103.393,405.686 105.127,410.761C108.347,420.187 108.06,429.375 100.949,437.102C95.141,443.413 84.772,446.467 77.418,440.871C68.189,433.849 65.661,416.108 71.551,406.292C76.952,397.289 90.651,395.787 98.768,401.534M368.864,400.056C372.859,402.315 375.392,406.684 376.973,410.822C379.915,418.517 380.127,426.573 376.25,433.874C375.871,434.587 374.435,438.059 372.96,439C371.725,439.787 370.384,440.393 369.095,441.088C365.749,442.891 362.961,443.89 359.066,443.535C356.602,443.31 354.097,442.577 351.884,441.478C341.185,436.166 338.311,421.998 342.234,411.405C346.312,400.393 358.153,393.999 368.864,400.056"/>
    </g>
</svg>
