<svg id="svg" version="1.1" width="400" height="400" xmlns="http://www.w3.org/2000/svg" xmlns:xlink="http://www.w3.org/1999/xlink" style="display: block;"><g id="svgg"><path id="path0" d="M7.000 184.500 L 7.000 309.000 31.000 309.000 L 55.000 309.000 55.105 216.250 C 55.186 144.653,55.473 124.298,56.365 127.000 C 57.000 128.925,58.078 131.483,58.760 132.684 C 59.442 133.886,60.000 135.798,60.000 136.934 C 60.000 138.070,60.430 139.000,60.955 139.000 C 61.480 139.000,62.205 140.575,62.566 142.500 C 62.927 144.425,63.698 146.000,64.278 146.000 C 64.858 146.000,65.037 146.296,64.675 146.658 C 64.313 147.020,64.517 147.917,65.127 148.653 C 65.737 149.388,66.000 150.892,65.711 151.996 C 65.423 153.100,65.595 153.751,66.093 153.442 C 66.592 153.134,67.014 153.696,67.032 154.691 C 67.049 155.686,67.724 157.374,68.532 158.441 C 69.339 159.509,70.000 161.421,70.000 162.691 C 70.000 163.961,70.430 165.000,70.955 165.000 C 71.480 165.000,72.205 166.575,72.566 168.500 C 72.927 170.425,73.602 172.000,74.066 172.000 C 74.530 172.000,75.205 173.575,75.566 175.500 C 75.927 177.425,76.578 179.000,77.012 179.000 C 77.445 179.000,78.340 181.250,79.000 184.000 C 79.660 186.750,80.605 189.000,81.100 189.000 C 81.595 189.000,82.000 190.025,82.000 191.277 C 82.000 192.530,82.720 194.583,83.600 195.840 C 84.481 197.096,84.972 198.997,84.694 200.064 C 84.415 201.130,84.595 201.751,85.093 201.442 C 85.592 201.134,86.000 201.584,86.000 202.441 C 86.000 203.298,86.400 204.000,86.889 204.000 C 87.377 204.000,88.067 205.542,88.420 207.427 C 88.774 209.312,89.524 211.008,90.087 211.196 C 90.649 211.383,91.198 213.157,91.305 215.137 C 91.437 217.566,91.910 218.581,92.761 218.257 C 93.586 217.943,93.807 218.339,93.399 219.401 C 93.057 220.295,93.330 221.692,94.006 222.507 C 94.683 223.322,95.000 224.892,94.711 225.996 C 94.423 227.100,94.595 227.751,95.093 227.442 C 95.592 227.134,96.000 227.584,96.000 228.441 C 96.000 229.298,96.502 230.000,97.117 230.000 C 97.765 230.000,98.035 231.036,97.761 232.470 C 97.501 233.828,97.674 234.702,98.144 234.411 C 98.615 234.120,99.000 234.584,99.000 235.441 C 99.000 236.298,99.400 237.000,99.889 237.000 C 100.377 237.000,101.073 238.575,101.434 240.500 C 101.795 242.425,102.469 244.000,102.932 244.000 C 103.394 244.000,104.066 245.463,104.423 247.250 C 105.981 255.039,106.272 256.000,107.068 256.000 C 107.531 256.000,108.205 257.575,108.566 259.500 C 108.927 261.425,109.675 263.000,110.228 263.000 C 110.781 263.000,110.998 263.901,110.710 265.001 C 110.422 266.102,110.595 266.751,111.093 266.442 C 111.592 266.134,112.000 266.809,112.000 267.941 C 112.000 269.073,112.502 270.000,113.117 270.000 C 113.741 270.000,114.003 270.882,113.710 272.001 C 113.422 273.102,113.595 273.751,114.093 273.442 C 114.592 273.134,115.000 273.599,115.000 274.476 C 115.000 275.353,115.624 277.067,116.388 278.285 C 117.151 279.503,118.071 282.188,118.433 284.250 C 118.795 286.313,119.573 288.000,120.162 288.000 C 120.762 288.000,121.025 289.087,120.761 290.470 C 120.501 291.828,120.674 292.702,121.144 292.411 C 121.615 292.120,122.000 292.809,122.000 293.941 C 122.000 295.073,122.502 296.000,123.117 296.000 C 123.741 296.000,124.003 296.882,123.710 298.001 C 123.422 299.102,123.595 299.751,124.093 299.442 C 124.592 299.134,125.000 299.436,125.000 300.113 C 125.000 300.791,125.788 303.056,126.750 305.147 L 128.500 308.948 148.668 308.974 C 169.679 309.001,172.000 308.738,172.000 306.334 C 172.000 305.535,172.385 305.120,172.856 305.411 C 173.326 305.702,173.499 304.828,173.239 303.470 C 172.967 302.049,173.236 301.000,173.872 301.000 C 174.479 301.000,175.264 299.200,175.616 297.000 C 175.968 294.800,176.648 293.000,177.128 293.000 C 177.608 293.000,178.000 292.073,178.000 290.941 C 178.000 289.809,178.408 289.134,178.907 289.442 C 179.405 289.751,179.578 289.102,179.290 288.001 C 178.976 286.799,179.259 286.000,180.000 286.000 C 180.757 286.000,181.023 285.196,180.690 283.921 C 180.337 282.574,180.560 281.999,181.323 282.289 C 182.062 282.570,182.566 281.491,182.677 279.391 C 182.775 277.551,183.562 275.035,184.427 273.800 C 185.292 272.565,186.000 270.530,186.000 269.277 C 186.000 268.025,186.430 267.000,186.955 267.000 C 187.480 267.000,188.205 265.425,188.566 263.500 C 188.927 261.575,189.602 260.000,190.066 260.000 C 190.530 260.000,191.205 258.425,191.566 256.500 C 191.927 254.575,192.671 253.000,193.218 253.000 C 193.766 253.000,193.936 252.275,193.596 251.389 C 193.193 250.338,193.416 249.945,194.239 250.258 C 195.100 250.586,195.526 249.608,195.583 247.175 C 195.629 245.215,196.191 243.436,196.833 243.222 C 197.475 243.008,198.000 241.846,198.000 240.639 C 198.000 239.432,198.618 237.557,199.372 236.473 C 200.127 235.388,201.063 233.037,201.452 231.250 C 201.841 229.463,202.573 228.000,203.079 228.000 C 203.586 228.000,204.000 227.073,204.000 225.941 C 204.000 224.809,204.385 224.120,204.856 224.411 C 205.326 224.702,205.499 223.828,205.239 222.470 C 204.975 221.087,205.238 220.000,205.838 220.000 C 206.427 220.000,207.205 218.312,207.567 216.250 C 207.929 214.188,208.790 211.593,209.481 210.485 C 210.172 209.377,211.057 207.015,211.448 205.235 C 211.839 203.456,212.573 202.000,213.079 202.000 C 213.586 202.000,214.000 201.073,214.000 199.941 C 214.000 198.809,214.408 198.134,214.907 198.442 C 215.405 198.751,215.578 198.102,215.290 197.001 C 215.002 195.901,215.219 195.000,215.772 195.000 C 216.325 195.000,217.073 193.425,217.434 191.500 C 217.795 189.575,218.469 188.000,218.932 188.000 C 219.394 188.000,220.066 186.538,220.423 184.750 C 221.981 176.961,222.272 176.000,223.068 176.000 C 223.531 176.000,224.205 174.425,224.566 172.500 C 224.927 170.575,225.623 169.000,226.111 169.000 C 226.600 169.000,227.000 168.298,227.000 167.441 C 227.000 166.584,227.385 166.120,227.856 166.411 C 228.326 166.702,228.499 165.828,228.239 164.470 C 227.965 163.036,228.235 162.000,228.883 162.000 C 229.498 162.000,230.000 161.298,230.000 160.441 C 230.000 159.584,230.385 159.120,230.856 159.411 C 231.326 159.702,231.499 158.828,231.239 157.470 C 230.943 155.923,231.228 155.000,232.000 155.000 C 232.776 155.000,233.056 154.073,232.755 152.500 C 232.492 151.125,232.645 150.000,233.093 150.000 C 233.542 150.000,234.205 148.425,234.566 146.500 C 234.927 144.575,235.602 143.000,236.066 143.000 C 236.530 143.000,237.205 141.425,237.566 139.500 C 237.927 137.575,238.623 136.000,239.111 136.000 C 239.600 136.000,240.000 135.298,240.000 134.441 C 240.000 133.584,240.385 133.120,240.856 133.411 C 241.326 133.702,241.499 132.828,241.239 131.470 C 240.967 130.049,241.236 129.000,241.872 129.000 C 242.479 129.000,243.264 127.200,243.616 125.000 C 243.968 122.800,244.648 121.000,245.128 121.000 C 245.608 121.000,246.000 119.425,246.000 117.500 C 246.000 115.575,245.578 114.000,245.061 114.000 C 244.545 114.000,243.819 111.975,243.448 109.500 C 243.077 107.025,242.322 105.000,241.770 105.000 C 241.218 105.000,240.979 103.889,241.239 102.530 C 241.499 101.172,241.326 100.298,240.856 100.589 C 240.385 100.880,240.000 100.191,240.000 99.059 C 240.000 97.927,239.586 97.000,239.079 97.000 C 238.573 97.000,237.846 95.537,237.464 93.750 C 237.082 91.963,236.430 90.050,236.015 89.500 C 235.601 88.950,234.708 86.138,234.031 83.250 C 233.354 80.362,232.423 78.000,231.962 78.000 C 231.500 78.000,230.819 75.975,230.448 73.500 C 230.077 71.025,229.322 69.000,228.770 69.000 C 228.218 69.000,227.979 67.889,228.239 66.530 C 228.499 65.172,228.326 64.298,227.856 64.589 C 227.385 64.880,227.000 63.966,227.000 62.559 C 227.000 60.951,226.443 60.000,225.500 60.000 C 224.675 60.000,224.000 60.498,224.000 61.107 C 224.000 61.716,223.438 62.000,222.750 61.739 C 221.913 61.420,221.436 62.452,221.305 64.863 C 221.198 66.843,220.635 68.622,220.055 68.815 C 219.475 69.008,219.000 70.222,219.000 71.512 C 219.000 72.802,218.379 74.478,217.620 75.237 C 216.861 75.996,215.922 78.503,215.532 80.808 C 215.143 83.114,214.414 85.000,213.912 85.000 C 213.410 85.000,213.000 85.702,213.000 86.559 C 213.000 87.416,212.592 87.866,212.093 87.558 C 211.595 87.249,211.423 87.900,211.711 89.004 C 212.000 90.108,211.725 91.626,211.101 92.379 C 210.476 93.131,210.246 94.479,210.590 95.373 C 210.933 96.268,210.736 97.000,210.152 97.000 C 209.568 97.000,208.795 98.575,208.434 100.500 C 208.073 102.425,207.377 104.000,206.889 104.000 C 206.400 104.000,206.000 104.702,206.000 105.559 C 206.000 106.416,205.615 106.880,205.144 106.589 C 204.674 106.298,204.501 107.172,204.761 108.530 C 205.035 109.964,204.765 111.000,204.117 111.000 C 203.502 111.000,203.000 112.093,203.000 113.429 C 203.000 114.764,202.379 116.478,201.620 117.237 C 200.861 117.996,199.922 120.500,199.533 122.803 C 199.144 125.106,198.408 127.248,197.897 127.564 C 197.386 127.880,197.226 128.557,197.543 129.069 C 197.859 129.581,197.692 130.000,197.170 130.000 C 196.649 130.000,195.931 131.556,195.574 133.458 C 195.217 135.360,194.270 138.172,193.469 139.708 C 192.668 141.243,192.010 143.287,192.006 144.250 C 192.003 145.213,191.550 146.000,191.000 146.000 C 190.450 146.000,190.000 146.927,190.000 148.059 C 190.000 149.191,189.592 149.866,189.093 149.558 C 188.595 149.249,188.422 149.898,188.710 150.999 C 189.003 152.118,188.741 153.000,188.117 153.000 C 187.502 153.000,186.997 153.787,186.994 154.750 C 186.990 155.713,186.376 157.672,185.628 159.105 C 184.881 160.538,183.714 164.025,183.035 166.855 C 182.356 169.685,181.395 172.000,180.900 172.000 C 180.405 172.000,180.000 172.927,180.000 174.059 C 180.000 175.191,179.592 175.866,179.093 175.558 C 178.595 175.249,178.415 175.870,178.694 176.936 C 178.972 178.003,178.481 179.904,177.600 181.160 C 176.720 182.417,176.000 184.470,176.000 185.723 C 176.000 186.975,175.550 188.000,175.000 188.000 C 174.450 188.000,174.000 188.927,174.000 190.059 C 174.000 191.191,173.592 191.866,173.093 191.558 C 172.595 191.249,172.422 191.898,172.710 192.999 C 173.024 194.201,172.741 195.000,172.000 195.000 C 171.259 195.000,170.976 195.798,171.290 197.000 C 171.577 198.100,171.405 199.000,170.906 199.000 C 170.408 199.000,170.000 200.039,170.000 201.309 C 170.000 202.579,169.339 204.491,168.532 205.559 C 167.724 206.626,167.049 208.314,167.032 209.309 C 167.014 210.304,166.592 210.866,166.093 210.558 C 165.595 210.249,165.422 210.898,165.710 211.999 C 166.003 213.118,165.741 214.000,165.117 214.000 C 164.502 214.000,164.000 214.927,164.000 216.059 C 164.000 217.191,163.615 217.880,163.144 217.589 C 162.674 217.298,162.501 218.172,162.761 219.530 C 163.033 220.951,162.764 222.000,162.128 222.000 C 161.521 222.000,160.736 223.800,160.384 226.000 C 160.032 228.200,159.299 230.000,158.756 230.000 C 158.212 230.000,158.011 230.936,158.310 232.079 C 158.663 233.426,158.440 234.001,157.677 233.711 C 156.929 233.426,156.429 234.575,156.305 236.863 C 156.198 238.843,155.635 240.622,155.055 240.815 C 154.475 241.008,153.993 242.142,153.985 243.333 C 153.964 246.232,152.871 247.701,150.750 247.682 C 149.725 247.673,149.000 246.907,149.000 245.833 C 149.000 244.825,148.498 244.000,147.883 244.000 C 147.259 244.000,146.997 243.118,147.290 241.999 C 147.578 240.898,147.405 240.249,146.907 240.558 C 146.408 240.866,146.000 240.191,146.000 239.059 C 146.000 237.927,145.606 237.000,145.125 237.000 C 144.643 237.000,143.651 234.300,142.919 231.000 C 142.186 227.700,141.251 225.000,140.839 225.000 C 140.427 225.000,139.795 223.425,139.434 221.500 C 139.073 219.575,138.398 218.000,137.934 218.000 C 137.470 218.000,136.795 216.425,136.434 214.500 C 136.073 212.575,135.377 211.000,134.889 211.000 C 134.400 211.000,134.000 210.281,134.000 209.401 C 134.000 208.522,133.364 206.384,132.586 204.651 C 131.809 202.918,130.625 199.700,129.956 197.500 C 129.287 195.300,128.298 192.943,127.758 192.263 C 127.218 191.582,127.046 190.321,127.377 189.461 C 127.722 188.561,127.557 188.156,126.989 188.507 C 126.445 188.843,126.000 188.191,126.000 187.059 C 126.000 185.927,125.600 185.000,125.111 185.000 C 124.623 185.000,123.927 183.425,123.566 181.500 C 123.205 179.575,122.537 178.000,122.082 178.000 C 121.628 178.000,120.968 176.200,120.616 174.000 C 120.264 171.800,119.582 170.000,119.099 170.000 C 118.617 170.000,117.927 168.425,117.566 166.500 C 117.205 164.575,116.522 163.000,116.048 163.000 C 115.575 163.000,115.423 162.100,115.710 161.000 C 115.998 159.900,115.781 159.000,115.228 159.000 C 114.675 159.000,113.927 157.425,113.566 155.500 C 113.205 153.575,112.537 152.000,112.082 152.000 C 111.628 152.000,110.968 150.200,110.616 148.000 C 110.264 145.800,109.479 144.000,108.872 144.000 C 108.236 144.000,107.967 142.951,108.239 141.530 C 108.499 140.172,108.326 139.298,107.856 139.589 C 107.385 139.880,107.000 139.191,107.000 138.059 C 107.000 136.927,106.595 136.000,106.100 136.000 C 105.605 136.000,104.660 133.750,104.000 131.000 C 103.340 128.250,102.453 126.000,102.028 126.000 C 101.603 126.000,100.968 124.200,100.616 122.000 C 100.264 119.800,99.479 118.000,98.872 118.000 C 98.236 118.000,97.967 116.951,98.239 115.530 C 98.499 114.172,98.326 113.298,97.856 113.589 C 97.385 113.880,97.000 113.191,97.000 112.059 C 97.000 110.927,96.498 110.000,95.883 110.000 C 95.259 110.000,94.997 109.118,95.290 107.999 C 95.578 106.898,95.405 106.249,94.907 106.558 C 94.408 106.866,94.000 106.401,94.000 105.524 C 94.000 104.647,93.273 102.820,92.384 101.463 C 91.495 100.106,90.975 97.913,91.228 96.589 C 91.586 94.715,91.335 94.308,90.094 94.751 C 89.217 95.063,88.834 94.951,89.241 94.501 C 89.649 94.052,89.483 93.083,88.873 92.347 C 88.263 91.612,88.000 90.108,88.289 89.004 C 88.577 87.900,88.405 87.249,87.907 87.558 C 87.408 87.866,87.000 87.191,87.000 86.059 C 87.000 84.927,86.570 84.000,86.045 84.000 C 85.520 84.000,84.776 82.324,84.392 80.275 C 84.007 78.226,83.087 75.944,82.347 75.204 C 81.606 74.463,81.000 72.764,81.000 71.429 C 81.000 70.093,80.586 69.000,80.079 69.000 C 79.573 69.000,78.843 67.563,78.458 65.807 C 77.147 59.841,78.169 60.000,41.071 60.000 L 7.000 60.000 7.000 184.500 M242.000 62.481 C 242.000 63.867,242.400 65.000,242.889 65.000 C 243.377 65.000,244.073 66.575,244.434 68.500 C 244.795 70.425,245.520 72.000,246.045 72.000 C 246.570 72.000,247.000 73.025,247.000 74.277 C 247.000 75.530,247.659 77.496,248.465 78.646 C 249.270 79.796,249.656 81.011,249.322 81.344 C 248.988 81.678,249.282 82.635,249.976 83.471 C 250.669 84.306,251.000 85.892,250.711 86.996 C 250.423 88.100,250.595 88.751,251.093 88.442 C 251.592 88.134,252.000 88.584,252.000 89.441 C 252.000 90.298,252.400 91.000,252.889 91.000 C 253.377 91.000,254.073 92.575,254.434 94.500 C 254.795 96.425,255.469 98.000,255.932 98.000 C 256.394 98.000,257.077 100.025,257.448 102.500 C 257.819 104.975,258.525 107.000,259.016 107.000 C 259.507 107.000,260.205 108.575,260.566 110.500 C 260.927 112.425,261.605 114.000,262.072 114.000 C 262.539 114.000,263.479 116.700,264.161 120.000 C 264.842 123.300,265.740 126.000,266.155 126.000 C 266.570 126.000,267.205 127.575,267.566 129.500 C 267.927 131.425,268.572 133.000,269.000 133.000 C 269.428 133.000,270.073 134.575,270.434 136.500 C 270.795 138.425,271.520 140.000,272.045 140.000 C 272.570 140.000,273.003 140.787,273.006 141.750 C 273.010 142.713,273.727 144.850,274.602 146.500 C 275.476 148.150,276.260 151.128,276.345 153.117 C 276.450 155.570,276.906 156.580,277.761 156.255 C 278.583 155.944,278.807 156.339,278.404 157.389 C 278.064 158.275,278.234 159.000,278.782 159.000 C 279.329 159.000,280.073 160.575,280.434 162.500 C 280.795 164.425,281.493 166.000,281.984 166.000 C 282.475 166.000,283.181 168.025,283.552 170.500 C 283.923 172.975,284.606 175.000,285.068 175.000 C 285.531 175.000,286.205 176.575,286.566 178.500 C 286.927 180.425,287.590 182.000,288.040 182.000 C 288.489 182.000,289.430 184.588,290.131 187.750 C 290.832 190.912,291.989 194.095,292.703 194.821 C 293.416 195.548,294.000 197.236,294.000 198.571 C 294.000 199.907,294.400 201.000,294.889 201.000 C 295.377 201.000,296.067 202.542,296.420 204.427 C 296.774 206.312,297.612 208.077,298.282 208.348 C 298.952 208.620,282.930 208.878,262.679 208.921 C 223.740 209.005,221.729 209.246,223.414 213.637 C 223.808 214.663,223.577 215.053,222.761 214.743 C 221.920 214.423,221.441 215.379,221.323 217.609 C 221.225 219.449,220.438 221.965,219.573 223.200 C 218.708 224.435,218.000 226.470,218.000 227.723 C 218.000 228.975,217.586 230.000,217.079 230.000 C 216.573 230.000,215.842 231.463,215.454 233.250 C 215.066 235.037,214.362 236.747,213.889 237.050 C 213.417 237.352,212.742 239.040,212.390 240.800 L 211.750 244.000 262.375 244.000 C 306.708 244.000,313.000 244.186,313.000 245.500 C 313.000 246.325,313.394 247.000,313.875 247.000 C 314.357 247.000,315.349 249.700,316.081 253.000 C 316.814 256.300,317.822 259.000,318.323 259.000 C 318.824 259.000,319.021 260.111,318.761 261.470 C 318.501 262.828,318.674 263.702,319.144 263.411 C 319.615 263.120,320.000 263.584,320.000 264.441 C 320.000 265.298,320.400 266.000,320.889 266.000 C 321.377 266.000,322.073 267.575,322.434 269.500 C 322.795 271.425,323.520 273.000,324.045 273.000 C 324.570 273.000,325.000 273.719,325.000 274.599 C 325.000 276.082,325.453 277.307,329.028 285.500 C 329.748 287.150,330.233 289.288,330.106 290.250 C 329.978 291.212,330.302 292.000,330.826 292.000 C 331.349 292.000,332.073 293.575,332.434 295.500 C 332.795 297.425,333.470 299.000,333.934 299.000 C 334.398 299.000,335.073 300.575,335.434 302.500 C 335.795 304.425,336.520 306.000,337.045 306.000 C 337.570 306.000,338.000 306.675,338.000 307.500 C 338.000 308.796,341.667 309.000,365.000 309.000 C 388.333 309.000,392.000 308.796,392.000 307.500 C 392.000 306.675,391.498 306.000,390.883 306.000 C 390.235 306.000,389.965 304.964,390.239 303.530 C 390.499 302.172,390.326 301.298,389.856 301.589 C 389.385 301.880,389.000 301.416,389.000 300.559 C 389.000 299.702,388.600 299.000,388.111 299.000 C 387.623 299.000,386.927 297.425,386.566 295.500 C 386.205 293.575,385.427 292.000,384.838 292.000 C 384.249 292.000,384.002 291.099,384.290 289.999 C 384.578 288.898,384.405 288.249,383.907 288.558 C 383.408 288.866,383.000 288.401,383.000 287.524 C 383.000 286.647,382.276 284.824,381.390 283.473 C 380.505 282.121,380.049 280.314,380.379 279.456 C 380.722 278.560,380.556 278.156,379.989 278.507 C 379.445 278.843,379.000 278.453,379.000 277.640 C 379.000 276.182,376.059 269.974,374.907 269.001 C 374.581 268.725,374.025 267.011,373.671 265.192 C 373.317 263.373,372.346 261.203,371.513 260.371 C 370.681 259.538,370.000 257.802,370.000 256.512 C 370.000 255.222,369.475 253.992,368.833 253.778 C 368.191 253.564,367.629 251.785,367.583 249.825 C 367.526 247.392,367.100 246.414,366.239 246.742 C 365.416 247.055,365.193 246.662,365.596 245.611 C 365.957 244.671,365.705 244.000,364.990 244.000 C 364.259 244.000,363.977 243.195,364.290 241.999 C 364.578 240.898,364.405 240.249,363.907 240.558 C 363.408 240.866,363.000 240.191,363.000 239.059 C 363.000 237.927,362.498 237.000,361.883 237.000 C 361.259 237.000,360.997 236.118,361.290 234.999 C 361.578 233.898,361.405 233.249,360.907 233.558 C 360.408 233.866,360.000 233.416,360.000 232.559 C 360.000 231.702,359.600 231.000,359.111 231.000 C 358.623 231.000,357.927 229.425,357.566 227.500 C 357.205 225.575,356.525 224.000,356.054 224.000 C 355.584 224.000,354.660 221.750,354.000 219.000 C 353.340 216.250,352.395 214.000,351.900 214.000 C 351.405 214.000,351.000 213.325,351.000 212.500 C 351.000 211.675,350.564 211.000,350.031 211.000 C 349.499 211.000,349.314 210.346,349.621 209.546 C 349.927 208.747,349.463 207.072,348.589 205.824 C 347.715 204.576,347.000 202.530,347.000 201.277 C 347.000 200.025,346.649 199.000,346.219 199.000 C 345.391 199.000,343.510 194.950,341.445 188.718 C 340.756 186.638,339.646 184.278,338.978 183.474 C 338.310 182.669,338.000 181.108,338.289 180.004 C 338.577 178.900,338.405 178.249,337.907 178.558 C 337.408 178.866,337.000 178.416,337.000 177.559 C 337.000 176.702,336.570 176.000,336.045 176.000 C 335.520 176.000,334.795 174.425,334.434 172.500 C 334.073 170.575,333.325 169.000,332.772 169.000 C 332.219 169.000,332.002 168.099,332.290 166.999 C 332.578 165.898,332.405 165.249,331.907 165.558 C 331.408 165.866,331.000 165.191,331.000 164.059 C 331.000 162.927,330.586 162.000,330.079 162.000 C 329.573 162.000,328.862 160.650,328.500 159.000 C 328.138 157.350,327.469 156.000,327.014 156.000 C 326.559 156.000,326.423 155.100,326.710 154.000 C 326.998 152.900,326.767 152.000,326.196 152.000 C 325.626 152.000,324.862 150.650,324.500 149.000 C 324.138 147.350,323.477 146.000,323.032 146.000 C 322.587 146.000,321.927 144.425,321.566 142.500 C 321.205 140.575,320.485 139.000,319.967 139.000 C 319.448 139.000,318.736 137.200,318.384 135.000 C 318.032 132.800,317.387 131.000,316.950 131.000 C 316.513 131.000,315.631 129.313,314.991 127.250 C 314.351 125.188,313.191 122.082,312.414 120.349 C 311.636 118.616,311.000 116.478,311.000 115.599 C 311.000 114.719,310.498 114.000,309.883 114.000 C 309.259 114.000,308.997 113.118,309.290 111.999 C 309.578 110.898,309.405 110.249,308.907 110.558 C 308.408 110.866,308.000 110.416,308.000 109.559 C 308.000 108.702,307.498 108.000,306.883 108.000 C 306.235 108.000,305.965 106.964,306.239 105.530 C 306.499 104.172,306.326 103.298,305.856 103.589 C 305.385 103.880,305.000 103.454,305.000 102.642 C 305.000 101.831,304.475 100.992,303.833 100.778 C 303.191 100.564,302.629 98.785,302.583 96.825 C 302.526 94.392,302.100 93.414,301.239 93.742 C 300.416 94.055,300.193 93.662,300.596 92.611 C 300.957 91.671,300.705 91.000,299.990 91.000 C 299.259 91.000,298.977 90.195,299.290 88.999 C 299.578 87.898,299.405 87.249,298.907 87.558 C 298.408 87.866,298.000 87.191,298.000 86.059 C 298.000 84.927,297.586 84.000,297.079 84.000 C 296.573 84.000,295.862 82.650,295.500 81.000 C 295.138 79.350,294.477 78.000,294.032 78.000 C 293.587 78.000,292.927 76.425,292.566 74.500 C 292.205 72.575,291.480 71.000,290.955 71.000 C 290.430 71.000,290.000 69.975,290.000 68.723 C 290.000 67.470,289.378 65.557,288.618 64.473 C 287.859 63.388,287.184 62.050,287.120 61.500 C 287.046 60.875,278.556 60.399,264.501 60.231 L 242.000 59.962 242.000 62.481 " stroke="none" fill="#000000" fill-rule="evenodd"></path></g></svg>