<svg width="100%" height="100%" viewBox="0 0 515 515" version="1.1" xmlns="http://www.w3.org/2000/svg" style="fill-rule:evenodd;clip-rule:evenodd;stroke-linejoin:round;stroke-miterlimit:2;">
<g>
<path d="M398,48C398,49.537 395.012,48.726 393.5,49C390.516,49.541 386.216,50.453 385,54C381.882,63.091 382.588,72.038 379,81C378.497,82.255 376.803,87.747 374.302,87.868C371.345,88.011 367.961,83.078 366,82C360.567,79.014 348.683,74.796 342.624,73.902C321.164,70.734 319.617,73.902 298.25,69.688C297.101,69.461 296.798,67.61 295.667,67.308C276.717,62.254 257.872,64.439 239.5,70C234.53,71.505 226.217,73.7 222,77.071C212.658,84.539 191.52,105.648 184.045,115C182.456,116.988 182.12,119.715 181,122C178.77,126.552 175.854,130.782 174,135.5C168.676,149.045 171.677,149.698 167,163.605C164.877,169.918 162.016,167.958 159.033,174C155.213,181.737 152.195,189.86 149.333,198C147.798,202.364 148.983,207.615 145.601,211.468C143.596,213.752 140.226,214.432 138,216.5C116.407,236.557 98.467,254.436 88.109,281.931C84.995,290.199 82.933,297.769 82.006,306.519C81.08,315.262 83.867,325.663 80,334C79.551,334.968 78.089,332.89 77.5,332C76.049,329.806 75.244,327.246 74,324.929C71.985,321.174 71.553,320.429 68,318C66.553,317.011 64.475,316.805 63.428,315.399C62.681,314.396 61.211,303.275 57.511,304C52.736,304.936 51.078,308.193 49,312C44.315,320.581 38.059,332.852 38,343C37.971,347.898 40.87,358.939 44.601,362.572C47.503,365.398 52.003,365.971 55.321,368.294C56.56,369.161 56.798,371.038 58,371.955C61.902,374.932 70.334,379.159 75.5,379C78.675,378.902 86.965,372.025 90.571,376.429C91.568,377.647 91.326,379.507 92,380.929C96.843,391.153 98.202,390.209 104,400C105.351,402.282 105.764,405.06 107.228,407.271C111.177,413.234 113.809,411.319 115.993,418.15C120.667,432.767 109.356,444.501 110.707,458.546C111.319,464.904 114.418,467.557 118.474,473C119.687,474.628 124.139,479.935 126.128,480.796C139.798,486.716 153.13,490.562 167.967,488.763C170.376,488.471 172.751,487.832 175.031,487C176.837,486.341 179.098,483.708 181.347,483.886C182.676,483.991 182.651,487.462 182.73,487.795C183.516,491.098 186.118,501.648 188.5,504.5C189.514,505.713 191.47,505.601 193,506C201.851,508.307 201.912,508.672 211,507C227.054,504.046 244.794,501.381 258.449,491.448C260.92,489.65 262.813,487.168 265,485.033C265.897,484.157 267.481,483.651 267.703,482.417C269.136,474.467 266.839,468.211 264,461C262.853,458.086 260.515,455.589 260,452.5C258.728,444.868 259.954,436.961 258.72,429.323C258.398,427.33 256.168,426.117 255.433,424.237C252.475,416.665 263.442,416.044 267.5,414C268.872,413.309 269.465,411.076 271,411C271.945,410.953 271.571,412.866 271.446,413.804C271.229,415.428 269.798,416.875 270,418.5C270.71,424.217 274.426,429.178 278.701,432.712C291.023,442.898 310.753,453.196 326.634,455.141C336.232,456.316 351.592,447.218 353.597,437.303C354.625,432.222 353.434,426.88 354.291,421.767C354.593,419.964 356.318,418.695 357,417C359.621,410.489 359.52,406.207 363,400C366.368,393.993 374.786,393.767 380.059,391C386.928,387.395 393.259,382.839 400,379C406.5,375.298 412.687,374.191 415.802,366.955C419.83,357.601 416.786,348.629 409.756,341.684C407.799,339.75 405.027,338.653 403.367,336.459C396.078,326.825 391.747,312.728 382.001,304.75C377.522,301.084 372.438,298.225 367.632,295C366.104,293.975 363.97,293.563 363,292C362.581,291.325 364.403,291.099 365.197,291.077C366.421,291.043 367.617,291.489 368.79,291.839C370.891,292.466 372.831,293.684 375,294C384.523,295.388 397.616,296.594 406.604,291.178C418.097,284.253 424.957,269.751 425,256.5C425.014,252.343 420.899,243.606 423.325,239.083C426.685,232.818 436.097,232.822 442.323,229.389C450.821,224.703 459.502,217.396 465.774,210.034C467.26,208.289 467.67,205.814 469.071,204C469.701,203.184 471.149,203.239 471.697,202.366C474.671,197.622 475.612,191.774 477,186.5C487.213,147.701 469.646,107.05 444.294,77.188C435.467,66.791 423.676,51.424 409,48C409,48 398,45.333 398,48M409,61.071C409,65.195 416.436,66.685 418.459,68.367C423.431,72.499 420.805,74.431 425.552,78.543C426.547,79.404 428.395,78.578 429.399,79.428C430.737,80.561 430.899,82.635 432,84C433.766,86.188 436.282,87.721 437.929,90C439.984,92.843 441.307,96.149 443,99.221C452.967,117.303 461.491,131.617 466,151.5C466.861,155.295 468.188,159.114 468,163C467.292,177.607 463.261,189.767 455.772,202.271C454.441,204.493 452,205.827 450,207.474C437.703,217.599 434.417,220.966 419.5,227C415.001,228.82 410.069,229.364 405.5,231C403.811,231.605 402.585,233.293 400.833,233.682C391.989,235.647 382.958,236.65 374,238C372.205,238.271 367.412,238.039 365.931,239.9C363.925,242.422 373.785,253.467 374,254C378.778,265.875 376.05,277.182 391.113,279.174C393.343,279.468 395.732,279.279 397.823,278.449C406.484,275.008 408.529,261.331 409,254C409.153,251.624 404.819,244.893 409,243C410.675,242.241 410.877,245.461 410.911,245.736C411.131,247.483 410.852,249.307 411.333,251C412.012,253.388 414.482,253.441 414,256.393C412.884,263.223 410.03,269.948 405.364,275.143C401.035,279.963 394.308,284.551 387.362,284.125C381.355,283.757 375.761,280.781 369.805,279.915C363.621,279.016 357.336,278.853 351.087,278.849C344.738,278.844 338.395,279.353 332.069,279.888C331.843,279.907 320.861,280.82 321.532,283.784C322.004,285.867 325.634,285.932 326.93,286C332.706,286.305 345.682,284.311 348.874,292.246C352.454,301.145 351.327,307.971 354.333,317C354.67,318.011 356.401,318.14 356.682,319.167C361.539,336.909 359.535,359.466 358,377C357.619,381.346 355.609,382.67 354,386.5C350.657,394.454 347.419,402.456 344.438,410.553C341.144,419.498 343.049,435.838 332,440C320.173,444.455 313.278,436.307 304.265,431.487C300.43,429.436 296.194,428.16 292.458,425.933C288.952,423.844 285.618,420 286,415.5C286.565,408.843 290.895,405.349 294,400C295.013,398.254 295.145,395.993 296.47,394.47C297.725,393.027 300.659,393.658 301.661,392.029C303.604,388.871 299.256,386.145 298.071,384C296.726,381.564 294.504,369.602 289.454,369.602C283.051,369.602 287.921,377.153 287.727,380.201C287.44,384.73 283.323,388.428 280.262,390.968C274.6,395.666 262.922,401.712 257.412,404.5C253.989,406.232 248.386,409.317 243.892,408.966C239.596,408.63 234.856,398.904 231.398,402.672C228.517,405.81 233.525,408.616 234.697,410.634C236.423,413.605 237.315,417.006 239,420C241.349,424.174 245.346,426.837 246,432C247.104,440.718 246.314,449.598 247.276,458.333C248.057,465.424 259.695,474.857 249.858,480.522C247.507,481.876 245.025,483.007 242.5,484C235.977,486.565 229.471,489.235 222.739,491.187C216.51,492.993 208.345,493.202 202,492C196.783,491.012 196.979,483.481 196,480C194.159,473.453 191.967,467.01 190,460.5C189.568,459.072 188.121,452.503 186.53,451.47C182.075,448.578 176.56,447.653 172,444.929C152.531,433.299 153.471,432.156 135.821,417.968C134.876,417.209 133.327,417.304 132.556,416.369C131.425,414.997 131.734,412.703 130.458,411.464C129.501,410.535 127.578,411.415 126.563,410.55C125.229,409.412 125.042,407.366 124,405.955C112.524,390.412 102.346,379.088 97.855,359.926C95.685,350.666 94.698,338.489 95,329C95.528,312.423 96.499,296.496 104,281.5C112.848,263.811 117.484,256.035 131,241.5C133.698,238.599 137.187,236.548 140.221,234C141.355,233.047 142.091,231.459 143.5,231C144.971,230.521 145.4,233.898 145,235.393C144.366,237.761 142.845,239.848 142.33,242.245C141.501,246.1 141.41,250.078 141,254C138.601,276.936 138.151,276.768 139,300C139.193,305.271 139.795,313.416 143.045,318C152.45,331.266 170.74,330.559 182.709,340.151C190.121,346.091 186.625,356.953 193.045,363.363C196.536,366.849 202.244,368.247 206.846,368.901C211.202,369.519 215.601,370.111 220,370C225.079,369.872 230.165,369.247 235.133,368.186C255.814,363.766 263.05,336.838 273.033,322C275.733,317.986 278.992,314.332 282.5,311C286.39,307.305 295.992,304.526 294,297L292,286C286.447,258.233 261.602,235.243 245,214C244.093,212.839 232.125,192.508 233.541,208.108C233.964,212.765 238.227,219.694 240.206,222.929C248.782,236.951 259.613,249.098 268.702,262.728C274.299,271.121 282.127,282.389 281.293,293.363C280.918,298.297 276.436,300.459 273.448,304C261.169,318.551 262.539,319.38 251.629,336.823C249.439,340.325 247.312,343.896 244.699,347.095C235.319,358.576 226.726,360.706 212.183,358.321C200.33,356.376 198.785,348.812 197,338.5C196.339,334.684 195.03,330.924 195.024,327.051C195.021,325.23 196.981,323.77 196.976,321.949C196.972,320.477 194.996,319.472 195,318C195.005,316.359 196.985,315.141 197,313.5C197.013,312.095 195.43,311.109 195.075,309.75C194.507,307.577 196.336,305.293 194.595,303.192C192.219,300.325 190.163,302.789 189.809,305.098C187.968,317.093 190.419,317.3 187,329C186.868,329.452 186.409,328.234 186,328C185.221,327.555 184.302,327.402 183.5,327C180.309,325.4 177.262,323.517 174.031,322C168.097,319.214 161.896,317.898 156.565,313.778C149.964,308.678 149.15,295.917 148.901,289.027C148.145,268.115 151.882,265.049 155,245C156.233,237.074 156.627,229.008 158.318,221.167C158.565,220.023 160.424,219.722 160.696,218.584C163.041,208.789 164.004,198.709 166.055,188.849C166.476,186.827 166.832,184.631 168.099,183L175.901,177C177.465,175.735 178.163,173.616 179.679,172.294C183.547,168.921 187.766,165.965 191.955,163C193.417,161.965 195.484,161.707 196.607,160.312C196.665,160.24 198.205,152.448 195,154C194.021,154.474 184.398,163.109 181.5,160.5C176.98,156.431 183.977,145.723 185.354,143.167C190.097,134.36 194.676,125.44 200.045,117C200.857,115.724 202.803,115.534 203.706,114.321C205.103,112.445 205.183,109.736 206.75,107.999C216.768,96.895 222.178,95.641 234,86.929C236.682,84.952 236.429,82.904 240,82C245.919,80.502 252.073,80.089 258.01,78.666C259.962,78.198 261.136,75.966 263.056,75.382C266.338,74.383 276.208,76.054 277.083,76.288C278.407,76.642 279.071,78.433 280.417,78.696C289.255,80.421 298.458,79.754 307.28,81.564C310.179,82.159 313.129,82.769 315.811,84.02C317.045,84.596 317.873,88.36 320,88C321.584,87.732 322.401,85.572 323.982,85.286C334.402,83.401 340.59,84.619 350.181,88.551C353.3,89.83 356.004,91.954 359,93.5C360.397,94.221 364.227,95.017 363,96C361.137,97.492 358.453,97.628 356.5,99C353.007,101.453 349.381,106.389 348.184,110.489C347.592,112.517 351.754,117.054 352.756,118.71C353.083,119.251 353.654,120.263 354.198,119.941C357.745,117.842 355.21,115.178 359.295,113.885C365.69,111.859 359.368,123.779 364.071,122C366.016,121.264 373.955,113.417 377,118.071C378.001,119.601 373.958,121.518 373.799,121.603C372.266,122.426 370.569,122.944 369.103,123.881C361.645,128.649 360.105,134.108 358.739,143.004C358.396,145.237 359.124,150.313 361,152C361.482,152.433 362.479,151.62 362.667,151C364.655,144.442 363.035,144.186 366,138C366.581,136.788 367.309,135.652 368,134.5C368.309,133.985 368.719,132.469 369,133C371.409,137.556 368.84,139.065 370.312,143.75C371.551,147.694 374.941,156.341 379.465,157.968C380.609,158.38 382.133,157.237 382,156C381.756,153.744 379.902,154.769 379.312,152.75C378.867,151.227 379.138,149.581 379,148C378.555,142.9 374.585,128.029 384,126C386.089,125.55 386.599,130.405 387.071,131C394.31,140.123 393.338,140.533 398,151.071C398.898,153.102 399.105,156.213 402.495,155.944C403.312,155.879 404.087,154.815 404,154C403.56,149.9 402.157,145.958 401,142C397.76,130.917 396.318,126.154 389.67,116.593C385.901,111.172 385.611,111.592 382,106C381.167,104.709 378.752,104.016 379,102.5C379.432,99.864 387.79,91.922 389,90C394.1,81.898 390.67,70.62 396.5,63C399.128,59.565 403.122,59.351 406.948,59.889C407.73,59.998 409,60.282 409,61.071M400,70.5C400,71.798 399.946,73.108 399.706,74.384C399.418,75.914 398.616,75.517 398.294,77.028C397.934,78.717 397.965,80.471 397.643,82.167C397.391,83.493 395.744,82.489 395.4,83.667C395.058,84.84 395.082,86.104 394.706,87.266C394.508,87.879 393.522,87.985 393.294,88.588C392.954,89.488 393.042,90.511 392.706,91.412C392.515,91.923 391.557,91.934 391.294,92.315C389.979,94.219 390.087,95.796 387.775,96.634C387.309,96.803 384.925,97.072 384.509,97.492C383.971,98.035 383.483,100.353 384.785,100.633C386.678,101.04 390.038,101.234 391.918,100.549C392.963,100.168 395.462,97.631 396.292,97C397.02,96.446 398.004,96.209 398.598,95.514C399.382,94.596 399.624,93.319 400.294,92.315C400.784,91.581 401.496,91.992 401.706,90.972C402.478,87.225 402.868,87.379 403.706,83.678C404.197,81.508 404.003,79.233 404.33,77.032C404.579,75.354 406.754,75.949 406.725,74C406.699,72.286 404.646,72.543 404.342,71.07C403.976,69.297 404.158,67.413 403.607,65.688C403.059,63.97 400.557,65.202 400.117,66.211C399.648,67.287 400,69.768 400,70.5M162,115C161.053,116.315 159.143,116.029 158.376,117.441C158.023,118.092 158.056,118.907 157.706,119.559C157.378,120.17 156.564,119.897 156.294,120.588C156.181,120.877 156.216,124.096 155,124C153.107,123.851 153.949,121.82 151.825,122.039C145.951,122.644 146.217,130.289 147.676,134.464C148.377,136.47 151.244,134.564 151.6,135.892C152.046,137.556 151.806,139.361 152.294,141.013C152.994,143.385 153.794,143.071 154,145.5C154.066,146.278 153.747,148.49 155.004,148.852C155.894,149.109 157.586,149.138 157.684,147.809C157.989,143.684 157.855,139.526 158.319,135.416C158.56,133.283 159.984,134.055 160.597,132.029C161.087,130.408 160.914,128.647 161.294,126.997C161.512,126.051 162.34,126.287 162.706,125.477C163.126,124.546 163.113,123.446 163.588,122.541C164.699,120.424 165.54,121.097 166.524,118.941C167.437,116.941 166.79,111.231 163.541,113.588C162.977,113.997 162.407,114.435 162,115M154,129.5C154,130.299 153.922,131.199 153.706,131.972C153.629,132.247 153.521,132.518 153.37,132.761C152.888,133.541 152.37,132.217 152.294,131.972C152.17,131.572 152.115,131.152 152.066,130.736C152.017,130.326 152,129.913 152,129.5C152,129.087 152.017,128.674 152.066,128.264C152.115,127.848 152.17,127.428 152.294,127.028C152.37,126.783 152.888,125.459 153.37,126.239C153.521,126.482 153.629,126.753 153.706,127.028C153.922,127.801 154,128.701 154,129.5M265.571,137.73C263.457,138.262 262.337,139.305 261.33,141.193C260.539,142.675 261.455,142.881 260.706,144.392C260.464,144.88 259.712,145.061 259.598,145.594C258.471,150.865 258.771,155.135 259.598,160.406C259.684,160.951 260.544,161.114 260.706,161.588C260.981,162.394 260.802,163.335 261.174,164.101C262.04,165.885 266.333,164.915 267.312,164.607C268.847,164.124 267.731,161.581 266.907,161.08C266.592,160.888 266.151,160.935 265.867,160.698C265.586,160.464 265.367,160.112 265.312,159.75C264.862,156.793 264.93,153.207 265.312,150.25C265.5,148.791 267.384,149.485 267.643,148.166C267.976,146.471 267.92,144.71 268.314,143.028C268.482,142.309 269.543,142.042 269.736,141.329C270.593,138.154 268.304,137.043 265.571,137.73M302.25,147.525C300.49,149.405 301.408,149.979 299.559,151.696C298.929,152.281 297.919,151.64 297.438,152.583C296.996,153.451 297.129,154.535 296.706,155.413C296.395,156.057 295.503,156.344 295.294,157.028C294.81,158.615 295.05,160.349 294.706,161.972C294.393,163.45 293.447,163.464 293.286,165C292.937,168.32 293.218,171.699 292.714,175C292.483,176.516 291.493,177.825 291.103,179.308C290.89,180.117 290.53,183.415 292.675,183C294.273,182.692 295.8,181.521 296.592,180.116C296.961,179.462 296.919,176.717 298.5,177C300.022,177.273 299.393,178.288 300.881,178.706C301.971,179.012 303.137,179.049 304.266,178.969C304.747,178.936 305.395,178.818 305.583,178.375C307.009,175.016 303.902,169.899 309.393,169.92C310.379,169.924 311.412,169.99 312.312,170.393C314.619,171.425 311.477,175.132 311.286,176C310.928,177.63 310.992,179.331 311,181C311.01,183.02 311.036,185.053 311.339,187.05C311.595,188.738 315.016,188.103 315.571,187.4C316.113,186.714 316.049,182.733 316.294,182.028C317.499,178.566 317.22,178.549 318.294,175.028C318.503,174.344 319.412,174.065 319.706,173.413C320.101,172.536 319.954,171.488 320.294,170.588C320.522,169.985 321.508,169.88 321.706,169.266C322.082,168.103 321.78,166.719 322.4,165.666C323.69,163.476 324.305,163.935 325.294,161.588C325.593,160.877 326.371,161.225 326.706,160.559C327.035,159.904 326.981,159.104 327.294,158.441C328.037,156.866 329.986,155.342 328.906,153.312C327.323,150.338 323.259,152.549 321,151.667C320.113,151.32 320.064,149.927 319.282,149.383C318.702,148.979 315.183,148.661 314.572,148.413C309.823,146.489 306.577,142.905 302.25,147.525M203.027,171.963C200.506,175.458 194.341,179.021 190.708,181C189.717,181.54 188.46,181.607 187.593,182.33C186.813,182.981 186.712,184.204 186,184.929C184.886,186.063 182.978,186.428 182.203,187.816C180.8,190.327 180.321,193.272 179.763,196.094C179.249,198.691 178.863,201.356 179,204C179.278,209.368 180.362,214.663 181,220C181.286,222.388 180.938,233.137 185.8,233.826L188.1,234.152L187.998,221.326C187.954,215.798 187.935,210.269 188.029,204.741C188.137,198.394 190.437,206.03 191.323,207.787C192.483,210.086 193.588,210.769 196.231,210.982C197.002,211.044 197.968,211.06 198.501,210.499C199.998,208.923 198.215,207.386 198,206C196.908,198.972 196.425,193.028 198,186C198.519,183.682 200.847,182.967 202.385,181.683C204.254,180.122 207.006,177.37 208.076,175.138C209.898,171.334 205.81,168.102 203.027,171.963M358.25,230.496C357.02,231.895 357.827,232.369 356.559,233.694C356.153,234.118 355.181,233.894 354.768,234.297C354.498,234.561 354.354,234.958 354.308,235.333C353.856,238.984 353.938,242.016 354.308,245.667C354.444,247.009 355.699,246.756 356.559,247.441C357.097,247.869 356.813,248.516 357.112,249.027C357.754,250.123 359.691,250.465 360.55,249.437C361.426,248.389 361.313,246.199 360.33,245.259C359.861,244.811 359.293,245.06 359.109,244.27C358.979,243.712 358.977,243.12 359.057,242.553C359.361,240.392 361.331,239.17 362.413,237.459C362.844,236.778 362.879,235.157 363.441,234.523C363.966,233.931 365.295,234.222 365.6,233.334C365.804,232.742 365.969,232.125 366,231.5C366.077,229.929 364.259,229.079 362.986,228.93C361.294,228.732 359.406,229.183 358.25,230.496M186,238C186,238.537 186.114,239.101 186.5,239.5C187.226,240.25 188.774,240.25 189.5,239.5C189.886,239.101 190,238.537 190,238C190,237.463 189.886,236.899 189.5,236.5C188.774,235.75 187.226,235.75 186.5,236.5C186.114,236.899 186,237.463 186,238M366.409,310.5C370.425,314.516 371.48,313.08 375.256,317.194C377.323,319.446 378.002,322.749 380.071,325C380.749,325.738 382.063,325.737 382.643,326.554C383.895,328.317 384.105,330.683 385.357,332.446C385.937,333.263 387.296,333.224 387.929,334C391.292,338.12 393.589,343.006 396.5,347.457C398.328,350.252 400.198,353.019 402,355.83C402.553,356.693 403.983,358.915 403.64,360.112C402.12,365.413 394.941,367.705 391,370C388.283,371.583 385.741,373.458 383,375C380.401,376.462 377.573,377.494 375,379C373.022,380.157 373.105,381.792 370.5,382C366.133,382.349 368.881,376.558 369,375C370.119,360.296 370.548,346.704 369,332C368.415,326.441 366.919,321.014 366,315.5C365.437,312.122 364.659,312.622 363,309.5C362.767,309.061 363.14,308.003 363.617,308.143C364.786,308.486 365.548,309.639 366.409,310.5M26,327C26,328.583 24.645,328.625 24.294,330.028C23.891,331.638 24.047,333.348 23.706,334.972C23.505,335.931 22.714,335.702 22.294,336.454C21.93,337.105 22.118,338.093 21.536,338.56C20.835,339.123 19.674,338.702 18.908,339.174C17.15,340.258 15.656,342.743 15.323,344.744C14.661,348.727 15.726,349.005 16.725,352.734C17.249,354.689 16.75,357.274 19.709,357.225C22.316,357.182 21.939,352.964 22.106,351.299C22.13,351.059 22.333,349.785 23,350C24.9,350.612 24.034,355.097 24.294,355.972C24.508,356.693 25.418,357.037 25.706,357.731C27.297,361.563 26.514,365.113 31.222,366C35.145,366.74 31.343,359.661 31.294,359.384C30.812,356.68 31,353.895 30.682,351.167C30.499,349.593 28.332,349.957 28.292,348.25C28.178,343.418 28.197,338.582 28.292,333.75C28.322,332.211 30.225,332.471 30.643,331.167C31.07,329.834 31.14,328.374 30.994,326.982C30.711,324.284 26,324.028 26,327M56,330.5C56,333.808 56.838,333.533 57.706,336.734C58.018,337.886 57.839,339.162 58.294,340.266C58.54,340.862 59.41,341.014 59.706,341.587C60.153,342.453 60.009,343.542 60.438,344.417C61.343,346.263 62.716,345.246 63.117,347.343C63.347,348.542 62.793,353.816 62.797,353.923C62.855,355.735 63.335,359.646 65.605,360.517C66.808,360.979 68.175,360.87 69.392,361.294C70.049,361.523 70.504,362.148 71.134,362.446C73.273,363.457 75.356,362.74 77.184,361.394C78.366,360.524 79.54,359.615 80.532,358.532C81.494,357.482 82.25,356.256 83,355.045C83.06,354.948 82.952,353.75 83.658,354.106C84.251,354.405 88.924,357.179 87.599,358.868C86.828,359.851 86.152,358.532 85.438,359.583C84.838,360.466 85.346,361.697 84.5,362.5C83.448,363.499 82.7,362.485 81.588,363.315C80.411,364.193 80.184,366.013 78.996,366.875C75.811,369.186 70.335,368.494 67.581,365.832C65.555,363.874 66.481,363.234 64.441,361.375C63.42,360.445 62.118,359.871 61.045,359C60.434,358.504 60.104,357.671 59.413,357.294C57.189,356.079 57.511,355.706 55.334,354.4C54.229,353.737 52.69,354.174 51.563,353.55C51.082,353.284 51.209,352.509 51,352C48.911,346.909 48.953,346.911 48.776,341.456C48.692,338.862 50.205,337.266 50.706,334.972C51.074,333.285 50.884,331.494 51.357,329.833C51.627,328.883 53.126,329.108 53.562,328.417C54.056,327.634 54.06,326.625 54.446,325.783C54.588,325.472 54.838,324.822 55.124,325.011C56.669,326.033 56,328.647 56,330.5M79,339.5C79,341.104 76.824,340.509 76.372,341.762C75.859,343.185 76.099,344.678 75.689,346.135C75.5,346.804 75.199,347.441 74.877,348.057C74.506,348.766 73.888,349.375 73.27,349.865C73.197,349.922 72.682,350.158 72.571,350C72.286,349.592 72.193,348.737 72.168,348.238C72.098,346.826 72,345.414 72,344L72,338L75.5,338C77.944,338 79,338.452 79,339.5M131,428.071C131,431.215 136.01,432.981 137.625,434.559C138.613,435.524 139.017,436.984 140,437.955C141.467,439.404 142.65,438.657 144.312,439.587C146.068,440.57 147.556,441.983 149.292,443C150.266,443.571 151.54,443.607 152.407,444.33C153.187,444.981 153.212,446.287 154,446.929C156.034,448.587 162.202,451.132 164.417,452.438C167.297,454.136 166.989,454.496 170,456C175.253,458.624 179.811,461.217 178,468C177.747,468.946 177.245,469.861 176.559,470.559C169.301,477.94 155.751,474.73 147,473C144.578,472.521 140.711,472.061 138.583,470.562C137.903,470.083 138.036,468.848 137.334,468.4C136.054,467.583 134.321,467.748 133,467C129.693,465.126 126.192,461.722 124.729,458.129C123.516,455.149 124.072,455.147 125,452C126.177,448.009 124.901,447.834 126.333,444C127.408,441.121 128.173,441.535 129,438.5C129.404,437.018 129.548,435.469 130,434C130.219,433.288 131,432.745 131,432C131,430.656 129,429.844 129,428.5C129,427.899 129.412,427.126 130,427C130.478,426.898 131,427.583 131,428.071"/>
</g>
</svg>
