<svg width="100%" height="100%" viewBox="0 0 400 400" version="1.1" xmlns="http://www.w3.org/2000/svg" style="fill-rule:evenodd;clip-rule:evenodd;stroke-linejoin:round;stroke-miterlimit:2;">
<g>
<path d="M373.5,57C372.65,58.375 369.683,57.649 368.691,58.015C368.2,58.196 366.2,60.559 365.509,60.634C362.227,60.99 358.032,59.206 354.75,60.727C354.192,60.985 356.58,61.88 356,62.083C348.501,64.711 348.396,60.498 340.593,61.75C339.743,61.886 340.977,64.084 340.142,64.293C337.188,65.03 334.038,63.818 331.011,64.141C330.204,64.227 329.871,66.502 329.177,66.668C328.269,66.885 323.765,65.739 322.75,66.676C322.291,67.1 324.224,67.709 323.84,68.203C322.438,70.007 318.588,69.044 317,70C315.517,70.892 314.897,72.863 313.411,73.751C312.363,74.376 310.086,72.449 309.75,73.623C309.585,74.199 311.132,74.566 310.812,75.072C310.186,76.06 308.67,76.062 307.75,76.783C304.858,79.048 302.051,81.434 299.419,83.997C296.459,86.879 293.5,89.803 291,93.092C288.006,97.031 285.578,101.371 283,105.594C282.364,106.635 282.315,108.1 281.369,108.871C280.737,109.385 279.457,108.295 278.925,108.912C275.637,112.722 277.226,116.404 274.658,120.512C274.132,121.352 272.554,120.981 271.968,121.781C269.956,124.529 269.06,127.974 267.135,130.784C266.749,131.347 265.62,131.012 265.252,131.586C261.711,137.105 263.36,137.891 258.98,142.705C258.402,143.339 257.013,142.619 256.471,143.285C255.54,144.426 255.251,147.938 254.04,148.956C252.234,150.476 248.856,149.968 247.75,152.662C247.35,153.637 248.264,154.793 247.999,155.813C246.561,161.346 238.378,162.001 233.744,165.348C232.964,165.911 233.343,167.381 232.607,168C230.038,170.161 222.928,172.993 219.893,174C212.973,176.295 206.061,178.646 199.012,180.503C191.946,182.365 184.641,183.23 177.59,185.146C174.44,186.002 171.643,187.905 168.502,188.792C163.085,190.321 157.415,190.837 152,192.371C146.56,193.912 141.403,196.334 136,198C134.842,198.357 130.671,198.004 129.75,199.662C129.431,200.236 131.157,200.614 130.938,201.234C130.491,202.497 127.391,201.392 126.859,201.73C123.52,203.854 123.718,207.059 119.653,208.465C117.115,209.342 116.9,208.571 114.886,210.571C112.442,212.996 107.791,212.351 105.532,214.948C104.954,215.613 107.673,215.075 108,215.893C108.782,217.848 99.13,221.463 99.054,221.515C94.517,224.586 97.207,226.496 93.857,230C92.387,231.537 89.997,232.046 88.659,233.699C83.92,239.553 85.883,240.549 81.847,246.847C81.417,247.519 79.906,246.273 79.457,246.931C78.44,248.421 77.759,252.995 75.83,254.05C74.387,254.838 72.367,253.781 70.924,254.57C70.244,254.941 71.352,256.539 70.655,256.878C69.438,257.47 67.928,256.415 66.599,256.672C65.853,256.816 66.342,258.597 65.592,258.715C62.546,259.192 59.393,258.734 56.359,259.287C53.629,259.786 54.635,261.704 51.717,261.943C41.683,262.766 31.148,261.023 21.458,264.75C20.156,265.251 19.302,266.607 18,267.109C16.238,267.789 12.607,267.012 10.964,268.451C9.697,269.561 9.557,271.613 8.324,272.761C7.459,273.566 5.767,273.099 5.002,274C-0.221,280.144 9.005,286.821 14.75,286.179L18.5,285.76L16.076,288.38C14.797,289.762 10.758,291.922 9.421,293.954C6.576,298.277 11.129,302.421 14.877,303.832C21.37,306.277 32.42,309.451 39.597,307.721C51.363,304.885 51.064,304.176 63,302.1C68.501,301.143 67.916,299.962 73.14,298.137C73.47,298.021 79.379,298.803 79.881,297.895C80.365,297.017 78.303,296.279 78.392,295.279C78.445,294.692 79.636,295.307 80.14,295C83.215,293.128 85.895,290.645 89,288.823C89.703,288.41 90.876,289.005 91.408,288.386C91.899,287.814 90.779,286.652 91.319,286.124C92.385,285.082 94.689,287.105 95.792,286.102C99.128,283.068 97.779,281.986 101.67,279.685C123.127,266.989 150.321,268.237 173.917,271C185.083,272.308 196.132,274.481 207.271,276C208.951,276.229 213.186,275.706 215.032,277.196C218.795,280.234 213.896,284.834 212,287.071C207.571,292.294 206.267,297.888 201.684,303.101C198.687,306.51 196.5,305.783 196.5,311.258L196.5,316.537L203.5,316.148C214.583,315.535 220.766,313.009 231.31,310C234.513,309.086 237.94,308.771 240.935,307.315C241.604,306.99 240.678,305.446 241.347,305.122C242.491,304.568 244.017,305.832 245.157,305.269C245.81,304.946 244.769,303.389 245.438,303.101C246.879,302.481 248.66,303.635 250.143,303.124C250.64,302.953 249.454,301.855 249.893,301.566C251.655,300.405 254.145,300.641 255.833,299.374C259.522,296.605 257.268,294.059 261.767,292.802C262.355,292.638 262.675,294.381 263.151,294C264.437,292.971 263.17,288.6 263.585,287.733C264.146,286.561 267.114,287.699 267.25,286.407C267.347,285.483 265.875,284.815 266.035,283.9C266.745,279.842 268.819,281.318 271.253,279.75C273.21,278.489 271.22,277.363 272.949,275.845C273.628,275.248 277.79,274.916 278.25,273.338C278.434,272.706 276.935,272.465 277,271.81C277.05,271.305 278.053,271.66 278.449,271.342C279.252,270.697 279.474,269.236 280.479,269.013C284.69,268.079 282.88,271.625 284.4,273.162C285.207,273.979 286.661,273.767 287.607,274.418C289.062,275.419 289.852,277.348 291.48,278.032C292.804,278.589 294.359,277.696 295.786,277.857C298.257,278.136 300.734,278.571 303.097,279.346C303.856,279.595 304.541,281.623 305.5,281.7C309.487,282.021 313.514,282.036 317.5,281.7C318.327,281.63 319.375,279.503 320.083,279.325C321.999,278.843 335.436,278.314 338.115,275.092C341.343,271.209 334.492,269.212 333.158,267.888C332.243,266.979 332.326,265.327 331.381,264.449C329.968,263.136 327.592,263.055 326.36,261.571C325.312,260.309 329.138,258.114 328,256.933C324.58,253.385 323.465,253.884 323.248,249C322.79,238.687 323.385,229.218 324.961,219.021C325.43,215.988 326.76,216.802 327.774,213.75C329.105,209.743 329.944,205.588 331,201.5C331.287,200.389 330.989,198.961 331.804,198.154C332.238,197.724 332.964,199.777 333.273,199.25C334.281,197.532 333.539,191.716 333.815,190C334.629,184.936 337.262,186.229 338.25,181.388C338.59,179.724 336.918,178.141 337.014,176.446C337.272,171.876 338.193,167.347 339.295,162.904C339.314,162.827 341.686,161.861 341.708,161.76C343.078,155.516 343.52,149.096 344.793,142.832C344.995,141.839 346.129,144.338 346.303,143.244C347.364,136.573 346.188,136.338 349.762,130.462C350.423,129.376 351.356,124.643 352.352,123.631C353.366,122.602 355.118,122.586 356.188,121.616C357.114,120.777 357.5,117.49 358.717,116.775C359.896,116.082 361.647,116.764 362.734,115.932C367.514,112.274 365.704,110.891 369.524,106.799C371.723,104.442 372.028,105.53 375.338,105.25C376.451,105.156 376.762,102.374 377,102C377.988,100.448 378.967,98.79 380.432,97.678C380.857,97.356 385.566,97.09 385.905,95.797C386.105,95.035 384.271,94.802 384.35,94.018C384.408,93.434 385.873,94.373 386.102,93.832C386.658,92.519 385.68,90.868 386.24,89.557C388.412,84.468 391.159,86.171 392.5,80.667C393.451,76.765 395.83,59.699 391.392,56.794C389.44,55.516 383.683,55.994 382.59,55.937C380.835,55.845 375.1,54.411 373.5,57M359.106,77.901C354.242,82.446 351.646,85.445 350.105,91C349.862,91.875 347.63,96.941 348.932,98.01C350.132,98.996 352.181,97.473 353.592,98.124C354.245,98.425 353.132,100.085 353.827,100.268C356.683,101.018 360.127,96.587 362.181,100.534C363.374,102.827 356.933,101.214 354.669,102.462C353.948,102.86 355.874,103.909 355.688,104.711C355.458,105.703 354.425,106.333 353.626,106.964C347.122,112.1 346.962,111.733 341.521,118C340.182,119.543 341.583,120.76 340.762,122.437C340.101,123.787 338.555,124.604 338,126C334.809,134.031 337.671,134.541 334.578,142.494C334.13,143.647 332.22,143.849 331.873,145.038C329.396,153.531 330.098,162.715 327.859,171.275C327.457,172.813 325.55,170.343 325.13,171.786C324.355,174.447 324.907,177.397 324.039,180.029C323.876,180.523 322.778,178.841 322.639,179.342C321.507,183.423 323.114,187.945 322,192.031C320.426,197.807 318.455,203.489 316.117,209C315.353,210.8 312.781,210.708 312.174,212.676C311.614,214.491 312.346,216.566 311.706,218.355C311.135,219.948 309.979,221.346 308.682,222.433C308.289,222.763 307.184,221.645 307.167,222.158C307.077,224.894 309.487,224.194 309.063,226.782C308.792,228.438 307.6,225.578 306.662,226.75C304.765,229.12 304.367,232.439 302.57,234.886C301.857,235.857 299.266,234.529 299.052,235.714C298.907,236.523 300.124,237.191 299.979,238C299.147,242.632 296.772,240.777 293.822,244.39C293.302,245.027 294.454,246.314 293.836,246.857C293.193,247.42 291.998,246.147 291.283,246.616C289.985,247.468 290.087,251.571 287.225,251C285.034,250.563 286.202,245.018 286.211,244.756C286.27,243.09 286.805,241.327 286.248,239.756C286.046,239.185 285.383,241.209 284.851,240.919C282.38,239.567 283.248,235.875 280,236C274.072,236.227 277.028,240.292 274.96,244.496C274.373,245.688 272.313,245.715 271.814,246.947C269.798,251.917 270.701,252.088 268.639,257C268.025,258.462 268.742,260.368 267.874,261.695C267.428,262.377 265.923,261.243 265.437,261.898C262.646,265.664 263.491,266.161 260.044,269.527C259.715,269.849 259.1,273.952 258.338,274.25C257.742,274.484 257.465,272.855 256.851,273.035C256.269,273.205 256.677,274.248 256.438,274.805C255.683,276.56 255.255,278.606 253.883,279.935C252.493,281.281 250.46,281.789 248.617,282.378C248.127,282.534 247.079,281.587 247.099,282.101C247.141,283.122 248.977,283.721 248.712,284.707C248.47,285.607 246.753,285.067 246.118,285.75C245.692,286.208 246.375,287.119 246.003,287.622C245.815,287.876 244.307,287.091 244.015,287.25C241.76,288.474 238.931,289.188 237.465,291.294C236.972,292.002 238.429,293.386 237.715,293.871C236.658,294.59 235.068,293.249 233.884,293.729C232.315,294.365 231.423,296.084 230,297C227.637,298.52 225.119,299.794 222.582,301C221.276,301.621 218.097,302.691 218.25,301.253C218.713,296.895 221.42,298.098 223.361,295C226.241,290.402 223.886,289.349 227.396,285.143C227.93,284.502 229.373,285.093 229.775,284.361C230.65,282.768 229.97,280.632 230.77,279C232.496,275.479 235.796,272.816 237.223,269.163C239.618,263.035 240.977,247.582 241.184,241.172L241.5,231.343L237.264,231.126C234.812,231.001 235.722,232.441 233.85,233.844C233.688,233.966 231.5,233.502 231.354,233.721C228.136,238.555 230.069,239.11 228.379,244.714C227.554,247.451 225.751,245.95 224.752,248.655C223.193,252.872 223.431,252.746 221.639,257C220.283,260.218 221.813,261.759 218.262,262.286C191.08,266.317 166.058,256.985 138.5,257C133.112,257.003 127.775,258.201 122.5,259.3C121.33,259.544 119.004,262.044 117.615,262.023C116.209,262.001 114.908,260.251 113.593,260.75C111.13,261.685 113.956,264.095 111.484,264.848C109.673,265.4 103.927,264.846 102.936,265.449C101.993,266.023 103.376,268.055 102.505,268.732C100.228,270.5 97.078,270.712 94.5,272C92.291,273.103 91.039,275.578 89.574,276.585C87.338,278.122 83.758,276.549 81.594,278.184C80.85,278.746 81.965,280.231 81.402,280.973C79.948,282.887 71.268,287.248 69.163,287.963C64.556,289.526 64.078,286.5 60.023,289.014C59.572,289.293 61.151,290.094 60.743,290.433C58.248,292.505 56.697,290.018 54.149,291.659C53.482,292.088 54.012,293.636 53.252,293.865C48.429,295.315 30.374,299.203 24.25,295.311C23.504,294.837 25.289,293.843 26,293.318C27.513,292.2 30.226,293.407 31.491,292.015C32.048,291.402 29.342,292.279 29.059,291.5C28.289,289.379 32.436,288.895 32.981,288.488C33.309,288.243 33.007,286.349 33.15,286.156C34.585,284.221 36,285.17 36,282.469L36,278L28.75,277.93C25.656,277.9 22.576,277.463 19.512,277.034C18.957,276.956 17.632,276.882 17.947,276.418C18.368,275.799 19.435,276.227 20.167,276.07C26.351,274.746 32.25,272.127 38.508,271.22C46.033,270.128 53.755,271.267 61.302,270.339C63.387,270.083 65.32,268.949 67.416,268.816C69.781,268.665 72.13,269.681 74.493,269.5C75.506,269.422 73.638,267.131 74.396,266.455C81.987,259.675 83.428,261.642 90.28,254.277C92.675,251.702 95.788,244.014 97.962,241.288C99.384,239.504 100.678,241.376 101.856,239.288C102.629,237.918 102.413,236.096 103.291,234.79C105.015,232.227 106.174,233.663 107.665,231.054C108.15,230.205 107.977,228.904 108.774,228.337C112.682,225.556 112.911,226.119 116.8,223.16C118.077,222.188 120.457,223.58 121.555,222.41C122.382,221.529 121.681,219.686 122.64,218.951C123.939,217.955 126.007,218.696 127.438,217.9C131.847,215.449 130.193,213.569 134.592,211.391C137.806,209.799 141.288,208.817 144.631,207.518C147.882,206.255 151.736,206.797 154.831,205.19C155.473,204.857 154.792,203.445 155.43,203.104C156.248,202.668 157.269,203.393 158.195,203.394C160.292,203.394 166.646,201.835 168.214,200.87C168.965,200.408 168.337,198.808 169.108,198.381C171.162,197.243 175.047,198.58 176.912,199.25C177.258,199.374 177.755,200.198 177.844,199.841C178.065,198.958 176.928,197.893 177.441,197.141C179.676,193.86 194.621,194.926 196.558,194.655C197.802,194.481 197.657,192.732 198.619,192.319C206.078,189.121 206.529,190.922 214,188C215.778,187.304 217.044,185.477 218.901,185.034C219.784,184.823 220.431,186.294 221.338,186.25C221.773,186.229 223.158,183.135 223.25,183.102C225.133,182.435 227.34,183.147 229.204,182.428C235.553,179.979 240.651,175.051 246.565,171.683C246.676,171.62 257.003,167.579 257.25,166.428C257.391,165.769 255.743,165.426 256.03,164.816C256.396,164.039 257.85,164.527 258.44,163.902C259.645,162.626 259.888,160.605 261.155,159.389C262.381,158.212 266.723,157.825 267.25,155.338C267.445,154.418 265.682,153.695 266,152.81C266.429,151.616 268.234,151.48 269,150.469C271.933,146.594 274.58,142.494 277,138.279C281.409,130.601 281.501,130.861 286,122.893C286.682,121.685 287.342,120.328 288.5,119.564C289.266,119.058 290.817,120.237 291.25,119.428C291.709,118.569 290.039,117.769 289.98,116.796C289.951,116.319 292.48,115.287 292.512,115.211C293.342,113.261 291.208,112.617 292.369,110.654C293.95,107.982 295.516,109.755 297,107.063C297.598,105.979 297.087,104.478 297.731,103.42C298.492,102.173 300.047,101.608 301,100.5C304.084,96.916 306.475,92.735 309.81,89.382C312.095,87.087 315.911,86.903 318.384,84.812C321.8,81.924 321.536,79.047 326.564,78.013C328.656,77.582 333.337,80.009 331.888,81.578C330.976,82.565 328.891,80.869 327.859,81.73C324.482,84.546 322.618,91.235 323.436,95.414C323.58,96.15 324.875,95.839 325.607,96C328.355,96.603 331.07,97.939 333.874,97.703C340.914,97.111 346.5,92.143 346.5,86.054L346.5,79.293L339.56,79.088C316.733,78.418 349.177,75 350.665,75L362.212,75L359.106,77.901M379.583,78C381.02,78 381.891,78.586 382,80.067C382.03,80.472 381.957,81.263 381.596,81.559C380.783,82.225 379.335,80.604 378.707,81.536C377.869,82.78 379.652,84.188 378.812,85.425C378.191,86.34 376.947,84.559 376.155,85.15C375.75,85.453 376.448,87.173 376.444,87.364C376.414,88.797 374.857,90.297 373.999,91.155L371,94.154L371,91.148C371,88.67 372.403,87.368 373.559,85.269C373.929,84.598 373.791,83.933 374.294,83.315C374.424,83.155 375.282,82.936 375.395,82.704C376.175,81.097 376.01,79.44 376.013,77.738C376.014,77.399 376.022,76.738 376.46,76.561C376.737,76.449 376.803,77.066 377.049,77.236C377.803,77.758 378.672,78 379.583,78M311.465,250.25C312.027,255.096 311.625,255.105 312.624,259.914C312.785,260.691 313.673,260.029 314.045,260.571C314.628,261.421 314.786,262.508 315.332,263.383C316.063,264.556 317.969,265.393 316.811,267.064C315.563,268.865 312.508,267.994 310.893,268C310.112,268.003 307.594,268.418 306.455,268.017C306.04,267.871 305.594,267.666 305.347,267.303C305.248,267.158 305.678,265.757 305.141,265.73C303.991,265.673 302.825,265.957 301.686,265.784C301.072,265.691 300.876,264.537 300.391,264.328C299.434,263.916 297.914,264.35 297.39,263.449C296.969,262.726 297.279,261.615 297.848,261.085C297.974,260.967 299.453,260.826 299.456,260.35C299.459,259.69 297.8,256.936 298.849,256.114C299.582,255.539 299.826,256.28 300.567,255.689C300.716,255.569 301.067,254.48 301.339,254.403C301.438,254.375 302.638,254.932 302.802,254.813C302.958,254.701 302.666,254.447 302.658,254.255C302.627,253.531 302.743,253.167 303.225,252.609C304.72,250.88 306.504,249.412 307.973,247.66C308.385,247.168 308.729,246.613 309,246.031C309.204,245.593 309.312,243.6 310.044,245.205C310.351,245.879 310.666,246.555 310.867,247.268C311.142,248.244 311.348,249.243 311.465,250.25"/>
</g>
</svg>
