<svg id="svg" version="1.1" width="400" height="400" xmlns="http://www.w3.org/2000/svg" xmlns:xlink="http://www.w3.org/1999/xlink" style="display: block;"><g id="svgg"><path id="path0" d="M50.000 200.000 L 50.000 275.000 75.000 275.000 L 100.000 275.000 100.000 238.000 L 100.000 201.000 102.000 203.000 C 103.100 204.100,104.000 205.402,104.000 205.893 C 104.000 206.384,104.675 207.045,105.500 207.362 C 106.325 207.678,107.000 208.589,107.000 209.385 C 107.000 210.182,107.341 210.983,107.757 211.167 C 108.174 211.350,110.074 213.525,111.980 216.000 C 113.887 218.475,116.021 220.860,116.723 221.300 C 117.425 221.740,118.000 222.752,118.000 223.550 C 118.000 224.347,118.375 225.000,118.834 225.000 C 119.292 225.000,121.372 227.475,123.456 230.500 C 125.539 233.525,127.639 236.000,128.122 236.000 C 128.605 236.000,129.000 236.675,129.000 237.500 C 129.000 238.325,129.464 239.000,130.031 239.000 C 130.599 239.000,131.357 239.768,131.718 240.707 C 134.585 248.178,140.415 248.178,143.282 240.707 C 143.643 239.768,144.401 239.000,144.969 239.000 C 145.536 239.000,146.000 238.325,146.000 237.500 C 146.000 236.675,146.395 236.000,146.878 236.000 C 147.361 236.000,149.461 233.525,151.544 230.500 C 153.628 227.475,155.708 225.000,156.166 225.000 C 156.625 225.000,157.000 224.347,157.000 223.550 C 157.000 222.752,157.575 221.740,158.277 221.300 C 158.979 220.860,161.113 218.475,163.020 216.000 C 164.926 213.525,166.826 211.350,167.243 211.167 C 167.659 210.983,168.000 210.182,168.000 209.385 C 168.000 208.589,168.675 207.678,169.500 207.362 C 170.325 207.045,171.000 206.384,171.000 205.893 C 171.000 205.402,171.900 204.100,173.000 203.000 C 175.000 201.000,175.000 201.000,175.000 238.000 L 175.000 275.000 200.000 275.000 L 225.000 275.000 225.000 200.000 L 225.000 125.000 199.750 125.034 L 174.500 125.068 167.500 134.663 C 163.650 139.940,159.713 144.975,158.750 145.851 C 157.787 146.728,157.000 147.813,157.000 148.264 C 157.000 148.715,156.540 149.628,155.977 150.292 C 152.298 154.637,141.883 168.452,140.047 171.425 C 137.356 175.779,137.644 175.779,134.953 171.425 C 133.117 168.452,122.702 154.637,119.023 150.292 C 118.460 149.628,118.000 148.715,118.000 148.264 C 118.000 147.813,117.213 146.728,116.250 145.851 C 115.287 144.975,111.350 139.940,107.500 134.663 L 100.500 125.068 75.250 125.034 L 50.000 125.000 50.000 200.000 M275.000 162.500 L 275.000 200.000 256.500 200.000 C 246.325 200.000,238.000 200.264,238.000 200.587 C 238.000 201.442,244.367 210.441,245.250 210.833 C 245.662 211.017,246.000 211.804,246.000 212.583 C 246.000 213.363,246.353 214.000,246.784 214.000 C 247.216 214.000,248.418 215.463,249.456 217.250 C 250.494 219.037,251.941 220.860,252.672 221.300 C 253.402 221.740,254.000 222.557,254.000 223.116 C 254.000 224.243,259.065 231.306,260.250 231.833 C 260.663 232.017,261.000 232.598,261.000 233.126 C 261.000 233.913,268.216 244.242,269.994 246.000 C 270.272 246.275,271.073 247.400,271.773 248.500 C 272.473 249.600,273.980 251.963,275.122 253.750 C 276.263 255.537,277.603 257.000,278.099 257.000 C 278.594 257.000,279.000 257.463,279.000 258.028 C 279.000 258.594,281.813 262.988,285.250 267.794 C 288.688 272.600,292.849 278.549,294.497 281.016 C 299.395 288.343,299.893 288.329,304.988 280.713 C 306.907 277.846,308.707 275.275,308.988 275.000 C 309.270 274.725,311.057 272.250,312.960 269.500 C 314.863 266.750,316.775 264.350,317.210 264.167 C 317.644 263.983,318.000 263.402,318.000 262.874 C 318.000 262.347,318.455 261.372,319.012 260.708 C 319.569 260.044,321.363 257.700,323.000 255.500 C 324.637 253.300,326.319 251.039,326.738 250.476 C 327.157 249.913,329.057 247.213,330.960 244.476 C 332.863 241.739,334.775 239.350,335.210 239.167 C 335.644 238.983,336.000 238.402,336.000 237.874 C 336.000 237.347,336.455 236.372,337.012 235.708 C 337.569 235.044,339.363 232.700,341.000 230.500 C 342.637 228.300,344.431 225.956,344.988 225.292 C 345.545 224.628,346.000 223.814,346.000 223.484 C 346.000 222.682,352.296 214.591,353.250 214.167 C 353.663 213.983,354.000 213.233,354.000 212.500 C 354.000 211.767,354.337 211.017,354.750 210.833 C 355.633 210.441,362.000 201.442,362.000 200.587 C 362.000 200.264,353.675 200.000,343.500 200.000 L 325.000 200.000 325.000 162.500 L 325.000 125.000 300.000 125.000 L 275.000 125.000 275.000 162.500 " stroke="none" fill="#000000" fill-rule="evenodd"></path></g></svg>