<svg xmlns="http://www.w3.org/2000/svg" version="1.1" width="623" height="623">
  <g transform="matrix(1.5577963,0,0,1.5577963,-0.70492456,140.98595)">
<path d="M 61.165,10.138 C 31.644,58.482 1.984,107.2 1.346,108.391 c -0.808,1.51 3.382,8.559 56.44,94.98 l 9.165,14.928 h 28.2 c 15.509,0 28.072,-0.217 27.916,-0.482 -0.157,-0.265 -4.983,-8.138 -10.726,-17.496 C 98.102,177.119 90.968,165.487 83.89,153.933 80.591,148.547 73.078,136.306 67.194,126.729 l -10.697,-17.412 5.345,-8.591 c 2.94,-4.725 11.64,-18.787 19.334,-31.249 l 13.989,-22.658 4.814,7.89 c 20.958,34.353 33.256,54.192 33.841,54.591 0.38,0.259 13.14,0.476 28.357,0.482 l 27.666,0.009 16.595,-27.126 c 21.023,-34.366 21.521,-35.16 22.03,-35.119 0.404,0.032 37.424,60.252 37.883,61.622 0.121,0.361 -3.097,6.066 -7.152,12.678 -4.054,6.612 -18.96,30.911 -33.124,53.997 -14.165,23.087 -25.754,42.084 -25.754,42.216 0,0.132 12.664,0.24 28.141,0.24 h 28.142 l 18.194,-29.695 c 10.007,-16.333 24.796,-40.447 32.865,-53.588 8.069,-13.142 14.839,-24.332 15.044,-24.867 0.231,-0.602 -12.36,-21.744 -32.901,-55.247 L 256.531,0.629 228.305,0.796 200.08,0.963 181.1,31.942 C 170.662,48.981 161.976,62.918 161.799,62.914 161.622,62.91 156.726,55.181 150.919,45.739 145.112,36.297 136.455,22.282 131.682,14.595 L 123.002,0.618 94.967,0.655 66.932,0.693 61.165,10.138 M 277.453,2.087 c 0.963,1.8 28.585,46.989 49.31,80.67 8.56,13.911 15.709,25.673 15.887,26.137 0.178,0.464 -1.828,4.395 -4.457,8.736 -12.304,20.309 -60.371,98.49 -60.887,99.031 -0.319,0.336 -0.58,0.841 -0.58,1.124 0,0.282 12.64,0.513 28.089,0.513 h 28.09 l 11.332,-18.459 c 40.3,-65.65 54.664,-89.142 54.932,-89.84 0.168,-0.437 -3.3,-6.658 -7.707,-13.824 -7.715,-12.547 -30.98,-50.493 -49.614,-80.924 L 332.905,0.646 304.793,0.644 276.68,0.642 l 0.773,1.445"   style="fill-rule:evenodd;stroke:none" />
  </g>
</svg>
