<?xml version="1.0" encoding="UTF-8" standalone="no"?>
<!DOCTYPE svg PUBLIC "-//W3C//DTD SVG 1.1//EN" "http://www.w3.org/Graphics/SVG/1.1/DTD/svg11.dtd">
<svg width="100%" height="100%" viewBox="0 0 400 400" version="1.1" xmlns="http://www.w3.org/2000/svg" xmlns:xlink="http://www.w3.org/1999/xlink" xml:space="preserve" xmlns:serif="http://www.serif.com/" style="fill-rule:evenodd;clip-rule:evenodd;stroke-linejoin:round;stroke-miterlimit:2;">
    <g id="svgg">
        <path id="path0" d="M118.224,105.25C116.183,107.749 111.023,119.364 110.389,122.887C110.032,124.874 109.388,126.95 108.959,127.5C108.53,128.05 107.855,130.3 107.459,132.5C107.063,134.7 106.418,136.95 106.026,137.5C105.634,138.05 104.722,142.55 104,147.5C103.278,152.45 102.351,156.95 101.94,157.5C101.529,158.05 100.869,161.2 100.473,164.5C100.077,167.8 99.403,170.95 98.975,171.5C98.547,172.05 97.874,175.544 97.48,179.264C97.086,182.984 96.367,186.273 95.882,186.573C95.397,186.873 95,188.441 95,190.059C95,193.224 94.136,193.737 92.151,191.75C91.216,190.814 84.33,190.5 64.701,190.5L38.5,190.5L38.188,192.692C37.956,194.326 38.72,195.311 41.188,196.559C47.228,199.613 55,210.765 55,216.378C55,217.205 55.411,218.136 55.913,218.446C56.415,218.757 57.141,220.921 57.526,223.255C57.911,225.59 58.57,227.95 58.99,228.5C59.41,229.05 60.075,232.16 60.469,235.411C60.862,238.662 61.556,242.037 62.01,242.911C62.465,243.785 63.364,247.761 64.009,251.747C64.653,255.732 65.59,259.247 66.09,259.556C66.591,259.865 67,260.891 67,261.836C67,262.781 68.325,265.005 69.944,266.777L72.887,270L123.919,270L126.491,267.25C127.905,265.738 129.322,263.488 129.64,262.25C129.957,261.012 130.582,260 131.029,260C131.476,260 132.154,258.538 132.536,256.75C132.918,254.963 133.58,253.05 134.006,252.5C134.433,251.95 135.379,248.237 136.108,244.25C136.837,240.262 137.734,237 138.101,237C138.467,237 139.08,234.075 139.463,230.5C139.846,226.925 140.528,224 140.978,224C141.429,224 142.114,220.848 142.5,216.996C142.887,213.144 143.555,209.775 143.985,209.509C144.415,209.244 145.071,206.433 145.443,203.263C146.827,191.464 149.33,191.355 150.504,203.042C150.889,206.869 151.521,210 151.91,210C152.299,210 153.201,214.162 153.914,219.25C154.628,224.338 155.563,228.95 155.994,229.5C156.424,230.05 157.094,232.863 157.482,235.75C157.87,238.637 158.595,241 159.094,241C159.592,241 160,242.097 160,243.438C160,248.969 165.222,262.149 168.976,266.096L172.69,270L197.71,270C221.646,270 222.846,269.909 225.411,267.891C229.088,264.999 236,249.068 236,243.485C236,242.338 236.437,240.963 236.971,240.429C237.505,239.895 238.406,236.092 238.973,231.979C239.54,227.865 240.434,223.6 240.958,222.5C241.483,221.4 242.407,217.575 243.012,214C243.616,210.425 244.742,203.732 245.512,199.126C247.003,190.219 248,187.673 248,192.774C248,194.484 248.45,196.16 249,196.5C249.55,196.84 250.018,198.554 250.04,200.309C250.062,202.064 250.756,206.875 251.582,211C252.409,215.125 253.628,221.425 254.292,225C254.957,228.575 255.811,231.976 256.19,232.557C256.57,233.139 257.19,235.952 257.569,238.807C257.948,241.663 258.65,244 259.129,244C259.608,244 260.003,245.012 260.006,246.25C260.01,247.488 260.668,249.757 261.469,251.292C262.27,252.828 263.232,255.721 263.608,257.722C264.02,259.919 265.867,263.07 268.272,265.68L272.255,270L322.897,270L325.595,267.5C327.078,266.125 327.889,264.993 327.396,264.985C326.903,264.976 326.95,264.639 327.501,264.235C329.033,263.11 333,254.529 333,252.34C333,251.273 333.41,249.973 333.912,249.45C334.414,248.928 335.343,242.66 335.978,235.523C336.613,228.385 337.489,222.085 337.925,221.523C338.362,220.96 339.016,218.936 339.379,217.024C340.814,209.478 350.943,196 355.18,196C356.681,196 359,193.312 359,191.571C359,190.183 356.126,190.012 334.25,190.1C307.721,190.207 306.443,190.351 302.637,193.681L300.144,195.861L299.456,189.431C299.077,185.894 298.467,183 298.1,183C297.734,183 296.861,178.178 296.161,172.285C295.461,166.392 294.514,161.105 294.056,160.535C293.598,159.966 292.903,156.687 292.513,153.248C292.123,149.81 291.45,146.778 291.018,146.511C290.587,146.245 289.925,143.553 289.547,140.529C289.169,137.505 288.493,134.805 288.045,134.528C287.597,134.251 286.913,131.908 286.525,129.321C285.441,122.092 280.697,110.486 277.093,106.25C274.087,102.715 220.508,102.715 217.317,106.25C214.548,109.318 212.466,113.853 210.921,120.185C210.208,123.108 209.301,125.95 208.905,126.5C208.51,127.05 207.868,129.643 207.478,132.262C207.088,134.882 206.403,137.251 205.955,137.528C205.507,137.805 204.828,140.612 204.447,143.766C204.065,146.92 203.39,149.958 202.947,150.518C202.503,151.078 201.575,155.575 200.884,160.512C198.811,175.336 196.721,177.363 195.485,165.75C195.09,162.037 194.428,159 194.013,159C193.598,159 192.941,156.192 192.552,152.76C192.164,149.328 191.491,146.065 191.056,145.51C190.621,144.954 189.699,140.779 189.007,136.232C188.316,131.684 187.395,127.744 186.962,127.476C186.529,127.209 185.87,125.192 185.499,122.995C185.128,120.798 184.414,119 183.912,119C183.41,119 183,117.975 183,116.723C183,114.251 181.132,111.061 177.16,106.75L174.626,104L146.935,104C125.994,104 118.996,104.305 118.224,105.25M173.816,107.915C180.464,111.528 183.666,128.224 185.545,135.516C189.754,151.854 191.184,169.197 195.77,185.296C196.406,187.528 197.937,186.326 198.739,188.515C200.083,192.185 197.204,196.179 196.388,200C194.187,210.304 192.308,220.679 189.875,230.931C188.113,238.354 186.102,245.724 183.809,253C183.159,255.062 179.415,267.924 174.386,266.516C166.726,264.372 163.368,246.22 161.5,239C157.217,222.444 154.438,205.511 150.967,188.75C150.219,185.139 149.519,181.499 148.355,178C148.198,177.529 147.135,177.668 147.117,177.172C146.917,171.666 149.341,166.379 150.536,161C152.597,151.725 154.357,142.376 156.764,133.184C157.528,130.266 162.721,101.887 173.816,107.915M275.549,109.647C282.596,117.253 284.736,133.013 286.99,142.494C290.917,159.008 294.412,175.959 297.187,192.709C297.552,194.915 296.782,197.265 297.401,199.413C297.733,200.565 299.863,200.767 299.936,201.963C300.107,204.781 297.048,206.892 296.307,209.616C294.929,214.675 294.263,219.904 293.032,225C290.56,235.233 288.35,245.551 285.2,255.596C284.428,258.057 280.773,265.832 276.525,266.24C271.102,266.761 269.347,261.824 267.394,258.221C263.785,251.561 262.387,243.497 260.518,236.25C257.049,222.801 254.235,209.142 251.534,195.514C250.879,192.207 250.419,184.829 249.119,181.321C248.451,179.521 246.525,180.731 246.821,178.724C248.609,166.572 253.819,142.395 256.075,133.899C256.489,132.34 263.933,97.113 275.549,109.647M93,195.5C102.793,201.096 95.72,203.921 92.942,218C90.584,229.953 87.999,244.954 82.66,256.185C82.421,256.688 78.28,265.383 75.69,265.821C71.859,266.469 69.981,260.023 69.087,257.554C64.821,245.778 64.193,233.27 60.541,221.5C58.682,215.509 56.944,209.809 53.505,204.5C52.099,202.33 50.825,200.042 49.109,198.108C47.983,196.838 46.391,196.074 45.077,195C44.686,194.68 43.522,194.097 44,193.932C49.124,192.162 64.699,192.949 66.975,193.022C72.532,193.2 78.093,193.439 83.628,193.966C86.78,194.266 90.252,193.929 93,195.5"/>
    </g>
</svg>
