<svg width="100%" height="100%" viewBox="0 0 400 400" version="1.1" xmlns="http://www.w3.org/2000/svg" style="fill-rule:evenodd;clip-rule:evenodd;stroke-linejoin:round;stroke-miterlimit:2;">
<g>
<path d="M118.224,105.25C114.155,110.232 112.862,116.948 110.389,122.887C104.083,138.032 102.214,155.523 98.975,171.5C97.426,179.139 97.632,178.957 95.882,186.573C95.4,188.67 96.17,191.738 94.32,192.837C93.625,193.249 92.957,191.814 92.151,191.75C83.02,191.03 73.86,190.5 64.701,190.5L38.5,190.5L38.188,192.692C37.747,195.799 44.5,198.794 45.894,200.155C48.815,203.005 52.077,207.562 53.691,211.343C59.116,224.048 60.741,238.414 64.009,251.747C65.158,256.434 66.436,262.938 69.944,266.777L72.887,270L123.919,270L126.491,267.25C132.164,261.184 134.096,251.864 136.108,244.25C139.146,232.751 141.493,221.137 143.985,209.509C144.587,206.7 147.103,195.966 148.052,194.345C148.48,193.616 149.183,195.673 149.413,196.487C150.014,198.619 150.101,200.864 150.504,203.042C151.529,208.59 152.75,213.691 153.914,219.25C155.652,227.548 157.749,235.329 160,243.438C162.146,251.168 163.049,259.865 168.976,266.096L172.69,270L197.71,270C204.999,270 212.307,270.256 219.575,269.702C221.606,269.548 223.999,269.359 225.411,267.891C232.018,261.022 233.407,252.117 236,243.485C238.881,233.893 241.097,223.831 243.012,214C244.523,206.247 244.434,198.052 247.315,190.697C247.581,190.018 247.797,192.074 248,192.774C248.359,194.009 248.664,195.259 249,196.5C250.932,203.634 250.301,203.562 251.582,211C253.637,222.934 256.313,234.741 260.006,246.25C262.133,252.879 263.33,260.317 268.272,265.68L272.255,270L322.897,270L325.595,267.5C338.442,255.588 334.107,231.726 339.379,217.024C341.898,210 345.33,203.198 351.125,198.224C351.552,197.857 360.718,194.099 359,191.571C358.182,190.367 356.281,190.368 354.828,190.282C347.981,189.875 341.109,190.039 334.25,190.1C330.045,190.137 309.846,187.373 302.637,193.681L300.144,195.861L299.456,189.431C297.32,169.499 292.232,148.591 286.525,129.321C285.186,124.799 281.662,109.832 277.093,106.25C274.377,104.121 270.371,104.567 266.934,104.262C260.403,103.681 253.831,103.599 247.274,103.599C246.015,103.599 222.401,103.426 217.317,106.25C214.296,107.928 211.611,118.079 210.921,120.185C205.309,137.306 204.208,156.338 197.871,173.045C197.666,173.584 196.738,172.464 196.559,171.915C195.91,169.933 195.888,167.797 195.485,165.75C194.179,159.123 193.962,159.192 192.552,152.76C189.376,138.27 187.795,118.293 177.16,106.75L174.626,104L146.935,104C125.994,104 118.996,104.305 118.224,105.25M173.816,107.915C181.496,112.089 184.14,129.28 185.545,135.516C187.411,143.798 188.808,152.179 190.516,160.496C192.216,168.773 193.7,177.103 195.77,185.296C196.128,186.711 198.505,187.074 198.739,188.515C199.594,193.785 197.534,195.045 196.388,200C194.013,210.265 192.308,220.679 189.875,230.931C188.113,238.354 186.023,245.699 183.809,253C183.326,254.592 179.687,268.366 174.386,266.516C165.569,263.44 162.875,245.123 161.5,239C157.75,222.302 154.572,205.48 150.967,188.75C150.19,185.145 149.519,181.499 148.355,178C148.198,177.529 147.12,177.668 147.117,177.172C147.083,171.296 149.216,166.594 150.536,161C152.718,151.752 154.474,142.405 156.764,133.184C157.655,129.598 162.361,101.692 173.816,107.915M275.549,109.647C283.091,117.787 284.92,132.623 286.99,142.494C290.495,159.21 294.114,175.908 297.187,192.709C297.589,194.908 296.764,197.27 297.401,199.413C297.742,200.562 299.74,200.781 299.936,201.963C300.245,203.83 296.718,208.167 296.307,209.616C294.878,214.66 294.263,219.904 293.032,225C290.56,235.233 288.19,245.502 285.2,255.596C284.193,258.998 280.908,265.589 276.525,266.24C271.638,266.966 268.991,261.765 267.394,258.221C263.621,249.849 262.54,245.174 260.518,236.25C257.445,222.689 254.359,209.129 251.534,195.514C250.559,190.815 250.303,185.972 249.119,181.321C248.959,180.694 248.038,180.585 247.609,180.1C237.233,168.375 252.455,149.132 256.075,133.899C256.514,132.05 263.955,97.136 275.549,109.647M93,195.5C102.366,200.852 94.767,210.227 92.942,218C90.199,229.685 89.676,236.67 86.187,247.161C84.4,252.537 81.873,259.772 77.838,264.201C76.35,265.835 75.242,266.547 73.168,265.15C71.184,263.814 69.517,259.052 69.087,257.554C63.959,239.707 65.23,239.522 60.541,221.5C58.942,215.355 56.694,209.986 53.505,204.5C52.206,202.264 50.825,200.042 49.109,198.108C47.983,196.839 46.391,196.074 45.077,195C44.686,194.68 43.504,194.028 44,193.932C56.83,191.457 70.779,193.228 83.628,193.966C86.366,194.123 90.463,194.049 93,195.5"/>
</g>
</svg>
