<svg width="100%" height="100%" viewBox="0 0 400 400" version="1.1" xmlns="http://www.w3.org/2000/svg" style="fill-rule:evenodd;clip-rule:evenodd;stroke-linejoin:round;stroke-miterlimit:2;">
    <g>
        <path d="M72,83.43C72,86.572 68.254,85.007 67.775,88.028C66.769,94.378 67.823,100.958 66.677,107.284C66.456,108.506 64.316,108.558 63.849,109.709C61.693,115.021 61.833,122.311 61.945,127.86C62.289,144.912 62.332,161.979 63.263,179.009C63.466,182.718 66.422,182.921 66.713,186.592C67.545,197.098 66.312,207.752 67.754,218.193C68.8,225.764 72,224.916 72,232.57L72,244L74.5,244C80.013,244 77.208,260.727 77.301,261.535C77.374,262.166 80.497,263.583 80.626,264.151C82.26,271.347 82.452,271.092 85.605,277.861C86.659,280.123 85.537,282.962 86.391,285.307C86.879,286.645 90.303,285.279 90.661,286.95C91.491,290.825 90.589,294.925 91.317,298.821C91.871,301.785 96.797,305 90.861,305L86,305L86,309.5C86,313 88.832,312.427 90.5,314.5C90.92,315.022 90.801,318.14 91.7,318.611C93.923,319.774 97.109,317.956 99.187,319.361C102.135,321.354 101.513,321.845 104.5,323.5C109.005,325.996 99.158,328.212 99.422,331.656C99.553,333.368 104.543,337.542 104.611,337.698C106.221,341.431 103.249,345.574 108.335,347.03C112.464,348.213 115.89,343.655 119,348.519C120.515,350.888 114.775,351.152 114.391,351.693C112.344,354.582 110.971,357.938 109.85,361.298C106.979,369.896 109.371,370.545 104.611,378.3C103.836,379.562 100.888,378.297 100.391,379.693C99.554,382.044 100.666,384.88 99.605,387.139C97.748,391.094 95.428,389.885 95.2,394.25L94.9,400L99.95,400C101.478,400 107.561,398.639 108.65,397.125C110.286,394.85 108.174,391.281 109.375,388.75C110.015,387.402 113.099,388.702 113.611,387.3C114.485,384.908 113.152,381.926 114.389,379.7C115.109,378.404 117.887,379.594 118.611,378.3C119.836,376.111 118.665,373.222 119.361,370.813C119.703,369.629 122.332,370.315 122.65,369.125C123.121,367.362 121.109,359.976 125.5,360C129.998,360.025 127.71,367.434 128.375,369.25C128.903,370.693 132.084,369.525 132.661,370.95C134.504,375.502 135.741,380.304 136.679,385.125C138.198,392.937 135.577,400 146.5,400L151,400L151,394C151,389.739 148.501,390.893 147.354,387.155C146.773,385.264 147.245,378.024 146.263,376.144C142.608,369.138 142.945,369.154 141.189,361.524C140.126,356.909 138.609,352.375 136.672,348.054C136.013,346.583 132.396,346.693 133,344.5C133.917,341.174 138.602,340.761 141.182,342.36C142.636,343.261 142.916,345.393 144.23,346.488C147.876,349.523 151,344.433 151,341.433L151,337L158,337C162.56,337 161.605,334.425 166.151,333.374C173.365,331.707 173.11,331.54 179.861,328.395C182.123,327.341 185.136,328.839 187.307,327.609C188.548,326.906 187.492,324.509 188.5,323.5C189.509,322.49 191.656,323.361 192.611,322.3C194.315,320.407 191.685,316.593 193.389,314.7C194.344,313.639 196.418,314.431 197.5,313.5C201.236,310.286 198.821,308.562 202.563,305.45C202.979,305.103 206.328,305.082 206.66,304.057C207.884,300.273 205.755,295.792 207.343,292.146C208.786,288.83 213.575,288.088 215.557,285.426C216.361,284.347 215.548,282.452 216.5,281.5C217.452,280.548 219.364,281.383 220.426,280.557C223.888,277.864 227.048,274.703 229.643,271.167C235.572,263.086 232.547,261.973 235.355,253.847C236.631,250.152 243.012,251.956 243.683,247.821C244.318,243.909 242.991,239.677 244.339,235.95C244.839,234.569 247.443,235.519 248.5,234.5C252.12,231.01 249.479,229.17 253.563,226.45C254.738,225.667 256.733,226.345 257.625,225.25L258.375,216.75C260.063,213.048 265.657,215.666 266.65,211.125C267.248,208.387 266.547,205.427 267.375,202.75C267.829,201.282 271.332,202.551 271.661,201.05C272.525,197.104 270.992,192.758 272.339,188.95C272.821,187.589 275.282,188.415 276.437,187.55C280.351,184.621 277.69,182.778 281.5,179.5C282.582,178.569 284.656,179.361 285.611,178.3C287.315,176.407 284.685,172.593 286.389,170.7C287.344,169.639 289.498,170.517 290.5,169.5C291.447,168.538 290.62,166.628 291.45,165.563C292.161,164.649 293.991,165.146 294.639,164.187C296.044,162.109 294.188,158.902 295.389,156.7C296.072,155.448 298.785,156.519 299.5,155.5C300.29,154.375 299.555,152.498 300.5,151.5C301.51,150.434 304.163,151.432 304.661,150.05C306.011,146.305 304.623,142.044 305.321,138.125C305.406,137.651 308.658,135.049 308.723,134.437C309.283,129.154 308.862,123.811 309,118.5C309.271,108.043 310.613,105.506 304.82,97.75C303.413,95.866 300.862,92.022 298.261,91.292C287.103,88.159 287.017,90.117 276.437,94.55C275.192,95.072 273.462,94.553 272.5,95.5C271.483,96.502 272.361,98.656 271.3,99.611C269.407,101.315 265.593,98.685 263.7,100.389C262.639,101.344 263.517,103.498 262.5,104.5C261.538,105.447 259.667,104.673 258.563,105.45C257.386,106.278 257.125,107.983 256.108,109C254.062,111.046 251.257,112.307 249.448,114.566C248.605,115.619 249.454,117.546 248.5,118.5C247.545,119.455 245.673,118.682 244.563,119.45C240.39,122.334 243.215,124.332 239.5,127.5C238.454,128.392 236.472,127.528 235.5,128.5C232.996,131.004 233.555,131.382 230.563,133.45C226.39,136.334 229.215,138.332 225.5,141.5C224.454,142.392 222.472,141.528 221.5,142.5C220.528,143.472 221.471,145.527 220.5,146.5C219.547,147.456 217.675,146.684 216.563,147.45C212.421,150.302 215.184,152.285 211.5,155.5C210.424,156.439 208.344,155.639 207.389,156.7C205.685,158.593 208.315,162.407 206.611,164.3C205.656,165.361 203.562,164.546 202.5,165.5C196.246,171.121 198.933,173.274 192.378,178.486C191.288,179.353 189.051,178.49 188.385,179.713C187.187,181.912 188.656,184.899 187.639,187.187C187.169,188.245 185.161,187.649 184.45,188.563C183.62,189.628 184.448,191.539 183.5,192.5C182.499,193.515 180.094,192.452 179.391,193.693C178.161,195.864 179.269,198.733 178.605,201.139C177.621,204.704 174.46,203.559 172.284,205.339C167.991,208.851 172.3,210.498 169.611,215.3C168.915,216.543 166.519,215.49 165.507,216.493C164.556,217.436 165.055,219.166 164.486,220.378C163.06,223.417 161.618,226.509 159.563,229.164C155.071,234.967 153.759,233.937 151.389,240.7C151.147,241.392 152.421,249.63 149,249C145.233,248.306 147.024,240.81 147,239.082C146.951,235.491 147.142,231.846 146.448,228.323C146.084,226.472 142.859,226.438 142.318,224.825C141.699,222.982 142.027,220.944 142,219C141.972,217.012 143.307,212 139.5,212L137,212L137,200C137,192.757 134.72,193.371 133.323,186.284C132.079,179.976 133.621,173.303 132.225,167.028C131.878,165.467 129.131,165.559 128.395,164.139C127.444,162.306 129.846,156 125.5,156L123,156L123,142C123,138.01 123.275,133.984 122.715,130.034C122.332,127.333 119.773,129.196 119.34,126.535C118.496,121.346 119.578,115.881 118.214,110.805C117.811,109.305 115.038,109.552 114.395,108.139C113.36,105.868 114.446,103.044 113.609,100.693C113.112,99.297 109.877,100.698 109.389,99.3C108.563,96.932 109.658,94.105 108.639,91.813C108.169,90.755 106.177,91.338 105.45,90.437C104.563,89.339 105.439,87.136 104.25,86.375C102.411,85.198 95,88.276 95,83.5L95,81L72,81L72,83.43"/>
    </g>
</svg>
