<?xml version="1.0" encoding="UTF-8" standalone="no"?>
<!DOCTYPE svg PUBLIC "-//W3C//DTD SVG 1.1//EN" "http://www.w3.org/Graphics/SVG/1.1/DTD/svg11.dtd">
<svg width="100%" height="100%" viewBox="0 0 515 515" version="1.1" xmlns="http://www.w3.org/2000/svg" xmlns:xlink="http://www.w3.org/1999/xlink" xml:space="preserve" xmlns:serif="http://www.serif.com/" style="fill-rule:evenodd;clip-rule:evenodd;stroke-linejoin:round;stroke-miterlimit:2;">
    <g id="svgg">
        <path id="path0" d="M133.362,43.5C132.308,46.241 127.692,45.094 124.992,46.25C119.556,48.578 114.484,51.719 109,53.934C101.467,56.977 93.553,59.007 86,62C81.703,63.703 77.58,65.829 73.5,68C72.122,68.734 71.181,70.313 69.667,70.692C65.875,71.642 61.701,70.625 58,71.883C56.28,72.467 55.938,75.073 54.324,75.906C53.044,76.566 51.363,75.53 50.006,76.01C48.321,76.604 47.227,78.362 45.559,79C39.338,81.379 32.886,83.109 26.5,85C25.156,85.398 18.036,85.843 18,89C17.301,149.83 17,210.666 17,271.5L17,454L23.5,454C32.3,454 39.7,448.187 47.638,445.5C56.626,442.457 56.415,442.305 65.463,438.996C66.962,438.448 68.709,439.298 70.25,438.882C70.756,438.745 70.549,437.767 71,437.5C74.681,435.322 78.167,432.618 82.24,431.313C89.249,429.067 89.54,431.518 96.559,429C101.555,427.208 106.462,425.127 111.179,422.694C112.855,421.83 113.831,419.805 115.609,419.176C120.265,417.527 125.307,417.261 130.083,416C133.115,415.199 135.882,413.333 139,413C142.184,412.659 145.276,416.366 148,417C151.811,417.887 155.88,417.322 159.667,418.308C163.014,419.179 165.048,422.949 168.343,424C169.902,424.497 171.729,423.516 173.25,424.118C184.09,428.411 183.887,428.491 195,432.287C203.003,435.021 209.993,440.276 218,443C221.671,444.249 225.698,444.229 229.362,445.5C243.469,450.394 252.021,456.22 267.5,453C276.067,451.218 277.401,448.177 285.638,445.5C289.326,444.301 293.329,444.249 297,443C305.007,440.276 311.997,435.021 320,432.287C324.546,430.734 329.534,430.689 334.031,429C336.881,427.93 338.919,425.239 341.75,424.118C343.271,423.516 345.098,424.497 346.657,424C349.952,422.949 351.986,419.179 355.333,418.308C359.12,417.322 363.189,417.887 367,417C369.724,416.366 372.816,412.659 376,413C379.118,413.333 381.885,415.199 384.917,416C389.693,417.261 394.735,417.527 399.391,419.176C401.169,419.805 402.145,421.83 403.821,422.694C408.538,425.127 413.445,427.208 418.441,429C425.46,431.518 425.751,429.067 432.76,431.313C436.833,432.618 440.319,435.322 444,437.5C444.451,437.767 444.244,438.745 444.75,438.882C446.291,439.298 448.038,438.448 449.537,438.996C458.52,442.281 458.281,442.494 467.362,445.5C477.014,448.695 485.209,454.55 495.75,454.097L498,454L498,271.5C498,210.666 497.968,149.827 497,89C496.931,84.647 484.222,84.376 482.941,84C473.414,81.206 474.397,79.329 464.994,76.01C463.637,75.53 461.956,76.566 460.676,75.906C459.062,75.073 458.72,72.467 457,71.883C453.299,70.625 449.125,71.642 445.333,70.692C443.819,70.313 442.949,68.582 441.5,68C438.117,66.64 434.3,66.48 431,64.929C430.059,64.487 430.236,62.816 429.34,62.287C421.062,57.394 420.337,59.834 411.309,56.574C404.969,54.285 398.799,51.532 392.683,48.699C384.822,45.058 379.492,40.126 370.356,43.213C364.139,45.313 359.126,50.098 353.083,52.656C350.87,53.593 348.246,53.144 346,54C343.786,54.844 342.179,56.972 339.917,57.675C337.415,58.452 334.559,57.468 332.083,58.325C325.71,60.531 320.627,65.686 314.25,67.882C310.449,69.191 310.734,69.279 306.866,70.679C301.244,72.715 300.838,69.939 295.213,72.121C293.925,72.621 293.252,74.149 292.008,74.75C289.794,75.821 287.261,76.09 285,77.059C284.455,77.293 287.138,77.608 286.595,77.845C283.407,79.236 279.737,79.539 276.769,81.351C276.062,81.783 277.397,83.283 276.78,83.836C276.567,84.027 274.492,81.136 274.271,81.24C273.446,81.626 273.835,83.277 273.011,83.666C269.469,85.334 265.152,84.588 261.5,86C260.544,86.37 259.656,86.988 258.97,87.75C258.689,88.063 259.196,89.137 258.798,89C249.135,85.666 249.195,86.237 239.333,83.692C237.821,83.302 236.87,81.75 235.5,81C231.411,78.763 227.05,77.043 222.992,74.75C221.789,74.07 221.075,72.621 219.787,72.121C214.162,69.939 213.756,72.715 208.134,70.679C206.856,70.217 206.313,68.502 205.042,68.02C203.703,67.513 202.099,68.36 200.75,67.882C194.393,65.629 189.306,60.485 182.917,58.325C180.435,57.486 177.599,58.408 175.083,57.675C171.874,56.74 169.175,54.474 166.004,53.417C157.867,50.705 150.88,46.226 142.638,43.5C140.892,42.923 134.749,39.885 133.362,43.5M241,134C241,136.403 245.803,134.584 248.083,135.344C250.841,136.263 253.182,138.286 256,139C259.793,139.962 263.825,139.564 267.667,140.308C268.361,140.442 268.784,141.174 269.357,141.588C275.213,145.815 275.734,143.509 288,142.714C290.694,142.54 289.725,140.416 292.417,140.279C293.388,140.23 311.984,137.648 318.034,142.076C321.66,144.73 321.945,149.417 326,152C327.764,153.124 331.48,153.307 332.25,155.999C334.917,165.319 329.495,174.302 339,180.5C345.238,184.567 351.758,190.797 359,193C362.164,193.962 365.74,193.148 368.833,194.318C372.064,195.54 374.338,198.609 377.5,200C380.51,201.324 384.014,201.163 387.083,202.344C388.43,202.862 389.173,204.435 390.5,205C394.481,206.695 398.986,206.885 403,208.5C410.614,211.564 415.676,215.349 421,221.5C421.952,222.6 423.495,223.479 423.712,224.917C425.194,234.719 425.64,244.663 426,254.571C426.14,258.421 425.753,262.287 425.211,266.101C424.854,268.609 423.319,267.268 422.071,269C418.438,274.044 416.584,279.217 414.5,285C413.748,287.086 412.743,294.264 409.071,294.713C402.991,295.456 396.77,294.825 390.727,295.829C388.374,296.219 386.643,300.489 385,301.5C374.919,307.705 372.313,308.136 360.583,307.703C359.371,307.658 358.975,305.541 357.917,305.325C352.029,304.122 345.912,304.139 340.083,302.675C339.09,302.425 339.044,300.699 338.083,300.344C336.143,299.627 333.914,300.192 331.917,299.656C321.904,296.971 322.053,295.684 312,297.286C306.852,298.106 301.159,304.122 297,306.5C295.063,307.608 286.756,309.958 285,311.5C283.02,313.239 282.222,316.005 280.5,318C278.892,319.862 276.477,320.981 275.071,323C272.364,326.887 273.108,330.844 271.656,335.083C271.197,336.424 269.506,336.201 269.292,337.75C268.132,346.135 269.29,352.868 266.656,361.083C264.812,366.835 261.54,365.172 261,371C260.655,374.724 264,373.624 264,377.5L264,380L244.5,380C241.27,380 238.037,380.598 234.817,380.35C229.012,379.903 229.566,378.255 223.667,377.308C216.239,376.116 208.628,376.156 201.25,374.688C199.606,374.36 198.474,372.798 197,372C191.886,369.233 186.849,366.278 181.5,364C178.145,362.571 174.197,362.682 171,360.929C168.843,359.746 167.894,357.07 166,355.5C163.943,353.795 161.284,352.912 159.245,351.186C157.905,350.051 157.414,348.077 156,347.034C154.076,345.615 151.446,345.389 149.5,344C144.092,340.14 141.603,335.888 138,330.5C137.46,329.692 137.132,328.738 136.5,328C136.109,327.544 134.602,327.45 135,327C137.835,323.795 141.376,325.139 144.5,322.5C149.333,318.418 135.651,317.629 140.5,313.5C143.514,310.934 147.318,311.806 150.45,309.542C151.361,308.883 151.088,305.921 150.2,305.364C146.019,302.736 139.968,306.553 136.5,308C134.477,308.844 129.556,311.147 130,309C130.313,307.486 132.266,307.499 133,306.5C135.217,303.481 137.091,300.222 139,297C139.647,295.907 140.715,293.692 139.4,292.429C137.098,290.216 130.573,294.552 129,295C128.403,295.17 124.871,295.006 125,293.5C125.186,291.322 125.953,288.95 127.55,287.458C128.764,286.324 131.182,287.615 132.45,286.542C133.671,285.508 133.1,283.322 134,282C135.238,280.182 137.288,279.055 138.697,277.366C139.259,276.693 141.013,273.199 139.147,272.353C130.563,268.466 122.44,278.723 116.083,281.656C114.205,282.523 111.828,281.553 109.917,282.344C108.908,282.761 109.015,284.598 108,285C107.441,285.221 106.863,284.085 107,283.5C108.071,278.918 116.313,271.835 118.5,269C122.314,264.056 122.505,261.589 127,257.071C128.406,255.658 136.733,251.942 131.5,248.638C128.905,247 122.168,253.203 120.917,253.675C115.306,255.793 114.932,253.544 109.5,256C107.173,257.052 105.239,260.329 102.387,260.613C101.2,260.731 103.196,258.298 104,257.417C105.645,255.615 107.298,253.819 109,252.071C111.631,249.37 114.05,246.421 117,244.071C120.742,241.091 130.723,238.109 126.531,230.536C124.809,227.425 120.135,232.326 119.083,232.656C117.11,233.276 114.816,232.526 112.917,233.344C107.012,235.887 107.816,237.049 102,239.5C100.86,239.98 99.122,242.203 97.5,240.5C94.091,236.922 102.9,230.948 104.071,230C109.209,225.841 115.268,222.906 120.366,218.697C123.503,216.107 125.92,212.739 128.929,210C130.865,208.238 134.159,207.464 135,204.5C136.123,200.542 127.825,201.96 127.5,202C121.369,202.746 115.153,204.93 109,206C106.262,206.476 104.738,208.191 102,206C101.632,205.706 102.713,205.374 103,205C103.74,204.036 104.212,202.859 105.071,202C111.745,195.326 118.235,191.869 125,185.929C127.482,183.749 130.636,182.407 133.061,180.164C138.335,175.286 136.798,173.838 143,170C145.979,168.156 149.777,167.705 152.5,165.5C153.568,164.635 152.539,162.482 153.5,161.5C154.138,160.848 165.306,155.377 166,154.929C175.47,148.816 176.326,145.928 187,141.5C192.752,139.114 199.181,138.718 205,136.5C214.859,132.742 224.551,132.592 235.192,131.558C236.71,131.411 241,130.739 241,134"/>
    </g>
</svg>
