<svg width="100%" height="100%" viewBox="0 0 515 515" version="1.1" xmlns="http://www.w3.org/2000/svg" style="fill-rule:evenodd;clip-rule:evenodd;stroke-linejoin:round;stroke-miterlimit:2;">
<g>
<path d="M202.585,71.701C202.196,72.711 200.719,72.942 199.645,73.082C194.755,73.719 189.756,73.268 184.881,74.01C183.321,74.247 182.988,77.012 181.698,77.467C175.402,79.689 168.22,78.864 162.073,81.467C160.731,82.036 160.686,84.293 159.358,84.892C151.266,88.543 150.206,84.761 142.448,88.956C140.978,89.751 140.567,91.793 139.239,92.807C131.474,98.738 130.138,96.218 122.206,101.799C120.919,102.705 120.985,104.935 119.65,105.769C116.849,107.519 113.157,107.454 110.357,109.205C109.062,110.014 109.122,112.132 107.936,113.095C107.058,113.809 101.347,114.579 100.615,115.931C99.461,118.062 100.455,120.945 99.318,123.085C98.839,123.985 97.358,123.647 96.374,123.911C93.219,124.757 86.339,126.122 83.697,128.459C80.024,131.708 77.688,136.276 74.047,139.559C72.511,140.945 70.145,141.048 68.439,142.219C60.034,147.989 61.61,149.538 54.074,156.391C49.493,160.556 48.172,157.964 43.212,161.532C41.959,162.433 41.73,164.291 40.639,165.383C35.486,170.537 29.709,175.04 24.556,180.194C23.465,181.286 23.26,183.178 21.983,184.045C19.27,185.886 13.206,185.059 11.63,188.957C9.787,193.517 11.781,203.256 18.897,198.893C20.007,198.212 19.831,196.182 20.995,195.598C30.052,191.049 30.946,195.163 40.62,191.561C45.301,189.819 44.69,188.576 49.63,187.599C51.83,187.165 61.764,182.461 64.442,186.118C65.376,187.394 62.692,188.807 61.48,189.821C57.527,193.13 54.569,196.658 50.371,199.449C41.514,205.336 39.298,206.376 31.962,214.26C30.932,215.367 30.656,217.097 29.494,218.065C26.41,220.636 25.347,218.052 22.428,220.633C21.284,221.644 21.031,223.389 20.008,224.523C15.656,229.341 14.45,228.116 11.121,233.62C10.216,235.116 10.238,237.098 9.192,238.5C7.582,240.655 0.3,243.547 4.456,247.585C7.115,250.169 14.354,245.921 16.351,245.364C20.839,244.111 20.246,243.166 24.543,241.488C32.631,238.329 33.385,241.19 41.238,237.365C44.792,235.634 42.946,233.457 46.668,232.033C49.58,230.92 52.909,231.185 55.802,230.024C56.939,229.567 57.319,225.863 59.258,226.109C60.297,226.24 61.48,227.283 61.48,228.331C61.48,229.378 60.117,229.953 59.258,230.552C55.856,232.927 51.946,234.576 48.746,237.217C42.937,242.014 37.661,247.429 32.347,252.769C31.225,253.897 30.741,255.617 29.477,256.583C27.564,258.046 23.987,257.516 22.327,259.625C21.126,261.151 21.138,263.377 20.055,264.989C19.013,266.541 16.712,267.181 16.074,268.938C14.976,271.963 14.849,281.993 21.263,278.89C29.554,274.879 28.125,273.071 35.806,268.173C37.702,266.964 40.312,267.281 42.225,266.099C46.486,263.468 50.86,256.219 57.036,261.761C58.125,262.739 54.959,265.385 54.896,265.44C52.411,267.589 49.718,268.935 48.149,272.024C44.489,279.232 43.917,278.638 38.42,284.755C36.744,286.618 37.512,289.943 35.852,291.82C34.84,292.964 32.99,293.111 31.962,294.241C27.719,298.907 27.916,301.631 25.651,307.26C25.071,308.701 23.533,309.899 23.614,311.45C23.668,312.49 24.941,313.614 25.975,313.496C29.752,313.062 33.372,311.561 36.809,309.936C40.449,308.214 38.606,306.144 42.225,304.609C51.88,300.513 53.016,303.245 61.48,297.098C62.753,296.173 62.809,294.115 64.035,293.128C67.519,290.324 68.678,293.373 72.324,290.692C73.556,289.786 73.475,287.582 74.81,286.835C75.442,286.482 75.688,288.141 75.598,288.86C75.451,290.034 74.954,291.232 74.15,292.1C71.182,295.306 67.351,297.647 64.442,300.906C61.197,304.542 63.8,305.759 60.887,309.546C60.132,310.528 58.458,310.455 57.674,311.415C55.436,314.157 57.477,315.8 55.107,318.481C50.849,323.296 49.515,322.113 46.973,328.144C46.35,329.621 45.755,334.693 47.27,336.231C51.481,340.508 54.434,333.709 56.214,331.928C57.218,330.925 58.919,330.819 59.893,329.788C64.25,325.18 64.758,318.66 72.218,321.457C76.195,322.947 69.747,325.851 69.478,326.332C68.573,327.949 69.246,330.174 68.293,331.763C67.639,332.852 65.76,332.696 65.034,333.737C64.1,335.078 59.679,344.28 62.22,346.821C64.79,349.391 73.904,344.902 75.304,344.007C76.506,343.237 76.126,339.931 78.513,340.156C79.392,340.239 80.08,341.27 80.278,342.131C80.853,344.621 80.734,347.228 80.734,349.783L80.734,359.411L74.81,359.411C71.669,359.411 65.98,361.661 69.478,365.829C70.294,366.802 71.965,366.794 72.736,367.804C75.62,371.581 73.045,372.754 76.291,376.444C79.389,379.965 83.237,382.754 86.554,386.071C90.399,389.916 93.471,394.587 97.767,397.92C100.228,399.829 103.934,399.583 106.407,401.475C111.225,405.159 108.956,407.486 114.525,409.926C116.173,410.648 118.145,410.632 119.65,411.619C123.981,414.457 121.939,416.729 126.649,418.656C129.535,419.836 132.896,419.49 135.783,420.666C138.571,421.802 139.688,425.52 142.413,426.802C148.415,429.626 153.962,429.066 159.728,432.579C160.813,433.239 160.669,435.099 161.702,435.837C168.197,440.478 178.46,437.839 185.401,439.848C187.097,440.339 187.624,443.007 189.351,443.379C203.922,446.519 223.949,446.641 238.845,446.457L271.06,446.057L271.538,440.192C271.673,438.542 271.806,436.813 271.32,435.231C271.139,434.641 267.525,431.325 267.61,430.426C267.947,426.873 272.15,423.194 273.281,420.137C274.363,417.213 274.226,413.933 275.291,411.004C275.897,409.336 278.505,409.16 278.774,407.177C280.285,396.03 278.619,383.454 282.677,372.617C283.432,370.601 284.88,372.284 286.019,370.273C288.816,365.333 286.901,363.758 291.039,359.411C292.305,358.08 294.505,357.897 295.742,356.538C299.578,352.322 296.816,350.832 300.683,346.722C301.998,345.325 306.489,344.888 307.947,343.961C309.576,342.925 308.037,341.361 310.186,340.665C315.033,339.095 322.494,339.183 327.096,336.601C333.349,333.093 332.738,332.411 338.945,329.195C339.757,328.775 340.614,325.909 341.907,325.801C353.013,324.868 353.928,322.501 359.022,327.49C359.626,328.082 359.972,329.1 360.791,329.307C369.422,331.484 378.571,331.065 387.205,333.232C388.765,333.623 388.98,336.32 390.538,336.723C399.031,338.916 411.141,340.076 419.913,340.156C425.984,340.211 435.705,339.1 441.143,336.601C442.301,336.069 442.09,334.067 443.135,333.337C446.797,330.78 447.828,333.775 451.423,330.901C454.514,328.431 456.567,321.988 461.262,321.327C466.477,320.594 482.819,320.453 488.045,319.42C494.094,318.225 494.367,307.884 496.044,304.115C496.946,302.087 498.818,304.049 499.385,301.77C500.125,298.797 499.664,295.609 500.404,292.636C500.88,290.722 502.977,291.783 503.745,290.291C504.775,288.293 504.763,285.858 505.819,283.873C506.724,282.171 508.813,281.223 509.522,279.43C511.865,273.505 512.391,264.524 511.985,258.245C510.698,238.367 508.85,238.707 506.982,218.936C506.619,215.103 508.933,208.027 505.09,204.75C498.856,199.435 499.163,199.395 493.03,193.972C490.35,191.602 488.706,193.643 485.965,191.405C485.005,190.621 485.21,188.734 484.096,188.192C476.403,184.453 471.172,186.016 463.113,184.166C460.952,183.67 462.214,181.601 460.398,180.786C452.365,177.182 451.833,179.46 443.488,176.722C441.294,176.003 443.203,174.321 441.143,173.381C437.136,171.551 437.576,171.041 433.737,168.937C428.553,166.097 422.255,166.702 416.827,164.873C414.604,164.124 416.496,162.267 414.235,161.468C407.578,159.115 402.434,160.287 396.215,156.391C392.598,154.124 391.275,149.229 387.822,146.72C384.91,144.605 383.915,146.944 381.404,144.542C380.379,143.561 380.269,141.863 379.263,140.863C377.609,139.218 375.744,139.843 374.401,137.983C372.375,135.179 378.326,134.045 378.38,131.357C378.417,129.485 374.952,126.053 374.587,124.449C373.458,119.491 374.81,112.413 372.412,107.618C371.777,106.349 369.736,106.481 368.733,105.478C367.73,104.475 367.661,102.732 366.593,101.799C366.373,101.608 360.131,99.775 359.927,99.472C358.841,97.86 359.617,95.448 358.594,93.794C356.587,90.55 351.075,87.305 347.338,86.883C331.41,85.084 320.395,86.645 304.484,87.164C285.949,87.768 280.264,88.322 261.926,84.945C259.833,84.56 260.472,82.065 258.593,81.467C251.809,79.311 244.399,79.631 237.611,77.486C236.843,77.244 235.529,74.21 234.649,74.034C230.828,73.269 226.821,73.831 223.001,73.067C221.196,72.706 220.459,70.033 218.657,69.658C216.65,69.24 204.292,67.291 202.585,71.701"/>
</g>
</svg>
