<svg xmlns="http://www.w3.org/2000/svg" width="400" height="400" viewBox="0, 0, 400,400"><g><path d="M284.490 143.843 C 280.187 148.157,276.667 151.888,276.667 152.134 C 276.667 152.381,286.749 162.656,299.072 174.969 C 318.977 194.856,321.377 197.478,320.572 198.456 C 320.074 199.061,310.442 208.780,299.167 220.053 C 287.892 231.326,278.667 240.851,278.667 241.221 C 278.667 242.551,281.028 245.968,282.487 246.749 C 283.307 247.188,284.138 248.051,284.333 248.667 C 284.529 249.283,285.429 250.183,286.333 250.667 C 287.238 251.151,288.138 252.051,288.333 252.667 C 288.529 253.283,289.429 254.183,290.333 254.667 C 291.238 255.151,292.153 256.099,292.367 256.773 C 293.449 260.183,295.542 258.494,317.547 236.458 L 339.058 214.917 360.566 236.458 C 373.909 249.822,382.561 258.000,383.357 258.000 C 385.072 258.000,399.333 243.604,399.333 241.872 C 399.333 241.043,391.509 232.735,377.983 219.203 C 359.484 200.695,356.747 197.701,357.483 196.779 C 357.951 196.194,367.708 186.326,379.167 174.850 C 396.410 157.579,400.000 153.668,400.000 152.147 C 400.000 149.980,386.515 136.000,384.424 136.000 C 383.710 136.000,374.089 145.123,361.223 158.000 C 349.134 170.100,339.134 180.000,339.000 180.000 C 338.866 180.000,328.866 170.100,316.777 158.000 C 303.637 144.848,294.297 136.000,293.555 136.000 C 292.857 136.000,288.886 139.436,284.490 143.843 M193.127 139.096 C 192.874 139.349,192.667 157.186,192.667 178.734 L 192.667 217.912 179.060 204.289 C 169.760 194.978,164.998 190.667,164.014 190.667 C 163.074 190.667,160.049 193.183,155.288 197.927 C 147.474 205.712,146.584 207.519,149.415 209.840 C 150.193 210.478,151.168 211.396,151.582 211.880 C 151.995 212.364,152.895 213.264,153.582 213.880 C 154.268 214.496,155.168 215.396,155.582 215.880 C 155.995 216.364,156.895 217.264,157.582 217.880 C 158.268 218.496,159.168 219.396,159.582 219.880 C 159.995 220.364,160.895 221.264,161.582 221.880 C 162.268 222.496,163.168 223.396,163.582 223.880 C 163.995 224.364,164.895 225.264,165.582 225.880 C 166.268 226.496,167.168 227.396,167.582 227.880 C 167.995 228.364,168.895 229.264,169.582 229.880 C 170.268 230.496,171.168 231.396,171.582 231.880 C 171.995 232.364,172.895 233.264,173.582 233.880 C 174.268 234.496,175.168 235.396,175.582 235.880 C 175.995 236.364,176.895 237.264,177.582 237.880 C 178.268 238.496,179.168 239.396,179.582 239.880 C 179.995 240.364,180.895 241.264,181.582 241.880 C 182.268 242.496,183.168 243.396,183.582 243.880 C 183.995 244.364,184.895 245.264,185.582 245.880 C 186.268 246.496,187.168 247.396,187.582 247.880 C 187.995 248.364,188.895 249.264,189.582 249.880 C 190.268 250.496,191.168 251.396,191.582 251.880 C 191.995 252.364,192.895 253.264,193.582 253.880 C 194.268 254.496,195.168 255.396,195.582 255.880 C 195.995 256.364,196.895 257.264,197.582 257.880 C 198.268 258.496,199.168 259.389,199.582 259.865 C 201.797 262.415,203.060 263.333,204.357 263.333 C 206.549 263.333,209.809 261.470,210.194 259.996 C 210.383 259.274,211.276 258.402,212.178 258.059 C 213.080 257.716,213.980 256.816,214.178 256.059 C 214.376 255.302,215.276 254.402,216.178 254.059 C 217.080 253.716,217.980 252.816,218.178 252.059 C 218.376 251.302,219.276 250.402,220.178 250.059 C 221.080 249.716,221.980 248.816,222.178 248.059 C 222.376 247.302,223.276 246.402,224.178 246.059 C 225.080 245.716,225.986 244.790,226.193 244.002 C 226.399 243.213,227.213 242.399,228.002 242.193 C 228.790 241.986,229.707 241.103,230.039 240.230 C 230.371 239.357,231.357 238.371,232.230 238.039 C 233.103 237.707,233.980 236.816,234.178 236.059 C 234.376 235.302,235.276 234.402,236.178 234.059 C 237.080 233.716,237.980 232.816,238.178 232.059 C 238.376 231.302,239.276 230.402,240.178 230.059 C 241.080 229.716,241.986 228.790,242.193 228.002 C 242.399 227.213,243.213 226.399,244.002 226.193 C 244.790 225.986,245.716 225.080,246.059 224.178 C 246.402 223.276,247.302 222.376,248.059 222.178 C 248.816 221.980,249.716 221.080,250.059 220.178 C 250.402 219.276,251.302 218.376,252.059 218.178 C 252.816 217.980,253.707 217.103,254.039 216.230 C 254.371 215.357,255.357 214.371,256.230 214.039 C 257.103 213.707,257.980 212.816,258.178 212.059 C 258.376 211.302,259.317 210.387,260.269 210.025 C 263.512 208.792,262.537 206.846,254.822 199.155 C 244.877 189.241,246.681 188.782,229.891 205.500 L 216.333 219.000 216.000 179.000 L 215.667 139.000 204.627 138.818 C 198.555 138.718,193.380 138.843,193.127 139.096 M0.000 201.333 L 0.000 260.000 11.000 260.000 L 22.000 260.000 22.000 228.897 C 22.000 197.836,22.002 197.795,23.333 199.000 C 24.067 199.664,24.667 200.539,24.667 200.945 C 24.667 201.351,25.342 201.980,26.167 202.342 C 26.992 202.704,27.941 203.625,28.277 204.389 C 28.613 205.154,29.513 206.054,30.277 206.389 C 31.041 206.725,31.941 207.625,32.277 208.389 C 32.613 209.154,33.513 210.054,34.277 210.389 C 35.041 210.725,35.941 211.625,36.277 212.389 C 36.613 213.154,37.513 214.054,38.277 214.389 C 39.041 214.725,39.941 215.625,40.277 216.389 C 40.613 217.154,41.513 218.054,42.277 218.389 C 43.041 218.725,43.941 219.625,44.277 220.389 C 44.613 221.154,45.513 222.054,46.277 222.389 C 47.041 222.725,47.941 223.625,48.277 224.389 C 48.613 225.154,49.513 226.054,50.277 226.389 C 51.041 226.725,51.941 227.625,52.277 228.389 C 52.613 229.154,53.513 230.054,54.277 230.389 C 55.041 230.725,55.937 231.614,56.266 232.364 C 56.820 233.623,59.465 235.333,60.859 235.333 C 61.185 235.333,69.822 226.958,80.052 216.721 L 98.653 198.108 98.827 228.554 L 99.000 259.000 110.500 259.182 L 122.000 259.365 122.000 201.016 C 122.000 143.086,121.990 142.667,120.665 142.667 C 119.795 142.667,109.395 152.594,90.808 171.167 C 75.121 186.842,61.807 200.049,61.220 200.517 C 60.296 201.255,56.272 197.486,30.797 172.017 C 14.650 155.874,1.115 142.667,0.719 142.667 C 0.210 142.667,0.000 159.795,0.000 201.333 " stroke="none" fill-rule="evenodd"></path></g></svg>