<svg version="1.1" width="515" height="515" xmlns="http://www.w3.org/2000/svg">
<g>
<path d="M70.500 173.934 C -1.801 185.861,-24.639 273.111,31.337 323.548 C 61.064 350.332,115.431 346.531,144.748 315.617 C 200.125 257.223,149.636 160.879,70.500 173.934 M398.438 225.938 C 373.770 231.842,364.746 264.893,382.872 282.949 C 395.473 295.503,415.644 296.583,429.500 285.445 C 438.241 278.419,444.488 261.445,440.546 255.429 L 438.921 252.950 423.210 253.225 L 407.500 253.500 407.500 259.000 L 407.500 264.500 416.246 265.000 L 424.992 265.500 423.035 268.710 C 413.700 284.022,389.000 277.186,389.000 259.290 C 389.000 245.415,405.441 235.676,416.500 243.000 C 420.796 245.845,422.049 245.544,427.022 240.477 C 432.275 235.125,432.020 234.128,424.184 229.384 C 417.231 225.175,407.222 223.835,398.438 225.938 M67.500 241.000 C 75.736 249.250,83.156 255.986,83.987 255.968 C 84.819 255.951,92.248 249.201,100.495 240.968 L 115.490 226.000 121.259 226.000 L 127.028 226.000 126.764 257.250 L 126.500 288.500 119.500 288.500 L 112.500 288.500 112.227 270.750 C 112.077 260.988,111.620 253.000,111.211 253.000 C 110.803 253.000,105.083 258.400,98.500 265.000 C 89.886 273.637,85.862 277.000,84.145 277.000 C 82.425 277.000,78.431 273.650,69.837 265.000 C 63.280 258.400,57.485 253.000,56.958 253.000 C 56.383 253.000,56.000 260.196,56.000 271.000 L 56.000 289.000 48.500 289.000 L 41.000 289.000 41.000 257.500 L 41.000 226.000 46.763 226.000 L 52.525 226.000 67.500 241.000 M208.454 227.259 C 208.188 227.952,208.090 242.689,208.235 260.009 L 208.500 291.500 214.458 291.806 C 225.706 292.384,225.000 293.624,225.000 273.282 L 225.000 255.602 237.339 267.801 C 245.990 276.353,250.372 280.000,252.000 280.000 C 253.628 280.000,258.010 276.353,266.661 267.801 L 279.000 255.602 279.000 272.219 C 279.000 293.179,278.494 292.000,287.500 292.000 C 296.718 292.000,296.000 294.787,296.000 259.000 C 296.000 223.850,296.446 226.000,289.154 226.000 L 283.523 226.000 267.761 241.738 L 252.000 257.477 236.239 241.738 L 220.477 226.000 214.707 226.000 C 210.991 226.000,208.765 226.448,208.454 227.259 M309.250 226.662 C 307.144 227.512,307.467 290.582,309.582 291.393 C 310.452 291.727,322.547 292.000,336.459 292.000 C 365.467 292.000,364.271 292.379,363.802 283.334 L 363.500 277.500 344.250 277.228 L 325.000 276.957 325.000 271.478 L 325.000 266.000 342.918 266.000 C 364.922 266.000,364.000 266.306,364.000 259.000 C 364.000 251.694,364.922 252.000,342.918 252.000 L 325.000 252.000 325.000 246.522 L 325.000 241.043 344.250 240.772 L 363.500 240.500 363.802 234.666 C 364.272 225.602,365.517 225.988,336.128 226.079 C 322.032 226.122,309.938 226.385,309.250 226.662 M471.549 227.594 C 470.673 228.470,468.435 232.408,466.577 236.344 C 464.719 240.280,458.187 253.819,452.062 266.431 C 439.188 292.937,439.257 292.187,449.735 291.792 L 457.500 291.500 461.299 284.250 L 465.098 277.000 478.476 277.000 L 491.855 277.000 494.830 283.297 C 498.802 291.702,499.483 292.154,507.650 291.798 C 516.488 291.412,516.548 290.961,509.672 276.775 C 506.666 270.574,500.290 257.400,495.502 247.500 C 490.715 237.600,486.099 228.713,485.244 227.750 C 483.170 225.415,473.835 225.308,471.549 227.594 M482.449 257.750 L 485.922 265.000 478.378 265.000 C 474.228 265.000,470.983 264.618,471.167 264.150 C 473.378 258.512,477.663 250.107,478.238 250.279 C 478.644 250.401,480.539 253.762,482.449 257.750 " stroke="none" fill-rule="evenodd"></path>
</g>
</svg>