<svg xmlns="http://www.w3.org/2000/svg" width="400" height="400" viewBox="0, 0, 400,400">
<g>
<path d="M183.800 0.607 C 91.332 7.939,16.185 73.448,3.249 158.000 C 1.574 168.951,1.400 171.552,1.424 185.200 C 1.525 240.891,27.083 292.231,72.000 326.972 L 75.000 329.292 75.200 364.637 L 75.400 399.982 79.200 397.844 C 81.290 396.668,89.300 392.234,97.000 387.992 C 104.700 383.749,115.140 377.990,120.200 375.195 C 125.260 372.400,132.419 368.447,136.110 366.410 L 142.819 362.706 147.008 363.756 C 164.714 368.192,182.347 370.393,200.200 370.394 C 327.965 370.403,422.883 258.282,393.249 142.355 C 370.543 53.529,280.961 -7.097,183.800 0.607 M190.844 145.900 C 197.302 152.665,204.842 160.540,207.598 163.400 C 210.354 166.260,214.227 170.311,216.205 172.402 C 218.182 174.493,222.285 178.769,225.322 181.905 L 230.843 187.608 257.722 172.650 C 272.505 164.424,294.049 152.430,305.597 145.997 C 317.146 139.564,326.864 134.197,327.194 134.070 C 327.523 133.944,324.195 137.678,319.797 142.369 C 315.398 147.060,310.180 152.649,308.200 154.788 C 306.220 156.927,300.820 162.699,296.200 167.614 C 284.940 179.593,277.390 187.656,272.800 192.604 C 270.710 194.856,265.490 200.435,261.200 205.001 C 256.910 209.567,251.780 215.052,249.800 217.190 C 247.820 219.328,242.420 225.095,237.800 230.004 C 233.180 234.914,227.260 241.249,224.645 244.081 C 222.030 246.913,219.748 249.178,219.574 249.115 C 219.399 249.052,217.579 247.178,215.528 244.952 C 213.478 242.725,208.560 237.438,204.600 233.203 C 200.640 228.968,195.870 223.842,194.000 221.811 C 192.130 219.779,187.090 214.372,182.800 209.793 C 178.510 205.215,173.740 200.073,172.200 198.368 C 170.660 196.662,169.260 195.251,169.089 195.233 C 168.858 195.209,105.510 229.906,73.600 247.535 L 71.000 248.971 72.151 247.585 C 73.240 246.274,84.782 233.864,92.600 225.600 C 94.580 223.507,99.800 217.926,104.200 213.199 C 108.600 208.471,113.910 202.802,116.000 200.600 C 118.090 198.398,123.400 192.729,127.800 188.001 C 132.200 183.274,137.420 177.693,139.400 175.600 C 141.380 173.507,146.600 167.931,151.000 163.209 C 155.400 158.488,160.800 152.709,163.000 150.368 C 165.200 148.027,169.610 143.309,172.800 139.883 C 175.990 136.458,178.713 133.643,178.851 133.628 C 178.988 133.612,184.385 139.135,190.844 145.900 " stroke="none" fill-rule="evenodd"></path>
</g>
</svg>