<svg width="100%" height="100%" viewBox="0 0 400 400" version="1.1" xmlns="http://www.w3.org/2000/svg" style="fill-rule:evenodd;clip-rule:evenodd;stroke-linejoin:round;stroke-miterlimit:2;">
<g>
<path d="M11,17C11,20.959 15.561,23.476 18,26.594C29.462,41.251 44.421,53.556 58.138,66C64.201,71.5 69.4,79.026 75.205,85C93.842,104.182 112.05,123.725 130.317,143.25C153.583,168.118 179.141,190.771 201.964,216.17C215.001,230.678 229.582,243.902 243,257.963C261.757,277.619 280.107,297.662 299,317.187C299.785,317.998 301.232,317.927 302,318.754C308.331,325.57 323.027,348.239 337.034,344.118C338.767,343.608 340.829,340.21 342.393,339C343.571,338.089 345.304,337.815 346.159,336.596C351.327,329.226 347.724,319.43 341.949,314C330.101,302.859 318.16,291.764 306.138,280.809C261.84,240.441 218.244,199.325 173.021,160C162.308,150.684 152.026,140.446 141.399,130.976C133.097,123.578 126.451,115.475 117.326,109C112.87,105.838 109.883,101.555 106.179,98C99.777,91.857 93.072,86.312 86.898,80C75.205,68.046 61.99,57.283 49.65,46C41.274,38.341 32.869,30.523 24.113,23.298C21.09,20.804 17.963,18.423 14.7,16.252C13.738,15.612 11,13.517 11,17M111,48.805C111,50.377 116.772,57.357 118,58.634C128.414,69.463 138.576,80.328 149,91.243C151.662,94.03 154.334,96.808 156.976,99.614C205.683,151.337 255.641,202.159 303.998,254.572C311.258,262.441 313.929,264.732 320.131,270.814C328.621,279.142 335.827,289.141 345.011,296.886C350.632,301.626 359.504,303.241 365.362,297.632C367.067,295.999 369.074,294.492 370.095,292.363C378.226,275.405 358.845,266.623 349,257.407C342.92,251.716 343.41,251.445 337,245.871C290.755,205.661 245.709,164.015 200.137,122.995C180.499,105.319 160.849,87.666 141.209,70C134.087,63.594 126.83,55.649 118.992,50.21C116.77,48.668 111,46.1 111,48.805M198,78.398C198,80.717 200.395,82.395 201.901,84.159C206.074,89.047 210.706,93.526 215,98.31C221.244,105.266 227.522,111.229 233.504,118.248C248.39,135.713 265.57,151.715 281.718,168.192C297.788,184.589 313.426,201.641 329.25,218.301C334.175,223.486 338.946,228.819 344,233.878C346.285,236.165 348.882,238.121 351.25,240.322C353.196,242.13 353.777,245.109 355.724,246.916C361.519,252.291 369.721,253.682 375.516,248C387.509,236.241 363.27,221.352 357.5,216.166C339.292,199.8 321.34,183.748 303.266,167.25C295.045,159.746 286.908,152.15 278.577,144.769C273.804,140.54 268.289,137.099 264,132.379C250.209,117.201 233.202,103.752 217.757,90C214.83,87.394 209.633,82.003 205.405,79.5C203.258,78.229 198,75.902 198,78.398M43.393,113.419C41.756,117.684 47.847,121.454 50.747,124.983C61.285,137.807 73.993,148.697 85.06,161.5C89.122,166.2 92.633,170.226 97.033,174.561C116.7,193.936 133.94,215.834 153.75,235.001C182.83,263.137 209.364,293.997 238.016,322.373C250.229,334.468 261.2,347.631 273.047,360.088C279.474,366.846 291.952,367.459 298.902,360.977L303.216,356.955L302.834,349.379C302.359,339.965 300.078,339.951 292.5,333.11C283.931,325.375 275.256,317.735 266.701,310C224.532,271.876 182.369,233.541 139.75,196.064C120.683,179.298 101.932,162.093 83.317,144.915C71.729,134.221 60.005,123.657 47.857,113.604C46.591,112.556 44.306,111.038 43.393,113.419M280,114C280,115.599 281.227,115.991 282,116.983C283.348,118.712 284.419,120.661 285.897,122.28C291.596,128.519 297.645,134.428 303.5,140.521C311.513,148.859 319.556,157.169 327.5,165.573C331.723,170.041 335.88,174.572 340,179.135C344.727,184.371 352.671,197.502 361.443,192.019C367.916,187.972 360.851,179.878 357.618,177C340.937,162.15 324.382,147.061 307.877,132C301.526,126.205 294.744,119.874 287.583,114.972C287.581,114.971 280,109.025 280,114M74,198C74,198.816 77.355,202.562 78,203.37C84.705,211.76 91.976,218.845 99,226.761C131.946,263.894 167.818,298.587 201.647,334.93C210.432,344.368 216.973,356.963 228.469,362.801C237.36,367.315 247,364.664 247,353.832L247,347.841L240.836,341.921C238.144,339.335 234.742,337.573 232,335.04C215.85,320.118 200.177,304.339 183.56,290C167.178,275.863 150.546,261.802 134.86,246.971C119.552,232.497 103.74,218.024 87.746,204.25C85.232,202.085 83.012,199.391 80,198C80,198 74,195.333 74,198M107,270.5C107,272.098 108.909,273.066 109.924,274.3C118.699,284.971 118.545,284.926 128.002,295C138.586,306.275 149.195,317.526 159.835,328.748C163.379,332.486 179.471,355.51 189.649,347.446C196.056,342.369 182.208,331.78 180.369,330.095C164.737,315.775 148.808,302.209 133.123,288C126.275,281.796 119.315,274.586 111.412,269.654C110.678,269.196 107,267.805 107,270.5"/>
</g>
</svg>
