<svg id="svg" version="1.1" width="400" height="400" xmlns="http://www.w3.org/2000/svg" xmlns:xlink="http://www.w3.org/1999/xlink" style="display: block;"><g id="svgg"><path id="path0" d="M-0.000 95.250 L -0.000 190.500 95.250 190.260 L 190.500 190.020 190.755 95.010 L 191.010 -0.000 95.505 -0.000 L 0.000 0.000 -0.000 95.250 M209.245 95.010 L 209.500 190.020 304.750 190.260 L 400.000 190.500 400.000 95.250 L 400.000 0.000 304.495 -0.000 L 208.990 -0.000 209.245 95.010 M-0.000 304.750 L 0.000 400.000 95.505 400.000 L 191.010 400.000 190.755 304.990 L 190.500 209.980 95.250 209.740 L -0.000 209.500 -0.000 304.750 M209.417 209.917 C 209.188 210.146,209.000 253.008,209.000 305.167 L 209.000 400.000 304.500 400.000 L 400.000 400.000 400.000 304.750 L 400.000 209.500 304.917 209.500 C 252.621 209.500,209.646 209.688,209.417 209.917 " stroke="none" fill="#000000" fill-rule="evenodd"></path></g></svg>