<svg xmlns="http://www.w3.org/2000/svg" width="400" height="400" viewBox="0, 0, 400,400" version="1.1"><g><path d="M181.471 128.633 C 174.079 129.336,169.390 134.733,169.403 142.526 C 169.418 151.229,175.815 157.002,184.579 156.221 C 191.700 155.587,196.086 150.895,196.556 143.409 C 197.147 133.982,190.782 127.747,181.471 128.633 M276.448 170.059 C 269.049 171.281,268.454 171.395,265.428 172.160 C 240.610 178.430,230.909 187.781,229.457 206.834 C 229.336 208.417,229.292 263.710,229.411 264.428 L 229.475 264.819 230.485 264.998 C 231.040 265.096,235.927 266.074,241.344 267.172 C 246.761 268.269,251.243 269.167,251.303 269.167 C 251.376 269.167,251.410 259.606,251.404 240.899 C 251.395 211.541,251.394 211.658,251.860 209.322 C 253.608 200.564,259.221 196.286,271.980 193.987 C 273.861 193.649,276.858 193.101,278.640 192.770 C 280.421 192.439,281.898 192.168,281.921 192.168 C 281.945 192.168,281.964 187.005,281.964 180.695 L 281.964 169.222 281.660 169.235 C 281.493 169.242,279.148 169.613,276.448 170.059 M44.741 169.561 C 36.386 170.421,29.592 173.665,23.691 179.612 L 21.955 181.361 21.926 176.418 L 21.897 171.475 17.485 172.328 C 3.037 175.122,0.262 175.672,0.138 175.765 C -0.017 175.881,-0.070 264.489,0.084 264.700 C 0.164 264.809,16.038 268.047,21.622 269.094 L 22.008 269.167 21.975 238.417 C 21.951 216.607,21.977 207.314,22.063 206.453 C 23.009 197.010,30.119 191.236,40.430 191.537 C 48.984 191.787,55.022 196.519,56.836 204.395 L 57.082 205.461 57.140 235.098 C 57.172 251.399,57.223 264.757,57.253 264.782 C 57.284 264.806,58.798 265.112,60.618 265.460 C 62.438 265.808,67.321 266.784,71.469 267.630 C 75.618 268.475,79.055 269.167,79.109 269.167 C 79.164 269.167,79.206 255.963,79.206 238.275 C 79.206 217.202,79.243 207.042,79.323 206.311 C 80.317 197.231,86.947 191.585,96.635 191.568 C 106.050 191.551,112.268 196.380,114.028 205.074 C 114.204 205.943,114.223 208.183,114.280 235.408 L 114.341 264.804 117.650 265.448 C 119.470 265.803,124.354 266.784,128.502 267.630 C 132.650 268.475,136.113 269.167,136.196 269.167 C 136.385 269.167,136.421 209.146,136.235 205.295 C 135.399 187.994,127.403 176.113,113.514 171.533 C 99.356 166.864,82.092 171.421,73.855 182.001 C 73.334 182.671,73.304 182.692,73.142 182.486 C 73.049 182.368,72.650 181.855,72.256 181.346 C 66.105 173.413,54.715 168.534,44.741 169.561 M346.387 169.558 C 317.822 171.746,299.938 191.259,299.934 220.243 C 299.930 250.794,320.337 271.263,350.800 271.263 C 380.225 271.263,399.877 250.926,399.888 220.463 C 399.899 193.328,384.807 174.107,360.397 170.165 C 356.581 169.549,350.146 169.270,346.387 169.558 M182.901 173.579 C 176.925 174.734,171.973 175.719,171.897 175.767 C 171.750 175.860,171.685 261.566,171.831 263.772 L 171.901 264.830 172.961 265.026 C 175.110 265.423,181.799 266.756,187.677 267.958 C 191.002 268.638,193.745 269.171,193.772 269.144 C 193.800 269.116,193.810 247.130,193.795 220.286 L 193.767 171.478 182.901 173.579 M353.172 190.189 C 368.205 191.324,377.573 203.352,377.246 221.099 C 376.914 239.122,366.697 250.469,350.800 250.469 C 333.684 250.469,322.498 238.472,322.512 220.132 C 322.526 201.255,335.243 188.836,353.172 190.189 " stroke="none" fill-rule="evenodd"></path></g></svg>