<?xml version="1.0" encoding="UTF-8" standalone="no"?>
<!DOCTYPE svg PUBLIC "-//W3C//DTD SVG 1.1//EN" "http://www.w3.org/Graphics/SVG/1.1/DTD/svg11.dtd">
<svg width="100%" height="100%" viewBox="0 0 400 400" version="1.1" xmlns="http://www.w3.org/2000/svg" xmlns:xlink="http://www.w3.org/1999/xlink" xml:space="preserve" xmlns:serif="http://www.serif.com/" style="fill-rule:evenodd;clip-rule:evenodd;stroke-linejoin:round;stroke-miterlimit:2;">
    <g id="svgg">
        <path id="path0" d="M124,7C124,9.522 119,7.667 116.5,8C109.13,8.983 102.083,10.242 95,12.5C87.269,14.964 76.849,17.571 70.067,22C62.222,27.123 54.363,32.555 46.703,38C40.405,42.477 34.213,49.521 30.067,56C28.423,58.569 25.753,60.228 24,62.7C14.366,76.286 3.029,96.354 1.615,113.214C0.046,131.921 0.046,153.079 1.615,171.786C2.094,177.498 5.036,183.6 7,189C13.485,206.833 23.899,224.231 37.573,237.583C42.6,242.491 48.995,247.679 54.645,252C57.047,253.837 62.49,256.231 63.938,259.119C68.378,267.975 67.412,281.367 69.03,290.833C70.026,296.665 72.844,301.577 74.886,307C77.983,315.222 81.458,323.58 86.134,331.116C109.812,369.278 156.343,394 201,394C215.513,394 232.161,390.413 246,385.95C284.784,373.442 320.21,337.676 330.939,298C333.344,289.105 334.653,280.092 336,271C336.028,270.808 337.958,257.179 338.045,257C338.239,256.6 345.24,252.14 345.433,252C350.759,248.125 356.895,243.022 361.428,238.578C373.956,226.298 383.903,210.967 391,195C398.493,178.14 399.562,161.112 399.562,142.5C399.562,132.729 399.201,122.949 398.385,113.213C397.621,104.1 392.903,94.269 389.045,86C383.524,74.167 376.814,62.936 368.59,52.775C358.286,40.044 343.551,30.743 329.933,22C324.148,18.286 316.527,16.134 310,14.094C284.3,6.063 258.328,4.233 232,10.928C226.65,12.289 221.067,13.748 216,16C211.28,18.098 205.23,22 200,22C192.975,22 185.664,16.162 179,14.115C167.837,10.687 156.613,8.327 145,7C145,7 124,4.333 124,7M148,33.871C148,36.588 153.335,34.907 156,35.44C160.926,36.425 165.345,37.307 170,39C170.304,39.111 175.361,40.114 174.507,41.158C166.468,50.99 156.742,59.886 150.134,70.884C144.858,79.666 140.479,89.432 137,99C133.682,108.125 132.509,117.347 131.314,126.967C131.302,127.064 131.285,140.577 127.852,144.04C124.922,146.995 118.894,147.945 116,150.955C111.306,155.836 106.519,160.718 101.761,165.607C90.031,177.662 81.57,191.532 74.955,207C72.951,211.686 71.351,216.591 70,221.5C69.401,223.674 69.197,228.299 67.055,227.592C62.972,226.243 56.518,219.438 54,216.159C45.768,205.439 38.993,196.488 33.912,184C13.105,132.864 33.63,70.725 83,46.045C99.438,37.828 116.181,32.986 135,33C139.343,33.003 148,29.528 148,33.871M280,33.871C280,36.588 285.335,34.907 288,35.44C290.669,35.973 293.356,36.424 296,37.069C304,39.019 314.137,43.488 321,48C330.074,53.966 339.258,60.165 346.999,68C348.659,69.68 348.841,72.435 350.379,74.228C351.376,75.391 352.971,75.907 354.045,77C355.943,78.931 356.423,82.631 358,84.929C362.834,91.973 367.668,100.589 369.939,109C376.746,134.21 375.34,159.956 366.114,184C364.383,188.512 362.922,192.805 360,196.721C354.57,203.997 350.559,212.599 343.787,219.011C342.166,220.545 340.171,221.629 338.41,223C338.356,223.042 334.07,227.251 333.046,226.181C331.885,224.967 332.422,222.879 332.015,221.25C331.241,218.155 330.09,214.998 329,212C326.355,204.727 322.298,197.972 319,191C317.468,187.762 315.464,182.683 313.153,180C303.973,169.344 293.542,159.829 283.482,150C279.888,146.489 274.824,145.382 271.355,142.41C267.395,139.017 269.267,132.177 268.687,126.994C267.658,117.81 266.425,110.987 264,102.5C256.961,77.864 241.395,60.607 225.493,41.158C224.639,40.114 229.696,39.111 230,39C234.655,37.307 239.074,36.425 244,35.44C253.329,33.575 254.896,33 266,33C270.676,33 280,29.195 280,33.871M203.403,58.5C205.265,60.981 207.834,60.938 209.949,62.996C211.703,64.703 214.431,67.635 216,69.651C224.102,80.059 232.459,91.324 236.5,104C238.407,109.983 240.275,115.963 242,122C242.569,123.992 244.569,129.616 241,128C235.712,125.606 227.947,125.049 222.736,124.307C207.401,122.123 193.57,121.914 178.254,124.339C170.569,125.556 170.633,125.257 164.417,127C163.382,127.29 158.607,129.883 157.45,128.437C156.183,126.854 157.585,125.453 158,124C159.138,120.017 159.755,115.961 161,112C165.531,97.585 171.535,86.687 180.5,74.566C182.261,72.185 183.753,69.502 186,67.5C189.653,64.244 198.76,52.319 203.403,58.5M214,149L225,151C229.822,152.072 241.481,154.341 243.152,159.897C243.681,161.655 242.838,161.36 242,163C240.262,166.402 239.254,171.283 238.072,175C233.873,188.208 227.756,202.161 218,212.459C213.937,216.747 209.742,220.911 205.478,225C204.541,225.898 201.055,228 200,228C193.603,228 187.164,217.53 184,213.615C181.043,209.956 177.689,206.912 175,203C169.015,194.294 165.356,184.924 161.886,175C160.331,170.554 159.878,165.183 158,161C157.7,160.331 155.24,160.729 156.942,159.012C159.602,156.327 163.529,155.131 167,154C177.956,150.43 189.409,148 201,148C205.346,148 214,144.654 214,149M134,175.5C134,180.191 137.206,184.867 138.868,189C144.149,202.128 150.043,213.87 158.5,225.409C159.283,226.477 160.162,227.471 161,228.497C167.097,235.965 167.527,235.404 173.99,242.713C174.238,242.993 174.456,243.572 174.176,243.82C173.224,244.665 168.277,245.574 167,246C160.956,248.015 154.349,250.314 148,251C143.349,251.503 138.679,252 134,252C123.154,252 111.649,250.06 101.5,246C100.279,245.512 93.914,244.19 93.4,243.333C90.946,239.243 94.743,232.034 96,228C100.33,214.106 105.616,202.57 115,191.233C117.812,187.836 120.565,184.381 123.606,181.187C127.713,176.872 134,166.249 134,175.5M277.956,181.01C285.572,188.597 292.191,198.009 298,207.067C300.477,210.929 301.342,216.224 303,220.5C305.039,225.758 306.945,230.079 307.19,236L307.5,243.5L304.25,243.813C301.671,244.063 298.49,246.17 296,247C290.969,248.677 285.264,250.415 280,251C266.192,252.534 252.823,251.806 239.5,248C236.308,247.088 233.125,246.128 230,245C228.639,244.509 226.906,244.78 225.824,243.82C225.544,243.572 225.762,242.993 226.01,242.712C228.608,239.774 231.593,237.198 234.239,234.303C239.085,229 243.783,222.782 248,217C250.685,213.319 252.138,209.053 254.111,205C257.189,198.678 260.57,192.683 263,186C264.288,182.458 264.672,176.632 266.509,173.574C266.965,172.815 267.963,171.596 268.706,172.079C272.3,174.414 274.92,177.985 277.956,181.01M204,263C204,264.116 210.154,266.567 211,266.886C217.615,269.377 225.214,272.594 232.167,273.943C247.355,276.889 262.549,278.739 278,277.147C278.969,277.047 299.075,274.1 299.833,273.957C300.577,273.817 304.228,272.38 305,272C305.577,271.716 306.432,270.395 306.648,271C310.532,281.899 303.42,296.853 298.939,307C296.442,312.654 290.891,319.731 287,324.497C273.919,340.52 259.465,350.793 241,359C238.05,360.311 235.199,362.198 232,362.894C195.921,370.737 157.113,365.871 129.978,340C114.93,325.653 102.604,310.73 97,290.5C95.741,285.955 93,280.229 93,275.5C93,273.963 93.238,272.334 94,271C94.234,270.591 94.593,271.762 95,272C95.59,272.346 99.625,273.855 100.167,273.957C103.837,274.648 107.554,275.064 111.25,275.604C123.392,277.378 134.722,278.446 147,277.143C160.304,275.731 172.083,272.828 184.5,268.448C188.763,266.944 195.484,262 200,262C201.374,262 204,261.626 204,263"/>
    </g>
</svg>
