<svg xmlns="http://www.w3.org/2000/svg" width="400" height="400" viewBox="0, 0, 400,400"><g><path d="M51.400 41.216 C 27.080 45.001,13.618 70.979,24.157 93.789 C 26.123 98.045,24.450 95.740,65.349 150.547 L 102.024 199.693 101.086 200.947 C 76.234 234.174,26.957 300.754,25.768 302.712 C 16.900 317.317,18.456 335.940,29.526 347.675 C 43.659 362.656,67.678 363.179,82.015 348.819 C 84.755 346.074,188.697 206.725,190.186 203.800 C 191.297 201.616,191.304 197.569,190.200 195.503 C 189.177 193.588,86.978 56.230,84.113 52.919 C 76.588 44.223,63.095 39.396,51.400 41.216 M337.800 41.175 C 329.147 42.610,321.072 46.936,315.882 52.919 C 314.698 54.284,300.883 72.680,285.183 93.800 C 269.483 114.920,247.732 144.170,236.847 158.800 C 225.963 173.430,215.585 187.380,213.786 189.800 C 208.696 196.646,207.768 199.836,209.773 203.600 C 211.915 207.622,314.359 345.167,317.797 348.636 C 340.725 371.777,379.690 355.383,379.682 322.600 C 379.679 309.997,378.704 308.192,353.979 275.000 C 309.734 215.604,298.300 200.204,298.145 199.802 C 298.056 199.569,314.905 176.704,335.588 148.989 C 381.147 87.944,378.934 91.607,378.954 77.200 C 378.986 54.517,359.613 37.558,337.800 41.175 " stroke="none" fill-rule="evenodd"></path></g></svg>