<svg xmlns="http://www.w3.org/2000/svg" version="1.1" width="400" height="400">
  <g transform="translate(5.2828813e-7,-0.82415259)">
<path d="m 199.395,98.81 c -6.089,6.897 -6.547,11.762 -1.776,18.877 2.067,3.082 2.998,5.553 3.396,9.01 0.199,1.735 0.345,1.697 2.736,-0.712 4.748,-4.783 5.002,-10.144 0.812,-17.08 -2.757,-4.562 -4.031,-8.019 -3.834,-10.396 0.056,-0.676 0.083,-1.23 0.06,-1.23 -0.024,0 -0.651,0.689 -1.394,1.531 m -11.527,10.427 c -4.06,4.863 -4.342,8.141 -1.126,13.099 1.036,1.598 1.768,3.62 2.032,5.612 0.18,1.356 0.289,1.347 1.783,-0.147 3.184,-3.184 3.477,-7.253 0.82,-11.362 -1.914,-2.958 -3.067,-6.007 -2.791,-7.383 0.166,-0.832 0.119,-0.82 -0.718,0.181 m -22.721,25.448 c -1.441,0.878 -1.512,1.277 -1.351,7.489 0.639,24.525 7.082,47.908 15.843,57.494 1.861,2.036 0.914,1.921 15.649,1.907 15.27,-0.016 13.971,0.192 16.211,-2.595 8.443,-10.511 13.835,-29.349 15.252,-53.288 0.495,-8.354 0.302,-10.094 -1.223,-11.024 -1.114,-0.68 -59.265,-0.664 -60.381,0.017 m 51.749,9.406 c 1.603,0.67 1.751,1.245 1.612,6.249 -0.458,16.366 -4.751,32.171 -10.965,40.363 -1.414,1.865 -0.935,1.794 -12.084,1.805 -11.707,0.011 -10.447,0.354 -13.055,-3.554 -5.346,-8.012 -8.628,-21.005 -9.625,-38.098 -0.304,-5.215 -0.174,-5.841 1.379,-6.674 1.064,-0.571 41.384,-0.657 42.738,-0.091 m -3.803,21.456 c -3.467,5.011 -19.777,7.69 -33.591,5.516 l -0.883,-0.139 0.151,0.946 c 0.816,5.105 6.309,16.289 8.35,17.001 1.202,0.419 16.15,0.328 17.059,-0.103 3.214,-1.525 8.177,-13.513 9.55,-23.065 0.186,-1.298 0.159,-1.305 -0.636,-0.156 M 6.444,179.446 c -0.065,0.169 -0.087,0.96 -0.05,1.757 l 0.069,1.45 77.753,0.057 77.753,0.057 -0.145,-1.394 c -0.08,-0.767 -0.146,-1.583 -0.146,-1.814 0,-0.56 -155.02,-0.673 -155.234,-0.113 m 222.722,1.319 c -0.084,0.896 -0.068,1.712 0.035,1.815 0.103,0.103 37.274,0.161 82.602,0.13 l 82.415,-0.057 v -1.701 -1.7 l -82.451,-0.057 -82.45,-0.057 -0.151,1.627 m -103.202,31.752 c -18.526,1 -32.155,19.278 -28.237,37.868 3.258,15.461 15.216,24.943 31.426,24.92 24.186,-0.034 38.949,-24.935 27.731,-46.774 -5.658,-11.015 -16.783,-16.777 -30.92,-16.014 m 85.487,-0.102 c -21.794,0.904 -35.443,21.625 -28.118,42.687 5.052,14.527 19.449,22.48 35.941,19.854 6.142,-0.978 14.754,-5.837 17.34,-9.783 l 0.398,-0.608 -3.483,-3.471 -3.484,-3.472 -1.814,1.464 c -8.158,6.581 -13.462,7.834 -21.855,5.164 -15.504,-4.934 -18.639,-28.167 -5.143,-38.116 8.021,-5.913 16.951,-5.31 26.116,1.765 l 2.375,1.834 0.976,-1.091 c 0.536,-0.6 2.115,-2.366 3.509,-3.925 l 2.534,-2.835 -1.511,-1.424 c -6.168,-5.812 -13.969,-8.45 -23.781,-8.043 m 144.318,1.129 c -0.532,0.858 -26.672,60.729 -26.584,60.889 0.225,0.409 10.707,0.192 10.965,-0.227 0.135,-0.218 1.601,-3.509 3.258,-7.313 l 3.013,-6.916 14.276,-0.058 14.275,-0.058 3.047,7.314 3.047,7.315 5.612,0.06 c 4.417,0.048 5.609,0 5.599,-0.226 -0.008,-0.158 -6.007,-13.961 -13.332,-30.673 l -13.317,-30.386 -4.805,-0.061 c -4.39,-0.056 -4.826,-0.026 -5.054,0.34 m -341.71,30.67 v 30.616 h 5.328 5.327 l 0.058,-21.686 0.058,-21.685 9.39,14.089 c 5.165,7.749 9.455,14.089 9.534,14.089 0.078,0 4.424,-6.386 9.657,-14.191 l 9.514,-14.19 0.058,21.673 0.058,21.674 h 5.327 5.328 V 244.1 213.598 l -5.692,0.06 -5.693,0.061 -9.108,14.036 c -5.009,7.72 -9.208,14.01 -9.33,13.979 -0.122,-0.031 -4.307,-6.347 -9.299,-14.036 l -9.078,-13.979 -5.718,-0.061 -5.719,-0.06 v 30.616 m 244.218,-0.11 v 30.499 h 5.328 5.329 V 261.791 248.98 h 14.511 14.51 l 0.059,12.755 0.059,12.755 h 5.328 5.329 l 0.058,-30.442 0.057,-30.443 h -5.443 -5.443 v 12.585 12.586 H 283.447 268.934 V 226.19 213.605 h -5.329 -5.328 v 30.499 M 133.673,222.79 c 17.527,4.857 20.961,30.017 5.42,39.703 -16.234,10.118 -35.238,-6.213 -29.657,-25.485 3.024,-10.445 14.199,-17 24.237,-14.218 m 232.216,15.594 5.031,11.843 -10.099,0.059 c -5.554,0.032 -10.137,0.02 -10.185,-0.028 -0.121,-0.121 9.999,-23.931 10.122,-23.813 0.055,0.053 2.364,5.426 5.131,11.939 M 6.444,293.731 c -0.065,0.169 -0.087,0.96 -0.05,1.758 l 0.069,1.45 H 200.34 394.218 v -1.701 -1.701 L 200.39,293.481 C 37.423,293.433 6.543,293.473 6.444,293.731"   style="fill-rule:evenodd;stroke:none" />
  </g>
</svg>
