<svg width="100%" height="100%" viewBox="0 0 400 400" version="1.1" xmlns="http://www.w3.org/2000/svg" style="fill-rule:evenodd;clip-rule:evenodd;stroke-linejoin:round;stroke-miterlimit:2;">
<g>
<path d="M286.4,40.193L286.4,41.6L281.6,41.6L281.6,44L276.4,44L276.4,46.4L268.8,46.4L268.8,48.8L264,48.8L264,51.6L258.8,51.6L258.8,54L254,54L254,55.2C254,56.267 253.867,56.4 252.8,56.4C251.733,56.4 251.6,56.533 251.6,57.6L251.6,58.8L246.4,58.8L246.4,60.2C246.4,61.489 246.305,61.6 245.2,61.6L244,61.6L244,66.4L242.8,66.4C241.739,66.4 241.6,66.536 241.6,67.575C241.6,68.608 241.443,68.764 240.3,68.875C239,69 239,69 238.881,71.5C238.763,73.975 238.75,74 237.581,74C236.404,74 236.4,74.009 236.4,76.4L236.4,78.8L234,78.8L234,94L231.6,94L231.6,108.749L230.3,108.875L229,109L228.784,126.4L226.4,126.4L226.4,141.6L224,141.6L224,156.4L221.6,156.4L221.6,174L218.8,174L218.8,188.8L216.4,188.8L216.4,204L214,204L214,221.6L211.6,221.6L211.6,241.2L212.8,241.2C213.867,241.2 214,241.333 214,242.4C214,243.467 214.133,243.6 215.2,243.6C216.305,243.6 216.4,243.711 216.4,245L216.4,246.4L233.6,246.4L233.6,245C233.6,243.667 233.667,243.6 235,243.6C236.289,243.6 236.4,243.505 236.4,242.4C236.4,241.333 236.533,241.2 237.6,241.2L238.8,241.2L238.8,226.4L241.2,226.4L241.2,211.2L243.6,211.2L243.6,193.6L246.4,193.6L246.4,178.853L247.5,178.727L248.6,178.6L248.818,163.6L251.2,163.6L251.2,146.4L253.6,146.4L253.6,131.2L256.4,131.2L256.4,116.453L257.5,116.327L258.6,116.2L258.816,98.8L261.2,98.8L261.2,88.8L263.6,88.8L263.6,83.6L265,83.6C266.289,83.6 266.4,83.505 266.4,82.4C266.4,81.333 266.533,81.2 267.6,81.2C268.667,81.2 268.8,81.067 268.8,80L268.8,78.8L271.2,78.8C273.591,78.8 273.6,78.796 273.6,77.619C273.6,76.45 273.625,76.437 276.1,76.319C278.6,76.2 278.6,76.2 278.725,74.9L278.851,73.6L281.225,73.6C283.597,73.6 283.6,73.599 283.6,72.4L283.6,71.2L291.2,71.2L291.2,70.019C291.2,68.85 291.225,68.837 293.7,68.719C296.096,68.605 296.205,68.554 296.327,67.5C296.449,66.438 296.535,66.4 298.827,66.4L301.2,66.4L301.2,63.6L306.4,63.6L306.4,62.4C306.4,61.333 306.533,61.2 307.6,61.2L308.8,61.2L308.8,56.4L311.2,56.4L311.2,46.4L308.8,46.4L308.8,44C308.8,41.612 308.794,41.6 307.625,41.6C306.592,41.6 306.436,41.443 306.325,40.3L306.2,39L286.4,38.786L286.4,40.193M111.6,117.6L111.6,118.8L104,118.8L104,121.6L96.4,121.6L96.4,122.8C96.4,123.867 96.267,124 95.2,124C94.133,124 94,124.133 94,125.2L94,126.4L88.8,126.4L88.8,127.6C88.8,128.667 88.667,128.8 87.6,128.8C86.495,128.8 86.4,128.911 86.4,130.2L86.4,131.6L81.6,131.6L81.6,132.8C81.6,133.905 81.489,134 80.2,134L78.8,134L78.8,138.8L77.6,138.8C76.495,138.8 76.4,138.911 76.4,140.2C76.4,141.489 76.305,141.6 75.2,141.6C74.133,141.6 74,141.733 74,142.8C74,143.867 73.867,144 72.8,144C71.601,144 71.6,144.003 71.6,146.375L71.6,148.749L70.3,148.875C69,149 69,149 68.881,151.5C68.763,153.975 68.75,154 67.581,154C66.404,154 66.4,154.009 66.4,156.4L66.4,158.8L64,158.8L64,171.6L61.6,171.6L61.6,191.2L64,191.2L64,203.6L66.4,203.6L66.4,208.8L68.8,208.8L68.8,213.6L71.6,213.6L71.6,218.8L74,218.8L74,223.6L75.2,223.6C76.305,223.6 76.4,223.711 76.4,225C76.4,226.282 76.499,226.4 77.573,226.4C78.556,226.4 78.767,226.579 78.873,227.5C78.979,228.417 79.217,228.621 80.3,228.725C81.443,228.836 81.6,228.992 81.6,230.025C81.6,231.064 81.739,231.2 82.8,231.2C83.867,231.2 84,231.333 84,232.4C84,233.599 84.003,233.6 86.375,233.6L88.749,233.6L88.875,234.9C88.985,236.043 89.157,236.215 90.3,236.325C91.443,236.436 91.6,236.592 91.6,237.625C91.6,238.794 91.612,238.8 94,238.8L96.4,238.8L96.4,241.2L101.6,241.2L101.6,243.6L108.749,243.6L108.875,244.9L109,246.2L123.58,246.418L123.701,239.909C123.794,234.896 123.842,235.722 123.911,243.5L124,253.6L126.4,253.6L126.4,268.8L128.784,268.8L129,286.2L130.3,286.325L131.6,286.451L131.6,301.2L134,301.2L134,316.4L136.4,316.4L136.4,333.6L138.782,333.6L139,348.6L140.3,348.725L141.6,348.851L141.6,363.6L144,363.6L144,371.2L145.2,371.2C146.267,371.2 146.4,371.333 146.4,372.4C146.4,373.461 146.536,373.6 147.575,373.6C148.608,373.6 148.764,373.757 148.875,374.9L149,376.2L200.1,376.302L251.2,376.403L251.2,373.6L256.4,373.6L256.4,371.227C256.4,368.935 256.438,368.849 257.5,368.727L258.6,368.6L258.818,353.6L261.2,353.6L261.2,338.8L263.6,338.8L263.6,323.6L266.4,323.6L266.4,306.453L267.5,306.327L268.6,306.2L268.818,291.2L271.2,291.2L271.2,276.4L273.6,276.4L273.6,258.851L274.9,258.725L276.2,258.6L276.418,243.6L278.8,243.6L278.8,228.8L281.2,228.8L281.2,211.2L283.6,211.2L283.6,196.451L284.9,196.325L286.2,196.2L286.418,181.2L288.8,181.2L288.8,156.4L287.6,156.4C286.533,156.4 286.4,156.267 286.4,155.2L286.4,154L281.2,154L281.2,151.6L268.8,151.6L268.8,152.8C268.8,153.867 268.667,154 267.6,154C266.533,154 266.4,154.133 266.4,155.2C266.4,156.267 266.267,156.4 265.2,156.4C264.133,156.4 264,156.533 264,157.6C264,158.667 263.867,158.8 262.8,158.8L261.6,158.8L261.6,174L258.8,174L258.8,191.6L256.4,191.6L256.4,206.4L254,206.4L254,221.6L251.6,221.6L251.6,238.749L250.3,238.875L249,239L248.782,254L246.4,254L246.4,268.8L244,268.8L244,286.4L241.6,286.4L241.6,301.6L238.8,301.6L238.8,316.4L236.4,316.4L236.4,334L234,334L234,346.4L232.8,346.4C231.733,346.4 231.6,346.533 231.6,347.6L231.6,348.8L168.8,348.8L168.8,344L166.4,344L166.4,326.4L163.6,326.4L163.6,311.6L161.2,311.6L161.2,296.4L158.8,296.4L158.8,281.6L156.4,281.6L156.4,264L153.6,264L153.6,248.8L151.2,248.8L151.2,234L148.8,234L148.8,216.4L146.4,216.4L146.4,201.6L143.6,201.6L143.6,186.4L141.2,186.4L141.2,174L140,174C138.933,174 138.8,173.867 138.8,172.8C138.8,171.739 138.664,171.6 137.625,171.6C136.592,171.6 136.436,171.443 136.325,170.3L136.2,169L119,169L118.875,170.3C118.764,171.443 118.608,171.6 117.575,171.6C116.406,171.6 116.4,171.612 116.4,174L116.4,176.4L114,176.4L114,191.2L116.4,191.2L116.4,206.4L118.8,206.4L118.8,218.8L117.6,218.8C116.533,218.8 116.4,218.667 116.4,217.6L116.4,216.4L111.2,216.4L111.2,214L106.4,214L106.4,212.8C106.4,211.695 106.289,211.6 105,211.6C103.667,211.6 103.6,211.533 103.6,210.2C103.6,208.911 103.505,208.8 102.4,208.8C101.333,208.8 101.2,208.667 101.2,207.6C101.2,206.533 101.067,206.4 100,206.4C98.933,206.4 98.8,206.267 98.8,205.2C98.8,204.133 98.667,204 97.6,204C96.533,204 96.4,203.867 96.4,202.8C96.4,201.695 96.289,201.6 95,201.6L93.6,201.6L93.6,196.4L91.2,196.4L91.2,186.4L88.8,186.4L88.8,176.4L91.2,176.4L91.2,168.8L93.6,168.8L93.6,163.6L96.4,163.6L96.4,161.227C96.4,158.935 96.438,158.849 97.5,158.727C98.364,158.627 98.627,158.364 98.727,157.5C98.833,156.579 99.044,156.4 100.027,156.4C101.101,156.4 101.2,156.282 101.2,155C101.2,153.711 101.295,153.6 102.4,153.6C103.467,153.6 103.6,153.467 103.6,152.4L103.6,151.2L108.8,151.2L108.8,150C108.8,148.933 108.933,148.8 110,148.8C111.063,148.8 111.2,148.665 111.2,147.615L111.2,146.43L118.6,146.2L118.725,144.9L118.851,143.6L136.4,143.6L136.4,146.4L144,146.4L144,148.8L148.8,148.8L148.8,150C148.8,151.105 148.911,151.2 150.2,151.2C151.489,151.2 151.6,151.295 151.6,152.4C151.6,153.467 151.733,153.6 152.8,153.6C153.905,153.6 154,153.711 154,155C154,156.289 154.095,156.4 155.2,156.4C156.267,156.4 156.4,156.533 156.4,157.6C156.4,158.667 156.533,158.8 157.6,158.8C158.667,158.8 158.8,158.933 158.8,160C158.8,161.105 158.911,161.2 160.2,161.2L161.6,161.2L161.6,166.4L164,166.4L164,173.6L166.4,173.6L166.4,188.8L164,188.8L164,196.4L161.6,196.4L161.6,201.6L158.784,201.6L159,218.6L160.3,218.725C161.443,218.836 161.6,218.992 161.6,220.025C161.6,221.064 161.739,221.2 162.8,221.2C163.867,221.2 164,221.333 164,222.4L164,223.6L178.8,223.6L178.8,222.4C178.8,221.333 178.933,221.2 180,221.2C181.067,221.2 181.2,221.067 181.2,220C181.2,218.933 181.333,218.8 182.4,218.8C183.461,218.8 183.6,218.664 183.6,217.625C183.6,216.592 183.757,216.436 184.9,216.325C186.2,216.2 186.2,216.2 186.319,213.7C186.437,211.225 186.45,211.2 187.619,211.2L188.8,211.2L188.8,203.6L191.2,203.6L191.2,196.4L193.6,196.4L193.6,168.8L191.2,168.8L191.2,158.8L188.8,158.8L188.8,151.6L187.625,151.6C186.592,151.6 186.436,151.443 186.325,150.3C186.215,149.157 186.043,148.985 184.9,148.875L183.6,148.749L183.6,146.375C183.6,144.003 183.599,144 182.4,144C181.333,144 181.2,143.867 181.2,142.8C181.2,141.733 181.067,141.6 180,141.6L178.8,141.6L178.8,136.4L177.6,136.4C176.533,136.4 176.4,136.267 176.4,135.2C176.4,134.095 176.289,134 175,134C173.711,134 173.6,133.905 173.6,132.8C173.6,131.733 173.467,131.6 172.4,131.6C171.295,131.6 171.2,131.489 171.2,130.2L171.2,128.8L166.4,128.8L166.4,127.6C166.4,126.495 166.289,126.4 165,126.4C163.711,126.4 163.6,126.305 163.6,125.2L163.6,124L158.8,124L158.8,121.6L153.6,121.6L153.6,118.8L143.6,118.8L143.6,116.4L111.6,116.4L111.6,117.6M121.492,225.091C121.405,225.921 121.333,225.34 121.331,223.8C121.329,222.26 121.4,221.581 121.489,222.291C121.577,223.001 121.579,224.261 121.492,225.091"/>
<path d="M244,66.4L242.8,66.4C239.23,66.4 239.472,71.744 238.625,73.678C238.017,75.066 236.4,74.517 236.4,76.4L236.4,78.8L234,78.8L234,94L211.6,241.2L212.8,241.2C213.176,241.2 216.4,244.646 216.4,245L216.4,246.4L233.6,246.4L233.6,245C233.6,244.751 237.303,241.2 237.6,241.2L238.8,241.2L253.6,146.4L261.2,88.8L263.6,88.8L263.6,83.6L265,83.6C265.354,83.6 308.8,56.4 308.8,56.4L311.2,56.4L311.2,46.4L308.8,46.4L308.8,44C308.8,41.645 306.567,42.788 306.325,40.3L306.2,39M111.6,117.6L111.6,118.8L104,118.8L104,121.6L96.4,121.6L96.4,122.8C96.4,123.931 94,124.069 94,125.2L94,126.4L88.8,126.4L88.8,127.6C88.8,128.779 86.4,129.021 86.4,130.2L86.4,131.6L81.6,131.6L81.6,132.8C81.6,133.905 81.489,134 80.2,134L78.8,134L78.8,138.8L77.6,138.8C76.121,138.8 71.6,145.31 71.6,146.375L71.6,148.749L70.3,148.875C70.007,148.903 66.4,155.745 66.4,156.4L66.4,158.8L64,158.8L64,171.6L61.6,171.6L61.6,191.2L64,191.2L64,203.6L66.4,203.6L66.4,208.8L68.8,208.8L68.8,213.6L71.6,213.6L71.6,218.8L74,218.8L74,223.6L75.2,223.6C76.423,223.6 76.75,225.494 77.573,226.4C78.918,227.88 83.806,233.6 86.375,233.6L88.749,233.6L88.875,234.9C89.045,236.669 92.713,238.8 94,238.8L96.4,238.8L96.4,241.2L101.6,241.2L101.6,243.6L108.749,243.6L108.875,244.9L109,246.2L123.58,246.418L123.701,239.909C123.794,234.896 123.842,235.722 123.911,243.5C123.911,243.5 148.852,374.659 148.875,374.9L149,376.2L200.1,376.302L251.2,376.403L251.2,373.6L256.4,373.6L256.4,371.227C256.4,368.935 256.438,368.849 257.5,368.727L258.6,368.6L288.8,156.4L287.6,156.4C286.533,156.4 286.4,156.267 286.4,155.2L286.4,154L281.2,154L281.2,151.6L268.8,151.6L268.8,152.8C268.8,153.286 263.286,158.8 262.8,158.8L261.6,158.8L234,346.4L232.8,346.4C231.733,346.4 231.6,346.533 231.6,347.6L231.6,348.8L168.8,348.8L168.8,344L166.4,344L153.6,248.8L151.2,248.8L151.2,234L148.8,234L148.8,216.4L146.4,216.4L146.4,201.6L143.6,201.6L143.6,186.4L141.2,186.4L141.2,174L140,174C139.723,174 136.348,170.541 136.325,170.3L136.2,169L119,169L118.875,170.3C118.633,172.788 116.4,171.645 116.4,174L116.4,176.4L114,176.4L114,191.2L116.4,191.2L116.4,206.4L118.8,206.4L118.8,218.8L117.6,218.8C116.533,218.8 116.4,218.667 116.4,217.6L116.4,216.4L111.2,216.4L111.2,214L106.4,214L106.4,212.8C106.4,211.526 104.462,211.138 103.6,210.2C102.65,209.166 97.011,201.6 95,201.6L93.6,201.6L93.6,196.4L91.2,196.4L91.2,186.4L88.8,186.4L88.8,176.4L91.2,176.4L91.2,168.8L93.6,168.8L93.6,163.6L96.4,163.6L96.4,161.227C96.4,157.462 103.6,155.492 103.6,152.4L103.6,151.2L108.8,151.2L108.8,150C108.8,148.872 111.2,148.743 111.2,147.615L111.2,146.43L118.6,146.2L118.725,144.9L118.851,143.6L136.4,143.6L136.4,146.4L144,146.4L144,148.8L148.8,148.8L148.8,150C151.612,152.148 156.675,161.2 160.2,161.2L161.6,161.2L161.6,166.4L164,166.4L164,173.6L166.4,173.6L166.4,188.8L164,188.8L164,196.4L161.6,196.4L161.6,201.6L158.784,201.6L159,218.6L160.3,218.725C160.541,218.748 164,222.123 164,222.4L164,223.6L178.8,223.6L178.8,222.4C178.8,220.652 185.353,216.862 186.052,215.903C186.463,215.339 185.493,211.2 187.619,211.2L188.8,211.2L188.8,203.6L191.2,203.6L191.2,196.4L193.6,196.4L193.6,168.8L191.2,168.8L191.2,158.8L188.8,158.8L188.8,151.6L187.625,151.6C186.34,151.6 186.179,148.998 184.9,148.875L183.6,148.749L183.6,146.375C183.6,145.294 181.652,141.6 180,141.6L178.8,141.6L178.8,136.4L177.6,136.4C176.92,136.4 171.2,131.013 171.2,130.2L171.2,128.8L166.4,128.8L166.4,127.6C166.4,126.371 163.6,126.429 163.6,125.2L163.6,124L158.8,124L158.8,121.6L153.6,121.6L153.6,118.8L143.6,118.8L143.6,116.4L111.6,116.4L111.6,117.6M121.492,225.091C121.479,225.214 121.482,225.344 121.43,225.456C121.412,225.496 121.382,225.378 121.38,225.334C121.349,224.823 121.332,224.312 121.331,223.8C121.33,223.267 121.36,222.734 121.376,222.202C121.377,222.157 121.372,222.11 121.383,222.066C121.389,222.044 121.408,221.996 121.426,222.011C121.5,222.068 121.486,222.218 121.489,222.291C121.543,223.452 121.614,223.93 121.492,225.091"/>
</g>
</svg>
