<svg id="svg" version="1.1" width="400" height="400" xmlns="http://www.w3.org/2000/svg" xmlns:xlink="http://www.w3.org/1999/xlink" style="display: block;"><g id="svgg"><path id="path0" d="M126.667 93.667 C 126.300 94.033,126.000 107.983,126.000 124.667 L 126.000 155.000 94.750 155.229 L 63.500 155.457 95.000 156.000 L 126.500 156.543 94.250 156.771 L 62.000 157.000 62.000 189.000 L 62.000 221.000 31.000 221.000 L 0.000 221.000 0.000 254.500 L 0.000 288.000 95.800 288.000 C 168.978 288.000,191.883 287.717,192.800 286.800 C 193.717 285.883,194.000 262.867,194.000 189.300 L 194.000 93.000 160.667 93.000 C 142.333 93.000,127.033 93.300,126.667 93.667 M207.000 188.918 C 207.000 241.673,207.273 285.548,207.607 286.418 C 208.155 287.845,217.599 288.000,304.233 288.000 L 400.252 288.000 399.812 270.750 C 399.521 259.367,398.934 252.694,398.086 251.129 C 397.300 249.679,397.228 249.023,397.900 249.438 C 398.527 249.826,399.000 249.422,399.000 248.500 C 399.000 247.610,398.597 247.131,398.105 247.435 C 397.612 247.740,396.937 247.279,396.605 246.412 C 395.678 243.997,395.912 243.333,397.102 245.000 C 397.939 246.172,398.041 245.953,397.568 244.000 C 397.235 242.625,396.483 239.359,395.897 236.743 C 395.311 234.127,394.452 232.220,393.989 232.507 C 393.526 232.793,392.829 230.477,392.439 227.359 C 392.050 224.242,390.451 219.258,388.886 216.284 C 387.322 213.309,386.116 210.566,386.206 210.188 C 386.474 209.072,383.051 201.714,381.431 199.924 C 380.610 199.016,379.739 197.240,379.495 195.976 C 379.252 194.712,377.916 191.960,376.526 189.861 C 375.137 187.761,374.000 185.610,374.000 185.080 C 374.000 184.551,373.480 183.797,372.845 183.405 C 372.082 182.932,371.965 183.134,372.500 184.000 C 373.039 184.873,372.919 185.068,372.138 184.585 C 371.494 184.187,371.176 183.524,371.432 183.110 C 372.082 182.058,368.292 176.049,366.557 175.384 C 365.770 175.082,365.358 174.230,365.642 173.492 C 365.925 172.753,364.997 171.389,363.578 170.459 C 362.160 169.530,361.000 168.212,361.000 167.531 C 361.000 166.044,356.486 161.000,355.156 161.000 C 354.640 161.000,353.928 159.851,353.576 158.447 C 353.215 157.008,351.422 155.002,349.468 153.848 C 347.560 152.723,346.000 151.151,346.000 150.355 C 346.000 149.558,344.723 148.174,343.162 147.278 C 341.600 146.382,339.913 144.715,339.412 143.574 C 338.910 142.433,336.925 140.714,335.000 139.753 C 333.075 138.793,331.725 137.674,332.000 137.267 C 332.275 136.860,331.262 135.934,329.750 135.209 C 328.238 134.484,327.000 133.465,327.000 132.945 C 327.000 132.425,326.529 132.000,325.952 132.000 C 325.376 132.000,323.797 130.804,322.442 129.343 C 321.088 127.882,319.693 126.974,319.342 127.325 C 318.990 127.676,317.982 127.163,317.102 126.184 C 315.055 123.910,309.000 119.662,309.000 120.500 C 309.000 120.850,307.712 120.219,306.137 119.098 C 304.563 117.976,302.950 117.383,302.554 117.780 C 302.158 118.176,301.983 117.860,302.167 117.078 C 302.374 116.192,301.180 115.237,299.000 114.545 C 297.075 113.934,293.700 112.325,291.500 110.969 C 289.300 109.613,287.275 108.477,287.000 108.445 C 284.095 108.108,280.000 106.659,280.000 105.968 C 280.000 104.820,272.977 102.896,271.689 103.692 C 271.127 104.040,271.002 103.805,271.405 103.155 C 272.044 102.119,270.836 101.547,268.732 101.888 C 268.310 101.956,266.309 101.320,264.285 100.475 C 262.261 99.629,259.996 99.171,259.251 99.457 C 258.506 99.743,258.163 99.545,258.489 99.018 C 258.815 98.490,257.826 97.795,256.291 97.473 C 254.756 97.151,251.623 96.414,249.329 95.836 C 247.035 95.257,244.715 95.058,244.173 95.393 C 243.631 95.728,239.658 95.327,235.344 94.501 C 231.030 93.676,222.887 93.000,217.250 93.000 L 207.000 93.000 207.000 188.918 M205.480 190.000 C 205.480 243.075,205.602 264.788,205.750 238.250 C 205.898 211.713,205.898 168.288,205.750 141.750 C 205.602 115.213,205.480 136.925,205.480 190.000 " stroke="none" fill="#000000" fill-rule="evenodd"></path></g></svg>