<svg viewBox="0 0 400 400" xmlns="http://www.w3.org/2000/svg">
  <path d="M194.667,22.667C193.955,23.377 194.276,24.641 194,25.608C192.933,29.343 191.537,34.531 189.146,37.51C185.209,42.416 179.012,45.037 174.544,49.464C166.078,57.851 158.802,68.237 151.133,77C148.74,79.734 147.672,84.746 146,88C144.509,90.903 142.263,93.326 140.481,96C138.004,99.717 139.523,100.095 137.709,104.179C132.978,114.833 128.242,125.914 125.5,137.643C123.887,144.545 125.063,144.574 123.674,151.428C123.21,153.716 121.821,152.917 121.33,155.245C119.256,165.068 119,179.722 119,188.441C119,203.548 120.78,219.144 124.36,233.827C125.757,239.556 129.481,246.204 132,251.607C133.51,254.845 133.914,258.427 135.5,261.638C145.203,281.289 161.058,299.727 176.784,314.514C181.818,319.247 188.976,322.737 191.409,329.204C195.185,339.243 192.751,351.509 194.768,361.814C195.052,363.264 202.456,367.861 203.464,367.842C206.855,367.781 207.107,361.863 207.482,358.492C208.703,347.509 204.471,332.221 212.689,323.218C217.94,317.466 224.975,313.588 230.507,308.106C236.317,302.349 243.207,294.382 248.765,288C249.578,287.067 249.046,284.743 249.589,283.771C252.238,279.026 255.812,274.538 258.5,269.638C282.115,226.588 283.515,173.167 266.5,127.362C259.567,108.699 250.313,90.914 238,75C229.399,63.883 219.016,54.196 210,43.421C205.763,38.357 204.162,31.296 201.024,25.521C200.036,23.702 197.618,19.716 194.667,22.667"/>
</svg>
