<svg version="1.1" xmlns="http://www.w3.org/2000/svg" width="400" height="400" viewBox="0, 0, 400,400">
<g>
<path d="M260.253 169.586 C 257.764 172.076,259.502 222.846,262.163 225.345 C 268.158 230.978,278.520 230.730,286.402 224.767 C 290.258 221.850,291.288 218.697,288.385 218.697 C 287.450 218.697,286.686 219.149,286.686 219.701 C 286.686 220.584,279.954 224.363,278.380 224.363 C 275.142 224.363,274.221 220.233,274.221 205.710 C 274.221 187.159,274.931 185.773,284.853 184.950 C 296.674 183.970,293.065 180.859,279.308 180.170 L 267.989 179.603 266.723 175.688 C 265.447 171.740,261.666 168.174,260.253 169.586 M1.344 182.153 C 1.627 183.646,3.043 184.221,7.071 184.480 C 15.423 185.018,15.864 186.235,15.864 208.751 L 15.864 227.762 20.873 227.762 C 26.521 227.762,25.975 228.838,28.346 213.031 C 30.687 197.423,34.958 188.102,39.770 188.102 C 43.304 188.102,44.193 192.668,44.193 210.839 L 44.193 227.762 48.568 227.762 L 52.943 227.762 55.459 213.881 C 61.612 179.926,70.557 177.137,71.202 208.972 L 71.583 227.762 78.284 227.762 L 84.986 227.762 84.986 209.029 C 84.986 190.213,83.940 184.025,80.391 181.831 C 77.040 179.760,68.905 181.099,63.168 184.665 C 57.705 188.062,55.617 188.005,55.541 184.459 C 55.447 180.037,42.970 180.131,36.627 184.602 L 31.753 188.038 30.083 184.808 C 27.848 180.487,26.672 180.170,12.855 180.170 C 2.145 180.170,1.004 180.366,1.344 182.153 M110.633 181.272 C 86.926 188.855,88.053 223.615,112.173 228.788 C 134.843 233.649,152.028 208.469,135.446 194.688 C 129.994 190.158,123.912 191.286,127.348 196.191 C 131.862 202.635,128.643 215.310,121.930 217.525 C 111.194 221.068,102.967 208.788,108.076 196.847 C 113.077 185.158,126.316 182.528,136.261 191.247 C 138.490 193.202,138.810 192.410,137.090 189.196 C 133.893 183.224,118.729 178.682,110.633 181.272 M185.269 180.734 C 184.646 180.945,182.275 181.428,180.001 181.807 C 177.726 182.186,173.992 183.768,171.702 185.322 L 167.538 188.147 165.567 185.712 C 164.163 183.978,161.905 183.115,157.718 182.713 L 151.841 182.148 151.841 204.955 L 151.841 227.762 157.427 227.762 L 163.012 227.762 164.316 221.246 C 168.682 199.429,173.121 188.479,178.615 185.976 C 186.105 182.563,188.102 187.527,188.102 209.557 L 188.102 227.762 194.334 227.762 L 200.567 227.762 200.567 208.052 L 200.567 188.342 197.279 184.822 C 195.471 182.887,192.963 181.303,191.706 181.303 C 190.449 181.303,188.741 181.089,187.911 180.826 C 187.081 180.564,185.892 180.522,185.269 180.734 M223.897 181.498 C 205.938 185.465,204.897 196.926,221.455 208.374 C 231.059 215.013,233.001 217.526,231.169 220.950 C 229.388 224.277,224.921 224.958,219.858 222.676 C 212.000 219.132,210.986 222.695,218.729 226.645 C 230.836 232.822,247.025 226.150,247.025 214.984 C 247.025 210.456,244.870 207.931,235.678 201.689 C 220.849 191.619,224.998 179.419,240.514 187.469 C 243.589 189.065,246.567 190.085,247.132 189.736 C 252.636 186.334,233.199 179.443,223.897 181.498 M317.915 181.434 C 293.885 185.196,290.150 215.964,312.414 226.742 C 321.589 231.183,337.970 229.172,341.694 223.147 C 343.453 220.301,340.145 219.681,335.591 222.005 C 324.989 227.413,312.748 221.818,312.748 211.563 C 312.748 206.631,315.937 205.099,326.208 205.099 C 336.114 205.099,341.203 203.432,343.309 199.496 C 348.845 189.153,334.370 178.857,317.915 181.434 M390.368 180.912 C 389.122 181.176,387.074 181.606,385.817 181.869 C 384.561 182.132,380.772 184.406,377.397 186.924 C 370.022 192.426,369.319 192.486,367.139 187.794 C 365.882 185.090,364.364 183.870,361.315 183.117 C 353.458 181.175,353.541 180.935,353.541 205.630 L 353.541 227.762 359.722 227.762 L 365.903 227.762 366.597 223.513 C 366.979 221.176,367.548 217.734,367.862 215.864 C 370.519 200.017,382.540 185.836,393.315 185.836 C 397.273 185.836,397.734 185.540,397.734 183.003 C 397.734 180.099,396.230 179.673,390.368 180.912 M328.699 188.015 C 335.441 194.757,332.395 199.668,321.170 200.154 C 312.961 200.509,312.342 199.644,315.461 192.180 C 318.620 184.619,323.704 183.019,328.699 188.015 " stroke="none" fill-rule="evenodd"></path>
</g>
</svg>