<svg id="svg" version="1.1" width="400" height="400" viewBox="0 0 400 400" xmlns="http://www.w3.org/2000/svg" xmlns:xlink="http://www.w3.org/1999/xlink" ><g id="svgg"><path id="path0" d="M289.375 167.538 L 289.375 189.451 288.672 188.933 C 282.855 184.643,267.547 183.948,259.810 187.622 C 251.552 191.544,245.928 199.086,244.213 208.542 C 243.989 209.774,243.794 210.487,243.778 210.128 C 243.433 202.129,235.501 191.772,226.645 187.756 C 218.377 184.007,204.480 184.034,196.346 187.815 C 187.602 191.880,181.612 199.169,179.528 208.281 C 179.336 209.124,179.253 208.981,178.715 206.875 C 175.225 193.210,163.598 185.208,147.188 185.173 C 130.588 185.139,119.011 193.162,115.511 207.125 L 114.783 210.030 114.594 206.656 C 113.796 192.417,104.360 185.321,86.213 185.314 C 78.355 185.312,74.056 186.244,70.202 188.789 L 68.372 189.996 67.497 189.373 C 67.016 189.030,66.208 188.750,65.701 188.750 C 65.194 188.750,64.302 188.399,63.718 187.969 C 63.134 187.540,61.780 186.602,60.709 185.884 L 58.761 184.580 60.795 183.115 C 61.914 182.310,65.842 179.486,69.524 176.841 C 75.346 172.658,76.220 171.922,76.234 171.190 C 76.258 169.946,76.027 169.914,71.013 170.469 C 40.373 173.858,26.244 178.033,6.094 189.654 C 3.688 191.041,1.534 192.179,1.308 192.182 C 0.095 192.198,1.078 194.218,2.344 194.311 L 3.594 194.403 3.552 201.655 C 3.520 207.259,3.389 209.439,2.975 211.250 C 2.258 214.393,2.471 220.423,3.414 223.688 C 5.700 231.600,7.458 234.297,7.995 230.718 C 8.566 226.907,7.597 213.658,6.413 209.087 C 5.868 206.984,5.734 195.492,6.245 194.688 C 6.495 194.294,22.323 194.088,22.702 194.474 C 22.785 194.558,22.789 201.691,22.719 225.781 L 22.656 247.344 32.813 247.344 L 42.969 247.344 43.125 227.437 C 43.224 214.771,43.395 207.426,43.594 207.243 C 43.766 207.084,44.920 206.712,46.159 206.416 C 47.399 206.119,49.784 205.203,51.459 204.380 C 54.934 202.674,55.238 202.711,56.527 205.004 C 57.946 207.528,57.942 207.479,58.115 227.813 L 58.281 247.344 68.594 247.344 L 78.906 247.344 79.070 227.813 C 79.179 214.780,79.348 207.963,79.578 207.325 C 82.020 200.545,89.832 199.681,92.872 205.855 L 93.906 207.955 93.993 227.540 C 94.064 243.457,94.159 247.191,94.500 247.474 C 94.793 247.717,97.870 247.797,104.725 247.739 L 114.531 247.656 114.688 235.625 C 114.787 227.935,114.935 224.130,115.098 225.081 C 117.000 236.223,126.524 245.647,138.594 248.330 C 156.627 252.339,174.667 242.831,178.691 227.198 L 179.291 224.864 179.812 226.729 C 184.286 242.757,199.882 251.588,218.411 248.583 C 231.624 246.440,243.406 234.810,243.779 223.542 C 243.796 223.055,244.001 223.623,244.236 224.805 C 246.354 235.468,253.351 243.803,262.813 246.935 C 269.971 249.305,281.762 248.331,288.032 244.852 L 289.344 244.124 289.438 245.734 L 289.531 247.344 299.531 247.344 L 309.531 247.344 309.610 196.484 L 309.689 145.625 299.532 145.625 L 289.375 145.625 289.375 167.538 M313.202 196.484 L 313.281 247.344 323.438 247.344 L 333.594 247.344 333.673 196.484 L 333.752 145.625 323.438 145.625 L 313.123 145.625 313.202 196.484 M306.250 196.094 L 306.250 244.063 299.543 244.063 L 292.836 244.063 292.746 241.172 L 292.656 238.281 290.986 238.186 C 289.430 238.097,289.242 238.166,288.246 239.191 C 283.602 243.973,273.242 245.935,265.625 243.474 C 242.696 236.068,240.712 201.465,262.620 191.061 C 271.448 186.868,284.241 188.839,288.333 195.022 C 289.156 196.266,289.182 196.277,290.910 196.186 L 292.656 196.094 292.736 172.109 L 292.816 148.125 299.533 148.125 L 306.250 148.125 306.250 196.094 M330.313 196.094 L 330.313 244.063 323.438 244.063 L 316.563 244.063 316.563 196.094 L 316.563 148.125 323.438 148.125 L 330.313 148.125 330.313 196.094 M361.944 185.313 C 347.310 186.855,336.757 196.416,334.522 210.156 C 330.662 233.894,345.086 250.159,369.219 249.281 C 385.060 248.705,400.000 239.431,400.000 230.173 L 400.000 227.188 390.146 227.188 C 381.034 227.188,380.280 227.229,380.127 227.734 C 378.636 232.633,369.421 235.549,363.944 232.854 C 360.677 231.246,356.989 227.290,356.113 224.453 L 355.895 223.750 377.948 223.750 L 400.000 223.750 400.000 215.632 C 400.000 207.862,399.968 207.430,399.262 205.554 C 393.565 190.420,380.536 183.353,361.944 185.313 M154.379 189.476 C 179.331 195.876,184.192 228.316,162.151 241.334 C 142.658 252.846,117.859 238.918,118.044 216.563 C 118.196 198.216,136.181 184.809,154.379 189.476 M218.754 189.476 C 246.656 196.633,248.121 234.738,220.846 243.894 C 199.912 250.922,178.994 233.292,182.855 211.875 C 185.768 195.720,202.468 185.300,218.754 189.476 M374.219 189.368 C 387.710 192.039,398.103 205.117,398.124 219.451 L 398.125 220.308 374.922 220.389 L 351.719 220.469 351.627 222.378 C 351.394 227.206,355.801 233.676,361.085 236.265 C 367.628 239.471,380.513 236.925,382.961 231.942 L 383.594 230.654 389.940 230.640 C 394.934 230.628,396.238 230.708,396.059 231.016 C 392.460 237.186,384.750 242.358,375.714 244.665 C 352.583 250.571,332.457 231.225,338.769 209.153 C 342.927 194.612,358.056 186.169,374.219 189.368 M91.641 189.213 C 101.727 190.733,108.111 195.806,110.530 204.219 C 111.008 205.882,111.080 208.252,111.175 225.234 L 111.281 244.375 104.391 244.375 L 97.500 244.375 97.500 225.369 C 97.500 204.414,97.515 204.596,95.544 201.698 C 92.605 197.376,82.949 196.619,78.858 200.390 C 75.624 203.371,75.633 203.304,75.629 225.391 L 75.625 244.063 68.594 244.063 L 61.563 244.063 61.558 225.547 C 61.552 205.857,61.482 204.786,60.034 202.331 L 59.347 201.167 61.655 198.787 C 62.924 197.477,64.358 195.806,64.840 195.071 C 65.640 193.854,65.763 193.778,66.243 194.212 C 67.179 195.060,70.056 194.848,70.961 193.864 C 74.665 189.837,83.139 187.931,91.641 189.213 M364.063 196.281 C 358.038 197.457,352.344 204.415,352.344 210.600 L 352.344 213.281 368.438 213.281 L 384.531 213.281 384.626 211.440 C 385.131 201.654,374.956 194.153,364.063 196.281 M272.031 197.621 C 263.254 199.755,258.211 212.025,261.241 223.872 C 264.453 236.428,276.886 240.586,287.458 232.638 C 292.477 228.866,292.867 227.714,292.749 217.026 L 292.656 208.594 291.801 206.768 C 288.486 199.691,279.883 195.711,272.031 197.621 M141.275 199.250 C 134.931 201.534,131.703 207.656,131.735 217.344 C 131.781 231.110,139.385 238.013,151.531 235.315 C 165.031 232.316,166.793 205.543,153.881 199.619 C 151.833 198.679,143.535 198.436,141.275 199.250 M205.650 199.250 C 195.295 202.977,192.270 222.518,200.631 231.666 C 204.109 235.472,212.436 236.943,217.940 234.725 C 228.201 230.589,230.273 208.911,221.124 201.414 C 218.058 198.902,209.817 197.749,205.650 199.250 M370.313 199.859 C 373.826 200.561,377.586 203.691,379.490 207.500 L 380.661 209.844 368.564 209.926 C 361.910 209.971,356.404 209.946,356.329 209.870 C 356.024 209.566,358.567 205.292,360.028 203.653 C 362.163 201.257,366.688 199.127,368.750 199.546 C 369.008 199.598,369.711 199.739,370.313 199.859 M278.722 201.217 C 285.857 203.438,289.167 208.401,289.316 217.099 C 289.458 225.411,287.980 227.934,280.783 231.666 C 275.633 234.337,269.682 231.864,266.471 225.719 C 260.854 214.971,266.100 202.004,276.613 200.652 C 276.726 200.637,277.675 200.891,278.722 201.217 M149.914 202.660 C 157.636 204.953,161.273 216.322,157.031 224.906 C 152.408 234.260,141.819 234.463,137.177 225.288 C 131.411 213.892,139.478 199.561,149.914 202.660 M214.289 202.660 C 222.156 204.996,225.732 216.823,221.169 225.412 C 216.472 234.251,206.054 234.185,201.552 225.288 C 195.783 213.886,203.848 199.559,214.289 202.660 M29.030 208.443 C 30.130 208.636,32.977 208.819,35.356 208.850 L 39.683 208.906 39.685 226.484 L 39.688 244.063 32.813 244.063 L 25.938 244.063 25.938 225.916 C 25.938 208.781,25.968 207.779,26.484 207.931 C 26.785 208.020,27.931 208.250,29.030 208.443 " stroke="none" fill="#000000" fill-rule="evenodd"></path><path id="path1" d="M289.375 167.538 L 289.375 189.451 288.672 188.933 C 282.855 184.643,267.547 183.948,259.810 187.622 C 251.552 191.544,245.928 199.086,244.213 208.542 C 243.989 209.774,243.794 210.487,243.778 210.128 C 243.433 202.129,235.501 191.772,226.645 187.756 C 218.377 184.007,204.480 184.034,196.346 187.815 C 187.602 191.880,181.612 199.169,179.528 208.281 C 179.336 209.124,179.253 208.981,178.715 206.875 C 175.225 193.210,163.598 185.208,147.188 185.173 C 130.588 185.139,119.011 193.162,115.511 207.125 L 114.783 210.030 114.594 206.656 C 113.796 192.417,104.360 185.321,86.213 185.314 C 78.355 185.312,74.056 186.244,70.202 188.789 L 68.372 189.996 67.497 189.373 C 67.016 189.030,66.208 188.750,65.701 188.750 C 65.194 188.750,64.302 188.399,63.718 187.969 C 63.134 187.540,61.780 186.602,60.709 185.884 L 58.761 184.580 60.795 183.115 C 61.914 182.310,65.842 179.486,69.524 176.841 C 75.346 172.658,76.220 171.922,76.234 171.190 C 76.258 169.946,76.027 169.914,71.013 170.469 C 40.373 173.858,26.244 178.033,6.094 189.654 C 3.688 191.041,1.534 192.179,1.308 192.182 C 0.095 192.198,1.078 194.218,2.344 194.311 L 3.594 194.403 3.552 201.655 C 3.520 207.259,3.389 209.439,2.975 211.250 C 2.258 214.393,2.471 220.423,3.414 223.688 C 5.700 231.600,7.458 234.297,7.995 230.718 C 8.566 226.907,7.597 213.658,6.413 209.087 C 5.868 206.984,5.734 195.492,6.245 194.688 C 6.495 194.294,22.323 194.088,22.702 194.474 C 22.785 194.558,22.789 201.691,22.719 225.781 L 22.656 247.344 32.813 247.344 L 42.969 247.344 43.125 227.437 C 43.224 214.771,43.395 207.426,43.594 207.243 C 43.766 207.084,44.920 206.712,46.159 206.416 C 47.399 206.119,49.784 205.203,51.459 204.380 C 54.934 202.674,55.238 202.711,56.527 205.004 C 57.946 207.528,57.942 207.479,58.115 227.813 L 58.281 247.344 68.594 247.344 L 78.906 247.344 79.070 227.813 C 79.179 214.780,79.348 207.963,79.578 207.325 C 82.020 200.545,89.832 199.681,92.872 205.855 L 93.906 207.955 93.993 227.540 C 94.064 243.457,94.159 247.191,94.500 247.474 C 94.793 247.717,97.870 247.797,104.725 247.739 L 114.531 247.656 114.688 235.625 C 114.787 227.935,114.935 224.130,115.098 225.081 C 117.000 236.223,126.524 245.647,138.594 248.330 C 156.627 252.339,174.667 242.831,178.691 227.198 L 179.291 224.864 179.812 226.729 C 184.286 242.757,199.882 251.588,218.411 248.583 C 231.624 246.440,243.406 234.810,243.779 223.542 C 243.796 223.055,244.001 223.623,244.236 224.805 C 246.354 235.468,253.351 243.803,262.813 246.935 C 269.971 249.305,281.762 248.331,288.032 244.852 L 289.344 244.124 289.438 245.734 L 289.531 247.344 299.531 247.344 L 309.531 247.344 309.610 196.484 L 309.689 145.625 299.532 145.625 L 289.375 145.625 289.375 167.538 M313.202 196.484 L 313.281 247.344 323.438 247.344 L 333.594 247.344 333.673 196.484 L 333.752 145.625 323.438 145.625 L 313.123 145.625 313.202 196.484 M306.250 196.094 L 306.250 244.063 299.543 244.063 L 292.836 244.063 292.746 241.172 L 292.656 238.281 290.986 238.186 C 289.430 238.097,289.242 238.166,288.246 239.191 C 283.602 243.973,273.242 245.935,265.625 243.474 C 242.696 236.068,240.712 201.465,262.620 191.061 C 271.448 186.868,284.241 188.839,288.333 195.022 C 289.156 196.266,289.182 196.277,290.910 196.186 L 292.656 196.094 292.736 172.109 L 292.816 148.125 299.533 148.125 L 306.250 148.125 306.250 196.094 M330.313 196.094 L 330.313 244.063 323.438 244.063 L 316.563 244.063 316.563 196.094 L 316.563 148.125 323.438 148.125 L 330.313 148.125 330.313 196.094 M361.944 185.313 C 347.310 186.855,336.757 196.416,334.522 210.156 C 330.662 233.894,345.086 250.159,369.219 249.281 C 385.060 248.705,400.000 239.431,400.000 230.173 L 400.000 227.188 390.146 227.188 C 381.034 227.188,380.280 227.229,380.127 227.734 C 378.636 232.633,369.421 235.549,363.944 232.854 C 360.677 231.246,356.989 227.290,356.113 224.453 L 355.895 223.750 377.948 223.750 L 400.000 223.750 400.000 215.632 C 400.000 207.862,399.968 207.430,399.262 205.554 C 393.565 190.420,380.536 183.353,361.944 185.313 M154.379 189.476 C 179.331 195.876,184.192 228.316,162.151 241.334 C 142.658 252.846,117.859 238.918,118.044 216.563 C 118.196 198.216,136.181 184.809,154.379 189.476 M218.754 189.476 C 246.656 196.633,248.121 234.738,220.846 243.894 C 199.912 250.922,178.994 233.292,182.855 211.875 C 185.768 195.720,202.468 185.300,218.754 189.476 M374.219 189.368 C 387.710 192.039,398.103 205.117,398.124 219.451 L 398.125 220.308 374.922 220.389 L 351.719 220.469 351.627 222.378 C 351.394 227.206,355.801 233.676,361.085 236.265 C 367.628 239.471,380.513 236.925,382.961 231.942 L 383.594 230.654 389.940 230.640 C 394.934 230.628,396.238 230.708,396.059 231.016 C 392.460 237.186,384.750 242.358,375.714 244.665 C 352.583 250.571,332.457 231.225,338.769 209.153 C 342.927 194.612,358.056 186.169,374.219 189.368 M91.641 189.213 C 101.727 190.733,108.111 195.806,110.530 204.219 C 111.008 205.882,111.080 208.252,111.175 225.234 L 111.281 244.375 104.391 244.375 L 97.500 244.375 97.500 225.369 C 97.500 204.414,97.515 204.596,95.544 201.698 C 92.605 197.376,82.949 196.619,78.858 200.390 C 75.624 203.371,75.633 203.304,75.629 225.391 L 75.625 244.063 68.594 244.063 L 61.563 244.063 61.558 225.547 C 61.552 205.857,61.482 204.786,60.034 202.331 L 59.347 201.167 61.655 198.787 C 62.924 197.477,64.358 195.806,64.840 195.071 C 65.640 193.854,65.763 193.778,66.243 194.212 C 67.179 195.060,70.056 194.848,70.961 193.864 C 74.665 189.837,83.139 187.931,91.641 189.213 M364.063 196.281 C 358.038 197.457,352.344 204.415,352.344 210.600 L 352.344 213.281 368.438 213.281 L 384.531 213.281 384.626 211.440 C 385.131 201.654,374.956 194.153,364.063 196.281 M272.031 197.621 C 263.254 199.755,258.211 212.025,261.241 223.872 C 264.453 236.428,276.886 240.586,287.458 232.638 C 292.477 228.866,292.867 227.714,292.749 217.026 L 292.656 208.594 291.801 206.768 C 288.486 199.691,279.883 195.711,272.031 197.621 M141.275 199.250 C 134.931 201.534,131.703 207.656,131.735 217.344 C 131.781 231.110,139.385 238.013,151.531 235.315 C 165.031 232.316,166.793 205.543,153.881 199.619 C 151.833 198.679,143.535 198.436,141.275 199.250 M205.650 199.250 C 195.295 202.977,192.270 222.518,200.631 231.666 C 204.109 235.472,212.436 236.943,217.940 234.725 C 228.201 230.589,230.273 208.911,221.124 201.414 C 218.058 198.902,209.817 197.749,205.650 199.250 M370.313 199.859 C 373.826 200.561,377.586 203.691,379.490 207.500 L 380.661 209.844 368.564 209.926 C 361.910 209.971,356.404 209.946,356.329 209.870 C 356.024 209.566,358.567 205.292,360.028 203.653 C 362.163 201.257,366.688 199.127,368.750 199.546 C 369.008 199.598,369.711 199.739,370.313 199.859 M278.722 201.217 C 285.857 203.438,289.167 208.401,289.316 217.099 C 289.458 225.411,287.980 227.934,280.783 231.666 C 275.633 234.337,269.682 231.864,266.471 225.719 C 260.854 214.971,266.100 202.004,276.613 200.652 C 276.726 200.637,277.675 200.891,278.722 201.217 M149.914 202.660 C 157.636 204.953,161.273 216.322,157.031 224.906 C 152.408 234.260,141.819 234.463,137.177 225.288 C 131.411 213.892,139.478 199.561,149.914 202.660 M214.289 202.660 C 222.156 204.996,225.732 216.823,221.169 225.412 C 216.472 234.251,206.054 234.185,201.552 225.288 C 195.783 213.886,203.848 199.559,214.289 202.660 M29.030 208.443 C 30.130 208.636,32.977 208.819,35.356 208.850 L 39.683 208.906 39.685 226.484 L 39.688 244.063 32.813 244.063 L 25.938 244.063 25.938 225.916 C 25.938 208.781,25.968 207.779,26.484 207.931 C 26.785 208.020,27.931 208.250,29.030 208.443 " stroke="none" fill="#000000" fill-rule="evenodd"></path></g></svg>