<?xml version="1.0" encoding="UTF-8" standalone="no"?>
<!DOCTYPE svg PUBLIC "-//W3C//DTD SVG 1.1//EN" "http://www.w3.org/Graphics/SVG/1.1/DTD/svg11.dtd">
<svg width="100%" height="100%" viewBox="0 0 515 515" version="1.1" xmlns="http://www.w3.org/2000/svg" xmlns:xlink="http://www.w3.org/1999/xlink" xml:space="preserve" xmlns:serif="http://www.serif.com/" style="fill-rule:evenodd;clip-rule:evenodd;stroke-linejoin:round;stroke-miterlimit:2;">
    <g id="svgg">
        <path id="path0" d="M44,204.553L44,288.106L50.95,287.903C100.394,286.454 58.129,209.182 59,158.5C59.015,157.606 59.659,160.162 60,160.988C61.829,165.421 61.864,165.26 64.062,169.537C68.185,177.557 72.482,185.73 75.98,194C86.554,218.999 97.96,244.102 110.176,268.391C112.362,272.737 114.332,277.148 116.463,281.524C117.422,283.494 118.822,287.968 122,288.292C126.229,288.722 127.589,280.523 128.814,278C132.757,269.881 137.812,261.81 140.686,253.372C144.117,243.296 149.595,233.341 154.582,224.071C161.328,211.531 165.036,197.368 171.986,185C175.352,179.01 177.668,172.173 180.767,166.112C183.502,160.763 183.162,160.819 186.015,155.509C186.414,154.767 187.166,152.425 187.182,153.267C187.595,175.257 187.303,197.256 187.211,219.25L186.922,288L199,288L199,121L193.406,121C184.437,121 184.214,129.405 181.198,136C178.892,141.043 178.448,140.67 176.025,145.516C163.347,170.876 151.877,197.641 140.417,223.75C136.208,233.339 130.191,243.101 126.455,252.782C125.424,255.453 124.867,258.286 123.955,261C123.529,262.267 123.052,265.324 122,264.5C120.265,263.14 120.631,260.298 119.7,258.3C116.457,251.34 113.859,244.516 110.495,237.638C101.21,218.654 92.844,199.186 83.478,180.25C79.348,171.9 76.85,162.415 72.179,154.389C67.304,146.013 64.026,137.054 59.534,128.501C58.415,126.371 57.933,123.649 56.011,122.202C54.266,120.889 51.755,121 49.571,121L44,121L44,204.553M221,123.351C221,129.267 224.651,134.606 226.423,140.25C228.623,147.259 230.328,154.435 232.917,161.309C234.64,165.883 237.633,169.913 239.323,174.5C242.313,182.615 243.863,191.218 246.917,199.309C247.181,200.009 248.706,199.455 249,200.142C252.399,208.077 255.438,216.184 257.956,224.441C258.497,226.214 256.549,225.964 257.266,227.742C260.536,235.854 264.881,244.206 268,252.284C270.956,259.939 273.945,267.586 276.63,275.34C277.156,276.859 275.49,276.737 276.119,278.283C276.724,279.772 277.862,281.019 278.39,282.538C278.736,283.537 278.057,286.386 279.167,287.322C280.666,288.586 283.598,287.954 285.2,287.888L291.447,287.633L293.228,280.623C294.591,275.257 299.004,267.649 301,262.532C307.484,245.908 314.376,229.445 320.904,212.838C321.41,211.549 319.115,212.308 319.642,211.015C328.409,189.507 336.639,167.848 345.353,146.261C347.606,140.678 362.711,118.442 345.419,120.559C339.584,121.273 337.703,128.482 336.03,132.858C332.83,141.23 329.678,149.62 326.5,158C317.869,180.757 309.492,203.613 300.601,226.27C298.988,230.38 296.528,234.131 295,238.274C292.157,245.98 289.868,253.881 287.512,261.75C287.46,261.924 287.436,266 286,266C284.577,266 284.522,261.924 284.488,261.75C283.741,257.886 283.376,253.906 282.077,250.191C281.775,249.329 280.208,249.41 279.875,248.559C277.325,242.053 275.92,235.148 273.597,228.557C261.396,193.944 245.788,160.179 235.947,124.75L234.906,121L227.953,121C221.321,121 221,121.108 221,123.351M400.361,121.765C396.31,124.375 390.317,144.314 390.144,144.796C380.994,170.343 382.105,170.532 372.215,195.967C367.04,209.277 361.468,222.451 356.954,236C355.086,241.607 352.576,246.98 350.463,252.5C347.092,261.309 343.98,270.217 340.503,278.984C340.007,280.235 337.865,282.967 337.891,284.786C337.962,289.892 350.432,289.127 352.524,285.517C359.396,273.662 362.356,259.931 366.892,247C367.623,244.916 368.322,239.318 370.46,237.7C380.39,230.184 395.461,236 405.994,236L441.05,236L441.65,239C442.131,241.403 443.723,243.447 444.561,245.75C447.477,253.767 450.126,261.878 452.907,269.943C455.701,278.046 456.455,288 467.094,288L474.25,288L473.625,284.875C471.255,273.033 461.579,253.543 457,242.615C454.2,235.932 455.754,235.637 453.562,228.697C450.984,220.536 446.325,213.16 443.436,205.104C434.104,179.081 434.93,178.996 425.066,153.179C422.236,145.773 419.479,138.337 416.498,130.991C415.602,128.782 413.879,126.871 413.439,124.528L412.777,121L407.139,121.015C404.037,121.024 400.987,121.361 400.361,121.765M409.98,151.989C411.044,152.65 410.898,154.32 411.318,155.5C412.559,158.991 413.732,162.505 414.962,166C420.751,182.449 426.409,198.945 432.375,215.33C433.474,218.348 434.757,218.539 435.454,221.75L436.159,225L405.472,225C396.944,225 388.416,224.847 379.889,224.742C379.602,224.738 375.453,225.136 375.393,223.418C375.192,217.629 381.781,214.218 382.606,209.146C382.858,207.593 381.306,208.469 381,207.059C380.901,206.6 381.748,206.434 381.928,206C383.426,202.388 384.613,198.655 386.001,195C390.163,184.044 394.641,173.206 398.578,162.167C401.719,153.359 400.678,150.156 405.431,141.901C405.674,141.478 406.383,142.327 406.618,142.755C407.838,144.981 407.587,150.51 409.98,151.989M58.227,154.409C58.295,154.764 58.334,155.124 58.364,155.484C58.411,156.067 58.121,156.553 57.463,156.35C57.326,156.309 57.193,156.247 57.08,156.16C56.552,155.758 56.287,155.176 56.132,154.547C56.083,154.347 56.045,154.144 56.029,153.938C56.007,153.667 56.004,153.393 56.02,153.121C56.048,152.664 56.396,151.823 57.014,152.025C57.286,152.114 57.506,152.497 57.62,152.687C57.936,153.211 58.113,153.812 58.227,154.409M17,357.5L17,393L498,393L498,322L17,322L17,357.5"/>
    </g>
</svg>
