<svg width="100%" height="100%" viewBox="0 0 400 399" version="1.1" xmlns="http://www.w3.org/2000/svg" style="fill-rule:evenodd;clip-rule:evenodd;stroke-linejoin:round;stroke-miterlimit:2;">
    <g>
        <path d="M176.5,0.632C124.711,8.271 80.829,30.159 46.652,70.546C39.154,79.406 32.734,89.141 26.312,98.81C19.797,108.618 18.372,114.676 13.444,125.25C12.328,127.645 10.429,129.703 9.726,132.25C-2.702,177.252 -2.702,221.748 9.726,266.75C11.738,274.037 16.004,280.507 19.312,287.305C35.763,321.107 63.028,349.9 94.841,369.696C97.775,371.522 129.743,388.825 139.628,391.659C172.936,401.208 209.624,400.869 243.554,395.13C300.563,385.488 346.659,345.775 375.444,297.176C379.94,289.586 387.763,275.323 390.255,266.75C403.259,222.022 402.664,177.007 390.255,132.25C389.55,129.707 387.734,127.612 386.556,125.25C382.043,116.203 377.899,106.969 373.183,98.026C347.027,48.422 293.143,11.983 238.233,2.802C221.319,-0.026 194.64,-2.042 176.5,0.632M202,10.848C202,14.991 214.224,12.296 214.25,12.298C221.455,12.825 228.623,13.844 235.747,15.042C254.964,18.274 266.221,22.895 283.577,31.475C320.553,49.754 349.724,77.66 368.044,114.649C372.663,123.975 377.866,133.18 380.678,143.199C385.93,161.914 385.301,169.724 388,189.034C388.492,192.552 390.042,195.948 390,199.5C389.939,204.641 388.402,209.658 387.697,214.75C385.73,228.953 384.752,243.214 380.385,257.001C365.97,302.511 333.669,340.345 292.059,363.302C283.207,368.186 273.676,371.724 264.514,376C261.959,377.193 259.633,378.973 256.911,379.707C236.201,385.287 230.931,384.062 209.776,387C206.481,387.458 203.326,389.042 200,389C195.024,388.937 190.178,387.381 185.25,386.689C168.13,384.284 158.97,384.058 142.13,379.353C139.761,378.691 137.809,376.987 135.556,376C121.867,370.006 111.912,367.285 99.296,359C73.142,341.824 52.19,320.306 36.702,293.013C31.645,284.101 27.942,274.486 23.55,265.228C22.23,262.446 20.402,259.856 19.565,256.892C14.891,240.347 14.683,230.578 12.306,213.75C11.633,208.986 10.063,204.311 10,199.5C9.959,196.337 11.558,193.356 12,190.224C14.916,169.565 13.758,163.341 19.256,143.124C20.157,139.814 22.138,136.898 23.55,133.772C34.402,109.743 46.753,86.759 65,67.338C84.294,46.802 110.421,34.038 135.743,23C143.657,19.55 146.137,18.055 155.031,16.554C165.224,14.834 175.503,13.659 185.75,12.298C189.826,11.757 193.941,11.503 198,10.848C198.48,10.771 202,8.546 202,10.848M198,59.5L198,83L204.25,83.008C218.687,83.024 227.975,85.66 241.25,91.031C254.888,96.548 268.317,103.385 278.553,114.213C295.49,132.131 307.464,151.347 312.998,175.608C322.549,217.48 304.427,263.032 271.424,289.626C261.014,298.014 253.138,301.048 240,307.485C236.749,309.078 233.611,311.082 230.093,311.938C205.512,317.918 173.456,316.089 150.909,304.818C145.167,301.947 139.752,298.426 134.5,294.733C131.152,292.379 120.676,281.698 116.411,280.434C114.734,279.938 113.163,281.864 111.833,283C104.755,289.043 88.619,304.836 83,312.317C82.461,313.035 83.039,314.179 83.461,314.971C85.791,319.347 104.089,331.572 104.596,331.909C134.58,351.877 162.897,361.969 199.257,361.968C210.794,361.968 232.152,360.011 243.047,357.379C256.177,354.207 266.061,348.52 277.75,342.116C301.708,328.99 323.103,309.616 337.922,286.531C347.848,271.068 347.049,268.645 353.58,251.5C355.101,247.507 357.537,243.817 358.45,239.644C363.832,215.036 363.625,183.208 358.347,158.608C357.438,154.368 355.295,150.488 353.594,146.5C346.839,130.665 342.657,119.04 333.575,105.516C306.051,64.533 255.733,36 206.122,36L198,36L198,59.5M165.071,136.752C159.852,139.413 158.114,142.573 157.371,150.75L156.713,158L143.106,158.015C138.632,158.02 128.732,156.538 125.052,160.787C113.568,174.05 125.918,199.56 138.408,207.46C143.311,210.561 148.574,213.134 153.992,215.208C162.934,218.632 163.928,215.108 172.22,219.796C176.365,222.139 183.094,229.708 185.027,234.094C186.029,236.367 186.405,238.97 186.234,241.448C185.41,253.358 173.94,249.938 166,253.676C159.336,256.813 155.268,268.406 158.021,275.05L159.243,278L199.514,278C212.148,278 224.784,277.702 237.408,277.182C239.014,277.116 240.886,276.085 241.203,274.321C242.922,264.764 238.547,257.011 229.81,253.566C222.87,250.829 211.432,250.169 212.597,239.79C213.68,230.139 221.696,221.433 230.643,217.988C235.106,216.269 240.162,216.624 244.703,215.123C251.936,212.732 264.292,207.084 269,199.895C275.179,190.461 276.402,180.502 276.069,169.474C275.999,167.167 275.63,162.463 273.605,160.557C269.534,156.725 259.603,158 255.05,158L241,158L240.998,151.75C240.995,130.051 213.69,134.38 199.495,134.769C192.092,134.972 184.688,135.101 177.284,135.265C173.718,135.344 168.451,135.029 165.071,136.752M158.307,180.75C158.73,186.877 159.524,190.346 160.821,196.25C161.171,197.845 161.674,199.408 161.953,201.017C162.066,201.669 162.65,202.954 161.991,203C160.444,203.107 153.374,200.087 152.041,199.215C144.196,194.081 136,187.165 136,177.04L136,172L157.704,172L158.307,180.75M262.978,176.75C262.943,184.431 259.03,189.278 253.408,194.004C251.292,195.783 249.263,197.69 246.959,199.218C245.608,200.114 238.511,203.109 236.945,203C236.286,202.954 236.838,201.669 236.949,201.017C237.221,199.406 237.731,197.845 238.086,196.25C239.412,190.298 240.217,186.933 240.665,180.75L241.299,172L263,172L262.978,176.75"/>
    </g>
</svg>
