<svg id="svg" version="1.1" width="400" height="399" xmlns="http://www.w3.org/2000/svg" xmlns:xlink="http://www.w3.org/1999/xlink" style="display: block;"><g id="svgg"><path id="path0" d="M176.500 0.632 C 156.025 3.652,132.408 9.054,131.000 11.041 C 130.725 11.429,127.350 12.887,123.500 14.281 C 114.180 17.656,106.660 20.943,106.020 21.921 C 105.734 22.359,102.489 24.335,98.810 26.312 C 89.266 31.442,87.897 32.282,85.774 34.310 C 84.732 35.306,81.981 37.331,79.661 38.810 C 70.456 44.680,44.727 70.415,38.810 79.672 C 37.331 81.986,35.306 84.732,34.310 85.774 C 32.282 87.897,31.442 89.266,26.312 98.810 C 24.335 102.489,22.378 105.725,21.963 106.000 C 21.122 106.558,16.087 117.937,13.444 125.250 C 12.501 127.862,11.392 130.000,10.981 130.000 C 10.570 130.000,10.005 131.012,9.726 132.250 C 9.448 133.488,8.090 138.810,6.711 144.079 C -2.214 178.157,-2.214 220.843,6.711 254.921 C 8.090 260.190,9.448 265.512,9.726 266.750 C 10.005 267.988,10.570 269.000,10.981 269.000 C 11.392 269.000,12.501 271.138,13.444 273.750 C 16.087 281.063,21.122 292.442,21.963 293.000 C 22.378 293.275,24.335 296.511,26.312 300.190 C 31.433 309.717,32.282 311.103,34.284 313.200 C 35.266 314.228,37.616 317.487,39.506 320.442 C 41.396 323.397,43.293 325.969,43.721 326.157 C 44.150 326.346,46.975 329.425,49.999 333.000 C 53.024 336.575,56.174 340.016,56.999 340.646 C 57.825 341.277,60.569 343.752,63.098 346.146 C 71.974 354.550,75.480 357.524,79.661 360.190 C 81.981 361.669,84.732 363.694,85.774 364.690 C 87.897 366.718,89.266 367.558,98.810 372.688 C 102.489 374.665,105.725 376.626,106.000 377.044 C 106.665 378.056,117.016 382.631,124.500 385.220 C 127.800 386.362,130.725 387.595,131.000 387.960 C 134.532 392.654,174.092 398.961,200.000 398.961 C 226.105 398.961,266.684 392.477,270.066 387.766 C 270.377 387.333,273.077 386.114,276.066 385.057 C 283.278 382.507,293.375 377.996,294.000 377.044 C 294.275 376.626,297.511 374.665,301.190 372.688 C 310.717 367.567,312.103 366.718,314.200 364.716 C 315.228 363.734,318.487 361.384,321.442 359.494 C 324.397 357.604,326.969 355.707,327.157 355.279 C 327.346 354.850,330.089 352.327,333.253 349.670 C 340.827 343.311,344.399 339.740,350.425 332.500 C 353.171 329.200,355.762 326.354,356.182 326.176 C 356.601 325.998,359.017 322.735,361.549 318.926 C 364.082 315.117,366.569 312.000,367.077 312.000 C 367.585 312.000,368.000 311.528,368.000 310.952 C 368.000 310.376,369.520 307.527,371.378 304.623 C 373.237 301.718,375.066 298.367,375.444 297.176 C 375.822 295.986,376.742 294.401,377.488 293.655 C 379.239 291.904,384.764 279.874,386.630 273.750 C 387.426 271.137,388.458 269.000,388.922 269.000 C 389.387 269.000,389.987 267.988,390.255 266.750 C 390.524 265.512,391.891 260.225,393.294 255.000 C 398.603 235.221,399.468 227.447,399.468 199.500 C 399.468 171.553,398.603 163.779,393.294 144.000 C 391.891 138.775,390.524 133.488,390.255 132.250 C 389.987 131.012,389.430 130.000,389.019 130.000 C 388.608 130.000,387.499 127.862,386.556 125.250 C 383.913 117.937,378.878 106.558,378.037 106.000 C 377.622 105.725,375.665 102.489,373.688 98.810 C 368.567 89.283,367.718 87.897,365.716 85.800 C 364.734 84.772,362.384 81.513,360.494 78.558 C 358.604 75.603,356.707 73.031,356.279 72.843 C 355.850 72.654,353.025 69.575,350.001 66.000 C 346.976 62.425,343.826 58.984,343.001 58.354 C 342.175 57.723,339.431 55.248,336.902 52.854 C 328.026 44.450,324.520 41.476,320.339 38.810 C 318.019 37.331,315.268 35.306,314.226 34.310 C 312.103 32.282,310.734 31.442,301.190 26.312 C 297.511 24.335,294.262 22.353,293.972 21.908 C 293.423 21.068,283.177 16.608,274.500 13.433 C 271.750 12.426,269.275 11.315,269.000 10.963 C 268.133 9.854,249.058 4.804,238.060 2.772 C 227.850 0.885,184.905 -0.607,176.500 0.632 M202.000 10.848 C 202.000 11.314,207.512 11.967,214.250 12.298 C 231.167 13.129,263.000 19.543,263.000 22.121 C 263.000 22.605,263.566 23.000,264.257 23.000 C 267.205 23.000,284.138 30.441,291.624 35.025 C 296.092 37.761,300.178 40.000,300.704 40.000 C 301.230 40.000,303.649 41.794,306.080 43.986 C 308.511 46.178,310.885 47.978,311.356 47.986 C 312.859 48.011,327.979 60.445,334.000 66.608 C 343.607 76.440,353.000 87.967,353.000 89.922 C 353.000 90.476,353.788 91.357,354.750 91.879 C 355.712 92.401,357.393 94.554,358.484 96.664 C 359.576 98.774,362.448 103.806,364.867 107.846 C 369.349 115.329,376.000 130.064,376.000 132.508 C 376.000 133.250,376.687 134.544,377.526 135.383 C 381.118 138.976,388.000 174.226,388.000 189.034 C 388.000 193.011,388.429 196.000,389.000 196.000 C 389.550 196.000,390.000 197.575,390.000 199.500 C 390.000 201.425,389.619 203.000,389.153 203.000 C 388.687 203.000,388.032 208.287,387.697 214.750 C 386.809 231.915,380.885 260.258,377.472 263.670 C 376.663 264.480,376.000 265.750,376.000 266.492 C 376.000 268.911,369.371 283.633,364.883 291.180 C 362.472 295.234,359.625 300.259,358.555 302.345 C 357.486 304.431,355.798 306.573,354.805 307.104 C 353.812 307.636,353.000 308.524,353.000 309.078 C 353.000 310.946,342.746 323.570,333.748 332.778 C 328.439 338.211,312.747 350.991,311.356 351.014 C 310.885 351.022,308.511 352.822,306.080 355.014 C 303.649 357.206,301.230 359.000,300.704 359.000 C 300.178 359.000,296.092 361.241,291.624 363.979 C 283.700 368.836,267.544 376.000,264.514 376.000 C 263.682 376.000,263.000 376.381,263.000 376.846 C 263.000 379.867,225.612 387.000,209.776 387.000 C 205.925 387.000,203.000 387.432,203.000 388.000 C 203.000 388.550,201.650 389.000,200.000 389.000 C 198.350 389.000,197.000 388.619,197.000 388.153 C 197.000 387.687,191.713 387.028,185.250 386.689 C 168.122 385.791,137.000 379.442,137.000 376.846 C 137.000 376.381,136.350 376.000,135.556 376.000 C 132.580 376.000,116.207 368.750,108.376 363.964 C 103.908 361.234,99.822 359.000,99.296 359.000 C 98.770 359.000,96.351 357.206,93.920 355.014 C 91.489 352.822,89.115 351.022,88.644 351.014 C 87.161 350.990,71.972 338.517,66.161 332.553 C 56.278 322.410,47.000 311.043,47.000 309.078 C 47.000 308.524,46.212 307.643,45.250 307.121 C 44.288 306.599,42.607 304.446,41.516 302.336 C 40.424 300.226,37.552 295.194,35.133 291.154 C 30.419 283.283,24.707 270.497,23.550 265.228 C 23.160 263.453,22.488 262.000,22.057 262.000 C 19.462 262.000,13.205 231.041,12.306 213.750 C 11.970 207.287,11.313 202.000,10.847 202.000 C 10.381 202.000,10.000 200.875,10.000 199.500 C 10.000 198.125,10.450 197.000,11.000 197.000 C 11.568 197.000,12.000 194.075,12.000 190.224 C 12.000 174.638,19.125 137.000,22.075 137.000 C 22.496 137.000,23.160 135.547,23.550 133.772 C 24.771 128.212,30.669 115.198,35.430 107.560 C 37.944 103.527,40.000 99.790,40.000 99.255 C 40.000 98.720,41.688 96.298,43.750 93.874 C 45.813 91.450,47.950 88.710,48.500 87.785 C 51.435 82.849,56.028 77.139,60.250 73.180 C 62.862 70.731,65.000 68.102,65.000 67.338 C 65.000 66.575,66.012 65.555,67.250 65.072 C 68.487 64.589,71.075 62.530,73.000 60.497 C 76.893 56.386,87.388 48.008,88.674 47.986 C 89.128 47.978,91.489 46.178,93.920 43.986 C 96.351 41.794,98.770 40.000,99.296 40.000 C 99.822 40.000,103.908 37.761,108.376 35.025 C 115.862 30.441,132.795 23.000,135.743 23.000 C 136.434 23.000,137.000 22.605,137.000 22.121 C 137.000 19.543,168.833 13.129,185.750 12.298 C 192.488 11.967,198.000 11.314,198.000 10.848 C 198.000 10.382,198.900 10.000,200.000 10.000 C 201.100 10.000,202.000 10.382,202.000 10.848 M198.000 59.500 L 198.000 83.000 204.250 83.008 C 213.903 83.019,237.000 87.228,237.000 88.975 C 237.000 89.363,238.912 90.288,241.250 91.031 C 246.457 92.687,259.200 98.720,259.952 99.885 C 260.253 100.352,263.091 102.385,266.257 104.402 C 273.401 108.954,294.000 129.481,294.000 132.048 C 294.000 133.034,298.724 140.189,299.895 140.978 C 301.080 141.776,305.300 151.628,308.043 160.000 C 309.394 164.125,310.786 167.725,311.136 168.000 C 315.714 171.599,315.749 226.513,311.175 229.987 C 310.804 230.269,309.402 233.875,308.060 238.000 C 305.335 246.373,301.074 255.975,299.406 257.500 C 298.804 258.050,296.834 260.975,295.028 264.000 C 289.156 273.836,274.386 288.608,264.000 295.032 C 260.975 296.903,258.237 298.805,257.915 299.259 C 257.051 300.478,246.315 305.408,240.000 307.485 C 236.975 308.481,234.270 309.643,233.990 310.068 C 230.228 315.772,168.596 315.738,165.010 310.030 C 164.730 309.583,162.250 308.540,159.500 307.712 C 153.889 306.023,141.982 300.539,141.085 299.231 C 140.763 298.762,137.800 296.738,134.500 294.733 C 131.200 292.728,125.800 288.600,122.500 285.560 C 115.839 279.422,115.757 279.383,114.000 281.500 C 113.315 282.325,112.340 283.000,111.833 283.000 C 110.397 283.000,83.000 310.857,83.000 312.317 C 83.000 313.908,98.766 329.000,100.428 329.000 C 101.084 329.000,102.959 330.309,104.596 331.909 C 107.326 334.578,114.849 339.328,121.000 342.265 C 122.375 342.922,123.725 343.746,124.000 344.095 C 125.083 345.473,132.915 348.867,141.000 351.463 C 145.675 352.963,149.725 354.524,150.000 354.931 C 152.055 357.974,179.739 361.929,199.257 361.968 C 218.012 362.006,247.073 357.975,248.989 355.070 C 249.270 354.644,251.975 353.499,255.000 352.527 C 263.555 349.777,275.000 344.900,275.000 344.005 C 275.000 343.560,276.238 342.710,277.750 342.116 C 282.456 340.268,291.337 335.015,293.279 332.931 C 294.298 331.837,297.015 329.776,299.316 328.352 C 303.136 325.988,308.711 321.031,315.795 313.701 C 325.689 303.463,329.000 299.671,329.000 298.578 C 329.000 297.893,330.356 296.021,332.013 294.417 C 333.670 292.812,336.085 289.475,337.380 287.000 C 341.737 278.673,343.494 275.598,344.593 274.381 C 345.195 273.715,346.255 271.670,346.949 269.835 C 347.643 268.001,348.989 264.475,349.939 262.000 C 350.890 259.525,352.528 254.800,353.580 251.500 C 354.631 248.200,355.768 245.275,356.105 245.000 C 363.264 239.170,363.163 159.596,355.989 153.000 C 355.690 152.725,354.612 149.800,353.594 146.500 C 350.787 137.407,345.950 125.100,344.641 123.724 C 344.001 123.051,342.935 121.375,342.274 120.000 C 339.272 113.759,334.569 106.317,331.909 103.596 C 330.309 101.959,329.000 100.085,329.000 99.431 C 329.000 98.777,326.863 95.987,324.250 93.230 C 321.637 90.474,318.085 86.707,316.356 84.859 C 309.810 77.866,302.385 71.247,299.300 69.653 C 297.540 68.744,295.740 67.377,295.300 66.616 C 294.451 65.148,279.473 56.000,277.917 56.000 C 277.413 56.000,277.000 55.610,277.000 55.134 C 277.000 54.115,265.858 49.047,258.000 46.493 C 254.975 45.510,252.253 44.329,251.951 43.868 C 250.293 41.343,219.173 36.000,206.122 36.000 L 198.000 36.000 198.000 59.500 M165.071 136.752 C 159.852 139.413,158.114 142.573,157.371 150.750 L 156.713 158.000 143.106 158.015 C 127.725 158.031,125.002 158.832,123.543 163.764 C 123.017 165.544,122.229 167.000,121.793 167.000 C 121.357 167.000,121.000 170.375,121.000 174.500 C 121.000 178.625,121.392 182.000,121.872 182.000 C 122.352 182.000,123.044 183.872,123.410 186.160 C 124.757 194.584,138.012 210.000,143.909 210.000 C 144.509 210.000,145.000 210.367,145.000 210.815 C 145.000 212.951,161.265 218.000,168.144 218.000 C 172.041 218.000,183.561 228.982,185.027 234.094 C 188.251 245.336,185.109 250.671,174.476 252.006 C 165.581 253.123,165.146 253.324,161.345 258.058 C 157.595 262.728,156.094 270.399,158.021 275.050 L 159.243 278.000 199.514 278.000 C 245.250 278.000,241.000 278.968,241.000 268.553 C 241.000 258.860,235.561 253.629,223.762 251.972 C 213.750 250.566,209.987 242.819,214.409 232.718 C 216.649 227.600,227.227 218.002,230.643 217.988 C 236.993 217.962,254.000 212.757,254.000 210.839 C 254.000 210.378,254.516 210.000,255.147 210.000 C 255.778 210.000,258.140 208.495,260.397 206.655 C 262.654 204.816,265.512 202.775,266.750 202.120 C 267.988 201.465,269.000 200.464,269.000 199.895 C 269.000 199.326,270.459 196.754,272.243 194.180 C 275.377 189.656,275.498 189.107,275.849 177.739 C 276.450 158.240,276.198 158.000,255.050 158.000 L 241.000 158.000 240.998 151.750 C 240.997 143.951,238.742 139.121,234.000 136.752 C 228.707 134.108,170.256 134.108,165.071 136.752 M158.307 180.750 C 158.639 185.563,159.770 192.537,160.821 196.250 C 161.872 199.963,162.398 203.000,161.991 203.000 C 160.614 203.000,152.585 199.946,152.041 199.215 C 151.743 198.815,148.915 196.566,145.756 194.217 C 138.856 189.085,136.000 184.056,136.000 177.040 L 136.000 172.000 146.852 172.000 L 157.704 172.000 158.307 180.750 M262.978 176.750 C 262.945 183.891,260.199 188.842,253.408 194.004 C 250.159 196.474,247.257 198.820,246.959 199.218 C 246.400 199.966,238.366 203.000,236.945 203.000 C 236.503 203.000,237.016 199.963,238.086 196.250 C 239.155 192.537,240.316 185.563,240.665 180.750 L 241.299 172.000 252.150 172.000 L 263.000 172.000 262.978 176.750 " stroke="none" fill="#000000" fill-rule="evenodd"></path></g></svg>