<svg id="svg" version="1.1" width="400" height="400" xmlns="http://www.w3.org/2000/svg" xmlns:xlink="http://www.w3.org/1999/xlink" style="display: block;"><g id="svgg"><path id="path0" d="M324.000 37.500 C 324.000 38.611,322.833 39.000,319.500 39.000 C 317.025 39.000,315.000 39.450,315.000 40.000 C 315.000 40.550,312.750 41.000,310.000 41.000 C 307.250 41.000,305.000 41.450,305.000 42.000 C 305.000 42.550,302.975 43.000,300.500 43.000 C 297.167 43.000,296.000 43.389,296.000 44.500 C 296.000 45.611,294.833 46.000,291.500 46.000 C 289.025 46.000,287.000 46.450,287.000 47.000 C 287.000 47.550,284.750 48.000,282.000 48.000 C 279.250 48.000,277.000 48.450,277.000 49.000 C 277.000 49.550,274.975 50.000,272.500 50.000 C 269.167 50.000,268.000 50.389,268.000 51.500 C 268.000 52.325,267.550 53.000,267.000 53.000 C 266.340 53.000,266.000 88.333,266.000 157.000 L 266.000 261.000 271.500 261.000 C 275.722 261.000,277.000 260.652,277.000 259.500 C 277.000 258.367,278.222 258.000,282.000 258.000 C 284.750 258.000,287.000 257.550,287.000 257.000 C 287.000 256.450,289.025 256.000,291.500 256.000 C 293.975 256.000,296.000 255.550,296.000 255.000 C 296.000 254.450,298.025 254.000,300.500 254.000 C 303.833 254.000,305.000 253.611,305.000 252.500 C 305.000 251.367,306.222 251.000,310.000 251.000 C 312.750 251.000,315.000 250.550,315.000 250.000 C 315.000 249.450,317.025 249.000,319.500 249.000 C 321.975 249.000,324.000 248.550,324.000 248.000 C 324.000 247.450,326.025 247.000,328.500 247.000 L 333.000 247.000 333.000 141.500 L 333.000 36.000 328.500 36.000 C 325.167 36.000,324.000 36.389,324.000 37.500 M343.000 51.500 C 343.000 53.944,342.548 55.000,341.500 55.000 C 340.389 55.000,340.000 56.167,340.000 59.500 C 340.000 63.976,340.019 64.000,343.500 64.000 C 345.944 64.000,347.000 64.452,347.000 65.500 C 347.000 66.633,348.222 67.000,352.000 67.000 C 354.750 67.000,357.000 67.450,357.000 68.000 C 357.000 68.550,359.025 69.000,361.500 69.000 C 363.975 69.000,366.000 69.450,366.000 70.000 C 366.000 70.550,368.025 71.000,370.500 71.000 C 373.833 71.000,375.000 71.389,375.000 72.500 C 375.000 73.633,376.222 74.000,380.000 74.000 C 382.750 74.000,385.000 74.450,385.000 75.000 C 385.000 75.570,387.961 76.000,391.884 76.000 L 398.767 76.000 399.439 69.726 C 400.378 60.952,399.836 60.000,393.893 60.000 C 390.210 60.000,389.000 59.629,389.000 58.500 C 389.000 57.348,387.722 57.000,383.500 57.000 C 380.475 57.000,378.000 56.550,378.000 56.000 C 378.000 55.450,375.750 55.000,373.000 55.000 C 370.250 55.000,368.000 54.550,368.000 54.000 C 368.000 53.450,365.975 53.000,363.500 53.000 C 360.167 53.000,359.000 52.611,359.000 51.500 C 359.000 50.389,357.833 50.000,354.500 50.000 C 352.025 50.000,350.000 49.550,350.000 49.000 C 350.000 48.450,348.425 48.000,346.500 48.000 C 343.167 48.000,343.000 48.167,343.000 51.500 M343.000 79.500 C 343.000 81.944,342.548 83.000,341.500 83.000 C 340.389 83.000,340.000 84.167,340.000 87.500 C 340.000 91.917,340.780 92.733,344.373 92.078 C 344.853 91.990,344.979 92.612,344.654 93.459 C 344.170 94.720,344.967 95.000,349.031 95.000 C 351.764 95.000,354.000 95.450,354.000 96.000 C 354.000 96.550,356.250 97.000,359.000 97.000 C 361.750 97.000,364.000 97.450,364.000 98.000 C 364.000 98.550,366.025 99.000,368.500 99.000 C 371.833 99.000,373.000 99.389,373.000 100.500 C 373.000 101.611,374.167 102.000,377.500 102.000 C 379.975 102.000,382.000 102.450,382.000 103.000 C 382.000 103.550,384.250 104.000,387.000 104.000 C 389.750 104.000,392.000 104.450,392.000 105.000 C 392.000 105.550,393.575 106.000,395.500 106.000 C 398.649 106.000,399.001 105.725,399.009 103.250 C 399.013 101.737,399.301 98.138,399.648 95.250 C 400.236 90.356,400.133 90.000,398.139 90.000 C 396.963 90.000,396.000 89.550,396.000 89.000 C 396.000 88.450,393.975 88.000,391.500 88.000 C 388.167 88.000,387.000 87.611,387.000 86.500 C 387.000 85.392,385.840 85.000,382.559 85.000 C 380.116 85.000,377.840 84.550,377.500 84.000 C 377.160 83.450,374.434 83.000,371.441 83.000 C 368.448 83.000,366.000 82.550,366.000 82.000 C 366.000 81.450,363.975 81.000,361.500 81.000 C 358.167 81.000,357.000 80.611,357.000 79.500 C 357.000 78.367,355.778 78.000,352.000 78.000 C 349.250 78.000,347.000 77.550,347.000 77.000 C 347.000 76.450,346.100 76.000,345.000 76.000 C 343.381 76.000,343.000 76.667,343.000 79.500 M146.000 93.417 C 146.000 94.196,145.599 94.983,145.108 95.167 C 143.585 95.735,143.203 109.000,144.709 109.000 C 145.419 109.000,146.000 109.450,146.000 110.000 C 146.000 110.550,148.250 111.000,151.000 111.000 C 153.750 111.000,156.000 111.450,156.000 112.000 C 156.000 112.550,158.025 113.000,160.500 113.000 C 163.833 113.000,165.000 113.389,165.000 114.500 C 165.000 115.611,166.167 116.000,169.500 116.000 C 171.975 116.000,174.000 116.450,174.000 117.000 C 174.000 117.550,176.223 118.000,178.941 118.000 C 181.659 118.000,184.160 118.450,184.500 119.000 C 184.840 119.550,187.454 120.036,190.309 120.079 C 193.164 120.122,194.935 120.386,194.244 120.664 C 192.141 121.512,193.935 123.000,197.059 123.000 C 199.529 123.000,200.000 122.600,200.000 120.500 C 200.000 119.125,200.450 118.000,201.000 118.000 C 201.556 118.000,202.000 115.333,202.000 112.000 C 202.000 106.667,201.778 106.000,200.000 106.000 C 198.900 106.000,198.000 105.550,198.000 105.000 C 198.000 104.450,195.750 104.000,193.000 104.000 C 190.250 104.000,188.000 103.550,188.000 103.000 C 188.000 102.450,185.975 102.000,183.500 102.000 C 180.167 102.000,179.000 101.611,179.000 100.500 C 179.000 99.389,177.833 99.000,174.500 99.000 C 172.025 99.000,170.000 98.550,170.000 98.000 C 170.000 97.450,167.750 97.000,165.000 97.000 C 162.250 97.000,160.000 96.550,160.000 96.000 C 160.000 95.450,157.975 95.000,155.500 95.000 C 152.167 95.000,151.000 94.611,151.000 93.500 C 151.000 92.567,150.056 92.000,148.500 92.000 C 147.010 92.000,146.000 92.572,146.000 93.417 M125.000 96.000 C 125.000 96.550,122.975 97.000,120.500 97.000 C 118.025 97.000,116.000 97.450,116.000 98.000 C 116.000 98.550,113.961 99.000,111.469 99.000 C 108.363 99.000,106.756 99.472,106.362 100.500 C 105.971 101.518,104.375 102.000,101.393 102.000 C 98.977 102.000,97.000 102.450,97.000 103.000 C 97.000 103.550,94.975 104.000,92.500 104.000 C 90.025 104.000,88.000 104.450,88.000 105.000 C 88.000 105.550,85.961 106.000,83.469 106.000 C 80.363 106.000,78.756 106.472,78.362 107.500 C 77.984 108.484,76.423 109.000,73.822 109.000 C 66.459 109.000,67.000 100.641,67.000 214.429 L 67.000 317.000 72.500 317.000 C 75.525 317.000,78.000 316.550,78.000 316.000 C 78.000 315.450,80.250 315.000,83.000 315.000 C 86.778 315.000,88.000 314.633,88.000 313.500 C 88.000 312.389,89.167 312.000,92.500 312.000 C 94.975 312.000,97.000 311.550,97.000 311.000 C 97.000 310.450,99.025 310.000,101.500 310.000 C 103.975 310.000,106.000 309.550,106.000 309.000 C 106.000 308.450,108.250 308.000,111.000 308.000 C 114.778 308.000,116.000 307.633,116.000 306.500 C 116.000 305.389,117.167 305.000,120.500 305.000 C 122.975 305.000,125.000 304.550,125.000 304.000 C 125.000 303.450,127.025 303.000,129.500 303.000 L 134.000 303.000 134.000 199.000 L 134.000 95.000 129.500 95.000 C 127.025 95.000,125.000 95.450,125.000 96.000 M343.000 109.500 C 343.000 111.944,342.548 113.000,341.500 113.000 C 340.452 113.000,340.000 114.056,340.000 116.500 C 340.000 118.944,340.452 120.000,341.500 120.000 C 343.316 120.000,343.491 121.635,341.750 122.338 C 341.063 122.615,343.087 122.878,346.250 122.921 C 349.413 122.964,352.000 123.450,352.000 124.000 C 352.000 124.550,354.025 125.000,356.500 125.000 C 358.975 125.000,361.000 125.450,361.000 126.000 C 361.000 126.550,363.250 127.000,366.000 127.000 C 369.778 127.000,371.000 127.367,371.000 128.500 C 371.000 129.611,372.167 130.000,375.500 130.000 C 377.975 130.000,380.000 130.450,380.000 131.000 C 380.000 131.550,382.025 132.000,384.500 132.000 C 386.975 132.000,389.000 132.450,389.000 133.000 C 389.000 133.550,391.250 134.000,394.000 134.000 C 398.786 134.000,399.000 133.882,399.009 131.250 C 399.013 129.738,399.301 126.138,399.648 123.250 L 400.279 118.000 397.139 118.000 C 395.413 118.000,394.000 117.550,394.000 117.000 C 394.000 116.450,392.023 116.000,389.607 116.000 C 386.625 116.000,385.029 115.518,384.638 114.500 C 384.223 113.417,382.526 113.000,378.531 113.000 C 375.489 113.000,373.000 112.550,373.000 112.000 C 373.000 111.450,370.975 111.000,368.500 111.000 C 366.025 111.000,364.000 110.550,364.000 110.000 C 364.000 109.450,361.750 109.000,359.000 109.000 C 355.222 109.000,354.000 108.633,354.000 107.500 C 354.000 106.348,352.722 106.000,348.500 106.000 L 343.000 106.000 343.000 109.500 M143.875 127.500 C 143.806 129.975,143.750 133.125,143.750 134.500 C 143.750 135.875,143.806 137.450,143.875 138.000 C 143.944 138.550,145.977 139.000,148.393 139.000 C 151.375 139.000,152.971 139.482,153.362 140.500 C 153.756 141.528,155.363 142.000,158.469 142.000 C 160.961 142.000,163.000 142.450,163.000 143.000 C 163.000 143.550,165.025 144.000,167.500 144.000 C 169.975 144.000,172.000 144.450,172.000 145.000 C 172.000 145.550,173.832 146.000,176.071 146.000 C 178.357 146.000,180.801 146.658,181.643 147.500 C 182.570 148.428,185.024 149.000,188.071 149.000 C 190.782 149.000,193.000 149.450,193.000 150.000 C 193.000 150.550,194.575 151.000,196.500 151.000 C 199.567 151.000,200.000 150.690,200.000 148.500 C 200.000 147.125,200.450 146.000,201.000 146.000 C 201.550 146.000,202.000 143.525,202.000 140.500 L 202.000 135.000 198.500 135.000 C 196.056 135.000,195.000 134.548,195.000 133.500 C 195.000 132.389,193.833 132.000,190.500 132.000 C 188.025 132.000,186.000 131.550,186.000 131.000 C 186.000 130.450,184.023 130.000,181.607 130.000 C 178.625 130.000,177.029 129.518,176.638 128.500 C 176.244 127.472,174.637 127.000,171.531 127.000 C 169.039 127.000,167.000 126.550,167.000 126.000 C 167.000 125.450,164.975 125.000,162.500 125.000 C 160.025 125.000,158.000 124.550,158.000 124.000 C 158.000 123.429,155.000 123.000,151.000 123.000 L 144.000 123.000 143.875 127.500 M343.000 138.500 C 343.000 140.944,342.548 142.000,341.500 142.000 C 340.389 142.000,340.000 143.167,340.000 146.500 L 340.000 151.000 345.000 151.000 C 347.750 151.000,350.000 151.450,350.000 152.000 C 350.000 152.550,352.025 153.000,354.500 153.000 C 357.833 153.000,359.000 153.389,359.000 154.500 C 359.000 155.611,360.167 156.000,363.500 156.000 C 365.975 156.000,368.000 156.450,368.000 157.000 C 368.000 157.550,370.250 158.000,373.000 158.000 C 375.750 158.000,378.000 158.450,378.000 159.000 C 378.000 159.550,380.025 160.000,382.500 160.000 C 385.833 160.000,387.000 160.389,387.000 161.500 C 387.000 162.667,388.333 163.000,393.000 163.000 L 399.000 163.000 399.009 159.750 C 399.013 157.963,399.301 154.137,399.648 151.250 L 400.279 146.000 396.139 146.000 C 393.863 146.000,392.000 145.550,392.000 145.000 C 392.000 144.450,389.777 144.000,387.059 144.000 C 384.341 144.000,381.840 143.550,381.500 143.000 C 381.160 142.450,378.610 142.000,375.834 142.000 C 371.758 142.000,370.897 141.711,371.362 140.500 C 371.830 139.279,370.919 139.000,366.469 139.000 C 363.461 139.000,361.000 138.550,361.000 138.000 C 361.000 137.450,358.975 137.000,356.500 137.000 C 354.025 137.000,352.000 136.550,352.000 136.000 C 352.000 135.450,349.975 135.000,347.500 135.000 C 343.024 135.000,343.000 135.019,343.000 138.500 M144.015 156.691 C 144.007 160.096,143.550 163.160,143.000 163.500 C 142.450 163.840,142.007 164.654,142.015 165.309 C 142.025 166.025,142.418 165.901,143.000 165.000 C 143.828 163.718,143.972 163.754,143.985 165.250 C 143.996 166.580,144.839 167.000,147.500 167.000 C 149.944 167.000,151.000 167.452,151.000 168.500 C 151.000 169.611,152.167 170.000,155.500 170.000 C 157.975 170.000,160.000 170.450,160.000 171.000 C 160.000 171.550,162.250 172.000,165.000 172.000 C 167.750 172.000,170.000 172.450,170.000 173.000 C 170.000 173.550,172.025 174.000,174.500 174.000 C 177.833 174.000,179.000 174.389,179.000 175.500 C 179.000 176.633,180.222 177.000,184.000 177.000 C 186.750 177.000,189.000 177.373,189.000 177.829 C 189.000 178.285,191.363 178.747,194.250 178.856 C 200.527 179.093,202.000 177.087,202.000 168.301 L 202.000 163.000 197.500 163.000 C 194.167 163.000,193.000 162.611,193.000 161.500 C 193.000 160.389,191.833 160.000,188.500 160.000 C 186.025 160.000,184.000 159.550,184.000 159.000 C 184.000 158.450,181.750 158.000,179.000 158.000 C 176.250 158.000,174.000 157.550,174.000 157.000 C 174.000 156.450,171.975 156.000,169.500 156.000 C 166.167 156.000,165.000 155.611,165.000 154.500 C 165.000 153.389,163.833 153.000,160.500 153.000 C 158.025 153.000,156.000 152.550,156.000 152.000 C 156.000 151.450,153.750 151.000,151.000 151.000 C 147.675 151.000,145.995 151.419,145.985 152.250 C 145.974 153.083,145.646 153.000,145.000 152.000 C 144.316 150.942,144.026 152.325,144.015 156.691 M343.000 166.500 C 343.000 168.944,342.548 170.000,341.500 170.000 C 340.389 170.000,340.000 171.167,340.000 174.500 C 340.000 178.976,340.019 179.000,343.500 179.000 C 345.425 179.000,347.000 179.450,347.000 180.000 C 347.000 180.550,349.250 181.000,352.000 181.000 C 355.778 181.000,357.000 181.367,357.000 182.500 C 357.000 183.611,358.167 184.000,361.500 184.000 C 363.975 184.000,366.000 184.450,366.000 185.000 C 366.000 185.550,368.025 186.000,370.500 186.000 C 372.975 186.000,375.000 186.450,375.000 187.000 C 375.000 187.550,377.250 188.000,380.000 188.000 C 383.778 188.000,385.000 188.367,385.000 189.500 C 385.000 190.688,386.430 191.000,391.871 191.000 L 398.742 191.000 399.411 185.084 C 400.492 175.527,399.732 174.000,393.892 174.000 C 391.201 174.000,389.000 173.550,389.000 173.000 C 389.000 172.450,386.723 172.000,383.941 172.000 C 380.741 172.000,379.115 171.623,379.515 170.975 C 379.864 170.412,379.778 170.015,379.324 170.094 C 375.144 170.820,368.000 169.814,368.000 168.500 C 368.000 167.389,366.833 167.000,363.500 167.000 C 361.025 167.000,359.000 166.550,359.000 166.000 C 359.000 165.450,356.975 165.000,354.500 165.000 C 352.025 165.000,350.000 164.550,350.000 164.000 C 350.000 163.450,348.425 163.000,346.500 163.000 C 343.167 163.000,343.000 163.167,343.000 166.500 M145.250 180.496 C 142.640 183.461,143.634 195.000,146.500 195.000 C 148.056 195.000,149.000 195.567,149.000 196.500 C 149.000 197.611,150.167 198.000,153.500 198.000 C 155.975 198.000,158.000 198.450,158.000 199.000 C 158.000 199.550,160.025 200.000,162.500 200.000 C 164.975 200.000,167.000 200.450,167.000 201.000 C 167.000 201.550,169.250 202.000,172.000 202.000 C 175.778 202.000,177.000 202.367,177.000 203.500 C 177.000 204.652,178.278 205.000,182.500 205.000 C 185.525 205.000,188.000 205.450,188.000 206.000 C 188.000 207.589,198.927 207.216,200.571 205.571 C 202.476 203.667,202.476 194.333,200.571 192.429 C 199.786 191.643,197.311 191.000,195.071 191.000 C 192.119 191.000,191.000 190.588,191.000 189.500 C 191.000 188.367,189.778 188.000,186.000 188.000 C 183.250 188.000,181.000 187.550,181.000 187.000 C 181.000 186.450,178.975 186.000,176.500 186.000 C 174.025 186.000,172.000 185.550,172.000 185.000 C 172.000 184.450,169.975 184.000,167.500 184.000 C 164.167 184.000,163.000 183.611,163.000 182.500 C 163.000 181.367,161.778 181.000,158.000 181.000 C 155.250 181.000,153.000 180.550,153.000 180.000 C 153.000 178.477,146.671 178.882,145.250 180.496 M343.000 194.500 C 343.000 196.944,342.548 198.000,341.500 198.000 C 340.389 198.000,340.000 199.167,340.000 202.500 C 340.000 206.288,340.307 207.000,341.941 207.000 C 343.009 207.000,344.160 207.450,344.500 208.000 C 344.840 208.550,347.116 209.000,349.559 209.000 C 352.840 209.000,354.000 209.392,354.000 210.500 C 354.000 211.633,355.222 212.000,359.000 212.000 C 361.750 212.000,364.000 212.450,364.000 213.000 C 364.000 213.550,366.025 214.000,368.500 214.000 C 370.975 214.000,373.000 214.450,373.000 215.000 C 373.000 215.550,374.977 216.000,377.393 216.000 C 380.375 216.000,381.971 216.482,382.362 217.500 C 382.756 218.528,384.363 219.000,387.469 219.000 C 389.961 219.000,392.000 219.450,392.000 220.000 C 392.000 220.550,393.575 221.000,395.500 221.000 C 398.649 221.000,399.001 220.725,399.009 218.250 C 399.013 216.738,399.301 213.137,399.648 210.250 C 400.236 205.356,400.133 205.000,398.139 205.000 C 396.904 205.000,396.000 204.366,396.000 203.500 C 396.000 202.389,394.833 202.000,391.500 202.000 C 389.025 202.000,387.000 201.550,387.000 201.000 C 387.000 200.450,385.002 200.000,382.559 200.000 C 380.116 200.000,377.840 199.550,377.500 199.000 C 377.160 198.450,374.434 198.000,371.441 198.000 C 367.271 198.000,366.000 197.650,366.000 196.500 C 366.000 195.389,364.833 195.000,361.500 195.000 C 359.025 195.000,357.000 194.550,357.000 194.000 C 357.000 193.450,354.750 193.000,352.000 193.000 C 349.250 193.000,347.000 192.550,347.000 192.000 C 347.000 191.450,346.100 191.000,345.000 191.000 C 343.381 191.000,343.000 191.667,343.000 194.500 M145.250 208.496 C 144.537 209.306,143.993 212.619,143.985 216.208 C 143.974 220.639,143.683 222.056,143.000 221.000 C 142.264 219.861,142.027 219.823,142.015 220.844 C 142.007 221.583,142.900 222.423,144.000 222.710 C 145.100 222.998,146.000 223.856,146.000 224.617 C 146.000 225.610,147.410 226.000,151.000 226.000 C 153.750 226.000,156.000 226.450,156.000 227.000 C 156.000 227.550,158.025 228.000,160.500 228.000 C 162.975 228.000,165.000 228.450,165.000 229.000 C 165.000 229.550,166.977 230.000,169.393 230.000 C 172.375 230.000,173.971 230.482,174.362 231.500 C 174.780 232.591,176.512 233.004,180.719 233.015 C 184.820 233.026,186.064 233.312,185.000 234.000 C 183.935 234.688,185.169 234.974,189.250 234.985 C 192.412 234.993,195.000 235.450,195.000 236.000 C 195.000 236.550,196.125 237.000,197.500 237.000 C 199.333 237.000,200.000 236.467,200.000 235.000 C 200.000 233.900,200.450 233.000,201.000 233.000 C 201.556 233.000,202.000 230.333,202.000 227.000 C 202.000 221.667,201.778 221.000,200.000 221.000 C 198.900 221.000,198.000 220.550,198.000 220.000 C 198.000 219.450,195.750 219.000,193.000 219.000 C 189.222 219.000,188.000 218.633,188.000 217.500 C 188.000 216.389,186.833 216.000,183.500 216.000 C 181.025 216.000,179.000 215.550,179.000 215.000 C 179.000 214.450,176.975 214.000,174.500 214.000 C 172.025 214.000,170.000 213.550,170.000 213.000 C 170.000 212.450,167.750 212.000,165.000 212.000 C 161.222 212.000,160.000 211.633,160.000 210.500 C 160.000 209.389,158.833 209.000,155.500 209.000 C 153.025 209.000,151.000 208.550,151.000 208.000 C 151.000 206.498,146.681 206.870,145.250 208.496 M144.667 237.667 C 144.300 238.033,144.000 240.482,144.000 243.108 C 144.000 245.734,143.592 248.134,143.094 248.442 C 140.516 250.035,144.539 253.984,148.750 253.992 C 151.088 253.996,153.000 254.450,153.000 255.000 C 153.000 255.550,155.250 256.000,158.000 256.000 C 160.750 256.000,163.000 256.450,163.000 257.000 C 163.000 257.550,165.025 258.000,167.500 258.000 C 170.833 258.000,172.000 258.389,172.000 259.500 C 172.000 260.611,173.167 261.000,176.500 261.000 C 178.975 261.000,181.000 261.450,181.000 262.000 C 181.000 262.550,183.223 263.000,185.941 263.000 C 188.659 263.000,191.160 263.450,191.500 264.000 C 192.763 266.043,200.000 265.192,200.000 263.000 C 200.000 261.900,200.450 261.000,201.000 261.000 C 201.556 261.000,202.000 258.333,202.000 255.000 L 202.000 249.000 198.500 249.000 C 196.575 249.000,195.000 248.550,195.000 248.000 C 195.000 247.450,192.975 247.000,190.500 247.000 C 187.167 247.000,186.000 246.611,186.000 245.500 C 186.000 244.389,184.833 244.000,181.500 244.000 C 179.025 244.000,177.000 243.550,177.000 243.000 C 177.000 242.450,174.750 242.000,172.000 242.000 C 169.250 242.000,167.000 241.550,167.000 241.000 C 167.000 240.450,164.975 240.000,162.500 240.000 C 159.167 240.000,158.000 239.611,158.000 238.500 C 158.000 236.938,146.137 236.196,144.667 237.667 M378.000 238.500 C 378.000 239.633,376.778 240.000,373.000 240.000 C 370.250 240.000,368.000 240.450,368.000 241.000 C 368.000 241.550,366.425 242.000,364.500 242.000 C 362.575 242.000,361.000 242.450,361.000 243.000 C 361.000 243.550,358.975 244.000,356.500 244.000 C 353.167 244.000,352.000 244.389,352.000 245.500 C 352.000 246.548,350.944 247.000,348.500 247.000 C 346.575 247.000,345.000 247.450,345.000 248.000 C 345.000 248.550,342.975 249.000,340.500 249.000 C 338.025 249.000,336.000 249.450,336.000 250.000 C 336.000 250.550,333.961 251.000,331.469 251.000 C 328.363 251.000,326.756 251.472,326.362 252.500 C 326.006 253.426,324.487 254.000,322.393 254.000 C 320.527 254.000,319.000 254.450,319.000 255.000 C 319.000 255.550,316.975 256.000,314.500 256.000 C 312.025 256.000,310.000 256.450,310.000 257.000 C 310.000 257.550,308.425 258.000,306.500 258.000 C 304.056 258.000,303.000 258.452,303.000 259.500 C 303.000 260.611,301.833 261.000,298.500 261.000 C 296.025 261.000,294.000 261.450,294.000 262.000 C 294.000 262.550,291.750 263.000,289.000 263.000 C 285.222 263.000,284.000 263.367,284.000 264.500 C 284.000 265.548,282.944 266.000,280.500 266.000 C 278.575 266.000,277.000 266.450,277.000 267.000 C 277.000 267.550,274.975 268.000,272.500 268.000 C 270.025 268.000,268.000 268.450,268.000 269.000 C 268.000 269.550,265.975 270.000,263.500 270.000 C 260.167 270.000,259.000 270.389,259.000 271.500 C 259.000 272.583,257.889 273.000,255.000 273.000 C 252.800 273.000,251.000 273.450,251.000 274.000 C 251.000 274.550,248.975 275.000,246.500 275.000 C 244.025 275.000,242.000 275.450,242.000 276.000 C 242.000 276.550,240.425 277.000,238.500 277.000 C 236.056 277.000,235.000 277.452,235.000 278.500 C 235.000 279.611,233.833 280.000,230.500 280.000 C 228.025 280.000,226.000 280.450,226.000 281.000 C 226.000 281.550,223.750 282.000,221.000 282.000 C 218.250 282.000,216.000 282.450,216.000 283.000 C 216.000 283.550,214.425 284.000,212.500 284.000 C 210.056 284.000,209.000 284.452,209.000 285.500 C 209.000 286.611,207.833 287.000,204.500 287.000 C 202.025 287.000,200.000 287.450,200.000 288.000 C 200.000 288.550,198.425 289.000,196.500 289.000 C 194.575 289.000,193.000 289.450,193.000 290.000 C 193.000 290.550,190.975 291.000,188.500 291.000 C 185.167 291.000,184.000 291.389,184.000 292.500 C 184.000 293.633,182.778 294.000,179.000 294.000 L 174.000 294.000 174.000 281.000 L 174.000 268.000 169.500 268.000 C 167.025 268.000,165.000 267.550,165.000 267.000 C 165.000 266.450,162.975 266.000,160.500 266.000 L 156.000 266.000 156.000 283.500 L 156.000 301.000 153.500 301.000 C 152.125 301.000,151.000 301.450,151.000 302.000 C 151.000 302.550,148.975 303.000,146.500 303.000 C 144.025 303.000,142.000 303.450,142.000 304.000 C 142.000 304.550,139.750 305.000,137.000 305.000 C 133.222 305.000,132.000 305.367,132.000 306.500 C 132.000 307.548,130.944 308.000,128.500 308.000 C 126.575 308.000,125.000 308.450,125.000 309.000 C 125.000 309.550,122.975 310.000,120.500 310.000 C 118.025 310.000,116.000 310.450,116.000 311.000 C 116.000 311.550,114.232 312.000,112.071 312.000 C 109.911 312.000,107.468 312.675,106.643 313.500 C 105.818 314.325,103.761 315.000,102.071 315.000 C 100.382 315.000,99.000 315.450,99.000 316.000 C 99.000 316.550,96.975 317.000,94.500 317.000 C 92.025 317.000,90.000 317.450,90.000 318.000 C 90.000 318.550,88.425 319.000,86.500 319.000 C 84.056 319.000,83.000 319.452,83.000 320.500 C 83.000 321.611,81.833 322.000,78.500 322.000 C 76.025 322.000,74.000 322.450,74.000 323.000 C 74.000 323.550,71.723 324.000,68.941 324.000 C 65.823 324.000,64.119 324.384,64.500 325.000 C 64.873 325.604,63.510 326.000,61.059 326.000 C 58.118 326.000,57.000 326.413,57.000 327.500 C 57.000 328.611,55.833 329.000,52.500 329.000 C 50.025 329.000,48.000 329.450,48.000 330.000 C 48.000 330.550,46.425 331.000,44.500 331.000 C 42.575 331.000,41.000 331.450,41.000 332.000 C 41.000 332.550,38.975 333.000,36.500 333.000 C 33.167 333.000,32.000 333.389,32.000 334.500 C 32.000 335.633,30.778 336.000,27.000 336.000 C 24.250 336.000,22.000 336.450,22.000 337.000 C 22.000 337.550,20.425 338.000,18.500 338.000 C 16.575 338.000,15.000 338.450,15.000 339.000 C 15.000 339.550,12.975 340.000,10.500 340.000 C 7.167 340.000,6.000 340.389,6.000 341.500 C 6.000 342.500,5.000 343.000,3.000 343.000 L 0.000 343.000 0.000 352.000 L 0.000 361.000 5.500 361.000 C 8.525 361.000,11.000 360.550,11.000 360.000 C 11.000 359.450,13.025 359.000,15.500 359.000 C 17.975 359.000,20.000 358.550,20.000 358.000 C 20.000 357.450,21.575 357.000,23.500 357.000 C 25.944 357.000,27.000 356.548,27.000 355.500 C 27.000 354.389,28.167 354.000,31.500 354.000 C 33.975 354.000,36.000 353.550,36.000 353.000 C 36.000 352.450,37.575 352.000,39.500 352.000 C 41.425 352.000,43.000 351.550,43.000 351.000 C 43.000 350.450,45.250 350.000,48.000 350.000 C 51.778 350.000,53.000 349.633,53.000 348.500 C 53.000 347.389,54.167 347.000,57.500 347.000 C 59.975 347.000,62.000 346.550,62.000 346.000 C 62.000 345.450,63.575 345.000,65.500 345.000 C 67.425 345.000,69.000 344.550,69.000 344.000 C 69.000 343.450,71.025 343.000,73.500 343.000 C 76.833 343.000,78.000 342.611,78.000 341.500 C 78.000 340.367,79.222 340.000,83.000 340.000 C 85.750 340.000,88.000 339.550,88.000 339.000 C 88.000 338.450,89.575 338.000,91.500 338.000 C 93.425 338.000,95.000 337.550,95.000 337.000 C 95.000 336.450,97.025 336.000,99.500 336.000 C 102.833 336.000,104.000 335.611,104.000 334.500 C 104.000 333.452,105.056 333.000,107.500 333.000 C 109.425 333.000,111.000 332.550,111.000 332.000 C 111.000 331.450,113.025 331.000,115.500 331.000 C 117.975 331.000,120.000 330.550,120.000 330.000 C 120.000 329.450,122.039 329.000,124.531 329.000 C 127.637 329.000,129.244 328.528,129.638 327.500 C 129.994 326.574,131.513 326.000,133.607 326.000 C 135.473 326.000,137.000 325.550,137.000 325.000 C 137.000 324.450,139.025 324.000,141.500 324.000 C 143.975 324.000,146.000 323.550,146.000 323.000 C 146.000 322.450,147.575 322.000,149.500 322.000 C 151.944 322.000,153.000 321.548,153.000 320.500 C 153.000 319.367,154.222 319.000,158.000 319.000 C 160.750 319.000,163.000 318.550,163.000 318.000 C 163.000 317.450,165.025 317.000,167.500 317.000 C 169.975 317.000,172.000 316.550,172.000 316.000 C 172.000 315.450,173.575 315.000,175.500 315.000 C 177.944 315.000,179.000 314.548,179.000 313.500 C 179.000 312.389,180.167 312.000,183.500 312.000 C 185.975 312.000,188.000 311.550,188.000 311.000 C 188.000 310.450,190.277 310.000,193.059 310.000 C 196.177 310.000,197.881 309.616,197.500 309.000 C 197.127 308.396,198.490 308.000,200.941 308.000 C 203.882 308.000,205.000 307.587,205.000 306.500 C 205.000 305.389,206.167 305.000,209.500 305.000 C 211.975 305.000,214.000 304.550,214.000 304.000 C 214.000 303.450,215.575 303.000,217.500 303.000 C 219.425 303.000,221.000 302.550,221.000 302.000 C 221.000 301.450,223.025 301.000,225.500 301.000 C 228.833 301.000,230.000 300.611,230.000 299.500 C 230.000 298.367,231.222 298.000,235.000 298.000 C 237.750 298.000,240.000 297.550,240.000 297.000 C 240.000 296.450,241.575 296.000,243.500 296.000 C 245.425 296.000,247.000 295.550,247.000 295.000 C 247.000 294.450,249.025 294.000,251.500 294.000 C 254.833 294.000,256.000 293.611,256.000 292.500 C 256.000 291.452,257.056 291.000,259.500 291.000 C 261.425 291.000,263.000 290.550,263.000 290.000 C 263.000 289.450,264.998 289.000,267.441 289.000 C 269.884 289.000,272.160 288.550,272.500 288.000 C 272.840 287.450,275.116 287.000,277.559 287.000 C 280.840 287.000,282.000 286.608,282.000 285.500 C 282.000 284.452,283.056 284.000,285.500 284.000 C 287.425 284.000,289.000 283.550,289.000 283.000 C 289.000 282.450,291.025 282.000,293.500 282.000 C 295.975 282.000,298.000 281.550,298.000 281.000 C 298.000 280.450,299.768 280.000,301.929 280.000 C 304.089 280.000,306.532 279.325,307.357 278.500 C 308.182 277.675,310.239 277.000,311.929 277.000 C 313.618 277.000,315.000 276.550,315.000 276.000 C 315.000 275.450,317.025 275.000,319.500 275.000 C 321.975 275.000,324.000 274.550,324.000 274.000 C 324.000 273.450,325.364 273.000,327.031 273.000 C 328.803 273.000,330.302 272.377,330.638 271.500 C 331.029 270.482,332.625 270.000,335.607 270.000 C 338.023 270.000,340.000 269.550,340.000 269.000 C 340.000 268.450,342.250 268.000,345.000 268.000 C 348.778 268.000,350.000 267.633,350.000 266.500 C 350.000 265.452,351.056 265.000,353.500 265.000 C 355.425 265.000,357.000 264.550,357.000 264.000 C 357.000 263.450,359.025 263.000,361.500 263.000 C 363.975 263.000,366.000 262.550,366.000 262.000 C 366.000 261.450,367.575 261.000,369.500 261.000 C 371.944 261.000,373.000 260.548,373.000 259.500 C 373.000 258.389,374.167 258.000,377.500 258.000 C 379.975 258.000,382.000 257.550,382.000 257.000 C 382.000 256.450,383.125 256.000,384.500 256.000 C 386.991 256.000,387.000 255.967,387.000 246.500 L 387.000 237.000 382.500 237.000 C 379.167 237.000,378.000 237.389,378.000 238.500 " stroke="none" fill="#000000" fill-rule="evenodd"></path></g></svg>