<svg width="100%" height="100%" viewBox="0 0 515 515" version="1.1" xmlns="http://www.w3.org/2000/svg" style="fill-rule:evenodd;clip-rule:evenodd;stroke-linejoin:round;stroke-miterlimit:2;">
    <g transform="matrix(1.17711,0,0,1.17711,-50.3298,-54.3337)">
        <path d="M118,85.868C118,87.356 115.178,86.815 113.772,87.304C109.497,88.792 108.422,89.492 105,92C97.616,97.412 86.301,107.532 85.868,118C85.159,135.154 85.295,152.333 85,169.5C84.924,173.944 88.214,214.977 81.558,231.803C80.887,233.499 79.051,234.469 78,235.96C72.837,243.284 68.29,248.667 59.452,252.077C56.35,253.274 46,254.263 46,257.5C46,260.665 47.438,259.51 50,260C54.186,260.801 59.065,262.423 62.817,264.46C73.103,270.046 83.562,281.658 84.098,294C84.843,311.153 84.705,328.333 85,345.5C85.413,369.513 78.532,398.696 97.418,417.582C97.767,417.932 103.741,422.077 105,423C108.691,425.705 113.272,428.794 118,429.132C127.314,429.798 136.662,430 146,430L174,430L174,326C174,291.333 172.87,256.622 174.633,222C174.751,219.683 177.539,225.619 179.022,227.403C180.169,228.782 181.405,230.086 182.522,231.49C187.117,237.264 191.975,242.729 196.5,248.566C208.909,264.575 221.688,279.9 234,295.967C250.562,317.581 268.077,338.594 285.093,359.839C291.495,367.832 298.975,375.414 305,383.408C312.524,393.391 320.526,402.957 328,413C330.921,416.925 333.335,419.563 336.516,423.051C337.027,423.612 339.413,427.949 339.791,428.22C347.836,433.985 359.532,430.05 369.429,430C384.584,429.924 393.633,431.417 405.812,426.065C408.262,424.988 410.656,422.547 412.821,421C437.177,403.596 429.539,372.348 430,345.5C430.295,328.333 430.157,311.153 430.902,294C431.438,281.658 441.897,270.046 452.183,264.46C455.935,262.423 460.814,260.801 465,260C467.562,259.51 469,260.665 469,257.5C469,254.335 467.562,255.49 465,255C460.814,254.199 455.935,252.577 452.183,250.54C441.897,244.954 431.438,233.342 430.902,221C430.157,203.847 430.295,186.667 430,169.5C429.587,145.487 436.468,116.304 417.582,97.418C417.233,97.068 411.259,92.923 410,92C406.309,89.295 401.728,86.206 397,85.868C387.686,85.202 378.338,85 369,85L341,85L341,189C341,223.667 342.116,258.377 340.367,293C340.255,295.22 337.447,289.647 336,287.959C333.007,284.468 329.934,281.045 327,277.505C317.72,266.307 309.662,253.852 300,243.009C288.954,230.612 279.901,216.45 269,203.85C249.961,181.843 231.189,158.686 213.5,135.435C204.719,123.893 195.204,113.04 186.5,101.434C183.789,97.819 181.459,95.211 178.484,91.949C177.973,91.388 175.587,87.051 175.209,86.78C167.164,81.015 155.468,84.95 145.571,85C136.376,85.046 118,76.673 118,85.868"/>
    </g>
</svg>
