<?xml version="1.0" encoding="UTF-8" standalone="no"?>
<svg
   xmlns:dc="http://purl.org/dc/elements/1.1/"
   xmlns:cc="http://creativecommons.org/ns#"
   xmlns:rdf="http://www.w3.org/1999/02/22-rdf-syntax-ns#"
   xmlns:svg="http://www.w3.org/2000/svg"
   xmlns="http://www.w3.org/2000/svg"
   style="display: block;"
   height="515"
   width="515"
   version="1.1"
   id="svg">
  <metadata
     id="metadata9">
    <rdf:RDF>
      <cc:Work
         rdf:about="">
        <dc:format>image/svg+xml</dc:format>
        <dc:type
           rdf:resource="http://purl.org/dc/dcmitype/StillImage" />
        <dc:title></dc:title>
      </cc:Work>
    </rdf:RDF>
  </metadata>
  <defs
     id="defs7" />
  <g
     transform="matrix(1.1771064,0,0,1.1771064,-50.329833,-54.333702)"
     id="svgg">
    <path
       style="fill:#000000;fill-rule:evenodd;stroke:none"
       d="m 118,85.868 c 0,0.478 -1.903,1.124 -4.228,1.436 -2.326,0.312 -4.389,1.046 -4.584,1.631 -0.195,0.586 -0.893,1.065 -1.551,1.065 -0.657,0 -1.844,0.9 -2.637,2 -0.793,1.1 -2.062,2 -2.821,2 -1.791,0 -8.179,6.388 -8.179,8.179 0,0.759 -0.9,2.028 -2,2.821 -1.1,0.793 -2,1.98 -2,2.637 0,0.658 -0.479,1.356 -1.065,1.551 -0.585,0.195 -1.319,2.258 -1.631,4.584 C 86.992,116.097 86.346,118 85.868,118 85.388,118 85,141.039 85,169.5 c 0,29.929 -0.378,51.5 -0.902,51.5 -0.496,0 -1.213,2.683 -1.594,5.962 -0.536,4.622 -1.12,6.099 -2.598,6.568 -1.048,0.333 -1.906,1.426 -1.906,2.43 0,1.004 -0.675,2.085 -1.5,2.402 -0.825,0.316 -1.5,1.324 -1.5,2.239 0,1.808 -3.613,5.399 -5.432,5.399 -0.62,0 -1.763,0.883 -2.541,1.963 -0.779,1.08 -2.673,2.24 -4.21,2.577 -1.537,0.338 -3.051,1.029 -3.365,1.537 -0.313,0.508 -1.668,0.923 -3.011,0.923 -1.343,0 -2.441,0.45 -2.441,1 0,0.55 -1.8,1 -4,1 -3.6,0 -4,0.25 -4,2.5 0,2.25 0.4,2.5 4,2.5 2.2,0 4,0.45 4,1 0,0.55 1.098,1 2.441,1 1.343,0 2.698,0.415 3.011,0.923 0.314,0.508 1.828,1.199 3.365,1.537 1.537,0.337 3.431,1.497 4.21,2.577 0.778,1.08 1.921,1.963 2.541,1.963 1.819,0 5.432,3.591 5.432,5.399 0,0.915 0.675,1.923 1.5,2.239 0.825,0.317 1.5,1.398 1.5,2.402 0,1.004 0.858,2.097 1.906,2.43 1.478,0.469 2.062,1.946 2.598,6.568 0.381,3.279 1.098,5.962 1.594,5.962 0.524,0 0.902,21.571 0.902,51.5 0,28.461 0.388,51.5 0.868,51.5 0.478,0 1.124,1.903 1.436,4.228 0.312,2.326 1.046,4.389 1.631,4.584 0.586,0.195 1.065,0.893 1.065,1.551 0,0.657 0.9,1.844 2,2.637 1.1,0.793 2,2.062 2,2.821 0,1.791 6.388,8.179 8.179,8.179 0.759,0 2.028,0.9 2.821,2 0.793,1.1 1.98,2 2.637,2 0.658,0 1.356,0.479 1.551,1.065 0.195,0.585 2.258,1.319 4.584,1.631 2.325,0.312 4.228,0.958 4.228,1.436 0,0.477 12.6,0.868 28,0.868 h 28 V 326 c 0,-57.2 0.285,-104 0.633,-104 0.977,0 4.364,4.17 4.389,5.403 0.011,0.603 1.586,2.443 3.5,4.087 1.913,1.645 3.478,3.752 3.478,4.683 0,0.931 0.877,1.971 1.949,2.311 1.072,0.34 2.227,1.495 2.567,2.567 0.34,1.072 1.038,1.949 1.551,1.949 0.513,0 0.933,0.488 0.933,1.083 0,0.596 1.575,2.613 3.5,4.483 1.925,1.869 3.5,3.916 3.5,4.548 0,0.633 1.575,2.635 3.5,4.451 1.925,1.815 3.5,3.575 3.5,3.91 0,0.675 1.365,2.407 4.75,6.028 1.238,1.323 2.25,2.856 2.25,3.406 0,1.275 4.781,6.091 6.045,6.091 0.525,0 0.955,0.739 0.955,1.642 0,0.903 1.35,2.932 3,4.508 1.65,1.577 3,3.268 3,3.759 0,0.49 1.575,2.466 3.5,4.391 1.925,1.925 3.5,4.025 3.5,4.667 0,0.642 1.575,2.653 3.5,4.468 1.925,1.816 3.5,3.606 3.5,3.979 0,0.372 1.012,1.76 2.25,3.083 3.458,3.699 4.75,5.356 4.75,6.093 0,0.37 1.575,2.159 3.5,3.975 1.925,1.815 3.5,3.789 3.5,4.386 0,0.596 1.575,2.614 3.5,4.483 1.925,1.87 3.5,3.887 3.5,4.483 0,0.595 0.42,1.083 0.933,1.083 0.513,0 1.211,0.877 1.551,1.949 0.34,1.072 1.495,2.227 2.567,2.567 1.072,0.34 1.949,1.316 1.949,2.168 0,0.853 1.8,3.297 4,5.432 2.2,2.135 4,4.362 4,4.95 0,0.588 1.462,2.501 3.25,4.251 1.788,1.751 3.396,3.858 3.575,4.683 0.179,0.825 0.749,1.653 1.268,1.839 1.683,0.606 5.907,5.696 5.907,7.119 0,0.573 0.42,1.042 0.933,1.042 0.513,0 1.211,0.877 1.551,1.949 0.34,1.072 1.495,2.227 2.567,2.567 1.072,0.34 1.949,1.324 1.949,2.187 0,0.862 1.125,2.61 2.5,3.885 1.375,1.274 2.5,2.815 2.5,3.423 0,0.609 0.45,0.829 1,0.489 0.55,-0.34 1,0.069 1,0.908 0,0.839 1.524,3.049 3.386,4.911 1.862,1.862 3.685,4.329 4.051,5.482 0.366,1.153 1.541,2.375 2.612,2.714 1.07,0.34 2.217,1.699 2.549,3.019 0.331,1.32 1.903,3.428 3.493,4.683 1.59,1.256 2.895,2.827 2.9,3.493 0.005,0.665 1.809,3.046 4.009,5.29 2.2,2.244 4,4.707 4,5.473 0,0.766 0.877,1.671 1.949,2.011 1.072,0.34 2.227,1.495 2.567,2.567 0.34,1.072 1.038,1.949 1.551,1.949 0.513,0 0.933,0.482 0.933,1.071 0,3.639 2.247,3.929 30.429,3.929 15.164,0 27.571,-0.391 27.571,-0.868 0,-0.478 1.903,-1.124 4.228,-1.436 2.326,-0.312 4.389,-1.046 4.584,-1.631 0.195,-0.586 0.893,-1.065 1.551,-1.065 0.657,0 1.844,-0.9 2.637,-2 0.793,-1.1 2.062,-2 2.821,-2 1.791,0 8.179,-6.388 8.179,-8.179 0,-0.759 0.9,-2.028 2,-2.821 1.1,-0.793 2,-1.98 2,-2.637 0,-0.658 0.479,-1.356 1.065,-1.551 0.585,-0.195 1.319,-2.258 1.631,-4.584 0.312,-2.325 0.958,-4.228 1.436,-4.228 0.48,0 0.868,-23.039 0.868,-51.5 0,-29.929 0.378,-51.5 0.902,-51.5 0.496,0 1.213,-2.683 1.594,-5.962 0.536,-4.622 1.12,-6.099 2.598,-6.568 1.048,-0.333 1.906,-1.426 1.906,-2.43 0,-1.004 0.675,-2.085 1.5,-2.402 0.825,-0.316 1.5,-1.324 1.5,-2.239 0,-1.808 3.613,-5.399 5.432,-5.399 0.62,0 1.763,-0.883 2.541,-1.963 0.779,-1.08 2.673,-2.24 4.21,-2.577 1.537,-0.338 3.051,-1.029 3.365,-1.537 0.313,-0.508 1.668,-0.923 3.011,-0.923 1.343,0 2.441,-0.45 2.441,-1 0,-0.55 1.8,-1 4,-1 3.6,0 4,-0.25 4,-2.5 0,-2.25 -0.4,-2.5 -4,-2.5 -2.2,0 -4,-0.45 -4,-1 0,-0.55 -1.098,-1 -2.441,-1 -1.343,0 -2.698,-0.415 -3.011,-0.923 -0.314,-0.508 -1.828,-1.199 -3.365,-1.537 -1.537,-0.337 -3.431,-1.497 -4.21,-2.577 -0.778,-1.08 -1.921,-1.963 -2.541,-1.963 -1.819,0 -5.432,-3.591 -5.432,-5.399 0,-0.915 -0.675,-1.923 -1.5,-2.239 -0.825,-0.317 -1.5,-1.398 -1.5,-2.402 0,-1.004 -0.858,-2.097 -1.906,-2.43 -1.478,-0.469 -2.062,-1.946 -2.598,-6.568 C 432.115,223.683 431.398,221 430.902,221 430.378,221 430,199.429 430,169.5 c 0,-28.461 -0.388,-51.5 -0.868,-51.5 -0.478,0 -1.124,-1.903 -1.436,-4.228 -0.312,-2.326 -1.046,-4.389 -1.631,-4.584 -0.586,-0.195 -1.065,-0.893 -1.065,-1.551 0,-0.657 -0.9,-1.844 -2,-2.637 -1.1,-0.793 -2,-2.062 -2,-2.821 0,-1.791 -6.388,-8.179 -8.179,-8.179 -0.759,0 -2.028,-0.9 -2.821,-2 -0.793,-1.1 -1.98,-2 -2.637,-2 -0.658,0 -1.356,-0.479 -1.551,-1.065 -0.195,-0.585 -2.258,-1.319 -4.584,-1.631 C 398.903,86.992 397,86.346 397,85.868 397,85.391 384.4,85 369,85 h -28 v 104 c 0,57.2 -0.285,104 -0.633,104 -0.825,0 -4.367,-4.088 -4.367,-5.041 0,-0.405 -2.025,-2.789 -4.5,-5.3 -2.475,-2.51 -4.5,-4.83 -4.5,-5.154 0,-0.656 -1.389,-2.413 -4.75,-6.008 -1.238,-1.323 -2.25,-2.712 -2.25,-3.087 0,-0.374 -1.125,-1.723 -2.5,-2.998 -1.375,-1.274 -2.5,-2.762 -2.5,-3.305 0,-0.544 -2.025,-3.043 -4.5,-5.554 -2.475,-2.511 -4.5,-5.008 -4.5,-5.55 0,-0.542 -1.35,-2.276 -3,-3.853 -1.65,-1.576 -3,-3.44 -3,-4.141 0,-1.365 -3.748,-5.009 -5.153,-5.009 -0.466,0 -0.847,-0.618 -0.847,-1.374 0,-0.755 -1.8,-3.342 -4,-5.749 -2.2,-2.407 -4,-4.744 -4,-5.194 0,-0.449 -1.575,-2.303 -3.5,-4.118 -1.925,-1.816 -3.5,-3.795 -3.5,-4.399 0,-0.603 -1.238,-2.391 -2.75,-3.974 -3.657,-3.825 -7.25,-8.455 -7.25,-9.342 0,-0.393 -0.9,-1.001 -2,-1.35 -1.1,-0.349 -2,-1.396 -2,-2.327 0,-0.931 -1.565,-3.038 -3.478,-4.683 -1.914,-1.644 -3.489,-3.532 -3.5,-4.195 -0.012,-0.662 -1.147,-2.329 -2.522,-3.704 -1.375,-1.375 -2.5,-2.971 -2.5,-3.546 0,-0.575 -0.42,-1.045 -0.933,-1.045 -0.513,0 -1.211,-0.877 -1.551,-1.949 -0.34,-1.072 -1.472,-2.22 -2.516,-2.551 -1.044,-0.331 -2.197,-1.546 -2.563,-2.699 -0.366,-1.153 -2.189,-3.62 -4.051,-5.482 -1.862,-1.862 -3.386,-3.851 -3.386,-4.419 0,-0.569 -1.575,-2.52 -3.5,-4.335 -1.925,-1.816 -3.5,-4.005 -3.5,-4.866 0,-0.86 -0.877,-1.843 -1.949,-2.183 -1.072,-0.34 -2.227,-1.495 -2.567,-2.567 -0.34,-1.072 -1.038,-1.949 -1.551,-1.949 -0.513,0 -0.933,-0.675 -0.933,-1.5 0,-0.825 -0.42,-1.5 -0.933,-1.5 -0.513,0 -1.211,-0.877 -1.551,-1.949 -0.34,-1.072 -1.495,-2.227 -2.567,-2.567 -1.072,-0.34 -1.949,-1.323 -1.949,-2.183 0,-0.861 -1.575,-3.05 -3.5,-4.866 -1.925,-1.815 -3.5,-3.766 -3.5,-4.335 0,-0.568 -1.524,-2.557 -3.386,-4.419 -1.862,-1.862 -3.685,-4.329 -4.051,-5.482 -0.366,-1.153 -1.519,-2.368 -2.563,-2.699 -1.044,-0.331 -2.198,-1.592 -2.565,-2.801 -0.367,-1.21 -2.19,-3.661 -4.051,-5.447 -1.861,-1.786 -3.384,-3.736 -3.384,-4.333 0,-0.597 -1.575,-2.615 -3.5,-4.485 -1.925,-1.869 -3.5,-4.051 -3.5,-4.849 0,-0.798 -0.877,-1.729 -1.949,-2.069 -1.072,-0.34 -2.227,-1.495 -2.567,-2.567 C 178.144,90.877 177.446,90 176.933,90 176.42,90 176,89.518 176,88.929 176,85.29 173.753,85 145.571,85 130.407,85 118,85.391 118,85.868"
       id="path0" />
  </g>
</svg>
