<?xml version="1.0" encoding="UTF-8" standalone="no"?>
<!DOCTYPE svg PUBLIC "-//W3C//DTD SVG 1.1//EN" "http://www.w3.org/Graphics/SVG/1.1/DTD/svg11.dtd">
<svg width="100%" height="100%" viewBox="0 0 515 515" version="1.1" xmlns="http://www.w3.org/2000/svg" xmlns:xlink="http://www.w3.org/1999/xlink" xml:space="preserve" xmlns:serif="http://www.serif.com/" style="fill-rule:evenodd;clip-rule:evenodd;stroke-linejoin:round;stroke-miterlimit:2;">
    <g id="svgg">
        <path id="path0" d="M92.5,11.485C49.799,20.926 31.49,71.755 53.466,108.37C62.606,123.599 78.412,131.474 94.909,136C102.594,138.108 110.057,138.481 118,137.131C145.177,132.514 165.832,110.654 170.323,83.689C175.679,51.526 154.973,17.5 122.697,11.943C113.959,10.438 101.412,9.515 92.5,11.485M123.846,16.515C133.209,19.351 142.476,24.456 149.544,31.271C156.416,37.897 160.434,47.4 164.01,55.855C167.661,64.487 168.007,74.411 166,83.343C163.279,95.449 158.516,106.538 149.527,115.527C132.564,132.49 107.703,137.506 85.79,128.583C80.428,126.399 70.088,121.606 65.756,116.903C48.557,98.232 43.617,70.017 53.98,46.719C60.848,31.279 78.418,18.997 94.381,16.125C103.061,14.563 115.121,13.873 123.846,16.515M193.209,44.668C184.001,49.206 181.833,61.831 187.035,70.149C191.258,76.903 200.36,79.899 207.841,77.267C217.998,73.695 222.024,60.038 216.655,51.027C213.678,46.031 208.063,42.917 202.293,42.705C199.114,42.588 196.064,43.261 193.209,44.668M239.619,59.034C229.106,62.182 226.01,77.476 231.779,85.906C235.991,92.061 243.466,93.593 250.489,92.571C264.424,90.543 267.467,71.37 258.707,62.235C254.381,57.725 245.171,57.372 239.619,59.034M314.5,75.011C298.532,78.279 282.564,85.225 269.46,95C231.245,123.508 215.296,175.056 228.129,220.777C238.124,256.385 268.322,286.651 303.471,297.533C325.552,304.369 347.538,303.45 369.895,298.886C382.84,296.243 395.042,289.04 405.97,282.147C444.919,257.579 459.88,208.734 452.562,165.609C451.384,158.667 449.996,151.476 447.048,145C440.364,130.316 431.491,116.218 420.21,104.604C416.725,101.017 416.135,101.989 412.405,98.496C400.706,87.543 387.895,80.528 371.762,77.457C352.745,73.836 333.659,71.089 314.5,75.011M356,78.039C374.298,80.922 390.675,88.513 405.766,98.969C419.942,108.791 430.823,122.938 438.253,138.408C446.633,155.856 450.16,167.734 450.085,187.632C450.07,191.707 449.77,207.596 447.651,214.649C441.647,234.634 429.676,255.38 414.521,269.789C411.716,272.455 411.105,271.207 408,273.831C385.09,293.198 354.645,301.07 324.825,297.48C282.893,292.433 244.423,260.628 232.589,219.857C215.501,160.986 250.413,94.634 310.968,80.45C325.386,77.072 341.299,75.723 356,78.039M80.001,152.123C70.225,156.022 66.981,167.969 71.855,177.078C75.762,184.379 85.1,188.47 92.85,184.553C96.616,182.649 102.861,179.207 103.69,174.266C103.875,173.16 103.187,171.999 103.457,170.91C103.577,170.424 104.688,169.405 104.762,168.902C105.242,165.643 103.393,161.79 101.559,159.281C100.464,157.783 99.718,156.005 98.401,154.699C96.881,153.192 92.672,152.248 91.485,152.015C88.471,151.424 83.115,150.882 80.001,152.123M83.594,198.041C71.756,201.582 68.899,218.867 76.922,227.391C81.613,232.375 88.573,232.969 94.836,231.172C98.098,230.237 101.425,228.595 103.713,226.016C105.66,223.821 106.605,220.952 107.026,218.083C108.936,205.075 96.031,194.321 83.594,198.041M93.368,248.071C81.451,251.591 79.526,268.865 86.884,277.352C91.412,282.574 99.5,283.322 105.717,281.248C117.06,277.463 120.962,262.691 113.296,253.486C108.434,247.649 100.485,245.97 93.368,248.071M117.914,291.956C104.408,296.049 101.491,315.504 113.606,323.357C116.413,325.176 119.58,325.924 122.898,325.965C125.064,325.992 127.599,325.824 129.665,325.012C137.61,321.888 141.652,313.84 141.261,305.614C141.15,303.282 139.576,302.384 138.67,300.517C138.12,299.384 138.695,299.188 137.832,298.271C135.398,295.682 131.457,292.941 128,291.985C124.151,290.92 121.73,290.799 117.914,291.956M329.001,318.123C318.971,322.122 316.297,335.667 321.586,344.382C325.782,351.295 334.819,353.936 342.259,351.098C352.032,347.372 356.336,334.726 351.314,325.645C348.597,320.733 343.382,317.446 337.827,316.876C334.796,316.565 331.833,316.994 329.001,318.123M168.5,324.715C142.135,328.358 125.184,342.269 108.266,361.456C106.593,363.353 98.848,373.708 98.052,375.276C92,387.196 90.334,401.88 89.839,415.009C89.343,428.146 89.902,442.915 95.036,455.265C97.65,461.553 102.805,469.053 107.296,474.268C114.063,482.125 121.677,492.557 130.985,498C151.612,510.061 174.295,515.095 198.104,511.785C210.919,510.003 222.331,505.826 233.505,499.406C246.999,491.653 247.904,489.686 260.64,474.5C266.262,467.797 268.105,461.902 271.619,454C292.803,406.366 266.446,347.916 217.543,329.877C201.924,324.116 184.974,322.437 168.5,324.715M205.5,330.462C238.603,337.721 262.141,365.659 271.941,397C275.474,408.299 274.006,422.367 273.498,433.75C273.362,436.79 271.619,439.54 270.618,442.414C263.61,462.543 256.131,474.2 240.126,489.835C238.023,491.889 235.116,492.914 232.578,494.397C212.389,506.195 191.482,510.456 168,507.986C157.729,506.906 148.523,501.075 139,497.078C133.616,494.818 125.487,487.259 122.792,484.759C100.519,464.089 89.017,434.893 94.463,404.078C103.627,352.227 154.513,319.282 205.5,330.462M300.275,353.949C298.299,354.432 296.426,355.3 294.606,356.208C288.936,359.036 288.181,366.346 288.22,371.8C288.252,376.324 289.303,380.953 292.65,384.235C297.226,388.723 306.552,389.069 312.249,387.092C321.609,383.845 325.012,372.56 321,363.965C317.267,355.967 308.723,351.886 300.275,353.949"/>
    </g>
</svg>
