<svg id="svg" version="1.1" width="515" height="515" xmlns="http://www.w3.org/2000/svg" xmlns:xlink="http://www.w3.org/1999/xlink" style="display: block;"><g id="svgg"><path id="path0" d="M92.500 11.485 C 84.739 13.201,77.793 16.242,71.797 20.551 C 69.156 22.448,66.638 24.000,66.201 24.000 C 65.305 24.000,58.000 31.269,58.000 32.160 C 58.000 32.476,56.075 35.607,53.722 39.118 C 38.848 61.306,41.445 96.112,59.512 116.707 C 66.714 124.917,87.049 136.000,94.909 136.000 C 95.994 136.000,97.160 136.450,97.500 137.000 C 98.258 138.226,118.000 138.352,118.000 137.131 C 118.000 136.653,119.661 135.992,121.691 135.663 C 163.316 128.908,185.387 75.082,161.278 39.118 C 158.925 35.607,157.000 32.436,157.000 32.071 C 157.000 30.970,149.500 24.000,148.315 24.000 C 147.709 24.000,146.955 23.325,146.638 22.500 C 146.322 21.675,145.411 21.000,144.615 21.000 C 143.818 21.000,143.017 20.618,142.833 20.152 C 140.168 13.370,108.579 7.931,92.500 11.485 M123.846 16.515 C 136.581 20.373,149.613 29.222,154.748 37.500 C 160.418 46.641,162.282 50.334,164.010 55.855 C 165.105 59.351,166.000 63.063,166.000 64.105 C 166.000 65.147,166.338 66.000,166.750 66.000 C 167.162 66.000,167.500 69.375,167.500 73.500 C 167.500 77.625,167.162 81.000,166.750 81.000 C 166.338 81.000,166.000 82.055,166.000 83.343 C 166.000 91.316,157.886 107.169,149.527 115.527 C 141.169 123.886,125.316 132.000,117.343 132.000 C 116.055 132.000,115.000 132.338,115.000 132.750 C 115.000 133.162,111.625 133.500,107.500 133.500 C 103.375 133.500,100.000 133.220,100.000 132.878 C 100.000 132.536,98.205 131.969,96.010 131.618 C 89.935 130.646,81.539 127.227,75.885 123.423 C 73.088 121.540,70.432 120.000,69.983 120.000 C 66.019 120.000,53.975 101.330,50.531 89.846 C 45.752 73.910,51.112 44.076,59.719 38.700 C 60.424 38.260,61.000 37.447,61.000 36.892 C 61.000 35.371,69.135 27.000,70.613 27.000 C 71.321 27.000,72.260 26.424,72.700 25.719 C 78.041 17.167,108.125 11.754,123.846 16.515 M193.209 44.668 C 180.688 50.839,181.489 71.128,194.467 76.551 C 207.237 81.886,219.000 73.764,219.000 59.612 C 219.000 46.765,205.190 38.763,193.209 44.668 M239.619 59.034 C 233.104 60.985,229.000 67.725,229.000 76.474 C 229.000 96.551,258.779 99.295,263.417 79.645 C 264.259 76.076,263.152 68.300,261.573 66.700 C 260.921 66.040,260.098 64.733,259.743 63.795 C 258.077 59.394,247.096 56.796,239.619 59.034 M314.500 75.011 C 303.121 77.340,296.562 79.652,286.500 84.879 C 273.737 91.510,271.000 93.138,271.000 94.098 C 271.000 94.594,270.307 95.000,269.460 95.000 C 266.387 95.000,241.000 123.653,241.000 127.121 C 241.000 127.669,240.597 127.869,240.105 127.565 C 238.746 126.725,230.105 147.247,227.290 158.000 C 222.665 175.663,223.045 204.083,228.129 220.777 C 230.751 229.388,235.006 239.000,236.196 239.000 C 236.703 239.000,236.840 239.450,236.500 240.000 C 236.160 240.550,236.385 241.000,237.000 241.000 C 237.615 241.000,237.846 241.441,237.513 241.979 C 236.889 242.988,238.654 247.075,240.134 248.049 C 240.592 248.351,242.887 251.350,245.234 254.715 C 250.642 262.468,268.429 281.000,270.464 281.000 C 271.309 281.000,272.000 281.417,272.000 281.927 C 272.000 282.436,273.238 283.489,274.750 284.266 C 276.262 285.043,280.425 287.304,284.000 289.292 C 308.280 302.788,340.075 306.340,369.895 298.886 C 374.628 297.703,378.928 296.345,379.450 295.868 C 379.973 295.390,381.027 295.000,381.793 295.000 C 384.177 295.000,399.182 287.023,405.970 282.147 C 409.529 279.591,412.907 277.275,413.477 277.000 C 414.885 276.321,427.786 262.454,431.618 257.500 C 436.319 251.422,445.000 235.451,445.000 232.879 C 445.000 232.396,445.477 232.000,446.059 232.000 C 446.641 232.000,446.840 231.550,446.500 231.000 C 446.160 230.450,446.344 230.000,446.910 230.000 C 447.475 230.000,447.678 229.325,447.362 228.500 C 447.045 227.674,447.332 227.000,448.000 227.000 C 448.668 227.000,448.955 226.326,448.638 225.500 C 448.322 224.675,448.547 224.000,449.138 224.000 C 449.730 224.000,449.966 223.354,449.663 222.565 C 449.360 221.775,449.549 220.984,450.082 220.806 C 450.616 220.628,451.213 218.911,451.411 216.991 C 451.608 215.071,452.086 212.734,452.473 211.798 C 452.860 210.862,452.855 209.574,452.460 208.936 C 452.066 208.298,452.343 207.406,453.075 206.953 C 454.659 205.974,455.868 175.000,454.322 175.000 C 453.816 175.000,453.585 173.425,453.810 171.500 C 454.064 169.326,453.791 168.000,453.090 168.000 C 452.400 168.000,452.195 167.072,452.562 165.609 C 452.892 164.294,452.718 162.944,452.175 162.608 C 451.632 162.273,451.423 161.098,451.711 159.999 C 451.998 158.900,451.773 158.000,451.210 158.000 C 450.648 158.000,450.423 157.100,450.710 156.000 C 450.998 154.900,450.745 154.000,450.148 154.000 C 449.551 154.000,449.322 153.325,449.638 152.500 C 449.955 151.675,449.730 151.000,449.138 151.000 C 448.547 151.000,448.322 150.325,448.638 149.500 C 448.955 148.675,448.730 148.000,448.138 148.000 C 447.547 148.000,447.322 147.325,447.638 146.500 C 447.955 145.675,447.689 145.000,447.048 145.000 C 446.407 145.000,446.160 144.550,446.500 144.000 C 446.840 143.450,446.709 143.000,446.210 143.000 C 445.710 143.000,444.229 140.300,442.918 137.000 C 441.607 133.700,440.189 131.000,439.767 131.000 C 439.345 131.000,439.000 130.528,439.000 129.952 C 439.000 126.339,418.078 100.378,415.382 100.646 C 414.573 100.727,413.233 99.759,412.405 98.496 C 400.703 80.635,348.361 68.080,314.500 75.011 M356.000 78.039 C 373.625 80.816,393.735 89.274,405.766 98.969 C 409.195 101.731,412.000 103.773,412.000 103.506 C 412.000 102.111,426.766 119.225,431.086 125.628 C 435.843 132.677,441.138 143.702,443.992 152.500 C 444.706 154.700,445.633 156.726,446.053 157.002 C 451.569 160.632,451.366 214.683,445.824 218.109 C 445.210 218.488,444.985 219.519,445.323 220.399 C 445.661 221.280,445.453 222.000,444.862 222.000 C 444.270 222.000,444.034 222.646,444.337 223.435 C 444.640 224.225,444.529 225.012,444.092 225.185 C 443.654 225.358,441.397 229.735,439.076 234.910 C 432.625 249.299,412.949 274.483,409.148 273.216 C 408.517 273.006,408.000 273.283,408.000 273.831 C 408.000 275.290,399.566 281.242,390.975 285.846 C 375.931 293.909,358.186 298.086,339.000 298.078 C 326.684 298.074,323.348 297.672,309.500 294.527 C 302.278 292.887,278.119 281.695,276.700 279.332 C 276.260 278.599,275.415 278.000,274.820 278.000 C 272.071 278.000,254.347 259.594,247.859 250.000 C 245.069 245.875,242.272 242.169,241.643 241.765 C 241.014 241.361,240.874 241.024,241.332 241.015 C 241.789 241.007,241.263 239.537,240.163 237.750 C 227.694 217.486,224.504 180.496,233.027 155.000 C 238.099 139.826,239.222 137.000,240.178 137.000 C 240.695 137.000,240.840 136.550,240.500 136.000 C 240.160 135.450,240.280 135.000,240.766 135.000 C 241.253 135.000,243.847 131.533,246.531 127.296 C 251.696 119.144,266.029 103.196,271.964 99.000 C 273.909 97.625,275.650 96.162,275.833 95.750 C 276.017 95.338,276.767 95.000,277.500 95.000 C 278.233 95.000,278.983 94.662,279.167 94.250 C 279.625 93.218,290.145 87.756,297.933 84.505 C 313.062 78.191,338.785 75.327,356.000 78.039 M80.001 152.123 C 62.914 158.937,68.107 186.000,86.500 186.000 C 94.603 186.000,105.456 177.236,103.539 172.241 C 103.205 171.371,103.463 170.332,104.112 169.931 C 104.843 169.479,104.988 168.498,104.492 167.351 C 104.052 166.333,103.789 164.722,103.906 163.770 C 104.023 162.819,102.967 160.799,101.559 159.281 C 100.152 157.763,99.000 156.218,99.000 155.849 C 99.000 152.702,85.292 150.014,80.001 152.123 M83.594 198.041 C 70.079 202.084,68.334 223.950,81.002 230.501 C 88.697 234.480,102.064 230.646,105.406 223.500 C 112.144 209.091,98.784 193.497,83.594 198.041 M93.368 248.071 C 82.492 251.283,78.783 268.035,86.884 277.352 C 93.804 285.310,110.016 283.337,114.914 273.941 C 122.827 258.760,109.867 243.200,93.368 248.071 M117.914 291.956 C 99.248 297.612,103.421 326.088,122.898 325.965 C 128.784 325.927,130.782 325.142,135.726 320.921 C 141.063 316.364,143.245 305.388,139.548 301.690 C 138.749 300.892,138.322 300.011,138.599 299.734 C 139.526 298.807,131.544 292.971,128.000 291.985 C 123.964 290.862,121.546 290.855,117.914 291.956 M329.001 318.123 C 315.424 323.537,315.637 345.751,329.315 350.933 C 341.493 355.547,353.288 347.258,353.414 333.996 C 353.532 321.654,340.840 313.402,329.001 318.123 M168.500 324.715 C 159.982 325.892,137.724 333.647,136.000 336.037 C 135.725 336.419,134.449 337.059,133.165 337.460 C 130.091 338.420,112.854 355.031,108.266 361.456 C 106.284 364.230,104.170 366.950,103.568 367.500 C 87.083 382.551,84.647 447.158,99.950 463.447 C 101.088 464.658,101.714 465.952,101.342 466.324 C 100.971 466.696,101.218 467.000,101.892 467.000 C 102.566 467.000,102.840 467.450,102.500 468.000 C 102.160 468.550,102.284 469.000,102.775 469.000 C 103.266 469.000,105.300 471.371,107.296 474.268 C 112.103 481.248,126.451 496.000,128.433 496.000 C 129.295 496.000,130.000 496.450,130.000 497.000 C 130.000 497.550,130.443 498.000,130.985 498.000 C 131.527 498.000,134.198 499.371,136.921 501.047 C 163.412 517.347,206.594 516.613,233.505 499.406 C 237.725 496.708,241.943 494.050,242.879 493.500 C 244.968 492.273,256.475 479.964,260.640 474.500 C 265.327 468.353,268.613 462.218,271.619 454.000 C 273.128 449.875,274.773 446.223,275.273 445.884 C 275.774 445.546,276.255 443.411,276.342 441.140 C 276.429 438.869,276.889 437.009,277.363 437.006 C 277.838 437.003,278.029 435.650,277.787 434.000 C 277.545 432.350,277.718 431.000,278.173 431.000 C 280.639 431.000,277.839 392.867,275.243 391.094 C 274.765 390.767,273.326 387.575,272.046 384.000 C 257.370 343.004,214.352 318.374,168.500 324.715 M205.500 330.462 C 211.989 331.885,232.077 340.548,232.833 342.250 C 233.017 342.663,233.804 343.000,234.583 343.000 C 235.363 343.000,236.000 343.686,236.000 344.525 C 236.000 345.363,237.082 346.461,238.404 346.964 C 248.110 350.654,267.073 378.342,270.447 393.750 C 270.839 395.538,271.511 397.000,271.941 397.000 C 272.371 397.000,272.508 398.125,272.245 399.500 C 271.982 400.875,272.179 402.000,272.683 402.000 C 273.186 402.000,273.415 403.575,273.190 405.500 C 272.965 407.425,273.171 409.000,273.648 409.000 C 274.130 409.000,274.192 414.224,273.787 420.750 C 273.386 427.212,273.256 433.063,273.498 433.750 C 273.740 434.438,273.584 435.000,273.151 435.000 C 272.719 435.000,271.579 438.336,270.618 442.414 C 268.691 450.588,263.783 461.548,258.819 468.763 C 254.451 475.112,242.134 488.997,240.126 489.835 C 239.232 490.208,235.835 492.261,232.578 494.397 C 217.131 504.529,204.390 508.134,183.250 508.357 C 174.863 508.446,168.000 508.279,168.000 507.986 C 168.000 507.694,165.412 506.867,162.250 506.148 C 156.916 504.935,140.134 498.389,139.000 497.078 C 138.725 496.760,136.700 495.600,134.500 494.500 C 130.998 492.749,113.986 476.961,112.882 474.438 C 111.629 471.573,105.565 463.000,104.792 463.000 C 104.291 463.000,104.138 462.586,104.450 462.081 C 104.763 461.575,104.308 460.451,103.440 459.583 C 99.336 455.479,94.623 438.912,93.405 424.306 C 91.200 397.865,104.018 367.997,125.115 350.419 C 128.077 347.951,131.587 345.015,132.916 343.894 C 148.201 330.999,180.604 325.003,205.500 330.462 M300.275 353.949 C 291.453 356.104,287.766 361.565,288.220 371.800 C 288.398 375.815,289.017 379.415,289.595 379.800 C 290.173 380.185,290.935 381.285,291.289 382.244 C 293.420 388.019,308.424 390.206,315.102 385.715 C 331.390 374.762,319.485 349.257,300.275 353.949 " stroke="none" fill="#000000" fill-rule="evenodd"></path></g></svg>