<?xml version="1.0" encoding="UTF-8" standalone="no"?>
<!DOCTYPE svg PUBLIC "-//W3C//DTD SVG 1.1//EN" "http://www.w3.org/Graphics/SVG/1.1/DTD/svg11.dtd">
<svg width="100%" height="100%" viewBox="0 0 400 400" version="1.1" xmlns="http://www.w3.org/2000/svg" xmlns:xlink="http://www.w3.org/1999/xlink" xml:space="preserve" xmlns:serif="http://www.serif.com/" style="fill-rule:evenodd;clip-rule:evenodd;stroke-linejoin:round;stroke-miterlimit:2;">
    <g id="svgg">
        <path id="path0" d="M74.25,136.496C70.919,140.28 73.794,259.676 74.429,263.571C74.918,266.569 80.391,265 83.429,265L91,265L91,215C91,198.332 90.114,181.604 91.571,165C91.598,164.692 96.24,171.512 97,172.779C100.775,179.07 105.225,184.93 109,191.221C119.414,208.577 130.586,225.423 141,242.779C146.32,251.646 151.722,263.771 162.889,265.146C165.399,265.455 167.964,265.607 170.474,265.296C172.254,265.074 175.081,265.297 175.571,263.571C177.438,256.997 176.602,249.936 176.775,243.103C177.137,228.74 177.176,214.368 177.176,200C177.176,185.632 177.137,171.26 176.775,156.897C176.602,150.064 178.351,142.672 175.571,136.429C174.41,133.822 159.59,135.082 158.429,136.429C156.279,138.924 157.363,142.95 157.265,146.242C156.886,158.966 157.126,171.7 157,184.429C156.847,199.953 157.888,215.544 156.429,231C156.259,232.801 154.109,228.222 153,226.792C151.667,225.073 150.2,222.8 149,221C144.841,214.761 141.163,208.244 137,202C126.626,186.44 117.381,170.17 107,154.599C104.185,150.376 102.156,145.425 99,141.455C94.824,136.201 80.162,129.782 74.25,136.496M200.25,136.496C198.273,138.742 198.445,261.588 200.429,263.571C202.548,265.691 265.452,265.691 267.571,263.571C268.558,262.585 269,259.8 269,254.571L269,247L217,247L217,228.429C217,204.777 214.466,207 241.429,207L263,207L263,191L217,191L217,153L240.571,153C259.667,153 264.414,152.729 265.571,151.571C267.216,149.927 267.589,139 266,139C265.45,139 265,138.1 265,137C265,134.368 202.552,133.881 200.25,136.496M278.25,136.496C277.486,137.364 277,140.848 277,145.458L277,153L313,153L313,207.571C313,270.278 312.081,265 323,265C333.919,265 333,270.278 333,207.571L333,153L367,153L367,145.429C367,140.2 366.558,137.415 365.571,136.429C363.45,134.307 280.12,134.371 278.25,136.496M36.25,244.496C35.118,245.783 35.537,247.266 34.706,248.547C34.297,249.178 33.908,248.755 33.612,249.438C32.068,252.997 32.887,258.726 34.88,261.955C35.633,263.174 36.745,264.337 38.146,264.789C38.591,264.933 40.082,264.993 40.546,265.294C40.781,265.446 40.808,265.797 41,266C41.917,266.97 42.495,267 44,267C45.679,267 45.992,266.97 47,266C47.221,265.788 47.314,265.431 47.588,265.294C48.448,264.864 49.552,265.136 50.413,264.706C50.96,264.432 51.04,263.568 51.588,263.294C52.263,262.956 53.917,263.083 54.5,262.5C55.083,261.917 54.956,260.263 55.294,259.587C55.827,258.521 56.424,258.953 56.706,257.825C57.098,256.258 57.098,253.742 56.706,252.175C56.437,251.099 55.911,251.5 55.294,250.546C54.721,249.661 54.93,248.408 54.351,247.526C52.833,245.212 49.575,244.003 47.06,243.337C43.977,242.522 38.713,241.699 36.25,244.496"/>
    </g>
</svg>
