<?xml version="1.0" encoding="UTF-8" standalone="no"?>
<svg
   xmlns:dc="http://purl.org/dc/elements/1.1/"
   xmlns:cc="http://creativecommons.org/ns#"
   xmlns:rdf="http://www.w3.org/1999/02/22-rdf-syntax-ns#"
   xmlns:svg="http://www.w3.org/2000/svg"
   xmlns="http://www.w3.org/2000/svg"
   style="display: block;"
   height="400"
   width="400"
   version="1.1"
   id="svg">
  <metadata
     id="metadata9">
    <rdf:RDF>
      <cc:Work
         rdf:about="">
        <dc:format>image/svg+xml</dc:format>
        <dc:type
           rdf:resource="http://purl.org/dc/dcmitype/StillImage" />
        <dc:title></dc:title>
      </cc:Work>
    </rdf:RDF>
  </metadata>
  <defs
     id="defs7" />
  <g
     id="svgg">
    <path
       style="fill:#000000;fill-rule:evenodd;stroke:none;stroke-width:1.12925923"
       d="m 189.56459,5.3580243 c 0,0.621092 -2.03266,1.1292585 -4.51703,1.1292585 -2.48437,0 -4.51704,0.5081676 -4.51704,1.1292596 0,0.6210931 -1.5245,1.1292596 -3.38778,1.1292596 -1.86327,0 -3.38777,0.5081666 -3.38777,1.1292596 0,0.6210924 -1.01634,1.1292584 -2.25852,1.1292584 -1.24219,0 -2.25852,0.508167 -2.25852,1.12926 0,0.621092 -2.03267,1.129259 -4.51704,1.129259 -2.48437,0 -4.51704,0.508167 -4.51704,1.129259 0,0.621093 -1.01633,1.12926 -2.25851,1.12926 -1.24219,0 -2.25852,0.508166 -2.25852,1.129259 0,0.621092 -1.01633,1.129259 -2.25852,1.129259 -1.24219,0 -2.25852,0.508167 -2.25852,1.129259 0,0.621093 -1.5245,1.12926 -3.38778,1.12926 -1.86327,0 -3.38778,0.508166 -3.38778,1.129259 0,0.621092 -1.01633,1.129259 -2.25852,1.129259 -1.24218,0 -2.25851,0.508167 -2.25851,1.12926 0,0.621093 -1.01634,1.129259 -2.25852,1.129259 -1.24218,0 -2.25852,0.508167 -2.25852,1.129259 0,0.621093 -2.03267,1.129259 -4.51703,1.129259 -2.48438,0 -4.51704,0.508167 -4.51704,1.12926 0,0.621092 -1.01633,1.129258 -2.25852,1.129258 -1.24219,0 -2.25852,0.508168 -2.25852,1.12926 0,0.621093 -1.92088,1.12926 -4.26747,1.12926 -2.97221,0 -4.76209,0.685459 -5.89586,2.258518 -0.95649,1.32575 -2.92365,2.258519 -4.76661,2.258519 -1.72551,0 -3.13821,0.508167 -3.13821,1.129259 0,0.621093 -1.5245,1.129259 -3.38778,1.129259 -1.863275,0 -3.387772,0.508167 -3.387772,1.12926 0,0.621092 -1.016341,1.129258 -2.258519,1.129258 -1.242188,0 -2.258519,0.508168 -2.258519,1.12926 0,0.621093 -1.016331,1.12926 -2.258519,1.12926 -1.242188,0 -2.258519,0.508166 -2.258519,1.129259 0,0.621092 -1.524497,1.129259 -3.387774,1.129259 -1.863288,0 -3.387783,0.508166 -3.387783,1.129259 0,0.621093 -1.5245,1.12926 -3.387778,1.12926 -1.863278,0 -3.387777,0.508166 -3.387777,1.129258 0,0.621093 -1.920871,1.12926 -4.267472,1.12926 -2.97221,0 -4.762086,0.685461 -5.895863,2.258518 -0.956482,1.325751 -2.923652,2.258519 -4.766603,2.258519 -1.725508,0 -3.138212,0.508167 -3.138212,1.12926 0,0.621092 -1.524499,1.129258 -3.387778,1.129258 -1.863277,0 -3.387777,0.508167 -3.387777,1.12926 0,0.621093 -1.016333,1.12926 -2.258518,1.12926 -1.242185,0 -2.25852,0.508166 -2.25852,1.129258 0,0.621093 -2.032666,1.12926 -4.517036,1.12926 -2.484371,0 -4.517037,0.508166 -4.517037,1.129259 0,0.621092 -1.016333,1.12926 -2.25852,1.12926 -1.242185,0 -2.258518,0.508167 -2.258518,1.129259 0,0.621093 -0.771283,1.129259 -1.715345,1.129259 -2.98802,0 -16.352803,14.287389 -16.352803,17.482059 0,1.565163 -0.508167,2.84461 -1.12926,2.84461 -0.621092,0 -1.129259,1.524496 -1.129259,3.387773 0,1.863277 -0.508167,3.387784 -1.129259,3.387784 -0.7148208,0 -1.1292593,8.280848 -1.1292593,22.585178 0,14.30433 0.4144385,22.58519 1.1292593,22.58519 0.722726,0 1.129259,10.16334 1.129259,28.23148 0,18.06815 0.406533,28.23148 1.129259,28.23148 0.735148,0 1.12926,16.56285 1.12926,47.4289 0,30.86604 0.394112,47.42888 1.12926,47.42888 0.621092,0 1.129258,2.54084 1.129258,5.6463 0,3.10547 0.508167,5.6463 1.12926,5.6463 0.621092,0 1.129259,1.01633 1.129259,2.25851 0,1.24219 0.508167,2.25852 1.129259,2.25852 0.621093,0 1.12926,0.77355 1.12926,1.71874 0,2.23593 11.854964,14.0909 14.090897,14.0909 0.94519,0 1.718733,0.50816 1.718733,1.12925 0,0.62109 0.904536,1.12927 2.008952,1.12927 1.105544,0 2.741841,1.01633 3.637344,2.25852 0.895502,1.24217 2.531799,2.25851 3.637344,2.25851 1.104415,0 2.008953,0.50817 2.008953,1.12926 0,0.62109 1.016333,1.12925 2.258518,1.12925 1.242185,0 2.258519,0.50818 2.258519,1.12927 0,0.62109 1.016333,1.12925 2.258518,1.12925 1.242185,0 2.258518,0.50817 2.258518,1.12927 0,0.62109 1.016334,1.12925 2.258519,1.12925 1.242185,0 2.258519,0.50817 2.258519,1.12927 0,0.62109 1.016334,1.12925 2.258519,1.12925 1.242185,0 2.258518,0.50817 2.258518,1.12927 0,0.62109 1.016333,1.12925 2.258519,1.12925 1.242185,0 2.258518,0.50817 2.258518,1.12927 0,0.62109 1.016333,1.12925 2.258518,1.12925 1.242185,0 2.25852,0.50817 2.25852,1.12927 0,0.62108 1.016333,1.12925 2.258518,1.12925 1.242185,0 2.258519,0.50817 2.258519,1.12926 0,0.62109 1.016333,1.12926 2.258518,1.12926 1.242187,0 2.258518,0.50816 2.258518,1.12925 0,0.6211 1.016331,1.12927 2.258519,1.12927 1.242189,0 2.25852,0.50816 2.25852,1.12925 0,0.6211 1.016331,1.12927 2.258519,1.12927 1.242188,0 2.258519,0.50816 2.258519,1.12925 0,0.6211 1.016331,1.12927 2.258519,1.12927 1.242178,0 2.258519,0.50816 2.258519,1.12925 0,0.6211 1.016331,1.12927 2.25852,1.12927 1.242182,0 2.258522,0.50816 2.258522,1.12925 0,0.6211 1.01633,1.12926 2.25851,1.12926 1.24218,0 2.25851,0.50817 2.25851,1.12926 0,0.6211 1.01635,1.12926 2.25852,1.12926 1.24219,0 2.25852,0.50817 2.25852,1.12926 0,0.62109 1.01634,1.12926 2.25852,1.12926 1.24219,0 2.25852,0.50817 2.25852,1.12926 0,0.62109 1.01633,1.12926 2.25852,1.12926 1.24219,0 2.25852,0.50817 2.25852,1.12926 0,0.62109 1.01633,1.12925 2.25852,1.12925 1.24219,0 2.25852,0.50818 2.25852,1.12927 0,0.62108 1.01633,1.12925 2.25852,1.12925 1.24219,0 2.25852,0.50818 2.25852,1.12927 0,0.62108 1.01633,1.12925 2.25852,1.12925 1.24217,0 2.25852,0.50817 2.25852,1.12926 0,0.62109 1.01633,1.12926 2.25851,1.12926 1.24218,0 2.25852,0.50816 2.25852,1.12926 0,0.62109 1.01633,1.12926 2.25852,1.12926 1.24218,0 2.25851,0.50816 2.25851,1.12926 0,0.62109 1.01634,1.12926 2.25852,1.12926 1.24219,0 2.25852,0.50816 2.25852,1.12926 0,0.62109 1.01634,1.12926 2.25852,1.12926 1.24219,0 2.25852,0.50816 2.25852,1.12926 0,0.62109 1.01633,1.12926 2.25852,1.12926 1.24219,0 2.25852,0.50816 2.25852,1.12926 0,0.62109 1.01633,1.12925 2.25852,1.12925 1.24218,0 2.25851,0.50817 2.25851,1.12926 0,0.6211 1.01634,1.12926 2.25852,1.12926 1.24219,0 2.25852,0.50817 2.25852,1.12926 0,0.6211 1.01633,1.12926 2.25852,1.12926 1.24219,0 2.25852,0.50817 2.25852,1.12926 0,0.6211 1.01633,1.12926 2.25852,1.12926 1.24218,0 2.25852,0.50817 2.25852,1.12926 0,0.6211 1.5245,1.12926 3.38777,1.12926 1.86328,0 3.38778,0.50817 3.38778,1.12926 0,0.6211 1.5245,1.12926 3.38778,1.12926 1.86328,0 3.38777,0.50817 3.38777,1.12926 0,0.62787 3.01174,1.12926 6.77556,1.12926 3.76383,0 6.77556,-0.50139 6.77556,-1.12926 0,-0.65836 3.76382,-1.12926 9.03408,-1.12926 5.27025,0 9.03406,-0.47091 9.03406,-1.12926 0,-0.62109 1.01634,-1.12926 2.25852,-1.12926 1.24219,0 2.25852,-0.50816 2.25852,-1.12926 0,-0.62109 1.01634,-1.12926 2.25852,-1.12926 1.24219,0 2.25852,-0.50816 2.25852,-1.12926 0,-0.62109 1.01633,-1.12926 2.25852,-1.12926 1.24219,0 2.25852,-0.50816 2.25852,-1.12926 0,-0.62109 1.01633,-1.12926 2.25852,-1.12926 1.24219,0 2.25852,-0.50816 2.25852,-1.12926 0,-0.62109 1.01633,-1.12926 2.25852,-1.12926 1.24218,0 2.25852,-0.50816 2.25852,-1.12925 0,-0.6211 1.01633,-1.12926 2.25851,-1.12926 1.24219,0 2.25852,-0.50817 2.25852,-1.12926 0,-0.6211 1.01633,-1.12926 2.25852,-1.12926 1.24218,0 2.25852,-0.50817 2.25852,-1.12926 0,-0.6211 1.01633,-1.12926 2.25852,-1.12926 1.24218,0 2.25852,-0.50817 2.25852,-1.12926 0,-0.6211 1.4127,-1.12926 3.1382,-1.12926 1.84296,0 3.81013,-0.93277 4.76661,-2.25852 0.8955,-1.24218 2.5318,-2.25852 3.63735,-2.25852 1.10441,0 2.00894,-0.50817 2.00894,-1.12925 0,-0.62109 1.41271,-1.12927 3.13822,-1.12927 1.84295,0 3.81011,-0.93277 4.7666,-2.25852 0.89551,-1.24218 2.42,-2.25851 3.38778,-2.25851 0.96778,0 2.49227,-1.01634 3.38777,-2.25852 0.95649,-1.32575 2.92365,-2.25852 4.76661,-2.25852 1.72551,0 3.13822,-0.50816 3.13822,-1.12926 0,-0.62109 1.4127,-1.12926 3.1382,-1.12926 1.84296,0 3.81013,-0.93276 4.76661,-2.25851 0.8955,-1.24219 2.53179,-2.25852 3.63734,-2.25852 1.10442,0 2.00895,-0.50817 2.00895,-1.12927 0,-0.62109 1.41271,-1.12925 3.13821,-1.12925 1.84295,0 3.81013,-0.93277 4.7666,-2.25852 0.89551,-1.24219 2.53181,-2.25852 3.63735,-2.25852 1.10441,0 2.00896,-0.50817 2.00896,-1.12926 0,-0.62109 1.01633,-1.12926 2.25852,-1.12926 1.24217,0 2.25852,-0.50817 2.25852,-1.12925 0,-0.6211 1.01633,-1.12927 2.25851,-1.12927 1.24218,0 2.25852,-0.50816 2.25852,-1.12925 0,-0.6211 1.01633,-1.12927 2.25852,-1.12927 1.24218,0 2.25851,-0.50816 2.25851,-1.12925 0,-0.6211 1.01634,-1.12927 2.25852,-1.12927 1.24219,0 2.25852,-0.50816 2.25852,-1.12925 0,-0.6211 1.01634,-1.12927 2.25852,-1.12927 1.24219,0 2.25852,-0.50816 2.25852,-1.12925 0,-0.6211 1.41271,-1.12927 3.13821,-1.12927 1.84295,0 3.81013,-0.93277 4.76661,-2.25852 0.8955,-1.24217 2.53179,-2.25851 3.63733,-2.25851 1.10443,0 2.00896,-0.50817 2.00896,-1.12926 0,-0.62109 0.90454,-1.12925 2.00895,-1.12925 1.10555,0 2.74185,-1.01634 3.63735,-2.25852 0.89551,-1.24219 2.5318,-2.25852 3.63734,-2.25852 1.10442,0 2.00896,-0.50817 2.00896,-1.12927 0,-0.62109 0.77918,-1.12925 1.73115,-1.12925 2.24835,0 9.56143,-7.31309 9.56143,-9.56145 0,-0.95196 0.50817,-1.73115 1.12927,-1.73115 0.62109,0 1.12925,-1.01633 1.12925,-2.25852 0,-1.24218 0.50817,-2.25852 1.12927,-2.25852 0.62109,0 1.12925,-2.03266 1.12925,-4.51703 0,-2.48437 0.50817,-4.51704 1.12927,-4.51704 0.70578,0 1.12925,-6.77555 1.12925,-18.06815 0,-11.29259 0.42348,-18.06815 1.12927,-18.06815 0.72385,0 1.12925,-10.53937 1.12925,-29.36074 0,-18.82137 0.4054,-29.36074 1.12927,-29.36074 0.7182,0 1.12925,-9.03407 1.12925,-24.8437 0,-15.80963 0.41105,-24.84371 1.12926,-24.84371 0.72498,0 1.12926,-10.7449 1.12926,-29.97618 V 88.820444 l -2.77233,-2.771197 c -1.5245,-1.524496 -3.55717,-2.772331 -4.51704,-2.772331 -1.24331,0 -1.74471,-1.14281 -1.74471,-3.98177 0,-5.007135 -8.352,-14.08638 -12.95711,-14.08638 -1.56855,0 -2.85251,-0.508166 -2.85251,-1.129259 0,-0.621092 -1.01634,-1.129259 -2.25852,-1.129259 -1.24219,0 -2.25852,-0.508168 -2.25852,-1.12926 0,-0.621093 -1.52451,-1.129259 -3.38778,-1.129259 -1.86328,0 -3.38778,-0.508167 -3.38778,-1.12926 0,-0.621092 -1.01633,-1.129258 -2.25852,-1.129258 -1.24218,0 -2.25852,-0.508167 -2.25852,-1.12926 0,-0.621093 -1.52449,-1.12926 -3.38777,-1.12926 -1.86328,0 -3.38778,-0.508166 -3.38778,-1.129258 0,-0.621093 -1.4127,-1.12926 -3.13822,-1.12926 -1.84294,0 -3.81011,-0.932768 -4.76659,-2.258519 -1.13378,-1.573057 -2.92365,-2.258518 -5.89587,-2.258518 -2.3466,0 -4.26747,-0.508167 -4.26747,-1.12926 0,-0.621092 -1.5245,-1.129258 -3.38778,-1.129258 -1.86328,0 -3.38777,-0.508167 -3.38777,-1.12926 0,-0.621093 -1.52451,-1.129259 -3.38779,-1.129259 -1.86327,0 -3.38777,-0.508167 -3.38777,-1.129259 0,-0.621093 -1.01633,-1.129259 -2.25852,-1.129259 -1.24219,0 -2.25852,-0.508167 -2.25852,-1.12926 0,-0.621092 -1.01633,-1.12926 -2.25852,-1.12926 -1.24219,0 -2.25852,-0.508166 -2.25852,-1.129258 0,-0.621093 -1.52449,-1.12926 -3.38777,-1.12926 -1.86328,0 -3.38779,-0.508166 -3.38779,-1.129259 0,-0.621092 -1.01633,-1.129259 -2.25851,-1.129259 -1.24218,0 -2.25851,-0.508167 -2.25851,-1.12926 0,-0.621093 -1.01634,-1.129259 -2.25852,-1.129259 -1.24219,0 -2.25852,-0.508167 -2.25852,-1.129259 0,-0.621093 -2.03267,-1.129259 -4.51704,-1.129259 -2.48438,0 -4.51704,-0.508167 -4.51704,-1.12926 0,-0.621092 -1.01633,-1.12926 -2.25852,-1.12926 -1.24219,0 -2.25852,-0.508166 -2.25852,-1.129258 0,-0.621093 -1.52449,-1.12926 -3.38777,-1.12926 -1.86328,0 -3.38778,-0.508166 -3.38778,-1.129259 0,-0.621092 -1.01634,-1.129259 -2.25852,-1.129259 -1.24218,0 -2.25852,-0.508166 -2.25852,-1.129259 0,-0.621093 -1.01633,-1.12926 -2.25852,-1.12926 -1.24218,0 -2.25852,-0.508167 -2.25852,-1.129259 0,-0.621093 -1.5245,-1.129259 -3.38777,-1.129259 -1.86328,0 -3.38778,-0.508167 -3.38778,-1.12926 0,-0.621092 -1.52451,-1.129259 -3.38778,-1.129259 -1.86328,0 -3.38778,-0.508167 -3.38778,-1.129259 0,-0.621093 -1.01633,-1.129259 -2.25851,-1.129259 -1.24219,0 -2.25852,-0.508167 -2.25852,-1.12926 0,-0.621092 -1.5245,-1.129259 -3.38778,-1.129259 -1.86329,0 -3.38778,-0.508167 -3.38778,-1.129259 0,-0.621093 -1.01633,-1.12926 -2.25852,-1.12926 -1.24219,0 -2.25852,-0.508166 -2.25852,-1.1292584 0,-0.621093 -1.5245,-1.1292596 -3.38777,-1.1292596 -1.86328,0 -3.38779,-0.5081665 -3.38779,-1.1292596 0,-0.621092 -2.54083,-1.1292596 -5.64629,-1.1292596 -3.10547,0 -5.64629,-0.5081665 -5.64629,-1.1292585 0,-0.6696507 -4.141,-1.1292596 -10.16334,-1.1292596 -6.02234,0 -10.16334,0.4596089 -10.16334,1.1292596 m 11.2926,13.5511107 c 0,0.621093 2.54083,1.12926 5.64629,1.12926 3.10547,0 5.64631,0.508166 5.64631,1.129259 0,0.621092 1.52449,1.129259 3.38777,1.129259 1.86328,0 3.38777,0.508167 3.38777,1.12926 0,0.621093 1.01634,1.129259 2.25852,1.129259 1.24219,0 2.25852,0.508167 2.25852,1.129259 0,0.621093 1.52451,1.129259 3.38779,1.129259 1.86327,0 3.38777,0.508167 3.38777,1.12926 0,0.621092 1.01633,1.129258 2.25852,1.129258 1.24219,0 2.25852,0.508168 2.25852,1.12926 0,0.621093 1.52449,1.12926 3.38777,1.12926 1.86329,0 3.38779,0.508166 3.38779,1.129259 0,0.621092 1.52449,1.129259 3.38777,1.129259 1.86328,0 3.38778,0.508166 3.38778,1.129259 0,0.621093 1.01633,1.12926 2.25852,1.12926 1.24218,0 2.25852,0.508167 2.25852,1.129259 0,0.621093 1.01633,1.129259 2.25852,1.129259 1.24218,0 2.25851,0.508167 2.25851,1.12926 0,0.621092 1.52451,1.129258 3.38778,1.129258 1.86328,0 3.38778,0.508168 3.38778,1.12926 0,0.621093 1.01633,1.12926 2.25852,1.12926 1.24218,0 2.25851,0.508166 2.25851,1.129259 0,0.621092 2.03268,1.129259 4.51704,1.129259 2.48437,0 4.51704,0.508166 4.51704,1.129259 0,0.621093 1.01633,1.12926 2.25852,1.12926 1.24219,0 2.25852,0.508166 2.25852,1.129258 0,0.621093 1.01633,1.12926 2.25852,1.12926 1.24218,0 2.25852,0.508167 2.25852,1.12926 0,0.621092 1.52449,1.129258 3.38777,1.129258 1.86328,0 3.38778,0.508168 3.38778,1.12926 0,0.621093 1.01634,1.129259 2.25851,1.129259 1.24219,0 2.25852,0.508167 2.25852,1.12926 0,0.621092 1.01635,1.129258 2.25852,1.129258 1.24219,0 2.25852,0.508167 2.25852,1.12926 0,0.621093 1.52451,1.12926 3.38779,1.12926 1.86327,0 3.38777,0.508166 3.38777,1.129258 0,0.621093 1.5245,1.12926 3.38777,1.12926 1.86329,0 3.38779,0.508166 3.38779,1.129259 0,0.621092 1.92086,1.12926 4.26746,1.12926 2.97222,0 4.76209,0.68546 5.89587,2.258518 0.95648,1.32575 2.92365,2.258518 4.76661,2.258518 1.7255,0 3.1382,0.508167 3.1382,1.12926 0,0.621093 1.52451,1.12926 3.38778,1.12926 1.86328,0 3.38778,0.508166 3.38778,1.129258 0,0.621093 1.01633,1.12926 2.25852,1.12926 1.24219,0 2.25852,0.508166 2.25852,1.129259 0,0.621092 1.52449,1.12926 3.38778,1.12926 1.86328,0 3.38777,0.508166 3.38777,1.129258 0,0.621093 -1.01633,1.12926 -2.25852,1.12926 -1.24218,0 -2.25851,0.508167 -2.25851,1.12926 0,0.621092 -1.01634,1.129258 -2.25852,1.129258 -1.24219,0 -2.25852,0.508167 -2.25852,1.12926 0,0.621093 -1.5245,1.129259 -3.38778,1.129259 -1.86327,0 -3.38778,0.508167 -3.38778,1.129255 0,0.621099 -1.01633,1.129265 -2.25852,1.129265 -1.24218,0 -2.25852,0.508165 -2.25852,1.129254 0,0.621099 -1.5245,1.129265 -3.38777,1.129265 -1.86328,0 -3.38778,0.508165 -3.38778,1.129254 0,0.621099 -1.01634,1.129265 -2.25851,1.129265 -1.24219,0 -2.25852,0.508165 -2.25852,1.129254 0,0.6211 -1.01634,1.129265 -2.25852,1.129265 -1.24219,0 -2.25852,0.508166 -2.25852,1.129254 0,0.6211 -1.5245,1.129265 -3.38779,1.129265 -1.86327,0 -3.38777,0.508166 -3.38777,1.129255 0,0.621099 -1.01633,1.129265 -2.25852,1.129265 -1.24219,0 -2.25852,0.508165 -2.25852,1.129254 0,0.621089 -1.5245,1.129265 -3.38777,1.129265 -1.86328,0 -3.38779,0.508165 -3.38779,1.129254 0,0.621089 -1.01633,1.129254 -2.25852,1.129254 -1.24217,0 -2.25851,0.508176 -2.25851,1.129261 0,0.62109 -1.01634,1.12926 -2.25851,1.12926 -1.24219,0 -2.25852,0.50817 -2.25852,1.12926 0,0.62109 -1.52451,1.12926 -3.38779,1.12926 -1.86327,0 -3.38777,0.50816 -3.38777,1.12926 0,0.62109 -1.01633,1.12926 -2.25852,1.12926 -1.24219,0 -2.25852,0.50816 -2.25852,1.12926 0,0.62109 -1.52449,1.12926 -3.38778,1.12926 -1.86328,0 -3.38778,0.50816 -3.38778,1.12926 0,0.62109 -1.01633,1.12926 -2.25852,1.12926 -1.24218,0 -2.25851,0.50816 -2.25851,1.12926 0,0.62109 -1.01634,1.12925 -2.25852,1.12925 -1.24218,0 -2.25852,0.50817 -2.25852,1.12927 0,0.62109 -1.5245,1.12925 -3.38778,1.12925 -1.86327,0 -3.38777,0.50817 -3.38777,1.12927 0,0.62109 -1.01634,1.12925 -2.25852,1.12925 -1.24219,0 -2.25852,0.50817 -2.25852,1.12926 0,0.6211 -1.52451,1.12926 -3.38778,1.12926 -1.86328,0 -3.38778,0.50817 -3.38778,1.12926 0,0.6211 -1.01633,1.12926 -2.25851,1.12926 -1.24219,0 -2.25852,0.50817 -2.25852,1.12926 0,0.6211 -1.01634,1.12926 -2.25852,1.12926 -1.24219,0 -2.25852,0.50817 -2.25852,1.12925 0,0.6211 -1.5245,1.12927 -3.38778,1.12927 -1.86327,0 -3.38778,0.50817 -3.38778,1.12925 0,0.6211 -1.5245,1.12927 -3.38777,1.12927 -1.86328,0 -3.38779,0.50816 -3.38779,1.12925 0,0.6211 -1.52449,1.12927 -3.38777,1.12927 -1.86328,0 -3.38777,0.50816 -3.38777,1.12925 0,0.62109 -1.52451,1.12927 -3.38779,1.12927 -1.86328,0 -3.38777,0.50816 -3.38777,1.12925 0,0.62109 -2.03268,1.12927 -4.51704,1.12927 -2.48438,0 -4.51704,0.50816 -4.51704,1.12925 0,0.62109 -1.01633,1.12926 -2.25852,1.12926 -1.24219,0 -2.25852,-0.50817 -2.25852,-1.12926 0,-0.62109 -1.52449,-1.12925 -3.38777,-1.12925 -1.86328,0 -3.38779,-0.50818 -3.38779,-1.12927 0,-0.62109 -1.52449,-1.12925 -3.38777,-1.12925 -1.86328,0 -3.38778,-0.50818 -3.38778,-1.12927 0,-0.62109 -1.4127,-1.12925 -3.13821,-1.12925 -1.84295,0 -3.81012,-0.93277 -4.7666,-2.25852 -0.95649,-1.32575 -2.92365,-2.25852 -4.7666,-2.25852 -1.72552,0 -3.13822,-0.50817 -3.13822,-1.12927 0,-0.62108 -1.01633,-1.12925 -2.25852,-1.12925 -1.24218,0 -2.25852,-0.50816 -2.25852,-1.12926 0,-0.62109 -1.01633,-1.12926 -2.25851,-1.12926 -1.24219,0 -2.25852,-0.50816 -2.25852,-1.12926 0,-0.62109 -1.5245,-1.12926 -3.38778,-1.12926 -1.86327,0 -3.38778,-0.50816 -3.38778,-1.12926 0,-0.62109 -1.01633,-1.12926 -2.25852,-1.12926 -1.24218,0 -2.25852,-0.50816 -2.25852,-1.12925 0,-0.6211 -1.5245,-1.12927 -3.38777,-1.12927 -1.86328,0 -3.38778,-0.50816 -3.38778,-1.12925 0,-0.6211 -1.01634,-1.12927 -2.25852,-1.12927 -1.24218,0 -2.25851,-0.50816 -2.25851,-1.12925 0,-0.6211 -1.01635,-1.12926 -2.25852,-1.12926 -1.24219,0 -2.25852,-0.50817 -2.25852,-1.12926 0,-0.6211 -1.5245,-1.12926 -3.38779,-1.12926 -1.86327,0 -3.38777,-0.50817 -3.38777,-1.12926 0,-0.6211 -1.01633,-1.12926 -2.25852,-1.12926 -1.24219,0 -2.25852,-0.50817 -2.25852,-1.12926 0,-0.6211 -1.5245,-1.12926 -3.38777,-1.12926 -1.86328,0 -3.38779,-0.50817 -3.38779,-1.12926 0,-0.62109 -1.01633,-1.12926 -2.25852,-1.12926 -1.24217,0 -2.25852,-0.50817 -2.25852,-1.12926 0,-0.621085 -1.01633,-1.129261 -2.25851,-1.129261 -1.24218,0 -2.25851,-0.508165 -2.25851,-1.129254 0,-0.621089 -1.52451,-1.129254 -3.387787,-1.129254 -1.863277,0 -3.387774,-0.508176 -3.387774,-1.129265 0,-0.621089 -1.016331,-1.129254 -2.258519,-1.129254 -1.242188,0 -2.258519,-0.508166 -2.258519,-1.129265 0,-0.621089 -1.524497,-1.129255 -3.387784,-1.129255 -1.863277,0 -3.387774,-0.508165 -3.387774,-1.129265 0,-0.621088 -1.016331,-1.129254 -2.258518,-1.129254 -1.242185,0 -2.258518,-0.508165 -2.258518,-1.129265 0,-0.621089 -1.524501,-1.129254 -3.387779,-1.129254 -1.863277,0 -3.387778,-0.508166 -3.387778,-1.129265 0,-0.621089 -1.016333,-1.129254 -2.258518,-1.129254 -1.242185,0 -2.258518,-0.508166 -2.258518,-1.129265 0,-0.621089 -1.016334,-1.129254 -2.258519,-1.129254 -1.242185,0 -2.258518,-0.508166 -2.258518,-1.129265 0,-0.621088 -1.524501,-1.129255 -3.387778,-1.129255 -1.863278,0 -3.387779,-0.508166 -3.387779,-1.129259 0,-0.621093 -1.016333,-1.12926 -2.258518,-1.12926 -1.242185,0 -2.258518,-0.508166 -2.258518,-1.129258 0,-0.621093 -1.524501,-1.12926 -3.387778,-1.12926 -1.863278,0 -3.387779,-0.508167 -3.387779,-1.12926 0,-0.621092 2.032668,-1.129258 4.517038,-1.129258 2.484371,0 4.517037,-0.508168 4.517037,-1.12926 0,-0.621093 1.016333,-1.129259 2.258518,-1.129259 1.242186,0 2.258519,-0.508167 2.258519,-1.12926 0,-0.621092 1.5245,-1.129258 3.387778,-1.129258 1.863278,0 3.387778,-0.508167 3.387778,-1.12926 0,-0.621093 1.412704,-1.12926 3.138212,-1.12926 1.842951,0 3.81012,-0.932768 4.766603,-2.258518 1.133776,-1.573058 2.923652,-2.258518 5.895863,-2.258518 2.346601,0 4.26747,-0.508168 4.26747,-1.12926 0,-0.621093 1.524497,-1.129259 3.387774,-1.129259 1.863287,0 3.387784,-0.508167 3.387784,-1.12926 0,-0.621092 1.524496,-1.129258 3.387773,-1.129258 1.863277,0 3.387784,-0.508167 3.387784,-1.12926 0,-0.621093 1.016331,-1.12926 2.25852,-1.12926 1.242182,0 2.258522,-0.508166 2.258522,-1.129258 0,-0.621093 1.01633,-1.12926 2.25851,-1.12926 1.24218,0 2.25851,-0.508166 2.25851,-1.129259 0,-0.621092 1.52451,-1.12926 3.38779,-1.12926 1.86328,0 3.38777,-0.508166 3.38777,-1.129258 0,-0.621093 1.41271,-1.12926 3.13822,-1.12926 1.84294,0 3.81012,-0.932768 4.7666,-2.258518 1.13378,-1.573059 2.92365,-2.258519 5.89586,-2.258519 2.3466,0 4.26748,-0.508167 4.26748,-1.129259 0,-0.621093 1.01633,-1.129259 2.25852,-1.129259 1.24217,0 2.25851,-0.508167 2.25851,-1.12926 0,-0.621092 2.03267,-1.12926 4.51704,-1.12926 2.48437,0 4.51703,-0.508166 4.51703,-1.129258 0,-0.621093 1.01634,-1.12926 2.25852,-1.12926 1.24219,0 2.25852,-0.508166 2.25852,-1.129259 0,-0.621092 1.01634,-1.129259 2.25852,-1.129259 1.24219,0 2.25852,-0.508167 2.25852,-1.12926 0,-0.621093 1.5245,-1.129259 3.38778,-1.129259 1.86328,0 3.38777,-0.508167 3.38777,-1.129259 0,-0.621093 1.01634,-1.129259 2.25852,-1.129259 1.24219,0 2.25852,-0.508167 2.25852,-1.12926 0,-0.621092 1.01633,-1.12926 2.25852,-1.12926 1.24219,0 2.25852,-0.508166 2.25852,-1.129258 0,-0.621093 2.03266,-1.12926 4.51704,-1.12926 2.48437,0 4.51704,-0.508166 4.51704,-1.129259 0,-0.621092 1.01633,-1.129259 2.25851,-1.129259 1.24219,0 2.25852,-0.508166 2.25852,-1.129259 0,-0.621093 1.5245,-1.12926 3.38778,-1.12926 1.86328,0 3.38777,-0.508167 3.38777,-1.129259 0,-0.621093 2.03268,-1.129259 4.51704,-1.129259 2.48438,0 4.51704,-0.508167 4.51704,-1.12926 0,-0.621092 0.50817,-1.129259 1.12926,-1.129259 0.62109,0 1.12926,0.508167 1.12926,1.129259 M 372.5046,95.698766 c 0,0.621089 1.01634,1.129265 2.25852,1.129265 2.17947,0 2.25851,0.753215 2.25851,21.455919 0,13.55111 -0.41555,21.45592 -1.12925,21.45592 -0.71482,0 -1.12926,8.28087 -1.12926,22.5852 0,14.30433 -0.41444,22.58518 -1.12926,22.58518 -0.72611,0 -1.12926,11.29259 -1.12926,31.61926 0,20.32667 -0.40314,31.61927 -1.12926,31.61927 -0.70578,0 -1.12926,6.77554 -1.12926,18.06814 0,11.29259 -0.42347,18.06815 -1.12926,18.06815 -0.62109,0 -1.12925,2.03266 -1.12925,4.51703 0,2.48438 -0.50818,4.51704 -1.12927,4.51704 -0.62109,0 -1.12925,1.01634 -1.12925,2.25852 0,1.24219 -0.50818,2.25852 -1.12927,2.25852 -0.62108,0 -1.12925,0.79839 -1.12925,1.77406 0,2.28224 -2.71926,5.00149 -5.00149,5.00149 -0.97569,0 -1.77407,0.50817 -1.77407,1.12927 0,0.62109 -0.90454,1.12925 -2.00896,1.12925 -1.10554,0 -2.74183,1.01633 -3.63734,2.25852 -0.8955,1.24219 -2.53179,2.25852 -3.63733,2.25852 -1.10443,0 -2.00896,0.50817 -2.00896,1.12926 0,0.6211 -0.90454,1.12926 -2.00895,1.12926 -1.10555,0 -2.74185,1.01633 -3.63735,2.25852 -0.95648,1.32575 -2.92365,2.25852 -4.76661,2.25852 -1.7255,0 -3.13821,0.50816 -3.13821,1.12925 0,0.6211 -1.01633,1.12927 -2.25851,1.12927 -1.24219,0 -2.25852,0.50816 -2.25852,1.12925 0,0.62109 -1.01634,1.12927 -2.25852,1.12927 -1.24218,0 -2.25851,0.50816 -2.25851,1.12925 0,0.62109 -1.01635,1.12927 -2.25852,1.12927 -1.24219,0 -2.25852,0.50816 -2.25852,1.12925 0,0.62109 -1.01633,1.12926 -2.25852,1.12926 -1.24219,0 -2.25852,0.50817 -2.25852,1.12926 0,0.62109 -1.01633,1.12925 -2.25852,1.12925 -1.24219,0 -2.25852,0.50818 -2.25852,1.12927 0,0.62109 -1.01633,1.12925 -2.25852,1.12925 -1.24219,0 -2.25852,0.50817 -2.25852,1.12927 0,0.62109 -1.4127,1.12925 -3.13821,1.12925 -1.84295,0 -3.81012,0.93277 -4.7666,2.25852 -0.8955,1.24219 -2.42001,2.25852 -3.38778,2.25852 -0.96777,0 -2.49228,1.01633 -3.38778,2.25852 -0.95648,1.32575 -2.92365,2.25852 -4.7666,2.25852 -1.72551,0 -3.13821,0.50817 -3.13821,1.12926 0,0.62109 -1.41271,1.12926 -3.13821,1.12926 -1.84295,0 -3.81013,0.93277 -4.76661,2.25852 -0.8955,1.24219 -2.42,2.25852 -3.38778,2.25852 -0.96777,0 -2.49227,1.01633 -3.38777,2.25852 -0.95648,1.32575 -2.92366,2.25852 -4.76661,2.25852 -1.7255,0 -3.13821,0.50816 -3.13821,1.12925 0,0.6211 -0.90453,1.12926 -2.00895,1.12926 -1.10554,0 -2.74185,1.01634 -3.63734,2.25852 -0.95649,1.32575 -2.92365,2.25852 -4.7666,2.25852 -1.72552,0 -3.13822,0.50817 -3.13822,1.12926 0,0.62109 -1.01633,1.12926 -2.25852,1.12926 -1.24218,0 -2.25851,0.50817 -2.25851,1.12926 0,0.62109 -1.01634,1.12925 -2.25852,1.12925 -1.24219,0 -2.25852,0.50818 -2.25852,1.12927 0,0.62108 -1.01633,1.12925 -2.25852,1.12925 -1.24219,0 -2.25852,0.50818 -2.25852,1.12927 0,0.62108 -1.01633,1.12925 -2.25852,1.12925 -1.24219,0 -2.25852,0.50817 -2.25852,1.12926 0,0.62109 -1.01633,1.12926 -2.25852,1.12926 -1.24218,0 -2.25852,0.50816 -2.25852,1.12926 0,0.62109 -1.01633,1.12926 -2.25852,1.12926 -1.24218,0 -2.25852,0.50816 -2.25852,1.12926 0,0.62109 -1.01633,1.12926 -2.25851,1.12926 -1.5053,0 -2.25851,-0.75322 -2.25851,-2.25852 0,-1.24218 -0.50818,-2.25852 -1.12927,-2.25852 -0.62109,0 -1.12925,-2.54083 -1.12925,-5.64629 0,-3.10547 -0.50817,-5.6463 -1.12927,-5.6463 -0.73741,0 -1.12925,-19.57345 -1.12925,-56.46297 0,-36.88951 -0.39186,-56.46295 -1.12927,-56.46295 -0.73176,0 -1.12925,-13.92716 -1.12925,-39.52409 0,-25.59691 -0.39751,-39.52407 -1.12927,-39.52407 -1.73227,0 -1.34043,-7.85513 0.48445,-9.67889 0.88648,-0.88759 2.41098,-1.6137 3.38779,-1.6137 0.97567,0 1.77407,-0.50817 1.77407,-1.12927 0,-0.62109 2.03266,-1.12925 4.51703,-1.12925 2.48437,0 4.51703,-0.50817 4.51703,-1.12926 0,-0.62109 1.52451,-1.12926 3.38779,-1.12926 1.86327,0 3.38777,-0.50817 3.38777,-1.12925 0,-0.6211 1.52451,-1.12927 3.38778,-1.12927 1.86328,0 3.38778,-0.50817 3.38778,-1.12925 0,-0.6211 1.52449,-1.12927 3.38777,-1.12927 1.86329,0 3.38779,-0.50816 3.38779,-1.12925 0,-0.6211 1.52449,-1.12927 3.38777,-1.12927 1.86328,0 3.38778,-0.50816 3.38778,-1.12925 0,-0.6211 1.01633,-1.12927 2.25852,-1.12927 1.24218,0 2.25852,-0.50816 2.25852,-1.12925 0,-0.6211 1.01633,-1.12927 2.25852,-1.12927 1.24218,0 2.25851,-0.50816 2.25851,-1.12925 0,-0.62109 1.52451,-1.12927 3.38778,-1.12927 1.86328,0 3.38778,-0.50816 3.38778,-1.12925 0,-0.62109 1.01633,-1.12926 2.25852,-1.12926 1.24218,0 2.25851,-0.50817 2.25851,-1.12926 0,-0.62109 1.5245,-1.12925 3.38779,-1.12925 1.86328,0 3.38777,-0.50818 3.38777,-1.12927 0,-0.62109 1.01633,-1.12925 2.25852,-1.12925 1.24219,0 2.25852,-0.50818 2.25852,-1.12927 0,-0.62109 1.01633,-1.12925 2.25852,-1.12925 1.24219,0 2.25852,-0.50817 2.25852,-1.12927 0,-0.62109 1.5245,-1.12925 3.38777,-1.12925 1.86328,0 3.38779,-0.50817 3.38779,-1.12927 0,-0.62108 1.01633,-1.12925 2.25851,-1.12925 1.24218,0 2.25851,-0.50817 2.25851,-1.12927 0,-0.62108 1.52451,-1.12925 3.38779,-1.12925 1.86328,0 3.38777,-0.50816 3.38777,-1.12926 0,-0.62109 1.01633,-1.12926 2.25852,-1.12926 1.24219,0 2.25852,-0.50816 2.25852,-1.12926 0,-0.62109 1.01633,-1.12926 2.25852,-1.12926 1.24219,0 2.25852,-0.50816 2.25852,-1.12926 0,-0.62109 1.5245,-1.12926 3.38777,-1.12926 1.86328,0 3.38779,-0.50816 3.38779,-1.12925 0,-0.6211 1.01633,-1.12927 2.25852,-1.12927 1.24217,0 2.25852,-0.50816 2.25852,-1.12925 0,-0.6211 1.52449,-1.12927 3.38777,-1.12927 1.86328,0 3.38778,-0.50816 3.38778,-1.12925 0,-0.6211 1.01633,-1.12926 2.25851,-1.12926 1.24219,0 2.25852,-0.50817 2.25852,-1.12926 0,-0.6211 1.01634,-1.12926 2.25852,-1.12926 1.24219,0 2.25852,-0.50817 2.25852,-1.12926 0,-0.6211 1.52451,-1.12926 3.38778,-1.12926 1.86328,0 3.38778,-0.50817 3.38778,-1.12926 0,-0.6211 1.01633,-1.12926 2.25852,-1.12926 1.24218,0 2.25851,-0.50817 2.25851,-1.12926 0,-0.62109 1.5245,-1.12926 3.38778,-1.12926 1.86328,0 3.38778,-0.50817 3.38778,-1.12926 0,-0.621085 1.01633,-1.129261 2.25852,-1.129261 1.24218,0 2.25852,-0.508165 2.25852,-1.129254 0,-0.621089 1.5245,-1.129254 3.38777,-1.129254 1.86328,0 3.38779,-0.508176 3.38779,-1.129265 0,-0.621089 1.01633,-1.129254 2.25851,-1.129254 1.24219,0 2.25852,0.508165 2.25852,1.129254 M 38.243852,97.957285 c 0,0.621089 1.016333,1.129254 2.258519,1.129254 1.242185,0 2.258518,0.508176 2.258518,1.129261 0,0.62109 1.5245,1.12926 3.387778,1.12926 1.863278,0 3.387778,0.50817 3.387778,1.12926 0,0.62109 1.016334,1.12926 2.258519,1.12926 1.242185,0 2.258518,0.50816 2.258518,1.12926 0,0.62109 1.016333,1.12926 2.258518,1.12926 1.242186,0 2.258519,0.50816 2.258519,1.12926 0,0.62109 1.5245,1.12926 3.387778,1.12926 1.863278,0 3.387778,0.50816 3.387778,1.12926 0,0.62109 1.016333,1.12926 2.258519,1.12926 1.242185,0 2.258518,0.50816 2.258518,1.12926 0,0.62109 1.5245,1.12925 3.387778,1.12925 1.863278,0 3.387778,0.50817 3.387778,1.12927 0,0.62109 1.016333,1.12925 2.258519,1.12925 1.242185,0 2.258518,0.50817 2.258518,1.12927 0,0.62109 1.524495,1.12925 3.387783,1.12925 1.863277,0 3.387774,0.50817 3.387774,1.12926 0,0.6211 1.016331,1.12926 2.258519,1.12926 1.242188,0 2.258519,0.50817 2.258519,1.12926 0,0.6211 1.016331,1.12926 2.258519,1.12926 1.242178,0 2.258519,0.50817 2.258519,1.12926 0,0.6211 1.524497,1.12926 3.387772,1.12926 1.86328,0 3.38778,0.50817 3.38778,1.12925 0,0.6211 1.01634,1.12927 2.25851,1.12927 1.24219,0 2.25852,0.50817 2.25852,1.12925 0,0.6211 1.52451,1.12927 3.38779,1.12927 1.86327,0 3.38777,0.50816 3.38777,1.12925 0,0.6211 1.01633,1.12927 2.25852,1.12927 1.24219,0 2.25852,0.50816 2.25852,1.12925 0,0.62109 1.01633,1.12927 2.25852,1.12927 1.24219,0 2.25852,0.50816 2.25852,1.12925 0,0.62109 1.52449,1.12927 3.38777,1.12927 1.86328,0 3.38779,0.50816 3.38779,1.12925 0,0.62109 1.01633,1.12926 2.25852,1.12926 1.24217,0 2.25851,0.50817 2.25851,1.12926 0,0.62109 1.5245,1.12925 3.38778,1.12925 1.86327,0 3.38777,0.50818 3.38777,1.12927 0,0.62109 1.01634,1.12925 2.25852,1.12925 1.24219,0 2.25852,0.50817 2.25852,1.12927 0,0.62109 1.01634,1.12925 2.25852,1.12925 1.24219,0 2.25852,0.50817 2.25852,1.12927 0,0.62109 1.41271,1.12925 3.13821,1.12925 1.84295,0 3.81013,0.93277 4.76661,2.25852 0.95647,1.32575 2.92365,2.25852 4.7666,2.25852 1.7255,0 3.13821,0.50817 3.13821,1.12927 0,0.62108 1.5245,1.12925 3.38778,1.12925 1.86327,0 3.38778,0.50817 3.38778,1.12926 0,0.62109 1.30655,1.12926 2.90332,1.12926 4.53511,0 6.13075,2.47759 6.13075,9.51853 0,3.46005 0.50817,6.2911 1.12926,6.2911 0.62109,0 1.12926,2.54083 1.12926,5.6463 0,3.10546 0.50816,5.64629 1.12926,5.64629 0.73176,0 1.12925,13.92715 1.12925,39.52408 0,25.59691 0.39751,39.52407 1.12927,39.52407 1.98072,0 1.5053,113.84063 -0.48445,115.82926 -1.84973,1.85085 -5.16185,2.1614 -5.16185,0.48445 0,-0.6211 -1.01633,-1.12926 -2.25852,-1.12926 -1.24218,0 -2.25851,-0.50817 -2.25851,-1.12926 0,-0.6211 -1.01634,-1.12926 -2.25852,-1.12926 -1.24219,0 -2.25852,-0.50817 -2.25852,-1.12926 0,-0.6211 -1.01634,-1.12926 -2.25852,-1.12926 -1.24219,0 -2.25852,-0.50817 -2.25852,-1.12926 0,-0.62109 -1.01633,-1.12926 -2.25852,-1.12926 -1.24219,0 -2.25852,-0.50817 -2.25852,-1.12925 0,-0.62109 -1.01633,-1.12927 -2.25852,-1.12927 -1.24218,0 -2.25852,-0.50817 -2.25852,-1.12925 0,-0.62109 -1.01633,-1.12927 -2.25851,-1.12927 -1.24219,0 -2.25852,-0.50816 -2.25852,-1.12925 0,-0.62109 -1.01633,-1.12926 -2.25852,-1.12926 -1.24219,0 -2.25852,-0.50817 -2.25852,-1.12926 0,-0.62109 -1.01633,-1.12926 -2.25852,-1.12926 -1.24218,0 -2.25852,-0.50817 -2.25852,-1.12926 0,-0.62109 -1.01633,-1.12926 -2.25852,-1.12926 -1.24218,0 -2.25852,-0.50816 -2.25852,-1.12926 0,-0.62109 -1.01633,-1.12926 -2.25851,-1.12926 -1.24219,0 -2.25852,-0.50816 -2.25852,-1.12926 0,-0.62109 -1.01634,-1.12925 -2.25852,-1.12925 -1.24218,0 -2.25851,-0.50817 -2.25851,-1.12927 0,-0.62109 -1.01635,-1.12925 -2.25852,-1.12925 -1.24219,0 -2.25852,-0.50817 -2.25852,-1.12927 0,-0.62109 -1.01633,-1.12925 -2.25852,-1.12925 -1.24219,0 -2.25852,-0.50817 -2.25852,-1.12927 0,-0.62109 -1.01633,-1.12925 -2.25852,-1.12925 -1.24219,0 -2.25852,-0.50817 -2.25852,-1.12927 0,-0.62109 -1.01633,-1.12925 -2.25852,-1.12925 -1.24219,0 -2.25852,-0.50817 -2.25852,-1.12926 0,-0.62109 -1.01633,-1.12926 -2.25852,-1.12926 -1.24218,0 -2.25852,-0.50817 -2.25852,-1.12925 0,-0.6211 -1.01633,-1.12927 -2.25852,-1.12927 -1.24217,0 -2.25852,-0.50816 -2.25852,-1.12925 0,-0.6211 -1.01633,-1.12927 -2.25851,-1.12927 -1.24218,0 -2.25851,-0.50816 -2.25851,-1.12925 0,-0.6211 -1.01634,-1.12927 -2.258522,-1.12927 -1.242189,0 -2.25852,-0.50816 -2.25852,-1.12925 0,-0.6211 -1.016341,-1.12927 -2.258519,-1.12927 -1.242188,0 -2.258519,-0.50816 -2.258519,-1.12925 0,-0.6211 -1.016331,-1.12927 -2.258519,-1.12927 -1.242188,0 -2.258519,-0.50816 -2.258519,-1.12925 0,-0.62109 -1.016331,-1.12927 -2.25852,-1.12927 -1.242188,0 -2.258519,-0.50816 -2.258519,-1.12925 0,-0.62109 -1.016331,-1.12926 -2.258518,-1.12926 -1.242185,0 -2.258518,-0.50817 -2.258518,-1.12926 0,-0.62109 -1.016334,-1.12925 -2.258519,-1.12925 -1.242185,0 -2.258518,-0.50818 -2.258518,-1.12927 0,-0.62109 -1.016335,-1.12925 -2.25852,-1.12925 -1.242185,0 -2.258518,-0.50818 -2.258518,-1.12927 0,-0.62109 -1.016333,-1.12925 -2.258518,-1.12925 -1.242186,0 -2.258519,-0.50817 -2.258519,-1.12927 0,-0.62109 -1.016333,-1.12925 -2.258518,-1.12925 -1.242185,0 -2.258519,-0.50817 -2.258519,-1.12927 0,-0.62108 -1.016334,-1.12925 -2.258519,-1.12925 -1.242185,0 -2.258519,-0.50817 -2.258519,-1.12927 0,-0.62108 -0.904536,-1.12925 -2.008952,-1.12925 -1.105544,0 -2.741841,-1.01633 -3.637344,-2.25852 -0.895502,-1.24219 -2.531799,-2.25852 -3.637343,-2.25852 -1.104417,0 -2.008954,-0.50816 -2.008954,-1.12926 0,-0.62109 -0.779189,-1.12926 -1.731154,-1.12926 -2.248355,0 -9.561439,-7.31308 -9.561439,-9.56143 0,-0.95197 -0.508166,-1.73116 -1.129258,-1.73116 -0.621093,0 -1.12926,-1.01633 -1.12926,-2.25852 0,-1.24218 -0.508166,-2.25852 -1.129259,-2.25852 -0.621092,0 -1.129259,-2.54083 -1.129259,-5.64629 0,-3.10547 -0.508166,-5.6463 -1.129259,-5.6463 -0.735148,0 -1.12926,-16.56285 -1.12926,-47.42889 0,-30.86604 -0.394112,-47.42889 -1.129259,-47.42889 -0.722726,0 -1.129259,-10.16333 -1.129259,-28.23149 0,-18.06814 -0.406534,-28.23147 -1.12926,-28.23147 -0.689977,0 -1.129259,-5.27025 -1.129259,-13.55112 0,-8.28086 0.439282,-13.55111 1.129259,-13.55111 0.621093,0 1.12926,-1.01633 1.12926,-2.258521 0,-2.007822 0.753216,-2.258508 6.775555,-2.258508 3.763822,0 6.775556,0.501382 6.775556,1.129254"
       id="path0" />
  </g>
</svg>
