<svg version="1.1" width="515" height="515" xmlns="http://www.w3.org/2000/svg">
<g>
<path d="M257.500 48.977 C 250.350 49.421,242.475 50.271,240.000 50.867 C 237.525 51.463,233.972 51.962,232.104 51.976 C 228.004 52.005,207.723 56.541,193.000 60.722 C 180.198 64.357,177.354 65.269,174.669 66.598 C 173.112 67.369,171.215 68.000,170.453 68.000 C 169.691 68.000,167.365 68.725,165.284 69.611 C 163.203 70.497,159.925 71.892,158.000 72.710 C 150.444 75.925,148.120 76.993,137.500 82.133 C 131.450 85.061,126.350 87.804,126.167 88.228 C 125.983 88.653,125.257 89.000,124.552 89.000 C 123.847 89.000,122.197 89.841,120.885 90.869 C 119.573 91.897,116.925 93.617,115.000 94.690 C 107.711 98.752,105.012 100.524,105.006 101.250 C 105.003 101.662,104.516 102.000,103.924 102.000 C 103.332 102.000,100.216 104.025,97.000 106.500 C 93.784 108.975,90.668 111.000,90.076 111.000 C 89.484 111.000,89.000 111.374,89.000 111.830 C 89.000 112.287,86.863 114.191,84.250 116.061 C 81.638 117.932,78.023 120.933,76.217 122.731 C 74.411 124.529,72.536 126.000,72.050 126.000 C 71.564 126.000,71.017 126.418,70.833 126.930 C 70.650 127.441,65.539 132.954,59.475 139.180 C 53.412 145.406,46.923 152.637,45.056 155.250 C 43.189 157.863,41.287 160.000,40.830 160.000 C 40.374 160.000,40.000 160.675,40.000 161.500 C 40.000 162.325,39.663 163.008,39.250 163.019 C 38.837 163.029,37.150 165.271,35.500 168.000 C 33.850 170.729,32.163 172.971,31.750 172.981 C 31.337 172.992,31.000 173.497,31.000 174.105 C 31.000 174.713,29.650 177.210,28.000 179.655 C 26.350 182.100,25.000 184.496,25.000 184.979 C 25.000 185.462,24.437 186.456,23.750 187.187 C 21.925 189.129,12.000 209.665,12.000 211.500 C 12.000 211.884,11.393 213.616,10.652 215.349 C 3.524 232.009,-0.002 252.515,-0.001 277.303 C -0.000 296.514,0.552 301.694,4.122 316.000 C 4.740 318.475,5.596 322.075,6.024 324.000 C 7.182 329.197,10.240 337.381,13.622 344.331 C 14.380 345.888,15.000 347.625,15.000 348.191 C 15.000 351.270,37.198 385.000,39.224 385.000 C 39.651 385.000,40.000 385.584,40.000 386.297 C 40.000 387.010,41.331 388.698,42.958 390.047 C 44.584 391.396,45.934 392.838,45.958 393.251 C 46.008 394.145,51.963 399.952,58.468 405.452 C 61.040 407.625,64.224 410.405,65.546 411.630 C 66.867 412.854,69.309 414.660,70.974 415.644 C 72.638 416.627,74.000 417.784,74.000 418.216 C 74.000 418.647,74.675 419.000,75.500 419.000 C 76.325 419.000,77.000 419.377,77.000 419.839 C 77.000 420.607,87.483 427.716,91.000 429.332 C 91.825 429.712,93.850 430.885,95.500 431.941 C 104.407 437.637,126.949 447.590,140.000 451.589 C 143.025 452.516,146.978 453.888,148.784 454.637 C 150.590 455.387,152.801 456.000,153.696 456.000 C 154.592 456.000,157.614 456.643,160.412 457.429 C 201.426 468.946,260.111 468.948,306.250 457.435 C 309.413 456.646,314.813 455.299,318.250 454.441 C 321.688 453.584,325.850 452.420,327.500 451.854 C 329.150 451.287,331.850 450.453,333.500 450.000 C 338.149 448.723,343.238 446.857,346.154 445.361 C 347.614 444.613,349.346 444.000,350.003 444.000 C 350.660 444.000,352.841 443.279,354.849 442.398 C 356.857 441.517,359.400 440.434,360.500 439.993 C 366.800 437.461,392.405 424.278,397.500 420.942 C 400.800 418.781,404.175 416.703,405.000 416.324 C 407.290 415.272,412.458 411.595,412.833 410.750 C 413.017 410.337,413.767 410.000,414.500 410.000 C 415.233 410.000,415.983 409.644,416.167 409.208 C 416.350 408.773,419.313 406.457,422.750 404.063 C 426.188 401.669,429.000 399.325,429.000 398.855 C 429.000 398.385,429.407 398.000,429.904 398.000 C 431.040 398.000,436.551 393.312,444.892 385.250 C 448.448 381.813,451.727 379.000,452.179 379.000 C 452.631 379.000,453.000 378.569,453.000 378.043 C 453.000 377.517,455.363 374.692,458.250 371.766 C 464.878 365.049,467.302 362.195,473.764 353.500 C 476.625 349.650,479.424 345.956,479.983 345.292 C 480.542 344.628,481.000 343.822,481.000 343.502 C 481.000 342.930,484.987 336.984,486.030 336.000 C 487.178 334.917,500.262 309.066,501.973 304.500 C 502.385 303.400,503.460 300.797,504.361 298.716 C 505.263 296.635,506.000 294.288,506.000 293.500 C 506.000 292.712,506.623 290.590,507.384 288.784 C 511.649 278.667,514.978 256.247,514.990 237.558 C 515.005 214.100,512.328 199.645,503.356 174.737 C 501.607 169.880,500.003 166.556,494.320 156.006 C 489.866 147.739,478.970 132.283,473.750 126.829 C 472.788 125.823,472.000 124.785,472.000 124.521 C 472.000 123.824,462.015 114.109,454.892 107.876 C 451.513 104.919,448.242 102.042,447.624 101.483 C 446.541 100.502,442.143 97.330,431.451 89.816 C 424.953 85.250,415.460 79.866,406.000 75.383 C 391.518 68.520,390.362 68.000,389.585 68.000 C 389.155 68.000,387.384 67.399,385.651 66.665 C 381.425 64.874,376.156 63.005,372.500 62.000 C 370.850 61.547,368.150 60.715,366.500 60.151 C 339.467 50.921,296.741 46.541,257.500 48.977 M308.942 84.566 C 322.978 86.866,327.476 88.134,348.500 95.715 C 352.669 97.218,369.129 105.090,370.000 105.997 C 370.275 106.284,373.425 108.284,377.000 110.442 C 389.734 118.129,416.000 140.677,416.000 143.921 C 416.000 144.423,416.415 144.983,416.921 145.167 C 417.428 145.350,420.574 149.100,423.912 153.500 C 427.249 157.900,430.345 161.950,430.791 162.500 C 431.236 163.050,431.921 164.175,432.311 165.000 C 432.702 165.825,433.886 167.850,434.941 169.500 C 443.954 183.589,452.629 206.483,457.676 229.500 C 460.205 241.029,460.184 279.037,457.643 290.500 C 454.971 302.558,450.793 316.970,448.223 323.000 C 447.402 324.925,446.160 327.850,445.462 329.500 C 440.870 340.353,431.150 357.982,429.750 357.994 C 429.337 357.997,429.000 358.484,429.000 359.076 C 429.000 362.318,396.330 397.962,393.333 397.989 C 392.692 397.995,392.017 398.343,391.833 398.763 C 391.332 399.910,381.145 407.000,379.998 407.000 C 379.449 407.000,379.000 407.420,379.000 407.933 C 379.000 408.446,378.103 409.150,377.006 409.498 C 375.909 409.846,374.447 410.681,373.756 411.354 C 372.214 412.856,345.637 426.000,344.143 426.000 C 343.551 426.000,341.590 426.633,339.784 427.407 C 337.978 428.181,333.800 429.497,330.500 430.332 C 327.200 431.166,322.502 432.377,320.060 433.022 C 297.261 439.042,257.599 437.804,236.467 430.411 C 234.248 429.635,231.522 429.000,230.408 429.000 C 229.294 429.000,227.509 428.339,226.441 427.532 C 225.374 426.724,223.782 426.049,222.904 426.032 C 222.026 426.014,220.001 425.375,218.404 424.611 C 209.663 420.429,198.247 414.733,196.523 413.693 C 182.065 404.971,171.370 397.229,163.173 389.552 C 160.794 387.324,158.431 385.350,157.923 385.167 C 157.415 384.983,157.000 384.420,157.000 383.916 C 157.000 383.411,155.281 381.311,153.180 379.249 C 151.079 377.187,147.098 372.575,144.334 369.000 C 140.042 363.449,137.201 359.201,129.267 346.477 C 128.589 345.390,126.205 340.675,123.970 336.000 C 121.735 331.325,119.252 326.226,118.453 324.669 C 117.654 323.112,117.000 321.215,117.000 320.453 C 117.000 319.691,116.369 317.590,115.598 315.784 C 112.646 308.869,107.501 287.997,108.218 285.846 C 108.445 285.166,109.186 286.834,109.865 289.554 C 111.464 295.960,113.888 303.591,115.725 308.000 C 118.000 313.460,124.289 326.444,124.928 327.000 C 125.244 327.275,126.141 328.738,126.921 330.250 C 127.700 331.762,128.712 333.000,129.169 333.000 C 129.626 333.000,130.000 333.462,130.000 334.026 C 130.000 335.379,137.201 345.000,138.213 345.000 C 138.646 345.000,139.000 345.494,139.000 346.097 C 139.000 347.653,156.773 364.906,162.075 368.497 C 164.509 370.146,166.725 371.753,167.000 372.070 C 167.275 372.387,168.175 372.956,169.000 373.334 C 169.825 373.712,171.850 374.881,173.500 375.931 C 176.493 377.836,187.367 383.331,194.000 386.291 C 198.590 388.339,208.657 391.442,218.000 393.687 C 228.955 396.320,267.180 396.301,278.000 393.657 C 295.402 389.405,308.186 384.401,320.500 377.022 C 323.250 375.374,326.512 373.498,327.750 372.852 C 328.988 372.207,330.000 371.301,330.000 370.839 C 330.000 370.378,330.637 370.000,331.417 370.000 C 332.196 370.000,332.983 369.662,333.167 369.250 C 333.350 368.837,335.750 366.732,338.500 364.570 C 345.387 359.157,356.271 348.059,359.547 343.108 C 361.042 340.849,362.656 339.000,363.133 339.000 C 363.610 339.000,364.000 338.325,364.000 337.500 C 364.000 336.675,364.378 336.000,364.839 336.000 C 365.301 336.000,366.207 334.988,366.852 333.750 C 367.498 332.512,369.382 329.250,371.041 326.500 C 374.723 320.393,379.000 311.223,379.000 309.435 C 379.000 308.710,379.397 307.872,379.883 307.572 C 380.712 307.060,382.579 301.441,386.507 287.632 C 393.026 264.720,390.046 224.117,380.113 200.500 C 378.222 196.004,371.607 182.465,371.073 182.000 C 370.758 181.725,369.633 179.925,368.573 178.000 C 359.582 161.671,329.737 133.543,317.170 129.554 C 315.976 129.175,315.000 128.528,315.000 128.117 C 315.000 127.705,312.413 126.351,309.250 125.109 C 306.087 123.866,302.375 122.288,301.000 121.602 C 281.781 112.005,236.991 109.183,212.500 116.025 C 191.888 121.784,181.269 126.669,165.424 137.684 C 154.139 145.529,136.000 162.929,136.000 165.910 C 136.000 166.510,135.593 167.000,135.095 167.000 C 134.597 167.000,133.017 169.002,131.583 171.448 C 130.149 173.895,128.521 176.178,127.965 176.521 C 126.266 177.571,136.011 161.991,142.363 153.500 C 149.006 144.622,169.793 123.065,171.750 123.025 C 172.438 123.011,173.000 122.591,173.000 122.092 C 173.000 121.592,175.024 119.905,177.498 118.342 C 179.972 116.779,181.997 115.162,181.998 114.750 C 181.999 114.338,182.468 114.000,183.040 114.000 C 183.954 114.000,189.644 110.406,191.000 108.971 C 191.765 108.163,215.965 96.463,220.500 94.710 C 234.526 89.287,239.571 87.866,255.000 84.997 C 267.738 82.628,295.749 82.404,308.942 84.566 M264.000 119.429 C 274.210 120.802,283.384 122.843,289.500 125.102 C 296.868 127.823,309.642 133.499,311.079 134.691 C 311.947 135.411,313.100 136.000,313.641 136.000 C 319.055 136.000,355.000 167.359,355.000 172.082 C 355.000 172.587,355.407 173.000,355.905 173.000 C 356.403 173.000,358.090 175.086,359.655 177.635 C 361.220 180.185,363.252 183.447,364.170 184.885 C 378.116 206.719,385.849 239.821,383.061 265.750 C 381.269 282.428,378.301 293.561,371.359 309.651 C 370.612 311.384,370.000 313.039,370.000 313.329 C 370.000 314.277,362.552 326.491,361.766 326.833 C 361.345 327.017,361.000 327.613,361.000 328.159 C 361.000 333.098,327.025 367.000,322.076 367.000 C 321.484 367.000,321.000 367.381,321.000 367.846 C 321.000 368.610,300.340 379.256,295.500 380.986 C 274.622 388.448,269.430 389.362,248.000 389.348 C 227.713 389.335,221.975 388.432,204.109 382.437 C 199.488 380.886,177.402 370.355,175.509 368.799 C 171.880 365.817,164.987 360.994,164.310 360.963 C 162.442 360.878,139.000 335.810,139.000 333.897 C 139.000 333.404,138.622 333.000,138.161 333.000 C 137.699 333.000,136.794 331.988,136.150 330.750 C 135.506 329.512,134.109 327.150,133.045 325.500 C 131.982 323.850,130.495 321.375,129.740 320.000 C 128.985 318.625,127.863 316.600,127.246 315.500 C 123.736 309.244,118.325 295.683,117.070 290.000 C 116.645 288.075,115.817 284.700,115.230 282.500 C 109.503 261.023,112.541 223.788,121.552 205.000 C 122.212 203.625,123.789 200.250,125.056 197.500 C 138.066 169.275,162.701 144.390,190.000 131.898 C 191.925 131.018,195.455 129.330,197.845 128.148 C 200.234 126.967,202.806 126.000,203.561 126.000 C 204.315 126.000,206.410 125.377,208.216 124.616 C 221.281 119.108,245.130 116.891,264.000 119.429 M163.000 206.500 L 163.000 241.000 169.581 241.000 L 176.161 241.000 175.831 217.748 C 175.501 194.558,175.505 194.506,177.327 198.498 C 181.483 207.603,193.733 233.606,195.819 237.750 C 197.422 240.936,197.589 241.000,204.227 241.000 L 211.000 241.000 211.000 206.500 L 211.000 172.000 204.680 172.000 L 198.360 172.000 198.672 194.250 C 198.844 206.488,198.714 215.825,198.383 215.000 C 196.851 211.178,192.147 201.229,185.262 187.250 L 177.752 172.000 170.376 172.000 L 163.000 172.000 163.000 206.500 M235.000 188.654 C 222.498 192.791,218.500 199.169,218.500 214.977 C 218.500 228.419,220.263 232.855,227.764 238.289 C 234.969 243.508,250.551 243.121,257.393 237.552 L 260.285 235.197 258.061 231.599 C 255.459 227.389,255.574 227.413,250.500 230.000 C 241.138 234.773,231.000 230.312,231.000 221.419 L 231.000 219.000 246.000 219.000 L 261.000 219.000 261.000 215.832 C 261.000 196.955,248.717 184.115,235.000 188.654 M268.000 189.882 C 264.020 190.585,263.898 191.474,266.518 200.750 C 267.333 203.637,268.707 208.588,269.571 211.750 C 270.435 214.912,271.756 219.525,272.506 222.000 C 273.257 224.475,274.180 228.075,274.557 230.000 C 276.444 239.620,277.643 241.000,284.109 241.000 C 289.055 241.000,289.999 240.719,289.995 239.250 C 289.992 238.287,290.632 235.475,291.416 233.000 C 293.582 226.160,295.738 217.923,296.444 213.785 C 297.178 209.479,299.000 207.726,299.000 211.326 C 299.000 212.670,299.700 216.185,300.556 219.135 C 303.880 230.594,304.959 234.620,305.558 237.795 L 306.179 241.091 312.260 240.795 L 318.341 240.500 319.693 236.000 C 321.936 228.533,323.858 221.826,325.566 215.500 C 327.871 206.964,330.075 199.181,331.596 194.205 L 332.909 189.911 326.238 190.205 C 319.737 190.493,319.550 190.576,318.877 193.500 C 317.358 200.102,315.067 210.848,313.866 217.000 L 312.598 223.500 311.759 219.500 C 310.752 214.700,308.403 205.396,306.434 198.412 C 305.645 195.614,305.000 192.576,305.000 191.662 C 305.000 190.287,303.902 190.000,298.630 190.000 L 292.260 190.000 291.027 194.750 C 289.487 200.686,287.778 206.773,285.484 214.500 L 283.702 220.500 282.451 215.500 C 280.499 207.695,278.099 196.870,277.407 192.750 C 276.724 188.681,276.016 188.465,268.000 189.882 M243.003 199.502 C 245.532 200.809,247.967 205.565,247.994 209.250 C 247.997 209.662,244.175 210.000,239.500 210.000 C 232.378 210.000,231.000 209.741,231.000 208.401 C 231.000 205.568,234.041 200.290,236.303 199.197 C 239.280 197.758,239.666 197.776,243.003 199.502 M262.000 255.666 C 254.805 256.799,255.470 253.278,255.764 288.706 C 256.046 322.640,256.318 324.666,261.036 328.026 C 263.866 330.041,271.309 330.726,273.721 329.194 C 275.621 327.987,274.182 321.281,271.895 320.683 C 268.454 319.783,268.000 315.612,268.000 284.935 C 268.000 251.941,268.552 254.634,262.000 255.666 M280.615 258.465 C 276.720 264.409,279.838 271.000,286.544 271.000 C 293.535 271.000,296.712 265.812,293.651 259.394 C 291.488 254.858,283.358 254.278,280.615 258.465 M156.000 294.000 L 156.000 329.000 162.500 329.000 L 169.000 329.000 169.000 314.033 L 169.000 299.067 172.500 302.567 C 174.425 304.492,176.000 306.354,176.000 306.705 C 176.000 307.055,176.619 308.053,177.376 308.921 C 179.049 310.839,185.682 322.443,187.282 326.250 C 188.411 328.936,201.058 330.608,203.298 328.368 C 203.968 327.699,199.124 318.733,197.787 318.167 C 197.354 317.983,197.000 317.374,197.000 316.812 C 197.000 316.250,195.650 313.790,194.000 311.345 C 192.350 308.900,191.000 306.472,191.000 305.950 C 191.000 305.427,190.662 304.997,190.250 304.994 C 189.838 304.990,188.738 303.649,187.808 302.013 L 186.115 299.039 189.775 297.303 C 196.733 294.001,200.000 288.191,200.000 279.120 C 200.000 264.017,192.657 259.056,170.250 259.022 L 156.000 259.000 156.000 294.000 M183.992 272.492 C 191.322 279.127,184.868 290.000,173.599 290.000 L 169.000 290.000 169.000 279.863 L 169.000 269.726 175.548 270.252 C 179.722 270.587,182.784 271.399,183.992 272.492 M220.000 277.318 C 202.359 282.932,199.841 316.160,216.258 326.711 C 227.485 333.928,253.631 326.774,245.553 318.696 C 244.699 317.842,244.000 316.661,244.000 316.071 C 244.000 315.482,243.325 315.000,242.500 315.000 C 241.675 315.000,241.000 315.401,241.000 315.891 C 241.000 317.153,233.501 320.000,230.179 320.000 C 224.109 320.000,219.000 315.245,219.000 309.596 L 219.000 307.000 233.639 307.000 L 248.277 307.000 247.777 298.217 C 246.789 280.890,235.490 272.389,220.000 277.318 M285.750 277.305 L 281.000 278.335 281.000 303.668 L 281.000 329.000 287.000 329.000 L 293.000 329.000 293.000 302.500 C 293.000 281.893,292.722 276.031,291.750 276.138 C 291.063 276.213,288.363 276.739,285.750 277.305 M316.789 277.364 C 297.188 283.461,295.331 320.555,314.232 328.452 C 321.809 331.618,333.103 329.754,338.394 324.463 C 340.098 322.759,339.772 321.668,336.206 317.160 L 334.355 314.819 330.538 317.410 C 321.191 323.753,315.000 318.204,315.000 303.482 C 315.000 289.960,322.740 281.883,329.357 288.500 C 331.600 290.743,332.524 290.389,336.049 285.938 L 339.267 281.875 336.919 280.188 C 331.282 276.136,324.015 275.116,316.789 277.364 M232.077 288.923 C 237.817 294.664,236.349 297.000,227.000 297.000 C 218.042 297.000,217.128 295.977,220.694 289.940 C 223.485 285.215,227.969 284.815,232.077 288.923 " stroke="none" fill-rule="evenodd"></path>
</g>
</svg>