<svg width="100%" height="100%" viewBox="0 0 400 400" version="1.1" xmlns="http://www.w3.org/2000/svg" style="fill-rule:evenodd;clip-rule:evenodd;stroke-linejoin:round;stroke-miterlimit:2;">
<g>
<path d="M190,11C190,12.054 188,11.667 187,12C184.858,12.714 180.378,13.912 178.634,15.303C177.828,15.945 177.723,17.194 177,17.929C174.909,20.056 170.614,20.778 168,22C162.01,24.8 156.659,29.031 150.721,32C140.362,37.179 128.248,43.514 120,50.929C116.95,53.671 110.689,54.892 107,57C97.616,62.362 86.134,67.824 78.459,74.633C76.049,76.771 71.839,77.605 69,79C66.103,80.423 65.174,81.974 63,83.929C57.726,88.671 48.41,88.909 43,94.071C13.952,121.783 30,156.508 30,201C30,231.002 30.351,261.005 31,291C31.056,293.608 34.79,299.707 36.375,301.425C41.817,307.324 49.115,310.119 56,314C75.03,324.727 89.601,337 113,337C127.383,337 145.567,332.475 152,318C164.533,289.801 157.134,227.837 157.109,217.877C157.037,188.723 157.786,159.499 155.571,130.429C155.434,128.634 152.132,129.283 150.344,129.076C145.969,128.57 137.214,128.658 132.793,129.454C131.44,129.697 127.859,130.895 127.5,133C122.843,160.31 126,188.395 126,216.099L126,299.198L123,302C119.469,305.298 115.611,309 110,309C106.06,309 101.182,305.989 98,304C90.621,299.388 82.533,295.341 75,291C70.97,288.678 66.638,287.069 62.5,285C61.92,284.71 59.033,283.369 59,282C58.346,255.149 58.091,228.288 58,201.429C57.918,177.025 57.993,152.618 58.481,128.219C58.542,125.196 58.68,122.089 59.647,119.225C59.923,118.407 61.259,118.544 61.929,118C64.336,116.044 66.081,114.459 69,113C76.93,109.035 84.339,104.415 92,100C115.149,86.662 138.234,72.581 162,59C165.951,56.742 171.903,55.457 175.366,52.697C176.172,52.055 176.277,50.806 177,50.071C179.091,47.944 183.386,47.222 186,46C188.962,44.615 191.901,42.645 194.721,41C196.226,40.122 197.258,38 199,38C199.547,38 206.643,42.934 206.77,43C210.537,44.971 217.955,47.333 221,50.071C223.178,52.029 224.146,53.518 227,55C254.709,69.394 280.272,85.727 307,101C314.915,105.523 322.657,110.292 331,114C333.163,114.962 338.785,117.548 338.929,120C340.516,146.956 339.851,173.998 340,201C340.149,228.004 343.285,255.423 338.5,282C338.032,284.599 331.073,287.031 329,288C320.387,292.026 312.805,297.737 304.279,302C296.312,305.983 285.949,310.876 280,316.929C276.845,320.138 269.919,321.578 266,324C252.835,332.135 239.087,340.739 225,347C221.904,348.376 221.769,349.782 219.366,351.697C215.772,354.562 209.313,356.647 205.279,359C203.528,360.021 201.245,362.07 199.12,362.07C194.782,362.07 189.286,357.104 185.779,355C183.756,353.786 180.352,353.066 178.634,351.697C177.828,351.055 177.717,349.812 177,349.071C173.856,345.82 163.008,342.514 159.412,341.91C153.785,340.965 149.009,345.179 144,347C141.631,347.862 134.676,349.147 133.375,351.75C129.684,359.132 141.535,363.188 146.221,366C154.854,371.18 163.129,376.314 172.5,381C181.167,385.334 188.458,392 199,392C209.127,392 216.99,386.006 225,381C232.369,376.395 240.462,372.412 248,368C265.95,357.495 284.396,348.002 302,337C306.135,334.416 310.53,331.987 315,330C315.26,329.884 319.787,328.12 320,327.929C320.741,327.263 320.795,326.028 321.541,325.367C323.951,323.229 328.161,322.395 331,321C333.897,319.577 334.826,318.026 337,316.071C342.271,311.331 351.576,311.067 357,305.929C383.744,280.599 368,227.444 368,201C368,170.998 367.645,140.995 367,111C366.825,102.88 357.204,95.545 351,92C338.55,84.886 327.083,78.643 314.86,71C310.016,67.971 304.499,66.304 299.779,63C295.707,60.15 291.541,57.123 287,55C284.386,53.778 280.091,53.056 278,50.929C273.85,46.706 268.348,45.056 263,42C247.397,33.084 231.883,23.072 216.331,14C211.554,11.213 204.146,10 199,10C195.982,10 190,7.982 190,11M219,125C219,125.958 209.976,126.097 209.167,126.318C207.436,126.79 206.19,128.397 204.5,129C200.039,130.593 194.271,132.119 190.429,135C183.512,140.188 176.628,146.46 174,155C173.205,157.584 173.522,160.435 172.667,163C172.086,164.743 170.675,163.623 170.3,165.5C169.9,167.5 169.9,175.5 170.3,177.5C170.675,179.377 172.086,178.257 172.667,180C173.522,182.565 173.154,185.432 174,188C176.777,196.43 185.098,201.299 192.5,205C194.749,206.124 196.575,208.254 199,209C215.649,214.123 233.314,213.469 250.25,216.292C252.312,216.635 251.254,218.212 253.333,218.692C264.832,221.346 279.115,218.897 280,234.455C280.61,245.18 269.438,250.998 260.5,252C246.238,253.599 231.63,254.742 217.416,251.696C215.73,251.335 214.592,249.663 213,249C210.044,247.768 205.81,246.835 203.488,244.513C200.534,241.559 197.747,233.908 197,229.86C196.7,228.234 197.229,224.697 194.502,224.138C190.089,223.233 171.654,221.98 167.429,224.429C164.406,226.181 166.572,235.727 167,238C168.942,248.315 174.508,261.499 183.734,267C187.369,269.167 190.74,272.12 194.5,274C203.397,278.448 214.359,279.036 224,280C241.97,281.797 260.281,281.725 278,277C281.914,275.956 285.642,273.099 289,271C292.109,269.057 295.224,268.302 298.197,265.803C310.853,255.164 314.387,239.11 312,223C311.404,218.977 310.519,212.794 307.633,209.541C305.371,206.991 302.8,204.73 300.294,202.418C296.24,198.68 290.543,196.801 285.5,195C282.972,194.097 283.606,193.29 281.083,192.344C262.733,185.463 241.216,188.05 222.333,183.692C220.439,183.255 221.694,181.898 220,181.333C212.617,178.872 203.053,179.775 203,169.071C202.992,167.348 203.56,165.666 204,164C204.401,162.481 204.42,160.685 205.478,159.524C208.4,156.319 216.868,154.398 221,154C234.089,152.74 247.385,151.887 260,156C262.318,156.756 266.422,157.89 268.149,159.262C271.906,162.248 274.686,166.902 276,171.5C276.63,173.705 277.845,179.704 280.735,180.161C288.634,181.409 296.12,181.206 304,180C304.673,179.897 306.573,178.135 306.7,177.5C308.094,170.532 306.132,166.47 304,160.5C300.793,151.519 298.274,144.96 291,138.071C282.544,130.062 264.821,125.902 254,125C254,125 219,122.333 219,125"/>
</g>
</svg>
