<svg id="svg" version="1.1" width="400" height="400" xmlns="http://www.w3.org/2000/svg" xmlns:xlink="http://www.w3.org/1999/xlink" style="display: block;"><g id="svgg"><path id="path0" d="M190.000 11.000 C 190.000 11.550,188.650 12.000,187.000 12.000 C 185.350 12.000,184.000 12.450,184.000 13.000 C 184.000 13.550,183.068 14.000,181.929 14.000 C 179.715 14.000,177.000 16.164,177.000 17.929 C 177.000 18.518,176.100 19.000,175.000 19.000 C 173.900 19.000,173.000 19.450,173.000 20.000 C 173.000 20.550,171.875 21.000,170.500 21.000 C 169.125 21.000,168.000 21.450,168.000 22.000 C 168.000 22.550,167.199 23.000,166.221 23.000 C 165.242 23.000,163.793 23.900,163.000 25.000 C 162.207 26.100,160.744 27.000,159.748 27.000 C 158.752 27.000,157.678 27.675,157.362 28.500 C 157.045 29.325,155.934 30.000,154.893 30.000 C 153.852 30.000,153.000 30.450,153.000 31.000 C 153.000 31.550,151.974 32.000,150.721 32.000 C 149.467 32.000,147.793 32.900,147.000 34.000 C 146.207 35.100,144.758 36.000,143.779 36.000 C 142.801 36.000,142.000 36.450,142.000 37.000 C 142.000 37.550,141.086 38.000,139.969 38.000 C 138.851 38.000,137.678 38.675,137.362 39.500 C 137.045 40.325,136.034 41.000,135.114 41.000 C 134.194 41.000,132.793 41.900,132.000 43.000 C 131.207 44.100,129.533 45.000,128.279 45.000 C 127.026 45.000,126.000 45.450,126.000 46.000 C 126.000 46.550,125.293 47.000,124.429 47.000 C 122.633 47.000,120.000 49.335,120.000 50.929 C 120.000 51.518,118.875 52.000,117.500 52.000 C 116.125 52.000,115.000 52.450,115.000 53.000 C 115.000 53.550,114.100 54.000,113.000 54.000 C 111.900 54.000,111.000 54.450,111.000 55.000 C 111.000 55.550,110.100 56.000,109.000 56.000 C 107.900 56.000,107.000 56.450,107.000 57.000 C 107.000 57.550,106.325 58.000,105.500 58.000 C 104.675 58.000,104.000 58.450,104.000 59.000 C 104.000 59.550,103.100 60.000,102.000 60.000 C 100.889 60.000,100.000 60.667,100.000 61.500 C 100.000 62.333,99.111 63.000,98.000 63.000 C 96.900 63.000,96.000 63.450,96.000 64.000 C 96.000 64.550,94.974 65.000,93.721 65.000 C 92.467 65.000,90.793 65.900,90.000 67.000 C 89.207 68.100,87.758 69.000,86.779 69.000 C 85.801 69.000,85.000 69.450,85.000 70.000 C 85.000 70.550,83.875 71.000,82.500 71.000 C 81.125 71.000,80.000 71.482,80.000 72.071 C 80.000 73.665,77.367 76.000,75.571 76.000 C 74.707 76.000,74.000 76.450,74.000 77.000 C 74.000 77.550,72.875 78.000,71.500 78.000 C 70.125 78.000,69.000 78.450,69.000 79.000 C 69.000 79.550,68.293 80.000,67.429 80.000 C 65.633 80.000,63.000 82.335,63.000 83.929 C 63.000 84.518,61.875 85.000,60.500 85.000 C 59.125 85.000,58.000 85.450,58.000 86.000 C 58.000 86.550,57.100 87.000,56.000 87.000 C 54.900 87.000,54.000 87.450,54.000 88.000 C 54.000 88.550,52.974 89.000,51.721 89.000 C 50.467 89.000,48.793 89.900,48.000 91.000 C 47.207 92.100,45.758 93.000,44.779 93.000 C 43.801 93.000,43.000 93.482,43.000 94.071 C 43.000 95.215,40.546 98.000,39.538 98.000 C 37.480 98.000,32.000 105.245,32.000 107.967 C 32.000 109.635,31.550 111.000,31.000 111.000 C 30.341 111.000,30.000 141.667,30.000 201.000 C 30.000 260.333,30.341 291.000,31.000 291.000 C 31.550 291.000,32.000 292.125,32.000 293.500 C 32.000 294.875,32.450 296.000,33.000 296.000 C 33.550 296.000,34.000 296.695,34.000 297.545 C 34.000 299.285,38.349 304.000,39.955 304.000 C 40.530 304.000,41.000 304.675,41.000 305.500 C 41.000 306.325,41.801 307.000,42.779 307.000 C 43.758 307.000,45.207 307.900,46.000 309.000 C 46.793 310.100,48.467 311.000,49.721 311.000 C 50.974 311.000,52.000 311.450,52.000 312.000 C 52.000 312.550,52.900 313.000,54.000 313.000 C 55.100 313.000,56.000 313.450,56.000 314.000 C 56.000 314.550,56.696 315.000,57.548 315.000 C 58.399 315.000,60.138 316.125,61.412 317.500 C 62.687 318.875,64.465 320.000,65.365 320.000 C 66.264 320.000,67.000 320.450,67.000 321.000 C 67.000 321.550,67.900 322.000,69.000 322.000 C 70.100 322.000,71.000 322.450,71.000 323.000 C 71.000 323.550,71.932 324.000,73.071 324.000 C 75.285 324.000,78.000 326.164,78.000 327.929 C 78.000 328.518,78.900 329.000,80.000 329.000 C 81.100 329.000,82.000 329.450,82.000 330.000 C 82.000 330.550,83.125 331.000,84.500 331.000 C 85.875 331.000,87.000 331.450,87.000 332.000 C 87.000 332.550,88.350 333.000,90.000 333.000 C 91.650 333.000,93.000 333.450,93.000 334.000 C 93.000 334.550,94.575 335.000,96.500 335.000 C 98.425 335.000,100.000 335.450,100.000 336.000 C 100.000 336.615,105.000 337.000,113.000 337.000 C 121.000 337.000,126.000 336.615,126.000 336.000 C 126.000 335.450,127.575 335.000,129.500 335.000 C 131.425 335.000,133.000 334.550,133.000 334.000 C 133.000 333.450,133.900 333.000,135.000 333.000 C 136.100 333.000,137.000 332.550,137.000 332.000 C 137.000 331.450,137.932 331.000,139.071 331.000 C 141.015 331.000,144.000 328.896,144.000 327.526 C 144.000 326.491,148.839 322.000,149.955 322.000 C 150.530 322.000,151.000 321.100,151.000 320.000 C 151.000 318.900,151.450 318.000,152.000 318.000 C 152.550 318.000,153.000 316.875,153.000 315.500 C 153.000 314.125,153.450 313.000,154.000 313.000 C 154.550 313.000,155.000 310.975,155.000 308.500 C 155.000 306.025,155.450 304.000,156.000 304.000 C 157.763 304.000,157.338 132.195,155.571 130.429 C 153.022 127.879,129.000 128.396,129.000 131.000 C 129.000 132.111,128.333 133.000,127.500 133.000 C 126.179 133.000,126.000 142.900,126.000 216.099 L 126.000 299.198 123.000 302.000 C 121.350 303.541,120.000 305.297,120.000 305.901 C 120.000 306.506,118.425 307.000,116.500 307.000 C 114.575 307.000,113.000 307.450,113.000 308.000 C 113.000 308.550,111.650 309.000,110.000 309.000 C 108.350 309.000,107.000 308.550,107.000 308.000 C 107.000 307.450,105.425 307.000,103.500 307.000 C 101.056 307.000,100.000 306.548,100.000 305.500 C 100.000 304.667,99.111 304.000,98.000 304.000 C 96.900 304.000,96.000 303.550,96.000 303.000 C 96.000 302.450,94.974 302.000,93.721 302.000 C 92.467 302.000,90.793 301.100,90.000 300.000 C 89.207 298.900,87.758 298.000,86.779 298.000 C 85.801 298.000,85.000 297.550,85.000 297.000 C 85.000 296.450,83.875 296.000,82.500 296.000 C 80.944 296.000,80.000 295.433,80.000 294.500 C 80.000 293.675,79.199 293.000,78.221 293.000 C 77.242 293.000,75.793 292.100,75.000 291.000 C 74.207 289.900,72.533 289.000,71.279 289.000 C 70.026 289.000,69.000 288.550,69.000 288.000 C 69.000 287.450,68.100 287.000,67.000 287.000 C 65.900 287.000,65.000 286.550,65.000 286.000 C 65.000 285.450,63.875 285.000,62.500 285.000 C 60.944 285.000,60.000 284.433,60.000 283.500 C 60.000 282.675,59.550 282.000,59.000 282.000 C 58.342 282.000,58.000 254.476,58.000 201.429 C 58.000 117.440,57.974 118.000,61.929 118.000 C 62.518 118.000,63.000 117.325,63.000 116.500 C 63.000 115.667,63.889 115.000,65.000 115.000 C 66.100 115.000,67.000 114.550,67.000 114.000 C 67.000 113.450,67.900 113.000,69.000 113.000 C 70.100 113.000,71.000 112.550,71.000 112.000 C 71.000 111.450,72.026 111.000,73.279 111.000 C 74.533 111.000,76.207 110.100,77.000 109.000 C 77.793 107.900,79.242 107.000,80.221 107.000 C 81.199 107.000,82.000 106.325,82.000 105.500 C 82.000 104.567,82.944 104.000,84.500 104.000 C 85.875 104.000,87.000 103.550,87.000 103.000 C 87.000 102.450,87.801 102.000,88.779 102.000 C 89.758 102.000,91.207 101.100,92.000 100.000 C 92.793 98.900,94.467 98.000,95.721 98.000 C 96.974 98.000,98.000 97.550,98.000 97.000 C 98.000 96.450,98.900 96.000,100.000 96.000 C 101.100 96.000,102.000 95.518,102.000 94.929 C 102.000 93.164,104.715 91.000,106.929 91.000 C 108.068 91.000,109.000 90.550,109.000 90.000 C 109.000 89.450,109.900 89.000,111.000 89.000 C 112.100 89.000,113.000 88.550,113.000 88.000 C 113.000 87.450,113.932 87.000,115.071 87.000 C 117.285 87.000,120.000 84.836,120.000 83.071 C 120.000 82.482,120.900 82.000,122.000 82.000 C 123.100 82.000,124.000 81.550,124.000 81.000 C 124.000 80.450,125.125 80.000,126.500 80.000 C 127.875 80.000,129.000 79.550,129.000 79.000 C 129.000 78.450,129.801 78.000,130.779 78.000 C 131.758 78.000,133.207 77.100,134.000 76.000 C 134.793 74.900,136.256 74.000,137.252 74.000 C 138.248 74.000,139.322 73.325,139.638 72.500 C 139.955 71.675,141.066 71.000,142.107 71.000 C 143.148 71.000,144.000 70.550,144.000 70.000 C 144.000 69.450,144.900 69.000,146.000 69.000 C 147.100 69.000,148.000 68.550,148.000 68.000 C 148.000 67.450,148.675 67.000,149.500 67.000 C 150.325 67.000,151.000 66.550,151.000 66.000 C 151.000 65.450,151.900 65.000,153.000 65.000 C 154.100 65.000,155.000 64.550,155.000 64.000 C 155.000 63.450,155.900 63.000,157.000 63.000 C 158.111 63.000,159.000 62.333,159.000 61.500 C 159.000 60.675,159.675 60.000,160.500 60.000 C 161.325 60.000,162.000 59.550,162.000 59.000 C 162.000 58.450,162.900 58.000,164.000 58.000 C 165.100 58.000,166.000 57.550,166.000 57.000 C 166.000 56.450,166.900 56.000,168.000 56.000 C 169.100 56.000,170.000 55.550,170.000 55.000 C 170.000 54.450,170.932 54.000,172.071 54.000 C 174.285 54.000,177.000 51.836,177.000 50.071 C 177.000 49.482,177.900 49.000,179.000 49.000 C 180.100 49.000,181.000 48.550,181.000 48.000 C 181.000 47.450,182.125 47.000,183.500 47.000 C 184.875 47.000,186.000 46.550,186.000 46.000 C 186.000 45.450,186.801 45.000,187.779 45.000 C 188.758 45.000,190.207 44.100,191.000 43.000 C 191.793 41.900,193.467 41.000,194.721 41.000 C 196.080 41.000,197.000 40.395,197.000 39.500 C 197.000 38.667,197.889 38.000,199.000 38.000 C 200.111 38.000,201.000 38.667,201.000 39.500 C 201.000 40.325,201.815 41.000,202.811 41.000 C 203.808 41.000,205.589 41.900,206.770 43.000 C 207.950 44.100,209.610 45.000,210.458 45.000 C 211.306 45.000,212.000 45.450,212.000 46.000 C 212.000 46.550,212.900 47.000,214.000 47.000 C 215.100 47.000,216.000 47.450,216.000 48.000 C 216.000 48.550,217.125 49.000,218.500 49.000 C 219.875 49.000,221.000 49.482,221.000 50.071 C 221.000 51.665,223.633 54.000,225.429 54.000 C 226.293 54.000,227.000 54.450,227.000 55.000 C 227.000 55.550,228.026 56.000,229.279 56.000 C 230.533 56.000,232.207 56.900,233.000 58.000 C 233.793 59.100,235.194 60.000,236.114 60.000 C 237.034 60.000,238.045 60.675,238.362 61.500 C 238.678 62.325,239.851 63.000,240.969 63.000 C 242.086 63.000,243.000 63.450,243.000 64.000 C 243.000 64.550,243.801 65.000,244.779 65.000 C 245.758 65.000,247.207 65.900,248.000 67.000 C 248.793 68.100,250.467 69.000,251.721 69.000 C 252.974 69.000,254.000 69.450,254.000 70.000 C 254.000 70.550,254.900 71.000,256.000 71.000 C 257.111 71.000,258.000 71.667,258.000 72.500 C 258.000 73.395,258.920 74.000,260.279 74.000 C 261.533 74.000,263.207 74.900,264.000 76.000 C 264.793 77.100,266.242 78.000,267.221 78.000 C 268.199 78.000,269.000 78.450,269.000 79.000 C 269.000 79.550,270.125 80.000,271.500 80.000 C 272.875 80.000,274.000 80.450,274.000 81.000 C 274.000 81.550,274.900 82.000,276.000 82.000 C 277.100 82.000,278.000 82.482,278.000 83.071 C 278.000 84.836,280.715 87.000,282.929 87.000 C 284.068 87.000,285.000 87.450,285.000 88.000 C 285.000 88.550,285.900 89.000,287.000 89.000 C 288.100 89.000,289.000 89.450,289.000 90.000 C 289.000 90.550,289.900 91.000,291.000 91.000 C 292.100 91.000,293.000 91.450,293.000 92.000 C 293.000 92.550,293.675 93.000,294.500 93.000 C 295.325 93.000,296.000 93.675,296.000 94.500 C 296.000 95.333,296.889 96.000,298.000 96.000 C 299.100 96.000,300.000 96.450,300.000 97.000 C 300.000 97.550,300.900 98.000,302.000 98.000 C 303.100 98.000,304.000 98.450,304.000 99.000 C 304.000 99.550,304.675 100.000,305.500 100.000 C 306.325 100.000,307.000 100.450,307.000 101.000 C 307.000 101.550,307.900 102.000,309.000 102.000 C 310.100 102.000,311.000 102.450,311.000 103.000 C 311.000 103.550,311.900 104.000,313.000 104.000 C 314.111 104.000,315.000 104.667,315.000 105.500 C 315.000 106.395,315.920 107.000,317.279 107.000 C 318.533 107.000,320.207 107.900,321.000 109.000 C 321.793 110.100,323.242 111.000,324.221 111.000 C 325.199 111.000,326.000 111.450,326.000 112.000 C 326.000 112.550,327.125 113.000,328.500 113.000 C 329.875 113.000,331.000 113.450,331.000 114.000 C 331.000 114.550,331.900 115.000,333.000 115.000 C 334.100 115.000,335.000 115.482,335.000 116.071 C 335.000 117.456,337.544 120.000,338.929 120.000 C 339.682 120.000,340.000 144.067,340.000 201.000 C 340.000 272.333,339.821 282.000,338.500 282.000 C 337.675 282.000,337.000 282.675,337.000 283.500 C 337.000 284.333,336.111 285.000,335.000 285.000 C 333.900 285.000,333.000 285.450,333.000 286.000 C 333.000 286.550,332.100 287.000,331.000 287.000 C 329.900 287.000,329.000 287.450,329.000 288.000 C 329.000 288.550,327.974 289.000,326.721 289.000 C 325.467 289.000,323.793 289.900,323.000 291.000 C 322.207 292.100,320.758 293.000,319.779 293.000 C 318.801 293.000,318.000 293.675,318.000 294.500 C 318.000 295.433,317.056 296.000,315.500 296.000 C 314.125 296.000,313.000 296.450,313.000 297.000 C 313.000 297.550,312.199 298.000,311.221 298.000 C 310.242 298.000,308.793 298.900,308.000 300.000 C 307.207 301.100,305.533 302.000,304.279 302.000 C 303.026 302.000,302.000 302.450,302.000 303.000 C 302.000 303.550,301.100 304.000,300.000 304.000 C 298.889 304.000,298.000 304.667,298.000 305.500 C 298.000 306.395,297.080 307.000,295.721 307.000 C 294.467 307.000,292.793 307.900,292.000 309.000 C 291.207 310.100,289.758 311.000,288.779 311.000 C 287.801 311.000,287.000 311.450,287.000 312.000 C 287.000 312.550,286.068 313.000,284.929 313.000 C 282.715 313.000,280.000 315.164,280.000 316.929 C 280.000 317.518,279.100 318.000,278.000 318.000 C 276.900 318.000,276.000 318.450,276.000 319.000 C 276.000 319.550,274.875 320.000,273.500 320.000 C 272.125 320.000,271.000 320.450,271.000 321.000 C 271.000 321.550,270.199 322.000,269.221 322.000 C 268.242 322.000,266.793 322.900,266.000 324.000 C 265.207 325.100,263.744 326.000,262.748 326.000 C 261.752 326.000,260.678 326.675,260.362 327.500 C 260.045 328.325,258.934 329.000,257.893 329.000 C 256.852 329.000,256.000 329.450,256.000 330.000 C 256.000 330.550,255.100 331.000,254.000 331.000 C 252.900 331.000,252.000 331.450,252.000 332.000 C 252.000 332.550,251.325 333.000,250.500 333.000 C 249.675 333.000,249.000 333.450,249.000 334.000 C 249.000 334.550,248.100 335.000,247.000 335.000 C 245.900 335.000,245.000 335.450,245.000 336.000 C 245.000 336.550,244.100 337.000,243.000 337.000 C 241.889 337.000,241.000 337.667,241.000 338.500 C 241.000 339.395,240.080 340.000,238.721 340.000 C 237.467 340.000,235.793 340.900,235.000 342.000 C 234.207 343.100,232.758 344.000,231.779 344.000 C 230.801 344.000,230.000 344.450,230.000 345.000 C 230.000 345.550,228.875 346.000,227.500 346.000 C 226.125 346.000,225.000 346.450,225.000 347.000 C 225.000 347.550,224.100 348.000,223.000 348.000 C 221.900 348.000,221.000 348.482,221.000 349.071 C 221.000 350.836,218.285 353.000,216.071 353.000 C 214.932 353.000,214.000 353.450,214.000 354.000 C 214.000 354.550,213.199 355.000,212.221 355.000 C 211.242 355.000,209.793 355.900,209.000 357.000 C 208.207 358.100,206.533 359.000,205.279 359.000 C 203.920 359.000,203.000 359.605,203.000 360.500 C 203.000 362.593,195.441 362.593,194.638 360.500 C 194.322 359.675,193.248 359.000,192.252 359.000 C 191.256 359.000,189.793 358.100,189.000 357.000 C 188.207 355.900,186.758 355.000,185.779 355.000 C 184.801 355.000,184.000 354.550,184.000 354.000 C 184.000 353.450,183.068 353.000,181.929 353.000 C 179.715 353.000,177.000 350.836,177.000 349.071 C 177.000 348.482,176.127 348.000,175.059 348.000 C 173.991 348.000,172.840 347.550,172.500 347.000 C 172.160 346.450,171.108 346.000,170.162 346.000 C 169.216 346.000,167.793 345.100,167.000 344.000 C 165.431 341.824,153.000 340.936,153.000 343.000 C 153.000 343.550,151.875 344.000,150.500 344.000 C 149.125 344.000,148.000 344.450,148.000 345.000 C 148.000 345.550,147.100 346.000,146.000 346.000 C 144.900 346.000,144.000 346.450,144.000 347.000 C 144.000 347.550,142.425 348.000,140.500 348.000 C 138.056 348.000,137.000 348.452,137.000 349.500 C 137.000 350.333,136.111 351.000,135.000 351.000 C 133.333 351.000,133.000 351.667,133.000 355.000 C 133.000 358.258,133.351 359.000,134.893 359.000 C 135.934 359.000,137.045 359.675,137.362 360.500 C 137.678 361.325,138.752 362.000,139.748 362.000 C 140.744 362.000,142.207 362.900,143.000 364.000 C 143.793 365.100,145.242 366.000,146.221 366.000 C 147.199 366.000,148.000 366.450,148.000 367.000 C 148.000 367.550,148.932 368.000,150.071 368.000 C 152.285 368.000,155.000 370.164,155.000 371.929 C 155.000 372.518,155.900 373.000,157.000 373.000 C 158.100 373.000,159.000 373.450,159.000 374.000 C 159.000 374.550,160.026 375.000,161.279 375.000 C 162.533 375.000,164.207 375.900,165.000 377.000 C 165.793 378.100,167.242 379.000,168.221 379.000 C 169.199 379.000,170.000 379.450,170.000 380.000 C 170.000 380.550,171.125 381.000,172.500 381.000 C 174.056 381.000,175.000 381.567,175.000 382.500 C 175.000 383.325,175.801 384.000,176.779 384.000 C 177.758 384.000,179.207 384.900,180.000 386.000 C 180.793 387.100,182.467 388.000,183.721 388.000 C 184.974 388.000,186.000 388.450,186.000 389.000 C 186.000 389.550,188.025 390.000,190.500 390.000 C 192.975 390.000,195.000 390.450,195.000 391.000 C 195.000 391.550,196.800 392.000,199.000 392.000 C 201.200 392.000,203.000 391.550,203.000 391.000 C 203.000 390.450,205.025 390.000,207.500 390.000 C 209.975 390.000,212.000 389.550,212.000 389.000 C 212.000 388.450,212.900 388.000,214.000 388.000 C 215.100 388.000,216.000 387.550,216.000 387.000 C 216.000 386.450,216.675 386.000,217.500 386.000 C 218.325 386.000,219.000 385.550,219.000 385.000 C 219.000 384.450,219.900 384.000,221.000 384.000 C 222.111 384.000,223.000 383.333,223.000 382.500 C 223.000 381.667,223.889 381.000,225.000 381.000 C 226.100 381.000,227.000 380.550,227.000 380.000 C 227.000 379.450,228.026 379.000,229.279 379.000 C 230.533 379.000,232.207 378.100,233.000 377.000 C 233.793 375.900,235.242 375.000,236.221 375.000 C 237.199 375.000,238.000 374.550,238.000 374.000 C 238.000 373.450,238.914 373.000,240.031 373.000 C 241.149 373.000,242.322 372.325,242.638 371.500 C 242.955 370.675,243.966 370.000,244.886 370.000 C 245.806 370.000,247.207 369.100,248.000 368.000 C 248.793 366.900,250.467 366.000,251.721 366.000 C 252.974 366.000,254.000 365.550,254.000 365.000 C 254.000 364.450,254.900 364.000,256.000 364.000 C 257.100 364.000,258.000 363.550,258.000 363.000 C 258.000 362.450,258.837 362.000,259.860 362.000 C 260.883 362.000,262.565 360.875,263.597 359.500 C 264.630 358.125,266.268 357.000,267.237 357.000 C 268.207 357.000,269.000 356.550,269.000 356.000 C 269.000 355.450,270.026 355.000,271.279 355.000 C 272.533 355.000,274.207 354.100,275.000 353.000 C 275.793 351.900,277.242 351.000,278.221 351.000 C 279.199 351.000,280.000 350.325,280.000 349.500 C 280.000 348.567,280.944 348.000,282.500 348.000 C 283.875 348.000,285.000 347.550,285.000 347.000 C 285.000 346.450,285.900 346.000,287.000 346.000 C 288.100 346.000,289.000 345.550,289.000 345.000 C 289.000 344.450,289.900 344.000,291.000 344.000 C 292.100 344.000,293.000 343.550,293.000 343.000 C 293.000 342.450,293.675 342.000,294.500 342.000 C 295.325 342.000,296.000 341.550,296.000 341.000 C 296.000 340.450,296.900 340.000,298.000 340.000 C 299.111 340.000,300.000 339.333,300.000 338.500 C 300.000 337.667,300.889 337.000,302.000 337.000 C 303.100 337.000,304.000 336.550,304.000 336.000 C 304.000 335.450,304.675 335.000,305.500 335.000 C 306.325 335.000,307.000 334.550,307.000 334.000 C 307.000 333.450,307.900 333.000,309.000 333.000 C 310.100 333.000,311.000 332.550,311.000 332.000 C 311.000 331.450,311.900 331.000,313.000 331.000 C 314.100 331.000,315.000 330.550,315.000 330.000 C 315.000 329.450,316.125 329.000,317.500 329.000 C 318.875 329.000,320.000 328.518,320.000 327.929 C 320.000 326.335,322.633 324.000,324.429 324.000 C 325.293 324.000,326.000 323.550,326.000 323.000 C 326.000 322.450,327.125 322.000,328.500 322.000 C 329.875 322.000,331.000 321.550,331.000 321.000 C 331.000 320.450,331.707 320.000,332.571 320.000 C 334.367 320.000,337.000 317.665,337.000 316.071 C 337.000 315.482,338.125 315.000,339.500 315.000 C 340.875 315.000,342.000 314.550,342.000 314.000 C 342.000 313.450,342.900 313.000,344.000 313.000 C 345.100 313.000,346.000 312.550,346.000 312.000 C 346.000 311.450,347.026 311.000,348.279 311.000 C 349.533 311.000,351.207 310.100,352.000 309.000 C 352.793 307.900,354.242 307.000,355.221 307.000 C 356.199 307.000,357.000 306.518,357.000 305.929 C 357.000 304.763,359.462 302.000,360.500 302.000 C 361.733 302.000,364.000 299.131,364.000 297.571 C 364.000 296.707,364.450 296.000,365.000 296.000 C 365.550 296.000,366.000 294.875,366.000 293.500 C 366.000 292.125,366.450 291.000,367.000 291.000 C 367.659 291.000,368.000 260.333,368.000 201.000 C 368.000 141.667,367.659 111.000,367.000 111.000 C 366.450 111.000,366.000 109.630,366.000 107.955 C 366.000 105.261,362.363 100.000,360.500 100.000 C 359.485 100.000,355.000 95.145,355.000 94.045 C 355.000 93.470,354.100 93.000,353.000 93.000 C 351.900 93.000,351.000 92.550,351.000 92.000 C 351.000 91.450,350.325 91.000,349.500 91.000 C 348.675 91.000,348.000 90.550,348.000 90.000 C 348.000 89.450,347.100 89.000,346.000 89.000 C 344.900 89.000,344.000 88.550,344.000 88.000 C 344.000 87.450,343.100 87.000,342.000 87.000 C 340.900 87.000,340.000 86.550,340.000 86.000 C 340.000 85.450,338.875 85.000,337.500 85.000 C 336.125 85.000,335.000 84.518,335.000 83.929 C 335.000 82.335,332.367 80.000,330.571 80.000 C 329.707 80.000,329.000 79.550,329.000 79.000 C 329.000 78.450,327.875 78.000,326.500 78.000 C 325.125 78.000,324.000 77.550,324.000 77.000 C 324.000 76.450,323.207 76.000,322.237 76.000 C 321.268 76.000,319.630 74.875,318.597 73.500 C 317.565 72.125,315.883 71.000,314.860 71.000 C 313.837 71.000,313.000 70.550,313.000 70.000 C 313.000 69.450,312.100 69.000,311.000 69.000 C 309.900 69.000,309.000 68.550,309.000 68.000 C 309.000 67.450,307.974 67.000,306.721 67.000 C 305.467 67.000,303.793 66.100,303.000 65.000 C 302.207 63.900,300.758 63.000,299.779 63.000 C 298.801 63.000,298.000 62.325,298.000 61.500 C 298.000 60.605,297.080 60.000,295.721 60.000 C 294.467 60.000,292.793 59.100,292.000 58.000 C 291.207 56.900,289.758 56.000,288.779 56.000 C 287.801 56.000,287.000 55.550,287.000 55.000 C 287.000 54.450,285.875 54.000,284.500 54.000 C 283.125 54.000,282.000 53.550,282.000 53.000 C 282.000 52.450,281.100 52.000,280.000 52.000 C 278.900 52.000,278.000 51.518,278.000 50.929 C 278.000 49.164,275.285 47.000,273.071 47.000 C 271.932 47.000,271.000 46.550,271.000 46.000 C 271.000 45.450,270.100 45.000,269.000 45.000 C 267.900 45.000,267.000 44.550,267.000 44.000 C 267.000 43.450,266.100 43.000,265.000 43.000 C 263.900 43.000,263.000 42.550,263.000 42.000 C 263.000 41.450,262.325 41.000,261.500 41.000 C 260.675 41.000,260.000 40.325,260.000 39.500 C 260.000 38.667,259.111 38.000,258.000 38.000 C 256.900 38.000,256.000 37.550,256.000 37.000 C 256.000 36.450,255.100 36.000,254.000 36.000 C 252.900 36.000,252.000 35.550,252.000 35.000 C 252.000 34.450,251.325 34.000,250.500 34.000 C 249.675 34.000,249.000 33.550,249.000 33.000 C 249.000 32.450,248.100 32.000,247.000 32.000 C 245.900 32.000,245.000 31.550,245.000 31.000 C 245.000 30.450,244.148 30.000,243.107 30.000 C 242.066 30.000,240.955 29.325,240.638 28.500 C 240.322 27.675,239.248 27.000,238.252 27.000 C 237.256 27.000,235.793 26.100,235.000 25.000 C 234.207 23.900,232.758 23.000,231.779 23.000 C 230.801 23.000,230.000 22.550,230.000 22.000 C 230.000 21.450,228.875 21.000,227.500 21.000 C 226.125 21.000,225.000 20.550,225.000 20.000 C 225.000 19.450,224.176 19.000,223.169 19.000 C 222.162 19.000,220.736 17.875,220.000 16.500 C 219.160 14.931,217.794 14.000,216.331 14.000 C 215.049 14.000,214.000 13.550,214.000 13.000 C 214.000 12.450,212.650 12.000,211.000 12.000 C 209.350 12.000,208.000 11.550,208.000 11.000 C 208.000 10.407,204.333 10.000,199.000 10.000 C 193.667 10.000,190.000 10.407,190.000 11.000 M219.000 125.000 C 219.000 125.550,216.525 126.000,213.500 126.000 C 209.278 126.000,208.000 126.348,208.000 127.500 C 208.000 128.548,206.944 129.000,204.500 129.000 C 202.575 129.000,201.000 129.450,201.000 130.000 C 201.000 130.550,200.100 131.000,199.000 131.000 C 197.900 131.000,197.000 131.450,197.000 132.000 C 197.000 132.550,195.875 133.000,194.500 133.000 C 193.125 133.000,192.000 133.450,192.000 134.000 C 192.000 134.550,191.293 135.000,190.429 135.000 C 188.869 135.000,186.000 137.267,186.000 138.500 C 186.000 139.321,183.341 142.000,182.526 142.000 C 181.047 142.000,177.000 147.093,177.000 148.955 C 177.000 150.080,176.550 151.000,176.000 151.000 C 175.450 151.000,175.000 151.900,175.000 153.000 C 175.000 154.100,174.550 155.000,174.000 155.000 C 173.450 155.000,173.000 157.025,173.000 159.500 C 173.000 162.833,172.611 164.000,171.500 164.000 C 170.300 164.000,170.000 165.500,170.000 171.500 C 170.000 177.500,170.300 179.000,171.500 179.000 C 172.611 179.000,173.000 180.167,173.000 183.500 C 173.000 185.975,173.450 188.000,174.000 188.000 C 174.550 188.000,175.000 188.707,175.000 189.571 C 175.000 190.436,175.563 191.711,176.250 192.406 C 176.938 193.101,178.394 194.869,179.487 196.335 C 180.580 197.801,181.944 199.000,182.517 199.000 C 183.090 199.000,184.207 199.900,185.000 201.000 C 185.793 202.100,187.242 203.000,188.221 203.000 C 189.199 203.000,190.000 203.450,190.000 204.000 C 190.000 204.550,191.125 205.000,192.500 205.000 C 194.056 205.000,195.000 205.567,195.000 206.500 C 195.000 207.333,195.889 208.000,197.000 208.000 C 198.100 208.000,199.000 208.450,199.000 209.000 C 199.000 209.550,201.025 210.000,203.500 210.000 C 205.975 210.000,208.000 210.450,208.000 211.000 C 208.000 211.550,210.475 212.000,213.500 212.000 C 216.525 212.000,219.000 212.450,219.000 213.000 C 219.000 213.578,222.167 214.000,226.500 214.000 C 230.833 214.000,234.000 214.422,234.000 215.000 C 234.000 215.593,237.667 216.000,243.000 216.000 C 250.333 216.000,252.000 216.278,252.000 217.500 C 252.000 218.679,253.389 219.000,258.500 219.000 C 262.167 219.000,265.000 219.436,265.000 220.000 C 265.000 220.550,266.350 221.000,268.000 221.000 C 269.650 221.000,271.000 221.450,271.000 222.000 C 271.000 222.550,271.920 223.000,273.045 223.000 C 277.383 223.000,280.000 227.310,280.000 234.455 C 280.000 238.152,279.565 241.000,279.000 241.000 C 278.450 241.000,278.000 241.707,278.000 242.571 C 278.000 244.777,275.526 247.000,273.071 247.000 C 271.932 247.000,271.000 247.450,271.000 248.000 C 271.000 248.550,270.100 249.000,269.000 249.000 C 267.889 249.000,267.000 249.667,267.000 250.500 C 267.000 251.679,265.611 252.000,260.500 252.000 C 256.833 252.000,254.000 252.436,254.000 253.000 C 254.000 253.611,249.333 254.000,242.000 254.000 C 234.667 254.000,230.000 253.611,230.000 253.000 C 230.000 252.429,227.000 252.000,223.000 252.000 C 217.444 252.000,216.000 251.690,216.000 250.500 C 216.000 249.500,215.000 249.000,213.000 249.000 C 211.350 249.000,210.000 248.550,210.000 248.000 C 210.000 247.450,209.080 247.000,207.955 247.000 C 205.315 247.000,201.000 242.685,201.000 240.045 C 201.000 238.920,200.550 238.000,200.000 238.000 C 199.450 238.000,199.000 237.100,199.000 236.000 C 199.000 234.900,198.550 234.000,198.000 234.000 C 197.450 234.000,197.000 232.137,197.000 229.860 C 197.000 223.668,195.611 223.069,181.179 223.032 C 171.800 223.008,168.516 223.341,167.429 224.429 C 165.773 226.084,165.397 238.000,167.000 238.000 C 167.550 238.000,168.000 240.025,168.000 242.500 C 168.000 244.975,168.450 247.000,169.000 247.000 C 169.550 247.000,170.000 248.125,170.000 249.500 C 170.000 251.056,170.567 252.000,171.500 252.000 C 172.325 252.000,173.000 252.801,173.000 253.779 C 173.000 254.758,173.900 256.207,175.000 257.000 C 176.100 257.793,177.000 259.263,177.000 260.266 C 177.000 262.624,181.376 267.000,183.734 267.000 C 184.737 267.000,186.207 267.900,187.000 269.000 C 187.793 270.100,189.242 271.000,190.221 271.000 C 191.199 271.000,192.000 271.675,192.000 272.500 C 192.000 273.433,192.944 274.000,194.500 274.000 C 195.875 274.000,197.000 274.450,197.000 275.000 C 197.000 275.550,198.350 276.000,200.000 276.000 C 201.650 276.000,203.000 276.450,203.000 277.000 C 203.000 277.550,205.475 278.000,208.500 278.000 C 211.525 278.000,214.000 278.450,214.000 279.000 C 214.000 279.600,218.000 280.000,224.000 280.000 C 230.000 280.000,234.000 280.400,234.000 281.000 C 234.000 281.578,237.167 282.000,241.500 282.000 C 245.833 282.000,249.000 281.578,249.000 281.000 C 249.000 280.407,252.667 280.000,258.000 280.000 C 263.333 280.000,267.000 279.593,267.000 279.000 C 267.000 278.450,269.475 278.000,272.500 278.000 C 275.525 278.000,278.000 277.550,278.000 277.000 C 278.000 276.450,278.900 276.000,280.000 276.000 C 281.100 276.000,282.000 275.550,282.000 275.000 C 282.000 274.450,283.125 274.000,284.500 274.000 C 286.056 274.000,287.000 273.433,287.000 272.500 C 287.000 271.667,287.889 271.000,289.000 271.000 C 290.100 271.000,291.000 270.550,291.000 270.000 C 291.000 269.450,291.915 269.000,293.033 269.000 C 294.848 269.000,302.000 262.987,302.000 261.462 C 302.000 260.454,304.785 258.000,305.929 258.000 C 306.518 258.000,307.000 257.100,307.000 256.000 C 307.000 254.900,307.450 254.000,308.000 254.000 C 308.550 254.000,309.000 252.875,309.000 251.500 C 309.000 250.125,309.450 249.000,310.000 249.000 C 310.550 249.000,311.000 247.200,311.000 245.000 C 311.000 242.800,311.450 241.000,312.000 241.000 C 312.593 241.000,313.000 237.333,313.000 232.000 C 313.000 226.667,312.593 223.000,312.000 223.000 C 311.450 223.000,311.000 220.975,311.000 218.500 C 311.000 216.025,310.550 214.000,310.000 214.000 C 309.450 214.000,309.000 213.293,309.000 212.429 C 309.000 210.633,306.665 208.000,305.071 208.000 C 304.482 208.000,304.000 207.638,304.000 207.195 C 304.000 205.384,297.078 199.000,295.115 199.000 C 293.952 199.000,293.000 198.550,293.000 198.000 C 293.000 197.450,292.100 197.000,291.000 197.000 C 289.900 197.000,289.000 196.550,289.000 196.000 C 289.000 195.450,287.425 195.000,285.500 195.000 C 283.056 195.000,282.000 194.548,282.000 193.500 C 282.000 192.417,280.889 192.000,278.000 192.000 C 275.800 192.000,274.000 191.550,274.000 191.000 C 274.000 190.450,271.975 190.000,269.500 190.000 C 267.025 190.000,265.000 189.550,265.000 189.000 C 265.000 188.417,261.667 188.000,257.000 188.000 C 252.333 188.000,249.000 187.583,249.000 187.000 C 249.000 186.422,245.833 186.000,241.500 186.000 C 237.167 186.000,234.000 185.578,234.000 185.000 C 234.000 184.436,231.167 184.000,227.500 184.000 C 222.389 184.000,221.000 183.679,221.000 182.500 C 221.000 181.389,219.833 181.000,216.500 181.000 C 214.025 181.000,212.000 180.550,212.000 180.000 C 212.000 179.450,211.100 179.000,210.000 179.000 C 208.900 179.000,208.000 178.550,208.000 178.000 C 208.000 177.450,207.518 177.000,206.929 177.000 C 204.500 177.000,203.000 173.973,203.000 169.071 C 203.000 166.282,203.450 164.000,204.000 164.000 C 204.550 164.000,205.000 162.875,205.000 161.500 C 205.000 159.565,205.515 159.000,207.279 159.000 C 208.533 159.000,210.207 158.100,211.000 157.000 C 212.055 155.536,213.589 155.000,216.721 155.000 C 219.074 155.000,221.000 154.550,221.000 154.000 C 221.000 153.374,227.167 153.000,237.500 153.000 C 247.833 153.000,254.000 153.374,254.000 154.000 C 254.000 154.550,255.350 155.000,257.000 155.000 C 258.650 155.000,260.000 155.450,260.000 156.000 C 260.000 156.550,261.410 157.000,263.134 157.000 C 266.024 157.000,270.995 160.950,270.999 163.250 C 270.999 163.662,271.675 164.000,272.500 164.000 C 273.333 164.000,274.000 164.889,274.000 166.000 C 274.000 167.100,274.450 168.000,275.000 168.000 C 275.550 168.000,276.000 169.575,276.000 171.500 C 276.000 173.425,276.450 175.000,277.000 175.000 C 277.550 175.000,278.000 175.707,278.000 176.571 C 278.000 180.238,280.483 181.000,292.429 181.000 C 299.476 181.000,304.000 180.609,304.000 180.000 C 304.000 179.450,304.675 179.000,305.500 179.000 C 306.700 179.000,307.000 177.500,307.000 171.500 C 307.000 165.500,306.700 164.000,305.500 164.000 C 304.452 164.000,304.000 162.944,304.000 160.500 C 304.000 158.575,303.550 157.000,303.000 157.000 C 302.450 157.000,302.000 155.650,302.000 154.000 C 302.000 152.350,301.550 151.000,301.000 151.000 C 300.450 151.000,300.000 150.325,300.000 149.500 C 300.000 148.675,299.550 148.000,299.000 148.000 C 298.450 148.000,298.000 147.293,298.000 146.429 C 298.000 144.869,295.733 142.000,294.500 142.000 C 293.462 142.000,291.000 139.237,291.000 138.071 C 291.000 137.482,290.199 137.000,289.221 137.000 C 288.242 137.000,286.793 136.100,286.000 135.000 C 285.207 133.900,283.533 133.000,282.279 133.000 C 281.026 133.000,280.000 132.550,280.000 132.000 C 280.000 131.450,278.650 131.000,277.000 131.000 C 275.350 131.000,274.000 130.550,274.000 130.000 C 274.000 129.450,272.425 129.000,270.500 129.000 C 268.056 129.000,267.000 128.548,267.000 127.500 C 267.000 126.321,265.611 126.000,260.500 126.000 C 256.833 126.000,254.000 125.564,254.000 125.000 C 254.000 124.371,247.500 124.000,236.500 124.000 C 225.500 124.000,219.000 124.371,219.000 125.000 " stroke="none" fill="#000000" fill-rule="evenodd"></path></g></svg>