<svg id="svg" version="1.1" width="400" height="400" viewBox="0 0 400 400" xmlns="http://www.w3.org/2000/svg" xmlns:xlink="http://www.w3.org/1999/xlink" ><g id="svgg"><path id="path0" d="M198.667 0.113 C 198.275 0.274,193.260 3.211,193.167 3.333 C 193.121 3.392,192.746 3.622,192.333 3.842 C 191.921 4.062,188.459 6.063,184.641 8.288 C 180.822 10.513,177.659 12.333,177.613 12.333 C 177.499 12.333,174.304 14.217,173.250 14.906 C 172.792 15.205,171.817 15.775,171.083 16.172 C 170.350 16.568,168.737 17.489,167.500 18.217 C 163.129 20.790,156.906 24.401,156.054 24.859 C 155.580 25.115,154.417 25.800,153.471 26.383 C 152.524 26.966,151.225 27.729,150.583 28.077 C 148.747 29.075,146.313 30.495,145.583 30.993 C 145.217 31.243,144.392 31.732,143.750 32.080 C 143.108 32.427,140.783 33.765,138.583 35.053 C 136.383 36.341,133.233 38.168,131.583 39.114 C 128.539 40.858,126.358 42.138,125.000 42.976 C 124.587 43.230,123.725 43.725,123.083 44.075 C 121.707 44.825,118.166 46.879,117.333 47.410 C 115.948 48.294,108.004 52.833,107.844 52.833 C 107.746 52.833,107.667 52.908,107.667 53.000 C 107.667 53.092,107.571 53.167,107.455 53.167 C 107.338 53.167,106.838 53.433,106.344 53.758 C 105.455 54.344,103.566 55.446,100.500 57.169 C 99.629 57.658,98.220 58.499,97.369 59.037 C 96.518 59.575,95.693 60.063,95.536 60.122 C 95.379 60.181,93.525 61.240,91.417 62.475 C 84.777 66.365,82.813 67.501,80.500 68.790 C 79.262 69.479,78.025 70.205,77.750 70.404 C 77.209 70.794,74.903 72.167,74.788 72.167 C 74.693 72.167,69.384 75.252,69.123 75.459 C 69.009 75.549,68.504 75.849,68.000 76.127 C 67.496 76.404,65.265 77.689,63.042 78.982 C 60.819 80.275,58.926 81.333,58.834 81.333 C 58.742 81.333,58.667 81.391,58.667 81.460 C 58.667 81.530,58.518 81.662,58.337 81.752 C 58.155 81.843,56.974 82.511,55.712 83.238 C 54.449 83.964,52.629 85.010,51.667 85.561 C 50.704 86.113,49.692 86.728,49.417 86.929 C 49.142 87.130,48.354 87.594,47.667 87.962 C 46.979 88.329,43.342 90.422,39.583 92.613 C 35.825 94.804,32.392 96.781,31.955 97.006 C 31.519 97.232,30.656 97.754,30.039 98.167 L 28.917 98.917 28.875 197.999 L 28.833 297.082 29.208 297.377 C 29.644 297.720,31.873 299.084,33.083 299.747 C 33.542 299.998,36.842 301.947,40.417 304.077 C 43.992 306.207,47.517 308.305,48.250 308.740 C 48.983 309.175,50.237 309.933,51.036 310.424 C 51.835 310.915,52.922 311.558,53.452 311.853 C 53.983 312.148,57.267 314.089,60.750 316.167 C 64.233 318.245,67.584 320.239,68.196 320.598 C 68.807 320.956,70.255 321.831,71.413 322.542 C 72.571 323.252,73.555 323.833,73.601 323.833 C 73.646 323.833,76.548 325.548,80.050 327.644 C 83.552 329.739,86.867 331.700,87.417 332.002 C 87.967 332.303,89.017 332.942,89.750 333.421 C 90.483 333.900,91.946 334.780,93.000 335.378 C 94.054 335.975,97.563 338.046,100.797 339.980 C 104.031 341.914,107.106 343.733,107.631 344.023 C 108.155 344.313,109.071 344.864,109.667 345.248 C 110.263 345.632,111.462 346.361,112.333 346.869 C 114.213 347.965,117.812 350.102,118.167 350.332 C 118.648 350.644,127.093 355.615,128.083 356.169 C 128.633 356.476,129.121 356.777,129.167 356.838 C 129.212 356.899,130.375 357.607,131.750 358.412 C 133.889 359.664,136.794 361.395,138.725 362.570 C 139.014 362.745,141.481 364.208,144.208 365.820 C 152.962 370.993,154.567 371.945,159.583 374.945 C 160.592 375.547,163.067 377.009,165.083 378.193 C 167.100 379.377,168.862 380.417,169.000 380.505 C 169.137 380.592,170.525 381.424,172.083 382.354 C 174.814 383.983,175.845 384.602,179.083 386.558 C 179.908 387.057,180.883 387.630,181.250 387.833 C 181.617 388.036,184.842 389.944,188.417 392.073 C 191.992 394.202,195.517 396.299,196.250 396.732 C 196.983 397.166,198.221 397.923,199.000 398.415 C 200.822 399.564,200.632 399.589,203.657 397.802 C 205.083 396.960,206.631 396.066,207.096 395.816 C 207.561 395.566,208.611 394.947,209.429 394.441 C 211.088 393.414,212.553 392.547,215.750 390.699 C 216.942 390.010,218.292 389.208,218.750 388.917 C 219.697 388.316,227.151 383.939,228.417 383.241 C 228.875 382.989,229.925 382.357,230.750 381.837 C 231.575 381.318,232.700 380.642,233.250 380.336 C 235.069 379.325,239.082 376.950,239.167 376.835 C 239.213 376.773,239.761 376.443,240.385 376.103 C 241.009 375.762,243.109 374.538,245.052 373.383 C 246.994 372.228,248.919 371.100,249.329 370.877 C 249.738 370.653,250.263 370.337,250.495 370.174 C 250.727 370.012,252.454 368.996,254.333 367.917 C 256.212 366.839,258.237 365.640,258.833 365.253 C 259.429 364.866,260.367 364.304,260.917 364.002 C 261.467 363.701,264.129 362.142,266.833 360.538 C 273.243 356.735,274.220 356.162,275.417 355.503 C 275.967 355.200,277.484 354.287,278.788 353.476 C 280.092 352.664,281.204 352.000,281.260 352.000 C 281.315 352.000,283.586 350.677,286.305 349.060 C 294.453 344.217,294.712 344.064,295.750 343.494 C 296.300 343.192,297.200 342.660,297.750 342.313 C 298.300 341.965,299.368 341.322,300.124 340.882 C 301.664 339.986,307.114 336.751,307.500 336.503 C 308.056 336.146,316.433 331.267,317.309 330.791 C 317.826 330.509,318.287 330.225,318.333 330.160 C 318.379 330.094,319.879 329.201,321.667 328.175 C 323.454 327.149,325.779 325.781,326.833 325.136 C 327.887 324.491,330.475 322.950,332.583 321.711 C 334.692 320.472,337.617 318.748,339.083 317.878 C 340.550 317.009,342.238 316.029,342.833 315.702 C 343.429 315.374,344.554 314.711,345.333 314.230 C 346.113 313.748,347.350 313.001,348.083 312.570 C 351.640 310.479,356.224 307.776,359.092 306.078 C 360.838 305.044,362.697 303.966,363.223 303.681 C 363.748 303.397,365.244 302.504,366.547 301.697 C 367.851 300.890,369.254 300.058,369.667 299.849 C 370.079 299.639,370.548 299.351,370.708 299.208 C 371.163 298.804,371.163 98.189,370.708 97.805 C 370.403 97.546,365.456 94.660,361.333 92.336 C 360.004 91.587,358.204 90.545,357.333 90.021 C 356.462 89.496,355.412 88.886,355.000 88.664 C 353.340 87.770,350.865 86.336,350.004 85.768 C 349.502 85.437,349.039 85.167,348.975 85.167 C 348.911 85.167,346.783 83.967,344.245 82.500 C 341.707 81.033,339.569 79.833,339.494 79.833 C 339.419 79.833,339.258 79.737,339.137 79.620 C 338.884 79.375,334.890 77.052,332.917 76.003 C 332.183 75.613,331.358 75.129,331.083 74.928 C 330.583 74.562,326.739 72.333,326.609 72.333 C 326.571 72.333,325.499 71.724,324.228 70.980 C 322.957 70.236,321.617 69.462,321.250 69.260 C 320.883 69.058,318.971 67.956,317.000 66.811 C 315.029 65.666,313.004 64.511,312.500 64.244 C 311.996 63.977,311.358 63.599,311.083 63.403 C 310.808 63.208,309.271 62.312,307.667 61.413 C 306.063 60.514,304.188 59.443,303.500 59.033 C 302.813 58.623,301.500 57.857,300.583 57.332 C 293.957 53.532,291.377 52.048,288.750 50.527 C 287.100 49.572,285.188 48.489,284.500 48.120 C 283.813 47.750,283.212 47.400,283.167 47.341 C 283.121 47.282,281.958 46.592,280.583 45.808 C 275.343 42.821,274.718 42.461,273.583 41.771 C 272.942 41.381,272.079 40.881,271.667 40.659 C 271.254 40.438,268.094 38.627,264.645 36.636 C 261.195 34.644,257.595 32.591,256.645 32.072 C 255.694 31.554,254.879 31.077,254.833 31.013 C 254.748 30.894,251.832 29.211,249.750 28.079 C 249.108 27.730,248.096 27.145,247.500 26.779 C 246.904 26.412,245.292 25.477,243.917 24.699 C 242.542 23.922,239.992 22.458,238.250 21.447 C 232.798 18.281,229.961 16.657,228.667 15.961 C 227.979 15.591,227.229 15.157,227.000 14.998 C 226.339 14.537,224.045 13.199,222.500 12.373 C 221.721 11.957,220.171 11.065,219.055 10.392 C 217.940 9.718,216.946 9.167,216.847 9.167 C 216.748 9.167,216.667 9.092,216.667 9.000 C 216.667 8.908,216.592 8.833,216.501 8.833 C 216.376 8.833,208.755 4.539,207.333 3.667 C 201.790 0.268,200.034 -0.452,198.667 0.113 M285.125 148.026 L 285.083 216.219 283.417 217.208 C 282.501 217.752,281.713 218.251,281.667 218.316 C 281.621 218.382,280.908 218.838,280.083 219.331 C 279.258 219.823,277.357 220.981,275.859 221.905 C 274.360 222.828,272.935 223.704,272.692 223.850 C 272.449 223.997,271.050 224.854,269.583 225.754 C 268.117 226.654,266.017 227.925,264.917 228.580 C 263.817 229.235,262.129 230.276,261.167 230.893 C 260.204 231.511,258.442 232.600,257.250 233.312 C 256.058 234.025,253.696 235.473,252.000 236.531 C 250.304 237.588,247.379 239.374,245.500 240.498 C 243.621 241.622,241.746 242.785,241.333 243.081 C 240.921 243.378,240.246 243.807,239.833 244.035 C 239.421 244.262,237.902 245.171,236.459 246.054 L 233.835 247.659 230.821 245.746 C 229.163 244.694,227.761 243.833,227.705 243.833 C 227.650 243.833,227.450 243.695,227.261 243.526 C 227.072 243.357,225.829 242.543,224.500 241.718 C 220.571 239.280,216.922 236.986,214.167 235.221 C 212.746 234.311,210.496 232.899,209.167 232.084 C 207.838 231.269,206.656 230.509,206.540 230.395 C 206.425 230.281,205.300 229.557,204.040 228.786 C 202.781 228.014,200.813 226.786,199.667 226.055 C 198.521 225.325,197.045 224.413,196.386 224.029 C 195.727 223.646,195.090 223.236,194.969 223.119 C 194.849 223.002,193.737 222.276,192.500 221.506 C 191.262 220.736,188.825 219.206,187.083 218.107 C 185.342 217.007,182.454 215.189,180.667 214.066 C 178.879 212.944,176.430 211.382,175.224 210.596 C 174.018 209.810,172.949 209.167,172.849 209.167 C 172.749 209.167,172.667 209.092,172.667 209.000 C 172.667 208.908,172.479 208.833,172.250 208.833 L 171.833 208.833 171.833 247.238 L 171.833 285.642 170.574 286.406 C 169.882 286.827,169.225 287.247,169.116 287.340 C 168.944 287.486,166.661 288.883,159.475 293.239 C 158.618 293.758,157.279 294.596,156.500 295.100 C 155.721 295.604,154.971 296.065,154.833 296.124 C 154.544 296.249,151.574 298.063,147.750 300.450 C 146.283 301.366,143.583 303.014,141.750 304.113 C 139.917 305.211,137.854 306.488,137.167 306.949 C 136.479 307.410,135.686 307.906,135.403 308.050 C 135.121 308.195,132.983 309.492,130.653 310.933 C 128.323 312.375,124.432 314.754,122.005 316.221 C 119.579 317.688,117.465 319.007,117.308 319.152 C 117.150 319.298,116.567 319.665,116.011 319.970 L 115.000 320.523 115.000 249.963 L 115.000 179.403 116.125 178.753 C 116.744 178.396,117.946 177.664,118.797 177.128 C 119.648 176.591,120.465 176.106,120.611 176.049 C 120.867 175.951,122.160 175.197,130.787 170.114 C 132.915 168.860,134.690 167.833,134.731 167.833 C 134.841 167.833,138.114 165.895,139.083 165.255 C 139.542 164.953,140.414 164.437,141.022 164.109 C 141.631 163.781,145.062 161.785,148.648 159.673 C 152.234 157.561,155.201 155.833,155.242 155.833 C 155.326 155.833,157.941 154.280,159.417 153.354 C 159.967 153.008,160.843 152.493,161.365 152.208 C 162.295 151.699,165.604 149.762,168.467 148.050 C 169.264 147.573,169.978 147.179,170.054 147.175 C 170.208 147.166,172.136 148.277,175.583 150.363 C 176.867 151.140,178.554 152.136,179.333 152.578 C 180.112 153.020,181.237 153.697,181.833 154.082 C 182.429 154.468,183.285 154.987,183.735 155.236 C 184.184 155.485,186.172 156.651,188.151 157.826 C 190.131 159.001,192.012 160.113,192.333 160.296 C 192.654 160.479,193.929 161.248,195.167 162.005 C 196.404 162.762,197.897 163.642,198.485 163.959 C 199.072 164.276,200.010 164.826,200.568 165.180 C 201.941 166.050,202.984 166.671,208.333 169.805 C 210.854 171.282,212.992 172.550,213.083 172.622 C 213.175 172.695,214.450 173.458,215.917 174.318 C 217.383 175.179,219.282 176.303,220.137 176.816 C 225.649 180.130,227.463 181.147,227.875 181.156 L 228.333 181.167 228.333 147.095 L 228.333 113.024 229.313 112.429 C 229.853 112.101,230.335 111.833,230.386 111.833 C 230.437 111.833,231.552 111.186,232.864 110.395 C 234.176 109.603,235.775 108.651,236.417 108.278 C 237.058 107.905,238.633 106.990,239.917 106.244 C 241.200 105.498,244.178 103.751,246.534 102.361 C 248.890 100.971,250.853 99.833,250.895 99.833 C 250.973 99.833,253.469 98.344,255.917 96.836 C 256.650 96.384,257.299 96.011,257.360 96.007 C 257.528 95.996,262.881 92.831,263.180 92.566 C 263.325 92.438,263.493 92.333,263.555 92.333 C 263.617 92.333,265.373 91.333,267.459 90.111 C 269.544 88.889,271.700 87.642,272.250 87.339 C 272.800 87.036,274.000 86.323,274.917 85.754 C 275.833 85.185,277.071 84.454,277.667 84.129 C 279.209 83.289,282.502 81.354,283.030 80.978 C 283.630 80.552,284.886 79.838,285.042 79.835 C 285.111 79.834,285.148 110.520,285.125 148.026 " stroke="none" fill="#000000" fill-rule="evenodd"></path><path id="path1" d="M198.667 0.113 C 198.275 0.274,193.260 3.211,193.167 3.333 C 193.121 3.392,192.746 3.622,192.333 3.842 C 191.921 4.062,188.459 6.063,184.641 8.288 C 180.822 10.513,177.659 12.333,177.613 12.333 C 177.499 12.333,174.304 14.217,173.250 14.906 C 172.792 15.205,171.817 15.775,171.083 16.172 C 170.350 16.568,168.737 17.489,167.500 18.217 C 163.129 20.790,156.906 24.401,156.054 24.859 C 155.580 25.115,154.417 25.800,153.471 26.383 C 152.524 26.966,151.225 27.729,150.583 28.077 C 148.747 29.075,146.313 30.495,145.583 30.993 C 145.217 31.243,144.392 31.732,143.750 32.080 C 143.108 32.427,140.783 33.765,138.583 35.053 C 136.383 36.341,133.233 38.168,131.583 39.114 C 128.539 40.858,126.358 42.138,125.000 42.976 C 124.587 43.230,123.725 43.725,123.083 44.075 C 121.707 44.825,118.166 46.879,117.333 47.410 C 115.948 48.294,108.004 52.833,107.844 52.833 C 107.746 52.833,107.667 52.908,107.667 53.000 C 107.667 53.092,107.571 53.167,107.455 53.167 C 107.338 53.167,106.838 53.433,106.344 53.758 C 105.455 54.344,103.566 55.446,100.500 57.169 C 99.629 57.658,98.220 58.499,97.369 59.037 C 96.518 59.575,95.693 60.063,95.536 60.122 C 95.379 60.181,93.525 61.240,91.417 62.475 C 84.777 66.365,82.813 67.501,80.500 68.790 C 79.262 69.479,78.025 70.205,77.750 70.404 C 77.209 70.794,74.903 72.167,74.788 72.167 C 74.693 72.167,69.384 75.252,69.123 75.459 C 69.009 75.549,68.504 75.849,68.000 76.127 C 67.496 76.404,65.265 77.689,63.042 78.982 C 60.819 80.275,58.926 81.333,58.834 81.333 C 58.742 81.333,58.667 81.391,58.667 81.460 C 58.667 81.530,58.518 81.662,58.337 81.752 C 58.155 81.843,56.974 82.511,55.712 83.238 C 54.449 83.964,52.629 85.010,51.667 85.561 C 50.704 86.113,49.692 86.728,49.417 86.929 C 49.142 87.130,48.354 87.594,47.667 87.962 C 46.979 88.329,43.342 90.422,39.583 92.613 C 35.825 94.804,32.392 96.781,31.955 97.006 C 31.519 97.232,30.656 97.754,30.039 98.167 L 28.917 98.917 28.875 197.999 L 28.833 297.082 29.208 297.377 C 29.644 297.720,31.873 299.084,33.083 299.747 C 33.542 299.998,36.842 301.947,40.417 304.077 C 43.992 306.207,47.517 308.305,48.250 308.740 C 48.983 309.175,50.237 309.933,51.036 310.424 C 51.835 310.915,52.922 311.558,53.452 311.853 C 53.983 312.148,57.267 314.089,60.750 316.167 C 64.233 318.245,67.584 320.239,68.196 320.598 C 68.807 320.956,70.255 321.831,71.413 322.542 C 72.571 323.252,73.555 323.833,73.601 323.833 C 73.646 323.833,76.548 325.548,80.050 327.644 C 83.552 329.739,86.867 331.700,87.417 332.002 C 87.967 332.303,89.017 332.942,89.750 333.421 C 90.483 333.900,91.946 334.780,93.000 335.378 C 94.054 335.975,97.563 338.046,100.797 339.980 C 104.031 341.914,107.106 343.733,107.631 344.023 C 108.155 344.313,109.071 344.864,109.667 345.248 C 110.263 345.632,111.462 346.361,112.333 346.869 C 114.213 347.965,117.812 350.102,118.167 350.332 C 118.648 350.644,127.093 355.615,128.083 356.169 C 128.633 356.476,129.121 356.777,129.167 356.838 C 129.212 356.899,130.375 357.607,131.750 358.412 C 133.889 359.664,136.794 361.395,138.725 362.570 C 139.014 362.745,141.481 364.208,144.208 365.820 C 152.962 370.993,154.567 371.945,159.583 374.945 C 160.592 375.547,163.067 377.009,165.083 378.193 C 167.100 379.377,168.862 380.417,169.000 380.505 C 169.137 380.592,170.525 381.424,172.083 382.354 C 174.814 383.983,175.845 384.602,179.083 386.558 C 179.908 387.057,180.883 387.630,181.250 387.833 C 181.617 388.036,184.842 389.944,188.417 392.073 C 191.992 394.202,195.517 396.299,196.250 396.732 C 196.983 397.166,198.221 397.923,199.000 398.415 C 200.822 399.564,200.632 399.589,203.657 397.802 C 205.083 396.960,206.631 396.066,207.096 395.816 C 207.561 395.566,208.611 394.947,209.429 394.441 C 211.088 393.414,212.553 392.547,215.750 390.699 C 216.942 390.010,218.292 389.208,218.750 388.917 C 219.697 388.316,227.151 383.939,228.417 383.241 C 228.875 382.989,229.925 382.357,230.750 381.837 C 231.575 381.318,232.700 380.642,233.250 380.336 C 235.069 379.325,239.082 376.950,239.167 376.835 C 239.213 376.773,239.761 376.443,240.385 376.103 C 241.009 375.762,243.109 374.538,245.052 373.383 C 246.994 372.228,248.919 371.100,249.329 370.877 C 249.738 370.653,250.263 370.337,250.495 370.174 C 250.727 370.012,252.454 368.996,254.333 367.917 C 256.212 366.839,258.237 365.640,258.833 365.253 C 259.429 364.866,260.367 364.304,260.917 364.002 C 261.467 363.701,264.129 362.142,266.833 360.538 C 273.243 356.735,274.220 356.162,275.417 355.503 C 275.967 355.200,277.484 354.287,278.788 353.476 C 280.092 352.664,281.204 352.000,281.260 352.000 C 281.315 352.000,283.586 350.677,286.305 349.060 C 294.453 344.217,294.712 344.064,295.750 343.494 C 296.300 343.192,297.200 342.660,297.750 342.313 C 298.300 341.965,299.368 341.322,300.124 340.882 C 301.664 339.986,307.114 336.751,307.500 336.503 C 308.056 336.146,316.433 331.267,317.309 330.791 C 317.826 330.509,318.287 330.225,318.333 330.160 C 318.379 330.094,319.879 329.201,321.667 328.175 C 323.454 327.149,325.779 325.781,326.833 325.136 C 327.887 324.491,330.475 322.950,332.583 321.711 C 334.692 320.472,337.617 318.748,339.083 317.878 C 340.550 317.009,342.238 316.029,342.833 315.702 C 343.429 315.374,344.554 314.711,345.333 314.230 C 346.113 313.748,347.350 313.001,348.083 312.570 C 351.640 310.479,356.224 307.776,359.092 306.078 C 360.838 305.044,362.697 303.966,363.223 303.681 C 363.748 303.397,365.244 302.504,366.547 301.697 C 367.851 300.890,369.254 300.058,369.667 299.849 C 370.079 299.639,370.548 299.351,370.708 299.208 C 371.163 298.804,371.163 98.189,370.708 97.805 C 370.403 97.546,365.456 94.660,361.333 92.336 C 360.004 91.587,358.204 90.545,357.333 90.021 C 356.462 89.496,355.412 88.886,355.000 88.664 C 353.340 87.770,350.865 86.336,350.004 85.768 C 349.502 85.437,349.039 85.167,348.975 85.167 C 348.911 85.167,346.783 83.967,344.245 82.500 C 341.707 81.033,339.569 79.833,339.494 79.833 C 339.419 79.833,339.258 79.737,339.137 79.620 C 338.884 79.375,334.890 77.052,332.917 76.003 C 332.183 75.613,331.358 75.129,331.083 74.928 C 330.583 74.562,326.739 72.333,326.609 72.333 C 326.571 72.333,325.499 71.724,324.228 70.980 C 322.957 70.236,321.617 69.462,321.250 69.260 C 320.883 69.058,318.971 67.956,317.000 66.811 C 315.029 65.666,313.004 64.511,312.500 64.244 C 311.996 63.977,311.358 63.599,311.083 63.403 C 310.808 63.208,309.271 62.312,307.667 61.413 C 306.063 60.514,304.188 59.443,303.500 59.033 C 302.813 58.623,301.500 57.857,300.583 57.332 C 293.957 53.532,291.377 52.048,288.750 50.527 C 287.100 49.572,285.188 48.489,284.500 48.120 C 283.813 47.750,283.212 47.400,283.167 47.341 C 283.121 47.282,281.958 46.592,280.583 45.808 C 275.343 42.821,274.718 42.461,273.583 41.771 C 272.942 41.381,272.079 40.881,271.667 40.659 C 271.254 40.438,268.094 38.627,264.645 36.636 C 261.195 34.644,257.595 32.591,256.645 32.072 C 255.694 31.554,254.879 31.077,254.833 31.013 C 254.748 30.894,251.832 29.211,249.750 28.079 C 249.108 27.730,248.096 27.145,247.500 26.779 C 246.904 26.412,245.292 25.477,243.917 24.699 C 242.542 23.922,239.992 22.458,238.250 21.447 C 232.798 18.281,229.961 16.657,228.667 15.961 C 227.979 15.591,227.229 15.157,227.000 14.998 C 226.339 14.537,224.045 13.199,222.500 12.373 C 221.721 11.957,220.171 11.065,219.055 10.392 C 217.940 9.718,216.946 9.167,216.847 9.167 C 216.748 9.167,216.667 9.092,216.667 9.000 C 216.667 8.908,216.592 8.833,216.501 8.833 C 216.376 8.833,208.755 4.539,207.333 3.667 C 201.790 0.268,200.034 -0.452,198.667 0.113 M285.125 148.026 L 285.083 216.219 283.417 217.208 C 282.501 217.752,281.713 218.251,281.667 218.316 C 281.621 218.382,280.908 218.838,280.083 219.331 C 279.258 219.823,277.357 220.981,275.859 221.905 C 274.360 222.828,272.935 223.704,272.692 223.850 C 272.449 223.997,271.050 224.854,269.583 225.754 C 268.117 226.654,266.017 227.925,264.917 228.580 C 263.817 229.235,262.129 230.276,261.167 230.893 C 260.204 231.511,258.442 232.600,257.250 233.312 C 256.058 234.025,253.696 235.473,252.000 236.531 C 250.304 237.588,247.379 239.374,245.500 240.498 C 243.621 241.622,241.746 242.785,241.333 243.081 C 240.921 243.378,240.246 243.807,239.833 244.035 C 239.421 244.262,237.902 245.171,236.459 246.054 L 233.835 247.659 230.821 245.746 C 229.163 244.694,227.761 243.833,227.705 243.833 C 227.650 243.833,227.450 243.695,227.261 243.526 C 227.072 243.357,225.829 242.543,224.500 241.718 C 220.571 239.280,216.922 236.986,214.167 235.221 C 212.746 234.311,210.496 232.899,209.167 232.084 C 207.838 231.269,206.656 230.509,206.540 230.395 C 206.425 230.281,205.300 229.557,204.040 228.786 C 202.781 228.014,200.813 226.786,199.667 226.055 C 198.521 225.325,197.045 224.413,196.386 224.029 C 195.727 223.646,195.090 223.236,194.969 223.119 C 194.849 223.002,193.737 222.276,192.500 221.506 C 191.262 220.736,188.825 219.206,187.083 218.107 C 185.342 217.007,182.454 215.189,180.667 214.066 C 178.879 212.944,176.430 211.382,175.224 210.596 C 174.018 209.810,172.949 209.167,172.849 209.167 C 172.749 209.167,172.667 209.092,172.667 209.000 C 172.667 208.908,172.479 208.833,172.250 208.833 L 171.833 208.833 171.833 247.238 L 171.833 285.642 170.574 286.406 C 169.882 286.827,169.225 287.247,169.116 287.340 C 168.944 287.486,166.661 288.883,159.475 293.239 C 158.618 293.758,157.279 294.596,156.500 295.100 C 155.721 295.604,154.971 296.065,154.833 296.124 C 154.544 296.249,151.574 298.063,147.750 300.450 C 146.283 301.366,143.583 303.014,141.750 304.113 C 139.917 305.211,137.854 306.488,137.167 306.949 C 136.479 307.410,135.686 307.906,135.403 308.050 C 135.121 308.195,132.983 309.492,130.653 310.933 C 128.323 312.375,124.432 314.754,122.005 316.221 C 119.579 317.688,117.465 319.007,117.308 319.152 C 117.150 319.298,116.567 319.665,116.011 319.970 L 115.000 320.523 115.000 249.963 L 115.000 179.403 116.125 178.753 C 116.744 178.396,117.946 177.664,118.797 177.128 C 119.648 176.591,120.465 176.106,120.611 176.049 C 120.867 175.951,122.160 175.197,130.787 170.114 C 132.915 168.860,134.690 167.833,134.731 167.833 C 134.841 167.833,138.114 165.895,139.083 165.255 C 139.542 164.953,140.414 164.437,141.022 164.109 C 141.631 163.781,145.062 161.785,148.648 159.673 C 152.234 157.561,155.201 155.833,155.242 155.833 C 155.326 155.833,157.941 154.280,159.417 153.354 C 159.967 153.008,160.843 152.493,161.365 152.208 C 162.295 151.699,165.604 149.762,168.467 148.050 C 169.264 147.573,169.978 147.179,170.054 147.175 C 170.208 147.166,172.136 148.277,175.583 150.363 C 176.867 151.140,178.554 152.136,179.333 152.578 C 180.112 153.020,181.237 153.697,181.833 154.082 C 182.429 154.468,183.285 154.987,183.735 155.236 C 184.184 155.485,186.172 156.651,188.151 157.826 C 190.131 159.001,192.012 160.113,192.333 160.296 C 192.654 160.479,193.929 161.248,195.167 162.005 C 196.404 162.762,197.897 163.642,198.485 163.959 C 199.072 164.276,200.010 164.826,200.568 165.180 C 201.941 166.050,202.984 166.671,208.333 169.805 C 210.854 171.282,212.992 172.550,213.083 172.622 C 213.175 172.695,214.450 173.458,215.917 174.318 C 217.383 175.179,219.282 176.303,220.137 176.816 C 225.649 180.130,227.463 181.147,227.875 181.156 L 228.333 181.167 228.333 147.095 L 228.333 113.024 229.313 112.429 C 229.853 112.101,230.335 111.833,230.386 111.833 C 230.437 111.833,231.552 111.186,232.864 110.395 C 234.176 109.603,235.775 108.651,236.417 108.278 C 237.058 107.905,238.633 106.990,239.917 106.244 C 241.200 105.498,244.178 103.751,246.534 102.361 C 248.890 100.971,250.853 99.833,250.895 99.833 C 250.973 99.833,253.469 98.344,255.917 96.836 C 256.650 96.384,257.299 96.011,257.360 96.007 C 257.528 95.996,262.881 92.831,263.180 92.566 C 263.325 92.438,263.493 92.333,263.555 92.333 C 263.617 92.333,265.373 91.333,267.459 90.111 C 269.544 88.889,271.700 87.642,272.250 87.339 C 272.800 87.036,274.000 86.323,274.917 85.754 C 275.833 85.185,277.071 84.454,277.667 84.129 C 279.209 83.289,282.502 81.354,283.030 80.978 C 283.630 80.552,284.886 79.838,285.042 79.835 C 285.111 79.834,285.148 110.520,285.125 148.026 " stroke="none" fill="#000000" fill-rule="evenodd"></path></g></svg>