<svg version="1.1" width="400" height="400" xmlns="http://www.w3.org/2000/svg">
<g>
<path d="M0.000 189.000 L 0.000 256.000 55.500 256.000 L 111.000 256.000 111.000 267.000 L 111.000 278.000 155.500 278.000 L 200.000 278.000 200.000 267.000 L 200.000 256.000 300.000 256.000 L 400.000 256.000 400.000 189.000 L 400.000 122.000 200.000 122.000 L 0.000 122.000 0.000 189.000 M111.000 188.500 L 111.000 233.000 100.000 233.000 L 89.000 233.000 89.000 200.000 L 89.000 167.000 78.000 167.000 L 67.000 167.000 67.000 200.000 L 67.000 233.000 44.500 233.000 L 22.000 233.000 22.000 188.500 L 22.000 144.000 66.500 144.000 L 111.000 144.000 111.000 188.500 M222.000 188.500 L 222.000 233.000 200.000 233.000 L 178.000 233.000 178.000 244.500 L 178.000 256.000 155.500 256.000 L 133.000 256.000 133.000 200.000 L 133.000 144.000 177.500 144.000 L 222.000 144.000 222.000 188.500 M378.000 188.500 L 378.000 233.000 367.000 233.000 L 356.000 233.000 356.000 200.000 L 356.000 167.000 344.500 167.000 L 333.000 167.000 333.000 200.000 L 333.000 233.000 322.000 233.000 L 311.000 233.000 311.000 200.000 L 311.000 167.000 300.000 167.000 L 289.000 167.000 289.000 200.000 L 289.000 233.000 266.500 233.000 L 244.000 233.000 244.000 189.167 C 244.000 165.058,244.300 145.033,244.667 144.667 C 245.033 144.300,275.183 144.000,311.667 144.000 L 378.000 144.000 378.000 188.500 M178.000 189.000 L 178.000 211.000 189.000 211.000 L 200.000 211.000 200.000 189.000 L 200.000 167.000 189.000 167.000 L 178.000 167.000 178.000 189.000 " stroke="none" fill-rule="evenodd"></path>
</g>
</svg>