<svg xmlns="http://www.w3.org/2000/svg" width="400" height="400" viewBox="0, 0, 400,400" version="1.1"><g><path d="M191.691 0.678 C 185.326 0.887,178.116 1.343,175.668 1.690 C 173.220 2.037,169.262 2.602,166.873 2.945 C 141.772 6.547,110.335 19.248,86.944 35.238 C 78.483 41.021,55.835 60.246,55.088 62.278 C 54.983 62.566,53.427 64.364,51.632 66.274 C 4.197 116.742,-12.393 195.914,10.332 263.367 C 22.818 300.427,43.675 330.325,75.371 356.598 C 87.716 366.831,110.781 380.213,126.113 386.038 C 128.398 386.906,131.202 388.004,132.344 388.478 C 143.323 393.030,167.130 398.110,183.800 399.457 C 237.151 403.768,289.412 386.797,330.267 351.894 C 336.083 346.925,350.642 332.200,353.445 328.450 C 354.407 327.165,355.564 325.722,356.018 325.245 C 365.058 315.741,380.701 288.258,387.447 270.030 C 423.099 173.689,380.828 67.197,288.523 20.818 C 259.354 6.162,227.345 -0.496,191.691 0.678 M216.914 21.651 C 272.854 27.412,320.301 56.342,350.963 103.384 C 353.453 107.204,355.490 110.452,355.490 110.602 C 355.490 110.752,356.570 112.748,357.890 115.038 C 359.209 117.327,361.706 122.358,363.438 126.217 C 416.941 245.478,330.314 379.384,199.703 379.314 C 78.416 379.249,-7.248 261.894,29.175 145.697 C 54.161 65.987,134.161 13.128,216.914 21.651 M254.896 48.062 C 248.015 49.604,248.020 49.581,245.717 89.614 C 244.429 111.990,243.532 112.723,218.885 111.538 C 200.099 110.635,195.451 108.537,182.804 95.252 C 179.074 91.335,173.604 85.593,170.647 82.493 C 167.689 79.392,160.672 72.013,155.053 66.096 C 139.623 49.848,135.586 48.834,120.251 57.354 C 87.852 75.357,62.492 103.758,48.426 137.792 C 43.274 150.259,43.625 154.146,50.170 157.099 C 52.362 158.088,56.469 158.181,110.386 158.468 C 175.221 158.814,170.537 158.487,178.687 163.239 C 182.359 165.380,200.238 183.122,215.733 200.000 C 217.980 202.448,222.343 207.118,225.428 210.379 C 233.918 219.352,237.272 225.345,238.231 233.254 C 238.686 237.012,237.576 261.994,233.780 333.410 C 232.337 360.548,237.041 362.266,270.085 346.674 C 302.634 331.315,341.514 291.622,342.893 272.344 C 343.444 264.646,342.610 263.348,326.166 246.288 C 315.940 235.679,299.827 218.735,297.275 215.907 C 294.674 213.025,291.492 207.236,289.836 202.374 C 288.866 199.526,288.724 197.217,288.724 184.273 C 288.724 158.062,286.786 159.514,322.346 159.070 L 347.660 158.754 350.201 156.912 C 353.693 154.382,354.649 151.655,353.719 146.884 C 352.504 140.655,345.989 126.254,339.892 116.320 C 338.590 114.199,336.974 111.528,336.301 110.386 C 320.524 83.589,269.768 44.729,254.896 48.062 M238.825 133.509 C 261.364 141.300,275.698 171.492,262.303 182.958 C 251.318 192.361,227.560 180.933,218.151 161.721 C 208.076 141.151,218.760 126.573,238.825 133.509 " stroke="none" fill-rule="evenodd"></path></g></svg>