<svg xmlns="http://www.w3.org/2000/svg" width="400" height="400" viewBox="0, 0, 400,400">
<g>
<path d="M162.167 49.444 C 160.608 49.793,159.333 50.328,159.333 50.634 C 159.333 50.939,158.616 51.369,157.739 51.589 C 155.874 52.057,151.587 56.149,150.990 58.032 C 150.763 58.748,150.333 59.333,150.036 59.333 C 149.738 59.333,149.122 60.233,148.667 61.333 C 148.211 62.433,147.614 63.333,147.339 63.333 C 147.065 63.333,146.467 64.664,146.012 66.291 C 145.557 67.917,144.768 69.408,144.259 69.603 C 143.750 69.798,143.333 70.418,143.333 70.979 C 143.333 71.541,143.063 72.000,142.732 72.000 C 142.401 72.000,141.817 72.900,141.433 74.000 C 141.050 75.100,140.468 76.000,140.140 76.000 C 139.813 76.000,139.185 77.200,138.745 78.667 C 138.306 80.133,137.695 81.333,137.387 81.333 C 137.080 81.333,136.434 82.308,135.952 83.500 C 135.470 84.692,134.892 85.817,134.667 86.000 C 134.442 86.183,133.863 87.308,133.381 88.500 C 132.899 89.692,132.253 90.667,131.946 90.667 C 131.638 90.667,131.027 91.867,130.588 93.333 C 130.148 94.800,129.521 96.000,129.193 96.000 C 128.865 96.000,128.284 96.900,127.900 98.000 C 127.517 99.100,126.956 100.000,126.654 100.000 C 126.353 100.000,125.909 100.898,125.668 101.996 C 125.426 103.094,124.845 104.219,124.376 104.496 C 123.906 104.773,123.156 106.125,122.709 107.500 C 122.262 108.875,121.639 110.000,121.325 110.000 C 121.010 110.000,120.373 111.050,119.909 112.333 C 119.445 113.617,118.882 114.667,118.657 114.667 C 118.433 114.667,117.837 115.717,117.333 117.000 C 116.830 118.283,116.186 119.333,115.902 119.333 C 115.619 119.333,115.027 120.533,114.588 122.000 C 114.148 123.467,113.521 124.667,113.193 124.667 C 112.865 124.667,112.284 125.567,111.900 126.667 C 111.517 127.767,110.988 128.667,110.726 128.667 C 110.464 128.667,109.837 129.717,109.333 131.000 C 108.830 132.283,108.222 133.333,107.982 133.333 C 107.743 133.333,107.156 134.518,106.678 135.965 C 106.200 137.413,105.402 138.753,104.905 138.944 C 104.407 139.135,104.000 139.751,104.000 140.312 C 104.000 140.874,103.724 141.333,103.386 141.333 C 103.049 141.333,102.570 142.254,102.323 143.378 C 102.076 144.503,101.495 145.569,101.032 145.746 C 100.569 145.924,99.800 147.254,99.322 148.701 C 98.844 150.149,98.257 151.333,98.018 151.333 C 97.778 151.333,97.170 152.383,96.667 153.667 C 96.163 154.950,95.536 156.000,95.274 156.000 C 95.012 156.000,94.483 156.900,94.100 158.000 C 93.716 159.100,93.135 160.000,92.807 160.000 C 92.479 160.000,91.852 161.200,91.412 162.667 C 90.973 164.133,90.381 165.333,90.098 165.333 C 89.814 165.333,89.170 166.383,88.667 167.667 C 88.163 168.950,87.567 170.000,87.343 170.000 C 87.118 170.000,86.555 171.050,86.091 172.333 C 85.627 173.617,84.978 174.667,84.650 174.667 C 84.322 174.667,83.694 175.867,83.255 177.333 C 82.815 178.800,82.259 180.000,82.019 180.000 C 81.779 180.000,81.170 181.050,80.667 182.333 C 80.163 183.617,79.536 184.667,79.274 184.667 C 79.012 184.667,78.483 185.567,78.100 186.667 C 77.716 187.767,77.135 188.667,76.807 188.667 C 76.479 188.667,75.852 189.867,75.412 191.333 C 74.973 192.800,74.345 194.000,74.016 194.000 C 73.688 194.000,73.040 195.050,72.576 196.333 C 72.112 197.617,71.525 198.667,71.272 198.667 C 71.018 198.667,70.637 199.361,70.424 200.210 C 70.211 201.059,69.428 202.455,68.685 203.312 C 67.942 204.169,67.333 205.275,67.333 205.769 C 67.333 206.263,67.089 206.667,66.791 206.667 C 66.493 206.667,65.837 207.717,65.333 209.000 C 64.830 210.283,64.197 211.333,63.927 211.333 C 63.657 211.333,63.071 212.458,62.624 213.833 C 62.177 215.208,61.427 216.560,60.958 216.837 C 60.488 217.114,59.907 218.239,59.666 219.337 C 59.425 220.435,58.988 221.333,58.695 221.333 C 58.402 221.333,57.789 222.233,57.333 223.333 C 56.878 224.433,56.289 225.333,56.025 225.333 C 55.761 225.333,55.185 226.533,54.745 228.000 C 54.306 229.467,53.678 230.667,53.350 230.667 C 53.022 230.667,52.373 231.717,51.909 233.000 C 51.445 234.283,50.882 235.333,50.657 235.333 C 50.433 235.333,49.837 236.383,49.333 237.667 C 48.830 238.950,48.203 240.000,47.941 240.000 C 47.678 240.000,47.150 240.900,46.767 242.000 C 46.383 243.100,45.801 244.000,45.474 244.000 C 45.146 244.000,44.518 245.200,44.079 246.667 C 43.639 248.133,43.048 249.333,42.764 249.333 C 42.481 249.333,41.837 250.383,41.333 251.667 C 40.830 252.950,40.198 254.000,39.929 254.000 C 39.659 254.000,39.237 254.920,38.990 256.045 C 38.743 257.170,38.162 258.235,37.699 258.413 C 37.236 258.591,36.466 259.921,35.989 261.368 C 35.511 262.816,34.941 264.000,34.723 264.000 C 34.504 264.000,33.896 264.975,33.370 266.167 C 32.845 267.358,32.022 268.730,31.541 269.214 C 31.060 269.699,30.667 270.492,30.667 270.976 C 30.667 271.461,30.245 272.019,29.730 272.217 C 29.214 272.415,28.590 273.497,28.343 274.622 C 28.096 275.746,27.647 276.667,27.346 276.667 C 27.044 276.667,26.483 277.567,26.100 278.667 C 25.716 279.767,25.135 280.667,24.807 280.667 C 24.479 280.667,23.852 281.867,23.412 283.333 C 22.973 284.800,22.345 286.000,22.016 286.000 C 21.688 286.000,21.040 287.050,20.576 288.333 C 20.112 289.617,19.548 290.667,19.324 290.667 C 19.099 290.667,18.504 291.717,18.000 293.000 C 17.496 294.283,16.888 295.333,16.649 295.333 C 16.409 295.333,15.823 296.518,15.345 297.965 C 14.867 299.413,14.097 300.742,13.634 300.920 C 13.171 301.098,12.590 302.164,12.343 303.288 C 12.096 304.413,11.654 305.333,11.361 305.333 C 11.068 305.333,10.456 306.233,10.000 307.333 C 9.544 308.433,8.955 309.333,8.691 309.333 C 8.427 309.333,7.852 310.533,7.412 312.000 C 6.973 313.467,6.345 314.667,6.016 314.667 C 5.688 314.667,5.040 315.717,4.576 317.000 C 4.112 318.283,3.504 319.333,3.226 319.333 C 2.947 319.333,2.347 321.133,1.893 323.333 C 1.438 325.533,0.827 327.333,0.533 327.333 C 0.240 327.333,0.000 329.433,0.000 332.000 C 0.000 334.567,0.235 336.667,0.521 336.667 C 0.808 336.667,1.434 337.995,1.914 339.618 C 2.393 341.241,3.208 342.732,3.726 342.930 C 4.243 343.129,4.667 343.751,4.667 344.312 C 4.667 344.874,5.106 345.333,5.643 345.333 C 6.180 345.333,6.928 345.909,7.304 346.612 C 7.681 347.316,8.966 348.104,10.161 348.363 C 11.356 348.622,12.547 349.171,12.809 349.584 C 13.511 350.690,125.333 351.020,125.333 349.916 C 125.333 349.483,124.173 348.050,122.755 346.731 C 121.337 345.412,119.946 343.583,119.665 342.667 C 119.384 341.750,118.851 340.806,118.481 340.568 C 118.111 340.331,117.662 337.858,117.484 335.073 L 117.159 330.009 70.079 329.838 L 23.000 329.667 23.113 327.364 C 23.175 326.097,23.653 324.747,24.175 324.364 C 24.697 323.980,25.494 322.542,25.947 321.167 C 26.400 319.792,27.010 318.667,27.304 318.667 C 27.598 318.667,28.233 317.692,28.715 316.500 C 29.197 315.308,29.758 314.183,29.962 314.000 C 30.382 313.623,32.205 310.501,33.466 308.000 C 33.928 307.083,34.486 306.183,34.707 306.000 C 34.927 305.817,35.531 304.692,36.049 303.500 C 36.568 302.308,37.196 301.333,37.444 301.333 C 37.693 301.333,38.262 300.208,38.709 298.833 C 39.156 297.458,39.906 296.107,40.376 295.829 C 40.845 295.552,41.426 294.427,41.668 293.329 C 41.909 292.232,42.346 291.333,42.639 291.333 C 42.932 291.333,43.544 290.433,44.000 289.333 C 44.456 288.233,45.045 287.333,45.309 287.333 C 45.573 287.333,46.148 286.133,46.588 284.667 C 47.027 283.200,47.655 282.000,47.984 282.000 C 48.312 282.000,48.960 280.950,49.424 279.667 C 49.888 278.383,50.452 277.333,50.676 277.333 C 50.901 277.333,51.496 276.283,52.000 275.000 C 52.504 273.717,53.130 272.667,53.393 272.667 C 53.655 272.667,54.183 271.767,54.567 270.667 C 54.950 269.567,55.532 268.667,55.860 268.667 C 56.187 268.667,56.815 267.467,57.255 266.000 C 57.694 264.533,58.285 263.333,58.569 263.333 C 58.853 263.333,59.496 262.283,60.000 261.000 C 60.504 259.717,61.136 258.667,61.405 258.667 C 61.674 258.667,62.096 257.746,62.343 256.622 C 62.590 255.497,63.171 254.431,63.634 254.254 C 64.097 254.076,64.867 252.746,65.345 251.299 C 65.823 249.851,66.465 248.667,66.773 248.667 C 67.081 248.667,67.333 248.232,67.333 247.700 C 67.333 247.168,67.726 246.493,68.206 246.200 C 68.686 245.907,69.493 244.617,70.000 243.333 C 70.507 242.050,71.291 240.773,71.742 240.496 C 72.193 240.219,72.760 239.094,73.001 237.996 C 73.242 236.898,73.686 236.000,73.988 236.000 C 74.289 236.000,74.850 235.100,75.233 234.000 C 75.617 232.900,76.199 232.000,76.526 232.000 C 76.854 232.000,77.482 230.800,77.921 229.333 C 78.361 227.867,78.989 226.667,79.317 226.667 C 79.645 226.667,80.293 225.617,80.757 224.333 C 81.221 223.050,81.817 222.000,82.081 222.000 C 82.345 222.000,82.758 221.102,82.999 220.004 C 83.240 218.906,83.807 217.781,84.258 217.504 C 84.709 217.227,85.493 215.950,86.000 214.667 C 86.507 213.383,87.291 212.107,87.742 211.829 C 88.193 211.552,88.760 210.427,89.001 209.329 C 89.242 208.232,89.686 207.333,89.988 207.333 C 90.289 207.333,90.850 206.433,91.233 205.333 C 91.617 204.233,92.199 203.333,92.526 203.333 C 92.854 203.333,93.482 202.133,93.921 200.667 C 94.361 199.200,94.972 198.000,95.279 198.000 C 95.587 198.000,96.233 197.025,96.715 195.833 C 97.197 194.642,97.775 193.517,98.000 193.333 C 98.225 193.150,98.803 192.025,99.285 190.833 C 99.767 189.642,100.402 188.667,100.696 188.667 C 100.990 188.667,101.596 187.542,102.043 186.167 C 102.490 184.792,103.239 183.440,103.709 183.163 C 104.178 182.886,104.760 181.761,105.001 180.663 C 105.242 179.565,105.710 178.667,106.040 178.667 C 106.371 178.667,106.824 177.938,107.047 177.048 C 107.271 176.158,107.848 175.278,108.331 175.093 C 108.813 174.908,109.410 173.836,109.657 172.712 C 109.904 171.587,110.346 170.667,110.639 170.667 C 110.932 170.667,111.544 169.767,112.000 168.667 C 112.456 167.567,113.068 166.667,113.361 166.667 C 113.654 166.667,114.096 165.746,114.343 164.622 C 114.590 163.497,115.171 162.431,115.634 162.254 C 116.097 162.076,116.867 160.746,117.345 159.299 C 117.823 157.851,118.409 156.667,118.649 156.667 C 118.888 156.667,119.496 155.617,120.000 154.333 C 120.504 153.050,121.130 152.000,121.393 152.000 C 121.655 152.000,122.183 151.100,122.567 150.000 C 122.950 148.900,123.541 148.000,123.879 148.000 C 124.217 148.000,124.871 146.650,125.333 145.000 C 125.795 143.350,126.398 142.000,126.672 142.000 C 126.947 142.000,127.544 141.100,128.000 140.000 C 128.456 138.900,129.068 138.000,129.361 138.000 C 129.654 138.000,130.096 137.080,130.343 135.955 C 130.590 134.830,131.171 133.765,131.634 133.587 C 132.097 133.409,132.867 132.079,133.345 130.632 C 133.823 129.184,134.409 128.000,134.649 128.000 C 134.888 128.000,135.496 126.950,136.000 125.667 C 136.504 124.383,137.130 123.333,137.393 123.333 C 137.655 123.333,138.183 122.433,138.567 121.333 C 138.950 120.233,139.556 119.333,139.912 119.333 C 140.269 119.333,140.759 118.430,141.002 117.326 C 141.244 116.223,141.861 114.900,142.374 114.388 C 143.626 113.136,146.667 107.360,146.667 106.234 C 146.667 105.739,146.982 105.333,147.368 105.333 C 147.754 105.333,148.383 104.433,148.767 103.333 C 149.150 102.233,149.678 101.333,149.941 101.333 C 150.203 101.333,150.830 100.283,151.333 99.000 C 151.837 97.717,152.445 96.667,152.684 96.667 C 152.924 96.667,153.511 95.482,153.989 94.035 C 154.466 92.587,155.236 91.258,155.699 91.080 C 156.162 90.902,156.743 89.836,156.990 88.712 C 157.237 87.587,157.686 86.667,157.988 86.667 C 158.289 86.667,158.850 85.767,159.233 84.667 C 159.617 83.567,160.199 82.667,160.526 82.667 C 160.854 82.667,161.482 81.467,161.921 80.000 C 162.361 78.533,162.972 77.333,163.279 77.333 C 163.587 77.333,164.211 76.433,164.667 75.333 C 165.933 72.275,169.095 73.430,170.358 77.413 C 170.577 78.102,170.989 78.667,171.273 78.667 C 171.557 78.667,172.148 79.867,172.588 81.333 C 173.027 82.800,173.655 84.000,173.984 84.000 C 174.312 84.000,174.960 85.050,175.424 86.333 C 175.888 87.617,176.475 88.667,176.728 88.667 C 176.982 88.667,177.363 89.361,177.576 90.210 C 177.789 91.059,178.572 92.455,179.315 93.312 C 180.058 94.169,180.667 95.275,180.667 95.769 C 180.667 96.263,180.906 96.667,181.199 96.667 C 181.492 96.667,182.112 97.717,182.576 99.000 C 183.040 100.283,183.688 101.333,184.016 101.333 C 184.345 101.333,184.973 102.533,185.412 104.000 C 185.852 105.467,186.408 106.667,186.648 106.667 C 186.888 106.667,187.496 107.717,188.000 109.000 C 188.504 110.283,189.147 111.333,189.431 111.333 C 189.715 111.333,190.306 112.533,190.745 114.000 C 191.185 115.467,191.813 116.667,192.140 116.667 C 192.468 116.667,193.050 117.567,193.433 118.667 C 193.817 119.767,194.377 120.667,194.679 120.667 C 194.981 120.667,195.430 121.587,195.677 122.712 C 195.924 123.836,196.505 124.902,196.968 125.080 C 197.431 125.258,198.200 126.587,198.678 128.035 C 199.156 129.482,199.743 130.667,199.982 130.667 C 200.222 130.667,200.830 131.717,201.333 133.000 C 201.837 134.283,202.481 135.333,202.764 135.333 C 203.048 135.333,203.639 136.533,204.079 138.000 C 204.518 139.467,205.105 140.667,205.383 140.667 C 205.661 140.667,206.839 142.617,208.000 145.000 C 209.161 147.383,210.343 149.333,210.626 149.333 C 210.909 149.333,211.419 150.306,211.761 151.495 C 212.396 153.710,214.667 154.949,214.667 153.082 C 214.667 152.523,215.059 151.826,215.539 151.533 C 216.019 151.240,216.826 149.950,217.333 148.667 C 217.840 147.383,218.648 146.093,219.128 145.800 C 219.607 145.507,220.000 144.832,220.000 144.300 C 220.000 143.768,220.276 143.333,220.614 143.333 C 220.951 143.333,221.425 142.435,221.666 141.337 C 221.907 140.239,222.462 139.114,222.899 138.837 C 225.177 137.394,225.601 130.000,223.406 130.000 C 223.136 130.000,222.504 128.950,222.000 127.667 C 221.496 126.383,220.840 125.333,220.542 125.333 C 220.244 125.333,220.000 124.905,220.000 124.381 C 220.000 123.857,219.607 123.032,219.126 122.548 C 218.645 122.063,217.822 120.692,217.296 119.500 C 216.771 118.308,216.162 117.333,215.944 117.333 C 215.725 117.333,215.156 116.149,214.678 114.701 C 214.200 113.254,213.431 111.924,212.968 111.746 C 212.505 111.569,211.924 110.503,211.677 109.378 C 211.430 108.254,210.974 107.333,210.665 107.333 C 210.356 107.333,209.757 106.283,209.333 105.000 C 208.910 103.717,208.299 102.667,207.975 102.667 C 207.652 102.667,207.027 101.467,206.588 100.000 C 206.148 98.533,205.573 97.333,205.309 97.333 C 205.045 97.333,204.456 96.433,204.000 95.333 C 203.544 94.233,202.955 93.333,202.691 93.333 C 202.427 93.333,201.852 92.133,201.412 90.667 C 200.973 89.200,200.345 88.000,200.016 88.000 C 199.688 88.000,199.040 86.950,198.576 85.667 C 198.112 84.383,197.540 83.333,197.306 83.333 C 197.072 83.333,196.489 82.149,196.011 80.701 C 195.534 79.254,194.764 77.924,194.301 77.746 C 193.838 77.569,193.257 76.503,193.010 75.378 C 192.763 74.254,192.314 73.333,192.012 73.333 C 191.711 73.333,191.150 72.433,190.767 71.333 C 190.383 70.233,189.754 69.333,189.368 69.333 C 188.982 69.333,188.667 68.926,188.667 68.427 C 188.667 67.494,185.173 60.623,183.783 58.821 C 181.701 56.124,177.349 52.095,176.084 51.693 C 175.304 51.446,174.667 50.994,174.667 50.690 C 174.667 50.386,172.767 49.806,170.445 49.402 C 165.718 48.578,166.039 48.577,162.167 49.444 M258.667 97.926 C 258.667 98.252,257.607 98.717,256.313 98.960 C 252.495 99.676,246.621 104.327,245.643 107.408 C 245.423 108.100,244.993 108.667,244.687 108.667 C 244.381 108.667,243.817 109.567,243.433 110.667 C 243.050 111.767,242.444 112.667,242.088 112.667 C 241.731 112.667,241.237 113.587,240.990 114.712 C 240.743 115.836,240.170 116.899,239.717 117.073 C 239.264 117.247,238.487 118.426,237.989 119.694 C 237.492 120.962,236.877 122.000,236.623 122.000 C 236.369 122.000,235.789 122.900,235.333 124.000 C 234.878 125.100,234.297 126.000,234.044 126.000 C 233.790 126.000,233.170 127.050,232.667 128.333 C 232.163 129.617,231.500 130.667,231.192 130.667 C 229.995 130.667,229.255 134.202,230.051 136.123 C 230.478 137.155,231.069 138.000,231.363 138.000 C 231.656 138.000,232.262 139.125,232.709 140.500 C 233.156 141.875,233.906 143.227,234.376 143.504 C 234.845 143.781,235.426 144.906,235.668 146.004 C 235.909 147.102,236.353 148.000,236.654 148.000 C 236.956 148.000,237.517 148.900,237.900 150.000 C 238.284 151.100,238.913 152.000,239.299 152.000 C 239.684 152.000,240.000 152.450,240.000 153.000 C 240.000 155.205,242.453 154.000,243.322 151.368 C 243.800 149.921,244.569 148.591,245.032 148.413 C 245.495 148.235,246.076 147.170,246.323 146.045 C 246.570 144.920,246.993 144.000,247.262 144.000 C 247.531 144.000,248.163 142.950,248.667 141.667 C 249.170 140.383,249.797 139.333,250.059 139.333 C 250.322 139.333,250.850 138.433,251.233 137.333 C 251.617 136.233,252.222 135.333,252.579 135.333 C 252.936 135.333,253.425 134.435,253.666 133.337 C 253.907 132.239,254.456 131.114,254.885 130.837 C 255.605 130.373,257.137 127.857,258.938 124.179 C 260.258 121.484,263.414 121.769,264.333 124.666 C 264.566 125.400,264.989 126.000,265.273 126.000 C 265.557 126.000,266.148 127.200,266.588 128.667 C 267.027 130.133,267.638 131.333,267.946 131.333 C 268.253 131.333,268.899 132.308,269.381 133.500 C 269.863 134.692,270.442 135.817,270.667 136.000 C 270.892 136.183,271.470 137.308,271.952 138.500 C 272.434 139.692,273.069 140.667,273.363 140.667 C 273.656 140.667,274.262 141.792,274.709 143.167 C 275.156 144.542,275.906 145.893,276.376 146.171 C 276.845 146.448,277.426 147.573,277.668 148.671 C 277.909 149.768,278.353 150.667,278.654 150.667 C 278.956 150.667,279.517 151.567,279.900 152.667 C 280.284 153.767,280.865 154.667,281.193 154.667 C 281.521 154.667,282.148 155.867,282.588 157.333 C 283.027 158.800,283.619 160.000,283.902 160.000 C 284.186 160.000,284.830 161.050,285.333 162.333 C 285.837 163.617,286.433 164.667,286.657 164.667 C 286.882 164.667,287.445 165.717,287.909 167.000 C 288.373 168.283,289.010 169.333,289.325 169.333 C 289.639 169.333,290.262 170.441,290.709 171.796 C 291.156 173.150,291.785 174.575,292.107 174.962 C 292.428 175.350,293.267 176.366,293.971 177.221 C 294.675 178.077,295.444 179.652,295.679 180.721 C 295.914 181.791,296.326 182.667,296.595 182.667 C 296.864 182.667,297.496 183.717,298.000 185.000 C 298.504 186.283,299.130 187.333,299.393 187.333 C 299.655 187.333,300.183 188.233,300.567 189.333 C 300.950 190.433,301.532 191.333,301.860 191.333 C 302.187 191.333,302.815 192.533,303.255 194.000 C 303.694 195.467,304.285 196.667,304.569 196.667 C 304.853 196.667,305.496 197.717,306.000 199.000 C 306.504 200.283,307.112 201.333,307.351 201.333 C 307.591 201.333,308.177 202.518,308.655 203.965 C 309.133 205.413,309.903 206.742,310.366 206.920 C 310.829 207.098,311.410 208.164,311.657 209.288 C 311.904 210.413,312.346 211.333,312.639 211.333 C 312.932 211.333,313.544 212.233,314.000 213.333 C 314.456 214.433,315.068 215.333,315.361 215.333 C 315.654 215.333,316.089 216.219,316.326 217.302 C 316.564 218.385,317.297 219.960,317.954 220.802 C 318.612 221.644,319.361 223.008,319.620 223.833 C 319.878 224.658,320.314 225.333,320.587 225.333 C 320.861 225.333,321.496 226.383,322.000 227.667 C 322.504 228.950,323.112 230.000,323.351 230.000 C 323.591 230.000,324.177 231.184,324.655 232.632 C 325.133 234.079,325.903 235.409,326.366 235.587 C 326.829 235.765,327.410 236.830,327.657 237.955 C 327.904 239.080,328.353 240.000,328.654 240.000 C 328.956 240.000,329.517 240.900,329.900 242.000 C 330.284 243.100,330.889 244.000,331.246 244.000 C 331.602 244.000,332.092 244.900,332.333 246.000 C 332.575 247.100,333.012 248.000,333.305 248.000 C 333.598 248.000,334.211 248.900,334.667 250.000 C 335.122 251.100,335.735 252.000,336.028 252.000 C 336.321 252.000,336.755 252.886,336.993 253.969 C 337.231 255.051,337.964 256.626,338.621 257.469 C 339.279 258.311,340.028 259.675,340.287 260.500 C 340.545 261.325,341.012 262.000,341.325 262.000 C 341.638 262.000,342.091 262.898,342.332 263.996 C 342.574 265.094,343.140 266.219,343.591 266.496 C 344.042 266.773,344.826 268.050,345.333 269.333 C 345.840 270.617,346.624 271.893,347.075 272.171 C 347.527 272.448,348.093 273.573,348.334 274.671 C 348.575 275.768,349.019 276.667,349.321 276.667 C 349.623 276.667,350.183 277.567,350.567 278.667 C 350.950 279.767,351.532 280.667,351.860 280.667 C 352.187 280.667,352.815 281.867,353.255 283.333 C 353.694 284.800,354.285 286.000,354.569 286.000 C 354.853 286.000,355.496 287.050,356.000 288.333 C 356.504 289.617,357.099 290.667,357.324 290.667 C 357.548 290.667,358.112 291.717,358.576 293.000 C 359.040 294.283,359.652 295.333,359.936 295.333 C 360.221 295.333,360.849 296.533,361.333 298.000 C 361.817 299.467,362.409 300.667,362.649 300.667 C 362.888 300.667,363.496 301.717,364.000 303.000 C 364.504 304.283,365.114 305.333,365.357 305.333 C 365.599 305.333,366.283 306.458,366.876 307.833 C 368.033 310.515,369.167 312.398,370.500 313.853 C 370.958 314.353,371.333 315.176,371.333 315.681 C 371.333 316.187,371.741 316.840,372.239 317.134 C 372.737 317.427,373.510 318.792,373.957 320.167 C 374.404 321.542,374.991 322.667,375.261 322.667 C 375.530 322.667,376.163 323.717,376.667 325.000 C 377.170 326.283,377.826 327.333,378.124 327.333 C 379.107 327.333,378.689 329.182,377.612 329.595 C 377.032 329.818,367.950 330.000,357.429 330.000 L 338.301 330.000 337.479 335.167 C 337.027 338.008,336.360 340.433,335.995 340.556 C 335.631 340.678,335.333 341.128,335.333 341.556 C 335.332 341.983,334.582 343.205,333.666 344.270 C 332.750 345.336,332.000 346.387,332.000 346.608 C 332.000 346.828,331.100 347.406,330.000 347.893 C 328.900 348.380,328.000 349.215,328.000 349.749 C 328.000 350.940,385.680 350.855,386.525 349.663 C 386.786 349.294,388.138 348.595,389.530 348.109 C 392.867 346.943,397.898 342.009,398.423 339.387 C 398.648 338.258,399.096 337.333,399.417 337.333 C 399.738 337.333,400.000 334.933,400.000 332.000 C 400.000 329.067,399.757 326.667,399.459 326.667 C 399.162 326.667,398.534 325.167,398.064 323.333 C 397.595 321.500,396.950 320.000,396.632 320.000 C 396.314 320.000,395.694 318.800,395.255 317.333 C 394.815 315.867,394.187 314.667,393.860 314.667 C 393.532 314.667,392.950 313.767,392.567 312.667 C 392.183 311.567,391.623 310.667,391.321 310.667 C 391.019 310.667,390.570 309.746,390.323 308.622 C 390.076 307.497,389.495 306.431,389.032 306.254 C 388.569 306.076,387.800 304.746,387.322 303.299 C 386.844 301.851,386.257 300.667,386.018 300.667 C 385.778 300.667,385.170 299.617,384.667 298.333 C 384.163 297.050,383.527 296.000,383.254 296.000 C 382.980 296.000,382.545 295.325,382.287 294.500 C 382.028 293.675,381.279 292.311,380.621 291.469 C 379.964 290.626,379.231 289.051,378.993 287.969 C 378.755 286.886,378.321 286.000,378.028 286.000 C 377.735 286.000,377.122 285.100,376.667 284.000 C 376.211 282.900,375.622 282.000,375.358 282.000 C 375.094 282.000,374.518 280.800,374.079 279.333 C 373.639 277.867,373.011 276.667,372.683 276.667 C 372.355 276.667,371.707 275.617,371.243 274.333 C 370.779 273.050,370.159 272.000,369.866 272.000 C 369.573 272.000,369.333 271.596,369.333 271.102 C 369.333 270.608,368.725 269.503,367.982 268.646 C 367.239 267.789,366.456 266.393,366.243 265.544 C 366.030 264.695,365.648 264.000,365.395 264.000 C 365.142 264.000,364.555 262.950,364.091 261.667 C 363.627 260.383,362.990 259.333,362.675 259.333 C 362.361 259.333,361.738 258.208,361.291 256.833 C 360.844 255.458,360.094 254.107,359.624 253.829 C 359.155 253.552,358.574 252.427,358.332 251.329 C 358.091 250.232,357.647 249.333,357.346 249.333 C 357.044 249.333,356.483 248.433,356.100 247.333 C 355.716 246.233,355.135 245.333,354.807 245.333 C 354.479 245.333,353.852 244.133,353.412 242.667 C 352.973 241.200,352.381 240.000,352.098 240.000 C 351.814 240.000,351.170 238.950,350.667 237.667 C 350.163 236.383,349.555 235.333,349.316 235.333 C 349.076 235.333,348.489 234.149,348.011 232.701 C 347.534 231.254,346.764 229.924,346.301 229.746 C 345.838 229.569,345.257 228.503,345.010 227.378 C 344.763 226.254,344.314 225.333,344.012 225.333 C 343.711 225.333,343.150 224.433,342.767 223.333 C 342.383 222.233,341.778 221.333,341.421 221.333 C 341.064 221.333,340.578 220.447,340.340 219.365 C 340.102 218.282,339.370 216.707,338.712 215.865 C 338.055 215.022,337.305 213.658,337.047 212.833 C 336.788 212.008,336.321 211.333,336.008 211.333 C 335.695 211.333,335.237 210.413,334.990 209.288 C 334.743 208.164,334.146 207.092,333.664 206.907 C 333.182 206.722,332.604 205.842,332.381 204.952 C 332.157 204.062,331.704 203.333,331.374 203.333 C 331.043 203.333,330.570 202.413,330.323 201.288 C 330.076 200.164,329.495 199.098,329.032 198.920 C 328.569 198.742,327.800 197.413,327.322 195.965 C 326.844 194.518,326.257 193.333,326.018 193.333 C 325.778 193.333,325.170 192.283,324.667 191.000 C 324.163 189.717,323.530 188.667,323.261 188.667 C 322.991 188.667,322.404 187.542,321.957 186.167 C 321.510 184.792,320.761 183.440,320.291 183.163 C 319.822 182.886,319.240 181.761,318.999 180.663 C 318.758 179.565,318.321 178.667,318.028 178.667 C 317.735 178.667,317.122 177.767,316.667 176.667 C 316.211 175.567,315.622 174.667,315.358 174.667 C 315.094 174.667,314.518 173.467,314.079 172.000 C 313.639 170.533,313.028 169.333,312.721 169.333 C 312.413 169.333,311.767 168.358,311.285 167.167 C 310.803 165.975,310.225 164.850,310.000 164.667 C 309.775 164.483,309.197 163.358,308.715 162.167 C 308.233 160.975,307.587 160.000,307.279 160.000 C 306.972 160.000,306.361 158.800,305.921 157.333 C 305.482 155.867,304.906 154.667,304.642 154.667 C 304.378 154.667,303.789 153.767,303.333 152.667 C 302.878 151.567,302.289 150.667,302.025 150.667 C 301.761 150.667,301.185 149.467,300.745 148.000 C 300.306 146.533,299.682 145.333,299.358 145.333 C 299.035 145.333,298.424 144.283,298.000 143.000 C 297.576 141.717,296.953 140.667,296.615 140.667 C 296.277 140.667,296.000 140.232,296.000 139.700 C 296.000 139.168,295.592 138.493,295.094 138.200 C 294.596 137.907,293.823 136.542,293.376 135.167 C 292.929 133.792,292.343 132.667,292.073 132.667 C 291.803 132.667,291.170 131.617,290.667 130.333 C 290.163 129.050,289.555 128.000,289.316 128.000 C 289.076 128.000,288.489 126.816,288.011 125.368 C 287.534 123.921,286.764 122.591,286.301 122.413 C 285.838 122.235,285.257 121.170,285.010 120.045 C 284.763 118.920,284.314 118.000,284.012 118.000 C 283.711 118.000,283.150 117.100,282.767 116.000 C 282.383 114.900,281.778 114.000,281.421 114.000 C 281.064 114.000,280.581 113.125,280.346 112.056 C 280.111 110.988,279.187 109.263,278.294 108.223 C 277.400 107.184,276.668 106.124,276.667 105.868 C 276.666 105.093,273.565 102.000,272.790 102.000 C 272.392 102.000,271.815 101.550,271.507 101.001 C 271.200 100.451,269.385 99.630,267.474 99.176 C 265.563 98.722,264.000 98.122,264.000 97.842 C 264.000 97.562,262.800 97.333,261.333 97.333 C 259.867 97.333,258.667 97.600,258.667 97.926 M225.806 139.509 C 225.149 140.329,224.441 141.675,224.233 142.500 C 224.026 143.325,223.661 144.000,223.424 144.000 C 223.186 144.000,222.568 144.975,222.049 146.167 C 221.531 147.358,220.927 148.483,220.707 148.667 C 220.486 148.850,219.928 149.750,219.466 150.667 C 218.205 153.167,216.382 156.290,215.962 156.667 C 215.758 156.850,215.197 157.975,214.715 159.167 C 214.233 160.358,213.587 161.333,213.279 161.333 C 212.972 161.333,212.361 162.533,211.921 164.000 C 211.482 165.467,210.854 166.667,210.526 166.667 C 210.199 166.667,209.617 167.567,209.233 168.667 C 208.850 169.767,208.322 170.667,208.059 170.667 C 207.797 170.667,207.170 171.717,206.667 173.000 C 206.163 174.283,205.567 175.333,205.343 175.333 C 205.118 175.333,204.555 176.383,204.091 177.667 C 203.627 178.950,203.014 180.000,202.730 180.000 C 202.446 180.000,201.823 181.184,201.345 182.632 C 200.867 184.079,200.097 185.409,199.634 185.587 C 199.171 185.765,198.590 186.830,198.343 187.955 C 198.096 189.080,197.654 190.000,197.361 190.000 C 197.068 190.000,196.456 190.900,196.000 192.000 C 195.544 193.100,194.932 194.000,194.639 194.000 C 194.346 194.000,193.909 194.898,193.668 195.996 C 193.426 197.094,192.860 198.219,192.409 198.496 C 191.958 198.773,191.174 200.050,190.667 201.333 C 190.160 202.617,189.376 203.893,188.925 204.171 C 188.473 204.448,187.907 205.573,187.666 206.671 C 187.425 207.768,186.988 208.667,186.695 208.667 C 186.402 208.667,185.789 209.567,185.333 210.667 C 184.878 211.767,184.265 212.667,183.972 212.667 C 183.679 212.667,183.237 213.587,182.990 214.712 C 182.743 215.836,182.138 216.912,181.645 217.101 C 181.152 217.290,180.556 218.320,180.321 219.389 C 180.086 220.458,179.654 221.333,179.361 221.333 C 179.068 221.333,178.456 222.233,178.000 223.333 C 177.544 224.433,176.932 225.333,176.639 225.333 C 176.346 225.333,175.909 226.232,175.668 227.329 C 175.426 228.427,174.860 229.552,174.409 229.829 C 173.958 230.107,173.174 231.383,172.667 232.667 C 172.160 233.950,171.376 235.227,170.925 235.504 C 170.473 235.781,169.907 236.906,169.666 238.004 C 169.425 239.102,168.988 240.000,168.695 240.000 C 168.402 240.000,167.789 240.900,167.333 242.000 C 166.878 243.100,166.265 244.000,165.972 244.000 C 165.679 244.000,165.242 244.898,165.001 245.996 C 164.760 247.094,164.193 248.219,163.742 248.496 C 163.291 248.773,162.507 250.050,162.000 251.333 C 161.493 252.617,160.709 253.893,160.258 254.171 C 159.807 254.448,159.240 255.573,158.999 256.671 C 158.758 257.768,158.341 258.667,158.071 258.667 C 157.802 258.667,157.170 259.717,156.667 261.000 C 156.163 262.283,155.536 263.333,155.274 263.333 C 155.012 263.333,154.483 264.233,154.100 265.333 C 153.716 266.433,153.135 267.333,152.807 267.333 C 152.479 267.333,151.852 268.533,151.412 270.000 C 150.973 271.467,150.362 272.667,150.054 272.667 C 149.747 272.667,149.101 273.642,148.619 274.833 C 148.137 276.025,147.575 277.150,147.370 277.333 C 147.165 277.517,146.548 278.567,145.999 279.667 C 145.450 280.767,144.625 282.063,144.167 282.548 C 143.708 283.032,143.333 283.825,143.333 284.310 C 143.333 284.794,142.912 285.353,142.396 285.550 C 141.881 285.748,141.257 286.830,141.010 287.955 C 140.763 289.080,140.304 290.000,139.990 290.000 C 139.676 290.000,139.040 291.050,138.576 292.333 C 138.112 293.617,137.522 294.667,137.265 294.667 C 137.007 294.667,136.483 295.567,136.100 296.667 C 135.716 297.767,135.135 298.667,134.807 298.667 C 134.479 298.667,133.852 299.867,133.412 301.333 C 132.973 302.800,132.345 304.000,132.016 304.000 C 131.688 304.000,131.040 305.050,130.576 306.333 C 130.112 307.617,129.548 308.667,129.324 308.667 C 129.099 308.667,128.504 309.717,128.000 311.000 C 127.496 312.283,126.870 313.333,126.607 313.333 C 126.345 313.333,125.817 314.233,125.433 315.333 C 125.050 316.433,124.456 317.333,124.114 317.333 C 123.772 317.333,123.134 318.754,122.696 320.491 C 122.259 322.228,121.554 323.863,121.130 324.125 C 120.109 324.756,120.039 339.184,121.053 339.856 C 121.449 340.119,122.191 341.293,122.701 342.467 C 123.212 343.640,124.388 344.989,125.315 345.465 C 126.242 345.942,127.227 346.683,127.504 347.113 C 127.781 347.544,128.981 348.107,130.171 348.365 C 131.360 348.623,132.547 349.171,132.809 349.584 C 133.158 350.133,158.425 350.333,227.333 350.333 C 296.241 350.333,321.509 350.133,321.858 349.584 C 322.119 349.171,323.329 348.618,324.545 348.354 C 325.761 348.090,326.919 347.453,327.116 346.937 C 327.314 346.422,327.850 346.000,328.308 346.000 C 329.304 346.000,332.667 342.086,332.667 340.927 C 332.667 340.478,332.962 340.011,333.323 339.889 C 335.464 339.164,335.393 324.000,333.249 324.000 C 332.987 324.000,332.575 323.100,332.333 322.000 C 332.092 320.900,331.630 320.000,331.307 320.000 C 330.984 320.000,330.361 318.800,329.921 317.333 C 329.482 315.867,328.854 314.667,328.526 314.667 C 328.199 314.667,327.617 313.767,327.233 312.667 C 326.850 311.567,326.322 310.667,326.059 310.667 C 325.797 310.667,325.170 309.617,324.667 308.333 C 324.163 307.050,323.567 306.000,323.343 306.000 C 323.118 306.000,322.555 304.950,322.091 303.667 C 321.627 302.383,320.990 301.333,320.675 301.333 C 320.361 301.333,319.738 300.208,319.291 298.833 C 318.844 297.458,318.094 296.107,317.624 295.829 C 317.155 295.552,316.574 294.427,316.332 293.329 C 316.091 292.232,315.654 291.333,315.361 291.333 C 315.068 291.333,314.456 290.433,314.000 289.333 C 313.544 288.233,312.932 287.333,312.639 287.333 C 312.346 287.333,311.909 286.435,311.668 285.337 C 311.426 284.239,310.860 283.114,310.409 282.837 C 309.958 282.560,309.174 281.283,308.667 280.000 C 308.160 278.717,307.376 277.440,306.925 277.163 C 306.473 276.886,305.907 275.761,305.666 274.663 C 305.425 273.565,304.988 272.667,304.695 272.667 C 304.402 272.667,303.789 271.767,303.333 270.667 C 302.878 269.567,302.265 268.667,301.972 268.667 C 301.679 268.667,301.242 267.768,301.001 266.671 C 300.760 265.573,300.193 264.448,299.742 264.171 C 299.291 263.893,298.507 262.617,298.000 261.333 C 297.493 260.050,296.686 258.760,296.206 258.467 C 295.726 258.174,295.333 257.499,295.333 256.967 C 295.333 256.435,295.057 256.000,294.720 256.000 C 294.382 256.000,293.909 255.102,293.668 254.004 C 293.426 252.906,292.860 251.781,292.409 251.504 C 291.958 251.227,291.174 249.950,290.667 248.667 C 290.160 247.383,289.376 246.107,288.925 245.829 C 288.473 245.552,287.907 244.427,287.666 243.329 C 287.425 242.232,286.988 241.333,286.695 241.333 C 286.402 241.333,285.789 240.433,285.333 239.333 C 284.878 238.233,284.265 237.333,283.972 237.333 C 283.679 237.333,283.242 236.435,283.001 235.337 C 282.760 234.239,282.193 233.114,281.742 232.837 C 281.291 232.560,280.507 231.283,280.000 230.000 C 279.493 228.717,278.709 227.440,278.258 227.163 C 277.807 226.886,277.240 225.761,276.999 224.663 C 276.758 223.565,276.346 222.667,276.084 222.667 C 275.821 222.667,274.606 220.717,273.384 218.333 C 272.161 215.950,270.947 214.000,270.686 214.000 C 270.425 214.000,269.852 212.800,269.412 211.333 C 268.973 209.867,268.345 208.667,268.016 208.667 C 267.688 208.667,267.040 207.617,266.576 206.333 C 266.112 205.050,265.548 204.000,265.324 204.000 C 265.099 204.000,264.504 202.950,264.000 201.667 C 263.496 200.383,262.870 199.333,262.607 199.333 C 262.345 199.333,261.817 198.433,261.433 197.333 C 261.050 196.233,260.444 195.333,260.088 195.333 C 259.731 195.333,259.247 194.458,259.012 193.388 C 258.635 191.670,258.078 190.777,255.373 187.557 C 255.014 187.130,254.525 186.001,254.286 185.049 C 254.047 184.096,253.477 183.095,253.020 182.825 C 252.563 182.555,251.823 181.208,251.376 179.833 C 250.929 178.458,250.306 177.333,249.991 177.333 C 249.677 177.333,249.040 176.283,248.576 175.000 C 248.112 173.717,247.548 172.667,247.324 172.667 C 247.099 172.667,246.504 171.617,246.000 170.333 C 245.496 169.050,244.870 168.000,244.607 168.000 C 244.345 168.000,243.817 167.100,243.433 166.000 C 243.050 164.900,242.448 164.000,242.096 164.000 C 241.744 164.000,241.072 162.500,240.602 160.667 C 240.132 158.833,239.541 157.333,239.288 157.333 C 239.035 157.333,238.456 156.433,238.000 155.333 C 237.544 154.233,236.932 153.333,236.639 153.333 C 236.346 153.333,235.904 152.413,235.657 151.288 C 235.410 150.164,234.829 149.098,234.366 148.920 C 233.903 148.742,233.133 147.413,232.655 145.965 C 232.177 144.518,231.571 143.333,231.308 143.333 C 231.044 143.333,230.434 142.358,229.952 141.167 C 228.551 137.703,227.567 137.310,225.806 139.509 M228.656 182.661 C 229.336 183.025,230.090 184.225,230.332 185.328 C 230.574 186.431,231.012 187.333,231.305 187.333 C 231.598 187.333,232.211 188.233,232.667 189.333 C 233.122 190.433,233.735 191.333,234.028 191.333 C 234.321 191.333,234.758 192.232,234.999 193.329 C 235.240 194.427,235.807 195.552,236.258 195.829 C 236.709 196.107,237.493 197.383,238.000 198.667 C 238.507 199.950,239.291 201.227,239.742 201.504 C 240.193 201.781,240.760 202.906,241.001 204.004 C 241.242 205.102,241.679 206.000,241.972 206.000 C 242.265 206.000,242.878 206.900,243.333 208.000 C 243.789 209.100,244.402 210.000,244.695 210.000 C 244.988 210.000,245.430 210.920,245.677 212.045 C 245.924 213.170,246.505 214.235,246.968 214.413 C 247.431 214.591,248.200 215.921,248.678 217.368 C 249.156 218.816,249.762 220.000,250.026 220.000 C 250.289 220.000,250.899 220.975,251.381 222.167 C 251.863 223.358,252.425 224.483,252.629 224.667 C 253.036 225.033,254.328 227.235,255.952 230.333 C 256.528 231.433,257.352 232.560,257.781 232.837 C 258.211 233.114,258.760 234.239,259.001 235.337 C 259.242 236.435,259.679 237.333,259.972 237.333 C 260.265 237.333,260.878 238.233,261.333 239.333 C 261.789 240.433,262.402 241.333,262.695 241.333 C 262.988 241.333,263.425 242.232,263.666 243.329 C 263.907 244.427,264.473 245.552,264.925 245.829 C 265.376 246.107,266.160 247.383,266.667 248.667 C 267.174 249.950,267.958 251.227,268.409 251.504 C 268.860 251.781,269.426 252.906,269.668 254.004 C 269.909 255.102,270.326 256.000,270.595 256.000 C 270.864 256.000,271.496 257.050,272.000 258.333 C 272.504 259.617,273.130 260.667,273.393 260.667 C 273.655 260.667,274.183 261.567,274.567 262.667 C 274.950 263.767,275.532 264.667,275.860 264.667 C 276.187 264.667,276.815 265.867,277.255 267.333 C 277.694 268.800,278.322 270.000,278.650 270.000 C 278.978 270.000,279.627 271.050,280.091 272.333 C 280.555 273.617,281.118 274.667,281.343 274.667 C 281.567 274.667,282.163 275.717,282.667 277.000 C 283.170 278.283,283.797 279.333,284.059 279.333 C 284.322 279.333,284.850 280.233,285.233 281.333 C 285.617 282.433,286.199 283.333,286.526 283.333 C 286.854 283.333,287.482 284.533,287.921 286.000 C 288.361 287.467,288.989 288.667,289.317 288.667 C 289.645 288.667,290.293 289.717,290.757 291.000 C 291.221 292.283,291.841 293.333,292.134 293.333 C 292.427 293.333,292.667 293.768,292.667 294.300 C 292.667 294.832,293.074 295.507,293.572 295.800 C 294.071 296.093,294.844 297.458,295.291 298.833 C 295.738 300.208,296.361 301.333,296.675 301.333 C 296.990 301.333,297.627 302.383,298.091 303.667 C 298.555 304.950,299.118 306.000,299.343 306.000 C 299.567 306.000,300.163 307.050,300.667 308.333 C 301.170 309.617,301.797 310.667,302.059 310.667 C 302.322 310.667,302.850 311.567,303.233 312.667 C 303.617 313.767,304.199 314.667,304.526 314.667 C 304.854 314.667,305.482 315.867,305.921 317.333 C 306.361 318.800,306.972 320.000,307.279 320.000 C 307.587 320.000,308.233 320.975,308.715 322.167 C 309.197 323.358,309.859 324.517,310.187 324.742 C 310.515 324.967,310.832 326.167,310.892 327.409 L 311.000 329.667 228.000 329.849 C 182.350 329.950,144.325 329.869,143.500 329.670 C 142.135 329.341,141.294 327.333,142.521 327.333 C 142.807 327.333,143.386 326.508,143.807 325.500 C 144.608 323.583,146.733 319.906,147.371 319.333 C 147.575 319.150,148.137 318.025,148.619 316.833 C 149.101 315.642,149.747 314.667,150.054 314.667 C 150.362 314.667,150.973 313.467,151.412 312.000 C 151.852 310.533,152.479 309.333,152.807 309.333 C 153.135 309.333,153.716 308.433,154.100 307.333 C 154.483 306.233,155.012 305.333,155.274 305.333 C 155.536 305.333,156.163 304.283,156.667 303.000 C 157.170 301.717,157.766 300.667,157.991 300.667 C 158.215 300.667,158.779 299.617,159.243 298.333 C 159.707 297.050,160.319 296.000,160.603 296.000 C 160.887 296.000,161.511 294.816,161.989 293.368 C 162.466 291.921,163.236 290.591,163.699 290.413 C 164.162 290.235,164.743 289.170,164.990 288.045 C 165.237 286.920,165.679 286.000,165.972 286.000 C 166.265 286.000,166.878 285.100,167.333 284.000 C 167.789 282.900,168.402 282.000,168.695 282.000 C 168.988 282.000,169.425 281.102,169.666 280.004 C 169.907 278.906,170.473 277.781,170.925 277.504 C 171.376 277.227,172.160 275.950,172.667 274.667 C 173.174 273.383,173.958 272.107,174.409 271.829 C 174.860 271.552,175.426 270.427,175.668 269.329 C 175.909 268.232,176.346 267.333,176.639 267.333 C 176.932 267.333,177.544 266.433,178.000 265.333 C 178.456 264.233,179.068 263.333,179.361 263.333 C 179.654 263.333,180.096 262.413,180.343 261.288 C 180.590 260.164,181.196 259.088,181.689 258.899 C 182.182 258.710,182.777 257.680,183.012 256.611 C 183.247 255.542,183.679 254.667,183.972 254.667 C 184.265 254.667,184.878 253.767,185.333 252.667 C 185.789 251.567,186.402 250.667,186.695 250.667 C 186.988 250.667,187.425 249.768,187.666 248.671 C 187.907 247.573,188.473 246.448,188.925 246.171 C 189.376 245.893,190.160 244.617,190.667 243.333 C 191.174 242.050,191.958 240.773,192.409 240.496 C 192.860 240.219,193.426 239.094,193.668 237.996 C 193.909 236.898,194.346 236.000,194.639 236.000 C 194.932 236.000,195.544 235.100,196.000 234.000 C 196.456 232.900,197.068 232.000,197.361 232.000 C 197.654 232.000,198.091 231.102,198.332 230.004 C 198.574 228.906,199.140 227.781,199.591 227.504 C 200.042 227.227,200.826 225.950,201.333 224.667 C 201.840 223.383,202.624 222.107,203.075 221.829 C 203.527 221.552,204.093 220.427,204.334 219.329 C 204.575 218.232,204.993 217.333,205.262 217.333 C 205.531 217.333,206.163 216.283,206.667 215.000 C 207.170 213.717,207.797 212.667,208.059 212.667 C 208.322 212.667,208.850 211.767,209.233 210.667 C 209.617 209.567,210.199 208.667,210.526 208.667 C 210.854 208.667,211.482 207.467,211.921 206.000 C 212.361 204.533,212.972 203.333,213.279 203.333 C 213.587 203.333,214.233 202.358,214.715 201.167 C 215.197 199.975,215.758 198.850,215.963 198.667 C 216.168 198.483,216.785 197.433,217.334 196.333 C 217.884 195.233,218.708 193.937,219.167 193.452 C 219.625 192.968,220.000 192.175,220.000 191.690 C 220.000 191.206,220.411 190.651,220.914 190.459 C 221.417 190.266,222.029 189.308,222.275 188.330 C 222.714 186.578,223.197 185.823,225.500 183.286 C 226.846 181.802,226.996 181.773,228.656 182.661 " stroke="none" fill-rule="evenodd"></path>
</g>
</svg>