<svg id="svg" xmlns="http://www.w3.org/2000/svg" xmlns:xlink="http://www.w3.org/1999/xlink" width="400" height="400" viewBox="0, 0, 400,400"><g id="svgg"><path id="path0" d="M164.333 19.661 C 163.967 19.783,162.915 20.047,161.996 20.247 C 158.274 21.057,152.890 26.490,150.174 32.175 C 149.056 34.515,147.735 36.872,147.238 37.412 C 146.229 38.507,145.056 40.605,141.239 48.134 C 139.808 50.957,138.256 53.657,137.791 54.134 C 137.326 54.610,136.335 56.200,135.589 57.667 C 130.468 67.730,129.271 69.914,128.766 70.111 C 128.453 70.233,127.050 72.583,125.649 75.333 C 124.248 78.083,122.489 81.533,121.741 83.000 C 120.993 84.467,119.920 86.182,119.357 86.811 C 118.794 87.441,116.686 91.191,114.672 95.145 C 112.659 99.098,110.541 102.853,109.967 103.489 C 109.392 104.124,107.679 107.163,106.160 110.242 C 104.641 113.321,102.990 116.251,102.493 116.754 C 101.995 117.256,101.127 118.567,100.565 119.667 C 100.003 120.767,98.288 124.129,96.755 127.138 C 95.221 130.147,93.679 132.786,93.327 133.004 C 92.759 133.355,90.461 137.581,86.443 145.667 C 85.714 147.133,84.611 148.933,83.990 149.667 C 83.370 150.400,81.244 154.143,79.265 157.985 C 77.286 161.827,75.217 165.480,74.667 166.103 C 74.117 166.726,72.208 170.120,70.426 173.644 C 68.644 177.169,66.844 180.427,66.426 180.885 C 65.439 181.968,64.525 183.590,61.297 189.993 C 59.834 192.894,58.226 195.679,57.724 196.181 C 57.222 196.683,55.106 200.430,53.022 204.508 C 50.938 208.586,49.001 212.015,48.718 212.128 C 48.435 212.241,46.283 216.083,43.935 220.667 C 41.587 225.250,39.310 229.300,38.875 229.667 C 37.602 230.738,33.498 239.423,32.624 242.893 C 30.421 251.643,34.200 259.570,41.462 261.431 C 43.225 261.883,44.667 262.495,44.667 262.793 C 44.667 263.090,64.467 263.333,88.667 263.333 C 137.072 263.333,135.013 263.532,130.231 259.333 C 127.469 256.908,126.072 253.639,126.029 249.500 L 126.000 246.667 88.312 246.667 C 46.494 246.667,48.350 246.879,50.969 242.388 C 51.629 241.258,53.224 238.233,54.516 235.667 C 55.807 233.100,57.117 230.901,57.428 230.779 C 57.738 230.658,59.241 228.108,60.767 225.112 C 62.294 222.117,64.003 218.767,64.565 217.667 C 65.127 216.567,65.986 215.264,66.473 214.773 C 66.960 214.281,68.515 211.581,69.927 208.773 C 73.511 201.646,74.926 199.057,75.459 198.653 C 75.711 198.462,77.470 195.312,79.369 191.653 C 81.267 187.994,83.161 184.700,83.577 184.333 C 83.993 183.967,86.097 180.217,88.254 176.000 C 90.410 171.783,92.595 167.883,93.109 167.333 C 94.163 166.207,98.798 157.643,100.416 153.833 C 101.000 152.458,101.727 151.333,102.031 151.333 C 102.335 151.333,103.760 149.008,105.198 146.167 C 108.791 139.065,110.256 136.393,110.777 135.996 C 111.020 135.810,112.325 133.560,113.676 130.996 C 115.027 128.431,116.926 124.833,117.895 123.000 C 118.864 121.167,119.872 119.506,120.135 119.310 C 120.399 119.114,122.157 115.964,124.043 112.310 C 125.929 108.656,127.816 105.367,128.236 105.000 C 128.656 104.633,130.770 100.883,132.933 96.667 C 135.096 92.450,137.133 88.896,137.459 88.769 C 137.785 88.642,138.883 86.842,139.899 84.769 C 143.522 77.375,146.262 72.320,147.109 71.467 C 147.583 70.991,149.167 68.227,150.630 65.326 C 153.928 58.786,154.870 57.098,155.475 56.643 C 155.736 56.446,157.036 54.196,158.364 51.643 C 165.807 37.325,166.214 37.140,170.736 46.000 C 171.953 48.383,173.325 50.720,173.786 51.193 C 174.246 51.665,175.580 54.065,176.749 56.526 C 177.919 58.987,180.177 63.151,181.768 65.781 C 183.358 68.411,185.855 72.958,187.317 75.887 C 188.778 78.816,190.355 81.615,190.820 82.106 C 191.286 82.598,193.431 86.436,195.587 90.635 C 197.743 94.834,199.927 98.689,200.439 99.201 C 200.952 99.714,201.797 101.153,202.318 102.400 C 203.582 105.425,204.245 105.262,205.980 101.500 C 206.784 99.758,207.813 98.033,208.268 97.667 C 208.723 97.300,210.050 95.112,211.218 92.805 L 213.342 88.610 211.296 84.485 C 210.170 82.216,209.002 80.204,208.699 80.013 C 208.396 79.823,206.475 76.367,204.430 72.333 C 202.384 68.300,200.286 64.550,199.767 64.000 C 199.248 63.450,197.454 60.262,195.780 56.916 C 194.106 53.569,192.345 50.416,191.868 49.910 C 191.391 49.403,189.058 45.166,186.684 40.494 C 184.310 35.822,182.208 32.000,182.013 32.000 C 181.818 32.000,181.228 31.025,180.701 29.833 C 178.158 24.082,168.700 18.204,164.333 19.661 M237.074 60.669 C 233.141 62.205,231.150 63.980,229.298 67.604 C 228.530 69.105,227.524 70.633,227.061 71.000 C 226.599 71.367,225.467 73.017,224.546 74.667 C 219.595 83.542,218.268 85.732,217.187 86.813 C 215.669 88.331,215.693 89.026,217.318 90.651 C 218.043 91.376,219.082 92.951,219.626 94.151 C 220.171 95.351,221.528 97.983,222.641 100.000 C 223.755 102.017,224.757 103.940,224.869 104.273 C 225.526 106.243,227.843 102.995,232.750 93.224 C 233.793 91.148,235.126 88.969,235.713 88.382 C 236.300 87.796,237.751 85.445,238.939 83.158 C 242.140 76.995,243.364 77.663,248.936 88.620 C 251.067 92.811,253.202 96.631,253.681 97.109 C 254.159 97.588,256.105 101.059,258.004 104.823 C 259.904 108.587,261.858 112.117,262.347 112.667 C 262.836 113.217,264.782 116.667,266.672 120.333 C 268.562 124.000,270.459 127.300,270.887 127.667 C 271.316 128.033,273.442 131.858,275.611 136.167 C 277.780 140.475,279.759 144.000,280.009 144.000 C 280.258 144.000,282.165 147.435,284.246 151.634 C 286.327 155.832,288.477 159.715,289.023 160.261 C 289.570 160.808,291.681 164.554,293.714 168.585 C 295.747 172.616,297.642 176.009,297.925 176.124 C 298.207 176.239,300.212 179.783,302.381 184.000 C 304.549 188.217,306.716 192.079,307.197 192.583 C 307.678 193.088,309.539 196.425,311.333 200.000 C 313.127 203.575,314.989 206.912,315.470 207.417 C 315.951 207.921,318.118 211.783,320.286 216.000 C 322.454 220.217,324.455 223.759,324.732 223.873 C 325.010 223.986,327.094 227.718,329.363 232.165 C 331.633 236.613,333.906 240.668,334.416 241.178 C 339.415 246.177,338.137 246.667,320.098 246.667 L 304.154 246.667 303.704 250.265 C 303.175 254.501,300.145 259.724,297.672 260.665 C 296.753 261.014,296.000 261.758,296.000 262.317 C 296.000 263.207,298.730 263.333,318.000 263.333 C 332.222 263.333,340.000 263.098,340.000 262.667 C 340.000 262.300,340.675 261.993,341.500 261.985 C 345.471 261.947,352.303 256.925,353.350 253.275 C 354.650 248.743,353.779 241.207,351.716 239.145 C 351.221 238.650,350.233 237.064,349.521 235.622 C 345.710 227.904,343.044 222.976,342.576 222.786 C 342.287 222.668,340.731 219.958,339.120 216.762 C 335.702 209.985,334.492 207.793,333.915 207.333 C 333.686 207.150,331.782 203.700,329.686 199.667 C 327.590 195.633,325.487 191.883,325.013 191.333 C 324.539 190.783,322.448 187.039,320.366 183.013 C 318.285 178.987,316.352 175.537,316.072 175.346 C 315.792 175.156,315.108 174.100,314.553 173.000 C 309.614 163.216,307.849 159.943,307.111 159.199 C 306.342 158.424,303.461 153.100,299.812 145.711 C 299.100 144.269,298.117 142.688,297.627 142.199 C 297.138 141.709,295.573 138.989,294.151 136.154 C 291.147 130.165,289.832 127.799,289.250 127.333 C 289.020 127.150,286.963 123.400,284.677 119.000 C 282.392 114.600,280.144 110.550,279.682 110.000 C 279.221 109.450,277.284 106.006,275.380 102.347 C 273.475 98.688,271.687 95.538,271.406 95.347 C 271.125 95.156,270.441 94.100,269.886 93.000 C 264.630 82.589,262.999 79.572,262.314 79.000 C 261.875 78.633,260.365 75.996,258.959 73.138 C 257.553 70.281,256.011 67.619,255.534 67.223 C 255.057 66.827,254.667 66.121,254.667 65.655 C 254.667 61.805,242.787 58.438,237.074 60.669 M212.335 95.413 C 211.236 97.626,209.886 99.938,209.335 100.551 C 208.784 101.165,206.729 104.817,204.769 108.667 C 202.809 112.517,200.835 115.967,200.382 116.333 C 199.930 116.700,198.792 118.500,197.854 120.333 C 196.916 122.167,195.240 125.433,194.130 127.592 C 193.021 129.752,191.832 131.702,191.489 131.926 C 191.146 132.150,188.976 135.933,186.667 140.333 C 184.358 144.733,182.233 148.489,181.946 148.678 C 181.658 148.868,179.962 151.802,178.177 155.197 C 176.392 158.592,174.497 161.909,173.966 162.567 C 173.013 163.748,171.844 165.837,167.013 174.996 C 165.660 177.560,164.324 179.810,164.045 179.996 C 163.765 180.181,161.800 183.633,159.678 187.667 C 157.556 191.700,155.572 195.161,155.268 195.357 C 154.965 195.554,153.620 197.804,152.279 200.357 C 150.938 202.911,149.212 206.200,148.443 207.667 C 147.674 209.133,146.585 210.842,146.023 211.464 C 145.460 212.086,143.350 215.836,141.333 219.798 C 139.317 223.759,137.302 227.300,136.856 227.667 C 135.560 228.732,129.937 240.537,129.530 243.047 C 129.326 244.304,128.898 245.333,128.579 245.333 C 128.261 245.333,128.000 246.683,128.000 248.333 C 128.000 249.983,128.300 251.333,128.667 251.333 C 129.033 251.333,129.333 251.813,129.333 252.399 C 129.333 256.262,133.991 260.820,138.833 261.696 C 140.208 261.945,141.333 262.415,141.333 262.741 C 141.333 263.083,172.344 263.333,214.667 263.333 C 263.111 263.333,288.000 263.107,288.000 262.667 C 288.000 262.300,288.612 262.000,289.360 262.000 C 293.799 262.000,299.866 256.665,301.006 251.757 C 302.089 247.100,300.415 239.061,298.002 237.333 C 297.746 237.150,295.800 233.700,293.678 229.667 C 291.556 225.633,289.572 222.173,289.268 221.976 C 288.754 221.643,286.149 216.905,282.133 209.000 C 281.202 207.167,280.082 205.367,279.645 205.000 C 279.207 204.633,277.233 201.183,275.258 197.333 C 273.283 193.483,271.319 190.033,270.894 189.667 C 270.469 189.300,268.555 186.000,266.642 182.333 C 264.728 178.667,262.927 175.515,262.638 175.329 C 262.101 174.984,258.338 168.170,255.553 162.500 C 254.697 160.758,253.730 159.333,253.404 159.333 C 253.078 159.333,252.326 158.208,251.733 156.833 C 250.032 152.891,245.466 144.496,244.787 144.061 C 244.448 143.844,242.605 140.667,240.691 137.000 C 238.778 133.333,236.865 130.033,236.440 129.667 C 236.014 129.300,233.908 125.550,231.760 121.333 C 229.611 117.117,227.511 113.367,227.093 113.000 C 226.675 112.633,224.588 108.808,222.455 104.500 C 220.321 100.192,218.342 96.667,218.056 96.667 C 217.770 96.667,216.995 95.467,216.333 94.000 C 214.796 90.591,214.716 90.619,212.335 95.413 M216.614 129.044 C 217.135 130.114,217.964 131.393,218.457 131.886 C 218.950 132.379,220.271 134.631,221.392 136.891 C 223.446 141.031,225.949 145.383,226.631 146.000 C 227.084 146.410,227.716 147.544,231.682 155.069 C 233.401 158.331,235.041 161.150,235.327 161.333 C 235.882 161.690,239.006 167.284,242.089 173.441 C 243.128 175.517,244.235 177.317,244.550 177.441 C 244.864 177.565,246.834 180.958,248.927 184.981 C 251.020 189.004,252.979 192.454,253.281 192.648 C 253.583 192.841,255.363 195.911,257.237 199.470 C 259.111 203.028,261.704 207.596,263.000 209.621 C 264.295 211.646,266.403 215.391,267.684 217.944 C 268.965 220.496,270.403 222.978,270.879 223.459 C 271.356 223.940,272.203 225.233,272.762 226.333 C 275.382 231.493,279.540 239.034,279.930 239.333 C 281.162 240.279,282.723 243.592,282.541 244.873 L 282.333 246.333 215.667 246.516 C 179.000 246.617,148.325 246.536,147.500 246.337 C 146.031 245.982,145.419 244.328,146.595 243.889 C 146.922 243.767,148.756 240.667,150.671 237.000 C 152.585 233.333,154.506 230.033,154.939 229.667 C 155.373 229.300,156.336 227.800,157.081 226.333 C 162.078 216.491,163.455 213.973,164.302 213.127 C 164.828 212.601,166.954 208.907,169.027 204.919 C 171.099 200.930,173.035 197.517,173.327 197.333 C 173.620 197.150,175.233 194.393,176.912 191.207 C 178.591 188.020,180.979 183.820,182.217 181.873 C 183.455 179.926,185.885 175.637,187.617 172.342 C 189.349 169.047,190.968 166.197,191.216 166.009 C 191.745 165.608,192.271 164.682,196.413 156.865 C 198.123 153.639,199.768 150.839,200.069 150.643 C 200.556 150.325,201.644 148.361,206.887 138.333 C 207.654 136.867,208.678 135.260,209.162 134.764 C 209.647 134.267,210.670 132.617,211.436 131.097 C 214.000 126.007,214.952 125.630,216.614 129.044 M367.667 311.599 C 357.180 314.916,352.462 322.452,354.011 333.414 C 355.173 341.632,360.585 346.056,373.190 349.089 C 377.119 350.035,380.483 351.005,380.667 351.245 C 380.850 351.485,382.625 352.427,384.611 353.339 C 388.662 355.201,390.660 357.795,390.664 361.200 C 390.667 363.790,388.998 367.333,387.775 367.333 C 387.304 367.333,386.332 367.879,385.615 368.547 C 382.127 371.797,370.658 372.203,367.012 369.206 C 365.475 367.942,361.235 365.333,360.719 365.333 C 360.413 365.333,359.790 364.883,359.333 364.333 C 357.089 361.629,352.000 364.253,352.000 368.114 C 352.000 370.706,356.575 375.426,360.269 376.645 C 361.588 377.081,362.667 377.684,362.667 377.986 C 362.667 381.573,384.949 381.364,390.308 377.727 C 399.013 371.819,400.000 370.080,400.000 360.649 C 400.000 351.001,396.616 345.900,388.833 343.816 C 387.275 343.398,386.000 342.852,386.000 342.602 C 386.000 342.353,383.975 341.654,381.500 341.049 C 365.146 337.056,361.128 333.434,364.600 325.812 C 367.817 318.751,384.755 318.199,391.013 324.951 C 393.105 327.208,396.796 327.326,398.296 325.185 C 399.809 323.024,399.623 319.558,397.918 318.160 C 397.140 317.522,396.015 316.513,395.418 315.918 C 390.942 311.454,375.651 309.074,367.667 311.599 M156.152 312.153 C 153.062 313.643,153.403 317.120,157.028 321.077 C 158.296 322.461,159.333 323.867,159.333 324.201 C 159.333 324.867,163.369 330.205,164.130 330.545 C 164.391 330.662,166.269 333.212,168.304 336.212 C 170.340 339.212,172.758 342.597,173.678 343.734 L 175.351 345.801 173.780 347.400 C 172.915 348.280,171.645 349.900,170.957 351.000 C 170.269 352.100,168.572 354.527,167.186 356.394 C 165.801 358.261,164.667 360.136,164.667 360.561 C 164.667 360.986,164.403 361.333,164.080 361.333 C 163.435 361.333,158.006 368.290,157.989 369.138 C 157.983 369.429,157.083 370.682,155.989 371.924 C 153.601 374.634,153.468 376.601,155.543 378.550 C 157.792 380.664,160.990 380.487,162.480 378.167 C 163.128 377.158,164.610 375.337,165.775 374.120 C 166.940 372.902,168.359 370.924,168.928 369.724 C 169.498 368.523,171.185 366.220,172.677 364.604 C 174.170 362.988,175.839 360.767,176.387 359.667 C 178.023 356.383,180.338 353.914,181.379 354.342 C 182.333 354.734,186.667 360.226,186.667 361.043 C 186.667 361.712,190.831 366.895,192.154 367.871 C 192.802 368.350,193.333 369.048,193.333 369.422 C 193.333 369.795,194.683 371.856,196.333 374.000 C 197.983 376.144,199.333 378.187,199.333 378.538 C 199.333 380.436,205.631 380.419,206.962 378.518 C 209.222 375.292,206.848 369.862,199.455 361.345 C 198.058 359.736,192.000 351.421,192.000 351.113 C 192.000 350.960,190.970 349.709,189.710 348.335 L 187.421 345.835 189.141 343.084 C 190.087 341.571,191.230 340.114,191.681 339.847 C 192.132 339.579,194.109 336.954,196.074 334.013 C 198.038 331.073,199.865 328.667,200.133 328.667 C 201.295 328.667,208.000 317.494,208.000 315.558 C 208.000 310.035,197.582 310.672,197.356 316.208 C 197.343 316.506,194.483 320.455,191.000 324.983 C 187.517 329.511,184.657 333.467,184.644 333.775 C 184.615 334.507,182.250 337.333,181.667 337.333 C 181.078 337.333,178.718 334.504,178.689 333.763 C 178.668 333.237,175.604 329.029,173.522 326.667 C 173.037 326.117,171.169 323.567,169.371 321.000 C 162.528 311.233,160.658 309.982,156.152 312.153 M1.038 313.482 C 0.135 314.771,-0.000 318.973,-0.000 345.838 C -0.000 380.735,-0.100 380.000,4.662 380.000 C 9.037 380.000,8.963 380.408,9.333 354.065 C 9.605 334.692,9.819 330.599,10.496 331.781 C 10.952 332.578,11.702 333.628,12.162 334.116 C 13.817 335.866,17.773 341.045,19.203 343.333 C 20.005 344.617,21.713 346.702,22.997 347.968 C 24.282 349.234,25.333 350.527,25.333 350.841 C 25.333 351.702,29.838 357.427,31.347 358.484 C 32.073 358.993,32.667 359.705,32.667 360.067 C 32.667 360.726,35.189 364.144,43.333 374.522 L 47.667 380.044 50.651 379.855 C 55.445 379.552,55.312 380.536,55.324 345.270 C 55.335 310.138,55.571 311.682,50.247 312.123 C 46.060 312.469,46.021 312.714,46.010 338.620 L 46.000 361.574 43.358 358.033 C 41.905 356.086,40.258 354.006,39.699 353.413 C 38.135 351.754,32.000 343.434,32.000 342.973 C 32.000 342.748,31.141 341.705,30.092 340.656 C 29.042 339.606,27.116 337.154,25.811 335.207 C 24.506 333.260,22.215 330.329,20.719 328.693 C 19.224 327.058,18.000 325.439,18.000 325.095 C 18.000 324.301,13.420 318.616,11.851 317.462 C 11.200 316.983,10.667 316.210,10.667 315.745 C 10.667 312.368,3.069 310.582,1.038 313.482 M81.954 313.379 C 78.891 316.442,80.804 367.333,83.982 367.333 C 84.270 367.333,84.881 368.241,85.341 369.351 C 86.275 371.606,92.300 377.333,93.739 377.333 C 94.249 377.333,94.667 377.609,94.667 377.946 C 94.667 378.284,96.092 379.008,97.833 379.556 C 114.807 384.897,130.934 375.571,133.382 359.000 C 133.707 356.800,133.975 346.150,133.977 335.333 C 133.981 312.886,133.897 312.438,129.651 312.159 C 124.808 311.842,125.037 310.754,124.667 335.808 C 124.286 361.508,124.098 362.480,118.738 366.333 C 117.208 367.433,115.328 368.852,114.559 369.486 C 111.322 372.156,102.954 371.778,99.299 368.796 C 90.690 361.771,90.683 361.744,90.674 335.648 C 90.666 312.095,90.647 312.000,85.962 312.000 C 84.193 312.000,82.882 312.451,81.954 313.379 M225.103 313.219 C 223.962 314.481,223.642 317.738,224.524 319.125 C 225.553 320.744,228.983 321.333,237.377 321.333 L 246.000 321.333 246.000 348.302 C 246.000 379.735,246.041 379.980,251.333 379.980 C 256.700 379.980,256.667 380.175,256.667 348.773 L 256.667 321.458 266.232 321.229 C 277.105 320.969,278.000 320.619,278.000 316.633 C 278.000 311.858,278.826 312.000,251.056 312.000 C 227.829 312.000,226.135 312.080,225.103 313.219 M321.704 313.482 C 320.813 314.754,320.667 318.245,320.667 338.170 C 320.667 363.988,320.653 364.082,316.273 367.905 C 311.261 372.281,304.282 372.603,301.470 368.588 C 295.949 360.706,285.173 363.195,290.247 371.180 C 296.340 380.770,313.931 384.789,320.497 378.090 C 321.140 377.434,322.784 376.066,324.149 375.049 C 325.610 373.962,327.394 371.650,328.483 369.434 L 330.333 365.667 330.530 340.086 C 330.754 311.002,330.929 312.000,325.601 312.000 C 323.403 312.000,322.503 312.342,321.704 313.482 " stroke="none" fill="#000000" fill-rule="evenodd"></path></g></svg>