<svg xmlns="http://www.w3.org/2000/svg" width="400" height="400" viewBox="0, 0, 400,400"><g><path d="M194.611 2.503 C 190.264 3.360,188.971 4.073,120.679 43.226 C 84.352 64.052,50.210 83.611,44.807 86.688 C 33.056 93.383,28.647 97.157,25.783 102.975 L 23.765 107.072 23.601 198.752 C 23.415 301.916,23.101 294.640,28.026 301.299 C 31.976 306.639,28.300 304.463,177.743 389.941 C 192.989 398.661,200.782 400.251,209.427 396.405 C 212.071 395.228,358.015 311.829,363.814 308.181 C 369.632 304.521,374.048 298.079,375.300 291.428 C 376.211 286.589,376.155 112.886,375.242 108.518 C 373.336 99.409,369.461 95.461,353.337 86.196 C 191.763 -6.639,205.153 0.422,194.611 2.503 M334.877 124.377 C 332.447 126.386,319.835 135.743,301.852 148.879 C 293.873 154.707,271.885 170.792,252.990 184.624 C 234.094 198.455,218.052 210.083,217.341 210.463 C 215.762 211.308,215.761 211.158,217.292 206.272 C 220.788 195.121,213.890 183.212,203.089 181.753 C 196.011 180.797,194.841 181.516,221.914 170.182 C 341.011 120.320,338.601 121.298,334.877 124.377 M205.720 186.883 C 208.598 188.014,212.739 192.615,213.569 195.603 C 217.604 210.127,201.136 220.948,189.964 211.114 C 177.360 200.019,189.936 180.678,205.720 186.883 M194.136 188.061 C 183.000 193.921,184.213 209.666,196.056 212.982 C 208.402 216.439,217.961 201.645,209.781 191.741 C 206.207 187.414,198.714 185.652,194.136 188.061 M181.360 193.673 C 177.675 206.568,184.544 216.640,199.038 219.595 C 201.163 220.028,67.681 279.630,64.586 279.630 C 63.110 279.630,180.493 189.695,182.170 189.541 C 182.379 189.522,182.015 191.381,181.360 193.673 M202.892 197.021 C 205.822 199.773,203.704 204.938,199.647 204.938 C 196.743 204.938,195.062 203.141,195.062 200.035 C 195.062 195.933,199.795 194.111,202.892 197.021 " stroke="none" fill-rule="evenodd"></path></g></svg>