<svg width="100%" height="100%" viewBox="0 0 400 400" version="1.1" xmlns="http://www.w3.org/2000/svg" style="fill-rule:evenodd;clip-rule:evenodd;stroke-linejoin:round;stroke-miterlimit:2;">
<g>
<path d="M101,24.5C100.062,25.558 99.113,26.628 98,27.5C87.109,36.034 87.138,35.863 77.5,46C70.841,53.004 63.994,59.832 57,66.5C56.117,67.342 49.748,71.193 49.5,73C47.77,85.621 47.552,98.411 47.107,111.142C45.966,143.801 48,198.99 48,226C48,277.01 44.501,328.093 49.5,379C49.569,379.704 50.297,380.42 51,380.5C58.546,381.355 66.156,381.663 73.75,381.747C111.165,382.163 148.584,381.708 186,382C229.088,382.336 277.628,387.309 321,380.5C322.415,380.278 323.462,378.577 323.711,377.167C324.598,372.13 323.759,366.92 324.289,361.833C324.365,361.105 324.773,360.089 325.5,360C326.202,359.914 326.5,361 327,361.5C329.667,364.167 332.284,366.884 335,369.5C337.669,372.071 339.807,375.465 343.153,377.06C350.085,380.365 364.421,380.367 371,375.5C380.584,368.409 382.572,352.261 375.227,343.024C373.265,340.556 370.25,339.131 368,336.923C357.834,326.949 348.019,316.622 338,306.5C334.352,302.815 330.553,299.277 327,295.5C325.973,294.408 324.473,293.403 324.284,291.917C323.536,286.019 323.635,279.992 324.284,274.083C324.649,270.759 328.635,268.026 329.656,265.083C332.502,256.88 329.635,256.454 332.318,248.167C334.081,242.721 334.237,242.898 335.318,237.167C335.588,235.734 337.644,235.238 337.72,233.666C338.049,226.897 338.07,220.102 337.72,213.334C337.607,211.147 335.561,211.504 335.297,209.411C333.886,198.267 333.477,186.729 329.656,175.917C328.853,173.644 326.111,172.331 325.5,170C319.751,148.083 323.864,119.589 324,98C324.125,78.084 323.723,58.167 323.745,38.25C323.745,37.559 324.773,28.708 323.369,26.259C318.395,17.581 303.633,22.645 293.642,22.17C271.722,21.126 227.257,22.848 211,23C180.529,23.284 150.053,23.673 119.583,23.254C115.671,23.2 111.86,21.946 107.964,21.58C106.15,21.41 101,20.587 101,24.5M294,67.5C294,71.168 293.873,74.855 294.278,78.5C294.685,82.163 296.497,81.448 296.734,85.221C297.145,91.744 297,98.291 297,104.827L297,128.654L294,128.213C289.435,127.544 288.862,124.3 285.976,121.773C284.267,120.276 281.974,119.622 280,118.5C274.499,115.373 268.495,113.498 263,110.5C261.336,109.592 258.484,106.768 256.833,106.318C254.039,105.556 250.961,106.444 248.167,105.682C246.161,105.135 247.19,103.609 245.167,103.29C227.66,100.525 208.152,100.208 190.667,103.294C188.809,103.622 189.881,104.982 188.083,105.656C186.147,106.382 183.853,105.618 181.917,106.344C180.359,106.928 181.619,108.127 180,108.667C177.776,109.408 175.224,108.592 173,109.333C170.633,110.122 167.084,112.84 164.469,114C160.576,115.726 156.181,119.457 151.833,119.734C138.969,120.555 126.031,119.445 113.167,120.266C110.529,120.434 103.899,124.372 103.297,127.584C102.902,129.688 103,131.859 103,134C103,144.17 106.346,144.656 116,145C119.368,145.12 125.488,143.168 126,146.5C126.187,147.715 122.079,149.228 121.5,150C117.966,154.712 116.682,161.96 112,165.865C109.779,167.718 106.286,167.215 104.5,170C101.627,174.48 103.239,179.888 103,185C102.456,196.623 101,208.924 101,220.5C101,236.062 101.182,255.701 104.177,271.144C105.062,275.706 110.998,272.685 113.405,274.432C115.738,276.124 116.634,283.583 118.788,285.997C119.508,286.804 126.109,290.735 126,292.5C125.958,293.184 125.009,293.587 124.333,293.706C119.843,294.498 115.157,293.502 110.667,294.294C104.095,295.454 105.567,307.525 106.297,311.417C108.163,321.371 129.511,318.898 132.5,319C139.338,319.232 146.183,319.42 153,320C159.356,320.541 166.889,327.194 172.5,330C175.578,331.539 179.048,331.206 182.083,332.344C183.665,332.937 182.475,334.215 184.149,334.681C188.427,335.87 194.829,337.464 199.268,337.729C205.18,338.082 233.746,338.097 239.662,337.735C242.833,337.541 242.161,336.138 245.167,335.318C247.961,334.556 251.039,335.444 253.833,334.682C255.427,334.247 256.475,332.635 258,332C261.229,330.655 264.96,330.827 268.083,329.656C270.707,328.672 274.223,325.388 277,324C279.609,322.695 279.403,322.747 281.5,321C282.334,320.305 283.134,318.451 284.071,319C284.94,319.509 293.2,326.401 293.682,328.167C294.444,330.961 293.556,334.039 294.318,336.833C295.463,341.031 297,340.524 297,345L297,352L79,352L79,90L117,90L117,54L294,54L294,67.5M236,151.5C236,153.969 242.461,153.09 243.083,153.344C248.359,155.496 253.561,157.937 258.365,161C266.707,166.319 273.043,175.095 278.5,183C280.816,186.355 284.219,189.102 285.656,192.917C287.916,198.914 288,212.78 288,219.5C288,227.487 287.916,238.509 285.656,246.083C284.313,250.584 278.061,257.36 275.5,261C273.308,264.117 270.896,269.471 267.865,272C249.663,287.19 229.076,292.223 205.75,290.725C204.149,290.622 203.356,288.813 202,288.333C193.916,285.472 184.682,284.503 178,278.5C175.112,275.905 172.786,272.738 170,270.034C161.823,262.099 154.21,254.042 150.318,242.833C146.081,230.632 146.403,210.3 150.333,198C150.639,197.044 152.306,197.024 152.656,196.083C153.378,194.145 152.448,191.781 153.344,189.917C154.168,188.201 156.431,187.575 157.5,186C160.518,181.552 162.377,176.375 165.5,172C167.494,169.206 172.468,167.494 175,165.5C176.667,164.188 177.806,162.277 179.5,161C191.255,152.133 203.358,150.819 218,150C222.91,149.725 227.834,150.128 232.75,150.271C233.054,150.28 236,150.239 236,151.5M208,171C208,171.989 192.009,172.104 190.833,172.29C188.827,172.606 189.89,173.979 188.083,174.656C186.147,175.382 183.853,174.618 181.917,175.344C177.552,176.981 178,184.806 178,187.5L178,197L189,197C198.364,197 202.902,194 212.5,194C220.343,194 228,193.239 228,202.5L228,208L208.5,208C203.166,208 197.818,207.86 192.5,208.269C184.171,208.91 181.178,215.644 178,222C177.085,223.83 175.504,225.467 175.278,227.5C174.873,231.145 175,234.832 175,238.5C175,246.018 175.011,251.909 179.5,258C188.329,269.981 202.65,270.261 216.5,268.722C219.302,268.411 233,257.317 233,266L233,269L258,269L258,229C258,213.675 263.311,187.374 247,176.5C238.979,171.152 228.619,170 219,170C215.318,170 208,167.318 208,171M228,234.5L228,241L223.5,241C222.411,241 220.098,240.774 219.234,241.797C218.847,242.256 218.986,243.112 218.479,243.434C216.788,244.505 214.502,244 212.5,244L206,244L206,237C206,235.254 205.916,232.625 206.339,230.95C206.695,229.543 209.496,229.926 210.266,229.706C210.99,229.499 210.861,228.75 211.625,228.596C214.107,228.095 216.953,228 219.5,228L228,228L228,234.5"/>
</g>
</svg>
