<svg xmlns="http://www.w3.org/2000/svg" width="400" height="400" viewBox="0, 0, 400,400">
<g>
<path d="M0.000 200.000 L 0.000 400.000 200.000 400.000 L 400.000 400.000 400.000 200.000 L 400.000 0.000 200.000 0.000 L 0.000 0.000 0.000 200.000 M182.052 54.800 L 181.600 72.800 109.600 72.800 L 37.600 72.800 37.148 54.800 L 36.695 36.800 109.600 36.800 L 182.505 36.800 182.052 54.800 M363.200 55.200 L 363.200 73.600 291.200 73.600 L 219.200 73.600 219.200 55.200 L 219.200 36.800 291.200 36.800 L 363.200 36.800 363.200 55.200 M182.052 127.600 L 182.505 145.600 109.652 145.600 L 36.800 145.600 36.800 128.267 C 36.800 118.733,37.287 110.446,37.883 109.850 C 38.479 109.255,71.059 108.955,110.283 109.184 L 181.600 109.600 182.052 127.600 M363.200 127.200 L 363.200 145.600 291.200 145.600 L 219.200 145.600 219.200 127.200 L 219.200 108.800 291.200 108.800 L 363.200 108.800 363.200 127.200 M182.400 200.000 L 182.400 217.600 109.600 217.600 L 36.800 217.600 36.800 200.000 L 36.800 182.400 109.600 182.400 L 182.400 182.400 182.400 200.000 M363.200 200.000 L 363.200 217.600 291.200 217.600 L 219.200 217.600 219.200 200.000 L 219.200 182.400 291.200 182.400 L 363.200 182.400 363.200 200.000 M120.842 246.543 C 169.668 255.569,189.655 315.371,155.996 351.727 C 126.040 384.083,73.571 377.011,53.778 337.951 C 30.165 291.353,69.944 237.134,120.842 246.543 M363.200 272.800 L 363.200 291.200 291.200 291.200 L 219.200 291.200 219.200 272.800 L 219.200 254.400 291.200 254.400 L 363.200 254.400 363.200 272.800 " stroke="none" fill-rule="evenodd"></path>
</g>
</svg>