<svg id="svg" version="1.1" width="400" height="400" xmlns="http://www.w3.org/2000/svg" xmlns:xlink="http://www.w3.org/1999/xlink" style="display: block;"><g id="svgg"><path id="path0" d="M181.343 137.179 C 177.428 139.073,176.000 145.247,176.000 160.283 C 176.000 167.828,175.789 174.000,175.530 174.000 C 175.272 174.000,173.532 173.141,171.664 172.092 C 158.742 164.834,137.260 165.489,123.487 173.560 C 81.117 198.391,99.299 264.000,148.549 264.000 C 156.628 264.000,168.144 261.375,170.000 259.110 C 170.275 258.774,172.075 257.656,174.000 256.624 C 179.750 253.542,189.404 242.784,193.106 235.333 L 196.500 228.500 196.790 185.374 L 197.079 142.248 194.451 139.124 C 191.620 135.760,185.999 134.926,181.343 137.179 M39.000 168.000 C 38.175 168.533,36.600 168.979,35.500 168.991 C 34.400 169.003,32.211 169.685,30.636 170.506 C 29.060 171.328,27.148 172.000,26.386 172.000 C 25.624 172.000,25.000 172.367,25.000 172.816 C 25.000 173.265,23.313 174.583,21.250 175.746 C 0.650 187.363,-5.933 215.920,6.256 240.785 C 17.197 263.106,52.726 271.142,75.474 256.441 C 115.562 230.533,96.740 166.958,49.000 167.020 C 44.325 167.026,39.825 167.467,39.000 168.000 M241.000 168.000 C 240.175 168.533,238.600 168.977,237.500 168.985 C 235.141 169.004,224.516 173.979,221.150 176.641 C 216.218 180.542,210.000 187.364,210.000 188.874 C 210.000 189.402,209.662 189.983,209.250 190.167 C 207.718 190.847,204.071 199.693,202.927 205.500 C 198.017 230.429,210.976 253.471,234.631 261.869 C 244.127 265.241,264.813 264.521,268.648 260.685 C 269.025 260.308,269.918 260.000,270.632 260.000 C 279.723 260.000,296.052 238.646,299.068 222.812 C 303.307 200.562,286.878 175.482,263.500 168.512 C 257.898 166.842,243.306 166.510,241.000 168.000 M342.000 168.000 C 341.175 168.533,339.645 168.976,338.600 168.985 C 331.020 169.046,309.000 186.606,309.000 192.590 C 309.000 193.365,308.622 194.000,308.160 194.000 C 307.698 194.000,306.751 195.912,306.056 198.250 C 305.361 200.588,304.389 203.534,303.896 204.797 C 303.403 206.060,303.000 210.824,303.000 215.382 C 303.000 269.473,377.387 283.228,397.357 232.829 C 402.476 219.911,399.844 197.050,392.225 188.258 C 391.276 187.163,389.375 184.797,388.000 183.001 C 379.384 171.747,350.684 162.388,342.000 168.000 M59.220 190.485 C 82.194 201.300,82.234 230.765,59.289 241.169 C 32.083 253.504,7.880 217.355,29.123 196.112 C 37.505 187.730,48.858 185.607,59.220 190.485 M159.873 190.436 C 165.440 193.257,172.092 200.348,174.750 206.297 C 185.287 229.876,154.369 253.211,132.500 238.184 C 105.250 219.459,130.439 175.520,159.873 190.436 M261.500 190.356 C 266.641 192.759,274.000 199.449,274.000 201.721 C 274.000 202.424,274.360 203.000,274.799 203.000 C 276.388 203.000,278.000 209.788,278.000 216.483 C 278.000 231.914,263.909 245.069,248.729 243.811 C 239.516 243.047,229.784 236.415,225.531 228.004 C 213.962 205.125,238.390 179.557,261.500 190.356 M360.679 189.201 C 362.506 189.861,364.000 190.761,364.000 191.201 C 364.000 191.640,364.575 192.000,365.277 192.000 C 366.865 192.000,371.836 196.507,374.651 200.500 C 390.456 222.915,365.662 252.482,340.592 241.114 C 319.587 231.590,318.533 200.411,338.896 190.975 C 340.328 190.311,342.175 189.397,343.000 188.943 C 345.295 187.680,356.944 187.850,360.679 189.201 " stroke="none" fill="#000000" fill-rule="evenodd"></path></g></svg>