<svg version="1.1" width="515" height="515" xmlns="http://www.w3.org/2000/svg"><g><path d="M87.500 177.277 C 84.750 178.337,81.600 179.574,80.500 180.024 C 75.035 182.264,55.361 189.580,46.500 192.667 C 41.000 194.584,34.925 196.839,33.000 197.678 C 27.326 200.152,13.683 205.212,9.250 206.488 L 7.000 207.135 7.000 256.067 C 7.000 294.550,7.267 304.999,8.250 304.995 C 9.331 304.990,21.571 309.482,27.500 312.060 C 28.600 312.538,32.200 313.889,35.500 315.062 C 59.653 323.644,66.425 326.120,73.276 328.874 C 77.553 330.593,81.495 332.000,82.037 332.000 C 82.579 332.000,85.059 332.957,87.548 334.128 L 92.074 336.255 98.787 334.194 C 102.479 333.060,108.425 331.416,112.000 330.540 C 118.054 329.057,127.006 326.472,136.500 323.468 L 140.500 322.202 140.757 256.140 C 141.048 181.489,141.997 189.433,132.500 187.056 C 129.750 186.368,126.825 185.556,126.000 185.253 C 125.175 184.950,120.675 183.623,116.000 182.305 C 103.166 178.686,101.865 178.307,97.000 176.770 C 92.902 175.475,92.053 175.521,87.500 177.277 M309.245 201.706 C 301.269 203.241,295.015 214.461,295.006 227.250 L 295.000 235.000 289.500 235.000 L 284.000 235.000 284.000 240.500 L 284.000 246.000 289.500 246.000 L 295.000 246.000 295.000 275.000 L 295.000 304.000 301.000 304.000 L 307.000 304.000 307.000 275.000 L 307.000 246.000 320.000 246.000 L 333.000 246.000 333.000 275.000 L 333.000 304.000 339.000 304.000 L 345.000 304.000 345.000 275.000 L 345.000 246.000 353.000 246.000 L 361.000 246.000 361.000 240.500 L 361.000 235.000 353.000 235.000 L 345.000 235.000 345.000 227.434 C 345.000 215.489,347.387 212.456,356.683 212.593 L 363.000 212.686 363.000 207.362 C 363.000 201.065,361.752 200.382,351.875 201.278 C 339.703 202.381,333.703 209.872,333.156 224.646 L 332.773 235.000 319.887 235.000 L 307.000 235.000 307.000 228.622 C 307.000 216.280,311.168 211.274,320.529 212.375 L 326.000 213.017 326.000 207.625 C 326.000 202.879,325.731 202.161,323.750 201.630 C 321.292 200.972,312.832 201.016,309.245 201.706 M92.000 257.833 C 92.000 319.900,92.461 315.004,86.727 313.894 C 84.402 313.444,77.100 312.347,70.500 311.457 C 58.149 309.790,52.322 308.975,38.500 306.981 C 34.100 306.346,26.000 305.281,20.500 304.614 C 12.775 303.678,11.069 303.213,13.000 302.571 C 14.375 302.113,17.414 300.848,19.753 299.758 C 22.092 298.668,26.817 296.814,30.253 295.637 L 36.500 293.498 36.762 254.361 L 37.023 215.224 39.762 214.724 C 41.268 214.449,44.975 213.553,48.000 212.731 C 51.025 211.909,55.300 210.941,57.500 210.578 C 59.700 210.215,62.625 209.535,64.000 209.066 C 65.375 208.598,69.200 207.669,72.500 207.002 C 75.800 206.336,79.400 205.439,80.500 205.010 C 82.245 204.328,89.110 202.487,91.250 202.126 C 91.662 202.057,92.000 227.125,92.000 257.833 M370.235 205.512 C 365.227 211.196,368.232 219.000,375.429 219.000 C 380.102 219.000,383.000 216.129,383.000 211.500 C 383.000 205.210,374.156 201.061,370.235 205.512 M220.482 207.468 C 197.751 214.656,187.572 229.979,187.579 257.000 C 187.588 291.619,210.145 311.115,243.114 305.001 C 277.702 298.587,291.146 245.701,265.000 218.909 C 258.819 212.575,254.744 210.153,245.101 207.082 C 240.576 205.642,225.512 205.878,220.482 207.468 M240.567 218.552 C 256.933 222.347,264.270 233.560,264.415 255.000 C 264.634 287.252,242.638 304.003,217.500 290.728 C 203.292 283.226,195.098 254.441,202.855 239.282 C 203.356 238.302,204.382 236.150,205.133 234.500 C 207.798 228.651,216.205 221.282,222.089 219.638 C 232.851 216.631,232.399 216.657,240.567 218.552 M416.500 234.154 C 386.074 244.259,381.439 288.653,409.291 303.200 C 416.742 307.091,442.377 305.551,443.112 301.167 C 445.000 289.897,444.231 288.688,437.377 292.146 C 420.221 300.799,404.556 290.718,404.517 271.000 C 404.476 250.193,419.317 238.858,436.596 246.500 C 444.182 249.855,444.138 249.878,443.798 242.793 L 443.500 236.587 438.500 234.797 C 433.003 232.830,421.499 232.494,416.500 234.154 M468.801 236.328 C 444.028 249.000,443.053 291.919,467.279 303.340 C 475.428 307.181,494.082 306.330,502.240 301.745 C 505.724 299.787,508.615 286.690,505.238 288.167 C 504.818 288.350,501.789 289.841,498.507 291.480 C 480.834 300.305,463.119 291.955,463.011 274.750 C 463.001 273.131,464.812 273.000,487.143 273.000 L 511.287 273.000 510.593 263.750 C 508.708 238.638,489.248 225.869,468.801 236.328 M369.000 269.500 L 369.000 304.000 375.000 304.000 L 381.000 304.000 381.000 269.500 L 381.000 235.000 375.000 235.000 L 369.000 235.000 369.000 269.500 M489.421 246.266 C 493.960 248.852,496.773 253.318,497.200 258.618 L 497.500 262.341 485.000 262.248 C 478.125 262.196,470.394 262.119,467.820 262.077 L 463.140 262.000 464.010 258.965 C 467.476 246.879,479.739 240.751,489.421 246.266 " stroke="none" fill-rule="evenodd"></path></g></svg>