<svg version="1.1" width="515" height="515" xmlns="http://www.w3.org/2000/svg">
<g>
<path d="M281.000 8.000 C 281.000 8.550,279.650 9.000,278.000 9.000 C 276.350 9.000,275.000 9.450,275.000 10.000 C 275.000 10.550,273.650 11.000,272.000 11.000 C 270.350 11.000,269.000 11.450,269.000 12.000 C 269.000 12.550,268.325 13.000,267.500 13.000 C 266.675 13.000,266.000 13.450,266.000 14.000 C 266.000 14.550,264.650 15.000,263.000 15.000 C 261.350 15.000,260.000 15.450,260.000 16.000 C 260.000 16.550,259.100 17.000,258.000 17.000 C 256.900 17.000,256.000 17.450,256.000 18.000 C 256.000 18.550,254.650 19.000,253.000 19.000 C 251.350 19.000,250.000 19.450,250.000 20.000 C 250.000 20.550,248.650 21.000,247.000 21.000 C 245.350 21.000,244.000 21.450,244.000 22.000 C 244.000 22.550,242.650 23.000,241.000 23.000 C 239.350 23.000,238.000 23.450,238.000 24.000 C 238.000 24.550,237.100 25.000,236.000 25.000 C 234.900 25.000,234.000 25.450,234.000 26.000 C 234.000 26.550,232.650 27.000,231.000 27.000 C 229.350 27.000,228.000 27.450,228.000 28.000 C 228.000 28.550,227.100 29.000,226.000 29.000 C 224.900 29.000,224.000 29.450,224.000 30.000 C 224.000 30.550,222.650 31.000,221.000 31.000 C 219.350 31.000,218.000 31.450,218.000 32.000 C 218.000 32.550,216.650 33.000,215.000 33.000 C 213.350 33.000,212.000 33.450,212.000 34.000 C 212.000 34.550,210.650 35.000,209.000 35.000 C 207.350 35.000,206.000 35.450,206.000 36.000 C 206.000 36.550,205.100 37.000,204.000 37.000 C 202.900 37.000,202.000 37.450,202.000 38.000 C 202.000 38.550,200.650 39.000,199.000 39.000 C 197.350 39.000,196.000 39.450,196.000 40.000 C 196.000 40.550,195.325 41.000,194.500 41.000 C 193.675 41.000,193.000 41.450,193.000 42.000 C 193.000 42.550,191.200 43.000,189.000 43.000 C 186.800 43.000,185.000 43.410,185.000 43.912 C 185.000 44.414,183.200 45.128,181.000 45.500 C 178.800 45.872,177.000 46.586,177.000 47.088 C 177.000 47.590,175.650 48.000,174.000 48.000 C 172.350 48.000,171.000 48.450,171.000 49.000 C 171.000 49.550,169.650 50.000,168.000 50.000 C 166.350 50.000,165.000 50.450,165.000 51.000 C 165.000 51.550,164.100 52.000,163.000 52.000 C 161.900 52.000,161.000 52.450,161.000 53.000 C 161.000 53.550,159.650 54.000,158.000 54.000 C 156.350 54.000,155.000 54.450,155.000 55.000 C 155.000 55.550,153.650 56.000,152.000 56.000 C 150.350 56.000,149.000 56.450,149.000 57.000 C 149.000 57.550,147.650 58.000,146.000 58.000 C 144.350 58.000,143.000 58.450,143.000 59.000 C 143.000 59.550,142.100 60.000,141.000 60.000 C 139.900 60.000,139.000 60.450,139.000 61.000 C 139.000 61.550,137.650 62.000,136.000 62.000 C 134.350 62.000,133.000 62.450,133.000 63.000 C 133.000 63.550,132.100 64.000,131.000 64.000 C 129.900 64.000,129.000 64.450,129.000 65.000 C 129.000 65.550,127.650 66.000,126.000 66.000 C 124.350 66.000,123.000 66.450,123.000 67.000 C 123.000 67.550,121.875 68.000,120.500 68.000 C 119.125 68.000,118.000 68.450,118.000 69.000 C 118.000 69.550,116.650 70.000,115.000 70.000 C 113.350 70.000,112.000 70.450,112.000 71.000 C 112.000 71.550,111.100 72.000,110.000 72.000 C 108.900 72.000,108.000 72.450,108.000 73.000 C 108.000 73.550,106.650 74.000,105.000 74.000 C 103.350 74.000,102.000 74.450,102.000 75.000 C 102.000 75.550,101.100 76.000,100.000 76.000 C 98.900 76.000,98.000 76.450,98.000 77.000 C 98.000 77.550,96.650 78.000,95.000 78.000 C 93.350 78.000,92.000 78.450,92.000 79.000 C 92.000 79.550,90.650 80.000,89.000 80.000 C 87.350 80.000,86.000 80.450,86.000 81.000 C 86.000 81.550,85.100 82.000,84.000 82.000 C 82.900 82.000,82.000 82.450,82.000 83.000 C 82.000 83.550,80.650 84.000,79.000 84.000 C 77.350 84.000,76.000 84.450,76.000 85.000 C 76.000 85.550,74.650 86.000,73.000 86.000 C 71.350 86.000,70.000 86.450,70.000 87.000 C 70.000 87.550,69.100 88.000,68.000 88.000 C 66.900 88.000,66.000 88.450,66.000 89.000 C 66.000 89.550,64.650 90.000,63.000 90.000 C 61.350 90.000,60.000 90.450,60.000 91.000 C 60.000 91.550,58.902 92.000,57.559 92.000 C 56.216 92.000,54.840 92.450,54.500 93.000 C 54.160 93.550,53.009 94.000,51.941 94.000 C 50.873 94.000,50.000 94.450,50.000 95.000 C 50.000 95.550,48.875 96.000,47.500 96.000 C 46.125 96.000,45.000 96.450,45.000 97.000 C 45.000 97.550,43.650 98.000,42.000 98.000 C 40.350 98.000,39.000 98.450,39.000 99.000 C 39.000 99.550,38.100 100.000,37.000 100.000 C 35.900 100.000,35.000 100.450,35.000 101.000 C 35.000 101.550,33.650 102.000,32.000 102.000 C 30.350 102.000,29.000 102.450,29.000 103.000 C 29.000 103.550,27.843 104.000,26.429 104.000 C 20.639 104.000,21.000 94.020,21.000 254.000 C 21.000 372.363,21.251 401.394,22.282 402.425 C 22.988 403.131,25.688 404.026,28.282 404.415 C 30.877 404.804,33.000 405.545,33.000 406.061 C 33.000 406.578,34.350 407.000,36.000 407.000 C 37.650 407.000,39.000 407.450,39.000 408.000 C 39.000 408.550,39.900 409.000,41.000 409.000 C 42.100 409.000,43.000 409.450,43.000 410.000 C 43.000 410.550,44.125 411.000,45.500 411.000 C 46.875 411.000,48.000 411.450,48.000 412.000 C 48.000 412.550,49.350 413.000,51.000 413.000 C 52.650 413.000,54.000 413.450,54.000 414.000 C 54.000 414.550,55.350 415.000,57.000 415.000 C 58.650 415.000,60.000 415.450,60.000 416.000 C 60.000 416.550,60.900 417.000,62.000 417.000 C 63.100 417.000,64.000 417.450,64.000 418.000 C 64.000 418.550,65.350 419.000,67.000 419.000 C 68.650 419.000,70.000 419.450,70.000 420.000 C 70.000 420.550,70.900 421.000,72.000 421.000 C 73.100 421.000,74.000 421.450,74.000 422.000 C 74.000 422.550,75.800 423.000,78.000 423.000 C 80.200 423.000,82.000 423.450,82.000 424.000 C 82.000 424.550,82.900 425.000,84.000 425.000 C 85.100 425.000,86.000 425.450,86.000 426.000 C 86.000 426.550,87.350 427.000,89.000 427.000 C 90.650 427.000,92.000 427.450,92.000 428.000 C 92.000 428.550,92.900 429.000,94.000 429.000 C 95.100 429.000,96.000 429.450,96.000 430.000 C 96.000 430.550,97.350 431.000,99.000 431.000 C 100.650 431.000,102.000 431.450,102.000 432.000 C 102.000 432.550,103.350 433.000,105.000 433.000 C 106.650 433.000,108.000 433.450,108.000 434.000 C 108.000 434.550,109.350 435.000,111.000 435.000 C 112.650 435.000,114.000 435.450,114.000 436.000 C 114.000 436.550,114.900 437.000,116.000 437.000 C 117.100 437.000,118.000 437.450,118.000 438.000 C 118.000 438.550,119.125 439.000,120.500 439.000 C 121.875 439.000,123.000 439.450,123.000 440.000 C 123.000 440.550,124.350 441.000,126.000 441.000 C 127.650 441.000,129.000 441.450,129.000 442.000 C 129.000 442.550,130.350 443.000,132.000 443.000 C 133.650 443.000,135.000 443.450,135.000 444.000 C 135.000 444.550,135.900 445.000,137.000 445.000 C 138.100 445.000,139.000 445.450,139.000 446.000 C 139.000 446.550,140.350 447.000,142.000 447.000 C 143.650 447.000,145.000 447.450,145.000 448.000 C 145.000 448.550,145.900 449.000,147.000 449.000 C 148.100 449.000,149.000 449.450,149.000 450.000 C 149.000 450.550,150.323 451.000,151.941 451.000 C 153.559 451.000,155.160 451.450,155.500 452.000 C 155.840 452.550,157.216 453.000,158.559 453.000 C 159.902 453.000,161.000 453.450,161.000 454.000 C 161.000 454.550,162.350 455.000,164.000 455.000 C 165.650 455.000,167.000 455.450,167.000 456.000 C 167.000 456.550,167.900 457.000,169.000 457.000 C 170.100 457.000,171.000 457.450,171.000 458.000 C 171.000 458.550,172.350 459.000,174.000 459.000 C 175.650 459.000,177.000 459.450,177.000 460.000 C 177.000 460.550,178.350 461.000,180.000 461.000 C 181.650 461.000,183.000 461.450,183.000 462.000 C 183.000 462.550,184.350 463.000,186.000 463.000 C 187.650 463.000,189.000 463.450,189.000 464.000 C 189.000 464.550,189.900 465.000,191.000 465.000 C 192.100 465.000,193.000 465.450,193.000 466.000 C 193.000 466.550,194.125 467.000,195.500 467.000 C 196.875 467.000,198.000 467.450,198.000 468.000 C 198.000 468.550,199.350 469.000,201.000 469.000 C 202.650 469.000,204.000 469.450,204.000 470.000 C 204.000 470.550,204.873 471.000,205.941 471.000 C 207.009 471.000,208.160 471.450,208.500 472.000 C 208.840 472.550,210.216 473.000,211.559 473.000 C 212.902 473.000,214.000 473.450,214.000 474.000 C 214.000 474.550,215.350 475.000,217.000 475.000 C 218.650 475.000,220.000 475.435,220.000 475.966 C 220.000 476.497,222.250 477.230,225.000 477.594 C 227.750 477.959,230.000 478.650,230.000 479.129 C 230.000 479.608,231.350 480.000,233.000 480.000 C 234.650 480.000,236.000 480.450,236.000 481.000 C 236.000 481.550,237.350 482.000,239.000 482.000 C 240.650 482.000,242.000 482.450,242.000 483.000 C 242.000 483.550,242.900 484.000,244.000 484.000 C 245.100 484.000,246.000 484.450,246.000 485.000 C 246.000 485.550,247.350 486.000,249.000 486.000 C 250.650 486.000,252.000 486.450,252.000 487.000 C 252.000 487.550,253.350 488.000,255.000 488.000 C 256.650 488.000,258.000 488.450,258.000 489.000 C 258.000 489.550,259.350 490.000,261.000 490.000 C 262.650 490.000,264.000 490.450,264.000 491.000 C 264.000 491.550,264.675 492.000,265.500 492.000 C 266.325 492.000,267.000 492.450,267.000 493.000 C 267.000 493.550,268.350 494.000,270.000 494.000 C 271.650 494.000,273.000 494.450,273.000 495.000 C 273.000 495.550,273.900 496.000,275.000 496.000 C 276.100 496.000,277.000 496.450,277.000 497.000 C 277.000 497.571,280.000 498.000,284.000 498.000 C 288.000 498.000,291.000 497.571,291.000 497.000 C 291.000 496.450,292.350 496.000,294.000 496.000 C 295.650 496.000,297.000 495.550,297.000 495.000 C 297.000 494.450,298.800 494.000,301.000 494.000 C 303.200 494.000,305.000 493.550,305.000 493.000 C 305.000 492.450,306.350 492.000,308.000 492.000 C 309.650 492.000,311.000 491.550,311.000 491.000 C 311.000 490.450,312.800 490.000,315.000 490.000 C 317.200 490.000,319.000 489.550,319.000 489.000 C 319.000 488.450,320.350 488.000,322.000 488.000 C 323.650 488.000,325.000 487.550,325.000 487.000 C 325.000 486.450,326.575 486.000,328.500 486.000 C 330.425 486.000,332.000 485.550,332.000 485.000 C 332.000 484.450,333.800 484.000,336.000 484.000 C 338.200 484.000,340.000 483.550,340.000 483.000 C 340.000 482.450,341.350 482.000,343.000 482.000 C 344.650 482.000,346.000 481.550,346.000 481.000 C 346.000 480.450,347.800 480.000,350.000 480.000 C 352.200 480.000,354.000 479.608,354.000 479.129 C 354.000 478.650,357.150 477.948,361.000 477.569 C 364.850 477.189,368.000 476.456,368.000 475.939 C 368.000 475.423,369.800 475.000,372.000 475.000 C 374.200 475.000,376.000 474.550,376.000 474.000 C 376.000 473.450,377.350 473.000,379.000 473.000 C 380.650 473.000,382.000 472.550,382.000 472.000 C 382.000 471.450,383.800 471.000,386.000 471.000 C 388.200 471.000,390.000 470.550,390.000 470.000 C 390.000 469.450,391.350 469.000,393.000 469.000 C 394.650 469.000,396.000 468.550,396.000 468.000 C 396.000 467.450,397.800 467.000,400.000 467.000 C 402.200 467.000,404.000 466.550,404.000 466.000 C 404.000 465.450,405.575 465.000,407.500 465.000 C 409.425 465.000,411.000 464.550,411.000 464.000 C 411.000 463.450,412.350 463.000,414.000 463.000 C 415.650 463.000,417.000 462.550,417.000 462.000 C 417.000 461.450,418.800 461.000,421.000 461.000 C 423.200 461.000,425.000 460.550,425.000 460.000 C 425.000 459.450,425.707 459.000,426.571 459.000 C 431.224 459.000,431.000 469.396,431.000 253.500 C 431.000 33.071,431.394 48.000,425.571 48.000 C 424.157 48.000,423.000 47.608,423.000 47.129 C 423.000 46.650,419.850 45.948,416.000 45.569 C 412.150 45.189,409.000 44.456,409.000 43.939 C 409.000 43.423,407.425 43.000,405.500 43.000 C 403.575 43.000,402.000 42.550,402.000 42.000 C 402.000 41.450,400.650 41.000,399.000 41.000 C 397.350 41.000,396.000 40.550,396.000 40.000 C 396.000 39.450,394.200 39.000,392.000 39.000 C 389.800 39.000,388.000 38.550,388.000 38.000 C 388.000 37.450,386.650 37.000,385.000 37.000 C 383.350 37.000,382.000 36.550,382.000 36.000 C 382.000 35.450,380.200 35.000,378.000 35.000 C 375.800 35.000,374.000 34.550,374.000 34.000 C 374.000 33.450,372.650 33.000,371.000 33.000 C 369.350 33.000,368.000 32.550,368.000 32.000 C 368.000 31.450,366.200 31.000,364.000 31.000 C 361.800 31.000,360.000 30.550,360.000 30.000 C 360.000 29.450,358.650 29.000,357.000 29.000 C 355.350 29.000,354.000 28.550,354.000 28.000 C 354.000 27.450,352.200 27.000,350.000 27.000 C 347.800 27.000,346.000 26.550,346.000 26.000 C 346.000 25.450,344.650 25.000,343.000 25.000 C 341.350 25.000,340.000 24.550,340.000 24.000 C 340.000 23.450,338.650 23.000,337.000 23.000 C 335.350 23.000,334.000 22.550,334.000 22.000 C 334.000 21.450,332.425 21.000,330.500 21.000 C 328.575 21.000,327.000 20.550,327.000 20.000 C 327.000 19.450,325.650 19.000,324.000 19.000 C 322.350 19.000,321.000 18.550,321.000 18.000 C 321.000 17.450,319.200 17.000,317.000 17.000 C 314.800 17.000,313.000 16.550,313.000 16.000 C 313.000 15.450,311.650 15.000,310.000 15.000 C 308.350 15.000,307.000 14.550,307.000 14.000 C 307.000 13.450,305.200 13.000,303.000 13.000 C 300.800 13.000,299.000 12.550,299.000 12.000 C 299.000 11.450,297.650 11.000,296.000 11.000 C 294.350 11.000,293.000 10.550,293.000 10.000 C 293.000 9.450,291.200 9.000,289.000 9.000 C 286.800 9.000,285.000 8.550,285.000 8.000 C 285.000 7.450,284.100 7.000,283.000 7.000 C 281.900 7.000,281.000 7.450,281.000 8.000 M281.000 260.071 C 281.000 406.133,280.798 430.345,279.571 431.571 C 277.933 433.210,275.000 433.485,275.000 432.000 C 275.000 431.444,272.333 431.000,269.000 431.000 C 265.667 431.000,263.000 430.556,263.000 430.000 C 263.000 429.412,259.500 429.000,254.500 429.000 C 249.500 429.000,246.000 428.588,246.000 428.000 C 246.000 427.444,243.333 427.000,240.000 427.000 C 236.667 427.000,234.000 426.556,234.000 426.000 C 234.000 425.407,230.333 425.000,225.000 425.000 C 219.667 425.000,216.000 424.593,216.000 424.000 C 216.000 423.450,213.777 423.000,211.059 423.000 C 208.341 423.000,205.840 422.550,205.500 422.000 C 205.160 421.450,201.534 421.000,197.441 421.000 C 193.147 421.000,190.000 420.577,190.000 420.000 C 190.000 419.422,186.833 419.000,182.500 419.000 C 178.167 419.000,175.000 418.578,175.000 418.000 C 175.000 417.429,172.000 417.000,168.000 417.000 C 164.150 417.000,161.000 416.593,161.000 416.095 C 161.000 415.598,154.250 414.865,146.000 414.467 C 137.750 414.069,131.000 413.352,131.000 412.872 C 131.000 412.392,128.300 412.000,125.000 412.000 C 121.667 412.000,119.000 411.556,119.000 411.000 C 119.000 410.422,115.833 410.000,111.500 410.000 C 107.167 410.000,104.000 409.578,104.000 409.000 C 104.000 408.429,101.000 408.000,97.000 408.000 C 93.000 408.000,90.000 407.571,90.000 407.000 C 90.000 406.417,86.667 406.000,82.000 406.000 C 77.333 406.000,74.000 405.583,74.000 405.000 C 74.000 404.444,71.333 404.000,68.000 404.000 C 64.667 404.000,62.000 403.556,62.000 403.000 C 62.000 402.417,58.667 402.000,54.000 402.000 C 49.333 402.000,46.000 401.583,46.000 401.000 C 46.000 400.450,43.525 400.000,40.500 400.000 C 37.475 400.000,35.000 399.550,35.000 399.000 C 35.000 398.450,35.675 398.000,36.500 398.000 C 37.325 398.000,38.000 397.550,38.000 397.000 C 38.000 396.450,39.350 396.000,41.000 396.000 C 42.650 396.000,44.000 395.550,44.000 395.000 C 44.000 394.450,44.900 394.000,46.000 394.000 C 47.100 394.000,48.000 393.550,48.000 393.000 C 48.000 392.450,49.350 392.000,51.000 392.000 C 52.650 392.000,54.000 391.550,54.000 391.000 C 54.000 390.450,54.900 390.000,56.000 390.000 C 57.100 390.000,58.000 389.550,58.000 389.000 C 58.000 388.450,59.350 388.000,61.000 388.000 C 62.650 388.000,64.000 387.550,64.000 387.000 C 64.000 386.450,64.900 386.000,66.000 386.000 C 67.100 386.000,68.000 385.550,68.000 385.000 C 68.000 384.450,69.350 384.000,71.000 384.000 C 72.650 384.000,74.000 383.550,74.000 383.000 C 74.000 382.450,74.900 382.000,76.000 382.000 C 77.100 382.000,78.000 381.550,78.000 381.000 C 78.000 380.450,79.350 380.000,81.000 380.000 C 82.650 380.000,84.000 379.550,84.000 379.000 C 84.000 378.450,84.900 378.000,86.000 378.000 C 87.100 378.000,88.000 377.550,88.000 377.000 C 88.000 376.450,89.350 376.000,91.000 376.000 C 92.650 376.000,94.000 375.550,94.000 375.000 C 94.000 374.450,94.900 374.000,96.000 374.000 C 97.100 374.000,98.000 373.550,98.000 373.000 C 98.000 372.450,99.350 372.000,101.000 372.000 C 102.650 372.000,104.000 371.550,104.000 371.000 C 104.000 370.450,105.350 370.000,107.000 370.000 C 108.650 370.000,110.000 369.550,110.000 369.000 C 110.000 368.450,110.675 368.000,111.500 368.000 C 112.825 368.000,113.000 354.056,113.000 248.500 C 113.000 129.667,113.011 129.000,115.000 129.000 C 116.100 129.000,117.000 128.550,117.000 128.000 C 117.000 127.450,119.250 127.000,122.000 127.000 C 124.750 127.000,127.000 126.550,127.000 126.000 C 127.000 125.450,128.800 125.000,131.000 125.000 C 133.200 125.000,135.000 124.550,135.000 124.000 C 135.000 123.450,137.250 123.000,140.000 123.000 C 142.750 123.000,145.000 122.550,145.000 122.000 C 145.000 121.450,146.350 121.000,148.000 121.000 C 149.650 121.000,151.000 120.550,151.000 120.000 C 151.000 119.450,153.250 119.000,156.000 119.000 C 158.750 119.000,161.000 118.550,161.000 118.000 C 161.000 117.450,162.800 117.000,165.000 117.000 C 167.200 117.000,169.000 116.550,169.000 116.000 C 169.000 115.450,170.800 115.000,173.000 115.000 C 175.200 115.000,177.000 114.550,177.000 114.000 C 177.000 113.450,178.575 113.000,180.500 113.000 C 182.425 113.000,184.000 112.616,184.000 112.147 C 184.000 111.677,187.488 110.999,191.750 110.639 C 196.012 110.279,199.650 109.538,199.833 108.992 C 200.017 108.447,202.379 108.000,205.083 108.000 C 207.787 108.000,210.000 107.550,210.000 107.000 C 210.000 106.450,211.800 106.000,214.000 106.000 C 216.200 106.000,218.000 105.595,218.000 105.101 C 218.000 104.606,219.912 103.952,222.250 103.647 C 230.657 102.550,234.000 101.766,234.000 100.891 C 234.000 100.401,236.250 100.000,239.000 100.000 C 241.750 100.000,244.000 99.550,244.000 99.000 C 244.000 98.450,245.350 98.000,247.000 98.000 C 248.650 98.000,250.000 97.550,250.000 97.000 C 250.000 96.450,252.025 96.000,254.500 96.000 C 256.975 96.000,259.000 95.550,259.000 95.000 C 259.000 94.450,260.800 94.000,263.000 94.000 C 265.200 94.000,267.000 93.550,267.000 93.000 C 267.000 92.450,268.800 92.000,271.000 92.000 C 273.200 92.000,275.000 91.550,275.000 91.000 C 275.000 90.450,276.350 90.000,278.000 90.000 L 281.000 90.000 281.000 260.071 " stroke="none" fill-rule="evenodd"></path>
</g>
</svg>