<svg version="1.1" width="515" height="515" xmlns="http://www.w3.org/2000/svg">
<g>
<path d="M61.000 129.981 C 56.875 131.637,52.957 132.994,52.294 132.996 C 51.631 132.998,48.798 134.350,46.000 136.000 C 43.202 137.650,40.294 139.000,39.539 139.000 C 38.784 139.000,38.017 139.338,37.833 139.750 C 37.650 140.162,34.891 142.206,31.702 144.292 C 21.395 151.033,6.000 168.861,6.000 174.055 C 6.000 175.060,5.585 176.138,5.078 176.452 C -0.601 179.961,-2.243 222.733,2.648 239.746 C 4.032 244.561,5.418 249.581,5.728 250.902 C 8.628 263.268,24.719 283.641,38.597 292.519 C 55.109 303.082,81.862 306.518,94.891 299.750 C 97.803 298.238,100.818 297.000,101.592 297.000 C 102.367 297.000,103.000 296.298,103.000 295.441 C 103.000 294.584,103.404 294.132,103.898 294.437 C 104.392 294.743,106.177 293.703,107.863 292.128 C 109.550 290.552,111.072 289.405,111.245 289.578 C 112.036 290.370,127.000 273.191,127.000 271.491 C 127.000 271.050,128.032 269.296,129.293 267.594 C 130.554 265.892,133.057 261.463,134.855 257.750 C 138.944 249.310,138.804 249.278,142.934 259.576 C 149.533 276.031,165.642 294.416,175.233 296.439 C 175.930 296.586,179.425 298.054,183.000 299.700 C 194.483 304.989,219.154 306.326,249.863 303.323 L 256.225 302.701 255.480 289.100 C 255.071 281.620,254.458 265.375,254.118 253.000 L 253.500 230.500 247.500 230.258 C 241.921 230.033,230.115 228.896,199.000 225.587 C 192.125 224.856,186.346 224.392,186.157 224.555 C 185.296 225.302,190.678 262.029,191.819 263.196 C 192.194 263.580,195.875 263.278,200.000 262.526 C 223.083 258.318,221.047 258.064,219.846 265.000 C 219.322 268.025,218.853 271.625,218.802 273.000 C 218.752 274.375,218.513 274.938,218.272 274.250 C 217.981 273.420,215.591 272.996,211.167 272.989 C 188.740 272.953,169.765 257.889,169.765 240.122 C 169.765 216.606,195.923 206.858,236.331 215.315 C 255.420 219.310,253.327 220.563,256.479 203.250 C 260.490 181.223,261.026 180.680,261.063 198.603 C 261.077 205.146,262.414 230.975,264.034 256.000 C 265.655 281.025,266.985 303.234,266.990 305.353 L 267.000 309.206 289.137 308.633 C 301.312 308.318,311.529 307.805,311.840 307.493 C 312.152 307.181,311.660 302.105,310.746 296.213 C 309.029 285.142,307.764 272.979,308.695 276.500 C 308.985 277.600,310.523 280.435,312.112 282.800 C 313.700 285.165,315.000 287.575,315.000 288.155 C 315.000 288.735,316.281 291.109,317.847 293.429 C 319.414 295.750,320.997 298.852,321.366 300.324 C 322.249 303.839,324.402 303.789,335.338 300.000 C 340.100 298.350,344.871 297.000,345.939 297.000 C 349.443 297.000,349.176 295.136,344.187 284.753 C 336.455 268.661,336.335 269.220,348.000 267.000 C 354.425 265.777,367.624 260.306,373.186 256.561 C 379.297 252.445,388.000 244.952,388.000 243.805 C 388.000 243.316,388.828 242.028,389.840 240.941 C 390.852 239.855,392.178 237.961,392.785 236.733 C 395.489 231.272,398.013 224.962,398.157 223.305 C 398.517 219.180,399.761 236.362,399.872 247.000 C 399.982 257.408,402.952 311.156,403.450 311.745 C 403.564 311.880,408.797 311.320,415.078 310.501 C 421.360 309.682,429.875 308.804,434.000 308.549 C 438.125 308.294,449.508 306.941,459.296 305.543 C 469.084 304.144,477.250 303.000,477.441 303.000 C 477.868 303.000,476.810 298.319,474.728 291.000 C 473.868 287.975,472.545 282.800,471.787 279.500 C 470.140 272.318,469.427 272.112,453.750 274.281 L 444.000 275.630 444.000 269.159 L 444.000 262.689 458.500 263.315 C 469.818 263.804,473.000 263.665,473.000 262.683 C 473.000 261.990,472.329 256.041,471.508 249.462 C 470.687 242.883,470.012 237.387,470.008 237.250 C 470.004 237.113,464.825 237.000,458.500 237.000 L 447.000 237.000 447.000 230.500 C 447.000 226.925,447.337 223.991,447.750 223.980 C 448.510 223.959,462.495 227.993,478.000 232.706 C 485.578 235.009,498.222 238.028,498.669 237.641 C 499.198 237.183,503.000 194.612,503.000 189.149 C 503.000 185.555,503.715 174.341,504.590 164.230 C 505.464 154.119,506.018 145.684,505.820 145.487 C 505.622 145.289,493.320 146.243,478.480 147.606 C 463.641 148.969,445.537 150.354,438.250 150.684 C 430.962 151.014,425.000 151.656,425.000 152.110 C 425.000 152.565,424.283 152.662,423.407 152.326 C 422.531 151.990,415.733 152.302,408.300 153.019 L 394.786 154.324 395.422 163.912 C 397.364 193.241,397.351 191.674,395.639 189.500 C 394.772 188.400,394.049 186.938,394.032 186.250 C 394.014 185.563,393.475 185.000,392.833 185.000 C 392.192 185.000,391.954 184.713,392.305 184.361 C 393.538 183.129,375.764 164.000,373.386 164.000 C 372.758 164.000,371.656 163.290,370.935 162.422 C 370.215 161.554,367.495 159.764,364.890 158.444 C 362.286 157.125,358.482 154.910,356.438 153.522 C 354.393 152.135,352.087 151.000,351.312 151.000 C 350.537 151.000,348.064 150.111,345.816 149.025 C 343.567 147.939,341.386 147.261,340.969 147.519 C 340.551 147.777,339.952 147.316,339.636 146.494 C 339.321 145.672,337.961 145.000,336.614 145.000 C 335.268 145.000,332.033 144.086,329.427 142.969 C 326.821 141.851,324.200 141.100,323.603 141.299 C 323.006 141.498,321.919 141.062,321.188 140.330 C 320.456 139.599,318.606 139.000,317.077 139.000 C 315.548 139.000,308.989 137.650,302.500 136.000 C 296.011 134.350,289.532 132.996,288.101 132.992 C 286.671 132.988,280.100 131.641,273.500 130.000 C 258.142 126.181,257.000 126.169,257.000 129.832 L 257.000 132.664 234.750 132.582 C 207.053 132.480,200.858 133.070,189.240 136.913 C 179.966 139.981,166.475 146.845,164.390 149.556 C 163.779 150.350,162.896 151.000,162.428 151.000 C 161.349 151.000,151.000 162.070,151.000 163.224 C 151.000 163.697,150.172 164.972,149.160 166.059 C 148.148 167.145,146.844 169.039,146.263 170.267 C 142.635 177.937,139.994 184.222,139.956 185.277 C 139.932 185.950,139.302 184.925,138.556 183.000 C 134.829 173.377,130.809 164.540,129.008 162.011 C 127.903 160.460,127.000 158.889,127.000 158.520 C 127.000 157.545,118.556 146.959,115.288 143.837 C 101.538 130.703,75.654 124.096,61.000 129.981 M324.230 216.656 C 333.469 218.506,337.917 221.199,340.410 226.451 C 346.097 238.437,336.513 246.526,314.379 248.420 C 304.881 249.233,305.553 249.954,303.957 237.239 C 303.354 232.432,302.497 225.800,302.054 222.500 C 300.936 214.187,305.668 212.940,324.230 216.656 M100.293 238.952 C 115.052 251.911,94.628 277.973,77.591 267.921 C 66.847 261.582,70.079 244.771,83.500 237.190 C 87.740 234.795,96.619 235.727,100.293 238.952 " stroke="none" fill-rule="evenodd"></path>
</g>
</svg>