<svg version="1.1" width="515" height="515" xmlns="http://www.w3.org/2000/svg"><g><path d="M257.625 106.554 C 248.309 108.405,238.000 111.921,238.000 113.248 C 238.000 113.845,237.723 114.056,237.384 113.718 C 236.833 113.167,227.241 117.577,226.000 118.952 C 225.725 119.256,223.492 120.854,221.037 122.503 C 211.704 128.771,192.418 149.543,189.634 156.325 C 189.288 157.169,188.920 157.191,188.326 156.401 C 184.964 151.927,160.192 146.422,147.658 147.363 C 138.676 148.037,124.000 151.705,124.000 153.276 C 124.000 153.858,123.737 154.070,123.415 153.748 C 122.604 152.937,117.000 154.989,117.000 156.098 C 117.000 156.594,116.284 157.000,115.408 157.000 C 113.847 157.000,111.372 158.662,104.484 164.335 C 102.590 165.895,100.379 167.268,99.569 167.387 C 97.578 167.679,93.927 171.072,94.538 172.062 C 94.808 172.498,92.880 175.701,90.253 179.178 C 87.626 182.655,84.194 188.200,82.626 191.500 C 81.058 194.800,79.382 198.272,78.900 199.216 C 76.219 204.475,73.217 221.165,73.408 229.750 C 73.557 236.426,73.409 237.001,71.535 237.008 C 65.864 237.029,51.685 242.724,43.500 248.269 C 22.555 262.456,12.736 291.545,20.021 317.832 C 21.132 321.843,21.738 325.616,21.366 326.217 C 20.931 326.921,21.161 327.019,22.015 326.490 C 22.985 325.891,23.164 326.132,22.681 327.388 C 22.319 328.332,22.421 328.858,22.907 328.558 C 24.043 327.855,25.213 330.846,24.349 332.245 C 23.961 332.873,24.165 333.016,24.847 332.594 C 25.539 332.167,26.368 332.807,26.911 334.190 C 29.115 339.799,40.822 351.439,49.441 356.591 C 62.761 364.553,67.280 365.424,97.245 365.805 C 127.540 366.190,124.919 367.157,119.833 357.475 C 112.819 344.119,109.077 306.195,114.014 298.500 C 114.367 297.950,115.414 295.445,116.340 292.934 C 119.540 284.260,126.231 275.330,136.331 266.250 C 138.320 264.462,140.409 263.000,140.973 263.000 C 141.538 263.000,142.000 262.523,142.000 261.941 C 142.000 261.359,142.450 261.160,143.000 261.500 C 143.550 261.840,144.000 261.650,144.000 261.078 C 144.000 260.506,145.125 259.756,146.500 259.411 C 147.875 259.066,149.000 258.444,149.000 258.030 C 149.000 256.000,174.663 247.273,177.468 248.349 C 178.259 248.653,178.549 248.058,178.293 246.659 C 178.076 245.471,178.835 241.800,179.979 238.500 C 181.123 235.200,182.256 231.656,182.496 230.626 C 182.736 229.595,183.623 227.698,184.467 226.411 C 185.310 225.124,186.000 223.534,186.000 222.878 C 186.000 218.710,204.034 194.791,210.147 190.851 C 212.153 189.558,213.587 188.159,213.334 187.743 C 213.081 187.327,213.689 186.684,214.687 186.316 C 215.684 185.947,216.725 185.365,217.000 185.023 C 217.275 184.680,219.750 183.034,222.500 181.366 C 251.279 163.904,295.210 163.907,321.256 181.373 C 329.199 186.699,343.000 200.561,343.000 203.213 C 343.000 204.414,345.333 203.911,353.500 200.949 C 357.154 199.624,363.215 198.524,369.000 198.136 L 378.500 197.500 378.204 193.004 C 378.042 190.532,377.479 188.079,376.954 187.554 C 376.429 187.029,376.000 185.221,376.000 183.535 C 376.000 181.850,375.079 178.752,373.953 176.651 C 372.827 174.551,371.815 171.564,371.703 170.014 C 371.591 168.463,371.235 167.358,370.910 167.557 C 370.586 167.757,369.263 165.576,367.972 162.710 C 362.439 150.438,348.753 133.573,338.597 126.511 C 312.091 108.080,284.352 101.243,257.625 106.554 M257.000 181.534 C 243.582 183.955,226.000 190.530,226.000 193.127 C 226.000 193.607,225.496 194.000,224.880 194.000 C 224.265 194.000,220.395 197.262,216.280 201.250 C 212.165 205.238,208.361 208.376,207.825 208.225 C 207.290 208.074,207.154 208.440,207.524 209.038 C 207.893 209.637,207.497 210.898,206.644 211.841 C 204.530 214.177,197.000 227.978,197.000 229.516 C 197.000 230.198,196.325 231.315,195.500 232.000 C 194.675 232.685,194.000 234.246,194.000 235.469 C 194.000 236.692,193.355 238.999,192.568 240.596 C 191.780 242.193,190.508 246.632,189.742 250.461 L 188.349 257.422 179.707 259.122 C 162.993 262.412,151.465 267.771,141.843 276.723 C 140.382 278.083,138.836 279.139,138.406 279.070 C 137.977 279.001,137.540 279.528,137.435 280.241 C 137.331 280.954,135.901 283.554,134.258 286.018 C 132.616 288.483,130.364 292.975,129.255 296.000 C 127.374 301.130,126.961 303.052,125.501 313.457 C 123.964 324.402,129.062 347.979,134.984 357.315 C 136.664 359.963,137.735 362.620,137.365 363.219 C 136.977 363.847,137.152 364.024,137.777 363.638 C 139.089 362.827,142.170 366.915,141.304 368.317 C 140.967 368.863,141.156 369.022,141.723 368.671 C 142.291 368.320,144.792 369.825,147.281 372.016 C 149.770 374.207,152.300 376.000,152.903 376.000 C 153.507 376.000,154.000 376.366,154.000 376.813 C 154.000 377.836,162.424 381.541,169.846 383.783 C 175.040 385.351,186.737 385.513,313.500 385.764 C 470.108 386.076,459.491 386.601,469.201 378.054 C 471.693 375.860,474.055 374.388,474.449 374.783 C 474.844 375.177,475.017 374.845,474.833 374.045 C 474.650 373.245,475.174 372.570,475.999 372.545 C 476.823 372.520,477.498 371.600,477.499 370.500 C 477.499 369.369,478.075 368.619,478.824 368.775 C 479.553 368.926,479.906 368.657,479.609 368.177 C 479.312 367.696,480.578 364.423,482.422 360.902 C 484.265 357.381,486.092 352.250,486.480 349.500 C 486.869 346.750,487.557 344.050,488.009 343.500 C 492.424 338.124,484.908 308.810,476.575 298.907 C 475.151 297.215,474.284 295.349,474.648 294.761 C 475.020 294.158,474.842 293.980,474.239 294.352 C 473.651 294.716,471.894 293.957,470.335 292.666 C 465.648 288.784,458.910 285.328,451.387 282.946 L 444.274 280.695 443.707 271.097 C 443.165 261.929,440.756 252.305,437.354 245.721 C 436.564 244.192,436.195 242.493,436.533 241.946 C 436.872 241.398,436.553 241.074,435.824 241.225 C 435.096 241.376,434.560 240.730,434.632 239.789 C 434.705 238.848,434.447 238.173,434.060 238.289 C 433.672 238.405,431.028 235.712,428.185 232.304 C 410.770 211.427,379.316 204.125,349.637 214.068 C 343.453 216.140,340.350 216.750,339.636 216.036 C 339.066 215.466,338.895 215.000,339.255 215.000 C 339.615 215.000,338.780 213.871,337.401 212.492 C 336.017 211.108,335.210 209.469,335.601 208.837 C 336.003 208.186,335.870 207.962,335.293 208.319 C 334.244 208.967,325.500 200.323,325.500 198.637 C 325.500 198.117,324.612 197.560,323.527 197.401 C 322.442 197.242,321.043 196.412,320.417 195.556 C 319.791 194.700,318.822 194.000,318.262 194.000 C 317.703 194.000,316.657 193.292,315.939 192.427 C 308.599 183.583,277.500 177.835,257.000 181.534 " stroke="none" fill-rule="evenodd"></path></g></svg>