<svg xmlns="http://www.w3.org/2000/svg" width="400" height="400" viewBox="0, 0, 400,400">
<g>
<path d="M114.227 28.634 C 110.617 29.502,107.750 31.601,105.500 35.023 L 103.333 38.318 103.333 61.492 L 103.333 84.667 156.833 84.675 C 215.277 84.683,215.162 84.676,219.896 88.507 C 223.424 91.363,226.025 94.865,226.765 97.754 C 227.710 101.444,228.176 204.887,227.519 265.000 C 226.875 323.984,227.917 318.024,216.763 326.500 L 214.789 328.000 159.061 328.000 L 103.333 328.000 103.333 344.841 L 103.333 361.682 105.501 364.995 C 106.837 367.037,108.821 368.953,110.668 369.988 L 113.667 371.667 211.833 371.846 L 310.000 372.026 310.000 241.813 C 310.000 141.425,310.183 111.417,310.800 110.800 C 311.406 110.194,321.941 110.000,354.133 110.000 L 396.667 110.000 396.622 73.833 L 396.578 37.667 394.408 34.667 C 393.214 33.017,390.909 30.917,389.286 30.000 L 386.333 28.333 251.333 28.230 C 177.083 28.173,115.385 28.355,114.227 28.634 M56.333 99.988 L 12.333 100.333 8.757 102.314 C 6.160 103.752,4.471 105.364,2.590 108.195 L -0.000 112.094 -0.000 200.380 C -0.000 254.541,0.240 288.667,0.622 288.667 C 0.964 288.667,1.444 289.300,1.690 290.074 C 2.384 292.259,6.622 296.609,9.621 298.215 C 12.317 299.658,12.591 299.668,56.167 299.852 C 85.005 299.974,100.000 300.266,100.000 300.708 C 100.000 301.153,114.857 301.315,144.167 301.189 C 194.501 300.974,190.296 301.475,197.041 294.884 L 200.333 291.667 200.518 202.333 C 200.723 102.794,201.046 109.927,196.104 104.872 C 194.739 103.476,192.249 101.658,190.571 100.833 L 187.521 99.333 143.927 99.488 C 119.950 99.574,80.533 99.799,56.333 99.988 M316.000 151.566 C 316.000 171.127,316.194 189.427,316.431 192.233 L 316.862 197.333 356.764 197.333 L 396.667 197.333 396.667 156.667 L 396.667 116.000 356.333 116.000 L 316.000 116.000 316.000 151.566 M77.466 138.500 C 78.322 139.494,83.676 149.130,93.856 168.000 C 95.142 170.383,97.912 175.483,100.012 179.333 C 102.112 183.183,104.962 188.433,106.345 191.000 C 107.727 193.567,110.418 198.517,112.325 202.000 C 114.231 205.483,117.227 211.033,118.982 214.333 C 120.737 217.633,123.109 221.827,124.253 223.652 L 126.333 226.970 126.667 182.318 L 127.000 137.667 137.996 137.483 C 147.751 137.320,149.087 137.428,149.830 138.443 C 150.923 139.938,151.065 259.343,149.977 261.377 C 149.118 262.981,126.490 263.387,124.544 261.833 C 123.667 261.133,120.650 256.124,113.980 244.291 C 113.347 243.167,110.506 238.236,107.667 233.333 C 104.827 228.430,101.986 223.499,101.352 222.376 C 92.023 205.842,75.425 177.293,74.427 176.064 C 73.855 175.360,73.584 185.941,73.333 218.731 L 73.000 262.333 62.004 262.517 C 52.249 262.680,50.913 262.572,50.170 261.557 C 49.077 260.062,48.935 140.657,50.023 138.623 C 51.032 136.738,75.851 136.627,77.466 138.500 M316.667 244.000 L 316.667 284.667 356.667 284.667 L 396.667 284.667 396.667 244.000 L 396.667 203.333 356.667 203.333 L 316.667 203.333 316.667 244.000 M317.111 291.111 C 316.867 291.356,316.667 309.670,316.667 331.811 L 316.667 372.066 351.500 371.866 L 386.333 371.667 389.453 369.833 C 391.176 368.820,393.490 366.640,394.620 364.966 L 396.667 361.933 396.667 326.300 L 396.667 290.667 357.111 290.667 C 335.356 290.667,317.356 290.867,317.111 291.111 " stroke="none" fill-rule="evenodd"></path>
</g>
</svg>