<svg version="1.1" width="515" height="515" xmlns="http://www.w3.org/2000/svg">
<g>
<path d="M62.781 217.030 C 28.071 222.878,16.204 271.572,44.532 291.915 C 50.106 295.918,49.786 296.216,51.134 285.777 C 52.197 277.538,52.151 277.110,49.751 272.877 C 43.481 261.824,44.597 250.682,52.771 242.743 C 73.373 222.731,105.193 245.883,92.067 271.334 L 88.991 277.298 90.127 286.149 C 91.355 295.730,91.405 295.805,94.940 293.329 C 115.544 278.898,118.049 247.049,100.000 229.000 C 89.723 218.723,77.006 214.634,62.781 217.030 M282.000 218.147 C 282.000 219.195,285.082 228.661,286.999 233.500 C 287.434 234.600,289.863 241.463,292.395 248.750 C 294.928 256.038,299.087 267.850,301.637 275.000 L 306.273 288.000 311.137 288.000 C 313.812 288.000,316.000 287.878,316.000 287.728 C 316.000 287.578,317.814 282.291,320.032 275.978 C 322.249 269.665,325.440 260.450,327.123 255.500 C 328.807 250.550,330.817 245.082,331.592 243.349 C 332.366 241.616,333.003 239.591,333.006 238.849 C 333.010 238.107,333.597 236.375,334.311 235.000 C 335.026 233.625,336.214 230.250,336.952 227.500 C 337.691 224.750,338.679 222.072,339.147 221.550 C 341.935 218.444,340.062 217.000,333.250 217.002 L 326.500 217.004 323.149 226.752 C 321.306 232.113,319.169 237.918,318.399 239.651 C 317.630 241.384,316.997 243.409,316.994 244.151 C 316.990 244.893,316.372 246.681,315.619 248.124 C 314.866 249.567,313.658 253.055,312.936 255.874 C 311.287 262.306,310.709 262.289,308.781 255.750 C 306.990 249.675,300.330 230.445,298.997 227.500 C 298.499 226.400,297.550 223.588,296.888 221.250 L 295.683 217.000 288.842 217.000 C 284.362 217.000,282.000 217.396,282.000 218.147 M346.667 217.667 C 346.300 218.033,346.000 234.008,346.000 253.167 L 346.000 288.000 353.000 288.000 L 360.000 288.000 360.000 274.500 L 360.000 261.000 367.140 261.000 C 391.243 261.000,399.891 229.355,378.604 219.050 C 374.351 216.991,348.463 215.870,346.667 217.667 M398.667 217.667 C 398.300 218.033,398.000 234.008,398.000 253.167 L 398.000 288.000 404.500 288.000 L 411.000 288.000 411.000 264.810 L 411.000 241.619 421.070 257.560 C 426.608 266.327,432.157 275.075,433.401 277.000 C 441.265 289.174,439.822 287.986,446.750 287.993 L 453.000 288.000 453.000 252.452 L 453.000 216.905 446.750 217.202 L 440.500 217.500 440.217 240.000 L 439.934 262.500 435.468 255.500 C 430.291 247.387,422.922 235.786,415.934 224.750 L 411.026 217.000 405.180 217.000 C 401.964 217.000,399.033 217.300,398.667 217.667 M124.000 257.000 L 124.000 288.000 131.000 288.000 L 138.000 288.000 138.000 276.500 L 138.000 265.000 145.935 265.000 C 163.817 265.000,173.356 251.907,166.601 236.634 C 162.369 227.063,159.736 226.000,140.268 226.000 L 124.000 226.000 124.000 257.000 M174.000 257.000 L 174.000 288.000 195.500 288.000 L 217.000 288.000 217.000 282.500 L 217.000 277.000 202.667 277.000 C 185.763 277.000,187.423 277.941,187.829 268.588 L 188.158 261.000 197.579 261.000 L 207.000 261.000 207.000 255.536 L 207.000 250.072 197.390 249.786 L 187.781 249.500 187.640 243.249 L 187.500 236.999 202.250 236.999 L 217.000 237.000 217.000 231.500 L 217.000 226.000 195.500 226.000 L 174.000 226.000 174.000 257.000 M228.000 257.000 L 228.000 288.000 233.480 288.000 L 238.960 288.000 239.230 266.750 L 239.500 245.500 242.042 250.500 C 243.440 253.250,248.791 262.813,253.934 271.750 L 263.285 288.000 268.142 288.000 L 273.000 288.000 273.000 257.000 L 273.000 226.000 267.500 226.000 L 262.000 226.000 262.000 245.250 L 262.000 264.500 259.250 259.414 C 257.737 256.617,252.900 247.964,248.500 240.186 L 240.500 226.044 234.250 226.022 L 228.000 226.000 228.000 257.000 M373.567 232.658 C 379.837 238.928,375.002 248.000,365.389 248.000 L 360.000 248.000 360.000 239.000 L 360.000 230.000 365.455 230.000 C 370.026 230.000,371.340 230.430,373.567 232.658 M149.909 237.453 C 159.132 242.223,154.803 254.000,143.826 254.000 L 138.000 254.000 138.000 245.000 L 138.000 236.000 142.550 236.000 C 145.052 236.000,148.364 236.654,149.909 237.453 M62.817 248.479 C 55.854 253.210,55.290 262.708,61.617 268.675 L 65.064 271.926 63.037 283.213 C 61.923 289.421,60.731 295.738,60.389 297.250 L 59.767 300.000 70.463 300.000 L 81.159 300.000 80.566 297.250 C 80.240 295.738,79.257 290.675,78.382 286.000 C 77.508 281.325,76.576 276.353,76.312 274.952 C 75.937 272.960,76.724 271.511,79.916 268.319 C 91.472 256.764,76.385 239.258,62.817 248.479 " stroke="none" fill-rule="evenodd"></path>
</g>
</svg>