<svg version="1.1" width="515" height="515" xmlns="http://www.w3.org/2000/svg"><g><path d="M131.022 87.250 C 131.034 87.938,131.924 89.625,133.000 91.000 C 134.076 92.375,134.966 94.063,134.978 94.750 C 134.990 95.438,135.450 96.000,136.000 96.000 C 136.550 96.000,137.000 96.801,137.000 97.779 C 137.000 98.758,137.900 100.207,139.000 101.000 C 140.100 101.793,141.000 103.026,141.000 103.739 C 141.000 105.197,153.456 118.000,154.874 118.000 C 155.376 118.000,156.045 118.675,156.362 119.500 C 156.678 120.325,157.527 121.000,158.248 121.000 C 158.969 121.000,160.207 121.900,161.000 123.000 C 161.793 124.100,163.143 125.000,164.000 125.000 C 164.857 125.000,166.207 125.900,167.000 127.000 C 167.793 128.100,169.242 129.000,170.221 129.000 C 171.199 129.000,172.000 129.450,172.000 130.000 C 172.000 130.550,173.350 131.000,175.000 131.000 C 176.650 131.000,178.000 131.450,178.000 132.000 C 178.000 132.550,178.900 133.000,180.000 133.000 C 181.100 133.000,182.000 133.450,182.000 134.000 C 182.000 134.550,183.575 135.000,185.500 135.000 C 187.425 135.000,189.000 135.450,189.000 136.000 C 189.000 136.550,190.350 137.000,192.000 137.000 C 193.650 137.000,195.000 137.450,195.000 138.000 C 195.000 138.550,197.250 139.000,200.000 139.000 C 202.750 139.000,205.000 139.450,205.000 140.000 C 205.000 140.550,207.250 141.000,210.000 141.000 C 212.750 141.000,215.000 141.450,215.000 142.000 C 215.000 142.578,218.167 143.000,222.500 143.000 C 226.833 143.000,230.000 143.422,230.000 144.000 C 230.000 144.613,234.814 145.000,242.441 145.000 C 250.040 145.000,255.134 145.408,255.530 146.049 C 255.973 146.765,256.624 146.727,257.589 145.926 C 258.687 145.015,259.003 145.060,259.015 146.128 C 259.027 147.206,259.239 147.178,260.000 146.000 C 260.646 145.000,260.974 144.917,260.985 145.750 C 260.997 146.729,269.675 147.000,301.000 147.000 C 327.000 147.000,341.000 147.350,341.000 148.000 C 341.000 148.556,343.667 149.000,347.000 149.000 C 350.333 149.000,353.000 149.444,353.000 150.000 C 353.000 150.550,354.350 151.000,356.000 151.000 C 357.650 151.000,359.000 151.450,359.000 152.000 C 359.000 152.550,359.932 153.000,361.071 153.000 C 362.211 153.000,363.731 153.563,364.449 154.250 C 365.167 154.938,366.710 156.162,367.877 156.971 C 370.105 158.514,371.035 166.000,369.000 166.000 C 368.450 166.000,368.000 166.900,368.000 168.000 C 368.000 169.100,367.550 170.000,367.000 170.000 C 366.450 170.000,366.000 170.695,366.000 171.545 C 366.000 173.002,361.756 178.000,360.519 178.000 C 359.753 178.000,351.000 186.783,351.000 187.552 C 351.000 187.885,349.200 189.886,347.000 192.000 C 344.800 194.114,343.000 196.355,343.000 196.981 C 343.000 197.606,342.663 197.914,342.250 197.664 C 341.837 197.414,340.920 197.838,340.211 198.605 C 339.501 199.372,339.276 200.014,339.711 200.030 C 340.145 200.047,339.713 200.519,338.750 201.080 C 337.788 201.641,337.000 202.556,337.000 203.115 C 337.000 203.673,334.750 206.321,332.000 209.000 C 329.250 211.679,327.000 214.498,327.000 215.266 C 327.000 216.034,325.855 217.275,324.456 218.024 C 321.318 219.703,321.455 223.351,324.672 223.809 C 326.235 224.032,328.681 222.282,333.394 217.569 C 336.997 213.966,340.505 210.902,341.190 210.759 C 341.874 210.617,344.558 208.362,347.152 205.750 C 349.747 203.137,352.255 201.000,352.725 201.000 C 353.195 201.000,355.569 199.200,358.000 197.000 C 360.431 194.800,362.699 193.000,363.041 193.000 C 363.383 193.000,364.264 191.875,365.000 190.500 C 365.736 189.125,366.962 188.000,367.724 188.000 C 368.487 188.000,371.761 185.300,375.000 182.000 C 378.239 178.700,381.389 176.000,382.000 176.000 C 382.611 176.000,385.761 173.300,389.000 170.000 C 392.239 166.700,395.160 164.000,395.490 164.000 C 396.603 164.000,400.488 159.524,402.000 156.500 C 402.825 154.850,404.067 152.901,404.759 152.169 C 405.452 151.438,405.763 150.425,405.450 149.919 C 405.138 149.414,405.359 149.000,405.941 149.000 C 406.559 149.000,407.000 146.691,407.000 143.455 C 407.000 137.636,404.138 133.000,400.545 133.000 C 399.695 133.000,399.000 132.550,399.000 132.000 C 399.000 131.450,397.425 131.000,395.500 131.000 C 393.575 131.000,392.000 130.550,392.000 130.000 C 392.000 129.450,389.750 129.000,387.000 129.000 C 384.250 129.000,382.000 128.550,382.000 128.000 C 382.000 127.391,377.500 127.000,370.500 127.000 C 363.500 127.000,359.000 126.609,359.000 126.000 C 359.000 125.346,340.500 125.000,305.500 125.000 C 270.500 125.000,252.000 124.654,252.000 124.000 C 252.000 123.379,246.500 123.000,237.500 123.000 C 228.500 123.000,223.000 122.621,223.000 122.000 C 223.000 121.407,219.333 121.000,214.000 121.000 C 206.667 121.000,205.000 120.722,205.000 119.500 C 205.000 118.367,203.778 118.000,200.000 118.000 C 197.250 118.000,195.000 117.550,195.000 117.000 C 195.000 116.450,192.975 116.000,190.500 116.000 C 188.025 116.000,186.000 115.550,186.000 115.000 C 186.000 114.450,184.200 114.000,182.000 114.000 C 179.800 114.000,178.000 113.550,178.000 113.000 C 178.000 112.450,177.100 112.000,176.000 112.000 C 174.900 112.000,174.000 111.550,174.000 111.000 C 174.000 110.450,172.650 110.000,171.000 110.000 C 169.350 110.000,168.000 109.550,168.000 109.000 C 168.000 108.450,167.100 108.000,166.000 108.000 C 164.900 108.000,164.000 107.550,164.000 107.000 C 164.000 106.450,163.100 106.000,162.000 106.000 C 160.900 106.000,160.000 105.550,160.000 105.000 C 160.000 104.450,159.100 104.000,158.000 104.000 C 156.900 104.000,156.000 103.550,156.000 103.000 C 156.000 102.450,155.325 102.000,154.500 102.000 C 153.675 102.000,153.000 101.550,153.000 101.000 C 153.000 100.450,152.303 100.000,151.452 100.000 C 150.600 100.000,146.797 96.850,143.000 93.000 C 136.366 86.274,130.959 83.678,131.022 87.250 M195.000 241.000 C 195.000 241.550,194.330 242.000,193.511 242.000 C 192.130 242.000,189.784 243.589,186.379 246.831 C 185.611 247.562,185.237 248.575,185.550 249.081 C 185.862 249.586,185.641 250.000,185.059 250.000 C 184.388 250.000,184.000 253.480,184.000 259.500 C 184.000 265.167,184.404 269.000,185.000 269.000 C 185.550 269.000,186.000 269.824,186.000 270.831 C 186.000 271.838,187.125 273.264,188.500 274.000 C 189.875 274.736,191.000 275.712,191.000 276.169 C 191.000 276.626,191.900 277.000,193.000 277.000 C 194.100 277.000,195.000 277.450,195.000 278.000 C 195.000 278.593,198.667 279.000,204.000 279.000 C 209.333 279.000,213.000 278.593,213.000 278.000 C 213.000 277.450,213.690 277.000,214.533 277.000 C 217.188 277.000,223.093 270.200,223.703 266.440 C 224.015 264.521,224.659 262.711,225.135 262.417 C 226.264 261.719,226.261 257.000,225.132 257.000 C 224.654 257.000,224.026 255.232,223.736 253.071 C 223.174 248.879,217.456 242.000,214.533 242.000 C 213.690 242.000,213.000 241.550,213.000 241.000 C 213.000 240.407,209.333 240.000,204.000 240.000 C 198.667 240.000,195.000 240.407,195.000 241.000 M282.000 242.000 C 281.207 243.100,279.758 244.000,278.779 244.000 C 277.740 244.000,277.000 244.740,277.000 245.779 C 277.000 246.758,276.100 248.207,275.000 249.000 C 273.253 250.259,273.000 251.589,273.000 259.500 C 273.000 267.411,273.253 268.741,275.000 270.000 C 276.100 270.793,277.000 272.242,277.000 273.221 C 277.000 274.260,277.740 275.000,278.779 275.000 C 279.758 275.000,281.207 275.900,282.000 277.000 C 283.274 278.767,284.589 279.000,293.286 279.000 L 303.130 279.000 308.076 273.922 C 310.796 271.129,312.765 268.429,312.452 267.922 C 312.138 267.415,312.359 267.000,312.941 267.000 C 314.952 267.000,314.271 250.975,312.181 249.117 C 311.180 248.228,310.069 246.713,309.712 245.750 C 309.355 244.787,308.473 244.000,307.752 244.000 C 307.031 244.000,305.793 243.100,305.000 242.000 C 303.723 240.228,302.411 240.000,293.500 240.000 C 284.589 240.000,283.277 240.228,282.000 242.000 M481.250 312.525 C 479.324 314.582,479.000 316.025,479.000 322.536 C 479.000 330.913,477.917 333.000,473.571 333.000 C 472.157 333.000,471.000 333.450,471.000 334.000 C 471.000 334.550,470.100 335.000,469.000 335.000 C 467.196 335.000,467.000 335.667,467.000 341.820 C 467.000 349.878,469.376 353.000,475.508 353.000 L 479.000 353.000 479.000 375.571 C 479.000 399.341,478.938 398.999,483.775 401.750 C 486.397 403.241,493.000 403.420,493.000 402.000 C 493.000 401.450,493.670 401.000,494.489 401.000 C 499.579 401.000,500.000 399.035,500.000 375.278 L 500.000 353.000 505.000 353.000 C 507.750 353.000,510.000 352.550,510.000 352.000 C 510.000 351.450,510.852 351.000,511.893 351.000 C 514.308 351.000,515.000 349.123,515.000 342.571 C 515.000 335.599,512.844 333.000,507.061 333.000 C 500.938 333.000,500.000 331.548,500.000 322.071 C 500.000 316.183,499.654 314.000,498.721 314.000 C 498.017 314.000,496.793 313.100,496.000 312.000 C 493.773 308.910,484.319 309.247,481.250 312.525 M24.000 332.000 C 24.000 332.550,22.650 333.000,21.000 333.000 C 19.350 333.000,18.000 333.450,18.000 334.000 C 18.000 334.550,17.090 335.000,15.978 335.000 C 13.680 335.000,3.000 345.200,3.000 347.395 C 3.000 348.186,2.438 349.021,1.750 349.250 C -0.048 349.849,-0.048 383.151,1.750 383.750 C 2.438 383.979,3.000 384.930,3.000 385.863 C 3.000 386.795,3.900 388.207,5.000 389.000 C 6.100 389.793,7.000 391.012,7.000 391.709 C 7.000 393.191,10.070 397.000,11.264 397.000 C 11.715 397.000,13.050 397.900,14.230 399.000 C 15.411 400.100,17.192 401.000,18.189 401.000 C 19.185 401.000,20.000 401.450,20.000 402.000 C 20.000 402.615,25.000 403.000,33.000 403.000 C 41.000 403.000,46.000 402.615,46.000 402.000 C 46.000 401.450,46.900 401.000,48.000 401.000 C 49.100 401.000,50.000 400.550,50.000 400.000 C 50.000 399.450,51.125 399.000,52.500 399.000 C 53.875 399.000,55.000 398.604,55.000 398.121 C 55.000 397.637,56.800 395.386,59.000 393.119 C 61.200 390.852,63.000 388.323,63.000 387.499 C 63.000 386.674,63.450 386.000,64.000 386.000 C 64.550 386.000,65.000 385.100,65.000 384.000 C 65.000 382.900,65.450 382.000,66.000 382.000 C 66.563 382.000,67.000 379.194,67.000 375.583 C 67.000 371.386,67.432 368.992,68.250 368.662 C 69.250 368.259,69.250 368.142,68.250 368.079 C 67.368 368.023,67.000 365.791,67.000 360.500 C 67.000 356.167,66.578 353.000,66.000 353.000 C 65.450 353.000,65.000 351.749,65.000 350.221 C 65.000 348.589,64.174 346.847,63.000 346.000 C 61.900 345.207,61.000 343.962,61.000 343.234 C 61.000 341.409,56.435 337.000,54.545 337.000 C 53.695 337.000,53.000 336.550,53.000 336.000 C 53.000 335.450,52.325 335.000,51.500 335.000 C 50.675 335.000,50.000 334.550,50.000 334.000 C 50.000 333.450,48.650 333.000,47.000 333.000 C 45.350 333.000,44.000 332.550,44.000 332.000 C 44.000 331.400,40.000 331.000,34.000 331.000 C 28.000 331.000,24.000 331.400,24.000 332.000 M79.500 332.000 C 79.840 332.550,79.171 333.000,78.014 333.000 C 76.856 333.000,74.805 334.105,73.455 335.455 L 71.000 337.909 71.000 381.053 L 71.000 424.198 74.106 427.099 C 79.842 432.458,92.000 429.339,92.000 422.509 C 92.000 421.679,92.450 421.000,93.000 421.000 C 93.600 421.000,94.000 417.000,94.000 411.000 C 94.000 405.000,94.400 401.000,95.000 401.000 C 95.550 401.000,96.000 401.450,96.000 402.000 C 96.000 402.550,97.800 403.000,100.000 403.000 C 102.200 403.000,104.000 403.450,104.000 404.000 C 104.000 404.550,105.800 405.000,108.000 405.000 C 110.200 405.000,112.000 404.550,112.000 404.000 C 112.000 403.450,113.800 403.000,116.000 403.000 C 118.200 403.000,120.000 402.550,120.000 402.000 C 120.000 401.450,120.920 401.000,122.045 401.000 C 123.925 401.000,129.000 396.947,129.000 395.447 C 129.000 395.092,130.350 393.541,132.000 392.000 C 133.650 390.459,135.000 388.478,135.000 387.599 C 135.000 386.719,135.450 386.000,136.000 386.000 C 136.550 386.000,137.000 384.650,137.000 383.000 C 137.000 381.350,137.450 380.000,138.000 380.000 C 138.617 380.000,139.000 374.833,139.000 366.500 C 139.000 358.167,138.617 353.000,138.000 353.000 C 137.450 353.000,137.000 352.100,137.000 351.000 C 137.000 349.900,136.550 349.000,136.000 349.000 C 135.450 349.000,135.000 348.100,135.000 347.000 C 135.000 345.900,134.550 345.000,134.000 345.000 C 133.450 345.000,133.000 344.310,133.000 343.467 C 133.000 341.476,126.524 335.000,124.533 335.000 C 123.690 335.000,123.000 334.550,123.000 334.000 C 123.000 333.450,121.875 333.000,120.500 333.000 C 119.125 333.000,118.000 332.550,118.000 332.000 C 118.000 331.407,114.333 331.000,109.000 331.000 C 103.667 331.000,100.000 331.407,100.000 332.000 C 100.000 332.550,99.100 333.000,98.000 333.000 C 96.900 333.000,96.000 333.398,96.000 333.883 C 96.000 335.431,90.889 335.874,90.314 334.376 C 90.012 333.589,88.360 333.000,86.452 333.000 C 84.618 333.000,82.840 332.550,82.500 332.000 C 82.160 331.450,81.207 331.000,80.382 331.000 C 79.557 331.000,79.160 331.450,79.500 332.000 M167.833 331.991 C 167.650 332.537,166.295 333.082,164.822 333.204 C 163.349 333.325,162.363 333.779,162.631 334.212 C 162.899 334.645,162.416 335.000,161.559 335.000 C 160.702 335.000,160.000 335.450,160.000 336.000 C 160.000 336.550,159.100 337.000,158.000 337.000 C 156.900 337.000,156.000 337.450,156.000 338.000 C 156.000 338.550,155.530 339.000,154.955 339.000 C 153.349 339.000,149.000 343.715,149.000 345.455 C 149.000 346.305,148.550 347.000,148.000 347.000 C 147.450 347.000,147.000 347.900,147.000 349.000 C 147.000 350.100,146.550 351.000,146.000 351.000 C 145.450 351.000,145.000 352.125,145.000 353.500 C 145.000 354.875,144.550 356.000,144.000 356.000 C 143.394 356.000,143.000 360.333,143.000 367.000 C 143.000 373.667,143.394 378.000,144.000 378.000 C 144.550 378.000,145.000 379.350,145.000 381.000 C 145.000 382.650,145.450 384.000,146.000 384.000 C 146.550 384.000,147.000 384.801,147.000 385.779 C 147.000 386.758,147.900 388.207,149.000 389.000 C 150.100 389.793,151.000 391.242,151.000 392.221 C 151.000 393.452,151.770 394.000,153.500 394.000 C 154.875 394.000,156.000 394.470,156.000 395.045 C 156.000 396.623,160.701 401.000,162.396 401.000 C 163.213 401.000,164.160 401.450,164.500 402.000 C 164.867 402.594,171.177 403.000,180.059 403.000 C 189.353 403.000,195.000 402.622,195.000 402.000 C 195.000 401.450,196.350 401.000,198.000 401.000 C 199.650 401.000,201.000 400.550,201.000 400.000 C 201.000 399.450,201.707 399.000,202.571 399.000 C 204.252 399.000,207.000 396.699,207.000 395.292 C 207.000 394.824,207.900 393.793,209.000 393.000 C 211.148 391.452,212.007 382.000,210.000 382.000 C 209.450 382.000,209.053 381.663,209.118 381.250 C 209.569 378.395,208.705 378.000,202.000 378.000 C 198.000 378.000,195.000 378.429,195.000 379.000 C 195.000 379.550,193.650 380.000,192.000 380.000 C 190.350 380.000,189.000 380.450,189.000 381.000 C 189.000 383.400,173.059 382.150,170.455 379.545 C 166.872 375.963,166.685 376.018,183.250 375.791 L 198.500 375.582 183.500 375.000 L 168.500 374.418 188.295 374.209 C 207.850 374.003,208.121 373.970,210.545 371.545 C 213.098 368.993,214.257 359.000,212.000 359.000 C 211.450 359.000,211.000 357.200,211.000 355.000 C 211.000 352.800,210.550 351.000,210.000 351.000 C 209.450 351.000,209.000 350.100,209.000 349.000 C 209.000 347.900,208.550 347.000,208.000 347.000 C 207.450 347.000,207.000 346.290,207.000 345.422 C 207.000 343.618,199.204 335.756,198.095 336.441 C 197.693 336.690,196.733 336.017,195.961 334.946 C 195.062 333.699,193.381 333.000,191.279 333.000 C 189.476 333.000,188.000 332.550,188.000 332.000 C 188.000 330.674,168.279 330.665,167.833 331.991 M224.000 332.000 C 224.000 332.550,223.080 333.000,221.955 333.000 C 220.830 333.000,218.805 334.105,217.455 335.455 L 215.000 337.909 215.000 367.455 C 215.000 383.884,215.392 397.000,215.883 397.000 C 216.369 397.000,217.002 397.900,217.290 399.000 C 217.577 400.100,218.530 401.000,219.406 401.000 C 220.283 401.000,221.000 401.450,221.000 402.000 C 221.000 402.550,223.270 403.000,226.045 403.000 C 231.630 403.000,236.000 399.947,236.000 396.045 C 236.000 394.920,236.450 394.000,237.000 394.000 C 237.632 394.000,238.000 386.989,238.000 374.967 L 238.000 355.933 241.467 352.467 C 243.373 350.560,245.863 349.000,247.000 349.000 C 248.137 349.000,250.627 350.560,252.533 352.467 L 256.000 355.933 256.000 374.895 C 256.000 390.417,256.272 394.129,257.500 395.357 C 258.325 396.182,259.000 397.135,259.000 397.474 C 259.000 403.235,270.493 404.707,275.600 399.600 L 279.000 396.200 279.000 371.600 C 279.000 355.867,278.640 347.000,278.000 347.000 C 277.450 347.000,277.000 345.863,277.000 344.474 C 277.000 341.202,269.011 333.061,265.516 332.772 C 264.132 332.658,263.000 332.212,263.000 331.782 C 263.000 331.352,258.725 331.000,253.500 331.000 C 247.833 331.000,244.000 331.404,244.000 332.000 C 244.000 332.550,243.265 333.000,242.367 333.000 C 241.469 333.000,239.894 333.969,238.867 335.153 L 237.000 337.306 235.133 335.153 C 233.949 333.789,232.096 333.000,230.074 333.000 C 228.201 333.000,227.137 332.587,227.500 332.000 C 227.840 331.450,227.191 331.000,226.059 331.000 C 224.927 331.000,224.000 331.450,224.000 332.000 M306.000 332.000 C 306.000 332.550,304.749 333.000,303.221 333.000 C 301.589 333.000,299.847 333.826,299.000 335.000 C 298.207 336.100,296.758 337.000,295.779 337.000 C 294.801 337.000,294.000 337.374,294.000 337.831 C 294.000 338.288,292.875 339.264,291.500 340.000 C 290.125 340.736,289.000 342.063,289.000 342.948 C 289.000 343.834,288.100 345.207,287.000 346.000 C 285.900 346.793,285.000 348.216,285.000 349.162 C 285.000 350.108,284.550 351.160,284.000 351.500 C 283.450 351.840,283.000 354.341,283.000 357.059 C 283.000 359.777,282.550 362.000,282.000 362.000 C 281.443 362.000,281.000 364.686,281.000 368.059 C 281.000 371.844,281.375 373.886,282.000 373.500 C 282.611 373.122,283.000 374.656,283.000 377.441 C 283.000 379.948,283.450 382.000,284.000 382.000 C 284.550 382.000,285.000 382.900,285.000 384.000 C 285.000 385.100,285.450 386.000,286.000 386.000 C 286.550 386.000,287.000 386.735,287.000 387.634 C 287.000 389.205,291.705 393.996,293.250 393.999 C 293.663 393.999,294.000 394.482,294.000 395.071 C 294.000 396.665,296.633 399.000,298.429 399.000 C 299.293 399.000,300.000 399.450,300.000 400.000 C 300.000 400.550,300.900 401.000,302.000 401.000 C 303.100 401.000,304.000 401.450,304.000 402.000 C 304.000 402.617,309.167 403.000,317.500 403.000 C 325.833 403.000,331.000 402.617,331.000 402.000 C 331.000 401.450,331.695 401.000,332.545 401.000 C 334.285 401.000,339.000 396.651,339.000 395.045 C 339.000 394.470,339.450 394.000,340.000 394.000 C 340.550 394.000,341.000 391.493,341.000 388.429 C 341.000 382.745,339.585 380.000,336.655 380.000 C 335.836 380.000,334.963 379.438,334.714 378.750 C 334.352 377.750,333.838 377.750,332.144 378.750 C 330.980 379.438,327.969 380.000,325.455 380.000 C 322.661 380.000,321.122 380.389,321.500 381.000 C 321.878 381.611,320.333 382.000,317.526 382.000 C 312.073 382.000,306.000 377.012,306.000 372.533 C 306.000 371.140,305.550 370.000,305.000 370.000 C 304.450 370.000,304.000 368.650,304.000 367.000 C 304.000 365.350,304.450 364.000,305.000 364.000 C 305.550 364.000,306.000 362.913,306.000 361.583 C 306.000 360.254,306.563 358.940,307.250 358.662 C 308.220 358.271,308.210 358.140,307.205 358.079 C 304.787 357.932,310.856 353.000,313.455 353.000 C 314.855 353.000,316.000 352.550,316.000 352.000 C 316.000 351.450,316.900 351.000,318.000 351.000 C 319.100 351.000,320.000 351.450,320.000 352.000 C 320.000 352.550,321.575 353.000,323.500 353.000 C 325.425 353.000,327.000 353.450,327.000 354.000 C 327.000 356.219,336.006 355.085,338.545 352.545 C 344.558 346.533,339.316 333.000,330.974 333.000 C 329.167 333.000,328.139 332.584,328.500 332.000 C 328.898 331.355,325.010 331.000,317.559 331.000 C 310.520 331.000,306.000 331.391,306.000 332.000 M366.581 332.131 C 366.876 332.609,365.966 333.000,364.559 333.000 C 363.152 333.000,362.000 333.450,362.000 334.000 C 362.000 334.550,361.325 335.000,360.500 335.000 C 359.675 335.000,359.000 335.450,359.000 336.000 C 359.000 336.550,358.305 337.000,357.455 337.000 C 356.605 337.000,354.805 338.105,353.455 339.455 C 352.105 340.805,351.000 342.605,351.000 343.455 C 351.000 344.305,350.550 345.000,350.000 345.000 C 349.450 345.000,349.000 345.900,349.000 347.000 C 349.000 348.100,348.550 349.000,348.000 349.000 C 347.450 349.000,347.000 349.900,347.000 351.000 C 347.000 352.100,346.550 353.000,346.000 353.000 C 345.381 353.000,345.000 358.333,345.000 367.000 C 345.000 375.667,345.381 381.000,346.000 381.000 C 346.550 381.000,347.000 382.125,347.000 383.500 C 347.000 384.875,347.450 386.000,348.000 386.000 C 348.550 386.000,349.000 386.587,349.000 387.305 C 349.000 388.464,351.291 391.334,358.134 398.750 C 359.276 399.988,361.063 401.000,362.105 401.000 C 363.147 401.000,364.000 401.450,364.000 402.000 C 364.000 404.519,386.922 403.169,389.598 400.493 C 392.040 398.051,396.841 399.195,396.969 402.250 C 397.020 403.488,405.860 403.095,408.225 401.750 C 413.127 398.962,413.000 399.861,413.000 368.026 L 413.000 337.909 410.545 335.455 C 409.195 334.105,407.395 333.000,406.545 333.000 C 405.695 333.000,405.000 332.550,405.000 332.000 C 405.000 331.450,404.100 331.000,403.000 331.000 C 401.900 331.000,401.000 331.450,401.000 332.000 C 401.000 332.550,400.100 333.000,399.000 333.000 C 397.900 333.000,397.000 333.450,397.000 334.000 C 397.000 334.550,395.988 335.007,394.750 335.015 C 392.931 335.028,392.787 335.216,394.000 336.000 C 395.326 336.857,395.323 336.971,393.971 336.985 C 393.130 336.993,391.793 336.100,391.000 335.000 C 390.207 333.900,388.559 333.000,387.338 333.000 C 386.117 333.000,384.826 332.528,384.470 331.951 C 384.082 331.324,380.252 330.975,374.933 331.082 C 370.044 331.181,366.286 331.653,366.581 332.131 M428.554 331.913 C 428.184 332.511,426.784 333.000,425.441 333.000 C 424.098 333.000,423.000 333.450,423.000 334.000 C 423.000 334.550,422.373 335.000,421.607 335.000 C 419.193 335.000,419.000 337.458,419.000 368.153 C 419.000 399.779,418.931 399.287,423.705 401.842 C 426.356 403.261,434.000 403.378,434.000 402.000 C 434.000 401.450,434.707 401.000,435.571 401.000 C 439.473 401.000,440.000 398.746,440.000 382.071 C 440.000 372.024,440.375 366.000,441.000 366.000 C 441.550 366.000,442.000 364.630,442.000 362.955 C 442.000 359.663,445.784 355.000,448.455 355.000 C 449.305 355.000,450.000 354.550,450.000 354.000 C 450.000 353.450,451.350 353.000,453.000 353.000 C 454.650 353.000,456.000 352.550,456.000 352.000 C 456.000 351.450,456.679 351.000,457.509 351.000 C 460.825 351.000,465.000 345.505,465.000 341.142 C 465.000 338.127,464.592 337.000,463.500 337.000 C 462.667 337.000,462.000 336.111,462.000 335.000 C 462.000 333.667,461.333 333.000,460.000 333.000 C 458.900 333.000,458.000 332.550,458.000 332.000 C 458.000 331.444,455.333 331.000,452.000 331.000 C 448.667 331.000,446.000 331.444,446.000 332.000 C 446.000 332.550,445.100 333.000,444.000 333.000 C 442.900 333.000,442.000 333.450,442.000 334.000 C 442.000 334.550,441.100 335.000,440.000 335.000 C 438.900 335.000,438.000 334.550,438.000 334.000 C 438.000 333.450,436.515 333.000,434.700 333.000 C 432.885 333.000,430.911 332.511,430.313 331.913 C 429.530 331.130,429.038 331.130,428.554 331.913 M180.000 350.000 C 180.000 350.550,180.679 351.000,181.509 351.000 C 183.299 351.000,189.000 356.220,189.000 357.858 C 189.000 358.641,185.702 359.000,178.500 359.000 C 169.696 359.000,168.000 358.750,168.000 357.455 C 168.000 355.454,172.454 351.000,174.455 351.000 C 175.305 351.000,176.000 350.550,176.000 350.000 C 176.000 349.450,176.900 349.000,178.000 349.000 C 179.100 349.000,180.000 349.450,180.000 350.000 M36.000 352.000 C 36.000 352.550,36.695 353.000,37.545 353.000 C 39.776 353.000,43.444 357.081,43.836 360.000 C 44.022 361.375,44.584 362.928,45.086 363.450 C 46.321 364.734,46.252 370.000,45.000 370.000 C 44.450 370.000,44.000 371.140,44.000 372.533 C 44.000 376.494,37.913 382.000,33.533 382.000 C 31.590 382.000,30.000 381.550,30.000 381.000 C 30.000 380.450,29.293 380.000,28.429 380.000 C 26.408 380.000,24.000 377.592,24.000 375.571 C 24.000 374.707,23.550 374.000,23.000 374.000 C 22.428 374.000,22.000 370.989,22.000 366.967 C 22.000 359.634,26.021 353.000,30.467 353.000 C 31.310 353.000,32.000 352.550,32.000 352.000 C 32.000 351.450,32.900 351.000,34.000 351.000 C 35.100 351.000,36.000 351.450,36.000 352.000 M108.000 352.000 C 108.000 352.550,108.707 353.000,109.571 353.000 C 111.592 353.000,114.000 355.408,114.000 357.429 C 114.000 358.293,114.450 359.000,115.000 359.000 C 118.073 359.000,116.051 375.016,112.533 378.533 C 107.160 383.906,96.000 381.907,96.000 375.571 C 96.000 374.707,95.550 374.000,95.000 374.000 C 94.428 374.000,94.000 370.989,94.000 366.967 C 94.000 359.634,98.021 353.000,102.467 353.000 C 103.310 353.000,104.000 352.550,104.000 352.000 C 104.000 351.450,104.900 351.000,106.000 351.000 C 107.100 351.000,108.000 351.450,108.000 352.000 M380.539 352.064 C 380.858 352.579,382.024 353.000,383.130 353.000 C 385.534 353.000,388.000 355.243,388.000 357.429 C 388.000 358.293,388.450 359.000,389.000 359.000 C 389.578 359.000,390.000 362.167,390.000 366.500 C 390.000 370.833,389.578 374.000,389.000 374.000 C 388.450 374.000,388.000 374.695,388.000 375.545 C 388.000 382.173,377.080 384.147,371.467 378.533 C 367.949 375.016,365.927 359.000,369.000 359.000 C 369.550 359.000,370.000 358.293,370.000 357.429 C 370.000 356.564,370.643 355.214,371.429 354.429 C 372.214 353.643,373.564 353.000,374.429 353.000 C 375.293 353.000,376.000 352.646,376.000 352.213 C 376.000 351.078,379.852 350.951,380.539 352.064 " stroke="none" fill-rule="evenodd"></path></g></svg>