<?xml version="1.0" encoding="UTF-8" standalone="no"?>
<svg
   xmlns:dc="http://purl.org/dc/elements/1.1/"
   xmlns:cc="http://creativecommons.org/ns#"
   xmlns:rdf="http://www.w3.org/1999/02/22-rdf-syntax-ns#"
   xmlns:svg="http://www.w3.org/2000/svg"
   xmlns="http://www.w3.org/2000/svg"
   style="display: block;"
   height="515"
   width="515"
   version="1.1"
   id="svg">
  <metadata
     id="metadata9">
    <rdf:RDF>
      <cc:Work
         rdf:about="">
        <dc:format>image/svg+xml</dc:format>
        <dc:type
           rdf:resource="http://purl.org/dc/dcmitype/StillImage" />
        <dc:title></dc:title>
      </cc:Work>
    </rdf:RDF>
  </metadata>
  <defs
     id="defs7" />
  <g
     id="svgg">
    <path
       id="path0"
       d="m 14.667,81.667 c 6.485125,20.34997 18.632536,37.08933 32.979985,51.1391 13.848004,13.6183 32.53005,21.9314 49.962711,30.99581 17.904434,7.25259 37.600734,10.02066 56.021564,14.58833 24.96752,5.92507 50.61369,5.89985 76.11051,5.63766 24.53937,5.43927 49.82939,3.60305 74.90831,4.01529 24.65485,1.99375 53.33704,-4.143 75.45095,2.98578 15.2993,4.84967 47.37119,1.90901 41.35561,26.89583 -3.04293,22.27546 -27.10007,31.8039 -38.54874,49.64927 -9.44504,16.57404 -30.0775,24.13072 -36.7969,42.13793 -14.93704,17.5067 15.54621,8.34448 18.50749,-2.67663 17.03639,-11.71015 26.73285,-24.97992 43.6615,-36.80154 18.46196,-13.87501 34.09385,-30.90636 52.58278,-44.65098 11.30299,-12.40863 26.85151,-24.55747 28.89235,-42.30054 1.26989,-19.0019 -18.57716,-28.92637 -35.18051,-27.40875 -20.5863,-5.17611 -41.66253,-4.53578 -62.02995,-8.37885 -58.19583,-1.31885 -116.47669,0.42578 -174.68766,-1.38471 -26.15715,-8.49478 -54.75039,1.08352 -80.85561,-8.21126 -19.86715,-4.8645 -40.302984,-6.1307 -58.944352,-15.62961 C 55.511484,111.79392 38.077867,93.671598 17.544353,81.059294 l -1.378245,-0.06461 z M 56,108 c 4.52839,4.57624 3.61826,-3.81972 0,0 z m 6,38.416 c 3.845073,6.90196 5.121004,1.42032 0,0 z m 425.506,20.59 c 7.27247,6.35406 -4.24314,-6.84163 0,0 z M 294.304,344.954 c -16.3253,-3.62486 -30.382,11.76089 -36.24109,25.18197 -6.6501,20.84377 8.55202,46.64994 31.68406,45.82779 22.13819,0.65224 34.475,-7.25166 40.2934,-27.00696 5.91058,-18.44023 -16.28466,-51.70849 -35.73637,-44.0028 z m -170.688,2.183 c -19.27699,4.38567 -22.43631,30.56761 -18.50931,47.2929 6.5288,22.34322 33.16131,24.89203 52.30691,18.22287 12.6107,0.85163 17.5557,-23.73122 19.17929,-34.62147 -2.61523,-20.84258 -16.1503,-35.75233 -37.71518,-33.55678 -5.19579,-0.19076 -10.47482,0.573 -15.26171,2.66248 z M 270,412 c 3.14893,7.4655 1.03612,-6.84693 0,0 z"
       style="fill:#000000;fill-rule:evenodd;stroke:none" />
  </g>
</svg>
