<svg id="svg" version="1.1" width="400" height="400" xmlns="http://www.w3.org/2000/svg" xmlns:xlink="http://www.w3.org/1999/xlink" style="display: block;"><g id="svgg"><path id="path0" d="M184.360 14.476 C 168.780 17.304,163.423 20.208,140.037 38.500 C 135.216 42.271,113.156 60.550,98.580 72.852 C 92.486 77.995,82.357 86.545,76.070 91.852 C 29.507 131.157,19.350 140.829,21.790 143.534 C 22.180 143.966,21.985 144.026,21.356 143.667 C 17.757 141.610,13.745 174.104,16.828 180.344 C 17.414 181.530,18.889 184.901,20.106 187.836 C 23.013 194.841,29.026 202.470,36.884 209.119 C 40.382 212.078,48.026 218.556,53.872 223.513 C 59.717 228.471,69.399 236.571,75.387 241.513 C 81.375 246.456,89.750 253.425,93.998 257.000 C 98.246 260.575,110.387 270.700,120.979 279.500 C 131.571 288.300,143.822 298.502,148.204 302.171 C 178.125 327.225,220.758 327.794,250.500 303.535 C 253.250 301.292,266.258 290.466,279.407 279.478 C 292.557 268.490,306.087 257.250,309.474 254.500 C 312.862 251.750,320.938 245.000,327.421 239.500 C 333.904 234.000,340.639 228.375,342.387 227.000 C 364.932 209.271,374.478 199.847,379.104 190.750 C 380.713 187.587,382.400 185.000,382.853 185.000 C 383.306 185.000,384.232 180.613,384.912 175.250 C 386.805 160.302,383.415 148.159,373.577 134.648 C 371.808 132.219,352.032 114.729,339.338 104.368 C 337.227 102.645,328.560 95.354,320.077 88.166 C 311.594 80.977,304.281 75.326,303.827 75.607 C 303.372 75.888,303.000 75.667,303.000 75.116 C 303.000 74.565,299.512 71.190,295.250 67.616 C 281.998 56.505,262.624 40.538,259.885 38.472 C 258.447 37.388,253.722 33.825,249.385 30.556 C 228.388 14.730,209.161 9.975,184.360 14.476 M16.342 219.551 C 16.015 220.404,15.946 227.354,16.190 234.996 C 16.896 257.094,16.164 256.114,61.029 295.062 C 75.570 307.685,91.901 321.489,100.000 328.000 C 102.394 329.925,110.011 336.237,116.926 342.027 C 123.842 347.817,130.679 353.442,132.120 354.527 C 133.561 355.612,138.511 359.421,143.120 362.992 C 169.823 383.677,175.577 385.961,201.000 385.971 C 219.470 385.978,231.994 382.429,242.913 374.094 C 244.886 372.588,250.323 368.463,254.996 364.928 C 259.669 361.393,264.169 357.910,264.996 357.188 C 265.823 356.467,275.500 348.466,286.500 339.409 C 312.959 317.623,310.363 319.800,336.000 297.895 C 378.141 261.888,374.773 265.216,380.197 254.216 C 384.589 245.309,386.213 233.573,384.569 222.612 C 383.671 216.626,382.545 216.794,379.426 223.381 C 375.050 232.625,358.725 248.238,328.590 272.000 C 326.847 273.375,318.751 280.125,310.600 287.000 C 302.448 293.875,294.348 300.625,292.600 302.000 C 290.851 303.375,279.988 312.389,268.460 322.030 C 233.773 351.040,221.514 356.452,194.503 354.678 C 173.976 353.329,161.905 347.482,138.397 327.500 C 131.927 322.000,123.859 315.250,120.468 312.500 C 112.806 306.287,68.359 269.220,46.296 250.643 C 29.760 236.720,22.291 228.441,19.997 221.492 C 18.771 217.777,17.319 217.006,16.342 219.551 " stroke="none" fill="#000000" fill-rule="evenodd"></path></g></svg>