<svg id="svg" version="1.1" width="515" height="515" xmlns="http://www.w3.org/2000/svg" xmlns:xlink="http://www.w3.org/1999/xlink" style="display: block;"><g id="svgg"><path id="path0" d="M259.000 60.000 C 259.000 60.603,254.833 61.000,248.500 61.000 C 242.167 61.000,238.000 61.397,238.000 62.000 C 238.000 62.556,235.333 63.000,232.000 63.000 C 228.667 63.000,226.000 63.444,226.000 64.000 C 226.000 64.550,223.975 65.000,221.500 65.000 C 219.025 65.000,217.000 65.450,217.000 66.000 C 217.000 66.550,215.200 67.000,213.000 67.000 C 210.800 67.000,209.000 67.450,209.000 68.000 C 209.000 68.550,207.650 69.000,206.000 69.000 C 204.350 69.000,203.000 69.450,203.000 70.000 C 203.000 70.550,202.100 71.000,201.000 71.000 C 199.900 71.000,199.000 71.450,199.000 72.000 C 199.000 72.550,197.650 73.000,196.000 73.000 C 194.350 73.000,193.000 73.450,193.000 74.000 C 193.000 74.550,192.127 75.000,191.059 75.000 C 189.991 75.000,188.840 75.450,188.500 76.000 C 188.160 76.550,187.009 77.000,185.941 77.000 C 184.873 77.000,184.000 77.450,184.000 78.000 C 184.000 78.550,183.100 79.000,182.000 79.000 C 180.900 79.000,180.000 79.450,180.000 80.000 C 180.000 80.550,179.100 81.000,178.000 81.000 C 176.900 81.000,176.000 81.450,176.000 82.000 C 176.000 82.550,175.293 83.000,174.429 83.000 C 173.564 83.000,172.230 83.563,171.463 84.250 C 168.053 87.308,167.002 88.000,165.763 88.000 C 165.036 88.000,163.793 88.900,163.000 90.000 C 162.207 91.100,160.857 92.000,160.000 92.000 C 159.143 92.000,157.793 92.900,157.000 94.000 C 156.207 95.100,154.983 96.000,154.279 96.000 C 153.576 96.000,153.000 96.450,153.000 97.000 C 153.000 97.550,152.281 98.000,151.401 98.000 C 150.522 98.000,148.541 99.350,147.000 101.000 C 145.459 102.650,143.696 104.000,143.083 104.000 C 141.986 104.000,127.000 118.452,127.000 119.510 C 127.000 119.809,125.088 122.064,122.750 124.523 C 120.412 126.982,116.587 131.010,114.250 133.473 C 111.912 135.937,110.000 138.539,110.000 139.256 C 110.000 139.972,109.100 141.207,108.000 142.000 C 106.900 142.793,106.000 144.143,106.000 145.000 C 106.000 145.857,105.100 147.207,104.000 148.000 C 102.900 148.793,102.000 150.242,102.000 151.221 C 102.000 152.199,101.550 153.000,101.000 153.000 C 100.450 153.000,100.000 153.675,100.000 154.500 C 100.000 155.325,99.550 156.000,99.000 156.000 C 98.450 156.000,98.000 156.900,98.000 158.000 C 98.000 159.100,97.550 160.000,97.000 160.000 C 96.450 160.000,96.000 160.900,96.000 162.000 C 96.000 163.100,95.550 164.000,95.000 164.000 C 94.450 164.000,94.000 164.900,94.000 166.000 C 94.000 167.100,93.550 168.000,93.000 168.000 C 92.450 168.000,92.000 168.900,92.000 170.000 C 92.000 171.100,91.550 172.000,91.000 172.000 C 90.450 172.000,90.000 172.900,90.000 174.000 C 90.000 175.100,89.550 176.000,89.000 176.000 C 88.450 176.000,88.000 177.350,88.000 179.000 C 88.000 180.650,87.583 182.000,87.073 182.000 C 85.758 182.000,83.000 187.860,83.000 190.654 C 83.000 191.944,82.550 193.000,82.000 193.000 C 81.450 193.000,81.000 194.350,81.000 196.000 C 81.000 197.650,80.550 199.000,80.000 199.000 C 79.450 199.000,79.000 200.800,79.000 203.000 C 79.000 205.200,78.550 207.000,78.000 207.000 C 77.450 207.000,77.000 208.800,77.000 211.000 C 77.000 213.200,76.550 215.000,76.000 215.000 C 75.450 215.000,75.000 217.475,75.000 220.500 C 75.000 223.525,74.550 226.000,74.000 226.000 C 73.394 226.000,73.000 230.333,73.000 237.000 C 73.000 243.667,72.606 248.000,72.000 248.000 C 71.397 248.000,71.000 252.167,71.000 258.500 C 71.000 264.833,71.397 269.000,72.000 269.000 C 72.550 269.000,73.000 270.350,73.000 272.000 C 73.000 274.833,73.222 275.000,77.000 275.000 C 79.200 275.000,81.000 274.550,81.000 274.000 C 81.000 273.450,82.575 273.000,84.500 273.000 C 86.425 273.000,88.000 272.550,88.000 272.000 C 88.000 271.450,89.098 271.000,90.441 271.000 C 91.784 271.000,93.160 270.550,93.500 270.000 C 93.840 269.450,94.991 269.000,96.059 269.000 C 97.127 269.000,98.000 268.550,98.000 268.000 C 98.000 267.450,98.900 267.000,100.000 267.000 C 101.833 267.000,102.000 267.667,102.000 275.000 C 102.000 279.667,102.417 283.000,103.000 283.000 C 103.550 283.000,104.000 285.250,104.000 288.000 C 104.000 290.889,104.452 293.000,105.071 293.000 C 105.661 293.000,105.468 293.675,104.643 294.500 C 103.818 295.325,101.986 296.000,100.571 296.000 C 99.157 296.000,98.000 296.450,98.000 297.000 C 98.000 297.550,97.100 298.000,96.000 298.000 C 94.900 298.000,94.000 298.450,94.000 299.000 C 94.000 299.550,92.650 300.000,91.000 300.000 C 89.350 300.000,88.000 300.450,88.000 301.000 C 88.000 301.550,86.425 302.000,84.500 302.000 C 82.575 302.000,81.000 302.450,81.000 303.000 C 81.000 303.550,79.650 304.000,78.000 304.000 C 76.350 304.000,75.000 304.450,75.000 305.000 C 75.000 305.550,74.100 306.000,73.000 306.000 C 71.900 306.000,71.000 306.450,71.000 307.000 C 71.000 307.550,69.650 308.000,68.000 308.000 C 66.350 308.000,65.000 308.450,65.000 309.000 C 65.000 309.550,63.650 310.000,62.000 310.000 C 60.350 310.000,59.000 310.450,59.000 311.000 C 59.000 311.550,58.100 312.000,57.000 312.000 C 55.900 312.000,55.000 312.450,55.000 313.000 C 55.000 313.550,53.618 314.000,51.929 314.000 C 50.239 314.000,48.214 314.643,47.429 315.429 C 45.813 317.044,45.466 324.000,47.000 324.000 C 47.550 324.000,48.000 325.153,48.000 326.562 C 48.000 329.956,50.992 339.000,52.115 339.000 C 52.602 339.000,53.000 339.900,53.000 341.000 C 53.000 342.100,53.450 343.000,54.000 343.000 C 54.550 343.000,55.000 344.350,55.000 346.000 C 55.000 347.650,55.450 349.000,56.000 349.000 C 56.550 349.000,57.000 349.900,57.000 351.000 C 57.000 352.100,57.450 353.000,58.000 353.000 C 58.550 353.000,59.000 353.900,59.000 355.000 C 59.000 356.100,59.450 357.000,60.000 357.000 C 60.550 357.000,61.000 358.125,61.000 359.500 C 61.000 360.875,61.450 362.000,62.000 362.000 C 62.550 362.000,63.000 362.900,63.000 364.000 C 63.000 365.100,63.450 366.000,64.000 366.000 C 64.550 366.000,65.000 366.900,65.000 368.000 C 65.000 369.100,65.450 370.000,66.000 370.000 C 66.550 370.000,67.000 370.900,67.000 372.000 C 67.000 373.100,67.450 374.000,68.000 374.000 C 68.550 374.000,69.000 374.801,69.000 375.779 C 69.000 376.758,69.900 378.207,71.000 379.000 C 72.100 379.793,73.000 381.049,73.000 381.792 C 73.000 384.189,75.766 386.000,79.429 386.000 C 81.393 386.000,83.000 385.550,83.000 385.000 C 83.000 384.450,84.575 384.000,86.500 384.000 C 88.425 384.000,90.000 383.550,90.000 383.000 C 90.000 382.450,91.350 382.000,93.000 382.000 C 94.650 382.000,96.000 381.550,96.000 381.000 C 96.000 380.450,97.350 380.000,99.000 380.000 C 100.650 380.000,102.000 379.550,102.000 379.000 C 102.000 378.450,102.900 378.000,104.000 378.000 C 105.100 378.000,106.000 377.550,106.000 377.000 C 106.000 376.450,106.900 376.000,108.000 376.000 C 109.155 376.000,110.000 376.667,110.000 377.578 C 110.000 378.447,111.800 380.886,114.000 383.000 C 116.200 385.114,118.000 387.553,118.000 388.422 C 118.000 389.290,118.470 390.000,119.045 390.000 C 120.127 390.000,125.000 394.477,125.000 395.471 C 125.000 396.482,139.942 411.000,140.983 411.000 C 141.541 411.000,143.852 412.800,146.119 415.000 C 148.386 417.200,150.862 419.000,151.621 419.000 C 152.379 419.000,153.000 419.450,153.000 420.000 C 153.000 420.550,153.675 421.000,154.500 421.000 C 155.325 421.000,156.000 421.450,156.000 422.000 C 156.000 422.550,156.801 423.000,157.779 423.000 C 158.758 423.000,160.207 423.900,161.000 425.000 C 161.793 426.100,162.997 427.000,163.675 427.000 C 164.354 427.000,166.012 428.012,167.359 429.250 C 171.614 433.157,172.874 434.000,174.458 434.000 C 175.306 434.000,176.000 434.450,176.000 435.000 C 176.000 435.550,176.900 436.000,178.000 436.000 C 179.100 436.000,180.000 436.450,180.000 437.000 C 180.000 437.550,180.900 438.000,182.000 438.000 C 183.100 438.000,184.000 438.450,184.000 439.000 C 184.000 439.550,185.125 440.000,186.500 440.000 C 187.875 440.000,189.000 440.450,189.000 441.000 C 189.000 441.550,189.900 442.000,191.000 442.000 C 192.100 442.000,193.000 442.450,193.000 443.000 C 193.000 443.550,194.350 444.000,196.000 444.000 C 197.650 444.000,199.000 444.450,199.000 445.000 C 199.000 445.550,200.350 446.000,202.000 446.000 C 203.650 446.000,205.000 446.450,205.000 447.000 C 205.000 447.550,206.350 448.000,208.000 448.000 C 209.650 448.000,211.000 448.450,211.000 449.000 C 211.000 449.550,212.800 450.000,215.000 450.000 C 217.200 450.000,219.000 450.450,219.000 451.000 C 219.000 451.550,221.025 452.000,223.500 452.000 C 225.975 452.000,228.000 452.450,228.000 453.000 C 228.000 453.556,230.667 454.000,234.000 454.000 C 237.333 454.000,240.000 454.444,240.000 455.000 C 240.000 455.644,250.333 456.000,269.000 456.000 C 287.667 456.000,298.000 455.644,298.000 455.000 C 298.000 454.450,300.250 454.000,303.000 454.000 C 305.750 454.000,308.000 453.550,308.000 453.000 C 308.000 452.450,310.250 452.000,313.000 452.000 C 315.750 452.000,318.000 451.550,318.000 451.000 C 318.000 450.450,319.350 450.000,321.000 450.000 C 322.650 450.000,324.000 449.550,324.000 449.000 C 324.000 448.450,325.575 448.000,327.500 448.000 C 329.425 448.000,331.000 447.550,331.000 447.000 C 331.000 446.450,332.350 446.000,334.000 446.000 C 335.650 446.000,337.000 445.550,337.000 445.000 C 337.000 444.450,338.350 444.000,340.000 444.000 C 341.650 444.000,343.000 443.550,343.000 443.000 C 343.000 442.450,343.900 442.000,345.000 442.000 C 346.100 442.000,347.000 441.550,347.000 441.000 C 347.000 440.450,347.900 440.000,349.000 440.000 C 350.100 440.000,351.000 439.550,351.000 439.000 C 351.000 438.450,352.251 438.000,353.779 438.000 C 355.411 438.000,357.153 437.174,358.000 436.000 C 358.793 434.900,360.467 434.000,361.721 434.000 C 362.974 434.000,364.000 433.550,364.000 433.000 C 364.000 432.450,364.852 432.000,365.893 432.000 C 366.934 432.000,368.045 431.325,368.362 430.500 C 368.678 429.675,369.527 429.000,370.248 429.000 C 370.969 429.000,372.207 428.100,373.000 427.000 C 373.793 425.900,375.143 425.000,376.000 425.000 C 376.857 425.000,378.207 424.100,379.000 423.000 C 379.793 421.900,381.062 421.000,381.820 421.000 C 382.577 421.000,384.459 419.650,386.000 418.000 C 387.541 416.350,389.423 415.000,390.180 415.000 C 390.938 415.000,392.207 414.100,393.000 413.000 C 393.793 411.900,394.799 411.000,395.237 411.000 C 396.141 411.000,411.000 396.343,411.000 395.451 C 411.000 395.132,413.250 392.679,416.000 390.000 C 418.750 387.321,421.000 384.606,421.000 383.966 C 421.000 383.326,422.350 381.541,424.000 380.000 C 425.650 378.459,427.000 376.554,427.000 375.768 C 427.000 374.981,428.120 373.739,429.488 373.006 C 430.857 372.274,432.542 370.398,433.232 368.837 C 433.923 367.277,434.828 366.000,435.244 366.000 C 435.660 366.000,436.000 365.185,436.000 364.189 C 436.000 363.192,436.900 361.411,438.000 360.230 C 439.100 359.050,440.000 357.390,440.000 356.542 C 440.000 355.694,440.450 355.000,441.000 355.000 C 441.550 355.000,442.000 354.100,442.000 353.000 C 442.000 351.900,442.450 351.000,443.000 351.000 C 443.550 351.000,444.000 350.100,444.000 349.000 C 444.000 347.900,444.450 347.000,445.000 347.000 C 445.550 347.000,446.000 346.100,446.000 345.000 C 446.000 343.900,446.450 343.000,447.000 343.000 C 447.550 343.000,448.000 341.650,448.000 340.000 C 448.000 338.350,448.450 337.000,449.000 337.000 C 449.550 337.000,450.000 336.100,450.000 335.000 C 450.000 333.900,450.450 333.000,451.000 333.000 C 451.550 333.000,452.000 331.677,452.000 330.059 C 452.000 328.441,452.450 326.840,453.000 326.500 C 453.550 326.160,454.000 324.559,454.000 322.941 C 454.000 321.323,454.450 320.000,455.000 320.000 C 455.550 320.000,456.000 318.650,456.000 317.000 C 456.000 315.350,456.450 314.000,457.000 314.000 C 457.550 314.000,458.000 312.200,458.000 310.000 C 458.000 307.800,458.450 306.000,459.000 306.000 C 459.550 306.000,460.000 303.750,460.000 301.000 C 460.000 298.250,460.450 296.000,461.000 296.000 C 461.557 296.000,462.000 293.310,462.000 289.929 C 462.000 285.865,462.496 283.361,463.500 282.357 C 464.730 281.127,465.000 277.365,465.000 261.429 L 465.000 242.000 459.500 242.000 C 456.475 242.000,454.000 242.450,454.000 243.000 C 454.000 243.550,453.100 244.000,452.000 244.000 C 450.900 244.000,450.000 244.450,450.000 245.000 C 450.000 245.550,448.650 246.000,447.000 246.000 C 445.350 246.000,444.000 246.450,444.000 247.000 C 444.000 247.550,442.650 248.000,441.000 248.000 C 439.350 248.000,438.000 248.450,438.000 249.000 C 438.000 249.550,436.650 250.000,435.000 250.000 L 432.000 250.000 432.000 244.000 C 432.000 240.667,431.556 238.000,431.000 238.000 C 430.450 238.000,430.000 235.961,430.000 233.469 C 430.000 230.363,429.528 228.756,428.500 228.362 C 427.482 227.971,427.000 226.375,427.000 223.393 C 427.000 220.977,426.550 219.000,426.000 219.000 C 425.450 219.000,425.000 217.200,425.000 215.000 C 425.000 212.800,424.550 211.000,424.000 211.000 C 423.450 211.000,423.000 209.650,423.000 208.000 C 423.000 206.350,422.550 205.000,422.000 205.000 C 421.450 205.000,421.000 203.650,421.000 202.000 C 421.000 200.350,420.550 199.000,420.000 199.000 C 419.450 199.000,419.000 197.650,419.000 196.000 C 419.000 194.350,418.550 193.000,418.000 193.000 C 417.450 193.000,417.000 192.100,417.000 191.000 C 417.000 189.900,416.550 189.000,416.000 189.000 C 415.450 189.000,415.000 187.875,415.000 186.500 C 415.000 184.389,415.467 184.000,418.000 184.000 C 419.650 184.000,421.000 183.550,421.000 183.000 C 421.000 182.450,422.350 182.000,424.000 182.000 C 425.650 182.000,427.000 181.550,427.000 181.000 C 427.000 180.450,428.125 180.000,429.500 180.000 C 430.875 180.000,432.000 179.550,432.000 179.000 C 432.000 178.450,433.350 178.000,435.000 178.000 C 436.650 178.000,438.000 177.550,438.000 177.000 C 438.000 176.450,439.350 176.000,441.000 176.000 C 442.650 176.000,444.000 175.550,444.000 175.000 C 444.000 174.450,445.350 174.000,447.000 174.000 C 448.650 174.000,450.000 173.550,450.000 173.000 C 450.000 172.450,450.900 172.000,452.000 172.000 C 453.100 172.000,454.000 171.550,454.000 171.000 C 454.000 170.450,455.350 170.000,457.000 170.000 C 458.650 170.000,460.000 169.550,460.000 169.000 C 460.000 168.450,461.575 168.000,463.500 168.000 C 465.425 168.000,467.000 167.580,467.000 167.066 C 467.000 166.553,468.238 165.990,469.750 165.816 C 472.563 165.493,474.777 158.000,472.060 158.000 C 471.477 158.000,471.000 157.127,471.000 156.059 C 471.000 154.991,470.550 153.840,470.000 153.500 C 469.450 153.160,469.000 152.009,469.000 150.941 C 469.000 149.873,468.550 149.000,468.000 149.000 C 467.450 149.000,467.000 148.100,467.000 147.000 C 467.000 145.900,466.550 145.000,466.000 145.000 C 465.450 145.000,465.000 144.388,465.000 143.640 C 465.000 142.892,463.875 141.435,462.500 140.403 C 461.125 139.370,460.000 137.937,460.000 137.217 C 460.000 135.405,455.427 131.000,453.545 131.000 C 452.695 131.000,452.000 131.450,452.000 132.000 C 452.000 132.550,450.650 133.000,449.000 133.000 C 447.350 133.000,446.000 133.450,446.000 134.000 C 446.000 134.550,444.650 135.000,443.000 135.000 C 441.350 135.000,440.000 135.450,440.000 136.000 C 440.000 136.550,439.100 137.000,438.000 137.000 C 436.900 137.000,436.000 137.450,436.000 138.000 C 436.000 138.550,434.650 139.000,433.000 139.000 C 431.350 139.000,430.000 139.450,430.000 140.000 C 430.000 140.550,429.530 141.000,428.955 141.000 C 427.568 141.000,423.000 136.390,423.000 134.990 C 423.000 134.385,420.300 131.239,417.000 128.000 C 413.700 124.761,411.000 121.616,411.000 121.012 C 411.000 119.630,404.007 112.000,402.741 112.000 C 402.225 112.000,400.541 110.650,399.000 109.000 C 397.459 107.350,395.884 106.000,395.500 106.000 C 395.116 106.000,393.541 104.650,392.000 103.000 C 390.459 101.350,388.659 100.000,388.000 100.000 C 387.341 100.000,385.541 98.650,384.000 97.000 C 382.459 95.350,380.577 94.000,379.820 94.000 C 379.062 94.000,377.793 93.100,377.000 92.000 C 376.207 90.900,374.758 90.000,373.779 90.000 C 372.801 90.000,372.000 89.550,372.000 89.000 C 372.000 88.450,371.100 88.000,370.000 88.000 C 368.900 88.000,368.000 87.556,368.000 87.013 C 368.000 85.745,360.519 81.000,358.520 81.000 C 357.684 81.000,357.000 80.550,357.000 80.000 C 357.000 79.450,356.100 79.000,355.000 79.000 C 353.900 79.000,353.000 78.550,353.000 78.000 C 353.000 77.450,352.100 77.000,351.000 77.000 C 349.900 77.000,349.000 76.550,349.000 76.000 C 349.000 75.450,347.650 75.000,346.000 75.000 C 344.350 75.000,343.000 74.550,343.000 74.000 C 343.000 73.450,342.100 73.000,341.000 73.000 C 339.900 73.000,339.000 72.550,339.000 72.000 C 339.000 71.450,337.650 71.000,336.000 71.000 C 334.350 71.000,333.000 70.550,333.000 70.000 C 333.000 69.450,331.425 69.000,329.500 69.000 C 327.575 69.000,326.000 68.550,326.000 68.000 C 326.000 67.450,324.200 67.000,322.000 67.000 C 319.800 67.000,318.000 66.550,318.000 66.000 C 318.000 65.450,316.200 65.000,314.000 65.000 C 311.800 65.000,310.000 64.550,310.000 64.000 C 310.000 63.450,307.750 63.000,305.000 63.000 C 302.250 63.000,300.000 62.550,300.000 62.000 C 300.000 61.391,295.500 61.000,288.500 61.000 C 281.500 61.000,277.000 60.609,277.000 60.000 C 277.000 59.407,273.333 59.000,268.000 59.000 C 262.667 59.000,259.000 59.407,259.000 60.000 M283.500 134.000 C 283.840 134.550,286.791 135.000,290.059 135.000 C 293.353 135.000,296.000 135.446,296.000 136.000 C 296.000 136.550,297.350 137.000,299.000 137.000 C 300.650 137.000,302.000 137.450,302.000 138.000 C 302.000 138.550,303.350 139.000,305.000 139.000 C 306.650 139.000,308.000 139.450,308.000 140.000 C 308.000 140.550,309.350 141.000,311.000 141.000 C 312.650 141.000,314.000 141.450,314.000 142.000 C 314.000 142.550,314.900 143.000,316.000 143.000 C 317.100 143.000,318.000 143.450,318.000 144.000 C 318.000 144.550,318.900 145.000,320.000 145.000 C 321.100 145.000,322.000 145.450,322.000 146.000 C 322.000 146.550,323.125 147.000,324.500 147.000 C 325.875 147.000,327.000 147.450,327.000 148.000 C 327.000 148.550,327.801 149.000,328.779 149.000 C 329.758 149.000,331.207 149.900,332.000 151.000 C 332.793 152.100,334.242 153.000,335.221 153.000 C 336.199 153.000,337.000 153.599,337.000 154.331 C 337.000 155.063,338.224 156.301,339.721 157.081 C 341.217 157.861,345.604 161.532,349.471 165.237 C 356.091 171.582,362.000 174.300,362.000 171.000 C 362.000 170.450,363.098 170.000,364.441 170.000 C 365.784 170.000,367.160 169.550,367.500 169.000 C 367.840 168.450,368.991 168.000,370.059 168.000 C 371.127 168.000,372.000 167.550,372.000 167.000 C 372.000 166.450,373.350 166.000,375.000 166.000 C 376.650 166.000,378.000 165.550,378.000 165.000 C 378.000 164.450,379.313 164.000,380.917 164.000 C 382.521 164.000,384.019 163.442,384.247 162.759 C 384.607 161.680,388.574 165.399,396.998 174.714 C 398.099 175.932,399.000 177.454,399.000 178.097 C 399.000 178.740,399.949 180.089,401.109 181.095 C 403.564 183.224,401.878 186.000,398.130 186.000 C 397.024 186.000,395.840 186.450,395.500 187.000 C 395.160 187.550,393.994 188.000,392.910 188.000 C 391.825 188.000,390.678 188.675,390.362 189.500 C 390.034 190.355,388.542 191.000,386.893 191.000 C 385.302 191.000,384.000 191.450,384.000 192.000 C 384.000 192.550,382.650 193.000,381.000 193.000 C 379.350 193.000,378.000 193.450,378.000 194.000 C 378.000 194.550,376.650 195.000,375.000 195.000 C 373.350 195.000,372.000 195.450,372.000 196.000 C 372.000 196.550,371.100 197.000,370.000 197.000 C 368.900 197.000,368.000 197.450,368.000 198.000 C 368.000 198.550,366.650 199.000,365.000 199.000 C 363.350 199.000,362.000 199.450,362.000 200.000 C 362.000 200.550,360.677 201.000,359.059 201.000 C 357.441 201.000,355.840 201.450,355.500 202.000 C 355.160 202.550,354.009 203.000,352.941 203.000 C 351.873 203.000,351.000 203.450,351.000 204.000 C 351.000 204.550,349.650 205.000,348.000 205.000 C 345.167 205.000,345.000 205.222,345.000 209.000 C 345.000 211.200,345.450 213.000,346.000 213.000 C 346.550 213.000,347.000 213.900,347.000 215.000 C 347.000 216.100,347.450 217.000,348.000 217.000 C 348.550 217.000,349.000 217.900,349.000 219.000 C 349.000 220.100,349.450 221.000,350.000 221.000 C 350.550 221.000,351.000 222.323,351.000 223.941 C 351.000 225.559,351.450 227.160,352.000 227.500 C 352.550 227.840,353.000 229.190,353.000 230.500 C 353.000 231.810,353.450 233.160,354.000 233.500 C 354.550 233.840,355.000 235.441,355.000 237.059 C 355.000 238.677,355.450 240.000,356.000 240.000 C 356.550 240.000,357.000 241.800,357.000 244.000 C 357.000 246.200,357.450 248.000,358.000 248.000 C 358.596 248.000,359.000 251.833,359.000 257.500 C 359.000 265.278,359.272 267.000,360.500 267.000 C 361.583 267.000,362.000 268.111,362.000 271.000 C 362.000 273.889,361.583 275.000,360.500 275.000 C 359.500 275.000,359.000 276.000,359.000 278.000 C 359.000 280.970,359.056 281.000,364.500 281.000 C 367.525 281.000,370.000 280.550,370.000 280.000 C 370.000 279.450,371.350 279.000,373.000 279.000 C 374.650 279.000,376.000 278.550,376.000 278.000 C 376.000 277.450,376.900 277.000,378.000 277.000 C 379.100 277.000,380.000 276.550,380.000 276.000 C 380.000 275.450,381.350 275.000,383.000 275.000 C 384.650 275.000,386.000 274.550,386.000 274.000 C 386.000 273.450,386.900 273.000,388.000 273.000 C 389.778 273.000,390.000 273.667,390.000 279.000 C 390.000 282.333,389.556 285.000,389.000 285.000 C 388.450 285.000,388.000 286.575,388.000 288.500 C 388.000 290.425,387.550 292.000,387.000 292.000 C 386.450 292.000,386.000 293.800,386.000 296.000 C 386.000 298.200,385.550 300.000,385.000 300.000 C 384.450 300.000,384.000 301.350,384.000 303.000 C 384.000 304.650,383.550 306.000,383.000 306.000 C 382.450 306.000,382.000 306.900,382.000 308.000 C 382.000 309.100,381.550 310.000,381.000 310.000 C 380.450 310.000,380.000 310.900,380.000 312.000 C 380.000 313.100,379.550 314.000,379.000 314.000 C 378.450 314.000,378.000 314.900,378.000 316.000 C 378.000 317.100,377.550 318.000,377.000 318.000 C 376.450 318.000,376.000 318.900,376.000 320.000 C 376.000 321.100,375.550 322.000,375.000 322.000 C 374.450 322.000,374.000 322.675,374.000 323.500 C 374.000 324.325,373.550 325.000,373.000 325.000 C 372.450 325.000,372.000 325.801,372.000 326.779 C 372.000 327.758,371.100 329.207,370.000 330.000 C 368.900 330.793,368.000 332.046,368.000 332.786 C 368.000 334.311,358.693 343.458,338.286 361.989 C 337.068 363.095,335.480 364.000,334.756 364.000 C 334.033 364.000,332.793 364.900,332.000 366.000 C 331.207 367.100,329.758 368.000,328.779 368.000 C 327.801 368.000,327.000 368.450,327.000 369.000 C 327.000 369.550,325.875 370.000,324.500 370.000 C 323.125 370.000,322.000 370.450,322.000 371.000 C 322.000 371.550,321.100 372.000,320.000 372.000 C 318.900 372.000,318.000 372.450,318.000 373.000 C 318.000 373.550,317.100 374.000,316.000 374.000 C 314.900 374.000,314.000 374.450,314.000 375.000 C 314.000 375.550,312.650 376.000,311.000 376.000 C 309.350 376.000,308.000 376.450,308.000 377.000 C 308.000 377.550,306.650 378.000,305.000 378.000 C 303.350 378.000,302.000 378.450,302.000 379.000 C 302.000 379.550,300.200 380.000,298.000 380.000 C 295.800 380.000,294.000 380.450,294.000 381.000 C 294.000 381.564,291.167 382.000,287.500 382.000 C 283.833 382.000,281.000 382.436,281.000 383.000 C 281.000 383.617,275.833 384.000,267.500 384.000 C 259.167 384.000,254.000 383.617,254.000 383.000 C 254.000 382.450,251.750 382.000,249.000 382.000 C 246.250 382.000,244.000 381.550,244.000 381.000 C 244.000 380.450,242.200 380.000,240.000 380.000 C 237.800 380.000,236.000 379.550,236.000 379.000 C 236.000 378.450,234.677 378.000,233.059 378.000 C 231.441 378.000,229.840 377.550,229.500 377.000 C 229.160 376.450,227.559 376.000,225.941 376.000 C 224.323 376.000,223.000 375.550,223.000 375.000 C 223.000 374.450,222.100 374.000,221.000 374.000 C 219.900 374.000,219.000 373.550,219.000 373.000 C 219.000 372.450,218.100 372.000,217.000 372.000 C 215.900 372.000,215.000 371.550,215.000 371.000 C 215.000 370.450,214.100 370.000,213.000 370.000 C 211.900 370.000,211.000 369.550,211.000 369.000 C 211.000 368.450,210.100 368.000,209.000 368.000 C 207.900 368.000,207.000 367.550,207.000 367.000 C 207.000 366.450,206.199 366.000,205.221 366.000 C 204.242 366.000,202.793 365.100,202.000 364.000 C 201.207 362.900,199.758 362.000,198.779 362.000 C 197.801 362.000,196.999 361.663,196.999 361.250 C 196.996 359.673,192.189 355.000,190.569 355.000 C 189.635 355.000,186.679 352.750,184.000 350.000 C 179.486 345.365,176.000 343.622,176.000 346.000 C 176.000 346.550,174.650 347.000,173.000 347.000 C 171.350 347.000,170.000 347.450,170.000 348.000 C 170.000 348.550,168.650 349.000,167.000 349.000 C 165.350 349.000,164.000 349.450,164.000 350.000 C 164.000 350.550,162.650 351.000,161.000 351.000 C 159.350 351.000,158.000 351.450,158.000 352.000 C 158.000 352.550,157.127 353.000,156.059 353.000 C 154.991 353.000,153.840 353.450,153.500 354.000 C 151.278 357.596,139.000 351.460,139.000 346.754 C 139.000 346.032,138.100 344.793,137.000 344.000 C 135.900 343.207,135.000 341.857,135.000 341.000 C 135.000 340.143,134.100 338.793,133.000 338.000 C 131.900 337.207,131.000 335.758,131.000 334.779 C 131.000 333.801,130.550 333.000,130.000 333.000 C 129.450 333.000,129.000 332.100,129.000 331.000 C 129.000 329.900,128.550 329.000,128.000 329.000 C 127.450 329.000,127.000 328.100,127.000 327.000 C 127.000 325.900,126.550 325.000,126.000 325.000 C 125.450 325.000,125.000 324.127,125.000 323.059 C 125.000 321.991,124.550 320.840,124.000 320.500 C 123.450 320.160,123.000 319.009,123.000 317.941 C 123.000 316.873,122.586 316.000,122.079 316.000 C 121.573 316.000,120.862 314.650,120.500 313.000 C 120.138 311.350,119.427 310.000,118.921 310.000 C 118.414 310.000,118.000 308.650,118.000 307.000 C 118.000 305.350,117.550 304.000,117.000 304.000 C 115.466 304.000,115.813 297.044,117.429 295.429 C 118.214 294.643,120.028 294.000,121.460 294.000 C 122.892 294.000,124.322 293.325,124.638 292.500 C 124.966 291.645,126.458 291.000,128.107 291.000 C 129.698 291.000,131.000 290.550,131.000 290.000 C 131.000 289.450,132.350 289.000,134.000 289.000 C 135.650 289.000,137.000 288.550,137.000 288.000 C 137.000 287.450,137.900 287.000,139.000 287.000 C 140.100 287.000,141.000 286.550,141.000 286.000 C 141.000 285.450,142.350 285.000,144.000 285.000 C 145.650 285.000,147.000 284.550,147.000 284.000 C 147.000 283.450,148.350 283.000,150.000 283.000 C 151.650 283.000,153.000 282.550,153.000 282.000 C 153.000 281.450,154.125 281.000,155.500 281.000 C 156.875 281.000,158.000 280.550,158.000 280.000 C 158.000 279.450,159.350 279.000,161.000 279.000 C 162.650 279.000,164.000 278.550,164.000 278.000 C 164.000 277.450,165.350 277.000,167.000 277.000 C 168.650 277.000,170.000 276.550,170.000 276.000 C 170.000 275.450,170.900 275.000,172.000 275.000 C 173.860 275.000,174.000 274.333,174.000 265.500 C 174.000 259.833,173.596 256.000,173.000 256.000 C 172.400 256.000,172.000 252.000,172.000 246.000 L 172.000 236.000 169.000 236.000 C 167.350 236.000,166.000 236.450,166.000 237.000 C 166.000 237.550,165.100 238.000,164.000 238.000 C 162.900 238.000,162.000 238.450,162.000 239.000 C 162.000 239.550,160.650 240.000,159.000 240.000 C 157.350 240.000,156.000 240.450,156.000 241.000 C 156.000 241.550,154.425 242.000,152.500 242.000 C 150.575 242.000,149.000 242.450,149.000 243.000 C 149.000 243.550,148.100 244.000,147.000 244.000 C 145.444 244.000,145.000 243.333,145.000 241.000 C 145.000 239.350,145.450 238.000,146.000 238.000 C 146.550 238.000,147.000 235.750,147.000 233.000 C 147.000 230.250,147.450 228.000,148.000 228.000 C 148.550 228.000,149.000 226.425,149.000 224.500 C 149.000 222.575,149.450 221.000,150.000 221.000 C 150.550 221.000,151.000 219.650,151.000 218.000 C 151.000 216.350,151.450 215.000,152.000 215.000 C 152.550 215.000,153.000 213.650,153.000 212.000 C 153.000 210.000,153.500 209.000,154.500 209.000 C 155.333 209.000,156.000 208.111,156.000 207.000 C 156.000 205.900,156.450 205.000,157.000 205.000 C 157.550 205.000,158.000 204.100,158.000 203.000 C 158.000 201.900,158.450 201.000,159.000 201.000 C 159.550 201.000,160.000 200.100,160.000 199.000 C 160.000 197.900,160.450 197.000,161.000 197.000 C 161.550 197.000,162.000 196.199,162.000 195.221 C 162.000 194.242,162.900 192.793,164.000 192.000 C 165.100 191.207,166.000 189.713,166.000 188.680 C 166.000 187.648,167.350 185.541,169.000 184.000 C 170.650 182.459,172.000 180.697,172.000 180.085 C 172.000 178.693,188.602 162.000,189.986 162.000 C 190.544 162.000,191.000 161.550,191.000 161.000 C 191.000 160.450,191.563 159.999,192.250 159.999 C 193.908 159.997,199.000 155.573,199.000 154.134 C 199.000 153.510,199.900 153.000,201.000 153.000 C 202.100 153.000,203.000 152.550,203.000 152.000 C 203.000 151.450,203.801 151.000,204.779 151.000 C 205.758 151.000,207.207 150.100,208.000 149.000 C 208.793 147.900,210.242 147.000,211.221 147.000 C 212.199 147.000,213.000 146.550,213.000 146.000 C 213.000 145.450,213.900 145.000,215.000 145.000 C 216.100 145.000,217.000 144.550,217.000 144.000 C 217.000 143.450,217.900 143.000,219.000 143.000 C 220.100 143.000,221.000 142.550,221.000 142.000 C 221.000 141.450,222.575 141.000,224.500 141.000 C 226.425 141.000,228.000 140.550,228.000 140.000 C 228.000 139.450,229.350 139.000,231.000 139.000 C 232.650 139.000,234.000 138.550,234.000 138.000 C 234.000 137.450,235.800 137.000,238.000 137.000 C 240.200 137.000,242.000 136.550,242.000 136.000 C 242.000 135.450,244.250 135.000,247.000 135.000 C 249.750 135.000,252.000 134.550,252.000 134.000 C 252.000 133.377,257.814 133.000,267.441 133.000 C 276.656 133.000,283.131 133.403,283.500 134.000 " stroke="none" fill="#000000" fill-rule="evenodd"></path></g></svg>