<svg version="1.1" width="515" height="515" xmlns="http://www.w3.org/2000/svg">
<g>
<path d="M226.250 0.674 C 222.262 0.901,219.000 1.464,219.000 1.925 C 219.000 2.385,214.725 3.083,209.500 3.474 C 204.275 3.866,200.000 4.595,200.000 5.093 C 200.000 5.592,198.650 6.000,197.000 6.000 C 195.350 6.000,194.000 6.450,194.000 7.000 C 194.000 7.550,192.425 8.000,190.500 8.000 C 188.575 8.000,187.000 8.439,187.000 8.975 C 187.000 9.525,185.692 9.688,184.000 9.350 C 182.089 8.968,181.000 9.158,181.000 9.875 C 181.000 10.494,179.875 11.000,178.500 11.000 C 177.125 11.000,176.000 11.450,176.000 12.000 C 176.000 12.550,174.875 13.000,173.500 13.000 C 172.125 13.000,171.000 13.408,171.000 13.906 C 171.000 14.405,168.750 15.122,166.000 15.500 C 163.250 15.878,161.000 16.595,161.000 17.094 C 161.000 17.592,160.100 18.000,159.000 18.000 C 157.900 18.000,157.000 18.450,157.000 19.000 C 157.000 19.550,156.325 20.000,155.500 20.000 C 154.675 20.000,154.000 20.459,154.000 21.019 C 154.000 21.607,152.942 21.772,151.500 21.411 C 149.960 21.024,149.000 21.209,149.000 21.892 C 149.000 22.501,148.100 23.000,147.000 23.000 C 145.900 23.000,145.000 23.450,145.000 24.000 C 145.000 24.550,144.325 25.000,143.500 25.000 C 142.675 25.000,142.000 25.400,142.000 25.889 C 142.000 26.377,140.523 27.055,138.718 27.393 C 136.912 27.732,134.788 28.907,133.997 30.005 C 133.206 31.102,131.983 32.000,131.279 32.000 C 130.576 32.000,130.000 32.480,130.000 33.067 C 130.000 33.680,129.147 33.864,128.000 33.500 C 126.853 33.136,126.000 33.320,126.000 33.933 C 126.000 34.520,125.490 35.000,124.867 35.000 C 124.244 35.000,123.007 35.836,122.117 36.857 C 121.228 37.878,119.487 39.034,118.250 39.424 C 117.013 39.815,116.000 40.554,116.000 41.067 C 116.000 41.580,115.490 42.000,114.867 42.000 C 114.244 42.000,112.918 42.941,111.920 44.092 C 110.923 45.242,109.647 45.900,109.086 45.553 C 108.525 45.206,107.492 45.840,106.792 46.961 C 106.092 48.083,104.891 49.000,104.124 49.000 C 103.357 49.000,101.687 50.125,100.412 51.500 C 99.138 52.875,97.705 54.000,97.228 54.000 C 96.751 54.000,95.382 55.125,94.187 56.500 C 92.991 57.875,91.591 59.000,91.074 59.000 C 90.557 59.000,89.843 59.918,89.487 61.041 C 89.102 62.253,87.653 63.319,85.920 63.666 C 84.314 63.987,83.000 64.623,83.000 65.080 C 83.000 65.813,81.968 66.915,76.798 71.702 C 76.084 72.363,74.950 73.488,74.278 74.202 C 73.605 74.916,72.605 75.950,72.055 76.500 C 71.505 77.050,69.897 78.737,68.482 80.250 C 67.067 81.762,65.480 83.000,64.955 83.000 C 64.430 83.000,64.000 83.900,64.000 85.000 C 64.000 86.100,63.518 87.000,62.929 87.000 C 61.403 87.000,59.382 89.222,58.565 91.797 C 58.180 93.008,57.514 94.000,57.086 94.000 C 55.892 94.000,52.000 97.607,52.000 98.714 C 52.000 99.253,51.152 100.672,50.115 101.868 C 49.078 103.064,47.165 105.604,45.865 107.514 C 44.564 109.424,43.163 110.989,42.750 110.993 C 42.337 110.997,42.000 111.675,42.000 112.500 C 42.000 113.325,41.550 114.000,41.000 114.000 C 40.450 114.000,40.000 114.914,40.000 116.031 C 40.000 117.149,39.325 118.322,38.500 118.638 C 37.675 118.955,37.000 119.860,37.000 120.649 C 37.000 121.438,36.083 123.068,34.961 124.272 C 33.840 125.475,32.666 127.482,32.353 128.730 C 32.040 129.979,31.382 131.000,30.892 131.000 C 30.401 131.000,30.000 131.900,30.000 133.000 C 30.000 134.100,29.550 135.000,29.000 135.000 C 28.450 135.000,28.000 135.643,28.000 136.429 C 28.000 137.214,27.437 138.469,26.750 139.217 C 24.614 141.542,23.000 144.885,23.000 146.986 C 23.000 148.094,22.586 149.000,22.079 149.000 C 21.573 149.000,20.862 150.350,20.500 152.000 C 20.138 153.650,19.427 155.000,18.921 155.000 C 18.414 155.000,18.000 156.350,18.000 158.000 C 18.000 159.650,17.555 161.000,17.012 161.000 C 16.468 161.000,15.736 162.800,15.384 165.000 C 15.032 167.200,14.352 169.000,13.872 169.000 C 13.392 169.000,13.000 170.125,13.000 171.500 C 13.000 172.875,12.550 174.000,12.000 174.000 C 11.450 174.000,11.000 174.849,11.000 175.886 C 11.000 176.923,10.328 179.060,9.506 180.636 C 8.685 182.211,8.010 184.963,8.006 186.750 C 8.003 188.537,7.550 190.000,7.000 190.000 C 6.450 190.000,6.000 191.800,6.000 194.000 C 6.000 196.200,5.588 198.000,5.085 198.000 C 4.582 198.000,3.848 201.488,3.454 205.750 C 3.060 210.012,2.234 213.821,1.619 214.214 C 0.822 214.721,0.500 227.192,0.500 257.500 C 0.500 287.808,0.822 300.279,1.619 300.786 C 2.234 301.179,3.060 304.988,3.454 309.250 C 3.848 313.512,4.582 317.000,5.085 317.000 C 5.588 317.000,6.000 318.800,6.000 321.000 C 6.000 323.200,6.450 325.000,7.000 325.000 C 7.550 325.000,8.003 326.462,8.006 328.250 C 8.010 330.038,8.685 332.789,9.506 334.364 C 10.328 335.940,11.000 338.077,11.000 339.114 C 11.000 340.151,11.450 341.000,12.000 341.000 C 12.550 341.000,13.000 342.125,13.000 343.500 C 13.000 344.875,13.392 346.000,13.872 346.000 C 14.352 346.000,15.032 347.800,15.384 350.000 C 15.736 352.200,16.468 354.000,17.012 354.000 C 17.555 354.000,18.000 355.350,18.000 357.000 C 18.000 358.650,18.414 360.000,18.921 360.000 C 19.427 360.000,20.138 361.350,20.500 363.000 C 20.862 364.650,21.573 366.000,22.079 366.000 C 22.586 366.000,23.000 367.152,23.000 368.559 C 23.000 370.010,23.433 370.851,24.000 370.500 C 24.567 370.149,25.000 370.990,25.000 372.441 C 25.000 373.848,25.441 375.000,25.981 375.000 C 26.520 375.000,27.244 376.125,27.589 377.500 C 27.934 378.875,28.618 380.000,29.108 380.000 C 29.599 380.000,30.000 380.900,30.000 382.000 C 30.000 383.100,30.401 384.000,30.892 384.000 C 31.382 384.000,32.040 385.021,32.353 386.270 C 32.666 387.518,33.840 389.525,34.961 390.728 C 36.083 391.932,37.000 393.562,37.000 394.351 C 37.000 395.140,37.675 396.045,38.500 396.362 C 39.325 396.678,40.000 397.851,40.000 398.969 C 40.000 400.086,40.450 401.000,41.000 401.000 C 41.550 401.000,42.000 401.470,42.000 402.044 C 42.000 402.618,43.125 404.301,44.500 405.783 C 45.875 407.266,47.000 408.842,47.000 409.285 C 47.000 409.728,48.125 411.216,49.500 412.591 C 50.875 413.966,52.000 415.580,52.000 416.178 C 52.000 417.367,55.832 421.000,57.086 421.000 C 57.514 421.000,58.174 421.974,58.552 423.165 C 58.930 424.356,60.261 426.431,61.508 427.777 C 63.856 430.308,64.190 430.650,68.139 434.563 C 69.437 435.850,71.041 437.488,71.702 438.202 C 72.363 438.916,73.488 440.050,74.202 440.722 C 74.916 441.395,76.075 442.520,76.777 443.222 C 77.480 443.925,79.180 445.625,80.555 447.000 C 81.930 448.375,83.505 449.950,84.055 450.500 C 87.646 454.091,89.943 455.847,91.835 456.448 C 93.026 456.826,94.000 457.486,94.000 457.914 C 94.000 459.168,97.633 463.000,98.822 463.000 C 99.420 463.000,101.034 464.125,102.409 465.500 C 103.784 466.875,105.272 468.000,105.715 468.000 C 106.158 468.000,107.734 469.125,109.217 470.500 C 110.699 471.875,112.382 473.000,112.956 473.000 C 113.530 473.000,114.000 473.450,114.000 474.000 C 114.000 474.550,114.914 475.000,116.031 475.000 C 117.149 475.000,118.322 475.675,118.638 476.500 C 118.955 477.325,119.860 478.000,120.649 478.000 C 121.438 478.000,123.050 478.900,124.230 480.000 C 127.100 482.673,131.000 482.673,131.000 480.000 C 131.000 478.900,131.450 478.000,132.000 478.000 C 132.550 478.000,133.000 477.325,133.000 476.500 C 133.000 475.675,133.450 475.000,134.000 475.000 C 134.550 475.000,135.000 474.155,135.000 473.122 C 135.000 472.090,135.675 470.685,136.500 470.000 C 137.325 469.315,138.000 468.135,138.000 467.378 C 138.000 466.620,138.450 466.000,139.000 466.000 C 139.550 466.000,140.000 465.325,140.000 464.500 C 140.000 463.675,140.502 463.000,141.117 463.000 C 141.731 463.000,142.013 462.158,141.744 461.129 C 141.452 460.013,142.011 458.713,143.127 457.908 C 144.157 457.166,145.000 455.983,145.000 455.279 C 145.000 454.576,145.414 454.000,145.921 454.000 C 146.427 454.000,147.162 452.538,147.555 450.751 C 147.947 448.964,149.108 446.774,150.134 445.884 C 151.160 444.994,152.000 443.756,152.000 443.133 C 152.000 442.510,152.450 442.000,153.000 442.000 C 153.550 442.000,154.000 441.086,154.000 439.969 C 154.000 438.851,154.675 437.678,155.500 437.362 C 156.325 437.045,157.000 435.934,157.000 434.893 C 157.000 433.852,157.398 433.000,157.883 433.000 C 158.840 433.000,160.301 429.230,160.082 427.326 C 160.008 426.680,160.859 425.862,161.974 425.508 C 163.088 425.155,164.000 423.996,164.000 422.933 C 164.000 421.870,164.430 421.000,164.955 421.000 C 165.480 421.000,166.202 419.440,166.560 417.534 C 166.962 415.386,167.931 413.839,169.105 413.467 C 170.147 413.136,171.000 411.996,171.000 410.933 C 171.000 409.870,171.498 409.000,172.107 409.000 C 172.716 409.000,172.982 408.395,172.698 407.655 C 172.414 406.916,173.041 405.691,174.091 404.934 C 175.141 404.178,176.000 402.983,176.000 402.279 C 176.000 401.576,176.400 401.000,176.889 401.000 C 177.377 401.000,178.055 399.523,178.393 397.718 C 178.732 395.912,179.907 393.788,181.005 392.997 C 182.102 392.206,183.000 390.983,183.000 390.279 C 183.000 389.576,183.480 389.000,184.067 389.000 C 184.680 389.000,184.864 388.147,184.500 387.000 C 184.136 385.853,184.320 385.000,184.933 385.000 C 185.520 385.000,186.000 384.424,186.000 383.721 C 186.000 383.017,186.900 381.793,188.000 381.000 C 189.324 380.045,190.000 378.411,190.000 376.163 C 190.000 373.259,189.710 372.843,188.000 373.290 C 186.517 373.678,186.000 373.320,186.000 371.906 C 186.000 370.540,185.292 370.000,183.500 370.000 C 182.125 370.000,181.000 369.580,181.000 369.067 C 181.000 368.554,180.047 367.832,178.883 367.463 C 177.719 367.093,174.871 364.813,172.554 362.395 C 170.238 359.978,167.828 358.000,167.198 358.000 C 165.707 358.000,157.000 349.293,157.000 347.802 C 157.000 347.172,155.022 344.762,152.605 342.446 C 150.187 340.129,147.907 337.281,147.537 336.117 C 147.168 334.953,146.446 334.000,145.933 334.000 C 145.420 334.000,145.000 332.875,145.000 331.500 C 145.000 329.680,144.465 329.000,143.031 329.000 C 141.713 329.000,141.248 328.516,141.625 327.534 C 141.935 326.728,140.800 324.012,139.104 321.499 C 137.408 318.986,135.742 315.821,135.402 314.465 C 135.062 313.109,134.382 312.000,133.892 312.000 C 133.401 312.000,133.000 311.100,133.000 310.000 C 133.000 308.900,132.601 308.000,132.114 308.000 C 131.626 308.000,130.921 305.863,130.548 303.250 C 129.802 298.036,127.939 293.000,126.756 293.000 C 126.340 293.000,126.000 291.462,126.000 289.583 C 126.000 287.704,125.438 285.979,124.750 285.750 C 123.790 285.430,123.500 278.878,123.500 257.500 C 123.500 236.122,123.790 229.570,124.750 229.250 C 125.438 229.021,126.000 227.296,126.000 225.417 C 126.000 223.537,126.450 222.000,127.000 222.000 C 127.550 222.000,128.000 220.848,128.000 219.441 C 128.000 218.034,128.399 217.128,128.886 217.430 C 129.374 217.731,130.081 215.507,130.458 212.489 C 130.835 209.470,131.562 207.000,132.072 207.000 C 132.582 207.000,133.000 206.100,133.000 205.000 C 133.000 203.900,133.414 203.000,133.921 203.000 C 134.427 203.000,135.138 201.650,135.500 200.000 C 135.862 198.350,136.573 197.000,137.079 197.000 C 137.586 197.000,138.000 196.100,138.000 195.000 C 138.000 193.900,138.450 193.000,139.000 193.000 C 139.550 193.000,140.000 192.325,140.000 191.500 C 140.000 190.675,140.502 190.000,141.117 190.000 C 141.731 190.000,142.013 189.158,141.744 188.129 C 141.452 187.013,142.011 185.713,143.127 184.908 C 144.157 184.166,145.000 182.983,145.000 182.279 C 145.000 181.576,145.420 181.000,145.933 181.000 C 146.446 181.000,147.168 180.047,147.537 178.883 C 147.907 177.719,150.187 174.871,152.605 172.554 C 155.022 170.238,157.000 167.816,157.000 167.171 C 157.000 166.527,157.702 166.000,158.559 166.000 C 159.416 166.000,159.858 165.579,159.540 165.065 C 158.786 163.844,163.844 158.786,165.065 159.540 C 165.579 159.858,166.000 159.416,166.000 158.559 C 166.000 157.702,166.470 157.000,167.044 157.000 C 167.618 157.000,169.301 155.875,170.783 154.500 C 172.266 153.125,173.940 152.000,174.502 152.000 C 175.065 152.000,176.370 150.875,177.403 149.500 C 178.435 148.125,180.117 147.000,181.140 147.000 C 182.163 147.000,183.000 146.550,183.000 146.000 C 183.000 145.450,183.675 145.000,184.500 145.000 C 185.325 145.000,186.000 144.559,186.000 144.019 C 186.000 143.480,187.125 142.756,188.500 142.411 C 189.875 142.066,191.000 141.382,191.000 140.892 C 191.000 140.401,191.801 140.000,192.779 140.000 C 193.758 140.000,195.216 139.088,196.019 137.973 C 196.833 136.844,199.145 135.681,201.240 135.346 C 203.308 135.015,205.000 134.352,205.000 133.872 C 205.000 133.392,205.900 133.000,207.000 133.000 C 208.100 133.000,209.000 132.570,209.000 132.045 C 209.000 131.520,210.688 130.821,212.750 130.491 C 214.813 130.161,217.281 129.465,218.236 128.945 C 219.191 128.425,221.329 128.000,222.986 128.000 C 224.644 128.000,226.000 127.550,226.000 127.000 C 226.000 126.450,227.260 126.000,228.800 126.000 C 230.340 126.000,232.162 125.438,232.850 124.750 C 233.779 123.821,240.113 123.500,257.500 123.500 C 274.886 123.500,281.221 123.821,282.150 124.750 C 282.837 125.438,284.660 126.000,286.200 126.000 C 287.740 126.000,289.000 126.450,289.000 127.000 C 289.000 127.550,291.025 128.000,293.500 128.000 C 295.975 128.000,298.000 128.392,298.000 128.872 C 298.000 129.352,299.800 130.032,302.000 130.384 C 304.200 130.736,306.000 131.468,306.000 132.012 C 306.000 132.555,306.873 133.000,307.941 133.000 C 309.009 133.000,310.124 133.392,310.420 133.871 C 310.716 134.350,312.326 135.015,313.998 135.350 C 315.670 135.684,318.014 136.867,319.208 137.979 C 320.401 139.090,322.192 140.000,323.189 140.000 C 324.185 140.000,325.000 140.420,325.000 140.933 C 325.000 141.446,326.012 142.185,327.250 142.576 C 328.488 142.966,330.228 144.122,331.117 145.143 C 332.007 146.164,333.447 147.000,334.318 147.000 C 335.188 147.000,336.260 147.565,336.700 148.256 C 337.140 148.947,339.253 150.820,341.397 152.419 C 346.418 156.164,358.836 168.582,362.581 173.603 C 364.180 175.747,366.053 177.860,366.744 178.300 C 367.435 178.740,368.000 179.812,368.000 180.682 C 368.000 181.553,368.836 182.993,369.857 183.883 C 370.878 184.772,372.034 186.512,372.424 187.750 C 372.815 188.987,373.554 190.000,374.067 190.000 C 374.580 190.000,375.000 190.675,375.000 191.500 C 375.000 192.325,375.450 193.000,376.000 193.000 C 376.550 193.000,377.000 193.900,377.000 195.000 C 377.000 196.100,377.445 197.000,377.988 197.000 C 378.532 197.000,379.264 198.800,379.616 201.000 C 379.968 203.200,380.648 205.000,381.128 205.000 C 381.608 205.000,382.000 205.900,382.000 207.000 C 382.000 208.100,382.445 209.000,382.988 209.000 C 383.532 209.000,384.264 210.800,384.616 213.000 C 384.968 215.200,385.648 217.000,386.128 217.000 C 386.608 217.000,387.000 218.773,387.000 220.941 C 387.000 223.109,387.450 225.160,388.000 225.500 C 388.550 225.840,389.000 227.179,389.000 228.476 C 389.000 229.772,389.563 231.021,390.250 231.250 C 391.207 231.569,391.500 237.722,391.500 257.500 C 391.500 277.278,391.207 283.431,390.250 283.750 C 389.562 283.979,389.000 285.228,389.000 286.524 C 389.000 287.821,388.550 289.160,388.000 289.500 C 387.450 289.840,387.000 291.891,387.000 294.059 C 387.000 296.227,386.608 298.000,386.128 298.000 C 385.648 298.000,384.968 299.800,384.616 302.000 C 384.264 304.200,383.532 306.000,382.988 306.000 C 382.445 306.000,382.000 306.900,382.000 308.000 C 382.000 309.100,381.608 310.000,381.128 310.000 C 380.648 310.000,379.968 311.800,379.616 314.000 C 379.264 316.200,378.532 318.000,377.988 318.000 C 377.445 318.000,377.000 318.900,377.000 320.000 C 377.000 321.100,376.550 322.000,376.000 322.000 C 375.450 322.000,375.000 322.675,375.000 323.500 C 375.000 324.325,374.580 325.000,374.067 325.000 C 373.554 325.000,372.815 326.012,372.424 327.250 C 372.034 328.488,370.950 330.175,370.017 331.000 C 369.083 331.825,368.001 333.791,367.611 335.368 C 367.222 336.945,366.640 337.973,366.318 337.652 C 365.997 337.330,364.366 338.956,362.694 341.264 C 361.021 343.573,358.139 346.889,356.289 348.635 C 354.438 350.380,353.347 351.964,353.863 352.154 C 354.380 352.344,354.172 353.080,353.401 353.789 C 352.481 354.636,352.000 354.698,352.000 353.968 C 352.000 353.326,351.366 353.491,350.500 354.357 C 349.675 355.182,349.000 356.339,349.000 356.929 C 349.000 357.518,348.473 358.000,347.829 358.000 C 347.184 358.000,344.762 359.978,342.446 362.395 C 340.129 364.813,337.281 367.093,336.117 367.463 C 334.953 367.832,334.000 368.554,334.000 369.067 C 334.000 369.580,333.130 370.000,332.067 370.000 C 331.004 370.000,329.870 370.836,329.545 371.857 C 329.118 373.204,328.276 373.584,326.478 373.241 C 323.537 372.678,322.887 376.744,325.500 379.357 C 326.325 380.182,327.000 381.564,327.000 382.429 C 327.000 383.293,327.401 384.000,327.892 384.000 C 328.382 384.000,329.066 385.125,329.411 386.500 C 329.756 387.875,330.480 389.000,331.019 389.000 C 331.559 389.000,332.000 389.675,332.000 390.500 C 332.000 391.325,332.450 392.000,333.000 392.000 C 333.550 392.000,334.000 392.900,334.000 394.000 C 334.000 395.100,334.401 396.000,334.892 396.000 C 335.382 396.000,336.066 397.125,336.411 398.500 C 336.756 399.875,337.480 401.000,338.019 401.000 C 338.559 401.000,339.000 401.675,339.000 402.500 C 339.000 403.325,339.450 404.000,340.000 404.000 C 340.550 404.000,341.000 404.914,341.000 406.031 C 341.000 407.149,341.675 408.322,342.500 408.638 C 343.325 408.955,344.000 410.066,344.000 411.107 C 344.000 412.148,344.450 413.000,345.000 413.000 C 345.550 413.000,346.000 413.675,346.000 414.500 C 346.000 415.325,346.450 416.000,347.000 416.000 C 347.550 416.000,348.000 416.914,348.000 418.031 C 348.000 419.149,348.675 420.322,349.500 420.638 C 350.325 420.955,351.000 422.066,351.000 423.107 C 351.000 424.148,351.343 425.000,351.763 425.000 C 352.527 425.000,354.333 427.963,355.573 431.250 C 355.936 432.212,356.631 433.000,357.117 433.000 C 357.602 433.000,358.000 433.900,358.000 435.000 C 358.000 436.100,358.401 437.000,358.892 437.000 C 359.382 437.000,360.066 438.125,360.411 439.500 C 360.756 440.875,361.480 442.000,362.019 442.000 C 362.559 442.000,363.000 442.675,363.000 443.500 C 363.000 444.325,363.450 445.000,364.000 445.000 C 364.550 445.000,365.000 445.900,365.000 447.000 C 365.000 448.100,365.363 449.000,365.808 449.000 C 366.252 449.000,367.409 450.800,368.380 453.000 C 369.351 455.200,370.512 457.000,370.961 457.000 C 371.410 457.000,372.075 458.588,372.439 460.528 C 372.803 462.468,373.528 463.792,374.051 463.469 C 374.573 463.146,375.000 464.003,375.000 465.374 C 375.000 466.941,375.703 468.088,376.895 468.467 C 378.035 468.829,379.033 470.362,379.400 472.317 C 379.735 474.103,380.907 476.212,382.005 477.003 C 383.102 477.794,384.000 479.242,384.000 480.221 C 384.000 482.677,388.038 482.545,390.770 480.000 C 391.950 478.900,393.562 478.000,394.351 478.000 C 395.140 478.000,396.045 477.325,396.362 476.500 C 396.678 475.675,397.851 475.000,398.969 475.000 C 400.086 475.000,401.000 474.550,401.000 474.000 C 401.000 473.450,401.675 473.000,402.500 473.000 C 403.325 473.000,404.000 472.647,404.000 472.216 C 404.000 471.784,405.462 470.568,407.249 469.512 C 409.036 468.456,411.532 466.559,412.795 465.296 C 414.058 464.033,415.580 463.000,416.178 463.000 C 417.367 463.000,421.000 459.168,421.000 457.914 C 421.000 457.121,424.966 455.468,426.150 455.769 C 426.507 455.859,427.079 454.823,427.419 453.467 C 427.817 451.883,428.747 451.000,430.019 451.000 C 431.109 451.000,432.000 450.570,432.000 450.045 C 432.000 449.201,432.990 448.124,438.202 443.298 C 438.916 442.637,440.050 441.512,440.722 440.798 C 441.395 440.084,442.457 438.988,443.084 438.361 C 443.710 437.735,445.318 436.048,446.657 434.611 C 447.996 433.175,449.464 432.000,449.920 432.000 C 450.377 432.000,451.013 430.686,451.334 429.080 C 451.674 427.379,452.748 425.897,453.908 425.529 C 455.002 425.182,456.169 424.044,456.500 423.000 C 456.831 421.956,457.979 420.824,459.051 420.484 C 460.123 420.144,461.000 419.199,461.000 418.385 C 461.000 417.571,462.125 415.862,463.500 414.588 C 464.875 413.313,466.000 411.643,466.000 410.876 C 466.000 410.109,466.917 408.908,468.039 408.208 C 469.160 407.508,469.794 406.475,469.447 405.914 C 468.842 404.935,472.521 401.000,474.042 401.000 C 474.446 401.000,475.053 399.531,475.390 397.737 C 475.726 395.942,477.118 393.635,478.482 392.611 C 479.846 391.586,480.719 390.355,480.422 389.874 C 480.125 389.393,480.389 389.000,481.008 389.000 C 481.664 389.000,481.880 388.198,481.526 387.081 C 481.090 385.708,481.498 384.977,482.958 384.513 C 484.086 384.155,485.000 383.000,485.000 381.933 C 485.000 380.870,485.430 380.000,485.955 380.000 C 486.480 380.000,487.205 378.425,487.566 376.500 C 487.927 374.575,488.623 373.000,489.111 373.000 C 489.600 373.000,490.000 372.325,490.000 371.500 C 490.000 370.675,490.340 370.000,490.756 370.000 C 492.045 370.000,494.079 364.369,493.415 362.639 C 493.066 361.729,493.278 361.000,493.893 361.000 C 494.502 361.000,495.000 360.325,495.000 359.500 C 495.000 358.675,495.450 358.000,496.000 358.000 C 496.550 358.000,497.000 357.100,497.000 356.000 C 497.000 354.900,497.408 354.000,497.906 354.000 C 498.405 354.000,499.111 351.826,499.477 349.170 C 499.897 346.111,500.848 343.830,502.070 342.949 C 503.163 342.162,504.000 340.378,504.000 338.838 C 504.000 337.342,504.495 335.812,505.101 335.438 C 505.727 335.051,505.953 333.516,505.626 331.879 C 505.306 330.282,505.484 329.000,506.025 329.000 C 506.561 329.000,507.000 327.425,507.000 325.500 C 507.000 323.575,507.450 322.000,508.000 322.000 C 508.550 322.000,509.000 320.875,509.000 319.500 C 509.000 318.125,509.398 317.000,509.884 317.000 C 510.369 317.000,510.955 314.044,511.185 310.432 C 511.453 306.222,512.124 303.501,513.052 302.855 C 514.153 302.089,514.201 301.726,513.250 301.341 C 511.629 300.683,511.629 297.290,513.250 296.750 C 514.221 296.426,514.500 287.678,514.500 257.500 C 514.500 227.322,514.221 218.574,513.250 218.250 C 511.629 217.710,511.629 214.317,513.250 213.659 C 514.201 213.274,514.153 212.911,513.052 212.145 C 512.124 211.499,511.453 208.778,511.185 204.568 C 510.955 200.956,510.369 198.000,509.884 198.000 C 509.398 198.000,509.000 196.875,509.000 195.500 C 509.000 194.125,508.550 193.000,508.000 193.000 C 507.450 193.000,507.000 191.425,507.000 189.500 C 507.000 187.575,506.561 186.000,506.025 186.000 C 505.484 186.000,505.306 184.718,505.626 183.121 C 505.953 181.484,505.727 179.949,505.101 179.562 C 504.495 179.188,504.000 177.724,504.000 176.308 C 504.000 174.893,503.002 172.869,501.782 171.811 C 500.123 170.372,499.883 169.691,500.829 169.105 C 501.818 168.495,501.756 168.042,500.547 167.039 C 499.696 166.333,499.000 164.335,499.000 162.598 C 499.000 160.589,498.273 158.918,497.000 158.000 C 495.900 157.207,495.000 155.983,495.000 155.279 C 495.000 154.576,494.502 154.000,493.893 154.000 C 493.278 154.000,493.066 153.271,493.415 152.361 C 494.079 150.631,492.045 145.000,490.756 145.000 C 490.340 145.000,490.000 144.325,490.000 143.500 C 490.000 142.675,489.600 142.000,489.111 142.000 C 488.623 142.000,487.927 140.425,487.566 138.500 C 487.205 136.575,486.480 135.000,485.955 135.000 C 485.430 135.000,485.000 134.130,485.000 133.067 C 485.000 132.000,484.086 130.845,482.958 130.487 C 481.498 130.023,481.090 129.292,481.526 127.919 C 481.880 126.802,481.664 126.000,481.008 126.000 C 480.389 126.000,480.125 125.607,480.422 125.126 C 480.719 124.645,479.846 123.414,478.482 122.389 C 477.118 121.365,475.726 119.058,475.390 117.263 C 475.053 115.469,474.446 114.000,474.042 114.000 C 472.871 114.000,468.916 110.293,469.084 109.353 C 469.464 107.232,468.882 106.000,467.500 106.000 C 466.675 106.000,466.000 105.264,466.000 104.365 C 466.000 103.465,464.875 101.687,463.500 100.412 C 462.125 99.138,461.000 97.429,461.000 96.615 C 461.000 95.801,460.123 94.856,459.051 94.516 C 457.979 94.176,456.824 93.021,456.484 91.949 C 456.144 90.877,455.514 90.000,455.086 90.000 C 453.224 90.000,450.006 86.147,450.592 84.620 C 450.934 83.729,450.736 83.000,450.152 83.000 C 449.213 83.000,448.151 82.039,443.298 76.798 C 442.637 76.084,441.512 74.950,440.798 74.278 C 440.084 73.605,438.988 72.543,438.361 71.916 C 437.735 71.290,436.048 69.682,434.611 68.343 C 433.175 67.004,432.000 65.431,432.000 64.848 C 432.000 64.264,431.271 64.066,430.380 64.408 C 428.853 64.994,425.000 61.776,425.000 59.914 C 425.000 59.486,424.123 58.856,423.051 58.516 C 421.979 58.176,420.824 57.021,420.484 55.949 C 420.144 54.877,419.199 54.000,418.385 54.000 C 417.571 54.000,415.862 52.875,414.588 51.500 C 413.313 50.125,411.535 49.000,410.635 49.000 C 409.736 49.000,409.000 48.325,409.000 47.500 C 409.000 46.118,407.768 45.536,405.647 45.916 C 405.178 46.000,404.000 45.153,403.030 44.034 C 402.059 42.915,400.756 42.000,400.133 42.000 C 399.510 42.000,399.000 41.580,399.000 41.067 C 399.000 40.554,397.988 39.815,396.750 39.424 C 395.512 39.034,393.772 37.878,392.883 36.857 C 391.993 35.836,390.756 35.000,390.133 35.000 C 389.510 35.000,389.000 34.520,389.000 33.933 C 389.000 33.320,388.147 33.136,387.000 33.500 C 385.853 33.864,385.000 33.680,385.000 33.067 C 385.000 32.480,384.424 32.000,383.721 32.000 C 383.017 32.000,381.805 31.117,381.027 30.037 C 380.248 28.957,378.236 27.772,376.556 27.402 C 374.875 27.033,372.912 25.892,372.193 24.866 C 371.475 23.840,369.787 23.000,368.443 23.000 C 367.099 23.000,366.000 22.501,366.000 21.892 C 366.000 21.209,365.040 21.024,363.500 21.411 C 362.058 21.772,361.000 21.607,361.000 21.019 C 361.000 20.459,360.325 20.000,359.500 20.000 C 358.675 20.000,358.000 19.550,358.000 19.000 C 358.000 18.450,357.137 18.000,356.083 18.000 C 355.029 18.000,354.002 17.506,353.801 16.902 C 353.599 16.298,351.312 15.564,348.717 15.272 C 346.123 14.979,344.000 14.348,344.000 13.870 C 344.000 13.391,343.325 13.000,342.500 13.000 C 341.675 13.000,341.000 12.550,341.000 12.000 C 341.000 11.450,339.425 11.000,337.500 11.000 C 335.575 11.000,334.000 10.518,334.000 9.928 C 334.000 9.339,332.988 8.956,331.750 9.077 C 329.193 9.327,325.897 8.161,324.674 6.573 C 324.100 5.827,323.693 5.882,323.341 6.750 C 323.062 7.437,322.394 8.000,321.858 8.000 C 321.321 8.000,321.160 7.550,321.500 7.000 C 321.868 6.405,320.677 6.000,318.559 6.000 C 316.602 6.000,315.000 5.598,315.000 5.106 C 315.000 4.615,310.837 3.886,305.750 3.487 C 300.663 3.088,296.209 2.301,295.853 1.738 C 295.190 0.691,240.584 -0.144,226.250 0.674 M250.000 171.850 C 250.000 172.318,245.838 172.996,240.750 173.356 C 235.662 173.717,231.350 174.460,231.167 175.006 C 230.983 175.553,229.971 176.000,228.917 176.000 C 227.863 176.000,227.000 176.392,227.000 176.872 C 227.000 177.352,225.200 178.032,223.000 178.384 C 220.800 178.736,219.000 179.468,219.000 180.012 C 219.000 180.555,218.325 181.000,217.500 181.000 C 216.675 181.000,216.000 181.450,216.000 182.000 C 216.000 182.550,215.100 183.000,214.000 183.000 C 212.900 183.000,212.000 183.441,212.000 183.981 C 212.000 184.520,210.875 185.244,209.500 185.589 C 208.125 185.934,207.000 186.618,207.000 187.108 C 207.000 187.599,206.073 188.000,204.941 188.000 C 203.809 188.000,203.160 188.450,203.500 189.000 C 203.840 189.550,203.662 190.000,203.104 190.000 C 202.547 190.000,200.996 191.175,199.657 192.611 C 196.226 196.292,195.936 196.580,191.750 200.475 C 189.688 202.394,188.000 204.648,188.000 205.482 C 188.000 206.317,187.580 207.000,187.067 207.000 C 186.554 207.000,185.815 208.012,185.424 209.250 C 185.034 210.488,183.968 212.175,183.056 213.000 C 181.089 214.779,178.000 221.135,178.000 223.401 C 178.000 224.281,177.550 225.000,177.000 225.000 C 176.450 225.000,176.000 226.350,176.000 228.000 C 176.000 229.650,175.572 231.000,175.050 231.000 C 174.527 231.000,173.794 233.700,173.420 237.000 C 173.047 240.300,172.350 243.000,171.871 243.000 C 170.734 243.000,170.732 270.716,171.868 271.419 C 172.346 271.714,173.043 274.665,173.418 277.978 C 173.793 281.290,174.527 284.000,175.050 284.000 C 175.572 284.000,176.000 285.377,176.000 287.059 C 176.000 288.844,176.417 289.861,177.000 289.500 C 177.559 289.154,178.000 289.926,178.000 291.250 C 178.000 292.552,178.661 294.491,179.468 295.559 C 180.276 296.626,180.951 298.122,180.968 298.883 C 180.986 299.643,181.836 300.993,182.857 301.883 C 183.878 302.772,185.034 304.512,185.424 305.750 C 185.815 306.988,186.554 308.000,187.067 308.000 C 187.580 308.000,188.000 308.683,188.000 309.518 C 188.000 310.352,189.688 312.606,191.750 314.525 C 196.347 318.802,196.198 318.653,200.475 323.250 C 202.394 325.313,204.648 327.000,205.482 327.000 C 206.317 327.000,207.000 327.420,207.000 327.933 C 207.000 328.446,208.012 329.185,209.250 329.576 C 210.488 329.966,212.228 331.122,213.117 332.143 C 214.007 333.164,215.357 334.014,216.117 334.032 C 216.878 334.049,218.374 334.724,219.441 335.532 C 220.509 336.339,222.448 337.000,223.750 337.000 C 225.074 337.000,225.846 337.441,225.500 338.000 C 225.160 338.550,225.386 339.000,226.002 339.000 C 227.324 339.000,226.247 348.299,224.863 348.833 C 224.388 349.017,224.000 351.604,224.000 354.583 C 224.000 357.563,223.604 360.000,223.119 360.000 C 222.634 360.000,221.917 364.275,221.526 369.500 C 221.134 374.725,220.405 379.000,219.907 379.000 C 219.408 379.000,219.000 381.250,219.000 384.000 C 219.000 386.750,218.592 389.000,218.093 389.000 C 217.593 389.000,216.961 391.363,216.687 394.250 C 215.527 406.457,213.670 418.000,212.865 418.000 C 212.389 418.000,212.000 420.250,212.000 423.000 C 212.000 425.750,211.617 428.000,211.150 428.000 C 210.682 428.000,210.004 432.162,209.644 437.250 C 209.283 442.337,208.540 446.650,207.994 446.833 C 207.447 447.017,207.000 449.604,207.000 452.583 C 207.000 455.563,206.550 458.000,206.000 458.000 C 205.446 458.000,205.000 460.647,205.000 463.941 C 205.000 467.209,204.609 470.124,204.131 470.419 C 203.653 470.714,202.947 474.566,202.562 478.978 C 202.177 483.390,201.443 487.000,200.931 487.000 C 200.419 487.000,200.000 489.700,200.000 493.000 C 200.000 496.333,199.556 499.000,199.000 499.000 C 198.450 499.000,198.000 501.250,198.000 504.000 L 198.000 509.000 202.417 509.000 C 204.846 509.000,206.983 509.446,207.167 509.990 C 207.350 510.535,210.425 511.278,214.000 511.643 C 217.575 512.007,220.821 512.799,221.213 513.403 C 222.223 514.956,292.786 514.945,293.786 513.391 C 294.179 512.781,297.828 511.960,301.896 511.566 C 305.964 511.172,309.860 510.283,310.553 509.590 C 311.978 508.165,312.286 494.705,310.873 495.579 C 310.393 495.875,310.000 493.616,310.000 490.559 C 310.000 487.502,309.550 485.000,309.000 485.000 C 308.450 485.000,308.000 482.750,308.000 480.000 C 308.000 477.250,307.599 475.000,307.109 475.000 C 306.619 475.000,305.895 470.050,305.500 464.000 C 305.105 457.950,304.381 453.000,303.891 453.000 C 303.401 453.000,303.000 450.975,303.000 448.500 C 303.000 446.025,302.550 444.000,302.000 444.000 C 301.444 444.000,301.000 441.333,301.000 438.000 C 301.000 434.700,300.659 432.000,300.243 432.000 C 299.826 432.000,299.650 429.934,299.851 427.408 C 300.052 424.876,299.719 422.319,299.108 421.708 C 298.499 421.099,298.000 418.215,298.000 415.300 C 298.000 412.385,297.550 410.000,297.000 410.000 C 296.450 410.000,296.000 407.975,296.000 405.500 C 296.000 403.025,295.600 401.000,295.111 401.000 C 294.621 401.000,293.897 395.600,293.500 389.000 C 293.103 382.400,292.379 377.000,291.889 377.000 C 291.400 377.000,291.000 374.975,291.000 372.500 C 291.000 370.025,290.550 368.000,290.000 368.000 C 289.450 368.000,289.000 365.777,289.000 363.059 C 289.000 360.341,288.624 357.886,288.164 357.601 C 287.705 357.317,287.535 354.591,287.788 351.542 C 288.096 347.834,287.876 346.000,287.124 346.000 C 286.506 346.000,286.000 344.425,286.000 342.500 C 286.000 339.433,286.310 339.000,288.500 339.000 C 289.875 339.000,291.000 338.570,291.000 338.045 C 291.000 337.520,292.575 336.795,294.500 336.434 C 296.425 336.073,298.000 335.377,298.000 334.889 C 298.000 334.400,298.576 334.000,299.279 334.000 C 299.983 334.000,301.190 333.124,301.961 332.054 C 302.733 330.983,303.664 330.292,304.031 330.519 C 304.397 330.746,305.646 330.046,306.807 328.965 C 307.967 327.884,309.637 327.000,310.517 327.000 C 311.398 327.000,311.840 326.550,311.500 326.000 C 311.160 325.450,311.338 325.000,311.896 325.000 C 312.453 325.000,314.004 323.825,315.343 322.389 C 318.376 319.135,319.135 318.376,322.389 315.343 C 323.825 314.004,325.000 312.453,325.000 311.896 C 325.000 311.338,325.450 311.160,326.000 311.500 C 326.550 311.840,327.000 311.191,327.000 310.059 C 327.000 308.927,327.401 308.000,327.892 308.000 C 328.382 308.000,329.066 306.875,329.411 305.500 C 329.756 304.125,330.480 303.000,331.019 303.000 C 331.559 303.000,332.000 302.100,332.000 301.000 C 332.000 299.900,332.450 299.000,333.000 299.000 C 333.550 299.000,334.000 298.325,334.000 297.500 C 334.000 296.675,334.430 296.000,334.955 296.000 C 335.480 296.000,336.205 294.425,336.566 292.500 C 336.927 290.575,337.623 289.000,338.111 289.000 C 338.600 289.000,339.000 287.913,339.000 286.583 C 339.000 285.254,339.432 284.017,339.960 283.833 C 340.488 283.650,341.227 279.788,341.604 275.250 C 341.980 270.712,342.673 267.000,343.144 267.000 C 343.615 267.000,344.000 262.725,344.000 257.500 C 344.000 252.275,343.615 248.000,343.144 248.000 C 342.673 248.000,341.980 244.287,341.604 239.750 C 341.227 235.213,340.488 231.350,339.960 231.167 C 339.432 230.983,339.000 229.746,339.000 228.417 C 339.000 227.088,338.600 226.000,338.111 226.000 C 337.623 226.000,336.927 224.425,336.566 222.500 C 336.205 220.575,335.480 219.000,334.955 219.000 C 334.430 219.000,334.000 218.325,334.000 217.500 C 334.000 216.675,333.550 216.000,333.000 216.000 C 332.450 216.000,332.000 215.100,332.000 214.000 C 332.000 212.900,331.580 212.000,331.067 212.000 C 330.554 212.000,329.826 211.026,329.448 209.835 C 329.070 208.644,327.689 206.598,326.380 205.289 C 325.071 203.980,324.000 202.354,324.000 201.675 C 324.000 200.997,323.045 199.780,321.877 198.971 C 319.203 197.117,317.883 195.797,316.029 193.123 C 315.220 191.955,314.003 191.000,313.325 191.000 C 312.646 191.000,311.020 189.929,309.711 188.620 C 308.402 187.311,306.356 185.930,305.165 185.552 C 303.974 185.174,303.000 184.446,303.000 183.933 C 303.000 183.420,302.100 183.000,301.000 183.000 C 299.900 183.000,299.000 182.550,299.000 182.000 C 299.000 181.450,298.325 181.000,297.500 181.000 C 296.675 181.000,296.000 180.570,296.000 180.045 C 296.000 179.520,294.425 178.795,292.500 178.434 C 290.575 178.073,289.000 177.377,289.000 176.889 C 289.000 176.400,287.913 176.000,286.583 176.000 C 285.254 176.000,284.017 175.553,283.833 175.006 C 283.650 174.460,279.337 173.717,274.250 173.356 C 269.163 172.996,265.000 172.318,265.000 171.850 C 265.000 171.383,261.625 171.000,257.500 171.000 C 253.375 171.000,250.000 171.383,250.000 171.850 " stroke="none" fill-rule="evenodd"></path>
</g>
</svg>