<svg id="svg" version="1.1" width="400" height="400" xmlns="http://www.w3.org/2000/svg" xmlns:xlink="http://www.w3.org/1999/xlink" style="display: block;"><g id="svgg"><path id="path0" d="M168.000 23.566 C 156.637 25.539,144.237 28.660,138.500 30.992 C 134.383 32.666,124.481 36.474,124.000 36.569 C 123.725 36.623,122.150 37.265,120.500 37.995 C 118.850 38.726,117.162 39.250,116.750 39.161 C 116.338 39.073,116.000 39.410,116.000 39.911 C 116.000 40.947,106.934 45.597,105.676 45.206 C 105.222 45.066,105.136 45.412,105.485 45.975 C 106.053 46.895,104.761 47.436,102.750 47.118 C 102.338 47.053,102.000 47.383,102.000 47.851 C 102.000 48.994,91.765 55.451,90.500 55.106 C 89.950 54.956,89.822 55.156,90.216 55.549 C 90.949 56.282,86.870 60.000,85.333 60.000 C 84.864 60.000,83.908 60.917,83.208 62.039 C 82.508 63.160,81.488 63.802,80.943 63.464 C 80.397 63.127,80.044 63.222,80.159 63.676 C 80.455 64.848,63.117 81.767,62.330 81.074 C 61.972 80.758,61.981 81.026,62.349 81.670 C 62.718 82.313,62.002 83.663,60.760 84.670 C 59.517 85.676,57.862 87.737,57.082 89.248 C 56.302 90.760,55.451 91.785,55.192 91.525 C 54.932 91.265,53.835 92.728,52.754 94.776 C 51.674 96.824,49.993 99.400,49.021 100.500 C 46.307 103.569,31.540 131.000,32.602 131.000 C 32.860 131.000,32.514 132.012,31.833 133.250 C 31.153 134.488,30.516 135.950,30.417 136.500 C 30.319 137.050,29.465 139.975,28.519 143.000 C 18.254 175.841,17.237 206.687,25.304 240.500 C 26.694 246.325,30.246 257.441,32.014 261.500 C 32.494 262.600,34.053 266.137,35.479 269.359 C 36.906 272.582,38.169 275.732,38.286 276.359 C 38.404 276.987,38.749 277.725,39.053 278.000 C 40.637 279.433,43.884 285.783,43.320 286.347 C 42.961 286.706,43.128 287.000,43.691 287.000 C 44.255 287.000,46.448 289.813,48.564 293.250 C 50.681 296.688,53.220 300.372,54.206 301.439 C 55.193 302.505,56.000 303.722,56.000 304.143 C 56.000 304.564,57.012 306.019,58.250 307.375 C 65.421 315.235,67.000 317.158,67.000 318.031 C 67.000 318.564,67.338 318.888,67.750 318.750 C 68.162 318.613,68.579 318.928,68.676 319.450 C 68.773 319.973,69.814 320.757,70.990 321.192 C 72.166 321.627,72.841 322.448,72.490 323.016 C 72.139 323.585,72.427 323.926,73.130 323.775 C 73.834 323.624,74.430 324.063,74.455 324.750 C 74.480 325.438,74.921 326.113,75.436 326.250 C 76.403 326.508,81.616 330.809,85.738 334.750 C 87.032 335.988,88.436 337.000,88.857 337.000 C 89.278 337.000,90.495 337.798,91.561 338.774 C 92.628 339.750,95.637 341.887,98.248 343.524 C 100.860 345.161,102.997 346.864,102.998 347.309 C 102.999 347.754,103.422 347.857,103.939 347.538 C 104.455 347.219,105.323 347.755,105.868 348.729 C 106.413 349.703,107.121 350.376,107.442 350.225 C 107.762 350.074,112.856 352.261,118.762 355.084 C 136.427 363.527,144.515 366.263,163.000 370.049 C 179.649 373.458,211.877 373.656,226.500 370.439 C 230.350 369.592,235.525 368.468,238.000 367.941 C 240.475 367.413,246.775 365.543,252.000 363.783 C 257.225 362.024,261.794 360.663,262.154 360.760 C 262.514 360.857,263.356 360.275,264.027 359.468 C 264.697 358.661,265.717 358.000,266.293 358.000 C 267.667 358.000,279.465 352.291,284.250 349.310 C 286.313 348.026,288.000 347.206,288.000 347.487 C 288.000 347.769,288.844 347.212,289.875 346.250 C 290.905 345.287,294.749 342.475,298.416 340.000 C 302.083 337.525,306.527 334.190,308.291 332.589 C 315.278 326.250,326.163 315.607,327.299 314.003 C 327.959 313.071,329.971 310.551,331.770 308.404 C 337.373 301.714,341.000 296.763,341.000 295.803 C 341.000 295.297,341.520 295.203,342.155 295.595 C 342.839 296.018,343.039 295.872,342.645 295.235 C 342.280 294.644,342.756 293.387,343.703 292.440 C 344.649 291.493,345.524 290.040,345.646 289.210 C 345.767 288.379,346.286 287.430,346.799 287.100 C 347.311 286.770,348.048 285.481,348.437 284.235 C 348.826 282.990,349.487 282.183,349.905 282.441 C 350.324 282.700,350.678 282.369,350.692 281.706 C 350.706 281.043,352.516 276.675,354.713 272.000 C 361.286 258.013,365.228 246.278,367.981 232.500 C 368.640 229.200,369.666 224.250,370.261 221.500 C 371.762 214.554,371.657 181.088,370.107 172.500 C 368.280 162.380,365.960 152.138,364.383 147.232 C 363.629 144.885,363.083 142.635,363.170 142.232 C 363.256 141.830,362.340 139.294,361.134 136.599 C 359.928 133.903,358.821 130.909,358.674 129.946 C 358.527 128.983,357.935 127.589,357.358 126.848 C 356.781 126.106,354.815 122.350,352.990 118.500 C 349.598 111.347,337.505 92.091,335.571 90.765 C 334.982 90.361,334.817 90.024,335.205 90.015 C 335.592 90.007,334.773 88.763,333.385 87.250 C 331.996 85.737,330.104 83.668,329.180 82.650 C 328.256 81.633,327.612 80.395,327.750 79.900 C 327.887 79.405,327.474 79.000,326.830 79.000 C 325.481 79.000,314.588 67.876,314.835 66.750 C 314.926 66.338,314.453 66.000,313.785 66.000 C 313.117 66.000,311.655 65.097,310.535 63.992 C 305.195 58.725,282.279 43.000,279.942 43.000 C 279.424 43.000,279.000 42.550,279.000 42.000 C 279.000 41.450,278.663 41.088,278.250 41.196 C 277.837 41.304,274.543 39.982,270.928 38.260 C 267.313 36.537,263.154 34.826,261.685 34.457 C 260.184 34.080,259.298 33.327,259.661 32.739 C 260.030 32.143,259.830 31.987,259.199 32.377 C 258.588 32.755,256.386 32.353,254.306 31.483 C 252.226 30.614,248.943 29.500,247.012 29.008 C 245.080 28.516,241.700 27.626,239.500 27.031 C 221.289 22.102,186.224 20.402,168.000 23.566 M212.201 70.439 C 223.718 73.566,233.000 77.436,233.000 79.110 C 233.000 79.600,233.389 79.888,233.863 79.750 C 235.300 79.334,245.955 87.396,245.978 88.917 C 245.990 89.696,246.309 90.024,246.687 89.646 C 247.593 88.741,255.074 96.070,254.384 97.187 C 254.091 97.662,254.270 97.926,254.782 97.775 C 255.780 97.480,263.789 107.090,264.233 109.116 C 264.380 109.785,265.304 111.175,266.286 112.203 C 267.269 113.232,267.762 114.576,267.382 115.191 C 266.962 115.871,267.144 116.029,267.845 115.595 C 268.876 114.958,269.449 116.153,269.118 118.250 C 269.053 118.662,269.444 119.000,269.987 119.000 C 270.935 119.000,274.306 125.439,274.437 127.500 C 274.471 128.050,274.857 128.764,275.294 129.086 C 276.556 130.018,284.015 152.616,285.633 160.412 C 291.130 186.886,290.232 224.645,283.705 241.500 C 283.067 243.150,282.534 244.950,282.522 245.500 C 282.458 248.410,276.535 263.830,275.683 263.304 C 275.137 262.967,274.975 263.151,275.323 263.713 C 275.956 264.737,270.430 276.190,265.651 283.761 C 259.501 293.503,243.634 310.510,241.770 309.358 C 241.347 309.096,241.000 309.328,241.000 309.873 C 241.000 311.006,235.556 315.095,233.682 315.370 C 232.997 315.471,231.100 316.473,229.468 317.598 C 223.184 321.927,207.287 326.039,197.185 325.950 C 190.180 325.887,174.709 322.626,174.202 321.105 C 173.997 320.490,173.451 320.221,172.990 320.506 C 171.930 321.161,167.000 318.966,167.000 317.839 C 167.000 317.378,166.662 317.079,166.250 317.175 C 161.402 318.303,130.412 290.379,132.594 286.848 C 132.882 286.382,132.705 286.000,132.201 286.000 C 130.565 286.000,118.497 264.441,117.586 259.891 C 117.433 259.126,116.751 257.150,116.070 255.500 C 107.498 234.716,103.450 192.409,107.842 169.500 C 109.634 160.151,114.078 142.749,114.992 141.500 C 115.395 140.950,116.047 139.153,116.443 137.506 C 116.838 135.859,117.667 133.901,118.287 133.155 C 118.906 132.409,119.493 131.247,119.592 130.572 C 119.956 128.093,126.239 116.000,127.164 116.000 C 127.689 116.000,127.882 115.618,127.594 115.151 C 127.305 114.685,127.841 113.447,128.785 112.401 C 129.728 111.356,131.170 109.204,131.988 107.621 C 132.807 106.037,135.169 102.944,137.238 100.747 C 139.307 98.550,141.000 96.332,141.000 95.817 C 141.000 95.303,141.370 95.110,141.822 95.390 C 142.741 95.958,146.000 92.525,146.000 90.989 C 146.000 90.445,146.567 90.000,147.259 90.000 C 147.952 90.000,149.087 89.091,149.780 87.980 C 151.226 85.666,162.647 78.122,169.282 75.099 C 182.039 69.288,200.557 67.277,212.201 70.439 " stroke="none" fill="#000000" fill-rule="evenodd"></path></g></svg>