<?xml version="1.0" encoding="UTF-8" standalone="no"?>
<!DOCTYPE svg PUBLIC "-//W3C//DTD SVG 1.1//EN" "http://www.w3.org/Graphics/SVG/1.1/DTD/svg11.dtd">
<svg width="100%" height="100%" viewBox="0 0 400 400" version="1.1" xmlns="http://www.w3.org/2000/svg" xmlns:xlink="http://www.w3.org/1999/xlink" xml:space="preserve" xmlns:serif="http://www.serif.com/" style="fill-rule:evenodd;clip-rule:evenodd;stroke-linejoin:round;stroke-miterlimit:2;">
    <g id="svgg">
        <path id="path0" d="M0,115.376C0,162.593 -8.941,215.476 7.587,261.671C19.837,295.908 39.588,325.578 65.737,350.8C85.115,369.491 109.767,382.374 135.006,391.2C156.492,398.714 177.179,399.615 200,400C210.392,400.175 230.497,400.579 243.166,398.145C314.956,384.348 376.662,322.666 395.226,252.865C399.985,234.973 400.246,218.327 400,200C399.861,189.667 399.999,179.326 399.6,169C399.057,154.944 393.667,141.066 388.8,128.149C380.119,105.107 367.958,83.564 350.8,65.719C328.873,42.914 303.264,23.809 273.855,11.8C223.955,-8.577 167.209,0 115.376,0L0,0L0,115.376M95.057,147.4C99.228,148.638 103.507,149.75 107.345,151.8C123.535,160.446 136.946,178.238 137.8,196.943C138.379,209.615 136.302,222.616 129.6,233.526C118.015,252.386 94.035,263.181 72.224,259.739C56.987,257.334 45.34,247.955 35.2,236.795C13.899,213.352 22.704,172.132 48.591,156.01C57.467,150.482 64.223,147.893 74.084,146.215M203.2,146.2C204.533,147.807 209.927,147.774 212.036,148.8C219.316,152.343 225.028,157.864 229.681,164.46C246.228,187.914 226.639,218.4 199.951,218.4L194,218.4L194,191.6L196.339,191.6C198.982,191.6 200.559,190.951 202.605,189.021L204,187.706L204,183.328C204,176.216 201.896,174.4 195.034,174.4L190.167,174.4L188.483,176.115C184.959,187.431 185.6,204.857 185.6,219.276L185.6,258L155.6,258L155.6,218.043C155.6,195.848 151.328,176.934 164.8,159.798C169.94,153.26 181.444,146.548 190.084,146.215C194.453,146.047 200.409,142.835 203.2,146.2M324.4,162.4L324.4,176.8L311.88,176.8C296.009,176.183 298.4,190.697 298.4,217.88L298.4,258L268.4,258L268.4,217.88C268.4,190.697 272.024,177.211 254.92,176.8L242.4,176.8L242.4,148L324.4,148L324.4,162.4M369.6,203L369.6,258L339.2,258L339.2,148L369.6,148L369.6,203M70,177.4C67.588,178.762 65.241,180.275 63.109,182.044C57.353,186.821 53.813,195.402 54,202.82C54.244,212.484 59.332,220.787 66.708,226.8C68.594,228.338 71.545,229.172 73.868,229.477C83.247,230.71 92.996,229.909 100.021,222.857C110.57,212.268 109.818,192.663 99.43,182.195C94.314,177.039 88.047,176.134 81.18,175.6"/>
    </g>
</svg>
