<?xml version="1.0" encoding="UTF-8" standalone="no"?>
<svg
   xmlns:dc="http://purl.org/dc/elements/1.1/"
   xmlns:cc="http://creativecommons.org/ns#"
   xmlns:rdf="http://www.w3.org/1999/02/22-rdf-syntax-ns#"
   xmlns:svg="http://www.w3.org/2000/svg"
   xmlns="http://www.w3.org/2000/svg"
   xmlns:sodipodi="http://sodipodi.sourceforge.net/DTD/sodipodi-0.dtd"
   xmlns:inkscape="http://www.inkscape.org/namespaces/inkscape"
   id="svg"
   version="1.1"
   width="400"
   height="400"
   viewBox="0 0 400 400"
   sodipodi:docname="image2vector (34).svg"
   inkscape:version="0.92.2 (5c3e80d, 2017-08-06)">
  <metadata
     id="metadata10">
    <rdf:RDF>
      <cc:Work
         rdf:about="">
        <dc:format>image/svg+xml</dc:format>
        <dc:type
           rdf:resource="http://purl.org/dc/dcmitype/StillImage" />
      </cc:Work>
    </rdf:RDF>
  </metadata>
  <defs
     id="defs8" />
  <sodipodi:namedview
     pagecolor="#ffffff"
     bordercolor="#666666"
     borderopacity="1"
     objecttolerance="10"
     gridtolerance="10"
     guidetolerance="10"
     inkscape:pageopacity="0"
     inkscape:pageshadow="2"
     inkscape:window-width="1920"
     inkscape:window-height="1027"
     id="namedview6"
     showgrid="false"
     inkscape:zoom="1.18"
     inkscape:cx="107.72263"
     inkscape:cy="195.83076"
     inkscape:window-x="1912"
     inkscape:window-y="-8"
     inkscape:window-maximized="1"
     inkscape:current-layer="svg" />
  <g
     id="svgg"
     transform="translate(-9.3220339,-0.84745763)">
    <path
       id="path0"
       d="m 25.262,173.177 c 0.114,35.525 0.117,35.625 0.894,39.064 6.763,29.944 30.531,48.992 61.085,48.955 27.482,-0.033 50.066,-16.016 58.642,-41.499 l 1.348,-4.007 0.005,22.893 0.005,22.894 6.293,-0.2 c 48.68,-1.549 83.528,-38.189 72.504,-76.232 -7.748,-26.737 -40.307,-47.459 -74.57,-47.459 h -4.227 l -0.005,22.845 -0.005,22.845 -1.348,-4.008 c -6.067,-18.028 -20.662,-32.616 -38.605,-38.588 -9.207,-3.064 -6.276,-2.875 -46.514,-3.004 l -35.616,-0.114 0.114,35.615 m 201.29,-26.625 v 8.965 H 245 263.448 v 44.138 44.138 H 245 226.552 v 8.966 8.965 H 313.276 400 V 225 188.276 h -32.931 -32.931 v -16.379 -16.38 H 367.069 400 v -8.965 -8.966 h -86.724 -86.724 v 8.966 m 90,34.138 v 25.172 h 33.103 33.104 v 18.966 18.965 h -50.862 -50.863 v -44.138 -44.138 h 17.759 17.759 v 25.173 m -262.69,2.795 c 13.51,2.817 18.404,19.298 8.592,28.936 -15.5,15.226 -39.102,-7.253 -24.455,-23.293 4.267,-4.673 10.272,-6.81 15.863,-5.643 m 36.617,0.763 c 10.822,4.955 8.079,20.58 -3.613,20.58 h -1.349 v -3.794 c 0,-3.717 0.016,-3.793 0.786,-3.793 1.6,0 2.318,-0.906 2.318,-2.926 0,-2.463 -0.501,-2.936 -3.109,-2.936 -3.224,0 -3.098,-0.549 -3.098,13.525 v 11.993 h -4.327 -4.326 l 0.102,-12.328 0.103,-12.328 0.893,-1.896 c 2.78,-5.901 9.941,-8.696 15.62,-6.097 m 34.349,3.683 v 4.138 h -3.966 -3.965 v 12.414 12.414 h -4.311 -4.31 v -12.414 -12.414 h -3.966 -3.965 v -4.138 -4.138 h 12.241 12.242 v 4.138 m 13.793,12.414 v 16.552 H 134.31 130 v -16.552 -16.552 h 4.31 4.311 v 16.552 m -91.897,-7.984 c -6.012,2.857 -6.116,12.787 -0.167,15.849 7.66,3.942 15.528,-4.575 11.445,-12.389 -1.943,-3.719 -7.285,-5.358 -11.278,-3.46"
       inkscape:connector-curvature="0"
       style="fill:#000000;fill-rule:evenodd;stroke:none" />
    <path
       id="path1"
       d="m 25.262,173.177 c 0.114,35.525 0.117,35.625 0.894,39.064 6.763,29.944 30.531,48.992 61.085,48.955 27.482,-0.033 50.066,-16.016 58.642,-41.499 l 1.348,-4.007 0.005,22.893 0.005,22.894 6.293,-0.2 c 48.68,-1.549 83.528,-38.189 72.504,-76.232 -7.748,-26.737 -40.307,-47.459 -74.57,-47.459 h -4.227 l -0.005,22.845 -0.005,22.845 -1.348,-4.008 c -6.067,-18.028 -20.662,-32.616 -38.605,-38.588 -9.207,-3.064 -6.276,-2.875 -46.514,-3.004 l -35.616,-0.114 0.114,35.615 m 201.29,-26.625 v 8.965 H 245 263.448 v 44.138 44.138 H 245 226.552 v 8.966 8.965 H 313.276 400 V 225 188.276 h -32.931 -32.931 v -16.379 -16.38 H 367.069 400 v -8.965 -8.966 h -86.724 -86.724 v 8.966 m 90,34.138 v 25.172 h 33.103 33.104 v 18.966 18.965 h -50.862 -50.863 v -44.138 -44.138 h 17.759 17.759 v 25.173 m -262.69,2.795 c 13.51,2.817 18.404,19.298 8.592,28.936 -15.5,15.226 -39.102,-7.253 -24.455,-23.293 4.267,-4.673 10.272,-6.81 15.863,-5.643 m 36.617,0.763 c 10.822,4.955 8.079,20.58 -3.613,20.58 h -1.349 v -3.794 c 0,-3.717 0.016,-3.793 0.786,-3.793 1.6,0 2.318,-0.906 2.318,-2.926 0,-2.463 -0.501,-2.936 -3.109,-2.936 -3.224,0 -3.098,-0.549 -3.098,13.525 v 11.993 h -4.327 -4.326 l 0.102,-12.328 0.103,-12.328 0.893,-1.896 c 2.78,-5.901 9.941,-8.696 15.62,-6.097 m 34.349,3.683 v 4.138 h -3.966 -3.965 v 12.414 12.414 h -4.311 -4.31 v -12.414 -12.414 h -3.966 -3.965 v -4.138 -4.138 h 12.241 12.242 v 4.138 m 13.793,12.414 v 16.552 H 134.31 130 v -16.552 -16.552 h 4.31 4.311 v 16.552 m -91.897,-7.984 c -6.012,2.857 -6.116,12.787 -0.167,15.849 7.66,3.942 15.528,-4.575 11.445,-12.389 -1.943,-3.719 -7.285,-5.358 -11.278,-3.46"
       inkscape:connector-curvature="0"
       style="fill:#000000;fill-rule:evenodd;stroke:none" />
  </g>
</svg>
