<svg id="svg" version="1.1" width="400" height="400" xmlns="http://www.w3.org/2000/svg" xmlns:xlink="http://www.w3.org/1999/xlink" style="display: block;"><g id="svgg"><path id="path0" d="M132.000 109.500 C 132.000 110.679,130.611 111.000,125.500 111.000 C 121.833 111.000,119.000 111.436,119.000 112.000 C 119.000 112.550,117.650 113.000,116.000 113.000 C 114.000 113.000,113.000 113.500,113.000 114.500 C 113.000 115.583,111.889 116.000,109.000 116.000 C 106.111 116.000,105.000 116.417,105.000 117.500 C 105.000 118.433,104.056 119.000,102.500 119.000 C 101.125 119.000,100.000 119.450,100.000 120.000 C 100.000 120.550,99.325 121.000,98.500 121.000 C 97.675 121.000,97.000 121.675,97.000 122.500 C 97.000 123.433,96.056 124.000,94.500 124.000 C 92.944 124.000,92.000 124.567,92.000 125.500 C 92.000 126.325,91.518 127.000,90.929 127.000 C 89.544 127.000,87.000 129.544,87.000 130.929 C 87.000 131.518,85.650 132.000,84.000 132.000 C 82.350 132.000,81.000 132.482,81.000 133.071 C 81.000 134.456,78.456 137.000,77.071 137.000 C 76.482 137.000,76.000 138.350,76.000 140.000 C 76.000 141.650,75.518 143.000,74.929 143.000 C 73.544 143.000,71.000 145.544,71.000 146.929 C 71.000 147.518,70.325 148.000,69.500 148.000 C 68.567 148.000,68.000 148.944,68.000 150.500 C 68.000 152.056,67.433 153.000,66.500 153.000 C 65.675 153.000,65.000 153.675,65.000 154.500 C 65.000 155.325,64.550 156.000,64.000 156.000 C 63.450 156.000,63.000 157.125,63.000 158.500 C 63.000 160.056,62.433 161.000,61.500 161.000 C 60.417 161.000,60.000 162.111,60.000 165.000 C 60.000 167.889,59.583 169.000,58.500 169.000 C 57.417 169.000,57.000 170.111,57.000 173.000 C 57.000 175.200,56.550 177.000,56.000 177.000 C 55.450 177.000,55.000 179.475,55.000 182.500 C 55.000 186.722,54.652 188.000,53.500 188.000 C 52.229 188.000,52.000 190.444,52.000 204.000 C 52.000 217.556,52.229 220.000,53.500 220.000 C 54.652 220.000,55.000 221.278,55.000 225.500 C 55.000 228.525,55.450 231.000,56.000 231.000 C 56.550 231.000,57.000 232.800,57.000 235.000 C 57.000 237.889,57.417 239.000,58.500 239.000 C 59.583 239.000,60.000 240.111,60.000 243.000 C 60.000 245.200,60.482 247.000,61.071 247.000 C 62.980 247.000,65.000 249.792,65.000 252.429 C 65.000 254.048,65.556 255.000,66.500 255.000 C 67.433 255.000,68.000 255.944,68.000 257.500 C 68.000 259.056,68.567 260.000,69.500 260.000 C 70.325 260.000,71.000 260.482,71.000 261.071 C 71.000 262.456,73.544 265.000,74.929 265.000 C 75.518 265.000,76.000 265.675,76.000 266.500 C 76.000 267.325,76.675 268.000,77.500 268.000 C 78.325 268.000,79.000 268.482,79.000 269.071 C 79.000 270.456,81.544 273.000,82.929 273.000 C 83.518 273.000,84.000 273.675,84.000 274.500 C 84.000 275.325,84.675 276.000,85.500 276.000 C 86.325 276.000,87.000 276.482,87.000 277.071 C 87.000 278.456,89.544 281.000,90.929 281.000 C 91.518 281.000,92.000 281.675,92.000 282.500 C 92.000 283.433,92.944 284.000,94.500 284.000 C 96.056 284.000,97.000 284.567,97.000 285.500 C 97.000 286.500,98.000 287.000,100.000 287.000 C 101.650 287.000,103.000 287.450,103.000 288.000 C 103.000 288.550,104.125 289.000,105.500 289.000 C 107.056 289.000,108.000 289.567,108.000 290.500 C 108.000 291.433,108.944 292.000,110.500 292.000 C 112.056 292.000,113.000 292.567,113.000 293.500 C 113.000 294.583,114.111 295.000,117.000 295.000 C 119.200 295.000,121.000 295.450,121.000 296.000 C 121.000 296.571,124.000 297.000,128.000 297.000 C 133.556 297.000,135.000 297.310,135.000 298.500 C 135.000 299.819,143.333 300.000,204.000 300.000 C 264.667 300.000,273.000 299.819,273.000 298.500 C 273.000 297.310,274.444 297.000,280.000 297.000 C 284.000 297.000,287.000 296.571,287.000 296.000 C 287.000 295.450,288.800 295.000,291.000 295.000 C 293.889 295.000,295.000 294.583,295.000 293.500 C 295.000 292.567,295.944 292.000,297.500 292.000 C 299.056 292.000,300.000 291.433,300.000 290.500 C 300.000 289.567,300.944 289.000,302.500 289.000 C 303.875 289.000,305.000 288.550,305.000 288.000 C 305.000 287.450,306.350 287.000,308.000 287.000 C 310.000 287.000,311.000 286.500,311.000 285.500 C 311.000 284.567,311.944 284.000,313.500 284.000 C 315.056 284.000,316.000 283.433,316.000 282.500 C 316.000 281.675,316.482 281.000,317.071 281.000 C 318.456 281.000,321.000 278.456,321.000 277.071 C 321.000 276.482,321.675 276.000,322.500 276.000 C 323.325 276.000,324.000 275.325,324.000 274.500 C 324.000 273.567,324.944 273.000,326.500 273.000 C 327.875 273.000,329.000 272.550,329.000 272.000 C 329.000 271.450,329.675 271.000,330.500 271.000 C 331.500 271.000,332.000 270.000,332.000 268.000 C 332.000 266.350,332.482 265.000,333.071 265.000 C 334.456 265.000,337.000 262.456,337.000 261.071 C 337.000 260.482,337.675 260.000,338.500 260.000 C 339.433 260.000,340.000 259.056,340.000 257.500 C 340.000 255.944,340.567 255.000,341.500 255.000 C 342.325 255.000,343.000 254.325,343.000 253.500 C 343.000 252.675,343.450 252.000,344.000 252.000 C 344.550 252.000,345.000 250.875,345.000 249.500 C 345.000 247.944,345.567 247.000,346.500 247.000 C 347.500 247.000,348.000 246.000,348.000 244.000 C 348.000 242.000,348.500 241.000,349.500 241.000 C 350.583 241.000,351.000 239.889,351.000 237.000 C 351.000 234.800,351.450 233.000,352.000 233.000 C 352.550 233.000,353.000 230.750,353.000 228.000 C 353.000 224.222,353.367 223.000,354.500 223.000 C 355.781 223.000,356.000 220.222,356.000 204.000 C 356.000 187.778,355.781 185.000,354.500 185.000 C 353.367 185.000,353.000 183.778,353.000 180.000 C 353.000 177.250,352.550 175.000,352.000 175.000 C 351.450 175.000,351.000 173.200,351.000 171.000 C 351.000 168.111,350.583 167.000,349.500 167.000 C 348.500 167.000,348.000 166.000,348.000 164.000 C 348.000 162.000,347.500 161.000,346.500 161.000 C 345.567 161.000,345.000 160.056,345.000 158.500 C 345.000 157.125,344.550 156.000,344.000 156.000 C 343.450 156.000,343.000 154.875,343.000 153.500 C 343.000 151.944,342.433 151.000,341.500 151.000 C 340.675 151.000,340.000 150.325,340.000 149.500 C 340.000 148.675,339.325 148.000,338.500 148.000 C 337.675 148.000,337.000 147.325,337.000 146.500 C 337.000 145.675,336.550 145.000,336.000 145.000 C 335.450 145.000,335.000 143.875,335.000 142.500 C 335.000 140.944,334.433 140.000,333.500 140.000 C 332.675 140.000,332.000 139.325,332.000 138.500 C 332.000 137.675,331.518 137.000,330.929 137.000 C 329.544 137.000,327.000 134.456,327.000 133.071 C 327.000 132.482,326.325 132.000,325.500 132.000 C 324.675 132.000,324.000 131.325,324.000 130.500 C 324.000 129.567,323.056 129.000,321.500 129.000 C 320.125 129.000,319.000 128.550,319.000 128.000 C 319.000 127.450,318.325 127.000,317.500 127.000 C 316.675 127.000,316.000 126.325,316.000 125.500 C 316.000 124.567,315.056 124.000,313.500 124.000 C 311.944 124.000,311.000 123.433,311.000 122.500 C 311.000 121.675,310.325 121.000,309.500 121.000 C 308.675 121.000,308.000 120.550,308.000 120.000 C 308.000 119.450,306.875 119.000,305.500 119.000 C 303.944 119.000,303.000 118.433,303.000 117.500 C 303.000 116.500,302.000 116.000,300.000 116.000 C 298.000 116.000,297.000 115.500,297.000 114.500 C 297.000 113.417,295.889 113.000,293.000 113.000 C 290.800 113.000,289.000 112.550,289.000 112.000 C 289.000 111.450,286.750 111.000,284.000 111.000 C 280.222 111.000,279.000 110.633,279.000 109.500 C 279.000 108.180,270.167 108.000,205.500 108.000 C 140.833 108.000,132.000 108.180,132.000 109.500 M273.000 146.500 C 273.000 147.583,274.111 148.000,277.000 148.000 C 279.889 148.000,281.000 148.417,281.000 149.500 C 281.000 150.444,281.952 151.000,283.571 151.000 C 286.208 151.000,289.000 153.020,289.000 154.929 C 289.000 155.518,290.350 156.000,292.000 156.000 C 293.650 156.000,295.000 156.482,295.000 157.071 C 295.000 158.456,297.544 161.000,298.929 161.000 C 299.518 161.000,300.000 161.675,300.000 162.500 C 300.000 163.325,300.675 164.000,301.500 164.000 C 302.325 164.000,303.000 164.675,303.000 165.500 C 303.000 166.325,303.450 167.000,304.000 167.000 C 304.550 167.000,305.000 168.125,305.000 169.500 C 305.000 171.056,305.567 172.000,306.500 172.000 C 307.325 172.000,308.000 172.675,308.000 173.500 C 308.000 174.325,308.675 175.000,309.500 175.000 C 310.433 175.000,311.000 175.944,311.000 177.500 C 311.000 178.875,311.450 180.000,312.000 180.000 C 312.550 180.000,313.000 181.800,313.000 184.000 C 313.000 186.889,313.417 188.000,314.500 188.000 C 315.771 188.000,316.000 190.444,316.000 204.000 C 316.000 217.556,315.771 220.000,314.500 220.000 C 313.417 220.000,313.000 221.111,313.000 224.000 C 313.000 226.200,312.550 228.000,312.000 228.000 C 311.450 228.000,311.000 229.125,311.000 230.500 C 311.000 232.056,310.433 233.000,309.500 233.000 C 308.675 233.000,308.000 233.675,308.000 234.500 C 308.000 235.325,307.325 236.000,306.500 236.000 C 305.567 236.000,305.000 236.944,305.000 238.500 C 305.000 239.875,304.550 241.000,304.000 241.000 C 303.450 241.000,303.000 241.675,303.000 242.500 C 303.000 243.325,302.325 244.000,301.500 244.000 C 300.675 244.000,300.000 244.675,300.000 245.500 C 300.000 246.325,299.325 247.000,298.500 247.000 C 297.675 247.000,297.000 247.450,297.000 248.000 C 297.000 248.550,295.875 249.000,294.500 249.000 C 292.944 249.000,292.000 249.567,292.000 250.500 C 292.000 251.325,291.325 252.000,290.500 252.000 C 289.675 252.000,289.000 252.675,289.000 253.500 C 289.000 254.433,288.056 255.000,286.500 255.000 C 285.125 255.000,284.000 255.450,284.000 256.000 C 284.000 256.550,282.875 257.000,281.500 257.000 C 279.944 257.000,279.000 257.567,279.000 258.500 C 279.000 259.583,277.889 260.000,275.000 260.000 C 272.111 260.000,271.000 260.417,271.000 261.500 C 271.000 262.818,262.889 263.000,204.000 263.000 C 145.111 263.000,137.000 262.818,137.000 261.500 C 137.000 260.417,135.889 260.000,133.000 260.000 C 130.111 260.000,129.000 259.583,129.000 258.500 C 129.000 257.567,128.056 257.000,126.500 257.000 C 125.125 257.000,124.000 256.550,124.000 256.000 C 124.000 255.450,122.875 255.000,121.500 255.000 C 119.944 255.000,119.000 254.433,119.000 253.500 C 119.000 252.675,118.325 252.000,117.500 252.000 C 116.675 252.000,116.000 251.325,116.000 250.500 C 116.000 249.567,115.056 249.000,113.500 249.000 C 112.125 249.000,111.000 248.550,111.000 248.000 C 111.000 247.450,110.325 247.000,109.500 247.000 C 108.675 247.000,108.000 246.325,108.000 245.500 C 108.000 244.675,107.325 244.000,106.500 244.000 C 105.567 244.000,105.000 243.056,105.000 241.500 C 105.000 240.125,104.550 239.000,104.000 239.000 C 103.450 239.000,103.000 238.325,103.000 237.500 C 103.000 236.675,102.325 236.000,101.500 236.000 C 100.567 236.000,100.000 235.056,100.000 233.500 C 100.000 231.944,99.433 231.000,98.500 231.000 C 97.500 231.000,97.000 230.000,97.000 228.000 C 97.000 226.350,96.550 225.000,96.000 225.000 C 95.450 225.000,95.000 223.200,95.000 221.000 C 95.000 218.111,94.583 217.000,93.500 217.000 C 92.244 217.000,92.000 214.889,92.000 204.000 C 92.000 193.111,92.244 191.000,93.500 191.000 C 94.583 191.000,95.000 189.889,95.000 187.000 C 95.000 184.800,95.450 183.000,96.000 183.000 C 96.550 183.000,97.000 181.650,97.000 180.000 C 97.000 178.000,97.500 177.000,98.500 177.000 C 99.433 177.000,100.000 176.056,100.000 174.500 C 100.000 172.944,100.567 172.000,101.500 172.000 C 102.325 172.000,103.000 171.325,103.000 170.500 C 103.000 169.675,103.450 169.000,104.000 169.000 C 104.550 169.000,105.000 167.875,105.000 166.500 C 105.000 164.944,105.567 164.000,106.500 164.000 C 107.325 164.000,108.000 163.325,108.000 162.500 C 108.000 161.675,108.482 161.000,109.071 161.000 C 110.456 161.000,113.000 158.456,113.000 157.071 C 113.000 156.482,114.350 156.000,116.000 156.000 C 117.650 156.000,119.000 155.518,119.000 154.929 C 119.000 153.020,121.792 151.000,124.429 151.000 C 126.048 151.000,127.000 150.444,127.000 149.500 C 127.000 148.417,128.111 148.000,131.000 148.000 C 133.889 148.000,135.000 147.583,135.000 146.500 C 135.000 145.181,143.333 145.000,204.000 145.000 C 264.667 145.000,273.000 145.181,273.000 146.500 " stroke="none" fill="#000000" fill-rule="evenodd"></path></g></svg>