<?xml version="1.0" encoding="UTF-8" standalone="no"?>
<!DOCTYPE svg PUBLIC "-//W3C//DTD SVG 1.1//EN" "http://www.w3.org/Graphics/SVG/1.1/DTD/svg11.dtd">
<svg width="100%" height="100%" viewBox="0 0 400 400" version="1.1" xmlns="http://www.w3.org/2000/svg" xmlns:xlink="http://www.w3.org/1999/xlink" xml:space="preserve" xmlns:serif="http://www.serif.com/" style="fill-rule:evenodd;clip-rule:evenodd;stroke-linejoin:round;stroke-miterlimit:2;">
    <g id="svgg">
        <path id="path0" d="M132,109.5C132,111.724 127.71,110.752 125.5,111C121.882,111.406 119.193,111.67 116,113C107.842,116.399 99.294,119.372 92,125.5C89.062,127.968 90.015,128.753 87,130.929C85.278,132.172 82.722,131.828 81,133.071C75.885,136.762 77.942,138.825 74.929,143C70.469,149.18 63.101,154.563 60.344,161.917C59.618,163.853 60.382,166.147 59.656,168.083C59.311,169.004 57.689,168.996 57.344,169.917C55.392,175.123 56.123,181.548 54.682,186.833C54.026,189.239 52.517,188.314 52.273,190.916C51.909,194.805 51.909,213.195 52.273,217.084C52.517,219.686 54.026,218.761 54.682,221.167C56.123,226.452 55.392,232.877 57.344,238.083C57.689,239.004 59.311,238.996 59.656,239.917C60.956,243.382 58.976,243.802 61.071,247C61.653,247.889 63.128,247.865 63.751,248.726C66.101,251.973 66.748,256.724 69.5,260C75.874,267.587 84.413,276.126 92,282.5C95.941,285.81 101.047,286.773 105.5,289C108.219,290.359 111.34,293.69 113.917,294.656C120.011,296.942 127.342,295.966 133.584,297.304C157.821,302.497 172.694,300 204,300C235.306,300 250.179,302.497 274.417,297.304C280.658,295.966 287.989,296.942 294.083,294.656C296.66,293.69 299.781,290.359 302.5,289C306.953,286.773 312.059,285.81 316,282.5C317.884,280.917 319.19,278.738 321,277.071C323.526,274.745 328.636,273.485 330.5,271C332.554,268.261 331.105,267.724 333.071,265C335.247,261.985 336.032,262.938 338.5,260C342.828,254.848 348.382,246.147 350.656,240.083C352.495,235.179 351.837,229.042 353.325,224.083C354.117,221.443 355.519,222.254 355.73,219.583C356.09,215.03 356.09,192.97 355.73,188.417C355.519,185.746 354.117,186.557 353.325,183.917C351.837,178.958 352.495,172.821 350.656,167.917C347.84,160.407 342.143,152.672 337,146.5C332.396,140.976 330.206,135.154 324,130.5C319.96,127.47 315.105,125.579 311,122.5C306.821,119.365 300.821,115.12 296.083,113.344C291.179,111.505 285.042,112.163 280.083,110.675C260.385,104.765 213.57,108 205.5,108C185.166,108 164.829,107.84 144.5,108.255C140.314,108.34 132,105.313 132,109.5M273,146.5C273,148.856 278.847,147.88 280.083,148.344C283.315,149.556 286.498,152.943 289,154.929C292.83,157.97 294.969,156.701 298.929,161C302.16,164.508 303.715,168.287 306.5,172C308.06,174.08 309.772,175.044 311,177.5C312.539,180.578 312.206,184.048 313.344,187.083C314.201,189.368 315.508,188.584 315.727,190.916C317.488,209.702 315.167,227.899 303,242.5C299.698,246.462 295.922,247.558 292,250.5C287.841,253.62 282.888,257.854 278.083,259.656C276.147,260.382 273.853,259.618 271.917,260.344C250.703,268.299 226.656,263 204,263C185.472,263 166.94,263.159 148.417,262.744C135.66,262.459 126.011,258.008 116,250.5C112.716,248.037 109.109,247.478 106.5,244C103.137,239.516 99.164,233.194 97,228C95.655,224.771 95.827,221.04 94.656,217.917C92.106,211.116 92,211.227 92,204C92,195.325 94.182,184.917 98.5,177C100.057,174.145 102.591,171.817 104,169C106.204,164.591 108.837,160.075 113,157.071L119,154.929C121.502,152.943 124.685,149.556 127.917,148.344C129.853,147.618 132.147,148.382 134.083,147.656C155.921,139.467 180.678,145 204,145C223.084,145 242.171,144.841 261.25,145.255C265.188,145.341 273,142.561 273,146.5"/>
    </g>
</svg>
