<svg xmlns="http://www.w3.org/2000/svg" width="400" height="400" viewBox="0, 0, 400,400">
<g>
<path d="M135.457 28.397 C 128.189 32.019,126.667 35.832,126.667 50.422 L 126.667 61.553 190.167 61.110 C 225.092 60.867,280.611 60.667,313.543 60.667 L 373.419 60.667 373.210 49.111 C 372.964 35.565,371.964 32.890,365.701 29.018 L 362.438 27.000 250.695 26.828 L 138.951 26.655 135.457 28.397 M126.667 75.000 L 126.667 86.000 168.667 86.000 L 210.667 86.000 210.667 75.000 L 210.667 64.000 168.667 64.000 L 126.667 64.000 126.667 75.000 M214.000 100.000 L 214.000 136.000 256.333 136.000 L 298.667 136.000 298.667 100.000 L 298.667 64.000 256.333 64.000 L 214.000 64.000 214.000 100.000 M301.333 100.000 L 301.333 136.000 337.333 136.000 L 373.333 136.000 373.333 100.000 L 373.333 64.000 337.333 64.000 L 301.333 64.000 301.333 100.000 M8.737 101.757 C 4.895 103.671,1.767 107.344,0.631 111.274 C 0.164 112.888,0.003 142.202,0.136 201.386 L 0.333 289.105 2.351 292.368 C 3.601 294.391,5.609 296.399,7.632 297.649 L 10.895 299.667 98.614 299.850 C 178.736 300.017,186.585 299.938,189.237 298.935 C 193.248 297.417,196.592 294.291,198.432 290.338 L 199.987 287.000 199.979 200.000 C 199.971 113.909,199.957 112.969,198.613 110.000 C 196.789 105.971,194.340 103.483,190.333 101.589 L 187.000 100.013 99.631 100.007 L 12.262 100.000 8.737 101.757 M116.484 139.303 C 153.143 148.233,170.041 193.745,151.025 232.333 C 130.404 274.178,65.089 272.319,46.976 229.371 C 35.838 202.962,42.040 168.298,60.885 151.630 C 74.618 139.483,96.923 134.538,116.484 139.303 M214.000 175.000 L 214.000 210.667 256.333 210.667 L 298.667 210.667 298.667 175.000 L 298.667 139.333 256.333 139.333 L 214.000 139.333 214.000 175.000 M301.333 175.000 L 301.333 210.667 331.054 210.667 L 360.776 210.667 367.054 207.167 L 373.332 203.667 373.333 171.500 L 373.333 139.333 337.333 139.333 L 301.333 139.333 301.333 175.000 M92.075 159.054 C 57.622 168.319,57.323 232.027,91.690 240.978 C 115.611 247.209,133.439 230.045,133.559 200.667 C 133.684 170.306,116.041 152.608,92.075 159.054 M376.667 200.077 L 376.667 216.153 378.167 215.191 C 378.992 214.661,383.382 212.152,387.924 209.614 C 398.451 203.732,400.867 199.852,396.610 195.667 C 395.189 194.270,377.950 184.000,377.026 184.000 C 376.828 184.000,376.667 191.235,376.667 200.077 M399.495 202.156 C 399.057 205.292,386.656 212.628,269.170 279.255 C 265.596 281.281,262.896 283.157,263.170 283.424 C 263.443 283.690,294.267 301.335,331.667 322.636 L 399.667 361.364 399.839 321.349 C 400.015 280.298,399.783 200.087,399.495 202.156 M214.157 233.759 L 214.333 253.518 231.667 263.450 C 242.474 269.643,249.516 273.292,250.370 273.142 C 251.124 273.009,262.291 266.923,275.187 259.617 L 298.634 246.333 298.650 230.167 L 298.667 214.000 256.323 214.000 L 213.980 214.000 214.157 233.759 M301.333 229.000 C 301.333 237.279,301.598 244.000,301.925 244.000 C 302.578 244.000,352.622 215.540,353.633 214.593 C 354.004 214.246,343.279 214.000,327.800 214.000 L 301.333 214.000 301.333 229.000 M211.866 284.888 L 211.667 301.109 209.643 304.388 C 204.463 312.779,205.310 312.667,147.240 312.667 L 100.000 312.667 100.007 336.833 C 100.014 364.640,100.087 365.029,106.335 370.528 C 112.235 375.722,100.601 375.333,250.015 375.333 C 391.094 375.333,387.139 375.413,391.319 372.485 C 392.941 371.349,399.918 375.429,271.667 302.511 C 242.700 286.042,217.555 271.689,215.789 270.617 C 214.023 269.544,212.463 268.667,212.322 268.667 C 212.181 268.667,211.976 275.966,211.866 284.888 " stroke="none" fill-rule="evenodd"></path>
</g>
</svg>