<svg version="1.1" width="400" height="400" xmlns="http://www.w3.org/2000/svg"><g><path d="M168.774 84.312 C 166.423 88.334,149.200 118.252,130.500 150.798 C 111.800 183.343,96.234 209.977,95.909 209.985 C 95.584 209.993,79.834 183.014,60.909 150.032 C 41.984 117.049,26.136 90.049,25.691 90.032 C 24.239 89.975,14.177 112.212,10.095 124.500 C -10.086 185.246,1.031 253.964,39.153 304.109 L 44.392 311.000 98.530 311.000 L 152.668 311.000 219.584 194.821 C 256.388 130.923,286.650 78.273,286.833 77.821 C 287.017 77.370,261.490 77.000,230.108 77.000 L 173.049 77.000 168.774 84.312 M345.566 125.981 L 324.852 161.962 302.734 162.231 L 280.616 162.500 255.215 206.500 C 241.245 230.700,229.583 251.063,229.300 251.750 C 228.898 252.727,233.500 253.000,250.393 253.000 C 262.277 253.000,272.000 253.181,272.000 253.402 C 272.000 253.623,264.800 266.323,256.000 281.624 C 247.200 296.926,240.000 309.799,240.000 310.231 C 240.000 310.664,264.376 310.901,294.169 310.759 L 348.339 310.500 353.544 303.674 C 392.380 252.742,402.937 179.791,380.342 118.500 C 376.995 109.422,367.892 90.000,366.984 90.000 C 366.597 90.000,356.959 106.191,345.566 125.981 " stroke="none" fill-rule="evenodd"></path></g></svg>