<svg id="svg" version="1.1" width="400" height="400" xmlns="http://www.w3.org/2000/svg" xmlns:xlink="http://www.w3.org/1999/xlink" style="display: block;"><g id="svgg"><path id="path0" d="M93.530 8.250 C 93.918 10.588,94.633 12.650,95.118 12.833 C 95.603 13.017,96.000 14.254,96.000 15.583 C 96.000 16.913,96.450 18.000,97.000 18.000 C 97.550 18.000,98.000 19.125,98.000 20.500 C 98.000 21.875,98.450 23.000,99.000 23.000 C 99.600 23.000,100.000 27.000,100.000 33.000 C 100.000 39.000,99.600 43.000,99.000 43.000 C 98.450 43.000,98.000 44.575,98.000 46.500 C 98.000 48.425,97.550 50.000,97.000 50.000 C 96.450 50.000,96.000 50.900,96.000 52.000 C 96.000 53.100,95.586 54.000,95.079 54.000 C 94.573 54.000,93.862 55.350,93.500 57.000 C 93.138 58.650,92.427 60.000,91.921 60.000 C 91.414 60.000,91.000 60.736,91.000 61.635 C 91.000 62.535,89.875 64.313,88.500 65.588 C 87.125 66.862,86.000 68.349,86.000 68.892 C 86.000 70.451,70.040 86.000,68.439 86.000 C 67.648 86.000,67.000 86.450,67.000 87.000 C 67.000 87.550,65.425 88.000,63.500 88.000 C 61.575 88.000,60.000 87.550,60.000 87.000 C 60.000 86.450,59.325 86.000,58.500 86.000 C 57.675 86.000,57.000 85.570,57.000 85.045 C 57.000 84.520,55.425 83.795,53.500 83.434 C 51.575 83.073,50.000 82.377,50.000 81.889 C 50.000 81.400,48.875 81.000,47.500 81.000 C 46.125 81.000,45.000 80.550,45.000 80.000 C 45.000 79.437,42.186 79.000,38.559 79.000 C 35.016 79.000,31.840 79.450,31.500 80.000 C 31.160 80.550,29.559 81.000,27.941 81.000 C 22.585 81.000,25.894 87.429,31.866 88.623 C 33.590 88.968,35.000 89.644,35.000 90.125 C 35.000 90.606,35.675 91.000,36.500 91.000 C 37.325 91.000,38.000 91.394,38.000 91.875 C 38.000 92.356,39.376 93.025,41.058 93.362 C 45.956 94.341,50.482 105.000,46.000 105.000 C 45.450 105.000,45.000 106.323,45.000 107.941 C 45.000 109.559,44.585 111.138,44.078 111.452 C 43.572 111.765,42.844 114.941,42.462 118.511 C 42.080 122.080,41.369 125.000,40.884 125.000 C 40.398 125.000,40.000 126.538,40.000 128.417 C 40.000 130.296,39.542 131.986,38.981 132.173 C 37.733 132.589,36.419 160.091,37.398 165.308 C 38.083 168.959,38.144 169.000,42.920 169.000 C 50.149 169.000,53.864 168.003,54.538 165.881 C 54.866 164.846,56.019 164.000,57.099 164.000 C 58.179 164.000,59.322 163.325,59.638 162.500 C 59.955 161.675,60.901 161.000,61.740 161.000 C 63.538 161.000,67.000 157.280,67.000 155.347 C 67.000 154.606,67.450 154.000,68.000 154.000 C 68.550 154.000,69.000 153.325,69.000 152.500 C 69.000 151.675,69.450 151.000,70.000 151.000 C 70.550 151.000,71.000 151.675,71.000 152.500 C 71.000 153.433,71.944 154.000,73.500 154.000 C 74.875 154.000,76.000 153.599,76.000 153.108 C 76.000 152.618,77.125 151.934,78.500 151.589 C 79.875 151.244,81.000 150.274,81.000 149.433 C 81.000 148.592,82.125 146.862,83.500 145.588 C 84.875 144.313,86.000 142.760,86.000 142.135 C 86.000 140.493,89.741 137.000,91.500 137.000 C 92.325 137.000,93.000 136.518,93.000 135.929 C 93.000 135.339,93.675 135.532,94.500 136.357 C 95.325 137.182,96.000 138.789,96.000 139.929 C 96.000 141.068,96.450 142.000,97.000 142.000 C 97.550 142.000,98.000 142.900,98.000 144.000 C 98.000 145.100,98.392 146.000,98.872 146.000 C 99.352 146.000,100.032 147.800,100.384 150.000 C 100.736 152.200,101.468 154.000,102.012 154.000 C 102.555 154.000,103.000 155.125,103.000 156.500 C 103.000 157.875,103.408 159.000,103.906 159.000 C 104.405 159.000,105.122 161.250,105.500 164.000 C 105.878 166.750,106.595 169.000,107.094 169.000 C 107.592 169.000,108.000 169.900,108.000 171.000 C 108.000 172.100,108.392 173.000,108.872 173.000 C 109.352 173.000,110.032 174.800,110.384 177.000 C 110.736 179.200,111.468 181.000,112.012 181.000 C 112.555 181.000,113.000 182.125,113.000 183.500 C 113.000 184.875,113.450 186.000,114.000 186.000 C 114.550 186.000,115.000 187.125,115.000 188.500 C 115.000 189.875,115.391 191.000,115.868 191.000 C 116.346 191.000,116.992 192.903,117.304 195.228 C 117.616 197.554,118.350 199.617,118.935 199.812 C 119.521 200.007,120.000 200.767,120.000 201.500 C 120.000 202.233,120.472 202.991,121.048 203.183 C 121.625 203.375,122.363 206.112,122.688 209.266 C 123.013 212.420,123.667 215.000,124.140 215.000 C 124.613 215.000,125.000 217.025,125.000 219.500 C 125.000 221.975,125.450 224.000,126.000 224.000 C 126.550 224.000,127.000 225.125,127.000 226.500 C 127.000 227.875,127.399 229.000,127.886 229.000 C 128.374 229.000,129.091 231.121,129.480 233.714 C 129.869 236.306,130.976 239.119,131.940 239.964 C 133.651 241.463,135.295 251.870,134.276 254.750 C 133.931 255.725,123.861 256.000,88.484 256.000 C 44.410 256.000,43.117 256.055,42.516 257.949 C 42.176 259.021,40.908 260.210,39.699 260.592 C 38.489 260.974,36.772 262.122,35.883 263.143 C 34.993 264.164,33.692 265.000,32.991 265.000 C 32.290 265.000,30.426 266.350,28.850 268.000 C 27.273 269.650,25.504 271.000,24.920 271.000 C 21.608 271.000,19.937 276.079,22.429 278.571 C 24.582 280.725,385.418 280.725,387.571 278.571 C 389.489 276.654,389.470 271.000,387.545 271.000 C 386.745 271.000,384.966 269.875,383.591 268.500 C 382.216 267.125,380.624 266.000,380.054 266.000 C 379.484 266.000,377.727 264.650,376.150 263.000 C 374.574 261.350,372.653 260.000,371.882 260.000 C 371.112 260.000,369.919 259.100,369.232 258.000 C 368.545 256.900,367.312 256.000,366.492 256.000 C 365.671 256.000,365.000 255.599,365.000 255.108 C 365.000 254.617,359.748 254.049,353.329 253.845 C 345.223 253.588,341.532 253.097,341.246 252.237 C 340.741 250.722,338.000 250.582,338.000 252.071 C 338.000 255.338,335.160 256.000,321.151 256.000 L 307.159 256.000 306.503 253.011 C 306.142 251.368,305.431 249.766,304.923 249.452 C 304.415 249.139,304.000 247.784,304.000 246.441 C 304.000 245.098,303.550 244.000,303.000 244.000 C 302.450 244.000,302.000 243.325,302.000 242.500 C 302.000 241.675,301.601 241.000,301.114 241.000 C 300.626 241.000,299.923 238.975,299.552 236.500 C 299.181 234.025,298.455 232.000,297.939 232.000 C 297.422 232.000,297.000 231.325,297.000 230.500 C 297.000 229.675,296.550 229.000,296.000 229.000 C 295.450 229.000,295.000 227.907,295.000 226.571 C 295.000 225.236,294.325 223.468,293.500 222.643 C 292.675 221.818,292.000 220.661,292.000 220.071 C 292.000 219.482,291.600 219.000,291.111 219.000 C 290.623 219.000,289.927 217.425,289.566 215.500 C 289.205 213.575,288.480 212.000,287.955 212.000 C 287.430 212.000,287.000 211.325,287.000 210.500 C 287.000 209.675,286.550 209.000,286.000 209.000 C 285.450 209.000,285.000 208.100,285.000 207.000 C 285.000 205.900,284.559 205.000,284.019 205.000 C 283.480 205.000,282.756 203.875,282.411 202.500 C 282.066 201.125,281.382 200.000,280.892 200.000 C 280.401 200.000,280.000 199.325,280.000 198.500 C 280.000 197.675,279.594 197.000,279.098 197.000 C 278.602 197.000,277.723 195.644,277.145 193.987 C 276.568 192.330,275.399 190.706,274.547 190.380 C 273.696 190.053,273.000 189.384,273.000 188.893 C 273.000 187.747,284.723 187.716,285.167 188.861 C 285.600 189.980,303.424 190.974,305.049 189.970 C 307.052 188.732,305.388 186.244,302.068 185.515 C 298.932 184.826,297.793 183.000,300.500 183.000 C 301.325 183.000,302.000 182.606,302.000 182.125 C 302.000 181.644,303.376 180.975,305.058 180.638 C 312.146 179.221,312.855 174.000,305.960 174.000 C 302.313 174.000,302.024 173.833,303.357 172.500 C 304.182 171.675,305.339 171.000,305.929 171.000 C 306.518 171.000,307.000 169.875,307.000 168.500 C 307.000 165.981,300.727 164.548,299.833 166.863 C 299.650 167.338,297.250 168.000,294.500 168.335 C 291.750 168.669,290.063 168.693,290.750 168.388 C 291.438 168.083,292.000 166.783,292.000 165.500 C 292.000 164.217,292.382 163.017,292.848 162.833 C 295.718 161.705,294.989 154.000,292.012 154.000 C 290.355 154.000,289.000 154.450,289.000 155.000 C 289.000 155.550,288.157 156.000,287.127 156.000 C 286.097 156.000,283.910 157.574,282.267 159.497 C 280.527 161.535,277.970 163.256,276.140 163.622 C 274.413 163.967,273.000 164.644,273.000 165.125 C 273.000 165.606,269.212 166.000,264.583 166.000 C 258.828 166.000,255.982 166.395,255.583 167.250 C 255.117 168.250,254.883 168.250,254.417 167.250 C 254.096 166.563,252.746 166.000,251.417 166.000 C 250.088 166.000,249.000 165.608,249.000 165.128 C 249.000 164.648,247.200 163.968,245.000 163.616 C 242.800 163.264,241.000 162.532,241.000 161.988 C 241.000 161.445,239.875 161.000,238.500 161.000 C 237.125 161.000,236.000 160.550,236.000 160.000 C 236.000 159.450,234.875 159.000,233.500 159.000 C 232.125 159.000,231.000 158.613,231.000 158.139 C 231.000 157.666,228.640 156.999,225.756 156.658 C 222.872 156.316,220.359 155.578,220.173 155.018 C 219.986 154.458,218.746 154.000,217.417 154.000 C 216.088 154.000,215.000 153.592,215.000 153.094 C 215.000 152.595,212.750 151.878,210.000 151.500 C 207.250 151.122,205.000 150.405,205.000 149.906 C 205.000 149.408,203.875 149.000,202.500 149.000 C 201.125 149.000,200.000 148.592,200.000 148.094 C 200.000 147.595,197.750 146.878,195.000 146.500 C 192.250 146.122,190.000 145.405,190.000 144.906 C 190.000 144.408,189.100 144.000,188.000 144.000 C 186.900 144.000,186.000 143.550,186.000 143.000 C 186.000 142.450,184.677 142.000,183.059 142.000 C 181.441 142.000,179.866 141.592,179.558 141.094 C 179.250 140.595,176.748 139.878,173.999 139.500 C 171.249 139.122,169.000 138.405,169.000 137.906 C 169.000 137.408,166.750 137.000,164.000 137.000 C 161.250 137.000,159.000 136.550,159.000 136.000 C 159.000 135.450,157.411 135.000,155.469 135.000 C 153.252 135.000,151.723 134.441,151.362 133.500 C 151.045 132.675,150.169 132.000,149.415 132.000 C 147.862 132.000,137.000 121.482,137.000 119.978 C 137.000 118.571,133.228 115.000,131.741 115.000 C 131.048 115.000,129.944 114.140,129.288 113.090 C 128.632 112.039,126.724 110.879,125.048 110.510 C 123.371 110.142,122.000 109.427,122.000 108.921 C 122.000 108.414,121.100 108.000,120.000 108.000 C 114.985 108.000,118.725 106.130,125.000 105.500 C 128.850 105.113,132.000 104.393,132.000 103.899 C 132.000 103.404,133.527 103.000,135.393 103.000 C 138.492 103.000,140.000 101.714,140.000 99.071 C 140.000 94.922,136.221 93.767,122.217 93.633 C 111.146 93.527,108.621 93.250,109.615 92.250 C 110.298 91.563,111.133 91.000,111.471 91.000 C 112.148 91.000,114.434 89.208,116.298 87.215 C 117.828 85.580,119.580 83.828,121.215 82.298 C 123.268 80.377,125.000 78.140,125.000 77.410 C 125.000 77.038,125.836 76.007,126.857 75.117 C 127.878 74.228,129.034 72.487,129.424 71.250 C 129.815 70.013,130.554 69.000,131.067 69.000 C 131.580 69.000,132.000 67.875,132.000 66.500 C 132.000 65.125,132.422 64.000,132.939 64.000 C 133.455 64.000,134.181 61.975,134.552 59.500 C 134.923 57.025,135.626 55.000,136.114 55.000 C 136.601 55.000,137.000 52.750,137.000 50.000 C 137.000 47.250,137.450 45.000,138.000 45.000 C 138.600 45.000,139.000 41.000,139.000 35.000 C 139.000 29.000,138.600 25.000,138.000 25.000 C 137.450 25.000,137.000 23.425,137.000 21.500 C 137.000 19.575,136.518 18.000,135.929 18.000 C 133.596 18.000,132.000 21.023,132.000 25.442 C 132.000 27.964,131.572 30.809,131.049 31.764 C 130.526 32.719,129.819 36.087,129.477 39.250 C 129.136 42.413,128.438 45.000,127.928 45.000 C 127.418 45.000,127.000 45.900,127.000 47.000 C 127.000 48.100,126.550 49.000,126.000 49.000 C 125.450 49.000,125.000 49.675,125.000 50.500 C 125.000 51.325,124.550 52.000,124.000 52.000 C 123.450 52.000,123.000 52.655,123.000 53.455 C 123.000 54.255,121.875 56.034,120.500 57.409 C 119.125 58.784,118.000 60.355,118.000 60.899 C 118.000 62.066,108.095 72.000,106.932 72.000 C 106.493 72.000,105.856 72.877,105.516 73.949 C 105.176 75.021,104.044 76.169,103.000 76.500 C 101.956 76.831,100.824 77.979,100.484 79.051 C 99.676 81.597,98.000 81.562,98.000 79.000 C 98.000 77.900,98.445 77.000,98.988 77.000 C 99.532 77.000,100.264 75.200,100.616 73.000 C 100.968 70.800,101.648 69.000,102.128 69.000 C 102.608 69.000,103.000 68.325,103.000 67.500 C 103.000 66.675,103.406 66.000,103.902 66.000 C 104.398 66.000,105.117 63.300,105.500 60.000 C 105.883 56.700,106.602 54.000,107.098 54.000 C 107.595 54.000,108.000 47.042,108.000 38.500 C 108.000 29.975,107.601 23.000,107.114 23.000 C 106.626 23.000,105.923 20.975,105.552 18.500 C 105.181 16.025,104.455 14.000,103.939 14.000 C 103.422 14.000,103.000 13.325,103.000 12.500 C 103.000 11.675,102.580 11.000,102.067 11.000 C 101.554 11.000,100.820 10.008,100.435 8.797 C 98.392 2.359,92.474 1.890,93.530 8.250 M67.278 107.011 C 68.225 108.118,69.000 109.468,69.000 110.011 C 69.000 110.555,69.450 111.000,70.000 111.000 C 70.550 111.000,71.000 111.900,71.000 113.000 C 71.000 114.100,70.550 115.000,70.000 115.000 C 69.450 115.000,69.000 115.469,69.000 116.042 C 69.000 118.346,66.640 119.782,65.207 118.350 C 63.305 116.448,57.000 116.563,57.000 118.500 C 57.000 120.945,55.090 120.207,54.411 117.500 C 54.066 116.125,53.382 115.000,52.892 115.000 C 52.401 115.000,52.000 114.100,52.000 113.000 C 52.000 111.900,52.450 111.000,53.000 111.000 C 53.550 111.000,54.000 110.357,54.000 109.571 C 54.000 105.021,63.933 103.106,67.278 107.011 M88.034 109.034 C 89.665 110.703,91.000 112.691,91.000 113.451 C 91.000 114.211,91.563 115.096,92.250 115.417 C 93.250 115.883,93.250 116.117,92.250 116.583 C 91.563 116.904,91.000 117.574,91.000 118.072 C 91.000 122.398,84.297 124.430,83.816 120.250 C 83.440 116.982,77.000 115.336,77.000 118.508 C 77.000 119.961,76.833 119.976,75.500 118.643 C 73.148 116.291,73.703 114.159,77.750 109.993 C 82.325 105.284,84.197 105.109,88.034 109.034 M166.000 240.000 C 166.000 240.550,167.125 241.000,168.500 241.000 C 169.875 241.000,171.000 241.408,171.000 241.906 C 171.000 242.405,173.250 243.122,176.000 243.500 C 178.750 243.878,181.000 244.595,181.000 245.094 C 181.000 245.592,181.863 246.000,182.917 246.000 C 183.971 246.000,185.021 246.563,185.250 247.250 C 185.557 248.172,189.422 248.500,200.000 248.500 C 210.578 248.500,214.443 248.172,214.750 247.250 C 215.737 244.289,217.000 246.393,217.000 251.000 L 217.000 256.000 190.000 256.000 L 163.000 256.000 163.011 251.250 C 163.026 244.939,164.053 239.000,165.131 239.000 C 165.609 239.000,166.000 239.450,166.000 240.000 M149.000 247.000 C 149.000 249.200,149.450 251.000,150.000 251.000 C 151.508 251.000,151.201 252.942,149.409 254.734 C 147.089 257.053,145.972 254.753,146.264 248.257 C 146.551 241.879,149.000 240.754,149.000 247.000 M286.426 246.335 C 287.710 247.619,289.070 249.644,289.448 250.835 C 289.826 252.026,290.554 253.000,291.067 253.000 C 291.580 253.000,292.000 253.675,292.000 254.500 C 292.000 255.548,290.944 256.000,288.500 256.000 C 286.147 256.000,285.000 255.536,285.000 254.583 C 285.000 253.804,284.603 253.017,284.118 252.833 C 283.633 252.650,282.918 250.588,282.530 248.250 C 281.711 243.317,282.849 242.758,286.426 246.335 M261.000 253.000 C 263.590 255.590,263.522 256.000,260.500 256.000 C 258.500 256.000,258.000 255.500,258.000 253.500 C 258.000 250.478,258.410 250.410,261.000 253.000 M43.000 284.000 C 43.000 284.606,38.689 285.000,32.067 285.000 C 21.910 285.000,21.088 285.146,20.482 287.058 C 19.645 289.695,20.901 299.000,22.094 299.000 C 22.592 299.000,23.000 300.125,23.000 301.500 C 23.000 302.875,23.445 304.000,23.988 304.000 C 24.532 304.000,25.264 305.800,25.616 308.000 C 25.968 310.200,26.648 312.000,27.128 312.000 C 27.608 312.000,28.000 313.125,28.000 314.500 C 28.000 315.875,28.391 317.000,28.868 317.000 C 29.346 317.000,29.992 318.903,30.304 321.228 C 30.616 323.554,31.350 325.617,31.935 325.812 C 32.521 326.007,33.000 327.704,33.000 329.583 C 33.000 331.462,33.450 333.000,34.000 333.000 C 34.550 333.000,35.000 333.675,35.000 334.500 C 35.000 335.325,35.391 336.000,35.870 336.000 C 36.348 336.000,36.979 338.123,37.272 340.717 C 37.564 343.312,38.298 345.599,38.902 345.801 C 39.506 346.002,40.000 347.048,40.000 348.126 C 40.000 349.993,40.607 350.994,43.991 354.704 C 45.116 355.937,45.177 356.441,44.241 356.753 C 42.770 357.243,42.548 363.000,44.000 363.000 C 44.550 363.000,45.000 363.900,45.000 365.000 C 45.000 366.100,45.450 367.000,46.000 367.000 C 46.550 367.000,47.000 368.125,47.000 369.500 C 47.000 370.875,47.388 372.000,47.862 372.000 C 48.337 372.000,49.020 374.516,49.382 377.591 C 50.546 387.493,33.473 386.500,202.500 386.500 C 364.202 386.500,355.000 386.797,355.000 381.571 C 355.000 380.707,355.450 380.000,356.000 380.000 C 356.550 380.000,357.000 378.232,357.000 376.071 C 357.000 373.911,357.675 371.468,358.500 370.643 C 359.325 369.818,360.000 368.698,360.000 368.155 C 360.000 367.611,360.446 367.017,360.990 366.833 C 361.535 366.650,362.278 363.575,362.641 360.000 C 363.201 354.499,363.742 353.130,366.164 351.094 C 368.031 349.525,369.240 347.352,369.641 344.844 C 369.979 342.730,370.648 341.000,371.128 341.000 C 371.608 341.000,372.000 340.325,372.000 339.500 C 372.000 338.675,372.399 338.000,372.886 338.000 C 373.374 338.000,374.077 335.975,374.448 333.500 C 374.819 331.025,375.545 329.000,376.061 329.000 C 376.578 329.000,377.000 328.363,377.000 327.583 C 377.000 326.804,377.457 326.014,378.015 325.828 C 378.573 325.642,379.312 322.465,379.657 318.767 C 380.156 313.427,380.667 311.923,382.143 311.455 C 383.164 311.131,384.000 309.996,384.000 308.933 C 384.000 307.870,384.445 307.000,384.988 307.000 C 385.532 307.000,386.264 305.200,386.616 303.000 C 386.968 300.800,387.648 299.000,388.128 299.000 C 388.608 299.000,389.000 298.100,389.000 297.000 C 389.000 295.900,389.450 295.000,390.000 295.000 C 392.116 295.000,391.042 287.951,388.545 285.455 C 385.999 282.908,384.000 282.268,384.000 284.000 C 384.000 284.550,382.425 285.000,380.500 285.000 C 378.575 285.000,377.000 284.550,377.000 284.000 C 377.000 283.450,375.200 283.000,373.000 283.000 C 370.800 283.000,369.000 283.450,369.000 284.000 C 369.000 284.550,367.425 285.000,365.500 285.000 C 363.575 285.000,362.000 284.550,362.000 284.000 C 362.000 282.569,353.375 282.763,350.856 284.250 C 349.162 285.250,348.648 285.250,348.286 284.250 C 347.751 282.771,343.000 282.547,343.000 284.000 C 343.000 284.588,339.500 285.000,334.500 285.000 C 329.500 285.000,326.000 284.588,326.000 284.000 C 326.000 283.450,324.875 283.000,323.500 283.000 C 322.125 283.000,321.000 283.450,321.000 284.000 C 321.000 284.550,319.425 285.000,317.500 285.000 C 315.575 285.000,314.000 284.550,314.000 284.000 C 314.000 282.477,299.300 282.715,298.583 284.250 C 298.117 285.250,297.883 285.250,297.417 284.250 C 296.727 282.772,290.000 282.545,290.000 284.000 C 290.000 284.588,286.500 285.000,281.500 285.000 C 276.500 285.000,273.000 284.588,273.000 284.000 C 273.000 282.565,270.277 282.764,269.583 284.250 C 269.117 285.250,268.883 285.250,268.417 284.250 C 268.096 283.563,266.783 283.000,265.500 283.000 C 264.217 283.000,262.904 283.563,262.583 284.250 C 262.117 285.250,261.883 285.250,261.417 284.250 C 260.614 282.531,244.000 282.483,244.000 284.200 C 244.000 285.133,243.733 285.133,242.800 284.200 C 241.355 282.755,232.000 282.581,232.000 284.000 C 232.000 284.550,229.750 285.000,227.000 285.000 C 224.250 285.000,222.000 284.550,222.000 284.000 C 222.000 283.450,220.875 283.000,219.500 283.000 C 218.125 283.000,217.000 283.450,217.000 284.000 C 217.000 284.596,213.167 285.000,207.500 285.000 C 201.833 285.000,198.000 284.596,198.000 284.000 C 198.000 282.593,193.389 282.755,190.856 284.250 C 189.162 285.250,188.648 285.250,188.286 284.250 C 187.751 282.773,181.000 282.542,181.000 284.000 C 181.000 284.556,178.333 285.000,175.000 285.000 C 171.667 285.000,169.000 284.556,169.000 284.000 C 169.000 283.387,164.167 283.000,156.500 283.000 C 148.833 283.000,144.000 283.387,144.000 284.000 C 144.000 284.556,141.333 285.000,138.000 285.000 C 134.667 285.000,132.000 284.556,132.000 284.000 C 132.000 283.450,129.975 283.000,127.500 283.000 C 125.025 283.000,123.000 283.450,123.000 284.000 C 123.000 284.550,121.875 285.000,120.500 285.000 C 119.125 285.000,118.000 284.573,118.000 284.052 C 118.000 283.531,115.300 283.117,112.000 283.133 C 108.700 283.149,106.000 283.575,106.000 284.081 C 106.000 284.586,105.325 285.000,104.500 285.000 C 103.675 285.000,103.000 284.550,103.000 284.000 C 103.000 283.450,101.875 283.000,100.500 283.000 C 99.125 283.000,98.000 283.450,98.000 284.000 C 98.000 284.577,94.853 285.000,90.559 285.000 C 86.466 285.000,82.840 284.550,82.500 284.000 C 82.160 283.450,80.109 283.000,77.941 283.000 C 75.773 283.000,74.000 283.450,74.000 284.000 C 74.000 284.550,72.875 285.000,71.500 285.000 C 70.125 285.000,69.000 284.550,69.000 284.000 C 69.000 282.477,54.300 282.715,53.583 284.250 C 53.117 285.250,52.883 285.250,52.417 284.250 C 51.722 282.761,43.000 282.529,43.000 284.000 M210.000 330.000 C 210.000 330.550,208.200 331.000,206.000 331.000 C 203.800 331.000,202.000 330.550,202.000 330.000 C 202.000 329.450,203.800 329.000,206.000 329.000 C 208.200 329.000,210.000 329.450,210.000 330.000 M207.000 343.870 C 207.000 344.348,209.038 344.970,211.529 345.250 C 216.078 345.763,220.000 348.728,220.000 351.653 C 220.000 352.394,220.450 353.000,221.000 353.000 C 221.550 353.000,222.000 354.575,222.000 356.500 C 222.000 358.425,221.583 360.000,221.073 360.000 C 220.564 360.000,219.999 360.765,219.819 361.700 C 219.543 363.134,219.068 362.977,216.791 360.700 C 214.028 357.937,212.000 357.217,212.000 359.000 C 212.000 359.550,211.363 360.000,210.583 360.000 C 209.804 360.000,208.904 360.563,208.583 361.250 C 208.117 362.250,207.883 362.250,207.417 361.250 C 207.096 360.563,205.296 360.000,203.417 360.000 C 201.537 360.000,200.000 359.550,200.000 359.000 C 200.000 358.450,198.425 358.000,196.500 358.000 C 193.433 358.000,193.000 358.310,193.000 360.500 C 193.000 364.223,191.188 363.521,190.435 359.507 C 189.114 352.461,193.017 346.358,199.521 345.303 C 201.434 344.992,203.000 344.347,203.000 343.869 C 203.000 343.391,203.900 343.000,205.000 343.000 C 206.100 343.000,207.000 343.391,207.000 343.870 " stroke="none" fill="#000000" fill-rule="evenodd"></path></g></svg>