<?xml version="1.0" encoding="UTF-8" standalone="no"?>
<!DOCTYPE svg PUBLIC "-//W3C//DTD SVG 1.1//EN" "http://www.w3.org/Graphics/SVG/1.1/DTD/svg11.dtd">
<svg width="100%" height="100%" viewBox="0 0 400 400" version="1.1" xmlns="http://www.w3.org/2000/svg" xmlns:xlink="http://www.w3.org/1999/xlink" xml:space="preserve" xmlns:serif="http://www.serif.com/" style="fill-rule:evenodd;clip-rule:evenodd;stroke-linejoin:round;stroke-miterlimit:2;">
    <g id="svgg">
        <path id="path0" d="M188,39.542C188,42.667 197.007,50.412 197.218,50.634C204.629,58.44 211.486,67.343 217.576,76.25C219.374,78.88 223.685,83.783 224.108,87C225.38,96.665 225.205,109.332 224.139,119C223.316,126.466 219.293,133.414 216,140C207.955,156.091 197.834,170.404 189,186C185.788,191.67 183.112,197.854 180.988,204C180.076,206.639 180.293,209.713 178.837,212.096C178.253,213.051 177.16,213.743 176.071,214C174.743,214.313 173.768,212.504 172.5,212C167.969,210.199 162.953,207.278 158,207C152.226,206.676 154.72,210.789 153.158,214.783C152.535,216.376 150.758,218.764 148.536,218.079C142.699,216.279 138.343,209.931 131.717,209.272C130.164,209.118 127.433,208.415 127.083,209.936C126.653,211.805 129.325,213.049 130.5,214.565C133.748,218.753 133.705,218.575 136.853,222.699C137.778,223.911 139.656,224.961 138.603,226.728C135.85,231.347 129.639,235.726 128.129,241C126.413,246.993 126.745,249.024 124.939,255C122.009,264.696 114.476,273.217 110.434,282.5C108.739,286.393 105.702,290.471 105.358,294.813C105.219,296.559 104.792,298.96 106.202,300C107.208,300.742 108.058,298.323 109,297.5C111.138,295.634 114.122,293.912 116.861,296.257C121.253,300.017 109.358,302.915 114.237,304.982C118.555,306.812 124,301.806 124,297.5C124,294.961 120.467,290.457 118.396,289.609C116.887,288.991 112.971,290.049 113.618,288.552C115.824,283.448 120.166,277.88 123.108,273C129.289,262.745 135.481,251.667 140.955,241C142.773,237.458 144.731,233.882 146.5,230.362L149.5,222.638C149.888,222.235 150.473,223.203 151,223.389C153.061,224.115 155.147,224.774 157.25,225.367C159.427,225.981 161.676,226.329 163.833,227.01C169.393,228.767 174.027,234.576 177.412,238.699C179.154,240.82 182.084,245.538 184.024,247.233C187.049,249.874 187.931,248.487 190.411,251.5C193.958,255.809 196.121,261.165 199.462,265.624C203.624,271.179 208.182,275.848 205.608,283.249C204.25,287.154 199.846,289.184 196.82,292C188.734,299.525 178.327,310.62 175.868,322C173.28,333.977 178.113,346.326 185.412,355.699C186.748,357.415 190.858,362.302 193.523,362.047C198.453,361.576 194,356.537 194,354.5C194,350.996 196.23,350.725 196.011,347.064C195.759,342.851 192.22,341.211 191.406,337.602C190.629,334.158 190.023,330.627 190.058,327.096C190.094,323.431 190.747,319.773 191.615,316.212C192.101,314.217 194.584,311.463 196,309.917C203.392,301.845 211.949,294.753 218.407,285.917C223.328,279.185 216.005,270.4 212.018,265.506C206.162,258.318 201.427,249.11 196.921,241C195.196,237.895 192.398,234.192 191.718,230.739C190.029,222.162 190.047,214.82 191.624,206.213C192.273,202.671 195.177,199.138 196.921,196C202.626,185.731 209.075,175.829 214.577,165.444C219.531,156.095 224.265,146.474 228.955,137C234.749,125.296 232.629,112.49 235.148,100C235.348,99.007 235.707,101.947 236,102.917C236.328,104.004 236.789,105.056 237.011,106.17C237.677,109.51 238.128,112.89 238.661,116.254C239.215,119.754 241.008,130.581 241,134.5C240.97,149.105 234.469,164.662 228.912,178C227.437,181.54 223.67,185.749 222.86,189.171C222.074,192.498 225.947,201.998 230.691,200.472C230.696,200.47 234.429,194.146 235.108,193C239.431,185.702 241.462,177.169 244,169.083C250.579,148.124 249.267,126.342 241.616,106C240.315,102.541 239.019,96.889 236.899,93.911C235.335,91.715 233.293,91.687 232.128,89C229.787,83.599 227.767,78.303 224.5,73.362C217.688,63.06 209.367,53.98 200.208,45.752C200.198,45.743 188,34.91 188,39.542M249.674,128.75C250.18,132.538 252.869,136.515 253.25,140.25C253.97,147.309 254.5,154.404 254.5,161.5C254.5,177.499 252.051,185.096 248.022,199C247.72,200.042 245.293,207.995 244.906,209C244.198,210.842 242,212.357 242,214.5C242,217.132 247.193,224.959 249.608,225C252.319,225.046 252.194,221.974 252.988,220C255.371,214.08 256.936,207.99 259.094,202C265.739,183.552 266.365,164.917 260.884,146C259.152,140.023 256.793,133.603 254.118,128C252.314,124.22 249.118,124.6 249.674,128.75M148,250.071C148,252.56 150.419,252.733 151.706,254C155.933,258.162 159.464,261.852 157,268C153.585,276.519 142.564,277.979 136.315,271.606C135.836,271.118 133.941,266.213 132,266C129.389,265.714 129.767,268.971 130.086,270.145C131.394,274.953 135.713,279.737 140.548,281.139C140.673,281.176 151.201,281.94 153,283C153.402,283.237 152.297,283.625 152.019,284C150.267,286.368 150.621,286.424 149.006,289C146.138,293.573 143.086,300.82 143,306.5C142.89,313.723 146.104,322.864 149.25,328.992C150.206,330.853 149.884,336.928 154.009,334.497C155.383,333.687 156.336,330.432 156.955,329C158.305,325.878 161.273,321.628 161.012,318.054C160.74,314.344 157.741,311.531 157,308C155.765,302.115 155.631,299.573 156.887,293.57C157.711,289.629 160.236,284.753 162.5,281.362C162.571,281.255 165.183,278.061 165.25,277.75C165.936,274.542 166.473,271.264 166.457,267.984C166.402,257.221 164.441,257.362 157.929,252C156.521,250.841 152.501,249.123 151.036,249.037C149.969,248.975 148,249.002 148,250.071"/>
    </g>
</svg>
