<svg width="100%" height="100%" viewBox="0 0 400 400" version="1.1" xmlns="http://www.w3.org/2000/svg" style="fill-rule:evenodd;clip-rule:evenodd;stroke-linejoin:round;stroke-miterlimit:2;">
<g>
<path d="M129.334,16.227C128.67,17.963 132.178,24.969 132.408,25.613C134.664,31.93 136.854,38.229 139.263,44.495C141.177,49.474 141.969,54.923 144.254,59.741C148.918,69.574 160.772,77.922 168.862,85.1C187.434,101.578 203.778,120.265 222,137.064C223.516,138.462 226.086,138.323 227.573,139.752C238.754,150.496 248.886,161.733 259.259,173.162C264.863,179.337 270.613,187.195 276.989,192.468C277.832,193.165 279.767,194.239 280.183,193.227C281.2,190.754 278.08,187.087 277.206,184.956C274.369,178.04 272.43,170.045 270.097,162.892C266.886,153.048 270.303,142.648 266.241,132.981C263.27,125.91 252.542,120.15 246.86,114.8C227.929,96.975 207.18,81.011 187.583,63.936C172.146,50.485 156.647,37.288 141.194,23.881C138.679,21.699 136.236,19.433 133.646,17.341C133.565,17.275 130.19,13.997 129.334,16.227M23.744,40.601C22.514,43.811 28.769,48.69 30,50.545C36.195,59.879 43.167,68.802 49.766,77.862C58.061,89.251 65.942,103.958 76.612,113.2C79.277,115.508 83.921,117.11 87.091,118.919C95.382,123.65 103.655,128.394 112,133.031C137.892,147.417 163.339,162.584 189.2,177.024C195.786,180.701 204.752,187.124 212.384,189.628C224.446,193.585 237.47,195.532 249.8,198.626C257.452,200.546 265.2,202.213 272.823,204.206C274.6,204.671 276.344,205.254 278.114,205.745C279.577,206.15 283.046,207.159 282.667,205.689C281.448,200.958 275.887,196.259 273.043,193.2C265.586,185.179 258.187,177.1 250.8,169.019C243.748,161.305 234.961,148.726 225.74,143.074C214.699,136.307 201.917,130.658 190.4,124.745C156.93,107.562 122.556,91.813 89.736,73.378C74.079,64.583 57.765,56.803 41.873,48.395C38.302,46.505 30.949,41.391 26.991,40.385C25.94,40.118 24.133,39.588 23.744,40.601M122.838,50.368C120.751,51.692 122.942,55.315 123.179,57.775C123.927,65.551 129.283,70.074 133.953,75.738C142.142,85.67 150.383,95.482 159.775,104.4C166.311,110.606 177.642,112.463 185.252,116.37C186.28,116.898 186.501,118.401 187.465,119.038C190.733,121.196 194.326,122.614 197.872,124.175C198.949,124.649 200.84,126.014 202.156,124.971C202.595,124.623 202.081,123.791 201.747,123.341C200.774,122.028 199.499,120.969 198.336,119.821C186.78,108.411 174.874,97.283 163.103,86.094C154.629,78.039 145.38,68.267 135.736,60.8C133.114,58.77 130.511,55.797 128.049,53.594C126.526,52.232 124.564,49.276 122.838,50.368M39.067,89.067C37.947,90.185 45.693,100.097 47.081,102C51.503,108.061 55.734,115.866 60.8,121.51C66.016,127.321 70.131,129.84 75.7,134.515C93.014,149.049 111.847,162.187 130.742,174.741C139.038,180.253 148.129,187.833 157.189,192.23C170.117,198.504 185.704,200.133 199.096,205.6C211.902,210.828 224.461,217.728 236.8,223.942C239.702,225.404 250.147,228.347 251.623,231.54C254.742,238.29 239.968,234.808 237.914,234.665C217.803,233.261 197.678,231.27 177.773,229.613C168.721,228.859 168.707,226.71 159.852,229.282C158.385,229.708 156.846,229.834 155.352,230.151C154.095,230.418 150.956,229.92 151.6,231.032C152.746,233.01 155.619,233.217 157.689,234.185C160.135,235.329 165.381,237.966 168.029,238.357C172.969,239.087 180.144,238.176 184.902,241.095C186.421,242.027 183.6,244.606 182.2,245.709C174.503,251.775 165.707,256.829 157.4,262.036C149.976,266.69 138.69,271.606 133.035,278.206C128.692,283.275 125.015,289.146 121.14,294.551C116.157,301.5 110.154,308.242 108.974,317.11L108.697,319.2L109.85,319.2C111.699,319.2 114.691,314.605 115.537,313.469C119.717,307.858 123.761,304.788 129.8,301.406C157.859,285.694 185.209,268.642 212.78,252.172C217.486,249.36 222.494,245.297 227.642,243.44C230.136,242.54 232.932,243.812 235.57,244.081C241.445,244.681 247.31,245.365 253.184,245.979C258.986,246.586 264.899,247.738 270.73,247.51C272.877,247.426 274.788,249.514 276.4,247.278C278.758,244.007 275.2,241.722 275.2,239.013C275.2,233.743 276.4,228.518 276.4,223.248L276.4,208.496L274.852,206.901C271.244,203.184 261.718,202.721 257.02,201.538C242.364,197.847 226.999,195.25 212.6,190.577C203.004,187.463 194.248,180.98 185.464,176.062C167.24,165.858 149.247,155.245 131,145.072C119.336,138.569 107.827,131.79 96.2,125.224C89.539,121.463 80.648,117.981 74.726,113.148C70.829,109.968 68.188,105.404 64.208,102.329C58.581,97.982 51.148,94.853 45,91.16C44.18,90.667 40.399,87.732 39.067,89.067M163.362,105.445C163.398,105.538 163.423,105.634 163.443,105.731C163.469,105.857 163.383,105.95 163.255,105.924C163.014,105.875 162.675,105.734 162.466,105.672C162.36,105.641 162.25,105.629 162.144,105.6C162.124,105.594 162.099,105.587 162.089,105.568C162.059,105.512 162.102,105.397 162.119,105.355C162.213,105.131 162.399,104.872 162.655,104.824C163.02,104.756 163.255,105.166 163.362,105.445M52.3,131.825C51.063,133.1 68.335,148.16 70.74,150.332C80.998,159.597 91.219,170.273 103.2,177.229C108.869,180.52 116.807,182.231 122.932,184.002C131.304,186.422 139.473,189.484 147.86,191.842C149.31,192.25 152.255,193.015 152.366,191.513C152.516,189.471 149.157,187.839 148.2,187.218C143.933,184.451 139.614,181.858 135.398,179C127.65,173.749 119.257,169.135 111.806,163.5C100.873,155.232 90.108,145.597 78.496,138.375C73.455,135.241 64.592,134.789 59.187,133.005C57.507,132.45 53.485,130.609 52.3,131.825M277.335,170.626C277.029,171.42 277.726,172.405 277.911,173.117C278.227,174.328 278.09,176.148 279.028,177.126C279.876,178.01 282.141,178.144 282.749,176.893C283.086,176.199 282.737,175.689 282.393,175.11C281.759,174.043 280.703,172.055 279.857,170.918C279.273,170.134 277.839,169.311 277.335,170.626M88.3,174.623C87.616,175.33 88.719,176.644 89.388,177.365C90.687,178.764 92.454,179.641 94,180.761C101.399,186.122 109.075,191.158 116.641,196.278C122.946,200.544 129.342,205.015 136.219,208.188C142.845,211.245 150.375,212.69 157.4,214.593C169.413,217.847 181.428,221.833 193.2,225.715C199.296,227.725 206.247,228.587 212.6,228.814C218.004,229.007 223.421,228.747 228.82,229.05C230.599,229.15 232.308,230.892 234.005,230.349C234.609,230.156 235.703,229.227 235.187,228.857C224.754,221.383 212.543,216.866 200.999,211.595C189.95,206.55 177.728,201.813 165.694,199.1C160.465,197.921 154.921,197.672 149.746,196.5C138.998,194.065 128.151,189.426 117.481,186.353C110.383,184.309 104.231,182.147 98.2,177.987C97.434,177.458 90.486,172.364 88.3,174.623M145.892,188.642C145.805,188.729 145.648,188.722 145.541,188.709C145.205,188.666 144.843,188.493 144.594,188.265C144.519,188.197 144.337,188.01 144.417,187.878C144.503,187.735 144.828,187.846 144.91,187.874C145.217,187.982 145.534,188.161 145.771,188.386C145.79,188.403 145.969,188.565 145.892,188.642M282.4,210.353L281,210.6L280.895,226.003L280.791,241.406L281.665,241.803C282.147,242.021 282.876,242.855 283.286,243.655L284.032,245.11L290.844,245.402C298.141,245.715 297.934,245.647 299.341,248.197L300.222,249.795L306.611,249.847C309.558,249.871 312.509,250.045 315.435,250.394C319.213,250.846 321.652,252.037 325.068,253.082C326.507,253.522 327.561,254.133 328.319,252.377C329.572,249.475 323.909,247.485 322.95,247.105C321.956,246.711 320.737,247.662 319.746,247.261C319.606,247.204 316.609,244.594 316.487,244.527C313.888,243.103 310.718,243.282 308.096,241.981C304.42,240.156 300.788,238.548 297.061,236.8C293.973,235.352 289.48,235.159 287.478,232.024C285.375,228.731 288.242,227.969 290.708,227.2C291.701,226.89 293.834,226.442 293.342,225.525C291.748,222.559 286.845,225.565 287,220.635C287.028,219.748 286.934,218.673 287.545,218.031C288.178,217.367 289.304,217.508 290.193,217.284C292.482,216.708 296.104,216.793 298.169,215.945C301.548,214.557 296.626,213.032 296.4,212.979C291.657,211.869 287.41,209.467 282.4,210.353M308.2,218.849C306.002,219.147 303.797,219.383 301.6,219.688C300.373,219.859 299.091,219.844 297.93,220.277C296.859,220.676 297.288,222.202 297.873,222.661C300.184,224.474 304.246,224.804 306.837,226.215C308.033,226.867 309.246,227.541 310.251,228.461C310.592,228.774 311.252,230.808 310.41,231.2C309.09,231.815 307.57,231.926 306.116,232L302.2,232.2L302.073,233.3C302.004,233.899 302.559,234.492 303.073,234.808C306.408,236.86 310.917,238.156 314.595,239.584C321.271,242.176 327.149,244.847 333.787,248.171C340.308,251.436 346.9,258.58 353.29,251.114C354.813,249.335 353.035,246.644 350.853,246.959C348.675,247.274 346.813,248.872 344.633,249.172C343.718,249.298 339.847,248.77 340.4,246.859C341.321,243.677 345.637,239.68 349.065,239.235C350.174,239.091 354.908,242.343 356.169,241.141C357.045,240.308 355.394,238.372 355.228,238.108C353.005,234.568 350.762,229.063 346.974,227.087C345.624,226.383 344.01,226.383 342.536,226C338.565,224.967 334.532,223.595 330.6,222.405C323.005,220.105 316.33,217.741 308.2,218.849M153.426,231.1C153.415,231.175 153.381,231.305 153.342,231.372C153.235,231.558 153.099,231.732 152.881,231.786C152.364,231.913 151.988,231.228 152.064,230.789C152.12,230.467 152.457,230.4 152.735,230.4C153.018,230.4 153.348,230.478 153.422,230.794C153.444,230.893 153.441,231 153.426,231.1M355.68,240.88C355.479,241.081 355.145,241.139 354.882,241.037C354.661,240.952 354.448,240.756 354.608,240.518C354.637,240.476 354.668,240.435 354.705,240.401C354.969,240.158 355.233,239.95 355.591,239.882C355.831,239.837 356.037,240.018 356.023,240.257C356.009,240.497 355.841,240.719 355.68,240.88M346.785,241.184C345.529,242.257 345.346,241.894 343.974,242.787C342.819,243.539 342,245.072 342,246.447L342,248.4L343.922,248.4C345.788,248.4 345.751,248.174 347.2,247C347.942,246.399 348.93,245.362 350.042,245.62C350.855,245.809 351.409,246.58 352.127,247.005C352.321,247.12 355.462,248.928 356.189,249.087C357.101,249.286 357.794,248.949 358.138,248.07C359.102,245.609 357.347,243.856 355.415,242.8C353.312,241.651 350.903,239.173 348.263,240.247C347.723,240.467 347.228,240.805 346.785,241.184M234.8,248.633C233.59,249.304 232.041,248.909 230.687,249.194C226.405,250.095 221.87,252.233 218.102,254.334C212.544,257.433 206.09,260.231 200.9,263.966C198.305,265.834 196.618,268.973 194.145,270.966C187.384,276.414 179.979,280.254 174,286.625C171.553,289.233 170.471,294.964 169.2,298.357C167.151,303.827 164.745,309.239 162.422,314.602C159.496,321.357 156.72,328.164 154,335C152.996,337.523 150.527,342.068 150.853,344.87C151.277,348.514 154.944,350.964 156.838,354.105C160.992,360.993 163.728,368.794 167.77,375.798C168.93,377.808 169.577,382.819 172.371,383.125C175.035,383.417 174.496,378.016 174.373,375.339C174.2,371.589 173.378,361.39 172.297,357.038C170.919,351.493 164.403,344.83 164.027,339.425C163.762,335.616 169.314,327.085 170.671,323.88C172.052,320.617 173.932,318.223 175.575,315.19C179.01,308.848 180.752,301.264 183.987,294.696C185.639,291.342 188.398,285.727 192.907,286.907C196.442,287.833 196.394,292.894 200.498,291.2C205.255,289.236 210.285,284.326 214.4,281.516C222.713,275.84 231.226,270.419 239.669,264.943C240.083,264.674 255.893,256.167 256.348,253.312C256.686,251.191 253.392,250.306 252.236,250.194C249.72,249.95 247.188,250.848 244.667,250.661C241.903,250.456 237.827,246.953 234.8,248.633M360.8,248.6C360.526,248.93 360.069,249.2 359.784,249.2C359.5,249.2 359.207,249.335 359.133,249.5C359.06,249.665 358.19,250.198 357.2,250.684C356.21,251.17 354.95,251.831 354.4,252.154C353.85,252.477 353.13,252.847 352.8,252.976C346.669,255.382 345.671,256.882 347.578,260.82C348.25,262.207 348.8,263.5 348.8,263.693C348.8,263.886 349.177,264.871 349.637,265.881C350.511,267.8 350.517,267.752 349.03,270.334C348.735,270.847 348.292,271.468 348.046,271.714C347.801,271.959 347.6,272.844 347.6,273.68L347.6,275.2L355.218,275.2L356.954,273.6C357.908,272.72 358.816,272 358.972,272C359.127,272 360.322,271.06 361.627,269.911L364,267.822L364,258.573C364,250.121 363.937,249.267 363.269,248.662C362.359,247.839 361.45,247.816 360.8,248.6M268.989,249.967C264.289,254.531 257.931,256.997 252.46,260.6C243.31,266.626 234.208,272.682 224.985,278.6C222.066,280.473 217.053,282.857 214.561,285.392C213.795,286.171 212.8,287.064 212.8,288.156L212.8,289.493L222.1,289.298C225.107,289.235 228.169,289.447 231.109,288.812C232.244,288.567 233.367,286.491 234.287,285.711C238.528,282.118 242.848,278.618 247.154,275.103C253.666,269.786 260.281,262.676 267.68,258.679C273.015,255.797 281.176,255.262 286.8,253.56C288.208,253.134 289.871,253.006 290.916,251.971C291.461,251.432 291.45,249.914 290.72,249.68C284.952,247.834 284.986,250.433 278.983,250.481C277.236,250.495 275.565,249.667 273.82,249.577C272.207,249.494 270.148,248.841 268.989,249.967M329.467,252.267C328.81,252.923 329.22,254.136 329.882,254.62C330.24,254.882 330.912,255.044 331.249,255.119C332.06,255.301 333.379,255.433 333.972,254.662C334.457,254.031 334.046,253.034 333.468,252.618C332.642,252.022 331.355,251.824 330.363,251.937C330.08,251.969 329.686,252.047 329.467,252.267M181.757,271.321C167.188,279.121 153.287,288.674 139,297.056C135.562,299.073 128.666,302.612 125.319,304.996C124.656,305.468 123.815,306.089 123.792,306.903C122.993,335.734 122.49,335.87 128.068,356.2C129.796,362.499 131.847,368.717 133.6,375C134.03,376.54 133.952,381 136.4,381L137.4,381L137.6,371.6C137.877,358.607 144.61,346.486 149.991,334.8C155.386,323.084 159.815,310.905 164.777,299C167.048,293.55 168.818,285.793 173.381,281.6C176.707,278.543 184.15,276.149 185.533,271.543C185.896,270.335 182.869,270.727 181.757,271.321M251.751,289.9C250.266,294.541 246.712,299.379 246.128,304.24C245.912,306.041 247.179,307.051 247.397,308.689C247.615,310.327 247.614,311.987 247.657,313.638L247.808,319.469L249.904,321.889C252.406,324.778 254.935,327.908 257.2,330.983C258.014,332.089 258.2,333.711 260.143,333.522L261.4,333.4L261.278,329.815C261.076,323.882 260.269,317.732 259.595,311.835C259.338,309.591 258.741,309.541 259.931,307.462C260.239,306.923 261.193,306.722 261.692,307.091C263.128,308.149 267.095,312.12 268.627,313.14C269.709,313.859 271.498,314.622 271.111,312.343C270.695,309.896 268.837,305.731 266.651,304.215C264.475,302.707 262.051,301.591 259.8,300.198C258.776,299.564 256.587,298.313 257.44,297.463C258.415,296.491 261.586,297.882 261.974,298.032C263.731,298.712 268.827,302.138 270.7,299.48C271.571,298.245 269.728,296.348 269.113,295.872C266.644,293.967 261.896,292.149 259.04,290.994C257.407,290.334 255.771,289.657 254.07,289.196C253.498,289.041 252.037,289.006 251.751,289.9M215,290.858C213.606,291.184 211.922,291.038 210.859,291.997C209.052,293.627 208.893,296.349 209.338,298.421C209.832,300.722 210,303.095 210.638,305.36C211.867,309.727 214.214,313.699 216.029,317.856C216.878,319.8 217.639,322.641 219.425,323.945C221.159,325.212 224.236,323.252 225.345,322.855C227.931,321.93 230.426,320.762 233,319.804C236.022,318.679 236.01,318.813 239,317.614C240.795,316.895 242.697,316.402 244.387,315.463C245.503,314.843 245.977,314.09 246.229,312.849C246.383,312.088 246.48,311.298 246.4,310.526C245.857,305.293 240.18,305.063 237.046,301.397C233.823,297.627 233.828,296.182 231.623,292L230.884,290.6L223.742,290.542C219.814,290.51 215.88,290.652 215,290.858M190.497,293.663C189.12,295.04 188.862,297.198 188.051,298.969C186.588,302.166 185.072,305.338 183.6,308.531C180.501,315.253 177.487,322.013 174.391,328.736C173.523,330.621 170.409,336.833 170.077,338.747C169.661,341.14 173.334,344.755 174.383,346.034C180.58,353.59 185.759,363.923 193.398,370C193.837,370.35 194.579,369.465 194.685,368.914C195.248,365.987 192.381,354.564 197.429,354.4C200.387,354.304 201.896,359.372 202.575,360.604C203.702,362.649 206.664,370.384 208.8,372.062C211.661,374.309 220.888,369.133 223.291,368.042L225.583,367L225.36,362.4C225.249,360.091 225.679,357.383 224.269,355.551C219.19,348.955 207.43,344.976 204.438,336.484C204.395,336.362 203.703,328.785 203.657,328.235C202.936,319.561 202.336,310.876 201.674,302.2L201.4,298.6L199.4,298.576C195.185,298.526 195.941,297.007 193.391,294.208C192.754,293.509 191.439,292.721 190.497,293.663M229.907,339.5C227.618,342.092 227.676,345.855 225.997,348.602C225.228,349.86 224.34,349.589 224.374,351.37C224.436,354.618 226.026,357.68 226.365,360.911C226.647,363.605 226.789,366.341 226.511,369.036L226.288,371.2L229.544,374.763C231.447,376.845 232.752,379.469 234.847,381.356C235.728,382.149 236.701,383.2 237.886,383.2L239.31,383.2L239.011,380.9C237.994,373.095 237.608,365.213 237.32,357.347C237.296,356.701 238.721,356.939 239.257,357.3C240.645,358.233 247.554,366.315 247.928,361.041C248.257,356.399 243.381,353.449 240,351.559C239.21,351.117 234.206,349.157 234.825,347.432C235.216,346.34 237.209,347.226 238.298,347.625C240.015,348.253 246.426,352.445 247.723,349.676C248.446,348.132 247.604,346.327 246.225,345.466C242.874,343.373 237.095,341.098 233.863,339.773C232.627,339.266 231.112,338.133 229.907,339.5M137.2,379.976C137.2,380.395 136.773,380.696 136.383,380.7C136.074,380.703 135.715,380.491 135.76,380.137C135.809,379.755 136.299,379.609 136.621,379.61C136.695,379.61 136.769,379.617 136.842,379.633C137.013,379.672 137.2,379.78 137.2,379.976"/>
<path d="M162.2,105.2C162.064,105.42 162.039,105.6 162.144,105.6C162.249,105.6 162.621,105.71 162.972,105.845C163.438,106.024 163.543,105.916 163.362,105.445C163.082,104.715 162.567,104.606 162.2,105.2M144.4,187.943C144.4,188.354 145.612,188.922 145.892,188.642C145.989,188.544 145.693,188.264 145.234,188.018C144.775,187.773 144.4,187.739 144.4,187.943M183.455,230.6C183.582,230.93 183.846,231.2 184.043,231.2C184.239,231.2 184.4,230.93 184.4,230.6C184.4,230.27 184.136,230 183.813,230C183.455,230 183.315,230.235 183.455,230.6M152.076,231.1C152.15,231.485 152.461,231.8 152.767,231.8C153.073,231.8 153.37,231.485 153.426,231.1C153.495,230.634 153.264,230.4 152.735,230.4C152.194,230.4 151.984,230.623 152.076,231.1M275.273,239.069C275.458,240.626 276.4,240.764 276.4,239.233C276.4,238.38 276.207,238 275.773,238C275.329,238 275.184,238.311 275.273,239.069M355.035,240.125C354.473,240.536 354.406,240.757 354.774,240.984C355.352,241.341 356.159,240.676 355.94,240.021C355.836,239.709 355.561,239.741 355.035,240.125M135.817,379.972C135.691,380.177 135.77,380.458 135.993,380.596C136.471,380.891 137.2,380.517 137.2,379.976C137.2,379.49 136.117,379.487 135.817,379.972"/>
</g>
</svg>
