<svg width="100%" height="100%" viewBox="0 0 400 400" version="1.1" xmlns="http://www.w3.org/2000/svg" style="fill-rule:evenodd;clip-rule:evenodd;stroke-linejoin:round;stroke-miterlimit:2;">
    <g>
        <path d="M180.88,18.88C180.616,19.144 180.4,19.954 180.4,20.68L180.4,22L175.409,22C166.935,22 162.106,25.498 154.177,27.6C150.349,28.615 146.237,28.515 142.512,29.862C140.397,30.627 139.042,32.785 137.035,33.8C129.017,37.856 129.26,37.862 122.2,43.2C119.963,44.891 117.041,45.516 114.8,47.202C105.694,54.052 97.992,62.977 90.443,71.386C83.439,79.188 83.652,79.201 77.577,87.807C76.231,89.714 74.814,89.972 74.806,92.7L74.8,94.8L73.48,94.8C71.109,94.8 68.747,101.461 68.347,102.516C65.678,109.553 63.597,119.784 57.953,125.6L56.4,127.201L56.4,130.904C56.4,140.835 50.971,152.68 49.484,162.283C45.172,190.126 47.08,218.445 43.039,246.295C38.763,275.765 35.627,274.847 25.988,303.057C22.926,312.021 21.685,321.901 19.814,331.2C19.061,334.944 13.079,346.379 17.191,350.084C18.74,351.48 21.684,350.8 23.372,350.8L29.098,350.8L29.349,352.373C30.089,357.005 36.775,356.392 39.532,356.395L45.663,356.4L47.463,354.6C51.681,350.382 59.841,350.453 64.995,349.7C75.616,348.149 80.715,346.437 91.507,348C98.86,349.065 102.238,358.412 106.228,362.884C113.909,371.493 114.267,370.982 120.563,380.6L121.218,381.6L145.595,381.6C153.857,381.6 162.156,381.741 170.371,380.853C174.52,380.404 177.637,376.403 181.4,375.2C184.539,374.197 193.047,374.736 195.769,371.795L196.7,370.791L204.583,370.772L212.465,370.753L213.413,371.776C215.419,373.94 220.122,374.359 222.564,375.4C227.51,377.509 231.644,381.027 237.279,381.456C250.758,382.483 264.31,382.019 277.825,382.344C280.879,382.417 289.551,382.34 292.4,380.545C294.659,379.122 295.649,376.287 297.537,374.4C299.772,372.166 301.582,373.294 301.594,369.324L301.6,367.248L303.1,367.124C307.02,366.801 308.004,360.524 310.614,358.757C314.36,356.222 325.404,352.668 329.974,352.602C334.238,352.541 338.376,354.4 342.641,354.4L349.663,354.4L351.215,352.784L352.768,351.168L353.584,351.984C356.634,355.034 370.308,351.73 370.724,346.7L370.848,345.2L373.262,345.2C381.076,345.2 385.952,331.2 376.367,331.2L374.4,331.2L374.4,329.803C374.4,326.514 372.405,323.535 371.41,320.4C369.462,314.267 367.637,308.094 365.571,302C357.596,278.48 343.6,251.989 343.6,226.113L343.6,217.618L342.6,216.963C340.503,215.59 340.611,211.488 340.557,209.6C340.026,191.203 339.944,172.44 338.014,154.074C337.64,150.514 336.312,151.203 335.186,147.796C331.248,135.884 332.96,135.57 328.828,123.779C325.148,113.276 324.103,113.984 318.8,104.116C310.311,88.317 311.926,87.383 300.383,73.602C283.846,53.857 264.571,43.031 242.297,31.197C239.259,29.583 236.58,27.263 233.379,26.003C231.436,25.238 220.007,23.999 218,23.629C210.226,22.197 210.734,21.164 202.971,19.029C198.39,17.769 185.758,14.002 180.88,18.88M236.743,30.1C236.686,30.207 236.619,30.309 236.541,30.402C236.473,30.482 236.393,30.553 236.307,30.614C235.713,31.039 235.126,30.519 234.814,30.026C234.681,29.816 234.348,29.331 234.459,29.031C234.56,28.761 235.1,28.744 235.3,28.726C235.867,28.675 236.83,28.716 236.889,29.485C236.897,29.582 236.89,29.683 236.867,29.778C236.84,29.89 236.797,29.998 236.743,30.1M136.4,36.414C136.4,37.058 136.068,37.754 135.415,37.947C134.936,38.088 134.473,37.877 134.12,37.56C134.022,37.472 133.933,37.33 133.922,37.195C133.911,37.052 133.976,36.889 134.058,36.777C134.445,36.244 134.953,35.971 135.609,35.932C135.914,35.914 136.4,36.033 136.4,36.414M117.927,47.731C117.982,48.198 117.812,48.742 117.282,48.828C117.171,48.846 117.056,48.838 116.946,48.816C116.519,48.727 116.203,48.361 116,48C115.9,47.822 115.781,47.59 115.784,47.375C115.785,47.233 115.908,47.141 116.045,47.13C116.232,47.116 116.555,47.254 116.712,47.059C116.853,46.884 116.717,46.594 116.883,46.437C117.016,46.311 117.211,46.428 117.318,46.526C117.661,46.838 117.872,47.272 117.927,47.731M294.983,69.228C294.956,69.272 294.932,69.321 294.927,69.372C294.903,69.626 295.194,69.571 295.341,69.647C295.593,69.779 295.683,70.216 295.533,70.448C295.35,70.731 294.96,70.807 294.649,70.8C294.102,70.787 293.407,70.596 293.123,70.073C292.67,69.238 293.804,68.691 294.469,68.631C294.736,68.607 295.182,68.721 295.057,69.076C295.039,69.129 295.013,69.18 294.983,69.228M322.204,109.193C321.896,109.69 323.06,109.721 322.712,110.208C322.297,110.789 321.211,111.005 320.742,110.365C320.594,110.163 320.507,109.979 320.475,109.727C320.46,109.616 320.459,109.501 320.476,109.39C320.572,108.777 321.122,108.647 321.664,108.632C321.884,108.626 322.361,108.706 322.273,109.032C322.258,109.089 322.235,109.143 322.204,109.193M220.723,113.659C223.066,116.99 227.956,117.541 231.041,120.199C233.994,122.742 238.567,130.847 239.814,134.4C243.245,144.173 241.531,157.214 235.815,165.85C234.19,168.305 231.253,168.901 229.167,170.728C225.015,174.363 221.163,180.804 214.6,180.4C202.149,179.633 193.059,169.88 180.603,169.051C164.53,167.98 149.995,186.897 134.2,177.6C123.994,171.592 116.627,156.691 116.309,145.312C115.875,129.82 128.804,112.8 145.176,112.8L150.753,112.8L152.579,114.6C155.005,116.993 159.303,117.486 162.2,118.8C167.8,121.341 172.341,125.317 178.959,125.2C185.742,125.08 192.844,120.881 198.614,118C205.973,114.325 205.642,113.921 213.666,112.591C215.102,112.353 219.486,111.906 220.723,113.659M60,127.765C60,128.734 58.884,129.122 58.079,128.937C57.778,128.868 57.168,128.634 57.182,128.237C57.19,128.009 57.414,128.045 57.573,128C57.745,127.951 57.802,127.909 57.911,127.765C58.145,127.454 58.161,126.977 58.543,126.788C59.178,126.474 60,127.099 60,127.765M336.6,152.706C336.749,152.815 336.85,153.019 336.896,153.191C337.05,153.772 337.017,154.47 336.698,154.995C336.406,155.477 335.852,155.602 335.411,155.224C334.879,154.767 334.724,154.026 334.837,153.36C334.961,152.632 335.533,152.17 336.241,152.493C336.368,152.55 336.488,152.624 336.6,152.706M50.8,178.822C50.8,179.355 50.169,179.754 49.733,179.916C49.527,179.993 49.174,180.11 48.978,179.912C48.743,179.674 48.709,179.324 48.699,179.01C48.689,178.685 48.671,178.18 48.947,177.943C49.09,177.819 49.301,177.95 49.453,177.839C49.577,177.748 49.572,177.69 49.6,177.551C49.607,177.519 49.607,177.382 49.663,177.348C49.816,177.253 50.103,177.51 50.2,177.6C50.535,177.912 50.8,178.35 50.8,178.822M48.664,202.978C48.391,203.689 47.19,203.804 46.709,203.254C46.415,202.919 46.467,202.486 46.635,202.107C46.77,201.8 47.054,201.377 47.435,201.373C47.558,201.371 47.668,201.477 47.79,201.469C47.975,201.458 48,201.265 48.027,201.124C48.037,201.071 48.037,200.967 48.121,200.985C48.269,201.018 48.439,201.393 48.478,201.478C48.684,201.92 48.847,202.5 48.664,202.978M349.534,259.721C349.911,260.176 349.808,260.906 349.655,261.424C349.593,261.634 349.483,261.907 349.258,261.989C348.827,262.145 348.242,261.808 347.945,261.523C347.39,260.99 347.636,260.183 348.08,259.68C348.25,259.488 348.546,259.221 348.836,259.228C349.131,259.236 349.369,259.522 349.534,259.721M356.352,278.063C356.922,278.419 357.153,279.46 356.616,279.935C356.57,279.975 356.444,280.004 356.386,280C356.004,279.972 355.873,279.952 355.531,279.778C355.05,279.533 354.668,278.914 354.786,278.368C354.834,278.143 354.916,278.038 355.067,277.867C355.137,277.788 355.289,277.649 355.401,277.631C355.73,277.579 356.116,277.916 356.352,278.063M241.799,307.54C249.076,315.192 254.456,325.74 263.001,332.379C264.968,333.907 268.142,333.574 269.835,335.4L270.762,336.4L278.681,336.395C289.385,336.388 301.771,332.694 312.237,329.8C315.659,328.854 320.248,325.924 323.6,325.571C328.499,325.055 338.792,328.028 342.564,331.8L343.564,332.8L342.564,333.8C342.525,333.839 337.464,335.503 337.107,335.6C330.82,337.305 325.386,340.4 318.926,340.4L312.251,340.4L309.727,343C307.102,345.703 306.319,344.017 303.132,345.939C301.146,347.137 297.043,351.242 295.389,352.8C292.701,355.333 287.22,360.441 284.9,364.092C283.425,366.414 282.998,369.766 280.982,371.782L279.964,372.8L265.396,372.8C255.466,372.8 240.084,371.044 232.273,363L229.749,360.4L226.701,360.4C222.615,360.4 222.801,356.962 219.379,356.598C217.036,356.349 202.946,356.348 200.608,356.6C196.057,357.091 187.156,357.657 182.716,358.999C179.506,359.97 180.48,362 177.128,362L174.263,362L172.538,363.8C170.207,366.233 161.678,369.2 158.188,369.2L154.405,369.2L150.753,372.8L143.376,372.8C140.91,372.8 138.431,372.642 136,372.227C135.387,372.122 133.662,369.944 133.187,369.481C129.775,366.16 126.745,362.431 123.6,358.981C118.94,353.868 114,349.016 109.235,344C107.324,341.989 107.214,338.598 104.713,337.138C97.428,332.884 86.639,335.657 78.7,334.312C77.853,334.169 80.089,333.301 80.786,332.8C84.179,330.362 87.109,327.551 90.8,325.571C99.708,320.793 109.613,316.4 120,316.4C135.032,316.4 149.702,321.6 164.6,321.6C176.876,321.6 188.731,316.4 200.832,316.4L205.663,316.4L207.463,314.6C209.57,312.493 212.92,312.414 215.765,311.8C221.232,310.62 226.224,309.503 231.437,308.8C235.616,308.236 239.108,304.718 241.799,307.54"/>
        <path d="M235.3,28.726C234.276,28.873 234.243,28.96 234.814,30.026C235.33,30.99 236.253,31.025 236.743,30.1C237.216,29.209 236.525,28.55 235.3,28.726M134.34,36.436C133.86,36.934 133.8,37.24 134.12,37.56C135.06,38.5 136.4,37.826 136.4,36.414C136.4,35.76 134.978,35.775 134.34,36.436M116.8,46.767C116.8,47.005 116.665,47.179 116.5,47.153C115.739,47.032 115.604,47.261 116,48C116.671,49.254 118.084,49.057 117.927,47.731C117.806,46.715 116.8,45.854 116.8,46.767M294,68.714C293.108,69.02 292.79,69.706 293.272,70.287C293.871,71.009 295.6,70.944 295.6,70.2C295.6,69.87 295.409,69.6 295.176,69.6C294.943,69.6 294.856,69.432 294.983,69.228C295.287,68.736 294.752,68.456 294,68.714M321.077,108.704C320.123,108.92 320.336,110.541 321.342,110.733C322.247,110.906 323.274,110 322.498,109.716C322.221,109.615 322.089,109.379 322.204,109.193C322.487,108.735 321.957,108.505 321.077,108.704M58.2,127.2C58.06,127.64 57.778,128 57.573,128C56.835,128 57.219,128.712 58.079,128.937C59.754,129.374 60.709,127.608 59.227,126.814C58.599,126.478 58.406,126.551 58.2,127.2M335.067,152.667C334.579,153.154 334.791,154.695 335.417,155.214C336.192,155.857 336.971,155.202 336.988,153.892C337.004,152.668 335.82,151.913 335.067,152.667M49.6,177.551C49.6,177.798 49.375,177.955 49.1,177.9C48.788,177.838 48.641,178.166 48.709,178.775C48.848,180.029 48.968,180.127 49.97,179.81C50.939,179.502 51.062,178.316 50.2,177.6C49.785,177.256 49.6,177.241 49.6,177.551M48.027,201.124C48.012,201.412 47.84,201.549 47.645,201.428C47.117,201.101 46.275,202.298 46.543,202.995C46.847,203.787 48.358,203.775 48.664,202.978C48.795,202.636 48.712,201.961 48.478,201.478C48.245,200.995 48.042,200.836 48.027,201.124M348.08,259.68C347.104,260.656 347.745,262 349.186,262C349.728,262 349.992,260.273 349.534,259.721C348.998,259.075 348.693,259.067 348.08,259.68M355.067,277.867C354.278,278.655 355.11,280 356.386,280C357.09,280 357.064,278.507 356.352,278.063C355.488,277.523 355.42,277.513 355.067,277.867" style="fill:rgb(0,8,8);"/>
    </g>
</svg>
