<svg width="100%" height="100%" viewBox="0 0 400 400" version="1.1" xmlns="http://www.w3.org/2000/svg" style="fill-rule:evenodd;clip-rule:evenodd;stroke-linejoin:round;stroke-miterlimit:2;">
    <g>
        <path d="M170,17C167.286,20.767 160.192,18.438 156.417,19.381C153.684,20.065 151.452,22.109 148.779,23C141.342,25.479 134.208,28.837 127,32C123.017,33.748 119.776,36.908 116,39C114.003,40.106 111.45,40.097 109.598,41.43C108.437,42.265 108.337,44.107 107.221,45C95.567,54.323 85.015,63.789 75,75.089C61.386,90.449 53.39,108.829 47,128C44.086,136.742 40.671,145.608 40,155C38.643,173.994 38.69,182.006 40,201C40.485,208.04 42.055,216.192 44,223C45.266,227.43 49.272,232.958 48.964,237.677C48.654,242.429 44.787,243 41,244C34.126,245.816 22.399,245.306 22,255C20.675,287.189 20.659,314.811 22,347C22.309,354.421 31.125,358.321 37,360C49.794,363.655 62.581,369.032 75,374C82.665,377.066 89.254,381 98,381C106.421,381 113.416,375.034 121,372C125.819,370.072 131.003,369.047 135.779,367C150.617,360.641 164.563,352.146 180,347C201.332,339.889 223.237,347.595 245,342C247.772,341.287 250.797,338.454 253.221,337C259.244,333.386 265.813,330.326 272,327C279.483,322.978 287.781,320.414 294.548,315C303.036,308.21 302.721,308.111 311.017,301C315.403,297.241 321.705,293.606 325.589,289.513C327.605,287.388 329.18,283.628 331,281.201C335.692,274.945 341.186,268.885 345,262C348.667,255.38 351.203,247.992 354,241C361.807,221.482 365,202.377 365,181C365,145.323 355.173,108.698 333,80C324.515,69.019 314.601,60.394 304.511,51C302.593,49.214 303.322,48.68 301.221,47C290.856,38.708 278.375,32.209 266.221,27C263.991,26.044 262.176,24.206 259.875,23.439C257.408,22.617 254.592,23.383 252.126,22.561C249.8,21.786 250.132,20.074 247.693,19.399C244.229,18.439 240.482,18.895 237,18L233,16C223.064,14.201 211.829,14.661 202.111,14.816C194.914,14.93 187.712,15.088 180.531,15.577C176.997,15.817 172.071,14.126 170,17M249.571,62.429C251.733,64.588 250.497,65.391 253,67C255.974,68.911 259.722,68.907 263,70C269.306,72.102 275.99,76.806 280.915,81C305.238,101.711 327,134.079 327,167C327,172.344 326.559,177.686 326,183C325.666,186.171 322.614,189.678 322.975,192.928C323.318,196.015 330.421,202.304 324,203C321.933,203.224 318.857,200.777 317,200C311.088,197.526 306.249,194.282 300.779,191C282.227,179.869 269.513,162.398 259,144C252.774,133.105 247.446,123.061 244,111C240.436,98.525 237.799,85.802 241,73C241.81,69.758 244.077,56.933 249.571,62.429M161,280C161,284.738 158.849,290.328 158,295C156.363,304.003 154.292,312.953 153,322C152.889,322.778 152.577,333 149,333C146.822,333 145.813,328.625 145,327C141.832,320.663 143.083,312.722 140.404,306.174C139.752,304.581 135.558,299.054 133.447,301.498C131.45,303.811 131.15,311.802 131,313C130.667,315.667 130.527,318.365 130,321L128,325C126.942,329.534 127.186,334.324 125.976,338.819C125.402,340.951 124.083,340.361 122.571,341C121.999,341.242 121.49,341.619 121,342C120.628,342.289 120.175,343.438 120,343L118,331L116,327L114,317C112.777,312.109 110.219,307.874 109,303C108.205,299.821 104.354,292.146 110.758,291.144C112.563,290.861 113.872,292.488 114.407,293.921C116.607,299.808 118.111,307.393 119,313.571C119.086,314.17 119.489,326.614 124.835,322.422C127.344,320.453 126.862,313.69 127,312.571C127.905,305.24 128.449,302.847 129,295C129.445,288.673 127.596,287.479 133,284C134.291,283.169 134.129,282.706 135.677,283.036C137.025,283.324 138.689,283.37 139.571,284.429C140.68,285.761 140.527,287.761 141,289.429C142.555,294.916 143.197,300.59 145,306C145.943,308.829 146.462,313 150,313L153,313L153,301C153,294.347 154.005,283.888 156.017,277.101C156.416,275.755 159.862,273.691 160.664,275.966C161.113,277.239 161,278.651 161,280M57,282C57,283.619 59.934,283.418 61.227,284.394C63.322,285.975 66.312,289.248 67.718,291.453C67.769,291.532 70.198,297.162 70.25,297.28C70.428,297.681 71.238,298.569 70.811,298.469C66.298,297.416 66.29,293.034 63.509,290.408C62.767,289.708 61.66,289.537 60.792,289C56.231,286.178 51.759,282.061 48.203,289.376C47.442,290.94 47.037,292.715 47,294.455C46.884,299.972 51.168,304.203 55.234,307C61.723,311.465 70.445,316.945 72.495,325.179C73.688,329.973 74.884,339.58 68.398,340.829C59.575,342.529 51.53,337.778 47,330.545C45.53,328.197 43.202,324.828 43,322C42.927,320.985 42.659,319.453 43.571,319C45.085,318.248 47.555,324.085 48,325C49.312,327.699 49.261,330.264 51.499,332.501C53.68,334.683 56.306,334.815 59,336C61.927,337.288 64.449,340.734 67.571,337.571C68.349,336.783 68.48,335.549 69,334.571C69.291,334.023 69.806,333.59 70,333C71.864,327.322 69.854,323.663 66.293,319.071C60.38,311.443 50.23,308.565 46,299C43.378,293.072 41.57,290.335 46.25,284.54C47.566,282.911 50.896,281.489 52.83,281.032C52.972,280.999 57,280.023 57,282"/>
    </g>
</svg>
