<?xml version="1.0" encoding="UTF-8" standalone="no"?>
<svg
   xmlns:dc="http://purl.org/dc/elements/1.1/"
   xmlns:cc="http://creativecommons.org/ns#"
   xmlns:rdf="http://www.w3.org/1999/02/22-rdf-syntax-ns#"
   xmlns:svg="http://www.w3.org/2000/svg"
   xmlns="http://www.w3.org/2000/svg"
   xmlns:sodipodi="http://sodipodi.sourceforge.net/DTD/sodipodi-0.dtd"
   xmlns:inkscape="http://www.inkscape.org/namespaces/inkscape"
   id="svg"
   version="1.1"
   width="400"
   height="400"
   style="display: block;"
   sodipodi:docname="php.svg"
   inkscape:version="0.92.2 (5c3e80d, 2017-08-06)">
  <metadata
     id="metadata9">
    <rdf:RDF>
      <cc:Work
         rdf:about="">
        <dc:format>image/svg+xml</dc:format>
        <dc:type
           rdf:resource="http://purl.org/dc/dcmitype/StillImage" />
      </cc:Work>
    </rdf:RDF>
  </metadata>
  <defs
     id="defs7" />
  <sodipodi:namedview
     pagecolor="#ffffff"
     bordercolor="#666666"
     borderopacity="1"
     objecttolerance="10"
     gridtolerance="10"
     guidetolerance="10"
     inkscape:pageopacity="0"
     inkscape:pageshadow="2"
     inkscape:window-width="1920"
     inkscape:window-height="1027"
     id="namedview5"
     showgrid="false"
     inkscape:zoom="4.72"
     inkscape:cx="342.7685"
     inkscape:cy="111.00197"
     inkscape:window-x="1912"
     inkscape:window-y="-8"
     inkscape:window-maximized="1"
     inkscape:current-layer="svgg" />
  <g
     id="svgg">
    <path
       id="path0"
       d="m 190,120 c 0,0.585 -3.399,1 -8.197,1 -10.012,0 -31.116,1.97 -31.803,2.968 -0.275,0.4 -3.425,1.025 -7,1.389 -3.575,0.365 -6.65,1.108 -6.833,1.653 -0.184,0.544 -1.208,0.99 -2.277,0.99 -3.26,0 -14.89,2.415 -14.89,3.091 0,0.35 -2.7,1.209 -6,1.909 -3.3,0.7 -6,1.612 -6,2.025 0,0.414 -1.575,1.048 -3.5,1.409 -1.925,0.361 -3.5,1.041 -3.5,1.512 0,0.47 -2.25,1.394 -5,2.054 -2.75,0.66 -5,1.596 -5,2.081 0,0.484 -1.125,1.163 -2.5,1.508 -1.375,0.345 -2.5,0.993 -2.5,1.44 0,0.447 -1.38,1.115 -3.068,1.486 -1.687,0.37 -3.299,1.279 -3.583,2.018 -0.284,0.74 -1.859,1.64 -3.5,2 -1.641,0.361 -3.227,1.288 -3.524,2.061 -0.296,0.773 -1.15,1.406 -1.897,1.406 -0.747,0 -1.839,0.9 -2.428,2 -0.589,1.1 -1.691,2 -2.449,2 C 62.908,158 52,168.769 52,170.391 c 0,0.62 -0.9,1.69 -2,2.377 -1.1,0.687 -2,1.92 -2,2.74 0,0.821 -0.45,1.492 -1,1.492 -0.55,0 -1,0.653 -1,1.45 0,0.798 -0.586,1.81 -1.302,2.25 -1.351,0.83 -3.698,9.637 -3.698,13.876 0,1.333 -0.45,2.424 -1,2.424 -0.55,0 -1,1.8 -1,4 0,2.2 0.45,4 1,4 0.55,0 1.003,1.238 1.006,2.75 0.008,3.907 1.929,10.328 3.586,11.985 0.774,0.774 1.408,2.051 1.408,2.836 0,0.786 0.45,1.429 1,1.429 0.55,0 1.006,0.563 1.013,1.25 0.029,2.629 13.929,17.75 16.318,17.75 0.732,0 1.896,1.056 2.587,2.348 0.692,1.291 2.793,2.95 4.669,3.686 1.877,0.737 3.413,1.621 3.413,1.966 0,0.345 1.575,1.245 3.5,2 1.925,0.755 3.5,1.704 3.5,2.107 0,0.404 1.35,1.031 3,1.393 1.65,0.362 3,1.075 3,1.583 0,0.509 2.025,1.466 4.5,2.128 2.475,0.662 4.5,1.525 4.5,1.917 0,0.392 1.35,1.01 3,1.372 1.65,0.362 3,1.012 3,1.443 0,0.431 2.7,1.357 6,2.057 3.3,0.7 6,1.621 6,2.046 0,0.425 3.15,1.305 7,1.954 3.85,0.649 7,1.532 7,1.961 0,0.429 2.7,1.086 6,1.459 3.3,0.374 6,1.017 6,1.429 0,0.75 18.829,3.151 24.713,3.151 1.716,0 3.294,0.52 3.506,1.156 0.492,1.478 61.625,1.664 62.625,0.191 0.361,-0.532 6.731,-1.548 14.156,-2.258 7.425,-0.711 13.725,-1.651 14,-2.089 0.275,-0.438 3.087,-1.12 6.25,-1.514 3.163,-0.394 5.75,-1.043 5.75,-1.441 0,-0.399 3.15,-1.288 7,-1.976 3.85,-0.688 7,-1.588 7,-2.001 0,-0.412 2.507,-1.311 5.572,-1.997 5.028,-1.125 11.121,-3.648 12.427,-5.145 0.276,-0.316 2.638,-1.162 5.251,-1.88 2.613,-0.718 4.75,-1.697 4.75,-2.176 0,-0.478 0.606,-0.87 1.347,-0.87 0.741,0 2.399,-0.912 3.684,-2.027 1.286,-1.115 3.38,-2.289 4.653,-2.609 1.274,-0.319 2.316,-0.872 2.316,-1.228 0,-0.356 1.446,-1.288 3.213,-2.07 1.767,-0.782 4.181,-2.467 5.364,-3.744 1.184,-1.277 2.562,-2.322 3.063,-2.322 0.5,0 3.711,-3.037 7.134,-6.75 8.863,-9.611 9.107,-9.927 9.809,-12.725 0.349,-1.389 1.017,-2.525 1.485,-2.525 0.469,0 1.41,-1.912 2.093,-4.25 0.683,-2.338 1.534,-4.475 1.89,-4.75 0.744,-0.573 2.174,-8.516 2.071,-11.5 -0.158,-4.537 -1.388,-10.5 -2.166,-10.5 -0.458,0 -1.142,-2.061 -1.52,-4.58 -0.378,-2.518 -1.265,-4.801 -1.971,-5.072 -0.707,-0.271 -1.582,-1.678 -1.945,-3.126 -0.364,-1.448 -1.529,-3.241 -2.591,-3.984 -1.061,-0.743 -1.929,-1.773 -1.929,-2.288 0,-1.524 -11.37,-12.615 -13.686,-13.35 -1.171,-0.372 -2.382,-1.334 -2.69,-2.138 -0.309,-0.804 -1.202,-1.462 -1.986,-1.462 -0.783,0 -1.667,-0.633 -1.963,-1.406 -0.297,-0.773 -1.92,-1.709 -3.607,-2.079 -1.688,-0.371 -3.068,-1.112 -3.068,-1.646 0,-0.535 -1.35,-1.444 -3,-2.019 -1.65,-0.575 -3,-1.416 -3,-1.868 0,-0.453 -1.35,-1.12 -3,-1.482 -1.65,-0.362 -3,-1.02 -3,-1.461 0,-0.441 -2.077,-1.324 -4.615,-1.964 -2.538,-0.639 -5.27,-1.817 -6.071,-2.618 -0.801,-0.801 -2.55,-1.457 -3.885,-1.457 -1.336,0 -2.429,-0.389 -2.429,-0.863 0,-0.475 -2.7,-1.437 -6,-2.137 -3.3,-0.7 -6,-1.608 -6,-2.018 0,-0.409 -3.6,-1.329 -8,-2.043 -4.4,-0.715 -8,-1.641 -8,-2.059 0,-0.417 -3.15,-1.069 -7,-1.449 -3.85,-0.379 -7,-1.014 -7,-1.41 0,-0.905 -23.061,-3.038 -32.75,-3.028 -4.171,0.004 -7.25,-0.418 -7.25,-0.993 0,-0.606 -4.333,-1 -11,-1 -6.667,0 -11,0.394 -11,1 m 18,11 c 0,1.1 -0.392,2 -0.871,2 -0.479,0 -1.165,2.216 -1.525,4.925 -0.359,2.708 -1.064,5.071 -1.567,5.25 -0.503,0.179 -1.219,2.642 -1.591,5.474 l -0.677,5.149 13.783,0.351 c 9.52,0.242 13.905,0.72 14.18,1.545 0.218,0.656 1.877,1.682 3.685,2.279 4.191,1.383 5.583,4.477 5.583,12.407 0,6.894 -1.84,17.62 -3.023,17.62 -0.411,0 -1.056,2.475 -1.434,5.5 -0.378,3.025 -1.105,5.5 -1.615,5.5 -0.51,0 -0.928,1.35 -0.928,3 0,2 0.5,3 1.5,3 0.833,0 1.5,-0.889 1.5,-2 0,-1.1 0.352,-2 0.783,-2 0.431,0 1.38,-3.262 2.109,-7.25 0.729,-3.988 1.681,-7.7 2.115,-8.25 0.433,-0.55 1.346,-4.488 2.028,-8.75 0.682,-4.262 1.576,-7.75 1.987,-7.75 0.411,0 1.057,-2.475 1.435,-5.5 0.378,-3.025 1.105,-5.5 1.615,-5.5 0.51,0 0.928,-0.93 0.928,-2.066 0,-2.41 46.256,-2.718 47.788,-0.319 0.392,0.614 1.651,1.408 2.8,1.766 3.291,1.026 8.193,5.898 8.944,8.89 0.377,1.501 1.086,2.729 1.576,2.729 0.491,0 0.892,4.05 0.892,9 0,4.95 -0.348,9 -0.773,9 -0.425,0 -1.361,2.533 -2.081,5.629 -1.229,5.287 -1.742,6.318 -4.896,9.834 -0.687,0.767 -1.25,1.877 -1.25,2.466 0,0.897 -7.392,8.513 -12.37,12.743 -0.759,0.645 -3.348,1.748 -5.755,2.452 -2.406,0.703 -4.629,1.643 -4.94,2.088 -0.311,0.445 -6.943,1.099 -14.736,1.453 l -14.171,0.645 -0.643,4.845 c -0.353,2.665 -0.984,4.845 -1.4,4.845 -0.417,0 -1.06,2.015 -1.429,4.477 -0.369,2.462 -1.096,4.738 -1.614,5.059 -0.518,0.32 -0.942,1.455 -0.942,2.523 0,2.389 -18.896,3.073 -19.115,0.691 -0.208,-2.261 0.297,-5.232 1.063,-6.25 0.414,-0.55 1.334,-3.925 2.044,-7.5 0.71,-3.575 1.678,-6.928 2.15,-7.45 1.357,-1.502 0.999,-4.55 -0.535,-4.55 -0.766,0 -1.652,0.675 -1.969,1.5 -0.452,1.18 -2.501,1.5 -9.607,1.5 H 208 v -2.668 c 0,-4.328 2.139,-15.332 2.98,-15.332 0.427,0 1.336,-3.6 2.02,-8 0.684,-4.4 1.624,-8 2.088,-8 0.464,0 1.142,-2.25 1.506,-5 0.365,-2.75 1.056,-5 1.535,-5 2.738,0 0.77,-7.07 -2.129,-7.65 -1.65,-0.33 -3,-0.994 -3,-1.475 0,-0.481 -3.6,-0.875 -8,-0.875 -7.333,0 -8,0.167 -8,2 0,1.1 -0.406,2 -0.902,2 -0.496,0 -1.215,2.7 -1.598,6 -0.383,3.3 -1.047,6 -1.476,6 -0.429,0 -1.34,3.6 -2.024,8 -0.684,4.4 -1.607,8 -2.05,8 -0.442,0 -1.349,3.375 -2.015,7.5 -0.665,4.125 -1.598,7.5 -2.072,7.5 -0.475,0 -0.863,0.868 -0.863,1.929 0,4.391 -12.262,7.21 -19.418,4.464 -1.64,-0.629 -2.248,-4.393 -0.711,-4.393 0.479,0 1.17,-2.25 1.535,-5 0.364,-2.75 1.097,-5 1.628,-5 0.531,0 0.966,-0.675 0.966,-1.5 0,-2.816 -2.277,-1.502 -8.705,5.021 -5.021,5.096 -7.45,6.787 -11.11,7.734 -2.577,0.666 -4.933,1.55 -5.235,1.964 -0.303,0.414 -6.603,1.052 -14,1.418 -13.82,0.684 -14.907,1.056 -14.935,5.113 -0.008,1.238 -0.373,2.25 -0.811,2.25 -0.438,0 -1.343,3.187 -2.011,7.082 -1.638,9.548 -2.132,9.918 -13.25,9.918 h -9.201 l 0.694,-5.231 c 0.382,-2.877 1.043,-5.465 1.469,-5.75 0.427,-0.286 1.387,-4.007 2.134,-8.269 0.748,-4.262 1.687,-7.75 2.088,-7.75 0.401,0 1.038,-2.475 1.416,-5.5 0.378,-3.025 1.056,-5.5 1.507,-5.5 0.451,0 1.387,-3.375 2.08,-7.5 0.693,-4.125 1.583,-7.5 1.977,-7.5 0.395,0 1.033,-1.912 1.418,-4.25 0.386,-2.338 1.051,-4.7 1.479,-5.25 0.428,-0.55 1.375,-4.262 2.104,-8.25 0.729,-3.988 1.649,-7.25 2.044,-7.25 0.395,0 1.287,-3.389 1.983,-7.531 1.063,-6.326 1.61,-7.618 3.418,-8.072 4.604,-1.155 46.766,0.053 47.198,1.353 0.229,0.688 0.959,1.25 1.624,1.25 1.975,0 8.697,6.908 9.799,10.07 1.157,3.319 3.826,3.968 3.826,0.93 0,-1.1 0.388,-2 0.863,-2 0.474,0 1.407,-3.375 2.072,-7.5 0.666,-4.125 1.595,-7.5 2.066,-7.5 0.47,0 1.164,-2.475 1.542,-5.5 0.378,-3.025 1.058,-5.5 1.511,-5.5 0.453,0 1.133,-2.137 1.512,-4.75 0.948,-6.536 0.422,-6.25 11.493,-6.25 9.274,0 9.941,0.134 9.941,2 m -79.552,43.5 c -0.371,2.475 -1.023,4.5 -1.448,4.5 -0.425,0 -1.077,2.025 -1.448,4.5 -0.371,2.475 -1.009,4.5 -1.418,4.5 -0.409,0 -1.311,3.375 -2.004,7.5 -0.693,4.125 -1.681,7.5 -2.195,7.5 -0.514,0 -0.935,0.742 -0.935,1.649 0,2.375 22.855,1.361 24.219,-1.075 0.484,-0.866 1.533,-1.574 2.331,-1.574 0.797,0 1.45,-0.653 1.45,-1.45 0,-0.798 0.674,-1.828 1.499,-2.289 0.824,-0.462 2.056,-3.184 2.736,-6.05 0.681,-2.866 1.582,-5.211 2.002,-5.211 0.419,0 0.763,-2.763 0.763,-6.14 0,-6.991 -1.364,-8.775 -6.75,-8.828 C 145.463,172.014 144,171.55 144,171 c 0,-0.577 -3.146,-1 -7.439,-1 h -7.438 l -0.675,4.5 m 135.182,-2.25 c -0.331,1.238 -0.609,3.262 -0.616,4.5 -0.008,1.238 -0.435,2.25 -0.949,2.25 -0.514,0 -1.502,3.375 -2.195,7.5 -0.693,4.125 -1.595,7.5 -2.004,7.5 -0.409,0 -1.048,2.031 -1.42,4.512 -0.372,2.482 -1.075,4.759 -1.561,5.059 -0.487,0.301 -0.885,1.034 -0.885,1.63 0,1.636 21.361,0.429 23.464,-1.326 5.447,-4.55 7.396,-6.966 8.051,-9.983 0.405,-1.866 1.16,-3.662 1.678,-3.992 0.518,-0.331 1.024,-4.057 1.124,-8.281 0.204,-8.551 -0.444,-9.577 -6.067,-9.604 C 280.462,172.007 279,171.55 279,171 c 0,-2.363 -14.722,-1.165 -15.37,1.25 M 230.406,211 c -0.365,2.75 -1.056,5 -1.535,5 -0.479,0 -0.871,0.9 -0.871,2 0,4.434 2.933,1.986 3.594,-3 0.365,-2.75 1.056,-5 1.535,-5 0.479,0 0.871,-0.9 0.871,-2 0,-4.434 -2.933,-1.986 -3.594,3"
       inkscape:connector-curvature="0"
       style="fill:#000000;fill-rule:evenodd;stroke:none"
       sodipodi:nodetypes="cscccssssssssssccccsssssssscsssscssscsccssssssssssssscsscccsssssccsssccsscsccssccsccccsccsccssssscssssscscscssccscscccccssssssssscssssscccsssccsccscccsscsccscscscsssscscsssssssscsscscsscccccscsccccssssscssscccscsscssscsccsssssscssccsscssccccsssccscccccsccsscssc" />
  </g>
</svg>
