<svg width="100%" height="100%" viewBox="0 0 400 400" version="1.1" xmlns="http://www.w3.org/2000/svg" style="fill-rule:evenodd;clip-rule:evenodd;stroke-linejoin:round;stroke-miterlimit:2;">
<g>
<path d="M62.62,3.75C45.488,21.957 29.51,41.314 13,60.08C12.705,60.415 -0.353,71.944 -0.017,77.884C1.264,100.525 6.257,123.587 10,146C15.957,181.669 21.935,217.334 27.909,253C29.961,265.254 31.879,277.533 34.003,289.775C34.863,294.729 37,299.531 37,304.559L37,307L78,307L78,78L322,78L322,322L109.765,322L110.488,329.75C111.094,336.239 112.333,347.468 114.771,353.486C115.148,354.417 116.442,354.618 117.357,355.032C121.726,357.009 126.506,358.219 131,359.899C148.178,366.321 165.618,372.152 183,378C195.125,382.079 207.177,386.301 219.25,390.52C229.294,394.03 239.974,398.803 250.554,400C254.121,400.404 259.021,396.928 261.756,395.353C270.241,390.466 278.664,385.401 287,380.253C313.558,363.852 340.562,348.154 367.286,332.199C373.935,328.229 380.604,324.399 387,320.104C390.644,317.657 396.693,316.432 399.37,312.723C403.098,307.557 392.842,294.635 390.517,290C382.102,273.222 373.357,256.302 364.059,240C361.225,235.03 358.804,229.981 356.031,225C355.564,224.162 354.382,223.444 354.591,222.507C357.057,211.464 369.219,205.226 376.983,196.996C384.76,188.753 395.044,182.166 400,171.974C402.121,167.612 397.394,162.629 395.947,158C391.201,142.822 384.003,128.142 378.081,113.407C372.014,98.312 365.84,83.209 360.131,67.982C358.432,63.451 356.369,59.211 354.609,54.732C353.028,50.71 352.575,46.084 350,42.613C346.517,37.918 338.743,39.391 333,38.3C321.174,36.053 321.432,35.944 309.75,33.924C295.074,31.387 280.394,28.709 265.75,25.996C260.057,24.941 251.139,21.537 245,23.847C233.964,28 226.507,42.186 216.124,48.586C214.689,49.471 214.516,45.601 213.999,43.997C212.922,40.655 211.604,37.395 210.51,34.059C208.068,26.612 205.027,27.979 196.206,25.92C162.422,18.034 128.159,10.094 94,4.047C83.721,2.227 70.854,-5.002 62.62,3.75M212.75,106.662C192.37,110.153 182.924,137.753 192.545,154.762C199.829,167.64 220.472,169.93 232.5,173.913C237.371,175.526 243.192,177.395 243.017,183.54C242.865,188.903 237.918,190.728 233.209,190.917C222.481,191.349 218.029,189.959 208.43,185.393C206.629,184.536 205.029,183.281 203.5,182C202.322,181.013 201.272,178.138 200,179C197.238,180.87 184.531,191.219 185.52,196.642C186.196,200.349 191.606,203.229 194.378,204.542C209.585,211.746 224.555,216.46 241.634,213.709C262.211,210.395 275.495,184.673 264.518,166.39C257.157,154.13 243.715,152.106 231,148.11C227.099,146.884 213.588,144.921 213.461,137.619C213.216,123.567 235.247,129.877 241.821,132.681C244.9,133.995 247.476,137.31 251.059,137.703C255.941,138.238 260.544,127.661 262.016,125.458C262.67,124.479 265.595,121.75 264.953,119.975C264.117,117.664 259.754,114.84 257.75,113.928C243.757,107.556 228.277,104.002 212.75,106.662M98,160L98,213L122,213L122,182.287L137.618,181.762C148.383,181.401 161.132,179.729 169.764,172.037C184.061,159.299 185.24,134.491 172.765,119.924C160.699,105.835 140.621,107 124,107L98,107L98,160M149.028,131.784C150.489,133.057 152.49,133.824 153.537,135.455C154.877,137.542 154.489,142.935 154.5,143.823C154.554,148.176 154.017,153.321 150.043,155.968C145.17,159.214 136.739,158.962 131.75,158.976L123,159L123,129.837L135.278,130.168C143.416,130.388 148.052,130.933 149.028,131.784M99,284.5L99,294L194,294L194,286.082C194,282.909 195.405,279.036 193.393,276.582C191.624,274.425 187.917,275.355 185.129,275.262C172.057,274.827 158.972,275 145.893,275L99,275L99,284.5"/>
</g>
</svg>
