<svg id="svg" xmlns="http://www.w3.org/2000/svg" xmlns:xlink="http://www.w3.org/1999/xlink" width="400" height="400" viewBox="0, 0, 400,400" version="1.1"><g id="svgg"><path id="path0" d="M187.097 63.466 C 111.412 80.806,68.759 145.483,80.962 224.403 C 89.217 277.789,120.101 312.530,174.243 329.336 L 190.783 334.470 286.163 335.069 C 399.838 335.783,400.000 335.750,400.000 312.022 C 400.000 294.978,391.399 291.244,352.133 291.244 C 335.879 291.244,322.581 290.827,322.581 290.318 C 322.581 289.808,325.942 286.354,330.051 282.642 C 370.764 245.861,373.703 160.881,335.939 112.442 C 304.617 72.267,240.611 51.206,187.097 63.466 M10.622 69.245 C -0.273 75.157,-0.000 71.747,0.000 201.843 C 0.000 332.494,-0.316 328.679,11.000 334.531 C 21.551 339.987,35.018 336.785,41.201 327.348 C 45.709 320.467,45.863 82.400,41.363 75.976 C 35.034 66.941,20.667 63.795,10.622 69.245 M249.687 104.140 C 325.148 130.765,338.670 233.572,272.746 279.450 C 204.716 326.794,113.801 265.676,127.142 181.567 C 136.440 122.951,196.124 85.242,249.687 104.140 " stroke="none" fill="#000000" fill-rule="evenodd"></path></g></svg>