<svg id="svg" version="1.1" width="515" height="515" xmlns="http://www.w3.org/2000/svg" xmlns:xlink="http://www.w3.org/1999/xlink" style="display: block;"><g id="svgg"><path id="path0" d="M221.500 1.611 C 207.014 4.246,184.975 10.045,178.500 12.925 C 177.400 13.414,174.576 14.532,172.225 15.409 C 167.572 17.145,154.806 23.151,154.000 23.984 C 153.725 24.268,151.760 25.305,149.633 26.290 C 123.969 38.167,89.099 70.837,69.892 101.000 C 62.120 113.205,58.181 120.568,52.773 133.000 C 47.119 145.998,40.128 168.912,40.036 174.750 L 40.000 177.000 85.318 177.000 L 130.636 177.000 134.020 168.750 C 142.323 148.514,156.267 130.297,174.500 115.869 C 181.473 110.351,196.733 101.000,198.765 101.000 C 199.353 101.000,199.983 100.632,200.167 100.182 C 200.350 99.732,205.088 97.689,210.695 95.640 C 247.767 82.098,289.528 86.345,323.852 107.150 C 327.346 109.267,330.571 111.000,331.019 111.000 C 331.467 111.000,331.983 111.345,332.167 111.767 C 332.350 112.189,334.750 114.312,337.500 116.486 C 352.927 128.678,369.004 149.627,376.265 167.000 C 384.945 187.766,386.469 195.738,386.399 220.000 C 386.329 244.196,379.788 271.853,372.250 279.821 C 371.563 280.548,371.000 281.697,371.000 282.373 C 371.000 283.918,362.809 296.222,357.500 302.653 C 323.379 343.983,266.216 361.298,216.500 345.363 C 183.849 334.898,153.309 309.680,139.764 282.000 C 139.091 280.625,138.283 279.275,137.969 279.000 C 137.655 278.725,136.613 276.475,135.654 274.000 C 134.695 271.525,133.139 267.925,132.196 266.000 L 130.482 262.500 85.241 262.240 L 40.000 261.980 40.000 324.266 C 40.000 382.754,40.633 400.334,42.927 405.500 C 43.415 406.600,44.389 409.750,45.092 412.500 C 48.007 423.914,53.854 433.717,63.436 443.252 C 68.927 448.716,82.202 458.000,84.524 458.000 C 84.894 458.000,86.616 458.662,88.349 459.471 C 93.771 462.003,108.774 465.000,116.026 465.000 L 122.974 465.000 123.237 430.588 L 123.500 396.175 132.767 402.447 C 137.864 405.896,144.839 410.167,148.267 411.938 C 151.695 413.709,155.175 415.563,156.000 416.059 C 159.034 417.884,170.216 422.915,173.804 424.070 C 175.837 424.725,177.950 425.584,178.500 425.978 C 180.926 427.719,201.929 433.435,217.171 436.504 C 238.888 440.876,273.501 440.497,297.500 435.625 C 311.339 432.815,330.190 427.616,332.500 425.972 C 333.050 425.581,335.300 424.696,337.500 424.005 C 341.653 422.701,358.725 414.499,364.939 410.823 C 369.457 408.149,381.181 400.757,382.500 399.750 C 407.441 380.707,423.488 364.181,439.066 341.500 C 443.566 334.947,444.623 333.191,446.586 329.000 C 447.487 327.075,448.512 325.275,448.862 325.000 C 449.213 324.725,451.587 320.225,454.138 315.000 C 484.971 251.845,481.894 169.528,446.457 109.500 C 445.158 107.300,443.766 104.825,443.363 104.000 C 442.615 102.467,433.397 89.482,426.681 80.500 C 418.631 69.734,387.756 41.304,380.250 37.746 C 379.012 37.159,378.000 36.301,378.000 35.839 C 378.000 35.378,377.507 35.000,376.904 35.000 C 376.302 35.000,374.614 34.162,373.154 33.137 C 368.291 29.724,348.594 19.416,341.500 16.572 C 337.650 15.029,333.600 13.385,332.500 12.918 C 326.031 10.173,314.028 6.881,294.000 2.360 C 283.510 -0.008,233.252 -0.527,221.500 1.611 M121.000 502.000 L 121.000 515.000 124.500 515.000 C 127.917 515.000,128.000 514.905,128.000 511.000 L 128.000 507.000 132.550 507.000 C 140.818 507.000,144.000 504.209,144.000 496.957 C 144.000 490.473,141.466 489.000,130.311 489.000 L 121.000 489.000 121.000 502.000 M158.250 490.944 C 155.150 493.530,154.828 510.630,157.829 513.345 C 159.893 515.214,174.306 515.723,177.000 514.022 C 179.817 512.244,179.738 493.765,176.901 491.123 C 173.769 488.205,161.672 488.089,158.250 490.944 M193.823 490.623 C 193.645 491.516,193.640 497.366,193.811 503.623 L 194.121 515.000 203.561 515.000 C 212.963 515.000,213.000 514.990,213.000 512.500 C 213.000 510.090,212.767 510.000,206.500 510.000 L 200.000 510.000 200.000 499.500 L 200.000 489.000 197.073 489.000 C 195.173 489.000,194.033 489.569,193.823 490.623 M220.000 489.540 C 220.000 490.179,223.959 495.862,225.750 497.794 C 226.438 498.536,227.000 499.492,227.000 499.918 C 227.000 500.345,227.900 501.732,229.000 503.000 C 230.408 504.623,231.000 506.741,231.000 510.153 C 231.000 514.656,231.177 515.000,233.500 515.000 C 235.799 515.000,236.000 514.635,236.000 510.468 C 236.000 506.528,236.717 504.984,241.500 498.629 C 247.928 490.089,248.169 489.000,243.633 489.000 C 240.812 489.000,239.836 489.649,237.619 493.000 C 234.322 497.981,233.136 497.977,230.049 492.973 C 227.848 489.406,220.000 486.725,220.000 489.540 M257.000 492.000 C 257.000 494.833,257.222 495.000,261.000 495.000 L 265.000 495.000 265.000 505.000 L 265.000 515.000 268.500 515.000 L 272.000 515.000 272.000 505.000 L 272.000 495.000 276.000 495.000 C 279.778 495.000,280.000 494.833,280.000 492.000 L 280.000 489.000 268.500 489.000 L 257.000 489.000 257.000 492.000 M292.000 502.000 L 292.000 515.000 302.500 515.000 L 313.000 515.000 313.000 512.500 C 313.000 510.071,312.800 510.000,306.000 510.000 L 299.000 510.000 299.000 506.931 L 299.000 503.863 305.250 504.181 C 311.415 504.496,311.504 504.463,311.816 501.750 L 312.133 499.000 305.566 499.000 C 299.667 499.000,299.000 498.797,299.000 497.000 C 299.000 495.190,299.667 495.000,306.000 495.000 L 313.000 495.000 313.000 492.000 L 313.000 489.000 302.500 489.000 L 292.000 489.000 292.000 502.000 M329.913 490.282 C 325.420 493.732,324.312 506.821,328.068 512.096 C 330.088 514.932,330.345 515.000,339.119 515.000 L 348.102 515.000 349.595 511.427 C 351.609 506.607,350.674 504.000,346.933 504.000 C 344.341 504.000,344.000 504.349,344.000 507.000 C 344.000 509.973,343.949 510.000,338.456 510.000 L 332.912 510.000 333.206 502.750 L 333.500 495.500 338.500 495.500 C 342.962 495.500,343.535 495.749,343.827 497.809 C 344.089 499.659,344.684 500.056,346.819 499.809 C 350.145 499.423,350.651 497.173,348.452 492.540 L 346.772 489.000 339.136 489.032 C 334.717 489.050,330.832 489.577,329.913 490.282 M364.000 502.000 L 364.000 515.000 367.000 515.000 C 369.933 515.000,370.000 514.889,370.000 510.000 L 370.000 505.000 376.000 505.000 L 382.000 505.000 382.000 510.000 C 382.000 514.889,382.067 515.000,385.000 515.000 L 388.000 515.000 388.000 502.000 L 388.000 489.000 385.000 489.000 C 382.067 489.000,382.000 489.111,382.000 494.000 L 382.000 499.000 376.000 499.000 L 370.000 499.000 370.000 494.000 C 370.000 489.111,369.933 489.000,367.000 489.000 L 364.000 489.000 364.000 502.000 M137.506 496.009 C 139.189 498.733,136.885 501.000,132.433 501.000 C 128.174 501.000,128.000 500.882,128.000 498.000 C 128.000 494.889,135.803 493.254,137.506 496.009 M172.794 502.250 L 172.500 509.500 167.500 509.500 L 162.500 509.500 162.196 503.612 C 161.774 495.434,162.067 495.000,168.012 495.000 L 173.088 495.000 172.794 502.250 " stroke="none" fill="#000000" fill-rule="evenodd"></path></g></svg>