<svg version="1.1" width="400" height="400" xmlns="http://www.w3.org/2000/svg">
<g>
<path d="M36.683 94.250 C 35.099 95.415,35.002 103.211,35.242 209.500 L 35.500 323.500 73.383 323.762 C 100.513 323.950,111.654 323.702,112.633 322.890 C 114.526 321.319,114.690 96.090,112.800 94.200 C 111.039 92.439,39.081 92.486,36.683 94.250 M120.200 94.200 C 118.458 95.942,118.458 321.058,120.200 322.800 C 122.453 325.053,194.274 324.460,196.345 322.171 C 197.864 320.493,198.000 311.191,198.000 208.846 L 198.000 97.349 195.686 95.174 C 192.921 92.577,122.729 91.671,120.200 94.200 M203.635 95.073 L 201.000 97.145 201.000 208.108 C 201.000 308.569,201.153 319.304,202.615 321.535 L 204.230 324.000 242.508 324.000 C 276.490 324.000,280.854 323.822,281.393 322.418 C 281.727 321.548,282.000 270.506,282.000 208.991 L 282.000 97.145 279.365 95.073 C 275.258 91.842,207.742 91.842,203.635 95.073 M287.635 95.073 L 285.000 97.145 285.000 209.450 C 285.000 303.205,285.226 321.943,286.367 322.890 C 287.346 323.702,298.487 323.950,325.617 323.762 L 363.500 323.500 363.754 209.608 C 363.940 126.275,363.706 95.351,362.882 94.358 C 360.733 91.768,290.993 92.431,287.635 95.073 M190.000 145.048 C 190.000 184.399,189.595 191.390,187.510 188.016 C 186.699 186.704,180.309 186.691,179.500 188.000 C 178.651 189.374,131.505 189.341,128.934 187.965 C 127.069 186.966,127.000 185.425,127.000 144.479 L 127.000 102.029 157.250 101.765 C 173.887 101.619,188.063 101.661,188.750 101.857 C 189.725 102.135,190.000 111.638,190.000 145.048 M274.000 121.524 C 274.000 139.040,273.830 141.006,272.250 141.715 C 271.288 142.147,256.775 142.275,240.000 142.000 L 209.500 141.500 209.229 121.764 L 208.958 102.028 240.729 101.764 C 258.203 101.619,272.837 101.639,273.250 101.809 C 273.663 101.979,274.000 110.851,274.000 121.524 M105.757 167.750 L 105.500 233.500 74.250 233.764 L 43.000 234.028 43.000 168.014 L 43.000 102.000 74.507 102.000 L 106.014 102.000 105.757 167.750 " stroke="none" fill-rule="evenodd"></path>
</g>
</svg>