<svg version="1.1" width="515" height="515" xmlns="http://www.w3.org/2000/svg"><g><path d="M240.611 25.448 C 227.961 26.895,206.833 30.878,206.000 31.972 C 205.725 32.333,199.497 34.584,192.161 36.975 C 184.825 39.365,178.219 41.924,177.483 42.660 C 176.746 43.397,175.722 44.000,175.207 44.000 C 173.471 44.000,156.000 53.071,156.000 53.972 C 156.000 54.463,155.096 55.152,153.990 55.503 C 150.454 56.625,139.616 63.420,136.027 66.764 C 134.117 68.544,132.108 70.000,131.563 70.000 C 130.455 70.000,126.270 73.920,111.163 89.108 C 96.876 103.470,95.630 104.854,91.405 111.046 C 89.359 114.046,87.080 116.860,86.342 117.300 C 85.604 117.740,85.000 118.558,85.000 119.120 C 85.000 119.681,83.625 122.139,81.944 124.582 C 80.263 127.025,78.419 130.368,77.846 132.012 C 77.273 133.655,76.386 135.000,75.875 135.000 C 74.985 135.000,67.000 151.185,67.000 152.988 C 67.000 153.466,66.335 154.522,65.523 155.334 C 63.920 156.937,56.643 178.002,55.448 184.500 C 55.043 186.700,54.292 188.773,53.780 189.106 C 53.268 189.439,52.598 191.577,52.293 193.856 L 51.737 198.000 75.723 198.000 L 99.709 198.000 101.956 190.431 C 104.692 181.215,108.706 170.818,109.822 170.059 C 110.274 169.751,112.568 165.450,114.921 160.500 C 117.273 155.550,119.716 151.045,120.349 150.489 C 122.072 148.974,126.000 143.209,126.000 142.194 C 126.000 141.706,127.463 139.775,129.250 137.902 C 131.037 136.030,133.812 132.698,135.416 130.499 C 140.512 123.510,158.509 106.927,164.353 103.835 C 166.084 102.920,168.603 101.120,169.951 99.835 C 172.529 97.379,179.931 93.058,186.250 90.321 C 188.313 89.428,190.000 88.383,190.000 88.000 C 190.000 86.939,204.096 81.332,213.000 78.851 C 215.475 78.162,217.725 77.282,218.000 76.897 C 219.718 74.493,251.638 70.000,267.000 70.000 C 281.831 70.000,314.245 74.513,315.982 76.820 C 316.267 77.199,319.200 78.369,322.500 79.421 C 333.070 82.790,344.000 87.121,344.000 87.939 C 344.000 88.376,346.137 89.678,348.750 90.832 C 354.494 93.369,362.121 97.627,362.919 98.741 C 363.955 100.187,371.762 106.000,372.669 106.000 C 373.153 106.000,375.789 108.137,378.525 110.750 C 381.261 113.362,385.075 116.697,387.000 118.160 L 390.500 120.820 378.716 132.480 L 366.933 144.140 364.065 141.070 C 362.488 139.381,360.816 137.994,360.349 137.988 C 359.882 137.981,357.686 136.290,355.470 134.231 C 350.897 129.982,340.708 123.000,339.081 123.000 C 338.486 123.000,337.068 122.068,335.929 120.929 C 333.769 118.769,323.093 113.986,314.500 111.328 C 311.750 110.478,309.269 109.414,308.987 108.965 C 304.595 101.974,230.223 102.059,225.000 109.060 C 224.725 109.429,223.375 110.069,222.000 110.484 C 214.460 112.756,201.260 118.450,199.711 120.097 C 198.727 121.144,197.476 122.000,196.930 122.000 C 195.465 122.000,182.000 130.186,182.000 131.077 C 182.000 131.497,179.075 133.988,175.500 136.613 C 171.925 139.238,169.000 141.639,169.000 141.949 C 169.000 142.259,166.637 145.016,163.750 148.076 C 153.212 159.244,150.725 162.594,144.876 173.500 C 143.697 175.700,142.409 177.725,142.015 178.000 C 140.883 178.791,139.352 182.050,137.093 188.476 C 133.527 198.621,132.588 198.000,151.500 198.000 C 164.741 198.000,168.000 197.731,168.000 196.641 C 168.000 194.918,173.872 183.852,175.500 182.509 C 176.172 181.954,178.081 179.475,179.742 177.000 C 183.852 170.879,192.350 162.278,199.000 157.511 C 202.025 155.343,204.860 152.991,205.300 152.284 C 205.740 151.578,206.570 151.000,207.145 151.000 C 207.721 151.000,209.411 150.131,210.903 149.069 C 212.394 148.007,216.029 146.221,218.979 145.100 C 221.930 143.979,224.636 142.589,224.993 142.011 C 227.379 138.150,255.624 133.552,272.438 134.287 C 285.163 134.844,307.154 139.277,308.868 141.632 C 309.216 142.109,313.858 144.659,319.184 147.298 C 324.510 149.936,331.035 154.094,333.684 156.537 C 336.333 158.980,338.950 160.979,339.500 160.980 C 340.050 160.981,341.696 162.437,343.157 164.215 L 345.815 167.449 356.046 157.247 L 366.276 147.045 369.435 149.772 C 372.694 152.587,379.950 162.107,381.218 165.231 C 381.613 166.204,382.357 167.000,382.871 167.000 C 384.111 167.000,395.746 189.999,398.048 197.000 C 400.932 205.771,404.000 218.572,404.000 221.833 C 404.000 223.483,404.525 225.008,405.166 225.222 C 406.797 225.766,406.773 262.242,405.142 262.786 C 404.514 262.995,403.997 264.367,403.993 265.833 C 403.978 271.542,396.706 298.147,394.576 300.287 C 393.912 300.954,391.494 305.359,389.202 310.076 C 386.911 314.793,384.070 319.743,382.890 321.076 C 381.709 322.409,379.440 325.592,377.848 328.150 C 376.255 330.707,373.388 333.992,371.476 335.451 C 369.564 336.909,368.000 338.754,368.000 339.551 C 368.000 341.969,367.053 341.303,359.045 333.250 C 354.806 328.988,350.161 324.433,348.724 323.128 L 346.111 320.756 343.058 323.128 C 341.379 324.433,337.920 327.401,335.370 329.725 C 332.821 332.049,328.769 334.901,326.367 336.064 C 323.965 337.227,322.000 338.531,322.000 338.963 C 322.000 340.196,309.967 345.628,302.904 347.583 C 299.382 348.557,296.260 349.706,295.968 350.134 C 292.806 354.763,240.154 354.675,237.000 350.037 C 236.725 349.632,233.460 348.327,229.745 347.136 C 220.576 344.196,212.000 340.324,212.000 339.122 C 212.000 338.579,210.987 337.828,209.750 337.453 C 206.938 336.601,198.746 330.526,191.968 324.267 C 189.130 321.645,186.175 319.140,185.404 318.700 C 184.632 318.260,184.000 317.432,184.000 316.859 C 184.000 316.287,182.425 313.978,180.500 311.729 C 178.575 309.480,176.992 307.159,176.983 306.570 C 176.973 305.982,175.867 304.459,174.525 303.186 C 173.183 301.913,170.927 298.425,169.513 295.436 L 166.941 290.000 150.403 290.000 L 133.865 290.000 134.546 292.250 C 136.170 297.615,141.341 310.000,141.958 310.000 C 142.329 310.000,144.176 312.978,146.061 316.618 C 147.947 320.259,150.505 324.332,151.745 325.670 C 152.985 327.008,154.000 328.346,154.000 328.642 C 154.000 331.832,182.384 359.000,185.717 359.000 C 186.178 359.000,188.040 360.357,189.855 362.015 C 192.887 364.784,206.739 372.000,209.022 372.000 C 209.560 372.000,210.000 372.414,210.000 372.920 C 210.000 375.136,240.123 383.000,248.610 383.000 C 250.475 383.000,252.000 383.450,252.000 384.000 C 252.000 384.622,257.667 385.000,267.000 385.000 C 275.250 385.000,282.000 384.612,282.000 384.138 C 282.000 383.664,284.967 382.972,288.593 382.601 C 299.589 381.474,324.000 374.879,324.000 373.035 C 324.000 372.599,325.462 371.678,327.250 370.988 C 333.164 368.706,344.082 362.918,345.896 361.104 C 346.879 360.121,350.229 357.628,353.341 355.562 C 356.453 353.496,359.000 351.475,359.000 351.070 C 359.000 350.666,360.747 348.931,362.881 347.216 L 366.762 344.097 377.881 355.192 C 383.997 361.295,389.000 366.596,389.000 366.973 C 389.000 368.005,372.887 382.000,371.698 382.000 C 371.430 382.000,369.882 383.242,368.257 384.760 C 366.632 386.278,362.759 388.807,359.651 390.379 C 356.543 391.952,354.000 393.630,354.000 394.109 C 354.000 394.999,343.669 400.036,336.541 402.622 C 334.363 403.413,332.302 404.512,331.959 405.066 C 330.701 407.101,299.825 415.000,293.125 415.000 C 291.498 415.000,289.979 415.563,289.750 416.250 C 289.433 417.200,283.978 417.500,267.000 417.500 C 250.022 417.500,244.567 417.200,244.250 416.250 C 244.021 415.562,242.408 414.996,240.667 414.991 C 233.139 414.969,204.029 407.171,201.304 404.446 C 200.508 403.651,199.240 403.000,198.487 403.000 C 196.518 403.000,180.000 394.983,180.000 394.028 C 180.000 393.588,178.313 392.437,176.250 391.470 C 172.423 389.676,164.668 384.573,162.104 382.162 C 161.322 381.426,158.278 379.010,155.341 376.792 C 152.403 374.574,150.000 372.418,150.000 372.001 C 150.000 371.584,147.525 369.334,144.500 367.000 C 141.475 364.666,139.000 362.239,139.000 361.607 C 139.000 360.974,136.975 358.251,134.500 355.555 C 132.025 352.859,130.000 350.493,130.000 350.297 C 130.000 350.101,128.200 347.664,126.000 344.881 C 123.800 342.098,122.000 339.234,122.000 338.517 C 122.000 337.800,121.402 336.985,120.672 336.704 C 119.941 336.424,117.411 332.213,115.049 327.347 C 112.688 322.481,110.428 318.275,110.028 318.000 C 109.012 317.301,104.597 305.904,101.990 297.250 L 99.805 290.000 75.296 290.000 C 52.356 290.000,50.830 290.112,51.478 291.750 C 51.859 292.712,52.416 294.963,52.716 296.750 C 53.016 298.538,53.597 300.000,54.006 300.000 C 54.415 300.000,55.034 301.462,55.381 303.250 C 56.640 309.727,64.134 332.000,65.055 332.000 C 65.575 332.000,66.000 332.457,66.000 333.016 C 66.000 334.442,74.883 353.300,75.865 353.959 C 76.308 354.257,78.503 357.650,80.741 361.500 C 82.980 365.350,85.766 369.625,86.933 371.000 C 89.972 374.581,97.000 383.874,97.000 384.310 C 97.000 385.614,115.199 404.541,119.213 407.411 C 120.155 408.085,123.386 410.855,126.393 413.568 C 132.755 419.307,140.482 425.000,141.908 425.000 C 142.454 425.000,143.260 425.573,143.700 426.274 C 144.650 427.788,147.741 429.805,155.655 434.077 C 158.870 435.812,161.725 437.533,162.000 437.902 C 162.727 438.876,177.972 445.669,182.844 447.190 C 185.130 447.903,187.000 448.808,187.000 449.201 C 187.000 450.174,204.574 455.462,215.000 457.626 C 219.675 458.596,223.725 459.704,224.000 460.087 C 227.461 464.911,311.000 464.677,311.000 459.844 C 311.000 459.380,311.789 459.000,312.752 459.000 C 317.767 459.000,348.000 450.303,348.000 448.861 C 348.000 448.387,348.665 448.000,349.478 448.000 C 350.291 448.000,353.328 446.916,356.228 445.592 C 359.128 444.268,363.478 442.370,365.897 441.374 C 368.315 440.379,370.790 439.082,371.397 438.493 C 372.003 437.904,376.438 435.222,381.250 432.532 C 386.063 429.843,390.000 427.282,390.000 426.841 C 390.000 426.401,391.756 425.145,393.902 424.050 C 401.581 420.133,423.000 401.098,423.000 398.192 C 423.000 397.617,416.102 390.233,407.670 381.782 L 392.340 366.416 394.920 363.914 C 399.345 359.622,407.000 351.056,407.000 350.397 C 407.000 350.051,408.575 347.622,410.500 345.000 C 412.425 342.378,414.000 339.747,414.000 339.155 C 414.000 338.563,414.873 337.264,415.941 336.270 C 417.628 334.698,426.000 319.026,426.000 317.439 C 426.000 317.119,426.636 316.222,427.413 315.445 C 429.645 313.212,437.000 289.820,437.000 284.951 C 437.000 283.878,437.402 283.000,437.893 283.000 C 440.729 283.000,443.442 248.455,442.046 230.116 C 440.968 215.954,439.089 204.000,437.941 204.000 C 437.548 204.000,436.913 201.902,436.528 199.339 C 435.681 193.689,428.498 171.936,427.203 171.099 C 426.693 170.769,424.180 166.147,421.617 160.826 C 419.055 155.506,416.615 151.006,416.196 150.826 C 415.777 150.647,413.469 147.350,411.066 143.500 C 406.272 135.816,405.706 135.111,397.622 126.762 L 392.067 121.024 399.783 113.658 C 428.367 86.375,426.415 90.138,416.180 82.048 C 413.267 79.746,410.661 77.281,410.389 76.571 C 410.116 75.861,406.768 73.144,402.947 70.534 C 399.126 67.923,396.000 65.371,396.000 64.862 C 396.000 64.353,395.212 63.651,394.250 63.300 C 393.288 62.950,390.619 61.389,388.320 59.832 C 386.021 58.274,383.658 57.000,383.070 57.000 C 382.481 57.000,381.051 56.051,379.892 54.892 C 377.602 52.602,363.800 45.490,359.600 44.436 C 358.170 44.077,357.000 43.437,357.000 43.013 C 357.000 42.589,355.762 41.783,354.250 41.222 C 344.890 37.746,339.752 36.019,334.000 34.412 C 330.425 33.413,327.274 32.278,326.998 31.890 C 326.399 31.048,314.194 28.460,301.000 26.379 C 287.602 24.265,255.305 23.767,240.611 25.448 M51.000 371.428 C 51.000 407.894,51.884 424.798,53.932 427.500 C 54.349 428.050,55.293 430.750,56.031 433.500 C 58.107 441.244,63.016 451.142,66.679 454.971 C 68.506 456.880,70.000 458.992,70.000 459.664 C 70.000 460.337,71.860 462.375,74.134 464.194 C 76.407 466.012,79.390 468.550,80.762 469.833 C 84.196 473.045,94.518 478.413,100.250 479.970 C 102.862 480.679,105.000 481.561,105.000 481.930 C 105.000 482.964,115.541 484.889,125.250 485.629 L 134.000 486.295 134.000 459.215 C 134.000 433.077,133.931 432.113,132.014 431.504 C 130.922 431.158,128.784 429.655,127.264 428.164 C 125.744 426.674,122.130 423.733,119.233 421.629 C 116.336 419.526,113.508 416.949,112.948 415.902 C 112.388 414.856,111.325 414.000,110.585 414.000 C 109.194 414.000,91.822 395.965,91.086 393.758 C 90.858 393.073,88.720 390.562,86.336 388.178 C 83.951 385.793,82.000 383.303,82.000 382.644 C 82.000 381.985,80.590 379.901,78.866 378.014 C 75.862 374.725,74.795 373.078,69.143 363.000 C 67.754 360.525,66.294 358.273,65.897 357.995 C 65.060 357.409,57.569 341.582,56.552 338.250 C 56.174 337.012,55.476 336.000,55.000 336.000 C 54.524 336.000,53.849 335.100,53.500 334.000 C 51.491 327.670,51.000 335.021,51.000 371.428 " stroke="none" fill-rule="evenodd"></path></g></svg>