<svg id="svg" version="1.1" width="400" height="400" xmlns="http://www.w3.org/2000/svg" xmlns:xlink="http://www.w3.org/1999/xlink" style="display: block;"><g id="svgg"><path id="path0" d="M175.000 15.946 C 141.781 20.655,103.822 36.931,81.585 56.000 C 66.146 69.239,55.004 81.107,45.908 94.000 C 15.356 137.304,4.562 189.406,14.936 243.500 C 15.568 246.800,16.483 250.625,16.969 252.000 C 17.454 253.375,18.839 257.875,20.047 262.000 C 21.255 266.125,22.638 269.927,23.121 270.450 C 23.605 270.972,24.000 272.021,24.000 272.780 C 24.000 274.882,32.290 291.928,38.078 301.727 C 48.458 319.302,62.125 335.187,80.000 350.455 C 95.913 364.047,126.177 380.366,144.000 384.965 C 145.925 385.462,150.924 386.768,155.108 387.867 C 180.061 394.423,219.973 394.417,244.945 387.854 C 249.100 386.762,254.075 385.462,256.000 384.965 C 269.596 381.456,292.942 369.899,310.000 358.231 C 322.116 349.943,337.685 334.813,350.500 318.871 C 365.106 300.701,380.300 267.549,385.044 243.500 C 397.088 182.442,380.746 121.426,340.500 77.179 C 333.110 69.054,330.665 66.709,318.236 55.822 C 302.060 41.653,269.438 25.728,245.000 20.071 C 239.775 18.862,233.925 17.412,232.000 16.849 C 227.690 15.588,182.566 14.874,175.000 15.946 M231.000 23.460 C 250.730 27.630,261.718 31.002,273.839 36.607 C 277.876 38.473,281.413 40.000,281.700 40.000 C 283.468 40.000,307.969 55.828,314.976 61.497 C 323.055 68.033,344.455 90.687,347.433 95.857 C 348.380 97.500,349.496 98.949,351.750 101.463 C 352.438 102.230,353.000 103.307,353.000 103.857 C 353.000 104.407,353.604 105.462,354.343 106.200 C 356.299 108.156,364.378 123.445,367.448 131.000 C 368.901 134.575,370.472 138.400,370.939 139.500 C 376.753 153.189,380.811 172.043,382.003 190.902 C 382.884 204.839,381.765 229.862,380.009 235.500 C 379.496 237.150,378.774 240.873,378.406 243.772 C 378.038 246.672,377.346 249.286,376.868 249.581 C 376.391 249.877,376.000 250.990,376.000 252.055 C 376.000 253.899,372.843 264.247,370.982 268.500 C 370.501 269.600,369.097 272.975,367.863 276.000 C 366.628 279.025,364.293 283.975,362.674 287.000 C 361.055 290.025,358.803 294.300,357.669 296.500 C 356.536 298.700,355.335 300.725,355.001 301.000 C 354.667 301.275,353.310 303.300,351.985 305.500 C 350.659 307.700,349.108 310.024,348.537 310.664 C 347.967 311.304,346.375 313.313,345.000 315.130 C 325.323 341.121,304.006 357.333,267.500 374.073 C 231.617 390.526,168.383 390.526,132.500 374.073 C 95.983 357.328,75.084 341.442,55.000 315.160 C 53.625 313.361,51.802 311.048,50.948 310.020 C 50.094 308.992,48.530 306.542,47.471 304.575 C 46.412 302.609,45.198 301.000,44.773 301.000 C 44.348 301.000,44.000 300.513,44.000 299.918 C 44.000 299.323,42.487 296.256,40.639 293.101 C 37.813 288.280,34.992 282.321,28.991 268.500 C 28.235 266.759,25.994 259.645,23.005 249.500 C 22.519 247.850,21.831 244.700,21.476 242.500 C 21.122 240.300,20.423 237.150,19.925 235.500 C 16.905 225.511,17.227 185.171,20.451 169.577 C 24.855 148.274,38.890 112.574,45.053 107.000 C 45.357 106.725,46.683 104.700,48.000 102.500 C 49.317 100.300,50.682 98.275,51.033 98.000 C 51.384 97.725,52.082 96.766,52.585 95.869 C 55.401 90.846,76.798 68.169,85.024 61.489 C 91.565 56.178,116.723 40.000,118.442 40.000 C 118.651 40.000,122.124 38.473,126.161 36.607 C 141.542 29.495,162.972 23.726,182.000 21.576 C 190.237 20.645,223.784 21.935,231.000 23.460 M287.538 66.193 C 284.259 67.353,279.401 69.584,276.744 71.151 C 274.086 72.718,271.482 74.000,270.956 74.000 C 270.430 74.000,270.000 74.450,270.000 75.000 C 270.000 75.550,269.438 75.998,268.750 75.996 C 268.063 75.993,263.675 78.573,259.000 81.729 C 250.873 87.214,249.467 88.219,246.715 90.513 C 246.047 91.070,242.350 93.990,238.500 97.001 C 228.094 105.140,208.718 124.770,201.485 134.500 C 199.849 136.700,198.284 138.725,198.006 139.000 C 197.183 139.814,190.227 149.920,184.756 158.250 C 179.668 165.999,177.795 167.520,179.791 162.282 C 180.374 160.752,181.818 156.125,183.000 152.000 C 184.182 147.875,185.532 143.375,186.000 142.000 C 186.468 140.625,187.818 136.125,189.000 132.000 C 190.182 127.875,191.532 123.375,192.000 122.000 C 192.832 119.558,195.725 109.510,198.478 99.500 C 200.537 92.016,204.040 80.022,205.487 75.500 C 208.493 66.109,208.474 64.950,205.324 65.945 C 203.771 66.436,199.800 67.626,196.500 68.591 C 190.627 70.308,174.463 76.129,170.500 77.954 C 169.400 78.461,164.225 80.529,159.000 82.550 C 153.775 84.571,148.150 86.816,146.500 87.540 C 144.850 88.263,141.250 89.813,138.500 90.982 C 132.536 93.519,131.500 93.975,122.680 97.937 C 118.929 99.621,115.590 101.000,115.259 101.000 C 114.929 101.000,111.922 102.305,108.579 103.901 C 105.236 105.497,100.408 107.701,97.852 108.800 C 93.970 110.468,93.095 111.350,92.543 114.149 C 92.180 115.992,91.494 118.400,91.018 119.500 C 90.542 120.600,89.397 124.200,88.472 127.500 C 87.548 130.800,86.165 135.489,85.399 137.920 C 83.428 144.173,80.026 144.893,127.750 128.968 C 137.238 125.802,145.000 123.608,145.000 124.091 C 145.000 124.575,143.677 127.565,142.061 130.735 C 140.444 133.906,138.170 138.750,137.006 141.500 C 135.843 144.250,134.490 147.400,134.000 148.500 C 131.424 154.283,129.079 160.029,127.469 164.500 C 126.479 167.250,125.294 169.928,124.835 170.450 C 124.376 170.973,124.000 172.029,124.000 172.799 C 124.000 173.568,123.335 175.616,122.522 177.349 C 120.832 180.954,114.982 197.259,104.529 227.500 C 95.591 253.359,96.646 250.204,94.162 258.500 C 93.009 262.350,90.966 269.100,89.622 273.500 C 88.278 277.900,86.489 283.975,85.646 287.000 C 84.803 290.025,83.409 294.975,82.548 298.000 C 79.557 308.510,76.153 325.682,76.060 330.729 L 76.000 333.958 83.250 331.328 C 87.237 329.881,90.927 328.316,91.450 327.849 C 91.972 327.382,93.097 326.997,93.950 326.994 C 94.802 326.990,96.789 326.315,98.364 325.494 C 99.940 324.672,101.652 324.000,102.169 324.000 C 102.686 324.000,104.998 323.170,107.305 322.156 C 109.612 321.142,116.225 318.592,122.000 316.491 C 127.775 314.389,132.950 312.346,133.500 311.950 C 134.050 311.555,135.966 310.917,137.758 310.534 C 141.664 309.699,141.818 309.434,146.450 295.585 C 148.458 289.581,151.003 282.606,152.105 280.085 C 153.207 277.563,154.501 274.600,154.979 273.500 C 162.672 255.820,167.947 244.355,171.459 237.678 C 173.825 233.180,177.277 226.575,179.130 223.000 C 180.984 219.425,182.838 216.350,183.250 216.167 C 183.663 215.983,184.000 215.393,184.000 214.855 C 184.000 214.316,186.851 209.066,190.336 203.188 C 193.821 197.310,197.816 190.475,199.214 188.000 C 204.621 178.427,225.560 145.472,228.758 141.500 C 229.201 140.950,230.650 138.700,231.979 136.500 C 233.307 134.300,234.650 132.275,234.963 132.000 C 235.276 131.725,238.214 127.450,241.492 122.500 C 251.032 108.096,249.988 108.030,257.477 123.500 C 268.867 147.030,273.775 170.486,273.929 202.134 L 274.000 216.768 267.250 215.397 C 263.538 214.643,257.575 213.341,254.000 212.503 C 250.425 211.666,244.125 210.310,240.000 209.491 C 235.875 208.672,230.475 207.571,228.000 207.045 C 220.857 205.525,220.366 205.697,217.432 210.750 C 215.914 213.363,214.385 215.725,214.034 216.000 C 213.682 216.275,212.317 218.300,211.000 220.500 C 209.683 222.700,208.329 224.725,207.992 225.000 C 207.654 225.275,205.626 228.425,203.485 232.000 C 201.344 235.575,198.109 240.579,196.296 243.119 C 192.212 248.844,192.208 249.446,196.250 251.035 C 205.470 254.659,209.969 257.259,214.627 261.658 C 223.979 270.490,231.142 274.477,240.353 275.976 C 251.172 277.737,251.661 277.458,269.997 259.083 C 313.088 215.899,323.404 197.544,329.054 154.000 C 330.153 145.533,330.127 116.778,329.015 111.000 C 327.527 103.261,325.984 97.618,324.465 94.349 C 323.659 92.616,323.000 90.697,323.000 90.085 C 323.000 89.473,322.590 88.191,322.089 87.236 C 321.588 86.281,319.994 83.021,318.547 79.991 C 315.748 74.129,313.289 72.016,303.500 67.062 C 296.427 63.482,295.363 63.424,287.538 66.193 " stroke="none" fill="#000000" fill-rule="evenodd"></path></g></svg>