<svg id="svg" version="1.1" width="400" height="400" xmlns="http://www.w3.org/2000/svg" xmlns:xlink="http://www.w3.org/1999/xlink" style="display: block;"><g id="svgg"><path id="path0" d="M9.750 71.786 L 0.000 72.072 0.000 199.536 L 0.000 327.000 199.500 327.000 L 399.000 327.000 399.010 290.250 C 399.053 139.530,398.925 72.592,398.596 72.262 C 398.150 71.817,24.307 71.359,9.750 71.786 M149.250 117.602 C 154.063 118.485,158.000 119.611,158.000 120.104 C 158.000 120.597,159.350 121.000,161.000 121.000 C 162.650 121.000,164.000 121.354,164.000 121.787 C 164.000 122.220,167.375 124.116,171.500 126.000 C 175.625 127.884,179.000 129.749,179.000 130.145 C 179.000 130.541,179.836 131.131,180.858 131.455 C 182.949 132.118,198.142 146.418,198.101 147.684 C 198.087 148.133,199.408 150.006,201.037 151.846 C 202.667 153.687,204.000 156.001,204.000 156.989 C 204.000 157.978,204.675 159.045,205.500 159.362 C 206.325 159.678,207.000 160.851,207.000 161.969 C 207.000 163.086,207.368 164.000,207.817 164.000 C 208.961 164.000,212.246 174.793,211.479 176.033 C 211.134 176.592,211.434 176.926,212.147 176.775 C 213.460 176.496,214.512 181.206,215.399 191.328 C 215.632 193.983,216.087 196.421,216.411 196.744 C 217.333 197.666,217.101 201.820,216.093 202.442 C 215.594 202.751,214.866 207.277,214.474 212.501 C 214.083 217.726,213.473 222.000,213.119 222.000 C 212.765 222.000,211.637 224.925,210.614 228.500 C 209.590 232.075,208.358 235.000,207.876 235.000 C 207.394 235.000,207.000 235.873,207.000 236.941 C 207.000 238.009,206.543 239.165,205.984 239.510 C 205.425 239.856,205.226 240.557,205.543 241.069 C 205.859 241.581,205.641 242.000,205.059 242.000 C 204.477 242.000,204.000 242.675,204.000 243.500 C 204.000 244.325,203.536 245.000,202.969 245.000 C 202.401 245.000,201.649 245.787,201.296 246.750 C 200.571 248.728,199.286 250.213,191.562 258.000 C 184.496 265.124,181.160 268.000,179.965 268.000 C 179.434 268.000,179.000 268.454,179.000 269.008 C 179.000 269.563,177.200 270.736,175.000 271.617 C 172.800 272.497,171.000 273.618,171.000 274.109 C 171.000 274.599,169.907 275.000,168.571 275.000 C 167.236 275.000,165.478 275.665,164.666 276.477 C 157.217 283.926,103.675 284.348,101.166 276.978 C 100.983 276.438,99.070 275.715,96.916 275.371 C 94.762 275.026,93.000 274.345,93.000 273.856 C 93.000 273.367,91.425 272.217,89.500 271.299 C 87.575 270.381,86.000 269.263,86.000 268.815 C 86.000 268.367,85.408 268.000,84.684 268.000 C 83.334 268.000,69.082 254.325,65.500 249.592 C 64.400 248.139,63.036 246.399,62.468 245.725 C 60.601 243.509,54.182 229.591,52.910 225.000 C 52.224 222.525,51.289 220.072,50.831 219.550 C 50.374 219.027,50.000 215.765,50.000 212.300 C 50.000 208.767,49.561 206.000,49.000 206.000 C 48.436 206.000,48.000 203.167,48.000 199.500 C 48.000 195.833,48.436 193.000,49.000 193.000 C 49.564 193.000,50.000 190.167,50.000 186.500 C 50.000 182.833,50.436 180.000,51.000 180.000 C 51.550 180.000,52.000 179.085,52.000 177.968 C 52.000 175.270,57.918 160.000,58.964 160.000 C 59.415 160.000,60.079 158.821,60.441 157.379 C 60.803 155.938,61.639 154.153,62.299 153.414 C 64.945 150.451,66.000 149.058,66.000 148.528 C 66.000 147.387,82.276 132.047,84.101 131.468 C 85.146 131.136,86.000 130.446,86.000 129.933 C 86.000 129.420,86.493 129.000,87.096 129.000 C 87.698 129.000,89.386 128.161,90.846 127.136 C 92.306 126.110,95.188 124.670,97.250 123.935 C 99.313 123.200,101.000 122.239,101.000 121.799 C 101.000 121.360,102.313 121.000,103.917 121.000 C 105.521 121.000,106.983 120.593,107.167 120.095 C 108.452 116.607,135.195 115.022,149.250 117.602 M341.292 129.941 C 351.830 138.153,351.896 138.387,351.956 167.750 L 352.000 189.000 342.250 189.092 C 336.887 189.142,317.088 189.255,298.251 189.342 L 264.001 189.500 264.001 164.250 C 264.000 150.363,264.353 139.000,264.784 139.000 C 265.216 139.000,266.345 137.686,267.294 136.080 C 268.243 134.473,270.365 132.564,272.010 131.835 C 273.654 131.107,275.000 130.172,275.000 129.756 C 275.000 128.640,339.855 128.821,341.292 129.941 M114.750 132.716 C 113.237 132.945,112.000 133.517,112.000 133.987 C 112.000 134.457,110.537 135.128,108.750 135.478 C 104.900 136.233,95.000 141.081,95.000 142.211 C 95.000 142.645,94.555 143.000,94.011 143.000 C 92.009 143.000,79.000 154.973,79.000 156.816 C 79.000 157.467,78.562 158.000,78.026 158.000 C 77.490 158.000,76.302 159.463,75.386 161.250 C 74.470 163.037,73.421 164.725,73.055 165.000 C 71.772 165.963,68.260 174.549,66.919 180.000 C 66.174 183.025,65.174 185.776,64.695 186.113 C 64.217 186.450,63.977 187.800,64.163 189.113 L 64.500 191.500 82.250 191.773 C 95.236 191.973,100.000 191.734,100.000 190.883 C 100.000 183.464,112.412 171.044,123.250 167.616 C 124.829 167.117,125.000 165.350,125.000 149.531 L 125.000 132.000 121.250 132.150 C 119.188 132.232,116.263 132.487,114.750 132.716 M140.000 148.279 C 140.000 165.156,140.337 167.976,142.357 168.031 C 144.646 168.094,153.089 172.797,155.079 175.118 C 156.202 176.428,157.994 178.516,159.061 179.758 C 160.127 180.999,161.000 182.687,161.000 183.508 C 161.000 184.328,161.415 185.000,161.922 185.000 C 162.430 185.000,163.365 186.575,164.000 188.500 L 165.155 192.000 182.560 192.000 L 199.964 192.000 199.851 187.000 C 199.789 184.250,199.421 182.000,199.033 182.000 C 198.645 182.000,197.577 179.300,196.660 176.000 C 195.742 172.700,194.543 170.000,193.996 170.000 C 193.448 170.000,193.000 168.875,193.000 167.500 C 193.000 166.125,192.571 165.000,192.047 165.000 C 191.523 165.000,190.353 163.439,189.448 161.531 C 187.577 157.590,177.927 147.000,176.206 147.000 C 175.581 147.000,174.589 146.100,174.000 145.000 C 173.411 143.900,172.270 143.000,171.465 143.000 C 170.659 143.000,170.000 142.617,170.000 142.148 C 170.000 141.109,156.970 135.000,154.754 135.000 C 153.881 135.000,153.006 134.517,152.809 133.926 C 152.612 133.335,149.649 132.597,146.225 132.287 L 140.000 131.722 140.000 148.279 M280.449 144.884 C 280.202 145.131,280.000 151.550,280.000 159.148 C 280.000 175.835,276.380 174.073,310.000 173.747 L 335.500 173.500 335.777 159.250 C 336.032 146.185,335.907 144.993,334.277 144.910 C 327.132 144.550,280.806 144.527,280.449 144.884 M129.785 183.451 C 124.826 184.565,118.000 189.291,118.000 191.611 C 118.000 192.375,117.592 193.000,117.094 193.000 C 116.595 193.000,116.258 195.924,116.344 199.497 C 116.430 203.070,116.838 205.995,117.250 205.997 C 117.662 205.999,118.000 206.592,118.000 207.316 C 118.000 208.040,119.590 210.039,121.533 211.760 C 129.322 218.655,143.684 216.054,146.432 207.250 C 146.819 206.012,147.554 205.000,148.067 205.000 C 149.336 205.000,149.258 195.278,147.984 194.490 C 147.425 194.144,147.179 193.520,147.437 193.102 C 148.137 191.969,142.355 186.000,140.556 186.000 C 139.700 186.000,138.996 185.662,138.992 185.250 C 138.972 183.339,134.326 182.431,129.785 183.451 M64.667 207.667 C 63.634 208.699,63.880 212.808,65.016 213.510 C 65.575 213.856,65.803 214.510,65.522 214.965 C 65.241 215.420,65.680 217.076,66.499 218.646 C 67.318 220.216,67.990 222.126,67.994 222.890 C 68.002 224.621,72.062 233.037,73.750 234.821 C 74.438 235.548,75.000 236.686,75.000 237.351 C 75.000 238.015,75.900 239.207,77.000 240.000 C 78.100 240.793,79.000 241.920,79.000 242.505 C 79.000 243.972,89.278 254.000,90.781 254.000 C 91.452 254.000,92.000 254.370,92.000 254.822 C 92.000 256.119,99.972 261.000,102.090 261.000 C 103.140 261.000,104.000 261.430,104.000 261.955 C 104.000 262.480,105.688 263.220,107.750 263.599 C 109.813 263.978,111.750 264.671,112.056 265.139 C 112.362 265.607,115.399 266.281,118.806 266.638 L 125.000 267.285 125.000 249.642 C 125.000 235.491,124.733 232.000,123.649 232.000 C 119.038 232.000,104.000 220.166,104.000 216.538 C 104.000 215.827,103.354 214.709,102.564 214.053 C 101.775 213.398,100.839 211.543,100.485 209.931 L 99.841 207.000 82.587 207.000 C 73.098 207.000,65.033 207.300,64.667 207.667 M163.092 212.224 C 161.774 215.097,160.201 217.994,159.598 218.661 C 158.994 219.329,157.216 221.478,155.646 223.438 C 154.076 225.397,152.163 227.000,151.396 227.000 C 150.628 227.000,150.000 227.450,150.000 228.000 C 150.000 228.550,149.553 229.000,149.007 229.000 C 148.461 229.000,146.211 229.781,144.007 230.736 L 140.000 232.472 140.000 249.875 L 140.000 267.278 146.225 266.713 C 149.649 266.403,152.612 265.665,152.809 265.074 C 153.006 264.483,154.367 263.997,155.833 263.993 C 157.300 263.990,159.850 263.071,161.500 261.951 C 163.150 260.831,165.958 259.283,167.740 258.512 C 169.523 257.741,172.139 255.952,173.555 254.536 C 174.971 253.120,176.550 252.222,177.065 252.540 C 177.579 252.858,178.000 252.741,178.000 252.280 C 178.000 251.819,179.495 249.880,181.323 247.971 C 188.980 239.972,194.427 231.141,197.035 222.500 C 197.698 220.300,198.637 218.073,199.121 217.550 C 199.604 217.028,200.000 214.440,200.000 211.800 L 200.000 207.000 182.744 207.000 L 165.488 207.000 163.092 212.224 M352.000 253.955 L 352.000 261.910 308.000 261.958 L 264.000 262.005 264.000 254.003 L 264.000 246.000 308.000 246.000 L 352.000 246.000 352.000 253.955 " stroke="none" fill="#000000" fill-rule="evenodd"></path></g></svg>