<svg id="svg" xmlns="http://www.w3.org/2000/svg" xmlns:xlink="http://www.w3.org/1999/xlink" width="400" height="400" viewBox="0, 0, 400,400"><g id="svgg"><path id="path0" d="M214.667 28.437 C 170.713 32.649,133.795 49.318,104.621 78.125 L 98.333 84.333 157.000 84.667 C 218.594 85.017,216.809 84.926,220.167 87.856 C 221.276 88.823,221.333 87.367,221.333 58.437 L 221.333 28.000 219.167 28.107 C 217.975 28.165,215.950 28.314,214.667 28.437 M228.444 85.464 C 228.200 117.109,228.001 155.075,228.000 169.833 L 228.000 196.667 312.434 196.667 L 396.867 196.667 396.431 189.486 C 391.220 103.682,322.402 35.298,234.277 28.352 L 228.887 27.928 228.444 85.464 M8.746 101.752 C 4.894 103.671,1.768 107.339,0.631 111.274 C 0.164 112.888,0.003 142.202,0.136 201.386 L 0.333 289.105 2.351 292.368 C 3.602 294.391,5.609 296.398,7.632 297.649 L 10.896 299.667 99.281 299.667 L 187.667 299.667 190.333 298.225 C 193.477 296.526,196.693 293.257,198.425 290.000 C 199.615 287.764,199.674 284.064,199.835 200.925 C 200.025 103.159,200.409 110.545,194.849 104.964 C 189.572 99.668,196.393 100.021,99.051 100.005 L 12.281 99.990 8.746 101.752 M114.333 138.233 C 115.433 138.500,116.933 138.917,117.667 139.160 C 118.400 139.403,119.150 139.642,119.333 139.691 C 120.290 139.951,122.472 140.838,123.491 141.382 C 124.128 141.722,124.969 142.000,125.361 142.000 C 126.315 142.000,136.667 148.664,136.667 149.277 C 136.667 149.543,137.502 150.696,138.523 151.839 C 140.612 154.179,144.525 161.465,145.054 164.000 C 145.245 164.917,145.585 166.417,145.809 167.333 C 146.359 169.580,146.296 181.837,145.723 184.333 C 144.992 187.514,144.776 188.333,144.667 188.333 C 144.611 188.333,144.461 188.880,144.334 189.549 C 144.058 191.005,140.142 197.587,138.500 199.355 C 137.858 200.046,137.333 200.743,137.333 200.905 C 137.333 201.437,132.547 206.000,131.989 206.000 C 131.689 206.000,131.344 206.251,131.222 206.557 C 130.881 207.413,123.960 212.000,123.010 212.000 C 122.548 212.000,120.856 212.581,119.251 213.290 C 116.487 214.513,114.998 214.922,110.333 215.741 C 106.612 216.394,105.025 216.458,89.833 216.562 L 74.667 216.667 74.667 239.667 L 74.667 262.667 62.333 262.667 L 50.000 262.667 50.000 199.967 L 50.000 137.267 81.167 137.507 C 98.308 137.639,113.233 137.966,114.333 138.233 M74.667 176.314 L 74.667 196.080 88.833 195.825 C 105.493 195.524,107.559 195.133,112.167 191.404 C 112.808 190.885,113.333 190.667,113.333 190.919 C 113.333 192.557,119.264 185.045,119.848 182.667 C 122.448 172.096,116.142 160.308,106.810 158.294 C 105.815 158.079,104.250 157.738,103.333 157.536 C 102.417 157.335,95.592 157.030,88.167 156.859 L 74.667 156.548 74.667 176.314 M227.985 258.500 C 227.971 312.518,227.943 313.729,226.616 316.667 C 224.797 320.693,221.054 324.484,217.000 326.407 L 213.667 327.987 162.333 328.017 L 111.000 328.048 113.000 329.752 C 176.920 384.213,267.647 385.547,332.998 332.984 C 369.478 303.644,393.604 257.063,396.431 210.514 L 396.867 203.333 312.434 203.333 L 228.000 203.333 227.985 258.500 " stroke="none" fill="#000000" fill-rule="evenodd"></path></g></svg>