<svg width="100%" height="100%" viewBox="0 0 515 515" version="1.1" xmlns="http://www.w3.org/2000/svg" style="fill-rule:evenodd;clip-rule:evenodd;stroke-linejoin:round;stroke-miterlimit:2;">
    <g>
        <path d="M242.391,9.75C242.881,18.883 243.347,28.018 243.837,37.151C244.055,41.222 244.056,45.312 244.515,49.363C244.738,51.339 245.148,53.322 245.878,55.173C247.065,58.178 256.465,56.985 256.809,56.985C257.155,56.985 264.834,57.635 267.155,56.228C267.794,55.841 268.45,55.29 268.667,54.576C270.836,47.411 270.211,36.716 270.535,30.225C270.965,21.616 271.388,13.003 272.136,4.416C272.212,3.545 272.877,2.806 273,1.941C273.19,0.602 271.681,0.334 270.745,0.281C266.314,0.03 261.872,0 257.434,0L241.867,0L242.391,9.75M208,2.809C208,3.254 203.95,4.191 199,4.891L190,6.165L190,9.251C190,21.512 195.669,34.262 198.855,46C199.344,47.802 202.711,61.169 203.271,62.319C204.713,65.281 212.198,61.626 213.022,61.418C215.129,60.885 220.873,59.544 223.559,59C224.547,58.8 225.877,59.224 226.535,58.46C227.294,57.577 227.065,56.162 227,55C226.763,50.759 225.273,46.682 224.529,42.5C222.846,33.036 222.714,31.253 221.072,20.49C220.42,16.219 220.171,8.917 218,3.941C216.895,1.408 216.339,1.831 213,2C211.314,2.086 208,1.121 208,2.809M294.174,12.25C293.674,16.572 293.56,20.936 292.994,25.25C291.776,34.529 288.716,43.9 287.643,53.25L286.983,59L290.991,59C296.073,59 303.055,61.525 307.833,63.01C308.477,63.21 308.95,64.073 309.615,63.966C310.254,63.863 311.641,61.582 311.821,61C314.024,53.859 315.522,46.467 317.473,39.251C319.612,31.34 322.644,22.885 323.898,14.807C324.305,12.184 326.098,8.757 324.25,6.85C321.858,4.381 317.517,5.459 314.153,4.751C309.508,3.773 304.927,2 300.18,2L295.36,2L294.174,12.25M162,16.266C157.097,18.723 151.952,20.667 147,23.024C145.029,23.962 140.571,25.098 139.575,27.443C138.336,30.358 141.456,35.857 142.892,38C149.167,47.367 153.653,58.06 158.908,68C160.428,70.875 162.045,77.121 165.665,77.666C170.976,78.464 176.547,72.364 181.623,71.411L185.247,70.731L184.658,65.76C183.947,59.76 181.047,54.11 179.012,48.5C175.936,40.018 172.696,31.556 169.576,23.091C168.012,18.849 167.067,13.726 162,16.266M348,15.946C348,17.855 346.724,19.545 346.073,21.34C345.202,23.741 344.321,26.139 343.435,28.535C340.428,36.668 337.035,44.649 333.954,52.75C332.358,56.947 330.756,60.299 329.4,64.57C328.909,66.118 327.988,67.618 329.021,69.226C330.167,71.009 332.199,70.947 333.942,71.638C339.061,73.666 343.447,77.087 349.191,77.704C350.726,77.869 352.109,76.066 352.668,75C355.944,68.751 358.854,62.316 361.999,56C365.328,49.314 368.145,42.335 372.101,36C372.834,34.826 374.058,33.971 374.639,32.716C375.567,30.708 375.568,27.963 373.978,26.219C373.666,25.877 368.493,23.2 368,22.966C363.415,20.791 358.658,18.935 353.99,16.954C352.866,16.477 351.857,15.645 350.653,15.443C349.766,15.293 348,15.046 348,15.946M394.983,42.098C387.024,53.563 379.756,65.547 372.019,77.097C369.653,80.629 366.309,83.111 367.129,87.929C367.794,91.834 371.211,91.636 373.852,93.75C376.039,95.501 377.987,97.54 380.207,99.249C380.992,99.853 383.484,101.169 384.724,100.611C389.969,98.252 391.876,93.892 395.53,89.5C400.712,83.272 405.922,77.166 411,70.85C413.67,67.528 416.883,64.474 419,60.732C422.768,54.07 411.059,48.528 407.045,45.742C405.411,44.608 403.829,43.399 402.179,42.287C399.928,40.77 396.922,39.31 394.983,42.098M113.046,41.73C109.109,43.28 106.122,46.597 102.754,49.158C102.754,49.158 94.951,54.265 94.379,55.602C93.076,58.649 96.427,62.249 97.977,64.285C103.037,70.932 108.728,77.058 114,83.534C117.275,87.556 120.54,91.587 123.75,95.661C126.299,98.896 127.667,102.741 132.292,100.015C136.22,97.7 140.529,94.187 144.464,91.42C145.251,90.867 146.211,90.463 146.759,89.673C147.36,88.806 147.656,87.721 147.757,86.672C148.103,83.088 144.469,80.333 142.5,77.638C138.292,71.877 135.032,65.434 131,59.531C127.999,55.138 125.191,50.616 122,46.362C120.935,44.942 119.133,41.356 117.065,41.126C115.718,40.976 114.307,41.234 113.046,41.73M66.561,81.536C61.266,86.813 62.056,87.347 56.968,92.803L54.937,94.984L58.129,98.492C60.419,101.007 63.349,102.854 65.953,105.042C72.831,110.823 79.967,116.148 86.969,121.75C86.98,121.758 95.524,129.108 96.594,129.75C97.599,130.353 98.752,131.072 99.913,130.913C101.144,130.744 102.147,129.744 103.029,128.87C105.45,126.472 107.596,123.809 109.75,121.168C111.589,118.913 116.33,116.781 115,114.192C113.631,111.529 77.852,75.184 74.992,74C71.509,72.558 69.231,78.875 66.561,81.536M232.25,74.671C227.474,75.065 227.87,76.225 224.019,77C210.468,79.726 200.662,82.051 188.321,87C179.266,90.631 169.65,94.239 161.256,99.349C131.737,117.319 108.867,143.729 93.029,174C85.364,188.65 76.927,207.589 75.574,224.214C74.674,235.279 74.45,246.398 74.45,257.5C74.45,268.602 74.674,279.721 75.574,290.786C76.605,303.45 82.309,315.171 87,326.679C90.689,335.73 94.229,345.334 99.349,353.744C107.408,366.983 117.806,379.013 128.816,389.814C146.434,407.096 167.018,420.333 190,429.017C201.886,433.508 214.584,438.273 227.25,439.25C247.348,440.8 267.679,441.193 287.787,439.426C307.119,437.727 328.279,428.44 345,419.06C370.754,404.612 395.672,384.837 411,358.879C417.431,347.988 421.923,338.518 427.541,326.75C433.481,314.307 438.256,298.417 439.453,284.786C440.896,268.358 440.896,246.642 439.453,230.214C437.902,212.553 430.411,192.217 423,176.055C417.767,164.643 409.398,153.949 401.848,144C381.682,117.428 354.671,98.364 324,85.856C313.154,81.433 299.454,76.252 287.845,75.67C269.334,74.742 250.722,73.144 232.25,74.671M417.557,94.057L397.614,113.977L400.807,116.828C404.195,119.853 402.915,120.692 405.969,124.125C407.907,126.304 412.222,129.206 415.116,129.953C419.901,131.188 425.642,123.584 428.472,121.25C435.173,115.723 442.103,110.491 448.833,105C451.342,102.953 453.776,100.816 456.25,98.727C456.831,98.236 457.652,97.9 457.945,97.198C458.712,95.361 457.141,92.761 456.252,91.515C453.85,88.145 450.687,85.387 447.991,82.247C446.677,80.716 445.662,78.916 444.184,77.543C442.698,76.162 440.911,72.999 439.187,74.068C430.844,79.242 424.503,87.119 417.557,94.057M280,93.001C281.368,94.946 284.658,93.964 286.99,94.433C289.488,94.936 292.004,95.354 294.49,95.916C307.247,98.803 319.872,103.513 331.75,108.991C334.825,110.409 337.863,113.108 340.75,114.924C343.232,116.485 350.697,120.137 354.167,122.768C396.286,154.696 423,204.38 423,257.5C423,324.206 380.499,386.189 318.75,410.969C305.781,416.173 291.958,421.019 277.871,422.265C243.782,425.279 212.918,419.75 182.011,406C179.653,404.951 175.276,401.535 173.5,400.551C156.133,390.923 140.284,377.063 128,361.573C114.434,344.466 103.871,324.683 97.819,303.72C95.944,297.224 93.279,289.509 92.646,282.786C91.026,265.572 91.026,249.428 92.646,232.214C93.58,222.287 97.556,211.431 101.006,202.167C110.831,175.786 126.081,151.16 147.894,132.916C172.436,112.39 201.989,95.88 234.55,92.933C236.472,92.759 277.685,89.709 280,93.001M232.519,104.681C210.588,106.651 185.863,117.276 168.918,131C152.366,144.405 136.181,157.712 125,176.347C99.86,218.247 95.517,272.586 114.454,317.75C131.146,357.562 168.694,393.869 211.068,405.137C230.326,410.258 248.115,411.344 268.32,410.644C327.266,408.602 384.647,365.013 403.006,308.75C413.553,276.427 413.553,238.573 403.006,206.25C388.577,162.03 348.335,122.926 303.952,109.893C281.288,103.238 255.864,102.585 232.519,104.681M37.188,119.96C33.845,124.481 31.126,130.012 28.5,135C27.974,136 27.596,137.093 26.921,138C26.607,138.422 25.715,138.365 25.613,138.881C25.051,141.71 29.687,143.686 31.379,144.559C37.897,147.921 44.476,151.152 51,154.5C53.812,155.943 56.04,157.521 58.907,158.934C61.604,160.263 64.617,161.083 67,162.916C67.687,163.444 67.929,164.464 68.678,164.9C71.158,166.343 76.376,167.427 78.565,164.797C80.975,161.902 82.777,157.953 84.55,154.658C85.534,152.829 87.808,151.623 88.152,149.575C88.514,147.421 86.467,144.55 85.059,143.355C83.282,141.847 80.927,141.177 79,139.867C74.435,136.763 70.728,133.92 65.884,131C63.738,129.707 61.624,128.362 59.521,127C55.406,124.335 43.118,111.938 37.188,119.96M468.25,118.22C464.546,120.006 460.703,123.796 457.336,125.941C452.345,129.12 446.927,132.213 441.821,135.252C437.783,137.655 433.62,139.937 430,142.933C428.863,143.874 427.13,144.251 426.425,145.548C426.098,146.151 426.058,146.967 426.316,147.603C426.858,148.935 435.2,164.973 436,166.06C436.528,166.777 437.61,166.997 438.5,167C441.872,167.013 446.963,162.999 449.931,161.515C457.109,157.926 463.866,153.74 471,150.13C475.794,147.704 481.074,145.736 485.638,142.915L489.012,140.829L487.256,137.665C485.486,134.474 483.887,131.186 482.115,128C478.728,121.91 476.526,114.229 468.25,118.22M277.985,122.923C279.331,124.963 282.783,123.862 285.174,124.371C288.316,125.04 291.474,125.651 294.584,126.459C307.935,129.93 320.513,136.46 331.96,144C369.557,168.764 393,212.617 393,257.5C393,307.158 363.349,358.603 317,378.905C303.741,384.713 290.68,390.757 276,392.117C244.431,395.042 217.328,389.987 189.52,376C182.844,372.642 176.306,366.418 170.673,361.78C159.34,352.449 148.913,340.976 141,328.531C103.192,269.065 121.251,189.069 176.692,148C200.305,130.508 226.819,121.581 256.641,121.544C263.77,121.536 274.057,116.973 277.985,122.923M237.75,134.665C235.481,134.878 232.397,136.471 230.049,137C213.886,140.645 202.027,144.538 188.703,154C169.491,167.644 155.113,182.774 144.5,204C140.531,211.938 136.455,221.345 135.615,230.213C134.845,238.352 134.626,246.539 134.5,254.713C134.223,272.652 134.784,288.395 141.485,304.933C151.424,329.462 170.124,350.6 192.684,364C204.341,370.924 217.494,377.971 231.25,379.25C248.821,380.884 265.486,381.138 283.098,379.353C294.718,378.175 304.999,372.914 314.922,367.517C356.306,345.009 380.458,304.23 380.458,257.5C380.458,241.778 378.729,226.48 373.006,211.75C361.351,181.753 336.401,157.704 307.75,144.066C299.935,140.346 290.893,136.831 282.257,135.769C272.113,134.522 246.672,133.832 237.75,134.665M274,152.884C274,152.985 286.967,155.958 287,155.968C293.007,157.736 298.965,160.28 304.5,163.181C321.768,172.233 337.955,187.045 347.888,203.75C354.149,214.279 358.204,225.493 360.671,237.385C368.757,276.365 352.516,318.748 319.833,341.75C306.912,350.843 291.503,360.32 275.348,362.127C263.856,363.412 252.581,363.422 241.091,362.172C236.002,361.618 230.462,359.648 225.622,358C201.098,349.651 178.185,335.065 166.25,310.833C161.652,301.498 153.938,289 152.648,277.786C150.922,262.789 151.054,252.21 152.75,237.25C153.244,232.892 155.05,228.777 156.488,224.633C163.956,203.112 177.869,184.509 196.244,171C213.678,158.182 235.652,152.008 257.056,152.018C262.711,152.02 274,147.229 274,152.884M14.453,167.401C13.004,175.107 6.715,182.462 6.333,190.5C6.267,191.899 10.239,192.697 11,192.966C17.858,195.392 24.979,197.079 32,198.953C38.98,200.816 46.077,202.341 53,204.406C56.193,205.359 59.475,208.189 62.432,205.659C66.221,202.416 67.376,192.968 68.275,188.138C69.233,182.985 66.999,182.453 62.756,180.959C51.28,176.919 40.187,172.018 28.723,168C25.526,166.88 15.734,160.566 14.453,167.401M492.25,164.706C489.426,165.249 485.736,167.756 483,168.856C476.739,171.373 470.196,173.26 464,175.889C459.955,177.605 455.673,179.801 451.5,181.095L446.5,182.647L446.727,187.924C446.849,190.759 447.816,193.495 448.477,196.254C449.523,200.624 449.702,200.476 451.016,204.51C451.254,205.24 450.996,206.307 451.639,206.726C452.857,207.522 454.394,206.442 455.429,206.115C461.67,204.142 468.155,202.18 474.5,200.64C482.711,198.648 490.427,196.76 498.5,194.543C498.564,194.525 504.288,193.32 505.594,192C508.346,189.22 506.011,183.863 504.926,180.97C503.341,176.742 501.904,172.297 500.5,168C500.308,167.414 500.03,164.446 498.599,164.292C496.491,164.064 494.333,164.305 492.25,164.706M245.607,168.582C244.017,172.725 244.966,346.773 246.582,347.393C247.452,347.727 252.627,348 258.082,348L268,348L268,167L257.107,167C248.096,167 246.109,167.273 245.607,168.582M222,172.911C221.175,173.348 218.363,174.774 215.75,176.082C213.137,177.389 211,178.695 211,178.985C211,179.275 209.65,180.109 208,180.84L205,182.168L205,332.832L208,334.16C209.65,334.891 211,335.793 211,336.165C211,336.537 212.35,337.138 214,337.5C215.65,337.862 217,338.537 217,339C217,339.463 218.35,340.138 220,340.5C221.65,340.862 223,341.573 223,342.079C223,342.586 224.125,343 225.5,343L228,343L228,172L225.75,172.059C224.512,172.091 222.825,172.475 222,172.911M285.46,173.25C285.198,173.938 285.1,212.3 285.242,258.5L285.5,342.5L288.75,342.813C292.436,343.17 297.817,339.246 300.916,337.518C302.83,336.451 305.962,336.132 306.469,334C307.453,329.861 307.659,325.554 307.745,321.3C308.17,300.116 308,278.925 308,257.737L308,181.474L305.75,180.277C301.218,177.865 296.771,174.868 292,172.921C290.825,172.441 286.398,170.792 285.46,173.25M185,200.961C185,202.071 183.725,202.778 183.124,203.711C180.465,207.835 177.407,212.301 175,216.513C172.167,221.471 169.251,229.584 168.628,235.214C167.131,248.75 166.996,266.249 168.582,279.786C169.882,290.884 178.455,305.511 184.859,314.567C185.606,315.623 186.936,312.611 186.978,311.319C187.862,284.405 188.476,237.579 187.743,209.75C187.657,206.475 187.476,203.127 186.5,200C186.323,199.433 185,200.367 185,200.961M325,257.5L325,314L327.531,314C331.804,314 336.939,301.189 337.199,300.75C350.708,277.972 350.323,248.614 341.998,224C339.696,217.195 335.944,210.931 331.97,205C331.085,203.679 329.264,201 327.433,201L325,201L325,257.5M1.504,215.993C1.167,216.539 0.621,223.289 0.292,230.993L-0.307,245L5.346,245C7.251,245 9.101,245.681 11,245.842C18.381,246.467 25.766,247.119 33.17,247.355C40.8,247.598 49.236,250.677 56.071,247.278C59.686,245.48 57.255,239.28 57.509,235.25L58.219,224L55.109,224C52.724,224 53.221,222.684 50.75,222.316C32.488,219.597 32.468,220.538 14.228,217.457C11.286,216.96 8.33,216.526 5.419,215.869C4.052,215.561 2.815,213.874 1.504,215.993M509,215.871C509,219 502.839,216.962 499.751,217.466C487.966,219.391 476.05,220.44 464.25,222.272C461.67,222.673 462.097,224 459.477,224L455.953,224L456.594,232.25C456.946,236.787 457.543,242.075 457.92,244L458.606,247.5L483.053,247.147C491.528,247.025 499.997,246.517 508.45,245.897C509.778,245.8 511.011,245 512.342,245L515.285,245L514.593,233.75C514.275,228.575 513.858,223.402 513.195,218.26C513.065,217.258 512.563,214.878 510.872,215C510.186,215.049 509,215.183 509,215.871M27.75,267.748C20.794,267.904 13.957,270 7,270L0,270L0,277.853C0,282.173 0.296,288.536 0.657,291.993L1.314,298.28L11.359,297.622C14.297,297.429 33.704,294.26 35.278,294.008C41.418,293.024 47.47,291 53.688,291L58.258,291L57.572,280.75C57.546,280.354 57.305,270.489 55.934,268.401C54.632,266.419 49.882,267.192 48.683,267.219C41.705,267.376 34.728,267.591 27.75,267.748M458.595,267.846C447.397,285.96 452.238,289.974 463,291.85C468.091,292.738 484.889,295.215 490,295.995C492.73,296.412 506.308,298.496 509,299.093C510.095,299.336 511.156,300.939 512.248,299.346C515.779,294.191 514.219,286.986 514.606,280.75L515.273,270L512.336,270C508.236,270 504.264,268.438 500.172,268.177C491.884,267.648 474.844,267.207 466.517,267.322C463.871,267.358 459.986,265.595 458.595,267.846M59,308.886C59,310.556 55.855,310.017 54.25,310.48C49.708,311.791 45.079,312.781 40.5,313.954C32.264,316.064 23.91,318.046 15.75,320.435C15.351,320.552 6.28,322.795 6.333,324.5C6.399,326.62 7.802,328.48 8.448,330.5C9.372,333.389 10.362,336.257 11.293,339.144C12.227,342.039 13.163,347.83 15.926,349.84C19.644,352.543 23.689,348.59 27.084,347.371C35.132,344.481 43.014,340.719 51.055,338C55.729,336.42 63.593,335.751 67.34,332.446C69.028,330.957 68.511,328.276 68.156,326.496C67.16,321.5 65.712,316.587 64,311.79C63.838,311.336 59,305.513 59,308.886M451.677,308.75C450.972,309.948 450.963,311.438 450.536,312.76C448.943,317.69 446.958,321.703 446.727,327.076L446.5,332.353L451.5,333.905C454.035,334.691 456.327,336.132 458.833,337.006C465.798,339.435 472.885,341.775 479.75,344.466C483.514,345.941 486.604,347.568 490.5,349C492.409,349.702 495.343,351.462 497.711,350.988C499.909,350.549 499.89,348.696 500.5,347C502.043,342.708 503.266,338.226 504.967,334C506.513,330.158 507.333,326.745 506.155,322.313C505.456,319.682 498.904,320.388 498.571,320.331C487.875,318.502 477.042,314.551 466.5,311.951C461.804,310.793 460.37,310.496 456,308.886C454.952,308.5 452.801,306.84 451.677,308.75M74,348.921L68,352.079C63.516,354.78 58.732,356.955 53.99,359.171C47.297,362.299 40.577,365.537 34,368.895C33.006,369.403 26.368,373.166 26,374.576C25.591,376.143 26.996,377.673 27.738,379.113C29.859,383.235 33.136,386.971 35,391.249C35.589,392.602 35.346,394.335 36.263,395.491C40.062,400.281 48.241,394.883 51.5,393C60.183,387.985 68.447,382.244 76.75,376.757C80.715,374.137 87.633,372.644 87.949,366.851C88.1,364.067 85.797,362.66 84.55,360.342C82.743,356.983 80.917,353.246 78.565,350.203C77.885,349.324 77,348.579 76.029,348.038C75.376,347.675 74,347.867 74,348.921M436,348.94C436,354.52 423.25,363.761 426.407,369.685C426.948,370.701 431.98,373.74 432.75,374.243C438.479,377.99 438.663,377.516 444.464,381C450.709,384.75 456.384,389.724 462.431,393.693C464.111,394.796 466.042,395.474 467.75,396.534C468.908,397.253 470.028,398.058 471,399.013C471.363,399.369 471.004,400.794 472.197,400.1C479.09,396.089 480.89,387.3 484.829,381.01C485.531,379.89 486.822,379.179 487.398,377.99C488.398,375.923 487.871,373.658 486.131,372.187C482.171,368.838 475.552,367.205 471,364.87C465.256,361.923 459.617,358.542 453.947,355.436C448.907,352.676 443.476,350.108 438.028,348.196C437.418,347.981 436,347.788 436,348.94M97,384.933C97,385.856 95.499,386.008 94.75,386.547C93.101,387.735 91.423,388.883 89.806,390.115C79.7,397.813 69.377,406.135 60.148,414.825L54.796,419.865L56.898,422.121C62.007,427.605 61.224,428.196 66.62,433.504C69.311,436.151 71.623,442.447 75.11,441C78.063,439.774 113.595,403.515 115,400.766C116.319,398.185 111.585,396.076 109.75,393.832C107.593,391.194 105.499,388.477 103.029,386.13C102.035,385.185 100.748,384.564 99.471,384.064C99.04,383.895 97,383.727 97,384.933M408.75,388.897C405.905,391.798 403.855,395.452 400.824,398.157L397.648,400.993L417.574,420.972C424.488,427.905 430.56,436.16 439.085,440.976C441.264,442.207 443.303,438.24 445.148,436.55C445.973,435.793 452.936,427.506 454,426.233C455.694,424.206 457.344,422.746 457.944,420.091C458.474,417.742 457.811,417.595 456.25,416.273C452.552,413.139 448.827,409.976 445,407C437.198,400.934 429.649,394.508 421.703,388.631C420.791,387.956 415.977,383.431 414.366,384.333C412.262,385.513 410.439,387.174 408.75,388.897M126.958,415.25C126.936,415.874 121.441,421.66 121,422.192C114.196,430.408 108.081,439.018 100.999,447C98.593,449.712 92.379,454.652 94.657,459.466C95.428,461.096 102.348,465.532 102.754,465.842C106.081,468.383 110.87,472.857 115.494,473.722C119.716,474.512 122.968,467.609 125,464.531C130.228,456.612 135.107,448.302 140.59,440.604C142.798,437.504 148.314,432.432 147.736,428.617C147.567,427.502 147.239,426.366 146.624,425.42C146.109,424.627 145.223,424.144 144.464,423.58C140.82,420.87 135.566,416.902 132.292,414.985C132.149,414.902 127.041,412.778 126.958,415.25M379.898,415.963C379.346,416.493 368.146,423.018 367.427,426.668C366.563,431.059 369.549,433.295 371.782,436.5C373.476,438.93 375.094,441.458 376.515,444.068C380.963,452.237 386.568,459.767 391.75,467.423C393.496,470.002 393.165,472.463 396.604,473.522C400.755,474.8 404.013,471.577 407.045,469.258C411.617,465.761 417.781,463.403 420.35,458.253C422.485,453.973 415.313,450.081 412.25,446.407C404.695,437.344 397.31,428.062 389.977,418.814C387.26,415.387 384.86,411.197 379.898,415.963M162.627,439.123C159.339,443.815 154.058,455.668 152.521,458.5C149.993,463.16 147.138,467.663 145,472.515C143.849,475.128 138.772,483.372 139.416,487.092C139.782,489.209 142.037,489.628 143.571,490.34C149.378,493.034 154.96,495.905 160.934,498.286C162.768,499.017 166.266,500.365 167.544,497.788C170.057,492.722 170.927,486.335 173.082,481C175.909,474.003 178.528,467.216 181.092,460.088C182.22,456.952 184.253,452.658 184.65,449.309L185.247,444.269L181.623,443.589C178.5,443.003 173.775,440.335 170.95,438.889C168.475,437.622 164.865,435.928 162.627,439.123M343.016,439.057C340.488,440.467 336.678,442.059 333.942,443.362C333.353,443.643 328.935,444.877 328.367,446.821C327.903,448.405 331.301,455.273 332.008,457C335.051,464.436 337.272,472.114 340.434,479.5C342.476,484.27 344.134,489.176 346.035,494C346.208,494.438 347.777,500.004 349.145,499.794C353.084,499.19 357.552,496.903 361,495.111C365.092,492.985 369.964,491.752 373.75,489.052C374.379,488.603 376.936,486.292 376.547,484.868C376.399,484.328 375.478,484.421 375.108,484C374.465,483.267 374.097,482.333 373.589,481.5C371.723,478.439 369.547,475.104 368,471.938C363.217,462.146 358.602,452.272 353.967,442.409C353.532,441.483 353.562,440.324 352.929,439.52C350.566,436.519 345.792,437.509 343.016,439.057M203.25,452.971C201.636,455.556 201.699,458.864 200.897,461.804C198.242,471.537 195.323,481.159 192.944,490.96C192.128,494.321 191.019,497.615 190.392,501.016C190.095,502.624 190.064,504.287 190.187,505.918C190.254,506.804 190.142,508.113 190.955,508.472C193.751,509.708 196.969,509.581 199.955,510.235C202.652,510.825 205.299,511.632 208,512.204C210.199,512.67 214.702,513.586 217.106,512.653C218.491,512.116 218.617,510.029 218.888,508.569C219.754,503.906 220.357,499.198 221.072,494.51C221.759,490.009 222.388,485.498 223.095,481C224.128,474.422 227,466.625 227,460L227,456L222.5,456C217.859,456 211.307,453.646 207,452.095C205.62,451.598 204.958,450.237 203.25,452.971M307.778,452.157C307.064,454.271 303.422,453.126 301.25,453.633C297.847,454.428 294.532,456 291.038,456L287.075,456L287.69,462.75C288.524,471.907 291.859,480.909 293,489.964C293.544,494.28 293.65,498.642 294.141,502.964L295.282,513L300.141,513C304.022,513 303.625,511.72 307.481,511C310.844,510.372 314.308,510.35 317.655,509.639C319.97,509.147 323.173,509.433 324.397,507.407C325.746,505.174 324.154,502.182 323.711,499.611C322.413,492.085 319.629,484.58 317.52,477.25C315.491,470.199 314.121,463.006 311.91,456C311.671,455.244 309.016,448.488 307.778,452.157M245.49,459.016C245.145,459.575 244.598,467.467 244.276,476.553C243.954,485.639 243.31,493.308 242.845,493.596C242.38,493.883 242,498.816 242,504.559L242,515L273,515L273,512.559C273,511.216 272.616,509.881 272.147,509.591C271.677,509.3 270.965,497.915 270.564,484.29C270.062,467.205 269.473,459.286 268.668,458.774C266.872,457.631 246.212,457.848 245.49,459.016"/>
    </g>
</svg>
