<svg id="svg" xmlns="http://www.w3.org/2000/svg" xmlns:xlink="http://www.w3.org/1999/xlink" width="400" height="400" viewBox="0, 0, 400,400" version="1.1"><g id="svgg"><path id="path0" d="M76.322 57.011 C 75.310 58.023,74.483 77.885,74.483 101.149 L 74.483 143.448 235.862 143.448 L 397.241 143.448 397.241 99.310 L 397.241 55.172 237.701 55.172 C 149.954 55.172,77.333 56.000,76.322 57.011 M0.000 198.621 L 0.000 242.759 168.276 242.759 L 336.552 242.759 336.552 198.621 L 336.552 154.483 168.276 154.483 L 0.000 154.483 0.000 198.621 M107.586 297.931 L 107.586 342.069 253.793 342.069 L 400.000 342.069 400.000 297.931 L 400.000 253.793 253.793 253.793 L 107.586 253.793 107.586 297.931 " stroke="none" fill="#000000" fill-rule="evenodd"></path></g></svg>