<svg xmlns="http://www.w3.org/2000/svg" width="400" height="400" viewBox="0, 0, 400,400" version="1.1"><g><path d="M181.513 185.293 L 181.513 194.116 179.517 192.700 C 167.755 184.357,155.144 197.276,159.410 213.298 C 161.966 222.898,172.515 226.942,180.032 221.204 L 181.933 219.753 181.933 221.431 L 181.933 223.109 185.924 223.109 L 189.916 223.109 189.916 199.790 L 189.916 176.471 185.714 176.471 L 181.513 176.471 181.513 185.293 M320.168 199.790 L 320.168 223.109 324.370 223.109 L 328.571 223.109 328.571 199.790 L 328.571 176.471 324.370 176.471 L 320.168 176.471 320.168 199.790 M11.625 179.272 C 11.471 179.426,11.345 182.451,11.345 185.994 L 11.345 192.437 35.924 192.437 L 60.504 192.437 60.504 185.714 L 60.504 178.992 36.204 178.992 C 22.840 178.992,11.779 179.118,11.625 179.272 M66.807 201.471 L 66.807 223.109 71.218 223.109 L 75.630 223.109 75.630 214.979 L 75.630 206.849 80.147 206.598 C 90.793 206.006,95.798 201.611,95.798 192.856 C 95.798 183.257,90.223 179.854,74.475 179.839 L 66.807 179.832 66.807 201.471 M286.134 201.429 L 286.134 223.109 290.546 223.109 L 294.958 223.109 294.958 214.916 L 294.958 206.723 297.584 206.720 C 308.281 206.707,314.228 202.518,314.979 194.469 C 315.943 184.147,310.608 180.253,295.063 179.933 L 286.134 179.748 286.134 201.429 M269.223 183.350 L 265.126 184.590 265.126 187.883 L 265.126 191.176 261.956 191.176 L 258.787 191.176 258.910 194.223 L 259.034 197.269 262.080 197.392 L 265.126 197.516 265.126 206.345 C 265.126 218.151,265.950 220.736,270.348 222.734 C 272.124 223.541,277.434 223.820,280.256 223.256 L 281.625 222.982 281.358 219.824 C 281.039 216.049,281.292 216.363,278.991 216.880 C 274.290 217.935,273.529 216.348,273.529 205.492 L 273.529 197.512 277.206 197.390 L 280.882 197.269 281.006 194.223 L 281.129 191.176 277.343 191.176 L 273.557 191.176 273.438 186.643 L 273.319 182.110 269.223 183.350 M82.975 187.586 C 85.329 188.590,86.288 190.078,86.475 193.015 C 86.761 197.500,84.165 199.572,78.256 199.577 L 75.630 199.580 75.630 193.013 L 75.630 186.446 78.669 186.745 C 80.340 186.910,82.278 187.288,82.975 187.586 M302.494 187.737 C 309.066 190.963,306.159 199.039,298.261 199.497 L 294.958 199.688 294.958 193.067 L 294.958 186.446 298.004 186.737 C 299.680 186.897,301.700 187.347,302.494 187.737 M114.076 191.034 C 112.249 191.997,110.968 193.236,109.605 195.355 L 108.403 197.223 108.403 194.200 L 108.403 191.176 104.617 191.176 L 100.830 191.176 100.940 207.038 L 101.050 222.899 105.252 222.899 L 109.454 222.899 109.664 213.445 C 109.960 200.131,112.142 196.464,118.458 198.666 L 119.748 199.116 119.748 194.726 L 119.748 190.336 117.542 190.353 C 116.329 190.362,114.769 190.669,114.076 191.034 M133.502 190.767 C 121.513 193.791,117.184 209.609,125.818 218.840 C 133.341 226.883,148.647 224.456,153.216 214.496 C 159.269 201.298,147.572 187.218,133.502 190.767 M243.403 191.119 C 229.805 195.817,229.933 218.977,243.580 222.944 C 245.972 223.639,255.166 223.630,256.786 222.931 C 257.365 222.680,257.520 216.408,256.965 215.670 C 256.929 215.622,256.057 215.885,255.026 216.253 C 247.676 218.878,242.368 215.085,242.272 207.139 C 242.177 199.277,247.796 195.197,255.304 197.675 C 256.134 197.949,257.358 192.092,256.624 191.358 C 255.497 190.231,246.446 190.067,243.403 191.119 M344.958 190.628 C 344.380 190.725,342.631 191.198,341.071 191.679 L 338.235 192.554 338.235 195.997 C 338.235 200.011,338.372 200.259,339.957 199.130 C 346.213 194.676,354.398 196.126,355.327 201.854 L 355.557 203.265 349.471 203.423 C 338.389 203.709,333.473 208.158,335.036 216.487 C 336.410 223.813,349.197 226.072,354.582 219.940 L 355.839 218.507 355.966 220.703 L 356.092 222.899 359.778 223.021 L 363.464 223.142 363.230 212.516 C 362.945 199.493,362.859 198.647,361.546 195.957 C 359.349 191.458,352.703 189.323,344.958 190.628 M384.924 190.820 C 383.163 191.327,381.706 192.214,379.937 193.856 L 378.571 195.123 378.571 193.150 L 378.571 191.176 374.575 191.176 L 370.578 191.176 370.688 207.038 L 370.798 222.899 374.895 223.019 L 378.992 223.140 379.000 215.456 C 379.016 201.342,380.659 197.059,386.059 197.059 C 390.942 197.059,391.354 198.196,391.511 212.080 L 391.636 223.109 395.818 223.109 L 400.000 223.109 400.000 211.421 C 400.000 197.930,399.755 196.461,397.006 193.478 C 394.396 190.647,389.370 189.542,384.924 190.820 M197.971 203.256 C 198.124 216.556,198.337 217.716,201.178 220.746 C 204.834 224.645,212.854 224.534,217.414 220.521 L 219.328 218.836 219.328 220.973 L 219.328 223.109 223.319 223.109 L 227.311 223.109 227.311 207.143 L 227.311 191.176 223.109 191.176 L 218.908 191.176 218.908 199.769 C 218.908 213.228,217.358 216.968,211.784 216.968 C 207.189 216.968,206.598 215.305,206.385 201.786 L 206.219 191.176 202.025 191.176 L 197.832 191.176 197.971 203.256 M0.000 200.840 L 0.000 207.563 25.630 207.563 L 51.261 207.563 51.261 200.840 L 51.261 194.118 25.630 194.118 L 0.000 194.118 0.000 200.840 M142.404 198.296 C 147.081 201.626,146.911 212.578,142.132 215.796 C 136.023 219.911,129.775 214.529,130.346 205.645 C 130.806 198.477,137.192 194.585,142.404 198.296 M177.556 197.921 C 183.416 201.542,182.306 215.122,176.012 216.817 C 170.876 218.200,167.857 214.541,167.857 206.933 C 167.857 198.726,172.252 194.643,177.556 197.921 M355.462 209.167 C 355.462 213.674,352.030 217.324,347.791 217.324 C 341.788 217.324,341.123 210.460,346.976 208.904 C 349.937 208.116,355.462 208.288,355.462 209.167 M16.387 215.966 L 16.387 222.689 38.655 222.689 L 60.924 222.689 60.924 215.966 L 60.924 209.244 38.655 209.244 L 16.387 209.244 16.387 215.966 " stroke="none" fill-rule="evenodd"></path></g></svg>