<svg xmlns="http://www.w3.org/2000/svg" width="400" height="400" viewBox="0, 0, 400,400" version="1.1"><g><path d="M12.917 75.810 C 15.483 78.363,38.133 100.875,63.250 125.836 C 88.367 150.796,113.735 176.025,119.625 181.900 L 130.333 192.582 130.333 131.875 L 130.333 71.167 69.292 71.167 L 8.251 71.167 12.917 75.810 M137.000 131.357 L 137.000 191.547 142.792 185.819 C 153.490 175.239,258.000 71.287,258.000 71.227 C 258.000 71.194,230.775 71.167,197.500 71.167 L 137.000 71.167 137.000 131.357 M269.833 136.568 L 269.833 197.000 286.510 197.000 C 297.366 197.000,303.430 197.060,303.885 197.171 C 304.357 197.287,318.711 197.328,348.107 197.296 L 391.630 197.250 347.773 153.644 C 323.652 129.660,296.248 102.409,286.875 93.086 L 269.833 76.135 269.833 136.568 M202.082 136.750 L 141.248 197.250 202.068 197.292 C 235.519 197.315,262.914 197.309,262.944 197.278 C 262.975 197.247,262.982 170.003,262.959 136.736 L 262.917 76.250 202.082 136.750 M142.918 205.809 C 149.132 211.946,238.615 300.912,249.625 311.900 L 263.000 325.249 263.000 264.625 L 263.000 204.000 202.043 204.000 L 141.085 204.000 142.918 205.809 M269.833 264.625 L 269.833 325.249 282.125 312.984 C 291.715 303.414,375.721 219.893,388.999 206.726 L 391.749 204.000 330.791 204.000 L 269.833 204.000 269.833 264.625 M69.323 269.489 L 8.563 329.917 69.309 329.959 C 102.719 329.982,130.080 329.975,130.111 329.944 C 130.142 329.914,130.148 302.702,130.125 269.475 L 130.083 209.061 69.323 269.489 M137.000 269.966 L 137.000 330.167 197.500 330.167 C 230.775 330.167,258.000 330.135,258.000 330.097 C 258.000 330.032,144.396 217.029,139.283 212.008 L 137.000 209.766 137.000 269.966 " stroke="none" fill-rule="evenodd"></path></g></svg>