<svg version="1.1" xmlns="http://www.w3.org/2000/svg" width="400" height="400" viewBox="0, 0, 400,400">
<g>
<path d="M180.667 0.785 C 72.861 16.250,0.981 95.562,0.723 199.333 C 0.280 377.519,215.390 467.180,341.285 341.285 C 453.991 228.578,395.350 35.496,238.803 3.856 C 226.481 1.365,190.040 -0.559,180.667 0.785 M224.915 35.401 C 360.264 55.498,414.378 223.616,316.196 318.985 C 218.411 413.968,55.122 358.596,35.217 223.704 C 18.994 113.758,114.454 18.999,224.915 35.401 M191.602 87.667 C 154.180 134.577,141.911 196.686,159.249 251.436 L 162.237 260.871 158.446 267.436 C 151.580 279.327,141.597 309.566,141.362 319.182 C 141.346 319.833,144.277 317.611,147.875 314.246 C 155.350 307.254,166.251 300.067,173.910 297.080 L 179.154 295.035 185.070 303.184 C 188.324 307.666,193.074 313.519,195.625 316.191 L 200.264 321.049 204.600 316.191 C 206.985 313.519,211.621 307.660,214.901 303.171 L 220.865 295.009 226.889 297.296 C 234.272 300.098,243.903 306.601,252.386 314.510 L 258.772 320.464 257.870 314.565 C 256.024 302.499,250.482 285.622,244.304 273.250 L 237.937 260.501 240.991 250.750 C 255.838 203.343,247.249 143.613,219.718 102.804 C 213.297 93.286,201.354 78.667,200.000 78.667 C 199.330 78.667,195.551 82.717,191.602 87.667 M211.684 159.563 C 229.664 172.987,221.924 199.333,200.000 199.333 C 176.317 199.333,170.077 166.644,192.001 157.425 C 196.884 155.372,207.634 156.539,211.684 159.563 " stroke="none" fill-rule="evenodd"></path>
</g>
</svg>