<svg width="100%" height="100%" viewBox="0 0 400 400" version="1.1" xmlns="http://www.w3.org/2000/svg" style="fill-rule:evenodd;clip-rule:evenodd;stroke-linejoin:round;stroke-miterlimit:2;">
    <g>
        <path d="M173.107,6.4C172.264,7.749 169.967,6.913 168.404,7.205C161.847,8.432 153.23,8.755 147.021,11.203C131.649,17.263 114.595,22.329 100.163,31.4C72.076,49.054 48.767,71.83 31.282,100C25.678,109.029 20.916,120.284 17.2,130.307C15.384,135.205 14.708,141.408 12.429,146C7.313,156.309 5.6,173.821 5.6,185.385L5.6,197.164L4.6,198.164C2.77,199.992 4.687,200.108 5.014,202.4C5.569,206.288 5.343,210.248 5.6,214.167C6.764,231.89 10.091,248.236 16.029,264.8C20.121,276.216 24.104,289.461 30.999,299.684C40.247,313.397 50.09,327.292 61.551,339.071C65.958,343.601 71.603,349.302 76.892,352.7C77.943,353.375 79.407,353.258 80.4,354.015C95.895,365.832 111.481,375.788 130,382.371C147.629,388.638 165.476,394.4 184.557,394.4L195.508,394.4L196.818,396.4L206.181,396.4C211.643,396.4 211.456,395.765 216.8,394.771C227.175,392.841 239.087,394.194 249.284,390.832C268.294,384.563 290.257,376.969 307.081,365.213C330.594,348.783 351.134,327.634 367.118,303.6C374.002,293.249 377.952,281.386 382.586,270C387.846,257.077 392.309,242.985 393.6,228.893C394.346,220.753 393.699,212.503 394.771,204.4C394.96,202.968 396.456,201.874 396.512,200.43C396.573,198.844 395.31,197.456 395.1,195.883C394.602,192.153 394.647,188.371 394.4,184.616C392.501,155.788 384.14,124.861 368.621,100C360.091,86.335 349.552,73.906 339.084,61.6C337.261,59.457 334.431,58.064 332.2,56.4C329.66,54.506 327.126,50.944 324.8,48.722C322.892,46.898 320.09,45.994 318,44.34C294.661,25.874 267.211,14.322 238,8.59C233.548,7.717 227.986,5.919 223.393,5.745C220.824,5.647 173.826,5.249 173.107,6.4M197.6,83.92C197.6,92.609 195.846,100.244 206.008,97.544C206.624,97.38 207.416,96.995 207.513,96.365C208.199,91.897 207.73,76.778 208.732,72.438C209.454,69.311 222.116,71.891 222.907,72C235.783,73.778 248.132,77.866 260.235,82.6C269.575,86.253 280.541,92.072 288.4,98.015C290.511,99.612 292.351,101.542 294.415,103.2C295.722,104.25 298.8,105.735 298.8,107.6C298.8,107.621 295.318,111.524 294.6,112.563C291.398,117.196 282.96,123.553 281.2,128.84C280.64,130.521 286.908,136.664 288.596,136.777C292.62,137.046 297.247,129.753 299.7,127.3L303.3,123.7C304.546,122.454 308.446,119.741 309.046,117.857L309.318,117L309.705,117.865C311.606,122.134 317.058,125.974 319.98,129.6C322.253,132.422 324.623,136.986 326.615,140.15C335.049,153.547 339.55,169.491 343.2,184.67C344.389,189.614 347.262,198.313 345.983,203.322C342.776,215.881 319.851,200.33 320.4,213.4C320.458,214.784 320.227,216.258 320.749,217.542C321.237,218.742 323.454,218.316 324.163,219.4L324.818,220.4L332.363,220.4C344.399,220.4 346.8,225.853 346.8,237.4C346.8,240.908 345.2,244.295 345.2,247.803L345.2,249.2L58.4,249.2L58.4,246.003C58.4,241.345 56.8,236.78 56.8,232.122L56.8,222.436L58.836,220.4L70.385,220.4C75.322,220.4 85.704,222.503 85.36,214.393C85.293,212.807 84.918,211.048 83.846,209.878L82.492,208.4L58.4,208.4L58.4,199.295C58.4,190.12 61.46,181.935 64,173.323C67.595,161.134 72.162,150.053 79.401,139.684C81.35,136.892 81.496,133.67 84.136,131.2C87.852,127.723 89.965,123.246 93.874,119.799C94.723,119.05 95.334,117.146 96.4,117.527C98.537,118.29 99.589,120.758 101.156,122.4C104.646,126.057 108.105,129.686 111.764,133.2C113.514,134.881 117.886,136.187 120.169,134.547C122.617,132.788 122.388,127.037 121.4,124.875C119.704,121.164 113.08,116.121 109.668,114C108.304,113.152 104.83,111.526 104.83,109.4C104.83,107.698 109.277,104.283 109.873,103.8C113.922,100.519 118.046,97.341 122.4,94.586C142.307,81.987 167.277,71.2 191.289,71.2L197.6,71.2L197.6,83.92M190.8,118.4C189.977,119.94 186.158,119.008 185.286,119.205C169.393,122.799 155.793,126.292 142.8,135.978C137.643,139.822 127.093,150.218 123.408,155.516C119.307,161.412 115.729,167.679 112.47,174.079C108.876,181.134 108.121,186.891 106.8,194.532C105.79,200.373 104.452,205.197 106.8,210.723C107.219,211.71 109.025,214.99 110.523,215C172.484,215.404 234.451,215.16 296.408,214.4C296.984,214.393 296.669,213.277 296.794,212.714C297.333,210.277 298.455,207.895 298.4,205.4C298.238,198.034 295.141,186.662 292.157,180C279.498,151.738 257.372,126.113 225.414,120.443C217.872,119.105 210.21,118.566 202.611,117.6C200.565,117.34 192.679,114.891 190.8,118.4"/>
    </g>
</svg>
