<svg id="svg" version="1.1" width="515" height="515" xmlns="http://www.w3.org/2000/svg" xmlns:xlink="http://www.w3.org/1999/xlink" style="display: block;"><g id="svgg"><path id="path0" d="M133.000 134.000 C 133.000 176.218,133.305 192.000,134.122 192.000 C 134.929 192.000,134.916 192.397,134.074 193.411 C 133.253 194.401,133.223 195.020,133.976 195.485 C 134.567 195.850,134.926 195.553,134.775 194.824 C 134.551 193.746,142.067 193.452,175.278 193.239 L 216.056 192.978 216.965 195.239 C 217.519 196.618,217.898 196.896,217.937 195.950 C 217.971 195.097,217.601 193.972,217.114 193.450 C 216.626 192.928,216.594 191.600,217.043 190.500 C 217.492 189.400,217.891 189.095,217.930 189.821 C 218.016 191.439,220.466 194.000,221.929 194.000 C 222.518 194.000,223.000 194.637,223.000 195.417 C 223.000 196.196,223.530 197.010,224.177 197.226 C 224.824 197.441,225.022 198.155,224.616 198.812 C 224.055 199.720,223.355 199.731,221.689 198.857 C 219.518 197.719,219.516 197.727,221.397 199.845 C 223.026 201.680,223.449 201.774,224.397 200.509 C 225.430 199.130,228.295 199.792,228.085 201.362 C 228.038 201.713,228.287 201.962,228.638 201.915 C 230.195 201.706,230.873 204.567,229.509 205.590 C 228.288 206.505,228.531 207.134,231.028 209.527 C 232.663 211.093,234.000 211.910,234.000 211.342 C 234.000 210.774,233.089 209.486,231.976 208.479 C 230.471 207.116,230.247 206.372,231.101 205.574 C 231.925 204.804,232.380 204.854,232.708 205.750 C 232.960 206.437,233.804 207.000,234.583 207.000 C 235.363 207.000,236.000 207.482,236.000 208.071 C 236.000 209.456,238.544 212.000,239.929 212.000 C 240.518 212.000,241.000 212.511,241.000 213.135 C 241.000 213.760,242.097 215.288,243.438 216.530 C 244.779 217.773,245.604 219.062,245.272 219.395 C 244.939 219.728,245.354 220.000,246.193 220.000 C 247.033 220.000,248.565 221.125,249.597 222.500 C 250.630 223.875,252.043 225.000,252.737 225.000 C 253.432 225.000,254.000 225.480,254.000 226.067 C 254.000 226.654,255.575 228.620,257.500 230.435 L 261.000 233.736 261.000 262.868 C 261.000 281.623,260.644 292.000,260.000 292.000 C 259.450 292.000,259.000 292.675,259.000 293.500 C 259.000 294.325,258.518 295.000,257.929 295.000 C 256.544 295.000,254.000 297.544,254.000 298.929 C 254.000 299.518,253.325 300.000,252.500 300.000 C 251.675 300.000,251.000 300.599,251.000 301.331 C 251.000 302.063,249.875 303.264,248.500 304.000 C 247.125 304.736,246.000 305.937,246.000 306.669 C 246.000 307.401,245.518 308.000,244.929 308.000 C 243.544 308.000,241.000 310.544,241.000 311.929 C 241.000 312.518,240.518 313.000,239.929 313.000 C 238.544 313.000,236.000 315.544,236.000 316.929 C 236.000 317.518,235.325 318.000,234.500 318.000 C 233.675 318.000,233.000 318.675,233.000 319.500 C 233.000 320.325,232.518 321.000,231.929 321.000 C 230.544 321.000,228.000 323.544,228.000 324.929 C 228.000 325.518,227.518 326.000,226.929 326.000 C 225.544 326.000,223.000 328.544,223.000 329.929 C 223.000 330.518,222.518 331.000,221.929 331.000 C 220.489 331.000,218.000 333.566,218.000 335.051 C 218.000 335.939,217.605 335.917,216.458 334.965 C 215.289 333.995,214.634 333.966,213.758 334.842 C 212.920 335.680,201.613 336.000,172.800 336.000 L 133.000 336.000 133.000 393.893 C 133.000 445.761,133.165 451.849,134.582 452.393 C 136.648 453.186,242.352 453.186,244.418 452.393 C 245.288 452.059,246.000 451.159,246.000 450.393 C 246.000 449.627,246.450 449.000,247.000 449.000 C 247.651 449.000,248.000 434.167,248.000 406.500 C 248.000 377.099,248.328 364.000,249.065 364.000 C 250.453 364.000,261.000 353.453,261.000 352.065 C 261.000 351.479,261.442 351.000,261.982 351.000 C 263.330 351.000,279.000 335.419,279.000 334.078 C 279.000 333.485,279.497 333.000,280.104 333.000 C 280.711 333.000,283.850 330.300,287.079 327.000 L 292.950 321.000 333.925 321.000 C 371.854 321.000,374.984 321.130,376.026 322.750 C 377.097 324.417,377.125 324.417,376.607 322.750 C 376.308 321.788,376.485 321.000,377.000 321.000 C 377.515 321.000,377.648 320.247,377.295 319.326 C 376.820 318.089,377.063 317.810,378.228 318.257 C 380.846 319.262,380.973 316.711,380.973 263.000 C 380.973 210.522,380.810 207.000,378.383 207.000 C 377.623 207.000,377.000 206.550,377.000 206.000 C 377.000 205.350,362.395 204.988,335.250 204.967 L 293.500 204.934 289.527 200.967 C 287.342 198.785,284.754 197.000,283.777 197.000 C 282.800 197.000,282.000 196.325,282.000 195.500 C 282.000 194.675,281.518 194.000,280.929 194.000 C 279.544 194.000,277.000 191.456,277.000 190.071 C 277.000 189.482,276.518 189.000,275.929 189.000 C 274.544 189.000,272.000 186.456,272.000 185.071 C 272.000 184.482,271.277 184.000,270.393 184.000 C 269.434 184.000,269.001 183.441,269.318 182.613 C 269.701 181.615,269.266 181.379,267.767 181.771 C 266.047 182.221,265.779 181.953,266.229 180.233 C 266.621 178.734,266.385 178.299,265.387 178.682 C 264.559 178.999,264.000 178.566,264.000 177.607 C 264.000 176.723,263.518 176.000,262.929 176.000 C 261.544 176.000,259.000 173.456,259.000 172.071 C 259.000 171.482,258.518 171.000,257.929 171.000 C 256.544 171.000,254.000 168.456,254.000 167.071 C 254.000 166.482,253.277 166.000,252.393 166.000 C 251.434 166.000,251.001 165.441,251.318 164.613 C 251.692 163.640,251.276 163.377,249.925 163.730 C 248.046 164.221,248.000 163.169,248.000 120.117 L 248.000 76.000 190.500 76.000 L 133.000 76.000 133.000 134.000 M204.889 132.500 L 204.889 147.500 189.444 147.500 L 174.000 147.500 174.000 132.500 L 174.000 117.500 189.444 117.500 L 204.889 117.500 204.889 132.500 M184.287 143.740 C 187.469 143.939,192.419 143.937,195.287 143.736 C 198.154 143.535,195.550 143.372,189.500 143.374 C 183.450 143.376,181.104 143.541,184.287 143.740 M381.863 206.663 C 381.663 207.123,381.727 232.250,382.004 262.500 L 382.508 317.500 383.004 262.500 C 383.443 213.817,383.232 203.504,381.863 206.663 M241.000 219.500 C 244.307 222.912,245.000 223.445,245.000 222.577 C 245.000 221.908,238.915 216.000,238.227 216.000 C 237.886 216.000,239.134 217.575,241.000 219.500 M250.976 229.475 C 253.950 232.487,256.594 234.739,256.853 234.480 C 257.373 233.960,247.273 224.000,246.225 224.000 C 245.864 224.000,248.002 226.464,250.976 229.475 M204.945 392.250 L 205.068 407.500 189.534 407.500 L 174.000 407.500 174.000 392.250 L 174.000 377.000 189.411 377.000 L 204.823 377.000 204.945 392.250 M184.287 403.740 C 187.469 403.939,192.419 403.937,195.287 403.736 C 198.154 403.535,195.550 403.372,189.500 403.374 C 183.450 403.376,181.104 403.541,184.287 403.740 M162.321 456.749 C 177.622 456.905,202.372 456.905,217.321 456.749 C 232.269 456.594,219.750 456.467,189.500 456.467 C 159.250 456.467,147.019 456.594,162.321 456.749 " stroke="none" fill="#000000" fill-rule="evenodd"></path></g></svg>