<svg version="1.1" width="400" height="400" xmlns="http://www.w3.org/2000/svg"><g><path d="M19.000 196.000 L 19.000 392.000 200.000 392.000 L 381.000 392.000 381.000 196.000 L 381.000 0.000 200.000 0.000 L 19.000 0.000 19.000 196.000 M226.000 100.500 C 226.000 101.652,227.278 102.000,231.500 102.000 C 235.722 102.000,237.000 102.348,237.000 103.500 C 237.000 104.500,238.000 105.000,240.000 105.000 C 242.000 105.000,243.000 105.500,243.000 106.500 C 243.000 107.433,243.944 108.000,245.500 108.000 C 247.056 108.000,248.000 108.567,248.000 109.500 C 248.000 110.325,248.482 111.000,249.071 111.000 C 250.456 111.000,253.000 113.544,253.000 114.929 C 253.000 115.518,253.675 116.000,254.500 116.000 C 255.433 116.000,256.000 116.944,256.000 118.500 C 256.000 120.056,256.567 121.000,257.500 121.000 C 258.611 121.000,259.000 122.167,259.000 125.500 C 259.000 128.833,259.389 130.000,260.500 130.000 C 261.776 130.000,262.000 132.611,262.000 147.500 C 262.000 162.389,261.776 165.000,260.500 165.000 C 259.500 165.000,259.000 166.000,259.000 168.000 C 259.000 170.000,258.500 171.000,257.500 171.000 C 256.567 171.000,256.000 171.944,256.000 173.500 C 256.000 175.056,255.433 176.000,254.500 176.000 C 253.675 176.000,253.000 176.675,253.000 177.500 C 253.000 178.325,252.550 179.000,252.000 179.000 C 251.450 179.000,251.000 179.675,251.000 180.500 C 251.000 181.325,250.325 182.000,249.500 182.000 C 248.675 182.000,248.000 182.675,248.000 183.500 C 248.000 184.325,247.325 185.000,246.500 185.000 C 245.675 185.000,245.000 185.450,245.000 186.000 C 245.000 186.550,243.875 187.000,242.500 187.000 C 240.944 187.000,240.000 187.567,240.000 188.500 C 240.000 189.500,239.000 190.000,237.000 190.000 C 235.000 190.000,234.000 190.500,234.000 191.500 C 234.000 192.805,229.389 193.000,198.500 193.000 L 163.000 193.000 163.000 227.500 L 163.000 262.000 153.500 262.000 L 144.000 262.000 144.000 180.500 L 144.000 99.000 185.000 99.000 C 220.778 99.000,226.000 99.191,226.000 100.500 M163.000 146.500 L 163.000 177.000 195.000 177.000 C 222.778 177.000,227.000 176.802,227.000 175.500 C 227.000 174.567,227.944 174.000,229.500 174.000 C 231.056 174.000,232.000 173.433,232.000 172.500 C 232.000 171.675,232.482 171.000,233.071 171.000 C 234.456 171.000,237.000 168.456,237.000 167.071 C 237.000 166.482,237.675 166.000,238.500 166.000 C 239.500 166.000,240.000 165.000,240.000 163.000 C 240.000 161.000,240.500 160.000,241.500 160.000 C 242.762 160.000,243.000 157.778,243.000 146.000 C 243.000 134.222,242.762 132.000,241.500 132.000 C 240.567 132.000,240.000 131.056,240.000 129.500 C 240.000 127.944,239.433 127.000,238.500 127.000 C 237.675 127.000,237.000 126.325,237.000 125.500 C 237.000 124.675,236.550 124.000,236.000 124.000 C 235.450 124.000,235.000 123.325,235.000 122.500 C 235.000 121.500,234.000 121.000,232.000 121.000 C 230.350 121.000,229.000 120.550,229.000 120.000 C 229.000 119.450,227.200 119.000,225.000 119.000 C 222.111 119.000,221.000 118.583,221.000 117.500 C 221.000 116.201,217.111 116.000,192.000 116.000 L 163.000 116.000 163.000 146.500 M270.000 327.500 C 270.000 328.500,271.000 329.000,273.000 329.000 C 275.533 329.000,276.000 329.389,276.000 331.500 C 276.000 333.056,276.567 334.000,277.500 334.000 C 278.325 334.000,279.000 334.450,279.000 335.000 C 279.000 335.550,277.650 336.000,276.000 336.000 C 273.467 336.000,273.000 335.611,273.000 333.500 C 273.000 331.500,272.500 331.000,270.500 331.000 C 268.944 331.000,268.000 330.433,268.000 329.500 C 268.000 328.300,266.500 328.000,260.500 328.000 C 255.833 328.000,253.000 328.405,253.000 329.071 C 253.000 330.456,250.456 333.000,249.071 333.000 C 248.482 333.000,248.000 333.675,248.000 334.500 C 248.000 335.325,247.325 336.000,246.500 336.000 C 245.254 336.000,245.000 337.944,245.000 347.500 C 245.000 357.056,245.254 359.000,246.500 359.000 C 247.325 359.000,248.000 359.450,248.000 360.000 C 248.000 360.550,248.675 361.000,249.500 361.000 C 250.325 361.000,251.000 361.675,251.000 362.500 C 251.000 363.325,251.450 364.000,252.000 364.000 C 252.550 364.000,253.000 364.675,253.000 365.500 C 253.000 366.333,252.111 367.000,251.000 367.000 C 249.889 367.000,249.000 366.333,249.000 365.500 C 249.000 364.675,248.325 364.000,247.500 364.000 C 246.675 364.000,246.000 363.325,246.000 362.500 C 246.000 361.675,245.325 361.000,244.500 361.000 C 243.417 361.000,243.000 359.889,243.000 357.000 C 243.000 354.111,242.583 353.000,241.500 353.000 C 240.348 353.000,240.000 351.722,240.000 347.500 C 240.000 343.278,240.348 342.000,241.500 342.000 C 242.583 342.000,243.000 340.889,243.000 338.000 C 243.000 335.111,243.417 334.000,244.500 334.000 C 245.325 334.000,246.000 333.325,246.000 332.500 C 246.000 331.675,246.482 331.000,247.071 331.000 C 248.456 331.000,251.000 328.456,251.000 327.071 C 251.000 326.385,254.411 326.000,260.500 326.000 C 268.278 326.000,270.000 326.272,270.000 327.500 M311.000 327.500 C 311.000 328.325,311.675 329.000,312.500 329.000 C 313.433 329.000,314.000 329.944,314.000 331.500 C 314.000 333.056,314.567 334.000,315.500 334.000 C 316.325 334.000,317.000 334.450,317.000 335.000 C 317.000 335.550,315.875 336.000,314.500 336.000 C 312.500 336.000,312.000 335.500,312.000 333.500 C 312.000 331.944,311.433 331.000,310.500 331.000 C 309.675 331.000,309.000 330.325,309.000 329.500 C 309.000 328.292,307.444 328.000,301.000 328.000 C 296.333 328.000,293.000 327.583,293.000 327.000 C 293.000 326.407,296.667 326.000,302.000 326.000 C 309.333 326.000,311.000 326.278,311.000 327.500 M353.000 327.500 C 353.000 328.325,353.675 329.000,354.500 329.000 C 355.433 329.000,356.000 329.944,356.000 331.500 C 356.000 333.056,356.567 334.000,357.500 334.000 C 358.325 334.000,359.000 334.450,359.000 335.000 C 359.000 335.550,357.650 336.000,356.000 336.000 C 353.467 336.000,353.000 335.611,353.000 333.500 C 353.000 332.125,352.550 331.000,352.000 331.000 C 351.450 331.000,351.000 330.325,351.000 329.500 C 351.000 328.284,349.389 328.000,342.500 328.000 C 337.500 328.000,334.000 327.588,334.000 327.000 C 334.000 326.404,337.833 326.000,343.500 326.000 C 351.278 326.000,353.000 326.272,353.000 327.500 M333.000 330.000 C 333.000 330.550,332.550 331.000,332.000 331.000 C 331.450 331.000,331.000 332.800,331.000 335.000 C 331.000 337.200,331.450 339.000,332.000 339.000 C 332.550 339.000,333.000 339.675,333.000 340.500 C 333.000 341.500,334.000 342.000,336.000 342.000 C 338.000 342.000,339.000 342.500,339.000 343.500 C 339.000 344.652,340.278 345.000,344.500 345.000 C 348.722 345.000,350.000 345.348,350.000 346.500 C 350.000 347.500,351.000 348.000,353.000 348.000 C 355.000 348.000,356.000 348.500,356.000 349.500 C 356.000 350.325,356.675 351.000,357.500 351.000 C 358.433 351.000,359.000 351.944,359.000 353.500 C 359.000 354.875,359.450 356.000,360.000 356.000 C 360.550 356.000,361.000 356.675,361.000 357.500 C 361.000 358.325,360.550 359.000,360.000 359.000 C 359.450 359.000,359.000 360.125,359.000 361.500 C 359.000 363.056,358.433 364.000,357.500 364.000 C 356.675 364.000,356.000 364.675,356.000 365.500 C 356.000 366.433,355.056 367.000,353.500 367.000 C 351.944 367.000,351.000 366.433,351.000 365.500 C 351.000 364.567,351.944 364.000,353.500 364.000 C 355.864 364.000,356.000 363.700,356.000 358.500 C 356.000 354.278,355.652 353.000,354.500 353.000 C 353.675 353.000,353.000 352.325,353.000 351.500 C 353.000 350.567,352.056 350.000,350.500 350.000 C 348.944 350.000,348.000 349.433,348.000 348.500 C 348.000 347.348,346.722 347.000,342.500 347.000 C 339.475 347.000,337.000 346.550,337.000 346.000 C 337.000 345.450,335.650 345.000,334.000 345.000 C 332.000 345.000,331.000 344.500,331.000 343.500 C 331.000 342.675,330.550 342.000,330.000 342.000 C 328.555 342.000,328.768 332.179,330.250 330.496 C 331.723 328.822,333.000 328.592,333.000 330.000 M289.000 335.000 C 289.000 337.889,289.417 339.000,290.500 339.000 C 291.325 339.000,292.000 339.675,292.000 340.500 C 292.000 341.500,293.000 342.000,295.000 342.000 C 297.000 342.000,298.000 342.500,298.000 343.500 C 298.000 344.652,299.278 345.000,303.500 345.000 C 307.722 345.000,309.000 345.348,309.000 346.500 C 309.000 347.433,309.944 348.000,311.500 348.000 C 313.056 348.000,314.000 348.567,314.000 349.500 C 314.000 350.325,314.675 351.000,315.500 351.000 C 316.433 351.000,317.000 351.944,317.000 353.500 C 317.000 355.056,317.567 356.000,318.500 356.000 C 319.325 356.000,320.000 356.675,320.000 357.500 C 320.000 358.325,319.325 359.000,318.500 359.000 C 317.567 359.000,317.000 359.944,317.000 361.500 C 317.000 362.875,316.550 364.000,316.000 364.000 C 315.450 364.000,315.000 361.525,315.000 358.500 C 315.000 354.278,314.652 353.000,313.500 353.000 C 312.675 353.000,312.000 352.325,312.000 351.500 C 312.000 350.567,311.056 350.000,309.500 350.000 C 307.944 350.000,307.000 349.433,307.000 348.500 C 307.000 347.333,305.667 347.000,301.000 347.000 C 297.667 347.000,295.000 346.556,295.000 346.000 C 295.000 345.450,293.875 345.000,292.500 345.000 C 290.944 345.000,290.000 344.433,290.000 343.500 C 290.000 342.675,289.325 342.000,288.500 342.000 C 287.348 342.000,287.000 340.722,287.000 336.500 C 287.000 333.475,287.450 331.000,288.000 331.000 C 288.550 331.000,289.000 332.800,289.000 335.000 M279.000 357.000 C 279.000 359.889,278.583 361.000,277.500 361.000 C 276.675 361.000,276.000 361.675,276.000 362.500 C 276.000 363.325,275.325 364.000,274.500 364.000 C 273.675 364.000,273.000 364.675,273.000 365.500 C 273.000 366.433,272.056 367.000,270.500 367.000 C 268.944 367.000,268.000 366.433,268.000 365.500 C 268.000 364.675,268.675 364.000,269.500 364.000 C 270.325 364.000,271.000 363.325,271.000 362.500 C 271.000 361.675,271.450 361.000,272.000 361.000 C 272.550 361.000,273.000 359.875,273.000 358.500 C 273.000 356.944,273.567 356.000,274.500 356.000 C 275.325 356.000,276.000 355.325,276.000 354.500 C 276.000 353.675,276.675 353.000,277.500 353.000 C 278.583 353.000,279.000 354.111,279.000 357.000 M289.000 358.500 C 289.000 360.056,289.567 361.000,290.500 361.000 C 291.325 361.000,292.000 361.675,292.000 362.500 C 292.000 363.325,292.675 364.000,293.500 364.000 C 294.325 364.000,295.000 364.675,295.000 365.500 C 295.000 366.690,296.444 367.000,302.000 367.000 C 307.556 367.000,309.000 366.690,309.000 365.500 C 309.000 364.567,309.944 364.000,311.500 364.000 C 313.056 364.000,314.000 364.567,314.000 365.500 C 314.000 366.433,313.056 367.000,311.500 367.000 C 310.125 367.000,309.000 367.450,309.000 368.000 C 309.000 368.571,306.000 369.000,302.000 369.000 C 298.000 369.000,295.000 368.571,295.000 368.000 C 295.000 367.450,293.875 367.000,292.500 367.000 C 290.944 367.000,290.000 366.433,290.000 365.500 C 290.000 364.675,289.325 364.000,288.500 364.000 C 287.567 364.000,287.000 363.056,287.000 361.500 C 287.000 359.944,286.433 359.000,285.500 359.000 C 284.675 359.000,284.000 358.325,284.000 357.500 C 284.000 356.567,284.944 356.000,286.500 356.000 C 288.500 356.000,289.000 356.500,289.000 358.500 M331.000 358.500 C 331.000 359.875,331.450 361.000,332.000 361.000 C 332.550 361.000,333.000 361.675,333.000 362.500 C 333.000 363.325,333.675 364.000,334.500 364.000 C 335.325 364.000,336.000 364.675,336.000 365.500 C 336.000 366.433,335.056 367.000,333.500 367.000 C 331.944 367.000,331.000 366.433,331.000 365.500 C 331.000 364.675,330.550 364.000,330.000 364.000 C 329.450 364.000,329.000 362.875,329.000 361.500 C 329.000 359.944,328.433 359.000,327.500 359.000 C 326.675 359.000,326.000 358.325,326.000 357.500 C 326.000 356.567,326.944 356.000,328.500 356.000 C 330.500 356.000,331.000 356.500,331.000 358.500 M267.000 368.000 C 267.000 368.564,264.167 369.000,260.500 369.000 C 256.833 369.000,254.000 368.564,254.000 368.000 C 254.000 367.436,256.833 367.000,260.500 367.000 C 264.167 367.000,267.000 367.436,267.000 368.000 M350.000 368.000 C 350.000 368.564,347.167 369.000,343.500 369.000 C 339.833 369.000,337.000 368.564,337.000 368.000 C 337.000 367.436,339.833 367.000,343.500 367.000 C 347.167 367.000,350.000 367.436,350.000 368.000 " stroke="none" fill-rule="evenodd"></path></g></svg>