<?xml version="1.0" encoding="UTF-8" standalone="no"?>
<!DOCTYPE svg PUBLIC "-//W3C//DTD SVG 1.1//EN" "http://www.w3.org/Graphics/SVG/1.1/DTD/svg11.dtd">
<svg width="100%" height="100%" viewBox="0 0 400 400" version="1.1" xmlns="http://www.w3.org/2000/svg" xmlns:xlink="http://www.w3.org/1999/xlink" xml:space="preserve" xmlns:serif="http://www.serif.com/" style="fill-rule:evenodd;clip-rule:evenodd;stroke-linejoin:round;stroke-miterlimit:2;">
    <g id="svgg">
        <path id="path0" d="M53,192.5L53,343L88,343L88,216L220,216C220,216 247.98,194.149 250.157,191.654C252.926,188.479 271,165 271,165L271,98C271,98 255.76,68.937 255.5,68.5C250.94,60.826 205,42 205,42L53,42L53,192.5M235,104L235,154L205,185L88,185L88,74L195,74M151.334,275C150.537,279.201 147.37,288.243 147.303,290.438C147.137,295.81 147.131,301.19 147.303,306.562C147.374,308.807 149.634,317.547 150.688,320.281C151.164,321.518 170,337 170,337L195,337C195,337 217.311,319.06 215.022,311.718C214.784,310.956 212.336,307.751 210.657,307.898C205.629,308.337 195.517,329.952 191.48,331.163C185.28,333.024 182.293,333.318 175.977,331.674C172.379,330.737 157,318 157,318L157,279L171,265L195,265L209,279C209.555,279 218.123,277.023 213.5,274.5C212.247,273.816 200,260 200,260L166,260M228.237,271.399C224.245,275.249 225.297,282.37 227.145,286.789C228.02,288.881 242.982,299.63 246,299.787C252.174,300.109 272.922,307.628 273.5,308C276.704,310.061 276,314.375 276,317.5C276,317.5 270.237,325.211 264.312,330.707C259.776,334.914 248.624,335.046 243.273,330.107C242.591,329.477 233,313 233,313L228,313C227.445,313 218.877,314.977 223.5,317.5C224.753,318.184 243,337 243,337L267,337C267,337 276.293,327.832 276.5,327.5C277.369,326.104 278.963,325.236 279.761,323.798C280.628,322.239 281.605,305.362 281.622,305.121C281.777,302.866 269.457,294.084 266.998,293.884C263.656,293.612 252.815,295.849 250.204,293.463C249.588,292.9 238.311,285.686 237.5,284.5C236.113,282.47 231.397,281.087 231.246,277.961C231.12,275.337 232.501,271.59 234.335,269.7C235.048,268.966 266,265 266,265L271,279L276,279C276.937,279 284.417,277.241 280.5,274.5C279.656,273.909 271,260 271,260L237,260M300.284,271.356C296.36,275.157 297.388,282.455 299.145,286.788C300.067,289.062 313.161,297.208 314.031,298.137C316.444,300.713 339.564,302.578 342.25,303.375C343.163,303.646 344.922,307.628 345.5,308C348.704,310.061 348,314.375 348,317.5C348,317.5 340.164,326.858 338.875,327.35C336.882,328.111 328.892,332.647 325.125,333.088C321.514,333.512 317.098,332.58 314.281,330.109C313.582,329.496 305,313 305,313L300,313C299.445,313 290.877,314.977 295.5,317.5C296.753,318.184 314,337 314,337L339,334.5C339,332.847 340.358,331.492 342.048,330.426C344.783,328.702 348.386,327.737 348.5,327.5C349.937,324.509 351.473,321.541 353.361,318.813C354.073,317.785 354.025,313.202 353.35,312.125C351.442,309.081 348.152,298.695 347.3,298.389C345.263,297.659 323.789,293.664 321.226,293.273C319.03,292.939 305.432,283.835 305.321,282.875C304.874,278.984 309,265 309,265L338,265L343,279L348,279C348.937,279 356.417,277.241 352.5,274.5C351.656,273.909 343,260 343,260L309,260"/>
    </g>
</svg>
