<svg version="1.1" width="515" height="515" xmlns="http://www.w3.org/2000/svg"><g><path d="M361.000 57.435 L 361.000 62.900 355.250 63.200 L 349.500 63.500 349.198 68.750 L 348.895 74.000 345.030 74.000 C 338.628 74.000,338.000 74.586,338.000 80.557 L 338.000 85.900 332.250 86.200 L 326.500 86.500 326.199 91.699 L 325.899 96.899 320.699 97.199 L 315.500 97.500 315.200 103.246 L 314.900 108.991 206.200 109.246 L 97.500 109.500 97.500 166.000 L 97.500 222.500 114.127 222.774 C 132.753 223.080,131.952 223.415,131.986 215.302 C 132.000 212.152,132.078 212.100,137.250 211.802 L 142.500 211.500 142.800 205.750 L 143.100 200.000 160.050 200.000 L 177.000 200.000 177.000 204.066 C 177.000 206.302,177.466 209.002,178.035 210.066 C 179.041 211.945,178.556 212.000,161.035 212.000 L 143.000 212.000 143.000 217.500 L 143.000 223.000 137.500 223.000 L 132.000 223.000 132.000 229.000 L 132.000 235.000 126.000 235.000 L 120.000 235.000 120.000 286.500 L 120.000 338.000 114.500 338.000 L 109.000 338.000 109.000 343.450 L 109.000 348.900 103.250 349.200 L 97.500 349.500 97.200 355.250 L 96.900 361.000 91.435 361.000 L 85.969 361.000 86.234 389.250 L 86.500 417.500 91.699 417.801 L 96.899 418.101 97.199 423.301 L 97.500 428.500 200.250 428.755 L 303.000 429.009 303.000 423.555 L 303.000 418.100 308.750 417.800 L 314.500 417.500 314.800 411.750 L 315.100 406.000 320.550 406.000 L 326.000 406.000 326.000 400.500 L 326.000 395.000 331.383 395.000 C 338.278 395.000,337.969 396.365,337.986 365.832 C 338.003 336.536,338.347 338.000,331.443 338.000 L 326.100 338.000 325.800 332.250 L 325.500 326.500 314.250 326.217 L 303.000 325.934 303.000 297.517 L 303.000 269.100 308.750 268.800 L 314.500 268.500 314.800 262.750 L 315.100 257.000 320.550 257.000 L 326.000 257.000 326.000 251.500 L 326.000 246.000 331.383 246.000 C 337.295 246.000,337.957 245.223,337.986 238.250 L 338.000 235.000 347.418 235.000 C 359.910 235.000,360.000 234.953,360.000 228.408 L 360.000 223.031 388.750 222.765 L 417.500 222.500 417.801 217.301 L 418.101 212.101 423.301 211.801 L 428.500 211.500 428.800 205.750 L 429.100 200.000 434.433 200.000 C 440.281 200.000,440.957 199.206,440.986 192.302 C 441.000 189.152,441.078 189.100,446.250 188.802 L 451.500 188.500 451.800 182.750 L 452.100 177.000 457.561 177.000 L 463.023 177.000 462.761 137.250 L 462.500 97.500 457.250 97.198 L 452.000 96.895 452.000 91.448 L 452.000 86.000 446.500 86.000 L 441.000 86.000 441.000 81.571 C 441.000 75.854,439.146 74.000,433.429 74.000 L 429.000 74.000 429.000 68.500 L 429.000 63.000 423.552 63.000 L 418.105 63.000 417.802 57.750 L 417.500 52.500 389.250 52.234 L 361.000 51.969 361.000 57.435 M406.200 79.750 L 406.500 85.500 412.250 85.800 L 418.000 86.100 418.000 91.550 L 418.000 97.000 423.450 97.000 L 428.900 97.000 429.200 102.750 L 429.500 108.500 435.250 108.800 L 441.000 109.100 440.884 116.300 C 440.820 120.260,440.562 122.713,440.311 121.750 C 439.946 120.355,438.754 120.000,434.427 120.000 L 429.000 120.000 429.000 114.500 L 429.000 109.000 412.000 109.000 L 395.000 109.000 395.000 114.500 L 395.000 120.000 389.573 120.000 C 385.246 120.000,384.054 120.355,383.689 121.750 C 383.438 122.713,383.180 120.237,383.116 116.250 L 383.000 109.000 366.000 109.000 L 349.000 109.000 349.000 114.500 L 349.000 120.000 343.500 120.000 L 338.000 120.000 338.000 114.552 L 338.000 109.105 343.250 108.802 L 348.500 108.500 348.800 102.750 L 349.100 97.000 354.550 97.000 L 360.000 97.000 360.000 91.550 L 360.000 86.100 365.750 85.800 L 371.500 85.500 371.800 79.750 L 372.100 74.000 389.000 74.000 L 405.900 74.000 406.200 79.750 M315.000 137.492 L 315.000 142.984 257.750 143.242 L 200.500 143.500 200.231 166.250 L 199.962 189.000 194.481 189.000 L 189.000 189.000 189.000 172.000 L 189.000 155.000 177.500 155.000 L 166.000 155.000 166.000 160.500 L 166.000 166.000 160.550 166.000 L 155.100 166.000 154.739 171.750 C 154.541 174.912,154.293 172.438,154.189 166.250 L 154.000 155.000 143.000 155.000 L 132.000 155.000 132.000 171.911 L 132.000 188.822 125.998 189.161 L 119.996 189.500 119.998 160.750 L 120.000 132.000 217.500 132.000 L 315.000 132.000 315.000 137.492 M418.000 137.500 L 418.000 143.000 412.000 143.000 L 406.000 143.000 406.000 137.500 L 406.000 132.000 412.000 132.000 L 418.000 132.000 418.000 137.500 M383.000 146.918 C 383.000 153.386,383.572 154.000,389.607 154.000 L 395.000 154.000 395.000 160.000 L 395.000 166.000 412.000 166.000 L 429.000 166.000 429.000 160.000 L 429.000 154.000 434.417 154.000 C 437.814 154.000,440.021 153.534,440.338 152.750 C 440.615 152.063,440.878 154.740,440.921 158.700 L 441.000 165.900 435.250 166.200 L 429.500 166.500 429.198 171.750 C 428.900 176.922,428.848 177.000,425.698 177.014 C 418.794 177.043,418.000 177.719,418.000 183.567 L 418.000 188.900 412.250 189.200 L 406.500 189.500 406.198 194.750 L 405.895 200.000 388.948 200.000 L 372.000 200.000 372.000 194.500 L 372.000 189.000 366.000 189.000 L 360.000 189.000 360.000 183.607 C 360.000 177.572,359.386 177.000,352.918 177.000 L 349.000 177.000 349.000 171.500 L 349.000 166.000 354.500 166.000 L 360.000 166.000 360.000 160.000 L 360.000 154.000 366.000 154.000 L 372.000 154.000 372.000 148.500 L 372.000 143.000 377.500 143.000 L 383.000 143.000 383.000 146.918 M335.250 154.723 C 333.462 154.945,330.538 154.945,328.750 154.723 C 326.962 154.502,328.425 154.320,332.000 154.320 C 335.575 154.320,337.038 154.502,335.250 154.723 M269.000 171.500 L 269.000 177.000 265.082 177.000 C 258.614 177.000,258.000 177.572,258.000 183.607 L 258.000 189.000 252.000 189.000 L 246.000 189.000 246.000 194.439 L 246.000 199.879 234.498 200.189 L 222.996 200.500 222.998 183.250 L 223.000 166.000 246.000 166.000 L 269.000 166.000 269.000 171.500 M292.217 200.250 L 292.500 211.500 309.500 211.771 L 326.500 212.042 326.160 217.472 L 325.821 222.902 320.660 223.201 L 315.500 223.500 315.202 229.202 L 314.903 234.903 309.202 235.202 L 303.500 235.500 303.198 240.750 L 302.895 246.000 297.198 246.001 L 291.500 246.002 291.500 234.751 L 291.500 223.500 274.250 223.226 L 257.000 222.953 257.000 217.526 L 257.000 212.100 262.750 211.800 L 268.500 211.500 268.800 205.750 L 269.100 200.000 274.550 200.000 L 280.000 200.000 280.000 194.500 L 280.000 189.000 285.967 189.000 L 291.934 189.000 292.217 200.250 M223.198 240.250 L 223.500 245.500 235.000 245.778 L 246.500 246.055 246.161 252.028 L 245.822 258.000 200.411 258.000 L 155.000 258.000 155.000 297.393 C 155.000 332.392,155.176 336.854,156.582 337.393 C 158.648 338.186,253.352 338.186,255.418 337.393 C 256.774 336.873,257.000 334.375,257.000 319.893 L 257.000 303.000 263.000 303.000 L 269.000 303.000 269.000 297.500 L 269.000 292.000 274.500 292.000 L 280.000 292.000 280.000 315.000 L 280.000 338.000 274.500 338.000 L 269.000 338.000 269.000 343.500 L 269.000 349.000 206.000 349.000 L 143.000 349.000 143.000 297.500 L 143.000 246.000 148.500 246.000 L 154.000 246.000 154.000 240.500 L 154.000 235.000 188.448 235.000 L 222.895 235.000 223.198 240.250 M277.768 257.715 C 276.265 257.943,273.565 257.947,271.768 257.725 C 269.971 257.502,271.200 257.315,274.500 257.310 C 277.800 257.304,279.271 257.486,277.768 257.715 M257.725 277.232 C 257.502 279.029,257.315 277.800,257.310 274.500 C 257.304 271.200,257.486 269.729,257.715 271.232 C 257.943 272.735,257.947 275.435,257.725 277.232 M315.000 366.000 L 315.000 383.000 310.934 383.000 C 304.432 383.000,303.000 384.270,303.000 390.035 L 303.000 395.000 297.500 395.000 L 292.000 395.000 292.000 400.500 L 292.000 406.000 280.500 406.000 L 269.000 406.000 269.000 395.117 C 269.000 381.812,271.865 383.027,240.500 383.027 C 209.135 383.027,212.000 381.812,212.000 395.117 L 212.000 406.000 160.500 406.000 L 109.000 406.000 109.000 389.000 L 109.000 372.000 114.750 371.988 C 117.912 371.982,156.387 371.987,200.250 372.000 L 280.000 372.023 280.000 366.012 L 280.000 360.000 286.000 360.000 L 292.000 360.000 292.000 354.500 L 292.000 349.000 303.500 349.000 L 315.000 349.000 315.000 366.000 " stroke="none" fill-rule="evenodd"></path></g></svg>