<svg xmlns="http://www.w3.org/2000/svg" width="400" height="400" viewBox="0, 0, 400,400">
<g>
<path d="M0.000 199.750 L 0.000 275.000 19.000 275.000 L 38.000 275.000 38.000 249.307 L 38.000 223.614 55.125 223.340 C 64.544 223.189,73.480 222.832,74.982 222.546 C 76.485 222.260,78.890 221.782,80.325 221.484 L 82.936 220.942 86.434 210.346 C 89.292 201.690,106.692 148.010,107.210 146.250 C 107.965 143.687,96.215 133.142,88.811 129.739 C 78.151 124.838,74.808 124.520,33.875 124.509 L 0.000 124.500 0.000 199.750 M171.741 140.868 C 168.812 149.878,164.317 163.662,161.751 171.500 C 159.185 179.338,154.568 193.512,151.489 203.000 C 148.411 212.488,145.707 220.448,145.480 220.691 C 145.254 220.933,140.124 211.258,134.080 199.191 C 127.859 186.768,122.977 177.575,122.825 178.000 C 122.679 178.412,120.876 183.925,118.819 190.250 C 116.762 196.575,112.362 210.109,109.040 220.326 C 105.718 230.542,103.000 239.185,103.000 239.531 C 103.000 239.877,107.556 247.999,113.125 257.579 L 123.250 274.999 143.199 274.875 L 163.148 274.750 166.287 265.250 C 168.013 260.025,174.292 240.900,180.239 222.750 C 186.187 204.600,191.184 189.412,191.345 189.000 C 191.516 188.561,192.142 189.806,192.854 192.000 C 193.930 195.319,206.083 234.038,215.453 264.000 L 218.814 274.750 238.806 274.881 L 258.798 275.011 263.877 262.381 C 266.670 255.434,271.638 243.113,274.916 235.000 C 278.195 226.887,284.596 211.025,289.141 199.750 C 299.476 174.109,307.721 153.672,313.852 138.500 C 316.463 132.037,318.797 126.244,319.037 125.625 L 319.475 124.500 299.306 124.500 L 279.137 124.500 277.868 127.375 C 277.170 128.956,270.027 145.662,261.994 164.500 C 253.962 183.338,245.200 203.869,242.523 210.126 L 237.656 221.502 234.022 209.626 C 232.023 203.094,228.516 191.563,226.227 184.000 C 219.754 162.606,212.241 137.877,210.124 131.000 L 208.201 124.750 192.634 124.618 L 177.067 124.486 171.741 140.868 M340.008 132.817 C 338.283 137.180,333.860 148.356,330.179 157.652 L 323.487 174.554 331.244 196.240 C 335.510 208.167,339.000 218.164,339.000 218.456 C 339.000 218.817,333.687 219.029,322.403 219.118 L 305.806 219.250 300.157 233.500 C 297.051 241.338,294.507 247.804,294.504 247.871 C 294.502 247.937,306.673 248.050,321.550 248.121 L 348.600 248.250 353.377 261.625 L 358.155 275.000 379.055 275.000 L 399.956 275.000 399.275 273.125 C 398.901 272.094,397.359 267.988,395.848 264.000 C 394.337 260.012,390.133 248.875,386.505 239.250 C 382.878 229.625,377.322 214.887,374.159 206.500 C 370.997 198.113,364.850 181.800,360.499 170.250 C 345.121 129.418,343.934 126.292,343.542 125.592 C 343.279 125.122,342.092 127.549,340.008 132.817 M62.728 154.774 C 80.194 159.532,81.649 186.683,64.750 192.501 C 61.526 193.611,60.332 193.721,49.625 193.893 L 38.000 194.081 38.000 173.715 L 38.000 153.349 48.875 153.656 C 56.513 153.871,60.637 154.204,62.728 154.774 " stroke="none" fill-rule="evenodd"></path>
</g>
</svg>