<svg id="svg" version="1.1" width="400" height="400" xmlns="http://www.w3.org/2000/svg" xmlns:xlink="http://www.w3.org/1999/xlink" style="display: block;"><g id="svgg"><path id="path0" d="M149.000 42.000 C 149.000 42.550,147.200 43.000,145.000 43.000 C 142.800 43.000,141.000 43.450,141.000 44.000 C 141.000 44.550,139.875 45.000,138.500 45.000 C 136.667 45.000,136.000 45.533,136.000 47.000 C 136.000 48.556,135.333 49.000,133.000 49.000 C 130.667 49.000,130.000 49.444,130.000 51.000 C 130.000 52.100,130.450 53.000,131.000 53.000 C 131.550 53.000,132.000 53.900,132.000 55.000 C 132.000 56.100,132.450 57.000,133.000 57.000 C 133.550 57.000,134.000 57.450,134.000 58.000 C 134.000 58.550,132.843 59.000,131.429 59.000 C 128.324 59.000,126.000 61.110,126.000 63.929 C 126.000 65.068,125.550 66.000,125.000 66.000 C 124.450 66.000,124.000 66.900,124.000 68.000 C 124.000 69.100,123.550 70.000,123.000 70.000 C 122.450 70.000,122.000 70.900,122.000 72.000 C 122.000 73.100,121.550 74.000,121.000 74.000 C 120.450 74.000,120.000 75.350,120.000 77.000 C 120.000 78.650,119.550 80.000,119.000 80.000 C 118.450 80.000,118.000 80.801,118.000 81.779 C 118.000 82.758,117.100 84.207,116.000 85.000 C 114.900 85.793,114.000 87.467,114.000 88.721 C 114.000 89.974,113.530 91.000,112.955 91.000 C 110.941 91.000,107.000 95.933,107.000 98.455 C 107.000 99.855,106.550 101.000,106.000 101.000 C 105.450 101.000,105.000 102.800,105.000 105.000 C 105.000 107.200,104.550 109.000,104.000 109.000 C 103.450 109.000,103.000 110.575,103.000 112.500 C 103.000 114.425,102.550 116.000,102.000 116.000 C 101.450 116.000,101.000 117.800,101.000 120.000 C 101.000 122.200,100.550 124.000,100.000 124.000 C 99.450 124.000,99.000 125.800,99.000 128.000 C 99.000 130.200,98.550 132.000,98.000 132.000 C 97.450 132.000,97.000 133.575,97.000 135.500 C 97.000 137.425,96.550 139.000,96.000 139.000 C 95.417 139.000,95.000 142.333,95.000 147.000 C 95.000 151.667,94.583 155.000,94.000 155.000 C 93.387 155.000,93.000 159.833,93.000 167.500 C 93.000 175.167,93.387 180.000,94.000 180.000 C 94.621 180.000,95.000 185.500,95.000 194.500 C 95.000 203.500,95.379 209.000,96.000 209.000 C 96.550 209.000,97.000 210.575,97.000 212.500 C 97.000 214.425,97.450 216.000,98.000 216.000 C 98.550 216.000,99.000 216.690,99.000 217.533 C 99.000 219.405,105.423 226.000,107.246 226.000 C 107.968 226.000,109.207 226.900,110.000 228.000 C 110.793 229.100,111.807 230.000,112.254 230.000 C 113.312 230.000,120.000 236.688,120.000 237.746 C 120.000 238.193,120.900 239.207,122.000 240.000 C 123.100 240.793,124.000 242.242,124.000 243.221 C 124.000 244.333,124.749 245.000,126.000 245.000 C 127.126 245.000,128.000 245.667,128.000 246.526 C 128.000 247.957,136.242 257.000,137.545 257.000 C 138.763 257.000,141.000 259.910,141.000 261.493 C 141.000 262.393,143.250 265.321,146.000 268.000 C 148.750 270.679,151.000 273.394,151.000 274.034 C 151.000 274.674,152.350 276.459,154.000 278.000 C 155.650 279.541,157.000 281.334,157.000 281.985 C 157.000 282.635,158.575 284.696,160.500 286.566 C 162.425 288.435,164.000 290.467,164.000 291.081 C 164.000 291.695,165.350 293.459,167.000 295.000 C 168.650 296.541,170.000 298.423,170.000 299.180 C 170.000 299.938,170.900 301.207,172.000 302.000 C 173.100 302.793,174.000 304.062,174.000 304.820 C 174.000 305.577,175.350 307.459,177.000 309.000 C 178.650 310.541,180.000 312.747,180.000 313.901 C 180.000 315.056,180.450 316.000,181.000 316.000 C 181.550 316.000,182.000 316.801,182.000 317.779 C 182.000 318.758,182.900 320.207,184.000 321.000 C 185.100 321.793,186.000 323.242,186.000 324.221 C 186.000 325.199,186.482 326.000,187.071 326.000 C 188.578 326.000,191.000 328.594,191.000 330.208 C 191.000 330.951,191.900 332.207,193.000 333.000 C 194.100 333.793,195.000 335.467,195.000 336.721 C 195.000 337.974,195.450 339.000,196.000 339.000 C 196.550 339.000,197.000 339.801,197.000 340.779 C 197.000 341.758,197.900 343.207,199.000 344.000 C 200.100 344.793,201.000 346.242,201.000 347.221 C 201.000 348.199,201.450 349.000,202.000 349.000 C 202.550 349.000,203.000 349.900,203.000 351.000 C 203.000 352.100,203.450 353.000,204.000 353.000 C 204.550 353.000,205.000 353.900,205.000 355.000 C 205.000 356.100,205.450 357.000,206.000 357.000 C 206.550 357.000,207.000 357.900,207.000 359.000 C 207.000 360.100,207.450 361.000,208.000 361.000 C 208.550 361.000,209.000 362.156,209.000 363.570 C 209.000 365.662,209.418 366.080,211.250 365.820 C 214.126 365.411,215.250 356.417,212.555 355.383 C 211.301 354.902,211.000 352.968,211.000 345.393 C 211.000 339.798,210.596 336.000,210.000 336.000 C 209.417 336.000,209.000 332.667,209.000 328.000 C 209.000 323.333,208.583 320.000,208.000 320.000 C 207.450 320.000,207.000 317.525,207.000 314.500 C 207.000 311.475,206.550 309.000,206.000 309.000 C 205.450 309.000,205.000 307.200,205.000 305.000 C 205.000 302.800,204.550 301.000,204.000 301.000 C 203.450 301.000,203.000 299.650,203.000 298.000 C 203.000 296.350,202.550 295.000,202.000 295.000 C 201.450 295.000,201.000 293.650,201.000 292.000 C 201.000 290.350,200.550 289.000,200.000 289.000 C 199.450 289.000,199.000 287.425,199.000 285.500 C 199.000 283.575,198.550 282.000,198.000 282.000 C 197.450 282.000,197.000 280.650,197.000 279.000 C 197.000 277.350,196.550 276.000,196.000 276.000 C 195.450 276.000,195.000 274.650,195.000 273.000 C 195.000 271.350,194.550 270.000,194.000 270.000 C 193.450 270.000,193.000 268.650,193.000 267.000 C 193.000 265.350,192.550 264.000,192.000 264.000 C 191.450 264.000,191.000 262.875,191.000 261.500 C 191.000 260.125,190.550 259.000,190.000 259.000 C 189.450 259.000,189.000 257.200,189.000 255.000 C 189.000 252.111,188.583 251.000,187.500 251.000 C 186.500 251.000,186.000 250.000,186.000 248.000 C 186.000 246.350,185.550 245.000,185.000 245.000 C 184.450 245.000,184.000 243.650,184.000 242.000 C 184.000 240.350,183.550 239.000,183.000 239.000 C 182.450 239.000,182.000 236.525,182.000 233.500 C 182.000 230.475,181.550 228.000,181.000 228.000 C 180.444 228.000,180.000 225.333,180.000 222.000 C 180.000 218.667,179.556 216.000,179.000 216.000 C 178.422 216.000,178.000 212.833,178.000 208.500 C 178.000 204.167,177.578 201.000,177.000 201.000 C 176.450 201.000,176.000 199.200,176.000 197.000 C 176.000 194.800,176.450 193.000,177.000 193.000 C 177.550 193.000,178.000 190.525,178.000 187.500 C 178.000 184.475,178.450 182.000,179.000 182.000 C 179.550 182.000,180.000 180.650,180.000 179.000 C 180.000 177.350,180.450 176.000,181.000 176.000 C 181.550 176.000,182.000 175.100,182.000 174.000 C 182.000 172.900,182.450 172.000,183.000 172.000 C 183.550 172.000,184.000 171.356,184.000 170.568 C 184.000 168.663,195.615 157.000,197.512 157.000 C 198.330 157.000,199.000 156.550,199.000 156.000 C 199.000 155.450,199.900 155.000,201.000 155.000 C 202.100 155.000,203.000 154.550,203.000 154.000 C 203.000 153.450,203.900 153.000,205.000 153.000 C 206.100 153.000,207.000 152.550,207.000 152.000 C 207.000 151.450,208.575 151.000,210.500 151.000 C 212.425 151.000,214.000 150.550,214.000 150.000 C 214.000 149.450,214.900 149.000,216.000 149.000 C 217.100 149.000,218.000 148.550,218.000 148.000 C 218.000 147.450,218.900 147.000,220.000 147.000 C 221.100 147.000,222.000 146.550,222.000 146.000 C 222.000 145.450,223.350 145.000,225.000 145.000 C 226.650 145.000,228.000 144.550,228.000 144.000 C 228.000 143.450,228.801 143.000,229.779 143.000 C 230.758 143.000,232.207 142.100,233.000 141.000 C 233.793 139.900,235.256 139.000,236.252 139.000 C 237.248 139.000,238.322 138.325,238.638 137.500 C 238.966 136.645,240.458 136.000,242.107 136.000 C 243.698 136.000,245.000 135.550,245.000 135.000 C 245.000 134.450,245.900 134.000,247.000 134.000 C 248.100 134.000,249.000 133.550,249.000 133.000 C 249.000 132.371,255.500 132.000,266.500 132.000 C 277.500 132.000,284.000 132.371,284.000 133.000 C 284.000 133.617,289.167 134.000,297.500 134.000 C 309.010 134.000,311.000 133.772,311.000 132.455 C 311.000 130.025,306.352 126.000,303.545 126.000 C 302.145 126.000,301.000 125.550,301.000 125.000 C 301.000 124.450,299.650 124.000,298.000 124.000 C 296.350 124.000,295.000 123.550,295.000 123.000 C 295.000 122.450,292.525 122.000,289.500 122.000 C 286.475 122.000,284.000 121.550,284.000 121.000 C 284.000 120.450,281.750 120.000,279.000 120.000 C 276.250 120.000,274.000 119.550,274.000 119.000 C 274.000 118.436,271.167 118.000,267.500 118.000 C 263.833 118.000,261.000 117.564,261.000 117.000 C 261.000 116.450,259.200 116.000,257.000 116.000 C 254.800 116.000,253.000 115.550,253.000 115.000 C 253.000 114.450,250.750 114.000,248.000 114.000 C 244.222 114.000,243.000 113.633,243.000 112.500 C 243.000 111.321,241.611 111.000,236.500 111.000 C 232.833 111.000,230.000 110.564,230.000 110.000 C 230.000 109.450,227.750 109.000,225.000 109.000 C 222.250 109.000,220.000 108.550,220.000 108.000 C 220.000 107.417,223.333 107.000,228.000 107.000 C 232.667 107.000,236.000 107.417,236.000 108.000 C 236.000 108.564,238.833 109.000,242.500 109.000 C 246.167 109.000,249.000 109.436,249.000 110.000 C 249.000 110.550,251.202 111.000,253.893 111.000 C 257.320 111.000,258.958 111.449,259.362 112.500 C 259.785 113.604,261.530 114.000,265.969 114.000 C 269.323 114.000,272.000 114.444,272.000 115.000 C 272.000 115.550,274.250 116.000,277.000 116.000 C 279.750 116.000,282.000 116.450,282.000 117.000 C 282.000 117.550,283.575 118.000,285.500 118.000 C 287.425 118.000,289.000 118.450,289.000 119.000 C 289.000 119.550,291.250 120.000,294.000 120.000 C 296.750 120.000,299.000 120.450,299.000 121.000 C 299.000 121.550,299.900 122.000,301.000 122.000 C 302.100 122.000,303.000 122.450,303.000 123.000 C 303.000 123.550,303.719 124.000,304.599 124.000 C 305.478 124.000,307.459 125.350,309.000 127.000 C 310.541 128.650,312.648 130.000,313.680 130.000 C 314.713 130.000,316.207 130.900,317.000 132.000 C 319.260 135.136,322.000 134.588,322.000 131.000 C 322.000 129.350,321.550 128.000,321.000 128.000 C 320.450 128.000,320.000 127.310,320.000 126.467 C 320.000 124.333,313.458 118.000,311.254 118.000 C 310.257 118.000,308.793 117.100,308.000 116.000 C 307.153 114.826,305.411 114.000,303.779 114.000 C 301.975 114.000,301.000 113.474,301.000 112.500 C 301.000 111.526,300.025 111.000,298.221 111.000 C 296.589 111.000,294.847 110.174,294.000 109.000 C 293.063 107.700,291.411 107.000,289.279 107.000 C 287.476 107.000,286.000 106.550,286.000 106.000 C 286.000 105.450,284.200 105.000,282.000 105.000 C 279.800 105.000,278.000 104.550,278.000 104.000 C 278.000 103.450,277.100 103.000,276.000 103.000 C 274.900 103.000,274.000 102.550,274.000 102.000 C 274.000 101.450,272.650 101.000,271.000 101.000 C 269.350 101.000,268.000 100.550,268.000 100.000 C 268.000 99.450,267.100 99.000,266.000 99.000 C 264.900 99.000,264.000 98.550,264.000 98.000 C 264.000 97.450,263.530 97.000,262.955 97.000 C 260.710 97.000,257.000 92.045,257.000 89.045 C 257.000 87.370,256.550 86.000,256.000 86.000 C 255.450 86.000,255.000 84.749,255.000 83.221 C 255.000 81.589,254.174 79.847,253.000 79.000 C 251.900 78.207,251.000 76.986,251.000 76.286 C 251.000 74.570,237.504 61.000,235.796 61.000 C 235.051 61.000,233.793 60.100,233.000 59.000 C 232.153 57.826,230.411 57.000,228.779 57.000 C 227.251 57.000,226.000 56.550,226.000 56.000 C 226.000 55.450,224.650 55.000,223.000 55.000 C 221.350 55.000,220.000 54.550,220.000 54.000 C 220.000 53.450,218.650 53.000,217.000 53.000 C 215.350 53.000,214.000 52.550,214.000 52.000 C 214.000 51.450,212.425 51.000,210.500 51.000 C 208.575 51.000,207.000 50.550,207.000 50.000 C 207.000 49.450,205.200 49.000,203.000 49.000 C 200.800 49.000,199.000 48.550,199.000 48.000 C 199.000 47.450,197.650 47.000,196.000 47.000 C 194.350 47.000,193.000 46.550,193.000 46.000 C 193.000 45.436,190.167 45.000,186.500 45.000 C 180.667 45.000,180.000 45.205,180.000 47.000 C 180.000 49.801,179.371 49.549,175.000 45.000 C 171.194 41.039,161.000 38.855,161.000 42.000 C 161.000 42.550,159.200 43.000,157.000 43.000 C 154.800 43.000,153.000 42.550,153.000 42.000 C 153.000 41.450,152.100 41.000,151.000 41.000 C 149.900 41.000,149.000 41.450,149.000 42.000 M212.500 75.000 C 212.840 75.550,215.116 76.000,217.559 76.000 C 220.002 76.000,222.000 76.450,222.000 77.000 C 222.000 77.550,222.900 78.000,224.000 78.000 C 225.100 78.000,226.000 78.450,226.000 79.000 C 226.000 79.550,226.695 80.000,227.545 80.000 C 229.446 80.000,234.000 84.413,234.000 86.255 C 234.000 86.995,234.505 88.105,235.123 88.723 C 236.456 90.056,232.063 95.000,229.545 95.000 C 228.695 95.000,228.000 95.450,228.000 96.000 C 228.000 96.550,226.650 97.000,225.000 97.000 C 223.350 97.000,222.000 96.550,222.000 96.000 C 222.000 95.450,220.650 95.000,219.000 95.000 C 217.350 95.000,216.000 94.550,216.000 94.000 C 216.000 93.450,214.630 93.000,212.955 93.000 C 209.955 93.000,205.000 89.290,205.000 87.045 C 205.000 86.470,204.550 86.000,204.000 86.000 C 203.450 86.000,203.000 85.138,203.000 84.083 C 203.000 83.029,202.450 81.983,201.778 81.759 C 200.186 81.229,205.338 76.000,207.455 76.000 C 208.305 76.000,209.000 75.550,209.000 75.000 C 209.000 74.450,209.648 74.000,210.441 74.000 C 211.234 74.000,212.160 74.450,212.500 75.000 M218.000 106.000 C 218.000 106.550,215.975 107.000,213.500 107.000 C 211.025 107.000,209.000 106.550,209.000 106.000 C 209.000 105.450,211.025 105.000,213.500 105.000 C 215.975 105.000,218.000 105.450,218.000 106.000 " stroke="none" fill="#000000" fill-rule="evenodd"></path></g></svg>