<svg width="100%" height="100%" viewBox="0 0 400 400" version="1.1" xmlns="http://www.w3.org/2000/svg" style="fill-rule:evenodd;clip-rule:evenodd;stroke-linejoin:round;stroke-miterlimit:2;">
<g>
<path d="M152.833,27.682C142,30.636 127.929,29.794 118,36C112.842,39.224 106.651,41.489 101,44C100.74,44.116 96.213,45.88 96,46.071C88.599,52.725 78.477,57.924 70,64C61.599,70.021 53.103,79.43 46.033,87C42.561,90.718 41.528,97.394 37.929,101C37.225,101.705 36.028,101.795 35.367,102.541C32.018,106.316 31.982,112.684 28.633,116.459C27.972,117.205 26.654,117.191 26.071,118C22.955,122.323 21.834,130.958 20,136C18.561,139.956 17.965,144.104 16.667,148C16.343,148.972 14.657,149.028 14.333,150C9.999,163.002 10,183.223 10,195.5C10,215.508 12.516,233.177 18,251C23.445,268.695 33.254,287.358 44.246,302.306C46.898,305.912 50.833,308.374 54,311.538C60.704,318.235 67.089,325.505 74,331.955C78.802,336.436 87.301,337.602 92,342.071C100.965,350.597 116.995,356.306 129,360C131.584,360.795 134.435,360.478 137,361.333C137.972,361.657 138.028,363.343 139,363.667C147.692,366.564 158.997,367.1 168,368C192.077,370.408 216.229,369.988 240,365C247.388,363.45 254.811,360.419 262,358.063C262.262,357.977 268.725,355.41 268.719,355.363C268.093,350.647 242.333,328.307 235,320.974C230.215,316.189 226.564,310.191 221.148,306.136C215.64,302.013 194.519,306 193,306C186.325,306 179.652,305.554 173,305C164.045,304.254 155.289,299.014 147,296C137.637,292.595 129.712,284.694 123,278.033C121.599,276.643 119.082,276.931 117.581,275.65C114.845,273.313 113.886,268.455 110.955,266C100.298,257.074 93.657,240.54 89,227.5C85.575,217.91 85,205.092 85,195.5C85,170.536 93.218,143.422 110.526,125C113.244,122.108 114.704,118.144 117.579,115.408C119.668,113.418 122.961,112.996 125,110.955C133.222,102.724 143.312,97.75 154,93C155.702,92.244 157.534,89.822 159,89.333C169.26,85.913 184.55,85 194.5,85C212.074,85 237.096,89.086 250.499,101.601C254.212,105.067 260.28,106.666 264,110.071C269.46,115.069 273.47,121.62 278.5,127C283.388,132.228 289.43,141.933 292,149C294.368,155.511 296.758,162.169 298,169C298.7,172.85 298.428,176.854 299.308,180.667C299.853,183.028 301.461,182.146 301.722,184.5C302.127,188.145 302,191.832 302,195.5C302,199.168 302.127,202.855 301.722,206.5C301.461,208.854 299.853,207.972 299.308,210.333C298.92,212.014 299.192,213.785 299,215.5C298.756,217.679 298.509,219.868 298,222C297.845,222.648 296.816,223.119 297.032,223.75C298.955,229.374 305.156,234.128 309.026,238C319.713,248.694 330.343,259.438 341,270.159C343.006,272.178 350.893,283.505 356.4,279.571C358.103,278.355 359.919,270.662 361,268.5C365.258,259.984 368.885,251.515 371,242C371.717,238.772 371.448,235.357 372.318,232.167C372.826,230.303 374.276,231.469 374.692,229.667C376.906,220.075 377,204.082 377,196.059C377,187.769 376.994,171.209 374.692,161.323C374.274,159.531 372.826,160.697 372.318,158.833C369.642,149.022 368.548,138.756 365,129C364.116,126.569 362.151,124.802 361,122.5C358.813,118.126 357.135,110.566 353.929,107C345.274,97.374 338.08,85.178 328.593,75.556C320.608,67.457 320.04,67.402 314,63C311.878,61.453 307.781,59.746 306,57.955C304.934,56.883 304.47,55.277 303.321,54.294C299.155,50.727 291.93,50.463 288,46.929C287.259,46.263 287.205,45.028 286.459,44.367C283.462,41.708 278.57,41.324 275,40C269.926,38.118 265.229,34.609 260,33C251.59,30.412 242.512,29.958 234.167,27.682C232.259,27.162 233.418,25.684 231.5,25.3C220.316,23.063 203.312,23 193.5,23M165,199.526L165,226.053L169.474,230.526C171.934,232.987 174.409,235 174.974,235C175.538,235 176,235.465 176,236.033C176,237.125 182.505,244 183.538,244C184.323,244 187,246.677 187,247.462C187,248.25 193.75,255 194.538,255C195.323,255 198,257.677 198,258.462C198,259.291 204.77,266 205.606,266C205.977,266 206.823,266.744 207.488,267.653C210.478,271.742 211,268.07 211,242.941L211,218L260,218L260,215.5C260,214.125 218.158,173 218.158,173L165,173L165,199.526M231,265.045L231,292.091L233.455,294.545C234.805,295.895 319.933,381 319.933,381L377,381L377,354.929C377,329.062 376.632,326 373.526,326C372.738,326 287.793,241.1 287,240C285.619,238.084 231,238 231,238L231,265.045"/>
</g>
</svg>
