<svg version="1.1" width="400" height="400" xmlns="http://www.w3.org/2000/svg">
<g>
<path d="M47.713 146.556 C 33.302 150.492,18.371 161.831,12.809 173.065 C 6.543 185.718,6.549 185.690,6.549 200.000 C 6.549 214.313,6.562 214.369,12.809 226.899 C 23.805 248.958,56.836 261.467,83.250 253.576 C 90.387 251.444,90.491 252.044,81.396 242.896 L 73.792 235.247 67.479 235.754 C 33.703 238.465,16.576 191.937,43.942 171.811 C 69.586 152.953,105.854 175.037,99.268 205.500 L 98.403 209.500 107.039 218.250 C 116.781 228.121,117.012 228.229,118.834 223.750 C 119.561 221.963,120.908 218.715,121.828 216.532 C 124.325 210.606,124.199 189.105,121.630 182.968 C 118.371 175.180,117.569 173.604,114.520 169.000 C 101.838 149.848,72.162 139.878,47.713 146.556 M184.500 146.474 C 180.650 147.147,176.150 148.278,174.500 148.989 C 172.850 149.700,169.925 150.959,168.000 151.787 C 158.049 156.070,142.000 171.869,142.000 177.383 C 142.000 178.089,141.709 178.958,141.353 179.314 C 137.288 183.379,135.515 206.320,138.541 215.715 C 147.086 242.251,166.365 255.578,196.000 255.435 C 209.352 255.371,212.847 254.758,223.000 250.699 C 224.925 249.930,227.963 248.739,229.750 248.052 C 231.537 247.366,233.000 246.508,233.000 246.146 C 233.000 245.784,234.350 244.891,236.000 244.160 L 239.000 242.832 239.000 221.416 L 239.000 200.000 228.000 200.000 L 217.000 200.000 217.000 213.845 C 217.000 229.486,216.975 229.542,209.000 232.072 C 178.555 241.731,150.453 210.351,166.640 184.771 C 167.938 182.721,169.000 180.843,169.000 180.598 C 169.000 180.019,175.018 174.000,175.597 174.000 C 175.840 174.000,177.718 172.963,179.770 171.695 C 192.062 164.098,209.589 166.334,223.328 177.253 C 226.142 179.489,226.163 179.490,227.618 177.500 C 228.422 176.400,229.962 174.484,231.040 173.242 C 232.118 172.001,233.000 170.538,233.000 169.992 C 233.000 169.447,233.390 169.000,233.867 169.000 C 234.344 169.000,235.889 167.255,237.300 165.122 L 239.867 161.245 237.630 159.372 C 224.814 148.644,202.749 143.287,184.500 146.474 M335.000 146.456 C 304.600 153.369,295.775 183.957,319.183 201.275 C 321.209 202.774,323.353 204.000,323.947 204.000 C 324.541 204.000,325.809 204.410,326.764 204.911 C 328.671 205.913,335.018 208.038,342.000 210.015 C 356.997 214.260,361.409 216.679,363.012 221.537 C 367.339 234.648,346.544 238.230,325.029 228.081 C 322.020 226.661,318.951 224.938,318.208 224.250 C 317.465 223.563,316.501 223.000,316.065 223.000 C 315.629 223.000,314.076 221.803,312.613 220.341 C 309.921 217.649,307.145 218.760,307.032 222.574 C 307.014 223.165,305.223 227.083,303.050 231.281 L 299.101 238.913 305.800 243.292 C 309.485 245.701,314.075 248.271,316.000 249.003 C 317.925 249.736,319.968 250.686,320.539 251.115 C 326.427 255.534,354.532 257.058,366.042 253.584 C 392.472 245.605,399.446 213.759,378.014 198.915 C 373.111 195.519,370.043 194.000,368.086 194.000 C 367.159 194.000,365.915 193.515,365.322 192.922 C 364.730 192.330,362.727 191.470,360.872 191.013 C 338.394 185.467,331.736 181.032,333.542 172.809 C 334.772 167.207,346.030 165.210,358.324 168.412 C 363.499 169.760,364.592 170.185,369.736 172.844 C 370.966 173.480,372.599 174.000,373.364 174.000 C 374.129 174.000,375.315 174.675,376.000 175.500 C 378.281 178.249,380.752 177.239,382.678 172.771 C 383.680 170.446,385.726 166.110,387.226 163.136 C 390.124 157.386,390.057 156.421,386.653 154.941 C 385.469 154.426,383.825 153.606,383.000 153.118 C 371.937 146.580,348.660 143.349,335.000 146.456 M260.000 200.500 L 260.000 255.000 272.500 255.000 L 285.000 255.000 285.000 200.500 L 285.000 146.000 272.500 146.000 L 260.000 146.000 260.000 200.500 M56.000 201.419 L 56.000 209.838 62.679 216.419 C 71.033 224.650,71.000 224.656,71.000 215.000 L 71.000 207.000 78.500 207.000 C 87.534 207.000,87.485 207.288,79.807 199.379 L 73.614 193.000 64.807 193.000 L 56.000 193.000 56.000 201.419 M77.000 222.356 L 77.000 230.712 91.644 245.356 L 106.288 260.000 115.144 260.000 L 124.000 260.000 124.000 251.590 L 124.000 243.181 109.573 228.590 L 95.145 214.000 86.073 214.000 L 77.000 214.000 77.000 222.356 " stroke="none" fill-rule="evenodd"></path>
</g>
</svg>