<svg id="svg" version="1.1" width="515" height="515" xmlns="http://www.w3.org/2000/svg" xmlns:xlink="http://www.w3.org/1999/xlink" style="display: block;"><g id="svgg"><path id="path0" d="M218.000 13.846 C 218.000 14.312,212.488 14.989,205.750 15.351 C 199.012 15.713,193.350 16.457,193.167 17.005 C 192.983 17.552,191.071 18.000,188.917 18.000 C 186.762 18.000,185.000 18.450,185.000 19.000 C 185.000 19.550,183.425 20.000,181.500 20.000 C 179.575 20.000,178.000 20.407,178.000 20.905 C 178.000 21.403,176.131 21.559,173.847 21.253 C 170.856 20.851,169.893 21.018,170.406 21.848 C 170.873 22.603,170.236 23.000,168.559 23.000 C 167.152 23.000,166.000 23.502,166.000 24.117 C 166.000 24.752,165.112 25.001,163.939 24.694 C 162.738 24.380,161.669 24.698,161.378 25.457 C 161.103 26.173,158.656 27.053,155.939 27.414 C 153.223 27.774,151.000 28.503,151.000 29.034 C 151.000 29.565,150.100 30.000,149.000 30.000 C 147.900 30.000,147.000 30.450,147.000 31.000 C 147.000 31.550,146.100 32.000,145.000 32.000 C 143.900 32.000,143.000 32.505,143.000 33.122 C 143.000 33.946,142.636 33.943,141.633 33.110 C 140.593 32.247,139.965 32.337,139.010 33.488 C 138.320 34.319,137.135 35.000,136.378 35.000 C 135.620 35.000,135.000 35.450,135.000 36.000 C 135.000 36.550,134.100 37.000,133.000 37.000 C 131.900 37.000,131.000 37.414,131.000 37.921 C 131.000 38.427,129.737 39.118,128.194 39.457 C 126.651 39.796,124.752 40.957,123.973 42.037 C 123.195 43.117,121.758 44.000,120.779 44.000 C 119.801 44.000,119.000 44.477,119.000 45.059 C 119.000 45.641,118.618 45.882,118.151 45.594 C 117.685 45.305,116.354 45.954,115.193 47.035 C 114.033 48.116,112.615 49.000,112.042 49.000 C 111.469 49.000,111.000 49.450,111.000 50.000 C 111.000 50.550,110.086 51.000,108.969 51.000 C 107.851 51.000,106.678 51.675,106.362 52.500 C 106.045 53.325,105.041 54.000,104.130 54.000 C 103.220 54.000,101.630 55.125,100.597 56.500 C 99.565 57.875,97.913 59.000,96.927 59.000 C 95.941 59.000,94.856 59.877,94.516 60.949 C 94.176 62.021,92.908 63.204,91.699 63.579 C 90.489 63.954,86.910 66.902,83.745 70.130 C 80.579 73.359,77.536 76.000,76.981 76.000 C 75.691 76.000,66.000 85.708,66.000 87.001 C 66.000 87.537,63.300 90.651,60.000 93.920 C 56.700 97.190,54.000 100.345,54.000 100.932 C 54.000 101.520,53.580 102.000,53.067 102.000 C 52.554 102.000,51.856 102.877,51.516 103.949 C 51.176 105.021,50.021 106.176,48.949 106.516 C 47.877 106.856,47.000 107.956,47.000 108.960 C 47.000 109.964,46.325 111.045,45.500 111.362 C 44.675 111.678,44.000 112.752,44.000 113.748 C 44.000 114.744,43.100 116.207,42.000 117.000 C 40.900 117.793,40.000 119.000,40.000 119.682 C 40.000 120.364,39.015 121.840,37.811 122.961 C 36.608 124.082,36.002 125.000,36.464 125.000 C 36.927 125.000,36.296 125.876,35.061 126.947 C 33.827 128.018,33.109 129.368,33.467 129.947 C 33.825 130.526,33.641 131.000,33.059 131.000 C 32.477 131.000,32.000 131.900,32.000 133.000 C 32.000 134.100,31.550 135.000,31.000 135.000 C 30.450 135.000,30.000 135.675,30.000 136.500 C 30.000 137.325,29.600 138.000,29.111 138.000 C 28.623 138.000,27.927 139.575,27.566 141.500 C 27.205 143.425,26.480 145.000,25.955 145.000 C 25.430 145.000,25.000 145.900,25.000 147.000 C 25.000 148.100,24.550 149.000,24.000 149.000 C 23.450 149.000,23.000 149.637,23.000 150.417 C 23.000 151.196,22.521 151.993,21.935 152.188 C 21.350 152.383,20.616 154.446,20.304 156.772 C 19.992 159.097,19.346 161.000,18.868 161.000 C 18.391 161.000,18.000 161.675,18.000 162.500 C 18.000 163.325,17.592 164.000,17.094 164.000 C 16.595 164.000,15.878 166.250,15.500 169.000 C 15.122 171.750,14.405 174.000,13.906 174.000 C 13.408 174.000,13.000 175.125,13.000 176.500 C 13.000 177.875,12.550 179.000,12.000 179.000 C 11.450 179.000,11.000 180.350,11.000 182.000 C 11.000 183.650,10.577 185.000,10.061 185.000 C 9.544 185.000,8.811 188.150,8.431 192.000 C 8.052 195.850,7.350 199.000,6.871 199.000 C 6.392 199.000,6.000 201.213,6.000 203.917 C 6.000 206.621,5.523 208.992,4.940 209.187 C 4.282 209.406,3.654 215.885,3.286 226.270 C 2.960 235.472,2.312 243.000,1.847 243.000 C 0.745 243.000,0.739 254.721,1.841 255.402 C 2.304 255.688,2.976 263.701,3.335 273.209 C 3.717 283.320,4.405 290.635,4.994 290.831 C 5.547 291.016,6.000 292.929,6.000 295.083 C 6.000 297.238,6.450 299.000,7.000 299.000 C 7.550 299.000,8.000 300.575,8.000 302.500 C 8.000 304.425,8.360 306.000,8.799 306.000 C 9.239 306.000,9.415 307.575,9.190 309.500 C 8.940 311.642,9.212 313.000,9.891 313.000 C 10.501 313.000,11.000 314.350,11.000 316.000 C 11.000 317.650,11.450 319.000,12.000 319.000 C 12.550 319.000,13.000 320.350,13.000 322.000 C 13.000 323.650,13.422 325.000,13.939 325.000 C 14.455 325.000,15.181 327.025,15.552 329.500 C 15.923 331.975,16.626 334.000,17.114 334.000 C 17.601 334.000,18.000 335.125,18.000 336.500 C 18.000 337.875,18.450 339.000,19.000 339.000 C 19.550 339.000,20.000 339.675,20.000 340.500 C 20.000 341.325,20.408 342.000,20.906 342.000 C 21.405 342.000,21.577 342.900,21.290 344.000 C 20.997 345.118,21.259 346.000,21.883 346.000 C 22.498 346.000,23.000 347.125,23.000 348.500 C 23.000 349.875,23.450 351.000,24.000 351.000 C 24.550 351.000,25.000 351.675,25.000 352.500 C 25.000 353.325,25.450 354.000,26.000 354.000 C 26.550 354.000,27.000 354.845,27.000 355.878 C 27.000 356.910,27.675 358.315,28.500 359.000 C 29.325 359.685,30.000 360.865,30.000 361.622 C 30.000 362.380,30.450 363.000,31.000 363.000 C 31.550 363.000,32.000 363.675,32.000 364.500 C 32.000 365.325,32.480 366.000,33.067 366.000 C 33.680 366.000,33.864 366.853,33.500 368.000 C 33.136 369.147,33.320 370.000,33.933 370.000 C 34.520 370.000,35.000 370.510,35.000 371.133 C 35.000 371.756,35.836 372.993,36.857 373.883 C 37.878 374.772,39.034 376.512,39.424 377.750 C 39.815 378.987,40.554 380.000,41.067 380.000 C 41.580 380.000,42.000 380.870,42.000 381.933 C 42.000 382.996,42.900 384.151,44.000 384.500 C 45.100 384.849,46.000 385.800,46.000 386.613 C 46.000 387.426,47.125 389.216,48.500 390.591 C 49.875 391.966,51.000 393.643,51.000 394.318 C 51.000 394.993,52.800 397.100,55.000 399.000 C 57.200 400.900,59.000 403.146,59.000 403.990 C 59.000 404.834,60.117 406.364,61.481 407.389 C 62.846 408.413,63.719 409.645,63.422 410.126 C 63.125 410.607,63.382 411.000,63.993 411.000 C 64.605 411.000,68.921 414.825,73.586 419.500 C 78.250 424.175,82.532 428.000,83.100 428.000 C 83.669 428.000,85.620 429.575,87.435 431.500 C 89.251 433.425,91.462 435.000,92.349 435.000 C 93.236 435.000,94.240 436.110,94.581 437.467 C 94.921 438.823,95.493 439.895,95.850 439.848 C 98.726 439.472,100.962 440.306,101.484 441.949 C 101.824 443.021,103.092 444.210,104.301 444.592 C 105.511 444.974,107.228 446.122,108.117 447.143 C 109.007 448.164,110.271 449.000,110.926 449.000 C 111.582 449.000,111.840 449.450,111.500 450.000 C 111.151 450.564,111.966 451.000,113.370 451.000 C 114.738 451.000,116.532 451.675,117.357 452.500 C 118.182 453.325,119.339 454.000,119.929 454.000 C 120.518 454.000,121.000 454.400,121.000 454.889 C 121.000 455.377,122.575 456.073,124.500 456.434 C 126.425 456.795,128.000 457.520,128.000 458.045 C 128.000 458.570,128.675 459.000,129.500 459.000 C 130.325 459.000,131.000 459.450,131.000 460.000 C 131.000 460.550,131.900 461.000,133.000 461.000 C 134.100 461.000,135.000 461.430,135.000 461.955 C 135.000 462.480,136.575 463.205,138.500 463.566 C 140.425 463.927,142.000 464.623,142.000 465.111 C 142.000 465.600,142.675 466.000,143.500 466.000 C 144.325 466.000,145.000 466.399,145.000 466.886 C 145.000 467.374,147.025 468.077,149.500 468.448 C 151.975 468.819,154.000 469.545,154.000 470.061 C 154.000 470.578,155.125 471.000,156.500 471.000 C 157.875 471.000,159.000 471.450,159.000 472.000 C 159.000 472.550,160.125 473.000,161.500 473.000 C 162.875 473.000,164.000 473.428,164.000 473.950 C 164.000 474.473,166.700 475.206,170.000 475.580 C 173.300 475.953,176.000 476.650,176.000 477.129 C 176.000 477.608,177.125 478.000,178.500 478.000 C 179.875 478.000,181.000 478.450,181.000 479.000 C 181.000 479.550,183.052 480.000,185.559 480.000 C 188.700 480.000,189.900 480.352,189.418 481.133 C 188.909 481.956,190.261 482.073,194.359 481.561 C 198.144 481.088,200.000 481.209,200.000 481.928 C 200.000 482.572,202.398 483.000,206.000 483.000 C 209.333 483.000,212.000 483.444,212.000 484.000 C 212.000 484.642,221.500 485.000,238.500 485.000 C 255.500 485.000,265.000 484.642,265.000 484.000 C 265.000 483.450,267.250 483.000,270.000 483.000 C 272.890 483.000,275.000 482.548,275.000 481.928 C 275.000 481.212,276.827 481.084,280.500 481.543 C 284.209 482.007,286.000 481.877,286.000 481.146 C 286.000 480.537,287.620 480.122,289.694 480.200 C 291.739 480.277,293.561 479.817,293.777 479.169 C 293.991 478.526,295.479 478.000,297.083 478.000 C 298.688 478.000,300.000 477.602,300.000 477.115 C 300.000 476.629,302.468 475.922,305.484 475.545 C 308.501 475.168,311.227 474.442,311.543 473.930 C 311.859 473.419,313.216 473.000,314.559 473.000 C 315.902 473.000,317.000 472.550,317.000 472.000 C 317.000 471.450,318.088 471.000,319.417 471.000 C 320.746 471.000,321.998 470.505,322.200 469.901 C 322.401 469.296,324.107 468.680,325.989 468.532 C 327.872 468.384,329.582 467.754,329.789 467.132 C 329.997 466.509,331.029 466.000,332.083 466.000 C 333.137 466.000,334.000 465.570,334.000 465.045 C 334.000 464.520,335.575 463.795,337.500 463.434 C 339.425 463.073,341.000 462.377,341.000 461.889 C 341.000 461.400,341.675 461.000,342.500 461.000 C 343.325 461.000,344.000 460.550,344.000 460.000 C 344.000 459.450,344.900 459.000,346.000 459.000 C 347.100 459.000,348.000 458.586,348.000 458.079 C 348.000 457.573,349.350 456.862,351.000 456.500 C 352.650 456.138,354.000 455.427,354.000 454.921 C 354.000 454.414,354.900 454.000,356.000 454.000 C 357.100 454.000,358.000 453.559,358.000 453.019 C 358.000 452.480,359.125 451.756,360.500 451.411 C 361.875 451.066,363.000 450.382,363.000 449.892 C 363.000 449.401,363.576 449.000,364.279 449.000 C 364.983 449.000,366.207 448.100,367.000 447.000 C 367.793 445.900,369.115 445.000,369.939 445.000 C 370.762 445.000,372.398 443.881,373.572 442.514 C 376.944 438.590,383.605 438.578,384.588 442.493 C 384.932 443.864,385.586 444.756,386.042 444.474 C 386.982 443.893,392.000 448.585,392.000 450.045 C 392.000 450.570,392.800 451.000,393.778 451.000 C 395.637 451.000,399.000 454.265,399.000 456.070 C 399.000 456.647,399.414 456.862,399.919 456.550 C 400.425 456.237,401.518 456.661,402.348 457.491 C 403.178 458.321,404.131 459.000,404.466 459.000 C 404.801 459.000,407.043 461.025,409.448 463.500 C 411.854 465.975,414.243 468.000,414.758 468.000 C 416.137 468.000,419.511 471.169,420.878 473.750 C 421.621 475.152,422.999 476.000,424.535 476.000 C 425.891 476.000,427.000 476.409,427.000 476.908 C 427.000 478.253,435.736 487.000,437.080 487.000 C 437.715 487.000,439.981 488.800,442.116 491.000 C 444.251 493.200,446.508 495.000,447.132 495.000 C 448.418 495.000,452.000 498.835,452.000 500.212 C 452.000 500.710,452.368 500.891,452.818 500.613 C 453.268 500.335,454.267 500.983,455.039 502.054 C 457.446 505.394,466.000 501.330,466.000 496.846 C 466.000 496.249,468.025 493.820,470.500 491.448 C 472.975 489.077,475.000 486.677,475.000 486.114 C 475.000 484.859,479.751 480.000,480.978 480.000 C 481.466 480.000,482.174 479.026,482.552 477.835 C 482.930 476.644,484.311 474.598,485.620 473.289 C 486.929 471.980,488.000 470.405,488.000 469.788 C 488.000 469.171,488.273 468.939,488.606 469.273 C 488.939 469.606,490.337 468.754,491.712 467.379 C 493.087 466.004,493.964 464.631,493.661 464.327 C 493.358 464.024,495.110 461.804,497.555 459.394 C 500.000 456.984,502.000 454.342,502.000 453.525 C 502.000 452.707,503.073 451.769,504.386 451.439 C 507.965 450.541,506.767 448.060,498.747 439.768 C 494.880 435.771,492.032 433.063,492.418 433.750 C 493.548 435.768,492.284 435.193,489.526 432.435 C 488.116 431.025,487.222 429.450,487.540 428.935 C 487.858 428.421,487.434 428.000,486.598 428.000 C 485.762 428.000,484.160 427.015,483.039 425.811 C 481.918 424.608,481.000 423.994,481.000 424.447 C 481.000 424.901,478.725 422.960,475.945 420.136 C 473.164 417.311,470.464 415.000,469.945 415.000 C 469.425 415.000,466.300 412.300,463.000 409.000 C 459.700 405.700,456.490 403.000,455.867 403.000 C 454.681 403.000,451.814 400.067,449.270 396.250 C 448.445 395.013,447.147 394.000,446.385 394.000 C 445.623 394.000,445.000 393.599,445.000 393.108 C 445.000 392.618,443.905 391.942,442.567 391.606 C 441.228 391.270,439.848 390.096,439.499 388.998 C 439.151 387.899,438.446 387.000,437.933 387.000 C 437.420 387.000,437.000 386.325,437.000 385.500 C 437.000 384.675,436.663 384.053,436.250 384.118 C 432.564 384.700,431.745 381.346,435.000 379.000 C 436.100 378.207,437.000 376.983,437.000 376.279 C 437.000 375.576,437.441 375.000,437.981 375.000 C 438.520 375.000,439.244 373.875,439.589 372.500 C 439.934 371.125,440.618 370.000,441.108 370.000 C 441.599 370.000,442.000 369.100,442.000 368.000 C 442.000 366.900,442.401 366.000,442.892 366.000 C 443.382 366.000,444.066 364.875,444.411 363.500 C 444.756 362.125,445.480 361.000,446.019 361.000 C 446.559 361.000,447.000 360.325,447.000 359.500 C 447.000 358.675,447.450 358.000,448.000 358.000 C 448.550 358.000,449.000 357.100,449.000 356.000 C 449.000 354.900,449.414 354.000,449.921 354.000 C 450.427 354.000,451.136 352.655,451.497 351.011 C 451.858 349.368,452.569 347.766,453.077 347.452 C 453.585 347.139,454.000 345.784,454.000 344.441 C 454.000 343.098,454.445 342.000,454.988 342.000 C 455.532 342.000,456.264 340.200,456.616 338.000 C 456.968 335.800,457.648 334.000,458.128 334.000 C 458.608 334.000,459.000 333.100,459.000 332.000 C 459.000 330.900,459.450 330.000,460.000 330.000 C 460.550 330.000,461.000 328.875,461.000 327.500 C 461.000 326.125,461.428 325.000,461.950 325.000 C 462.473 325.000,463.206 322.300,463.580 319.000 C 463.953 315.700,464.650 313.000,465.129 313.000 C 465.608 313.000,466.000 311.875,466.000 310.500 C 466.000 309.125,466.450 308.000,467.000 308.000 C 467.550 308.000,468.000 306.227,468.000 304.059 C 468.000 301.891,468.482 299.820,469.071 299.456 C 469.728 299.050,469.887 297.291,469.483 294.897 C 469.053 292.352,469.202 291.000,469.912 291.000 C 470.551 291.000,471.000 288.936,471.000 286.000 C 471.000 283.250,471.450 281.000,472.000 281.000 C 472.600 281.000,473.000 277.000,473.000 271.000 C 473.000 265.000,473.400 261.000,474.000 261.000 C 474.611 261.000,475.000 256.333,475.000 249.000 C 475.000 241.667,474.611 237.000,474.000 237.000 C 473.400 237.000,473.000 233.000,473.000 227.000 C 473.000 221.000,472.600 217.000,472.000 217.000 C 471.450 217.000,471.000 214.750,471.000 212.000 C 471.000 208.956,470.559 207.000,469.872 207.000 C 469.119 207.000,468.954 205.690,469.374 203.060 C 469.737 200.793,469.579 198.858,469.002 198.501 C 468.451 198.161,468.000 196.307,468.000 194.382 C 468.000 192.303,467.594 191.133,467.000 191.500 C 466.405 191.868,466.000 190.677,466.000 188.559 C 466.000 186.602,465.608 185.000,465.129 185.000 C 464.650 185.000,463.953 182.300,463.580 179.000 C 463.206 175.700,462.473 173.000,461.950 173.000 C 461.428 173.000,461.000 172.100,461.000 171.000 C 461.000 169.900,460.550 169.000,460.000 169.000 C 459.450 169.000,459.000 167.875,459.000 166.500 C 459.000 165.125,458.601 164.000,458.114 164.000 C 457.626 164.000,456.923 161.975,456.552 159.500 C 456.181 157.025,455.455 155.000,454.939 155.000 C 454.422 155.000,454.000 154.325,454.000 153.500 C 454.000 152.675,453.555 152.000,453.012 152.000 C 452.468 152.000,451.736 150.200,451.384 148.000 C 451.032 145.800,450.352 144.000,449.872 144.000 C 449.392 144.000,449.000 143.100,449.000 142.000 C 449.000 140.900,448.523 140.000,447.941 140.000 C 447.359 140.000,447.160 139.550,447.500 139.000 C 447.840 138.450,447.437 138.000,446.604 138.000 C 445.666 138.000,444.841 136.669,444.434 134.500 C 444.073 132.575,443.377 131.000,442.889 131.000 C 442.400 131.000,442.000 130.325,442.000 129.500 C 442.000 128.675,441.559 128.000,441.019 128.000 C 440.480 128.000,439.756 126.875,439.411 125.500 C 439.066 124.125,438.382 123.000,437.892 123.000 C 437.401 123.000,437.000 122.130,437.000 121.067 C 437.000 120.004,436.154 118.866,435.119 118.538 C 434.076 118.207,432.981 116.654,432.660 115.051 C 432.319 113.345,431.246 111.895,430.041 111.513 C 428.918 111.157,428.000 110.059,428.000 109.073 C 428.000 108.087,426.875 106.435,425.500 105.403 C 424.125 104.370,423.000 103.051,423.000 102.471 C 423.000 101.486,418.119 96.124,414.571 93.211 C 413.707 92.501,413.000 91.069,413.000 90.028 C 413.000 88.987,412.123 87.856,411.051 87.516 C 409.979 87.176,408.831 86.044,408.500 85.000 C 408.169 83.956,407.021 82.824,405.949 82.484 C 404.877 82.144,404.000 81.466,404.000 80.978 C 404.000 79.742,399.136 75.000,397.868 75.000 C 397.295 75.000,394.410 72.525,391.457 69.500 C 388.504 66.475,385.638 64.000,385.089 64.000 C 384.540 64.000,382.966 62.875,381.591 61.500 C 380.216 60.125,378.641 59.000,378.091 59.000 C 377.541 59.000,375.966 57.875,374.591 56.500 C 373.216 55.125,371.620 54.000,371.045 54.000 C 370.470 54.000,370.000 53.559,370.000 53.019 C 370.000 52.480,368.918 51.766,367.594 51.434 C 366.271 51.102,364.976 50.018,364.716 49.024 C 364.405 47.833,362.899 46.990,360.301 46.551 C 358.133 46.185,355.728 45.011,354.958 43.942 C 354.188 42.874,352.956 42.000,352.220 42.000 C 351.484 42.000,351.135 41.590,351.445 41.089 C 351.755 40.587,350.207 39.873,348.004 39.501 C 345.802 39.129,344.000 38.414,344.000 37.912 C 344.000 37.410,343.325 37.000,342.500 37.000 C 341.675 37.000,341.000 36.550,341.000 36.000 C 341.000 35.450,340.100 35.000,339.000 35.000 C 337.900 35.000,337.000 34.501,337.000 33.892 C 337.000 33.209,336.040 33.024,334.500 33.411 C 333.058 33.772,332.000 33.607,332.000 33.019 C 332.000 32.459,331.325 32.000,330.500 32.000 C 329.675 32.000,329.000 31.550,329.000 31.000 C 329.000 30.450,328.100 30.000,327.000 30.000 C 325.900 30.000,325.000 29.592,325.000 29.094 C 325.000 28.595,322.750 27.878,320.000 27.500 C 317.250 27.122,315.000 26.405,315.000 25.906 C 315.000 25.408,313.875 25.000,312.500 25.000 C 311.125 25.000,310.000 24.550,310.000 24.000 C 310.000 23.450,308.875 23.000,307.500 23.000 C 306.125 23.000,305.000 22.491,305.000 21.869 C 305.000 21.135,303.771 20.938,301.500 21.306 C 299.575 21.619,298.000 21.453,298.000 20.937 C 298.000 20.422,296.425 20.000,294.500 20.000 C 292.575 20.000,291.000 19.550,291.000 19.000 C 291.000 18.450,289.012 18.000,286.583 18.000 C 284.154 18.000,282.013 17.539,281.825 16.976 C 281.635 16.405,276.290 15.674,269.742 15.323 C 263.284 14.977,258.000 14.313,258.000 13.847 C 258.000 13.381,249.000 13.000,238.000 13.000 C 227.000 13.000,218.000 13.381,218.000 13.846 M262.000 108.150 C 262.000 108.617,263.800 109.000,266.000 109.000 C 268.200 109.000,270.000 109.406,270.000 109.902 C 270.000 110.398,272.700 111.117,276.000 111.500 C 279.300 111.883,282.000 112.602,282.000 113.098 C 282.000 113.594,283.350 114.000,285.000 114.000 C 286.650 114.000,288.000 114.450,288.000 115.000 C 288.000 115.550,288.675 116.000,289.500 116.000 C 290.325 116.000,291.000 116.502,291.000 117.117 C 291.000 117.768,292.041 118.034,293.500 117.755 C 294.875 117.492,296.000 117.665,296.000 118.139 C 296.000 118.612,296.900 119.000,298.000 119.000 C 299.100 119.000,300.000 119.450,300.000 120.000 C 300.000 120.550,300.675 121.000,301.500 121.000 C 302.325 121.000,303.000 121.401,303.000 121.892 C 303.000 122.382,304.125 123.066,305.500 123.411 C 306.875 123.756,308.000 124.480,308.000 125.019 C 308.000 125.559,308.900 126.000,310.000 126.000 C 311.100 126.000,312.000 126.450,312.000 127.000 C 312.000 127.550,312.675 128.000,313.500 128.000 C 314.325 128.000,315.000 128.420,315.000 128.933 C 315.000 129.446,315.974 130.174,317.165 130.552 C 318.356 130.930,320.402 132.311,321.711 133.620 C 323.020 134.929,324.505 136.000,325.012 136.000 C 326.254 136.000,351.000 161.023,351.000 162.279 C 351.000 162.824,352.125 164.313,353.500 165.588 C 354.875 166.862,356.000 168.571,356.000 169.385 C 356.000 170.199,356.853 171.136,357.895 171.467 C 359.069 171.839,360.038 173.386,360.440 175.534 C 360.798 177.440,361.520 179.000,362.045 179.000 C 362.570 179.000,363.000 179.900,363.000 181.000 C 363.000 182.100,363.450 183.000,364.000 183.000 C 364.550 183.000,365.000 183.675,365.000 184.500 C 365.000 185.325,365.400 186.000,365.889 186.000 C 366.377 186.000,367.073 187.575,367.434 189.500 C 367.795 191.425,368.520 193.000,369.045 193.000 C 369.570 193.000,370.000 193.900,370.000 195.000 C 370.000 196.100,370.408 197.000,370.906 197.000 C 371.405 197.000,372.122 199.250,372.500 202.000 C 372.878 204.750,373.595 207.000,374.094 207.000 C 374.592 207.000,375.000 208.125,375.000 209.500 C 375.000 210.875,375.450 212.000,376.000 212.000 C 376.550 212.000,377.000 213.537,377.000 215.417 C 377.000 217.296,377.563 219.021,378.250 219.250 C 379.212 219.571,379.500 226.422,379.500 249.000 C 379.500 271.578,379.212 278.429,378.250 278.750 C 377.563 278.979,377.000 280.704,377.000 282.583 C 377.000 284.462,376.550 286.000,376.000 286.000 C 375.450 286.000,375.000 287.125,375.000 288.500 C 375.000 289.875,374.592 291.000,374.094 291.000 C 373.595 291.000,372.878 293.250,372.500 296.000 C 372.122 298.750,371.405 301.000,370.906 301.000 C 370.408 301.000,370.000 301.900,370.000 303.000 C 370.000 304.100,369.608 305.000,369.128 305.000 C 368.648 305.000,367.968 306.800,367.616 309.000 C 367.264 311.200,366.532 313.000,365.988 313.000 C 365.445 313.000,365.000 313.792,365.000 314.759 C 365.000 315.727,364.140 317.056,363.090 317.712 C 362.039 318.368,360.898 320.189,360.553 321.758 C 360.208 323.327,359.043 325.248,357.963 326.027 C 356.883 326.805,356.000 327.962,356.000 328.598 C 356.000 329.235,355.325 330.315,354.500 331.000 C 353.675 331.685,353.000 333.059,353.000 334.055 C 353.000 335.051,352.123 336.144,351.051 336.484 C 349.979 336.824,348.824 337.979,348.484 339.051 C 348.144 340.123,347.446 341.000,346.933 341.000 C 346.420 341.000,346.000 341.448,346.000 341.997 C 346.000 343.686,333.471 356.000,331.753 356.000 C 330.863 356.000,329.856 356.877,329.516 357.949 C 329.176 359.021,328.044 360.169,327.000 360.500 C 325.956 360.831,324.824 361.979,324.484 363.051 C 324.144 364.123,322.996 365.000,321.933 365.000 C 320.870 365.000,320.000 365.420,320.000 365.933 C 320.000 366.446,318.988 367.185,317.750 367.576 C 316.512 367.966,314.773 369.121,313.884 370.141 C 312.996 371.161,310.858 372.278,309.134 372.623 C 307.410 372.968,306.000 373.644,306.000 374.125 C 306.000 374.606,305.325 375.000,304.500 375.000 C 303.675 375.000,303.000 375.450,303.000 376.000 C 303.000 376.550,302.325 377.000,301.500 377.000 C 300.675 377.000,300.000 377.400,300.000 377.889 C 300.000 378.377,298.425 379.073,296.500 379.434 C 294.575 379.795,293.000 380.520,293.000 381.045 C 293.000 381.570,291.875 382.000,290.500 382.000 C 289.125 382.000,288.000 382.422,288.000 382.939 C 288.000 383.455,285.975 384.181,283.500 384.552 C 281.025 384.923,279.000 385.626,279.000 386.114 C 279.000 386.601,277.425 387.000,275.500 387.000 C 273.575 387.000,272.000 387.450,272.000 388.000 C 272.000 388.550,270.238 389.000,268.083 389.000 C 265.839 389.000,263.989 389.534,263.750 390.250 C 263.431 391.206,257.378 391.500,238.000 391.500 C 218.622 391.500,212.569 391.206,212.250 390.250 C 212.001 389.502,210.061 389.000,207.417 389.000 C 204.988 389.000,203.000 388.550,203.000 388.000 C 203.000 387.450,201.875 387.000,200.500 387.000 C 199.125 387.000,198.000 386.609,198.000 386.130 C 198.000 385.652,195.877 385.021,193.283 384.728 C 190.688 384.436,188.401 383.702,188.199 383.098 C 187.998 382.494,186.746 382.000,185.417 382.000 C 184.088 382.000,183.000 381.600,183.000 381.111 C 183.000 380.623,181.425 379.927,179.500 379.566 C 177.575 379.205,176.000 378.480,176.000 377.955 C 176.000 377.430,175.325 377.000,174.500 377.000 C 173.675 377.000,173.000 376.550,173.000 376.000 C 173.000 375.450,172.100 375.000,171.000 375.000 C 169.900 375.000,169.000 374.586,169.000 374.079 C 169.000 373.573,167.538 372.838,165.750 372.445 C 163.963 372.053,161.948 370.943,161.273 369.980 C 160.599 369.017,158.941 367.951,157.590 367.612 C 156.239 367.273,154.848 366.096,154.499 364.998 C 154.151 363.899,153.161 363.000,152.301 363.000 C 151.440 363.000,149.251 361.425,147.435 359.500 C 145.620 357.575,143.674 356.000,143.111 356.000 C 141.633 356.000,131.000 345.237,131.000 343.741 C 131.000 343.048,129.435 341.135,127.522 339.490 C 125.608 337.846,124.033 335.958,124.022 335.295 C 124.010 334.633,122.929 333.020,121.620 331.711 C 120.311 330.402,118.930 328.356,118.552 327.165 C 118.174 325.974,117.446 325.000,116.933 325.000 C 116.420 325.000,116.000 324.325,116.000 323.500 C 116.000 322.675,115.550 322.000,115.000 322.000 C 114.450 322.000,114.000 321.100,114.000 320.000 C 114.000 318.900,113.599 318.000,113.108 318.000 C 112.618 318.000,111.934 316.875,111.589 315.500 C 111.244 314.125,110.520 313.000,109.981 313.000 C 109.441 313.000,109.000 311.875,109.000 310.500 C 109.000 309.125,108.570 308.000,108.045 308.000 C 107.520 308.000,106.795 306.425,106.434 304.500 C 106.073 302.575,105.377 301.000,104.889 301.000 C 104.400 301.000,104.000 299.875,104.000 298.500 C 104.000 297.125,103.550 296.000,103.000 296.000 C 102.450 296.000,102.000 294.913,102.000 293.583 C 102.000 292.254,101.543 291.014,100.985 290.828 C 100.427 290.642,99.687 287.455,99.341 283.745 C 98.994 280.035,98.326 277.000,97.855 277.000 C 97.385 277.000,97.000 275.200,97.000 273.000 C 97.000 270.800,96.550 269.000,96.000 269.000 C 95.368 269.000,95.000 262.000,95.000 250.000 C 95.000 238.000,95.368 231.000,96.000 231.000 C 96.550 231.000,97.000 228.750,97.000 226.000 C 97.000 223.250,97.404 221.000,97.899 221.000 C 98.393 221.000,99.113 217.850,99.500 214.000 C 99.887 210.150,100.607 207.000,101.101 207.000 C 101.596 207.000,102.000 205.875,102.000 204.500 C 102.000 203.125,102.450 202.000,103.000 202.000 C 103.550 202.000,104.000 201.100,104.000 200.000 C 104.000 198.900,104.392 198.000,104.872 198.000 C 105.352 198.000,106.032 196.200,106.384 194.000 C 106.736 191.800,107.468 190.000,108.012 190.000 C 108.555 190.000,109.000 189.100,109.000 188.000 C 109.000 186.900,109.430 186.000,109.955 186.000 C 110.480 186.000,111.205 184.425,111.566 182.500 C 111.927 180.575,112.623 179.000,113.111 179.000 C 113.600 179.000,114.000 178.490,114.000 177.867 C 114.000 177.244,114.836 176.007,115.857 175.117 C 116.878 174.228,118.034 172.488,118.424 171.250 C 118.815 170.012,119.554 169.000,120.067 169.000 C 120.580 169.000,121.000 168.531,121.000 167.958 C 121.000 166.977,121.782 165.846,124.750 162.537 C 125.437 161.770,126.000 160.864,126.000 160.524 C 126.000 159.743,133.315 152.084,142.888 142.840 C 145.700 140.126,148.000 137.532,148.000 137.077 C 148.000 136.622,149.314 135.987,150.920 135.666 C 152.653 135.319,154.102 134.253,154.487 133.041 C 154.843 131.918,155.949 131.000,156.945 131.000 C 157.941 131.000,159.315 130.325,160.000 129.500 C 160.685 128.675,161.865 128.000,162.622 128.000 C 163.380 128.000,164.000 127.550,164.000 127.000 C 164.000 126.450,164.482 126.000,165.071 126.000 C 165.661 126.000,166.818 125.325,167.643 124.500 C 168.468 123.675,170.011 123.000,171.071 123.000 C 172.132 123.000,173.000 122.550,173.000 122.000 C 173.000 121.450,173.675 121.000,174.500 121.000 C 175.325 121.000,176.000 120.550,176.000 120.000 C 176.000 119.450,176.897 119.000,177.993 119.000 C 180.458 119.000,188.000 115.807,188.000 114.764 C 188.000 114.344,189.125 114.000,190.500 114.000 C 191.875 114.000,193.000 113.596,193.000 113.101 C 193.000 112.607,196.150 111.887,200.000 111.500 C 203.850 111.113,207.000 110.393,207.000 109.899 C 207.000 109.404,208.800 109.000,211.000 109.000 C 213.200 109.000,215.000 108.550,215.000 108.000 C 215.000 107.429,218.000 107.000,222.000 107.000 C 225.850 107.000,228.999 106.662,228.998 106.250 C 228.997 105.838,236.422 105.905,245.498 106.400 C 254.574 106.894,262.000 107.682,262.000 108.150 M226.000 156.000 C 226.000 156.550,223.525 157.000,220.500 157.000 C 217.475 157.000,215.000 157.450,215.000 158.000 C 215.000 158.550,213.650 159.000,212.000 159.000 C 210.350 159.000,209.000 159.422,209.000 159.939 C 209.000 160.455,206.975 161.181,204.500 161.552 C 202.025 161.923,200.000 162.626,200.000 163.114 C 200.000 163.601,199.325 164.000,198.500 164.000 C 197.675 164.000,197.000 164.400,197.000 164.889 C 197.000 165.377,195.523 166.055,193.718 166.393 C 191.912 166.732,189.788 167.907,188.997 169.005 C 188.206 170.102,187.176 171.000,186.708 171.000 C 186.240 171.000,185.182 171.675,184.357 172.500 C 183.532 173.325,182.020 174.000,180.996 174.000 C 179.972 174.000,178.856 174.877,178.516 175.949 C 178.176 177.021,177.021 178.176,175.949 178.516 C 174.877 178.856,174.000 179.534,174.000 180.022 C 174.000 180.510,172.855 182.055,171.455 183.455 C 170.055 184.855,168.510 186.000,168.022 186.000 C 167.534 186.000,166.856 186.877,166.516 187.949 C 166.176 189.021,165.021 190.176,163.949 190.516 C 162.877 190.856,162.000 191.972,162.000 192.996 C 162.000 194.020,161.325 195.532,160.500 196.357 C 159.675 197.182,159.000 198.240,159.000 198.708 C 159.000 199.176,158.102 200.206,157.005 200.997 C 155.907 201.788,154.732 203.912,154.393 205.718 C 154.055 207.523,153.377 209.000,152.889 209.000 C 152.400 209.000,152.000 210.125,152.000 211.500 C 152.000 212.875,151.662 214.004,151.250 214.008 C 149.797 214.023,147.843 219.564,147.286 225.250 C 146.976 228.412,146.335 231.000,145.861 231.000 C 145.388 231.000,145.000 234.375,145.000 238.500 C 145.000 242.833,144.578 246.000,144.000 246.000 C 143.450 246.000,143.000 247.575,143.000 249.500 C 143.000 251.425,143.450 253.000,144.000 253.000 C 144.583 253.000,145.000 256.333,145.000 261.000 C 145.000 265.400,145.387 269.000,145.861 269.000 C 146.334 269.000,146.997 271.328,147.334 274.173 C 147.671 277.019,148.409 279.809,148.973 280.373 C 149.538 280.938,150.000 282.435,150.000 283.700 C 150.000 284.965,150.450 286.000,151.000 286.000 C 151.550 286.000,152.000 286.675,152.000 287.500 C 152.000 288.325,152.400 289.000,152.889 289.000 C 153.377 289.000,154.073 290.575,154.434 292.500 C 154.795 294.425,155.520 296.000,156.045 296.000 C 156.570 296.000,157.000 296.870,157.000 297.933 C 157.000 298.996,157.900 300.151,159.000 300.500 C 160.100 300.849,161.000 301.843,161.000 302.709 C 161.000 303.575,162.350 305.574,164.000 307.150 C 165.650 308.727,167.000 310.508,167.000 311.107 C 167.000 312.527,172.864 318.000,174.385 318.000 C 175.030 318.000,176.220 318.955,177.029 320.123 C 179.543 323.750,181.074 325.000,183.004 325.000 C 184.028 325.000,185.151 325.900,185.500 327.000 C 185.851 328.106,187.013 329.000,188.099 329.000 C 189.179 329.000,190.322 329.675,190.638 330.500 C 190.955 331.325,192.066 332.000,193.107 332.000 C 194.148 332.000,195.000 332.450,195.000 333.000 C 195.000 333.550,195.675 334.000,196.500 334.000 C 197.325 334.000,198.000 334.399,198.000 334.886 C 198.000 335.374,200.025 336.077,202.500 336.448 C 204.975 336.819,207.000 337.545,207.000 338.061 C 207.000 338.578,208.537 339.000,210.417 339.000 C 212.296 339.000,214.021 339.563,214.250 340.250 C 214.567 341.202,220.222 341.500,238.000 341.500 C 255.778 341.500,261.433 341.202,261.750 340.250 C 261.979 339.563,263.704 339.000,265.583 339.000 C 267.462 339.000,269.000 338.555,269.000 338.012 C 269.000 337.468,270.800 336.736,273.000 336.384 C 275.200 336.032,277.000 335.352,277.000 334.872 C 277.000 334.392,277.900 334.000,279.000 334.000 C 280.100 334.000,281.000 333.550,281.000 333.000 C 281.000 332.450,281.482 332.000,282.071 332.000 C 282.661 332.000,283.822 331.321,284.652 330.491 C 285.482 329.661,286.578 329.239,287.088 329.554 C 287.597 329.869,288.284 329.423,288.614 328.563 C 288.944 327.704,289.849 327.000,290.625 327.000 C 291.401 327.000,293.565 325.425,295.434 323.500 C 297.304 321.575,299.321 320.000,299.917 320.000 C 300.512 320.000,301.000 319.580,301.000 319.067 C 301.000 318.554,301.877 317.856,302.949 317.516 C 304.021 317.176,305.169 316.044,305.500 315.000 C 305.831 313.956,306.979 312.824,308.051 312.484 C 309.123 312.144,310.000 311.160,310.000 310.297 C 310.000 309.435,311.125 307.687,312.500 306.412 C 313.875 305.138,315.000 303.447,315.000 302.655 C 315.000 301.862,315.675 300.955,316.500 300.638 C 317.325 300.322,318.000 299.149,318.000 298.031 C 318.000 296.914,318.450 296.000,319.000 296.000 C 319.550 296.000,320.000 295.325,320.000 294.500 C 320.000 293.675,320.450 293.000,321.000 293.000 C 321.550 293.000,322.000 292.100,322.000 291.000 C 322.000 289.900,322.445 289.000,322.988 289.000 C 323.532 289.000,324.264 287.200,324.616 285.000 C 324.968 282.800,325.648 281.000,326.128 281.000 C 326.608 281.000,327.000 279.912,327.000 278.583 C 327.000 277.254,327.447 276.017,327.994 275.833 C 328.540 275.650,329.283 271.337,329.644 266.250 C 330.004 261.163,330.682 257.000,331.150 257.000 C 331.617 257.000,332.000 253.400,332.000 249.000 C 332.000 244.600,331.617 241.000,331.150 241.000 C 330.682 241.000,330.004 236.838,329.644 231.750 C 329.283 226.662,328.540 222.350,327.994 222.167 C 327.447 221.983,327.000 220.746,327.000 219.417 C 327.000 218.088,326.608 217.000,326.128 217.000 C 325.648 217.000,324.968 215.200,324.616 213.000 C 324.264 210.800,323.532 209.000,322.988 209.000 C 322.445 209.000,322.000 208.100,322.000 207.000 C 322.000 205.900,321.550 205.000,321.000 205.000 C 320.450 205.000,320.000 204.325,320.000 203.500 C 320.000 202.675,319.580 202.000,319.067 202.000 C 318.554 202.000,317.815 200.988,317.424 199.750 C 317.034 198.512,315.878 196.772,314.857 195.883 C 313.836 194.993,313.000 193.740,313.000 193.097 C 313.000 191.694,295.455 174.000,294.064 174.000 C 293.529 174.000,291.966 172.875,290.591 171.500 C 289.216 170.125,287.620 169.000,287.045 169.000 C 286.470 169.000,286.000 168.600,286.000 168.111 C 286.000 167.623,284.425 166.927,282.500 166.566 C 280.575 166.205,279.000 165.480,279.000 164.955 C 279.000 164.430,278.325 164.000,277.500 164.000 C 276.675 164.000,276.000 163.578,276.000 163.061 C 276.000 162.545,273.975 161.819,271.500 161.448 C 269.025 161.077,267.000 160.374,267.000 159.886 C 267.000 159.399,265.425 159.000,263.500 159.000 C 261.575 159.000,260.000 158.550,260.000 158.000 C 260.000 157.450,257.750 157.000,255.000 157.000 C 252.250 157.000,250.000 156.550,250.000 156.000 C 250.000 155.389,245.333 155.000,238.000 155.000 C 230.667 155.000,226.000 155.389,226.000 156.000 " stroke="none" fill="#000000" fill-rule="evenodd"></path></g></svg>