<svg width="100%" height="100%" viewBox="0 0 515 515" version="1.1" xmlns="http://www.w3.org/2000/svg" style="fill-rule:evenodd;clip-rule:evenodd;stroke-linejoin:round;stroke-miterlimit:2;">
<g>
<path d="M218,13.846C218,17.96 209.831,14.832 205.75,15.351C196.297,16.553 196.385,16.176 188.917,18C167.95,23.122 146.452,28.762 128.194,39.457C117.58,45.674 106.86,51.733 96.927,59C56.409,88.644 22.668,135.928 10.061,185C4.801,205.477 1.028,227.92 1.017,248.946C1.011,262.487 3.356,277.383 4.994,290.831C5.623,295.991 7.929,300.88 8.799,306C10.965,318.744 16.507,330.065 20.906,342C22.008,344.991 22.535,348.07 24,351C26.554,356.108 30.843,360.81 33.067,366C38.102,377.749 46.706,388.972 55,399C57.881,402.483 60.654,407.92 63.993,411C73.148,419.443 82.839,427.059 92.349,435C93.879,436.278 94.095,438.903 95.85,439.848C96.939,440.434 98.391,439.709 99.55,440.141C101.583,440.9 102.592,443.254 104.301,444.592C106.602,446.394 109.327,448.221 111.5,450C113.879,451.947 117.317,452.287 119.929,454C127.29,458.827 136.824,463.55 145,466.886C175.145,479.185 205.811,485 238.5,485C270.175,485 300.563,479.275 329.789,467.132C341.021,462.465 352.749,456.432 363,449.892C367.823,446.815 374.027,439.575 379.976,439.564C384.162,439.556 389.394,447.379 392,450.045C393.354,451.43 395.696,451.509 397.086,452.858C397.98,453.726 398.241,455.081 399,456.07C399.976,457.341 403.098,457.842 404.466,459C410.06,463.735 415.219,469.119 420.878,473.75C422.655,475.204 425.274,475.394 427,476.908C434.808,483.755 433.912,484.47 442.116,491C446.669,494.623 454.145,505.842 461.422,502.384C465.16,500.608 468.011,494.416 470.5,491.448C479.605,480.59 489.053,470.407 497.555,459.394C499.055,457.451 500.401,455.387 502,453.525C503.127,452.213 505.37,451.949 506.143,450.403C506.446,449.795 506.304,448.934 505.916,448.376C503.204,444.477 496.526,436.926 492.418,433.75C492.119,433.519 492.774,435.04 492.43,434.883C489.008,433.327 489.326,429.893 486.598,428C473.148,418.665 461.137,407.514 449.27,396.25C446.277,393.409 442.446,391.927 439.499,388.998C438.698,388.202 437.194,384.63 436.25,384.118C436.033,384 432.691,384.349 433.022,382.657C433.575,379.834 436.405,377.3 437.981,375C441.638,369.662 444.784,363.628 448,358C452.316,350.446 454.928,342.054 458.128,334C462.501,322.993 467.166,311.225 469.071,299.456C471.737,282.988 475,265.709 475,249C475,234.974 472.37,220.733 469.872,207C460.623,156.146 436.208,110.085 397.868,75C361.884,42.072 317.995,21.66 269.742,15.323C256.729,13.614 252.892,13 238,13C231.327,13 218,7.173 218,13.846M262,108.15C262,109.513 264.668,108.708 266,109C267.335,109.292 268.674,109.57 270,109.902C277.556,111.791 284.118,114.097 291,117.117C293.999,118.433 297.035,118.306 300,120C323.767,133.581 346.997,151.132 360.44,175.534C366.011,185.646 370.444,196.051 374.094,207C375.365,210.813 377.952,215.25 378.25,219.25C379.917,241.639 379.917,256.361 378.25,278.75C377.952,282.75 375.365,287.187 374.094,291C370.43,301.993 366.643,311.881 360.553,321.758C343.635,349.196 318.629,371.773 288,382.939C280.711,385.596 271.546,389.602 263.75,390.25C243.529,391.93 232.471,391.903 212.25,390.25C207.399,389.853 202.601,387.578 198,386.13C181.215,380.846 166.195,373.814 152.301,363C147.033,358.9 141.219,355.207 136.501,350.432C116.419,330.104 98.509,297.852 96,269C94.143,247.645 95.689,227.566 101.101,207C108.058,180.565 128.359,154.62 148,137.077C152.068,133.443 157.959,130.914 162.622,128C182.225,115.748 205.444,106.851 228.998,106.25C229.182,106.245 262,106.026 262,108.15M226,156L215,158C210.002,159.176 204.732,161.183 200,163.114C188.896,167.644 179.696,175.214 171.455,183.455C168.321,186.589 164.351,189.014 162,192.996C157.402,200.782 151.941,208.967 148.932,217.502C146.657,223.953 145.837,231.757 145,238.5C144.541,242.198 143,245.773 143,249.5C143,253.391 144.55,257.135 145,261C147.863,285.617 161.217,312.26 183.004,325C188.068,327.961 192.451,332.622 198,334.886C218.342,343.186 240.089,342.213 261.75,340.25C270.045,339.498 277.491,333.982 284.652,330.491C313.891,316.236 332,280.813 332,249C332,240.336 329.8,230.591 327.994,222.167C323.787,202.542 307.591,187.037 294.064,174C283.276,163.603 264.449,157.7 250,156C250,156 226,153.333 226,156"/>
</g>
</svg>
