<svg width="100%" height="100%" viewBox="0 0 515 515" version="1.1" xmlns="http://www.w3.org/2000/svg" style="fill-rule:evenodd;clip-rule:evenodd;stroke-linejoin:round;stroke-miterlimit:2;">
<g>
<path d="M240,44.913C236.785,46.741 232.667,45.881 229,46.365C211.941,48.618 203.521,49.947 187,53.975C156.497,61.413 130.46,81.797 106.807,101.25C103.914,103.629 102.006,107.003 99.497,109.783C90.603,119.638 82.766,129.727 75.747,141C63.032,161.422 54.852,183.492 50.343,207C45.65,231.467 46.337,253.671 48.821,278.957C50.156,292.552 55.198,305.785 59.913,318.5C79.031,370.053 120.983,411.07 171.25,432.065C211.886,449.037 259.745,450.504 302,439.057C318.365,434.624 333.605,427.307 348.377,419.041C351.667,417.2 355.077,415.566 358.286,413.586C359.231,413.003 360.755,410.786 362.282,411.382C368.443,413.785 376.525,423.082 381.174,427.254C389.029,434.304 397.55,440.462 405.607,447.25C408.926,450.046 409.924,452.419 411.873,453.579C419.015,457.832 425.081,466.319 434.426,461.763C442.078,458.033 447.277,448.124 452.75,441.632C458.33,435.013 463.802,428.299 469,421.381C471.387,418.203 476.256,415.451 476.948,411.2C478.35,402.583 470.156,396.262 464.691,391.476C454.26,382.341 442.929,374.223 432.553,365.089C432.253,364.825 425.353,357.682 424.309,356.999C421.608,355.232 418.688,355.049 418.899,350.684C419.116,346.208 423.258,342.421 425.101,338.562C427.865,332.776 432.157,325.213 434.085,319C437.567,307.78 442.338,295.4 444.488,283.738C447.414,267.865 447.059,251.251 446.473,235.242C444.002,167.682 405.471,105.246 346.713,71.695C334.106,64.496 321.331,59.87 307.679,55C303.262,53.424 290.218,47.436 286.077,48.005C285.418,48.096 286.79,49.849 286.142,50C285.628,50.12 285.355,49.185 284.833,49.108C276.259,47.844 267.613,47.127 259.02,46C257.166,45.757 255.316,45.448 253.5,45C252.413,44.732 249.864,43.232 250.217,44.294C250.371,44.757 251.936,44.78 251.5,45C250.133,45.688 248.531,45.914 247,45.914C243.263,45.914 243.326,43.023 240,44.913M265,147.957C266.625,150.173 270.333,149.283 273,149.946C280.824,151.893 280.721,151.683 288.25,154.423C300.162,158.757 312.755,165.303 322.171,173.981C325.582,177.125 329.763,179.771 332,183.835C332.622,184.965 329.814,185.205 328.75,185.933C325.625,188.072 322.387,190.21 319.362,192.5C313.832,196.687 308.153,201.105 302.349,204.855C300.724,205.905 299.141,207.705 297.212,207.558C295.181,207.403 293.807,205.315 292.186,204.081C287.01,200.141 282.153,195.371 276.305,192.377C272.972,190.67 269.68,188.596 266,187.903C258.885,186.564 251.702,185.419 244.474,185C232.462,184.303 221.661,190.016 216.303,200.518C215.472,202.148 213.92,203.672 214,205.5C214.059,206.862 215.566,207.774 216,209.066C220.738,223.156 236.491,223.852 249.515,226.079C261.526,228.133 261.393,228 273.25,230.457C295.056,234.976 327.259,244.865 331.362,271.193C332.937,281.3 332.615,287.739 331.138,297.787C324.987,339.623 280.323,351.618 244.545,351.622C230.244,351.623 226.028,351.853 214,349.054C198.239,345.386 182.594,337.134 170.435,326.5C168.542,324.844 161.536,318.459 159.758,316.186C158.937,315.135 157.7,313.943 157.927,312.629C158.246,310.782 161.157,310.705 162.624,309.538C168.721,304.686 175.753,300.694 182.37,296.53C184.306,295.312 186.219,294.059 188.12,292.787C189.513,291.855 190.971,289.505 192.467,290.261C198.137,293.124 203.276,299.062 208.75,302.523C225.154,312.896 242.296,315.769 261.5,313.065C269.869,311.887 281.072,306.912 284.764,298.703C285.541,296.976 285.757,295.022 285.872,293.132C286.065,289.939 285.504,284.272 283.959,281.248C279.892,273.284 262.262,272.242 255.5,271C239.501,268.061 223.085,266.945 207.5,262.075C201.367,260.159 193.647,257.564 188.846,253C180.986,245.53 171.439,238.323 169.588,226.786C167.871,216.083 168.174,205.928 169.75,195.25C170.488,190.25 173.726,185.955 175.597,181.26C183.829,160.604 208.052,153.383 227.167,149C228.139,148.777 229.01,148.156 230,148.042C232.817,147.717 262.653,144.757 265,147.957"/>
</g>
</svg>
