<svg id="svg" xmlns="http://www.w3.org/2000/svg" xmlns:xlink="http://www.w3.org/1999/xlink" width="400" height="400" viewBox="0, 0, 400,400"><g id="svgg"><path id="path0" d="M181.109 5.247 C 117.369 14.491,78.744 68.452,76.631 151.209 L 76.157 169.769 78.119 170.325 C 153.711 191.725,243.082 192.174,317.363 171.528 L 323.842 169.727 323.369 151.188 C 320.846 52.403,263.264 -6.668,181.109 5.247 M173.624 55.350 C 184.815 60.026,191.387 78.730,187.635 95.225 C 182.309 118.646,160.755 122.849,150.743 102.420 C 138.788 78.027,153.832 47.080,173.624 55.350 M239.671 55.374 C 252.935 62.337,257.624 85.349,249.257 102.420 C 237.870 125.654,213.261 116.506,211.360 88.331 C 209.876 66.338,225.628 48.001,239.671 55.374 M168.381 77.078 C 162.197 83.262,163.866 95.940,171.271 99.034 C 178.684 102.131,185.458 93.349,183.133 83.655 C 181.119 75.263,173.565 71.894,168.381 77.078 M227.467 79.629 C 220.227 81.826,214.243 87.857,216.016 91.170 C 217.237 93.451,219.026 93.225,222.263 90.384 C 226.790 86.409,230.792 85.769,237.548 87.942 C 243.971 90.007,245.791 89.355,245.791 84.990 C 245.791 80.674,234.709 77.432,227.467 79.629 M232.962 127.684 C 262.525 131.439,279.353 138.118,273.348 143.713 C 262.178 154.119,223.971 165.434,200.000 165.434 C 176.081 165.434,137.789 154.089,126.636 143.698 C 119.613 137.155,146.233 128.782,182.341 126.176 C 191.537 125.512,223.315 126.459,232.962 127.684 M72.390 193.069 C 68.610 202.574,65.730 210.562,65.989 210.821 C 66.863 211.695,90.903 217.586,105.663 220.543 C 113.729 222.159,121.134 223.650,122.119 223.857 C 126.512 224.778,126.489 224.618,126.489 254.572 L 126.489 282.333 135.729 283.369 C 145.391 284.452,170.074 284.761,171.601 283.817 C 172.200 283.446,172.485 275.250,172.485 258.326 C 172.485 237.644,172.688 233.179,173.674 232.193 C 174.648 231.219,179.905 230.924,202.627 230.570 C 238.677 230.008,260.697 227.555,296.920 220.066 C 312.515 216.842,333.134 211.698,334.023 210.809 C 334.401 210.431,321.600 177.059,320.609 175.840 C 320.457 175.653,316.912 176.332,312.733 177.349 C 240.033 195.041,161.575 195.508,92.972 178.656 C 86.509 177.069,80.780 175.774,80.241 175.779 C 79.702 175.784,76.169 183.564,72.390 193.069 M57.603 216.920 C 40.863 262.163,34.966 286.068,34.929 308.830 C 34.885 336.468,42.664 333.667,66.965 297.294 L 73.101 288.110 73.101 291.565 C 73.101 311.432,86.802 340.322,104.932 358.684 C 108.719 362.520,111.258 365.685,110.682 365.854 C 80.523 374.697,66.087 390.733,84.069 395.417 C 96.059 398.540,151.960 399.240,183.984 396.668 C 197.839 395.555,202.161 395.555,216.016 396.668 C 248.040 399.240,303.941 398.540,315.931 395.417 C 332.755 391.035,322.549 377.612,294.801 367.625 L 288.575 365.385 295.211 358.593 C 313.322 340.057,326.899 311.338,326.899 291.565 L 326.899 288.110 333.035 297.294 C 345.951 316.626,356.314 328.045,360.499 327.557 C 368.309 326.646,366.785 294.831,357.332 261.474 C 352.297 243.704,340.210 209.565,340.089 212.769 C 340.009 214.899,308.186 222.829,279.652 227.831 C 251.072 232.840,227.154 234.908,197.782 234.908 L 176.591 234.908 176.591 261.119 L 176.591 287.330 173.101 287.953 C 165.054 289.390,135.011 288.280,124.641 286.162 L 122.382 285.701 122.382 257.035 L 122.382 228.368 120.534 227.969 C 119.517 227.749,112.772 226.409,105.544 224.990 C 98.316 223.572,85.934 220.746,78.029 218.711 C 70.123 216.676,62.843 214.828,61.850 214.605 C 60.858 214.382,59.934 213.628,59.797 212.931 C 59.660 212.234,58.673 214.029,57.603 216.920 " stroke="none" fill="#000000" fill-rule="evenodd"></path></g></svg>