<svg width="100%" height="100%" viewBox="0 0 515 515" version="1.1" xmlns="http://www.w3.org/2000/svg" style="fill-rule:evenodd;clip-rule:evenodd;stroke-linejoin:round;stroke-miterlimit:2;">
    <g>
        <path d="M209.25,0.684C199.645,1.219 189.451,4.11 180,6C147.906,12.419 116.785,24.752 88.458,41C74.53,48.989 59.978,56.978 48.478,68.478L43,73.957L43,81.978C43,95.175 40.39,108.743 40,122C39.49,139.329 39,156.663 39,174C39,202.553 39.627,231.89 42,260.5C44.455,290.105 55.763,321.827 71,347.221C74.781,353.522 77.527,362.003 82.367,367.459C94.555,381.199 105.564,397 118,410.99C133.123,428.003 149.237,443.747 167,458C186.007,473.252 205.792,486.528 226,500C234.899,505.933 246.679,514.569 257.5,514.569C268.321,514.569 280.101,505.933 289,500C309.208,486.528 328.993,473.252 348,458C365.763,443.747 381.877,428.003 397,410.99C409.436,397 420.445,381.199 432.633,367.459C437.473,362.003 440.219,353.522 444,347.221C459.237,321.827 470.545,290.105 473,260.5C475.373,231.89 476,202.553 476,174C476,156.663 475.51,139.329 475,122C474.61,108.743 472,95.175 472,81.978L472,73.957L466.522,68.478C455.022,56.978 440.47,48.989 426.542,41C405.055,28.675 382.425,19.808 359,12C344.794,7.265 327.717,2.538 312.761,1.782C297.737,1.023 282.694,0.561 267.652,0.402C248.185,0.195 228.687,-0.399 209.25,0.684M275,64C275,66.028 279,64.667 281,65C286.562,65.927 286.376,65.875 292,67C304.319,69.464 317.878,74.114 329,80C336.345,83.887 342.361,89.085 349,94C371.342,110.541 391.491,133.728 402,160C421.783,209.457 415.859,268.733 383,310.98C374.204,322.289 365.257,334.414 351.07,339.191C347.762,340.305 342.184,337.531 339,337C331.456,335.743 324.318,334.091 317,332C311.688,330.482 306.319,329.614 301.429,327C300.355,326.426 298.828,326.409 298.141,325.403C297.594,324.602 297.802,323.296 298.357,322.5C298.971,321.619 300.295,321.566 301.208,321C305.329,318.444 309.312,315.032 313,312C326.183,301.163 337.532,289.201 347,275C357.867,258.699 365,238.733 365,219C365,199.85 358.762,182.555 350,166C325.175,119.093 263.948,101.821 216,121C192.27,130.492 174.818,150.858 162,172.221C156.51,181.372 153.727,193.638 152,204C150.179,214.925 149.895,224.954 151,236C152.678,252.776 157.247,270.191 166,284.779C183.955,314.704 215.671,337.068 248,350C272.655,359.862 299.01,366.802 325,372C334.577,373.915 344.333,375.619 354,377C356.333,377.333 358.699,377.489 361,378C361.148,378.033 365.317,380.053 365,380.509C361.187,385.99 356.282,390.638 351.596,395.394C345.219,401.867 330.796,419 319,419C312.621,419 305.18,416.545 299,415C285.356,411.589 271.967,408.106 258.5,404C196.294,385.032 132.475,343.425 111,279C102.227,252.681 101.089,225.708 103,198C103.684,188.086 106.881,178.358 110,169C124.058,126.825 158.901,90.44 200,74C218.056,66.777 238.121,63 257.5,63C263.343,63 275,58.157 275,64"/>
    </g>
</svg>
