<svg id="svg" version="1.1" width="515" height="515" xmlns="http://www.w3.org/2000/svg" xmlns:xlink="http://www.w3.org/1999/xlink" style="display: block;"><g id="svgg"><path id="path0" d="M209.250 0.684 C 205.262 0.906,202.000 1.518,202.000 2.044 C 202.000 2.570,199.300 3.000,196.000 3.000 C 192.667 3.000,190.000 3.444,190.000 4.000 C 190.000 4.550,187.750 5.000,185.000 5.000 C 182.250 5.000,180.000 5.450,180.000 6.000 C 180.000 6.550,177.750 7.000,175.000 7.000 C 172.250 7.000,170.000 7.450,170.000 8.000 C 170.000 8.550,168.200 9.000,166.000 9.000 C 163.800 9.000,162.000 9.450,162.000 10.000 C 162.000 10.550,160.650 11.000,159.000 11.000 C 157.350 11.000,156.000 11.450,156.000 12.000 C 156.000 12.550,154.650 13.000,153.000 13.000 C 151.350 13.000,150.000 13.450,150.000 14.000 C 150.000 14.550,148.650 15.000,147.000 15.000 C 145.350 15.000,144.000 15.450,144.000 16.000 C 144.000 16.550,142.650 17.000,141.000 17.000 C 139.350 17.000,138.000 17.450,138.000 18.000 C 138.000 18.550,136.650 19.000,135.000 19.000 C 133.350 19.000,132.000 19.450,132.000 20.000 C 132.000 20.550,131.100 21.000,130.000 21.000 C 128.900 21.000,128.000 21.450,128.000 22.000 C 128.000 22.550,126.650 23.000,125.000 23.000 C 123.350 23.000,122.000 23.450,122.000 24.000 C 122.000 24.550,121.100 25.000,120.000 25.000 C 118.900 25.000,118.000 25.450,118.000 26.000 C 118.000 26.550,117.100 27.000,116.000 27.000 C 114.900 27.000,114.000 27.450,114.000 28.000 C 114.000 28.550,113.100 29.000,112.000 29.000 C 110.900 29.000,110.000 29.450,110.000 30.000 C 110.000 30.550,108.749 31.000,107.221 31.000 C 105.589 31.000,103.847 31.826,103.000 33.000 C 102.207 34.100,100.758 35.000,99.779 35.000 C 98.801 35.000,98.000 35.450,98.000 36.000 C 98.000 36.550,97.100 37.000,96.000 37.000 C 94.900 37.000,94.000 37.450,94.000 38.000 C 94.000 38.550,93.100 39.000,92.000 39.000 C 90.900 39.000,90.000 39.450,90.000 40.000 C 90.000 40.550,89.306 41.000,88.458 41.000 C 87.610 41.000,85.950 41.900,84.770 43.000 C 83.589 44.100,81.808 45.000,80.811 45.000 C 79.815 45.000,79.000 45.450,79.000 46.000 C 79.000 46.550,78.199 47.000,77.221 47.000 C 76.242 47.000,74.793 47.900,74.000 49.000 C 73.207 50.100,71.938 51.000,71.180 51.000 C 70.423 51.000,68.541 52.350,67.000 54.000 C 65.459 55.650,63.659 57.000,63.000 57.000 C 62.341 57.000,60.541 58.350,59.000 60.000 C 57.459 61.650,55.693 63.000,55.077 63.000 C 54.461 63.000,51.491 65.465,48.478 68.478 L 43.000 73.957 43.000 81.978 C 43.000 86.659,42.584 90.000,42.000 90.000 C 41.375 90.000,41.000 96.000,41.000 106.000 C 41.000 116.000,40.625 122.000,40.000 122.000 C 39.346 122.000,39.000 140.000,39.000 174.000 C 39.000 208.000,39.346 226.000,40.000 226.000 C 40.627 226.000,41.000 232.314,41.000 242.941 C 41.000 253.156,41.397 260.127,42.000 260.500 C 42.550 260.840,43.000 263.791,43.000 267.059 C 43.000 270.353,43.446 273.000,44.000 273.000 C 44.550 273.000,45.000 275.250,45.000 278.000 C 45.000 280.750,45.450 283.000,46.000 283.000 C 46.550 283.000,47.000 284.800,47.000 287.000 C 47.000 289.200,47.450 291.000,48.000 291.000 C 48.550 291.000,49.000 292.800,49.000 295.000 C 49.000 297.200,49.450 299.000,50.000 299.000 C 50.550 299.000,51.000 300.350,51.000 302.000 C 51.000 303.650,51.450 305.000,52.000 305.000 C 52.550 305.000,53.000 306.350,53.000 308.000 C 53.000 309.650,53.450 311.000,54.000 311.000 C 54.550 311.000,55.000 311.900,55.000 313.000 C 55.000 314.100,55.450 315.000,56.000 315.000 C 56.550 315.000,57.000 316.350,57.000 318.000 C 57.000 319.650,57.450 321.000,58.000 321.000 C 58.550 321.000,59.000 321.900,59.000 323.000 C 59.000 324.100,59.450 325.000,60.000 325.000 C 60.550 325.000,61.000 325.900,61.000 327.000 C 61.000 328.100,61.450 329.000,62.000 329.000 C 62.550 329.000,63.000 330.350,63.000 332.000 C 63.000 333.650,63.450 335.000,64.000 335.000 C 64.550 335.000,65.000 335.900,65.000 337.000 C 65.000 338.100,65.450 339.000,66.000 339.000 C 66.550 339.000,67.000 339.801,67.000 340.779 C 67.000 341.758,67.900 343.207,69.000 344.000 C 70.100 344.793,71.000 346.242,71.000 347.221 C 71.000 348.199,71.450 349.000,72.000 349.000 C 72.550 349.000,73.000 349.900,73.000 351.000 C 73.000 352.100,73.450 353.000,74.000 353.000 C 74.550 353.000,75.000 353.801,75.000 354.779 C 75.000 355.758,75.900 357.207,77.000 358.000 C 78.100 358.793,79.000 360.242,79.000 361.221 C 79.000 362.199,79.450 363.000,80.000 363.000 C 80.550 363.000,81.000 363.707,81.000 364.571 C 81.000 366.367,83.335 369.000,84.929 369.000 C 85.518 369.000,86.000 369.719,86.000 370.599 C 86.000 371.478,87.350 373.459,89.000 375.000 C 90.650 376.541,92.000 378.341,92.000 379.000 C 92.000 379.659,93.350 381.459,95.000 383.000 C 96.650 384.541,98.000 386.341,98.000 387.000 C 98.000 387.659,99.350 389.459,101.000 391.000 C 102.650 392.541,104.000 394.319,104.000 394.949 C 104.000 395.580,107.150 399.203,111.000 403.000 C 114.850 406.797,118.000 410.392,118.000 410.990 C 118.000 411.588,122.050 416.092,127.000 421.000 C 131.950 425.908,136.000 430.177,136.000 430.488 C 136.000 431.523,144.931 440.000,146.022 440.000 C 146.613 440.000,150.203 443.150,154.000 447.000 C 157.797 450.850,161.410 454.000,162.030 454.000 C 162.650 454.000,164.886 455.800,167.000 458.000 C 169.114 460.200,171.364 462.000,172.000 462.000 C 172.636 462.000,174.886 463.800,177.000 466.000 C 179.114 468.200,181.373 470.000,182.020 470.000 C 182.668 470.000,184.459 471.350,186.000 473.000 C 187.541 474.650,189.423 476.000,190.180 476.000 C 190.938 476.000,192.207 476.900,193.000 478.000 C 193.793 479.100,195.062 480.000,195.820 480.000 C 196.577 480.000,198.459 481.350,200.000 483.000 C 201.541 484.650,203.423 486.000,204.180 486.000 C 204.938 486.000,206.207 486.900,207.000 488.000 C 207.793 489.100,209.143 490.000,210.000 490.000 C 210.857 490.000,212.207 490.900,213.000 492.000 C 213.793 493.100,215.242 494.000,216.221 494.000 C 217.199 494.000,218.000 494.450,218.000 495.000 C 218.000 495.550,218.801 496.000,219.779 496.000 C 220.758 496.000,222.207 496.900,223.000 498.000 C 223.793 499.100,225.143 500.000,226.000 500.000 C 226.857 500.000,228.207 500.900,229.000 502.000 C 229.793 503.100,231.242 504.000,232.221 504.000 C 233.199 504.000,234.000 504.450,234.000 505.000 C 234.000 505.550,234.900 506.000,236.000 506.000 C 237.100 506.000,238.000 506.450,238.000 507.000 C 238.000 507.550,238.801 508.000,239.779 508.000 C 240.758 508.000,242.207 508.900,243.000 510.000 C 243.793 511.100,245.205 512.000,246.137 512.000 C 247.070 512.000,248.021 512.562,248.250 513.250 C 248.836 515.008,266.164 515.008,266.750 513.250 C 266.979 512.562,267.930 512.000,268.863 512.000 C 269.795 512.000,271.207 511.100,272.000 510.000 C 272.793 508.900,274.242 508.000,275.221 508.000 C 276.199 508.000,277.000 507.550,277.000 507.000 C 277.000 506.450,277.900 506.000,279.000 506.000 C 280.100 506.000,281.000 505.550,281.000 505.000 C 281.000 504.450,281.801 504.000,282.779 504.000 C 283.758 504.000,285.207 503.100,286.000 502.000 C 286.793 500.900,288.143 500.000,289.000 500.000 C 289.857 500.000,291.207 499.100,292.000 498.000 C 292.793 496.900,294.242 496.000,295.221 496.000 C 296.199 496.000,297.000 495.550,297.000 495.000 C 297.000 494.450,297.801 494.000,298.779 494.000 C 299.758 494.000,301.207 493.100,302.000 492.000 C 302.793 490.900,304.143 490.000,305.000 490.000 C 305.857 490.000,307.207 489.100,308.000 488.000 C 308.793 486.900,310.062 486.000,310.820 486.000 C 311.577 486.000,313.459 484.650,315.000 483.000 C 316.541 481.350,318.423 480.000,319.180 480.000 C 319.938 480.000,321.207 479.100,322.000 478.000 C 322.793 476.900,324.062 476.000,324.820 476.000 C 325.577 476.000,327.459 474.650,329.000 473.000 C 330.541 471.350,332.332 470.000,332.980 470.000 C 333.627 470.000,335.886 468.200,338.000 466.000 C 340.114 463.800,342.364 462.000,343.000 462.000 C 343.636 462.000,345.886 460.200,348.000 458.000 C 350.114 455.800,352.350 454.000,352.970 454.000 C 353.590 454.000,357.203 450.850,361.000 447.000 C 364.797 443.150,368.387 440.000,368.978 440.000 C 370.069 440.000,379.000 431.523,379.000 430.488 C 379.000 430.177,383.050 425.908,388.000 421.000 C 392.950 416.092,397.000 411.588,397.000 410.990 C 397.000 410.392,400.150 406.797,404.000 403.000 C 407.850 399.203,411.000 395.580,411.000 394.949 C 411.000 394.319,412.350 392.541,414.000 391.000 C 415.650 389.459,417.000 387.659,417.000 387.000 C 417.000 386.341,418.350 384.541,420.000 383.000 C 421.650 381.459,423.000 379.659,423.000 379.000 C 423.000 378.341,424.350 376.541,426.000 375.000 C 427.650 373.459,429.000 371.478,429.000 370.599 C 429.000 369.719,429.482 369.000,430.071 369.000 C 431.665 369.000,434.000 366.367,434.000 364.571 C 434.000 363.707,434.450 363.000,435.000 363.000 C 435.550 363.000,436.000 362.199,436.000 361.221 C 436.000 360.242,436.900 358.793,438.000 358.000 C 439.100 357.207,440.000 355.758,440.000 354.779 C 440.000 353.801,440.450 353.000,441.000 353.000 C 441.550 353.000,442.000 352.100,442.000 351.000 C 442.000 349.900,442.450 349.000,443.000 349.000 C 443.550 349.000,444.000 348.199,444.000 347.221 C 444.000 346.242,444.900 344.793,446.000 344.000 C 447.100 343.207,448.000 341.758,448.000 340.779 C 448.000 339.801,448.450 339.000,449.000 339.000 C 449.550 339.000,450.000 338.100,450.000 337.000 C 450.000 335.900,450.450 335.000,451.000 335.000 C 451.550 335.000,452.000 333.650,452.000 332.000 C 452.000 330.350,452.450 329.000,453.000 329.000 C 453.550 329.000,454.000 328.100,454.000 327.000 C 454.000 325.900,454.450 325.000,455.000 325.000 C 455.550 325.000,456.000 324.100,456.000 323.000 C 456.000 321.900,456.450 321.000,457.000 321.000 C 457.550 321.000,458.000 319.650,458.000 318.000 C 458.000 316.350,458.450 315.000,459.000 315.000 C 459.550 315.000,460.000 314.100,460.000 313.000 C 460.000 311.900,460.450 311.000,461.000 311.000 C 461.550 311.000,462.000 309.650,462.000 308.000 C 462.000 306.350,462.450 305.000,463.000 305.000 C 463.550 305.000,464.000 303.650,464.000 302.000 C 464.000 300.350,464.450 299.000,465.000 299.000 C 465.550 299.000,466.000 297.200,466.000 295.000 C 466.000 292.800,466.450 291.000,467.000 291.000 C 467.550 291.000,468.000 289.200,468.000 287.000 C 468.000 284.800,468.450 283.000,469.000 283.000 C 469.550 283.000,470.000 280.750,470.000 278.000 C 470.000 275.250,470.450 273.000,471.000 273.000 C 471.554 273.000,472.000 270.353,472.000 267.059 C 472.000 263.791,472.450 260.840,473.000 260.500 C 473.603 260.127,474.000 253.156,474.000 242.941 C 474.000 232.314,474.373 226.000,475.000 226.000 C 475.654 226.000,476.000 208.000,476.000 174.000 C 476.000 140.000,475.654 122.000,475.000 122.000 C 474.375 122.000,474.000 116.000,474.000 106.000 C 474.000 96.000,473.625 90.000,473.000 90.000 C 472.416 90.000,472.000 86.659,472.000 81.978 L 472.000 73.957 466.522 68.478 C 463.509 65.465,460.539 63.000,459.923 63.000 C 459.307 63.000,457.541 61.650,456.000 60.000 C 454.459 58.350,452.659 57.000,452.000 57.000 C 451.341 57.000,449.541 55.650,448.000 54.000 C 446.459 52.350,444.577 51.000,443.820 51.000 C 443.062 51.000,441.793 50.100,441.000 49.000 C 440.207 47.900,438.758 47.000,437.779 47.000 C 436.801 47.000,436.000 46.550,436.000 46.000 C 436.000 45.450,435.185 45.000,434.189 45.000 C 433.192 45.000,431.411 44.100,430.230 43.000 C 429.050 41.900,427.390 41.000,426.542 41.000 C 425.694 41.000,425.000 40.550,425.000 40.000 C 425.000 39.450,424.100 39.000,423.000 39.000 C 421.900 39.000,421.000 38.550,421.000 38.000 C 421.000 37.450,420.100 37.000,419.000 37.000 C 417.900 37.000,417.000 36.550,417.000 36.000 C 417.000 35.450,416.100 35.000,415.000 35.000 C 413.900 35.000,413.000 34.550,413.000 34.000 C 413.000 33.450,412.100 33.000,411.000 33.000 C 409.900 33.000,409.000 32.550,409.000 32.000 C 409.000 31.450,408.100 31.000,407.000 31.000 C 405.900 31.000,405.000 30.550,405.000 30.000 C 405.000 29.450,404.100 29.000,403.000 29.000 C 401.900 29.000,401.000 28.550,401.000 28.000 C 401.000 27.450,400.100 27.000,399.000 27.000 C 397.900 27.000,397.000 26.550,397.000 26.000 C 397.000 25.450,396.100 25.000,395.000 25.000 C 393.900 25.000,393.000 24.550,393.000 24.000 C 393.000 23.450,391.650 23.000,390.000 23.000 C 388.350 23.000,387.000 22.550,387.000 22.000 C 387.000 21.450,386.100 21.000,385.000 21.000 C 383.900 21.000,383.000 20.550,383.000 20.000 C 383.000 19.450,381.650 19.000,380.000 19.000 C 378.350 19.000,377.000 18.550,377.000 18.000 C 377.000 17.450,375.650 17.000,374.000 17.000 C 372.350 17.000,371.000 16.550,371.000 16.000 C 371.000 15.450,369.650 15.000,368.000 15.000 C 366.350 15.000,365.000 14.550,365.000 14.000 C 365.000 13.450,363.650 13.000,362.000 13.000 C 360.350 13.000,359.000 12.550,359.000 12.000 C 359.000 11.450,357.650 11.000,356.000 11.000 C 354.350 11.000,353.000 10.550,353.000 10.000 C 353.000 9.450,351.200 9.000,349.000 9.000 C 346.800 9.000,345.000 8.550,345.000 8.000 C 345.000 7.450,342.750 7.000,340.000 7.000 C 337.250 7.000,335.000 6.550,335.000 6.000 C 335.000 5.450,332.750 5.000,330.000 5.000 C 327.250 5.000,325.000 4.550,325.000 4.000 C 325.000 3.446,322.361 3.000,319.083 3.000 C 315.321 3.000,313.019 2.556,312.761 1.782 C 312.358 0.575,227.376 -0.326,209.250 0.684 M275.000 64.000 C 275.000 64.556,277.667 65.000,281.000 65.000 C 284.333 65.000,287.000 65.444,287.000 66.000 C 287.000 66.550,289.250 67.000,292.000 67.000 C 294.750 67.000,297.000 67.450,297.000 68.000 C 297.000 68.550,298.350 69.000,300.000 69.000 C 301.650 69.000,303.000 69.450,303.000 70.000 C 303.000 70.550,304.350 71.000,306.000 71.000 C 307.650 71.000,309.000 71.450,309.000 72.000 C 309.000 72.550,310.350 73.000,312.000 73.000 C 313.650 73.000,315.000 73.450,315.000 74.000 C 315.000 74.550,315.900 75.000,317.000 75.000 C 318.100 75.000,319.000 75.450,319.000 76.000 C 319.000 76.550,320.350 77.000,322.000 77.000 C 323.650 77.000,325.000 77.450,325.000 78.000 C 325.000 78.550,325.900 79.000,327.000 79.000 C 328.100 79.000,329.000 79.450,329.000 80.000 C 329.000 80.550,329.801 81.000,330.779 81.000 C 331.758 81.000,333.207 81.900,334.000 83.000 C 334.793 84.100,336.242 85.000,337.221 85.000 C 338.199 85.000,339.000 85.464,339.000 86.031 C 339.000 86.599,339.788 87.359,340.750 87.720 C 341.712 88.081,343.693 89.642,345.151 91.189 C 346.609 92.735,348.341 94.000,349.000 94.000 C 349.659 94.000,351.459 95.350,353.000 97.000 C 354.541 98.650,356.303 100.000,356.914 100.000 C 358.352 100.000,377.000 118.629,377.000 120.066 C 377.000 120.666,378.800 122.886,381.000 125.000 C 383.200 127.114,385.000 129.454,385.000 130.201 C 385.000 130.948,385.900 132.207,387.000 133.000 C 388.100 133.793,389.000 135.143,389.000 136.000 C 389.000 136.857,389.900 138.207,391.000 139.000 C 392.100 139.793,393.000 141.242,393.000 142.221 C 393.000 143.199,393.450 144.000,394.000 144.000 C 394.550 144.000,395.000 144.900,395.000 146.000 C 395.000 147.100,395.450 148.000,396.000 148.000 C 396.550 148.000,397.000 148.900,397.000 150.000 C 397.000 151.100,397.450 152.000,398.000 152.000 C 398.550 152.000,399.000 152.900,399.000 154.000 C 399.000 155.100,399.450 156.000,400.000 156.000 C 400.550 156.000,401.000 156.900,401.000 158.000 C 401.000 159.100,401.450 160.000,402.000 160.000 C 402.550 160.000,403.000 161.350,403.000 163.000 C 403.000 164.650,403.450 166.000,404.000 166.000 C 404.550 166.000,405.000 167.350,405.000 169.000 C 405.000 170.650,405.450 172.000,406.000 172.000 C 406.550 172.000,407.000 173.350,407.000 175.000 C 407.000 176.650,407.450 178.000,408.000 178.000 C 408.550 178.000,409.000 179.800,409.000 182.000 C 409.000 184.200,409.450 186.000,410.000 186.000 C 410.556 186.000,411.000 188.667,411.000 192.000 C 411.000 195.333,411.444 198.000,412.000 198.000 C 412.636 198.000,413.000 206.000,413.000 220.000 C 413.000 234.000,412.636 242.000,412.000 242.000 C 411.450 242.000,411.000 244.223,411.000 246.941 C 411.000 249.659,410.550 252.160,410.000 252.500 C 409.450 252.840,409.000 254.891,409.000 257.059 C 409.000 259.227,408.550 261.000,408.000 261.000 C 407.450 261.000,407.000 262.350,407.000 264.000 C 407.000 265.650,406.550 267.000,406.000 267.000 C 405.450 267.000,405.000 268.350,405.000 270.000 C 405.000 271.650,404.550 273.000,404.000 273.000 C 403.450 273.000,403.000 274.350,403.000 276.000 C 403.000 277.650,402.550 279.000,402.000 279.000 C 401.450 279.000,401.000 279.900,401.000 281.000 C 401.000 282.100,400.550 283.000,400.000 283.000 C 399.450 283.000,399.000 283.900,399.000 285.000 C 399.000 286.100,398.550 287.000,398.000 287.000 C 397.450 287.000,397.000 287.900,397.000 289.000 C 397.000 290.100,396.550 291.000,396.000 291.000 C 395.450 291.000,395.000 291.900,395.000 293.000 C 395.000 294.100,394.550 295.000,394.000 295.000 C 393.450 295.000,393.000 295.801,393.000 296.779 C 393.000 297.758,392.100 299.207,391.000 300.000 C 389.900 300.793,389.000 302.062,389.000 302.820 C 389.000 303.577,387.650 305.459,386.000 307.000 C 384.350 308.541,383.000 310.332,383.000 310.980 C 383.000 311.627,381.200 313.886,379.000 316.000 C 376.800 318.114,375.000 320.340,375.000 320.948 C 375.000 322.386,366.386 331.000,364.948 331.000 C 364.340 331.000,362.114 332.800,360.000 335.000 C 356.186 338.970,345.000 341.207,345.000 338.000 C 345.000 337.444,342.333 337.000,339.000 337.000 C 335.667 337.000,333.000 336.556,333.000 336.000 C 333.000 335.450,330.750 335.000,328.000 335.000 C 325.250 335.000,323.000 334.550,323.000 334.000 C 323.000 333.450,321.650 333.000,320.000 333.000 C 318.350 333.000,317.000 332.550,317.000 332.000 C 317.000 331.450,315.200 331.000,313.000 331.000 C 310.800 331.000,309.000 330.550,309.000 330.000 C 309.000 329.450,307.650 329.000,306.000 329.000 C 304.350 329.000,303.000 328.550,303.000 328.000 C 303.000 327.450,302.293 327.000,301.429 327.000 C 298.499 327.000,296.616 324.241,298.357 322.500 C 299.182 321.675,300.465 321.000,301.208 321.000 C 301.951 321.000,303.207 320.100,304.000 319.000 C 304.793 317.900,306.046 317.000,306.786 317.000 C 307.525 317.000,310.321 314.750,313.000 312.000 C 315.679 309.250,318.357 307.000,318.951 307.000 C 320.370 307.000,335.000 292.357,335.000 290.938 C 335.000 290.336,336.800 288.114,339.000 286.000 C 341.200 283.886,343.000 281.546,343.000 280.799 C 343.000 280.052,343.900 278.793,345.000 278.000 C 346.100 277.207,347.000 275.857,347.000 275.000 C 347.000 274.143,347.900 272.793,349.000 272.000 C 350.100 271.207,351.000 269.758,351.000 268.779 C 351.000 267.801,351.450 267.000,352.000 267.000 C 352.550 267.000,353.000 266.100,353.000 265.000 C 353.000 263.900,353.450 263.000,354.000 263.000 C 354.550 263.000,355.000 262.127,355.000 261.059 C 355.000 259.991,355.450 258.840,356.000 258.500 C 356.550 258.160,357.000 257.009,357.000 255.941 C 357.000 254.873,357.450 254.000,358.000 254.000 C 358.550 254.000,359.000 252.650,359.000 251.000 C 359.000 249.350,359.450 248.000,360.000 248.000 C 360.550 248.000,361.000 246.650,361.000 245.000 C 361.000 243.350,361.450 242.000,362.000 242.000 C 362.556 242.000,363.000 239.333,363.000 236.000 C 363.000 232.667,363.444 230.000,364.000 230.000 C 364.606 230.000,365.000 225.667,365.000 219.000 C 365.000 212.333,364.606 208.000,364.000 208.000 C 363.444 208.000,363.000 205.333,363.000 202.000 C 363.000 198.667,362.556 196.000,362.000 196.000 C 361.450 196.000,361.000 194.200,361.000 192.000 C 361.000 189.800,360.550 188.000,360.000 188.000 C 359.450 188.000,359.000 186.650,359.000 185.000 C 359.000 183.350,358.550 182.000,358.000 182.000 C 357.450 182.000,357.000 181.100,357.000 180.000 C 357.000 178.900,356.550 178.000,356.000 178.000 C 355.450 178.000,355.000 177.100,355.000 176.000 C 355.000 174.900,354.550 174.000,354.000 174.000 C 353.450 174.000,353.000 173.100,353.000 172.000 C 353.000 170.900,352.550 170.000,352.000 170.000 C 351.450 170.000,351.000 169.100,351.000 168.000 C 351.000 166.900,350.550 166.000,350.000 166.000 C 349.450 166.000,349.000 165.199,349.000 164.221 C 349.000 163.242,348.100 161.793,347.000 161.000 C 345.900 160.207,345.000 158.938,345.000 158.180 C 345.000 157.423,343.650 155.541,342.000 154.000 C 340.350 152.459,339.000 150.693,339.000 150.077 C 339.000 148.617,328.383 138.000,326.923 138.000 C 326.307 138.000,324.541 136.650,323.000 135.000 C 321.459 133.350,319.577 132.000,318.820 132.000 C 318.062 132.000,316.793 131.100,316.000 130.000 C 315.207 128.900,313.758 128.000,312.779 128.000 C 311.801 128.000,311.000 127.550,311.000 127.000 C 311.000 126.450,310.100 126.000,309.000 126.000 C 307.900 126.000,307.000 125.550,307.000 125.000 C 307.000 124.450,306.100 124.000,305.000 124.000 C 303.900 124.000,303.000 123.550,303.000 123.000 C 303.000 122.450,302.100 122.000,301.000 122.000 C 299.900 122.000,299.000 121.550,299.000 121.000 C 299.000 120.450,297.650 120.000,296.000 120.000 C 294.350 120.000,293.000 119.550,293.000 119.000 C 293.000 118.450,291.650 118.000,290.000 118.000 C 288.350 118.000,287.000 117.550,287.000 117.000 C 287.000 116.450,285.200 116.000,283.000 116.000 C 280.800 116.000,279.000 115.550,279.000 115.000 C 279.000 114.364,271.167 114.000,257.500 114.000 C 243.833 114.000,236.000 114.364,236.000 115.000 C 236.000 115.550,234.200 116.000,232.000 116.000 C 229.800 116.000,228.000 116.450,228.000 117.000 C 228.000 117.550,226.650 118.000,225.000 118.000 C 223.350 118.000,222.000 118.450,222.000 119.000 C 222.000 119.550,220.650 120.000,219.000 120.000 C 217.350 120.000,216.000 120.450,216.000 121.000 C 216.000 121.550,215.100 122.000,214.000 122.000 C 212.900 122.000,212.000 122.450,212.000 123.000 C 212.000 123.550,211.100 124.000,210.000 124.000 C 208.900 124.000,208.000 124.450,208.000 125.000 C 208.000 125.550,207.199 126.000,206.221 126.000 C 205.242 126.000,203.793 126.900,203.000 128.000 C 202.207 129.100,200.857 130.000,200.000 130.000 C 199.143 130.000,197.793 130.900,197.000 132.000 C 196.207 133.100,194.978 134.000,194.268 134.000 C 192.583 134.000,172.000 154.583,172.000 156.268 C 172.000 156.978,171.100 158.207,170.000 159.000 C 168.900 159.793,168.000 161.242,168.000 162.221 C 168.000 163.199,167.550 164.000,167.000 164.000 C 166.450 164.000,166.000 164.801,166.000 165.779 C 166.000 166.758,165.100 168.207,164.000 169.000 C 162.900 169.793,162.000 171.242,162.000 172.221 C 162.000 173.199,161.550 174.000,161.000 174.000 C 160.450 174.000,160.000 175.350,160.000 177.000 C 160.000 178.650,159.550 180.000,159.000 180.000 C 158.450 180.000,158.000 180.900,158.000 182.000 C 158.000 183.100,157.550 184.000,157.000 184.000 C 156.450 184.000,156.000 185.350,156.000 187.000 C 156.000 188.650,155.550 190.000,155.000 190.000 C 154.450 190.000,154.000 191.800,154.000 194.000 C 154.000 196.200,153.550 198.000,153.000 198.000 C 152.444 198.000,152.000 200.667,152.000 204.000 C 152.000 207.333,151.556 210.000,151.000 210.000 C 150.385 210.000,150.000 215.000,150.000 223.000 C 150.000 231.000,150.385 236.000,151.000 236.000 C 151.571 236.000,152.000 239.000,152.000 243.000 C 152.000 247.000,152.429 250.000,153.000 250.000 C 153.550 250.000,154.000 251.773,154.000 253.941 C 154.000 256.109,154.450 258.160,155.000 258.500 C 155.550 258.840,156.000 260.441,156.000 262.059 C 156.000 263.677,156.450 265.000,157.000 265.000 C 157.550 265.000,158.000 265.900,158.000 267.000 C 158.000 268.100,158.450 269.000,159.000 269.000 C 159.550 269.000,160.000 270.350,160.000 272.000 C 160.000 273.650,160.450 275.000,161.000 275.000 C 161.550 275.000,162.000 275.900,162.000 277.000 C 162.000 278.100,162.450 279.000,163.000 279.000 C 163.550 279.000,164.000 279.900,164.000 281.000 C 164.000 282.100,164.450 283.000,165.000 283.000 C 165.550 283.000,166.000 283.801,166.000 284.779 C 166.000 285.758,166.900 287.207,168.000 288.000 C 169.100 288.793,170.000 290.062,170.000 290.820 C 170.000 291.577,171.350 293.459,173.000 295.000 C 174.650 296.541,176.000 298.302,176.000 298.913 C 176.000 300.362,196.638 321.000,198.087 321.000 C 198.698 321.000,200.459 322.350,202.000 324.000 C 203.541 325.650,205.423 327.000,206.180 327.000 C 206.938 327.000,208.207 327.900,209.000 329.000 C 209.793 330.100,211.143 331.000,212.000 331.000 C 212.857 331.000,214.207 331.900,215.000 333.000 C 215.793 334.100,217.242 335.000,218.221 335.000 C 219.199 335.000,220.000 335.450,220.000 336.000 C 220.000 336.550,220.900 337.000,222.000 337.000 C 223.100 337.000,224.000 337.450,224.000 338.000 C 224.000 338.550,224.900 339.000,226.000 339.000 C 227.100 339.000,228.000 339.450,228.000 340.000 C 228.000 340.550,228.900 341.000,230.000 341.000 C 231.100 341.000,232.000 341.450,232.000 342.000 C 232.000 342.550,232.900 343.000,234.000 343.000 C 235.100 343.000,236.000 343.450,236.000 344.000 C 236.000 344.550,236.900 345.000,238.000 345.000 C 239.100 345.000,240.000 345.450,240.000 346.000 C 240.000 346.550,240.900 347.000,242.000 347.000 C 243.100 347.000,244.000 347.450,244.000 348.000 C 244.000 348.550,244.900 349.000,246.000 349.000 C 247.100 349.000,248.000 349.450,248.000 350.000 C 248.000 350.550,249.350 351.000,251.000 351.000 C 252.650 351.000,254.000 351.450,254.000 352.000 C 254.000 352.550,255.125 353.000,256.500 353.000 C 257.875 353.000,259.000 353.450,259.000 354.000 C 259.000 354.550,260.350 355.000,262.000 355.000 C 263.650 355.000,265.000 355.450,265.000 356.000 C 265.000 356.550,266.350 357.000,268.000 357.000 C 269.650 357.000,271.000 357.450,271.000 358.000 C 271.000 358.550,272.350 359.000,274.000 359.000 C 275.650 359.000,277.000 359.450,277.000 360.000 C 277.000 360.550,278.800 361.000,281.000 361.000 C 283.200 361.000,285.000 361.450,285.000 362.000 C 285.000 362.550,286.350 363.000,288.000 363.000 C 289.650 363.000,291.000 363.450,291.000 364.000 C 291.000 364.550,292.800 365.000,295.000 365.000 C 297.200 365.000,299.000 365.450,299.000 366.000 C 299.000 366.550,300.800 367.000,303.000 367.000 C 305.200 367.000,307.000 367.450,307.000 368.000 C 307.000 368.550,309.250 369.000,312.000 369.000 C 314.750 369.000,317.000 369.450,317.000 370.000 C 317.000 370.550,318.800 371.000,321.000 371.000 C 323.200 371.000,325.000 371.450,325.000 372.000 C 325.000 372.556,327.667 373.000,331.000 373.000 C 334.333 373.000,337.000 373.444,337.000 374.000 C 337.000 374.550,339.250 375.000,342.000 375.000 C 344.750 375.000,347.000 375.450,347.000 376.000 C 347.000 376.571,350.000 377.000,354.000 377.000 C 358.000 377.000,361.000 377.429,361.000 378.000 C 361.000 378.550,361.900 379.000,363.000 379.000 C 364.116 379.000,365.000 379.667,365.000 380.509 C 365.000 382.215,338.612 409.000,336.931 409.000 C 336.333 409.000,334.114 410.800,332.000 413.000 C 329.886 415.200,327.447 417.000,326.578 417.000 C 325.710 417.000,325.000 417.450,325.000 418.000 C 325.000 418.556,322.333 419.000,319.000 419.000 C 315.667 419.000,313.000 418.556,313.000 418.000 C 313.000 417.450,310.750 417.000,308.000 417.000 C 305.250 417.000,303.000 416.550,303.000 416.000 C 303.000 415.450,301.200 415.000,299.000 415.000 C 296.800 415.000,295.000 414.550,295.000 414.000 C 295.000 413.450,292.750 413.000,290.000 413.000 C 287.250 413.000,285.000 412.550,285.000 412.000 C 285.000 411.450,283.650 411.000,282.000 411.000 C 280.350 411.000,279.000 410.550,279.000 410.000 C 279.000 409.450,277.200 409.000,275.000 409.000 C 272.800 409.000,271.000 408.550,271.000 408.000 C 271.000 407.450,269.677 407.000,268.059 407.000 C 266.441 407.000,264.840 406.550,264.500 406.000 C 264.160 405.450,262.810 405.000,261.500 405.000 C 260.190 405.000,258.840 404.550,258.500 404.000 C 258.160 403.450,256.559 403.000,254.941 403.000 C 253.323 403.000,252.000 402.550,252.000 402.000 C 252.000 401.450,250.650 401.000,249.000 401.000 C 247.350 401.000,246.000 400.550,246.000 400.000 C 246.000 399.450,244.650 399.000,243.000 399.000 C 241.350 399.000,240.000 398.550,240.000 398.000 C 240.000 397.450,239.100 397.000,238.000 397.000 C 236.900 397.000,236.000 396.550,236.000 396.000 C 236.000 395.450,234.650 395.000,233.000 395.000 C 231.350 395.000,230.000 394.550,230.000 394.000 C 230.000 393.450,229.100 393.000,228.000 393.000 C 226.900 393.000,226.000 392.550,226.000 392.000 C 226.000 391.450,225.100 391.000,224.000 391.000 C 222.900 391.000,222.000 390.550,222.000 390.000 C 222.000 389.450,220.650 389.000,219.000 389.000 C 217.350 389.000,216.000 388.550,216.000 388.000 C 216.000 387.450,215.100 387.000,214.000 387.000 C 212.900 387.000,212.000 386.550,212.000 386.000 C 212.000 385.450,211.199 385.000,210.221 385.000 C 209.242 385.000,207.793 384.100,207.000 383.000 C 206.207 381.900,204.758 381.000,203.779 381.000 C 202.801 381.000,202.000 380.550,202.000 380.000 C 202.000 379.450,201.100 379.000,200.000 379.000 C 198.900 379.000,198.000 378.550,198.000 378.000 C 198.000 377.450,197.199 377.000,196.221 377.000 C 195.242 377.000,193.793 376.100,193.000 375.000 C 192.207 373.900,190.857 373.000,190.000 373.000 C 189.143 373.000,187.793 372.100,187.000 371.000 C 186.207 369.900,184.857 369.000,184.000 369.000 C 183.143 369.000,181.793 368.100,181.000 367.000 C 180.207 365.900,178.938 365.000,178.180 365.000 C 177.423 365.000,175.541 363.650,174.000 362.000 C 172.459 360.350,170.700 359.000,170.091 359.000 C 168.645 359.000,138.000 328.355,138.000 326.909 C 138.000 326.300,136.650 324.541,135.000 323.000 C 133.350 321.459,132.000 319.577,132.000 318.820 C 132.000 318.062,131.100 316.793,130.000 316.000 C 128.900 315.207,128.000 313.758,128.000 312.779 C 128.000 311.801,127.550 311.000,127.000 311.000 C 126.450 311.000,126.000 310.199,126.000 309.221 C 126.000 308.242,125.100 306.793,124.000 306.000 C 122.900 305.207,122.000 303.758,122.000 302.779 C 122.000 301.801,121.550 301.000,121.000 301.000 C 120.450 301.000,120.000 300.100,120.000 299.000 C 120.000 297.900,119.550 297.000,119.000 297.000 C 118.450 297.000,118.000 296.100,118.000 295.000 C 118.000 293.900,117.550 293.000,117.000 293.000 C 116.450 293.000,116.000 292.100,116.000 291.000 C 116.000 289.900,115.550 289.000,115.000 289.000 C 114.450 289.000,114.000 287.650,114.000 286.000 C 114.000 284.350,113.550 283.000,113.000 283.000 C 112.450 283.000,112.000 282.100,112.000 281.000 C 112.000 279.900,111.550 279.000,111.000 279.000 C 110.450 279.000,110.000 277.200,110.000 275.000 C 110.000 272.800,109.550 271.000,109.000 271.000 C 108.450 271.000,108.000 269.650,108.000 268.000 C 108.000 266.350,107.550 265.000,107.000 265.000 C 106.450 265.000,106.000 263.227,106.000 261.059 C 106.000 258.891,105.550 256.840,105.000 256.500 C 104.450 256.160,104.000 253.209,104.000 249.941 C 104.000 246.647,103.554 244.000,103.000 244.000 C 102.362 244.000,102.000 235.667,102.000 221.000 C 102.000 206.333,102.362 198.000,103.000 198.000 C 103.556 198.000,104.000 195.333,104.000 192.000 C 104.000 188.667,104.444 186.000,105.000 186.000 C 105.550 186.000,106.000 184.200,106.000 182.000 C 106.000 179.800,106.450 178.000,107.000 178.000 C 107.550 178.000,108.000 176.650,108.000 175.000 C 108.000 173.350,108.450 172.000,109.000 172.000 C 109.550 172.000,110.000 170.650,110.000 169.000 C 110.000 167.350,110.450 166.000,111.000 166.000 C 111.550 166.000,112.000 164.650,112.000 163.000 C 112.000 161.350,112.450 160.000,113.000 160.000 C 113.550 160.000,114.000 159.100,114.000 158.000 C 114.000 156.900,114.450 156.000,115.000 156.000 C 115.550 156.000,116.000 155.100,116.000 154.000 C 116.000 152.900,116.450 152.000,117.000 152.000 C 117.550 152.000,118.000 151.100,118.000 150.000 C 118.000 148.900,118.450 148.000,119.000 148.000 C 119.550 148.000,120.000 147.100,120.000 146.000 C 120.000 144.900,120.450 144.000,121.000 144.000 C 121.550 144.000,122.000 143.199,122.000 142.221 C 122.000 141.242,122.900 139.793,124.000 139.000 C 125.100 138.207,126.000 136.857,126.000 136.000 C 126.000 135.143,126.900 133.793,128.000 133.000 C 129.100 132.207,130.000 130.948,130.000 130.201 C 130.000 129.454,131.800 127.114,134.000 125.000 C 136.200 122.886,138.000 120.666,138.000 120.066 C 138.000 118.629,156.648 100.000,158.086 100.000 C 158.697 100.000,160.459 98.650,162.000 97.000 C 163.541 95.350,165.341 94.000,166.000 94.000 C 166.659 94.000,168.459 92.650,170.000 91.000 C 171.541 89.350,173.311 88.000,173.933 88.000 C 174.554 88.000,175.322 87.325,175.638 86.500 C 175.955 85.675,176.966 85.000,177.886 85.000 C 178.806 85.000,180.207 84.100,181.000 83.000 C 181.793 81.900,183.242 81.000,184.221 81.000 C 185.199 81.000,186.000 80.550,186.000 80.000 C 186.000 79.450,186.900 79.000,188.000 79.000 C 189.100 79.000,190.000 78.550,190.000 78.000 C 190.000 77.450,191.350 77.000,193.000 77.000 C 194.650 77.000,196.000 76.550,196.000 76.000 C 196.000 75.450,196.900 75.000,198.000 75.000 C 199.100 75.000,200.000 74.550,200.000 74.000 C 200.000 73.450,201.350 73.000,203.000 73.000 C 204.650 73.000,206.000 72.550,206.000 72.000 C 206.000 71.450,207.350 71.000,209.000 71.000 C 210.650 71.000,212.000 70.550,212.000 70.000 C 212.000 69.450,213.350 69.000,215.000 69.000 C 216.650 69.000,218.000 68.550,218.000 68.000 C 218.000 67.450,220.250 67.000,223.000 67.000 C 225.750 67.000,228.000 66.550,228.000 66.000 C 228.000 65.444,230.667 65.000,234.000 65.000 C 237.333 65.000,240.000 64.556,240.000 64.000 C 240.000 63.371,246.500 63.000,257.500 63.000 C 268.500 63.000,275.000 63.371,275.000 64.000 " stroke="none" fill="#000000" fill-rule="evenodd"></path></g></svg>