<svg version="1.1" width="400" height="400" xmlns="http://www.w3.org/2000/svg">
<g>
<path d="M174.500 8.958 C 173.400 9.454,170.389 9.891,167.809 9.930 C 165.229 9.968,162.859 10.419,162.543 10.930 C 162.227 11.442,159.388 12.139,156.234 12.479 C 153.080 12.819,149.719 13.526,148.764 14.049 C 147.809 14.572,146.148 15.000,145.073 15.000 C 143.998 15.000,142.840 15.450,142.500 16.000 C 142.160 16.550,140.334 17.000,138.441 17.000 C 136.548 17.000,135.000 17.410,135.000 17.912 C 135.000 18.414,133.200 19.128,131.000 19.500 C 128.800 19.872,127.000 20.586,127.000 21.088 C 127.000 21.590,126.213 22.014,125.250 22.032 C 124.287 22.049,122.626 22.724,121.559 23.532 C 120.491 24.339,118.785 25.000,117.767 25.000 C 116.749 25.000,114.950 25.900,113.770 27.000 C 112.589 28.100,110.808 29.000,109.811 29.000 C 108.815 29.000,108.000 29.420,108.000 29.933 C 108.000 30.446,107.022 31.176,105.827 31.555 C 104.632 31.934,102.747 33.090,101.638 34.122 C 100.530 35.155,99.033 36.000,98.311 36.000 C 97.590 36.000,97.000 36.420,97.000 36.933 C 97.000 37.446,95.988 38.185,94.750 38.576 C 93.513 38.966,91.772 40.122,90.883 41.143 C 89.993 42.164,88.797 43.000,88.225 43.000 C 87.221 43.000,82.488 46.975,75.424 53.750 C 73.560 55.538,71.577 57.000,71.018 57.000 C 70.458 57.000,70.000 57.461,70.000 58.024 C 70.000 58.587,67.101 61.975,63.558 65.553 C 60.015 69.131,56.842 72.922,56.507 73.978 C 56.172 75.034,55.044 76.169,54.000 76.500 C 52.956 76.831,51.847 77.905,51.536 78.887 C 51.225 79.868,49.402 82.432,47.486 84.585 C 45.569 86.738,44.001 89.042,44.001 89.705 C 44.000 90.367,42.900 92.009,41.556 93.353 C 40.211 94.698,38.437 97.306,37.613 99.149 C 36.789 100.992,35.141 104.300,33.951 106.500 C 29.421 114.877,28.000 117.943,28.000 119.341 C 28.000 120.136,27.325 121.045,26.500 121.362 C 25.657 121.685,25.000 123.173,25.000 124.757 C 25.000 126.308,24.208 129.135,23.239 131.039 C 21.151 135.143,19.713 139.839,17.431 150.000 C 16.504 154.125,15.322 158.850,14.803 160.500 C 8.500 180.545,13.036 237.168,23.095 264.000 C 28.943 279.599,43.218 306.038,48.443 310.946 C 49.849 312.268,51.000 313.773,51.000 314.292 C 51.000 316.564,74.352 340.736,82.598 347.000 C 85.132 348.925,87.761 351.021,88.439 351.658 C 89.117 352.294,92.334 354.507,95.586 356.575 C 98.839 358.642,101.650 360.709,101.833 361.167 C 102.017 361.625,102.834 362.000,103.650 362.000 C 104.466 362.000,106.566 363.073,108.317 364.384 C 110.068 365.695,112.625 367.098,114.000 367.501 C 115.375 367.905,119.298 369.757,122.718 371.618 C 126.138 373.478,129.478 375.000,130.140 375.000 C 130.802 375.000,134.230 376.155,137.759 377.567 C 141.287 378.978,146.497 380.545,149.337 381.049 C 152.177 381.552,157.650 382.885,161.500 384.010 C 166.651 385.516,172.792 386.220,184.750 386.676 L 201.000 387.296 201.000 355.230 C 201.000 337.593,201.247 322.520,201.549 321.733 C 201.989 320.587,200.349 320.173,193.299 319.650 C 169.540 317.888,148.896 311.309,133.500 300.591 C 131.850 299.443,130.226 298.502,129.892 298.502 C 129.558 298.501,126.978 296.401,124.160 293.837 C 121.342 291.272,118.015 288.345,116.768 287.332 C 113.861 284.973,102.000 271.462,102.000 270.511 C 102.000 270.114,100.937 268.526,99.639 266.983 C 96.879 263.702,89.597 250.625,88.513 247.000 C 88.102 245.625,86.693 242.124,85.383 239.220 C 84.072 236.317,83.000 233.126,83.000 232.130 C 83.000 231.135,82.081 226.760,80.957 222.410 C 75.946 203.009,78.949 167.268,86.873 152.005 C 87.874 150.077,89.264 146.760,89.962 144.634 C 90.660 142.508,92.079 139.921,93.116 138.884 C 94.152 137.848,95.000 136.306,95.000 135.458 C 95.000 132.848,114.050 108.170,116.164 108.041 C 116.529 108.018,118.400 106.537,120.321 104.750 C 127.963 97.638,137.604 90.882,142.107 89.482 C 143.423 89.072,145.694 87.897,147.154 86.869 C 148.614 85.841,150.527 85.000,151.404 85.000 C 152.282 85.000,153.000 84.601,153.000 84.114 C 153.000 83.626,155.015 82.925,157.477 82.556 C 159.939 82.187,162.215 81.460,162.536 80.942 C 162.856 80.424,163.991 80.000,165.059 80.000 C 166.127 80.000,167.000 79.597,167.000 79.105 C 167.000 78.613,168.912 77.931,171.250 77.589 C 197.789 73.713,216.264 74.593,232.000 80.482 C 234.475 81.408,237.295 82.271,238.266 82.399 C 239.237 82.527,240.564 83.164,241.216 83.816 C 241.867 84.467,243.252 85.000,244.292 85.000 C 245.333 85.000,247.329 85.900,248.727 87.000 C 250.126 88.100,251.817 89.000,252.485 89.000 C 253.153 89.000,255.564 90.350,257.841 92.000 C 260.119 93.650,262.349 95.000,262.796 95.000 C 263.590 95.000,268.314 98.980,274.664 105.000 C 276.405 106.650,278.245 108.000,278.754 108.000 C 279.263 108.000,280.174 109.086,280.779 110.413 C 281.383 111.741,282.806 113.121,283.939 113.481 C 285.073 113.840,286.000 114.710,286.000 115.412 C 286.000 116.115,286.946 117.547,288.103 118.593 C 290.003 120.312,294.043 126.153,301.209 137.541 C 314.344 158.414,320.521 199.133,314.099 222.500 C 312.889 226.900,311.497 232.300,311.005 234.500 C 310.514 236.700,308.961 240.860,307.556 243.745 C 306.150 246.630,305.000 249.565,305.000 250.268 C 305.000 250.971,303.425 253.937,301.500 256.860 C 299.575 259.783,298.000 262.558,298.000 263.026 C 298.000 263.494,296.650 265.355,295.000 267.161 C 293.350 268.968,292.000 270.761,292.000 271.146 C 292.000 271.531,290.762 273.181,289.250 274.812 C 287.738 276.443,285.988 278.390,285.362 279.139 C 282.864 282.126,270.802 293.000,269.985 293.000 C 269.506 293.000,268.525 293.795,267.807 294.767 C 267.088 295.739,265.157 297.394,263.516 298.443 C 261.876 299.493,259.447 301.359,258.119 302.590 L 255.706 304.828 258.090 307.664 C 259.401 309.224,263.028 312.750,266.150 315.500 C 269.272 318.250,272.121 321.287,272.480 322.250 C 272.840 323.212,273.624 324.000,274.221 324.000 C 274.818 324.000,278.050 326.673,281.404 329.940 C 284.757 333.207,291.000 339.282,295.278 343.440 C 299.556 347.598,303.494 351.000,304.028 351.000 C 304.563 351.000,305.000 351.686,305.000 352.525 C 305.000 353.363,306.137 354.482,307.526 355.010 C 308.915 355.538,310.296 356.607,310.595 357.386 C 310.893 358.165,313.919 361.142,317.319 364.002 C 320.719 366.862,325.534 371.069,328.019 373.351 C 332.270 377.253,342.394 385.878,346.229 388.864 C 347.944 390.199,356.000 384.283,356.000 381.688 C 356.000 381.193,357.125 379.903,358.500 378.821 C 359.875 377.740,361.000 376.472,361.000 376.004 C 361.000 375.537,362.238 373.851,363.750 372.258 C 370.546 365.103,375.001 359.960,375.009 359.260 C 375.014 358.842,376.364 357.437,378.009 356.137 C 379.654 354.838,381.000 353.181,381.000 352.456 C 381.000 351.730,382.295 350.214,383.879 349.086 C 388.767 345.606,388.570 343.304,382.920 337.828 C 380.179 335.173,377.726 333.000,377.469 333.000 C 377.212 333.000,375.225 331.313,373.053 329.250 C 370.880 327.188,366.954 323.700,364.328 321.500 C 361.703 319.300,358.417 316.348,357.027 314.939 C 355.637 313.530,353.262 311.608,351.750 310.666 C 348.414 308.589,348.340 307.604,351.250 304.007 C 352.488 302.477,354.736 299.037,356.246 296.363 C 357.756 293.688,359.405 290.825,359.909 290.000 C 361.437 287.499,368.000 273.402,368.000 272.621 C 368.000 272.219,368.820 270.002,369.823 267.695 C 370.826 265.388,372.358 261.700,373.229 259.500 C 375.939 252.652,380.812 229.907,381.479 221.000 C 381.829 216.325,382.364 209.125,382.669 205.000 C 383.513 193.568,381.242 168.027,378.356 156.500 C 376.979 151.000,375.513 144.625,375.097 142.333 C 374.329 138.091,370.148 127.325,365.065 116.500 C 358.412 102.329,357.071 99.839,352.245 92.700 C 350.460 90.060,349.000 87.510,349.000 87.035 C 349.000 86.559,347.677 84.921,346.061 83.395 C 344.444 81.870,342.861 79.582,342.542 78.311 C 342.223 77.040,341.395 76.000,340.702 76.000 C 340.009 76.000,338.780 75.003,337.971 73.785 C 337.162 72.567,333.688 68.661,330.250 65.106 C 326.813 61.551,324.000 58.273,324.000 57.821 C 324.000 57.369,323.547 57.000,322.994 57.000 C 322.441 57.000,319.992 54.975,317.552 52.500 C 315.112 50.025,312.885 48.000,312.603 48.000 C 312.322 48.000,310.988 46.987,309.641 45.750 C 306.090 42.490,305.120 41.776,298.488 37.550 C 295.195 35.451,292.275 33.413,292.000 33.021 C 291.725 32.629,290.262 32.005,288.750 31.635 C 287.238 31.265,286.000 30.520,286.000 29.981 C 286.000 29.441,285.282 29.000,284.404 29.000 C 283.527 29.000,281.486 28.058,279.869 26.907 C 278.252 25.755,276.355 25.034,275.653 25.303 C 274.951 25.572,273.279 24.949,271.938 23.919 C 270.597 22.888,268.938 22.034,268.250 22.022 C 267.563 22.010,267.000 21.565,267.000 21.034 C 267.000 20.503,264.750 19.770,262.000 19.406 C 259.250 19.041,257.000 18.350,257.000 17.871 C 257.000 17.392,256.121 17.000,255.047 17.000 C 253.252 17.000,250.745 16.178,245.500 13.871 C 244.400 13.387,240.575 12.525,237.000 11.956 C 233.425 11.386,228.250 10.448,225.500 9.872 C 219.064 8.524,177.129 7.772,174.500 8.958 " stroke="none" fill-rule="evenodd"></path>
</g>
</svg>