<svg version="1.1" width="400" height="400" xmlns="http://www.w3.org/2000/svg"><g><path d="M164.500 39.584 C 162.850 39.804,157.450 40.478,152.500 41.081 C 82.962 49.563,23.930 87.175,6.240 134.270 C -22.085 209.680,43.515 282.507,153.250 297.475 L 158.000 298.123 158.000 329.061 L 158.000 360.000 186.500 360.000 L 215.000 360.000 215.000 329.572 L 215.000 299.144 220.750 298.519 C 235.678 296.898,249.641 294.637,261.835 291.867 C 269.170 290.201,275.282 288.987,275.418 289.169 C 275.554 289.351,281.623 305.025,288.904 324.000 C 296.186 342.975,302.478 358.844,302.887 359.265 C 303.295 359.685,317.598 359.910,334.671 359.765 L 365.714 359.500 346.868 313.573 C 336.502 288.313,328.129 267.559,328.261 267.453 C 328.392 267.348,331.650 265.364,335.500 263.045 C 455.704 190.648,400.492 67.693,236.000 41.462 C 226.044 39.874,172.818 38.476,164.500 39.584 M261.830 69.909 C 389.963 89.348,429.934 193.214,329.785 246.490 L 321.152 251.083 317.464 244.063 C 312.659 234.920,305.575 227.744,298.771 225.130 C 294.902 223.643,294.165 223.087,296.000 223.039 C 300.867 222.911,314.857 217.249,321.942 212.539 C 361.027 186.555,357.801 117.965,316.500 96.830 C 295.146 85.902,279.193 84.000,208.894 84.000 L 158.000 84.000 158.000 173.930 L 158.000 263.860 148.750 261.339 C 92.686 246.056,51.931 213.776,44.299 178.607 C 33.868 130.539,103.061 78.346,189.500 69.078 C 195.000 68.489,201.075 67.820,203.000 67.593 C 212.081 66.520,249.094 67.977,261.830 69.909 M249.916 129.039 C 278.089 131.930,290.176 142.464,290.176 164.125 C 290.176 189.870,274.437 200.253,233.250 201.677 L 215.000 202.308 215.000 165.154 L 215.000 128.000 227.394 128.000 C 234.211 128.000,244.346 128.468,249.916 129.039 M249.157 248.939 C 255.360 251.280,261.429 257.000,264.874 263.753 L 266.890 267.704 258.695 268.925 C 254.188 269.597,242.512 270.403,232.750 270.717 L 215.000 271.287 215.000 258.497 L 215.000 245.706 229.250 246.256 C 240.392 246.685,244.734 247.270,249.157 248.939 " stroke="none" fill-rule="evenodd"></path></g></svg>