<svg id="svg" version="1.1" width="515" height="515" xmlns="http://www.w3.org/2000/svg" xmlns:xlink="http://www.w3.org/1999/xlink" style="display: block;"><g id="svgg"><path id="path0" d="M122.000 77.500 C 122.000 78.633,120.778 79.000,117.000 79.000 C 114.193 79.000,112.000 79.458,112.000 80.044 C 112.000 80.618,111.438 81.015,110.750 80.925 C 108.118 80.584,107.000 81.053,107.000 82.500 C 107.000 83.325,106.550 84.000,106.000 84.000 C 105.450 84.000,105.000 84.675,105.000 85.500 C 105.000 86.325,104.325 87.000,103.500 87.000 C 102.173 87.000,102.000 105.897,102.000 251.071 C 102.000 423.178,101.878 418.000,105.929 418.000 C 106.518 418.000,107.000 418.722,107.000 419.605 C 107.000 420.874,107.836 421.130,111.000 420.829 C 114.309 420.513,115.000 420.754,115.000 422.224 C 115.000 423.759,115.965 424.000,122.107 424.000 C 128.013 424.000,129.117 423.747,128.638 422.500 C 128.223 421.416,128.748 421.000,130.531 421.000 C 131.973 421.000,132.896 421.520,132.750 422.250 C 132.251 424.747,390.634 424.507,391.287 422.010 C 391.716 420.369,392.362 420.122,394.905 420.631 C 396.985 421.047,398.000 420.858,398.000 420.054 C 398.000 418.509,400.509 416.000,402.054 416.000 C 402.850 416.000,403.049 414.996,402.650 413.000 C 402.145 410.477,402.364 410.000,404.025 410.000 C 405.978 410.000,406.000 408.939,406.000 316.611 C 406.000 228.283,405.905 223.230,404.250 223.361 C 402.999 223.460,402.568 222.858,402.738 221.250 C 402.873 219.976,402.427 219.000,401.710 219.000 C 400.080 219.000,397.000 215.412,397.000 213.514 C 397.000 212.421,396.240 212.202,394.000 212.650 C 391.651 213.120,391.000 212.897,391.000 211.625 C 391.000 209.244,307.551 209.121,306.638 211.500 C 305.824 213.621,297.000 213.621,297.000 211.500 C 297.000 210.567,296.056 210.000,294.500 210.000 C 292.944 210.000,292.000 209.433,292.000 208.500 C 292.000 207.675,291.579 207.000,291.063 207.000 C 290.548 207.000,289.986 205.537,289.813 203.750 C 289.626 201.804,288.998 200.600,288.250 200.750 C 287.440 200.912,287.000 199.767,287.000 197.500 C 287.000 194.931,287.434 194.000,288.631 194.000 C 289.959 194.000,290.147 193.304,289.642 190.250 C 289.301 188.188,288.912 167.375,288.777 144.000 L 288.532 101.500 288.000 145.500 L 287.468 189.500 287.059 143.500 C 286.834 118.200,286.759 95.813,286.892 93.750 C 287.083 90.798,286.775 90.000,285.442 90.000 C 284.095 90.000,283.872 89.388,284.350 87.000 C 284.800 84.751,284.581 84.000,283.475 84.000 C 282.664 84.000,282.000 83.269,282.000 82.375 C 282.000 81.103,281.349 80.880,279.000 81.350 C 276.771 81.796,276.000 81.578,276.000 80.501 C 276.000 79.342,274.647 79.125,269.250 79.419 C 261.212 79.857,258.000 79.279,258.000 77.392 C 258.000 76.409,256.678 76.000,253.500 76.000 C 250.167 76.000,249.000 76.389,249.000 77.500 C 249.000 78.500,248.000 79.000,246.000 79.000 C 244.000 79.000,243.000 78.500,243.000 77.500 C 243.000 76.500,242.000 76.000,240.000 76.000 C 238.000 76.000,237.000 76.500,237.000 77.500 C 237.000 78.611,235.833 79.000,232.500 79.000 C 230.025 79.000,228.000 79.450,228.000 80.000 C 228.000 80.550,226.875 81.000,225.500 81.000 C 223.944 81.000,223.000 81.567,223.000 82.500 C 223.000 83.325,222.325 84.000,221.500 84.000 C 220.567 84.000,220.000 84.944,220.000 86.500 C 220.000 87.875,219.550 89.000,219.000 89.000 C 218.450 89.000,218.000 90.800,218.000 93.000 C 218.000 95.889,217.583 97.000,216.500 97.000 C 215.187 97.000,215.000 103.056,215.000 145.500 C 215.000 187.944,215.187 194.000,216.500 194.000 C 217.511 194.000,218.000 195.012,218.000 197.107 C 218.000 199.458,217.635 200.074,216.500 199.638 C 215.279 199.170,215.000 200.081,215.000 204.531 C 215.000 209.941,214.968 210.000,212.000 210.000 C 210.000 210.000,209.000 210.500,209.000 211.500 C 209.000 212.433,208.056 213.000,206.500 213.000 C 204.944 213.000,204.000 212.433,204.000 211.500 C 204.000 210.233,201.667 210.000,189.000 210.000 C 176.333 210.000,174.000 209.767,174.000 208.500 C 174.000 207.675,173.325 207.000,172.500 207.000 C 171.184 207.000,171.000 200.056,171.000 150.500 C 171.000 105.975,170.735 93.997,169.750 93.985 C 168.903 93.974,168.983 93.628,170.000 92.909 C 171.129 92.110,171.191 91.722,170.250 91.341 C 169.563 91.062,169.000 89.746,169.000 88.417 C 169.000 87.088,168.520 86.000,167.933 86.000 C 167.346 86.000,165.380 84.425,163.565 82.500 C 160.827 79.597,159.559 79.000,156.132 79.000 C 153.126 79.000,152.000 78.591,152.000 77.500 C 152.000 76.567,151.056 76.000,149.500 76.000 C 148.006 76.000,147.000 76.572,147.000 77.421 C 147.000 78.488,145.194 78.924,139.750 79.171 C 129.984 79.614,123.434 78.828,123.750 77.250 C 123.888 76.563,123.550 76.000,123.000 76.000 C 122.450 76.000,122.000 76.675,122.000 77.500 M324.650 290.529 C 324.960 291.338,325.841 292.000,326.607 292.000 C 327.373 292.000,328.000 292.675,328.000 293.500 C 328.000 294.325,328.482 295.000,329.071 295.000 C 332.400 295.000,333.040 297.844,333.120 312.977 C 333.180 324.352,333.537 328.394,334.574 329.431 C 335.740 330.597,335.725 330.892,334.474 331.371 C 333.663 331.683,333.000 332.851,333.000 333.969 C 333.000 335.086,332.550 336.000,332.000 336.000 C 331.450 336.000,331.000 336.675,331.000 337.500 C 331.000 338.325,330.325 339.000,329.500 339.000 C 328.675 339.000,328.000 339.450,328.000 340.000 C 328.000 340.629,321.476 341.000,310.429 341.000 C 290.818 341.000,290.000 340.743,290.000 334.571 C 290.000 332.185,289.538 331.000,288.607 331.000 C 286.882 331.000,286.332 329.451,286.568 325.250 C 286.668 323.462,286.806 318.850,286.875 315.000 C 286.973 309.500,287.321 308.000,288.500 308.000 C 289.652 308.000,290.000 306.722,290.000 302.500 C 290.000 299.366,290.447 297.000,291.038 297.000 C 291.609 297.000,291.946 295.762,291.788 294.250 C 291.530 291.784,291.784 291.533,294.250 291.822 C 296.036 292.030,297.000 291.676,297.000 290.810 C 297.000 288.742,323.859 288.470,324.650 290.529 " stroke="none" fill="#000000" fill-rule="evenodd"></path></g></svg>