<svg width="100%" height="100%" viewBox="0 0 400 359" version="1.1" xmlns="http://www.w3.org/2000/svg" style="fill-rule:evenodd;clip-rule:evenodd;stroke-linejoin:round;stroke-miterlimit:2;">
<g>
<path d="M124,21.86C124,23.832 120.173,22.813 118.266,23.312C116.234,23.844 114.159,24.24 112.183,24.952C106.327,27.063 98.216,36.704 96.05,43C92.511,53.289 90,66.141 90,77C90,88.649 93.723,100.11 94.585,111.638L95.27,120.775L90.135,121.481C85.486,122.121 80.348,124.909 76,126.616C60.792,132.585 42.841,141.346 33,154.564C31,157.251 25.372,162.628 24.75,166.25C22.965,176.65 22.965,182.35 24.75,192.75C24.953,193.935 27.269,196.472 28,197.518C31.556,202.602 35.294,207.752 39.859,212C50.303,221.719 64.714,229.047 78,234.012C81.332,235.257 84.681,236.313 88,237.616C89.88,238.354 93.024,238.056 93.569,240C96.324,249.833 92.077,261.083 91,271C90.585,274.825 90,278.652 90,282.5C90,298.923 94.484,325.97 112,333.939C136.941,345.287 166.373,328.314 186.135,313C190.101,309.926 193.896,306.635 197.851,303.547C198.829,302.783 199.339,301.221 200.559,300.991C203.834,300.373 206.056,304.774 208.636,306.883C218.474,314.924 228.843,323.36 240.084,329.356C245.252,332.112 252.145,334.256 257.75,335.633C262.464,336.791 266.545,338.004 271.5,338C275.816,337.997 279.572,337.206 283.529,335.75C306.403,327.332 310,300.486 310,279C310,272.325 309.532,265.654 309,259C308.591,253.89 306,248.731 306,243.594L306,238.188L311,237.5C318.048,236.531 325.585,231.831 332,229C346.399,222.644 361.764,213.751 370.5,200.362C374.323,194.502 379,186.794 379,179.5C379,172.635 374.945,164.774 371.25,159.479C361.102,144.937 344.431,134.656 328,128.128C322.511,125.947 315.846,122.304 309.931,121.491L304.863,120.793L305.562,114.147C306.266,107.442 308.382,100.776 309,94C310.574,76.747 310.183,59.32 303.906,43C297.588,26.574 280.861,18.956 264,21.858C243.28,25.425 221.44,39.182 206.774,53.987L200.842,59.975L197.553,56.487C193.327,52.006 187.475,48.744 182.646,45C172.974,37.5 159.966,27.968 147.813,24.94C141.994,23.49 134.046,20.997 128,21C126.636,21.001 124,20.496 124,21.86M142.824,41.973C143.558,44.168 151.314,46.29 153,47.111C162.377,51.676 169.715,57.698 177.885,64C178.398,64.396 188.088,71.811 188,72.608C187.682,75.489 183.749,76.559 181.798,78.702C179.221,81.532 176.935,84.613 174.5,87.565C170.457,92.466 166.958,97.763 163.25,102.897C161.823,104.873 160.048,107.739 157.31,108.309C149.647,109.902 141.74,109.967 134,111.124C127.981,112.024 119.841,115.759 114,113.377C113.488,113.168 113.207,112.537 113.075,112C112.958,111.526 109.919,94.492 109.871,94C108.633,81.285 108.033,67.93 111.455,55.513C112.604,51.343 113.689,47.703 116.659,44.394C121.93,38.522 123.319,39.94 132.643,40.508C136.065,40.716 141.741,38.72 142.824,41.973M282.414,43.482C291.518,52.327 291.037,68.5 291,79.5C290.965,90.023 289.773,100.07 288.365,110.353L287.73,114.986L282.115,114.341C276.805,113.732 271.342,111.926 266,111.12C259.421,110.128 247.464,108.835 241.288,107.003C237.566,105.899 236.026,100.108 234,97.099C229.794,90.853 224.089,85.587 219.44,79.683C218.266,78.192 217.534,76.32 216.109,75.066L213.343,72.632L218.185,67.816C227.406,58.644 238.503,50.975 250.5,45.566C253.3,44.303 257.455,40.429 260.392,40.137C266.372,39.542 277.565,38.773 282.414,43.482M202,86.487C202,87.461 202.876,88.241 203.469,89.013C204.55,90.422 205.848,91.649 207,93C208.846,95.164 210.32,97.643 212.274,99.71C212.909,100.381 213.202,99.855 213.773,100.572C214.853,101.929 214.25,102.264 215.493,103.507C216.492,104.506 218.999,104.227 219.159,105.631C219.237,106.308 217.946,106.353 217.267,106.404C206.848,107.189 195.455,107.192 185.028,106.452C184.294,106.4 183.151,106.426 182.945,105.719C182.634,104.649 185.004,104.601 185.559,103.635C186.357,102.25 185.587,102.073 186.281,100.597C186.711,99.681 189.818,98.069 190.449,97.436C192.971,94.902 194.192,91.793 196.704,89.091C198.084,87.606 199.602,86.232 201.25,85.05C201.689,84.735 202,85.947 202,86.487M224,125C224,126.187 226.255,125.764 227.418,126C229.089,126.34 230.943,125.99 232.482,126.723C234.52,127.695 237.468,134.562 239,136.5C244.827,143.869 248.788,152.706 253.045,161C256.224,167.195 260.512,172.79 263.329,179.225C263.89,180.506 262.189,181.783 261.5,183C259.728,186.127 258.496,189.451 256.589,192.5C251.052,201.354 245.969,210.751 241,219.969C239.163,223.377 236.138,229.27 233.181,231.579C224.418,238.423 211.119,235 200,235C195.968,235 178.984,237.242 170.5,233C166.002,230.751 163.865,225.054 161,221.133C154.494,212.231 148.115,201.59 143.566,191.5C141.781,187.542 138.674,184.097 138.674,179.5C138.674,174.853 140.238,174.274 141.955,171C145.462,164.31 149.81,157.906 153,151.071C156.313,143.973 160.983,137.703 165.424,131.25C165.877,130.592 168.031,126.641 169.083,126.325C177.55,123.785 195.998,124 201,124C208.674,124 224,117.326 224,125M146,128C146,129.018 144.761,128.967 144.294,129.734C143.628,130.831 143.555,132.181 142.858,133.266C142.504,133.815 141.646,133.894 141.288,134.441C140.833,135.136 141.169,135.866 140.706,136.559C140.193,137.329 139.709,136.754 139.294,137.597C138.581,139.044 139.357,139.25 138.559,140.635C137.818,141.924 137.229,141.303 136.441,142.601C135.665,143.877 136.343,144.038 135.776,145.444C135.482,146.17 134.602,146.511 134.187,147.175C133.122,148.882 132.36,151.159 131.221,152.825C130.729,153.543 129.685,153.81 129.295,154.588C129.08,155.015 129.13,158.567 128.047,157.899C126.44,156.909 126.514,153.532 125.822,152.028C125.496,151.319 124.559,150.995 124.281,150.266C123.889,149.241 124.106,147.762 123.734,146.734C123.262,145.431 122.661,145.814 122.252,144.531C121.521,142.238 121.479,139.762 120.748,137.469C120.354,136.233 118.759,135.553 119,134.131C119.239,132.72 120.543,132.23 121.743,131.865C124.814,130.93 128.241,131.795 131.192,130.709C132.55,130.21 132.164,129.558 133.616,129.294C136.171,128.829 138.829,129.171 141.384,128.706C142.673,128.472 142.374,128.005 143.441,127.294C144.069,126.875 146,126.804 146,128M262.583,129C263.861,129 265.147,129.052 266.409,129.251C267.704,129.456 268.806,130.372 270.091,130.634C271.747,130.972 273.445,131.065 275.118,131.307C277.493,131.651 279.888,131.887 282.234,132.392C282.608,132.472 283.175,132.66 283.18,133.042C283.185,133.426 282.53,133.457 282.25,133.72C281.921,134.029 281.548,134.332 281.367,134.745C280.624,136.449 281.363,136.574 280.744,138.29C280.477,139.03 279.602,139.439 279.324,140.175C278.702,141.821 278.539,144.191 277.874,145.825C277.548,146.626 276.561,147.06 276.29,147.881C275.844,149.236 276.157,150.766 275.706,152.119C275.383,153.087 274.86,152.592 274.294,153.441C273.831,154.134 274.221,155.973 272.929,156C269.358,156.074 267.982,149.442 267.052,147.699C265.176,144.185 264.613,144.596 262.542,141.206C261.274,139.13 261.727,138.827 260.4,136.76C259.14,134.796 258.434,134.936 257.398,132.749C256.97,131.844 256.711,130.862 256.492,129.884C256.321,129.118 255.659,127.832 256.384,127.532C257.112,127.23 257.688,128.504 258.46,128.665C259.81,128.946 261.204,129 262.583,129M102,139.5C102,141.889 103.718,143.964 104.412,146.25C106.758,153.984 110.065,161.398 113.128,169C114.676,172.843 116.5,174.713 116.5,179.5C116.5,188.432 109.331,198.072 106.187,206.074C104.486,210.401 103.804,215.155 102,219.5C101.63,220.391 101.7,221.941 100.75,222.111C95.161,223.113 86.926,218.062 82,215.955C70.243,210.927 59.46,205.132 50.146,195.975C42.884,188.836 38.966,183.444 41.857,173.214C43.048,169.001 47.024,166.094 50.146,163.025C60.945,152.409 74.235,146.787 88,141.384C90.377,140.451 102,134.071 102,139.5M303,138C303,138.123 307.938,139.885 308,139.906C312.011,141.243 316.148,142.241 320,144C330.772,148.92 343.338,155.293 351.949,163.484C354.221,165.646 355.755,167.597 357.393,170.339C362.147,178.3 359.109,186.407 354,193.214C350.753,197.54 345.652,200.07 341.26,203C334.414,207.568 327.443,211.448 320,215C315.159,217.31 307.941,221.395 302.5,222C299.681,222.313 299.826,218.859 299,217C296.979,212.452 295.761,207.684 293.864,203.131C291.83,198.247 289.446,192.773 286.955,188C285.261,184.753 283.796,184.092 283.764,179.512C283.729,174.474 285.307,174.48 286.988,171C288.863,167.118 290.246,162.947 292,159C294.61,153.128 296.386,146.882 299,141C299.086,140.807 303,134.205 303,138M192.75,146.684C189.188,147.003 186.283,148.952 183.526,151C173.14,158.714 168.049,166.395 168,179.5C167.987,183.013 168.281,186.545 168.921,190L172.079,196C177.545,205.879 188.977,212 200,212C215.36,212 227.4,202.721 232,188C232.917,185.066 234,182.796 234,179.5C234,174.878 231.698,168.971 229.623,164.866C228.164,161.978 226.116,156.814 223.516,154.627C222.326,153.626 220.697,153.299 219.362,152.5C210.675,147.296 203.651,145.707 192.75,146.684M129,203C129,205.143 130.387,205.084 131.49,206.892C132.576,208.674 132.918,210.922 134.299,212.486C134.701,212.942 135.465,212.965 135.74,213.588C136.127,214.463 135.872,215.538 136.262,216.413C136.528,217.008 137.367,217.177 137.706,217.734C138.372,218.831 138.445,220.181 139.142,221.266C139.496,221.815 140.354,221.894 140.712,222.441C141.144,223.101 140.864,223.89 141.262,224.559C141.579,225.093 142.384,225.204 142.706,225.734C143.372,226.831 143.445,228.181 144.142,229.266C144.592,229.965 147.623,230.949 144.972,231.706C143.601,232.098 141.399,232.098 140.028,231.706C138.503,231.27 138.843,230.557 137.25,230.291C134.449,229.825 131.551,230.175 128.75,229.709C127.103,229.434 127.44,228.698 125.825,228.294C124.235,227.896 119.729,228.805 119.119,226.84C118.347,224.353 120.108,223.538 120.748,221.531C121.479,219.238 121.521,216.762 122.252,214.469C122.636,213.264 123.085,213.634 123.734,212.559C124.131,211.901 123.87,211.101 124.26,210.441C124.859,209.428 125.324,209.793 125.711,208.678C126.454,206.536 126.217,202.863 127.976,201.14C128.481,200.645 129,202.292 129,203M275.066,206C276.237,206 275.989,208.799 276.256,209.413C276.723,210.484 277.258,210.07 277.676,211.175C278.298,212.821 278.461,215.191 279.126,216.825C279.438,217.591 280.406,217.965 280.71,218.734C281.148,219.844 280.851,221.158 281.294,222.266C281.823,223.589 284.384,224.284 282.379,226.19C280.288,228.178 276.403,227.782 273.875,228C273.194,228.059 272.491,228.069 271.845,228.294C270.533,228.75 270.94,229.424 269.531,229.706C267.215,230.17 264.785,229.83 262.469,230.294C261.127,230.562 261.527,231.202 260.266,231.706C258.701,232.332 256.373,232.027 255.949,230.059C255.477,227.871 257.689,227.832 258.559,226.399C259.345,225.106 258.62,224.918 259.262,223.556C259.537,222.972 260.371,222.817 260.706,222.266C261.372,221.169 261.445,219.819 262.142,218.734C262.496,218.185 263.354,218.106 263.712,217.559C264.133,216.916 263.887,216.104 264.225,215.441C264.998,213.923 266.379,212.766 267.136,211.24C269.089,207.299 268.174,206.77 271.25,203.632L273.5,201.335L273.816,203.667C273.99,204.95 274.553,206 275.066,206M288.37,246.25C292.609,262.105 294.011,279.915 291,296C289.711,302.888 287.544,310.536 282.289,315.639L278.578,319.243L268.091,318.777C256.791,318.275 248.393,312.517 239,306.981C236.453,305.48 232.028,304.145 230,302.153C229.139,301.307 228.878,299.981 228.056,299.096C225.375,296.205 221.613,294.496 218.791,291.742L213.405,286.483L218.655,281.492C224.602,275.837 229.528,268.166 234.592,261.699C236.528,259.226 239.176,251.945 242.501,251.239C244.261,250.865 267.154,248.15 269,247.888C273.549,247.243 277.801,245.649 282.25,244.732C285.598,244.042 287.442,242.788 288.37,246.25M121,246C121,247.673 124.273,246.69 125.917,247C127.663,247.33 129.407,247.678 131.167,247.919C139.798,249.102 148.593,249.085 157.155,250.693C161.171,251.447 162.943,255.937 165,258.859C170.172,266.205 175.783,273.633 181.798,280.298C183.755,282.467 188.843,283.693 188,286.49C186.52,291.4 180.578,293.571 176.765,297C164.976,307.6 147.425,318.5 131.382,318.5L120.43,318.5L117.215,315.216C113.86,311.787 112.679,307.928 111.455,303.487C108.036,291.081 108.617,277.705 109.862,265C109.951,264.094 113.286,246.477 113.311,246.431C114.047,245.098 116.151,245.155 117.671,245.07C118.821,245.005 121,244.848 121,246M219,252.933C219,254.169 216.238,254.689 215.588,255.445C214.759,256.409 214.736,257.881 213.978,258.901C212.435,260.979 210.712,262.001 209.058,263.963C207.257,266.102 206.531,268.342 204.47,270.463L200.94,274.098L196.97,270.088C193.731,266.816 192.181,262.534 188.442,259.774C187.79,259.293 186.618,259.048 186.129,258.266C185.466,257.206 185.353,255.8 184.706,254.734C184.201,253.903 183.875,254.393 183.262,253.706C183.095,253.519 182.761,253.077 183,253C187.062,251.694 200.079,252 201,252C205.309,252 209.621,252.04 213.925,252.263C215.629,252.351 219,251.227 219,252.933"/>
</g>
</svg>
