<svg id="svg" version="1.1" width="400" height="359" xmlns="http://www.w3.org/2000/svg" xmlns:xlink="http://www.w3.org/1999/xlink" style="display: block;"><g id="svgg"><path id="path0" d="M124.000 21.860 C 124.000 22.333,121.420 22.987,118.266 23.312 C 115.112 23.637,112.375 24.375,112.183 24.952 C 111.991 25.528,111.372 26.000,110.808 26.000 C 109.139 26.000,99.000 36.640,99.000 38.391 C 99.000 39.276,98.550 40.000,98.000 40.000 C 97.450 40.000,97.000 40.675,97.000 41.500 C 97.000 42.325,96.572 43.000,96.050 43.000 C 95.527 43.000,94.794 45.700,94.420 49.000 C 94.047 52.300,93.350 55.000,92.871 55.000 C 92.392 55.000,92.000 57.700,92.000 61.000 C 92.000 64.333,91.556 67.000,91.000 67.000 C 90.400 67.000,90.000 71.000,90.000 77.000 C 90.000 83.000,90.400 87.000,91.000 87.000 C 91.577 87.000,92.000 90.139,92.000 94.417 C 92.000 98.496,92.428 101.983,92.950 102.167 C 93.473 102.350,94.209 106.612,94.585 111.638 L 95.270 120.775 90.135 121.481 C 87.311 121.870,85.000 122.595,85.000 123.094 C 85.000 123.592,83.875 124.000,82.500 124.000 C 81.125 124.000,80.000 124.445,80.000 124.988 C 80.000 125.532,78.200 126.264,76.000 126.616 C 73.800 126.968,72.000 127.648,72.000 128.128 C 72.000 128.608,71.100 129.000,70.000 129.000 C 68.900 129.000,68.000 129.414,68.000 129.921 C 68.000 130.427,66.650 131.138,65.000 131.500 C 63.350 131.862,62.000 132.573,62.000 133.079 C 62.000 133.586,61.100 134.000,60.000 134.000 C 58.900 134.000,58.000 134.401,58.000 134.892 C 58.000 135.382,56.875 136.066,55.500 136.411 C 54.125 136.756,53.000 137.480,53.000 138.019 C 53.000 138.559,52.325 139.000,51.500 139.000 C 50.675 139.000,50.000 139.420,50.000 139.933 C 50.000 140.446,49.026 141.174,47.835 141.552 C 46.644 141.930,44.598 143.311,43.289 144.620 C 41.980 145.929,40.354 147.000,39.675 147.000 C 38.997 147.000,37.780 147.955,36.971 149.123 C 36.162 150.290,34.938 151.833,34.250 152.551 C 33.563 153.269,33.000 154.175,33.000 154.564 C 33.000 154.953,31.875 156.313,30.500 157.588 C 29.125 158.862,28.000 160.601,28.000 161.452 C 28.000 162.304,27.550 163.000,27.000 163.000 C 26.450 163.000,26.000 163.637,26.000 164.417 C 26.000 165.196,25.438 166.021,24.750 166.250 C 22.965 166.845,22.965 192.155,24.750 192.750 C 25.438 192.979,26.000 193.804,26.000 194.583 C 26.000 195.362,26.450 196.000,27.000 196.000 C 27.550 196.000,28.000 196.683,28.000 197.518 C 28.000 198.352,29.575 200.565,31.500 202.434 C 33.425 204.304,35.000 206.252,35.000 206.764 C 35.000 208.154,38.568 212.000,39.859 212.000 C 40.477 212.000,42.273 213.350,43.850 215.000 C 45.426 216.650,47.347 218.000,48.118 218.000 C 48.888 218.000,50.046 218.843,50.689 219.874 C 51.333 220.905,53.102 222.060,54.621 222.441 C 56.139 222.822,58.135 224.003,59.056 225.065 C 59.978 226.127,62.142 227.278,63.866 227.623 C 65.590 227.968,67.000 228.644,67.000 229.125 C 67.000 229.606,67.675 230.000,68.500 230.000 C 69.325 230.000,70.000 230.392,70.000 230.872 C 70.000 231.352,71.800 232.032,74.000 232.384 C 76.200 232.736,78.000 233.468,78.000 234.012 C 78.000 234.555,79.350 235.000,81.000 235.000 C 82.650 235.000,84.000 235.445,84.000 235.988 C 84.000 236.532,85.800 237.264,88.000 237.616 C 90.200 237.968,92.000 238.648,92.000 239.128 C 92.000 239.608,92.706 240.000,93.569 240.000 C 95.308 240.000,94.631 256.150,92.863 256.833 C 92.388 257.017,92.000 260.279,92.000 264.083 C 92.000 268.028,91.570 271.000,91.000 271.000 C 90.391 271.000,90.000 275.500,90.000 282.500 C 90.000 289.500,90.391 294.000,91.000 294.000 C 91.550 294.000,92.000 296.250,92.000 299.000 C 92.000 301.750,92.392 304.000,92.871 304.000 C 93.350 304.000,94.047 306.700,94.420 310.000 C 94.794 313.300,95.527 316.000,96.050 316.000 C 96.572 316.000,97.000 316.675,97.000 317.500 C 97.000 318.325,97.450 319.000,98.000 319.000 C 98.550 319.000,99.000 319.724,99.000 320.609 C 99.000 322.410,109.162 333.000,110.891 333.000 C 111.501 333.000,112.000 333.422,112.000 333.939 C 112.000 334.455,114.025 335.181,116.500 335.552 C 118.975 335.923,121.000 336.626,121.000 337.114 C 121.000 337.601,124.375 338.000,128.500 338.000 C 132.625 338.000,136.000 337.614,136.000 337.142 C 136.000 336.671,138.813 335.991,142.250 335.633 C 145.688 335.274,148.650 334.535,148.833 333.990 C 149.017 333.446,150.254 333.000,151.583 333.000 C 152.912 333.000,154.000 332.550,154.000 332.000 C 154.000 331.450,154.814 331.000,155.809 331.000 C 156.804 331.000,158.491 330.339,159.559 329.532 C 160.626 328.724,162.287 328.049,163.250 328.032 C 164.213 328.014,165.000 327.550,165.000 327.000 C 165.000 326.450,165.675 326.000,166.500 326.000 C 167.325 326.000,168.000 325.599,168.000 325.108 C 168.000 324.618,169.125 323.934,170.500 323.589 C 171.875 323.244,173.000 322.520,173.000 321.981 C 173.000 321.441,173.675 321.000,174.500 321.000 C 175.325 321.000,176.000 320.580,176.000 320.067 C 176.000 319.554,176.974 318.826,178.165 318.448 C 179.356 318.070,181.402 316.689,182.711 315.380 C 184.020 314.071,185.561 313.000,186.135 313.000 C 186.709 313.000,189.096 311.027,191.441 308.615 C 193.785 306.203,196.670 303.922,197.851 303.547 C 199.033 303.172,200.000 302.446,200.000 301.933 C 200.000 299.688,203.015 301.416,208.636 306.883 C 211.963 310.118,215.633 313.066,216.791 313.434 C 217.950 313.801,219.176 314.979,219.516 316.051 C 219.856 317.123,221.019 318.000,222.099 318.000 C 223.179 318.000,224.322 318.675,224.638 319.500 C 224.955 320.325,226.018 321.000,227.000 321.000 C 227.982 321.000,229.045 321.675,229.362 322.500 C 229.678 323.325,230.851 324.000,231.969 324.000 C 233.086 324.000,234.000 324.450,234.000 325.000 C 234.000 325.550,234.675 326.000,235.500 326.000 C 236.325 326.000,237.000 326.353,237.000 326.784 C 237.000 328.020,242.588 331.000,244.904 331.000 C 246.057 331.000,247.000 331.450,247.000 332.000 C 247.000 332.550,247.862 333.000,248.917 333.000 C 249.971 333.000,250.983 333.446,251.167 333.990 C 251.350 334.535,254.313 335.274,257.750 335.633 C 261.188 335.991,264.000 336.671,264.000 337.142 C 264.000 337.614,267.375 338.000,271.500 338.000 C 275.625 338.000,279.000 337.609,279.000 337.130 C 279.000 336.652,281.038 336.030,283.529 335.750 C 286.431 335.423,288.718 334.478,289.896 333.120 C 290.907 331.954,292.244 331.000,292.867 331.000 C 294.459 331.000,298.000 327.280,298.000 325.607 C 298.000 324.841,298.675 323.955,299.500 323.638 C 300.325 323.322,301.000 322.149,301.000 321.031 C 301.000 319.914,301.450 319.000,302.000 319.000 C 302.550 319.000,303.000 318.325,303.000 317.500 C 303.000 316.675,303.445 316.000,303.988 316.000 C 304.532 316.000,305.264 314.200,305.616 312.000 C 305.968 309.800,306.648 308.000,307.128 308.000 C 307.608 308.000,308.000 305.975,308.000 303.500 C 308.000 301.025,308.450 299.000,309.000 299.000 C 309.633 299.000,310.000 291.667,310.000 279.000 C 310.000 266.333,309.633 259.000,309.000 259.000 C 308.450 259.000,308.000 256.750,308.000 254.000 C 308.000 251.250,307.550 249.000,307.000 249.000 C 306.450 249.000,306.000 246.567,306.000 243.594 L 306.000 238.188 311.000 237.500 C 313.750 237.122,316.000 236.405,316.000 235.906 C 316.000 235.408,316.900 235.000,318.000 235.000 C 319.100 235.000,320.000 234.608,320.000 234.128 C 320.000 233.648,321.800 232.968,324.000 232.616 C 326.200 232.264,328.000 231.532,328.000 230.988 C 328.000 230.445,328.900 230.000,330.000 230.000 C 331.100 230.000,332.000 229.550,332.000 229.000 C 332.000 228.450,333.139 228.000,334.531 228.000 C 335.924 228.000,337.322 227.325,337.638 226.500 C 337.955 225.675,339.066 225.000,340.107 225.000 C 341.148 225.000,342.000 224.586,342.000 224.079 C 342.000 223.573,343.371 222.858,345.048 222.490 C 346.724 222.121,348.632 220.961,349.288 219.910 C 349.944 218.860,351.210 218.000,352.100 218.000 C 352.991 218.000,354.565 216.875,355.597 215.500 C 356.630 214.125,358.022 213.000,358.692 213.000 C 360.092 213.000,365.000 208.349,365.000 207.022 C 365.000 206.534,365.900 205.849,367.000 205.500 C 368.106 205.149,369.000 203.987,369.000 202.901 C 369.000 201.821,369.675 200.678,370.500 200.362 C 371.325 200.045,372.000 199.119,372.000 198.303 C 372.000 197.488,372.912 196.073,374.027 195.160 C 375.389 194.045,376.255 191.777,376.666 188.250 C 377.003 185.363,377.666 183.000,378.139 183.000 C 378.613 183.000,379.000 181.425,379.000 179.500 C 379.000 177.575,378.613 176.000,378.139 176.000 C 377.666 176.000,377.016 173.784,376.695 171.076 C 376.047 165.599,374.602 162.522,371.250 159.479 C 370.012 158.356,369.000 156.693,369.000 155.786 C 369.000 154.878,368.100 153.849,367.000 153.500 C 365.900 153.151,365.000 152.466,365.000 151.978 C 365.000 150.651,360.092 146.000,358.692 146.000 C 358.022 146.000,356.630 144.875,355.597 143.500 C 354.565 142.125,352.991 141.000,352.100 141.000 C 351.210 141.000,349.944 140.140,349.288 139.090 C 348.632 138.039,346.724 136.879,345.048 136.510 C 343.371 136.142,342.000 135.427,342.000 134.921 C 342.000 134.414,341.100 134.000,340.000 134.000 C 338.900 134.000,338.000 133.586,338.000 133.079 C 338.000 132.573,336.650 131.862,335.000 131.500 C 333.350 131.138,332.000 130.427,332.000 129.921 C 332.000 129.414,331.100 129.000,330.000 129.000 C 328.900 129.000,328.000 128.608,328.000 128.128 C 328.000 127.648,326.200 126.968,324.000 126.616 C 321.800 126.264,320.000 125.532,320.000 124.988 C 320.000 124.445,318.875 124.000,317.500 124.000 C 316.125 124.000,315.000 123.592,315.000 123.094 C 315.000 122.595,312.719 121.874,309.931 121.491 L 304.863 120.793 305.562 114.147 C 305.946 110.491,306.652 107.350,307.130 107.167 C 307.609 106.983,308.000 103.946,308.000 100.417 C 308.000 96.806,308.437 94.000,309.000 94.000 C 309.624 94.000,310.000 88.167,310.000 78.500 C 310.000 68.833,309.624 63.000,309.000 63.000 C 308.450 63.000,308.000 60.750,308.000 58.000 C 308.000 55.250,307.592 53.000,307.094 53.000 C 306.595 53.000,305.878 50.750,305.500 48.000 C 305.122 45.250,304.405 43.000,303.906 43.000 C 303.408 43.000,303.000 42.325,303.000 41.500 C 303.000 40.675,302.550 40.000,302.000 40.000 C 301.450 40.000,301.000 39.163,301.000 38.140 C 301.000 37.117,299.902 35.456,298.560 34.448 C 297.218 33.440,295.860 31.577,295.541 30.308 C 295.223 29.039,294.236 28.000,293.348 28.000 C 292.461 28.000,290.907 27.046,289.896 25.880 C 288.718 24.522,286.431 23.577,283.529 23.250 C 281.038 22.970,279.000 22.348,279.000 21.870 C 279.000 21.391,275.625 21.000,271.500 21.000 C 267.375 21.000,264.000 21.386,264.000 21.858 C 264.000 22.329,261.188 23.009,257.750 23.367 C 254.313 23.726,251.350 24.465,251.167 25.010 C 250.983 25.554,249.971 26.000,248.917 26.000 C 247.862 26.000,247.000 26.414,247.000 26.921 C 247.000 27.427,245.650 28.138,244.000 28.500 C 242.350 28.862,241.000 29.573,241.000 30.079 C 241.000 30.586,240.100 31.000,239.000 31.000 C 237.900 31.000,237.000 31.450,237.000 32.000 C 237.000 32.550,236.325 33.000,235.500 33.000 C 234.675 33.000,234.000 33.450,234.000 34.000 C 234.000 34.550,233.086 35.000,231.969 35.000 C 230.851 35.000,229.678 35.675,229.362 36.500 C 229.045 37.325,227.982 38.000,227.000 38.000 C 226.018 38.000,224.955 38.675,224.638 39.500 C 224.322 40.325,223.179 41.000,222.099 41.000 C 221.019 41.000,219.856 41.877,219.516 42.949 C 219.176 44.021,218.021 45.176,216.949 45.516 C 215.877 45.856,215.000 46.554,215.000 47.067 C 215.000 47.580,214.484 48.000,213.853 48.000 C 213.222 48.000,210.036 50.694,206.774 53.987 L 200.842 59.975 197.553 56.487 C 195.744 54.569,193.826 53.000,193.291 53.000 C 192.756 53.000,190.482 51.200,188.238 49.000 C 185.993 46.800,183.477 45.000,182.646 45.000 C 181.815 45.000,180.849 44.100,180.500 43.000 C 180.149 41.894,178.987 41.000,177.901 41.000 C 176.821 41.000,175.678 40.325,175.362 39.500 C 175.045 38.675,173.982 38.000,173.000 38.000 C 172.018 38.000,170.955 37.325,170.638 36.500 C 170.322 35.675,169.149 35.000,168.031 35.000 C 166.914 35.000,166.000 34.550,166.000 34.000 C 166.000 33.450,165.325 33.000,164.500 33.000 C 163.675 33.000,163.000 32.550,163.000 32.000 C 163.000 31.450,162.100 31.000,161.000 31.000 C 159.900 31.000,159.000 30.586,159.000 30.079 C 159.000 29.573,157.650 28.862,156.000 28.500 C 154.350 28.138,153.000 27.427,153.000 26.921 C 153.000 26.414,151.912 26.000,150.583 26.000 C 149.254 26.000,148.008 25.523,147.813 24.940 C 147.619 24.357,143.982 23.617,139.730 23.296 C 135.479 22.974,132.000 22.326,132.000 21.856 C 132.000 21.385,130.200 21.000,128.000 21.000 C 125.800 21.000,124.000 21.387,124.000 21.860 M142.824 41.973 C 143.013 42.538,143.804 43.000,144.583 43.000 C 145.363 43.000,146.000 43.430,146.000 43.955 C 146.000 44.480,147.575 45.205,149.500 45.566 C 151.425 45.927,153.000 46.623,153.000 47.111 C 153.000 47.600,153.675 48.000,154.500 48.000 C 155.325 48.000,156.000 48.414,156.000 48.921 C 156.000 49.427,157.462 50.162,159.249 50.555 C 161.036 50.947,163.174 52.044,163.999 52.991 C 164.825 53.939,166.489 55.026,167.699 55.408 C 168.908 55.790,170.176 56.979,170.516 58.051 C 170.856 59.123,171.797 60.000,172.607 60.000 C 173.417 60.000,175.792 61.800,177.885 64.000 C 179.978 66.200,182.270 68.000,182.978 68.000 C 184.052 68.000,188.000 71.622,188.000 72.608 C 188.000 72.873,186.481 74.366,181.798 78.702 C 179.756 80.593,178.000 82.853,178.000 83.590 C 178.000 83.960,176.425 85.749,174.500 87.565 C 172.575 89.380,171.000 91.410,171.000 92.075 C 171.000 92.739,169.650 94.574,168.000 96.150 C 166.350 97.727,165.000 99.523,165.000 100.141 C 165.000 100.760,164.213 102.000,163.250 102.897 C 162.287 103.794,161.004 105.422,160.397 106.514 C 159.433 108.251,157.712 108.609,146.647 109.374 C 139.691 109.855,134.000 110.642,134.000 111.124 C 134.000 111.606,131.787 112.000,129.083 112.000 C 126.379 112.000,124.017 112.385,123.833 112.856 C 123.219 114.434,114.000 114.923,114.000 113.377 C 114.000 112.620,113.584 112.000,113.075 112.000 C 112.566 112.000,111.833 107.950,111.446 103.000 C 111.059 98.050,110.350 94.000,109.871 94.000 C 108.725 94.000,108.737 62.281,109.883 61.572 C 110.369 61.272,111.076 58.545,111.455 55.513 C 111.834 52.481,112.562 50.000,113.072 50.000 C 113.582 50.000,114.000 49.341,114.000 48.534 C 114.000 46.964,118.731 41.693,121.079 40.648 C 123.305 39.657,142.441 40.823,142.824 41.973 M282.414 43.482 C 284.386 45.398,286.000 47.610,286.000 48.399 C 286.000 49.188,286.494 49.998,287.098 50.199 C 287.702 50.401,288.436 52.688,288.728 55.283 C 289.021 57.877,289.652 60.000,290.130 60.000 C 290.609 60.000,291.000 68.775,291.000 79.500 C 291.000 91.833,290.632 99.000,290.000 99.000 C 289.450 99.000,289.000 100.512,289.000 102.360 C 289.000 104.209,288.714 107.805,288.365 110.353 L 287.730 114.986 282.115 114.341 C 279.027 113.987,276.350 113.315,276.167 112.848 C 275.983 112.382,273.621 112.000,270.917 112.000 C 268.212 112.000,266.000 111.604,266.000 111.120 C 266.000 110.636,260.815 109.916,254.477 109.520 C 242.610 108.778,237.000 106.214,237.000 101.530 C 237.000 100.806,236.325 99.955,235.500 99.638 C 234.675 99.322,234.000 98.179,234.000 97.099 C 234.000 96.019,233.123 94.856,232.051 94.516 C 230.979 94.176,229.824 93.021,229.484 91.949 C 229.144 90.877,228.446 90.000,227.933 90.000 C 227.420 90.000,227.000 89.325,227.000 88.500 C 227.000 87.675,226.580 87.000,226.067 87.000 C 225.554 87.000,224.856 86.123,224.516 85.051 C 224.176 83.979,223.022 82.824,221.951 82.485 C 220.881 82.145,219.751 80.884,219.440 79.683 C 219.130 78.483,217.631 76.405,216.109 75.066 L 213.343 72.632 218.185 67.816 C 220.848 65.167,223.450 63.000,223.968 63.000 C 225.198 63.000,230.000 58.188,230.000 56.955 C 230.000 56.430,230.914 56.000,232.031 56.000 C 233.149 56.000,234.322 55.325,234.638 54.500 C 234.955 53.675,236.066 53.000,237.107 53.000 C 238.148 53.000,239.000 52.559,239.000 52.019 C 239.000 51.480,240.125 50.756,241.500 50.411 C 242.875 50.066,244.000 49.382,244.000 48.892 C 244.000 48.401,244.675 48.000,245.500 48.000 C 246.325 48.000,247.000 47.600,247.000 47.111 C 247.000 46.623,248.575 45.927,250.500 45.566 C 252.425 45.205,254.000 44.480,254.000 43.955 C 254.000 43.430,254.675 43.000,255.500 43.000 C 256.325 43.000,257.000 42.580,257.000 42.066 C 257.000 38.300,278.299 39.486,282.414 43.482 M202.000 86.487 C 202.000 87.305,204.250 90.235,207.000 93.000 C 209.750 95.765,212.000 98.470,212.000 99.013 C 212.000 99.556,212.420 100.000,212.933 100.000 C 213.446 100.000,214.144 100.877,214.484 101.949 C 214.824 103.021,215.979 104.176,217.051 104.516 C 222.476 106.238,217.552 107.000,201.000 107.000 C 184.808 107.000,180.101 106.326,184.500 104.638 C 185.325 104.322,186.000 103.149,186.000 102.031 C 186.000 100.914,186.430 100.000,186.955 100.000 C 188.211 100.000,193.000 95.188,193.000 93.926 C 193.000 92.792,200.126 85.126,201.250 85.050 C 201.662 85.023,202.000 85.669,202.000 86.487 M224.000 125.000 C 224.000 125.550,225.538 126.000,227.418 126.000 C 232.147 126.000,234.000 126.883,234.000 129.138 C 234.000 130.197,234.675 131.322,235.500 131.638 C 236.325 131.955,237.000 133.036,237.000 134.040 C 237.000 135.044,237.900 136.151,239.000 136.500 C 240.106 136.851,241.000 138.013,241.000 139.099 C 241.000 140.179,241.675 141.322,242.500 141.638 C 243.325 141.955,244.000 143.066,244.000 144.107 C 244.000 145.148,244.401 146.000,244.892 146.000 C 245.382 146.000,246.066 147.125,246.411 148.500 C 246.756 149.875,247.480 151.000,248.019 151.000 C 248.559 151.000,249.000 151.675,249.000 152.500 C 249.000 153.325,249.400 154.000,249.889 154.000 C 250.377 154.000,251.073 155.575,251.434 157.500 C 251.795 159.425,252.520 161.000,253.045 161.000 C 253.570 161.000,254.000 161.675,254.000 162.500 C 254.000 163.325,254.441 164.000,254.981 164.000 C 255.520 164.000,256.244 165.125,256.589 166.500 C 256.934 167.875,257.618 169.000,258.108 169.000 C 258.599 169.000,259.000 169.900,259.000 171.000 C 259.000 172.100,259.401 173.000,259.892 173.000 C 260.382 173.000,261.093 174.233,261.471 175.740 C 261.849 177.247,262.685 178.815,263.329 179.225 C 264.223 179.793,264.223 179.973,263.329 179.985 C 262.686 179.993,261.862 181.350,261.500 183.000 C 261.138 184.650,260.427 186.000,259.921 186.000 C 259.414 186.000,259.000 186.900,259.000 188.000 C 259.000 189.100,258.599 190.000,258.108 190.000 C 257.618 190.000,256.934 191.125,256.589 192.500 C 256.244 193.875,255.520 195.000,254.981 195.000 C 254.441 195.000,254.000 195.675,254.000 196.500 C 254.000 197.325,253.570 198.000,253.045 198.000 C 252.520 198.000,251.795 199.575,251.434 201.500 C 251.073 203.425,250.377 205.000,249.889 205.000 C 249.400 205.000,249.000 205.675,249.000 206.500 C 249.000 207.325,248.559 208.000,248.019 208.000 C 247.480 208.000,246.756 209.125,246.411 210.500 C 246.066 211.875,245.382 213.000,244.892 213.000 C 244.401 213.000,244.000 213.852,244.000 214.893 C 244.000 215.934,243.325 217.045,242.500 217.362 C 241.675 217.678,241.000 218.851,241.000 219.969 C 241.000 221.086,240.550 222.000,240.000 222.000 C 239.450 222.000,239.000 222.576,239.000 223.279 C 239.000 223.983,238.100 225.207,237.000 226.000 C 235.900 226.793,235.000 227.985,235.000 228.649 C 235.000 230.662,232.006 233.000,229.429 233.000 C 228.093 233.000,227.000 233.450,227.000 234.000 C 227.000 234.642,217.333 235.000,200.000 235.000 C 182.667 235.000,173.000 234.642,173.000 234.000 C 173.000 233.450,171.875 233.000,170.500 233.000 C 168.944 233.000,168.000 232.433,168.000 231.500 C 168.000 230.675,167.580 230.000,167.067 230.000 C 166.554 230.000,165.815 228.988,165.424 227.750 C 165.034 226.512,163.878 224.772,162.857 223.883 C 161.836 222.993,161.000 221.756,161.000 221.133 C 161.000 220.510,160.559 220.000,160.019 220.000 C 159.480 220.000,158.756 218.875,158.411 217.500 C 158.066 216.125,157.382 215.000,156.892 215.000 C 156.401 215.000,156.000 214.518,156.000 213.929 C 156.000 213.339,155.325 212.182,154.500 211.357 C 153.675 210.532,153.000 208.989,153.000 207.929 C 153.000 206.868,152.550 206.000,152.000 206.000 C 151.450 206.000,151.000 205.325,151.000 204.500 C 151.000 203.675,150.599 203.000,150.108 203.000 C 149.618 203.000,148.934 201.875,148.589 200.500 C 148.244 199.125,147.520 198.000,146.981 198.000 C 146.441 198.000,146.000 197.325,146.000 196.500 C 146.000 195.675,145.600 195.000,145.111 195.000 C 144.623 195.000,143.927 193.425,143.566 191.500 C 143.205 189.575,142.480 188.000,141.955 188.000 C 141.430 188.000,141.000 187.363,141.000 186.583 C 141.000 185.804,140.475 184.992,139.833 184.778 C 138.287 184.262,138.287 174.738,139.833 174.222 C 140.475 174.008,141.000 173.196,141.000 172.417 C 141.000 171.637,141.430 171.000,141.955 171.000 C 142.480 171.000,143.202 169.440,143.560 167.534 C 143.946 165.477,144.937 163.837,146.000 163.500 C 147.063 163.163,148.054 161.523,148.440 159.466 C 148.798 157.560,149.520 156.000,150.045 156.000 C 150.570 156.000,151.000 155.325,151.000 154.500 C 151.000 153.675,151.450 153.000,152.000 153.000 C 152.550 153.000,153.000 152.132,153.000 151.071 C 153.000 150.011,153.675 148.468,154.500 147.643 C 155.325 146.818,156.000 145.661,156.000 145.071 C 156.000 144.482,156.401 144.000,156.892 144.000 C 157.382 144.000,158.066 142.875,158.411 141.500 C 158.756 140.125,159.480 139.000,160.019 139.000 C 160.559 139.000,161.000 138.490,161.000 137.867 C 161.000 137.244,161.836 136.007,162.857 135.117 C 163.878 134.228,165.034 132.488,165.424 131.250 C 165.815 130.012,166.554 129.000,167.067 129.000 C 167.580 129.000,168.000 128.325,168.000 127.500 C 168.000 126.367,169.222 126.000,173.000 126.000 C 175.750 126.000,178.000 125.550,178.000 125.000 C 178.000 124.362,186.333 124.000,201.000 124.000 C 215.667 124.000,224.000 124.362,224.000 125.000 M146.000 128.000 C 146.000 128.550,145.599 129.000,145.108 129.000 C 144.618 129.000,143.934 130.125,143.589 131.500 C 143.244 132.875,142.520 134.000,141.981 134.000 C 141.441 134.000,141.000 134.675,141.000 135.500 C 141.000 136.325,140.550 137.000,140.000 137.000 C 139.450 137.000,139.000 137.914,139.000 139.031 C 139.000 140.149,138.325 141.322,137.500 141.638 C 136.675 141.955,136.000 143.066,136.000 144.107 C 136.000 145.148,135.656 146.000,135.236 146.000 C 134.816 146.000,133.692 147.800,132.739 150.000 C 131.786 152.200,130.555 154.000,130.003 154.000 C 129.451 154.000,129.000 154.900,129.000 156.000 C 129.000 159.315,127.269 158.249,126.566 154.500 C 126.205 152.575,125.480 151.000,124.955 151.000 C 124.430 151.000,124.000 149.875,124.000 148.500 C 124.000 147.125,123.592 146.000,123.094 146.000 C 122.595 146.000,121.878 143.750,121.500 141.000 C 121.122 138.250,120.405 136.000,119.906 136.000 C 119.408 136.000,119.000 135.159,119.000 134.131 C 119.000 132.223,122.898 131.036,129.250 131.011 C 130.762 131.005,132.000 130.550,132.000 130.000 C 132.000 129.450,134.475 129.000,137.500 129.000 C 140.525 129.000,143.000 128.550,143.000 128.000 C 143.000 127.450,143.675 127.000,144.500 127.000 C 145.325 127.000,146.000 127.450,146.000 128.000 M262.583 129.000 C 265.563 129.000,268.000 129.385,268.000 129.855 C 268.000 130.325,271.203 130.978,275.118 131.307 C 282.048 131.888,284.786 132.814,282.250 133.720 C 281.563 133.966,281.000 135.254,281.000 136.583 C 281.000 137.912,280.608 139.000,280.128 139.000 C 279.648 139.000,278.968 140.800,278.616 143.000 C 278.264 145.200,277.532 147.000,276.988 147.000 C 276.445 147.000,276.000 148.350,276.000 150.000 C 276.000 151.650,275.550 153.000,275.000 153.000 C 274.450 153.000,274.000 153.675,274.000 154.500 C 274.000 155.325,273.518 156.000,272.929 156.000 C 271.748 156.000,269.000 153.533,269.000 152.473 C 269.000 150.974,265.491 144.400,263.944 143.000 C 263.032 142.175,261.932 140.375,261.500 139.000 C 261.068 137.625,259.879 135.773,258.859 134.884 C 257.839 133.996,256.773 131.746,256.492 129.884 C 256.211 128.023,256.247 127.063,256.574 127.750 C 256.940 128.523,259.233 129.000,262.583 129.000 M102.000 139.500 C 102.000 140.875,102.392 142.000,102.872 142.000 C 103.352 142.000,104.045 143.912,104.412 146.250 C 105.168 151.054,107.111 156.000,108.244 156.000 C 108.660 156.000,109.000 157.125,109.000 158.500 C 109.000 159.875,109.445 161.000,109.988 161.000 C 110.532 161.000,111.264 162.800,111.616 165.000 C 111.968 167.200,112.648 169.000,113.128 169.000 C 113.608 169.000,114.000 169.863,114.000 170.917 C 114.000 171.971,114.563 173.021,115.250 173.250 C 116.060 173.520,116.500 175.722,116.500 179.500 C 116.500 183.278,116.060 185.480,115.250 185.750 C 114.563 185.979,114.000 187.029,114.000 188.083 C 114.000 189.137,113.608 190.000,113.128 190.000 C 112.648 190.000,111.968 191.800,111.616 194.000 C 111.264 196.200,110.532 198.000,109.988 198.000 C 109.445 198.000,109.000 199.125,109.000 200.500 C 109.000 201.875,108.660 203.000,108.244 203.000 C 107.111 203.000,105.168 207.946,104.412 212.750 C 104.045 215.088,103.352 217.000,102.872 217.000 C 102.392 217.000,102.000 218.125,102.000 219.500 C 102.000 220.875,101.438 222.050,100.750 222.111 C 97.859 222.367,94.477 221.747,94.167 220.905 C 93.983 220.407,92.746 220.000,91.417 220.000 C 90.088 220.000,89.000 219.600,89.000 219.111 C 89.000 218.623,87.425 217.927,85.500 217.566 C 83.575 217.205,82.000 216.480,82.000 215.955 C 82.000 215.430,80.875 215.000,79.500 215.000 C 78.125 215.000,77.000 214.600,77.000 214.111 C 77.000 213.623,75.425 212.927,73.500 212.566 C 71.575 212.205,70.000 211.480,70.000 210.955 C 70.000 210.430,69.490 210.000,68.867 210.000 C 68.244 210.000,67.007 209.164,66.117 208.143 C 65.228 207.122,63.487 205.966,62.250 205.576 C 61.013 205.185,60.000 204.446,60.000 203.933 C 60.000 203.420,59.398 203.000,58.661 203.000 C 56.836 203.000,43.000 189.399,43.000 187.604 C 43.000 186.814,42.486 185.995,41.857 185.786 C 40.327 185.276,40.327 173.724,41.857 173.214 C 42.486 173.005,43.000 172.186,43.000 171.396 C 43.000 169.601,56.836 156.000,58.661 156.000 C 59.398 156.000,60.000 155.559,60.000 155.019 C 60.000 154.480,61.125 153.756,62.500 153.411 C 63.875 153.066,65.000 152.382,65.000 151.892 C 65.000 151.401,65.675 151.000,66.500 151.000 C 67.325 151.000,68.000 150.550,68.000 150.000 C 68.000 149.450,68.900 149.000,70.000 149.000 C 71.100 149.000,72.000 148.586,72.000 148.079 C 72.000 147.573,73.350 146.862,75.000 146.500 C 76.650 146.138,78.000 145.427,78.000 144.921 C 78.000 144.414,79.350 144.000,81.000 144.000 C 82.650 144.000,84.000 143.555,84.000 143.012 C 84.000 142.468,85.800 141.736,88.000 141.384 C 90.200 141.032,92.000 140.352,92.000 139.872 C 92.000 139.392,93.125 139.000,94.500 139.000 C 95.875 139.000,97.000 138.550,97.000 138.000 C 97.000 137.450,98.125 137.000,99.500 137.000 C 101.500 137.000,102.000 137.500,102.000 139.500 M303.000 138.000 C 303.000 138.550,304.125 139.000,305.500 139.000 C 306.875 139.000,308.000 139.408,308.000 139.906 C 308.000 140.405,310.250 141.122,313.000 141.500 C 315.750 141.878,318.000 142.595,318.000 143.094 C 318.000 143.592,318.900 144.000,320.000 144.000 C 321.100 144.000,322.000 144.414,322.000 144.921 C 322.000 145.427,323.350 146.138,325.000 146.500 C 326.650 146.862,328.000 147.573,328.000 148.079 C 328.000 148.586,328.900 149.000,330.000 149.000 C 331.100 149.000,332.000 149.450,332.000 150.000 C 332.000 150.550,332.675 151.000,333.500 151.000 C 334.325 151.000,335.000 151.401,335.000 151.892 C 335.000 152.382,336.125 153.066,337.500 153.411 C 338.875 153.756,340.000 154.480,340.000 155.019 C 340.000 155.559,340.567 156.000,341.260 156.000 C 341.953 156.000,343.734 157.125,345.217 158.500 C 346.699 159.875,348.382 161.000,348.956 161.000 C 349.530 161.000,350.000 161.420,350.000 161.933 C 350.000 162.446,350.877 163.144,351.949 163.484 C 353.021 163.824,354.210 165.092,354.592 166.301 C 354.974 167.511,356.234 169.327,357.393 170.339 C 360.854 173.359,360.381 186.081,356.689 189.253 C 355.210 190.524,354.000 192.307,354.000 193.214 C 354.000 194.122,353.100 195.151,352.000 195.500 C 350.900 195.849,350.000 196.554,350.000 197.067 C 350.000 197.580,349.530 198.000,348.956 198.000 C 348.382 198.000,346.699 199.125,345.217 200.500 C 343.734 201.875,341.953 203.000,341.260 203.000 C 340.567 203.000,340.000 203.441,340.000 203.981 C 340.000 204.520,338.875 205.244,337.500 205.589 C 336.125 205.934,335.000 206.618,335.000 207.108 C 335.000 207.599,334.325 208.000,333.500 208.000 C 332.675 208.000,332.000 208.450,332.000 209.000 C 332.000 209.550,331.100 210.000,330.000 210.000 C 328.900 210.000,328.000 210.414,328.000 210.921 C 328.000 211.427,326.650 212.138,325.000 212.500 C 323.350 212.862,322.000 213.573,322.000 214.079 C 322.000 214.586,321.100 215.000,320.000 215.000 C 318.900 215.000,318.000 215.445,318.000 215.988 C 318.000 216.532,316.200 217.264,314.000 217.616 C 311.800 217.968,310.000 218.648,310.000 219.128 C 310.000 219.608,308.875 220.000,307.500 220.000 C 306.125 220.000,305.000 220.450,305.000 221.000 C 305.000 221.550,303.875 222.000,302.500 222.000 C 300.500 222.000,300.000 221.500,300.000 219.500 C 300.000 218.125,299.550 217.000,299.000 217.000 C 298.450 217.000,298.000 216.100,298.000 215.000 C 298.000 213.900,297.609 213.000,297.131 213.000 C 296.653 213.000,296.001 211.391,295.682 209.425 C 294.997 205.207,292.828 200.000,291.756 200.000 C 291.340 200.000,291.000 198.875,291.000 197.500 C 291.000 196.125,290.600 195.000,290.111 195.000 C 289.623 195.000,288.927 193.425,288.566 191.500 C 288.205 189.575,287.480 188.000,286.955 188.000 C 286.430 188.000,286.000 187.363,286.000 186.583 C 286.000 185.804,285.511 185.004,284.913 184.804 C 283.427 184.309,283.359 174.714,284.839 174.220 C 285.477 174.008,286.000 173.196,286.000 172.417 C 286.000 171.637,286.445 171.000,286.988 171.000 C 287.532 171.000,288.264 169.200,288.616 167.000 C 288.968 164.800,289.648 163.000,290.128 163.000 C 290.608 163.000,291.000 162.100,291.000 161.000 C 291.000 159.900,291.450 159.000,292.000 159.000 C 292.550 159.000,293.000 157.875,293.000 156.500 C 293.000 155.125,293.392 154.000,293.872 154.000 C 294.352 154.000,295.032 152.200,295.384 150.000 C 295.736 147.800,296.468 146.000,297.012 146.000 C 297.555 146.000,298.000 144.875,298.000 143.500 C 298.000 142.125,298.450 141.000,299.000 141.000 C 299.550 141.000,300.000 140.100,300.000 139.000 C 300.000 137.889,300.667 137.000,301.500 137.000 C 302.325 137.000,303.000 137.450,303.000 138.000 M192.750 146.684 C 190.137 146.918,188.000 147.535,188.000 148.055 C 188.000 148.575,187.325 149.000,186.500 149.000 C 185.675 149.000,185.000 149.450,185.000 150.000 C 185.000 150.550,184.337 151.000,183.526 151.000 C 181.670 151.000,173.000 159.582,173.000 161.419 C 173.000 162.171,172.325 163.045,171.500 163.362 C 170.675 163.678,170.000 165.076,170.000 166.469 C 170.000 167.861,169.550 169.000,169.000 169.000 C 168.397 169.000,168.000 173.167,168.000 179.500 C 168.000 185.275,168.414 190.000,168.921 190.000 C 169.427 190.000,170.138 191.350,170.500 193.000 C 170.862 194.650,171.573 196.000,172.079 196.000 C 172.586 196.000,173.000 196.683,173.000 197.518 C 173.000 199.411,179.670 206.000,181.586 206.000 C 182.364 206.000,183.000 206.450,183.000 207.000 C 183.000 207.550,183.900 208.000,185.000 208.000 C 186.100 208.000,187.000 208.450,187.000 209.000 C 187.000 209.550,187.675 210.000,188.500 210.000 C 189.325 210.000,190.000 210.450,190.000 211.000 C 190.000 211.600,194.000 212.000,200.000 212.000 C 206.000 212.000,210.000 211.600,210.000 211.000 C 210.000 210.450,211.125 210.000,212.500 210.000 C 213.875 210.000,215.000 209.550,215.000 209.000 C 215.000 208.450,215.655 208.000,216.456 208.000 C 218.872 208.000,229.004 197.230,229.656 193.969 C 229.983 192.336,230.644 191.000,231.125 191.000 C 231.606 191.000,232.000 189.650,232.000 188.000 C 232.000 186.350,232.450 185.000,233.000 185.000 C 233.550 185.000,234.000 182.525,234.000 179.500 C 234.000 176.475,233.550 174.000,233.000 174.000 C 232.450 174.000,232.000 172.650,232.000 171.000 C 232.000 169.350,231.606 168.000,231.125 168.000 C 230.644 168.000,229.968 166.590,229.623 164.866 C 229.278 163.142,228.161 161.004,227.141 160.116 C 226.121 159.227,224.966 157.488,224.576 156.250 C 224.156 154.922,223.061 154.000,221.901 154.000 C 220.821 154.000,219.678 153.325,219.362 152.500 C 219.045 151.675,217.934 151.000,216.893 151.000 C 215.852 151.000,215.000 150.550,215.000 150.000 C 215.000 149.450,214.363 149.000,213.583 149.000 C 212.804 149.000,212.017 148.585,211.833 148.077 C 211.433 146.969,199.387 146.089,192.750 146.684 M129.000 203.000 C 129.000 204.100,129.343 205.000,129.763 205.000 C 130.527 205.000,132.333 207.963,133.573 211.250 C 133.936 212.213,134.631 213.000,135.117 213.000 C 135.602 213.000,136.000 213.900,136.000 215.000 C 136.000 216.100,136.401 217.000,136.892 217.000 C 137.382 217.000,138.066 218.125,138.411 219.500 C 138.756 220.875,139.480 222.000,140.019 222.000 C 140.559 222.000,141.000 222.675,141.000 223.500 C 141.000 224.325,141.401 225.000,141.892 225.000 C 142.382 225.000,143.066 226.125,143.411 227.500 C 143.756 228.875,144.480 230.000,145.019 230.000 C 145.559 230.000,146.000 230.450,146.000 231.000 C 146.000 231.550,144.425 232.000,142.500 232.000 C 140.575 232.000,139.000 231.550,139.000 231.000 C 139.000 230.444,136.333 230.000,133.000 230.000 C 129.667 230.000,127.000 229.556,127.000 229.000 C 127.000 228.450,125.200 228.000,123.000 228.000 C 119.400 228.000,119.000 227.750,119.000 225.500 C 119.000 224.125,119.408 223.000,119.906 223.000 C 120.405 223.000,121.122 220.750,121.500 218.000 C 121.878 215.250,122.595 213.000,123.094 213.000 C 123.592 213.000,124.000 212.325,124.000 211.500 C 124.000 210.675,124.399 210.000,124.886 210.000 C 125.374 210.000,126.077 207.975,126.448 205.500 C 127.119 201.025,129.000 199.182,129.000 203.000 M275.066 206.000 C 275.580 206.000,276.000 206.900,276.000 208.000 C 276.000 209.100,276.392 210.000,276.872 210.000 C 277.352 210.000,278.032 211.800,278.384 214.000 C 278.736 216.200,279.468 218.000,280.012 218.000 C 280.555 218.000,281.000 219.125,281.000 220.500 C 281.000 221.875,281.450 223.000,282.000 223.000 C 282.550 223.000,283.000 223.844,283.000 224.875 C 283.000 226.835,279.599 228.000,273.875 228.000 C 272.294 228.000,271.000 228.450,271.000 229.000 C 271.000 229.550,268.750 230.000,266.000 230.000 C 263.250 230.000,261.000 230.450,261.000 231.000 C 261.000 231.550,259.875 232.000,258.500 232.000 C 255.656 232.000,254.874 228.369,257.500 227.362 C 258.325 227.045,259.000 225.934,259.000 224.893 C 259.000 223.852,259.401 223.000,259.892 223.000 C 260.382 223.000,261.066 221.875,261.411 220.500 C 261.756 219.125,262.480 218.000,263.019 218.000 C 263.559 218.000,264.000 217.325,264.000 216.500 C 264.000 215.675,264.344 215.000,264.764 215.000 C 265.440 215.000,269.000 207.820,269.000 206.457 C 269.000 206.167,270.012 204.895,271.250 203.632 L 273.500 201.335 273.816 203.667 C 273.990 204.950,274.553 206.000,275.066 206.000 M288.370 246.250 C 288.701 247.488,288.979 249.963,288.986 251.750 C 288.994 253.537,289.450 255.000,290.000 255.000 C 290.571 255.000,291.000 258.000,291.000 262.000 C 291.000 266.000,291.429 269.000,292.000 269.000 C 292.606 269.000,293.000 273.333,293.000 280.000 C 293.000 286.667,292.606 291.000,292.000 291.000 C 291.450 291.000,291.000 293.250,291.000 296.000 C 291.000 298.750,290.608 301.000,290.128 301.000 C 289.648 301.000,288.968 302.800,288.616 305.000 C 288.264 307.200,287.532 309.000,286.988 309.000 C 286.445 309.000,286.000 309.683,286.000 310.518 C 286.000 311.352,284.330 313.657,282.289 315.639 L 278.578 319.243 268.091 318.777 C 261.426 318.481,257.463 317.889,257.218 317.155 C 257.007 316.520,256.196 316.000,255.417 316.000 C 254.637 316.000,254.000 315.550,254.000 315.000 C 254.000 314.450,252.907 314.000,251.571 314.000 C 250.236 314.000,248.468 313.325,247.643 312.500 C 246.818 311.675,245.661 311.000,245.071 311.000 C 244.482 311.000,244.000 310.599,244.000 310.108 C 244.000 309.618,242.875 308.934,241.500 308.589 C 240.125 308.244,239.000 307.520,239.000 306.981 C 239.000 306.441,238.148 306.000,237.107 306.000 C 236.066 306.000,234.955 305.325,234.638 304.500 C 234.322 303.675,233.149 303.000,232.031 303.000 C 230.914 303.000,230.000 302.619,230.000 302.153 C 230.000 300.871,226.410 297.000,225.221 297.000 C 224.647 297.000,221.754 294.634,218.791 291.742 L 213.405 286.483 218.655 281.492 C 221.543 278.746,223.926 275.941,223.953 275.258 C 223.979 274.574,225.350 272.813,227.000 271.342 C 228.650 269.872,230.000 267.874,230.000 266.902 C 230.000 265.930,230.877 264.856,231.949 264.516 C 233.021 264.176,234.210 262.908,234.592 261.699 C 234.974 260.489,236.122 258.772,237.143 257.883 C 238.164 256.993,239.015 255.868,239.033 255.383 C 239.183 251.423,242.538 250.249,255.811 249.510 C 263.065 249.107,269.000 248.377,269.000 247.888 C 269.000 247.400,271.025 247.000,273.500 247.000 C 275.975 247.000,278.000 246.576,278.000 246.057 C 278.000 245.539,279.913 244.943,282.250 244.732 C 284.587 244.522,286.785 244.271,287.133 244.175 C 287.482 244.079,288.038 245.012,288.370 246.250 M121.000 246.000 C 121.000 246.550,123.213 247.000,125.917 247.000 C 128.621 247.000,130.983 247.413,131.167 247.919 C 131.350 248.424,137.753 249.212,145.395 249.669 C 157.735 250.407,159.414 250.722,160.395 252.486 C 161.003 253.578,162.287 255.206,163.250 256.103 C 164.213 257.000,165.000 258.240,165.000 258.859 C 165.000 259.477,166.350 261.273,168.000 262.850 C 169.650 264.426,171.000 266.261,171.000 266.925 C 171.000 267.590,172.575 269.620,174.500 271.435 C 176.425 273.251,178.000 275.040,178.000 275.410 C 178.000 276.147,179.756 278.407,181.798 280.298 C 186.654 284.794,188.000 286.138,188.000 286.490 C 188.000 287.341,177.675 297.000,176.765 297.000 C 176.236 297.000,174.600 298.287,173.131 299.860 C 171.662 301.432,169.456 303.038,168.230 303.427 C 167.003 303.816,166.000 304.554,166.000 305.067 C 166.000 305.580,165.325 306.000,164.500 306.000 C 163.675 306.000,163.000 306.441,163.000 306.981 C 163.000 307.520,161.875 308.244,160.500 308.589 C 159.125 308.934,158.000 309.618,158.000 310.108 C 158.000 310.599,157.100 311.000,156.000 311.000 C 154.900 311.000,154.000 311.414,154.000 311.921 C 154.000 312.427,152.650 313.138,151.000 313.500 C 149.350 313.862,148.000 314.573,148.000 315.079 C 148.000 315.586,146.912 316.000,145.583 316.000 C 144.254 316.000,142.979 316.563,142.750 317.250 C 142.451 318.149,139.255 318.500,131.382 318.500 L 120.430 318.500 117.215 315.216 C 115.447 313.409,114.000 311.272,114.000 310.466 C 114.000 309.659,113.582 309.000,113.072 309.000 C 112.562 309.000,111.834 306.519,111.455 303.487 C 111.076 300.455,110.369 297.728,109.883 297.428 C 108.742 296.723,108.722 265.000,109.862 265.000 C 110.337 265.000,111.039 261.127,111.423 256.393 C 111.807 251.659,112.657 247.176,113.311 246.431 C 114.686 244.864,121.000 244.511,121.000 246.000 M219.000 252.933 C 219.000 253.446,218.100 254.151,217.000 254.500 C 215.900 254.849,215.000 255.896,215.000 256.827 C 215.000 257.758,213.435 259.865,211.522 261.510 C 209.608 263.154,208.033 265.024,208.022 265.664 C 208.010 266.304,206.412 268.464,204.470 270.463 L 200.940 274.098 196.970 270.088 C 194.787 267.883,193.000 265.631,193.000 265.084 C 193.000 263.825,188.221 259.000,186.974 259.000 C 186.459 259.000,185.756 257.875,185.411 256.500 C 185.066 255.125,184.382 254.000,183.892 254.000 C 183.401 254.000,183.000 253.550,183.000 253.000 C 183.000 252.370,189.667 252.000,201.000 252.000 C 211.466 252.000,219.000 252.390,219.000 252.933 " stroke="none" fill="#000000" fill-rule="evenodd"></path></g></svg>