<svg xmlns="http://www.w3.org/2000/svg" width="400" height="400" viewBox="0, 0, 400,400">
<g>
<path d="M182.689 2.565 C 34.941 15.477,-46.682 183.406,34.449 307.549 C 120.324 438.951,318.541 422.795,381.437 279.267 C 441.686 141.778,332.301 -10.510,182.689 2.565 M240.478 85.869 L 264.844 90.749 267.446 87.855 C 279.995 73.898,302.702 83.137,301.553 101.734 C 300.529 118.305,281.360 126.091,268.780 115.046 C 266.351 112.913,262.751 106.402,262.751 104.141 C 262.751 103.221,262.288 102.652,261.360 102.431 C 250.263 99.793,220.482 93.970,220.131 94.369 C 219.874 94.661,216.960 108.114,213.657 124.266 C 210.353 140.417,207.524 154.076,207.368 154.619 C 207.128 155.461,208.024 155.664,213.435 155.996 C 235.331 157.340,259.869 165.245,278.893 177.083 C 283.067 179.681,283.499 179.822,284.670 178.965 C 288.973 175.813,290.719 174.816,293.875 173.707 C 325.024 162.759,347.426 207.596,319.058 224.111 C 316.212 225.768,315.906 226.148,316.191 227.671 C 317.409 234.200,314.381 250.910,310.464 259.269 C 286.558 310.282,199.246 331.050,136.090 300.746 C 103.782 285.243,86.360 262.203,85.796 234.230 L 85.626 225.801 83.004 224.409 C 73.603 219.420,67.501 206.675,69.236 195.652 C 72.535 174.682,96.779 164.142,113.986 176.195 L 117.548 178.690 123.225 175.228 C 142.969 163.188,165.238 156.177,188.193 154.772 C 191.797 154.552,194.745 154.309,194.745 154.232 C 194.745 154.027,208.882 87.744,209.295 86.010 C 209.792 83.927,212.928 80.989,214.655 80.989 C 215.456 80.989,227.077 83.185,240.478 85.869 M147.569 200.910 C 130.992 207.387,129.939 229.462,145.837 237.240 C 157.479 242.936,171.220 235.729,173.591 222.684 C 176.219 208.224,161.141 195.607,147.569 200.910 M241.069 201.120 C 225.798 205.422,221.075 223.320,232.259 234.505 C 235.284 237.529,240.243 239.876,243.609 239.876 C 244.616 239.876,245.440 240.128,245.440 240.436 C 245.440 242.378,254.563 239.241,258.646 235.896 C 274.458 222.939,260.643 195.607,241.069 201.120 M151.832 267.126 C 149.009 270.482,149.785 272.691,155.038 276.256 C 180.488 293.524,219.995 293.801,244.943 276.885 C 246.879 275.572,248.748 274.498,249.094 274.498 C 251.570 274.498,251.576 268.906,249.102 266.825 C 246.455 264.597,244.732 264.807,239.644 267.978 C 215.879 282.791,183.392 282.639,161.239 267.612 C 156.714 264.543,154.119 264.408,151.832 267.126 " stroke="none" fill-rule="evenodd"></path>
</g>
</svg>