<svg width="100%" height="100%" viewBox="0 0 400 400" version="1.1" xmlns="http://www.w3.org/2000/svg" style="fill-rule:evenodd;clip-rule:evenodd;stroke-linejoin:round;stroke-miterlimit:2;">
<g>
<path d="M195,32C195,33.213 192.672,32.685 191.5,33C186.82,34.26 187.016,34.149 182.5,35.457C171.225,38.724 158.651,43.177 148,48C114.273,63.272 77.917,73.643 44,89C32.066,94.404 14.45,96.362 4.96,106.04L1,110.081L1,132.04C1,140.379 -1.418,153.115 6.12,160.031C8.396,162.12 12.903,163.375 15.045,166.001C16.198,167.415 12.682,168.61 12,169C8.99,170.72 2.353,172.783 2,177C0.822,191.072 0.553,206.921 1.875,221C2.152,223.947 4.546,226.27 6.72,227.633C9.05,229.094 13.389,230.459 12.85,233.155C12.632,234.243 10.981,234.357 10,234.875C7.852,236.009 2.236,238.08 1.933,241C0.931,250.661 0.204,278.225 2.25,287.537C3.408,292.807 7.299,292.007 10.39,294C12.114,295.112 13.34,296.893 15.067,298C18.266,300.052 22.531,300.585 26,302.061C35.318,306.024 44.596,311.085 54,314.868C65.954,319.677 78.286,323.794 90,329C112.051,338.801 134.376,348.111 156.812,356.935C169.821,362.051 182.481,371 197,371C214.867,371 234.195,358.397 250,351C281.033,336.476 313.163,324.54 344,310C356.321,304.191 368.804,299.214 381,293.111C384.705,291.257 388.161,288.867 391.792,287C392.576,286.597 393.725,286.897 394.33,286.256C395.192,285.341 395.66,284.025 395.778,282.774C396.939,270.492 397.085,248.692 396.632,236.504C396.585,235.242 396.386,233.922 395.787,232.811C394.388,230.218 386.546,229.596 385.499,227.75C384.842,226.592 387.349,225.824 388.395,225C389.936,223.785 391.522,222.619 392.966,221.291L397,217.582L397,193.944C397,184.866 400.907,173.267 394.512,166.825C394.059,166.369 386.939,163.604 386.5,163.434C385.36,162.994 382.57,163.487 383,162.343C383.804,160.206 391.545,155.389 393.467,153.467L397,149.933L397,126.122C397,117.265 401.247,105.527 394.613,99.659C393.861,98.993 392.617,99.34 391.671,99C387.956,97.664 384.711,95.273 380.812,93.935C370.211,90.297 359.439,86.067 349,81.868C335.493,76.435 321.58,71.33 308,65.868C296.434,61.216 284.962,55.313 273,51.5C258.179,46.775 243.974,40.017 229.25,35.006C226.26,33.988 223.184,32.398 220,32C220,32 195,29.333 195,32M184,57C184,57.898 185.663,57.675 186.5,58C188.619,58.822 191.515,59.852 193.5,60.552C197.162,61.844 202.534,65 206.5,65C210.902,65 217.139,61.739 221.25,60.473C223.249,59.857 225.165,58.449 227.249,58.629C228.037,58.697 227.515,60.229 227.34,61C226.649,64.047 221.293,70.19 223.416,73.375C224.137,74.456 225.777,74.469 227,74.906C230.295,76.083 233.705,76.917 237,78.094C237.046,78.11 241.027,79.892 241,80C240.962,80.152 236.115,81.86 236,81.881C234.049,82.238 218.401,84.192 216.729,84.602C214.094,85.249 214.781,86.467 214,88.345C212.908,90.969 211.681,97.753 208.923,99.18C207.015,100.168 206.641,95.994 206.108,95C204.264,91.558 201.849,88.29 200,84.929C199.075,83.248 199.92,82.355 197.448,81.877C189.52,80.346 181.032,80.087 173,79C170.741,78.694 167.404,80.08 166.217,78.135C165.258,76.565 169.737,77.067 171.5,76.543C175.227,75.435 183.645,73.787 186.571,70.571C189.62,67.22 185.971,62.456 184,59.5C183.408,58.612 182,58.067 182,57C182,56.333 184,56.333 184,57M292,89C292,90.028 293.942,89.675 294.917,90C299.005,91.364 298.788,91.309 302.772,92.696C312.124,95.951 321.238,100.295 330.5,104C332.237,104.695 337.989,106.325 338.75,108.311C339.241,109.591 336.227,109.389 335,110C329.167,112.904 323.112,114.674 317,117.132C309.966,119.961 303.147,123.255 296,126.061C293.216,127.154 288.285,131 285.5,131C283.759,131 279.303,127.699 277.5,127C271.481,124.666 265.482,122.393 259.5,120C253.381,117.552 246.9,115.95 241,113C240.872,112.936 235.86,110.198 236.127,109.919C236.273,109.766 243.886,106.917 244,106.872C252.002,103.692 262.328,101.466 269.5,97C274.847,93.671 281.326,92.675 287,90C287.316,89.851 292,86.422 292,89M131,94L143,96C149.3,97.326 158.97,100.109 163.224,105.45C166.171,109.152 167.154,111.902 164.198,115.693C160.424,120.534 152.496,123.243 147,124.5C138.316,126.486 127.93,129 119,129C110.585,129 100.647,126.54 92.5,124.537C85.424,122.797 79.05,120.898 74.288,114.995C73.679,114.24 71.816,111.789 72.106,110.608C75.248,97.799 97.633,95.152 108,94C111.824,93.575 115.652,93 119.5,93C123.348,93 131,90.152 131,94M230,134C230,135.053 227.827,137.664 227.424,138.25C224.863,141.971 222.535,145.827 220,149.567C217.289,153.566 214.353,157.319 211.448,161.165C210.948,161.827 207.734,167.663 204.986,167.914C203.543,168.046 202.457,166.459 201.083,166C195.867,164.259 190.755,162.717 186,160C181.199,157.256 175.628,155.989 170.5,154C167.14,152.697 164.264,150.446 161,149.114C160.823,149.042 152.37,146.138 152.13,146.008C151.376,145.597 153.673,145.231 154.5,145C158.51,143.877 158.317,143.722 162.5,143C170.003,141.705 171.007,141.703 180.5,140.48C193.952,138.747 207.116,136.059 220.5,134C220.92,133.935 230,130.508 230,134"/>
</g>
</svg>
