<svg version="1.1" width="400" height="400" xmlns="http://www.w3.org/2000/svg">
<g>
<path d="M187.000 5.651 C 174.882 6.808,158.255 10.019,149.000 12.990 C 145.975 13.961,140.350 15.770,136.500 17.010 C 129.947 19.120,115.280 25.769,108.500 29.704 C 101.786 33.600,95.471 37.466,95.000 37.967 C 94.725 38.260,92.250 40.052,89.500 41.949 C 86.750 43.845,84.275 45.648,84.000 45.954 C 83.725 46.261,81.700 47.852,79.500 49.491 C 74.255 53.397,57.367 70.274,52.971 76.000 C 48.282 82.110,48.232 82.173,45.981 84.903 C 44.892 86.225,43.999 87.575,43.999 87.903 C 43.998 88.231,42.873 89.807,41.499 91.406 C 40.124 93.004,39.000 94.916,39.000 95.656 C 39.000 96.395,38.550 97.000,38.000 97.000 C 37.450 97.000,37.000 97.637,37.000 98.417 C 37.000 99.196,36.663 99.983,36.250 100.167 C 35.523 100.490,34.318 102.584,29.441 112.000 C 22.446 125.505,16.121 143.925,12.100 162.500 C 8.872 177.407,8.268 213.781,10.985 229.500 C 11.461 232.250,12.170 236.525,12.560 239.000 C 12.951 241.475,13.601 243.950,14.005 244.500 C 14.409 245.050,15.058 247.300,15.447 249.500 C 16.229 253.918,18.604 262.122,20.223 266.000 C 20.798 267.375,21.633 269.400,22.079 270.500 C 26.723 281.944,32.190 293.362,33.250 293.833 C 33.663 294.017,34.000 294.590,34.000 295.108 C 34.000 301.269,62.901 336.089,78.373 348.569 C 81.054 350.731,84.160 353.288,85.276 354.250 C 86.393 355.212,87.602 356.000,87.964 356.000 C 88.327 356.000,89.659 356.965,90.925 358.145 C 95.675 362.570,112.348 371.801,128.500 378.949 C 137.657 383.001,139.674 383.767,143.004 384.458 C 144.927 384.856,148.525 385.855,151.000 386.676 C 168.559 392.505,203.790 395.616,222.307 392.974 C 245.842 389.615,248.347 389.046,268.500 382.475 C 276.753 379.784,301.242 368.286,301.833 366.824 C 302.017 366.371,302.552 366.000,303.024 366.000 C 303.495 366.000,307.614 363.443,312.177 360.319 C 340.507 340.917,363.346 314.552,377.859 284.500 C 380.249 279.550,382.609 274.719,383.102 273.764 C 383.596 272.809,384.003 271.459,384.006 270.764 C 384.010 270.069,384.593 268.375,385.303 267.000 C 386.013 265.625,387.375 261.800,388.329 258.500 C 389.284 255.200,390.465 251.150,390.955 249.500 C 392.393 244.648,394.749 233.070,395.939 225.000 C 396.994 217.851,397.540 179.682,396.609 178.176 C 396.365 177.781,395.894 175.442,395.562 172.979 C 395.231 170.515,394.699 166.700,394.381 164.500 C 393.666 159.552,389.256 142.217,388.022 139.500 C 387.522 138.400,385.944 134.125,384.515 130.000 C 381.794 122.141,373.040 103.740,371.750 103.167 C 371.337 102.983,371.000 102.196,371.000 101.417 C 371.000 100.638,370.550 100.000,370.000 100.000 C 369.450 100.000,369.000 99.426,369.000 98.723 C 369.000 97.463,359.894 83.838,356.995 80.760 C 356.173 79.887,354.380 77.671,353.011 75.836 C 350.375 72.302,331.035 52.762,327.118 49.675 C 325.844 48.672,322.034 45.847,318.651 43.398 C 315.268 40.949,311.444 38.170,310.154 37.223 C 302.572 31.654,279.616 20.280,269.271 16.966 C 265.547 15.774,261.600 14.444,260.500 14.013 C 255.393 12.009,246.237 9.879,232.000 7.383 C 224.126 6.003,195.042 4.883,187.000 5.651 M220.180 73.011 C 251.765 76.630,287.860 96.946,304.150 120.273 C 305.390 122.048,306.698 123.725,307.057 124.000 C 308.763 125.305,318.056 141.311,320.713 147.521 C 325.140 157.863,325.720 159.641,330.178 176.500 C 331.046 179.784,331.500 187.850,331.500 200.000 C 331.500 218.261,331.330 219.647,327.319 234.000 C 324.850 242.838,323.333 247.116,320.409 253.500 C 317.513 259.820,308.676 274.467,306.362 276.781 C 305.613 277.530,305.000 278.471,305.000 278.873 C 305.000 280.031,288.962 296.149,284.000 299.977 C 281.525 301.886,279.275 303.705,279.000 304.019 C 278.725 304.333,275.575 306.403,272.000 308.619 C 225.159 337.657,165.202 333.966,122.942 299.445 C 115.753 293.572,103.821 281.402,102.101 278.189 C 101.503 277.071,100.428 275.558,99.712 274.828 C 96.406 271.453,84.000 248.662,84.000 245.964 C 84.000 245.419,83.576 244.191,83.059 243.236 C 82.541 242.281,81.391 238.800,80.504 235.500 C 79.616 232.200,78.428 228.016,77.863 226.201 C 75.312 218.011,75.312 181.989,77.863 173.799 C 78.428 171.984,79.616 167.800,80.504 164.500 C 81.391 161.200,82.541 157.719,83.059 156.764 C 83.576 155.809,84.000 154.581,84.000 154.036 C 84.000 151.156,96.289 128.813,100.211 124.561 C 101.195 123.495,102.000 122.193,102.000 121.668 C 102.000 119.737,123.718 99.358,130.500 94.925 C 143.781 86.244,145.538 85.297,156.000 81.184 C 176.970 72.940,197.140 70.371,220.180 73.011 M192.500 134.613 C 181.808 136.189,165.373 144.828,157.242 153.145 C 127.421 183.650,132.553 232.445,168.000 255.424 C 182.367 264.738,206.573 268.775,220.500 264.180 C 228.453 261.556,238.923 256.623,242.038 254.033 C 243.051 253.190,245.772 250.925,248.085 249.000 C 252.802 245.074,258.539 237.746,262.177 231.000 C 276.158 205.078,269.818 169.089,248.085 151.000 C 245.772 149.075,243.051 146.810,242.038 145.967 C 239.024 143.461,228.772 138.598,221.000 135.990 C 217.386 134.778,197.804 133.831,192.500 134.613 " stroke="none" fill-rule="evenodd"></path>
</g>
</svg>