<svg width="100%" height="100%" viewBox="0 0 400 400" version="1.1" xmlns="http://www.w3.org/2000/svg" style="fill-rule:evenodd;clip-rule:evenodd;stroke-linejoin:round;stroke-miterlimit:2;">
    <g>
        <path d="M74.405,4.765C71.46,6.741 72.411,11.573 71.5,15C67.337,30.662 63.702,46.472 60.017,62.25C49.208,108.535 37.365,154.573 25.974,200.726C21.906,217.21 18.182,233.789 14.03,250.25C12.823,255.036 10,259.564 10,264.5L10,267L84,267L84,294C84,301.417 83.853,308.844 84.264,316.25C84.355,317.883 85.443,322.635 85.5,321C87.935,251.514 87.224,217.11 86,147.5C85.803,136.31 85,125.132 85,113.941L85,81L322.68,81L323.34,105.162C323.703,118.451 324,171.776 324,223.662L324,318L206.5,318C173.944,318 141.386,317.838 108.833,318.253C102.21,318.338 95.534,318.414 89,319.5C87.345,319.775 92.203,320.648 93.878,320.739C97.387,320.931 142.106,321.025 143.432,321.765C147.13,323.83 141.086,329.906 140,334C135.908,349.431 132.34,365.01 128.48,380.5C127.593,384.059 126.578,387.586 125.706,391.149C125.525,391.888 124.567,393.313 125.323,393.399C146.023,395.746 227.221,395.299 231.055,395.293C236.002,395.286 314.729,395.515 336,393.083C336.792,392.993 336.591,391.6 336.807,390.833C337.912,386.903 338.934,382.951 339.959,379C344.051,363.219 347.341,347.258 351.522,331.5C362.828,288.886 372.425,245.799 383,203C386.703,188.012 390.256,172.988 393.958,158C396.08,149.409 398.662,141.747 398.648,132.735C398.644,130.01 392.953,128.933 392.088,128.605C388.49,127.241 380.985,124.326 377.75,123.053C365.838,118.364 353.882,113.786 342,109.022C338.454,107.6 328.48,105.684 326.211,101.831C324.625,99.137 325,91.483 325,89.542L325,78L294.25,78L292.962,65C291.917,54.446 289.965,44.002 288.487,33.5C287.692,27.852 286.381,13.773 284.37,6.25L283.767,4L179.633,4.015C122.36,4.024 75.007,4.361 74.405,4.765M106.75,110.568C106.338,110.989 106,133.983 106,161.667L106,212L130,212L130,181L138.5,181C140.769,181 143.064,180.908 145.299,181.293C147.544,181.68 151.082,187.725 151.984,188.962C155.748,194.125 160.359,199.638 163.001,205.439C163.449,206.424 163.242,207.694 163.89,208.56C164.606,209.517 165.68,210.345 166.851,210.583C175.725,212.387 184.331,212.291 193.256,211.302C193.953,211.225 194.863,211.045 195.16,210.41C195.607,209.454 189.865,202.983 189.091,202C183.954,195.474 178.065,186.846 174.06,179.374L172.006,175.54L175.325,173.838C191.884,165.341 195.147,144.253 188.476,128.333C186.595,123.845 178.19,116.95 177.15,116C168.148,107.774 142.749,110.373 136.5,110.279C126.584,110.13 113.686,103.48 106.75,110.568M223.366,110.765C222.743,111.169 221.666,115.662 220.974,120.75L219.716,130L204,130L204,151L210.067,151C216.917,151 215.708,153.819 214.523,160.5C214.021,163.33 214.705,166.811 212.777,168.943C211.229,170.655 208.241,170 205.933,170L199,170L199,191L209.262,191L208.634,194.75C208.288,196.813 207.715,201.537 207.359,205.25L206.713,212L226.738,212L227.358,208.25C227.929,204.795 229.892,198.84 230.19,195.25L230.5,191.5L239.594,191.215L248.689,190.929L247.8,197.215C247.249,201.116 244.931,204.708 244.797,208.645C244.608,214.167 263.456,211.612 265.415,211.013C266.391,210.715 266.583,209.29 266.837,208.302C267.939,204.011 270,197.324 270,193L270,190L285.07,190L284.5,169.5L278.75,169.2C272.097,168.854 274.832,165.785 275.596,159.25L276.5,151.5L283.25,151.204L290,150.909L290,130L280.721,130L281.361,125C281.712,122.25 282.288,117.75 282.639,115L283.279,110L272.707,110C269.31,110 265.802,109.899 262.555,110.899C261.61,111.19 261.45,112.583 261.209,113.542C260.085,118.014 260.233,122.722 259.368,127.25L258.841,130L249.853,130C247.37,130 244.841,130.216 242.409,129.715C239.859,129.19 243.433,113.794 243.632,112.75L244.159,110L234.329,110.015C228.923,110.024 223.99,110.361 223.366,110.765M163.089,136C164.043,137.248 165.198,138.357 166,139.708C167.511,142.253 167.832,148.536 166.067,151C165.863,151.285 165.426,151.336 165.214,151.614C163.98,153.23 164.898,153.909 162.765,155.426C158.006,158.811 148.681,158 143.532,158L130,158L130,132.821L145.59,133.16C160.86,133.493 161.219,133.551 163.089,136M254.661,154.75C254.334,156.813 253.764,161.088 253.395,164.25L252.725,170L243.862,170C241.58,170 239.297,169.897 237.023,169.715C232.07,169.317 235.715,162.363 236.15,159.25L237.303,151L255.256,151L254.661,154.75M107,281.3C107,284.492 106.192,288.319 108.2,290.8C110.613,293.781 119.26,291.121 122,291C134.825,290.433 147.662,290 160.5,290L199,290L199,273L107,273L107,281.3"/>
    </g>
</svg>
