<svg id="svg" version="1.1" width="400" height="400" xmlns="http://www.w3.org/2000/svg" xmlns:xlink="http://www.w3.org/1999/xlink" style="display: block;"><g id="svgg"><path id="path0" d="M47.000 136.000 L 47.000 219.000 66.000 219.000 L 85.000 219.000 85.000 194.000 L 85.000 169.000 98.545 169.000 C 112.676 169.000,117.000 170.460,117.000 175.234 C 117.000 175.962,117.900 177.207,119.000 178.000 C 120.100 178.793,121.000 180.143,121.000 181.000 C 121.000 181.857,121.900 183.207,123.000 184.000 C 124.100 184.793,125.000 186.143,125.000 187.000 C 125.000 187.857,125.900 189.207,127.000 190.000 C 128.100 190.793,129.000 192.143,129.000 193.000 C 129.000 193.857,129.900 195.207,131.000 196.000 C 132.100 196.793,133.000 198.062,133.000 198.820 C 133.000 199.577,134.350 201.459,136.000 203.000 C 137.650 204.541,139.000 206.423,139.000 207.180 C 139.000 207.938,139.900 209.207,141.000 210.000 C 142.100 210.793,143.000 212.038,143.000 212.766 C 143.000 218.098,146.683 219.000,168.455 219.000 L 189.000 219.000 189.000 216.000 C 189.000 214.350,188.550 213.000,188.000 213.000 C 187.450 213.000,187.000 212.199,187.000 211.221 C 187.000 210.242,186.100 208.793,185.000 208.000 C 183.900 207.207,183.000 205.938,183.000 205.180 C 183.000 204.423,181.650 202.541,180.000 201.000 C 178.350 199.459,177.000 197.577,177.000 196.820 C 177.000 196.062,176.100 194.793,175.000 194.000 C 173.900 193.207,173.000 191.857,173.000 191.000 C 173.000 190.143,172.100 188.793,171.000 188.000 C 169.900 187.207,169.000 185.857,169.000 185.000 C 169.000 184.143,168.100 182.793,167.000 182.000 C 165.900 181.207,165.000 179.857,165.000 179.000 C 165.000 178.143,164.100 176.793,163.000 176.000 C 161.900 175.207,161.000 173.938,161.000 173.180 C 161.000 172.423,159.650 170.541,158.000 169.000 C 156.350 167.459,155.000 165.577,155.000 164.820 C 155.000 164.062,154.100 162.793,153.000 162.000 C 151.900 161.207,151.000 160.208,151.000 159.779 C 151.000 159.351,151.900 159.000,153.000 159.000 C 154.100 159.000,155.000 158.550,155.000 158.000 C 155.000 157.450,155.900 157.000,157.000 157.000 C 158.100 157.000,159.000 156.550,159.000 156.000 C 159.000 155.450,159.681 155.000,160.514 155.000 C 162.488 155.000,179.000 138.488,179.000 136.514 C 179.000 135.681,179.450 135.000,180.000 135.000 C 180.550 135.000,181.000 133.650,181.000 132.000 C 181.000 130.350,181.450 129.000,182.000 129.000 C 182.550 129.000,183.000 127.650,183.000 126.000 C 183.000 124.350,183.450 123.000,184.000 123.000 C 184.622 123.000,185.000 117.333,185.000 108.000 C 185.000 98.667,184.622 93.000,184.000 93.000 C 183.450 93.000,183.000 91.650,183.000 90.000 C 183.000 88.350,182.550 87.000,182.000 87.000 C 181.450 87.000,181.000 85.650,181.000 84.000 C 181.000 82.350,180.550 81.000,180.000 81.000 C 179.450 81.000,179.000 80.319,179.000 79.486 C 179.000 77.512,162.488 61.000,160.514 61.000 C 159.681 61.000,159.000 60.550,159.000 60.000 C 159.000 59.450,157.650 59.000,156.000 59.000 C 154.350 59.000,153.000 58.550,153.000 58.000 C 153.000 57.450,152.100 57.000,151.000 57.000 C 149.900 57.000,149.000 56.550,149.000 56.000 C 149.000 55.450,146.750 55.000,144.000 55.000 C 141.250 55.000,139.000 54.550,139.000 54.000 C 139.000 53.348,123.000 53.000,93.000 53.000 L 47.000 53.000 47.000 136.000 M239.000 55.000 C 239.000 56.100,238.550 57.000,238.000 57.000 C 237.444 57.000,237.000 59.667,237.000 63.000 C 237.000 66.333,236.556 69.000,236.000 69.000 C 235.444 69.000,235.000 71.667,235.000 75.000 C 235.000 78.333,234.556 81.000,234.000 81.000 C 233.450 81.000,233.000 82.350,233.000 84.000 L 233.000 87.000 220.000 87.000 L 207.000 87.000 207.000 103.000 L 207.000 119.000 217.000 119.000 L 227.000 119.000 227.000 124.000 C 227.000 126.750,226.550 129.000,226.000 129.000 C 225.444 129.000,225.000 131.667,225.000 135.000 C 225.000 138.333,224.556 141.000,224.000 141.000 C 223.450 141.000,223.000 143.250,223.000 146.000 L 223.000 151.000 211.000 151.000 L 199.000 151.000 199.000 167.000 L 199.000 183.000 208.000 183.000 C 216.333 183.000,217.000 183.148,217.000 185.000 C 217.000 186.100,216.550 187.000,216.000 187.000 C 215.444 187.000,215.000 189.667,215.000 193.000 C 215.000 196.333,214.556 199.000,214.000 199.000 C 213.444 199.000,213.000 201.667,213.000 205.000 C 213.000 208.333,212.556 211.000,212.000 211.000 C 211.450 211.000,211.000 212.800,211.000 215.000 L 211.000 219.000 226.571 219.000 C 244.802 219.000,245.000 218.910,245.000 210.571 C 245.000 207.507,245.450 205.000,246.000 205.000 C 246.556 205.000,247.000 202.333,247.000 199.000 C 247.000 195.667,247.444 193.000,248.000 193.000 C 248.550 193.000,249.000 190.750,249.000 188.000 L 249.000 183.000 265.000 183.000 L 281.000 183.000 281.000 188.000 C 281.000 190.750,280.550 193.000,280.000 193.000 C 279.444 193.000,279.000 195.667,279.000 199.000 C 279.000 202.333,278.556 205.000,278.000 205.000 C 277.429 205.000,277.000 208.000,277.000 212.000 L 277.000 219.000 293.000 219.000 L 309.000 219.000 309.000 215.000 C 309.000 212.800,309.450 211.000,310.000 211.000 C 310.556 211.000,311.000 208.333,311.000 205.000 C 311.000 201.667,311.444 199.000,312.000 199.000 C 312.556 199.000,313.000 196.333,313.000 193.000 C 313.000 189.667,313.444 187.000,314.000 187.000 C 314.550 187.000,315.000 186.100,315.000 185.000 C 315.000 183.103,315.667 183.000,328.000 183.000 L 341.000 183.000 341.000 167.000 L 341.000 151.000 331.000 151.000 L 321.000 151.000 321.000 145.000 C 321.000 141.667,321.444 139.000,322.000 139.000 C 322.556 139.000,323.000 136.333,323.000 133.000 C 323.000 129.667,323.444 127.000,324.000 127.000 C 324.550 127.000,325.000 125.200,325.000 123.000 L 325.000 119.000 337.000 119.000 L 349.000 119.000 349.000 103.000 L 349.000 87.000 340.000 87.000 L 331.000 87.000 331.000 83.000 C 331.000 80.800,331.450 79.000,332.000 79.000 C 332.550 79.000,333.000 76.750,333.000 74.000 C 333.000 71.250,333.450 69.000,334.000 69.000 C 334.556 69.000,335.000 66.333,335.000 63.000 C 335.000 59.667,335.444 57.000,336.000 57.000 C 336.550 57.000,337.000 56.100,337.000 55.000 C 337.000 53.078,336.333 53.000,320.000 53.000 L 303.000 53.000 303.000 57.000 C 303.000 59.200,302.550 61.000,302.000 61.000 C 301.444 61.000,301.000 63.667,301.000 67.000 C 301.000 70.333,300.556 73.000,300.000 73.000 C 299.450 73.000,299.000 75.507,299.000 78.571 C 299.000 86.850,298.689 87.000,281.571 87.000 L 267.000 87.000 267.000 81.000 C 267.000 77.667,267.444 75.000,268.000 75.000 C 268.556 75.000,269.000 72.333,269.000 69.000 C 269.000 65.667,269.444 63.000,270.000 63.000 C 270.550 63.000,271.000 60.750,271.000 58.000 L 271.000 53.000 255.000 53.000 C 239.667 53.000,239.000 53.083,239.000 55.000 M129.000 88.000 C 129.000 88.550,130.251 89.000,131.779 89.000 C 133.411 89.000,135.153 89.826,136.000 91.000 C 136.793 92.100,138.049 93.000,138.792 93.000 C 140.623 93.000,143.000 95.501,143.000 97.429 C 143.000 98.293,143.450 99.000,144.000 99.000 C 144.550 99.000,145.000 99.900,145.000 101.000 C 145.000 102.100,145.450 103.000,146.000 103.000 C 146.571 103.000,147.000 106.000,147.000 110.000 C 147.000 114.000,146.571 117.000,146.000 117.000 C 145.450 117.000,145.000 117.687,145.000 118.526 C 145.000 120.511,136.511 129.000,134.526 129.000 C 133.687 129.000,133.000 129.450,133.000 130.000 C 133.000 130.550,131.200 131.000,129.000 131.000 C 126.800 131.000,125.000 131.450,125.000 132.000 C 125.000 132.633,117.667 133.000,105.000 133.000 L 85.000 133.000 85.000 110.000 L 85.000 87.000 107.000 87.000 C 121.000 87.000,129.000 87.364,129.000 88.000 M293.000 120.000 C 293.000 120.550,292.550 121.000,292.000 121.000 C 291.444 121.000,291.000 123.667,291.000 127.000 C 291.000 130.333,290.556 133.000,290.000 133.000 C 289.444 133.000,289.000 135.667,289.000 139.000 C 289.000 142.333,288.556 145.000,288.000 145.000 C 287.450 145.000,287.000 146.350,287.000 148.000 L 287.000 151.000 271.000 151.000 C 255.667 151.000,255.000 150.917,255.000 149.000 C 255.000 147.900,255.450 147.000,256.000 147.000 C 256.556 147.000,257.000 144.333,257.000 141.000 C 257.000 137.667,257.444 135.000,258.000 135.000 C 258.556 135.000,259.000 132.333,259.000 129.000 C 259.000 125.667,259.444 123.000,260.000 123.000 C 260.550 123.000,261.000 122.100,261.000 121.000 C 261.000 119.083,261.667 119.000,277.000 119.000 C 287.000 119.000,293.000 119.375,293.000 120.000 M195.000 322.000 C 195.000 322.658,170.000 323.000,122.000 323.000 L 49.000 323.000 49.000 336.000 L 49.000 349.000 124.000 349.000 L 199.000 349.000 199.000 335.000 C 199.000 321.667,198.905 321.000,197.000 321.000 C 195.900 321.000,195.000 321.450,195.000 322.000 " stroke="none" fill="#000000" fill-rule="evenodd"></path></g></svg>