<svg width="100%" height="100%" viewBox="0 0 400 400" version="1.1" xmlns="http://www.w3.org/2000/svg" style="fill-rule:evenodd;clip-rule:evenodd;stroke-linejoin:round;stroke-miterlimit:2;">
<g>
<path d="M47,136L47,219L85,219L85,169L98.545,169C103.074,169 112.559,167.912 116.104,172.246C118.22,174.834 119.159,178.209 121,181C127.464,190.803 134.566,200.177 141,210C142.217,211.858 142.455,214.317 143.916,215.99C149.569,222.465 161.918,219 168.455,219L189,219L189,216C189,211.001 182.457,204.496 180,201C173.544,191.812 167.392,182.413 161,173.18C158.392,169.412 155.741,165.673 153,162C152.404,161.202 151,160.775 151,159.779C151,159.064 152.361,159.321 153,159C155.536,157.726 158.204,156.647 160.514,155C166.59,150.667 176.899,142.747 180,135C184.276,124.316 184.55,119.406 185,108C186.021,82.093 169.722,61.375 144.29,55.091C127.651,50.979 109.905,53 93,53L47,53L47,136M239,55C239,64.179 233,74.671 233,84L233,87L207,87L207,119L227,119L227,124C227,131.277 223,138.723 223,146L223,151L199,151L199,183L208,183C210.544,183 213.149,182.721 215.625,183.306C218.391,183.959 215.132,192.441 215,193C213.903,197.66 211,210.106 211,215L211,219L226.571,219C239.369,219 243.209,221.471 245,210.571C245.622,206.782 246.676,203.074 247.346,199.294C248.01,195.547 249,191.805 249,188L249,183L281,183L281,188C281,195.945 277,203.969 277,212L277,219L309,219L309,215C309,209.249 311.903,198.529 313,193C313.381,191.082 313.334,183.792 316.875,183.289C320.548,182.767 324.29,183 328,183L341,183L341,151L321,151L321,145C321,137.688 325,130.202 325,123L325,119L349,119L349,87L331,87L331,83C331,78.141 334.019,67.635 335,63C336.561,55.626 337.993,51.76 328.716,52.216C325.803,52.359 322.917,53 320,53L303,53L303,57C303,60.634 301.992,64.201 301.329,67.774C300.658,71.394 299.614,74.941 299,78.571C297.222,89.09 293.698,87 281.571,87L267,87L267,81C267,73.339 271,65.613 271,58L271,53L255,53C239.667,53 239,53.083 239,55M129,88C129,89.804 132.61,88.677 134.184,89.56C138.289,91.863 142.011,94.691 144.327,98.808C150.809,110.336 145.229,125.245 132.737,129.766C123.559,133.088 114.607,133 105,133L85,133L85,87L107,87C121,87 129,87.364 129,88M293,120C293,120.773 291.396,122.059 291.292,122.75C289.74,132.972 290.839,133.047 288.708,143.25C288.351,144.963 287,146.159 287,148L287,151L271,151C266.416,151 261.827,150.976 257.25,150.719C256.585,150.682 255.883,150.512 255.344,150.121C253.692,148.924 256.496,146.103 256.708,145.25C257.37,142.602 257.12,139.789 257.708,137.124C257.995,135.821 258.541,134.573 258.708,133.25C258.772,132.749 258.712,127.265 259.013,125.851C259.419,123.949 259.881,124.197 260.706,122.412C261.537,120.617 261.025,119.36 263.25,119.281C267.832,119.119 272.416,119.003 277,119C280.918,118.998 284.832,119.251 288.75,119.266C289.198,119.267 293,118.356 293,120M195,322C195,322.658 170,323 122,323L49,323L49,349L199,349L199,335C199,330.999 199.363,326.948 198.714,323C198.507,321.735 195,320.718 195,322"/>
</g>
</svg>
