<svg id="svg" version="1.1" width="400" height="400" xmlns="http://www.w3.org/2000/svg" xmlns:xlink="http://www.w3.org/1999/xlink" style="display: block;"><g id="svgg"><path id="path0" d="M118.674 1.407 C 118.377 2.180,117.817 7.130,117.430 12.407 C 117.043 17.683,116.396 22.000,115.992 22.000 C 115.588 22.000,114.677 28.525,113.966 36.500 C 113.255 44.475,112.362 51.000,111.981 51.000 C 111.599 51.000,110.983 54.712,110.611 59.250 C 110.239 63.788,109.663 69.862,109.330 72.750 L 108.725 78.000 215.362 78.000 L 322.000 78.000 322.000 174.000 L 322.000 270.000 361.000 270.000 L 400.000 270.000 400.002 267.750 C 400.005 264.376,396.860 247.648,396.007 246.500 C 395.598 245.950,394.695 242.350,394.000 238.500 C 393.305 234.650,392.392 231.050,391.971 230.500 C 391.549 229.950,390.647 226.013,389.965 221.750 C 389.283 217.488,388.392 214.000,387.985 214.000 C 387.578 214.000,386.684 210.400,386.000 206.000 C 385.316 201.600,384.416 198.000,384.000 198.000 C 383.584 198.000,382.684 194.400,382.000 190.000 C 381.316 185.600,380.422 182.000,380.015 182.000 C 379.608 182.000,378.717 178.512,378.035 174.250 C 377.353 169.988,376.415 166.033,375.951 165.461 C 375.486 164.890,374.607 161.301,373.998 157.486 C 373.388 153.671,372.557 150.314,372.151 150.025 C 371.744 149.736,370.822 145.900,370.101 141.500 C 369.380 137.100,368.462 133.275,368.060 133.000 C 367.658 132.725,366.741 129.012,366.023 124.750 C 365.305 120.488,364.397 117.000,364.005 117.000 C 363.613 117.000,362.758 113.761,362.104 109.802 C 361.450 105.842,360.527 102.130,360.052 101.552 C 359.577 100.973,358.961 99.150,358.683 97.500 C 358.406 95.850,357.845 92.475,357.437 90.000 C 357.030 87.525,356.359 85.275,355.947 85.000 C 355.217 84.514,354.664 82.000,353.361 73.250 C 353.013 70.913,352.339 69.000,351.864 69.000 C 351.389 69.000,350.971 67.763,350.936 66.250 C 350.857 62.885,348.747 52.892,347.810 51.449 C 347.435 50.871,346.603 47.383,345.961 43.699 C 345.320 40.015,344.463 37.000,344.058 37.000 C 343.654 37.000,342.724 33.155,341.993 28.455 C 341.262 23.755,340.330 19.704,339.922 19.452 C 339.514 19.200,338.618 15.845,337.930 11.997 C 337.242 8.149,336.302 5.000,335.840 5.000 C 335.378 5.000,335.000 3.875,335.000 2.500 L 335.000 0.000 227.107 0.000 C 135.305 0.000,119.133 0.210,118.674 1.407 M249.000 106.500 L 249.000 118.000 237.500 118.000 L 226.000 118.000 226.000 129.500 L 226.000 141.000 237.500 141.000 L 249.000 141.000 249.000 152.000 L 249.000 163.000 260.000 163.000 L 271.000 163.000 271.000 152.000 L 271.000 141.000 282.393 141.000 C 295.826 141.000,295.000 141.857,295.000 127.918 L 295.000 118.000 283.000 118.000 L 271.000 118.000 271.000 106.500 L 271.000 95.000 260.000 95.000 L 249.000 95.000 249.000 106.500 M70.750 102.203 C 68.688 102.750,67.000 103.523,67.000 103.919 C 67.000 104.315,64.750 105.251,62.000 106.000 C 59.250 106.749,57.000 107.694,57.000 108.101 C 57.000 108.508,55.538 109.153,53.750 109.534 C 51.962 109.915,48.684 111.043,46.465 112.040 C 44.246 113.038,41.209 114.160,39.715 114.535 C 38.222 114.910,37.000 115.546,37.000 115.949 C 37.000 116.351,34.525 117.274,31.500 118.000 C 28.475 118.726,26.000 119.662,26.000 120.080 C 26.000 120.499,24.537 121.146,22.750 121.519 C 20.962 121.891,18.529 122.810,17.343 123.560 C 16.156 124.311,13.119 125.445,10.593 126.081 C 8.067 126.717,6.000 127.578,6.000 127.994 C 6.000 128.410,4.650 129.020,3.000 129.350 C 0.369 129.876,0.000 130.370,0.000 133.368 C -0.000 137.380,2.703 151.611,4.014 154.500 C 4.513 155.600,5.454 159.425,6.104 163.000 C 6.755 166.575,7.626 169.950,8.041 170.500 C 8.456 171.050,9.353 174.988,10.035 179.250 C 10.717 183.512,11.582 187.000,11.957 187.000 C 12.332 187.000,13.224 190.600,13.939 195.000 C 14.653 199.400,15.553 203.000,15.939 203.000 C 16.324 203.000,17.224 206.600,17.939 211.000 C 18.653 215.400,19.553 219.000,19.939 219.000 C 20.324 219.000,21.224 222.600,21.939 227.000 C 22.653 231.400,23.553 235.000,23.939 235.000 C 24.324 235.000,25.224 238.600,25.939 243.000 C 26.653 247.400,27.547 251.000,27.924 251.000 C 28.301 251.000,29.192 254.487,29.904 258.750 C 30.615 263.012,31.544 266.950,31.967 267.500 C 32.390 268.050,33.305 271.650,34.000 275.500 C 34.695 279.350,35.599 282.950,36.009 283.500 C 36.419 284.050,37.291 287.642,37.947 291.481 C 38.602 295.321,39.486 298.921,39.910 299.481 C 40.334 300.042,41.255 303.875,41.957 308.000 C 42.659 312.125,43.572 315.950,43.986 316.500 C 44.400 317.050,45.327 320.650,46.046 324.500 C 46.765 328.350,47.684 331.950,48.089 332.500 C 48.494 333.050,49.354 336.425,50.000 340.000 C 50.646 343.575,51.513 346.950,51.927 347.500 C 52.340 348.050,53.273 351.875,54.000 356.000 C 54.727 360.125,55.641 363.950,56.031 364.500 C 56.420 365.050,57.331 368.538,58.053 372.250 C 58.776 375.962,59.653 379.000,60.003 379.000 C 60.353 379.000,61.224 382.600,61.939 387.000 C 62.653 391.400,63.634 395.000,64.119 395.000 C 64.604 395.000,65.000 396.125,65.000 397.500 L 65.000 400.000 173.614 400.000 L 282.227 400.000 281.516 395.250 C 281.124 392.637,280.447 390.275,280.011 390.000 C 279.575 389.725,278.657 386.012,277.972 381.750 C 277.286 377.488,276.392 374.000,275.985 374.000 C 275.578 374.000,274.684 370.400,274.000 366.000 C 273.316 361.600,272.422 358.000,272.015 358.000 C 271.608 358.000,270.714 354.512,270.028 350.250 C 269.343 345.988,268.413 342.269,267.963 341.986 C 267.513 341.703,266.925 339.678,266.656 337.486 C 265.608 328.950,264.687 324.449,263.741 323.250 C 262.965 322.266,243.087 322.000,170.378 322.000 L 78.000 322.000 78.000 211.500 C 78.000 87.643,78.824 100.058,70.750 102.203 M98.000 159.000 L 98.000 211.000 110.000 211.000 L 122.000 211.000 122.000 196.000 L 122.000 181.000 130.066 181.000 C 138.497 181.000,142.000 182.047,142.000 184.567 C 142.000 185.389,142.598 186.292,143.330 186.573 C 144.061 186.854,145.270 188.640,146.016 190.542 C 146.763 192.444,147.750 194.000,148.211 194.000 C 148.672 194.000,149.477 195.125,150.000 196.500 C 150.523 197.875,151.328 199.000,151.789 199.000 C 152.250 199.000,153.245 200.575,154.000 202.500 C 154.755 204.425,155.750 206.000,156.211 206.000 C 156.672 206.000,157.477 207.125,158.000 208.500 L 158.950 211.000 172.975 211.000 C 184.831 211.000,187.000 210.766,187.000 209.486 C 187.000 207.571,184.887 203.748,183.250 202.700 C 182.563 202.260,182.000 201.234,182.000 200.419 C 182.000 199.604,181.325 198.678,180.500 198.362 C 179.675 198.045,179.000 197.255,179.000 196.605 C 179.000 195.956,177.668 193.866,176.041 191.962 C 174.413 190.058,173.063 187.938,173.041 187.250 C 173.018 186.563,172.539 186.000,171.975 186.000 C 171.412 186.000,170.523 184.875,170.000 183.500 C 169.477 182.125,168.698 181.000,168.269 181.000 C 167.840 181.000,166.869 179.601,166.112 177.891 C 164.678 174.650,165.541 173.055,168.750 173.015 C 169.438 173.007,170.000 172.550,170.000 172.000 C 170.000 171.450,170.563 170.995,171.250 170.989 C 172.744 170.977,179.000 164.730,179.000 163.251 C 179.000 162.680,179.617 161.977,180.371 161.688 C 181.126 161.398,182.061 159.892,182.451 158.341 C 182.840 156.789,183.657 155.212,184.266 154.836 C 185.872 153.843,185.875 130.792,184.268 130.256 C 183.606 130.035,182.772 128.300,182.415 126.400 C 182.059 124.500,180.920 122.492,179.884 121.938 C 178.848 121.383,178.000 120.370,178.000 119.687 C 178.000 118.202,174.782 115.313,171.422 113.783 C 170.090 113.176,169.000 112.355,169.000 111.958 C 169.000 111.063,161.018 109.000,157.557 109.000 C 156.151 109.000,155.000 108.550,155.000 108.000 C 155.000 107.357,144.833 107.000,126.500 107.000 L 98.000 107.000 98.000 159.000 M153.788 131.573 C 154.179 132.163,155.330 132.953,156.345 133.328 C 157.360 133.703,158.425 134.908,158.712 136.005 C 158.999 137.102,159.631 138.000,160.117 138.000 C 161.475 138.000,161.163 147.885,159.750 149.614 C 158.153 151.568,155.568 154.153,153.614 155.750 C 152.546 156.623,147.694 157.000,137.542 157.000 L 123.000 157.000 123.000 143.408 L 123.000 129.817 138.038 130.158 C 147.259 130.368,153.351 130.915,153.788 131.573 M211.000 165.000 L 211.000 177.000 200.000 177.000 L 189.000 177.000 189.000 188.000 L 189.000 199.000 200.000 199.000 L 211.000 199.000 211.000 210.500 L 211.000 222.000 222.500 222.000 L 234.000 222.000 234.000 210.500 L 234.000 199.000 245.500 199.000 L 257.000 199.000 257.000 188.000 L 257.000 177.000 245.500 177.000 L 234.000 177.000 234.000 165.000 L 234.000 153.000 222.500 153.000 L 211.000 153.000 211.000 165.000 M98.210 285.250 L 98.500 293.500 145.750 293.760 L 193.000 294.020 193.000 285.510 L 193.000 277.000 145.460 277.000 L 97.919 277.000 98.210 285.250 " stroke="none" fill="#000000" fill-rule="evenodd"></path></g></svg>