<svg version="1.1" width="515" height="515" xmlns="http://www.w3.org/2000/svg">
<g>
<path d="M243.000 85.000 C 243.000 85.550,241.425 86.000,239.500 86.000 C 237.056 86.000,236.000 86.452,236.000 87.500 C 236.000 88.500,235.000 89.000,233.000 89.000 C 231.350 89.000,230.000 89.450,230.000 90.000 C 230.000 90.550,229.200 91.000,228.222 91.000 C 226.392 91.000,223.000 94.255,223.000 96.011 C 223.000 96.555,222.079 97.000,220.953 97.000 C 218.786 97.000,210.000 104.971,210.000 106.938 C 210.000 107.574,208.875 109.138,207.500 110.412 C 206.125 111.687,205.000 113.690,205.000 114.865 C 205.000 116.096,204.365 117.000,203.500 117.000 C 202.567 117.000,202.000 117.944,202.000 119.500 C 202.000 120.875,201.550 122.000,201.000 122.000 C 200.450 122.000,200.000 123.077,200.000 124.393 C 200.000 125.709,199.325 127.045,198.500 127.362 C 197.613 127.702,197.000 129.204,197.000 131.040 C 197.000 132.747,196.325 134.818,195.500 135.643 C 194.535 136.608,194.000 139.079,194.000 142.571 C 194.000 145.557,193.550 148.000,193.000 148.000 C 192.450 148.000,192.000 150.250,192.000 153.000 C 192.000 157.667,191.833 158.000,189.500 158.000 C 187.944 158.000,187.000 158.567,187.000 159.500 C 187.000 160.433,186.056 161.000,184.500 161.000 C 182.944 161.000,182.000 161.567,182.000 162.500 C 182.000 163.325,181.325 164.000,180.500 164.000 C 179.675 164.000,179.000 164.450,179.000 165.000 C 179.000 165.550,178.325 166.000,177.500 166.000 C 176.675 166.000,176.000 166.675,176.000 167.500 C 176.000 168.351,175.103 169.000,173.929 169.000 C 171.715 169.000,169.000 171.164,169.000 172.929 C 169.000 173.518,168.325 174.000,167.500 174.000 C 166.567 174.000,166.000 174.944,166.000 176.500 C 166.000 177.875,165.550 179.000,165.000 179.000 C 164.450 179.000,164.000 179.675,164.000 180.500 C 164.000 181.325,163.325 182.000,162.500 182.000 C 161.675 182.000,161.000 182.450,161.000 183.000 C 161.000 183.550,160.325 184.000,159.500 184.000 C 158.567 184.000,158.000 184.944,158.000 186.500 C 158.000 187.875,157.550 189.000,157.000 189.000 C 156.450 189.000,156.000 189.627,156.000 190.393 C 156.000 191.159,155.325 192.045,154.500 192.362 C 153.675 192.678,153.000 193.851,153.000 194.969 C 153.000 196.086,152.550 197.000,152.000 197.000 C 151.450 197.000,151.000 198.077,151.000 199.393 C 151.000 200.709,150.325 202.045,149.500 202.362 C 148.571 202.718,148.000 204.240,148.000 206.362 C 148.000 208.483,147.429 210.005,146.500 210.362 C 145.472 210.756,145.000 212.363,145.000 215.469 C 145.000 217.961,144.550 220.000,144.000 220.000 C 143.408 220.000,143.000 223.631,143.000 228.893 C 143.000 235.875,142.678 237.910,141.500 238.362 C 140.675 238.678,140.000 239.851,140.000 240.969 C 140.000 242.086,139.550 243.000,139.000 243.000 C 138.450 243.000,138.000 244.800,138.000 247.000 C 138.000 249.889,137.583 251.000,136.500 251.000 C 135.246 251.000,135.000 253.059,135.000 263.531 C 135.000 273.748,135.277 276.169,136.500 276.638 C 137.325 276.955,138.000 278.095,138.000 279.172 C 138.000 281.134,148.184 292.000,150.022 292.000 C 150.560 292.000,151.000 292.482,151.000 293.071 C 151.000 294.836,153.715 297.000,155.929 297.000 C 157.103 297.000,158.000 297.649,158.000 298.500 C 158.000 299.325,158.675 300.000,159.500 300.000 C 160.738 300.000,161.000 301.833,161.000 310.500 C 161.000 319.167,161.262 321.000,162.500 321.000 C 163.351 321.000,164.000 321.897,164.000 323.071 C 164.000 325.724,166.276 328.000,168.929 328.000 C 170.851 328.000,171.000 328.575,171.000 336.000 C 171.000 340.667,170.583 344.000,170.000 344.000 C 169.374 344.000,169.000 350.167,169.000 360.500 C 169.000 370.833,169.374 377.000,170.000 377.000 C 170.603 377.000,171.000 381.167,171.000 387.500 C 171.000 396.167,171.262 398.000,172.500 398.000 C 173.700 398.000,174.000 399.500,174.000 405.500 C 174.000 409.833,174.422 413.000,175.000 413.000 C 175.550 413.000,176.000 415.264,176.000 418.031 C 176.000 421.581,176.442 423.232,177.500 423.638 C 178.426 423.994,179.000 425.513,179.000 427.607 C 179.000 429.956,179.461 431.000,180.500 431.000 C 181.433 431.000,182.000 431.944,182.000 433.500 C 182.000 434.875,182.450 436.000,183.000 436.000 C 183.550 436.000,184.000 437.350,184.000 439.000 C 184.000 441.000,184.500 442.000,185.500 442.000 C 186.351 442.000,187.000 442.897,187.000 444.071 C 187.000 446.285,189.164 449.000,190.929 449.000 C 191.518 449.000,192.000 450.125,192.000 451.500 C 192.000 452.875,192.450 454.000,193.000 454.000 C 193.550 454.000,194.000 454.675,194.000 455.500 C 194.000 456.325,194.627 457.000,195.393 457.000 C 196.159 457.000,197.045 457.675,197.362 458.500 C 197.678 459.325,198.851 460.000,199.969 460.000 C 201.086 460.000,202.000 460.450,202.000 461.000 C 202.000 461.583,205.333 462.000,210.000 462.000 C 214.667 462.000,218.000 461.583,218.000 461.000 C 218.000 460.450,219.575 460.000,221.500 460.000 C 223.944 460.000,225.000 459.548,225.000 458.500 C 225.000 457.567,225.944 457.000,227.500 457.000 C 229.056 457.000,230.000 456.433,230.000 455.500 C 230.000 454.500,231.000 454.000,233.000 454.000 C 234.650 454.000,236.000 453.550,236.000 453.000 C 236.000 452.450,237.125 452.000,238.500 452.000 C 240.056 452.000,241.000 451.433,241.000 450.500 C 241.000 449.567,241.944 449.000,243.500 449.000 C 244.875 449.000,246.000 448.550,246.000 448.000 C 246.000 447.450,246.914 447.000,248.031 447.000 C 249.149 447.000,250.322 446.325,250.638 445.500 C 250.955 444.675,251.841 444.000,252.607 444.000 C 253.373 444.000,254.000 443.550,254.000 443.000 C 254.000 442.450,255.125 442.000,256.500 442.000 C 258.056 442.000,259.000 441.433,259.000 440.500 C 259.000 439.567,259.944 439.000,261.500 439.000 C 263.056 439.000,264.000 438.433,264.000 437.500 C 264.000 436.567,264.944 436.000,266.500 436.000 C 267.875 436.000,269.000 435.550,269.000 435.000 C 269.000 434.450,270.125 434.000,271.500 434.000 C 273.056 434.000,274.000 433.433,274.000 432.500 C 274.000 431.567,274.944 431.000,276.500 431.000 C 277.875 431.000,279.000 430.550,279.000 430.000 C 279.000 429.450,280.103 429.000,281.450 429.000 C 282.798 429.000,284.307 428.274,284.803 427.388 C 285.553 426.047,286.823 426.887,292.350 432.388 C 296.105 436.124,299.866 439.000,300.997 439.000 C 302.099 439.000,303.000 439.482,303.000 440.071 C 303.000 441.456,305.544 444.000,306.929 444.000 C 307.518 444.000,308.000 444.482,308.000 445.071 C 308.000 446.836,310.715 449.000,312.929 449.000 C 314.103 449.000,315.000 449.649,315.000 450.500 C 315.000 451.722,316.667 452.000,324.000 452.000 C 331.333 452.000,333.000 451.722,333.000 450.500 C 333.000 449.556,333.952 449.000,335.571 449.000 C 338.208 449.000,341.000 446.980,341.000 445.071 C 341.000 444.482,341.482 444.000,342.071 444.000 C 343.456 444.000,346.000 441.456,346.000 440.071 C 346.000 439.482,346.675 439.000,347.500 439.000 C 348.433 439.000,349.000 438.056,349.000 436.500 C 349.000 435.125,349.450 434.000,350.000 434.000 C 350.550 434.000,351.000 432.875,351.000 431.500 C 351.000 429.944,351.567 429.000,352.500 429.000 C 353.415 429.000,354.000 428.067,354.000 426.607 C 354.000 425.291,354.675 423.955,355.500 423.638 C 356.325 423.322,357.000 421.924,357.000 420.531 C 357.000 419.139,357.450 418.000,358.000 418.000 C 358.550 418.000,359.000 416.425,359.000 414.500 C 359.000 412.056,359.452 411.000,360.500 411.000 C 361.583 411.000,362.000 409.889,362.000 407.000 C 362.000 404.800,362.450 403.000,363.000 403.000 C 363.550 403.000,364.000 401.923,364.000 400.607 C 364.000 399.291,364.675 397.955,365.500 397.638 C 366.441 397.277,367.000 395.748,367.000 393.531 C 367.000 391.589,367.435 390.000,367.966 390.000 C 368.497 390.000,369.230 387.750,369.594 385.000 C 369.959 382.250,370.650 380.000,371.129 380.000 C 371.608 380.000,372.000 376.400,372.000 372.000 C 372.000 365.556,372.292 364.000,373.500 364.000 C 374.793 364.000,375.000 360.552,375.000 338.969 C 375.000 317.641,374.778 313.852,373.500 313.362 C 372.274 312.891,372.000 310.431,372.000 299.893 C 372.000 289.099,372.244 287.000,373.500 287.000 C 374.679 287.000,375.000 285.611,375.000 280.500 C 375.000 276.833,375.436 274.000,376.000 274.000 C 376.600 274.000,377.000 270.000,377.000 264.000 C 377.000 255.778,377.267 254.000,378.500 254.000 C 379.722 254.000,380.000 252.333,380.000 245.000 C 380.000 237.667,379.722 236.000,378.500 236.000 C 377.417 236.000,377.000 234.889,377.000 232.000 C 377.000 229.800,376.550 228.000,376.000 228.000 C 375.450 228.000,375.000 227.325,375.000 226.500 C 375.000 225.675,374.325 225.000,373.500 225.000 C 372.596 225.000,372.000 224.074,372.000 222.669 C 372.000 221.206,371.069 219.840,369.500 219.000 C 367.931 218.160,367.000 216.794,367.000 215.331 C 367.000 213.926,366.404 213.000,365.500 213.000 C 364.675 213.000,364.000 212.325,364.000 211.500 C 364.000 210.675,363.550 210.000,363.000 210.000 C 362.450 210.000,362.000 209.325,362.000 208.500 C 362.000 207.675,361.518 207.000,360.929 207.000 C 359.544 207.000,357.000 204.456,357.000 203.071 C 357.000 202.482,356.325 202.000,355.500 202.000 C 354.675 202.000,354.000 201.550,354.000 201.000 C 354.000 200.450,353.325 200.000,352.500 200.000 C 351.675 200.000,351.000 199.325,351.000 198.500 C 351.000 197.675,350.550 197.000,350.000 197.000 C 349.450 197.000,349.000 196.325,349.000 195.500 C 349.000 194.675,348.518 194.000,347.929 194.000 C 346.544 194.000,344.000 191.456,344.000 190.071 C 344.000 189.482,343.325 189.000,342.500 189.000 C 341.567 189.000,341.000 188.056,341.000 186.500 C 341.000 185.125,340.550 184.000,340.000 184.000 C 339.450 184.000,339.000 182.411,339.000 180.469 C 339.000 178.252,338.441 176.723,337.500 176.362 C 336.574 176.006,336.000 174.487,336.000 172.393 C 336.000 170.044,335.539 169.000,334.500 169.000 C 333.348 169.000,333.000 167.722,333.000 163.500 C 333.000 160.475,332.550 158.000,332.000 158.000 C 331.450 158.000,331.000 155.961,331.000 153.469 C 331.000 150.363,330.528 148.756,329.500 148.362 C 328.522 147.986,328.000 146.431,328.000 143.893 C 328.000 141.752,327.550 140.000,327.000 140.000 C 326.450 140.000,326.000 137.750,326.000 135.000 C 326.000 131.222,325.633 130.000,324.500 130.000 C 323.457 130.000,323.000 128.951,323.000 126.559 C 323.000 124.666,322.550 122.840,322.000 122.500 C 321.450 122.160,321.000 120.784,321.000 119.441 C 321.000 117.938,320.424 117.000,319.500 117.000 C 318.567 117.000,318.000 116.056,318.000 114.500 C 318.000 112.944,317.433 112.000,316.500 112.000 C 315.675 112.000,315.000 111.325,315.000 110.500 C 315.000 109.675,314.550 109.000,314.000 109.000 C 313.450 109.000,313.000 108.163,313.000 107.140 C 313.000 106.117,311.875 104.435,310.500 103.403 C 309.125 102.370,308.000 100.957,308.000 100.263 C 308.000 99.568,307.518 99.000,306.929 99.000 C 305.544 99.000,303.000 96.456,303.000 95.071 C 303.000 94.482,302.325 94.000,301.500 94.000 C 300.675 94.000,300.000 93.559,300.000 93.019 C 300.000 92.480,298.875 91.756,297.500 91.411 C 296.125 91.066,295.000 90.382,295.000 89.892 C 295.000 89.401,293.923 89.000,292.607 89.000 C 291.291 89.000,289.955 88.325,289.638 87.500 C 289.232 86.442,287.581 86.000,284.031 86.000 C 281.264 86.000,279.000 85.550,279.000 85.000 C 279.000 84.370,272.333 84.000,261.000 84.000 C 249.667 84.000,243.000 84.370,243.000 85.000 M272.000 95.500 C 272.000 96.633,273.222 97.000,277.000 97.000 C 279.750 97.000,282.000 97.450,282.000 98.000 C 282.000 98.550,283.125 99.000,284.500 99.000 C 286.056 99.000,287.000 99.567,287.000 100.500 C 287.000 101.433,287.944 102.000,289.500 102.000 C 290.875 102.000,292.000 102.450,292.000 103.000 C 292.000 103.550,292.675 104.000,293.500 104.000 C 294.325 104.000,295.000 104.482,295.000 105.071 C 295.000 106.456,297.544 109.000,298.929 109.000 C 299.518 109.000,300.000 109.675,300.000 110.500 C 300.000 111.325,300.675 112.000,301.500 112.000 C 302.433 112.000,303.000 112.944,303.000 114.500 C 303.000 115.875,303.450 117.000,304.000 117.000 C 304.550 117.000,305.000 117.675,305.000 118.500 C 305.000 119.325,305.675 120.000,306.500 120.000 C 307.325 120.000,308.000 120.450,308.000 121.000 C 308.000 121.564,305.167 122.000,301.500 122.000 C 296.389 122.000,295.000 122.321,295.000 123.500 C 295.000 124.325,294.518 125.000,293.929 125.000 C 291.793 125.000,290.000 127.934,290.000 131.429 C 290.000 134.844,290.153 135.000,293.500 135.000 C 295.425 135.000,297.000 134.550,297.000 134.000 C 297.000 133.436,299.833 133.000,303.500 133.000 C 308.611 133.000,310.000 132.679,310.000 131.500 C 310.000 130.675,310.675 130.000,311.500 130.000 C 312.583 130.000,313.000 131.111,313.000 134.000 C 313.000 136.200,313.450 138.000,314.000 138.000 C 314.550 138.000,315.000 140.250,315.000 143.000 C 315.000 146.778,315.367 148.000,316.500 148.000 C 317.633 148.000,318.000 149.222,318.000 153.000 C 318.000 156.778,318.367 158.000,319.500 158.000 C 320.652 158.000,321.000 159.278,321.000 163.500 C 321.000 166.525,321.450 169.000,322.000 169.000 C 322.550 169.000,323.000 170.575,323.000 172.500 C 323.000 174.944,323.452 176.000,324.500 176.000 C 325.583 176.000,326.000 177.111,326.000 180.000 C 326.000 182.200,326.450 184.000,327.000 184.000 C 327.550 184.000,328.000 185.800,328.000 188.000 C 328.000 190.889,328.417 192.000,329.500 192.000 C 330.433 192.000,331.000 192.944,331.000 194.500 C 331.000 195.875,331.450 197.000,332.000 197.000 C 332.550 197.000,333.000 198.589,333.000 200.531 C 333.000 202.748,333.559 204.277,334.500 204.638 C 335.325 204.955,336.000 206.291,336.000 207.607 C 336.000 209.067,336.585 210.000,337.500 210.000 C 338.433 210.000,339.000 210.944,339.000 212.500 C 339.000 213.875,339.450 215.000,340.000 215.000 C 340.550 215.000,341.000 216.800,341.000 219.000 C 341.000 221.889,341.417 223.000,342.500 223.000 C 343.548 223.000,344.000 224.056,344.000 226.500 C 344.000 228.425,344.450 230.000,345.000 230.000 C 345.550 230.000,346.000 231.800,346.000 234.000 C 346.000 236.889,346.417 238.000,347.500 238.000 C 348.633 238.000,349.000 239.222,349.000 243.000 C 349.000 245.750,349.450 248.000,350.000 248.000 C 350.550 248.000,351.000 249.993,351.000 252.429 C 351.000 255.032,351.618 257.475,352.500 258.357 C 353.396 259.253,354.000 261.698,354.000 264.429 C 354.000 267.825,354.385 269.000,355.500 269.000 C 356.708 269.000,357.000 270.556,357.000 277.000 C 357.000 281.667,357.417 285.000,358.000 285.000 C 358.578 285.000,359.000 288.167,359.000 292.500 C 359.000 298.500,359.300 300.000,360.500 300.000 C 361.803 300.000,362.000 304.389,362.000 333.500 C 362.000 362.611,361.803 367.000,360.500 367.000 C 359.321 367.000,359.000 368.389,359.000 373.500 C 359.000 377.167,358.564 380.000,358.000 380.000 C 357.450 380.000,357.000 381.800,357.000 384.000 C 357.000 386.889,356.583 388.000,355.500 388.000 C 354.452 388.000,354.000 389.056,354.000 391.500 C 354.000 393.425,353.559 395.000,353.019 395.000 C 352.480 395.000,351.756 396.125,351.411 397.500 C 351.066 398.875,350.382 400.000,349.892 400.000 C 349.401 400.000,349.000 401.800,349.000 404.000 C 349.000 406.889,348.583 408.000,347.500 408.000 C 346.567 408.000,346.000 408.944,346.000 410.500 C 346.000 411.875,345.550 413.000,345.000 413.000 C 344.450 413.000,344.000 414.125,344.000 415.500 C 344.000 417.056,343.433 418.000,342.500 418.000 C 341.500 418.000,341.000 419.000,341.000 421.000 C 341.000 422.650,340.550 424.000,340.000 424.000 C 339.450 424.000,339.000 425.125,339.000 426.500 C 339.000 428.056,338.433 429.000,337.500 429.000 C 336.567 429.000,336.000 429.944,336.000 431.500 C 336.000 432.875,335.518 434.000,334.929 434.000 C 333.544 434.000,331.000 436.544,331.000 437.929 C 331.000 439.677,321.320 439.277,320.638 437.500 C 320.322 436.675,319.117 436.000,317.960 436.000 C 315.720 436.000,313.000 433.846,313.000 432.071 C 313.000 431.482,312.518 431.000,311.929 431.000 C 310.544 431.000,308.000 428.456,308.000 427.071 C 308.000 426.482,307.518 426.000,306.929 426.000 C 305.020 426.000,303.000 423.208,303.000 420.571 C 303.000 418.495,303.481 418.000,305.500 418.000 C 306.875 418.000,308.000 417.550,308.000 417.000 C 308.000 416.450,309.125 416.000,310.500 416.000 C 312.056 416.000,313.000 415.433,313.000 414.500 C 313.000 413.567,313.944 413.000,315.500 413.000 C 316.875 413.000,318.000 412.550,318.000 412.000 C 318.000 411.450,319.125 411.000,320.500 411.000 C 322.056 411.000,323.000 410.433,323.000 409.500 C 323.000 408.567,323.944 408.000,325.500 408.000 C 328.431 408.000,329.177 402.034,326.571 399.429 C 324.942 397.799,321.000 397.496,321.000 399.000 C 321.000 399.550,319.200 400.000,317.000 400.000 C 314.111 400.000,313.000 400.417,313.000 401.500 C 313.000 402.433,312.056 403.000,310.500 403.000 C 308.944 403.000,308.000 403.567,308.000 404.500 C 308.000 405.583,306.889 406.000,304.000 406.000 C 301.800 406.000,300.000 406.450,300.000 407.000 C 300.000 407.550,298.875 408.000,297.500 408.000 C 295.944 408.000,295.000 408.567,295.000 409.500 C 295.000 410.433,294.056 411.000,292.500 411.000 C 291.125 411.000,290.000 411.450,290.000 412.000 C 290.000 412.550,288.200 413.000,286.000 413.000 C 283.111 413.000,282.000 413.417,282.000 414.500 C 282.000 415.433,281.056 416.000,279.500 416.000 C 278.125 416.000,277.000 416.450,277.000 417.000 C 277.000 417.550,275.875 418.000,274.500 418.000 C 272.944 418.000,272.000 418.567,272.000 419.500 C 272.000 420.583,270.889 421.000,268.000 421.000 C 265.111 421.000,264.000 421.417,264.000 422.500 C 264.000 423.433,263.056 424.000,261.500 424.000 C 260.125 424.000,259.000 424.450,259.000 425.000 C 259.000 425.550,257.875 426.000,256.500 426.000 C 254.944 426.000,254.000 426.567,254.000 427.500 C 254.000 428.424,253.062 429.000,251.559 429.000 C 250.216 429.000,248.840 429.450,248.500 430.000 C 248.160 430.550,246.784 431.000,245.441 431.000 C 244.098 431.000,243.000 431.482,243.000 432.071 C 243.000 433.836,240.285 436.000,238.071 436.000 C 236.897 436.000,236.000 436.649,236.000 437.500 C 236.000 438.500,235.000 439.000,233.000 439.000 C 231.000 439.000,230.000 439.500,230.000 440.500 C 230.000 441.351,229.103 442.000,227.929 442.000 C 225.715 442.000,223.000 444.164,223.000 445.929 C 223.000 446.559,220.769 447.000,217.583 447.000 C 214.228 447.000,211.945 447.476,211.583 448.250 C 211.117 449.250,210.883 449.250,210.417 448.250 C 210.096 447.563,208.746 447.000,207.417 447.000 C 205.935 447.000,205.000 446.420,205.000 445.500 C 205.000 444.675,204.518 444.000,203.929 444.000 C 202.154 444.000,200.000 441.280,200.000 439.040 C 200.000 437.883,199.325 436.678,198.500 436.362 C 197.675 436.045,197.000 434.709,197.000 433.393 C 197.000 431.933,196.415 431.000,195.500 431.000 C 194.567 431.000,194.000 430.056,194.000 428.500 C 194.000 427.125,193.550 426.000,193.000 426.000 C 192.450 426.000,192.000 424.875,192.000 423.500 C 192.000 421.944,191.433 421.000,190.500 421.000 C 189.417 421.000,189.000 419.889,189.000 417.000 C 189.000 414.800,188.550 413.000,188.000 413.000 C 187.450 413.000,187.000 410.750,187.000 408.000 C 187.000 404.222,186.633 403.000,185.500 403.000 C 184.278 403.000,184.000 401.333,184.000 394.000 C 184.000 388.667,183.593 385.000,183.000 385.000 C 182.362 385.000,182.000 376.667,182.000 362.000 C 182.000 347.333,182.362 339.000,183.000 339.000 C 183.550 339.000,184.000 337.200,184.000 335.000 L 184.000 331.000 190.500 331.000 C 195.611 331.000,197.000 330.679,197.000 329.500 C 197.000 328.447,198.063 328.000,200.571 328.000 C 204.066 328.000,207.000 326.207,207.000 324.071 C 207.000 323.482,208.125 323.000,209.500 323.000 C 210.875 323.000,212.000 322.550,212.000 322.000 C 212.000 321.450,212.675 321.000,213.500 321.000 C 214.325 321.000,215.000 320.325,215.000 319.500 C 215.000 318.675,215.675 318.000,216.500 318.000 C 217.325 318.000,218.000 317.518,218.000 316.929 C 218.000 315.544,220.544 313.000,221.929 313.000 C 222.518 313.000,223.000 311.875,223.000 310.500 C 223.000 309.125,223.450 308.000,224.000 308.000 C 224.550 308.000,225.000 306.200,225.000 304.000 C 225.000 301.111,225.417 300.000,226.500 300.000 C 227.738 300.000,228.000 298.167,228.000 289.500 C 228.000 280.833,227.738 279.000,226.500 279.000 C 225.452 279.000,225.000 277.944,225.000 275.500 C 225.000 273.056,225.452 272.000,226.500 272.000 C 227.424 272.000,228.000 271.062,228.000 269.559 C 228.000 268.216,228.450 266.840,229.000 266.500 C 229.550 266.160,230.000 263.659,230.000 260.941 C 230.000 257.216,230.369 256.000,231.500 256.000 C 232.773 256.000,233.000 253.500,233.000 239.500 C 233.000 225.500,232.773 223.000,231.500 223.000 C 230.417 223.000,230.000 221.889,230.000 219.000 C 230.000 216.800,229.550 215.000,229.000 215.000 C 228.450 215.000,228.000 213.200,228.000 211.000 C 228.000 208.111,227.583 207.000,226.500 207.000 C 225.649 207.000,225.000 206.103,225.000 204.929 C 225.000 202.715,222.836 200.000,221.071 200.000 C 220.482 200.000,220.000 198.843,220.000 197.429 C 220.000 194.792,217.980 192.000,216.071 192.000 C 215.482 192.000,215.000 191.325,215.000 190.500 C 215.000 189.675,214.518 189.000,213.929 189.000 C 212.544 189.000,210.000 186.456,210.000 185.071 C 210.000 184.482,208.875 184.000,207.500 184.000 L 205.000 184.000 205.000 166.000 C 205.000 154.667,205.370 148.000,206.000 148.000 C 206.550 148.000,207.000 145.750,207.000 143.000 C 207.000 139.222,207.367 138.000,208.500 138.000 C 209.583 138.000,210.000 136.889,210.000 134.000 C 210.000 131.800,210.450 130.000,211.000 130.000 C 211.550 130.000,212.000 128.875,212.000 127.500 C 212.000 125.944,212.567 125.000,213.500 125.000 C 214.433 125.000,215.000 124.056,215.000 122.500 C 215.000 120.944,215.567 120.000,216.500 120.000 C 217.325 120.000,218.000 119.325,218.000 118.500 C 218.000 117.675,218.450 117.000,219.000 117.000 C 219.550 117.000,220.000 115.875,220.000 114.500 C 220.000 112.944,220.567 112.000,221.500 112.000 C 222.325 112.000,223.000 111.518,223.000 110.929 C 223.000 109.164,225.715 107.000,227.929 107.000 C 229.103 107.000,230.000 106.351,230.000 105.500 C 230.000 104.675,230.675 104.000,231.500 104.000 C 232.325 104.000,233.000 103.550,233.000 103.000 C 233.000 102.450,234.125 102.000,235.500 102.000 C 237.056 102.000,238.000 101.433,238.000 100.500 C 238.000 99.567,238.944 99.000,240.500 99.000 C 241.875 99.000,243.000 98.550,243.000 98.000 C 243.000 97.450,245.264 97.000,248.031 97.000 C 251.581 97.000,253.232 96.558,253.638 95.500 C 254.090 94.322,256.125 94.000,263.107 94.000 C 270.345 94.000,272.000 94.279,272.000 95.500 M247.403 132.500 C 246.370 133.875,244.957 135.000,244.263 135.000 C 243.568 135.000,243.000 136.125,243.000 137.500 C 243.000 138.875,242.550 140.000,242.000 140.000 C 241.450 140.000,241.000 141.125,241.000 142.500 C 241.000 144.690,241.433 145.000,244.500 145.000 C 246.425 145.000,248.000 144.550,248.000 144.000 C 248.000 143.450,249.350 143.000,251.000 143.000 C 252.956 143.000,254.000 142.495,254.000 141.548 C 254.000 140.465,255.589 140.020,260.250 139.798 C 267.423 139.456,270.341 133.942,263.750 133.184 C 262.176 133.002,261.000 132.254,261.000 131.434 C 261.000 128.631,249.639 129.522,247.403 132.500 M192.000 183.000 C 192.000 190.333,191.722 192.000,190.500 192.000 C 189.567 192.000,189.000 192.944,189.000 194.500 C 189.000 195.875,188.550 197.000,188.000 197.000 C 187.450 197.000,187.000 197.675,187.000 198.500 C 187.000 199.325,186.518 200.000,185.929 200.000 C 184.544 200.000,182.000 202.544,182.000 203.929 C 182.000 204.518,181.325 205.000,180.500 205.000 C 179.675 205.000,179.000 205.450,179.000 206.000 C 179.000 206.550,178.325 207.000,177.500 207.000 C 176.675 207.000,176.000 207.482,176.000 208.071 C 176.000 209.836,173.285 212.000,171.071 212.000 C 169.897 212.000,169.000 212.649,169.000 213.500 C 169.000 214.325,168.325 215.000,167.500 215.000 C 166.675 215.000,166.000 215.482,166.000 216.071 C 166.000 217.456,163.456 220.000,162.071 220.000 C 161.482 220.000,161.000 220.675,161.000 221.500 C 161.000 222.433,160.056 223.000,158.500 223.000 C 156.944 223.000,156.000 222.433,156.000 221.500 C 156.000 220.675,156.450 220.000,157.000 220.000 C 157.550 220.000,158.000 218.200,158.000 216.000 C 158.000 213.111,158.417 212.000,159.500 212.000 C 160.415 212.000,161.000 211.067,161.000 209.607 C 161.000 208.291,161.675 206.955,162.500 206.638 C 163.325 206.322,164.000 205.149,164.000 204.031 C 164.000 202.914,164.450 202.000,165.000 202.000 C 165.550 202.000,166.000 200.875,166.000 199.500 C 166.000 197.944,166.567 197.000,167.500 197.000 C 168.325 197.000,169.000 196.325,169.000 195.500 C 169.000 194.675,169.450 194.000,170.000 194.000 C 170.550 194.000,171.000 192.875,171.000 191.500 C 171.000 190.125,171.482 189.000,172.071 189.000 C 172.661 189.000,173.786 188.357,174.571 187.571 C 175.357 186.786,176.000 185.661,176.000 185.071 C 176.000 184.482,176.485 184.000,177.077 184.000 C 177.669 184.000,179.469 182.685,181.077 181.077 C 182.685 179.469,184.000 177.669,184.000 177.077 C 184.000 176.485,184.675 176.000,185.500 176.000 C 186.325 176.000,187.000 175.550,187.000 175.000 C 187.000 174.450,188.125 174.000,189.500 174.000 C 191.981 174.000,192.000 174.067,192.000 183.000 M205.000 198.071 C 205.000 198.661,205.643 199.786,206.429 200.571 C 207.214 201.357,208.339 202.000,208.929 202.000 C 209.518 202.000,210.000 203.125,210.000 204.500 C 210.000 205.875,210.450 207.000,211.000 207.000 C 211.550 207.000,212.000 208.125,212.000 209.500 C 212.000 211.056,212.567 212.000,213.500 212.000 C 214.500 212.000,215.000 213.000,215.000 215.000 C 215.000 217.000,215.500 218.000,216.500 218.000 C 217.433 218.000,218.000 218.944,218.000 220.500 C 218.000 221.875,218.450 223.000,219.000 223.000 C 219.564 223.000,220.000 225.833,220.000 229.500 C 220.000 234.611,220.321 236.000,221.500 236.000 C 222.700 236.000,223.000 237.500,223.000 243.500 C 223.000 249.500,222.700 251.000,221.500 251.000 C 220.417 251.000,220.000 252.111,220.000 255.000 C 220.000 257.200,219.550 259.000,219.000 259.000 C 218.417 259.000,218.000 255.667,218.000 251.000 C 218.000 244.556,217.708 243.000,216.500 243.000 C 215.367 243.000,215.000 241.778,215.000 238.000 C 215.000 234.222,214.633 233.000,213.500 233.000 C 212.417 233.000,212.000 231.889,212.000 229.000 C 212.000 226.800,211.550 225.000,211.000 225.000 C 210.450 225.000,210.000 223.875,210.000 222.500 C 210.000 220.944,209.433 220.000,208.500 220.000 C 207.567 220.000,207.000 219.056,207.000 217.500 C 207.000 216.125,206.550 215.000,206.000 215.000 C 205.450 215.000,205.000 213.875,205.000 212.500 C 205.000 210.944,204.433 210.000,203.500 210.000 C 202.567 210.000,202.000 209.056,202.000 207.500 C 202.000 206.125,201.550 205.000,201.000 205.000 C 200.450 205.000,200.000 203.875,200.000 202.500 C 200.000 201.125,200.450 200.000,201.000 200.000 C 201.550 200.000,202.000 199.325,202.000 198.500 C 202.000 197.675,202.675 197.000,203.500 197.000 C 204.325 197.000,205.000 197.482,205.000 198.071 M192.000 216.500 C 192.000 217.325,192.450 218.000,193.000 218.000 C 193.550 218.000,194.000 219.125,194.000 220.500 C 194.000 222.056,194.567 223.000,195.500 223.000 C 196.548 223.000,197.000 224.056,197.000 226.500 C 197.000 228.944,197.452 230.000,198.500 230.000 C 199.500 230.000,200.000 231.000,200.000 233.000 C 200.000 234.650,200.450 236.000,201.000 236.000 C 201.550 236.000,202.000 238.250,202.000 241.000 C 202.000 244.778,202.367 246.000,203.500 246.000 C 204.433 246.000,205.000 246.944,205.000 248.500 C 205.000 250.864,204.700 251.000,199.500 251.000 L 194.000 251.000 194.000 256.000 C 194.000 259.778,194.367 261.000,195.500 261.000 C 196.325 261.000,197.000 261.675,197.000 262.500 C 197.000 263.325,197.627 264.000,198.393 264.000 C 199.159 264.000,200.045 264.675,200.362 265.500 C 200.678 266.325,201.658 267.000,202.540 267.000 C 204.362 267.000,207.000 269.324,207.000 270.929 C 207.000 271.518,207.675 272.000,208.500 272.000 C 209.433 272.000,210.000 272.944,210.000 274.500 C 210.000 275.875,210.450 277.000,211.000 277.000 C 211.550 277.000,212.000 278.125,212.000 279.500 C 212.000 281.056,212.567 282.000,213.500 282.000 C 214.722 282.000,215.000 283.667,215.000 291.000 C 215.000 298.333,214.722 300.000,213.500 300.000 C 212.567 300.000,212.000 300.944,212.000 302.500 C 212.000 303.875,211.550 305.000,211.000 305.000 C 210.450 305.000,210.000 305.675,210.000 306.500 C 210.000 307.325,209.518 308.000,208.929 308.000 C 207.544 308.000,205.000 310.544,205.000 311.929 C 205.000 312.518,203.875 313.000,202.500 313.000 C 201.125 313.000,200.000 313.450,200.000 314.000 C 200.000 314.550,198.861 315.000,197.469 315.000 C 196.076 315.000,194.678 315.675,194.362 316.500 C 194.006 317.426,192.487 318.000,190.393 318.000 C 188.044 318.000,187.000 318.461,187.000 319.500 C 187.000 320.583,185.889 321.000,183.000 321.000 C 180.111 321.000,179.000 320.583,179.000 319.500 C 179.000 318.675,178.325 318.000,177.500 318.000 C 176.675 318.000,176.000 317.518,176.000 316.929 C 176.000 315.544,173.456 313.000,172.071 313.000 C 171.482 313.000,171.000 311.875,171.000 310.500 C 171.000 308.944,171.567 308.000,172.500 308.000 C 173.325 308.000,174.000 307.325,174.000 306.500 C 174.000 305.567,174.944 305.000,176.500 305.000 C 178.750 305.000,179.000 304.600,179.000 301.000 C 179.000 298.800,178.518 297.000,177.929 297.000 C 176.544 297.000,174.000 294.456,174.000 293.071 C 174.000 292.482,172.875 292.000,171.500 292.000 C 170.125 292.000,169.000 291.550,169.000 291.000 C 169.000 290.450,168.325 290.000,167.500 290.000 C 166.675 290.000,166.000 289.325,166.000 288.500 C 166.000 287.567,165.056 287.000,163.500 287.000 C 162.125 287.000,161.000 286.550,161.000 286.000 C 161.000 285.450,160.325 285.000,159.500 285.000 C 158.675 285.000,158.000 284.325,158.000 283.500 C 158.000 282.675,157.550 282.000,157.000 282.000 C 156.450 282.000,156.000 281.325,156.000 280.500 C 156.000 279.675,155.518 279.000,154.929 279.000 C 153.544 279.000,151.000 276.456,151.000 275.071 C 151.000 274.482,150.325 274.000,149.500 274.000 C 148.452 274.000,148.000 272.944,148.000 270.500 C 148.000 268.056,147.548 267.000,146.500 267.000 C 145.675 267.000,145.000 266.325,145.000 265.500 C 145.000 264.675,145.675 264.000,146.500 264.000 C 147.679 264.000,148.000 262.611,148.000 257.500 C 148.000 252.389,148.321 251.000,149.500 251.000 C 150.433 251.000,151.000 250.056,151.000 248.500 C 151.000 247.125,151.450 246.000,152.000 246.000 C 152.550 246.000,153.000 245.325,153.000 244.500 C 153.000 243.675,153.482 243.000,154.071 243.000 C 154.661 243.000,155.786 242.357,156.571 241.571 C 157.357 240.786,158.000 239.661,158.000 239.071 C 158.000 238.482,158.568 238.000,159.263 238.000 C 159.957 238.000,161.370 236.875,162.403 235.500 C 163.477 234.070,165.290 233.000,166.640 233.000 C 167.938 233.000,169.000 232.518,169.000 231.929 C 169.000 231.339,169.643 230.214,170.429 229.429 C 171.214 228.643,172.339 228.000,172.929 228.000 C 173.518 228.000,174.000 227.518,174.000 226.929 C 174.000 226.339,174.643 225.214,175.429 224.429 C 176.214 223.643,177.339 223.000,177.929 223.000 C 178.518 223.000,179.000 222.325,179.000 221.500 C 179.000 220.567,179.944 220.000,181.500 220.000 C 182.875 220.000,184.000 219.550,184.000 219.000 C 184.000 218.450,184.675 218.000,185.500 218.000 C 186.325 218.000,187.000 217.325,187.000 216.500 C 187.000 215.567,187.944 215.000,189.500 215.000 C 191.056 215.000,192.000 215.567,192.000 216.500 M357.000 221.500 C 357.000 222.325,357.450 223.000,358.000 223.000 C 358.550 223.000,359.000 224.125,359.000 225.500 C 359.000 227.056,359.567 228.000,360.500 228.000 C 361.433 228.000,362.000 228.944,362.000 230.500 C 362.000 231.875,362.450 233.000,363.000 233.000 C 363.550 233.000,364.000 234.125,364.000 235.500 C 364.000 237.056,364.567 238.000,365.500 238.000 C 366.738 238.000,367.000 239.833,367.000 248.500 C 367.000 257.167,366.738 259.000,365.500 259.000 C 364.369 259.000,364.000 257.784,364.000 254.059 C 364.000 251.341,363.550 248.840,363.000 248.500 C 362.450 248.160,362.000 245.659,362.000 242.941 C 362.000 239.216,361.631 238.000,360.500 238.000 C 359.417 238.000,359.000 236.889,359.000 234.000 C 359.000 231.800,358.550 230.000,358.000 230.000 C 357.450 230.000,357.000 228.425,357.000 226.500 C 357.000 224.056,356.548 223.000,355.500 223.000 C 354.675 223.000,354.000 222.325,354.000 221.500 C 354.000 220.675,354.675 220.000,355.500 220.000 C 356.325 220.000,357.000 220.675,357.000 221.500 " stroke="none" fill-rule="evenodd"></path>
</g>
</svg>