<svg xmlns="http://www.w3.org/2000/svg" width="400" height="400" viewBox="0, 0, 400,400" version="1.1"><g><path d="M-0.000 200.031 L -0.000 252.274 9.071 252.022 L 18.142 251.770 18.380 231.605 L 18.617 211.441 27.092 211.694 L 35.567 211.947 43.669 227.950 C 55.270 250.865,56.940 252.450,69.041 252.030 L 76.549 251.770 76.549 246.046 L 76.549 240.322 73.249 239.396 C 68.934 238.186,68.171 237.310,63.214 227.876 C 58.204 218.340,53.108 208.460,53.102 208.270 C 53.099 208.194,54.790 207.138,56.858 205.921 C 67.900 199.429,70.353 194.653,70.353 179.646 C 70.355 153.457,61.401 147.880,19.248 147.817 L 0.000 147.788 -0.000 200.031 M98.230 200.000 L 98.230 252.212 128.797 252.212 L 159.364 252.212 159.107 244.912 L 158.850 237.611 137.832 237.373 L 116.814 237.136 116.814 221.665 L 116.814 206.195 136.283 206.195 L 155.752 206.195 155.752 199.115 L 155.752 192.035 136.283 192.035 L 116.814 192.035 116.814 176.991 L 116.814 161.947 138.053 161.947 L 159.292 161.947 159.292 154.867 L 159.292 147.788 128.761 147.788 L 98.230 147.788 98.230 200.000 M176.341 148.894 C 176.574 149.502,178.045 154.181,179.611 159.292 C 183.459 171.859,187.644 185.011,188.481 187.168 C 189.092 188.744,191.606 196.747,198.767 219.912 C 199.971 223.805,201.511 228.783,202.190 230.973 C 202.869 233.164,204.592 238.739,206.019 243.363 L 208.614 251.770 221.564 252.015 C 233.686 252.244,234.513 252.155,234.513 250.614 C 234.513 249.708,234.812 248.669,235.176 248.304 C 235.541 247.940,236.301 245.783,236.865 243.511 C 237.827 239.636,239.373 234.364,250.015 198.673 C 254.562 183.421,255.526 180.118,258.410 169.912 C 259.441 166.261,260.525 162.677,260.818 161.947 C 261.111 161.217,262.220 157.732,263.283 154.204 L 265.216 147.788 255.757 147.788 L 246.298 147.788 244.825 152.876 C 239.741 170.439,235.398 186.312,235.398 187.332 C 235.398 187.985,235.016 189.211,234.549 190.056 C 234.082 190.901,233.311 193.385,232.835 195.575 C 231.789 200.389,231.222 202.492,226.984 217.257 C 225.168 223.584,223.485 230.073,223.244 231.677 C 222.513 236.540,220.939 234.424,218.064 224.715 C 216.561 219.639,215.110 214.889,214.840 214.159 C 214.570 213.429,213.482 209.646,212.421 205.752 C 211.360 201.858,210.156 197.677,209.744 196.460 C 208.911 193.996,204.576 179.424,202.242 171.239 C 201.409 168.319,199.815 162.942,198.700 159.292 C 197.584 155.642,196.418 151.560,196.107 150.221 L 195.542 147.788 185.729 147.788 C 178.243 147.788,176.017 148.050,176.341 148.894 M284.956 200.000 L 284.956 252.212 294.248 252.212 L 303.540 252.212 303.540 200.000 L 303.540 147.788 294.248 147.788 L 284.956 147.788 284.956 200.000 M323.009 154.867 L 323.009 161.947 337.603 161.947 L 352.196 161.947 352.426 206.858 L 352.655 251.770 361.718 252.022 L 370.780 252.274 371.010 207.332 L 371.239 162.389 385.398 161.947 L 399.558 161.504 399.816 154.646 L 400.074 147.788 361.542 147.788 L 323.009 147.788 323.009 154.867 M43.892 163.589 C 50.743 166.626,52.468 170.281,52.075 180.931 C 51.588 194.136,47.472 197.313,29.933 198.024 L 18.584 198.484 18.584 179.680 L 18.584 160.876 28.982 161.232 C 37.326 161.519,40.272 161.984,43.892 163.589 " stroke="none" fill-rule="evenodd"></path></g></svg>