<svg width="100%" height="100%" viewBox="0 0 400 400" version="1.1" xmlns="http://www.w3.org/2000/svg" style="fill-rule:evenodd;clip-rule:evenodd;stroke-linejoin:round;stroke-miterlimit:2;">
    <g>
        <path d="M115.5,2.355C110.534,4.245 104.766,12.833 99.281,13.25C98.668,13.297 98.456,11.861 97.874,12.059C97.386,12.224 96.735,15.335 96.331,15.705C89.992,21.506 79.345,25.932 72.386,30.88C59.588,39.979 46.263,48.691 33.1,57.612C25.507,62.758 18.469,67.903 10.822,72.953C7.903,74.881 4.156,75.982 2.13,78.834C1.313,79.984 1.119,81.55 1.183,82.959C2.085,102.906 3.581,108.228 7.08,127C12.079,153.815 15.279,180.288 19.11,207.25C20.772,218.949 24.998,234.684 26.89,245.939C31.952,276.06 35.097,305.687 39.966,336C40.59,339.884 41.485,356.651 46.003,358.605C48.703,359.773 52.18,359.986 55,361.014C61.112,363.242 66.714,367.041 72.886,369C87.135,373.524 101.941,378.591 115.634,384.619C128.548,390.303 143.385,397.557 157.557,399.639C160.525,400.075 163.556,398.688 166.28,397.432C171.452,395.048 175.225,389.552 179.495,386C184.725,381.65 190.992,378.26 195.831,373.472C199.674,369.669 199.391,369.586 203.896,366.321C205.481,365.172 206.783,362.943 208.74,363C214.367,363.165 225.395,370.741 229.589,373.373C239.908,379.848 251.293,385.135 262,390.935C264.894,392.503 277.943,399.65 282.525,399.734C288.609,399.845 293.239,395.724 298,392.884C303.896,389.367 310.08,386.564 315.965,382.908C335.336,370.874 355.648,359.275 375.75,348.501C381.221,345.569 386.332,340.795 391.839,338.209C394.013,337.188 393.818,339.373 396.171,338.97C397.722,338.705 397.487,336.111 398.088,334.657C398.757,333.037 399.896,331.495 399.959,329.743C400.255,321.411 393.72,313.347 390,306.478C381.694,291.141 374.061,274.883 366.889,258.98C365.178,255.185 363.694,251.291 362,247.489C360.836,244.877 358.252,242.799 357.882,239.964C356.96,232.906 365.022,226.214 368,220.496C368.931,218.709 378.999,198.579 379,198.577C380.888,195.328 382.253,196.57 384,193.152C387.073,187.139 386.07,186.451 388.497,182.012C392.31,175.039 398.672,167.472 399.851,159.391C401.294,149.49 385.937,146.208 379.655,143C362.753,134.369 346.87,123.724 329.904,115.75L325.117,113.5L324.809,95L324.5,76.5L303.858,76.23L283.215,75.96L282.552,72.427C281.782,68.321 280.209,69.17 279,66.015C277.522,62.158 277.267,58.433 276,54.501C273.239,45.935 268.047,37.435 264.42,29.18C262.757,25.394 259.358,22.058 259.199,17.926C259.136,16.271 261.279,16.834 260.5,15.25C259.739,13.702 254.43,2.953 250,6.916C241.368,14.638 234.026,23.705 225.982,32C220.304,37.856 215.564,51.069 207.846,48.429C204.954,47.44 201.714,44.583 199,43C189.735,37.596 180.252,32.445 171,26.968C162.289,21.811 152.751,18.034 144,12.884C135.582,7.93 126.247,-1.738 115.5,2.355M239,15C239,15.281 239.197,15.572 239.441,15.706C239.593,15.79 239.75,15.875 239.918,15.921C240.106,15.973 240.304,16 240.5,16C241.06,16 242,15.713 242,15C242,14.287 241.06,14 240.5,14C240.304,14 240.106,14.027 239.918,14.079C239.75,14.125 239.593,14.21 239.441,14.294C239.197,14.428 239,14.719 239,15M206.431,40.112C206.161,40.548 206.343,41.078 206.595,41.468C207.044,42.16 207.821,42.691 208.617,42.894C208.871,42.959 209.696,43.146 209.902,42.774C209.985,42.622 209.96,42.403 209.933,42.249C209.847,41.753 209.513,40.889 209.393,40.582C209.119,39.881 208.533,38.854 207.61,39.08C207.467,39.115 207.33,39.179 207.206,39.26C207.06,39.355 206.927,39.474 206.809,39.603C206.667,39.76 206.542,39.932 206.431,40.112M322.754,200.25L322.5,322.5L78,323.008L78,78L323.008,78L322.754,200.25M225.75,108.77L205,109.041L205,214L231,214C247.667,214 257,213.641 257,213C257,212.45 258.051,212 259.335,212C262.08,212 274.273,208.136 275,207.036C275.275,206.62 277.075,205.491 279,204.527C286.463,200.792 299,185.076 299,179.456C299,178.747 299.452,178.016 300.004,177.832C303.185,176.772 303.156,143 299.974,143C299.524,143 298.621,141.381 297.968,139.403C295.686,132.489 294.274,130.455 286.307,122.612C283.451,119.801 278.951,116.625 276.307,115.556C273.663,114.487 270.948,113.067 270.273,112.401C267.437,109.6 252.922,108.416 225.75,108.77M98,161.437L98,214L123,214L123,181L131.048,181C139.21,181 144,183.388 144,187.457C144,188.098 144.802,189.495 145.782,190.561C146.762,191.628 148.658,194.3 149.994,196.5C151.331,198.7 153.019,201.109 153.745,201.854C154.472,202.599 155.96,204.962 157.053,207.104C158.146,209.247 159.482,211 160.02,211C160.559,211 161,211.675 161,212.5C161,213.764 163.278,214 175.5,214C190.916,214 192.059,213.587 188.18,209.423C187.179,208.349 185.058,205.226 183.467,202.485C181.876,199.743 180.065,197.05 179.441,196.5C178.817,195.95 177.301,193.813 176.072,191.75C174.843,189.687 173.476,188 173.035,188C172.594,188 171.984,187.213 171.678,186.25C170.804,183.492 167.636,178.586 166.107,177.62C165.045,176.95 165.462,176.425 167.857,175.418C169.585,174.691 171,173.625 171,173.048C171,172.472 171.574,172 172.275,172C184.468,172 191.126,127.955 179.846,121.918C178.831,121.374 178,120.455 178,119.875C178,118.553 173.909,115.078 172.3,115.033C171.64,115.015 170.74,114.438 170.3,113.75C168.006,110.164 163.073,109.608 130.25,109.238L98,108.875L98,161.437M157.505,135.302C161.988,139.789 163.55,147.307 160.61,150.247C159.724,151.133 159,152.288 159,152.814C159,156.169 153.506,157.5 138.25,157.84L123,158.179L123,130.859L138.353,131.18L153.706,131.5L157.505,135.302M257.752,132.75C257.98,133.438 258.814,134 259.605,134C261.194,134 269,138.897 269,139.893C269,140.238 270.126,141.735 271.502,143.219C277.714,149.918 278.485,173.91 272.595,177.207C271.718,177.698 271,178.731 271,179.503C271,180.275 269.832,181.715 268.405,182.703C266.977,183.691 264.875,185.364 263.734,186.421C260.675,189.252 251.849,190.967 240.25,190.984L230,191L230,130.845L243.668,131.173C253.473,131.407 257.454,131.853 257.752,132.75M99.21,285.25L99.5,293.5L193.5,293.5L193.79,285.25L194.081,277L98.919,277L99.21,285.25"/>
    </g>
</svg>
