<?xml version="1.0" encoding="UTF-8" standalone="no"?>
<!DOCTYPE svg PUBLIC "-//W3C//DTD SVG 1.1//EN" "http://www.w3.org/Graphics/SVG/1.1/DTD/svg11.dtd">
<svg width="100%" height="100%" viewBox="0 0 400 400" version="1.1" xmlns="http://www.w3.org/2000/svg" xmlns:xlink="http://www.w3.org/1999/xlink" xml:space="preserve" xmlns:serif="http://www.serif.com/" style="fill-rule:evenodd;clip-rule:evenodd;stroke-linejoin:round;stroke-miterlimit:2;">
    <g id="svgg">
        <path id="path0" d="M37.008,135.75L37.016,219.5L39.751,220.771C44.269,222.869 50.169,219.883 54.583,219.99C63.674,220.211 75.339,225.649 76.078,211.485C76.391,205.487 75,199.506 75,193.5L75,167L88.5,167C93.011,167 97.562,167.125 102,167.933C107.636,168.96 109.797,178.47 112.019,182C116.745,189.509 122.156,196.567 127,204C130.026,208.643 132.014,214.185 136,218.221C140.579,222.858 149.333,219.956 154.5,220C160.675,220.053 166.848,220.458 173,221C174.774,221.156 177.311,223.238 179.077,220.981C183.498,215.333 174.321,208.123 172,204.779C164.286,193.665 157.126,182.175 149.5,171C147.048,167.407 144.515,166.53 144.499,161.638C144.493,159.781 147.5,159.568 148.361,159C153.607,155.539 159.187,152.441 163.787,148.159C168.991,143.314 173.16,133.63 175,127C177.186,119.125 178.07,110.136 177,102C176.051,94.784 173.726,84.64 170.206,77.588C158.241,53.618 126.364,52.319 103.449,51.791C96.301,51.626 89.15,52 82,52L37,52L37.008,135.75M210.667,52.667C210.3,53.033 210,90.833 210,136.667L210,220L253,220C273.252,220 295.921,222.21 315,213C329.152,206.168 343.347,196.989 352.083,183.505C376.139,146.373 366.794,94.726 331.073,68.993C318.998,60.294 305.016,54.017 290,53C276.944,52.116 263.803,52.984 250.754,51.99C240.041,51.174 220.647,42.678 210.667,52.667M119,87.871C119,89.63 123.598,89.308 124,89.406C126.398,89.993 130.821,91.672 132.601,93.499C135.834,96.818 136.722,100.378 138,104.637C138.473,106.214 138.675,107.874 139.25,109.417C139.361,109.714 140,109.683 140,110C140,110.317 139.366,110.288 139.25,110.583C138.68,112.032 138.542,113.624 138,115.083C134.407,124.761 127.819,131.934 117,133C110.026,133.687 103.008,134 96,134L75,134L75,87L97,87C109.1,87 119,87.392 119,87.871M285,87.884C285,92.592 298.863,91.545 299.779,92C307.401,95.785 315.974,105.752 320,113C323.952,120.114 325.388,128.463 325,136.5C324.748,141.708 324.239,146.975 322.795,151.985C314.892,179.402 291.237,189.071 264,188C259.29,187.815 254.714,186 250,186L247,186L247,139.059C247,125.84 237.64,100.464 249.401,87.858C253.837,83.103 262.403,87.422 268.892,86.991C272.28,86.766 275.585,85.811 278.962,85.458C280.481,85.299 285,84.479 285,87.884M37,338L37,351L188,351L188,325L37,325L37,338"/>
    </g>
</svg>
