<svg id="svg" version="1.1" width="400" height="400" xmlns="http://www.w3.org/2000/svg" xmlns:xlink="http://www.w3.org/1999/xlink" style="display: block;"><g id="svgg"><path id="path0" d="M0.000 200.000 L 0.000 400.000 200.000 400.000 L 400.000 400.000 400.000 200.000 L 400.000 0.000 200.000 0.000 L 0.000 0.000 0.000 200.000 M102.775 142.721 L 105.113 145.443 104.807 181.389 C 104.571 209.036,104.211 217.431,103.250 217.751 C 102.563 217.979,102.000 218.785,102.000 219.541 C 102.000 221.235,91.119 232.000,89.407 232.000 C 88.725 232.000,88.014 232.458,87.827 233.018 C 87.641 233.578,85.128 234.316,82.244 234.658 C 79.360 234.999,77.000 235.666,77.000 236.139 C 77.000 236.613,73.850 237.000,70.000 237.000 C 66.150 237.000,63.000 236.609,63.000 236.132 C 63.000 235.654,61.097 235.008,58.772 234.696 C 56.446 234.384,54.383 233.650,54.188 233.065 C 53.993 232.479,53.196 232.000,52.417 232.000 C 51.637 232.000,51.000 231.550,51.000 231.000 C 51.000 230.450,50.400 230.000,49.666 230.000 C 47.979 230.000,40.000 222.698,40.000 221.154 C 40.000 220.519,39.565 220.000,39.034 220.000 C 38.503 220.000,37.770 217.750,37.406 215.000 C 37.041 212.250,36.350 210.000,35.871 210.000 C 35.392 210.000,35.000 209.325,35.000 208.500 C 35.000 207.675,35.450 207.000,36.000 207.000 C 36.550 207.000,37.000 206.357,37.000 205.571 C 37.000 202.857,40.047 201.000,44.500 201.000 C 48.953 201.000,52.000 202.857,52.000 205.571 C 52.000 206.357,52.450 207.000,53.000 207.000 C 53.550 207.000,54.000 208.620,54.000 210.600 C 54.000 214.200,59.165 221.000,61.900 221.000 C 62.505 221.000,63.000 221.450,63.000 222.000 C 63.000 222.571,66.000 223.000,70.000 223.000 C 73.850 223.000,77.000 222.586,77.000 222.079 C 77.000 221.573,78.377 220.856,80.060 220.487 C 82.008 220.059,83.452 218.940,84.035 217.407 C 84.539 216.083,85.385 215.000,85.917 215.000 C 86.515 215.000,87.001 201.553,87.192 179.750 C 87.484 146.332,87.603 144.383,89.472 142.250 C 92.480 138.819,99.640 139.073,102.775 142.721 M170.750 141.750 C 170.979 142.438,171.615 143.000,172.162 143.000 C 172.710 143.000,175.183 145.025,177.658 147.500 C 180.133 149.975,182.564 152.000,183.060 152.000 C 183.556 152.000,184.244 153.125,184.589 154.500 C 184.934 155.875,185.582 157.000,186.029 157.000 C 186.476 157.000,187.138 158.350,187.500 160.000 C 187.862 161.650,188.531 163.000,188.986 163.000 C 189.440 163.000,190.122 165.250,190.500 168.000 C 190.878 170.750,191.595 173.000,192.094 173.000 C 192.592 173.000,193.000 175.025,193.000 177.500 C 193.000 179.975,193.450 182.000,194.000 182.000 C 194.564 182.000,195.000 184.833,195.000 188.500 C 195.000 192.167,194.564 195.000,194.000 195.000 C 193.450 195.000,193.000 197.025,193.000 199.500 C 193.000 201.975,192.601 204.000,192.114 204.000 C 191.626 204.000,190.923 206.025,190.552 208.500 C 190.181 210.975,189.475 213.000,188.984 213.000 C 188.493 213.000,187.801 214.544,187.447 216.431 C 187.093 218.318,186.173 220.104,185.402 220.399 C 184.631 220.695,184.000 221.432,184.000 222.036 C 184.000 223.531,177.037 230.000,175.428 230.000 C 174.717 230.000,173.849 230.900,173.500 231.999 C 173.062 233.379,171.649 234.192,168.933 234.627 C 166.770 234.973,165.000 235.648,165.000 236.128 C 165.000 236.608,162.750 237.000,160.000 237.000 C 157.250 237.000,155.000 236.600,155.000 236.111 C 155.000 235.623,153.425 234.927,151.500 234.566 C 149.575 234.205,148.000 233.480,148.000 232.955 C 148.000 232.430,147.423 232.000,146.719 232.000 C 144.366 232.000,134.976 222.129,134.350 218.998 C 134.020 217.349,133.356 216.000,132.875 216.000 C 132.394 216.000,132.000 215.325,132.000 214.500 C 132.000 213.675,131.570 213.000,131.045 213.000 C 130.520 213.000,129.780 211.313,129.401 209.250 C 129.022 207.188,128.214 205.179,127.606 204.787 C 126.058 203.788,126.078 172.195,127.628 171.214 C 128.248 170.821,129.075 168.588,129.465 166.250 C 129.856 163.912,130.586 162.000,131.088 162.000 C 131.590 162.000,132.000 161.325,132.000 160.500 C 132.000 159.675,132.441 159.000,132.981 159.000 C 133.520 159.000,134.244 157.875,134.589 156.500 C 134.934 155.125,135.588 154.000,136.041 154.000 C 136.494 154.000,137.165 153.056,137.531 151.901 C 138.406 149.145,141.604 146.000,143.531 146.000 C 144.374 146.000,145.322 145.325,145.638 144.500 C 145.955 143.675,146.841 143.000,147.607 143.000 C 148.373 143.000,149.000 142.583,149.000 142.073 C 149.000 139.754,169.982 139.442,170.750 141.750 M259.751 141.750 C 259.980 142.438,261.206 143.000,262.476 143.000 C 263.747 143.000,265.045 143.675,265.362 144.500 C 265.678 145.325,266.627 146.000,267.470 146.000 C 269.308 146.000,277.000 153.697,277.000 155.537 C 277.000 156.250,277.560 157.020,278.245 157.248 C 280.361 157.954,279.937 175.203,277.750 177.392 C 276.788 178.355,276.000 179.595,276.000 180.148 C 276.000 180.701,274.650 182.504,273.000 184.154 C 268.885 188.269,268.978 188.710,275.250 194.757 C 276.212 195.685,277.000 196.982,277.000 197.639 C 277.000 198.296,277.563 199.022,278.250 199.253 C 280.399 199.974,279.932 218.899,277.735 220.128 C 276.781 220.662,276.000 221.562,276.000 222.127 C 276.000 223.344,271.144 228.322,269.000 229.302 C 266.669 230.367,263.563 232.414,262.894 233.326 C 262.561 233.780,260.423 234.402,258.144 234.707 C 255.865 235.013,254.000 235.654,254.000 236.132 C 254.000 236.609,245.415 237.000,234.923 237.000 L 215.846 237.000 212.923 234.077 L 210.000 231.154 210.000 187.505 C 210.000 142.318,209.994 142.393,214.018 140.697 C 217.002 139.439,259.306 140.414,259.751 141.750 M344.770 141.811 C 344.988 142.465,345.804 143.000,346.583 143.000 C 347.363 143.000,348.000 143.401,348.000 143.892 C 348.000 144.382,349.136 145.068,350.525 145.417 C 360.123 147.826,358.420 159.167,348.462 159.167 C 344.906 159.167,343.426 158.644,341.855 156.833 C 336.962 151.191,315.000 154.315,315.000 160.653 C 315.000 161.394,314.550 162.000,314.000 162.000 C 312.300 162.000,312.770 172.698,314.500 173.362 C 315.325 173.678,316.000 174.626,316.000 175.469 C 316.000 176.311,316.862 177.000,317.917 177.000 C 318.971 177.000,320.012 177.536,320.230 178.191 C 320.464 178.892,323.375 179.556,327.314 179.807 C 330.991 180.041,334.000 180.631,334.000 181.116 C 334.000 181.602,335.575 182.000,337.500 182.000 C 339.425 182.000,341.000 182.392,341.000 182.872 C 341.000 183.352,342.800 184.032,345.000 184.384 C 347.200 184.736,349.000 185.438,349.000 185.944 C 349.000 186.451,349.954 187.168,351.120 187.538 C 353.798 188.388,360.000 194.707,360.000 196.586 C 360.000 197.364,360.430 198.000,360.955 198.000 C 361.480 198.000,362.205 199.575,362.566 201.500 C 362.927 203.425,363.623 205.000,364.111 205.000 C 364.600 205.000,365.000 206.575,365.000 208.500 C 365.000 210.425,364.590 212.000,364.088 212.000 C 363.586 212.000,362.854 213.907,362.460 216.238 C 361.718 220.626,353.490 230.000,350.379 230.000 C 349.620 230.000,349.000 230.450,349.000 231.000 C 349.000 231.550,348.363 232.000,347.583 232.000 C 346.804 232.000,346.007 232.479,345.812 233.065 C 345.617 233.650,343.554 234.384,341.228 234.696 C 338.903 235.008,337.000 235.654,337.000 236.132 C 337.000 236.609,333.850 237.000,330.000 237.000 C 326.150 237.000,323.000 236.609,323.000 236.130 C 323.000 235.652,320.877 235.021,318.283 234.728 C 315.688 234.436,313.401 233.702,313.199 233.098 C 312.998 232.494,312.196 232.000,311.417 232.000 C 310.637 232.000,310.000 231.550,310.000 231.000 C 310.000 230.450,309.391 230.000,308.646 230.000 C 306.496 230.000,302.000 225.297,302.000 223.048 C 302.000 221.921,302.450 221.000,303.000 221.000 C 303.550 221.000,304.000 220.325,304.000 219.500 C 304.000 218.675,304.675 218.000,305.500 218.000 C 306.325 218.000,307.000 217.550,307.000 217.000 C 307.000 216.450,308.800 216.000,311.000 216.000 C 313.200 216.000,315.000 216.450,315.000 217.000 C 315.000 217.550,315.482 218.000,316.071 218.000 C 316.661 218.000,317.818 218.675,318.643 219.500 C 319.468 220.325,321.011 221.000,322.071 221.000 C 323.132 221.000,324.000 221.450,324.000 222.000 C 324.000 222.564,326.833 223.000,330.500 223.000 C 334.167 223.000,337.000 222.564,337.000 222.000 C 337.000 221.450,337.495 221.000,338.100 221.000 C 338.705 221.000,340.730 219.470,342.600 217.600 C 348.645 211.555,346.452 198.000,339.428 198.000 C 338.734 198.000,337.994 197.481,337.782 196.846 C 337.551 196.154,334.114 195.502,329.199 195.218 C 324.689 194.957,321.000 194.351,321.000 193.872 C 321.000 193.392,319.875 193.000,318.500 193.000 C 317.125 193.000,316.000 192.606,316.000 192.125 C 316.000 191.644,314.641 190.978,312.980 190.646 C 309.774 190.005,308.684 189.262,303.961 184.500 C 298.669 179.164,298.000 178.350,298.000 177.249 C 298.000 176.654,297.475 175.992,296.833 175.778 C 296.076 175.525,295.667 172.622,295.667 167.500 C 295.667 162.378,296.076 159.475,296.833 159.222 C 297.475 159.008,298.000 157.957,298.000 156.885 C 298.000 155.814,298.675 154.678,299.500 154.362 C 300.325 154.045,301.000 153.225,301.000 152.539 C 301.000 150.346,305.590 146.249,308.848 145.533 C 310.581 145.153,312.000 144.427,312.000 143.921 C 312.000 143.414,312.675 143.000,313.500 143.000 C 314.325 143.000,315.000 142.580,315.000 142.066 C 315.000 139.823,344.025 139.574,344.770 141.811 M228.250 153.496 C 227.391 154.471,227.000 158.863,227.000 167.532 L 227.000 180.148 241.330 179.824 L 255.660 179.500 259.068 176.089 C 266.781 168.369,261.877 155.271,250.879 154.214 C 248.195 153.956,246.000 153.353,246.000 152.873 C 246.000 151.330,229.651 151.904,228.250 153.496 M152.571 155.571 C 151.707 156.436,151.000 157.786,151.000 158.571 C 151.000 159.357,150.559 160.000,150.019 160.000 C 149.480 160.000,148.735 161.238,148.365 162.750 C 147.995 164.262,147.313 165.751,146.849 166.057 C 146.385 166.364,145.712 170.751,145.353 175.807 C 144.994 180.863,144.318 185.000,143.850 185.000 C 143.383 185.000,143.000 186.350,143.000 188.000 C 143.000 189.650,143.387 191.000,143.859 191.000 C 144.332 191.000,144.960 194.882,145.256 199.628 C 145.552 204.373,146.222 208.535,146.743 208.878 C 147.265 209.220,148.005 210.776,148.387 212.336 C 149.098 215.240,149.280 215.524,153.468 220.250 C 158.193 225.583,168.085 222.610,170.454 215.144 C 170.829 213.965,171.503 213.000,171.952 213.000 C 172.402 213.000,173.079 210.525,173.457 207.500 C 173.835 204.475,174.562 202.000,175.072 202.000 C 175.598 202.000,176.000 195.943,176.000 188.000 C 176.000 180.300,175.602 174.000,175.115 174.000 C 174.629 174.000,173.921 171.525,173.543 168.500 C 173.165 165.475,172.438 163.000,171.928 163.000 C 171.418 163.000,171.000 162.311,171.000 161.469 C 171.000 160.626,170.325 159.678,169.500 159.362 C 168.675 159.045,168.000 157.987,168.000 157.010 C 168.000 153.794,155.513 152.630,152.571 155.571 M227.000 208.882 L 227.000 223.000 239.500 223.000 C 246.375 223.000,252.000 222.615,252.000 222.145 C 252.000 221.674,253.416 220.883,255.146 220.387 C 256.876 219.891,258.788 218.588,259.396 217.492 C 260.003 216.397,260.950 215.178,261.500 214.784 C 265.367 212.015,260.304 198.000,255.437 198.000 C 254.738 198.000,253.986 197.457,253.764 196.792 C 253.486 195.959,249.275 195.458,240.181 195.174 L 227.000 194.764 227.000 208.882 " stroke="none" fill="#000000" fill-rule="evenodd"></path></g></svg>