<svg id="svg" version="1.1" width="400" height="400" xmlns="http://www.w3.org/2000/svg" xmlns:xlink="http://www.w3.org/1999/xlink" style="display: block;"><g id="svgg"><path id="path0" d="M322.750 137.735 C 320.137 137.941,318.000 138.477,318.000 138.927 C 318.000 139.377,316.200 140.032,314.000 140.384 C 311.800 140.736,310.000 141.468,310.000 142.012 C 310.000 142.555,309.325 143.000,308.500 143.000 C 307.675 143.000,307.000 143.450,307.000 144.000 C 307.000 144.550,306.391 145.000,305.646 145.000 C 304.050 145.000,299.000 149.469,299.000 150.881 C 299.000 151.418,298.281 152.577,297.401 153.456 C 296.522 154.335,295.563 156.842,295.269 159.027 C 294.976 161.212,294.346 163.000,293.868 163.000 C 293.391 163.000,293.000 164.800,293.000 167.000 C 293.000 169.200,293.391 171.000,293.868 171.000 C 294.346 171.000,294.974 172.769,295.264 174.930 C 295.554 177.092,296.401 179.608,297.145 180.520 C 300.838 185.045,307.342 191.000,308.592 191.000 C 309.366 191.000,310.004 191.338,310.008 191.750 C 310.025 193.423,315.965 195.128,323.750 195.696 C 328.288 196.026,332.000 196.621,332.000 197.018 C 332.000 197.414,333.541 197.988,335.425 198.294 C 338.779 198.838,343.000 202.018,343.000 204.000 C 343.000 204.550,343.450 205.000,344.000 205.000 C 346.935 205.000,344.878 212.122,340.750 216.250 C 335.323 221.677,323.944 222.622,320.169 217.960 C 318.222 215.556,304.543 214.123,302.552 216.114 C 298.839 219.828,302.593 232.000,307.452 232.000 C 308.304 232.000,309.000 232.401,309.000 232.892 C 309.000 233.382,310.233 234.093,311.740 234.471 C 313.247 234.849,314.806 235.685,315.204 236.329 C 316.216 237.967,343.785 237.967,344.797 236.329 C 345.194 235.685,346.753 234.849,348.260 234.471 C 349.767 234.093,351.000 233.382,351.000 232.892 C 351.000 232.401,351.433 232.000,351.962 232.000 C 353.368 232.000,362.151 223.239,363.843 220.148 C 365.631 216.881,366.061 200.287,364.385 199.214 C 363.771 198.821,362.921 197.375,362.495 196.000 C 361.607 193.130,355.504 187.000,353.536 187.000 C 352.809 187.000,351.955 186.325,351.638 185.500 C 351.322 184.675,350.374 184.000,349.531 184.000 C 348.689 184.000,348.000 183.550,348.000 183.000 C 348.000 182.450,346.913 182.000,345.583 182.000 C 344.254 182.000,343.017 181.572,342.833 181.050 C 342.650 180.527,338.337 179.788,333.250 179.406 C 328.163 179.025,324.000 178.363,324.000 177.936 C 324.000 177.509,322.650 176.862,321.000 176.500 C 319.350 176.138,318.000 175.395,318.000 174.849 C 318.000 174.304,317.325 173.182,316.500 172.357 C 313.152 169.009,314.947 160.882,319.588 158.383 C 321.465 157.372,323.000 156.198,323.000 155.773 C 323.000 155.348,326.150 155.000,330.000 155.000 C 334.000 155.000,337.000 155.429,337.000 156.000 C 337.000 156.550,337.627 157.000,338.393 157.000 C 339.159 157.000,340.045 157.675,340.362 158.500 C 340.678 159.325,342.076 160.000,343.469 160.000 C 344.861 160.000,346.000 160.450,346.000 161.000 C 346.000 161.550,347.125 162.000,348.500 162.000 C 349.875 162.000,351.000 161.550,351.000 161.000 C 351.000 160.450,351.831 160.000,352.847 160.000 C 358.494 160.000,361.314 150.741,356.847 146.867 C 355.663 145.840,354.088 145.000,353.347 145.000 C 352.606 145.000,352.000 144.550,352.000 144.000 C 352.000 143.450,351.325 143.000,350.500 143.000 C 349.675 143.000,349.000 142.570,349.000 142.045 C 349.000 141.520,347.313 140.780,345.250 140.401 C 343.188 140.022,341.275 139.393,341.000 139.005 C 340.338 138.069,328.741 137.262,322.750 137.735 M88.750 139.893 C 87.787 140.869,87.000 142.643,87.000 143.834 C 87.000 145.025,86.550 146.000,86.000 146.000 C 85.353 146.000,85.000 157.787,85.000 179.360 L 85.000 212.720 81.331 216.610 C 72.932 225.516,56.155 219.939,54.785 207.785 C 53.824 199.256,42.755 195.245,36.750 201.250 C 34.304 203.696,33.494 216.424,35.694 217.835 C 36.264 218.201,37.078 219.613,37.504 220.974 C 38.313 223.562,46.375 232.000,48.038 232.000 C 48.567 232.000,49.000 232.401,49.000 232.892 C 49.000 233.382,50.233 234.093,51.740 234.471 C 53.247 234.849,54.805 235.685,55.203 236.328 C 56.173 237.898,83.762 237.971,84.785 236.407 C 85.178 235.806,86.987 235.025,88.804 234.672 C 90.705 234.301,93.514 232.537,95.422 230.514 C 97.245 228.581,99.246 227.000,99.868 227.000 C 100.491 227.000,101.000 226.311,101.000 225.469 C 101.000 224.626,101.678 223.677,102.506 223.359 C 103.334 223.042,104.291 221.031,104.633 218.891 C 104.976 216.751,105.648 215.000,106.128 215.000 C 106.608 215.000,107.000 198.999,107.000 179.423 L 107.000 143.846 104.077 140.923 C 100.504 137.350,91.833 136.768,88.750 139.893 M151.000 138.892 C 151.000 139.382,149.789 140.087,148.309 140.459 C 146.829 140.830,144.917 141.939,144.059 142.924 C 143.202 143.908,141.511 145.026,140.301 145.408 C 139.092 145.790,137.802 147.050,137.434 148.207 C 137.067 149.365,135.694 151.306,134.383 152.521 C 133.072 153.735,132.000 155.240,132.000 155.865 C 132.000 156.489,131.570 157.000,131.045 157.000 C 130.520 157.000,129.780 158.688,129.401 160.750 C 129.022 162.813,128.315 164.759,127.829 165.075 C 127.344 165.392,126.671 167.979,126.334 170.825 C 125.997 173.671,125.334 176.000,124.861 176.000 C 124.387 176.000,124.000 181.175,124.000 187.500 C 124.000 193.825,124.386 199.000,124.858 199.000 C 125.329 199.000,126.006 201.787,126.362 205.194 C 126.719 208.601,127.422 211.643,127.926 211.954 C 128.429 212.265,129.151 213.753,129.529 215.260 C 129.907 216.767,130.618 218.000,131.108 218.000 C 131.599 218.000,132.000 218.675,132.000 219.500 C 132.000 220.325,132.450 221.000,133.000 221.000 C 133.550 221.000,134.000 221.617,134.000 222.371 C 134.000 224.334,143.271 233.636,146.111 234.523 C 147.425 234.934,148.823 235.771,149.217 236.385 C 150.188 237.895,169.823 237.891,170.789 236.380 C 171.180 235.769,172.512 234.954,173.750 234.567 C 174.988 234.181,176.000 233.446,176.000 232.933 C 176.000 232.420,176.418 232.000,176.929 232.000 C 178.289 232.000,185.000 225.458,185.000 224.132 C 185.000 223.509,185.441 223.000,185.981 223.000 C 186.520 223.000,187.244 221.875,187.589 220.500 C 187.934 219.125,188.613 218.000,189.097 218.000 C 189.580 218.000,190.264 216.200,190.616 214.000 C 190.968 211.800,191.648 210.000,192.128 210.000 C 192.608 210.000,193.000 208.912,193.000 207.583 C 193.000 206.254,193.559 204.980,194.243 204.752 C 195.166 204.445,195.486 200.132,195.486 188.000 C 195.486 175.868,195.166 171.555,194.243 171.248 C 193.559 171.020,193.000 169.521,193.000 167.917 C 193.000 166.313,192.586 165.000,192.079 165.000 C 191.573 165.000,190.862 163.650,190.500 162.000 C 190.138 160.350,189.477 159.000,189.032 159.000 C 188.587 159.000,187.927 157.537,187.565 155.750 C 187.203 153.963,185.768 151.600,184.376 150.500 C 180.307 147.284,176.000 142.915,176.000 142.003 C 176.000 141.539,174.650 140.862,173.000 140.500 C 171.350 140.138,170.000 139.427,170.000 138.921 C 170.000 138.414,165.725 138.000,160.500 138.000 C 155.275 138.000,151.000 138.401,151.000 138.892 M213.000 138.883 C 213.000 139.369,212.100 140.002,211.000 140.290 C 209.036 140.803,209.000 141.646,209.017 187.156 L 209.035 233.500 211.518 235.855 L 214.001 238.211 237.537 237.855 C 253.393 237.616,261.306 237.136,261.787 236.385 C 262.179 235.771,263.625 234.920,265.000 234.492 C 266.375 234.064,268.228 232.878,269.117 231.857 C 270.007 230.836,271.132 229.992,271.617 229.983 C 272.638 229.963,277.000 225.550,277.000 224.538 C 277.000 224.163,277.675 223.182,278.500 222.357 C 279.325 221.532,280.000 219.764,280.000 218.429 C 280.000 217.093,280.450 216.000,281.000 216.000 C 281.578 216.000,282.000 212.833,282.000 208.500 C 282.000 204.375,281.599 201.000,281.108 201.000 C 280.618 201.000,279.925 199.836,279.568 198.414 C 278.898 195.746,277.769 194.057,274.750 191.207 C 272.468 189.053,272.539 187.375,275.000 185.268 C 276.100 184.326,277.000 182.804,277.000 181.885 C 277.000 180.966,277.675 179.955,278.500 179.638 C 279.325 179.322,280.000 177.924,280.000 176.531 C 280.000 175.139,280.450 174.000,281.000 174.000 C 281.571 174.000,282.000 171.000,282.000 167.000 C 282.000 163.150,281.609 160.000,281.131 160.000 C 280.653 160.000,280.011 158.457,279.705 156.571 C 279.146 153.123,272.052 145.000,269.600 145.000 C 268.963 145.000,267.803 144.114,267.023 143.032 C 266.175 141.855,263.873 140.804,261.302 140.418 C 258.936 140.063,257.000 139.374,257.000 138.886 C 257.000 138.398,247.121 138.000,235.000 138.000 C 222.900 138.000,213.000 138.398,213.000 138.883 M251.819 155.957 C 252.010 156.531,252.696 157.000,253.344 157.000 C 255.277 157.000,260.000 161.937,260.000 163.957 C 260.000 164.989,260.563 166.096,261.250 166.417 C 262.250 166.883,262.250 167.117,261.250 167.583 C 260.563 167.904,260.000 169.127,260.000 170.301 C 260.000 172.570,255.598 177.000,253.344 177.000 C 252.605 177.000,252.000 177.450,252.000 178.000 C 252.000 178.609,247.500 179.000,240.500 179.000 L 229.000 179.000 229.000 167.167 C 229.000 160.658,229.338 154.980,229.750 154.548 C 230.842 153.404,251.406 154.717,251.819 155.957 M163.000 156.000 C 163.000 156.550,163.675 157.000,164.500 157.000 C 165.325 157.000,166.000 157.576,166.000 158.279 C 166.000 158.983,166.898 160.206,167.995 160.997 C 169.093 161.788,170.283 164.025,170.640 165.968 C 170.997 167.910,171.786 169.821,172.394 170.213 C 173.925 171.200,173.925 203.795,172.394 204.785 C 171.786 205.178,170.978 207.188,170.599 209.250 C 170.220 211.313,169.480 213.000,168.955 213.000 C 168.430 213.000,168.000 213.482,168.000 214.071 C 168.000 214.661,167.438 215.770,166.750 216.537 C 166.063 217.303,164.920 218.621,164.211 219.465 C 162.534 221.461,157.439 221.439,155.789 219.430 C 155.080 218.566,153.713 217.116,152.750 216.207 C 151.787 215.299,151.000 213.981,151.000 213.278 C 151.000 212.575,150.601 212.000,150.114 212.000 C 149.626 212.000,148.907 209.863,148.516 207.250 C 148.124 204.637,147.364 202.227,146.825 201.894 C 145.565 201.113,145.558 174.897,146.818 174.097 C 147.335 173.769,148.075 171.171,148.463 168.325 C 148.872 165.318,149.761 162.922,150.584 162.606 C 151.363 162.307,152.000 161.374,152.000 160.531 C 152.000 159.689,152.420 159.000,152.933 159.000 C 153.446 159.000,154.151 158.100,154.500 157.000 C 155.179 154.862,163.000 153.941,163.000 156.000 M248.000 196.875 C 248.000 197.356,249.376 198.025,251.058 198.362 C 252.740 198.698,254.757 199.614,255.540 200.397 C 256.323 201.181,257.459 201.986,258.063 202.188 C 262.224 203.575,259.571 218.000,255.155 218.000 C 254.611 218.000,253.980 218.563,253.751 219.250 C 253.458 220.133,249.767 220.598,241.168 220.834 L 229.000 221.167 229.000 210.166 C 229.000 195.252,228.466 196.000,239.107 196.000 C 243.998 196.000,248.000 196.394,248.000 196.875 " stroke="none" fill="#000000" fill-rule="evenodd"></path></g></svg>