<?xml version="1.0" encoding="UTF-8" standalone="no"?>
<svg
   xmlns:dc="http://purl.org/dc/elements/1.1/"
   xmlns:cc="http://creativecommons.org/ns#"
   xmlns:rdf="http://www.w3.org/1999/02/22-rdf-syntax-ns#"
   xmlns:svg="http://www.w3.org/2000/svg"
   xmlns="http://www.w3.org/2000/svg"
   id="svg21"
   style="clip-rule:evenodd;fill-rule:evenodd;stroke-linejoin:round;stroke-miterlimit:2"
   xml:space="preserve"
   version="1.1"
   viewBox="0 0 816 816"
   height="8.5in"
   width="8.5in"><metadata
   id="metadata27"><rdf:RDF><cc:Work
       rdf:about=""><dc:format>image/svg+xml</dc:format><dc:type
         rdf:resource="http://purl.org/dc/dcmitype/StillImage" /><dc:title></dc:title></cc:Work></rdf:RDF></metadata><defs
   id="defs25" />
    <g
   id="g19"
   transform="matrix(1.9380916,0,0,1.9380916,-188.46804,341.43624)">
        <g
   id="Layer_1-2">
            <path
   id="path2"
   style="fill-rule:nonzero"
   d="m 122,18.45 c -11.16,0 -14,7.88 -14,7.88 V 20.5 c 0,-0.439 -0.361,-0.8 -0.8,-0.8 h -8.31 c -0.439,0 -0.8,0.361 -0.8,0.8 V 65 c 0,0.439 0.361,0.8 0.8,0.8 h 8.28 c 0.439,0 0.8,-0.361 0.8,-0.8 V 41.19 c 0,-11.63 9.55,-12.54 12.45,-12.54 2.647,-0.121 5.262,0.631 7.44,2.14 0.138,0.096 0.302,0.148 0.47,0.148 0.3,0 0.577,-0.165 0.72,-0.428 L 133,23 c 0.184,-0.335 0.103,-0.756 -0.19,-1 -3.118,-2.332 -6.916,-3.579 -10.81,-3.55 z" />
            <path
   id="path4"
   style="fill-rule:nonzero"
   d="m 358,40.55 v 24.39 c 0,0.439 0.361,0.8 0.8,0.8 0.003,0 0.007,0 0.01,0 h 8.27 c 0.439,0 0.8,-0.361 0.8,-0.8 0,-0.003 0,-0.007 0,-0.01 V 40.55 c 0,-10.07 -3.24,-22.07 -18.68,-22.07 -12.22,0 -15.49,9.53 -15.49,9.53 -1.717,-5.932 -7.299,-9.964 -13.47,-9.73 -10.72,0 -12.79,8.78 -12.79,8.78 V 20.5 c 0,-0.439 -0.361,-0.8 -0.8,-0.8 -0.003,0 -0.007,0 -0.01,0 h -8.27 c -0.439,0 -0.8,0.361 -0.8,0.8 V 65 c 0,0.439 0.361,0.8 0.8,0.8 h 8.27 c 0.003,0 0.007,0 0.01,0 0.439,0 0.8,-0.361 0.8,-0.8 V 40.53 c 0,-8.29 5.27,-12.62 10.46,-12.62 7,0 10.14,6.55 10.14,12.64 v 24.38 c 0,0.439 0.361,0.8 0.8,0.8 0.003,0 0.007,0 0.01,0 h 8.27 c 0.439,0 0.8,-0.361 0.8,-0.8 V 40.55 c 0,-7.1 4.62,-12.45 10.74,-12.45 5.72,0 9.33,4.77 9.33,12.45 z" />
            <path
   id="path6"
   style="fill-rule:nonzero"
   d="m 158,18.44 c -0.003,0 -0.007,0 -0.01,0 -13.336,0 -24.31,10.974 -24.31,24.31 0,13.336 10.974,24.31 24.31,24.31 13.336,0 24.31,-10.974 24.31,-24.31 0,-0.003 0,-0.007 0,-0.01 C 182.284,29.416 171.324,18.456 158,18.44 Z m 0,39 c -0.003,0 -0.007,0 -0.01,0 -8.075,0 -14.72,-6.645 -14.72,-14.72 0,-8.075 6.645,-14.72 14.72,-14.72 8.075,0 14.72,6.645 14.72,14.72 0.005,8.077 -6.633,14.729 -14.71,14.74 z" />
            <path
   id="path8"
   style="fill-rule:nonzero"
   d="m 505.68,65.76 h 10.94 c 0.004,0 0.007,0 0.011,0 0.439,0 0.8,-0.361 0.8,-0.8 0,-0.195 -0.072,-0.384 -0.201,-0.53 l -20.06,-23.19 17,-20 c 0.124,-0.145 0.192,-0.329 0.192,-0.52 0,-0.439 -0.361,-0.8 -0.8,-0.8 -0.004,0 -0.008,0 -0.012,0 h -10.86 c -0.236,0 -0.46,0.107 -0.61,0.29 L 486.66,38.35 V 2.44 c 0,-0.003 0,-0.007 0,-0.01 0,-0.439 -0.361,-0.8 -0.8,-0.8 h -8.27 c -0.439,0 -0.8,0.361 -0.8,0.8 0,0.003 0,0.007 0,0.01 V 65 c 0,0.003 0,0.007 0,0.01 0,0.439 0.361,0.8 0.8,0.8 h 8.27 c 0.439,0 0.8,-0.361 0.8,-0.8 0,-0.003 0,-0.007 0,-0.01 V 44.19 l 18.41,21.29 c 0.153,0.177 0.376,0.279 0.61,0.28 z" />
            <path
   id="path10"
   style="fill-rule:nonzero"
   d="m 393.05,67 c 6.079,0.159 11.833,-2.807 15.23,-7.85 V 65 c 0,0.439 0.361,0.8 0.8,0.8 h 8.28 c 0.439,0 0.8,-0.361 0.8,-0.8 V 20.47 c 0,-0.439 -0.361,-0.8 -0.8,-0.8 h -8.28 c -0.439,0 -0.8,0.361 -0.8,0.8 V 44.69 C 408.19,52.19 403.62,58 396.5,58 389.38,58 384.63,52.91 384.63,45 V 20.47 c 0,-0.439 -0.361,-0.8 -0.8,-0.8 -0.003,0 -0.007,0 -0.01,0 h -8.27 c -0.439,0 -0.8,0.361 -0.8,0.8 v 25 C 374.89,58.55 382,67 393.05,67 Z" />
            <path
   id="path12"
   style="fill-rule:nonzero"
   d="m 450.88,18.43 c -6.076,-0.16 -11.829,2.802 -15.23,7.84 v -5.79 c 0,-0.003 0,-0.007 0,-0.01 0,-0.439 -0.361,-0.8 -0.8,-0.8 h -8.28 c -0.439,0 -0.8,0.361 -0.8,0.8 0,0.003 0,0.007 0,0.01 V 65 c 0,0.003 0,0.007 0,0.01 0,0.439 0.361,0.8 0.8,0.8 h 8.28 c 0.439,0 0.8,-0.361 0.8,-0.8 0,-0.003 0,-0.007 0,-0.01 V 40.74 c 0.09,-7.5 4.66,-13.35 11.78,-13.35 7.12,0 11.87,5.09 11.87,13 V 65 c 0,0.003 0,0.007 0,0.01 0,0.439 0.361,0.8 0.8,0.8 h 8.27 c 0.439,0 0.8,-0.361 0.8,-0.8 0,-0.003 0,-0.007 0,-0.01 V 40 C 469,26.88 461.89,18.43 450.88,18.43 Z" />
            <path
   id="path14"
   style="fill-rule:nonzero"
   d="m 265.48,67.05 c 9.8,0 13.84,-6.24 13.84,-6.24 V 65 c 0,0.439 0.361,0.8 0.8,0.8 h 8.28 c 0.439,0 0.8,-0.361 0.8,-0.8 V 2.44 c 0,-0.003 0,-0.007 0,-0.01 0,-0.439 -0.361,-0.8 -0.8,-0.8 h -8.28 c -0.439,0 -0.8,0.361 -0.8,0.8 0,0.003 0,0.007 0,0.01 v 22.23 c 0,0 -4,-6.23 -13.84,-6.23 -13.331,0 -24.3,10.969 -24.3,24.3 0,13.331 10.969,24.3 24.3,24.3 0,0 0,0.01 0,0.01 z m 14.71,-24.31 c -0.011,8.068 -6.652,14.7 -14.72,14.7 -8.075,0 -14.72,-6.645 -14.72,-14.72 0,-8.075 6.645,-14.72 14.72,-14.72 0.003,0 0.007,0 0.01,0 8.071,0.005 14.71,6.649 14.71,14.72 0,0.007 0,0.013 0,0.02 z" />
            <path
   id="path16"
   style="fill-rule:nonzero"
   d="m 211.65,67.05 c 9.8,0 13.85,-6.24 13.85,-6.24 V 65 c 0,0.439 0.361,0.8 0.8,0.8 h 8.27 c 0.439,0 0.8,-0.361 0.8,-0.8 V 20.5 c 0,-0.439 -0.361,-0.8 -0.8,-0.8 h -8.27 c -0.439,0 -0.8,0.361 -0.8,0.8 v 4.17 c 0,0 -4.05,-6.23 -13.85,-6.23 -13.331,0 -24.3,10.969 -24.3,24.3 0,13.331 10.969,24.3 24.3,24.3 z m 14.72,-24.31 c -0.011,8.068 -6.652,14.7 -14.72,14.7 -8.075,0 -14.72,-6.645 -14.72,-14.72 0,-8.075 6.645,-14.72 14.72,-14.72 0,0 0,0 0,0 8.075,0 14.72,6.645 14.72,14.72 0,0.007 0,0.013 0,0.02 z" />
        </g>
    </g>
</svg>