<?xml version="1.0" encoding="UTF-8" standalone="no"?>
<!DOCTYPE svg PUBLIC "-//W3C//DTD SVG 1.1//EN" "http://www.w3.org/Graphics/SVG/1.1/DTD/svg11.dtd">
<svg width="100%" height="100%" viewBox="0 0 400 400" version="1.1" xmlns="http://www.w3.org/2000/svg" xmlns:xlink="http://www.w3.org/1999/xlink" xml:space="preserve" xmlns:serif="http://www.serif.com/" style="fill-rule:evenodd;clip-rule:evenodd;stroke-linejoin:round;stroke-miterlimit:2;">
    <g id="svgg">
        <path id="path0" d="M39,137L39,218L77,218L77,167L90.134,167C94.889,167 99.675,167.478 104.321,168.491C108.831,169.475 106.496,173.677 109.071,176C118.519,184.522 124.214,198.955 132.64,208.549C134.364,210.513 133.893,214.087 136.455,215.545C141.18,218.234 156.424,218.359 159.544,218.392C161.301,218.41 175.955,218.962 180,216C180.072,215.947 178.049,212.233 178,212.148C175.782,208.353 174.407,206.15 172,202.509C170.665,200.49 170.059,201.279 168.399,199.501C161.861,192.498 159.332,181.591 152.585,174.528C150.251,172.085 149.593,172.86 148,169.721C146.142,166.059 146.1,166.279 144,162.779C143.413,161.8 141.49,161.021 142,160C143.246,157.509 150.452,156.65 152.604,155C159.214,149.93 163.808,143.956 169,137.565C170.453,135.776 172.288,134.313 173,132C175.274,124.608 176,115.985 176,108.5C176,87.676 165.897,66.966 145,60C142.456,59.152 138.665,57.103 136,57C119.842,56.373 103.67,56 87.5,56L39,56L39,137M197,137L197,218L233,218L233,167.5C233,150.663 233.309,133.822 234,117C234.028,116.32 234.65,118.196 235,118.779C235.65,119.863 236.316,120.937 237,122C239.766,126.302 242.384,130.605 245,135C251.517,145.951 258.641,156.083 266,166.856C268.314,170.244 270.723,173.59 273,177C274.137,178.703 274.529,181.836 276.571,182C280.139,182.286 283.633,173.892 285,171.5C292.584,158.228 301.801,145.428 310.5,132.821C312.906,129.334 314.656,125.523 317,122C317.456,121.314 322.382,114.442 322.429,115C323.876,132.107 323,149.332 323,166.5L323,218L359,218L359,56L339.455,56C331.543,56 321.136,53.093 315.914,59.037C314.262,60.917 312.368,66.375 311,68.721C307.377,74.932 302.298,80.672 299,87C295.75,93.236 292.761,98.588 288.367,103.541C285.44,106.84 283.104,112.654 281,116.571C280.464,117.57 280.557,119.187 279.513,119.63C278.295,120.147 276.664,119.669 275.621,118.854C274.014,117.6 272.272,113.174 271,111.14C268.7,107.462 266.231,103.939 264,100.221C260.556,94.48 257.032,85.499 252.633,80.541C250.179,77.775 249.087,77.622 247,74C244.375,69.444 241.966,61.455 238.328,57.956C233.079,52.909 223.852,56 216.571,56L197,56L197,137M125,90.5C125,91.746 126.178,91.734 126.941,92C128.782,92.642 133.065,94.001 134.554,95.466C135.338,96.236 135.541,97.43 136,98.429C140.182,107.53 141.72,118.66 133.517,126.529C124.76,134.928 111.549,134.338 100.367,134.085C95.515,133.976 90.667,133.746 85.815,133.615C83.775,133.56 80.302,133.964 78.429,132.571C77.012,131.517 77.307,128.55 77.284,127.239C77.183,121.517 77,115.795 77,110.071L77,89L101,89C121.667,89 125,89.208 125,90.5M41,333.5L41,346L188,346L188,321L41,321L41,333.5"/>
    </g>
</svg>
