<svg version="1.1" width="400" height="400" xmlns="http://www.w3.org/2000/svg">
<g>
<path d="M197.225 2.671 C 196.045 3.145,188.845 13.565,186.115 18.750 C 184.037 22.696,181.100 21.489,173.341 13.500 C 169.152 9.187,165.223 6.000,164.094 6.000 C 159.553 6.000,157.514 7.736,155.708 13.139 C 150.944 27.395,148.350 30.617,144.530 27.028 C 143.343 25.913,141.860 25.000,141.235 25.000 C 140.611 25.000,139.740 24.436,139.300 23.747 C 134.938 16.914,121.000 14.927,121.000 21.139 C 121.000 26.930,117.542 41.011,115.999 41.500 C 115.110 41.782,110.584 40.355,105.941 38.329 C 90.323 31.512,88.380 32.665,88.808 48.491 C 89.211 63.386,88.986 63.531,72.709 58.846 C 64.883 56.593,62.564 57.008,60.483 61.033 C 58.918 64.059,59.042 65.082,62.592 78.471 C 64.692 86.389,63.299 87.288,50.278 86.416 C 36.565 85.497,32.495 89.418,37.373 98.846 C 46.050 115.614,45.814 116.300,30.788 118.021 C 17.052 119.594,13.667 128.305,23.810 135.978 C 24.190 136.265,24.950 137.224,25.500 138.110 C 26.050 138.995,27.272 140.805,28.216 142.132 C 30.506 145.352,29.529 148.851,26.131 149.606 C 24.684 149.927,21.592 151.047,19.261 152.095 C 16.929 153.143,14.403 154.000,13.646 154.000 C 10.923 154.000,7.000 158.070,7.000 160.894 C 7.000 163.020,8.815 165.398,15.000 171.377 C 24.545 180.604,24.610 181.016,17.250 185.628 C 3.667 194.140,3.872 193.940,4.201 198.371 C 4.490 202.269,4.794 202.586,13.500 208.059 C 24.882 215.215,24.893 215.321,15.071 224.615 C 4.093 235.003,4.408 239.879,16.263 243.071 C 18.464 243.663,20.993 244.538,21.882 245.014 C 22.772 245.490,24.684 246.126,26.131 246.429 C 29.531 247.139,30.513 250.640,28.216 253.860 C 27.272 255.182,25.978 257.166,25.340 258.267 C 24.703 259.369,23.803 260.547,23.340 260.885 C 13.732 267.915,16.995 276.093,30.209 278.099 C 41.591 279.826,41.883 279.913,42.935 281.879 C 43.895 283.672,42.815 286.639,37.373 297.154 C 32.495 306.582,36.565 310.503,50.278 309.584 C 63.299 308.712,64.692 309.611,62.592 317.529 C 58.537 332.821,58.600 335.645,63.046 338.025 C 65.156 339.154,67.140 338.834,81.860 334.996 C 88.297 333.317,89.130 334.844,88.793 347.693 C 88.385 363.283,90.906 364.701,106.370 357.570 C 116.943 352.695,117.165 352.827,119.365 365.246 C 122.344 382.062,127.095 383.809,139.084 372.495 C 139.955 371.673,141.137 371.000,141.711 371.000 C 142.285 371.000,143.315 370.325,144.000 369.500 C 147.701 365.040,151.017 368.824,155.708 382.861 C 157.520 388.282,159.551 390.000,164.145 390.000 C 165.337 390.000,169.147 386.934,173.468 382.500 C 181.232 374.532,184.266 373.268,186.068 377.250 C 187.589 380.611,189.495 383.773,191.187 385.743 C 192.017 386.709,192.965 388.261,193.294 389.192 C 195.227 394.657,203.839 395.147,206.529 389.944 C 207.351 388.355,209.188 385.355,210.612 383.278 C 212.035 381.200,213.594 378.488,214.075 377.250 C 214.914 375.093,221.000 373.778,221.000 375.754 C 221.000 376.169,223.713 379.333,227.029 382.785 C 236.026 392.152,241.167 392.304,244.431 383.297 C 250.063 367.754,252.172 365.315,256.357 369.500 C 257.182 370.325,258.141 371.000,258.487 371.000 C 259.310 371.000,267.400 377.276,267.833 378.250 C 268.394 379.511,276.828 379.083,277.691 377.750 C 278.136 377.063,279.430 371.805,280.567 366.066 C 283.385 351.848,283.035 351.988,297.417 359.319 C 301.446 361.373,309.186 362.154,310.666 360.656 C 311.125 360.192,311.449 354.455,311.387 347.906 C 311.301 338.843,311.580 336.000,312.554 336.000 C 313.258 336.000,313.983 335.579,314.167 335.065 C 314.494 334.146,316.719 334.523,329.000 337.583 C 341.384 340.668,343.124 336.461,337.570 316.863 C 335.536 309.684,337.313 308.649,350.124 309.557 C 365.204 310.627,367.252 307.246,360.500 292.431 C 355.006 280.374,355.229 280.033,369.905 278.124 C 383.861 276.308,385.637 271.744,376.765 260.500 C 368.975 250.626,368.614 247.928,374.848 246.154 C 391.888 241.305,397.250 236.082,391.178 230.250 C 390.176 229.287,386.560 225.866,383.144 222.646 C 374.701 214.691,374.532 215.052,391.250 205.419 C 395.864 202.760,398.804 193.000,394.990 193.000 C 394.434 193.000,391.847 191.533,389.240 189.741 C 386.633 187.948,383.228 185.828,381.673 185.030 C 375.582 181.904,375.956 180.355,384.863 171.835 C 394.931 162.203,395.761 154.202,386.710 154.033 C 385.726 154.015,383.251 153.155,381.210 152.122 C 379.170 151.089,376.085 149.939,374.356 149.566 C 369.048 148.421,369.466 145.392,376.162 136.450 C 385.677 123.746,384.273 119.734,369.733 118.082 C 355.495 116.464,354.934 115.591,360.500 103.704 C 367.403 88.964,365.207 85.373,349.950 86.455 C 337.044 87.370,335.490 86.459,337.552 79.194 C 343.073 59.742,341.138 54.858,329.371 58.552 C 312.531 63.838,310.981 62.995,311.722 48.951 C 312.640 31.554,309.906 30.561,289.175 40.760 C 284.011 43.300,282.936 41.914,280.548 29.635 C 277.825 15.629,275.048 13.894,265.519 20.250 C 262.839 22.038,259.963 23.950,259.128 24.500 C 258.293 25.050,256.712 26.288,255.616 27.250 C 251.783 30.616,250.480 28.933,244.327 12.672 C 240.943 3.728,236.223 3.869,227.135 13.185 C 223.761 16.644,221.000 19.818,221.000 20.237 C 221.000 22.215,214.916 20.913,214.051 18.750 C 213.557 17.512,211.543 14.040,209.576 11.034 C 207.609 8.027,206.000 5.287,206.000 4.944 C 206.000 3.213,199.843 1.618,197.225 2.671 M206.659 41.750 C 212.098 47.586,211.281 53.809,204.526 57.984 C 194.259 64.329,183.826 51.461,191.750 42.226 C 195.557 37.789,202.753 37.559,206.659 41.750 M199.035 79.012 L 204.570 79.000 215.945 68.096 L 227.320 57.192 231.910 58.618 C 234.435 59.402,238.633 60.520,241.241 61.103 C 243.849 61.685,246.238 62.575,246.550 63.081 C 246.862 63.586,248.043 64.000,249.173 64.000 C 250.303 64.000,252.864 64.847,254.864 65.883 C 256.864 66.919,260.975 69.005,264.000 70.519 C 273.112 75.078,282.298 80.861,288.500 85.941 C 295.428 91.616,312.796 109.956,316.498 115.506 C 322.862 125.047,323.274 126.065,321.948 128.967 C 321.311 130.360,320.117 133.075,319.294 135.000 C 317.812 138.469,314.780 145.186,312.521 150.000 C 307.063 161.637,308.303 167.767,317.000 172.137 C 324.612 175.962,337.068 181.613,339.618 182.398 C 341.943 183.115,343.012 187.872,342.986 197.390 C 342.961 206.980,342.941 207.000,333.383 207.000 L 325.000 207.000 325.000 215.162 C 325.000 225.406,322.390 230.665,315.698 233.904 C 306.476 238.369,293.000 234.049,293.000 226.628 C 293.000 223.803,288.868 210.936,286.381 206.016 C 285.413 204.101,281.502 199.488,277.691 195.766 C 273.880 192.045,271.378 188.994,272.131 188.987 C 275.041 188.959,293.000 171.861,293.000 169.118 C 293.000 168.503,293.441 168.000,293.981 168.000 C 294.520 168.000,295.258 166.762,295.619 165.250 C 295.980 163.738,296.605 162.050,297.007 161.500 C 298.643 159.263,300.148 149.821,299.514 145.779 C 298.591 139.900,294.921 129.000,293.865 129.000 C 293.389 129.000,293.000 128.303,293.000 127.452 C 293.000 125.434,278.566 111.000,276.548 111.000 C 275.697 111.000,275.000 110.618,275.000 110.150 C 275.000 109.122,264.567 104.704,257.068 102.556 C 252.364 101.208,241.187 100.998,173.568 100.988 L 95.500 100.975 101.500 95.222 C 113.025 84.170,123.214 76.882,136.000 70.544 C 147.600 64.794,151.853 63.174,163.994 59.879 C 168.116 58.760,171.706 57.627,171.972 57.361 C 172.238 57.095,177.191 61.861,182.978 67.951 L 193.500 79.024 199.035 79.012 M67.429 146.368 C 74.805 153.325,70.862 164.000,60.917 164.000 C 52.591 164.000,46.873 154.277,51.783 148.469 C 57.146 142.126,62.210 141.446,67.429 146.368 M344.000 145.571 C 346.333 146.408,349.350 153.470,348.619 156.381 C 345.816 167.548,329.769 167.357,328.305 156.140 C 327.335 148.712,334.566 141.522,340.407 144.106 C 341.558 144.616,343.175 145.275,344.000 145.571 M103.000 190.500 L 103.000 235.000 83.117 235.000 C 63.352 235.000,63.229 234.987,62.598 232.750 C 60.069 223.800,58.022 207.085,58.036 195.500 L 58.052 182.500 62.276 180.691 C 75.960 174.832,85.751 169.935,87.302 168.175 C 90.647 164.379,90.425 158.643,86.590 149.750 L 84.973 146.000 93.987 146.000 L 103.000 146.000 103.000 190.500 M222.834 148.503 C 234.600 153.980,235.592 164.214,224.849 169.279 C 221.680 170.772,217.681 171.000,194.599 171.000 L 168.000 171.000 168.000 158.500 L 168.000 146.000 192.750 146.010 C 216.996 146.019,217.609 146.070,222.834 148.503 M210.681 213.250 C 220.219 215.782,226.046 224.953,228.971 242.040 C 232.596 263.210,236.801 272.222,246.253 279.068 L 250.300 282.000 281.685 282.000 C 317.385 282.000,315.029 281.160,306.294 290.781 L 301.500 296.061 296.000 294.609 C 282.288 290.988,274.542 289.805,271.712 290.901 C 267.889 292.380,264.000 296.798,264.000 299.661 C 264.000 300.964,263.354 304.611,262.564 307.765 C 261.774 310.919,260.572 316.112,259.891 319.305 C 258.197 327.255,258.279 327.205,236.000 333.851 C 215.608 339.935,184.195 339.988,165.313 333.972 C 161.910 332.887,158.437 332.000,157.597 332.000 C 155.999 332.000,151.430 330.208,144.271 326.773 C 140.698 325.059,139.959 324.184,139.504 321.122 C 139.208 319.130,138.321 314.575,137.534 311.000 C 136.747 307.425,135.833 302.803,135.502 300.729 C 133.986 291.214,126.926 288.146,114.066 291.414 C 111.005 292.192,106.038 293.332,103.028 293.948 L 97.556 295.067 94.267 291.284 C 92.459 289.203,90.053 286.262,88.921 284.750 L 86.864 282.000 145.951 282.000 L 205.038 282.000 204.769 259.250 L 204.500 236.500 186.250 236.227 L 168.000 235.955 168.000 223.977 L 168.000 212.000 186.986 212.000 C 198.996 212.000,207.702 212.459,210.681 213.250 M119.711 308.772 C 125.819 313.546,125.386 320.869,118.689 326.062 C 109.429 333.242,97.838 318.266,106.000 309.668 C 109.051 306.454,116.151 305.990,119.711 308.772 M292.600 310.400 C 299.961 317.761,292.833 331.621,283.251 328.580 C 271.567 324.871,273.430 307.000,285.500 307.000 C 288.375 307.000,289.959 307.759,292.600 310.400 " stroke="none" fill-rule="evenodd"></path>
</g>
</svg>