<svg id="svg" version="1.1" width="400" height="400" xmlns="http://www.w3.org/2000/svg" xmlns:xlink="http://www.w3.org/1999/xlink" ><g id="svgg"><path id="path0" d="M127.116 7.087 C 123.221 8.815,105.000 25.530,105.000 27.374 C 105.000 28.463,96.155 37.000,95.026 37.000 C 94.462 37.000,94.000 37.375,94.000 37.834 C 94.000 39.217,83.842 43.831,78.500 44.875 C 75.750 45.413,69.900 46.415,65.500 47.102 C 43.660 50.513,37.695 57.735,36.675 82.000 C 35.953 99.177,32.150 112.000,27.777 112.000 C 27.311 112.000,22.275 116.612,16.586 122.250 C 0.386 138.302,-0.334 144.053,10.125 173.839 C 13.081 182.257,12.187 197.956,8.750 197.992 C 8.338 197.996,8.000 198.411,8.000 198.913 C 8.000 199.415,6.391 202.227,4.425 205.163 C -1.312 213.729,-0.105 221.008,9.431 235.342 C 11.568 238.555,13.921 241.416,14.658 241.699 C 15.396 241.982,16.000 242.841,16.000 243.607 C 16.000 244.373,16.337 245.008,16.750 245.018 C 18.970 245.071,24.806 254.573,29.192 265.271 C 33.956 276.893,38.140 285.408,40.092 287.450 C 40.591 287.972,41.000 289.004,41.000 289.742 C 41.000 290.480,41.466 291.628,42.035 292.292 C 42.926 293.333,51.549 306.211,54.500 310.908 C 55.050 311.784,56.063 312.860,56.750 313.300 C 57.438 313.740,58.000 314.455,58.000 314.889 C 58.000 317.160,81.966 341.697,89.397 347.033 C 91.929 348.852,94.000 350.713,94.000 351.170 C 94.000 351.626,94.653 352.000,95.450 352.000 C 96.248 352.000,97.260 352.603,97.700 353.340 C 98.140 354.077,100.525 355.910,103.000 357.414 C 107.380 360.075,113.481 364.151,115.500 365.764 C 118.850 368.441,152.777 384.000,155.265 384.000 C 155.923 384.000,158.720 384.857,161.481 385.904 C 189.837 396.661,243.142 398.636,270.687 389.951 C 274.090 388.878,277.457 388.000,278.168 388.000 C 281.349 388.000,308.117 376.461,308.833 374.782 C 309.017 374.352,309.790 374.000,310.552 374.000 C 312.089 374.000,326.306 365.107,326.833 363.816 C 327.017 363.367,327.782 363.000,328.534 363.000 C 329.285 363.000,330.260 362.436,330.700 361.747 C 331.140 361.058,334.003 358.594,337.063 356.270 C 349.509 346.818,369.517 324.855,376.214 313.293 C 377.422 311.207,378.694 309.275,379.041 309.000 C 379.987 308.249,386.198 296.770,389.320 290.000 C 391.098 286.145,393.963 277.969,393.985 276.683 C 393.993 276.234,392.041 277.471,389.647 279.433 C 387.253 281.395,384.778 283.000,384.147 283.000 C 383.516 283.000,383.000 283.406,383.000 283.901 C 383.000 284.397,381.538 285.743,379.750 286.893 C 377.962 288.042,373.800 290.754,370.500 292.919 C 365.101 296.462,348.596 305.060,343.500 306.986 C 331.368 311.569,321.394 313.428,330.096 309.484 C 349.023 300.906,372.131 277.792,383.068 256.500 C 384.481 253.750,386.117 250.600,386.704 249.500 C 395.833 232.401,401.106 200.758,397.897 182.332 C 396.599 174.875,395.844 174.537,393.244 180.250 C 389.436 188.614,389.003 189.519,388.098 191.000 C 387.594 191.825,385.265 195.875,382.924 200.000 C 380.583 204.125,378.390 207.725,378.051 208.000 C 377.712 208.275,375.940 210.863,374.113 213.750 C 372.286 216.637,370.388 219.000,369.896 219.000 C 369.403 219.000,369.000 219.500,369.000 220.110 C 369.000 221.471,360.072 230.405,359.392 229.725 C 359.124 229.457,359.584 228.559,360.414 227.728 C 363.262 224.881,374.000 202.101,374.000 198.908 C 374.000 197.786,374.488 195.957,375.084 194.843 C 376.430 192.328,378.980 173.446,378.992 165.913 C 379.017 148.790,372.036 124.782,364.760 116.972 C 363.792 115.934,363.000 114.715,363.000 114.264 C 363.000 113.813,362.212 112.685,361.250 111.757 C 360.288 110.829,358.608 109.130,357.518 107.981 C 355.249 105.589,354.315 106.852,356.010 110.019 C 362.176 121.541,364.606 153.696,360.467 169.000 C 359.500 172.575,358.373 177.300,357.962 179.500 C 357.551 181.700,356.655 185.075,355.971 187.000 C 353.187 194.841,347.588 208.299,345.987 211.000 C 345.498 211.825,344.099 214.525,342.878 217.000 C 339.850 223.135,327.928 241.000,326.862 241.000 C 326.388 241.000,326.000 241.627,326.000 242.393 C 326.000 243.159,325.325 244.045,324.500 244.362 C 323.675 244.678,323.000 245.401,323.000 245.969 C 323.000 248.206,299.003 270.730,293.367 273.782 C 292.065 274.487,291.000 275.500,291.000 276.032 C 291.000 277.639,314.967 277.217,320.591 275.511 C 323.291 274.692,326.270 274.017,327.212 274.011 C 329.205 273.998,343.116 267.606,347.500 264.688 C 349.150 263.590,348.069 264.989,345.097 267.797 C 342.126 270.606,339.088 273.136,338.347 273.420 C 337.606 273.705,337.000 274.401,337.000 274.969 C 337.000 275.536,336.501 276.000,335.891 276.000 C 335.281 276.000,333.818 276.880,332.641 277.955 C 329.434 280.883,321.867 286.311,318.750 287.919 C 317.238 288.699,316.000 289.712,316.000 290.169 C 316.000 290.626,315.127 291.000,314.059 291.000 C 312.991 291.000,311.873 291.396,311.574 291.881 C 310.931 292.921,299.020 298.814,290.500 302.307 C 277.377 307.687,259.215 312.000,249.682 312.000 C 245.457 312.000,242.014 312.337,242.032 312.750 C 242.079 313.856,244.605 317.000,245.446 317.000 C 245.846 317.000,247.701 318.442,249.569 320.204 C 259.262 329.347,280.464 337.882,294.000 338.090 L 301.500 338.205 295.500 339.559 C 278.435 343.410,240.831 340.552,228.659 334.480 C 227.028 333.666,225.233 333.000,224.671 333.000 C 223.153 333.000,206.554 324.761,206.167 323.814 C 205.983 323.367,205.041 323.000,204.072 323.000 C 203.103 323.000,201.495 322.100,200.500 321.000 C 199.505 319.900,198.324 319.000,197.876 319.000 C 196.962 319.000,185.049 311.081,183.500 309.443 C 182.950 308.862,180.700 307.078,178.500 305.479 C 176.300 303.881,173.989 302.106,173.364 301.536 C 172.739 300.966,169.855 298.475,166.955 296.000 C 160.822 290.766,157.182 287.177,151.129 280.396 L 146.757 275.500 147.409 283.125 C 148.656 297.710,156.495 312.771,169.355 325.292 C 173.695 329.516,173.680 331.187,169.329 328.298 C 165.058 325.463,162.712 324.088,160.459 323.102 C 159.336 322.610,157.819 321.486,157.086 320.604 C 156.354 319.722,155.121 319.000,154.346 319.000 C 153.571 319.000,152.678 318.325,152.362 317.500 C 152.045 316.675,151.353 316.000,150.824 316.000 C 149.469 316.000,131.000 297.563,131.000 296.211 C 131.000 295.599,130.397 294.740,129.660 294.300 C 128.923 293.860,127.032 291.250,125.458 288.500 C 123.884 285.750,122.318 283.275,121.979 283.000 C 121.640 282.725,120.456 280.475,119.350 278.000 C 118.243 275.525,116.521 271.700,115.524 269.500 C 114.526 267.300,113.378 263.925,112.972 262.000 C 112.567 260.075,111.507 255.818,110.617 252.540 C 106.889 238.799,108.553 210.253,114.147 192.000 C 115.730 186.835,122.057 174.000,123.021 174.000 C 123.479 174.000,123.999 173.322,124.177 172.494 C 125.040 168.469,140.617 153.093,150.088 146.915 C 152.514 145.332,154.950 143.691,155.500 143.268 C 157.745 141.543,171.982 135.027,177.755 133.083 C 187.207 129.898,188.025 130.010,202.500 136.458 C 204.150 137.193,207.975 138.791,211.000 140.009 C 214.025 141.227,217.978 142.848,219.784 143.612 C 221.590 144.375,223.615 145.015,224.284 145.034 C 224.953 145.053,227.300 145.937,229.500 147.000 C 231.700 148.063,234.011 148.947,234.635 148.966 C 235.260 148.985,238.185 149.728,241.135 150.617 C 258.029 155.711,261.947 156.671,279.500 160.021 C 320.605 167.864,352.000 155.638,352.000 131.789 C 352.000 124.923,345.571 106.356,342.782 105.167 C 342.352 104.983,342.000 104.008,342.000 103.000 C 342.000 101.992,341.663 101.017,341.250 100.833 C 340.837 100.650,338.377 97.744,335.782 94.375 C 330.346 87.318,318.148 74.860,311.241 69.310 C 308.633 67.214,306.275 65.263,306.000 64.974 C 304.043 62.916,288.623 51.896,286.000 50.681 C 285.175 50.299,282.700 48.887,280.500 47.543 C 272.747 42.806,256.540 35.143,248.000 32.176 C 228.851 25.524,217.157 23.169,199.158 22.342 C 188.562 21.855,184.681 21.333,184.301 20.342 C 184.018 19.604,183.207 19.000,182.500 19.000 C 181.793 19.000,180.955 18.325,180.638 17.500 C 180.322 16.675,179.411 16.000,178.615 16.000 C 177.818 16.000,177.017 15.617,176.833 15.149 C 173.678 7.098,139.560 1.565,127.116 7.087 M252.096 86.068 C 255.950 88.812,256.316 96.082,252.750 99.056 C 244.547 105.900,234.361 94.485,241.923 86.923 C 245.374 83.472,248.125 83.241,252.096 86.068 " stroke="none" fill="#000000" fill-rule="evenodd"></path></g></svg>