<svg version="1.1" width="400" height="400" xmlns="http://www.w3.org/2000/svg">
<g>
<path d="M178.500 0.957 C 176.850 1.401,173.527 1.817,171.116 1.882 C 168.705 1.947,165.105 2.430,163.116 2.956 C 161.127 3.483,155.450 4.859,150.500 6.015 C 145.550 7.171,140.719 8.540,139.764 9.058 C 138.809 9.576,137.211 10.000,136.214 10.000 C 135.216 10.000,133.972 10.358,133.450 10.796 C 132.927 11.234,130.700 12.197,128.500 12.937 C 126.300 13.677,121.676 15.569,118.225 17.141 C 114.774 18.713,111.511 20.000,110.975 20.000 C 110.439 20.000,110.000 20.450,110.000 21.000 C 110.000 21.550,109.100 22.000,108.000 22.000 C 106.900 22.000,106.000 22.340,106.000 22.756 C 106.000 23.172,104.606 24.129,102.903 24.883 C 99.347 26.457,79.391 39.466,77.253 41.604 C 76.469 42.388,74.181 44.261,72.170 45.765 C 67.215 49.471,49.294 67.435,45.001 73.000 C 43.091 75.475,40.976 78.079,40.299 78.786 C 39.623 79.494,38.282 81.406,37.319 83.036 C 36.357 84.666,35.216 86.000,34.784 86.000 C 34.353 86.000,34.000 86.520,34.000 87.156 C 34.000 87.791,32.959 89.704,31.686 91.406 C 22.138 104.178,9.273 133.915,5.149 152.750 C 0.662 173.244,-0.000 179.283,0.000 199.702 C 0.000 220.596,1.232 231.255,5.931 251.000 C 7.044 255.678,12.622 272.327,14.599 276.868 C 19.997 289.274,32.483 312.162,34.855 314.000 C 36.488 315.266,39.747 320.790,40.459 323.500 C 40.892 325.150,41.454 325.938,41.707 325.250 C 41.960 324.563,42.579 324.000,43.083 324.000 C 43.587 324.000,44.001 324.563,44.002 325.250 C 44.003 325.938,47.716 330.517,52.252 335.426 C 56.788 340.335,60.376 344.756,60.225 345.250 C 60.074 345.744,60.314 345.924,60.759 345.649 C 61.204 345.374,63.803 347.177,66.534 349.655 C 69.265 352.134,72.513 354.852,73.750 355.696 C 74.988 356.540,76.000 357.778,76.000 358.448 C 76.000 359.118,76.675 359.742,77.500 359.833 C 78.325 359.925,79.675 360.075,80.500 360.167 C 81.325 360.258,82.010 360.821,82.021 361.417 C 82.045 362.620,89.241 368.000,90.826 368.000 C 91.380 368.000,91.983 368.337,92.167 368.750 C 93.743 372.297,127.724 388.258,142.000 392.157 C 150.757 394.549,152.931 395.086,159.519 396.490 C 163.379 397.312,168.888 398.101,171.761 398.243 C 174.635 398.384,176.989 398.837,176.993 399.250 C 177.003 400.314,219.916 400.184,225.701 399.102 C 228.340 398.609,233.650 397.655,237.500 396.984 C 241.350 396.312,246.975 395.102,250.000 394.295 C 253.025 393.487,256.850 392.474,258.500 392.044 C 260.150 391.613,264.200 390.270,267.500 389.059 C 270.800 387.848,273.950 386.749,274.500 386.617 C 276.883 386.043,295.907 376.618,300.088 373.940 C 302.611 372.323,305.423 371.000,306.338 371.000 C 307.252 371.000,308.000 370.597,308.000 370.104 C 308.000 369.612,310.223 367.782,312.939 366.039 C 315.656 364.296,319.368 361.556,321.189 359.951 C 323.010 358.345,324.884 357.025,325.354 357.016 C 326.599 356.993,354.126 329.206,357.565 324.500 C 359.173 322.300,360.716 320.275,360.994 320.000 C 364.056 316.973,374.412 299.762,379.648 289.000 C 386.343 275.239,388.627 269.243,392.984 254.000 C 396.030 243.344,397.029 238.543,398.954 225.307 C 400.313 215.965,400.303 183.618,398.939 175.115 C 395.211 151.885,391.579 138.349,384.684 122.000 C 379.756 110.315,370.026 92.553,365.237 86.500 C 364.802 85.950,363.355 83.925,362.021 82.000 C 360.687 80.075,359.347 78.275,359.042 78.000 C 358.738 77.725,357.157 75.700,355.528 73.500 C 351.725 68.360,332.854 49.517,327.000 45.014 C 324.525 43.110,322.275 41.293,322.000 40.978 C 321.725 40.662,319.925 39.322,318.000 38.000 C 316.075 36.678,314.275 35.330,314.000 35.003 C 313.350 34.233,294.275 22.862,291.009 21.299 C 273.929 13.123,260.900 8.441,246.000 5.125 C 243.525 4.574,240.375 3.837,239.000 3.488 C 229.314 1.026,185.123 -0.822,178.500 0.957 M214.000 15.233 C 214.000 15.655,216.110 16.000,218.690 16.000 C 227.220 16.000,250.703 21.059,260.500 25.008 C 261.600 25.451,264.525 26.568,267.000 27.489 C 273.761 30.006,278.413 32.272,279.235 33.448 C 279.639 34.027,279.976 34.186,279.985 33.802 C 280.006 32.818,286.000 35.017,286.000 36.009 C 286.000 36.456,288.137 37.843,290.750 39.092 C 293.363 40.340,295.725 41.668,296.000 42.042 C 296.275 42.415,298.075 43.525,300.000 44.508 C 301.925 45.492,304.228 47.129,305.117 48.148 C 306.007 49.167,307.304 50.000,308.000 50.000 C 308.696 50.000,309.993 50.799,310.883 51.776 C 312.954 54.050,318.273 57.512,319.250 57.222 C 319.663 57.100,320.000 57.690,320.000 58.532 C 320.000 59.375,321.012 60.471,322.250 60.969 C 323.488 61.466,324.195 61.902,323.822 61.937 C 323.450 61.971,326.375 65.293,330.322 69.319 C 338.201 77.352,344.000 83.890,344.000 84.738 C 344.000 85.038,345.350 86.574,347.000 88.150 C 348.650 89.727,350.000 91.484,350.000 92.054 C 350.000 92.624,351.145 94.236,352.544 95.635 C 353.943 97.034,355.792 99.938,356.652 102.089 C 357.513 104.240,358.589 106.000,359.044 106.000 C 359.499 106.000,360.440 107.575,361.136 109.500 C 361.832 111.425,362.761 113.000,363.201 113.000 C 363.640 113.000,364.000 113.614,364.000 114.365 C 364.000 115.116,364.900 116.874,366.000 118.273 C 367.100 119.671,368.000 121.432,368.000 122.185 C 368.000 122.939,369.238 126.037,370.750 129.071 C 372.262 132.104,373.592 135.017,373.705 135.543 C 373.818 136.069,374.782 138.836,375.848 141.691 C 376.913 144.546,377.533 147.134,377.226 147.441 C 376.918 147.748,377.095 148.000,377.619 148.000 C 378.143 148.000,378.650 148.787,378.745 149.750 C 379.131 153.645,380.267 158.000,380.896 158.000 C 381.264 158.000,381.667 160.338,381.791 163.196 C 381.916 166.054,382.364 168.642,382.787 168.946 C 383.211 169.251,383.703 172.650,383.881 176.500 C 384.059 180.350,384.496 183.725,384.852 184.000 C 385.764 184.704,385.665 216.001,384.750 216.001 C 384.337 216.000,384.000 218.475,384.000 221.500 C 384.000 224.525,383.663 227.000,383.250 227.000 C 382.837 227.000,382.446 228.012,382.381 229.250 C 381.884 238.614,381.459 242.000,380.783 242.000 C 380.352 242.000,380.000 242.900,380.000 244.000 C 380.000 245.100,379.559 246.000,379.020 246.000 C 378.480 246.000,378.196 247.350,378.388 249.000 C 378.580 250.650,378.320 252.000,377.810 252.000 C 377.299 252.000,377.160 252.450,377.500 253.000 C 377.840 253.550,377.740 254.000,377.277 254.000 C 376.815 254.000,376.341 255.149,376.225 256.553 C 376.109 257.957,375.557 259.958,375.000 261.000 C 374.443 262.042,373.891 264.043,373.775 265.447 C 373.659 266.851,373.295 268.000,372.967 268.000 C 372.186 268.000,368.760 274.945,368.306 277.448 C 368.111 278.519,367.293 280.124,366.487 281.015 C 365.680 281.906,362.955 286.767,360.431 291.817 C 357.906 296.868,355.351 301.000,354.754 301.000 C 354.156 301.000,353.929 301.262,354.250 301.583 C 354.571 301.904,354.083 302.997,353.167 304.012 C 350.970 306.443,350.073 307.648,346.500 312.962 C 343.213 317.852,319.809 341.666,313.470 346.572 C 308.140 350.697,295.219 359.196,291.500 361.023 C 289.850 361.834,288.275 362.732,288.000 363.019 C 286.775 364.297,265.567 374.000,263.997 374.000 C 263.434 374.000,262.191 374.404,261.236 374.897 C 260.281 375.391,256.350 376.714,252.500 377.838 C 245.859 379.776,243.254 380.398,231.500 382.847 C 214.392 386.412,185.555 386.495,169.500 383.027 C 167.300 382.551,162.800 381.611,159.500 380.936 C 153.180 379.644,141.880 376.446,138.500 374.992 C 137.400 374.519,134.700 373.548,132.500 372.834 C 120.711 369.007,91.386 351.537,81.504 342.453 C 79.306 340.433,75.819 337.382,73.754 335.675 C 71.689 333.967,70.000 331.992,70.000 331.285 C 70.000 330.578,69.378 330.000,68.619 330.000 C 67.859 330.000,66.113 328.538,64.739 326.750 C 63.365 324.963,60.949 322.139,59.371 320.475 C 54.957 315.824,48.000 306.452,48.000 305.158 C 48.000 304.521,47.647 304.000,47.216 304.000 C 44.352 304.000,29.489 274.763,24.543 259.400 C 20.513 246.880,20.222 245.837,18.999 239.500 C 18.362 236.200,17.314 231.475,16.671 229.000 C 15.116 223.023,15.119 178.288,16.674 171.500 C 17.304 168.750,18.386 163.800,19.077 160.500 C 19.768 157.200,20.952 153.249,21.708 151.721 C 22.463 150.192,22.854 148.572,22.575 148.122 C 21.947 147.105,25.885 136.083,31.284 123.750 C 31.946 122.238,32.828 121.000,33.244 121.000 C 33.660 121.000,34.000 119.875,34.000 118.500 C 34.000 117.125,34.367 116.000,34.816 116.000 C 35.265 116.000,36.923 113.300,38.500 110.000 C 40.077 106.700,41.680 104.000,42.063 104.000 C 42.445 104.000,43.341 102.592,44.054 100.870 C 44.767 99.149,46.396 96.695,47.675 95.416 C 48.954 94.137,50.000 92.690,50.000 92.200 C 50.000 91.711,50.903 90.493,52.006 89.494 C 53.110 88.496,53.807 87.474,53.556 87.223 C 53.305 86.972,55.552 84.234,58.550 81.139 C 61.547 78.045,64.000 74.722,64.000 73.756 C 64.000 72.790,64.596 72.000,65.325 72.000 C 66.661 72.000,67.802 70.977,72.577 65.500 C 74.016 63.850,75.411 62.653,75.678 62.841 C 75.945 63.028,77.963 61.566,80.163 59.591 C 82.363 57.616,84.576 56.000,85.082 56.000 C 85.587 56.000,86.000 55.427,86.000 54.727 C 86.000 54.027,87.687 52.571,89.750 51.491 C 91.813 50.411,94.228 48.734,95.117 47.764 C 96.007 46.794,97.304 46.000,98.000 46.000 C 98.696 46.000,99.998 45.212,100.893 44.250 C 102.726 42.280,104.237 41.374,114.857 35.878 C 118.979 33.745,122.948 32.000,123.676 32.000 C 124.404 32.000,125.000 31.622,125.000 31.160 C 125.000 30.698,126.800 29.726,129.000 29.000 C 131.200 28.274,133.000 27.400,133.000 27.058 C 133.000 26.716,134.192 26.338,135.649 26.217 C 137.106 26.096,138.793 25.627,139.399 25.174 C 140.750 24.163,149.204 21.563,150.280 21.828 C 150.709 21.934,152.340 21.359,153.903 20.550 C 155.467 19.741,156.995 19.328,157.298 19.632 C 157.602 19.935,159.346 19.723,161.175 19.160 C 166.734 17.450,178.276 15.648,182.250 15.871 C 184.313 15.986,186.001 15.725,186.002 15.291 C 186.003 14.856,192.303 14.492,200.002 14.483 C 207.701 14.474,214.000 14.811,214.000 15.233 M181.189 23.581 C 181.113 25.620,181.463 26.832,182.029 26.482 C 183.219 25.747,183.318 21.315,182.161 20.599 C 181.699 20.314,181.262 21.656,181.189 23.581 M215.833 24.000 C 215.742 26.200,215.629 28.750,215.583 29.667 C 215.537 30.583,215.950 31.481,216.500 31.662 C 217.083 31.854,217.554 29.490,217.630 25.995 C 217.773 19.412,216.102 17.556,215.833 24.000 M163.531 24.750 C 163.942 26.262,164.243 28.306,164.198 29.292 C 164.154 30.277,164.732 32.824,165.483 34.951 C 166.233 37.079,166.612 39.055,166.324 39.343 C 166.036 39.630,166.344 41.513,167.008 43.525 C 167.813 45.964,168.549 46.851,169.216 46.184 C 169.883 45.517,169.787 43.903,168.930 41.342 C 168.223 39.229,167.696 36.712,167.760 35.750 C 167.824 34.788,167.529 34.000,167.105 34.000 C 166.680 34.000,166.268 32.763,166.188 31.250 C 166.064 28.916,165.756 26.441,165.128 22.750 C 165.057 22.337,164.501 22.000,163.892 22.000 C 163.168 22.000,163.043 22.954,163.531 24.750 M233.509 22.986 C 232.914 23.948,231.098 33.010,230.500 38.000 C 230.335 39.375,229.881 41.737,229.491 43.250 C 229.041 45.000,229.179 46.000,229.873 46.000 C 230.472 46.000,231.195 44.875,231.481 43.500 C 231.766 42.125,232.290 39.763,232.643 38.250 C 233.495 34.612,234.225 29.044,234.218 26.250 C 234.214 25.012,234.614 24.000,235.106 24.000 C 235.598 24.000,236.000 23.550,236.000 23.000 C 236.000 21.713,234.301 21.703,233.509 22.986 M251.018 27.500 C 250.878 28.050,250.816 28.837,250.882 29.250 C 250.947 29.663,250.576 30.000,250.057 30.000 C 249.539 30.000,249.288 30.900,249.500 32.000 C 249.712 33.100,249.461 34.000,248.943 34.000 C 248.424 34.000,248.000 35.152,248.000 36.559 C 248.000 38.117,248.417 38.860,249.067 38.459 C 249.653 38.096,249.896 37.563,249.606 37.273 C 249.317 36.983,249.764 35.423,250.601 33.806 C 251.437 32.188,251.930 29.883,251.697 28.682 C 251.463 27.482,251.158 26.950,251.018 27.500 M146.360 29.250 C 146.650 29.938,147.416 32.413,148.062 34.750 C 149.348 39.399,151.628 40.761,150.574 36.250 C 149.510 31.697,147.816 28.000,146.795 28.000 C 146.266 28.000,146.070 28.563,146.360 29.250 M182.000 30.000 C 182.000 31.100,182.450 32.000,183.000 32.000 C 183.550 32.000,184.000 31.100,184.000 30.000 C 184.000 28.900,183.550 28.000,183.000 28.000 C 182.450 28.000,182.000 28.900,182.000 30.000 M263.166 42.550 C 258.548 54.245,258.334 55.193,260.500 54.362 C 261.325 54.045,262.000 53.137,262.000 52.345 C 262.000 51.552,262.900 49.041,264.000 46.764 C 265.100 44.487,266.000 42.182,266.000 41.641 C 266.000 41.100,266.615 39.947,267.366 39.079 C 269.458 36.660,270.327 32.000,268.685 32.000 C 267.897 32.000,265.594 36.402,263.166 42.550 M129.622 34.750 C 129.930 35.712,130.589 37.400,131.086 38.500 C 131.584 39.600,133.254 43.620,134.797 47.434 C 136.341 51.247,138.142 54.547,138.802 54.767 C 140.530 55.343,140.282 53.487,138.000 48.764 C 136.900 46.487,136.000 44.089,136.000 43.435 C 136.000 42.780,135.339 41.697,134.532 41.027 C 133.725 40.356,133.123 39.514,133.196 39.154 C 133.564 37.334,131.611 33.000,130.423 33.000 C 129.581 33.000,129.276 33.667,129.622 34.750 M198.787 40.000 C 198.545 41.650,198.718 43.000,199.173 43.000 C 199.628 43.000,200.000 41.650,200.000 40.000 C 200.000 38.350,199.826 37.000,199.613 37.000 C 199.401 37.000,199.029 38.350,198.787 40.000 M280.750 45.268 C 277.848 50.822,277.505 52.000,278.791 52.000 C 279.542 52.000,285.000 42.023,285.000 40.650 C 285.000 38.653,283.163 40.649,280.750 45.268 M113.570 41.887 C 113.269 42.374,113.600 43.253,114.305 43.839 C 115.011 44.424,116.215 46.500,116.981 48.452 C 118.363 51.974,120.000 53.193,120.000 50.699 C 120.000 48.860,117.648 44.017,116.750 44.008 C 116.338 44.004,116.000 43.325,116.000 42.500 C 116.000 40.862,114.446 40.470,113.570 41.887 M292.167 58.641 C 288.572 64.087,286.211 68.611,286.705 69.105 C 287.623 70.023,287.972 69.614,293.219 61.500 C 294.997 58.750,296.913 55.953,297.476 55.285 C 298.039 54.616,299.063 53.398,299.750 52.577 C 300.438 51.756,301.000 50.615,301.000 50.042 C 301.000 46.985,297.815 50.086,292.167 58.641 M99.081 51.403 C 98.440 52.174,98.281 52.962,98.725 53.153 C 99.170 53.344,102.002 57.197,105.017 61.716 C 108.033 66.235,111.063 69.948,111.750 69.966 C 113.442 70.012,113.326 68.469,111.500 66.643 C 110.675 65.818,110.000 64.601,110.000 63.939 C 110.000 63.276,109.209 62.007,108.243 61.117 C 107.277 60.228,105.851 58.263,105.074 56.750 C 104.298 55.237,103.288 54.000,102.831 54.000 C 102.374 54.000,102.000 53.100,102.000 52.000 C 102.000 49.667,100.736 49.408,99.081 51.403 M312.500 61.000 C 312.840 61.550,312.529 62.003,311.809 62.007 C 310.221 62.015,305.443 68.776,306.369 69.703 C 306.731 70.065,308.596 68.648,310.514 66.555 C 313.961 62.792,314.994 60.000,312.941 60.000 C 312.359 60.000,312.160 60.450,312.500 61.000 M85.242 63.136 C 87.021 66.158,90.894 70.000,92.160 70.000 C 92.763 70.000,92.481 68.800,91.514 67.250 C 88.405 62.268,82.417 58.341,85.242 63.136 M322.000 74.540 C 319.525 76.430,317.050 78.332,316.500 78.766 C 315.950 79.200,313.475 81.117,311.000 83.027 C 308.525 84.937,306.275 86.747,306.000 87.048 C 305.725 87.350,303.925 88.678,302.000 90.001 C 300.075 91.323,297.825 93.123,297.000 94.000 C 296.175 94.877,293.925 96.677,292.000 97.999 C 290.075 99.322,288.275 100.653,288.000 100.958 C 287.725 101.262,285.851 102.740,283.837 104.241 C 281.822 105.742,279.572 107.554,278.837 108.268 C 278.101 108.982,275.925 110.654,274.000 111.985 C 272.075 113.315,270.275 114.662,270.000 114.978 C 269.725 115.293,267.475 117.103,265.000 119.000 C 262.525 120.897,260.275 122.707,260.000 123.022 C 259.725 123.338,257.925 124.678,256.000 126.000 C 254.075 127.322,252.275 128.669,252.000 128.994 C 251.725 129.319,247.675 132.491,243.000 136.042 C 238.325 139.594,234.275 142.725,234.000 143.000 C 233.725 143.275,229.675 146.421,225.000 149.991 C 220.325 153.561,215.825 157.033,215.000 157.706 C 214.175 158.379,206.750 164.116,198.500 170.455 C 179.891 184.753,180.842 183.935,181.537 185.060 C 181.857 185.577,181.442 186.000,180.616 186.000 C 179.789 186.000,178.316 187.350,177.341 189.000 C 176.366 190.650,175.246 192.000,174.852 192.000 C 174.457 192.000,173.873 192.826,173.552 193.835 C 173.232 194.845,171.417 197.416,169.520 199.548 C 167.061 202.313,166.419 203.650,167.285 204.208 C 168.036 204.692,169.279 204.038,170.538 202.496 C 171.658 201.123,173.121 200.000,173.788 200.000 C 174.454 200.000,175.015 199.438,175.034 198.750 C 175.081 197.021,178.924 189.202,178.966 190.750 C 178.985 191.438,179.787 191.993,180.750 191.985 C 182.110 191.973,182.198 191.778,181.147 191.112 C 180.091 190.443,180.044 189.786,180.932 188.127 C 182.263 185.641,182.164 185.662,185.453 187.161 C 188.086 188.360,188.883 190.000,186.833 190.000 C 184.113 190.000,187.697 191.561,191.250 191.923 C 191.662 191.966,192.000 192.900,192.000 194.000 C 192.000 195.100,192.482 196.000,193.071 196.000 C 195.164 196.000,197.208 199.036,196.626 201.280 C 196.309 202.501,185.191 214.300,171.920 227.500 C 158.650 240.700,146.830 252.625,145.654 254.000 C 139.750 260.905,98.331 301.959,97.250 301.978 C 96.563 301.990,96.000 302.591,96.000 303.313 C 96.000 304.927,90.838 310.000,89.195 310.000 C 88.538 310.000,88.000 309.523,88.000 308.941 C 88.000 308.359,88.414 308.138,88.919 308.450 C 90.247 309.271,93.210 305.991,92.593 304.383 C 92.307 303.636,92.618 303.131,93.286 303.262 C 93.969 303.396,94.361 302.691,94.183 301.650 C 94.009 300.632,94.299 300.067,94.828 300.394 C 95.357 300.721,96.048 300.316,96.364 299.494 C 96.679 298.672,97.837 298.000,98.937 298.000 C 100.289 298.000,100.754 297.522,100.371 296.526 C 99.514 294.292,102.878 291.237,104.156 293.088 C 104.875 294.129,104.972 293.931,104.525 292.334 C 104.191 291.143,104.367 289.891,104.916 289.552 C 105.464 289.213,105.631 288.202,105.286 287.304 C 104.942 286.406,105.079 285.931,105.591 286.247 C 107.016 287.128,109.448 284.856,110.904 281.283 C 111.625 279.514,113.126 277.777,114.240 277.424 C 115.500 277.024,115.845 276.522,115.153 276.095 C 114.425 275.645,114.811 274.750,116.271 273.500 C 117.497 272.450,118.593 271.796,118.707 272.046 C 119.142 273.002,121.938 268.412,121.968 266.691 C 121.986 265.696,122.437 265.152,122.971 265.482 C 123.505 265.812,124.232 264.924,124.587 263.509 C 125.189 261.112,125.325 261.058,126.585 262.718 C 127.796 264.315,127.940 264.104,127.968 260.679 C 128.005 256.227,130.577 252.758,132.112 255.088 C 132.760 256.071,132.899 255.632,132.569 253.644 C 132.199 251.421,132.527 250.675,134.047 250.277 C 135.121 249.997,136.000 248.919,136.000 247.883 C 136.000 246.848,136.450 246.000,137.000 246.000 C 138.736 246.000,142.000 242.083,142.000 240.000 C 142.000 238.900,142.450 238.000,143.000 238.000 C 143.550 238.000,144.000 237.555,144.000 237.011 C 144.000 235.032,147.366 231.974,148.150 233.242 C 148.558 233.902,149.205 234.128,149.588 233.745 C 149.971 233.362,149.716 232.362,149.020 231.524 C 147.954 230.240,148.089 230.000,149.878 230.000 C 151.337 230.000,152.000 229.372,152.000 227.990 C 152.000 226.885,152.900 225.210,154.000 224.268 C 155.100 223.326,156.000 221.966,156.000 221.246 C 156.000 220.526,156.658 219.685,157.462 219.376 C 158.266 219.068,159.225 217.865,159.594 216.704 C 160.551 213.689,163.219 211.158,163.753 212.759 C 164.471 214.912,166.156 214.102,165.852 211.750 C 165.482 208.884,166.678 206.939,168.403 207.601 C 169.139 207.884,169.967 207.527,170.241 206.807 C 170.576 205.933,169.801 205.465,167.901 205.395 C 166.339 205.337,165.279 205.642,165.545 206.073 C 165.811 206.504,165.195 207.121,164.175 207.445 C 163.155 207.768,161.689 209.263,160.917 210.767 C 160.145 212.270,158.723 214.228,157.757 215.117 C 156.791 216.007,156.000 217.236,156.000 217.849 C 156.000 218.462,154.537 220.510,152.750 222.401 C 148.646 226.742,144.950 231.543,143.372 234.583 C 142.699 235.881,141.103 237.999,139.824 239.291 C 138.546 240.583,136.600 242.891,135.500 244.420 C 131.263 250.309,128.000 254.578,126.266 256.500 C 125.274 257.600,123.361 260.075,122.014 262.000 C 120.668 263.925,119.004 266.079,118.318 266.786 C 117.632 267.494,116.282 269.406,115.319 271.036 C 114.357 272.666,113.216 274.000,112.784 274.000 C 112.353 274.000,112.000 274.474,112.000 275.054 C 112.000 275.634,110.645 277.547,108.989 279.304 C 107.333 281.062,105.423 283.738,104.745 285.250 C 104.067 286.762,103.248 288.000,102.925 288.000 C 102.603 288.000,100.823 290.137,98.971 292.750 C 97.119 295.363,95.329 297.725,94.994 298.000 C 91.281 301.051,81.944 315.366,83.121 316.205 C 84.198 316.973,84.125 317.069,82.787 316.640 C 81.321 316.170,72.000 326.428,72.000 328.511 C 72.000 329.819,79.585 327.108,82.500 324.759 C 83.050 324.316,86.425 321.716,90.000 318.981 C 93.575 316.246,97.400 313.219,98.500 312.254 C 99.600 311.289,101.674 309.743,103.110 308.819 C 104.545 307.894,106.356 306.544,107.134 305.819 C 108.837 304.232,113.652 300.489,125.000 291.932 C 129.675 288.407,134.228 284.730,135.117 283.761 C 136.007 282.793,137.014 282.000,137.356 282.000 C 137.960 282.000,138.928 281.270,145.393 275.936 C 147.102 274.526,153.000 269.946,158.500 265.758 C 164.000 261.570,169.400 257.318,170.500 256.309 C 171.600 255.299,175.425 252.317,179.000 249.681 C 182.575 247.045,186.175 244.347,187.000 243.685 C 187.825 243.024,192.325 239.561,197.000 235.991 C 201.675 232.421,205.725 229.253,206.000 228.952 C 206.275 228.650,208.075 227.338,210.000 226.035 C 213.847 223.432,227.000 210.202,227.000 208.936 C 227.000 208.500,227.563 207.548,228.250 206.821 C 228.938 206.095,230.731 203.851,232.235 201.837 C 233.739 199.822,235.539 197.566,236.235 196.823 C 236.931 196.081,239.052 193.229,240.949 190.487 C 242.845 187.744,244.645 185.275,244.949 185.000 C 245.252 184.725,248.875 180.001,253.000 174.503 C 257.125 169.005,261.047 163.830,261.715 163.003 C 263.465 160.838,268.202 154.486,273.649 147.000 C 276.251 143.425,278.653 140.275,278.988 140.000 C 279.323 139.725,280.678 137.925,282.000 136.000 C 283.322 134.075,284.680 132.275,285.018 132.000 C 285.355 131.725,287.935 128.350,290.751 124.500 C 293.566 120.650,296.994 116.150,298.368 114.500 C 302.462 109.584,308.000 102.028,308.000 101.359 C 308.000 101.015,308.823 100.007,309.829 99.117 C 311.932 97.258,320.897 83.955,323.050 79.500 C 323.848 77.850,325.288 75.912,326.250 75.193 C 327.983 73.899,328.695 70.952,327.250 71.051 C 326.837 71.080,324.475 72.650,322.000 74.540 M71.000 73.028 C 71.000 74.415,86.526 90.000,87.908 90.000 C 90.459 90.000,88.509 87.224,80.776 79.846 C 72.718 72.158,71.000 70.960,71.000 73.028 M336.831 85.254 C 336.099 85.953,334.262 87.318,332.750 88.286 C 331.238 89.254,330.000 90.711,330.000 91.523 C 330.000 93.449,331.897 93.432,332.638 91.500 C 332.955 90.675,333.841 90.000,334.607 90.000 C 335.373 90.000,336.000 89.550,336.000 89.000 C 336.000 88.450,336.627 88.000,337.393 88.000 C 339.033 88.000,340.306 85.307,339.037 84.523 C 338.555 84.225,337.562 84.554,336.831 85.254 M60.000 86.633 C 60.000 87.511,64.117 91.000,65.153 91.000 C 65.619 91.000,66.000 91.675,66.000 92.500 C 66.000 93.333,66.889 94.000,68.000 94.000 C 70.542 94.000,70.605 92.327,68.092 91.529 C 67.043 91.196,65.932 90.266,65.624 89.462 C 65.315 88.658,64.374 88.000,63.531 88.000 C 62.689 88.000,62.000 87.550,62.000 87.000 C 62.000 86.450,61.550 86.000,61.000 86.000 C 60.450 86.000,60.000 86.285,60.000 86.633 M347.000 98.784 C 347.000 99.216,345.595 100.453,343.878 101.534 C 342.160 102.615,339.782 104.175,338.592 105.000 C 337.403 105.825,334.986 107.400,333.221 108.500 C 330.435 110.237,328.828 113.000,330.604 113.000 C 332.744 113.000,349.933 101.236,349.964 99.750 C 349.984 98.787,349.325 98.000,348.500 98.000 C 347.675 98.000,347.000 98.353,347.000 98.784 M49.000 100.893 C 49.000 101.712,50.386 102.556,52.250 102.873 C 52.663 102.943,53.832 103.787,54.850 104.750 C 57.775 107.517,60.970 110.000,61.607 110.000 C 61.928 110.000,63.524 110.949,65.153 112.109 C 67.982 114.123,69.844 114.175,68.627 112.205 C 66.640 108.990,49.000 98.823,49.000 100.893 M352.268 116.367 C 347.963 118.536,346.829 120.000,349.453 120.000 C 351.520 120.000,356.000 117.837,356.000 116.839 C 356.000 116.378,356.506 116.112,357.125 116.250 C 357.744 116.388,358.456 115.938,358.708 115.250 C 359.349 113.502,357.216 113.872,352.268 116.367 M40.002 115.750 C 40.006 116.822,50.939 122.394,51.648 121.685 C 52.468 120.866,49.447 118.000,47.763 118.000 C 47.003 118.000,45.509 117.339,44.441 116.532 C 42.349 114.949,39.999 114.535,40.002 115.750 M359.314 131.917 C 354.115 134.595,353.490 134.826,348.506 135.922 C 346.831 136.290,345.367 137.333,345.183 138.290 C 344.756 140.504,346.021 140.446,351.511 138.000 C 353.980 136.900,358.020 135.100,360.489 134.000 C 362.958 132.900,365.433 132.000,365.989 132.000 C 366.545 132.000,367.000 131.400,367.000 130.667 C 367.000 128.692,364.916 129.031,359.314 131.917 M32.000 131.831 C 32.000 132.820,34.717 134.166,41.500 136.535 C 44.250 137.495,46.950 138.606,47.500 139.003 C 48.050 139.400,49.737 140.020,51.250 140.381 C 54.866 141.245,54.878 139.284,51.265 137.911 C 49.761 137.339,47.173 136.274,45.515 135.545 C 36.344 131.512,32.000 130.318,32.000 131.831 M368.000 147.213 C 368.000 147.646,367.100 148.000,366.000 148.000 C 364.900 148.000,364.000 148.436,364.000 148.969 C 364.000 149.501,363.325 149.678,362.500 149.362 C 360.877 148.739,360.400 150.511,361.935 151.460 C 362.993 152.114,372.000 148.000,372.000 146.863 C 372.000 146.457,371.100 146.192,370.000 146.275 C 368.900 146.358,368.000 146.780,368.000 147.213 M27.000 149.147 C 27.000 149.800,27.282 150.051,27.627 149.706 C 27.972 149.361,29.827 149.736,31.749 150.540 C 35.616 152.155,39.417 152.483,38.580 151.129 C 38.094 150.344,36.348 149.835,29.250 148.412 C 27.928 148.147,27.000 148.450,27.000 149.147 M373.500 163.932 C 372.400 164.367,371.030 164.548,370.455 164.333 C 369.881 164.119,367.559 164.597,365.296 165.396 C 363.033 166.194,360.945 166.612,360.657 166.324 C 360.370 166.036,358.487 166.344,356.475 167.008 C 354.036 167.813,353.149 168.549,353.816 169.216 C 354.483 169.883,356.097 169.787,358.658 168.930 C 360.771 168.223,363.288 167.696,364.250 167.760 C 365.212 167.824,366.000 167.529,366.000 167.105 C 366.000 166.680,367.238 166.263,368.750 166.177 C 375.634 165.786,377.363 165.416,377.751 164.250 C 378.214 162.859,376.531 162.733,373.500 163.932 M22.000 164.874 C 22.000 166.358,23.459 167.025,28.753 167.960 C 31.364 168.421,36.132 169.324,39.348 169.968 C 44.852 171.069,47.173 170.839,45.676 169.343 C 45.315 168.982,43.102 168.356,40.760 167.952 C 34.659 166.902,25.795 165.059,23.750 164.416 C 22.788 164.113,22.000 164.319,22.000 164.874 M373.561 182.099 C 374.252 183.216,378.702 183.291,379.379 182.196 C 379.652 181.754,378.329 181.349,376.440 181.295 C 374.550 181.242,373.255 181.604,373.561 182.099 M20.000 182.939 C 20.000 183.522,21.294 184.000,22.875 184.000 C 24.456 184.000,27.269 184.255,29.125 184.567 C 31.452 184.957,32.034 184.840,31.000 184.191 C 28.608 182.688,20.000 181.708,20.000 182.939 M368.000 183.000 C 368.000 183.550,368.900 184.000,370.000 184.000 C 371.100 184.000,372.000 183.550,372.000 183.000 C 372.000 182.450,371.100 182.000,370.000 182.000 C 368.900 182.000,368.000 182.450,368.000 183.000 M19.000 201.000 C 19.000 201.611,23.667 202.000,31.000 202.000 C 38.333 202.000,43.000 201.611,43.000 201.000 C 43.000 200.389,38.333 200.000,31.000 200.000 C 23.667 200.000,19.000 200.389,19.000 201.000 M368.000 216.000 C 368.000 216.550,368.648 217.000,369.441 217.000 C 370.234 217.000,371.160 216.550,371.500 216.000 C 371.840 215.450,371.191 215.000,370.059 215.000 C 368.927 215.000,368.000 215.450,368.000 216.000 M27.269 217.010 C 24.941 217.351,22.691 218.001,22.269 218.456 C 21.467 219.317,30.969 218.364,31.838 217.496 C 32.795 216.538,31.461 216.397,27.269 217.010 M374.000 217.000 C 374.000 217.550,375.350 218.000,377.000 218.000 C 378.650 218.000,380.000 217.550,380.000 217.000 C 380.000 216.450,378.650 216.000,377.000 216.000 C 375.350 216.000,374.000 216.450,374.000 217.000 M354.000 229.873 C 354.000 230.472,355.125 231.195,356.500 231.481 C 357.875 231.766,360.238 232.290,361.750 232.643 C 364.535 233.295,370.051 234.095,373.250 234.311 C 374.212 234.375,375.000 234.782,375.000 235.214 C 375.000 235.646,375.675 236.000,376.500 236.000 C 377.325 236.000,378.000 235.165,378.000 234.144 C 378.000 232.640,377.289 232.315,374.250 232.433 C 372.188 232.513,368.831 232.025,366.792 231.349 C 364.752 230.672,362.277 230.154,361.292 230.198 C 360.306 230.243,358.262 229.942,356.750 229.531 C 354.975 229.048,354.000 229.170,354.000 229.873 M38.500 232.043 C 36.300 232.479,31.913 233.248,28.751 233.751 C 23.334 234.612,21.131 235.487,22.083 236.399 C 22.312 236.619,24.750 236.414,27.500 235.943 C 30.250 235.473,35.167 234.629,38.426 234.068 C 41.686 233.507,44.813 232.587,45.376 232.024 C 46.568 230.832,44.580 230.838,38.500 232.043 M362.000 249.050 C 362.000 249.756,362.282 250.051,362.627 249.707 C 362.972 249.362,364.524 249.737,366.077 250.540 C 369.420 252.269,373.000 252.451,373.000 250.893 C 373.000 250.284,372.325 250.045,371.500 250.362 C 370.675 250.678,370.000 250.576,370.000 250.135 C 370.000 249.694,369.438 249.276,368.750 249.207 C 368.063 249.137,366.262 248.785,364.750 248.424 C 362.837 247.967,362.000 248.158,362.000 249.050 M33.734 250.469 C 28.993 251.693,27.269 252.602,28.105 253.438 C 28.505 253.839,37.948 251.134,38.917 250.341 C 40.154 249.328,37.945 249.383,33.734 250.469 M346.000 260.394 C 346.000 261.348,347.599 262.350,350.250 263.059 C 352.587 263.684,354.996 264.601,355.601 265.097 C 356.207 265.592,357.862 266.094,359.279 266.211 C 360.696 266.328,361.651 266.756,361.400 267.162 C 360.843 268.063,364.279 270.000,366.434 270.000 C 370.660 270.000,366.351 265.294,361.284 264.375 C 359.934 264.130,356.955 263.082,354.665 262.046 C 347.986 259.024,346.000 258.645,346.000 260.394 M52.000 260.946 C 51.175 261.401,48.025 262.791,45.000 264.033 C 33.723 268.667,32.390 269.385,34.311 269.789 C 35.307 269.999,37.557 269.510,39.311 268.704 C 42.589 267.197,47.410 265.132,52.250 263.162 C 53.763 262.546,55.000 261.583,55.000 261.021 C 55.000 259.822,54.078 259.799,52.000 260.946 M349.000 279.477 C 349.000 280.932,356.135 285.000,358.688 285.000 C 361.638 285.000,359.723 282.234,356.000 281.118 C 353.800 280.459,352.000 279.488,352.000 278.960 C 352.000 278.432,351.325 278.000,350.500 278.000 C 349.675 278.000,349.000 278.664,349.000 279.477 M45.750 282.264 C 42.718 283.952,40.049 287.104,42.750 285.806 C 43.163 285.608,45.413 284.565,47.750 283.487 C 50.087 282.410,52.000 281.184,52.000 280.764 C 52.000 279.505,49.725 280.052,45.750 282.264 M331.216 287.149 C 331.427 287.780,335.177 290.771,339.550 293.795 C 343.922 296.819,347.650 299.677,347.833 300.146 C 348.277 301.283,350.735 301.238,351.450 300.081 C 351.932 299.302,332.974 286.000,331.382 286.000 C 331.080 286.000,331.006 286.517,331.216 287.149 M58.750 294.084 C 51.735 298.871,46.973 303.491,50.762 301.833 C 53.297 300.724,69.991 289.368,69.995 288.750 C 70.006 287.026,67.012 288.446,58.750 294.084 M330.000 306.571 C 330.000 307.675,332.769 309.898,333.381 309.286 C 333.721 308.945,334.004 309.304,334.008 310.083 C 334.015 311.461,338.925 314.408,339.783 313.550 C 340.368 312.965,335.837 308.518,333.239 307.128 C 330.894 305.873,330.000 305.719,330.000 306.571 M65.000 310.964 C 62.525 313.137,61.095 314.934,61.821 314.957 C 62.548 314.981,63.808 314.335,64.621 313.522 C 65.433 312.710,67.026 311.395,68.159 310.601 C 69.292 309.808,70.057 308.675,69.860 308.085 C 69.662 307.495,67.475 308.791,65.000 310.964 M311.594 310.847 C 311.306 311.313,312.546 313.001,314.349 314.597 C 316.153 316.194,317.627 317.725,317.626 318.000 C 317.621 318.958,326.996 328.000,327.994 328.000 C 330.236 328.000,328.631 325.644,321.191 318.011 C 313.273 309.889,312.530 309.334,311.594 310.847 M288.000 330.966 C 288.000 332.172,295.113 343.471,298.403 347.491 C 301.495 351.268,302.943 350.132,300.109 346.153 C 298.949 344.524,298.000 342.698,298.000 342.096 C 298.000 341.493,297.663 340.982,297.250 340.960 C 296.837 340.937,294.925 338.466,293.000 335.467 C 289.691 330.313,288.000 328.791,288.000 330.966 M309.381 333.433 C 310.822 335.322,312.000 337.347,312.000 337.933 C 312.000 338.520,312.904 339.000,314.008 339.000 C 316.344 339.000,315.338 336.619,311.205 332.364 C 307.719 328.774,306.412 329.541,309.381 333.433 M89.866 334.250 C 88.618 336.038,87.138 337.813,86.577 338.196 C 86.017 338.578,85.870 339.204,86.252 339.586 C 86.942 340.276,93.932 333.185,93.977 331.750 C 94.031 329.985,91.969 331.240,89.866 334.250 M106.026 339.962 C 100.283 348.503,99.078 351.019,100.750 350.984 C 101.413 350.970,112.982 334.061,113.833 331.861 C 115.272 328.144,110.974 332.603,106.026 339.962 M260.000 345.295 C 260.000 345.959,262.636 352.305,267.666 363.750 C 268.451 365.538,269.509 367.000,270.016 367.000 C 270.945 367.000,270.581 365.184,268.914 361.500 C 268.416 360.400,266.746 356.380,265.203 352.566 C 262.954 347.009,260.000 342.881,260.000 345.295 M137.596 350.250 C 136.613 352.587,135.016 356.300,134.048 358.500 C 131.625 364.006,130.748 368.000,131.962 368.000 C 132.512 368.000,133.258 366.762,133.619 365.250 C 133.980 363.738,134.593 362.050,134.981 361.500 C 135.738 360.426,141.000 347.304,141.000 346.489 C 141.000 344.598,139.084 346.715,137.596 350.250 M280.000 348.905 C 280.000 349.625,283.513 357.066,284.727 358.917 C 286.343 361.382,285.692 356.898,283.876 353.059 C 281.702 348.463,280.000 346.639,280.000 348.905 M118.184 352.886 C 116.983 355.024,116.020 357.611,116.044 358.636 C 116.072 359.819,116.853 359.037,118.179 356.500 C 119.329 354.300,120.659 352.350,121.135 352.167 C 122.233 351.744,122.275 349.000,121.184 349.000 C 120.735 349.000,119.385 350.749,118.184 352.886 M168.494 357.750 C 168.166 359.813,167.487 363.300,166.986 365.500 C 165.209 373.301,164.734 378.282,165.833 377.603 C 166.411 377.246,167.172 374.826,167.523 372.227 C 167.874 369.627,168.534 366.150,168.990 364.500 C 170.408 359.360,170.914 354.000,169.982 354.000 C 169.492 354.000,168.822 355.688,168.494 357.750 M231.580 359.000 C 231.968 362.025,232.670 365.542,233.142 366.815 C 233.614 368.088,234.007 370.563,234.015 372.315 C 234.030 375.443,235.453 378.897,236.345 377.971 C 236.594 377.712,236.414 375.250,235.943 372.500 C 235.473 369.750,234.629 364.833,234.068 361.574 C 232.698 353.619,230.616 351.465,231.580 359.000 M200.000 369.000 C 200.000 376.333,200.389 381.000,201.000 381.000 C 201.611 381.000,202.000 376.333,202.000 369.000 C 202.000 361.667,201.611 357.000,201.000 357.000 C 200.389 357.000,200.000 361.667,200.000 369.000 M249.520 363.250 C 251.206 369.049,252.476 372.000,253.284 372.000 C 253.770 372.000,253.930 371.438,253.640 370.750 C 253.350 370.063,252.584 367.587,251.938 365.250 C 251.292 362.913,250.336 361.000,249.814 361.000 C 249.292 361.000,249.160 362.012,249.520 363.250 M150.743 363.000 C 148.036 370.165,147.542 373.000,149.000 373.000 C 149.550 373.000,150.000 372.070,150.000 370.934 C 150.000 369.798,150.478 367.975,151.063 366.882 C 151.648 365.789,151.943 364.131,151.718 363.198 C 151.376 361.777,151.217 361.745,150.743 363.000 M183.606 370.132 C 182.270 376.578,181.995 380.000,182.815 380.000 C 183.313 380.000,183.986 377.428,184.310 374.283 C 184.915 368.426,184.485 365.893,183.606 370.132 M217.199 371.500 C 217.199 373.700,217.560 376.625,218.000 378.000 C 218.684 380.136,218.801 379.918,218.801 376.500 C 218.801 374.300,218.440 371.375,218.000 370.000 C 217.316 367.864,217.199 368.082,217.199 371.500 " stroke="none" fill-rule="evenodd"></path>
</g>
</svg>