<svg id="svg" xmlns="http://www.w3.org/2000/svg" xmlns:xlink="http://www.w3.org/1999/xlink" width="400" height="400" viewBox="0, 0, 400,400"><g id="svgg"><path id="path0" d="M316.848 133.632 C 261.270 165.004,242.398 212.279,265.806 261.500 L 268.897 268.000 297.448 268.000 L 326.000 268.000 326.000 198.667 C 326.000 143.625,325.828 129.341,325.167 129.370 C 324.708 129.391,320.965 131.309,316.848 133.632 M142.079 182.648 C 133.826 184.671,132.738 196.990,140.482 200.739 C 147.474 204.123,154.776 199.876,154.932 192.333 C 155.078 185.331,149.202 180.903,142.079 182.648 M342.667 224.857 L 342.667 268.000 369.405 268.000 C 390.598 268.000,396.076 267.826,395.821 267.162 C 395.269 265.723,344.565 183.721,343.590 182.690 C 342.803 181.858,342.667 188.071,342.667 224.857 M164.667 224.333 L 164.667 265.333 173.333 265.333 L 182.000 265.333 182.000 224.333 L 182.000 183.333 173.333 183.333 L 164.667 183.333 164.667 224.333 M23.333 206.195 C 3.196 210.824,-0.043 233.734,18.461 240.657 C 21.700 241.869,25.324 242.537,35.076 243.722 C 41.418 244.492,42.229 249.873,36.310 251.909 C 31.236 253.655,19.558 250.896,14.208 246.688 C 11.802 244.795,11.918 244.714,8.103 250.957 C 3.912 257.815,3.912 257.829,7.835 260.443 C 15.788 265.742,21.295 267.333,31.686 267.333 C 48.794 267.333,57.333 260.764,57.333 247.602 C 57.333 235.248,50.918 230.430,32.520 228.966 C 24.913 228.361,21.657 224.991,25.405 221.603 C 27.766 219.469,37.268 219.797,41.888 222.172 C 43.843 223.178,45.562 224.000,45.708 224.000 C 46.155 224.000,54.000 213.855,54.000 213.277 C 54.000 208.557,33.576 203.841,23.333 206.195 M208.000 206.224 C 196.562 208.944,191.105 214.785,191.117 224.294 C 191.129 234.888,198.370 241.096,212.663 242.766 C 223.490 244.031,226.813 245.975,224.412 249.640 C 221.465 254.137,209.502 253.160,200.400 247.679 C 198.237 246.376,196.312 245.466,196.122 245.656 C 195.931 245.846,194.178 248.617,192.226 251.813 L 188.675 257.623 190.504 259.120 C 209.057 274.302,240.949 268.362,241.899 249.547 C 242.595 235.775,236.239 230.482,217.187 228.966 C 209.580 228.361,206.323 224.991,210.072 221.603 C 212.424 219.477,221.944 219.813,226.478 222.183 C 228.391 223.182,230.082 224.000,230.236 224.000 C 230.887 224.000,238.179 214.435,238.253 213.483 C 238.635 208.554,218.511 203.725,208.000 206.224 M82.466 206.730 C 53.111 213.638,53.683 259.715,83.199 265.924 C 91.660 267.703,101.235 265.892,105.967 261.617 C 108.744 259.109,109.333 259.419,109.333 263.388 L 109.333 265.333 117.333 265.333 L 125.333 265.333 125.333 236.333 L 125.333 207.333 117.000 207.333 L 108.667 207.333 108.667 210.078 L 108.667 212.822 106.040 210.449 C 101.615 206.451,90.860 204.755,82.466 206.730 M136.000 236.000 L 136.000 265.333 145.000 265.333 L 154.000 265.333 154.000 236.000 L 154.000 206.667 145.000 206.667 L 136.000 206.667 136.000 236.000 M98.185 222.040 C 109.263 225.117,111.793 241.963,102.130 248.316 C 92.061 254.936,79.667 249.154,78.829 237.446 C 78.031 226.292,87.204 218.991,98.185 222.040 " stroke="none" fill="#000000" fill-rule="evenodd"></path></g></svg>