<?xml version="1.0" encoding="UTF-8" standalone="no"?>
<!DOCTYPE svg PUBLIC "-//W3C//DTD SVG 1.1//EN" "http://www.w3.org/Graphics/SVG/1.1/DTD/svg11.dtd">
<svg width="100%" height="100%" viewBox="0 0 515 515" version="1.1" xmlns="http://www.w3.org/2000/svg" xmlns:xlink="http://www.w3.org/1999/xlink" xml:space="preserve" xmlns:serif="http://www.serif.com/" style="fill-rule:evenodd;clip-rule:evenodd;stroke-linejoin:round;stroke-miterlimit:2;">
    <g id="svgg">
        <path id="path0" d="M118.401,76.839C119.147,78.049 115.668,77.668 114.259,77.855C112.511,78.087 110.723,78.212 109.049,78.766C102.614,80.898 96.177,83.099 90,85.892C72.43,93.835 55.247,108.419 47,126.13C38.571,144.232 32.163,161.612 33.455,181.668C33.903,188.637 34.824,195.585 36.102,202.45C36.592,205.082 40.876,212.893 39.886,215.944C39.233,217.957 36.64,218.662 35,220C31.896,222.532 28.396,224.634 25.655,227.555C21.022,232.492 16.949,237.942 13,243.441C2.623,257.89 1.32,272.476 0.536,290.213C0.096,300.181 -0.101,312.629 3.237,322.628C6.871,333.514 14.926,343.773 21.798,352.298C31.662,364.536 45.076,369.51 59,376C60.608,376.75 62.082,377.947 63.833,378.233C74.783,380.02 90.035,379.867 101.054,380.724C101.84,380.786 102.77,380.872 103.304,381.452C107.232,385.718 108.206,392.017 111.445,396.827C117.018,405.104 125.738,415.264 134.042,421C157.366,437.11 187.86,443.576 215.5,436C222.701,434.026 229.378,430.485 236.283,427.644C238.466,426.746 241.001,426.354 242.762,424.782C243.305,424.297 240.78,423.784 241.238,423.218C242.066,422.196 243.855,422.669 245,422.019C246.986,420.891 248.86,419.526 250.515,417.952C256.127,412.614 261.679,407.184 266.75,401.331C270.667,396.81 271.922,390.303 276.078,386.001C279.03,382.946 279.41,385.34 282,386.117C287.265,387.697 292.574,389.228 298,390.111C310.269,392.108 324.013,390.764 335.906,387.375C353.259,382.429 365.151,372.333 377.015,358.932C378.982,356.71 380.782,351.147 383.819,349.651C384.677,349.228 385.528,350.655 386.482,350.717C396.194,351.351 414.134,352.467 423.633,350.25C431.617,348.387 440.042,346.786 447.642,343.462C471.677,332.951 491.71,313.877 504,290.933C513.143,273.864 514.419,258.299 514.584,238.677C514.658,229.847 514.47,220.978 513.389,212.214C512.067,201.501 507.977,194.323 503,185C495.525,170.998 486.322,158.919 473.697,148.5C464.578,140.974 454.346,135.689 443.357,131.5C440.893,130.561 437.995,130.947 435.641,129.759C435.069,129.47 436.931,128.438 436.45,128.015C435.537,127.212 434.189,129.454 433,129.2C415.668,125.499 401.08,122.224 383.191,125.829C378.074,126.86 373.216,128.906 368.24,130.482C366.171,131.138 361.953,133.101 359.695,131.832C358.377,131.09 352.85,122.492 351.928,121.544C346.297,115.751 331.057,102.082 324,97.902C304.274,86.217 277.202,83.624 255.258,89.65C252.354,90.447 250.049,92.72 247.25,93.832C239.929,96.741 239.322,95.036 232.624,99.351C226.586,103.241 221.65,108.687 215.61,112.574C213.259,114.087 213.011,111.392 212,110.422C206.498,105.144 201.359,99.364 195.107,95C185.464,88.269 172.947,82.346 161.234,79.211C148.973,75.928 135.8,75.727 123.2,74.757C121.461,74.623 117.482,75.357 118.401,76.839M173,237C174.12,247.608 175.279,258.58 173,269C172.501,271.279 166.254,271.32 166,269C163.68,247.793 163.68,226.207 166,205C166.254,202.68 172.501,202.721 173,205C175.279,215.42 174.12,226.392 173,237M305.607,206.582C305.3,207.383 305.656,208.529 305,209.082C302.087,211.538 297.73,209.24 294.654,211.131C291.554,213.037 289.022,218.29 289.069,221.878C289.145,227.726 299.984,220.127 300,226.496C300.015,232.414 291.356,226.396 289.111,230.023C286.94,233.53 286.955,237.987 286,242C283.025,254.502 283.787,271.022 276.719,282.06C273.167,287.607 265.763,291.605 259.227,288.355C257.793,287.642 256.848,285.431 258.889,284.42C265.148,281.319 270.476,283.534 273.031,275.144C276.205,264.719 276.975,253.708 279,243C279.521,240.245 280.838,237.622 280.965,234.821C281.283,227.815 274.038,231.262 273.364,226.58C272.726,222.152 280.056,225.211 281.35,223.594C282.927,221.623 282.983,218.81 284,216.5C286.169,211.575 289.518,206.712 295.124,205.329C296.407,205.013 302.207,204.892 303.659,205.021C304.172,205.066 306.087,205.332 305.607,206.582M102,224.93C102,225.708 103.993,226.085 104.25,226.18C105.902,226.793 108.697,228.207 106.223,230.283C103.372,232.676 100.698,229.702 98.112,229.158C96.115,228.737 92.3,228.6 90.352,229.015C88.139,229.486 85.144,230.767 84.945,233.487C84.764,235.969 85.223,237.997 87.041,239.817C88.422,241.201 89.814,240.447 91.392,241.294C91.964,241.601 92.132,242.462 92.734,242.706C93.839,243.154 95.158,242.829 96.266,243.27C96.959,243.546 97.251,244.449 97.923,244.774C99.637,245.601 101.607,245.817 103.308,246.671C107.989,249.022 109.876,254.495 108.548,259.373C107.974,261.48 106.572,263.561 105.039,265.078L101.078,269L92.039,269C90.288,269 88.51,269.217 86.786,268.906C84.583,268.51 82.435,267.723 80.441,266.706C79.601,266.278 80.311,265.629 79.412,265.294C78.517,264.96 77.46,265.145 76.605,264.72C74.174,263.512 78.833,260.276 79.054,260.179C79.43,260.015 80.664,261.606 80.738,261.636C82.957,262.514 85.226,263.333 87.573,263.769C91.621,264.521 95.419,263.996 99.293,262.75C102.205,261.813 102.511,258.473 102.124,255.95C101.593,252.491 98.135,251.543 95.51,250.308C91.386,248.368 87.654,247.429 83.5,245.566C82.625,245.173 81.571,245.165 80.782,244.62C79.799,243.942 80.104,242.46 79.706,241.574C79.349,240.778 78.365,240.524 78.294,239.531C77.956,234.814 77.709,234.715 79.706,230.444C80.061,229.685 79.844,228.151 80.664,227.552C81.735,226.77 83.052,226.394 84.266,225.858C85.613,225.263 86.901,224.452 88.345,224.162C90.604,223.707 97.49,224.19 99.503,224.273C99.521,224.274 102,224.06 102,224.93M143,224.889C143,225.947 144.891,225.843 145.873,226.237C146.967,226.675 148.223,226.75 149.218,227.38C150.359,228.102 149.74,229.497 150.294,230.426C150.622,230.977 151.461,231.141 151.706,231.734C152.162,232.837 152.017,234.105 152.294,235.266C153.741,241.326 154,244.831 154,251.5L154,267L150.5,267C148.402,267 146.156,268.494 144.125,268.726C141.598,269.015 139.043,268.953 136.5,269C132.725,269.07 129.7,269.104 126,268C125.539,267.862 125.345,267.286 124.958,267C120.601,263.784 116.255,261.089 117.894,254.753C118.486,252.464 119.461,250.278 120.513,248.16C122.608,243.944 125.571,244.111 129.26,242.706C132.54,241.458 134.797,241.066 138.5,241C140.993,240.955 149.03,241.994 146.706,236.734C146.359,235.949 145.748,236.239 145.294,235.559C144.164,233.872 144.171,232.368 142.5,231C139.168,228.273 132.474,227.487 128.595,229.338C128.021,229.611 127.856,230.469 127.266,230.706C126.159,231.152 124.828,230.817 123.734,231.294C122.991,231.618 122.711,232.61 122,233C121.345,233.36 121.038,231.737 121.034,231.697C120.957,230.969 120.943,230.23 121,229.5C121.076,228.526 120.894,227.418 121.429,226.6C121.721,226.153 124.94,225.801 125.266,225.706C129.871,224.364 129.747,224.011 134.5,224C136.503,223.995 138.502,224.185 140.503,224.261C141.361,224.294 143,224.031 143,224.889M210,225C210,225.89 211.162,225.833 211.617,226C212.728,226.407 213.96,226.622 214.907,227.331C218.932,230.346 221.302,236.217 221.709,241.067L222.29,248L191,248L191,251.5C191,254.205 191.597,254.231 193,256.045C193.794,257.072 194.336,258.305 195.259,259.217C199.422,263.326 202.739,263.883 208.37,263.976C209.911,264.001 211.464,264.005 212.989,263.78C214.867,263.504 216.352,260.889 218.417,262.438C219.335,263.127 218.748,263.741 219.294,264.559C219.93,265.514 220.706,264.782 221,266C221.175,266.724 219.73,266.848 219,267C216.822,267.453 216.951,268.455 214.25,268.725C208.487,269.301 201.512,269.844 196.413,267.294C195.537,266.856 194.464,267.142 193.588,266.712C192.973,266.411 192.841,265.512 192.266,265.142C191.283,264.51 189.521,264.312 188.664,263.448C187.56,262.336 188.331,261.745 187.71,260.556C187.135,259.455 186.587,259.958 186.126,258.825C185.142,256.408 183.741,253.181 183.256,250.678C182.915,248.917 182.915,246.083 183.255,244.322C183.542,242.842 184.159,243.225 184.63,241.704C186.38,236.056 186.98,229.454 193.276,226.455C194.25,225.991 195.463,226.196 196.424,225.706C199.332,224.223 199.299,224 203.5,224C205.045,224 206.598,224.054 208.125,224.289C208.786,224.39 210,224.332 210,225M257,224.892C257,227.537 262.693,225.581 262.185,229.094C261.811,231.684 257.307,230.994 256.028,230.706C254.326,230.323 254.717,229.505 252.957,229.151C249.086,228.372 239.459,227.712 238.869,233.578C238.296,239.276 241.736,239.177 246.245,241.294C247.128,241.708 246.58,242.171 247.441,242.706C248.236,243.201 249.145,243.484 250,243.869C255.895,246.522 259.026,246.712 262.711,251.233C265.328,254.444 264.362,261.972 260.889,264.3C260.309,264.689 259.46,264.565 258.914,265C258.275,265.509 258.126,266.476 257.5,267C256.4,267.922 253.84,268.54 252.519,268.719C248.502,269.264 242.782,269.891 238.809,268.674C238.183,268.482 238.006,267.57 237.413,267.294C236.541,266.887 235.488,267.044 234.588,266.706C234.289,266.594 233.75,265.489 233.559,265.294C232.956,264.676 231.852,264.402 231.627,263.568C231.6,263.467 232.428,260.445 233.559,260.612C234.08,260.689 234.229,261.489 234.717,261.685C240.227,263.9 246.232,264.284 252.048,263.54C254.146,263.272 255.625,262.908 256.743,260.931C258.622,257.611 256.123,253.121 253.091,251.414C250.103,249.731 249.706,251.077 246.616,249.706C246.021,249.442 245.869,248.539 245.266,248.294C244.161,247.844 242.842,248.162 241.734,247.719C241.013,247.431 240.668,246.551 239.986,246.181C239.239,245.775 238.301,245.833 237.546,245.443C233.863,243.543 233.263,239.648 232.849,235.846C232.618,233.718 232.631,229.523 234.428,227.751C235.528,226.667 236.418,227.267 237.653,226.559C238.071,226.32 238.193,225.685 238.638,225.5C241.966,224.119 244.519,223.994 248.062,223.938C250.115,223.906 252.169,223.993 254.222,224.046C254.326,224.049 257,223.888 257,224.892M330,224.875C330,225.894 332.804,226.263 333.058,226.362C334.511,226.931 335.987,227.483 337.325,228.285C338.459,228.964 340.834,234.244 341.03,234.844C341.745,237.03 341.783,239.388 342.36,241.614C343.114,244.528 344.187,244.26 344,247.5C343.797,251.012 342.447,255.694 340.874,258.825C340.52,259.529 339.681,259.897 339.29,260.582C338.74,261.548 339.35,262.782 338.355,263.613C332.661,268.366 324.124,269.409 317.125,268.717C315.359,268.542 315.316,267.909 313.929,267C312.308,265.938 309.377,264.524 307.861,262.877C305.591,260.409 305.695,257.27 304.702,254.264C303.091,249.389 302.408,249.417 303.253,243.037C303.594,240.463 304.46,237.977 305.303,235.521C306.49,232.065 307.788,229.558 310.99,227.537C315.015,224.997 318.837,224.278 323.5,224C325.03,223.909 326.561,224.165 328.091,224.257C328.177,224.262 330,224.188 330,224.875M361,225.632C361,227.072 363.727,226.875 365.164,226.782C369.109,226.528 370.59,223.437 374.681,223.885C375.737,224.001 378.594,224.397 379,226.071C379.604,228.561 376.719,230.279 374.831,230.694C370.662,231.61 366.604,230.645 363.587,234.516C362.615,235.764 363.436,236.021 362.706,237.432C360.333,242.019 361,248.417 361,253.5L361,269L354,269L354,224L357.5,224C360.07,224 361,224.434 361,225.632M415.237,225.212C415.386,225.659 415.635,230.887 413.883,231C413.439,231.029 413.382,230.227 413,230C412.392,229.638 411.701,229.386 411,229.286C406.119,228.589 399.141,228.383 395.46,232.429C394.827,233.125 394.541,234.075 394,234.845C392.697,236.697 392.046,236.413 391.792,238.872C391.247,244.167 390.06,252.796 393.103,257.625C395.073,260.752 398.988,262.59 402.418,263.487C403.748,263.835 405.102,264.148 406.474,264.229C408.005,264.318 409.586,264.386 411.068,263.994C412.255,263.679 413.618,260.856 414.985,262.825C416.934,265.632 415.168,267.919 412.135,268.448C407.181,269.313 401.76,270.16 396.809,268.641C395.862,268.351 396.387,267.736 395.57,267.294C394.619,266.78 393.43,266.738 392.551,266.11C385.602,261.142 384.699,253.925 384.5,245.998C384.408,242.346 383.962,237.708 385.75,234.249C388.088,229.725 392.538,226.991 397,224.892C401.552,222.751 407.571,223.988 412.186,224.356C412.697,224.397 414.909,224.228 415.237,225.212M451.362,225.5C451.996,227.156 454.239,226.812 455.381,227.989C456.645,229.292 457.909,231.801 458.447,233.468C458.87,234.778 458.584,236.331 459.294,237.511C460.678,239.814 461,239.692 461,243L461,248L430,248L430,251.5C430,254.425 430.864,254.133 432,256.347C434.766,261.739 439.532,264.068 445.612,263.977C447.296,263.951 448.986,263.871 450.654,263.632C453.245,263.26 455.539,260.964 457.443,263.525C458.05,264.342 458.567,265.248 458.892,266.212C459.193,267.107 456.792,267.06 456.441,267.294C453.19,269.461 449.88,269 445.5,269C442.957,269 440.407,268.967 437.875,268.726C432.27,268.192 427.642,262.415 425,258.071C424.591,257.399 423.532,256.804 423.294,255.972C422.838,254.376 423.162,252.624 422.706,251.028C422.379,249.884 421.742,250.386 421.294,249.266C420.174,246.465 422.211,245.905 422.706,243.678C423.168,241.601 422.832,239.399 423.294,237.322C423.632,235.798 424.21,236.224 425,234.958C426.88,231.946 428.407,229.328 431.389,227.113C432.836,226.039 433.103,226.716 434.573,225.706C435.974,224.743 435.726,224.328 437.461,224.095C440.21,223.725 445.823,223.932 448.52,224.433C449.515,224.617 450.999,224.555 451.362,225.5M198,230C198,231.098 196.393,231.054 195.752,231.42C195.271,231.695 194.821,232.037 194.429,232.429C193.435,233.423 193.537,234.795 192.706,235.685C192.53,235.874 192.187,235.822 192,236C190.996,236.955 191,238.127 191,239.5L191,243L215.256,243L214.581,238.75C214.259,236.718 214.056,235.692 212.953,234.167C212.77,233.914 212.429,233.789 212.28,233.515C211.959,232.925 212.105,231.932 211.559,231.416C210.873,230.768 210.175,231.196 209.441,230.706C208.361,229.987 208.682,229.45 207.384,229.294C204.141,228.902 202.859,228.902 199.616,229.294C199.032,229.364 198,229.412 198,230M318,230C318,231.441 315.338,231.151 314.757,231.699C314.074,232.344 313.62,233.253 313.399,234.165C312.507,237.83 312.5,242.844 312.5,246.597L312.5,258.838L315.5,261.418C319.827,265.139 329.942,265.014 333.422,259.98C334.243,258.792 333.427,258.477 334.294,257.315C334.448,257.108 334.879,257.228 335,257C336.389,254.381 336,250.225 336,247.5C336,243.544 336.184,241.885 335,238C334.911,237.707 334.402,237.699 334.294,237.413C333.953,236.513 334.043,235.488 333.706,234.588C333.558,234.192 332.497,233.867 332.294,233.559C331.798,232.809 332.244,232.125 331.559,231.441C330.88,230.761 330.185,231.197 329.441,230.706C329.209,230.554 329.247,230.127 329,230C327.043,228.994 325.648,228.937 323.5,229C322.202,229.038 320.908,229.171 319.616,229.294C319.435,229.311 318,229.386 318,230M437,230C437,231.468 433.98,230.586 433.38,231.782C432.151,234.233 432.824,234.446 431.709,236.972C430.928,238.741 430,238.347 430,240.5L430,243L454,243L454,239.5C454,237.901 454.024,237.117 453.108,236C452.876,235.717 452.484,235.578 452.294,235.266C451.706,234.297 451.47,232.466 450.613,231.645C449.542,230.618 448.735,231.288 447.582,230.706C446.44,230.13 446.846,229.468 445.531,229.294C442.582,228.902 441.418,228.902 438.469,229.294C437.93,229.365 437,229.457 437,230M130,247C130,247.722 129.002,247.941 128.565,248.053C126.726,248.529 126.492,248.177 125.331,249.646C123.257,252.271 123.485,256.667 125.033,259.461C127.89,264.617 135.632,264.373 140.63,264.034C141.97,263.943 144.133,263.521 145.25,262.608C147.074,261.117 147.089,257.104 147.08,255.192C147.073,253.922 147.217,248.886 145.571,247.429C144.569,246.542 142.319,246.263 141.172,246.158C139.838,246.036 138.497,245.979 137.158,245.977C135.504,245.974 133.85,246.061 132.198,246.145C131.861,246.162 130,246.106 130,247"/>
    </g>
</svg>
