<svg width="100%" height="100%" viewBox="0 0 400 400" version="1.1" xmlns="http://www.w3.org/2000/svg" style="fill-rule:evenodd;clip-rule:evenodd;stroke-linejoin:round;stroke-miterlimit:2;">
    <g>
        <path d="M291.4,2.305C290.74,2.645 290.14,3.076 290.067,3.262C289.993,3.448 289.601,3.6 289.196,3.6C288.79,3.6 288.104,4.05 287.671,4.6C287.239,5.15 286.606,5.6 286.266,5.6C285.926,5.6 234.174,35.25 233.761,35.8C233.348,36.35 232.817,36.8 232.58,36.8C232.344,36.8 231.404,37.161 230.492,37.601C228.646,38.493 180.871,10.75 180,10.2C179.129,9.65 178.142,9.2 177.808,9.2C177.474,9.2 177.2,9.02 177.2,8.8C177.2,7.413 171.742,9.131 169.18,11.325C168.746,11.696 168.117,12 167.783,12C167.448,12 167.071,12.27 166.945,12.6C166.818,12.93 166.384,13.2 165.981,13.2C165.577,13.2 15.406,100.4 15.066,100.4C14.726,100.4 14.336,100.58 14.2,100.8C14.064,101.02 13.623,101.2 13.219,101.2C11.983,101.2 12,99.854 12,196.963L12,291.461L12.926,292.33C13.435,292.809 170.52,383.34 171.4,383.99C173.575,385.598 176.846,385.686 179.2,384.2C180.071,383.65 180.925,383.2 181.096,383.2C181.268,383.2 181.893,382.75 182.487,382.2C183.08,381.65 334.8,294.504 334.8,294.325C334.8,294.146 335.124,294 335.521,294C335.917,294 336.997,293.207 337.921,292.238L339.6,290.476L339.6,242.025C339.6,215.586 339.197,193.42 338.979,193.337C338.243,193.054 339.535,191.6 340.521,191.6C340.826,191.6 341.402,191.24 341.8,190.8C342.198,190.36 386.652,164.783 387.13,164.274L388,163.348L388,56.493L386.421,55.147C383.706,52.831 293.568,1.185 291.4,2.305M295.424,20.587C298.108,22.617 356.418,55.43 360.8,58.172C361.747,58.765 363.912,59.361 363.362,60.334C362.4,62.036 359.91,62.177 358.244,63.2C351.319,67.452 344.12,71.444 337.033,75.564C327.746,80.963 318.271,86.103 309.027,91.6C305.539,93.674 298.197,99.827 294.44,100.151C292.289,100.336 289.975,98.462 288.229,97.372C283.388,94.349 278.31,91.442 273.313,88.7C257.371,79.952 240.924,71.075 225.551,61.369L223.918,60.338L224.853,59.343C228.699,55.25 235.997,53.009 240.8,50C252.759,42.508 285.868,24.151 290,21.6C291.493,20.678 293.767,19.336 295.424,20.587M176.4,26.4C176.4,27.243 177.901,27.174 178.617,27.619C181.323,29.3 199.985,40.185 206.526,44C208.552,45.182 211.631,45.293 212.696,47.383C213.024,48.026 210.824,49.004 210.462,49.2C207.179,50.979 204.036,53.316 200.715,54.967L199.8,55.423L199.695,69.686C199.659,74.534 199.334,79.384 198.795,84.202C198.642,85.573 190.328,89.246 189.003,89.997C184.161,92.741 179.402,95.598 174.599,98.4C171.089,100.448 165.571,102.433 163.195,106.013C161.761,108.172 164.001,109.313 165.407,110.247C169.543,112.994 174.249,115.179 178.603,117.603C197.833,128.31 217.424,139.267 236.075,151.047L237.734,152.095L235.967,152.899C220.572,159.899 205.74,169.995 191.1,178.576C187.542,180.661 180.242,186.805 176.315,187.131C173.366,187.375 170.931,184.996 168.666,183.6C162.854,180.017 156.633,176.669 150.778,173.2C131.21,161.607 111.235,150.107 91.262,139.2C77.179,131.509 63.238,123.235 49.5,115.024C45.891,112.867 42.191,110.879 38.539,108.8C38.097,108.549 35.434,106.762 35.69,106.4C36.5,105.256 40.993,103.579 42.6,102.777C49.312,99.428 169.267,28.633 173.934,26.724C174.701,26.41 176.4,25.571 176.4,26.4M372.4,114.6C372.4,128.135 373.065,141.725 371.795,155.2C371.724,155.955 364.513,159.355 363.262,160C354.344,164.594 345.98,170.22 337.16,175.067C328.721,179.705 320.645,184.983 312.203,189.597C309.793,190.914 307.442,192.327 305.04,193.643C303.999,194.213 301.942,196.382 301.838,195.2C301.349,189.646 301.592,119.548 302.139,114C302.222,113.16 311.503,108.678 312.4,108.135C323.611,101.352 335.106,94.392 346.738,88.4C352.648,85.356 358.165,81.58 364,78.4C365.502,77.581 366.89,76.55 368.379,75.735C369.219,75.275 370.124,74.949 371,74.563C371.431,74.373 372.284,73.538 372.3,74.009C372.773,87.531 372.4,101.07 372.4,114.6M217,74.8C217.917,76.284 222.681,77.797 224.121,78.581C228.186,80.795 232.17,83.293 236.199,85.6C252.312,94.824 268.113,105.894 284.917,113.7L285.994,114.2L285.997,154.7C285.998,168.2 286.539,181.721 285.777,195.2C285.735,195.948 284.443,194.514 283.763,194.2C281.235,193.032 278.99,191.795 276.539,190.4C273.34,188.579 270.209,186.613 266.997,184.797C265.35,183.866 262.774,183.434 262.306,181.6C259.539,170.746 262.203,158.626 260.472,147.674C259.999,144.682 252.875,142.528 250.639,141C240.245,133.898 227.936,126.727 216.683,121.5L215.606,121L215.603,97.7C215.6,74.019 215.682,72.668 217,74.8M199.6,106.68C199.6,107.988 199.57,109.296 199.5,110.602C199.486,110.865 199.511,111.345 199.248,111.351C198.987,111.358 198.823,111.041 198.582,110.941C198.301,110.824 197.69,110.805 197.417,110.624C196.948,110.314 197.174,110.126 196.742,109.776C196.424,109.519 195.96,109.515 195.609,109.306C194.924,108.896 194.357,108.307 193.674,107.894C193.08,107.534 192.467,107.57 192,107C191.884,106.859 191.663,106.674 191.749,106.513C191.841,106.341 192.135,106.455 192.322,106.4C192.598,106.319 192.888,106.258 193.132,106.106C193.934,105.607 193.912,105.231 194.666,104.694C195.188,104.322 195.266,104.549 195.844,104.283C196.277,104.082 196.138,103.903 196.586,103.718C196.769,103.642 196.979,103.659 197.168,103.6C197.98,103.345 198.012,103.27 198.639,102.6C198.939,102.28 199.394,101.173 199.495,101.6C199.883,103.249 199.6,104.986 199.6,106.68M29.6,121.717C65.386,141.423 100.301,162.75 135.464,183.2C143.169,187.681 150.961,191.993 158.753,196.325C162.144,198.21 162.182,197.919 165.271,200.2C165.767,200.567 166.811,200.583 166.829,201.2C167.596,228.124 167.601,255.065 167.6,282C167.599,308.935 167.427,335.872 166.824,362.8C166.822,362.883 164.989,362.034 164.934,362C163.675,361.224 129.06,340.91 118.9,334.976C88.699,317.337 57.566,301.053 28.083,282.6L26.805,281.8L26.803,201.113C26.8,110.783 26.475,119.995 29.6,121.717M246.685,248.329C247.002,248.525 247.21,250.078 247.285,252.814L247.4,257L249.013,257.119C253.162,257.422 260.005,250.969 263.413,248.8C275.675,240.997 288.248,233.658 300.605,226C305.699,222.843 310.695,219.526 315.832,216.4C316.758,215.837 323.337,211.207 323.392,211.6C324.307,218.149 323.956,270.662 323.814,278.718C323.79,280.039 323.74,281.389 323.366,282.656C322.9,284.235 315.095,287.242 313.619,288C303.628,293.13 183.2,363.654 183.2,363.654L183.2,282.427C183.2,223.757 179.409,209.173 193.713,195.7C203.409,186.567 217.347,182.736 228.563,175.6C232.539,173.07 236.591,170.568 240.797,168.3C242.085,167.605 243.38,167.026 244.629,166.228C244.993,165.995 245.681,165.06 245.696,165.492C245.725,166.346 246.151,248 246.685,248.329M264.3,201.536C266.389,202.538 268.112,204.212 270.208,205.2C270.584,205.377 273.725,206.577 274.117,206.8C275.055,207.334 275.731,208.257 276.664,208.8C278.384,209.8 280.282,210.448 281.986,211.5C283.414,212.381 285.936,213.82 287.164,215.132C287.306,215.284 287.339,215.598 287.204,215.757C286.79,216.243 285.993,216.163 285.4,216.4C284.091,216.923 284.173,216.991 283.037,217.8C279.196,220.536 275.004,222.854 270.971,225.372C268.984,226.613 267.23,227.783 265.236,229.1C264.683,229.465 264.038,229.671 263.462,230C263.101,230.206 262.474,231.113 262.432,230.7C261.927,225.79 262.069,220.833 262.012,215.897C261.954,210.872 260.373,205.449 262.341,200.826C262.613,200.186 263.674,201.235 264.3,201.536"/>
    </g>
</svg>
