<svg version="1.1" width="515" height="515" xmlns="http://www.w3.org/2000/svg"><g><path d="M99.000 228.200 C 99.000 237.280,99.377 243.982,99.858 243.450 C 104.411 238.407,111.049 228.571,110.633 227.486 C 109.982 225.790,99.997 212.000,99.420 212.000 C 99.189 212.000,99.000 219.290,99.000 228.200 M22.270 221.703 C 16.647 222.789,15.933 225.651,16.229 245.912 L 16.500 264.500 47.415 264.765 C 82.617 265.066,81.227 264.727,80.795 272.910 L 80.500 278.500 48.250 278.764 L 16.000 279.028 16.000 286.514 L 16.000 294.000 51.435 294.000 C 98.331 294.000,96.257 295.086,95.786 270.770 C 95.503 256.173,95.475 256.015,92.729 253.270 L 89.958 250.500 60.581 250.195 C 27.725 249.854,30.051 250.426,30.014 242.684 C 29.980 235.721,28.558 236.000,64.035 236.000 L 96.000 236.000 96.000 228.500 L 96.000 221.000 60.250 221.136 C 40.587 221.211,23.496 221.466,22.270 221.703 M124.026 222.306 C 118.152 224.325,118.031 225.109,118.015 261.250 L 118.000 294.000 125.500 294.000 L 133.000 294.000 133.000 279.500 L 133.000 265.000 158.000 265.000 L 183.000 265.000 183.000 279.500 L 183.000 294.000 190.500 294.000 L 198.000 294.000 197.985 261.750 C 197.969 226.265,197.884 225.709,191.986 222.752 C 187.630 220.567,130.184 220.191,124.026 222.306 M224.772 221.714 C 218.164 222.718,218.000 223.661,218.000 260.635 L 218.000 294.000 225.485 294.000 L 232.969 294.000 233.235 265.250 L 233.500 236.500 245.000 236.210 C 251.325 236.050,257.512 236.171,258.750 236.479 L 261.000 237.038 261.000 265.519 L 261.000 294.000 268.500 294.000 L 276.000 294.000 276.000 266.200 C 276.000 233.137,274.625 236.000,290.500 236.000 C 306.375 236.000,305.000 233.137,305.000 266.200 L 305.000 294.000 312.539 294.000 L 320.078 294.000 319.789 261.018 L 319.500 228.036 316.233 224.768 L 312.966 221.500 292.626 221.178 C 275.879 220.913,272.031 221.112,270.837 222.306 C 269.600 223.543,269.110 223.554,267.502 222.378 C 265.690 221.053,232.515 220.538,224.772 221.714 M338.000 257.500 L 338.000 294.000 374.484 294.000 L 410.968 294.000 414.234 291.085 L 417.500 288.169 417.828 274.532 C 418.064 264.752,417.807 260.473,416.921 259.405 C 415.985 258.277,415.966 257.634,416.842 256.758 C 419.053 254.547,418.358 230.316,415.973 226.456 C 412.745 221.233,410.900 221.000,372.851 221.000 L 338.000 221.000 338.000 257.500 M441.263 222.116 C 435.211 223.864,435.000 225.187,435.000 261.450 L 435.000 294.000 442.500 294.000 L 450.000 294.000 450.000 279.500 L 450.000 265.000 475.000 265.000 L 500.000 265.000 500.000 279.500 L 500.000 294.000 507.500 294.000 L 515.000 294.000 515.000 261.223 C 515.000 224.874,515.051 225.173,508.401 222.394 C 504.471 220.752,446.811 220.513,441.263 222.116 M181.418 236.607 C 182.632 237.073,183.000 238.700,183.000 243.607 L 183.000 250.000 158.000 250.000 L 133.000 250.000 133.000 243.583 C 133.000 239.386,133.432 236.992,134.250 236.662 C 136.053 235.935,179.533 235.884,181.418 236.607 M401.933 237.419 C 402.611 238.236,402.981 241.098,402.805 244.169 L 402.500 249.500 377.750 249.767 L 353.000 250.035 353.000 243.017 L 353.000 236.000 376.878 236.000 C 396.275 236.000,400.976 236.266,401.933 237.419 M498.418 236.607 C 499.632 237.073,500.000 238.700,500.000 243.607 L 500.000 250.000 475.000 250.000 L 450.000 250.000 450.000 243.583 C 450.000 239.386,450.432 236.992,451.250 236.662 C 453.053 235.935,496.533 235.884,498.418 236.607 M401.805 265.858 C 402.699 266.425,403.013 268.544,402.805 272.593 L 402.500 278.500 377.750 278.767 L 353.000 279.035 353.000 272.017 L 353.000 265.000 376.750 265.015 C 389.813 265.024,401.087 265.403,401.805 265.858 M6.160 278.433 L -0.179 287.000 6.160 295.567 L 12.500 304.133 12.789 295.567 C 12.948 290.855,12.948 283.145,12.789 278.433 L 12.500 269.867 6.160 278.433 " stroke="none" fill-rule="evenodd"></path></g></svg>