<svg version="1.1" width="515" height="515" xmlns="http://www.w3.org/2000/svg"><g><path d="M449.000 129.000 C 449.000 200.797,449.197 205.253,452.128 199.750 C 452.787 198.512,453.855 197.050,454.501 196.500 C 455.601 195.563,458.282 192.072,470.239 176.000 C 472.899 172.425,476.517 167.731,478.280 165.569 C 480.043 163.408,483.235 159.133,485.373 156.069 C 487.510 153.006,489.568 150.275,489.944 150.000 C 490.321 149.725,493.271 145.900,496.500 141.500 C 499.730 137.100,502.964 132.905,503.686 132.179 C 505.678 130.175,502.766 124.642,496.318 118.179 C 495.593 117.452,495.000 116.471,495.000 116.000 C 495.000 115.529,494.407 114.548,493.683 113.821 C 492.959 113.095,489.278 108.225,485.502 103.000 C 481.727 97.775,477.032 91.419,475.069 88.875 C 473.106 86.331,470.743 83.181,469.818 81.875 C 462.975 72.213,457.672 64.999,455.293 62.113 C 453.757 60.251,452.140 58.113,451.700 57.363 C 449.245 53.178,449.000 59.688,449.000 129.000 M114.500 101.926 C 102.137 104.587,95.766 108.783,90.096 117.998 C 83.317 129.015,83.500 126.491,83.500 209.157 L 83.500 283.813 86.591 287.633 C 91.015 293.099,82.822 292.792,227.096 292.900 C 369.173 293.007,362.914 292.791,367.197 297.743 C 371.381 302.580,372.928 337.384,369.373 346.693 C 365.900 355.787,379.868 355.000,221.943 355.000 L 83.000 355.000 83.000 388.000 L 83.000 421.000 236.951 421.000 C 346.283 421.000,392.437 420.677,396.201 419.886 C 412.937 416.366,427.671 403.242,433.105 387.013 C 436.145 377.933,435.961 266.943,432.889 256.626 C 428.750 242.730,419.694 233.922,405.188 229.684 C 402.690 228.954,362.139 228.428,279.500 228.053 C 146.587 227.451,154.143 227.824,150.415 221.665 C 147.369 216.631,147.511 175.481,150.590 171.323 C 155.183 165.119,145.427 165.526,296.750 165.230 L 435.000 164.959 435.000 132.480 L 435.000 100.000 278.750 100.102 C 134.897 100.195,121.865 100.340,114.500 101.926 M64.146 320.925 C 62.301 323.632,60.033 326.668,59.106 327.673 C 58.179 328.678,54.856 332.977,51.720 337.227 C 48.585 341.477,45.357 345.752,44.548 346.727 C 43.738 347.702,40.896 351.425,38.232 355.000 C 30.358 365.564,21.493 377.181,17.628 382.000 C 13.307 387.388,13.417 390.968,18.025 395.000 C 18.340 395.275,22.166 400.450,26.529 406.500 C 30.891 412.550,34.919 418.007,35.480 418.627 C 36.041 419.248,37.175 420.773,38.000 422.016 C 38.825 423.260,41.104 426.353,43.063 428.889 C 45.023 431.425,49.151 437.100,52.237 441.500 C 55.322 445.900,58.721 450.428,59.788 451.563 C 60.856 452.698,62.275 454.646,62.942 455.892 C 64.533 458.864,67.244 462.000,68.222 462.000 C 68.650 462.000,69.000 429.150,69.000 389.000 C 69.000 348.850,68.662 316.001,68.250 316.002 C 67.838 316.003,65.991 318.218,64.146 320.925 " stroke="none" fill-rule="evenodd"></path></g></svg>