<svg version="1.1" width="400" height="400" xmlns="http://www.w3.org/2000/svg"><g><path d="M6.000 200.000 L 6.000 296.000 104.252 296.000 L 202.504 296.000 298.500 200.000 L 394.496 104.000 200.248 104.000 L 6.000 104.000 6.000 200.000 M73.619 139.526 C 82.402 141.035,95.492 144.938,99.645 147.287 C 102.028 148.635,90.637 170.732,87.774 170.314 C 87.073 170.212,83.350 168.917,79.500 167.436 C 65.119 161.906,46.418 163.141,43.890 169.788 C 41.829 175.210,47.721 179.442,66.500 186.027 C 87.753 193.480,98.093 200.538,100.982 209.563 C 101.675 211.728,102.535 213.825,102.893 214.223 C 103.252 214.620,109.835 198.089,117.523 177.487 L 131.500 140.028 148.039 140.014 L 164.577 140.000 181.039 184.894 L 197.500 229.789 197.760 184.781 L 198.021 139.774 225.760 140.258 C 271.049 141.049,284.290 147.656,289.048 171.837 C 294.968 201.928,275.510 221.923,240.250 221.983 L 230.000 222.000 230.000 240.500 L 230.000 259.000 201.729 259.000 L 173.457 259.000 170.755 250.125 L 168.054 241.250 162.277 242.609 C 152.954 244.803,137.894 244.362,129.440 241.647 C 127.586 241.052,127.094 241.883,124.502 249.993 L 121.624 259.000 104.316 259.000 L 87.008 259.000 88.938 253.922 L 90.867 248.844 88.683 250.422 C 72.172 262.355,48.673 263.995,23.696 254.957 C 10.128 250.048,10.521 251.114,17.262 237.536 L 23.024 225.930 27.262 228.384 C 42.891 237.435,65.654 237.168,68.886 227.896 C 71.171 221.342,67.349 218.332,49.106 212.314 C 22.029 203.383,11.786 193.325,11.589 175.479 C 11.298 149.145,38.349 133.466,73.619 139.526 M230.000 180.500 L 230.000 196.245 238.814 195.823 C 266.783 194.486,266.725 166.584,238.750 165.191 L 230.000 164.755 230.000 180.500 M141.697 196.253 C 134.939 217.912,135.150 215.670,139.750 216.947 C 147.036 218.971,160.739 217.416,159.722 214.681 C 159.480 214.031,156.933 205.850,154.062 196.500 C 151.191 187.150,148.516 179.161,148.118 178.747 C 147.720 178.334,144.831 186.211,141.697 196.253 " stroke="none" fill-rule="evenodd"></path></g></svg>