<svg version="1.1" width="515" height="515" xmlns="http://www.w3.org/2000/svg"><g><path d="M220.000 5.558 C 191.657 9.977,159.823 22.295,146.284 34.080 C 144.515 35.620,140.256 38.789,136.821 41.122 C 128.898 46.502,113.714 61.669,108.372 69.539 C 106.117 72.861,102.925 77.054,101.277 78.857 C 97.160 83.365,89.727 97.754,85.540 109.319 C 67.204 159.974,78.883 214.264,118.923 264.497 C 121.990 268.345,126.178 273.720,128.230 276.443 C 130.281 279.165,133.623 283.148,135.657 285.295 C 139.736 289.599,151.360 303.738,160.197 315.146 C 163.331 319.191,167.617 324.300,169.722 326.500 C 173.726 330.684,177.008 334.657,193.500 355.284 C 207.820 373.194,216.715 378.311,230.316 376.466 C 258.304 372.670,272.563 342.579,256.393 321.436 C 254.527 318.996,251.394 314.862,249.431 312.250 C 247.468 309.637,243.948 305.475,241.610 303.000 C 236.930 298.047,220.912 278.675,214.281 269.947 C 211.960 266.893,208.553 262.843,206.709 260.947 C 170.910 224.127,157.193 179.314,171.984 147.500 C 179.887 130.502,182.680 125.468,188.349 118.000 C 204.791 96.341,225.240 80.806,247.500 73.063 C 252.450 71.342,257.850 69.317,259.500 68.564 C 274.635 61.658,328.310 61.969,343.500 69.052 C 344.600 69.564,348.650 70.936,352.500 72.099 C 377.257 79.579,396.339 92.915,411.487 113.323 C 413.536 116.083,416.000 116.901,416.000 114.821 C 416.000 112.101,400.745 82.835,395.244 75.000 C 385.500 61.123,373.942 49.320,359.991 39.000 C 357.389 37.075,353.739 34.303,351.880 32.839 C 324.814 11.530,263.302 -1.195,220.000 5.558 M258.000 136.937 C 257.175 137.388,254.700 138.523,252.500 139.458 C 226.401 150.553,220.929 176.791,240.395 197.500 C 244.014 201.350,246.980 204.813,246.987 205.196 C 247.001 205.921,272.326 236.750,274.346 238.500 C 274.981 239.050,276.731 241.149,278.235 243.163 C 279.739 245.178,281.551 247.428,282.262 248.163 C 284.141 250.106,298.822 268.276,303.500 274.449 C 305.700 277.352,308.725 281.277,310.222 283.171 C 324.802 301.619,330.898 337.277,323.613 361.500 C 312.898 397.130,278.676 431.935,243.500 442.979 C 239.650 444.188,235.150 445.770,233.500 446.494 C 219.107 452.810,155.510 452.543,151.029 446.149 C 150.738 445.733,146.900 444.367,142.500 443.112 C 119.743 436.625,97.098 422.009,85.964 406.622 C 81.352 400.249,78.000 397.276,78.000 399.560 C 78.000 403.475,91.048 430.008,96.903 438.000 C 106.932 451.691,125.133 470.314,134.500 476.471 C 137.800 478.640,141.542 481.373,142.815 482.545 C 150.537 489.653,182.618 502.937,201.511 506.851 C 252.059 517.323,301.508 509.383,343.150 484.108 C 353.589 477.772,380.927 453.243,385.770 445.866 C 386.722 444.417,390.031 439.467,393.124 434.866 C 400.510 423.879,406.767 410.606,410.504 398.000 C 410.911 396.625,411.604 395.047,412.043 394.494 C 417.904 387.101,417.908 328.947,412.048 321.506 C 411.612 320.953,409.803 315.784,408.027 310.021 C 402.941 293.509,387.612 265.227,377.934 254.500 C 375.950 252.300,369.897 244.875,364.485 238.000 C 359.072 231.125,354.386 225.275,354.072 225.000 C 353.757 224.725,351.251 221.800,348.502 218.500 C 345.753 215.200,343.160 212.348,342.740 212.163 C 342.320 211.977,340.669 209.926,339.072 207.604 C 337.475 205.283,327.917 193.480,317.834 181.375 C 307.750 169.270,296.685 155.913,293.245 151.693 C 286.771 143.751,281.103 139.371,275.971 138.344 C 274.337 138.017,273.000 137.356,273.000 136.875 C 273.000 135.775,260.028 135.829,258.000 136.937 " stroke="none" fill-rule="evenodd"></path></g></svg>