<svg id="svg" xmlns="http://www.w3.org/2000/svg" xmlns:xlink="http://www.w3.org/1999/xlink" width="400" height="400" viewBox="0, 0, 400,400"><g id="svgg"><path id="path0" d="M362.120 1.992 C 360.271 4.682,350.003 18.728,327.575 49.250 C 317.269 63.275,306.291 78.237,303.180 82.500 C 300.069 86.763,294.870 93.850,291.628 98.250 C 288.386 102.650,280.466 113.450,274.029 122.250 C 260.017 141.405,260.780 140.500,258.634 140.500 C 256.869 140.500,255.051 138.827,247.441 130.199 C 243.891 126.174,233.824 114.949,225.832 106.104 C 216.600 95.887,218.286 95.290,204.219 113.750 C 193.448 127.884,192.867 128.763,193.313 130.250 C 193.627 131.298,194.267 131.973,220.785 159.250 C 229.874 168.600,241.757 180.863,247.190 186.500 C 260.713 200.533,259.458 200.251,267.631 191.091 C 270.721 187.628,277.075 180.496,281.750 175.242 C 297.162 157.923,298.637 156.268,300.460 154.250 C 303.995 150.337,314.320 138.752,318.750 133.729 C 322.679 129.274,338.488 111.572,351.500 97.059 C 353.837 94.452,357.663 90.148,360.000 87.494 C 362.337 84.841,366.143 80.550,368.456 77.960 C 370.770 75.369,375.157 70.450,378.206 67.028 C 381.255 63.606,385.494 58.892,387.625 56.553 L 391.500 52.300 391.500 26.150 L 391.500 0.000 377.495 0.000 L 363.490 0.000 362.120 1.992 M104.000 186.493 C 69.394 189.953,46.922 215.237,52.219 244.750 C 56.182 266.827,70.073 276.874,110.250 286.721 C 140.000 294.013,146.133 297.558,146.195 307.500 C 146.341 330.823,97.748 331.475,71.000 308.508 C 65.116 303.456,65.365 303.316,55.377 317.249 C 45.636 330.835,45.764 330.249,51.500 334.989 C 74.183 353.734,107.965 360.808,139.652 353.449 C 166.053 347.318,181.226 329.176,181.218 303.750 C 181.210 275.058,165.963 262.240,118.750 251.234 C 93.776 245.412,87.000 241.410,87.000 232.485 C 87.000 212.601,126.203 211.136,152.334 230.045 C 158.903 234.798,157.989 235.330,169.466 220.067 C 178.452 208.117,178.388 208.513,172.103 203.956 C 152.986 190.094,129.141 183.980,104.000 186.493 M251.500 228.243 C 223.714 232.386,202.093 254.034,198.458 281.353 C 194.530 310.871,207.512 337.310,231.912 349.486 C 254.081 360.548,285.661 357.953,308.375 343.201 C 314.003 339.546,313.999 339.487,307.423 329.760 C 299.863 318.579,300.051 318.700,295.160 321.829 C 272.668 336.217,245.267 332.283,235.413 313.250 C 233.392 309.346,231.722 303.944,232.174 302.769 C 232.436 302.085,237.367 302.000,276.699 302.000 C 328.553 302.000,322.504 303.045,322.491 294.089 C 322.429 250.986,291.482 222.282,251.500 228.243 M270.974 254.331 C 280.912 257.084,289.094 265.869,291.023 275.855 C 292.011 280.973,294.960 280.500,262.057 280.500 C 246.120 280.500,232.726 280.363,232.291 280.197 C 229.656 279.186,233.761 268.578,239.008 262.837 C 246.502 254.637,259.549 251.165,270.974 254.331 " stroke="none" fill="#000000" fill-rule="evenodd"></path></g></svg>