<svg width="100%" height="100%" viewBox="0 0 400 400" version="1.1" xmlns="http://www.w3.org/2000/svg" style="fill-rule:evenodd;clip-rule:evenodd;stroke-linejoin:round;stroke-miterlimit:2;">
<g>
<path d="M185,56C185,57.7 181.667,56.667 180,57C175.646,57.871 171.274,58.779 167,60C157.373,62.751 147.108,68.154 139,74C110.637,94.451 99.482,126.927 108,161C109.245,165.982 111.723,170.445 114,175C130.925,208.85 168.137,215.569 199,231C213.97,238.485 239,244.101 239,265C239,278.753 225.829,288.396 213,290C190.036,292.871 170.715,286.434 151,276C146.259,273.491 142.338,270.114 138,267C136.06,265.607 134.434,262.772 132.057,263C127.9,263.399 121.19,272.442 119,275.043C113.675,281.365 108.279,287.641 103,294C100.572,296.924 97.528,299.52 96,303C93.612,308.439 97.909,309.919 102,313C105.661,315.757 109.194,318.463 113,321C137.706,337.47 169.395,347 199,347C239.767,347 286.194,328.417 300,287C301.491,282.527 303.477,277.703 304,273C305.248,261.766 305.219,251.093 303,240C300.342,226.71 294.271,213.211 284.53,203.47C277.63,196.57 267.712,191.356 259,187C238.915,176.957 216.989,170.994 197,161C186.766,155.883 174.941,151.822 171,140C170.432,138.297 169,136.795 169,135C169,124.998 177.118,117.941 185,114C203.449,104.775 225.491,110.245 243,119C247.867,121.434 252.46,123.973 257,127C259.566,128.71 262.007,131.442 265.397,130.686C268.421,130.011 271.472,123.908 273,122C278.332,115.34 283.806,108.767 289,102C290.368,100.218 291.695,98.406 293,96.578C293.459,95.936 295.259,93.111 295,92.478C292.15,85.523 285.982,81.012 280,77C264.768,66.783 245.549,57.427 227,56C227,56 185,53.333 185,56"/>
</g>
</svg>
