<?xml version="1.0" encoding="UTF-8" standalone="no"?>
<svg
   xmlns:dc="http://purl.org/dc/elements/1.1/"
   xmlns:cc="http://creativecommons.org/ns#"
   xmlns:rdf="http://www.w3.org/1999/02/22-rdf-syntax-ns#"
   xmlns:svg="http://www.w3.org/2000/svg"
   xmlns="http://www.w3.org/2000/svg"
   id="svg4"
   version="1.1"
   class="css-15xgryy e10nushx5"
   height="400"
   width="400"
   viewBox="0 0 200 200">
  <metadata
     id="metadata10">
    <rdf:RDF>
      <cc:Work
         rdf:about="">
        <dc:format>image/svg+xml</dc:format>
        <dc:type
           rdf:resource="http://purl.org/dc/dcmitype/StillImage" />
        <dc:title></dc:title>
      </cc:Work>
    </rdf:RDF>
  </metadata>
  <defs
     id="defs8" />
  <path
     id="path2"
     d="m 29,80.239868 a 4.67,4.67 0 0 0 -8,0 l -6.58,11.27 A 32.21,32.21 0 0 1 32.17,118.16987 H 27.55 A 27.68,27.68 0 0 0 12.09,95.449868 L 6,105.97987 a 15.92,15.92 0 0 1 9.23,12.17 H 4.62 a 0.76,0.76 0 0 1 -0.62,-1.11 l 2.94,-5 a 10.74,10.74 0 0 0 -3.36,-1.9 l -2.91,5 a 4.54,4.54 0 0 0 1.69,6.24 4.66,4.66 0 0 0 2.26,0.6 h 14.53 a 19.4,19.4 0 0 0 -8,-17.31 l 2.31,-4 a 23.87,23.87 0 0 1 10.3,21.31 H 36.07 A 35.88,35.88 0 0 0 19.66,90.179868 l 4.67,-8 a 0.77,0.77 0 0 1 1.05,-0.27 c 0.53,0.29 20.29,34.770002 20.66,35.170002 a 0.76,0.76 0 0 1 -0.68,1.13 H 40.6 q 0.09,1.91 0,3.81 h 4.78 a 4.59,4.59 0 0 0 4.62,-4.61 4.49,4.49 0 0 0 -0.62,-2.28 z m 95.32,26.020002 -14.76,-19.060002 h -3.68 v 25.550002 h 3.73 V 93.169868 l 15.18,19.580002 h 3.26 V 87.199868 h -3.73 z m -37.17,-4.74 h 13.23 V 98.199868 H 87.14 v -7.69 h 14.93 v -3.32 H 83.34 v 25.560002 h 18.92 v -3.32 H 87.14 Z M 71.59,98.279868 v 0 c -5.15,-1.24 -6.59,-2.22 -6.59,-4.6 0,-2.14 1.89,-3.59 4.71,-3.59 a 12.06,12.06 0 0 1 7.07,2.55 l 2,-2.83 a 14.1,14.1 0 0 0 -9,-3 c -5.06,0 -8.59,3 -8.59,7.27 0,4.6 3,6.190002 8.46,7.520002 4.86,1.12 6.35,2.16 6.35,4.49 0,2.33 -2,3.77 -5.09,3.77 a 12.34,12.34 0 0 1 -8.3,-3.26 l -2.25,2.69 a 15.94,15.94 0 0 0 10.42,3.85 c 5.48,0 9,-2.95 9,-7.51 -0.03,-3.86 -2.31,-5.930002 -8.19,-7.350002 z m 124.11,-11.08 -7.69,12 -7.64,-12 h -4.46 L 186,102.64987 v 10.11 h 3.84 v -10.23 L 200,87.199868 Z m -64.63,3.46 h 8.37 v 22.100002 h 3.84 V 90.659868 h 8.37 v -3.46 h -20.57 z m 38.34,12.120002 c 3.86,-1.07 6,-3.770002 6,-7.630002 0,-4.91 -3.59,-8 -9.38,-8 h -11.36 v 25.590002 h 3.8 v -9.18 h 6.45 l 6.48,9.2 h 4.44 l -7,-9.82 z m -10.95,-2.5 v -9.700002 h 7.17 c 3.74,0 5.88,1.77 5.88,4.84 0,3.07 -2.29,4.860002 -5.84,4.860002 z" />
</svg>
