<svg id="svg" version="1.1" width="515" height="515" xmlns="http://www.w3.org/2000/svg" xmlns:xlink="http://www.w3.org/1999/xlink" style="display: block;"><g id="svgg"><path id="path0" d="M39.888 236.496 C 24.692 244.411,32.539 264.000,50.906 264.000 C 55.566 264.000,61.000 267.807,61.000 271.071 C 61.000 277.778,46.161 279.093,39.677 272.960 C 33.973 267.564,27.276 273.014,32.257 279.000 C 37.240 284.988,64.000 287.484,64.000 281.961 C 64.000 281.433,64.578 281.000,65.284 281.000 C 68.483 281.000,71.591 271.444,70.083 266.248 C 68.628 261.237,61.474 256.000,56.085 256.000 C 52.385 256.000,42.070 251.796,41.520 250.064 C 38.787 241.451,55.212 239.321,62.053 247.401 C 64.235 249.978,68.739 248.886,69.570 245.579 C 71.830 236.573,51.615 230.387,39.888 236.496 M86.000 236.442 C 73.827 242.797,68.448 258.313,74.110 270.742 C 76.107 275.124,80.966 281.000,82.594 281.000 C 83.006 281.000,84.213 281.788,85.276 282.750 C 93.758 290.426,122.907 280.002,117.395 271.264 C 114.984 267.443,113.448 267.552,109.150 271.850 C 100.815 280.185,86.096 276.866,82.094 265.750 L 81.104 263.000 99.302 262.985 C 120.422 262.967,120.443 262.960,119.803 256.301 C 118.111 238.692,100.976 228.625,86.000 236.442 M123.750 235.080 C 122.163 236.005,122.000 238.262,122.000 259.350 C 122.000 284.648,122.077 285.000,127.593 285.000 C 131.823 285.000,132.000 284.319,132.000 268.040 C 132.000 247.871,136.744 239.076,144.881 244.158 C 149.429 246.998,152.353 239.440,148.171 235.655 C 144.764 232.572,132.000 234.699,132.000 238.350 C 132.000 238.856,131.067 238.084,129.927 236.635 C 127.694 233.795,126.480 233.490,123.750 235.080 M152.012 235.977 C 151.338 237.237,151.292 238.597,151.885 239.727 C 152.931 241.721,158.140 254.654,160.050 260.000 C 160.737 261.925,161.854 264.850,162.530 266.500 C 163.207 268.150,164.758 271.975,165.977 275.000 C 169.449 283.620,170.602 285.000,174.332 285.000 C 179.556 285.000,180.247 284.060,185.732 269.500 C 186.561 267.300,187.582 264.600,188.000 263.500 C 188.418 262.400,189.531 259.475,190.472 257.000 C 191.414 254.525,192.761 251.150,193.466 249.500 C 197.580 239.874,198.198 237.958,197.650 236.531 C 196.071 232.416,189.794 233.529,188.032 238.237 C 187.360 240.032,186.128 243.300,185.293 245.500 C 184.458 247.700,183.109 251.300,182.295 253.500 C 180.543 258.237,179.028 261.889,176.278 268.000 L 174.253 272.500 173.206 269.000 C 172.630 267.075,171.188 263.025,170.003 260.000 C 168.817 256.975,166.848 251.800,165.627 248.500 C 160.466 234.545,155.314 229.807,152.012 235.977 M200.450 235.270 C 200.182 235.968,200.084 247.325,200.231 260.507 C 200.526 286.799,200.350 286.133,206.579 284.570 L 209.000 283.962 209.000 259.588 C 209.000 238.285,208.801 235.138,207.418 234.607 C 204.733 233.577,200.962 233.935,200.450 235.270 M225.288 236.595 C 208.578 244.681,206.723 270.584,222.109 281.000 C 233.437 288.670,253.052 284.885,257.095 274.249 C 259.647 267.537,253.601 263.886,249.650 269.753 C 245.962 275.230,242.934 276.408,233.321 276.101 C 227.074 275.902,220.946 267.419,221.041 259.101 C 221.223 243.201,241.317 236.572,249.500 249.711 C 253.585 256.271,260.437 251.600,256.875 244.684 C 251.733 234.701,237.000 230.928,225.288 236.595 M274.500 235.815 C 256.996 242.905,254.266 269.330,269.832 281.000 C 280.689 289.140,306.000 283.863,306.000 273.459 C 306.000 269.328,301.078 267.183,298.569 270.221 C 294.484 275.167,290.414 276.579,281.500 276.145 C 277.684 275.959,271.246 270.345,270.045 266.155 L 269.152 263.044 287.826 262.772 L 306.500 262.500 306.361 255.994 C 306.001 239.089,290.560 229.309,274.500 235.815 M312.087 235.913 C 310.104 237.896,310.000 239.044,310.000 258.935 C 310.000 283.785,310.292 285.006,316.225 284.985 C 323.240 284.960,323.189 285.088,323.102 267.886 C 323.009 249.560,324.928 246.000,334.894 246.000 C 341.546 246.000,342.500 248.457,342.500 265.580 C 342.500 274.056,342.785 280.994,343.133 280.996 C 343.482 280.998,344.002 281.900,344.290 283.000 C 344.825 285.048,350.631 285.846,354.418 284.393 C 356.715 283.512,356.751 250.734,354.462 245.254 C 350.021 234.625,335.405 230.303,326.162 236.885 L 322.909 239.201 321.145 237.167 C 318.379 233.978,314.552 233.448,312.087 235.913 M380.246 235.154 C 377.447 237.953,378.603 263.693,381.615 265.667 C 383.961 267.205,384.502 267.229,386.865 265.902 L 389.500 264.423 389.500 249.462 L 389.500 234.500 385.496 234.204 C 383.247 234.039,380.945 234.455,380.246 235.154 M410.540 235.955 C 408.673 238.018,408.760 241.705,410.811 247.500 C 411.395 249.150,412.548 252.975,413.374 256.000 C 421.978 287.529,420.650 285.000,428.595 285.000 C 432.842 285.000,433.105 284.823,434.935 280.750 C 439.227 271.195,440.000 269.101,440.000 267.033 C 440.000 264.602,441.680 261.000,442.813 261.000 C 443.222 261.000,444.596 264.488,445.866 268.750 C 450.179 283.223,451.316 285.002,456.237 284.986 C 463.095 284.964,464.741 284.181,465.333 280.659 C 465.625 278.922,466.980 273.450,468.344 268.500 C 469.708 263.550,471.495 257.025,472.316 254.000 C 473.137 250.975,474.301 247.233,474.904 245.685 C 477.521 238.962,475.152 234.000,469.326 234.000 C 465.526 234.000,463.355 236.385,462.501 241.500 C 462.134 243.700,461.232 247.525,460.497 250.000 C 459.761 252.475,458.873 256.627,458.522 259.227 C 457.685 265.430,456.586 265.901,455.046 260.717 C 454.357 258.398,453.165 254.685,452.397 252.467 C 451.628 250.248,451.000 247.730,451.000 246.872 C 451.000 241.027,438.267 239.811,435.614 245.401 C 434.726 247.272,434.000 249.311,434.000 249.933 C 434.000 251.668,429.950 263.389,429.016 264.355 C 428.562 264.825,427.648 262.575,426.985 259.355 C 426.322 256.135,425.154 251.181,424.390 248.346 C 423.625 245.511,423.000 242.310,423.000 241.231 C 423.000 235.250,414.454 231.631,410.540 235.955 M366.170 241.812 C 363.767 242.048,362.992 242.537,363.388 243.569 C 363.690 244.356,363.608 245.000,363.205 245.000 C 361.379 245.000,359.001 253.389,359.022 259.757 C 359.069 274.309,367.445 283.798,381.105 284.775 C 387.886 285.261,398.000 283.539,398.000 281.900 C 398.000 281.405,398.591 281.000,399.313 281.000 C 400.035 281.000,401.784 279.762,403.199 278.250 C 414.499 266.172,410.285 238.380,397.636 241.555 C 392.834 242.761,392.431 250.676,397.027 253.517 C 398.456 254.400,398.201 263.091,396.659 266.045 C 387.094 284.374,364.374 269.690,373.613 251.150 C 377.201 243.949,374.820 240.963,366.170 241.812 M101.849 243.704 C 105.763 245.531,108.099 248.096,109.164 251.733 L 109.827 254.000 95.850 254.000 L 81.872 254.000 84.100 250.036 C 86.058 246.552,88.639 244.640,94.000 242.700 C 96.599 241.760,98.094 241.951,101.849 243.704 M291.477 244.577 C 292.928 245.528,294.998 248.037,296.078 250.153 L 298.041 254.000 284.020 254.000 C 272.224 254.000,270.000 253.762,270.000 252.500 C 270.000 251.675,270.374 251.000,270.831 251.000 C 271.288 251.000,272.230 249.939,272.924 248.643 C 276.031 242.836,285.614 240.736,291.477 244.577 " stroke="none" fill="#000000" fill-rule="evenodd"></path></g></svg>