<svg width="100%" height="100%" viewBox="0 0 515 515" version="1.1" xmlns="http://www.w3.org/2000/svg" style="fill-rule:evenodd;clip-rule:evenodd;stroke-linejoin:round;stroke-miterlimit:2;">
    <g>
        <path d="M225,1C225,2.583 222.057,2.434 221.544,2.417C216.143,2.244 209.442,2.052 204.688,5.393C203.734,6.063 204.283,7.962 203.312,8.607C196.393,13.204 196.55,13.133 190.312,18.607C186.754,21.73 185.361,18.804 182,22C177.674,26.114 180.121,27.497 176.607,32.312C174.496,35.205 170.685,36.525 168.5,39.362C162.523,47.125 164.658,48.107 159.607,56.312C158.012,58.903 154.452,57.852 153.327,61.064C152.455,63.551 153.546,66.472 152.621,68.94C152.152,70.191 150.043,70.197 149.454,71.396C146.431,77.556 144.691,84.271 142,90.582C141.306,92.211 139.748,93.449 139.318,95.167C138.614,97.977 139.448,101.04 138.682,103.833C138.395,104.881 136.632,105.041 136.325,106.083C135.565,108.664 136.334,111.523 135.65,114.125C134.889,117.015 132,116.681 132,120L132,125L125.406,125C122.32,125 71.645,141.904 70.963,143.157C69.549,145.754 29,452.441 29,457.067L29,462C29,462 316.857,515.002 326,515C334.23,514.998 474.119,486.401 477.875,485.679C480.108,485.249 479.925,482 482.5,482L486,482C486,482 431.642,103.893 430.691,99.313C430.049,96.222 425.745,94.697 423.242,94.463C412.068,93.42 412.269,92.941 401.083,91.288C395.749,90.499 390.236,91.597 384.917,90.712C381.67,90.172 379.43,85.996 377.5,84C371.929,78.239 366.081,72.751 360.5,67C358.577,65.019 356.316,61.075 353.25,60.292C348.555,59.092 337.42,59.278 332.75,60.292C331.739,60.511 328.702,64 327.5,64L324,64L324,58.5C324,55.289 321.581,48.467 319.5,46C318.146,44.395 315.597,44.033 314.393,42.312C313.133,40.513 313.609,37.896 312.5,36C310.173,32.023 305.193,29.068 302,26C300.213,24.283 299.074,21.855 297,20.5C295.161,19.298 292.635,19.624 290.688,18.607C288.774,17.607 290.897,15.927 288.875,15.321C284.316,13.956 279.61,13.11 274.917,12.325C272.333,11.893 269.528,12.619 267.083,11.675C263.348,10.233 262.414,5.262 259,3.5C250.487,-0.893 239.347,-0.219 230.058,-1.192C228.773,-1.327 225,-1.83 225,1M242,20.5C242,22.669 239.116,23.855 237.23,24.927C235.89,25.688 234.173,25.594 232.834,26.357C229.082,28.493 229.467,30.118 226.5,33C224.796,34.655 222.448,35.648 221,37.531C219.051,40.065 218.385,43.418 216.5,46C215.137,47.866 212.546,48.685 211.393,50.688C210.473,52.285 211.364,54.47 210.643,56.167C210.274,57.034 208.726,56.966 208.357,57.834C207.636,59.53 208.404,61.65 207.607,63.312C205.337,68.047 202.577,66.167 201.318,71.167C200.592,74.05 201.336,77.167 200.659,80.062C200.373,81.287 197.67,80.659 197.35,81.875C196.666,84.477 197.19,87.276 196.675,89.917C195.84,94.197 194,93.614 194,98L194,105L190.5,105C187.845,105 188.284,107.161 185.917,107.675C183.288,108.246 180.374,107.354 177.875,108.35C176.673,108.83 177.117,111.314 175.875,111.679C172.205,112.757 168.155,111.494 164.416,112.304C162.784,112.658 161.728,114.316 160.236,115.068C158.912,115.736 155.472,115.079 156.004,113.694C156.565,112.231 158.748,111.952 159.546,110.604C163.707,103.576 160.669,102.721 163.367,95.126C163.404,95.021 169.634,86.996 169.682,86.833C170.499,84.054 169.806,81.018 170.318,78.167C170.989,74.432 175.535,76.585 176.607,73.312C177.869,69.462 178.098,69.803 179.643,66.167C180.364,64.47 179.4,62.241 180.393,60.688C181.523,58.918 184.277,58.707 185.5,57C186.75,55.255 186.249,52.646 187.436,50.857C191.435,44.831 198.901,39.401 204,34.5C205.666,32.899 206.744,30.643 208.688,29.393C214.02,25.962 215.298,29.278 220.375,25.584C221.345,24.878 220.813,22.76 221.938,22.341C227.464,20.279 227.74,21.632 233.083,19.325C233.718,19.051 242,17.355 242,20.5M283,37.5C283,40.148 288.489,38.806 289.312,39.393C290.215,40.037 289.716,41.716 290.5,42.5C291.284,43.284 292.864,42.865 293.607,43.688C293.852,43.959 294.253,48.887 294.357,49.167C294.874,50.555 295.754,49.44 296.559,50.441C297.039,51.036 296.961,51.964 297.441,52.559C298.038,53.302 299.309,52.635 299.643,53.834C300.138,55.609 299.99,57.514 300.393,59.312C300.73,60.816 303.32,59.167 303.65,60.875C303.911,62.23 304,63.62 304,65L304,70L300.5,70C299.553,70 298.592,70.112 297.688,70.393C296.209,70.852 297.849,73.323 296.125,73.65C294.769,73.907 293.38,74 292,74L287,74L287,67C287,65.039 286.948,63.068 286.679,61.125C286.39,59.047 283.449,60.783 283.3,58.496C282.939,52.952 283.033,47.385 282.698,41.839C282.58,39.886 279.898,39.381 280,37.393C280.095,35.524 283,35.696 283,37.5M259,44.5C259,45.479 258.615,48.917 260.045,50.145C261.065,51.021 262.628,50.523 262.721,52.375C262.964,57.245 263,62.124 263,67L263,84L257.5,84C255.975,84 254.438,84.07 252.938,84.341C251.043,84.683 252.928,87.094 251.125,87.65C247.733,88.695 244.404,90.018 240.917,90.675C238.342,91.159 235.652,90.808 233.083,91.325C232.854,91.371 230.797,93.641 230.584,93.696C228.689,94.191 219.754,95.931 218,92.5C217.455,91.434 220.577,90.311 220.675,89.917C221.324,87.306 220.962,84.537 221.35,81.875C221.545,80.535 224.021,81.289 224.607,80.312C225.939,78.094 226.818,75.619 227.643,73.167C228.269,71.307 227.572,69.519 228.393,67.688C229.714,64.739 233.41,65.28 234.563,62.145C235.077,60.747 234.698,59.04 235.477,57.771C236.087,56.778 237.623,56.73 238.413,55.873C239.003,55.232 238.921,54.168 239.441,53.468C240.287,52.327 241.357,51.359 242.441,50.441C242.809,50.129 244.284,49.912 244.562,49.417C245.063,48.526 244.778,47.222 245.5,46.5C246.222,45.778 247.539,46.085 248.417,45.562C249.457,44.942 248.535,43.811 249.834,43.357C251.862,42.647 253.347,43.72 255.312,42.607C256.178,42.117 255.955,40.183 256.438,39.583C257.263,38.558 258.415,38.997 258.682,40.167C259.004,41.579 259,43.052 259,44.5M242,178.5C242,180.268 244.187,180.264 245.172,180.283C249.343,180.359 253.553,179.751 257.687,180.309C260.695,180.714 259.163,184 262.5,184L266,184L266,190.5C266,194.701 264.066,194.035 263.318,198.167C262.788,201.092 263.336,204.167 262.659,207.062C262.373,208.287 259.84,207.717 259.35,208.875C255.658,217.603 258.012,217.993 255.65,227.125C254.805,230.393 252,229.794 252,233.5L252,239L247,239C243.681,239 244.015,236.111 241.125,235.35C238.523,234.666 235.721,235.204 233.083,234.675C230.837,234.225 231.279,232.355 228.833,232.272C219.283,231.945 209.702,231.644 200.167,232.272C194.772,232.626 194.484,236.175 190.312,238.607C188.857,239.456 185.977,238.329 184.549,239.46C183.671,240.154 183.775,243.57 183.525,244.32C180.145,254.482 176.606,256.104 180.308,267.213C181.664,271.282 188.19,275.357 191,278C192.119,279.053 192.67,280.73 194,281.5C195.901,282.601 198.485,282.174 200.312,283.393C203.976,285.836 205.024,291.165 208.688,293.607C210.515,294.825 213.131,294.346 215,295.5C220.663,298.997 223.569,304.317 228,309C229.703,310.8 232.145,311.926 233.5,314C234.702,315.839 234.239,318.443 235.393,320.312C236.939,322.816 240.672,321.967 241.682,325.167C242.554,327.929 241.614,331.023 242.318,333.833C242.748,335.551 244.416,336.747 245,338.418C245.548,339.987 245.104,341.791 245.649,343.361C246.531,345.901 248.24,344.681 248.721,347.404C249.482,351.711 249.833,356.089 250.058,360.458C250.304,365.245 246.167,367.351 245.547,371.115C244.196,379.321 244.467,379.153 242.318,387.167C241.568,389.964 242.554,393.071 241.682,395.833C240.672,399.033 236.939,398.184 235.393,400.688C234.239,402.557 234.814,405.24 233.5,407C233.012,407.654 219.434,421.011 216.44,423.125C214.03,424.826 210.987,425.545 208.688,427.393C207.74,428.155 208.202,430.234 207.062,430.659C204.277,431.699 201.095,430.801 198.167,431.318C195.034,431.872 195.786,433.379 192.75,433.735C188.548,434.226 168.12,436.441 160.529,435.421C153.855,434.525 154.535,432.653 147.917,431.325C145.279,430.796 142.365,431.669 139.875,430.65C138.761,430.194 139.4,427.909 138.312,427.393C132.058,424.428 124.785,423.882 118.688,420.607C114.461,418.337 114.163,410 108.094,410L105,410L105,401.5C105,396.426 106.732,396.965 107.675,391.917C108.169,389.272 107.354,386.374 108.35,383.875C110.036,379.648 111.565,380.393 112,376C112.083,375.164 112.46,364.729 116.5,366C119.89,367.067 120.565,370.616 123.423,372.27C129.974,376.061 136.835,379.298 143.68,382.525C156.346,388.498 167.175,387.375 178.5,379C180.423,377.578 183.275,376.422 183.713,374.071C185.117,366.526 184.726,358.654 183.701,351.048C183.219,347.471 177.056,344.073 175,342C167.05,333.986 165.083,329.406 156,322.5C151.745,319.265 145.097,318.592 142.393,313.312C139.805,308.258 138.263,302.706 135.607,297.688C132.686,292.168 129.657,293.395 129.27,286.583C128.679,276.211 128.57,265.782 129.27,255.417C129.389,253.649 131.339,252.422 131.691,250.686C132.385,247.272 131.736,243.685 132.349,240.255C132.725,238.145 134.823,239.296 135.546,237.604C138.179,231.436 139.416,224.696 142.393,218.688C143.017,217.428 144.946,217.431 146,216.5C149.004,213.848 151.775,210.938 154.5,208C158.146,204.069 161.748,198.222 166.638,195.5C170.595,193.298 175.39,192.871 179.312,190.607C180.322,190.025 179.655,187.934 180.688,187.393C189.501,182.774 190.518,187.184 199.875,183.679C201.211,183.178 201.103,180.588 202.5,180.3C209.96,178.759 217.796,179.632 225.238,178.006C230.456,176.866 234.54,176.506 240,177.286C240.772,177.396 242,177.72 242,178.5"/>
    </g>
</svg>
