<svg width="100%" height="100%" viewBox="0 0 400 268" version="1.1" xmlns="http://www.w3.org/2000/svg" style="fill-rule:evenodd;clip-rule:evenodd;stroke-linejoin:round;stroke-miterlimit:2;">
    <g>
        <path d="M221.5,22C218.768,25.02 213.862,25.835 213,30.568C212.513,33.242 218.435,30.506 221.152,30.463C224.933,30.404 225.74,39.994 224.061,42.119C222.191,44.486 218.164,42.219 216.936,40.488C215.052,37.83 216.198,32.025 211,32C208.7,31.989 205.25,35.816 203.716,36.979C200.591,39.348 195.827,40.444 193,42.966C180.548,54.074 178.204,67.934 172.972,83C171.644,86.824 170.088,90.6 168.07,94.109C165.856,97.959 161.999,100.929 160.609,105.147C159.254,109.261 159.376,117.823 158.535,121.581C156.72,129.697 150.112,137.314 147.675,145.274C144.95,154.172 145.648,167.228 145.106,175.25C144.862,178.868 142.939,182.303 143.023,185.928C143.086,188.616 144.956,190.953 145.711,193.533C150.982,211.55 163.483,222.993 179.39,231.575C185.827,235.048 184.587,245.704 191.916,247.789C198.51,249.665 201.001,245.856 206.587,246.022C209.466,246.108 212.119,247.955 215,248C219.705,248.074 226.968,246.118 231.212,245.188C238.96,243.49 246.52,241.662 254,238.995C258.777,237.292 262.837,234.078 267.452,232C271.908,229.993 276.572,228.106 280.469,225C282.842,223.108 283.149,219.836 285.354,218C289.821,214.281 294.271,212.177 298.5,207.831L303.5,202.693L303.371,191.097C303.252,180.369 301.765,169.7 300.973,159C300.252,149.26 300.689,139.409 299.229,129.752C298.786,126.827 296.151,124.674 295,121.949C289.756,109.537 283.24,98.249 276.035,86.868C273.009,82.089 271.82,76.722 270,71.478C269.288,69.425 267.266,67.478 267.75,65.359C267.891,64.744 269.041,64.525 268.956,63.9C268.734,62.265 265.791,62.73 264.55,61.642C262.083,59.48 262.217,55.266 259.846,53C258.458,51.674 256.14,51.891 254.462,50.959C243.17,44.678 240.886,31.998 233.919,22.474C231.502,19.17 224.153,19.067 221.5,22M218.319,129.726C218.824,129.674 219.559,129.641 220.006,130.004C220.742,130.604 220.704,132.354 220.024,132.978C219.568,133.396 219.082,133.302 218.515,133.322C217.775,133.348 217.598,133.284 216.893,133.542C216.305,133.757 216.18,133.887 215.78,134.322C215.62,134.496 215.402,134.899 215.216,134.752C215.003,134.584 215.026,133.81 215.015,133.719C214.937,133.103 214.9,132.819 214.551,132.287C214.209,131.767 213.984,131.634 213.456,131.345C212.713,130.939 212.111,130.836 212.815,129.952C213.082,129.617 213.396,129.322 213.706,129.026C213.947,128.796 214.709,128.045 215.184,127.955C215.787,127.841 215.811,128.818 216.115,129.123C216.662,129.673 217.589,129.801 218.319,129.726M235.23,129C235.587,129.332 235.948,129.663 236.271,130.028C236.817,130.643 236.512,130.88 235.689,131C235.141,131.08 234.838,131.1 234.461,131.546C233.87,132.247 234.169,133.122 233.8,133.899C232.95,135.688 230.053,135.264 229.004,133.955C227.314,131.846 228.337,128.055 231.109,127.55C232.64,127.271 234.132,127.977 235.23,129M115.502,211.831C114.571,212.762 112.87,211.984 111.571,212.195C108.57,212.682 107.37,213.168 104.928,215.223C101.851,217.811 102.598,218.232 100.384,221.608C99.04,223.657 97.831,224.195 96.29,226C94.47,228.132 93.701,230.867 92.159,233.193C90.901,235.09 88.916,236.585 88.17,238.735C87.391,240.985 87.356,243.521 87.768,245.866C88.953,252.623 91.518,253.918 96.51,257.998C106.773,266.385 122.23,268.241 134.787,264.37C138.936,263.091 142.873,261.191 147,259.841C151.366,258.413 155.056,258.275 158.992,255.75C159.842,255.204 161.813,254.468 162.27,253.577C162.838,252.47 162.538,251.073 163,249.918C164.137,247.074 166.027,248.024 166,245C165.975,242.203 163.686,243.849 162.376,241.255C161.313,239.149 161.967,236.456 160.967,234.32C158.695,229.467 155.252,227.545 151.224,224.571C148.65,222.67 149.77,221.931 147.63,219.534C146.24,217.978 141.435,216.813 140.259,216.143C139.022,215.438 138.187,214.169 137,213.382C132.455,210.368 124.867,210.561 119.713,210.917C118.28,211.016 116.518,210.815 115.502,211.831"/>
    </g>
</svg>
