<svg id="svg" xmlns="http://www.w3.org/2000/svg" xmlns:xlink="http://www.w3.org/1999/xlink" width="400" height="400" viewBox="0, 0, 400,400"><g id="svgg"><path id="path0" d="M105.155 139.389 C 98.690 140.329,96.174 143.601,98.392 148.182 C 99.862 151.221,100.918 151.498,109.057 150.983 C 127.475 149.817,142.287 166.824,138.162 184.400 C 136.732 190.490,137.140 192.600,140.096 194.402 C 149.835 200.340,154.193 177.540,146.408 161.383 C 139.001 146.012,121.986 136.940,105.155 139.389 M55.400 157.351 C 29.698 164.800,1.159 196.735,0.130 219.200 C -1.792 261.140,81.253 276.649,119.088 241.415 C 136.913 224.816,134.786 205.390,114.350 198.140 C 109.793 196.524,109.795 196.527,111.405 191.485 C 116.557 175.352,102.279 169.092,79.719 177.594 C 73.097 180.089,72.786 179.955,74.021 175.119 C 77.664 160.849,69.666 153.217,55.400 157.351 M105.370 160.358 C 99.372 163.082,102.537 170.311,109.472 169.729 C 116.330 169.154,120.777 174.116,119.632 181.065 C 118.845 185.836,120.847 188.663,124.730 188.268 C 132.021 187.525,131.760 172.598,124.326 165.165 C 119.474 160.312,110.488 158.034,105.370 160.358 M265.528 166.357 C 263.046 167.210,263.064 167.175,263.745 169.782 C 264.474 172.572,264.995 172.368,256.828 172.497 L 250.257 172.600 249.924 173.800 C 249.742 174.460,249.072 176.980,248.436 179.400 C 241.518 205.724,239.425 213.094,238.519 214.311 C 237.553 215.608,237.550 215.642,238.220 217.396 L 238.897 219.170 240.349 218.536 C 243.227 217.279,249.463 214.943,252.508 213.981 C 255.544 213.023,255.626 212.963,256.032 211.400 C 256.261 210.520,256.547 209.459,256.669 209.041 C 256.933 208.141,257.392 208.027,249.700 210.760 C 246.565 211.874,244.000 212.680,244.000 212.552 C 244.000 212.313,246.763 201.889,247.831 198.100 L 248.422 196.000 251.604 196.000 C 254.750 196.000,254.787 196.012,255.023 197.100 C 257.274 207.502,262.515 213.936,271.246 217.016 L 272.955 217.619 275.072 215.529 L 277.189 213.438 273.796 212.332 C 270.660 211.310,266.443 209.041,265.827 208.043 C 265.670 207.789,268.193 206.331,272.144 204.392 L 278.723 201.163 277.740 199.405 L 276.757 197.646 274.696 198.861 C 272.450 200.186,263.352 204.800,262.986 204.800 C 262.570 204.800,259.973 198.941,259.733 197.462 L 259.495 196.000 265.748 196.000 C 271.786 196.000,272.000 196.028,272.000 196.821 C 272.000 197.558,272.210 197.629,274.053 197.521 L 276.107 197.400 278.252 189.400 C 280.441 181.237,282.300 174.356,282.656 173.100 C 282.839 172.453,282.338 172.400,276.042 172.400 L 269.231 172.400 268.792 170.700 C 268.550 169.765,268.138 168.260,267.876 167.357 L 267.400 165.713 265.528 166.357 M190.400 166.667 C 189.630 167.003,188.943 167.332,188.874 167.398 C 188.749 167.518,189.436 170.306,189.865 171.425 C 190.051 171.909,189.158 172.000,184.233 172.000 C 177.767 172.000,178.338 171.773,177.426 174.700 L 177.146 175.600 190.149 175.600 C 197.301 175.600,203.237 175.464,203.340 175.297 C 203.443 175.130,203.654 174.320,203.808 173.497 L 204.089 172.000 198.745 171.994 C 195.563 171.990,193.622 171.847,193.949 171.640 C 194.407 171.350,194.372 170.873,193.738 168.750 C 192.903 165.954,192.545 165.731,190.400 166.667 M353.441 166.700 C 353.240 167.366,350.953 175.901,350.018 179.483 L 349.578 181.165 346.714 181.283 L 343.850 181.400 343.366 183.300 L 342.883 185.200 345.641 185.200 C 347.159 185.200,348.400 185.288,348.400 185.397 C 348.400 185.505,347.340 189.510,346.045 194.297 C 341.282 211.899,339.600 218.225,339.600 218.530 C 339.600 218.701,340.540 218.787,341.689 218.721 L 343.777 218.600 346.042 210.200 C 347.288 205.580,349.240 198.290,350.378 194.000 C 351.517 189.710,352.522 185.975,352.612 185.700 C 352.720 185.368,353.649 185.200,355.375 185.200 L 357.976 185.200 358.531 183.300 L 359.087 181.400 356.543 181.282 C 355.145 181.217,354.000 181.009,354.000 180.821 C 354.000 180.633,354.810 177.446,355.799 173.739 C 356.789 170.033,357.599 166.775,357.599 166.500 C 357.601 165.652,353.703 165.839,353.441 166.700 M379.878 166.300 C 379.786 166.465,379.396 167.905,379.012 169.500 L 378.314 172.400 369.820 172.400 L 361.327 172.400 360.863 173.946 C 360.608 174.797,360.400 175.607,360.400 175.746 C 360.400 175.886,364.180 176.000,368.800 176.000 C 373.420 176.000,377.200 176.153,377.200 176.340 C 377.200 176.527,377.002 177.247,376.761 177.940 L 376.322 179.200 369.384 179.200 C 365.569 179.200,362.348 179.361,362.226 179.558 C 362.104 179.755,360.772 184.525,359.265 190.158 L 356.526 200.400 358.623 200.400 L 360.720 200.400 361.200 198.400 L 361.680 196.400 366.640 196.400 C 371.995 196.400,372.030 196.417,371.210 198.574 C 370.821 199.596,370.827 199.600,372.970 199.600 L 375.121 199.600 375.475 198.100 L 375.829 196.600 380.935 196.488 L 386.041 196.376 385.776 197.788 L 385.511 199.200 387.540 199.200 C 389.548 199.200,389.573 199.185,389.962 197.700 C 390.177 196.875,391.354 192.454,392.577 187.875 C 393.800 183.296,394.800 179.471,394.800 179.375 C 394.800 179.279,391.585 179.200,387.656 179.200 L 380.511 179.200 380.938 177.600 L 381.365 176.000 390.264 176.000 L 399.162 176.000 399.579 174.500 C 399.808 173.675,399.997 172.865,399.998 172.700 C 399.999 172.535,398.545 172.400,396.766 172.400 L 393.533 172.400 394.788 170.815 L 396.043 169.231 392.852 167.626 L 389.660 166.021 388.472 167.503 L 387.283 168.985 390.341 170.681 L 393.400 172.376 387.900 172.388 C 384.875 172.395,382.400 172.354,382.400 172.299 C 382.400 172.243,382.760 170.939,383.200 169.400 C 383.640 167.861,384.000 166.467,384.000 166.301 C 384.000 165.909,380.099 165.907,379.878 166.300 M330.115 172.057 C 327.108 178.263,325.011 181.868,321.943 186.105 L 319.984 188.810 320.867 190.005 C 322.009 191.550,322.158 191.523,323.644 189.500 C 324.331 188.565,324.794 188.160,324.673 188.600 C 324.011 191.013,323.532 197.426,323.762 200.800 L 324.021 204.600 320.310 208.231 C 317.366 211.113,314.097 213.976,312.025 215.489 C 311.928 215.560,312.249 216.440,312.738 217.446 L 313.626 219.275 315.913 217.372 C 317.171 216.325,319.748 213.954,321.639 212.103 L 325.079 208.737 326.000 211.200 C 326.994 213.858,329.745 218.400,330.360 218.400 C 330.568 218.400,331.451 217.565,332.324 216.544 L 333.910 214.689 332.529 212.880 C 328.261 207.288,327.932 205.230,330.622 200.961 C 333.316 196.687,335.648 191.901,338.252 185.300 C 340.166 180.447,340.197 180.400,341.473 180.400 C 342.622 180.400,342.808 180.237,343.179 178.900 C 343.904 176.291,344.140 176.400,337.767 176.400 C 334.558 176.400,331.995 176.265,332.071 176.100 C 332.147 175.935,333.164 173.846,334.330 171.459 C 335.496 169.071,336.387 167.054,336.310 166.977 C 336.233 166.900,335.434 166.719,334.534 166.575 L 332.897 166.313 330.115 172.057 M237.694 168.304 C 236.755 169.127,235.990 169.935,235.994 170.101 C 236.000 170.415,242.415 178.000,242.673 178.000 C 242.961 178.000,246.800 175.026,246.784 174.815 C 246.775 174.697,245.110 172.847,243.084 170.704 L 239.400 166.808 237.694 168.304 M297.839 171.042 C 295.661 173.360,292.466 176.458,290.739 177.926 C 287.572 180.618,286.438 183.235,288.017 184.211 C 289.062 184.856,304.800 170.066,304.800 168.439 C 304.800 168.123,302.625 166.794,302.138 166.813 C 301.952 166.820,300.018 168.723,297.839 171.042 M313.987 168.500 C 310.516 181.790,311.146 180.400,308.597 180.400 L 306.455 180.400 307.618 176.100 C 308.258 173.735,308.786 171.665,308.791 171.500 C 308.796 171.335,307.995 171.200,307.011 171.200 L 305.222 171.200 304.628 173.300 C 304.302 174.455,303.499 177.425,302.845 179.900 L 301.656 184.400 309.791 184.400 C 317.728 184.400,317.920 184.419,317.716 185.200 C 317.529 185.914,317.704 186.000,319.342 186.000 L 321.178 186.000 321.769 183.900 C 322.785 180.290,325.200 171.188,325.200 170.967 C 325.200 170.851,324.358 170.811,323.329 170.878 L 321.458 171.000 320.239 175.700 L 319.021 180.400 316.910 180.400 C 314.390 180.400,314.436 180.988,316.400 173.849 C 318.418 166.512,318.426 166.800,316.215 166.800 C 314.452 166.800,314.426 166.820,313.987 168.500 M227.984 168.549 C 227.594 168.936,218.350 170.044,213.242 170.315 L 207.883 170.600 206.989 173.800 C 206.497 175.560,205.064 180.870,203.803 185.600 C 199.535 201.612,197.158 206.743,191.182 212.851 L 188.816 215.269 189.708 216.831 C 190.892 218.906,191.120 218.846,194.005 215.700 C 199.680 209.513,202.974 203.093,206.370 191.600 C 206.657 190.628,206.780 190.597,210.765 190.486 C 213.020 190.423,214.772 190.522,214.658 190.706 C 214.544 190.890,212.899 196.882,211.001 204.020 C 209.104 211.159,207.460 217.315,207.349 217.700 C 207.174 218.304,207.437 218.400,209.277 218.400 L 211.409 218.400 213.149 211.900 C 214.107 208.325,215.802 202.025,216.916 197.900 L 218.941 190.400 222.831 190.400 L 226.722 190.400 227.161 189.140 C 228.018 186.682,228.503 186.800,217.573 186.800 C 208.206 186.800,207.561 186.754,207.767 186.100 C 208.025 185.283,209.322 180.475,210.241 176.933 L 210.881 174.465 214.340 174.217 C 216.243 174.080,219.240 173.806,221.000 173.609 C 222.760 173.411,225.514 173.129,227.119 172.982 L 230.039 172.715 229.919 170.657 C 229.808 168.736,228.847 167.690,227.984 168.549 M277.195 176.700 C 277.192 177.085,276.866 178.480,276.471 179.800 L 275.753 182.200 263.921 182.306 L 252.089 182.412 252.894 179.206 L 253.699 176.000 265.449 176.000 C 276.376 176.000,277.200 176.049,277.195 176.700 M180.904 177.429 L 179.256 178.412 180.428 180.997 C 182.039 184.551,182.174 184.400,177.390 184.400 C 173.239 184.400,173.175 184.414,172.790 185.426 C 171.745 188.174,170.784 188.000,186.982 188.000 L 201.564 188.000 201.825 186.608 C 201.968 185.843,202.068 185.078,202.047 184.908 C 202.025 184.739,200.293 184.510,198.197 184.400 L 194.388 184.200 197.367 181.600 C 200.812 178.594,200.848 178.497,199.001 177.300 C 197.178 176.119,197.664 175.854,193.270 180.428 L 189.400 184.455 186.200 184.328 L 183.000 184.200 184.509 183.308 L 186.018 182.416 184.619 179.638 C 182.894 176.213,182.919 176.228,180.904 177.429 M335.787 181.300 C 333.973 187.405,327.862 199.857,327.398 198.395 C 326.735 196.306,327.941 185.906,329.427 180.900 C 329.529 180.553,330.569 180.400,332.814 180.400 C 335.986 180.400,336.048 180.419,335.787 181.300 M231.628 182.415 L 229.857 183.945 233.392 187.673 C 237.665 192.179,236.998 191.943,239.400 189.789 L 241.400 187.995 238.000 184.785 C 233.465 180.503,233.729 180.601,231.628 182.415 M296.745 182.500 C 294.859 185.197,290.342 190.333,286.638 193.992 C 282.867 197.718,282.800 197.817,282.800 199.668 C 282.800 202.305,283.063 202.280,286.317 199.339 C 287.903 197.906,289.200 196.864,289.200 197.024 C 289.200 197.183,288.862 198.503,288.449 199.957 C 288.035 201.411,287.315 204.040,286.848 205.800 C 286.382 207.560,285.460 210.966,284.800 213.369 C 283.233 219.076,283.207 218.869,285.481 218.722 L 287.362 218.600 288.436 214.600 C 289.027 212.400,290.719 206.104,292.197 200.608 L 294.884 190.616 297.517 187.408 C 298.965 185.644,300.405 183.894,300.718 183.521 C 301.226 182.913,301.144 182.754,299.943 182.022 C 298.147 180.927,297.810 180.978,296.745 182.500 M375.200 183.150 C 375.200 183.343,375.088 184.063,374.950 184.750 L 374.700 186.000 369.606 186.000 L 364.511 186.000 364.938 184.400 L 365.365 182.800 370.283 182.800 C 372.987 182.800,375.200 182.958,375.200 183.150 M389.385 184.100 C 389.231 184.815,389.026 185.535,388.929 185.700 C 388.401 186.597,378.742 186.013,379.005 185.100 C 379.147 184.605,379.351 183.885,379.459 183.500 C 379.631 182.881,380.233 182.800,384.659 182.800 L 389.664 182.800 389.385 184.100 M274.632 186.661 C 274.492 187.025,274.091 188.465,273.741 189.861 L 273.103 192.400 261.351 192.400 C 254.888 192.400,249.597 192.265,249.594 192.100 C 249.591 191.935,249.906 190.495,250.294 188.900 L 251.000 186.001 262.943 186.000 C 273.884 186.000,274.864 186.055,274.632 186.661 M301.175 190.500 C 300.924 191.435,300.637 192.335,300.536 192.500 C 300.435 192.665,304.392 192.800,309.329 192.800 L 318.305 192.800 318.753 191.023 C 318.999 190.045,319.200 189.145,319.200 189.023 C 319.200 188.900,315.247 188.800,310.415 188.800 L 301.631 188.800 301.175 190.500 M183.926 191.900 L 183.365 194.200 177.600 194.400 C 171.863 194.599,171.833 194.605,171.557 195.600 C 170.869 198.080,170.701 198.000,176.600 198.000 C 183.015 198.000,182.607 197.131,180.225 205.729 C 178.039 213.617,178.053 213.600,173.738 213.600 C 170.741 213.600,170.400 213.677,170.400 214.350 C 170.400 214.763,170.288 215.663,170.150 216.350 L 169.900 217.600 173.796 217.600 C 181.283 217.600,181.319 217.547,185.986 199.700 L 186.431 198.000 191.825 198.000 L 197.220 198.000 197.610 196.974 C 198.577 194.431,198.518 194.400,192.800 194.400 C 187.023 194.400,187.260 194.549,188.185 191.500 L 188.762 189.600 186.624 189.600 L 184.486 189.600 183.926 191.900 M373.446 190.300 C 373.332 190.685,373.120 191.495,372.976 192.100 L 372.713 193.200 367.757 193.200 C 362.359 193.200,362.413 193.228,363.239 190.860 L 363.678 189.600 368.666 189.600 C 373.229 189.600,373.636 189.660,373.446 190.300 M387.458 191.300 L 386.966 193.000 381.852 193.112 C 377.107 193.216,376.754 193.173,376.950 192.512 C 377.067 192.120,377.280 191.305,377.424 190.700 L 377.687 189.600 382.818 189.600 L 387.949 189.600 387.458 191.300 M72.477 193.225 C 95.139 195.739,110.123 211.893,103.909 227.112 C 93.293 253.110,43.568 261.214,22.367 240.400 C 0.223 218.660,32.009 188.735,72.477 193.225 M233.351 199.102 C 231.252 202.914,226.580 210.946,224.756 213.879 C 222.708 217.173,222.706 217.146,224.966 218.051 C 227.412 219.031,226.763 219.765,232.613 209.400 C 235.221 204.780,237.692 200.424,238.105 199.721 L 238.855 198.441 236.846 197.423 L 234.836 196.405 233.351 199.102 M299.803 198.100 C 299.708 198.375,299.164 200.291,298.593 202.357 C 297.231 207.290,295.953 209.725,293.436 212.182 L 291.367 214.202 291.938 215.701 C 292.658 217.592,293.058 217.578,295.322 215.585 C 298.042 213.191,300.248 209.544,301.664 205.100 L 302.907 201.200 306.306 201.200 L 309.705 201.200 309.493 202.500 C 309.049 205.227,307.898 208.474,307.007 209.510 L 306.080 210.588 306.889 212.194 C 307.334 213.077,307.749 213.857,307.810 213.927 C 307.871 213.998,309.337 213.008,311.067 211.727 C 312.797 210.447,315.314 208.689,316.660 207.820 C 319.018 206.298,319.116 206.167,319.344 204.244 C 319.659 201.582,319.713 201.583,316.000 204.200 C 314.215 205.458,312.690 206.423,312.612 206.344 C 312.487 206.217,313.849 200.767,314.584 198.451 C 314.912 197.417,300.158 197.067,299.803 198.100 M380.574 201.000 L 380.311 202.400 366.146 202.400 L 351.980 202.400 351.644 203.300 C 351.458 203.795,351.181 204.605,351.026 205.100 L 350.746 206.000 364.973 206.000 C 372.798 206.000,379.197 206.045,379.193 206.100 C 379.125 207.100,377.505 212.286,377.039 212.997 C 376.208 214.265,374.421 214.570,369.803 214.231 L 366.084 213.958 365.912 215.879 C 365.694 218.323,365.180 218.097,371.086 218.151 C 378.852 218.221,380.459 217.075,382.414 210.076 L 383.497 206.200 387.914 206.087 L 392.331 205.974 392.765 204.728 C 393.578 202.396,393.586 202.400,388.828 202.400 L 384.456 202.400 384.828 201.103 C 385.033 200.389,385.200 199.759,385.200 199.703 C 385.200 199.646,384.218 199.600,383.018 199.600 C 380.841 199.600,380.836 199.603,380.574 201.000 M171.903 203.900 C 170.420 205.825,168.481 208.238,167.594 209.262 L 165.981 211.123 167.338 211.962 C 168.084 212.423,168.870 212.800,169.085 212.800 C 169.551 212.800,176.778 204.225,177.752 202.515 C 177.968 202.136,175.475 200.399,174.716 200.400 C 174.652 200.400,173.387 201.975,171.903 203.900 M188.600 201.669 C 187.720 202.126,186.939 202.554,186.865 202.619 C 186.740 202.728,189.524 210.042,189.799 210.328 C 189.920 210.453,192.488 209.177,193.520 208.480 C 194.067 208.110,191.340 201.159,190.562 200.939 C 190.363 200.883,189.480 201.212,188.600 201.669 M55.400 204.655 C 35.769 208.641,26.508 227.023,37.937 239.318 C 50.900 253.263,77.737 245.006,80.838 226.118 C 82.907 213.518,69.104 201.873,55.400 204.655 M358.034 207.665 L 356.667 208.907 359.634 211.607 L 362.600 214.307 363.600 213.560 C 366.382 211.481,366.254 211.721,365.185 210.584 C 363.926 209.243,360.226 206.397,359.763 206.412 C 359.563 206.418,358.785 206.982,358.034 207.665 M64.069 219.462 C 65.718 220.955,64.074 224.000,61.618 224.000 C 60.216 224.000,58.800 222.785,58.800 221.582 C 58.800 219.410,62.407 217.958,64.069 219.462 M54.124 222.991 C 57.619 224.649,58.616 229.400,56.193 232.848 C 51.808 239.088,41.600 237.462,41.600 230.525 C 41.600 224.622,48.639 220.388,54.124 222.991 M225.421 227.428 C 225.274 228.214,225.054 229.114,224.934 229.428 C 224.760 229.881,225.169 230.000,226.894 230.000 L 229.073 230.000 229.537 228.454 C 230.251 226.070,230.203 226.000,227.845 226.000 C 225.690 226.000,225.689 226.000,225.421 227.428 M237.008 228.232 C 235.981 231.763,229.601 255.767,229.600 256.100 C 229.599 257.206,231.524 256.202,232.565 254.555 L 233.730 252.711 234.456 253.656 C 234.855 254.175,235.186 254.719,235.191 254.864 C 235.222 255.768,238.989 256.894,241.346 256.705 C 252.368 255.820,259.625 238.043,250.631 233.959 C 247.525 232.548,244.083 233.067,240.700 235.456 C 239.655 236.195,238.800 236.727,238.800 236.639 C 238.800 236.552,239.430 234.181,240.200 231.372 C 240.970 228.562,241.600 226.204,241.600 226.132 C 241.600 226.059,240.713 226.000,239.628 226.000 L 237.657 226.000 237.008 228.232 M202.357 234.121 C 188.570 239.918,188.715 258.094,202.536 256.649 C 207.697 256.109,215.467 250.701,212.300 249.852 C 210.568 249.388,209.740 249.610,208.575 250.850 C 203.153 256.621,193.032 252.020,197.006 245.590 C 197.151 245.355,200.802 245.200,206.181 245.200 C 216.415 245.200,215.600 245.554,215.600 241.102 C 215.600 234.457,209.370 231.173,202.357 234.121 M268.101 233.760 C 258.397 236.927,253.539 250.909,260.534 255.536 C 266.165 259.260,276.639 254.535,279.645 246.914 C 283.274 237.714,277.199 230.792,268.101 233.760 M306.305 233.786 C 296.124 237.661,292.301 253.936,301.005 256.353 C 306.087 257.763,311.699 255.557,314.752 250.947 C 316.140 248.851,315.966 248.417,313.733 248.406 C 312.711 248.401,312.296 248.673,311.595 249.809 C 309.090 253.862,303.120 255.055,301.189 251.889 C 299.648 249.362,300.725 243.333,303.328 239.921 C 307.076 235.008,313.496 234.966,314.229 239.851 C 314.495 241.628,314.537 241.673,315.701 241.440 C 316.361 241.308,317.148 241.200,317.450 241.200 C 319.288 241.200,317.534 236.062,315.073 234.239 C 313.642 233.178,308.586 232.917,306.305 233.786 M330.339 233.829 C 324.207 235.716,318.908 243.747,319.749 249.881 C 321.148 260.089,336.604 258.602,341.673 247.770 C 346.229 238.033,340.315 230.758,330.339 233.829 M358.800 234.031 C 357.810 234.478,356.298 235.509,355.441 236.322 C 354.584 237.135,353.988 237.498,354.118 237.128 C 354.247 236.759,354.476 235.803,354.626 235.003 L 354.899 233.549 353.186 233.675 L 351.474 233.800 349.536 241.000 C 348.470 244.960,347.149 249.827,346.599 251.816 C 345.275 256.608,345.248 256.467,347.457 256.322 L 349.315 256.200 351.250 249.068 C 354.024 238.842,355.826 236.400,360.599 236.400 C 364.958 236.400,365.144 237.578,362.400 247.800 C 359.928 257.008,359.937 256.474,362.258 256.322 L 364.117 256.200 365.988 249.200 C 368.702 239.052,370.721 236.400,375.733 236.400 C 379.697 236.400,379.914 238.160,377.200 248.316 C 376.101 252.432,375.201 255.935,375.200 256.100 C 375.200 256.492,378.696 256.491,378.939 256.099 C 379.252 255.593,382.706 242.767,383.257 240.069 C 384.709 232.951,376.160 230.580,370.167 236.438 L 368.535 238.034 367.907 236.435 C 366.688 233.332,362.685 232.276,358.800 234.031 M161.320 238.076 C 162.282 256.091,162.330 256.400,164.182 256.400 C 165.815 256.400,165.516 256.805,171.215 246.890 C 175.455 239.515,175.394 239.524,175.745 246.200 C 175.884 248.840,176.114 252.224,176.258 253.720 L 176.519 256.440 178.093 256.320 L 179.667 256.200 186.181 245.200 C 192.965 233.744,193.030 233.596,191.276 233.606 C 189.688 233.615,189.735 233.555,184.573 242.088 L 179.800 249.975 179.535 247.488 C 179.389 246.119,179.154 242.840,179.012 240.200 C 178.655 233.577,178.662 233.600,177.026 233.600 C 175.679 233.600,175.621 233.678,170.833 241.891 C 166.267 249.724,165.998 250.094,165.970 248.591 C 165.954 247.716,165.729 244.030,165.470 240.400 L 165.000 233.800 163.039 233.676 L 161.079 233.551 161.320 238.076 M223.811 234.100 C 223.721 234.375,222.737 238.020,221.625 242.200 C 220.514 246.380,219.243 251.089,218.802 252.665 C 217.731 256.490,217.703 256.400,219.956 256.400 L 221.911 256.400 222.582 253.900 C 222.951 252.525,224.294 247.530,225.567 242.800 C 226.840 238.070,227.808 234.065,227.717 233.900 C 227.434 233.383,223.988 233.560,223.811 234.100 M209.403 236.628 C 210.966 237.370,211.703 238.903,211.527 241.049 L 211.400 242.600 204.700 242.710 C 197.291 242.831,197.451 242.906,199.300 240.160 C 201.633 236.695,206.188 235.103,209.403 236.628 M248.599 237.300 C 253.292 241.349,247.568 253.723,241.000 253.728 C 235.897 253.732,234.832 250.917,237.050 243.286 C 238.615 237.903,245.288 234.444,248.599 237.300 M275.040 237.760 C 278.203 240.923,275.383 250.059,270.437 252.670 C 263.856 256.143,259.742 250.979,262.785 243.067 C 265.110 237.021,271.524 234.244,275.040 237.760 M337.492 237.812 C 339.299 239.619,339.279 243.405,337.442 247.422 C 333.324 256.426,322.690 255.748,324.363 246.589 C 325.888 238.239,333.098 233.418,337.492 237.812 M283.428 253.362 C 282.524 256.473,282.472 256.400,285.547 256.400 L 288.295 256.400 288.947 254.074 C 289.306 252.794,289.600 251.624,289.600 251.474 C 289.600 251.323,288.353 251.200,286.828 251.200 L 284.057 251.200 283.428 253.362 " stroke="none" fill="#000000" fill-rule="evenodd"></path></g></svg>