<svg xmlns="http://www.w3.org/2000/svg" width="400" height="400" viewBox="0, 0, 400,400">
<g>
<path d="M282.167 38.215 C 272.026 39.423,267.947 40.763,264.680 43.961 C 256.332 52.129,259.742 66.217,270.902 69.664 C 273.613 70.501,276.175 70.504,280.741 69.673 C 336.268 59.579,382.263 111.173,366.271 165.615 C 359.967 187.076,389.071 196.137,395.808 174.811 C 399.169 164.170,399.833 159.005,399.833 143.500 C 399.833 129.005,399.743 127.994,397.664 119.161 C 385.405 67.086,335.197 31.898,282.167 38.215 M160.080 83.701 C 108.300 89.724,31.452 157.033,7.891 217.000 C -13.989 272.689,10.872 318.826,77.000 345.250 C 159.689 378.292,265.786 361.358,320.678 306.357 C 365.588 261.357,356.480 210.417,300.500 193.501 C 293.035 191.246,292.207 189.726,294.672 182.803 C 300.865 165.411,300.915 153.699,294.835 144.300 C 283.086 126.139,249.862 125.170,208.000 141.767 C 199.720 145.050,196.555 145.321,195.370 142.847 C 194.834 141.729,194.862 141.555,196.766 134.329 C 205.841 99.874,191.476 80.050,160.080 83.701 M286.635 92.490 C 280.903 93.426,277.721 95.171,275.395 98.653 C 270.829 105.491,273.231 114.445,280.606 118.077 C 283.051 119.282,281.984 119.213,294.000 118.942 C 310.938 118.561,322.678 133.639,318.461 150.359 C 315.830 160.795,321.085 168.500,330.833 168.500 C 341.028 168.500,345.991 160.302,345.998 143.450 C 346.011 112.139,317.290 87.484,286.635 92.490 M184.890 180.509 C 283.141 188.476,314.124 269.580,236.751 316.266 C 158.952 363.208,40.527 332.871,40.527 266.000 C 40.527 222.603,93.299 184.451,159.167 180.227 C 164.403 179.891,179.284 180.054,184.890 180.509 M152.000 212.020 C 110.180 215.186,79.224 253.035,90.675 287.003 C 106.389 333.617,180.915 334.896,207.932 289.015 C 230.496 250.697,199.772 208.404,152.000 212.020 M169.253 249.918 C 172.381 251.541,173.503 255.099,171.994 258.608 C 168.713 266.234,156.642 265.469,156.674 257.637 C 156.699 251.588,163.925 247.153,169.253 249.918 M141.169 259.351 C 158.143 264.541,157.739 286.690,140.512 295.332 C 122.046 304.596,103.795 289.428,112.509 272.061 C 117.664 261.786,130.507 256.091,141.169 259.351 " stroke="none" fill-rule="evenodd"></path>
</g>
</svg>