<svg xmlns="http://www.w3.org/2000/svg" width="400" height="400" viewBox="0, 0, 400,400" version="1.1"><g><path d="M159.215 101.500 C 148.131 105.332,146.969 119.918,157.340 125.021 C 169.273 130.893,181.190 116.995,173.469 106.212 C 170.394 101.918,164.060 99.824,159.215 101.500 M23.750 135.443 C 7.649 138.292,-0.924 149.069,2.347 162.348 C 4.556 171.319,9.645 175.029,25.063 178.910 C 36.886 181.885,38.746 182.980,38.749 186.969 C 38.755 194.906,24.703 194.614,22.982 186.641 L 22.763 185.625 11.381 185.625 L 0.000 185.625 0.000 187.064 C 0.000 210.741,50.725 217.427,61.392 195.156 C 65.689 186.184,63.269 175.151,55.849 169.889 C 51.971 167.139,49.788 166.304,38.125 163.113 C 28.149 160.384,26.406 159.266,26.406 155.594 C 26.406 148.401,38.456 148.505,39.536 155.707 L 39.758 157.188 51.442 157.188 L 63.125 157.188 63.120 155.703 C 63.084 145.913,55.792 138.647,43.276 135.927 C 39.306 135.065,27.538 134.773,23.750 135.443 M72.813 171.875 L 72.813 206.875 83.903 206.875 L 94.994 206.875 95.075 191.956 L 95.156 177.038 105.586 191.956 L 116.016 206.875 129.765 206.875 C 140.716 206.875,143.453 206.796,143.213 206.484 C 143.047 206.270,138.292 199.836,132.645 192.188 C 126.998 184.539,121.013 176.437,119.346 174.183 L 116.314 170.084 129.563 153.758 C 136.850 144.779,142.812 137.307,142.812 137.154 C 142.813 136.995,137.206 136.875,129.762 136.875 L 116.711 136.875 105.933 151.376 L 95.156 165.876 95.075 151.376 L 94.994 136.875 83.903 136.875 L 72.813 136.875 72.813 171.875 M151.875 171.875 L 151.875 206.875 162.969 206.875 L 174.063 206.875 174.063 171.875 L 174.063 136.875 162.969 136.875 L 151.875 136.875 151.875 171.875 M186.563 171.875 L 186.563 206.875 213.594 206.875 L 240.625 206.875 240.625 196.406 L 240.625 185.938 224.844 185.938 L 209.063 185.938 209.063 161.406 L 209.063 136.875 197.813 136.875 L 186.563 136.875 186.563 171.875 M252.188 171.875 L 252.188 206.875 279.219 206.875 L 306.250 206.875 306.250 196.406 L 306.250 185.938 290.469 185.938 L 274.688 185.938 274.688 161.406 L 274.688 136.875 263.438 136.875 L 252.188 136.875 252.188 171.875 M24.250 225.805 C 7.882 228.350,-1.119 239.444,2.338 252.813 C 4.697 261.936,9.755 265.520,25.938 269.533 C 37.379 272.371,39.057 273.482,38.684 277.977 C 38.086 285.186,25.107 284.723,23.109 277.422 L 22.788 276.250 11.349 276.250 L -0.091 276.250 0.095 278.359 C 1.186 290.746,14.047 298.854,32.656 298.887 C 52.806 298.922,63.962 290.241,63.355 275.000 C 62.914 263.954,57.573 258.903,41.719 254.542 C 28.760 250.977,26.958 250.103,26.399 247.109 C 24.999 239.608,37.864 238.066,39.410 245.550 L 39.813 247.500 51.469 247.500 L 63.125 247.500 63.120 246.016 C 63.067 231.675,45.442 222.511,24.250 225.805 M178.096 226.111 C 145.771 231.964,141.458 285.976,172.422 297.180 C 184.644 301.603,199.059 298.270,205.366 289.564 L 206.250 288.344 206.250 292.766 L 206.250 297.188 217.500 297.188 L 228.750 297.188 228.750 262.344 L 228.750 227.500 217.500 227.500 L 206.250 227.500 206.234 231.953 C 206.218 236.183,206.192 236.367,205.708 235.625 C 200.746 228.009,189.332 224.076,178.096 226.111 M322.656 226.115 C 304.097 228.949,293.004 242.505,293.010 262.344 C 293.018 285.775,306.863 299.052,331.297 299.061 C 350.070 299.067,362.985 290.799,366.072 276.797 L 366.262 275.938 355.200 275.938 L 344.138 275.938 343.753 276.867 C 341.077 283.327,325.739 284.204,319.384 278.260 C 317.091 276.114,315.327 272.296,315.316 269.453 L 315.313 268.438 340.918 268.438 L 366.524 268.438 366.777 266.953 C 367.236 264.263,367.035 253.823,366.479 251.396 C 362.257 232.986,344.551 222.772,322.656 226.115 M277.885 226.836 C 271.745 228.393,267.004 232.593,264.492 238.701 L 263.765 240.469 263.757 233.984 L 263.750 227.500 252.500 227.500 L 241.250 227.500 241.250 262.344 L 241.250 297.188 252.478 297.188 L 263.706 297.188 263.823 280.547 L 263.940 263.906 264.751 260.913 C 267.423 251.048,272.467 247.346,283.203 247.370 L 288.750 247.383 288.750 237.162 C 288.750 227.726,288.708 226.924,288.203 226.707 C 286.935 226.163,280.208 226.247,277.885 226.836 M72.813 262.500 L 72.813 297.500 83.750 297.500 L 94.688 297.500 94.688 285.156 L 94.688 272.813 107.813 272.813 L 120.938 272.813 120.938 285.156 L 120.938 297.500 132.031 297.500 L 143.125 297.500 143.125 262.500 L 143.125 227.500 132.031 227.500 L 120.938 227.500 120.938 240.000 L 120.938 252.500 107.813 252.500 L 94.688 252.500 94.688 240.000 L 94.688 227.500 83.750 227.500 L 72.813 227.500 72.813 262.500 M333.683 240.949 C 340.458 242.048,344.966 247.118,344.995 253.672 L 345.000 254.688 330.156 254.688 L 315.313 254.688 315.313 253.465 C 315.313 245.288,323.991 239.376,333.683 240.949 M195.169 244.854 C 210.656 248.834,211.563 274.577,196.395 279.644 C 185.201 283.383,175.028 275.866,174.463 263.438 C 173.876 250.540,183.542 241.866,195.169 244.854 M383.750 273.626 C 374.314 276.150,371.113 287.938,377.993 294.819 C 383.864 300.689,393.605 299.591,398.082 292.554 C 404.194 282.950,394.879 270.648,383.750 273.626 " stroke="none" fill-rule="evenodd"></path></g></svg>