<svg version="1.1" width="400" height="400" xmlns="http://www.w3.org/2000/svg">
<g>
<path d="M193.324 4.961 C 187.811 10.630,188.461 9.974,179.217 19.217 C 175.367 23.067,171.767 26.667,171.217 27.217 C 170.667 27.767,167.004 31.431,163.076 35.359 C 159.148 39.286,155.484 42.950,154.934 43.500 C 154.384 44.050,150.912 47.523,147.217 51.217 C 143.523 54.912,139.923 58.512,139.217 59.217 C 138.512 59.923,134.784 63.650,130.934 67.500 C 127.084 71.350,123.612 74.823,123.217 75.217 C 122.823 75.612,119.350 79.075,115.500 82.913 C 111.650 86.752,107.998 90.479,107.384 91.196 C 106.770 91.913,105.308 93.162,104.134 93.971 C 101.540 95.758,101.350 98.659,103.777 99.429 C 104.754 99.739,106.216 100.957,107.027 102.134 C 108.345 104.050,110.117 105.919,114.202 109.702 C 116.144 111.501,118.000 113.841,118.000 114.491 C 118.000 114.972,121.626 119.041,125.780 123.220 C 127.068 124.515,131.485 128.932,132.780 130.220 C 134.080 131.511,140.489 137.920,141.780 139.220 C 143.068 140.515,147.485 144.932,148.780 146.220 C 150.080 147.511,156.489 153.920,157.780 155.220 C 159.068 156.515,163.485 160.932,164.780 162.220 C 166.080 163.511,172.489 169.920,173.780 171.220 C 175.069 172.516,179.525 176.973,180.639 178.078 C 181.756 179.187,188.488 185.919,189.780 187.220 C 190.329 187.771,191.840 189.276,193.139 190.563 C 194.437 191.850,196.037 193.555,196.694 194.350 C 197.351 195.145,198.472 195.991,199.185 196.228 C 200.141 196.547,199.979 197.164,198.571 198.571 C 197.164 199.979,196.547 200.141,196.228 199.185 C 195.991 198.472,195.145 197.351,194.350 196.694 C 193.555 196.037,191.788 194.375,190.425 193.000 C 189.061 191.625,187.620 190.177,187.223 189.783 C 186.284 188.853,179.189 181.757,178.078 180.639 C 176.973 179.525,172.516 175.069,171.220 173.780 C 169.920 172.489,163.511 166.080,162.220 164.780 C 160.932 163.485,156.515 159.068,155.220 157.780 C 153.920 156.489,147.511 150.080,146.220 148.780 C 144.932 147.485,140.515 143.068,139.220 141.780 C 137.920 140.489,131.511 134.080,130.220 132.780 C 129.671 132.229,128.160 130.724,126.861 129.437 C 125.563 128.150,123.920 126.400,123.211 125.548 C 122.501 124.697,121.138 124.000,120.181 124.000 C 119.224 124.000,117.780 123.038,116.971 121.862 C 116.162 120.686,114.500 118.774,113.277 117.612 C 110.480 114.955,109.045 113.520,106.388 110.723 C 105.226 109.500,103.312 107.837,102.134 107.027 C 100.957 106.216,99.739 104.754,99.429 103.777 C 98.659 101.350,95.758 101.540,93.971 104.134 C 93.162 105.308,91.913 106.770,91.196 107.384 C 90.479 107.998,86.815 111.586,83.055 115.359 C 79.294 119.131,75.767 122.667,75.217 123.217 C 74.667 123.767,71.067 127.367,67.217 131.217 C 63.367 135.067,59.831 138.620,59.359 139.112 C 58.886 139.603,57.038 141.310,55.250 142.904 C 53.463 144.498,52.000 146.510,52.000 147.376 C 52.000 149.784,196.653 294.000,199.068 294.000 C 201.832 294.000,294.000 201.826,294.000 199.062 C 294.000 197.746,277.793 180.850,247.000 150.063 C 221.150 124.219,200.000 102.430,200.000 101.644 C 200.000 96.478,204.594 100.564,251.018 147.018 C 277.391 173.408,299.641 195.000,300.461 195.000 C 302.465 195.000,348.000 149.389,348.000 147.382 C 348.000 146.513,346.538 144.498,344.750 142.904 C 342.962 141.310,341.114 139.603,340.641 139.112 C 340.169 138.620,336.633 135.067,332.783 131.217 C 328.933 127.367,325.333 123.767,324.783 123.217 C 324.233 122.667,320.633 119.067,316.783 115.217 C 312.933 111.367,309.333 107.767,308.783 107.217 C 308.233 106.667,304.633 103.067,300.783 99.217 C 296.933 95.367,293.333 91.767,292.783 91.217 C 292.233 90.667,288.696 87.131,284.924 83.359 C 281.152 79.586,277.552 75.986,276.924 75.359 C 276.296 74.731,272.633 71.067,268.783 67.217 C 264.933 63.367,261.269 59.704,260.641 59.076 C 260.014 58.448,256.477 54.912,252.783 51.217 C 249.088 47.523,245.488 43.923,244.783 43.217 C 244.077 42.512,240.414 38.848,236.641 35.076 C 232.869 31.304,229.333 27.767,228.783 27.217 C 228.233 26.667,224.633 23.067,220.783 19.217 C 211.539 9.974,212.189 10.630,206.676 4.961 C 200.670 -1.215,199.330 -1.215,193.324 4.961 M44.500 154.000 C 44.151 155.100,43.461 156.000,42.967 156.000 C 42.473 156.000,38.952 159.199,35.143 163.109 C 31.334 167.018,27.767 170.667,27.217 171.217 C 26.667 171.767,23.067 175.367,19.217 179.217 C 9.974 188.461,10.630 187.811,4.961 193.324 C -1.215 199.330,-1.215 200.670,4.961 206.676 C 10.560 212.121,10.083 211.649,19.359 220.924 C 23.131 224.696,26.667 228.233,27.217 228.783 C 33.350 234.915,42.502 244.067,43.217 244.783 C 43.767 245.333,47.367 248.933,51.217 252.783 C 55.067 256.633,58.667 260.233,59.217 260.783 C 59.767 261.333,63.304 264.869,67.076 268.641 C 70.848 272.414,74.448 276.014,75.076 276.641 C 75.704 277.269,79.367 280.933,83.217 284.783 C 87.067 288.633,90.667 292.233,91.217 292.783 C 91.767 293.333,95.367 296.933,99.217 300.783 C 103.067 304.633,106.667 308.233,107.217 308.783 C 109.707 311.273,122.407 323.973,123.217 324.783 C 123.767 325.333,127.431 328.996,131.359 332.924 C 135.286 336.852,138.886 340.452,139.359 340.924 C 139.831 341.396,143.367 344.933,147.217 348.783 C 151.067 352.633,154.667 356.233,155.217 356.783 C 155.767 357.333,159.304 360.869,163.076 364.641 C 166.848 368.414,170.384 371.950,170.934 372.500 C 171.484 373.050,175.084 376.650,178.934 380.500 C 188.371 389.937,187.870 389.431,193.324 395.039 C 199.330 401.215,200.670 401.215,206.676 395.039 C 212.189 389.370,211.539 390.026,220.783 380.783 C 224.633 376.933,228.296 373.269,228.924 372.641 C 229.552 372.014,233.088 368.477,236.783 364.783 C 240.477 361.088,244.077 357.488,244.783 356.783 C 245.488 356.077,249.216 352.350,253.066 348.500 C 256.916 344.650,260.516 341.050,261.066 340.500 C 261.616 339.950,265.088 336.477,268.783 332.783 C 272.477 329.088,276.077 325.488,276.783 324.783 C 277.488 324.077,281.152 320.414,284.924 316.641 C 288.696 312.869,292.233 309.333,292.783 308.783 C 293.333 308.233,296.933 304.633,300.783 300.783 C 304.633 296.933,308.296 293.269,308.924 292.641 C 309.552 292.014,313.216 288.350,317.066 284.500 C 320.916 280.650,324.516 277.050,325.066 276.500 C 325.616 275.950,329.088 272.477,332.783 268.783 C 336.477 265.088,340.077 261.488,340.783 260.783 C 341.488 260.077,345.216 256.350,349.066 252.500 C 352.916 248.650,356.388 245.177,356.783 244.783 C 362.887 238.678,372.051 229.514,372.783 228.783 C 391.450 210.116,389.030 212.519,395.039 206.676 C 401.215 200.670,401.215 199.330,395.039 193.324 C 389.297 187.740,390.137 188.572,380.924 179.359 C 376.996 175.431,373.333 171.767,372.783 171.217 C 372.233 170.667,368.666 167.018,364.857 163.109 C 361.048 159.199,357.527 156.000,357.033 156.000 C 356.539 156.000,355.849 155.100,355.500 154.000 C 354.231 150.002,350.790 153.204,276.503 227.500 C 234.984 269.025,200.557 303.000,200.000 303.000 C 199.443 303.000,165.016 269.025,123.497 227.500 C 49.210 153.204,45.769 150.002,44.500 154.000 " stroke="none" fill-rule="evenodd"></path>
</g>
</svg>