<svg id="svg" xmlns="http://www.w3.org/2000/svg" xmlns:xlink="http://www.w3.org/1999/xlink" width="400" height="400" viewBox="0, 0, 400,400"><g id="svgg"><path id="path0" d="M104.835 0.765 C 104.415 1.185,101.730 1.676,98.869 1.855 C 96.008 2.034,93.075 2.590,92.352 3.091 C 91.628 3.591,90.088 4.000,88.928 4.000 C 87.768 4.000,85.960 4.448,84.910 4.996 C 83.859 5.544,82.496 5.994,81.880 5.996 C 81.264 5.998,78.864 6.856,76.547 7.902 C 74.229 8.947,70.648 10.466,68.588 11.276 C 66.529 12.087,63.277 13.781,61.363 15.042 C 59.450 16.302,57.640 17.333,57.342 17.333 C 56.577 17.333,50.198 21.688,47.527 24.034 C 46.295 25.115,45.016 26.000,44.684 26.000 C 43.773 26.000,26.923 42.979,24.997 45.837 C 24.073 47.210,21.970 50.228,20.325 52.543 C 18.679 54.858,17.333 57.020,17.333 57.346 C 17.333 57.673,16.561 59.079,15.617 60.470 C 14.060 62.764,10.000 70.934,10.000 71.772 C 10.000 71.962,9.100 74.062,8.000 76.439 C 6.900 78.815,5.998 81.264,5.996 81.880 C 5.994 82.496,5.544 83.859,4.996 84.910 C 4.448 85.960,4.000 87.768,4.000 88.928 C 4.000 90.088,3.592 91.628,3.092 92.352 C 2.593 93.075,2.032 95.863,1.845 98.548 C 1.658 101.232,1.166 103.767,0.752 104.181 C -0.248 105.182,-0.300 132.767,0.697 133.763 C 1.080 134.147,1.572 136.682,1.789 139.397 C 2.007 142.112,2.593 145.143,3.092 146.134 C 3.592 147.124,4.010 148.924,4.021 150.134 C 4.033 151.343,4.483 152.916,5.021 153.627 C 5.560 154.339,6.000 155.746,6.000 156.755 C 6.000 157.763,6.277 158.759,6.615 158.968 C 6.954 159.177,7.431 160.260,7.676 161.374 C 8.075 163.194,14.483 176.245,18.785 184.000 C 20.410 186.930,20.459 187.432,20.910 205.621 C 21.171 216.132,21.658 224.588,22.029 225.034 C 22.390 225.470,22.967 228.190,23.312 231.080 C 24.328 239.598,25.195 244.128,25.954 244.888 C 26.346 245.279,26.667 246.406,26.667 247.390 C 26.667 248.375,27.115 250.040,27.663 251.090 C 28.210 252.141,28.660 253.491,28.663 254.090 C 28.665 254.690,29.115 256.040,29.663 257.090 C 30.210 258.141,30.660 259.468,30.663 260.039 C 30.665 260.611,31.107 261.661,31.645 262.373 C 32.184 263.084,32.634 264.220,32.645 264.897 C 32.664 265.984,33.614 268.178,35.432 271.333 C 35.749 271.883,36.185 272.783,36.401 273.333 C 37.626 276.456,42.840 286.695,43.371 287.024 C 43.717 287.237,44.000 287.827,44.000 288.333 C 44.000 288.840,45.650 291.663,47.667 294.608 C 49.683 297.553,51.333 300.214,51.333 300.523 C 51.333 300.831,52.233 301.946,53.333 303.000 C 54.433 304.054,55.333 305.318,55.333 305.808 C 55.333 306.299,57.064 308.568,59.180 310.850 C 61.296 313.133,63.741 316.050,64.613 317.333 C 67.117 321.018,77.335 331.209,81.000 333.676 C 82.833 334.910,85.519 337.138,86.969 338.627 C 88.418 340.115,89.993 341.333,90.469 341.333 C 90.944 341.333,91.333 341.633,91.333 342.000 C 91.333 342.367,91.727 342.667,92.209 342.667 C 92.690 342.667,93.946 343.567,95.000 344.667 C 96.054 345.767,97.207 346.667,97.562 346.667 C 97.917 346.667,99.191 347.417,100.393 348.333 C 101.594 349.250,102.887 350.000,103.266 350.000 C 103.644 350.000,104.979 350.900,106.231 352.000 C 107.484 353.100,108.977 354.000,109.549 354.000 C 110.120 354.000,110.771 354.296,110.994 354.658 C 111.601 355.639,131.742 365.333,133.175 365.333 C 133.855 365.333,134.994 365.774,135.706 366.312 C 136.418 366.850,137.450 367.302,138.000 367.316 C 138.550 367.330,139.859 367.790,140.910 368.337 C 141.960 368.885,143.477 369.333,144.282 369.333 C 145.087 369.333,146.327 369.774,147.039 370.312 C 147.751 370.850,149.251 371.300,150.373 371.312 C 151.494 371.324,152.994 371.774,153.706 372.312 C 154.418 372.850,156.105 373.300,157.457 373.312 C 158.808 373.324,160.758 373.684,161.790 374.114 C 165.649 375.718,183.342 377.175,200.127 377.270 C 206.247 377.305,211.426 377.610,211.635 377.949 C 211.844 378.287,212.874 378.753,213.924 378.983 C 214.974 379.214,216.523 380.137,217.366 381.035 C 218.209 381.932,219.410 382.667,220.035 382.667 C 220.659 382.667,221.544 383.117,222.000 383.667 C 222.456 384.217,223.168 384.670,223.582 384.674 C 223.995 384.678,227.031 386.028,230.328 387.674 C 233.626 389.320,236.833 390.667,237.456 390.667 C 238.078 390.667,238.773 390.967,239.000 391.333 C 239.227 391.700,240.069 392.002,240.873 392.004 C 241.676 392.006,243.193 392.456,244.243 393.004 C 245.293 393.552,247.101 394.000,248.261 394.000 C 249.421 394.000,250.962 394.409,251.685 394.909 C 252.408 395.410,255.341 395.966,258.202 396.145 C 261.063 396.324,263.748 396.815,264.169 397.235 C 265.370 398.436,290.908 398.253,294.333 397.019 C 295.800 396.491,298.541 396.045,300.424 396.029 C 302.307 396.013,304.707 395.552,305.757 395.004 C 306.807 394.456,308.481 394.006,309.477 394.004 C 310.473 394.002,312.273 393.586,313.477 393.080 C 314.681 392.574,316.867 391.797,318.333 391.353 C 319.800 390.909,323.700 389.265,327.000 387.698 C 330.300 386.132,333.953 384.481,335.118 384.031 C 336.284 383.580,337.755 382.639,338.388 381.939 C 339.022 381.239,339.913 380.667,340.370 380.667 C 341.455 380.667,347.598 376.518,350.810 373.617 C 352.200 372.361,353.684 371.333,354.107 371.333 C 355.347 371.333,370.665 355.893,372.009 353.289 C 372.684 351.981,373.741 350.492,374.357 349.980 C 375.707 348.860,380.667 341.497,380.667 340.614 C 380.667 340.270,381.567 338.746,382.667 337.228 C 383.767 335.709,384.667 334.221,384.667 333.921 C 384.667 333.621,385.815 331.025,387.219 328.152 C 388.623 325.279,390.309 321.295,390.965 319.298 C 391.621 317.301,392.572 314.681,393.079 313.477 C 393.585 312.273,394.002 310.473,394.004 309.477 C 394.006 308.481,394.456 306.807,395.004 305.757 C 395.552 304.707,396.013 302.307,396.029 300.424 C 396.045 298.541,396.491 295.800,397.019 294.333 C 398.420 290.445,398.405 266.466,397.000 263.103 C 396.450 261.786,396.000 259.084,396.000 257.098 C 396.000 255.111,395.552 252.626,395.004 251.576 C 394.456 250.526,393.997 248.767,393.983 247.667 C 393.969 246.567,393.517 245.084,392.979 244.373 C 392.440 243.661,392.000 242.254,392.000 241.245 C 392.000 240.237,391.700 239.227,391.333 239.000 C 390.967 238.773,390.667 238.078,390.667 237.456 C 390.667 236.833,389.320 233.626,387.674 230.328 C 386.028 227.031,384.678 223.995,384.674 223.582 C 384.670 223.168,384.217 222.456,383.667 222.000 C 383.117 221.544,382.667 220.737,382.667 220.207 C 382.667 219.678,381.954 218.289,381.083 217.122 C 377.654 212.527,377.483 211.463,377.050 192.021 C 376.816 181.525,376.362 173.429,375.987 173.054 C 375.628 172.694,375.333 170.697,375.333 168.615 C 375.333 166.533,374.883 163.752,374.333 162.436 C 373.783 161.120,373.333 158.891,373.333 157.482 C 373.333 156.074,372.893 154.339,372.355 153.627 C 371.816 152.916,371.366 151.543,371.355 150.576 C 371.343 149.610,370.885 147.960,370.337 146.910 C 369.790 145.859,369.340 144.385,369.337 143.633 C 369.335 142.882,369.061 141.982,368.729 141.633 C 368.396 141.285,367.820 139.950,367.449 138.667 C 367.078 137.383,366.395 135.283,365.931 134.000 C 364.579 130.258,355.328 111.409,354.633 110.979 C 354.285 110.764,354.000 110.173,354.000 109.667 C 354.000 109.160,352.350 106.337,350.333 103.392 C 348.317 100.447,346.667 97.776,346.667 97.456 C 346.667 97.135,346.036 96.303,345.265 95.605 C 344.494 94.907,343.402 93.436,342.838 92.335 C 342.274 91.234,340.055 88.447,337.906 86.142 C 335.758 83.837,334.000 81.616,334.000 81.207 C 334.000 80.102,319.419 65.457,316.385 63.513 C 314.946 62.592,312.396 60.564,310.718 59.007 C 309.040 57.449,306.766 55.717,305.665 55.156 C 304.564 54.595,303.093 53.506,302.395 52.735 C 301.697 51.964,300.787 51.333,300.371 51.333 C 299.956 51.333,298.578 50.446,297.308 49.360 C 296.039 48.275,294.728 47.375,294.396 47.360 C 294.064 47.346,292.809 46.583,291.607 45.667 C 290.406 44.750,288.970 44.000,288.417 44.000 C 287.864 44.000,287.226 43.699,286.999 43.331 C 286.606 42.696,274.159 36.491,267.000 33.362 C 265.167 32.560,263.146 31.626,262.509 31.286 C 261.872 30.945,260.868 30.667,260.276 30.667 C 259.685 30.667,258.256 30.266,257.101 29.776 C 252.957 28.020,250.296 27.161,248.000 26.837 C 246.717 26.657,245.307 26.220,244.868 25.868 C 244.085 25.240,241.257 24.702,231.397 23.304 C 228.683 22.919,225.943 22.326,225.308 21.987 C 224.674 21.647,215.795 21.171,205.578 20.928 C 195.360 20.685,186.653 20.213,186.229 19.880 C 184.474 18.500,163.117 8.000,162.065 8.000 C 161.436 8.000,160.339 7.560,159.627 7.021 C 158.916 6.483,157.566 6.033,156.627 6.021 C 155.689 6.010,154.339 5.560,153.627 5.021 C 152.916 4.483,151.275 4.033,149.982 4.021 C 148.688 4.010,147.038 3.591,146.315 3.091 C 145.592 2.590,142.659 2.034,139.798 1.855 C 136.937 1.676,134.252 1.185,133.831 0.765 C 132.762 -0.304,105.904 -0.304,104.835 0.765 M227.434 98.500 C 227.892 98.958,229.647 99.333,231.333 99.333 C 233.020 99.333,234.745 99.679,235.167 100.101 C 235.589 100.523,237.224 101.097,238.801 101.376 C 242.315 101.998,246.442 103.509,247.488 104.555 C 247.916 104.983,248.784 105.333,249.416 105.333 C 252.133 105.333,261.955 114.600,261.983 117.190 C 261.992 118.028,262.464 119.421,263.030 120.286 C 264.078 121.885,263.780 125.333,262.594 125.333 C 262.267 125.333,262.000 126.510,262.000 127.948 C 262.000 136.014,248.228 143.066,240.424 138.996 C 239.374 138.448,237.985 138.000,237.339 138.000 C 236.692 138.000,235.790 137.550,235.333 137.000 C 234.877 136.450,233.958 136.000,233.291 136.000 C 232.624 136.000,231.909 135.726,231.702 135.391 C 231.124 134.456,225.743 132.000,224.271 132.000 C 223.552 132.000,222.372 131.587,221.648 131.082 C 218.249 128.709,189.613 128.787,187.225 131.175 C 186.771 131.629,185.678 132.000,184.796 132.000 C 183.914 132.000,182.098 132.825,180.760 133.833 C 179.422 134.842,177.729 135.997,176.997 136.401 C 176.265 136.805,174.553 139.355,173.191 142.068 C 166.803 154.795,172.593 165.192,190.000 172.253 C 190.550 172.476,191.450 172.938,192.000 173.281 C 192.550 173.624,193.450 174.074,194.000 174.281 C 194.550 174.488,195.450 174.928,196.000 175.257 C 197.794 176.331,205.957 180.000,206.553 180.000 C 206.873 180.000,208.474 180.712,210.112 181.583 C 211.749 182.454,213.819 183.393,214.711 183.672 C 217.080 184.410,228.614 189.952,231.333 191.659 C 232.617 192.464,235.467 194.103,237.667 195.301 C 239.867 196.499,242.717 198.275,244.000 199.248 C 245.283 200.221,247.169 201.444,248.189 201.967 C 250.353 203.074,262.000 214.921,262.000 216.015 C 262.000 216.422,262.715 217.711,263.589 218.878 C 264.463 220.045,265.404 221.750,265.679 222.667 C 265.954 223.583,266.589 224.925,267.090 225.648 C 267.590 226.372,268.000 227.622,268.000 228.426 C 268.000 229.231,268.338 230.002,268.752 230.140 C 270.112 230.593,271.922 249.011,270.724 250.209 C 270.326 250.607,269.990 252.748,269.979 254.967 C 269.966 257.451,269.582 259.497,268.979 260.294 C 268.440 261.006,268.004 262.206,268.008 262.961 C 268.038 268.364,256.179 284.757,249.548 288.478 C 243.447 291.901,233.404 296.668,232.254 296.688 C 231.564 296.700,230.418 297.150,229.706 297.688 C 228.994 298.226,227.603 298.667,226.615 298.667 C 225.627 298.667,223.960 299.115,222.910 299.663 C 221.859 300.210,219.635 300.660,217.967 300.663 C 216.298 300.665,214.558 301.042,214.100 301.500 C 213.468 302.132,208.058 302.333,191.667 302.333 C 175.276 302.333,169.866 302.132,169.234 301.500 C 168.775 301.042,167.017 300.667,165.327 300.667 C 163.638 300.667,161.673 300.226,160.961 299.688 C 160.249 299.150,158.749 298.700,157.627 298.688 C 156.506 298.676,155.006 298.226,154.294 297.688 C 153.582 297.150,152.550 296.699,152.000 296.686 C 150.788 296.658,143.646 293.065,138.805 290.049 C 135.207 287.807,130.000 281.128,130.000 278.753 C 130.000 278.119,129.656 277.256,129.236 276.836 C 124.553 272.153,134.468 256.667,142.149 256.667 C 142.826 256.667,144.144 256.166,145.077 255.555 C 146.662 254.517,146.899 254.517,148.657 255.555 C 149.692 256.166,151.172 256.667,151.945 256.667 C 152.719 256.667,153.872 256.926,154.509 257.244 C 159.786 259.875,164.429 262.000,164.899 262.000 C 165.550 262.000,169.507 263.681,172.103 265.060 C 173.076 265.577,174.576 266.010,175.436 266.021 C 176.296 266.033,177.582 266.483,178.294 267.021 C 179.006 267.560,180.656 268.002,181.961 268.004 C 183.266 268.006,185.193 268.456,186.243 269.004 C 188.945 270.413,204.389 270.413,207.090 269.004 C 208.141 268.456,209.804 268.006,210.787 268.004 C 215.410 267.993,223.673 262.430,226.637 257.333 C 228.470 254.182,228.430 242.676,226.574 238.944 C 224.183 234.140,216.018 227.183,209.333 224.255 C 208.783 224.014,204.693 222.058,200.244 219.909 C 195.795 217.759,191.951 216.000,191.703 216.000 C 191.454 216.000,189.544 215.216,187.459 214.259 C 183.439 212.413,178.757 210.338,176.000 209.180 C 169.507 206.453,169.603 206.500,164.000 203.265 C 161.983 202.101,159.433 200.654,158.333 200.050 C 150.322 195.652,137.592 184.196,134.604 178.698 C 133.898 177.397,133.047 175.883,132.715 175.333 C 131.590 173.471,130.000 169.470,130.000 168.502 C 130.000 167.972,129.522 166.580,128.938 165.409 C 127.597 162.722,127.784 144.613,129.167 143.232 C 129.625 142.775,130.000 141.570,130.000 140.556 C 130.000 138.460,131.637 134.497,136.137 125.703 C 137.586 122.871,149.304 111.176,152.165 109.706 C 153.358 109.093,156.578 107.409,159.321 105.963 C 162.064 104.517,164.914 103.324,165.654 103.312 C 166.394 103.300,167.582 102.850,168.294 102.312 C 169.006 101.774,170.247 101.333,171.051 101.333 C 171.856 101.333,173.374 100.885,174.424 100.337 C 175.474 99.790,177.698 99.340,179.367 99.337 C 181.035 99.335,182.685 99.059,183.033 98.723 C 184.660 97.156,225.885 96.948,227.434 98.500 " stroke="none" fill="#000000" fill-rule="evenodd"></path></g></svg>