<svg xmlns="http://www.w3.org/2000/svg" width="400" height="400" viewBox="0, 0, 400,400">
<g>
<path d="M140.370 5.913 C 102.619 14.015,95.689 65.125,129.975 82.582 C 138.048 86.692,138.759 86.778,165.833 86.940 L 189.630 87.081 189.627 65.300 C 189.626 48.031,189.512 42.770,189.081 39.907 C 185.610 16.880,162.950 1.067,140.370 5.913 M244.056 5.758 C 226.447 8.948,212.803 23.673,210.748 41.707 C 209.878 49.339,210.441 153.650,211.372 157.407 C 222.690 203.061,287.776 198.378,292.213 151.590 C 292.729 146.147,292.727 48.289,292.210 42.778 C 289.929 18.427,267.844 1.449,244.056 5.758 M42.129 107.820 C 1.598 111.728,-8.754 166.978,27.642 185.140 C 37.023 189.821,33.984 189.625,97.407 189.626 C 160.377 189.627,158.104 189.775,167.209 185.065 C 203.636 166.219,192.814 111.382,151.960 107.798 C 146.666 107.334,46.967 107.354,42.129 107.820 M352.037 107.656 C 334.980 109.051,321.639 118.730,315.763 133.971 C 313.192 140.640,313.223 140.267,313.063 166.204 L 312.918 189.630 334.395 189.630 C 366.297 189.630,372.285 188.113,383.026 177.310 C 406.858 153.343,391.852 110.666,358.649 107.983 C 357.049 107.854,355.241 107.700,354.630 107.642 C 354.019 107.583,352.852 107.589,352.037 107.656 M40.556 210.781 C 2.206 216.313,-7.991 266.727,25.204 286.678 C 48.519 300.691,78.347 288.211,85.871 261.296 L 86.802 257.963 86.942 234.167 L 87.081 210.370 64.930 210.416 C 52.746 210.440,41.778 210.605,40.556 210.781 M142.161 210.942 C 123.441 213.858,109.348 229.297,107.764 248.623 C 106.917 258.968,107.493 358.478,108.424 362.450 C 118.773 406.621,182.348 404.763,189.081 360.093 C 189.914 354.564,189.893 250.348,189.058 245.195 C 185.405 222.674,164.565 207.452,142.161 210.942 M245.085 210.930 C 204.743 217.713,197.790 272.525,235.175 289.055 C 243.358 292.674,243.259 292.669,305.926 292.508 C 367.636 292.350,363.981 292.620,373.333 287.529 C 407.745 268.795,398.750 216.746,360.093 210.919 C 355.050 210.159,249.612 210.169,245.085 210.930 M210.373 334.700 C 210.375 362.065,210.627 364.086,215.107 372.760 C 229.069 399.793,266.865 402.622,284.618 377.963 C 300.346 356.117,291.062 325.134,265.951 315.665 C 259.207 313.123,260.354 313.216,234.167 313.060 L 210.370 312.919 210.373 334.700 " stroke="none" fill-rule="evenodd"></path>
</g>
</svg>