<svg width="100%" height="100%" viewBox="0 0 400 400" version="1.1" xmlns="http://www.w3.org/2000/svg" style="fill-rule:evenodd;clip-rule:evenodd;stroke-linejoin:round;stroke-miterlimit:2;">
    <g>
        <path d="M193.25,0.647C187.158,1.981 180.897,7.641 175,10C151.801,19.28 129.444,31.778 107,43C99.97,46.515 92.85,49.093 86,53C84.759,53.708 83.532,54.463 82.208,55C81.216,55.402 79.575,54.841 79.098,55.799C77.81,58.387 77.633,61.444 77.563,64.334C76.933,90.025 77.053,115.73 77,141.429C76.95,165.721 77.005,190.013 77.256,214.303C77.278,216.424 75.998,222.713 79,225C82.343,227.547 87.231,229.116 91,231L127,249C127.337,249.169 132.652,251.812 132.5,252C131.825,252.834 130.449,252.633 129.441,253C126.773,253.97 124.722,255.605 122.23,257C112.269,262.575 101.303,266.848 91,272C86.693,274.153 77.926,276.491 77.619,281.754C77.051,291.488 76.993,301.249 77,311C77.007,320.831 77.031,330.674 77.66,340.485C77.985,345.554 82.574,345.105 86.23,347C93.106,350.563 100.056,353.528 107,357C128.832,367.916 150.698,379.942 173.095,389C185.92,394.187 193.396,401.803 208.75,398.25C211.374,397.643 214.557,395.221 217,394C223.648,390.676 230.224,387.052 237,384C255.882,375.496 274.43,366.285 293,357C299.577,353.712 306.41,351.295 313,348C314.528,347.236 320.152,345.41 321.058,344.28C321.943,343.176 322.298,341.659 322.381,340.246C323.206,326.099 323.206,295.901 322.381,281.754C322.1,276.937 316.77,275.885 313,274L273,254C271.722,253.361 268.72,253.857 269,252.455C269.766,248.63 276.931,246.476 279.77,245C289.957,239.703 300.646,235.177 311,230C313.134,228.933 321.731,226.167 322.15,223.6C326.557,196.565 323.059,168.821 323,141.429C322.945,115.679 323.077,89.923 322.423,64.181C322.351,61.319 322.162,58.273 320.824,55.742C320.69,55.488 313.936,53.468 313,53C305.667,49.333 298.333,45.667 291,42C269.726,31.363 248.212,21.606 227,11C216.665,5.832 205.426,-2.013 193.25,0.647M203,66L217,73C227.533,78.267 238.412,82.706 249,88C252.178,89.589 255.343,91.579 258.571,93C259.386,93.359 260.646,93.057 261.116,93.813C262.094,95.383 262.36,97.355 262.433,99.203C262.989,113.269 262.947,127.352 263,141.429C263.056,156.353 266.333,171.87 262.144,186.194C261.805,187.354 260.081,187.46 259,188L213,211C209.557,212.721 203.902,217 200,217C196.098,217 190.443,212.721 187,211L141,188C139.919,187.46 138.195,187.354 137.856,186.194C133.667,171.87 136.944,156.353 137,141.429C137.053,127.352 137.011,113.269 137.567,99.203C137.64,97.355 137.906,95.383 138.884,93.813C139.354,93.057 140.614,93.359 141.429,93C143.978,91.877 146.486,90.257 149,89C159.595,83.703 170.033,78.387 181,74C186.517,71.793 191.483,68.207 197,66C197,66 203,63.333 203,66M203,286C203,286.745 204.333,286.667 205,287L249,309C249.667,309.333 251,309.255 251,310C251,310.413 245.532,312.734 245,313L209,331C206.571,332.214 202.765,335 200,335C196.098,335 190.443,330.721 187,329C177.798,324.399 168.25,320.625 159,316C156.048,314.524 150.698,312.367 149,309.571C148.256,308.347 151.67,308.532 153,308C154.957,307.217 157.043,306.783 159,306C165.152,303.539 171.071,299.965 177,297C183.667,293.667 190.333,290.333 197,287C197.422,286.789 203,283.235 203,286"/>
    </g>
</svg>
