<svg id="svg" version="1.1" width="400" height="400" xmlns="http://www.w3.org/2000/svg" xmlns:xlink="http://www.w3.org/1999/xlink" style="display: block;"><g id="svgg"><path id="path0" d="M193.250 0.647 C 192.012 0.918,191.000 1.558,191.000 2.070 C 191.000 2.581,190.100 3.000,189.000 3.000 C 187.900 3.000,187.000 3.450,187.000 4.000 C 187.000 4.550,186.100 5.000,185.000 5.000 C 183.900 5.000,183.000 5.450,183.000 6.000 C 183.000 6.550,182.100 7.000,181.000 7.000 C 179.900 7.000,179.000 7.450,179.000 8.000 C 179.000 8.550,178.100 9.000,177.000 9.000 C 175.900 9.000,175.000 9.450,175.000 10.000 C 175.000 10.550,173.650 11.000,172.000 11.000 C 170.350 11.000,169.000 11.450,169.000 12.000 C 169.000 12.550,168.199 13.000,167.221 13.000 C 166.242 13.000,164.793 13.900,164.000 15.000 C 163.153 16.174,161.411 17.000,159.779 17.000 C 158.251 17.000,157.000 17.450,157.000 18.000 C 157.000 18.550,156.100 19.000,155.000 19.000 C 153.900 19.000,153.000 19.450,153.000 20.000 C 153.000 20.550,152.100 21.000,151.000 21.000 C 149.900 21.000,149.000 21.450,149.000 22.000 C 149.000 22.550,148.100 23.000,147.000 23.000 C 145.900 23.000,145.000 23.450,145.000 24.000 C 145.000 24.550,144.100 25.000,143.000 25.000 C 141.900 25.000,141.000 25.450,141.000 26.000 C 141.000 26.550,140.100 27.000,139.000 27.000 C 137.900 27.000,137.000 27.450,137.000 28.000 C 137.000 28.550,136.100 29.000,135.000 29.000 C 133.900 29.000,133.000 29.450,133.000 30.000 C 133.000 30.550,132.100 31.000,131.000 31.000 C 129.900 31.000,129.000 31.450,129.000 32.000 C 129.000 32.550,128.100 33.000,127.000 33.000 C 125.900 33.000,125.000 33.450,125.000 34.000 C 125.000 34.550,124.100 35.000,123.000 35.000 C 121.900 35.000,121.000 35.450,121.000 36.000 C 121.000 36.550,120.100 37.000,119.000 37.000 C 117.900 37.000,117.000 37.450,117.000 38.000 C 117.000 38.550,116.100 39.000,115.000 39.000 C 113.900 39.000,113.000 39.450,113.000 40.000 C 113.000 40.550,112.100 41.000,111.000 41.000 C 109.900 41.000,109.000 41.450,109.000 42.000 C 109.000 42.550,108.100 43.000,107.000 43.000 C 105.900 43.000,105.000 43.450,105.000 44.000 C 105.000 44.550,104.100 45.000,103.000 45.000 C 101.900 45.000,101.000 45.450,101.000 46.000 C 101.000 46.550,99.650 47.000,98.000 47.000 C 96.350 47.000,95.000 47.450,95.000 48.000 C 95.000 48.550,94.100 49.000,93.000 49.000 C 91.900 49.000,91.000 49.450,91.000 50.000 C 91.000 50.550,90.199 51.000,89.221 51.000 C 88.242 51.000,86.793 51.900,86.000 53.000 C 85.207 54.100,83.501 55.000,82.208 55.000 C 76.764 55.000,77.000 51.080,77.000 141.429 C 77.000 224.333,77.016 225.000,79.000 225.000 C 80.100 225.000,81.000 225.450,81.000 226.000 C 81.000 226.550,81.900 227.000,83.000 227.000 C 84.100 227.000,85.000 227.450,85.000 228.000 C 85.000 228.550,85.900 229.000,87.000 229.000 C 88.100 229.000,89.000 229.450,89.000 230.000 C 89.000 230.550,89.900 231.000,91.000 231.000 C 92.100 231.000,93.000 231.450,93.000 232.000 C 93.000 232.550,93.900 233.000,95.000 233.000 C 96.100 233.000,97.000 233.450,97.000 234.000 C 97.000 234.550,97.900 235.000,99.000 235.000 C 100.100 235.000,101.000 235.450,101.000 236.000 C 101.000 236.550,101.900 237.000,103.000 237.000 C 104.100 237.000,105.000 237.450,105.000 238.000 C 105.000 238.550,105.900 239.000,107.000 239.000 C 108.100 239.000,109.000 239.450,109.000 240.000 C 109.000 240.550,109.900 241.000,111.000 241.000 C 112.100 241.000,113.000 241.450,113.000 242.000 C 113.000 242.550,113.900 243.000,115.000 243.000 C 116.100 243.000,117.000 243.450,117.000 244.000 C 117.000 244.550,117.900 245.000,119.000 245.000 C 120.100 245.000,121.000 245.450,121.000 246.000 C 121.000 246.550,121.900 247.000,123.000 247.000 C 124.100 247.000,125.000 247.450,125.000 248.000 C 125.000 248.550,125.900 249.000,127.000 249.000 C 128.100 249.000,129.000 249.450,129.000 250.000 C 129.000 250.550,129.927 251.000,131.059 251.000 C 132.191 251.000,132.840 251.450,132.500 252.000 C 132.160 252.550,130.784 253.000,129.441 253.000 C 128.098 253.000,127.000 253.450,127.000 254.000 C 127.000 254.550,126.410 255.000,125.689 255.000 C 124.967 255.000,123.411 255.900,122.230 257.000 C 121.050 258.100,119.390 259.000,118.542 259.000 C 117.694 259.000,117.000 259.450,117.000 260.000 C 117.000 260.550,115.650 261.000,114.000 261.000 C 112.350 261.000,111.000 261.450,111.000 262.000 C 111.000 262.550,110.100 263.000,109.000 263.000 C 107.900 263.000,107.000 263.450,107.000 264.000 C 107.000 264.550,106.100 265.000,105.000 265.000 C 103.900 265.000,103.000 265.450,103.000 266.000 C 103.000 266.550,102.100 267.000,101.000 267.000 C 99.900 267.000,99.000 267.450,99.000 268.000 C 99.000 268.550,98.100 269.000,97.000 269.000 C 95.900 269.000,95.000 269.450,95.000 270.000 C 95.000 270.550,94.100 271.000,93.000 271.000 C 91.900 271.000,91.000 271.450,91.000 272.000 C 91.000 272.550,90.100 273.000,89.000 273.000 C 87.900 273.000,87.000 273.450,87.000 274.000 C 87.000 274.550,86.100 275.000,85.000 275.000 C 83.900 275.000,83.000 275.450,83.000 276.000 C 83.000 276.550,82.293 277.000,81.429 277.000 C 77.175 277.000,77.000 278.343,77.000 311.000 C 77.000 344.293,77.103 345.000,81.970 345.000 C 83.133 345.000,85.050 345.900,86.230 347.000 C 87.411 348.100,88.967 349.000,89.689 349.000 C 90.410 349.000,91.000 349.450,91.000 350.000 C 91.000 350.550,91.900 351.000,93.000 351.000 C 94.100 351.000,95.000 351.450,95.000 352.000 C 95.000 352.550,96.350 353.000,98.000 353.000 C 99.650 353.000,101.000 353.450,101.000 354.000 C 101.000 354.550,101.900 355.000,103.000 355.000 C 104.100 355.000,105.000 355.450,105.000 356.000 C 105.000 356.550,105.900 357.000,107.000 357.000 C 108.100 357.000,109.000 357.450,109.000 358.000 C 109.000 358.550,109.900 359.000,111.000 359.000 C 112.100 359.000,113.000 359.450,113.000 360.000 C 113.000 360.550,113.900 361.000,115.000 361.000 C 116.100 361.000,117.000 361.450,117.000 362.000 C 117.000 362.550,117.900 363.000,119.000 363.000 C 120.100 363.000,121.000 363.450,121.000 364.000 C 121.000 364.550,121.900 365.000,123.000 365.000 C 124.100 365.000,125.000 365.450,125.000 366.000 C 125.000 366.550,125.900 367.000,127.000 367.000 C 128.100 367.000,129.000 367.450,129.000 368.000 C 129.000 368.550,129.900 369.000,131.000 369.000 C 132.100 369.000,133.000 369.450,133.000 370.000 C 133.000 370.550,133.900 371.000,135.000 371.000 C 136.100 371.000,137.000 371.450,137.000 372.000 C 137.000 372.550,137.900 373.000,139.000 373.000 C 140.100 373.000,141.000 373.450,141.000 374.000 C 141.000 374.550,141.900 375.000,143.000 375.000 C 144.100 375.000,145.000 375.450,145.000 376.000 C 145.000 376.550,145.900 377.000,147.000 377.000 C 148.100 377.000,149.000 377.450,149.000 378.000 C 149.000 378.550,149.900 379.000,151.000 379.000 C 152.100 379.000,153.000 379.450,153.000 380.000 C 153.000 380.550,153.900 381.000,155.000 381.000 C 156.100 381.000,157.000 381.450,157.000 382.000 C 157.000 382.550,158.350 383.000,160.000 383.000 C 161.650 383.000,163.000 383.367,163.000 383.814 C 163.000 384.980,170.826 389.000,173.095 389.000 C 174.143 389.000,175.000 389.450,175.000 390.000 C 175.000 390.550,175.900 391.000,177.000 391.000 C 178.100 391.000,179.000 391.450,179.000 392.000 C 179.000 392.550,179.900 393.000,181.000 393.000 C 182.100 393.000,183.000 393.450,183.000 394.000 C 183.000 394.550,183.900 395.000,185.000 395.000 C 186.100 395.000,187.000 395.450,187.000 396.000 C 187.000 396.550,187.862 397.000,188.917 397.000 C 189.971 397.000,191.021 397.562,191.250 398.250 C 191.834 400.003,208.166 400.003,208.750 398.250 C 208.979 397.562,210.029 397.000,211.083 397.000 C 212.138 397.000,213.000 396.550,213.000 396.000 C 213.000 395.450,213.900 395.000,215.000 395.000 C 216.100 395.000,217.000 394.550,217.000 394.000 C 217.000 393.450,217.900 393.000,219.000 393.000 C 220.100 393.000,221.000 392.550,221.000 392.000 C 221.000 391.450,221.900 391.000,223.000 391.000 C 224.100 391.000,225.000 390.550,225.000 390.000 C 225.000 389.450,225.900 389.000,227.000 389.000 C 228.100 389.000,229.000 388.550,229.000 388.000 C 229.000 387.450,229.900 387.000,231.000 387.000 C 232.100 387.000,233.000 386.550,233.000 386.000 C 233.000 385.450,233.900 385.000,235.000 385.000 C 236.100 385.000,237.000 384.550,237.000 384.000 C 237.000 383.450,238.098 383.000,239.441 383.000 C 240.784 383.000,242.160 382.550,242.500 382.000 C 242.840 381.450,243.991 381.000,245.059 381.000 C 246.127 381.000,247.000 380.550,247.000 380.000 C 247.000 379.450,247.900 379.000,249.000 379.000 C 250.100 379.000,251.000 378.550,251.000 378.000 C 251.000 377.450,251.900 377.000,253.000 377.000 C 254.100 377.000,255.000 376.550,255.000 376.000 C 255.000 375.450,255.900 375.000,257.000 375.000 C 258.100 375.000,259.000 374.550,259.000 374.000 C 259.000 373.450,259.900 373.000,261.000 373.000 C 262.100 373.000,263.000 372.550,263.000 372.000 C 263.000 371.450,263.900 371.000,265.000 371.000 C 266.100 371.000,267.000 370.550,267.000 370.000 C 267.000 369.450,267.900 369.000,269.000 369.000 C 270.100 369.000,271.000 368.550,271.000 368.000 C 271.000 367.450,271.900 367.000,273.000 367.000 C 274.100 367.000,275.000 366.550,275.000 366.000 C 275.000 365.450,275.900 365.000,277.000 365.000 C 278.100 365.000,279.000 364.550,279.000 364.000 C 279.000 363.450,279.900 363.000,281.000 363.000 C 282.100 363.000,283.000 362.550,283.000 362.000 C 283.000 361.450,283.900 361.000,285.000 361.000 C 286.100 361.000,287.000 360.550,287.000 360.000 C 287.000 359.450,287.900 359.000,289.000 359.000 C 290.100 359.000,291.000 358.550,291.000 358.000 C 291.000 357.450,291.900 357.000,293.000 357.000 C 294.100 357.000,295.000 356.550,295.000 356.000 C 295.000 355.450,295.900 355.000,297.000 355.000 C 298.100 355.000,299.000 354.550,299.000 354.000 C 299.000 353.450,300.350 353.000,302.000 353.000 C 303.650 353.000,305.000 352.550,305.000 352.000 C 305.000 351.450,305.900 351.000,307.000 351.000 C 308.100 351.000,309.000 350.550,309.000 350.000 C 309.000 349.450,309.900 349.000,311.000 349.000 C 312.100 349.000,313.000 348.550,313.000 348.000 C 313.000 347.450,313.900 347.000,315.000 347.000 C 316.100 347.000,317.000 346.550,317.000 346.000 C 317.000 345.450,317.707 345.000,318.571 345.000 C 322.825 345.000,323.000 343.657,323.000 311.000 C 323.000 278.343,322.825 277.000,318.571 277.000 C 317.707 277.000,317.000 276.550,317.000 276.000 C 317.000 275.450,316.100 275.000,315.000 275.000 C 313.900 275.000,313.000 274.550,313.000 274.000 C 313.000 273.450,312.100 273.000,311.000 273.000 C 309.900 273.000,309.000 272.550,309.000 272.000 C 309.000 271.450,308.100 271.000,307.000 271.000 C 305.900 271.000,305.000 270.550,305.000 270.000 C 305.000 269.450,304.100 269.000,303.000 269.000 C 301.900 269.000,301.000 268.550,301.000 268.000 C 301.000 267.450,300.100 267.000,299.000 267.000 C 297.900 267.000,297.000 266.550,297.000 266.000 C 297.000 265.450,296.100 265.000,295.000 265.000 C 293.900 265.000,293.000 264.550,293.000 264.000 C 293.000 263.450,292.100 263.000,291.000 263.000 C 289.900 263.000,289.000 262.550,289.000 262.000 C 289.000 261.450,288.100 261.000,287.000 261.000 C 285.900 261.000,285.000 260.550,285.000 260.000 C 285.000 259.450,284.100 259.000,283.000 259.000 C 281.900 259.000,281.000 258.550,281.000 258.000 C 281.000 257.450,280.100 257.000,279.000 257.000 C 277.900 257.000,277.000 256.550,277.000 256.000 C 277.000 255.450,276.100 255.000,275.000 255.000 C 273.900 255.000,273.000 254.550,273.000 254.000 C 273.000 253.450,272.100 253.000,271.000 253.000 C 269.900 253.000,269.000 252.755,269.000 252.455 C 269.000 251.107,274.094 247.000,275.766 247.000 C 276.787 247.000,278.589 246.100,279.770 245.000 C 280.950 243.900,282.610 243.000,283.458 243.000 C 284.306 243.000,285.000 242.550,285.000 242.000 C 285.000 241.450,286.350 241.000,288.000 241.000 C 289.650 241.000,291.000 240.550,291.000 240.000 C 291.000 239.450,291.900 239.000,293.000 239.000 C 294.100 239.000,295.000 238.550,295.000 238.000 C 295.000 237.450,295.900 237.000,297.000 237.000 C 298.100 237.000,299.000 236.550,299.000 236.000 C 299.000 235.450,299.900 235.000,301.000 235.000 C 302.100 235.000,303.000 234.550,303.000 234.000 C 303.000 233.450,303.900 233.000,305.000 233.000 C 306.100 233.000,307.000 232.550,307.000 232.000 C 307.000 231.450,307.900 231.000,309.000 231.000 C 310.100 231.000,311.000 230.550,311.000 230.000 C 311.000 229.450,311.900 229.000,313.000 229.000 C 314.100 229.000,315.000 228.550,315.000 228.000 C 315.000 227.450,315.900 227.000,317.000 227.000 C 318.100 227.000,319.000 226.550,319.000 226.000 C 319.000 225.450,319.900 225.000,321.000 225.000 C 322.984 225.000,323.000 224.333,323.000 141.429 C 323.000 50.673,323.272 55.000,317.571 55.000 C 316.157 55.000,315.000 54.550,315.000 54.000 C 315.000 53.450,314.100 53.000,313.000 53.000 C 311.900 53.000,311.000 52.550,311.000 52.000 C 311.000 51.450,310.100 51.000,309.000 51.000 C 307.900 51.000,307.000 50.550,307.000 50.000 C 307.000 49.450,306.100 49.000,305.000 49.000 C 303.900 49.000,303.000 48.550,303.000 48.000 C 303.000 47.450,302.100 47.000,301.000 47.000 C 299.900 47.000,299.000 46.550,299.000 46.000 C 299.000 45.450,298.100 45.000,297.000 45.000 C 295.900 45.000,295.000 44.550,295.000 44.000 C 295.000 43.450,294.100 43.000,293.000 43.000 C 291.900 43.000,291.000 42.550,291.000 42.000 C 291.000 41.450,290.100 41.000,289.000 41.000 C 287.900 41.000,287.000 40.550,287.000 40.000 C 287.000 39.450,286.100 39.000,285.000 39.000 C 283.900 39.000,283.000 38.550,283.000 38.000 C 283.000 37.450,282.100 37.000,281.000 37.000 C 279.900 37.000,279.000 36.550,279.000 36.000 C 279.000 35.450,278.100 35.000,277.000 35.000 C 275.900 35.000,275.000 34.550,275.000 34.000 C 275.000 33.450,274.100 33.000,273.000 33.000 C 271.900 33.000,271.000 32.550,271.000 32.000 C 271.000 31.450,270.100 31.000,269.000 31.000 C 267.900 31.000,267.000 30.550,267.000 30.000 C 267.000 29.450,266.100 29.000,265.000 29.000 C 263.900 29.000,263.000 28.550,263.000 28.000 C 263.000 27.450,261.749 27.000,260.221 27.000 C 258.589 27.000,256.847 26.174,256.000 25.000 C 255.207 23.900,253.758 23.000,252.779 23.000 C 251.801 23.000,251.000 22.550,251.000 22.000 C 251.000 21.450,250.100 21.000,249.000 21.000 C 247.900 21.000,247.000 20.550,247.000 20.000 C 247.000 19.450,245.650 19.000,244.000 19.000 C 242.350 19.000,241.000 18.550,241.000 18.000 C 241.000 17.450,240.100 17.000,239.000 17.000 C 237.900 17.000,237.000 16.550,237.000 16.000 C 237.000 15.450,236.100 15.000,235.000 15.000 C 233.900 15.000,233.000 14.550,233.000 14.000 C 233.000 13.450,232.100 13.000,231.000 13.000 C 229.900 13.000,229.000 12.550,229.000 12.000 C 229.000 11.450,228.100 11.000,227.000 11.000 C 225.900 11.000,225.000 10.550,225.000 10.000 C 225.000 9.450,224.100 9.000,223.000 9.000 C 221.900 9.000,221.000 8.550,221.000 8.000 C 221.000 7.450,220.100 7.000,219.000 7.000 C 217.900 7.000,217.000 6.550,217.000 6.000 C 217.000 5.450,216.100 5.000,215.000 5.000 C 213.900 5.000,213.000 4.550,213.000 4.000 C 213.000 3.450,212.137 3.000,211.083 3.000 C 210.029 3.000,209.002 2.506,208.801 1.902 C 208.412 0.737,197.040 -0.181,193.250 0.647 M203.000 66.000 C 203.000 66.550,203.900 67.000,205.000 67.000 C 206.100 67.000,207.000 67.450,207.000 68.000 C 207.000 68.550,207.900 69.000,209.000 69.000 C 210.100 69.000,211.000 69.450,211.000 70.000 C 211.000 70.550,211.900 71.000,213.000 71.000 C 214.100 71.000,215.000 71.450,215.000 72.000 C 215.000 72.550,215.900 73.000,217.000 73.000 C 218.100 73.000,219.000 73.450,219.000 74.000 C 219.000 74.550,220.350 75.000,222.000 75.000 C 223.650 75.000,225.000 75.450,225.000 76.000 C 225.000 76.550,225.801 77.000,226.779 77.000 C 227.758 77.000,229.207 77.900,230.000 79.000 C 230.793 80.100,232.242 81.000,233.221 81.000 C 234.199 81.000,235.000 81.450,235.000 82.000 C 235.000 82.550,236.350 83.000,238.000 83.000 C 239.650 83.000,241.000 83.450,241.000 84.000 C 241.000 84.550,241.900 85.000,243.000 85.000 C 244.100 85.000,245.000 85.450,245.000 86.000 C 245.000 86.550,245.900 87.000,247.000 87.000 C 248.100 87.000,249.000 87.450,249.000 88.000 C 249.000 88.550,249.900 89.000,251.000 89.000 C 252.100 89.000,253.000 89.450,253.000 90.000 C 253.000 90.550,253.900 91.000,255.000 91.000 C 256.100 91.000,257.000 91.450,257.000 92.000 C 257.000 92.550,257.707 93.000,258.571 93.000 C 262.964 93.000,263.000 93.398,263.000 141.429 C 263.000 186.333,262.971 187.000,261.000 187.000 C 259.900 187.000,259.000 187.450,259.000 188.000 C 259.000 188.550,258.100 189.000,257.000 189.000 C 255.900 189.000,255.000 189.450,255.000 190.000 C 255.000 190.550,254.100 191.000,253.000 191.000 C 251.900 191.000,251.000 191.450,251.000 192.000 C 251.000 192.550,250.100 193.000,249.000 193.000 C 247.900 193.000,247.000 193.450,247.000 194.000 C 247.000 194.550,246.100 195.000,245.000 195.000 C 243.900 195.000,243.000 195.450,243.000 196.000 C 243.000 196.550,242.100 197.000,241.000 197.000 C 239.900 197.000,239.000 197.450,239.000 198.000 C 239.000 198.550,238.100 199.000,237.000 199.000 C 235.900 199.000,235.000 199.450,235.000 200.000 C 235.000 200.550,234.100 201.000,233.000 201.000 C 231.900 201.000,231.000 201.450,231.000 202.000 C 231.000 202.550,230.100 203.000,229.000 203.000 C 227.900 203.000,227.000 203.450,227.000 204.000 C 227.000 204.550,226.100 205.000,225.000 205.000 C 223.900 205.000,223.000 205.450,223.000 206.000 C 223.000 206.550,222.100 207.000,221.000 207.000 C 219.900 207.000,219.000 207.450,219.000 208.000 C 219.000 208.550,218.100 209.000,217.000 209.000 C 215.900 209.000,215.000 209.450,215.000 210.000 C 215.000 210.550,214.100 211.000,213.000 211.000 C 211.900 211.000,211.000 211.450,211.000 212.000 C 211.000 212.550,210.100 213.000,209.000 213.000 C 207.900 213.000,207.000 213.450,207.000 214.000 C 207.000 214.550,206.100 215.000,205.000 215.000 C 203.900 215.000,203.000 215.450,203.000 216.000 C 203.000 216.550,201.650 217.000,200.000 217.000 C 198.350 217.000,197.000 216.550,197.000 216.000 C 197.000 215.450,196.100 215.000,195.000 215.000 C 193.900 215.000,193.000 214.550,193.000 214.000 C 193.000 213.450,192.100 213.000,191.000 213.000 C 189.900 213.000,189.000 212.550,189.000 212.000 C 189.000 211.450,188.100 211.000,187.000 211.000 C 185.900 211.000,185.000 210.550,185.000 210.000 C 185.000 209.450,184.100 209.000,183.000 209.000 C 181.900 209.000,181.000 208.550,181.000 208.000 C 181.000 207.450,180.100 207.000,179.000 207.000 C 177.900 207.000,177.000 206.550,177.000 206.000 C 177.000 205.450,176.100 205.000,175.000 205.000 C 173.900 205.000,173.000 204.550,173.000 204.000 C 173.000 203.450,172.100 203.000,171.000 203.000 C 169.900 203.000,169.000 202.550,169.000 202.000 C 169.000 201.450,168.100 201.000,167.000 201.000 C 165.900 201.000,165.000 200.550,165.000 200.000 C 165.000 199.450,164.100 199.000,163.000 199.000 C 161.900 199.000,161.000 198.550,161.000 198.000 C 161.000 197.450,160.100 197.000,159.000 197.000 C 157.900 197.000,157.000 196.550,157.000 196.000 C 157.000 195.450,156.100 195.000,155.000 195.000 C 153.900 195.000,153.000 194.550,153.000 194.000 C 153.000 193.450,152.100 193.000,151.000 193.000 C 149.900 193.000,149.000 192.550,149.000 192.000 C 149.000 191.450,148.100 191.000,147.000 191.000 C 145.900 191.000,145.000 190.550,145.000 190.000 C 145.000 189.450,144.100 189.000,143.000 189.000 C 141.900 189.000,141.000 188.550,141.000 188.000 C 141.000 187.450,140.100 187.000,139.000 187.000 C 137.029 187.000,137.000 186.333,137.000 141.429 C 137.000 93.398,137.036 93.000,141.429 93.000 C 142.293 93.000,143.000 92.550,143.000 92.000 C 143.000 91.450,143.900 91.000,145.000 91.000 C 146.100 91.000,147.000 90.550,147.000 90.000 C 147.000 89.450,147.900 89.000,149.000 89.000 C 150.100 89.000,151.000 88.550,151.000 88.000 C 151.000 87.450,151.900 87.000,153.000 87.000 C 154.100 87.000,155.000 86.550,155.000 86.000 C 155.000 85.450,155.900 85.000,157.000 85.000 C 158.100 85.000,159.000 84.550,159.000 84.000 C 159.000 83.450,159.900 83.000,161.000 83.000 C 162.100 83.000,163.000 82.550,163.000 82.000 C 163.000 81.450,163.900 81.000,165.000 81.000 C 166.100 81.000,167.000 80.550,167.000 80.000 C 167.000 79.450,167.900 79.000,169.000 79.000 C 170.100 79.000,171.000 78.550,171.000 78.000 C 171.000 77.450,171.900 77.000,173.000 77.000 C 174.100 77.000,175.000 76.550,175.000 76.000 C 175.000 75.450,176.350 75.000,178.000 75.000 C 179.650 75.000,181.000 74.550,181.000 74.000 C 181.000 73.450,181.900 73.000,183.000 73.000 C 184.100 73.000,185.000 72.550,185.000 72.000 C 185.000 71.450,185.900 71.000,187.000 71.000 C 188.100 71.000,189.000 70.550,189.000 70.000 C 189.000 69.450,189.900 69.000,191.000 69.000 C 192.100 69.000,193.000 68.550,193.000 68.000 C 193.000 67.450,193.900 67.000,195.000 67.000 C 196.100 67.000,197.000 66.550,197.000 66.000 C 197.000 65.450,198.350 65.000,200.000 65.000 C 201.650 65.000,203.000 65.450,203.000 66.000 M203.000 286.000 C 203.000 286.550,203.900 287.000,205.000 287.000 C 206.100 287.000,207.000 287.450,207.000 288.000 C 207.000 288.550,207.900 289.000,209.000 289.000 C 210.100 289.000,211.000 289.450,211.000 290.000 C 211.000 290.550,211.900 291.000,213.000 291.000 C 214.100 291.000,215.000 291.450,215.000 292.000 C 215.000 292.550,215.900 293.000,217.000 293.000 C 218.100 293.000,219.000 293.450,219.000 294.000 C 219.000 294.550,219.900 295.000,221.000 295.000 C 222.100 295.000,223.000 295.450,223.000 296.000 C 223.000 296.550,223.900 297.000,225.000 297.000 C 226.100 297.000,227.000 297.450,227.000 298.000 C 227.000 298.550,227.900 299.000,229.000 299.000 C 230.100 299.000,231.000 299.450,231.000 300.000 C 231.000 300.550,231.900 301.000,233.000 301.000 C 234.100 301.000,235.000 301.450,235.000 302.000 C 235.000 302.550,235.900 303.000,237.000 303.000 C 238.100 303.000,239.000 303.450,239.000 304.000 C 239.000 304.550,239.900 305.000,241.000 305.000 C 242.100 305.000,243.000 305.450,243.000 306.000 C 243.000 306.550,243.900 307.000,245.000 307.000 C 246.100 307.000,247.000 307.450,247.000 308.000 C 247.000 308.550,247.900 309.000,249.000 309.000 C 250.100 309.000,251.000 309.450,251.000 310.000 C 251.000 310.550,250.100 311.000,249.000 311.000 C 247.900 311.000,247.000 311.450,247.000 312.000 C 247.000 312.550,246.100 313.000,245.000 313.000 C 243.900 313.000,243.000 313.450,243.000 314.000 C 243.000 314.550,242.100 315.000,241.000 315.000 C 239.900 315.000,239.000 315.450,239.000 316.000 C 239.000 316.550,238.100 317.000,237.000 317.000 C 235.900 317.000,235.000 317.450,235.000 318.000 C 235.000 318.550,234.100 319.000,233.000 319.000 C 231.900 319.000,231.000 319.450,231.000 320.000 C 231.000 320.550,230.100 321.000,229.000 321.000 C 227.900 321.000,227.000 321.450,227.000 322.000 C 227.000 322.550,226.100 323.000,225.000 323.000 C 223.900 323.000,223.000 323.450,223.000 324.000 C 223.000 324.550,222.100 325.000,221.000 325.000 C 219.900 325.000,219.000 325.450,219.000 326.000 C 219.000 326.550,218.100 327.000,217.000 327.000 C 215.900 327.000,215.000 327.450,215.000 328.000 C 215.000 328.550,214.100 329.000,213.000 329.000 C 211.900 329.000,211.000 329.450,211.000 330.000 C 211.000 330.550,210.100 331.000,209.000 331.000 C 207.900 331.000,207.000 331.450,207.000 332.000 C 207.000 332.550,206.100 333.000,205.000 333.000 C 203.900 333.000,203.000 333.450,203.000 334.000 C 203.000 334.550,201.650 335.000,200.000 335.000 C 198.350 335.000,197.000 334.550,197.000 334.000 C 197.000 333.450,196.100 333.000,195.000 333.000 C 193.900 333.000,193.000 332.550,193.000 332.000 C 193.000 331.450,192.100 331.000,191.000 331.000 C 189.900 331.000,189.000 330.550,189.000 330.000 C 189.000 329.450,188.100 329.000,187.000 329.000 C 185.900 329.000,185.000 328.550,185.000 328.000 C 185.000 327.450,184.100 327.000,183.000 327.000 C 181.900 327.000,181.000 326.550,181.000 326.000 C 181.000 325.450,179.650 325.000,178.000 325.000 C 176.350 325.000,175.000 324.550,175.000 324.000 C 175.000 323.450,174.100 323.000,173.000 323.000 C 171.900 323.000,171.000 322.550,171.000 322.000 C 171.000 321.450,170.100 321.000,169.000 321.000 C 167.900 321.000,167.000 320.550,167.000 320.000 C 167.000 319.450,166.100 319.000,165.000 319.000 C 163.900 319.000,163.000 318.550,163.000 318.000 C 163.000 317.450,162.100 317.000,161.000 317.000 C 159.900 317.000,159.000 316.550,159.000 316.000 C 159.000 315.450,158.100 315.000,157.000 315.000 C 155.900 315.000,155.000 314.550,155.000 314.000 C 155.000 313.450,154.293 313.000,153.429 313.000 C 151.913 313.000,149.000 310.745,149.000 309.571 C 149.000 309.257,149.900 309.000,151.000 309.000 C 152.100 309.000,153.000 308.550,153.000 308.000 C 153.000 307.450,154.350 307.000,156.000 307.000 C 157.650 307.000,159.000 306.550,159.000 306.000 C 159.000 305.450,159.900 305.000,161.000 305.000 C 162.100 305.000,163.000 304.550,163.000 304.000 C 163.000 303.450,163.900 303.000,165.000 303.000 C 166.100 303.000,167.000 302.550,167.000 302.000 C 167.000 301.450,167.900 301.000,169.000 301.000 C 170.100 301.000,171.000 300.550,171.000 300.000 C 171.000 299.450,171.900 299.000,173.000 299.000 C 174.100 299.000,175.000 298.550,175.000 298.000 C 175.000 297.450,175.900 297.000,177.000 297.000 C 178.100 297.000,179.000 296.550,179.000 296.000 C 179.000 295.450,179.900 295.000,181.000 295.000 C 182.100 295.000,183.000 294.550,183.000 294.000 C 183.000 293.450,183.900 293.000,185.000 293.000 C 186.100 293.000,187.000 292.550,187.000 292.000 C 187.000 291.450,187.900 291.000,189.000 291.000 C 190.100 291.000,191.000 290.550,191.000 290.000 C 191.000 289.450,191.900 289.000,193.000 289.000 C 194.100 289.000,195.000 288.550,195.000 288.000 C 195.000 287.450,195.900 287.000,197.000 287.000 C 198.100 287.000,199.000 286.550,199.000 286.000 C 199.000 285.450,199.900 285.000,201.000 285.000 C 202.100 285.000,203.000 285.450,203.000 286.000 " stroke="none" fill="#000000" fill-rule="evenodd"></path></g></svg>