<?xml version="1.0" encoding="UTF-8" standalone="no"?>
<svg
   xmlns:dc="http://purl.org/dc/elements/1.1/"
   xmlns:cc="http://creativecommons.org/ns#"
   xmlns:rdf="http://www.w3.org/1999/02/22-rdf-syntax-ns#"
   xmlns:svg="http://www.w3.org/2000/svg"
   xmlns="http://www.w3.org/2000/svg"
   style="display: block;"
   height="515"
   width="515"
   version="1.1"
   id="svg">
  <metadata
     id="metadata9">
    <rdf:RDF>
      <cc:Work
         rdf:about="">
        <dc:format>image/svg+xml</dc:format>
        <dc:type
           rdf:resource="http://purl.org/dc/dcmitype/StillImage" />
        <dc:title></dc:title>
      </cc:Work>
    </rdf:RDF>
  </metadata>
  <defs
     id="defs7" />
  <g
     transform="matrix(6.2161358,0,0,6.2161358,-2480.6084,-1184.2465)"
     id="svgg">
    <path
       style="fill:#000000;fill-rule:evenodd;stroke:none"
       d="m 400.448,209.275 c -0.269,0.701 -0.367,10.938 -0.219,22.75 l 0.271,21.475 15.424,0.277 15.424,0.277 5.235,4.473 c 6.35,5.424 5.375,5.424 12.275,0.004 l 5.689,-4.47 13.229,-0.28 c 7.277,-0.155 13.229,-0.619 13.227,-1.031 C 481.001,252.338 481,242.1 481,230 v -22 h -40.031 c -31.517,0 -40.136,0.271 -40.521,1.275 m 32.495,11.174 c 5.334,4.827 1.581,12.551 -6.098,12.551 H 422 v 4.5 c 0,3.833 -0.296,4.5 -2,4.5 -1.89,0 -2,-0.667 -2,-12.116 v -12.117 l 6.443,0.41 c 4.441,0.283 7.083,0.989 8.5,2.272 M 422,226 v 4.121 l 3.649,-0.311 c 4.301,-0.365 6.433,-2.864 4.745,-5.56 -0.639,-1.02 -2.619,-1.879 -4.745,-2.06 L 422,221.879 V 226 m 27,-0.161 c 0,1.012 -1.125,2.353 -2.5,2.979 -2.264,1.031 -2.5,1.708 -2.5,7.161 0,5.756 -0.11,6.021 -2.5,6.021 -2.471,0 -2.5,-0.1 -2.5,-8.5 0,-8.206 2.425,-12.298 4.297,-7.25 0.339,0.916 0.954,0.782 2.297,-0.5 2.354,-2.245 3.406,-2.218 3.406,0.089 m 17.202,1.209 c 5.006,5.006 2.646,13.983 -4.012,15.256 -7.363,1.408 -12.786,-5.549 -9.833,-12.616 2.701,-6.464 8.849,-7.636 13.845,-2.64 m -8.452,1.032 c -1.767,1.03 -2.387,6.095 -1.143,9.338 1.042,2.715 6.276,2.021 7.418,-0.983 2.262,-5.95 -1.592,-11.082 -6.275,-8.355"
       id="path0" />
  </g>
</svg>
