<svg version="1.1" width="400" height="400" xmlns="http://www.w3.org/2000/svg">
<g>
<path d="M14.763 198.565 C 4.860 203.938,7.189 212.762,21.077 222.493 C 31.361 229.700,31.062 230.428,17.669 230.784 L 7.000 231.068 7.000 235.615 L 7.000 240.163 19.422 239.832 C 39.511 239.295,46.246 227.239,31.902 217.491 C 29.481 215.846,26.921 213.953,26.214 213.285 C 25.506 212.617,23.594 211.282,21.964 210.319 C 17.255 207.538,18.362 207.000,28.800 207.000 C 39.890 207.000,41.000 206.436,41.000 200.800 L 41.000 197.000 29.250 197.040 C 20.816 197.069,16.727 197.499,14.763 198.565 M60.621 198.411 C 45.471 203.104,37.894 226.181,47.963 236.961 C 55.338 244.855,74.656 242.780,81.595 233.348 C 96.595 212.959,83.591 191.297,60.621 198.411 M96.700 200.750 C 96.390 202.813,94.756 211.908,93.068 220.962 C 91.381 230.016,90.000 238.003,90.000 238.712 C 90.000 240.831,119.577 240.545,120.393 238.418 C 122.324 233.387,121.645 233.000,110.892 233.000 L 100.783 233.000 101.479 230.250 C 101.862 228.738,102.586 225.137,103.088 222.250 C 103.589 219.363,104.482 214.412,105.070 211.250 C 105.659 208.088,106.392 203.588,106.700 201.250 L 107.260 197.000 102.262 197.000 L 97.263 197.000 96.700 200.750 M132.609 197.823 C 132.330 198.276,131.647 201.313,131.092 204.573 C 130.145 210.143,129.514 213.677,126.954 227.750 C 126.379 230.912,125.645 234.963,125.323 236.750 L 124.738 240.000 129.798 240.000 L 134.858 240.000 135.903 234.750 C 138.585 221.283,142.000 201.444,142.000 199.337 C 142.000 196.946,133.953 195.649,132.609 197.823 M149.000 199.728 C 149.000 204.441,150.411 204.997,162.450 205.032 C 176.759 205.073,177.527 205.579,177.427 214.901 C 177.307 226.153,172.471 231.965,162.541 232.788 C 156.024 233.329,156.282 234.262,159.000 220.000 C 160.100 214.227,161.000 209.391,161.000 209.252 C 161.000 209.113,158.767 209.000,156.039 209.000 C 150.378 209.000,150.519 208.737,148.003 224.000 C 147.323 228.125,146.372 233.075,145.889 235.000 C 145.406 236.925,145.009 238.889,145.006 239.363 C 144.989 241.968,172.668 239.493,177.591 236.450 C 187.377 230.399,192.487 212.392,186.798 204.000 C 182.952 198.327,180.291 197.539,163.750 197.178 L 149.000 196.856 149.000 199.728 M196.000 218.430 L 196.000 240.000 199.378 240.000 C 203.610 240.000,204.009 239.508,211.700 224.799 C 215.297 217.920,215.525 218.057,217.493 228.278 C 219.770 240.104,219.722 240.000,222.952 240.000 C 226.168 240.000,228.108 238.003,230.238 232.500 C 231.090 230.300,232.939 226.025,234.348 223.000 C 244.584 201.018,245.871 196.563,241.801 197.197 C 240.435 197.410,238.822 199.881,236.379 205.500 C 234.467 209.900,232.167 215.075,231.268 217.000 C 230.370 218.925,228.400 223.410,226.891 226.966 C 223.826 234.187,224.373 234.667,221.799 222.500 C 219.766 212.888,219.569 212.522,216.262 212.193 C 213.308 211.900,212.930 212.323,207.339 222.193 L 201.500 232.500 201.000 215.000 C 200.508 197.786,200.463 197.495,198.250 197.180 L 196.000 196.861 196.000 218.430 M259.684 198.449 C 238.796 205.898,237.230 239.778,257.683 241.744 C 273.098 243.225,285.040 230.057,283.802 212.945 C 282.912 200.637,271.977 194.064,259.684 198.449 M294.000 197.542 C 294.000 197.840,293.362 201.328,292.582 205.292 C 291.802 209.256,290.212 217.675,289.050 224.000 C 287.887 230.325,286.717 236.512,286.449 237.750 C 286.031 239.682,286.376 240.000,288.893 240.000 C 291.575 240.000,291.878 239.639,292.458 235.750 C 294.336 223.166,294.882 222.000,298.894 222.000 C 302.491 222.000,302.720 222.230,307.578 230.743 C 312.422 239.232,314.962 241.438,317.255 239.145 C 317.978 238.422,317.765 237.291,316.559 235.450 C 315.604 233.992,313.508 230.405,311.903 227.479 L 308.984 222.161 312.442 221.019 C 324.106 217.170,326.178 201.580,315.455 198.346 C 311.526 197.162,294.000 196.505,294.000 197.542 M332.099 203.706 C 331.392 207.443,329.935 215.225,328.862 221.000 C 327.789 226.775,326.535 233.412,326.077 235.750 C 325.258 239.920,325.294 240.000,327.985 240.000 C 330.553 240.000,330.804 239.603,331.936 233.750 C 332.602 230.313,333.376 226.375,333.656 225.000 C 334.132 222.667,334.713 223.086,342.333 231.264 C 347.960 237.302,351.200 240.023,352.750 240.014 C 356.448 239.991,355.402 237.252,349.178 230.663 C 340.072 221.023,339.035 219.752,339.570 218.886 C 339.846 218.440,344.218 214.579,349.286 210.306 C 361.725 199.818,362.610 198.646,358.965 197.489 C 357.398 196.992,354.964 198.528,348.381 204.172 C 343.679 208.202,338.778 212.301,337.488 213.281 L 335.144 215.062 336.033 211.781 C 337.979 204.605,337.692 197.527,335.442 197.206 C 333.639 196.948,333.226 197.752,332.099 203.706 M370.110 198.396 C 361.909 202.941,363.609 211.137,374.797 220.985 C 386.718 231.478,385.599 235.000,370.345 235.000 C 361.044 235.000,361.000 235.012,361.000 237.500 L 361.000 240.000 371.889 240.000 C 391.824 240.000,394.110 231.047,378.092 215.710 C 367.466 205.536,368.386 203.000,382.700 203.000 L 392.000 203.000 392.000 200.000 L 392.000 197.000 382.250 197.035 C 376.089 197.058,371.620 197.558,370.110 198.396 M275.743 206.530 C 282.222 213.940,277.574 230.123,267.576 234.963 C 251.458 242.766,241.976 225.202,253.700 209.263 C 259.209 201.775,270.375 200.390,275.743 206.530 M315.066 204.035 C 318.914 206.095,316.685 213.137,311.316 215.883 C 308.987 217.074,296.000 217.455,296.000 216.332 C 296.000 215.964,296.496 212.814,297.103 209.332 L 298.205 203.000 305.668 203.000 C 309.773 203.000,314.002 203.466,315.066 204.035 M75.397 207.959 C 78.011 210.581,78.122 220.929,75.588 225.829 C 70.656 235.368,57.953 236.918,54.400 228.414 C 48.702 214.777,65.692 198.224,75.397 207.959 " stroke="none" fill-rule="evenodd"></path>
</g>
</svg>