<svg id="svg" version="1.1" width="400" height="400" xmlns="http://www.w3.org/2000/svg" xmlns:xlink="http://www.w3.org/1999/xlink" style="display: block;"><g id="svgg"><path id="path0" d="M312.770 95.561 C 308.280 97.998,304.470 107.608,302.389 121.750 C 301.398 128.488,300.230 134.000,299.793 134.000 C 299.357 134.000,299.000 135.096,299.000 136.435 C 299.000 142.428,297.730 143.520,287.336 146.462 C 281.926 147.992,277.275 149.592,277.000 150.017 C 276.725 150.442,272.539 151.996,267.698 153.471 C 250.881 158.595,246.229 168.848,256.591 177.946 C 260.204 181.118,281.861 192.000,284.561 192.000 C 286.241 192.000,299.000 184.184,299.000 183.154 C 299.000 182.788,300.350 181.891,302.000 181.160 C 305.742 179.504,305.841 177.555,302.250 176.220 C 300.738 175.657,295.342 173.690,290.260 171.848 C 278.560 167.609,278.655 167.197,292.258 163.178 C 298.441 161.351,305.750 159.099,308.500 158.174 L 313.500 156.491 314.907 147.496 C 315.681 142.548,316.693 138.350,317.157 138.167 C 317.621 137.983,318.000 137.120,318.000 136.249 C 318.000 135.377,318.503 131.774,319.118 128.241 L 320.237 121.819 322.735 126.159 C 324.108 128.547,326.579 132.975,328.226 136.000 C 329.873 139.025,331.850 142.175,332.621 143.000 C 333.391 143.825,334.812 145.545,335.778 146.822 L 337.535 149.144 353.963 145.100 C 371.554 140.770,372.486 140.686,368.546 143.785 C 367.138 144.893,364.024 148.431,361.627 151.649 C 359.229 154.867,355.182 159.740,352.633 162.478 C 347.749 167.726,346.915 170.772,349.623 173.480 C 351.200 175.058,362.017 196.225,361.527 196.776 C 361.392 196.927,356.285 195.823,350.179 194.321 C 336.932 191.064,337.386 190.765,338.912 201.737 C 340.370 212.228,339.634 211.373,349.483 214.003 C 353.873 215.175,357.698 216.494,357.983 216.933 C 358.996 218.496,372.262 221.173,375.752 220.519 C 385.899 218.615,391.028 201.320,383.023 196.000 C 381.882 195.241,370.000 170.973,370.000 169.400 C 370.000 168.067,378.663 157.161,383.906 151.894 C 395.173 140.575,401.242 129.363,398.828 124.327 C 395.646 117.691,391.993 117.656,366.503 124.011 L 346.506 128.997 344.814 126.753 C 343.883 125.519,341.417 121.241,339.334 117.245 C 337.250 113.249,334.635 108.909,333.523 107.601 C 332.410 106.294,330.039 103.138,328.254 100.589 C 323.718 94.111,318.541 92.430,312.770 95.561 M43.000 177.640 C 28.419 182.332,18.743 193.742,18.616 206.399 C 18.502 217.613,20.955 221.917,36.907 238.500 C 48.360 250.406,49.130 257.541,39.401 261.606 C 32.202 264.614,26.777 262.404,22.952 254.905 C 21.856 252.757,20.369 251.000,19.647 251.000 C 18.558 251.000,3.469 258.426,2.071 259.649 C 1.038 260.553,5.227 270.833,7.996 274.185 C 22.750 292.052,66.000 277.274,66.000 254.366 C 66.000 253.065,66.450 252.000,67.000 252.000 C 67.550 252.000,68.000 250.200,68.000 248.000 C 68.000 245.800,67.550 244.000,67.000 244.000 C 66.450 244.000,65.996 243.213,65.991 242.250 C 65.970 238.266,60.879 230.506,52.169 221.181 C 38.975 207.055,37.929 205.501,39.190 201.886 C 41.729 194.601,51.046 194.453,56.190 201.615 C 57.922 204.027,59.699 206.000,60.139 206.000 C 61.586 206.000,69.004 201.814,69.760 200.570 C 70.167 199.900,71.963 198.288,73.750 196.988 C 84.705 189.019,58.629 172.612,43.000 177.640 M303.839 183.000 C 302.032 184.650,300.086 186.000,299.514 186.000 C 298.942 186.000,296.204 187.528,293.430 189.396 L 288.387 192.793 286.048 212.146 C 284.762 222.791,283.414 231.725,283.053 232.000 C 282.491 232.427,276.957 275.127,276.989 278.786 C 276.997 279.766,279.326 280.004,286.750 279.786 L 296.500 279.500 297.876 268.000 C 298.633 261.675,299.645 256.350,300.126 256.167 C 300.607 255.983,301.005 254.408,301.011 252.667 C 301.017 250.925,301.303 247.798,301.647 245.718 L 302.272 241.936 304.636 245.415 C 305.936 247.328,307.000 249.167,307.000 249.502 C 307.000 250.275,314.857 262.005,316.711 264.000 C 317.478 264.825,320.005 268.650,322.328 272.500 L 326.550 279.500 338.775 279.781 C 349.317 280.023,353.598 279.295,350.233 277.833 C 349.273 277.416,342.000 267.469,342.000 266.573 C 342.000 265.903,334.941 256.099,332.321 253.129 C 329.471 249.900,318.000 232.869,318.000 231.867 C 318.000 230.548,330.364 216.219,334.127 213.178 C 337.401 210.531,337.617 208.623,335.853 197.943 C 334.403 189.161,333.157 189.071,326.500 197.272 C 323.750 200.660,319.213 205.697,316.418 208.466 C 313.623 211.235,310.090 215.217,308.567 217.316 C 307.044 219.414,305.578 220.912,305.310 220.643 C 304.887 220.220,308.164 190.435,309.479 182.750 C 310.111 179.059,308.053 179.151,303.839 183.000 M103.000 205.882 C 80.540 213.130,74.037 224.536,69.439 264.750 C 68.480 273.137,67.378 280.000,66.991 280.000 C 66.604 280.000,66.005 283.038,65.659 286.750 C 65.314 290.462,64.738 295.637,64.380 298.250 L 63.728 303.000 72.864 303.000 L 82.000 303.000 82.000 300.000 C 82.000 298.350,82.392 297.000,82.871 297.000 C 83.350 297.000,84.044 293.738,84.415 289.750 C 84.785 285.762,85.337 281.068,85.643 279.317 L 86.197 276.135 89.899 278.065 C 98.370 282.480,112.247 282.821,122.330 278.863 C 128.187 276.563,138.896 269.433,139.721 267.285 C 140.050 266.428,141.845 263.460,143.710 260.688 C 145.576 257.916,147.622 253.702,148.258 251.324 C 148.894 248.946,149.771 247.000,150.207 247.000 C 150.643 247.000,151.000 242.950,151.000 238.000 C 151.000 232.667,150.593 229.000,150.000 229.000 C 149.450 229.000,149.000 228.307,149.000 227.459 C 149.000 224.447,142.722 213.916,139.192 211.006 C 131.142 204.371,114.837 202.063,103.000 205.882 M187.000 205.882 C 147.189 218.729,144.837 275.390,183.874 281.184 C 201.928 283.864,208.461 280.235,210.023 266.661 C 211.347 255.162,211.253 254.943,206.542 258.536 C 196.865 265.917,181.228 263.954,176.313 254.741 C 172.473 247.544,176.122 230.421,181.972 228.182 C 182.813 227.860,184.991 226.586,186.813 225.350 C 194.062 220.435,204.359 221.093,210.014 226.833 C 215.859 232.766,216.546 238.134,214.048 258.355 C 212.921 267.468,212.000 276.084,212.000 277.501 L 212.000 280.078 220.750 279.789 L 229.500 279.500 230.904 267.500 C 231.676 260.900,232.744 255.214,233.277 254.865 C 234.586 254.007,234.795 227.155,233.500 226.221 C 232.950 225.825,231.150 222.867,229.500 219.649 C 222.613 206.218,204.322 200.293,187.000 205.882 M256.500 207.681 C 249.732 211.294,246.388 214.814,244.614 220.189 C 242.906 225.363,235.894 277.756,236.709 279.250 C 237.397 280.511,255.000 280.151,255.000 278.876 C 255.000 271.987,261.531 227.166,262.735 225.793 C 263.802 224.577,266.136 224.002,270.856 223.793 L 277.479 223.500 278.208 218.000 C 278.610 214.975,279.149 211.037,279.406 209.250 L 279.874 206.000 269.687 206.040 C 262.323 206.069,258.669 206.524,256.500 207.681 M121.298 223.351 C 141.326 231.719,130.716 263.463,107.987 263.176 C 87.293 262.915,83.984 234.904,103.500 225.195 C 110.764 221.581,115.811 221.058,121.298 223.351 " stroke="none" fill="#000000" fill-rule="evenodd"></path></g></svg>