<svg xmlns="http://www.w3.org/2000/svg" width="400" height="400" viewBox="0, 0, 400,400">
<g>
<path d="M181.706 19.680 C 46.199 35.004,-26.030 187.451,48.998 299.776 C 132.797 425.234,322.628 400.654,371.826 257.976 C 414.278 134.860,310.742 5.088,181.706 19.680 M210.966 116.482 C 262.304 121.606,323.476 142.344,331.051 157.193 C 339.103 172.976,322.167 187.534,306.094 178.648 C 252.618 149.083,166.964 139.987,102.413 157.019 C 91.289 159.954,88.342 159.820,82.492 156.110 C 73.393 150.339,72.584 136.444,80.937 129.415 C 88.026 123.450,122.921 116.818,157.783 114.810 C 167.734 114.237,198.007 115.189,210.966 116.482 M196.285 178.271 C 245.415 183.126,302.953 204.879,307.066 220.154 C 308.952 227.156,304.214 235.104,296.995 237.048 C 292.382 238.290,290.239 237.704,281.087 232.694 C 232.672 206.192,168.152 198.450,112.476 212.462 C 98.015 216.101,92.556 214.790,88.659 206.740 C 83.531 196.146,89.393 189.136,107.036 184.767 C 134.360 178.001,168.442 175.520,196.285 178.271 M194.948 237.152 C 234.919 241.034,283.266 260.330,284.568 272.921 C 285.853 285.345,276.202 288.649,261.908 280.680 C 223.311 259.162,173.573 253.524,118.977 264.479 C 104.835 267.317,101.998 267.213,98.761 263.742 C 93.043 257.611,93.589 250.317,100.085 246.061 C 103.747 243.661,133.348 238.418,152.239 236.822 C 160.491 236.125,186.438 236.326,194.948 237.152 " stroke="none" fill-rule="evenodd"></path>
</g>
</svg>