<svg width="100%" height="100%" viewBox="0 0 400 400" version="1.1" xmlns="http://www.w3.org/2000/svg" style="fill-rule:evenodd;clip-rule:evenodd;stroke-linejoin:round;stroke-miterlimit:2;"><g transform="matrix(1.4858,0,0,1.4858,-96.6313,-101.329)">
<path d="M310.293,101.989C309.204,106.153 303.969,110.296 301,113.313C294.823,119.59 291.853,122.82 284.842,127.402C282.996,128.608 281.795,131.047 279.638,132.085C264.048,139.585 248.79,149.076 231.024,151.477C217.728,153.275 204.222,152.855 190.809,153.188C178.18,153.501 165.535,153.097 152.913,153.618C139.934,154.153 125.092,161.884 115.387,168.818C91.863,185.626 84.383,217.211 91.265,245.202C95.004,260.407 116.552,264.678 115.955,281.446C115.764,286.79 111.48,291.857 110.7,297.109C110.569,297.991 117.416,294.084 118.364,293.494C123.423,290.345 127.399,289.776 134.066,289.32C146.525,288.467 171.824,288.522 184.152,289.28C205.044,290.566 225.314,292.735 246.416,291.998C256.877,291.632 268.456,287.794 278.318,284.696C279.086,284.455 278.857,282.991 279.58,282.638C280.34,282.267 281.291,282.758 282.115,282.571C283.284,282.306 283.752,280.799 284.719,280.089C292.818,274.142 293.042,274.541 300,267.134C302.576,264.391 306.876,261.835 308.53,258.363C310.958,253.266 314.663,247.949 316.579,242.66C327.224,213.278 328.529,181.198 323.686,150.5C321.66,137.656 319.251,121.546 316.43,108.587C315.828,105.824 316.216,102.467 314.319,100.37C313.096,99.017 310.485,101.257 310.293,101.989M81.518,266.24C80.048,266.773 77.412,268.001 76.395,269.683C76.045,270.26 76.235,271.113 75.78,271.612C74.392,273.131 73.676,272.415 72.687,274.456C70.896,278.154 71.262,283.507 72.034,287.393C72.417,289.319 73.198,288.943 73.711,290.891C73.863,291.47 73.164,292.183 73.503,292.677C73.91,293.268 74.941,293.005 75.523,293.425C76.919,294.432 77.015,296.078 78.735,296.922C83.185,299.106 88.316,300.069 93.185,298.649C96.982,297.542 102.963,293.391 104.294,289.459C104.51,288.821 104.052,288.072 104.279,287.438C104.671,286.345 105.411,286.862 105.688,285.734C106.111,284.014 106.09,281.051 105.706,279.322C105.453,278.183 104.983,278.574 104.294,277.573C103.547,276.489 103.917,274.942 103.424,273.721C103.047,272.787 102.474,271.927 101.824,271.158C98.761,267.527 93.666,265.635 89.042,265.297C86.494,265.111 83.933,265.364 81.518,266.24"/>
</g>
</svg>
