<?xml version="1.0" encoding="UTF-8" standalone="no"?>
<!DOCTYPE svg PUBLIC "-//W3C//DTD SVG 1.1//EN" "http://www.w3.org/Graphics/SVG/1.1/DTD/svg11.dtd">
<svg width="100%" height="100%" viewBox="0 0 400 400" version="1.1" xmlns="http://www.w3.org/2000/svg" xmlns:xlink="http://www.w3.org/1999/xlink" xml:space="preserve" xmlns:serif="http://www.serif.com/" style="fill-rule:evenodd;clip-rule:evenodd;stroke-linejoin:round;stroke-miterlimit:2;">
    <g id="svgg">
        <path id="path0" d="M167,8C154.263,12.026 136.587,18.49 124.64,24.538C117.232,28.288 110.162,32.678 103.072,37C99.719,39.044 94.814,42.526 93.689,46.721C92.418,51.461 95.078,55.433 98.005,58.654C106.792,68.325 116.407,77.233 125,87.076C139.092,103.218 146.261,125.108 144.333,146.46C140.087,193.498 100.159,226.419 67.021,255C52.853,267.22 28.844,281.593 33.757,304.035C34.796,308.78 36.076,313.511 37.967,317.985C57.868,365.076 119.393,367.005 162,373C178.67,375.345 178.449,376.526 195.205,375.999C198.02,375.911 203.28,374.377 205.377,372.309C206.35,371.349 206.392,369.769 207,368.545C216.021,350.386 220.111,344.67 226.66,325.385C236.153,297.429 240.566,281.235 243.465,251.774C245.793,228.122 243,216.633 243,193L243,187L247,187C253.916,187 262.529,182.632 269,181C288.599,176.057 308.274,171.407 328,167C339.611,164.406 351.264,161.956 363,160C365.141,159.643 377.992,161.814 375.295,154.525C359.086,110.71 309.802,91.292 268.061,81.5C249.171,77.069 229.941,74.207 211,70C203.932,68.43 200.661,60.714 198,55C191.827,41.746 186.117,28.28 180,15C177.498,9.568 177.664,9.271 172,7C171.555,6.822 167,5.954 167,8M171,18C171,20.196 172.284,20.151 172.706,22.175C173.092,24.029 172.818,25.992 173.294,27.825C173.503,28.63 174.402,29.107 174.706,29.881C175.071,30.809 174.985,31.862 175.26,32.82C175.69,34.318 178.81,39.576 174.545,39.561C170.775,39.547 170.784,38.063 167.25,37.292C163.252,36.419 159.191,35.864 155.14,35.289C147.772,34.243 140.323,33.752 133,32.429C132.631,32.362 133.066,31.641 133.294,31.343C133.643,30.887 134.133,30.532 134.646,30.274C135.896,29.646 137.341,29.429 138.539,28.706C139.041,28.403 171,13.377 171,18M133,42C133,42.457 133.731,42.6 134.175,42.706C136.552,43.276 159.591,46.085 168.662,47.344C170.261,47.566 172.872,48.31 172.913,50.425C172.948,52.196 170.271,51.244 169.541,51.588C167.409,52.59 165.43,53.911 163.523,55.294C163.048,55.637 162.985,56.414 162.477,56.706C161.592,57.216 160.448,57.117 159.541,57.588C156.897,58.959 157.083,60.416 153.943,60.966C152.268,61.26 136.733,50.017 132.013,44.679C131.389,43.974 130.405,42.597 130.964,41.502C131.407,40.631 133,41.058 133,42M119.571,44.429C120.707,45.563 120.375,47.401 121.535,48.52C122.407,49.361 123.419,50.047 124.314,50.863C124.553,51.081 124.764,51.335 124.929,51.613C126.304,53.929 123.112,55.406 121.232,55.366C120.099,55.342 118.333,54.877 117.316,54.388C116.732,54.108 116.505,53.443 115.825,53.294C114.9,53.091 113.945,53.062 113,53C111.904,52.928 110.655,53.199 109.644,52.592C108.934,52.164 108.937,51.162 109,50.464C109.122,49.11 109.319,47.905 110.173,46.785C112.164,44.173 116.695,41.552 119.571,44.429M185,57C185,57.637 189.483,65.964 188.388,66.842C187.5,67.555 174.247,62.941 173.588,62.832C173.419,62.804 173.026,62.665 173,62.429C172.885,61.37 174.063,60.659 174.812,60.257C176.045,59.595 179.507,57.449 180,57C181.044,56.049 184.069,53.792 184.878,56.16C184.97,56.428 185,56.717 185,57M129.571,68.429C130.664,69.521 133.087,76.702 133.367,78.108C133.562,79.082 134.791,79.24 135.02,80.194C135.062,80.371 134.828,80.725 134.617,80.701C133.868,80.617 133.113,80.228 132.587,79.695C131.287,78.377 131.06,76.416 129.825,75.052C127.563,72.555 124.95,70.352 123,67.578C122.659,67.094 123.697,67.018 123.834,67.014C124.48,66.995 125.129,66.976 125.771,67.041C127.096,67.175 128.581,67.438 129.571,68.429M168.393,74.944C169.332,75.043 171.318,75.561 171,77C170.598,78.824 168.411,79.226 167.178,80.175C163.045,83.356 152.238,93.359 150.026,92.997C148.52,92.75 142.8,74.294 143,73C143.24,71.441 143.427,71.226 145,71M229.95,87.361C230.442,87.421 231.326,87.874 231.263,88.548C231.074,90.569 200.194,106.821 199.523,107.294C199.122,107.576 199.041,108.156 198.714,108.522C198.524,108.736 198.152,109.243 198,109C194.767,103.838 196.766,97.271 196.725,91.75C196.717,90.595 195.525,88.899 195.294,87.825C194.9,85.997 194.863,83.389 195.438,81.583M183.571,84.429C185.525,86.38 186.877,110.348 186.212,111.05C185.83,111.454 185.293,110.637 185.186,110.515C184.83,110.108 160.45,103.253 159,102C158.051,101.18 160.545,101.002 160.548,101C161.649,100.416 180.167,82.052 182.224,83.097C182.787,83.383 183.125,83.982 183.571,84.429M297.875,107.23C298.306,107.373 299.395,107.775 299,108C297.167,109.042 254.208,121.511 251,123C249.689,123.609 247.203,126.493 245.5,124.5C243.689,122.381 250.482,106.708 252,101C252.409,99.461 252.451,95.191 253.375,93.75M243,96C243,96.846 235.558,116.514 232.88,120.996C231.921,122.602 230.551,123.937 229.588,125.541C228.961,126.583 229.074,128.993 227.26,129.049C224.918,129.121 223.479,126.782 221.798,125.65C218.34,123.323 214.774,121.159 211.208,119C209.846,118.175 208.555,118.018 207.45,116.761C205.715,114.787 209.983,114.931 210.413,114.706C210.943,114.428 237.564,98.368 240.477,96.706C240.726,96.565 243,93.655 243,96M165,118C165,118.375 165.622,118.655 165.881,118.706C166.581,118.845 167.308,118.829 168,119C170.383,119.589 172.723,120.344 175.093,120.984C175.419,121.073 177.511,121.203 177.166,122.204C176.25,124.864 173.69,125.867 171.754,127.644C166.269,132.677 161.052,137.998 155.538,143C155.401,143.124 155.066,143.01 155.009,142.834C154.506,141.285 155.143,140.71 155.158,139.181C155.189,136.121 155,133.061 155,130L155,117L160,117C162.75,117 165,117.45 165,118M305,117.779C305,118.675 303.427,119.489 303,120C302.262,120.885 301.701,121.906 301,122.82C292.496,133.911 283.907,144.936 275.384,156.014C273.76,158.125 271.733,162.106 268.557,162.098C266.965,162.094 265.666,159.765 265,159.033C260.655,154.261 256.335,149.464 251.91,144.766C250.384,143.145 246.887,141.157 247.849,138.232C248.82,135.282 252.825,135.754 255,135C265.064,131.511 274.964,127.568 285,124C289.966,122.234 295,120.667 300,119C301,118.667 302.057,118.471 303,118C303.422,117.789 303.531,117.052 304,117C304.42,116.954 305,117.356 305,117.779M320,119C320.703,119.975 322.004,120.328 323,121C326.944,123.661 330.983,126.187 334.82,129C342.587,134.693 352.977,142.828 359,150.484C359.426,151.025 357.644,150.756 357,151C356.303,151.264 355.737,151.889 355,152C349.03,152.896 342.967,153.082 337,154C325.625,155.75 314.311,157.876 303,160C298.336,160.876 293.705,161.925 289.083,163C287.609,163.343 286.158,163.779 284.72,164.25C284.304,164.386 283.258,165.153 283.536,164.816C292.793,153.595 300.847,146.134 309,134C311.745,129.915 313.576,125.283 316,121C316.622,119.9 318.414,116.8 320,119M199,132C199,133.725 201.58,133.143 202.413,133.294C204.516,133.675 212.857,137.659 213,140.429C213.012,140.666 212.643,140.774 212.413,140.832C211.488,141.067 193.577,149.928 191.664,151.635C190.557,152.622 189.234,155.117 187.244,154.523C186.856,154.407 187.381,153.715 187.553,153.349C188.145,152.092 194.869,132.864 195.158,132.152C195.668,130.897 199,129.793 199,132M181,138C181,139.143 179.461,139.118 179.294,140.175C178.992,142.076 171.932,158.24 171.294,159.588C170.783,160.665 170.175,163.705 168.161,162.419C164.791,160.267 163.261,158.603 160.878,155.422C160.197,154.514 170.202,144.715 172.835,142.469C173.919,141.543 175.498,141.333 176.587,140.413C177.53,139.615 178.181,138.511 179.121,137.71C179.558,137.337 181,136.933 181,138M236,153C237.629,155.26 240.872,156.438 243,158C246.202,160.349 249.276,162.868 252.377,165.348C253.8,166.486 256.458,168.542 257,170.474C257.274,171.451 254.984,170.75 254,171L203,188C202.001,188.4 200.749,189.664 199.464,188.804C199.162,188.603 199.387,188.002 199.626,187.728C204.605,182.01 210.062,176.718 215,170.964C218.859,166.468 222.218,161.562 226,157C227.78,154.852 232.595,148.275 236,153M209,157.779C209,159.736 185.238,191.045 182.637,187.913C181.18,186.159 179.575,180.998 179.294,180.413C178.878,179.545 179.076,178.475 178.706,177.588C178.304,176.621 176.058,175.195 177.444,173.892C178.639,172.768 179.039,173.381 180.413,172.706C183.141,171.365 206.875,157.658 207.294,157.294C207.702,156.938 209,156.747 209,157.779M155.571,170.429C155.833,170.691 156.069,170.982 156.267,171.295C156.487,171.644 151.093,178.09 150.106,178.574C149.771,178.739 148.536,178.998 148.393,179.052C147.468,179.403 147.01,180.398 146.113,180.809C145.849,180.93 145.506,180.986 145.343,180.643C144.952,179.817 146.036,179.225 146.356,178.686C146.995,177.609 148.931,171.903 149.503,170.756C150.745,168.266 153.856,168.714 155.571,170.429M169.571,188.429C170.71,189.567 172.739,195.033 172.673,196.066C172.509,198.604 145.489,209.8 144.72,210.25C144.344,210.47 143.693,211.239 143.548,210.828C142.86,208.874 145.598,207.718 146.549,206.781C153.509,199.921 155.113,197.368 162.289,190.719C163.811,189.309 167.308,186.163 169.571,188.429M229.571,194.429C230.066,194.924 230.915,215.286 230.821,216.089C230.782,216.421 230.674,217.193 230.401,217C227.876,215.217 208.385,201.314 207.469,200.706C206.858,200.3 206.799,199.583 207.588,199.294C208.491,198.963 228.119,192.976 229.571,194.429M141,197.571C141,198.209 140.33,198.861 139.871,199.175C137.544,200.77 130.609,206.358 128.918,207.875C128.608,208.153 128.238,208.356 127.89,208.585C127.811,208.637 127.482,208.839 127.362,208.695C127.224,208.529 127.399,208.161 127.481,208.035C127.753,207.62 128.012,207.194 128.339,206.822C129.337,205.689 137.852,199.019 138.552,198.706C139.169,198.43 138.677,197.57 139.294,197.294C139.645,197.136 141,196.631 141,197.571M199,206C200.138,207.218 201.635,208.044 203,209C208.539,212.88 214.248,216.518 219.709,220.508C221.125,221.541 224.738,224.598 222.569,226.865C220.565,228.96 219.757,227.811 217.462,229.294C216.969,229.612 216.931,230.432 216.413,230.706C212.9,232.561 198.851,239.3 195.588,241.294C194.681,241.848 194.363,242.912 193.194,243.123C190.922,243.533 190.707,240.165 190.802,238.89C191.178,233.869 192.024,228.891 192.441,223.873C192.857,218.864 192.832,213.823 193.299,208.818C193.436,207.349 193.787,205.897 194.25,204.496C194.343,204.214 195.564,202.971 196.047,203.253C197.208,203.932 198.082,205.018 199,206M183,217C183,223.5 180.312,229.864 179.294,236.175C179.135,237.161 180.226,243.346 177.321,243.27C175.259,243.216 173.598,241.05 172.57,239.6C166.31,230.776 166.896,230.445 160.706,221.588C160.345,221.071 158.23,219.947 158.855,218.851C160.051,216.754 162.994,216.866 164.918,216.216C167.733,215.265 181.08,207.825 182.383,209.072C184.624,211.217 183,214.492 183,217M149.571,224.429C150.488,225.345 150.782,227.453 151.294,228.539C152.549,231.201 160.854,243.264 163.064,246.063C164.905,248.395 167.225,249.72 168.057,252.8C168.213,253.376 167.859,254.109 167.372,254.454C165.712,255.632 131.544,267.066 129.651,266.838L126.861,266.5L128.931,264.292C130.842,262.252 131.209,260.574 132.349,258.108C133.975,254.591 144.888,230.459 145.294,229.588C145.581,228.972 146.428,228.738 146.706,228.119C146.979,227.512 147.092,221.948 149.571,224.429M133,230C133,230.924 131.621,230.996 131.294,231.563C130.49,232.958 123.661,244.772 123.248,245.588C122.814,246.443 123.035,247.512 122.706,248.413C122.458,249.093 121.612,248.806 121.294,249.385C119.652,252.368 118.359,255.531 116.778,258.547C116.06,259.917 113.571,267.48 110.153,264.942C108.499,263.713 109.183,261.566 108.706,259.881C108.303,258.458 107.412,257.198 107.046,255.765C105.854,251.089 105.99,249.1 107.101,244.437C107.436,243.035 108.563,240.789 109.959,240.077C114.432,237.797 128.076,231.462 129,231C129.43,230.785 129.995,230.944 130.412,230.706C130.664,230.563 133,227.634 133,230M231,245C231,247.918 230.969,250.842 230.729,253.75C230.517,256.324 229.639,256.464 229.286,259C229.056,260.653 229.01,262.331 229,264C228.988,266.133 229.947,269.029 228.076,270.797C226.633,272.16 225.151,269.696 224.119,269.294C222.479,268.655 220.665,268.569 219,268C216.754,267.232 195.573,257.308 195,254.571C194.606,252.691 227.932,234.639 229.302,233.672C229.593,233.467 230.079,233.157 230.336,233.403C233.448,236.395 231,241.655 231,245M93,257C93,261.567 93.798,261.489 94.706,265.881C94.995,267.278 94.853,268.763 95.294,270.119C95.727,271.45 99.144,274.719 96.698,276.343C94.559,277.763 50.681,288.82 51,288C51.282,287.276 52.285,287.065 52.706,286.413C54.771,283.216 91.293,249.321 92,249C92.717,248.675 92.677,250.464 92.719,251.25C92.82,253.166 93,255.081 93,257M216.27,277.436C216.843,277.616 217.689,277.938 217.696,278.54C217.706,279.396 216.978,280.168 216.307,280.7C212.043,284.083 211.509,282.804 206.501,284.794C203.689,285.912 200.997,287.313 198.272,288.63C195.536,289.951 192.936,291.568 190.119,292.706C184.126,295.128 177.909,296.96 171.881,299.294C170.407,299.865 169.957,301.162 168.187,301.144C167.271,301.135 167.69,299.755 167.793,299.502C168.143,298.644 168.54,297.803 169,297C171.414,292.787 174.135,288.748 176.413,284.459C178.492,280.542 177.405,279.862 179.294,275.881C180.251,273.864 181.868,272.188 182.706,270.119C183.293,268.671 182.629,266.797 183.5,265.5M169,268C169,268.608 167.494,269.272 167.294,269.588C166.494,270.846 165.96,272.254 165.294,273.588C164.627,274.921 151.278,300.548 150.03,303.006C149.801,303.457 148.843,304.867 148.066,304.673C147.379,304.5 147.041,303.648 146.392,303.364C145.505,302.977 144.423,303.152 143.563,302.706C139.545,300.623 136.683,297.757 133.164,295C129.027,291.76 123.182,288.753 122.04,282.971C121.346,279.456 165.467,268.995 166.119,268.706C166.393,268.584 169,265.525 169,268M225,289C225,291.03 223.604,293.171 223,295C220.588,302.308 218.503,309.723 216,317C214.824,320.419 213.121,325.072 208.772,325.4C205.416,325.653 202.234,324.599 199,324C190.338,322.396 184.388,321.868 176,319C172.894,317.938 170.023,316.281 167,315C166.709,314.877 165.003,314.701 165,314C164.997,313.285 166.699,313.108 167,313C169.68,312.038 172.371,311.095 175,310C184.373,306.094 193.756,302.202 203,298C208.428,295.533 213.738,292.806 219,290C219.528,289.718 225,284.636 225,289M95,290.599C95,293.784 91.455,295.222 89.881,297.384C87.746,300.317 86.176,303.628 84.119,306.616C81.212,310.838 77.802,314.707 75,319C73.89,320.7 72.185,328.625 68.086,326.427C67.273,325.99 66.518,325.438 65.824,324.828C64.664,323.808 63.575,322.705 62.544,321.554C60.62,319.405 58.756,317.2 56.969,314.936C54.284,311.535 51,307.654 51,303L51,299C51,299 95,288.314 95,290.599M118,301C122.09,305.135 122.589,305.785 127.457,309C128.589,309.747 129.784,310.4 131,311C131.277,311.136 133,311.31 133,312C133,312.651 131.276,312.9 131,313C127.414,314.297 123.903,315.808 120.276,316.984C110.562,320.134 100.772,323.042 90.991,325.974C89.306,326.479 87.502,326.611 85.881,327.294C85.185,327.587 82.608,331.034 81.491,328.833C80.241,326.371 83.942,325.19 85,324C87.837,320.811 90.389,317.377 93,314C97.398,308.312 101.7,302.55 106.028,296.808C106.921,295.623 107.58,294.234 108.661,293.217C109.23,292.682 110.823,293.213 111.258,293.596C115.028,296.911 114.488,297.45 118,301M159,324C159,324.776 165.701,326.922 166,327C179.699,330.592 179.665,330.215 193.716,332.415C194.702,332.57 199.068,333.361 196.941,335.455C195.799,336.578 192.708,336.643 191.571,337C186.672,338.538 181.918,340.522 177,342C166.389,345.19 155.635,347.89 145,351C141.602,351.994 137.313,354.8 133.666,352.524C130.889,350.79 145.497,329.309 153.357,323.609C154.174,323.016 159,320.921 159,324M137,325.779C137,326.721 135.411,327.428 135,328C132.898,330.93 123.581,344.804 121,348.792C120.434,349.666 120.391,350.928 119.571,351.571C118.486,352.421 117.041,352.766 115.677,352.964C114.002,353.207 113.435,351.813 112.119,351.294C105.608,348.725 98.86,347.158 92.545,344.061C90.782,343.196 89.293,341.859 87.688,340.729C87.035,340.269 86.371,339.82 85.773,339.292C85.295,338.871 84.403,337.767 85,337.545C88.201,336.354 132.613,324.86 135.857,325.035C136.311,325.059 137,325.324 137,325.779M207,343C207,344.707 205.593,346.531 205,348C203.262,352.305 201.63,356.653 200,361C199.63,361.987 199.301,362.99 199,364C198.745,364.857 199.118,366.17 198.333,366.6C195.788,367.994 191.435,366.324 189,366C180.68,364.892 172.321,364.095 164,363C159.653,362.428 155.348,361.562 151,361C149.495,360.805 146.318,361.318 145,360L169,354C176.495,352.126 191.847,346.886 199,344C199.446,343.82 207,338.227 207,343"/>
    </g>
</svg>
