<svg version="1.1" width="515" height="515" xmlns="http://www.w3.org/2000/svg">
<g>
<path d="M227.500 43.092 C 157.799 48.755,104.000 75.026,95.533 107.535 C 92.908 117.612,93.247 400.404,95.895 408.909 C 110.808 456.827,222.570 486.140,319.500 467.556 C 325.530 466.400,326.894 466.417,329.343 467.681 C 330.907 468.487,332.444 468.889,332.760 468.574 C 333.438 467.895,333.827 468.212,327.216 464.064 L 321.932 460.748 312.216 462.345 C 280.238 467.600,240.543 468.040,209.722 463.482 C 204.100 462.650,198.864 461.737,198.086 461.453 C 197.309 461.169,195.059 460.692,193.086 460.393 C 161.297 455.572,123.294 437.436,109.961 420.724 C 99.406 407.494,98.995 405.050,99.024 355.701 L 99.047 315.500 101.423 321.277 C 116.145 357.078,179.295 381.000,259.079 381.000 C 280.663 381.000,282.000 380.804,282.000 377.643 C 282.000 375.514,281.845 375.500,258.250 375.446 C 235.354 375.393,212.933 373.593,201.000 370.847 C 198.525 370.278,195.150 369.601,193.500 369.344 C 170.679 365.778,135.979 352.154,124.790 342.366 C 99.164 319.949,98.988 319.413,99.033 264.040 C 99.065 224.274,99.098 223.595,100.802 228.500 C 127.660 305.816,376.559 309.009,412.624 232.500 C 413.920 229.750,415.047 228.175,415.129 229.000 C 415.211 229.825,415.553 243.550,415.889 259.500 L 416.500 288.500 418.750 288.820 L 421.000 289.139 421.000 201.280 C 421.000 105.552,421.105 107.475,415.300 96.810 C 395.487 60.406,311.187 36.293,227.500 43.092 M283.000 49.017 C 406.705 59.558,458.125 125.781,375.000 167.502 C 371.975 169.020,369.250 170.651,368.945 171.125 C 367.814 172.882,347.050 179.962,333.000 183.382 C 285.582 194.924,229.418 194.924,182.000 183.382 C 167.950 179.962,147.186 172.882,146.055 171.125 C 145.750 170.651,143.025 169.028,140.000 167.520 C 69.070 132.153,96.325 73.491,192.500 54.522 C 206.635 51.734,218.467 50.148,236.000 48.690 C 245.618 47.890,271.921 48.073,283.000 49.017 M105.783 146.171 C 136.115 190.127,241.635 210.331,331.500 189.389 C 348.749 185.369,374.917 176.040,376.961 173.181 C 377.258 172.767,381.041 170.241,385.368 167.569 C 399.083 159.100,410.048 147.473,414.110 137.092 C 416.100 132.006,416.871 188.371,415.130 211.609 C 413.649 231.380,402.696 244.751,376.723 258.498 C 332.754 281.769,252.410 290.420,197.000 277.849 C 194.525 277.287,191.375 276.626,190.000 276.380 C 142.970 267.947,104.858 242.846,100.014 217.114 C 99.431 214.015,99.015 194.686,99.036 171.614 L 99.072 131.500 100.934 136.671 C 101.958 139.515,104.140 143.790,105.783 146.171 M410.000 197.441 C 410.000 199.884,410.450 202.160,411.000 202.500 C 411.616 202.881,412.000 201.177,412.000 198.059 C 412.000 195.277,411.550 193.000,411.000 193.000 C 410.450 193.000,410.000 194.998,410.000 197.441 M410.000 284.500 C 410.000 285.325,410.450 286.000,411.000 286.000 C 411.550 286.000,412.000 285.325,412.000 284.500 C 412.000 283.675,411.550 283.000,411.000 283.000 C 410.450 283.000,410.000 283.675,410.000 284.500 M361.000 285.889 C 261.906 307.658,257.161 445.488,354.500 474.698 C 389.976 485.344,433.464 471.599,456.852 442.349 C 513.598 371.382,449.334 266.484,361.000 285.889 M360.250 341.461 C 362.313 342.511,364.000 343.687,364.000 344.074 C 364.000 344.461,378.324 353.025,395.830 363.105 L 427.660 381.432 391.650 402.216 C 371.844 413.647,355.495 423.000,355.320 423.000 C 355.144 423.000,355.000 404.063,355.000 380.917 C 355.000 357.771,355.337 338.995,355.750 339.193 C 356.163 339.390,358.188 340.411,360.250 341.461 M380.000 481.000 C 380.000 481.550,380.675 482.000,381.500 482.000 C 382.325 482.000,383.000 481.550,383.000 481.000 C 383.000 480.450,382.325 480.000,381.500 480.000 C 380.675 480.000,380.000 480.450,380.000 481.000 " stroke="none" fill-rule="evenodd"></path>
</g>
</svg>