<?xml version="1.0" encoding="UTF-8" standalone="no"?>
<!DOCTYPE svg PUBLIC "-//W3C//DTD SVG 1.1//EN" "http://www.w3.org/Graphics/SVG/1.1/DTD/svg11.dtd">
<svg width="100%" height="100%" viewBox="0 0 515 515" version="1.1" xmlns="http://www.w3.org/2000/svg" xmlns:xlink="http://www.w3.org/1999/xlink" xml:space="preserve" xmlns:serif="http://www.serif.com/" style="fill-rule:evenodd;clip-rule:evenodd;stroke-linejoin:round;stroke-miterlimit:2;">
    <g id="svgg">
        <path id="path0" d="M385,40C385,41.374 382.347,40.725 381,41C372.392,42.758 380.893,47.935 387.025,54.024L397.049,63.979L388.539,72.49C388.173,72.856 381.821,80.283 378.927,80.201C373.313,80.042 365.526,68.111 361.723,65.08C359.067,62.964 356.846,61.329 355.817,65.647C352.232,80.687 357.641,93.343 369.474,102C370.814,102.98 373.361,104.76 375,105C378.949,105.579 382.936,106.077 386.927,106.043C396.43,105.961 397.753,101.777 404.312,108.28C406.15,110.103 407.884,112.138 409,114.474C410.465,117.54 405.409,117.457 407.553,120.204C414.811,129.504 429.029,142.831 436.563,149.75C440.174,153.066 443.202,157.991 448,159C455.872,160.655 464.876,160.848 470.712,154.323C485.112,138.222 465.369,122.586 454.842,111.739C448.131,104.826 441.457,97.751 433.727,92C431.726,90.511 429.663,96.374 427.248,95.747C424.647,95.071 418.625,89.043 417.34,86.63C416.57,85.183 418.482,83.555 419,82C420.231,78.306 421,76.596 421,72C421,64.424 417.014,53.987 411.513,48.487C405.653,42.627 398.575,41.894 391,40C391,40 385,37.333 385,40M82.186,70.472C73.331,75.356 66.696,91.011 72.004,100.362C78.479,111.77 87.131,121.271 95,132C98.527,136.809 103.072,142.216 105,148C111.07,166.211 115.731,184.804 126.25,201.117C129.342,205.913 129.452,205.667 133,210C134.887,212.304 138.814,214.512 138.03,217.385C137.639,218.818 135.564,222.026 135,224C130.58,239.469 126,256.926 126,273C126,280.029 127.843,288.055 129,295C131.206,308.236 136.565,323.291 146.68,332.752C149.478,335.369 156.818,341 162,341C177.134,341 178.157,324.06 180,313C180.092,312.446 181.343,301.829 183,301L190,315C194.553,324.106 200.22,332.219 207.491,339.499C211.792,343.806 216.484,347.238 221.099,351.103C222.337,352.139 223.335,353.51 224.754,354.28C225.142,354.49 230.421,355.405 229.783,352.644C228.897,348.808 222.373,343.44 220,340C211.806,328.121 205.38,315.522 198,303.221C193.479,295.686 188.803,286.409 186,278C185.344,276.031 184.404,270.574 181.429,271C176.899,271.649 175.454,275.574 173,279C166.48,288.099 164.634,298.57 163,309.5C162.285,314.285 163.122,319.339 161.671,323.955C160.842,326.595 155.74,323.557 153.677,321.712C149.262,317.763 145.851,309.553 144,304C137.85,285.55 137.696,266.997 141,248C142.872,237.236 150,227.485 150,216.445L150,208.889L144,203C124.873,184.226 123.547,154.578 111,132C105.435,121.986 97.1,112.656 90,103.702C87.158,100.118 84.307,97.475 83.005,93.06C80.964,86.138 89.425,83.869 93.843,82.885C99.439,81.638 105.423,86.407 110,89C113.171,90.796 117.042,90.711 120,92.441C124.529,95.09 129.477,98.898 133.82,102C136.332,103.794 138.37,106.453 141.277,107.491C151.106,111.001 163.791,109.542 174,111C179.509,111.787 184.91,114.964 190,117C215.103,127.041 237.754,144.696 257.086,163.391C266.048,172.059 273.679,180.439 281,190.201C290.725,203.168 298.025,217.062 304,232C308.406,243.015 315.264,253.204 320,264C326.3,278.362 331.582,297.925 343.726,308.777C353.691,317.681 370.859,319.143 383,324C393.725,328.29 403.447,336.631 413,343C418.564,346.709 430.722,351.669 433.285,357.388C435.448,362.214 422.783,358.754 417.5,359C411.996,359.256 406.486,359.49 401,360C392.606,360.781 384.281,364.098 376.429,367C372.735,368.366 371.344,367.609 371.036,372.323C370.704,377.413 378.544,385.567 381,388.947C395.135,408.405 421.176,412.451 440,425C442.318,426.546 446.126,428.038 448,430.071C448.688,430.817 448.786,432.054 449.598,432.663C450.819,433.579 452.928,432.84 454,433.926C456.711,436.672 458.052,441.038 462.467,442C466.002,442.771 462.316,436.797 462,436.439C456.817,430.554 451.752,424.549 446.24,418.97C440.731,413.394 434.832,408.213 428.971,403.009C421.936,396.763 412.592,393.457 405,388C402.313,386.069 395.287,382.505 395,378.545C394.939,377.705 396.289,377.452 397,377C399.878,375.169 403.753,374.812 407,374C418.546,371.114 430.408,370.705 442,368C444.379,367.445 453.25,366.839 451.806,362.306C451.178,360.333 449.309,359 448,357.395C442.763,350.974 438.639,346.963 432,342C418.514,331.917 404.408,319.148 389,312C379.182,307.445 364.853,305.024 356.677,297.712C351.631,293.198 349.106,284.868 346,279C340.051,267.76 334.351,257.964 330,246C327.976,240.434 324.201,235.501 322,230C318.808,222.021 316.029,213.613 312,206C304.519,191.864 293.52,178.082 283,166.154C267.826,148.95 250.038,134.692 231,122C216.693,112.462 202.678,103.765 186,99C176.899,96.4 167.494,96.25 158.167,94.95C155.078,94.52 151.767,94.663 148.955,93.314C143.147,90.528 137.699,84.384 132.367,80.515C123.235,73.887 105.955,68.873 95.154,69.087C90.808,69.173 85.993,68.373 82.186,70.472M150,135.578C150,136.422 150.674,137.143 151.175,137.822C152.858,140.103 155.142,141.897 156.825,144.178C157.938,145.687 157.3,145.968 158.294,147.537C158.78,148.304 159.288,147.75 159.706,148.588C160.136,149.448 159.864,150.552 160.294,151.413C160.712,152.25 161.219,151.696 161.706,152.462C162.577,153.83 162.112,155.261 163.429,156.571C164.285,157.423 166.467,158.805 167.578,157.37C168.126,156.663 167.919,155.338 168.294,154.588C168.763,153.648 169.367,154.135 169.706,153.119C170.157,151.766 169.843,150.234 170.294,148.881C170.81,147.332 172,147.886 172,146C172,144.286 171.105,144.793 170.294,143.55C169.46,142.272 169.849,140.699 168.855,139.335C166.647,136.307 162.658,134.707 159.069,134.188C156.632,133.836 153.561,134.022 151.285,134.311C150.566,134.402 150,134.823 150,135.578"/>
    </g>
</svg>
