<svg id="svg" version="1.1" width="515" height="515" xmlns="http://www.w3.org/2000/svg" xmlns:xlink="http://www.w3.org/1999/xlink" style="display: block;"><g id="svgg"><path id="path0" d="M385.000 40.000 C 385.000 40.550,383.200 41.000,381.000 41.000 C 374.936 41.000,375.810 42.888,387.025 54.024 L 397.049 63.979 388.539 72.490 C 378.188 82.841,379.794 82.887,368.935 71.934 C 356.790 59.685,355.609 59.798,355.214 73.250 C 355.030 79.495,355.300 83.000,355.964 83.000 C 356.534 83.000,357.000 84.575,357.000 86.500 C 357.000 88.425,357.450 90.000,358.000 90.000 C 358.550 90.000,359.000 90.687,359.000 91.526 C 359.000 93.511,367.489 102.000,369.474 102.000 C 370.313 102.000,371.000 102.450,371.000 103.000 C 371.000 103.550,371.900 104.000,373.000 104.000 C 374.100 104.000,375.000 104.450,375.000 105.000 C 375.000 106.526,398.726 106.323,399.236 104.793 C 399.752 103.244,409.000 112.414,409.000 114.474 C 409.000 115.313,408.550 116.000,408.000 116.000 C 403.922 116.000,407.677 122.044,417.629 131.500 C 423.418 137.000,431.938 145.213,436.563 149.750 C 441.188 154.287,445.653 158.000,446.486 158.000 C 447.319 158.000,448.000 158.450,448.000 159.000 C 448.000 159.583,451.333 160.000,456.000 160.000 C 460.667 160.000,464.000 159.583,464.000 159.000 C 464.000 158.450,464.690 158.000,465.533 158.000 C 468.053 158.000,474.000 151.350,474.000 148.533 C 474.000 147.140,474.450 146.000,475.000 146.000 C 475.550 146.000,476.000 143.750,476.000 141.000 C 476.000 138.250,475.550 136.000,475.000 136.000 C 474.450 136.000,474.000 134.872,474.000 133.494 C 474.000 130.807,436.335 92.000,433.727 92.000 C 433.020 92.000,431.793 92.900,431.000 94.000 C 428.798 97.056,426.373 96.426,421.474 91.526 C 417.120 87.172,415.963 85.000,418.000 85.000 C 418.550 85.000,419.000 83.650,419.000 82.000 C 419.000 80.350,419.450 79.000,420.000 79.000 C 420.571 79.000,421.000 76.000,421.000 72.000 C 421.000 68.000,420.571 65.000,420.000 65.000 C 419.450 65.000,419.000 63.650,419.000 62.000 C 419.000 60.350,418.550 59.000,418.000 59.000 C 417.450 59.000,417.000 58.100,417.000 57.000 C 417.000 55.900,416.550 55.000,416.000 55.000 C 415.450 55.000,415.000 54.310,415.000 53.467 C 415.000 51.476,408.524 45.000,406.533 45.000 C 405.690 45.000,405.000 44.550,405.000 44.000 C 405.000 43.450,404.100 43.000,403.000 43.000 C 401.900 43.000,401.000 42.550,401.000 42.000 C 401.000 41.450,398.750 41.000,396.000 41.000 C 393.250 41.000,391.000 40.550,391.000 40.000 C 391.000 39.450,389.650 39.000,388.000 39.000 C 386.350 39.000,385.000 39.450,385.000 40.000 M82.186 70.472 C 71.136 76.566,66.256 97.325,74.491 103.208 C 75.036 103.598,75.511 104.498,75.546 105.208 C 75.667 107.674,77.802 111.513,80.394 113.924 C 81.827 115.258,83.000 116.788,83.000 117.325 C 83.000 117.861,85.025 120.213,87.500 122.551 C 89.975 124.889,92.000 127.341,92.000 128.000 C 92.000 128.659,93.350 130.459,95.000 132.000 C 96.650 133.541,98.000 135.423,98.000 136.180 C 98.000 136.938,98.900 138.207,100.000 139.000 C 101.100 139.793,102.000 141.242,102.000 142.221 C 102.000 143.199,102.450 144.000,103.000 144.000 C 103.550 144.000,104.000 144.900,104.000 146.000 C 104.000 147.100,104.450 148.000,105.000 148.000 C 105.550 148.000,106.000 149.800,106.000 152.000 C 106.000 154.200,106.450 156.000,107.000 156.000 C 107.550 156.000,108.000 157.350,108.000 159.000 C 108.000 160.650,108.450 162.000,109.000 162.000 C 109.550 162.000,110.000 163.350,110.000 165.000 C 110.000 166.650,110.450 168.000,111.000 168.000 C 111.550 168.000,112.000 168.900,112.000 170.000 C 112.000 171.100,112.450 172.000,113.000 172.000 C 113.550 172.000,114.000 173.350,114.000 175.000 C 114.000 176.650,114.450 178.000,115.000 178.000 C 115.550 178.000,116.000 179.350,116.000 181.000 C 116.000 182.650,116.450 184.000,117.000 184.000 C 117.550 184.000,118.000 184.900,118.000 186.000 C 118.000 187.100,118.450 188.000,119.000 188.000 C 119.550 188.000,120.000 188.900,120.000 190.000 C 120.000 191.100,120.450 192.000,121.000 192.000 C 121.550 192.000,122.000 192.862,122.000 193.917 C 122.000 194.971,122.416 195.983,122.925 196.167 C 123.434 196.350,123.996 197.175,124.175 198.000 C 124.354 198.825,125.287 200.228,126.250 201.117 C 127.213 202.007,128.000 203.274,128.000 203.932 C 128.000 204.591,130.250 207.321,133.000 210.000 C 137.635 214.514,139.378 218.000,137.000 218.000 C 136.450 218.000,136.000 219.350,136.000 221.000 C 136.000 222.650,135.550 224.000,135.000 224.000 C 134.450 224.000,134.000 225.800,134.000 228.000 C 134.000 230.200,133.550 232.000,133.000 232.000 C 132.450 232.000,132.000 234.025,132.000 236.500 C 132.000 238.975,131.550 241.000,131.000 241.000 C 130.450 241.000,130.000 242.575,130.000 244.500 C 130.000 246.425,129.550 248.000,129.000 248.000 C 128.412 248.000,128.000 251.500,128.000 256.500 C 128.000 261.500,127.588 265.000,127.000 265.000 C 126.417 265.000,126.000 268.333,126.000 273.000 C 126.000 277.667,126.417 281.000,127.000 281.000 C 127.571 281.000,128.000 284.000,128.000 288.000 C 128.000 292.000,128.429 295.000,129.000 295.000 C 129.550 295.000,130.000 297.250,130.000 300.000 C 130.000 302.750,130.450 305.000,131.000 305.000 C 131.550 305.000,132.000 306.350,132.000 308.000 C 132.000 309.650,132.450 311.000,133.000 311.000 C 133.550 311.000,134.000 311.900,134.000 313.000 C 134.000 314.100,134.450 315.000,135.000 315.000 C 135.550 315.000,136.000 315.900,136.000 317.000 C 136.000 318.100,136.450 319.000,137.000 319.000 C 137.550 319.000,138.000 319.900,138.000 321.000 C 138.000 322.100,138.450 323.000,139.000 323.000 C 139.550 323.000,140.000 323.683,140.000 324.519 C 140.000 327.165,152.652 339.000,155.481 339.000 C 156.867 339.000,158.000 339.450,158.000 340.000 C 158.000 340.550,159.800 341.000,162.000 341.000 C 164.200 341.000,166.000 340.550,166.000 340.000 C 166.000 339.450,167.145 339.000,168.545 339.000 C 171.822 339.000,176.000 334.822,176.000 331.545 C 176.000 330.145,176.450 329.000,177.000 329.000 C 177.550 329.000,178.000 326.750,178.000 324.000 C 178.000 321.250,178.450 319.000,179.000 319.000 C 179.556 319.000,180.000 316.333,180.000 313.000 C 180.000 309.667,180.444 307.000,181.000 307.000 C 181.550 307.000,182.000 305.650,182.000 304.000 C 182.000 302.350,182.450 301.000,183.000 301.000 C 183.550 301.000,184.000 301.900,184.000 303.000 C 184.000 304.100,184.450 305.000,185.000 305.000 C 185.550 305.000,186.000 305.900,186.000 307.000 C 186.000 308.100,186.450 309.000,187.000 309.000 C 187.550 309.000,188.000 309.900,188.000 311.000 C 188.000 312.100,188.450 313.000,189.000 313.000 C 189.550 313.000,190.000 313.900,190.000 315.000 C 190.000 316.100,190.450 317.000,191.000 317.000 C 191.550 317.000,192.000 317.900,192.000 319.000 C 192.000 320.100,192.450 321.000,193.000 321.000 C 193.550 321.000,194.000 321.719,194.000 322.599 C 194.000 323.478,195.350 325.459,197.000 327.000 C 198.650 328.541,200.000 330.304,200.000 330.917 C 200.000 332.359,214.622 347.000,216.062 347.000 C 216.664 347.000,218.931 348.846,221.099 351.103 C 224.294 354.429,225.511 355.088,227.521 354.584 C 230.937 353.727,230.645 352.463,226.000 348.000 C 223.800 345.886,222.000 343.546,222.000 342.799 C 222.000 342.052,221.100 340.793,220.000 340.000 C 218.900 339.207,218.000 337.857,218.000 337.000 C 218.000 336.143,217.100 334.793,216.000 334.000 C 214.900 333.207,214.000 331.857,214.000 331.000 C 214.000 330.143,213.100 328.793,212.000 328.000 C 210.900 327.207,210.000 325.758,210.000 324.779 C 210.000 323.801,209.550 323.000,209.000 323.000 C 208.450 323.000,208.000 322.199,208.000 321.221 C 208.000 320.242,207.100 318.793,206.000 318.000 C 204.900 317.207,204.000 315.758,204.000 314.779 C 204.000 313.801,203.550 313.000,203.000 313.000 C 202.450 313.000,202.000 312.100,202.000 311.000 C 202.000 309.900,201.550 309.000,201.000 309.000 C 200.450 309.000,200.000 308.100,200.000 307.000 C 200.000 305.900,199.550 305.000,199.000 305.000 C 198.450 305.000,198.000 304.199,198.000 303.221 C 198.000 302.242,197.100 300.793,196.000 300.000 C 194.826 299.153,194.000 297.411,194.000 295.779 C 194.000 294.251,193.550 293.000,193.000 293.000 C 192.450 293.000,192.000 292.100,192.000 291.000 C 192.000 289.900,191.550 289.000,191.000 289.000 C 190.450 289.000,190.000 288.100,190.000 287.000 C 190.000 285.900,189.550 285.000,189.000 285.000 C 188.450 285.000,188.000 284.100,188.000 283.000 C 188.000 281.900,187.550 281.000,187.000 281.000 C 186.450 281.000,186.000 279.650,186.000 278.000 C 186.000 276.350,185.550 275.000,185.000 275.000 C 184.450 275.000,184.000 274.100,184.000 273.000 C 184.000 271.519,183.333 271.000,181.429 271.000 C 178.737 271.000,176.000 273.030,176.000 275.027 C 176.000 275.671,174.650 277.459,173.000 279.000 C 171.350 280.541,170.000 282.522,170.000 283.401 C 170.000 284.281,169.550 285.000,169.000 285.000 C 168.450 285.000,168.000 286.350,168.000 288.000 C 168.000 289.650,167.550 291.000,167.000 291.000 C 166.450 291.000,166.000 292.350,166.000 294.000 C 166.000 295.650,165.550 297.000,165.000 297.000 C 164.435 297.000,164.000 299.853,164.000 303.559 C 164.000 307.677,163.628 309.888,163.000 309.500 C 162.365 309.108,162.000 311.823,162.000 316.941 C 162.000 324.899,161.968 325.000,159.467 325.000 C 156.650 325.000,150.000 319.053,150.000 316.533 C 150.000 315.690,149.550 315.000,149.000 315.000 C 148.450 315.000,148.000 314.100,148.000 313.000 C 148.000 311.900,147.550 311.000,147.000 311.000 C 146.450 311.000,146.000 310.100,146.000 309.000 C 146.000 307.900,145.550 307.000,145.000 307.000 C 144.450 307.000,144.000 305.650,144.000 304.000 C 144.000 302.350,143.550 301.000,143.000 301.000 C 142.450 301.000,142.000 299.200,142.000 297.000 C 142.000 294.800,141.550 293.000,141.000 293.000 C 140.429 293.000,140.000 290.000,140.000 286.000 C 140.000 282.000,139.571 279.000,139.000 279.000 C 138.417 279.000,138.000 275.667,138.000 271.000 C 138.000 266.333,138.417 263.000,139.000 263.000 C 139.578 263.000,140.000 259.833,140.000 255.500 C 140.000 251.167,140.422 248.000,141.000 248.000 C 141.550 248.000,142.000 246.200,142.000 244.000 C 142.000 241.800,142.450 240.000,143.000 240.000 C 143.550 240.000,144.000 238.650,144.000 237.000 C 144.000 235.350,144.450 234.000,145.000 234.000 C 145.550 234.000,146.000 233.100,146.000 232.000 C 146.000 230.900,146.450 230.000,147.000 230.000 C 147.550 230.000,148.000 228.650,148.000 227.000 C 148.000 225.350,148.450 224.000,149.000 224.000 C 149.578 224.000,150.000 220.815,150.000 216.445 L 150.000 208.889 144.000 203.000 C 140.700 199.761,138.000 196.411,138.000 195.555 C 138.000 194.700,137.550 194.000,137.000 194.000 C 136.450 194.000,136.000 193.199,136.000 192.221 C 136.000 191.242,135.100 189.793,134.000 189.000 C 132.900 188.207,132.000 186.758,132.000 185.779 C 132.000 184.801,131.550 184.000,131.000 184.000 C 130.450 184.000,130.000 182.650,130.000 181.000 C 130.000 179.350,129.550 178.000,129.000 178.000 C 128.450 178.000,128.000 177.100,128.000 176.000 C 128.000 174.900,127.550 174.000,127.000 174.000 C 126.450 174.000,126.000 172.650,126.000 171.000 C 126.000 169.350,125.550 168.000,125.000 168.000 C 124.450 168.000,124.000 166.650,124.000 165.000 C 124.000 163.350,123.550 162.000,123.000 162.000 C 122.450 162.000,122.000 160.650,122.000 159.000 C 122.000 157.350,121.550 156.000,121.000 156.000 C 120.450 156.000,120.000 154.650,120.000 153.000 C 120.000 151.350,119.550 150.000,119.000 150.000 C 118.450 150.000,118.000 148.650,118.000 147.000 C 118.000 145.350,117.550 144.000,117.000 144.000 C 116.450 144.000,116.000 143.100,116.000 142.000 C 116.000 140.900,115.550 140.000,115.000 140.000 C 114.450 140.000,114.000 139.100,114.000 138.000 C 114.000 136.900,113.550 136.000,113.000 136.000 C 112.450 136.000,112.000 135.100,112.000 134.000 C 112.000 132.900,111.550 132.000,111.000 132.000 C 110.450 132.000,110.000 131.281,110.000 130.401 C 110.000 129.522,108.650 127.541,107.000 126.000 C 105.350 124.459,104.000 122.688,104.000 122.065 C 104.000 121.443,102.425 119.358,100.500 117.433 C 98.575 115.508,97.000 113.513,97.000 113.000 C 97.000 112.487,95.425 110.492,93.500 108.567 C 91.575 106.642,90.000 104.453,90.000 103.702 C 90.000 102.952,88.875 101.736,87.500 101.000 C 85.737 100.057,85.000 98.827,85.000 96.831 C 85.000 95.274,84.550 94.000,84.000 94.000 C 81.904 94.000,83.031 88.242,85.636 85.636 C 88.370 82.903,100.000 81.578,100.000 84.000 C 100.000 84.550,101.302 85.000,102.893 85.000 C 104.542 85.000,106.034 85.645,106.362 86.500 C 106.678 87.325,107.626 88.000,108.469 88.000 C 109.311 88.000,110.000 88.450,110.000 89.000 C 110.000 89.550,110.900 90.000,112.000 90.000 C 113.100 90.000,114.000 90.506,114.000 91.125 C 114.000 91.842,115.089 92.032,117.000 91.650 C 119.183 91.213,120.000 91.429,120.000 92.441 C 120.000 93.206,121.350 94.430,123.000 95.160 C 124.650 95.891,126.000 96.828,126.000 97.244 C 126.000 97.660,126.801 98.000,127.779 98.000 C 128.758 98.000,130.207 98.900,131.000 100.000 C 131.793 101.100,133.062 102.000,133.820 102.000 C 134.577 102.000,136.459 103.350,138.000 105.000 C 140.468 107.642,141.470 108.000,146.401 108.000 C 149.481 108.000,152.000 108.450,152.000 109.000 C 152.000 109.606,156.333 110.000,163.000 110.000 C 169.667 110.000,174.000 110.394,174.000 111.000 C 174.000 111.550,175.350 112.000,177.000 112.000 C 178.650 112.000,180.000 112.450,180.000 113.000 C 180.000 113.550,181.350 114.000,183.000 114.000 C 184.650 114.000,186.000 114.450,186.000 115.000 C 186.000 115.550,186.900 116.000,188.000 116.000 C 189.100 116.000,190.000 116.450,190.000 117.000 C 190.000 117.550,191.350 118.000,193.000 118.000 C 194.650 118.000,196.000 118.450,196.000 119.000 C 196.000 119.550,196.863 120.000,197.917 120.000 C 198.971 120.000,199.983 120.416,200.167 120.925 C 200.350 121.434,201.175 121.996,202.000 122.175 C 202.825 122.354,204.228 123.287,205.117 124.250 C 206.007 125.213,207.469 126.000,208.367 126.000 C 209.265 126.000,210.000 126.450,210.000 127.000 C 210.000 127.550,210.801 128.000,211.779 128.000 C 212.758 128.000,214.207 128.900,215.000 130.000 C 215.793 131.100,217.143 132.000,218.000 132.000 C 218.857 132.000,220.207 132.900,221.000 134.000 C 221.793 135.100,223.143 136.000,224.000 136.000 C 224.857 136.000,226.207 136.900,227.000 138.000 C 227.793 139.100,229.052 140.000,229.799 140.000 C 230.546 140.000,232.886 141.800,235.000 144.000 C 237.114 146.200,239.307 148.000,239.875 148.000 C 241.603 148.000,273.000 178.365,273.000 180.036 C 273.000 180.652,274.800 182.886,277.000 185.000 C 279.200 187.114,281.000 189.454,281.000 190.201 C 281.000 190.948,281.900 192.207,283.000 193.000 C 284.100 193.793,285.000 195.143,285.000 196.000 C 285.000 196.857,285.900 198.207,287.000 199.000 C 288.100 199.793,289.000 201.143,289.000 202.000 C 289.000 202.857,289.900 204.207,291.000 205.000 C 292.100 205.793,293.000 207.242,293.000 208.221 C 293.000 209.199,293.450 210.000,294.000 210.000 C 294.550 210.000,295.000 210.900,295.000 212.000 C 295.000 213.100,295.450 214.000,296.000 214.000 C 296.550 214.000,297.000 214.900,297.000 216.000 C 297.000 217.100,297.450 218.000,298.000 218.000 C 298.550 218.000,299.000 218.900,299.000 220.000 C 299.000 221.100,299.450 222.000,300.000 222.000 C 300.550 222.000,301.000 222.900,301.000 224.000 C 301.000 225.100,301.450 226.000,302.000 226.000 C 302.550 226.000,303.000 227.350,303.000 229.000 C 303.000 230.650,303.450 232.000,304.000 232.000 C 304.550 232.000,305.000 232.900,305.000 234.000 C 305.000 235.100,305.450 236.000,306.000 236.000 C 306.550 236.000,307.000 236.900,307.000 238.000 C 307.000 239.100,307.450 240.000,308.000 240.000 C 308.550 240.000,309.000 240.900,309.000 242.000 C 309.000 243.100,309.450 244.000,310.000 244.000 C 310.550 244.000,311.000 244.900,311.000 246.000 C 311.000 247.100,311.450 248.000,312.000 248.000 C 312.550 248.000,313.000 248.900,313.000 250.000 C 313.000 251.100,313.450 252.000,314.000 252.000 C 314.550 252.000,315.000 252.900,315.000 254.000 C 315.000 255.100,315.450 256.000,316.000 256.000 C 316.550 256.000,317.000 257.125,317.000 258.500 C 317.000 259.875,317.450 261.000,318.000 261.000 C 318.550 261.000,319.000 261.675,319.000 262.500 C 319.000 263.325,319.450 264.000,320.000 264.000 C 320.550 264.000,321.000 265.377,321.000 267.059 C 321.000 268.844,321.417 269.861,322.000 269.500 C 322.583 269.139,323.000 270.156,323.000 271.941 C 323.000 273.623,323.450 275.000,324.000 275.000 C 324.550 275.000,325.000 275.900,325.000 277.000 C 325.000 278.100,325.450 279.000,326.000 279.000 C 326.550 279.000,327.000 279.900,327.000 281.000 C 327.000 282.100,327.450 283.000,328.000 283.000 C 328.550 283.000,329.000 283.900,329.000 285.000 C 329.000 286.100,329.450 287.000,330.000 287.000 C 330.550 287.000,331.000 287.900,331.000 289.000 C 331.000 290.100,331.450 291.000,332.000 291.000 C 332.550 291.000,333.000 291.900,333.000 293.000 C 333.000 294.100,333.450 295.000,334.000 295.000 C 334.550 295.000,335.000 295.801,335.000 296.779 C 335.000 297.758,335.900 299.207,337.000 300.000 C 338.100 300.793,339.000 302.029,339.000 302.747 C 339.000 305.155,347.779 313.000,350.474 313.000 C 351.863 313.000,353.000 313.450,353.000 314.000 C 353.000 314.550,354.350 315.000,356.000 315.000 C 357.650 315.000,359.000 315.450,359.000 316.000 C 359.000 316.550,360.323 317.000,361.941 317.000 C 363.559 317.000,365.160 317.450,365.500 318.000 C 365.840 318.550,367.216 319.000,368.559 319.000 C 369.902 319.000,371.000 319.450,371.000 320.000 C 371.000 320.550,372.350 321.000,374.000 321.000 C 375.650 321.000,377.000 321.450,377.000 322.000 C 377.000 322.550,378.350 323.000,380.000 323.000 C 381.650 323.000,383.000 323.450,383.000 324.000 C 383.000 324.550,383.900 325.000,385.000 325.000 C 386.100 325.000,387.000 325.450,387.000 326.000 C 387.000 326.550,387.801 327.000,388.779 327.000 C 389.758 327.000,391.207 327.900,392.000 329.000 C 392.793 330.100,394.143 331.000,395.000 331.000 C 395.857 331.000,397.207 331.900,398.000 333.000 C 398.793 334.100,400.143 335.000,401.000 335.000 C 401.857 335.000,403.207 335.900,404.000 337.000 C 404.793 338.100,406.143 339.000,407.000 339.000 C 407.857 339.000,409.207 339.900,410.000 341.000 C 410.793 342.100,412.143 343.000,413.000 343.000 C 413.857 343.000,415.207 343.900,416.000 345.000 C 416.793 346.100,418.242 347.000,419.221 347.000 C 420.199 347.000,421.000 347.450,421.000 348.000 C 421.000 348.550,421.670 349.000,422.489 349.000 C 423.986 349.000,425.753 350.262,431.100 355.151 C 435.339 359.027,435.432 359.000,417.500 359.000 C 407.167 359.000,401.000 359.374,401.000 360.000 C 401.000 360.550,398.750 361.000,396.000 361.000 C 393.250 361.000,391.000 361.450,391.000 362.000 C 391.000 362.550,389.650 363.000,388.000 363.000 C 386.350 363.000,385.000 363.450,385.000 364.000 C 385.000 364.550,383.650 365.000,382.000 365.000 C 380.350 365.000,379.000 365.450,379.000 366.000 C 379.000 366.550,377.843 367.000,376.429 367.000 C 375.014 367.000,373.214 367.643,372.429 368.429 C 370.805 370.052,370.482 375.000,372.000 375.000 C 372.550 375.000,373.000 375.900,373.000 377.000 C 373.000 378.100,373.450 379.000,374.000 379.000 C 374.550 379.000,375.000 379.719,375.000 380.599 C 375.000 381.478,376.350 383.459,378.000 385.000 C 379.650 386.541,381.000 388.317,381.000 388.947 C 381.000 390.431,385.569 395.000,387.053 395.000 C 387.683 395.000,389.459 396.350,391.000 398.000 C 392.541 399.650,394.423 401.000,395.180 401.000 C 395.938 401.000,397.207 401.900,398.000 403.000 C 398.793 404.100,400.143 405.000,401.000 405.000 C 401.857 405.000,403.207 405.900,404.000 407.000 C 404.793 408.100,406.242 409.000,407.221 409.000 C 408.199 409.000,409.000 409.450,409.000 410.000 C 409.000 410.550,409.900 411.000,411.000 411.000 C 412.100 411.000,413.000 411.450,413.000 412.000 C 413.000 412.550,413.900 413.000,415.000 413.000 C 416.100 413.000,417.000 413.450,417.000 414.000 C 417.000 414.550,417.900 415.000,419.000 415.000 C 420.100 415.000,421.000 415.450,421.000 416.000 C 421.000 416.550,422.575 417.000,424.500 417.000 C 426.425 417.000,428.000 417.450,428.000 418.000 C 428.000 418.550,428.900 419.000,430.000 419.000 C 431.100 419.000,432.000 419.450,432.000 420.000 C 432.000 420.550,432.801 421.000,433.779 421.000 C 434.758 421.000,436.207 421.900,437.000 423.000 C 437.793 424.100,439.143 425.000,440.000 425.000 C 440.857 425.000,442.207 425.900,443.000 427.000 C 443.793 428.100,445.242 429.000,446.221 429.000 C 447.199 429.000,448.000 429.482,448.000 430.071 C 448.000 431.930,450.786 434.019,452.426 433.390 C 453.292 433.058,454.000 433.299,454.000 433.926 C 454.000 435.619,460.692 442.000,462.467 442.000 C 463.333 442.000,464.000 441.130,464.000 440.000 C 464.000 438.900,463.550 438.000,463.000 438.000 C 462.450 438.000,462.000 437.298,462.000 436.439 C 462.000 434.416,430.982 403.022,428.971 403.009 C 428.130 403.004,426.793 402.100,426.000 401.000 C 425.207 399.900,423.857 399.000,423.000 399.000 C 422.143 399.000,420.793 398.100,420.000 397.000 C 419.207 395.900,417.758 395.000,416.779 395.000 C 415.801 395.000,415.000 394.550,415.000 394.000 C 415.000 393.450,414.100 393.000,413.000 393.000 C 411.900 393.000,411.000 392.550,411.000 392.000 C 411.000 391.450,410.281 391.000,409.401 391.000 C 408.522 391.000,406.541 389.650,405.000 388.000 C 403.459 386.350,401.683 385.000,401.053 385.000 C 399.370 385.000,395.000 380.340,395.000 378.545 C 395.000 377.667,395.863 377.000,397.000 377.000 C 398.100 377.000,399.000 376.550,399.000 376.000 C 399.000 375.450,400.800 375.000,403.000 375.000 C 405.200 375.000,407.000 374.550,407.000 374.000 C 407.000 373.450,408.800 373.000,411.000 373.000 C 413.200 373.000,415.000 372.550,415.000 372.000 C 415.000 371.412,418.500 371.000,423.500 371.000 C 428.500 371.000,432.000 370.588,432.000 370.000 C 432.000 369.450,434.250 369.000,437.000 369.000 C 439.750 369.000,442.000 368.550,442.000 368.000 C 442.000 367.450,443.607 367.000,445.571 367.000 C 451.377 367.000,453.987 362.874,450.000 360.000 C 448.900 359.207,448.000 358.035,448.000 357.395 C 448.000 355.611,435.364 343.000,433.576 343.000 C 432.709 343.000,432.000 342.550,432.000 342.000 C 432.000 341.450,431.506 341.000,430.901 341.000 C 430.297 341.000,428.541 339.650,427.000 338.000 C 425.459 336.350,423.659 335.000,423.000 335.000 C 422.341 335.000,420.541 333.650,419.000 332.000 C 417.459 330.350,415.577 329.000,414.820 329.000 C 414.062 329.000,412.793 328.100,412.000 327.000 C 411.207 325.900,409.857 325.000,409.000 325.000 C 408.143 325.000,406.793 324.100,406.000 323.000 C 405.207 321.900,403.857 321.000,403.000 321.000 C 402.143 321.000,400.793 320.100,400.000 319.000 C 399.207 317.900,397.964 317.000,397.237 317.000 C 396.511 317.000,394.950 316.100,393.770 315.000 C 392.589 313.900,391.033 313.000,390.311 313.000 C 389.590 313.000,389.000 312.550,389.000 312.000 C 389.000 311.450,387.650 311.000,386.000 311.000 C 384.350 311.000,383.000 310.550,383.000 310.000 C 383.000 309.450,382.100 309.000,381.000 309.000 C 379.900 309.000,379.000 308.550,379.000 308.000 C 379.000 307.450,378.100 307.000,377.000 307.000 C 375.900 307.000,375.000 306.550,375.000 306.000 C 375.000 305.450,373.650 305.000,372.000 305.000 C 370.350 305.000,369.000 304.550,369.000 304.000 C 369.000 303.450,368.100 303.000,367.000 303.000 C 365.900 303.000,365.000 302.550,365.000 302.000 C 365.000 301.450,363.860 301.000,362.467 301.000 C 359.650 301.000,353.000 295.053,353.000 292.533 C 353.000 291.690,352.550 291.000,352.000 291.000 C 351.450 291.000,351.000 290.100,351.000 289.000 C 351.000 287.900,350.550 287.000,350.000 287.000 C 349.450 287.000,349.000 286.100,349.000 285.000 C 349.000 283.900,348.550 283.000,348.000 283.000 C 347.450 283.000,347.000 282.100,347.000 281.000 C 347.000 279.900,346.550 279.000,346.000 279.000 C 345.450 279.000,345.000 278.199,345.000 277.221 C 345.000 276.242,344.100 274.793,343.000 274.000 C 341.900 273.207,341.000 271.758,341.000 270.779 C 341.000 269.801,340.550 269.000,340.000 269.000 C 339.450 269.000,339.000 268.100,339.000 267.000 C 339.000 265.900,338.550 265.000,338.000 265.000 C 337.450 265.000,337.000 264.100,337.000 263.000 C 337.000 261.900,336.550 261.000,336.000 261.000 C 335.450 261.000,335.000 260.415,335.000 259.699 C 335.000 257.860,332.648 253.017,331.750 253.008 C 331.337 253.004,331.000 251.425,331.000 249.500 C 331.000 247.575,330.550 246.000,330.000 246.000 C 329.450 246.000,329.000 245.100,329.000 244.000 C 329.000 242.900,328.550 242.000,328.000 242.000 C 327.450 242.000,327.000 241.100,327.000 240.000 C 327.000 238.900,326.550 238.000,326.000 238.000 C 325.450 238.000,325.000 237.100,325.000 236.000 C 325.000 234.900,324.550 234.000,324.000 234.000 C 323.450 234.000,323.000 233.100,323.000 232.000 C 323.000 230.900,322.550 230.000,322.000 230.000 C 321.450 230.000,321.000 228.650,321.000 227.000 C 321.000 225.350,320.550 224.000,320.000 224.000 C 319.450 224.000,319.000 223.100,319.000 222.000 C 319.000 220.900,318.550 220.000,318.000 220.000 C 317.450 220.000,317.000 218.848,317.000 217.441 C 317.000 215.990,316.567 215.149,316.000 215.500 C 315.417 215.861,315.000 214.844,315.000 213.059 C 315.000 211.377,314.550 210.000,314.000 210.000 C 313.450 210.000,313.000 209.100,313.000 208.000 C 313.000 206.900,312.550 206.000,312.000 206.000 C 311.450 206.000,311.000 205.199,311.000 204.221 C 311.000 203.242,310.100 201.793,309.000 201.000 C 307.900 200.207,307.000 198.857,307.000 198.000 C 307.000 197.143,306.100 195.793,305.000 195.000 C 303.900 194.207,303.000 192.938,303.000 192.180 C 303.000 191.423,301.650 189.541,300.000 188.000 C 298.350 186.459,297.000 184.659,297.000 184.000 C 297.000 183.341,295.650 181.541,294.000 180.000 C 292.350 178.459,291.000 176.668,291.000 176.020 C 291.000 175.373,289.200 173.114,287.000 171.000 C 284.800 168.886,283.000 166.706,283.000 166.154 C 283.000 164.561,262.260 144.000,260.653 144.000 C 259.855 144.000,256.905 141.750,254.096 139.000 C 251.288 136.250,248.498 134.000,247.896 134.000 C 247.295 134.000,245.541 132.650,244.000 131.000 C 242.459 129.350,240.577 128.000,239.820 128.000 C 239.062 128.000,237.793 127.100,237.000 126.000 C 236.207 124.900,234.857 124.000,234.000 124.000 C 233.143 124.000,231.793 123.100,231.000 122.000 C 230.207 120.900,228.857 120.000,228.000 120.000 C 227.143 120.000,225.793 119.100,225.000 118.000 C 224.207 116.900,222.857 116.000,222.000 116.000 C 221.143 116.000,219.793 115.100,219.000 114.000 C 218.207 112.900,216.758 112.000,215.779 112.000 C 214.801 112.000,214.000 111.550,214.000 111.000 C 214.000 110.450,213.100 110.000,212.000 110.000 C 210.900 110.000,210.000 109.550,210.000 109.000 C 210.000 108.450,209.199 108.000,208.221 108.000 C 207.242 108.000,205.793 107.100,205.000 106.000 C 204.153 104.826,202.411 104.000,200.779 104.000 C 199.251 104.000,198.000 103.550,198.000 103.000 C 198.000 102.450,196.650 102.000,195.000 102.000 C 193.350 102.000,192.000 101.550,192.000 101.000 C 192.000 100.450,190.650 100.000,189.000 100.000 C 187.350 100.000,186.000 99.550,186.000 99.000 C 186.000 98.450,184.200 98.000,182.000 98.000 C 179.800 98.000,178.000 97.607,178.000 97.127 C 178.000 96.647,173.613 96.175,168.250 96.078 C 162.887 95.980,158.350 95.473,158.167 94.950 C 157.983 94.428,155.811 94.000,153.338 94.000 C 149.401 94.000,148.366 93.503,145.000 90.000 C 142.886 87.800,140.447 86.000,139.578 86.000 C 138.710 86.000,138.000 85.539,138.000 84.975 C 138.000 84.412,136.863 83.518,135.474 82.990 C 134.085 82.462,132.687 81.348,132.367 80.515 C 132.048 79.682,130.972 79.000,129.976 79.000 C 128.981 79.000,128.017 78.554,127.833 78.009 C 127.650 77.463,126.263 76.915,124.750 76.791 C 123.237 76.666,122.000 76.212,122.000 75.782 C 122.000 75.352,121.100 75.000,120.000 75.000 C 118.900 75.000,118.000 74.499,118.000 73.887 C 118.000 73.221,116.808 72.948,115.038 73.208 C 113.170 73.482,111.890 73.155,111.570 72.321 C 111.291 71.595,109.924 71.000,108.531 71.000 C 107.139 71.000,106.000 70.550,106.000 70.000 C 106.000 68.496,85.016 68.912,82.186 70.472 M150.000 135.578 C 150.000 136.447,151.800 138.886,154.000 141.000 C 156.200 143.114,158.000 145.553,158.000 146.422 C 158.000 147.290,158.450 148.000,159.000 148.000 C 159.550 148.000,160.000 148.900,160.000 150.000 C 160.000 151.100,160.450 152.000,161.000 152.000 C 161.550 152.000,162.000 152.707,162.000 153.571 C 162.000 154.436,162.643 155.786,163.429 156.571 C 165.510 158.653,168.000 158.341,168.000 156.000 C 168.000 154.900,168.450 154.000,169.000 154.000 C 169.550 154.000,170.000 152.650,170.000 151.000 C 170.000 149.350,170.450 148.000,171.000 148.000 C 171.550 148.000,172.000 147.100,172.000 146.000 C 172.000 144.900,171.550 144.000,171.000 144.000 C 170.450 144.000,170.000 143.310,170.000 142.467 C 170.000 138.180,163.352 134.000,156.533 134.000 C 151.248 134.000,150.000 134.302,150.000 135.578 " stroke="none" fill="#000000" fill-rule="evenodd"></path></g></svg>