<svg id="svg" version="1.1" width="515" height="515" xmlns="http://www.w3.org/2000/svg" xmlns:xlink="http://www.w3.org/1999/xlink" style="display: block;"><g id="svgg"><path id="path0" d="M347.000 98.000 C 347.000 98.611,342.333 99.000,335.000 99.000 C 325.000 99.000,323.000 99.250,323.000 100.500 C 323.000 101.700,321.500 102.000,315.500 102.000 C 311.167 102.000,308.000 102.422,308.000 103.000 C 308.000 103.550,305.525 104.000,302.500 104.000 C 298.278 104.000,297.000 104.348,297.000 105.500 C 297.000 106.667,295.667 107.000,291.000 107.000 C 287.667 107.000,285.000 107.444,285.000 108.000 C 285.000 108.550,283.200 109.000,281.000 109.000 C 278.111 109.000,277.000 109.417,277.000 110.500 C 277.000 111.583,275.889 112.000,273.000 112.000 C 270.111 112.000,269.000 112.417,269.000 113.500 C 269.000 114.633,267.778 115.000,264.000 115.000 C 261.250 115.000,259.000 115.450,259.000 116.000 C 259.000 116.550,257.875 117.000,256.500 117.000 C 254.944 117.000,254.000 117.567,254.000 118.500 C 254.000 119.583,252.889 120.000,250.000 120.000 C 247.800 120.000,246.000 120.450,246.000 121.000 C 246.000 121.550,244.875 122.000,243.500 122.000 C 241.944 122.000,241.000 122.567,241.000 123.500 C 241.000 124.583,239.889 125.000,237.000 125.000 C 234.800 125.000,233.000 125.450,233.000 126.000 C 233.000 126.550,231.875 127.000,230.500 127.000 C 228.944 127.000,228.000 127.567,228.000 128.500 C 228.000 129.433,227.056 130.000,225.500 130.000 C 223.944 130.000,223.000 130.567,223.000 131.500 C 223.000 132.433,222.056 133.000,220.500 133.000 C 219.125 133.000,218.000 133.450,218.000 134.000 C 218.000 134.550,216.650 135.000,215.000 135.000 C 213.000 135.000,212.000 135.500,212.000 136.500 C 212.000 137.351,211.103 138.000,209.929 138.000 C 207.715 138.000,205.000 140.164,205.000 141.929 C 205.000 142.518,203.875 143.000,202.500 143.000 C 201.125 143.000,200.000 143.450,200.000 144.000 C 200.000 144.550,199.169 145.000,198.153 145.000 C 196.030 145.000,192.000 148.188,192.000 149.867 C 192.000 150.490,190.875 151.000,189.500 151.000 C 188.125 151.000,187.000 151.450,187.000 152.000 C 187.000 152.550,186.325 153.000,185.500 153.000 C 184.675 153.000,184.000 153.675,184.000 154.500 C 184.000 155.433,183.056 156.000,181.500 156.000 C 180.125 156.000,179.000 156.450,179.000 157.000 C 179.000 157.550,178.325 158.000,177.500 158.000 C 176.675 158.000,176.000 158.675,176.000 159.500 C 176.000 160.433,175.056 161.000,173.500 161.000 C 172.125 161.000,171.000 161.482,171.000 162.071 C 171.000 163.456,168.456 166.000,167.071 166.000 C 166.482 166.000,166.000 166.482,166.000 167.071 C 166.000 168.456,163.456 171.000,162.071 171.000 C 161.482 171.000,161.000 171.675,161.000 172.500 C 161.000 173.433,160.056 174.000,158.500 174.000 C 157.125 174.000,156.000 174.450,156.000 175.000 C 156.000 175.550,155.325 176.000,154.500 176.000 C 153.675 176.000,153.000 176.675,153.000 177.500 C 153.000 178.325,152.550 179.000,152.000 179.000 C 151.450 179.000,151.000 179.675,151.000 180.500 C 151.000 181.325,150.491 182.000,149.868 182.000 C 149.246 182.000,147.251 183.575,145.435 185.500 C 143.620 187.425,141.654 189.000,141.067 189.000 C 140.480 189.000,140.000 189.482,140.000 190.071 C 140.000 191.456,137.456 194.000,136.071 194.000 C 135.482 194.000,135.000 194.675,135.000 195.500 C 135.000 196.325,134.550 197.000,134.000 197.000 C 133.450 197.000,133.000 197.675,133.000 198.500 C 133.000 199.325,132.325 200.000,131.500 200.000 C 130.675 200.000,130.000 200.450,130.000 201.000 C 130.000 201.550,129.325 202.000,128.500 202.000 C 127.675 202.000,127.000 202.482,127.000 203.071 C 127.000 204.456,124.456 207.000,123.071 207.000 C 122.482 207.000,122.000 208.125,122.000 209.500 C 122.000 210.875,121.550 212.000,121.000 212.000 C 120.450 212.000,120.000 212.675,120.000 213.500 C 120.000 214.325,119.325 215.000,118.500 215.000 C 117.675 215.000,117.000 215.675,117.000 216.500 C 117.000 217.325,116.550 218.000,116.000 218.000 C 115.450 218.000,115.000 219.125,115.000 220.500 C 115.000 221.875,114.515 223.000,113.923 223.000 C 112.038 223.000,107.000 228.766,107.000 230.923 C 107.000 232.103,106.352 233.000,105.500 233.000 C 104.675 233.000,104.000 233.675,104.000 234.500 C 104.000 235.325,103.550 236.000,103.000 236.000 C 102.450 236.000,102.000 237.125,102.000 238.500 C 102.000 239.875,101.518 241.000,100.929 241.000 C 99.335 241.000,97.000 243.633,97.000 245.429 C 97.000 247.172,93.565 251.000,92.000 251.000 C 91.450 251.000,91.000 252.125,91.000 253.500 C 91.000 254.875,90.550 256.000,90.000 256.000 C 89.450 256.000,89.000 257.125,89.000 258.500 C 89.000 260.500,88.500 261.000,86.500 261.000 C 84.944 261.000,84.000 261.567,84.000 262.500 C 84.000 263.433,83.056 264.000,81.500 264.000 C 79.944 264.000,79.000 264.567,79.000 265.500 C 79.000 266.325,78.325 267.000,77.500 267.000 C 76.675 267.000,76.000 267.450,76.000 268.000 C 76.000 268.550,74.875 269.000,73.500 269.000 C 71.500 269.000,71.000 269.500,71.000 271.500 C 71.000 273.056,70.433 274.000,69.500 274.000 C 68.675 274.000,68.000 274.675,68.000 275.500 C 68.000 276.325,67.550 277.000,67.000 277.000 C 66.450 277.000,66.000 278.125,66.000 279.500 C 66.000 281.056,65.433 282.000,64.500 282.000 C 63.567 282.000,63.000 282.944,63.000 284.500 C 63.000 285.875,62.550 287.000,62.000 287.000 C 61.385 287.000,61.000 292.000,61.000 300.000 C 61.000 310.889,60.756 313.000,59.500 313.000 C 58.567 313.000,58.000 313.944,58.000 315.500 C 58.000 317.056,57.433 318.000,56.500 318.000 C 55.567 318.000,55.000 318.944,55.000 320.500 C 55.000 321.875,54.550 323.000,54.000 323.000 C 53.450 323.000,53.000 324.125,53.000 325.500 C 53.000 327.056,52.433 328.000,51.500 328.000 C 50.417 328.000,50.000 329.111,50.000 332.000 C 50.000 334.200,49.550 336.000,49.000 336.000 C 48.450 336.000,48.000 337.800,48.000 340.000 C 48.000 342.889,47.583 344.000,46.500 344.000 C 45.278 344.000,45.000 345.667,45.000 353.000 C 45.000 358.333,44.593 362.000,44.000 362.000 C 43.407 362.000,43.000 365.667,43.000 371.000 C 43.000 376.333,43.407 380.000,44.000 380.000 C 44.578 380.000,45.000 383.167,45.000 387.500 C 45.000 393.500,45.300 395.000,46.500 395.000 C 47.433 395.000,48.000 395.944,48.000 397.500 C 48.000 398.875,48.450 400.000,49.000 400.000 C 49.550 400.000,50.000 401.350,50.000 403.000 C 50.000 405.000,50.500 406.000,51.500 406.000 C 52.351 406.000,53.000 406.897,53.000 408.071 C 53.000 410.285,55.164 413.000,56.929 413.000 C 57.518 413.000,58.000 413.675,58.000 414.500 C 58.000 415.325,58.482 416.000,59.071 416.000 C 60.456 416.000,63.000 418.544,63.000 419.929 C 63.000 420.518,64.125 421.000,65.500 421.000 C 67.056 421.000,68.000 421.567,68.000 422.500 C 68.000 423.433,68.944 424.000,70.500 424.000 C 71.875 424.000,73.000 424.450,73.000 425.000 C 73.000 425.550,74.800 426.000,77.000 426.000 C 79.889 426.000,81.000 426.417,81.000 427.500 C 81.000 428.679,82.389 429.000,87.500 429.000 C 91.167 429.000,94.000 429.436,94.000 430.000 C 94.000 430.615,99.000 431.000,107.000 431.000 C 115.000 431.000,120.000 430.615,120.000 430.000 C 120.000 429.450,121.125 429.000,122.500 429.000 C 123.875 429.000,125.000 429.450,125.000 430.000 C 125.000 430.578,128.167 431.000,132.500 431.000 C 138.500 431.000,140.000 431.300,140.000 432.500 C 140.000 433.500,141.000 434.000,143.000 434.000 C 144.650 434.000,146.000 434.450,146.000 435.000 C 146.000 435.550,147.125 436.000,148.500 436.000 C 150.056 436.000,151.000 436.567,151.000 437.500 C 151.000 438.433,151.944 439.000,153.500 439.000 C 154.875 439.000,156.000 439.482,156.000 440.071 C 156.000 441.456,158.544 444.000,159.929 444.000 C 160.518 444.000,161.000 445.125,161.000 446.500 C 161.000 448.056,161.567 449.000,162.500 449.000 C 163.325 449.000,164.000 449.675,164.000 450.500 C 164.000 451.325,164.450 452.000,165.000 452.000 C 165.550 452.000,166.000 453.800,166.000 456.000 C 166.000 459.600,166.250 460.000,168.500 460.000 L 171.000 460.000 171.000 445.500 C 171.000 436.500,170.621 431.000,170.000 431.000 C 169.450 431.000,169.000 429.425,169.000 427.500 C 169.000 424.167,169.167 424.000,172.500 424.000 C 174.425 424.000,176.000 424.450,176.000 425.000 C 176.000 425.621,181.500 426.000,190.500 426.000 C 202.722 426.000,205.000 426.236,205.000 427.500 C 205.000 428.679,206.389 429.000,211.500 429.000 C 215.167 429.000,218.000 429.436,218.000 430.000 C 218.000 430.550,219.575 431.000,221.500 431.000 C 223.944 431.000,225.000 431.452,225.000 432.500 C 225.000 433.433,225.944 434.000,227.500 434.000 C 228.875 434.000,230.000 434.450,230.000 435.000 C 230.000 435.550,230.675 436.000,231.500 436.000 C 232.325 436.000,233.000 436.675,233.000 437.500 C 233.000 438.433,233.944 439.000,235.500 439.000 C 237.056 439.000,238.000 439.567,238.000 440.500 C 238.000 441.325,238.675 442.000,239.500 442.000 C 240.325 442.000,241.000 442.450,241.000 443.000 C 241.000 443.550,242.125 444.000,243.500 444.000 C 245.750 444.000,246.000 443.600,246.000 440.000 C 246.000 437.111,245.583 436.000,244.500 436.000 C 243.567 436.000,243.000 435.056,243.000 433.500 C 243.000 432.125,242.550 431.000,242.000 431.000 C 241.450 431.000,241.000 429.875,241.000 428.500 C 241.000 426.944,240.433 426.000,239.500 426.000 C 238.648 426.000,238.000 425.103,238.000 423.923 C 238.000 421.766,232.962 416.000,231.077 416.000 C 230.485 416.000,230.000 415.518,230.000 414.929 C 230.000 413.544,227.456 411.000,226.071 411.000 C 225.482 411.000,225.000 410.518,225.000 409.929 C 225.000 408.595,222.476 406.000,221.178 406.000 C 220.648 406.000,219.955 405.325,219.638 404.500 C 219.277 403.559,217.748 403.000,215.531 403.000 C 213.059 403.000,212.000 402.550,212.000 401.500 C 212.000 400.649,211.103 400.000,209.929 400.000 C 207.715 400.000,205.000 397.836,205.000 396.071 C 205.000 395.482,205.932 395.000,207.071 395.000 C 209.285 395.000,212.000 392.836,212.000 391.071 C 212.000 390.482,213.157 390.000,214.571 390.000 C 216.863 390.000,220.000 388.039,220.000 386.606 C 220.000 385.614,225.921 380.000,226.966 380.000 C 227.535 380.000,228.000 379.518,228.000 378.929 C 228.000 377.544,230.544 375.000,231.929 375.000 C 232.518 375.000,233.000 374.325,233.000 373.500 C 233.000 372.675,233.599 372.000,234.331 372.000 C 235.063 372.000,236.264 370.875,237.000 369.500 C 237.736 368.125,238.937 367.000,239.669 367.000 C 240.401 367.000,241.000 366.325,241.000 365.500 C 241.000 364.567,241.944 364.000,243.500 364.000 C 244.875 364.000,246.000 363.550,246.000 363.000 C 246.000 362.450,247.125 362.000,248.500 362.000 C 250.056 362.000,251.000 361.433,251.000 360.500 C 251.000 359.567,251.944 359.000,253.500 359.000 C 255.347 359.000,256.000 358.469,256.000 356.966 C 256.000 354.923,250.770 349.000,248.966 349.000 C 248.434 349.000,248.000 348.325,248.000 347.500 C 248.000 346.254,246.056 346.000,236.500 346.000 C 226.944 346.000,225.000 346.254,225.000 347.500 C 225.000 348.404,224.074 349.000,222.669 349.000 C 221.206 349.000,219.840 349.931,219.000 351.500 C 218.057 353.263,216.827 354.000,214.831 354.000 C 213.274 354.000,212.000 354.482,212.000 355.071 C 212.000 356.456,209.456 359.000,208.071 359.000 C 207.482 359.000,207.000 359.675,207.000 360.500 C 207.000 361.433,206.056 362.000,204.500 362.000 C 203.125 362.000,202.000 362.450,202.000 363.000 C 202.000 363.600,198.000 364.000,192.000 364.000 C 186.000 364.000,182.000 363.600,182.000 363.000 C 182.000 362.450,180.650 362.000,179.000 362.000 C 177.000 362.000,176.000 361.500,176.000 360.500 C 176.000 359.649,175.103 359.000,173.929 359.000 C 171.715 359.000,169.000 356.836,169.000 355.071 C 169.000 354.482,168.376 354.000,167.614 354.000 C 166.852 354.000,165.432 352.324,164.460 350.275 C 162.484 346.110,160.672 344.000,159.071 344.000 C 158.482 344.000,158.000 342.200,158.000 340.000 C 158.000 337.800,157.550 336.000,157.000 336.000 C 156.422 336.000,156.000 332.833,156.000 328.500 C 156.000 324.167,156.422 321.000,157.000 321.000 C 157.550 321.000,158.000 319.650,158.000 318.000 C 158.000 316.000,158.500 315.000,159.500 315.000 C 160.404 315.000,161.000 314.074,161.000 312.669 C 161.000 311.206,161.931 309.840,163.500 309.000 C 164.875 308.264,166.000 307.256,166.000 306.760 C 166.000 306.263,166.643 305.214,167.429 304.429 C 169.044 302.813,176.000 302.466,176.000 304.000 C 176.000 304.583,179.333 305.000,184.000 305.000 C 190.444 305.000,192.000 305.292,192.000 306.500 C 192.000 307.733,193.778 308.000,202.000 308.000 C 210.222 308.000,212.000 307.733,212.000 306.500 C 212.000 305.292,213.556 305.000,220.000 305.000 C 224.667 305.000,228.000 304.583,228.000 304.000 C 228.000 303.450,230.250 303.000,233.000 303.000 C 236.778 303.000,238.000 302.633,238.000 301.500 C 238.000 300.567,238.944 300.000,240.500 300.000 C 242.056 300.000,243.000 299.433,243.000 298.500 C 243.000 297.417,244.111 297.000,247.000 297.000 C 249.200 297.000,251.000 296.550,251.000 296.000 C 251.000 295.450,252.125 295.000,253.500 295.000 C 255.056 295.000,256.000 294.433,256.000 293.500 C 256.000 292.417,257.111 292.000,260.000 292.000 C 262.200 292.000,264.000 291.550,264.000 291.000 C 264.000 290.450,265.125 290.000,266.500 290.000 C 268.056 290.000,269.000 289.433,269.000 288.500 C 269.000 287.567,269.944 287.000,271.500 287.000 C 272.875 287.000,274.000 286.550,274.000 286.000 C 274.000 285.450,275.125 285.000,276.500 285.000 C 278.056 285.000,279.000 284.433,279.000 283.500 C 279.000 282.500,280.000 282.000,282.000 282.000 C 284.000 282.000,285.000 281.500,285.000 280.500 C 285.000 279.567,285.944 279.000,287.500 279.000 C 288.875 279.000,290.000 278.550,290.000 278.000 C 290.000 277.450,291.125 277.000,292.500 277.000 C 294.056 277.000,295.000 276.433,295.000 275.500 C 295.000 274.567,295.944 274.000,297.500 274.000 C 298.875 274.000,300.000 273.550,300.000 273.000 C 300.000 272.450,301.125 272.000,302.500 272.000 C 304.056 272.000,305.000 271.433,305.000 270.500 C 305.000 269.675,305.675 269.000,306.500 269.000 C 307.325 269.000,308.000 268.550,308.000 268.000 C 308.000 267.450,308.800 267.000,309.778 267.000 C 311.608 267.000,315.000 263.745,315.000 261.989 C 315.000 261.445,315.675 261.000,316.500 261.000 C 317.325 261.000,318.000 260.550,318.000 260.000 C 318.000 259.450,319.125 259.000,320.500 259.000 C 322.056 259.000,323.000 258.433,323.000 257.500 C 323.000 256.675,323.482 256.000,324.071 256.000 C 325.456 256.000,328.000 253.456,328.000 252.071 C 328.000 251.482,328.675 251.000,329.500 251.000 C 330.325 251.000,331.000 250.518,331.000 249.929 C 331.000 248.544,333.544 246.000,334.929 246.000 C 335.518 246.000,336.000 245.325,336.000 244.500 C 336.000 243.675,336.420 243.000,336.933 243.000 C 337.446 243.000,338.180 242.008,338.565 240.797 C 339.382 238.222,341.403 236.000,342.929 236.000 C 343.518 236.000,344.000 234.814,344.000 233.365 C 344.000 231.838,345.052 229.754,346.500 228.412 C 348.113 226.918,349.000 225.014,349.000 223.048 C 349.000 221.371,349.450 220.000,350.000 220.000 C 350.550 220.000,351.000 218.875,351.000 217.500 C 351.000 215.944,351.567 215.000,352.500 215.000 C 353.583 215.000,354.000 213.889,354.000 211.000 C 354.000 208.111,354.417 207.000,355.500 207.000 C 356.351 207.000,357.000 206.103,357.000 204.929 C 357.000 202.715,359.164 200.000,360.929 200.000 C 361.518 200.000,362.000 198.650,362.000 197.000 C 362.000 194.467,362.389 194.000,364.500 194.000 C 365.875 194.000,367.000 193.550,367.000 193.000 C 367.000 192.450,367.482 192.000,368.071 192.000 C 369.456 192.000,372.000 194.544,372.000 195.929 C 372.000 196.518,372.675 197.000,373.500 197.000 C 374.325 197.000,375.000 197.675,375.000 198.500 C 375.000 199.700,376.500 200.000,382.500 200.000 C 388.500 200.000,390.000 199.700,390.000 198.500 C 390.000 197.675,390.675 197.000,391.500 197.000 C 392.325 197.000,393.000 196.518,393.000 195.929 C 393.000 194.544,395.544 192.000,396.929 192.000 C 397.518 192.000,398.000 190.875,398.000 189.500 C 398.000 188.125,398.450 187.000,399.000 187.000 C 399.550 187.000,400.000 184.525,400.000 181.500 C 400.000 177.278,400.348 176.000,401.500 176.000 C 402.667 176.000,403.000 174.667,403.000 170.000 C 403.000 165.333,402.667 164.000,401.500 164.000 C 400.417 164.000,400.000 162.889,400.000 160.000 C 400.000 157.111,400.417 156.000,401.500 156.000 C 402.325 156.000,403.000 155.325,403.000 154.500 C 403.000 153.567,403.944 153.000,405.500 153.000 C 406.875 153.000,408.000 152.550,408.000 152.000 C 408.000 151.417,411.310 151.000,415.929 151.000 C 421.643 151.000,424.276 150.581,425.357 149.500 C 426.182 148.675,427.339 148.000,427.929 148.000 C 428.518 148.000,429.000 147.325,429.000 146.500 C 429.000 145.675,429.450 145.000,430.000 145.000 C 430.589 145.000,431.000 141.476,431.000 136.429 C 431.000 127.996,429.970 125.000,427.071 125.000 C 426.482 125.000,426.000 123.875,426.000 122.500 C 426.000 121.125,425.550 120.000,425.000 120.000 C 424.450 120.000,424.000 119.325,424.000 118.500 C 424.000 117.556,423.048 117.000,421.429 117.000 C 418.366 117.000,416.000 114.898,416.000 112.178 C 416.000 111.098,415.325 109.955,414.500 109.638 C 413.675 109.322,413.000 108.599,413.000 108.031 C 413.000 107.464,413.675 107.000,414.500 107.000 C 415.325 107.000,416.000 106.325,416.000 105.500 C 416.000 104.675,416.450 104.000,417.000 104.000 C 417.550 104.000,418.000 102.875,418.000 101.500 C 418.000 99.167,417.667 99.000,413.000 99.000 C 408.333 99.000,408.000 99.167,408.000 101.500 C 408.000 102.875,407.550 104.000,407.000 104.000 C 406.450 104.000,406.000 105.800,406.000 108.000 C 406.000 110.200,406.450 112.000,407.000 112.000 C 407.550 112.000,408.000 113.125,408.000 114.500 C 408.000 116.056,408.567 117.000,409.500 117.000 C 410.325 117.000,411.000 117.482,411.000 118.071 C 411.000 119.456,413.544 122.000,414.929 122.000 C 415.518 122.000,416.000 122.482,416.000 123.071 C 416.000 124.456,418.544 127.000,419.929 127.000 C 420.518 127.000,421.000 127.675,421.000 128.500 C 421.000 129.325,421.675 130.000,422.500 130.000 C 423.433 130.000,424.000 130.944,424.000 132.500 C 424.000 133.875,424.450 135.000,425.000 135.000 C 425.550 135.000,426.000 135.675,426.000 136.500 C 426.000 137.325,425.550 138.000,425.000 138.000 C 424.450 138.000,424.000 139.125,424.000 140.500 C 424.000 142.056,423.433 143.000,422.500 143.000 C 421.675 143.000,421.000 142.325,421.000 141.500 C 421.000 140.417,419.889 140.000,417.000 140.000 C 413.400 140.000,413.000 140.250,413.000 142.500 C 413.000 144.855,412.690 145.000,407.653 145.000 C 402.320 145.000,398.000 147.178,398.000 149.867 C 398.000 150.490,397.325 151.000,396.500 151.000 C 395.238 151.000,395.000 153.222,395.000 165.000 C 395.000 173.667,394.619 179.000,394.000 179.000 C 393.450 179.000,393.000 180.125,393.000 181.500 C 393.000 183.056,392.433 184.000,391.500 184.000 C 390.675 184.000,390.000 184.482,390.000 185.071 C 390.000 186.456,387.456 189.000,386.071 189.000 C 385.482 189.000,385.000 189.675,385.000 190.500 C 385.000 191.583,383.889 192.000,381.000 192.000 C 378.800 192.000,377.000 191.518,377.000 190.929 C 377.000 188.793,374.066 187.000,370.571 187.000 C 367.429 187.000,367.000 186.700,367.000 184.500 C 367.000 182.109,366.736 182.000,360.958 182.000 C 352.316 182.000,351.153 183.350,351.288 193.219 C 351.385 200.285,350.376 204.320,349.280 201.250 C 349.034 200.563,347.746 200.000,346.417 200.000 C 344.935 200.000,344.000 199.420,344.000 198.500 C 344.000 197.348,342.722 197.000,338.500 197.000 C 335.256 197.000,333.000 197.439,333.000 198.071 C 333.000 199.456,330.456 202.000,329.071 202.000 C 328.482 202.000,328.000 202.675,328.000 203.500 C 328.000 204.325,327.550 205.000,327.000 205.000 C 326.450 205.000,326.000 206.575,326.000 208.500 C 326.000 210.425,326.450 212.000,327.000 212.000 C 327.550 212.000,328.000 213.350,328.000 215.000 C 328.000 216.749,328.526 218.000,329.263 218.000 C 329.957 218.000,331.370 219.125,332.403 220.500 C 333.753 222.298,335.223 223.000,337.640 223.000 C 339.488 223.000,341.000 223.450,341.000 224.000 C 341.000 224.550,340.550 225.000,340.000 225.000 C 339.450 225.000,339.000 225.675,339.000 226.500 C 339.000 227.325,338.325 228.000,337.500 228.000 C 336.567 228.000,336.000 228.944,336.000 230.500 C 336.000 232.056,335.433 233.000,334.500 233.000 C 333.675 233.000,333.000 233.482,333.000 234.071 C 333.000 235.456,330.456 238.000,329.071 238.000 C 328.452 238.000,328.000 235.889,328.000 233.000 C 328.000 230.250,327.550 228.000,327.000 228.000 C 326.450 228.000,326.000 227.325,326.000 226.500 C 326.000 225.675,325.325 225.000,324.500 225.000 C 323.675 225.000,323.000 224.550,323.000 224.000 C 323.000 223.411,319.476 223.000,314.429 223.000 C 305.996 223.000,303.000 224.030,303.000 226.929 C 303.000 227.518,302.325 228.000,301.500 228.000 C 300.300 228.000,300.000 229.500,300.000 235.500 C 300.000 241.500,300.300 243.000,301.500 243.000 C 302.433 243.000,303.000 243.944,303.000 245.500 C 303.000 247.500,303.500 248.000,305.500 248.000 C 307.056 248.000,308.000 248.567,308.000 249.500 C 308.000 250.548,309.056 251.000,311.500 251.000 C 313.425 251.000,315.000 251.482,315.000 252.071 C 315.000 253.456,312.456 256.000,311.071 256.000 C 310.482 256.000,310.000 256.675,310.000 257.500 C 310.000 258.420,309.065 259.000,307.583 259.000 C 306.254 259.000,304.994 259.517,304.783 260.150 C 304.572 260.783,302.847 261.345,300.950 261.400 C 297.959 261.487,297.458 261.866,297.184 264.250 C 296.558 269.689,294.484 267.254,294.843 261.501 C 295.123 256.992,294.898 256.000,293.593 256.000 C 292.658 256.000,292.000 255.160,292.000 253.966 C 292.000 246.378,276.100 242.746,269.923 248.923 C 268.315 250.531,267.000 252.331,267.000 252.923 C 267.000 253.515,266.325 254.000,265.500 254.000 C 264.332 254.000,264.000 255.337,264.000 260.031 C 264.000 264.470,264.396 266.215,265.500 266.638 C 266.325 266.955,267.000 268.098,267.000 269.178 C 267.000 271.735,269.315 274.000,271.929 274.000 C 273.471 274.000,274.000 274.638,274.000 276.500 C 274.000 278.500,273.500 279.000,271.500 279.000 C 269.944 279.000,269.000 279.567,269.000 280.500 C 269.000 281.679,267.611 282.000,262.500 282.000 L 256.000 282.000 256.000 277.000 C 256.000 274.250,255.550 272.000,255.000 272.000 C 254.450 272.000,254.000 271.325,254.000 270.500 C 254.000 269.675,253.325 269.000,252.500 269.000 C 251.675 269.000,251.000 268.550,251.000 268.000 C 251.000 267.450,250.325 267.000,249.500 267.000 C 248.675 267.000,248.000 266.325,248.000 265.500 C 248.000 264.367,246.778 264.000,243.000 264.000 C 239.222 264.000,238.000 264.367,238.000 265.500 C 238.000 266.433,237.056 267.000,235.500 267.000 C 234.125 267.000,233.000 267.450,233.000 268.000 C 233.000 268.550,232.325 269.000,231.500 269.000 C 230.278 269.000,230.000 270.667,230.000 278.000 C 230.000 285.333,230.278 287.000,231.500 287.000 C 232.325 287.000,233.000 287.675,233.000 288.500 C 233.000 289.583,234.111 290.000,237.000 290.000 C 239.200 290.000,241.000 290.450,241.000 291.000 C 241.000 291.550,239.875 292.000,238.500 292.000 C 236.944 292.000,236.000 292.567,236.000 293.500 C 236.000 294.500,235.000 295.000,233.000 295.000 C 231.350 295.000,230.000 295.450,230.000 296.000 C 230.000 296.550,227.782 297.000,225.071 297.000 C 222.024 297.000,219.570 297.572,218.643 298.500 C 217.818 299.325,215.986 300.000,214.571 300.000 C 212.952 300.000,212.000 299.444,212.000 298.500 C 212.000 297.675,212.675 297.000,213.500 297.000 C 214.325 297.000,215.000 296.550,215.000 296.000 C 215.000 295.450,215.675 295.000,216.500 295.000 C 217.633 295.000,218.000 293.778,218.000 290.000 C 218.000 286.222,217.633 285.000,216.500 285.000 C 215.500 285.000,215.000 284.000,215.000 282.000 L 215.000 279.000 207.500 279.000 C 201.500 279.000,200.000 279.300,200.000 280.500 C 200.000 281.325,199.325 282.000,198.500 282.000 C 197.567 282.000,197.000 282.944,197.000 284.500 C 197.000 286.056,196.433 287.000,195.500 287.000 C 194.567 287.000,194.000 287.944,194.000 289.500 C 194.000 291.056,194.567 292.000,195.500 292.000 C 196.433 292.000,197.000 292.944,197.000 294.500 C 197.000 296.056,197.567 297.000,198.500 297.000 C 199.325 297.000,200.000 297.675,200.000 298.500 C 200.000 300.983,188.574 300.574,186.000 298.000 C 183.608 295.608,183.506 295.000,185.500 295.000 C 186.583 295.000,187.000 293.889,187.000 291.000 C 187.000 288.111,186.583 287.000,185.500 287.000 C 184.675 287.000,184.000 286.550,184.000 286.000 C 184.000 285.436,181.167 285.000,177.500 285.000 L 171.000 285.000 171.000 288.500 C 171.000 291.567,170.690 292.000,168.500 292.000 C 166.500 292.000,166.000 292.500,166.000 294.500 C 166.000 296.500,165.500 297.000,163.500 297.000 C 161.944 297.000,161.000 297.567,161.000 298.500 C 161.000 299.325,160.325 300.000,159.500 300.000 C 158.675 300.000,158.000 300.675,158.000 301.500 C 158.000 302.325,157.550 303.000,157.000 303.000 C 156.450 303.000,156.000 304.125,156.000 305.500 C 156.000 307.056,155.433 308.000,154.500 308.000 C 153.567 308.000,153.000 308.944,153.000 310.500 C 153.000 311.875,152.550 313.000,152.000 313.000 C 151.450 313.000,151.000 315.250,151.000 318.000 C 151.000 321.778,150.633 323.000,149.500 323.000 C 148.417 323.000,148.000 324.111,148.000 327.000 C 148.000 329.889,147.583 331.000,146.500 331.000 C 145.675 331.000,145.000 330.325,145.000 329.500 C 145.000 328.567,144.056 328.000,142.500 328.000 C 140.944 328.000,140.000 328.567,140.000 329.500 C 140.000 330.325,139.550 331.000,139.000 331.000 C 138.450 331.000,138.000 330.518,138.000 329.929 C 138.000 328.544,140.544 326.000,141.929 326.000 C 142.518 326.000,143.000 324.875,143.000 323.500 C 143.000 322.125,143.450 321.000,144.000 321.000 C 144.550 321.000,145.000 318.563,145.000 315.584 C 145.000 310.544,145.206 310.077,147.959 308.858 C 152.898 306.672,151.283 295.000,146.042 295.000 C 145.406 295.000,145.000 291.881,145.000 287.000 C 145.000 279.133,144.958 279.000,142.500 279.000 C 140.310 279.000,140.000 278.567,140.000 275.500 C 140.000 272.433,139.690 272.000,137.500 272.000 C 136.125 272.000,135.000 271.518,135.000 270.929 C 135.000 269.020,132.208 267.000,129.571 267.000 C 127.952 267.000,127.000 266.444,127.000 265.500 C 127.000 264.675,126.550 264.000,126.000 264.000 C 125.450 264.000,125.000 263.325,125.000 262.500 C 125.000 261.417,123.889 261.000,121.000 261.000 C 118.800 261.000,117.000 260.550,117.000 260.000 C 117.000 259.407,113.333 259.000,108.000 259.000 C 99.067 259.000,99.000 258.981,99.000 256.500 C 99.000 254.944,99.567 254.000,100.500 254.000 C 101.325 254.000,102.000 253.325,102.000 252.500 C 102.000 251.675,102.450 251.000,103.000 251.000 C 103.550 251.000,104.000 249.875,104.000 248.500 C 104.000 246.944,104.567 246.000,105.500 246.000 C 106.325 246.000,107.000 245.325,107.000 244.500 C 107.000 243.675,107.450 243.000,108.000 243.000 C 108.550 243.000,109.000 241.875,109.000 240.500 C 109.000 239.125,109.445 238.000,109.989 238.000 C 111.775 238.000,115.000 234.593,115.000 232.706 C 115.000 230.679,117.236 228.000,118.929 228.000 C 119.518 228.000,120.000 227.325,120.000 226.500 C 120.000 225.675,120.450 225.000,121.000 225.000 C 121.550 225.000,122.000 223.875,122.000 222.500 C 122.000 221.125,122.482 220.000,123.071 220.000 C 124.456 220.000,127.000 217.456,127.000 216.071 C 127.000 215.482,127.675 215.000,128.500 215.000 C 129.433 215.000,130.000 215.944,130.000 217.500 C 130.000 219.056,130.567 220.000,131.500 220.000 C 132.325 220.000,133.000 220.675,133.000 221.500 C 133.000 222.633,134.222 223.000,138.000 223.000 C 141.778 223.000,143.000 222.633,143.000 221.500 C 143.000 220.675,143.450 220.000,144.000 220.000 C 144.557 220.000,145.000 217.310,145.000 213.929 C 145.000 207.404,143.673 205.000,140.071 205.000 C 138.932 205.000,138.000 204.518,138.000 203.929 C 138.000 202.544,140.544 200.000,141.929 200.000 C 142.518 200.000,143.000 199.325,143.000 198.500 C 143.000 197.675,143.450 197.000,144.000 197.000 C 144.550 197.000,145.000 196.325,145.000 195.500 C 145.000 194.675,145.675 194.000,146.500 194.000 C 147.325 194.000,148.000 193.550,148.000 193.000 C 148.000 192.450,148.675 192.000,149.500 192.000 C 150.553 192.000,151.000 193.063,151.000 195.571 C 151.000 199.066,152.793 202.000,154.929 202.000 C 155.518 202.000,156.000 202.675,156.000 203.500 C 156.000 204.679,157.389 205.000,162.500 205.000 C 166.456 205.000,169.000 204.581,169.000 203.929 C 169.000 202.544,171.544 200.000,172.929 200.000 C 173.601 200.000,174.000 197.022,174.000 192.000 C 174.000 185.556,173.708 184.000,172.500 184.000 C 171.675 184.000,171.000 183.550,171.000 183.000 C 171.000 182.450,169.875 182.000,168.500 182.000 C 166.389 182.000,166.000 181.533,166.000 179.000 C 166.000 177.350,166.482 176.000,167.071 176.000 C 168.456 176.000,171.000 173.456,171.000 172.071 C 171.000 171.482,172.800 171.000,175.000 171.000 C 178.600 171.000,179.000 170.750,179.000 168.500 C 179.000 166.944,179.567 166.000,180.500 166.000 C 181.633 166.000,182.000 167.222,182.000 171.000 C 182.000 173.750,182.450 176.000,183.000 176.000 C 183.550 176.000,184.000 177.350,184.000 179.000 C 184.000 181.533,184.389 182.000,186.500 182.000 C 187.875 182.000,189.000 182.450,189.000 183.000 C 189.000 183.564,191.833 184.000,195.500 184.000 C 199.167 184.000,202.000 183.564,202.000 183.000 C 202.000 182.450,203.125 182.000,204.500 182.000 C 206.611 182.000,207.000 181.533,207.000 179.000 C 207.000 177.000,207.500 176.000,208.500 176.000 C 209.700 176.000,210.000 174.500,210.000 168.500 C 210.000 162.500,209.700 161.000,208.500 161.000 C 207.675 161.000,207.000 160.518,207.000 159.929 C 207.000 157.793,204.066 156.000,200.571 156.000 C 198.063 156.000,197.000 155.553,197.000 154.500 C 197.000 153.567,197.944 153.000,199.500 153.000 C 200.875 153.000,202.000 152.550,202.000 152.000 C 202.000 151.450,203.800 151.000,206.000 151.000 C 209.778 151.000,210.000 150.833,210.000 148.000 C 210.000 145.374,210.353 145.000,212.827 145.000 C 215.399 145.000,215.614 145.270,215.213 148.000 C 214.879 150.276,215.163 151.000,216.387 151.000 C 217.564 151.000,218.000 151.946,218.000 154.500 C 218.000 156.425,218.450 158.000,219.000 158.000 C 219.550 158.000,220.000 158.675,220.000 159.500 C 220.000 160.351,220.897 161.000,222.071 161.000 C 223.211 161.000,224.818 161.675,225.643 162.500 C 226.573 163.430,229.027 164.000,232.103 164.000 C 235.589 164.000,237.234 163.554,237.638 162.500 C 237.955 161.675,238.841 161.000,239.607 161.000 C 240.373 161.000,241.000 160.518,241.000 159.929 C 241.000 158.544,243.544 156.000,244.929 156.000 C 245.601 156.000,246.000 153.022,246.000 148.000 C 246.000 142.978,245.601 140.000,244.929 140.000 C 243.544 140.000,241.000 137.456,241.000 136.071 C 241.000 135.482,239.875 135.000,238.500 135.000 C 237.125 135.000,236.000 134.550,236.000 134.000 C 236.000 133.450,238.250 133.000,241.000 133.000 C 245.889 133.000,246.000 132.933,246.000 130.000 L 246.000 127.000 252.500 127.000 L 259.000 127.000 259.000 132.071 C 259.000 136.973,260.500 140.000,262.929 140.000 C 263.518 140.000,264.000 140.675,264.000 141.500 C 264.000 142.679,265.389 143.000,270.500 143.000 C 274.456 143.000,277.000 142.581,277.000 141.929 C 277.000 140.544,279.544 138.000,280.929 138.000 C 281.601 138.000,282.000 135.022,282.000 130.000 C 282.000 123.556,281.708 122.000,280.500 122.000 C 279.675 122.000,279.000 121.550,279.000 121.000 C 279.000 120.450,279.675 120.000,280.500 120.000 C 281.325 120.000,282.000 119.325,282.000 118.500 C 282.000 117.675,282.675 117.000,283.500 117.000 C 284.325 117.000,285.000 116.550,285.000 116.000 C 285.000 115.450,286.575 115.000,288.500 115.000 C 290.944 115.000,292.000 114.548,292.000 113.500 C 292.000 112.567,292.944 112.000,294.500 112.000 C 296.056 112.000,297.000 112.567,297.000 113.500 C 297.000 114.325,296.550 115.000,296.000 115.000 C 295.444 115.000,295.000 117.667,295.000 121.000 C 295.000 124.333,295.444 127.000,296.000 127.000 C 296.550 127.000,297.000 127.675,297.000 128.500 C 297.000 129.325,297.675 130.000,298.500 130.000 C 299.325 130.000,300.000 130.675,300.000 131.500 C 300.000 132.583,301.111 133.000,304.000 133.000 C 306.889 133.000,308.000 132.583,308.000 131.500 C 308.000 130.567,308.944 130.000,310.500 130.000 C 312.056 130.000,313.000 129.433,313.000 128.500 C 313.000 127.675,313.450 127.000,314.000 127.000 C 314.556 127.000,315.000 124.333,315.000 121.000 C 315.000 117.667,314.556 115.000,314.000 115.000 C 313.450 115.000,313.000 113.650,313.000 112.000 C 313.000 109.467,313.389 109.000,315.500 109.000 C 316.875 109.000,318.000 108.550,318.000 108.000 C 318.000 107.450,319.800 107.000,322.000 107.000 L 326.000 107.000 326.000 112.000 C 326.000 114.750,326.450 117.000,327.000 117.000 C 327.550 117.000,328.000 117.675,328.000 118.500 C 328.000 119.325,328.675 120.000,329.500 120.000 C 330.325 120.000,331.000 120.450,331.000 121.000 C 331.000 121.550,333.250 122.000,336.000 122.000 C 338.750 122.000,341.000 121.550,341.000 121.000 C 341.000 120.450,341.675 120.000,342.500 120.000 C 343.679 120.000,344.000 118.611,344.000 113.500 C 344.000 108.389,343.679 107.000,342.500 107.000 C 341.675 107.000,341.000 106.325,341.000 105.500 C 341.000 104.675,341.675 104.000,342.500 104.000 C 343.325 104.000,344.000 104.675,344.000 105.500 C 344.000 106.433,344.944 107.000,346.500 107.000 C 348.056 107.000,349.000 106.433,349.000 105.500 C 349.000 104.567,349.944 104.000,351.500 104.000 C 352.875 104.000,354.000 103.550,354.000 103.000 C 354.000 102.361,362.639 102.000,377.918 102.000 C 403.451 102.000,405.000 101.822,405.000 98.893 C 405.000 97.079,403.787 97.000,376.000 97.000 C 357.333 97.000,347.000 97.356,347.000 98.000 M367.000 136.500 C 367.000 137.325,366.518 138.000,365.929 138.000 C 363.793 138.000,362.000 140.934,362.000 144.429 C 362.000 146.393,362.450 148.000,363.000 148.000 C 363.550 148.000,364.000 148.675,364.000 149.500 C 364.000 150.652,365.278 151.000,369.500 151.000 C 373.722 151.000,375.000 150.652,375.000 149.500 C 375.000 148.675,375.450 148.000,376.000 148.000 C 376.550 148.000,377.000 146.393,377.000 144.429 C 377.000 140.934,375.207 138.000,373.071 138.000 C 372.482 138.000,372.000 137.325,372.000 136.500 C 372.000 135.567,371.056 135.000,369.500 135.000 C 367.944 135.000,367.000 135.567,367.000 136.500 M340.722 147.011 C 339.775 148.118,339.000 149.468,339.000 150.011 C 339.000 150.555,338.325 151.000,337.500 151.000 C 334.635 151.000,335.468 162.320,338.500 164.597 C 339.875 165.630,341.000 167.043,341.000 167.737 C 341.000 168.586,342.640 169.000,346.000 169.000 C 349.778 169.000,351.000 168.633,351.000 167.500 C 351.000 166.675,351.450 166.000,352.000 166.000 C 352.550 166.000,353.900 165.100,355.000 164.000 C 357.559 161.441,357.961 151.000,355.500 151.000 C 354.675 151.000,354.000 150.325,354.000 149.500 C 354.000 148.585,353.067 148.000,351.607 148.000 C 350.291 148.000,348.955 147.325,348.638 146.500 C 347.801 144.319,342.748 144.645,340.722 147.011 M308.000 162.500 C 308.000 163.433,307.056 164.000,305.500 164.000 C 304.125 164.000,303.000 164.450,303.000 165.000 C 303.000 165.550,302.325 166.000,301.500 166.000 C 300.675 166.000,300.000 166.675,300.000 167.500 C 300.000 168.325,299.325 169.000,298.500 169.000 C 297.300 169.000,297.000 170.500,297.000 176.500 C 297.000 182.500,297.300 184.000,298.500 184.000 C 299.325 184.000,300.000 184.675,300.000 185.500 C 300.000 186.325,300.675 187.000,301.500 187.000 C 302.325 187.000,303.000 187.450,303.000 188.000 C 303.000 188.589,306.524 189.000,311.571 189.000 C 320.645 189.000,323.000 188.006,323.000 184.178 C 323.000 183.098,323.675 181.955,324.500 181.638 C 325.558 181.232,326.000 179.581,326.000 176.031 C 326.000 172.226,325.635 171.000,324.500 171.000 C 323.649 171.000,323.000 170.103,323.000 168.929 C 323.000 166.110,320.676 164.000,317.571 164.000 C 315.952 164.000,315.000 163.444,315.000 162.500 C 315.000 161.452,313.944 161.000,311.500 161.000 C 309.056 161.000,308.000 161.452,308.000 162.500 M259.000 183.000 C 259.000 183.550,258.325 184.000,257.500 184.000 C 256.675 184.000,256.000 184.675,256.000 185.500 C 256.000 186.325,255.550 187.000,255.000 187.000 C 254.450 187.000,254.000 188.125,254.000 189.500 C 254.000 191.056,253.433 192.000,252.500 192.000 C 251.321 192.000,251.000 193.389,251.000 198.500 C 251.000 203.611,251.321 205.000,252.500 205.000 C 253.351 205.000,254.000 205.897,254.000 207.071 C 254.000 209.285,256.164 212.000,257.929 212.000 C 258.518 212.000,259.000 212.675,259.000 213.500 C 259.000 214.722,260.667 215.000,268.000 215.000 C 275.333 215.000,277.000 214.722,277.000 213.500 C 277.000 212.567,277.944 212.000,279.500 212.000 C 281.500 212.000,282.000 211.500,282.000 209.500 C 282.000 207.944,282.567 207.000,283.500 207.000 C 284.433 207.000,285.000 206.056,285.000 204.500 C 285.000 203.125,285.450 202.000,286.000 202.000 C 286.550 202.000,287.000 200.200,287.000 198.000 C 287.000 195.800,286.550 194.000,286.000 194.000 C 285.450 194.000,285.000 192.425,285.000 190.500 C 285.000 188.056,284.548 187.000,283.500 187.000 C 282.675 187.000,282.000 186.325,282.000 185.500 C 282.000 184.567,281.056 184.000,279.500 184.000 C 278.125 184.000,277.000 183.550,277.000 183.000 C 277.000 182.407,273.333 182.000,268.000 182.000 C 262.667 182.000,259.000 182.407,259.000 183.000 M218.000 208.500 C 218.000 209.444,217.048 210.000,215.429 210.000 C 210.964 210.000,210.000 212.029,210.000 221.429 C 210.000 226.143,210.420 230.000,210.934 230.000 C 211.447 230.000,212.010 231.238,212.184 232.750 C 212.432 234.910,213.090 235.568,215.250 235.816 C 216.762 235.990,218.000 236.553,218.000 237.066 C 218.000 237.580,220.700 238.000,224.000 238.000 C 227.333 238.000,230.000 237.556,230.000 237.000 C 230.000 236.450,231.025 236.000,232.278 236.000 C 234.962 236.000,238.000 232.809,238.000 229.989 C 238.000 228.888,238.670 228.000,239.500 228.000 C 240.633 228.000,241.000 226.778,241.000 223.000 C 241.000 219.222,240.633 218.000,239.500 218.000 C 238.556 218.000,238.000 217.048,238.000 215.429 C 238.000 212.148,235.852 210.000,232.571 210.000 C 230.952 210.000,230.000 209.444,230.000 208.500 C 230.000 207.333,228.667 207.000,224.000 207.000 C 219.333 207.000,218.000 207.333,218.000 208.500 M179.000 234.500 C 179.000 235.325,178.325 236.000,177.500 236.000 C 176.300 236.000,176.000 237.500,176.000 243.500 C 176.000 249.500,176.300 251.000,177.500 251.000 C 178.325 251.000,179.000 251.675,179.000 252.500 C 179.000 253.433,179.944 254.000,181.500 254.000 C 182.875 254.000,184.000 254.450,184.000 255.000 C 184.000 255.550,185.125 256.000,186.500 256.000 C 187.875 256.000,189.000 255.550,189.000 255.000 C 189.000 254.450,190.125 254.000,191.500 254.000 C 193.056 254.000,194.000 253.433,194.000 252.500 C 194.000 251.675,194.675 251.000,195.500 251.000 C 196.325 251.000,197.000 250.325,197.000 249.500 C 197.000 248.675,197.675 248.000,198.500 248.000 C 199.633 248.000,200.000 246.778,200.000 243.000 C 200.000 239.222,199.633 238.000,198.500 238.000 C 197.675 238.000,197.000 237.550,197.000 237.000 C 197.000 236.450,196.325 236.000,195.500 236.000 C 194.675 236.000,194.000 235.325,194.000 234.500 C 194.000 233.300,192.500 233.000,186.500 233.000 C 180.500 233.000,179.000 233.300,179.000 234.500 M156.000 252.500 C 156.000 253.325,155.518 254.000,154.929 254.000 C 150.291 254.000,149.711 261.808,154.034 266.034 C 156.926 268.860,161.000 270.051,161.000 268.070 C 161.000 267.558,162.012 266.995,163.250 266.820 C 166.973 266.291,167.258 254.000,163.548 254.000 C 161.950 254.000,161.000 253.441,161.000 252.500 C 161.000 251.567,160.056 251.000,158.500 251.000 C 156.944 251.000,156.000 251.567,156.000 252.500 M109.643 265.500 C 110.468 266.325,112.461 267.000,114.071 267.000 C 115.682 267.000,117.000 267.450,117.000 268.000 C 117.000 268.550,118.125 269.000,119.500 269.000 C 121.056 269.000,122.000 269.567,122.000 270.500 C 122.000 271.325,122.675 272.000,123.500 272.000 C 124.325 272.000,125.000 272.450,125.000 273.000 C 125.000 273.550,126.125 274.000,127.500 274.000 C 129.500 274.000,130.000 274.500,130.000 276.500 C 130.000 278.056,130.567 279.000,131.500 279.000 C 132.325 279.000,133.000 279.675,133.000 280.500 C 133.000 281.325,133.450 282.000,134.000 282.000 C 134.550 282.000,135.000 283.125,135.000 284.500 C 135.000 286.056,135.567 287.000,136.500 287.000 C 137.433 287.000,138.000 287.944,138.000 289.500 C 138.000 290.875,138.450 292.000,139.000 292.000 C 139.550 292.000,140.000 294.475,140.000 297.500 C 140.000 300.525,139.550 303.000,139.000 303.000 C 138.450 303.000,138.000 304.125,138.000 305.500 C 138.000 306.875,138.450 308.000,139.000 308.000 C 139.550 308.000,140.000 309.125,140.000 310.500 C 140.000 311.875,139.550 313.000,139.000 313.000 C 138.450 313.000,138.000 314.125,138.000 315.500 C 138.000 317.056,137.433 318.000,136.500 318.000 C 135.567 318.000,135.000 318.944,135.000 320.500 C 135.000 321.875,134.550 323.000,134.000 323.000 C 133.450 323.000,133.000 323.675,133.000 324.500 C 133.000 325.325,132.491 326.000,131.868 326.000 C 131.246 326.000,129.215 327.613,127.357 329.583 C 124.455 332.660,123.343 333.167,119.489 333.167 C 115.196 333.167,115.000 333.294,115.000 336.083 C 115.000 338.009,114.490 339.000,113.500 339.000 C 112.675 339.000,112.000 338.325,112.000 337.500 C 112.000 336.567,111.056 336.000,109.500 336.000 C 107.944 336.000,107.000 336.567,107.000 337.500 C 107.000 338.583,105.889 339.000,103.000 339.000 C 100.111 339.000,99.000 338.583,99.000 337.500 C 99.000 336.567,98.056 336.000,96.500 336.000 C 94.944 336.000,94.000 336.567,94.000 337.500 C 94.000 338.325,93.325 339.000,92.500 339.000 C 91.488 339.000,91.000 337.987,91.000 335.883 C 91.000 333.098,90.734 332.818,88.500 333.245 C 86.824 333.565,86.000 333.274,86.000 332.361 C 86.000 331.511,84.857 331.000,82.952 331.000 C 80.986 331.000,79.082 330.113,77.588 328.500 C 76.313 327.125,74.760 326.000,74.135 326.000 C 73.511 326.000,73.000 324.875,73.000 323.500 C 73.000 322.125,72.550 321.000,72.000 321.000 C 71.450 321.000,71.000 320.325,71.000 319.500 C 71.000 318.675,70.325 318.000,69.500 318.000 C 68.417 318.000,68.000 316.889,68.000 314.000 C 68.000 311.800,67.550 310.000,67.000 310.000 C 66.422 310.000,66.000 306.833,66.000 302.500 C 66.000 298.167,66.422 295.000,67.000 295.000 C 67.550 295.000,68.000 293.200,68.000 291.000 C 68.000 288.111,68.417 287.000,69.500 287.000 C 70.433 287.000,71.000 286.056,71.000 284.500 C 71.000 283.125,71.450 282.000,72.000 282.000 C 72.550 282.000,73.000 281.325,73.000 280.500 C 73.000 279.675,73.509 279.000,74.132 279.000 C 74.754 279.000,76.749 277.425,78.565 275.500 C 80.380 273.575,82.346 272.000,82.933 272.000 C 83.520 272.000,84.000 271.325,84.000 270.500 C 84.000 269.567,84.944 269.000,86.500 269.000 C 87.875 269.000,89.000 268.550,89.000 268.000 C 89.000 267.450,90.332 267.000,91.961 267.000 C 93.589 267.000,95.501 266.342,96.211 265.538 C 97.985 263.526,107.642 263.499,109.643 265.500 M97.000 273.000 C 97.000 273.550,95.650 274.000,94.000 274.000 C 92.350 274.000,91.000 274.482,91.000 275.071 C 91.000 276.456,88.456 279.000,87.071 279.000 C 86.482 279.000,86.000 279.675,86.000 280.500 C 86.000 281.325,85.550 282.000,85.000 282.000 C 84.385 282.000,84.000 287.000,84.000 295.000 L 84.000 308.000 86.500 308.000 C 88.362 308.000,89.000 308.529,89.000 310.071 C 89.000 312.285,91.164 315.000,92.929 315.000 C 93.518 315.000,94.000 315.675,94.000 316.500 C 94.000 317.583,95.111 318.000,98.000 318.000 C 100.889 318.000,102.000 318.417,102.000 319.500 C 102.000 320.633,103.222 321.000,107.000 321.000 C 110.778 321.000,112.000 320.633,112.000 319.500 C 112.000 318.367,113.222 318.000,117.000 318.000 C 120.778 318.000,122.000 317.633,122.000 316.500 C 122.000 315.675,122.482 315.000,123.071 315.000 C 124.456 315.000,127.000 312.456,127.000 311.071 C 127.000 310.482,127.675 310.000,128.500 310.000 C 129.539 310.000,130.000 308.956,130.000 306.607 C 130.000 304.513,130.574 302.994,131.500 302.638 C 132.650 302.197,133.000 300.303,133.000 294.531 C 133.000 288.503,132.701 287.000,131.500 287.000 C 130.567 287.000,130.000 286.056,130.000 284.500 C 130.000 282.944,129.433 282.000,128.500 282.000 C 127.567 282.000,127.000 281.056,127.000 279.500 C 127.000 277.500,126.500 277.000,124.500 277.000 C 123.125 277.000,122.000 276.518,122.000 275.929 C 122.000 272.828,119.065 272.000,108.071 272.000 C 101.357 272.000,97.000 272.394,97.000 273.000 M66.000 325.500 C 66.000 326.875,66.450 328.000,67.000 328.000 C 67.550 328.000,68.000 328.675,68.000 329.500 C 68.000 330.325,68.482 331.000,69.071 331.000 C 70.456 331.000,73.000 333.544,73.000 334.929 C 73.000 335.518,73.675 336.000,74.500 336.000 C 75.433 336.000,76.000 336.944,76.000 338.500 C 76.000 340.500,75.500 341.000,73.500 341.000 C 71.944 341.000,71.000 341.567,71.000 342.500 C 71.000 343.325,70.325 344.000,69.500 344.000 C 68.321 344.000,68.000 345.389,68.000 350.500 C 68.000 355.611,68.321 357.000,69.500 357.000 C 70.325 357.000,71.000 357.450,71.000 358.000 C 71.000 358.550,73.250 359.000,76.000 359.000 C 78.750 359.000,81.000 358.550,81.000 358.000 C 81.000 357.450,81.675 357.000,82.500 357.000 C 83.679 357.000,84.000 355.611,84.000 350.500 C 84.000 345.389,83.679 344.000,82.500 344.000 C 81.675 344.000,81.000 343.325,81.000 342.500 C 81.000 341.567,81.944 341.000,83.500 341.000 C 85.056 341.000,86.000 341.567,86.000 342.500 C 86.000 343.325,86.675 344.000,87.500 344.000 C 88.325 344.000,89.000 344.450,89.000 345.000 C 89.000 345.550,88.325 346.000,87.500 346.000 C 86.567 346.000,86.000 346.944,86.000 348.500 C 86.000 350.056,86.567 351.000,87.500 351.000 C 88.325 351.000,89.000 351.675,89.000 352.500 C 89.000 353.325,89.450 354.000,90.000 354.000 C 90.564 354.000,91.000 356.833,91.000 360.500 C 91.000 364.167,90.564 367.000,90.000 367.000 C 89.436 367.000,89.000 369.833,89.000 373.500 C 89.000 378.611,88.679 380.000,87.500 380.000 C 86.567 380.000,86.000 380.944,86.000 382.500 C 86.000 384.056,86.567 385.000,87.500 385.000 C 88.325 385.000,89.000 385.675,89.000 386.500 C 89.000 387.325,89.450 388.000,90.000 388.000 C 90.550 388.000,91.000 389.125,91.000 390.500 C 91.000 392.690,90.567 393.000,87.500 393.000 C 85.575 393.000,84.000 393.450,84.000 394.000 C 84.000 394.550,83.325 395.000,82.500 395.000 C 81.348 395.000,81.000 396.278,81.000 400.500 L 81.000 406.000 87.500 406.000 C 92.611 406.000,94.000 405.679,94.000 404.500 C 94.000 403.675,94.675 403.000,95.500 403.000 C 96.433 403.000,97.000 402.056,97.000 400.500 C 97.000 399.125,97.450 398.000,98.000 398.000 C 98.550 398.000,99.000 399.125,99.000 400.500 C 99.000 402.470,99.507 403.000,101.393 403.000 C 104.311 403.000,105.444 405.413,103.458 407.400 C 101.591 409.266,101.574 414.717,103.429 416.571 C 105.305 418.448,113.695 418.448,115.571 416.571 C 117.201 414.942,117.504 411.000,116.000 411.000 C 115.450 411.000,115.000 410.325,115.000 409.500 C 115.000 408.367,116.222 408.000,120.000 408.000 C 123.647 408.000,125.000 408.383,125.000 409.417 C 125.000 410.196,125.562 411.096,126.250 411.417 C 127.250 411.883,127.250 412.117,126.250 412.583 C 125.562 412.904,125.000 414.928,125.000 417.083 L 125.000 421.000 130.000 421.000 L 135.000 421.000 135.000 417.000 C 135.000 414.111,135.417 413.000,136.500 413.000 C 137.325 413.000,138.000 413.675,138.000 414.500 C 138.000 415.548,139.056 416.000,141.500 416.000 L 145.000 416.000 145.000 421.000 L 145.000 426.000 137.500 426.000 C 133.167 426.000,130.000 425.578,130.000 425.000 C 130.000 424.450,128.875 424.000,127.500 424.000 C 125.944 424.000,125.000 423.433,125.000 422.500 C 125.000 421.567,124.056 421.000,122.500 421.000 C 120.944 421.000,120.000 421.567,120.000 422.500 C 120.000 423.756,117.889 424.000,107.000 424.000 L 94.000 424.000 94.000 421.000 C 94.000 418.467,93.611 418.000,91.500 418.000 C 89.944 418.000,89.000 418.567,89.000 419.500 C 89.000 420.325,88.325 421.000,87.500 421.000 C 86.675 421.000,86.000 420.325,86.000 419.500 C 86.000 418.452,84.944 418.000,82.500 418.000 C 80.575 418.000,79.000 417.550,79.000 417.000 C 79.000 416.450,77.650 416.000,76.000 416.000 C 74.000 416.000,73.000 415.500,73.000 414.500 C 73.000 413.675,72.550 413.000,72.000 413.000 C 71.450 413.000,71.000 411.875,71.000 410.500 C 71.000 408.250,70.600 408.000,67.000 408.000 L 63.000 408.000 63.000 404.000 C 63.000 400.400,62.750 400.000,60.500 400.000 C 59.125 400.000,58.000 399.550,58.000 399.000 C 58.000 398.450,57.325 398.000,56.500 398.000 C 55.567 398.000,55.000 397.056,55.000 395.500 C 55.000 394.125,54.550 393.000,54.000 393.000 C 53.450 393.000,53.000 392.325,53.000 391.500 C 53.000 390.675,53.450 390.000,54.000 390.000 C 54.550 390.000,55.000 388.875,55.000 387.500 C 55.000 386.125,54.550 385.000,54.000 385.000 C 53.450 385.000,53.000 384.325,53.000 383.500 C 53.000 382.675,52.325 382.000,51.500 382.000 C 50.238 382.000,50.000 379.778,50.000 368.000 C 50.000 356.222,50.238 354.000,51.500 354.000 C 52.325 354.000,53.000 353.325,53.000 352.500 C 53.000 351.675,53.450 351.000,54.000 351.000 C 55.449 351.000,55.231 346.274,53.750 345.583 C 52.750 345.117,52.750 344.883,53.750 344.417 C 54.438 344.096,55.000 342.072,55.000 339.917 C 55.000 337.102,55.422 336.000,56.500 336.000 C 57.576 336.000,58.000 334.901,58.000 332.107 C 58.000 329.569,58.522 328.014,59.500 327.638 C 60.325 327.322,61.000 326.149,61.000 325.031 C 61.000 323.531,61.654 323.000,63.500 323.000 C 65.500 323.000,66.000 323.500,66.000 325.500 M135.000 334.500 C 135.000 335.325,134.550 336.000,134.000 336.000 C 133.450 336.000,133.000 337.125,133.000 338.500 C 133.000 339.875,133.450 341.000,134.000 341.000 C 134.550 341.000,135.000 342.125,135.000 343.500 C 135.000 345.910,135.233 346.000,141.500 346.000 C 145.167 346.000,148.000 345.564,148.000 345.000 C 148.000 344.450,148.675 344.000,149.500 344.000 C 150.433 344.000,151.000 344.944,151.000 346.500 C 151.000 348.500,151.500 349.000,153.500 349.000 C 154.875 349.000,156.000 349.387,156.000 349.860 C 156.000 350.333,154.875 351.565,153.500 352.597 C 152.125 353.630,151.000 355.043,151.000 355.737 C 151.000 356.432,150.325 357.000,149.500 357.000 C 148.367 357.000,148.000 358.222,148.000 362.000 C 148.000 365.607,148.388 367.000,149.393 367.000 C 150.159 367.000,151.045 367.675,151.362 368.500 C 152.450 371.336,159.256 370.408,162.047 367.042 C 164.787 363.739,166.000 363.266,166.000 365.500 C 166.000 366.583,167.111 367.000,170.000 367.000 C 172.889 367.000,174.000 367.417,174.000 368.500 C 174.000 369.433,173.056 370.000,171.500 370.000 C 169.111 370.000,169.000 370.267,169.000 376.000 C 169.000 379.333,169.444 382.000,170.000 382.000 C 170.550 382.000,171.000 382.675,171.000 383.500 C 171.000 384.652,172.278 385.000,176.500 385.000 C 180.722 385.000,182.000 384.652,182.000 383.500 C 182.000 382.675,182.450 382.000,183.000 382.000 C 183.550 382.000,184.000 379.750,184.000 377.000 C 184.000 373.222,184.367 372.000,185.500 372.000 C 186.325 372.000,187.000 372.675,187.000 373.500 C 187.000 374.433,187.944 375.000,189.500 375.000 C 191.500 375.000,192.000 375.500,192.000 377.500 C 192.000 379.833,192.333 380.000,197.000 380.000 C 200.778 380.000,202.000 379.633,202.000 378.500 C 202.000 377.675,202.675 377.000,203.500 377.000 C 204.433 377.000,205.000 376.056,205.000 374.500 C 205.000 373.125,205.450 372.000,206.000 372.000 C 206.550 372.000,207.000 371.356,207.000 370.569 C 207.000 369.434,208.266 369.233,213.129 369.595 C 221.586 370.226,223.000 369.630,223.000 365.433 C 223.000 363.048,222.542 362.000,221.500 362.000 C 220.675 362.000,220.000 361.325,220.000 360.500 C 220.000 359.675,220.675 359.000,221.500 359.000 C 222.325 359.000,223.000 358.550,223.000 358.000 C 223.000 357.450,224.125 357.000,225.500 357.000 C 227.910 357.000,228.000 357.233,228.000 363.500 C 228.000 367.456,227.581 370.000,226.929 370.000 C 225.544 370.000,223.000 372.544,223.000 373.929 C 223.000 374.518,222.325 375.000,221.500 375.000 C 220.675 375.000,220.000 375.450,220.000 376.000 C 220.000 376.550,218.875 377.000,217.500 377.000 C 215.944 377.000,215.000 377.567,215.000 378.500 C 215.000 379.433,214.056 380.000,212.500 380.000 C 210.500 380.000,210.000 380.500,210.000 382.500 C 210.000 384.056,209.433 385.000,208.500 385.000 C 207.675 385.000,207.000 385.675,207.000 386.500 C 207.000 387.433,206.056 388.000,204.500 388.000 C 203.125 388.000,202.000 388.450,202.000 389.000 C 202.000 389.550,200.875 390.000,199.500 390.000 C 197.944 390.000,197.000 390.567,197.000 391.500 C 197.000 392.583,195.889 393.000,193.000 393.000 C 190.800 393.000,189.000 393.450,189.000 394.000 C 189.000 394.609,184.500 395.000,177.500 395.000 L 166.000 395.000 166.000 392.500 C 166.000 390.500,165.500 390.000,163.500 390.000 C 161.944 390.000,161.000 390.567,161.000 391.500 C 161.000 392.325,160.325 393.000,159.500 393.000 C 158.567 393.000,158.000 392.056,158.000 390.500 C 158.000 388.167,157.667 388.000,153.000 388.000 C 148.111 388.000,148.000 387.933,148.000 385.000 C 148.000 382.227,147.730 382.000,144.429 382.000 C 140.934 382.000,138.000 380.207,138.000 378.071 C 138.000 377.482,137.518 377.000,136.929 377.000 C 135.544 377.000,133.000 374.456,133.000 373.071 C 133.000 372.482,132.325 372.000,131.500 372.000 C 130.675 372.000,130.000 371.550,130.000 371.000 C 130.000 370.450,129.325 370.000,128.500 370.000 C 127.675 370.000,127.000 369.325,127.000 368.500 C 127.000 367.675,126.550 367.000,126.000 367.000 C 125.450 367.000,125.000 364.750,125.000 362.000 C 125.000 358.325,124.620 357.000,123.566 357.000 C 122.746 357.000,121.998 355.824,121.816 354.250 C 121.590 352.281,120.861 351.409,119.250 351.180 C 115.709 350.678,115.942 344.000,119.500 344.000 C 121.056 344.000,122.000 343.433,122.000 342.500 C 122.000 341.567,122.944 341.000,124.500 341.000 C 125.875 341.000,127.000 340.550,127.000 340.000 C 127.000 339.450,127.675 339.000,128.500 339.000 C 129.325 339.000,130.000 338.325,130.000 337.500 C 130.000 336.675,130.675 336.000,131.500 336.000 C 132.325 336.000,133.000 335.325,133.000 334.500 C 133.000 333.675,133.450 333.000,134.000 333.000 C 134.550 333.000,135.000 333.675,135.000 334.500 M238.157 356.499 C 237.765 362.801,236.000 364.030,236.000 358.000 C 236.000 355.111,235.583 354.000,234.500 354.000 C 233.675 354.000,233.000 353.325,233.000 352.500 C 233.000 351.531,233.973 351.000,235.750 350.999 C 238.458 350.997,238.495 351.081,238.157 356.499 M102.000 356.500 C 102.000 358.500,102.500 359.000,104.500 359.000 C 106.056 359.000,107.000 359.567,107.000 360.500 C 107.000 361.433,107.944 362.000,109.500 362.000 C 111.056 362.000,112.000 361.433,112.000 360.500 C 112.000 359.675,112.675 359.000,113.500 359.000 C 114.325 359.000,115.000 359.675,115.000 360.500 C 115.000 361.325,115.450 362.000,116.000 362.000 C 116.550 362.000,117.000 364.250,117.000 367.000 C 117.000 369.750,116.550 372.000,116.000 372.000 C 115.450 372.000,115.000 374.413,115.000 377.361 C 115.000 382.662,114.969 382.717,112.268 382.200 C 108.846 381.546,107.000 379.749,107.000 377.071 C 107.000 375.897,106.351 375.000,105.500 375.000 C 104.567 375.000,104.000 374.056,104.000 372.500 C 104.000 371.125,103.550 370.000,103.000 370.000 C 102.450 370.000,102.000 368.650,102.000 367.000 C 102.000 365.000,101.500 364.000,100.500 364.000 C 99.452 364.000,99.000 362.944,99.000 360.500 C 99.000 358.575,98.550 357.000,98.000 357.000 C 97.450 357.000,97.000 356.325,97.000 355.500 C 97.000 354.567,97.944 354.000,99.500 354.000 C 101.500 354.000,102.000 354.500,102.000 356.500 M71.000 368.500 C 71.000 369.325,70.325 370.000,69.500 370.000 C 68.333 370.000,68.000 371.333,68.000 376.000 C 68.000 381.733,68.111 382.000,70.500 382.000 C 72.056 382.000,73.000 382.567,73.000 383.500 C 73.000 384.500,74.000 385.000,76.000 385.000 C 78.000 385.000,79.000 384.500,79.000 383.500 C 79.000 382.567,79.944 382.000,81.500 382.000 C 83.889 382.000,84.000 381.733,84.000 376.000 C 84.000 371.333,83.667 370.000,82.500 370.000 C 81.675 370.000,81.000 369.325,81.000 368.500 C 81.000 367.367,79.778 367.000,76.000 367.000 C 72.222 367.000,71.000 367.367,71.000 368.500 M98.066 377.000 C 98.580 377.000,99.000 378.125,99.000 379.500 C 99.000 381.056,99.567 382.000,100.500 382.000 C 101.325 382.000,102.000 382.675,102.000 383.500 C 102.000 384.325,102.450 385.000,103.000 385.000 C 103.550 385.000,104.000 386.125,104.000 387.500 C 104.000 389.056,104.567 390.000,105.500 390.000 C 106.325 390.000,107.000 390.482,107.000 391.071 C 107.000 392.456,109.544 395.000,110.929 395.000 C 111.518 395.000,112.000 395.675,112.000 396.500 C 112.000 397.325,111.325 398.000,110.500 398.000 C 109.675 398.000,109.000 397.518,109.000 396.929 C 109.000 395.164,106.285 393.000,104.071 393.000 C 102.897 393.000,102.000 392.351,102.000 391.500 C 102.000 390.675,101.325 390.000,100.500 390.000 C 99.567 390.000,99.000 389.056,99.000 387.500 C 99.000 386.125,98.550 385.000,98.000 385.000 C 97.450 385.000,97.000 383.875,97.000 382.500 C 97.000 380.944,96.433 380.000,95.500 380.000 C 94.567 380.000,94.000 379.056,94.000 377.500 C 94.000 376.125,94.450 375.000,95.000 375.000 C 95.550 375.000,96.067 374.212,96.150 373.250 C 96.232 372.288,96.487 372.738,96.716 374.250 C 96.945 375.762,97.553 377.000,98.066 377.000 M117.000 386.500 C 117.000 387.433,117.944 388.000,119.500 388.000 C 120.875 388.000,122.000 388.450,122.000 389.000 C 122.000 389.550,123.125 390.000,124.500 390.000 C 125.875 390.000,127.000 389.550,127.000 389.000 C 127.000 387.426,136.937 387.794,138.571 389.429 C 139.393 390.250,140.000 392.800,140.000 395.429 C 140.000 398.825,140.385 400.000,141.500 400.000 C 142.325 400.000,143.000 400.675,143.000 401.500 C 143.000 402.633,144.222 403.000,148.000 403.000 C 151.778 403.000,153.000 402.633,153.000 401.500 C 153.000 400.675,153.637 400.000,154.417 400.000 C 155.196 400.000,156.096 399.438,156.417 398.750 C 156.883 397.750,157.117 397.750,157.583 398.750 C 157.904 399.438,159.479 400.000,161.083 400.000 C 163.819 400.000,164.000 400.248,164.000 404.000 C 164.000 406.200,164.450 408.000,165.000 408.000 C 165.550 408.000,166.000 408.675,166.000 409.500 C 166.000 410.633,167.222 411.000,171.000 411.000 C 174.778 411.000,176.000 410.633,176.000 409.500 C 176.000 408.675,176.675 408.000,177.500 408.000 C 178.433 408.000,179.000 407.056,179.000 405.500 C 179.000 403.500,179.500 403.000,181.500 403.000 C 183.056 403.000,184.000 402.433,184.000 401.500 C 184.000 400.675,184.675 400.000,185.500 400.000 C 186.636 400.000,187.000 401.230,187.000 405.071 C 187.000 411.443,188.473 413.000,194.500 413.000 C 199.550 413.000,202.000 411.390,202.000 408.071 C 202.000 406.529,202.638 406.000,204.500 406.000 C 206.833 406.000,207.000 406.333,207.000 411.000 C 207.000 414.778,207.367 416.000,208.500 416.000 C 209.325 416.000,210.000 416.450,210.000 417.000 C 210.000 417.550,211.800 418.000,214.000 418.000 C 217.600 418.000,218.000 417.750,218.000 415.500 C 218.000 414.125,218.450 413.000,219.000 413.000 C 219.550 413.000,220.000 413.675,220.000 414.500 C 220.000 415.325,220.675 416.000,221.500 416.000 C 222.583 416.000,223.000 417.111,223.000 420.000 C 223.000 422.889,222.583 424.000,221.500 424.000 C 220.675 424.000,220.000 423.325,220.000 422.500 C 220.000 421.567,219.056 421.000,217.500 421.000 C 215.944 421.000,215.000 421.567,215.000 422.500 C 215.000 423.325,214.325 424.000,213.500 424.000 C 212.675 424.000,212.000 423.325,212.000 422.500 C 212.000 421.675,211.550 421.000,211.000 421.000 C 210.450 421.000,210.000 420.325,210.000 419.500 C 210.000 418.567,209.056 418.000,207.500 418.000 C 205.944 418.000,205.000 418.567,205.000 419.500 C 205.000 420.553,203.937 421.000,201.429 421.000 C 199.464 421.000,197.182 420.325,196.357 419.500 C 195.532 418.675,193.089 418.000,190.929 418.000 C 188.768 418.000,187.000 417.550,187.000 417.000 C 187.000 416.450,185.875 416.000,184.500 416.000 C 183.125 416.000,182.000 416.450,182.000 417.000 C 182.000 417.550,179.525 418.000,176.500 418.000 C 173.475 418.000,171.000 417.550,171.000 417.000 C 171.000 416.450,168.750 416.000,166.000 416.000 C 162.222 416.000,161.000 415.633,161.000 414.500 C 161.000 413.417,159.889 413.000,157.000 413.000 C 154.800 413.000,153.000 412.550,153.000 412.000 C 153.000 411.450,151.200 411.000,149.000 411.000 C 145.400 411.000,145.000 410.750,145.000 408.500 C 145.000 406.167,144.667 406.000,140.000 406.000 C 135.111 406.000,135.000 405.933,135.000 403.000 C 135.000 400.227,134.730 400.000,131.429 400.000 C 127.934 400.000,125.000 398.207,125.000 396.071 C 125.000 395.482,123.875 395.000,122.500 395.000 C 121.125 395.000,120.000 394.550,120.000 394.000 C 120.000 393.450,119.325 393.000,118.500 393.000 C 117.675 393.000,117.000 392.518,117.000 391.929 C 117.000 391.339,116.344 390.201,115.542 389.400 C 114.741 388.598,114.339 387.280,114.649 386.471 C 115.386 384.553,117.000 384.573,117.000 386.500 M215.000 412.107 C 215.000 412.598,214.325 413.000,213.500 413.000 C 212.675 413.000,212.000 412.339,212.000 411.531 C 212.000 410.637,212.586 410.288,213.500 410.638 C 214.325 410.955,215.000 411.616,215.000 412.107 M161.000 426.607 C 161.000 428.067,161.585 429.000,162.500 429.000 C 163.433 429.000,164.000 429.944,164.000 431.500 C 164.000 432.875,164.450 434.000,165.000 434.000 C 165.550 434.000,166.000 434.450,166.000 435.000 C 166.000 436.534,159.044 436.187,157.429 434.571 C 156.643 433.786,156.000 432.211,156.000 431.071 C 156.000 429.897,155.351 429.000,154.500 429.000 C 153.675 429.000,153.000 428.325,153.000 427.500 C 153.000 426.675,153.482 426.000,154.071 426.000 C 154.661 426.000,155.799 425.344,156.600 424.542 C 158.587 422.556,161.000 423.689,161.000 426.607 M233.000 427.500 C 233.000 428.325,233.675 429.000,234.500 429.000 C 235.325 429.000,236.000 429.450,236.000 430.000 C 236.000 430.550,235.325 431.000,234.500 431.000 C 233.675 431.000,233.000 430.550,233.000 430.000 C 233.000 429.450,232.325 429.000,231.500 429.000 C 230.675 429.000,230.000 428.325,230.000 427.500 C 230.000 426.675,230.675 426.000,231.500 426.000 C 232.325 426.000,233.000 426.675,233.000 427.500 " stroke="none" fill="#000000" fill-rule="evenodd"></path></g></svg>