<svg xmlns="http://www.w3.org/2000/svg" version="1.1" width="714" height="714">
  <g transform="matrix(1.8037611,0,0,1.8037611,-4.5026696,101.09049)">
<path d="m 73.809,73.249 -68.207,68.209 64.898,64.896 64.898,64.896 8.567,-21.199 c 4.711,-11.66 8.819,-21.921 9.128,-22.802 0.552,-1.577 -0.116,-2.281 -41.67,-43.838 L 69.191,141.177 105.749,104.616 142.306,68.055 142.162,36.547 142.017,5.04 73.809,73.249 M 231.734,33.473 c -14.607,15.638 -48.231,51.625 -74.72,79.972 l -48.162,51.541 39.103,0.28 39.103,0.28 -20.479,49.02 c -24.949,59.72 -26.326,63.305 -24.316,63.305 0.29,0 20.013,-20.861 43.83,-46.358 23.817,-25.498 57.299,-61.322 74.404,-79.61 17.105,-18.288 31.183,-33.475 31.285,-33.749 0.107,-0.288 -16.411,-0.56 -39.045,-0.643 l -39.231,-0.144 22.699,-54.342 c 21.868,-52.352 24.073,-57.983 22.706,-57.983 -0.34,0 -12.57,12.794 -27.177,28.431 M 265.189,12.45 c -0.163,0.264 -4.317,10.355 -9.232,22.426 l -8.935,21.947 42.454,42.457 42.454,42.456 -36.833,36.837 -36.834,36.836 v 31.651 31.651 L 326.749,210.225 395.235,141.74 330.359,76.856 C 294.678,41.169 265.351,12.187 265.189,12.45"   style="fill-rule:evenodd;stroke:none" />
  </g>
</svg>
