<svg id="svg" xmlns="http://www.w3.org/2000/svg" xmlns:xlink="http://www.w3.org/1999/xlink" width="400" height="400" viewBox="0, 0, 400,400"><g id="svgg"><path id="path0" d="M215.167 67.012 C 146.803 70.379,82.009 92.405,19.333 133.583 C 1.268 145.452,-0.453 147.079,0.076 151.780 C 0.262 153.424,38.447 240.313,39.939 242.486 C 42.440 246.127,45.678 246.452,53.198 243.817 C 88.880 231.314,126.720 222.759,160.333 219.597 C 167.566 218.916,191.923 219.028,198.105 219.769 C 204.909 220.586,216.944 222.834,216.562 223.216 C 216.504 223.274,214.092 223.624,211.202 223.995 C 177.116 228.372,140.526 243.342,112.843 264.236 C 104.436 270.581,104.267 268.993,116.222 296.000 C 121.375 307.642,126.894 320.242,128.485 324.000 C 133.306 335.388,135.960 336.305,141.707 328.572 C 151.375 315.563,165.002 306.822,193.000 295.670 C 232.918 279.771,274.100 273.022,315.247 275.638 L 322.660 276.109 324.567 275.134 C 327.731 273.516,327.445 274.240,337.202 243.167 C 348.627 206.780,348.580 210.024,337.786 202.908 C 283.847 167.347,203.849 152.887,119.851 163.515 C 116.378 163.954,113.490 164.268,113.433 164.211 C 112.805 163.583,133.819 154.733,143.922 151.371 C 215.796 127.454,293.617 133.250,367.410 168.018 C 377.198 172.630,379.567 172.678,383.036 168.333 C 384.460 166.550,399.765 117.669,399.787 114.833 C 399.824 110.186,398.568 109.114,385.333 102.499 C 334.726 77.203,272.355 64.196,215.167 67.012 " stroke="none" fill="#000000" fill-rule="evenodd"></path></g></svg>