<svg width="100%" height="100%" viewBox="0 0 400 400" version="1.1" xmlns="http://www.w3.org/2000/svg" style="fill-rule:evenodd;clip-rule:evenodd;stroke-linejoin:round;stroke-miterlimit:2;">
    <g>
        <path d="M178.8,4.4C178.8,7.89 171.843,5.034 168.4,5.6C162.104,6.635 155.778,7.606 149.6,9.2C129.974,14.262 109.124,22.147 92,33.229C49.399,60.799 21.105,100.438 6.8,148.8C4.336,157.13 1.2,170.814 1.2,179.6L1.2,184.4L2.6,184.4C4.555,184.4 9.646,187.72 11.2,188.4C17.279,191.06 23.446,193.518 29.6,196C48.246,203.518 66.933,210.933 85.6,218.4C90.267,220.267 94.966,222.054 99.6,224C101.635,224.855 103.394,226.861 105.6,226.8C111.828,226.628 119.876,220.516 125.6,219.2C131.222,217.907 137.261,218.901 142.8,217.288C144.147,216.896 144.04,214.76 144.829,213.6C148.054,208.858 151.408,204.203 154.829,199.6C167.244,182.898 167.603,183.372 178.8,166C181.61,161.641 184.517,155.63 188.4,152L189.6,150.879L189.6,146.04C189.6,120.035 205.423,100.761 225.6,86.8C227.913,85.2 230.149,83.339 232.8,82.4C245.948,77.742 258.019,75.703 272,76.8C293.737,78.505 313.992,92.753 325.6,110.8C339.514,132.432 340.952,168.947 323.571,189.6C315.1,199.665 305.979,207.133 294.8,214C283.914,220.688 271.053,218.766 259.2,222C257.326,222.511 256.192,224.463 254.618,225.6C249.92,228.994 245.119,232.243 240.388,235.591C227.164,244.951 213.627,253.863 200.4,263.218C198.256,264.734 195.464,265.88 194.343,268.254C190.473,276.454 192.151,286.545 188.4,294.8C179.684,313.979 158.858,325.937 138.2,326.4C120.028,326.808 98.624,313.936 90.343,297.82C89.272,295.735 86.917,283.914 84.4,281.957C77.936,276.93 72.375,276.875 65,274C50.847,268.483 36.797,262.7 22.8,256.8C19.837,255.551 13.147,251.2 9.6,251.2L8,251.2L8,252.8C8,262.96 18.473,281.125 22.433,288.736C34.964,312.823 53.418,335.647 75.2,352C136.832,398.27 223.672,408.281 292.394,371.604C311.654,361.325 329.823,345.255 344.809,329.6C357.775,316.056 367.233,303.248 375.6,286.424C405.565,226.17 400.31,157.146 368.812,98.849C357.15,77.267 336.155,59.041 318.8,43.213C316.241,40.879 306.497,35.36 303.6,33.571C277.465,17.428 248.221,6.19 217.2,4.4C217.2,4.4 178.8,3.333 178.8,4.4M257.2,99.2C257.2,99.2 253.703,99.58 252,100C248.826,100.783 245.549,101.388 242.6,102.8C238.164,104.923 233.78,107.341 230.028,110.519C220.607,118.497 215.099,129.411 213.563,141.513C211.357,158.902 217.53,178.473 232.286,188.891C243.583,196.867 259.328,199.25 272.8,197.6C276.148,197.19 279.36,195.863 282.4,194.4C291.997,189.782 298.727,185.235 304.884,176.36C319.373,155.474 314.988,125.072 294.571,109.6C284.869,102.248 280.568,101.422 268.8,99.2C266.896,98.84 264.938,98.8 263,98.8C261.062,98.8 257.2,97.262 257.2,99.2M269.6,113.2C269.6,114.299 271.75,113.673 272.8,114C274.856,114.641 276.918,115.352 278.8,116.4C284.456,119.548 289.67,123.573 293.582,128.8C296.228,132.336 298.154,138.096 298.8,142.4C302.383,166.262 281.172,188.059 257,184C236.142,180.497 223.084,158.837 228.4,138.8C230.501,130.882 236.252,125.007 242.101,119.6C248.008,114.139 255.427,113.917 263,112.8C265.18,112.478 269.6,110.996 269.6,113.2M131.2,230C131.2,230.55 130.138,230.287 129.6,230.4C128.332,230.666 123.644,231.133 122.8,232.8C122.164,234.055 125.103,234.457 126.4,235C126.984,235.244 147.56,243.84 149.423,244.926C160.943,251.639 169.678,263.315 166.539,277.075C162.835,293.312 145.923,304.012 129.886,300.002C123.154,298.319 112.062,292.818 107.2,290.8C107.008,290.72 100.747,286.51 100.314,290.404C99.931,293.859 107.384,300.912 109.6,302.8C121.88,313.263 139.814,316.718 155.167,311.033C188.448,298.709 188.981,250.21 158.809,234.161C151.577,230.314 147.874,230.939 138.8,229.6C136.29,229.23 131.2,227.463 131.2,230"/>
    </g>
</svg>
