<svg xmlns="http://www.w3.org/2000/svg" width="400" height="400" viewBox="0, 0, 400,400">
<g>
<path d="M58.131 149.036 C 57.997 149.386,58.008 151.546,58.156 153.836 C 58.449 158.373,58.395 158.472,56.400 157.000 C 54.685 155.735,54.467 155.746,52.785 157.184 C 50.455 159.175,50.333 158.982,50.642 153.800 L 50.917 149.200 49.176 149.200 C 48.218 149.200,41.936 149.564,35.217 150.008 C 28.498 150.452,19.065 151.075,14.255 151.392 C 4.735 152.018,4.116 152.189,3.178 154.454 C 2.348 156.457,4.797 222.725,5.755 224.187 C 6.929 225.979,7.280 226.018,33.324 227.221 C 64.015 228.638,64.411 228.644,65.656 227.635 L 66.600 226.871 66.708 189.338 C 66.822 149.930,66.834 150.229,65.056 148.984 C 63.836 148.130,58.463 148.170,58.131 149.036 M40.112 163.389 C 46.817 164.809,50.748 169.260,51.487 176.267 L 51.705 178.333 50.153 178.764 C 48.493 179.225,42.084 179.361,41.033 178.957 C 40.612 178.796,40.400 178.213,40.400 177.217 C 40.400 173.712,39.275 172.400,36.271 172.400 C 33.557 172.400,32.600 173.374,32.600 176.135 C 32.600 179.652,32.732 179.770,43.692 186.019 C 57.023 193.620,54.349 210.074,39.400 212.418 C 28.738 214.090,20.640 208.678,20.085 199.509 C 19.856 195.720,20.068 195.580,25.926 195.640 C 31.739 195.700,31.755 195.708,32.032 198.919 C 32.492 204.238,38.900 205.939,39.829 200.989 C 40.548 197.156,39.317 195.548,32.286 191.132 C 23.178 185.410,20.613 182.176,20.605 176.400 C 20.591 166.968,29.370 161.112,40.112 163.389 M104.000 165.757 C 96.641 167.396,91.600 173.021,91.600 179.593 C 91.600 187.294,95.113 190.454,107.000 193.446 C 115.458 195.576,117.715 197.192,116.317 200.123 C 114.292 204.370,104.419 204.518,97.168 200.409 C 93.611 198.393,94.061 198.222,92.279 202.262 C 90.301 206.746,90.363 207.009,93.840 208.877 C 103.450 214.038,117.942 213.258,123.944 207.256 C 126.556 204.644,127.393 202.398,127.397 198.000 C 127.403 190.769,123.734 187.408,112.800 184.628 C 105.610 182.800,104.386 182.364,102.972 181.122 C 100.786 179.203,101.310 177.283,104.518 175.453 C 108.561 173.147,115.961 174.269,121.170 177.979 C 122.765 179.115,122.669 179.191,124.452 175.386 C 126.412 171.202,126.355 170.571,123.861 168.904 C 119.292 165.851,110.111 164.396,104.000 165.757 M254.800 188.812 L 254.800 211.625 259.700 211.512 L 264.600 211.400 264.723 209.920 L 264.846 208.440 266.639 209.809 C 269.850 212.260,276.577 212.803,280.200 210.905 C 289.297 206.136,291.317 190.114,283.776 182.535 C 279.403 178.139,270.485 177.492,266.194 181.259 L 264.800 182.483 264.800 174.241 L 264.800 166.000 259.800 166.000 L 254.800 166.000 254.800 188.812 M365.200 188.800 L 365.200 211.600 370.000 211.600 L 374.800 211.600 374.800 204.965 L 374.800 198.330 380.486 204.975 L 386.172 211.619 392.353 211.510 C 396.383 211.438,398.585 211.248,398.680 210.962 C 398.760 210.721,395.850 207.044,392.213 202.791 C 388.576 198.537,385.600 194.952,385.600 194.824 C 385.600 194.696,388.390 191.415,391.800 187.534 C 395.210 183.653,398.000 180.280,398.000 180.039 C 398.000 179.740,396.103 179.600,392.063 179.600 L 386.127 179.600 383.751 182.100 C 382.444 183.475,380.031 186.191,378.387 188.135 L 375.400 191.669 375.294 178.835 L 375.189 166.000 370.194 166.000 L 365.200 166.000 365.200 188.800 M134.800 175.000 L 134.800 179.600 132.000 179.600 L 129.200 179.600 129.200 183.600 L 129.200 187.600 131.972 187.600 L 134.743 187.600 134.872 196.100 C 135.073 209.404,137.291 212.000,148.464 212.000 L 152.800 212.000 152.803 210.700 C 152.804 209.985,152.920 208.185,153.061 206.700 L 153.316 204.000 151.358 203.977 C 145.805 203.913,145.041 202.737,144.860 193.971 L 144.719 187.200 148.760 187.200 L 152.800 187.200 152.800 183.400 L 152.800 179.600 148.800 179.600 L 144.800 179.600 144.800 175.000 L 144.800 170.400 139.800 170.400 L 134.800 170.400 134.800 175.000 M166.400 179.553 C 156.687 182.104,152.336 192.985,156.833 203.476 C 161.850 215.182,182.875 214.841,187.640 202.976 C 189.150 199.215,189.063 190.792,187.479 187.400 C 184.232 180.447,175.447 177.177,166.400 179.553 M207.849 179.495 C 206.114 179.950,205.040 180.550,203.749 181.787 L 202.000 183.463 202.000 181.531 L 202.000 179.600 197.400 179.600 L 192.800 179.600 192.800 195.600 L 192.800 211.600 197.580 211.600 L 202.360 211.600 202.480 202.070 C 202.642 189.243,203.902 187.617,213.700 187.602 L 215.200 187.600 215.197 185.300 C 215.195 184.035,215.080 182.055,214.941 180.900 L 214.689 178.800 212.444 178.840 C 211.210 178.862,209.142 179.157,207.849 179.495 M302.742 179.565 C 298.196 180.792,295.271 183.225,293.321 187.400 C 291.737 190.792,291.650 199.215,293.160 202.976 C 298.238 215.621,320.010 215.004,324.471 202.089 C 329.568 187.335,318.080 175.427,302.742 179.565 M338.400 179.553 C 329.233 182.039,324.842 192.765,328.803 202.999 C 333.702 215.657,355.610 215.020,360.069 202.089 C 365.159 187.331,353.692 175.407,338.400 179.553 M216.400 179.771 C 216.400 179.877,219.190 186.432,222.600 194.336 C 229.595 210.552,229.195 209.116,227.593 212.244 C 225.851 215.647,223.200 221.534,223.200 222.001 C 223.200 222.246,225.178 222.400,228.319 222.400 L 233.437 222.400 235.472 217.900 C 244.100 198.815,252.400 180.196,252.400 179.926 C 252.400 179.747,250.062 179.600,247.205 179.600 L 242.011 179.600 241.353 181.100 C 240.992 181.925,239.298 186.078,237.589 190.328 C 235.880 194.579,234.373 197.881,234.241 197.666 C 234.108 197.451,233.380 195.503,232.624 193.338 C 231.867 191.172,230.359 187.240,229.272 184.600 L 227.295 179.800 221.848 179.689 C 218.851 179.628,216.400 179.664,216.400 179.771 M175.400 187.937 C 179.313 190.143,179.622 200.059,175.854 202.528 C 171.881 205.131,167.066 203.491,166.075 199.197 C 164.002 190.217,168.917 184.282,175.400 187.937 M274.600 187.969 C 279.895 190.933,278.479 202.274,272.649 203.589 C 268.028 204.631,265.095 201.467,265.058 195.400 C 265.015 188.357,269.312 185.010,274.600 187.969 M312.300 188.270 C 316.558 191.449,316.054 200.697,311.495 203.054 C 306.508 205.633,301.910 201.907,301.880 195.264 C 301.849 188.311,307.381 184.597,312.300 188.270 M347.900 188.270 C 352.158 191.449,351.654 200.697,347.095 203.054 C 342.108 205.633,337.510 201.907,337.480 195.264 C 337.449 188.311,342.981 184.597,347.900 188.270 " stroke="none" fill-rule="evenodd"></path>
</g>
</svg>