<svg id="svg" version="1.1" width="400" height="400" xmlns="http://www.w3.org/2000/svg" xmlns:xlink="http://www.w3.org/1999/xlink" style="display: block;"><g id="svgg"><path id="path0" d="M185.000 27.500 C 185.000 28.753,182.944 29.000,172.500 29.000 C 160.667 29.000,160.000 29.107,160.000 31.000 C 160.000 32.795,159.333 33.000,153.500 33.000 C 148.389 33.000,147.000 33.321,147.000 34.500 C 147.000 35.611,145.833 36.000,142.500 36.000 C 139.167 36.000,138.000 36.389,138.000 37.500 C 138.000 38.611,136.833 39.000,133.500 39.000 C 130.167 39.000,129.000 39.389,129.000 40.500 C 129.000 41.503,127.997 42.000,125.969 42.000 C 124.197 42.000,122.698 42.623,122.362 43.500 C 122.034 44.355,120.542 45.000,118.893 45.000 C 116.988 45.000,116.000 45.512,116.000 46.500 C 116.000 47.500,115.000 48.000,113.000 48.000 C 111.000 48.000,110.000 48.500,110.000 49.500 C 110.000 50.500,109.000 51.000,107.000 51.000 C 105.000 51.000,104.000 51.500,104.000 52.500 C 104.000 53.325,103.325 54.000,102.500 54.000 C 101.675 54.000,101.000 54.675,101.000 55.500 C 101.000 56.500,100.000 57.000,98.000 57.000 C 96.000 57.000,95.000 57.500,95.000 58.500 C 95.000 59.325,94.283 60.000,93.406 60.000 C 92.530 60.000,91.577 60.900,91.290 62.000 C 91.002 63.100,90.144 64.000,89.383 64.000 C 88.623 64.000,88.000 64.675,88.000 65.500 C 88.000 66.325,87.325 67.000,86.500 67.000 C 85.675 67.000,85.000 67.675,85.000 68.500 C 85.000 69.500,84.000 70.000,82.000 70.000 C 80.000 70.000,79.000 70.500,79.000 71.500 C 79.000 72.325,78.325 73.000,77.500 73.000 C 76.675 73.000,76.000 73.675,76.000 74.500 C 76.000 75.325,75.325 76.000,74.500 76.000 C 73.675 76.000,73.000 76.675,73.000 77.500 C 73.000 78.325,72.325 79.000,71.500 79.000 C 70.675 79.000,70.000 79.675,70.000 80.500 C 70.000 81.325,69.325 82.000,68.500 82.000 C 67.500 82.000,67.000 83.000,67.000 85.000 C 67.000 87.000,66.500 88.000,65.500 88.000 C 64.675 88.000,64.000 88.623,64.000 89.383 C 64.000 90.144,63.100 91.002,62.000 91.290 C 60.900 91.577,60.000 92.530,60.000 93.406 C 60.000 94.283,59.325 95.000,58.500 95.000 C 57.675 95.000,57.000 95.675,57.000 96.500 C 57.000 97.325,56.325 98.000,55.500 98.000 C 54.500 98.000,54.000 99.000,54.000 101.000 C 54.000 103.000,53.500 104.000,52.500 104.000 C 51.675 104.000,51.000 104.675,51.000 105.500 C 51.000 106.325,50.325 107.000,49.500 107.000 C 48.500 107.000,48.000 108.000,48.000 110.000 C 48.000 112.000,47.500 113.000,46.500 113.000 C 45.500 113.000,45.000 114.000,45.000 116.000 C 45.000 118.000,44.500 119.000,43.500 119.000 C 42.452 119.000,42.000 120.056,42.000 122.500 C 42.000 124.944,41.548 126.000,40.500 126.000 C 39.500 126.000,39.000 127.000,39.000 129.000 C 39.000 131.000,38.500 132.000,37.500 132.000 C 36.389 132.000,36.000 133.167,36.000 136.500 C 36.000 139.833,35.611 141.000,34.500 141.000 C 33.395 141.000,33.000 142.154,33.000 145.383 C 33.000 148.926,32.616 149.867,31.000 150.290 C 29.276 150.741,29.000 151.654,29.000 156.906 C 29.000 161.656,28.669 163.000,27.500 163.000 C 26.247 163.000,26.000 165.056,26.000 175.500 C 26.000 185.944,25.753 188.000,24.500 188.000 C 23.262 188.000,23.000 189.833,23.000 198.500 C 23.000 207.167,23.262 209.000,24.500 209.000 C 25.753 209.000,26.000 211.056,26.000 221.500 C 26.000 231.944,26.247 234.000,27.500 234.000 C 28.665 234.000,29.000 235.326,29.000 239.933 C 29.000 244.987,29.296 245.959,31.000 246.500 C 32.604 247.009,33.000 248.013,33.000 251.567 C 33.000 254.841,33.392 256.000,34.500 256.000 C 35.611 256.000,36.000 257.167,36.000 260.500 C 36.000 263.833,36.389 265.000,37.500 265.000 C 38.500 265.000,39.000 266.000,39.000 268.000 C 39.000 270.000,39.500 271.000,40.500 271.000 C 41.503 271.000,42.000 272.003,42.000 274.031 C 42.000 275.803,42.623 277.302,43.500 277.638 C 44.355 277.966,45.000 279.458,45.000 281.107 C 45.000 283.012,45.512 284.000,46.500 284.000 C 47.500 284.000,48.000 285.000,48.000 287.000 C 48.000 289.000,48.500 290.000,49.500 290.000 C 50.325 290.000,51.000 290.675,51.000 291.500 C 51.000 292.325,51.675 293.000,52.500 293.000 C 53.500 293.000,54.000 294.000,54.000 296.000 C 54.000 298.000,54.500 299.000,55.500 299.000 C 56.325 299.000,57.000 299.675,57.000 300.500 C 57.000 301.325,57.675 302.000,58.500 302.000 C 59.325 302.000,60.000 302.675,60.000 303.500 C 60.000 304.333,60.889 305.000,62.000 305.000 C 63.333 305.000,64.000 305.667,64.000 307.000 C 64.000 308.111,64.667 309.000,65.500 309.000 C 66.500 309.000,67.000 310.000,67.000 312.000 C 67.000 314.000,67.500 315.000,68.500 315.000 C 69.325 315.000,70.000 315.675,70.000 316.500 C 70.000 317.325,70.675 318.000,71.500 318.000 C 72.325 318.000,73.000 318.675,73.000 319.500 C 73.000 320.325,73.675 321.000,74.500 321.000 C 75.325 321.000,76.000 321.675,76.000 322.500 C 76.000 323.325,76.675 324.000,77.500 324.000 C 78.325 324.000,79.000 324.675,79.000 325.500 C 79.000 326.500,80.000 327.000,82.000 327.000 C 84.000 327.000,85.000 327.500,85.000 328.500 C 85.000 329.325,85.675 330.000,86.500 330.000 C 87.325 330.000,88.000 330.675,88.000 331.500 C 88.000 332.325,88.675 333.000,89.500 333.000 C 90.325 333.000,91.000 333.675,91.000 334.500 C 91.000 335.333,91.889 336.000,93.000 336.000 C 94.333 336.000,95.000 336.667,95.000 338.000 C 95.000 339.556,95.667 340.000,98.000 340.000 C 100.000 340.000,101.000 340.500,101.000 341.500 C 101.000 342.325,101.675 343.000,102.500 343.000 C 103.325 343.000,104.000 343.675,104.000 344.500 C 104.000 345.500,105.000 346.000,107.000 346.000 C 109.000 346.000,110.000 346.500,110.000 347.500 C 110.000 348.500,111.000 349.000,113.000 349.000 C 115.000 349.000,116.000 349.500,116.000 350.500 C 116.000 351.488,116.988 352.000,118.893 352.000 C 120.542 352.000,122.034 352.645,122.362 353.500 C 122.698 354.377,124.197 355.000,125.969 355.000 C 127.997 355.000,129.000 355.497,129.000 356.500 C 129.000 357.611,130.167 358.000,133.500 358.000 C 136.833 358.000,138.000 358.389,138.000 359.500 C 138.000 360.611,139.167 361.000,142.500 361.000 C 145.833 361.000,147.000 361.389,147.000 362.500 C 147.000 363.679,148.389 364.000,153.500 364.000 C 158.611 364.000,160.000 364.321,160.000 365.500 C 160.000 366.753,162.056 367.000,172.500 367.000 C 184.333 367.000,185.000 367.107,185.000 369.000 C 185.000 370.873,185.667 371.000,195.500 371.000 C 205.333 371.000,206.000 370.873,206.000 369.000 C 206.000 367.107,206.667 367.000,218.500 367.000 C 228.944 367.000,231.000 366.753,231.000 365.500 C 231.000 364.333,232.333 364.000,237.000 364.000 C 241.667 364.000,243.000 363.667,243.000 362.500 C 243.000 361.367,244.222 361.000,248.000 361.000 C 251.778 361.000,253.000 360.633,253.000 359.500 C 253.000 358.389,254.167 358.000,257.500 358.000 C 260.833 358.000,262.000 357.611,262.000 356.500 C 262.000 355.500,263.000 355.000,265.000 355.000 C 267.000 355.000,268.000 354.500,268.000 353.500 C 268.000 352.500,269.000 352.000,271.000 352.000 C 273.000 352.000,274.000 351.500,274.000 350.500 C 274.000 349.452,275.056 349.000,277.500 349.000 C 279.944 349.000,281.000 348.548,281.000 347.500 C 281.000 346.500,282.000 346.000,284.000 346.000 C 286.000 346.000,287.000 345.500,287.000 344.500 C 287.000 343.675,287.675 343.000,288.500 343.000 C 289.325 343.000,290.000 342.325,290.000 341.500 C 290.000 340.500,291.000 340.000,293.000 340.000 C 295.333 340.000,296.000 339.556,296.000 338.000 C 296.000 336.889,296.667 336.000,297.500 336.000 C 298.325 336.000,299.000 335.325,299.000 334.500 C 299.000 333.675,299.675 333.000,300.500 333.000 C 301.325 333.000,302.000 332.325,302.000 331.500 C 302.000 330.675,302.675 330.000,303.500 330.000 C 304.325 330.000,305.000 329.325,305.000 328.500 C 305.000 327.452,306.056 327.000,308.500 327.000 C 310.944 327.000,312.000 326.548,312.000 325.500 C 312.000 324.675,312.675 324.000,313.500 324.000 C 314.325 324.000,315.000 323.325,315.000 322.500 C 315.000 321.675,315.675 321.000,316.500 321.000 C 317.325 321.000,318.000 320.325,318.000 319.500 C 318.000 318.675,318.675 318.000,319.500 318.000 C 320.325 318.000,321.000 317.325,321.000 316.500 C 321.000 315.675,321.675 315.000,322.500 315.000 C 323.488 315.000,324.000 314.012,324.000 312.107 C 324.000 310.458,324.645 308.966,325.500 308.638 C 326.325 308.322,327.000 307.374,327.000 306.531 C 327.000 305.689,327.675 305.000,328.500 305.000 C 329.325 305.000,330.000 304.325,330.000 303.500 C 330.000 302.675,330.675 302.000,331.500 302.000 C 332.325 302.000,333.000 301.325,333.000 300.500 C 333.000 299.675,333.675 299.000,334.500 299.000 C 335.500 299.000,336.000 298.000,336.000 296.000 C 336.000 293.667,336.444 293.000,338.000 293.000 C 339.111 293.000,340.000 292.333,340.000 291.500 C 340.000 290.675,340.675 290.000,341.500 290.000 C 342.500 290.000,343.000 289.000,343.000 287.000 C 343.000 285.000,343.500 284.000,344.500 284.000 C 345.488 284.000,346.000 283.012,346.000 281.107 C 346.000 279.458,346.645 277.966,347.500 277.638 C 348.377 277.302,349.000 275.803,349.000 274.031 C 349.000 272.003,349.497 271.000,350.500 271.000 C 351.500 271.000,352.000 270.000,352.000 268.000 C 352.000 266.000,352.500 265.000,353.500 265.000 C 354.611 265.000,355.000 263.833,355.000 260.500 C 355.000 257.167,355.389 256.000,356.500 256.000 C 357.606 256.000,358.000 254.845,358.000 251.607 C 358.000 248.625,358.482 247.029,359.500 246.638 C 360.604 246.215,361.000 244.470,361.000 240.031 C 361.000 235.337,361.332 234.000,362.500 234.000 C 363.753 234.000,364.000 231.944,364.000 221.500 C 364.000 211.056,364.247 209.000,365.500 209.000 C 366.738 209.000,367.000 207.167,367.000 198.500 C 367.000 189.833,366.738 188.000,365.500 188.000 C 364.247 188.000,364.000 185.944,364.000 175.500 C 364.000 165.056,363.753 163.000,362.500 163.000 C 361.321 163.000,361.000 161.611,361.000 156.500 C 361.000 151.389,360.679 150.000,359.500 150.000 C 358.389 150.000,358.000 148.833,358.000 145.500 C 358.000 142.167,357.611 141.000,356.500 141.000 C 355.389 141.000,355.000 139.833,355.000 136.500 C 355.000 133.167,354.611 132.000,353.500 132.000 C 352.500 132.000,352.000 131.000,352.000 129.000 C 352.000 127.000,351.500 126.000,350.500 126.000 C 349.452 126.000,349.000 124.944,349.000 122.500 C 349.000 120.056,348.548 119.000,347.500 119.000 C 346.500 119.000,346.000 118.000,346.000 116.000 C 346.000 114.000,345.500 113.000,344.500 113.000 C 343.500 113.000,343.000 112.000,343.000 110.000 C 343.000 108.000,342.500 107.000,341.500 107.000 C 340.675 107.000,340.000 106.325,340.000 105.500 C 340.000 104.667,339.111 104.000,338.000 104.000 C 336.444 104.000,336.000 103.333,336.000 101.000 C 336.000 99.000,335.500 98.000,334.500 98.000 C 333.675 98.000,333.000 97.325,333.000 96.500 C 333.000 95.675,332.325 95.000,331.500 95.000 C 330.675 95.000,330.000 94.311,330.000 93.469 C 330.000 92.626,329.325 91.678,328.500 91.362 C 327.675 91.045,327.000 90.159,327.000 89.393 C 327.000 88.627,326.325 88.000,325.500 88.000 C 324.500 88.000,324.000 87.000,324.000 85.000 C 324.000 83.000,323.500 82.000,322.500 82.000 C 321.675 82.000,321.000 81.325,321.000 80.500 C 321.000 79.675,320.325 79.000,319.500 79.000 C 318.675 79.000,318.000 78.325,318.000 77.500 C 318.000 76.675,317.325 76.000,316.500 76.000 C 315.675 76.000,315.000 75.325,315.000 74.500 C 315.000 73.675,314.325 73.000,313.500 73.000 C 312.675 73.000,312.000 72.325,312.000 71.500 C 312.000 70.452,310.944 70.000,308.500 70.000 C 306.056 70.000,305.000 69.548,305.000 68.500 C 305.000 67.675,304.325 67.000,303.500 67.000 C 302.675 67.000,302.000 66.325,302.000 65.500 C 302.000 64.675,301.325 64.000,300.500 64.000 C 299.667 64.000,299.000 63.111,299.000 62.000 C 299.000 60.889,298.333 60.000,297.500 60.000 C 296.675 60.000,296.000 59.325,296.000 58.500 C 296.000 57.500,295.000 57.000,293.000 57.000 C 291.000 57.000,290.000 56.500,290.000 55.500 C 290.000 54.675,289.325 54.000,288.500 54.000 C 287.675 54.000,287.000 53.325,287.000 52.500 C 287.000 51.500,286.000 51.000,284.000 51.000 C 282.000 51.000,281.000 50.500,281.000 49.500 C 281.000 48.452,279.944 48.000,277.500 48.000 C 275.056 48.000,274.000 47.548,274.000 46.500 C 274.000 45.500,273.000 45.000,271.000 45.000 C 269.000 45.000,268.000 44.500,268.000 43.500 C 268.000 42.500,267.000 42.000,265.000 42.000 C 263.000 42.000,262.000 41.500,262.000 40.500 C 262.000 39.389,260.833 39.000,257.500 39.000 C 254.167 39.000,253.000 38.611,253.000 37.500 C 253.000 36.367,251.778 36.000,248.000 36.000 C 244.222 36.000,243.000 35.633,243.000 34.500 C 243.000 33.333,241.667 33.000,237.000 33.000 C 231.667 33.000,231.000 32.778,231.000 31.000 C 231.000 29.107,230.333 29.000,218.500 29.000 C 208.056 29.000,206.000 28.753,206.000 27.500 C 206.000 26.262,204.167 26.000,195.500 26.000 C 186.833 26.000,185.000 26.262,185.000 27.500 M250.000 101.000 C 250.000 103.000,249.500 104.000,248.500 104.000 C 247.675 104.000,247.000 104.675,247.000 105.500 C 247.000 106.333,246.111 107.000,245.000 107.000 C 243.444 107.000,243.000 107.667,243.000 110.000 C 243.000 112.000,242.500 113.000,241.500 113.000 C 240.675 113.000,240.000 113.675,240.000 114.500 C 240.000 115.325,239.325 116.000,238.500 116.000 C 237.512 116.000,237.000 116.988,237.000 118.893 C 237.000 120.542,236.355 122.034,235.500 122.362 C 234.675 122.678,234.000 123.626,234.000 124.469 C 234.000 125.311,233.325 126.000,232.500 126.000 C 231.500 126.000,231.000 127.000,231.000 129.000 C 231.000 131.000,230.500 132.000,229.500 132.000 C 228.500 132.000,228.000 133.000,228.000 135.000 C 228.000 137.000,227.500 138.000,226.500 138.000 C 225.675 138.000,225.000 138.675,225.000 139.500 C 225.000 140.325,224.325 141.000,223.500 141.000 C 222.500 141.000,222.000 142.000,222.000 144.000 C 222.000 146.000,221.500 147.000,220.500 147.000 C 219.675 147.000,219.000 147.675,219.000 148.500 C 219.000 149.325,218.325 150.000,217.500 150.000 C 216.452 150.000,216.000 151.056,216.000 153.500 C 216.000 156.333,215.619 157.000,214.000 157.000 C 212.444 157.000,212.000 157.667,212.000 160.000 L 212.000 163.000 232.500 163.000 L 253.000 163.000 253.000 167.500 C 253.000 170.833,252.611 172.000,251.500 172.000 C 250.675 172.000,250.000 172.675,250.000 173.500 C 250.000 174.325,249.325 175.000,248.500 175.000 C 247.675 175.000,247.000 175.675,247.000 176.500 C 247.000 177.325,246.311 178.000,245.469 178.000 C 244.626 178.000,243.678 178.675,243.362 179.500 C 243.045 180.325,242.159 181.000,241.393 181.000 C 240.627 181.000,240.000 181.900,240.000 183.000 C 240.000 184.111,239.333 185.000,238.500 185.000 C 237.500 185.000,237.000 186.000,237.000 188.000 C 237.000 190.000,236.500 191.000,235.500 191.000 C 234.675 191.000,234.000 191.675,234.000 192.500 C 234.000 193.325,233.325 194.000,232.500 194.000 C 231.675 194.000,231.000 194.675,231.000 195.500 C 231.000 196.325,230.325 197.000,229.500 197.000 C 228.675 197.000,228.000 197.675,228.000 198.500 C 228.000 199.325,227.325 200.000,226.500 200.000 C 225.675 200.000,225.000 200.675,225.000 201.500 C 225.000 202.325,224.325 203.000,223.500 203.000 C 222.500 203.000,222.000 204.000,222.000 206.000 C 222.000 208.000,221.500 209.000,220.500 209.000 C 219.675 209.000,219.000 209.675,219.000 210.500 C 219.000 211.325,218.325 212.000,217.500 212.000 C 216.667 212.000,216.000 212.889,216.000 214.000 C 216.000 215.333,215.333 216.000,214.000 216.000 C 212.889 216.000,212.000 216.667,212.000 217.500 C 212.000 218.325,211.325 219.000,210.500 219.000 C 209.675 219.000,209.000 219.675,209.000 220.500 C 209.000 221.325,208.325 222.000,207.500 222.000 C 206.675 222.000,206.000 222.675,206.000 223.500 C 206.000 224.325,205.325 225.000,204.500 225.000 C 203.500 225.000,203.000 226.000,203.000 228.000 C 203.000 230.000,202.500 231.000,201.500 231.000 C 200.675 231.000,200.000 231.675,200.000 232.500 C 200.000 233.325,199.325 234.000,198.500 234.000 C 197.675 234.000,197.000 234.675,197.000 235.500 C 197.000 236.325,196.325 237.000,195.500 237.000 C 194.675 237.000,194.000 237.675,194.000 238.500 C 194.000 239.325,193.325 240.000,192.500 240.000 C 191.675 240.000,191.000 240.675,191.000 241.500 C 191.000 242.325,190.325 243.000,189.500 243.000 C 188.452 243.000,188.000 244.056,188.000 246.500 C 188.000 248.944,187.548 250.000,186.500 250.000 C 185.675 250.000,185.000 250.675,185.000 251.500 C 185.000 252.333,184.111 253.000,183.000 253.000 C 181.889 253.000,181.000 253.667,181.000 254.500 C 181.000 255.325,180.325 256.000,179.500 256.000 C 178.675 256.000,178.000 256.675,178.000 257.500 C 178.000 258.325,177.325 259.000,176.500 259.000 C 175.675 259.000,175.000 259.675,175.000 260.500 C 175.000 261.325,174.325 262.000,173.500 262.000 C 172.675 262.000,172.000 262.675,172.000 263.500 C 172.000 264.325,171.325 265.000,170.500 265.000 C 169.500 265.000,169.000 266.000,169.000 268.000 C 169.000 270.000,168.500 271.000,167.500 271.000 C 166.675 271.000,166.000 271.675,166.000 272.500 C 166.000 273.325,165.325 274.000,164.500 274.000 C 163.667 274.000,163.000 274.889,163.000 276.000 C 163.000 277.111,162.333 278.000,161.500 278.000 C 160.675 278.000,160.000 278.675,160.000 279.500 C 160.000 280.325,159.325 281.000,158.500 281.000 C 157.675 281.000,157.000 281.623,157.000 282.383 C 157.000 283.144,156.100 284.002,155.000 284.290 C 153.649 284.643,153.000 285.654,153.000 287.406 C 153.000 289.045,152.448 290.000,151.500 290.000 C 150.675 290.000,150.000 290.675,150.000 291.500 C 150.000 292.325,149.325 293.000,148.500 293.000 C 147.675 293.000,147.000 293.675,147.000 294.500 C 147.000 295.325,146.325 296.000,145.500 296.000 C 144.675 296.000,144.000 296.675,144.000 297.500 C 144.000 298.611,142.833 299.000,139.500 299.000 C 135.167 299.000,135.000 298.889,135.000 296.000 C 135.000 294.000,135.500 293.000,136.500 293.000 C 137.611 293.000,138.000 291.833,138.000 288.500 C 138.000 285.167,138.389 284.000,139.500 284.000 C 140.488 284.000,141.000 283.012,141.000 281.107 C 141.000 279.458,141.645 277.966,142.500 277.638 C 143.528 277.244,144.000 275.637,144.000 272.531 C 144.000 269.170,144.387 268.000,145.500 268.000 C 146.500 268.000,147.000 267.000,147.000 265.000 C 147.000 263.000,147.500 262.000,148.500 262.000 C 149.611 262.000,150.000 260.833,150.000 257.500 C 150.000 254.167,150.389 253.000,151.500 253.000 C 152.492 253.000,153.000 252.007,153.000 250.067 C 153.000 248.013,153.599 246.945,155.000 246.500 C 156.401 246.055,157.000 244.987,157.000 242.933 C 157.000 240.993,157.508 240.000,158.500 240.000 C 159.500 240.000,160.000 239.000,160.000 237.000 C 160.000 235.000,160.500 234.000,161.500 234.000 C 162.611 234.000,163.000 232.833,163.000 229.500 C 163.000 226.167,163.389 225.000,164.500 225.000 C 165.500 225.000,166.000 224.000,166.000 222.000 C 166.000 220.000,166.500 219.000,167.500 219.000 C 168.679 219.000,169.000 217.611,169.000 212.500 L 169.000 206.000 153.500 206.000 C 140.389 206.000,138.000 205.769,138.000 204.500 C 138.000 203.675,137.325 203.000,136.500 203.000 C 135.500 203.000,135.000 202.000,135.000 200.000 C 135.000 198.000,135.500 197.000,136.500 197.000 C 137.500 197.000,138.000 196.000,138.000 194.000 C 138.000 192.000,138.500 191.000,139.500 191.000 C 140.548 191.000,141.000 189.944,141.000 187.500 C 141.000 185.056,141.452 184.000,142.500 184.000 C 143.500 184.000,144.000 183.000,144.000 181.000 C 144.000 179.000,144.500 178.000,145.500 178.000 C 146.500 178.000,147.000 177.000,147.000 175.000 C 147.000 173.000,147.500 172.000,148.500 172.000 C 149.500 172.000,150.000 171.000,150.000 169.000 C 150.000 167.000,150.500 166.000,151.500 166.000 C 152.487 166.000,153.000 165.013,153.000 163.117 C 153.000 161.074,153.583 160.081,155.000 159.710 C 156.456 159.329,157.000 158.346,157.000 156.094 C 157.000 154.010,157.490 153.000,158.500 153.000 C 159.500 153.000,160.000 152.000,160.000 150.000 C 160.000 148.000,160.500 147.000,161.500 147.000 C 162.500 147.000,163.000 146.000,163.000 144.000 C 163.000 142.000,163.500 141.000,164.500 141.000 C 165.500 141.000,166.000 140.000,166.000 138.000 C 166.000 136.000,166.500 135.000,167.500 135.000 C 168.500 135.000,169.000 134.000,169.000 132.000 C 169.000 130.000,169.500 129.000,170.500 129.000 C 171.548 129.000,172.000 127.944,172.000 125.500 C 172.000 123.056,172.452 122.000,173.500 122.000 C 174.500 122.000,175.000 121.000,175.000 119.000 C 175.000 117.000,175.500 116.000,176.500 116.000 C 177.500 116.000,178.000 115.000,178.000 113.000 C 178.000 111.000,178.500 110.000,179.500 110.000 C 180.500 110.000,181.000 109.000,181.000 107.000 C 181.000 105.000,181.500 104.000,182.500 104.000 C 183.500 104.000,184.000 103.000,184.000 101.000 L 184.000 98.000 217.000 98.000 L 250.000 98.000 250.000 101.000 " stroke="none" fill="#000000" fill-rule="evenodd"></path></g></svg>