<svg version="1.1" width="400" height="346" xmlns="http://www.w3.org/2000/svg">
<g>
<path d="M376.500 28.193 C 309.668 40.981,277.705 47.717,277.167 49.127 C 276.983 49.607,276.083 49.994,275.167 49.986 C 270.826 49.950,177.603 72.865,177.167 74.075 C 176.983 74.584,176.203 75.000,175.433 75.000 C 173.148 75.000,139.978 83.975,112.500 92.029 C 105.350 94.124,97.475 96.371,95.000 97.023 C 92.525 97.674,90.275 98.531,90.000 98.927 C 89.725 99.323,77.575 103.588,63.000 108.404 C 33.333 118.207,22.210 122.115,20.000 123.510 C 19.175 124.031,14.450 126.089,9.500 128.084 L 0.500 131.710 0.238 170.398 L -0.024 209.086 7.238 208.506 C 11.232 208.188,25.750 207.045,39.500 205.967 C 90.489 201.970,122.257 198.942,123.000 198.009 C 123.275 197.664,129.575 196.811,137.000 196.115 C 144.425 195.419,161.300 193.786,174.500 192.485 C 245.667 185.473,294.616 183.523,307.382 187.190 C 325.941 192.520,321.457 203.990,295.881 216.605 C 290.722 219.150,286.275 221.573,286.000 221.991 C 284.529 224.222,238.736 240.304,221.750 244.554 C 218.037 245.483,215.000 246.586,215.000 247.005 C 215.000 247.424,213.987 247.995,212.750 248.275 C 211.512 248.554,203.525 250.626,195.000 252.880 C 173.696 258.513,129.540 269.009,120.500 270.589 C 118.300 270.974,116.275 271.600,116.000 271.981 C 114.995 273.373,49.935 285.078,15.250 290.108 L -0.000 292.319 -0.000 305.660 C -0.000 315.886,0.301 319.000,1.290 319.000 C 8.716 319.000,115.947 298.679,116.969 297.078 C 117.261 296.620,119.525 295.921,122.000 295.525 C 126.128 294.865,138.479 292.115,167.500 285.393 C 191.472 279.840,219.527 272.737,220.000 272.101 C 220.275 271.731,227.475 269.694,236.000 267.575 C 244.525 265.455,256.675 262.278,263.000 260.515 C 296.395 251.207,308.548 247.622,309.000 246.948 C 309.275 246.537,314.225 244.824,320.000 243.141 C 335.366 238.661,380.941 223.293,382.367 222.111 C 383.039 221.553,387.169 219.780,391.544 218.170 L 399.500 215.244 399.761 172.475 L 400.022 129.707 387.261 130.404 C 365.401 131.599,335.920 134.196,261.500 141.484 C 242.250 143.369,219.975 145.457,212.000 146.123 C 204.025 146.790,197.275 147.641,197.000 148.014 C 196.144 149.177,152.320 152.012,135.500 151.994 C 101.686 151.957,94.413 142.972,116.806 128.903 C 120.488 126.589,123.725 124.397,124.000 124.030 C 125.648 121.832,152.526 111.097,174.460 103.877 C 181.037 101.712,186.662 99.558,186.960 99.092 C 187.257 98.625,189.975 97.512,193.000 96.618 C 219.481 88.792,228.613 86.288,250.000 80.990 C 263.475 77.652,275.400 74.526,276.500 74.044 C 282.930 71.225,347.255 59.086,385.500 53.474 C 391.550 52.586,397.288 51.636,398.250 51.363 C 399.791 50.925,400.000 49.441,400.000 38.933 L 400.000 27.000 390.750 27.118 C 385.663 27.183,379.250 27.667,376.500 28.193 " stroke="none" fill-rule="evenodd"></path>
</g>
</svg>