<svg version="1.1" width="515" height="515" xmlns="http://www.w3.org/2000/svg">
<g>
<path d="M325.250 212.662 C 322.682 213.699,323.529 283.677,326.126 285.068 C 327.670 285.894,328.904 285.909,330.626 285.124 L 333.000 284.043 333.000 248.628 C 333.000 209.435,333.020 209.527,325.250 212.662 M445.751 212.689 C 441.776 213.728,442.214 220.857,446.376 222.851 C 452.108 225.599,457.983 219.676,454.619 214.541 C 452.987 212.051,450.323 211.494,445.751 212.689 M17.218 223.663 C 9.816 227.311,9.532 228.496,9.227 257.000 C 8.831 294.061,7.818 292.991,43.282 292.996 C 79.344 293.002,78.144 294.029,79.303 262.181 C 80.767 221.975,80.789 221.999,43.000 222.028 C 24.317 222.043,19.943 222.320,17.218 223.663 M108.759 230.423 C 89.232 237.392,92.383 256.192,114.000 261.686 C 125.647 264.646,127.700 266.812,124.579 272.847 C 121.864 278.097,113.648 278.415,106.476 273.548 C 97.580 267.511,89.645 274.971,98.250 281.282 C 111.471 290.978,133.216 285.560,135.379 272.031 C 137.011 261.822,132.564 256.495,119.500 253.010 C 107.109 249.705,105.395 248.005,108.465 242.068 C 110.908 237.344,118.295 236.940,124.074 241.213 C 127.955 244.082,131.217 243.257,132.402 239.108 C 134.531 231.652,120.134 226.363,108.759 230.423 M205.297 229.991 C 192.990 232.594,193.000 232.570,193.000 259.500 C 193.000 283.791,193.403 286.000,197.829 286.000 C 202.326 286.000,203.000 282.887,203.000 262.115 L 203.000 242.230 205.465 240.615 C 209.961 237.669,218.036 238.525,221.000 242.262 C 223.433 245.329,223.508 245.913,223.814 263.932 C 224.150 283.695,224.476 285.000,229.087 285.000 C 233.543 285.000,234.000 282.866,234.000 262.044 L 234.000 242.957 236.500 241.818 C 237.875 241.192,239.000 240.301,239.000 239.839 C 239.000 239.378,241.363 239.025,244.250 239.055 C 253.537 239.153,254.431 241.274,254.810 264.106 C 255.163 285.468,256.069 288.159,261.818 284.926 L 264.500 283.418 264.500 261.959 C 264.500 242.273,264.335 240.226,262.500 237.181 C 257.718 229.246,244.979 226.574,234.595 231.328 L 228.959 233.908 225.447 231.836 C 221.434 229.469,211.896 228.595,205.297 229.991 M285.000 230.314 C 265.361 236.538,264.285 273.427,283.439 283.802 C 291.091 287.947,307.380 284.765,312.767 278.073 C 320.103 268.959,319.474 242.700,311.744 235.420 C 305.927 229.942,293.599 227.588,285.000 230.314 M354.205 230.130 C 335.675 235.473,332.857 271.598,350.137 282.281 C 368.654 293.729,386.503 281.308,386.465 257.000 C 386.432 235.130,373.686 224.513,354.205 230.130 M403.000 230.535 C 393.939 234.614,390.529 241.988,390.524 257.514 C 390.518 279.121,403.132 289.107,422.848 283.103 C 426.150 282.098,426.187 282.121,425.524 284.792 C 423.755 291.918,417.596 294.539,404.946 293.550 C 395.376 292.801,392.944 294.096,394.530 299.095 C 396.029 303.818,415.590 304.801,424.599 300.606 C 435.073 295.729,436.187 291.690,435.799 260.000 L 435.500 235.500 429.596 232.551 C 422.276 228.894,408.898 227.880,403.000 230.535 M474.137 230.369 C 456.474 236.761,453.990 272.293,470.493 282.500 C 483.165 290.338,502.661 284.029,504.705 271.428 C 505.753 264.970,498.574 262.062,495.626 267.750 C 492.351 274.071,478.000 280.104,478.000 275.161 C 478.000 274.699,476.946 273.841,475.658 273.254 C 470.452 270.882,467.693 253.335,471.405 246.200 C 476.864 235.706,489.917 236.177,495.344 247.064 C 498.293 252.978,505.848 249.335,504.586 242.607 C 502.655 232.313,486.598 225.860,474.137 230.369 M140.714 230.619 C 139.496 231.837,139.893 268.910,141.169 273.171 C 144.540 284.421,159.992 288.970,176.145 283.466 C 185.183 280.387,185.000 280.957,185.000 255.895 C 185.000 232.081,184.611 230.000,180.165 230.000 C 175.210 230.000,175.000 230.900,175.000 252.101 L 175.000 271.802 171.443 273.901 C 166.392 276.881,157.947 276.806,154.416 273.750 C 149.852 269.800,149.525 268.303,149.002 249.000 L 148.500 230.500 144.964 230.202 C 143.020 230.039,141.107 230.226,140.714 230.619 M445.750 231.080 C 443.896 232.160,442.994 280.870,444.775 283.671 C 446.299 286.065,450.709 286.291,452.913 284.087 C 455.282 281.718,456.202 236.114,453.965 231.934 C 452.830 229.814,448.667 229.381,445.750 231.080 M301.742 242.250 C 315.367 256.375,301.922 284.835,286.862 273.750 C 281.300 269.656,278.508 253.718,282.122 246.684 C 286.513 238.137,295.760 236.047,301.742 242.250 M370.742 242.250 C 384.740 256.762,369.812 286.381,355.218 273.052 C 347.839 266.313,347.620 249.459,354.809 241.750 C 358.756 237.518,366.410 237.758,370.742 242.250 M421.000 239.892 C 421.000 240.382,422.125 241.066,423.500 241.411 L 426.000 242.038 426.000 256.570 L 426.000 271.102 422.532 272.551 C 416.780 274.954,407.381 274.472,404.537 271.628 C 398.624 265.715,398.489 248.178,404.315 242.885 C 405.517 241.793,406.950 240.495,407.500 240.000 C 408.804 238.827,421.000 238.729,421.000 239.892 M47.000 248.009 L 47.500 254.500 53.500 254.815 C 62.939 255.310,64.480 259.893,55.281 260.115 C 52.652 260.179,49.825 260.291,49.000 260.365 C 47.877 260.466,47.425 262.068,47.203 266.740 C 46.675 277.816,41.378 277.589,40.806 266.465 L 40.500 260.500 33.840 260.206 C 23.164 259.736,23.317 255.306,34.026 254.804 L 40.500 254.500 41.011 249.000 C 42.003 238.305,46.199 237.611,47.000 248.009 " stroke="none" fill-rule="evenodd"></path>
</g>
</svg>