<svg version="1.1" width="400" height="400" xmlns="http://www.w3.org/2000/svg"><g><path d="M244.582 21.144 C 245.039 21.890,248.505 27.225,252.285 33.000 C 288.517 88.363,300.262 160.337,280.669 206.935 L 279.339 210.098 261.420 198.187 C 209.873 163.924,152.400 117.090,101.557 67.919 L 85.613 52.500 92.057 61.979 C 115.336 96.227,159.620 151.917,189.413 184.411 L 198.500 194.322 189.500 188.542 C 151.062 163.856,94.193 121.046,56.623 88.515 C 40.751 74.772,38.131 72.710,39.448 75.000 C 42.143 79.687,52.023 93.337,56.458 98.500 C 59.292 101.800,66.057 110.125,71.491 117.000 C 118.589 176.594,169.141 229.330,213.443 265.083 C 226.630 275.726,226.540 274.704,214.818 280.592 C 156.548 309.856,71.685 298.533,8.280 253.034 L 0.060 247.135 2.689 251.318 C 66.126 352.260,199.326 399.463,292.494 354.019 C 335.888 332.852,366.625 337.108,386.238 367.000 C 391.875 375.591,392.970 376.047,394.641 370.500 C 401.178 348.804,389.285 305.494,369.049 277.300 L 363.164 269.100 364.661 263.368 C 385.774 182.518,339.976 84.348,254.341 26.894 C 248.517 22.986,244.125 20.398,244.582 21.144 " stroke="none" fill-rule="evenodd"></path></g></svg>