<svg width="100%" height="100%" viewBox="0 0 400 400" version="1.1" xmlns="http://www.w3.org/2000/svg" style="fill-rule:evenodd;clip-rule:evenodd;stroke-linejoin:round;stroke-miterlimit:2;">
<g>
<path d="M190,32C188.016,37.662 184.633,47.317 190,50C200.733,55.367 217.515,58.485 226,50C234.485,41.515 234.485,22.485 226,14C217.515,5.515 200.733,8.633 190,14C184.633,16.683 188.016,26.338 190,32M223,97.547C224.633,102.815 226.93,110.223 223,114.093C215.16,121.813 197.326,105.293 189.997,113.5C185.829,118.167 189.998,126.015 189.999,132.273C189.999,138.53 185.605,146.591 190,151.045C194.273,155.376 202.167,150.864 208.25,150.773C230.264,150.444 216.895,136.801 226.5,116.999C228.864,112.125 237.333,116.999 242.75,116.999C252.304,116.999 300.42,122.42 259,81C250.515,72.515 233.903,75.988 223,81C217.988,83.304 221.169,92.344 223,97.547M155.75,181.689C153.977,182.153 153.289,184.407 152,185.71C148.037,189.715 143.989,193.623 140.092,197.686C128.243,210.041 115.818,221.892 103.71,234C99.826,237.884 95.822,241.655 92.092,245.686C91.268,246.576 89.628,247.13 89.606,248.342C88.794,293.36 85.822,338.552 89.607,383.418C89.931,387.265 97.253,384.652 101.112,384.742C119.939,385.18 138.775,385 157.607,385L225,385L293,317L293,182.038L290.75,181.49C289.512,181.188 273.65,181.067 255.5,181.221L222.5,181.5L222.5,217.5L255,218.05L255,315L226.05,315L225.5,282.5L208.83,282C203.012,281.826 197.194,281.43 191.413,280.75C191.128,280.717 191.801,280.285 191.833,280C192.366,275.317 193.141,270.63 193.1,265.916C193.054,260.729 193.303,255.319 191.571,250.429C191.07,249.014 188.709,249.422 187.214,249.296C183.013,248.943 178.786,249 174.571,249L159,249L159,218L175,218C179.564,218 191.177,221.183 192,213.5C192.573,208.148 193,202.765 193,197.382C193,192.41 192.643,187.43 192,182.5C191.256,176.803 180.566,181.163 174.822,181.103C168.462,181.036 161.904,180.081 155.75,181.689M189,300C190.653,304.719 193.472,312.764 189,315C180.056,319.472 166.071,322.071 159,315C151.929,307.929 151.929,292.071 159,285C166.071,277.929 180.056,280.528 189,285C193.472,287.236 190.653,295.281 189,300"/>
</g>
</svg>
