<svg version="1.1" width="515" height="515" xmlns="http://www.w3.org/2000/svg">
<g>
<path d="M273.000 198.877 L 265.500 201.650 265.500 248.075 C 265.500 305.058,265.245 304.133,281.141 304.855 C 296.729 305.563,303.333 303.094,298.803 298.252 C 297.387 296.738,295.512 294.079,294.636 292.342 C 293.149 289.392,292.773 289.221,288.921 289.737 C 282.890 290.546,283.032 291.703,283.015 241.750 C 283.003 205.797,282.732 196.011,281.750 196.052 C 281.063 196.081,277.125 197.352,273.000 198.877 M500.250 198.765 L 493.000 201.315 493.000 215.730 L 493.000 230.144 487.436 229.449 C 462.960 226.391,444.500 243.610,444.500 269.500 C 444.500 298.723,466.213 314.665,488.718 301.964 C 495.100 298.362,494.581 298.360,495.850 302.000 C 496.893 304.991,496.919 305.000,504.781 305.000 C 514.136 305.000,514.307 304.888,512.165 300.168 C 510.697 296.933,510.464 290.562,510.191 246.250 C 509.957 208.138,509.595 196.026,508.691 196.107 C 508.036 196.166,504.238 197.362,500.250 198.765 M3.852 209.426 C 1.361 214.893,6.681 220.736,11.373 217.686 C 13.267 216.455,14.222 216.644,20.088 219.402 C 23.712 221.106,29.562 223.815,33.088 225.423 C 36.615 227.031,45.066 230.969,51.869 234.173 C 58.673 237.378,64.375 240.000,64.542 240.000 C 64.709 240.000,69.640 242.250,75.500 245.000 C 81.360 247.750,86.570 250.000,87.077 250.000 C 88.277 250.000,88.241 251.010,86.902 254.851 L 85.804 258.000 69.509 258.000 C 55.906 258.000,53.118 257.751,52.635 256.491 C 50.655 251.331,42.000 253.408,42.000 259.044 C 42.000 264.881,49.364 267.426,52.000 262.500 L 53.338 260.000 69.571 260.000 L 85.804 260.000 86.902 263.149 C 88.431 267.534,88.448 267.494,84.118 269.447 C 80.979 270.862,79.814 270.971,78.025 270.013 C 73.189 267.425,68.031 272.004,69.444 277.631 C 70.607 282.266,79.336 281.494,80.552 276.649 C 81.897 271.289,88.945 269.902,92.173 274.362 C 93.820 276.637,93.665 276.900,82.338 291.087 C 76.008 299.014,70.594 306.063,70.307 306.750 C 70.021 307.438,68.597 308.014,67.143 308.032 C 60.954 308.106,58.501 315.317,63.541 318.619 C 67.944 321.504,73.624 316.676,71.707 311.678 C 71.201 310.361,78.039 301.090,93.682 281.880 C 95.433 279.731,97.143 278.423,97.483 278.973 C 100.967 284.609,118.758 282.909,125.357 276.309 C 144.050 257.616,121.073 224.751,99.083 238.728 C 96.873 240.134,96.555 240.112,95.356 238.472 C 94.635 237.487,93.023 235.515,91.773 234.090 C 85.817 227.303,82.632 222.623,83.721 222.260 C 86.313 221.396,82.323 214.000,79.265 214.000 C 71.413 214.000,70.057 224.844,77.834 225.455 C 80.369 225.655,82.090 227.150,87.504 233.855 L 94.090 242.013 91.295 244.935 L 88.500 247.857 84.500 245.968 C 79.148 243.442,62.603 235.775,57.000 233.226 C 22.318 217.441,15.000 213.741,15.000 211.990 C 15.000 207.118,5.861 205.017,3.852 209.426 M158.500 212.199 C 155.200 213.303,151.938 214.371,151.250 214.572 C 149.303 215.141,149.460 290.471,151.418 295.128 C 155.761 305.455,171.825 309.152,185.694 303.017 L 190.080 301.077 188.040 297.078 C 186.918 294.879,186.000 292.237,186.000 291.207 C 186.000 288.211,185.094 288.031,180.325 290.075 C 168.598 295.102,167.578 293.265,167.195 266.436 L 166.890 245.077 176.060 244.788 L 185.230 244.500 187.100 238.500 C 188.129 235.200,188.977 232.162,188.985 231.750 C 188.993 231.338,184.050 231.000,178.000 231.000 L 167.000 231.000 167.000 220.500 C 167.000 208.664,167.527 209.179,158.500 212.199 M215.575 230.563 C 211.766 231.320,207.198 232.627,205.423 233.469 C 203.649 234.311,201.758 235.000,201.221 235.000 C 197.265 235.000,197.941 238.707,203.628 248.186 C 203.854 248.564,206.618 247.716,209.770 246.303 C 223.405 240.188,237.000 244.354,237.000 254.648 C 237.000 258.643,236.547 258.785,222.370 259.238 C 203.336 259.845,194.464 267.210,194.542 282.336 C 194.648 303.067,215.549 313.148,234.120 301.424 C 238.325 298.770,239.534 298.985,240.164 302.500 C 240.473 304.224,258.053 306.482,257.989 304.789 C 257.983 304.630,257.308 302.291,256.489 299.591 C 255.393 295.977,255.000 289.627,255.000 275.525 C 255.000 241.581,252.074 234.924,235.233 230.560 C 228.124 228.718,224.863 228.719,215.575 230.563 M323.000 230.466 C 289.101 240.165,290.491 297.617,324.799 304.878 C 336.472 307.349,354.146 304.585,359.905 299.389 C 360.128 299.188,359.236 296.318,357.922 293.012 C 355.605 287.177,354.423 286.066,352.450 287.867 C 341.709 297.670,319.184 290.059,316.589 275.750 L 315.909 272.000 338.955 272.000 L 362.000 272.000 362.000 266.081 C 362.000 240.818,344.064 224.440,323.000 230.466 M403.603 230.704 C 398.900 232.140,394.641 234.223,389.436 237.634 L 387.000 239.230 387.000 235.115 L 387.000 231.000 379.000 231.000 L 371.000 231.000 371.000 268.000 L 371.000 305.000 379.500 305.000 L 388.000 305.000 388.000 279.214 L 388.000 253.428 393.560 249.766 C 403.097 243.485,412.202 243.741,415.756 250.391 C 417.147 252.994,417.483 257.694,417.818 279.250 L 418.218 305.000 426.609 305.000 L 435.000 305.000 435.000 277.904 C 435.000 246.197,434.277 241.929,427.869 235.788 C 421.453 229.639,412.933 227.854,403.603 230.704 M337.737 245.613 C 340.477 247.348,344.000 254.012,344.000 257.460 L 344.000 260.000 329.921 260.000 L 315.841 260.000 316.541 256.750 C 319.036 245.162,328.867 239.997,337.737 245.613 M490.750 244.630 C 493.870 245.466,494.331 284.211,491.250 286.685 C 480.148 295.603,467.724 292.365,462.650 279.230 C 455.215 259.985,471.808 239.554,490.750 244.630 M237.000 278.278 C 237.000 286.309,236.529 287.082,229.703 290.250 C 219.171 295.138,208.073 287.482,211.988 278.029 C 214.196 272.699,217.717 271.289,229.250 271.116 L 237.000 271.000 237.000 278.278 " stroke="none" fill-rule="evenodd"></path>
</g>
</svg>