<svg xmlns="http://www.w3.org/2000/svg" width="400" height="400" viewBox="0, 0, 400,400"><g><path d="M198.500 18.341 C 195.658 19.157,193.333 19.736,193.333 19.629 C 193.333 19.521,190.858 20.666,187.833 22.172 C 184.808 23.677,182.108 24.855,181.833 24.788 C 181.558 24.721,181.333 24.967,181.333 25.333 C 181.333 25.700,180.883 26.000,180.333 26.000 C 179.783 26.000,179.333 26.259,179.333 26.576 C 179.333 26.893,178.079 28.018,176.545 29.076 C 173.076 31.469,168.485 36.319,165.027 41.242 C 163.576 43.309,162.202 45.150,161.975 45.333 C 161.306 45.874,156.667 57.054,156.667 58.127 C 156.667 58.668,156.458 59.320,156.203 59.575 C 155.639 60.139,155.546 60.657,154.557 68.754 C 153.951 73.718,153.956 76.517,154.578 81.088 C 155.021 84.339,155.422 87.300,155.469 87.667 C 155.525 88.103,165.353 88.271,183.853 88.152 L 212.151 87.972 215.647 89.572 C 223.532 93.182,224.667 96.592,224.667 116.685 C 224.667 127.182,224.897 132.603,225.331 132.335 C 225.696 132.109,226.559 131.816,227.248 131.683 C 235.882 130.020,249.540 121.348,256.671 113.000 C 258.238 111.167,259.777 109.567,260.093 109.444 C 260.408 109.322,260.667 108.969,260.667 108.659 C 260.667 108.349,261.704 106.349,262.972 104.214 C 270.663 91.270,272.958 72.644,268.569 58.794 C 268.185 57.580,267.804 56.230,267.722 55.794 C 267.640 55.357,266.635 52.968,265.488 50.484 C 264.341 48.001,263.329 45.751,263.239 45.484 C 263.149 45.218,262.533 44.418,261.871 43.708 C 261.208 42.997,260.667 42.047,260.667 41.597 C 260.667 41.146,260.403 40.678,260.082 40.556 C 259.760 40.433,258.185 38.800,256.582 36.925 C 254.036 33.949,252.146 32.187,245.573 26.668 C 244.789 26.009,243.514 25.269,242.740 25.023 C 241.966 24.778,241.333 24.297,241.333 23.955 C 241.333 23.613,241.108 23.397,240.833 23.475 C 240.558 23.553,239.583 23.192,238.667 22.674 C 237.750 22.155,236.700 21.648,236.333 21.546 C 235.967 21.444,233.417 20.571,230.667 19.606 C 221.630 16.434,207.133 15.864,198.500 18.341 M332.667 51.047 C 298.906 59.882,288.458 102.809,314.303 126.491 C 342.007 151.877,387.279 132.002,387.552 94.333 C 387.764 65.074,360.682 43.715,332.667 51.047 M8.737 101.757 C 4.895 103.671,1.767 107.344,0.631 111.274 C 0.164 112.888,0.003 142.202,0.136 201.386 L 0.333 289.105 2.351 292.368 C 3.601 294.391,5.609 296.399,7.632 297.649 L 10.895 299.667 98.281 299.856 C 196.373 300.069,189.679 300.403,195.023 295.037 C 200.325 289.711,200.000 295.306,200.000 209.472 C 200.000 136.978,200.064 132.748,201.167 132.460 C 202.278 132.169,202.278 132.151,201.167 132.077 C 200.113 132.007,200.000 131.065,200.000 122.312 C 200.000 111.377,199.576 109.752,195.565 105.303 C 190.386 99.560,198.911 100.031,99.964 100.015 L 12.262 100.000 8.737 101.757 M149.333 149.667 L 149.333 162.000 130.667 162.000 L 112.000 162.000 112.000 212.333 L 112.000 262.667 100.000 262.667 L 88.000 262.667 88.000 212.333 L 88.000 162.000 69.333 162.000 L 50.667 162.000 50.667 149.667 L 50.667 137.333 100.000 137.333 L 149.333 137.333 149.333 149.667 M224.637 230.833 C 224.614 296.617,224.442 312.132,223.715 314.168 C 222.345 318.008,219.690 321.039,216.185 322.765 L 213.000 324.333 166.683 324.518 L 120.366 324.702 119.179 323.184 C 118.030 321.715,118.026 321.751,119.062 324.333 C 120.426 327.733,125.152 337.166,126.012 338.207 C 127.443 339.940,134.000 349.437,134.000 349.778 C 134.000 349.978,134.750 350.731,135.667 351.452 C 136.583 352.173,137.358 353.117,137.389 353.548 C 137.419 353.980,140.302 356.883,143.796 360.000 C 147.289 363.117,150.877 366.342,151.770 367.167 C 152.663 367.992,153.680 368.667,154.030 368.667 C 154.380 368.667,154.669 368.892,154.672 369.167 C 154.675 369.442,155.350 370.002,156.172 370.412 C 156.994 370.822,160.061 372.548,162.987 374.247 C 167.610 376.932,170.839 378.442,179.756 382.089 C 180.807 382.519,182.267 382.978,183.000 383.110 C 183.733 383.241,184.783 383.541,185.333 383.775 C 186.607 384.318,186.597 384.316,193.333 385.638 C 217.568 390.396,244.324 385.592,264.493 372.861 C 267.705 370.834,270.930 368.836,271.659 368.421 C 272.387 368.006,273.379 367.142,273.863 366.500 C 274.347 365.858,274.995 365.333,275.304 365.333 C 275.614 365.333,276.886 364.358,278.132 363.167 C 279.378 361.975,281.394 360.171,282.612 359.157 C 283.829 358.144,285.658 356.194,286.675 354.824 C 287.692 353.454,289.456 351.340,290.596 350.126 C 291.735 348.911,292.667 347.708,292.667 347.452 C 292.667 347.196,293.417 346.178,294.333 345.189 C 295.250 344.200,296.000 343.250,296.000 343.077 C 296.000 342.468,300.985 334.331,301.494 334.110 C 301.777 333.987,301.854 333.636,301.665 333.330 C 301.476 333.024,301.720 332.375,302.208 331.887 C 302.696 331.399,303.086 330.850,303.074 330.667 C 303.062 330.483,304.303 327.183,305.831 323.333 C 312.683 306.067,312.658 306.407,312.663 230.285 C 312.667 156.755,313.083 162.210,306.945 155.331 C 304.959 153.104,303.333 151.429,303.333 151.607 C 303.333 151.786,302.293 151.497,301.021 150.966 C 299.097 150.162,292.508 150.000,261.688 150.000 L 224.667 150.000 224.637 230.833 M308.170 151.964 C 316.445 157.212,316.102 153.542,315.831 234.000 C 315.583 307.762,315.331 312.987,311.814 317.225 C 310.746 318.511,312.208 319.452,318.514 321.536 C 349.392 331.741,384.187 315.175,395.954 284.667 C 400.022 274.120,400.000 274.485,400.000 216.492 L 400.000 163.595 398.289 160.161 C 396.350 156.270,393.023 153.068,389.044 151.260 C 386.505 150.107,383.766 150.028,345.703 150.015 L 305.072 150.000 308.170 151.964 " stroke="none" fill-rule="evenodd"></path></g></svg>