<svg id="svg" xmlns="http://www.w3.org/2000/svg" xmlns:xlink="http://www.w3.org/1999/xlink" width="400" height="400" viewBox="0, 0, 400,400"><g id="svgg"><path id="path0" d="M15.999 1.404 C 10.979 3.144,7.466 5.663,4.662 9.534 C -0.378 16.492,-0.033 1.735,0.189 201.198 L 0.391 382.422 2.036 385.977 C 4.441 391.175,8.111 394.960,13.139 397.430 L 17.578 399.609 200.000 399.609 L 382.422 399.609 386.861 397.430 C 391.889 394.960,395.559 391.175,397.964 385.977 L 399.609 382.422 399.609 199.609 L 399.609 16.797 397.847 13.498 C 395.082 8.325,391.673 4.934,386.861 2.570 L 382.422 0.391 201.172 0.217 C 30.689 0.054,19.689 0.125,15.999 1.404 M215.234 35.965 C 354.206 49.029,414.883 218.903,315.683 317.188 C 232.471 399.634,90.969 370.393,47.259 261.719 C 1.308 147.475,92.840 24.460,215.234 35.965 M138.893 154.909 C 127.843 160.588,103.334 172.969,84.429 182.422 C 65.525 191.875,50.056 199.785,50.054 200.000 C 50.052 200.215,51.182 200.926,52.565 201.580 C 53.947 202.234,78.896 214.787,108.008 229.474 C 137.119 244.161,160.934 256.106,160.929 256.018 C 160.924 255.931,157.639 247.949,153.629 238.281 L 146.337 220.703 200.247 220.502 C 229.897 220.392,254.278 220.424,254.427 220.573 C 254.576 220.722,251.532 228.509,247.662 237.878 C 243.791 247.246,240.625 255.152,240.625 255.446 C 240.625 255.740,265.403 243.473,295.687 228.186 C 325.971 212.898,350.747 200.215,350.746 200.000 C 350.741 199.408,241.324 144.353,240.932 144.745 C 240.745 144.932,243.763 152.747,247.639 162.112 C 251.516 171.476,254.688 179.262,254.688 179.413 C 254.688 179.564,230.281 179.688,200.451 179.688 L 146.215 179.688 151.941 165.706 C 155.091 158.016,158.384 150.106,159.259 148.128 C 161.416 143.252,161.872 143.100,138.893 154.909 " stroke="none" fill="#000000" fill-rule="evenodd"></path></g></svg>