<?xml version="1.0" encoding="UTF-8" standalone="no"?>
<!DOCTYPE svg PUBLIC "-//W3C//DTD SVG 1.1//EN" "http://www.w3.org/Graphics/SVG/1.1/DTD/svg11.dtd">
<svg width="100%" height="100%" viewBox="0 0 400 400" version="1.1" xmlns="http://www.w3.org/2000/svg" xmlns:xlink="http://www.w3.org/1999/xlink" xml:space="preserve" xmlns:serif="http://www.serif.com/" style="fill-rule:evenodd;clip-rule:evenodd;stroke-linejoin:round;stroke-miterlimit:2;">
    <g id="svgg">
        <path id="path0" d="M243,55L235,57C229.574,58.447 224.985,60.507 220,63C205.916,70.042 196.238,80.819 188,94C179.931,106.911 178,122.092 178,137C178,149.114 178.874,160.654 183,172C184.973,177.426 188.152,181.558 191.643,185.554C196.641,191.274 195.146,192.197 200.622,197.55C217.5,214.049 236.541,220 260,220C270.013,220 279.42,219.413 289,217C297.378,214.89 303.923,210.684 311,206C314.461,203.71 317.343,202.872 319.989,199.178C321.934,196.464 325.162,193.839 325,190.503C324.818,186.76 321.533,183.784 319.104,180.93C317.48,179.02 308.445,169.672 303.994,169.35C300.493,169.096 301.064,170.271 298.483,172.619C294.455,176.284 286.147,181.219 281,183C265.054,188.519 249.755,186.844 236,178C233.763,176.562 229.094,174.52 227.33,172.407C225.788,170.559 225.26,168.051 224,166C221.301,161.606 217.656,156.248 217,151C215.129,136.034 216.102,117.437 226.214,104.773C231.086,98.671 238.648,95.97 245,92C249.922,88.923 255.681,87 262,87C272.792,87 282.421,92.438 291.32,98C294.061,99.713 298.929,103.138 301.933,104.055C304.221,104.753 305.474,103.145 307,102C312.364,97.976 316.937,91.343 321,86C322.455,84.087 325,82.404 325,80C325,78.768 317.966,70.124 317,69.078C314.841,66.74 310.549,65.424 307.811,64C299.244,59.546 290.852,55.823 281,55C274.68,54.472 268.342,54 262,54C255.658,54 243,48.658 243,55M41,72.5L41,89L89,89L89,218L127,218L127,89L176,89L176,56L41,56L41,72.5M41,333.5L41,346L188,346L188,321L41,321L41,333.5"/>
    </g>
</svg>
