<svg id="svg" version="1.1" width="400" height="400" xmlns="http://www.w3.org/2000/svg" xmlns:xlink="http://www.w3.org/1999/xlink" style="display: block;"><g id="svgg"><path id="path0" d="M243.000 55.000 C 243.000 55.550,241.200 56.000,239.000 56.000 C 236.800 56.000,235.000 56.450,235.000 57.000 C 235.000 57.550,233.425 58.000,231.500 58.000 C 229.575 58.000,228.000 58.450,228.000 59.000 C 228.000 59.550,227.100 60.000,226.000 60.000 C 224.900 60.000,224.000 60.450,224.000 61.000 C 224.000 61.550,223.100 62.000,222.000 62.000 C 220.900 62.000,220.000 62.450,220.000 63.000 C 220.000 63.550,219.100 64.000,218.000 64.000 C 216.900 64.000,216.000 64.450,216.000 65.000 C 216.000 65.550,215.271 66.000,214.380 66.000 C 213.489 66.000,210.820 68.025,208.448 70.500 C 206.077 72.975,203.624 75.000,202.997 75.000 C 201.521 75.000,199.000 77.527,199.000 79.007 C 199.000 79.639,197.200 81.886,195.000 84.000 C 192.800 86.114,191.000 88.778,191.000 89.922 C 191.000 91.102,190.352 92.000,189.500 92.000 C 188.667 92.000,188.000 92.889,188.000 94.000 C 188.000 95.100,187.550 96.000,187.000 96.000 C 186.450 96.000,186.000 96.900,186.000 98.000 C 186.000 99.100,185.550 100.000,185.000 100.000 C 184.450 100.000,184.000 100.900,184.000 102.000 C 184.000 103.100,183.550 104.000,183.000 104.000 C 182.450 104.000,182.000 105.575,182.000 107.500 C 182.000 109.425,181.550 111.000,181.000 111.000 C 180.450 111.000,180.000 112.350,180.000 114.000 C 180.000 115.650,179.550 117.000,179.000 117.000 C 178.367 117.000,178.000 124.333,178.000 137.000 C 178.000 149.667,178.367 157.000,179.000 157.000 C 179.550 157.000,180.000 158.800,180.000 161.000 C 180.000 163.200,180.450 165.000,181.000 165.000 C 181.550 165.000,182.000 166.575,182.000 168.500 C 182.000 170.425,182.450 172.000,183.000 172.000 C 183.550 172.000,184.000 172.900,184.000 174.000 C 184.000 175.100,184.450 176.000,185.000 176.000 C 185.550 176.000,186.000 176.900,186.000 178.000 C 186.000 179.100,186.450 180.000,187.000 180.000 C 187.550 180.000,188.000 180.900,188.000 182.000 C 188.000 183.100,188.482 184.000,189.071 184.000 C 190.690 184.000,193.000 186.644,193.000 188.497 C 193.000 190.633,207.697 205.000,209.882 205.000 C 210.804 205.000,212.207 205.900,213.000 207.000 C 213.793 208.100,215.242 209.000,216.221 209.000 C 217.199 209.000,218.000 209.675,218.000 210.500 C 218.000 211.333,218.889 212.000,220.000 212.000 C 221.100 212.000,222.000 212.450,222.000 213.000 C 222.000 213.550,222.900 214.000,224.000 214.000 C 225.100 214.000,226.000 214.450,226.000 215.000 C 226.000 215.550,227.575 216.000,229.500 216.000 C 231.425 216.000,233.000 216.450,233.000 217.000 C 233.000 217.550,234.800 218.000,237.000 218.000 C 239.200 218.000,241.000 218.450,241.000 219.000 C 241.000 219.632,248.000 220.000,260.000 220.000 C 272.000 220.000,279.000 219.632,279.000 219.000 C 279.000 218.450,281.250 218.000,284.000 218.000 C 286.750 218.000,289.000 217.550,289.000 217.000 C 289.000 216.450,290.323 216.000,291.941 216.000 C 293.559 216.000,295.160 215.550,295.500 215.000 C 295.840 214.450,296.991 214.000,298.059 214.000 C 299.127 214.000,300.000 213.550,300.000 213.000 C 300.000 212.450,300.900 212.000,302.000 212.000 C 303.111 212.000,304.000 211.333,304.000 210.500 C 304.000 209.667,304.889 209.000,306.000 209.000 C 307.100 209.000,308.000 208.550,308.000 208.000 C 308.000 207.450,308.675 207.000,309.500 207.000 C 310.325 207.000,311.000 206.550,311.000 206.000 C 311.000 205.450,311.685 205.000,312.522 205.000 C 315.797 205.000,325.000 194.308,325.000 190.503 C 325.000 186.979,313.958 174.000,310.960 174.000 C 310.367 174.000,310.160 173.550,310.500 173.000 C 310.840 172.450,310.416 172.000,309.559 172.000 C 308.702 172.000,307.997 171.438,307.994 170.750 C 307.991 169.985,306.440 169.442,303.994 169.350 C 301.797 169.267,300.000 169.637,300.000 170.171 C 300.000 171.594,297.356 174.000,295.792 174.000 C 295.049 174.000,293.793 174.900,293.000 176.000 C 292.207 177.100,290.632 178.000,289.500 178.000 C 288.368 178.000,286.793 178.900,286.000 180.000 C 285.207 181.100,283.758 182.000,282.779 182.000 C 281.801 182.000,281.000 182.450,281.000 183.000 C 281.000 183.550,279.200 184.000,277.000 184.000 C 274.800 184.000,273.000 184.450,273.000 185.000 C 273.000 185.611,268.333 186.000,261.000 186.000 C 253.667 186.000,249.000 185.611,249.000 185.000 C 249.000 184.450,247.749 184.000,246.221 184.000 C 244.589 184.000,242.847 183.174,242.000 182.000 C 241.207 180.900,239.857 180.000,239.000 180.000 C 238.143 180.000,236.793 179.100,236.000 178.000 C 235.207 176.900,233.758 176.000,232.779 176.000 C 231.801 176.000,231.000 175.550,231.000 175.000 C 231.000 174.450,230.518 174.000,229.929 174.000 C 228.236 174.000,226.000 171.321,226.000 169.292 C 226.000 168.274,225.100 166.793,224.000 166.000 C 222.900 165.207,222.000 163.758,222.000 162.779 C 222.000 161.801,221.550 161.000,221.000 161.000 C 220.450 161.000,220.000 160.100,220.000 159.000 C 220.000 157.900,219.550 157.000,219.000 157.000 C 218.450 157.000,218.000 155.650,218.000 154.000 C 218.000 152.350,217.550 151.000,217.000 151.000 C 216.385 151.000,216.000 146.000,216.000 138.000 C 216.000 130.000,216.385 125.000,217.000 125.000 C 217.550 125.000,218.000 123.650,218.000 122.000 C 218.000 120.350,218.450 119.000,219.000 119.000 C 219.550 119.000,220.000 118.100,220.000 117.000 C 220.000 115.900,220.450 115.000,221.000 115.000 C 221.550 115.000,222.000 114.100,222.000 113.000 C 222.000 111.900,222.450 111.000,223.000 111.000 C 223.550 111.000,224.000 110.080,224.000 108.955 C 224.000 107.075,228.053 102.000,229.553 102.000 C 229.908 102.000,231.459 100.650,233.000 99.000 C 234.541 97.350,236.522 96.000,237.401 96.000 C 238.281 96.000,239.000 95.550,239.000 95.000 C 239.000 94.450,239.900 94.000,241.000 94.000 C 242.100 94.000,243.000 93.550,243.000 93.000 C 243.000 92.450,243.900 92.000,245.000 92.000 C 246.111 92.000,247.000 91.333,247.000 90.500 C 247.000 89.389,248.167 89.000,251.500 89.000 C 253.975 89.000,256.000 88.550,256.000 88.000 C 256.000 87.444,258.667 87.000,262.000 87.000 C 265.333 87.000,268.000 87.444,268.000 88.000 C 268.000 88.550,270.025 89.000,272.500 89.000 C 275.833 89.000,277.000 89.389,277.000 90.500 C 277.000 91.500,278.000 92.000,280.000 92.000 C 281.650 92.000,283.000 92.450,283.000 93.000 C 283.000 93.550,283.801 94.000,284.779 94.000 C 285.758 94.000,287.207 94.900,288.000 96.000 C 288.793 97.100,290.287 98.000,291.320 98.000 C 292.352 98.000,294.459 99.350,296.000 101.000 C 299.424 104.665,304.731 105.148,307.000 102.000 C 307.793 100.900,309.017 100.000,309.721 100.000 C 310.424 100.000,311.000 99.281,311.000 98.401 C 311.000 97.522,312.350 95.541,314.000 94.000 C 315.650 92.459,317.000 90.893,317.000 90.520 C 317.000 90.148,318.800 88.114,321.000 86.000 C 323.242 83.846,325.000 81.209,325.000 80.000 C 325.000 78.791,323.242 76.154,321.000 74.000 C 318.800 71.886,317.000 69.672,317.000 69.078 C 317.000 68.485,316.306 68.000,315.458 68.000 C 314.610 68.000,312.950 67.100,311.770 66.000 C 310.589 64.900,308.808 64.000,307.811 64.000 C 306.815 64.000,306.000 63.550,306.000 63.000 C 306.000 62.450,305.100 62.000,304.000 62.000 C 302.900 62.000,302.000 61.550,302.000 61.000 C 302.000 60.450,301.100 60.000,300.000 60.000 C 298.900 60.000,298.000 59.550,298.000 59.000 C 298.000 58.450,296.677 58.000,295.059 58.000 C 293.441 58.000,291.840 57.550,291.500 57.000 C 291.160 56.450,288.659 56.000,285.941 56.000 C 283.223 56.000,281.000 55.550,281.000 55.000 C 281.000 54.368,274.000 54.000,262.000 54.000 C 250.000 54.000,243.000 54.368,243.000 55.000 M41.000 72.500 L 41.000 89.000 65.000 89.000 L 89.000 89.000 89.000 153.500 L 89.000 218.000 108.000 218.000 L 127.000 218.000 127.000 153.500 L 127.000 89.000 151.500 89.000 L 176.000 89.000 176.000 72.500 L 176.000 56.000 108.500 56.000 L 41.000 56.000 41.000 72.500 M41.000 333.500 L 41.000 346.000 114.500 346.000 L 188.000 346.000 188.000 333.500 L 188.000 321.000 114.500 321.000 L 41.000 321.000 41.000 333.500 " stroke="none" fill="#000000" fill-rule="evenodd"></path></g></svg>