<svg xmlns="http://www.w3.org/2000/svg" width="400" height="400" viewBox="0, 0, 400,400">
<g>
<path d="M183.452 6.210 C 182.151 6.433,177.258 7.087,172.577 7.665 C 33.515 24.826,-40.622 190.364,37.989 308.184 C 144.734 468.173,394.711 392.693,394.711 200.473 C 394.711 103.784,327.314 24.215,231.678 7.996 C 223.168 6.552,188.880 5.283,183.452 6.210 M297.841 114.877 C 304.788 118.470,304.114 129.064,292.208 203.310 C 272.223 327.932,276.493 323.885,211.348 279.939 C 157.576 243.665,158.413 249.872,201.805 209.198 C 242.908 170.669,247.282 165.788,243.511 162.658 C 240.966 160.546,237.929 162.346,189.384 194.737 C 130.022 234.346,131.328 233.796,109.220 228.439 C 59.896 216.486,55.796 208.998,90.350 193.975 C 261.132 119.724,287.658 109.612,297.841 114.877 " stroke="none" fill-rule="evenodd"></path>
</g>
</svg>