<svg version="1.1" width="400" height="400" xmlns="http://www.w3.org/2000/svg">
<g>
<path d="M211.962 66.398 C 208.408 68.167,203.596 70.826,201.270 72.307 C 198.943 73.788,196.581 75.000,196.020 75.000 C 195.459 75.000,195.000 75.366,195.000 75.813 C 195.000 76.261,193.425 77.245,191.500 78.000 C 189.575 78.755,188.000 79.687,188.000 80.070 C 188.000 80.453,187.213 81.035,186.250 81.364 C 185.287 81.692,181.800 83.552,178.500 85.498 C 175.200 87.443,171.375 89.581,170.000 90.247 C 168.625 90.914,167.275 91.693,167.000 91.980 C 166.725 92.266,164.700 93.449,162.500 94.609 C 154.577 98.786,151.571 100.518,150.381 101.593 C 149.715 102.195,147.670 103.294,145.835 104.037 C 144.001 104.779,142.275 105.637,142.000 105.943 C 141.364 106.652,137.846 108.651,131.500 111.912 C 128.750 113.324,125.628 115.272,124.561 116.240 C 123.495 117.208,122.139 118.000,121.548 118.000 C 120.957 118.000,118.229 119.498,115.487 121.328 C 112.744 123.158,109.150 125.344,107.500 126.185 C 101.547 129.219,95.482 132.515,94.501 133.250 C 93.951 133.662,90.350 135.618,86.500 137.596 C 82.650 139.575,77.626 142.366,75.336 143.798 L 71.171 146.402 71.704 167.451 C 72.301 191.002,71.711 189.284,81.000 194.556 C 98.299 204.373,106.469 209.289,107.125 210.275 C 107.811 211.305,114.000 210.275,114.000 209.131 C 114.000 208.740,117.262 206.646,121.250 204.478 C 125.237 202.309,129.850 199.737,131.500 198.761 C 133.150 197.786,135.625 196.433,137.000 195.755 C 138.375 195.078,140.095 193.956,140.821 193.262 C 141.548 192.568,142.561 192.000,143.071 192.000 C 143.633 192.000,144.000 216.102,144.000 252.932 L 144.000 313.864 146.904 315.932 C 148.502 317.069,150.107 318.000,150.471 318.000 C 150.835 318.000,152.608 319.125,154.411 320.500 C 156.214 321.875,157.993 323.000,158.366 323.000 C 159.330 323.000,167.433 328.350,167.833 329.250 C 168.017 329.662,168.638 330.000,169.214 330.000 C 169.790 330.000,172.453 331.575,175.133 333.500 C 180.707 337.505,182.154 337.726,185.846 335.141 C 187.306 334.118,190.188 332.492,192.250 331.527 C 194.312 330.562,196.000 329.373,196.000 328.886 C 196.000 328.399,196.408 328.000,196.906 328.000 C 198.040 328.000,214.887 318.231,217.231 316.214 C 218.752 314.905,218.994 312.186,219.231 293.729 L 219.500 272.733 228.500 267.299 C 233.450 264.311,238.547 261.444,239.826 260.929 C 241.105 260.414,244.037 258.756,246.342 257.246 C 248.647 255.736,251.426 254.001,252.516 253.392 C 254.378 252.352,254.517 251.031,254.783 231.892 C 255.118 207.804,255.108 207.749,250.261 205.471 C 248.192 204.499,246.275 203.433,246.000 203.102 C 245.441 202.429,243.886 201.515,229.263 193.271 L 219.026 187.500 219.013 169.250 C 219.004 156.763,219.343 151.000,220.088 151.000 C 221.158 151.000,234.026 157.852,235.000 158.941 C 235.275 159.249,237.750 160.656,240.500 162.068 C 248.274 166.061,258.263 171.612,263.622 174.916 C 266.305 176.570,270.300 178.803,272.500 179.878 C 274.700 180.953,279.174 183.445,282.441 185.416 C 290.013 189.984,290.581 189.946,300.349 184.229 C 304.832 181.604,311.200 178.117,314.500 176.479 C 317.800 174.840,320.725 173.225,321.000 172.890 C 321.275 172.554,322.962 171.530,324.750 170.614 L 328.000 168.949 328.000 146.997 C 328.000 125.325,327.971 125.028,325.750 123.611 C 322.480 121.526,311.221 115.325,306.000 112.734 C 303.525 111.505,301.275 110.266,301.000 109.980 C 300.725 109.693,299.375 108.886,298.000 108.185 C 295.446 106.883,290.996 104.351,283.000 99.652 C 280.525 98.197,275.575 95.364,272.000 93.357 C 268.425 91.350,257.625 85.222,248.000 79.739 C 238.375 74.256,227.783 68.288,224.462 66.476 L 218.424 63.183 211.962 66.398 " stroke="none" fill-rule="evenodd"></path>
</g>
</svg>