<svg id="svg" version="1.1" width="400" height="400" xmlns="http://www.w3.org/2000/svg" xmlns:xlink="http://www.w3.org/1999/xlink" style="display: block;"><g id="svgg"><path id="path0" d="M35.750 30.346 C 33.946 31.763,33.244 38.532,34.835 39.167 C 35.295 39.350,38.086 50.075,41.039 63.000 C 43.992 75.925,46.766 86.650,47.204 86.833 C 47.642 87.017,48.000 87.813,48.000 88.603 C 48.000 91.131,58.281 135.480,58.988 136.000 C 59.362 136.275,62.063 147.075,64.991 160.000 C 67.920 172.925,70.683 184.175,71.131 185.000 C 71.580 185.825,74.062 195.950,76.646 207.500 C 79.230 219.050,81.649 228.725,82.021 229.000 C 82.394 229.275,85.088 240.075,88.008 253.000 C 90.928 265.925,93.681 277.175,94.125 278.000 C 94.570 278.825,97.274 289.850,100.134 302.500 C 102.995 315.150,105.621 325.725,105.970 326.000 C 106.319 326.275,108.521 335.050,110.862 345.500 C 117.053 373.128,117.375 374.451,118.040 375.000 C 118.373 375.275,118.936 376.287,119.292 377.250 C 120.756 381.220,125.104 379.344,133.477 371.127 C 137.890 366.797,147.800 357.214,155.500 349.832 C 163.200 342.450,176.269 329.793,184.542 321.705 C 192.814 313.617,199.815 307.000,200.099 307.000 C 200.383 307.000,207.340 300.420,215.558 292.378 C 230.611 277.648,242.962 265.717,275.475 234.500 C 285.213 225.150,298.309 212.550,304.577 206.500 C 310.845 200.450,322.167 189.539,329.737 182.253 C 337.307 174.968,350.372 162.368,358.772 154.253 C 367.171 146.139,375.609 138.101,377.522 136.391 C 385.857 128.942,381.853 126.304,351.750 119.413 C 350.237 119.066,349.000 118.467,349.000 118.081 C 349.000 117.694,346.638 116.786,343.750 116.063 C 327.120 111.896,308.432 106.647,308.000 106.022 C 307.725 105.624,306.375 105.070,305.000 104.791 C 297.722 103.313,265.428 94.536,265.000 93.919 C 264.539 93.255,245.427 87.940,230.000 84.186 C 226.425 83.316,223.273 82.284,222.996 81.891 C 222.719 81.499,217.094 79.764,210.496 78.035 C 188.863 72.366,186.511 71.696,185.477 70.909 C 184.443 70.123,179.713 68.796,157.000 62.921 C 150.125 61.143,144.275 59.386,144.000 59.018 C 143.725 58.650,137.200 56.695,129.500 54.675 C 104.959 48.235,102.510 47.539,102.000 46.859 C 101.725 46.493,92.500 43.856,81.500 41.000 C 70.500 38.144,61.275 35.503,61.000 35.131 C 60.474 34.420,44.290 29.951,40.000 29.333 C 38.625 29.134,36.712 29.591,35.750 30.346 M56.315 43.661 C 61.917 45.124,66.725 46.616,67.000 46.977 C 67.275 47.337,71.100 48.616,75.500 49.818 C 95.323 55.234,106.146 58.000,107.517 58.000 C 108.333 58.000,109.000 58.398,109.000 58.883 C 109.000 59.369,110.013 60.034,111.250 60.362 C 113.258 60.893,112.155 62.263,101.000 73.092 C 94.125 79.767,82.787 90.798,75.804 97.606 C 68.821 104.414,62.926 109.650,62.703 109.242 C 62.480 108.834,61.705 105.575,60.981 102.000 C 60.256 98.425,59.385 95.275,59.044 95.000 C 58.704 94.725,56.027 83.925,53.094 71.000 C 50.162 58.075,47.431 47.050,47.026 46.500 C 46.086 45.225,45.036 41.000,45.658 41.000 C 45.918 41.000,50.713 42.197,56.315 43.661 M150.000 71.008 C 150.504 71.668,181.143 79.918,186.250 80.769 C 187.762 81.021,189.000 81.606,189.000 82.068 C 189.000 82.531,190.580 83.206,192.511 83.568 C 194.442 83.930,196.204 84.521,196.427 84.882 C 196.898 85.644,189.040 94.161,185.746 96.459 C 184.511 97.320,176.975 104.375,169.000 112.136 C 148.556 132.031,147.000 133.482,147.000 132.659 C 147.000 130.566,141.655 108.427,141.047 108.000 C 140.655 107.725,139.088 101.650,137.564 94.500 C 136.040 87.350,134.212 79.025,133.501 76.000 C 132.790 72.975,131.944 69.325,131.620 67.889 L 131.031 65.277 140.266 67.816 C 145.345 69.212,149.725 70.648,150.000 71.008 M124.888 83.750 C 126.726 92.412,128.560 99.725,128.964 100.000 C 129.369 100.275,131.484 108.401,133.665 118.058 L 137.630 135.616 127.565 132.844 C 122.029 131.319,116.750 130.055,115.833 130.035 C 114.917 130.016,114.017 129.589,113.833 129.086 C 113.650 128.583,105.175 126.028,95.000 123.406 C 84.825 120.785,76.275 118.351,76.000 117.997 C 75.725 117.643,74.633 117.033,73.573 116.641 C 71.426 115.845,72.870 114.175,89.971 97.674 C 94.630 93.178,103.388 84.662,109.433 78.750 C 115.478 72.838,120.677 68.000,120.986 68.000 C 121.295 68.000,123.051 75.088,124.888 83.750 M230.000 94.077 C 230.275 94.454,235.900 96.156,242.500 97.858 C 249.100 99.561,258.325 101.937,263.000 103.140 C 267.675 104.342,271.725 105.611,272.000 105.961 C 272.275 106.311,274.368 107.143,276.651 107.809 L 280.802 109.021 266.151 123.342 C 236.531 152.293,231.550 156.947,230.946 156.231 C 230.607 155.829,229.071 149.875,227.532 143.000 C 225.994 136.125,224.435 130.275,224.067 130.000 C 223.700 129.725,221.932 122.975,220.139 115.000 C 218.345 107.025,216.291 98.000,215.574 94.944 L 214.270 89.388 221.885 91.390 C 226.073 92.491,229.725 93.700,230.000 94.077 M208.091 107.000 C 209.918 114.975,211.698 121.725,212.045 122.000 C 212.793 122.591,221.054 158.279,220.558 158.775 C 220.050 159.283,198.580 153.669,198.000 152.876 C 197.725 152.500,188.550 149.869,177.611 147.028 C 153.895 140.871,153.669 140.723,159.357 135.140 C 161.677 132.863,163.784 130.995,164.038 130.990 C 164.418 130.981,193.043 103.595,202.000 94.671 C 203.375 93.301,204.560 92.252,204.634 92.340 C 204.708 92.428,206.263 99.025,208.091 107.000 M306.169 115.616 C 309.651 116.505,312.725 117.563,313.000 117.967 C 313.275 118.371,314.625 118.935,316.000 119.220 C 322.970 120.665,350.635 128.305,351.520 129.029 C 352.081 129.488,355.906 130.751,360.020 131.836 C 365.736 133.343,367.028 133.987,365.500 134.566 C 364.400 134.983,358.269 140.539,351.875 146.912 C 335.145 163.588,315.858 182.001,315.127 181.994 C 314.782 181.991,312.736 173.891,310.581 163.994 C 308.425 154.097,306.363 146.000,305.998 146.000 C 305.633 146.000,304.338 141.387,303.120 135.750 C 301.903 130.113,300.293 122.912,299.544 119.750 C 298.794 116.588,298.553 114.000,299.009 114.000 C 299.465 114.000,302.687 114.727,306.169 115.616 M290.903 126.750 C 292.203 132.662,293.570 137.725,293.940 138.000 C 294.508 138.422,297.865 152.596,303.440 178.103 L 304.665 183.707 296.082 181.358 C 291.362 180.067,285.486 178.533,283.025 177.950 C 280.564 177.368,278.314 176.549,278.025 176.132 C 277.555 175.453,255.034 169.223,244.333 166.812 C 237.990 165.383,238.434 164.078,248.548 154.425 C 253.690 149.516,264.559 138.890,272.699 130.811 C 280.840 122.733,287.734 116.095,288.020 116.061 C 288.306 116.028,289.603 120.838,290.903 126.750 M73.500 127.057 C 76.250 127.747,78.950 128.650,79.500 129.065 C 80.489 129.811,89.591 132.390,110.000 137.706 C 115.775 139.210,120.732 140.760,121.016 141.150 C 121.299 141.541,124.620 142.636,128.396 143.584 L 135.260 145.308 126.916 152.904 C 122.327 157.082,113.606 165.370,107.536 171.322 C 101.466 177.274,93.767 184.816,90.426 188.082 C 84.283 194.088,83.000 194.492,83.000 190.417 C 83.000 189.179,82.644 188.017,82.209 187.833 C 81.774 187.650,79.242 177.825,76.582 166.000 C 73.922 154.175,71.423 144.275,71.030 144.000 C 70.636 143.725,70.046 142.150,69.718 140.500 C 69.390 138.850,68.467 134.720,67.666 131.322 C 66.633 126.933,66.542 125.239,67.355 125.474 C 67.985 125.656,70.750 126.368,73.500 127.057 M158.384 151.201 C 160.648 151.862,162.725 152.682,163.000 153.024 C 163.471 153.610,171.148 155.739,194.500 161.763 C 200.000 163.182,204.736 164.691,205.025 165.117 C 205.314 165.542,207.749 166.383,210.436 166.986 C 218.943 168.892,219.009 168.671,206.271 180.943 C 199.797 187.181,188.598 198.081,181.385 205.166 L 168.270 218.047 167.036 211.774 C 166.358 208.323,165.462 205.275,165.047 205.000 C 164.631 204.725,161.932 193.700,159.049 180.500 C 156.166 167.300,153.468 156.275,153.053 156.000 C 152.638 155.725,152.068 154.262,151.788 152.750 C 151.198 149.572,152.086 149.363,158.384 151.201 M149.954 186.000 C 151.208 191.775,152.541 196.725,152.917 197.000 C 153.611 197.508,159.053 220.280,158.591 220.742 C 158.453 220.880,155.001 220.104,150.920 219.017 C 146.839 217.930,139.675 216.060,135.000 214.862 C 130.325 213.664,126.275 212.375,126.000 211.998 C 125.579 211.420,112.626 207.790,96.500 203.731 C 94.300 203.177,92.137 202.401,91.694 202.006 C 90.975 201.366,104.588 187.000,105.913 187.000 C 106.209 187.000,112.537 180.978,119.975 173.617 C 127.414 166.256,135.515 158.422,137.978 156.209 L 142.456 152.184 145.065 163.842 C 146.499 170.254,148.699 180.225,149.954 186.000 M242.500 176.045 C 243.388 176.729,255.322 180.069,276.500 185.561 C 280.350 186.560,283.725 187.681,284.000 188.053 C 284.275 188.425,288.641 189.771,293.703 191.046 L 302.906 193.362 299.662 196.931 C 297.878 198.894,292.434 204.325,287.564 209.000 C 282.694 213.675,272.826 223.248,265.636 230.274 C 255.048 240.618,252.438 242.710,251.912 241.274 C 251.555 240.298,250.450 235.675,249.456 231.000 C 248.462 226.325,247.337 222.275,246.956 222.000 C 246.266 221.503,235.993 177.655,235.998 175.231 C 236.000 173.917,240.461 174.476,242.500 176.045 M230.072 195.500 C 232.450 205.950,234.701 214.725,235.075 215.000 C 235.914 215.617,242.342 243.991,241.772 244.562 C 241.546 244.788,238.242 244.112,234.430 243.060 C 230.619 242.008,222.775 239.934,217.000 238.452 C 211.225 236.969,206.275 235.437,206.000 235.048 C 205.725 234.659,198.637 232.587,190.250 230.443 C 181.863 228.300,175.000 226.270,175.000 225.933 C 175.000 225.597,182.313 218.218,191.250 209.535 C 200.188 200.853,211.550 189.793,216.500 184.958 C 221.450 180.123,225.556 176.241,225.625 176.333 C 225.694 176.425,227.695 185.050,230.072 195.500 M90.000 212.000 C 90.000 212.550,90.739 213.000,91.642 213.000 C 92.545 213.000,96.258 213.853,99.892 214.896 C 103.526 215.939,112.098 218.260,118.940 220.054 C 125.782 221.848,132.434 223.863,133.724 224.532 C 135.013 225.201,140.295 226.781,145.463 228.043 L 154.857 230.338 143.679 241.245 C 137.530 247.243,126.291 258.246,118.702 265.695 C 111.114 273.144,104.712 279.045,104.476 278.809 C 104.240 278.574,101.955 269.183,99.397 257.940 C 96.840 246.698,94.448 237.275,94.083 237.000 C 92.393 235.726,87.558 211.000,89.000 211.000 C 89.550 211.000,90.000 211.450,90.000 212.000 M200.500 243.498 C 206.000 244.973,210.950 246.525,211.500 246.947 C 212.539 247.744,231.432 252.945,236.250 253.761 C 240.527 254.486,240.153 255.046,227.449 266.947 C 223.077 271.043,213.148 280.605,205.385 288.197 C 191.243 302.027,189.000 303.654,189.000 300.083 C 189.000 299.029,188.647 298.017,188.216 297.833 C 187.474 297.518,183.631 281.677,178.915 259.500 C 177.745 254.000,176.476 249.275,176.094 249.000 C 175.465 248.548,173.000 239.009,173.000 237.028 C 173.000 236.251,176.924 237.175,200.500 243.498 M164.956 245.000 C 165.323 245.275,166.185 248.200,166.871 251.500 C 170.193 267.479,175.399 289.554,175.950 290.000 C 177.117 290.945,179.742 304.000,178.764 304.000 C 178.234 304.000,173.458 302.846,168.150 301.435 C 162.843 300.024,155.125 297.981,151.000 296.895 C 146.875 295.808,142.150 294.299,140.500 293.541 C 138.850 292.783,132.147 290.786,125.605 289.103 C 119.062 287.420,113.548 285.881,113.350 285.683 C 113.002 285.335,130.418 267.964,152.000 247.134 L 162.500 237.000 163.394 240.750 C 163.886 242.812,164.589 244.725,164.956 245.000 M139.000 303.031 C 143.675 304.250,147.725 305.558,148.000 305.939 C 148.416 306.516,168.015 312.021,175.751 313.735 C 177.794 314.188,177.374 314.844,171.188 320.867 C 142.192 349.095,132.938 357.916,129.396 360.705 L 125.326 363.910 122.016 349.205 C 120.196 341.117,118.395 334.275,118.015 334.000 C 117.440 333.584,108.971 297.806,108.993 295.886 C 108.999 295.325,114.060 296.530,139.000 303.031 " stroke="none" fill="#000000" fill-rule="evenodd"></path></g></svg>