<?xml version="1.0" encoding="UTF-8" standalone="no"?>
<!DOCTYPE svg PUBLIC "-//W3C//DTD SVG 1.1//EN" "http://www.w3.org/Graphics/SVG/1.1/DTD/svg11.dtd">
<svg width="100%" height="100%" viewBox="0 0 400 400" version="1.1" xmlns="http://www.w3.org/2000/svg" xmlns:xlink="http://www.w3.org/1999/xlink" xml:space="preserve" xmlns:serif="http://www.serif.com/" style="fill-rule:evenodd;clip-rule:evenodd;stroke-linejoin:round;stroke-miterlimit:2;">
    <g id="svgg">
        <path id="path0" d="M211.532,2.796C174.535,31.571 210.683,96.532 210.285,143.4C209.974,180.043 234.419,277.609 189.173,317.114C161.575,341.211 116.386,328.43 101.411,296.233C88.079,267.567 102.036,233.165 130.43,220.667C141.81,215.658 148.506,215.395 160.697,215.85C163.472,215.954 166.097,217.45 168.874,217.45L170.47,217.45L170.47,207.904C170.47,188.491 176.026,167.84 169.166,149.679C166.651,143.021 154.989,148.277 147.875,148.083C131.283,147.63 112.324,153.726 98.006,160.775C45.272,186.735 19.269,246.196 31.97,302.408C47.579,371.488 122.306,411.314 188.814,392.635C216.449,384.874 238.742,366.81 256.015,344.193C283.01,308.845 277.971,261.361 278.281,219.911C278.465,195.264 278.533,170.616 278.684,145.969L278.747,135.561L282.662,137.563C294.732,143.73 294.065,144.623 306.335,150.31C326.04,159.442 348.846,165.06 370.582,165.097L372.707,165.101L372.707,131.767C372.707,120.645 377.231,108.408 372.371,98.404C369.825,93.163 360.797,96.888 355.121,95.568C349.139,94.176 343.029,92.754 337.584,89.912C305.46,73.142 277.514,44.668 278.194,5.768L278.23,3.707L274.573,3.422C258.407,2.159 213.897,0.96 211.532,2.796"/>
    </g>
</svg>
