<svg id="svg" xmlns="http://www.w3.org/2000/svg" xmlns:xlink="http://www.w3.org/1999/xlink" width="400" height="400" viewBox="0, 0, 400,400"><g id="svgg"><path id="path0" d="M211.532 2.796 C 210.875 3.307,210.765 15.614,210.285 143.400 C 209.843 260.801,209.657 283.735,209.136 285.235 C 208.794 286.219,208.511 287.466,208.508 288.005 C 208.504 288.544,208.300 289.110,208.054 289.262 C 207.808 289.414,207.606 289.879,207.605 290.295 C 207.600 292.396,203.960 299.917,200.340 305.303 C 195.870 311.954,182.146 323.937,178.998 323.937 C 178.721 323.937,177.478 324.452,176.236 325.081 C 162.488 332.048,139.733 330.862,126.018 322.463 C 110.481 312.948,101.334 300.913,97.554 285.011 C 95.699 277.206,96.685 259.430,99.229 254.807 C 99.499 254.316,100.273 252.405,100.949 250.559 C 101.625 248.714,102.443 246.886,102.767 246.497 C 103.091 246.109,103.356 245.638,103.356 245.452 C 103.356 245.265,103.927 244.274,104.626 243.250 C 105.324 242.225,106.482 240.492,107.198 239.399 C 117.638 223.462,140.878 213.233,160.697 215.850 C 163.320 216.196,165.874 216.698,166.373 216.965 C 166.871 217.231,167.997 217.450,168.874 217.450 L 170.470 217.450 170.470 207.904 C 170.470 176.385,169.877 149.902,169.166 149.679 C 168.308 149.410,151.644 148.161,147.875 148.083 C 134.022 147.798,115.272 152.570,98.006 160.775 C 84.633 167.130,67.565 180.771,56.765 193.736 C 54.557 196.387,46.532 207.752,46.532 208.229 C 46.532 208.389,46.060 209.270,45.482 210.188 C 43.312 213.635,37.584 225.454,37.584 226.485 C 37.584 226.831,37.397 227.305,37.168 227.539 C 36.658 228.060,35.436 231.361,34.857 233.781 C 34.622 234.765,34.057 236.577,33.602 237.808 C 32.834 239.884,32.489 241.257,31.327 246.868 C 28.923 258.479,28.440 264.169,28.790 276.734 C 29.058 286.380,29.331 289.213,30.595 295.526 C 30.939 297.248,31.559 300.346,31.970 302.408 C 32.382 304.471,33.077 307.189,33.515 308.449 C 33.953 309.708,34.565 311.544,34.874 312.528 C 35.184 313.512,36.249 316.331,37.241 318.792 C 38.233 321.253,39.275 323.870,39.556 324.609 C 41.608 329.991,48.356 341.175,54.538 349.440 C 58.720 355.032,69.897 365.670,77.405 371.206 C 79.004 372.386,80.414 373.482,80.537 373.642 C 80.660 373.802,82.371 374.956,84.340 376.206 C 86.309 377.457,88.423 378.854,89.038 379.312 C 89.653 379.770,91.465 380.813,93.065 381.631 C 94.664 382.448,96.508 383.492,97.161 383.952 C 97.814 384.411,98.658 384.787,99.036 384.787 C 99.414 384.787,99.832 384.963,99.965 385.178 C 100.098 385.393,101.972 386.314,104.130 387.224 C 106.288 388.135,108.658 389.143,109.396 389.464 C 112.117 390.648,122.689 393.859,126.461 394.646 C 127.657 394.896,130.649 395.412,133.110 395.793 C 135.570 396.175,138.591 396.658,139.821 396.868 C 142.788 397.375,164.594 397.350,168.009 396.836 C 175.468 395.714,176.644 395.520,178.300 395.138 C 179.284 394.911,181.700 394.392,183.669 393.985 C 185.638 393.578,187.953 392.970,188.814 392.635 C 189.676 392.299,191.387 391.776,192.617 391.472 C 193.848 391.168,195.660 390.568,196.644 390.139 C 201.704 387.934,207.149 385.682,207.424 385.682 C 207.595 385.682,210.273 384.229,213.375 382.452 C 218.280 379.643,220.467 378.244,227.519 373.406 C 236.204 367.445,249.657 353.654,256.015 344.193 C 259.526 338.969,262.192 334.790,262.192 334.510 C 262.192 334.363,262.774 333.282,263.485 332.110 C 264.195 330.937,264.924 329.474,265.104 328.859 C 265.283 328.244,265.668 327.438,265.958 327.069 C 266.249 326.700,266.962 325.291,267.543 323.937 C 268.125 322.584,268.951 320.671,269.380 319.687 C 270.320 317.531,272.128 312.185,273.163 308.501 C 273.578 307.025,274.088 305.313,274.298 304.698 C 274.507 304.083,275.117 301.465,275.655 298.881 C 277.903 288.070,277.920 287.555,278.281 219.911 C 278.467 184.966,278.649 151.693,278.684 145.969 L 278.747 135.561 282.662 137.563 C 284.815 138.663,287.886 140.365,289.485 141.345 C 299.822 147.677,313.045 153.805,322.595 156.690 C 324.195 157.173,326.711 157.964,328.188 158.447 C 334.539 160.528,344.830 162.514,354.586 163.542 C 358.031 163.905,362.562 164.403,364.653 164.648 C 366.745 164.893,369.413 165.095,370.582 165.097 L 372.707 165.101 372.707 131.767 C 372.707 113.434,372.556 98.421,372.371 98.404 C 361.439 97.429,348.153 94.339,339.821 90.834 C 339.083 90.523,338.076 90.108,337.584 89.912 C 325.990 85.286,315.950 78.370,304.581 67.180 C 297.950 60.653,291.723 52.944,291.723 51.262 C 291.723 51.117,291.119 50.165,290.380 49.146 C 289.642 48.127,289.039 47.072,289.040 46.801 C 289.041 46.530,288.315 44.799,287.427 42.953 C 286.539 41.107,285.532 38.993,285.189 38.255 C 284.522 36.820,281.485 27.666,281.182 26.174 C 281.082 25.682,280.601 23.468,280.114 21.253 C 279.112 16.699,278.140 8.856,278.194 5.768 L 278.230 3.707 274.573 3.422 C 272.563 3.265,268.463 3.136,265.463 3.135 C 262.312 3.133,259.891 2.943,259.732 2.685 C 259.291 1.972,212.453 2.081,211.532 2.796 " stroke="none" fill="#000000" fill-rule="evenodd"></path></g></svg>