<svg id="svg" xmlns="http://www.w3.org/2000/svg" xmlns:xlink="http://www.w3.org/1999/xlink" width="400" height="400" viewBox="0, 0, 400,400"><g id="svgg"><path id="path0" d="M317.100 40.430 C 312.130 41.633,314.026 39.847,256.296 97.682 C 111.415 242.823,92.165 262.252,91.184 264.321 C 89.077 268.769,89.063 271.586,91.129 275.835 C 92.351 278.346,149.184 335.820,152.958 338.361 C 157.628 341.504,162.522 341.531,167.171 338.441 C 169.163 337.117,386.052 120.562,387.504 118.448 C 390.756 113.712,390.759 108.742,387.513 103.647 C 385.313 100.194,328.087 43.335,325.451 41.982 C 322.037 40.231,319.710 39.798,317.100 40.430 M77.926 120.158 C 75.344 120.871,73.444 121.929,71.083 123.968 C 66.301 128.098,13.416 181.441,12.166 183.395 C 8.959 188.411,9.080 193.076,12.552 198.283 C 13.063 199.049,29.781 215.983,49.703 235.912 L 85.925 272.148 85.926 268.793 C 85.926 264.943,86.702 262.023,88.385 259.534 C 88.907 258.763,104.400 242.972,122.815 224.442 C 141.230 205.912,156.323 190.666,156.355 190.561 C 156.487 190.134,89.572 123.269,87.988 122.245 C 84.658 120.092,80.949 119.323,77.926 120.158 " stroke="none" fill="#000000" fill-rule="evenodd"></path></g></svg>