<svg id="svg" version="1.1" width="400" height="400" viewBox="0 0 400 400" xmlns="http://www.w3.org/2000/svg" xmlns:xlink="http://www.w3.org/1999/xlink" ><g id="svgg"><path id="path0" d="M196.434 88.272 C 193.041 100.874,192.457 123.722,195.067 141.800 C 195.964 148.016,195.341 147.317,204.156 151.987 C 208.467 154.271,211.950 156.177,211.897 156.224 C 211.844 156.270,208.742 156.522,205.005 156.782 C 201.268 157.043,198.177 157.290,198.135 157.331 C 197.955 157.512,200.481 166.216,200.840 166.648 C 201.058 166.911,203.150 167.896,205.487 168.835 L 209.737 170.543 206.269 171.526 C 204.361 172.066,202.800 172.669,202.800 172.866 C 202.800 173.448,206.747 183.176,208.128 186.000 L 209.400 188.600 216.700 188.709 L 224.000 188.818 224.000 190.799 L 224.000 192.780 217.809 192.890 L 211.617 193.000 213.320 196.000 L 215.023 199.000 219.511 199.113 L 224.000 199.226 224.000 201.213 L 224.000 203.200 221.000 203.200 C 217.315 203.200,217.283 202.865,221.500 208.478 C 232.013 222.473,243.378 232.509,257.873 240.598 C 262.711 243.298,261.972 243.418,268.883 238.818 C 281.919 230.141,293.113 219.316,302.199 206.600 L 304.485 203.400 300.443 203.286 L 296.400 203.172 296.400 201.197 L 296.400 199.223 301.829 199.111 L 307.258 199.000 309.007 195.900 L 310.755 192.800 303.578 192.800 L 296.400 192.800 296.400 190.808 L 296.400 188.816 304.653 188.708 L 312.907 188.600 314.494 185.000 C 315.367 183.020,316.413 180.563,316.819 179.540 L 317.557 177.679 313.795 176.357 C 311.726 175.629,310.092 174.974,310.165 174.901 C 310.238 174.828,312.256 174.217,314.649 173.543 C 317.042 172.868,319.142 172.185,319.315 172.023 C 319.698 171.667,321.923 164.036,322.085 162.525 L 322.200 161.446 317.659 160.749 C 315.162 160.366,313.050 159.983,312.966 159.899 C 312.882 159.815,315.105 158.796,317.907 157.633 C 320.708 156.471,323.211 155.313,323.470 155.060 C 323.986 154.554,324.966 148.257,325.595 141.400 C 327.012 125.967,324.800 80.458,323.009 88.200 C 321.567 94.430,319.227 100.729,316.624 105.383 C 313.460 111.041,306.865 117.910,305.024 117.465 C 293.218 114.605,269.600 111.584,269.600 112.934 C 269.600 113.520,263.508 134.224,263.258 134.488 C 263.108 134.646,260.843 130.056,258.226 124.288 C 255.609 118.519,253.258 113.567,253.002 113.283 C 252.014 112.185,233.168 114.614,222.298 117.241 L 217.195 118.474 214.898 117.182 C 206.472 112.443,201.575 105.033,198.391 92.200 C 196.879 86.109,196.969 86.289,196.434 88.272 M242.552 130.035 C 249.259 131.898,251.684 143.262,248.540 158.100 L 248.307 159.200 263.914 159.200 L 279.521 159.200 281.417 155.300 C 285.613 146.669,292.502 142.292,303.300 141.396 L 306.800 141.105 306.800 142.898 L 306.800 144.690 303.406 144.965 C 294.082 145.722,288.272 149.207,284.893 156.071 C 284.182 157.516,283.600 158.811,283.600 158.949 C 283.600 159.087,287.380 159.200,292.000 159.200 L 300.400 159.200 300.400 161.000 L 300.400 162.800 263.600 162.800 L 226.800 162.800 226.800 161.000 L 226.800 159.200 235.735 159.200 L 244.670 159.200 245.382 155.300 C 246.960 146.651,246.574 139.318,244.352 135.723 C 241.030 130.348,230.849 133.810,226.178 141.903 C 225.576 142.946,225.020 143.874,224.943 143.965 C 224.344 144.672,221.691 143.012,222.024 142.137 C 225.132 133.963,235.238 128.005,242.552 130.035 M247.038 163.900 C 246.920 164.285,246.454 165.805,246.002 167.277 C 245.353 169.395,243.213 174.816,241.334 179.100 C 241.160 179.496,245.241 179.600,261.000 179.600 C 276.759 179.600,280.840 179.496,280.665 179.100 C 278.182 173.460,277.260 168.943,277.870 165.400 L 278.215 163.400 280.070 163.280 L 281.925 163.159 281.572 164.680 C 280.589 168.913,281.468 173.569,284.228 178.759 C 285.211 180.607,285.967 182.157,285.907 182.204 C 285.848 182.251,280.985 185.401,275.100 189.203 C 269.215 193.005,264.401 196.225,264.403 196.358 C 264.404 196.491,267.239 198.352,270.703 200.493 C 274.166 202.634,277.251 204.551,277.558 204.752 C 278.020 205.056,277.963 205.365,277.227 206.557 C 276.173 208.262,276.635 208.424,270.000 204.019 C 267.470 202.340,264.455 200.370,263.300 199.641 L 261.200 198.316 254.393 202.758 C 250.649 205.201,247.450 207.200,247.284 207.200 C 246.925 207.200,245.398 204.462,245.636 204.246 C 245.726 204.165,248.465 202.365,251.722 200.246 C 254.979 198.128,257.556 196.253,257.449 196.080 C 257.342 195.906,252.402 192.714,246.472 188.986 L 235.690 182.208 237.796 178.004 C 239.466 174.671,242.597 166.731,243.436 163.700 C 243.522 163.393,244.283 163.200,245.414 163.200 C 246.982 163.200,247.222 163.304,247.038 163.900 M189.578 168.598 C 181.576 170.796,164.800 176.652,164.800 177.248 C 164.800 177.409,166.869 183.614,169.398 191.038 C 171.927 198.462,173.940 204.594,173.870 204.664 C 173.800 204.734,167.467 200.563,159.797 195.395 C 152.128 190.228,145.611 186.000,145.316 186.000 C 144.593 186.000,136.818 190.119,136.808 190.507 C 136.804 190.676,138.805 194.276,141.256 198.507 C 143.706 202.738,145.799 206.354,145.905 206.542 C 146.012 206.729,141.525 204.530,135.935 201.654 L 125.771 196.425 119.386 200.448 C 115.874 202.661,112.858 204.607,112.684 204.772 C 112.510 204.937,113.353 208.563,114.557 212.830 C 115.761 217.096,116.704 220.629,116.654 220.680 C 116.603 220.731,113.547 218.689,109.863 216.142 L 103.164 211.513 99.482 214.321 C 93.265 219.062,87.261 224.190,81.301 229.847 L 75.602 235.257 77.444 237.528 C 79.774 240.402,87.818 249.304,89.930 251.346 L 91.529 252.893 95.064 252.346 C 97.592 251.956,102.608 251.810,112.663 251.836 L 126.726 251.871 126.963 250.686 C 127.093 250.034,127.200 248.632,127.200 247.570 C 127.200 241.150,131.019 221.600,132.273 221.600 C 133.454 221.600,137.200 222.864,137.200 223.262 C 137.200 223.484,136.851 225.047,136.425 226.733 C 134.614 233.908,132.800 245.866,132.800 250.640 L 132.800 252.685 136.100 252.960 C 183.953 256.942,240.441 276.058,310.667 312.033 L 322.333 318.010 337.203 317.905 L 352.073 317.800 350.431 315.342 C 345.794 308.398,336.925 304.255,326.620 304.218 L 321.441 304.200 308.083 289.800 C 300.736 281.880,294.517 275.250,294.263 275.066 C 293.992 274.871,289.919 275.748,284.445 277.179 C 279.300 278.524,275.046 279.574,274.992 279.512 C 274.938 279.450,277.942 277.089,281.668 274.264 C 285.394 271.438,288.388 268.970,288.321 268.779 C 288.060 268.027,279.913 259.600,279.448 259.600 C 279.176 259.600,275.839 261.038,272.033 262.796 C 266.464 265.369,265.225 265.818,265.689 265.096 C 266.006 264.603,267.935 261.634,269.976 258.497 L 273.687 252.795 271.176 250.097 C 268.048 246.737,268.619 246.842,265.094 248.982 C 261.351 251.254,262.026 251.348,256.376 247.769 C 239.211 236.894,224.023 222.513,213.183 206.870 L 210.640 203.200 199.920 203.200 L 189.200 203.200 189.200 201.200 L 189.200 199.200 198.600 199.200 C 203.770 199.200,208.000 199.110,208.000 199.000 C 208.000 198.890,207.245 197.450,206.322 195.800 L 204.644 192.800 196.922 192.800 L 189.200 192.800 189.200 190.800 L 189.200 188.800 195.800 188.800 C 199.430 188.800,202.400 188.724,202.400 188.631 C 202.400 188.538,201.433 186.243,200.250 183.531 C 199.068 180.819,197.244 176.125,196.197 173.100 C 194.040 166.865,194.572 167.227,189.578 168.598 M244.810 183.500 C 244.816 183.665,248.491 186.098,252.978 188.906 L 261.136 194.013 268.964 188.906 C 273.269 186.098,276.793 183.665,276.795 183.500 C 276.798 183.335,269.600 183.200,260.800 183.200 C 252.000 183.200,244.805 183.335,244.810 183.500 M66.183 245.682 C 46.894 267.302,18.800 306.259,18.800 311.387 C 18.800 311.504,24.245 311.599,30.900 311.598 L 43.000 311.597 43.070 306.898 C 43.399 284.909,59.295 263.663,81.295 255.808 L 84.924 254.512 81.199 250.556 C 79.150 248.380,76.222 245.115,74.694 243.300 C 73.165 241.485,71.765 240.000,71.583 240.000 C 71.401 240.000,68.971 242.557,66.183 245.682 " stroke="none" fill="#000000" fill-rule="evenodd"></path></g></svg>