<?xml version="1.0" encoding="UTF-8" standalone="no"?>
<!DOCTYPE svg PUBLIC "-//W3C//DTD SVG 1.1//EN" "http://www.w3.org/Graphics/SVG/1.1/DTD/svg11.dtd">
<svg width="100%" height="100%" viewBox="0 0 1000 1000" version="1.1" xmlns="http://www.w3.org/2000/svg" xmlns:xlink="http://www.w3.org/1999/xlink" xml:space="preserve" xmlns:serif="http://www.serif.com/" style="fill-rule:evenodd;clip-rule:evenodd;stroke-linejoin:round;stroke-miterlimit:2;">
    <g id="svgg" transform="matrix(2.50079,0,0,2.50079,0,0)">
        <path id="path0" d="M0,91.4C0,154.401 0.129,182.8 0.416,182.8C1.009,182.8 3.985,181.244 5.4,180.194C6.685,179.24 184.013,87.4 188.459,85.2C197.074,80.938 197.878,80.681 198.169,82.1C198.271,82.595 198.461,109.19 198.592,141.2C198.722,173.21 199.086,218.21 199.398,241.2C199.711,264.19 199.991,289.3 200.021,297C200.114,321.482 199.772,320.347 206.101,317.175C215.486,312.473 393.207,220.228 394.018,219.651C394.829,219.073 396.502,218.15 397.735,217.6L399.978,216.6L400,0L0,0L0,91.4M186.8,88.249C183.39,89.924 21.31,174.443 16.8,176.606C12.29,178.768 7.602,181.227 6.383,182.069C5.163,182.911 3.961,183.6 3.711,183.6C3.461,183.6 2.974,183.883 2.629,184.229C1.665,185.192 1.665,396.408 2.629,397.371C3.593,398.336 396.407,398.336 397.371,397.371C398.334,396.409 398.334,223.191 397.371,222.229C396.492,221.349 395.414,221.443 393.259,222.587C392.237,223.131 202.451,321.2 201.724,321.2C198.237,321.2 198.099,320.433 198.04,300.782C198.012,291.222 197.898,278.45 197.786,272.4C197.264,244.079 196.795,195.255 196.546,143.265C196.249,81.383 196.412,85.197 194.071,85.203C193.482,85.204 190.21,86.575 186.8,88.249M192.159,147.9C192.314,179.085 192.608,216.57 192.811,231.2C193.014,245.83 193.286,271.75 193.416,288.8C193.687,324.54 193.491,322.721 197.272,324.637C201.592,326.826 392.934,228 393.411,228C393.515,228 393.6,265.26 393.6,310.8L393.6,393.6L6.4,393.6L6.4,290.6C6.4,231.234 6.55,187.6 6.753,187.6C6.948,187.6 8.253,186.83 9.653,185.888C11.054,184.947 15.89,182.402 20.4,180.233C24.91,178.064 178.542,98.206 187.559,93.318C189.672,92.172 191.507,91.227 191.639,91.218C191.77,91.208 192.004,116.715 192.159,147.9"/>
    </g>
</svg>
