<svg version="1.1" width="400" height="400" xmlns="http://www.w3.org/2000/svg">
<g>
<path d="M182.965 25.029 C 167.633 25.999,145.000 29.040,145.000 30.130 C 145.000 30.608,144.213 31.001,143.250 31.001 C 140.588 31.003,120.648 35.972,120.037 36.786 C 119.741 37.179,115.563 38.805,110.750 40.399 C 105.938 41.994,102.000 43.681,102.000 44.149 C 102.000 44.617,101.551 45.000,101.003 45.000 C 99.004 45.000,86.823 51.260,84.334 53.566 C 82.928 54.869,80.967 56.193,79.978 56.507 C 78.988 56.821,77.453 58.185,76.566 59.539 C 75.680 60.893,74.368 62.000,73.651 62.000 C 72.182 62.000,68.000 66.125,68.000 67.574 C 68.000 68.094,67.164 69.041,66.143 69.679 C 65.122 70.316,63.273 72.787,62.034 75.169 C 60.795 77.551,59.423 79.725,58.985 80.001 C 57.647 80.842,54.219 92.165,53.483 98.178 C 52.782 103.903,56.292 115.000,58.804 115.000 C 59.307 115.000,61.245 116.570,63.110 118.489 C 64.974 120.408,66.997 121.983,67.604 121.989 C 68.211 121.995,69.806 123.012,71.147 124.250 C 72.489 125.487,76.245 127.796,79.494 129.379 C 82.743 130.962,86.018 132.875,86.772 133.629 C 87.526 134.383,88.954 135.000,89.946 135.000 C 94.514 135.000,93.574 118.000,88.836 114.926 C 86.694 113.536,84.755 103.120,85.556 97.309 L 86.358 91.500 87.197 98.452 C 87.658 102.275,88.442 105.655,88.938 105.962 C 89.435 106.269,90.157 107.778,90.543 109.315 C 90.929 110.852,92.764 113.323,94.622 114.805 C 97.095 116.778,98.000 118.295,98.000 120.468 C 98.000 124.968,101.608 127.323,112.696 130.059 C 118.088 131.390,122.725 132.762,123.000 133.109 C 124.513 135.016,165.224 139.945,179.750 139.980 C 184.570 139.992,188.000 140.416,188.000 141.000 C 188.000 141.625,194.000 142.000,204.000 142.000 C 212.800 142.000,220.000 141.620,220.000 141.156 C 220.000 140.692,226.670 140.024,234.823 139.671 C 242.976 139.318,253.213 138.566,257.573 138.000 C 270.631 136.305,285.466 133.695,286.000 133.000 C 286.275 132.641,290.733 131.267,295.906 129.946 C 306.728 127.183,308.000 126.251,308.000 121.089 C 308.000 118.027,308.475 117.105,310.533 116.167 C 314.125 114.530,317.100 107.024,317.930 97.500 C 318.597 89.851,318.684 89.632,319.907 92.500 C 321.381 95.954,320.924 110.790,319.311 111.842 C 313.078 115.908,310.928 135.988,316.885 134.493 C 318.312 134.134,319.709 133.471,319.990 133.018 C 320.270 132.565,323.087 131.051,326.250 129.652 C 329.413 128.254,332.000 126.734,332.000 126.274 C 332.000 125.815,333.238 124.885,334.750 124.209 C 341.045 121.393,350.240 113.041,351.494 109.000 C 351.920 107.625,352.742 106.197,353.320 105.827 C 355.361 104.518,350.708 82.051,347.970 80.000 C 347.603 79.725,346.072 77.278,344.567 74.563 C 341.465 68.966,329.830 56.998,325.126 54.565 C 323.407 53.676,322.000 52.577,322.000 52.122 C 322.000 51.668,318.738 49.803,314.750 47.979 C 310.762 46.155,307.236 44.269,306.914 43.788 C 306.592 43.307,302.992 41.756,298.914 40.342 C 294.836 38.927,291.275 37.428,291.000 37.012 C 290.503 36.258,277.136 32.784,269.500 31.424 C 267.300 31.032,265.275 30.370,265.000 29.952 C 262.618 26.333,211.152 23.245,182.965 25.029 M205.500 66.000 C 205.849 67.100,206.457 68.000,206.852 68.000 C 207.246 68.000,208.862 70.723,210.443 74.052 C 214.661 82.934,216.036 83.704,229.189 84.557 L 240.318 85.278 235.478 89.389 C 232.816 91.650,228.919 95.075,226.818 97.000 L 222.999 100.500 224.482 109.500 C 226.600 122.350,226.660 121.991,222.616 120.601 C 220.755 119.961,218.618 118.981,217.866 118.422 C 209.231 112.000,197.965 112.129,189.888 118.741 C 189.001 119.467,186.807 120.482,185.012 120.996 L 181.749 121.932 182.402 118.216 C 182.761 116.172,183.330 112.362,183.667 109.750 C 184.003 107.138,184.666 105.000,185.139 105.000 C 187.291 105.000,185.658 100.743,182.368 97.776 C 172.892 89.228,171.372 87.904,169.591 86.644 C 167.921 85.463,169.047 85.205,178.591 84.583 C 193.587 83.605,193.058 83.845,196.500 76.448 C 198.150 72.902,199.861 70.001,200.302 70.001 C 200.743 70.000,201.575 68.650,202.150 67.000 C 203.362 63.523,204.597 63.155,205.500 66.000 M98.440 140.927 L 99.139 149.854 93.709 151.566 C 70.520 158.875,57.469 188.920,68.368 209.904 C 71.842 216.593,80.605 227.000,82.764 227.000 C 83.236 227.000,84.495 227.787,85.561 228.750 C 87.870 230.834,94.475 234.000,96.515 234.000 C 97.311 234.000,98.184 235.012,98.455 236.250 C 101.227 248.895,103.186 256.514,103.781 256.960 C 107.401 259.678,106.720 263.851,101.878 268.620 C 99.195 271.263,97.000 273.956,97.000 274.605 C 97.000 275.255,96.302 276.054,95.450 276.381 C 94.597 276.708,92.962 279.231,91.816 281.988 C 90.671 284.745,89.403 287.000,88.998 287.000 C 84.124 287.000,83.903 320.325,88.753 323.943 C 89.164 324.249,90.625 326.738,92.000 329.472 C 93.375 332.207,96.820 336.707,99.657 339.472 C 107.752 347.365,109.812 348.886,118.323 353.250 C 120.621 354.428,122.746 355.745,123.046 356.175 C 123.633 357.017,138.697 362.000,140.655 362.000 C 141.303 362.000,141.983 362.448,142.167 362.996 C 142.522 364.057,164.684 368.979,169.167 368.992 C 170.633 368.996,171.983 369.409,172.167 369.910 C 173.502 373.553,234.458 373.528,235.833 369.884 C 236.017 369.398,237.367 368.996,238.833 368.992 C 243.316 368.979,265.478 364.057,265.833 362.996 C 266.017 362.448,266.837 362.000,267.657 362.000 C 269.686 362.000,284.344 357.035,284.985 356.131 C 285.268 355.732,288.200 354.114,291.500 352.534 C 294.800 350.955,298.823 348.389,300.440 346.831 C 302.057 345.274,303.819 344.000,304.355 344.000 C 306.137 344.000,314.692 334.011,316.583 329.722 C 317.607 327.400,318.727 325.275,319.073 325.000 C 324.441 320.725,324.373 291.721,318.986 288.000 C 318.588 287.725,317.054 285.104,315.577 282.176 C 314.099 279.247,310.209 274.076,306.931 270.684 C 303.559 267.196,301.196 263.931,301.490 263.166 C 301.775 262.422,302.301 260.619,302.658 259.157 C 303.016 257.696,303.649 256.273,304.066 255.996 C 304.482 255.718,305.599 252.343,306.547 248.496 C 309.497 236.525,309.381 236.693,316.036 234.732 C 319.336 233.759,322.928 232.072,324.018 230.982 C 325.108 229.892,326.361 229.000,326.803 229.000 C 328.181 229.000,337.424 219.455,339.000 216.404 C 339.825 214.807,341.051 212.917,341.724 212.205 C 346.761 206.873,346.215 174.000,341.089 174.000 C 340.676 174.000,339.717 172.762,338.958 171.250 C 337.218 167.784,327.896 158.013,326.321 158.006 C 325.673 158.003,324.478 157.335,323.665 156.522 C 321.805 154.662,312.620 151.000,309.814 151.000 C 307.788 151.000,307.727 150.664,308.288 142.707 C 308.850 134.743,307.922 130.142,306.250 132.605 C 305.074 134.338,284.991 140.000,280.020 140.000 C 279.001 140.000,278.017 140.398,277.833 140.883 C 277.110 142.801,239.117 146.976,222.250 146.991 C 216.756 146.997,213.000 147.406,213.000 148.000 C 213.000 148.593,209.333 149.000,204.000 149.000 C 198.667 149.000,195.000 148.593,195.000 148.000 C 195.000 147.406,191.244 146.997,185.750 146.991 C 170.114 146.977,131.323 142.840,130.000 141.046 C 129.725 140.673,126.125 139.615,122.000 138.696 C 110.442 136.120,101.535 133.578,101.167 132.750 C 99.235 128.403,97.798 132.712,98.440 140.927 M234.553 155.500 C 235.498 157.975,236.624 160.000,237.054 160.000 C 237.485 160.000,238.796 162.882,239.968 166.404 C 241.140 169.927,242.977 173.820,244.050 175.057 C 246.852 178.289,246.569 180.201,243.344 179.816 C 241.261 179.568,240.395 178.648,239.327 175.548 C 238.578 173.375,237.576 171.350,237.100 171.048 C 236.625 170.747,235.480 168.250,234.556 165.500 C 233.632 162.750,232.091 159.150,231.131 157.500 C 227.924 151.987,227.821 151.000,230.449 151.000 C 232.355 151.000,233.180 151.904,234.553 155.500 M221.000 153.417 C 221.000 154.196,221.352 154.983,221.782 155.167 C 222.212 155.350,224.105 159.100,225.989 163.500 C 227.873 167.900,229.690 171.725,230.026 172.000 C 230.914 172.726,234.152 181.181,233.711 181.622 C 231.686 183.648,221.002 183.069,220.151 180.888 C 217.032 172.898,215.388 169.346,214.269 168.180 C 213.573 167.454,212.714 165.654,212.361 164.180 C 212.008 162.706,211.164 160.375,210.486 159.000 C 207.120 152.175,207.219 152.000,214.433 152.000 C 219.432 152.000,221.000 152.338,221.000 153.417 M297.436 164.250 C 301.915 185.502,301.250 228.607,296.368 233.489 C 295.616 234.241,295.000 235.282,295.000 235.801 C 295.000 237.589,290.932 245.939,289.681 246.719 C 288.992 247.148,287.432 248.798,286.214 250.385 C 284.996 251.972,284.000 252.767,284.000 252.152 C 284.000 250.794,275.743 246.515,271.250 245.544 C 269.462 245.157,268.000 244.427,268.000 243.921 C 268.000 243.414,267.325 243.000,266.500 243.000 C 264.401 243.000,264.610 246.922,266.750 247.693 C 268.407 248.289,281.633 261.538,289.757 270.740 C 291.815 273.072,294.738 276.210,296.250 277.713 C 297.762 279.216,299.000 280.973,299.000 281.617 C 299.000 282.261,300.273 284.151,301.829 285.816 C 305.011 289.223,310.000 299.638,310.000 302.875 C 310.000 304.044,310.450 305.000,311.000 305.000 C 311.550 305.000,312.000 306.800,312.000 309.000 C 312.000 311.200,311.550 313.000,311.000 313.000 C 310.450 313.000,309.990 313.788,309.978 314.750 C 309.891 321.689,299.241 333.789,289.000 338.586 C 287.075 339.487,285.275 340.560,285.000 340.970 C 284.285 342.037,275.773 345.671,272.104 346.477 C 270.397 346.852,269.000 347.504,269.000 347.926 C 269.000 348.726,250.818 353.363,243.000 354.558 C 240.525 354.936,238.275 355.589,238.000 356.010 C 235.034 360.548,168.000 360.459,168.000 355.917 C 168.000 355.509,166.088 354.879,163.750 354.517 C 156.733 353.429,138.537 348.799,137.999 347.965 C 137.723 347.537,134.123 346.009,129.999 344.570 C 125.874 343.130,122.359 341.539,122.186 341.034 C 122.013 340.530,119.911 339.167,117.514 338.007 C 106.242 332.550,97.000 318.984,97.000 307.893 C 97.000 303.112,102.197 288.003,103.843 287.998 C 104.204 287.997,105.839 285.860,107.477 283.248 C 109.114 280.637,111.476 277.680,112.727 276.677 C 113.977 275.675,115.000 274.295,115.000 273.611 C 115.000 272.928,116.463 271.005,118.250 269.340 C 120.038 267.675,125.325 262.151,130.000 257.066 C 134.675 251.980,139.512 247.421,140.750 246.934 C 144.286 245.544,143.842 241.574,140.250 242.466 C 138.738 242.841,137.350 243.565,137.167 244.074 C 136.983 244.583,136.278 245.000,135.600 245.000 C 134.921 245.000,131.877 246.273,128.835 247.829 L 123.303 250.658 120.461 248.213 C 117.458 245.630,113.000 238.104,113.000 235.617 C 113.000 234.806,112.409 233.548,111.686 232.821 C 106.383 227.489,106.003 168.294,111.249 164.878 C 112.181 164.271,120.946 168.579,122.059 170.191 C 122.367 170.636,126.411 172.385,131.047 174.077 C 135.683 175.769,139.707 177.496,139.988 177.916 C 140.611 178.845,154.693 182.562,161.250 183.528 C 163.862 183.912,166.000 184.565,166.000 184.977 C 166.000 189.596,237.150 189.536,238.833 184.915 C 239.017 184.412,240.033 184.000,241.092 184.000 C 243.947 184.000,264.330 179.061,264.958 178.216 C 265.256 177.816,267.300 176.905,269.500 176.190 C 274.569 174.544,283.343 170.723,284.000 169.876 C 284.275 169.522,286.678 168.211,289.340 166.963 C 292.002 165.716,294.412 164.089,294.697 163.348 C 295.491 161.279,296.908 161.746,297.436 164.250 M324.993 173.233 C 328.527 176.911,332.000 184.783,332.000 189.115 C 332.000 190.152,332.450 191.000,333.000 191.000 C 333.550 191.000,334.000 192.350,334.000 194.000 C 334.000 195.650,333.550 197.000,333.000 197.000 C 332.450 197.000,332.000 198.088,332.000 199.417 C 332.000 205.842,323.008 218.593,317.170 220.446 C 315.977 220.825,315.000 221.554,315.000 222.067 C 315.000 222.580,314.597 223.000,314.104 223.000 C 313.601 223.000,313.273 213.912,313.354 202.250 C 313.434 190.838,313.136 177.528,312.692 172.674 L 311.883 163.847 316.566 166.591 C 319.141 168.101,322.933 171.089,324.993 173.233 M97.000 168.917 C 97.000 171.071,96.472 173.009,95.827 173.224 C 94.974 173.509,94.653 179.936,94.653 196.750 C 94.653 222.703,94.991 221.860,87.624 214.304 C 73.497 199.813,75.185 179.333,91.500 167.280 C 95.876 164.047,97.000 164.381,97.000 168.917 M229.250 196.656 C 226.341 197.281,226.407 198.546,229.500 201.412 C 235.939 207.380,228.716 214.708,220.578 210.464 C 213.772 206.915,215.048 221.798,222.102 228.240 C 228.048 233.672,239.532 234.743,242.980 230.187 C 243.266 229.809,244.400 229.016,245.500 228.425 C 250.589 225.690,252.626 214.104,249.425 206.104 C 246.638 199.138,237.535 194.875,229.250 196.656 M166.000 198.571 C 166.000 199.436,166.675 200.818,167.500 201.643 C 169.713 203.856,169.441 209.694,167.066 210.965 C 164.275 212.458,160.442 212.237,159.000 210.500 C 154.328 204.870,151.637 216.441,155.983 223.473 C 168.457 243.655,197.426 228.490,188.075 206.674 C 186.966 204.088,185.269 201.903,184.075 201.524 C 182.934 201.162,182.000 200.490,182.000 200.030 C 182.000 198.634,175.989 197.000,170.851 197.000 C 167.108 197.000,166.000 197.359,166.000 198.571 M179.727 255.250 C 170.822 263.683,180.749 275.178,192.249 269.750 C 195.157 268.378,195.966 266.427,195.986 260.735 C 196.011 253.885,185.067 250.193,179.727 255.250 M208.750 255.484 C 206.112 257.806,204.564 266.000,206.763 266.000 C 207.182 266.000,207.970 267.012,208.513 268.250 C 211.102 274.152,222.660 272.272,224.703 265.617 C 227.801 255.522,216.710 248.477,208.750 255.484 M279.500 301.861 C 276.200 302.739,273.253 303.796,272.952 304.211 C 272.244 305.184,251.853 308.667,241.500 309.584 C 237.100 309.974,233.179 310.789,232.786 311.396 C 231.794 312.931,163.188 312.902,162.198 311.367 C 161.814 310.772,157.000 309.965,151.500 309.574 C 146.000 309.183,136.579 308.219,130.564 307.432 C 124.549 306.644,119.036 306.000,118.314 306.000 C 116.060 306.000,116.877 307.752,119.430 308.393 C 120.767 308.729,122.454 309.584,123.180 310.294 C 124.484 311.569,145.491 318.000,148.354 318.000 C 149.167 318.000,149.983 318.443,150.167 318.985 C 150.693 320.540,175.080 323.903,191.000 324.616 C 209.768 325.457,244.929 322.007,246.993 319.123 C 247.272 318.733,252.144 317.133,257.820 315.566 C 263.496 313.999,268.671 312.215,269.320 311.601 C 269.969 310.988,273.531 309.257,277.236 307.756 C 280.941 306.256,284.879 304.121,285.986 303.014 C 289.514 299.486,288.863 299.371,279.500 301.861 " stroke="none" fill-rule="evenodd"></path>
</g>
</svg>