<svg id="svg" xmlns="http://www.w3.org/2000/svg" xmlns:xlink="http://www.w3.org/1999/xlink" width="400" height="400" viewBox="0, 0, 400,400"><g id="svgg"><path id="path0" d="M166.288 3.163 C 165.255 3.580,164.728 4.891,164.323 8.057 C 157.936 57.931,133.864 92.011,92.575 109.636 C 90.055 110.712,87.816 111.738,87.599 111.917 C 87.288 112.172,87.204 118.238,87.204 140.305 L 87.204 168.369 87.906 168.860 C 88.525 169.294,91.147 169.352,109.963 169.352 C 127.905 169.352,131.415 169.424,131.930 169.801 C 132.533 170.241,132.546 171.381,132.719 235.756 C 132.910 306.922,132.787 301.999,134.614 311.690 C 141.358 347.473,162.754 374.924,193.681 387.474 C 225.687 400.463,267.962 398.793,297.630 383.368 C 303.745 380.189,310.963 375.105,312.336 373.010 C 313.138 371.786,297.256 324.873,295.173 322.311 C 294.412 321.375,293.501 320.016,293.149 319.292 L 292.509 317.974 289.461 319.042 C 275.035 324.098,257.699 325.349,247.343 322.081 C 235.191 318.247,228.273 309.875,225.530 295.687 L 224.837 292.101 224.732 231.314 C 224.635 174.713,224.664 170.486,225.159 169.940 C 225.671 169.374,226.996 169.352,261.322 169.352 C 293.293 169.352,297.004 169.301,297.450 168.856 C 297.895 168.411,297.946 164.983,297.946 135.856 L 297.946 103.353 297.244 102.862 C 296.619 102.423,292.680 102.370,261.248 102.370 C 229.583 102.370,225.902 102.319,225.457 101.873 C 225.010 101.426,224.961 96.540,224.961 52.812 C 224.961 9.369,224.909 4.174,224.469 3.546 L 223.977 2.844 195.480 2.864 C 179.737 2.875,166.672 3.009,166.288 3.163 " stroke="none" fill="#000000" fill-rule="evenodd"></path></g></svg>