<svg xmlns="http://www.w3.org/2000/svg" width="400" height="400" viewBox="0, 0, 400,400">
<g>
<path d="M21.333 102.667 L 21.333 125.333 54.667 125.333 L 88.000 125.333 88.000 230.667 L 88.000 336.000 114.667 336.000 L 141.333 336.000 141.333 230.667 L 141.333 125.333 174.667 125.333 L 208.000 125.333 208.000 102.667 L 208.000 80.000 114.667 80.000 L 21.333 80.000 21.333 102.667 M280.000 82.827 C 194.162 97.551,189.912 189.238,273.333 226.667 C 311.414 243.752,323.745 257.874,316.249 275.815 C 306.948 298.075,259.498 298.782,227.333 277.140 L 216.000 269.514 216.000 295.801 L 216.000 322.088 226.177 326.160 C 281.869 348.443,354.278 329.514,368.263 289.015 C 383.182 245.817,364.754 213.081,310.643 186.655 C 280.178 171.777,268.444 161.409,268.444 149.368 C 268.444 124.294,306.852 115.502,346.475 131.507 L 362.860 138.125 362.096 113.840 L 361.333 89.555 349.855 86.238 C 333.818 81.604,297.475 79.829,280.000 82.827 " stroke="none" fill-rule="evenodd"></path>
</g>
</svg>