<svg width="100%" height="100%" viewBox="0 0 400 400" version="1.1" xmlns="http://www.w3.org/2000/svg" style="fill-rule:evenodd;clip-rule:evenodd;stroke-linejoin:round;stroke-miterlimit:2;">
<g>
<path d="M259,57C259,57.763 256.68,57.958 256.567,58C255.336,58.459 254.012,58.809 252.966,59.605C246.589,64.466 245.065,66.631 242,74C240.811,76.858 240.823,80.515 241,83.5C241.264,87.954 241.19,92.689 243.143,96.841C249.981,111.379 268.293,113.146 281.357,107.5C286.167,105.421 289.273,100.327 291.648,96.01C293.697,92.285 296.016,86.896 296,82.5C295.964,72.226 288.165,59.793 278,57C271.006,55.078 268.733,55.868 261.625,56.277C261.58,56.279 259,56.071 259,57M180.5,85C178.969,87.476 174.823,86.289 172,87C165.183,88.717 152.531,90.769 148.094,96.663C146.431,98.871 150.497,102.767 152,105C156.341,111.449 159.705,118.593 163.585,125.388C164.844,127.592 167.259,132.491 170.827,131.627C173.708,130.929 176.307,126.186 180.25,125.75C195.305,124.083 204.695,124.083 219.75,125.75C226.305,126.476 235.859,132.451 240.98,136C257.616,147.528 273.47,166.208 275.468,187.5L276.171,195L316,195L316,187C316,178.415 313.001,169.457 310,161.5C305.699,150.097 301.383,139.565 292.847,131C291.498,129.646 291.667,127.265 290.452,125.789C287.422,122.107 284.606,117.121 279.955,116.069C276.844,115.365 270.583,120 267.5,120C265.392,120 263.563,118.433 261.5,118C250.264,115.642 242.837,109.934 236.526,100.118C234.537,97.025 234.19,92.92 232,90C226.405,82.539 205.738,84 201.059,84C194.198,84 184.108,79.164 180.5,85M131.538,105.881C131.108,107.237 129.139,107.424 128.051,108.34C125.909,110.144 123.817,112.017 121.866,114.027C110.593,125.64 101.116,135.573 94.132,150C91.817,154.782 88.144,162.791 87.986,168.313C87.832,173.671 93.887,177.584 96.31,181.633C99.489,186.947 99.59,194.372 99.59,199.997C99.59,205.623 99.49,213.05 96.31,218.365C93.803,222.556 88.022,226.201 87.986,231.688C87.96,235.603 91.174,242.398 92.696,245.772C100.237,262.49 109.122,272.082 121.866,285.973C125.04,289.432 128.939,294.054 133.546,295.824C135.233,296.472 138.77,294.638 139.698,293.371C143.561,288.1 145.801,281.626 149,276C151.158,272.206 154.09,268.848 155.934,264.892C157.104,262.383 154.659,261.135 153.334,259.937C145.832,253.152 143.904,252.074 138,243.768C128.618,230.569 124.378,216.158 124.397,200C124.416,184.012 128.688,169.285 138,156.232C143.774,148.137 146.029,146.703 153.334,140.063C154.657,138.861 157.106,137.621 155.934,135.108C154.09,131.152 151.17,127.787 149,124C145.783,118.387 142.905,110.742 138.575,105.763C136.908,103.846 132.583,102.587 131.538,105.881M54,174C54,175.547 50.779,176.444 50.103,176.881C45.604,179.792 41.492,184.188 39,189C32.073,202.378 40.393,220.82 54.233,226.198C60.093,228.475 69.917,228.31 75.783,226.15C87.091,221.987 92.395,211.273 92.35,199.987C92.338,196.82 92.441,192.216 91.109,189.203C90.404,187.609 88.958,186.456 88,185C87.031,183.527 86.584,181.678 85.339,180.429C83.804,178.889 81.673,178.09 79.883,176.857C78.559,175.946 77.45,174.693 76,174C70.522,171.381 62.484,172.955 57,173.273C55.973,173.332 54,172.971 54,174M275.468,212.5C273.064,238.129 254.364,256.346 233.5,268.566C230.808,270.143 222.948,273.816 219.75,274.25C213.214,275.138 206.597,275.5 200,275.5C193.403,275.5 186.752,275.364 180.25,274.25C180.234,274.247 168.77,267.399 167.145,269.281C160.495,276.982 159.819,282.319 154.889,291C152.826,294.633 149.829,297.72 148.034,301.493C147.165,303.317 149.377,305.692 150.74,306.242C157.049,308.79 163.465,311.107 170,313C186.62,317.815 209.312,318.677 225.643,314.524C232.602,312.754 231.936,308.465 234.892,303C239.252,294.939 242.022,290.537 250.188,285.935C254.834,283.317 263.3,281.998 268.5,282C271.684,282.001 274.866,282.439 278,283C278.531,283.095 279.74,284.773 280.656,284.041C294.975,272.602 303.656,255.204 310,238.5C312.825,231.061 316,222.134 316,214L316,207L308,207C301.328,207 294.757,205 288.085,205L276.171,205L275.468,212.5M264,290C264,290.876 261.847,290.968 261.625,291C259.567,291.298 257.43,291.242 255.446,291.866C254.066,292.3 251.424,295.2 250.361,296C248.052,297.736 247.666,297.14 246,299.5C241.909,305.293 241.441,310.334 241,317.5C240.836,320.167 240.916,325.424 242,328C243.006,330.392 244.711,332.426 246,334.678C246.538,335.617 246.702,336.814 247.479,337.567C248.27,338.335 249.488,338.48 250.46,339C255.88,341.898 255.625,342.271 261.5,344C262.974,344.434 264.542,344.514 266,345C266.57,345.19 266.899,346 267.5,346C268.101,346 268.43,345.19 269,345C270.458,344.514 272.024,344.426 273.5,344C278.723,342.492 284.342,340.967 288.155,336.77C296.212,327.899 297.807,315.839 292.6,305.237C291.18,302.347 287.985,297.164 285.174,295.15C280.241,291.615 273.389,289.925 267.474,288.996C267.173,288.949 264,288.354 264,290"/>
</g>
</svg>
