<svg id="svg" version="1.1" width="515" height="515" xmlns="http://www.w3.org/2000/svg" xmlns:xlink="http://www.w3.org/1999/xlink" style="display: block;"><g id="svgg"><path id="path0" d="M174.000 96.000 C 174.000 96.550,172.875 97.000,171.500 97.000 C 170.125 97.000,169.000 97.450,169.000 98.000 C 169.000 98.550,167.875 99.000,166.500 99.000 C 165.125 99.000,164.000 99.482,164.000 100.071 C 164.000 101.456,161.456 104.000,160.071 104.000 C 159.482 104.000,159.000 104.675,159.000 105.500 C 159.000 106.325,158.550 107.000,158.000 107.000 C 157.450 107.000,157.000 107.900,157.000 109.000 C 157.000 110.100,156.550 111.000,156.000 111.000 C 155.450 111.000,155.000 112.125,155.000 113.500 C 155.000 115.056,154.433 116.000,153.500 116.000 C 152.567 116.000,152.000 116.944,152.000 118.500 C 152.000 119.875,151.550 121.000,151.000 121.000 C 150.450 121.000,150.000 122.125,150.000 123.500 C 150.000 125.056,149.433 126.000,148.500 126.000 C 147.567 126.000,147.000 126.944,147.000 128.500 C 147.000 129.875,146.550 131.000,146.000 131.000 C 145.450 131.000,145.000 132.575,145.000 134.500 C 145.000 136.425,144.550 138.000,144.000 138.000 C 143.450 138.000,143.000 139.125,143.000 140.500 C 143.000 142.056,142.433 143.000,141.500 143.000 C 140.667 143.000,140.000 143.889,140.000 145.000 C 140.000 146.100,139.550 147.000,139.000 147.000 C 138.450 147.000,138.000 148.125,138.000 149.500 C 138.000 151.056,137.433 152.000,136.500 152.000 C 135.675 152.000,135.000 152.675,135.000 153.500 C 135.000 154.325,134.550 155.000,134.000 155.000 C 133.450 155.000,133.000 155.900,133.000 157.000 C 133.000 158.100,132.550 159.000,132.000 159.000 C 131.450 159.000,131.000 160.125,131.000 161.500 C 131.000 163.056,130.433 164.000,129.500 164.000 C 128.649 164.000,128.000 164.897,128.000 166.071 C 128.000 168.285,125.836 171.000,124.071 171.000 C 123.482 171.000,123.000 172.026,123.000 173.279 C 123.000 174.533,122.100 176.207,121.000 177.000 C 119.900 177.793,119.000 179.467,119.000 180.721 C 119.000 182.080,118.395 183.000,117.500 183.000 C 116.650 183.000,116.000 183.896,116.000 185.067 C 116.000 186.204,114.425 188.620,112.500 190.435 C 110.575 192.251,109.000 194.503,109.000 195.440 C 109.000 197.105,106.778 200.000,105.500 200.000 C 104.108 200.000,102.000 202.968,102.000 204.929 C 102.000 206.103,101.351 207.000,100.500 207.000 C 99.675 207.000,99.000 207.470,99.000 208.045 C 99.000 209.403,94.403 214.000,93.045 214.000 C 92.470 214.000,92.000 215.125,92.000 216.500 C 92.000 217.875,91.550 219.000,91.000 219.000 C 90.450 219.000,90.000 219.675,90.000 220.500 C 90.000 221.325,89.530 222.000,88.955 222.000 C 87.597 222.000,83.000 226.597,83.000 227.955 C 83.000 228.530,82.518 229.000,81.929 229.000 C 80.544 229.000,78.000 231.544,78.000 232.929 C 78.000 233.518,77.530 234.000,76.955 234.000 C 75.597 234.000,71.000 238.597,71.000 239.955 C 71.000 240.530,70.325 241.000,69.500 241.000 C 68.675 241.000,68.000 241.450,68.000 242.000 C 68.000 242.550,67.208 243.000,66.240 243.000 C 65.273 243.000,63.135 244.565,61.490 246.478 C 59.846 248.392,57.938 249.967,57.250 249.978 C 56.563 249.990,56.000 250.675,56.000 251.500 C 56.000 252.333,55.111 253.000,54.000 253.000 C 52.900 253.000,52.000 253.450,52.000 254.000 C 52.000 254.550,51.325 255.000,50.500 255.000 C 49.272 255.000,49.000 256.722,49.000 264.500 C 49.000 272.278,49.272 274.000,50.500 274.000 C 51.395 274.000,52.000 274.920,52.000 276.279 C 52.000 277.533,52.900 279.207,54.000 280.000 C 55.100 280.793,56.000 282.017,56.000 282.721 C 56.000 283.424,56.482 284.000,57.071 284.000 C 58.456 284.000,61.000 286.544,61.000 287.929 C 61.000 288.518,62.125 289.000,63.500 289.000 C 64.875 289.000,66.000 289.450,66.000 290.000 C 66.000 290.615,71.000 291.000,79.000 291.000 C 87.000 291.000,92.000 290.615,92.000 290.000 C 92.000 289.450,93.125 289.000,94.500 289.000 C 96.056 289.000,97.000 288.433,97.000 287.500 C 97.000 286.567,97.944 286.000,99.500 286.000 C 100.875 286.000,102.000 285.550,102.000 285.000 C 102.000 284.450,103.125 284.000,104.500 284.000 C 106.056 284.000,107.000 283.433,107.000 282.500 C 107.000 281.675,107.450 281.000,108.000 281.000 C 108.550 281.000,109.000 281.675,109.000 282.500 C 109.000 283.325,108.550 284.000,108.000 284.000 C 107.444 284.000,107.000 286.667,107.000 290.000 C 107.000 294.667,106.667 296.000,105.500 296.000 C 104.333 296.000,104.000 297.333,104.000 302.000 C 104.000 305.333,103.556 308.000,103.000 308.000 C 102.444 308.000,102.000 310.667,102.000 314.000 C 102.000 318.667,101.667 320.000,100.500 320.000 C 99.272 320.000,99.000 321.722,99.000 329.500 C 99.000 335.167,98.596 339.000,98.000 339.000 C 97.376 339.000,97.000 344.833,97.000 354.500 C 97.000 364.167,97.376 370.000,98.000 370.000 C 98.588 370.000,99.000 373.500,99.000 378.500 C 99.000 385.389,99.284 387.000,100.500 387.000 C 101.611 387.000,102.000 388.167,102.000 391.500 C 102.000 393.975,102.450 396.000,103.000 396.000 C 103.550 396.000,104.000 397.800,104.000 400.000 C 104.000 402.889,104.417 404.000,105.500 404.000 C 106.333 404.000,107.000 404.889,107.000 406.000 C 107.000 407.100,107.450 408.000,108.000 408.000 C 108.550 408.000,109.000 409.125,109.000 410.500 C 109.000 411.875,109.450 413.000,110.000 413.000 C 110.550 413.000,111.000 414.125,111.000 415.500 C 111.000 416.875,111.482 418.000,112.071 418.000 C 113.836 418.000,116.000 420.715,116.000 422.929 C 116.000 424.103,116.649 425.000,117.500 425.000 C 118.325 425.000,119.000 425.470,119.000 426.045 C 119.000 427.403,123.597 432.000,124.955 432.000 C 125.530 432.000,126.000 432.482,126.000 433.071 C 126.000 434.836,128.715 437.000,130.929 437.000 C 132.103 437.000,133.000 437.649,133.000 438.500 C 133.000 439.433,133.944 440.000,135.500 440.000 C 136.875 440.000,138.000 440.450,138.000 441.000 C 138.000 441.550,139.125 442.000,140.500 442.000 C 141.875 442.000,143.000 442.450,143.000 443.000 C 143.000 443.550,144.575 444.000,146.500 444.000 C 148.944 444.000,150.000 444.452,150.000 445.500 C 150.000 446.773,152.500 447.000,166.500 447.000 C 180.500 447.000,183.000 446.773,183.000 445.500 C 183.000 444.452,184.056 444.000,186.500 444.000 C 188.425 444.000,190.000 443.550,190.000 443.000 C 190.000 442.450,191.800 442.000,194.000 442.000 C 196.200 442.000,198.000 441.550,198.000 441.000 C 198.000 440.450,198.900 440.000,200.000 440.000 C 201.111 440.000,202.000 439.333,202.000 438.500 C 202.000 437.567,202.944 437.000,204.500 437.000 C 205.875 437.000,207.000 436.550,207.000 436.000 C 207.000 435.450,207.675 435.000,208.500 435.000 C 209.325 435.000,210.000 434.325,210.000 433.500 C 210.000 432.667,210.889 432.000,212.000 432.000 C 213.100 432.000,214.000 431.550,214.000 431.000 C 214.000 430.450,214.675 430.000,215.500 430.000 C 216.325 430.000,217.000 429.550,217.000 429.000 C 217.000 428.450,217.739 428.000,218.642 428.000 C 220.403 428.000,226.000 422.682,226.000 421.009 C 226.000 420.454,226.471 420.000,227.048 420.000 C 228.413 420.000,238.000 410.413,238.000 409.048 C 238.000 408.471,238.454 408.000,239.009 408.000 C 240.682 408.000,246.000 402.403,246.000 400.642 C 246.000 399.739,246.450 399.000,247.000 399.000 C 247.550 399.000,248.000 398.518,248.000 397.929 C 248.000 396.544,250.544 394.000,251.929 394.000 C 252.518 394.000,253.000 392.974,253.000 391.721 C 253.000 390.467,253.900 388.793,255.000 388.000 C 256.100 387.207,257.000 385.533,257.000 384.279 C 257.000 383.026,257.482 382.000,258.071 382.000 C 259.836 382.000,262.000 379.285,262.000 377.071 C 262.000 375.897,262.649 375.000,263.500 375.000 C 264.325 375.000,265.000 374.325,265.000 373.500 C 265.000 372.675,265.450 372.000,266.000 372.000 C 266.550 372.000,267.000 371.100,267.000 370.000 C 267.000 368.900,267.450 368.000,268.000 368.000 C 268.550 368.000,269.000 367.325,269.000 366.500 C 269.000 365.675,269.675 365.000,270.500 365.000 C 271.433 365.000,272.000 364.056,272.000 362.500 C 272.000 361.125,272.450 360.000,273.000 360.000 C 273.550 360.000,274.000 359.100,274.000 358.000 C 274.000 356.889,274.667 356.000,275.500 356.000 C 276.395 356.000,277.000 355.080,277.000 353.721 C 277.000 352.467,277.900 350.793,279.000 350.000 C 280.100 349.207,281.000 347.533,281.000 346.279 C 281.000 344.920,281.605 344.000,282.500 344.000 C 283.433 344.000,284.000 343.056,284.000 341.500 C 284.000 340.125,284.450 339.000,285.000 339.000 C 285.550 339.000,286.000 337.875,286.000 336.500 C 286.000 334.944,286.567 334.000,287.500 334.000 C 288.433 334.000,289.000 333.056,289.000 331.500 C 289.000 330.125,289.450 329.000,290.000 329.000 C 290.550 329.000,291.000 328.100,291.000 327.000 C 291.000 325.900,291.450 325.000,292.000 325.000 C 292.550 325.000,293.000 323.875,293.000 322.500 C 293.000 320.944,293.567 320.000,294.500 320.000 C 295.433 320.000,296.000 319.056,296.000 317.500 C 296.000 316.125,296.450 315.000,297.000 315.000 C 297.550 315.000,298.000 313.875,298.000 312.500 C 298.000 310.944,298.567 310.000,299.500 310.000 C 300.433 310.000,301.000 309.056,301.000 307.500 C 301.000 306.125,301.450 305.000,302.000 305.000 C 302.550 305.000,303.000 303.425,303.000 301.500 C 303.000 299.575,303.450 298.000,304.000 298.000 C 304.550 298.000,305.000 296.875,305.000 295.500 C 305.000 293.944,305.567 293.000,306.500 293.000 C 307.333 293.000,308.000 292.111,308.000 291.000 C 308.000 289.900,308.450 289.000,309.000 289.000 C 309.550 289.000,310.000 287.875,310.000 286.500 C 310.000 284.944,310.567 284.000,311.500 284.000 C 312.548 284.000,313.000 282.944,313.000 280.500 C 313.000 278.575,313.450 277.000,314.000 277.000 C 314.636 277.000,315.000 284.833,315.000 298.500 C 315.000 312.167,315.364 320.000,316.000 320.000 C 316.556 320.000,317.000 322.667,317.000 326.000 C 317.000 330.667,317.333 332.000,318.500 332.000 C 319.611 332.000,320.000 333.167,320.000 336.500 C 320.000 338.975,320.450 341.000,321.000 341.000 C 321.550 341.000,322.000 342.589,322.000 344.531 C 322.000 346.748,322.559 348.277,323.500 348.638 C 324.426 348.994,325.000 350.513,325.000 352.607 C 325.000 354.473,325.450 356.000,326.000 356.000 C 326.550 356.000,327.000 356.900,327.000 358.000 C 327.000 359.100,327.450 360.000,328.000 360.000 C 328.550 360.000,329.000 360.675,329.000 361.500 C 329.000 362.325,329.675 363.000,330.500 363.000 C 331.351 363.000,332.000 363.897,332.000 365.071 C 332.000 367.032,334.108 370.000,335.500 370.000 C 336.334 370.000,339.000 372.666,339.000 373.500 C 339.000 374.538,341.763 377.000,342.929 377.000 C 343.518 377.000,344.000 377.675,344.000 378.500 C 344.000 379.433,344.944 380.000,346.500 380.000 C 347.875 380.000,349.000 380.450,349.000 381.000 C 349.000 381.550,349.900 382.000,351.000 382.000 C 352.100 382.000,353.000 382.450,353.000 383.000 C 353.000 383.550,354.800 384.000,357.000 384.000 C 359.889 384.000,361.000 384.417,361.000 385.500 C 361.000 386.652,362.278 387.000,366.500 387.000 C 369.525 387.000,372.000 387.450,372.000 388.000 C 372.000 388.588,375.500 389.000,380.500 389.000 C 385.500 389.000,389.000 388.588,389.000 388.000 C 389.000 387.422,392.167 387.000,396.500 387.000 C 402.500 387.000,404.000 386.700,404.000 385.500 C 404.000 384.452,405.056 384.000,407.500 384.000 C 409.425 384.000,411.000 383.550,411.000 383.000 C 411.000 382.450,412.575 382.000,414.500 382.000 C 416.425 382.000,418.000 381.550,418.000 381.000 C 418.000 380.450,419.125 380.000,420.500 380.000 C 421.875 380.000,423.000 379.518,423.000 378.929 C 423.000 377.164,425.715 375.000,427.929 375.000 C 429.068 375.000,430.000 374.518,430.000 373.929 C 430.000 372.306,432.646 370.000,434.507 370.000 C 436.299 370.000,444.000 362.731,444.000 361.039 C 444.000 360.468,444.482 360.000,445.071 360.000 C 446.836 360.000,449.000 357.285,449.000 355.071 C 449.000 353.932,449.482 353.000,450.071 353.000 C 451.836 353.000,454.000 350.285,454.000 348.071 C 454.000 346.932,454.450 346.000,455.000 346.000 C 455.550 346.000,456.000 344.875,456.000 343.500 C 456.000 341.944,456.567 341.000,457.500 341.000 C 458.333 341.000,459.000 340.111,459.000 339.000 C 459.000 337.900,459.450 337.000,460.000 337.000 C 460.550 337.000,461.000 334.750,461.000 332.000 C 461.000 329.250,461.450 327.000,462.000 327.000 C 462.611 327.000,463.000 322.333,463.000 315.000 C 463.000 307.667,462.611 303.000,462.000 303.000 C 461.450 303.000,461.000 301.425,461.000 299.500 C 461.000 297.575,460.550 296.000,460.000 296.000 C 459.450 296.000,459.000 295.325,459.000 294.500 C 459.000 293.675,458.325 293.000,457.500 293.000 C 456.675 293.000,456.000 292.550,456.000 292.000 C 456.000 291.450,454.165 291.000,451.922 291.000 C 447.894 291.000,440.000 296.934,440.000 299.961 C 440.000 300.532,438.875 301.000,437.500 301.000 C 436.125 301.000,435.000 301.450,435.000 302.000 C 435.000 302.550,434.518 303.000,433.929 303.000 C 432.763 303.000,430.000 305.462,430.000 306.500 C 430.000 307.538,427.237 310.000,426.071 310.000 C 425.482 310.000,425.000 310.482,425.000 311.071 C 425.000 312.691,422.355 315.000,420.500 315.000 C 418.645 315.000,416.000 317.309,416.000 318.929 C 416.000 319.518,415.325 320.000,414.500 320.000 C 413.675 320.000,413.000 320.450,413.000 321.000 C 413.000 321.550,411.875 322.000,410.500 322.000 C 408.944 322.000,408.000 322.567,408.000 323.500 C 408.000 324.690,406.556 325.000,401.000 325.000 C 396.689 325.000,394.000 324.588,394.000 323.929 C 394.000 323.339,393.357 322.214,392.571 321.429 C 391.786 320.643,390.661 320.000,390.071 320.000 C 389.482 320.000,389.000 318.425,389.000 316.500 C 389.000 314.575,388.550 313.000,388.000 313.000 C 387.422 313.000,387.000 309.833,387.000 305.500 C 387.000 299.500,386.700 298.000,385.500 298.000 C 384.207 298.000,384.000 294.556,384.000 273.000 C 384.000 257.000,383.640 248.000,383.000 248.000 C 382.355 248.000,382.000 237.000,382.000 217.000 C 382.000 197.000,381.645 186.000,381.000 186.000 C 380.444 186.000,380.000 183.333,380.000 180.000 C 380.000 175.333,379.667 174.000,378.500 174.000 C 377.417 174.000,377.000 172.889,377.000 170.000 C 377.000 167.800,376.550 166.000,376.000 166.000 C 375.450 166.000,375.000 165.100,375.000 164.000 C 375.000 162.889,374.333 162.000,373.500 162.000 C 372.605 162.000,372.000 161.080,372.000 159.721 C 372.000 158.467,371.100 156.793,370.000 156.000 C 368.900 155.207,368.000 153.983,368.000 153.279 C 368.000 152.576,367.325 152.000,366.500 152.000 C 365.675 152.000,365.000 151.550,365.000 151.000 C 365.000 150.450,363.875 150.000,362.500 150.000 C 360.944 150.000,360.000 149.433,360.000 148.500 C 360.000 147.667,359.111 147.000,358.000 147.000 C 356.900 147.000,356.000 146.550,356.000 146.000 C 356.000 145.394,351.667 145.000,345.000 145.000 C 338.333 145.000,334.000 145.394,334.000 146.000 C 334.000 146.550,332.875 147.000,331.500 147.000 C 330.125 147.000,329.000 147.576,329.000 148.279 C 329.000 148.983,328.100 150.207,327.000 151.000 C 325.900 151.793,325.000 153.017,325.000 153.721 C 325.000 154.424,324.518 155.000,323.929 155.000 C 322.164 155.000,320.000 157.715,320.000 159.929 C 320.000 161.103,319.351 162.000,318.500 162.000 C 317.675 162.000,317.000 162.873,317.000 163.941 C 317.000 165.009,316.550 166.160,316.000 166.500 C 315.450 166.840,315.000 167.991,315.000 169.059 C 315.000 170.127,314.550 171.000,314.000 171.000 C 313.450 171.000,313.000 172.125,313.000 173.500 C 313.000 175.056,312.433 176.000,311.500 176.000 C 310.567 176.000,310.000 176.944,310.000 178.500 C 310.000 179.875,309.550 181.000,309.000 181.000 C 308.450 181.000,308.000 182.125,308.000 183.500 C 308.000 185.056,307.433 186.000,306.500 186.000 C 305.667 186.000,305.000 186.889,305.000 188.000 C 305.000 189.100,304.550 190.000,304.000 190.000 C 303.450 190.000,303.000 191.125,303.000 192.500 C 303.000 193.875,302.550 195.000,302.000 195.000 C 301.450 195.000,301.000 196.125,301.000 197.500 C 301.000 199.056,300.433 200.000,299.500 200.000 C 298.567 200.000,298.000 200.944,298.000 202.500 C 298.000 203.875,297.550 205.000,297.000 205.000 C 296.450 205.000,296.000 206.125,296.000 207.500 C 296.000 209.056,295.433 210.000,294.500 210.000 C 293.667 210.000,293.000 210.889,293.000 212.000 C 293.000 213.100,292.550 214.000,292.000 214.000 C 291.450 214.000,291.000 215.125,291.000 216.500 C 291.000 217.875,290.550 219.000,290.000 219.000 C 289.450 219.000,289.000 220.125,289.000 221.500 C 289.000 223.056,288.433 224.000,287.500 224.000 C 286.567 224.000,286.000 224.944,286.000 226.500 C 286.000 227.875,285.550 229.000,285.000 229.000 C 284.450 229.000,284.000 230.125,284.000 231.500 C 284.000 233.056,283.433 234.000,282.500 234.000 C 281.667 234.000,281.000 234.889,281.000 236.000 C 281.000 237.100,280.550 238.000,280.000 238.000 C 279.450 238.000,279.000 239.125,279.000 240.500 C 279.000 241.875,278.550 243.000,278.000 243.000 C 277.450 243.000,277.000 244.125,277.000 245.500 C 277.000 247.056,276.433 248.000,275.500 248.000 C 274.567 248.000,274.000 248.944,274.000 250.500 C 274.000 251.875,273.550 253.000,273.000 253.000 C 272.450 253.000,272.000 254.125,272.000 255.500 C 272.000 257.056,271.433 258.000,270.500 258.000 C 269.667 258.000,269.000 258.889,269.000 260.000 C 269.000 261.100,268.550 262.000,268.000 262.000 C 267.450 262.000,267.000 263.125,267.000 264.500 C 267.000 265.875,266.550 267.000,266.000 267.000 C 265.450 267.000,265.000 268.125,265.000 269.500 C 265.000 271.056,264.433 272.000,263.500 272.000 C 262.567 272.000,262.000 272.944,262.000 274.500 C 262.000 275.875,261.550 277.000,261.000 277.000 C 260.450 277.000,260.000 277.900,260.000 279.000 C 260.000 280.100,259.550 281.000,259.000 281.000 C 258.450 281.000,258.000 282.125,258.000 283.500 C 258.000 285.056,257.433 286.000,256.500 286.000 C 255.649 286.000,255.000 286.897,255.000 288.071 C 255.000 290.285,252.836 293.000,251.071 293.000 C 250.482 293.000,250.000 294.125,250.000 295.500 C 250.000 296.875,249.550 298.000,249.000 298.000 C 248.450 298.000,248.000 299.125,248.000 300.500 C 248.000 301.875,247.550 303.000,247.000 303.000 C 246.450 303.000,246.000 304.125,246.000 305.500 C 246.000 306.875,245.518 308.000,244.929 308.000 C 243.164 308.000,241.000 310.715,241.000 312.929 C 241.000 314.068,240.518 315.000,239.929 315.000 C 238.164 315.000,236.000 317.715,236.000 319.929 C 236.000 321.068,235.550 322.000,235.000 322.000 C 234.450 322.000,234.000 323.125,234.000 324.500 C 234.000 325.875,233.518 327.000,232.929 327.000 C 231.164 327.000,229.000 329.715,229.000 331.929 C 229.000 333.103,228.351 334.000,227.500 334.000 C 226.675 334.000,226.000 334.675,226.000 335.500 C 226.000 336.325,225.550 337.000,225.000 337.000 C 224.450 337.000,224.000 337.900,224.000 339.000 C 224.000 340.100,223.550 341.000,223.000 341.000 C 222.450 341.000,222.000 341.675,222.000 342.500 C 222.000 343.325,221.518 344.000,220.929 344.000 C 219.164 344.000,217.000 346.715,217.000 348.929 C 217.000 350.068,216.518 351.000,215.929 351.000 C 214.164 351.000,212.000 353.715,212.000 355.929 C 212.000 357.068,211.550 358.000,211.000 358.000 C 210.450 358.000,210.000 358.675,210.000 359.500 C 210.000 360.325,209.424 361.000,208.721 361.000 C 208.017 361.000,206.793 361.900,206.000 363.000 C 205.207 364.100,203.983 365.000,203.279 365.000 C 202.576 365.000,202.000 365.470,202.000 366.045 C 202.000 369.174,197.039 372.000,191.545 372.000 C 188.495 372.000,186.000 371.550,186.000 371.000 C 186.000 370.450,185.325 370.000,184.500 370.000 C 183.567 370.000,183.000 369.056,183.000 367.500 C 183.000 366.125,182.550 365.000,182.000 365.000 C 181.444 365.000,181.000 362.333,181.000 359.000 C 181.000 354.333,180.667 353.000,179.500 353.000 C 178.244 353.000,178.000 350.889,178.000 340.000 C 178.000 329.111,178.244 327.000,179.500 327.000 C 180.728 327.000,181.000 325.278,181.000 317.500 C 181.000 311.833,181.404 308.000,182.000 308.000 C 182.556 308.000,183.000 305.333,183.000 302.000 C 183.000 297.333,183.333 296.000,184.500 296.000 C 185.700 296.000,186.000 294.500,186.000 288.500 C 186.000 284.167,186.422 281.000,187.000 281.000 C 187.550 281.000,188.000 278.975,188.000 276.500 C 188.000 274.025,188.450 272.000,189.000 272.000 C 189.556 272.000,190.000 269.333,190.000 266.000 C 190.000 261.333,190.333 260.000,191.500 260.000 C 192.633 260.000,193.000 258.778,193.000 255.000 C 193.000 252.250,193.450 250.000,194.000 250.000 C 194.550 250.000,195.000 247.975,195.000 245.500 C 195.000 242.167,195.389 241.000,196.500 241.000 C 197.633 241.000,198.000 239.778,198.000 236.000 C 198.000 233.250,198.450 231.000,199.000 231.000 C 199.550 231.000,200.000 228.975,200.000 226.500 C 200.000 224.025,200.450 222.000,201.000 222.000 C 201.550 222.000,202.000 219.750,202.000 217.000 C 202.000 213.222,202.367 212.000,203.500 212.000 C 204.633 212.000,205.000 210.778,205.000 207.000 C 205.000 204.250,205.450 202.000,206.000 202.000 C 206.550 202.000,207.000 199.975,207.000 197.500 C 207.000 194.167,207.389 193.000,208.500 193.000 C 209.633 193.000,210.000 191.778,210.000 188.000 C 210.000 185.250,210.450 183.000,211.000 183.000 C 211.550 183.000,212.000 180.975,212.000 178.500 C 212.000 176.025,212.450 174.000,213.000 174.000 C 213.578 174.000,214.000 170.833,214.000 166.500 C 214.000 160.500,214.300 159.000,215.500 159.000 C 216.781 159.000,217.000 156.222,217.000 140.000 C 217.000 123.778,216.781 121.000,215.500 121.000 C 214.452 121.000,214.000 119.944,214.000 117.500 C 214.000 115.575,213.550 114.000,213.000 114.000 C 212.450 114.000,212.000 112.875,212.000 111.500 C 212.000 110.125,211.550 109.000,211.000 109.000 C 210.450 109.000,210.000 107.875,210.000 106.500 C 210.000 105.125,209.518 104.000,208.929 104.000 C 207.544 104.000,205.000 101.456,205.000 100.071 C 205.000 99.482,204.325 99.000,203.500 99.000 C 202.675 99.000,202.000 98.550,202.000 98.000 C 202.000 97.450,201.100 97.000,200.000 97.000 C 198.900 97.000,198.000 96.550,198.000 96.000 C 198.000 95.389,193.333 95.000,186.000 95.000 C 178.667 95.000,174.000 95.389,174.000 96.000 " stroke="none" fill="#000000" fill-rule="evenodd"></path></g></svg>