<svg version="1.1" width="400" height="400" viewBox="0 0 400 400" xmlns="http://www.w3.org/2000/svg" ><g><path d="M308.635 156.316 C 303.750 158.517,306.051 164.431,311.934 164.794 C 317.601 165.143,317.565 165.046,317.567 179.902 C 317.570 195.498,318.394 197.705,324.870 199.441 C 326.353 199.839,326.548 199.960,325.739 199.981 C 324.065 200.023,321.282 201.524,319.913 203.124 C 317.652 205.765,317.565 206.372,317.565 219.575 C 317.565 234.554,317.552 234.588,311.640 234.885 C 306.189 235.158,303.996 240.225,308.117 243.023 C 309.775 244.149,321.284 243.949,323.826 242.750 C 329.835 239.916,330.224 238.668,330.435 221.549 C 330.641 204.839,330.735 204.522,335.478 204.522 C 338.406 204.522,340.519 202.554,340.519 199.826 C 340.519 197.100,338.470 195.130,335.635 195.130 C 330.749 195.130,330.641 194.777,330.435 178.087 C 330.280 165.589,330.191 163.846,329.645 162.636 C 328.627 160.382,326.795 158.458,324.464 157.196 L 322.261 156.003 316.000 155.911 C 311.160 155.840,309.489 155.932,308.635 156.316 M232.845 156.832 C 232.066 157.186,230.941 158.067,230.345 158.790 C 224.852 165.454,233.950 174.260,240.352 168.476 C 246.240 163.158,240.051 153.559,232.845 156.832 M210.609 157.520 C 207.520 159.439,207.304 160.299,207.304 170.726 L 207.304 179.197 205.788 178.308 C 190.088 169.107,169.295 181.569,169.304 200.172 C 169.314 218.844,188.775 230.956,205.371 222.619 C 207.731 221.434,208.001 221.367,208.180 221.931 C 209.748 226.872,217.925 225.931,219.145 220.669 C 219.599 218.714,219.570 162.954,219.115 161.315 C 218.090 157.625,213.638 155.639,210.609 157.520 M256.934 174.615 C 255.346 175.091,253.537 176.684,252.839 178.220 C 251.757 180.605,251.829 220.284,252.920 222.538 C 254.870 226.567,260.599 227.405,263.721 224.118 C 265.670 222.066,265.739 221.554,265.741 209.142 C 265.742 202.360,265.889 197.214,266.103 196.444 C 268.068 189.367,279.613 187.814,283.989 194.037 L 285.043 195.536 285.217 208.290 C 285.382 220.329,285.432 221.120,286.111 222.416 C 288.901 227.734,296.794 227.215,298.461 221.605 C 298.708 220.773,298.794 215.823,298.716 206.957 L 298.599 193.565 297.589 190.660 C 293.489 178.860,281.518 173.730,268.013 177.987 C 266.000 178.621,265.205 178.745,265.103 178.440 C 264.198 175.725,259.915 173.720,256.934 174.615 M13.739 175.187 C 11.193 176.529,10.087 178.333,10.087 181.143 C 10.087 182.849,27.570 221.376,29.575 224.087 C 31.706 226.970,37.678 226.742,39.427 223.712 C 41.087 220.838,58.476 182.993,58.657 181.862 C 59.465 176.810,53.366 172.824,48.864 175.463 C 47.090 176.503,46.777 177.080,39.815 192.174 C 36.991 198.296,34.577 203.423,34.451 203.568 C 34.324 203.713,31.514 198.000,28.207 190.872 C 24.899 183.745,21.826 177.426,21.377 176.832 C 19.797 174.737,16.101 173.941,13.739 175.187 M232.767 175.349 C 230.932 176.257,229.742 177.763,229.227 179.826 C 228.536 182.595,228.892 220.770,229.621 222.087 C 232.560 227.395,240.472 226.870,242.105 221.257 C 242.348 220.422,242.436 213.095,242.366 199.423 L 242.261 178.847 241.197 177.510 C 239.035 174.794,235.644 173.925,232.767 175.349 M78.511 176.197 C 66.539 179.098,58.329 190.986,59.855 203.213 C 61.959 220.064,79.972 229.936,95.251 222.609 C 98.720 220.946,98.220 220.969,99.082 222.432 C 101.064 225.791,105.902 225.905,108.080 222.644 C 109.106 221.108,109.304 198.591,108.328 194.435 C 105.276 181.440,91.543 173.040,78.511 176.197 M133.217 176.197 C 120.831 179.430,112.654 192.002,114.892 204.372 C 117.866 220.805,135.222 229.722,150.246 222.535 C 152.156 221.621,153.235 221.270,153.323 221.533 C 154.738 225.781,161.182 226.112,163.154 222.038 C 164.293 219.685,164.029 196.888,162.820 193.217 C 158.628 180.488,145.562 172.976,133.217 176.197 M348.341 176.464 C 345.012 177.980,343.668 182.483,345.696 185.331 C 346.178 186.007,350.256 188.381,358.936 193.037 C 365.835 196.738,371.440 199.801,371.392 199.843 C 371.344 199.885,365.711 202.924,358.874 206.596 C 345.533 213.761,345.096 214.079,344.783 216.860 C 344.220 221.849,348.776 224.911,353.467 222.697 C 359.048 220.062,388.096 204.062,388.909 203.175 C 390.645 201.279,390.502 197.862,388.614 196.126 C 388.085 195.640,379.758 190.980,370.109 185.771 C 351.504 175.726,350.709 175.387,348.341 176.464 M89.565 189.541 C 97.154 193.078,98.840 202.781,92.897 208.723 C 85.396 216.225,72.696 210.959,72.696 200.348 C 72.696 191.487,81.559 185.809,89.565 189.541 M144.586 189.593 C 155.679 194.939,152.320 211.477,140.014 212.100 C 136.394 212.283,133.978 211.427,131.359 209.033 C 121.306 199.845,132.307 183.677,144.586 189.593 M199.154 189.607 C 206.488 193.030,208.264 202.884,202.573 208.576 C 195.398 215.751,183.289 211.139,182.683 200.999 C 182.154 192.153,191.202 185.895,199.154 189.607 " stroke="none" fill-rule="evenodd"></path><path d="" stroke="none" fill="#151515" fill-rule="evenodd"></path></g></svg>