<svg width="100%" height="100%" viewBox="0 0 400 400" version="1.1" xmlns="http://www.w3.org/2000/svg" style="fill-rule:evenodd;clip-rule:evenodd;stroke-linejoin:round;stroke-miterlimit:2;">
    <g>
        <path d="M63.2,21C63.2,24.497 56.785,23.825 53.772,25.6C49.302,28.234 45.259,31.548 40.8,34.2C35.216,37.521 28.76,39.46 23.672,43.5C21.073,45.564 21.735,59.331 21.743,59.568C21.92,65.187 21.704,70.886 22.8,76.4C23.352,79.178 25.467,81.404 26.6,84C29.602,90.876 32.339,97.864 35.2,104.8C41.139,119.198 47.063,133.602 53,148C72.463,195.202 92.029,242.36 111.4,289.6C117.994,305.68 122.431,328.694 135.505,341.137C142.785,348.066 155.381,352.127 163.2,356.6C164.796,357.513 165.662,359.392 167.2,360.4C173.19,364.325 179.784,367.244 186,370.8C187.207,371.49 188.314,372.823 189.7,372.723L191.4,372.6L191.502,326.3C191.536,310.864 191.173,295.387 192.402,280C192.546,278.198 198.26,275.926 199.2,275.4C202.601,273.497 220.692,263.15 223.6,260.428C227.093,257.158 229.423,248.418 231.2,244.4C237.656,229.802 244.497,215.377 251,200.8C260.497,179.51 269.757,158.114 279.2,136.8C281.424,131.781 283.739,126.803 286,121.8C286.873,119.869 286.481,116 288.6,116L289.6,116L289.6,84L290.6,84C291.747,84 292.426,82.606 293.4,82C296.496,80.072 299.634,78.211 302.8,76.4C316.635,68.487 330.528,60.675 344.4,52.828C348.794,50.342 353.305,48.054 357.6,45.4C358.727,44.704 359.714,42.4 361.4,42.4L363.2,42.4L363.2,38.8L361.428,38.8C358.459,38.8 353.96,34.516 351.8,33.2C343.297,28.019 332.887,20.372 322,22.8C319.043,23.46 316.79,26.934 314.4,28.4C305.275,33.999 295.128,37.805 286,43.4C284.392,44.385 283.634,46.459 282,47.4C279.146,49.043 275.696,49.433 272.8,51C267.529,53.851 262.702,57.456 257.6,60.6C256.1,61.524 254.761,63.2 253,63.2L252,63.2L252,97.144L251.1,97.272C248.332,97.665 248.523,102.239 247.4,104.8C244.088,112.352 241.025,120.011 237.8,127.6C228.676,149.067 220.494,169.921 211.4,191.6C208.69,198.061 202.983,203.463 202,210.4C201.073,216.94 201.2,223.595 201.2,230.2L201.2,250L200.2,250C199.053,250 198.368,251.384 197.4,252C194.856,253.619 192.251,255.139 189.672,256.7C182.062,261.307 170.089,271.179 159.6,268C158.502,267.667 158.141,266.211 157.6,265.2C155.602,261.467 153.83,257.618 152,253.8C142.197,233.352 143.066,233.108 134,212.4C130.101,203.494 125.546,194.885 121.6,186C115.478,172.216 109.816,158.231 103.8,144.4C101.349,138.764 98.802,133.169 96.2,127.6C95.001,125.034 92.921,122.784 92.4,120C91.391,114.604 91.276,91.396 92.4,86C93.032,82.969 98.691,80.386 100.8,79.222C106.523,76.063 112.386,73.149 118,69.8C120.855,68.097 125.316,63.2 129.2,63.2L131.2,63.2L131.2,60.4C131.2,55.883 125.47,55.509 122.6,54C118.508,51.848 114.232,49.988 110.4,47.4C108.92,46.401 108.236,44.457 106.728,43.5C101.243,40.019 95.224,37.452 89.6,34.2C80.03,28.667 80.559,28.099 70.8,22.8C69.48,22.083 68.13,21.414 66.736,20.855C65.641,20.416 63.2,19.82 63.2,21M374.8,41.6C374.8,42.831 371.011,43.29 370.8,43.4C366.301,45.754 361.966,48.408 357.6,51C337.803,62.754 338.01,62.752 318,73.8C313.588,76.236 309.096,78.538 304.8,81.172C303.062,82.238 299.859,86 297.4,86L295.6,86L295.6,116L294.6,116C294.018,118.026 293.433,120.063 292.6,122C290.562,126.74 288.144,131.307 286,136C276.976,155.75 268.326,175.521 259.6,195.4C249.983,217.309 240.499,242.213 228.4,263.2C226.873,265.849 224.43,266.553 222,268C216.243,271.428 210.61,275.063 204.8,278.4C203.511,279.14 196.585,281.495 196.372,284C194.991,300.277 195.6,316.665 195.6,333L195.6,382L198.2,382C201.519,382 205.28,378.4 208.6,378.4L210.4,378.4L210.4,374.4L212.2,374.4C215.069,374.4 218.765,370.8 221.828,370.8L223.6,370.8L223.6,366.8L225.4,366.8C227.341,366.8 228.888,365.158 231.2,365.069L233,365L233.244,361.2L235.022,361.2C237.906,361.2 240.36,357.6 243.4,357.6L246.4,357.6L246.4,353.6L248.2,353.6C251.099,353.6 253.551,350 256.6,350L259.6,350L259.6,346.4L261.4,346.4C263.816,346.4 264.584,342.4 267,342.4L268.8,342.4L268.8,333.244L272.6,333L272.669,331.2C272.707,330.21 272.752,328.095 272.769,326.5L272.8,323.6L276.4,323.6L276.4,314L280,314L280,312.2C280,310.547 280.081,310.4 281,310.4L282,310.4L282,300.8L286.06,300.8L285.993,299.1C285.956,298.165 285.943,296.095 285.963,294.5L286,291.6L289.6,291.6L289.6,289.827C289.6,288.199 289.51,288.039 288.5,287.887L287.4,287.72L288.5,287.66C289.904,287.583 289.802,285.158 290.6,284C291.109,283.261 292.085,282.84 292.4,282C293.314,279.562 293.206,276.806 294.2,274.4C294.526,273.611 295.727,273.511 296.2,272.8C298.661,269.099 299.108,266.681 299.164,262.3L299.2,259.6L302.8,259.6L302.8,250L306.859,250L306.794,248.1C306.722,246.013 306.545,243.906 306.816,241.835C307.295,238.173 312.099,244.331 312.4,240.646C312.657,237.49 310.4,238.106 310.4,234.972L310.4,231.2L314,231.2L314,229.428C314,227.908 313.872,227.631 313.1,227.482L312.2,227.309L313.1,227.254C313.717,227.217 316,221.079 316,220.8L316,218L320,218L320,216.227C320,214.599 319.91,214.439 318.9,214.287L317.8,214.12L318.9,214.06C319.99,214.001 320,213.973 320,211.2L320,208.4L323.6,208.4L323.6,199.2L324.6,199.2C325.682,199.2 326.341,200.8 327.423,200.8L329.246,200.8L329.123,199.1C329.083,198.539 327.117,195.64 326.3,195.482L325.4,195.309L326.3,195.254C327.355,195.191 328.026,191.903 328.2,191.6C331.606,185.678 333.096,186.242 333.169,179.3L333.2,176.4L336.8,176.4L336.8,166.8L340.4,166.8L340.4,163.2C340.4,161.843 346.163,154.319 343.3,153.887L342.2,153.72L343.3,153.66C344.326,153.604 344.4,153.481 344.4,151.818L344.4,150.037L347.1,149.918L349.8,149.8L349.923,148.1C350.003,146.998 347.735,146.473 348,145.4C348.245,144.406 352.739,141.267 348.9,140.687L347.8,140.52L348.9,140.46C349.99,140.401 350,140.373 350,137.6L350,134.8L353.6,134.8L353.6,130.2C353.6,128.634 353.457,126.718 354.553,125.6C355.516,124.618 357.105,127.946 358.316,127.294C360.834,125.939 359.043,122.27 356.5,121.887L355.4,121.72L356.5,121.66C357.59,121.601 357.6,121.573 357.6,118.8L357.6,116L361.2,116L361.2,106.844L365,106.6L365,104.699C365,102.387 366.8,100.312 366.8,98L366.8,93.2L370.8,93.2L370.8,84L374.4,84L374.4,82.228C374.4,80.708 374.272,80.431 373.5,80.282L372.6,80.109L373.5,80.054C374.508,79.994 375.469,74.4 377.4,74.4L378.4,74.4L378.4,40.8L376.6,40.8C375.067,40.8 374.8,40.919 374.8,41.6M140.8,62.4C140.8,64.637 132.018,67.53 131.2,68C122.421,73.037 113.555,77.922 104.8,83C103.588,83.703 100.061,88 98.195,88L97.191,88L97.295,103.9L97.4,119.8L98.3,119.928C99.489,120.096 102.642,128.832 102.8,129.2C106.29,137.352 109.816,145.489 113.4,153.6C124.016,177.623 134.7,201.615 145.4,225.6C149.773,235.404 154.835,244.889 159.277,254.661C160.26,256.824 161.6,259.024 161.6,261.4L161.6,263.2L165.2,263.2C170.699,263.2 188.685,250.512 189.6,250C191.787,248.776 193.694,246.4 196.2,246.4L197.2,246.4L197.2,208.8L196.2,208.8C194.862,208.8 193.649,201.342 192.3,201.082L191.4,200.909L192.3,200.854C193.092,200.807 193.2,200.584 193.2,199L193.2,197.2L189.6,197.2L189.6,194.4C189.6,194.05 187.329,188.003 186.7,187.882L185.8,187.709L186.7,187.654C187.492,187.607 187.6,187.384 187.6,185.8L187.6,184L184,184L184,181.2C184,180.707 181.747,174.814 180.9,174.687L179.8,174.52L180.9,174.46C181.928,174.404 182,174.282 182,172.6L182,170.8L178.4,170.8L178.4,168C178.4,167.507 176.147,161.614 175.3,161.487L174.2,161.32L175.3,161.26C176.328,161.204 176.4,161.082 176.4,159.4L176.4,157.6L172.8,157.6L172.8,154.8C172.8,154.307 170.547,148.414 169.7,148.287L168.6,148.12L169.7,148.06C170.728,148.004 170.8,147.882 170.8,146.2L170.8,144.4L166.8,144.4L166.8,141.6C166.8,141.055 165.098,135.237 164.1,135.087L163,134.92L164.1,134.86C165.128,134.804 165.2,134.682 165.2,133L165.2,131.2L161.2,131.2L161.2,128.4C161.2,127.855 159.498,122.037 158.5,121.887L157.4,121.72L158.5,121.66C159.954,121.581 159,118.531 158.221,117.302C157.133,115.586 155.665,114.13 154.6,112.4C154.318,111.942 153.764,108.887 152.7,108.682L151.8,108.509L152.7,108.454C153.492,108.407 153.6,108.184 153.6,106.6L153.6,104.8L150,104.8L150,103C150,101.337 148.599,99.98 148,98.428C147.63,97.47 148.108,95.676 147.1,95.482L146.2,95.309L147.1,95.254C149.695,95.099 147.284,92.415 147.2,91.6C146.688,86.619 146.4,81.607 146.4,76.6L146.4,61.6L143.6,61.6C141.067,61.6 140.8,61.676 140.8,62.4"/>
    </g>
</svg>
