<svg id="svg" version="1.1" width="400" height="400" xmlns="http://www.w3.org/2000/svg" xmlns:xlink="http://www.w3.org/1999/xlink" style="display: block;"><g id="svgg"><path id="path0" d="M56.000 1.000 C 56.000 1.550,54.650 2.000,53.000 2.000 C 51.000 2.000,50.000 2.500,50.000 3.500 C 50.000 4.548,48.944 5.000,46.500 5.000 C 43.667 5.000,43.000 5.381,43.000 7.000 C 43.000 8.333,42.333 9.000,41.000 9.000 C 39.889 9.000,39.000 9.667,39.000 10.500 C 39.000 11.503,37.997 12.000,35.969 12.000 C 34.197 12.000,32.698 12.623,32.362 13.500 C 32.034 14.355,30.542 15.000,28.893 15.000 C 26.667 15.000,26.000 15.461,26.000 17.000 C 26.000 18.619,25.333 19.000,22.500 19.000 C 20.056 19.000,19.000 19.452,19.000 20.500 C 19.000 21.333,18.111 22.000,17.000 22.000 C 15.667 22.000,15.000 22.667,15.000 24.000 C 15.000 25.556,14.333 26.000,12.000 26.000 C 10.000 26.000,9.000 26.500,9.000 27.500 C 9.000 28.333,8.111 29.000,7.000 29.000 C 5.056 29.000,5.000 29.667,5.000 53.000 C 5.000 76.333,5.056 77.000,7.000 77.000 C 8.619 77.000,9.000 77.667,9.000 80.500 C 9.000 82.944,9.452 84.000,10.500 84.000 C 11.633 84.000,12.000 85.222,12.000 89.000 C 12.000 92.778,12.367 94.000,13.500 94.000 C 14.548 94.000,15.000 95.056,15.000 97.500 C 15.000 100.333,15.381 101.000,17.000 101.000 C 18.733 101.000,19.000 101.667,19.000 106.000 C 19.000 109.778,19.367 111.000,20.500 111.000 C 21.548 111.000,22.000 112.056,22.000 114.500 C 22.000 117.333,22.381 118.000,24.000 118.000 C 25.733 118.000,26.000 118.667,26.000 123.000 C 26.000 126.778,26.367 128.000,27.500 128.000 C 28.548 128.000,29.000 129.056,29.000 131.500 C 29.000 133.944,29.452 135.000,30.500 135.000 C 31.510 135.000,32.000 136.010,32.000 138.094 C 32.000 140.346,32.544 141.329,34.000 141.710 C 35.656 142.143,36.000 143.074,36.000 147.117 C 36.000 150.791,36.371 152.000,37.500 152.000 C 38.548 152.000,39.000 153.056,39.000 155.500 C 39.000 158.333,39.381 159.000,41.000 159.000 C 42.733 159.000,43.000 159.667,43.000 164.000 C 43.000 167.778,43.367 169.000,44.500 169.000 C 45.548 169.000,46.000 170.056,46.000 172.500 C 46.000 175.333,46.381 176.000,48.000 176.000 C 49.733 176.000,50.000 176.667,50.000 181.000 C 50.000 184.778,50.367 186.000,51.500 186.000 C 52.548 186.000,53.000 187.056,53.000 189.500 C 53.000 191.944,53.452 193.000,54.500 193.000 C 55.548 193.000,56.000 194.056,56.000 196.500 C 56.000 199.333,56.381 200.000,58.000 200.000 C 59.733 200.000,60.000 200.667,60.000 205.000 C 60.000 208.778,60.367 210.000,61.500 210.000 C 62.548 210.000,63.000 211.056,63.000 213.500 C 63.000 216.333,63.381 217.000,65.000 217.000 C 66.733 217.000,67.000 217.667,67.000 222.000 C 67.000 225.778,67.367 227.000,68.500 227.000 C 69.548 227.000,70.000 228.056,70.000 230.500 C 70.000 233.333,70.381 234.000,72.000 234.000 C 73.733 234.000,74.000 234.667,74.000 239.000 C 74.000 242.778,74.367 244.000,75.500 244.000 C 76.548 244.000,77.000 245.056,77.000 247.500 C 77.000 249.944,77.452 251.000,78.500 251.000 C 79.548 251.000,80.000 252.056,80.000 254.500 C 80.000 257.333,80.381 258.000,82.000 258.000 C 83.733 258.000,84.000 258.667,84.000 263.000 C 84.000 266.778,84.367 268.000,85.500 268.000 C 86.548 268.000,87.000 269.056,87.000 271.500 C 87.000 274.333,87.381 275.000,89.000 275.000 C 90.733 275.000,91.000 275.667,91.000 280.000 C 91.000 283.778,91.367 285.000,92.500 285.000 C 93.548 285.000,94.000 286.056,94.000 288.500 C 94.000 290.944,94.452 292.000,95.500 292.000 C 96.637 292.000,97.000 293.233,97.000 297.094 C 97.000 301.346,97.330 302.274,99.000 302.710 C 100.417 303.081,101.000 304.074,101.000 306.117 C 101.000 308.013,101.513 309.000,102.500 309.000 C 103.548 309.000,104.000 310.056,104.000 312.500 C 104.000 315.333,104.381 316.000,106.000 316.000 C 107.733 316.000,108.000 316.667,108.000 321.000 C 108.000 324.778,108.367 326.000,109.500 326.000 C 110.548 326.000,111.000 327.056,111.000 329.500 C 111.000 332.333,111.381 333.000,113.000 333.000 C 114.758 333.000,115.000 333.667,115.000 338.500 C 115.000 342.722,115.348 344.000,116.500 344.000 C 117.500 344.000,118.000 345.000,118.000 347.000 C 118.000 349.000,118.500 350.000,119.500 350.000 C 120.548 350.000,121.000 351.056,121.000 353.500 C 121.000 356.333,121.381 357.000,123.000 357.000 C 124.333 357.000,125.000 357.667,125.000 359.000 C 125.000 360.619,125.667 361.000,128.500 361.000 C 130.944 361.000,132.000 361.452,132.000 362.500 C 132.000 363.325,132.623 364.000,133.383 364.000 C 134.144 364.000,135.002 364.900,135.290 366.000 C 135.671 367.456,136.654 368.000,138.906 368.000 C 140.990 368.000,142.000 368.490,142.000 369.500 C 142.000 370.548,143.056 371.000,145.500 371.000 C 147.944 371.000,149.000 371.452,149.000 372.500 C 149.000 373.548,150.056 374.000,152.500 374.000 C 155.333 374.000,156.000 374.381,156.000 376.000 C 156.000 377.111,156.667 378.000,157.500 378.000 C 158.325 378.000,159.000 378.675,159.000 379.500 C 159.000 380.548,160.056 381.000,162.500 381.000 C 165.333 381.000,166.000 381.381,166.000 383.000 C 166.000 384.619,166.667 385.000,169.500 385.000 C 171.944 385.000,173.000 385.452,173.000 386.500 C 173.000 387.488,173.988 388.000,175.893 388.000 C 177.542 388.000,179.034 388.645,179.362 389.500 C 179.678 390.325,180.626 391.000,181.469 391.000 C 182.333 391.000,183.000 391.871,183.000 393.000 C 183.000 394.619,183.667 395.000,186.500 395.000 C 188.944 395.000,190.000 395.452,190.000 396.500 C 190.000 397.548,191.056 398.000,193.500 398.000 C 195.425 398.000,197.000 398.450,197.000 399.000 C 197.000 399.550,198.350 400.000,200.000 400.000 C 201.650 400.000,203.000 399.550,203.000 399.000 C 203.000 398.450,204.575 398.000,206.500 398.000 C 208.944 398.000,210.000 397.548,210.000 396.500 C 210.000 395.667,210.889 395.000,212.000 395.000 C 213.333 395.000,214.000 394.333,214.000 393.000 C 214.000 391.440,214.667 391.000,217.031 391.000 C 218.803 391.000,220.302 390.377,220.638 389.500 C 220.966 388.645,222.458 388.000,224.107 388.000 C 226.012 388.000,227.000 387.488,227.000 386.500 C 227.000 385.452,228.056 385.000,230.500 385.000 C 233.333 385.000,234.000 384.619,234.000 383.000 C 234.000 381.667,234.667 381.000,236.000 381.000 C 237.111 381.000,238.000 380.333,238.000 379.500 C 238.000 378.500,239.000 378.000,241.000 378.000 C 243.333 378.000,244.000 377.556,244.000 376.000 C 244.000 374.381,244.667 374.000,247.500 374.000 C 249.944 374.000,251.000 373.548,251.000 372.500 C 251.000 371.452,252.056 371.000,254.500 371.000 C 256.813 371.000,258.000 370.531,258.000 369.617 C 258.000 368.856,258.900 367.998,260.000 367.710 C 261.100 367.423,262.000 366.470,262.000 365.594 C 262.000 364.490,262.922 364.000,265.000 364.000 C 267.000 364.000,268.000 363.500,268.000 362.500 C 268.000 361.452,269.056 361.000,271.500 361.000 C 274.333 361.000,275.000 360.619,275.000 359.000 C 275.000 357.667,275.667 357.000,277.000 357.000 C 278.619 357.000,279.000 356.333,279.000 353.500 C 279.000 351.056,279.452 350.000,280.500 350.000 C 281.633 350.000,282.000 348.778,282.000 345.000 C 282.000 341.222,282.367 340.000,283.500 340.000 C 284.548 340.000,285.000 338.944,285.000 336.500 C 285.000 333.667,285.381 333.000,287.000 333.000 C 288.733 333.000,289.000 332.333,289.000 328.000 C 289.000 324.222,289.367 323.000,290.500 323.000 C 291.548 323.000,292.000 321.944,292.000 319.500 C 292.000 316.667,292.381 316.000,294.000 316.000 C 295.733 316.000,296.000 315.333,296.000 311.000 C 296.000 307.222,296.367 306.000,297.500 306.000 C 298.548 306.000,299.000 304.944,299.000 302.500 C 299.000 299.667,299.381 299.000,301.000 299.000 C 302.619 299.000,303.000 298.333,303.000 295.500 C 303.000 293.056,303.452 292.000,304.500 292.000 C 305.633 292.000,306.000 290.778,306.000 287.000 C 306.000 283.222,306.367 282.000,307.500 282.000 C 308.548 282.000,309.000 280.944,309.000 278.500 C 309.000 275.667,309.381 275.000,311.000 275.000 C 312.733 275.000,313.000 274.333,313.000 270.000 C 313.000 266.222,313.367 265.000,314.500 265.000 C 315.548 265.000,316.000 263.944,316.000 261.500 C 316.000 258.667,316.381 258.000,318.000 258.000 C 319.733 258.000,320.000 257.333,320.000 253.000 C 320.000 249.222,320.367 248.000,321.500 248.000 C 322.548 248.000,323.000 246.944,323.000 244.500 C 323.000 242.056,323.452 241.000,324.500 241.000 C 325.633 241.000,326.000 239.778,326.000 236.000 C 326.000 231.667,326.267 231.000,328.000 231.000 C 329.619 231.000,330.000 230.333,330.000 227.500 C 330.000 225.056,330.452 224.000,331.500 224.000 C 332.633 224.000,333.000 222.778,333.000 219.000 C 333.000 214.667,333.267 214.000,335.000 214.000 C 336.619 214.000,337.000 213.333,337.000 210.500 C 337.000 208.056,337.452 207.000,338.500 207.000 C 339.548 207.000,340.000 205.944,340.000 203.500 C 340.000 200.667,340.381 200.000,342.000 200.000 C 343.733 200.000,344.000 199.333,344.000 195.000 C 344.000 191.222,344.367 190.000,345.500 190.000 C 346.548 190.000,347.000 188.944,347.000 186.500 C 347.000 184.056,347.452 183.000,348.500 183.000 C 349.633 183.000,350.000 181.778,350.000 178.000 C 350.000 173.667,350.267 173.000,352.000 173.000 C 353.619 173.000,354.000 172.333,354.000 169.500 C 354.000 167.056,354.452 166.000,355.500 166.000 C 356.629 166.000,357.000 164.791,357.000 161.117 C 357.000 157.074,357.344 156.143,359.000 155.710 C 360.456 155.329,361.000 154.346,361.000 152.094 C 361.000 150.010,361.490 149.000,362.500 149.000 C 363.652 149.000,364.000 147.722,364.000 143.500 C 364.000 138.667,364.242 138.000,366.000 138.000 C 367.556 138.000,368.000 137.333,368.000 135.000 C 368.000 133.000,368.500 132.000,369.500 132.000 C 370.548 132.000,371.000 130.944,371.000 128.500 C 371.000 126.056,371.452 125.000,372.500 125.000 C 373.629 125.000,374.000 123.791,374.000 120.117 C 374.000 116.074,374.344 115.143,376.000 114.710 C 377.456 114.329,378.000 113.346,378.000 111.094 C 378.000 109.010,378.490 108.000,379.500 108.000 C 380.652 108.000,381.000 106.722,381.000 102.500 C 381.000 97.667,381.242 97.000,383.000 97.000 C 384.556 97.000,385.000 96.333,385.000 94.000 C 385.000 92.000,385.500 91.000,386.500 91.000 C 387.652 91.000,388.000 89.722,388.000 85.500 C 388.000 81.278,388.348 80.000,389.500 80.000 C 390.548 80.000,391.000 78.944,391.000 76.500 C 391.000 73.667,391.381 73.000,393.000 73.000 C 394.939 73.000,395.000 72.333,395.000 51.000 C 395.000 29.667,394.939 29.000,393.000 29.000 C 391.889 29.000,391.000 28.333,391.000 27.500 C 391.000 26.500,390.000 26.000,388.000 26.000 C 385.667 26.000,385.000 25.556,385.000 24.000 C 385.000 22.381,384.333 22.000,381.500 22.000 C 379.056 22.000,378.000 21.548,378.000 20.500 C 378.000 19.452,376.944 19.000,374.500 19.000 C 371.667 19.000,371.000 18.619,371.000 17.000 C 371.000 15.900,370.373 15.000,369.607 15.000 C 368.841 15.000,367.955 14.325,367.638 13.500 C 367.302 12.623,365.803 12.000,364.031 12.000 C 362.003 12.000,361.000 11.503,361.000 10.500 C 361.000 9.452,359.944 9.000,357.500 9.000 C 354.667 9.000,354.000 8.619,354.000 7.000 C 354.000 5.667,353.333 5.000,352.000 5.000 C 350.889 5.000,350.000 4.333,350.000 3.500 C 350.000 2.500,349.000 2.000,347.000 2.000 C 345.350 2.000,344.000 1.550,344.000 1.000 C 344.000 0.450,342.425 0.000,340.500 0.000 C 338.575 0.000,337.000 0.450,337.000 1.000 C 337.000 1.550,335.425 2.000,333.500 2.000 C 331.056 2.000,330.000 2.452,330.000 3.500 C 330.000 4.548,328.944 5.000,326.500 5.000 C 323.667 5.000,323.000 5.381,323.000 7.000 C 323.000 8.111,322.333 9.000,321.500 9.000 C 320.675 9.000,320.000 9.675,320.000 10.500 C 320.000 11.548,318.944 12.000,316.500 12.000 C 314.056 12.000,313.000 12.452,313.000 13.500 C 313.000 14.548,311.944 15.000,309.500 15.000 C 306.667 15.000,306.000 15.381,306.000 17.000 C 306.000 18.111,305.333 19.000,304.500 19.000 C 303.675 19.000,303.000 19.675,303.000 20.500 C 303.000 21.548,301.944 22.000,299.500 22.000 C 296.667 22.000,296.000 22.381,296.000 24.000 C 296.000 25.619,295.333 26.000,292.500 26.000 C 290.056 26.000,289.000 26.452,289.000 27.500 C 289.000 28.548,287.944 29.000,285.500 29.000 C 283.056 29.000,282.000 29.452,282.000 30.500 C 282.000 31.325,281.325 32.000,280.500 32.000 C 279.667 32.000,279.000 32.889,279.000 34.000 C 279.000 35.619,278.333 36.000,275.500 36.000 C 273.056 36.000,272.000 36.452,272.000 37.500 C 272.000 38.548,270.944 39.000,268.500 39.000 C 265.667 39.000,265.000 39.381,265.000 41.000 C 265.000 42.111,264.333 43.000,263.500 43.000 C 262.675 43.000,262.000 43.675,262.000 44.500 C 262.000 45.548,260.944 46.000,258.500 46.000 C 255.667 46.000,255.000 46.381,255.000 48.000 C 255.000 49.333,254.333 50.000,253.000 50.000 C 251.889 50.000,251.000 50.667,251.000 51.500 C 251.000 52.325,250.325 53.000,249.500 53.000 C 248.215 53.000,248.000 55.944,248.000 73.500 C 248.000 93.333,247.935 94.000,246.000 94.000 C 244.381 94.000,244.000 94.667,244.000 97.500 C 244.000 99.944,243.548 101.000,242.500 101.000 C 241.452 101.000,241.000 102.056,241.000 104.500 C 241.000 106.944,240.548 108.000,239.500 108.000 C 238.367 108.000,238.000 109.222,238.000 113.000 C 238.000 117.333,237.733 118.000,236.000 118.000 C 234.381 118.000,234.000 118.667,234.000 121.500 C 234.000 123.944,233.548 125.000,232.500 125.000 C 231.452 125.000,231.000 126.056,231.000 128.500 C 231.000 131.333,230.619 132.000,229.000 132.000 C 227.267 132.000,227.000 132.667,227.000 137.000 C 227.000 140.778,226.633 142.000,225.500 142.000 C 224.452 142.000,224.000 143.056,224.000 145.500 C 224.000 147.944,223.548 149.000,222.500 149.000 C 221.452 149.000,221.000 150.056,221.000 152.500 C 221.000 155.333,220.619 156.000,219.000 156.000 C 217.267 156.000,217.000 156.667,217.000 161.000 C 217.000 164.778,216.633 166.000,215.500 166.000 C 214.452 166.000,214.000 167.056,214.000 169.500 C 214.000 172.333,213.619 173.000,212.000 173.000 C 210.440 173.000,210.000 173.667,210.000 176.031 C 210.000 177.803,209.377 179.302,208.500 179.638 C 207.449 180.042,207.000 181.680,207.000 185.107 C 207.000 189.333,206.728 190.000,205.000 190.000 C 203.381 190.000,203.000 190.667,203.000 193.500 C 203.000 195.944,202.548 197.000,201.500 197.000 C 200.675 197.000,200.000 197.675,200.000 198.500 C 200.000 199.325,199.325 200.000,198.500 200.000 C 197.452 200.000,197.000 198.944,197.000 196.500 C 197.000 193.667,196.619 193.000,195.000 193.000 C 193.267 193.000,193.000 192.333,193.000 188.000 C 193.000 184.222,192.633 183.000,191.500 183.000 C 190.452 183.000,190.000 181.944,190.000 179.500 C 190.000 176.667,189.619 176.000,188.000 176.000 C 186.381 176.000,186.000 175.333,186.000 172.500 C 186.000 170.056,185.548 169.000,184.500 169.000 C 183.367 169.000,183.000 167.778,183.000 164.000 C 183.000 159.667,182.733 159.000,181.000 159.000 C 179.381 159.000,179.000 158.333,179.000 155.500 C 179.000 153.056,178.548 152.000,177.500 152.000 C 176.452 152.000,176.000 150.944,176.000 148.500 C 176.000 146.056,175.548 145.000,174.500 145.000 C 173.367 145.000,173.000 143.778,173.000 140.000 C 173.000 135.667,172.733 135.000,171.000 135.000 C 169.381 135.000,169.000 134.333,169.000 131.500 C 169.000 129.056,168.548 128.000,167.500 128.000 C 166.367 128.000,166.000 126.778,166.000 123.000 C 166.000 118.667,165.733 118.000,164.000 118.000 C 162.381 118.000,162.000 117.333,162.000 114.500 C 162.000 112.056,161.548 111.000,160.500 111.000 C 159.452 111.000,159.000 109.944,159.000 107.500 C 159.000 105.056,158.548 104.000,157.500 104.000 C 156.490 104.000,156.000 102.990,156.000 100.906 C 156.000 98.654,155.456 97.671,154.000 97.290 C 152.344 96.857,152.000 95.926,152.000 91.883 C 152.000 88.209,151.629 87.000,150.500 87.000 C 149.221 87.000,149.000 84.278,149.000 68.500 C 149.000 50.667,148.928 50.000,147.000 50.000 C 145.667 50.000,145.000 49.333,145.000 48.000 C 145.000 46.381,144.333 46.000,141.500 46.000 C 139.056 46.000,138.000 45.548,138.000 44.500 C 138.000 43.500,137.000 43.000,135.000 43.000 C 132.922 43.000,132.000 42.510,132.000 41.406 C 132.000 40.530,131.100 39.577,130.000 39.290 C 128.900 39.002,128.000 38.144,128.000 37.383 C 128.000 36.469,126.813 36.000,124.500 36.000 C 121.667 36.000,121.000 35.619,121.000 34.000 C 121.000 32.461,120.333 32.000,118.107 32.000 C 116.458 32.000,114.966 31.355,114.638 30.500 C 114.322 29.675,113.374 29.000,112.531 29.000 C 111.689 29.000,111.000 28.325,111.000 27.500 C 111.000 26.452,109.944 26.000,107.500 26.000 C 104.667 26.000,104.000 25.619,104.000 24.000 C 104.000 22.381,103.333 22.000,100.500 22.000 C 98.056 22.000,97.000 21.548,97.000 20.500 C 97.000 19.500,96.000 19.000,94.000 19.000 C 91.922 19.000,91.000 18.510,91.000 17.406 C 91.000 16.530,90.100 15.577,89.000 15.290 C 87.900 15.002,87.000 14.144,87.000 13.383 C 87.000 12.469,85.813 12.000,83.500 12.000 C 81.056 12.000,80.000 11.548,80.000 10.500 C 80.000 9.452,78.944 9.000,76.500 9.000 C 73.667 9.000,73.000 8.619,73.000 7.000 C 73.000 5.889,72.333 5.000,71.500 5.000 C 70.675 5.000,70.000 4.325,70.000 3.500 C 70.000 2.452,68.944 2.000,66.500 2.000 C 64.575 2.000,63.000 1.550,63.000 1.000 C 63.000 0.450,61.425 0.000,59.500 0.000 C 57.575 0.000,56.000 0.450,56.000 1.000 " stroke="none" fill="#000000" fill-rule="evenodd"></path></g></svg>