<svg id="svg" version="1.1" width="400" height="400" viewBox="0 0 400 400" xmlns="http://www.w3.org/2000/svg" xmlns:xlink="http://www.w3.org/1999/xlink" ><g id="svgg"><path id="path0" d="M9.600 11.600 C 9.600 13.455,9.671 13.600,10.579 13.600 C 11.478 13.600,11.568 13.772,11.679 15.700 C 11.792 17.659,11.874 17.809,12.900 17.927 C 13.934 18.046,14.000 18.171,14.000 20.027 C 14.000 21.865,14.068 22.000,15.000 22.000 C 15.945 22.000,16.000 22.120,16.000 24.200 C 16.000 26.280,16.055 26.400,17.000 26.400 C 17.933 26.400,18.000 26.533,18.000 28.400 C 18.000 30.267,18.067 30.400,19.000 30.400 C 19.945 30.400,20.000 30.520,20.000 32.600 C 20.000 34.778,20.012 34.800,21.200 34.800 C 22.373 34.800,22.400 34.844,22.400 36.800 C 22.400 38.667,22.467 38.800,23.400 38.800 C 24.345 38.800,24.400 38.920,24.400 41.000 C 24.400 43.080,24.455 43.200,25.400 43.200 C 26.333 43.200,26.400 43.333,26.400 45.200 C 26.400 47.067,26.467 47.200,27.400 47.200 C 28.345 47.200,28.400 47.320,28.400 49.400 C 28.400 51.578,28.412 51.600,29.600 51.600 C 30.773 51.600,30.800 51.644,30.800 53.600 C 30.800 55.467,30.867 55.600,31.800 55.600 C 32.745 55.600,32.800 55.720,32.800 57.800 C 32.800 59.867,32.859 60.000,33.779 60.000 C 34.678 60.000,34.768 60.172,34.879 62.100 C 34.984 63.929,35.116 64.216,35.900 64.328 C 36.694 64.441,36.800 64.687,36.800 66.428 C 36.800 68.352,36.829 68.400,38.000 68.400 C 39.188 68.400,39.200 68.422,39.200 70.600 C 39.200 72.680,39.255 72.800,40.200 72.800 C 41.133 72.800,41.200 72.933,41.200 74.800 C 41.200 76.655,41.271 76.800,42.179 76.800 C 43.078 76.800,43.168 76.972,43.279 78.900 C 43.384 80.729,43.516 81.016,44.300 81.128 C 45.094 81.241,45.200 81.487,45.200 83.228 C 45.200 85.152,45.229 85.200,46.400 85.200 C 47.588 85.200,47.600 85.222,47.600 87.400 C 47.600 89.480,47.655 89.600,48.600 89.600 C 49.533 89.600,49.600 89.733,49.600 91.600 C 49.600 93.455,49.671 93.600,50.579 93.600 C 51.478 93.600,51.568 93.772,51.679 95.700 C 51.792 97.659,51.874 97.809,52.900 97.927 C 53.934 98.046,54.000 98.171,54.000 100.027 C 54.000 101.865,54.068 102.000,55.000 102.000 C 55.945 102.000,56.000 102.120,56.000 104.200 C 56.000 106.280,56.055 106.400,57.000 106.400 C 57.933 106.400,58.000 106.533,58.000 108.400 C 58.000 110.267,58.067 110.400,59.000 110.400 C 59.945 110.400,60.000 110.520,60.000 112.600 C 60.000 114.778,60.012 114.800,61.200 114.800 C 62.373 114.800,62.400 114.844,62.400 116.800 C 62.400 118.667,62.467 118.800,63.400 118.800 C 64.345 118.800,64.400 118.920,64.400 121.000 C 64.400 123.080,64.455 123.200,65.400 123.200 C 66.333 123.200,66.400 123.333,66.400 125.200 C 66.400 127.067,66.467 127.200,67.400 127.200 C 68.345 127.200,68.400 127.320,68.400 129.400 C 68.400 131.578,68.412 131.600,69.600 131.600 C 70.773 131.600,70.800 131.644,70.800 133.600 C 70.800 135.467,70.867 135.600,71.800 135.600 C 72.745 135.600,72.800 135.720,72.800 137.800 C 72.800 139.867,72.859 140.000,73.779 140.000 C 74.678 140.000,74.768 140.172,74.879 142.100 C 74.984 143.929,75.116 144.216,75.900 144.328 C 76.694 144.441,76.800 144.687,76.800 146.428 C 76.800 148.352,76.829 148.400,78.000 148.400 C 79.188 148.400,79.200 148.422,79.200 150.600 C 79.200 152.680,79.255 152.800,80.200 152.800 C 81.133 152.800,81.200 152.933,81.200 154.800 C 81.200 156.655,81.271 156.800,82.179 156.800 C 83.078 156.800,83.168 156.972,83.279 158.900 C 83.384 160.729,83.516 161.016,84.300 161.128 C 85.094 161.241,85.200 161.487,85.200 163.228 C 85.200 165.152,85.229 165.200,86.400 165.200 C 87.588 165.200,87.600 165.222,87.600 167.400 C 87.600 169.480,87.655 169.600,88.600 169.600 C 89.533 169.600,89.600 169.733,89.600 171.600 C 89.600 173.455,89.671 173.600,90.579 173.600 C 91.478 173.600,91.568 173.772,91.679 175.700 C 91.792 177.659,91.874 177.809,92.900 177.927 C 93.934 178.046,94.000 178.171,94.000 180.027 C 94.000 181.865,94.068 182.000,95.000 182.000 C 95.945 182.000,96.000 182.120,96.000 184.200 C 96.000 186.280,96.055 186.400,97.000 186.400 C 97.933 186.400,98.000 186.533,98.000 188.400 C 98.000 190.267,98.067 190.400,99.000 190.400 C 99.945 190.400,100.000 190.520,100.000 192.600 C 100.000 194.778,100.012 194.800,101.200 194.800 C 102.373 194.800,102.400 194.844,102.400 196.800 C 102.400 198.667,102.467 198.800,103.400 198.800 C 104.345 198.800,104.400 198.920,104.400 201.000 C 104.400 203.080,104.455 203.200,105.400 203.200 C 106.333 203.200,106.400 203.333,106.400 205.200 C 106.400 207.067,106.467 207.200,107.400 207.200 C 108.345 207.200,108.400 207.320,108.400 209.400 C 108.400 211.578,108.412 211.600,109.600 211.600 C 110.773 211.600,110.800 211.644,110.800 213.600 C 110.800 215.467,110.867 215.600,111.800 215.600 C 112.745 215.600,112.800 215.720,112.800 217.800 C 112.800 219.867,112.859 220.000,113.779 220.000 C 114.678 220.000,114.768 220.172,114.879 222.100 C 114.984 223.929,115.116 224.216,115.900 224.328 C 116.694 224.441,116.800 224.687,116.800 226.428 C 116.800 228.352,116.829 228.400,118.000 228.400 C 119.188 228.400,119.200 228.422,119.200 230.600 C 119.200 232.680,119.255 232.800,120.200 232.800 C 121.133 232.800,121.200 232.933,121.200 234.800 C 121.200 236.655,121.271 236.800,122.179 236.800 C 123.078 236.800,123.168 236.972,123.279 238.900 C 123.384 240.729,123.516 241.016,124.300 241.128 C 125.094 241.241,125.200 241.487,125.200 243.228 C 125.200 245.152,125.229 245.200,126.400 245.200 C 127.588 245.200,127.600 245.222,127.600 247.400 C 127.600 249.480,127.655 249.600,128.600 249.600 C 129.533 249.600,129.600 249.733,129.600 251.600 C 129.600 253.455,129.671 253.600,130.579 253.600 C 131.478 253.600,131.568 253.772,131.679 255.700 C 131.792 257.659,131.874 257.809,132.900 257.927 C 133.934 258.046,134.000 258.171,134.000 260.027 C 134.000 261.865,134.068 262.000,135.000 262.000 C 135.945 262.000,136.000 262.120,136.000 264.200 C 136.000 266.280,136.055 266.400,137.000 266.400 C 137.933 266.400,138.000 266.533,138.000 268.400 C 138.000 270.267,138.067 270.400,139.000 270.400 C 139.945 270.400,140.000 270.520,140.000 272.600 C 140.000 274.778,140.012 274.800,141.200 274.800 C 142.373 274.800,142.400 274.844,142.400 276.800 C 142.400 278.667,142.467 278.800,143.400 278.800 C 144.345 278.800,144.400 278.920,144.400 281.000 C 144.400 283.080,144.455 283.200,145.400 283.200 C 146.333 283.200,146.400 283.333,146.400 285.200 C 146.400 287.067,146.467 287.200,147.400 287.200 C 148.345 287.200,148.400 287.320,148.400 289.400 C 148.400 291.578,148.412 291.600,149.600 291.600 C 150.773 291.600,150.800 291.644,150.800 293.600 C 150.800 295.467,150.867 295.600,151.800 295.600 C 152.745 295.600,152.800 295.720,152.800 297.800 C 152.800 299.867,152.859 300.000,153.779 300.000 C 154.678 300.000,154.768 300.172,154.879 302.100 C 154.984 303.929,155.116 304.216,155.900 304.328 C 156.694 304.441,156.800 304.687,156.800 306.428 C 156.800 308.352,156.829 308.400,158.000 308.400 C 159.188 308.400,159.200 308.422,159.200 310.600 C 159.200 312.680,159.255 312.800,160.200 312.800 C 161.133 312.800,161.200 312.933,161.200 314.800 C 161.200 316.655,161.271 316.800,162.179 316.800 C 163.078 316.800,163.168 316.972,163.279 318.900 C 163.384 320.729,163.516 321.016,164.300 321.128 C 165.094 321.241,165.200 321.487,165.200 323.228 C 165.200 325.152,165.229 325.200,166.400 325.200 C 167.588 325.200,167.600 325.222,167.600 327.400 C 167.600 329.480,167.655 329.600,168.600 329.600 C 169.533 329.600,169.600 329.733,169.600 331.600 C 169.600 333.455,169.671 333.600,170.579 333.600 C 171.478 333.600,171.568 333.772,171.679 335.700 C 171.792 337.659,171.874 337.809,172.900 337.927 C 173.934 338.046,174.000 338.171,174.000 340.027 C 174.000 341.865,174.068 342.000,175.000 342.000 C 175.945 342.000,176.000 342.120,176.000 344.200 C 176.000 346.280,176.055 346.400,177.000 346.400 C 177.933 346.400,178.000 346.533,178.000 348.400 C 178.000 350.267,178.067 350.400,179.000 350.400 C 179.945 350.400,180.000 350.520,180.000 352.600 C 180.000 354.778,180.012 354.800,181.200 354.800 C 182.373 354.800,182.400 354.844,182.400 356.800 C 182.400 358.667,182.467 358.800,183.400 358.800 C 184.345 358.800,184.400 358.920,184.400 361.000 C 184.400 363.080,184.455 363.200,185.400 363.200 C 186.333 363.200,186.400 363.333,186.400 365.200 C 186.400 367.067,186.467 367.200,187.400 367.200 C 188.345 367.200,188.400 367.320,188.400 369.400 C 188.400 371.578,188.412 371.600,189.600 371.600 C 190.773 371.600,190.800 371.644,190.800 373.600 C 190.800 375.467,190.867 375.600,191.800 375.600 C 192.745 375.600,192.800 375.720,192.800 377.800 C 192.800 379.867,192.859 380.000,193.779 380.000 C 194.678 380.000,194.768 380.172,194.879 382.100 C 194.983 383.911,195.121 384.217,195.875 384.325 C 196.421 384.402,196.798 384.779,196.875 385.325 C 196.985 386.092,197.247 386.200,199.000 386.200 L 201.000 386.200 201.121 384.100 C 201.232 382.172,201.322 382.000,202.221 382.000 C 203.129 382.000,203.200 381.855,203.200 380.000 C 203.200 378.133,203.267 378.000,204.200 378.000 C 205.145 378.000,205.200 377.880,205.200 375.800 C 205.200 373.720,205.255 373.600,206.200 373.600 C 207.132 373.600,207.200 373.465,207.200 371.627 C 207.200 369.771,207.266 369.646,208.300 369.527 C 209.326 369.409,209.408 369.259,209.521 367.300 C 209.632 365.372,209.722 365.200,210.621 365.200 C 211.529 365.200,211.600 365.055,211.600 363.200 C 211.600 361.333,211.667 361.200,212.600 361.200 C 213.545 361.200,213.600 361.080,213.600 359.000 C 213.600 356.920,213.655 356.800,214.600 356.800 C 215.532 356.800,215.600 356.665,215.600 354.827 C 215.600 352.971,215.666 352.846,216.700 352.727 C 217.726 352.609,217.808 352.459,217.921 350.500 C 218.032 348.572,218.122 348.400,219.021 348.400 C 219.929 348.400,220.000 348.255,220.000 346.400 C 220.000 344.533,220.067 344.400,221.000 344.400 C 221.945 344.400,222.000 344.280,222.000 342.200 C 222.000 340.022,222.012 340.000,223.200 340.000 C 224.388 340.000,224.400 339.978,224.400 337.800 C 224.400 335.720,224.455 335.600,225.400 335.600 C 226.333 335.600,226.400 335.467,226.400 333.600 C 226.400 331.733,226.467 331.600,227.400 331.600 C 228.345 331.600,228.400 331.480,228.400 329.400 C 228.400 327.320,228.455 327.200,229.400 327.200 C 230.333 327.200,230.400 327.067,230.400 325.200 C 230.400 323.244,230.427 323.200,231.600 323.200 C 232.788 323.200,232.800 323.178,232.800 321.000 C 232.800 318.920,232.855 318.800,233.800 318.800 C 234.733 318.800,234.800 318.667,234.800 316.800 C 234.800 314.933,234.867 314.800,235.800 314.800 C 236.745 314.800,236.800 314.680,236.800 312.600 C 236.800 310.520,236.855 310.400,237.800 310.400 C 238.732 310.400,238.800 310.265,238.800 308.427 C 238.800 306.571,238.866 306.446,239.900 306.327 C 240.926 306.209,241.008 306.059,241.121 304.100 C 241.232 302.172,241.322 302.000,242.221 302.000 C 243.129 302.000,243.200 301.855,243.200 300.000 C 243.200 298.133,243.267 298.000,244.200 298.000 C 245.145 298.000,245.200 297.880,245.200 295.800 C 245.200 293.720,245.255 293.600,246.200 293.600 C 247.132 293.600,247.200 293.465,247.200 291.627 C 247.200 289.771,247.266 289.646,248.300 289.527 C 249.326 289.409,249.408 289.259,249.521 287.300 C 249.632 285.372,249.722 285.200,250.621 285.200 C 251.529 285.200,251.600 285.055,251.600 283.200 C 251.600 281.333,251.667 281.200,252.600 281.200 C 253.545 281.200,253.600 281.080,253.600 279.000 C 253.600 276.920,253.655 276.800,254.600 276.800 C 255.532 276.800,255.600 276.665,255.600 274.827 C 255.600 272.971,255.666 272.846,256.700 272.727 C 257.726 272.609,257.808 272.459,257.921 270.500 C 258.032 268.572,258.122 268.400,259.021 268.400 C 259.929 268.400,260.000 268.255,260.000 266.400 C 260.000 264.533,260.067 264.400,261.000 264.400 C 261.945 264.400,262.000 264.280,262.000 262.200 C 262.000 260.022,262.012 260.000,263.200 260.000 C 264.388 260.000,264.400 259.978,264.400 257.800 C 264.400 255.720,264.455 255.600,265.400 255.600 C 266.333 255.600,266.400 255.467,266.400 253.600 C 266.400 251.733,266.467 251.600,267.400 251.600 C 268.345 251.600,268.400 251.480,268.400 249.400 C 268.400 247.320,268.455 247.200,269.400 247.200 C 270.333 247.200,270.400 247.067,270.400 245.200 C 270.400 243.244,270.427 243.200,271.600 243.200 C 272.788 243.200,272.800 243.178,272.800 241.000 C 272.800 238.920,272.855 238.800,273.800 238.800 C 274.733 238.800,274.800 238.667,274.800 236.800 C 274.800 234.933,274.867 234.800,275.800 234.800 C 276.745 234.800,276.800 234.680,276.800 232.600 C 276.800 230.520,276.855 230.400,277.800 230.400 C 278.732 230.400,278.800 230.265,278.800 228.427 C 278.800 226.571,278.866 226.446,279.900 226.327 C 280.926 226.209,281.008 226.059,281.121 224.100 C 281.232 222.172,281.322 222.000,282.221 222.000 C 283.129 222.000,283.200 221.855,283.200 220.000 C 283.200 218.133,283.267 218.000,284.200 218.000 C 285.145 218.000,285.200 217.880,285.200 215.800 C 285.200 213.720,285.255 213.600,286.200 213.600 C 287.132 213.600,287.200 213.465,287.200 211.627 C 287.200 209.771,287.266 209.646,288.300 209.527 C 289.326 209.409,289.408 209.259,289.521 207.300 C 289.632 205.372,289.722 205.200,290.621 205.200 C 291.529 205.200,291.600 205.055,291.600 203.200 C 291.600 201.333,291.667 201.200,292.600 201.200 C 293.545 201.200,293.600 201.080,293.600 199.000 C 293.600 196.920,293.655 196.800,294.600 196.800 C 295.532 196.800,295.600 196.665,295.600 194.827 C 295.600 192.971,295.666 192.846,296.700 192.727 C 297.726 192.609,297.808 192.459,297.921 190.500 C 298.032 188.572,298.122 188.400,299.021 188.400 C 299.929 188.400,300.000 188.255,300.000 186.400 C 300.000 184.533,300.067 184.400,301.000 184.400 C 301.945 184.400,302.000 184.280,302.000 182.200 C 302.000 180.022,302.012 180.000,303.200 180.000 C 304.388 180.000,304.400 179.978,304.400 177.800 C 304.400 175.720,304.455 175.600,305.400 175.600 C 306.333 175.600,306.400 175.467,306.400 173.600 C 306.400 171.733,306.467 171.600,307.400 171.600 C 308.345 171.600,308.400 171.480,308.400 169.400 C 308.400 167.320,308.455 167.200,309.400 167.200 C 310.333 167.200,310.400 167.067,310.400 165.200 C 310.400 163.244,310.427 163.200,311.600 163.200 C 312.788 163.200,312.800 163.178,312.800 161.000 C 312.800 158.920,312.855 158.800,313.800 158.800 C 314.733 158.800,314.800 158.667,314.800 156.800 C 314.800 154.933,314.867 154.800,315.800 154.800 C 316.745 154.800,316.800 154.680,316.800 152.600 C 316.800 150.520,316.855 150.400,317.800 150.400 C 318.732 150.400,318.800 150.265,318.800 148.427 C 318.800 146.571,318.866 146.446,319.900 146.327 C 320.926 146.209,321.008 146.059,321.121 144.100 C 321.232 142.172,321.322 142.000,322.221 142.000 C 323.129 142.000,323.200 141.855,323.200 140.000 C 323.200 138.133,323.267 138.000,324.200 138.000 C 325.145 138.000,325.200 137.880,325.200 135.800 C 325.200 133.720,325.255 133.600,326.200 133.600 C 327.132 133.600,327.200 133.465,327.200 131.627 C 327.200 129.771,327.266 129.646,328.300 129.527 C 329.326 129.409,329.408 129.259,329.521 127.300 C 329.632 125.372,329.722 125.200,330.621 125.200 C 331.529 125.200,331.600 125.055,331.600 123.200 C 331.600 121.333,331.667 121.200,332.600 121.200 C 333.545 121.200,333.600 121.080,333.600 119.000 C 333.600 116.920,333.655 116.800,334.600 116.800 C 335.532 116.800,335.600 116.665,335.600 114.827 C 335.600 112.971,335.666 112.846,336.700 112.727 C 337.726 112.609,337.808 112.459,337.921 110.500 C 338.032 108.572,338.122 108.400,339.021 108.400 C 339.799 108.400,340.000 108.194,340.000 107.400 C 340.000 106.600,340.200 106.400,341.000 106.400 C 341.983 106.400,342.000 106.347,342.000 103.200 L 342.000 100.000 343.200 100.000 C 344.388 100.000,344.400 99.978,344.400 97.800 C 344.400 95.720,344.455 95.600,345.400 95.600 C 346.333 95.600,346.400 95.467,346.400 93.600 C 346.400 91.733,346.467 91.600,347.400 91.600 C 348.345 91.600,348.400 91.480,348.400 89.400 C 348.400 87.320,348.455 87.200,349.400 87.200 C 350.200 87.200,350.400 87.000,350.400 86.200 C 350.400 85.356,350.587 85.200,351.600 85.200 C 352.773 85.200,352.800 85.156,352.800 83.200 C 352.800 81.333,352.867 81.200,353.800 81.200 C 354.745 81.200,354.800 81.080,354.800 79.000 C 354.800 76.920,354.855 76.800,355.800 76.800 C 356.783 76.800,356.800 76.747,356.800 73.600 C 356.800 70.453,356.817 70.400,357.800 70.400 C 358.600 70.400,358.800 70.200,358.800 69.400 C 358.800 68.556,358.987 68.400,360.000 68.400 C 361.173 68.400,361.200 68.356,361.200 66.400 C 361.200 64.533,361.267 64.400,362.200 64.400 C 363.145 64.400,363.200 64.280,363.200 62.200 C 363.200 60.120,363.255 60.000,364.200 60.000 C 365.145 60.000,365.200 59.880,365.200 57.800 C 365.200 55.720,365.255 55.600,366.200 55.600 C 367.133 55.600,367.200 55.467,367.200 53.600 C 367.200 51.644,367.227 51.600,368.400 51.600 C 369.588 51.600,369.600 51.578,369.600 49.400 C 369.600 47.320,369.655 47.200,370.600 47.200 C 371.533 47.200,371.600 47.067,371.600 45.200 C 371.600 43.333,371.667 43.200,372.600 43.200 C 373.545 43.200,373.600 43.080,373.600 41.000 C 373.600 38.920,373.655 38.800,374.600 38.800 C 375.533 38.800,375.600 38.667,375.600 36.800 C 375.600 34.844,375.627 34.800,376.800 34.800 C 377.988 34.800,378.000 34.778,378.000 32.600 C 378.000 30.520,378.055 30.400,379.000 30.400 C 379.933 30.400,380.000 30.267,380.000 28.400 C 380.000 26.533,380.067 26.400,381.000 26.400 C 381.945 26.400,382.000 26.280,382.000 24.200 C 382.000 22.022,382.012 22.000,383.200 22.000 C 384.371 22.000,384.400 21.952,384.400 20.028 C 384.400 18.287,384.506 18.041,385.300 17.928 C 386.084 17.816,386.216 17.529,386.321 15.700 C 386.432 13.772,386.522 13.600,387.421 13.600 C 388.329 13.600,388.400 13.455,388.400 11.600 L 388.400 9.600 199.000 9.600 L 9.600 9.600 9.600 11.600 M361.446 62.634 C 361.517 63.116,361.417 63.146,360.972 62.777 C 360.662 62.520,360.515 62.138,360.644 61.928 C 360.932 61.462,361.325 61.808,361.446 62.634 M353.046 79.434 C 353.117 79.916,353.017 79.946,352.572 79.577 C 352.262 79.320,352.115 78.938,352.244 78.728 C 352.532 78.262,352.925 78.608,353.046 79.434 M178.000 95.800 L 178.000 106.400 166.400 106.400 L 154.800 106.400 154.800 95.800 L 154.800 85.200 166.400 85.200 L 178.000 85.200 178.000 95.800 M209.600 95.800 L 209.600 106.400 199.000 106.400 L 188.400 106.400 188.400 95.800 L 188.400 85.200 199.000 85.200 L 209.600 85.200 209.600 95.800 M243.200 95.800 L 243.200 106.400 231.600 106.400 L 220.000 106.400 220.000 95.800 L 220.000 85.200 231.600 85.200 L 243.200 85.200 243.200 95.800 M171.300 107.499 C 168.605 107.568,164.195 107.568,161.500 107.499 C 158.805 107.430,161.010 107.373,166.400 107.373 C 171.790 107.373,173.995 107.430,171.300 107.499 M204.524 107.499 C 201.622 107.567,196.762 107.567,193.724 107.499 C 190.686 107.431,193.060 107.375,199.000 107.375 C 204.940 107.375,207.426 107.431,204.524 107.499 M236.500 107.499 C 233.805 107.568,229.395 107.568,226.700 107.499 C 224.005 107.430,226.210 107.373,231.600 107.373 C 236.990 107.373,239.195 107.430,236.500 107.499 M176.000 108.600 C 176.000 109.242,156.712 109.136,156.498 108.493 C 156.364 108.091,158.363 108.008,166.165 108.093 C 172.384 108.161,176.001 108.347,176.000 108.600 M209.900 108.500 C 209.772 108.883,207.231 109.000,199.000 109.000 C 190.769 109.000,188.228 108.883,188.100 108.500 C 187.969 108.108,190.324 108.000,199.000 108.000 C 207.676 108.000,210.031 108.108,209.900 108.500 M241.500 108.500 C 241.375 108.877,239.028 109.027,231.975 109.108 C 222.528 109.216,221.346 109.134,221.798 108.403 C 222.193 107.764,241.713 107.860,241.500 108.500 M178.000 129.400 L 178.000 140.000 166.400 140.000 L 154.800 140.000 154.800 129.400 L 154.800 118.800 166.400 118.800 L 178.000 118.800 178.000 129.400 M209.600 129.400 L 209.600 140.000 199.000 140.000 L 188.400 140.000 188.400 129.400 L 188.400 118.800 199.000 118.800 L 209.600 118.800 209.600 129.400 M243.200 129.400 L 243.200 140.000 231.600 140.000 L 220.000 140.000 220.000 129.400 L 220.000 118.800 231.600 118.800 L 243.200 118.800 243.200 129.400 M176.000 151.600 C 176.000 152.613,176.156 152.800,177.000 152.800 L 178.000 152.800 178.000 163.400 L 178.000 174.000 166.400 174.000 L 154.800 174.000 154.800 163.400 L 154.800 152.800 155.800 152.800 C 156.644 152.800,156.800 152.613,156.800 151.600 L 156.800 150.400 166.400 150.400 L 176.000 150.400 176.000 151.600 M209.600 162.200 L 209.600 174.000 199.000 174.000 L 188.400 174.000 188.400 162.200 L 188.400 150.400 199.000 150.400 L 209.600 150.400 209.600 162.200 M243.200 162.200 L 243.200 174.000 232.600 174.000 L 222.000 174.000 222.000 162.200 L 222.000 150.400 232.600 150.400 L 243.200 150.400 243.200 162.200 M209.600 196.000 L 209.600 207.600 199.000 207.600 L 188.400 207.600 188.400 196.000 L 188.400 184.400 199.000 184.400 L 209.600 184.400 209.600 196.000 " stroke="none" fill="#000000" fill-rule="evenodd"></path><path id="path1" d="M360.644 61.928 C 360.515 62.138,360.662 62.520,360.972 62.777 C 361.417 63.146,361.517 63.116,361.446 62.634 C 361.325 61.808,360.932 61.462,360.644 61.928 M352.244 78.728 C 352.115 78.938,352.262 79.320,352.572 79.577 C 353.017 79.946,353.117 79.916,353.046 79.434 C 352.925 78.608,352.532 78.262,352.244 78.728 M161.500 107.499 C 164.195 107.568,168.605 107.568,171.300 107.499 C 173.995 107.430,171.790 107.373,166.400 107.373 C 161.010 107.373,158.805 107.430,161.500 107.499 M193.724 107.499 C 196.762 107.567,201.622 107.567,204.524 107.499 C 207.426 107.431,204.940 107.375,199.000 107.375 C 193.060 107.375,190.686 107.431,193.724 107.499 M226.700 107.499 C 229.395 107.568,233.805 107.568,236.500 107.499 C 239.195 107.430,236.990 107.373,231.600 107.373 C 226.210 107.373,224.005 107.430,226.700 107.499 M156.498 108.493 C 156.712 109.136,176.000 109.242,176.000 108.600 C 176.001 108.347,172.384 108.161,166.165 108.093 C 158.363 108.008,156.364 108.091,156.498 108.493 M188.100 108.500 C 188.228 108.883,190.769 109.000,199.000 109.000 C 207.231 109.000,209.772 108.883,209.900 108.500 C 210.031 108.108,207.676 108.000,199.000 108.000 C 190.324 108.000,187.969 108.108,188.100 108.500 M221.798 108.403 C 221.346 109.134,222.528 109.216,231.975 109.108 C 239.028 109.027,241.375 108.877,241.500 108.500 C 241.713 107.860,222.193 107.764,221.798 108.403 " stroke="none" fill="#040404" fill-rule="evenodd"></path></g></svg>