<svg version="1.1" width="515" height="515" xmlns="http://www.w3.org/2000/svg">
<g>
<path d="M214.130 145.663 C 198.953 148.912,200.666 171.795,216.704 180.052 C 242.226 193.193,247.562 215.103,226.665 220.954 C 218.536 223.230,202.000 215.293,202.000 209.116 C 202.000 207.442,200.301 207.773,199.607 209.582 C 196.479 217.732,208.855 228.065,221.600 227.944 C 236.431 227.804,246.000 218.581,246.000 204.426 C 246.000 194.935,240.400 185.853,231.957 181.647 C 226.295 178.827,216.214 171.869,213.697 169.044 C 202.942 156.974,219.279 145.176,231.951 155.862 C 238.010 160.970,238.187 160.970,237.807 155.852 C 237.219 147.916,226.053 143.111,214.130 145.663 M63.000 146.346 C 63.000 146.537,63.628 147.999,64.395 149.596 C 65.162 151.193,67.454 156.100,69.488 160.500 C 71.522 164.900,74.232 170.525,75.511 173.000 C 76.789 175.475,80.139 182.225,82.954 188.000 C 98.376 219.637,102.563 227.916,103.161 227.956 C 103.525 227.980,105.944 223.613,108.538 218.250 C 118.072 198.539,140.099 153.416,141.527 150.669 C 143.608 146.670,143.395 146.000,140.046 146.000 C 136.828 146.000,137.269 145.223,120.494 180.500 C 117.355 187.100,112.810 196.609,110.394 201.630 C 107.977 206.652,105.986 211.152,105.968 211.630 C 105.789 216.522,103.001 215.869,100.465 210.342 C 78.426 162.307,69.773 146.040,66.250 146.019 C 64.463 146.009,63.000 146.156,63.000 146.346 M149.000 186.147 L 149.000 226.294 158.269 225.741 C 170.252 225.026,174.477 223.227,182.390 215.472 C 207.723 190.642,190.810 146.000,156.070 146.000 L 149.000 146.000 149.000 186.147 M166.208 154.373 C 171.987 156.419,181.996 164.537,181.999 167.179 C 182.000 167.552,182.563 168.452,183.250 169.179 C 186.845 172.979,188.418 190.540,185.842 198.101 C 183.329 205.476,173.154 217.000,169.156 217.000 C 168.646 217.000,166.940 217.672,165.364 218.494 C 163.789 219.315,161.037 219.990,159.250 219.994 L 156.000 220.000 156.000 185.955 L 156.000 151.909 159.458 152.558 C 161.360 152.915,164.398 153.732,166.208 154.373 M81.221 254.401 C 58.749 266.215,59.196 297.771,81.984 308.209 C 90.952 312.317,110.000 310.032,110.000 304.848 C 110.000 302.568,109.223 302.543,104.926 304.687 C 82.040 316.104,58.556 288.280,72.840 266.670 C 79.796 256.146,99.587 251.444,106.756 258.613 C 108.712 260.569,110.000 260.335,110.000 258.025 C 110.000 252.329,89.962 249.806,81.221 254.401 M261.000 277.772 L 261.000 302.544 264.073 306.272 C 267.430 310.345,275.000 311.888,275.000 308.500 C 275.000 307.658,274.107 307.000,272.965 307.000 C 265.301 307.000,264.000 302.405,264.000 275.351 C 264.000 256.150,263.789 253.000,262.500 253.000 C 261.207 253.000,261.000 256.419,261.000 277.772 M278.007 280.750 C 278.014 302.069,278.212 302.980,283.937 307.946 C 286.782 310.413,293.000 310.793,293.000 308.500 C 293.000 307.675,292.303 307.000,291.450 307.000 C 284.639 307.000,282.000 301.653,282.000 287.851 L 282.000 278.000 287.500 278.000 C 291.722 278.000,293.000 277.652,293.000 276.500 C 293.000 275.348,291.722 275.000,287.500 275.000 L 282.000 275.000 282.000 268.000 C 282.000 261.667,281.810 261.000,280.000 261.000 C 278.067 261.000,278.000 261.664,278.007 280.750 M298.000 263.987 C 296.263 265.094,297.772 268.500,300.000 268.500 C 302.228 268.500,303.737 265.094,302.000 263.987 C 301.175 263.461,300.275 263.031,300.000 263.031 C 299.725 263.031,298.825 263.461,298.000 263.987 M129.733 274.957 C 118.890 276.520,112.381 290.784,117.855 300.991 C 126.775 317.622,152.000 311.511,152.000 292.718 C 152.000 280.294,142.926 273.057,129.733 274.957 M169.753 275.010 C 167.693 275.381,165.105 276.500,164.003 277.497 C 162.058 279.258,162.000 279.248,162.000 277.155 C 162.000 275.667,161.381 275.000,160.000 275.000 C 158.076 275.000,158.000 275.667,158.000 292.500 C 158.000 309.333,158.076 310.000,160.000 310.000 C 161.879 310.000,162.000 309.333,162.000 298.950 C 162.000 279.981,172.062 271.252,182.054 281.553 L 185.500 285.105 185.832 297.553 C 186.138 309.042,186.311 310.000,188.082 310.000 C 191.190 310.000,190.912 288.153,187.734 282.594 C 183.880 275.856,178.252 273.482,169.753 275.010 M202.000 274.667 C 196.028 276.950,196.864 290.000,202.982 290.000 C 204.802 290.000,210.860 294.602,212.399 297.154 C 216.809 304.467,205.034 310.922,199.000 304.500 C 196.173 301.491,195.000 301.333,195.000 303.961 C 195.000 310.918,209.347 312.760,214.750 306.497 C 219.865 300.567,217.026 292.505,208.228 287.975 C 203.244 285.408,201.016 282.654,201.727 279.935 C 202.347 277.564,207.154 277.276,209.000 279.500 C 211.390 282.380,213.329 279.637,211.232 276.342 C 210.362 274.973,204.148 273.846,202.000 274.667 M322.531 274.753 C 320.899 274.985,318.311 276.066,316.781 277.156 L 314.000 279.136 314.000 277.068 C 314.000 275.667,313.355 275.000,312.000 275.000 C 310.076 275.000,310.000 275.667,310.000 292.500 C 310.000 309.333,310.076 310.000,312.000 310.000 C 313.879 310.000,314.000 309.333,314.000 298.950 C 314.000 283.709,317.477 278.000,326.758 278.000 C 335.076 278.000,338.000 283.479,338.000 299.065 C 338.000 309.333,338.122 310.000,340.000 310.000 C 341.892 310.000,342.000 309.333,342.000 297.650 C 342.000 279.203,336.526 272.765,322.531 274.753 M222.231 287.750 C 222.780 301.843,223.776 305.090,228.422 307.932 C 233.864 311.261,243.560 311.064,247.354 307.548 L 250.000 305.095 250.000 307.548 C 250.000 309.333,250.544 310.000,252.000 310.000 C 253.924 310.000,254.000 309.333,254.000 292.500 C 254.000 276.041,253.888 275.000,252.121 275.000 C 250.406 275.000,250.206 276.075,249.833 287.281 C 249.312 302.914,246.708 307.000,237.265 307.000 C 228.783 307.000,226.000 301.949,226.000 286.550 C 226.000 275.427,225.921 275.000,223.867 275.000 C 221.776 275.000,221.744 275.247,222.231 287.750 M299.000 292.500 C 299.000 307.389,299.224 310.000,300.500 310.000 C 301.776 310.000,302.000 307.389,302.000 292.500 C 302.000 277.611,301.776 275.000,300.500 275.000 C 299.224 275.000,299.000 277.611,299.000 292.500 M355.228 277.777 C 336.306 293.527,357.860 321.966,377.250 306.833 L 381.000 303.906 381.000 306.508 C 381.000 314.272,373.702 322.000,366.371 322.000 C 362.597 322.000,354.548 317.870,353.622 315.458 C 352.720 313.106,351.000 313.784,351.000 316.494 C 351.000 327.247,375.286 328.056,381.673 317.515 C 384.280 313.213,385.091 275.000,382.575 275.000 C 381.482 275.000,381.000 275.944,381.000 278.084 L 381.000 281.168 377.106 278.084 C 371.577 273.705,360.311 273.547,355.228 277.777 M140.861 279.577 C 153.956 287.313,149.009 307.000,133.970 307.000 C 125.898 307.000,120.081 301.042,120.033 292.724 C 119.970 281.726,131.828 274.241,140.861 279.577 M375.464 282.412 C 389.382 296.330,370.263 316.616,356.084 302.976 C 346.804 294.048,353.175 278.000,366.000 278.000 C 370.640 278.000,371.413 278.360,375.464 282.412 " stroke="none" fill-rule="evenodd"></path>
</g>
</svg>