<svg width="100%" height="100%" viewBox="0 0 400 400" version="1.1" xmlns="http://www.w3.org/2000/svg" style="fill-rule:evenodd;clip-rule:evenodd;stroke-linejoin:round;stroke-miterlimit:2;">
    <g>
        <path d="M188.8,95.6C188.8,95.795 181.867,98.176 181.2,98.818C174.868,104.906 172.853,113.72 176,122.112C178.123,127.774 183.698,130.363 188,134.005C200.142,144.284 223.526,152.666 214.4,173.2C209.504,184.216 193.927,185.479 184.4,180.8C181.419,179.336 178.031,175.555 176,173.382C174.712,172.004 173.692,170.392 172.4,169.018C172.169,168.773 171.716,168.083 171.6,168.4C168.133,177.895 175.578,186.486 184.4,189.2C197.972,193.376 213.086,189.943 220.8,177.6C223.161,173.822 224,168.271 224,164C224,139.97 199.236,136.891 185.622,122.8C177.534,114.429 184.726,102 195,102C199.863,102 203.513,104.503 207.2,107.2C209.336,108.762 210.485,112.4 213.4,112.4L214.8,112.4L214.8,108C214.8,101.991 207.881,96.244 201.6,95.6C201.6,95.6 188.8,94.533 188.8,95.6M12.4,97.2C12.4,98.797 14.105,100.648 14.8,102C17.107,106.49 19.554,110.998 21.6,115.6C26.905,127.535 33.496,138.866 38.8,150.8C41.901,157.777 44.746,165.113 48.8,171.6C51.132,175.331 53.591,180.329 55.2,184.4C55.764,185.826 56.822,189.874 58.4,190.4C60.411,191.07 61.93,186.576 62.4,185.4C64.643,179.791 67.745,174.638 70,169C73.887,159.283 80.138,150.389 84.4,140.8C87.442,133.955 90.006,126.39 94,120C96.997,115.205 99.683,109.67 101.6,104.4C102.391,102.225 104.4,100.02 104.4,97.6L104.4,96L101,96C95.494,96 92.775,107.5 90.8,111.68C83.47,127.19 76.062,142.675 68.4,158C66.282,162.236 64.509,166.583 62.4,170.8C62.12,171.361 59.601,176.814 59.571,176.8C57.995,176.035 57.437,173.834 56.8,172.4C55.121,168.621 53.277,164.973 51.6,161.2C44.795,145.889 35.815,131.338 29.6,115.8C27.591,110.776 24.908,105.971 22.376,101.2C21.82,100.152 21.325,96.862 20.289,96.403C19.045,95.853 17.589,96 16.229,96L12.4,96L12.4,97.2M112.4,142.4L112.4,188.8L120,188.8C128.636,188.8 140.854,186.417 147.6,179.989C163.552,164.79 170.579,140.325 159.2,120C150.277,104.061 134.257,96 116.2,96L112.4,96L112.4,142.4M123.6,104C123.6,104.029 129.352,104.93 130,105.2C133.775,106.773 139.497,108.639 142.4,111.595C151.417,120.777 156,130.007 156,143C156,156.509 150.085,170.128 137.6,176.8C133.354,179.069 129.437,180.536 124.624,181.2C123.617,181.339 122.595,181.392 121.6,181.6C121.308,181.661 120.892,182.283 120.8,182C116.753,169.573 120,155.869 120,142.8L120,103.6L121.8,103.6C122.79,103.6 123.6,103.78 123.6,104M42.8,218.4C42.8,219.145 41.327,218.635 40.6,218.8C39.859,218.968 39.121,219.16 38.4,219.4C35.542,220.353 31.617,221.708 29.3,223.632C17.387,233.527 10.466,246.269 15.6,262.8C19.805,276.34 35.54,288.746 50.2,286.4C51.261,286.23 52.333,286.133 53.4,286C56.903,285.562 66.8,284.414 66.8,279.429L66.8,277.6L65.088,277.6C63.281,277.6 62.31,279.028 60.8,279.6C57.195,280.966 51.957,282.8 48.2,282.8C44.443,282.8 39.205,280.966 35.6,279.6C31.808,278.164 28.237,274.194 25.609,271.6C11.023,257.205 20.046,231.321 37.6,224.4C43.767,221.968 50.84,221.783 57.2,223.6C58.398,223.942 60.605,224.601 61.6,225.229C62.918,226.06 63.636,227.6 65.4,227.6L66.8,227.6L66.8,225.571C66.8,221.257 56.975,218.755 53.6,218.4C51.805,218.211 50.005,218 48.2,218C46.395,218 42.8,216.595 42.8,218.4M240.4,247.4C240.4,265.4 240.537,274.8 240.8,274.8C241.02,274.8 241.2,275.43 241.2,276.2C241.2,277.178 241.381,277.6 241.8,277.6C242.133,277.6 242.4,277.956 242.4,278.4C242.4,278.84 242.58,279.2 242.8,279.2C243.02,279.2 243.2,279.488 243.2,279.84C243.2,280.191 243.74,280.983 244.4,281.6C245.06,282.217 245.6,282.919 245.6,283.16C245.6,283.402 245.96,283.6 246.4,283.6C246.84,283.6 247.2,283.78 247.2,284C247.2,284.22 247.47,284.4 247.8,284.4C248.13,284.4 248.4,284.58 248.4,284.8C248.4,285.02 248.94,285.2 249.6,285.2C250.26,285.2 250.8,285.38 250.8,285.6C250.8,285.831 252.067,286 253.8,286L256.8,286L256.8,284.4C256.8,283.299 256.626,282.8 256.243,282.8C255.936,282.8 255.582,282.53 255.455,282.2C255.298,281.789 254.655,281.6 253.413,281.6C252.416,281.6 251.6,281.42 251.6,281.2C251.6,280.98 251.28,280.8 250.888,280.8C250.497,280.8 249.917,280.44 249.6,280C249.283,279.56 248.875,279.2 248.694,279.2C248.036,279.2 246.4,277.216 246.4,276.418C246.4,275.968 246.22,275.6 246,275.6C245.78,275.6 245.6,275.06 245.6,274.4C245.6,273.74 245.42,273.2 245.2,273.2C244.937,273.2 244.8,264.067 244.8,246.6L244.8,220L240.4,220L240.4,247.4M261.2,252C261.2,266.933 261.338,274.8 261.6,274.8C261.82,274.8 262,275.43 262,276.2C262,276.97 262.18,277.6 262.4,277.6C262.62,277.6 262.8,277.878 262.8,278.218C262.8,278.806 264.499,280.8 265,280.8C265.314,280.8 267.2,282.695 267.2,283.01C267.2,283.495 268.354,284.4 268.971,284.4C269.317,284.4 269.6,284.58 269.6,284.8C269.6,285.02 270.23,285.2 271,285.2C271.77,285.2 272.4,285.38 272.4,285.6C272.4,285.826 273.54,286 275.021,286L277.642,286L277.4,281.8L275.3,281.679C274.145,281.613 273.2,281.388 273.2,281.179C273.2,280.971 272.75,280.8 272.2,280.8C271.65,280.8 271.2,280.62 271.2,280.4C271.2,280.18 270.924,280 270.587,280C269.69,280 267.2,277.363 267.2,276.413C267.2,275.966 267.02,275.6 266.8,275.6C266.58,275.6 266.4,275.06 266.4,274.4C266.4,273.6 266.2,273.2 265.8,273.2C265.28,273.2 265.2,271.601 265.2,261.21L265.2,249.221L271.3,249.11L277.4,249L277.646,245.6L265.2,245.6L265.2,229.2L261.2,229.2L261.2,252M283.7,232.21C282.743,233.232 282.4,235.217 283.449,236.311C283.59,236.459 283.759,236.588 283.946,236.669C284.146,236.757 284.808,236.778 285.015,236.976C285.49,237.429 285.071,238 286,238C286.198,238 286.389,237.913 286.567,237.825C286.913,237.653 286.686,237.139 287.038,236.973C287.766,236.627 288.487,236.843 289.061,236.144C289.915,235.104 289.795,232.986 288.62,232.199C288.357,232.023 287.957,232.098 287.726,231.883C287.572,231.739 287.637,231.483 287.47,231.344C287.132,231.064 286.178,231.192 285.996,231.22C285.264,231.335 284.249,231.623 283.7,232.21M93.2,244.4C93.2,245.211 91.6,244.667 90.8,244.8C89.044,245.093 87.282,245.388 85.6,246C81.606,247.452 78.514,251.407 76,254.57C73.762,257.387 73.6,262.224 73.6,265.4C73.6,268.187 73.741,271.315 74.8,274C75.275,275.204 75.93,275.576 76.771,276.4C77.841,277.45 78.295,279.009 79.312,280.111C83.122,284.238 88.881,286.8 94.6,286.8C106.392,286.8 115.6,276.879 115.6,265.4C115.6,260.985 114.52,255.621 111.2,252.347C107.019,248.224 104.355,245.649 98.624,244.8C97.684,244.661 96.734,244.576 95.8,244.4C94.948,244.24 93.2,243.533 93.2,244.4M139.2,244.4C139.2,244.62 138.21,244.8 137,244.8C135.79,244.8 134.8,244.98 134.8,245.2C134.8,245.42 134.17,245.6 133.4,245.6C132.63,245.6 132,245.78 132,246C132,246.22 131.717,246.4 131.371,246.4C130.748,246.4 129.6,247.307 129.6,247.8C129.6,248.215 128.495,249.2 128.029,249.2C127.793,249.2 127.6,249.38 127.6,249.6C127.6,249.82 127.42,250 127.2,250C126.98,250 126.8,249.032 126.8,247.849C126.8,245.848 126.718,245.663 125.632,245.213C122.833,244.054 123.012,242.756 122.896,265.105L122.793,285.2L126.8,285.2L126.8,272.2C126.8,263.8 126.942,259.2 127.2,259.2C127.42,259.2 127.6,258.66 127.6,258C127.6,257.2 127.8,256.8 128.2,256.8C128.533,256.8 128.8,256.444 128.8,256C128.8,255.56 128.98,255.2 129.2,255.2C129.42,255.2 129.6,255.015 129.6,254.789C129.6,254.112 132.948,250.979 134.321,250.371C135.024,250.059 135.6,249.669 135.6,249.502C135.6,249.336 136.14,249.2 136.8,249.2C137.6,249.2 138,249 138,248.6C138,248.128 138.556,248 140.6,248C142.644,248 143.2,248.128 143.2,248.6C143.2,249.019 143.622,249.2 144.6,249.2C145.37,249.2 146,249.38 146,249.6C146,249.82 146.278,250 146.618,250C146.958,250 147.658,250.405 148.172,250.9C148.687,251.395 149.755,252.34 150.545,253C151.336,253.66 151.987,254.425 151.991,254.7C151.996,254.975 152.18,255.2 152.4,255.2C152.62,255.2 152.8,255.56 152.8,256C152.8,256.44 152.98,256.8 153.2,256.8C153.42,256.8 153.6,257.34 153.6,258C153.6,258.66 153.78,259.2 154,259.2C154.258,259.2 154.4,263.8 154.4,272.2L154.4,285.2L158.8,285.2L158.8,271.4C158.8,262.467 158.659,257.6 158.4,257.6C158.18,257.6 158,257.06 158,256.4C158,255.6 157.8,255.2 157.4,255.2C157.027,255.2 156.8,254.822 156.8,254.2C156.8,253.65 156.62,253.2 156.4,253.2C156.18,253.2 156,252.929 156,252.597C156,251.796 150.623,246.4 149.825,246.4C149.481,246.4 149.2,246.22 149.2,246C149.2,245.78 148.761,245.6 148.224,245.6C147.687,245.6 147.136,245.42 147,245.2C146.864,244.98 145.773,244.8 144.576,244.8C143.379,244.8 142.4,244.62 142.4,244.4C142.4,244.18 141.68,244 140.8,244C139.92,244 139.2,244.18 139.2,244.4M174.4,244.4C174.4,244.827 173.578,244.639 173.182,244.8C172.048,245.262 170.498,245.866 169.582,246.8C167.759,248.661 166.765,252.248 167.323,254.667C167.451,255.223 168.097,255.515 168.4,256C169.333,257.493 170.058,259.518 171.433,260.67C176.099,264.577 183.29,265.333 185.6,271.8C187.268,276.47 183.962,279.738 179.899,281.6C178.232,282.364 176.334,283.193 174.459,282.672C173.873,282.509 173.53,281.865 172.983,281.6C171.874,281.063 170.067,280.62 169.2,279.618C168.188,278.447 167.685,275.6 166,275.6L164.8,275.6L164.8,278.112C164.8,284.235 170.33,285.101 175.2,286.4C176.951,286.867 177.909,286.344 179.8,286C185.9,284.891 190.4,279.758 190.4,273.424C190.4,269.47 188.472,265.494 185.2,263.2C182.946,261.62 180.226,260.687 178.4,258.829C177.033,257.438 174.677,257.316 173.318,255.728C171.118,253.159 171.518,250.71 174.371,249.2C175.284,248.717 175.48,248 176.757,248C178.344,248 180.573,250.051 181.648,250.8C182.393,251.319 183.024,252.599 183.895,252.34C184.665,252.111 184.371,250.785 184.4,249.982C184.545,246 181.515,245.177 178.4,244.4C178.4,244.4 174.4,243.333 174.4,244.4M315,244.4C314.864,244.62 313.683,244.8 312.376,244.8C311.059,244.8 310,244.978 310,245.2C310,245.42 309.5,245.6 308.888,245.6C308.235,245.6 307.539,245.93 307.2,246.4C306.883,246.84 306.303,247.2 305.912,247.2C305.52,247.2 305.2,247.47 305.2,247.8C305.2,248.13 304.97,248.4 304.688,248.4C304.407,248.4 303.917,248.76 303.6,249.2C302.686,250.468 302.4,250.154 302.4,247.88C302.4,245.444 301.94,244.8 300.2,244.8C297.932,244.8 298,244.159 298,265.48L298,285.2L302.4,285.2L302.4,272.2C302.4,263.8 302.542,259.2 302.8,259.2C303.02,259.2 303.2,258.66 303.2,258C303.2,257.34 303.38,256.8 303.6,256.8C303.82,256.8 304,256.53 304,256.2C304,255.87 304.18,255.6 304.4,255.6C304.62,255.6 304.8,255.24 304.8,254.8C304.8,254.36 304.994,254 305.231,254C305.469,254 306.354,253.28 307.2,252.4C308.046,251.52 309.021,250.8 309.369,250.8C309.716,250.8 310,250.642 310,250.449C310,250.07 311.524,249.413 313.3,249.025C313.905,248.893 314.4,248.608 314.4,248.392C314.4,248.177 315.39,248 316.6,248C318.289,248 318.8,248.139 318.8,248.6C318.8,249 319.2,249.2 320,249.2C320.66,249.2 321.2,249.38 321.2,249.6C321.2,249.82 321.65,250 322.2,250C322.75,250 323.2,250.18 323.2,250.4C323.2,250.62 323.478,250.8 323.818,250.8C324.65,250.8 326.121,252.322 326.823,253.907C327.138,254.618 327.621,255.2 327.898,255.2C328.174,255.2 328.4,255.56 328.4,256C328.4,256.44 328.58,256.8 328.8,256.8C329.02,256.8 329.2,257.239 329.2,257.776C329.2,258.313 329.38,258.864 329.6,259C329.853,259.157 330,264.004 330,272.224L330,285.2L334,285.2L334,271C334,261.8 333.859,256.8 333.6,256.8C333.38,256.8 333.2,256.26 333.2,255.6C333.2,254.94 333.02,254.4 332.8,254.4C332.58,254.4 332.4,254.04 332.4,253.6C332.4,253.16 332.22,252.8 332,252.8C331.78,252.8 331.6,252.614 331.6,252.387C331.6,251.95 328.998,249.2 328.585,249.2C328.263,249.2 327.2,248.126 327.2,247.8C327.2,247.307 326.052,246.4 325.429,246.4C325.083,246.4 324.8,246.22 324.8,246C324.8,245.78 324.35,245.6 323.8,245.6C323.25,245.6 322.8,245.42 322.8,245.2C322.8,244.974 321.667,244.8 320.2,244.8C318.733,244.8 317.6,244.626 317.6,244.4C317.6,244.18 317.071,244 316.424,244C315.777,244 315.136,244.18 315,244.4M356,245.2C356,245.42 355.37,245.6 354.6,245.6C353.83,245.6 353.2,245.747 353.2,245.926C353.2,246.105 352.57,246.552 351.8,246.919C351.03,247.287 350.4,247.77 350.4,247.994C350.4,248.217 350.118,248.4 349.774,248.4C349.43,248.4 348.271,249.3 347.2,250.4C346.129,251.5 345.06,252.4 344.826,252.4C344.592,252.4 344.4,252.85 344.4,253.4C344.4,253.95 344.22,254.4 344,254.4C343.78,254.4 343.6,254.678 343.6,255.017C343.6,255.356 343.24,256.02 342.8,256.492C342.29,257.039 342,257.904 342,258.875C342,259.714 341.82,260.4 341.6,260.4C341.355,260.4 341.2,262.333 341.2,265.4C341.2,268.467 341.355,270.4 341.6,270.4C341.82,270.4 342,271.21 342,272.2C342,273.19 342.18,274 342.4,274C342.62,274 342.8,274.236 342.8,274.525C342.8,274.813 343.16,275.436 343.6,275.908C344.04,276.38 344.4,277.134 344.4,277.583C344.4,278.032 344.594,278.4 344.831,278.4C345.067,278.4 346.397,279.57 347.785,281C349.174,282.43 350.6,283.6 350.955,283.6C351.31,283.6 351.6,283.78 351.6,284C351.6,284.22 351.96,284.4 352.4,284.4C352.84,284.4 353.2,284.58 353.2,284.8C353.2,285.02 353.74,285.2 354.4,285.2C355.06,285.2 355.6,285.38 355.6,285.6C355.6,285.82 356.579,286 357.776,286C358.973,286 360.064,286.18 360.2,286.4C360.336,286.62 361.416,286.8 362.6,286.8C363.784,286.8 364.864,286.62 365,286.4C365.136,286.18 366.047,286 367.024,286C368.001,286 368.8,285.82 368.8,285.6C368.8,285.38 369.34,285.2 370,285.2C370.66,285.2 371.2,285.02 371.2,284.8C371.2,284.58 371.478,284.4 371.817,284.4C372.394,284.4 372.798,284.144 374.185,282.9C374.492,282.625 374.86,282.4 375.003,282.4C375.146,282.4 375.954,281.68 376.8,280.8C378.807,278.711 378.8,278.706 378.8,282.2C378.8,283.933 378.631,285.2 378.4,285.2C378.18,285.2 378,286.01 378,287C378,287.99 377.82,288.8 377.6,288.8C377.38,288.8 377.2,289.16 377.2,289.6C377.2,290.04 377.02,290.4 376.8,290.4C376.58,290.4 376.4,290.76 376.4,291.2C376.4,291.64 376.22,292 376,292C375.78,292 375.6,292.27 375.6,292.6C375.6,292.93 375.42,293.2 375.2,293.2C374.98,293.2 374.8,293.483 374.8,293.829C374.8,294.65 374.101,295.316 372.5,296.022C371.785,296.337 371.2,296.731 371.2,296.898C371.2,297.064 370.84,297.2 370.4,297.2C369.96,297.2 369.6,297.38 369.6,297.6C369.6,297.82 369.15,298 368.6,298C368.05,298 367.6,298.18 367.6,298.4C367.6,298.622 366.533,298.8 365.2,298.8C363.812,298.8 362.8,298.975 362.8,299.214C362.8,299.5 362.56,299.5 362.026,299.214C361.601,298.986 360.431,298.8 359.426,298.8C358.422,298.8 357.6,298.62 357.6,298.4C357.6,298.18 357.15,298 356.6,298C356.05,298 355.6,297.82 355.6,297.6C355.6,297.38 355.366,297.2 355.08,297.2C354.344,297.2 352.407,296.259 352.403,295.9C352.401,295.735 352.212,295.6 351.983,295.6C351.754,295.6 351.18,295.24 350.708,294.8C350.236,294.36 349.613,294 349.325,294C349.036,294 348.8,293.64 348.8,293.2C348.8,292.76 348.62,292.4 348.4,292.4C348.18,292.4 348,292.207 348,291.971C348,291.334 346.947,290.4 346.229,290.4C345.717,290.4 345.6,290.922 345.6,293.213C345.6,296.084 347.2,298.8 348.892,298.8C349.177,298.8 349.748,299.25 350.161,299.8C350.574,300.35 351.247,300.8 351.656,300.8C352.065,300.8 352.4,300.98 352.4,301.2C352.4,301.42 352.76,301.6 353.2,301.6C353.64,301.6 354,301.78 354,302C354,302.22 354.63,302.4 355.4,302.4C356.17,302.4 356.8,302.58 356.8,302.8C356.8,303.049 359.067,303.2 362.8,303.2C366.533,303.2 368.8,303.049 368.8,302.8C368.8,302.58 369.34,302.4 370,302.4C370.66,302.4 371.2,302.22 371.2,302C371.2,301.78 371.56,301.6 372,301.6C372.44,301.6 372.8,301.42 372.8,301.2C372.8,300.98 373.117,300.8 373.504,300.8C373.891,300.8 374.746,300.174 375.404,299.409C376.062,298.643 376.915,298.013 377.3,298.009C377.693,298.004 378.004,297.693 378.009,297.3C378.013,296.915 378.643,296.062 379.409,295.404C380.174,294.746 380.8,293.891 380.8,293.504C380.8,293.117 380.98,292.8 381.2,292.8C381.42,292.8 381.6,292.451 381.6,292.024C381.6,291.597 381.78,291.136 382,291C382.22,290.864 382.4,290.043 382.4,289.176C382.4,288.309 382.58,287.6 382.8,287.6C383.062,287.6 383.2,280.333 383.2,266.6L383.2,245.6L378.8,245.6L378.8,248.6C378.8,252.094 378.807,252.089 376.8,250C375.954,249.12 374.889,248.4 374.431,248.4C373.974,248.4 373.6,248.207 373.6,247.971C373.6,247.334 372.547,246.4 371.829,246.4C371.483,246.4 371.2,246.22 371.2,246C371.2,245.78 370.66,245.6 370,245.6C369.34,245.6 368.8,245.42 368.8,245.2C368.8,244.95 366.4,244.8 362.4,244.8C358.4,244.8 356,244.95 356,245.2M195.6,257.171C195.6,266.924 195.694,268.837 196.2,269.343C196.602,269.744 196.8,270.746 196.8,272.371C196.8,273.724 196.977,274.8 197.2,274.8C197.42,274.8 197.6,275.16 197.6,275.6C197.6,276.04 197.78,276.4 198,276.4C198.22,276.4 198.4,276.85 198.4,277.4C198.4,277.95 198.58,278.4 198.8,278.4C199.02,278.4 199.2,278.635 199.2,278.922C199.2,279.521 201.731,282.4 202.258,282.4C202.451,282.4 203.093,282.85 203.687,283.4C204.28,283.95 205.043,284.4 205.383,284.4C205.722,284.4 206,284.58 206,284.8C206,285.02 206.36,285.2 206.8,285.2C207.24,285.2 207.6,285.38 207.6,285.6C207.6,285.826 208.733,286 210.2,286C211.667,286 212.8,286.174 212.8,286.4C212.8,286.62 213.329,286.8 213.976,286.8C214.623,286.8 215.264,286.62 215.4,286.4C215.536,286.18 216.807,286 218.224,286C219.675,286 220.8,285.825 220.8,285.6C220.8,285.38 221.16,285.2 221.6,285.2C222.04,285.2 222.4,285.02 222.4,284.8C222.4,284.58 222.683,284.4 223.029,284.4C223.374,284.4 223.908,284.175 224.215,283.9C225.426,282.814 225.977,282.4 226.212,282.4C226.695,282.4 227.6,281.245 227.6,280.629C227.6,280.283 227.78,280 228,280C228.226,280 228.4,281.133 228.4,282.6L228.4,285.2L232.8,285.2L232.8,245.6L228.4,245.6L228.4,257.176C228.4,264.463 228.252,268.844 228,269C227.78,269.136 227.6,270.137 227.6,271.224C227.6,272.311 227.42,273.2 227.2,273.2C226.98,273.2 226.8,273.56 226.8,274C226.8,274.44 226.62,274.8 226.4,274.8C226.18,274.8 226,275.173 226,275.629C226,276.396 225.16,277.6 224.625,277.6C224.497,277.6 223.828,278.14 223.137,278.8C222.446,279.46 221.638,280 221.341,280C221.043,280 220.8,280.18 220.8,280.4C220.8,280.62 220.35,280.8 219.8,280.8C219.25,280.8 218.8,280.98 218.8,281.2C218.8,281.42 218.26,281.6 217.6,281.6C216.8,281.6 216.4,281.8 216.4,282.2C216.4,282.672 215.844,282.8 213.8,282.8C211.756,282.8 211.2,282.672 211.2,282.2C211.2,281.8 210.8,281.6 210,281.6C209.34,281.6 208.8,281.42 208.8,281.2C208.8,280.98 208.53,280.8 208.2,280.8C207.87,280.8 207.6,280.62 207.6,280.4C207.6,280.18 207.316,280 206.969,280C206.621,280 205.646,279.28 204.8,278.4C203.954,277.52 203.069,276.8 202.831,276.8C202.594,276.8 202.4,276.35 202.4,275.8C202.4,275.25 202.22,274.8 202,274.8C201.78,274.8 201.6,274.361 201.6,273.824C201.6,273.287 201.42,272.736 201.2,272.6C200.946,272.443 200.8,267.463 200.8,258.976L200.8,245.6L195.6,245.6L195.6,257.171M284.496,265.7L284.6,285.8L286.1,285.924C286.968,285.996 287.6,285.87 287.6,285.624C287.6,285.391 287.87,285.2 288.2,285.2C288.725,285.2 288.8,282.733 288.8,265.4L288.8,245.6L284.393,245.6L284.496,265.7M97.057,248.6C97.166,248.709 99.976,249.444 100.4,249.6C101.599,250.042 102.982,250.857 104,251.6C106.476,253.406 108.926,256.246 110,259.2C110.288,259.991 110.211,260.893 110.543,261.667C111.331,263.506 111.6,263.402 111.6,265.4C111.6,267.398 111.331,267.294 110.543,269.133C109.863,270.719 109.737,272.351 108.8,273.912C106.588,277.599 103.159,280.365 99.029,281.6C98.282,281.824 95.232,282.8 94.6,282.8C91.277,282.8 87.464,280.498 84.737,278.8C83.912,278.287 82.831,278.115 82.188,277.387C81.541,276.653 81.33,275.622 80.8,274.8C76.061,267.455 77.443,257.78 84.4,252.4C86.764,250.572 89.126,249.436 92,248.6C93.26,248.234 95.806,247.349 97.057,248.6M363.857,248.6C364.388,249.131 365.303,249.006 366.029,249.2C367.254,249.527 368.454,249.841 369.6,250.4C375.243,253.152 378.8,259.449 378.8,265.576C378.8,267.077 378.494,270.738 377.668,272.4C377.138,273.468 376.146,274.243 375.503,275.247C374.984,276.057 374.897,277.155 374.206,277.825C373.137,278.861 370.907,279.52 369.597,280.3C368.052,281.22 368.019,281.035 366.32,281.6C365.678,281.814 365.264,282.547 364.6,282.68C363.8,282.84 360.6,282.84 359.8,282.68C359.061,282.532 359.523,282.024 358.867,281.743C356.308,280.646 354.062,280.496 351.894,278.4C350.146,276.71 347.768,274.453 346.838,272.084C346.467,271.14 346.709,270.002 346.249,269.097C345.908,268.425 345.444,268.846 345.318,268.134C345.161,267.244 345.161,263.556 345.318,262.667C345.45,261.917 345.973,262.331 346.257,261.667C347.167,259.543 347.356,257.58 348.8,255.6C351.942,251.292 355.627,250.045 360.484,248.615C361.661,248.268 362.664,247.407 363.857,248.6"/>
    </g>
</svg>
