<svg xmlns="http://www.w3.org/2000/svg" version="1.1" width="400" height="393.44262295081967" viewBox="0 0 400 393.44262295081967">
  <g>
<path d="m 115.445,8.169 0.106,8.17 3.045,0.114 3.044,0.115 0.105,9.728 0.105,9.728 3.239,0.114 3.238,0.114 0.108,6.382 0.108,6.382 3.241,0.114 3.242,0.114 0.105,9.729 0.105,9.728 3.045,0.115 3.044,0.115 0.105,9.727 0.105,9.728 3.242,0.114 3.241,0.114 0.105,9.729 0.105,9.728 3.045,0.115 3.044,0.115 0.105,9.727 0.106,9.728 3.238,0.114 3.238,0.114 0.108,6.382 0.108,6.382 3.242,0.114 3.241,0.115 0.105,9.728 0.105,9.728 3.045,0.115 3.044,0.115 0.105,9.727 0.106,9.728 3.241,0.114 3.241,0.115 0.105,9.728 0.106,9.728 3.241,0.114 3.241,0.115 0.105,9.728 0.105,9.728 3.045,0.115 3.044,0.115 0.105,9.728 0.106,9.727 h 6.299 6.299 l 0.105,-9.727 0.106,-9.728 3.044,-0.115 3.044,-0.115 0.106,-9.728 0.105,-9.728 3.241,-0.115 3.241,-0.114 0.105,-9.728 0.106,-9.728 3.241,-0.115 3.241,-0.114 0.105,-9.728 0.106,-9.727 3.044,-0.115 3.044,-0.115 0.108,-6.382 0.109,-6.382 3.238,-0.114 3.238,-0.114 0.105,-9.728 0.106,-9.729 3.241,-0.114 3.241,-0.114 0.105,-9.728 0.106,-9.727 3.044,-0.115 3.044,-0.115 0.106,-9.728 0.105,-9.729 3.241,-0.114 3.241,-0.114 0.106,-9.728 0.105,-9.729 3.241,-0.114 3.241,-0.114 0.105,-9.728 0.106,-9.728 3.044,-0.114 3.044,-0.115 0.106,-9.729 0.105,-9.728 3.241,-0.114 3.241,-0.114 0.108,-6.382 0.109,-6.382 3.238,-0.114 3.238,-0.114 0.107,-8.17 L 285.449,0 h -85.055 -85.056 l 0.107,8.169 M 0,129.712 v 119.501 c 0,5.905 0,0 0,5.905 v 69.291 69.292 h 76.977 76.976 l -0.106,-7.973 -0.107,-7.972 -3.044,-0.115 -3.045,-0.115 -0.105,-9.727 -0.105,-9.728 -3.238,-0.114 -3.239,-0.115 -0.108,-6.381 -0.108,-6.382 -3.241,-0.114 -3.241,-0.115 -0.106,-9.728 -0.105,-9.728 -3.041,-0.115 -3.042,-0.115 -0.108,-6.381 -0.108,-6.381 -3.241,-0.115 -3.241,-0.114 -0.106,-9.728 -0.105,-9.728 -3.239,-0.115 -3.238,-0.114 -0.108,-6.579 -0.108,-6.578 -3.044,-0.115 -3.045,-0.115 -0.105,-9.728 -0.105,-9.727 -3.238,-0.115 -3.239,-0.114 -0.108,-6.382 -0.108,-6.381 -3.051,-0.115 -3.051,-0.115 v -9.587 c 0,-10.961 0.352,-10.065 -3.96,-10.065 h -2.714 l -0.108,-6.398 -0.108,-6.398 -3.241,-0.114 -3.242,-0.114 -0.105,-9.728 -0.105,-9.729 -3.042,-0.114 -3.042,-0.115 -0.107,-6.578 -0.108,-6.578 -3.241,-0.115 -3.242,-0.114 -0.105,-9.728 -0.105,-9.729 -3.239,-0.114 -3.238,-0.114 -0.108,-6.382 -0.108,-6.382 -3.044,-0.115 -3.045,-0.114 -0.105,-9.728 -0.105,-9.728 -3.242,-0.114 -3.241,-0.114 -0.105,-9.728 -0.105,-9.729 -3.239,-0.114 -3.238,-0.114 -0.108,-6.382 L 42.323,95.866 39.278,95.751 36.234,95.636 36.129,85.909 36.024,76.181 32.785,76.067 29.546,75.953 29.439,69.374 29.331,62.795 26.09,62.681 22.848,62.567 22.743,52.839 22.638,43.11 19.596,42.995 16.555,42.881 16.447,36.499 16.339,30.118 13.097,30.004 9.856,29.89 9.751,20.161 9.646,10.433 4.823,10.323 0,10.212 v 119.5 M 390.814,10.499 c -0.145,0.144 -0.263,4.566 -0.263,9.826 v 9.564 l -3.248,0.115 -3.248,0.114 -0.108,6.381 -0.108,6.382 -3.042,0.114 -3.041,0.115 -0.105,9.729 -0.106,9.728 -3.241,0.114 -3.241,0.114 -0.108,6.579 -0.108,6.579 -3.238,0.114 -3.239,0.114 -0.105,9.728 -0.105,9.727 -3.045,0.115 -3.044,0.115 -0.108,6.382 -0.108,6.382 -3.239,0.114 -3.238,0.114 -0.105,9.744 -0.106,9.744 h -2.716 c -4.228,0 -3.963,-0.449 -3.963,6.719 v 6.24 l -3.051,0.115 -3.051,0.115 -0.105,9.729 -0.106,9.728 -3.241,0.114 -3.241,0.114 -0.105,9.728 -0.106,9.728 -3.044,0.115 -3.044,0.115 -0.108,6.578 -0.108,6.579 -3.239,0.114 -3.238,0.114 -0.105,9.729 -0.106,9.728 -3.241,0.114 -3.241,0.114 -0.108,6.382 -0.108,6.381 -3.042,0.115 -3.041,0.115 -0.106,9.728 -0.105,9.728 -3.241,0.114 -3.241,0.115 -0.108,6.381 -0.108,6.382 -3.239,0.114 -3.238,0.115 -0.105,9.727 -0.106,9.728 -3.044,0.115 -3.044,0.115 -0.108,6.578 -0.108,6.579 -3.239,0.114 -3.238,0.115 -0.106,9.728 -0.105,9.728 -3.241,0.114 -3.241,0.115 -0.108,6.381 -0.108,6.381 -3.042,0.115 -3.041,0.115 -0.106,9.728 -0.105,9.728 -3.241,0.115 -3.241,0.114 -0.106,9.728 -0.105,9.728 -3.241,0.115 -3.241,0.114 -0.108,6.381 -0.108,6.381 -3.042,0.115 -3.041,0.115 -0.107,7.972 -0.107,7.973 H 323.22 400 V 237.205 80.709 c 0,-42.323 0,7.991393 0,-42.323 v -28.15 h -4.462 c -2.454,0 -4.58,0.118 -4.724,0.263"   style="fill-rule:evenodd;stroke:none" />
  </g>
</svg>
