<svg id="svg" version="1.1" width="400" height="400" xmlns="http://www.w3.org/2000/svg" xmlns:xlink="http://www.w3.org/1999/xlink" style="display: block;"><g id="svgg"><path id="path0" d="M0.000 19.500 L 0.000 39.000 3.000 39.000 L 6.000 39.000 6.000 55.500 L 6.000 72.000 11.500 72.000 L 17.000 72.000 17.000 83.000 L 17.000 94.000 22.476 94.000 L 27.952 94.000 28.226 110.750 L 28.500 127.500 33.750 127.802 L 39.000 128.105 39.000 139.052 L 39.000 150.000 44.500 150.000 L 50.000 150.000 50.000 166.500 L 50.000 183.000 55.500 183.000 L 61.000 183.000 61.000 193.885 L 61.000 204.770 66.476 205.454 L 71.951 206.138 72.226 222.319 L 72.500 238.500 77.725 238.801 L 82.951 239.103 83.225 255.301 L 83.500 271.500 88.750 271.802 L 94.000 272.105 94.011 279.302 C 94.017 283.261,94.301 288.188,94.642 290.250 L 95.262 294.000 100.631 294.000 L 106.000 294.000 106.000 311.000 L 106.000 328.000 111.500 328.000 L 117.000 328.000 117.000 339.000 L 117.000 350.000 122.500 350.000 L 128.000 350.000 128.000 366.500 L 128.000 383.000 133.500 383.000 L 139.000 383.000 139.000 391.500 L 139.000 400.000 200.000 400.000 L 261.000 400.000 261.000 391.500 L 261.000 383.000 266.500 383.000 L 272.000 383.000 272.000 366.500 L 272.000 350.000 277.500 350.000 L 283.000 350.000 283.000 339.000 L 283.000 328.000 288.500 328.000 L 294.000 328.000 294.000 311.000 L 294.000 294.000 299.369 294.000 L 304.738 294.000 305.358 290.250 C 305.699 288.188,305.983 280.786,305.989 273.802 L 306.000 261.105 311.250 260.802 L 316.500 260.500 316.783 249.801 L 317.067 239.102 322.283 238.801 L 327.500 238.500 327.774 222.319 L 328.049 206.138 333.524 205.454 L 339.000 204.770 339.000 193.885 L 339.000 183.000 344.500 183.000 L 350.000 183.000 350.000 166.500 L 350.000 150.000 355.500 150.000 L 361.000 150.000 361.000 133.552 L 361.000 117.105 366.250 116.802 L 371.500 116.500 371.783 105.250 L 372.066 94.000 377.533 94.000 L 383.000 94.000 383.000 77.500 L 383.000 61.000 388.500 61.000 L 394.000 61.000 394.000 50.000 L 394.000 39.000 397.000 39.000 L 400.000 39.000 400.000 19.500 L 400.000 0.000 336.000 0.000 L 272.000 0.000 272.000 14.000 L 272.000 28.000 266.500 28.000 L 261.000 28.000 261.000 39.000 L 261.000 50.000 255.500 50.000 L 250.000 50.000 250.000 66.448 L 250.000 82.895 244.750 83.198 L 239.500 83.500 239.226 100.250 L 238.952 117.000 233.476 117.000 L 228.000 117.000 228.000 133.500 L 228.000 150.000 222.500 150.000 L 217.000 150.000 217.000 166.448 L 217.000 182.895 211.750 183.198 L 206.500 183.500 206.226 200.250 L 205.952 217.000 200.000 217.000 L 194.048 217.000 193.774 200.250 L 193.500 183.500 188.250 183.198 L 183.000 182.895 183.000 166.448 L 183.000 150.000 177.500 150.000 L 172.000 150.000 172.000 139.000 L 172.000 128.000 166.500 128.000 L 161.000 128.000 161.000 111.572 L 161.000 95.144 155.524 94.460 L 150.048 93.776 149.774 77.638 L 149.500 61.500 144.250 61.198 L 139.000 60.895 139.000 44.448 L 139.000 28.000 133.500 28.000 L 128.000 28.000 128.000 14.000 L 128.000 0.000 64.000 0.000 L 0.000 0.000 0.000 19.500 " stroke="none" fill="#000000" fill-rule="evenodd"></path></g></svg>