<svg id="svg" version="1.1" width="400" height="400" xmlns="http://www.w3.org/2000/svg" xmlns:xlink="http://www.w3.org/1999/xlink" style="display: block;"><g id="svgg"><path id="path0" d="M121.000 132.968 C 121.000 134.086,120.550 135.000,120.000 135.000 C 119.450 135.000,119.000 136.125,119.000 137.500 C 119.000 138.875,118.550 140.000,118.000 140.000 C 117.450 140.000,117.000 141.575,117.000 143.500 C 117.000 145.944,116.548 147.000,115.500 147.000 C 114.452 147.000,114.000 148.056,114.000 150.500 C 114.000 152.425,113.550 154.000,113.000 154.000 C 112.450 154.000,112.000 155.575,112.000 157.500 L 112.000 161.000 120.000 161.000 C 126.444 161.000,128.000 160.708,128.000 159.500 C 128.000 158.675,128.675 158.000,129.500 158.000 C 130.333 158.000,131.000 157.111,131.000 156.000 C 131.000 154.900,131.450 154.000,132.000 154.000 C 132.550 154.000,133.000 153.325,133.000 152.500 C 133.000 151.675,133.450 151.000,134.000 151.000 C 134.550 151.000,135.000 150.100,135.000 149.000 C 135.000 147.900,135.513 147.000,136.140 147.000 C 137.523 147.000,139.924 143.993,139.968 142.205 C 139.986 141.492,141.150 139.759,142.556 138.353 C 144.076 136.833,144.988 134.925,144.806 133.648 C 144.341 130.386,121.000 129.719,121.000 132.968 M175.000 185.000 C 175.000 220.333,175.346 239.000,176.000 239.000 C 176.550 239.000,177.000 240.125,177.000 241.500 C 177.000 242.875,177.450 244.000,178.000 244.000 C 178.550 244.000,179.000 245.125,179.000 246.500 C 179.000 248.056,179.567 249.000,180.500 249.000 C 181.325 249.000,182.000 249.450,182.000 250.000 C 182.000 250.550,182.900 251.000,184.000 251.000 C 185.100 251.000,186.000 251.450,186.000 252.000 C 186.000 252.550,187.575 253.000,189.500 253.000 C 191.425 253.000,193.000 253.450,193.000 254.000 C 193.000 254.603,197.167 255.000,203.500 255.000 L 214.000 255.000 214.000 245.000 L 214.000 235.000 207.000 235.000 C 201.444 235.000,200.000 234.690,200.000 233.500 C 200.000 232.675,199.550 232.000,199.000 232.000 C 198.347 232.000,198.000 214.500,198.000 181.500 L 198.000 131.000 186.500 131.000 L 175.000 131.000 175.000 185.000 M292.228 150.250 L 292.500 169.500 301.750 169.788 L 311.000 170.075 311.000 212.538 L 311.000 255.000 313.500 255.000 C 315.056 255.000,316.000 255.567,316.000 256.500 C 316.000 257.679,317.389 258.000,322.500 258.000 C 326.167 258.000,329.000 258.436,329.000 259.000 C 329.000 259.571,332.000 260.000,336.000 260.000 C 340.000 260.000,343.000 260.429,343.000 261.000 C 343.000 261.550,344.575 262.000,346.500 262.000 C 349.833 262.000,350.000 261.833,350.000 258.500 L 350.000 255.000 356.000 255.000 C 360.667 255.000,362.000 255.333,362.000 256.500 C 362.000 257.325,361.550 258.000,361.000 258.000 C 360.450 258.000,360.000 258.900,360.000 260.000 C 360.000 261.795,360.667 262.000,366.500 262.000 C 370.167 262.000,373.000 261.564,373.000 261.000 C 373.000 260.444,375.667 260.000,379.000 260.000 C 382.333 260.000,385.000 259.556,385.000 259.000 C 385.000 258.444,387.667 258.000,391.000 258.000 C 395.667 258.000,397.000 257.667,397.000 256.500 C 397.000 255.675,397.450 255.000,398.000 255.000 C 398.651 255.000,399.000 239.833,399.000 211.500 L 399.000 168.000 357.500 168.000 L 316.000 168.000 316.000 149.500 L 316.000 131.000 303.978 131.000 L 291.957 131.000 292.228 150.250 M0.342 173.244 C 0.684 176.128,1.422 178.641,1.982 178.827 C 2.542 179.014,3.000 180.704,3.000 182.583 C 3.000 184.954,3.459 186.000,4.500 186.000 C 5.548 186.000,6.000 187.056,6.000 189.500 C 6.000 191.425,6.450 193.000,7.000 193.000 C 7.550 193.000,8.000 194.575,8.000 196.500 C 8.000 198.425,8.450 200.000,9.000 200.000 C 9.550 200.000,10.000 201.125,10.000 202.500 C 10.000 204.056,10.567 205.000,11.500 205.000 C 12.548 205.000,13.000 206.056,13.000 208.500 C 13.000 210.425,13.450 212.000,14.000 212.000 C 14.550 212.000,15.000 213.350,15.000 215.000 C 15.000 216.650,15.450 218.000,16.000 218.000 C 16.550 218.000,17.000 219.575,17.000 221.500 C 17.000 223.944,17.452 225.000,18.500 225.000 C 19.433 225.000,20.000 225.944,20.000 227.500 C 20.000 228.875,20.450 230.000,21.000 230.000 C 21.550 230.000,22.000 231.575,22.000 233.500 C 22.000 235.425,22.450 237.000,23.000 237.000 C 23.550 237.000,24.000 238.575,24.000 240.500 C 24.000 242.944,24.452 244.000,25.500 244.000 C 26.548 244.000,27.000 245.056,27.000 247.500 C 27.000 249.425,27.450 251.000,28.000 251.000 C 28.550 251.000,29.000 251.900,29.000 253.000 C 29.000 254.852,29.667 255.000,38.000 255.000 C 43.333 255.000,47.000 254.593,47.000 254.000 C 47.000 253.450,47.675 253.000,48.500 253.000 C 49.333 253.000,50.000 252.111,50.000 251.000 C 50.000 249.900,50.450 249.000,51.000 249.000 C 51.550 249.000,52.000 247.425,52.000 245.500 C 52.000 243.575,52.450 242.000,53.000 242.000 C 53.550 242.000,54.000 240.425,54.000 238.500 C 54.000 236.056,54.452 235.000,55.500 235.000 C 56.433 235.000,57.000 234.056,57.000 232.500 C 57.000 231.125,57.450 230.000,58.000 230.000 C 58.550 230.000,59.000 228.425,59.000 226.500 C 59.000 224.575,59.450 223.000,60.000 223.000 C 60.550 223.000,61.000 221.425,61.000 219.500 C 61.000 217.056,61.452 216.000,62.500 216.000 C 63.548 216.000,64.000 214.944,64.000 212.500 C 64.000 210.575,64.450 209.000,65.000 209.000 C 65.550 209.000,66.000 207.425,66.000 205.500 C 66.000 203.575,66.450 202.000,67.000 202.000 C 67.550 202.000,68.000 201.148,68.000 200.107 C 68.000 199.066,68.675 197.955,69.500 197.638 C 70.377 197.302,71.000 195.803,71.000 194.031 C 71.000 192.364,71.450 191.000,72.000 191.000 C 72.550 191.000,73.000 189.425,73.000 187.500 C 73.000 185.575,73.450 184.000,74.000 184.000 C 74.550 184.000,75.000 182.425,75.000 180.500 C 75.000 178.575,75.450 177.000,76.000 177.000 C 76.550 177.000,77.000 174.975,77.000 172.500 L 77.000 168.000 65.500 168.000 C 54.667 168.000,54.000 168.116,54.000 170.000 C 54.000 171.100,53.550 172.000,53.000 172.000 C 52.450 172.000,52.000 173.575,52.000 175.500 C 52.000 177.425,51.550 179.000,51.000 179.000 C 50.450 179.000,50.000 180.977,50.000 183.393 C 50.000 186.375,49.518 187.971,48.500 188.362 C 47.623 188.698,47.000 190.197,47.000 191.969 C 47.000 193.636,46.550 195.000,46.000 195.000 C 45.450 195.000,45.000 196.575,45.000 198.500 C 45.000 200.425,44.550 202.000,44.000 202.000 C 43.450 202.000,43.000 203.527,43.000 205.393 C 43.000 207.487,42.426 209.006,41.500 209.362 C 40.623 209.698,40.000 211.197,40.000 212.969 C 40.000 214.636,39.550 216.000,39.000 216.000 C 38.450 216.000,38.000 215.100,38.000 214.000 C 38.000 212.900,37.550 212.000,37.000 212.000 C 36.450 212.000,36.000 210.425,36.000 208.500 C 36.000 206.575,35.550 205.000,35.000 205.000 C 34.450 205.000,34.000 203.425,34.000 201.500 C 34.000 199.056,33.548 198.000,32.500 198.000 C 31.452 198.000,31.000 196.944,31.000 194.500 C 31.000 192.575,30.550 191.000,30.000 191.000 C 29.450 191.000,29.000 188.975,29.000 186.500 C 29.000 184.025,28.550 182.000,28.000 182.000 C 27.450 182.000,27.000 180.425,27.000 178.500 C 27.000 176.056,26.548 175.000,25.500 175.000 C 24.649 175.000,24.000 174.103,24.000 172.929 C 24.000 168.791,21.823 168.000,10.432 168.000 L -0.279 168.000 0.342 173.244 M110.000 169.000 C 110.000 169.550,108.425 170.000,106.500 170.000 C 104.575 170.000,103.000 170.450,103.000 171.000 C 103.000 171.550,101.875 172.000,100.500 172.000 C 99.125 172.000,98.000 172.470,98.000 173.045 C 98.000 174.403,93.403 179.000,92.045 179.000 C 91.470 179.000,91.000 180.125,91.000 181.500 C 91.000 182.875,90.550 184.000,90.000 184.000 C 89.450 184.000,89.000 184.900,89.000 186.000 C 89.000 187.100,88.550 188.000,88.000 188.000 C 87.450 188.000,87.000 189.125,87.000 190.500 C 87.000 192.056,86.433 193.000,85.500 193.000 C 84.221 193.000,84.000 195.722,84.000 211.500 C 84.000 227.278,84.221 230.000,85.500 230.000 C 86.548 230.000,87.000 231.056,87.000 233.500 C 87.000 235.425,87.450 237.000,88.000 237.000 C 88.550 237.000,89.000 237.932,89.000 239.071 C 89.000 241.032,91.108 244.000,92.500 244.000 C 93.334 244.000,96.000 246.666,96.000 247.500 C 96.000 248.892,98.968 251.000,100.929 251.000 C 102.068 251.000,103.000 251.450,103.000 252.000 C 103.000 252.550,104.125 253.000,105.500 253.000 C 106.875 253.000,108.000 253.450,108.000 254.000 C 108.000 254.622,113.667 255.000,123.000 255.000 C 132.333 255.000,138.000 254.622,138.000 254.000 C 138.000 253.450,139.265 253.000,140.811 253.000 C 142.358 253.000,144.589 252.100,145.770 251.000 C 146.950 249.900,148.610 249.000,149.458 249.000 C 150.306 249.000,151.000 248.325,151.000 247.500 C 151.000 246.675,151.482 246.000,152.071 246.000 C 153.691 246.000,156.000 243.355,156.000 241.500 C 156.000 239.883,153.757 237.000,152.500 237.000 C 151.633 237.000,149.000 234.320,149.000 233.438 C 149.000 229.765,141.121 227.057,139.000 230.000 C 138.207 231.100,136.533 232.000,135.279 232.000 C 133.920 232.000,133.000 232.605,133.000 233.500 C 133.000 234.548,131.944 235.000,129.500 235.000 C 127.575 235.000,126.000 235.450,126.000 236.000 C 126.000 236.550,124.875 237.000,123.500 237.000 C 122.125 237.000,121.000 236.550,121.000 236.000 C 121.000 235.450,119.425 235.000,117.500 235.000 C 115.575 235.000,114.000 234.506,114.000 233.901 C 114.000 233.297,112.692 231.580,111.093 230.086 C 108.424 227.594,107.482 224.396,107.899 219.250 C 107.977 218.286,113.721 218.000,133.000 218.000 L 158.000 218.000 158.000 206.500 C 158.000 199.500,157.609 195.000,157.000 195.000 C 156.450 195.000,156.000 193.425,156.000 191.500 C 156.000 189.575,155.550 188.000,155.000 188.000 C 154.450 188.000,154.000 187.100,154.000 186.000 C 154.000 184.900,153.518 184.000,152.929 184.000 C 151.309 184.000,149.000 181.355,149.000 179.500 C 149.000 177.231,146.557 175.000,144.071 175.000 C 142.932 175.000,142.000 174.518,142.000 173.929 C 142.000 171.898,139.135 170.000,136.071 170.000 C 134.382 170.000,133.000 169.550,133.000 169.000 C 133.000 168.391,128.500 168.000,121.500 168.000 C 114.500 168.000,110.000 168.391,110.000 169.000 M246.000 169.000 C 246.000 169.550,244.425 170.000,242.500 170.000 C 240.575 170.000,239.000 170.450,239.000 171.000 C 239.000 171.550,238.100 172.000,237.000 172.000 C 235.889 172.000,235.000 172.667,235.000 173.500 C 235.000 174.325,234.530 175.000,233.955 175.000 C 232.597 175.000,228.000 179.597,228.000 180.955 C 228.000 181.530,227.325 182.000,226.500 182.000 C 225.667 182.000,225.000 182.889,225.000 184.000 C 225.000 185.100,224.550 186.000,224.000 186.000 C 223.450 186.000,223.000 188.025,223.000 190.500 C 223.000 192.975,222.550 195.000,222.000 195.000 C 221.374 195.000,221.000 201.167,221.000 211.500 C 221.000 221.833,221.374 228.000,222.000 228.000 C 222.550 228.000,223.000 230.025,223.000 232.500 C 223.000 234.975,223.450 237.000,224.000 237.000 C 224.550 237.000,225.000 237.714,225.000 238.587 C 225.000 240.620,235.416 251.000,237.457 251.000 C 238.305 251.000,239.000 251.450,239.000 252.000 C 239.000 252.550,240.125 253.000,241.500 253.000 C 242.875 253.000,244.000 253.450,244.000 254.000 C 244.000 254.613,248.833 255.000,256.500 255.000 C 264.167 255.000,269.000 254.613,269.000 254.000 C 269.000 253.450,270.575 253.000,272.500 253.000 C 274.425 253.000,276.000 252.550,276.000 252.000 C 276.000 251.450,276.932 251.000,278.071 251.000 C 280.285 251.000,283.000 248.836,283.000 247.071 C 283.000 246.482,283.482 246.000,284.071 246.000 C 285.836 246.000,288.000 243.285,288.000 241.071 C 288.000 239.932,288.450 239.000,289.000 239.000 C 289.550 239.000,290.000 238.100,290.000 237.000 C 290.000 235.900,290.450 235.000,291.000 235.000 C 291.571 235.000,292.000 232.000,292.000 228.000 C 292.000 222.444,292.310 221.000,293.500 221.000 C 294.728 221.000,295.000 219.278,295.000 211.500 C 295.000 203.722,294.728 202.000,293.500 202.000 C 292.310 202.000,292.000 200.556,292.000 195.000 C 292.000 191.000,291.571 188.000,291.000 188.000 C 290.450 188.000,290.000 187.100,290.000 186.000 C 290.000 184.900,289.550 184.000,289.000 184.000 C 288.450 184.000,288.000 183.068,288.000 181.929 C 288.000 179.715,285.836 177.000,284.071 177.000 C 283.482 177.000,283.000 176.550,283.000 176.000 C 283.000 175.450,282.100 175.000,281.000 175.000 C 279.889 175.000,279.000 174.333,279.000 173.500 C 279.000 172.675,278.325 172.000,277.500 172.000 C 276.675 172.000,276.000 171.550,276.000 171.000 C 276.000 170.450,274.425 170.000,272.500 170.000 C 270.575 170.000,269.000 169.550,269.000 169.000 C 269.000 168.391,264.500 168.000,257.500 168.000 C 250.500 168.000,246.000 168.391,246.000 169.000 M336.000 174.500 C 336.000 176.056,336.567 177.000,337.500 177.000 C 338.548 177.000,339.000 178.056,339.000 180.500 C 339.000 182.425,339.450 184.000,340.000 184.000 C 340.550 184.000,341.000 184.900,341.000 186.000 C 341.000 187.100,341.450 188.000,342.000 188.000 C 342.550 188.000,343.000 189.575,343.000 191.500 C 343.000 193.944,343.452 195.000,344.500 195.000 C 345.548 195.000,346.000 196.056,346.000 198.500 C 346.000 200.425,346.450 202.000,347.000 202.000 C 347.550 202.000,348.000 203.575,348.000 205.500 C 348.000 207.425,348.450 209.000,349.000 209.000 C 349.550 209.000,350.000 210.575,350.000 212.500 C 350.000 214.944,350.452 216.000,351.500 216.000 C 352.548 216.000,353.000 217.056,353.000 219.500 C 353.000 222.833,353.167 223.000,356.500 223.000 C 359.833 223.000,360.000 222.833,360.000 219.500 C 360.000 217.575,360.450 216.000,361.000 216.000 C 361.550 216.000,362.000 214.425,362.000 212.500 C 362.000 210.575,362.450 209.000,363.000 209.000 C 363.550 209.000,364.000 207.425,364.000 205.500 C 364.000 203.575,364.450 202.000,365.000 202.000 C 365.550 202.000,366.000 200.425,366.000 198.500 C 366.000 196.056,366.452 195.000,367.500 195.000 C 368.548 195.000,369.000 193.944,369.000 191.500 C 369.000 189.575,369.450 188.000,370.000 188.000 C 370.550 188.000,371.000 186.425,371.000 184.500 C 371.000 182.575,371.450 181.000,372.000 181.000 C 372.550 181.000,373.000 179.650,373.000 178.000 C 373.000 176.000,373.500 175.000,374.500 175.000 C 375.325 175.000,376.000 174.325,376.000 173.500 C 376.000 172.278,377.667 172.000,385.000 172.000 C 392.333 172.000,394.000 172.278,394.000 173.500 C 394.000 174.325,393.550 175.000,393.000 175.000 C 392.450 175.000,392.000 176.575,392.000 178.500 C 392.000 180.425,391.550 182.000,391.000 182.000 C 390.450 182.000,390.000 182.900,390.000 184.000 C 390.000 185.111,389.333 186.000,388.500 186.000 C 387.452 186.000,387.000 187.056,387.000 189.500 C 387.000 191.425,386.550 193.000,386.000 193.000 C 385.450 193.000,385.000 194.125,385.000 195.500 C 385.000 196.875,384.550 198.000,384.000 198.000 C 383.450 198.000,383.000 199.575,383.000 201.500 C 383.000 203.944,382.548 205.000,381.500 205.000 C 380.667 205.000,380.000 205.889,380.000 207.000 C 380.000 208.100,379.550 209.000,379.000 209.000 C 378.450 209.000,378.000 210.575,378.000 212.500 C 378.000 214.425,377.550 216.000,377.000 216.000 C 376.450 216.000,376.000 217.575,376.000 219.500 C 376.000 221.944,375.548 223.000,374.500 223.000 C 373.567 223.000,373.000 223.944,373.000 225.500 C 373.000 226.875,372.550 228.000,372.000 228.000 C 371.450 228.000,371.000 229.575,371.000 231.500 C 371.000 233.425,370.550 235.000,370.000 235.000 C 369.450 235.000,369.000 235.852,369.000 236.893 C 369.000 237.934,368.325 239.045,367.500 239.362 C 366.623 239.698,366.000 241.197,366.000 242.969 C 366.000 244.636,365.550 246.000,365.000 246.000 C 364.450 246.000,364.000 247.125,364.000 248.500 C 364.000 250.958,363.867 251.000,356.000 251.000 C 348.133 251.000,348.000 250.958,348.000 248.500 C 348.000 247.125,347.550 246.000,347.000 246.000 C 346.450 246.000,346.000 245.100,346.000 244.000 C 346.000 242.889,345.333 242.000,344.500 242.000 C 343.452 242.000,343.000 240.944,343.000 238.500 C 343.000 236.575,342.550 235.000,342.000 235.000 C 341.450 235.000,341.000 233.425,341.000 231.500 C 341.000 229.575,340.550 228.000,340.000 228.000 C 339.450 228.000,339.000 226.875,339.000 225.500 C 339.000 223.944,338.433 223.000,337.500 223.000 C 336.452 223.000,336.000 221.944,336.000 219.500 C 336.000 217.575,335.550 216.000,335.000 216.000 C 334.450 216.000,334.000 215.100,334.000 214.000 C 334.000 212.900,333.550 212.000,333.000 212.000 C 332.450 212.000,332.000 210.425,332.000 208.500 C 332.000 206.056,331.548 205.000,330.500 205.000 C 329.567 205.000,329.000 204.056,329.000 202.500 C 329.000 201.125,328.550 200.000,328.000 200.000 C 327.450 200.000,327.000 198.425,327.000 196.500 C 327.000 194.575,326.550 193.000,326.000 193.000 C 325.450 193.000,325.000 191.425,325.000 189.500 C 325.000 187.575,324.550 186.000,324.000 186.000 C 323.450 186.000,323.000 185.100,323.000 184.000 C 323.000 182.889,322.333 182.000,321.500 182.000 C 320.452 182.000,320.000 180.944,320.000 178.500 C 320.000 176.575,319.550 175.000,319.000 175.000 C 318.450 175.000,318.000 174.325,318.000 173.500 C 318.000 172.278,319.667 172.000,327.000 172.000 C 335.933 172.000,336.000 172.019,336.000 174.500 M126.000 189.071 C 126.000 190.237,128.462 193.000,129.500 193.000 C 130.538 193.000,133.000 195.763,133.000 196.929 C 133.000 197.628,129.011 198.000,121.500 198.000 C 110.534 198.000,110.000 197.904,110.000 195.929 C 110.000 193.276,112.276 191.000,114.929 191.000 C 116.103 191.000,117.000 190.351,117.000 189.500 C 117.000 188.389,118.167 188.000,121.500 188.000 C 124.033 188.000,126.000 188.468,126.000 189.071 M262.000 189.500 C 262.000 190.325,262.470 191.000,263.045 191.000 C 265.870 191.000,269.000 195.969,269.000 200.455 C 269.000 203.828,269.387 205.000,270.500 205.000 C 271.690 205.000,272.000 206.444,272.000 212.000 C 272.000 217.556,271.690 219.000,270.500 219.000 C 269.414 219.000,269.000 220.116,269.000 223.040 C 269.000 228.812,262.770 235.000,256.960 235.000 C 254.107 235.000,253.000 234.581,253.000 233.500 C 253.000 232.667,252.111 232.000,251.000 232.000 C 249.900 232.000,249.000 231.550,249.000 231.000 C 249.000 230.450,248.325 230.000,247.500 230.000 C 246.452 230.000,246.000 228.944,246.000 226.500 C 246.000 224.575,245.550 223.000,245.000 223.000 C 244.391 223.000,244.000 218.500,244.000 211.500 C 244.000 204.500,244.391 200.000,245.000 200.000 C 245.550 200.000,246.000 198.425,246.000 196.500 C 246.000 194.056,246.452 193.000,247.500 193.000 C 248.325 193.000,249.000 192.550,249.000 192.000 C 249.000 191.450,249.900 191.000,251.000 191.000 C 252.111 191.000,253.000 190.333,253.000 189.500 C 253.000 188.389,254.167 188.000,257.500 188.000 C 260.833 188.000,262.000 188.389,262.000 189.500 " stroke="none" fill="#000000" fill-rule="evenodd"></path></g></svg>