<svg version="1.1" width="400" height="400" xmlns="http://www.w3.org/2000/svg">
<g>
<path d="M103.000 149.268 C 96.675 150.402,91.350 151.705,91.167 152.165 C 90.983 152.624,89.783 153.000,88.498 153.000 C 85.083 153.000,83.000 154.013,83.000 155.674 C 83.000 156.593,83.649 156.946,84.750 156.625 C 85.713 156.344,91.563 155.327,97.750 154.364 C 103.938 153.400,109.000 152.250,109.000 151.806 C 109.000 151.363,110.117 151.000,111.482 151.000 L 113.964 151.000 114.232 174.667 C 114.434 192.518,114.807 198.437,115.750 198.751 C 116.729 199.076,117.000 193.505,117.000 173.083 C 117.000 152.828,116.721 147.023,115.750 147.103 C 115.063 147.159,109.325 148.134,103.000 149.268 M76.137 162.748 L 64.774 163.068 65.485 169.708 C 66.510 179.278,66.253 179.000,74.088 179.000 C 81.593 179.000,81.523 178.937,82.226 186.423 C 82.783 192.359,85.000 190.489,85.000 184.083 L 85.000 178.000 88.883 178.000 C 92.657 178.000,93.924 176.661,93.986 172.606 C 93.994 172.105,89.450 171.945,83.624 172.242 C 74.064 172.730,69.583 172.084,71.214 170.453 C 71.575 170.092,78.383 169.553,86.343 169.255 C 100.261 168.734,100.864 168.623,102.077 166.357 C 102.770 165.060,103.712 164.000,104.169 164.000 C 104.626 164.000,105.000 163.550,105.000 163.000 C 105.000 162.022,102.633 162.001,76.137 162.748 M126.535 177.250 C 126.925 179.588,127.539 181.725,127.899 182.000 C 128.259 182.275,130.063 191.725,131.909 203.000 C 135.938 227.621,135.035 226.149,145.883 225.787 L 154.459 225.500 156.871 210.500 C 158.198 202.250,159.600 195.275,159.988 195.000 C 160.375 194.725,161.382 190.450,162.226 185.500 L 163.760 176.500 163.880 201.251 L 164.000 226.003 187.000 225.960 L 210.000 225.917 210.041 216.209 L 210.082 206.500 212.655 212.500 C 214.980 217.924,216.438 219.941,218.066 219.985 C 218.377 219.993,219.658 217.525,220.912 214.500 C 222.165 211.475,223.565 209.000,224.022 209.000 C 224.479 209.000,225.059 208.213,225.311 207.250 C 225.562 206.287,225.820 210.113,225.884 215.750 L 226.000 226.000 232.500 226.000 L 239.000 226.000 239.000 199.500 L 239.000 173.000 232.655 173.000 C 225.250 173.000,224.353 173.691,220.527 182.342 C 217.548 189.079,216.960 188.864,212.770 179.500 L 210.086 173.500 179.688 173.229 L 149.291 172.959 147.396 186.229 C 146.354 193.528,145.360 198.037,145.187 196.250 C 145.015 194.463,144.525 193.000,144.098 193.000 C 143.672 193.000,142.750 188.500,142.049 183.000 L 140.775 173.000 133.299 173.000 L 125.824 173.000 126.535 177.250 M245.229 173.657 C 241.611 175.148,241.000 179.388,241.000 202.996 L 241.000 226.091 247.750 225.796 L 254.500 225.500 254.819 221.610 C 255.183 217.158,256.384 215.623,260.260 214.650 L 263.000 213.962 263.000 219.992 L 263.000 226.022 286.167 225.761 C 303.624 225.564,309.437 225.192,309.751 224.250 C 309.980 223.563,310.788 223.000,311.548 223.000 C 314.072 223.000,315.000 219.235,315.000 209.000 C 315.000 197.652,314.393 195.820,310.038 194.016 C 308.367 193.324,307.000 192.382,307.000 191.922 C 307.000 191.463,303.738 190.955,299.750 190.794 C 288.298 190.330,291.083 188.536,303.750 188.217 L 315.000 187.934 315.000 180.467 L 315.000 173.000 299.648 173.000 L 284.297 173.000 281.210 175.950 L 278.123 178.900 277.812 176.200 L 277.500 173.500 262.000 173.316 C 253.475 173.215,245.928 173.368,245.229 173.657 M316.000 175.015 C 316.000 177.926,319.198 189.000,320.039 189.000 C 320.430 189.000,321.028 190.389,321.367 192.086 C 322.286 196.682,324.134 195.164,325.794 188.446 C 326.603 185.176,327.689 182.227,328.208 181.894 C 328.727 181.561,329.402 179.423,329.707 177.144 L 330.263 173.000 323.132 173.000 C 316.649 173.000,316.000 173.183,316.000 175.015 M337.975 175.565 C 337.439 176.976,337.000 178.551,337.000 179.065 C 337.000 179.579,336.623 180.000,336.162 180.000 C 335.701 180.000,333.828 185.400,332.000 192.000 C 330.172 198.600,328.335 204.000,327.918 204.000 C 326.442 204.000,325.815 210.259,326.507 218.080 L 327.208 226.000 334.104 226.000 L 341.000 226.000 341.000 218.943 C 341.000 211.448,342.653 203.000,344.119 203.000 C 344.603 203.000,345.000 202.268,345.000 201.374 C 345.000 198.713,351.212 178.528,352.143 178.167 C 352.614 177.983,353.000 176.746,353.000 175.417 C 353.000 171.561,339.447 171.695,337.975 175.565 M358.223 173.671 C 353.837 175.435,351.465 189.934,354.044 199.221 C 355.566 204.698,358.097 206.000,367.223 206.000 C 374.759 206.000,375.000 206.074,375.000 208.393 C 375.000 211.577,373.520 212.000,362.373 212.000 L 352.909 212.000 353.204 218.750 L 353.500 225.500 369.085 225.500 L 384.669 225.500 387.303 222.500 C 393.249 215.728,390.354 193.000,383.545 193.000 C 382.695 193.000,382.000 192.550,382.000 192.000 C 382.000 191.442,379.240 190.993,375.750 190.985 C 369.088 190.968,365.474 189.799,368.498 188.639 C 369.414 188.288,374.627 188.000,380.082 188.000 L 390.000 188.000 390.000 180.500 L 390.000 173.000 374.750 173.079 C 366.363 173.122,358.925 173.389,358.223 173.671 M195.000 189.000 C 195.000 190.843,194.333 191.000,186.500 191.000 C 174.295 191.000,174.083 188.241,186.250 187.744 C 190.787 187.559,194.613 187.315,194.750 187.204 C 194.887 187.092,195.000 187.900,195.000 189.000 M91.000 189.812 C 89.075 190.738,87.275 191.785,87.000 192.139 C 86.725 192.492,84.603 193.768,82.285 194.974 C 77.116 197.662,62.000 212.146,62.000 214.411 C 62.000 216.019,63.564 217.951,73.302 228.365 C 82.039 237.710,82.699 238.487,83.262 240.098 C 83.832 241.728,90.685 245.381,95.390 246.562 L 98.000 247.217 98.003 234.858 C 98.005 228.061,98.301 214.738,98.660 205.250 L 99.315 188.000 96.907 188.064 C 95.583 188.099,92.925 188.886,91.000 189.812 M263.000 195.000 L 263.000 202.000 259.000 202.000 L 255.000 202.000 255.000 195.000 L 255.000 188.000 259.000 188.000 L 263.000 188.000 263.000 195.000 M104.000 198.729 C 102.484 199.306,101.043 200.957,101.015 202.149 C 100.997 202.907,108.604 207.000,110.031 207.000 C 111.640 207.000,111.119 202.162,109.278 200.011 C 107.513 197.950,106.618 197.732,104.000 198.729 M89.992 201.750 C 89.988 202.162,88.863 203.020,87.492 203.656 C 84.841 204.886,84.217 204.183,86.200 202.200 C 87.529 200.871,90.004 200.577,89.992 201.750 M282.215 204.273 C 284.159 205.510,287.035 206.000,292.348 206.000 C 298.817 206.000,299.831 206.245,300.268 207.916 C 301.146 211.275,299.022 212.000,288.300 212.000 L 278.000 212.000 278.015 206.250 C 278.024 203.088,278.361 200.960,278.765 201.523 C 279.169 202.086,280.722 203.323,282.215 204.273 M195.000 209.040 L 195.000 212.081 186.750 211.790 C 178.575 211.503,178.497 211.475,178.184 208.750 L 177.867 206.000 186.434 206.000 L 195.000 206.000 195.000 209.040 M37.692 231.194 C 35.701 244.450,34.905 243.506,48.829 244.402 C 54.698 244.780,62.087 245.358,65.250 245.687 C 69.981 246.179,71.000 246.017,71.000 244.771 C 71.000 243.021,67.294 242.417,50.250 241.392 C 44.063 241.020,39.000 240.329,39.000 239.858 C 39.000 239.386,39.395 239.000,39.878 239.000 C 40.362 239.000,41.262 235.607,41.878 231.459 C 43.407 221.183,43.336 220.000,41.187 220.000 C 39.644 220.000,39.123 221.670,37.692 231.194 M114.607 234.582 C 114.273 235.452,114.000 238.654,114.000 241.698 L 114.000 247.233 107.500 246.537 C 101.491 245.893,101.000 245.988,101.000 247.784 C 101.000 249.804,105.700 251.000,113.640 251.000 L 117.000 251.000 117.000 242.000 C 117.000 233.660,116.069 230.773,114.607 234.582 " stroke="none" fill-rule="evenodd"></path>
</g>
</svg>