<svg xmlns="http://www.w3.org/2000/svg" width="400" height="400" viewBox="0, 0, 400,400">
<g>
<path d="M73.515 155.685 C 68.070 161.130,74.466 169.884,81.305 166.348 C 87.519 163.135,85.163 153.333,78.177 153.333 C 76.422 153.333,75.301 153.899,73.515 155.685 M226.667 172.773 L 226.667 192.213 222.670 188.216 C 198.817 164.363,159.660 192.624,171.959 224.817 C 180.042 245.977,206.564 252.305,222.692 236.922 L 226.667 233.130 226.667 239.232 L 226.667 245.333 230.333 245.333 L 234.000 245.333 234.000 199.333 L 234.000 153.333 230.333 153.333 L 226.667 153.333 226.667 172.773 M361.291 161.500 C 363.045 164.892,365.334 169.680,366.378 172.141 C 368.592 177.364,369.150 177.500,367.993 172.536 C 366.619 166.644,360.411 155.333,358.550 155.333 C 358.303 155.333,359.536 158.108,361.291 161.500 M394.343 157.303 C 393.518 159.903,387.652 164.359,383.333 165.667 C 372.946 168.812,368.713 175.160,371.553 183.333 C 373.051 187.645,382.212 183.944,389.365 176.138 C 391.548 173.756,393.333 172.150,393.333 172.568 C 393.333 174.502,385.935 181.581,379.850 185.469 C 374.672 188.778,374.613 188.909,377.500 190.687 C 392.428 199.877,405.701 178.646,396.998 159.500 C 395.242 155.636,394.949 155.394,394.343 157.303 M0.962 180.500 C 4.240 189.221,30.534 245.289,31.288 245.161 C 31.843 245.067,38.451 231.345,47.095 212.333 L 61.948 179.667 58.215 179.464 C 56.162 179.353,54.149 179.391,53.741 179.549 C 53.334 179.707,48.200 190.521,42.333 203.581 C 36.467 216.640,31.503 227.327,31.302 227.329 C 31.102 227.331,26.020 216.533,20.009 203.333 L 9.081 179.333 4.802 179.333 C 1.005 179.333,0.573 179.465,0.962 180.500 M74.000 212.333 L 74.000 245.333 78.333 245.333 L 82.667 245.333 82.667 212.333 L 82.667 179.333 78.333 179.333 L 74.000 179.333 74.000 212.333 M117.299 180.505 C 91.860 187.410,85.600 223.259,107.000 239.483 C 118.461 248.171,137.000 247.268,147.428 237.514 L 150.667 234.484 150.667 239.909 L 150.667 245.333 154.261 245.333 L 157.855 245.333 158.112 227.833 C 158.395 208.615,158.162 205.504,156.021 199.838 C 150.301 184.701,133.234 176.180,117.299 180.505 M268.683 180.402 C 247.446 186.109,238.670 213.904,252.161 232.730 C 265.085 250.764,292.926 249.783,305.101 230.865 C 307.850 226.594,307.930 227.114,304.207 225.033 C 301.425 223.478,301.013 223.404,300.479 224.359 C 288.166 246.361,255.447 240.671,253.876 216.256 L 253.667 213.000 281.500 212.826 L 309.333 212.652 309.333 209.799 C 309.333 190.031,288.613 175.046,268.683 180.402 M346.072 180.013 C 321.247 185.243,312.132 217.845,330.312 236.386 C 353.176 259.705,391.641 237.390,384.645 204.866 C 383.575 199.891,383.425 199.794,379.441 201.478 C 376.073 202.900,375.974 203.018,376.478 204.975 C 380.485 220.525,370.960 236.427,356.812 237.806 L 353.000 238.177 356.152 235.736 C 369.812 225.156,376.273 205.276,371.667 188.000 L 370.333 183.000 370.164 187.000 C 369.020 213.969,363.387 229.128,351.781 236.469 C 348.919 238.279,346.965 238.149,342.333 235.842 C 323.609 226.517,324.115 198.609,343.180 189.220 C 346.438 187.615,357.074 186.957,360.333 188.158 C 361.501 188.588,361.803 188.189,362.759 184.947 L 363.851 181.244 362.092 180.550 C 359.676 179.598,349.640 179.261,346.072 180.013 M211.983 188.842 C 221.516 192.409,228.239 204.242,227.089 215.427 C 224.890 236.817,199.431 246.026,185.037 230.637 C 166.143 210.438,186.269 179.221,211.983 188.842 M283.687 187.700 C 290.867 189.570,296.058 193.825,299.097 200.333 C 301.965 206.474,303.758 206.000,277.667 206.000 C 258.672 206.000,254.667 205.841,254.667 205.090 C 254.667 204.589,255.735 202.044,257.040 199.435 C 262.125 189.271,272.380 184.755,283.687 187.700 M135.813 189.296 C 159.157 200.339,153.207 236.215,127.760 237.848 C 112.867 238.804,101.798 228.068,101.798 212.667 C 101.798 194.257,119.945 181.789,135.813 189.296 " stroke="none" fill-rule="evenodd"></path>
</g>
</svg>