<svg xmlns="http://www.w3.org/2000/svg" width="400" height="400" viewBox="0, 0, 400,400">
<g>
<path d="M186.555 2.833 C 203.317 30.133,239.333 106.846,239.333 115.246 C 239.333 115.618,239.640 116.111,240.016 116.343 C 240.769 116.808,240.692 116.051,238.573 102.065 C 232.872 64.444,217.677 31.847,195.268 9.167 C 186.915 0.712,183.913 -1.470,186.555 2.833 M349.409 12.490 C 340.391 31.180,322.011 46.290,301.306 52.037 C 251.533 65.850,232.952 97.326,251.455 136.486 C 253.987 141.846,253.952 141.836,261.811 139.622 C 295.195 130.219,324.760 107.696,342.701 78.000 C 346.409 71.861,346.791 72.999,343.644 80.814 C 336.126 99.490,305.581 127.056,268.833 148.329 C 262.370 152.071,262.465 151.786,266.500 155.352 C 296.817 182.147,332.062 176.698,355.013 141.667 C 377.335 107.595,377.782 57.974,356.136 17.047 C 351.607 8.484,351.408 8.348,349.409 12.490 M151.667 112.331 C 112.452 117.221,81.939 135.013,57.339 167.333 C -5.509 249.906,38.358 376.605,136.747 396.685 C 204.701 410.554,265.804 381.393,295.338 321.000 C 312.921 285.045,314.956 236.767,300.362 201.839 L 299.345 199.405 291.764 203.284 C 284.898 206.796,276.246 210.086,268.937 211.961 L 266.208 212.662 268.461 219.129 C 292.251 287.410,246.133 362.132,178.000 365.695 L 171.000 366.061 172.928 364.531 C 185.765 354.342,190.173 350.529,197.034 343.683 C 255.013 285.827,271.852 210.300,244.730 129.751 C 242.893 124.298,241.274 119.718,241.130 119.575 C 240.987 119.431,241.006 128.093,241.172 138.824 C 242.969 254.944,210.766 337.829,154.102 362.925 L 149.872 364.799 142.948 363.064 C 59.558 342.169,35.272 229.773,101.636 171.874 C 129.533 147.535,166.071 139.862,200.605 151.091 C 204.420 152.331,207.600 153.268,207.670 153.173 C 207.740 153.078,208.153 150.750,208.588 148.000 C 209.618 141.482,212.099 133.375,215.371 125.831 C 216.817 122.497,218.000 119.681,218.000 119.573 C 218.000 119.173,206.725 115.954,200.787 114.658 C 186.214 111.477,166.140 110.526,151.667 112.331 " stroke="none" fill-rule="evenodd"></path>
</g>
</svg>