<svg xmlns="http://www.w3.org/2000/svg" width="400" height="400" viewBox="0, 0, 400,400">
<g>
<path d="M158.333 108.508 C 106.342 110.037,57.454 114.948,41.193 120.274 C 11.760 129.916,1.014 155.110,5.629 203.655 C 8.807 237.077,30.272 254.193,72.279 256.800 C 84.028 257.529,83.407 256.431,83.351 276.374 L 83.309 291.441 84.077 291.979 C 85.564 293.020,86.578 292.621,88.521 290.232 C 93.220 284.453,114.182 261.798,115.411 261.171 C 117.083 260.318,117.093 260.318,130.980 261.032 C 155.769 262.307,161.186 262.415,200.340 262.415 C 239.347 262.415,246.266 262.281,271.599 261.037 C 292.555 260.007,322.178 258.086,329.252 257.297 C 365.415 253.265,386.006 241.043,393.501 219.163 C 398.782 203.744,398.990 167.927,393.887 152.696 C 387.712 134.264,373.758 122.785,352.154 118.364 C 324.378 112.680,307.457 111.205,242.687 108.820 C 230.138 108.358,170.893 108.139,158.333 108.508 M93.357 151.030 C 107.674 154.830,118.367 168.597,118.367 183.230 C 118.367 186.486,118.055 187.075,116.327 187.075 C 114.766 187.075,114.286 186.461,114.285 184.461 C 114.276 174.463,108.489 163.418,100.940 158.994 C 97.128 156.759,88.586 154.082,85.270 154.082 C 82.823 154.082,81.761 152.241,83.248 150.579 C 84.023 149.713,89.279 149.947,93.357 151.030 M140.883 151.535 C 143.112 153.010,144.579 156.553,157.669 192.103 C 158.377 194.027,159.060 195.481,159.187 195.335 C 159.314 195.188,162.736 186.190,166.790 175.340 C 171.362 163.104,174.564 155.022,175.222 154.057 C 177.858 150.189,181.959 149.464,185.968 152.155 C 190.289 155.057,190.202 157.272,185.274 169.898 C 178.715 186.703,167.796 214.420,166.691 217.069 C 164.442 222.463,160.207 224.449,155.760 222.194 C 152.655 220.619,153.889 223.419,135.209 175.542 L 129.183 160.097 129.306 157.653 C 129.590 152.036,136.290 148.495,140.883 151.535 M203.420 151.197 C 210.177 153.581,210.912 163.126,204.592 166.422 C 202.536 167.494,198.955 167.450,196.955 166.327 C 188.265 161.448,194.058 147.894,203.420 151.197 M225.799 151.797 C 228.272 153.433,228.707 154.934,228.908 162.528 C 229.133 171.042,228.819 170.699,234.864 169.033 C 248.073 165.395,257.201 169.877,262.695 182.699 C 266.728 192.112,266.534 201.086,262.104 210.034 C 255.859 222.648,244.507 226.768,232.684 220.712 C 228.724 218.683,228.731 218.683,226.872 220.576 C 222.566 224.964,215.677 223.006,214.311 217.007 C 213.686 214.262,213.832 158.744,214.470 156.292 C 215.803 151.177,221.467 148.929,225.799 151.797 M62.854 151.665 C 66.134 153.340,73.691 163.386,75.009 167.825 C 75.884 170.769,75.264 171.974,71.021 175.576 C 64.947 180.731,72.603 193.707,85.600 200.287 C 89.658 202.342,91.739 201.959,94.359 198.675 C 99.002 192.856,103.620 193.979,115.266 203.755 C 120.329 208.005,120.137 212.176,114.626 217.687 C 108.661 223.652,105.060 223.804,94.606 218.532 C 77.028 209.667,64.276 197.705,54.761 181.155 C 46.815 167.335,45.971 160.324,51.618 155.042 C 55.307 151.592,59.967 150.191,62.854 151.665 M91.410 159.042 C 101.831 161.194,109.524 170.071,109.524 179.942 C 109.524 182.769,109.468 183.014,108.709 183.511 C 107.014 184.622,105.447 183.249,105.440 180.647 C 105.417 172.354,99.877 165.741,91.156 163.600 C 85.551 162.224,85.557 162.227,85.441 160.842 C 85.243 158.466,86.617 158.052,91.410 159.042 M94.491 168.228 C 98.281 170.116,100.969 173.889,101.279 177.756 C 101.634 182.184,97.727 182.729,97.123 178.336 C 96.642 174.837,94.449 172.489,90.816 171.583 C 88.565 171.021,87.755 170.423,87.755 169.323 C 87.755 167.245,91.348 166.661,94.491 168.228 M300.216 168.728 C 309.085 170.965,316.061 178.017,318.889 187.602 C 320.773 193.990,320.083 198.011,316.819 199.660 L 315.136 200.510 299.927 200.680 C 282.372 200.877,283.086 200.744,284.178 203.604 C 287.051 211.126,296.431 212.506,306.973 206.957 C 312.007 204.307,313.922 204.221,316.307 206.542 C 320.195 210.324,319.337 214.309,313.836 218.010 C 296.580 229.622,273.824 222.771,269.006 204.515 C 263.305 182.907,280.096 163.653,300.216 168.728 M335.306 168.850 C 335.811 169.116,336.907 170.034,337.741 170.891 C 339.595 172.795,339.363 172.800,341.960 170.809 C 348.214 166.016,356.082 168.853,356.115 175.913 C 356.131 179.331,355.022 180.626,351.049 181.831 C 341.188 184.820,338.027 190.609,339.112 203.692 C 339.641 210.083,339.251 216.345,338.169 218.790 C 335.834 224.068,327.998 224.420,325.170 219.375 L 324.320 217.857 324.216 196.429 C 324.107 173.985,324.142 173.355,325.599 171.305 C 327.236 169.003,332.881 167.575,335.306 168.850 M204.319 172.822 C 205.342 173.317,206.076 174.018,206.722 175.118 L 207.653 176.701 207.653 197.449 L 207.653 218.197 206.881 219.642 C 204.251 224.566,196.068 224.249,193.807 219.137 C 193.193 217.749,193.160 216.623,193.182 197.527 L 193.206 177.381 194.137 175.521 C 195.784 172.231,200.511 170.978,204.319 172.822 M290.437 180.721 C 286.186 182.311,282.536 187.188,283.731 189.682 L 284.193 190.646 293.542 190.689 C 304.197 190.737,304.082 190.765,304.082 188.196 C 304.082 183.185,295.873 178.688,290.437 180.721 M236.165 182.190 C 228.106 185.045,226.125 199.606,232.822 206.766 C 238.713 213.064,247.962 209.620,250.156 200.311 C 252.849 188.886,245.205 178.986,236.165 182.190 " stroke="none" fill-rule="evenodd"></path>
</g>
</svg>