<svg viewBox="0 0 600 595" xmlns="http://www.w3.org/2000/svg">
  <path style="stroke-width:2.49042106" d="m 540.80374,39.400334 -76.67772,36.086798 c -24.86006,11.699974 -35.52925,41.340418 -23.82925,66.200458 0.007,0.0175 0.0175,0.0311 0.025,0.0485 l 52.70252,-24.80204 -36.68507,133.51479 H 401.23315 L 339.59522,475.61804 236.19412,97.939819 C 227.65733,66.760025 199.31987,45.139981 166.99251,45.139981 H 112.25189 57.506411 3.3737965 C 10.790892,72.303153 35.462971,91.144683 63.620593,91.144683 H 70.10443 L 188.28755,522.79983 c 8.5368,31.1798 36.87428,52.79984 69.20161,52.79984 h 54.74062 54.72118 0.0199 l -0.009,-0.0341 74.34784,-270.42471 -6.44982,23.48389 h 54.32719 l 54.69197,-198.36789 31.60209,45.29941 c 22.39477,-15.6647 27.87133,-46.51103 12.23323,-68.92434 z" />
</svg>
