<svg xmlns="http://www.w3.org/2000/svg" viewBox="0 0 600 595">
  <path d="m 298.33984,0.17382812 c -0.86672,-0.006653 -1.73533,-7.6075e-4 -2.60546,0.0175781 C 286.45292,0.387021 276.98147,2.0305713 267.4043,5.6757812 l -0.21289,0.080078 -0.21094,0.089844 C 202.71747,33.14237 139.4493,62.357933 75.871094,90.285156 36.108428,104.16058 2.3284116,139.22154 0.26171875,184.29297 L 0.25,184.51562 l -0.001953,0.22461 C -0.32916013,252.63664 0.16174809,320.45711 0,388.16016 c -3.4686935,41.96027 14.835223,87.0542 55.166016,107.2539 l 0.201172,0.0996 0.201171,0.0918 c 60.482101,27.53036 121.323161,54.06167 181.794921,81.13281 -0.12824,-0.0667 -0.25877,-0.13231 -0.38672,-0.19922 l 0.65625,0.31836 c -0.0896,-0.0401 -0.17991,-0.079 -0.26953,-0.11914 30.55847,15.89934 69.29907,26.3774 104.91406,9.05469 60.62267,-26.96388 121.24452,-53.92675 181.86719,-80.89063 39.75584,-13.87919 73.52733,-48.93647 75.59375,-94.00195 l 0.0117,-0.22266 0.002,-0.22461 C 600.32914,342.55608 599.83824,274.7369 600,207.0332 603.46862,165.07298 585.16471,119.97897 544.83398,99.779297 l -0.19726,-0.09766 -0.20117,-0.0918 C 486.98112,73.406076 429.17198,48.224641 371.73828,22.503906 c 0.0428,0.02033 0.0881,0.04219 0.13086,0.0625 l -0.24219,-0.111328 c 0.037,0.01655 0.0744,0.03227 0.11133,0.04883 C 350.30267,12.3266 325.15483,0.37965939 298.33984,0.17382812 Z M 297.67773,48.068359 c 8.51123,-0.04977 17.0653,1.85731 26.13477,4.94336 15.39409,5.23812 31.49037,14.054121 48.44727,20.957031 -0.0539,-0.02442 -0.10819,-0.04784 -0.16211,-0.07227 l 0.43945,0.189454 c -0.0931,-0.03776 -0.18431,-0.07932 -0.27734,-0.117188 51.63388,23.383061 103.76305,45.00604 154.24414,69.16211 21.35468,12.49084 27.94251,39.11627 25.80859,65.11719 l -0.0371,0.44922 -0.004,0.45117 c -0.46824,68.35851 0.92887,136.51154 -0.72265,204.23437 -2.77144,24.57726 -24.43787,41.38611 -49.06836,49.97071 l -0.46485,0.16015 -0.44921,0.19922 c -58.054,25.73453 -116.10811,51.47055 -174.16211,77.20508 l -0.24805,0.10937 -0.24414,0.1211 c -23.2814,11.60972 -50.3397,3.35277 -75.53906,-9.5293 l -0.25782,-0.13086 -0.26367,-0.11914 C 191.4866,504.54667 131.57289,479.50259 73.289062,451.86914 51.937405,439.37736 45.35058,412.75328 47.484375,386.75391 l 0.03711,-0.44922 0.0039,-0.44922 c 0.468249,-68.35916 -0.928949,-136.51288 0.722656,-204.23633 2.771458,-24.57723 24.437891,-41.38416 49.068359,-49.96875 l 0.439453,-0.1543 0.427735,-0.18554 C 158.90622,104.70378 219.03668,77.11626 279.69727,51.324219 c 5.50243,-2.006268 10.8896,-3.019812 16.27929,-3.21875 0.56718,-0.02094 1.13376,-0.03379 1.70117,-0.03711 z m 98.36524,100.626951 -30.78906,14.49024 c -9.98226,4.698 -14.26636,16.59977 -9.56836,26.58203 0.003,0.007 0.007,0.0124 0.01,0.0195 l 21.16211,-9.95899 -14.73047,53.61133 H 340 L 315.25,323.85352 273.73047,172.20117 C 270.30262,159.68128 258.92404,151 245.94336,151 h -21.98047 -43.71875 c 2.97825,10.90706 12.88504,18.47266 24.19141,18.47266 h 2.60351 l 47.45508,173.32617 C 257.92199,355.31872 269.30058,364 282.28125,364 h 21.98047 21.98047 l -0.004,-0.0137 29.85352,-108.58594 -2.58985,9.42969 h 21.81446 l 21.96093,-79.65235 12.68946,18.18946 c 8.99235,-6.28997 11.19142,-18.67597 4.91211,-27.67578 z m 179.73437,249.8418 c -0.0257,3.79114 7.3e-4,7.5905 -0.0312,11.38086 -0.0287,0.602 -0.11958,1.18881 -0.16406,1.78711 0.10279,-4.39176 0.11614,-8.77752 0.19531,-13.16797 z m -323.06836,13.33398 c -5.11328,0 -9.23925,1.68457 -12.37695,5.05469 -3.13769,3.35352 -4.70508,8.06836 -4.70508,14.14453 0,5.74414 1.56055,10.27735 4.68164,13.59766 3.1211,3.30371 7.10547,4.95508 11.95313,4.95508 3.91797,0 7.14746,-0.9629 9.6875,-2.88867 2.55664,-1.94239 4.38086,-4.90626 5.47656,-8.89063 l -7.14648,-2.26563 c -0.61426,2.67287 -1.62598,4.63184 -3.03711,5.87696 -1.41114,1.24512 -3.09571,1.86719 -5.05469,1.86719 -2.65625,0 -4.81641,-0.98047 -6.47656,-2.93946 -1.66016,-1.95898 -2.48828,-5.24414 -2.48828,-9.85937 0,-4.34961 0.83691,-7.49707 2.51367,-9.43946 1.69336,-1.94238 3.89355,-2.91211 6.59961,-2.9121 1.95898,0 3.61914,0.54687 4.98047,1.64257 1.37793,1.09571 2.2832,2.58984 2.71484,4.48243 l 7.29687,-1.74219 c -0.83006,-2.92188 -2.07617,-5.16407 -3.73632,-6.72461 -2.78907,-2.63965 -6.417,-3.95899 -10.88282,-3.95899 z m 71.50977,0 c -2.97168,0 -5.59277,0.48047 -7.86719,1.44336 -1.70996,0.71387 -3.28808,1.80957 -4.73242,3.28711 -1.42773,1.47754 -2.55664,3.14649 -3.38672,5.00586 -1.1123,2.52344 -1.66797,5.64453 -1.66797,9.36328 0,5.81055 1.60254,10.37696 4.80664,13.69727 3.20411,3.30371 7.52051,4.95508 12.94922,4.95508 5.36231,0 9.64356,-1.66016 12.84766,-4.98047 3.2041,-3.33692 4.80664,-7.95215 4.80664,-13.8457 0,-5.94336 -1.61816,-10.58497 -4.85547,-13.92188 -3.2207,-3.33691 -7.52148,-5.00391 -12.90039,-5.00391 z M 180.97461,412.49219 194.02344,449 h 7.86914 l 13.07422,-36.50781 h -7.81836 l -8.94141,27.01953 -9.23828,-27.01953 z m 39.57812,0 V 449 h 7.3711 v -36.50781 z m 52.60938,0 v 6.17578 h 10.83203 V 449 h 7.37109 v -30.33203 h 10.8086 v -6.17578 z m 76.56445,0 V 449 h 7.3711 v -15.24023 h 1.49609 c 1.69336,0 2.92871,0.1416 3.70898,0.42382 0.78028,0.26563 1.51954,0.77247 2.2168,1.51953 0.69727,0.73048 1.99219,2.51465 3.88477,5.35352 L 373.73438,449 h 8.81445 l -4.45703,-7.12109 c -1.75977,-2.83887 -3.16309,-4.81543 -4.20899,-5.92774 -1.02929,-1.1123 -2.33984,-2.13281 -3.93359,-3.0625 3.2041,-0.46484 5.61035,-1.58496 7.2207,-3.36133 1.61035,-1.79296 2.41602,-4.05957 2.41602,-6.79882 0,-2.15821 -0.53125,-4.0752 -1.59375,-5.75196 -1.0625,-1.67676 -2.48146,-2.84082 -4.25781,-3.48828 -1.75978,-0.66406 -4.59083,-0.99609 -8.49219,-0.99609 z m 33.1543,0 13.37305,21.14258 V 449 h 7.3457 v -15.31445 l 13.42187,-21.19336 h -8.49218 l -8.41602,14.44531 -8.5918,-14.44531 z m -58.58594,5.67969 c 3.03809,0 5.46875,1.02734 7.29492,3.08593 1.84278,2.0586 2.76563,5.17969 2.76563,9.36328 0,4.2334 -0.94726,7.41407 -2.83985,9.53907 -1.87596,2.10839 -4.28222,3.16211 -7.2207,3.16211 -2.93847,0 -5.3623,-1.0625 -7.27148,-3.1875 -1.90918,-2.14161 -2.86328,-5.27832 -2.86328,-9.41211 0,-4.2002 0.92968,-7.33887 2.78906,-9.41407 1.85937,-2.09179 4.30762,-3.13672 7.3457,-3.13671 z m 32.80274,0.49609 h 5.7539 c 2.98828,0 4.78125,0.042 5.37891,0.125 1.19531,0.19922 2.11621,0.68164 2.76367,1.44531 0.66406,0.74707 0.99609,1.73438 0.99609,2.96289 0,1.09571 -0.25,2.00977 -0.74804,2.74024 -0.49805,0.73047 -1.18653,1.24414 -2.06641,1.54297 -0.87988,0.29881 -3.08691,0.44921 -6.62305,0.44921 h -5.45507 z m -52.54688,151.83398 c -1.25459,0.0338 -2.49456,0.17164 -3.75586,0.14453 1.24758,0.0239 2.50442,-0.11483 3.75586,-0.14453 z" />
</svg>
