<svg id="svg" version="1.1" width="400" height="400" xmlns="http://www.w3.org/2000/svg" xmlns:xlink="http://www.w3.org/1999/xlink" style="display: block;"><g id="svgg"><path id="path0" d="M35.750 27.431 L 30.000 33.861 30.024 49.680 L 30.048 65.500 35.804 71.750 C 41.303 77.721,41.771 78.000,46.280 78.000 L 51.000 78.000 51.000 116.800 C 51.000 146.084,50.700 155.900,49.775 156.825 C 48.808 157.792,48.808 158.464,49.775 160.011 C 50.719 161.522,51.000 183.204,51.000 254.418 L 51.000 346.864 53.750 348.754 C 55.262 349.794,59.081 352.075,62.235 353.823 L 67.970 357.000 87.873 357.000 L 107.775 357.000 127.138 337.098 C 137.787 326.152,154.110 309.275,163.412 299.593 C 172.713 289.912,180.442 282.109,180.588 282.254 C 180.885 282.551,179.485 286.733,171.637 309.000 C 168.632 317.525,164.746 328.550,163.003 333.500 C 161.259 338.450,159.017 344.300,158.020 346.500 C 155.460 352.150,154.889 352.000,178.977 352.000 C 204.455 352.000,203.429 352.234,205.518 345.945 C 207.795 339.091,207.216 335.845,203.388 334.000 L 200.275 332.500 209.030 307.000 C 213.846 292.975,218.734 278.816,219.893 275.535 C 224.122 263.561,223.016 262.000,210.300 262.000 C 199.740 262.000,199.920 262.133,204.161 257.473 C 207.217 254.114,207.562 254.000,214.626 254.000 C 225.019 254.000,227.789 251.465,231.957 238.137 C 233.631 232.785,235.000 228.048,235.000 227.611 C 235.000 226.047,239.378 221.356,271.225 188.799 C 288.976 170.653,307.890 151.237,313.256 145.653 C 318.621 140.069,338.746 119.525,357.977 100.000 L 392.943 64.500 392.972 48.971 L 393.000 33.442 386.723 27.221 L 380.446 21.000 313.973 21.029 L 247.500 21.057 241.322 27.279 C 234.343 34.307,234.620 33.205,234.860 53.010 L 235.000 64.519 240.976 71.010 C 244.263 74.579,246.963 77.725,246.976 78.000 C 246.989 78.275,229.225 95.973,207.500 117.330 L 168.000 156.160 168.000 117.080 L 168.000 78.000 172.500 78.000 C 174.975 78.000,177.002 77.662,177.005 77.250 C 177.007 76.838,178.254 75.150,179.775 73.500 C 187.228 65.418,187.000 66.175,187.000 49.488 C 187.000 37.209,186.710 34.005,185.511 33.009 C 184.692 32.329,184.269 31.374,184.570 30.887 C 184.871 30.399,184.698 30.000,184.184 30.000 C 183.671 30.000,181.137 27.975,178.554 25.500 L 173.857 21.000 107.679 21.001 L 41.500 21.001 35.750 27.431 M232.223 263.750 C 227.425 267.952,226.491 278.395,230.750 280.224 C 232.262 280.873,233.637 281.488,233.805 281.590 C 233.972 281.692,229.530 295.214,223.932 311.638 C 212.926 343.936,211.942 347.877,214.383 349.903 C 216.288 351.484,249.645 351.540,251.542 349.965 C 255.757 346.467,257.019 335.167,253.373 333.566 C 251.060 332.550,251.722 328.858,255.806 320.000 C 256.693 318.075,257.314 316.128,257.184 315.673 C 257.055 315.219,258.355 310.381,260.073 304.923 L 263.197 295.000 270.721 295.000 C 277.296 295.000,278.088 295.189,277.000 296.500 C 275.288 298.563,276.896 298.391,279.341 296.250 C 281.262 294.568,281.309 294.577,280.550 296.500 C 280.117 297.600,279.301 300.300,278.738 302.500 C 278.175 304.700,277.143 307.175,276.446 308.000 C 275.749 308.825,274.965 310.850,274.703 312.500 C 274.124 316.157,271.776 324.435,267.812 336.796 C 264.998 345.569,264.922 346.232,266.453 348.569 L 268.076 351.046 285.788 350.773 L 303.500 350.500 305.709 346.000 C 308.567 340.176,308.549 337.577,305.633 335.283 L 303.265 333.421 307.965 318.960 C 310.550 311.007,313.289 302.363,314.051 299.750 L 315.437 295.000 323.286 295.000 C 330.288 295.000,331.080 295.189,330.627 296.750 C 330.348 297.712,329.613 300.525,328.994 303.000 C 328.375 305.475,327.037 309.975,326.021 313.000 C 318.754 334.633,315.771 346.202,316.850 348.570 L 317.957 351.000 336.729 350.985 C 358.003 350.967,357.374 351.152,360.043 344.129 C 362.203 338.445,361.766 336.350,357.848 333.606 C 356.002 332.313,355.859 331.729,356.793 329.305 C 357.388 327.762,359.079 322.450,360.552 317.500 C 362.025 312.550,364.502 304.450,366.056 299.500 C 374.351 273.089,374.293 274.110,367.943 266.750 L 363.844 262.000 350.344 262.000 L 336.843 262.000 332.673 266.088 C 327.104 271.546,319.857 270.558,314.039 263.547 C 313.017 262.316,310.418 262.000,301.319 262.000 L 289.883 262.000 285.788 266.500 C 282.427 270.193,281.066 271.000,278.200 271.000 C 275.440 271.000,273.698 270.056,269.897 266.500 L 265.086 262.000 249.654 262.000 C 236.384 262.000,233.942 262.245,232.223 263.750 " stroke="none" fill="#000000" fill-rule="evenodd"></path></g></svg>