<svg xmlns="http://www.w3.org/2000/svg" width="400" height="400" viewBox="0, 0, 400,400">
<g>
<path d="M270.763 12.121 C 221.673 17.868,192.187 55.319,192.231 111.864 C 192.265 156.435,207.904 193.922,237.924 221.391 C 242.360 225.450,253.059 232.870,259.014 236.016 C 261.749 237.461,261.836 237.206,253.537 252.061 C 252.058 254.710,250.847 256.944,250.847 257.026 C 250.847 257.108,249.928 258.659,248.804 260.473 C 247.681 262.287,246.028 265.011,245.131 266.525 C 243.414 269.424,232.328 286.146,229.961 289.407 C 220.599 302.303,209.774 315.422,201.117 324.364 L 196.194 329.449 194.892 327.966 C 194.176 327.150,191.355 323.623,188.623 320.127 C 161.220 285.065,142.277 250.269,126.916 206.780 C 123.824 198.025,122.282 193.216,118.016 179.025 C 110.474 153.935,102.349 113.312,98.099 79.449 C 97.485 74.555,96.895 70.122,96.788 69.597 L 96.594 68.644 64.399 68.644 C 34.990 68.644,32.203 68.704,32.203 69.331 C 32.203 70.892,35.955 95.523,38.166 108.475 C 57.462 221.519,97.650 314.326,149.001 364.426 C 177.383 392.117,194.266 397.058,214.351 383.553 C 230.154 372.926,257.512 344.489,277.853 317.544 C 292.838 297.695,305.319 277.978,315.046 258.788 L 319.280 250.436 322.881 250.426 C 333.401 250.396,356.588 247.596,363.665 245.501 C 364.468 245.264,364.860 200.424,364.059 200.424 C 363.867 200.424,360.959 200.887,357.597 201.454 C 295.962 211.844,252.517 175.385,252.355 113.136 C 252.286 86.486,260.311 71.229,275.563 69.013 C 300.497 65.390,310.114 98.639,297.700 145.546 L 296.243 151.051 297.049 152.354 C 304.876 165.019,327.114 172.650,347.161 169.551 C 351.558 168.871,351.358 169.082,353.842 162.491 C 366.109 129.938,367.851 90.331,358.232 62.679 C 348.392 34.390,328.559 18.142,297.458 12.889 C 293.598 12.237,274.471 11.687,270.763 12.121 " stroke="none" fill-rule="evenodd"></path>
</g>
</svg>