<svg version="1.1" width="515" height="515" xmlns="http://www.w3.org/2000/svg">
<g>
<path d="M284.500 37.121 C 277.676 38.680,271.859 39.823,262.000 41.540 C 251.754 43.325,234.925 46.496,217.500 49.924 C 214.750 50.465,210.475 51.191,208.000 51.537 C 205.525 51.884,201.925 52.555,200.000 53.028 C 198.075 53.501,193.575 54.390,190.000 55.004 C 186.425 55.618,181.925 56.516,180.000 57.000 C 178.075 57.484,173.800 58.347,170.500 58.917 C 152.648 62.003,146.113 63.187,142.500 63.991 C 138.307 64.923,125.967 67.240,102.500 71.499 C 94.800 72.897,86.700 74.451,84.500 74.953 C 82.300 75.455,77.575 76.378,74.000 77.004 C 70.425 77.629,66.600 78.342,65.500 78.587 C 64.400 78.832,58.325 79.925,52.000 81.016 C 45.675 82.106,38.475 83.438,36.000 83.976 C 33.525 84.514,30.262 85.197,28.750 85.496 L 26.000 86.038 26.000 257.500 L 26.000 428.962 28.250 429.420 C 34.006 430.593,37.256 431.200,47.500 433.015 C 53.550 434.086,60.750 435.423,63.500 435.985 C 83.195 440.008,85.585 440.474,99.000 442.911 C 107.692 444.489,122.194 447.210,142.000 450.977 C 147.775 452.076,157.675 453.887,164.000 455.003 C 175.974 457.114,192.261 460.269,200.000 461.975 C 202.475 462.521,207.650 463.482,211.500 464.112 C 215.350 464.741,220.300 465.609,222.500 466.041 C 233.956 468.288,249.404 471.209,256.500 472.469 C 260.900 473.250,266.975 474.390,270.000 475.002 C 273.025 475.614,277.750 476.524,280.500 477.024 C 283.250 477.524,286.512 478.225,287.750 478.583 L 290.000 479.233 290.000 456.617 L 290.000 434.000 380.634 434.000 C 480.009 434.000,476.185 434.230,483.483 427.806 C 491.703 420.570,491.084 435.199,490.775 255.500 C 490.469 77.650,491.068 92.640,484.018 86.358 C 476.966 80.075,484.419 80.526,382.750 80.225 L 290.000 79.950 290.000 57.975 C 290.000 45.889,289.663 36.047,289.250 36.103 C 288.837 36.160,286.700 36.618,284.500 37.121 M471.000 256.500 L 471.000 414.000 380.500 414.000 L 290.000 414.000 290.000 389.500 L 290.000 365.000 321.000 365.000 L 352.000 365.000 352.000 347.019 L 352.000 329.038 374.250 328.769 L 396.500 328.500 397.000 286.819 L 397.500 245.138 420.470 222.160 C 433.103 209.522,443.578 198.765,443.748 198.257 C 443.998 197.506,403.860 156.565,389.607 143.031 L 385.953 139.563 362.719 162.781 L 339.484 186.000 314.742 186.000 L 290.000 186.000 290.000 142.500 L 290.000 99.000 380.500 99.000 L 471.000 99.000 471.000 256.500 M398.005 186.506 L 409.478 198.011 397.739 209.750 L 386.000 221.489 374.261 209.750 L 362.522 198.011 373.995 186.506 C 380.305 180.177,385.707 175.000,386.000 175.000 C 386.293 175.000,391.695 180.177,398.005 186.506 M209.515 185.750 C 209.131 186.713,208.125 189.750,207.279 192.500 C 206.434 195.250,204.944 199.975,203.969 203.000 C 202.995 206.025,201.423 211.200,200.478 214.500 C 199.532 217.800,197.903 223.200,196.857 226.500 C 195.812 229.800,194.567 233.850,194.092 235.500 C 192.543 240.873,187.767 256.330,185.356 263.771 C 184.060 267.770,183.000 271.714,183.000 272.535 C 183.000 273.356,182.589 274.809,182.086 275.764 C 181.252 277.348,176.651 291.908,173.479 303.000 C 172.771 305.475,170.344 313.350,168.085 320.500 C 165.825 327.650,163.982 334.132,163.989 334.906 C 163.998 336.076,161.680 336.206,150.130 335.680 C 132.864 334.895,131.500 334.426,130.157 328.810 C 129.590 326.440,128.668 322.925,128.108 321.000 C 127.547 319.075,126.365 314.800,125.479 311.500 C 124.594 308.200,123.475 304.150,122.991 302.500 C 122.508 300.850,121.637 297.813,121.056 295.750 C 120.475 293.688,119.570 290.538,119.044 288.750 C 118.519 286.962,117.365 282.800,116.479 279.500 C 114.712 272.910,113.361 268.092,111.994 263.500 C 111.503 261.850,109.476 254.650,107.491 247.500 C 105.505 240.350,103.432 232.925,102.884 231.000 C 101.416 225.843,100.488 222.537,97.552 212.000 C 96.096 206.775,94.528 201.150,94.068 199.500 C 93.607 197.850,92.920 195.749,92.540 194.831 C 91.777 192.991,94.537 192.504,110.636 191.641 C 119.352 191.174,121.000 192.185,121.000 198.000 C 121.000 199.048,121.403 200.940,121.896 202.203 C 123.103 205.298,124.271 209.677,128.908 228.500 C 131.077 237.300,133.588 247.200,134.490 250.500 C 135.392 253.800,136.514 258.300,136.984 260.500 C 137.454 262.700,139.270 269.900,141.021 276.500 C 143.841 287.132,146.798 301.226,146.947 304.750 C 147.084 307.977,148.953 305.480,149.567 301.250 C 149.946 298.637,152.255 288.625,154.698 279.000 C 161.666 251.545,169.064 222.835,170.158 219.000 C 170.707 217.075,171.769 212.800,172.518 209.500 C 173.266 206.200,174.381 201.700,174.996 199.500 C 175.611 197.300,176.563 193.711,177.112 191.525 C 178.420 186.322,178.995 186.051,189.000 185.916 C 195.961 185.823,202.693 185.236,209.357 184.141 C 209.828 184.063,209.900 184.787,209.515 185.750 M355.820 226.240 L 376.000 246.480 376.000 276.740 L 376.000 307.000 364.000 307.000 L 352.000 307.000 352.000 291.000 L 352.000 275.000 321.000 275.000 L 290.000 275.000 290.000 240.500 L 290.000 206.000 312.820 206.000 L 335.640 206.000 355.820 226.240 M332.000 319.500 L 332.000 345.000 315.000 345.000 L 298.000 345.000 298.000 319.500 L 298.000 294.000 315.000 294.000 L 332.000 294.000 332.000 319.500 " stroke="none" fill-rule="evenodd"></path>
</g>
</svg>