<svg xmlns="http://www.w3.org/2000/svg" width="400" height="400" viewBox="0, 0, 400,400"><g><path d="M125.200 0.132 C 30.800 2.373,4.476 27.078,0.356 117.300 C -0.015 125.420,-0.015 274.580,0.356 282.700 C 4.246 367.901,28.155 393.969,107.100 399.090 C 119.464 399.892,120.342 399.900,200.000 399.900 C 277.938 399.900,280.397 399.881,291.500 399.189 C 371.758 394.185,395.775 368.293,399.643 282.600 C 400.016 274.327,400.016 125.673,399.643 117.400 C 396.243 42.081,377.026 14.104,321.900 4.219 C 311.228 2.306,301.432 1.322,283.500 0.364 C 279.790 0.166,132.849 -0.050,125.200 0.132 M110.181 127.468 C 114.727 128.681,116.825 131.358,119.766 139.700 C 133.640 179.047,156.968 216.231,167.757 216.196 C 170.778 216.186,172.013 214.737,172.640 210.469 C 173.098 207.352,173.010 161.204,172.540 158.200 C 171.414 150.996,169.632 146.889,165.208 141.300 C 160.754 135.672,160.199 132.730,162.992 129.556 C 165.330 126.900,164.437 126.975,192.800 127.043 L 216.700 127.100 218.008 127.545 C 219.658 128.107,220.750 129.036,221.574 130.581 C 222.947 133.158,222.865 131.061,222.991 166.700 C 223.116 202.009,223.025 199.543,224.276 201.677 C 230.711 212.657,256.983 180.221,275.571 138.347 C 279.321 129.898,281.597 127.846,287.942 127.192 C 291.649 126.809,321.162 127.039,322.754 127.463 C 330.291 129.470,329.999 135.808,321.620 152.100 C 315.776 163.463,304.621 181.333,291.657 200.100 C 285.462 209.068,284.807 210.666,286.011 213.884 C 287.084 216.751,288.199 218.065,297.573 227.500 C 310.304 240.314,321.573 253.561,327.830 263.066 C 335.743 275.088,335.628 282.479,327.489 284.924 C 325.735 285.452,293.018 285.601,290.500 285.093 C 285.669 284.119,282.601 281.693,273.687 271.800 C 257.617 253.964,246.697 244.200,238.169 240.040 C 232.646 237.346,226.493 237.269,224.510 239.870 C 223.087 241.735,223.126 241.217,222.994 260.000 C 222.888 275.086,222.839 277.025,222.536 278.068 C 221.068 283.112,216.384 285.021,204.700 285.334 C 181.911 285.946,159.074 277.179,138.400 259.883 C 135.626 257.562,128.719 251.163,127.918 250.172 C 127.709 249.913,126.897 249.025,126.115 248.200 C 106.193 227.184,79.235 179.997,70.384 150.646 C 65.149 133.288,66.134 128.154,74.881 127.199 C 77.985 126.860,108.781 127.095,110.181 127.468 " stroke="none" fill-rule="evenodd"></path></g></svg>