<?xml version="1.0" encoding="UTF-8" standalone="no"?>
<!DOCTYPE svg PUBLIC "-//W3C//DTD SVG 1.1//EN" "http://www.w3.org/Graphics/SVG/1.1/DTD/svg11.dtd">
<svg width="100%" height="100%" viewBox="0 0 515 515" version="1.1" xmlns="http://www.w3.org/2000/svg" xmlns:xlink="http://www.w3.org/1999/xlink" xml:space="preserve" xmlns:serif="http://www.serif.com/" style="fill-rule:evenodd;clip-rule:evenodd;stroke-linejoin:round;stroke-miterlimit:2;">
    <g id="svgg">
        <path id="path0" d="M48,15C48,16.213 45.653,15.623 44.5,16C41.941,16.837 39.285,17.576 37,19C30.458,23.078 23.44,29.277 21,37C16.46,51.368 16.154,71.27 16.386,85.89C16.572,97.604 17.724,109.288 18,121C18.596,146.329 18.188,171.677 19,197C19.344,207.725 29.842,216.131 37.081,221.852C51.024,232.871 73.226,231.144 85.079,217.982C96.285,205.537 93.609,191.828 94,175.929C94.233,166.433 94.032,156.901 94.959,147.447C95.049,146.527 96.085,145.315 96.98,145.548C98.622,145.975 99.558,147.76 100.76,148.958C103.486,151.676 106.052,154.55 108.756,157.289C115.033,163.646 121.335,169.979 127.703,176.244C134.487,182.918 142.318,188.448 142.625,198.89C143.354,223.666 140.818,223.521 142.699,248.112C142.796,249.381 143.294,250.888 144.39,251.533C146.335,252.678 148.75,252.827 151,253C159.482,253.652 168.005,253.56 176.5,254C184.223,254.4 196.698,257.544 204,252C210.168,247.316 207.822,237.096 208,231C208.403,217.187 206.599,206.62 222.106,203.493C227.462,202.413 232.965,202 238.428,202L255.856,202L256.51,196.75C258.049,184.386 256.605,152.303 255.25,140.249C255.105,138.959 254.502,137.469 253.367,136.838C245.704,132.577 230.86,136.023 223.5,136C213.328,135.968 203.131,135.916 193,135C182.858,134.083 177.352,121.467 171.521,115.477C165.229,109.012 152.379,102.628 151,92C150.764,90.18 154.177,90.278 154.813,90.268C163.041,90.136 171.27,90.022 179.5,90C198.905,89.949 220.825,91.871 229.928,70.582C230.941,68.213 231.913,65.751 232.184,63.188C232.729,58.017 232.765,52.774 232.353,47.591C232.068,44.001 229.15,36.146 227,33.221C202.569,-0.02 158.372,15.341 124,14C116.399,13.703 108.91,12.01 101.437,10.593C89.861,8.4 69.651,0.514 56.312,4.155C50.696,5.688 48,8.999 48,15M316,15L309,17C305.88,18.135 301.372,20.78 299.096,22.944C287.313,34.149 283.302,50.332 289,66C292.651,76.04 303.595,88.227 315,89C323.819,89.598 332.663,89.769 341.5,90C348.752,90.19 356.018,89.861 363.261,90.264C364.889,90.355 368.929,90.136 368,91.476C362.014,100.105 353.895,107.051 346.467,114.476L324.933,136L263,136L263,200L266,200C272.368,200 278.644,201.603 285,202C290.333,202.333 295.689,202.41 301,203C314.117,204.457 312.713,224.595 313,232C313.073,233.869 311.583,245.457 314.5,250C315.441,251.465 320.465,252.892 322,253C340.511,254.299 354.489,254.368 373,253C374.459,252.892 376.106,252.416 377.045,251.294C377.913,250.255 378.285,248.806 378.37,247.456C379.546,228.666 378.769,209.786 380,191C380.039,190.411 380.601,189.974 381,189.54C389.033,180.795 413.567,153.827 423.52,147C424.839,146.095 424.645,150.045 424.736,151.641C425.141,158.75 424.81,165.882 425,173C425.368,186.769 424.079,204.363 434,216.202C436.656,219.371 440.769,220.795 444.147,223C463.676,235.747 489.898,228.017 499,206.779C509.807,181.563 501,151.934 501,124.5C501,85.97 513.973,48.178 485.029,22.138C481.047,18.555 473.247,15.131 468,15C442.672,14.367 417.336,14 392,14C366.664,14 316,-10.336 316,15M142.203,305.089L142.5,351.178L144.75,352.999C151.868,358.76 149.256,361.069 156.481,366.47C172.89,378.736 195.024,375 214,375L256,375L256,344C256,333.661 255.602,323.321 255,313C254.742,308.568 248.167,308.22 245.365,308.184C234.072,308.037 220.585,312.656 211.467,303.533L208,300.067L208,284.533C208,273.405 209.108,258.384 194.209,257.706C187.118,257.383 180.052,259 172.953,259L141.906,259L142.203,305.089M313,278C313,291.812 314.986,305.097 298.858,307.957C293.314,308.94 287.63,309 282,309L263,309L263,341C263,349.287 259.268,363.932 263.861,372.406C264.421,373.438 265.831,373.904 267,374C292.098,376.058 291.97,373.698 317.324,374.937C334.468,375.775 347.091,395.395 357.717,406.244C360.678,409.268 363.752,412.185 366.912,415C368.664,416.56 371.436,417.273 372.392,419.415C374.389,423.888 362.729,421.27 357.832,421.399C353.055,421.525 348.279,421.065 343.5,421C329.591,420.81 314.148,419.209 302.094,427.816C289.318,436.937 282.042,455.423 288.001,470.47C292.273,481.257 302.568,489.971 312.868,494.726C338.047,506.349 369.757,497.074 396,497C426.886,496.912 469.557,512.489 493.211,484.097C495.956,480.803 498.033,476.938 499.68,472.979C502.798,465.484 504.39,454.444 504.327,446.437C504.186,428.425 501.078,410.513 501,392.5C500.85,357.964 513.952,317.117 485.029,290.138C464.211,270.719 430.121,287.917 425.653,313.299C424.561,319.508 424.686,336.053 425,339.5C425.595,346.035 429.152,356.27 428.431,363.892C427.371,375.084 413.649,362.821 411.95,360.585C408.249,355.713 405.83,349.82 401.504,345.493L379,322.986L379,294.993C379,285.656 378.649,276.314 378,267C377.781,263.856 376.687,260.086 372.705,259.697C363.037,258.754 353.285,259 343.571,259L313,259L313,278"/>
    </g>
</svg>
