<svg version="1.1" width="515" height="515" xmlns="http://www.w3.org/2000/svg"><g><path d="M144.000 20.000 C 144.000 20.550,142.650 21.000,141.000 21.000 C 139.350 21.000,138.000 21.450,138.000 22.000 C 138.000 22.550,137.100 23.000,136.000 23.000 C 134.900 23.000,134.000 23.450,134.000 24.000 C 134.000 24.550,133.199 25.000,132.221 25.000 C 131.242 25.000,129.793 25.900,129.000 27.000 C 128.207 28.100,126.974 29.000,126.261 29.000 C 124.570 29.000,112.000 41.570,112.000 43.261 C 112.000 43.974,111.100 45.207,110.000 46.000 C 108.900 46.793,108.000 48.242,108.000 49.221 C 108.000 50.199,107.550 51.000,107.000 51.000 C 106.450 51.000,106.000 52.350,106.000 54.000 C 106.000 55.650,105.550 57.000,105.000 57.000 C 104.450 57.000,104.000 58.350,104.000 60.000 C 104.000 61.650,103.550 63.000,103.000 63.000 C 102.368 63.000,102.000 70.167,102.000 82.500 L 102.000 102.000 82.500 102.000 C 70.167 102.000,63.000 102.368,63.000 103.000 C 63.000 103.550,61.200 104.000,59.000 104.000 C 56.800 104.000,55.000 104.450,55.000 105.000 C 55.000 105.550,54.100 106.000,53.000 106.000 C 51.900 106.000,51.000 106.450,51.000 107.000 C 51.000 107.550,50.199 108.000,49.221 108.000 C 48.242 108.000,46.793 108.900,46.000 110.000 C 45.207 111.100,43.974 112.000,43.261 112.000 C 41.570 112.000,29.000 124.570,29.000 126.261 C 29.000 126.974,28.100 128.207,27.000 129.000 C 25.900 129.793,25.000 131.242,25.000 132.221 C 25.000 133.199,24.550 134.000,24.000 134.000 C 23.450 134.000,23.000 134.900,23.000 136.000 C 23.000 137.100,22.550 138.000,22.000 138.000 C 21.450 138.000,21.000 139.350,21.000 141.000 C 21.000 142.650,20.550 144.000,20.000 144.000 C 19.338 144.000,19.000 196.333,19.000 299.000 C 19.000 401.667,19.338 454.000,20.000 454.000 C 20.550 454.000,21.000 455.350,21.000 457.000 C 21.000 458.650,21.450 460.000,22.000 460.000 C 22.550 460.000,23.000 460.900,23.000 462.000 C 23.000 463.100,23.450 464.000,24.000 464.000 C 24.550 464.000,25.000 464.900,25.000 466.000 C 25.000 467.100,25.450 468.000,26.000 468.000 C 26.550 468.000,27.000 468.681,27.000 469.514 C 27.000 471.488,43.512 488.000,45.486 488.000 C 46.319 488.000,47.000 488.450,47.000 489.000 C 47.000 489.550,47.900 490.000,49.000 490.000 C 50.100 490.000,51.000 490.450,51.000 491.000 C 51.000 491.550,51.900 492.000,53.000 492.000 C 54.100 492.000,55.000 492.450,55.000 493.000 C 55.000 493.550,56.350 494.000,58.000 494.000 C 59.650 494.000,61.000 494.450,61.000 495.000 C 61.000 495.662,113.333 496.000,216.000 496.000 C 318.667 496.000,371.000 495.662,371.000 495.000 C 371.000 494.450,372.350 494.000,374.000 494.000 C 375.650 494.000,377.000 493.550,377.000 493.000 C 377.000 492.450,377.900 492.000,379.000 492.000 C 380.100 492.000,381.000 491.550,381.000 491.000 C 381.000 490.450,381.801 490.000,382.779 490.000 C 383.758 490.000,385.207 489.100,386.000 488.000 C 386.793 486.900,388.026 486.000,388.739 486.000 C 390.559 486.000,403.000 473.366,403.000 471.519 C 403.000 470.683,403.450 470.000,404.000 470.000 C 404.550 470.000,405.000 469.199,405.000 468.221 C 405.000 467.242,405.900 465.793,407.000 465.000 C 408.174 464.153,409.000 462.411,409.000 460.779 C 409.000 459.251,409.450 458.000,410.000 458.000 C 410.550 458.000,411.000 456.200,411.000 454.000 C 411.000 451.800,411.450 450.000,412.000 450.000 C 412.631 450.000,413.000 443.167,413.000 431.500 L 413.000 413.000 433.500 413.000 C 446.500 413.000,454.000 412.634,454.000 412.000 C 454.000 411.450,455.350 411.000,457.000 411.000 C 458.650 411.000,460.000 410.550,460.000 410.000 C 460.000 409.450,460.900 409.000,462.000 409.000 C 463.100 409.000,464.000 408.550,464.000 408.000 C 464.000 407.450,464.801 407.000,465.779 407.000 C 466.758 407.000,468.207 406.100,469.000 405.000 C 469.793 403.900,471.024 403.000,471.737 403.000 C 473.556 403.000,488.000 388.360,488.000 386.516 C 488.000 385.682,488.450 385.000,489.000 385.000 C 489.550 385.000,490.000 384.100,490.000 383.000 C 490.000 381.900,490.450 381.000,491.000 381.000 C 491.550 381.000,492.000 380.100,492.000 379.000 C 492.000 377.900,492.450 377.000,493.000 377.000 C 493.550 377.000,494.000 375.650,494.000 374.000 C 494.000 372.350,494.450 371.000,495.000 371.000 C 495.662 371.000,496.000 318.667,496.000 216.000 C 496.000 113.333,495.662 61.000,495.000 61.000 C 494.450 61.000,494.000 59.650,494.000 58.000 C 494.000 56.350,493.550 55.000,493.000 55.000 C 492.450 55.000,492.000 54.100,492.000 53.000 C 492.000 51.900,491.550 51.000,491.000 51.000 C 490.450 51.000,490.000 50.100,490.000 49.000 C 490.000 47.900,489.550 47.000,489.000 47.000 C 488.450 47.000,488.000 46.319,488.000 45.486 C 488.000 43.512,471.488 27.000,469.514 27.000 C 468.681 27.000,468.000 26.550,468.000 26.000 C 468.000 25.450,467.100 25.000,466.000 25.000 C 464.900 25.000,464.000 24.550,464.000 24.000 C 464.000 23.450,463.100 23.000,462.000 23.000 C 460.900 23.000,460.000 22.550,460.000 22.000 C 460.000 21.450,458.650 21.000,457.000 21.000 C 455.350 21.000,454.000 20.550,454.000 20.000 C 454.000 19.338,401.667 19.000,299.000 19.000 C 196.333 19.000,144.000 19.338,144.000 20.000 M442.000 36.000 C 442.000 36.550,443.350 37.000,445.000 37.000 C 446.650 37.000,448.000 37.450,448.000 38.000 C 448.000 38.550,448.900 39.000,450.000 39.000 C 451.100 39.000,452.000 39.450,452.000 40.000 C 452.000 40.550,452.900 41.000,454.000 41.000 C 455.100 41.000,456.000 41.450,456.000 42.000 C 456.000 42.550,456.683 43.000,457.519 43.000 C 459.496 43.000,472.000 55.504,472.000 57.481 C 472.000 58.317,472.450 59.000,473.000 59.000 C 473.550 59.000,474.000 59.900,474.000 61.000 C 474.000 62.100,474.450 63.000,475.000 63.000 C 475.550 63.000,476.000 63.900,476.000 65.000 C 476.000 66.100,476.450 67.000,477.000 67.000 C 477.550 67.000,478.000 68.350,478.000 70.000 C 478.000 71.650,478.450 73.000,479.000 73.000 C 479.662 73.000,480.000 121.333,480.000 216.000 C 480.000 310.667,479.662 359.000,479.000 359.000 C 478.450 359.000,478.000 360.350,478.000 362.000 C 478.000 363.650,477.550 365.000,477.000 365.000 C 476.450 365.000,476.000 365.900,476.000 367.000 C 476.000 368.100,475.550 369.000,475.000 369.000 C 474.450 369.000,474.000 369.900,474.000 371.000 C 474.000 372.100,473.550 373.000,473.000 373.000 C 472.450 373.000,472.000 373.685,472.000 374.522 C 472.000 376.375,461.563 387.000,459.742 387.000 C 459.027 387.000,457.793 387.900,457.000 389.000 C 456.207 390.100,454.758 391.000,453.779 391.000 C 452.801 391.000,452.000 391.450,452.000 392.000 C 452.000 392.550,451.100 393.000,450.000 393.000 C 448.900 393.000,448.000 393.450,448.000 394.000 C 448.000 394.550,446.650 395.000,445.000 395.000 C 443.350 395.000,442.000 395.450,442.000 396.000 C 442.000 396.662,393.333 397.000,298.000 397.000 C 202.667 397.000,154.000 396.662,154.000 396.000 C 154.000 395.450,153.100 395.000,152.000 395.000 C 150.900 395.000,150.000 394.550,150.000 394.000 C 150.000 393.450,149.199 393.000,148.221 393.000 C 147.242 393.000,145.793 392.100,145.000 391.000 C 144.207 389.900,142.976 389.000,142.263 389.000 C 140.574 389.000,126.000 374.426,126.000 372.737 C 126.000 372.024,125.100 370.793,124.000 370.000 C 122.900 369.207,122.000 367.758,122.000 366.779 C 122.000 365.801,121.550 365.000,121.000 365.000 C 120.450 365.000,120.000 363.650,120.000 362.000 C 120.000 360.350,119.550 359.000,119.000 359.000 C 118.343 359.000,118.000 336.167,118.000 292.500 C 118.000 248.833,118.343 226.000,119.000 226.000 C 119.550 226.000,120.000 224.749,120.000 223.221 C 120.000 221.589,120.826 219.847,122.000 219.000 C 123.100 218.207,124.000 216.962,124.000 216.234 C 124.000 214.409,128.565 210.000,130.455 210.000 C 131.305 210.000,132.000 209.550,132.000 209.000 C 132.000 208.450,132.900 208.000,134.000 208.000 C 135.100 208.000,136.000 207.550,136.000 207.000 C 136.000 206.450,137.800 206.000,140.000 206.000 C 142.200 206.000,144.000 205.550,144.000 205.000 C 144.000 204.368,151.000 204.000,163.000 204.000 L 182.000 204.000 182.000 256.500 C 182.000 290.833,182.346 309.000,183.000 309.000 C 183.550 309.000,184.000 310.350,184.000 312.000 C 184.000 313.650,184.450 315.000,185.000 315.000 C 185.550 315.000,186.000 315.801,186.000 316.779 C 186.000 317.758,186.900 319.207,188.000 320.000 C 189.100 320.793,190.000 322.038,190.000 322.766 C 190.000 324.483,194.517 329.000,196.234 329.000 C 196.962 329.000,198.207 329.900,199.000 331.000 C 199.793 332.100,201.242 333.000,202.221 333.000 C 203.199 333.000,204.000 333.450,204.000 334.000 C 204.000 334.550,204.900 335.000,206.000 335.000 C 207.100 335.000,208.000 335.450,208.000 336.000 C 208.000 336.660,239.833 337.000,301.500 337.000 C 363.167 337.000,395.000 336.660,395.000 336.000 C 395.000 335.450,395.681 335.000,396.514 335.000 C 397.347 335.000,401.847 331.181,406.514 326.514 C 411.181 321.847,415.000 317.347,415.000 316.514 C 415.000 315.681,415.450 315.000,416.000 315.000 C 416.659 315.000,417.000 286.167,417.000 230.500 C 417.000 174.833,416.659 146.000,416.000 146.000 C 415.450 146.000,415.000 144.200,415.000 142.000 C 415.000 139.800,414.550 138.000,414.000 138.000 C 413.450 138.000,413.000 137.100,413.000 136.000 C 413.000 134.900,412.550 134.000,412.000 134.000 C 411.450 134.000,411.000 133.100,411.000 132.000 C 411.000 130.900,410.550 130.000,410.000 130.000 C 409.450 130.000,409.000 129.199,409.000 128.221 C 409.000 127.242,408.100 125.793,407.000 125.000 C 405.900 124.207,405.000 122.973,405.000 122.258 C 405.000 120.563,394.437 110.000,392.742 110.000 C 392.027 110.000,390.793 109.100,390.000 108.000 C 389.207 106.900,387.758 106.000,386.779 106.000 C 385.801 106.000,385.000 105.550,385.000 105.000 C 385.000 104.450,384.100 104.000,383.000 104.000 C 381.900 104.000,381.000 103.550,381.000 103.000 C 381.000 102.450,380.100 102.000,379.000 102.000 C 377.900 102.000,377.000 101.550,377.000 101.000 C 377.000 100.450,375.650 100.000,374.000 100.000 C 372.350 100.000,371.000 99.550,371.000 99.000 C 371.000 98.339,328.167 98.000,244.500 98.000 L 118.000 98.000 118.000 86.500 C 118.000 79.500,118.391 75.000,119.000 75.000 C 119.550 75.000,120.000 73.650,120.000 72.000 C 120.000 70.350,120.450 69.000,121.000 69.000 C 121.550 69.000,122.000 67.650,122.000 66.000 C 122.000 64.350,122.450 63.000,123.000 63.000 C 123.550 63.000,124.000 62.199,124.000 61.221 C 124.000 60.242,124.900 58.793,126.000 58.000 C 127.100 57.207,128.000 55.971,128.000 55.253 C 128.000 53.554,136.554 45.000,138.253 45.000 C 138.971 45.000,140.207 44.100,141.000 43.000 C 141.793 41.900,143.242 41.000,144.221 41.000 C 145.199 41.000,146.000 40.550,146.000 40.000 C 146.000 39.450,146.900 39.000,148.000 39.000 C 149.100 39.000,150.000 38.550,150.000 38.000 C 150.000 37.450,151.350 37.000,153.000 37.000 C 154.650 37.000,156.000 36.550,156.000 36.000 C 156.000 35.338,204.333 35.000,299.000 35.000 C 393.667 35.000,442.000 35.338,442.000 36.000 M97.000 120.000 C 98.429 121.982,99.589 122.000,225.721 122.000 C 309.907 122.000,353.000 122.339,353.000 123.000 C 353.000 123.550,354.350 124.000,356.000 124.000 C 357.650 124.000,359.000 124.450,359.000 125.000 C 359.000 125.550,359.900 126.000,361.000 126.000 C 362.100 126.000,363.000 126.450,363.000 127.000 C 363.000 127.550,363.900 128.000,365.000 128.000 C 366.100 128.000,367.000 128.450,367.000 129.000 C 367.000 129.550,367.801 130.000,368.779 130.000 C 369.758 130.000,371.207 130.900,372.000 132.000 C 372.793 133.100,374.038 134.000,374.766 134.000 C 376.483 134.000,381.000 138.517,381.000 140.234 C 381.000 140.962,381.900 142.207,383.000 143.000 C 384.100 143.793,385.000 145.242,385.000 146.221 C 385.000 147.199,385.450 148.000,386.000 148.000 C 386.550 148.000,387.000 148.900,387.000 150.000 C 387.000 151.100,387.450 152.000,388.000 152.000 C 388.550 152.000,389.000 152.900,389.000 154.000 C 389.000 155.100,389.450 156.000,390.000 156.000 C 390.550 156.000,391.000 157.800,391.000 160.000 C 391.000 162.200,391.450 164.000,392.000 164.000 C 392.657 164.000,393.000 186.833,393.000 230.500 C 393.000 274.167,392.657 297.000,392.000 297.000 C 391.450 297.000,391.000 297.685,391.000 298.522 C 391.000 300.502,380.502 311.000,378.522 311.000 C 377.685 311.000,377.000 311.450,377.000 312.000 C 377.000 312.635,369.333 313.000,356.000 313.000 L 335.000 313.000 335.000 265.500 C 335.000 234.500,334.653 218.000,334.000 218.000 C 333.450 218.000,333.000 216.200,333.000 214.000 C 333.000 211.800,332.550 210.000,332.000 210.000 C 331.450 210.000,331.000 208.831,331.000 207.401 C 331.000 205.803,329.845 203.723,328.000 202.000 C 326.350 200.459,325.000 198.671,325.000 198.027 C 325.000 196.517,322.483 194.000,320.973 194.000 C 320.329 194.000,318.541 192.650,317.000 191.000 C 315.277 189.155,313.197 188.000,311.599 188.000 C 310.169 188.000,309.000 187.550,309.000 187.000 C 309.000 186.450,307.200 186.000,305.000 186.000 C 302.800 186.000,301.000 185.550,301.000 185.000 C 301.000 184.347,284.240 184.000,252.721 184.000 C 205.589 184.000,204.407 183.952,203.000 182.000 C 201.369 179.737,126.000 178.758,126.000 181.000 C 126.000 181.550,124.200 182.000,122.000 182.000 C 119.800 182.000,118.000 182.450,118.000 183.000 C 118.000 183.550,117.100 184.000,116.000 184.000 C 114.900 184.000,114.000 184.450,114.000 185.000 C 114.000 185.550,113.315 186.000,112.478 186.000 C 110.625 186.000,100.000 196.437,100.000 198.258 C 100.000 198.973,99.100 200.207,98.000 201.000 C 96.826 201.847,96.000 203.589,96.000 205.221 C 96.000 206.749,95.550 208.000,95.000 208.000 C 94.341 208.000,94.000 236.833,94.000 292.500 C 94.000 348.167,94.341 377.000,95.000 377.000 C 95.550 377.000,96.000 378.350,96.000 380.000 C 96.000 381.650,96.450 383.000,97.000 383.000 C 97.550 383.000,98.000 383.801,98.000 384.779 C 98.000 385.758,98.900 387.207,100.000 388.000 C 101.100 388.793,102.000 390.022,102.000 390.732 C 102.000 392.417,122.583 413.000,124.268 413.000 C 124.978 413.000,126.207 413.900,127.000 415.000 C 127.793 416.100,129.242 417.000,130.221 417.000 C 131.199 417.000,132.000 417.450,132.000 418.000 C 132.000 418.550,132.900 419.000,134.000 419.000 C 135.100 419.000,136.000 419.450,136.000 420.000 C 136.000 420.662,180.167 421.000,266.500 421.000 L 397.000 421.000 397.000 429.500 C 397.000 434.500,396.588 438.000,396.000 438.000 C 395.450 438.000,395.000 439.800,395.000 442.000 C 395.000 444.200,394.550 446.000,394.000 446.000 C 393.450 446.000,393.000 447.251,393.000 448.779 C 393.000 450.411,392.174 452.153,391.000 453.000 C 389.900 453.793,389.000 455.242,389.000 456.221 C 389.000 457.199,388.550 458.000,388.000 458.000 C 387.450 458.000,387.000 458.687,387.000 459.526 C 387.000 461.387,378.568 470.000,376.747 470.000 C 376.029 470.000,374.793 470.900,374.000 472.000 C 373.207 473.100,371.758 474.000,370.779 474.000 C 369.801 474.000,369.000 474.450,369.000 475.000 C 369.000 475.550,368.100 476.000,367.000 476.000 C 365.900 476.000,365.000 476.450,365.000 477.000 C 365.000 477.550,363.650 478.000,362.000 478.000 C 360.350 478.000,359.000 478.450,359.000 479.000 C 359.000 479.662,310.667 480.000,216.000 480.000 C 121.333 480.000,73.000 479.662,73.000 479.000 C 73.000 478.450,71.650 478.000,70.000 478.000 C 68.350 478.000,67.000 477.550,67.000 477.000 C 67.000 476.450,66.100 476.000,65.000 476.000 C 63.900 476.000,63.000 475.550,63.000 475.000 C 63.000 474.450,62.100 474.000,61.000 474.000 C 59.900 474.000,59.000 473.550,59.000 473.000 C 59.000 472.450,58.317 472.000,57.481 472.000 C 55.504 472.000,43.000 459.496,43.000 457.519 C 43.000 456.683,42.550 456.000,42.000 456.000 C 41.450 456.000,41.000 455.100,41.000 454.000 C 41.000 452.900,40.550 452.000,40.000 452.000 C 39.450 452.000,39.000 451.100,39.000 450.000 C 39.000 448.900,38.550 448.000,38.000 448.000 C 37.450 448.000,37.000 446.650,37.000 445.000 C 37.000 443.350,36.550 442.000,36.000 442.000 C 35.338 442.000,35.000 393.667,35.000 299.000 C 35.000 204.333,35.338 156.000,36.000 156.000 C 36.550 156.000,37.000 154.650,37.000 153.000 C 37.000 151.350,37.450 150.000,38.000 150.000 C 38.550 150.000,39.000 149.100,39.000 148.000 C 39.000 146.900,39.450 146.000,40.000 146.000 C 40.550 146.000,41.000 145.199,41.000 144.221 C 41.000 143.242,41.900 141.793,43.000 141.000 C 44.100 140.207,45.000 138.971,45.000 138.253 C 45.000 136.554,53.554 128.000,55.253 128.000 C 55.971 128.000,57.207 127.100,58.000 126.000 C 58.793 124.900,60.242 124.000,61.221 124.000 C 62.199 124.000,63.000 123.550,63.000 123.000 C 63.000 122.450,63.900 122.000,65.000 122.000 C 66.100 122.000,67.000 121.550,67.000 121.000 C 67.000 120.450,68.800 120.000,71.000 120.000 C 73.200 120.000,75.000 119.550,75.000 119.000 C 75.000 116.854,95.401 117.781,97.000 120.000 M289.000 201.000 C 289.000 201.550,290.800 202.000,293.000 202.000 C 295.200 202.000,297.000 202.450,297.000 203.000 C 297.000 203.550,298.133 204.000,299.519 204.000 C 303.036 204.000,315.000 215.964,315.000 219.481 C 315.000 220.867,315.450 222.000,316.000 222.000 C 316.550 222.000,317.000 223.800,317.000 226.000 C 317.000 228.200,317.450 230.000,318.000 230.000 C 318.652 230.000,319.000 245.833,319.000 275.500 L 319.000 321.000 269.500 321.000 C 237.167 321.000,220.000 320.653,220.000 320.000 C 220.000 319.450,219.100 319.000,218.000 319.000 C 216.900 319.000,216.000 318.550,216.000 318.000 C 216.000 317.450,215.199 317.000,214.221 317.000 C 213.242 317.000,211.793 316.100,211.000 315.000 C 210.207 313.900,208.758 313.000,207.779 313.000 C 206.740 313.000,206.000 312.260,206.000 311.221 C 206.000 310.242,205.100 308.793,204.000 308.000 C 202.900 307.207,202.000 305.758,202.000 304.779 C 202.000 303.801,201.550 303.000,201.000 303.000 C 200.450 303.000,200.000 301.650,200.000 300.000 C 200.000 298.350,199.550 297.000,199.000 297.000 C 198.347 297.000,198.000 280.167,198.000 248.500 L 198.000 200.000 243.500 200.000 C 273.167 200.000,289.000 200.348,289.000 201.000 " stroke="none" fill-rule="evenodd"></path></g></svg>