<svg id="svg" version="1.1" width="515" height="515" xmlns="http://www.w3.org/2000/svg" xmlns:xlink="http://www.w3.org/1999/xlink" style="display: block;"><g id="svgg"><path id="path0" d="M59.000 26.276 C 41.795 32.163,30.656 43.734,25.571 61.000 C 23.528 67.938,23.063 323.808,25.080 331.299 C 26.233 335.580,30.260 344.136,32.334 346.712 C 36.309 351.650,45.263 360.000,46.583 360.000 C 46.891 360.000,47.785 360.643,48.571 361.428 C 50.233 363.090,60.134 366.944,64.499 367.628 C 66.149 367.887,85.395 368.050,107.267 367.990 L 147.034 367.880 150.077 370.923 L 153.120 373.966 153.010 413.733 C 152.950 435.605,153.120 454.850,153.388 456.500 C 156.231 474.008,172.046 491.166,189.732 495.928 C 193.745 497.008,438.893 497.624,446.501 496.573 C 450.729 495.988,460.725 492.132,462.429 490.428 C 463.215 489.643,464.109 489.000,464.417 489.000 C 466.117 489.000,479.000 476.388,479.000 474.723 C 479.000 474.247,479.643 473.215,480.428 472.429 C 482.131 470.726,485.987 460.733,486.574 456.501 C 488.337 443.805,486.910 193.921,485.041 187.912 C 480.118 172.082,467.066 159.655,450.068 154.612 C 445.438 153.238,438.239 153.000,401.279 153.000 L 357.920 153.000 358.041 109.750 C 358.156 68.783,358.054 66.157,356.117 60.000 C 350.864 43.301,340.140 32.034,324.113 26.377 L 317.500 24.042 191.500 24.047 L 65.500 24.052 59.000 26.276 M269.938 110.827 C 276.131 114.148,277.000 117.275,277.000 136.234 C 277.000 149.861,276.740 153.000,275.613 153.000 C 274.518 153.000,274.141 150.109,273.820 139.250 C 273.408 125.351,272.509 121.793,269.078 120.476 C 268.041 120.079,268.146 120.504,269.435 121.928 C 272.101 124.874,272.965 131.171,272.292 142.750 L 271.696 153.000 243.271 153.000 L 214.846 153.000 211.923 155.923 C 208.679 159.167,207.863 166.556,210.313 170.500 C 210.997 171.600,241.480 202.313,278.053 238.750 C 351.923 312.346,347.876 308.968,355.139 303.089 L 357.500 301.179 357.790 269.589 L 358.081 238.000 376.806 238.000 C 409.050 238.000,406.000 228.679,406.000 327.234 L 406.000 406.000 325.234 406.000 C 224.805 406.000,234.000 408.745,234.000 378.766 L 234.000 362.000 264.750 361.968 C 297.296 361.935,296.873 361.993,300.296 357.027 C 305.124 350.023,303.946 347.990,281.884 325.242 C 270.820 313.834,259.458 301.633,256.634 298.128 C 253.810 294.624,248.350 288.165,244.500 283.775 C 240.650 279.385,237.093 275.230,236.597 274.541 C 235.318 272.770,264.771 243.319,266.544 244.597 C 267.233 245.093,272.906 250.000,279.149 255.501 C 285.392 261.001,293.125 267.705,296.333 270.399 C 299.541 273.093,307.188 280.067,313.326 285.898 C 334.304 305.828,314.589 284.929,271.837 241.919 C 234.929 204.787,208.999 179.668,209.000 181.047 C 209.000 181.348,210.841 183.373,213.091 185.547 C 219.721 191.953,243.000 217.709,243.003 218.642 C 243.005 219.114,246.069 222.875,249.811 227.000 L 256.615 234.500 241.417 249.649 L 226.218 264.798 221.952 260.451 C 219.606 258.061,217.369 256.194,216.981 256.302 C 215.944 256.593,194.475 237.426,179.401 222.752 C 164.633 208.375,161.067 206.842,155.455 212.455 L 153.000 214.909 153.000 245.955 C 153.000 275.368,152.904 277.000,151.171 277.000 C 150.092 277.000,149.344 276.282,149.349 275.250 C 149.353 274.288,149.180 266.075,148.963 257.000 L 148.570 240.500 148.035 258.500 L 147.500 276.500 131.500 276.767 C 102.463 277.251,105.000 285.774,105.000 187.766 L 105.000 109.000 185.766 109.000 C 262.076 109.000,266.719 109.101,269.938 110.827 M363.623 248.286 C 362.276 249.271,361.956 250.618,362.257 254.036 L 362.651 258.500 362.825 253.769 C 363.010 248.755,362.994 248.770,370.000 247.666 C 371.813 247.381,371.522 247.235,368.941 247.136 C 366.984 247.061,364.591 247.579,363.623 248.286 M238.035 373.934 C 237.466 374.998,237.061 377.361,237.136 379.184 C 237.244 381.798,237.356 381.971,237.666 380.000 C 238.745 373.150,238.763 373.129,243.755 372.735 L 248.500 372.360 243.785 372.180 C 240.033 372.037,238.859 372.395,238.035 373.934 " stroke="none" fill="#000000" fill-rule="evenodd"></path></g></svg>