<svg version="1.1" width="515" height="515" xmlns="http://www.w3.org/2000/svg">
<g>
<path d="M25.000 92.435 C 25.000 97.971,26.581 101.000,29.471 101.000 C 32.906 101.000,43.698 104.808,48.097 107.572 C 54.921 111.859,60.808 122.769,78.277 163.500 L 90.715 192.500 89.273 201.000 C 87.626 210.719,86.446 297.983,87.561 327.641 L 88.206 344.782 104.103 345.505 C 112.846 345.902,127.200 345.900,136.001 345.500 L 152.002 344.772 152.779 341.775 C 153.467 339.120,155.944 344.365,174.436 387.638 C 196.970 440.368,196.779 440.000,201.464 440.000 C 206.193 440.000,207.411 438.531,213.076 426.000 C 215.935 419.675,222.038 406.272,226.637 396.215 C 231.237 386.159,235.000 377.733,235.000 377.493 C 235.000 377.252,236.095 374.680,237.433 371.777 C 238.771 368.875,241.859 361.775,244.296 356.000 L 248.726 345.500 259.099 345.851 C 264.804 346.044,273.580 345.894,278.601 345.518 L 287.729 344.834 288.188 322.667 C 288.440 310.475,288.345 291.725,287.976 281.000 C 287.398 264.162,287.524 261.107,288.903 258.619 C 293.407 250.495,293.386 250.492,294.454 259.304 C 298.740 294.661,325.515 327.414,359.500 338.874 C 379.451 345.601,399.676 346.699,475.250 345.158 L 483.000 345.000 483.000 312.500 L 483.000 280.000 433.316 280.000 C 376.804 280.000,375.531 279.860,367.483 272.776 C 345.524 253.447,347.908 203.939,371.381 191.828 C 381.608 186.552,381.612 186.551,426.000 186.523 C 448.825 186.509,470.988 186.385,475.250 186.248 L 483.000 186.000 483.000 154.156 L 483.000 122.311 468.750 121.659 C 416.852 119.285,364.236 123.495,349.674 131.187 C 347.278 132.453,348.256 130.589,354.284 122.401 C 360.806 113.541,375.190 103.000,380.757 103.000 C 384.744 103.000,389.000 98.069,389.000 93.449 L 389.000 89.000 332.500 89.000 L 276.000 89.000 276.000 95.000 L 276.000 101.000 283.895 101.000 C 296.155 101.000,308.547 105.482,314.702 112.144 C 325.351 123.668,320.204 143.052,290.318 203.974 L 286.135 212.500 286.068 207.137 C 285.979 200.140,282.769 187.018,278.952 178.048 C 257.894 128.561,207.414 106.277,153.250 122.557 C 151.069 123.213,151.000 123.022,151.000 116.339 C 151.000 104.532,155.128 102.066,176.250 101.254 L 189.000 100.764 189.000 94.882 L 189.000 89.000 107.000 89.000 L 25.000 89.000 25.000 92.435 M200.662 180.146 C 206.910 182.484,214.957 189.254,217.579 194.378 C 222.284 203.574,222.353 204.313,222.744 249.750 C 223.106 291.761,222.760 297.200,220.171 290.250 C 219.240 287.750,210.589 268.330,206.028 258.500 C 202.889 251.736,200.156 245.503,188.502 218.524 C 182.319 204.211,176.091 189.934,174.664 186.799 L 172.068 181.097 176.784 179.653 C 184.055 177.426,193.936 177.630,200.662 180.146 M259.000 397.500 L 259.000 421.000 370.855 421.000 L 482.711 421.000 483.348 414.250 C 484.171 405.541,484.173 391.348,483.353 381.651 L 482.707 374.000 370.853 374.000 L 259.000 374.000 259.000 397.500 " stroke="none" fill-rule="evenodd"></path>
</g>
</svg>