<svg version="1.1" width="515" height="515" xmlns="http://www.w3.org/2000/svg">
<g>
<path d="M175.160 6.138 C 170.573 6.618,161.348 8.182,154.660 9.613 C 147.972 11.044,140.475 12.593,138.000 13.055 C 133.506 13.895,126.056 16.552,118.500 20.011 C 100.997 28.023,96.478 30.378,89.000 35.384 C 69.838 48.212,48.612 69.630,39.500 85.331 C 37.850 88.174,35.019 92.750,33.208 95.500 C 29.997 100.377,28.921 102.494,21.769 118.000 C 9.222 145.206,3.488 179.140,4.195 222.000 L 4.500 240.500 41.666 240.762 L 78.832 241.024 79.271 208.762 C 79.670 179.458,79.911 175.767,81.904 168.500 C 84.344 159.605,88.677 147.571,90.545 144.500 C 91.214 143.400,92.041 141.294,92.383 139.819 C 94.949 128.734,126.567 97.463,140.728 92.004 C 143.352 90.993,148.425 88.933,152.000 87.427 C 155.575 85.921,162.550 83.547,167.500 82.152 L 176.500 79.614 251.500 79.238 C 341.721 78.785,340.850 78.702,368.500 90.487 C 370.150 91.190,373.041 92.355,374.925 93.076 C 376.808 93.797,381.873 97.000,386.180 100.194 C 390.487 103.387,394.165 106.000,394.354 106.000 C 398.541 106.000,419.325 133.349,425.483 146.963 C 435.181 168.401,436.890 179.306,436.963 220.250 L 437.000 241.000 474.109 241.000 L 511.217 241.000 510.719 207.750 C 510.195 172.733,509.646 167.311,504.473 146.000 C 499.406 125.124,490.497 104.354,480.480 90.059 C 477.466 85.757,475.000 81.955,475.000 81.609 C 475.000 80.961,470.887 76.309,460.572 65.291 C 457.311 61.809,451.052 56.156,446.663 52.730 C 442.274 49.303,437.516 45.428,436.091 44.117 C 434.666 42.807,432.150 41.160,430.500 40.458 C 428.850 39.755,425.744 37.785,423.598 36.079 C 416.197 30.196,383.144 15.117,373.352 13.156 C 370.684 12.622,363.100 11.032,356.500 9.623 C 349.900 8.213,340.450 6.600,335.500 6.038 C 324.528 4.793,187.203 4.878,175.160 6.138 M175.500 117.173 C 142.884 126.686,122.432 149.177,113.822 185.000 C 111.902 192.988,111.902 322.012,113.822 330.000 C 119.543 353.803,129.186 370.746,144.627 384.122 C 148.762 387.704,161.233 395.051,164.754 395.979 C 166.814 396.522,172.775 398.141,178.000 399.576 C 194.518 404.114,217.517 403.403,235.000 397.816 C 245.638 394.416,247.103 393.775,252.137 390.312 C 257.996 386.281,256.872 386.231,263.761 390.837 C 281.926 402.981,320.631 406.269,343.635 397.623 C 345.761 396.824,348.850 395.877,350.500 395.518 C 366.716 391.994,390.865 364.178,397.833 341.000 C 402.537 325.355,402.503 325.976,402.448 256.500 L 402.396 190.500 399.652 181.000 C 398.143 175.775,396.522 170.016,396.049 168.202 C 391.757 151.737,365.957 125.174,349.163 119.929 C 343.738 118.235,335.403 115.993,332.264 115.384 L 329.028 114.756 328.764 216.805 C 328.502 318.108,328.485 318.874,326.438 321.615 C 320.988 328.915,310.436 331.304,302.201 327.103 C 295.364 323.615,295.553 324.866,295.000 279.500 L 294.500 238.500 258.000 238.500 L 221.500 238.500 221.000 278.678 C 220.517 317.472,220.428 318.954,218.408 321.678 C 210.937 331.756,196.110 331.724,188.562 321.615 C 186.515 318.874,186.498 318.107,186.236 216.927 C 185.987 120.905,185.872 115.004,184.236 115.066 C 183.281 115.102,179.350 116.050,175.500 117.173 M4.326 276.592 C 1.418 284.171,5.784 344.696,10.548 362.839 C 11.897 367.976,13.000 373.048,13.000 374.111 C 13.000 375.921,18.967 392.129,20.994 395.822 C 21.500 396.745,24.169 402.225,26.925 408.000 C 29.681 413.775,33.751 420.908,35.968 423.850 C 38.186 426.793,40.000 429.736,40.000 430.390 C 40.000 431.044,41.523 433.361,43.385 435.540 C 45.247 437.718,50.160 443.605,54.301 448.622 C 60.781 456.471,80.515 475.000,82.395 475.000 C 82.745 475.000,85.837 477.055,89.266 479.567 C 99.498 487.063,132.253 502.000,138.459 502.000 C 139.681 502.000,144.221 502.906,148.548 504.012 C 169.901 509.474,170.420 509.500,256.000 509.500 C 340.336 509.500,337.222 509.651,361.500 504.400 C 382.911 499.770,407.475 489.750,422.307 479.596 C 425.806 477.200,429.541 474.963,430.606 474.625 C 431.671 474.287,433.926 472.770,435.617 471.255 C 437.307 469.740,442.280 465.697,446.667 462.270 C 456.470 454.615,473.068 437.338,475.853 431.891 C 476.587 430.456,478.853 427.081,480.889 424.391 C 490.219 412.064,499.359 390.640,504.499 369.055 C 509.733 347.068,510.133 343.144,510.688 308.250 L 511.217 275.000 474.263 275.000 L 437.309 275.000 436.693 305.750 C 435.978 341.447,433.412 355.497,425.049 369.500 C 424.063 371.150,422.973 373.706,422.627 375.181 C 420.950 382.313,401.374 404.627,389.000 413.510 C 385.975 415.682,383.003 417.933,382.397 418.512 C 381.790 419.090,379.315 420.407,376.897 421.438 C 374.478 422.469,370.250 424.319,367.500 425.549 C 344.713 435.746,340.250 436.142,252.817 435.720 C 168.037 435.312,165.116 435.001,144.317 424.153 C 143.318 423.632,140.522 422.386,138.103 421.385 C 135.685 420.383,133.210 419.078,132.603 418.485 C 131.997 417.891,129.250 415.881,126.500 414.017 C 114.427 405.838,95.976 384.583,92.011 374.288 C 79.408 341.562,79.000 339.326,79.000 303.058 L 79.000 275.000 41.969 275.000 C 9.028 275.000,4.870 275.176,4.326 276.592 " stroke="none" fill-rule="evenodd"></path>
</g>
</svg>