<svg id="svg" version="1.1" width="515" height="515" xmlns="http://www.w3.org/2000/svg" xmlns:xlink="http://www.w3.org/1999/xlink" style="display: block;"><g id="svgg"><path id="path0" d="M246.450 36.878 C 245.928 37.361,242.800 39.236,239.500 41.045 C 236.200 42.854,230.200 46.284,226.167 48.667 C 222.134 51.050,218.667 53.000,218.461 53.000 C 218.256 53.000,215.874 54.305,213.168 55.901 C 210.462 57.496,205.605 60.259,202.374 62.040 C 199.143 63.821,194.082 66.610,191.126 68.238 C 188.170 69.866,183.538 72.504,180.832 74.099 C 178.126 75.695,175.743 77.000,175.537 77.000 C 175.331 77.000,170.590 79.700,165.000 83.000 C 159.410 86.300,154.686 89.000,154.501 89.000 C 154.316 89.000,150.866 90.949,146.833 93.332 C 142.800 95.714,137.475 98.801,135.000 100.192 C 132.525 101.583,128.274 103.973,125.553 105.503 C 122.831 107.033,118.424 109.571,115.759 111.142 C 113.093 112.714,110.720 114.000,110.485 114.000 C 110.250 114.000,106.632 116.025,102.446 118.500 C 98.260 120.975,94.671 123.000,94.471 123.000 C 94.271 123.000,91.496 124.528,88.304 126.395 C 78.687 132.022,71.682 135.977,68.250 137.720 C 66.462 138.628,65.000 139.698,65.000 140.099 C 65.000 140.753,74.446 147.000,75.434 147.000 C 75.655 147.000,80.410 149.700,86.000 153.000 C 91.590 156.300,96.320 159.000,96.513 159.000 C 96.705 159.000,102.417 162.288,109.206 166.306 C 115.994 170.325,122.213 173.943,123.024 174.346 C 123.836 174.749,125.625 175.726,127.000 176.517 C 130.138 178.323,130.483 178.207,143.467 170.973 C 149.362 167.688,154.378 165.000,154.613 165.000 C 154.848 165.000,156.718 163.948,158.770 162.661 C 160.821 161.375,165.875 158.512,170.000 156.299 C 174.125 154.086,179.525 151.151,182.000 149.776 C 184.475 148.401,188.975 145.918,192.000 144.258 C 195.025 142.598,201.267 139.161,205.872 136.620 C 210.476 134.079,214.394 132.000,214.578 132.000 C 214.762 132.000,217.294 130.592,220.206 128.871 C 223.118 127.150,228.650 124.088,232.500 122.065 C 236.350 120.043,241.637 117.133,244.250 115.599 L 249.000 112.810 249.000 74.405 C 249.000 53.282,248.640 36.000,248.200 36.000 C 247.760 36.000,246.972 36.395,246.450 36.878 M264.000 74.531 C 264.000 110.315,264.125 113.109,265.750 113.708 C 266.712 114.063,269.075 115.323,271.000 116.508 C 272.925 117.692,277.650 120.372,281.500 122.463 C 285.350 124.553,290.863 127.555,293.750 129.132 C 299.266 132.145,307.118 136.433,315.500 141.007 C 318.250 142.508,323.650 145.436,327.500 147.513 C 331.350 149.591,334.950 151.631,335.500 152.048 C 336.050 152.465,340.100 154.697,344.500 157.008 C 348.900 159.320,354.300 162.256,356.500 163.533 C 362.014 166.735,372.484 172.464,378.594 175.625 L 383.688 178.260 395.737 171.155 C 402.364 167.247,410.421 162.624,413.643 160.881 C 416.864 159.138,419.950 157.387,420.500 156.990 C 421.050 156.593,423.750 155.032,426.500 153.522 C 446.758 142.400,452.307 138.000,446.079 138.000 C 445.707 138.000,438.296 133.950,429.610 129.000 C 420.924 124.050,413.647 120.000,413.438 120.000 C 413.229 120.000,409.632 117.975,405.446 115.500 C 401.260 113.025,397.669 111.000,397.466 111.000 C 397.263 111.000,390.950 107.400,383.438 103.000 C 375.926 98.600,369.641 95.000,369.472 95.000 C 369.302 95.000,364.590 92.300,359.000 89.000 C 353.410 85.700,348.662 83.000,348.447 83.000 C 348.233 83.000,344.632 80.975,340.446 78.500 C 336.260 76.025,332.704 74.000,332.545 74.000 C 332.386 74.000,326.291 70.625,319.000 66.500 C 311.709 62.375,305.614 59.000,305.454 59.000 C 305.294 59.000,300.590 56.300,295.000 53.000 C 289.410 49.700,284.699 47.000,284.531 47.000 C 284.363 47.000,280.012 44.530,274.863 41.511 C 269.713 38.492,265.163 36.017,264.750 36.011 C 264.337 36.005,264.000 53.339,264.000 74.531 M253.473 127.371 C 252.388 128.126,247.900 130.682,243.500 133.053 C 239.100 135.424,230.403 140.207,224.173 143.682 C 217.943 147.157,212.662 150.000,212.438 150.000 C 212.214 150.000,209.886 151.290,207.265 152.866 C 204.644 154.442,199.125 157.521,195.000 159.708 C 188.010 163.414,174.627 170.760,160.500 178.646 C 157.200 180.488,152.588 182.976,150.250 184.175 C 145.651 186.533,145.017 187.689,147.750 188.728 C 148.713 189.093,155.058 192.679,161.851 196.696 C 168.645 200.713,174.373 204.000,174.582 204.000 C 174.791 204.000,177.332 205.508,180.231 207.351 C 184.805 210.261,199.173 218.543,214.000 226.816 C 216.475 228.197,222.777 231.863,228.004 234.962 C 233.231 238.061,238.181 240.930,239.004 241.338 C 239.827 241.745,241.400 242.623,242.500 243.289 C 258.027 252.689,255.130 252.755,272.301 242.612 C 280.110 237.999,288.075 233.342,290.000 232.264 C 305.364 223.657,319.969 215.252,334.000 206.943 C 352.245 196.138,359.872 191.757,364.750 189.280 C 368.414 187.419,368.798 186.494,366.250 185.662 C 365.288 185.348,362.250 183.827,359.500 182.282 C 356.750 180.737,350.900 177.496,346.500 175.079 C 336.485 169.577,333.156 167.748,314.186 157.323 C 305.763 152.694,296.538 147.638,293.686 146.089 C 290.834 144.539,286.925 142.387,285.000 141.305 C 283.075 140.224,278.125 137.503,274.000 135.257 C 269.875 133.012,264.475 130.016,262.000 128.599 C 256.790 125.618,256.131 125.523,253.473 127.371 M57.000 260.000 C 57.000 318.300,57.337 365.999,57.750 365.998 C 58.163 365.997,62.240 363.747,66.810 360.998 C 71.381 358.249,75.281 356.000,75.478 356.000 C 75.674 356.000,79.134 354.051,83.167 351.668 C 87.200 349.286,92.750 346.089,95.500 344.564 C 98.250 343.039,105.563 338.819,111.750 335.187 L 123.000 328.583 123.000 259.960 L 123.000 191.338 120.262 189.919 C 118.756 189.139,110.857 184.563,102.708 179.750 C 94.558 174.938,87.727 171.000,87.527 171.000 C 87.327 171.000,82.590 168.300,77.000 165.000 C 71.410 161.700,66.640 159.000,66.399 159.000 C 66.158 159.000,64.178 157.875,62.000 156.500 C 59.822 155.125,57.806 154.000,57.520 154.000 C 57.234 154.000,57.000 201.700,57.000 260.000 M446.137 159.525 C 440.988 162.536,436.638 165.000,436.470 165.000 C 436.302 165.000,432.866 166.950,428.833 169.333 C 424.800 171.716,419.025 175.045,416.000 176.730 C 412.975 178.416,406.000 182.450,400.500 185.695 L 390.500 191.596 390.251 260.048 L 390.002 328.500 393.251 330.375 C 406.379 337.952,424.333 348.226,428.500 350.545 C 431.250 352.075,438.374 356.217,444.331 359.749 C 450.289 363.281,455.353 365.980,455.586 365.747 C 455.819 365.515,455.895 317.788,455.755 259.687 L 455.500 154.051 446.137 159.525 M484.272 186.000 C 484.272 188.475,484.467 189.488,484.706 188.250 C 484.944 187.012,484.944 184.988,484.706 183.750 C 484.467 182.512,484.272 183.525,484.272 186.000 M484.360 207.000 C 484.360 212.225,484.529 214.363,484.735 211.750 C 484.941 209.137,484.941 204.863,484.735 202.250 C 484.529 199.637,484.360 201.775,484.360 207.000 M138.008 261.250 L 138.016 321.500 142.258 323.855 C 144.591 325.150,150.325 328.239,155.000 330.720 C 159.675 333.200,163.950 335.563,164.500 335.970 C 165.050 336.377,168.650 338.409,172.500 340.487 C 176.350 342.564,181.863 345.555,184.750 347.132 C 187.637 348.709,192.588 351.412,195.750 353.138 C 198.912 354.864,203.525 357.401,206.000 358.776 C 208.475 360.151,213.875 363.075,218.000 365.275 C 222.125 367.474,225.950 369.618,226.500 370.038 C 227.050 370.458,231.550 372.918,236.500 375.505 C 241.450 378.091,245.928 380.610,246.450 381.103 C 246.973 381.597,247.760 382.000,248.200 382.000 C 248.640 382.000,249.000 355.517,249.000 323.148 L 249.000 264.297 237.252 257.398 C 230.791 253.604,224.604 250.018,223.502 249.429 C 222.401 248.840,213.400 243.716,203.500 238.043 C 193.600 232.370,183.700 226.708,181.500 225.462 C 179.300 224.215,171.732 219.777,164.681 215.598 C 157.631 211.419,151.691 208.000,151.482 208.000 C 151.272 208.000,148.490 206.426,145.300 204.503 C 142.110 202.579,139.162 201.004,138.750 201.003 C 138.338 201.001,138.004 228.113,138.008 261.250 M362.670 207.544 C 356.714 211.095,351.676 214.000,351.475 214.000 C 351.092 214.000,321.607 231.256,319.000 233.006 C 318.175 233.560,316.825 234.318,316.000 234.692 C 315.175 235.065,311.200 237.312,307.167 239.685 C 303.134 242.058,299.684 244.000,299.499 244.000 C 299.314 244.000,294.739 246.610,289.331 249.800 C 283.924 252.991,278.825 255.933,278.000 256.340 C 277.175 256.746,275.600 257.626,274.500 258.295 C 273.400 258.964,270.587 260.604,268.250 261.940 L 264.000 264.368 264.000 323.184 C 264.000 355.533,264.245 382.000,264.544 382.000 C 265.018 382.000,276.810 375.660,291.000 367.777 C 293.475 366.402,297.975 363.927,301.000 362.277 C 318.494 352.738,324.687 349.344,336.872 342.620 C 341.476 340.079,345.423 338.000,345.642 338.000 C 345.861 338.000,347.718 336.948,349.770 335.661 C 353.144 333.546,365.246 326.875,372.250 323.269 L 375.000 321.854 375.000 261.427 C 375.000 228.192,374.663 201.020,374.250 201.044 C 373.837 201.069,368.627 203.994,362.670 207.544 M132.000 340.857 C 129.525 342.408,125.025 345.053,122.000 346.735 C 118.975 348.417,108.850 354.175,99.500 359.532 C 90.150 364.888,80.925 370.154,79.000 371.234 C 67.268 377.816,67.320 376.848,78.374 382.954 C 81.605 384.738,86.387 387.459,89.000 389.000 C 93.670 391.754,99.360 394.928,110.750 401.132 C 113.912 402.855,116.950 404.590,117.500 404.988 C 118.050 405.386,120.975 407.061,124.000 408.711 C 132.384 413.281,138.774 416.908,146.833 421.668 C 150.866 424.051,154.316 426.000,154.501 426.000 C 154.686 426.000,159.410 428.700,165.000 432.000 C 170.590 435.300,175.338 438.000,175.553 438.000 C 175.767 438.000,179.368 440.025,183.554 442.500 C 187.740 444.975,191.296 447.000,191.455 447.000 C 191.614 447.000,197.709 450.375,205.000 454.500 C 212.291 458.625,218.386 462.000,218.546 462.000 C 218.706 462.000,223.410 464.700,229.000 468.000 C 234.590 471.300,239.360 474.000,239.601 474.000 C 239.842 474.000,241.822 475.125,244.000 476.500 C 246.178 477.875,248.194 479.000,248.480 479.000 C 248.766 479.000,249.000 461.103,249.000 439.230 L 249.000 399.460 238.250 393.526 C 232.338 390.262,225.925 386.732,224.000 385.682 C 222.075 384.631,218.700 382.755,216.500 381.511 C 214.300 380.267,209.575 377.686,206.000 375.776 C 200.092 372.618,186.589 365.214,175.000 358.776 C 172.525 357.401,167.800 354.803,164.500 353.001 C 161.200 351.200,156.700 348.718,154.500 347.486 C 147.617 343.631,137.076 337.999,136.782 338.019 C 136.627 338.029,134.475 339.307,132.000 340.857 M368.000 342.420 C 363.875 344.734,356.900 348.593,352.500 350.996 C 348.100 353.398,339.403 358.207,333.173 361.682 C 326.943 365.157,321.662 368.000,321.438 368.000 C 321.214 368.000,318.886 369.290,316.265 370.866 C 313.644 372.442,308.125 375.521,304.000 377.708 C 299.875 379.895,291.775 384.301,286.000 387.499 C 280.225 390.698,272.914 394.706,269.753 396.407 L 264.006 399.500 264.003 439.250 C 264.001 461.113,264.337 478.995,264.750 478.989 C 265.163 478.983,269.713 476.508,274.863 473.489 C 280.012 470.470,284.362 468.000,284.530 468.000 C 284.698 468.000,288.134 466.050,292.167 463.667 C 296.200 461.284,302.087 457.909,305.250 456.167 C 308.413 454.425,313.531 451.605,316.624 449.901 C 319.717 448.196,324.462 445.496,327.168 443.901 C 329.874 442.305,332.280 441.000,332.515 441.000 C 332.750 441.000,336.368 438.975,340.554 436.500 C 344.740 434.025,348.316 432.000,348.501 432.000 C 348.686 432.000,353.410 429.300,359.000 426.000 C 364.590 422.700,369.302 420.000,369.472 420.000 C 369.641 420.000,375.926 416.400,383.438 412.000 C 390.950 407.600,397.242 404.000,397.420 404.000 C 397.598 404.000,401.964 401.610,407.122 398.689 C 412.280 395.768,418.976 392.020,422.003 390.359 C 431.702 385.036,444.000 377.836,444.000 377.480 C 444.000 377.181,438.667 373.883,424.000 365.111 C 422.075 363.959,419.825 362.705,419.000 362.323 C 418.175 361.941,414.200 359.688,410.167 357.315 C 406.134 354.942,402.684 353.000,402.499 353.000 C 402.314 353.000,397.590 350.300,392.000 347.000 C 386.410 343.700,381.479 341.000,381.041 341.000 C 380.603 341.000,379.685 340.325,379.000 339.500 C 377.284 337.433,376.537 337.631,368.000 342.420 " stroke="none" fill="#000000" fill-rule="evenodd"></path></g></svg>