<svg version="1.1" width="400" height="400" xmlns="http://www.w3.org/2000/svg"><g><path d="M99.750 5.689 C 98.787 5.941,98.000 6.482,98.000 6.891 C 98.000 7.300,94.850 8.668,91.000 9.930 C 87.150 11.192,84.000 12.542,84.000 12.930 C 84.000 13.318,81.412 14.448,78.250 15.442 C 75.088 16.436,69.800 18.510,66.500 20.050 C 63.200 21.589,58.138 23.610,55.250 24.540 C 52.362 25.470,50.000 26.576,50.000 26.999 C 50.000 27.421,48.987 28.007,47.750 28.301 C 44.206 29.144,36.575 32.086,36.011 32.827 C 35.455 33.560,31.302 35.203,23.500 37.777 C 20.750 38.684,17.952 39.959,17.282 40.610 C 16.611 41.261,13.461 42.591,10.282 43.566 C 7.102 44.540,4.344 45.455,4.153 45.599 C 3.579 46.032,6.263 64.459,6.978 65.000 C 7.342 65.275,8.702 72.925,10.000 82.000 C 11.298 91.075,12.648 98.725,13.000 99.000 C 13.352 99.275,14.914 108.950,16.472 120.500 C 18.029 132.050,19.609 141.725,19.982 142.000 C 20.355 142.275,21.938 151.725,23.500 163.000 C 25.062 174.275,26.657 183.725,27.045 184.000 C 27.434 184.275,28.785 191.925,30.048 201.000 C 31.311 210.075,32.649 217.725,33.021 218.000 C 33.392 218.275,34.971 227.950,36.528 239.500 C 38.086 251.050,39.645 260.725,39.993 261.000 C 40.341 261.275,41.906 270.500,43.470 281.500 C 45.035 292.500,46.619 301.725,46.992 302.000 C 47.364 302.275,48.718 310.150,50.000 319.500 C 51.282 328.850,52.635 336.725,53.007 337.000 C 53.379 337.275,54.222 341.775,54.882 347.000 C 56.766 361.938,55.622 360.454,66.220 361.719 C 84.936 363.954,100.513 366.352,101.002 367.074 C 101.278 367.482,108.703 368.810,117.502 370.026 C 126.301 371.241,133.725 372.553,134.000 372.940 C 134.275 373.327,143.500 374.934,154.500 376.510 C 165.500 378.086,174.725 379.677,175.000 380.044 C 175.275 380.412,184.275 381.976,195.000 383.520 C 205.725 385.065,214.725 386.623,215.000 386.984 C 215.275 387.344,222.925 388.702,232.000 390.000 C 241.075 391.298,248.725 392.648,249.000 392.999 C 249.442 393.564,270.768 397.042,273.603 397.012 C 274.247 397.005,275.658 391.067,276.993 382.750 C 278.250 374.913,279.591 368.275,279.972 368.000 C 280.354 367.725,281.941 359.625,283.500 350.000 C 285.059 340.375,286.640 332.275,287.013 332.000 C 287.387 331.725,287.981 330.316,288.335 328.869 C 289.451 324.304,294.022 323.000,308.901 323.000 L 322.000 323.000 322.000 315.691 C 322.000 307.211,322.617 306.157,329.500 302.880 C 332.250 301.571,335.107 299.925,335.850 299.222 C 336.592 298.519,338.635 297.344,340.389 296.611 C 342.144 295.878,344.236 294.629,345.040 293.837 C 345.843 293.045,348.637 291.367,351.250 290.109 C 353.863 288.851,356.001 287.524,356.002 287.161 C 356.004 286.797,358.704 285.184,362.002 283.576 C 365.301 281.967,368.000 280.335,368.000 279.947 C 368.000 279.560,369.462 278.660,371.250 277.947 C 373.037 277.234,376.750 275.191,379.500 273.407 C 382.250 271.623,385.738 269.604,387.250 268.921 C 388.762 268.238,390.000 267.356,390.000 266.961 C 390.000 266.566,391.350 265.683,393.000 265.000 C 396.956 263.361,396.639 260.749,391.865 255.624 C 390.839 254.524,390.000 253.033,390.000 252.311 C 390.000 251.590,389.209 250.209,388.241 249.241 C 387.274 248.274,385.175 244.899,383.578 241.741 C 381.980 238.584,380.329 236.000,379.909 236.000 C 379.489 236.000,377.974 233.525,376.543 230.500 C 375.112 227.475,373.582 225.000,373.142 225.000 C 372.702 225.000,371.288 222.750,370.000 220.000 C 368.712 217.250,367.298 215.000,366.858 215.000 C 366.418 215.000,364.840 212.413,363.350 209.250 C 361.861 206.088,360.129 203.050,359.502 202.500 C 358.875 201.950,357.516 199.475,356.483 197.000 C 355.449 194.525,353.793 191.695,352.802 190.711 C 349.957 187.886,350.596 186.268,357.000 180.079 C 360.300 176.889,363.000 173.937,363.000 173.518 C 363.000 173.099,369.060 166.624,376.467 159.128 C 391.664 143.749,394.161 141.117,395.309 139.269 C 396.086 138.018,394.228 131.042,392.838 129.992 C 392.468 129.712,391.161 126.562,389.934 122.992 C 388.708 119.421,387.336 116.258,386.886 115.962 C 386.436 115.666,384.824 111.841,383.303 107.462 C 381.783 103.083,380.196 99.251,379.777 98.946 C 379.358 98.641,377.844 95.041,376.414 90.947 C 374.983 86.852,373.416 83.257,372.931 82.957 C 372.445 82.657,371.127 79.527,370.000 76.000 C 368.873 72.473,367.621 69.343,367.216 69.044 C 366.812 68.745,365.182 64.675,363.593 60.000 C 362.005 55.325,360.381 51.275,359.983 51.000 C 359.585 50.725,357.988 46.450,356.434 41.500 C 354.880 36.550,353.278 32.268,352.874 31.984 C 352.470 31.701,351.122 28.326,349.877 24.484 C 348.632 20.643,347.312 17.275,346.942 17.000 C 346.572 16.725,345.979 15.566,345.623 14.425 C 345.004 12.440,343.486 12.247,310.738 10.003 C 291.907 8.713,276.275 7.347,276.000 6.968 C 275.725 6.589,270.193 5.957,263.706 5.564 L 251.912 4.850 246.206 10.838 C 243.068 14.131,239.825 16.950,239.000 17.102 C 236.996 17.472,225.000 13.767,225.000 12.778 C 225.000 12.350,223.425 12.000,221.500 12.000 C 219.575 12.000,218.000 12.369,218.000 12.819 C 218.000 13.270,215.075 14.944,211.500 16.538 C 207.925 18.133,205.000 19.708,205.000 20.038 C 205.000 20.369,202.075 21.944,198.500 23.538 C 194.925 25.133,192.000 26.737,192.000 27.102 C 192.000 27.468,189.525 28.772,186.500 30.000 C 183.475 31.228,181.000 32.579,181.000 33.004 C 181.000 33.428,178.075 35.018,174.500 36.538 C 170.925 38.057,168.000 39.630,168.000 40.033 C 168.000 41.413,163.511 41.983,162.500 40.732 C 161.950 40.052,158.800 38.161,155.500 36.529 C 152.200 34.898,149.359 33.238,149.186 32.840 C 149.013 32.442,146.763 31.101,144.186 29.860 C 141.609 28.619,138.843 26.955,138.040 26.163 C 137.236 25.371,135.144 24.122,133.389 23.389 C 131.635 22.656,129.592 21.458,128.850 20.726 C 128.107 19.995,125.347 18.359,122.716 17.092 C 120.084 15.825,117.356 14.213,116.653 13.510 C 115.950 12.807,113.406 11.227,111.000 10.000 C 108.594 8.773,106.003 7.145,105.241 6.384 C 103.839 4.982,102.907 4.864,99.750 5.689 M319.000 201.500 L 319.000 321.000 200.000 321.000 L 81.000 321.000 81.000 201.500 L 81.000 82.000 200.000 82.000 L 319.000 82.000 319.000 201.500 M253.500 109.565 C 252.400 109.815,249.137 110.498,246.250 111.082 C 243.363 111.666,241.000 112.451,241.000 112.828 C 241.000 113.204,239.698 114.088,238.106 114.793 C 233.030 117.040,226.782 124.118,224.907 129.747 C 222.600 136.672,224.039 156.000,226.862 156.000 C 227.251 156.000,228.353 157.328,229.312 158.952 C 230.271 160.575,232.843 162.908,235.028 164.136 C 237.213 165.364,239.000 166.661,239.000 167.018 C 239.000 167.375,243.275 168.740,248.500 170.052 C 253.725 171.364,258.000 172.789,258.000 173.219 C 258.000 173.648,258.550 174.000,259.222 174.000 C 272.296 174.000,281.138 185.775,271.720 190.645 C 266.196 193.501,243.000 190.494,243.000 186.922 C 243.000 186.495,241.762 185.521,240.250 184.757 C 238.738 183.993,236.458 182.723,235.185 181.934 C 233.057 180.616,232.708 180.703,230.880 183.000 C 226.984 187.895,223.468 192.128,221.256 194.586 L 219.012 197.079 222.023 200.023 C 223.680 201.642,226.490 203.712,228.267 204.623 C 230.045 205.534,231.725 206.620,232.000 207.036 C 232.562 207.887,244.644 212.000,246.582 212.000 C 247.270 212.000,248.020 212.561,248.249 213.247 C 248.784 214.853,274.704 215.043,275.786 213.449 C 276.179 212.870,278.591 211.613,281.147 210.655 C 283.703 209.697,286.853 207.987,288.147 206.854 C 289.441 205.721,291.223 204.278,292.106 203.647 C 299.909 198.073,301.286 170.990,294.111 164.211 C 288.401 158.815,285.409 156.941,279.347 154.965 C 277.231 154.275,275.275 153.398,275.000 153.017 C 274.725 152.636,270.141 151.325,264.814 150.105 C 259.487 148.884,254.987 147.574,254.814 147.193 C 254.641 146.812,253.150 145.811,251.500 144.969 C 247.562 142.959,246.854 137.626,250.038 133.958 C 252.495 131.129,267.879 130.135,268.750 132.750 C 268.979 133.438,269.648 134.000,270.237 134.000 C 272.173 134.000,282.000 139.037,282.000 140.029 C 282.000 141.917,284.149 140.960,287.056 137.777 C 288.675 136.005,290.000 134.041,290.000 133.414 C 290.000 132.786,291.064 131.199,292.365 129.886 C 298.008 124.193,296.180 119.929,286.395 115.957 C 283.428 114.753,281.000 113.429,281.000 113.014 C 281.000 111.321,258.301 108.475,253.500 109.565 M97.000 113.057 C 97.000 115.778,99.146 124.365,99.984 125.000 C 100.347 125.275,101.937 130.900,103.517 137.500 C 105.096 144.100,106.688 149.725,107.054 150.000 C 107.420 150.275,108.781 155.000,110.080 160.500 C 111.379 166.000,112.727 170.725,113.077 171.000 C 113.426 171.275,114.989 176.900,116.550 183.500 C 118.110 190.100,119.725 195.736,120.139 196.025 C 120.552 196.314,121.385 198.789,121.990 201.525 C 122.595 204.261,123.537 208.188,124.083 210.250 L 125.077 214.000 135.019 214.000 L 144.962 214.000 145.635 211.250 C 146.005 209.738,146.615 208.275,146.991 208.000 C 147.741 207.451,152.000 190.078,152.000 187.566 C 152.000 186.705,152.396 186.000,152.881 186.000 C 153.365 186.000,155.005 180.713,156.524 174.250 C 158.043 167.787,159.604 162.275,159.993 162.000 C 160.382 161.725,160.893 160.898,161.129 160.163 C 161.365 159.427,162.603 163.477,163.880 169.163 C 165.157 174.848,166.596 179.984,167.078 180.575 C 167.856 181.530,170.408 191.752,171.739 199.250 C 172.007 200.762,172.590 202.000,173.034 202.000 C 173.478 202.000,174.130 203.463,174.483 205.250 C 176.206 213.974,176.242 214.000,186.381 214.000 C 196.682 214.000,197.205 213.663,198.464 206.212 C 198.856 203.895,199.501 202.000,199.898 202.000 C 200.296 202.000,201.913 196.487,203.493 189.750 C 205.072 183.012,206.693 177.273,207.095 176.995 C 207.497 176.717,208.824 172.217,210.044 166.995 C 211.265 161.773,212.566 157.275,212.937 157.000 C 213.308 156.725,214.904 151.100,216.483 144.500 C 218.063 137.900,219.654 132.275,220.018 132.000 C 220.707 131.481,225.004 114.450,225.001 112.250 C 225.000 110.858,202.374 110.411,200.463 111.765 C 199.893 112.169,198.144 118.350,196.576 125.500 C 195.009 132.650,193.417 138.725,193.038 139.000 C 192.659 139.275,191.289 144.771,189.993 151.213 C 186.990 166.135,185.849 166.618,182.985 154.178 C 181.759 148.855,180.456 144.275,180.089 144.000 C 179.723 143.725,178.132 138.325,176.555 132.000 C 174.979 125.675,173.349 120.050,172.934 119.500 C 172.520 118.950,171.775 116.925,171.279 115.000 L 170.377 111.500 160.846 111.216 L 151.315 110.931 149.537 118.481 C 148.559 122.634,147.430 126.234,147.028 126.482 C 146.627 126.731,145.018 132.236,143.455 138.717 C 141.891 145.198,140.313 150.725,139.948 151.000 C 139.584 151.275,138.689 153.975,137.960 157.000 C 136.175 164.410,135.379 165.013,134.564 159.575 C 134.186 157.059,133.534 155.000,133.115 155.000 C 132.696 155.000,131.778 152.188,131.076 148.750 C 130.373 145.313,129.319 140.137,128.732 137.250 C 128.145 134.363,127.341 132.000,126.944 132.000 C 126.547 132.000,125.917 130.313,125.543 128.250 C 125.169 126.188,124.182 121.463,123.351 117.750 L 121.840 111.000 109.420 111.000 C 97.552 111.000,97.000 111.091,97.000 113.057 M102.000 283.500 L 102.000 292.000 148.000 292.000 L 194.000 292.000 194.000 283.500 L 194.000 275.000 148.000 275.000 L 102.000 275.000 102.000 283.500 " stroke="none" fill-rule="evenodd"></path></g></svg>