<svg id="svg" version="1.1" width="400" height="400" xmlns="http://www.w3.org/2000/svg" xmlns:xlink="http://www.w3.org/1999/xlink" style="display: block;"><g id="svgg"><path id="path0" d="M281.000 55.000 C 281.000 55.550,279.200 56.000,277.000 56.000 C 274.800 56.000,273.000 56.450,273.000 57.000 C 273.000 57.550,271.875 58.000,270.500 58.000 C 269.125 58.000,268.000 58.450,268.000 59.000 C 268.000 59.550,267.100 60.000,266.000 60.000 C 264.900 60.000,264.000 60.450,264.000 61.000 C 264.000 61.550,263.312 62.000,262.472 62.000 C 260.434 62.000,245.000 77.377,245.000 79.408 C 245.000 80.283,244.550 81.000,244.000 81.000 C 243.450 81.000,243.000 82.350,243.000 84.000 C 243.000 85.650,242.550 87.000,242.000 87.000 C 241.450 87.000,241.000 88.125,241.000 89.500 C 241.000 90.875,240.550 92.000,240.000 92.000 C 239.391 92.000,239.000 96.500,239.000 103.500 C 239.000 110.500,239.391 115.000,240.000 115.000 C 240.550 115.000,241.000 116.800,241.000 119.000 C 241.000 121.200,241.450 123.000,242.000 123.000 C 242.550 123.000,243.000 124.320,243.000 125.933 C 243.000 127.987,243.599 129.055,245.000 129.500 C 246.100 129.849,247.000 131.004,247.000 132.067 C 247.000 133.130,247.420 134.000,247.933 134.000 C 248.446 134.000,249.151 134.900,249.500 136.000 C 249.849 137.100,250.824 138.000,251.666 138.000 C 252.508 138.000,254.459 139.350,256.000 141.000 C 257.541 142.650,259.522 144.000,260.401 144.000 C 261.281 144.000,262.000 144.450,262.000 145.000 C 262.000 145.550,263.350 146.000,265.000 146.000 C 266.650 146.000,268.000 146.340,268.000 146.756 C 268.000 147.973,273.198 149.928,278.288 150.626 C 280.880 150.981,283.000 151.661,283.000 152.136 C 283.000 152.611,284.575 153.000,286.500 153.000 C 288.425 153.000,290.000 153.450,290.000 154.000 C 290.000 154.550,291.800 155.000,294.000 155.000 C 296.200 155.000,298.000 155.450,298.000 156.000 C 298.000 156.550,299.350 157.000,301.000 157.000 C 302.650 157.000,304.000 157.450,304.000 158.000 C 304.000 158.550,305.350 159.000,307.000 159.000 C 308.650 159.000,310.000 159.450,310.000 160.000 C 310.000 160.550,310.675 161.000,311.500 161.000 C 312.325 161.000,313.000 161.450,313.000 162.000 C 313.000 162.550,313.690 163.000,314.533 163.000 C 318.279 163.000,323.000 169.673,323.000 174.967 C 323.000 177.735,322.550 180.000,322.000 180.000 C 321.450 180.000,321.000 180.900,321.000 182.000 C 321.000 183.251,320.333 184.000,319.221 184.000 C 318.242 184.000,316.793 184.900,316.000 186.000 C 315.207 187.100,313.533 188.000,312.279 188.000 C 311.026 188.000,310.000 188.450,310.000 189.000 C 310.000 189.593,306.333 190.000,301.000 190.000 C 295.667 190.000,292.000 189.593,292.000 189.000 C 292.000 188.450,290.425 188.000,288.500 188.000 C 286.575 188.000,285.000 187.550,285.000 187.000 C 285.000 186.450,283.650 186.000,282.000 186.000 C 280.350 186.000,279.000 185.550,279.000 185.000 C 279.000 184.450,278.100 184.000,277.000 184.000 C 275.900 184.000,275.000 183.550,275.000 183.000 C 275.000 182.450,274.100 182.000,273.000 182.000 C 271.900 182.000,271.000 181.550,271.000 181.000 C 271.000 180.450,270.424 180.000,269.721 180.000 C 269.017 180.000,267.793 179.100,267.000 178.000 C 266.207 176.900,264.938 176.000,264.180 176.000 C 263.423 176.000,261.541 174.650,260.000 173.000 C 258.459 171.350,256.338 170.000,255.288 170.000 C 253.349 170.000,245.000 178.190,245.000 180.092 C 245.000 180.663,242.750 183.321,240.000 186.000 C 237.250 188.679,235.000 191.349,235.000 191.935 C 235.000 192.521,234.550 193.000,234.000 193.000 C 233.450 193.000,233.000 194.350,233.000 196.000 C 233.000 198.082,233.489 199.000,234.599 199.000 C 235.478 199.000,237.459 200.350,239.000 202.000 C 240.541 203.650,242.423 205.000,243.180 205.000 C 243.938 205.000,245.206 205.898,245.997 206.995 C 246.788 208.093,248.912 209.268,250.718 209.607 C 252.523 209.945,254.000 210.623,254.000 211.111 C 254.000 211.600,254.900 212.000,256.000 212.000 C 257.100 212.000,258.000 212.450,258.000 213.000 C 258.000 213.550,258.900 214.000,260.000 214.000 C 261.100 214.000,262.000 214.450,262.000 215.000 C 262.000 215.550,263.350 216.000,265.000 216.000 C 266.650 216.000,268.000 216.450,268.000 217.000 C 268.000 217.550,269.125 218.000,270.500 218.000 C 271.875 218.000,273.000 218.450,273.000 219.000 C 273.000 219.550,275.250 220.000,278.000 220.000 C 280.750 220.000,283.000 220.450,283.000 221.000 C 283.000 221.630,289.667 222.000,301.000 222.000 C 312.333 222.000,319.000 221.630,319.000 221.000 C 319.000 220.450,320.350 220.000,322.000 220.000 C 323.650 220.000,325.000 219.550,325.000 219.000 C 325.000 218.450,326.125 218.000,327.500 218.000 C 328.875 218.000,330.000 217.550,330.000 217.000 C 330.000 216.450,331.251 216.000,332.779 216.000 C 334.411 216.000,336.153 215.174,337.000 214.000 C 337.793 212.900,339.036 212.000,339.763 212.000 C 342.610 212.000,353.000 201.398,353.000 198.492 C 353.000 197.672,353.450 197.000,354.000 197.000 C 354.550 197.000,355.000 196.100,355.000 195.000 C 355.000 193.900,355.450 193.000,356.000 193.000 C 356.550 193.000,357.000 191.875,357.000 190.500 C 357.000 189.125,357.450 188.000,358.000 188.000 C 358.550 188.000,359.000 185.750,359.000 183.000 C 359.000 180.250,359.450 178.000,360.000 178.000 C 360.564 178.000,361.000 175.167,361.000 171.500 C 361.000 167.833,360.564 165.000,360.000 165.000 C 359.450 165.000,359.000 162.750,359.000 160.000 C 359.000 157.250,358.550 155.000,358.000 155.000 C 357.450 155.000,357.000 153.875,357.000 152.500 C 357.000 151.125,356.550 150.000,356.000 150.000 C 355.450 150.000,355.000 149.309,355.000 148.464 C 355.000 147.620,354.096 145.932,352.990 144.714 C 344.963 135.870,342.971 134.000,341.578 134.000 C 340.710 134.000,340.000 133.550,340.000 133.000 C 340.000 132.450,339.100 132.000,338.000 132.000 C 336.900 132.000,336.000 131.600,336.000 131.111 C 336.000 130.623,334.425 129.927,332.500 129.566 C 330.575 129.205,329.000 128.480,329.000 127.955 C 329.000 127.430,327.650 127.000,326.000 127.000 C 324.350 127.000,323.000 126.550,323.000 126.000 C 323.000 125.450,321.650 125.000,320.000 125.000 C 318.350 125.000,317.000 124.550,317.000 124.000 C 317.000 123.450,315.650 123.000,314.000 123.000 C 312.350 123.000,311.000 122.550,311.000 122.000 C 311.000 121.450,309.425 121.000,307.500 121.000 C 305.575 121.000,304.000 120.550,304.000 120.000 C 304.000 119.450,302.650 119.000,301.000 119.000 C 299.350 119.000,298.000 118.550,298.000 118.000 C 298.000 117.450,296.650 117.000,295.000 117.000 C 293.350 117.000,292.000 116.550,292.000 116.000 C 292.000 115.450,290.875 115.000,289.500 115.000 C 288.125 115.000,287.000 114.550,287.000 114.000 C 287.000 113.450,286.306 113.000,285.458 113.000 C 283.896 113.000,283.323 112.605,277.979 107.849 C 275.004 105.201,273.557 98.000,276.000 98.000 C 276.550 98.000,277.000 97.305,277.000 96.455 C 277.000 93.352,281.792 89.930,287.002 89.313 C 289.751 88.988,292.000 88.334,292.000 87.861 C 292.000 87.387,293.350 87.000,295.000 87.000 C 296.650 87.000,298.000 87.399,298.000 87.887 C 298.000 88.375,301.231 88.957,305.181 89.180 C 309.579 89.429,312.518 90.054,312.764 90.793 C 312.986 91.457,314.479 92.000,316.083 92.000 C 317.688 92.000,319.000 92.450,319.000 93.000 C 319.000 93.550,319.900 94.000,321.000 94.000 C 322.100 94.000,323.000 94.450,323.000 95.000 C 323.000 95.550,323.801 96.000,324.779 96.000 C 325.758 96.000,327.207 96.900,328.000 98.000 C 328.793 99.100,329.918 100.000,330.500 100.000 C 331.082 100.000,332.207 100.900,333.000 102.000 C 334.801 104.499,338.000 104.640,338.000 102.221 C 338.000 101.242,338.900 99.793,340.000 99.000 C 341.100 98.207,342.000 96.938,342.000 96.180 C 342.000 95.423,343.350 93.541,345.000 92.000 C 346.650 90.459,348.000 88.758,348.000 88.221 C 348.000 87.684,348.675 86.685,349.500 86.000 C 350.325 85.315,351.000 84.010,351.000 83.098 C 351.000 82.187,351.900 80.793,353.000 80.000 C 356.704 77.330,355.166 72.140,350.203 70.565 C 348.992 70.180,348.000 69.446,348.000 68.933 C 348.000 68.420,347.100 68.000,346.000 68.000 C 344.900 68.000,344.000 67.550,344.000 67.000 C 344.000 66.450,343.100 66.000,342.000 66.000 C 340.900 66.000,340.000 65.550,340.000 65.000 C 340.000 64.450,339.100 64.000,338.000 64.000 C 336.900 64.000,336.000 63.550,336.000 63.000 C 336.000 62.450,335.100 62.000,334.000 62.000 C 332.900 62.000,332.000 61.550,332.000 61.000 C 332.000 60.450,330.875 60.000,329.500 60.000 C 328.125 60.000,327.000 59.550,327.000 59.000 C 327.000 58.450,325.650 58.000,324.000 58.000 C 322.350 58.000,321.000 57.550,321.000 57.000 C 321.000 56.450,318.750 56.000,316.000 56.000 C 313.250 56.000,311.000 55.550,311.000 55.000 C 311.000 54.378,305.333 54.000,296.000 54.000 C 286.667 54.000,281.000 54.378,281.000 55.000 M33.000 59.000 C 33.000 60.650,33.450 62.000,34.000 62.000 C 34.550 62.000,35.000 63.548,35.000 65.441 C 35.000 67.334,35.450 69.160,36.000 69.500 C 36.550 69.840,37.000 71.216,37.000 72.559 C 37.000 73.902,37.450 75.000,38.000 75.000 C 38.550 75.000,39.000 76.800,39.000 79.000 C 39.000 81.200,39.450 83.000,40.000 83.000 C 40.550 83.000,41.000 84.350,41.000 86.000 C 41.000 87.650,41.450 89.000,42.000 89.000 C 42.550 89.000,43.000 90.575,43.000 92.500 C 43.000 94.425,43.450 96.000,44.000 96.000 C 44.550 96.000,45.000 97.350,45.000 99.000 C 45.000 100.650,45.450 102.000,46.000 102.000 C 46.550 102.000,47.000 103.763,47.000 105.917 C 47.000 108.071,47.446 109.983,47.990 110.167 C 48.535 110.350,49.274 113.313,49.633 116.750 C 49.991 120.188,50.671 123.000,51.142 123.000 C 51.614 123.000,52.000 124.350,52.000 126.000 C 52.000 127.650,52.450 129.000,53.000 129.000 C 53.550 129.000,54.000 130.575,54.000 132.500 C 54.000 134.425,54.450 136.000,55.000 136.000 C 55.550 136.000,56.000 137.350,56.000 139.000 C 56.000 140.650,56.450 142.000,57.000 142.000 C 57.550 142.000,58.000 143.800,58.000 146.000 C 58.000 148.200,58.450 150.000,59.000 150.000 C 59.550 150.000,60.000 151.125,60.000 152.500 C 60.000 153.875,60.450 155.000,61.000 155.000 C 61.550 155.000,62.000 156.800,62.000 159.000 C 62.000 161.200,62.450 163.000,63.000 163.000 C 63.550 163.000,64.000 164.350,64.000 166.000 C 64.000 167.650,64.450 169.000,65.000 169.000 C 65.550 169.000,66.000 170.575,66.000 172.500 C 66.000 174.425,66.450 176.000,67.000 176.000 C 67.550 176.000,68.000 177.350,68.000 179.000 C 68.000 180.650,68.386 182.000,68.858 182.000 C 69.329 182.000,70.009 184.813,70.367 188.250 C 70.726 191.688,71.465 194.650,72.010 194.833 C 72.554 195.017,73.000 196.929,73.000 199.083 C 73.000 201.238,73.450 203.000,74.000 203.000 C 74.550 203.000,75.000 204.350,75.000 206.000 C 75.000 207.650,75.450 209.000,76.000 209.000 C 76.550 209.000,77.000 210.575,77.000 212.500 C 77.000 214.425,77.450 216.000,78.000 216.000 C 78.550 216.000,79.000 216.900,79.000 218.000 C 79.000 219.917,79.667 220.000,95.000 220.000 C 110.333 220.000,111.000 219.917,111.000 218.000 C 111.000 216.900,111.450 216.000,112.000 216.000 C 112.550 216.000,113.000 214.425,113.000 212.500 C 113.000 210.575,113.450 209.000,114.000 209.000 C 114.550 209.000,115.000 207.650,115.000 206.000 C 115.000 204.350,115.450 203.000,116.000 203.000 C 116.550 203.000,117.000 201.200,117.000 199.000 C 117.000 196.800,117.450 195.000,118.000 195.000 C 118.550 195.000,119.000 193.875,119.000 192.500 C 119.000 191.125,119.450 190.000,120.000 190.000 C 120.550 190.000,121.000 188.200,121.000 186.000 C 121.000 183.800,121.450 182.000,122.000 182.000 C 122.550 182.000,123.000 180.650,123.000 179.000 C 123.000 177.350,123.450 176.000,124.000 176.000 C 124.550 176.000,125.000 174.425,125.000 172.500 C 125.000 170.575,125.450 169.000,126.000 169.000 C 126.550 169.000,127.000 167.650,127.000 166.000 C 127.000 164.350,127.386 163.000,127.858 163.000 C 128.329 163.000,129.009 160.188,129.367 156.750 C 129.726 153.313,130.465 150.350,131.010 150.167 C 131.554 149.983,132.000 148.071,132.000 145.917 C 132.000 143.762,132.450 142.000,133.000 142.000 C 133.550 142.000,134.000 140.200,134.000 138.000 C 134.000 135.800,134.450 134.000,135.000 134.000 C 135.550 134.000,136.000 133.100,136.000 132.000 C 136.000 130.900,136.450 130.000,137.000 130.000 C 137.550 130.000,138.000 131.800,138.000 134.000 C 138.000 136.200,138.450 138.000,139.000 138.000 C 139.550 138.000,140.000 139.350,140.000 141.000 C 140.000 142.650,140.450 144.000,141.000 144.000 C 141.550 144.000,142.000 145.575,142.000 147.500 C 142.000 149.425,142.450 151.000,143.000 151.000 C 143.550 151.000,144.000 152.350,144.000 154.000 C 144.000 155.650,144.450 157.000,145.000 157.000 C 145.550 157.000,146.000 158.800,146.000 161.000 C 146.000 163.200,146.450 165.000,147.000 165.000 C 147.550 165.000,148.000 166.575,148.000 168.500 C 148.000 170.425,148.423 172.000,148.939 172.000 C 149.456 172.000,150.189 175.150,150.569 179.000 C 150.948 182.850,151.650 186.000,152.129 186.000 C 152.608 186.000,153.000 187.125,153.000 188.500 C 153.000 189.875,153.450 191.000,154.000 191.000 C 154.550 191.000,155.000 192.800,155.000 195.000 C 155.000 197.200,155.450 199.000,156.000 199.000 C 156.550 199.000,157.000 200.350,157.000 202.000 C 157.000 203.650,157.450 205.000,158.000 205.000 C 158.550 205.000,159.000 206.575,159.000 208.500 C 159.000 210.425,159.450 212.000,160.000 212.000 C 160.550 212.000,161.000 213.800,161.000 216.000 L 161.000 220.000 178.000 220.000 L 195.000 220.000 195.000 217.000 C 195.000 215.350,195.450 214.000,196.000 214.000 C 196.550 214.000,197.000 212.425,197.000 210.500 C 197.000 208.575,197.450 207.000,198.000 207.000 C 198.550 207.000,199.000 205.650,199.000 204.000 C 199.000 202.350,199.450 201.000,200.000 201.000 C 200.550 201.000,201.000 199.200,201.000 197.000 C 201.000 194.800,201.450 193.000,202.000 193.000 C 202.550 193.000,203.000 191.875,203.000 190.500 C 203.000 189.125,203.450 188.000,204.000 188.000 C 204.550 188.000,205.000 186.200,205.000 184.000 C 205.000 181.800,205.450 180.000,206.000 180.000 C 206.550 180.000,207.000 178.650,207.000 177.000 C 207.000 175.350,207.398 174.000,207.884 174.000 C 208.369 174.000,209.080 171.075,209.463 167.500 C 209.846 163.925,210.573 161.000,211.080 161.000 C 211.586 161.000,212.000 159.200,212.000 157.000 C 212.000 154.800,212.450 153.000,213.000 153.000 C 213.550 153.000,214.000 151.875,214.000 150.500 C 214.000 149.125,214.450 148.000,215.000 148.000 C 215.550 148.000,216.000 146.200,216.000 144.000 C 216.000 141.800,216.450 140.000,217.000 140.000 C 217.550 140.000,218.000 138.650,218.000 137.000 C 218.000 135.350,218.450 134.000,219.000 134.000 C 219.550 134.000,220.000 132.425,220.000 130.500 C 220.000 128.575,220.450 127.000,221.000 127.000 C 221.550 127.000,222.000 125.650,222.000 124.000 C 222.000 122.350,222.450 121.000,223.000 121.000 C 223.550 121.000,224.000 119.200,224.000 117.000 C 224.000 114.800,224.450 113.000,225.000 113.000 C 225.550 113.000,226.000 111.875,226.000 110.500 C 226.000 109.125,226.450 108.000,227.000 108.000 C 227.550 108.000,228.000 106.200,228.000 104.000 C 228.000 101.800,228.414 100.000,228.920 100.000 C 229.427 100.000,230.154 97.075,230.537 93.500 C 230.920 89.925,231.631 87.000,232.116 87.000 C 232.602 87.000,233.000 85.650,233.000 84.000 C 233.000 82.350,233.450 81.000,234.000 81.000 C 234.550 81.000,235.000 79.200,235.000 77.000 C 235.000 74.800,235.450 73.000,236.000 73.000 C 236.550 73.000,237.000 71.875,237.000 70.500 C 237.000 69.125,237.450 68.000,238.000 68.000 C 238.556 68.000,239.000 65.333,239.000 62.000 L 239.000 56.000 220.000 56.000 L 201.000 56.000 201.000 59.000 C 201.000 60.650,200.550 62.000,200.000 62.000 C 199.450 62.000,199.000 63.800,199.000 66.000 C 199.000 68.200,198.550 70.000,198.000 70.000 C 197.450 70.000,197.000 71.575,197.000 73.500 C 197.000 75.425,196.550 77.000,196.000 77.000 C 195.450 77.000,195.000 78.350,195.000 80.000 C 195.000 81.650,194.550 83.000,194.000 83.000 C 193.450 83.000,193.000 84.548,193.000 86.441 C 193.000 88.334,192.588 90.137,192.085 90.448 C 191.581 90.759,190.853 94.385,190.467 98.507 C 190.081 102.628,189.368 106.000,188.883 106.000 C 188.397 106.000,188.000 107.575,188.000 109.500 C 188.000 111.425,187.550 113.000,187.000 113.000 C 186.450 113.000,186.000 114.800,186.000 117.000 C 186.000 119.200,185.550 121.000,185.000 121.000 C 184.450 121.000,184.000 122.800,184.000 125.000 C 184.000 127.200,183.550 129.000,183.000 129.000 C 182.450 129.000,182.000 130.575,182.000 132.500 C 182.000 134.425,181.550 136.000,181.000 136.000 C 180.450 136.000,180.000 137.607,180.000 139.571 C 180.000 142.707,178.244 146.000,176.571 146.000 C 176.257 146.000,176.000 144.200,176.000 142.000 C 176.000 139.800,175.550 138.000,175.000 138.000 C 174.450 138.000,174.000 136.650,174.000 135.000 C 174.000 133.350,173.550 132.000,173.000 132.000 C 172.450 132.000,172.000 130.425,172.000 128.500 C 172.000 126.575,171.594 125.000,171.098 125.000 C 170.602 125.000,169.883 122.300,169.500 119.000 C 169.117 115.700,168.398 113.000,167.902 113.000 C 167.406 113.000,167.000 111.425,167.000 109.500 C 167.000 107.575,166.550 106.000,166.000 106.000 C 165.450 106.000,165.000 104.650,165.000 103.000 C 165.000 101.350,164.550 100.000,164.000 100.000 C 163.450 100.000,163.000 98.200,163.000 96.000 C 163.000 93.800,162.550 92.000,162.000 92.000 C 161.450 92.000,161.000 90.875,161.000 89.500 C 161.000 88.125,160.550 87.000,160.000 87.000 C 159.450 87.000,159.000 85.200,159.000 83.000 C 159.000 80.800,158.550 79.000,158.000 79.000 C 157.450 79.000,157.000 77.650,157.000 76.000 C 157.000 74.350,156.550 73.000,156.000 73.000 C 155.450 73.000,155.000 71.875,155.000 70.500 C 155.000 69.125,154.550 68.000,154.000 68.000 C 153.450 68.000,153.000 66.200,153.000 64.000 C 153.000 61.800,152.550 60.000,152.000 60.000 C 151.450 60.000,151.000 59.100,151.000 58.000 C 151.000 56.098,150.333 56.000,137.429 56.000 C 122.187 56.000,121.000 56.465,121.000 62.429 C 121.000 64.393,120.550 66.000,120.000 66.000 C 119.450 66.000,119.000 67.125,119.000 68.500 C 119.000 69.875,118.550 71.000,118.000 71.000 C 117.450 71.000,117.000 72.350,117.000 74.000 C 117.000 75.650,116.550 77.000,116.000 77.000 C 115.450 77.000,115.000 78.800,115.000 81.000 C 115.000 83.200,114.550 85.000,114.000 85.000 C 113.450 85.000,113.000 86.098,113.000 87.441 C 113.000 88.784,112.603 90.127,112.118 90.427 C 111.633 90.727,110.922 93.903,110.538 97.486 C 110.155 101.069,109.427 104.000,108.920 104.000 C 108.414 104.000,108.000 105.350,108.000 107.000 C 108.000 108.650,107.550 110.000,107.000 110.000 C 106.450 110.000,106.000 111.575,106.000 113.500 C 106.000 115.425,105.550 117.000,105.000 117.000 C 104.450 117.000,104.000 118.350,104.000 120.000 C 104.000 121.650,103.550 123.000,103.000 123.000 C 102.450 123.000,102.000 124.575,102.000 126.500 C 102.000 128.425,101.550 130.000,101.000 130.000 C 100.450 130.000,100.000 131.350,100.000 133.000 C 100.000 134.650,99.550 136.000,99.000 136.000 C 98.450 136.000,98.000 137.607,98.000 139.571 C 98.000 142.707,96.244 146.000,94.571 146.000 C 94.257 146.000,94.000 144.200,94.000 142.000 C 94.000 139.800,93.550 138.000,93.000 138.000 C 92.450 138.000,92.000 136.200,92.000 134.000 C 92.000 131.800,91.588 130.000,91.085 130.000 C 90.582 130.000,89.854 126.625,89.468 122.500 C 89.081 118.375,88.368 115.000,87.883 115.000 C 87.397 115.000,87.000 113.425,87.000 111.500 C 87.000 109.575,86.550 108.000,86.000 108.000 C 85.450 108.000,85.000 106.650,85.000 105.000 C 85.000 103.350,84.550 102.000,84.000 102.000 C 83.450 102.000,83.000 100.200,83.000 98.000 C 83.000 95.800,82.550 94.000,82.000 94.000 C 81.450 94.000,81.000 92.425,81.000 90.500 C 81.000 88.575,80.550 87.000,80.000 87.000 C 79.450 87.000,79.000 85.200,79.000 83.000 C 79.000 80.800,78.550 79.000,78.000 79.000 C 77.450 79.000,77.000 77.200,77.000 75.000 C 77.000 72.800,76.550 71.000,76.000 71.000 C 75.450 71.000,75.000 69.425,75.000 67.500 C 75.000 65.575,74.550 64.000,74.000 64.000 C 73.450 64.000,73.000 62.843,73.000 61.429 C 73.000 56.330,71.699 56.000,51.571 56.000 L 33.000 56.000 33.000 59.000 M41.000 335.506 L 41.000 348.013 115.250 347.756 L 189.500 347.500 189.781 335.250 L 190.062 323.000 115.531 323.000 L 41.000 323.000 41.000 335.506 " stroke="none" fill="#000000" fill-rule="evenodd"></path></g></svg>