<svg width="100%" height="100%" viewBox="0 0 400 400" version="1.1" xmlns="http://www.w3.org/2000/svg" style="fill-rule:evenodd;clip-rule:evenodd;stroke-linejoin:round;stroke-miterlimit:2;">
<g>
<path d="M2.586,164.132C2.704,164.64 3.077,166.259 3.414,167.729C4.095,170.695 4.734,173.377 5.57,176.773C6.105,178.944 6.481,180.536 8.831,190.545C9.415,193.032 10.164,196.008 10.496,197.158C10.828,198.309 11.1,199.617 11.1,200.066C11.1,200.514 11.357,201.7 11.67,202.702C11.984,203.703 12.844,207.112 13.582,210.277C14.319,213.443 15.238,217.235 15.622,218.705L16.322,221.377L22.415,221.491C29.048,221.616 29.135,221.589 29.6,219.252C29.773,218.386 30.601,215.087 31.441,211.922C32.282,208.756 33.114,205.612 33.292,204.933C33.469,204.255 34.021,202.22 34.52,200.411C35.496,196.867 37.638,188.726 38.034,187.05C38.292,185.963 39.083,183.069 39.917,180.164C40.348,178.665 41.095,177.77 41.117,178.726C41.124,179.013 42.711,185.155 44.119,190.339C44.456,191.583 45.213,194.404 45.799,196.608C46.386,198.813 47.345,202.42 47.932,204.625C48.519,206.829 49.253,209.558 49.565,210.689C49.876,211.819 50.639,214.733 51.259,217.163L52.388,221.583L64.835,221.583L65.76,217.575C66.269,215.37 66.919,212.734 67.204,211.716C67.489,210.699 68.034,208.479 68.416,206.783C68.797,205.087 69.368,202.682 69.683,201.439C69.999,200.195 70.557,197.883 70.922,196.3C71.561,193.536 72.071,191.45 73.36,186.331C73.687,185.031 74.526,181.562 75.223,178.623C76.663,172.553 77.491,169.27 78.341,166.254C79.263,162.987 79.59,163.171 73.099,163.298L67.266,163.412L66.994,164.645C66.844,165.324 66.399,167.359 66.004,169.168C65.61,170.976 65.044,173.566 64.746,174.923C64.448,176.28 63.911,178.731 63.551,180.37C63.192,182.009 62.604,184.692 62.245,186.331C61.886,187.97 61.34,190.421 61.033,191.778C60.725,193.135 60.172,195.725 59.802,197.533C59.433,199.342 58.938,201.562 58.702,202.467L58.273,204.111L57.473,201.233C56.7,198.449 56.042,195.892 54.882,191.161C54.577,189.918 54.022,187.698 53.649,186.228C53.275,184.758 52.706,182.492 52.384,181.192C50.182,172.301 49.355,169.13 48.668,166.936C48.355,165.935 48.099,164.686 48.099,164.161L48.099,163.207L33.776,163.207L33.524,164.543C33.386,165.277 33.01,166.804 32.689,167.934C32.129,169.906 31.763,171.283 30.228,177.184C29.846,178.654 29.251,180.874 28.906,182.117C28.151,184.836 27.419,187.571 26.486,191.161C23.179,203.888 22.96,204.409 22.403,200.923C22.143,199.296 21.778,197.608 20.339,191.367C20.026,190.01 19.476,187.513 19.116,185.817C18.757,184.121 18.211,181.624 17.903,180.267C17.595,178.911 17.03,176.321 16.646,174.512C16.263,172.703 15.705,170.206 15.406,168.962C15.106,167.718 14.739,165.915 14.589,164.954L14.316,163.207L2.371,163.207L2.586,164.132M84.275,192.395L84.275,221.583L95.375,221.583L95.39,209.147C95.412,190.14 96.726,186.96 104.588,186.891C111.302,186.832 111.581,187.596 111.744,206.475L111.874,221.583L122.919,221.583L122.919,207.671C122.919,185.95 122.15,183.067 115.519,179.904C109.698,177.128 102.332,178.32 97.582,182.806C96.547,183.784 95.627,184.584 95.538,184.584C95.448,184.584 95.375,179.774 95.375,173.895L95.375,163.207L84.275,163.207L84.275,192.395M266.393,163.947C266.393,164.354 266.245,164.862 266.064,165.077C265.883,165.292 265.313,166.578 264.797,167.934C263.342,171.76 262.624,173.617 262.254,174.512C261.767,175.692 260.453,179.049 259.36,181.912C258.841,183.268 258.269,184.554 258.088,184.769C257.908,184.984 257.76,185.548 257.76,186.023C257.76,186.497 257.611,187.062 257.431,187.276C257.25,187.491 256.711,188.684 256.233,189.928C255.756,191.172 254.498,194.409 253.439,197.122C252.379,199.836 251.123,203.073 250.648,204.317C250.173,205.56 249.636,206.753 249.455,206.968C249.274,207.183 249.126,207.747 249.126,208.222C249.126,208.697 248.978,209.261 248.797,209.476C248.617,209.691 248.042,210.976 247.521,212.333C247,213.69 246.038,216.128 245.383,217.751C244.729,219.375 244.193,220.901 244.193,221.143C244.193,221.992 256.096,221.719 256.378,220.863C256.508,220.468 256.872,219.561 257.187,218.848C257.502,218.136 257.76,217.356 257.76,217.115C257.76,216.874 258.018,216.07 258.335,215.327C258.863,214.086 259.255,213.076 260.651,209.346L261.153,208.004L284.595,208.222L286.025,211.922C286.812,213.957 287.711,216.205 288.024,216.917C288.336,217.63 288.592,218.342 288.592,218.499C288.592,218.657 288.891,219.416 289.255,220.185L289.919,221.583L296.039,221.583C299.701,221.583 302.158,221.423 302.158,221.186C302.158,220.967 301.855,220.088 301.485,219.233C300.702,217.426 300.459,216.83 299.26,213.772C298.773,212.528 298.218,211.141 298.027,210.689C297.836,210.236 297.281,208.849 296.794,207.605C296.306,206.362 295.751,204.974 295.56,204.522C295.37,204.07 294.815,202.682 294.327,201.439C293.839,200.195 293.284,198.808 293.094,198.356C292.903,197.903 292.348,196.516 291.86,195.272C291.373,194.029 290.818,192.641 290.627,192.189C290.436,191.737 289.881,190.349 289.394,189.106C288.906,187.862 288.351,186.475 288.16,186.023C287.97,185.57 287.415,184.183 286.927,182.939C286.44,181.696 285.885,180.308 285.694,179.856C285.503,179.404 284.948,178.016 284.461,176.773C283.973,175.529 283.418,174.142 283.227,173.69C283.037,173.237 282.479,171.85 281.987,170.606C281.496,169.363 280.866,167.79 280.588,167.112C280.31,166.434 279.847,165.277 279.56,164.543L279.037,163.207L272.715,163.207C266.901,163.207 266.393,163.266 266.393,163.947M183.967,167.879L179.034,170.838L178.917,175.039L178.8,179.239L173.895,179.239L173.895,188.284L178.767,188.284L178.927,201.336C179.101,215.593 179.372,217.492 181.542,219.662C184.162,222.282 190.081,223.206 195.622,221.86C198.961,221.048 198.778,221.418 198.177,216.704L197.66,212.643L196.158,212.992C193.483,213.614 192.019,213.434 190.937,212.352L189.928,211.343L189.928,188.284L197.739,188.284L197.739,179.239L189.928,179.239L189.928,172.045C189.928,163.564 190.497,163.962 183.967,167.879M273.978,179.856C275.863,184.773 277.758,189.695 279.526,194.656C279.97,195.901 281.927,197.758 280.781,198.417C278.456,199.754 275.419,198.561 272.737,198.561L264.693,198.561L264.95,197.636C266.437,192.268 268.804,187.016 270.728,181.795C271.061,180.891 272.392,176.863 272.742,176.831C273.827,176.732 273.589,178.839 273.978,179.856M142.421,179.217C137.725,180.604 134.7,183.613 132.689,188.02C132.404,188.645 131.803,189.376 132.101,189.995C132.376,190.566 133.298,190.425 133.916,190.565C135.378,190.896 136.858,191.15 138.335,191.407C139.329,191.58 140.35,192.103 141.329,191.855C142.751,191.496 143.037,189.433 144.151,188.48C145.947,186.943 148.642,186.364 150.922,186.599C153.809,186.898 156.805,188.627 156.822,191.797L156.835,194.166L154.573,194.869C148.104,196.883 138.513,196.676 133.669,202.134C128.43,208.037 130.146,216.904 136.99,220.537C143.174,223.82 150.847,222.548 156.223,218.29L157.858,216.995L158.318,218.158C158.571,218.798 158.909,219.784 159.069,220.349L159.36,221.377L164.675,221.377C166.117,221.377 167.567,221.437 168.999,221.266C169.319,221.227 169.841,221.083 169.825,220.761C169.702,218.338 168.244,216.114 168.088,213.693C167.821,209.547 167.862,205.386 167.754,201.233C167.697,199.056 167.76,188.995 166.839,185.495C164.958,178.348 152.881,178.015 147.277,178.422C145.641,178.54 143.994,178.752 142.421,179.217M212.744,179.21C204.06,181.911 197.842,193.338 206.691,200.087C211.172,203.504 222.27,205.441 224.872,206.26C226.795,206.865 229.758,207.552 229.31,210.223C228.239,216.601 218.187,215.323 214.546,212.197C213.245,211.081 212.936,208.736 211.307,208.203C210.255,207.858 209.112,208.483 208.016,208.633C206.576,208.83 205.13,208.986 203.7,209.242C202.896,209.386 201.649,209.085 201.322,209.833C200.925,210.742 201.684,211.829 202.198,212.678C203.285,214.474 204.488,216.26 206.055,217.656C212.398,223.305 222.762,223.984 230.407,220.993C238.179,217.953 245.29,207.09 236.826,200.288C233.223,197.393 228.514,196.411 224.255,195.114C221.134,194.163 217.944,193.428 214.873,192.326C213.765,191.928 212.774,191.039 212.847,189.766C213.031,186.548 217.563,186.109 219.771,186.176C221.907,186.24 225.153,186.888 226.958,188.531C228.076,189.549 227.977,191.016 229.914,190.975C231.568,190.94 233.169,190.384 234.797,190.09C236.167,189.842 238.401,190.297 238.821,188.969C239.024,188.329 238.268,187.745 237.999,187.129C236.958,184.744 237.119,184.693 235.093,182.899C230.865,179.156 226.794,178.601 220.977,178.527C218.224,178.492 215.374,178.393 212.744,179.21M326.786,179C323.923,180.091 322.487,181.009 320.452,183.05L318.397,185.111L318.155,179.239L307.914,179.239L307.914,237.616L318.602,237.616L318.602,227.133C318.602,216.896 318.729,215.932 319.888,217.329C322.297,220.232 327.283,222.485 331.338,222.503C354.547,222.604 355.164,179.199 331.963,178.542C329.583,178.474 327.736,178.638 326.786,179M376.118,179.019C373.297,180.057 371.828,180.983 369.681,183.072L367.523,185.172L367.523,179.239L357.246,179.239L357.246,237.616L367.934,237.616L367.934,227.133C367.934,221.367 368.043,216.65 368.176,216.65C368.309,216.65 369.373,217.487 370.54,218.51C382.361,228.873 398.338,218.472 398.342,200.411C398.345,185.689 387.183,174.945 376.118,179.019M332.082,187.833C338.856,191.306 339.217,202.276 336.377,208.297C334.532,212.207 330.466,215.045 326.042,213.595C318.365,211.077 317.153,199.537 319.827,193.199C321.829,188.455 327.148,185.302 332.082,187.833M382.007,188.287C388.379,192.288 388.48,203.273 385.192,209.177C382.766,213.534 377.144,215.309 372.88,212.399C367.015,208.395 366.755,198.08 369.585,192.282C371.95,187.438 377.26,185.306 382.007,188.287M156.957,205.318C156.8,208.842 156.664,210.722 153.808,212.89C150.573,215.346 144.071,215.861 142.242,211.312C141.968,210.63 141.898,209.878 141.829,209.146C141.518,205.866 144.615,204.582 147.22,203.704C149.093,203.072 151.021,202.619 152.929,202.105C154.278,201.742 155.899,200.202 156.991,201.073C158.097,201.955 157.02,203.904 156.957,205.318"/>
</g>
</svg>
