<svg id="svg" xmlns="http://www.w3.org/2000/svg" xmlns:xlink="http://www.w3.org/1999/xlink" width="400" height="400" viewBox="0, 0, 400,400"><g id="svgg"><path id="path0" d="M191.437 4.331 C 147.934 7.775,112.295 21.927,80.326 48.454 C 9.364 107.336,-9.374 211.125,36.634 290.476 C 39.236 294.966,39.790 291.899,32.433 313.761 C 10.575 378.719,4.504 396.893,4.621 397.010 C 4.694 397.082,11.528 394.962,19.808 392.299 C 28.088 389.635,38.165 386.405,42.202 385.122 C 46.239 383.839,55.688 380.810,63.201 378.391 C 70.714 375.972,80.438 372.852,84.811 371.459 C 89.185 370.065,96.691 367.661,101.492 366.117 L 110.222 363.308 115.355 365.917 C 230.025 424.174,367.568 356.588,391.194 230.377 C 410.835 125.453,340.018 24.456,234.251 6.549 C 223.724 4.767,200.879 3.583,191.437 4.331 M222.018 37.274 C 288.563 45.462,343.647 95.040,358.191 159.837 C 383.911 274.418,282.869 376.110,168.169 351.081 C 151.069 347.350,129.994 338.552,117.086 329.758 L 115.314 328.551 99.757 333.540 C 91.200 336.285,77.503 340.682,69.317 343.312 C 61.131 345.942,54.389 347.984,54.334 347.849 C 54.280 347.715,58.004 336.412,62.612 322.732 C 67.220 309.052,71.636 295.873,72.426 293.446 L 73.863 289.033 71.845 286.107 C 31.951 228.246,34.670 150.754,78.511 96.100 C 113.063 53.027,167.774 30.600,222.018 37.274 M133.502 102.653 C 130.109 103.871,127.477 105.836,123.046 110.460 C 102.472 131.930,102.034 160.839,121.791 193.272 C 144.026 229.775,167.816 254.904,194.292 269.855 C 208.356 277.797,236.956 289.020,247.880 290.884 C 266.707 294.095,292.903 281.936,298.449 267.410 C 301.177 260.269,302.900 251.232,302.333 247.042 C 301.894 243.797,301.778 243.723,275.025 229.576 C 254.616 218.784,252.890 218.457,248.312 224.521 C 243.421 230.998,231.925 243.586,230.115 244.445 C 227.509 245.682,225.655 245.172,216.991 240.835 C 192.900 228.777,176.445 213.566,161.748 189.767 C 154.932 178.730,154.955 178.285,162.784 170.081 C 172.425 159.976,175.323 154.474,173.548 149.643 C 173.260 148.858,171.812 145.005,170.331 141.081 C 168.850 137.156,166.329 130.367,164.729 125.994 C 155.627 101.117,156.982 102.616,143.179 102.160 C 136.442 101.937,135.340 101.993,133.502 102.653 " stroke="none" fill="#000000" fill-rule="evenodd"></path></g></svg>