<svg xmlns="http://www.w3.org/2000/svg" width="400" height="400" viewBox="0, 0, 400,400"><g><path d="M114.210 150.480 C 111.908 153.703,105.918 156.352,99.450 157.008 C 96.135 157.344,95.838 157.541,97.545 158.273 C 102.214 160.274,102.041 158.863,101.941 194.157 L 101.859 223.240 101.094 224.896 C 100.307 226.601,98.351 228.722,97.242 229.074 C 96.882 229.188,96.683 229.435,96.735 229.704 C 96.878 230.446,121.116 230.514,121.116 229.772 C 121.116 229.481,120.742 229.028,120.252 228.723 C 118.794 227.816,117.195 225.975,116.415 224.303 L 115.671 222.709 115.671 207.725 L 115.671 192.742 117.928 191.223 C 126.575 185.407,131.947 185.152,134.057 190.456 C 134.878 192.520,134.766 221.858,133.929 223.925 C 133.197 225.734,131.948 227.235,130.171 228.440 C 127.802 230.048,127.562 230.013,141.169 230.013 C 154.275 230.013,154.694 229.970,152.580 228.832 C 148.218 226.482,147.948 225.036,147.937 203.984 C 147.927 184.543,147.931 184.572,144.764 181.384 C 139.437 176.023,129.610 178.437,118.327 187.878 L 115.671 190.100 115.603 169.818 C 115.530 148.034,115.569 148.577,114.210 150.480 M310.960 151.242 C 307.483 154.513,302.297 156.507,295.684 157.115 C 293.443 157.321,293.231 157.684,294.943 158.388 C 297.192 159.313,298.794 161.713,299.318 164.942 C 299.503 166.082,299.598 177.588,299.600 198.871 C 299.601 229.366,299.626 231.075,300.066 231.072 C 300.327 231.070,301.912 229.500,303.678 227.495 L 306.825 223.922 307.860 225.231 C 313.270 232.076,325.419 233.042,335.020 227.390 C 349.188 219.050,353.292 197.175,343.013 184.792 C 335.899 176.221,325.062 176.608,315.073 185.790 L 313.147 187.560 313.147 168.547 C 313.147 158.091,313.058 149.540,312.948 149.547 C 312.839 149.553,311.944 150.316,310.960 151.242 M51.660 153.574 C 50.884 154.787,49.467 155.828,47.667 156.507 L 46.082 157.105 24.617 157.179 C 0.995 157.260,2.241 157.155,4.513 158.879 C 8.419 161.844,9.620 164.513,35.430 227.619 C 37.124 231.762,37.318 231.833,38.553 228.761 C 43.846 215.593,53.785 191.798,53.924 191.959 C 54.022 192.072,57.004 199.216,60.551 207.835 C 64.099 216.454,67.694 225.179,68.541 227.224 C 69.424 229.359,70.248 230.977,70.473 231.024 C 70.891 231.110,89.439 185.078,91.590 178.619 C 95.772 166.057,92.712 155.899,84.074 153.663 C 76.013 151.577,67.919 156.980,61.690 168.605 L 60.367 171.074 56.548 161.898 C 52.557 152.306,52.515 152.236,51.660 153.574 M37.636 160.449 C 39.700 161.443,41.690 163.582,43.207 166.440 C 44.493 168.861,52.058 187.049,52.060 187.725 C 52.062 188.180,43.635 209.240,43.291 209.640 C 43.191 209.757,41.304 205.454,39.098 200.079 C 24.714 165.038,25.924 168.266,26.072 165.326 C 26.327 160.284,32.174 157.818,37.636 160.449 M79.315 166.834 C 87.485 169.891,87.805 180.352,80.313 199.393 C 78.774 203.306,77.272 207.146,76.976 207.926 C 76.331 209.627,76.276 209.586,74.946 206.375 C 74.371 204.987,71.071 197.004,67.613 188.635 L 61.326 173.419 62.147 172.383 C 66.331 167.100,73.679 164.726,79.315 166.834 M384.446 177.684 C 379.994 179.136,374.500 184.671,371.803 190.421 C 370.981 192.173,371.332 192.642,367.687 184.925 C 364.293 177.739,363.921 177.232,363.241 178.861 C 361.842 182.209,357.344 184.684,351.594 185.271 C 349.506 185.484,349.313 185.854,350.942 186.524 C 353.177 187.443,354.698 189.351,357.239 194.422 C 360.355 200.640,375.299 231.632,375.299 231.875 C 375.299 232.009,374.564 233.467,373.666 235.116 C 368.243 245.075,365.214 246.290,360.235 240.506 C 356.327 235.966,351.253 235.814,348.951 240.169 C 345.114 247.427,355.658 253.820,364.368 249.516 C 368.320 247.563,371.487 243.713,376.042 235.325 C 387.193 214.791,395.179 199.543,396.196 196.843 C 400.853 184.483,394.642 174.357,384.446 177.684 M222.671 179.706 C 219.727 182.708,214.074 184.943,208.388 185.354 C 205.606 185.554,205.337 185.861,207.183 186.725 C 211.537 188.765,211.940 190.549,211.947 207.853 C 211.954 224.277,211.490 226.290,207.140 228.735 C 204.915 229.985,205.168 230.013,218.747 230.013 C 227.793 230.013,231.358 229.931,231.289 229.722 C 231.235 229.562,230.542 228.994,229.748 228.461 C 225.597 225.669,225.498 225.169,225.498 206.899 L 225.498 192.075 226.836 190.611 C 229.481 187.717,230.986 187.702,234.945 190.534 C 237.625 192.450,238.867 192.948,240.512 192.762 C 247.279 192.000,248.574 182.606,242.364 179.330 C 237.914 176.982,230.962 180.532,226.589 187.384 L 225.232 189.509 225.232 183.732 C 225.232 176.961,225.284 177.041,222.671 179.706 M179.947 178.646 C 161.939 181.314,151.400 200.133,158.371 217.174 C 165.234 233.952,188.892 236.539,198.691 221.584 C 201.227 217.714,202.197 213.259,199.849 216.267 C 192.127 226.160,176.315 224.051,170.903 212.406 C 170.127 210.738,169.885 210.894,174.502 210.086 C 192.741 206.892,201.328 201.192,201.328 192.279 C 201.328 183.834,190.694 177.054,179.947 178.646 M269.367 178.774 C 252.636 181.357,242.272 200.268,248.597 216.670 C 256.002 235.872,284.106 236.420,291.208 217.500 C 292.201 214.854,291.728 214.794,289.287 217.254 C 280.696 225.915,266.674 223.662,261.548 212.796 C 260.608 210.804,260.621 210.786,263.347 210.374 C 283.104 207.387,293.297 200.260,291.689 190.557 C 290.370 182.594,280.018 177.129,269.367 178.774 M182.821 181.427 C 184.893 182.002,186.636 184.185,187.218 186.932 C 189.110 195.858,182.913 204.449,172.157 207.812 C 169.516 208.638,169.583 208.666,169.231 206.575 C 166.748 191.790,173.714 178.898,182.821 181.427 M273.409 181.469 C 279.070 183.160,279.417 194.016,274.019 200.550 C 271.177 203.990,263.649 208.372,260.381 208.488 C 259.535 208.518,258.919 200.329,259.463 196.289 C 260.892 185.669,266.724 179.471,273.409 181.469 M327.490 185.905 C 336.965 190.732,337.203 217.510,327.844 225.747 C 323.756 229.345,317.941 229.246,315.103 225.529 C 313.169 222.997,313.147 222.773,313.147 205.670 L 313.147 190.413 313.878 189.757 C 318.502 185.605,323.901 184.077,327.490 185.905 M387.143 187.982 C 391.113 190.048,392.132 195.489,389.880 202.592 C 389.041 205.239,383.975 215.740,383.031 216.790 C 382.938 216.894,380.401 211.815,377.393 205.502 C 371.124 192.340,371.449 193.842,374.241 190.959 C 377.508 187.585,383.656 186.166,387.143 187.982 " stroke="none" fill-rule="evenodd"></path></g></svg>