<svg xmlns="http://www.w3.org/2000/svg" width="400" height="400" viewBox="0, 0, 400,400">
<g>
<path d="M214.368 33.568 C 211.008 38.822,204.878 43.326,197.088 46.264 L 190.230 48.851 97.336 49.171 C -4.891 49.523,0.504 49.066,10.337 56.529 C 27.239 69.359,32.435 80.911,144.130 354.008 C 151.462 371.936,152.301 372.242,157.644 358.950 C 180.552 301.963,223.562 198.990,224.165 199.687 C 224.588 200.175,237.495 231.092,252.846 268.391 C 268.198 305.690,283.756 343.448,287.420 352.299 C 291.245 361.536,294.807 368.540,295.784 368.742 C 297.591 369.114,377.861 169.907,387.166 141.954 C 405.264 87.590,392.026 43.630,354.644 33.957 C 319.757 24.929,284.728 48.311,257.773 98.618 L 252.047 109.305 235.522 69.595 C 218.248 28.084,218.069 27.780,214.368 33.568 M153.679 63.323 C 162.611 67.624,171.220 76.882,177.788 89.249 C 183.353 99.725,216.089 178.437,216.099 181.363 C 216.105 183.331,179.638 274.471,178.151 276.203 C 177.719 276.706,169.552 258.085,160.003 234.823 C 97.756 83.181,102.993 97.152,103.635 84.426 C 104.737 62.608,130.040 51.938,153.679 63.323 M334.046 90.955 C 369.401 104.183,370.790 149.452,338.367 231.854 C 331.704 248.788,325.204 265.407,323.923 268.785 C 321.132 276.145,320.897 275.965,315.139 262.069 C 312.650 256.063,298.371 221.518,283.406 185.301 L 256.199 119.452 259.751 114.967 C 277.857 92.107,309.656 81.829,334.046 90.955 " stroke="none" fill-rule="evenodd"></path>
</g>
</svg>