<svg width="100%" height="100%" viewBox="0 0 400 400" version="1.1" xmlns="http://www.w3.org/2000/svg" style="fill-rule:evenodd;clip-rule:evenodd;stroke-linejoin:round;stroke-miterlimit:2;">
    <g>
        <path d="M169,43.129C169.876,43.41 167.168,43.303 166.25,43.371C162.081,43.68 157.819,43.345 153.74,44.261C152.967,44.435 156.242,45.342 155.575,45.769C152.259,47.889 149.098,44.854 145.789,45.715C145.027,45.913 145.377,47.485 144.649,47.783C142.697,48.584 138.561,47.173 136.608,47.672C135.258,48.018 134.345,49.419 133,49.786C130.519,50.464 127.822,50.06 125.344,50.75C91.502,60.169 60.395,75.962 31.899,96.394C25.836,100.741 19.969,105.368 14.267,110.179C10.718,113.173 7.578,116.62 4.178,119.781C3.547,120.368 -1.083,123.503 0,125.39C2.75,130.184 6.823,134.106 10.606,138.135C14.778,142.581 19.43,146.552 23.827,150.776C24.935,151.841 27.176,154.665 29.182,154.407C31.591,154.098 33.475,150.73 35,149.395C41.985,143.28 48.837,136.979 56.266,131.412C63.358,126.097 70.889,121.378 78.483,116.808C101.275,103.093 126.571,95.08 152.046,87.926C152.909,87.684 153.783,88.604 154.674,88.5C161.156,87.741 167.592,86.596 174,85.354C177.063,84.761 179.942,83.126 183.059,83C185.784,82.89 188.37,84.274 191.07,84.663C191.485,84.723 189.586,84.068 190,84C196.513,82.932 203.487,82.932 210,84C210.414,84.068 208.515,84.723 208.93,84.663C211.63,84.274 214.214,82.965 216.941,83C218.734,83.023 220.24,84.487 222,84.829C229.702,86.325 237.575,86.872 245.25,88.5C292.084,98.435 332.983,118.008 367.5,151.772L371.5,155.685L385.75,141.633C390.171,137.274 397.499,131.429 400,125.385C400.869,123.286 396.681,120.578 395.821,119.778C392.419,116.617 389.298,113.146 385.728,110.175C378.171,103.885 370.395,97.854 362.477,92.025C350.639,83.31 349.374,83.872 336.589,76.745C320.121,67.565 319.799,65.814 302.013,59.229C284.982,52.924 284.539,55.013 267,49.786C265.664,49.388 264.742,48.018 263.392,47.672C261.439,47.173 257.303,48.584 255.351,47.783C254.623,47.485 254.973,45.913 254.211,45.715C250.902,44.854 247.741,47.889 244.425,45.769C243.758,45.342 247,44.545 246.261,44.261C243.994,43.39 241.426,43.784 239,43.683C226.003,43.14 213,42.777 200,42.33C192.311,42.066 184.624,41.707 176.932,41.548C174.034,41.488 171.129,41.487 168.237,41.675C167.816,41.703 166.885,41.817 167.081,42.19C167.412,42.821 168.322,42.912 169,43.129M184.75,120.664C182.672,120.859 181.013,122.748 178.941,123C177.579,123.166 175.007,119.876 175.223,121.231C175.336,121.945 177.31,122.488 176.678,122.838C174.554,124.01 168.998,122.5 166.894,122.668C165.222,122.801 166.422,124.577 164.645,124.783C157.767,125.577 153.485,125.886 146.788,126.909C143.923,127.347 146.96,128.5 146.838,128.858C146.697,129.269 146.004,128.519 145.572,128.557C143.162,128.77 140.663,128.78 138.389,129.607C134.675,130.955 131.562,133.692 127.834,135C126.935,135.315 125.929,133.87 125.069,134.28C101.409,145.554 77.462,158.577 58.55,177.134L54.1,181.5L68.787,196.25C73.536,201.019 75.532,205.917 82.012,208.975C88.562,212.065 96.041,202.487 99.748,199.756C108.14,193.575 117.039,188.1 125.392,181.866C125.809,181.555 125.286,180.573 125.755,180.349C148.42,169.503 174.784,162.158 200,161.966C209.469,161.894 218.971,163.955 228.121,166.069C250.165,171.163 256.219,171.94 276.638,181.915C285.291,186.142 291.747,192.493 299.604,197.865C301.194,198.952 303.278,199.291 304.699,200.592C305.717,201.523 311.928,212.949 315.696,211C322.978,207.234 325.656,201.83 331.213,196.25L345.9,181.5L341.45,177.134C332.641,168.49 319.921,158.624 309.229,152.436C298.033,145.956 286.636,139.787 274.931,134.28C274.069,133.875 273.065,135.315 272.166,135C268.438,133.692 265.325,130.955 261.611,129.607C259.337,128.78 256.838,128.77 254.428,128.557C253.996,128.519 253.313,129.265 253.163,128.858C253.002,128.424 254.372,128.361 254.197,127.933C253.493,126.203 250.051,127.252 249.294,127.171C246.037,126.826 246.714,125.126 243.426,124.671C240.761,124.302 238.028,125.091 235.355,124.783C233.578,124.577 234.778,122.801 233.106,122.668C229.919,122.414 226.527,124.096 223.322,122.838C222.596,122.553 225.357,121.674 224.787,120.909C223.951,119.785 222.467,122.545 221.142,123C220.604,123.185 220.374,122.01 219.811,121.933C214.017,121.143 208.176,120.646 202.331,120.435C196.474,120.223 190.585,120.116 184.75,120.664M195.25,163.735C198.415,163.985 201.585,163.897 204.75,163.735C205.118,163.716 205.512,163.746 205.845,163.59C206.009,163.512 205.495,163.477 205.314,163.47C203.544,163.401 201.772,163.36 200,163.36C198.228,163.36 196.456,163.401 194.686,163.47C194.505,163.477 193.991,163.512 194.155,163.589C194.488,163.746 194.883,163.706 195.25,163.735M184,200.868C184,201.986 181.846,201.472 180.75,201.691C174.478,202.947 168.031,203.647 162,205.779C144.81,211.857 126.825,220.908 114.033,234.389L110.567,238.042L125.427,252.927C127.978,255.482 130.047,258.526 132.805,260.855C135.052,262.753 137.463,264.755 140.309,265.498C142.509,266.072 146.45,262.55 147.94,261.513C151.564,258.992 155.368,256.723 158.876,254.043C159.893,253.266 160.253,251.648 161.449,251.192C171.535,247.347 189.13,243.343 200,243.343C210.87,243.343 228.465,247.347 238.551,251.192C239.747,251.648 240.107,253.266 241.124,254.043C244.632,256.723 248.436,258.992 252.06,261.513C253.55,262.55 257.491,266.072 259.691,265.498C262.537,264.755 264.948,262.753 267.195,260.855C269.953,258.526 272.022,255.482 274.573,252.927L289.433,238.042L285.967,234.389C279.964,228.063 273.369,223.769 265.755,219.652C249.369,210.793 234.571,202.931 216,200.868C210.693,200.279 205.337,200.26 200,200.086C196.335,199.967 192.666,200.067 189,199.988C187.308,199.952 184,199.176 184,200.868M199.754,291.579C198.067,293.266 189.996,293.328 188.147,293.95C186.921,294.363 186.002,295.403 185,296.22C176.699,302.988 170.262,307.156 167.974,317.757C164.514,333.786 174.177,355.635 191.988,357.518C197.895,358.142 203.235,357.824 209.092,356.951C209.647,356.868 210.152,356.02 210.642,356.293C211.078,356.535 210.108,357.679 210.595,357.787C213.464,358.422 216.619,353.13 218.204,352.185C222.782,349.455 223.574,350.749 226.916,346.722C237.689,333.738 234.666,309.2 221.238,299.05C216.883,295.759 210.391,294.193 205.668,292.491C204.635,292.119 201.047,290.29 199.754,291.579"/>
    </g>
</svg>
