<svg id="svg" version="1.1" width="400" height="400" xmlns="http://www.w3.org/2000/svg" xmlns:xlink="http://www.w3.org/1999/xlink" style="display: block;"><g id="svgg"><path id="path0" d="M310.500 14.502 C 274.200 21.783,229.200 30.764,210.500 34.458 C 191.800 38.152,174.925 41.489,173.000 41.875 L 169.500 42.575 169.244 117.448 L 168.987 192.321 214.244 191.666 C 239.135 191.305,287.063 190.711,320.750 190.344 L 382.000 189.678 382.000 95.339 L 382.000 1.000 379.250 1.131 C 377.738 1.203,346.800 7.220,310.500 14.502 M129.000 50.552 C 110.560 54.302,54.512 65.447,27.000 70.835 L 18.500 72.500 18.242 132.774 L 17.984 193.047 73.742 192.821 C 104.409 192.696,134.563 192.433,140.750 192.235 L 152.000 191.875 152.000 118.938 C 152.000 78.822,151.662 46.041,151.250 46.090 C 150.838 46.140,140.825 48.148,129.000 50.552 M18.000 267.336 C 18.000 324.112,18.109 327.898,19.750 328.402 C 20.712 328.697,25.325 329.602,30.000 330.413 C 34.675 331.224,48.625 333.964,61.000 336.501 C 73.375 339.038,88.225 342.027,94.000 343.144 C 99.775 344.260,114.475 347.160,126.667 349.587 C 138.858 352.014,149.546 354.000,150.417 354.000 C 152.122 354.000,152.950 209.669,151.250 208.683 C 150.838 208.444,120.688 207.924,84.250 207.527 L 18.000 206.807 18.000 267.336 M169.000 283.320 L 169.000 357.962 171.250 358.433 C 172.488 358.692,204.550 365.024,242.500 372.504 C 280.450 379.983,327.025 389.231,346.000 393.054 C 364.975 396.876,380.837 400.003,381.250 400.002 C 381.663 400.001,382.000 357.546,382.000 305.659 L 382.000 211.318 345.250 210.665 C 325.038 210.305,277.113 209.712,238.750 209.345 L 169.000 208.679 169.000 283.320 " stroke="none" fill="#000000" fill-rule="evenodd"></path></g></svg>