<svg id="svg" version="1.1" width="515" height="515" xmlns="http://www.w3.org/2000/svg" xmlns:xlink="http://www.w3.org/1999/xlink" style="display: block;"><g id="svgg"><path id="path0" d="M23.514 0.726 C 22.422 1.007,20.794 2.084,19.897 3.119 C 19.000 4.153,17.746 5.000,17.111 5.000 C 15.607 5.000,5.000 15.607,5.000 17.111 C 5.000 17.746,3.988 19.144,2.750 20.217 L 0.500 22.168 0.500 129.449 L 0.500 236.731 3.750 239.766 C 5.537 241.436,7.000 243.329,7.000 243.973 C 7.000 246.295,9.938 248.000,13.940 248.000 C 17.964 248.000,18.475 247.548,49.077 216.923 C 79.856 186.121,80.147 185.864,81.933 187.923 C 82.924 189.065,84.027 190.000,84.384 190.000 C 84.741 190.000,94.918 199.900,107.000 212.000 C 119.082 224.100,129.431 234.000,129.998 234.000 C 131.633 234.000,148.000 250.807,148.000 252.486 C 148.000 253.319,147.550 254.000,147.000 254.000 C 146.450 254.000,146.000 255.125,146.000 256.500 C 146.000 257.875,145.550 259.000,145.000 259.000 C 144.429 259.000,144.000 262.000,144.000 266.000 C 144.000 270.000,144.429 273.000,145.000 273.000 C 145.658 273.000,146.000 298.667,146.000 348.000 C 146.000 397.333,146.342 423.000,147.000 423.000 C 147.550 423.000,148.000 423.801,148.000 424.779 C 148.000 425.758,148.900 427.207,150.000 428.000 C 151.100 428.793,152.000 429.824,152.000 430.292 C 152.000 432.003,154.924 434.000,157.429 434.000 C 158.843 434.000,160.000 434.450,160.000 435.000 C 160.000 435.658,187.500 436.000,240.500 436.000 L 321.000 436.000 321.000 440.522 C 321.000 444.979,312.447 456.000,308.988 456.000 C 307.360 456.000,301.000 462.741,301.000 464.467 C 301.000 465.310,300.320 466.000,299.488 466.000 C 297.517 466.000,277.000 486.517,277.000 488.488 C 277.000 489.320,276.293 490.000,275.429 490.000 C 273.408 490.000,271.000 492.408,271.000 494.429 C 271.000 495.293,270.550 496.000,270.000 496.000 C 269.450 496.000,269.000 497.800,269.000 500.000 C 269.000 502.200,269.450 504.000,270.000 504.000 C 270.550 504.000,271.000 504.707,271.000 505.571 C 271.000 507.432,273.355 510.000,275.061 510.000 C 275.724 510.000,277.143 511.013,278.217 512.250 L 280.168 514.500 385.021 514.768 L 489.873 515.036 492.391 512.518 C 493.776 511.133,495.862 510.000,497.026 510.000 C 499.316 510.000,502.000 507.842,502.000 506.000 C 502.000 505.371,502.643 504.214,503.429 503.429 C 504.214 502.643,505.371 502.000,506.000 502.000 C 507.842 502.000,510.000 499.316,510.000 497.026 C 510.000 495.862,511.137 493.772,512.527 492.383 L 515.053 489.856 514.777 385.062 L 514.500 280.269 511.250 277.233 C 509.462 275.564,508.000 273.671,508.000 273.027 C 508.000 270.705,505.062 269.000,501.059 269.000 C 497.038 269.000,496.518 269.458,467.000 299.000 C 436.589 329.436,432.000 333.107,432.000 327.000 C 432.000 325.889,431.333 325.000,430.500 325.000 C 429.675 325.000,429.000 324.550,429.000 324.000 C 429.000 323.450,428.308 323.000,427.462 323.000 C 426.615 323.000,421.908 318.950,417.000 314.000 C 412.092 309.050,407.385 305.000,406.538 305.000 C 405.201 305.000,405.000 302.155,405.000 283.221 C 405.000 262.589,404.895 261.366,403.000 260.000 C 401.900 259.207,401.000 257.533,401.000 256.279 C 401.000 254.667,400.415 254.000,399.000 254.000 C 397.900 254.000,397.000 253.550,397.000 253.000 C 397.000 252.450,396.100 252.000,395.000 252.000 C 393.900 252.000,393.000 251.550,393.000 251.000 C 393.000 250.407,389.333 250.000,384.000 250.000 L 375.000 250.000 375.000 209.000 C 375.000 182.333,374.650 168.000,374.000 168.000 C 373.444 168.000,373.000 165.333,373.000 162.000 C 373.000 158.667,372.556 156.000,372.000 156.000 C 371.450 156.000,371.000 154.650,371.000 153.000 C 371.000 151.350,370.550 150.000,370.000 150.000 C 369.450 150.000,369.000 148.749,369.000 147.221 C 369.000 145.589,368.174 143.847,367.000 143.000 C 365.900 142.207,365.000 140.758,365.000 139.779 C 365.000 138.801,364.550 138.000,364.000 138.000 C 363.450 138.000,363.000 136.200,363.000 134.000 C 363.000 131.800,362.550 130.000,362.000 130.000 C 361.450 130.000,361.000 128.860,361.000 127.467 C 361.000 124.089,354.911 118.000,351.533 118.000 C 350.140 118.000,349.000 117.550,349.000 117.000 C 349.000 116.450,346.750 116.000,344.000 116.000 C 341.250 116.000,339.000 115.550,339.000 115.000 C 339.000 114.450,338.100 114.000,337.000 114.000 C 335.900 114.000,335.000 113.550,335.000 113.000 C 335.000 112.450,333.650 112.000,332.000 112.000 C 330.350 112.000,329.000 111.550,329.000 111.000 C 329.000 110.450,327.650 110.000,326.000 110.000 C 324.350 110.000,323.000 109.550,323.000 109.000 C 323.000 108.348,306.833 108.000,276.500 108.000 C 246.167 108.000,230.000 108.348,230.000 109.000 C 230.000 109.550,228.650 110.000,227.000 110.000 C 225.350 110.000,224.000 110.450,224.000 111.000 C 224.000 111.550,222.421 112.000,220.491 112.000 C 217.302 112.000,190.000 87.265,190.000 84.376 C 190.000 84.023,189.065 82.924,187.923 81.933 C 185.864 80.147,186.121 79.856,216.923 49.077 C 247.548 18.475,248.000 17.964,248.000 13.940 C 248.000 9.938,246.295 7.000,243.973 7.000 C 243.329 7.000,241.436 5.537,239.767 3.750 L 236.731 0.500 131.115 0.357 C 73.027 0.278,24.606 0.444,23.514 0.726 M214.000 8.000 C 214.000 8.550,215.800 9.000,218.000 9.000 C 220.200 9.000,222.000 9.450,222.000 10.000 C 222.000 10.550,222.900 11.000,224.000 11.000 C 225.100 11.000,226.000 11.450,226.000 12.000 C 226.000 12.550,226.900 13.000,228.000 13.000 C 232.380 13.000,228.900 17.125,201.000 45.000 L 172.000 73.975 172.000 80.453 L 172.000 86.931 189.000 103.971 C 198.350 113.343,206.000 121.461,206.000 122.011 C 206.000 123.301,246.672 164.000,247.960 164.000 C 250.053 164.000,277.000 190.209,277.000 192.244 C 277.000 192.967,277.900 194.207,279.000 195.000 C 281.148 196.548,282.007 206.000,280.000 206.000 C 279.450 206.000,279.000 206.801,279.000 207.779 C 279.000 208.758,278.100 210.207,277.000 211.000 C 275.900 211.793,275.000 213.057,275.000 213.810 C 275.000 215.371,246.050 243.975,244.454 243.990 C 243.879 243.996,236.160 251.425,227.299 260.500 C 218.439 269.575,210.572 277.000,209.816 277.000 C 209.060 277.000,207.793 277.900,207.000 279.000 C 205.027 281.738,198.973 281.738,197.000 279.000 C 196.207 277.900,194.870 276.975,194.029 276.945 C 193.188 276.915,187.550 271.711,181.500 265.379 C 160.672 243.583,139.043 222.000,138.026 222.000 C 137.466 222.000,125.746 210.750,111.980 197.000 L 86.952 172.000 80.463 172.000 L 73.973 172.000 47.000 199.000 L 20.027 226.000 15.514 226.000 C 11.667 226.000,11.000 225.705,11.000 224.000 C 11.000 222.900,10.550 222.000,10.000 222.000 C 9.450 222.000,9.000 220.200,9.000 218.000 C 9.000 215.800,8.550 214.000,8.000 214.000 C 7.341 214.000,7.000 184.833,7.000 128.500 C 7.000 72.167,7.341 43.000,8.000 43.000 C 8.550 43.000,9.000 41.650,9.000 40.000 C 9.000 38.350,9.450 37.000,10.000 37.000 C 10.550 37.000,11.000 36.100,11.000 35.000 C 11.000 33.900,11.450 33.000,12.000 33.000 C 12.550 33.000,13.000 32.199,13.000 31.221 C 13.000 30.242,13.900 28.793,15.000 28.000 C 16.100 27.207,17.000 25.968,17.000 25.246 C 17.000 23.540,23.540 17.000,25.246 17.000 C 25.968 17.000,27.207 16.100,28.000 15.000 C 28.793 13.900,30.242 13.000,31.221 13.000 C 32.199 13.000,33.000 12.550,33.000 12.000 C 33.000 11.450,33.900 11.000,35.000 11.000 C 36.100 11.000,37.000 10.550,37.000 10.000 C 37.000 9.450,38.350 9.000,40.000 9.000 C 41.650 9.000,43.000 8.550,43.000 8.000 C 43.000 7.341,72.167 7.000,128.500 7.000 C 184.833 7.000,214.000 7.341,214.000 8.000 M313.000 159.000 C 313.000 159.550,313.690 160.000,314.533 160.000 C 317.606 160.000,323.000 166.668,323.000 170.467 C 323.000 172.410,323.450 174.000,324.000 174.000 C 324.639 174.000,325.000 182.667,325.000 198.000 L 325.000 222.000 313.221 222.000 C 302.589 222.000,301.301 222.195,300.000 224.000 C 299.207 225.100,297.978 226.000,297.268 226.000 C 295.449 226.000,275.000 246.652,275.000 248.488 C 275.000 249.693,273.579 250.000,268.000 250.000 C 259.241 250.000,258.720 251.216,274.000 236.000 C 281.150 228.880,287.000 222.467,287.000 221.748 C 287.000 221.029,287.900 219.793,289.000 219.000 C 290.100 218.207,291.000 216.758,291.000 215.779 C 291.000 214.801,291.450 214.000,292.000 214.000 C 292.550 214.000,293.000 212.200,293.000 210.000 C 293.000 207.800,293.450 206.000,294.000 206.000 C 294.550 206.000,295.000 204.200,295.000 202.000 C 295.000 199.800,294.550 198.000,294.000 198.000 C 293.450 198.000,293.000 195.849,293.000 193.221 C 293.000 189.589,292.520 188.096,291.000 187.000 C 289.900 186.207,289.000 184.970,289.000 184.250 C 289.000 183.530,283.600 177.568,277.000 171.000 C 270.400 164.432,265.000 158.821,265.000 158.529 C 265.000 158.238,275.800 158.000,289.000 158.000 C 304.333 158.000,313.000 158.361,313.000 159.000 M317.571 235.429 C 318.357 236.214,319.000 238.464,319.000 240.429 L 319.000 244.000 309.000 244.000 C 303.500 244.000,299.000 243.755,299.000 243.455 C 299.000 242.338,303.958 238.000,305.234 238.000 C 305.962 238.000,307.207 237.100,308.000 236.000 C 309.718 233.617,315.419 233.276,317.571 235.429 M502.000 289.779 C 502.000 291.411,502.826 293.153,504.000 294.000 C 505.174 294.847,506.000 296.589,506.000 298.221 C 506.000 299.749,506.450 301.000,507.000 301.000 C 507.658 301.000,508.000 328.167,508.000 380.500 C 508.000 432.833,507.658 460.000,507.000 460.000 C 506.429 460.000,506.000 463.000,506.000 467.000 C 506.000 471.000,505.571 474.000,505.000 474.000 C 504.450 474.000,504.000 475.619,504.000 477.599 C 504.000 480.308,503.258 481.890,501.000 484.000 C 499.350 485.541,498.000 487.309,498.000 487.928 C 498.000 489.392,489.392 498.000,487.928 498.000 C 487.309 498.000,485.541 499.350,484.000 501.000 C 482.277 502.845,480.197 504.000,478.599 504.000 C 477.169 504.000,476.000 504.450,476.000 505.000 C 476.000 505.550,473.750 506.000,471.000 506.000 C 468.250 506.000,466.000 506.450,466.000 507.000 C 466.000 507.658,438.833 508.000,386.500 508.000 C 334.167 508.000,307.000 507.658,307.000 507.000 C 307.000 506.450,305.200 506.000,303.000 506.000 C 300.800 506.000,299.000 505.550,299.000 505.000 C 299.000 504.450,297.200 504.000,295.000 504.000 C 292.800 504.000,291.000 503.550,291.000 503.000 C 291.000 502.450,290.100 502.000,289.000 502.000 C 287.667 502.000,287.000 501.333,287.000 500.000 C 287.000 498.900,287.450 498.000,288.000 498.000 C 288.550 498.000,289.000 497.319,289.000 496.486 C 289.000 494.788,305.376 478.000,307.031 478.000 C 308.437 478.000,313.000 473.393,313.000 471.974 C 313.000 470.540,315.528 468.000,316.956 468.000 C 317.560 468.000,323.880 462.150,331.000 455.000 L 343.945 442.000 370.473 442.000 C 387.491 442.000,397.000 441.642,397.000 441.000 C 397.000 440.450,397.900 440.000,399.000 440.000 C 400.100 440.000,401.000 439.550,401.000 439.000 C 401.000 438.450,401.695 438.000,402.545 438.000 C 404.774 438.000,409.000 433.447,409.000 431.045 C 409.000 429.920,409.450 429.000,410.000 429.000 C 410.653 429.000,411.000 411.667,411.000 379.000 C 411.000 351.500,411.250 329.000,411.555 329.000 C 411.861 329.000,414.761 331.700,418.000 335.000 C 421.239 338.300,424.563 341.000,425.386 341.000 C 426.209 341.000,427.160 341.450,427.500 342.000 C 429.496 345.230,448.000 342.583,448.000 339.067 C 448.000 337.279,498.365 287.170,500.250 287.082 C 501.516 287.023,502.000 287.768,502.000 289.779 " stroke="none" fill="#000000" fill-rule="evenodd"></path></g></svg>