<svg id="svg" version="1.1" width="515" height="515" xmlns="http://www.w3.org/2000/svg" xmlns:xlink="http://www.w3.org/1999/xlink" style="display: block;"><g id="svgg"><path id="path0" d="M52.000 117.009 C 32.739 119.626,17.615 133.937,14.008 152.960 C 12.640 160.172,12.646 313.845,14.014 321.114 C 16.470 334.159,26.125 346.481,38.802 352.747 L 46.393 356.500 145.446 357.000 L 244.500 357.500 250.000 360.619 C 253.025 362.334,258.650 365.434,262.500 367.507 C 266.350 369.581,275.012 374.365,281.750 378.139 C 326.452 403.177,329.753 405.000,330.389 405.000 C 330.663 405.000,329.518 401.738,327.846 397.750 C 326.174 393.762,321.733 382.962,317.978 373.750 L 311.150 357.000 385.825 356.989 C 446.990 356.980,461.336 356.725,465.119 355.577 C 479.777 351.127,491.127 339.777,495.577 325.119 C 497.702 318.117,497.649 155.709,495.519 148.690 C 490.395 131.804,476.095 119.580,458.500 117.047 C 450.293 115.866,60.685 115.830,52.000 117.009 M227.500 144.890 C 238.755 150.085,240.177 156.572,233.594 172.703 C 224.190 195.745,219.354 217.385,213.413 263.000 C 212.589 269.325,211.664 285.300,211.357 298.500 C 210.863 319.702,210.564 322.999,208.793 326.783 C 196.937 352.122,161.152 312.457,142.453 253.250 C 139.094 242.616,139.051 242.581,136.383 248.250 C 91.709 343.184,76.855 354.636,62.119 305.500 C 53.823 277.840,44.510 233.140,35.992 180.103 C 32.574 158.820,40.432 147.666,55.796 151.990 C 64.619 154.473,65.273 156.118,70.947 190.105 C 73.646 206.272,76.581 223.100,77.470 227.500 C 80.817 244.070,86.284 268.545,86.899 269.713 C 87.258 270.395,89.823 266.458,92.763 260.713 C 99.195 248.140,110.071 227.355,116.159 216.000 C 118.665 211.325,123.135 202.815,126.091 197.089 C 134.377 181.040,138.061 177.500,146.470 177.500 C 156.809 177.500,158.800 180.334,162.971 201.000 C 166.910 220.510,177.850 258.171,179.957 259.473 C 180.348 259.715,181.467 253.316,182.445 245.252 C 189.090 190.442,202.997 147.669,215.333 144.097 C 220.205 142.687,223.141 142.878,227.500 144.890 M308.369 166.508 C 371.869 183.048,353.307 313.000,287.444 313.000 C 254.499 313.000,235.484 289.749,235.512 249.500 C 235.550 195.459,269.788 156.459,308.369 166.508 M437.998 167.944 C 497.051 190.116,473.330 313.103,410.022 312.988 C 360.082 312.897,341.248 242.509,377.201 190.328 C 392.398 168.270,415.859 159.633,437.998 167.944 M290.417 199.285 C 270.782 210.733,261.447 246.151,272.121 268.702 C 284.647 295.167,314.853 268.227,314.953 230.500 C 315.014 207.216,303.010 191.944,290.417 199.285 M413.461 199.861 C 391.939 212.985,384.156 259.089,400.674 275.607 C 408.517 283.450,422.447 277.492,430.879 262.688 C 448.021 232.593,435.260 186.567,413.461 199.861 " stroke="none" fill="#000000" fill-rule="evenodd"></path></g></svg>