<svg version="1.1" width="515" height="515" xmlns="http://www.w3.org/2000/svg"><g><path d="M12.327 206.151 C 0.918 208.711,-0.209 212.930,0.190 251.580 L 0.500 281.660 3.302 285.331 C 8.446 292.071,7.974 292.000,47.451 292.000 L 83.002 292.000 98.212 300.456 C 106.577 305.106,113.570 308.763,113.751 308.582 C 113.932 308.401,112.712 304.810,111.040 300.601 C 109.368 296.392,108.000 292.735,108.000 292.474 C 108.000 292.213,120.194 292.000,135.099 292.000 C 165.799 292.000,167.167 291.727,171.839 284.667 L 174.500 280.646 174.500 249.073 C 174.500 211.311,173.743 208.815,161.423 205.957 C 156.229 204.753,17.755 204.933,12.327 206.151 M78.777 216.557 C 81.528 218.483,81.589 221.415,78.998 227.271 C 75.279 235.679,71.233 262.185,71.212 278.272 C 71.194 292.921,55.911 279.858,48.144 258.555 L 45.421 251.085 39.129 263.716 C 23.519 295.054,19.495 291.470,10.054 237.828 C 7.459 223.081,7.474 221.482,10.223 219.557 C 15.262 216.027,18.630 218.411,20.030 226.500 C 23.150 244.541,26.303 260.000,26.863 259.999 C 27.213 259.999,30.829 253.586,34.897 245.749 C 47.587 221.305,50.110 220.735,55.390 241.115 C 59.769 258.015,60.532 259.129,61.437 249.942 C 62.826 235.845,68.734 217.074,72.223 215.671 C 74.579 214.724,76.540 214.989,78.777 216.557 M108.685 224.067 C 129.615 231.997,121.038 276.056,98.579 275.984 C 84.429 275.938,76.675 261.187,81.476 243.450 C 85.628 228.112,97.340 219.768,108.685 224.067 M155.500 225.266 C 170.445 233.612,166.859 267.530,150.282 274.623 C 135.770 280.833,124.163 269.725,125.206 250.625 C 126.333 230.004,141.399 217.392,155.500 225.266 M200.000 225.592 C 176.821 235.616,182.324 272.114,207.405 274.702 C 216.801 275.672,218.000 274.940,218.001 268.231 L 218.003 262.500 212.494 262.843 C 207.374 263.162,206.751 262.950,203.648 259.843 C 193.800 249.978,201.335 233.557,214.714 235.729 L 218.000 236.262 218.000 230.131 L 218.000 224.000 210.750 224.039 C 206.570 224.062,202.018 224.719,200.000 225.592 M232.500 225.665 C 215.983 234.392,217.140 266.311,234.232 273.452 C 250.037 280.056,263.407 268.818,263.322 249.000 C 263.239 229.449,247.660 217.655,232.500 225.665 M465.500 225.900 C 439.222 238.093,452.040 279.905,480.424 274.580 L 484.000 273.909 484.001 268.205 L 484.003 262.500 478.494 262.843 C 469.095 263.428,463.288 255.073,466.026 244.904 C 467.926 237.849,473.257 234.518,480.714 235.729 L 484.000 236.262 484.000 230.131 L 484.000 224.000 476.750 224.022 C 471.830 224.037,468.215 224.640,465.500 225.900 M270.894 225.250 C 270.836 225.387,269.353 236.412,267.599 249.750 L 264.411 274.000 270.592 274.000 L 276.773 274.000 277.355 269.750 C 277.676 267.413,278.470 259.943,279.121 253.150 L 280.303 240.800 284.474 257.150 L 288.644 273.500 293.142 273.797 L 297.639 274.095 301.625 257.797 L 305.611 241.500 306.821 252.500 C 307.487 258.550,308.302 265.863,308.631 268.750 L 309.230 274.000 315.615 274.000 C 320.056 274.000,322.000 273.620,322.000 272.750 C 322.000 272.063,320.650 261.673,319.000 249.662 C 317.350 237.652,316.000 227.189,316.000 226.412 C 316.000 225.303,314.117 225.000,307.230 225.000 L 298.460 225.000 296.150 235.750 C 294.880 241.662,293.590 247.385,293.284 248.467 C 292.960 249.613,291.743 245.647,290.369 238.967 C 289.072 232.660,287.798 226.938,287.537 226.250 C 287.138 225.198,271.319 224.247,270.894 225.250 M329.583 228.750 C 328.638 234.726,324.000 271.219,324.000 272.677 C 324.000 273.626,325.679 274.000,329.933 274.000 C 337.004 274.000,336.412 275.249,338.109 256.736 C 339.568 240.824,339.810 240.768,343.411 255.500 C 348.401 275.919,347.461 274.000,352.471 274.000 C 355.798 274.000,356.987 273.575,357.367 272.250 C 357.643 271.288,359.348 264.276,361.157 256.668 C 364.953 240.702,365.246 240.905,367.047 260.750 L 368.249 274.000 374.625 274.000 C 382.317 274.000,381.965 276.777,377.989 247.500 C 376.345 235.400,375.001 225.387,375.001 225.250 C 375.000 225.113,371.192 225.000,366.539 225.000 L 358.077 225.000 356.918 229.250 C 356.280 231.588,354.978 237.322,354.024 241.994 C 352.099 251.424,352.184 251.529,348.946 235.750 L 346.739 225.000 338.458 225.000 L 330.176 225.000 329.583 228.750 M385.000 249.500 L 385.000 274.000 398.500 274.000 L 412.000 274.000 412.000 268.500 L 412.000 263.000 405.000 263.000 L 398.000 263.000 398.000 259.000 L 398.000 255.000 404.000 255.000 L 410.000 255.000 410.000 249.500 L 410.000 244.000 404.000 244.000 L 398.000 244.000 398.000 240.000 L 398.000 236.000 405.000 236.000 L 412.000 236.000 412.000 230.500 L 412.000 225.000 398.500 225.000 L 385.000 225.000 385.000 249.500 M415.000 249.379 L 415.000 274.000 422.000 274.000 L 429.000 274.000 429.046 263.250 L 429.092 252.500 434.194 263.250 L 439.295 274.000 446.147 274.000 C 449.916 274.000,453.000 273.754,453.000 273.452 C 453.000 273.151,450.799 268.240,448.110 262.537 L 443.219 252.170 445.685 250.026 C 458.704 238.706,449.249 225.970,427.250 225.192 L 415.000 224.759 415.000 249.379 M488.000 249.500 L 488.000 274.000 501.000 274.000 L 514.000 274.000 514.000 268.500 L 514.000 263.000 507.500 263.000 L 501.000 263.000 501.000 259.000 L 501.000 255.000 507.000 255.000 L 513.000 255.000 513.000 249.500 L 513.000 244.000 507.000 244.000 L 501.000 244.000 501.000 240.000 L 501.000 236.000 507.500 236.000 L 514.000 236.000 514.000 230.500 L 514.000 225.000 501.000 225.000 L 488.000 225.000 488.000 249.500 M97.498 237.597 C 93.706 241.689,91.681 248.139,92.205 254.459 C 93.007 264.134,98.273 266.870,103.854 260.513 C 113.593 249.422,107.361 226.954,97.498 237.597 M142.291 237.250 C 132.394 248.075,136.275 269.799,146.791 262.434 C 155.294 256.478,155.574 235.000,147.149 235.000 C 145.521 235.000,143.487 235.942,142.291 237.250 M246.139 236.912 C 250.874 240.745,249.846 260.406,244.770 263.123 C 239.236 266.085,234.996 260.509,235.006 250.282 C 235.018 237.257,239.668 231.672,246.139 236.912 M435.171 236.655 C 438.821 239.958,435.980 246.000,430.777 246.000 C 429.290 246.000,429.000 245.104,429.000 240.500 C 429.000 234.439,431.205 233.065,435.171 236.655 " stroke="none" fill-rule="evenodd"></path></g></svg>