<svg xmlns="http://www.w3.org/2000/svg" width="400" height="400" viewBox="0, 0, 400,400"><g><path d="M113.173 28.945 C 109.430 30.286,107.525 31.739,105.499 34.800 L 103.667 37.567 103.475 60.765 L 103.284 83.963 158.809 84.148 L 214.333 84.333 217.446 85.867 C 224.450 89.317,229.161 97.532,228.316 104.819 L 227.869 108.667 312.285 108.667 L 396.701 108.667 396.517 73.057 L 396.333 37.447 394.304 34.557 C 393.187 32.967,390.937 30.917,389.304 30.000 L 386.333 28.333 251.000 28.193 C 139.293 28.076,115.231 28.208,113.173 28.945 M8.737 101.757 C 4.895 103.671,1.767 107.344,0.631 111.274 C 0.164 112.888,0.003 142.202,0.136 201.386 L 0.333 289.105 2.351 292.368 C 3.601 294.391,5.609 296.399,7.632 297.649 L 10.896 299.667 99.614 299.667 L 188.333 299.667 191.000 298.228 C 194.120 296.544,196.684 293.932,198.424 290.667 C 199.618 288.424,199.667 284.909,199.667 200.000 L 199.667 111.667 197.818 108.523 C 195.731 104.971,192.522 102.267,188.835 100.951 C 186.795 100.223,170.264 100.053,99.298 100.029 L 12.262 100.000 8.737 101.757 M228.000 156.333 L 228.000 196.667 312.333 196.667 L 396.667 196.667 396.667 156.333 L 396.667 116.000 312.333 116.000 L 228.000 116.000 228.000 156.333 M48.250 138.500 C 48.437 139.142,52.413 158.849,57.086 182.294 C 61.759 205.738,65.734 224.488,65.919 223.960 C 66.104 223.432,72.010 204.400,79.043 181.667 L 91.831 140.333 101.198 140.149 C 109.688 139.981,110.599 140.075,110.923 141.149 C 111.120 141.800,116.215 159.133,122.247 179.667 C 128.278 200.200,133.742 218.800,134.389 221.000 L 135.565 225.000 144.313 181.333 L 153.061 137.667 163.531 137.483 C 171.415 137.345,174.000 137.500,174.000 138.111 C 174.000 139.150,170.985 155.372,168.940 165.333 C 166.288 178.255,149.333 262.246,149.333 262.463 C 149.333 263.751,127.227 262.488,126.653 261.167 C 126.294 260.342,120.449 241.367,113.663 219.000 C 106.877 196.633,101.152 177.883,100.942 177.333 C 100.732 176.783,94.468 195.432,87.022 218.774 C 79.577 242.117,73.283 261.542,73.037 261.941 C 72.654 262.560,50.667 263.100,50.667 262.490 C 50.667 262.392,45.117 234.572,38.333 200.667 C 31.550 166.761,26.000 138.641,26.000 138.177 C 26.000 136.676,47.811 136.993,48.250 138.500 M228.000 243.667 L 228.000 284.000 312.333 284.000 L 396.667 284.000 396.667 243.667 L 396.667 203.333 312.333 203.333 L 228.000 203.333 228.000 243.667 M228.000 302.089 C 228.000 314.892,227.484 316.998,223.201 321.685 C 216.976 328.495,222.042 328.000,158.642 328.000 L 103.270 328.000 103.468 345.278 L 103.667 362.555 105.696 365.444 C 106.813 367.033,109.063 369.083,110.696 370.000 L 113.667 371.667 250.000 371.667 L 386.333 371.667 389.304 370.000 C 390.937 369.083,393.187 367.033,394.304 365.443 L 396.333 362.553 396.517 326.943 L 396.701 291.333 312.350 291.333 L 228.000 291.333 228.000 302.089 " stroke="none" fill-rule="evenodd"></path></g></svg>