<svg id="svg" version="1.1" width="400" height="400" xmlns="http://www.w3.org/2000/svg" xmlns:xlink="http://www.w3.org/1999/xlink" style="display: block;"><g id="svgg"><path id="path0" d="M84.486 73.026 C 83.012 75.878,83.059 76.325,85.307 80.776 C 87.375 84.870,104.997 117.795,112.990 132.500 C 114.485 135.250,117.635 141.100,119.991 145.500 C 122.346 149.900,126.079 156.875,128.288 161.000 C 134.617 172.823,138.271 179.602,145.379 192.708 C 153.054 206.859,152.791 205.555,149.204 211.706 C 147.667 214.343,145.621 218.075,144.658 220.000 C 143.695 221.925,141.894 225.300,140.656 227.500 C 138.491 231.345,131.493 244.339,124.229 258.000 C 116.494 272.547,111.564 281.737,109.207 286.000 C 107.838 288.475,104.457 294.775,101.693 300.000 C 98.929 305.225,95.040 312.425,93.050 316.000 C 83.022 334.016,82.443 335.501,84.327 338.376 L 86.046 341.000 109.867 341.000 L 133.687 341.000 140.519 328.250 C 144.276 321.238,148.108 314.136,149.035 312.469 C 149.961 310.803,152.642 305.853,154.993 301.469 C 157.343 297.086,160.499 291.250,162.007 288.500 C 163.514 285.750,168.013 277.425,172.005 270.000 C 182.504 250.472,185.335 245.223,188.989 238.500 C 190.783 235.200,194.311 228.675,196.829 224.000 C 199.346 219.325,202.382 213.779,203.575 211.676 L 205.744 207.852 211.756 219.176 C 215.062 225.404,219.231 233.200,221.020 236.500 C 224.855 243.574,228.184 249.753,237.995 268.000 C 241.987 275.425,246.479 283.750,247.977 286.500 C 249.476 289.250,252.867 295.550,255.514 300.500 C 258.160 305.450,261.437 311.525,262.796 314.000 C 264.156 316.475,267.305 322.325,269.795 327.000 C 272.286 331.675,275.181 336.738,276.230 338.250 L 278.136 341.000 301.413 341.000 C 330.909 341.000,331.641 340.562,324.338 327.272 C 317.793 315.361,315.238 310.595,312.401 305.000 C 310.867 301.975,307.969 296.575,305.962 293.000 C 303.955 289.425,299.934 282.000,297.027 276.500 C 294.120 271.000,290.509 264.250,289.002 261.500 C 287.495 258.750,284.573 253.350,282.508 249.500 C 280.443 245.650,277.292 239.800,275.505 236.500 C 273.719 233.200,270.456 227.125,268.255 223.000 C 266.054 218.875,263.040 213.332,261.557 210.683 L 258.861 205.866 261.557 200.683 C 263.041 197.832,267.185 190.100,270.767 183.500 C 279.145 168.062,280.519 165.508,295.782 137.000 C 297.696 133.425,300.493 128.250,301.997 125.500 C 303.501 122.750,306.882 116.450,309.510 111.500 C 312.138 106.550,317.373 96.807,321.144 89.850 C 332.134 69.571,332.558 70.000,301.511 70.000 L 278.136 70.000 276.068 72.904 C 274.931 74.502,274.000 76.022,274.000 76.283 C 274.000 76.543,272.049 80.299,269.664 84.628 C 267.279 88.958,263.398 96.100,261.039 100.500 C 252.944 115.597,248.681 123.506,246.215 128.000 C 244.857 130.475,241.946 135.875,239.745 140.000 C 237.544 144.125,234.276 150.200,232.483 153.500 C 230.690 156.800,227.319 163.100,224.991 167.500 C 222.664 171.900,219.518 177.750,218.000 180.500 C 216.482 183.250,213.335 189.100,211.006 193.500 C 208.677 197.900,206.551 201.871,206.281 202.323 C 205.639 203.402,204.354 201.424,198.272 190.000 C 195.490 184.775,190.542 175.550,187.276 169.500 C 184.010 163.450,179.169 154.450,176.517 149.500 C 173.865 144.550,170.585 138.475,169.228 136.000 C 167.871 133.525,165.239 128.688,163.380 125.250 C 161.521 121.813,158.479 116.188,156.620 112.750 C 154.761 109.313,152.127 104.475,150.768 102.000 C 149.408 99.525,145.904 93.000,142.981 87.500 C 140.057 82.000,136.610 75.813,135.320 73.750 L 132.975 70.000 109.513 70.000 L 86.051 70.000 84.486 73.026 " stroke="none" fill="#000000" fill-rule="evenodd"></path></g></svg>