<svg id="svg" version="1.1" width="515" height="515" xmlns="http://www.w3.org/2000/svg" xmlns:xlink="http://www.w3.org/1999/xlink" style="display: block;"><g id="svgg"><path id="path0" d="M342.000 82.500 C 342.000 83.611,340.833 84.000,337.500 84.000 C 335.025 84.000,333.000 84.450,333.000 85.000 C 333.000 85.550,331.425 86.000,329.500 86.000 C 327.575 86.000,326.000 86.450,326.000 87.000 C 326.000 87.550,325.100 88.000,324.000 88.000 C 322.889 88.000,322.000 88.667,322.000 89.500 C 322.000 90.548,320.944 91.000,318.500 91.000 C 316.575 91.000,315.000 91.450,315.000 92.000 C 315.000 92.550,313.974 93.000,312.721 93.000 C 311.467 93.000,309.793 93.900,309.000 95.000 C 308.207 96.100,306.866 97.000,306.020 97.000 C 305.173 97.000,303.135 98.565,301.490 100.478 C 299.748 102.505,297.561 103.966,296.250 103.978 C 295.012 103.990,294.000 104.470,294.000 105.045 C 294.000 106.403,289.403 111.000,288.045 111.000 C 287.470 111.000,287.000 111.944,287.000 113.099 C 287.000 114.253,285.650 116.459,284.000 118.000 C 282.350 119.541,281.000 121.297,281.000 121.901 C 281.000 122.506,280.325 123.000,279.500 123.000 C 278.667 123.000,278.000 123.889,278.000 125.000 C 278.000 126.333,277.333 127.000,276.000 127.000 C 274.381 127.000,274.000 127.667,274.000 130.500 C 274.000 132.944,273.548 134.000,272.500 134.000 C 271.567 134.000,271.000 134.944,271.000 136.500 C 271.000 137.875,270.550 139.000,270.000 139.000 C 269.450 139.000,269.000 139.900,269.000 141.000 C 269.000 142.100,268.550 143.000,268.000 143.000 C 267.450 143.000,267.000 144.125,267.000 145.500 C 267.000 146.875,266.550 148.000,266.000 148.000 C 265.450 148.000,265.000 149.575,265.000 151.500 C 265.000 153.944,264.548 155.000,263.500 155.000 C 262.389 155.000,262.000 156.167,262.000 159.500 C 262.000 163.333,261.704 164.000,260.000 164.000 C 258.296 164.000,258.000 163.333,258.000 159.500 C 258.000 156.167,257.611 155.000,256.500 155.000 C 255.567 155.000,255.000 154.056,255.000 152.500 C 255.000 151.125,254.550 150.000,254.000 150.000 C 253.450 150.000,253.000 148.425,253.000 146.500 C 253.000 144.575,252.550 143.000,252.000 143.000 C 251.450 143.000,251.000 142.100,251.000 141.000 C 251.000 139.889,250.333 139.000,249.500 139.000 C 248.567 139.000,248.000 138.056,248.000 136.500 C 248.000 135.125,247.550 134.000,247.000 134.000 C 246.450 134.000,245.986 133.213,245.968 132.250 C 245.934 130.379,243.746 127.000,242.568 127.000 C 241.263 127.000,239.000 124.163,239.000 122.526 C 239.000 120.731,234.683 116.000,233.045 116.000 C 232.470 116.000,232.000 115.530,232.000 114.955 C 232.000 113.597,227.403 109.000,226.045 109.000 C 225.470 109.000,225.000 108.550,225.000 108.000 C 225.000 107.450,224.100 107.000,223.000 107.000 C 221.533 107.000,221.000 106.333,221.000 104.500 C 221.000 102.500,220.500 102.000,218.500 102.000 C 217.125 102.000,216.000 101.550,216.000 101.000 C 216.000 100.450,215.100 100.000,214.000 100.000 C 212.889 100.000,212.000 99.333,212.000 98.500 C 212.000 97.675,211.325 97.000,210.500 97.000 C 209.675 97.000,209.000 96.550,209.000 96.000 C 209.000 95.450,208.199 95.000,207.221 95.000 C 206.242 95.000,204.793 94.100,204.000 93.000 C 202.904 91.480,201.411 91.000,197.779 91.000 C 194.198 91.000,193.000 90.624,193.000 89.500 C 193.000 88.500,192.000 88.000,190.000 88.000 C 188.350 88.000,187.000 87.550,187.000 87.000 C 187.000 86.450,184.750 86.000,182.000 86.000 C 179.250 86.000,177.000 85.550,177.000 85.000 C 177.000 84.368,170.000 84.000,158.000 84.000 C 146.000 84.000,139.000 84.368,139.000 85.000 C 139.000 85.556,136.333 86.000,133.000 86.000 C 129.667 86.000,127.000 86.444,127.000 87.000 C 127.000 87.550,126.100 88.000,125.000 88.000 C 123.889 88.000,123.000 88.667,123.000 89.500 C 123.000 90.548,121.944 91.000,119.500 91.000 C 117.575 91.000,116.000 91.450,116.000 92.000 C 116.000 92.550,115.325 93.000,114.500 93.000 C 113.675 93.000,113.000 93.450,113.000 94.000 C 113.000 94.550,111.650 95.000,110.000 95.000 C 108.350 95.000,107.000 95.450,107.000 96.000 C 107.000 96.550,105.875 97.000,104.500 97.000 C 103.125 97.000,102.000 97.482,102.000 98.071 C 102.000 99.691,99.355 102.000,97.500 102.000 C 95.883 102.000,93.000 104.243,93.000 105.500 C 93.000 106.321,90.341 109.000,89.526 109.000 C 88.491 109.000,84.000 113.839,84.000 114.955 C 84.000 115.530,83.530 116.000,82.955 116.000 C 81.839 116.000,77.000 120.491,77.000 121.526 C 77.000 122.544,74.222 125.000,73.071 125.000 C 72.482 125.000,72.000 126.476,72.000 128.279 C 72.000 130.411,71.300 132.063,70.000 133.000 C 68.900 133.793,68.000 135.467,68.000 136.721 C 68.000 138.080,67.395 139.000,66.500 139.000 C 65.667 139.000,65.000 139.889,65.000 141.000 C 65.000 142.100,64.550 143.000,64.000 143.000 C 63.450 143.000,63.000 144.575,63.000 146.500 C 63.000 148.425,62.550 150.000,62.000 150.000 C 61.450 150.000,61.000 151.125,61.000 152.500 C 61.000 153.875,60.550 155.000,60.000 155.000 C 59.450 155.000,59.000 156.575,59.000 158.500 C 59.000 160.944,58.548 162.000,57.500 162.000 C 56.211 162.000,56.000 165.167,56.000 184.500 C 56.000 203.833,56.211 207.000,57.500 207.000 C 58.548 207.000,59.000 208.056,59.000 210.500 C 59.000 212.425,59.450 214.000,60.000 214.000 C 60.550 214.000,61.000 216.025,61.000 218.500 C 61.000 220.975,61.450 223.000,62.000 223.000 C 62.550 223.000,63.000 224.125,63.000 225.500 C 63.000 226.875,63.450 228.000,64.000 228.000 C 64.550 228.000,65.000 229.364,65.000 231.031 C 65.000 232.803,65.623 234.302,66.500 234.638 C 67.325 234.955,68.000 235.966,68.000 236.886 C 68.000 237.806,68.900 239.207,70.000 240.000 C 72.148 241.548,73.007 251.000,71.000 251.000 C 70.450 251.000,70.000 251.900,70.000 253.000 C 70.000 254.100,69.550 255.000,69.000 255.000 C 68.450 255.000,68.000 256.125,68.000 257.500 C 68.000 259.056,67.433 260.000,66.500 260.000 C 65.452 260.000,65.000 261.056,65.000 263.500 C 65.000 265.425,64.550 267.000,64.000 267.000 C 63.450 267.000,63.000 268.575,63.000 270.500 C 63.000 272.425,62.550 274.000,62.000 274.000 C 61.450 274.000,61.000 276.025,61.000 278.500 C 61.000 280.975,60.550 283.000,60.000 283.000 C 59.450 283.000,59.000 285.475,59.000 288.500 C 59.000 292.722,58.652 294.000,57.500 294.000 C 56.203 294.000,56.000 297.722,56.000 321.500 C 56.000 345.278,56.203 349.000,57.500 349.000 C 58.548 349.000,59.000 350.056,59.000 352.500 C 59.000 354.425,59.450 356.000,60.000 356.000 C 60.550 356.000,61.000 357.575,61.000 359.500 C 61.000 361.425,61.450 363.000,62.000 363.000 C 62.550 363.000,63.000 363.900,63.000 365.000 C 63.000 366.100,63.450 367.000,64.000 367.000 C 64.550 367.000,65.000 368.125,65.000 369.500 C 65.000 371.056,65.567 372.000,66.500 372.000 C 67.433 372.000,68.000 372.944,68.000 374.500 C 68.000 375.875,68.450 377.000,69.000 377.000 C 69.550 377.000,70.000 377.900,70.000 379.000 C 70.000 380.100,70.450 381.000,71.000 381.000 C 71.550 381.000,72.000 382.125,72.000 383.500 C 72.000 384.875,72.470 386.000,73.045 386.000 C 74.161 386.000,79.000 390.491,79.000 391.526 C 79.000 392.327,81.673 395.000,82.474 395.000 C 83.509 395.000,88.000 399.839,88.000 400.955 C 88.000 401.530,88.675 402.000,89.500 402.000 C 90.325 402.000,91.000 402.450,91.000 403.000 C 91.000 403.550,91.705 404.000,92.567 404.000 C 93.429 404.000,95.620 405.575,97.435 407.500 C 99.251 409.425,101.471 411.000,102.368 411.000 C 103.266 411.000,104.000 411.450,104.000 412.000 C 104.000 412.550,104.675 413.000,105.500 413.000 C 106.325 413.000,107.000 413.450,107.000 414.000 C 107.000 414.550,108.350 415.000,110.000 415.000 C 112.000 415.000,113.000 415.500,113.000 416.500 C 113.000 417.325,113.675 418.000,114.500 418.000 C 115.325 418.000,116.000 418.450,116.000 419.000 C 116.000 419.550,117.575 420.000,119.500 420.000 C 121.425 420.000,123.000 420.450,123.000 421.000 C 123.000 421.550,123.900 422.000,125.000 422.000 C 126.111 422.000,127.000 422.667,127.000 423.500 C 127.000 424.690,128.444 425.000,134.000 425.000 C 138.000 425.000,141.000 425.429,141.000 426.000 C 141.000 426.627,147.333 427.000,158.000 427.000 C 168.667 427.000,175.000 426.627,175.000 426.000 C 175.000 425.450,177.025 425.000,179.500 425.000 C 182.833 425.000,184.000 424.611,184.000 423.500 C 184.000 422.389,185.167 422.000,188.500 422.000 C 190.975 422.000,193.000 421.550,193.000 421.000 C 193.000 420.450,194.125 420.000,195.500 420.000 C 196.875 420.000,198.000 419.550,198.000 419.000 C 198.000 418.450,199.575 418.000,201.500 418.000 C 203.944 418.000,205.000 417.548,205.000 416.500 C 205.000 415.667,205.889 415.000,207.000 415.000 C 208.100 415.000,209.000 414.550,209.000 414.000 C 209.000 413.450,209.675 413.000,210.500 413.000 C 211.325 413.000,212.000 412.550,212.000 412.000 C 212.000 411.450,212.900 411.000,214.000 411.000 C 215.100 411.000,216.000 410.550,216.000 410.000 C 216.000 409.450,217.125 409.000,218.500 409.000 C 220.500 409.000,221.000 408.500,221.000 406.500 C 221.000 404.862,221.559 404.000,222.620 404.000 C 223.511 404.000,226.180 401.975,228.552 399.500 C 230.923 397.025,233.151 395.000,233.503 395.000 C 234.539 395.000,237.000 392.235,237.000 391.071 C 237.000 390.482,237.450 390.000,238.000 390.000 C 238.550 390.000,239.000 389.100,239.000 388.000 C 239.000 386.900,239.450 386.000,240.000 386.000 C 240.550 386.000,241.000 385.325,241.000 384.500 C 241.000 383.675,241.482 383.000,242.071 383.000 C 243.665 383.000,246.000 380.367,246.000 378.571 C 246.000 377.707,246.450 377.000,247.000 377.000 C 247.550 377.000,248.000 375.875,248.000 374.500 C 248.000 373.125,248.482 372.000,249.071 372.000 C 251.102 372.000,253.000 369.135,253.000 366.071 C 253.000 364.382,253.450 363.000,254.000 363.000 C 254.550 363.000,255.000 361.425,255.000 359.500 C 255.000 357.056,255.452 356.000,256.500 356.000 C 257.548 356.000,258.000 354.944,258.000 352.500 C 258.000 350.575,258.450 349.000,259.000 349.000 C 259.550 349.000,260.000 347.425,260.000 345.500 C 260.000 343.575,260.450 342.000,261.000 342.000 C 261.550 342.000,262.000 344.025,262.000 346.500 C 262.000 349.833,262.389 351.000,263.500 351.000 C 264.611 351.000,265.000 352.167,265.000 355.500 C 265.000 357.975,265.450 360.000,266.000 360.000 C 266.550 360.000,267.000 361.125,267.000 362.500 C 267.000 363.875,267.450 365.000,268.000 365.000 C 268.550 365.000,269.000 365.932,269.000 367.071 C 269.000 369.285,271.164 372.000,272.929 372.000 C 273.518 372.000,274.000 373.125,274.000 374.500 C 274.000 375.875,274.450 377.000,275.000 377.000 C 275.550 377.000,276.000 377.900,276.000 379.000 C 276.000 380.100,276.450 381.000,277.000 381.000 C 277.550 381.000,278.000 382.125,278.000 383.500 C 278.000 385.500,278.500 386.000,280.500 386.000 C 282.333 386.000,283.000 386.533,283.000 388.000 C 283.000 389.100,283.450 390.000,284.000 390.000 C 284.550 390.000,285.000 390.482,285.000 391.071 C 285.000 392.348,287.503 395.000,288.708 395.000 C 289.176 395.000,290.207 395.900,291.000 397.000 C 291.793 398.100,293.467 399.000,294.721 399.000 C 296.485 399.000,297.000 399.565,297.000 401.500 C 297.000 403.103,297.562 404.000,298.567 404.000 C 299.429 404.000,301.620 405.575,303.435 407.500 C 305.251 409.425,307.471 411.000,308.368 411.000 C 309.266 411.000,310.000 411.450,310.000 412.000 C 310.000 412.550,311.125 413.000,312.500 413.000 C 313.875 413.000,315.000 413.450,315.000 414.000 C 315.000 414.550,315.900 415.000,317.000 415.000 C 318.111 415.000,319.000 415.667,319.000 416.500 C 319.000 417.433,319.944 418.000,321.500 418.000 C 322.875 418.000,324.000 418.450,324.000 419.000 C 324.000 419.550,325.125 420.000,326.500 420.000 C 327.875 420.000,329.000 420.450,329.000 421.000 C 329.000 421.550,331.475 422.000,334.500 422.000 C 338.722 422.000,340.000 422.348,340.000 423.500 C 340.000 424.753,342.056 425.000,352.500 425.000 C 360.167 425.000,365.000 425.387,365.000 426.000 C 365.000 426.550,366.575 427.000,368.500 427.000 C 370.425 427.000,372.000 426.550,372.000 426.000 C 372.000 425.429,375.000 425.000,379.000 425.000 C 384.556 425.000,386.000 424.690,386.000 423.500 C 386.000 422.389,387.167 422.000,390.500 422.000 C 392.975 422.000,395.000 421.550,395.000 421.000 C 395.000 420.450,395.900 420.000,397.000 420.000 C 398.100 420.000,399.000 419.550,399.000 419.000 C 399.000 418.450,400.575 418.000,402.500 418.000 C 404.944 418.000,406.000 417.548,406.000 416.500 C 406.000 415.567,406.944 415.000,408.500 415.000 C 409.875 415.000,411.000 414.550,411.000 414.000 C 411.000 413.450,411.900 413.000,413.000 413.000 C 414.100 413.000,415.000 412.550,415.000 412.000 C 415.000 411.450,415.932 411.000,417.071 411.000 C 419.285 411.000,422.000 408.836,422.000 407.071 C 422.000 406.482,422.576 406.000,423.279 406.000 C 423.983 406.000,425.207 405.100,426.000 404.000 C 426.793 402.900,428.242 402.000,429.221 402.000 C 430.199 402.000,431.000 401.325,431.000 400.500 C 431.000 399.675,431.449 399.000,431.999 399.000 C 433.543 399.000,441.000 391.409,441.000 389.838 C 441.000 389.070,441.900 387.793,443.000 387.000 C 444.100 386.207,445.000 384.983,445.000 384.279 C 445.000 383.576,445.450 383.000,446.000 383.000 C 446.550 383.000,447.000 382.100,447.000 381.000 C 447.000 379.900,447.482 379.000,448.071 379.000 C 449.691 379.000,452.000 376.355,452.000 374.500 C 452.000 372.645,454.309 370.000,455.929 370.000 C 456.518 370.000,457.000 368.425,457.000 366.500 C 457.000 364.575,457.450 363.000,458.000 363.000 C 458.550 363.000,459.000 361.425,459.000 359.500 C 459.000 357.575,459.450 356.000,460.000 356.000 C 460.550 356.000,461.000 354.425,461.000 352.500 C 461.000 350.056,461.452 349.000,462.500 349.000 C 463.690 349.000,464.000 347.556,464.000 342.000 C 464.000 338.000,464.429 335.000,465.000 335.000 C 465.613 335.000,466.000 330.167,466.000 322.500 C 466.000 314.833,465.613 310.000,465.000 310.000 C 464.450 310.000,464.000 307.525,464.000 304.500 C 464.000 300.278,463.652 299.000,462.500 299.000 C 461.452 299.000,461.000 297.944,461.000 295.500 C 461.000 293.575,460.550 292.000,460.000 292.000 C 459.450 292.000,459.000 290.168,459.000 287.929 C 459.000 284.001,457.298 281.000,455.071 281.000 C 454.482 281.000,454.000 279.425,454.000 277.500 C 454.000 275.575,453.550 274.000,453.000 274.000 C 452.450 274.000,452.000 273.325,452.000 272.500 C 452.000 271.675,451.550 271.000,451.000 271.000 C 450.450 271.000,450.000 270.100,450.000 269.000 C 450.000 267.889,449.333 267.000,448.500 267.000 C 447.452 267.000,447.000 265.944,447.000 263.500 C 447.000 261.056,447.452 260.000,448.500 260.000 C 449.548 260.000,450.000 258.944,450.000 256.500 C 450.000 254.575,450.450 253.000,451.000 253.000 C 451.550 253.000,452.000 251.875,452.000 250.500 C 452.000 249.125,452.450 248.000,453.000 248.000 C 453.550 248.000,454.000 247.148,454.000 246.107 C 454.000 245.066,454.675 243.955,455.500 243.638 C 456.490 243.258,457.000 241.692,457.000 239.031 C 457.000 236.814,457.450 235.000,458.000 235.000 C 458.550 235.000,459.000 232.750,459.000 230.000 C 459.000 227.250,459.450 225.000,460.000 225.000 C 460.550 225.000,461.000 222.975,461.000 220.500 C 461.000 217.167,461.389 216.000,462.500 216.000 C 463.679 216.000,464.000 214.611,464.000 209.500 C 464.000 205.833,464.436 203.000,465.000 203.000 C 465.619 203.000,466.000 197.667,466.000 189.000 C 466.000 180.333,465.619 175.000,465.000 175.000 C 464.417 175.000,464.000 171.667,464.000 167.000 C 464.000 160.556,463.708 159.000,462.500 159.000 C 461.452 159.000,461.000 157.944,461.000 155.500 C 461.000 153.575,460.550 152.000,460.000 152.000 C 459.450 152.000,459.000 149.975,459.000 147.500 C 459.000 145.025,458.550 143.000,458.000 143.000 C 457.450 143.000,457.000 142.100,457.000 141.000 C 457.000 139.889,456.333 139.000,455.500 139.000 C 454.675 139.000,454.000 138.325,454.000 137.500 C 454.000 136.675,453.550 136.000,453.000 136.000 C 452.450 136.000,452.000 135.100,452.000 134.000 C 452.000 132.900,451.550 132.000,451.000 132.000 C 450.450 132.000,450.000 130.875,450.000 129.500 C 450.000 128.125,449.530 127.000,448.955 127.000 C 447.317 127.000,443.000 122.269,443.000 120.474 C 443.000 118.640,440.682 116.000,439.071 116.000 C 438.482 116.000,438.000 115.530,438.000 114.955 C 438.000 113.839,433.509 109.000,432.474 109.000 C 431.456 109.000,429.000 106.222,429.000 105.071 C 429.000 104.482,428.100 104.000,427.000 104.000 C 425.667 104.000,425.000 103.333,425.000 102.000 C 425.000 100.533,424.333 100.000,422.500 100.000 C 420.944 100.000,420.000 99.433,420.000 98.500 C 420.000 97.605,419.080 97.000,417.721 97.000 C 416.467 97.000,414.793 96.100,414.000 95.000 C 413.207 93.900,411.758 93.000,410.779 93.000 C 409.801 93.000,409.000 92.550,409.000 92.000 C 409.000 91.450,407.875 91.000,406.500 91.000 C 404.944 91.000,404.000 90.433,404.000 89.500 C 404.000 88.452,402.944 88.000,400.500 88.000 C 398.575 88.000,397.000 87.550,397.000 87.000 C 397.000 86.450,396.100 86.000,395.000 86.000 C 393.900 86.000,393.000 85.550,393.000 85.000 C 393.000 84.444,390.333 84.000,387.000 84.000 C 382.333 84.000,381.000 83.667,381.000 82.500 C 381.000 81.218,378.167 81.000,361.500 81.000 C 344.833 81.000,342.000 81.218,342.000 82.500 M370.000 151.000 C 370.000 151.550,370.900 152.000,372.000 152.000 C 373.100 152.000,374.000 152.450,374.000 153.000 C 374.000 153.550,375.125 154.000,376.500 154.000 C 378.056 154.000,379.000 154.567,379.000 155.500 C 379.000 156.344,379.894 157.000,381.045 157.000 C 383.685 157.000,388.000 161.315,388.000 163.955 C 388.000 165.080,388.450 166.000,389.000 166.000 C 389.550 166.000,390.000 166.914,390.000 168.031 C 390.000 169.149,390.675 170.322,391.500 170.638 C 392.325 170.955,393.000 172.066,393.000 173.107 C 393.000 174.148,393.450 175.000,394.000 175.000 C 394.619 175.000,395.000 180.333,395.000 189.000 C 395.000 197.667,394.619 203.000,394.000 203.000 C 393.450 203.000,393.000 205.025,393.000 207.500 C 393.000 210.833,392.611 212.000,391.500 212.000 C 390.389 212.000,390.000 213.167,390.000 216.500 C 390.000 218.975,389.550 221.000,389.000 221.000 C 388.450 221.000,388.000 222.125,388.000 223.500 C 388.000 224.875,387.550 226.000,387.000 226.000 C 386.450 226.000,386.000 226.900,386.000 228.000 C 386.000 229.100,385.550 230.000,385.000 230.000 C 384.450 230.000,384.000 231.575,384.000 233.500 C 384.000 235.425,383.518 237.000,382.929 237.000 C 381.309 237.000,379.000 239.645,379.000 241.500 C 379.000 243.117,376.757 246.000,375.500 246.000 C 374.108 246.000,372.000 248.968,372.000 250.929 C 372.000 252.068,371.550 253.000,371.000 253.000 C 370.450 253.000,370.000 253.900,370.000 255.000 C 370.000 256.704,370.667 257.000,374.500 257.000 C 377.833 257.000,379.000 257.389,379.000 258.500 C 379.000 259.344,379.894 260.000,381.045 260.000 C 383.174 260.000,388.000 264.132,388.000 265.955 C 388.000 266.530,388.450 267.000,389.000 267.000 C 389.550 267.000,390.000 267.900,390.000 269.000 C 390.000 270.111,390.667 271.000,391.500 271.000 C 392.433 271.000,393.000 271.944,393.000 273.500 C 393.000 274.875,393.450 276.000,394.000 276.000 C 394.643 276.000,395.000 286.167,395.000 304.500 C 395.000 322.833,394.643 333.000,394.000 333.000 C 393.450 333.000,393.000 334.125,393.000 335.500 C 393.000 337.056,392.433 338.000,391.500 338.000 C 390.667 338.000,390.000 338.889,390.000 340.000 C 390.000 341.100,389.550 342.000,389.000 342.000 C 388.450 342.000,388.000 342.470,388.000 343.045 C 388.000 344.403,383.403 349.000,382.045 349.000 C 381.470 349.000,381.000 349.450,381.000 350.000 C 381.000 350.550,380.100 351.000,379.000 351.000 C 377.889 351.000,377.000 351.667,377.000 352.500 C 377.000 353.433,376.056 354.000,374.500 354.000 C 373.125 354.000,372.000 354.450,372.000 355.000 C 372.000 355.603,367.833 356.000,361.500 356.000 C 355.167 356.000,351.000 355.603,351.000 355.000 C 351.000 354.450,350.100 354.000,349.000 354.000 C 347.889 354.000,347.000 353.333,347.000 352.500 C 347.000 351.643,346.100 351.000,344.901 351.000 C 343.747 351.000,341.541 349.650,340.000 348.000 C 338.459 346.350,336.703 345.000,336.099 345.000 C 335.494 345.000,335.000 343.875,335.000 342.500 C 335.000 341.125,334.550 340.000,334.000 340.000 C 333.450 340.000,333.000 339.127,333.000 338.059 C 333.000 336.991,332.550 335.840,332.000 335.500 C 331.450 335.160,331.000 333.559,331.000 331.941 C 331.000 329.993,330.493 329.000,329.500 329.000 C 328.214 329.000,328.000 326.000,328.000 308.000 L 328.000 287.000 273.500 287.000 C 225.722 287.000,219.000 287.185,219.000 288.500 C 219.000 289.611,217.833 290.000,214.500 290.000 C 212.025 290.000,210.000 290.450,210.000 291.000 C 210.000 291.550,208.875 292.000,207.500 292.000 C 205.500 292.000,205.000 292.500,205.000 294.500 C 205.000 296.362,204.471 297.000,202.929 297.000 C 200.474 297.000,198.000 299.223,198.000 301.429 C 198.000 302.293,197.550 303.000,197.000 303.000 C 196.450 303.000,196.000 304.125,196.000 305.500 C 196.000 306.875,195.550 308.000,195.000 308.000 C 194.450 308.000,194.000 309.575,194.000 311.500 C 194.000 313.944,193.548 315.000,192.500 315.000 C 191.278 315.000,191.000 316.667,191.000 324.000 C 191.000 329.333,190.593 333.000,190.000 333.000 C 189.450 333.000,189.000 334.382,189.000 336.071 C 189.000 339.135,187.102 342.000,185.071 342.000 C 184.482 342.000,184.000 342.944,184.000 344.099 C 184.000 345.253,182.650 347.459,181.000 349.000 C 179.350 350.541,178.000 352.297,178.000 352.901 C 178.000 353.506,176.875 354.000,175.500 354.000 C 174.125 354.000,173.000 354.450,173.000 355.000 C 173.000 355.550,171.875 356.000,170.500 356.000 C 169.125 356.000,168.000 356.450,168.000 357.000 C 168.000 357.600,164.000 358.000,158.000 358.000 C 152.000 358.000,148.000 357.600,148.000 357.000 C 148.000 356.450,146.875 356.000,145.500 356.000 C 144.125 356.000,143.000 355.550,143.000 355.000 C 143.000 354.450,141.875 354.000,140.500 354.000 C 139.125 354.000,138.000 353.506,138.000 352.901 C 138.000 352.297,136.650 350.541,135.000 349.000 C 133.350 347.459,132.000 345.253,132.000 344.099 C 132.000 342.944,131.518 342.000,130.929 342.000 C 128.898 342.000,127.000 339.135,127.000 336.071 C 127.000 334.382,126.550 333.000,126.000 333.000 C 125.387 333.000,125.000 328.167,125.000 320.500 C 125.000 312.833,125.387 308.000,126.000 308.000 C 126.556 308.000,127.000 305.333,127.000 302.000 C 127.000 298.667,127.444 296.000,128.000 296.000 C 128.550 296.000,129.000 294.698,129.000 293.107 C 129.000 291.458,129.645 289.966,130.500 289.638 C 131.325 289.322,132.000 288.149,132.000 287.031 C 132.000 285.914,132.450 285.000,133.000 285.000 C 133.550 285.000,134.000 283.425,134.000 281.500 C 134.000 279.575,134.450 278.000,135.000 278.000 C 135.550 278.000,136.000 277.100,136.000 276.000 C 136.000 274.900,136.450 274.000,137.000 274.000 C 137.550 274.000,138.000 273.325,138.000 272.500 C 138.000 271.675,138.675 271.000,139.500 271.000 C 140.333 271.000,141.000 270.111,141.000 269.000 C 141.000 267.900,141.450 267.000,142.000 267.000 C 142.550 267.000,143.000 266.325,143.000 265.500 C 143.000 264.675,143.450 264.000,144.000 264.000 C 144.550 264.000,145.000 263.100,145.000 262.000 C 145.000 260.889,145.667 260.000,146.500 260.000 C 147.325 260.000,148.000 259.530,148.000 258.955 C 148.000 257.839,152.491 253.000,153.526 253.000 C 154.327 253.000,157.000 250.327,157.000 249.526 C 157.000 248.491,161.839 244.000,162.955 244.000 C 163.530 244.000,164.000 243.518,164.000 242.929 C 164.000 241.236,166.679 239.000,168.708 239.000 C 169.726 239.000,171.207 238.100,172.000 237.000 C 172.793 235.900,174.242 235.000,175.221 235.000 C 176.199 235.000,177.000 234.325,177.000 233.500 C 177.000 232.567,177.944 232.000,179.500 232.000 C 180.875 232.000,182.000 231.550,182.000 231.000 C 182.000 230.450,183.125 230.000,184.500 230.000 C 185.875 230.000,187.000 229.550,187.000 229.000 C 187.000 228.450,188.350 228.000,190.000 228.000 C 192.000 228.000,193.000 227.500,193.000 226.500 C 193.000 225.367,194.222 225.000,198.000 225.000 C 200.750 225.000,203.000 224.550,203.000 224.000 C 203.000 223.450,205.475 223.000,208.500 223.000 C 211.525 223.000,214.000 222.550,214.000 222.000 C 214.000 221.348,230.000 221.000,260.000 221.000 C 290.000 221.000,306.000 220.652,306.000 220.000 C 306.000 219.450,307.350 219.000,309.000 219.000 C 311.000 219.000,312.000 218.500,312.000 217.500 C 312.000 216.675,312.675 216.000,313.500 216.000 C 314.325 216.000,315.000 215.550,315.000 215.000 C 315.000 214.450,315.900 214.000,317.000 214.000 C 318.100 214.000,319.000 213.550,319.000 213.000 C 319.000 212.450,319.675 212.000,320.500 212.000 C 321.395 212.000,322.000 211.080,322.000 209.721 C 322.000 208.467,322.900 206.793,324.000 206.000 C 325.300 205.063,326.000 203.411,326.000 201.279 C 326.000 199.476,326.450 198.000,327.000 198.000 C 327.603 198.000,328.000 193.833,328.000 187.500 C 328.000 178.833,328.262 177.000,329.500 177.000 C 330.500 177.000,331.000 176.000,331.000 174.000 C 331.000 172.350,331.450 171.000,332.000 171.000 C 332.550 171.000,333.000 170.068,333.000 168.929 C 333.000 166.715,335.164 164.000,336.929 164.000 C 337.518 164.000,338.000 163.506,338.000 162.901 C 338.000 162.297,339.350 160.541,341.000 159.000 C 342.650 157.459,344.000 155.703,344.000 155.099 C 344.000 154.494,344.675 154.000,345.500 154.000 C 346.325 154.000,347.000 153.550,347.000 153.000 C 347.000 152.450,349.025 152.000,351.500 152.000 C 353.975 152.000,356.000 151.550,356.000 151.000 C 356.000 150.429,359.000 150.000,363.000 150.000 C 367.000 150.000,370.000 150.429,370.000 151.000 M166.000 153.000 C 166.000 153.550,167.125 154.000,168.500 154.000 C 170.056 154.000,171.000 154.567,171.000 155.500 C 171.000 156.333,171.889 157.000,173.000 157.000 C 174.100 157.000,175.000 157.450,175.000 158.000 C 175.000 158.550,175.675 159.000,176.500 159.000 C 177.325 159.000,178.000 159.450,178.000 160.000 C 178.000 160.550,178.900 161.000,180.000 161.000 C 181.356 161.000,182.000 161.667,182.000 163.071 C 182.000 165.285,184.164 168.000,185.929 168.000 C 186.518 168.000,187.000 169.125,187.000 170.500 C 187.000 171.875,187.450 173.000,188.000 173.000 C 188.550 173.000,189.000 173.900,189.000 175.000 C 189.000 176.100,189.450 177.000,190.000 177.000 C 190.635 177.000,191.000 184.667,191.000 198.000 L 191.000 219.000 167.000 219.000 C 146.333 219.000,143.000 218.792,143.000 217.500 C 143.000 216.658,142.107 216.000,140.967 216.000 C 138.880 216.000,132.000 209.887,132.000 208.033 C 132.000 207.465,131.325 207.000,130.500 207.000 C 129.452 207.000,129.000 205.944,129.000 203.500 C 129.000 201.575,128.550 200.000,128.000 200.000 C 127.450 200.000,127.000 198.650,127.000 197.000 C 127.000 195.350,126.550 194.000,126.000 194.000 C 125.404 194.000,125.000 190.167,125.000 184.500 C 125.000 178.833,125.404 175.000,126.000 175.000 C 126.550 175.000,127.000 174.100,127.000 173.000 C 127.000 171.900,127.450 171.000,128.000 171.000 C 128.550 171.000,129.000 169.875,129.000 168.500 C 129.000 167.125,129.482 166.000,130.071 166.000 C 130.661 166.000,131.786 165.357,132.571 164.571 C 133.357 163.786,134.000 162.661,134.000 162.071 C 134.000 161.482,134.900 161.000,136.000 161.000 C 137.100 161.000,138.000 160.550,138.000 160.000 C 138.000 159.450,138.675 159.000,139.500 159.000 C 140.325 159.000,141.000 158.550,141.000 158.000 C 141.000 157.450,141.900 157.000,143.000 157.000 C 144.111 157.000,145.000 156.333,145.000 155.500 C 145.000 154.452,146.056 154.000,148.500 154.000 C 150.425 154.000,152.000 153.550,152.000 153.000 C 152.000 152.429,155.000 152.000,159.000 152.000 C 163.000 152.000,166.000 152.429,166.000 153.000 " stroke="none" fill="#000000" fill-rule="evenodd"></path></g></svg>