<?xml version="1.0" encoding="UTF-8" standalone="no"?>
<!DOCTYPE svg PUBLIC "-//W3C//DTD SVG 1.1//EN" "http://www.w3.org/Graphics/SVG/1.1/DTD/svg11.dtd">
<svg width="100%" height="100%" viewBox="0 0 515 515" version="1.1" xmlns="http://www.w3.org/2000/svg" xmlns:xlink="http://www.w3.org/1999/xlink" xml:space="preserve" xmlns:serif="http://www.serif.com/" style="fill-rule:evenodd;clip-rule:evenodd;stroke-linejoin:round;stroke-miterlimit:2;">
    <g id="svgg">
        <path id="path0" d="M342,82.5C342,84.177 338.086,83.846 337.5,84C332.961,85.193 328.337,86.207 324,88C311.758,93.061 296.907,100.343 288.045,111C286.322,113.072 285.706,115.914 284,118C281.12,121.52 277.047,123.995 274.393,127.688C273.111,129.472 273.35,131.975 272.5,134C269.876,140.251 266.489,146.17 263.991,152.473C263.352,154.085 263.233,163.31 260,164C257.973,164.432 257.993,161.522 257.806,160.723C257.103,157.728 256.576,154.681 255.618,151.759C252.243,141.454 246.16,134.193 240.295,125.377C238.871,123.237 238.335,120.519 236.637,118.59C233.172,114.653 229.095,111.277 225,108C223.99,107.192 222.269,107.438 221.45,106.437C220.595,105.392 221.522,103.383 220.5,102.5C218.743,100.982 216.009,101.163 214,100C209.31,97.286 207.191,93.207 201.841,91.43C199.364,90.607 196.548,91.419 194.047,90.672C191.509,89.914 189.565,87.661 187,87C170.774,82.82 152.433,82.976 136.096,86.334C127.434,88.114 109.751,91.906 102,98.071C95.562,103.192 90.021,109.35 84,114.955C74.098,124.173 73.027,123.304 67.387,135.816C57.809,157.065 52.297,179.602 56.267,203C56.915,206.817 58.894,210.289 60,214C63.101,224.4 61.886,224.754 66.5,234.638C69.275,240.583 71.073,239.716 72.058,246.081C73.033,252.383 66.816,258.248 65,263.5C63.36,268.244 62.557,273.24 61.541,278.155C55.13,309.175 53.928,310.221 56.264,344.167C57.008,354.983 63.808,364.502 68,374.5C69.618,378.36 70.554,382.636 73.045,386C86.292,403.888 103.934,411.497 123,421C124.956,421.975 126.342,424.006 128.416,424.696C144.328,429.99 167.079,429.773 183,424.667C183.976,424.354 184.038,422.686 185,422.333C187.538,421.402 190.407,421.765 193,421C203.208,417.99 202.542,416.586 212,412C214.757,410.663 218.053,410.344 220.5,408.5C221.824,407.502 221.492,405.215 222.62,404C227.067,399.212 232.509,395.428 237.026,390.707C247.688,379.564 254.878,363.424 259,349L261,342C263.418,343.209 261.402,347.462 262.333,350C262.686,350.962 264.285,351.049 264.667,352C268.323,361.094 265.501,361.923 270.303,370.366C270.813,371.262 272.438,371.093 272.929,372C275.247,376.281 275.824,381.433 278.5,385.5C279.242,386.628 281.358,385.639 282.437,386.45C285.262,388.574 285.942,392.8 288.708,395C291.064,396.873 294.158,397.661 296.522,399.524C302.677,404.376 300.847,406.183 307.577,410.024C331.237,423.53 357.476,429.559 384.583,424.696C385.692,424.497 385.938,422.71 387,422.333C389.548,421.429 392.407,421.763 395,421C402.422,418.816 413.885,414.017 420.366,409.697C421.672,408.827 422.101,407.036 423.279,406C427.696,402.118 432.855,399.101 437.078,395.008C439.058,393.089 446.562,381.214 448.071,379C449.785,376.485 451.355,373.847 453.357,371.554C454.016,370.799 455.444,370.876 455.929,370C458.789,364.836 459.507,358.059 461,352.5C462.262,347.8 464.235,343.28 465.127,338.496C468.023,322.965 465.124,310.278 461,295.5C459.845,291.36 459.498,286.969 457.871,282.991C457.438,281.931 455.617,282.007 455.071,281C453.912,278.86 454.012,276.213 453,274C451.857,271.503 447,266.641 447,263.5L450,256.5C456.96,237.012 454.993,236.567 461.333,217C461.674,215.948 463.387,215.73 463.692,214.667C471.063,188.967 465.758,156.75 452.555,133.866C448.654,127.103 443.636,121.018 438.56,115.086C426.26,100.711 411.452,90.323 393,85C389.532,83.999 385.76,84.533 382.25,83.688C380.523,83.272 379.273,81.386 377.5,81.269C366.856,80.568 356.167,81.233 345.5,81.269C344.999,81.271 342,81.203 342,82.5M370,151C370,154.442 377.709,154.727 379,155.5C387.45,160.561 386.909,162.386 391.5,170.638C392.315,172.102 393.705,173.35 394,175C395.858,185.384 397.12,200.586 392.667,211C392.264,211.942 390.711,212.048 390.333,213C385.658,224.789 388.596,225.652 382.929,237C382.481,237.896 381.056,237.836 380.357,238.554C376.894,242.109 370.222,249.147 370,255C369.865,258.549 376.804,256.965 378,257.333C384.648,259.377 389.835,268.456 393,273.5C393.477,274.26 393.942,275.104 394,276C394.838,288.983 395.828,320.017 394,333C393.625,335.661 391.671,337.896 390,340C380.453,352.02 364.397,361.286 349,354C329.612,344.826 328,327.524 328,308L328,287L273.5,287C258.444,287 243.359,286.31 228.333,287.257C222.108,287.649 216.079,289.604 210,291C208.459,291.354 206.619,291.383 205.5,292.5C204.542,293.457 205.506,295.496 204.543,296.448C203.272,297.704 200.832,297.147 199.544,298.387C190.858,306.749 191.765,322.672 190,333C189.117,338.164 188.122,337.605 185.071,342C182.601,345.558 181.046,349.822 178,352.901C174.268,356.672 166.793,357.863 161.927,358.173C156.164,358.54 150.972,357.822 145.5,356C129.151,350.557 124.62,331.052 125.354,315.736C126.183,298.479 133.193,284.252 141,269C142.602,265.87 144.18,262.642 146.5,260C151.548,254.252 157.626,249.49 162.955,244C164.004,242.919 164.384,241.23 165.593,240.33C193.363,219.659 226.77,220.157 260,221C277.759,221.451 294.13,225.478 310.818,218.073C329.448,209.806 325.958,193.365 329.325,176.686C330.782,169.473 333.198,167.965 338,162.901C344.684,155.852 346.825,152.596 356,151C356,151 370,148.333 370,151M166,153C166,154.518 169.023,153.635 170.334,154.4C173.067,155.995 175.33,158.301 178,160C179.074,160.683 180.694,160.531 181.509,161.509C182.614,162.835 182.332,164.939 183.303,166.366C183.883,167.218 185.339,167.155 185.929,168C192.045,176.754 191,187.999 191,198L191,219L167,219C159.301,219 151.425,220.381 143.844,218.279C142.557,217.922 143.44,217.105 142.411,216.434C136.766,212.754 136.721,212.904 132,208.033C131.249,207.258 129.838,207.132 129.357,206.166C128.419,204.282 128.441,202.058 128,200C125.533,188.481 123.119,176.594 130.071,166C130.598,165.197 131.892,165.25 132.571,164.571C133.25,163.892 133.252,162.672 134,162.071C135.636,160.755 137.741,160.147 139.5,159C141.693,157.57 143.483,155.509 145.834,154.357C149.208,152.703 155.41,152.42 159,152C159.686,151.92 166,150.291 166,153"/>
    </g>
</svg>
