<svg id="svg" version="1.1" width="400" height="400" xmlns="http://www.w3.org/2000/svg" xmlns:xlink="http://www.w3.org/1999/xlink" style="display: block;"><g id="svgg"><path id="path0" d="M254.000 10.852 C 254.000 11.320,250.319 11.987,245.820 12.334 C 241.321 12.681,237.383 13.354,237.070 13.829 C 236.756 14.304,234.250 14.993,231.500 15.360 C 228.750 15.727,226.350 16.471,226.167 17.014 C 225.983 17.556,225.196 18.000,224.417 18.000 C 223.637 18.000,223.000 18.430,223.000 18.955 C 223.000 19.480,221.425 20.205,219.500 20.566 C 217.575 20.927,216.000 21.623,216.000 22.111 C 216.000 22.600,215.483 23.000,214.851 23.000 C 210.339 23.000,207.000 29.783,207.000 38.950 C 207.000 44.317,207.407 48.000,208.000 48.000 C 208.550 48.000,209.000 48.575,209.000 49.278 C 209.000 53.746,236.368 57.255,237.833 52.974 C 238.247 51.766,249.000 51.668,249.000 52.873 C 249.000 53.353,251.343 53.971,254.208 54.246 C 257.072 54.521,259.584 55.253,259.791 55.873 C 259.998 56.493,260.804 57.000,261.583 57.000 C 267.108 57.000,261.270 58.925,254.000 59.500 C 249.050 59.892,245.000 60.571,245.000 61.010 C 245.000 61.449,240.275 62.130,234.500 62.523 C 228.725 62.917,224.000 63.635,224.000 64.119 C 224.000 64.604,221.975 65.000,219.500 65.000 C 216.167 65.000,215.000 65.389,215.000 66.500 C 215.000 67.325,214.550 68.000,214.000 68.000 C 213.450 68.000,213.000 67.550,213.000 67.000 C 213.000 66.450,211.452 66.000,209.559 66.000 C 207.666 66.000,205.840 66.450,205.500 67.000 C 205.160 67.550,202.884 68.000,200.441 68.000 C 197.998 68.000,196.000 68.450,196.000 69.000 C 196.000 69.550,193.525 70.000,190.500 70.000 C 185.959 70.000,184.986 70.305,184.921 71.750 C 184.874 72.795,184.639 72.997,184.338 72.250 C 183.583 70.379,176.000 70.606,176.000 72.500 C 176.000 73.325,176.637 74.000,177.417 74.000 C 178.196 74.000,178.983 74.417,179.167 74.926 C 179.925 77.033,184.834 77.217,186.558 75.203 C 187.865 73.677,189.098 73.338,191.947 73.720 C 194.521 74.065,196.127 73.731,197.241 72.617 C 198.120 71.737,198.988 71.431,199.170 71.935 C 199.827 73.759,205.000 74.357,205.000 72.608 C 205.000 71.437,205.951 71.000,208.500 71.000 C 210.425 71.000,212.000 71.450,212.000 72.000 C 212.000 73.811,214.053 73.045,216.688 70.250 C 218.387 68.448,219.433 67.931,219.724 68.750 C 220.472 70.862,225.778 70.275,226.500 68.000 C 227.151 65.948,229.000 65.208,229.000 67.000 C 229.000 67.550,229.675 68.000,230.500 68.000 C 231.325 68.000,232.000 68.450,232.000 69.000 C 232.000 69.550,233.125 70.000,234.500 70.000 C 236.333 70.000,237.000 69.467,237.000 68.000 C 237.000 66.667,237.667 66.000,239.000 66.000 C 240.100 66.000,241.000 66.450,241.000 67.000 C 241.000 69.741,248.000 68.011,248.079 65.250 C 248.122 63.737,248.385 63.063,248.662 63.750 C 249.360 65.479,253.824 65.319,255.643 63.500 C 256.468 62.675,258.236 62.000,259.571 62.000 C 261.063 62.000,262.000 62.578,262.000 63.500 C 262.000 65.987,264.737 65.185,265.411 62.500 C 266.102 59.746,271.000 58.769,271.000 61.385 C 271.000 62.476,272.378 62.659,277.500 62.248 C 283.570 61.761,284.000 61.863,284.000 63.792 C 284.000 64.928,284.675 66.532,285.500 67.357 C 289.192 71.049,287.463 73.000,280.500 73.000 C 276.833 73.000,274.000 72.564,274.000 72.000 C 274.000 71.450,272.650 71.000,271.000 71.000 C 269.000 71.000,268.000 71.500,268.000 72.500 C 268.000 73.325,268.450 74.000,269.000 74.000 C 269.550 74.000,270.000 74.396,270.000 74.881 C 270.000 75.365,265.275 76.083,259.500 76.477 C 253.725 76.870,249.000 77.541,249.000 77.967 C 249.000 78.394,244.500 79.061,239.000 79.451 C 233.500 79.841,229.000 80.574,229.000 81.080 C 229.000 81.586,226.975 82.000,224.500 82.000 C 222.025 82.000,220.000 82.396,220.000 82.881 C 220.000 83.365,215.275 84.083,209.500 84.477 C 203.725 84.870,199.000 85.563,199.000 86.016 C 199.000 86.469,194.500 87.159,189.000 87.549 C 183.500 87.939,179.000 88.608,179.000 89.035 C 179.000 89.463,174.725 90.134,169.500 90.526 C 164.275 90.917,160.000 91.634,160.000 92.119 C 160.000 92.604,157.525 93.000,154.500 93.000 C 151.475 93.000,149.000 93.408,149.000 93.907 C 149.000 94.405,144.725 95.134,139.500 95.526 C 134.275 95.917,130.000 96.586,130.000 97.011 C 130.000 97.436,125.500 98.106,120.000 98.500 C 114.500 98.894,110.000 99.581,110.000 100.028 C 110.000 100.474,105.500 101.159,100.000 101.549 C 94.500 101.939,90.000 102.596,90.000 103.010 C 90.000 103.424,85.725 104.083,80.500 104.474 C 75.275 104.866,71.000 105.595,71.000 106.093 C 71.000 106.592,68.975 107.000,66.500 107.000 C 64.025 107.000,62.000 107.396,62.000 107.881 C 62.000 108.365,57.275 109.083,51.500 109.477 C 45.725 109.870,41.000 110.546,41.000 110.978 C 41.000 111.410,37.096 112.089,32.324 112.486 C 24.110 113.170,21.000 114.390,21.000 116.929 C 21.000 117.518,21.408 118.000,21.907 118.000 C 22.405 118.000,23.134 122.275,23.526 127.500 C 23.917 132.725,24.576 137.000,24.990 137.000 C 25.404 137.000,26.061 141.500,26.451 147.000 C 26.841 152.500,27.516 157.000,27.951 157.000 C 28.386 157.000,29.061 161.500,29.451 167.000 C 29.841 172.500,30.574 177.000,31.080 177.000 C 31.586 177.000,32.000 179.475,32.000 182.500 C 32.000 185.525,32.407 188.000,32.904 188.000 C 33.401 188.000,34.130 192.725,34.523 198.500 C 34.917 204.275,35.599 209.000,36.039 209.000 C 36.480 209.000,37.159 213.500,37.549 219.000 C 37.939 224.500,38.614 229.000,39.049 229.000 C 39.484 229.000,40.159 233.500,40.549 239.000 C 40.939 244.500,41.650 249.000,42.129 249.000 C 42.608 249.000,43.000 251.475,43.000 254.500 C 43.000 257.525,43.401 260.000,43.892 260.000 C 44.383 260.000,45.106 264.500,45.500 270.000 C 45.894 275.500,46.574 280.000,47.012 280.000 C 47.449 280.000,48.130 284.725,48.523 290.500 C 48.917 296.275,49.599 301.000,50.039 301.000 C 50.480 301.000,51.159 305.500,51.549 311.000 C 51.939 316.500,52.614 321.000,53.049 321.000 C 53.484 321.000,54.159 325.500,54.549 331.000 C 54.939 336.500,55.650 341.000,56.129 341.000 C 56.608 341.000,57.000 343.250,57.000 346.000 C 57.000 348.750,57.450 351.000,58.000 351.000 C 58.550 351.000,59.000 351.675,59.000 352.500 C 59.000 353.652,60.278 354.000,64.500 354.000 C 67.525 354.000,70.000 353.586,70.000 353.080 C 70.000 352.574,74.500 351.841,80.000 351.451 C 85.500 351.061,90.000 350.392,90.000 349.965 C 90.000 349.537,94.275 348.866,99.500 348.474 C 104.725 348.083,109.000 347.424,109.000 347.010 C 109.000 346.596,113.500 345.939,119.000 345.549 C 124.500 345.159,129.000 344.426,129.000 343.920 C 129.000 343.414,131.025 343.000,133.500 343.000 C 135.975 343.000,138.000 342.604,138.000 342.119 C 138.000 341.635,142.725 340.917,148.500 340.523 C 154.275 340.130,159.000 339.449,159.000 339.010 C 159.000 338.571,163.050 337.892,168.000 337.500 C 172.950 337.108,177.000 336.439,177.000 336.013 C 177.000 335.587,181.725 334.917,187.500 334.523 C 193.275 334.130,198.000 333.401,198.000 332.904 C 198.000 332.407,199.988 332.000,202.417 332.000 C 205.045 332.000,207.014 331.494,207.280 330.750 C 207.539 330.023,208.097 329.871,208.613 330.387 C 209.129 330.903,208.977 331.461,208.250 331.720 C 207.563 331.966,207.000 333.254,207.000 334.583 C 207.000 335.913,206.606 337.000,206.125 337.000 C 205.644 337.000,204.980 338.350,204.650 340.000 C 204.089 342.803,203.753 343.000,199.525 343.000 C 197.036 343.000,195.000 343.407,195.000 343.904 C 195.000 344.401,190.275 345.130,184.500 345.523 C 178.725 345.917,174.000 346.593,174.000 347.026 C 174.000 347.459,169.725 348.134,164.500 348.526 C 159.275 348.917,155.000 349.598,155.000 350.039 C 155.000 350.479,150.500 351.159,145.000 351.549 C 139.500 351.939,135.000 352.602,135.000 353.023 C 135.000 353.443,130.947 354.108,125.993 354.501 C 121.039 354.893,116.738 355.615,116.434 356.107 C 116.130 356.598,113.434 357.000,110.441 357.000 C 107.448 357.000,105.000 357.402,105.000 357.894 C 105.000 358.385,100.950 359.108,96.000 359.500 C 91.050 359.892,87.000 360.557,87.000 360.977 C 87.000 361.398,82.388 362.069,76.750 362.469 C 71.112 362.868,66.275 363.553,66.000 363.990 C 65.725 364.427,61.562 365.112,56.750 365.511 L 48.000 366.237 48.000 362.618 C 48.000 360.628,47.599 359.000,47.109 359.000 C 46.619 359.000,45.895 354.050,45.500 348.000 C 45.105 341.950,44.381 337.000,43.891 337.000 C 43.401 337.000,43.000 334.750,43.000 332.000 C 43.000 329.250,42.608 327.000,42.129 327.000 C 41.650 327.000,40.939 322.500,40.549 317.000 C 40.159 311.500,39.484 307.000,39.049 307.000 C 38.614 307.000,37.939 302.500,37.549 297.000 C 37.159 291.500,36.480 287.000,36.039 287.000 C 35.599 287.000,34.917 282.275,34.523 276.500 C 34.130 270.725,33.401 266.000,32.904 266.000 C 32.407 266.000,32.000 263.525,32.000 260.500 C 32.000 257.475,31.599 255.000,31.108 255.000 C 30.617 255.000,29.894 250.500,29.500 245.000 C 29.106 239.500,28.441 235.000,28.021 235.000 C 27.601 235.000,26.939 230.500,26.549 225.000 C 26.159 219.500,25.484 215.000,25.049 215.000 C 24.614 215.000,23.939 210.500,23.549 205.000 C 23.159 199.500,22.480 195.000,22.039 195.000 C 21.599 195.000,20.917 190.275,20.523 184.500 C 20.130 178.725,19.401 174.000,18.904 174.000 C 18.407 174.000,18.000 171.525,18.000 168.500 C 18.000 165.475,17.608 163.000,17.129 163.000 C 16.650 163.000,15.939 158.500,15.549 153.000 C 15.159 147.500,14.484 143.000,14.049 143.000 C 13.614 143.000,12.939 138.500,12.549 133.000 C 12.159 127.500,11.426 123.000,10.920 123.000 C 10.414 123.000,9.994 120.862,9.986 118.250 C 9.967 111.581,9.101 109.000,6.883 109.000 C 5.667 109.000,5.000 108.292,5.000 107.000 C 5.000 105.667,5.667 105.000,7.000 105.000 C 8.333 105.000,9.000 104.333,9.000 103.000 C 9.000 101.444,9.667 101.000,12.000 101.000 C 14.000 101.000,15.000 101.500,15.000 102.500 C 15.000 103.325,15.675 104.000,16.500 104.000 C 17.325 104.000,18.000 103.325,18.000 102.500 C 18.000 101.675,17.550 101.000,17.000 101.000 C 16.450 101.000,16.000 100.262,16.000 99.361 C 16.000 97.590,6.308 97.976,5.075 99.797 C 4.759 100.264,3.737 100.927,2.805 101.270 C -0.335 102.428,-0.185 138.988,2.968 140.995 C 3.405 141.273,4.089 146.113,4.489 151.750 C 4.889 157.387,5.617 162.000,6.108 162.000 C 6.599 162.000,7.000 164.475,7.000 167.500 C 7.000 170.525,7.414 173.000,7.920 173.000 C 8.426 173.000,9.159 177.500,9.549 183.000 C 9.939 188.500,10.614 193.000,11.049 193.000 C 11.484 193.000,12.159 197.500,12.549 203.000 C 12.939 208.500,13.596 213.000,14.009 213.000 C 14.423 213.000,15.083 217.725,15.477 223.500 C 15.870 229.275,16.599 234.000,17.096 234.000 C 17.593 234.000,18.000 236.475,18.000 239.500 C 18.000 242.525,18.414 245.000,18.920 245.000 C 19.426 245.000,20.159 249.500,20.549 255.000 C 20.939 260.500,21.614 265.000,22.049 265.000 C 22.484 265.000,23.159 269.500,23.549 275.000 C 23.939 280.500,24.601 285.000,25.021 285.000 C 25.441 285.000,26.106 289.500,26.500 295.000 C 26.894 300.500,27.563 305.000,27.988 305.000 C 28.413 305.000,29.083 309.725,29.477 315.500 C 29.870 321.275,30.599 326.000,31.096 326.000 C 31.593 326.000,32.000 328.475,32.000 331.500 C 32.000 334.525,32.414 337.000,32.920 337.000 C 33.426 337.000,34.159 341.500,34.549 347.000 C 34.939 352.500,35.592 357.000,36.000 357.000 C 36.408 357.000,37.056 360.600,37.440 365.000 C 37.823 369.400,38.557 373.000,39.069 373.000 C 39.581 373.000,40.000 373.575,40.000 374.278 C 40.000 378.700,63.326 382.253,65.879 378.220 C 66.221 377.680,71.113 376.911,76.750 376.511 C 82.388 376.111,87.000 375.419,87.000 374.972 C 87.000 374.526,91.500 373.841,97.000 373.451 C 102.500 373.061,107.000 372.392,107.000 371.965 C 107.000 371.537,111.275 370.866,116.500 370.474 C 121.725 370.083,126.000 369.366,126.000 368.881 C 126.000 368.396,128.025 368.000,130.500 368.000 C 132.975 368.000,135.000 367.608,135.000 367.129 C 135.000 366.650,139.500 365.939,145.000 365.549 C 150.500 365.159,155.000 364.474,155.000 364.028 C 155.000 363.581,159.613 362.889,165.250 362.489 C 170.887 362.089,175.725 361.419,176.000 361.000 C 176.275 360.582,180.213 359.913,184.750 359.515 L 193.000 358.792 193.000 361.896 C 193.000 363.603,193.414 365.000,193.921 365.000 C 194.427 365.000,195.138 366.350,195.500 368.000 C 195.862 369.650,196.524 371.000,196.971 371.000 C 197.418 371.000,198.064 372.118,198.407 373.485 C 198.785 374.991,199.981 376.208,201.443 376.575 C 202.770 376.908,204.099 377.815,204.396 378.590 C 204.694 379.366,205.851 380.000,206.969 380.000 C 208.086 380.000,209.000 380.450,209.000 381.000 C 209.000 381.550,209.862 382.000,210.917 382.000 C 211.971 382.000,213.021 382.562,213.249 383.250 C 213.557 384.172,217.421 384.500,227.997 384.500 C 238.573 384.500,242.439 384.172,242.748 383.250 C 242.978 382.562,243.601 382.000,244.133 382.000 C 245.511 382.000,252.000 375.524,252.000 374.149 C 252.000 373.517,252.445 373.000,252.988 373.000 C 253.532 373.000,254.264 371.200,254.616 369.000 C 254.968 366.800,255.648 365.000,256.128 365.000 C 256.608 365.000,257.000 363.875,257.000 362.500 C 257.000 361.125,257.398 360.000,257.885 360.000 C 258.371 360.000,259.079 357.525,259.457 354.501 C 260.046 349.783,260.489 348.915,262.572 348.393 C 263.907 348.057,265.000 347.430,265.000 346.998 C 265.000 346.566,269.053 345.892,274.007 345.499 C 278.961 345.107,283.262 344.385,283.566 343.893 C 283.870 343.402,286.116 343.000,288.559 343.000 C 291.002 343.000,293.000 342.608,293.000 342.129 C 293.000 341.650,297.500 340.939,303.000 340.549 C 308.500 340.159,313.000 339.469,313.000 339.016 C 313.000 338.563,317.725 337.870,323.500 337.477 C 329.275 337.083,334.000 336.413,334.000 335.987 C 334.000 335.561,338.050 334.892,343.000 334.500 C 347.950 334.108,352.000 333.385,352.000 332.894 C 352.000 332.402,354.475 332.000,357.500 332.000 C 360.525 332.000,363.000 331.612,363.000 331.137 C 363.000 330.662,365.982 330.034,369.626 329.742 C 373.270 329.449,376.533 328.773,376.876 328.240 C 377.219 327.706,378.512 326.954,379.750 326.567 C 380.988 326.181,382.000 325.221,382.000 324.433 C 382.000 323.645,382.450 323.000,383.000 323.000 C 383.603 323.000,384.000 318.833,384.000 312.500 C 384.000 306.167,383.603 302.000,383.000 302.000 C 382.450 302.000,382.000 299.975,382.000 297.500 C 382.000 295.025,381.592 293.000,381.093 293.000 C 380.595 293.000,379.866 288.725,379.474 283.500 C 379.083 278.275,378.408 274.000,377.974 274.000 C 377.541 274.000,376.866 269.725,376.474 264.500 C 376.083 259.275,375.413 255.000,374.987 255.000 C 374.561 255.000,373.892 250.950,373.500 246.000 C 373.108 241.050,372.443 237.000,372.023 237.000 C 371.602 237.000,370.939 232.504,370.549 227.010 C 370.160 221.515,369.427 216.764,368.921 216.451 C 368.414 216.138,368.000 213.884,368.000 211.441 C 368.000 208.998,367.592 207.000,367.093 207.000 C 366.595 207.000,365.866 202.725,365.474 197.500 C 365.083 192.275,364.413 188.000,363.987 188.000 C 363.561 188.000,362.892 183.950,362.500 179.000 C 362.108 174.050,361.429 170.000,360.990 170.000 C 360.551 170.000,359.870 165.275,359.477 159.500 C 359.083 153.725,358.365 149.000,357.881 149.000 C 357.396 149.000,357.000 146.975,357.000 144.500 C 357.000 142.025,356.604 140.000,356.119 140.000 C 355.634 140.000,354.917 135.725,354.526 130.500 C 354.134 125.275,353.453 121.000,353.013 121.000 C 352.573 121.000,351.886 116.838,351.487 111.750 C 351.088 106.663,350.432 102.275,350.029 102.000 C 349.627 101.725,348.984 98.377,348.601 94.560 L 347.905 87.620 351.341 91.263 C 353.231 93.267,355.952 95.201,357.388 95.561 C 358.825 95.922,360.000 96.586,360.000 97.036 C 360.000 97.487,362.475 98.165,365.500 98.543 C 368.525 98.921,371.000 99.629,371.000 100.115 C 371.000 100.602,373.925 101.000,377.500 101.000 C 381.167 101.000,384.000 100.564,384.000 100.000 C 384.000 99.450,384.575 99.000,385.278 99.000 C 387.017 99.000,389.816 95.580,390.586 92.515 C 390.933 91.132,391.618 90.000,392.108 90.000 C 392.599 90.000,393.000 88.875,393.000 87.500 C 393.000 86.125,393.399 85.000,393.886 85.000 C 394.374 85.000,395.077 82.975,395.448 80.500 C 395.819 78.025,396.486 76.000,396.930 76.000 C 397.933 76.000,400.000 60.340,400.000 52.747 C 400.000 43.048,396.966 38.487,389.764 37.362 C 387.419 36.996,385.215 36.261,384.867 35.729 C 383.957 34.338,365.674 34.479,365.206 35.881 C 364.766 37.201,360.000 37.410,360.000 36.108 C 360.000 35.618,358.875 34.934,357.500 34.589 C 356.125 34.244,355.000 33.575,355.000 33.102 C 355.000 31.199,346.750 23.900,343.971 23.344 C 342.337 23.017,341.000 22.377,341.000 21.920 C 341.000 21.464,339.425 20.795,337.500 20.434 C 335.575 20.073,334.000 19.377,334.000 18.889 C 334.000 18.400,332.875 18.000,331.500 18.000 C 330.125 18.000,329.000 17.594,329.000 17.098 C 329.000 16.602,326.188 15.873,322.750 15.478 C 319.313 15.083,316.256 14.375,315.957 13.906 C 315.659 13.437,312.171 12.751,308.207 12.383 C 304.243 12.014,301.000 11.327,301.000 10.856 C 301.000 9.444,287.251 9.820,286.583 11.250 C 286.117 12.250,285.883 12.250,285.417 11.250 C 284.737 9.794,254.000 9.404,254.000 10.852 M166.000 74.500 C 166.000 75.548,167.056 76.000,169.500 76.000 C 171.944 76.000,173.000 76.452,173.000 77.500 C 173.000 78.325,173.675 79.000,174.500 79.000 C 175.325 79.000,176.000 78.325,176.000 77.500 C 176.000 76.675,175.550 76.000,175.000 76.000 C 174.450 76.000,174.000 75.325,174.000 74.500 C 174.000 73.417,172.889 73.000,170.000 73.000 C 167.111 73.000,166.000 73.417,166.000 74.500 M155.000 75.000 C 155.000 75.550,152.975 76.000,150.500 76.000 C 146.911 76.000,145.984 76.354,145.921 77.750 C 145.874 78.795,145.639 78.997,145.338 78.250 C 144.583 76.379,137.000 76.606,137.000 78.500 C 137.000 79.500,138.000 80.000,140.000 80.000 C 142.333 80.000,143.000 80.444,143.000 82.000 C 143.000 83.100,143.482 84.000,144.071 84.000 C 145.517 84.000,148.000 81.431,148.000 79.936 C 148.000 79.080,149.311 78.908,152.500 79.345 C 156.085 79.836,157.000 79.661,157.000 78.481 C 157.000 77.502,158.017 77.000,160.000 77.000 C 162.000 77.000,163.000 77.500,163.000 78.500 C 163.000 79.325,163.675 80.000,164.500 80.000 C 166.070 80.000,166.421 78.262,165.393 75.582 C 164.705 73.788,155.000 73.245,155.000 75.000 M287.000 85.000 C 287.000 89.667,286.583 93.000,286.000 93.000 C 285.450 93.000,285.000 94.125,285.000 95.500 C 285.000 97.056,284.433 98.000,283.500 98.000 C 282.675 98.000,282.000 98.675,282.000 99.500 C 282.000 100.325,282.613 101.000,283.361 101.000 C 284.274 101.000,284.565 101.824,284.245 103.500 C 283.982 104.875,283.171 106.000,282.442 106.000 C 280.528 106.000,279.588 107.988,280.887 109.287 C 282.221 110.621,282.370 115.653,281.098 116.439 C 280.603 116.746,279.883 119.697,279.500 122.998 C 279.117 126.299,278.430 129.000,277.974 129.000 C 277.517 129.000,276.835 131.475,276.457 134.500 C 276.079 137.525,275.404 140.000,274.957 140.000 C 274.510 140.000,273.835 142.475,273.457 145.500 C 273.079 148.525,272.399 151.000,271.946 151.000 C 271.493 151.000,270.819 153.025,270.448 155.500 C 270.077 157.975,269.374 160.000,268.886 160.000 C 268.399 160.000,268.000 161.125,268.000 162.500 C 268.000 163.875,267.555 165.000,267.012 165.000 C 266.468 165.000,265.736 166.800,265.384 169.000 C 265.032 171.200,264.372 173.000,263.918 173.000 C 263.463 173.000,262.795 174.575,262.434 176.500 C 262.073 178.425,261.377 180.000,260.889 180.000 C 260.400 180.000,260.000 181.125,260.000 182.500 C 260.000 185.359,257.777 185.850,255.789 183.430 C 255.080 182.566,253.713 181.116,252.750 180.207 C 251.787 179.299,251.000 178.153,251.000 177.661 C 251.000 177.169,249.200 175.019,247.000 172.884 C 244.800 170.749,243.000 168.551,243.000 168.000 C 243.000 167.449,241.200 165.251,239.000 163.116 C 236.800 160.981,235.000 158.805,235.000 158.281 C 235.000 157.757,233.200 155.712,231.000 153.737 C 228.800 151.762,227.000 149.726,227.000 149.213 C 227.000 148.700,225.425 146.610,223.500 144.569 C 221.575 142.528,220.000 140.215,220.000 139.429 C 220.000 138.643,219.585 138.000,219.077 138.000 C 217.745 138.000,212.002 132.062,211.990 130.673 C 211.985 130.028,210.189 127.925,208.000 126.000 C 205.811 124.075,204.015 122.144,204.010 121.708 C 203.999 120.823,202.795 119.297,198.750 115.045 C 197.238 113.455,196.000 111.860,196.000 111.500 C 196.000 111.141,193.064 107.896,189.476 104.291 L 182.953 97.735 178.342 98.367 C 175.266 98.788,172.959 99.831,171.413 101.499 C 170.138 102.875,168.499 104.000,167.770 104.000 C 163.511 104.000,160.082 115.939,163.390 119.247 C 164.276 120.133,165.004 121.227,165.010 121.679 C 165.015 122.130,166.811 124.075,169.000 126.000 C 171.189 127.925,172.985 130.041,172.990 130.702 C 172.996 131.363,174.575 133.433,176.500 135.303 C 178.425 137.172,180.000 139.027,180.000 139.425 C 180.000 139.822,182.210 142.334,184.912 145.007 C 187.613 147.680,190.111 150.774,190.463 151.883 C 190.814 152.991,191.956 154.169,193.000 154.500 C 194.044 154.831,195.176 155.979,195.516 157.051 C 195.856 158.123,196.554 159.000,197.067 159.000 C 197.580 159.000,198.000 159.517,198.000 160.149 C 198.000 160.781,199.575 162.828,201.500 164.697 C 203.425 166.567,205.000 168.538,205.000 169.079 C 205.000 169.619,207.187 172.185,209.859 174.781 C 212.532 177.376,215.037 180.512,215.427 181.750 C 215.816 182.987,216.489 184.000,216.921 184.000 C 218.090 184.000,223.000 188.751,223.000 189.881 C 223.000 190.418,224.575 192.528,226.500 194.569 C 228.425 196.610,230.000 198.442,230.000 198.640 C 230.000 199.517,228.949 198.795,226.154 196.000 C 223.222 193.068,215.000 191.499,215.000 193.871 C 215.000 194.350,210.500 195.061,205.000 195.451 C 199.500 195.841,195.000 196.526,195.000 196.972 C 195.000 197.419,190.387 198.111,184.750 198.511 C 179.113 198.911,174.275 199.568,174.000 199.970 C 172.868 201.627,160.000 202.139,160.000 200.528 C 160.000 199.688,160.445 199.000,160.988 199.000 C 161.532 199.000,162.264 197.200,162.616 195.000 C 162.968 192.800,163.628 191.000,164.082 191.000 C 164.537 191.000,165.205 189.425,165.566 187.500 C 165.927 185.575,166.623 184.000,167.111 184.000 C 167.600 184.000,168.000 183.100,168.000 182.000 C 168.000 180.900,168.422 180.000,168.939 180.000 C 169.455 180.000,170.196 177.877,170.585 175.282 C 170.974 172.688,171.902 169.956,172.646 169.211 C 173.391 168.466,174.000 167.214,174.000 166.429 C 174.000 165.643,174.392 165.000,174.872 165.000 C 175.352 165.000,176.026 163.238,176.371 161.084 C 176.715 158.930,177.432 157.017,177.964 156.834 C 182.833 155.153,178.637 140.000,173.301 140.000 C 172.127 140.000,170.986 139.457,170.764 138.793 C 169.032 133.596,152.930 137.445,151.432 143.415 C 151.075 144.837,150.439 146.000,150.019 146.000 C 149.599 146.000,148.968 147.800,148.616 150.000 C 148.264 152.200,147.532 154.000,146.988 154.000 C 146.445 154.000,146.000 155.350,146.000 157.000 C 146.000 158.650,146.450 160.000,147.000 160.000 C 147.550 160.000,148.000 160.450,148.000 161.000 C 148.000 161.550,146.875 162.000,145.500 162.000 C 143.667 162.000,143.000 162.533,143.000 164.000 C 143.000 165.100,142.590 166.000,142.088 166.000 C 141.586 166.000,140.872 167.800,140.500 170.000 C 140.128 172.200,139.419 174.000,138.924 174.000 C 138.429 174.000,137.736 175.800,137.384 178.000 C 137.032 180.200,136.357 182.000,135.884 182.000 C 135.411 182.000,134.736 183.800,134.384 186.000 C 134.032 188.200,133.352 190.000,132.872 190.000 C 132.392 190.000,132.000 190.675,132.000 191.500 C 132.000 192.325,131.608 193.000,131.128 193.000 C 130.648 193.000,129.968 194.800,129.616 197.000 C 129.264 199.200,128.571 201.000,128.076 201.000 C 127.581 201.000,126.880 202.748,126.519 204.885 L 125.863 208.770 115.431 209.481 C 109.694 209.873,105.000 210.563,105.000 211.016 C 105.000 211.469,100.500 212.159,95.000 212.549 C 89.500 212.939,85.000 213.650,85.000 214.129 C 85.000 214.608,83.537 215.005,81.750 215.011 C 73.264 215.040,71.000 216.013,71.000 219.631 C 71.000 221.484,71.414 223.000,71.920 223.000 C 72.426 223.000,73.159 227.500,73.549 233.000 L 74.258 243.000 79.629 243.000 C 82.583 243.000,85.000 242.599,85.000 242.108 C 85.000 241.617,89.500 240.894,95.000 240.500 C 100.500 240.106,105.000 239.383,105.000 238.892 C 105.000 238.401,106.617 238.000,108.594 238.000 C 111.346 238.000,112.310 237.532,112.710 236.000 C 113.320 233.669,115.000 233.302,115.000 235.500 C 115.000 236.325,114.555 237.000,114.012 237.000 C 113.468 237.000,112.736 238.800,112.384 241.000 C 112.032 243.200,111.372 245.000,110.918 245.000 C 110.463 245.000,109.795 246.575,109.434 248.500 C 109.073 250.425,108.487 252.000,108.133 252.000 C 107.355 252.000,105.363 256.458,104.448 260.250 C 104.082 261.762,103.382 263.000,102.892 263.000 C 100.873 263.000,102.049 267.783,104.250 268.524 C 106.420 269.255,106.402 269.297,103.750 269.708 C 101.227 270.098,101.000 270.500,101.000 274.566 C 101.000 277.005,100.595 279.000,100.101 279.000 C 99.606 279.000,98.877 284.625,98.480 291.500 C 98.084 298.375,97.364 304.000,96.880 304.000 C 96.396 304.000,96.000 307.150,96.000 311.000 C 96.000 315.311,96.412 318.000,97.071 318.000 C 98.357 318.000,101.000 315.494,101.000 314.275 C 101.000 313.797,102.331 312.302,103.958 310.953 C 105.584 309.604,106.934 307.916,106.958 307.202 C 106.981 306.488,108.125 304.862,109.500 303.588 C 110.875 302.313,112.000 300.851,112.000 300.338 C 112.000 299.826,113.331 298.302,114.958 296.953 C 116.584 295.604,117.953 293.825,118.000 293.000 C 118.047 292.175,119.416 290.396,121.042 289.047 C 122.669 287.698,124.000 286.203,124.000 285.725 C 124.000 285.248,124.675 284.182,125.500 283.357 C 127.570 281.287,127.419 277.256,125.250 276.689 C 124.202 276.415,124.631 276.185,126.321 276.116 C 129.439 275.988,132.000 273.965,132.000 271.630 C 132.000 270.799,132.399 269.871,132.887 269.570 C 133.374 269.269,134.070 267.442,134.432 265.511 C 134.794 263.580,135.463 262.000,135.918 262.000 C 136.372 262.000,137.032 260.200,137.384 258.000 C 137.736 255.800,138.411 254.000,138.884 254.000 C 139.357 254.000,140.032 252.200,140.384 250.000 C 140.736 247.800,141.468 246.000,142.012 246.000 C 142.555 246.000,143.000 244.875,143.000 243.500 C 143.000 242.125,143.430 241.000,143.955 241.000 C 144.480 241.000,145.205 239.425,145.566 237.500 C 145.927 235.575,146.572 234.000,147.000 234.000 C 147.428 234.000,148.073 232.425,148.434 230.500 C 149.188 226.480,151.000 225.774,151.000 229.500 C 151.000 231.056,151.567 232.000,152.500 232.000 C 153.325 232.000,154.000 231.586,154.000 231.080 C 154.000 230.574,158.500 229.841,164.000 229.451 C 169.500 229.061,174.000 228.404,174.000 227.990 C 174.000 227.576,178.275 226.917,183.500 226.526 C 188.725 226.134,193.000 225.463,193.000 225.035 C 193.000 224.608,197.500 223.939,203.000 223.549 C 208.500 223.159,213.000 222.479,213.000 222.039 C 213.000 221.598,217.275 220.917,222.500 220.526 C 227.725 220.134,232.000 219.405,232.000 218.907 C 232.000 218.408,234.025 218.000,236.500 218.000 C 241.191 218.000,243.396 213.857,239.500 212.362 C 238.675 212.045,238.000 211.159,238.000 210.393 C 238.000 209.627,236.200 207.200,234.000 205.000 C 231.800 202.800,230.415 201.000,230.923 201.000 C 232.295 201.000,240.000 209.213,240.000 210.676 C 240.000 211.870,245.162 216.000,246.656 216.000 C 247.423 216.000,248.000 217.073,248.000 218.500 C 248.000 219.875,247.608 221.000,247.128 221.000 C 246.648 221.000,245.968 222.800,245.616 225.000 C 245.264 227.200,244.532 229.000,243.988 229.000 C 243.445 229.000,243.000 230.125,243.000 231.500 C 243.000 232.875,242.578 234.000,242.061 234.000 C 241.545 234.000,240.819 236.025,240.448 238.500 C 240.077 240.975,239.425 243.000,239.000 243.000 C 238.575 243.000,237.923 245.025,237.552 247.500 C 237.181 249.975,236.460 252.000,235.951 252.000 C 235.441 252.000,234.736 253.800,234.384 256.000 C 234.032 258.200,233.352 260.000,232.872 260.000 C 232.392 260.000,232.000 261.125,232.000 262.500 C 232.000 263.875,231.601 265.000,231.114 265.000 C 230.626 265.000,229.923 267.025,229.552 269.500 C 229.181 271.975,228.513 274.000,228.067 274.000 C 227.621 274.000,226.968 275.800,226.616 278.000 C 226.264 280.200,225.583 282.000,225.102 282.000 C 224.621 282.000,223.923 284.025,223.552 286.500 C 223.181 288.975,222.506 291.000,222.052 291.000 C 221.598 291.000,220.907 293.137,220.516 295.750 C 219.682 301.316,218.926 301.964,213.250 301.985 C 210.912 301.993,209.000 302.396,209.000 302.881 C 209.000 303.365,204.275 304.083,198.500 304.477 C 192.725 304.870,188.000 305.599,188.000 306.096 C 188.000 306.593,185.975 307.000,183.500 307.000 C 181.025 307.000,179.000 307.392,179.000 307.871 C 179.000 308.350,174.500 309.061,169.000 309.451 C 163.500 309.841,159.000 310.531,159.000 310.984 C 159.000 311.437,154.275 312.130,148.500 312.523 C 142.725 312.917,138.000 313.587,138.000 314.013 C 138.000 314.439,133.950 315.108,129.000 315.500 C 124.050 315.892,120.000 316.615,120.000 317.106 C 120.000 317.598,117.525 318.000,114.500 318.000 C 111.475 318.000,109.000 318.396,109.000 318.881 C 109.000 319.366,104.725 320.083,99.500 320.474 C 94.275 320.866,90.000 321.537,90.000 321.965 C 90.000 322.392,85.500 323.061,80.000 323.451 C 74.500 323.841,70.000 324.533,70.000 324.988 C 70.000 325.443,67.524 325.969,64.499 326.157 C 59.081 326.495,58.997 326.458,58.999 323.750 C 58.999 322.238,58.550 321.000,58.000 321.000 C 57.450 321.000,57.000 318.975,57.000 316.500 C 57.000 314.025,56.604 312.000,56.119 312.000 C 55.635 312.000,54.917 307.275,54.523 301.500 C 54.130 295.725,53.455 291.000,53.023 291.000 C 52.592 291.000,51.917 286.275,51.523 280.500 C 51.130 274.725,50.444 270.000,50.000 270.000 C 49.556 270.000,48.870 265.275,48.477 259.500 C 48.083 253.725,47.401 249.000,46.961 249.000 C 46.520 249.000,45.841 244.500,45.451 239.000 C 45.061 233.500,44.350 229.000,43.871 229.000 C 43.392 229.000,43.000 226.975,43.000 224.500 C 43.000 222.025,42.599 220.000,42.109 220.000 C 41.619 220.000,40.895 215.050,40.500 209.000 C 40.105 202.950,39.424 198.000,38.987 198.000 C 38.550 198.000,37.870 193.275,37.477 187.500 C 37.083 181.725,36.401 177.000,35.961 177.000 C 35.520 177.000,34.841 172.500,34.451 167.000 C 34.061 161.500,33.350 157.000,32.871 157.000 C 32.392 157.000,32.000 154.975,32.000 152.500 C 32.000 150.025,31.599 148.000,31.109 148.000 C 30.619 148.000,29.895 143.050,29.500 137.000 C 29.105 130.950,28.381 126.000,27.891 126.000 C 27.401 126.000,27.000 124.200,27.000 122.000 C 27.000 118.400,27.250 118.000,29.500 118.000 C 30.875 118.000,32.000 117.592,32.000 117.093 C 32.000 116.595,36.275 115.866,41.500 115.474 C 46.725 115.083,51.000 114.424,51.000 114.010 C 51.000 113.596,55.500 112.939,61.000 112.549 C 66.500 112.159,71.000 111.462,71.000 111.000 C 71.000 110.538,75.500 109.841,81.000 109.451 C 86.500 109.061,91.000 108.350,91.000 107.871 C 91.000 107.392,93.250 107.000,96.000 107.000 C 98.750 107.000,101.000 106.592,101.000 106.093 C 101.000 105.595,105.275 104.866,110.500 104.474 C 115.725 104.083,120.000 103.414,120.000 102.989 C 120.000 102.564,124.500 101.894,130.000 101.500 C 135.500 101.106,140.000 100.419,140.000 99.972 C 140.000 99.526,144.500 98.841,150.000 98.451 C 155.500 98.061,160.000 97.404,160.000 96.990 C 160.000 96.576,164.275 95.917,169.500 95.526 C 174.725 95.134,179.000 94.405,179.000 93.907 C 179.000 93.408,181.475 93.000,184.500 93.000 C 187.525 93.000,190.000 92.592,190.000 92.093 C 190.000 91.595,194.275 90.866,199.500 90.474 C 204.725 90.083,209.000 89.402,209.000 88.961 C 209.000 88.521,213.500 87.841,219.000 87.451 C 224.500 87.061,229.000 86.392,229.000 85.965 C 229.000 85.537,233.275 84.866,238.500 84.474 C 243.725 84.083,248.000 83.366,248.000 82.881 C 248.000 82.396,250.438 82.000,253.417 82.000 C 256.396 82.000,258.983 81.610,259.167 81.133 C 259.848 79.360,271.000 78.695,271.000 80.428 C 271.000 81.508,271.939 82.000,274.000 82.000 C 276.000 82.000,277.000 81.500,277.000 80.500 C 277.000 79.675,277.675 79.000,278.500 79.000 C 279.325 79.000,280.000 78.550,280.000 78.000 C 280.000 77.450,281.575 77.000,283.500 77.000 L 287.000 77.000 287.000 85.000 M121.595 79.907 C 117.948 80.348,116.491 81.013,115.915 82.500 C 115.489 83.600,115.109 83.938,115.070 83.250 C 114.963 81.334,107.000 81.581,107.000 83.500 C 107.000 84.500,108.000 85.000,110.000 85.000 C 112.000 85.000,113.000 85.500,113.000 86.500 C 113.000 87.325,113.413 88.000,113.918 88.000 C 116.039 88.000,118.000 86.682,118.000 85.257 C 118.000 84.020,118.860 83.846,122.500 84.345 C 126.085 84.836,127.000 84.661,127.000 83.481 C 127.000 82.455,128.076 82.000,130.500 82.000 C 132.944 82.000,134.000 82.452,134.000 83.500 C 134.000 84.325,134.675 85.000,135.500 85.000 C 137.531 85.000,137.461 80.391,135.418 79.607 C 133.640 78.925,128.866 79.028,121.595 79.907 M337.468 85.750 C 337.813 89.463,338.476 93.206,338.942 94.068 C 339.409 94.931,340.116 99.544,340.513 104.318 C 340.911 109.093,341.633 113.000,342.118 113.000 C 342.603 113.000,343.000 115.250,343.000 118.000 C 343.000 120.750,343.402 123.000,343.894 123.000 C 344.385 123.000,345.108 127.050,345.500 132.000 C 345.892 136.950,346.561 141.000,346.987 141.000 C 347.413 141.000,348.083 145.275,348.474 150.500 C 348.866 155.725,349.541 160.000,349.974 160.000 C 350.408 160.000,351.083 164.275,351.474 169.500 C 351.866 174.725,352.537 179.000,352.965 179.000 C 353.392 179.000,354.061 183.500,354.451 189.000 C 354.841 194.500,355.574 199.000,356.080 199.000 C 356.586 199.000,357.000 201.250,357.000 204.000 C 357.000 206.750,357.402 209.000,357.894 209.000 C 358.385 209.000,359.108 213.050,359.500 218.000 C 359.892 222.950,360.561 227.000,360.987 227.000 C 361.413 227.000,362.083 231.275,362.474 236.500 C 362.866 241.725,363.553 246.000,364.000 246.000 C 364.447 246.000,365.134 250.275,365.526 255.500 C 365.917 260.725,366.634 265.000,367.119 265.000 C 367.604 265.000,368.000 267.475,368.000 270.500 C 368.000 273.525,368.408 276.000,368.907 276.000 C 369.405 276.000,370.134 280.275,370.526 285.500 C 370.917 290.725,371.581 295.000,372.001 295.000 C 372.420 295.000,373.090 298.938,373.489 303.750 C 373.888 308.563,374.716 312.813,375.328 313.196 C 377.387 314.482,374.967 315.407,368.462 315.822 C 364.908 316.048,362.000 316.631,362.000 317.116 C 362.000 317.602,359.750 318.000,357.000 318.000 C 354.250 318.000,352.000 318.414,352.000 318.920 C 352.000 319.426,347.500 320.159,342.000 320.549 C 336.500 320.939,332.000 321.608,332.000 322.035 C 332.000 322.463,327.725 323.134,322.500 323.526 C 317.275 323.917,313.000 324.576,313.000 324.990 C 313.000 325.404,308.500 326.061,303.000 326.451 C 297.500 326.841,293.000 327.532,293.000 327.987 C 293.000 328.441,288.718 329.134,283.485 329.527 C 278.251 329.919,273.725 330.636,273.426 331.120 C 273.127 331.604,270.659 332.000,267.941 332.000 C 265.223 332.000,263.000 332.450,263.000 333.000 C 263.000 333.550,260.947 334.000,258.439 334.000 L 253.877 334.000 254.576 329.250 C 254.960 326.637,255.662 324.350,256.137 324.167 C 256.612 323.983,257.000 322.521,257.000 320.917 C 257.000 319.313,257.414 318.000,257.920 318.000 C 258.427 318.000,259.154 315.075,259.537 311.500 C 259.920 307.925,260.586 305.000,261.018 305.000 C 261.450 305.000,262.117 302.300,262.500 299.000 C 262.883 295.700,263.566 293.000,264.019 293.000 C 264.471 293.000,265.154 290.075,265.537 286.500 C 265.920 282.925,266.631 280.000,267.116 280.000 C 267.602 280.000,268.000 278.677,268.000 277.059 C 268.000 275.441,268.408 273.866,268.906 273.558 C 269.405 273.250,270.130 270.636,270.518 267.749 C 270.906 264.862,271.573 262.050,272.001 261.500 C 272.428 260.950,273.097 257.688,273.487 254.250 C 273.877 250.812,274.550 248.000,274.982 248.000 C 275.414 248.000,276.080 245.075,276.463 241.500 C 276.846 237.925,277.529 235.000,277.981 235.000 C 278.434 235.000,279.117 232.300,279.500 229.000 C 279.883 225.700,280.602 223.000,281.098 223.000 C 281.594 223.000,282.000 221.425,282.000 219.500 C 282.000 217.575,282.406 216.000,282.902 216.000 C 283.398 216.000,284.117 213.300,284.500 210.000 C 284.883 206.700,285.566 204.000,286.019 204.000 C 286.471 204.000,287.154 201.075,287.537 197.500 C 287.920 193.925,288.631 191.000,289.116 191.000 C 289.602 191.000,290.000 190.100,290.000 189.000 C 290.000 187.552,290.667 187.000,292.417 187.000 C 293.746 187.000,294.983 186.572,295.167 186.049 C 295.350 185.525,298.471 184.795,302.101 184.426 C 309.520 183.671,309.957 184.105,309.986 192.250 C 309.994 194.313,310.450 196.000,311.000 196.000 C 311.550 196.000,312.000 197.350,312.000 199.000 C 312.000 201.833,311.778 202.000,308.000 202.000 C 305.800 202.000,304.000 202.450,304.000 203.000 C 304.000 203.550,302.538 204.005,300.750 204.011 C 293.922 204.034,290.000 205.172,290.000 207.131 C 290.000 208.730,290.795 209.000,295.500 209.000 C 298.525 209.000,301.000 208.550,301.000 208.000 C 301.000 207.450,303.475 207.000,306.500 207.000 C 309.525 207.000,312.000 206.550,312.000 206.000 C 312.000 205.450,312.953 205.000,314.118 205.000 C 316.366 205.000,316.158 188.003,313.900 187.167 C 313.405 186.983,313.000 185.071,313.000 182.917 L 313.000 179.000 308.750 179.051 C 306.413 179.080,301.462 179.440,297.750 179.853 C 291.636 180.533,291.000 180.434,291.000 178.802 C 291.000 177.811,291.450 177.000,292.000 177.000 C 292.550 177.000,293.000 174.552,293.000 171.559 C 293.000 168.566,293.408 165.866,293.906 165.558 C 294.405 165.250,295.122 162.748,295.500 159.999 C 295.878 157.249,296.580 155.000,297.059 155.000 C 297.539 155.000,298.230 152.750,298.594 150.000 C 298.959 147.250,299.607 145.000,300.035 145.000 C 300.463 145.000,301.122 142.750,301.500 140.000 C 301.878 137.250,302.544 135.000,302.980 135.000 C 303.416 135.000,304.077 132.975,304.448 130.500 C 304.819 128.025,305.545 126.000,306.061 126.000 C 306.578 126.000,307.000 124.875,307.000 123.500 C 307.000 122.125,307.399 121.000,307.886 121.000 C 308.374 121.000,309.077 118.975,309.448 116.500 C 309.819 114.025,310.503 112.000,310.967 112.000 C 311.432 112.000,312.122 109.750,312.500 107.000 C 312.878 104.250,313.560 102.000,314.014 102.000 C 314.469 102.000,315.138 100.650,315.500 99.000 C 315.862 97.350,316.573 96.000,317.079 96.000 C 317.586 96.000,318.000 94.875,318.000 93.500 C 318.000 92.125,318.450 91.000,319.000 91.000 C 319.550 91.000,320.000 90.325,320.000 89.500 C 320.000 88.675,320.612 88.000,321.361 88.000 C 322.708 88.000,323.972 94.566,323.991 101.667 C 323.996 103.408,324.477 104.992,325.060 105.187 C 325.643 105.381,326.383 109.018,326.704 113.270 C 327.026 117.521,327.632 121.000,328.051 121.000 C 328.470 121.000,329.134 125.275,329.526 130.500 C 329.917 135.725,330.634 140.000,331.119 140.000 C 331.604 140.000,332.000 142.475,332.000 145.500 C 332.000 148.525,332.397 151.000,332.882 151.000 C 333.367 151.000,334.082 154.825,334.471 159.500 C 334.861 164.175,335.553 168.000,336.010 168.000 C 336.466 168.000,337.159 172.500,337.549 178.000 C 337.939 183.500,338.596 188.000,339.010 188.000 C 339.424 188.000,340.083 192.275,340.474 197.500 C 340.866 202.725,341.595 207.000,342.093 207.000 C 342.592 207.000,343.000 209.025,343.000 211.500 C 343.000 213.975,343.396 216.000,343.881 216.000 C 344.366 216.000,345.083 220.275,345.474 225.500 C 345.866 230.725,346.541 235.000,346.974 235.000 C 347.408 235.000,348.083 239.275,348.474 244.500 C 348.866 249.725,349.553 254.000,350.000 254.000 C 350.447 254.000,351.134 258.275,351.526 263.500 C 351.917 268.725,352.634 273.000,353.119 273.000 C 353.604 273.000,354.000 274.575,354.000 276.500 C 354.000 279.917,353.905 280.000,350.000 280.000 C 347.800 280.000,346.000 280.450,346.000 281.000 C 346.000 281.550,343.525 282.000,340.500 282.000 C 337.475 282.000,335.000 282.408,335.000 282.907 C 335.000 283.405,330.725 284.134,325.500 284.526 C 320.275 284.917,316.000 285.598,316.000 286.039 C 316.000 286.479,311.500 287.159,306.000 287.549 C 300.500 287.939,296.000 288.608,296.000 289.035 C 296.000 289.463,291.725 290.134,286.500 290.526 C 281.275 290.917,277.000 291.634,277.000 292.119 C 277.000 292.604,275.618 293.000,273.929 293.000 C 270.865 293.000,268.000 294.898,268.000 296.929 C 268.000 297.518,269.350 298.000,271.000 298.000 C 272.650 298.000,274.000 297.608,274.000 297.129 C 274.000 296.650,278.496 295.939,283.990 295.549 C 289.485 295.160,294.236 294.427,294.549 293.921 C 295.321 292.671,304.000 292.744,304.000 294.000 C 304.000 294.550,303.550 295.000,303.000 295.000 C 302.450 295.000,302.000 297.236,302.000 299.969 C 302.000 303.974,301.709 304.826,300.500 304.362 C 298.845 303.727,298.404 299.000,300.000 299.000 C 300.550 299.000,301.000 298.100,301.000 297.000 C 301.000 294.039,296.255 294.210,295.820 297.187 C 295.520 299.238,295.396 299.269,293.821 297.687 C 291.924 295.780,288.000 295.409,288.000 297.135 C 288.000 297.760,289.195 299.378,290.655 300.731 C 292.200 302.163,292.887 303.465,292.299 303.845 C 289.669 305.549,289.792 312.000,292.455 312.000 C 294.084 312.000,295.000 311.444,295.000 310.455 C 295.000 309.230,295.727 309.046,298.500 309.566 C 301.324 310.096,302.000 309.911,302.000 308.611 C 302.000 307.725,302.450 307.000,303.000 307.000 C 303.550 307.000,304.000 307.450,304.000 308.000 C 304.000 309.540,311.959 309.184,313.571 307.571 C 315.240 305.903,315.490 302.000,313.929 302.000 C 313.339 302.000,312.182 302.675,311.357 303.500 C 309.427 305.430,307.000 305.430,307.000 303.500 C 307.000 302.675,306.550 302.000,306.000 302.000 C 305.450 302.000,305.000 301.041,305.000 299.869 C 305.000 297.963,305.396 297.804,308.750 298.358 C 310.813 298.699,313.288 298.983,314.250 298.989 C 315.434 298.996,316.000 299.787,316.000 301.433 C 316.000 302.987,316.722 304.094,318.000 304.500 C 319.100 304.849,320.000 305.554,320.000 306.067 C 320.000 306.580,321.350 307.000,323.000 307.000 C 324.650 307.000,326.000 306.550,326.000 306.000 C 326.000 305.450,326.675 305.000,327.500 305.000 C 328.620 305.000,329.046 303.670,329.180 299.750 L 329.360 294.500 329.733 299.199 C 330.471 308.515,343.000 306.506,343.000 297.071 C 343.000 294.832,343.450 293.000,344.000 293.000 C 344.550 293.000,345.000 295.025,345.000 297.500 L 345.000 302.000 350.000 302.000 C 354.333 302.000,355.000 301.733,355.000 300.000 C 355.000 298.444,354.333 298.000,352.000 298.000 C 350.350 298.000,349.000 297.550,349.000 297.000 C 349.000 296.450,350.125 296.000,351.500 296.000 C 353.500 296.000,354.000 295.500,354.000 293.500 C 354.000 291.944,353.433 291.000,352.500 291.000 C 351.675 291.000,351.000 291.450,351.000 292.000 C 351.000 292.550,350.288 293.000,349.417 293.000 C 346.779 293.000,348.459 290.523,351.327 290.184 C 355.709 289.665,354.666 287.000,350.082 287.000 C 345.196 287.000,343.000 287.808,343.000 289.607 C 343.000 291.410,341.329 291.403,340.300 289.596 C 339.860 288.824,338.375 287.985,337.000 287.732 C 335.625 287.479,336.863 287.211,339.750 287.136 C 342.637 287.061,345.000 286.593,345.000 286.097 C 345.000 285.600,347.250 285.037,350.001 284.847 L 355.001 284.500 355.001 288.750 C 355.000 291.087,355.450 293.000,356.000 293.000 C 356.550 293.000,357.000 295.417,357.000 298.371 L 357.000 303.742 347.000 304.451 C 341.500 304.841,337.000 305.574,337.000 306.080 C 337.000 306.586,334.750 307.000,332.000 307.000 C 329.250 307.000,327.000 307.414,327.000 307.920 C 327.000 308.426,322.500 309.159,317.000 309.549 C 311.500 309.939,307.000 310.608,307.000 311.035 C 307.000 311.463,302.725 312.134,297.500 312.526 C 292.275 312.917,288.000 313.587,288.000 314.013 C 288.000 314.439,283.950 315.108,279.000 315.500 C 274.050 315.892,270.000 316.615,270.000 317.106 C 270.000 317.598,268.200 318.000,266.000 318.000 C 262.707 318.000,262.000 318.343,262.000 319.941 C 262.000 322.114,263.560 323.521,264.422 322.126 C 264.730 321.628,269.936 320.896,275.991 320.501 C 282.046 320.105,287.000 319.381,287.000 318.891 C 287.000 318.401,289.025 318.000,291.500 318.000 C 293.975 318.000,296.000 317.608,296.000 317.129 C 296.000 316.650,300.500 315.939,306.000 315.549 C 311.500 315.159,316.000 314.469,316.000 314.016 C 316.000 313.563,320.725 312.870,326.500 312.477 C 332.275 312.083,337.000 311.413,337.000 310.987 C 337.000 310.561,341.050 309.892,346.000 309.500 C 350.950 309.108,355.000 308.385,355.000 307.894 C 355.000 307.402,356.813 307.000,359.028 307.000 L 363.056 307.000 362.379 300.250 C 362.007 296.538,361.362 293.275,360.946 292.999 C 360.530 292.724,359.864 288.337,359.466 283.249 C 359.068 278.162,358.350 274.000,357.871 274.000 C 357.392 274.000,357.000 271.975,357.000 269.500 C 357.000 267.025,356.604 265.000,356.119 265.000 C 355.634 265.000,354.917 260.725,354.526 255.500 C 354.134 250.275,353.441 246.000,352.987 246.000 C 352.532 246.000,351.841 241.500,351.451 236.000 C 351.061 230.500,350.404 226.000,349.990 226.000 C 349.576 226.000,348.917 221.725,348.526 216.500 C 348.134 211.275,347.447 207.000,347.000 207.000 C 346.553 207.000,345.866 202.725,345.474 197.500 C 345.083 192.275,344.366 188.000,343.881 188.000 C 343.396 188.000,343.000 185.975,343.000 183.500 C 343.000 181.025,342.608 179.000,342.129 179.000 C 341.650 179.000,340.939 174.500,340.549 169.000 C 340.159 163.500,339.479 159.000,339.039 159.000 C 338.598 159.000,337.917 154.725,337.526 149.500 C 337.134 144.275,336.459 140.000,336.026 140.000 C 335.592 140.000,334.917 135.725,334.526 130.500 C 334.134 125.275,333.405 121.000,332.907 121.000 C 332.408 121.000,332.000 118.975,332.000 116.500 C 332.000 114.025,331.616 112.000,331.147 112.000 C 330.678 112.000,329.984 107.162,329.604 101.250 C 329.224 95.338,328.483 90.350,327.957 90.167 C 326.636 89.707,326.744 82.000,328.071 82.000 C 328.661 82.000,329.818 81.325,330.643 80.500 C 334.436 76.707,336.796 78.523,337.468 85.750 M91.750 84.735 C 88.715 84.974,87.000 85.578,87.000 86.408 C 87.000 87.363,85.679 87.580,82.000 87.226 C 77.852 86.827,77.000 87.023,77.000 88.373 C 77.000 89.566,77.934 90.000,80.500 90.000 C 82.944 90.000,84.000 90.452,84.000 91.500 C 84.000 93.994,86.916 93.181,87.589 90.500 C 88.230 87.949,95.000 86.579,95.000 89.000 C 95.000 89.550,95.675 90.000,96.500 90.000 C 97.325 90.000,98.000 89.325,98.000 88.500 C 98.000 87.500,99.000 87.000,101.000 87.000 C 103.000 87.000,104.000 87.500,104.000 88.500 C 104.000 89.325,104.675 90.000,105.500 90.000 C 107.531 90.000,107.461 85.391,105.418 84.607 C 103.838 84.000,100.692 84.030,91.750 84.735 M68.000 89.500 C 68.000 90.500,69.000 91.000,71.000 91.000 C 73.333 91.000,74.000 91.444,74.000 93.000 C 74.000 94.111,74.667 95.000,75.500 95.000 C 77.040 95.000,77.470 92.389,76.393 89.582 C 75.562 87.417,68.000 87.344,68.000 89.500 M57.000 91.500 C 57.000 92.325,56.550 93.000,56.000 93.000 C 55.450 93.000,55.000 92.550,55.000 92.000 C 55.000 91.450,53.425 91.000,51.500 91.000 C 48.667 91.000,48.000 91.381,48.000 93.000 C 48.000 94.556,48.667 95.000,51.000 95.000 C 53.000 95.000,54.000 95.500,54.000 96.500 C 54.000 97.325,54.482 98.000,55.071 98.000 C 56.456 98.000,59.000 95.456,59.000 94.071 C 59.000 93.482,60.350 93.000,62.000 93.000 C 63.650 93.000,65.000 93.450,65.000 94.000 C 65.000 94.550,65.675 95.000,66.500 95.000 C 68.497 95.000,68.430 91.379,66.418 90.607 C 63.151 89.353,57.000 89.936,57.000 91.500 M38.000 94.500 C 38.000 95.548,39.056 96.000,41.500 96.000 C 43.944 96.000,45.000 96.452,45.000 97.500 C 45.000 98.325,45.675 99.000,46.500 99.000 C 47.325 99.000,48.000 98.325,48.000 97.500 C 48.000 96.675,47.550 96.000,47.000 96.000 C 46.450 96.000,46.000 95.325,46.000 94.500 C 46.000 93.417,44.889 93.000,42.000 93.000 C 39.111 93.000,38.000 93.417,38.000 94.500 M26.921 96.698 C 26.875 97.747,26.631 97.978,26.338 97.250 C 25.583 95.379,18.000 95.606,18.000 97.500 C 18.000 98.500,19.000 99.000,21.000 99.000 C 23.000 99.000,24.000 99.500,24.000 100.500 C 24.000 101.325,24.413 102.000,24.918 102.000 C 27.039 102.000,29.000 100.682,29.000 99.257 C 29.000 98.017,29.863 97.846,33.572 98.355 C 37.561 98.902,38.101 98.760,37.812 97.241 C 37.312 94.609,27.035 94.097,26.921 96.698 M184.632 105.571 C 186.484 107.535,188.000 109.582,188.000 110.119 C 188.000 111.249,192.910 116.000,194.079 116.000 C 194.511 116.000,195.185 117.013,195.576 118.250 C 195.967 119.487,198.022 122.187,200.143 124.249 C 202.265 126.311,204.000 128.442,204.000 128.984 C 204.000 129.527,206.025 131.939,208.500 134.344 C 210.975 136.750,213.000 139.059,213.000 139.477 C 213.000 139.894,214.800 142.035,217.000 144.235 C 219.200 146.435,221.000 148.633,221.000 149.119 C 221.000 149.605,222.735 151.689,224.857 153.751 C 226.978 155.813,229.033 158.512,229.424 159.750 C 229.815 160.988,230.520 162.000,230.990 162.000 C 232.272 162.000,237.999 167.977,238.010 169.327 C 238.015 169.972,239.811 172.075,242.000 174.000 C 244.189 175.925,245.985 177.856,245.990 178.292 C 246.002 179.244,247.417 180.990,251.750 185.396 C 253.537 187.214,255.000 189.219,255.000 189.851 C 255.000 190.483,255.450 191.000,256.000 191.000 C 256.550 191.000,257.000 191.900,257.000 193.000 C 257.000 194.100,256.550 195.000,256.000 195.000 C 255.450 195.000,254.997 195.787,254.994 196.750 C 254.990 197.713,254.311 199.797,253.484 201.382 C 252.658 202.968,251.703 206.005,251.363 208.132 C 250.514 213.439,243.143 212.227,242.958 206.750 C 242.934 206.063,241.584 204.396,239.958 203.047 C 238.331 201.698,237.000 200.200,237.000 199.718 C 237.000 199.237,235.200 197.061,233.000 194.883 C 230.800 192.705,229.000 190.490,229.000 189.960 C 229.000 189.431,227.265 187.311,225.143 185.249 C 223.022 183.187,220.967 180.488,220.576 179.250 C 220.185 178.012,219.511 177.000,219.079 177.000 C 217.850 177.000,213.000 172.221,213.000 171.010 C 213.000 170.414,210.975 167.957,208.500 165.552 C 206.025 163.146,204.000 160.894,204.000 160.547 C 204.000 159.820,202.635 158.129,198.750 154.045 C 197.238 152.455,195.996 150.782,195.990 150.327 C 195.985 149.872,194.189 147.925,192.000 146.000 C 189.811 144.075,188.015 141.972,188.010 141.327 C 187.998 139.938,182.255 134.000,180.923 134.000 C 180.415 134.000,180.000 133.258,180.000 132.351 C 180.000 131.444,178.425 129.172,176.500 127.303 C 174.575 125.433,173.000 123.454,173.000 122.904 C 173.000 122.354,171.875 120.862,170.500 119.588 C 169.125 118.313,168.000 116.760,168.000 116.135 C 168.000 115.511,167.550 115.000,167.000 115.000 C 164.219 115.000,171.294 106.252,175.326 104.705 C 176.247 104.352,177.000 103.599,177.000 103.031 C 177.000 100.733,181.473 102.221,184.632 105.571 M166.000 142.000 C 166.000 142.550,166.900 143.000,168.000 143.000 C 169.100 143.000,170.000 143.450,170.000 144.000 C 170.000 144.550,170.575 145.000,171.278 145.000 C 172.712 145.000,176.000 148.490,176.000 150.011 C 176.000 150.555,175.590 151.000,175.088 151.000 C 174.586 151.000,173.872 152.800,173.500 155.000 C 173.128 157.200,172.414 159.000,171.912 159.000 C 171.410 159.000,171.000 159.958,171.000 161.128 C 171.000 163.387,162.962 163.227,162.166 160.951 C 161.983 160.426,160.070 159.715,157.916 159.371 C 155.762 159.026,154.000 158.352,154.000 157.872 C 154.000 157.392,153.295 157.000,152.433 157.000 C 150.867 157.000,151.284 153.193,152.981 152.000 C 153.372 151.725,154.003 150.229,154.384 148.676 C 155.715 143.242,166.000 137.330,166.000 142.000 M157.000 164.000 C 157.000 164.550,156.325 165.000,155.500 165.000 C 154.675 165.000,154.000 164.550,154.000 164.000 C 154.000 163.450,154.675 163.000,155.500 163.000 C 156.325 163.000,157.000 163.450,157.000 164.000 M150.583 168.000 C 151.363 168.000,152.000 168.408,152.000 168.906 C 152.000 169.405,154.250 170.122,157.000 170.500 C 159.750 170.878,162.000 171.595,162.000 172.094 C 162.000 172.592,162.822 173.000,163.827 173.000 C 165.288 173.000,165.565 173.601,165.213 176.000 C 164.971 177.650,164.379 179.000,163.898 179.000 C 163.417 179.000,162.736 180.800,162.384 183.000 C 162.032 185.200,161.357 187.000,160.884 187.000 C 160.411 187.000,159.736 188.800,159.384 191.000 C 159.032 193.200,158.352 195.000,157.872 195.000 C 157.392 195.000,157.000 195.675,157.000 196.500 C 157.000 197.325,156.600 198.000,156.111 198.000 C 155.623 198.000,154.927 199.575,154.566 201.500 C 154.205 203.425,153.537 205.000,153.082 205.000 C 152.628 205.000,151.968 206.800,151.616 209.000 C 151.264 211.200,150.589 213.000,150.116 213.000 C 149.643 213.000,148.968 214.800,148.616 217.000 C 148.264 219.200,147.589 221.000,147.116 221.000 C 146.643 221.000,145.968 222.800,145.616 225.000 C 145.264 227.200,144.532 229.000,143.988 229.000 C 143.445 229.000,143.000 230.125,143.000 231.500 C 143.000 232.875,142.570 234.000,142.045 234.000 C 141.520 234.000,140.795 235.575,140.434 237.500 C 140.073 239.425,139.417 241.000,138.977 241.000 C 138.536 241.000,137.872 242.800,137.500 245.000 C 137.128 247.200,136.419 249.000,135.924 249.000 C 135.429 249.000,134.736 250.800,134.384 253.000 C 134.032 255.200,133.352 257.000,132.872 257.000 C 132.392 257.000,132.000 257.675,132.000 258.500 C 132.000 259.325,131.608 260.000,131.128 260.000 C 130.648 260.000,129.968 261.800,129.616 264.000 C 129.264 266.200,128.532 268.000,127.988 268.000 C 127.445 268.000,127.000 268.711,127.000 269.579 C 127.000 271.293,120.843 270.662,120.167 268.878 C 119.983 268.395,118.746 268.000,117.417 268.000 C 116.088 268.000,115.000 267.586,115.000 267.079 C 115.000 266.573,113.599 265.851,111.886 265.475 C 108.763 264.789,108.017 258.909,110.820 257.081 C 111.310 256.761,112.022 254.813,112.401 252.750 C 112.780 250.688,113.481 249.000,113.957 249.000 C 114.434 249.000,115.128 247.200,115.500 245.000 C 115.872 242.800,116.586 241.000,117.088 241.000 C 117.590 241.000,118.000 240.100,118.000 239.000 C 118.000 237.900,118.445 237.000,118.988 237.000 C 119.532 237.000,120.264 235.200,120.616 233.000 C 120.968 230.800,121.643 229.000,122.116 229.000 C 122.589 229.000,123.264 227.200,123.616 225.000 C 123.968 222.800,124.643 221.000,125.116 221.000 C 125.589 221.000,126.264 219.200,126.616 217.000 C 126.968 214.800,127.643 213.000,128.116 213.000 C 128.589 213.000,129.264 211.200,129.616 209.000 C 129.968 206.800,130.648 205.000,131.128 205.000 C 131.608 205.000,132.000 204.325,132.000 203.500 C 132.000 202.675,132.430 202.000,132.955 202.000 C 133.480 202.000,134.205 200.425,134.566 198.500 C 134.927 196.575,135.583 195.000,136.023 195.000 C 136.464 195.000,137.128 193.200,137.500 191.000 C 137.872 188.800,138.581 187.000,139.076 187.000 C 139.571 187.000,140.264 185.200,140.616 183.000 C 140.968 180.800,141.648 179.000,142.128 179.000 C 142.608 179.000,143.000 178.325,143.000 177.500 C 143.000 176.675,143.391 176.000,143.869 176.000 C 144.347 176.000,144.992 174.439,145.301 172.530 C 145.869 169.034,148.215 165.426,148.833 167.099 C 149.017 167.594,149.804 168.000,150.583 168.000 M170.000 169.000 C 170.000 169.550,169.100 170.000,168.000 170.000 C 166.900 170.000,166.000 169.550,166.000 169.000 C 166.000 168.450,166.900 168.000,168.000 168.000 C 169.100 168.000,170.000 168.450,170.000 169.000 M224.278 200.011 C 225.225 201.118,226.001 202.355,226.002 202.761 C 226.003 203.168,227.762 205.155,229.911 207.177 C 237.030 213.875,236.584 214.630,225.026 215.449 C 219.512 215.840,215.000 216.574,215.000 217.080 C 215.000 217.586,212.525 218.000,209.500 218.000 C 206.475 218.000,204.000 218.408,204.000 218.907 C 204.000 219.405,199.725 220.134,194.500 220.526 C 189.275 220.917,185.000 221.576,185.000 221.990 C 185.000 222.404,180.500 223.061,175.000 223.451 C 169.500 223.841,165.000 224.574,165.000 225.080 C 165.000 225.586,163.200 226.000,161.000 226.000 C 158.111 226.000,157.000 225.583,157.000 224.500 C 157.000 223.675,157.392 223.000,157.872 223.000 C 158.352 223.000,159.032 221.200,159.384 219.000 C 159.736 216.800,160.409 215.000,160.881 215.000 C 161.353 215.000,161.995 213.420,162.308 211.490 C 163.183 206.099,164.692 205.252,174.841 204.459 C 179.878 204.064,184.000 203.386,184.000 202.951 C 184.000 202.516,188.500 201.841,194.000 201.451 C 199.500 201.061,204.000 200.375,204.000 199.926 C 204.000 199.135,208.680 198.552,218.028 198.180 C 221.475 198.043,222.967 198.480,224.278 200.011 M259.000 202.500 C 259.000 203.325,258.550 204.000,258.000 204.000 C 257.450 204.000,257.000 203.325,257.000 202.500 C 257.000 201.675,257.450 201.000,258.000 201.000 C 258.550 201.000,259.000 201.675,259.000 202.500 M257.000 206.386 C 257.000 207.148,256.283 209.060,255.408 210.636 C 253.914 213.322,253.851 213.345,254.394 211.000 C 254.712 209.625,254.979 207.713,254.986 206.750 C 254.994 205.787,255.450 205.000,256.000 205.000 C 256.550 205.000,257.000 205.624,257.000 206.386 M115.575 217.453 C 115.209 219.404,114.537 221.000,114.082 221.000 C 113.628 221.000,112.968 222.800,112.616 225.000 C 112.264 227.200,111.532 229.000,110.988 229.000 C 110.445 229.000,110.000 230.066,110.000 231.369 C 110.000 233.867,106.770 234.963,99.333 234.989 C 97.592 234.995,96.017 235.398,95.833 235.885 C 95.650 236.372,91.787 237.094,87.250 237.489 L 79.000 238.208 79.000 235.187 C 79.000 233.526,78.618 232.017,78.150 231.833 C 77.683 231.650,77.041 228.912,76.723 225.750 L 76.145 220.000 80.572 220.000 C 83.008 220.000,85.000 219.550,85.000 219.000 C 85.000 218.450,87.250 218.000,90.000 218.000 C 92.750 218.000,95.000 217.599,95.000 217.108 C 95.000 216.617,99.500 215.894,105.000 215.500 C 110.920 215.076,115.000 214.352,115.000 213.725 C 115.000 213.143,115.279 212.946,115.620 213.287 C 115.961 213.628,115.941 215.503,115.575 217.453 M285.000 222.500 C 285.000 223.325,285.675 224.000,286.500 224.000 C 287.325 224.000,288.000 223.325,288.000 222.500 C 288.000 221.675,287.325 221.000,286.500 221.000 C 285.675 221.000,285.000 221.675,285.000 222.500 M118.000 227.500 C 118.000 228.325,117.550 229.000,117.000 229.000 C 116.450 229.000,116.000 228.325,116.000 227.500 C 116.000 226.675,116.450 226.000,117.000 226.000 C 117.550 226.000,118.000 226.675,118.000 227.500 M284.607 228.582 C 283.530 231.389,283.960 234.000,285.500 234.000 C 286.325 234.000,287.000 233.550,287.000 233.000 C 287.000 232.450,288.350 232.000,290.000 232.000 C 291.650 232.000,293.000 232.420,293.000 232.933 C 293.000 233.446,293.944 234.165,295.099 234.531 C 297.784 235.384,300.616 238.216,301.469 240.901 C 301.835 242.056,302.519 243.000,302.988 243.000 C 303.457 243.000,304.138 244.350,304.500 246.000 C 304.862 247.650,305.573 249.000,306.079 249.000 C 306.586 249.000,307.000 249.637,307.000 250.417 C 307.000 251.196,307.488 251.996,308.084 252.195 C 308.757 252.419,309.312 257.282,309.549 265.028 C 309.758 271.888,309.687 276.712,309.391 275.750 C 309.095 274.788,308.471 274.000,308.004 274.000 C 306.863 274.000,301.000 268.086,301.000 266.935 C 301.000 266.434,299.200 265.736,297.000 265.384 C 294.800 265.032,293.000 264.388,293.000 263.952 C 293.000 263.516,291.650 262.862,290.000 262.500 C 288.350 262.138,287.000 261.427,287.000 260.921 C 287.000 260.414,286.345 260.000,285.545 260.000 C 284.745 260.000,282.966 258.875,281.591 257.500 C 278.576 254.485,277.000 254.310,277.000 256.989 C 277.000 259.534,279.949 263.000,282.115 263.000 C 283.034 263.000,284.045 263.675,284.362 264.500 C 284.678 265.325,286.076 266.000,287.469 266.000 C 288.861 266.000,290.000 266.450,290.000 267.000 C 290.000 267.550,290.675 268.000,291.500 268.000 C 292.325 268.000,293.000 268.401,293.000 268.892 C 293.000 269.382,294.167 270.076,295.593 270.434 C 298.437 271.148,305.000 277.020,305.000 278.851 C 305.000 279.483,305.450 280.000,306.000 280.000 C 306.550 280.000,307.000 280.900,307.000 282.000 C 307.000 283.443,307.667 284.000,309.393 284.000 C 311.936 284.000,313.000 282.353,313.000 278.418 C 313.000 277.088,313.450 276.000,314.000 276.000 C 314.588 276.000,315.000 272.500,315.000 267.500 C 315.000 262.825,314.613 259.000,314.139 259.000 C 313.666 259.000,312.999 256.640,312.658 253.756 C 312.316 250.872,311.592 248.364,311.050 248.183 C 310.507 248.002,309.777 246.328,309.427 244.461 C 309.036 242.378,308.058 240.836,306.895 240.467 C 305.853 240.136,305.000 239.283,305.000 238.572 C 305.000 236.508,298.471 230.156,295.612 229.439 C 294.175 229.078,293.000 228.382,293.000 227.892 C 293.000 226.242,285.261 226.878,284.607 228.582 M245.000 247.000 C 245.000 247.550,244.550 248.000,244.000 248.000 C 243.450 248.000,243.000 248.873,243.000 249.941 C 243.000 251.009,242.608 252.124,242.129 252.420 C 241.650 252.716,240.986 254.318,240.654 255.979 C 239.980 259.351,238.000 260.113,238.000 257.000 C 238.000 255.900,238.422 255.000,238.939 255.000 C 239.455 255.000,240.181 252.975,240.552 250.500 C 241.163 246.427,245.000 243.408,245.000 247.000 M115.000 272.000 C 115.000 272.550,114.325 273.000,113.500 273.000 C 112.675 273.000,112.000 272.550,112.000 272.000 C 112.000 271.450,112.675 271.000,113.500 271.000 C 114.325 271.000,115.000 271.450,115.000 272.000 M234.245 274.500 C 233.982 275.875,233.369 277.000,232.883 277.000 C 232.398 277.000,232.000 277.675,232.000 278.500 C 232.000 279.325,232.550 280.000,233.223 280.000 C 233.895 280.000,233.407 280.727,232.138 281.616 C 230.481 282.777,230.137 283.537,230.916 284.316 C 232.475 285.875,232.251 287.000,230.383 287.000 C 229.258 287.000,228.926 287.609,229.290 289.002 C 229.614 290.238,229.180 291.380,228.157 291.984 C 226.698 292.846,226.680 293.094,228.000 294.058 C 229.130 294.882,229.192 295.277,228.250 295.659 C 227.563 295.938,227.000 297.106,227.000 298.255 C 227.000 299.403,226.230 301.193,225.290 302.232 C 223.938 303.726,223.851 304.290,224.874 304.922 C 225.886 305.548,225.823 305.854,224.584 306.329 C 223.713 306.664,223.000 308.039,223.000 309.385 C 223.000 310.732,222.538 311.987,221.974 312.175 C 221.409 312.364,220.788 314.296,220.593 316.469 C 220.398 318.642,219.735 320.588,219.119 320.794 C 217.731 321.256,217.629 324.000,219.000 324.000 C 219.550 324.000,220.000 324.450,220.000 325.000 C 220.000 325.550,219.273 326.000,218.383 326.000 C 217.259 326.000,216.926 326.609,217.289 327.999 C 217.577 329.098,217.430 330.234,216.964 330.522 C 216.497 330.811,215.813 333.061,215.444 335.523 C 215.075 337.985,214.322 340.000,213.770 340.000 C 213.218 340.000,212.984 341.136,213.249 342.524 C 213.515 343.912,213.341 345.289,212.864 345.584 C 212.386 345.879,212.270 347.837,212.606 349.935 C 213.278 354.141,212.191 355.513,208.991 354.497 C 206.886 353.829,206.109 348.669,207.942 347.536 C 208.460 347.215,209.187 344.939,209.556 342.477 C 209.925 340.015,210.598 338.000,211.052 338.000 C 211.506 338.000,212.181 335.975,212.552 333.500 C 212.923 331.025,213.568 329.000,213.986 329.000 C 214.403 329.000,215.035 327.180,215.391 324.956 C 215.747 322.732,216.445 320.145,216.943 319.206 C 218.682 315.933,221.000 308.945,221.000 306.980 C 221.000 305.891,221.422 305.000,221.939 305.000 C 222.455 305.000,223.181 302.975,223.552 300.500 C 223.923 298.025,224.575 296.000,225.000 296.000 C 225.425 296.000,226.077 293.975,226.448 291.500 C 226.819 289.025,227.503 287.000,227.967 287.000 C 228.432 287.000,229.122 284.750,229.500 282.000 C 229.878 279.250,230.595 277.000,231.094 277.000 C 231.592 277.000,232.000 276.137,232.000 275.083 C 232.000 274.029,232.563 272.940,233.250 272.662 C 233.938 272.385,234.550 272.122,234.611 272.079 C 234.673 272.036,234.508 273.125,234.245 274.500 M120.750 273.630 C 123.275 274.307,123.811 276.000,121.500 276.000 C 120.675 276.000,120.000 275.581,120.000 275.070 C 120.000 274.558,118.987 273.944,117.750 273.706 C 116.513 273.467,116.175 273.217,117.000 273.150 C 117.825 273.082,119.513 273.299,120.750 273.630 M107.000 274.988 C 107.000 275.532,108.800 276.264,111.000 276.616 C 113.200 276.968,115.000 277.618,115.000 278.061 C 115.000 278.505,116.203 279.010,117.673 279.184 C 120.895 279.565,121.643 281.215,119.545 283.313 C 118.695 284.162,118.000 285.136,118.000 285.476 C 118.000 285.817,116.875 287.138,115.500 288.412 C 114.125 289.687,113.000 291.206,113.000 291.788 C 113.000 292.370,111.650 294.196,110.000 295.846 C 108.350 297.496,107.000 299.127,107.000 299.471 C 107.000 300.026,102.041 305.000,101.487 305.000 C 100.803 305.000,102.423 290.443,103.138 290.167 C 103.612 289.983,104.006 287.283,104.014 284.167 C 104.029 277.774,104.810 274.000,106.117 274.000 C 106.602 274.000,107.000 274.445,107.000 274.988 M332.000 289.000 C 332.000 289.550,331.325 290.000,330.500 290.000 C 329.675 290.000,329.000 290.675,329.000 291.500 C 329.000 292.325,328.550 293.000,328.000 293.000 C 327.450 293.000,327.000 292.550,327.000 292.000 C 327.000 291.450,326.325 291.000,325.500 291.000 C 324.675 291.000,324.000 290.325,324.000 289.500 C 324.000 288.417,325.111 288.000,328.000 288.000 C 330.200 288.000,332.000 288.450,332.000 289.000 M320.000 290.736 C 319.175 291.053,317.469 292.480,316.209 293.907 C 314.069 296.328,313.830 296.384,312.599 294.750 C 311.833 293.735,309.961 293.000,308.140 293.000 C 302.892 293.000,304.636 291.130,310.250 290.737 C 318.952 290.128,321.578 290.128,320.000 290.736 M338.000 294.417 C 338.000 295.196,338.563 296.096,339.250 296.417 C 340.250 296.883,340.250 297.117,339.250 297.583 C 338.563 297.904,338.000 298.804,338.000 299.583 C 338.000 300.363,337.325 301.000,336.500 301.000 C 335.675 301.000,334.994 300.212,334.986 299.250 C 334.979 298.288,334.701 296.488,334.370 295.250 C 333.883 293.435,334.176 293.000,335.883 293.000 C 337.048 293.000,338.000 293.637,338.000 294.417 M324.000 296.500 C 324.000 297.325,324.450 298.000,325.000 298.000 C 326.837 298.000,326.028 300.856,324.009 301.497 C 320.703 302.546,318.183 298.150,320.667 295.667 C 321.885 294.449,324.000 294.978,324.000 296.500 M215.772 309.000 C 215.214 311.200,214.404 313.000,213.972 313.000 C 213.541 313.000,212.878 315.250,212.500 318.000 C 212.122 320.750,211.405 323.000,210.906 323.000 C 210.408 323.000,210.000 323.900,210.000 325.000 C 210.000 326.758,209.333 327.000,204.500 327.000 C 201.475 327.000,199.000 327.414,199.000 327.920 C 199.000 328.426,194.500 329.159,189.000 329.549 C 183.500 329.939,179.000 330.650,179.000 331.129 C 179.000 331.608,176.975 332.000,174.500 332.000 C 172.025 332.000,170.000 332.407,170.000 332.904 C 170.000 333.401,165.275 334.130,159.500 334.523 C 153.725 334.917,149.000 335.593,149.000 336.026 C 149.000 336.459,144.725 337.134,139.500 337.526 C 134.275 337.917,130.000 338.586,130.000 339.011 C 130.000 339.436,125.500 340.106,120.000 340.500 C 114.500 340.894,110.000 341.617,110.000 342.108 C 110.000 342.599,107.975 343.000,105.500 343.000 C 103.025 343.000,101.000 343.396,101.000 343.881 C 101.000 344.365,96.275 345.083,90.500 345.477 C 84.725 345.870,80.000 346.599,80.000 347.096 C 80.000 347.593,79.095 348.000,77.988 348.000 C 76.201 348.000,76.048 347.553,76.616 344.000 C 77.142 340.710,76.967 340.000,75.628 340.000 C 74.733 340.000,74.000 339.325,74.000 338.500 C 74.000 337.675,74.450 337.000,75.000 337.000 C 75.550 337.000,76.000 336.325,76.000 335.500 C 76.000 334.567,75.056 334.000,73.500 334.000 C 71.500 334.000,71.000 333.500,71.000 331.500 C 71.000 329.250,71.400 329.000,75.000 329.000 C 77.200 329.000,79.000 328.592,79.000 328.093 C 79.000 327.595,83.275 326.866,88.500 326.474 C 93.725 326.083,98.000 325.402,98.000 324.961 C 98.000 324.521,102.500 323.841,108.000 323.451 C 113.500 323.061,118.000 322.392,118.000 321.965 C 118.000 321.537,122.275 320.866,127.500 320.474 C 132.725 320.083,137.000 319.366,137.000 318.881 C 137.000 318.396,139.475 318.000,142.500 318.000 C 145.525 318.000,148.000 317.598,148.000 317.106 C 148.000 316.615,152.050 315.892,157.000 315.500 C 161.950 315.108,166.000 314.439,166.000 314.013 C 166.000 313.587,170.725 312.917,176.500 312.523 C 182.275 312.130,187.000 311.449,187.000 311.010 C 187.000 310.571,191.050 309.892,196.000 309.500 C 200.950 309.108,205.000 308.385,205.000 307.894 C 205.000 307.402,207.250 307.000,210.000 307.000 C 212.750 307.000,215.000 306.550,215.000 306.000 C 215.000 305.450,215.402 305.000,215.894 305.000 C 216.398 305.000,216.345 306.741,215.772 309.000 M66.290 332.000 C 66.002 333.100,65.130 334.000,64.352 334.000 C 63.574 334.000,62.678 334.675,62.362 335.500 C 61.326 338.198,60.000 337.075,60.000 333.500 C 60.000 330.185,60.180 330.000,63.406 330.000 C 66.320 330.000,66.737 330.289,66.290 332.000 " stroke="none" fill="#000000" fill-rule="evenodd"></path></g></svg>