<svg xmlns="http://www.w3.org/2000/svg" version="1.1" width="2500" height="2438">
  <g transform="scale(6.2440466)">
<path d="M 0,195.04 V 390.08 H 200 400 V 195.04 0 H 200 0 v 195.04 m 383.2,0 V 373.28 H 200 16.8 V 195.04 16.8 H 200 383.2 V 195.04 M 77.56,92.761 c -1.003,0.622 -0.94,1.022 0.649,4.162 0.79,1.56 10.837,21.425 22.326,44.143 l 20.89,41.305 -22.404,43.095 c -12.322,23.702 -22.692,43.631 -23.044,44.288 -0.739,1.377 -0.814,1.96 -0.317,2.457 l 0.349,0.349 14.409,0.043 c 16.089,0.047 15.36,0.094 16.442,-1.058 1.236,-1.315 12.363,-25.03 27,-57.543 2.931,-6.511 5.387,-11.858 5.458,-11.881 0.071,-0.024 1.633,3.143 3.471,7.038 13.186,27.935 29.088,61.135 29.799,62.213 0.208,0.315 0.682,0.747 1.055,0.96 l 0.677,0.388 15.2,0.046 c 17.703,0.053 16.56,0.151 16.56,-1.422 0,-0.543 -39.345,-77.39 -46.325,-90.48 l -0.691,-1.296 22.071,-42.384 c 12.14,-23.311 22.148,-42.636 22.241,-42.944 0.218,-0.724 -0.025,-1.39 -0.584,-1.603 -0.787,-0.299 -28.106,-0.205 -28.868,0.1 -1.079,0.432 -1.448,1.145 -9.527,18.383 -12.321,26.293 -16.328,34.981 -21.319,46.229 -0.778,1.755 -1.483,3.211 -1.566,3.236 -0.084,0.026 -1.299,-2.489 -2.701,-5.589 -2.328,-5.146 -7.295,-15.866 -10.693,-23.076 -0.747,-1.584 -5.013,-10.548 -9.481,-19.92 -4.468,-9.372 -8.284,-17.4 -8.481,-17.84 -0.803,-1.791 0.328,-1.681 -17.1,-1.676 -13.902,0.004 -15.09,0.025 -15.496,0.277 M 291.322,92.89 C 290.343,93.422 290.4,92 290.4,115.854 v 21.791 l -0.92,-0.105 c -3.835,-0.437 -12.549,-0.241 -17.48,0.393 -36.232,4.657 -58.742,35.036 -56.015,75.597 1.994,29.669 15.576,49.525 39.226,57.347 17.359,5.741 41.104,4.04 61.029,-4.372 5.847,-2.468 5.504,-2.1 5.139,-5.513 -0.148,-1.382 -0.337,-3.556 -0.421,-4.832 -0.094,-1.423 -0.154,-33.225 -0.156,-82.256 -0.002,-83.989 0.028,-80.733 -0.737,-81.082 -0.674,-0.307 -28.172,-0.241 -28.743,0.068 m -5.802,69.673 c 1.333,0.193 3.285,0.681 4.12,1.03 l 0.6,0.251 v 41.271 41.271 l -1.245,0.393 c -10.092,3.189 -23.025,0.859 -30.435,-5.483 -9.933,-8.501 -14.703,-26.686 -11.986,-45.696 3.22,-22.53 19.005,-35.921 38.946,-33.037"   style="fill-rule:evenodd;stroke:none" />
  </g>
</svg>
