<svg id="svg" xmlns="http://www.w3.org/2000/svg" xmlns:xlink="http://www.w3.org/1999/xlink" width="400" height="400" viewBox="0, 0, 400,400"><g id="svgg"><path id="path0" d="M295.173 7.615 C 291.261 9.011,289.496 10.439,287.046 14.186 C 283.754 19.220,161.125 236.868,161.117 237.689 C 161.108 238.734,241.043 385.041,243.090 387.726 C 244.072 389.013,246.253 390.876,247.938 391.866 L 251.000 393.667 281.667 393.877 C 314.448 394.101,316.221 393.958,318.631 390.894 C 322.068 386.525,323.639 389.820,280.672 311.321 C 259.042 271.804,241.162 238.997,240.940 238.417 C 240.683 237.748,262.987 197.665,302.062 128.571 C 335.902 68.735,364.013 18.491,364.530 16.919 C 365.751 13.213,364.218 9.608,360.667 7.834 C 357.569 6.287,299.440 6.092,295.173 7.615 M60.876 84.620 C 54.569 88.507,54.803 89.136,76.589 126.827 C 86.919 144.698,95.529 159.735,95.724 160.241 C 95.918 160.748,82.560 185.015,66.038 214.170 C 33.544 271.511,34.404 269.707,37.304 274.464 C 39.456 277.993,40.622 278.101,74.000 277.874 C 108.242 277.640,107.461 277.757,111.831 272.192 C 112.922 270.803,127.676 245.145,144.619 215.173 L 175.424 160.680 155.649 126.173 C 133.590 87.681,133.849 88.085,129.477 85.515 L 126.333 83.667 94.667 83.489 C 64.193 83.317,62.920 83.360,60.876 84.620 " stroke="none" fill="#000000" fill-rule="evenodd"></path></g></svg>