<svg id="svg" version="1.1" width="400" height="400" xmlns="http://www.w3.org/2000/svg" xmlns:xlink="http://www.w3.org/1999/xlink" style="display: block;"><g id="svgg"><path id="path0" d="M307.000 9.053 C 302.325 10.057,294.000 11.629,288.500 12.547 C 283.000 13.465,274.000 15.030,268.500 16.026 C 263.000 17.021,254.225 18.568,249.000 19.463 C 234.178 22.003,217.436 24.971,206.500 26.997 C 201.000 28.016,192.000 29.601,186.500 30.520 C 181.000 31.438,172.000 33.010,166.500 34.013 C 161.000 35.015,152.225 36.567,147.000 37.461 C 141.775 38.354,132.775 39.935,127.000 40.973 C 121.225 42.010,112.225 43.585,107.000 44.473 C 101.775 45.360,92.775 46.945,87.000 47.995 C 81.225 49.045,71.100 50.859,64.500 52.027 C 57.900 53.195,49.125 54.764,45.000 55.514 C 40.875 56.263,35.336 57.161,32.691 57.509 C 8.489 60.688,3.123 69.678,8.931 97.312 C 9.993 102.365,11.588 111.000,12.475 116.500 C 13.363 122.000,14.932 131.000,15.964 136.500 C 16.995 142.000,18.593 151.000,19.514 156.500 C 20.436 162.000,22.010 171.000,23.013 176.500 C 25.463 189.934,28.556 207.427,30.527 219.000 C 31.417 224.225,32.979 233.000,33.998 238.500 C 35.016 244.000,36.601 253.000,37.520 258.500 C 38.438 264.000,40.005 273.000,41.001 278.500 C 41.997 284.000,43.543 292.775,44.436 298.000 C 46.730 311.423,49.828 328.807,52.010 340.500 C 53.036 346.000,54.611 355.000,55.510 360.500 C 59.174 382.915,59.853 384.908,65.517 389.881 C 71.193 394.864,79.252 395.144,100.500 391.094 C 106.000 390.045,114.775 388.457,120.000 387.564 C 130.062 385.844,147.546 382.760,160.000 380.508 C 164.125 379.762,173.125 378.182,180.000 376.996 C 186.875 375.810,197.000 374.004,202.500 372.982 C 208.000 371.960,217.000 370.375,222.500 369.459 C 228.000 368.543,236.775 366.990,242.000 366.008 C 247.225 365.026,256.225 363.453,262.000 362.514 C 267.775 361.575,275.875 360.144,280.000 359.333 C 284.125 358.522,289.975 357.475,293.000 357.006 C 302.759 355.495,317.316 352.965,324.500 351.532 C 328.350 350.764,337.125 349.171,344.000 347.992 C 350.875 346.813,359.875 345.222,364.000 344.456 C 368.125 343.691,373.436 342.816,375.802 342.512 C 391.168 340.539,396.000 328.610,391.087 304.778 C 390.035 299.675,388.419 290.775,387.497 285.000 C 386.574 279.225,385.000 270.225,384.000 265.000 C 383.000 259.775,381.425 250.775,380.500 245.000 C 379.575 239.225,378.011 230.225,377.025 225.000 C 376.039 219.775,374.253 209.875,373.057 203.000 C 371.861 196.125,370.268 187.125,369.517 183.000 C 368.766 178.875,367.184 169.875,366.000 163.000 C 364.816 156.125,363.245 147.125,362.508 143.000 C 359.119 124.019,355.488 103.435,352.013 83.500 C 350.863 76.900,349.059 66.775,348.004 61.000 C 345.149 45.372,343.232 34.103,342.482 28.537 C 339.924 9.550,330.021 4.112,307.000 9.053 M151.246 112.750 C 152.101 113.713,153.260 116.075,153.821 118.000 C 155.040 122.180,158.132 130.151,160.415 135.000 C 162.003 138.371,163.210 140.353,167.482 146.601 C 170.395 150.861,176.512 157.000,177.844 157.000 C 178.480 157.000,179.000 157.406,179.000 157.901 C 179.000 158.914,184.476 162.434,190.500 165.294 C 203.575 171.500,231.890 169.752,239.821 162.250 C 240.548 161.563,241.561 161.000,242.071 161.000 C 242.582 161.000,243.000 160.380,243.000 159.622 C 243.000 158.865,243.675 157.685,244.500 157.000 C 246.475 155.361,246.530 143.204,244.583 138.545 C 243.317 135.513,242.615 130.798,242.899 127.225 C 243.086 124.866,247.795 123.700,274.000 119.523 C 279.775 118.603,288.550 116.980,293.500 115.918 C 315.135 111.274,319.496 113.754,320.643 131.352 C 321.179 139.578,317.838 152.886,314.999 153.833 C 314.449 154.017,314.000 154.601,314.000 155.131 C 314.000 155.662,312.762 157.192,311.250 158.532 C 303.511 165.390,299.929 167.046,280.000 172.984 C 271.129 175.627,265.940 178.128,264.526 180.442 C 263.506 182.111,263.743 182.401,270.708 188.025 C 271.372 188.561,272.436 189.000,273.072 189.000 C 273.707 189.000,275.864 189.827,277.864 190.839 C 279.864 191.850,283.075 193.363,285.000 194.200 C 299.198 200.374,321.118 212.537,325.084 216.441 C 325.955 217.298,327.025 218.000,327.462 218.000 C 328.437 218.000,343.000 232.658,343.000 233.639 C 343.000 234.026,343.608 235.053,344.351 235.921 C 348.470 240.732,354.000 254.763,354.000 260.400 C 354.000 265.770,352.590 266.853,344.073 268.029 C 336.891 269.021,319.272 272.198,297.000 276.516 C 271.224 281.514,269.837 281.237,266.197 270.373 C 260.719 254.022,246.295 234.133,238.008 231.503 C 236.904 231.152,236.000 230.446,236.000 229.933 C 236.000 229.420,235.213 228.990,234.250 228.978 C 233.287 228.966,231.375 228.076,230.000 227.000 C 228.625 225.924,227.050 225.032,226.500 225.016 C 225.950 225.000,224.228 224.324,222.672 223.513 C 212.421 218.166,187.093 216.272,175.297 219.970 C 157.750 225.472,149.785 236.674,147.547 259.000 C 146.331 271.119,146.731 270.492,138.699 272.873 C 134.740 274.046,130.290 275.005,128.812 275.003 C 127.334 275.001,123.059 275.722,119.312 276.604 C 115.565 277.487,109.800 278.595,106.500 279.067 C 103.200 279.539,95.381 280.828,89.124 281.930 C 74.267 284.548,73.000 283.914,73.000 273.861 C 73.000 252.498,87.669 235.556,118.230 221.620 C 122.228 219.797,129.550 216.597,134.500 214.510 C 157.980 204.608,160.704 200.266,147.164 194.326 C 144.049 192.959,140.600 191.439,139.500 190.947 C 137.232 189.935,129.979 187.347,125.500 185.953 C 123.850 185.439,121.150 184.400,119.500 183.644 C 117.850 182.888,114.700 181.484,112.500 180.524 C 110.300 179.564,107.600 178.298,106.500 177.712 C 105.400 177.125,103.600 176.162,102.500 175.571 C 94.532 171.290,87.676 165.588,78.230 155.387 C 71.118 147.706,65.397 129.183,69.250 126.314 C 71.036 124.985,80.708 122.188,86.000 121.470 C 88.475 121.135,93.875 120.246,98.000 119.497 C 102.125 118.747,111.125 117.146,118.000 115.941 C 124.875 114.735,133.200 113.170,136.500 112.462 C 145.150 110.609,149.416 110.692,151.246 112.750 " stroke="none" fill="#000000" fill-rule="evenodd"></path></g></svg>