<svg version="1.1" width="400" height="400" xmlns="http://www.w3.org/2000/svg"><g><path d="M0.000 145.882 C 0.000 146.367,12.398 159.150,27.551 174.290 L 55.102 201.815 29.551 227.420 C 15.498 241.503,4.000 253.244,4.000 253.512 C 4.000 253.781,11.459 254.000,20.575 254.000 L 37.150 254.000 76.645 214.500 C 98.367 192.775,116.258 175.000,116.403 175.000 C 117.304 175.000,125.000 167.101,125.000 166.177 C 125.000 165.555,126.125 164.309,127.500 163.408 C 131.505 160.784,137.000 155.459,137.000 154.202 C 137.000 153.566,138.238 152.254,139.750 151.287 C 142.632 149.443,144.914 147.021,144.968 145.750 C 144.986 145.338,137.862 145.000,129.138 145.000 C 110.185 145.000,113.947 142.876,89.593 167.332 C 80.374 176.590,72.664 184.015,72.461 183.832 C 72.258 183.649,63.359 174.838,52.687 164.250 L 33.282 145.000 16.641 145.000 C 7.488 145.000,0.000 145.397,0.000 145.882 M149.953 147.468 C 148.604 148.825,124.212 173.078,95.750 201.363 C 67.287 229.649,44.000 253.063,44.000 253.395 C 44.000 253.728,52.648 254.000,63.217 254.000 L 82.434 254.000 117.217 219.269 L 152.000 184.538 152.000 219.269 L 152.000 254.000 166.000 254.000 L 180.000 254.000 180.000 199.500 L 180.000 145.000 166.203 145.000 C 152.864 145.000,152.325 145.082,149.953 147.468 M185.000 199.500 L 185.000 254.000 195.500 254.000 L 206.000 254.000 206.000 220.394 L 206.000 186.788 223.465 204.394 C 233.071 214.077,241.283 221.997,241.715 221.993 C 242.147 221.989,250.262 214.159,259.750 204.595 L 277.000 187.204 277.000 220.602 L 277.000 254.000 288.000 254.000 L 299.000 254.000 299.000 199.500 L 299.000 145.000 288.362 145.000 L 277.723 145.000 266.112 156.629 C 259.725 163.024,253.488 168.926,252.250 169.744 C 251.012 170.561,250.000 171.853,250.000 172.615 C 250.000 173.377,249.566 174.000,249.035 174.000 C 248.504 174.000,246.456 175.417,244.484 177.148 L 240.898 180.297 223.240 162.648 L 205.582 145.000 195.291 145.000 L 185.000 145.000 185.000 199.500 M303.000 199.500 L 303.000 254.000 351.500 254.000 C 381.519 254.000,400.000 253.637,400.000 253.048 C 400.000 252.112,383.372 235.486,380.812 233.863 C 380.090 233.405,367.238 233.024,352.250 233.015 L 325.000 233.000 325.000 189.000 L 325.000 145.000 314.000 145.000 L 303.000 145.000 303.000 199.500 " stroke="none" fill-rule="evenodd"></path></g></svg>