<svg version="1.1" width="400" height="400" xmlns="http://www.w3.org/2000/svg">
<g>
<path d="M176.000 0.949 C 138.665 6.169,107.865 18.794,77.545 41.306 C 67.907 48.462,48.462 67.907,41.306 77.545 C 18.178 108.694,5.628 139.866,0.863 178.000 C -0.399 188.100,0.274 224.310,1.857 231.500 C 2.462 234.250,3.673 240.100,4.547 244.500 C 14.834 296.280,52.838 347.496,101.500 375.159 C 108.550 379.167,122.522 385.997,123.688 386.006 C 124.135 386.010,125.625 386.593,127.000 387.303 C 128.375 388.013,132.200 389.394,135.500 390.373 C 138.800 391.352,142.400 392.545,143.500 393.025 C 156.137 398.537,207.645 402.235,228.523 399.129 C 247.941 396.241,270.041 389.726,284.776 382.546 C 288.778 380.596,292.265 379.000,292.524 379.000 C 293.136 379.000,316.343 364.851,317.000 364.077 C 317.275 363.754,320.200 361.487,323.500 359.040 C 331.808 352.881,349.022 336.006,356.185 327.000 C 359.465 322.875,362.737 318.770,363.455 317.878 C 365.096 315.840,379.000 293.163,379.000 292.524 C 379.000 292.265,380.596 288.778,382.546 284.776 C 389.726 270.041,396.241 247.941,399.129 228.523 C 402.235 207.645,398.537 156.137,393.025 143.500 C 392.545 142.400,391.352 138.800,390.373 135.500 C 389.394 132.200,388.013 128.375,387.303 127.000 C 386.593 125.625,386.010 124.135,386.006 123.688 C 385.997 122.522,379.167 108.550,375.159 101.500 C 347.479 52.808,296.312 14.840,244.500 4.547 C 240.100 3.673,234.250 2.456,231.500 1.844 C 225.561 0.520,183.873 -0.152,176.000 0.949 M219.956 70.977 C 223.643 72.859,228.000 77.648,228.000 79.821 C 228.000 80.378,228.391 80.983,228.869 81.167 C 229.347 81.350,230.608 83.512,231.672 85.972 L 233.606 90.443 239.053 90.542 C 250.793 90.756,256.425 102.380,258.657 131.000 C 260.139 150.014,247.665 192.145,238.960 197.525 C 237.336 198.528,237.889 200.369,240.755 203.500 C 247.289 210.641,253.285 220.943,255.939 229.590 C 256.599 231.740,257.541 234.400,258.032 235.500 C 259.582 238.974,261.000 249.097,261.000 256.684 C 261.000 260.708,261.158 264.000,261.351 264.000 C 261.926 264.000,271.240 258.954,273.976 257.160 C 278.855 253.962,280.518 252.987,282.736 252.028 C 283.966 251.495,286.891 250.131,289.236 248.996 C 313.135 237.427,336.000 244.556,336.000 263.575 C 336.000 274.189,329.273 281.450,316.521 284.603 C 309.077 286.443,303.014 289.402,289.772 297.658 C 275.842 306.343,256.516 315.555,246.000 318.522 C 244.625 318.910,240.779 320.679,237.453 322.454 C 229.879 326.496,228.855 326.745,212.175 328.583 C 170.213 333.209,155.695 332.462,147.746 325.270 C 146.192 323.863,145.508 323.843,141.746 325.091 C 124.293 330.882,101.000 320.132,101.000 306.288 C 101.000 304.174,100.215 301.332,99.256 299.973 C 86.829 282.350,89.627 250.032,104.467 239.787 C 105.035 239.395,105.769 234.445,106.099 228.787 C 107.306 208.046,114.817 191.119,129.210 176.702 C 134.347 171.557,134.755 170.531,132.636 168.079 C 121.163 154.796,127.805 123.968,143.768 116.417 C 146.917 114.927,149.944 113.157,150.496 112.484 C 157.218 104.281,173.843 95.843,185.398 94.769 C 187.830 94.543,188.794 93.536,191.395 88.500 C 193.099 85.200,194.817 82.050,195.212 81.500 C 203.480 69.991,211.411 66.618,219.956 70.977 M210.500 80.950 C 207.163 82.325,199.097 95.439,197.484 102.112 C 196.886 104.585,196.421 104.761,188.779 105.398 C 176.805 106.397,168.352 110.511,157.052 120.840 C 154.695 122.994,150.992 125.342,148.824 126.058 C 136.543 130.111,134.509 150.385,144.702 167.139 L 148.741 173.778 146.620 175.544 C 125.710 192.965,117.794 208.172,116.295 233.801 C 115.833 241.705,115.311 244.381,114.051 245.301 C 111.816 246.934,107.754 252.493,104.490 258.387 C 98.060 269.995,104.228 296.804,113.365 296.967 C 115.138 296.998,115.147 297.127,113.546 299.570 C 107.875 308.226,115.638 315.000,131.228 315.000 C 142.740 315.000,146.443 311.739,150.075 298.399 C 151.258 294.054,152.339 290.374,152.476 290.221 C 152.613 290.067,154.221 291.338,156.049 293.046 C 159.158 295.950,159.079 297.909,155.849 297.985 C 154.378 298.019,151.135 305.125,151.188 308.196 C 151.380 319.155,161.196 322.561,185.330 320.043 C 190.373 319.517,200.633 318.590,208.129 317.982 C 222.635 316.806,229.423 315.259,233.821 312.127 C 235.319 311.061,239.145 309.432,242.323 308.508 C 245.502 307.584,249.317 306.195,250.801 305.420 C 252.285 304.646,253.843 304.010,254.262 304.006 C 256.767 303.986,276.412 293.412,290.944 284.261 C 297.716 279.997,308.526 275.220,314.284 273.946 C 324.007 271.795,327.974 266.081,324.379 259.404 C 319.637 250.600,302.920 252.802,282.009 264.986 C 269.120 272.495,265.619 274.255,258.881 276.609 C 248.608 280.198,249.390 281.513,249.449 260.750 C 249.520 235.312,245.165 223.519,229.769 207.463 L 223.980 201.426 229.568 192.526 C 246.078 166.230,251.214 141.081,245.585 114.087 C 242.744 100.458,241.479 99.272,233.764 103.000 C 231.487 104.100,229.494 105.000,229.335 105.000 C 229.175 105.000,226.844 100.334,224.154 94.632 C 217.713 80.976,215.594 78.853,210.500 80.950 " stroke="none" fill-rule="evenodd"></path>
</g>
</svg>