<?xml version="1.0" encoding="UTF-8" standalone="no"?>
<!DOCTYPE svg PUBLIC "-//W3C//DTD SVG 1.1//EN" "http://www.w3.org/Graphics/SVG/1.1/DTD/svg11.dtd">
<svg width="100%" height="100%" viewBox="0 0 400 400" version="1.1" xmlns="http://www.w3.org/2000/svg" xmlns:xlink="http://www.w3.org/1999/xlink" xml:space="preserve" xmlns:serif="http://www.serif.com/" style="fill-rule:evenodd;clip-rule:evenodd;stroke-linejoin:round;stroke-miterlimit:2;">
    <g id="svgg">
        <path id="path1" d="M318.707,13.6L308.307,15.2C286.098,20.41 268.789,37.415 256.794,56.097C249.009,68.223 241.111,84.461 242,99.6C243.142,119.033 245.929,118.236 252.429,136.8C257.341,150.828 262.298,164.866 266.227,179.2C269.498,191.132 271.603,203.355 274,215.493C274.455,217.795 274.585,226.624 276.6,228.636L277.6,229.636L277.6,239.615C277.6,244.2 279.2,248.693 279.2,253.278L279.2,255.964L278.2,254.964C276.242,253.006 276.547,242.716 276.157,240.4C274.361,229.739 271.954,219.19 270,208.557C269.767,207.288 269.742,197.6 266.186,197.6L264.8,197.6L264.8,193.623C264.8,190.283 263.609,187.016 262.459,183.881C257.188,169.517 249.741,154.291 242.374,140.909C223.857,107.274 201.796,80.098 168.606,60.02C155.596,52.15 139.564,43.833 124.142,41.2C113.554,39.392 102.846,38.373 92.214,36.843C89.556,36.461 86.962,35.439 84.277,35.465C81.733,35.489 79.315,36.607 76.8,36.99C66.771,38.519 56.603,39.195 46.658,41.2C40.997,42.341 35.65,44.695 30.132,46.4C29.473,46.604 26.29,47.078 26.243,48.4C24.903,85.959 32.913,125.425 61.144,152.116C73.223,163.536 88.607,169.987 103.6,176.557C113.605,180.941 125.259,186.4 136.614,186.4L140.8,186.4L140.8,187.72C140.8,190.806 143.842,189.638 145.68,190C149.528,190.757 153.342,191.704 157.107,192.8C179.522,199.327 179.072,200.046 200.814,208C201.994,208.432 212.603,211.237 213.103,213.079C213.87,215.903 206.809,226.287 205.578,228.122C201.091,234.809 195.713,240.872 191.289,247.6C190.2,249.257 189.968,251.401 188.8,253.003C182.053,262.259 180.7,261.052 174.999,271.116C165.188,288.437 157.97,305.179 152.2,324.235C150.822,328.785 150.348,333.563 149.6,338.258C149.373,339.684 149.923,342.609 148.6,343.835L147.6,344.762L147.6,386.038L148.6,386.965C149.551,387.847 149.059,389.899 150.202,390.513C153.917,392.507 157.825,389.852 161.224,389.2C170.209,387.477 175.886,388.025 184.567,384.722C185.474,384.377 185.511,382.85 186.4,382.46C202.44,375.428 203.613,378.208 218.325,368.6C242.96,352.511 259.903,329.168 270.586,302C274.936,290.938 279.2,276.273 279.2,264.219L279.2,258L280,258.8C282.534,261.334 285.964,258.438 287.673,256.6C298.82,244.611 309.66,232.341 320.585,220.15C324.803,215.443 329.276,210.94 333.1,205.908C335.573,202.653 342.048,189.765 344.32,186.4C346.811,182.711 350.182,179.648 352.518,175.859C353.517,174.239 353.448,172.154 354.186,170.4C356.529,164.831 359.385,159.488 361.744,153.926C373.15,127.032 375.894,98.705 368,70.277C362.808,51.581 351.931,33.685 337.394,20.78C332.574,16.501 328.95,15.795 323.084,13.6C321.957,13.178 319.834,11.797 318.707,13.6M238.7,147.377L240.4,147.754L240.4,149.873C240.4,153.629 243.562,155.031 244.963,158C247.735,163.874 250.142,169.92 252.429,176C260.264,196.832 272.256,223.859 272.373,247.3C272.377,248.112 270.568,247.853 269.936,247.343C267.717,245.552 266.513,242.73 264.375,240.844C259.305,236.37 253.881,232.302 248.4,228.341C242.874,224.348 236.858,221.058 231.379,217C229.811,215.839 228.979,213.829 227.352,212.753C225.535,211.551 223.349,213.203 221.517,212.141C219.356,210.888 221.092,208.404 221.805,207.224C225.131,201.718 229.2,197.03 229.2,190.167L229.2,186.4L230.52,186.4C234.293,186.4 232.709,180.706 232.8,179.016C233.18,171.942 233.922,164.892 234.4,157.824C234.716,153.155 234.603,148.45 235.18,143.806C235.245,143.285 235.787,142.499 236.28,142.68C236.842,142.886 236.754,143.803 236.8,144.4L237,147L238.7,147.377M240.88,171.28C237.96,174.2 238.62,178.249 237.585,181.896C237.004,183.944 235.87,185.8 235.202,187.822C233.741,192.245 232.591,196.764 231.205,201.211C230.691,202.861 229.1,206.214 229.224,208.36C229.43,211.907 232.968,211.913 235.396,213.2C238.929,215.072 242.404,217.061 245.794,219.18C250.918,222.383 250.51,222.739 254.867,226.787C255.717,227.577 258.209,229.771 259.8,229.375C261.086,229.055 261.598,226.568 261.473,225.622C261.041,222.347 260.398,219.097 259.6,215.892C258.443,211.248 257.159,206.628 255.613,202.099C255.466,201.668 254.714,201.637 254.586,201.2C252.007,192.391 253.35,192.049 249.6,183.6C248.498,181.118 246.896,178.879 245.786,176.4C245.251,175.204 244.345,167.815 240.88,171.28"/>
    </g>
</svg>
