<svg xmlns="http://www.w3.org/2000/svg" width="400" height="400" viewBox="0, 0, 400,400"><g><path d="M168.519 0.269 C 162.625 1.441,159.155 4.728,157.225 10.968 C 156.826 12.257,156.500 13.532,156.500 13.802 C 156.500 14.072,156.283 15.099,156.018 16.084 C 155.122 19.410,153.546 26.131,152.668 30.375 C 151.623 35.427,151.263 37.523,151.001 40.086 C 150.481 45.170,148.183 51.782,145.724 55.272 C 142.483 59.872,137.017 64.907,133.750 66.304 C 132.504 66.837,131.351 67.419,128.375 69.015 C 126.390 70.080,116.292 75.105,114.375 75.982 C 113.470 76.396,111.627 77.234,109.625 78.140 C 101.566 81.791,100.631 81.866,92.500 79.509 C 91.606 79.250,89.806 78.735,88.500 78.365 C 87.194 77.996,85.563 77.493,84.875 77.249 C 84.188 77.005,82.612 76.493,81.375 76.111 C 80.138 75.730,74.794 73.968,69.500 72.197 C 56.391 67.812,56.218 67.764,53.305 67.756 C 48.325 67.742,44.185 70.496,41.114 75.866 C 40.433 77.058,39.692 78.336,39.469 78.704 C 39.245 79.073,38.247 80.781,37.250 82.500 C 36.253 84.219,35.255 85.925,35.031 86.292 C 34.808 86.660,34.078 87.897,33.409 89.042 C 32.741 90.188,31.962 91.519,31.679 92.000 C 31.396 92.481,30.931 93.285,30.645 93.787 C 30.359 94.289,29.619 95.577,29.000 96.651 C 28.381 97.724,27.584 99.114,27.229 99.739 C 26.874 100.364,26.312 101.338,25.979 101.905 C 25.647 102.471,23.651 105.959,21.544 109.655 C 19.437 113.351,17.103 117.388,16.358 118.625 C 11.052 127.436,9.508 132.643,11.075 136.446 C 12.283 139.380,17.529 145.248,24.875 151.881 C 27.385 154.148,32.875 159.198,33.852 160.138 C 34.002 160.283,35.072 161.234,36.229 162.251 C 49.297 173.740,50.093 176.003,50.114 201.750 C 50.132 223.282,48.812 226.804,36.750 237.390 C 34.894 239.019,32.884 240.807,32.283 241.363 C 30.515 243.001,29.888 243.574,28.853 244.499 C 11.916 259.643,10.250 261.634,10.250 266.737 C 10.250 270.441,11.047 272.396,15.979 280.799 C 16.197 281.170,17.894 284.140,19.750 287.399 C 21.606 290.658,23.397 293.786,23.730 294.350 C 24.063 294.914,24.569 295.790,24.855 296.297 C 26.011 298.349,29.919 305.152,30.559 306.227 C 30.935 306.858,31.983 308.669,32.888 310.250 C 33.793 311.831,34.779 313.532,35.079 314.029 C 35.380 314.527,36.413 316.308,37.375 317.987 C 38.337 319.666,39.381 321.452,39.693 321.957 C 40.006 322.462,40.395 323.156,40.558 323.500 C 44.149 331.058,51.100 333.883,59.375 331.149 C 60.888 330.649,63.081 329.944,64.250 329.582 C 68.468 328.277,70.193 327.726,74.250 326.385 C 76.519 325.635,78.713 324.907,79.125 324.766 C 79.537 324.625,81.450 324.004,83.375 323.385 C 85.300 322.767,88.067 321.876,89.523 321.405 C 97.331 318.882,107.610 319.845,117.125 323.991 C 120.300 325.374,121.803 326.103,124.228 327.434 C 125.797 328.295,127.124 329.000,127.176 329.000 C 127.228 329.000,127.575 329.210,127.948 329.467 C 128.320 329.724,129.581 330.566,130.750 331.338 C 133.775 333.337,133.897 333.426,136.250 335.368 C 139.645 338.170,145.250 344.277,145.250 345.175 C 145.250 345.263,145.408 345.513,145.602 345.730 C 146.390 346.614,148.486 351.011,149.066 353.000 C 150.067 356.431,152.304 366.295,153.742 373.625 C 156.612 388.249,157.786 392.137,160.195 394.982 C 162.074 397.202,163.359 398.082,166.375 399.217 L 168.125 399.875 199.110 399.943 C 229.573 400.010,230.129 400.003,232.109 399.502 C 239.065 397.743,241.774 394.193,243.746 384.250 C 244.032 382.806,244.535 380.387,244.863 378.875 C 245.192 377.363,245.693 375.000,245.978 373.625 C 246.263 372.250,246.766 369.831,247.096 368.250 C 247.839 364.681,248.182 362.933,248.638 360.375 C 250.462 350.150,253.198 344.416,258.789 339.107 C 261.930 336.125,263.772 334.908,270.875 331.124 C 272.113 330.465,273.238 329.842,273.375 329.740 C 273.512 329.637,274.019 329.331,274.500 329.059 C 279.103 326.457,281.358 325.113,283.045 323.967 C 287.130 321.190,293.640 319.250,298.875 319.250 C 302.925 319.250,305.733 319.926,316.500 323.490 C 328.764 327.551,333.892 329.204,339.000 330.743 C 340.031 331.054,341.381 331.477,342.000 331.683 C 347.969 333.670,354.813 330.920,358.125 325.204 C 358.262 324.967,359.136 323.445,360.066 321.824 C 360.997 320.202,362.053 318.369,362.414 317.750 C 362.775 317.131,363.265 316.288,363.503 315.875 C 363.741 315.462,364.527 314.113,365.250 312.875 C 365.973 311.637,366.775 310.259,367.032 309.813 C 367.289 309.366,367.714 308.634,367.974 308.188 C 368.235 307.741,370.048 304.563,372.003 301.125 C 373.957 297.688,375.784 294.481,376.064 294.000 C 376.343 293.519,376.818 292.675,377.119 292.125 C 378.039 290.443,378.737 289.248,380.623 286.125 C 381.620 284.475,382.622 282.788,382.851 282.375 C 383.079 281.962,383.604 281.063,384.017 280.375 C 392.549 266.167,391.630 263.217,373.625 247.000 C 371.288 244.895,369.197 242.993,368.979 242.774 C 368.761 242.554,367.698 241.588,366.616 240.625 C 350.021 225.857,349.597 224.823,349.696 199.375 C 349.760 183.030,349.941 181.333,352.172 176.125 C 354.378 170.973,357.062 167.829,365.649 160.337 C 366.461 159.628,367.704 158.503,368.411 157.837 C 369.953 156.383,370.811 155.601,374.250 152.517 C 384.679 143.161,386.827 140.949,388.320 138.029 L 389.500 135.720 389.500 133.127 C 389.500 130.877,389.404 130.275,388.772 128.580 C 387.955 126.386,387.931 126.341,383.875 119.250 C 381.111 114.416,380.246 112.900,379.244 111.125 C 379.011 110.713,378.527 109.869,378.167 109.250 C 377.612 108.294,376.624 106.568,372.605 99.535 C 372.319 99.035,371.855 98.231,371.574 97.750 C 371.292 97.269,370.247 95.469,369.250 93.750 C 368.253 92.031,367.208 90.231,366.926 89.750 C 366.645 89.269,366.181 88.465,365.895 87.963 C 365.609 87.461,364.869 86.173,364.250 85.099 C 363.631 84.026,362.831 82.636,362.473 82.011 C 360.945 79.350,358.545 75.293,357.884 74.255 C 356.788 72.533,354.212 70.181,352.457 69.301 C 348.452 67.290,345.650 67.280,339.375 69.253 C 334.828 70.682,333.399 71.140,328.375 72.774 C 325.350 73.758,322.313 74.757,321.625 74.994 C 320.938 75.230,319.587 75.661,318.625 75.950 C 317.663 76.240,315.919 76.765,314.750 77.118 C 311.593 78.072,309.579 78.677,307.625 79.261 C 303.049 80.627,297.371 81.066,294.375 80.286 C 292.089 79.690,282.930 75.211,275.625 71.117 C 273.441 69.893,268.812 67.170,267.750 66.485 C 267.131 66.085,266.456 65.672,266.250 65.567 C 265.839 65.357,261.291 62.407,259.500 61.189 C 255.582 58.525,252.228 53.071,250.542 46.625 C 248.316 38.109,246.039 27.805,244.364 18.673 C 244.167 17.599,243.836 16.064,243.628 15.261 C 243.420 14.459,243.250 13.568,243.250 13.280 C 243.250 12.483,241.872 8.521,241.142 7.220 C 239.414 4.141,236.503 1.837,232.901 0.696 L 231.125 0.134 200.375 0.091 C 183.463 0.068,169.127 0.148,168.519 0.269 M165.670 144.533 C 169.083 146.475,172.269 148.289,172.750 148.562 C 173.231 148.836,174.750 149.706,176.125 150.497 C 177.500 151.288,188.075 157.254,199.625 163.754 C 211.175 170.254,221.806 176.246,223.250 177.070 C 224.694 177.894,226.494 178.908,227.250 179.325 C 228.421 179.969,231.181 181.530,234.750 183.563 C 235.231 183.837,236.525 184.568,237.625 185.188 C 238.725 185.807,241.256 187.241,243.250 188.374 C 245.244 189.506,247.381 190.713,248.000 191.054 C 249.752 192.021,256.303 195.715,257.000 196.129 C 257.344 196.333,258.957 197.246,260.585 198.157 C 262.993 199.504,263.482 199.871,263.210 200.123 C 263.026 200.294,260.231 201.925,257.000 203.748 C 253.769 205.571,250.787 207.259,250.375 207.500 C 249.963 207.742,243.719 211.284,236.500 215.371 C 229.281 219.459,223.037 222.998,222.625 223.236 C 222.213 223.474,221.200 224.041,220.375 224.496 C 219.550 224.951,218.088 225.774,217.125 226.325 C 214.018 228.105,197.061 237.678,179.625 247.497 C 170.275 252.762,161.866 257.499,160.938 258.023 L 159.250 258.975 159.250 199.987 C 159.250 167.544,159.298 141.000,159.358 141.000 C 159.417 141.000,162.258 142.590,165.670 144.533 " stroke="none" fill-rule="evenodd"></path></g></svg>