<svg id="svg" xmlns="http://www.w3.org/2000/svg" xmlns:xlink="http://www.w3.org/1999/xlink" width="400" height="400" viewBox="0, 0, 400,400"><g id="svgg"><path id="path0" d="M181.840 61.429 C 90.748 62.824,59.767 64.800,43.130 70.280 C 24.131 76.538,14.031 89.298,9.109 113.262 C 6.157 127.633,3.861 154.823,2.874 187.097 C 2.740 191.499,2.584 196.231,2.529 197.611 C 2.102 208.219,4.278 249.553,6.226 267.861 C 11.551 317.902,25.467 332.382,71.446 335.727 C 73.351 335.866,77.760 336.187,81.243 336.442 C 104.448 338.139,128.005 338.896,180.645 339.635 C 202.319 339.940,206.990 339.916,243.489 339.316 C 281.628 338.689,303.351 337.862,325.329 336.201 C 328.746 335.943,332.401 335.669,333.453 335.592 C 357.384 333.849,372.908 327.767,381.907 316.610 C 392.944 302.924,397.086 283.001,399.640 231.304 C 400.150 220.984,400.150 179.913,399.640 169.767 C 398.491 146.904,396.957 129.916,394.973 118.088 C 389.436 85.077,375.620 71.123,344.086 66.694 C 327.754 64.401,293.097 62.658,248.507 61.887 C 204.666 61.130,202.410 61.114,181.840 61.429 M213.813 170.609 C 254.588 194.151,265.196 200.372,264.948 200.597 C 264.594 200.919,162.342 259.976,162.139 259.976 C 162.066 259.976,162.007 233.142,162.007 200.344 C 162.007 167.547,162.088 140.756,162.186 140.808 C 162.285 140.861,185.517 154.271,213.813 170.609 " stroke="none" fill="#000000" fill-rule="evenodd"></path></g></svg>