<?xml version="1.0" encoding="UTF-8" standalone="no"?>
<!DOCTYPE svg PUBLIC "-//W3C//DTD SVG 1.1//EN" "http://www.w3.org/Graphics/SVG/1.1/DTD/svg11.dtd">
<svg width="100%" height="100%" viewBox="0 0 400 400" version="1.1" xmlns="http://www.w3.org/2000/svg" xmlns:xlink="http://www.w3.org/1999/xlink" xml:space="preserve" xmlns:serif="http://www.serif.com/" style="fill-rule:evenodd;clip-rule:evenodd;stroke-linejoin:round;stroke-miterlimit:2;">
    <g id="svgg">
        <path id="path0" d="M41,60C41,61.1 98.731,151.626 98.43,152.113C98.129,152.601 98.359,153 98.941,153C99.664,153 100,162.996 100,184.5L100,216L134,216L134,184.5C134,164.167 134.354,153 135,153C135.55,153 136,152.424 136,151.721C136,151.017 193,63.01 193,60.933L193,58L174.429,58C155.574,58 153,58.48 153,62C153,62.629 121,113.707 121,114.571C121,117.501 118.241,119.384 116.5,117.643C115.675,116.818 86.1,65.793 85,65C83.9,64.207 83,62.951 83,62.208C83,58.429 80.711,58 60.571,58C41.667,58 41,58.068 41,60M209,74L209,90L256,90L256,216L290,216L290,90L338,90L338,58L209,58L209,74M45,327.5L45,340L186,340L186,315L45,315L45,327.5"/>
    </g>
</svg>
