<svg version="1.1" width="400" height="400" xmlns="http://www.w3.org/2000/svg"><g><path d="M24.000 130.000 L 24.000 150.000 67.583 150.000 C 91.554 150.000,111.017 150.369,110.833 150.820 C 110.509 151.616,61.468 218.743,33.991 256.000 C 14.625 282.258,10.000 288.695,10.000 289.390 C 10.000 289.725,45.775 290.000,89.500 290.000 L 169.000 290.000 169.000 270.011 L 169.000 250.023 128.961 249.761 L 88.923 249.500 119.211 207.912 C 135.870 185.038,152.250 162.538,155.610 157.912 C 158.971 153.285,168.083 140.824,175.860 130.221 C 183.637 119.617,190.000 110.730,190.000 110.471 C 190.000 110.212,152.650 110.000,107.000 110.000 L 24.000 110.000 24.000 130.000 M219.105 114.583 C 200.502 119.585,185.215 140.079,185.017 160.278 C 185.001 161.970,188.935 162.043,266.250 161.778 L 347.500 161.500 353.192 159.200 C 369.453 152.629,380.388 137.569,382.607 118.688 L 383.275 113.000 303.888 113.066 C 237.814 113.121,223.595 113.375,219.105 114.583 M219.251 177.545 C 200.819 182.508,188.206 198.497,185.474 220.362 L 184.751 226.152 227.625 225.774 C 268.629 225.412,270.790 225.299,277.155 223.187 C 294.077 217.571,306.282 201.467,308.607 181.688 L 309.275 176.000 266.888 176.066 C 233.670 176.117,223.364 176.437,219.251 177.545 M220.760 240.558 C 201.155 245.310,188.280 260.904,185.484 283.286 L 184.770 289.000 198.635 288.980 C 237.083 288.925,255.214 275.785,258.882 245.315 L 259.642 239.000 243.071 239.083 C 232.616 239.136,224.382 239.680,220.760 240.558 " stroke="none" fill-rule="evenodd"></path></g></svg>