<svg version="1.1" width="515" height="515" xmlns="http://www.w3.org/2000/svg"><g><path d="M3.906 203.306 C 3.066 205.151,3.565 207.799,6.400 216.543 L 9.944 227.473 7.519 230.987 C -10.957 257.751,6.155 291.349,43.500 301.632 C 57.210 305.407,112.539 304.359,125.515 300.078 L 131.406 298.135 143.349 303.661 C 161.172 311.910,163.287 310.311,157.668 292.838 L 154.098 281.738 156.435 278.619 C 181.140 245.644,148.448 205.000,98.000 205.968 C 83.265 206.251,82.249 206.250,66.000 205.929 C 55.190 205.716,52.043 206.050,42.723 208.401 L 31.946 211.119 21.432 206.060 C 9.646 200.389,5.530 199.742,3.906 203.306 M232.941 209.059 C 230.120 211.880,230.681 216.693,234.130 219.257 C 238.606 222.583,244.000 219.429,244.000 213.485 C 244.000 207.612,237.135 204.865,232.941 209.059 M351.750 208.080 C 349.530 209.373,349.005 282.605,351.200 284.800 C 354.197 287.797,361.000 285.606,361.000 281.645 C 361.000 279.831,361.129 279.807,362.787 281.307 C 372.351 289.962,390.561 286.808,399.103 275.017 C 417.077 250.204,389.725 213.546,365.457 229.924 L 361.000 232.932 361.000 221.001 C 361.000 207.254,358.695 204.035,351.750 208.080 M35.486 222.011 C 39.301 220.431,55.047 216.008,56.876 216.003 C 57.632 216.002,55.678 217.907,52.532 220.237 C 27.714 238.624,28.170 271.588,53.500 290.265 L 57.500 293.214 53.000 292.511 C 17.790 287.011,0.045 258.564,17.535 235.657 C 21.374 230.630,21.713 228.273,19.500 222.000 C 18.675 219.662,18.000 217.438,18.000 217.058 C 18.000 216.678,21.256 217.918,25.236 219.814 C 31.793 222.937,32.755 223.143,35.486 222.011 M116.333 218.074 C 148.996 226.368,163.406 252.125,146.997 272.884 C 142.627 278.413,142.241 280.597,144.500 287.000 C 146.664 293.133,146.667 293.132,138.983 289.717 L 131.965 286.599 123.733 289.263 C 119.205 290.729,113.475 292.227,111.000 292.593 L 106.500 293.259 110.500 290.304 C 136.640 270.996,136.415 238.829,110.000 218.754 C 105.727 215.506,106.075 215.469,116.333 218.074 M95.500 222.902 C 127.180 237.977,127.391 270.852,95.908 286.399 C 82.862 292.841,74.768 291.907,61.366 282.411 C 34.332 263.256,40.667 233.059,74.388 220.344 C 81.930 217.500,84.903 217.860,95.500 222.902 M234.571 227.571 C 231.902 230.241,232.239 283.522,234.934 284.965 C 237.886 286.545,241.506 286.203,243.345 284.171 C 246.124 281.100,245.816 230.816,243.000 228.000 C 240.603 225.603,236.736 225.407,234.571 227.571 M256.000 228.000 C 254.103 229.897,254.000 231.333,254.000 255.777 C 254.000 284.706,254.272 286.000,260.357 286.000 C 265.808 286.000,266.000 285.298,266.000 265.320 C 266.000 240.830,268.059 236.000,278.500 236.000 C 289.019 236.000,291.000 240.490,291.000 264.330 C 291.000 284.706,291.358 286.000,297.000 286.000 C 302.667 286.000,303.000 284.765,303.004 263.679 C 303.008 241.458,303.710 239.066,310.856 236.925 C 324.245 232.913,328.000 239.290,328.000 266.043 C 328.000 285.261,328.210 286.000,333.677 286.000 C 339.707 286.000,340.264 283.813,339.856 261.736 C 339.518 243.434,339.371 242.194,336.977 237.543 C 330.737 225.420,313.069 222.257,302.434 231.360 L 298.475 234.749 294.572 231.376 C 286.764 224.626,274.827 224.322,267.787 230.693 C 266.171 232.156,266.000 232.159,266.000 230.726 C 266.000 226.292,259.485 224.515,256.000 228.000 M413.571 227.571 C 412.220 228.923,412.000 232.952,412.000 256.371 C 412.000 285.946,412.010 286.000,417.578 286.000 C 423.019 286.000,423.449 284.554,424.000 264.404 L 424.500 246.105 427.857 242.644 C 430.002 240.433,432.886 238.762,435.844 238.018 C 441.703 236.542,443.000 235.443,443.000 231.949 C 443.000 225.172,435.142 224.140,427.892 229.966 C 425.481 231.904,424.000 232.577,424.000 231.736 C 424.000 227.344,416.710 224.433,413.571 227.571 M460.857 227.389 C 431.128 238.010,435.636 283.275,466.671 285.766 C 473.340 286.301,480.616 284.373,483.066 281.421 C 484.110 280.162,484.559 280.390,486.130 282.973 C 488.293 286.530,492.693 287.102,495.345 284.171 C 498.124 281.100,497.816 230.816,495.000 228.000 C 491.885 224.885,485.000 226.844,485.000 230.845 C 485.000 231.310,482.462 230.410,479.359 228.845 C 473.095 225.686,466.974 225.204,460.857 227.389 M181.219 228.181 C 179.771 229.629,179.655 232.905,180.977 235.000 C 181.716 236.170,184.925 236.610,195.580 237.000 L 209.236 237.500 204.806 243.500 C 181.897 274.532,178.873 279.046,179.183 281.744 L 179.500 284.500 202.499 284.769 C 226.694 285.053,228.000 284.828,228.000 280.380 C 228.000 276.703,225.179 276.000,210.429 276.000 C 202.493 276.000,196.000 275.712,196.000 275.360 C 196.000 274.774,201.777 266.805,218.732 244.000 C 230.673 227.940,230.341 227.578,203.361 227.231 C 187.930 227.032,182.118 227.282,181.219 228.181 M66.259 234.787 C 61.266 235.567,59.149 244.149,63.000 248.000 C 67.887 252.887,76.000 249.239,76.000 242.155 C 76.000 236.726,72.207 233.857,66.259 234.787 M93.234 235.544 C 90.008 236.900,89.000 238.685,89.000 243.043 C 89.000 249.504,97.696 252.395,102.545 247.545 C 108.741 241.350,101.531 232.055,93.234 235.544 M382.931 237.464 C 399.346 245.953,394.203 276.516,376.405 276.247 C 355.108 275.925,355.497 236.292,376.800 236.039 C 378.614 236.018,381.373 236.659,382.931 237.464 M475.688 237.656 C 486.396 242.738,488.428 263.468,479.094 272.410 C 470.940 280.222,457.263 275.812,454.079 264.344 C 449.066 246.292,461.507 230.927,475.688 237.656 M60.200 259.200 C 58.095 261.305,58.853 265.763,61.907 269.242 C 72.040 280.782,92.946 280.550,103.580 268.780 C 110.606 261.002,103.607 253.499,96.437 261.123 C 88.990 269.042,77.752 269.248,69.679 261.614 C 65.780 257.927,62.347 257.053,60.200 259.200 " stroke="none" fill-rule="evenodd"></path></g></svg>