<?xml version="1.0" encoding="UTF-8" standalone="no"?>
<!DOCTYPE svg PUBLIC "-//W3C//DTD SVG 1.1//EN" "http://www.w3.org/Graphics/SVG/1.1/DTD/svg11.dtd">
<svg width="100%" height="100%" viewBox="0 0 400 400" version="1.1" xmlns="http://www.w3.org/2000/svg" xmlns:xlink="http://www.w3.org/1999/xlink" xml:space="preserve" xmlns:serif="http://www.serif.com/" style="fill-rule:evenodd;clip-rule:evenodd;stroke-linejoin:round;stroke-miterlimit:2;">
    <g id="svgg">
        <path id="path0" d="M172,27L172,37L162,37C156,37 152,37.4 152,38C152,38.55 151.309,39 150.465,39C149.166,39 148.974,40.578 149.215,49.25L149.5,59.5L172,60.066L172,82L194,82L194,60.07L214.5,59.5L215.066,37L194,37L194,17L172,17L172,27M296,66L296,75L277.93,75L278.5,95.5L296,96.078L296,113L316,113L316,96.078L333.5,95.5L334.07,75L316,75L316,57L296,57L296,66M230,152L230,161L212,161L212,179L230,179L230,197L248,197L248,179L266,179L266,161L248,161L248,143L230,143L230,152M64,196.5L64,217L101,217C125,217 138,217.351 138,218C138,218.55 69,293.622 69,294.967C69,295.535 68.325,296 67.5,296C66.667,296 66,296.889 66,298C66,299.1 65.55,300 65,300C64.363,300 64,308.167 64,322.5L64,345L206,345L206,325.107C206,307.89 205.787,305.132 204.418,304.607C203.548,304.273 184.198,304 161.418,304C134.473,304 120,303.651 120,303C120,302.45 120.45,302 121,302C121.55,302 197.9,216.793 199,216C200.1,215.207 201,213.983 201,213.279C201,212.576 201.45,212 202,212C202.63,212 203,205.333 203,194L203,176L64,176L64,196.5"/>
    </g>
</svg>
