<svg xmlns="http://www.w3.org/2000/svg" width="400" height="400" viewBox="0, 0, 400,400"><g><path d="M17.397 158.259 C 16.232 159.424,17.589 166.274,19.619 169.475 C 23.194 175.111,25.036 175.484,49.343 175.484 L 69.405 175.484 45.283 199.626 C 26.422 218.502,21.162 224.046,21.165 225.045 C 21.189 233.002,24.942 238.766,31.226 240.497 C 32.657 240.892,43.500 241.021,66.581 240.920 L 99.871 240.774 99.831 237.935 C 99.745 231.732,97.371 227.583,92.554 225.218 L 89.548 223.742 68.689 223.572 L 47.829 223.401 71.991 199.235 L 96.153 175.069 95.792 171.550 C 95.160 165.378,93.108 161.996,88.516 159.562 L 85.935 158.194 51.849 158.044 C 33.101 157.962,17.597 158.058,17.397 158.259 M129.408 158.436 C 92.456 165.180,82.309 213.641,113.548 234.180 C 144.995 254.855,185.690 225.940,176.468 189.474 C 171.170 168.524,150.138 154.652,129.408 158.436 M214.452 158.696 C 173.605 166.245,168.786 221.359,207.484 238.376 C 221.159 244.389,240.070 240.363,251.409 229.025 C 280.252 200.182,254.556 151.285,214.452 158.696 M266.839 199.484 L 266.839 241.032 270.111 241.032 C 276.158 241.032,281.775 237.129,283.397 231.800 C 283.741 230.669,284.109 221.514,284.331 208.516 C 284.742 184.544,284.648 185.160,288.579 180.895 C 297.805 170.886,313.197 175.735,315.303 189.313 C 315.635 191.453,315.871 200.444,315.871 210.973 C 315.871 231.053,316.067 232.556,319.148 236.156 C 321.814 239.270,325.176 240.762,329.548 240.769 L 333.161 240.774 333.419 214.194 C 333.668 188.596,333.717 187.527,334.757 185.290 C 340.110 173.774,354.504 172.194,361.837 182.318 C 364.430 185.897,364.527 186.752,364.894 209.290 C 365.120 223.160,365.447 231.086,365.843 232.292 C 367.441 237.157,372.587 240.618,378.710 240.945 L 382.452 241.145 382.452 214.333 C 382.452 189.685,382.372 187.211,381.472 183.695 C 375.239 159.366,347.201 149.937,327.840 165.659 L 324.584 168.303 322.163 166.278 C 310.971 156.914,294.580 155.368,283.023 162.586 C 282.093 163.166,281.729 163.117,280.454 162.239 C 277.272 160.048,271.331 157.955,268.258 157.942 L 266.839 157.935 266.839 199.484 M140.491 176.054 C 159.986 180.120,166.723 203.929,152.098 217.078 C 138.719 229.107,117.919 222.732,113.219 205.161 C 108.935 189.148,124.355 172.689,140.491 176.054 M227.199 176.224 C 245.680 180.641,252.222 202.921,238.940 216.203 C 217.051 238.092,183.924 205.550,205.283 183.140 C 211.150 176.984,219.439 174.369,227.199 176.224 " stroke="none" fill-rule="evenodd"></path></g></svg>