<svg id="svg" version="1.1" width="515" height="515" xmlns="http://www.w3.org/2000/svg" xmlns:xlink="http://www.w3.org/1999/xlink" style="display: block;"><g id="svgg"><path id="path0" d="M284.500 25.552 C 278.214 26.709,264.536 29.065,206.071 39.062 C 196.407 40.715,187.939 42.262,187.253 42.501 C 186.566 42.740,172.841 45.208,156.753 47.987 C 140.664 50.765,115.800 55.064,101.500 57.541 C 87.200 60.018,64.250 63.957,50.500 66.295 L 25.500 70.546 25.247 252.773 C 25.108 352.998,25.333 435.001,25.747 435.002 C 26.161 435.003,47.425 438.602,73.000 443.000 C 98.575 447.398,139.300 454.398,163.500 458.555 C 208.177 466.229,222.228 468.698,266.000 476.567 C 279.475 478.990,291.512 480.978,292.750 480.986 L 295.000 481.000 295.000 448.371 L 295.000 415.742 299.750 416.363 C 381.418 427.033,468.005 408.716,484.005 377.386 L 486.500 372.500 486.500 256.479 L 486.500 140.458 483.310 133.979 C 468.006 102.899,389.216 83.894,311.000 92.416 C 303.025 93.285,296.163 93.997,295.750 93.998 C 295.337 93.999,295.000 78.250,295.000 59.000 C 295.000 26.283,294.886 24.009,293.250 24.132 C 292.288 24.205,288.350 24.844,284.500 25.552 M384.037 110.458 C 438.964 116.288,477.627 136.217,464.432 151.898 C 446.345 173.394,364.764 187.247,305.500 178.886 L 295.500 177.476 295.236 144.738 L 294.973 112.000 297.736 111.934 C 299.256 111.897,305.225 111.273,311.000 110.546 C 325.539 108.716,367.152 108.666,384.037 110.458 M195.516 228.750 C 205.336 261.613,213.737 289.175,214.184 290.000 C 214.631 290.825,216.135 295.529,217.525 300.453 C 218.915 305.377,222.330 317.000,225.114 326.282 C 227.897 335.564,229.981 343.352,229.745 343.589 C 229.132 344.201,190.628 339.899,189.877 339.134 C 189.534 338.785,186.644 328.825,183.454 317.000 C 180.264 305.175,177.393 295.184,177.074 294.797 C 176.367 293.941,138.387 290.710,134.448 291.171 C 131.993 291.459,131.482 292.130,130.386 296.500 C 129.697 299.250,127.951 305.775,126.506 311.000 C 125.061 316.225,123.286 322.750,122.560 325.500 L 121.242 330.500 116.871 330.441 C 107.242 330.310,91.000 327.733,91.000 326.336 C 91.000 325.583,92.323 320.137,93.941 314.234 C 95.559 308.330,102.105 284.150,108.488 260.500 C 114.871 236.850,121.434 212.550,123.073 206.500 C 124.712 200.450,127.698 189.988,129.709 183.250 L 133.365 171.000 139.433 170.864 C 142.770 170.790,150.900 170.419,157.500 170.040 C 164.100 169.661,171.336 169.272,173.581 169.175 L 177.662 169.000 195.516 228.750 M468.924 195.750 C 468.830 223.876,468.337 225.490,457.491 233.209 C 431.924 251.403,363.303 261.339,309.500 254.637 C 302.350 253.747,296.163 253.014,295.750 253.009 C 295.337 253.004,295.000 240.175,295.000 224.500 C 295.000 202.366,295.279 196.000,296.250 196.002 C 296.938 196.003,303.800 196.673,311.500 197.491 C 367.738 203.466,437.462 193.289,464.500 175.158 C 466.150 174.051,467.837 173.113,468.250 173.073 C 468.663 173.033,468.966 183.238,468.924 195.750 M152.510 198.250 C 152.276 198.938,150.923 205.125,149.506 212.000 C 148.088 218.875,144.628 233.397,141.818 244.270 C 139.007 255.144,136.914 264.248,137.168 264.501 C 138.968 266.302,172.205 266.215,171.667 264.411 C 168.890 255.093,158.770 216.261,156.901 207.750 C 154.697 197.715,153.545 195.222,152.510 198.250 M468.994 268.750 C 468.991 279.613,468.528 290.160,467.964 292.189 C 463.850 307.003,430.541 320.552,386.219 325.441 C 361.957 328.117,301.371 326.819,296.014 323.509 C 295.371 323.111,295.000 313.362,295.000 296.830 L 295.000 270.777 298.250 271.361 C 350.549 280.755,445.159 268.598,465.450 249.876 C 468.638 246.935,469.000 248.864,468.994 268.750 M468.996 343.250 C 468.992 369.836,468.915 370.130,460.287 376.413 C 445.405 387.249,421.777 394.739,388.500 399.169 C 374.750 400.999,321.283 400.965,306.250 399.116 L 295.000 397.733 295.000 369.805 L 295.000 341.877 299.250 342.428 C 358.698 350.128,426.709 342.544,459.500 324.559 C 463.900 322.146,467.837 320.133,468.250 320.086 C 468.663 320.039,468.998 330.462,468.996 343.250 " stroke="none" fill="#000000" fill-rule="evenodd"></path></g></svg>