<svg id="svg" xmlns="http://www.w3.org/2000/svg" xmlns:xlink="http://www.w3.org/1999/xlink" width="400" height="400" viewBox="0, 0, 400,400"><g id="svgg"><path id="path0" d="M173.309 1.237 C 173.005 2.040,172.673 2.369,172.359 2.175 C 172.057 1.988,171.980 2.045,172.155 2.326 C 172.545 2.958,171.271 5.291,170.721 4.951 C 170.455 4.787,170.389 4.858,170.557 5.130 C 170.941 5.752,170.065 7.287,169.518 6.949 C 169.256 6.787,169.189 6.859,169.355 7.126 C 169.713 7.707,168.486 10.100,167.988 9.792 C 167.772 9.659,167.723 9.854,167.873 10.245 C 168.065 10.747,167.994 10.844,167.606 10.604 C 167.257 10.388,167.172 10.431,167.357 10.730 C 167.741 11.352,166.865 12.887,166.318 12.549 C 166.054 12.386,165.989 12.459,166.157 12.730 C 166.541 13.352,165.665 14.887,165.118 14.549 C 164.856 14.387,164.789 14.459,164.955 14.726 C 165.345 15.358,164.071 17.691,163.521 17.351 C 163.256 17.187,163.189 17.258,163.355 17.526 C 163.745 18.158,162.471 20.491,161.921 20.151 C 161.656 19.987,161.589 20.058,161.755 20.326 C 162.145 20.958,160.871 23.291,160.321 22.951 C 160.055 22.787,159.989 22.858,160.157 23.130 C 160.514 23.709,159.683 25.299,159.185 24.990 C 158.972 24.859,158.924 25.057,159.073 25.445 C 159.265 25.947,159.194 26.044,158.806 25.804 C 158.457 25.588,158.372 25.631,158.557 25.930 C 158.941 26.552,158.065 28.087,157.518 27.749 C 157.256 27.587,157.189 27.659,157.355 27.926 C 157.745 28.558,156.471 30.891,155.921 30.551 C 155.656 30.387,155.589 30.458,155.755 30.726 C 156.145 31.358,154.871 33.691,154.321 33.351 C 154.055 33.187,153.989 33.258,154.157 33.530 C 154.514 34.109,153.683 35.699,153.185 35.390 C 152.972 35.259,152.924 35.457,153.073 35.845 C 153.265 36.347,153.194 36.444,152.806 36.204 C 152.457 35.988,152.372 36.031,152.557 36.330 C 152.941 36.952,152.065 38.487,151.518 38.149 C 151.256 37.987,151.189 38.059,151.355 38.326 C 151.745 38.958,150.471 41.291,149.921 40.951 C 149.656 40.787,149.589 40.858,149.755 41.126 C 150.145 41.758,148.871 44.091,148.321 43.751 C 148.055 43.587,147.989 43.658,148.157 43.930 C 148.541 44.552,147.665 46.087,147.118 45.749 C 146.856 45.587,146.789 45.659,146.955 45.926 C 147.345 46.558,146.071 48.891,145.521 48.551 C 145.256 48.387,145.189 48.458,145.355 48.726 C 145.745 49.358,144.471 51.691,143.921 51.351 C 143.656 51.187,143.589 51.258,143.755 51.526 C 144.145 52.158,142.871 54.491,142.321 54.151 C 142.055 53.987,141.989 54.058,142.157 54.330 C 142.541 54.952,141.665 56.487,141.118 56.149 C 140.856 55.987,140.789 56.059,140.955 56.326 C 141.345 56.958,140.071 59.291,139.521 58.951 C 139.256 58.787,139.189 58.858,139.355 59.126 C 139.745 59.758,138.471 62.091,137.921 61.751 C 137.658 61.589,137.588 61.658,137.750 61.920 C 138.055 62.413,134.072 69.692,133.642 69.426 C 133.493 69.334,133.365 69.561,133.358 69.929 C 133.350 70.298,123.928 86.890,112.420 106.800 C 100.912 126.710,70.910 178.678,45.748 222.284 L 0.000 301.569 0.000 350.784 L 0.000 400.000 89.414 400.000 L 178.828 400.000 178.359 399.100 C 177.884 398.191,169.603 383.831,121.838 301.088 C 107.389 276.057,95.474 255.337,95.362 255.044 C 95.249 254.751,96.403 252.372,97.925 249.756 C 99.447 247.140,120.901 209.990,145.601 167.200 C 170.300 124.410,201.888 69.690,215.796 45.600 C 229.703 21.510,241.295 1.395,241.555 0.900 L 242.028 0.000 207.902 0.000 L 173.775 0.000 173.309 1.237 M219.267 70.222 L 178.735 140.444 209.653 194.022 L 240.571 247.600 320.285 247.600 L 400.000 247.600 400.000 123.800 L 400.000 0.000 329.899 0.000 L 259.799 0.000 219.267 70.222 M152.418 186.073 C 142.858 202.643,134.626 217.210,134.125 218.445 C 129.996 228.607,134.708 240.879,144.540 245.571 C 148.863 247.635,148.562 247.621,186.867 247.507 L 222.734 247.400 196.851 202.553 C 182.615 177.887,170.705 157.310,170.384 156.826 C 169.829 155.990,168.939 157.438,152.418 186.073 M118.080 263.640 C 118.161 263.882,135.861 294.655,157.413 332.025 L 196.600 399.970 298.300 399.985 L 400.000 400.000 400.000 331.600 L 400.000 263.200 258.967 263.200 C 156.635 263.200,117.974 263.321,118.080 263.640 " stroke="none" fill-rule="evenodd"></path></g></svg>