<svg id="svg" xmlns="http://www.w3.org/2000/svg" xmlns:xlink="http://www.w3.org/1999/xlink" width="400" height="400" viewBox="0, 0, 400,400"><g id="svgg"><path id="path0" d="M35.447 166.060 C 35.368 166.189,36.015 166.827,36.887 167.477 C 37.758 168.128,39.134 169.263,39.944 170.000 L 41.418 171.339 39.062 173.807 C 36.179 176.827,36.176 176.706,39.133 176.706 C 54.928 176.706,65.879 192.810,59.934 207.294 C 54.936 219.472,40.915 224.864,29.228 219.102 L 27.412 218.207 23.588 218.305 L 19.765 218.402 19.772 219.613 C 19.790 222.508,20.429 226.454,20.949 226.876 C 28.499 233.007,43.792 233.881,54.000 228.766 C 82.087 214.692,76.700 173.380,45.878 166.471 C 43.804 166.006,35.678 165.686,35.447 166.060 M26.446 168.315 C 24.566 169.073,20.865 171.061,21.028 171.225 C 21.123 171.319,25.810 172.471,26.101 172.471 C 26.328 172.471,28.513 168.008,28.419 167.736 C 28.383 167.631,27.495 167.891,26.446 168.315 M31.314 168.556 C 30.455 169.945,28.962 173.289,29.131 173.444 C 29.356 173.650,33.210 175.294,33.468 175.294 C 33.583 175.294,33.962 174.950,34.309 174.529 C 34.656 174.109,35.415 173.252,35.994 172.625 L 37.047 171.486 36.229 170.804 C 35.276 170.009,32.096 167.765,31.922 167.765 C 31.857 167.765,31.583 168.121,31.314 168.556 M18.588 177.146 L 18.588 180.471 19.494 180.471 C 19.992 180.471,21.188 180.404,22.151 180.323 L 23.902 180.175 24.446 178.146 C 24.745 177.030,25.041 175.898,25.103 175.630 C 25.216 175.138,23.024 174.478,19.588 173.970 L 18.588 173.822 18.588 177.146 M14.235 177.000 C 12.821 178.559,10.497 181.869,10.684 182.057 C 10.772 182.144,14.173 181.453,15.706 181.036 C 16.057 180.940,16.134 175.529,15.784 175.529 C 15.666 175.529,14.969 176.191,14.235 177.000 M27.331 178.087 C 27.052 179.106,26.824 180.008,26.824 180.092 C 26.824 180.175,27.591 179.838,28.529 179.341 C 29.468 178.845,30.599 178.312,31.044 178.157 C 32.004 177.824,31.892 177.694,29.926 176.863 C 27.881 175.999,27.907 175.987,27.331 178.087 M104.224 180.131 C 103.207 181.357,87.041 217.069,87.273 217.578 C 87.512 218.101,87.615 218.118,90.623 218.118 C 94.395 218.118,94.102 218.327,95.884 214.349 L 97.252 211.294 105.165 211.294 L 113.078 211.294 114.446 214.339 C 116.249 218.351,115.955 218.146,119.791 218.066 L 122.941 218.000 123.011 217.285 C 123.089 216.492,106.844 180.606,106.160 180.059 C 105.650 179.651,104.590 179.691,104.224 180.131 M127.235 180.019 C 126.710 180.325,126.584 217.313,127.106 217.835 C 127.525 218.254,133.265 218.225,133.616 217.802 C 133.799 217.582,133.896 213.986,133.939 205.926 L 134.000 194.365 145.132 206.594 C 157.331 219.995,157.003 219.703,158.353 218.353 C 158.883 217.823,159.112 182.435,158.594 181.074 L 158.365 180.471 155.211 180.471 C 152.862 180.471,151.991 180.551,151.796 180.786 C 151.614 181.005,151.515 184.480,151.473 192.193 L 151.412 203.284 140.355 191.524 C 128.382 178.790,128.766 179.127,127.235 180.019 M179.478 180.176 C 179.033 180.685,162.353 216.773,162.353 217.226 C 162.353 217.983,162.904 218.118,166.011 218.118 C 169.700 218.118,169.311 218.406,171.175 214.294 L 172.535 211.294 180.444 211.299 L 188.353 211.305 189.647 214.245 C 191.467 218.378,191.138 218.144,195.015 218.065 L 198.235 218.000 198.299 217.294 C 198.369 216.529,181.948 180.336,181.364 179.965 C 180.843 179.635,179.854 179.745,179.478 180.176 M214.979 180.016 C 199.552 182.140,192.854 201.317,203.591 212.621 C 210.775 220.184,223.162 220.782,230.412 213.917 C 231.670 212.725,231.573 212.385,229.348 210.171 C 227.082 207.917,226.882 207.870,224.997 209.157 C 214.334 216.434,201.623 204.670,207.685 193.134 C 211.070 186.695,218.712 184.962,225.046 189.198 C 227.206 190.643,226.846 190.724,229.269 188.247 C 231.760 185.702,231.773 185.558,229.647 183.845 C 225.784 180.732,220.257 179.290,214.979 180.016 M250.148 180.005 C 237.071 181.821,229.689 196.120,235.633 208.118 C 242.653 222.287,263.471 222.157,270.355 207.901 C 277.135 193.861,265.548 177.866,250.148 180.005 M278.405 180.131 L 277.882 180.497 277.882 198.852 C 277.882 211.055,277.964 217.360,278.126 217.663 C 278.427 218.226,284.514 218.371,284.868 217.824 C 284.973 217.662,285.112 212.342,285.176 206.002 L 285.294 194.475 296.327 206.591 C 307.957 219.362,307.754 219.174,309.249 218.606 L 309.882 218.365 309.882 199.700 C 309.882 185.497,309.815 180.968,309.600 180.753 C 309.196 180.349,303.158 180.360,302.896 180.765 C 302.792 180.926,302.653 186.023,302.588 192.091 L 302.471 203.123 291.529 191.463 C 279.587 178.736,279.950 179.049,278.405 180.131 M366.429 179.948 C 366.149 180.126,349.801 215.241,349.348 216.638 C 348.915 217.973,349.256 218.118,352.824 218.118 C 356.514 218.118,356.075 218.439,357.918 214.392 L 359.275 211.412 367.216 211.412 L 375.156 211.412 376.477 214.306 C 378.353 218.415,377.966 218.144,381.827 218.065 L 385.059 218.000 385.132 217.363 C 385.212 216.676,368.724 180.306,368.175 179.958 C 367.805 179.723,366.792 179.717,366.429 179.948 M316.753 180.753 C 316.344 181.162,316.344 217.426,316.753 217.835 C 317.208 218.290,331.969 218.225,334.227 217.759 C 353.920 213.691,354.044 184.977,334.385 180.810 C 332.301 180.368,317.187 180.319,316.753 180.753 M20.039 182.998 L 18.783 183.085 18.938 184.210 C 19.023 184.829,19.220 185.909,19.376 186.609 L 19.659 187.882 20.461 186.706 C 20.901 186.059,21.719 184.989,22.278 184.328 C 23.685 182.663,23.808 182.736,20.039 182.998 M14.824 183.566 C 14.241 183.688,12.617 184.117,11.213 184.519 L 8.662 185.250 8.801 185.945 C 8.957 186.729,11.332 191.592,11.965 192.428 L 12.379 192.973 14.794 191.442 C 16.122 190.600,17.311 189.877,17.436 189.835 C 17.744 189.732,16.455 183.287,16.133 183.319 C 15.995 183.333,15.406 183.444,14.824 183.566 M255.599 187.409 C 265.028 189.865,268.238 201.314,261.352 207.926 C 253.864 215.117,241.636 210.493,240.794 200.152 C 240.150 192.238,248.047 185.442,255.599 187.409 M333.621 187.770 C 344.543 191.626,344.084 207.651,332.957 210.919 C 332.010 211.197,330.654 211.294,327.722 211.294 L 323.765 211.294 323.765 199.147 L 323.765 187.000 327.941 187.120 C 331.474 187.221,332.349 187.321,333.621 187.770 M6.741 190.765 C 6.158 193.125,5.460 198.480,5.704 198.723 C 5.763 198.783,6.278 198.377,6.847 197.820 C 7.417 197.264,8.564 196.202,9.397 195.460 L 10.912 194.110 10.389 193.232 C 10.102 192.748,9.393 191.426,8.813 190.294 C 7.493 187.714,7.495 187.714,6.741 190.765 M16.102 192.706 C 12.908 194.706,12.959 194.280,15.529 197.482 C 16.869 199.152,16.846 199.158,17.035 197.069 C 17.123 196.104,17.407 194.503,17.667 193.511 C 18.254 191.267,18.334 191.308,16.102 192.706 M107.754 199.440 L 110.313 205.059 107.745 205.125 C 106.332 205.162,104.018 205.162,102.602 205.125 L 100.027 205.059 102.543 199.377 C 103.927 196.253,105.089 193.724,105.127 193.759 C 105.164 193.793,106.346 196.350,107.754 199.440 M183.264 200.000 L 185.563 205.059 180.511 205.122 C 177.733 205.157,175.425 205.151,175.382 205.108 C 175.339 205.064,176.440 202.469,177.828 199.340 C 180.270 193.838,180.363 193.672,180.659 194.296 C 180.828 194.651,182.000 197.218,183.264 200.000 M369.832 199.471 L 372.425 205.176 367.246 205.176 C 363.198 205.176,362.093 205.112,362.184 204.882 C 362.603 203.824,367.157 193.668,367.193 193.711 C 367.218 193.741,368.405 196.332,369.832 199.471 M8.973 198.257 C 5.886 201.195,5.997 200.808,7.824 202.266 C 10.719 204.578,12.706 205.777,12.706 205.214 C 12.706 205.106,13.387 203.984,14.219 202.722 L 15.732 200.427 14.316 198.743 C 13.538 197.817,12.728 196.768,12.517 196.412 C 11.958 195.468,11.841 195.529,8.973 198.257 M15.441 203.561 C 13.499 206.575,13.436 206.300,16.390 207.706 C 19.436 209.156,19.243 209.299,18.253 206.328 C 17.805 204.983,17.365 203.326,17.277 202.647 C 17.068 201.042,17.061 201.046,15.441 203.561 M5.882 203.081 C 5.882 204.589,7.689 210.956,8.644 212.810 L 9.000 213.502 9.649 211.751 C 10.006 210.788,10.619 209.295,11.012 208.432 L 11.727 206.865 10.393 205.986 C 9.659 205.503,8.409 204.594,7.614 203.966 C 6.101 202.770,5.882 202.658,5.882 203.081 M12.335 209.100 C 11.637 210.655,10.118 214.738,10.118 215.059 C 10.118 215.351,11.399 215.692,14.553 216.241 C 18.643 216.953,18.257 217.183,18.420 213.939 C 18.497 212.418,18.619 211.015,18.692 210.822 C 18.802 210.530,15.500 208.735,13.146 207.806 C 13.039 207.763,12.674 208.346,12.335 209.100 M19.915 211.369 C 19.844 211.651,19.713 213.021,19.623 214.412 L 19.460 216.941 22.397 216.941 C 26.022 216.941,25.969 217.010,23.888 215.033 C 22.941 214.135,21.812 212.877,21.378 212.238 C 20.453 210.877,20.091 210.662,19.915 211.369 M10.824 216.857 C 10.824 217.720,17.832 225.412,18.618 225.412 C 18.778 225.412,18.806 225.064,18.699 224.427 C 18.607 223.886,18.465 222.218,18.384 220.721 L 18.235 218.000 16.706 217.832 C 15.135 217.660,11.808 217.033,11.178 216.791 C 10.983 216.717,10.824 216.746,10.824 216.857 " stroke="none" fill="#000000" fill-rule="evenodd"></path></g></svg>