<svg id="svg" xmlns="http://www.w3.org/2000/svg" xmlns:xlink="http://www.w3.org/1999/xlink" width="400" height="400" viewBox="0, 0, 400,400"><g id="svgg"><path id="path0" d="M182.515 2.939 C 176.266 3.294,176.293 3.393,184.317 9.319 C 191.832 14.869,200.348 21.990,208.527 29.562 L 214.001 34.631 205.429 43.059 C 198.161 50.205,185.462 63.950,185.462 64.671 C 185.462 64.792,191.562 64.929,199.018 64.976 C 284.102 65.508,346.448 142.474,329.204 225.689 C 311.567 310.803,215.594 356.581,138.421 316.692 L 129.187 311.919 114.692 312.839 C 106.719 313.345,96.749 313.570,92.534 313.339 C 85.756 312.967,84.873 313.069,84.880 314.220 C 84.925 321.766,87.997 353.511,89.201 358.869 C 90.501 364.658,127.623 381.804,151.670 387.722 C 294.994 422.996,424.121 293.618,388.442 150.491 C 365.205 57.275,281.523 -2.685,182.515 2.939 M127.070 16.126 C 114.565 21.021,92.698 32.450,93.776 33.527 C 93.996 33.748,98.016 34.758,102.709 35.773 C 107.402 36.788,113.746 38.313,116.807 39.161 L 122.371 40.703 124.179 36.265 C 125.174 33.824,128.056 27.672,130.583 22.593 C 133.111 17.515,134.911 13.373,134.584 13.389 C 134.256 13.405,130.875 14.636,127.070 16.126 M152.107 20.703 C 147.806 28.594,140.930 43.064,140.549 45.026 C 140.329 46.161,142.049 47.176,149.312 50.200 C 154.283 52.268,159.924 54.771,161.848 55.761 L 165.347 57.561 168.528 53.737 C 170.278 51.634,174.627 46.661,178.193 42.685 C 181.758 38.709,184.676 35.306,184.676 35.122 C 184.676 34.099,157.465 14.145,156.069 14.145 C 155.856 14.145,154.073 17.096,152.107 20.703 M78.295 52.063 C 78.034 53.035,77.816 61.573,77.810 71.035 L 77.800 88.240 82.369 87.762 C 84.883 87.499,91.756 87.043,97.644 86.747 L 108.349 86.210 108.893 82.991 C 109.192 81.221,110.672 75.527,112.181 70.338 C 113.690 65.149,115.086 60.178,115.285 59.290 C 115.668 57.572,104.057 54.323,87.230 51.441 C 78.711 49.982,78.855 49.972,78.295 52.063 M54.904 65.815 C 46.563 74.550,30.624 96.112,31.707 97.195 C 31.931 97.419,33.361 97.191,34.884 96.689 C 36.407 96.186,42.885 94.606,49.279 93.177 L 60.904 90.580 60.904 75.153 C 60.904 66.668,60.862 59.725,60.812 59.725 C 60.761 59.725,58.102 62.466,54.904 65.815 M132.731 65.819 C 131.687 68.555,128.461 79.723,127.721 83.161 L 127.158 85.773 130.573 83.615 C 134.866 80.903,150.943 73.101,152.259 73.092 C 155.802 73.066,151.199 70.616,137.350 65.157 L 133.554 63.661 132.731 65.819 M89.616 103.854 C 78.536 104.697,79.220 103.704,81.307 115.914 C 83.959 131.428,83.412 130.952,89.066 122.660 C 91.730 118.754,96.297 112.922,99.214 109.701 C 102.132 106.480,104.519 103.642,104.519 103.396 C 104.519 102.856,101.514 102.949,89.616 103.854 M47.544 110.751 C 34.484 114.098,22.755 117.692,21.730 118.660 C 20.490 119.832,32.034 144.587,39.164 156.041 L 41.337 159.533 46.405 155.954 C 49.193 153.986,55.590 149.910,60.622 146.897 L 69.771 141.418 68.235 135.422 C 67.391 132.125,65.894 124.618,64.910 118.741 C 62.756 105.882,64.111 106.505,47.544 110.751 M10.972 143.875 C 7.458 155.601,5.068 169.713,3.628 187.230 C 3.155 192.987,2.837 193.105,12.136 184.064 C 16.483 179.837,22.121 174.602,24.666 172.431 L 29.292 168.483 27.069 164.988 C 25.846 163.066,22.117 156.217,18.782 149.769 L 12.719 138.045 10.972 143.875 M61.613 163.907 C 47.928 172.644,48.585 170.968,55.366 179.852 C 58.546 184.018,62.228 188.664,63.548 190.177 L 65.948 192.927 65.980 188.880 C 66.015 184.372,68.495 169.317,70.291 162.708 C 71.807 157.126,72.354 157.050,61.613 163.907 M31.358 186.557 C 19.168 197.084,8.270 208.818,9.408 210.190 C 11.247 212.405,24.081 222.339,32.364 227.958 L 40.424 233.426 42.805 229.370 C 44.115 227.139,47.975 221.093,51.384 215.934 L 57.581 206.555 56.099 204.709 C 55.284 203.693,51.651 199.212,48.026 194.751 C 44.400 190.290,40.687 185.496,39.774 184.096 C 37.651 180.842,38.139 180.699,31.358 186.557 M61.040 225.300 C 58.299 229.538,55.080 234.687,53.886 236.741 L 51.714 240.476 63.994 246.476 C 78.272 253.453,77.506 253.490,74.490 245.972 C 71.969 239.691,67.583 223.448,67.583 220.395 C 67.583 216.555,65.858 217.849,61.040 225.300 M5.501 226.336 C 5.501 236.406,19.210 280.843,20.893 276.228 C 23.046 270.326,25.043 265.468,29.224 255.960 C 31.845 249.999,33.856 245.013,33.694 244.880 C 33.532 244.746,30.570 242.759,27.112 240.463 C 22.041 237.096,12.598 230.173,6.483 225.339 C 5.758 224.765,5.501 225.027,5.501 226.336 M44.038 255.344 C 39.834 263.584,29.395 291.346,30.198 292.150 C 31.463 293.414,56.961 298.591,68.057 299.835 L 72.853 300.373 73.361 297.829 C 73.641 296.430,73.873 293.119,73.877 290.472 C 73.883 285.908,74.944 274.324,75.833 269.107 C 76.226 266.804,76.049 266.621,71.717 264.855 C 69.228 263.840,62.593 260.683,56.974 257.840 C 51.356 254.996,46.512 252.554,46.211 252.413 C 45.910 252.272,44.932 253.591,44.038 255.344 M86.934 274.418 C 85.481 284.521,84.810 300.458,85.811 301.093 C 86.962 301.823,109.479 301.997,112.091 301.296 C 113.571 300.899,112.979 300.088,107.078 294.431 C 100.475 288.101,93.342 279.855,89.428 274.025 L 87.421 271.036 86.934 274.418 M36.149 306.442 C 36.149 309.406,59.151 335.519,71.033 346.043 C 76.304 350.712,76.482 350.800,76.032 348.527 C 75.623 346.457,74.772 336.580,73.384 317.789 L 72.971 312.200 63.008 310.875 C 57.528 310.147,49.244 308.747,44.597 307.764 C 39.951 306.782,36.149 306.187,36.149 306.442 " stroke="none" fill="#000000" fill-rule="evenodd"></path></g></svg>