<svg id="svg" version="1.1" width="400" height="400" xmlns="http://www.w3.org/2000/svg" xmlns:xlink="http://www.w3.org/1999/xlink" style="display: block;"><g id="svgg"><path id="path0" d="M261.267 149.022 C 266.078 150.240,269.025 152.190,271.868 156.035 L 274.136 159.102 269.318 156.689 C 259.012 151.528,249.205 149.685,238.500 150.897 L 232.500 151.577 238.836 153.445 C 249.860 156.693,258.753 163.706,265.455 174.435 L 267.289 177.371 262.895 173.853 C 239.163 154.855,208.358 152.315,163.786 165.680 L 155.071 168.293 159.416 171.049 C 165.512 174.915,165.964 176.324,160.283 173.750 C 156.546 172.057,153.040 171.496,144.250 171.184 C 132.817 170.778,130.283 171.603,136.250 173.789 C 138.037 174.444,140.850 176.096,142.500 177.459 L 145.500 179.937 140.000 178.058 C 128.366 174.083,119.236 174.490,102.521 179.730 L 94.542 182.232 99.021 184.561 C 101.484 185.841,104.850 188.044,106.500 189.455 L 109.500 192.020 104.000 189.784 C 93.240 185.410,61.423 187.834,39.500 194.698 C 16.595 201.870,1.653 215.703,0.264 231.025 C -1.240 247.616,8.471 250.941,60.783 251.746 C 150.710 253.130,233.081 236.216,280.625 206.605 L 284.750 204.036 283.821 208.390 C 283.310 210.785,283.029 215.389,283.196 218.622 L 283.500 224.500 286.883 216.200 C 290.223 208.003,295.379 199.339,300.391 193.500 L 302.966 190.500 304.987 193.000 C 306.098 194.375,307.787 197.637,308.739 200.250 C 311.641 208.214,313.089 204.574,311.102 194.310 L 310.290 190.120 313.454 192.533 C 316.076 194.533,331.581 201.230,330.000 199.679 C 329.725 199.410,326.753 197.171,323.396 194.704 C 317.670 190.497,313.000 185.361,313.000 183.271 C 313.000 182.764,319.863 180.198,328.250 177.569 C 348.049 171.362,398.252 154.006,399.349 152.989 C 403.267 149.357,392.578 151.553,372.445 158.515 C 251.397 200.376,128.684 228.961,63.500 230.480 C 46.649 230.873,46.605 230.868,58.500 229.964 C 120.908 225.221,208.600 206.393,296.750 178.811 L 310.000 174.665 310.000 171.458 C 310.000 169.694,310.680 166.325,311.511 163.970 C 312.342 161.615,312.847 159.514,312.634 159.300 C 311.928 158.594,306.000 168.308,306.000 170.171 C 306.000 173.209,304.453 172.272,300.053 166.569 C 290.759 154.522,280.272 148.741,267.000 148.349 C 259.403 148.125,258.255 148.259,261.267 149.022 " stroke="none" fill="#000000" fill-rule="evenodd"></path></g></svg>