<svg id="svg" version="1.1" width="515" height="515" xmlns="http://www.w3.org/2000/svg" xmlns:xlink="http://www.w3.org/1999/xlink" style="display: block;"><g id="svgg"><path id="path0" d="M103.000 5.073 C 103.000 6.504,103.539 7.043,104.739 6.812 C 107.345 6.310,107.636 3.000,105.073 3.000 C 103.642 3.000,103.000 3.642,103.000 5.073 M409.000 4.393 C 409.000 5.703,411.030 7.000,413.082 7.000 C 413.587 7.000,414.000 6.100,414.000 5.000 C 414.000 3.533,413.333 3.000,411.500 3.000 C 410.030 3.000,409.000 3.574,409.000 4.393 M91.694 5.639 C 90.761 6.573,91.888 8.000,93.559 8.000 C 94.352 8.000,95.000 7.325,95.000 6.500 C 95.000 4.994,92.889 4.444,91.694 5.639 M420.561 5.917 C 420.368 6.237,420.792 7.037,421.503 7.694 C 422.520 8.633,422.895 8.508,423.261 7.111 C 423.690 5.470,421.431 4.471,420.561 5.917 M84.000 9.000 C 84.000 10.111,84.667 11.000,85.500 11.000 C 86.333 11.000,87.000 10.111,87.000 9.000 C 87.000 7.889,86.333 7.000,85.500 7.000 C 84.667 7.000,84.000 7.889,84.000 9.000 M433.000 10.500 C 433.000 11.333,433.889 12.000,435.000 12.000 C 436.111 12.000,437.000 11.333,437.000 10.500 C 437.000 9.667,436.111 9.000,435.000 9.000 C 433.889 9.000,433.000 9.667,433.000 10.500 M62.623 15.540 C 61.722 17.888,61.788 18.000,64.073 18.000 C 65.471 18.000,66.041 17.457,65.823 16.333 C 65.381 14.050,63.385 13.555,62.623 15.540 M449.000 16.000 C 449.000 17.100,449.600 18.000,450.333 18.000 C 452.214 18.000,452.952 17.038,452.324 15.402 C 451.508 13.275,449.000 13.726,449.000 16.000 M53.000 22.000 C 53.000 23.333,53.667 24.000,55.000 24.000 C 56.333 24.000,57.000 23.333,57.000 22.000 C 57.000 20.667,56.333 20.000,55.000 20.000 C 53.667 20.000,53.000 20.667,53.000 22.000 M458.000 22.000 C 458.000 23.333,458.667 24.000,460.000 24.000 C 461.333 24.000,462.000 23.333,462.000 22.000 C 462.000 20.667,461.333 20.000,460.000 20.000 C 458.667 20.000,458.000 20.667,458.000 22.000 M37.000 35.000 C 37.000 35.550,36.325 36.000,35.500 36.000 C 34.675 36.000,34.000 36.477,34.000 37.059 C 34.000 37.641,33.550 37.840,33.000 37.500 C 32.450 37.160,32.000 37.809,32.000 38.941 C 32.000 40.353,32.647 41.000,34.059 41.000 C 35.191 41.000,35.840 40.550,35.500 40.000 C 35.160 39.450,35.359 39.000,35.941 39.000 C 36.523 39.000,37.000 38.325,37.000 37.500 C 37.000 36.675,37.450 36.000,38.000 36.000 C 38.550 36.000,39.000 35.550,39.000 35.000 C 39.000 34.450,38.550 34.000,38.000 34.000 C 37.450 34.000,37.000 34.450,37.000 35.000 M24.446 48.087 C 23.416 49.755,25.733 51.667,27.113 50.287 C 28.267 49.133,27.545 47.000,26.000 47.000 C 25.515 47.000,24.816 47.489,24.446 48.087 M487.500 48.000 C 486.663 49.354,487.792 51.000,489.559 51.000 C 490.352 51.000,491.000 50.100,491.000 49.000 C 491.000 46.930,488.587 46.240,487.500 48.000 M20.015 53.750 C 20.050 55.442,21.851 57.210,22.888 56.569 C 24.738 55.426,24.135 53.000,22.000 53.000 C 20.900 53.000,20.007 53.337,20.015 53.750 M491.000 55.000 C 491.000 56.333,491.667 57.000,493.000 57.000 C 494.333 57.000,495.000 56.333,495.000 55.000 C 495.000 53.667,494.333 53.000,493.000 53.000 C 491.667 53.000,491.000 53.667,491.000 55.000 M9.000 80.000 C 9.000 81.111,9.667 82.000,10.500 82.000 C 11.333 82.000,12.000 81.111,12.000 80.000 C 12.000 78.889,11.333 78.000,10.500 78.000 C 9.667 78.000,9.000 78.889,9.000 80.000 M503.000 80.000 C 503.000 81.111,503.667 82.000,504.500 82.000 C 505.333 82.000,506.000 81.111,506.000 80.000 C 506.000 78.889,505.333 78.000,504.500 78.000 C 503.667 78.000,503.000 78.889,503.000 80.000 M7.000 85.500 C 7.000 86.333,7.889 87.000,9.000 87.000 C 10.111 87.000,11.000 86.333,11.000 85.500 C 11.000 84.667,10.111 84.000,9.000 84.000 C 7.889 84.000,7.000 84.667,7.000 85.500 M505.000 85.500 C 505.000 86.325,505.675 87.000,506.500 87.000 C 507.325 87.000,508.000 86.325,508.000 85.500 C 508.000 84.675,507.325 84.000,506.500 84.000 C 505.675 84.000,505.000 84.675,505.000 85.500 M5.000 94.927 C 5.000 96.358,5.642 97.000,7.073 97.000 C 9.636 97.000,9.345 93.690,6.739 93.188 C 5.539 92.957,5.000 93.496,5.000 94.927 M507.000 94.917 C 507.000 96.145,507.646 97.000,508.573 97.000 C 509.505 97.000,510.015 96.320,509.823 95.333 C 509.337 92.824,507.000 92.480,507.000 94.917 M222.000 96.000 C 222.000 96.550,221.100 97.000,220.000 97.000 C 218.900 97.000,218.000 97.450,218.000 98.000 C 218.000 98.550,217.281 99.000,216.401 99.000 C 214.245 99.000,209.000 104.744,209.000 107.106 C 209.000 108.148,208.550 109.000,208.000 109.000 C 207.404 109.000,207.000 112.833,207.000 118.500 C 207.000 123.725,207.400 128.000,207.889 128.000 C 208.377 128.000,209.073 129.575,209.434 131.500 C 209.795 133.425,210.520 135.000,211.045 135.000 C 211.570 135.000,212.000 135.900,212.000 137.000 C 212.000 138.100,212.450 139.000,213.000 139.000 C 213.550 139.000,214.000 139.801,214.000 140.779 C 214.000 141.758,214.900 143.207,216.000 144.000 C 217.100 144.793,218.000 146.143,218.000 147.000 C 218.000 147.857,218.900 149.207,220.000 150.000 C 221.100 150.793,222.000 152.242,222.000 153.221 C 222.000 154.199,222.450 155.000,223.000 155.000 C 223.550 155.000,224.000 155.900,224.000 157.000 C 224.000 158.100,224.450 159.000,225.000 159.000 C 225.550 159.000,226.000 159.576,226.000 160.279 C 226.000 160.983,226.900 162.207,228.000 163.000 C 230.118 164.526,230.948 172.000,229.000 172.000 C 228.450 172.000,228.000 172.900,228.000 174.000 C 228.000 175.100,227.550 176.000,227.000 176.000 C 226.450 176.000,226.000 176.900,226.000 178.000 C 226.000 179.100,225.550 180.000,225.000 180.000 C 224.450 180.000,224.000 180.870,224.000 181.933 C 224.000 182.996,223.100 184.151,222.000 184.500 C 220.900 184.849,220.000 186.004,220.000 187.067 C 220.000 188.130,219.550 189.000,219.000 189.000 C 218.450 189.000,218.000 189.801,218.000 190.779 C 218.000 191.758,217.100 193.207,216.000 194.000 C 214.900 194.793,214.000 196.242,214.000 197.221 C 214.000 198.199,213.550 199.000,213.000 199.000 C 212.450 199.000,212.000 199.900,212.000 201.000 C 212.000 202.100,211.550 203.000,211.000 203.000 C 210.450 203.000,210.000 203.868,210.000 204.929 C 210.000 205.989,209.325 207.532,208.500 208.357 C 207.675 209.182,207.000 210.339,207.000 210.929 C 207.000 211.518,206.550 212.000,206.000 212.000 C 205.450 212.000,205.000 212.900,205.000 214.000 C 205.000 215.100,204.550 216.000,204.000 216.000 C 203.450 216.000,203.000 216.801,203.000 217.779 C 203.000 218.758,202.100 220.207,201.000 221.000 C 199.900 221.793,199.000 223.242,199.000 224.221 C 199.000 225.199,198.550 226.000,198.000 226.000 C 197.450 226.000,197.000 226.801,197.000 227.779 C 197.000 228.758,196.100 230.207,195.000 231.000 C 193.900 231.793,193.000 233.017,193.000 233.721 C 193.000 234.424,192.550 235.000,192.000 235.000 C 191.450 235.000,191.000 235.801,191.000 236.779 C 191.000 237.758,190.100 239.207,189.000 240.000 C 187.900 240.793,187.000 242.242,187.000 243.221 C 187.000 244.199,186.590 245.000,186.088 245.000 C 185.586 245.000,184.885 246.719,184.530 248.821 C 184.175 250.922,183.011 253.272,181.942 254.042 C 180.874 254.812,180.000 256.017,180.000 256.721 C 180.000 257.424,179.550 258.000,179.000 258.000 C 178.450 258.000,178.000 258.900,178.000 260.000 C 178.000 261.100,177.550 262.000,177.000 262.000 C 176.450 262.000,176.000 262.801,176.000 263.779 C 176.000 264.758,175.100 266.207,174.000 267.000 C 172.900 267.793,172.000 269.242,172.000 270.221 C 172.000 271.199,171.550 272.000,171.000 272.000 C 170.450 272.000,170.000 272.900,170.000 274.000 C 170.000 275.100,169.550 276.000,169.000 276.000 C 168.450 276.000,168.000 276.801,168.000 277.779 C 168.000 278.758,167.100 280.207,166.000 281.000 C 164.900 281.793,164.000 283.017,164.000 283.721 C 164.000 284.424,163.550 285.000,163.000 285.000 C 162.450 285.000,162.000 285.900,162.000 287.000 C 162.000 288.100,161.606 289.000,161.125 289.000 C 160.644 289.000,159.980 290.350,159.650 292.000 L 159.050 295.000 127.025 295.000 C 106.342 295.000,95.000 295.354,95.000 296.000 C 95.000 296.550,93.650 297.000,92.000 297.000 C 90.350 297.000,89.000 297.450,89.000 298.000 C 89.000 298.550,88.535 299.000,87.967 299.000 C 86.113 299.000,80.000 305.880,80.000 307.967 C 80.000 309.085,79.550 310.000,79.000 310.000 C 78.407 310.000,78.000 313.667,78.000 319.000 C 78.000 324.333,78.407 328.000,79.000 328.000 C 79.550 328.000,80.000 328.465,80.000 329.033 C 80.000 330.378,86.622 337.000,87.967 337.000 C 88.535 337.000,89.000 337.450,89.000 338.000 C 89.000 338.550,90.350 339.000,92.000 339.000 C 93.650 339.000,95.000 339.450,95.000 340.000 C 95.000 340.660,130.833 341.000,200.500 341.000 C 305.333 341.000,306.000 340.987,306.000 339.000 C 306.000 337.900,306.450 337.000,307.000 337.000 C 307.596 337.000,308.000 333.167,308.000 327.500 C 308.000 322.275,307.609 318.000,307.132 318.000 C 306.654 318.000,306.016 316.159,305.714 313.908 C 305.136 309.594,297.658 301.000,294.482 301.000 C 293.667 301.000,293.000 300.550,293.000 300.000 C 293.000 299.450,292.100 299.000,291.000 299.000 C 289.900 299.000,289.000 298.550,289.000 298.000 C 289.000 297.450,287.650 297.000,286.000 297.000 C 284.350 297.000,283.000 296.550,283.000 296.000 C 283.000 295.352,270.500 295.000,247.500 295.000 C 224.500 295.000,212.000 294.648,212.000 294.000 C 212.000 293.450,212.450 293.000,213.000 293.000 C 213.550 293.000,214.000 292.100,214.000 291.000 C 214.000 289.900,214.450 289.000,215.000 289.000 C 215.550 289.000,216.000 288.199,216.000 287.221 C 216.000 286.242,216.900 284.793,218.000 284.000 C 219.100 283.207,220.000 281.983,220.000 281.279 C 220.000 280.576,220.450 280.000,221.000 280.000 C 221.550 280.000,222.000 279.100,222.000 278.000 C 222.000 276.900,222.450 276.000,223.000 276.000 C 223.550 276.000,224.000 275.199,224.000 274.221 C 224.000 273.242,224.900 271.793,226.000 271.000 C 227.100 270.207,228.000 268.758,228.000 267.779 C 228.000 266.801,228.450 266.000,229.000 266.000 C 229.550 266.000,230.000 265.100,230.000 264.000 C 230.000 262.900,230.450 262.000,231.000 262.000 C 231.550 262.000,232.000 261.086,232.000 259.969 C 232.000 258.851,232.675 257.678,233.500 257.362 C 234.325 257.045,235.000 255.934,235.000 254.893 C 235.000 253.852,235.450 253.000,236.000 253.000 C 236.550 253.000,237.000 252.100,237.000 251.000 C 237.000 249.900,237.450 249.000,238.000 249.000 C 238.550 249.000,239.000 248.199,239.000 247.221 C 239.000 246.242,239.900 244.793,241.000 244.000 C 242.100 243.207,243.000 241.758,243.000 240.779 C 243.000 239.801,243.450 239.000,244.000 239.000 C 244.550 239.000,245.000 238.100,245.000 237.000 C 245.000 235.900,245.450 235.000,246.000 235.000 C 246.550 235.000,247.000 234.424,247.000 233.721 C 247.000 233.017,247.900 231.793,249.000 231.000 C 250.100 230.207,251.000 228.758,251.000 227.779 C 251.000 226.801,251.450 226.000,252.000 226.000 C 252.550 226.000,253.000 225.199,253.000 224.221 C 253.000 223.242,253.874 221.812,254.942 221.042 C 256.011 220.272,257.175 217.922,257.530 215.821 C 257.885 213.719,258.586 212.000,259.088 212.000 C 259.590 212.000,260.000 211.130,260.000 210.067 C 260.000 209.004,260.900 207.849,262.000 207.500 C 263.100 207.151,264.000 205.996,264.000 204.933 C 264.000 203.870,264.450 203.000,265.000 203.000 C 265.550 203.000,266.000 202.100,266.000 201.000 C 266.000 199.900,266.450 199.000,267.000 199.000 C 267.550 199.000,268.000 198.199,268.000 197.221 C 268.000 196.242,268.900 194.793,270.000 194.000 C 271.100 193.207,272.000 191.758,272.000 190.779 C 272.000 189.801,272.450 189.000,273.000 189.000 C 273.550 189.000,274.000 188.100,274.000 187.000 C 274.000 185.900,274.450 185.000,275.000 185.000 C 275.550 185.000,276.000 184.424,276.000 183.721 C 276.000 183.017,276.900 181.793,278.000 181.000 C 279.100 180.207,280.000 178.758,280.000 177.779 C 280.000 176.801,280.450 176.000,281.000 176.000 C 281.550 176.000,282.000 175.132,282.000 174.071 C 282.000 173.011,282.675 171.468,283.500 170.643 C 284.325 169.818,285.000 168.436,285.000 167.571 C 285.000 166.707,285.450 166.000,286.000 166.000 C 286.550 166.000,287.000 165.100,287.000 164.000 C 287.000 162.900,287.450 162.000,288.000 162.000 C 288.550 162.000,289.000 161.424,289.000 160.721 C 289.000 160.017,289.900 158.793,291.000 158.000 C 292.100 157.207,293.000 155.758,293.000 154.779 C 293.000 153.801,293.450 153.000,294.000 153.000 C 294.550 153.000,295.000 152.100,295.000 151.000 C 295.000 149.900,295.450 149.000,296.000 149.000 C 296.550 149.000,297.000 148.199,297.000 147.221 C 297.000 146.242,297.900 144.793,299.000 144.000 C 300.100 143.207,301.000 141.758,301.000 140.779 C 301.000 139.801,301.450 139.000,302.000 139.000 C 302.550 139.000,303.000 138.100,303.000 137.000 C 303.000 135.900,303.401 135.000,303.892 135.000 C 304.382 135.000,305.066 133.875,305.411 132.500 C 305.756 131.125,306.480 130.000,307.019 130.000 C 307.559 130.000,308.000 128.200,308.000 126.000 C 308.000 123.800,308.450 122.000,309.000 122.000 C 309.550 122.000,310.000 120.200,310.000 118.000 C 310.000 115.800,309.550 114.000,309.000 114.000 C 308.450 114.000,308.000 112.631,308.000 110.958 C 308.000 109.285,307.438 107.245,306.750 106.426 C 302.032 100.805,297.927 97.000,296.578 97.000 C 295.710 97.000,295.000 96.550,295.000 96.000 C 295.000 95.422,291.833 95.000,287.500 95.000 C 283.167 95.000,280.000 95.422,280.000 96.000 C 280.000 96.550,279.317 97.000,278.481 97.000 C 276.803 97.000,264.000 109.361,264.000 110.981 C 264.000 111.542,263.550 112.000,263.000 112.000 C 262.450 112.000,262.000 112.900,262.000 114.000 C 262.000 115.100,261.550 116.000,261.000 116.000 C 260.450 116.000,260.000 116.707,260.000 117.571 C 260.000 118.436,259.325 119.818,258.500 120.643 C 257.167 121.976,257.000 121.937,257.000 120.292 C 257.000 119.274,256.100 117.793,255.000 117.000 C 253.900 116.207,253.000 114.758,253.000 113.779 C 253.000 112.801,252.550 112.000,252.000 112.000 C 251.450 112.000,251.000 111.424,251.000 110.721 C 251.000 110.017,250.100 108.793,249.000 108.000 C 247.900 107.207,247.000 105.962,247.000 105.234 C 247.000 103.409,242.435 99.000,240.545 99.000 C 239.695 99.000,239.000 98.550,239.000 98.000 C 239.000 97.450,238.100 97.000,237.000 97.000 C 235.900 97.000,235.000 96.550,235.000 96.000 C 235.000 95.436,232.167 95.000,228.500 95.000 C 224.833 95.000,222.000 95.436,222.000 96.000 M3.188 106.739 C 3.690 109.345,7.000 109.636,7.000 107.073 C 7.000 105.642,6.358 105.000,4.927 105.000 C 3.496 105.000,2.957 105.539,3.188 106.739 M508.000 107.000 C 508.000 109.202,508.124 109.273,510.418 108.393 C 512.684 107.523,512.373 105.000,510.000 105.000 C 508.667 105.000,508.000 105.667,508.000 107.000 M287.000 183.133 C 287.000 183.756,286.172 184.993,285.160 185.883 C 284.148 186.772,283.014 188.738,282.641 190.250 C 282.267 191.762,281.520 193.000,280.981 193.000 C 280.441 193.000,280.000 193.900,280.000 195.000 C 280.000 196.100,279.550 197.000,279.000 197.000 C 278.450 197.000,278.000 198.350,278.000 200.000 C 278.000 201.650,277.550 203.000,277.000 203.000 C 276.450 203.000,276.000 204.350,276.000 206.000 C 276.000 207.650,275.550 209.000,275.000 209.000 C 274.378 209.000,274.000 214.667,274.000 224.000 C 274.000 233.333,274.378 239.000,275.000 239.000 C 275.550 239.000,276.000 240.800,276.000 243.000 C 276.000 245.200,276.450 247.000,277.000 247.000 C 277.550 247.000,278.000 247.900,278.000 249.000 C 278.000 250.100,278.450 251.000,279.000 251.000 C 279.550 251.000,280.000 251.900,280.000 253.000 C 280.000 254.100,280.430 255.000,280.955 255.000 C 281.480 255.000,282.205 256.575,282.566 258.500 C 282.927 260.425,283.623 262.000,284.111 262.000 C 284.600 262.000,285.000 262.801,285.000 263.779 C 285.000 264.758,285.900 266.207,287.000 267.000 C 288.100 267.793,289.000 269.242,289.000 270.221 C 289.000 271.199,289.450 272.000,290.000 272.000 C 290.550 272.000,291.000 272.801,291.000 273.779 C 291.000 274.758,291.900 276.207,293.000 277.000 C 294.100 277.793,295.000 279.242,295.000 280.221 C 295.000 281.199,295.450 282.000,296.000 282.000 C 296.550 282.000,297.000 282.675,297.000 283.500 C 297.000 284.325,297.450 285.000,298.000 285.000 C 298.550 285.000,299.000 285.801,299.000 286.779 C 299.000 287.758,299.900 289.207,301.000 290.000 C 302.100 290.793,303.000 292.242,303.000 293.221 C 303.000 294.199,303.450 295.000,304.000 295.000 C 304.550 295.000,305.000 295.900,305.000 297.000 C 305.000 298.100,305.450 299.000,306.000 299.000 C 306.550 299.000,307.000 299.845,307.000 300.878 C 307.000 301.910,307.675 303.315,308.500 304.000 C 309.325 304.685,310.000 305.865,310.000 306.622 C 310.000 307.380,310.450 308.000,311.000 308.000 C 311.550 308.000,312.000 308.900,312.000 310.000 C 312.000 311.100,312.450 312.000,313.000 312.000 C 313.550 312.000,314.000 312.801,314.000 313.779 C 314.000 314.758,314.900 316.207,316.000 317.000 C 317.100 317.793,318.000 319.242,318.000 320.221 C 318.000 321.199,318.450 322.000,319.000 322.000 C 319.550 322.000,320.000 322.900,320.000 324.000 C 320.000 325.100,320.450 326.000,321.000 326.000 C 321.550 326.000,322.000 326.576,322.000 327.279 C 322.000 327.983,322.900 329.207,324.000 330.000 C 325.100 330.793,326.000 332.242,326.000 333.221 C 326.000 334.199,326.450 335.000,327.000 335.000 C 327.550 335.000,328.000 335.900,328.000 337.000 C 328.000 338.100,328.450 339.000,329.000 339.000 C 329.550 339.000,330.000 339.845,330.000 340.878 C 330.000 341.910,330.675 343.315,331.500 344.000 C 332.325 344.685,333.000 346.090,333.000 347.122 C 333.000 348.155,333.450 349.000,334.000 349.000 C 334.550 349.000,335.000 349.801,335.000 350.779 C 335.000 351.758,335.900 353.207,337.000 354.000 C 338.100 354.793,339.000 356.017,339.000 356.721 C 339.000 357.424,339.450 358.000,340.000 358.000 C 340.550 358.000,341.000 358.900,341.000 360.000 C 341.000 361.100,341.450 362.000,342.000 362.000 C 342.550 362.000,343.000 362.801,343.000 363.779 C 343.000 364.758,343.900 366.207,345.000 367.000 C 346.100 367.793,347.000 369.242,347.000 370.221 C 347.000 371.199,347.450 372.000,348.000 372.000 C 348.550 372.000,349.000 372.801,349.000 373.779 C 349.000 374.758,349.900 376.207,351.000 377.000 C 352.100 377.793,353.000 379.017,353.000 379.721 C 353.000 380.424,353.410 381.000,353.912 381.000 C 354.414 381.000,355.115 382.719,355.470 384.821 C 355.825 386.922,356.989 389.272,358.058 390.042 C 359.126 390.812,360.000 392.242,360.000 393.221 C 360.000 394.199,360.450 395.000,361.000 395.000 C 361.550 395.000,362.000 395.801,362.000 396.779 C 362.000 397.758,362.900 399.207,364.000 400.000 C 365.100 400.793,366.000 401.908,366.000 402.478 C 366.000 403.992,372.816 410.000,374.534 410.000 C 375.340 410.000,376.000 410.450,376.000 411.000 C 376.000 411.550,377.575 412.000,379.500 412.000 C 381.425 412.000,383.000 412.450,383.000 413.000 C 383.000 413.550,384.350 414.000,386.000 414.000 C 387.650 414.000,389.000 413.550,389.000 413.000 C 389.000 412.450,390.701 412.000,392.779 412.000 C 395.411 412.000,396.996 411.393,398.000 410.000 C 398.793 408.900,400.242 408.000,401.221 408.000 C 402.199 408.000,403.000 407.380,403.000 406.622 C 403.000 405.865,403.675 404.685,404.500 404.000 C 405.325 403.315,406.000 401.910,406.000 400.878 C 406.000 399.845,406.450 399.000,407.000 399.000 C 407.583 399.000,408.000 395.667,408.000 391.000 C 408.000 386.600,407.586 383.000,407.079 383.000 C 406.573 383.000,405.864 381.655,405.503 380.011 C 405.142 378.368,404.431 376.766,403.923 376.452 C 403.415 376.139,403.000 375.009,403.000 373.941 C 403.000 372.873,402.550 372.000,402.000 372.000 C 401.450 372.000,401.000 371.100,401.000 370.000 C 401.000 368.900,400.550 368.000,400.000 368.000 C 399.450 368.000,399.000 367.199,399.000 366.221 C 399.000 365.242,398.100 363.793,397.000 363.000 C 395.900 362.207,395.000 360.758,395.000 359.779 C 395.000 358.801,394.550 358.000,394.000 358.000 C 393.450 358.000,393.000 357.424,393.000 356.721 C 393.000 356.017,392.100 354.793,391.000 354.000 C 389.900 353.207,389.000 351.758,389.000 350.779 C 389.000 349.801,388.550 349.000,388.000 349.000 C 387.450 349.000,387.000 348.100,387.000 347.000 C 387.000 345.900,386.550 345.000,386.000 345.000 C 385.450 345.000,385.000 344.100,385.000 343.000 C 385.000 341.076,385.667 341.000,402.500 341.000 C 413.500 341.000,420.000 340.629,420.000 340.000 C 420.000 339.450,421.350 339.000,423.000 339.000 C 424.650 339.000,426.000 338.550,426.000 338.000 C 426.000 337.450,426.470 337.000,427.045 337.000 C 428.282 337.000,433.000 332.457,433.000 331.266 C 433.000 330.813,433.900 329.793,435.000 329.000 C 438.034 326.813,438.034 308.463,435.000 307.500 C 433.900 307.151,433.000 306.188,433.000 305.361 C 433.000 303.736,430.674 301.000,429.292 301.000 C 428.824 301.000,427.793 300.100,427.000 299.000 C 426.153 297.826,424.411 297.000,422.779 297.000 C 421.251 297.000,420.000 296.550,420.000 296.000 C 420.000 295.354,408.696 295.000,388.088 295.000 L 356.176 295.000 355.530 291.179 C 355.175 289.078,354.011 286.728,352.942 285.958 C 351.874 285.188,351.000 283.983,351.000 283.279 C 351.000 282.576,350.550 282.000,350.000 282.000 C 349.450 282.000,349.000 281.199,349.000 280.221 C 349.000 279.242,348.100 277.793,347.000 277.000 C 345.900 276.207,345.000 274.758,345.000 273.779 C 345.000 272.801,344.550 272.000,344.000 272.000 C 343.450 272.000,343.000 271.100,343.000 270.000 C 343.000 268.900,342.550 268.000,342.000 268.000 C 341.450 268.000,341.000 267.199,341.000 266.221 C 341.000 265.242,340.100 263.793,339.000 263.000 C 337.900 262.207,337.000 260.758,337.000 259.779 C 337.000 258.801,336.550 258.000,336.000 258.000 C 335.450 258.000,335.000 257.424,335.000 256.721 C 335.000 256.017,334.126 254.812,333.058 254.042 C 331.989 253.272,330.825 250.922,330.470 248.821 C 330.115 246.719,329.414 245.000,328.912 245.000 C 328.410 245.000,328.000 244.199,328.000 243.221 C 328.000 242.242,327.100 240.793,326.000 240.000 C 324.900 239.207,324.000 237.758,324.000 236.779 C 324.000 235.801,323.550 235.000,323.000 235.000 C 322.450 235.000,322.000 234.325,322.000 233.500 C 322.000 232.675,321.550 232.000,321.000 232.000 C 320.450 232.000,320.000 231.199,320.000 230.221 C 320.000 229.242,319.100 227.793,318.000 227.000 C 316.900 226.207,316.000 224.758,316.000 223.779 C 316.000 222.801,315.550 222.000,315.000 222.000 C 314.450 222.000,314.000 221.199,314.000 220.221 C 314.000 219.242,313.100 217.793,312.000 217.000 C 310.900 216.207,310.000 214.758,310.000 213.779 C 310.000 212.801,309.550 212.000,309.000 212.000 C 308.450 212.000,308.000 211.518,308.000 210.929 C 308.000 210.339,307.325 209.182,306.500 208.357 C 305.675 207.532,305.000 205.989,305.000 204.929 C 305.000 203.868,304.550 203.000,304.000 203.000 C 303.450 203.000,303.000 202.100,303.000 201.000 C 303.000 199.900,302.550 199.000,302.000 199.000 C 301.450 199.000,301.000 198.100,301.000 197.000 C 301.000 195.900,300.550 195.000,300.000 195.000 C 299.450 195.000,299.000 194.100,299.000 193.000 C 299.000 191.900,298.550 191.000,298.000 191.000 C 297.450 191.000,297.000 190.199,297.000 189.221 C 297.000 188.242,296.100 186.793,295.000 186.000 C 293.900 185.207,293.000 183.983,293.000 183.279 C 293.000 182.525,291.770 182.000,290.000 182.000 C 288.350 182.000,287.000 182.510,287.000 183.133 M130.000 350.000 C 130.000 350.550,129.305 351.000,128.455 351.000 C 126.715 351.000,122.000 355.349,122.000 356.955 C 122.000 357.530,121.550 358.000,121.000 358.000 C 120.450 358.000,120.000 358.900,120.000 360.000 C 120.000 361.100,119.550 362.000,119.000 362.000 C 118.450 362.000,118.000 362.801,118.000 363.779 C 118.000 364.758,117.100 366.207,116.000 367.000 C 114.900 367.793,114.000 369.242,114.000 370.221 C 114.000 371.199,113.550 372.000,113.000 372.000 C 112.450 372.000,112.000 372.873,112.000 373.941 C 112.000 375.009,111.585 376.139,111.077 376.452 C 110.569 376.766,109.858 378.368,109.497 380.011 C 109.136 381.655,108.427 383.000,107.921 383.000 C 107.414 383.000,107.000 386.150,107.000 390.000 C 107.000 394.000,107.429 397.000,108.000 397.000 C 108.550 397.000,109.000 398.146,109.000 399.548 C 109.000 403.704,117.962 412.000,122.452 412.000 C 124.404 412.000,126.000 412.450,126.000 413.000 C 126.000 413.550,127.800 414.000,130.000 414.000 C 132.200 414.000,134.000 413.550,134.000 413.000 C 134.000 412.450,135.125 412.000,136.500 412.000 C 137.875 412.000,139.000 411.550,139.000 411.000 C 139.000 410.450,139.674 410.000,140.498 410.000 C 141.321 410.000,143.665 408.425,145.706 406.500 C 147.747 404.575,149.773 403.000,150.208 403.000 C 150.644 403.000,151.000 402.100,151.000 401.000 C 151.000 399.900,151.450 399.000,152.000 399.000 C 152.550 399.000,153.000 398.199,153.000 397.221 C 153.000 396.242,153.900 394.793,155.000 394.000 C 156.100 393.207,157.000 391.758,157.000 390.779 C 157.000 389.801,157.450 389.000,158.000 389.000 C 158.550 389.000,159.000 388.132,159.000 387.071 C 159.000 386.011,159.675 384.468,160.500 383.643 C 161.325 382.818,162.000 381.661,162.000 381.071 C 162.000 380.482,162.450 380.000,163.000 380.000 C 163.550 380.000,164.000 379.100,164.000 378.000 C 164.000 376.900,164.450 376.000,165.000 376.000 C 165.550 376.000,166.000 375.199,166.000 374.221 C 166.000 373.242,166.900 371.793,168.000 371.000 C 172.918 367.455,169.427 357.328,162.705 355.641 C 161.217 355.267,160.000 354.520,160.000 353.981 C 160.000 353.441,159.325 353.000,158.500 353.000 C 157.675 353.000,157.000 352.550,157.000 352.000 C 157.000 351.450,155.200 351.000,153.000 351.000 C 150.800 351.000,149.000 350.550,149.000 350.000 C 149.000 349.404,145.167 349.000,139.500 349.000 C 133.833 349.000,130.000 349.404,130.000 350.000 M4.250 406.662 C 2.243 407.472,2.812 410.000,5.000 410.000 C 6.333 410.000,7.000 409.333,7.000 408.000 C 7.000 405.979,6.521 405.746,4.250 406.662 M508.688 406.646 C 507.272 408.061,508.073 410.000,510.073 410.000 C 511.471 410.000,512.041 409.457,511.823 408.333 C 511.466 406.492,509.759 405.574,508.688 406.646 M5.000 420.000 C 5.000 421.333,5.667 422.000,7.000 422.000 C 8.333 422.000,9.000 421.333,9.000 420.000 C 9.000 418.667,8.333 418.000,7.000 418.000 C 5.667 418.000,5.000 418.667,5.000 420.000 M506.000 420.000 C 506.000 421.333,506.667 422.000,508.000 422.000 C 509.333 422.000,510.000 421.333,510.000 420.000 C 510.000 418.667,509.333 418.000,508.000 418.000 C 506.667 418.000,506.000 418.667,506.000 420.000 M7.000 429.500 C 7.000 430.325,7.675 431.000,8.500 431.000 C 9.325 431.000,10.000 430.325,10.000 429.500 C 10.000 428.675,9.325 428.000,8.500 428.000 C 7.675 428.000,7.000 428.675,7.000 429.500 M504.694 428.639 C 503.761 429.573,504.888 431.000,506.559 431.000 C 507.352 431.000,508.000 430.325,508.000 429.500 C 508.000 427.994,505.889 427.444,504.694 428.639 M9.000 435.000 C 9.000 436.111,9.667 437.000,10.500 437.000 C 11.333 437.000,12.000 436.111,12.000 435.000 C 12.000 433.889,11.333 433.000,10.500 433.000 C 9.667 433.000,9.000 433.889,9.000 435.000 M503.000 435.000 C 503.000 436.111,503.667 437.000,504.500 437.000 C 505.333 437.000,506.000 436.111,506.000 435.000 C 506.000 433.889,505.333 433.000,504.500 433.000 C 503.667 433.000,503.000 433.889,503.000 435.000 M11.000 441.000 C 11.000 442.111,11.667 443.000,12.500 443.000 C 13.333 443.000,14.000 442.111,14.000 441.000 C 14.000 439.889,13.333 439.000,12.500 439.000 C 11.667 439.000,11.000 439.889,11.000 441.000 M501.000 441.000 C 501.000 442.111,501.667 443.000,502.500 443.000 C 503.333 443.000,504.000 442.111,504.000 441.000 C 504.000 439.889,503.333 439.000,502.500 439.000 C 501.667 439.000,501.000 439.889,501.000 441.000 M20.000 460.000 C 20.000 461.333,20.667 462.000,22.000 462.000 C 23.333 462.000,24.000 461.333,24.000 460.000 C 24.000 458.667,23.333 458.000,22.000 458.000 C 20.667 458.000,20.000 458.667,20.000 460.000 M491.667 458.667 C 490.290 460.043,491.073 462.000,493.000 462.000 C 495.202 462.000,495.273 461.876,494.393 459.582 C 493.749 457.903,492.762 457.572,491.667 458.667 M487.356 465.233 C 486.673 466.339,487.571 467.320,489.529 467.607 C 490.344 467.727,491.000 467.045,491.000 466.078 C 491.000 464.270,488.334 463.651,487.356 465.233 M464.688 487.646 C 463.272 489.061,464.073 491.000,466.073 491.000 C 467.471 491.000,468.041 490.457,467.823 489.333 C 467.466 487.492,465.759 486.574,464.688 487.646 M53.000 493.073 C 53.000 495.636,56.310 495.345,56.812 492.739 C 57.043 491.539,56.504 491.000,55.073 491.000 C 53.642 491.000,53.000 491.642,53.000 493.073 M458.000 493.000 C 458.000 494.333,458.667 495.000,460.000 495.000 C 461.333 495.000,462.000 494.333,462.000 493.000 C 462.000 491.667,461.333 491.000,460.000 491.000 C 458.667 491.000,458.000 491.667,458.000 493.000 M72.000 502.500 C 72.000 503.333,72.889 504.000,74.000 504.000 C 75.111 504.000,76.000 503.333,76.000 502.500 C 76.000 501.667,75.111 501.000,74.000 501.000 C 72.889 501.000,72.000 501.667,72.000 502.500 M439.000 502.500 C 439.000 503.333,439.889 504.000,441.000 504.000 C 442.111 504.000,443.000 503.333,443.000 502.500 C 443.000 501.667,442.111 501.000,441.000 501.000 C 439.889 501.000,439.000 501.667,439.000 502.500 M78.000 504.427 C 78.000 505.354,78.855 506.000,80.083 506.000 C 82.520 506.000,82.176 503.663,79.667 503.177 C 78.680 502.985,78.000 503.495,78.000 504.427 M433.000 504.500 C 433.000 505.333,433.889 506.000,435.000 506.000 C 436.111 506.000,437.000 505.333,437.000 504.500 C 437.000 503.667,436.111 503.000,435.000 503.000 C 433.889 503.000,433.000 503.667,433.000 504.500 M428.000 506.000 C 428.000 507.111,428.667 508.000,429.500 508.000 C 430.333 508.000,431.000 507.111,431.000 506.000 C 431.000 504.889,430.333 504.000,429.500 504.000 C 428.667 504.000,428.000 504.889,428.000 506.000 M93.667 506.667 C 92.290 508.043,93.073 510.000,95.000 510.000 C 96.333 510.000,97.000 509.333,97.000 508.000 C 97.000 506.073,95.043 505.290,93.667 506.667 M418.000 507.927 C 418.000 509.358,418.642 510.000,420.073 510.000 C 422.636 510.000,422.345 506.690,419.739 506.188 C 418.539 505.957,418.000 506.496,418.000 507.927 M105.000 510.073 C 105.000 512.636,108.310 512.345,108.812 509.739 C 109.043 508.539,108.504 508.000,107.073 508.000 C 105.642 508.000,105.000 508.642,105.000 510.073 M406.188 509.739 C 406.690 512.345,410.000 512.636,410.000 510.073 C 410.000 508.642,409.358 508.000,407.927 508.000 C 406.496 508.000,405.957 508.539,406.188 509.739 " stroke="none" fill="#000000" fill-rule="evenodd"></path></g></svg>