<svg id="svg" version="1.1" width="515" height="515" xmlns="http://www.w3.org/2000/svg" xmlns:xlink="http://www.w3.org/1999/xlink" style="display: block;"><g id="svgg"><path id="path0" d="M254.099 68.190 C 246.266 88.357,231.536 123.528,225.117 137.390 C 222.852 142.279,221.000 146.843,221.000 147.531 C 221.000 149.097,235.912 163.277,245.387 170.722 C 249.299 173.796,252.950 176.737,253.500 177.258 C 258.115 181.625,224.942 162.814,219.760 158.125 C 218.254 156.761,216.860 155.838,216.664 156.073 C 216.467 156.308,213.427 162.350,209.909 169.500 C 206.390 176.650,197.156 194.650,189.388 209.500 C 167.928 250.526,152.264 279.370,120.789 335.819 C 111.740 352.048,111.696 352.521,119.691 347.748 C 155.012 326.662,191.976 310.911,223.341 303.580 C 225.526 303.070,226.018 302.522,225.474 301.208 C 223.848 297.285,223.796 275.556,225.395 268.035 C 234.295 226.170,269.566 220.358,283.262 258.500 C 287.771 271.057,289.469 293.631,286.477 301.242 C 286.052 302.324,286.305 303.134,287.146 303.382 C 287.891 303.602,293.900 305.245,300.500 307.033 C 322.929 313.110,367.426 333.030,390.808 347.462 C 394.230 349.575,397.225 351.108,397.463 350.870 C 398.602 349.732,374.814 307.315,371.261 304.147 C 364.250 297.897,344.538 283.518,336.812 279.020 C 332.583 276.558,329.256 274.411,329.418 274.249 C 329.980 273.686,347.549 280.210,355.733 284.021 L 363.966 287.855 361.842 283.677 C 360.674 281.380,352.061 265.100,342.703 247.500 C 320.745 206.203,292.508 150.129,282.779 128.500 C 273.609 108.115,257.000 69.099,257.000 67.942 C 257.000 65.923,254.910 66.101,254.099 68.190 M191.500 352.846 L 184.500 354.528 184.240 401.264 C 184.015 441.700,184.177 448.000,185.441 448.000 C 186.715 448.000,192.363 446.987,199.750 445.435 L 202.000 444.962 202.000 422.116 C 202.000 394.309,204.215 390.000,218.510 390.000 C 231.094 390.000,232.000 392.199,232.000 422.723 C 232.000 451.723,230.713 448.900,242.981 446.796 L 250.000 445.593 250.000 418.247 C 250.000 385.133,249.338 383.356,234.958 377.892 C 220.571 372.425,208.788 374.528,194.500 385.110 C 192.841 386.339,193.848 384.896,196.750 381.885 L 202.000 376.437 202.000 363.719 C 202.000 349.147,202.921 350.101,191.500 352.846 M268.199 352.089 C 266.384 352.463,264.726 352.940,264.516 353.150 C 264.306 353.361,263.809 374.565,263.413 400.272 L 262.691 447.012 266.096 446.374 C 267.968 446.023,269.950 445.323,270.500 444.819 C 271.449 443.949,272.532 371.625,271.809 357.455 L 271.500 351.410 268.199 352.089 M286.621 354.481 C 283.743 356.780,283.742 356.782,285.621 359.359 C 287.868 362.443,288.775 362.538,291.808 360.009 C 296.229 356.324,291.123 350.883,286.621 354.481 M16.665 373.507 C 10.793 375.121,11.618 373.828,9.811 384.250 C 8.095 394.156,7.744 393.787,16.540 391.346 C 30.698 387.418,45.000 389.790,45.000 396.067 C 45.000 397.659,44.729 397.646,41.289 395.892 C 28.910 389.581,7.340 396.479,1.866 408.500 C -11.263 437.326,26.146 460.417,50.177 438.321 L 55.420 433.500 51.710 438.752 C 45.756 447.182,46.331 447.872,57.668 445.897 L 64.000 444.795 64.000 418.840 C 64.000 388.580,63.484 385.420,57.582 379.554 C 50.433 372.447,30.983 369.573,16.665 373.507 M81.000 374.375 L 74.500 375.505 74.238 411.649 L 73.975 447.793 77.738 446.984 C 79.807 446.538,84.088 445.653,87.250 445.016 L 93.000 443.858 93.000 422.394 C 93.000 395.982,93.732 394.423,107.709 391.070 C 112.430 389.937,112.940 389.513,114.792 385.175 C 115.889 382.604,117.545 378.743,118.471 376.596 L 120.156 372.692 112.200 373.305 C 102.501 374.053,96.762 376.219,93.493 380.366 L 91.022 383.500 91.011 378.250 C 90.999 372.307,91.585 372.534,81.000 374.375 M135.081 375.527 C 103.098 384.490,102.758 433.833,134.601 445.091 C 148.278 449.925,165.187 447.215,174.533 438.689 L 179.126 434.500 173.125 428.592 L 167.123 422.685 163.647 425.736 C 146.859 440.477,121.338 420.457,132.543 401.336 C 138.270 391.565,154.908 389.003,163.839 396.518 L 166.770 398.984 172.385 392.588 C 179.112 384.926,179.090 385.108,173.750 381.339 C 164.220 374.610,147.381 372.080,135.081 375.527 M328.224 378.410 C 322.308 380.339,319.467 382.380,315.872 387.286 L 312.784 391.500 313.329 384.747 L 313.873 377.994 311.187 378.590 C 304.491 380.075,305.001 378.615,304.991 396.317 C 304.985 405.218,304.692 420.333,304.338 429.906 L 303.694 447.311 307.511 446.692 C 312.983 445.804,312.802 446.597,313.166 421.842 L 313.500 399.184 316.543 395.342 C 325.619 383.886,345.010 382.195,352.171 392.235 C 354.488 395.483,354.498 395.640,354.203 421.737 C 353.963 442.879,354.158 447.895,355.203 447.570 C 355.916 447.348,357.738 446.896,359.250 446.564 L 362.000 445.962 362.000 419.449 C 362.000 390.662,361.729 388.926,356.411 383.657 C 350.292 377.594,337.835 375.276,328.224 378.410 M288.250 379.679 L 285.000 381.006 284.968 404.753 C 284.951 417.814,284.665 432.694,284.333 437.821 L 283.730 447.141 287.615 446.438 C 289.752 446.051,291.619 445.638,291.763 445.521 C 291.908 445.403,291.908 430.242,291.763 411.830 L 291.500 378.353 288.250 379.679 M375.750 379.689 C 372.962 380.418,373.099 432.322,375.903 437.790 C 383.054 451.735,407.578 453.357,418.757 440.624 L 422.000 436.930 422.000 442.590 L 422.000 448.250 425.125 447.625 C 426.844 447.281,428.869 447.000,429.625 447.000 C 430.765 447.000,431.000 441.170,431.000 412.921 L 431.000 378.841 427.750 379.538 C 425.962 379.922,424.163 380.434,423.750 380.677 C 423.337 380.919,423.000 389.619,423.000 400.010 C 423.000 431.093,418.842 438.922,401.381 440.724 C 385.047 442.410,383.000 438.447,383.000 405.132 L 383.000 379.000 380.250 379.116 C 378.738 379.180,376.712 379.438,375.750 379.689 M443.726 381.559 L 440.965 383.934 450.649 396.717 C 455.975 403.748,460.688 409.973,461.123 410.551 C 461.587 411.166,457.133 418.198,450.371 427.526 L 438.828 443.451 441.664 445.721 C 445.411 448.719,444.156 449.795,455.921 433.514 C 461.652 425.582,466.689 419.308,467.113 419.570 C 467.538 419.832,471.739 425.549,476.449 432.273 C 481.159 438.998,485.798 445.485,486.757 446.688 L 488.500 448.877 491.355 446.567 L 494.211 444.257 482.607 427.979 C 475.513 418.027,471.320 411.273,471.817 410.600 C 472.265 409.995,475.253 405.900,478.457 401.500 C 481.661 397.100,485.627 391.767,487.270 389.648 L 490.258 385.796 487.265 382.803 L 484.272 379.811 476.012 391.423 C 471.469 397.810,467.421 403.240,467.015 403.490 C 466.323 403.919,462.371 399.191,452.196 385.762 C 446.755 378.581,447.030 378.717,443.726 381.559 M38.401 411.394 C 45.179 414.226,47.154 421.573,42.412 426.315 C 35.206 433.521,21.916 431.830,18.331 423.250 C 14.613 414.350,27.399 406.797,38.401 411.394 " stroke="none" fill="#000000" fill-rule="evenodd"></path></g></svg>