<svg id="svg" version="1.1" width="400" height="400" xmlns="http://www.w3.org/2000/svg" xmlns:xlink="http://www.w3.org/1999/xlink" style="display: block;"><g id="svgg"><path id="path0" d="M110.505 1.777 C 108.858 2.724,106.920 4.287,106.198 5.250 C 105.477 6.212,104.462 7.000,103.943 7.000 C 103.424 7.000,102.132 7.788,101.072 8.750 C 97.891 11.637,96.495 12.666,93.937 14.011 C 92.597 14.715,91.140 15.901,90.700 16.646 C 90.260 17.391,89.264 18.000,88.485 18.000 C 87.707 18.000,86.589 18.900,86.000 20.000 C 85.411 21.100,84.293 22.000,83.515 22.000 C 82.736 22.000,81.740 22.609,81.300 23.354 C 80.860 24.099,79.403 25.285,78.063 25.989 C 75.505 27.334,74.109 28.363,70.928 31.250 C 69.868 32.213,68.662 33.018,68.250 33.041 C 67.837 33.063,65.942 34.413,64.038 36.041 C 62.134 37.668,60.221 39.000,59.788 39.000 C 59.354 39.000,58.212 39.708,57.250 40.573 C 52.938 44.448,49.410 46.998,48.357 46.999 C 47.728 46.999,46.955 47.675,46.638 48.500 C 46.322 49.325,45.389 50.000,44.567 50.000 C 43.744 50.000,42.589 50.900,42.000 52.000 C 41.411 53.100,40.446 54.000,39.856 54.000 C 35.941 54.000,32.888 60.334,36.000 62.000 C 37.100 62.589,38.000 63.744,38.000 64.567 C 38.000 65.389,38.634 66.306,39.408 66.603 C 40.183 66.900,41.363 68.461,42.030 70.072 C 42.697 71.682,43.649 73.000,44.146 73.000 C 44.643 73.000,45.477 74.125,46.000 75.500 C 46.523 76.875,47.412 78.000,47.975 78.000 C 48.539 78.000,49.000 78.671,49.000 79.492 C 49.000 80.312,49.900 81.545,51.000 82.232 C 52.100 82.919,53.001 83.935,53.001 84.491 C 53.002 85.046,54.127 86.807,55.501 88.406 C 56.876 90.004,58.000 91.621,58.000 92.000 C 58.000 92.379,59.124 93.996,60.499 95.594 C 61.873 97.193,62.998 98.954,62.999 99.509 C 62.999 100.065,63.900 101.081,65.000 101.768 C 66.100 102.455,67.000 103.688,67.000 104.508 C 67.000 105.329,67.461 106.000,68.025 106.000 C 68.588 106.000,69.477 107.125,70.000 108.500 C 70.523 109.875,71.357 111.000,71.854 111.000 C 72.351 111.000,73.303 112.318,73.970 113.928 C 74.637 115.539,75.817 117.100,76.592 117.397 C 78.719 118.213,78.281 120.779,75.785 122.115 C 74.567 122.767,72.229 124.554,70.590 126.086 C 68.951 127.618,66.474 129.463,65.085 130.185 C 63.697 130.908,61.872 132.095,61.030 132.823 C 56.300 136.911,53.370 138.998,52.357 138.999 C 51.728 138.999,50.955 139.675,50.638 140.500 C 50.322 141.325,49.389 142.000,48.567 142.000 C 47.744 142.000,46.589 142.900,46.000 144.000 C 45.411 145.100,44.293 146.000,43.515 146.000 C 42.736 146.000,41.740 146.609,41.300 147.354 C 40.860 148.099,39.403 149.285,38.063 149.989 C 35.505 151.334,34.109 152.363,30.928 155.250 C 29.868 156.213,28.576 157.000,28.057 157.000 C 27.538 157.000,26.525 157.787,25.807 158.750 C 25.088 159.713,23.164 161.175,21.530 162.000 C 19.897 162.825,17.834 164.175,16.945 165.000 C 16.057 165.825,14.356 167.162,13.165 167.971 C 11.017 169.430,10.142 173.000,11.933 173.000 C 12.446 173.000,13.133 173.845,13.461 174.878 C 13.789 175.910,15.169 178.048,16.527 179.628 C 17.886 181.207,18.998 182.954,18.999 183.509 C 18.999 184.065,19.900 185.081,21.000 185.768 C 22.100 186.455,23.000 187.463,23.000 188.008 C 23.000 188.554,23.787 189.868,24.750 190.928 C 27.637 194.109,28.666 195.505,30.011 198.063 C 30.715 199.403,31.901 200.860,32.646 201.300 C 33.391 201.740,34.000 202.602,34.000 203.216 C 34.000 203.830,34.654 205.045,35.454 205.916 C 40.231 211.122,41.000 212.078,41.000 212.811 C 41.000 213.258,41.787 214.506,42.750 215.585 C 45.481 218.647,51.000 226.734,51.000 227.673 C 51.000 228.138,51.900 229.081,53.000 229.768 C 54.100 230.455,55.000 231.688,55.000 232.508 C 55.000 233.329,55.434 234.000,55.965 234.000 C 57.437 234.000,59.070 237.655,58.389 239.428 C 58.058 240.292,57.163 241.000,56.401 241.000 C 55.640 241.000,54.455 241.900,53.768 243.000 C 53.081 244.100,52.037 245.000,51.448 245.000 C 50.859 245.000,49.494 245.787,48.415 246.750 C 45.353 249.481,37.266 255.000,36.327 255.000 C 35.862 255.000,34.919 255.900,34.232 257.000 C 33.545 258.100,32.537 259.000,31.992 259.000 C 31.446 259.000,30.132 259.788,29.072 260.750 C 25.891 263.637,24.495 264.666,21.937 266.011 C 20.597 266.715,19.140 267.901,18.700 268.646 C 18.260 269.391,17.398 270.000,16.784 270.000 C 16.170 270.000,14.955 270.654,14.084 271.454 C 8.900 276.211,7.928 277.000,7.250 277.002 C 5.997 277.006,0.000 282.486,0.000 283.627 C 0.000 285.414,3.086 291.000,4.073 291.000 C 4.583 291.000,5.001 291.563,5.001 292.250 C 5.002 293.396,7.453 296.828,11.427 301.250 C 12.292 302.213,13.018 303.338,13.041 303.750 C 13.063 304.163,14.413 306.058,16.041 307.962 C 17.668 309.866,19.000 311.779,19.000 312.212 C 19.000 312.646,19.708 313.788,20.573 314.750 C 24.448 319.062,26.998 322.590,26.999 323.643 C 26.999 324.272,27.675 325.045,28.500 325.362 C 29.325 325.678,30.000 326.611,30.000 327.433 C 30.000 328.256,30.900 329.411,32.000 330.000 C 33.100 330.589,34.000 331.707,34.000 332.485 C 34.000 333.264,34.609 334.260,35.354 334.700 C 36.099 335.140,37.285 336.597,37.989 337.937 C 39.334 340.495,40.363 341.891,43.250 345.072 C 44.212 346.132,45.000 347.424,45.000 347.943 C 45.000 348.462,45.788 349.475,46.750 350.193 C 47.712 350.912,49.175 352.836,50.000 354.470 C 50.825 356.103,52.175 358.166,53.000 359.055 C 53.825 359.943,55.162 361.644,55.971 362.835 C 57.396 364.933,60.489 365.775,61.167 364.250 C 61.627 363.213,70.631 357.000,71.673 357.000 C 72.138 357.000,73.081 356.100,73.768 355.000 C 74.455 353.900,75.463 353.000,76.008 353.000 C 76.554 353.000,77.868 352.213,78.928 351.250 C 82.109 348.363,83.505 347.334,86.063 345.989 C 87.403 345.285,88.860 344.099,89.300 343.354 C 89.740 342.609,90.736 342.000,91.515 342.000 C 92.293 342.000,93.411 341.100,94.000 340.000 C 94.589 338.900,95.707 338.000,96.485 338.000 C 97.264 338.000,98.260 337.391,98.700 336.646 C 99.140 335.901,100.597 334.715,101.937 334.011 C 104.495 332.666,105.891 331.637,109.072 328.750 C 110.132 327.788,111.273 327.000,111.606 327.000 C 111.939 327.000,113.548 325.875,115.182 324.500 C 118.836 321.426,120.580 321.347,122.100 324.187 C 122.744 325.390,124.110 327.275,125.135 328.376 C 126.161 329.476,127.000 330.742,127.000 331.189 C 127.000 331.922,127.769 332.878,132.546 338.084 C 133.346 338.955,134.000 340.170,134.000 340.784 C 134.000 341.398,134.609 342.260,135.354 342.700 C 136.099 343.140,137.285 344.597,137.989 345.937 C 139.334 348.495,140.363 349.891,143.250 353.072 C 144.213 354.132,145.000 355.446,145.000 355.992 C 145.000 356.537,145.900 357.545,147.000 358.232 C 148.100 358.919,149.001 359.935,149.001 360.491 C 149.002 361.046,150.127 362.807,151.501 364.406 C 152.876 366.004,154.000 367.621,154.000 368.000 C 154.000 368.379,155.124 369.996,156.499 371.594 C 157.873 373.193,158.998 374.954,158.999 375.509 C 158.999 376.065,159.900 377.081,161.000 377.768 C 162.100 378.455,163.000 379.640,163.000 380.401 C 163.000 381.163,163.675 382.045,164.500 382.362 C 165.325 382.678,166.000 383.526,166.000 384.246 C 166.000 385.724,169.482 389.000,171.052 389.000 C 172.136 389.000,177.062 385.707,180.401 382.750 C 181.488 381.788,182.919 381.000,183.582 381.000 C 184.244 381.000,185.045 380.325,185.362 379.500 C 185.678 378.675,186.611 378.000,187.433 378.000 C 188.256 378.000,189.411 377.100,190.000 376.000 C 190.589 374.900,191.707 374.000,192.485 374.000 C 193.264 374.000,194.260 373.391,194.700 372.646 C 195.140 371.901,196.597 370.715,197.937 370.011 C 200.495 368.666,201.891 367.637,205.072 364.750 C 206.132 363.788,207.446 363.000,207.992 363.000 C 208.537 363.000,209.545 362.100,210.232 361.000 C 210.919 359.900,211.935 358.999,212.491 358.999 C 213.046 358.998,214.807 357.873,216.406 356.499 C 218.004 355.124,219.621 354.000,220.000 354.000 C 220.379 354.000,221.996 352.876,223.594 351.501 C 225.193 350.127,226.954 349.002,227.509 349.001 C 228.065 349.001,229.081 348.100,229.768 347.000 C 230.455 345.900,231.688 345.000,232.508 345.000 C 233.329 345.000,234.000 344.535,234.000 343.968 C 234.000 342.364,238.280 341.121,240.250 342.153 C 241.213 342.658,242.000 343.744,242.000 344.567 C 242.000 345.389,242.634 346.306,243.408 346.603 C 244.183 346.900,245.363 348.461,246.030 350.072 C 246.697 351.682,247.649 353.000,248.146 353.000 C 248.643 353.000,249.477 354.125,250.000 355.500 C 250.523 356.875,251.412 358.000,251.975 358.000 C 252.539 358.000,253.000 358.671,253.000 359.492 C 253.000 360.312,253.900 361.545,255.000 362.232 C 256.100 362.919,257.001 363.935,257.001 364.491 C 257.002 365.046,258.127 366.807,259.501 368.406 C 260.876 370.004,262.000 371.621,262.000 372.000 C 262.000 372.379,263.124 373.996,264.499 375.594 C 265.873 377.193,266.998 378.954,266.999 379.509 C 266.999 380.065,267.900 381.081,269.000 381.768 C 270.100 382.455,271.000 383.463,271.000 384.008 C 271.000 384.554,271.788 385.868,272.750 386.928 C 275.581 390.048,276.657 391.491,277.940 393.889 C 281.828 401.153,285.166 401.353,292.439 394.758 C 293.505 393.791,294.859 393.000,295.448 393.000 C 296.037 393.000,297.081 392.100,297.768 391.000 C 298.455 389.900,299.688 389.000,300.508 389.000 C 301.329 389.000,302.000 388.539,302.000 387.975 C 302.000 387.412,303.125 386.523,304.500 386.000 C 305.875 385.477,307.000 384.643,307.000 384.146 C 307.000 383.649,308.350 382.683,310.000 382.000 C 311.650 381.317,313.000 380.351,313.000 379.854 C 313.000 379.357,314.125 378.523,315.500 378.000 C 316.875 377.477,318.000 376.588,318.000 376.025 C 318.000 375.461,318.671 375.000,319.492 375.000 C 320.312 375.000,321.545 374.100,322.232 373.000 C 322.919 371.900,323.935 370.999,324.491 370.999 C 325.046 370.998,326.807 369.873,328.406 368.499 C 330.004 367.124,331.621 366.000,332.000 366.000 C 332.379 366.000,333.996 364.876,335.594 363.501 C 337.193 362.127,338.954 361.002,339.509 361.001 C 340.065 361.001,341.081 360.100,341.768 359.000 C 342.455 357.900,343.688 357.000,344.508 357.000 C 345.329 357.000,346.000 356.539,346.000 355.975 C 346.000 355.412,347.125 354.523,348.500 354.000 C 349.875 353.477,351.000 352.643,351.000 352.146 C 351.000 351.649,352.350 350.683,354.000 350.000 C 355.650 349.317,357.000 348.351,357.000 347.854 C 357.000 347.357,358.125 346.523,359.500 346.000 C 360.875 345.477,362.000 344.588,362.000 344.025 C 362.000 343.461,362.675 343.000,363.500 343.000 C 364.433 343.000,365.000 342.056,365.000 340.500 C 365.000 339.125,364.539 338.000,363.975 338.000 C 363.412 338.000,362.523 336.875,362.000 335.500 C 361.477 334.125,360.643 333.000,360.146 333.000 C 359.649 333.000,358.683 331.650,358.000 330.000 C 357.317 328.350,356.351 327.000,355.854 327.000 C 355.357 327.000,354.523 325.875,354.000 324.500 C 353.477 323.125,352.588 322.000,352.025 322.000 C 351.461 322.000,351.000 321.329,351.000 320.508 C 351.000 319.688,350.100 318.455,349.000 317.768 C 347.900 317.081,346.999 316.065,346.999 315.509 C 346.998 314.954,345.873 313.193,344.499 311.594 C 343.124 309.996,342.000 308.379,342.000 308.000 C 342.000 307.621,340.876 306.004,339.501 304.406 C 338.127 302.807,337.002 301.046,337.001 300.491 C 337.001 299.935,336.100 298.919,335.000 298.232 C 333.900 297.545,333.000 296.537,333.000 295.992 C 333.000 295.446,332.212 294.132,331.250 293.072 C 328.363 289.891,327.334 288.495,325.989 285.937 C 325.285 284.597,324.099 283.140,323.354 282.700 C 321.214 281.436,321.772 279.061,324.500 277.818 C 325.875 277.192,327.000 276.356,327.000 275.961 C 327.000 275.566,328.318 274.697,329.928 274.030 C 331.539 273.363,333.100 272.183,333.397 271.408 C 333.694 270.634,334.611 270.000,335.433 270.000 C 336.256 270.000,337.411 269.100,338.000 268.000 C 338.589 266.900,339.707 266.000,340.485 266.000 C 341.264 266.000,342.260 265.391,342.700 264.646 C 343.140 263.901,344.597 262.715,345.937 262.011 C 348.495 260.666,349.891 259.637,353.072 256.750 C 354.132 255.788,355.424 255.000,355.943 255.000 C 356.462 255.000,357.475 254.212,358.193 253.250 C 358.912 252.287,360.836 250.825,362.470 250.000 C 364.103 249.175,366.128 247.905,366.970 247.177 C 371.700 243.089,374.630 241.002,375.643 241.001 C 376.272 241.001,377.045 240.325,377.362 239.500 C 377.678 238.675,378.611 238.000,379.433 238.000 C 380.256 238.000,381.411 237.100,382.000 236.000 C 382.589 234.900,383.630 234.000,384.313 234.000 C 385.739 234.000,389.000 230.484,389.000 228.946 C 389.000 227.915,388.033 226.546,384.750 222.928 C 383.787 221.868,383.000 220.646,383.000 220.212 C 383.000 219.779,381.668 217.866,380.041 215.962 C 378.413 214.058,377.063 212.162,377.041 211.750 C 377.018 211.337,376.212 210.132,375.250 209.072 C 372.363 205.891,371.334 204.495,369.989 201.937 C 369.285 200.597,368.099 199.140,367.354 198.700 C 366.609 198.260,366.000 197.264,366.000 196.485 C 366.000 195.707,365.100 194.589,364.000 194.000 C 362.900 193.411,362.000 192.256,362.000 191.433 C 362.000 190.611,361.325 189.678,360.500 189.362 C 359.675 189.045,358.999 188.272,358.999 187.643 C 358.998 186.590,356.448 183.062,352.573 178.750 C 351.708 177.787,351.000 176.576,351.000 176.057 C 351.000 175.538,350.212 174.525,349.250 173.807 C 348.287 173.088,346.825 171.164,346.000 169.530 C 345.175 167.897,343.712 165.760,342.750 164.780 C 340.270 162.257,340.582 159.512,343.500 158.182 C 344.875 157.555,346.000 156.583,346.000 156.021 C 346.000 155.460,346.649 155.000,347.443 155.000 C 348.237 155.000,349.475 154.212,350.193 153.250 C 350.912 152.287,352.836 150.825,354.470 150.000 C 356.103 149.175,358.128 147.905,358.970 147.177 C 363.558 143.211,366.612 141.002,367.509 141.001 C 368.065 141.001,369.081 140.100,369.768 139.000 C 370.455 137.900,371.688 137.000,372.508 137.000 C 373.329 137.000,374.000 136.539,374.000 135.975 C 374.000 135.412,375.125 134.523,376.500 134.000 C 377.875 133.477,379.000 132.643,379.000 132.146 C 379.000 131.649,380.318 130.697,381.928 130.030 C 383.539 129.363,385.100 128.183,385.397 127.408 C 385.694 126.634,386.611 126.000,387.433 126.000 C 388.256 126.000,389.411 125.100,390.000 124.000 C 390.589 122.900,391.744 122.000,392.567 122.000 C 393.389 122.000,394.315 121.342,394.624 120.538 C 394.932 119.734,396.090 118.789,397.197 118.437 C 399.555 117.689,399.082 112.328,396.487 110.390 C 395.669 109.779,395.000 108.770,395.000 108.148 C 395.000 107.526,394.100 106.455,393.000 105.768 C 391.900 105.081,390.999 104.065,390.999 103.509 C 390.998 102.954,389.873 101.193,388.499 99.594 C 387.124 97.996,386.000 96.379,386.000 96.000 C 386.000 95.621,384.876 94.004,383.501 92.406 C 382.127 90.807,381.002 89.046,381.001 88.491 C 381.001 87.935,380.100 86.919,379.000 86.232 C 377.900 85.545,377.000 84.312,377.000 83.492 C 377.000 82.671,376.539 82.000,375.975 82.000 C 375.412 82.000,374.523 80.875,374.000 79.500 C 373.477 78.125,372.643 77.000,372.146 77.000 C 371.649 77.000,370.683 75.650,370.000 74.000 C 369.317 72.350,368.351 71.000,367.854 71.000 C 367.357 71.000,366.523 69.875,366.000 68.500 C 365.477 67.125,364.588 66.000,364.025 66.000 C 363.461 66.000,363.000 65.329,363.000 64.508 C 363.000 63.688,362.100 62.455,361.000 61.768 C 359.900 61.081,358.999 60.065,358.999 59.509 C 358.998 58.954,357.873 57.193,356.499 55.594 C 355.124 53.996,354.000 52.379,354.000 52.000 C 354.000 51.621,352.876 50.004,351.501 48.406 C 350.127 46.807,349.002 45.046,349.001 44.491 C 349.001 43.935,348.100 42.919,347.000 42.232 C 345.900 41.545,345.000 40.537,345.000 39.992 C 345.000 38.465,341.182 35.000,339.500 35.000 C 338.675 35.000,338.000 35.461,338.000 36.025 C 338.000 36.588,336.875 37.477,335.500 38.000 C 334.125 38.523,333.000 39.412,333.000 39.975 C 333.000 40.539,332.438 41.001,331.750 41.001 C 331.063 41.002,329.193 42.127,327.594 43.501 C 325.996 44.876,324.379 46.000,324.000 46.000 C 323.621 46.000,322.004 47.124,320.406 48.499 C 318.807 49.873,316.986 50.998,316.357 50.999 C 315.728 50.999,314.955 51.675,314.638 52.500 C 314.322 53.325,313.389 54.000,312.567 54.000 C 311.744 54.000,310.589 54.900,310.000 56.000 C 309.411 57.100,308.293 58.000,307.515 58.000 C 306.736 58.000,305.740 58.609,305.300 59.354 C 304.860 60.099,303.403 61.285,302.063 61.989 C 299.505 63.334,298.109 64.363,294.928 67.250 C 293.868 68.212,292.576 69.000,292.057 69.000 C 291.538 69.000,290.525 69.787,289.807 70.750 C 289.088 71.712,287.150 73.175,285.500 74.000 C 283.850 74.825,281.922 76.175,281.215 77.000 C 280.082 78.322,279.785 78.282,278.715 76.666 C 278.047 75.657,276.488 73.632,275.251 72.166 C 274.014 70.700,273.002 69.046,273.001 68.491 C 273.001 67.935,272.100 66.919,271.000 66.232 C 269.900 65.545,269.000 64.312,269.000 63.492 C 269.000 62.671,268.539 62.000,267.975 62.000 C 267.412 62.000,266.523 60.875,266.000 59.500 C 265.477 58.125,264.643 57.000,264.146 57.000 C 263.649 57.000,262.697 55.682,262.030 54.072 C 261.363 52.461,260.183 50.900,259.408 50.603 C 258.634 50.306,258.000 49.389,258.000 48.567 C 258.000 47.744,257.100 46.589,256.000 46.000 C 254.900 45.411,254.000 44.256,254.000 43.433 C 254.000 42.611,253.325 41.678,252.500 41.362 C 251.675 41.045,250.999 40.272,250.999 39.643 C 250.998 38.590,248.448 35.062,244.573 30.750 C 243.708 29.788,242.982 28.663,242.959 28.250 C 242.937 27.838,241.587 25.942,239.959 24.038 C 238.332 22.134,237.000 20.221,237.000 19.788 C 237.000 19.354,236.212 18.174,235.250 17.165 C 234.287 16.156,232.838 14.356,232.029 13.165 C 229.804 9.890,228.508 10.187,222.928 15.250 C 221.868 16.213,220.576 17.000,220.057 17.000 C 219.538 17.000,218.525 17.788,217.807 18.750 C 217.088 19.713,215.164 21.175,213.530 22.000 C 211.897 22.825,209.872 24.095,209.030 24.823 C 204.442 28.789,201.388 30.998,200.491 30.999 C 199.935 30.999,198.919 31.900,198.232 33.000 C 197.545 34.100,196.312 35.000,195.492 35.000 C 194.671 35.000,194.000 35.461,194.000 36.025 C 194.000 36.588,192.875 37.477,191.500 38.000 C 190.125 38.523,189.000 39.357,189.000 39.854 C 189.000 40.351,187.650 41.317,186.000 42.000 C 184.350 42.683,183.000 43.649,183.000 44.146 C 183.000 44.643,181.875 45.477,180.500 46.000 C 179.125 46.523,178.000 47.412,178.000 47.975 C 178.000 48.539,177.329 49.000,176.508 49.000 C 175.688 49.000,174.455 49.900,173.768 51.000 C 173.081 52.100,172.037 53.000,171.448 53.000 C 170.859 53.000,169.476 53.839,168.376 54.865 C 163.996 58.945,158.000 59.671,158.000 56.120 C 158.000 55.675,156.876 54.004,155.501 52.406 C 154.127 50.807,153.002 48.986,153.001 48.357 C 153.001 47.728,152.325 46.955,151.500 46.638 C 150.675 46.322,150.000 45.389,150.000 44.567 C 150.000 43.744,149.100 42.589,148.000 42.000 C 146.900 41.411,146.000 40.293,146.000 39.515 C 146.000 38.736,145.391 37.740,144.646 37.300 C 143.901 36.860,142.715 35.403,142.011 34.063 C 140.666 31.505,139.637 30.109,136.750 26.928 C 135.787 25.868,135.000 24.554,135.000 24.008 C 135.000 23.463,134.100 22.455,133.000 21.768 C 131.900 21.081,130.999 20.065,130.999 19.509 C 130.998 18.954,129.873 17.193,128.499 15.594 C 127.124 13.996,126.000 12.379,126.000 12.000 C 126.000 11.621,124.876 10.004,123.501 8.406 C 122.127 6.807,121.002 5.122,121.001 4.660 C 120.996 1.027,114.776 -0.681,110.505 1.777 M124.492 85.180 C 125.872 86.380,127.000 87.745,127.000 88.214 C 127.000 88.683,128.350 90.387,130.000 92.000 C 131.650 93.613,133.000 95.372,133.000 95.910 C 133.000 96.447,133.829 97.475,134.841 98.193 C 135.854 98.912,137.275 100.625,138.000 102.000 C 138.725 103.375,140.146 105.088,141.159 105.807 C 142.171 106.525,143.000 107.538,143.000 108.057 C 143.000 109.046,143.798 110.060,149.509 116.336 C 151.429 118.446,153.001 120.471,153.001 120.836 C 153.002 121.477,156.177 125.634,159.427 129.250 C 160.292 130.213,161.000 131.446,161.000 131.992 C 161.000 132.537,161.900 133.545,163.000 134.232 C 164.100 134.919,165.001 135.935,165.001 136.491 C 165.002 137.428,167.693 141.095,171.427 145.250 C 172.292 146.213,173.000 147.446,173.000 147.992 C 173.000 148.537,173.900 149.545,175.000 150.232 C 177.392 151.726,177.739 157.404,175.571 159.571 C 174.028 161.114,170.000 161.537,170.000 160.156 C 170.000 159.691,168.876 158.004,167.501 156.406 C 166.127 154.807,165.002 153.046,165.001 152.491 C 165.001 151.935,164.100 150.919,163.000 150.232 C 161.900 149.545,161.000 148.312,161.000 147.492 C 161.000 146.671,160.539 146.000,159.975 146.000 C 159.412 146.000,158.523 144.875,158.000 143.500 C 157.477 142.125,156.661 141.000,156.185 141.000 C 155.710 141.000,154.766 139.782,154.088 138.293 C 153.409 136.804,151.987 134.979,150.927 134.236 C 149.867 133.494,149.000 132.462,149.000 131.943 C 149.000 131.424,148.292 130.213,147.427 129.250 C 143.693 125.095,141.002 121.428,141.001 120.491 C 141.001 119.935,140.100 118.919,139.000 118.232 C 137.900 117.545,137.000 116.522,137.000 115.958 C 137.000 115.394,135.650 113.613,134.000 112.000 C 132.350 110.387,131.000 108.606,131.000 108.042 C 131.000 107.478,130.100 106.455,129.000 105.768 C 127.900 105.081,127.000 103.999,127.000 103.364 C 127.000 102.729,125.883 101.150,124.517 99.855 C 123.152 98.560,122.027 97.102,122.017 96.615 C 122.008 96.128,120.875 94.687,119.500 93.412 C 113.400 87.759,118.254 79.756,124.492 85.180 M355.418 93.607 C 358.941 94.959,356.115 100.948,351.250 102.443 C 350.012 102.824,349.000 103.500,349.000 103.946 C 349.000 104.392,347.650 105.317,346.000 106.000 C 344.350 106.683,343.000 107.583,343.000 108.000 C 343.000 108.417,341.650 109.317,340.000 110.000 C 338.350 110.683,337.000 111.554,337.000 111.935 C 337.000 112.315,335.425 113.245,333.500 114.000 C 331.575 114.755,330.000 115.750,330.000 116.211 C 330.000 116.672,328.875 117.477,327.500 118.000 C 326.125 118.523,325.000 119.328,325.000 119.789 C 325.000 120.250,323.425 121.245,321.500 122.000 C 319.575 122.755,318.000 123.655,318.000 124.000 C 318.000 124.345,316.425 125.245,314.500 126.000 C 312.575 126.755,311.000 127.750,311.000 128.211 C 311.000 128.672,309.875 129.477,308.500 130.000 C 307.125 130.523,306.000 131.328,306.000 131.789 C 306.000 132.250,304.425 133.245,302.500 134.000 C 300.575 134.755,299.000 135.750,299.000 136.211 C 299.000 136.672,297.875 137.477,296.500 138.000 C 295.125 138.523,294.000 139.328,294.000 139.789 C 294.000 140.250,292.425 141.245,290.500 142.000 C 288.575 142.755,287.000 143.750,287.000 144.211 C 287.000 144.672,285.875 145.477,284.500 146.000 C 283.125 146.523,282.000 147.412,282.000 147.975 C 282.000 148.539,281.351 149.000,280.557 149.000 C 279.763 149.000,278.525 149.820,277.807 150.822 C 277.088 151.825,275.038 153.285,273.250 154.067 C 271.462 154.848,270.000 155.840,270.000 156.269 C 270.000 156.698,268.875 157.477,267.500 158.000 C 266.125 158.523,265.000 159.328,265.000 159.789 C 265.000 160.250,263.425 161.245,261.500 162.000 C 259.575 162.755,258.000 163.750,258.000 164.211 C 258.000 164.672,256.875 165.477,255.500 166.000 C 254.125 166.523,253.000 167.412,253.000 167.975 C 253.000 168.539,252.438 169.001,251.750 169.001 C 251.063 169.002,249.207 170.114,247.628 171.473 C 246.048 172.831,243.910 174.211,242.878 174.539 C 241.845 174.867,241.000 175.500,241.000 175.946 C 241.000 176.392,239.650 177.317,238.000 178.000 C 236.350 178.683,235.000 179.649,235.000 180.146 C 235.000 180.643,233.875 181.477,232.500 182.000 C 231.125 182.523,230.000 183.302,230.000 183.731 C 230.000 184.160,228.537 185.152,226.750 185.933 C 224.963 186.715,222.912 188.175,222.193 189.178 C 221.475 190.180,220.237 191.000,219.443 191.000 C 218.649 191.000,218.000 191.461,218.000 192.025 C 218.000 192.588,216.875 193.477,215.500 194.000 C 214.125 194.523,213.000 195.339,213.000 195.815 C 213.000 196.290,211.858 197.199,210.462 197.835 C 207.910 198.998,206.484 200.023,202.928 203.250 C 201.868 204.213,200.576 205.000,200.057 205.000 C 199.538 205.000,198.525 205.787,197.807 206.750 C 197.088 207.713,195.164 209.175,193.530 210.000 C 191.897 210.825,189.792 212.175,188.852 213.000 C 185.679 215.786,184.382 216.725,181.937 218.011 C 180.597 218.715,179.140 219.901,178.700 220.646 C 178.260 221.391,177.264 222.000,176.485 222.000 C 175.707 222.000,174.589 222.900,174.000 224.000 C 173.411 225.100,172.293 226.000,171.515 226.000 C 170.736 226.000,169.740 226.609,169.300 227.354 C 168.860 228.099,167.403 229.285,166.063 229.989 C 163.505 231.334,162.109 232.363,158.928 235.250 C 157.868 236.213,156.554 237.000,156.008 237.000 C 155.463 237.000,154.455 237.900,153.768 239.000 C 153.081 240.100,152.065 241.001,151.509 241.001 C 150.572 241.002,146.905 243.693,142.750 247.427 C 141.787 248.292,140.554 249.000,140.008 249.000 C 139.463 249.000,138.455 249.900,137.768 251.000 C 137.081 252.100,136.065 253.001,135.509 253.001 C 134.572 253.002,130.905 255.693,126.750 259.427 C 125.787 260.292,124.554 261.000,124.008 261.000 C 123.463 261.000,122.455 261.900,121.768 263.000 C 121.081 264.100,119.999 265.000,119.364 265.000 C 118.729 265.000,117.150 266.117,115.855 267.483 C 114.560 268.848,112.953 269.973,112.285 269.983 C 111.617 269.992,110.589 270.900,110.000 272.000 C 109.411 273.100,108.370 274.000,107.687 274.000 C 107.004 274.000,105.674 274.900,104.732 276.000 C 101.764 279.466,95.000 278.381,95.000 274.438 C 95.000 272.199,99.152 267.000,100.940 267.000 C 101.408 267.000,102.850 265.883,104.145 264.517 C 105.440 263.152,106.898 262.027,107.385 262.017 C 107.872 262.008,109.276 260.988,110.505 259.750 C 113.786 256.445,118.353 253.029,119.509 253.013 C 120.065 253.006,121.081 252.100,121.768 251.000 C 122.455 249.900,123.463 249.000,124.008 249.000 C 125.045 249.000,126.026 248.233,132.336 242.491 C 134.446 240.571,136.471 238.999,136.836 238.999 C 137.477 238.998,141.634 235.823,145.250 232.573 C 146.212 231.708,147.446 231.000,147.992 231.000 C 148.537 231.000,149.545 230.100,150.232 229.000 C 150.919 227.900,151.935 226.999,152.491 226.999 C 153.428 226.998,157.095 224.307,161.250 220.573 C 162.212 219.708,163.446 219.000,163.992 219.000 C 164.537 219.000,165.545 218.100,166.232 217.000 C 166.919 215.900,167.935 214.999,168.491 214.999 C 169.046 214.998,170.807 213.873,172.406 212.499 C 174.004 211.124,175.621 210.000,176.000 210.000 C 176.379 210.000,177.996 208.876,179.594 207.501 C 181.193 206.127,182.954 205.002,183.509 205.001 C 184.065 205.001,185.081 204.100,185.768 203.000 C 186.455 201.900,187.688 201.000,188.508 201.000 C 189.329 201.000,190.000 200.539,190.000 199.975 C 190.000 199.412,191.125 198.523,192.500 198.000 C 193.875 197.477,195.000 196.661,195.000 196.185 C 195.000 195.710,196.142 194.801,197.538 194.165 C 199.997 193.044,201.265 192.149,204.852 189.000 C 205.792 188.175,207.897 186.825,209.530 186.000 C 211.164 185.175,213.088 183.713,213.807 182.750 C 214.525 181.787,215.763 181.000,216.557 181.000 C 217.351 181.000,218.000 180.539,218.000 179.975 C 218.000 179.412,219.125 178.523,220.500 178.000 C 221.875 177.477,223.000 176.588,223.000 176.025 C 223.000 175.461,223.563 174.999,224.250 174.999 C 224.938 174.998,226.793 173.886,228.372 172.527 C 229.952 171.169,232.090 169.789,233.122 169.461 C 234.155 169.133,235.000 168.518,235.000 168.093 C 235.000 167.668,236.142 166.801,237.538 166.165 C 240.047 165.021,241.462 164.012,244.921 160.900 C 245.899 160.021,248.117 158.673,249.850 157.906 C 251.582 157.139,253.000 156.160,253.000 155.731 C 253.000 155.302,254.125 154.523,255.500 154.000 C 256.875 153.477,258.000 152.672,258.000 152.211 C 258.000 151.750,259.575 150.755,261.500 150.000 C 263.425 149.245,265.000 148.250,265.000 147.789 C 265.000 147.328,266.125 146.523,267.500 146.000 C 268.875 145.477,270.000 144.672,270.000 144.211 C 270.000 143.750,271.556 142.763,273.458 142.016 C 275.360 141.270,277.146 140.061,277.427 139.330 C 277.708 138.598,278.611 138.000,279.433 138.000 C 280.256 138.000,281.411 137.100,282.000 136.000 C 282.589 134.900,283.744 134.000,284.567 134.000 C 285.389 134.000,286.311 133.352,286.615 132.561 C 286.919 131.770,288.510 130.827,290.151 130.467 C 291.792 130.106,293.348 129.255,293.609 128.576 C 293.870 127.897,295.640 126.730,297.542 125.984 C 299.444 125.237,301.000 124.250,301.000 123.789 C 301.000 123.328,302.125 122.523,303.500 122.000 C 304.875 121.477,306.000 120.679,306.000 120.226 C 306.000 119.773,307.575 118.832,309.500 118.136 C 311.425 117.440,313.000 116.504,313.000 116.057 C 313.000 115.609,314.350 114.683,316.000 114.000 C 317.650 113.317,319.000 112.391,319.000 111.943 C 319.000 111.496,320.575 110.560,322.500 109.864 C 324.425 109.168,326.000 108.227,326.000 107.774 C 326.000 107.321,327.125 106.523,328.500 106.000 C 329.875 105.477,331.000 104.672,331.000 104.211 C 331.000 103.750,332.575 102.755,334.500 102.000 C 336.425 101.245,338.000 100.345,338.000 100.000 C 338.000 99.655,339.575 98.755,341.500 98.000 C 343.425 97.245,345.000 96.329,345.000 95.966 C 345.000 94.018,352.225 92.382,355.418 93.607 M235.418 234.607 C 236.288 234.941,237.001 235.728,237.001 236.357 C 237.002 236.986,238.114 238.793,239.473 240.372 C 240.831 241.952,242.211 244.090,242.539 245.122 C 242.867 246.155,243.500 247.000,243.946 247.000 C 244.392 247.000,245.317 248.350,246.000 250.000 C 246.683 251.650,247.583 253.000,248.000 253.000 C 248.417 253.000,249.317 254.350,250.000 256.000 C 250.683 257.650,251.583 259.000,252.000 259.000 C 252.417 259.000,253.317 260.350,254.000 262.000 C 254.683 263.650,255.583 265.000,256.000 265.000 C 256.417 265.000,257.317 266.350,258.000 268.000 C 258.683 269.650,259.583 271.000,260.000 271.000 C 260.417 271.000,261.317 272.350,262.000 274.000 C 262.683 275.650,263.583 277.000,264.000 277.000 C 264.417 277.000,265.317 278.350,266.000 280.000 C 266.683 281.650,267.609 283.000,268.057 283.000 C 268.504 283.000,269.440 284.575,270.136 286.500 C 270.832 288.425,271.773 290.000,272.226 290.000 C 272.679 290.000,273.477 291.125,274.000 292.500 C 274.523 293.875,275.328 295.000,275.789 295.000 C 276.250 295.000,277.237 296.556,277.984 298.458 C 278.730 300.360,279.897 302.130,280.576 302.391 C 281.255 302.652,282.106 304.208,282.467 305.849 C 282.827 307.490,283.797 309.092,284.622 309.408 C 285.672 309.811,286.028 311.111,285.811 313.742 C 285.401 318.701,279.854 319.969,277.847 315.563 C 277.204 314.153,276.356 313.000,275.961 313.000 C 275.566 313.000,274.683 311.650,274.000 310.000 C 273.317 308.350,272.417 307.000,272.000 307.000 C 271.583 307.000,270.683 305.650,270.000 304.000 C 269.317 302.350,268.417 301.000,268.000 301.000 C 267.583 301.000,266.683 299.650,266.000 298.000 C 265.317 296.350,264.417 295.000,264.000 295.000 C 263.583 295.000,262.683 293.650,262.000 292.000 C 261.317 290.350,260.417 289.000,260.000 289.000 C 259.583 289.000,258.683 287.650,258.000 286.000 C 257.317 284.350,256.417 283.000,256.000 283.000 C 255.583 283.000,254.683 281.650,254.000 280.000 C 253.317 278.350,252.417 277.000,252.000 277.000 C 251.583 277.000,250.683 275.650,250.000 274.000 C 249.317 272.350,248.417 271.000,248.000 271.000 C 247.583 271.000,246.683 269.650,246.000 268.000 C 245.317 266.350,244.434 265.000,244.039 265.000 C 243.644 265.000,242.801 263.858,242.165 262.462 C 241.021 259.953,240.012 258.538,236.900 255.079 C 236.021 254.101,234.673 251.883,233.906 250.150 C 233.139 248.418,232.160 247.000,231.731 247.000 C 231.302 247.000,230.523 245.875,230.000 244.500 C 229.477 243.125,228.588 242.000,228.025 242.000 C 226.395 242.000,226.836 238.214,228.722 236.011 C 230.477 233.962,232.585 233.520,235.418 234.607 " stroke="none" fill="#000000" fill-rule="evenodd"></path></g></svg>