<svg id="svg" version="1.1" width="515" height="515" xmlns="http://www.w3.org/2000/svg" xmlns:xlink="http://www.w3.org/1999/xlink" style="display: block;"><g id="svgg"><path id="path0" d="M208.296 61.870 L 161.091 85.500 161.046 97.357 C 161.006 107.782,160.808 109.140,159.407 108.603 C 158.531 108.267,156.619 107.729,155.157 107.407 C 153.696 107.086,149.800 106.026,146.500 105.052 C 131.911 100.745,126.305 100.041,125.399 102.402 C 125.103 103.173,113.866 109.309,100.427 116.037 L 75.992 128.269 76.246 256.698 L 76.500 385.126 79.500 386.789 C 81.150 387.704,84.644 389.701,87.265 391.226 C 89.886 392.752,92.678 394.000,93.471 394.000 C 94.264 394.000,97.202 395.350,100.000 397.000 C 102.798 398.650,105.356 400.000,105.683 400.000 C 106.011 400.000,108.473 401.350,111.154 403.000 C 113.836 404.650,116.714 406.000,117.550 406.000 C 119.365 406.000,124.174 408.933,125.300 410.726 C 126.447 412.553,130.817 412.299,137.441 410.020 C 140.606 408.932,146.468 407.364,150.469 406.538 C 154.470 405.712,158.477 404.754,159.372 404.411 C 160.821 403.855,161.000 405.115,161.000 415.839 L 161.000 427.892 200.750 447.638 C 222.613 458.499,242.595 468.611,245.155 470.110 C 247.715 471.609,250.847 472.985,252.114 473.168 C 253.609 473.383,254.622 474.378,254.999 476.000 C 256.178 481.081,258.041 480.262,351.000 433.749 L 441.500 388.466 441.763 353.675 L 442.026 318.884 437.763 319.192 C 435.392 319.363,433.056 318.986,432.500 318.342 C 431.950 317.705,425.875 316.681,419.000 316.066 C 412.125 315.451,394.800 313.599,380.500 311.950 C 349.867 308.417,339.103 308.889,319.750 314.617 C 318.291 315.049,318.000 314.477,318.000 311.176 C 318.000 306.477,317.107 306.806,336.000 304.541 C 343.425 303.651,359.175 301.614,371.000 300.014 C 382.825 298.414,396.276 296.841,400.892 296.518 C 405.508 296.194,416.308 294.825,424.892 293.475 C 433.476 292.125,440.837 291.016,441.250 291.010 C 441.663 291.005,442.000 275.562,442.000 256.694 L 442.000 222.388 431.250 220.688 C 425.337 219.753,416.900 218.744,412.500 218.446 C 408.100 218.148,395.275 216.591,384.000 214.987 C 372.725 213.383,354.275 210.883,343.000 209.430 C 315.716 205.916,318.000 206.651,318.000 201.392 C 318.000 198.976,318.337 197.000,318.750 196.999 C 319.163 196.999,323.100 197.640,327.500 198.423 C 351.749 202.743,350.637 202.767,399.800 196.866 C 419.533 194.497,426.959 193.984,433.550 194.533 L 442.000 195.237 441.965 172.868 C 441.914 141.124,439.755 129.445,433.158 125.226 C 431.696 124.291,429.905 122.958,429.179 122.263 C 428.452 121.568,427.327 120.999,426.679 120.999 C 426.030 120.998,423.592 119.303,421.260 117.233 C 418.928 115.163,414.878 112.395,412.260 111.082 C 409.642 109.768,406.375 108.130,405.000 107.441 C 403.625 106.752,400.925 105.393,399.000 104.420 C 397.075 103.448,394.375 102.098,393.000 101.420 C 391.625 100.743,388.925 99.393,387.000 98.420 C 385.075 97.448,382.375 96.098,381.000 95.420 C 376.593 93.248,372.614 91.260,368.000 88.924 C 365.525 87.671,362.825 86.346,362.000 85.979 C 359.337 84.795,354.613 82.429,344.000 76.964 C 341.525 75.689,338.825 74.332,338.000 73.949 C 337.175 73.565,334.475 72.215,332.000 70.949 C 329.525 69.682,326.825 68.321,326.000 67.924 C 325.175 67.527,321.737 65.807,318.360 64.101 C 314.983 62.396,310.969 61.000,309.439 61.000 C 307.910 61.000,303.922 59.726,300.579 58.169 C 281.592 49.325,269.731 49.414,287.783 58.264 C 293.127 60.884,299.300 63.970,301.500 65.121 C 305.206 67.061,307.438 68.186,314.000 71.420 C 318.010 73.397,323.302 76.083,326.000 77.512 C 327.375 78.240,352.688 90.877,382.250 105.593 L 436.000 132.351 436.000 160.128 L 436.000 187.904 431.250 186.431 C 428.637 185.620,423.800 184.248,420.500 183.381 C 417.200 182.515,410.450 180.726,405.500 179.407 C 400.550 178.088,394.250 176.568,391.500 176.029 C 388.750 175.491,384.025 174.325,381.000 173.439 C 377.975 172.552,373.475 171.372,371.000 170.815 C 365.293 169.533,344.227 164.304,337.000 162.376 C 333.975 161.569,320.044 158.009,306.041 154.465 C 292.039 150.922,278.539 147.378,276.041 146.591 C 273.544 145.804,269.363 144.871,266.750 144.519 L 262.000 143.877 262.000 97.407 C 262.000 57.023,261.804 50.862,260.500 50.362 C 259.667 50.042,259.000 48.556,259.000 47.018 C 259.000 42.418,257.819 37.993,256.625 38.120 C 256.006 38.186,234.258 48.873,208.296 61.870 M139.946 111.482 C 143.959 112.847,149.431 114.254,152.107 114.609 L 156.971 115.254 157.236 145.374 L 157.500 175.494 165.500 177.211 C 169.900 178.155,178.900 179.655,185.500 180.545 C 192.100 181.434,204.925 183.447,214.000 185.018 C 223.075 186.589,239.950 189.296,251.500 191.033 C 263.050 192.771,279.700 195.500,288.500 197.098 C 297.300 198.696,305.941 200.002,307.702 200.002 L 310.905 200.000 311.202 206.171 C 311.582 214.035,306.160 212.572,358.500 218.936 C 362.350 219.404,372.025 220.722,380.000 221.863 C 387.975 223.005,399.225 224.428,405.000 225.025 C 410.775 225.622,420.113 226.818,425.750 227.681 L 436.000 229.251 436.000 257.125 L 436.000 285.000 432.750 285.011 C 430.962 285.017,421.944 286.125,412.710 287.473 C 403.475 288.821,392.450 290.190,388.210 290.516 C 383.969 290.842,370.825 292.418,359.000 294.019 C 347.175 295.620,331.972 297.603,325.216 298.427 C 310.216 300.255,311.000 299.758,311.000 307.442 C 311.000 314.462,310.468 314.958,302.906 314.986 C 300.929 314.994,292.647 316.350,284.500 318.000 C 276.353 319.650,268.521 320.994,267.094 320.986 C 264.311 320.971,238.114 325.162,210.500 330.042 C 201.150 331.694,192.150 333.066,190.500 333.092 C 188.850 333.117,180.750 334.364,172.500 335.863 L 157.500 338.588 157.235 367.687 L 156.970 396.786 150.735 398.340 C 147.306 399.194,141.688 400.542,138.250 401.335 L 132.000 402.777 132.000 255.888 C 132.000 175.100,132.146 109.000,132.325 109.000 C 132.504 109.000,135.933 110.117,139.946 111.482 M243.000 199.058 C 239.425 199.513,232.000 200.302,226.500 200.811 C 221.000 201.320,209.975 202.680,202.000 203.834 C 194.025 204.988,181.650 206.680,174.500 207.595 C 167.350 208.510,160.483 209.641,159.240 210.108 L 156.980 210.958 157.240 257.193 L 157.500 303.428 178.000 306.154 C 234.000 313.602,246.140 315.021,253.758 315.011 L 262.016 315.000 261.758 256.750 L 261.500 198.500 255.500 198.365 C 252.200 198.291,246.575 198.603,243.000 199.058 M373.866 319.019 C 382.318 320.108,391.993 321.045,395.366 321.100 C 407.026 321.289,407.329 322.350,396.450 324.890 C 390.978 326.168,382.450 328.336,377.500 329.707 C 372.550 331.079,366.700 332.542,364.500 332.959 C 362.300 333.375,356.000 334.864,350.500 336.267 C 345.000 337.670,337.688 339.534,334.250 340.409 C 330.813 341.284,325.188 342.718,321.750 343.596 C 318.313 344.475,310.325 346.447,304.000 347.980 C 297.675 349.512,289.688 351.494,286.250 352.383 C 249.251 361.955,256.547 361.606,231.000 355.029 C 226.325 353.826,219.125 352.024,215.000 351.025 C 205.319 348.680,195.691 345.854,194.800 345.096 C 194.415 344.768,200.940 343.285,209.300 341.801 C 239.690 336.405,260.554 332.995,263.000 333.024 C 264.375 333.041,273.150 331.709,282.500 330.064 C 291.850 328.419,304.159 326.298,309.853 325.350 C 316.125 324.307,320.404 323.110,320.710 322.314 C 320.992 321.579,322.819 320.974,324.857 320.941 C 326.861 320.908,333.675 319.826,340.000 318.536 C 346.325 317.246,353.075 316.381,355.000 316.614 C 356.925 316.847,365.415 317.929,373.866 319.019 M436.000 354.365 L 436.000 381.729 349.750 424.869 C 302.313 448.596,263.163 468.007,262.750 468.005 C 262.337 468.002,262.000 445.950,262.000 419.000 L 262.000 370.000 264.744 370.000 C 266.254 370.000,272.216 368.692,277.994 367.093 C 303.316 360.086,311.813 357.886,316.500 357.125 C 319.250 356.678,325.550 355.160,330.500 353.751 C 341.716 350.559,355.926 346.986,362.500 345.705 C 365.250 345.169,371.775 343.479,377.000 341.950 C 382.225 340.421,387.850 338.961,389.500 338.705 C 392.374 338.260,404.411 335.283,421.500 330.791 C 425.900 329.634,430.175 328.322,431.000 327.874 C 436.038 325.142,436.000 324.942,436.000 354.365 " stroke="none" fill="#000000" fill-rule="evenodd"></path></g></svg>