<svg id="svg" version="1.1" width="515" height="524" xmlns="http://www.w3.org/2000/svg" xmlns:xlink="http://www.w3.org/1999/xlink" style="display: block;"><g id="svgg"><path id="path0" d="M259.643 58.500 C 258.818 59.325,257.661 60.000,257.071 60.000 C 256.482 60.000,256.000 60.450,256.000 61.000 C 256.000 61.550,255.100 62.000,254.000 62.000 C 252.900 62.000,252.000 62.450,252.000 63.000 C 252.000 63.550,250.875 64.000,249.500 64.000 C 248.125 64.000,247.000 64.400,247.000 64.889 C 247.000 65.377,245.425 66.073,243.500 66.434 C 241.575 66.795,240.000 67.520,240.000 68.045 C 240.000 68.570,239.100 69.000,238.000 69.000 C 236.900 69.000,236.000 69.450,236.000 70.000 C 236.000 70.550,235.068 71.000,233.929 71.000 C 229.763 71.000,229.000 73.156,229.000 84.929 C 229.000 95.333,228.880 96.000,227.000 96.000 C 225.900 96.000,225.000 95.550,225.000 95.000 C 225.000 94.450,224.325 94.000,223.500 94.000 C 222.675 94.000,222.000 93.590,222.000 93.088 C 222.000 92.586,220.200 91.872,218.000 91.500 C 215.800 91.128,214.000 90.414,214.000 89.912 C 214.000 89.410,212.875 89.000,211.500 89.000 C 210.125 89.000,209.000 88.550,209.000 88.000 C 209.000 86.022,200.539 86.865,199.003 88.995 C 198.212 90.093,196.088 91.268,194.282 91.607 C 192.477 91.945,191.000 92.623,191.000 93.111 C 191.000 93.600,189.875 94.000,188.500 94.000 C 187.125 94.000,186.000 94.450,186.000 95.000 C 186.000 95.550,185.100 96.000,184.000 96.000 C 182.900 96.000,182.000 96.450,182.000 97.000 C 182.000 97.550,181.325 98.000,180.500 98.000 C 179.675 98.000,179.000 98.450,179.000 99.000 C 179.000 99.550,177.912 100.000,176.582 100.000 C 171.456 100.000,171.005 100.706,170.921 108.857 C 170.878 113.061,170.615 115.938,170.338 115.250 C 170.060 114.563,169.070 114.000,168.137 114.000 C 167.205 114.000,165.793 113.100,165.000 112.000 C 163.876 110.440,162.411 110.000,158.347 110.000 C 154.013 110.000,153.028 110.337,152.500 112.000 C 152.151 113.100,150.996 114.000,149.933 114.000 C 148.870 114.000,148.000 114.450,148.000 115.000 C 148.000 115.550,147.100 116.000,146.000 116.000 C 144.900 116.000,144.000 116.414,144.000 116.921 C 144.000 117.427,142.537 118.128,140.750 118.479 C 132.516 120.094,130.000 122.540,130.000 128.929 C 130.000 131.718,129.550 134.000,129.000 134.000 C 128.450 134.000,128.000 133.550,128.000 133.000 C 128.000 132.450,127.325 132.000,126.500 132.000 C 125.675 132.000,125.000 131.550,125.000 131.000 C 125.000 128.801,116.971 129.938,114.409 132.500 C 113.034 133.875,111.255 135.000,110.455 135.000 C 109.655 135.000,109.000 135.450,109.000 136.000 C 109.000 136.550,108.100 137.000,107.000 137.000 C 105.900 137.000,105.000 137.450,105.000 138.000 C 105.000 138.550,104.100 139.000,103.000 139.000 C 101.900 139.000,101.000 139.450,101.000 140.000 C 101.000 140.550,100.518 141.000,99.929 141.000 C 95.920 141.000,96.000 138.619,96.000 257.500 C 96.000 376.381,95.920 374.000,99.929 374.000 C 100.518 374.000,101.000 374.450,101.000 375.000 C 101.000 375.550,101.900 376.000,103.000 376.000 C 104.100 376.000,105.000 376.450,105.000 377.000 C 105.000 377.550,105.810 378.000,106.801 378.000 C 109.111 378.000,113.982 380.250,113.992 381.321 C 114.017 383.951,122.981 386.863,123.008 384.250 C 123.016 383.484,127.749 381.000,129.199 381.000 C 129.640 381.000,130.000 382.832,130.000 385.071 C 130.000 388.731,131.681 392.000,133.561 392.000 C 133.949 392.000,134.994 392.840,135.884 393.866 C 136.774 394.892,138.964 396.053,140.751 396.445 C 142.538 396.838,144.000 397.573,144.000 398.079 C 144.000 398.586,144.900 399.000,146.000 399.000 C 147.100 399.000,148.000 399.450,148.000 400.000 C 148.000 400.550,148.869 401.000,149.930 401.000 C 151.171 401.000,151.975 401.804,152.180 403.250 C 152.544 405.808,162.947 406.659,163.768 404.197 C 163.987 403.539,165.029 403.000,166.083 403.000 C 167.138 403.000,168.000 402.550,168.000 402.000 C 168.000 401.450,168.675 401.000,169.500 401.000 C 170.636 401.000,171.000 402.230,171.000 406.071 C 171.000 411.511,172.756 414.415,175.426 413.390 C 176.292 413.058,177.000 413.284,177.000 413.893 C 177.000 414.502,177.675 415.000,178.500 415.000 C 179.325 415.000,180.000 415.450,180.000 416.000 C 180.000 416.550,180.900 417.000,182.000 417.000 C 183.100 417.000,184.000 417.450,184.000 418.000 C 184.000 418.550,184.900 419.000,186.000 419.000 C 187.100 419.000,188.000 419.450,188.000 420.000 C 188.000 420.550,189.125 421.000,190.500 421.000 C 191.875 421.000,193.000 421.441,193.000 421.981 C 193.000 422.520,194.125 423.244,195.500 423.589 C 196.875 423.934,198.000 424.875,198.000 425.680 C 198.000 426.484,198.643 427.786,199.429 428.571 C 201.047 430.190,207.000 430.527,207.000 429.000 C 207.000 428.450,207.900 428.000,209.000 428.000 C 210.100 428.000,211.000 427.550,211.000 427.000 C 211.000 426.450,211.675 426.000,212.500 426.000 C 213.325 426.000,214.000 425.590,214.000 425.088 C 214.000 424.586,215.800 423.872,218.000 423.500 C 220.200 423.128,222.000 422.414,222.000 421.912 C 222.000 421.410,222.675 421.000,223.500 421.000 C 224.325 421.000,225.000 420.550,225.000 420.000 C 225.000 419.450,225.900 419.000,227.000 419.000 C 228.873 419.000,229.000 419.667,229.000 429.500 C 229.000 440.457,230.344 444.000,234.500 444.000 C 235.325 444.000,236.000 444.450,236.000 445.000 C 236.000 445.550,237.125 446.000,238.500 446.000 C 239.875 446.000,241.000 446.450,241.000 447.000 C 241.000 447.550,241.900 448.000,243.000 448.000 C 244.100 448.000,245.000 448.400,245.000 448.889 C 245.000 449.377,246.575 450.073,248.500 450.434 C 250.425 450.795,252.000 451.520,252.000 452.045 C 252.000 452.570,252.900 453.000,254.000 453.000 C 255.100 453.000,256.000 453.450,256.000 454.000 C 256.000 454.550,256.482 455.000,257.071 455.000 C 257.661 455.000,258.865 455.722,259.748 456.605 C 261.674 458.531,274.104 458.188,274.770 456.191 C 274.988 455.536,276.029 455.000,277.083 455.000 C 278.137 455.000,279.000 454.550,279.000 454.000 C 279.000 453.450,279.900 453.000,281.000 453.000 C 282.100 453.000,283.000 452.570,283.000 452.045 C 283.000 451.520,284.575 450.795,286.500 450.434 C 288.425 450.073,290.000 449.377,290.000 448.889 C 290.000 448.400,290.675 448.000,291.500 448.000 C 292.325 448.000,293.000 447.550,293.000 447.000 C 293.000 446.450,293.900 446.000,295.000 446.000 C 296.100 446.000,297.000 445.550,297.000 445.000 C 297.000 444.450,297.900 444.000,299.000 444.000 C 300.100 444.000,301.000 443.599,301.000 443.108 C 301.000 442.618,302.125 441.934,303.500 441.589 C 304.875 441.244,306.000 440.520,306.000 439.981 C 306.000 439.441,307.125 439.000,308.500 439.000 C 309.875 439.000,311.000 438.550,311.000 438.000 C 311.000 437.450,311.900 437.000,313.000 437.000 C 314.100 437.000,315.000 436.656,315.000 436.236 C 315.000 435.307,322.423 432.000,324.507 432.000 C 325.328 432.000,326.000 431.550,326.000 431.000 C 326.000 430.450,327.026 430.000,328.279 430.000 C 329.533 430.000,331.207 429.100,332.000 428.000 C 332.793 426.900,334.467 426.000,335.721 426.000 C 336.974 426.000,338.000 425.600,338.000 425.111 C 338.000 424.623,339.575 423.927,341.500 423.566 C 343.425 423.205,345.000 422.480,345.000 421.955 C 345.000 421.430,345.900 421.000,347.000 421.000 C 348.100 421.000,349.000 420.550,349.000 420.000 C 349.000 419.450,349.900 419.000,351.000 419.000 C 352.100 419.000,353.000 418.550,353.000 418.000 C 353.000 417.450,353.675 417.000,354.500 417.000 C 355.325 417.000,356.000 416.600,356.000 416.111 C 356.000 415.623,357.575 414.927,359.500 414.566 C 361.425 414.205,363.000 413.480,363.000 412.955 C 363.000 412.430,363.900 412.000,365.000 412.000 C 366.100 412.000,367.000 411.550,367.000 411.000 C 367.000 410.450,367.900 410.000,369.000 410.000 C 370.100 410.000,371.000 409.550,371.000 409.000 C 371.000 408.450,371.675 408.000,372.500 408.000 C 373.325 408.000,374.000 407.600,374.000 407.111 C 374.000 406.623,375.575 405.927,377.500 405.566 C 379.425 405.205,381.000 404.480,381.000 403.955 C 381.000 403.430,381.900 403.000,383.000 403.000 C 384.100 403.000,385.000 402.550,385.000 402.000 C 385.000 401.450,385.675 401.000,386.500 401.000 C 387.325 401.000,388.000 400.550,388.000 400.000 C 388.000 399.450,389.350 399.000,391.000 399.000 C 392.650 399.000,394.000 398.559,394.000 398.019 C 394.000 397.480,395.125 396.756,396.500 396.411 C 397.875 396.066,399.000 395.382,399.000 394.892 C 399.000 394.401,399.900 394.000,401.000 394.000 C 402.100 394.000,403.000 393.550,403.000 393.000 C 403.000 392.450,404.125 392.000,405.500 392.000 C 406.875 392.000,408.000 391.600,408.000 391.111 C 408.000 390.623,409.575 389.927,411.500 389.566 C 413.425 389.205,415.000 388.480,415.000 387.955 C 415.000 387.430,415.900 387.000,417.000 387.000 C 418.100 387.000,419.000 386.550,419.000 386.000 C 419.000 385.450,419.900 385.000,421.000 385.000 C 422.100 385.000,423.000 384.550,423.000 384.000 C 423.000 383.450,423.675 383.000,424.500 383.000 C 425.325 383.000,426.000 382.550,426.000 382.000 C 426.000 381.450,426.810 381.000,427.800 381.000 C 432.109 381.000,432.000 384.193,432.000 257.480 L 432.000 136.361 429.492 134.180 C 428.113 132.981,426.313 132.000,425.492 132.000 C 424.672 132.000,424.000 131.550,424.000 131.000 C 424.000 130.450,423.325 130.000,422.500 130.000 C 421.675 130.000,421.000 129.600,421.000 129.111 C 421.000 128.623,419.425 127.927,417.500 127.566 C 415.575 127.205,414.000 126.480,414.000 125.955 C 414.000 125.430,413.100 125.000,412.000 125.000 C 410.900 125.000,410.000 124.550,410.000 124.000 C 410.000 123.450,409.100 123.000,408.000 123.000 C 406.900 123.000,406.000 122.550,406.000 122.000 C 406.000 121.450,405.325 121.000,404.500 121.000 C 403.675 121.000,403.000 120.600,403.000 120.111 C 403.000 119.623,401.425 118.927,399.500 118.566 C 397.575 118.205,396.000 117.480,396.000 116.955 C 396.000 116.430,394.650 116.000,393.000 116.000 C 391.350 116.000,390.000 115.550,390.000 115.000 C 390.000 114.450,389.325 114.000,388.500 114.000 C 387.675 114.000,387.000 113.550,387.000 113.000 C 387.000 112.450,386.100 112.000,385.000 112.000 C 383.900 112.000,383.000 111.570,383.000 111.045 C 383.000 110.520,381.425 109.795,379.500 109.434 C 377.575 109.073,376.000 108.377,376.000 107.889 C 376.000 107.400,375.100 107.000,374.000 107.000 C 372.900 107.000,372.000 106.550,372.000 106.000 C 372.000 105.450,371.325 105.000,370.500 105.000 C 369.675 105.000,369.000 104.550,369.000 104.000 C 369.000 103.450,368.137 103.000,367.083 103.000 C 366.029 103.000,365.007 102.521,364.812 101.935 C 364.617 101.350,362.554 100.616,360.228 100.304 C 357.903 99.992,356.000 99.346,356.000 98.868 C 356.000 98.391,355.424 98.000,354.721 98.000 C 354.017 98.000,352.793 97.100,352.000 96.000 C 351.153 94.826,349.411 94.000,347.779 94.000 C 346.251 94.000,345.000 93.570,345.000 93.045 C 345.000 92.520,343.425 91.795,341.500 91.434 C 339.575 91.073,338.000 90.377,338.000 89.889 C 338.000 89.400,337.325 89.000,336.500 89.000 C 335.675 89.000,335.000 88.550,335.000 88.000 C 335.000 87.450,334.100 87.000,333.000 87.000 C 331.900 87.000,331.000 86.550,331.000 86.000 C 331.000 85.450,330.100 85.000,329.000 85.000 C 327.900 85.000,327.000 84.586,327.000 84.079 C 327.000 83.573,325.538 82.860,323.750 82.495 C 319.488 81.625,315.000 79.707,315.000 78.756 C 315.000 78.340,314.100 78.000,313.000 78.000 C 311.900 78.000,311.000 77.550,311.000 77.000 C 311.000 76.450,310.325 76.000,309.500 76.000 C 308.675 76.000,308.000 75.600,308.000 75.111 C 308.000 74.623,306.425 73.927,304.500 73.566 C 302.575 73.205,301.000 72.480,301.000 71.955 C 301.000 71.430,300.100 71.000,299.000 71.000 C 297.900 71.000,297.000 70.550,297.000 70.000 C 297.000 69.450,296.100 69.000,295.000 69.000 C 293.900 69.000,293.000 68.570,293.000 68.045 C 293.000 67.520,291.425 66.795,289.500 66.434 C 287.575 66.073,286.000 65.377,286.000 64.889 C 286.000 64.400,285.325 64.000,284.500 64.000 C 283.675 64.000,283.000 63.550,283.000 63.000 C 283.000 62.450,282.100 62.000,281.000 62.000 C 279.900 62.000,279.000 61.550,279.000 61.000 C 279.000 60.450,278.068 60.000,276.929 60.000 C 275.789 60.000,274.182 59.325,273.357 58.500 C 272.397 57.540,269.929 57.000,266.500 57.000 C 263.071 57.000,260.603 57.540,259.643 58.500 M272.000 71.955 C 272.000 72.480,273.575 73.205,275.500 73.566 C 277.425 73.927,279.000 74.623,279.000 75.111 C 279.000 75.600,279.900 76.000,281.000 76.000 C 282.100 76.000,283.000 76.450,283.000 77.000 C 283.000 77.550,283.675 78.000,284.500 78.000 C 285.325 78.000,286.000 78.450,286.000 79.000 C 286.000 79.550,286.900 80.000,288.000 80.000 C 289.100 80.000,290.000 80.430,290.000 80.955 C 290.000 81.480,291.575 82.205,293.500 82.566 C 295.425 82.927,297.000 83.623,297.000 84.111 C 297.000 84.600,297.900 85.000,299.000 85.000 C 300.100 85.000,301.000 85.450,301.000 86.000 C 301.000 86.550,301.675 87.000,302.500 87.000 C 303.325 87.000,304.000 87.450,304.000 88.000 C 304.000 88.550,304.863 89.000,305.917 89.000 C 306.971 89.000,307.993 89.479,308.188 90.065 C 308.383 90.650,310.446 91.384,312.772 91.696 C 315.097 92.008,317.000 92.654,317.000 93.132 C 317.000 93.609,317.675 94.000,318.500 94.000 C 319.325 94.000,320.000 94.450,320.000 95.000 C 320.000 95.550,320.900 96.000,322.000 96.000 C 323.100 96.000,324.000 96.344,324.000 96.764 C 324.000 97.693,331.423 101.000,333.507 101.000 C 334.328 101.000,335.000 101.450,335.000 102.000 C 335.000 102.550,335.675 103.000,336.500 103.000 C 337.325 103.000,338.000 103.450,338.000 104.000 C 338.000 104.550,339.242 105.000,340.759 105.000 C 342.431 105.000,344.009 105.784,344.761 106.988 C 345.506 108.182,347.600 109.232,350.001 109.616 C 352.201 109.968,354.000 110.648,354.000 111.128 C 354.000 111.608,354.900 112.000,356.000 112.000 C 357.100 112.000,358.000 112.450,358.000 113.000 C 358.000 113.550,358.900 114.000,360.000 114.000 C 361.100 114.000,362.000 114.450,362.000 115.000 C 362.000 115.550,362.675 116.000,363.500 116.000 C 364.325 116.000,365.000 116.400,365.000 116.889 C 365.000 117.377,366.575 118.073,368.500 118.434 C 370.425 118.795,372.000 119.520,372.000 120.045 C 372.000 120.570,372.900 121.000,374.000 121.000 C 375.100 121.000,376.000 121.450,376.000 122.000 C 376.000 122.550,376.900 123.000,378.000 123.000 C 379.100 123.000,380.000 123.340,380.000 123.756 C 380.000 124.707,384.488 126.625,388.750 127.495 C 390.538 127.860,392.000 128.573,392.000 129.079 C 392.000 129.586,392.900 130.000,394.000 130.000 C 395.100 130.000,396.000 130.450,396.000 131.000 C 396.000 131.550,396.675 132.000,397.500 132.000 C 398.325 132.000,399.000 132.400,399.000 132.889 C 399.000 133.377,400.575 134.073,402.500 134.434 C 404.425 134.795,406.000 135.520,406.000 136.045 C 406.000 136.570,406.900 137.000,408.000 137.000 C 409.100 137.000,410.000 137.450,410.000 138.000 C 410.000 138.550,410.900 139.000,412.000 139.000 C 413.100 139.000,414.000 139.450,414.000 140.000 C 414.000 140.550,414.675 141.000,415.500 141.000 C 416.325 141.000,417.000 141.450,417.000 142.000 C 417.000 142.550,417.900 143.000,419.000 143.000 C 420.988 143.000,421.000 143.667,421.000 257.025 L 421.000 371.050 418.000 371.650 C 416.350 371.980,415.000 372.644,415.000 373.125 C 415.000 373.606,414.325 374.000,413.500 374.000 C 412.675 374.000,412.000 374.450,412.000 375.000 C 412.000 375.550,411.100 376.000,410.000 376.000 C 408.900 376.000,408.000 376.450,408.000 377.000 C 408.000 377.550,407.325 378.000,406.500 378.000 C 405.675 378.000,405.000 378.422,405.000 378.939 C 405.000 379.455,402.975 380.181,400.500 380.552 C 398.025 380.923,396.000 381.626,396.000 382.114 C 396.000 382.601,395.100 383.000,394.000 383.000 C 392.900 383.000,392.000 383.450,392.000 384.000 C 392.000 384.550,391.351 385.000,390.557 385.000 C 389.763 385.000,388.525 385.827,387.807 386.838 C 387.088 387.849,384.704 388.963,382.508 389.314 C 380.312 389.666,378.362 390.413,378.175 390.976 C 377.987 391.539,376.971 392.000,375.917 392.000 C 374.863 392.000,374.000 392.450,374.000 393.000 C 374.000 393.550,373.325 394.000,372.500 394.000 C 371.675 394.000,371.000 394.450,371.000 395.000 C 371.000 395.550,370.328 396.000,369.507 396.000 C 367.423 396.000,360.000 399.307,360.000 400.236 C 360.000 400.656,359.100 401.000,358.000 401.000 C 356.900 401.000,356.000 401.450,356.000 402.000 C 356.000 402.550,355.325 403.000,354.500 403.000 C 353.675 403.000,353.000 403.450,353.000 404.000 C 353.000 404.550,352.328 405.000,351.507 405.000 C 349.423 405.000,342.000 408.307,342.000 409.236 C 342.000 409.656,341.100 410.000,340.000 410.000 C 338.900 410.000,338.000 410.450,338.000 411.000 C 338.000 411.550,337.325 412.000,336.500 412.000 C 335.675 412.000,335.000 412.410,335.000 412.912 C 335.000 413.414,333.090 414.147,330.755 414.541 C 328.421 414.936,325.780 416.100,324.888 417.129 C 323.996 418.158,322.306 419.000,321.133 419.000 C 319.960 419.000,319.000 419.450,319.000 420.000 C 319.000 420.550,318.100 421.000,317.000 421.000 C 315.900 421.000,315.000 421.400,315.000 421.889 C 315.000 422.377,313.425 423.073,311.500 423.434 C 309.575 423.795,308.000 424.520,308.000 425.045 C 308.000 425.570,307.100 426.000,306.000 426.000 C 304.900 426.000,304.000 426.450,304.000 427.000 C 304.000 427.550,303.040 428.000,301.867 428.000 C 300.694 428.000,299.006 428.840,298.116 429.866 C 297.226 430.892,295.036 432.053,293.249 432.445 C 291.462 432.838,290.000 433.573,290.000 434.079 C 290.000 434.586,289.100 435.000,288.000 435.000 C 286.900 435.000,286.000 435.450,286.000 436.000 C 286.000 436.550,285.325 437.000,284.500 437.000 C 283.675 437.000,283.000 437.450,283.000 438.000 C 283.000 438.550,282.100 439.000,281.000 439.000 C 279.900 439.000,279.000 439.400,279.000 439.889 C 279.000 440.377,277.425 441.073,275.500 441.434 C 273.575 441.795,272.000 442.520,272.000 443.045 C 272.000 443.570,271.550 444.000,271.000 444.000 C 270.337 444.000,270.000 381.167,270.000 257.500 C 270.000 133.833,270.337 71.000,271.000 71.000 C 271.550 71.000,272.000 71.430,272.000 71.955 M211.000 102.000 C 211.000 102.550,211.675 103.000,212.500 103.000 C 213.325 103.000,214.000 103.450,214.000 104.000 C 214.000 104.550,214.900 105.000,216.000 105.000 C 217.100 105.000,218.000 105.450,218.000 106.000 C 218.000 106.550,218.900 107.000,220.000 107.000 C 221.991 107.000,222.000 107.667,222.000 257.500 C 222.000 407.333,221.991 408.000,220.000 408.000 C 218.900 408.000,218.000 408.450,218.000 409.000 C 218.000 409.550,217.100 410.000,216.000 410.000 C 214.900 410.000,214.000 410.450,214.000 411.000 C 214.000 411.550,213.325 412.000,212.500 412.000 C 211.675 412.000,211.000 412.450,211.000 413.000 C 211.000 413.550,210.550 414.000,210.000 414.000 C 209.338 414.000,209.000 361.167,209.000 257.500 C 209.000 153.833,209.338 101.000,210.000 101.000 C 210.550 101.000,211.000 101.450,211.000 102.000 M164.000 258.559 C 164.000 345.520,163.662 390.000,163.000 390.000 C 162.338 390.000,162.000 345.314,162.000 257.941 C 162.000 170.156,162.335 126.089,163.000 126.500 C 163.658 126.907,164.000 172.010,164.000 258.559 " stroke="none" fill="#000000" fill-rule="evenodd"></path></g></svg>