<svg id="svg" version="1.1" width="515" height="515" xmlns="http://www.w3.org/2000/svg" xmlns:xlink="http://www.w3.org/1999/xlink" style="display: block;"><g id="svgg"><path id="path0" d="M253.424 49.601 C 251.816 51.582,249.938 53.800,249.250 54.530 C 248.563 55.260,248.000 56.157,248.000 56.524 C 248.000 56.891,245.415 61.086,242.256 65.846 C 239.097 70.606,236.060 75.215,235.506 76.090 C 234.953 76.964,232.263 81.014,229.528 85.090 C 226.793 89.165,224.093 93.215,223.528 94.090 C 222.963 94.964,220.263 99.014,217.528 103.090 C 214.793 107.165,212.093 111.234,211.528 112.130 C 210.963 113.027,208.137 117.251,205.250 121.519 C 202.363 125.786,200.000 129.444,200.000 129.647 C 200.000 129.851,198.650 131.881,197.000 134.159 L 194.000 138.300 194.000 237.073 L 194.000 335.847 196.308 338.673 C 197.577 340.228,199.940 343.637,201.558 346.248 C 203.176 348.860,204.838 350.997,205.250 350.998 C 205.662 350.999,206.000 351.613,206.000 352.362 C 206.000 353.112,207.238 355.318,208.750 357.265 C 210.263 359.212,213.750 364.289,216.500 368.548 C 219.250 372.806,223.171 378.813,225.212 381.895 C 227.254 384.978,229.345 388.400,229.858 389.500 C 230.371 390.600,231.963 392.850,233.394 394.500 C 234.826 396.150,235.998 397.885,235.999 398.356 C 235.999 398.827,237.350 400.917,239.000 403.000 C 240.650 405.083,242.000 407.201,242.000 407.705 C 242.000 408.210,242.817 409.500,243.817 410.573 C 245.927 412.838,252.809 423.240,254.850 427.250 C 256.484 430.460,259.587 430.875,260.498 428.006 C 260.846 426.909,261.693 425.447,262.380 424.756 C 263.853 423.274,270.890 412.798,272.904 409.087 C 273.677 407.664,274.615 406.275,274.990 406.000 C 275.810 405.399,282.922 394.724,284.921 391.095 C 285.702 389.677,286.954 387.903,287.703 387.154 C 288.453 386.404,289.936 384.085,291.000 382.000 C 292.064 379.915,293.547 377.596,294.297 376.846 C 295.046 376.097,296.298 374.321,297.079 372.899 C 297.861 371.477,300.737 366.981,303.472 362.907 C 309.176 354.409,309.070 354.569,314.824 345.749 C 317.629 341.449,319.913 339.011,321.324 338.810 L 323.500 338.500 323.755 239.062 C 323.895 184.371,323.627 139.371,323.159 139.062 C 322.691 138.753,321.677 137.336,320.904 135.913 C 318.987 132.380,311.831 121.617,310.990 121.000 C 310.615 120.725,309.677 119.336,308.904 117.913 C 306.848 114.125,299.840 103.713,298.314 102.179 C 297.591 101.452,297.000 100.284,297.000 99.584 C 297.000 98.883,296.165 97.555,295.145 96.631 C 294.125 95.708,292.259 92.949,291.000 90.500 C 289.741 88.051,287.875 85.292,286.855 84.369 C 285.835 83.445,285.000 82.372,285.000 81.984 C 285.000 81.595,282.637 77.786,279.750 73.519 C 276.863 69.251,274.036 65.027,273.469 64.130 C 260.735 43.996,258.997 42.737,253.424 49.601 M267.000 69.823 C 267.000 70.392,267.591 71.452,268.314 72.179 C 269.808 73.680,276.779 84.017,278.921 87.905 C 279.702 89.323,280.954 91.097,281.703 91.846 C 282.453 92.596,283.936 94.915,285.000 97.000 C 286.064 99.085,287.547 101.404,288.297 102.154 C 289.046 102.903,290.298 104.677,291.079 106.095 C 293.221 109.983,300.192 120.320,301.686 121.821 C 302.409 122.548,303.000 123.644,303.000 124.257 C 303.000 124.870,303.840 126.300,304.868 127.436 C 305.895 128.571,307.500 130.705,308.435 132.177 L 310.134 134.854 306.317 133.862 C 299.567 132.108,281.783 126.897,271.750 123.734 L 262.000 120.660 262.000 91.753 L 262.000 62.847 264.500 65.818 C 265.875 67.452,267.000 69.254,267.000 69.823 M251.996 94.250 L 251.991 121.500 242.746 124.354 C 225.711 129.611,214.522 132.905,211.843 133.451 C 210.381 133.748,208.356 134.290,207.343 134.656 C 205.709 135.245,205.741 135.047,207.626 132.910 C 208.796 131.585,211.001 128.475,212.526 126.000 C 214.051 123.525,215.612 121.275,215.995 121.000 C 216.378 120.725,217.323 119.336,218.096 117.913 C 220.013 114.380,227.169 103.617,228.010 103.000 C 228.385 102.725,229.323 101.336,230.096 99.913 C 232.013 96.380,239.169 85.617,240.010 85.000 C 240.385 84.725,241.323 83.349,242.096 81.943 C 243.898 78.661,251.421 67.025,251.750 67.011 C 251.887 67.005,251.998 79.262,251.996 94.250 M141.128 126.345 C 140.514 127.085,139.733 129.086,139.392 130.791 C 138.971 132.895,138.110 133.989,136.711 134.195 C 135.578 134.363,133.942 135.677,133.076 137.115 C 132.209 138.553,130.178 141.928,128.561 144.615 C 126.945 147.302,124.583 150.772,123.311 152.327 C 122.040 153.881,121.000 155.588,121.000 156.119 C 121.000 156.649,120.161 157.985,119.134 159.086 C 118.108 160.187,116.238 163.094,114.977 165.544 C 113.717 167.995,112.377 170.000,112.000 170.000 C 111.623 170.000,110.283 172.005,109.023 174.456 C 107.762 176.906,105.947 179.754,104.988 180.783 C 104.029 181.812,102.953 183.572,102.597 184.695 C 102.240 185.818,101.060 187.540,99.974 188.523 C 97.687 190.593,97.349 195.532,99.414 196.700 C 100.858 197.517,109.000 209.190,109.000 210.443 C 109.000 210.823,110.188 212.691,111.641 214.595 C 113.093 216.500,115.005 219.348,115.891 220.926 C 120.297 228.780,124.246 234.959,125.550 236.041 C 126.347 236.703,127.000 237.906,127.000 238.714 C 127.000 239.522,127.918 241.380,129.039 242.842 C 132.407 247.232,138.164 256.347,139.087 258.750 C 140.471 262.357,143.530 261.556,145.770 257.000 C 146.447 255.625,149.024 251.800,151.498 248.500 C 153.972 245.200,156.735 241.150,157.637 239.500 C 158.540 237.850,159.601 236.275,159.995 236.000 C 161.106 235.224,170.000 221.971,170.000 221.092 C 170.000 220.662,170.872 219.521,171.938 218.556 C 173.003 217.592,175.349 214.372,177.149 211.401 C 178.949 208.431,180.777 206.000,181.211 206.000 C 181.645 206.000,182.001 205.438,182.001 204.750 C 182.003 202.822,186.294 198.282,188.514 197.858 C 192.556 197.087,189.590 187.447,183.410 181.267 C 182.634 180.492,182.000 179.483,182.000 179.027 C 182.000 178.570,179.300 174.167,176.000 169.241 C 172.700 164.316,170.000 159.809,170.000 159.226 C 170.000 158.644,169.586 158.017,169.080 157.833 C 168.574 157.650,166.437 154.746,164.330 151.381 C 162.224 148.015,158.363 142.039,155.750 138.099 C 153.137 134.160,151.000 130.580,151.000 130.143 C 151.000 126.705,143.291 123.739,141.128 126.345 M280.248 138.972 C 280.937 138.957,285.775 140.298,291.000 141.952 C 296.225 143.606,302.975 145.663,306.000 146.524 C 309.025 147.384,312.738 148.573,314.250 149.165 L 317.000 150.243 317.000 241.102 L 317.000 331.962 314.250 332.511 C 311.343 333.092,296.832 337.235,281.000 342.004 C 275.775 343.578,270.375 345.085,269.000 345.352 C 267.625 345.620,265.488 346.152,264.250 346.536 L 262.000 347.233 262.000 240.172 L 262.000 133.111 270.498 136.055 C 275.172 137.675,279.560 138.988,280.248 138.972 M150.973 146.561 C 150.988 147.145,151.805 148.495,152.789 149.561 C 154.628 151.555,161.408 162.090,163.904 166.832 C 164.677 168.299,165.615 169.725,165.990 170.000 C 166.960 170.712,174.176 181.884,176.150 185.732 L 177.809 188.965 168.655 188.398 C 163.620 188.086,154.027 187.194,147.337 186.415 C 140.647 185.637,134.972 185.000,134.726 185.000 C 134.479 185.000,135.296 181.063,136.540 176.250 C 141.045 158.825,143.354 149.398,144.393 144.189 L 145.452 138.879 148.199 142.189 C 149.710 144.010,150.958 145.978,150.973 146.561 M127.418 164.250 C 125.517 175.858,121.719 185.806,118.980 186.354 C 117.469 186.656,115.000 187.213,113.493 187.591 L 110.752 188.279 113.565 183.390 C 115.112 180.700,117.417 177.228,118.689 175.673 C 119.960 174.119,121.000 172.206,121.000 171.423 C 121.000 170.640,121.347 170.000,121.771 170.000 C 122.195 170.000,123.648 167.975,125.000 165.500 C 127.933 160.131,128.107 160.041,127.418 164.250 M369.636 239.975 C 368.060 241.581,364.369 246.631,361.433 251.198 C 358.497 255.764,355.706 259.955,355.230 260.512 C 354.220 261.695,346.918 272.610,345.592 274.919 C 345.093 275.789,344.418 276.986,344.092 277.581 C 342.640 280.232,335.502 290.627,334.314 291.821 C 333.591 292.548,332.982 293.673,332.959 294.321 C 332.937 294.970,331.587 297.058,329.959 298.962 C 326.756 302.710,325.771 309.000,328.388 309.000 C 329.677 309.000,337.425 320.005,339.280 324.472 C 339.731 325.556,340.437 326.681,340.849 326.972 C 341.462 327.404,346.606 335.199,351.502 343.114 C 352.051 344.002,356.477 350.706,361.338 358.012 C 366.199 365.318,370.410 371.904,370.695 372.648 C 371.881 375.738,378.671 368.101,382.218 359.688 C 382.638 358.691,383.637 357.220,384.439 356.418 C 385.241 355.616,387.116 352.719,388.607 349.980 C 390.098 347.241,391.666 345.000,392.092 345.000 C 392.517 345.000,393.141 344.132,393.478 343.070 C 394.241 340.667,403.629 326.347,404.996 325.503 C 405.548 325.161,406.000 324.009,406.000 322.941 C 406.000 321.873,406.355 321.000,406.789 321.000 C 407.223 321.000,409.068 318.541,410.889 315.535 C 412.711 312.530,415.056 309.800,416.101 309.468 C 419.159 308.497,418.575 302.333,414.972 297.572 C 413.337 295.411,412.000 293.049,412.000 292.322 C 412.000 291.595,411.622 291.000,411.161 291.000 C 410.699 291.000,409.790 289.988,409.141 288.750 C 407.032 284.730,403.687 279.408,396.865 269.221 C 395.289 266.867,394.000 264.335,394.000 263.593 C 394.000 262.852,393.347 261.703,392.550 261.041 C 391.752 260.379,389.676 257.316,387.937 254.235 C 386.198 251.154,384.151 248.008,383.388 247.245 C 382.625 246.482,382.000 245.409,382.000 244.862 C 382.000 238.774,373.939 235.589,369.636 239.975 M373.792 278.500 C 377.055 295.448,378.829 306.456,378.373 306.937 C 378.015 307.315,338.834 303.086,338.300 302.611 C 337.969 302.317,340.211 298.668,345.750 290.481 C 348.637 286.214,351.000 282.367,351.000 281.933 C 351.000 281.498,351.591 280.548,352.314 279.821 C 353.692 278.437,360.427 268.555,363.000 264.143 C 363.825 262.729,365.065 260.958,365.757 260.208 C 366.448 259.458,367.551 257.867,368.208 256.672 C 369.283 254.718,369.517 255.153,370.538 261.000 C 371.163 264.575,372.627 272.450,373.792 278.500 M388.000 270.225 C 388.000 270.728,389.350 273.102,391.000 275.500 C 392.650 277.898,394.000 280.257,394.000 280.742 C 394.000 281.226,394.807 282.495,395.793 283.561 C 397.438 285.340,402.566 293.557,405.852 299.678 C 407.592 302.920,406.971 303.392,398.203 305.492 C 389.514 307.572,390.464 308.294,389.013 298.500 C 388.361 294.100,386.735 284.875,385.400 278.000 C 382.428 262.705,382.427 262.831,385.501 266.406 C 386.876 268.004,388.000 269.723,388.000 270.225 " stroke="none" fill="#000000" fill-rule="evenodd"></path></g></svg>