<svg id="svg" version="1.1" width="400" height="400" xmlns="http://www.w3.org/2000/svg" xmlns:xlink="http://www.w3.org/1999/xlink" style="display: block;"><g id="svgg"><path id="path0" d="M258.500 25.463 C 248.704 26.648,238.993 28.844,238.000 30.099 C 237.725 30.447,233.675 32.551,229.000 34.776 C 220.433 38.852,214.437 43.447,206.085 52.338 C 199.977 58.840,199.190 59.158,194.659 56.954 C 182.940 51.253,157.278 49.389,145.000 53.347 C 137.072 55.902,129.815 59.231,127.771 61.250 C 126.797 62.212,125.606 63.000,125.125 63.000 C 120.825 63.000,102.021 87.544,102.005 93.179 C 102.002 94.102,101.360 95.497,100.578 96.279 C 99.796 97.061,98.671 100.325,98.078 103.534 C 96.244 113.455,94.922 112.640,112.750 112.566 C 127.279 112.505,133.913 113.218,145.250 116.060 C 153.414 118.106,157.000 119.358,157.000 120.160 C 157.000 120.622,157.564 121.000,158.254 121.000 C 160.356 121.000,176.445 129.124,177.305 130.619 C 180.214 135.678,188.000 135.065,188.000 129.777 C 188.000 128.765,188.654 127.686,189.454 127.379 C 190.254 127.072,191.844 124.889,192.987 122.526 C 195.559 117.214,216.304 96.000,218.927 96.000 C 219.828 96.000,226.047 92.227,228.548 90.164 C 231.342 87.858,250.827 81.030,254.667 81.011 C 255.858 81.005,256.989 80.534,257.178 79.965 C 257.368 79.396,263.018 78.414,269.734 77.782 L 281.945 76.633 282.222 63.669 L 282.500 50.704 285.644 53.352 C 287.374 54.808,289.232 56.000,289.774 56.000 C 290.316 56.000,292.418 58.025,294.446 60.500 C 296.475 62.975,298.739 65.000,299.478 65.000 C 300.217 65.000,301.885 66.237,303.184 67.750 C 304.483 69.263,307.560 72.134,310.023 74.131 C 312.485 76.128,315.914 79.053,317.641 80.631 C 319.369 82.209,322.402 84.625,324.381 86.000 C 328.873 89.121,328.649 90.540,322.995 94.764 C 318.977 97.767,316.383 100.005,305.500 109.864 C 303.850 111.358,301.294 113.340,299.821 114.267 C 298.347 115.195,295.647 117.447,293.821 119.273 C 291.994 121.099,288.587 124.072,286.250 125.881 L 282.000 129.168 282.000 116.584 L 282.000 104.000 275.447 104.000 C 268.799 104.000,255.933 106.292,252.764 108.042 C 251.809 108.569,250.384 109.000,249.597 109.000 C 248.810 109.000,248.017 109.337,247.833 109.750 C 247.650 110.162,244.415 112.045,240.644 113.934 C 236.873 115.822,233.277 118.184,232.653 119.184 C 232.029 120.183,231.005 121.000,230.376 121.000 C 228.783 121.000,217.000 134.746,217.000 136.604 C 217.000 137.349,220.671 137.901,227.698 138.214 C 234.515 138.517,238.536 139.109,238.782 139.845 C 238.993 140.480,240.179 141.000,241.416 141.000 C 245.917 141.000,267.000 148.491,267.000 150.090 C 267.000 150.513,269.029 151.873,271.510 153.112 C 273.990 154.351,276.760 156.182,277.665 157.182 C 278.570 158.182,279.617 159.000,279.992 159.000 C 280.542 159.000,284.988 162.800,290.265 167.778 C 291.720 169.151,299.000 178.788,299.000 179.342 C 299.000 179.647,300.052 181.032,301.338 182.419 C 302.623 183.806,304.958 187.992,306.526 191.721 C 308.094 195.449,309.706 198.730,310.109 199.010 C 310.512 199.291,311.151 200.866,311.530 202.510 C 311.909 204.155,312.845 207.428,313.610 209.785 C 314.374 212.142,315.000 215.802,315.000 217.920 C 315.000 221.018,315.537 222.120,317.750 223.565 C 320.780 225.542,335.000 239.469,335.000 240.460 C 335.000 241.453,339.378 247.422,340.750 248.300 C 341.438 248.740,342.007 249.640,342.015 250.300 C 342.059 253.726,343.573 254.180,349.353 252.500 C 352.459 251.597,355.000 250.511,355.000 250.087 C 355.000 249.663,356.694 248.809,358.764 248.189 C 360.835 247.568,364.072 245.922,365.959 244.530 C 367.845 243.139,369.779 242.000,370.256 242.000 C 371.360 242.000,388.000 225.101,388.000 223.980 C 388.000 223.519,388.627 222.516,389.392 221.750 C 391.525 219.618,395.555 211.025,396.780 206.000 C 399.591 194.466,400.000 191.495,400.000 182.623 C 400.000 167.966,395.014 149.152,390.031 145.000 C 389.040 144.175,387.055 141.599,385.618 139.275 C 384.182 136.952,381.768 134.263,380.253 133.301 C 378.739 132.339,376.375 130.526,375.000 129.271 C 373.625 128.017,370.025 125.685,367.000 124.089 L 361.500 121.187 361.211 112.594 C 361.052 107.867,360.490 104.000,359.961 104.000 C 359.432 104.000,359.000 102.157,359.000 99.904 C 359.000 92.715,352.118 71.000,349.839 71.000 C 349.378 71.000,349.000 70.393,349.000 69.650 C 349.000 68.908,347.650 66.436,346.000 64.159 C 344.350 61.881,343.000 59.785,343.000 59.502 C 343.000 58.866,330.750 46.738,325.414 42.091 C 321.828 38.968,315.602 35.476,307.250 31.902 C 305.462 31.137,304.000 30.224,304.000 29.873 C 304.000 28.434,273.700 23.418,269.289 24.127 C 268.855 24.197,264.000 24.798,258.500 25.463 M115.750 138.654 C 114.237 138.917,113.000 139.553,113.000 140.066 C 113.000 140.580,111.832 141.000,110.404 141.000 C 107.528 141.000,98.155 143.455,93.500 145.428 C 91.850 146.128,89.037 147.272,87.250 147.971 C 85.463 148.671,84.000 149.648,84.000 150.143 C 84.000 150.638,82.763 151.576,81.250 152.228 C 79.737 152.879,76.860 154.669,74.856 156.206 C 72.852 157.743,71.008 159.000,70.758 159.000 C 70.166 159.000,59.000 170.166,59.000 170.758 C 59.000 171.008,57.650 172.917,56.000 175.000 C 54.350 177.083,53.000 179.262,53.000 179.842 C 53.000 180.422,51.882 182.103,50.516 183.577 C 49.150 185.051,47.063 189.462,45.878 193.378 C 44.693 197.295,43.111 202.197,42.362 204.270 C 41.613 206.344,41.000 209.831,41.000 212.020 C 41.000 214.209,40.550 216.000,40.000 216.000 C 39.404 216.000,39.000 219.827,39.000 225.480 L 39.000 234.959 35.000 237.000 C 32.800 238.122,31.000 239.482,31.000 240.020 C 31.000 240.559,30.502 241.000,29.893 241.000 C 27.801 241.000,18.551 249.152,14.774 254.323 C 12.695 257.170,10.622 259.962,10.167 260.526 C 2.173 270.439,-2.527 297.945,1.062 313.807 C 3.227 323.378,4.423 327.564,5.689 330.000 C 6.403 331.375,6.990 333.015,6.994 333.645 C 6.997 334.275,8.117 335.850,9.483 337.145 C 10.848 338.440,11.973 340.110,11.983 340.856 C 12.023 344.039,25.976 358.809,32.742 362.832 C 34.809 364.061,38.525 366.038,41.000 367.227 C 43.475 368.416,45.772 369.784,46.104 370.267 C 46.879 371.395,52.332 372.770,63.000 374.528 C 75.916 376.657,265.965 376.650,277.500 374.520 C 288.700 372.452,293.196 371.286,293.896 370.266 C 294.228 369.782,296.075 368.765,298.000 368.005 C 302.678 366.158,307.742 362.934,312.000 359.093 C 313.925 357.356,316.738 355.178,318.250 354.252 C 319.762 353.326,321.000 352.256,321.000 351.874 C 321.000 351.492,322.800 348.902,325.000 346.119 C 327.200 343.336,329.000 340.596,329.000 340.029 C 329.000 339.463,329.379 339.000,329.843 339.000 C 331.602 339.000,336.649 326.476,338.205 318.250 C 338.752 315.363,339.604 313.000,340.099 313.000 C 340.595 313.000,341.000 306.700,341.000 299.000 C 341.000 291.233,340.594 285.000,340.088 285.000 C 339.586 285.000,338.864 283.087,338.483 280.750 C 337.656 275.671,332.289 262.302,330.654 261.247 C 330.017 260.836,328.854 259.254,328.069 257.731 C 326.224 254.152,315.851 243.778,312.269 241.929 C 310.746 241.143,308.902 239.935,308.172 239.243 C 307.442 238.552,305.979 237.524,304.922 236.958 C 303.372 236.129,302.999 234.824,302.992 230.215 C 302.984 223.732,301.238 211.811,300.182 211.023 C 299.797 210.735,298.401 207.800,297.080 204.500 C 294.871 198.979,292.496 194.882,289.262 191.014 C 282.771 183.251,280.605 181.000,279.624 181.000 C 278.995 181.000,277.971 180.183,277.347 179.184 C 276.723 178.184,273.127 175.822,269.356 173.934 C 265.585 172.045,262.275 170.273,262.000 169.995 C 261.194 169.180,254.941 167.252,248.877 165.948 C 237.538 163.509,210.302 166.555,206.129 170.728 C 205.337 171.520,203.559 172.597,202.178 173.123 C 199.520 174.133,199.256 173.939,196.564 169.000 C 194.854 165.863,188.032 159.702,181.500 155.398 C 178.750 153.586,175.702 151.394,174.726 150.527 C 171.507 147.669,152.761 141.037,147.833 141.013 C 146.367 141.006,144.993 140.480,144.781 139.844 C 144.382 138.647,121.241 137.699,115.750 138.654 M171.339 207.500 C 174.506 208.325,177.927 209.000,178.942 209.000 C 179.956 209.000,181.045 209.675,181.362 210.500 C 181.678 211.325,182.632 212.000,183.482 212.000 C 184.879 212.000,186.481 212.666,191.000 215.128 C 191.825 215.577,193.963 216.683,195.750 217.586 C 197.537 218.489,199.000 219.852,199.000 220.614 C 199.000 221.376,199.470 222.000,200.044 222.000 C 201.390 222.000,209.000 229.024,209.000 230.267 C 209.000 230.787,210.017 232.012,211.261 232.991 C 212.504 233.969,214.867 237.634,216.511 241.135 C 218.155 244.636,219.785 247.725,220.132 248.000 C 223.773 250.879,226.311 275.376,224.055 285.866 C 222.473 293.218,220.796 298.000,219.799 298.000 C 219.360 298.000,219.000 298.684,219.000 299.520 C 219.000 300.356,217.875 302.822,216.500 305.000 C 215.125 307.178,214.000 309.338,214.000 309.800 C 214.000 310.262,212.602 312.183,210.894 314.070 C 209.186 315.956,207.110 318.511,206.282 319.746 C 205.453 320.981,202.126 323.601,198.888 325.568 C 195.649 327.535,193.000 329.499,193.000 329.931 C 193.000 332.298,170.387 339.000,162.400 339.000 C 160.622 339.000,158.904 339.563,158.583 340.250 C 158.117 341.250,157.883 341.250,157.417 340.250 C 157.096 339.563,155.550 339.000,153.982 339.000 C 150.061 339.000,137.427 336.272,133.624 334.605 C 131.906 333.851,129.037 332.677,127.250 331.996 C 125.463 331.315,124.000 330.374,124.000 329.904 C 124.000 329.435,122.552 328.303,120.783 327.388 C 116.981 325.421,103.000 311.213,103.000 309.314 C 103.000 308.592,102.106 307.106,101.014 306.014 C 95.340 300.340,90.789 277.064,92.857 264.293 C 94.648 253.239,97.956 243.094,100.154 241.917 C 101.169 241.374,102.000 240.274,102.000 239.473 C 102.000 238.261,107.132 230.484,109.758 227.718 C 111.411 225.976,119.357 219.000,119.688 219.000 C 119.883 219.000,121.721 217.893,123.771 216.539 C 125.822 215.185,129.507 213.372,131.959 212.509 C 134.412 211.647,136.662 210.605,136.959 210.195 C 139.492 206.701,161.613 204.967,171.339 207.500 M154.174 214.314 C 151.817 216.824,151.401 220.013,153.035 223.066 C 154.441 225.692,162.655 225.823,164.608 223.250 C 169.953 216.208,160.223 207.875,154.174 214.314 M152.523 237.565 C 148.055 239.894,148.032 240.017,148.015 261.168 L 148.000 280.837 151.250 282.869 C 153.037 283.987,158.067 288.553,162.427 293.016 C 173.369 304.219,179.546 306.730,184.847 302.133 C 189.956 297.702,187.738 292.451,175.858 280.850 L 167.000 272.200 166.986 257.350 C 166.970 239.565,166.779 238.683,162.608 237.175 C 158.296 235.616,156.098 235.701,152.523 237.565 M100.250 267.674 C 95.746 270.816,97.536 277.732,103.081 278.616 C 109.273 279.604,112.000 277.753,112.000 272.560 C 112.000 266.204,105.959 263.692,100.250 267.674 M207.571 267.571 C 203.483 271.660,206.648 279.000,212.500 279.000 C 218.102 279.000,221.666 271.066,217.800 267.200 C 216.078 265.478,209.424 265.719,207.571 267.571 M154.263 321.769 C 151.694 324.907,151.600 325.555,153.098 329.851 C 154.623 334.226,162.926 334.652,164.839 330.453 C 168.714 321.950,159.986 314.783,154.263 321.769 " stroke="none" fill="#000000" fill-rule="evenodd"></path></g></svg>