<svg id="svg" version="1.1" width="400" height="400" xmlns="http://www.w3.org/2000/svg" xmlns:xlink="http://www.w3.org/1999/xlink" style="display: block;"><g id="svgg"><path id="path0" d="M58.000 128.884 C 49.173 130.364,29.000 139.612,29.000 142.178 C 29.000 142.630,28.454 143.000,27.787 143.000 C 24.709 143.000,7.000 165.288,7.000 169.163 C 7.000 169.953,6.608 171.028,6.130 171.550 C 1.978 176.082,-1.371 201.726,0.897 211.619 C 4.456 227.143,9.640 239.003,15.665 245.401 C 16.752 246.556,18.706 248.963,20.009 250.750 C 21.311 252.537,22.918 254.000,23.581 254.000 C 24.244 254.000,25.045 254.675,25.362 255.500 C 25.678 256.325,26.626 257.000,27.469 257.000 C 28.311 257.000,29.000 257.406,29.000 257.901 C 29.000 258.890,33.996 262.090,41.000 265.588 C 71.766 280.953,116.393 269.536,132.563 242.162 C 133.591 240.423,134.784 239.000,135.216 239.000 C 135.647 239.000,136.000 238.581,136.000 238.070 C 136.000 237.558,137.368 234.183,139.041 230.570 L 142.082 224.000 271.041 224.000 L 400.000 224.000 400.000 200.500 L 400.000 177.000 271.131 177.000 L 142.261 177.000 139.556 170.750 C 126.122 139.717,93.440 122.940,58.000 128.884 " stroke="none" fill="#000000" fill-rule="evenodd"></path></g></svg>