<svg id="svg" version="1.1" width="400" height="400" xmlns="http://www.w3.org/2000/svg" xmlns:xlink="http://www.w3.org/1999/xlink" style="display: block;"><g id="svgg"><path id="path0" d="M186.000 37.000 C 185.207 38.100,183.533 39.000,182.279 39.000 C 180.920 39.000,180.000 39.605,180.000 40.500 C 180.000 41.325,179.530 42.000,178.955 42.000 C 177.132 42.000,173.000 46.826,173.000 48.955 C 173.000 50.106,172.344 51.000,171.500 51.000 C 170.609 51.000,170.000 51.918,170.000 53.263 C 170.000 54.509,168.877 56.369,167.500 57.403 C 166.125 58.435,165.000 60.117,165.000 61.140 C 165.000 62.163,164.550 63.000,164.000 63.000 C 163.450 63.000,163.000 63.932,163.000 65.071 C 163.000 67.285,160.836 70.000,159.071 70.000 C 158.482 70.000,158.000 71.125,158.000 72.500 C 158.000 73.875,157.550 75.000,157.000 75.000 C 156.450 75.000,156.000 75.932,156.000 77.071 C 156.000 79.285,153.836 82.000,152.071 82.000 C 151.482 82.000,151.000 82.932,151.000 84.071 C 151.000 86.285,148.836 89.000,147.071 89.000 C 146.482 89.000,146.000 90.125,146.000 91.500 C 146.000 92.875,145.550 94.000,145.000 94.000 C 144.450 94.000,144.000 94.932,144.000 96.071 C 144.000 98.285,141.836 101.000,140.071 101.000 C 139.482 101.000,139.000 102.125,139.000 103.500 C 139.000 104.875,138.550 106.000,138.000 106.000 C 137.450 106.000,137.000 106.932,137.000 108.071 C 137.000 110.285,134.836 113.000,133.071 113.000 C 132.482 113.000,132.000 114.125,132.000 115.500 C 132.000 116.875,131.550 118.000,131.000 118.000 C 130.450 118.000,130.000 119.125,130.000 120.500 C 130.000 121.875,129.518 123.000,128.929 123.000 C 127.164 123.000,125.000 125.715,125.000 127.929 C 125.000 129.068,124.550 130.000,124.000 130.000 C 123.450 130.000,123.000 131.125,123.000 132.500 C 123.000 133.875,122.518 135.000,121.929 135.000 C 120.164 135.000,118.000 137.715,118.000 139.929 C 118.000 141.068,117.518 142.000,116.929 142.000 C 115.164 142.000,113.000 144.715,113.000 146.929 C 113.000 148.068,112.550 149.000,112.000 149.000 C 111.450 149.000,111.000 150.125,111.000 151.500 C 111.000 152.875,110.518 154.000,109.929 154.000 C 108.164 154.000,106.000 156.715,106.000 158.929 C 106.000 160.068,105.550 161.000,105.000 161.000 C 104.450 161.000,104.000 161.696,104.000 162.548 C 104.000 163.399,102.875 165.138,101.500 166.412 C 100.125 167.687,99.000 169.690,99.000 170.865 C 99.000 172.096,98.365 173.000,97.500 173.000 C 96.667 173.000,96.000 173.889,96.000 175.000 C 96.000 176.100,95.550 177.000,95.000 177.000 C 94.450 177.000,94.000 177.675,94.000 178.500 C 94.000 179.325,93.550 180.000,93.000 180.000 C 92.450 180.000,92.000 181.125,92.000 182.500 C 92.000 184.056,91.433 185.000,90.500 185.000 C 89.667 185.000,89.000 185.889,89.000 187.000 C 89.000 188.100,88.550 189.000,88.000 189.000 C 87.450 189.000,87.000 189.675,87.000 190.500 C 87.000 191.325,86.550 192.000,86.000 192.000 C 85.450 192.000,85.000 192.900,85.000 194.000 C 85.000 195.111,84.333 196.000,83.500 196.000 C 82.567 196.000,82.000 196.944,82.000 198.500 C 82.000 199.875,81.550 201.000,81.000 201.000 C 80.450 201.000,80.000 202.125,80.000 203.500 C 80.000 204.875,79.518 206.000,78.929 206.000 C 77.164 206.000,75.000 208.715,75.000 210.929 C 75.000 212.068,74.550 213.000,74.000 213.000 C 73.450 213.000,73.000 214.125,73.000 215.500 C 73.000 216.875,72.518 218.000,71.929 218.000 C 70.164 218.000,68.000 220.715,68.000 222.929 C 68.000 224.103,67.351 225.000,66.500 225.000 C 65.605 225.000,65.000 225.920,65.000 227.279 C 65.000 228.533,64.100 230.207,63.000 231.000 C 61.900 231.793,61.000 233.467,61.000 234.721 C 61.000 236.080,60.395 237.000,59.500 237.000 C 58.567 237.000,58.000 237.944,58.000 239.500 C 58.000 240.875,57.550 242.000,57.000 242.000 C 56.450 242.000,56.000 242.900,56.000 244.000 C 56.000 245.100,55.550 246.000,55.000 246.000 C 54.450 246.000,54.000 246.675,54.000 247.500 C 54.000 248.325,53.325 249.000,52.500 249.000 C 51.567 249.000,51.000 249.944,51.000 251.500 C 51.000 252.875,50.550 254.000,50.000 254.000 C 49.450 254.000,49.000 254.900,49.000 256.000 C 49.000 257.111,48.333 258.000,47.500 258.000 C 46.675 258.000,46.000 258.675,46.000 259.500 C 46.000 260.325,45.550 261.000,45.000 261.000 C 44.450 261.000,44.000 261.900,44.000 263.000 C 44.000 264.100,43.550 265.000,43.000 265.000 C 42.450 265.000,42.000 266.125,42.000 267.500 C 42.000 269.056,41.433 270.000,40.500 270.000 C 39.605 270.000,39.000 270.920,39.000 272.279 C 39.000 273.533,38.100 275.207,37.000 276.000 C 35.900 276.793,35.000 278.467,35.000 279.721 C 35.000 281.080,34.395 282.000,33.500 282.000 C 32.649 282.000,32.000 282.897,32.000 284.071 C 32.000 286.285,29.836 289.000,28.071 289.000 C 27.482 289.000,27.000 290.125,27.000 291.500 C 27.000 292.875,26.550 294.000,26.000 294.000 C 25.450 294.000,25.000 295.125,25.000 296.500 C 25.000 297.875,24.550 299.000,24.000 299.000 C 23.450 299.000,23.000 300.125,23.000 301.500 C 23.000 302.875,22.518 304.000,21.929 304.000 C 20.164 304.000,18.000 306.715,18.000 308.929 C 18.000 310.103,17.351 311.000,16.500 311.000 C 15.667 311.000,15.000 311.889,15.000 313.000 C 15.000 314.100,14.550 315.000,14.000 315.000 C 13.450 315.000,13.000 316.125,13.000 317.500 C 13.000 318.875,12.550 320.000,12.000 320.000 C 11.450 320.000,11.000 321.125,11.000 322.500 C 11.000 324.056,10.433 325.000,9.500 325.000 C 8.284 325.000,8.000 326.611,8.000 333.500 C 8.000 340.389,8.284 342.000,9.500 342.000 C 10.333 342.000,11.000 342.889,11.000 344.000 C 11.000 345.100,11.450 346.000,12.000 346.000 C 12.550 346.000,13.000 346.935,13.000 348.077 C 13.000 350.762,18.238 356.000,20.923 356.000 C 22.065 356.000,23.000 356.450,23.000 357.000 C 23.000 357.550,23.900 358.000,25.000 358.000 C 26.111 358.000,27.000 358.667,27.000 359.500 C 27.000 360.633,28.222 361.000,32.000 361.000 C 34.750 361.000,37.000 361.450,37.000 362.000 C 37.000 362.663,92.000 363.000,200.000 363.000 C 308.000 363.000,363.000 362.663,363.000 362.000 C 363.000 361.450,365.250 361.000,368.000 361.000 C 371.778 361.000,373.000 360.633,373.000 359.500 C 373.000 358.495,374.005 358.000,376.048 358.000 C 380.387 358.000,389.000 349.387,389.000 345.048 C 389.000 343.005,389.495 342.000,390.500 342.000 C 391.700 342.000,392.000 340.500,392.000 334.500 C 392.000 328.500,391.700 327.000,390.500 327.000 C 389.452 327.000,389.000 325.944,389.000 323.500 C 389.000 321.575,388.550 320.000,388.000 320.000 C 387.450 320.000,387.000 318.875,387.000 317.500 C 387.000 316.125,386.550 315.000,386.000 315.000 C 385.450 315.000,385.000 314.100,385.000 313.000 C 385.000 311.889,384.333 311.000,383.500 311.000 C 382.675 311.000,382.000 310.325,382.000 309.500 C 382.000 308.675,381.550 308.000,381.000 308.000 C 380.450 308.000,380.000 307.100,380.000 306.000 C 380.000 304.889,379.333 304.000,378.500 304.000 C 377.567 304.000,377.000 303.056,377.000 301.500 C 377.000 300.125,376.550 299.000,376.000 299.000 C 375.450 299.000,375.000 298.325,375.000 297.500 C 375.000 296.675,374.550 296.000,374.000 296.000 C 373.450 296.000,373.000 295.100,373.000 294.000 C 373.000 292.889,372.333 292.000,371.500 292.000 C 370.675 292.000,370.000 291.325,370.000 290.500 C 370.000 289.675,369.550 289.000,369.000 289.000 C 368.450 289.000,368.000 288.100,368.000 287.000 C 368.000 285.889,367.333 285.000,366.500 285.000 C 365.567 285.000,365.000 284.056,365.000 282.500 C 365.000 281.125,364.550 280.000,364.000 280.000 C 363.450 280.000,363.000 279.325,363.000 278.500 C 363.000 277.675,362.550 277.000,362.000 277.000 C 361.450 277.000,361.000 276.100,361.000 275.000 C 361.000 273.889,360.333 273.000,359.500 273.000 C 358.567 273.000,358.000 272.056,358.000 270.500 C 358.000 269.125,357.550 268.000,357.000 268.000 C 356.450 268.000,356.000 267.325,356.000 266.500 C 356.000 265.675,355.550 265.000,355.000 265.000 C 354.450 265.000,354.000 264.100,354.000 263.000 C 354.000 261.889,353.333 261.000,352.500 261.000 C 351.649 261.000,351.000 260.103,351.000 258.929 C 351.000 256.715,348.836 254.000,347.071 254.000 C 346.482 254.000,346.000 252.875,346.000 251.500 C 346.000 250.125,345.550 249.000,345.000 249.000 C 344.450 249.000,344.000 248.325,344.000 247.500 C 344.000 246.675,343.550 246.000,343.000 246.000 C 342.450 246.000,342.000 245.100,342.000 244.000 C 342.000 242.889,341.333 242.000,340.500 242.000 C 339.605 242.000,339.000 241.080,339.000 239.721 C 339.000 238.467,338.100 236.793,337.000 236.000 C 335.900 235.207,335.000 233.533,335.000 232.279 C 335.000 230.920,334.395 230.000,333.500 230.000 C 332.649 230.000,332.000 229.103,332.000 227.929 C 332.000 225.715,329.836 223.000,328.071 223.000 C 327.482 223.000,327.000 221.875,327.000 220.500 C 327.000 219.125,326.550 218.000,326.000 218.000 C 325.450 218.000,325.000 217.068,325.000 215.929 C 325.000 213.715,322.836 211.000,321.071 211.000 C 320.482 211.000,320.000 209.875,320.000 208.500 C 320.000 207.125,319.550 206.000,319.000 206.000 C 318.450 206.000,318.000 204.875,318.000 203.500 C 318.000 202.125,317.518 201.000,316.929 201.000 C 315.309 201.000,313.000 198.355,313.000 196.500 C 313.000 194.645,310.691 192.000,309.071 192.000 C 308.482 192.000,308.000 190.875,308.000 189.500 C 308.000 188.125,307.550 187.000,307.000 187.000 C 306.450 187.000,306.000 185.875,306.000 184.500 C 306.000 183.125,305.550 182.000,305.000 182.000 C 304.450 182.000,304.000 181.163,304.000 180.140 C 304.000 179.117,302.875 177.435,301.500 176.403 C 300.123 175.369,299.000 173.509,299.000 172.263 C 299.000 170.918,298.391 170.000,297.500 170.000 C 296.605 170.000,296.000 169.080,296.000 167.721 C 296.000 166.467,295.100 164.793,294.000 164.000 C 292.900 163.207,292.000 161.533,292.000 160.279 C 292.000 158.920,291.395 158.000,290.500 158.000 C 289.667 158.000,289.000 157.111,289.000 156.000 C 289.000 154.900,288.550 154.000,288.000 154.000 C 287.450 154.000,287.000 153.325,287.000 152.500 C 287.000 151.675,286.550 151.000,286.000 151.000 C 285.450 151.000,285.000 150.086,285.000 148.969 C 285.000 147.851,284.325 146.678,283.500 146.362 C 282.675 146.045,282.000 144.934,282.000 143.893 C 282.000 142.852,281.550 142.000,281.000 142.000 C 280.450 142.000,280.000 140.875,280.000 139.500 C 280.000 138.125,279.518 137.000,278.929 137.000 C 277.164 137.000,275.000 134.285,275.000 132.071 C 275.000 130.932,274.550 130.000,274.000 130.000 C 273.450 130.000,273.000 128.875,273.000 127.500 C 273.000 126.125,272.518 125.000,271.929 125.000 C 270.164 125.000,268.000 122.285,268.000 120.071 C 268.000 118.897,267.351 118.000,266.500 118.000 C 265.567 118.000,265.000 117.056,265.000 115.500 C 265.000 114.125,264.550 113.000,264.000 113.000 C 263.450 113.000,263.000 112.068,263.000 110.929 C 263.000 108.715,260.836 106.000,259.071 106.000 C 258.482 106.000,258.000 104.875,258.000 103.500 C 258.000 102.125,257.550 101.000,257.000 101.000 C 256.450 101.000,256.000 100.068,256.000 98.929 C 256.000 96.715,253.836 94.000,252.071 94.000 C 251.482 94.000,251.000 92.875,251.000 91.500 C 251.000 90.125,250.550 89.000,250.000 89.000 C 249.450 89.000,249.000 88.100,249.000 87.000 C 249.000 85.889,248.333 85.000,247.500 85.000 C 246.567 85.000,246.000 84.056,246.000 82.500 C 246.000 81.125,245.550 80.000,245.000 80.000 C 244.450 80.000,244.000 79.325,244.000 78.500 C 244.000 77.675,243.550 77.000,243.000 77.000 C 242.450 77.000,242.000 76.100,242.000 75.000 C 242.000 73.889,241.333 73.000,240.500 73.000 C 239.567 73.000,239.000 72.056,239.000 70.500 C 239.000 69.125,238.550 68.000,238.000 68.000 C 237.450 68.000,237.000 67.325,237.000 66.500 C 237.000 65.675,236.550 65.000,236.000 65.000 C 235.450 65.000,235.000 64.100,235.000 63.000 C 235.000 61.889,234.333 61.000,233.500 61.000 C 232.649 61.000,232.000 60.103,232.000 58.929 C 232.000 56.715,229.836 54.000,228.071 54.000 C 227.482 54.000,227.000 52.875,227.000 51.500 C 227.000 50.125,226.550 49.000,226.000 49.000 C 225.450 49.000,225.000 48.325,225.000 47.500 C 225.000 46.675,224.550 46.000,224.000 46.000 C 223.450 46.000,223.000 45.100,223.000 44.000 C 223.000 42.889,222.333 42.000,221.500 42.000 C 220.675 42.000,220.000 41.325,220.000 40.500 C 220.000 39.567,219.056 39.000,217.500 39.000 C 216.125 39.000,215.000 38.550,215.000 38.000 C 215.000 37.450,214.100 37.000,213.000 37.000 C 211.900 37.000,211.000 36.550,211.000 36.000 C 211.000 33.837,187.605 34.773,186.000 37.000 M218.000 151.500 C 218.000 169.944,217.787 173.000,216.500 173.000 C 215.211 173.000,215.000 176.167,215.000 195.500 C 215.000 209.833,214.637 218.000,214.000 218.000 C 213.389 218.000,213.000 222.667,213.000 230.000 L 213.000 242.000 200.000 242.000 L 187.000 242.000 187.000 227.500 C 187.000 218.500,186.621 213.000,186.000 213.000 C 185.363 213.000,185.000 204.833,185.000 190.500 C 185.000 171.167,184.789 168.000,183.500 168.000 C 182.219 168.000,182.000 165.222,182.000 149.000 L 182.000 130.000 200.000 130.000 L 218.000 130.000 218.000 151.500 M201.000 266.500 C 201.000 267.615,202.175 268.000,205.571 268.000 C 209.647 268.000,213.000 269.580,213.000 271.500 C 213.000 272.334,215.666 275.000,216.500 275.000 C 218.420 275.000,220.000 278.353,220.000 282.429 C 220.000 285.825,220.385 287.000,221.500 287.000 C 222.433 287.000,223.000 287.944,223.000 289.500 C 223.000 291.056,222.433 292.000,221.500 292.000 C 220.452 292.000,220.000 293.056,220.000 295.500 C 220.000 297.425,219.550 299.000,219.000 299.000 C 218.450 299.000,218.000 300.125,218.000 301.500 C 218.000 303.056,217.433 304.000,216.500 304.000 C 215.675 304.000,215.000 304.450,215.000 305.000 C 215.000 305.550,214.100 306.000,213.000 306.000 C 211.900 306.000,211.000 306.450,211.000 307.000 C 211.000 307.550,209.875 308.000,208.500 308.000 C 206.944 308.000,206.000 308.567,206.000 309.500 C 206.000 310.667,204.667 311.000,200.000 311.000 C 195.333 311.000,194.000 310.667,194.000 309.500 C 194.000 308.567,193.056 308.000,191.500 308.000 C 190.125 308.000,189.000 307.550,189.000 307.000 C 189.000 306.450,188.100 306.000,187.000 306.000 C 185.900 306.000,185.000 305.550,185.000 305.000 C 185.000 304.450,184.325 304.000,183.500 304.000 C 182.567 304.000,182.000 303.056,182.000 301.500 C 182.000 300.125,181.550 299.000,181.000 299.000 C 180.450 299.000,180.000 296.750,180.000 294.000 C 180.000 290.222,179.633 289.000,178.500 289.000 C 177.675 289.000,177.000 288.550,177.000 288.000 C 177.000 287.450,177.675 287.000,178.500 287.000 C 179.615 287.000,180.000 285.825,180.000 282.429 C 180.000 278.353,181.580 275.000,183.500 275.000 C 184.334 275.000,187.000 272.334,187.000 271.500 C 187.000 269.580,190.353 268.000,194.429 268.000 C 197.825 268.000,199.000 267.615,199.000 266.500 C 199.000 265.675,199.450 265.000,200.000 265.000 C 200.550 265.000,201.000 265.675,201.000 266.500 " stroke="none" fill="#000000" fill-rule="evenodd"></path></g></svg>