<svg id="svg" version="1.1" width="400" height="400" xmlns="http://www.w3.org/2000/svg" xmlns:xlink="http://www.w3.org/1999/xlink" style="display: block;"><g id="svgg"><path id="path0" d="M227.500 43.412 C 206.043 48.351,186.177 63.788,176.502 83.041 C 174.994 86.044,173.604 88.672,173.414 88.882 C 173.225 89.092,170.664 87.067,167.723 84.382 C 141.816 60.722,99.430 69.377,83.971 101.484 C 78.454 112.942,76.211 131.907,79.414 140.000 C 79.849 141.098,77.932 142.552,72.254 145.429 C 27.560 168.076,28.026 234.675,73.034 256.862 C 86.965 263.730,89.246 263.963,142.750 263.983 L 190.000 264.000 190.000 283.974 L 190.000 303.949 187.175 305.410 C 163.947 317.421,173.617 353.889,200.054 353.978 C 222.952 354.055,235.028 326.182,219.029 310.183 L 216.000 307.154 216.000 285.577 L 216.000 264.000 260.750 263.983 C 310.578 263.963,313.832 263.646,326.315 257.593 C 375.128 233.921,371.543 159.753,320.724 141.905 C 317.988 140.945,317.114 140.155,317.550 139.040 C 320.307 132.001,319.812 111.201,316.611 99.500 C 305.786 59.932,265.606 34.642,227.500 43.412 M214.908 102.016 L 226.717 115.500 217.359 115.786 L 208.000 116.072 208.000 130.417 L 208.000 144.763 212.623 145.927 C 219.608 147.685,226.116 151.339,232.251 156.946 C 238.971 163.088,236.660 163.341,250.966 154.898 C 264.746 146.765,264.264 147.744,258.910 138.732 C 256.660 134.945,254.974 131.693,255.161 131.505 C 256.015 130.652,291.029 138.484,290.662 139.446 C 290.441 140.026,287.874 148.037,284.957 157.250 C 282.039 166.463,279.393 173.995,279.076 173.989 C 278.759 173.984,276.574 170.600,274.220 166.470 C 270.198 159.413,269.807 159.032,267.720 160.143 C 266.499 160.793,260.702 164.170,254.837 167.648 L 244.173 173.971 245.575 179.235 C 247.406 186.113,247.377 196.438,245.511 202.591 C 244.692 205.291,244.017 207.555,244.011 207.621 C 244.002 207.724,267.150 221.557,269.193 222.670 C 269.574 222.878,272.267 218.966,275.177 213.977 C 278.088 208.987,280.581 205.264,280.718 205.703 C 283.433 214.357,291.000 241.252,291.000 242.243 C 291.000 243.479,254.308 252.642,253.319 251.653 C 253.126 251.459,255.000 247.627,257.484 243.137 C 259.968 238.647,261.992 234.641,261.983 234.236 C 261.973 233.831,256.299 230.199,249.374 226.164 L 236.782 218.828 231.866 223.848 C 226.562 229.265,216.910 234.671,210.800 235.648 L 207.000 236.256 207.000 250.128 L 207.000 264.000 201.000 264.000 L 195.000 264.000 195.000 250.597 L 195.000 237.195 188.236 235.140 C 180.765 232.871,174.271 228.962,169.118 223.631 L 165.736 220.133 154.118 226.221 C 147.728 229.569,142.151 232.611,141.724 232.980 C 141.298 233.349,142.733 237.657,144.913 242.554 C 147.093 247.450,148.753 251.580,148.603 251.731 C 148.301 252.032,113.852 243.185,113.343 242.676 C 113.005 242.339,124.674 206.993,125.343 206.323 C 125.561 206.105,127.662 209.656,130.013 214.214 C 132.363 218.771,134.413 222.654,134.568 222.842 C 135.743 224.264,159.084 208.444,158.562 206.578 C 155.551 195.812,155.555 186.187,158.577 175.366 C 159.098 173.499,157.566 172.283,146.348 165.663 L 133.524 158.094 129.136 166.121 C 126.723 170.536,124.403 173.778,123.981 173.324 C 122.396 171.621,112.752 138.851,113.611 138.085 C 114.328 137.446,145.678 131.913,148.199 131.981 C 148.584 131.992,147.121 135.083,144.949 138.850 C 139.800 147.781,139.399 146.884,151.750 154.078 C 157.662 157.522,163.246 160.796,164.159 161.354 C 165.485 162.164,166.968 161.316,171.548 157.130 C 177.871 151.351,184.333 147.700,191.377 145.927 L 196.000 144.763 196.000 130.420 L 196.000 116.078 187.341 115.789 L 178.681 115.500 190.055 101.738 C 196.311 94.169,201.804 88.101,202.263 88.254 C 202.723 88.408,208.412 94.600,214.908 102.016 M194.139 163.029 C 181.422 165.666,171.685 178.017,171.732 191.448 C 171.828 218.665,204.330 230.998,222.551 210.733 C 241.331 189.844,221.928 157.266,194.139 163.029 " stroke="none" fill="#000000" fill-rule="evenodd"></path></g></svg>