<svg id="svg" version="1.1" width="400" height="400" xmlns="http://www.w3.org/2000/svg" xmlns:xlink="http://www.w3.org/1999/xlink" style="display: block;"><g id="svgg"><path id="path0" d="M188.000 0.660 C 181.744 1.629,171.000 4.366,171.000 4.989 C 171.000 5.369,169.200 6.274,167.000 7.000 C 164.800 7.726,163.000 8.643,163.000 9.039 C 163.000 9.434,161.639 10.321,159.976 11.010 C 158.313 11.699,156.626 12.766,156.226 13.381 C 155.827 13.997,153.978 15.348,152.117 16.385 C 148.202 18.567,139.000 27.307,139.000 28.844 C 139.000 29.417,138.213 30.475,137.250 31.193 C 136.287 31.912,134.825 33.850,134.000 35.500 C 133.175 37.150,132.007 38.950,131.404 39.500 C 130.802 40.050,129.696 42.075,128.947 44.000 C 128.197 45.925,127.072 48.025,126.446 48.667 C 125.821 49.309,124.713 52.684,123.986 56.167 C 123.258 59.650,122.176 62.821,121.581 63.213 C 120.871 63.682,120.500 70.291,120.500 82.499 C 120.500 94.706,120.871 101.317,121.581 101.786 C 122.176 102.179,123.258 105.350,123.986 108.833 C 124.713 112.316,125.846 115.703,126.503 116.360 C 127.160 117.018,128.250 119.227,128.924 121.270 C 129.598 123.313,130.679 125.326,131.327 125.742 C 131.974 126.159,133.178 127.850,134.002 129.500 C 134.826 131.150,136.504 133.313,137.731 134.308 C 138.958 135.302,139.858 136.439,139.731 136.835 C 139.337 138.063,152.471 150.000,154.215 150.000 C 154.647 150.000,155.868 150.787,156.928 151.750 C 160.784 155.249,161.958 155.999,166.191 157.666 C 168.561 158.599,170.725 159.674,171.000 160.056 C 171.275 160.437,172.963 161.066,174.750 161.454 L 178.000 162.159 178.000 202.079 L 178.000 242.000 159.000 242.000 L 140.000 242.000 140.000 264.000 L 140.000 286.000 159.000 286.000 L 178.000 286.000 178.000 301.500 L 178.000 317.000 202.500 317.000 L 227.000 317.000 227.000 239.475 L 227.000 161.950 230.000 161.350 C 231.650 161.020,233.000 160.415,233.000 160.005 C 233.000 159.595,235.037 158.690,237.527 157.992 C 240.017 157.295,242.380 156.215,242.777 155.591 C 243.175 154.968,244.738 153.915,246.250 153.250 C 247.762 152.586,249.000 151.583,249.000 151.021 C 249.000 150.460,249.578 150.000,250.285 150.000 C 252.481 150.000,265.000 138.976,265.000 137.042 C 265.000 136.478,265.926 135.451,267.057 134.758 C 268.189 134.066,269.852 131.925,270.753 130.000 C 271.655 128.075,272.945 126.159,273.621 125.742 C 274.297 125.326,275.402 123.313,276.076 121.270 C 276.750 119.227,277.868 116.989,278.560 116.297 C 279.251 115.606,280.123 113.231,280.497 111.020 C 280.870 108.809,281.535 107.000,281.975 107.000 C 283.584 107.000,285.388 93.171,285.368 81.000 C 285.348 69.084,283.565 55.000,282.076 55.000 C 281.692 55.000,280.801 52.750,280.097 50.000 C 279.392 47.250,278.493 45.000,278.100 45.000 C 277.707 45.000,276.552 43.087,275.535 40.750 C 274.517 38.413,273.080 36.140,272.342 35.700 C 271.604 35.260,271.000 34.258,271.000 33.473 C 271.000 32.688,269.875 31.309,268.500 30.408 C 267.125 29.507,266.000 28.267,266.000 27.652 C 266.000 26.151,255.379 16.255,252.936 15.480 C 251.871 15.142,251.000 14.467,251.000 13.980 C 251.000 13.492,249.313 12.309,247.250 11.349 C 245.188 10.389,243.275 9.318,243.000 8.969 C 238.239 2.920,205.415 -2.039,188.000 0.660 M214.817 46.674 C 215.193 47.265,216.934 48.060,218.687 48.440 C 222.015 49.162,234.000 59.455,234.000 61.591 C 234.000 62.248,234.625 63.026,235.389 63.319 C 236.152 63.612,237.362 66.135,238.078 68.926 C 238.793 71.717,239.743 74.000,240.189 74.000 C 240.635 74.000,241.000 77.825,241.000 82.500 C 241.000 87.175,240.657 91.000,240.238 91.000 C 239.818 91.000,238.665 93.828,237.675 97.284 C 236.318 102.022,235.152 104.051,232.933 105.534 C 231.314 106.615,230.203 108.063,230.464 108.750 C 230.724 109.438,230.377 110.000,229.691 110.000 C 229.006 110.000,226.968 111.350,225.161 113.000 C 223.355 114.650,221.261 116.000,220.510 116.000 C 219.758 116.000,218.355 116.787,217.393 117.750 C 215.341 119.802,191.543 120.409,190.214 118.443 C 189.821 117.862,187.925 116.764,186.000 116.004 C 184.075 115.243,181.509 113.582,180.298 112.311 C 179.087 111.040,177.624 110.000,177.048 110.000 C 176.471 110.000,176.000 109.341,176.000 108.535 C 176.000 107.730,175.134 106.607,174.075 106.040 C 170.526 104.141,166.715 94.270,166.200 85.641 C 165.755 78.196,167.333 67.000,168.828 67.000 C 169.204 67.000,170.152 65.553,170.935 63.784 C 173.601 57.761,185.051 48.000,189.450 48.000 C 190.303 48.000,191.000 47.581,191.000 47.070 C 191.000 44.926,213.469 44.552,214.817 46.674 M92.973 74.956 C 91.063 76.581,88.553 78.831,87.395 79.956 C 86.237 81.080,84.950 82.000,84.536 82.000 C 83.314 82.000,63.395 102.331,62.674 104.313 C 62.311 105.311,61.613 105.879,61.123 105.576 C 60.633 105.273,59.671 106.380,58.985 108.036 C 58.299 109.692,57.234 111.374,56.619 111.774 C 55.056 112.788,49.000 121.603,49.000 122.864 C 49.000 123.434,48.433 124.260,47.740 124.700 C 47.047 125.140,45.585 127.300,44.490 129.500 C 43.396 131.700,42.226 133.725,41.891 134.000 C 41.556 134.275,40.678 136.188,39.940 138.250 C 39.202 140.313,38.275 142.000,37.879 142.000 C 37.484 142.000,36.383 144.363,35.433 147.250 C 34.483 150.137,33.396 152.725,33.019 153.000 C 32.642 153.275,31.497 156.762,30.474 160.750 C 29.451 164.738,28.292 168.000,27.898 168.000 C 27.504 168.000,26.619 171.262,25.931 175.250 C 25.244 179.238,24.340 182.951,23.923 183.503 C 20.230 188.390,20.302 257.000,24.000 257.000 C 24.394 257.000,25.294 260.375,26.000 264.500 C 26.706 268.625,27.596 272.000,27.978 272.000 C 28.360 272.000,29.495 275.600,30.500 280.000 C 31.505 284.400,32.662 288.000,33.071 288.000 C 33.479 288.000,34.592 290.475,35.544 293.500 C 36.495 296.525,37.572 299.000,37.936 299.000 C 38.300 299.000,39.197 300.657,39.930 302.682 C 40.662 304.707,42.080 307.243,43.081 308.317 C 44.082 309.391,45.184 311.559,45.530 313.135 C 45.876 314.711,46.596 316.000,47.130 316.000 C 47.665 316.000,48.737 317.520,49.514 319.379 C 50.290 321.237,51.646 323.034,52.526 323.372 C 53.406 323.709,53.866 324.408,53.547 324.925 C 53.228 325.441,53.762 326.463,54.733 327.197 C 56.454 328.496,58.331 331.047,59.678 333.917 C 60.043 334.697,62.178 337.125,64.421 339.313 C 66.665 341.501,68.375 343.715,68.221 344.232 C 68.068 344.749,68.856 345.411,69.971 345.703 C 71.087 345.995,72.000 346.870,72.000 347.648 C 72.000 348.426,72.788 349.349,73.750 349.698 C 74.713 350.048,77.818 352.621,80.651 355.417 C 87.392 362.070,92.200 365.945,93.750 365.976 C 94.438 365.989,95.000 366.457,95.000 367.016 C 95.000 367.575,96.575 368.783,98.500 369.701 C 100.425 370.619,102.000 371.748,102.000 372.210 C 102.000 373.094,106.965 375.438,108.250 375.161 C 108.663 375.073,109.000 375.473,109.000 376.051 C 109.000 376.629,110.687 377.805,112.750 378.663 C 114.813 379.522,116.725 380.535,117.000 380.914 C 117.275 381.293,119.750 382.447,122.499 383.479 C 125.249 384.511,128.053 385.910,128.730 386.587 C 129.407 387.264,131.778 388.125,134.000 388.500 C 136.222 388.875,138.623 389.766,139.335 390.478 C 140.048 391.191,143.302 392.360,146.566 393.075 C 149.830 393.791,152.725 394.676,153.000 395.042 C 153.614 395.860,163.628 397.664,174.974 399.001 C 185.795 400.277,218.513 400.283,227.000 399.011 C 243.086 396.599,248.000 395.671,248.000 395.042 C 248.000 394.671,250.925 393.786,254.500 393.075 C 258.075 392.364,261.000 391.482,261.000 391.113 C 261.000 390.745,263.784 389.617,267.186 388.607 C 270.589 387.597,273.904 386.239,274.554 385.589 C 275.204 384.939,277.707 383.772,280.118 382.996 C 282.528 382.219,284.725 381.340,285.000 381.042 C 285.275 380.744,287.300 379.604,289.500 378.510 C 291.700 377.415,293.860 375.953,294.300 375.260 C 294.740 374.567,295.683 374.000,296.397 374.000 C 297.110 374.000,298.732 373.100,300.000 372.000 C 301.268 370.900,302.575 369.999,302.903 369.998 C 303.231 369.996,305.075 368.647,307.000 367.000 C 308.925 365.353,310.835 364.004,311.244 364.002 C 311.653 364.001,313.991 362.087,316.440 359.750 C 318.888 357.412,323.616 353.096,326.946 350.159 C 330.275 347.221,333.000 344.401,333.000 343.892 C 333.000 343.383,335.025 341.026,337.500 338.655 C 339.975 336.283,342.000 333.832,342.000 333.207 C 342.000 332.582,342.900 331.589,344.000 331.000 C 345.100 330.411,346.000 329.293,346.000 328.515 C 346.000 327.736,346.598 326.740,347.328 326.300 C 348.059 325.860,349.521 323.925,350.578 322.000 C 351.635 320.075,352.983 318.185,353.574 317.799 C 354.164 317.413,355.249 315.276,355.984 313.049 C 356.719 310.822,357.722 309.000,358.212 309.000 C 358.703 309.000,359.575 307.650,360.150 306.000 C 360.725 304.350,361.553 303.000,361.990 303.000 C 362.427 303.000,363.586 300.322,364.567 297.049 C 365.547 293.776,366.673 291.298,367.068 291.542 C 367.464 291.787,368.579 288.727,369.546 284.743 C 370.513 280.760,371.699 277.241,372.181 276.923 C 372.663 276.606,373.582 273.456,374.223 269.923 C 374.864 266.391,375.816 263.209,376.338 262.852 C 376.860 262.496,377.039 261.259,376.737 260.102 C 376.435 258.946,376.523 258.000,376.933 258.000 C 377.983 258.000,380.000 240.609,380.000 231.558 C 380.000 227.186,380.422 224.000,381.000 224.000 C 381.550 224.000,382.000 221.975,382.000 219.500 C 382.000 217.025,381.550 215.000,381.000 215.000 C 380.425 215.000,380.001 211.917,380.001 207.750 C 380.003 199.464,377.045 177.000,375.953 177.000 C 375.553 177.000,374.675 174.075,374.000 170.500 C 373.325 166.925,372.428 164.000,372.005 164.000 C 371.583 164.000,370.710 161.904,370.065 159.343 C 369.420 156.781,367.566 151.850,365.946 148.385 C 364.326 144.919,363.000 141.438,363.000 140.649 C 363.000 139.860,362.325 138.955,361.500 138.638 C 360.675 138.322,360.000 137.406,360.000 136.603 C 360.000 135.800,359.430 134.548,358.732 133.821 C 358.035 133.095,356.617 130.588,355.580 128.250 C 354.544 125.912,353.300 124.000,352.817 124.000 C 352.333 124.000,351.644 123.213,351.286 122.250 C 350.652 120.546,346.276 114.573,342.750 110.596 C 341.788 109.511,341.000 108.178,341.000 107.635 C 341.000 107.092,338.067 103.758,334.483 100.226 C 330.898 96.693,327.507 92.948,326.947 91.902 C 326.388 90.856,325.481 90.000,324.934 90.000 C 324.386 90.000,322.283 88.200,320.260 86.000 C 318.237 83.800,316.017 82.000,315.326 82.000 C 314.636 82.000,313.589 81.100,313.000 80.000 C 309.885 74.179,308.326 77.470,307.717 91.150 C 307.395 98.383,306.717 104.570,306.210 104.900 C 305.703 105.230,304.678 108.600,303.933 112.390 C 303.187 116.179,302.110 119.779,301.539 120.390 C 298.316 123.834,296.571 133.048,298.473 136.580 C 299.490 138.468,300.546 139.787,300.821 139.512 C 301.283 139.051,302.885 141.350,304.645 145.000 C 305.043 145.825,306.185 147.088,307.184 147.807 C 308.183 148.525,309.000 149.694,309.000 150.404 C 309.000 151.113,309.912 152.746,311.027 154.031 C 312.142 155.317,313.316 157.411,313.636 158.684 C 313.955 159.958,314.557 161.000,314.973 161.000 C 315.388 161.000,316.536 163.137,317.522 165.750 C 318.509 168.363,319.624 170.725,319.999 171.000 C 320.374 171.275,321.512 174.650,322.529 178.500 C 323.545 182.350,324.667 185.725,325.021 186.000 C 325.864 186.654,328.000 197.531,328.000 201.167 C 328.000 202.725,328.450 204.000,329.000 204.000 C 329.625 204.000,330.000 210.000,330.000 220.000 C 330.000 228.800,329.649 236.000,329.221 236.000 C 328.793 236.000,327.878 240.145,327.188 245.212 C 326.498 250.278,325.565 254.666,325.116 254.962 C 324.666 255.258,324.040 256.625,323.724 258.000 C 322.217 264.561,320.411 270.078,319.929 269.595 C 319.634 269.301,318.557 271.522,317.534 274.530 C 316.512 277.539,315.298 280.000,314.838 280.000 C 314.377 280.000,314.000 280.675,314.000 281.500 C 314.000 282.325,313.193 283.807,312.207 284.793 C 311.221 285.779,309.812 288.040,309.076 289.817 C 308.340 291.594,307.234 293.374,306.619 293.774 C 306.003 294.173,304.753 295.850,303.839 297.500 C 302.506 299.908,296.669 306.836,292.252 311.252 C 288.770 314.735,281.551 321.000,281.021 321.000 C 280.658 321.000,278.848 322.350,277.000 324.000 C 275.152 325.650,273.303 327.000,272.891 327.000 C 272.480 327.000,271.355 327.788,270.393 328.750 C 269.430 329.712,268.386 330.538,268.071 330.584 C 266.083 330.875,262.000 333.109,262.000 333.904 C 262.000 334.429,259.525 335.578,256.500 336.457 C 253.475 337.336,251.000 338.399,251.000 338.819 C 251.000 339.239,247.850 340.445,244.000 341.500 C 240.150 342.555,237.000 343.696,237.000 344.036 C 237.000 344.759,225.446 347.000,221.718 347.000 C 220.315 347.000,218.993 347.521,218.781 348.158 C 218.289 349.634,183.140 349.804,182.157 348.335 C 181.795 347.795,177.563 346.752,172.750 346.016 C 167.938 345.280,164.000 344.355,164.000 343.962 C 164.000 343.568,160.850 342.429,157.000 341.430 C 153.150 340.431,150.000 339.312,150.000 338.943 C 150.000 338.574,147.863 337.464,145.250 336.478 C 142.637 335.491,140.275 334.371,140.000 333.990 C 139.725 333.608,137.700 332.451,135.500 331.419 C 133.300 330.387,130.675 328.858,129.666 328.021 C 128.657 327.184,126.632 325.488,125.166 324.251 C 123.700 323.014,122.173 322.002,121.774 322.001 C 121.374 322.001,118.688 319.750,115.805 317.000 C 112.922 314.250,110.211 312.000,109.781 312.000 C 109.352 312.000,109.000 311.539,109.000 310.975 C 109.000 310.412,106.975 308.076,104.500 305.786 C 102.025 303.496,100.000 301.140,100.000 300.551 C 100.000 299.963,99.083 298.908,97.961 298.208 C 96.840 297.508,96.172 296.530,96.478 296.036 C 96.783 295.541,96.218 294.544,95.221 293.818 C 94.224 293.093,92.577 290.700,91.560 288.500 C 90.543 286.300,89.137 284.160,88.434 283.744 C 87.731 283.328,86.867 281.672,86.514 280.063 C 86.161 278.454,85.281 276.649,84.560 276.050 C 83.839 275.452,82.685 272.946,81.995 270.481 C 81.305 268.016,80.437 266.000,80.066 266.000 C 79.695 266.000,78.557 262.192,77.538 257.539 C 76.518 252.885,75.367 249.273,74.980 249.512 C 71.509 251.658,71.445 193.452,74.916 191.000 C 75.305 190.725,76.201 187.800,76.906 184.500 C 77.611 181.200,78.750 177.600,79.436 176.500 C 80.122 175.400,81.491 171.912,82.479 168.750 C 83.466 165.588,84.594 163.000,84.985 163.000 C 85.376 163.000,86.458 161.313,87.388 159.250 C 90.266 152.870,92.869 148.653,94.489 147.746 C 95.343 147.268,95.813 146.506,95.532 146.052 C 95.252 145.598,95.692 144.671,96.511 143.991 C 97.330 143.311,98.000 142.396,98.000 141.957 C 98.000 141.517,100.005 139.153,102.456 136.702 C 104.907 134.251,106.643 131.976,106.313 131.646 C 105.983 131.317,106.453 130.763,107.357 130.417 C 108.976 129.795,109.739 125.000,108.218 125.000 C 107.788 125.000,106.815 122.862,106.055 120.250 C 105.295 117.638,104.364 115.275,103.987 115.000 C 102.865 114.182,100.000 98.357,100.000 92.980 C 100.000 90.241,99.550 88.000,99.000 88.000 C 98.450 88.000,98.000 85.525,98.000 82.500 C 98.000 79.475,98.450 77.000,99.000 77.000 C 99.550 77.000,100.000 75.875,100.000 74.500 C 100.000 71.073,97.332 71.246,92.973 74.956 " stroke="none" fill="#000000" fill-rule="evenodd"></path></g></svg>