<svg id="svg" version="1.1" width="400" height="400" xmlns="http://www.w3.org/2000/svg" xmlns:xlink="http://www.w3.org/1999/xlink" style="display: block;"><g id="svgg"><path id="path0" d="M183.000 0.565 C 181.625 0.796,175.775 1.695,170.000 2.564 C 154.923 4.830,142.443 7.959,129.500 12.714 C 117.998 16.941,98.452 26.753,93.500 30.786 C 92.950 31.234,91.797 31.869,90.938 32.197 C 82.036 35.594,53.134 62.413,41.000 78.535 C 36.875 84.016,33.163 88.650,32.750 88.833 C 32.337 89.017,32.000 89.823,32.000 90.626 C 32.000 91.428,31.544 92.628,30.986 93.292 C 29.031 95.621,25.000 102.097,25.000 102.910 C 25.000 103.361,24.193 104.803,23.208 106.115 C 22.222 107.427,19.703 112.550,17.610 117.500 C 9.388 136.946,7.324 143.946,2.277 169.500 C -2.449 193.431,1.153 237.626,9.857 262.500 C 11.012 265.800,12.656 270.525,13.511 273.000 C 16.474 281.577,22.536 293.800,29.133 304.500 C 30.150 306.150,31.291 308.175,31.668 309.000 C 32.046 309.825,32.615 310.725,32.933 311.000 C 34.477 312.334,39.000 318.994,39.000 319.933 C 39.000 320.520,39.428 321.000,39.952 321.000 C 40.476 321.000,42.374 323.137,44.171 325.750 C 48.244 331.672,67.875 351.373,74.250 355.938 C 76.862 357.809,79.000 359.713,79.000 360.170 C 79.000 360.626,79.675 361.000,80.500 361.000 C 81.325 361.000,82.000 361.348,82.000 361.773 C 82.000 362.198,83.575 363.393,85.500 364.430 C 87.425 365.467,89.000 366.642,89.000 367.041 C 89.000 367.440,89.787 368.038,90.750 368.369 C 91.712 368.701,93.850 369.815,95.500 370.844 C 105.956 377.370,123.414 386.000,126.160 386.000 C 126.952 386.000,128.028 386.375,128.550 386.834 C 129.073 387.292,133.325 388.835,138.000 390.262 C 152.868 394.801,154.974 395.266,175.500 398.532 C 187.111 400.380,212.916 400.377,224.500 398.527 C 229.450 397.736,235.300 396.823,237.500 396.496 C 245.483 395.313,269.614 388.445,271.450 386.834 C 271.972 386.375,273.048 386.000,273.840 386.000 C 276.722 386.000,303.079 372.805,307.079 369.360 C 307.947 368.612,309.007 368.000,309.434 368.000 C 310.102 368.000,312.216 366.463,317.708 361.985 C 318.372 361.443,319.385 361.000,319.958 361.000 C 320.531 361.000,321.000 360.626,321.000 360.170 C 321.000 359.713,323.137 357.809,325.750 355.938 C 331.889 351.543,351.543 331.889,355.938 325.750 C 357.809 323.137,359.713 321.000,360.170 321.000 C 360.626 321.000,361.000 320.531,361.000 319.958 C 361.000 319.385,361.443 318.372,361.985 317.708 C 366.463 312.216,368.000 310.102,368.000 309.434 C 368.000 309.007,368.612 307.947,369.360 307.079 C 372.805 303.079,386.000 276.722,386.000 273.840 C 386.000 273.048,386.375 271.972,386.834 271.450 C 388.445 269.614,395.313 245.483,396.496 237.500 C 396.823 235.300,397.736 229.450,398.527 224.500 C 402.416 200.145,399.311 167.638,390.262 138.000 C 388.835 133.325,387.292 129.072,386.834 128.550 C 386.375 128.027,386.000 126.952,386.000 126.160 C 386.000 123.435,377.609 106.435,370.867 95.500 C 369.850 93.850,368.709 91.825,368.332 91.000 C 367.954 90.175,367.385 89.275,367.067 89.000 C 365.523 87.666,361.000 81.006,361.000 80.067 C 361.000 79.480,360.604 79.000,360.120 79.000 C 359.636 79.000,357.292 76.413,354.911 73.250 C 348.378 64.574,334.695 51.218,323.500 42.590 C 318.000 38.351,312.812 34.347,311.971 33.692 C 311.131 33.036,308.431 31.421,305.971 30.101 C 303.512 28.782,300.790 27.095,299.921 26.351 C 299.053 25.608,297.876 25.000,297.306 25.000 C 296.736 25.000,295.197 24.193,293.885 23.208 C 292.573 22.222,287.450 19.707,282.500 17.619 C 277.550 15.530,272.022 13.187,270.216 12.411 C 268.410 11.635,266.332 11.000,265.599 11.000 C 264.866 11.000,262.069 10.156,259.383 9.124 C 254.277 7.162,245.651 5.163,230.500 2.431 C 221.996 0.897,188.787 -0.407,183.000 0.565 M229.500 30.604 C 237.988 32.200,250.196 35.383,256.000 37.513 C 261.326 39.468,277.368 46.294,278.500 47.086 C 279.050 47.472,281.126 48.693,283.113 49.799 C 285.100 50.906,287.774 52.417,289.055 53.156 C 305.140 62.437,329.064 84.896,340.611 101.554 C 345.467 108.560,346.338 109.952,350.201 116.887 C 351.307 118.874,352.528 120.950,352.914 121.500 C 353.299 122.050,355.321 126.550,357.408 131.500 C 368.565 157.966,371.348 171.641,371.348 200.000 C 371.348 222.190,370.694 227.582,366.013 244.000 C 364.994 247.575,363.864 251.957,363.503 253.739 C 363.142 255.520,362.431 257.234,361.923 257.548 C 361.415 257.861,361.000 258.978,361.000 260.029 C 361.000 261.079,360.196 263.415,359.213 265.220 C 358.231 267.024,356.568 270.525,355.518 273.000 C 354.467 275.475,352.796 278.694,351.804 280.154 C 350.812 281.614,350.000 283.321,350.000 283.947 C 350.000 284.572,349.548 285.628,348.995 286.292 C 348.442 286.956,345.895 290.650,343.335 294.500 C 329.969 314.602,302.818 340.658,288.384 347.235 C 287.073 347.832,286.000 348.699,286.000 349.161 C 286.000 349.622,285.185 350.000,284.189 350.000 C 283.192 350.000,281.411 350.900,280.230 352.000 C 279.050 353.100,277.609 354.000,277.028 354.000 C 276.448 354.000,275.191 354.421,274.236 354.936 C 234.487 376.368,173.878 377.412,131.262 357.399 C 127.281 355.530,123.681 353.990,123.262 353.978 C 122.843 353.966,121.375 353.076,120.000 352.000 C 118.625 350.924,116.713 350.034,115.750 350.022 C 114.787 350.010,114.000 349.622,114.000 349.161 C 114.000 348.699,112.927 347.832,111.616 347.235 C 94.883 339.611,62.787 306.872,51.092 285.500 C 49.287 282.200,47.489 279.050,47.098 278.500 C 46.302 277.382,39.502 261.420,37.513 256.000 C 25.435 223.091,25.475 172.727,37.603 144.216 C 38.371 142.410,39.000 140.499,39.000 139.970 C 39.000 139.441,40.575 135.599,42.500 131.431 C 44.425 127.264,46.010 123.549,46.022 123.177 C 46.034 122.805,46.924 121.375,48.000 120.000 C 49.076 118.625,49.966 116.919,49.978 116.208 C 49.990 115.497,50.455 114.372,51.012 113.708 C 51.568 113.044,54.089 109.350,56.615 105.500 C 69.235 86.260,86.260 69.235,105.500 56.615 C 109.350 54.089,113.044 51.568,113.708 51.012 C 114.372 50.455,115.497 49.990,116.208 49.978 C 116.919 49.966,118.625 49.076,120.000 48.000 C 121.375 46.924,122.805 46.034,123.177 46.022 C 123.549 46.010,127.264 44.425,131.431 42.500 C 135.599 40.575,139.441 39.000,139.970 39.000 C 140.499 39.000,142.410 38.371,144.216 37.603 C 148.096 35.953,160.053 32.637,168.500 30.868 C 182.761 27.883,214.307 27.746,229.500 30.604 M238.745 125.755 C 217.435 147.070,200.000 165.080,200.000 165.776 C 200.000 166.855,268.683 236.000,269.755 236.000 C 269.963 236.000,271.620 237.575,273.435 239.500 C 278.096 244.442,279.033 244.104,289.396 233.750 C 294.489 228.662,300.082 223.259,301.827 221.742 C 303.572 220.226,305.000 218.566,305.000 218.054 C 305.000 217.219,263.324 175.000,262.500 175.000 C 261.733 175.000,254.000 166.857,254.000 166.050 C 254.000 165.569,265.475 153.696,279.500 139.665 C 293.525 125.634,305.000 113.722,305.000 113.193 C 305.000 112.183,279.129 87.000,278.091 87.000 C 277.761 87.000,260.055 104.440,238.745 125.755 M108.250 169.372 C 101.513 176.157,96.000 182.059,96.000 182.487 C 96.000 183.466,98.475 186.055,125.356 213.202 L 147.212 235.274 121.606 260.894 C 107.523 274.985,96.000 286.786,96.000 287.118 C 96.000 287.723,117.169 309.236,120.414 311.929 C 122.146 313.366,200.000 237.503,200.000 234.379 C 200.000 233.391,157.707 190.695,132.019 165.750 C 120.908 154.960,122.858 154.663,108.250 169.372 " stroke="none" fill="#000000" fill-rule="evenodd"></path></g></svg>