<svg id="svg" version="1.1" width="400" height="400" xmlns="http://www.w3.org/2000/svg" xmlns:xlink="http://www.w3.org/1999/xlink" style="display: block;"><g id="svgg"><path id="path0" d="M244.500 0.624 C 243.400 0.840,238.900 1.720,234.500 2.580 C 218.566 5.694,201.658 11.491,194.846 16.175 C 193.386 17.179,191.473 18.000,190.596 18.000 C 189.718 18.000,189.000 18.378,189.000 18.839 C 189.000 19.301,187.987 20.141,186.748 20.705 C 178.084 24.653,159.199 41.363,149.758 53.436 C 147.149 56.771,144.562 60.044,144.008 60.708 C 143.453 61.372,143.000 62.137,143.000 62.408 C 143.000 62.678,141.626 64.935,139.947 67.423 C 134.231 75.893,128.790 88.830,123.724 106.000 L 120.625 116.500 120.259 198.304 L 119.893 280.107 201.696 279.759 C 277.386 279.436,283.948 279.274,289.500 277.588 C 292.800 276.586,297.075 275.431,299.000 275.021 C 308.004 273.107,330.295 262.806,335.708 258.059 C 336.372 257.477,337.190 257.000,337.525 257.000 C 338.353 257.000,345.417 251.686,345.833 250.750 C 346.017 250.337,346.639 250.000,347.215 250.000 C 347.792 250.000,349.749 248.425,351.565 246.500 C 353.380 244.575,355.135 243.000,355.464 243.000 C 355.793 243.000,357.736 241.146,359.781 238.880 C 361.826 236.613,364.956 233.183,366.735 231.256 C 369.628 228.122,374.351 221.631,379.197 214.127 C 402.693 177.745,406.453 126.755,388.720 85.000 C 386.501 79.775,383.531 73.700,382.119 71.500 C 380.707 69.300,378.960 66.403,378.237 65.061 C 371.412 52.397,344.466 25.777,333.500 20.866 C 332.400 20.373,330.150 19.082,328.500 17.996 C 325.578 16.073,323.677 15.112,317.500 12.441 C 315.850 11.728,312.367 10.211,309.761 9.072 C 307.154 7.932,304.515 7.000,303.895 7.000 C 303.275 7.000,300.683 6.329,298.134 5.510 C 284.590 1.153,255.371 -1.508,244.500 0.624 M319.000 147.000 L 319.000 200.000 306.000 200.000 L 293.000 200.000 293.000 147.000 L 293.000 94.000 306.000 94.000 L 319.000 94.000 319.000 147.000 M213.000 160.500 L 213.000 200.000 200.000 200.000 L 187.000 200.000 187.000 160.500 L 187.000 121.000 200.000 121.000 L 213.000 121.000 213.000 160.500 M80.000 147.000 L 80.000 161.000 93.500 161.000 L 107.000 161.000 107.000 147.000 L 107.000 133.000 93.500 133.000 L 80.000 133.000 80.000 147.000 M64.000 136.815 C 64.000 137.263,62.538 138.394,60.750 139.329 C 45.800 147.145,40.000 152.109,40.000 157.084 L 40.000 161.000 54.000 161.000 L 68.000 161.000 68.000 148.500 C 68.000 136.667,67.893 136.000,66.000 136.000 C 64.900 136.000,64.000 136.367,64.000 136.815 M266.000 173.500 L 266.000 200.000 253.000 200.000 L 240.000 200.000 240.000 173.500 L 240.000 147.000 253.000 147.000 L 266.000 147.000 266.000 173.500 M17.254 176.750 C 12.896 182.358,4.863 195.106,3.707 198.250 C 3.115 199.858,4.078 200.000,15.531 200.000 L 28.000 200.000 28.000 186.500 L 28.000 173.000 24.084 173.000 C 20.744 173.000,19.740 173.551,17.254 176.750 M40.000 186.500 L 40.000 200.000 54.000 200.000 L 68.000 200.000 68.000 186.500 L 68.000 173.000 54.000 173.000 L 40.000 173.000 40.000 186.500 M0.000 226.500 L 0.000 240.000 14.000 240.000 L 28.000 240.000 28.000 226.500 L 28.000 213.000 14.000 213.000 L 0.000 213.000 0.000 226.500 M40.000 226.500 L 40.000 240.000 54.000 240.000 L 68.000 240.000 68.000 226.500 L 68.000 213.000 54.000 213.000 L 40.000 213.000 40.000 226.500 M80.000 226.500 L 80.000 240.000 93.500 240.000 L 107.000 240.000 107.000 226.500 L 107.000 213.000 93.500 213.000 L 80.000 213.000 80.000 226.500 M0.000 266.500 L 0.000 280.000 14.000 280.000 L 28.000 280.000 28.000 266.500 L 28.000 253.000 14.000 253.000 L 0.000 253.000 0.000 266.500 M80.000 266.500 L 80.000 280.000 93.500 280.000 L 107.000 280.000 107.000 266.500 L 107.000 253.000 93.500 253.000 L 80.000 253.000 80.000 266.500 M0.000 306.500 L 0.000 320.000 14.000 320.000 L 28.000 320.000 28.000 306.500 L 28.000 293.000 14.000 293.000 L 0.000 293.000 0.000 306.500 M40.000 306.500 L 40.000 320.000 54.000 320.000 L 68.000 320.000 68.000 306.500 L 68.000 293.000 54.000 293.000 L 40.000 293.000 40.000 306.500 M80.000 306.500 L 80.000 320.000 93.500 320.000 L 107.000 320.000 107.000 306.500 L 107.000 293.000 93.500 293.000 L 80.000 293.000 80.000 306.500 M120.000 306.500 L 120.000 320.000 133.500 320.000 L 147.000 320.000 147.000 306.500 L 147.000 293.000 133.500 293.000 L 120.000 293.000 120.000 306.500 M200.000 306.500 L 200.000 320.000 213.500 320.000 L 227.000 320.000 227.000 306.500 L 227.000 293.000 213.500 293.000 L 200.000 293.000 200.000 306.500 M239.000 306.500 L 239.000 320.000 253.000 320.000 L 267.000 320.000 267.000 306.500 L 267.000 293.000 253.000 293.000 L 239.000 293.000 239.000 306.500 M40.000 346.000 L 40.000 360.000 54.000 360.000 L 68.000 360.000 68.000 346.000 L 68.000 332.000 54.000 332.000 L 40.000 332.000 40.000 346.000 M80.000 346.000 L 80.000 360.000 93.500 360.000 L 107.000 360.000 107.000 346.000 L 107.000 332.000 93.500 332.000 L 80.000 332.000 80.000 346.000 M120.000 346.000 L 120.000 360.000 133.500 360.000 L 147.000 360.000 147.000 346.000 L 147.000 332.000 133.500 332.000 L 120.000 332.000 120.000 346.000 M160.000 346.000 L 160.000 360.000 173.500 360.000 L 187.000 360.000 187.000 346.000 L 187.000 332.000 173.500 332.000 L 160.000 332.000 160.000 346.000 M200.000 346.000 L 200.000 360.000 213.500 360.000 L 227.000 360.000 227.000 346.000 L 227.000 332.000 213.500 332.000 L 200.000 332.000 200.000 346.000 M239.000 346.000 L 239.000 360.000 243.465 360.000 C 246.846 360.000,248.179 359.533,248.958 358.078 C 249.524 357.021,250.582 355.558,251.309 354.828 C 252.036 354.098,253.930 351.250,255.517 348.500 C 257.105 345.750,258.671 343.275,258.997 343.000 C 260.274 341.922,264.000 334.805,264.000 333.443 C 264.000 332.263,261.724 332.000,251.500 332.000 L 239.000 332.000 239.000 346.000 M40.038 376.250 C 40.077 380.626,44.813 385.168,54.245 389.875 C 55.760 390.631,57.000 391.644,57.000 392.125 C 57.000 392.606,57.752 393.000,58.671 393.000 C 59.590 393.000,61.053 393.622,61.921 394.382 C 62.790 395.142,64.513 396.072,65.750 396.449 L 68.000 397.135 68.000 384.567 L 68.000 372.000 54.000 372.000 L 40.000 372.000 40.038 376.250 M80.000 386.000 L 80.000 400.000 93.500 400.000 L 107.000 400.000 107.000 386.000 L 107.000 372.000 93.500 372.000 L 80.000 372.000 80.000 386.000 M160.000 386.000 L 160.000 400.000 173.500 400.000 L 187.000 400.000 187.000 386.000 L 187.000 372.000 173.500 372.000 L 160.000 372.000 160.000 386.000 M200.000 384.500 C 200.000 391.375,200.276 397.000,200.614 397.000 C 201.644 397.000,209.226 392.688,214.240 389.250 C 216.847 387.462,219.434 386.000,219.990 386.000 C 220.545 386.000,221.000 385.647,221.000 385.216 C 221.000 384.784,222.350 383.634,224.000 382.659 C 226.617 381.113,227.000 380.320,227.000 376.443 L 227.000 372.000 213.500 372.000 L 200.000 372.000 200.000 384.500 " stroke="none" fill="#000000" fill-rule="evenodd"></path></g></svg>