<svg id="svg" version="1.1" width="400" height="400" xmlns="http://www.w3.org/2000/svg" xmlns:xlink="http://www.w3.org/1999/xlink" style="display: block;"><g id="svgg"><path id="path0" d="M232.000 36.000 L 232.000 40.000 228.000 40.000 L 224.000 40.000 224.000 60.000 L 224.000 80.000 228.000 80.000 L 232.000 80.000 232.000 84.000 L 232.000 88.000 236.000 88.000 L 240.000 88.000 240.000 92.000 L 240.000 96.000 308.000 96.000 L 376.000 96.000 376.000 92.000 L 376.000 88.000 384.000 88.000 L 392.000 88.000 392.000 64.000 L 392.000 40.000 388.000 40.000 L 384.000 40.000 384.000 36.000 L 384.000 32.000 308.000 32.000 L 232.000 32.000 232.000 36.000 M80.000 124.000 L 80.000 128.000 76.000 128.000 L 72.000 128.000 72.000 132.000 L 72.000 136.000 68.000 136.000 L 64.000 136.000 64.000 152.000 L 64.000 168.000 68.000 168.000 L 72.000 168.000 72.000 176.000 L 72.000 184.000 228.000 184.000 L 384.000 184.000 384.000 180.000 L 384.000 176.000 388.000 176.000 L 392.000 176.000 392.000 152.000 L 392.000 128.000 388.000 128.000 L 384.000 128.000 384.000 124.000 L 384.000 120.000 232.000 120.000 L 80.000 120.000 80.000 124.000 M128.000 220.000 L 128.000 224.000 124.000 224.000 L 120.000 224.000 120.000 228.000 L 120.000 232.000 116.000 232.000 L 112.000 232.000 112.000 252.000 L 112.000 272.000 116.000 272.000 L 120.000 272.000 120.000 276.000 L 120.000 280.000 256.000 280.000 L 392.000 280.000 392.000 252.000 L 392.000 224.000 388.000 224.000 L 384.000 224.000 384.000 220.000 L 384.000 216.000 256.000 216.000 L 128.000 216.000 128.000 220.000 M8.000 316.000 L 8.000 320.000 4.000 320.000 L 0.000 320.000 0.000 348.000 L 0.000 376.000 60.000 376.000 L 120.000 376.000 120.000 372.000 L 120.000 368.000 124.000 368.000 L 128.000 368.000 128.000 352.000 L 128.000 336.000 124.000 336.000 L 120.000 336.000 120.000 328.000 L 120.000 320.000 116.000 320.000 L 112.000 320.000 112.000 316.000 L 112.000 312.000 60.000 312.000 L 8.000 312.000 8.000 316.000 M160.000 316.000 L 160.000 320.000 156.000 320.000 L 152.000 320.000 152.000 324.000 L 152.000 328.000 148.000 328.000 L 144.000 328.000 144.000 348.000 L 144.000 368.000 148.000 368.000 L 152.000 368.000 152.000 372.000 L 152.000 376.000 272.000 376.000 L 392.000 376.000 392.000 348.000 L 392.000 320.000 384.000 320.000 L 376.000 320.000 376.000 316.000 L 376.000 312.000 268.000 312.000 L 160.000 312.000 160.000 316.000 " stroke="none" fill="#000000" fill-rule="evenodd"></path></g></svg>