<?xml version="1.0" encoding="UTF-8" standalone="no"?>
<svg
   xmlns:svg="http://www.w3.org/2000/svg"
   xmlns="http://www.w3.org/2000/svg"
   version="1.1"
   id="圖層_1"
   x="0px"
   y="0px"
   width="300"
   height="300"
   viewBox="0 0 300 300"
   enable-background="new 0 0 263.638 107"
   xml:space="preserve"><g
     id="g49421"
     transform="matrix(7.2228225,0,0,7.2228225,-52.809633,-174.05915)"><path
       d="m 27.379,34.17 c 0,5.521 -4.476,9.997 -9.997,9.997 -5.52,0 -9.996,-4.476 -9.996,-9.997 0,-5.521 4.476,-9.997 9.996,-9.997 5.521,0.001 9.997,4.476 9.997,9.997"
       id="path48649" /><path
       d="m 48.772,34.17 c 0,5.521 -4.476,9.997 -9.997,9.997 -5.52,0 -9.996,-4.476 -9.996,-9.997 0,-5.521 4.476,-9.997 9.996,-9.997 5.521,0.001 9.997,4.476 9.997,9.997"
       id="path48651" /><path
       d="m 27.379,55.563 c 0,5.522 -4.476,9.996 -9.997,9.996 -5.52,0 -9.996,-4.474 -9.996,-9.996 0,-5.522 4.476,-9.996 9.996,-9.996 5.521,0 9.997,4.474 9.997,9.996"
       id="path48653" /><path
       d="m 48.772,55.563 c 0,5.522 -4.476,9.996 -9.997,9.996 -5.52,0 -9.996,-4.474 -9.996,-9.996 0,-5.522 4.476,-9.996 9.996,-9.996 5.521,0 9.997,4.474 9.997,9.996"
       id="path48655" /></g></svg>