<svg id="svg" xmlns="http://www.w3.org/2000/svg" xmlns:xlink="http://www.w3.org/1999/xlink" width="400" height="400" viewBox="0, 0, 400,400"><g id="svgg"><path id="path0" d="M18.333 181.310 C 10.567 184.405,6.000 191.211,6.000 199.688 L 6.000 204.497 8.904 207.173 C 12.086 210.107,13.845 211.191,16.797 212.037 L 18.742 212.595 16.621 210.179 C 5.502 197.515,18.573 179.800,33.021 187.954 L 36.821 190.098 38.679 187.883 C 40.844 185.300,40.664 184.936,35.945 182.368 C 31.275 179.826,23.262 179.345,18.333 181.310 M352.667 180.584 C 330.521 187.865,334.802 219.608,357.924 219.571 C 379.455 219.536,386.263 191.726,367.148 181.894 C 364.100 180.326,355.749 179.571,352.667 180.584 M54.833 199.513 C 45.352 221.426,45.863 219.460,49.717 219.203 L 52.767 219.000 54.570 214.667 L 56.374 210.333 66.075 210.149 L 75.776 209.966 77.614 214.649 L 79.451 219.333 82.726 219.333 C 84.527 219.333,86.000 219.204,86.000 219.046 C 86.000 218.889,82.296 210.264,77.769 199.880 L 69.539 181.000 66.269 180.819 L 63.000 180.638 54.833 199.513 M94.156 199.773 L 94.333 219.000 102.232 219.188 C 119.922 219.610,128.784 213.197,128.784 199.974 C 128.784 186.982,121.341 181.182,104.156 180.783 L 93.979 180.547 94.156 199.773 M138.667 200.000 L 138.667 219.333 141.643 219.333 L 144.620 219.333 144.810 212.500 L 145.000 205.667 149.397 205.472 L 153.794 205.277 158.710 212.305 L 163.626 219.333 167.170 219.333 C 171.346 219.333,171.478 219.857,165.058 211.000 C 161.338 205.868,160.862 204.904,161.768 204.333 C 162.351 203.967,163.766 203.064,164.914 202.328 C 170.725 198.599,171.480 189.144,166.353 184.308 C 163.161 181.299,160.108 180.667,148.756 180.667 L 138.667 180.667 138.667 200.000 M179.333 200.000 L 179.333 219.333 193.667 219.333 L 208.000 219.333 208.000 216.333 L 208.000 213.333 197.000 213.333 L 186.000 213.333 186.000 208.000 L 186.000 202.667 195.705 202.667 L 205.410 202.667 205.205 199.833 L 205.000 197.000 195.472 196.815 L 185.945 196.630 186.139 191.482 L 186.333 186.333 197.167 186.150 L 208.000 185.967 208.000 183.317 L 208.000 180.667 193.667 180.667 L 179.333 180.667 179.333 200.000 M217.333 200.037 L 217.333 219.406 220.500 219.203 L 223.667 219.000 224.000 205.333 L 224.333 191.667 230.282 200.518 C 233.554 205.386,236.440 209.136,236.696 208.851 C 236.951 208.566,239.605 204.658,242.593 200.167 C 245.582 195.675,248.320 192.000,248.680 192.000 C 249.085 192.000,249.333 197.184,249.333 205.667 L 249.333 219.333 252.333 219.333 L 255.333 219.333 255.333 200.000 L 255.333 180.667 251.967 180.667 L 248.601 180.667 242.801 189.645 C 239.610 194.583,236.725 198.541,236.388 198.441 C 236.052 198.341,233.241 194.301,230.143 189.463 L 224.509 180.667 220.921 180.667 L 217.333 180.667 217.333 200.037 M266.667 200.000 L 266.667 219.333 269.642 219.333 L 272.617 219.333 272.808 213.167 L 273.000 207.000 279.686 206.593 C 290.976 205.906,296.190 201.792,296.190 193.573 C 296.190 184.074,290.743 180.677,275.500 180.670 L 266.667 180.667 266.667 200.000 M304.667 200.000 L 304.667 219.333 318.000 219.333 L 331.333 219.333 331.333 216.351 L 331.333 213.368 321.167 213.184 L 311.000 213.000 310.821 196.833 L 310.643 180.667 307.655 180.667 L 304.667 180.667 304.667 200.000 M390.000 185.081 C 390.000 188.126,390.018 188.151,391.500 187.172 C 393.817 185.642,393.964 182.000,391.709 182.000 C 390.121 182.000,390.000 182.219,390.000 185.081 M115.235 187.950 C 128.713 194.830,123.054 212.675,107.218 213.229 L 100.667 213.458 100.667 200.118 C 100.667 190.092,100.874 186.684,101.500 186.399 C 103.195 185.628,112.813 186.714,115.235 187.950 M157.944 186.651 C 161.553 187.686,163.333 189.780,163.333 192.991 C 163.333 198.209,160.257 200.000,151.290 200.000 L 145.333 200.000 145.333 193.000 L 145.333 186.000 150.504 186.000 C 153.348 186.000,156.697 186.293,157.944 186.651 M286.290 187.435 C 292.481 190.256,290.446 199.324,283.314 200.700 C 278.993 201.534,274.389 201.456,273.467 200.533 C 272.357 199.423,272.384 187.894,273.500 186.732 C 274.517 185.671,283.504 186.166,286.290 187.435 M363.521 186.898 C 372.577 190.689,374.522 203.906,366.998 210.529 C 354.483 221.545,337.622 204.274,347.768 190.831 C 351.057 186.473,358.229 184.682,363.521 186.898 M390.859 189.563 L 388.718 191.000 388.692 205.167 L 388.667 219.333 391.667 219.333 L 394.667 219.333 394.667 203.667 C 394.667 186.585,394.763 186.942,390.859 189.563 M69.726 195.916 C 71.343 199.697,72.667 203.064,72.667 203.396 C 72.667 203.728,69.667 204.000,66.000 204.000 C 62.333 204.000,59.333 203.838,59.333 203.640 C 59.333 202.388,65.667 188.667,66.168 188.834 C 66.507 188.947,68.108 192.134,69.726 195.916 M12.143 212.670 C 15.970 218.898,30.761 219.882,37.636 214.366 C 40.529 212.045,37.310 210.888,34.020 213.066 C 29.266 216.212,20.190 215.847,13.143 212.228 C 11.337 211.301,11.309 211.313,12.143 212.670 " stroke="none" fill="#000000" fill-rule="evenodd"></path></g></svg>