<svg id="svg" version="1.1" xmlns="http://www.w3.org/2000/svg" xmlns:xlink="http://www.w3.org/1999/xlink" width="400" height="400" viewBox="0, 0, 400,400"><g id="svgg"><path id="path0" d="M162.838 50.149 C 83.065 54.967,18.856 76.155,8.363 101.122 C 5.028 109.058,5.377 171.906,8.796 179.112 C 21.032 204.897,91.440 226.376,173.047 229.221 L 200.000 230.160 200.000 200.236 C 200.000 177.315,200.457 170.323,201.953 170.357 C 203.027 170.381,237.188 178.748,277.865 188.951 L 351.825 207.500 363.803 201.503 C 378.047 194.371,387.710 186.475,391.204 179.112 C 394.623 171.906,394.972 109.058,391.637 101.122 C 377.376 67.188,271.449 43.590,162.838 50.149 M200.000 260.877 L 200.000 290.505 205.859 292.072 C 209.082 292.934,243.322 301.411,281.949 310.910 L 352.178 328.179 363.489 322.808 C 390.324 310.064,393.772 303.404,393.681 264.503 L 393.612 235.156 390.537 240.979 C 385.774 250.000,360.401 267.188,351.847 267.188 C 350.228 267.188,316.135 259.102,276.085 249.219 C 236.035 239.336,202.532 231.250,201.634 231.250 C 200.555 231.250,200.000 241.308,200.000 260.877 M6.319 264.503 C 6.240 298.138,6.835 300.561,17.607 310.458 C 42.482 333.314,119.444 350.913,197.266 351.540 C 199.776 351.561,200.000 349.090,200.000 321.338 L 200.000 291.114 175.391 290.096 C 92.044 286.652,22.747 266.139,9.463 240.979 L 6.388 235.156 6.319 264.503 " stroke="none" fill="#000000" fill-rule="evenodd"></path></g></svg>