<svg id="svg" version="1.1" width="515" height="515" xmlns="http://www.w3.org/2000/svg" xmlns:xlink="http://www.w3.org/1999/xlink" style="display: block;"><g id="svgg"><path id="path0" d="M248.000 14.689 C 116.285 24.632,13.418 143.582,22.844 275.046 C 36.589 466.730,247.650 569.236,407.250 461.740 C 420.900 452.546,420.097 454.009,414.750 448.085 C 398.675 430.274,383.913 413.822,380.574 409.997 C 378.415 407.524,374.515 403.143,371.909 400.262 L 367.170 395.024 357.410 401.159 C 274.420 453.319,164.467 423.650,119.638 337.000 C 49.918 202.237,179.992 52.558,323.747 102.127 C 330.070 104.307,335.360 105.958,335.503 105.795 C 335.646 105.633,341.724 91.550,349.008 74.500 C 356.292 57.450,363.153 41.570,364.254 39.212 C 365.355 36.853,366.086 34.779,365.878 34.602 C 364.284 33.249,342.052 25.514,331.500 22.641 C 304.712 15.348,275.775 12.592,248.000 14.689 M384.269 86.368 C 374.241 108.991,360.847 139.156,354.504 153.402 C 348.161 167.648,343.140 179.473,343.347 179.681 C 343.555 179.888,358.749 173.019,377.112 164.416 C 395.475 155.813,425.316 141.846,443.424 133.379 C 461.533 124.912,476.548 117.785,476.791 117.542 C 477.868 116.466,458.594 92.625,448.076 82.023 C 431.958 65.777,414.497 51.384,405.000 46.518 L 402.500 45.237 384.269 86.368 M245.000 130.606 C 126.281 152.133,97.328 309.888,200.654 372.234 C 241.594 396.938,299.549 396.335,336.750 370.819 C 342.128 367.130,342.348 367.949,333.250 357.799 C 328.988 353.044,317.240 339.930,307.144 328.658 L 288.788 308.164 284.644 309.695 C 252.686 321.506,214.923 294.575,215.015 260.040 C 215.110 224.505,250.671 197.921,283.665 208.720 L 289.830 210.737 293.817 201.619 C 307.003 171.459,320.000 141.167,320.000 140.595 C 320.000 133.590,267.273 126.568,245.000 130.606 M427.131 179.666 C 423.079 181.586,407.779 188.785,393.131 195.663 C 378.484 202.541,366.321 208.348,366.102 208.566 C 365.882 208.785,367.093 212.482,368.793 216.783 C 383.930 255.088,379.170 292.628,354.801 327.151 C 353.514 328.974,352.948 328.265,373.500 350.593 C 379.550 357.166,389.205 367.822,394.956 374.272 C 406.678 387.420,405.976 386.988,409.542 383.250 C 455.682 334.884,468.655 252.906,440.797 185.750 C 436.209 174.691,436.942 175.017,427.131 179.666 " stroke="none" fill="#000000" fill-rule="evenodd"></path></g></svg>