<svg id="svg" version="1.1" width="400" height="400" xmlns="http://www.w3.org/2000/svg" xmlns:xlink="http://www.w3.org/1999/xlink" style="display: block;"><g id="svgg"><path id="path0" d="M45.000 144.346 C 36.122 147.493,31.506 149.784,29.436 152.071 C 28.476 153.132,27.344 154.000,26.922 154.000 C 25.672 154.000,18.101 162.106,17.458 164.134 C 17.132 165.160,16.483 166.000,16.016 166.000 C 14.695 166.000,9.264 177.837,7.546 184.460 C 2.938 202.225,8.402 221.558,22.054 235.794 C 28.690 242.714,35.196 246.688,46.314 250.611 C 56.892 254.343,77.186 251.905,88.043 245.597 C 99.697 238.827,99.830 238.542,93.999 232.883 C 89.275 228.299,89.045 228.259,86.000 231.500 C 84.708 232.875,83.211 234.000,82.672 234.000 C 82.134 234.000,79.175 235.222,76.096 236.716 C 67.044 241.111,55.071 240.710,45.000 235.675 C 36.355 231.354,31.094 227.914,31.039 226.548 C 31.017 226.024,29.719 224.224,28.153 222.548 C 18.884 212.624,16.632 193.333,23.187 180.000 C 30.952 164.204,42.855 156.095,59.500 155.260 C 68.554 154.806,68.717 154.838,80.763 159.412 C 82.558 160.094,84.938 161.630,86.052 162.826 C 88.554 165.511,91.663 165.639,92.472 163.089 C 92.805 162.039,94.185 160.453,95.539 159.566 C 98.098 157.890,98.931 154.030,96.750 153.959 C 96.063 153.937,93.942 152.587,92.038 150.959 C 90.134 149.332,87.861 148.000,86.988 148.000 C 86.114 148.000,84.973 147.585,84.450 147.079 C 79.116 141.906,56.336 140.328,45.000 144.346 M225.804 145.357 L 221.109 148.500 221.054 200.250 L 221.000 252.000 248.548 252.000 L 276.095 252.000 275.798 245.750 L 275.500 239.500 254.750 239.230 L 234.000 238.959 234.000 190.480 C 234.000 135.578,234.695 139.407,225.804 145.357 M120.688 182.645 C 120.310 183.024,120.000 186.183,120.000 189.667 L 120.000 196.000 129.500 196.000 L 139.000 196.000 139.000 224.000 L 139.000 252.000 145.484 252.000 L 151.968 252.000 152.234 224.250 L 152.500 196.500 157.750 196.198 C 163.477 195.868,163.808 195.360,161.357 190.654 C 160.453 188.919,159.132 186.375,158.421 185.000 L 157.128 182.500 139.253 182.228 C 129.421 182.079,121.067 182.266,120.688 182.645 M161.073 183.250 C 161.113 183.938,162.008 185.850,163.062 187.500 C 164.116 189.150,165.243 191.175,165.567 192.000 C 167.922 197.992,170.473 203.000,171.171 203.000 C 171.627 203.000,172.000 203.601,172.000 204.335 C 172.000 205.069,174.250 210.049,177.000 215.402 L 182.000 225.134 182.000 238.567 L 182.000 252.000 189.000 252.000 L 196.000 252.000 196.000 238.179 L 196.000 224.358 205.394 205.429 C 218.062 179.903,217.771 182.000,208.651 182.000 L 201.168 182.000 194.907 194.688 C 189.398 205.853,188.530 207.113,187.671 205.188 C 187.134 203.985,186.313 203.000,185.847 203.000 C 185.381 203.000,185.000 202.120,185.000 201.044 C 185.000 199.968,183.702 196.887,182.116 194.196 C 180.529 191.506,178.950 188.417,178.606 187.333 C 177.312 183.257,160.849 179.423,161.073 183.250 M297.000 189.000 L 297.000 196.000 306.000 196.000 L 315.000 196.000 315.000 224.000 L 315.000 252.000 321.984 252.000 L 328.968 252.000 329.234 224.250 L 329.500 196.500 334.250 196.195 C 339.900 195.833,340.124 194.956,336.536 187.250 L 334.092 182.000 315.546 182.000 L 297.000 182.000 297.000 189.000 M338.000 183.048 C 338.000 184.219,338.332 184.909,349.915 207.801 C 358.815 225.388,358.784 225.275,358.913 241.250 L 359.000 252.000 365.928 252.000 L 372.856 252.000 373.182 237.250 C 373.458 224.769,373.815 221.948,375.504 218.914 C 377.238 215.799,380.756 208.755,382.953 204.000 C 383.334 203.175,384.569 200.700,385.696 198.500 C 394.911 180.520,394.918 182.000,385.615 182.000 C 378.211 182.000,375.000 183.791,375.000 187.921 C 375.000 188.466,373.650 191.202,372.000 194.000 C 370.350 196.798,369.000 199.968,369.000 201.044 C 369.000 202.120,368.580 203.000,368.067 203.000 C 367.554 203.000,366.842 203.924,366.483 205.053 C 365.772 207.293,363.000 206.039,363.000 203.477 C 363.000 200.898,354.935 186.521,352.259 184.330 C 349.291 181.901,338.000 180.886,338.000 183.048 M104.655 184.829 C 100.978 188.891,104.158 197.000,109.428 197.000 C 114.031 197.000,116.745 192.931,116.156 186.911 C 115.803 183.306,107.408 181.787,104.655 184.829 M281.896 184.286 C 277.370 187.732,280.411 196.978,286.076 196.993 C 289.523 197.002,293.000 193.139,293.000 189.301 C 293.000 184.272,286.040 181.129,281.896 184.286 M103.709 205.624 C 103.319 206.014,103.000 216.608,103.000 229.167 L 103.000 252.000 110.018 252.000 L 117.037 252.000 116.768 228.750 L 116.500 205.500 110.459 205.208 C 107.136 205.047,104.099 205.234,103.709 205.624 M281.750 205.689 C 280.788 205.941,279.968 206.451,279.929 206.823 C 279.890 207.195,279.808 217.400,279.747 229.500 L 279.636 251.500 286.318 251.796 L 293.000 252.091 293.000 228.546 L 293.000 205.000 288.250 205.116 C 285.637 205.180,282.712 205.438,281.750 205.689 " stroke="none" fill="#000000" fill-rule="evenodd"></path></g></svg>