<svg id="svg" xmlns="http://www.w3.org/2000/svg" xmlns:xlink="http://www.w3.org/1999/xlink" width="400" height="400" viewBox="0, 0, 400,400"><g id="svgg"><path id="path0" d="M20.877 171.910 C -15.439 190.326,7.260 244.616,46.697 233.662 C 55.010 231.353,59.594 227.181,57.108 224.186 C 55.321 222.033,54.568 222.102,49.035 224.925 C 36.611 231.263,18.851 226.152,12.913 214.529 C 0.651 190.528,25.387 165.566,49.156 177.955 C 55.165 181.087,55.417 181.101,56.866 178.394 C 61.774 169.223,35.509 164.491,20.877 171.910 M134.831 176.730 C 134.831 179.458,136.066 179.709,151.417 180.101 L 168.003 180.524 151.947 205.243 C 130.522 238.229,130.150 235.206,155.631 235.206 C 175.780 235.206,176.779 235.064,176.779 232.210 C 176.779 229.396,175.780 229.213,160.375 229.213 L 143.970 229.213 160.375 203.493 C 181.001 171.153,181.405 173.783,155.805 173.783 C 135.947 173.783,134.831 173.939,134.831 176.730 M255.056 174.687 C 253.648 175.321,253.184 182.984,253.184 205.552 L 253.184 235.572 266.318 234.945 C 276.682 234.449,280.867 233.537,286.150 230.623 C 305.437 219.983,305.751 186.629,286.651 177.492 C 280.976 174.778,259.154 172.840,255.056 174.687 M282.526 182.232 C 304.888 192.613,292.898 230.371,267.702 228.914 L 259.925 228.464 259.512 204.835 C 259.019 176.593,262.666 173.012,282.526 182.232 M344.974 192.814 C 331.937 195.332,333.553 209.518,347.646 216.280 C 359.733 222.079,356.301 231.859,342.806 230.069 C 335.508 229.101,332.113 232.057,337.950 234.297 C 358.977 242.366,369.681 219.784,349.206 210.551 C 338.183 205.581,339.794 197.071,351.580 198.009 C 359.080 198.605,361.725 195.509,355.679 193.210 C 351.778 191.727,350.788 191.691,344.974 192.814 M64.419 196.255 C 64.419 198.252,65.418 199.251,67.416 199.251 C 69.413 199.251,70.412 198.252,70.412 196.255 C 70.412 194.257,69.413 193.258,67.416 193.258 C 65.418 193.258,64.419 194.257,64.419 196.255 M74.906 196.255 C 74.906 198.752,75.905 199.251,80.899 199.251 L 86.891 199.251 86.891 217.228 L 86.891 235.206 90.637 235.206 L 94.382 235.206 94.382 217.228 C 94.382 202.247,94.757 199.251,96.629 199.251 C 99.338 199.251,99.525 197.503,97.079 195.056 C 93.716 191.693,74.906 192.710,74.906 196.255 M101.873 194.090 C 101.873 194.547,104.569 198.892,107.865 203.745 C 113.549 212.115,113.858 213.153,113.858 223.888 C 113.858 234.962,113.938 235.206,117.603 235.206 C 121.252 235.206,121.349 234.928,121.363 224.345 C 121.376 214.262,121.805 212.808,127.355 204.060 C 134.410 192.939,134.343 193.258,129.633 193.258 C 126.886 193.258,125.052 194.800,122.517 199.239 C 118.306 206.613,118.211 206.613,113.109 199.251 C 109.517 194.069,101.873 190.557,101.873 194.090 M181.273 214.232 L 181.273 235.206 193.258 235.206 C 202.913 235.206,205.243 234.769,205.243 232.959 C 205.243 231.211,203.246 230.712,196.255 230.712 L 187.266 230.712 187.266 223.221 L 187.266 215.730 195.506 215.730 C 207.004 215.730,207.327 211.599,195.880 210.940 L 188.015 210.487 187.554 204.120 L 187.094 197.753 196.169 197.753 C 203.236 197.753,205.243 197.256,205.243 195.506 C 205.243 193.695,202.913 193.258,193.258 193.258 L 181.273 193.258 181.273 214.232 M212.734 214.128 C 212.734 231.865,213.090 235.206,214.981 235.206 C 216.836 235.206,217.228 232.459,217.228 219.476 C 217.228 204.894,218.530 200.165,220.868 206.257 C 223.855 214.041,238.861 235.206,241.393 235.206 C 243.996 235.206,244.195 233.721,244.195 214.232 C 244.195 193.873,244.102 193.258,241.024 193.258 C 237.967 193.258,237.875 193.793,238.455 208.240 C 239.187 226.448,239.535 226.437,228.384 208.553 C 214.568 186.394,212.734 187.047,212.734 214.128 M307.116 214.232 L 307.116 235.206 319.101 235.206 C 334.713 235.206,336.938 231.133,321.723 230.409 L 312.360 229.963 312.360 223.221 L 312.360 216.479 320.225 216.027 C 325.739 215.709,328.090 214.949,328.090 213.483 C 328.090 212.017,325.739 211.257,320.225 210.940 L 312.360 210.487 312.360 204.494 L 312.360 198.502 320.974 198.053 C 335.050 197.318,332.830 193.258,318.352 193.258 L 307.116 193.258 307.116 214.232 M367.041 214.232 C 367.041 234.207,367.184 235.206,370.037 235.206 C 372.662 235.206,373.034 234.207,373.034 227.150 C 373.034 220.157,376.056 213.416,378.081 215.891 C 378.346 216.215,381.388 220.693,384.843 225.843 C 388.982 232.015,392.125 235.206,394.063 235.206 C 398.067 235.206,398.022 235.081,389.440 222.364 L 381.876 211.155 384.799 207.075 C 386.407 204.832,389.473 201.362,391.614 199.364 C 396.266 195.023,396.539 193.258,392.558 193.258 C 390.763 193.258,386.808 196.734,382.446 202.143 C 373.489 213.250,373.034 213.255,373.034 202.247 C 373.034 194.257,372.701 193.258,370.037 193.258 C 367.184 193.258,367.041 194.257,367.041 214.232 M64.419 220.974 C 64.419 234.207,64.630 235.206,67.416 235.206 C 70.202 235.206,70.412 234.207,70.412 220.974 C 70.412 207.740,70.202 206.742,67.416 206.742 C 64.630 206.742,64.419 207.740,64.419 220.974 " stroke="none" fill="#000000" fill-rule="evenodd"></path></g></svg>