<svg id="svg" version="1.1" width="400" height="400" xmlns="http://www.w3.org/2000/svg" xmlns:xlink="http://www.w3.org/1999/xlink" style="display: block;"><g id="svgg"><path id="path0" d="M163.000 41.000 C 163.000 42.111,163.667 43.000,164.500 43.000 C 165.333 43.000,166.000 42.111,166.000 41.000 C 166.000 39.889,165.333 39.000,164.500 39.000 C 163.667 39.000,163.000 39.889,163.000 41.000 M194.535 39.943 C 193.500 41.619,194.899 43.000,197.632 43.000 C 199.487 43.000,200.059 42.541,199.813 41.250 C 199.438 39.282,195.541 38.316,194.535 39.943 M168.750 44.080 C 167.787 44.641,167.000 46.216,167.000 47.581 C 167.000 49.072,166.301 50.279,165.250 50.604 C 161.763 51.681,160.494 52.744,160.180 54.852 C 159.938 56.481,159.161 57.000,156.966 57.000 C 152.729 57.000,152.000 59.341,152.000 72.934 L 152.000 85.000 146.039 85.000 L 140.077 85.000 138.980 89.074 C 138.097 92.353,137.616 92.926,136.515 92.013 C 133.361 89.395,126.528 91.206,126.187 94.750 C 125.993 96.763,125.327 98.000,124.437 98.000 C 123.646 98.000,123.000 98.450,123.000 99.000 C 123.000 99.550,122.100 100.000,121.000 100.000 C 119.444 100.000,119.000 100.667,119.000 103.000 C 119.000 106.393,115.167 107.310,112.429 104.571 C 111.643 103.786,111.000 101.986,111.000 100.571 C 111.000 98.076,110.810 98.000,104.563 98.000 L 98.127 98.000 97.813 94.750 L 97.500 91.500 91.500 91.500 C 85.513 91.500,85.499 91.507,85.196 94.621 C 84.949 97.166,84.303 97.910,81.696 98.654 C 78.672 99.517,78.483 99.854,78.193 104.911 C 77.889 110.207,76.378 113.000,73.816 113.000 C 73.086 113.000,71.891 114.350,71.160 116.000 C 70.430 117.650,69.195 119.000,68.416 119.000 C 67.637 119.000,67.000 119.470,67.000 120.044 C 67.000 120.618,66.213 120.955,65.250 120.794 C 63.773 120.546,63.478 121.360,63.356 126.000 C 63.277 129.025,63.165 132.063,63.106 132.750 C 63.047 133.449,61.677 134.000,60.000 134.000 L 57.000 134.000 57.000 140.500 L 57.000 147.000 53.500 147.000 L 50.000 147.000 50.000 153.500 C 50.000 159.012,50.266 160.005,51.750 160.032 C 54.323 160.079,57.000 162.438,57.000 164.660 C 57.000 165.727,57.540 167.140,58.200 167.800 C 59.648 169.248,66.000 169.411,66.000 168.000 C 66.000 167.450,66.900 167.000,68.000 167.000 C 69.333 167.000,70.000 167.667,70.000 169.000 C 70.000 170.100,70.398 171.000,70.883 171.000 C 71.369 171.000,72.002 171.900,72.290 173.000 C 72.643 174.351,73.654 175.000,75.406 175.000 L 78.000 175.000 78.000 198.481 L 78.000 221.962 75.491 222.592 C 74.111 222.938,72.214 224.521,71.276 226.111 C 70.337 227.700,69.184 229.000,68.713 229.000 C 67.327 229.000,65.000 231.733,65.000 233.361 C 65.000 235.345,61.713 236.315,57.859 235.469 C 51.346 234.039,50.000 236.043,50.000 247.169 L 50.000 257.000 53.500 257.000 C 56.410 257.000,57.000 257.361,57.000 259.140 C 57.000 261.521,59.589 263.919,62.212 263.968 C 63.710 263.996,63.850 264.799,63.330 270.364 L 62.736 276.728 66.368 277.409 L 70.000 278.091 70.000 284.077 C 70.000 287.994,70.432 290.196,71.250 290.448 C 71.938 290.660,73.737 291.104,75.250 291.436 C 77.899 292.016,78.000 292.271,78.000 298.412 C 78.000 306.140,77.752 306.000,91.500 306.000 C 103.910 306.000,104.773 305.727,105.557 301.546 L 106.169 298.285 115.328 298.407 C 124.316 298.528,124.512 298.582,125.824 301.320 C 126.560 302.854,128.700 304.843,130.581 305.740 C 133.307 307.040,134.000 307.956,134.000 310.258 C 134.000 313.094,134.092 313.142,139.250 312.987 C 146.919 312.757,147.000 312.782,147.000 315.417 C 147.000 317.134,147.757 318.086,149.617 318.706 L 152.234 319.578 152.067 331.668 C 151.885 344.823,152.658 347.000,157.508 347.000 C 159.446 347.000,159.930 347.588,160.187 350.250 L 160.500 353.500 194.500 353.500 L 228.500 353.500 228.813 350.250 C 229.043 347.864,229.620 347.000,230.982 347.000 C 235.857 347.000,236.000 346.584,236.000 332.404 L 236.000 319.023 242.250 319.261 C 248.214 319.489,248.516 319.387,248.849 317.028 C 249.223 314.372,252.000 309.746,252.000 311.777 C 252.000 314.863,262.006 313.219,262.644 310.028 C 263.033 308.085,264.380 306.383,266.539 305.109 C 268.436 303.990,269.980 302.188,270.170 300.872 C 270.376 299.439,271.380 298.376,272.852 298.031 C 274.195 297.716,275.769 296.197,276.521 294.490 L 277.838 291.500 277.919 294.633 C 278.014 298.321,279.652 299.019,286.422 298.256 L 291.000 297.740 291.000 301.263 C 291.000 305.551,291.948 306.000,301.000 306.000 C 309.368 306.000,311.000 305.431,311.000 302.515 C 311.000 299.808,312.597 298.317,316.000 297.846 C 318.322 297.525,318.521 297.058,318.796 291.310 C 319.091 285.147,319.106 285.118,322.296 284.810 L 325.500 284.500 325.793 277.310 L 326.085 270.120 329.293 269.810 L 332.500 269.500 332.500 263.500 L 332.500 257.500 335.750 257.187 L 339.000 256.873 339.000 247.143 L 339.000 237.414 335.750 236.457 C 333.220 235.712,332.388 234.835,331.994 232.500 C 331.501 229.582,331.318 229.492,325.244 229.202 L 319.000 228.905 319.000 202.022 L 319.000 175.139 321.250 174.820 C 322.749 174.607,323.614 173.695,323.841 172.088 C 324.272 169.037,326.019 167.276,329.047 166.841 C 330.614 166.616,331.612 165.652,331.990 164.000 C 332.386 162.270,333.564 161.202,335.815 160.534 L 339.067 159.567 338.784 150.034 C 338.556 142.383,338.204 140.489,337.000 140.443 C 332.842 140.284,331.939 138.938,332.609 133.892 C 333.345 128.341,332.104 126.000,328.425 126.000 C 326.266 126.000,326.074 125.543,325.798 119.756 C 325.508 113.684,325.418 113.498,322.500 113.000 C 319.621 112.509,319.488 112.258,319.201 106.766 C 318.888 100.780,316.851 98.000,312.777 98.000 C 311.409 98.000,311.000 97.186,311.000 94.464 L 311.000 90.928 301.250 91.214 L 291.500 91.500 291.203 94.527 C 290.985 96.757,290.145 97.890,288.011 98.835 C 286.419 99.540,284.530 101.440,283.814 103.058 C 282.058 107.025,278.566 107.061,277.194 103.126 C 276.604 101.434,274.939 99.698,273.143 98.903 C 270.855 97.890,270.019 96.797,269.797 94.527 C 269.503 91.530,269.440 91.500,263.510 91.479 C 258.340 91.461,257.469 91.187,257.152 89.479 C 256.505 85.990,254.881 85.000,249.806 85.000 C 244.891 85.000,243.546 84.274,241.398 80.458 C 240.792 79.381,239.329 78.356,238.148 78.180 C 236.069 77.871,236.000 77.415,236.000 63.930 L 236.000 50.000 238.500 50.000 C 241.220 50.000,241.847 47.948,239.676 46.146 C 238.185 44.909,236.000 46.427,236.000 48.700 C 236.000 49.724,231.674 50.000,215.614 50.000 L 195.228 50.000 193.567 46.500 L 191.906 43.000 181.203 43.030 C 175.316 43.047,169.713 43.519,168.750 44.080 M156.200 46.200 C 154.360 48.040,154.772 50.000,157.000 50.000 C 158.467 50.000,159.000 49.333,159.000 47.500 C 159.000 44.770,158.064 44.336,156.200 46.200 M149.000 53.500 C 148.006 54.697,148.008 55.305,149.010 56.512 C 150.555 58.373,153.000 56.759,153.000 53.878 C 153.000 51.626,150.733 51.412,149.000 53.500 M243.184 75.750 C 243.372 77.387,244.107 78.500,245.000 78.500 C 245.893 78.500,246.628 77.387,246.816 75.750 C 247.074 73.511,246.737 73.000,245.000 73.000 C 243.263 73.000,242.926 73.511,243.184 75.750 M135.000 82.000 C 135.000 83.111,135.667 84.000,136.500 84.000 C 137.333 84.000,138.000 83.111,138.000 82.000 C 138.000 80.889,137.333 80.000,136.500 80.000 C 135.667 80.000,135.000 80.889,135.000 82.000 M257.441 82.065 C 255.532 84.174,255.534 84.178,258.514 83.839 C 260.264 83.640,261.500 82.913,261.500 82.083 C 261.500 79.796,259.503 79.786,257.441 82.065 M80.446 89.087 C 80.077 89.685,80.236 90.636,80.800 91.200 C 82.062 92.462,84.000 91.396,84.000 89.441 C 84.000 87.757,81.426 87.501,80.446 89.087 M99.190 89.750 C 99.376 90.713,100.190 91.500,101.000 91.500 C 101.810 91.500,102.624 90.713,102.810 89.750 C 103.046 88.522,102.506 88.000,101.000 88.000 C 99.494 88.000,98.954 88.522,99.190 89.750 M121.446 89.087 C 121.077 89.685,121.236 90.636,121.800 91.200 C 123.062 92.462,125.000 91.396,125.000 89.441 C 125.000 87.757,122.426 87.501,121.446 89.087 M271.190 89.750 C 271.376 90.713,272.190 91.500,273.000 91.500 C 273.810 91.500,274.624 90.713,274.810 89.750 C 275.046 88.522,274.506 88.000,273.000 88.000 C 271.494 88.000,270.954 88.522,271.190 89.750 M286.190 89.750 C 286.376 90.713,287.190 91.500,288.000 91.500 C 288.810 91.500,289.624 90.713,289.810 89.750 C 290.046 88.522,289.506 88.000,288.000 88.000 C 286.494 88.000,285.954 88.522,286.190 89.750 M312.190 89.750 C 312.376 90.713,313.190 91.500,314.000 91.500 C 314.810 91.500,315.624 90.713,315.810 89.750 C 316.046 88.522,315.506 88.000,314.000 88.000 C 312.494 88.000,311.954 88.522,312.190 89.750 M73.688 93.646 C 72.155 95.179,72.972 99.152,74.750 98.810 C 75.838 98.600,76.500 97.563,76.500 96.070 C 76.500 93.664,74.980 92.354,73.688 93.646 M112.709 93.624 C 110.610 95.723,112.048 99.000,115.066 99.000 C 117.822 99.000,118.101 98.721,117.816 96.250 C 117.506 93.554,114.384 91.949,112.709 93.624 M278.000 94.500 C 276.332 96.509,278.337 99.000,281.622 99.000 C 284.460 99.000,284.718 96.959,282.171 94.655 C 279.927 92.624,279.568 92.611,278.000 94.500 M320.000 95.878 C 320.000 97.986,320.487 99.000,321.500 99.000 C 322.325 99.000,323.000 98.155,323.000 97.122 C 323.000 96.090,322.325 94.685,321.500 94.000 C 320.221 92.939,320.000 93.215,320.000 95.878 M65.535 108.943 C 64.500 110.619,65.899 112.000,68.632 112.000 C 70.487 112.000,71.059 111.541,70.813 110.250 C 70.438 108.282,66.541 107.316,65.535 108.943 M325.709 108.624 C 323.992 110.342,325.153 112.000,328.073 112.000 C 330.461 112.000,331.072 111.609,330.813 110.250 C 330.472 108.460,326.984 107.349,325.709 108.624 M60.175 116.654 C 60.380 118.437,61.174 119.611,62.325 119.829 C 63.799 120.109,64.087 119.631,63.825 117.346 C 63.620 115.563,62.826 114.389,61.675 114.171 C 60.201 113.891,59.913 114.369,60.175 116.654 M333.667 121.667 C 332.449 122.885,332.978 125.000,334.500 125.000 C 335.333 125.000,336.000 124.111,336.000 123.000 C 336.000 121.008,334.934 120.399,333.667 121.667 M52.446 130.087 C 51.573 131.499,53.501 133.427,54.913 132.554 C 56.499 131.574,56.243 129.000,54.559 129.000 C 53.766 129.000,52.816 129.489,52.446 130.087 M214.418 134.607 C 215.356 134.967,216.000 136.391,216.000 138.107 L 216.000 141.000 222.500 141.000 C 228.784 141.000,229.000 141.084,229.000 143.525 C 229.000 145.538,229.616 146.173,232.042 146.658 C 234.279 147.106,235.457 148.159,236.491 150.633 C 237.352 152.694,238.599 154.000,239.705 154.000 C 240.751 154.000,242.071 155.263,242.840 157.000 C 243.570 158.650,244.837 160.000,245.655 160.000 C 247.787 160.000,250.000 162.511,250.000 164.929 C 250.000 166.357,250.643 167.000,252.071 167.000 C 255.129 167.000,257.511 169.679,256.035 171.458 C 253.840 174.102,255.148 180.538,257.821 180.249 C 262.619 179.731,263.000 181.360,263.000 202.410 L 263.000 221.962 260.503 222.589 C 259.130 222.933,257.442 224.385,256.753 225.815 C 256.064 227.245,254.375 228.678,253.000 228.999 C 250.733 229.528,250.472 230.126,250.196 235.416 C 249.892 241.267,248.446 244.000,245.655 244.000 C 244.837 244.000,243.570 245.350,242.840 247.000 C 242.085 248.705,240.747 250.000,239.740 250.000 C 238.707 250.000,237.287 251.427,236.337 253.420 C 234.779 256.686,234.476 256.834,229.582 256.720 C 223.460 256.576,222.000 257.316,222.000 260.559 C 222.000 261.902,221.550 263.009,221.000 263.020 C 182.462 263.807,173.000 262.930,173.000 258.571 C 173.000 256.952,172.253 256.753,165.596 256.593 C 162.344 256.516,161.411 255.999,160.015 253.500 C 159.093 251.850,157.506 250.339,156.490 250.142 C 154.138 249.687,152.000 247.566,152.000 245.688 C 152.000 244.888,151.105 243.999,150.012 243.713 C 148.919 243.427,147.579 242.023,147.035 240.591 C 146.489 239.155,144.468 237.237,142.523 236.309 C 138.905 234.584,138.210 233.190,140.049 231.351 C 140.642 230.758,140.968 227.303,140.799 223.401 L 140.500 216.500 137.250 216.187 L 134.000 215.873 134.015 199.187 C 134.024 190.009,134.418 181.889,134.890 181.143 C 136.287 178.939,139.832 180.709,140.188 183.789 C 140.375 185.399,141.204 186.616,142.250 186.815 C 144.868 187.311,144.671 181.988,142.046 181.302 C 140.476 180.891,140.208 180.210,140.683 177.836 C 141.012 176.189,140.710 173.828,140.002 172.504 C 138.486 169.670,140.123 167.401,144.088 166.841 C 146.305 166.528,146.524 165.995,146.798 160.250 C 147.078 154.363,147.238 154.000,149.548 154.000 C 151.333 154.000,152.000 153.456,152.000 152.000 C 152.000 150.900,152.450 150.000,153.000 150.000 C 153.550 150.000,154.000 149.355,154.000 148.566 C 154.000 147.746,155.176 146.998,156.750 146.816 C 158.910 146.568,159.568 145.910,159.816 143.750 L 160.133 141.000 170.066 141.000 L 180.000 141.000 180.000 138.167 C 180.000 136.608,180.300 135.033,180.667 134.667 C 181.500 133.833,212.261 133.779,214.418 134.607 M340.000 137.500 C 340.000 139.333,340.533 140.000,342.000 140.000 C 344.228 140.000,344.640 138.040,342.800 136.200 C 340.936 134.336,340.000 134.770,340.000 137.500 M181.362 141.500 C 180.547 143.622,181.661 146.000,183.469 146.000 C 184.503 146.000,185.000 145.027,185.000 143.000 C 185.000 139.782,182.428 138.721,181.362 141.500 M211.362 141.500 C 210.260 144.371,211.744 146.398,213.594 144.549 C 215.249 142.894,214.870 140.000,213.000 140.000 C 212.415 140.000,211.678 140.675,211.362 141.500 M45.000 144.000 C 45.000 145.467,45.667 146.000,47.500 146.000 C 49.333 146.000,50.000 145.467,50.000 144.000 C 50.000 142.533,49.333 142.000,47.500 142.000 C 45.667 142.000,45.000 142.533,45.000 144.000 M161.000 149.500 C 161.000 150.325,161.675 151.000,162.500 151.000 C 163.325 151.000,164.000 150.325,164.000 149.500 C 164.000 148.675,163.325 148.000,162.500 148.000 C 161.675 148.000,161.000 148.675,161.000 149.500 M224.000 149.500 C 224.000 150.333,224.889 151.000,226.000 151.000 C 227.111 151.000,228.000 150.333,228.000 149.500 C 228.000 148.667,227.111 148.000,226.000 148.000 C 224.889 148.000,224.000 148.667,224.000 149.500 M153.500 156.000 C 152.754 157.207,153.728 159.000,155.130 159.000 C 156.566 159.000,159.028 156.362,158.286 155.619 C 157.313 154.646,154.183 154.895,153.500 156.000 M230.226 156.179 C 230.932 158.297,233.829 159.571,235.085 158.315 C 235.713 157.687,235.923 156.685,235.554 156.087 C 234.632 154.596,229.727 154.680,230.226 156.179 M45.000 162.378 C 45.000 164.758,47.984 166.638,49.061 164.936 C 50.646 162.431,50.079 161.000,47.500 161.000 C 46.043 161.000,45.000 161.575,45.000 162.378 M237.000 162.378 C 237.000 163.135,237.675 164.315,238.500 165.000 C 240.607 166.749,243.598 164.426,241.890 162.367 C 240.416 160.592,237.000 160.599,237.000 162.378 M340.000 163.500 C 340.000 166.230,340.936 166.664,342.800 164.800 C 344.640 162.960,344.228 161.000,342.000 161.000 C 340.533 161.000,340.000 161.667,340.000 163.500 M52.500 169.000 C 51.663 170.354,52.792 172.000,54.559 172.000 C 55.352 172.000,56.000 171.100,56.000 170.000 C 56.000 167.930,53.587 167.240,52.500 169.000 M148.000 170.000 C 148.000 171.111,148.667 172.000,149.500 172.000 C 150.333 172.000,151.000 171.111,151.000 170.000 C 151.000 168.889,150.333 168.000,149.500 168.000 C 148.667 168.000,148.000 168.889,148.000 170.000 M245.000 170.000 C 245.000 171.506,245.522 172.046,246.750 171.810 C 247.713 171.624,248.500 170.810,248.500 170.000 C 248.500 169.190,247.713 168.376,246.750 168.190 C 245.522 167.954,245.000 168.494,245.000 170.000 M333.000 170.000 C 333.000 171.111,333.667 172.000,334.500 172.000 C 335.333 172.000,336.000 171.111,336.000 170.000 C 336.000 168.889,335.333 168.000,334.500 168.000 C 333.667 168.000,333.000 168.889,333.000 170.000 M66.286 177.714 C 67.905 179.333,68.095 179.333,69.714 177.714 C 71.333 176.095,71.238 176.000,68.000 176.000 C 64.762 176.000,64.667 176.095,66.286 177.714 M325.000 177.500 C 325.000 178.325,325.845 179.000,326.878 179.000 C 327.910 179.000,329.315 178.325,330.000 177.500 C 331.061 176.221,330.785 176.000,328.122 176.000 C 326.014 176.000,325.000 176.487,325.000 177.500 M252.362 182.500 C 251.547 184.622,252.661 187.000,254.469 187.000 C 255.503 187.000,256.000 186.027,256.000 184.000 C 256.000 180.782,253.428 179.721,252.362 182.500 M140.533 211.947 C 139.653 213.370,140.775 215.000,142.632 215.000 C 143.508 215.000,144.010 214.297,143.823 213.333 C 143.434 211.324,141.437 210.484,140.533 211.947 M66.250 218.496 C 64.213 220.810,64.807 222.000,68.000 222.000 C 71.145 222.000,71.934 220.334,69.800 218.200 C 68.291 216.691,67.803 216.732,66.250 218.496 M252.000 219.500 C 252.000 221.333,252.533 222.000,254.000 222.000 C 256.228 222.000,256.640 220.040,254.800 218.200 C 252.936 216.336,252.000 216.770,252.000 219.500 M60.000 226.000 C 60.000 227.506,60.522 228.046,61.750 227.810 C 62.712 227.624,63.500 226.810,63.500 226.000 C 63.500 225.190,62.712 224.376,61.750 224.190 C 60.522 223.954,60.000 224.494,60.000 226.000 M245.000 225.878 C 245.000 228.620,247.780 230.736,248.595 228.613 C 248.936 227.726,248.955 226.325,248.638 225.500 C 247.814 223.352,245.000 223.645,245.000 225.878 M333.000 227.122 C 333.000 229.785,333.221 230.061,334.500 229.000 C 335.325 228.315,336.000 226.910,336.000 225.878 C 336.000 224.845,335.325 224.000,334.500 224.000 C 333.487 224.000,333.000 225.014,333.000 227.122 M45.187 233.750 C 45.693 236.403,50.000 236.689,50.000 234.070 C 50.000 232.513,49.362 232.000,47.427 232.000 C 45.515 232.000,44.939 232.450,45.187 233.750 M148.177 233.553 C 148.629 235.725,150.404 235.858,150.810 233.750 C 151.020 232.655,150.530 232.000,149.500 232.000 C 148.539 232.000,147.988 232.647,148.177 233.553 M340.190 233.750 C 340.376 234.713,341.190 235.500,342.000 235.500 C 342.810 235.500,343.624 234.713,343.810 233.750 C 344.046 232.522,343.506 232.000,342.000 232.000 C 340.494 232.000,339.954 232.522,340.190 233.750 M154.036 239.456 C 152.421 241.402,153.559 243.000,156.559 243.000 C 159.168 243.000,159.767 241.167,157.800 239.200 C 156.237 237.637,155.505 237.687,154.036 239.456 M238.036 239.456 C 236.421 241.402,237.559 243.000,240.559 243.000 C 243.168 243.000,243.767 241.167,241.800 239.200 C 240.237 237.637,239.505 237.687,238.036 239.456 M161.000 247.500 C 161.000 249.056,161.567 250.000,162.500 250.000 C 163.433 250.000,164.000 249.056,164.000 247.500 C 164.000 245.944,163.433 245.000,162.500 245.000 C 161.567 245.000,161.000 245.944,161.000 247.500 M231.253 246.147 C 229.696 247.704,231.448 250.000,234.192 250.000 C 235.637 250.000,236.057 249.422,235.820 247.760 C 235.456 245.209,233.043 244.357,231.253 246.147 M174.000 254.000 C 174.000 255.467,174.667 256.000,176.500 256.000 C 178.333 256.000,179.000 255.467,179.000 254.000 C 179.000 252.533,178.333 252.000,176.500 252.000 C 174.667 252.000,174.000 252.533,174.000 254.000 M217.000 254.000 C 217.000 255.467,217.667 256.000,219.500 256.000 C 222.230 256.000,222.664 255.064,220.800 253.200 C 218.960 251.360,217.000 251.772,217.000 254.000 M45.000 260.000 C 45.000 261.467,45.667 262.000,47.500 262.000 C 49.333 262.000,50.000 261.467,50.000 260.000 C 50.000 258.533,49.333 258.000,47.500 258.000 C 45.667 258.000,45.000 258.533,45.000 260.000 M340.190 259.750 C 340.376 260.712,341.190 261.500,342.000 261.500 C 342.810 261.500,343.624 260.712,343.810 259.750 C 344.046 258.522,343.506 258.000,342.000 258.000 C 340.494 258.000,339.954 258.522,340.190 259.750 M52.180 266.240 C 52.655 269.564,56.000 269.856,56.000 266.573 C 56.000 264.638,55.487 264.000,53.930 264.000 C 52.359 264.000,51.938 264.539,52.180 266.240 M333.000 273.000 C 333.000 274.111,333.667 275.000,334.500 275.000 C 335.333 275.000,336.000 274.111,336.000 273.000 C 336.000 271.889,335.333 271.000,334.500 271.000 C 333.667 271.000,333.000 271.889,333.000 273.000 M60.000 280.573 C 60.000 281.505,60.680 282.015,61.667 281.823 C 64.176 281.337,64.520 279.000,62.083 279.000 C 60.855 279.000,60.000 279.646,60.000 280.573 M326.158 286.118 C 324.242 289.187,326.269 290.972,328.933 288.561 C 330.619 287.035,330.707 286.564,329.528 285.385 C 327.749 283.606,327.724 283.612,326.158 286.118 M65.000 293.071 C 65.000 295.371,67.965 297.274,69.528 295.977 C 72.011 293.916,71.275 292.000,68.000 292.000 C 66.350 292.000,65.000 292.482,65.000 293.071 M320.000 301.000 C 320.000 302.111,320.667 303.000,321.500 303.000 C 322.333 303.000,323.000 302.111,323.000 301.000 C 323.000 299.889,322.333 299.000,321.500 299.000 C 320.667 299.000,320.000 299.889,320.000 301.000 M74.200 306.200 C 72.360 308.040,72.772 310.000,75.000 310.000 C 76.467 310.000,77.000 309.333,77.000 307.500 C 77.000 304.770,76.064 304.336,74.200 306.200 M107.000 307.378 C 107.000 309.042,107.548 310.000,108.500 310.000 C 109.325 310.000,110.000 309.380,110.000 308.622 C 110.000 307.865,109.325 306.685,108.500 306.000 C 107.232 304.947,107.000 305.160,107.000 307.378 M121.380 306.452 C 120.668 308.308,121.707 310.000,123.559 310.000 C 124.429 310.000,125.000 309.010,125.000 307.500 C 125.000 304.752,122.329 303.979,121.380 306.452 M271.000 307.500 C 271.000 309.333,271.533 310.000,273.000 310.000 C 275.228 310.000,275.640 308.040,273.800 306.200 C 271.936 304.336,271.000 304.770,271.000 307.500 M287.200 306.200 C 285.360 308.040,285.772 310.000,288.000 310.000 C 289.467 310.000,290.000 309.333,290.000 307.500 C 290.000 304.770,289.064 304.336,287.200 306.200 M312.000 307.500 C 312.000 309.333,312.533 310.000,314.000 310.000 C 316.228 310.000,316.640 308.040,314.800 306.200 C 312.936 304.336,312.000 304.770,312.000 307.500 M128.112 313.644 C 126.928 314.981,126.928 315.340,128.112 316.090 C 130.023 317.301,130.570 317.223,131.964 315.544 C 134.434 312.567,130.698 310.723,128.112 313.644 M264.000 313.878 C 264.000 314.910,264.675 316.315,265.500 317.000 C 266.779 318.061,267.000 317.785,267.000 315.122 C 267.000 313.014,266.513 312.000,265.500 312.000 C 264.675 312.000,264.000 312.845,264.000 313.878 M142.000 321.500 C 142.000 322.333,142.889 323.000,144.000 323.000 C 145.111 323.000,146.000 322.333,146.000 321.500 C 146.000 320.667,145.111 320.000,144.000 320.000 C 142.889 320.000,142.000 320.667,142.000 321.500 M250.694 320.639 C 249.761 321.573,250.888 323.000,252.559 323.000 C 253.352 323.000,254.000 322.325,254.000 321.500 C 254.000 319.994,251.889 319.444,250.694 320.639 M149.000 349.500 C 149.685 350.325,150.865 351.000,151.622 351.000 C 152.380 351.000,153.000 350.325,153.000 349.500 C 153.000 348.548,152.042 348.000,150.378 348.000 C 148.160 348.000,147.947 348.232,149.000 349.500 M236.000 348.941 C 236.000 350.807,238.226 351.203,239.810 349.618 C 241.301 348.127,241.215 348.000,238.714 348.000 C 237.221 348.000,236.000 348.423,236.000 348.941 M155.371 354.474 C 155.060 355.285,155.526 356.669,156.406 357.549 C 158.256 359.398,159.740 357.371,158.638 354.500 C 157.902 352.581,156.103 352.567,155.371 354.474 M230.000 356.222 L 230.000 359.444 232.121 357.323 C 234.310 355.135,233.974 353.000,231.441 353.000 C 230.484 353.000,230.000 354.083,230.000 356.222 " stroke="none" fill="#000000" fill-rule="evenodd"></path></g></svg>