<svg id="svg" version="1.1" width="515" height="515" xmlns="http://www.w3.org/2000/svg" xmlns:xlink="http://www.w3.org/1999/xlink" style="display: block;"><g id="svgg"><path id="path0" d="M287.000 111.000 C 287.000 111.550,285.650 112.000,284.000 112.000 C 282.350 112.000,281.000 112.450,281.000 113.000 C 281.000 113.550,280.315 114.000,279.478 114.000 C 277.498 114.000,267.000 124.498,267.000 126.478 C 267.000 127.315,266.550 128.000,266.000 128.000 C 265.450 128.000,265.000 128.900,265.000 130.000 C 265.000 131.100,264.550 132.000,264.000 132.000 C 263.450 132.000,263.000 133.800,263.000 136.000 C 263.000 138.200,262.550 140.000,262.000 140.000 C 261.450 140.000,261.000 141.800,261.000 144.000 C 261.000 146.200,260.550 148.000,260.000 148.000 C 259.450 148.000,259.000 149.302,259.000 150.893 C 259.000 152.542,258.355 154.034,257.500 154.362 C 256.559 154.723,256.000 156.252,256.000 158.469 C 256.000 160.411,255.550 162.000,255.000 162.000 C 254.450 162.000,254.000 163.800,254.000 166.000 C 254.000 168.200,253.550 170.000,253.000 170.000 C 252.450 170.000,252.000 171.800,252.000 174.000 C 252.000 176.200,251.550 178.000,251.000 178.000 C 250.450 178.000,250.000 179.350,250.000 181.000 C 250.000 182.650,249.550 184.000,249.000 184.000 C 248.450 184.000,248.000 185.800,248.000 188.000 C 248.000 190.200,247.550 192.000,247.000 192.000 C 246.450 192.000,246.000 193.800,246.000 196.000 C 246.000 198.200,245.550 200.000,245.000 200.000 C 244.450 200.000,244.000 201.800,244.000 204.000 C 244.000 206.200,243.550 208.000,243.000 208.000 C 242.450 208.000,242.000 209.350,242.000 211.000 C 242.000 212.650,241.550 214.000,241.000 214.000 C 240.450 214.000,240.000 215.800,240.000 218.000 C 240.000 220.200,239.550 222.000,239.000 222.000 C 238.450 222.000,238.000 223.800,238.000 226.000 C 238.000 228.200,237.550 230.000,237.000 230.000 C 236.450 230.000,236.000 231.800,236.000 234.000 C 236.000 236.200,235.550 238.000,235.000 238.000 C 234.450 238.000,234.000 239.350,234.000 241.000 C 234.000 242.650,233.550 244.000,233.000 244.000 C 232.450 244.000,232.000 245.773,232.000 247.941 C 232.000 250.109,231.550 252.160,231.000 252.500 C 230.450 252.840,230.000 254.891,230.000 257.059 C 230.000 259.227,229.550 261.000,229.000 261.000 C 228.450 261.000,228.000 262.350,228.000 264.000 C 228.000 265.650,227.550 267.000,227.000 267.000 C 226.450 267.000,226.000 268.800,226.000 271.000 C 226.000 273.200,225.550 275.000,225.000 275.000 C 224.450 275.000,224.000 276.800,224.000 279.000 C 224.000 281.200,223.550 283.000,223.000 283.000 C 222.450 283.000,222.000 284.800,222.000 287.000 C 222.000 289.200,221.550 291.000,221.000 291.000 C 220.450 291.000,220.000 292.350,220.000 294.000 C 220.000 295.650,219.550 297.000,219.000 297.000 C 218.450 297.000,218.000 298.800,218.000 301.000 C 218.000 303.200,217.550 305.000,217.000 305.000 C 216.450 305.000,216.000 306.800,216.000 309.000 C 216.000 311.200,215.550 313.000,215.000 313.000 C 214.450 313.000,214.000 314.800,214.000 317.000 C 214.000 319.200,213.550 321.000,213.000 321.000 C 212.450 321.000,212.000 322.350,212.000 324.000 C 212.000 325.650,211.550 327.000,211.000 327.000 C 210.450 327.000,210.000 328.800,210.000 331.000 C 210.000 333.200,209.550 335.000,209.000 335.000 C 208.450 335.000,208.000 336.800,208.000 339.000 C 208.000 341.200,207.550 343.000,207.000 343.000 C 206.450 343.000,206.000 344.800,206.000 347.000 C 206.000 349.200,205.550 351.000,205.000 351.000 C 204.450 351.000,204.000 352.350,204.000 354.000 C 204.000 355.650,203.550 357.000,203.000 357.000 C 202.450 357.000,202.000 358.800,202.000 361.000 C 202.000 363.200,201.550 365.000,201.000 365.000 C 200.450 365.000,200.000 366.800,200.000 369.000 C 200.000 371.200,199.550 373.000,199.000 373.000 C 198.450 373.000,198.000 374.800,198.000 377.000 C 198.000 379.200,197.550 381.000,197.000 381.000 C 196.450 381.000,196.000 382.350,196.000 384.000 C 196.000 385.650,195.550 387.000,195.000 387.000 C 194.450 387.000,194.000 388.800,194.000 391.000 C 194.000 393.200,193.550 395.000,193.000 395.000 C 192.450 395.000,192.000 397.250,192.000 400.000 L 192.000 405.000 219.000 405.000 C 236.333 405.000,246.000 404.642,246.000 404.000 C 246.000 403.450,247.350 403.000,249.000 403.000 C 250.650 403.000,252.000 402.550,252.000 402.000 C 252.000 401.450,252.694 401.000,253.542 401.000 C 254.390 401.000,256.050 400.100,257.230 399.000 C 258.411 397.900,259.999 397.000,260.760 397.000 C 262.528 397.000,265.000 394.547,265.000 392.792 C 265.000 392.049,265.900 390.793,267.000 390.000 C 268.100 389.207,269.000 387.758,269.000 386.779 C 269.000 385.801,269.450 385.000,270.000 385.000 C 270.550 385.000,271.000 383.650,271.000 382.000 C 271.000 380.350,271.450 379.000,272.000 379.000 C 272.550 379.000,273.000 377.200,273.000 375.000 C 273.000 372.800,273.450 371.000,274.000 371.000 C 274.550 371.000,275.000 369.200,275.000 367.000 C 275.000 364.800,275.450 363.000,276.000 363.000 C 276.550 363.000,277.000 361.650,277.000 360.000 C 277.000 358.350,277.450 357.000,278.000 357.000 C 278.550 357.000,279.000 355.200,279.000 353.000 C 279.000 350.800,279.450 349.000,280.000 349.000 C 280.550 349.000,281.000 347.200,281.000 345.000 C 281.000 342.800,281.450 341.000,282.000 341.000 C 282.550 341.000,283.000 339.650,283.000 338.000 C 283.000 336.350,283.450 335.000,284.000 335.000 C 284.550 335.000,285.000 333.200,285.000 331.000 C 285.000 328.800,285.450 327.000,286.000 327.000 C 286.550 327.000,287.000 325.200,287.000 323.000 C 287.000 320.800,287.450 319.000,288.000 319.000 C 288.550 319.000,289.000 317.200,289.000 315.000 C 289.000 312.800,289.450 311.000,290.000 311.000 C 290.550 311.000,291.000 309.650,291.000 308.000 C 291.000 306.350,291.450 305.000,292.000 305.000 C 292.550 305.000,293.000 303.200,293.000 301.000 C 293.000 298.800,293.450 297.000,294.000 297.000 C 294.550 297.000,295.000 295.200,295.000 293.000 C 295.000 290.800,295.450 289.000,296.000 289.000 C 296.550 289.000,297.000 287.650,297.000 286.000 C 297.000 284.350,297.450 283.000,298.000 283.000 C 298.550 283.000,299.000 281.200,299.000 279.000 C 299.000 276.800,299.450 275.000,300.000 275.000 C 300.550 275.000,301.000 273.200,301.000 271.000 C 301.000 268.800,301.450 267.000,302.000 267.000 C 302.550 267.000,303.000 265.227,303.000 263.059 C 303.000 260.891,303.450 258.840,304.000 258.500 C 304.550 258.160,305.000 256.559,305.000 254.941 C 305.000 253.323,305.450 252.000,306.000 252.000 C 306.550 252.000,307.000 250.200,307.000 248.000 C 307.000 245.800,307.450 244.000,308.000 244.000 C 308.550 244.000,309.000 242.200,309.000 240.000 C 309.000 237.800,309.450 236.000,310.000 236.000 C 310.550 236.000,311.000 234.650,311.000 233.000 C 311.000 231.350,311.450 230.000,312.000 230.000 C 312.550 230.000,313.000 228.200,313.000 226.000 C 313.000 223.800,313.450 222.000,314.000 222.000 C 314.550 222.000,315.000 220.200,315.000 218.000 C 315.000 215.800,315.450 214.000,316.000 214.000 C 316.550 214.000,317.000 212.200,317.000 210.000 C 317.000 207.800,317.450 206.000,318.000 206.000 C 318.550 206.000,319.000 204.650,319.000 203.000 C 319.000 201.350,319.450 200.000,320.000 200.000 C 320.550 200.000,321.000 198.200,321.000 196.000 C 321.000 193.800,321.450 192.000,322.000 192.000 C 322.550 192.000,323.000 190.393,323.000 188.429 C 323.000 182.011,323.047 182.000,351.429 182.000 C 367.810 182.000,377.000 182.359,377.000 183.000 C 377.000 183.550,378.350 184.000,380.000 184.000 C 381.650 184.000,383.000 184.450,383.000 185.000 C 383.000 185.550,383.801 186.000,384.779 186.000 C 385.758 186.000,387.207 186.900,388.000 188.000 C 388.793 189.100,390.032 190.000,390.754 190.000 C 392.577 190.000,399.000 196.595,399.000 198.467 C 399.000 199.310,399.450 200.000,400.000 200.000 C 400.550 200.000,401.000 200.900,401.000 202.000 C 401.000 203.100,401.450 204.000,402.000 204.000 C 402.550 204.000,403.000 204.900,403.000 206.000 C 403.000 207.100,403.450 208.000,404.000 208.000 C 404.611 208.000,405.000 212.667,405.000 220.000 C 405.000 227.333,404.611 232.000,404.000 232.000 C 403.450 232.000,403.000 233.350,403.000 235.000 C 403.000 236.650,402.550 238.000,402.000 238.000 C 401.450 238.000,401.000 238.801,401.000 239.779 C 401.000 240.758,400.100 242.207,399.000 243.000 C 397.900 243.793,397.000 245.038,397.000 245.766 C 397.000 247.250,392.581 252.000,391.200 252.000 C 390.711 252.000,389.495 252.900,388.500 254.000 C 387.505 255.100,386.071 256.000,385.314 256.000 C 384.557 256.000,383.678 256.675,383.362 257.500 C 382.986 258.478,381.431 259.000,378.893 259.000 C 376.752 259.000,375.000 259.450,375.000 260.000 C 375.000 260.632,368.000 261.000,356.000 261.000 C 344.000 261.000,337.000 261.368,337.000 262.000 C 337.000 262.550,336.100 263.000,335.000 263.000 C 333.900 263.000,333.000 263.450,333.000 264.000 C 333.000 264.550,332.315 265.000,331.478 265.000 C 329.498 265.000,319.000 275.498,319.000 277.478 C 319.000 278.315,318.550 279.000,318.000 279.000 C 317.450 279.000,317.000 279.900,317.000 281.000 C 317.000 282.100,316.550 283.000,316.000 283.000 C 315.450 283.000,315.000 284.350,315.000 286.000 C 315.000 287.650,314.550 289.000,314.000 289.000 C 313.450 289.000,313.000 290.800,313.000 293.000 C 313.000 295.200,312.550 297.000,312.000 297.000 C 311.450 297.000,311.000 298.800,311.000 301.000 C 311.000 303.200,310.550 305.000,310.000 305.000 C 309.450 305.000,309.000 306.800,309.000 309.000 C 309.000 311.200,308.550 313.000,308.000 313.000 C 307.450 313.000,307.000 314.350,307.000 316.000 C 307.000 317.650,306.550 319.000,306.000 319.000 C 305.450 319.000,305.000 320.800,305.000 323.000 C 305.000 325.200,304.550 327.000,304.000 327.000 C 303.450 327.000,303.000 328.350,303.000 330.000 L 303.000 333.000 340.000 333.000 C 364.000 333.000,377.000 332.649,377.000 332.000 C 377.000 331.429,380.000 331.000,384.000 331.000 C 388.000 331.000,391.000 330.571,391.000 330.000 C 391.000 329.450,392.800 329.000,395.000 329.000 C 397.200 329.000,399.000 328.550,399.000 328.000 C 399.000 327.450,400.350 327.000,402.000 327.000 C 403.650 327.000,405.000 326.550,405.000 326.000 C 405.000 325.450,405.900 325.000,407.000 325.000 C 408.100 325.000,409.000 324.550,409.000 324.000 C 409.000 323.450,410.350 323.000,412.000 323.000 C 413.650 323.000,415.000 322.550,415.000 322.000 C 415.000 321.450,415.801 321.000,416.779 321.000 C 417.758 321.000,419.207 320.100,420.000 319.000 C 420.793 317.900,422.242 317.000,423.221 317.000 C 424.199 317.000,425.000 316.550,425.000 316.000 C 425.000 315.450,425.699 315.000,426.554 315.000 C 427.409 315.000,429.547 313.652,431.304 312.005 C 433.062 310.357,435.069 309.007,435.764 309.005 C 437.324 308.999,454.000 292.457,454.000 290.915 C 454.000 290.303,455.350 288.541,457.000 287.000 C 458.650 285.459,460.000 283.478,460.000 282.599 C 460.000 281.719,460.450 281.000,461.000 281.000 C 461.550 281.000,462.000 280.199,462.000 279.221 C 462.000 278.242,462.900 276.793,464.000 276.000 C 465.100 275.207,466.000 273.758,466.000 272.779 C 466.000 271.801,466.450 271.000,467.000 271.000 C 467.550 271.000,468.000 269.650,468.000 268.000 C 468.000 266.350,468.450 265.000,469.000 265.000 C 469.550 265.000,470.000 264.127,470.000 263.059 C 470.000 261.991,470.450 260.840,471.000 260.500 C 471.550 260.160,472.000 258.559,472.000 256.941 C 472.000 255.323,472.450 254.000,473.000 254.000 C 473.550 254.000,474.000 252.200,474.000 250.000 C 474.000 247.800,474.450 246.000,475.000 246.000 C 475.550 246.000,476.000 244.200,476.000 242.000 C 476.000 239.800,476.450 238.000,477.000 238.000 C 477.571 238.000,478.000 235.000,478.000 231.000 C 478.000 227.000,478.429 224.000,479.000 224.000 C 479.556 224.000,480.000 221.333,480.000 218.000 C 480.000 214.667,479.556 212.000,479.000 212.000 C 478.429 212.000,478.000 209.000,478.000 205.000 C 478.000 201.000,477.571 198.000,477.000 198.000 C 476.450 198.000,476.000 196.200,476.000 194.000 C 476.000 191.800,475.550 190.000,475.000 190.000 C 474.450 190.000,474.000 188.650,474.000 187.000 C 474.000 185.350,473.550 184.000,473.000 184.000 C 472.450 184.000,472.000 182.650,472.000 181.000 C 472.000 179.350,471.550 178.000,471.000 178.000 C 470.450 178.000,470.000 177.100,470.000 176.000 C 470.000 174.900,469.550 174.000,469.000 174.000 C 468.450 174.000,468.000 173.100,468.000 172.000 C 468.000 170.900,467.550 170.000,467.000 170.000 C 466.450 170.000,466.000 169.100,466.000 168.000 C 466.000 166.900,465.550 166.000,465.000 166.000 C 464.450 166.000,464.000 165.199,464.000 164.221 C 464.000 163.242,463.100 161.793,462.000 161.000 C 460.900 160.207,460.000 158.938,460.000 158.180 C 460.000 157.423,458.650 155.541,457.000 154.000 C 455.350 152.459,454.000 150.696,454.000 150.083 C 454.000 148.628,439.372 134.000,437.917 134.000 C 437.304 134.000,435.541 132.650,434.000 131.000 C 432.459 129.350,430.253 128.000,429.099 128.000 C 427.944 128.000,427.000 127.550,427.000 127.000 C 427.000 126.450,426.199 126.000,425.221 126.000 C 424.242 126.000,422.793 125.100,422.000 124.000 C 421.207 122.900,419.758 122.000,418.779 122.000 C 417.801 122.000,417.000 121.550,417.000 121.000 C 417.000 120.450,416.100 120.000,415.000 120.000 C 413.900 120.000,413.000 119.550,413.000 119.000 C 413.000 118.450,411.650 118.000,410.000 118.000 C 408.350 118.000,407.000 117.550,407.000 117.000 C 407.000 116.450,405.650 116.000,404.000 116.000 C 402.350 116.000,401.000 115.550,401.000 115.000 C 401.000 114.450,399.200 114.000,397.000 114.000 C 394.800 114.000,393.000 113.550,393.000 113.000 C 393.000 112.450,390.750 112.000,388.000 112.000 C 385.250 112.000,383.000 111.550,383.000 111.000 C 383.000 110.347,366.333 110.000,335.000 110.000 C 303.667 110.000,287.000 110.347,287.000 111.000 M140.000 183.000 C 140.000 183.571,137.000 184.000,133.000 184.000 C 129.000 184.000,126.000 184.429,126.000 185.000 C 126.000 185.550,124.200 186.000,122.000 186.000 C 119.800 186.000,118.000 186.450,118.000 187.000 C 118.000 187.550,116.650 188.000,115.000 188.000 C 113.350 188.000,112.000 188.450,112.000 189.000 C 112.000 189.550,110.650 190.000,109.000 190.000 C 107.350 190.000,106.000 190.450,106.000 191.000 C 106.000 191.550,105.100 192.000,104.000 192.000 C 102.900 192.000,102.000 192.450,102.000 193.000 C 102.000 193.550,101.100 194.000,100.000 194.000 C 98.900 194.000,98.000 194.450,98.000 195.000 C 98.000 195.550,97.199 196.000,96.221 196.000 C 95.242 196.000,93.793 196.900,93.000 198.000 C 92.207 199.100,90.857 200.000,90.000 200.000 C 89.143 200.000,87.793 200.900,87.000 202.000 C 86.207 203.100,84.789 204.000,83.849 204.000 C 81.845 204.000,59.000 226.278,59.000 228.231 C 59.000 228.961,58.100 230.207,57.000 231.000 C 55.900 231.793,55.000 233.242,55.000 234.221 C 55.000 235.199,54.550 236.000,54.000 236.000 C 53.450 236.000,53.000 236.900,53.000 238.000 C 53.000 239.100,52.550 240.000,52.000 240.000 C 51.450 240.000,51.000 240.900,51.000 242.000 C 51.000 243.100,50.550 244.000,50.000 244.000 C 49.450 244.000,49.000 244.900,49.000 246.000 C 49.000 247.100,48.550 248.000,48.000 248.000 C 47.450 248.000,47.000 248.873,47.000 249.941 C 47.000 251.009,46.550 252.160,46.000 252.500 C 45.450 252.840,45.000 254.441,45.000 256.059 C 45.000 257.677,44.550 259.000,44.000 259.000 C 43.450 259.000,43.000 260.350,43.000 262.000 C 43.000 263.650,42.550 265.000,42.000 265.000 C 41.450 265.000,41.000 266.800,41.000 269.000 C 41.000 271.200,40.550 273.000,40.000 273.000 C 39.444 273.000,39.000 275.667,39.000 279.000 C 39.000 282.333,38.556 285.000,38.000 285.000 C 37.389 285.000,37.000 289.667,37.000 297.000 C 37.000 304.333,37.389 309.000,38.000 309.000 C 38.550 309.000,39.000 311.250,39.000 314.000 C 39.000 316.750,39.450 319.000,40.000 319.000 C 40.550 319.000,41.000 320.800,41.000 323.000 C 41.000 325.200,41.450 327.000,42.000 327.000 C 42.550 327.000,43.000 328.350,43.000 330.000 C 43.000 331.650,43.450 333.000,44.000 333.000 C 44.550 333.000,45.000 334.350,45.000 336.000 C 45.000 337.650,45.450 339.000,46.000 339.000 C 46.550 339.000,47.000 339.900,47.000 341.000 C 47.000 342.100,47.450 343.000,48.000 343.000 C 48.550 343.000,49.000 343.900,49.000 345.000 C 49.000 346.100,49.450 347.000,50.000 347.000 C 50.550 347.000,51.000 347.801,51.000 348.779 C 51.000 349.758,51.900 351.207,53.000 352.000 C 54.100 352.793,55.000 354.062,55.000 354.820 C 55.000 355.577,56.350 357.459,58.000 359.000 C 59.650 360.541,61.000 362.303,61.000 362.915 C 61.000 364.477,77.688 381.000,79.265 381.000 C 79.976 381.000,81.207 381.900,82.000 383.000 C 82.793 384.100,84.017 385.000,84.721 385.000 C 85.424 385.000,86.000 385.450,86.000 386.000 C 86.000 386.550,86.900 387.000,88.000 387.000 C 89.100 387.000,90.000 387.450,90.000 388.000 C 90.000 388.550,90.801 389.000,91.779 389.000 C 92.758 389.000,94.207 389.900,95.000 391.000 C 95.793 392.100,97.242 393.000,98.221 393.000 C 99.199 393.000,100.000 393.450,100.000 394.000 C 100.000 394.550,101.350 395.000,103.000 395.000 C 104.650 395.000,106.000 395.450,106.000 396.000 C 106.000 396.550,106.900 397.000,108.000 397.000 C 109.100 397.000,110.000 397.450,110.000 398.000 C 110.000 398.550,111.350 399.000,113.000 399.000 C 114.650 399.000,116.000 399.450,116.000 400.000 C 116.000 400.550,117.800 401.000,120.000 401.000 C 122.200 401.000,124.000 401.450,124.000 402.000 C 124.000 402.571,127.000 403.000,131.000 403.000 C 135.000 403.000,138.000 403.429,138.000 404.000 C 138.000 404.627,144.333 405.000,155.000 405.000 L 172.000 405.000 172.000 402.000 C 172.000 400.350,172.450 399.000,173.000 399.000 C 173.550 399.000,174.000 397.200,174.000 395.000 C 174.000 392.800,174.450 391.000,175.000 391.000 C 175.550 391.000,176.000 389.200,176.000 387.000 C 176.000 384.800,176.450 383.000,177.000 383.000 C 177.550 383.000,178.000 381.650,178.000 380.000 C 178.000 378.350,178.450 377.000,179.000 377.000 C 179.550 377.000,180.000 375.200,180.000 373.000 C 180.000 370.800,180.450 369.000,181.000 369.000 C 181.550 369.000,182.000 367.200,182.000 365.000 C 182.000 362.800,182.450 361.000,183.000 361.000 C 183.550 361.000,184.000 359.650,184.000 358.000 C 184.000 356.350,184.450 355.000,185.000 355.000 C 185.565 355.000,186.000 352.156,186.000 348.467 C 186.000 341.648,181.820 335.000,177.533 335.000 C 176.690 335.000,176.000 334.550,176.000 334.000 C 176.000 333.368,169.000 333.000,157.000 333.000 C 145.000 333.000,138.000 332.632,138.000 332.000 C 138.000 331.450,136.650 331.000,135.000 331.000 C 133.350 331.000,132.000 330.550,132.000 330.000 C 132.000 329.450,131.317 329.000,130.481 329.000 C 128.504 329.000,116.000 316.496,116.000 314.519 C 116.000 313.683,115.550 313.000,115.000 313.000 C 114.450 313.000,114.000 312.100,114.000 311.000 C 114.000 309.900,113.550 309.000,113.000 309.000 C 112.450 309.000,112.000 307.200,112.000 305.000 C 112.000 302.800,111.550 301.000,111.000 301.000 C 110.444 301.000,110.000 298.333,110.000 295.000 C 110.000 291.667,110.444 289.000,111.000 289.000 C 111.550 289.000,112.000 287.200,112.000 285.000 C 112.000 282.800,112.450 281.000,113.000 281.000 C 113.550 281.000,114.000 279.749,114.000 278.221 C 114.000 276.589,114.826 274.847,116.000 274.000 C 117.100 273.207,118.000 271.991,118.000 271.297 C 118.000 269.278,126.153 261.513,130.250 259.630 C 132.313 258.682,134.000 257.477,134.000 256.953 C 134.000 256.429,135.350 256.000,137.000 256.000 C 138.650 256.000,140.000 255.550,140.000 255.000 C 140.000 254.357,150.000 254.000,168.000 254.000 C 186.000 254.000,196.000 253.643,196.000 253.000 C 196.000 252.450,197.251 252.000,198.779 252.000 C 200.411 252.000,202.153 251.174,203.000 250.000 C 203.793 248.900,205.038 248.000,205.766 248.000 C 206.495 248.000,208.195 246.895,209.545 245.545 C 210.895 244.195,212.000 242.495,212.000 241.766 C 212.000 241.038,212.900 239.793,214.000 239.000 C 215.100 238.207,216.000 236.758,216.000 235.779 C 216.000 234.801,216.450 234.000,217.000 234.000 C 217.550 234.000,218.000 232.200,218.000 230.000 C 218.000 227.800,218.450 226.000,219.000 226.000 C 219.550 226.000,220.000 224.650,220.000 223.000 C 220.000 221.350,220.450 220.000,221.000 220.000 C 221.550 220.000,222.000 218.200,222.000 216.000 C 222.000 213.800,222.450 212.000,223.000 212.000 C 223.550 212.000,224.000 210.200,224.000 208.000 C 224.000 205.800,224.450 204.000,225.000 204.000 C 225.550 204.000,226.000 202.200,226.000 200.000 C 226.000 197.800,226.450 196.000,227.000 196.000 C 227.550 196.000,228.000 194.200,228.000 192.000 C 228.000 189.800,228.450 188.000,229.000 188.000 C 229.550 188.000,230.000 186.650,230.000 185.000 L 230.000 182.000 185.000 182.000 C 155.667 182.000,140.000 182.348,140.000 183.000 " stroke="none" fill="#000000" fill-rule="evenodd"></path></g></svg>