<svg id="svg" version="1.1" width="400" height="400" xmlns="http://www.w3.org/2000/svg" xmlns:xlink="http://www.w3.org/1999/xlink" style="display: block;"><g id="svgg"><path id="path0" d="M218.500 15.944 C 190.208 18.084,150.745 31.604,124.974 47.987 C 121.935 49.919,118.725 51.950,117.840 52.500 C 112.870 55.591,105.020 61.271,103.971 62.536 C 103.302 63.341,102.135 64.000,101.378 64.000 C 100.620 64.000,100.000 64.396,100.000 64.880 C 100.000 65.364,97.576 67.590,94.612 69.827 C 84.019 77.826,56.000 107.609,56.000 110.872 C 56.000 111.492,55.579 112.000,55.064 112.000 C 54.549 112.000,53.116 113.800,51.880 116.000 C 50.643 118.200,49.265 120.000,48.816 120.000 C 48.367 120.000,48.000 120.427,48.000 120.950 C 48.000 121.472,46.700 123.835,45.111 126.200 C 42.335 130.333,39.228 135.634,37.250 139.613 C 36.734 140.651,35.792 142.512,35.156 143.750 C 32.572 148.779,32.140 149.680,30.236 154.000 C 21.759 173.235,17.740 187.597,14.981 208.500 C 12.266 229.082,12.358 233.919,15.928 257.842 C 17.097 265.680,23.725 286.559,26.184 290.154 C 27.183 291.614,28.010 293.414,28.022 294.154 C 28.034 294.894,28.924 296.625,30.000 298.000 C 31.076 299.375,31.966 300.815,31.978 301.200 C 32.010 302.223,38.279 311.441,39.209 311.833 C 39.644 312.017,40.000 312.654,40.000 313.249 C 40.000 314.625,40.738 315.445,52.651 327.309 C 65.087 339.695,65.428 340.000,66.834 340.000 C 67.475 340.000,68.000 340.367,68.000 340.816 C 68.000 341.265,69.855 342.727,72.121 344.066 C 74.388 345.405,77.875 347.522,79.871 348.771 C 81.867 350.020,84.175 351.294,85.000 351.603 C 87.416 352.505,90.386 353.914,92.000 354.924 C 93.344 355.765,96.171 356.837,108.000 360.991 C 127.571 367.863,175.410 370.510,192.000 365.639 C 195.025 364.751,198.728 364.018,200.229 364.012 C 202.767 364.001,205.898 363.155,223.000 357.859 C 234.851 354.188,254.310 345.576,264.500 339.491 C 266.700 338.178,269.400 336.638,270.500 336.069 C 276.106 333.170,290.313 323.533,292.029 321.464 C 292.698 320.659,293.865 320.000,294.622 320.000 C 295.380 320.000,296.000 319.642,296.000 319.205 C 296.000 318.769,298.363 316.631,301.250 314.455 C 308.032 309.346,329.346 288.032,334.455 281.250 C 336.631 278.363,338.769 276.000,339.205 276.000 C 339.642 276.000,340.000 275.347,340.000 274.550 C 340.000 273.752,340.579 272.740,341.286 272.300 C 343.045 271.206,350.394 260.319,356.001 250.500 C 364.607 235.429,373.540 215.101,375.995 205.000 C 376.463 203.075,377.496 199.025,378.289 196.000 C 386.800 163.562,385.125 128.405,373.691 99.500 C 371.665 94.380,362.929 77.584,361.427 75.921 C 360.642 75.053,360.000 73.815,360.000 73.171 C 360.000 72.527,359.610 72.000,359.133 72.000 C 358.656 72.000,357.100 70.238,355.675 68.085 C 350.731 60.615,328.543 40.000,325.447 40.000 C 325.155 40.000,324.372 39.544,323.708 38.986 C 303.773 22.248,260.490 12.768,218.500 15.944 M265.000 30.434 C 270.225 31.412,277.021 33.064,280.103 34.106 C 283.184 35.148,286.266 36.000,286.952 36.000 C 288.206 36.000,291.218 37.240,300.600 41.619 C 303.404 42.929,306.217 44.000,306.850 44.000 C 307.482 44.000,308.000 44.395,308.000 44.879 C 308.000 45.362,309.388 46.332,311.085 47.035 C 312.782 47.738,314.701 48.805,315.349 49.407 C 315.997 50.008,318.771 52.049,321.513 53.942 C 324.256 55.835,328.295 59.097,330.490 61.192 C 332.684 63.286,334.822 65.000,335.240 65.000 C 335.658 65.000,336.000 65.394,336.000 65.875 C 336.000 66.356,337.917 68.750,340.259 71.195 C 345.008 76.151,355.988 92.174,356.022 94.197 C 356.034 94.914,356.924 96.625,358.000 98.000 C 359.076 99.375,359.981 101.175,360.012 102.000 C 360.043 102.825,360.937 105.300,362.000 107.500 C 363.063 109.700,363.947 112.105,363.966 112.845 C 363.985 113.584,364.851 117.184,365.892 120.845 C 372.308 143.416,370.482 180.893,361.870 203.383 C 360.841 206.069,360.000 208.870,360.000 209.607 C 360.000 210.344,359.046 213.096,357.881 215.723 C 353.868 224.769,351.701 229.505,350.662 231.500 C 346.900 238.728,345.671 240.936,343.430 244.500 C 342.047 246.700,340.656 249.287,340.341 250.250 C 340.025 251.212,339.452 252.000,339.068 252.000 C 338.683 252.000,337.357 253.800,336.120 256.000 C 334.884 258.200,333.451 260.000,332.936 260.000 C 332.421 260.000,332.000 260.485,332.000 261.079 C 332.000 263.012,313.609 284.747,307.214 290.369 C 306.507 290.991,304.032 293.334,301.714 295.575 C 295.744 301.349,282.362 312.000,281.079 312.000 C 280.485 312.000,280.000 312.421,280.000 312.936 C 280.000 313.451,278.200 314.884,276.000 316.120 C 273.800 317.357,272.000 318.683,272.000 319.068 C 272.000 319.452,271.212 320.041,270.250 320.376 C 269.288 320.712,266.475 322.304,264.000 323.914 C 261.525 325.525,256.350 328.455,252.500 330.426 C 248.650 332.398,244.825 334.407,244.000 334.892 C 243.175 335.377,240.025 336.775,237.000 337.998 C 233.975 339.222,229.925 340.899,228.000 341.724 C 226.075 342.550,222.475 343.799,220.000 344.500 C 217.525 345.201,214.150 346.254,212.500 346.840 C 186.583 356.046,146.646 357.318,119.000 349.818 C 105.877 346.258,86.188 337.317,78.428 331.393 C 75.983 329.527,73.714 328.000,73.387 328.000 C 72.608 328.000,52.000 307.392,52.000 306.613 C 52.000 306.286,50.484 304.032,48.632 301.605 C 19.791 263.821,20.997 191.011,51.267 142.525 C 58.632 130.729,65.652 120.348,66.702 119.700 C 67.416 119.260,68.000 118.248,68.000 117.450 C 68.000 116.653,68.390 116.000,68.867 116.000 C 69.344 116.000,70.884 114.263,72.289 112.139 C 78.023 103.475,111.429 72.000,114.892 72.000 C 115.501 72.000,116.000 71.587,116.000 71.082 C 116.000 70.576,117.688 69.138,119.750 67.884 C 121.813 66.631,123.725 65.357,124.000 65.053 C 124.564 64.429,126.881 62.962,132.000 59.987 C 133.925 58.868,137.300 56.829,139.500 55.455 C 141.700 54.081,144.175 52.709,145.000 52.406 C 145.825 52.102,147.287 51.437,148.250 50.927 C 154.405 47.666,167.552 42.029,176.000 39.028 C 183.898 36.223,197.175 32.916,208.000 31.059 C 214.325 29.974,220.625 28.880,222.000 28.629 C 227.853 27.560,255.939 28.738,265.000 30.434 M207.000 37.620 C 203.425 38.380,197.833 39.474,194.573 40.051 C 191.313 40.628,188.188 41.384,187.627 41.730 C 187.067 42.077,183.884 43.141,180.554 44.096 C 173.553 46.103,166.983 48.426,162.000 50.656 C 154.337 54.084,140.253 61.359,136.000 64.084 C 133.525 65.670,130.825 67.291,130.000 67.687 C 129.175 68.082,126.541 69.777,124.148 71.453 C 121.754 73.129,119.064 74.950,118.171 75.500 C 117.277 76.050,116.086 76.973,115.523 77.551 C 114.960 78.129,112.250 80.357,109.500 82.503 C 106.750 84.648,103.259 87.662,101.741 89.201 C 100.224 90.741,98.723 92.000,98.405 92.000 C 97.852 92.000,91.538 98.400,83.955 106.645 C 82.005 108.765,78.862 112.525,76.969 115.000 C 75.077 117.475,73.072 120.047,72.514 120.715 C 70.200 123.488,69.312 124.735,66.258 129.500 C 64.495 132.250,62.679 134.950,62.223 135.500 C 61.766 136.050,60.703 137.850,59.860 139.500 C 59.017 141.150,57.396 144.126,56.257 146.113 C 48.952 158.868,42.876 174.887,38.283 193.500 C 34.542 208.657,34.279 245.215,37.833 256.000 C 39.010 259.575,39.980 263.292,39.987 264.261 C 40.016 268.194,51.069 290.553,56.250 297.160 C 58.312 299.790,60.000 302.253,60.000 302.633 C 60.000 303.014,64.162 307.335,69.250 312.236 C 80.836 323.396,81.510 324.000,82.376 324.000 C 82.766 324.000,83.628 324.456,84.292 325.014 C 109.615 346.275,165.753 354.000,206.918 341.888 C 210.449 340.850,213.965 340.000,214.733 340.000 C 215.501 340.000,218.238 339.135,220.815 338.078 C 223.392 337.020,228.650 334.944,232.500 333.465 C 236.350 331.985,239.950 330.430,240.500 330.010 C 241.050 329.589,242.496 328.940,243.712 328.567 C 246.899 327.591,263.990 317.837,271.900 312.480 C 274.319 310.841,277.019 309.050,277.900 308.500 C 278.780 307.950,279.725 307.244,280.000 306.932 C 280.275 306.620,282.750 304.595,285.500 302.432 C 294.198 295.592,312.000 278.892,312.000 277.573 C 312.000 277.267,313.255 275.776,314.788 274.259 C 318.694 270.394,328.000 258.253,328.000 257.021 C 328.000 256.460,328.441 256.000,328.980 256.000 C 329.518 256.000,330.880 254.313,332.005 252.250 C 333.131 250.188,334.940 247.037,336.026 245.250 C 337.112 243.463,338.885 240.537,339.967 238.750 C 346.190 228.467,351.917 214.330,357.474 195.535 C 364.761 170.890,362.956 130.752,353.539 108.000 C 350.160 99.837,350.153 99.821,347.562 95.500 C 346.243 93.300,344.394 90.023,343.452 88.217 C 342.511 86.411,340.449 83.551,338.870 81.861 C 337.292 80.171,336.000 78.596,336.000 78.360 C 336.000 77.429,322.004 64.000,321.034 64.000 C 320.466 64.000,320.000 63.556,320.000 63.013 C 320.000 62.166,316.313 59.454,309.814 55.520 C 302.161 50.889,297.116 48.163,295.000 47.518 C 293.625 47.098,292.050 46.430,291.500 46.033 C 289.806 44.811,273.989 40.133,264.376 38.013 C 253.133 35.532,217.954 35.292,207.000 37.620 M236.507 86.351 C 239.261 87.634,242.861 90.313,244.507 92.305 C 249.822 98.737,252.000 101.794,252.000 102.825 C 252.000 103.380,252.338 103.983,252.750 104.167 C 253.474 104.489,258.922 111.466,262.000 116.013 C 264.130 119.160,270.281 127.405,270.944 128.000 C 271.250 128.275,271.950 129.230,272.500 130.122 C 273.050 131.014,275.525 134.559,278.000 138.000 C 280.475 141.441,282.950 144.947,283.500 145.790 C 284.050 146.634,285.079 148.039,285.787 148.912 C 290.349 154.544,292.000 156.916,292.000 157.845 C 292.000 158.425,292.573 159.260,293.274 159.700 C 294.526 160.486,295.789 162.182,301.231 170.384 C 306.318 178.050,303.265 201.249,296.830 203.833 C 296.374 204.017,296.000 204.614,296.000 205.160 C 296.000 206.856,291.271 210.982,267.512 230.013 C 254.869 240.141,243.844 248.984,243.012 249.666 C 242.180 250.347,235.200 255.902,227.500 262.010 C 219.800 268.117,213.050 273.691,212.500 274.395 C 211.950 275.099,211.006 275.861,210.402 276.088 C 209.798 276.314,207.548 277.935,205.402 279.689 C 194.192 288.851,190.046 292.000,189.190 292.000 C 188.670 292.000,187.712 292.642,187.061 293.426 C 183.387 297.853,167.556 300.105,159.757 297.310 C 144.885 291.980,142.101 269.928,154.447 255.247 C 156.845 252.395,165.145 244.000,165.566 244.000 C 166.475 244.000,184.000 229.524,184.000 228.773 C 184.000 228.348,184.675 228.000,185.500 228.000 C 186.325 228.000,187.000 227.550,187.000 227.000 C 187.000 226.345,167.672 226.000,131.015 226.000 L 75.031 226.000 75.600 219.750 C 76.804 206.518,85.436 179.165,91.857 168.236 L 94.640 163.500 149.820 163.242 C 188.499 163.060,205.000 162.660,205.000 161.903 C 205.000 161.309,201.512 156.099,197.250 150.324 C 192.988 144.550,189.050 139.079,188.500 138.167 C 187.950 137.255,186.713 135.312,185.750 133.850 C 180.765 126.276,187.099 107.689,198.147 97.475 C 211.091 85.507,225.636 81.289,236.507 86.351 " stroke="none" fill="#000000" fill-rule="evenodd"></path></g></svg>