<svg id="svg" xmlns="http://www.w3.org/2000/svg" xmlns:xlink="http://www.w3.org/1999/xlink" width="400" height="400" viewBox="0, 0, 400,400"><g id="svgg"><path id="path0" d="M146.225 60.039 C 145.861 60.094,144.192 60.321,142.517 60.544 C 117.225 63.901,88.153 75.667,64.835 91.982 L 60.664 94.900 58.984 97.583 C 32.763 139.446,12.681 212.915,7.914 284.420 L 7.593 289.237 8.358 290.248 C 14.969 298.988,33.015 313.317,47.676 321.468 C 68.208 332.883,101.470 342.353,120.639 342.241 L 122.517 342.230 129.639 332.697 C 133.557 327.454,136.711 323.113,136.648 323.050 C 136.585 322.987,134.810 322.288,132.704 321.497 C 108.517 312.414,87.278 298.863,69.632 281.255 C 65.411 277.043,60.764 272.040,61.457 272.454 C 61.675 272.585,63.344 273.764,65.166 275.075 C 103.257 302.495,147.830 315.763,201.854 315.763 C 255.879 315.763,300.452 302.495,338.543 275.075 C 340.364 273.764,342.033 272.585,342.252 272.454 C 342.945 272.040,338.297 277.043,334.076 281.255 C 316.430 298.863,295.192 312.414,271.005 321.497 C 268.898 322.288,267.124 322.987,267.061 323.050 C 266.998 323.113,270.152 327.454,274.069 332.697 L 281.192 342.230 283.070 342.241 C 302.238 342.353,335.501 332.883,356.033 321.468 C 370.693 313.317,388.740 298.988,395.351 290.248 L 396.115 289.237 395.794 284.420 C 391.728 223.429,377.859 165.417,356.375 119.532 C 350.355 106.674,344.267 95.970,341.987 94.233 C 329.757 84.920,310.056 74.486,293.113 68.350 C 280.998 63.962,262.925 59.868,255.675 59.868 L 254.694 59.868 252.628 64.010 C 250.256 68.765,250.170 68.366,253.775 69.267 C 277.961 75.312,298.647 84.684,315.512 97.236 C 320.817 101.184,333.510 111.743,333.510 112.207 C 333.510 112.269,329.844 110.487,325.364 108.248 C 279.795 85.468,247.932 77.548,201.854 77.548 C 155.777 77.548,123.913 85.468,78.344 108.248 C 73.864 110.487,70.199 112.274,70.199 112.218 C 70.199 112.162,71.897 110.633,73.974 108.821 C 97.361 88.399,121.466 75.896,150.728 69.009 C 151.821 68.752,152.812 68.454,152.931 68.347 C 153.049 68.239,152.217 66.288,151.080 64.010 L 149.015 59.868 147.951 59.904 C 147.366 59.923,146.589 59.985,146.225 60.039 M148.874 183.867 C 170.161 187.171,182.060 214.975,171.253 236.156 C 159.322 259.537,129.982 259.904,118.044 236.821 C 104.799 211.209,123.051 179.858,148.874 183.867 M262.416 183.695 C 286.393 185.522,298.626 220.089,282.858 241.457 C 262.499 269.046,222.839 247.197,229.013 211.793 C 231.875 195.383,246.446 182.012,259.868 183.478 C 260.232 183.518,261.379 183.616,262.416 183.695 " stroke="none" fill="#000000" fill-rule="evenodd"></path></g></svg>