<?xml version="1.0" encoding="UTF-8" standalone="no"?>
<svg
   xmlns:dc="http://purl.org/dc/elements/1.1/"
   xmlns:cc="http://creativecommons.org/ns#"
   xmlns:rdf="http://www.w3.org/1999/02/22-rdf-syntax-ns#"
   xmlns:svg="http://www.w3.org/2000/svg"
   xmlns="http://www.w3.org/2000/svg"
   style="display: block;"
   height="400"
   width="400"
   version="1.1"
   id="svg">
  <metadata
     id="metadata9">
    <rdf:RDF>
      <cc:Work
         rdf:about="">
        <dc:format>image/svg+xml</dc:format>
        <dc:type
           rdf:resource="http://purl.org/dc/dcmitype/StillImage" />
        <dc:title></dc:title>
      </cc:Work>
    </rdf:RDF>
  </metadata>
  <defs
     id="defs7" />
  <g
     id="svgg">
    <path
       style="fill:#000000;fill-rule:evenodd;stroke:none;stroke-width:2.94662833"
       d="m 180.60867,53.932299 -0.008,49.356021 H 148.9329 c -68.196774,0.003 -104.788007,36.91831 -105.147496,106.07864 -0.356542,68.5651 39.016308,101.76182 120.508266,101.59975 27.19738,-0.0531 63.46449,-3.66561 75.99356,-7.56989 4.82067,-1.50278 5.15659,-11.26201 5.15659,-150.21324 V 4.5762711 H 213.0309 180.61799 l -0.008,49.3560279 M 283.74951,39.935814 v 32.412912 h 32.41292 32.41292 V 39.935814 7.5228994 H 316.16243 283.74951 V 39.935814 m -0.0236,151.014706 c -0.0295,123.79082 -4.53192,142.20431 -40.52204,165.74787 -22.47099,14.69777 -22.98076,12.61451 6.70358,27.33587 30.38269,15.06906 31.43464,15.11031 50.90006,2.00076 40.75777,-27.44784 45.40166,-44.95082 47.0724,-177.40472 l 1.31125,-103.86867 h -32.72231 -32.71937 l -0.0236,86.18889 M 175.95594,153.69629 c 4.00447,1.53521 4.66157,9.01964 4.66157,52.98334 v 51.19473 l -7.57578,1.90057 c -35.8369,8.99606 -64.71385,-14.9453 -64.5017,-53.47247 0.21511,-39.20784 33.8774,-65.47704 67.41591,-52.60617"
       id="path0" />
  </g>
</svg>
