<svg id="svg" version="1.1" width="400" height="400" xmlns="http://www.w3.org/2000/svg" xmlns:xlink="http://www.w3.org/1999/xlink" style="display: block;"><g id="svgg"><path id="path0" d="M131.000 1.626 C 128.525 2.509,126.275 3.569,126.000 3.981 C 125.725 4.393,124.375 5.072,123.000 5.489 C 121.625 5.907,119.695 7.092,118.711 8.124 C 117.727 9.156,116.574 10.000,116.148 10.000 C 115.722 10.000,114.755 11.575,114.000 13.500 C 113.245 15.425,112.305 17.000,111.911 17.000 C 110.861 17.000,109.000 22.850,109.000 26.149 C 109.000 27.717,108.550 29.000,108.000 29.000 C 106.739 29.000,106.657 43.670,107.913 44.446 C 108.415 44.757,109.131 46.817,109.504 49.025 C 109.877 51.233,110.704 53.593,111.341 54.270 C 111.979 54.946,113.175 56.836,114.000 58.470 C 114.825 60.103,116.287 62.240,117.250 63.220 C 118.213 64.199,119.000 65.450,119.000 66.000 C 119.000 66.550,119.338 66.888,119.750 66.750 C 120.616 66.461,124.998 70.630,125.005 71.750 C 125.007 72.162,127.684 75.073,130.953 78.219 C 134.222 81.364,137.415 84.908,138.050 86.094 C 138.685 87.279,140.958 89.863,143.102 91.834 C 145.246 93.805,147.000 95.999,147.000 96.709 C 147.000 97.419,147.526 97.887,148.168 97.750 C 148.811 97.612,149.863 98.510,150.508 99.744 C 151.152 100.978,151.976 101.691,152.339 101.327 C 152.703 100.964,153.000 101.174,153.000 101.795 C 153.000 102.416,155.056 105.038,157.568 107.623 L 162.136 112.323 158.953 113.662 C 157.203 114.398,155.120 115.000,154.326 115.000 C 153.532 115.000,153.160 115.450,153.500 116.000 C 153.840 116.550,153.218 117.000,152.118 117.000 C 151.018 117.000,149.840 117.450,149.500 118.000 C 149.160 118.550,148.009 119.000,146.941 119.000 C 145.873 119.000,145.000 119.395,145.000 119.879 C 145.000 120.362,143.650 121.317,142.000 122.000 C 140.350 122.683,139.000 123.603,139.000 124.044 C 139.000 124.484,137.479 125.347,135.621 125.960 C 133.762 126.573,131.443 127.958,130.466 129.038 C 129.489 130.117,128.085 131.000,127.345 131.000 C 126.605 131.000,126.000 131.461,126.000 132.025 C 126.000 132.588,124.775 133.515,123.277 134.085 C 121.779 134.654,119.867 135.747,119.027 136.514 C 118.187 137.280,116.487 138.828,115.250 139.954 C 114.012 141.079,112.566 142.000,112.035 142.000 C 111.505 142.000,110.568 142.939,109.954 144.086 C 109.340 145.233,108.597 145.931,108.303 145.637 C 107.571 144.905,85.000 167.370,85.000 168.830 C 85.000 169.474,84.325 170.000,83.500 170.000 C 82.675 170.000,82.000 170.659,82.000 171.465 C 82.000 172.270,81.087 173.418,79.972 174.015 C 78.857 174.612,78.189 175.497,78.489 175.982 C 78.788 176.467,78.206 177.456,77.194 178.182 C 76.183 178.907,74.715 180.963,73.933 182.750 C 73.152 184.537,72.160 186.000,71.731 186.000 C 71.302 186.000,70.513 187.012,69.978 188.250 C 69.443 189.487,68.586 191.175,68.073 192.000 C 67.561 192.825,66.177 195.750,64.999 198.500 C 63.821 201.250,62.439 204.281,61.928 205.236 C 61.418 206.191,61.000 207.654,61.000 208.486 C 61.000 209.319,60.601 210.000,60.114 210.000 C 59.626 210.000,58.872 212.138,58.438 214.750 C 58.005 217.363,57.560 219.838,57.450 220.250 C 57.340 220.662,57.194 222.152,57.125 223.559 C 57.056 224.966,56.615 225.880,56.143 225.589 C 52.369 223.256,52.277 291.501,56.052 294.000 C 56.467 294.275,57.301 297.174,57.905 300.442 C 58.509 303.710,59.419 306.641,59.928 306.955 C 60.436 307.269,61.389 309.658,62.045 312.263 C 62.701 314.868,63.562 317.000,63.959 317.000 C 64.355 317.000,65.274 318.800,66.000 321.000 C 66.726 323.200,67.722 325.000,68.212 325.000 C 68.703 325.000,69.575 326.350,70.150 328.000 C 70.725 329.650,71.518 331.000,71.911 331.000 C 72.305 331.000,73.237 332.555,73.982 334.455 C 74.728 336.355,75.646 337.719,76.023 337.486 C 76.399 337.253,77.214 338.174,77.832 339.531 C 78.451 340.889,79.417 342.000,79.979 342.000 C 80.540 342.000,81.000 342.649,81.000 343.443 C 81.000 344.237,81.829 345.475,82.841 346.193 C 83.854 346.912,85.190 348.457,85.810 349.626 C 86.933 351.743,99.746 365.000,100.670 365.000 C 100.936 365.000,102.504 366.350,104.154 368.000 C 105.804 369.650,107.794 371.000,108.577 371.000 C 109.360 371.000,110.000 371.626,110.000 372.392 C 110.000 373.157,111.125 374.066,112.500 374.411 C 113.875 374.756,115.000 375.425,115.000 375.898 C 115.000 376.371,116.350 377.317,118.000 378.000 C 119.650 378.683,121.000 379.594,121.000 380.023 C 121.000 380.453,122.350 381.275,124.000 381.850 C 125.650 382.425,127.000 383.298,127.000 383.790 C 127.000 384.281,128.800 385.223,131.000 385.882 C 133.200 386.541,135.000 387.480,135.000 387.968 C 135.000 388.457,137.475 389.410,140.500 390.087 C 143.525 390.764,146.000 391.659,146.000 392.076 C 146.000 392.493,148.332 393.334,151.182 393.946 C 154.032 394.557,156.902 395.504,157.560 396.050 C 162.057 399.782,216.112 400.792,235.500 397.506 C 236.600 397.319,238.539 397.129,239.809 397.083 C 241.079 397.038,241.871 396.600,241.569 396.112 C 241.267 395.624,243.153 394.906,245.760 394.518 C 248.367 394.129,252.413 392.943,254.750 391.881 C 257.088 390.819,260.350 389.680,262.000 389.350 C 263.650 389.020,265.000 388.374,265.000 387.915 C 265.000 387.456,266.800 386.541,269.000 385.882 C 271.200 385.223,273.000 384.349,273.000 383.940 C 273.000 383.530,274.350 382.725,276.000 382.150 C 277.650 381.575,279.000 380.703,279.000 380.213 C 279.000 379.722,280.142 378.801,281.538 378.165 C 284.090 377.002,285.516 375.977,289.072 372.750 C 290.132 371.788,291.446 371.000,291.992 371.000 C 292.537 371.000,293.545 370.100,294.232 369.000 C 294.919 367.900,296.048 367.000,296.741 367.000 C 297.433 367.000,298.000 366.575,298.000 366.056 C 298.000 365.537,299.845 363.400,302.101 361.306 C 304.356 359.213,306.944 356.805,307.851 355.957 C 308.758 355.108,310.400 353.127,311.500 351.554 C 312.600 349.982,314.288 347.864,315.250 346.848 C 316.212 345.831,317.000 344.631,317.000 344.180 C 317.000 343.730,318.125 342.382,319.500 341.187 C 320.875 339.991,322.000 338.096,322.000 336.975 C 322.000 335.854,322.653 334.687,323.452 334.380 C 324.250 334.074,325.397 332.328,326.000 330.500 C 326.603 328.672,327.750 326.926,328.548 326.620 C 329.347 326.313,330.000 325.204,330.000 324.154 C 330.000 323.104,330.635 321.718,331.412 321.073 C 332.189 320.428,333.359 317.673,334.012 314.950 C 334.665 312.228,335.495 310.000,335.856 310.000 C 336.694 310.000,339.000 302.675,339.000 300.016 C 339.000 298.907,339.389 298.000,339.863 298.000 C 340.661 298.000,342.627 289.846,343.238 284.000 C 343.382 282.625,343.950 281.179,344.500 280.787 C 345.958 279.747,345.848 230.150,344.385 229.214 C 343.772 228.821,342.941 226.025,342.538 223.000 C 341.423 214.630,341.211 213.748,340.158 213.098 C 339.353 212.600,337.718 206.727,337.545 203.714 C 337.520 203.281,337.028 202.606,336.451 202.214 C 335.875 201.821,334.844 199.588,334.161 197.250 C 333.478 194.913,332.508 193.000,332.005 193.000 C 331.502 193.000,330.794 191.419,330.431 189.486 C 330.069 187.553,329.260 185.641,328.634 185.236 C 328.009 184.831,326.823 183.150,326.000 181.500 C 325.177 179.850,323.940 178.140,323.252 177.700 C 322.563 177.260,322.000 176.020,322.000 174.944 C 322.000 173.867,320.875 172.009,319.500 170.813 C 318.125 169.618,317.000 168.045,317.000 167.320 C 317.000 166.594,316.539 166.000,315.975 166.000 C 315.412 166.000,314.523 164.875,314.000 163.500 C 313.477 162.125,312.588 161.000,312.025 161.000 C 311.461 161.000,311.000 160.325,311.000 159.500 C 311.000 158.675,310.550 158.000,310.000 158.000 C 309.450 158.000,309.000 157.550,309.000 156.999 C 309.000 156.448,307.200 154.251,305.000 152.116 C 302.800 149.981,301.000 147.705,301.000 147.058 C 301.000 146.411,300.550 146.160,300.000 146.500 C 299.450 146.840,299.000 146.647,299.000 146.072 C 299.000 145.497,296.750 142.765,294.000 140.000 C 291.250 137.235,289.000 134.503,289.000 133.928 C 289.000 133.353,288.520 133.179,287.933 133.542 C 287.345 133.905,286.619 133.257,286.316 132.101 C 286.014 130.945,285.144 130.000,284.383 130.000 C 283.623 130.000,283.000 129.479,283.000 128.842 C 283.000 128.205,279.850 124.552,276.000 120.725 C 272.150 116.898,269.000 113.388,269.000 112.926 C 269.000 112.463,266.413 109.545,263.250 106.442 C 260.087 103.338,257.612 100.394,257.750 99.899 C 257.887 99.405,257.311 99.000,256.469 99.000 C 255.626 99.000,254.641 98.213,254.279 97.250 C 253.917 96.287,251.681 93.604,249.310 91.287 C 246.940 88.970,245.000 86.608,245.000 86.037 C 245.000 85.467,244.662 85.113,244.250 85.250 C 243.423 85.526,239.000 81.391,239.000 80.342 C 239.000 79.980,235.850 76.552,232.000 72.725 C 228.150 68.898,225.000 65.388,225.000 64.926 C 225.000 64.463,222.525 61.668,219.500 58.715 C 216.475 55.761,214.000 52.817,214.000 52.172 C 214.000 51.528,213.311 51.000,212.469 51.000 C 211.626 51.000,210.641 50.212,210.279 49.250 C 209.917 48.288,207.681 45.604,205.310 43.287 C 202.940 40.970,201.000 38.608,201.000 38.037 C 201.000 37.467,200.662 37.112,200.250 37.250 C 199.423 37.526,195.000 33.391,195.000 32.342 C 195.000 31.980,191.850 28.552,188.000 24.725 C 184.150 20.898,181.000 17.373,181.000 16.892 C 181.000 15.295,169.780 5.500,167.950 5.500 C 167.387 5.500,166.606 5.019,166.214 4.431 C 163.453 0.297,139.972 -1.574,131.000 1.626 M193.000 151.875 C 193.000 152.356,194.244 152.999,195.764 153.303 C 197.284 153.607,199.587 154.775,200.882 155.898 C 202.178 157.021,204.197 158.240,205.369 158.605 C 206.541 158.971,207.810 159.771,208.189 160.385 C 208.952 161.619,227.149 180.371,257.250 210.942 C 268.113 221.974,277.000 231.424,277.000 231.943 C 277.000 232.462,277.868 233.495,278.929 234.238 C 279.991 234.981,281.174 236.843,281.558 238.375 C 281.943 239.908,282.866 241.395,283.610 241.681 C 284.354 241.966,285.511 244.855,286.181 248.100 C 286.852 251.345,287.760 254.000,288.200 254.000 C 288.640 254.000,289.000 255.125,289.000 256.500 C 289.000 257.875,288.622 259.000,288.159 259.000 C 287.697 259.000,286.764 261.475,286.087 264.500 C 285.410 267.525,284.523 270.000,284.115 270.000 C 283.707 270.000,282.763 271.556,282.016 273.458 C 281.270 275.360,280.061 277.146,279.330 277.427 C 278.598 277.708,278.000 278.611,278.000 279.433 C 278.000 280.256,277.100 281.411,276.000 282.000 C 274.900 282.589,274.000 283.562,274.000 284.164 C 274.000 285.328,257.722 302.000,256.585 302.000 C 256.216 302.000,251.217 306.725,245.477 312.500 C 239.737 318.275,234.555 323.000,233.961 323.000 C 233.368 323.000,233.160 323.450,233.500 324.000 C 233.840 324.550,233.567 325.000,232.893 325.000 C 232.219 325.000,226.301 330.406,219.742 337.014 C 213.183 343.622,206.845 349.543,205.658 350.173 C 204.471 350.802,202.912 352.146,202.193 353.159 C 201.475 354.171,200.237 355.000,199.443 355.000 C 198.649 355.000,198.000 355.360,198.000 355.799 C 198.000 358.449,183.926 359.986,177.233 358.067 C 173.511 356.999,166.595 350.590,165.562 347.250 C 165.179 346.012,164.446 345.000,163.933 345.000 C 163.420 345.000,163.000 342.300,163.000 339.000 C 163.000 335.700,163.379 333.000,163.842 333.000 C 164.305 333.000,165.223 331.200,165.882 329.000 C 166.541 326.800,167.440 325.000,167.880 325.000 C 168.319 325.000,169.234 323.782,169.912 322.293 C 170.591 320.804,172.013 318.979,173.073 318.236 C 174.133 317.494,175.000 316.462,175.000 315.943 C 175.000 315.424,182.200 307.800,191.000 299.000 C 199.800 290.200,207.000 282.572,207.000 282.048 C 207.000 281.458,189.484 281.138,160.907 281.206 C 130.745 281.278,114.586 280.965,114.157 280.302 C 113.795 279.745,111.789 278.974,109.697 278.589 C 107.606 278.204,105.645 277.239,105.340 276.445 C 105.036 275.650,104.145 275.000,103.362 275.000 C 102.578 275.000,101.648 274.212,101.294 273.250 C 100.940 272.288,100.072 271.150,99.366 270.723 C 98.659 270.295,97.787 268.383,97.429 266.473 C 97.071 264.563,96.377 263.000,95.889 263.000 C 95.400 263.000,95.000 260.300,95.000 257.000 C 95.000 253.700,95.392 251.000,95.872 251.000 C 96.352 251.000,97.029 249.221,97.377 247.046 C 98.147 242.231,105.023 234.501,109.500 233.418 C 111.150 233.019,112.792 232.245,113.150 231.699 C 113.568 231.060,130.422 230.778,160.400 230.909 C 206.824 231.112,207.000 231.105,207.000 229.056 C 207.000 227.925,206.550 227.000,206.001 227.000 C 204.024 227.000,167.421 189.432,166.015 185.959 C 165.244 184.056,164.138 182.178,163.557 181.785 C 161.614 180.470,162.218 164.016,164.250 162.880 C 165.213 162.341,166.000 161.237,166.000 160.426 C 166.000 159.614,167.125 158.523,168.500 158.000 C 169.875 157.477,171.000 156.660,171.000 156.183 C 171.000 155.706,172.800 154.777,175.000 154.118 C 177.200 153.459,179.000 152.488,179.000 151.960 C 179.000 151.432,182.150 151.000,186.000 151.000 C 189.850 151.000,193.000 151.394,193.000 151.875 " stroke="none" fill="#000000" fill-rule="evenodd"></path></g></svg>