<svg id="svg" xmlns="http://www.w3.org/2000/svg" xmlns:xlink="http://www.w3.org/1999/xlink" width="400" height="400" viewBox="0, 0, 400,400"><g id="svgg"><path id="path0" d="M345.017 46.055 C 341.615 47.912,334.811 51.291,329.897 53.564 L 320.962 57.697 332.959 57.371 C 346.180 57.011,350.544 54.552,352.439 46.392 C 353.507 41.793,352.877 41.765,345.017 46.055 M44.111 50.626 C 45.756 55.345,45.194 112.333,43.467 115.881 C 42.365 118.148,42.955 118.325,50.340 117.943 L 58.419 117.526 58.419 95.079 C 58.419 79.543,58.842 73.320,59.794 74.865 C 83.465 113.306,87.625 118.163,96.907 118.193 L 103.780 118.216 103.363 87.287 L 102.947 56.357 207.230 56.357 L 311.513 56.357 315.207 52.502 C 317.238 50.382,318.900 48.217,318.900 47.691 C 318.900 47.165,266.557 46.735,202.581 46.735 C 97.258 46.735,86.430 46.939,88.044 48.884 C 89.851 51.060,91.953 87.973,90.271 87.973 C 89.826 87.973,84.238 79.992,77.854 70.237 C 62.409 46.636,62.519 46.735,51.618 46.735 L 42.755 46.735 44.111 50.626 M161.512 65.158 C 146.680 71.705,148.053 87.978,164.115 96.000 C 174.354 101.113,176.314 103.902,172.410 107.806 C 168.000 112.216,159.757 110.156,155.178 103.500 C 153.155 100.558,153.053 100.672,151.667 107.439 L 150.239 114.408 155.876 116.968 C 182.003 128.833,202.007 98.074,176.466 85.308 C 164.701 79.427,162.197 75.796,167.826 72.784 C 171.461 70.838,176.474 72.059,179.886 75.721 C 182.876 78.931,183.556 78.327,184.875 71.300 C 186.264 63.893,172.547 60.287,161.512 65.158 M205.498 65.815 C 183.176 76.066,187.256 114.537,211.141 119.018 C 217.488 120.209,222.287 118.779,226.234 114.520 C 231.093 109.277,230.640 107.140,225.035 108.860 C 218.394 110.899,210.830 107.423,208.198 101.125 C 200.683 83.139,212.878 64.563,225.324 75.036 C 227.650 76.994,229.553 78.306,229.553 77.953 C 229.553 77.600,230.499 75.047,231.656 72.280 L 233.758 67.248 228.951 65.239 C 222.417 62.509,212.149 62.761,205.498 65.815 M110.998 85.565 C 111.187 97.095,111.689 109.158,112.113 112.371 L 112.883 118.213 129.229 118.213 L 145.575 118.213 147.007 113.058 C 149.234 105.038,148.986 104.353,144.674 106.602 C 142.595 107.687,137.955 108.578,134.364 108.583 L 127.835 108.591 127.835 100.929 L 127.835 93.267 135.052 93.658 C 142.263 94.048,142.268 94.045,142.699 89.636 L 143.130 85.223 135.482 85.223 L 127.835 85.223 127.835 79.725 L 127.835 74.227 135.120 74.227 C 139.127 74.227,143.148 74.969,144.055 75.876 C 145.338 77.159,145.704 76.573,145.704 73.240 C 145.704 70.882,146.080 67.975,146.539 66.779 C 147.274 64.863,145.190 64.605,129.013 64.603 L 110.653 64.601 110.998 85.565 M244.138 66.565 C 244.770 68.215,240.171 84.539,231.648 110.888 C 229.446 117.698,229.798 118.213,236.655 118.213 C 241.824 118.213,241.925 118.115,241.945 113.058 C 241.993 101.515,255.559 100.199,259.651 111.340 L 261.923 117.526 270.654 117.940 C 278.627 118.317,279.291 118.138,278.298 115.878 C 277.699 114.516,273.446 102.424,268.845 89.007 L 260.481 64.611 251.933 64.608 C 245.095 64.605,243.536 64.997,244.138 66.565 M280.537 70.447 C 281.159 73.660,281.694 85.722,281.727 97.251 L 281.787 118.213 290.997 118.213 C 298.160 118.213,299.840 117.847,298.557 116.564 C 297.553 115.560,296.907 110.676,296.907 104.091 L 296.907 93.267 304.124 93.658 C 311.335 94.048,311.341 94.045,311.771 89.636 L 312.202 85.223 304.554 85.223 L 296.907 85.223 296.907 79.565 L 296.907 73.907 305.842 74.475 C 314.321 75.015,314.777 74.889,314.777 71.999 C 314.777 70.324,315.152 67.975,315.611 66.779 C 316.346 64.863,314.248 64.605,297.926 64.605 L 279.407 64.605 280.537 70.447 M318.852 67.264 C 319.653 68.759,320.283 79.131,320.294 90.975 C 320.320 120.636,318.733 118.213,338.133 118.213 L 354.296 118.213 355.122 114.433 C 355.576 112.354,356.360 109.200,356.864 107.423 C 357.778 104.202,357.770 104.199,353.389 106.465 C 350.634 107.890,346.592 108.581,342.540 108.320 L 336.082 107.904 336.082 101.031 L 336.082 94.158 342.955 94.158 C 349.962 94.158,351.579 92.963,351.793 87.629 C 351.875 85.594,350.618 85.223,343.643 85.223 L 335.395 85.223 335.395 79.725 L 335.395 74.227 342.874 74.227 C 346.988 74.227,350.742 74.855,351.217 75.624 C 352.870 78.299,354.639 75.403,354.639 70.022 L 354.639 64.605 336.034 64.605 C 318.066 64.605,317.478 64.696,318.852 67.264 M252.703 87.788 C 255.004 95.468,254.764 96.220,250.012 96.220 C 246.224 96.220,245.830 95.861,246.608 93.127 C 247.093 91.426,247.861 88.333,248.315 86.254 C 249.454 81.042,250.826 81.522,252.703 87.788 M214.777 139.943 C 201.769 142.104,198.300 144.608,206.143 146.177 C 215.873 148.123,215.810 147.806,215.787 194.845 C 215.765 242.153,215.591 243.168,207.182 245.260 C 197.305 247.716,202.252 248.797,223.368 248.797 C 236.655 248.797,244.674 248.280,244.674 247.423 C 244.674 246.667,243.196 246.048,241.389 246.048 C 239.583 246.048,236.645 244.866,234.860 243.422 L 231.615 240.795 230.928 189.583 C 230.492 157.092,229.738 138.273,228.866 138.101 C 228.110 137.952,221.770 138.781,214.777 139.943 M-0.000 144.799 C -0.000 146.406,1.194 147.079,4.047 147.079 C 6.343 147.079,9.763 148.514,11.951 150.395 L 15.808 153.711 16.201 202.629 C 16.640 257.085,16.140 254.686,25.807 248.791 C 32.669 244.608,32.990 242.332,32.990 197.758 C 32.990 148.549,32.218 151.203,46.534 151.203 C 76.998 151.203,89.347 164.970,89.347 198.931 C 89.347 230.338,82.887 238.467,47.423 251.685 C 24.181 260.348,13.623 275.258,13.423 299.699 C 13.031 347.604,44.061 366.267,103.436 353.837 L 107.216 353.046 107.216 324.289 L 107.216 295.533 90.034 295.533 C 80.584 295.533,72.852 296.085,72.852 296.760 C 72.852 298.338,76.309 299.656,80.448 299.656 C 89.304 299.656,91.315 304.366,91.886 326.441 C 92.489 349.756,92.759 349.184,80.681 350.153 C 54.737 352.236,36.810 336.882,32.955 309.278 C 28.729 279.015,42.107 257.453,69.109 251.012 C 93.929 245.091,107.288 228.352,108.316 201.886 C 109.542 170.343,98.381 153.339,71.863 146.345 C 59.171 142.998,-0.000 141.725,-0.000 144.799 M150.234 162.727 C 131.445 167.454,121.122 185.056,122.620 209.816 C 125.999 265.681,198.305 262.879,198.567 206.873 C 198.719 174.479,178.161 155.701,150.234 162.727 M275.601 162.682 C 254.969 168.006,246.229 181.972,247.778 207.142 C 249.315 232.131,260.640 245.142,284.157 248.936 C 295.228 250.722,295.881 251.636,292.263 260.294 C 289.695 266.440,284.199 270.466,276.879 271.564 C 267.441 272.979,268.219 277.371,278.007 277.935 L 285.223 278.351 285.911 311.340 C 286.793 353.716,287.320 354.639,310.609 354.639 C 321.212 354.639,321.649 354.514,321.649 351.479 C 321.649 348.689,321.097 348.383,316.936 348.869 C 301.248 350.700,299.656 346.985,299.656 308.526 L 299.656 277.663 309.966 277.663 C 319.359 277.663,320.275 277.419,320.275 274.914 C 320.275 272.409,319.359 272.165,309.966 272.165 L 299.656 272.165 299.656 261.261 C 299.656 249.421,299.204 250.062,308.935 248.103 C 318.084 246.262,314.732 242.179,304.124 242.244 C 275.201 242.420,254.562 210.715,265.236 182.506 C 271.989 164.660,293.129 162.039,298.043 178.438 C 300.873 187.885,310.349 190.337,314.601 182.723 C 322.052 169.382,297.845 156.943,275.601 162.682 M353.737 162.191 C 316.213 170.041,315.723 236.572,353.110 247.471 C 368.431 251.937,392.027 249.574,392.896 243.487 C 393.294 240.697,392.946 240.425,390.147 241.337 C 367.761 248.631,345.014 231.060,342.617 204.623 L 341.886 196.564 368.194 196.564 L 394.502 196.564 394.472 190.034 C 394.381 170.364,375.702 157.597,353.737 162.191 M169.087 169.767 C 186.323 178.680,187.018 230.019,170.048 240.680 C 150.358 253.050,133.486 224.902,140.137 190.779 C 143.793 172.022,156.131 163.067,169.087 169.767 M371.380 171.315 C 374.873 174.427,378.007 181.470,378.007 186.210 L 378.007 189.691 359.958 189.691 L 341.908 189.691 342.671 184.991 C 344.987 170.721,361.748 162.736,371.380 171.315 M116.838 271.478 C 116.838 272.770,118.144 273.540,120.337 273.540 C 129.493 273.540,130.581 277.281,130.614 308.872 C 130.641 334.084,130.956 338.143,133.284 343.271 C 140.393 358.931,163.055 358.938,174.568 343.282 L 179.381 336.737 179.788 345.688 L 180.194 354.639 187.004 354.639 L 193.814 354.639 193.814 312.715 L 193.814 270.790 187.049 270.790 L 180.283 270.790 179.820 296.564 C 179.235 329.169,174.037 342.339,160.402 345.761 C 147.537 348.990,145.097 342.363,144.585 302.814 L 144.153 269.416 130.496 269.416 C 119.272 269.416,116.838 269.783,116.838 271.478 M227.962 272.130 C 216.913 275.468,211.657 282.002,211.733 292.308 C 211.813 303.370,214.542 306.370,233.375 316.112 C 248.255 323.809,252.921 328.171,252.921 334.387 C 252.921 351.625,225.446 354.344,217.075 337.934 C 212.605 329.173,209.787 330.830,210.660 341.708 C 211.619 353.645,211.726 353.713,230.578 354.329 C 254.234 355.101,265.989 348.528,267.673 333.584 C 269.123 320.726,263.336 314.010,241.344 303.033 C 226.135 295.441,221.576 287.261,228.780 280.493 C 236.452 273.286,251.066 276.337,256.357 286.251 C 260.806 294.586,263.318 293.121,262.771 282.510 L 262.311 273.605 257.272 272.205 C 251.402 270.575,233.265 270.528,227.962 272.130 M345.720 272.991 C 321.822 281.737,315.110 324.470,334.435 344.841 C 352.319 363.695,387.334 354.786,394.748 329.495 C 405.599 292.481,378.331 261.055,345.720 272.991 M371.263 281.223 C 385.545 294.906,382.973 339.738,367.485 347.088 C 350.427 355.182,339.214 340.659,339.849 311.294 C 340.495 281.380,355.968 266.569,371.263 281.223 " stroke="none" fill="#000000" fill-rule="evenodd"></path></g></svg>