<svg id="svg" version="1.1" width="400" height="400" xmlns="http://www.w3.org/2000/svg" xmlns:xlink="http://www.w3.org/1999/xlink" style="display: block;"><g id="svgg"><path id="path0" d="M133.725 0.609 C 133.326 1.007,133.000 2.121,133.000 3.083 C 133.000 4.046,132.576 4.983,132.059 5.167 C 131.154 5.487,130.727 7.087,129.368 15.250 C 129.025 17.313,128.440 19.000,128.067 19.000 C 127.695 19.000,126.823 22.375,126.130 26.500 C 125.437 30.625,124.511 34.000,124.072 34.000 C 123.633 34.000,122.730 37.375,122.065 41.500 C 121.399 45.625,120.491 49.000,120.046 49.000 C 119.602 49.000,118.653 52.600,117.939 57.000 C 117.224 61.400,116.333 65.000,115.958 65.000 C 115.373 65.000,113.000 74.760,113.000 77.167 C 113.000 77.625,160.025 78.000,217.500 78.000 L 322.000 78.000 322.000 180.378 C 322.000 275.335,322.123 282.855,323.692 284.128 C 324.623 284.882,325.104 285.032,324.763 284.460 C 324.374 283.809,327.201 282.938,332.308 282.134 C 336.800 281.427,340.713 280.465,341.003 279.995 C 341.294 279.525,344.674 278.603,348.516 277.947 C 352.357 277.291,355.950 276.424,356.500 276.020 C 357.050 275.617,360.425 274.730,364.000 274.049 C 367.575 273.369,370.950 272.477,371.500 272.067 C 372.050 271.657,375.875 270.727,380.000 270.000 C 384.125 269.273,387.961 268.329,388.525 267.903 C 389.089 267.477,391.901 266.817,394.775 266.435 C 399.983 265.745,400.000 265.731,400.010 262.121 C 400.026 256.410,396.957 230.714,395.995 228.500 C 395.517 227.400,394.606 221.100,393.970 214.500 C 393.334 207.900,392.459 202.050,392.024 201.500 C 391.589 200.950,390.648 194.313,389.932 186.750 C 389.217 179.188,388.321 173.000,387.941 173.000 C 387.561 173.000,386.676 167.037,385.976 159.750 C 385.275 152.462,384.371 146.050,383.966 145.500 C 383.562 144.950,382.658 138.875,381.958 132.000 C 381.258 125.125,380.394 119.275,380.037 119.000 C 379.681 118.725,378.810 113.105,378.102 106.511 C 377.393 99.916,376.473 93.841,376.055 93.011 C 375.638 92.180,374.724 85.537,374.024 78.250 C 373.323 70.962,372.446 65.000,372.074 65.000 C 371.701 65.000,370.831 59.295,370.139 52.323 C 368.689 37.697,368.684 37.663,367.935 37.000 C 367.625 36.725,366.821 31.116,366.149 24.536 C 365.476 17.956,364.584 12.331,364.165 12.036 C 363.747 11.741,363.337 10.375,363.256 9.000 C 362.948 3.812,361.868 -0.000,360.705 -0.002 C 358.033 -0.007,341.466 3.322,341.000 3.957 C 340.725 4.332,337.238 5.211,333.250 5.910 C 329.262 6.610,326.000 7.540,326.000 7.977 C 326.000 8.415,323.863 9.078,321.250 9.451 C 312.221 10.740,310.549 11.111,310.026 11.945 C 309.737 12.405,306.012 13.343,301.750 14.028 C 297.488 14.714,294.000 15.608,294.000 16.015 C 294.000 16.422,290.400 17.316,286.000 18.000 C 281.600 18.684,278.000 19.579,278.000 19.989 C 278.000 20.398,274.625 21.332,270.500 22.065 C 266.375 22.798,263.000 23.695,263.000 24.058 C 263.000 24.420,259.512 25.305,255.250 26.023 C 250.988 26.741,247.217 27.756,246.871 28.278 C 245.989 29.608,236.445 29.612,234.831 28.284 C 234.099 27.681,230.688 26.637,227.250 25.964 C 223.813 25.291,221.000 24.406,221.000 23.999 C 221.000 23.591,218.846 22.972,216.214 22.623 C 213.581 22.274,210.357 21.238,209.048 20.321 C 207.739 19.404,206.994 19.182,207.393 19.827 C 207.792 20.472,207.641 21.000,207.059 21.000 C 206.477 21.000,206.000 20.601,206.000 20.113 C 206.000 19.626,203.075 18.675,199.500 18.000 C 195.925 17.325,193.000 16.464,193.000 16.086 C 193.000 15.708,189.625 14.798,185.500 14.065 C 181.375 13.332,178.000 12.394,178.000 11.980 C 178.000 11.565,175.075 10.675,171.500 10.000 C 167.925 9.325,165.000 8.464,165.000 8.086 C 165.000 7.708,161.625 6.798,157.500 6.065 C 153.375 5.332,150.000 4.401,150.000 3.997 C 150.000 3.592,147.412 2.745,144.250 2.116 C 141.088 1.486,137.589 0.726,136.475 0.428 C 135.361 0.129,134.123 0.210,133.725 0.609 M63.654 98.369 C 59.889 98.991,57.060 99.746,57.367 100.046 C 57.674 100.346,54.005 101.185,49.213 101.911 C 44.421 102.636,40.050 103.564,39.500 103.972 C 38.950 104.381,34.934 105.274,30.575 105.958 C 26.216 106.642,21.941 107.581,21.075 108.045 C 20.209 108.509,16.010 109.361,11.745 109.939 C -1.327 111.710,0.000 105.455,0.000 165.285 C 0.000 217.877,0.377 224.140,4.048 232.500 C 4.932 234.512,6.756 240.965,9.843 253.000 C 10.760 256.575,11.801 259.950,12.157 260.500 C 12.513 261.050,13.357 264.313,14.032 267.750 C 14.708 271.188,15.569 274.000,15.947 274.000 C 16.324 274.000,17.224 277.038,17.947 280.750 C 18.669 284.462,19.666 288.013,20.161 288.639 C 20.656 289.266,21.545 292.528,22.137 295.889 C 22.729 299.250,23.535 302.000,23.929 302.000 C 24.322 302.000,25.254 304.925,26.000 308.500 C 26.746 312.075,27.670 315.000,28.053 315.000 C 28.777 315.000,29.679 318.631,30.663 325.500 C 30.978 327.700,31.605 329.735,32.057 330.021 C 32.508 330.308,33.100 331.658,33.371 333.021 C 34.857 340.503,35.344 342.000,36.292 342.000 C 36.865 342.000,37.085 342.249,36.780 342.553 C 36.476 342.857,36.851 345.178,37.614 347.712 C 38.376 350.245,39.000 353.623,39.000 355.218 C 39.000 356.813,39.402 357.869,39.894 357.565 C 40.386 357.261,41.283 359.821,41.888 363.254 C 42.493 366.687,43.440 369.647,43.994 369.831 C 44.547 370.016,45.000 370.774,45.000 371.516 C 45.000 373.289,46.746 373.710,57.500 374.529 C 62.450 374.906,66.725 375.563,67.000 375.989 C 67.275 376.414,70.425 377.021,74.000 377.338 C 77.575 377.654,84.100 378.223,88.500 378.603 C 92.900 378.982,96.725 379.623,97.000 380.028 C 97.482 380.736,100.974 381.151,118.750 382.610 C 123.287 382.983,127.000 383.608,127.000 383.999 C 127.000 384.687,133.398 385.464,149.000 386.671 C 153.125 386.990,156.725 387.597,157.000 388.018 C 157.489 388.768,161.010 389.203,177.750 390.580 C 182.287 390.953,186.000 391.577,186.000 391.966 C 186.000 392.355,192.637 393.260,200.750 393.976 C 208.863 394.692,215.725 395.584,216.000 395.958 C 216.729 396.948,252.615 400.356,253.907 399.557 C 254.508 399.186,255.000 397.784,255.000 396.441 C 255.000 395.098,255.389 394.000,255.863 394.000 C 256.338 394.000,257.314 391.187,258.032 387.750 C 258.750 384.313,259.690 381.261,260.122 380.970 C 260.553 380.678,261.480 377.416,262.181 373.720 C 262.882 370.024,263.753 367.000,264.115 367.000 C 264.477 367.000,265.325 364.075,266.000 360.500 C 266.675 356.925,267.575 354.000,268.000 354.000 C 268.425 354.000,269.325 351.075,270.000 347.500 C 270.675 343.925,271.569 341.000,271.988 341.000 C 272.771 341.000,273.774 337.164,274.603 331.000 C 274.862 329.075,275.507 327.350,276.037 327.167 C 276.567 326.983,277.000 325.746,277.000 324.417 L 277.000 322.000 177.500 322.000 L 78.000 322.000 78.000 209.500 L 78.000 97.000 74.250 97.119 C 72.188 97.184,67.419 97.746,63.654 98.369 M98.607 108.582 C 97.814 110.648,97.814 209.352,98.607 211.418 C 99.331 213.304,146.000 213.877,146.000 212.000 C 146.000 211.450,147.328 211.000,148.951 211.000 C 153.377 211.000,162.000 208.963,162.000 207.917 C 162.000 207.413,162.585 207.000,163.301 207.000 C 165.140 207.000,169.983 204.648,169.992 203.750 C 169.996 203.338,170.649 203.000,171.443 203.000 C 172.237 203.000,173.494 202.133,174.236 201.073 C 174.979 200.013,176.804 198.591,178.293 197.912 C 179.782 197.234,181.000 196.138,181.000 195.476 C 181.000 194.814,182.064 193.199,183.365 191.886 C 184.666 190.574,186.046 188.488,186.432 187.250 C 186.819 186.012,187.496 185.000,187.937 185.000 C 188.379 185.000,189.328 182.863,190.046 180.250 C 190.764 177.637,191.835 175.179,192.426 174.786 C 194.328 173.521,193.828 145.996,191.848 143.000 C 190.940 141.625,189.891 139.037,189.519 137.250 C 189.146 135.463,188.416 134.000,187.896 134.000 C 187.376 134.000,186.523 132.875,186.000 131.500 C 185.477 130.125,184.588 129.000,184.025 129.000 C 183.461 129.000,183.000 128.419,183.000 127.708 C 183.000 125.894,177.007 119.794,173.462 118.002 C 171.833 117.178,170.160 115.975,169.744 115.330 C 169.328 114.684,167.528 113.840,165.744 113.453 C 163.960 113.065,162.221 112.311,161.880 111.776 C 161.539 111.241,158.052 110.298,154.130 109.680 C 150.209 109.063,147.000 108.207,147.000 107.779 C 147.000 106.078,99.264 106.870,98.607 108.582 M198.000 160.000 L 198.000 211.000 210.000 211.000 L 222.000 211.000 222.000 179.847 C 222.000 148.748,222.003 148.698,223.970 150.966 C 225.054 152.215,226.209 154.084,226.538 155.119 C 226.866 156.153,227.510 157.000,227.970 157.000 C 228.429 157.000,229.275 158.350,229.850 160.000 C 230.425 161.650,231.285 163.000,231.761 163.000 C 232.237 163.000,233.245 164.575,234.000 166.500 C 234.755 168.425,235.750 170.000,236.211 170.000 C 236.672 170.000,237.477 171.125,238.000 172.500 C 238.523 173.875,239.328 175.000,239.789 175.000 C 240.250 175.000,241.237 176.556,241.984 178.458 C 242.730 180.360,243.939 182.146,244.670 182.427 C 245.402 182.708,246.000 183.526,246.000 184.246 C 246.000 185.448,249.371 189.000,250.511 189.000 C 250.780 189.000,251.000 188.325,251.000 187.500 C 251.000 186.675,251.461 186.000,252.025 186.000 C 252.588 186.000,253.477 184.875,254.000 183.500 C 254.523 182.125,255.328 181.000,255.789 181.000 C 256.250 181.000,257.245 179.425,258.000 177.500 C 258.755 175.575,259.655 174.000,260.000 174.000 C 260.345 174.000,261.245 172.425,262.000 170.500 C 262.755 168.575,263.750 167.000,264.211 167.000 C 264.672 167.000,265.477 165.875,266.000 164.500 C 266.523 163.125,267.328 162.000,267.789 162.000 C 268.250 162.000,269.245 160.425,270.000 158.500 C 270.755 156.575,271.750 155.000,272.211 155.000 C 272.672 155.000,273.477 153.875,274.000 152.500 C 276.489 145.954,277.000 150.725,277.000 180.500 L 277.000 211.000 289.500 211.000 L 302.000 211.000 302.000 160.000 L 302.000 109.000 288.475 109.000 C 274.969 109.000,274.949 109.003,274.000 111.500 C 273.477 112.875,272.672 114.000,272.211 114.000 C 271.750 114.000,270.755 115.575,270.000 117.500 C 269.245 119.425,268.250 121.000,267.789 121.000 C 267.328 121.000,266.518 122.137,265.990 123.526 C 265.462 124.916,264.566 126.604,264.001 127.276 C 262.225 129.388,258.433 135.423,257.733 137.250 C 257.364 138.213,256.683 139.000,256.218 139.000 C 255.753 139.000,254.755 140.575,254.000 142.500 C 253.245 144.425,252.261 146.000,251.813 146.000 C 251.366 146.000,251.000 146.675,251.000 147.500 C 251.000 148.325,250.715 149.000,250.367 149.000 C 249.264 149.000,246.000 144.751,246.000 143.316 C 246.000 142.557,245.402 141.708,244.670 141.427 C 243.939 141.146,242.730 139.360,241.984 137.458 C 241.237 135.556,240.345 134.000,240.000 134.000 C 239.655 134.000,238.755 132.425,238.000 130.500 C 237.245 128.575,236.315 127.000,235.935 127.000 C 235.554 127.000,234.683 125.650,234.000 124.000 C 233.317 122.350,232.446 121.000,232.065 121.000 C 231.685 121.000,230.755 119.425,230.000 117.500 C 229.245 115.575,228.250 114.000,227.789 114.000 C 227.328 114.000,226.523 112.875,226.000 111.500 C 225.051 109.003,225.031 109.000,211.525 109.000 L 198.000 109.000 198.000 160.000 M148.766 131.798 C 148.966 132.397,150.724 133.414,152.674 134.057 C 156.015 135.160,163.000 141.399,163.000 143.280 C 163.000 143.754,163.662 144.805,164.471 145.614 C 165.280 146.423,166.238 149.316,166.600 152.043 C 166.962 154.769,167.650 157.000,168.129 157.000 C 168.608 157.000,169.000 158.350,169.000 160.000 C 169.000 161.650,168.608 163.000,168.129 163.000 C 167.650 163.000,166.962 165.231,166.600 167.957 C 166.238 170.684,165.280 173.577,164.471 174.386 C 163.662 175.195,163.000 176.246,163.000 176.720 C 163.000 178.601,156.015 184.840,152.674 185.943 C 150.724 186.586,148.966 187.603,148.766 188.202 C 148.541 188.876,143.560 189.478,135.701 189.781 L 123.000 190.270 123.000 160.000 L 123.000 129.730 135.701 130.219 C 143.560 130.522,148.541 131.124,148.766 131.798 M98.210 285.250 L 98.500 293.500 145.750 293.760 L 193.000 294.020 193.000 285.510 L 193.000 277.000 145.460 277.000 L 97.919 277.000 98.210 285.250 " stroke="none" fill="#000000" fill-rule="evenodd"></path></g></svg>