<svg id="svg" xmlns="http://www.w3.org/2000/svg" xmlns:xlink="http://www.w3.org/1999/xlink" width="400" height="400" viewBox="0, 0, 400,400"><g id="svgg"><path id="path0" d="M184.000 10.726 C 179.783 11.021,175.283 11.554,174.000 11.911 C 172.717 12.268,167.917 13.172,163.333 13.919 C 155.356 15.220,153.043 15.800,141.000 19.527 C 134.863 21.427,125.503 24.846,123.619 25.877 C 122.912 26.264,119.183 28.098,115.333 29.952 C 81.866 46.072,53.545 72.625,33.153 107.000 C 23.504 123.264,16.259 142.603,11.298 165.333 C 7.087 184.631,7.505 232.428,11.972 242.333 C 12.303 243.067,13.076 246.067,13.691 249.000 C 17.248 265.969,28.921 292.672,39.098 307.119 C 40.694 309.385,42.000 311.428,42.000 311.659 C 42.000 312.341,47.152 318.745,58.014 331.564 C 70.929 346.807,93.212 363.515,114.667 374.045 C 119.250 376.295,123.579 378.441,124.286 378.814 C 127.416 380.467,138.564 384.298,150.000 387.650 C 157.293 389.787,169.785 391.946,183.333 393.410 C 190.869 394.225,220.286 393.770,222.667 392.803 C 223.583 392.430,227.333 391.749,231.000 391.290 C 255.493 388.221,284.356 376.731,307.802 360.714 C 337.423 340.479,363.202 309.098,376.297 277.333 C 377.279 274.950,378.478 272.100,378.960 271.000 C 390.009 245.811,394.590 199.451,388.973 169.667 C 386.550 156.817,380.636 135.697,378.707 133.000 C 378.444 132.633,377.689 130.833,377.028 129.000 C 363.168 90.546,323.069 48.040,283.000 29.327 C 279.700 27.786,276.250 26.149,275.333 25.690 C 273.156 24.598,257.839 19.216,250.878 17.096 C 247.878 16.182,241.428 14.793,236.545 14.009 C 231.662 13.224,226.767 12.313,225.667 11.984 C 220.249 10.360,198.591 9.707,184.000 10.726 M213.797 39.388 C 226.337 40.447,250.451 45.298,252.956 47.265 C 253.347 47.572,255.317 48.345,257.333 48.982 C 271.218 53.367,306.667 75.130,306.667 79.269 C 306.667 83.855,285.152 104.111,269.000 114.733 C 253.751 124.761,228.565 137.333,223.727 137.333 C 221.753 137.333,221.861 137.487,213.855 123.333 C 211.262 118.750,208.059 113.289,206.737 111.198 C 205.415 109.107,202.383 104.166,200.000 100.217 C 197.617 96.268,194.392 91.151,192.833 88.846 C 191.275 86.540,190.000 84.530,190.000 84.379 C 190.000 84.022,177.976 66.180,174.244 61.000 C 166.293 49.962,162.667 44.673,162.667 44.114 C 162.667 40.478,193.242 37.652,213.797 39.388 M134.841 61.167 C 137.210 64.375,139.715 67.900,140.406 69.000 C 141.097 70.100,143.539 73.617,145.831 76.815 C 148.124 80.012,150.000 82.788,150.000 82.981 C 150.000 83.175,152.025 86.256,154.500 89.828 C 156.975 93.400,159.450 97.095,160.000 98.038 C 160.550 98.981,162.500 102.092,164.333 104.952 C 171.508 116.142,173.150 118.817,181.491 132.917 C 191.537 149.897,191.549 148.667,181.322 150.690 C 177.478 151.451,173.581 152.363,172.662 152.717 C 171.743 153.071,166.343 154.265,160.662 155.369 C 154.981 156.474,148.983 157.666,147.333 158.019 C 145.683 158.372,139.383 159.431,133.333 160.371 C 127.283 161.312,120.533 162.366,118.333 162.713 C 116.133 163.060,106.533 164.115,97.000 165.058 C 87.467 166.001,77.267 167.021,74.333 167.324 C 65.007 168.287,41.751 168.818,40.701 168.092 C 39.742 167.429,41.157 158.963,42.721 156.006 C 43.014 155.453,43.898 152.765,44.686 150.034 C 53.201 120.520,79.744 85.639,108.000 66.830 C 127.639 53.757,129.135 53.441,134.841 61.167 M328.477 100.833 C 340.993 114.478,356.230 147.539,360.046 169.331 C 360.785 173.549,361.685 177.900,362.046 179.000 C 363.407 183.142,363.651 197.588,362.382 198.857 C 361.221 200.017,357.127 199.895,354.640 198.627 C 352.877 197.727,326.536 194.631,309.667 193.340 C 299.486 192.561,274.485 192.613,265.667 193.432 C 249.502 194.933,248.782 194.677,245.752 186.333 C 245.220 184.867,242.807 179.333,240.392 174.037 C 235.058 162.343,235.070 163.028,240.167 160.837 C 272.797 146.811,306.754 123.017,322.749 102.972 C 326.002 98.895,326.521 98.701,328.477 100.833 M204.172 174.833 C 205.606 175.926,216.851 199.892,216.436 200.972 C 216.261 201.430,213.466 202.654,210.225 203.692 C 197.446 207.787,179.440 215.764,170.155 221.444 C 167.857 222.850,165.798 224.000,165.581 224.000 C 165.363 224.000,162.368 225.950,158.926 228.333 C 155.484 230.717,152.504 232.667,152.304 232.667 C 151.800 232.667,144.845 237.979,137.027 244.333 C 116.217 261.250,99.065 279.845,84.606 301.167 C 77.688 311.368,77.856 311.309,72.745 305.371 C 61.932 292.807,50.014 271.221,44.937 255.000 C 44.018 252.067,42.994 249.067,42.661 248.333 C 41.515 245.811,39.061 234.634,37.317 224.000 C 36.477 218.876,35.718 201.883,36.236 199.815 C 36.887 197.225,39.294 196.829,57.066 196.386 C 72.818 195.993,95.759 194.538,105.000 193.345 C 127.244 190.474,140.545 188.568,142.274 188.002 C 143.407 187.632,148.983 186.575,154.667 185.652 C 160.350 184.729,165.600 183.713,166.333 183.393 C 167.067 183.074,171.717 181.909,176.667 180.806 C 187.260 178.445,200.605 174.951,201.163 174.392 C 201.794 173.761,202.996 173.937,204.172 174.833 M312.667 219.326 C 331.030 221.085,341.525 222.943,358.167 227.384 C 361.308 228.222,361.469 230.478,359.066 240.000 C 349.940 276.171,330.539 307.099,302.971 329.422 C 291.477 338.729,291.509 338.732,289.592 328.331 C 287.201 315.354,281.379 290.184,278.790 281.630 C 278.019 279.084,276.790 274.750,276.059 272.000 C 272.438 258.382,261.823 225.707,260.585 224.367 C 259.179 222.844,260.004 221.393,262.500 221.000 C 263.875 220.784,265.750 220.441,266.667 220.238 C 273.086 218.819,301.494 218.255,312.667 219.326 M229.857 232.115 C 230.873 234.077,238.748 256.632,241.803 266.333 C 250.642 294.398,257.072 318.724,260.393 336.667 C 261.241 341.250,262.301 346.426,262.747 348.170 C 263.780 352.202,262.462 353.863,256.831 355.621 C 254.724 356.278,252.700 357.044,252.333 357.321 C 251.967 357.599,248.517 358.626,244.667 359.604 C 240.817 360.582,237.002 361.660,236.189 362.000 C 225.684 366.392,176.119 366.390,166.333 361.997 C 165.600 361.668,162.545 360.918,159.544 360.331 C 146.295 357.739,124.072 348.374,112.008 340.299 C 109.023 338.301,106.376 336.658,106.124 336.647 C 105.872 336.636,104.347 335.486,102.733 334.091 C 99.176 331.016,99.231 330.530,103.988 323.000 C 105.842 320.067,107.727 317.072,108.179 316.346 C 119.416 298.275,150.617 268.768,172.863 255.175 C 183.832 248.472,205.957 237.047,210.667 235.653 C 211.583 235.381,213.533 234.604,215.000 233.925 C 224.588 229.486,228.263 229.038,229.857 232.115 " stroke="none" fill="#000000" fill-rule="evenodd"></path></g></svg>