<svg id="svg" version="1.1" width="515" height="515" xmlns="http://www.w3.org/2000/svg" xmlns:xlink="http://www.w3.org/1999/xlink" style="display: block;"><g id="svgg"><path id="path0" d="M231.000 13.393 C 231.000 23.487,230.722 25.893,229.500 26.362 C 228.442 26.768,228.000 28.419,228.000 31.969 C 228.000 34.736,227.550 37.000,227.000 37.000 C 226.450 37.000,226.000 38.350,226.000 40.000 C 226.000 42.000,225.500 43.000,224.500 43.000 C 223.675 43.000,223.000 43.675,223.000 44.500 C 223.000 45.325,222.515 46.000,221.923 46.000 C 220.524 46.000,215.000 51.524,215.000 52.923 C 215.000 53.515,214.325 54.000,213.500 54.000 C 212.675 54.000,212.000 54.675,212.000 55.500 C 212.000 56.325,211.325 57.000,210.500 57.000 C 209.675 57.000,209.000 57.675,209.000 58.500 C 209.000 59.433,208.056 60.000,206.500 60.000 C 205.125 60.000,204.000 60.450,204.000 61.000 C 204.000 61.550,203.325 62.000,202.500 62.000 C 201.675 62.000,201.000 62.675,201.000 63.500 C 201.000 64.500,200.000 65.000,198.000 65.000 C 196.000 65.000,195.000 65.500,195.000 66.500 C 195.000 67.433,194.056 68.000,192.500 68.000 C 190.944 68.000,190.000 68.567,190.000 69.500 C 190.000 70.500,189.000 71.000,187.000 71.000 C 185.350 71.000,184.000 71.450,184.000 72.000 C 184.000 72.550,182.875 73.000,181.500 73.000 C 179.944 73.000,179.000 73.567,179.000 74.500 C 179.000 75.500,178.000 76.000,176.000 76.000 C 174.000 76.000,173.000 76.500,173.000 77.500 C 173.000 78.433,172.056 79.000,170.500 79.000 C 168.944 79.000,168.000 79.567,168.000 80.500 C 168.000 81.325,167.325 82.000,166.500 82.000 C 165.675 82.000,165.000 82.450,165.000 83.000 C 165.000 83.550,163.650 84.000,162.000 84.000 C 160.000 84.000,159.000 84.500,159.000 85.500 C 159.000 86.325,158.325 87.000,157.500 87.000 C 156.675 87.000,156.000 87.675,156.000 88.500 C 156.000 89.433,155.056 90.000,153.500 90.000 C 151.944 90.000,151.000 90.567,151.000 91.500 C 151.000 92.325,150.325 93.000,149.500 93.000 C 148.675 93.000,148.000 93.675,148.000 94.500 C 148.000 95.325,147.518 96.000,146.929 96.000 C 145.544 96.000,143.000 98.544,143.000 99.929 C 143.000 100.518,142.325 101.000,141.500 101.000 C 140.675 101.000,140.000 101.675,140.000 102.500 C 140.000 103.325,139.325 104.000,138.500 104.000 C 137.675 104.000,137.000 104.675,137.000 105.500 C 137.000 106.325,136.325 107.000,135.500 107.000 C 134.567 107.000,134.000 107.944,134.000 109.500 C 134.000 110.875,133.550 112.000,133.000 112.000 C 132.450 112.000,132.000 112.675,132.000 113.500 C 132.000 114.325,131.325 115.000,130.500 115.000 C 129.567 115.000,129.000 115.944,129.000 117.500 C 129.000 119.056,128.433 120.000,127.500 120.000 C 126.675 120.000,126.000 120.675,126.000 121.500 C 126.000 122.325,125.325 123.000,124.500 123.000 C 123.389 123.000,123.000 124.167,123.000 127.500 C 123.000 130.833,122.611 132.000,121.500 132.000 C 120.567 132.000,120.000 132.944,120.000 134.500 C 120.000 135.875,119.550 137.000,119.000 137.000 C 118.450 137.000,118.000 139.475,118.000 142.500 C 118.000 146.722,117.652 148.000,116.500 148.000 C 115.348 148.000,115.000 149.278,115.000 153.500 C 115.000 157.722,114.652 159.000,113.500 159.000 C 112.214 159.000,112.000 162.000,112.000 180.000 C 112.000 198.000,112.214 201.000,113.500 201.000 C 114.652 201.000,115.000 202.278,115.000 206.500 C 115.000 210.722,115.348 212.000,116.500 212.000 C 117.652 212.000,118.000 213.278,118.000 217.500 C 118.000 220.525,118.450 223.000,119.000 223.000 C 119.550 223.000,120.000 224.125,120.000 225.500 C 120.000 227.056,120.567 228.000,121.500 228.000 C 122.500 228.000,123.000 229.000,123.000 231.000 C 123.000 233.000,123.500 234.000,124.500 234.000 C 125.433 234.000,126.000 234.944,126.000 236.500 C 126.000 238.056,126.567 239.000,127.500 239.000 C 128.500 239.000,129.000 240.000,129.000 242.000 C 129.000 244.000,129.500 245.000,130.500 245.000 C 131.444 245.000,132.000 245.952,132.000 247.571 C 132.000 250.208,134.020 253.000,135.929 253.000 C 136.518 253.000,137.000 254.350,137.000 256.000 C 137.000 258.000,137.500 259.000,138.500 259.000 C 139.325 259.000,140.000 259.675,140.000 260.500 C 140.000 261.325,140.482 262.000,141.071 262.000 C 142.456 262.000,145.000 264.544,145.000 265.929 C 145.000 266.518,145.675 267.000,146.500 267.000 C 147.325 267.000,148.000 267.675,148.000 268.500 C 148.000 269.325,148.675 270.000,149.500 270.000 C 150.325 270.000,151.000 270.675,151.000 271.500 C 151.000 272.325,151.482 273.000,152.071 273.000 C 153.456 273.000,156.000 275.544,156.000 276.929 C 156.000 277.518,156.675 278.000,157.500 278.000 C 158.325 278.000,159.000 278.675,159.000 279.500 C 159.000 280.325,159.675 281.000,160.500 281.000 C 161.325 281.000,162.000 281.675,162.000 282.500 C 162.000 283.500,163.000 284.000,165.000 284.000 C 166.650 284.000,168.000 284.482,168.000 285.071 C 168.000 286.980,170.792 289.000,173.429 289.000 C 175.762 289.000,176.000 288.630,176.000 285.000 C 176.000 282.111,175.583 281.000,174.500 281.000 C 173.675 281.000,173.000 280.325,173.000 279.500 C 173.000 278.675,172.325 278.000,171.500 278.000 C 170.567 278.000,170.000 277.056,170.000 275.500 C 170.000 274.125,169.550 273.000,169.000 273.000 C 168.450 273.000,168.000 272.132,168.000 271.071 C 168.000 270.011,167.325 268.468,166.500 267.643 C 165.675 266.818,165.000 265.211,165.000 264.071 C 165.000 262.897,164.351 262.000,163.500 262.000 C 162.310 262.000,162.000 260.556,162.000 255.000 C 162.000 249.444,161.690 248.000,160.500 248.000 C 159.247 248.000,159.000 245.944,159.000 235.500 C 159.000 225.056,159.247 223.000,160.500 223.000 C 161.652 223.000,162.000 221.722,162.000 217.500 C 162.000 213.278,162.348 212.000,163.500 212.000 C 164.575 212.000,165.000 210.902,165.000 208.122 C 165.000 205.896,165.639 203.715,166.500 203.000 C 167.325 202.315,168.000 200.910,168.000 199.878 C 168.000 198.845,168.450 198.000,169.000 198.000 C 169.550 198.000,170.000 197.325,170.000 196.500 C 170.000 195.675,170.675 195.000,171.500 195.000 C 172.433 195.000,173.000 194.056,173.000 192.500 C 173.000 190.944,173.567 190.000,174.500 190.000 C 175.325 190.000,176.000 189.325,176.000 188.500 C 176.000 187.675,176.675 187.000,177.500 187.000 C 178.444 187.000,179.000 186.048,179.000 184.429 C 179.000 181.792,181.020 179.000,182.929 179.000 C 183.518 179.000,184.000 178.325,184.000 177.500 C 184.000 176.500,185.000 176.000,187.000 176.000 C 189.000 176.000,190.000 175.500,190.000 174.500 C 190.000 173.675,190.450 173.000,191.000 173.000 C 191.550 173.000,192.000 172.325,192.000 171.500 C 192.000 170.675,192.675 170.000,193.500 170.000 C 194.325 170.000,195.000 169.550,195.000 169.000 C 195.000 168.450,195.868 168.000,196.929 168.000 C 197.989 168.000,199.532 167.325,200.357 166.500 C 201.182 165.675,202.789 165.000,203.929 165.000 C 205.103 165.000,206.000 164.351,206.000 163.500 C 206.000 162.500,207.000 162.000,209.000 162.000 C 211.000 162.000,212.000 161.500,212.000 160.500 C 212.000 159.417,213.111 159.000,216.000 159.000 C 218.889 159.000,220.000 158.583,220.000 157.500 C 220.000 156.348,221.278 156.000,225.500 156.000 C 230.700 156.000,231.000 155.864,231.000 153.500 C 231.000 151.944,230.433 151.000,229.500 151.000 C 228.500 151.000,228.000 150.000,228.000 148.000 C 228.000 146.350,227.550 145.000,227.000 145.000 C 226.450 145.000,226.000 143.875,226.000 142.500 C 226.000 140.944,225.433 140.000,224.500 140.000 C 223.310 140.000,223.000 138.556,223.000 133.000 C 223.000 127.444,222.690 126.000,221.500 126.000 C 220.284 126.000,220.000 124.389,220.000 117.500 C 220.000 110.611,220.284 109.000,221.500 109.000 C 222.652 109.000,223.000 107.722,223.000 103.500 C 223.000 99.278,223.348 98.000,224.500 98.000 C 225.433 98.000,226.000 97.056,226.000 95.500 C 226.000 94.125,226.450 93.000,227.000 93.000 C 227.550 93.000,228.000 91.650,228.000 90.000 C 228.000 88.000,228.500 87.000,229.500 87.000 C 230.433 87.000,231.000 86.056,231.000 84.500 C 231.000 82.944,231.567 82.000,232.500 82.000 C 233.325 82.000,234.000 81.325,234.000 80.500 C 234.000 79.675,234.675 79.000,235.500 79.000 C 236.325 79.000,237.000 78.325,237.000 77.500 C 237.000 76.675,237.450 76.000,238.000 76.000 C 238.550 76.000,239.000 75.325,239.000 74.500 C 239.000 73.675,239.675 73.000,240.500 73.000 C 241.325 73.000,242.000 72.550,242.000 72.000 C 242.000 71.450,242.675 71.000,243.500 71.000 C 244.325 71.000,245.000 70.325,245.000 69.500 C 245.000 68.500,246.000 68.000,248.000 68.000 C 250.000 68.000,251.000 67.500,251.000 66.500 C 251.000 65.567,251.944 65.000,253.500 65.000 C 255.056 65.000,256.000 64.433,256.000 63.500 C 256.000 62.500,257.000 62.000,259.000 62.000 C 260.650 62.000,262.000 61.550,262.000 61.000 C 262.000 60.450,264.264 60.000,267.031 60.000 C 270.581 60.000,272.232 59.558,272.638 58.500 C 273.083 57.342,275.013 57.000,281.107 57.000 C 288.922 57.000,289.000 56.975,289.000 54.423 C 289.000 51.845,284.196 46.000,282.077 46.000 C 281.485 46.000,281.000 45.325,281.000 44.500 C 281.000 43.675,280.325 43.000,279.500 43.000 C 278.675 43.000,278.000 42.325,278.000 41.500 C 278.000 40.567,277.056 40.000,275.500 40.000 C 273.944 40.000,273.000 39.433,273.000 38.500 C 273.000 37.675,272.325 37.000,271.500 37.000 C 270.675 37.000,270.000 36.550,270.000 36.000 C 270.000 35.450,269.325 35.000,268.500 35.000 C 267.675 35.000,267.000 34.325,267.000 33.500 C 267.000 32.675,266.325 32.000,265.500 32.000 C 264.675 32.000,264.000 31.325,264.000 30.500 C 264.000 29.675,263.550 29.000,263.000 29.000 C 262.450 29.000,262.000 28.325,262.000 27.500 C 262.000 26.675,261.325 26.000,260.500 26.000 C 259.675 26.000,259.000 25.550,259.000 25.000 C 259.000 24.450,258.325 24.000,257.500 24.000 C 256.675 24.000,256.000 23.325,256.000 22.500 C 256.000 21.675,255.325 21.000,254.500 21.000 C 253.675 21.000,253.000 20.325,253.000 19.500 C 253.000 18.675,252.550 18.000,252.000 18.000 C 251.450 18.000,251.000 17.325,251.000 16.500 C 251.000 15.675,250.529 15.000,249.952 15.000 C 249.376 15.000,247.862 13.875,246.588 12.500 C 245.313 11.125,243.760 10.000,243.135 10.000 C 242.511 10.000,242.000 9.325,242.000 8.500 C 242.000 7.675,241.325 7.000,240.500 7.000 C 239.675 7.000,239.000 6.325,239.000 5.500 C 239.000 4.675,238.550 4.000,238.000 4.000 C 237.450 4.000,237.000 3.325,237.000 2.500 C 237.000 1.500,236.000 1.000,234.000 1.000 L 231.000 1.000 231.000 13.393 M276.000 80.500 C 276.000 81.654,274.714 82.000,270.429 82.000 C 265.028 82.000,262.000 83.411,262.000 85.929 C 262.000 86.518,260.650 87.000,259.000 87.000 C 257.000 87.000,256.000 87.500,256.000 88.500 C 256.000 89.325,255.325 90.000,254.500 90.000 C 253.675 90.000,253.000 90.675,253.000 91.500 C 253.000 92.325,252.550 93.000,252.000 93.000 C 251.450 93.000,251.000 94.125,251.000 95.500 C 251.000 97.056,250.433 98.000,249.500 98.000 C 248.675 98.000,248.000 98.675,248.000 99.500 C 248.000 100.325,247.325 101.000,246.500 101.000 C 245.348 101.000,245.000 102.278,245.000 106.500 C 245.000 110.722,244.652 112.000,243.500 112.000 C 242.310 112.000,242.000 113.444,242.000 119.000 C 242.000 124.556,242.310 126.000,243.500 126.000 C 244.583 126.000,245.000 127.111,245.000 130.000 C 245.000 132.889,245.417 134.000,246.500 134.000 C 247.500 134.000,248.000 135.000,248.000 137.000 C 248.000 139.000,248.500 140.000,249.500 140.000 C 250.325 140.000,251.000 140.482,251.000 141.071 C 251.000 142.456,253.544 145.000,254.929 145.000 C 255.518 145.000,256.000 145.675,256.000 146.500 C 256.000 147.325,256.675 148.000,257.500 148.000 C 258.325 148.000,259.000 148.675,259.000 149.500 C 259.000 150.325,259.675 151.000,260.500 151.000 C 261.325 151.000,262.000 151.675,262.000 152.500 C 262.000 153.583,263.111 154.000,266.000 154.000 C 268.200 154.000,270.000 154.450,270.000 155.000 C 270.000 155.613,274.833 156.000,282.500 156.000 C 290.167 156.000,295.000 155.613,295.000 155.000 C 295.000 154.450,296.125 154.000,297.500 154.000 C 299.056 154.000,300.000 153.433,300.000 152.500 C 300.000 151.500,301.000 151.000,303.000 151.000 C 305.000 151.000,306.000 150.500,306.000 149.500 C 306.000 148.675,306.675 148.000,307.500 148.000 C 308.325 148.000,309.000 147.325,309.000 146.500 C 309.000 145.675,309.450 145.000,310.000 145.000 C 310.550 145.000,311.000 143.875,311.000 142.500 C 311.000 140.944,311.567 140.000,312.500 140.000 C 313.325 140.000,314.000 139.325,314.000 138.500 C 314.000 137.675,314.675 137.000,315.500 137.000 C 316.415 137.000,317.000 136.067,317.000 134.607 C 317.000 133.291,317.675 131.955,318.500 131.638 C 319.718 131.171,320.000 128.803,320.000 119.031 C 320.000 109.003,319.750 107.000,318.500 107.000 C 317.389 107.000,317.000 105.833,317.000 102.500 C 317.000 99.167,316.611 98.000,315.500 98.000 C 314.675 98.000,314.000 97.550,314.000 97.000 C 314.000 96.450,313.325 96.000,312.500 96.000 C 311.675 96.000,311.000 95.325,311.000 94.500 C 311.000 93.675,310.550 93.000,310.000 93.000 C 309.450 93.000,309.000 92.325,309.000 91.500 C 309.000 90.675,308.325 90.000,307.500 90.000 C 306.675 90.000,306.000 89.325,306.000 88.500 C 306.000 87.675,305.325 87.000,304.500 87.000 C 303.675 87.000,303.000 86.325,303.000 85.500 C 303.000 84.567,302.056 84.000,300.500 84.000 C 299.125 84.000,298.000 83.550,298.000 83.000 C 298.000 82.450,295.975 82.000,293.500 82.000 C 290.167 82.000,289.000 81.611,289.000 80.500 C 289.000 79.321,287.611 79.000,282.500 79.000 C 277.389 79.000,276.000 79.321,276.000 80.500 M342.000 120.500 C 342.000 131.833,341.759 134.000,340.500 134.000 C 339.389 134.000,339.000 135.167,339.000 138.500 C 339.000 141.833,338.611 143.000,337.500 143.000 C 336.567 143.000,336.000 143.944,336.000 145.500 C 336.000 146.875,335.550 148.000,335.000 148.000 C 334.450 148.000,334.000 148.675,334.000 149.500 C 334.000 150.325,333.325 151.000,332.500 151.000 C 331.567 151.000,331.000 151.944,331.000 153.500 C 331.000 155.056,330.433 156.000,329.500 156.000 C 328.675 156.000,328.000 156.675,328.000 157.500 C 328.000 158.325,327.325 159.000,326.500 159.000 C 325.675 159.000,325.000 159.675,325.000 160.500 C 325.000 161.325,324.550 162.000,324.000 162.000 C 323.450 162.000,323.000 162.675,323.000 163.500 C 323.000 164.325,322.325 165.000,321.500 165.000 C 320.675 165.000,320.000 165.675,320.000 166.500 C 320.000 167.471,319.026 168.000,317.237 168.000 C 315.458 168.000,313.807 168.890,312.597 170.500 C 311.523 171.930,309.710 173.000,308.360 173.000 C 306.929 173.000,306.000 173.590,306.000 174.500 C 306.000 175.583,304.889 176.000,302.000 176.000 C 298.400 176.000,298.000 176.250,298.000 178.500 C 298.000 179.875,298.450 181.000,299.000 181.000 C 299.550 181.000,300.000 182.350,300.000 184.000 C 300.000 186.000,300.500 187.000,301.500 187.000 C 302.325 187.000,303.000 187.675,303.000 188.500 C 303.000 189.325,303.675 190.000,304.500 190.000 C 305.325 190.000,306.000 190.450,306.000 191.000 C 306.000 191.550,306.675 192.000,307.500 192.000 C 308.500 192.000,309.000 193.000,309.000 195.000 C 309.000 196.650,309.450 198.000,310.000 198.000 C 310.550 198.000,311.000 198.845,311.000 199.878 C 311.000 200.910,311.675 202.315,312.500 203.000 C 313.361 203.715,314.000 205.896,314.000 208.122 C 314.000 210.902,314.425 212.000,315.500 212.000 C 316.583 212.000,317.000 213.111,317.000 216.000 C 317.000 218.889,317.417 220.000,318.500 220.000 C 319.769 220.000,320.000 222.389,320.000 235.500 C 320.000 248.611,319.769 251.000,318.500 251.000 C 317.348 251.000,317.000 252.278,317.000 256.500 C 317.000 260.722,316.652 262.000,315.500 262.000 C 314.449 262.000,314.000 263.061,314.000 265.548 C 314.000 268.048,313.262 269.780,311.500 271.412 C 310.125 272.687,309.000 274.690,309.000 275.865 C 309.000 277.096,308.365 278.000,307.500 278.000 C 306.500 278.000,306.000 279.000,306.000 281.000 C 306.000 283.000,305.500 284.000,304.500 284.000 C 303.675 284.000,303.000 284.675,303.000 285.500 C 303.000 286.325,302.518 287.000,301.929 287.000 C 300.544 287.000,298.000 289.544,298.000 290.929 C 298.000 291.518,297.325 292.000,296.500 292.000 C 295.675 292.000,295.000 292.675,295.000 293.500 C 295.000 294.325,294.325 295.000,293.500 295.000 C 292.675 295.000,292.000 295.675,292.000 296.500 C 292.000 297.325,291.325 298.000,290.500 298.000 C 289.567 298.000,289.000 298.944,289.000 300.500 C 289.000 302.796,289.367 303.000,293.500 303.000 C 296.833 303.000,298.000 302.611,298.000 301.500 C 298.000 300.567,298.944 300.000,300.500 300.000 C 301.875 300.000,303.000 299.550,303.000 299.000 C 303.000 298.450,304.800 298.000,307.000 298.000 C 309.889 298.000,311.000 297.583,311.000 296.500 C 311.000 295.675,311.675 295.000,312.500 295.000 C 313.325 295.000,314.000 294.325,314.000 293.500 C 314.000 292.500,315.000 292.000,317.000 292.000 C 319.000 292.000,320.000 291.500,320.000 290.500 C 320.000 289.567,320.944 289.000,322.500 289.000 C 323.875 289.000,325.000 288.550,325.000 288.000 C 325.000 287.450,325.675 287.000,326.500 287.000 C 327.325 287.000,328.000 286.325,328.000 285.500 C 328.000 284.675,328.675 284.000,329.500 284.000 C 330.325 284.000,331.000 283.325,331.000 282.500 C 331.000 281.567,331.944 281.000,333.500 281.000 C 335.056 281.000,336.000 280.433,336.000 279.500 C 336.000 278.675,336.675 278.000,337.500 278.000 C 338.325 278.000,339.000 277.325,339.000 276.500 C 339.000 275.675,339.675 275.000,340.500 275.000 C 341.325 275.000,342.000 274.550,342.000 274.000 C 342.000 273.450,342.675 273.000,343.500 273.000 C 344.325 273.000,345.000 272.325,345.000 271.500 C 345.000 270.675,345.450 270.000,346.000 270.000 C 346.550 270.000,347.000 269.325,347.000 268.500 C 347.000 267.675,347.675 267.000,348.500 267.000 C 349.325 267.000,350.000 266.325,350.000 265.500 C 350.000 264.675,350.675 264.000,351.500 264.000 C 352.325 264.000,353.000 263.550,353.000 263.000 C 353.000 262.450,353.675 262.000,354.500 262.000 C 355.500 262.000,356.000 261.000,356.000 259.000 C 356.000 257.000,356.500 256.000,357.500 256.000 C 358.325 256.000,359.000 255.518,359.000 254.929 C 359.000 253.544,361.544 251.000,362.929 251.000 C 363.518 251.000,364.000 249.650,364.000 248.000 C 364.000 246.000,364.500 245.000,365.500 245.000 C 366.500 245.000,367.000 244.000,367.000 242.000 C 367.000 240.000,367.500 239.000,368.500 239.000 C 369.433 239.000,370.000 238.056,370.000 236.500 C 370.000 235.125,370.450 234.000,371.000 234.000 C 371.550 234.000,372.000 232.650,372.000 231.000 C 372.000 229.000,372.500 228.000,373.500 228.000 C 374.433 228.000,375.000 227.056,375.000 225.500 C 375.000 223.944,375.567 223.000,376.500 223.000 C 377.583 223.000,378.000 221.889,378.000 219.000 C 378.000 216.111,378.417 215.000,379.500 215.000 C 380.690 215.000,381.000 213.556,381.000 208.000 C 381.000 204.000,381.429 201.000,382.000 201.000 C 382.624 201.000,383.000 195.167,383.000 185.500 C 383.000 175.833,382.624 170.000,382.000 170.000 C 381.450 170.000,381.000 167.525,381.000 164.500 C 381.000 160.278,380.652 159.000,379.500 159.000 C 378.417 159.000,378.000 157.889,378.000 155.000 C 378.000 152.111,377.583 151.000,376.500 151.000 C 375.500 151.000,375.000 150.000,375.000 148.000 C 375.000 146.000,374.500 145.000,373.500 145.000 C 372.567 145.000,372.000 144.056,372.000 142.500 C 372.000 141.125,371.550 140.000,371.000 140.000 C 370.450 140.000,370.000 138.650,370.000 137.000 C 370.000 135.000,369.500 134.000,368.500 134.000 C 367.567 134.000,367.000 133.056,367.000 131.500 C 367.000 129.944,366.433 129.000,365.500 129.000 C 364.675 129.000,364.000 128.325,364.000 127.500 C 364.000 126.675,363.325 126.000,362.500 126.000 C 361.556 126.000,361.000 125.048,361.000 123.429 C 361.000 120.792,358.980 118.000,357.071 118.000 C 356.482 118.000,356.000 117.325,356.000 116.500 C 356.000 115.675,355.325 115.000,354.500 115.000 C 353.675 115.000,353.000 114.325,353.000 113.500 C 353.000 112.675,352.325 112.000,351.500 112.000 C 350.567 112.000,350.000 111.056,350.000 109.500 C 350.000 107.250,349.600 107.000,346.000 107.000 L 342.000 107.000 342.000 120.500 M226.000 188.500 C 226.000 189.611,224.833 190.000,221.500 190.000 C 219.025 190.000,217.000 190.450,217.000 191.000 C 217.000 191.550,215.875 192.000,214.500 192.000 C 212.944 192.000,212.000 192.567,212.000 193.500 C 212.000 194.325,211.325 195.000,210.500 195.000 C 209.675 195.000,209.000 195.675,209.000 196.500 C 209.000 197.325,208.325 198.000,207.500 198.000 C 206.675 198.000,206.000 198.675,206.000 199.500 C 206.000 200.325,205.550 201.000,205.000 201.000 C 204.450 201.000,204.000 201.675,204.000 202.500 C 204.000 203.325,203.325 204.000,202.500 204.000 C 201.675 204.000,201.000 204.450,201.000 205.000 C 201.000 205.550,200.325 206.000,199.500 206.000 C 198.500 206.000,198.000 207.000,198.000 209.000 C 198.000 211.000,197.500 212.000,196.500 212.000 C 195.585 212.000,195.000 212.933,195.000 214.393 C 195.000 215.709,194.325 217.045,193.500 217.362 C 192.510 217.742,192.000 219.308,192.000 221.969 C 192.000 224.186,191.550 226.000,191.000 226.000 C 190.404 226.000,190.000 229.833,190.000 235.500 C 190.000 241.167,190.404 245.000,191.000 245.000 C 191.550 245.000,192.000 247.475,192.000 250.500 C 192.000 254.722,192.348 256.000,193.500 256.000 C 194.500 256.000,195.000 257.000,195.000 259.000 C 195.000 261.000,195.500 262.000,196.500 262.000 C 197.325 262.000,198.000 262.450,198.000 263.000 C 198.000 263.550,198.675 264.000,199.500 264.000 C 200.500 264.000,201.000 265.000,201.000 267.000 C 201.000 269.000,201.500 270.000,202.500 270.000 C 203.325 270.000,204.000 270.482,204.000 271.071 C 204.000 272.980,206.792 275.000,209.429 275.000 C 211.048 275.000,212.000 275.556,212.000 276.500 C 212.000 277.325,212.675 278.000,213.500 278.000 C 214.325 278.000,215.000 278.675,215.000 279.500 C 215.000 280.433,215.944 281.000,217.500 281.000 C 219.056 281.000,220.000 281.567,220.000 282.500 C 220.000 283.690,221.444 284.000,227.000 284.000 C 232.556 284.000,234.000 284.310,234.000 285.500 C 234.000 286.652,235.278 287.000,239.500 287.000 C 243.722 287.000,245.000 286.652,245.000 285.500 C 245.000 284.310,246.444 284.000,252.000 284.000 C 257.556 284.000,259.000 283.690,259.000 282.500 C 259.000 281.567,259.944 281.000,261.500 281.000 C 263.056 281.000,264.000 280.433,264.000 279.500 C 264.000 278.675,264.675 278.000,265.500 278.000 C 266.325 278.000,267.000 277.325,267.000 276.500 C 267.000 275.556,267.952 275.000,269.571 275.000 C 272.208 275.000,275.000 272.980,275.000 271.071 C 275.000 270.482,275.675 270.000,276.500 270.000 C 277.325 270.000,278.000 269.325,278.000 268.500 C 278.000 267.675,278.675 267.000,279.500 267.000 C 280.433 267.000,281.000 266.056,281.000 264.500 C 281.000 262.944,281.567 262.000,282.500 262.000 C 283.500 262.000,284.000 261.000,284.000 259.000 C 284.000 257.000,284.500 256.000,285.500 256.000 C 286.583 256.000,287.000 254.889,287.000 252.000 C 287.000 249.800,287.450 248.000,288.000 248.000 C 288.613 248.000,289.000 243.167,289.000 235.500 C 289.000 227.833,288.613 223.000,288.000 223.000 C 287.450 223.000,287.000 221.200,287.000 219.000 C 287.000 216.111,286.583 215.000,285.500 215.000 C 284.500 215.000,284.000 214.000,284.000 212.000 C 284.000 210.000,283.500 209.000,282.500 209.000 C 281.675 209.000,281.000 208.325,281.000 207.500 C 281.000 206.675,280.325 206.000,279.500 206.000 C 278.675 206.000,278.000 205.550,278.000 205.000 C 278.000 204.450,277.325 204.000,276.500 204.000 C 275.675 204.000,275.000 203.325,275.000 202.500 C 275.000 201.675,274.550 201.000,274.000 201.000 C 273.450 201.000,273.000 200.325,273.000 199.500 C 273.000 198.675,272.325 198.000,271.500 198.000 C 270.675 198.000,270.000 197.325,270.000 196.500 C 270.000 195.675,269.325 195.000,268.500 195.000 C 267.675 195.000,267.000 194.325,267.000 193.500 C 267.000 192.567,266.056 192.000,264.500 192.000 C 263.125 192.000,262.000 191.550,262.000 191.000 C 262.000 190.450,259.975 190.000,257.500 190.000 C 254.167 190.000,253.000 189.611,253.000 188.500 C 253.000 187.241,250.833 187.000,239.500 187.000 C 228.167 187.000,226.000 187.241,226.000 188.500 M29.000 438.500 L 29.000 491.000 50.000 491.000 C 63.333 491.000,71.000 490.635,71.000 490.000 C 71.000 489.436,73.833 489.000,77.500 489.000 C 82.611 489.000,84.000 488.679,84.000 487.500 C 84.000 486.389,85.167 486.000,88.500 486.000 C 90.975 486.000,93.000 485.550,93.000 485.000 C 93.000 483.264,96.917 480.000,99.000 480.000 C 100.100 480.000,101.000 479.550,101.000 479.000 C 101.000 478.450,101.675 478.000,102.500 478.000 C 103.500 478.000,104.000 477.000,104.000 475.000 C 104.000 473.000,104.500 472.000,105.500 472.000 C 106.433 472.000,107.000 471.056,107.000 469.500 C 107.000 468.125,107.450 467.000,108.000 467.000 C 108.550 467.000,109.000 465.650,109.000 464.000 C 109.000 462.000,109.500 461.000,110.500 461.000 C 111.788 461.000,112.000 457.889,112.000 439.000 C 112.000 420.111,111.788 417.000,110.500 417.000 C 109.389 417.000,109.000 415.833,109.000 412.500 C 109.000 410.025,108.550 408.000,108.000 408.000 C 107.450 408.000,107.000 406.875,107.000 405.500 C 107.000 403.944,106.433 403.000,105.500 403.000 C 104.675 403.000,104.000 402.325,104.000 401.500 C 104.000 400.675,103.325 400.000,102.500 400.000 C 101.675 400.000,101.000 399.325,101.000 398.500 C 101.000 397.675,100.518 397.000,99.929 397.000 C 98.544 397.000,96.000 394.456,96.000 393.071 C 96.000 392.482,94.650 392.000,93.000 392.000 C 91.000 392.000,90.000 391.500,90.000 390.500 C 90.000 389.417,88.889 389.000,86.000 389.000 C 83.111 389.000,82.000 388.583,82.000 387.500 C 82.000 386.204,78.389 386.000,55.500 386.000 L 29.000 386.000 29.000 438.500 M453.000 438.500 L 453.000 491.000 465.500 491.000 L 478.000 491.000 478.000 438.500 L 478.000 386.000 465.500 386.000 L 453.000 386.000 453.000 438.500 M65.000 407.000 C 65.000 407.571,68.000 408.000,72.000 408.000 C 77.556 408.000,79.000 408.310,79.000 409.500 C 79.000 410.325,79.675 411.000,80.500 411.000 C 81.325 411.000,82.000 411.675,82.000 412.500 C 82.000 413.325,82.450 414.000,83.000 414.000 C 83.550 414.000,84.000 415.125,84.000 416.500 C 84.000 418.056,84.567 419.000,85.500 419.000 C 86.777 419.000,87.000 421.655,87.000 436.893 C 87.000 451.875,86.756 454.880,85.500 455.362 C 84.675 455.678,84.000 457.076,84.000 458.469 C 84.000 459.861,83.550 461.000,83.000 461.000 C 82.450 461.000,82.000 461.675,82.000 462.500 C 82.000 463.325,81.325 464.000,80.500 464.000 C 79.675 464.000,79.000 464.675,79.000 465.500 C 79.000 466.325,78.325 467.000,77.500 467.000 C 76.675 467.000,76.000 467.450,76.000 468.000 C 76.000 468.606,71.667 469.000,65.000 469.000 L 54.000 469.000 54.000 437.500 L 54.000 406.000 59.500 406.000 C 62.525 406.000,65.000 406.450,65.000 407.000 M119.722 410.011 C 117.333 412.802,117.058 487.201,119.429 489.571 C 120.495 490.637,123.667 491.000,131.929 491.000 L 143.000 491.000 143.000 469.000 C 143.000 455.000,143.364 447.000,144.000 447.000 C 144.550 447.000,145.000 445.875,145.000 444.500 C 145.000 442.944,145.567 442.000,146.500 442.000 C 147.325 442.000,148.000 441.325,148.000 440.500 C 148.000 439.675,148.675 439.000,149.500 439.000 C 150.325 439.000,151.000 438.325,151.000 437.500 C 151.000 436.675,151.675 436.000,152.500 436.000 C 153.325 436.000,154.000 435.325,154.000 434.500 C 154.000 433.272,155.722 433.000,163.500 433.000 C 171.278 433.000,173.000 433.272,173.000 434.500 C 173.000 435.500,174.000 436.000,176.000 436.000 C 178.000 436.000,179.000 436.500,179.000 437.500 C 179.000 438.433,179.944 439.000,181.500 439.000 L 184.000 439.000 184.000 425.000 L 184.000 411.000 181.607 411.000 C 180.291 411.000,178.955 410.325,178.638 409.500 C 176.913 405.004,154.000 408.269,154.000 413.011 C 154.000 413.555,152.650 414.000,151.000 414.000 C 149.000 414.000,148.000 414.500,148.000 415.500 C 148.000 416.325,147.325 417.000,146.500 417.000 C 145.675 417.000,145.000 417.450,145.000 418.000 C 145.000 418.550,144.550 419.000,144.000 419.000 C 143.450 419.000,143.000 417.200,143.000 415.000 C 143.000 412.111,142.583 411.000,141.500 411.000 C 140.675 411.000,140.000 410.325,140.000 409.500 C 140.000 406.911,121.988 407.365,119.722 410.011 M190.000 437.500 C 190.000 456.500,190.356 467.000,191.000 467.000 C 191.550 467.000,192.000 468.800,192.000 471.000 C 192.000 473.889,192.417 475.000,193.500 475.000 C 194.325 475.000,195.000 475.675,195.000 476.500 C 195.000 477.325,195.675 478.000,196.500 478.000 C 197.325 478.000,198.000 478.450,198.000 479.000 C 198.000 479.550,198.675 480.000,199.500 480.000 C 200.325 480.000,201.000 480.675,201.000 481.500 C 201.000 482.325,201.675 483.000,202.500 483.000 C 203.325 483.000,204.000 483.675,204.000 484.500 C 204.000 485.325,204.450 486.000,205.000 486.000 C 205.550 486.000,206.000 486.675,206.000 487.500 C 206.000 488.500,207.000 489.000,209.000 489.000 C 210.650 489.000,212.000 489.450,212.000 490.000 C 212.000 490.622,217.667 491.000,227.000 491.000 C 236.333 491.000,242.000 490.622,242.000 490.000 C 242.000 489.450,243.350 489.000,245.000 489.000 C 247.000 489.000,248.000 488.500,248.000 487.500 C 248.000 486.567,248.944 486.000,250.500 486.000 C 252.056 486.000,253.000 485.433,253.000 484.500 C 253.000 483.675,253.675 483.000,254.500 483.000 C 255.325 483.000,256.000 482.325,256.000 481.500 C 256.000 480.675,256.675 480.000,257.500 480.000 C 258.433 480.000,259.000 479.056,259.000 477.500 C 259.000 475.944,259.567 475.000,260.500 475.000 C 261.500 475.000,262.000 474.000,262.000 472.000 C 262.000 470.350,262.450 469.000,263.000 469.000 C 263.550 469.000,264.000 467.875,264.000 466.500 C 264.000 464.944,264.567 464.000,265.500 464.000 C 266.798 464.000,267.000 460.222,267.000 436.000 L 267.000 408.000 256.000 408.000 C 246.889 408.000,245.000 408.258,245.000 409.500 C 245.000 410.325,244.325 411.000,243.500 411.000 C 242.209 411.000,242.000 414.278,242.000 434.500 C 242.000 449.500,241.638 458.000,241.000 458.000 C 240.450 458.000,240.000 459.350,240.000 461.000 C 240.000 463.000,239.500 464.000,238.500 464.000 C 237.675 464.000,237.000 464.675,237.000 465.500 C 237.000 466.325,236.325 467.000,235.500 467.000 C 234.675 467.000,234.000 467.450,234.000 468.000 C 234.000 468.550,231.525 469.000,228.500 469.000 C 225.475 469.000,223.000 468.550,223.000 468.000 C 223.000 467.450,221.650 467.000,220.000 467.000 C 217.333 467.000,217.000 466.667,217.000 464.000 C 217.000 462.350,216.550 461.000,216.000 461.000 C 215.450 461.000,215.000 459.200,215.000 457.000 C 215.000 454.111,214.583 453.000,213.500 453.000 C 212.211 453.000,212.000 449.833,212.000 430.500 L 212.000 408.000 201.000 408.000 L 190.000 408.000 190.000 437.500 M300.362 409.500 C 300.045 410.325,298.709 411.000,297.393 411.000 C 295.933 411.000,295.000 411.585,295.000 412.500 C 295.000 413.500,294.000 414.000,292.000 414.000 C 290.350 414.000,289.000 414.465,289.000 415.034 C 289.000 416.328,283.272 422.000,281.966 422.000 C 281.434 422.000,281.000 422.675,281.000 423.500 C 281.000 424.325,280.325 425.000,279.500 425.000 C 278.675 425.000,278.000 425.675,278.000 426.500 C 278.000 427.325,277.550 428.000,277.000 428.000 C 276.450 428.000,276.000 429.125,276.000 430.500 C 276.000 432.056,275.433 433.000,274.500 433.000 C 273.348 433.000,273.000 434.278,273.000 438.500 C 273.000 442.722,272.652 444.000,271.500 444.000 C 270.195 444.000,270.000 448.611,270.000 479.500 L 270.000 515.000 282.500 515.000 L 295.000 515.000 295.000 497.500 C 295.000 482.611,295.224 480.000,296.500 480.000 C 297.500 480.000,298.000 481.000,298.000 483.000 C 298.000 484.650,298.450 486.000,299.000 486.000 C 299.550 486.000,300.000 486.675,300.000 487.500 C 300.000 488.500,301.000 489.000,303.000 489.000 C 304.650 489.000,306.000 489.450,306.000 490.000 C 306.000 490.550,307.800 491.000,310.000 491.000 C 312.889 491.000,314.000 491.417,314.000 492.500 C 314.000 493.611,315.167 494.000,318.500 494.000 C 321.833 494.000,323.000 493.611,323.000 492.500 C 323.000 491.364,324.230 491.000,328.071 491.000 C 332.973 491.000,336.000 489.500,336.000 487.071 C 336.000 486.482,337.350 486.000,339.000 486.000 C 341.000 486.000,342.000 485.500,342.000 484.500 C 342.000 483.675,342.675 483.000,343.500 483.000 C 344.325 483.000,345.000 482.518,345.000 481.929 C 345.000 480.544,347.544 478.000,348.929 478.000 C 349.518 478.000,350.000 476.650,350.000 475.000 C 350.000 473.000,350.500 472.000,351.500 472.000 C 352.415 472.000,353.000 471.067,353.000 469.607 C 353.000 468.291,353.675 466.955,354.500 466.638 C 355.618 466.209,356.000 464.426,356.000 459.638 C 356.000 454.850,356.382 453.067,357.500 452.638 C 358.325 452.322,359.000 450.924,359.000 449.531 C 359.000 447.948,358.438 447.000,357.500 447.000 C 356.310 447.000,356.000 445.556,356.000 440.000 C 356.000 434.444,355.690 433.000,354.500 433.000 C 353.567 433.000,353.000 432.056,353.000 430.500 C 353.000 428.944,352.433 428.000,351.500 428.000 C 350.675 428.000,350.000 427.325,350.000 426.500 C 350.000 425.675,349.325 425.000,348.500 425.000 C 347.675 425.000,347.000 424.515,347.000 423.923 C 347.000 422.524,341.476 417.000,340.077 417.000 C 339.485 417.000,339.000 416.325,339.000 415.500 C 339.000 414.567,338.056 414.000,336.500 414.000 C 334.944 414.000,334.000 413.433,334.000 412.500 C 334.000 411.500,333.000 411.000,331.000 411.000 C 329.000 411.000,328.000 410.500,328.000 409.500 C 328.000 408.241,325.830 408.000,314.469 408.000 C 303.363 408.000,300.834 408.269,300.362 409.500 M392.000 409.500 C 392.000 410.569,390.914 411.000,388.222 411.000 C 384.585 411.000,381.000 413.488,381.000 416.011 C 381.000 416.555,379.880 417.000,378.511 417.000 C 375.251 417.000,372.000 419.857,372.000 422.722 C 372.000 423.975,371.550 425.000,371.000 425.000 C 370.450 425.000,370.000 425.675,370.000 426.500 C 370.000 427.325,369.325 428.000,368.500 428.000 C 367.567 428.000,367.000 428.944,367.000 430.500 C 367.000 432.056,366.433 433.000,365.500 433.000 C 364.389 433.000,364.000 434.167,364.000 437.500 C 364.000 440.833,363.611 442.000,362.500 442.000 C 361.272 442.000,361.000 443.722,361.000 451.500 C 361.000 459.278,361.272 461.000,362.500 461.000 C 363.583 461.000,364.000 462.111,364.000 465.000 C 364.000 467.889,364.417 469.000,365.500 469.000 C 366.500 469.000,367.000 470.000,367.000 472.000 C 367.000 474.000,367.500 475.000,368.500 475.000 C 369.325 475.000,370.000 475.482,370.000 476.071 C 370.000 477.456,372.544 480.000,373.929 480.000 C 374.518 480.000,375.000 480.675,375.000 481.500 C 375.000 482.325,375.675 483.000,376.500 483.000 C 377.325 483.000,378.000 483.675,378.000 484.500 C 378.000 485.325,378.675 486.000,379.500 486.000 C 380.325 486.000,381.000 486.675,381.000 487.500 C 381.000 488.433,381.944 489.000,383.500 489.000 C 384.875 489.000,386.000 489.450,386.000 490.000 C 386.000 490.550,388.025 491.000,390.500 491.000 C 393.833 491.000,395.000 491.389,395.000 492.500 C 395.000 493.652,396.278 494.000,400.500 494.000 C 404.722 494.000,406.000 493.652,406.000 492.500 C 406.000 491.417,407.111 491.000,410.000 491.000 C 412.200 491.000,414.000 490.550,414.000 490.000 C 414.000 489.450,414.675 489.000,415.500 489.000 C 416.325 489.000,417.000 488.325,417.000 487.500 C 417.000 486.675,417.450 486.000,418.000 486.000 C 418.550 486.000,419.000 485.325,419.000 484.500 C 419.000 483.675,419.675 483.000,420.500 483.000 C 421.325 483.000,422.000 482.325,422.000 481.500 C 422.000 480.675,422.675 480.000,423.500 480.000 C 424.652 480.000,425.000 481.278,425.000 485.500 L 425.000 491.000 436.000 491.000 L 447.000 491.000 447.000 463.500 C 447.000 439.722,446.797 436.000,445.500 436.000 C 444.567 436.000,444.000 435.056,444.000 433.500 C 444.000 432.125,443.550 431.000,443.000 431.000 C 442.450 431.000,442.000 429.650,442.000 428.000 C 442.000 426.000,441.500 425.000,440.500 425.000 C 439.675 425.000,439.000 424.325,439.000 423.500 C 439.000 422.675,438.566 422.000,438.034 422.000 C 436.728 422.000,431.000 416.328,431.000 415.034 C 431.000 414.465,429.650 414.000,428.000 414.000 C 426.000 414.000,425.000 413.500,425.000 412.500 C 425.000 411.500,424.000 411.000,422.000 411.000 C 420.000 411.000,419.000 410.500,419.000 409.500 C 419.000 408.241,416.833 408.000,405.500 408.000 C 394.167 408.000,392.000 408.241,392.000 409.500 M323.000 434.500 C 323.000 435.433,323.944 436.000,325.500 436.000 C 327.611 436.000,328.000 436.467,328.000 439.000 C 328.000 441.000,328.500 442.000,329.500 442.000 C 330.325 442.000,331.000 442.450,331.000 443.000 C 331.000 443.550,331.675 444.000,332.500 444.000 C 333.652 444.000,334.000 445.278,334.000 449.500 C 334.000 453.722,333.652 455.000,332.500 455.000 C 331.500 455.000,331.000 456.000,331.000 458.000 C 331.000 460.000,330.500 461.000,329.500 461.000 C 328.675 461.000,328.000 461.675,328.000 462.500 C 328.000 463.325,327.325 464.000,326.500 464.000 C 325.675 464.000,325.000 464.482,325.000 465.071 C 325.000 467.920,321.995 469.000,314.071 469.000 C 309.357 469.000,306.000 468.584,306.000 468.000 C 306.000 467.450,305.325 467.000,304.500 467.000 C 303.675 467.000,303.000 466.325,303.000 465.500 C 303.000 464.675,302.325 464.000,301.500 464.000 C 300.675 464.000,300.000 463.325,300.000 462.500 C 300.000 461.675,299.550 461.000,299.000 461.000 C 298.450 461.000,298.000 460.325,298.000 459.500 C 298.000 458.675,297.325 458.000,296.500 458.000 C 295.310 458.000,295.000 456.556,295.000 451.000 C 295.000 445.444,295.310 444.000,296.500 444.000 C 297.433 444.000,298.000 443.056,298.000 441.500 C 298.000 440.125,298.450 439.000,299.000 439.000 C 299.550 439.000,300.000 438.325,300.000 437.500 C 300.000 436.500,301.000 436.000,303.000 436.000 C 305.000 436.000,306.000 435.500,306.000 434.500 C 306.000 433.284,307.611 433.000,314.500 433.000 C 321.389 433.000,323.000 433.284,323.000 434.500 M414.000 434.500 C 414.000 435.325,414.675 436.000,415.500 436.000 C 416.325 436.000,417.000 436.511,417.000 437.135 C 417.000 437.760,418.125 439.313,419.500 440.588 C 420.875 441.862,422.000 443.826,422.000 444.952 C 422.000 446.106,422.655 447.000,423.500 447.000 C 424.576 447.000,425.000 448.099,425.000 450.893 C 425.000 453.431,424.478 454.986,423.500 455.362 C 422.675 455.678,422.000 456.873,422.000 458.016 C 422.000 459.160,420.875 461.138,419.500 462.412 C 418.125 463.687,417.000 465.240,417.000 465.865 C 417.000 466.489,415.650 467.000,414.000 467.000 C 412.350 467.000,411.000 467.450,411.000 468.000 C 411.000 468.571,408.000 469.000,404.000 469.000 C 400.000 469.000,397.000 468.571,397.000 468.000 C 397.000 467.450,395.875 467.000,394.500 467.000 C 392.944 467.000,392.000 466.433,392.000 465.500 C 392.000 464.675,391.325 464.000,390.500 464.000 C 389.500 464.000,389.000 463.000,389.000 461.000 C 389.000 459.000,388.500 458.000,387.500 458.000 C 386.310 458.000,386.000 456.556,386.000 451.000 C 386.000 445.444,386.310 444.000,387.500 444.000 C 388.433 444.000,389.000 443.056,389.000 441.500 C 389.000 439.944,389.567 439.000,390.500 439.000 C 391.325 439.000,392.000 438.325,392.000 437.500 C 392.000 436.567,392.944 436.000,394.500 436.000 C 396.056 436.000,397.000 435.433,397.000 434.500 C 397.000 433.284,398.611 433.000,405.500 433.000 C 412.389 433.000,414.000 433.284,414.000 434.500 " stroke="none" fill="#000000" fill-rule="evenodd"></path></g></svg>