<?xml version="1.0" encoding="UTF-8" standalone="no"?>
<svg
   xmlns:dc="http://purl.org/dc/elements/1.1/"
   xmlns:cc="http://creativecommons.org/ns#"
   xmlns:rdf="http://www.w3.org/1999/02/22-rdf-syntax-ns#"
   xmlns:svg="http://www.w3.org/2000/svg"
   xmlns="http://www.w3.org/2000/svg"
   xmlns:sodipodi="http://sodipodi.sourceforge.net/DTD/sodipodi-0.dtd"
   xmlns:inkscape="http://www.inkscape.org/namespaces/inkscape"
   id="svg"
   version="1.1"
   width="400"
   height="400"
   viewBox="0 0 400 400"
   sodipodi:docname="image2vector (10).svg"
   inkscape:version="0.92.2 (5c3e80d, 2017-08-06)">
  <metadata
     id="metadata10">
    <rdf:RDF>
      <cc:Work
         rdf:about="">
        <dc:format>image/svg+xml</dc:format>
        <dc:type
           rdf:resource="http://purl.org/dc/dcmitype/StillImage" />
      </cc:Work>
    </rdf:RDF>
  </metadata>
  <defs
     id="defs8" />
  <sodipodi:namedview
     pagecolor="#ffffff"
     bordercolor="#666666"
     borderopacity="1"
     objecttolerance="10"
     gridtolerance="10"
     guidetolerance="10"
     inkscape:pageopacity="0"
     inkscape:pageshadow="2"
     inkscape:window-width="1920"
     inkscape:window-height="1027"
     id="namedview6"
     showgrid="false"
     inkscape:zoom="0.59"
     inkscape:cx="200"
     inkscape:cy="200"
     inkscape:window-x="1912"
     inkscape:window-y="-8"
     inkscape:window-maximized="1"
     inkscape:current-layer="svg" />
  <g
     id="svgg"
     transform="translate(11.864407)">
    <path
       id="path0"
       d="m 41.2,141 c 0,0.33 -0.27,0.6 -0.6,0.6 -0.33,0 -0.6,0.329 -0.6,0.731 0,0.584 -0.24,0.695 -1.2,0.554 -1.01,-0.148 -1.2,-0.042 -1.2,0.67 0,0.484 -0.256,0.845 -0.6,0.845 -0.33,0 -0.6,0.27 -0.6,0.6 0,0.33 -0.27,0.6 -0.6,0.6 -0.33,0 -0.6,0.27 -0.6,0.6 0,0.333 -0.356,0.6 -0.8,0.6 -0.444,0 -0.8,0.267 -0.8,0.6 0,0.4 -0.4,0.6 -1.2,0.6 -0.8,0 -1.2,0.2 -1.2,0.6 0,0.33 -0.27,0.6 -0.6,0.6 -0.33,0 -0.6,0.27 -0.6,0.6 0,0.33 -0.27,0.6 -0.6,0.6 -0.333,0 -0.6,0.356 -0.6,0.8 0,0.533 -0.267,0.8 -0.8,0.8 -0.444,0 -0.8,0.267 -0.8,0.6 0,0.33 -0.27,0.6 -0.6,0.6 -0.33,0 -0.6,0.27 -0.6,0.6 0,0.33 -0.27,0.6 -0.6,0.6 -0.33,0 -0.6,0.27 -0.6,0.6 0,0.4 -0.4,0.6 -1.2,0.6 -0.8,0 -1.2,0.2 -1.2,0.6 0,0.33 -0.27,0.6 -0.6,0.6 -0.4,0 -0.6,0.4 -0.6,1.2 0,0.8 0.2,1.2 0.6,1.2 0.333,0 0.6,0.356 0.6,0.8 0,0.444 0.267,0.8 0.6,0.8 0.33,0 0.6,0.27 0.6,0.6 0,0.33 0.27,0.6 0.6,0.6 0.33,0 0.6,0.27 0.6,0.6 0,0.444 0.467,0.6 1.8,0.6 1.333,0 1.8,-0.156 1.8,-0.6 0,-0.419 0.422,-0.6 1.4,-0.6 0.978,0 1.4,-0.181 1.4,-0.6 0,-0.33 0.27,-0.6 0.6,-0.6 0.333,0 0.6,-0.356 0.6,-0.8 0,-0.622 0.267,-0.8 1.2,-0.8 0.8,0 1.2,-0.2 1.2,-0.6 0,-0.33 0.27,-0.6 0.6,-0.6 0.33,0 0.6,-0.27 0.6,-0.6 0,-0.419 0.422,-0.6 1.4,-0.6 0.978,0 1.4,-0.181 1.4,-0.6 0,-0.33 0.27,-0.6 0.6,-0.6 0.33,0 0.6,-0.27 0.6,-0.6 0,-0.33 0.27,-0.6 0.6,-0.6 0.33,0 0.6,-0.27 0.6,-0.6 0,-0.404 0.404,-0.6 1.237,-0.6 0.901,0 1.295,-0.217 1.447,-0.8 0.115,-0.44 0.458,-0.8 0.763,-0.8 0.304,0 0.553,-0.27 0.553,-0.6 0,-0.4 0.4,-0.6 1.2,-0.6 0.8,0 1.2,-0.2 1.2,-0.6 0,-0.33 0.27,-0.6 0.6,-0.6 0.444,0 0.6,-0.467 0.6,-1.8 0,-1.333 -0.156,-1.8 -0.6,-1.8 -0.33,0 -0.6,-0.27 -0.6,-0.6 0,-0.33 -0.27,-0.6 -0.6,-0.6 -0.333,0 -0.6,-0.356 -0.6,-0.8 0,-0.444 -0.267,-0.8 -0.6,-0.8 -0.33,0 -0.6,-0.27 -0.6,-0.6 0,-0.33 -0.27,-0.6 -0.6,-0.6 -0.33,0 -0.6,-0.27 -0.6,-0.6 0,-0.419 -0.422,-0.6 -1.4,-0.6 -0.978,0 -1.4,0.181 -1.4,0.6 m 263.2,7.6 c 0,0.333 -0.356,0.6 -0.8,0.6 -0.444,0 -0.8,0.267 -0.8,0.6 0,0.33 -0.27,0.6 -0.6,0.6 -0.497,0 -0.6,0.756 -0.6,4.4 0,3.48 0.116,4.4 0.553,4.4 0.305,0 0.648,0.36 0.763,0.8 0.115,0.44 0.496,0.8 0.847,0.8 0.35,0 0.637,0.27 0.637,0.6 0,0.33 0.27,0.6 0.6,0.6 0.33,0 0.6,0.27 0.6,0.6 0,0.48 0.6,0.6 3,0.6 2.4,0 3,-0.12 3,-0.6 0,-0.333 0.356,-0.6 0.8,-0.6 0.444,0 0.8,-0.267 0.8,-0.6 0,-0.33 0.27,-0.6 0.6,-0.6 0.419,0 0.6,-0.422 0.6,-1.4 0,-0.978 0.181,-1.4 0.6,-1.4 0.467,0 0.6,-0.533 0.6,-2.4 0,-1.867 -0.133,-2.4 -0.6,-2.4 -0.453,0 -0.6,-0.489 -0.6,-2 0,-1.511 -0.147,-2 -0.6,-2 -0.33,0 -0.6,-0.27 -0.6,-0.6 0,-0.497 -0.756,-0.6 -4.4,-0.6 -3.644,0 -4.4,0.103 -4.4,0.6 M 93.6,163.8 c 0,0.475 -0.574,0.6 -2.763,0.6 -2.441,0 -2.741,0.082 -2.578,0.705 0.16,0.612 -0.058,0.685 -1.664,0.557 -1.607,-0.128 -1.876,-0.037 -2.068,0.696 -0.121,0.463 -0.469,0.842 -0.774,0.842 -0.304,0 -0.553,0.27 -0.553,0.6 0,0.4 -0.4,0.6 -1.2,0.6 -0.8,0 -1.2,0.2 -1.2,0.6 0,0.33 -0.27,0.6 -0.6,0.6 -0.33,0 -0.6,0.27 -0.6,0.6 0,0.419 -0.422,0.6 -1.4,0.6 -1.333,0 -1.4,0.067 -1.4,1.4 0,0.978 -0.181,1.4 -0.6,1.4 -0.33,0 -0.6,0.27 -0.6,0.6 0,0.33 -0.27,0.6 -0.6,0.6 -0.33,0 -0.6,0.27 -0.6,0.6 0,0.33 -0.27,0.6 -0.6,0.6 -0.33,0 -0.6,0.27 -0.6,0.6 0,0.33 -0.27,0.6 -0.6,0.6 -0.395,0 -0.6,0.395 -0.6,1.153 0,0.817 -0.233,1.215 -0.8,1.363 -0.583,0.152 -0.8,0.546 -0.8,1.447 0,0.833 -0.196,1.237 -0.6,1.237 -0.444,0 -0.6,0.467 -0.6,1.8 0,1.333 -0.156,1.8 -0.6,1.8 -0.472,0 -0.6,0.556 -0.6,2.6 0,2.044 -0.128,2.6 -0.6,2.6 -0.516,0 -0.6,1.311 -0.6,9.4 0,8.089 0.084,9.4 0.6,9.4 0.472,0 0.6,0.556 0.6,2.6 0,2.044 0.128,2.6 0.6,2.6 0.453,0 0.6,0.489 0.6,2 0,1.511 0.147,2 0.6,2 0.4,0 0.6,0.4 0.6,1.2 0,0.933 0.178,1.2 0.8,1.2 0.622,0 0.8,0.267 0.8,1.2 0,0.8 0.2,1.2 0.6,1.2 0.419,0 0.6,0.422 0.6,1.4 0,0.978 0.181,1.4 0.6,1.4 0.33,0 0.6,0.27 0.6,0.6 0,0.33 0.27,0.6 0.6,0.6 0.33,0 0.6,0.27 0.6,0.6 0,0.33 0.27,0.6 0.6,0.6 0.33,0 0.6,0.27 0.6,0.6 0,0.33 0.27,0.6 0.6,0.6 0.33,0 0.6,0.27 0.6,0.6 0,0.333 0.356,0.6 0.8,0.6 0.533,0 0.8,0.267 0.8,0.8 0,0.622 0.267,0.8 1.2,0.8 0.8,0 1.2,0.2 1.2,0.6 0,0.422 0.427,0.6 1.443,0.6 1.118,0 1.391,0.135 1.212,0.6 -0.177,0.462 0.089,0.6 1.158,0.6 0.966,0 1.387,0.182 1.387,0.6 0,0.467 0.533,0.6 2.4,0.6 1.867,0 2.4,0.133 2.4,0.6 0,0.516 1.267,0.6 9,0.6 7.733,0 9,-0.084 9,-0.6 0,-0.467 0.533,-0.6 2.4,-0.6 1.867,0 2.4,-0.133 2.4,-0.6 0,-0.419 0.422,-0.6 1.4,-0.6 0.978,0 1.4,-0.181 1.4,-0.6 0,-0.4 0.4,-0.6 1.2,-0.6 0.8,0 1.2,-0.2 1.2,-0.6 0,-0.33 0.27,-0.6 0.6,-0.6 0.333,0 0.6,-0.356 0.6,-0.8 0,-0.444 0.267,-0.8 0.6,-0.8 0.33,0 0.6,-0.27 0.6,-0.6 0,-0.333 0.356,-0.6 0.8,-0.6 0.444,0 0.8,-0.267 0.8,-0.6 0,-0.33 0.27,-0.6 0.6,-0.6 0.33,0 0.6,-0.27 0.6,-0.6 0,-0.33 0.27,-0.6 0.6,-0.6 0.419,0 0.6,-0.422 0.6,-1.4 0,-0.978 0.181,-1.4 0.6,-1.4 0.33,0 0.6,-0.27 0.6,-0.6 0,-0.33 0.27,-0.6 0.6,-0.6 0.444,0 0.6,-0.467 0.6,-1.8 0,-1.333 -0.156,-1.8 -0.6,-1.8 -0.33,0 -0.6,-0.27 -0.6,-0.6 0,-0.4 -0.4,-0.6 -1.2,-0.6 -0.8,0 -1.2,-0.2 -1.2,-0.6 0,-0.419 -0.422,-0.6 -1.4,-0.6 -1.133,0 -1.4,-0.152 -1.4,-0.8 0,-0.444 -0.267,-0.8 -0.6,-0.8 -0.33,0 -0.6,-0.27 -0.6,-0.6 0,-0.4 -0.4,-0.6 -1.2,-0.6 -0.8,0 -1.2,-0.2 -1.2,-0.6 0,-0.419 -0.422,-0.6 -1.4,-0.6 -0.978,0 -1.4,-0.181 -1.4,-0.6 0,-0.444 -0.467,-0.6 -1.8,-0.6 -1.733,0 -1.8,0.044 -1.8,1.2 0,0.8 -0.2,1.2 -0.6,1.2 -0.33,0 -0.6,0.27 -0.6,0.6 0,0.33 -0.27,0.6 -0.6,0.6 -0.333,0 -0.6,0.356 -0.6,0.8 0,0.444 -0.267,0.8 -0.6,0.8 -0.33,0 -0.6,0.27 -0.6,0.6 0,0.333 -0.356,0.6 -0.8,0.6 -0.444,0 -0.8,0.267 -0.8,0.6 0,0.444 -0.467,0.6 -1.8,0.6 -1.333,0 -1.8,0.156 -1.8,0.6 0,0.472 -0.556,0.6 -2.6,0.6 -2.044,0 -2.6,-0.128 -2.6,-0.6 0,-0.444 -0.467,-0.6 -1.8,-0.6 -1.333,0 -1.8,-0.156 -1.8,-0.6 0,-0.333 -0.356,-0.6 -0.8,-0.6 -0.444,0 -0.8,-0.267 -0.8,-0.6 0,-0.33 -0.27,-0.6 -0.6,-0.6 -0.333,0 -0.6,-0.356 -0.6,-0.8 0,-0.444 -0.267,-0.8 -0.6,-0.8 -0.33,0 -0.6,-0.27 -0.6,-0.6 0,-0.33 -0.27,-0.6 -0.6,-0.6 -0.4,0 -0.6,-0.4 -0.6,-1.2 0,-0.8 -0.2,-1.2 -0.6,-1.2 -0.446,0 -0.6,-0.471 -0.6,-1.837 0,-1.501 -0.146,-1.876 -0.8,-2.047 -0.767,-0.201 -0.8,-0.546 -0.8,-8.363 0,-7.886 0.026,-8.153 0.8,-8.153 0.693,0 0.8,-0.267 0.8,-2 0,-1.511 0.147,-2 0.6,-2 0.4,0 0.6,-0.4 0.6,-1.2 0,-0.8 0.2,-1.2 0.6,-1.2 0.33,0 0.6,-0.27 0.6,-0.6 0,-0.33 0.27,-0.6 0.6,-0.6 0.33,0 0.6,-0.27 0.6,-0.6 0,-0.33 0.27,-0.6 0.6,-0.6 0.33,0 0.6,-0.249 0.6,-0.553 0,-0.305 0.36,-0.648 0.8,-0.763 0.44,-0.115 0.8,-0.496 0.8,-0.847 0,-0.441 0.369,-0.637 1.2,-0.637 0.8,0 1.2,-0.2 1.2,-0.6 0,-0.491 0.689,-0.6 3.8,-0.6 3.111,0 3.8,0.109 3.8,0.6 0,0.4 0.4,0.6 1.2,0.6 0.831,0 1.2,0.196 1.2,0.637 0,0.351 0.36,0.732 0.8,0.847 0.44,0.115 0.8,0.458 0.8,0.763 0,0.304 0.27,0.553 0.6,0.553 0.4,0 0.6,0.4 0.6,1.2 0,0.8 0.2,1.2 0.6,1.2 0.33,0 0.6,0.27 0.6,0.6 0,0.33 0.27,0.6 0.6,0.6 0.419,0 0.6,0.422 0.6,1.4 0,1.393 0.01,1.4 1.8,1.4 1.533,0 1.8,-0.119 1.8,-0.8 0,-0.648 0.267,-0.8 1.4,-0.8 0.978,0 1.4,-0.181 1.4,-0.6 0,-0.4 0.4,-0.6 1.2,-0.6 0.8,0 1.2,-0.2 1.2,-0.6 0,-0.33 0.27,-0.6 0.6,-0.6 0.33,0 0.6,-0.27 0.6,-0.6 0,-0.419 0.422,-0.6 1.4,-0.6 0.978,0 1.4,-0.181 1.4,-0.6 0,-0.4 0.4,-0.6 1.2,-0.6 0.8,0 1.2,-0.2 1.2,-0.6 0,-0.33 0.27,-0.6 0.6,-0.6 0.419,0 0.6,-0.422 0.6,-1.4 0,-0.978 -0.181,-1.4 -0.6,-1.4 -0.33,0 -0.6,-0.27 -0.6,-0.6 0,-0.33 -0.27,-0.6 -0.6,-0.6 -0.4,0 -0.6,-0.4 -0.6,-1.2 0,-0.8 -0.2,-1.2 -0.6,-1.2 -0.4,0 -0.6,-0.4 -0.6,-1.2 0,-0.8 -0.2,-1.2 -0.6,-1.2 -0.33,0 -0.6,-0.287 -0.6,-0.637 0,-0.351 -0.36,-0.732 -0.8,-0.847 -0.44,-0.115 -0.8,-0.458 -0.8,-0.763 0,-0.304 -0.27,-0.553 -0.6,-0.553 -0.33,0 -0.6,-0.27 -0.6,-0.6 0,-0.33 -0.27,-0.6 -0.6,-0.6 -0.33,0 -0.6,-0.27 -0.6,-0.6 0,-0.4 -0.4,-0.6 -1.2,-0.6 -0.8,0 -1.2,-0.2 -1.2,-0.6 0,-0.333 -0.356,-0.6 -0.8,-0.6 -0.533,0 -0.8,-0.267 -0.8,-0.8 0,-0.684 -0.267,-0.8 -1.843,-0.8 -1.473,0 -1.796,-0.12 -1.612,-0.6 0.191,-0.498 -0.244,-0.6 -2.558,-0.6 -2.211,0 -2.787,-0.124 -2.787,-0.6 0,-0.51 -1.022,-0.6 -6.8,-0.6 -5.778,0 -6.8,0.09 -6.8,0.6 m 62,0 c 0,0.467 -0.535,0.6 -2.413,0.6 -1.775,0 -2.473,0.158 -2.642,0.6 -0.155,0.404 -0.838,0.615 -2.088,0.646 -1.021,0.026 -1.542,0.129 -1.157,0.23 1.203,0.314 0.821,1.324 -0.5,1.324 -0.8,0 -1.2,0.2 -1.2,0.6 0,0.419 -0.422,0.6 -1.4,0.6 -0.978,0 -1.4,0.181 -1.4,0.6 0,0.33 -0.27,0.6 -0.6,0.6 -0.33,0 -0.6,0.27 -0.6,0.6 0,0.33 -0.27,0.6 -0.6,0.6 -0.343,0 -0.6,0.36 -0.6,0.843 0,0.585 -0.184,0.772 -0.6,0.612 -0.408,-0.156 -0.6,0.022 -0.6,0.558 0,0.433 -0.27,0.787 -0.6,0.787 -0.33,0 -0.6,0.27 -0.6,0.6 0,0.333 -0.356,0.6 -0.8,0.6 -0.444,0 -0.8,0.267 -0.8,0.6 0,0.33 -0.27,0.6 -0.6,0.6 -0.33,0 -0.6,0.27 -0.6,0.6 0,0.33 -0.27,0.6 -0.6,0.6 -0.4,0 -0.6,0.4 -0.6,1.2 0,0.8 -0.2,1.2 -0.6,1.2 -0.453,0 -0.6,0.489 -0.6,2 0,1.511 -0.147,2 -0.6,2 -0.4,0 -0.6,0.4 -0.6,1.2 0,0.8 -0.2,1.2 -0.6,1.2 -0.483,0 -0.6,0.622 -0.6,3.2 0,2.933 -0.067,3.2 -0.8,3.2 -0.774,0 -0.8,0.267 -0.8,8.363 0,8.165 0.019,8.357 0.8,8.153 0.751,-0.197 0.8,-0.012 0.8,3.037 0,2.62 0.116,3.247 0.6,3.247 0.453,0 0.6,0.489 0.6,2 0,1.511 0.147,2 0.6,2 0.4,0 0.6,0.4 0.6,1.2 0,0.8 0.2,1.2 0.6,1.2 0.4,0 0.6,0.4 0.6,1.2 0,0.8 0.2,1.2 0.6,1.2 0.33,0 0.6,0.27 0.6,0.6 0,0.33 0.27,0.6 0.6,0.6 0.419,0 0.6,0.422 0.6,1.4 0,1.133 0.152,1.4 0.8,1.4 0.444,0 0.8,0.267 0.8,0.6 0,0.33 0.27,0.6 0.6,0.6 0.33,0 0.6,0.27 0.6,0.6 0,0.4 0.4,0.6 1.2,0.6 0.8,0 1.2,0.2 1.2,0.6 0,0.33 0.249,0.6 0.553,0.6 0.305,0 0.648,0.36 0.763,0.8 0.115,0.44 0.496,0.8 0.847,0.8 0.35,0 0.637,0.27 0.637,0.6 0,0.4 0.4,0.6 1.2,0.6 0.8,0 1.2,0.2 1.2,0.6 0,0.4 0.4,0.6 1.2,0.6 0.8,0 1.2,0.2 1.2,0.6 0,0.472 0.556,0.6 2.6,0.6 2.044,0 2.6,0.128 2.6,0.6 0,0.508 0.956,0.6 6.2,0.6 5.244,0 6.2,-0.092 6.2,-0.6 0,-0.333 0.356,-0.6 0.8,-0.6 0.681,0 0.8,-0.267 0.8,-1.8 0,-1.333 0.156,-1.8 0.6,-1.8 0.419,0 0.6,-0.422 0.6,-1.4 0,-0.978 0.181,-1.4 0.6,-1.4 0.4,0 0.6,-0.4 0.6,-1.2 0,-0.8 0.2,-1.2 0.6,-1.2 0.33,0 0.6,-0.257 0.6,-0.571 0,-0.314 0.315,-0.653 0.7,-0.753 0.667,-0.174 0.667,-0.185 0,-0.23 -0.851,-0.056 -0.947,-1.246 -0.1,-1.246 0.33,0 0.6,-0.27 0.6,-0.6 0,-0.333 0.356,-0.6 0.8,-0.6 0.444,0 0.8,-0.267 0.8,-0.6 0,-0.33 0.27,-0.6 0.6,-0.6 0.33,0 0.6,-0.27 0.6,-0.6 0,-0.4 0.4,-0.6 1.2,-0.6 0.8,0 1.2,-0.2 1.2,-0.6 0,-0.33 0.27,-0.6 0.6,-0.6 0.33,0 0.6,-0.27 0.6,-0.6 0,-0.404 0.404,-0.6 1.237,-0.6 0.901,0 1.295,-0.217 1.447,-0.8 0.148,-0.567 0.546,-0.8 1.363,-0.8 0.758,0 1.153,-0.205 1.153,-0.6 0,-0.444 0.467,-0.6 1.8,-0.6 1.333,0 1.8,-0.156 1.8,-0.6 0,-0.483 0.622,-0.6 3.2,-0.6 2.578,0 3.2,-0.117 3.2,-0.6 0,-0.33 0.27,-0.6 0.6,-0.6 0.483,0 0.6,-0.622 0.6,-3.2 0,-2.672 0.106,-3.2 0.643,-3.2 0.407,0 0.558,0.22 0.412,0.6 -0.126,0.33 -0.056,0.6 0.158,0.6 0.236,0 0.387,-2.951 0.387,-7.563 0,-7.365 -0.021,-7.557 -0.8,-7.353 -0.754,0.197 -0.8,0.012 -0.8,-3.237 0,-2.797 -0.113,-3.447 -0.6,-3.447 -0.444,0 -0.6,-0.467 -0.6,-1.8 0,-1.333 -0.156,-1.8 -0.6,-1.8 -0.4,0 -0.6,-0.4 -0.6,-1.2 0,-0.8 -0.2,-1.2 -0.6,-1.2 -0.419,0 -0.6,-0.422 -0.6,-1.4 0,-0.978 -0.181,-1.4 -0.6,-1.4 -0.4,0 -0.6,-0.4 -0.6,-1.2 0,-0.8 -0.2,-1.2 -0.6,-1.2 -0.33,0 -0.6,-0.27 -0.6,-0.6 0,-0.333 -0.356,-0.6 -0.8,-0.6 -0.444,0 -0.8,-0.267 -0.8,-0.6 0,-0.33 -0.27,-0.6 -0.6,-0.6 -0.333,0 -0.6,-0.356 -0.6,-0.8 0,-0.444 -0.267,-0.8 -0.6,-0.8 -0.33,0 -0.6,-0.27 -0.6,-0.6 0,-0.33 -0.27,-0.6 -0.6,-0.6 -0.33,0 -0.6,-0.27 -0.6,-0.6 0,-0.33 -0.27,-0.6 -0.6,-0.6 -0.33,0 -0.6,-0.27 -0.6,-0.6 0,-0.419 -0.422,-0.6 -1.4,-0.6 -0.978,0 -1.4,-0.181 -1.4,-0.6 0,-0.4 -0.4,-0.6 -1.2,-0.6 -0.933,0 -1.2,-0.178 -1.2,-0.8 0,-0.616 -0.267,-0.8 -1.157,-0.8 -0.66,0 -1.256,-0.258 -1.388,-0.6 -0.176,-0.46 -0.934,-0.6 -3.242,-0.6 -2.412,0 -3.013,-0.12 -3.013,-0.6 0,-0.51 -1.044,-0.6 -7,-0.6 -5.956,0 -7,0.09 -7,0.6 m -128.4,5.218 c 0,0.339 -0.225,0.588 -0.5,0.552 -1.648,-0.214 -3.1,0.081 -3.1,0.63 0,0.4 -0.4,0.6 -1.2,0.6 -0.8,0 -1.2,0.2 -1.2,0.6 0,0.419 -0.422,0.6 -1.4,0.6 -1.133,0 -1.4,0.152 -1.4,0.8 0,0.444 -0.267,0.8 -0.6,0.8 -0.33,0 -0.6,0.27 -0.6,0.6 0,0.33 -0.27,0.6 -0.6,0.6 -0.33,0 -0.6,0.27 -0.6,0.6 0,0.33 -0.27,0.6 -0.6,0.6 -0.33,0 -0.6,0.27 -0.6,0.6 0,0.33 -0.27,0.6 -0.6,0.6 -0.395,0 -0.6,0.395 -0.6,1.153 0,0.817 -0.233,1.215 -0.8,1.363 -0.44,0.115 -0.8,0.496 -0.8,0.847 0,0.35 -0.27,0.637 -0.6,0.637 -0.444,0 -0.6,0.467 -0.6,1.8 0,1.333 -0.156,1.8 -0.6,1.8 -0.453,0 -0.6,0.489 -0.6,2 0,1.511 -0.147,2 -0.6,2 -0.518,0 -0.6,1.444 -0.6,10.6 0,9.156 0.082,10.6 0.6,10.6 0.419,0 0.6,0.422 0.6,1.4 0,0.978 0.181,1.4 0.6,1.4 0.444,0 0.6,0.467 0.6,1.8 0,1.333 0.156,1.8 0.6,1.8 0.404,0 0.6,0.404 0.6,1.237 0,0.901 0.217,1.295 0.8,1.447 0.44,0.115 0.8,0.458 0.8,0.763 0,0.304 0.27,0.553 0.6,0.553 0.33,0 0.6,0.27 0.6,0.6 0,0.33 0.27,0.6 0.6,0.6 0.33,0 0.6,0.27 0.6,0.6 0,0.33 0.27,0.6 0.6,0.6 0.33,0 0.6,0.27 0.6,0.6 0,0.33 0.27,0.6 0.6,0.6 0.33,0 0.6,0.27 0.6,0.6 0,0.419 0.422,0.6 1.4,0.6 1.133,0 1.4,0.152 1.4,0.8 0,0.444 0.267,0.8 0.6,0.8 0.33,0 0.6,0.27 0.6,0.6 0,0.473 0.56,0.6 2.643,0.6 2.185,0 2.603,0.104 2.412,0.6 -0.2,0.523 1,0.6 9.358,0.6 8.255,0 9.587,-0.083 9.587,-0.6 0,-0.4 0.4,-0.6 1.2,-0.6 0.8,0 1.2,-0.2 1.2,-0.6 0,-0.404 0.404,-0.6 1.237,-0.6 0.901,0 1.295,-0.217 1.447,-0.8 0.115,-0.44 0.458,-0.8 0.763,-0.8 0.304,0 0.553,-0.27 0.553,-0.6 0,-0.33 0.27,-0.6 0.6,-0.6 0.33,0 0.6,-0.27 0.6,-0.6 0,-0.33 0.27,-0.6 0.6,-0.6 0.33,0 0.6,-0.27 0.6,-0.6 0,-0.33 0.27,-0.6 0.6,-0.6 0.33,0 0.6,-0.27 0.6,-0.6 0,-0.33 0.27,-0.6 0.6,-0.6 0.419,0 0.6,-0.422 0.6,-1.4 0,-1.133 0.152,-1.4 0.8,-1.4 0.622,0 0.8,-0.267 0.8,-1.2 0,-0.933 -0.178,-1.2 -0.8,-1.2 -0.444,0 -0.8,-0.267 -0.8,-0.6 0,-0.4 -0.4,-0.6 -1.2,-0.6 -0.8,0 -1.2,-0.2 -1.2,-0.6 0,-0.33 -0.27,-0.6 -0.6,-0.6 -0.33,0 -0.6,-0.27 -0.6,-0.6 0,-0.444 -0.467,-0.6 -1.8,-0.6 -1.733,0 -1.8,0.044 -1.8,1.2 0,0.933 -0.178,1.2 -0.8,1.2 -0.444,0 -0.8,0.267 -0.8,0.6 0,0.33 -0.27,0.6 -0.6,0.6 -0.33,0 -0.6,0.27 -0.6,0.6 0,0.33 -0.27,0.6 -0.6,0.6 -0.333,0 -0.6,0.356 -0.6,0.8 0,0.444 -0.267,0.8 -0.6,0.8 -0.33,0 -0.6,0.27 -0.6,0.6 0,0.4 -0.4,0.6 -1.2,0.6 -0.8,0 -1.2,0.2 -1.2,0.6 0,0.506 -0.911,0.6 -5.8,0.6 -4.889,0 -5.8,-0.094 -5.8,-0.6 0,-0.453 -0.489,-0.6 -2,-0.6 -1.511,0 -2,-0.147 -2,-0.6 0,-0.33 -0.27,-0.6 -0.6,-0.6 -0.333,0 -0.6,-0.356 -0.6,-0.8 0,-0.444 -0.267,-0.8 -0.6,-0.8 -0.33,0 -0.6,-0.27 -0.6,-0.6 0,-0.33 -0.27,-0.6 -0.6,-0.6 -0.33,0 -0.6,-0.27 -0.6,-0.6 0,-0.33 -0.27,-0.6 -0.6,-0.6 -0.4,0 -0.6,-0.4 -0.6,-1.2 0,-0.933 -0.178,-1.2 -0.8,-1.2 -0.648,0 -0.8,-0.267 -0.8,-1.4 0,-0.978 -0.181,-1.4 -0.6,-1.4 -0.467,0 -0.6,-0.533 -0.6,-2.4 0,-1.867 -0.133,-2.4 -0.6,-2.4 -0.453,0 -0.6,-0.489 -0.6,-2 v -2 h 20.4 c 17.867,0 20.4,-0.075 20.4,-0.6 0,-0.33 0.27,-0.6 0.6,-0.6 0.453,0 0.6,-0.489 0.6,-2 0,-1.511 -0.147,-2 -0.6,-2 -0.497,0 -0.6,-0.756 -0.6,-4.4 0,-4.133 -0.048,-4.4 -0.8,-4.4 -0.681,0 -0.8,-0.267 -0.8,-1.8 0,-1.333 -0.156,-1.8 -0.6,-1.8 -0.419,0 -0.6,-0.422 -0.6,-1.4 0,-0.978 -0.181,-1.4 -0.6,-1.4 -0.4,0 -0.6,-0.4 -0.6,-1.2 0,-0.8 -0.2,-1.2 -0.6,-1.2 -0.33,0 -0.6,-0.27 -0.6,-0.6 0,-0.33 -0.27,-0.6 -0.6,-0.6 -0.33,0 -0.6,-0.27 -0.6,-0.6 0,-0.33 -0.27,-0.6 -0.6,-0.6 -0.33,0 -0.6,-0.27 -0.6,-0.6 0,-0.333 -0.356,-0.6 -0.8,-0.6 -0.548,0 -0.8,-0.267 -0.8,-0.845 0,-0.712 -0.19,-0.818 -1.2,-0.67 -0.96,0.141 -1.2,0.03 -1.2,-0.554 0,-0.546 -0.305,-0.731 -1.2,-0.731 -0.8,0 -1.2,-0.2 -1.2,-0.6 0,-0.453 -0.489,-0.6 -2,-0.6 -1.511,0 -2,-0.147 -2,-0.6 0,-0.51 -1.044,-0.6 -7,-0.6 -6.044,0 -7,0.084 -7,0.618 M 230.4,169 c 0,0.48 -0.6,0.6 -3,0.6 -2.4,0 -3,0.12 -3,0.6 0,0.419 -0.422,0.6 -1.4,0.6 -0.978,0 -1.4,0.181 -1.4,0.6 0,0.4 -0.4,0.6 -1.2,0.6 -0.933,0 -1.2,0.178 -1.2,0.8 0,0.648 -0.267,0.8 -1.4,0.8 -1.333,0 -1.4,-0.067 -1.4,-1.4 v -1.4 h -5 -5 v 24.2 24.2 h 1.2 c 0.8,0 1.2,0.2 1.2,0.6 0,0.333 0.356,0.6 0.8,0.6 0.444,0 0.8,0.267 0.8,0.6 0,0.33 0.27,0.6 0.6,0.6 0.33,0 0.6,0.27 0.6,0.6 0,0.33 0.27,0.6 0.6,0.6 0.33,0 0.6,0.27 0.6,0.6 0,0.33 0.27,0.6 0.6,0.6 0.33,0 0.6,0.27 0.6,0.6 0,0.33 0.27,0.6 0.6,0.6 0.333,0 0.6,0.356 0.6,0.8 0,0.622 0.267,0.8 1.2,0.8 h 1.2 v -21.6 -21.6 h 1.4 c 0.978,0 1.4,-0.181 1.4,-0.6 0,-0.33 0.27,-0.6 0.6,-0.6 0.333,0 0.6,-0.356 0.6,-0.8 0,-0.622 0.267,-0.8 1.2,-0.8 0.8,0 1.2,-0.2 1.2,-0.6 0,-0.419 0.422,-0.6 1.4,-0.6 0.978,0 1.4,-0.181 1.4,-0.6 0,-0.501 0.822,-0.6 5,-0.6 4.178,0 5,0.099 5,0.6 0,0.33 0.27,0.6 0.6,0.6 0.33,0 0.6,0.27 0.6,0.6 0,0.333 0.356,0.6 0.8,0.6 0.533,0 0.8,0.267 0.8,0.8 0,0.444 0.267,0.8 0.6,0.8 0.33,0 0.6,0.27 0.6,0.6 0,0.33 0.27,0.6 0.6,0.6 0.444,0 0.6,0.467 0.6,1.8 0,1.333 0.156,1.8 0.6,1.8 0.526,0 0.6,2.6 0.6,21 v 21 h 5 5 v -22.8 -22.8 h 1.213 c 0.708,0 1.308,-0.249 1.442,-0.6 0.127,-0.33 0.481,-0.6 0.788,-0.6 0.306,0 0.557,-0.36 0.557,-0.8 0,-0.622 0.267,-0.8 1.2,-0.8 0.8,0 1.2,-0.2 1.2,-0.6 0,-0.4 0.4,-0.6 1.2,-0.6 0.8,0 1.2,-0.2 1.2,-0.6 0,-0.503 0.844,-0.6 5.2,-0.6 4.356,0 5.2,0.097 5.2,0.6 0,0.419 0.422,0.6 1.4,0.6 0.978,0 1.4,0.181 1.4,0.6 0,0.33 0.27,0.6 0.6,0.6 0.333,0 0.6,0.356 0.6,0.8 0,0.444 0.267,0.8 0.6,0.8 0.4,0 0.6,0.4 0.6,1.2 0,0.8 0.2,1.2 0.6,1.2 0.472,0 0.6,0.556 0.6,2.6 0,2.044 0.128,2.6 0.6,2.6 0.525,0 0.6,2.444 0.6,19.6 v 19.6 h 5.8 5.8 v -19.763 c 0,-19.565 -0.008,-19.76 -0.8,-19.553 -0.765,0.2 -0.8,0.012 -0.8,-4.237 0,-3.686 -0.103,-4.447 -0.6,-4.447 -0.419,0 -0.6,-0.422 -0.6,-1.4 0,-0.978 -0.181,-1.4 -0.6,-1.4 -0.4,0 -0.6,-0.4 -0.6,-1.2 0,-0.8 -0.2,-1.2 -0.6,-1.2 -0.33,0 -0.6,-0.27 -0.6,-0.6 0,-0.33 -0.27,-0.6 -0.6,-0.6 -0.33,0 -0.6,-0.27 -0.6,-0.6 0,-0.33 -0.27,-0.6 -0.6,-0.6 -0.33,0 -0.6,-0.287 -0.6,-0.637 0,-0.351 -0.36,-0.732 -0.8,-0.847 -0.44,-0.115 -0.8,-0.458 -0.8,-0.763 0,-0.348 -0.445,-0.553 -1.2,-0.553 -0.8,0 -1.2,-0.2 -1.2,-0.6 0,-0.483 -0.622,-0.6 -3.2,-0.6 -2.578,0 -3.2,-0.117 -3.2,-0.6 0,-0.491 -0.689,-0.6 -3.8,-0.6 -3.111,0 -3.8,0.109 -3.8,0.6 0,0.483 -0.622,0.6 -3.2,0.6 -2.578,0 -3.2,0.117 -3.2,0.6 0,0.444 -0.467,0.6 -1.8,0.6 -1.333,0 -1.8,0.156 -1.8,0.6 0,0.4 -0.4,0.6 -1.2,0.6 -0.933,0 -1.2,0.178 -1.2,0.8 0,0.533 -0.267,0.8 -0.8,0.8 -0.44,0 -0.8,0.241 -0.8,0.535 0,0.358 -0.598,0.558 -1.8,0.603 -1.368,0.052 -1.8,-0.076 -1.8,-0.535 0,-0.336 -0.354,-0.603 -0.8,-0.603 -0.533,0 -0.8,-0.267 -0.8,-0.8 0,-0.444 -0.267,-0.8 -0.6,-0.8 -0.33,0 -0.6,-0.27 -0.6,-0.6 0,-0.4 -0.4,-0.6 -1.2,-0.6 -0.8,0 -1.2,-0.2 -1.2,-0.6 0,-0.483 -0.622,-0.6 -3.2,-0.6 -2.578,0 -3.2,-0.117 -3.2,-0.6 0,-0.483 -0.622,-0.6 -3.2,-0.6 -2.578,0 -3.2,0.117 -3.2,0.6 m 72.4,31 v 29.2 h 5.8 5.8 V 200 170.8 h -5.8 -5.8 V 200 m 16.8,-27.2 c 0,1.511 0.147,2 0.6,2 0.33,0 0.6,0.27 0.6,0.6 0,0.33 0.27,0.6 0.6,0.6 0.4,0 0.6,0.4 0.6,1.2 0,0.8 0.2,1.2 0.6,1.2 0.33,0 0.6,0.27 0.6,0.6 0,0.33 0.27,0.6 0.6,0.6 0.401,0 0.6,0.401 0.6,1.213 0,0.708 0.249,1.308 0.6,1.442 0.33,0.127 0.6,0.481 0.6,0.788 0,0.306 0.36,0.557 0.8,0.557 0.622,0 0.8,0.267 0.8,1.2 0,0.8 0.2,1.2 0.6,1.2 0.33,0 0.6,0.27 0.6,0.6 0,0.33 0.27,0.6 0.6,0.6 0.419,0 0.6,0.422 0.6,1.4 0,0.978 0.181,1.4 0.6,1.4 0.4,0 0.6,0.4 0.6,1.2 0,0.8 0.2,1.2 0.6,1.2 0.33,0 0.6,0.27 0.6,0.6 0,0.333 0.356,0.6 0.8,0.6 0.444,0 0.8,0.267 0.8,0.6 0,0.33 0.27,0.6 0.6,0.6 0.419,0 0.6,0.422 0.6,1.4 0,0.978 0.181,1.4 0.6,1.4 0.444,0 0.6,0.467 0.6,1.8 0,1.333 -0.156,1.8 -0.6,1.8 -0.333,0 -0.6,0.356 -0.6,0.8 0,0.444 -0.267,0.8 -0.6,0.8 -0.4,0 -0.6,0.4 -0.6,1.2 0,0.933 -0.178,1.2 -0.8,1.2 -0.444,0 -0.8,0.267 -0.8,0.6 0,0.33 -0.27,0.6 -0.6,0.6 -0.4,0 -0.6,0.4 -0.6,1.2 0,0.8 -0.2,1.2 -0.6,1.2 -0.333,0 -0.6,0.356 -0.6,0.8 0,0.444 -0.267,0.8 -0.6,0.8 -0.4,0 -0.6,0.4 -0.6,1.2 0,0.8 -0.2,1.2 -0.6,1.2 -0.33,0 -0.6,0.27 -0.6,0.6 0,0.333 -0.356,0.6 -0.8,0.6 -0.616,0 -0.8,0.267 -0.8,1.157 0,0.66 -0.258,1.256 -0.6,1.388 -0.33,0.126 -0.6,0.506 -0.6,0.842 0,0.337 -0.27,0.613 -0.6,0.613 -0.4,0 -0.6,0.4 -0.6,1.2 0,0.8 -0.2,1.2 -0.6,1.2 -0.33,0 -0.6,0.27 -0.6,0.6 0,0.33 -0.27,0.6 -0.6,0.6 -0.419,0 -0.6,0.422 -0.6,1.4 0,0.978 -0.181,1.4 -0.6,1.4 -0.405,0 -0.6,0.405 -0.6,1.247 0,1.049 -0.126,1.213 -0.8,1.037 -0.684,-0.179 -0.8,-0.012 -0.8,1.153 v 1.363 h 5.8 c 4.889,0 5.8,-0.094 5.8,-0.6 0,-0.33 0.27,-0.6 0.6,-0.6 0.33,0 0.6,-0.27 0.6,-0.6 0,-0.33 0.27,-0.6 0.6,-0.6 0.419,0 0.6,-0.422 0.6,-1.4 0,-0.978 0.181,-1.4 0.6,-1.4 0.33,0 0.6,-0.27 0.6,-0.6 0,-0.333 0.356,-0.6 0.8,-0.6 0.622,0 0.8,-0.267 0.8,-1.2 0,-0.8 0.2,-1.2 0.6,-1.2 0.33,0 0.6,-0.27 0.6,-0.6 0,-0.33 0.27,-0.6 0.6,-0.6 0.419,0 0.6,-0.422 0.6,-1.4 0,-0.978 0.181,-1.4 0.6,-1.4 0.4,0 0.6,-0.4 0.6,-1.2 0,-0.8 0.2,-1.2 0.6,-1.2 0.33,0 0.6,-0.27 0.6,-0.6 0,-0.33 0.27,-0.6 0.6,-0.6 0.419,0 0.6,-0.422 0.6,-1.4 0,-1.333 0.067,-1.4 1.4,-1.4 1.133,0 1.4,0.152 1.4,0.8 0,0.444 0.267,0.8 0.6,0.8 0.4,0 0.6,0.4 0.6,1.2 0,0.8 0.2,1.2 0.6,1.2 0.33,0 0.6,0.27 0.6,0.6 0,0.33 0.27,0.6 0.6,0.6 0.4,0 0.6,0.4 0.6,1.2 0,0.933 0.178,1.2 0.8,1.2 0.533,0 0.8,0.267 0.8,0.8 0,0.444 0.267,0.8 0.6,0.8 0.4,0 0.6,0.4 0.6,1.2 0,0.8 0.2,1.2 0.6,1.2 0.33,0 0.6,0.27 0.6,0.6 0,0.33 0.27,0.6 0.6,0.6 0.4,0 0.6,0.4 0.6,1.2 0,0.8 0.2,1.2 0.6,1.2 0.33,0 0.6,0.343 0.6,0.763 0,0.565 0.207,0.708 0.8,0.553 0.691,-0.181 0.8,-0.012 0.8,1.237 v 1.447 h 5.6 5.6 v -1.8 c 0,-1.333 -0.156,-1.8 -0.6,-1.8 -0.419,0 -0.6,-0.422 -0.6,-1.4 0,-0.978 -0.181,-1.4 -0.6,-1.4 -0.33,0 -0.6,-0.27 -0.6,-0.6 0,-0.333 -0.356,-0.6 -0.8,-0.6 -0.622,0 -0.8,-0.267 -0.8,-1.2 0,-0.8 -0.2,-1.2 -0.6,-1.2 -0.33,0 -0.6,-0.27 -0.6,-0.6 0,-0.33 -0.27,-0.6 -0.6,-0.6 -0.419,0 -0.6,-0.422 -0.6,-1.4 0,-0.978 -0.181,-1.4 -0.6,-1.4 -0.33,0 -0.6,-0.27 -0.6,-0.6 0,-0.33 -0.27,-0.6 -0.6,-0.6 -0.4,0 -0.6,-0.4 -0.6,-1.2 0,-0.933 -0.178,-1.2 -0.8,-1.2 -0.648,0 -0.8,-0.267 -0.8,-1.4 0,-0.978 -0.181,-1.4 -0.6,-1.4 -0.33,0 -0.6,-0.27 -0.6,-0.6 0,-0.33 -0.27,-0.6 -0.6,-0.6 -0.4,0 -0.6,-0.4 -0.6,-1.2 0,-0.8 -0.2,-1.2 -0.6,-1.2 -0.33,0 -0.6,-0.27 -0.6,-0.6 0,-0.33 -0.27,-0.6 -0.6,-0.6 -0.419,0 -0.6,-0.422 -0.6,-1.4 0,-0.978 -0.181,-1.4 -0.6,-1.4 -0.33,0 -0.6,-0.27 -0.6,-0.6 0,-0.333 -0.356,-0.6 -0.8,-0.6 -0.444,0 -0.8,-0.267 -0.8,-0.6 0,-0.333 0.356,-0.6 0.8,-0.6 0.648,0 0.8,-0.267 0.8,-1.4 0,-0.978 0.181,-1.4 0.6,-1.4 0.33,0 0.6,-0.27 0.6,-0.6 0,-0.33 0.27,-0.6 0.6,-0.6 0.4,0 0.6,-0.4 0.6,-1.2 0,-0.8 0.2,-1.2 0.6,-1.2 0.33,0 0.6,-0.27 0.6,-0.6 0,-0.33 0.27,-0.6 0.6,-0.6 0.419,0 0.6,-0.422 0.6,-1.4 0,-0.978 0.181,-1.4 0.6,-1.4 0.33,0 0.6,-0.27 0.6,-0.6 0,-0.333 0.356,-0.6 0.8,-0.6 0.622,0 0.8,-0.267 0.8,-1.2 0,-0.8 0.2,-1.2 0.6,-1.2 0.33,0 0.6,-0.27 0.6,-0.6 0,-0.33 0.27,-0.6 0.6,-0.6 0.419,0 0.6,-0.422 0.6,-1.4 0,-0.978 0.181,-1.4 0.6,-1.4 0.4,0 0.6,-0.4 0.6,-1.2 0,-0.8 0.2,-1.2 0.6,-1.2 0.33,0 0.6,-0.27 0.6,-0.6 0,-0.333 0.356,-0.6 0.8,-0.6 0.622,0 0.8,-0.267 0.8,-1.2 0,-0.8 0.2,-1.2 0.6,-1.2 0.333,0 0.6,-0.356 0.6,-0.8 0,-0.444 0.267,-0.8 0.6,-0.8 0.4,0 0.6,-0.4 0.6,-1.2 v -1.2 h -6.4 -6.4 v 1.4 c 0,0.978 -0.181,1.4 -0.6,1.4 -0.4,0 -0.6,0.4 -0.6,1.2 0,0.8 -0.2,1.2 -0.6,1.2 -0.33,0 -0.6,0.27 -0.6,0.6 0,0.33 -0.27,0.6 -0.6,0.6 -0.4,0 -0.6,0.4 -0.6,1.2 0,0.8 -0.2,1.2 -0.6,1.2 -0.333,0 -0.6,0.356 -0.6,0.8 0,0.533 -0.267,0.8 -0.8,0.8 -0.622,0 -0.8,0.267 -0.8,1.2 0,0.8 -0.2,1.2 -0.6,1.2 -0.33,0 -0.6,0.27 -0.6,0.6 0,0.33 -0.27,0.6 -0.6,0.6 -0.4,0 -0.6,0.4 -0.6,1.2 0,0.8 -0.2,1.2 -0.6,1.2 -0.333,0 -0.6,0.356 -0.6,0.8 0,0.44 -0.249,0.8 -0.553,0.8 -0.305,0 -0.648,-0.36 -0.763,-0.8 -0.115,-0.44 -0.496,-0.8 -0.847,-0.8 -0.35,0 -0.637,-0.27 -0.637,-0.6 0,-0.33 -0.27,-0.6 -0.6,-0.6 -0.4,0 -0.6,-0.4 -0.6,-1.2 0,-0.8 -0.2,-1.2 -0.6,-1.2 -0.4,0 -0.6,-0.4 -0.6,-1.2 0,-0.8 -0.2,-1.2 -0.6,-1.2 -0.333,0 -0.6,-0.356 -0.6,-0.8 0,-0.444 -0.267,-0.8 -0.6,-0.8 -0.4,0 -0.6,-0.4 -0.6,-1.2 0,-0.8 -0.2,-1.2 -0.6,-1.2 -0.4,0 -0.6,-0.4 -0.6,-1.2 0,-0.933 -0.178,-1.2 -0.8,-1.2 -0.444,0 -0.8,-0.267 -0.8,-0.6 0,-0.33 -0.27,-0.6 -0.6,-0.6 -0.419,0 -0.6,-0.422 -0.6,-1.4 v -1.4 h -6.2 -6.2 v 2 m -283.2,5 c 0,0.444 0.467,0.6 1.8,0.6 1.333,0 1.8,0.156 1.8,0.6 0,0.419 0.422,0.6 1.4,0.6 0.978,0 1.4,0.181 1.4,0.6 0,0.33 0.27,0.6 0.6,0.6 0.333,0 0.6,0.356 0.6,0.8 0,0.444 0.267,0.8 0.6,0.8 0.4,0 0.6,0.4 0.6,1.2 0,0.8 0.2,1.2 0.6,1.2 0.4,0 0.6,0.4 0.6,1.2 0,0.8 0.2,1.2 0.6,1.2 0.453,0 0.6,0.489 0.6,2 v 2 H 34.2 c -13.36,0 -13.4,-0.003 -13.4,-0.843 0,-0.585 -0.184,-0.772 -0.6,-0.612 -0.408,0.156 -0.6,-0.022 -0.6,-0.558 0,-0.433 0.27,-0.787 0.6,-0.787 0.4,0 0.6,-0.4 0.6,-1.2 0,-0.933 0.178,-1.2 0.8,-1.2 0.622,0 0.8,-0.267 0.8,-1.2 0,-0.8 0.2,-1.2 0.6,-1.2 0.33,0 0.6,-0.27 0.6,-0.6 0,-0.33 0.27,-0.6 0.6,-0.6 0.333,0 0.6,-0.356 0.6,-0.8 0,-0.444 0.267,-0.8 0.6,-0.8 0.33,0 0.6,-0.27 0.6,-0.6 0,-0.33 0.27,-0.6 0.6,-0.6 0.33,0 0.6,-0.27 0.6,-0.6 0,-0.453 0.489,-0.6 2,-0.6 1.511,0 2,-0.147 2,-0.6 0,-0.472 0.556,-0.6 2.6,-0.6 2.044,0 2.6,0.128 2.6,0.6 m 130.8,2.4 c 0,0.4 0.4,0.6 1.2,0.6 0.933,0 1.2,0.178 1.2,0.8 0,0.444 0.267,0.8 0.6,0.8 0.33,0 0.6,0.27 0.6,0.6 0,0.33 0.27,0.6 0.6,0.6 0.33,0 0.6,0.27 0.6,0.6 0,0.333 0.356,0.6 0.8,0.6 0.622,0 0.8,0.267 0.8,1.2 0,0.8 0.2,1.2 0.6,1.2 0.33,0 0.6,0.27 0.6,0.6 0,0.33 0.27,0.6 0.6,0.6 0.453,0 0.6,0.489 0.6,2 0,1.511 0.147,2 0.6,2 0.514,0 0.6,1.178 0.6,8.2 0,7.022 -0.086,8.2 -0.6,8.2 -0.453,0 -0.6,0.489 -0.6,2 0,1.511 -0.147,2 -0.6,2 -0.4,0 -0.6,0.4 -0.6,1.2 0,0.8 -0.2,1.2 -0.6,1.2 -0.33,0 -0.6,0.249 -0.6,0.553 0,0.305 -0.36,0.648 -0.8,0.763 -0.44,0.115 -0.8,0.496 -0.8,0.847 0,0.35 -0.27,0.637 -0.6,0.637 -0.33,0 -0.6,0.27 -0.6,0.6 0,0.33 -0.27,0.6 -0.6,0.6 -0.33,0 -0.6,0.27 -0.6,0.6 0,0.4 -0.4,0.6 -1.2,0.6 -0.8,0 -1.2,0.2 -1.2,0.6 0,0.493 -0.711,0.6 -4,0.6 -3.289,0 -4,-0.107 -4,-0.6 0,-0.4 -0.4,-0.6 -1.2,-0.6 -0.8,0 -1.2,-0.2 -1.2,-0.6 0,-0.4 -0.4,-0.6 -1.2,-0.6 -0.8,0 -1.2,-0.2 -1.2,-0.6 0,-0.33 -0.27,-0.6 -0.6,-0.6 -0.419,0 -0.6,-0.422 -0.6,-1.4 0,-1.133 -0.152,-1.4 -0.8,-1.4 -0.622,0 -0.8,-0.267 -0.8,-1.2 0,-0.8 -0.2,-1.2 -0.6,-1.2 -0.4,0 -0.6,-0.4 -0.6,-1.2 0,-0.8 -0.2,-1.2 -0.6,-1.2 -0.483,0 -0.6,-0.622 -0.6,-3.2 0,-2.578 -0.117,-3.2 -0.6,-3.2 -0.483,0 -0.6,-0.622 -0.6,-3.2 0,-2.578 0.117,-3.2 0.6,-3.2 0.483,0 0.6,-0.622 0.6,-3.2 0,-2.578 0.117,-3.2 0.6,-3.2 0.419,0 0.6,-0.422 0.6,-1.4 0,-0.978 0.181,-1.4 0.6,-1.4 0.4,0 0.6,-0.4 0.6,-1.2 0,-0.933 0.178,-1.2 0.8,-1.2 0.444,0 0.8,-0.267 0.8,-0.6 0,-0.33 0.27,-0.6 0.6,-0.6 0.33,0 0.6,-0.27 0.6,-0.6 0,-0.33 0.27,-0.6 0.6,-0.6 0.33,0 0.6,-0.27 0.6,-0.6 0,-0.33 0.27,-0.6 0.6,-0.6 0.333,0 0.6,-0.356 0.6,-0.8 0,-0.622 0.267,-0.8 1.2,-0.8 0.8,0 1.2,-0.2 1.2,-0.6 0,-0.493 0.711,-0.6 4,-0.6 3.289,0 4,0.107 4,0.6 M 190,225 c 0,0.453 -0.489,0.6 -2,0.6 -1.511,0 -2,0.147 -2,0.6 0,0.4 -0.4,0.6 -1.2,0.6 -0.8,0 -1.2,0.2 -1.2,0.6 0,0.33 -0.27,0.6 -0.6,0.6 -0.33,0 -0.6,0.27 -0.6,0.6 0,0.33 -0.27,0.6 -0.6,0.6 -0.33,0 -0.6,0.249 -0.6,0.553 0,0.305 -0.36,0.648 -0.8,0.763 -1.653,0.432 -1.12,3.884 0.6,3.884 0.978,0 1.4,0.181 1.4,0.6 0,0.4 0.4,0.6 1.2,0.6 0.8,0 1.2,0.2 1.2,0.6 0,0.4 0.4,0.6 1.2,0.6 0.8,0 1.2,-0.2 1.2,-0.6 0,-0.33 0.27,-0.6 0.6,-0.6 0.33,0 0.6,-0.27 0.6,-0.6 0,-0.419 0.422,-0.6 1.4,-0.6 0.978,0 1.4,-0.181 1.4,-0.6 0,-0.4 0.4,-0.6 1.2,-0.6 0.8,0 1.2,0.2 1.2,0.6 0,0.333 0.356,0.6 0.8,0.6 0.622,0 0.8,0.267 0.8,1.2 0,0.933 -0.178,1.2 -0.8,1.2 -0.444,0 -0.8,0.267 -0.8,0.6 0,0.33 -0.27,0.6 -0.6,0.6 -0.333,0 -0.6,0.356 -0.6,0.8 0,0.444 -0.267,0.8 -0.6,0.8 -0.33,0 -0.6,0.27 -0.6,0.6 0,0.33 -0.27,0.6 -0.6,0.6 -0.33,0 -0.6,0.27 -0.6,0.6 0,0.419 -0.422,0.6 -1.4,0.6 -0.978,0 -1.4,0.181 -1.4,0.6 0,0.33 -0.27,0.6 -0.6,0.6 -0.33,0 -0.6,0.27 -0.6,0.6 0,0.33 -0.27,0.6 -0.6,0.6 -0.33,0 -0.6,0.27 -0.6,0.6 0,0.4 -0.4,0.6 -1.2,0.6 -0.933,0 -1.2,0.178 -1.2,0.8 0,0.444 -0.267,0.8 -0.6,0.8 -0.33,0 -0.6,0.27 -0.6,0.6 0,0.419 -0.422,0.6 -1.4,0.6 -0.978,0 -1.4,0.181 -1.4,0.6 0,0.33 -0.27,0.6 -0.6,0.6 -0.33,0 -0.6,0.27 -0.6,0.6 0,0.33 -0.27,0.6 -0.6,0.6 -0.453,0 -0.6,0.489 -0.6,2 0,1.511 -0.147,2 -0.6,2 -0.4,0 -0.6,0.4 -0.6,1.2 v 1.2 h 13.8 13.8 v -2 c 0,-1.733 0.107,-2 0.8,-2 0.711,0 0.8,-0.267 0.8,-2.4 v -2.4 h -4.6 c -4.333,0 -4.6,-0.046 -4.6,-0.8 0,-0.648 0.267,-0.8 1.4,-0.8 0.978,0 1.4,-0.181 1.4,-0.6 0,-0.33 0.27,-0.6 0.6,-0.6 0.33,0 0.6,-0.27 0.6,-0.6 0,-0.4 0.4,-0.6 1.2,-0.6 0.8,0 1.2,-0.2 1.2,-0.6 0,-0.33 0.27,-0.6 0.6,-0.6 0.33,0 0.6,-0.27 0.6,-0.6 0,-0.333 0.356,-0.6 0.8,-0.6 0.648,0 0.8,-0.267 0.8,-1.4 0,-0.978 0.181,-1.4 0.6,-1.4 0.33,0 0.6,-0.27 0.6,-0.6 0,-0.33 0.27,-0.6 0.6,-0.6 0.497,0 0.6,-0.756 0.6,-4.4 0,-3.644 -0.103,-4.4 -0.6,-4.4 -0.33,0 -0.6,-0.27 -0.6,-0.6 0,-0.343 -0.36,-0.6 -0.843,-0.6 -0.585,0 -0.772,-0.184 -0.612,-0.6 0.156,-0.408 -0.022,-0.6 -0.558,-0.6 -0.433,0 -0.787,-0.27 -0.787,-0.6 0,-0.444 -0.467,-0.6 -1.8,-0.6 -1.333,0 -1.8,-0.156 -1.8,-0.6 0,-0.497 -0.756,-0.6 -4.4,-0.6 -3.644,0 -4.4,0.103 -4.4,0.6"
       inkscape:connector-curvature="0"
       style="fill:#000000;fill-rule:evenodd;stroke:none" />
    <path
       id="path1"
       d="m 38.8,142.157 c 0,0.307 0.27,0.661 0.6,0.788 0.408,0.156 0.6,-0.022 0.6,-0.558 0,-0.433 -0.27,-0.787 -0.6,-0.787 -0.33,0 -0.6,0.251 -0.6,0.557 m 130.8,21.656 c 0,0.323 0.27,0.587 0.6,0.587 0.33,0 0.6,-0.161 0.6,-0.357 0,-0.197 -0.27,-0.461 -0.6,-0.588 -0.365,-0.14 -0.6,0 -0.6,0.358 m -82.206,0.997 c -0.163,0.264 -0.048,0.634 0.255,0.822 0.665,0.413 1.024,-0.319 0.441,-0.902 -0.266,-0.266 -0.499,-0.24 -0.696,0.08 m 59.406,1.79 c 0,0.33 0.27,0.6 0.6,0.6 0.33,0 0.6,-0.27 0.6,-0.6 0,-0.33 -0.27,-0.6 -0.6,-0.6 -0.33,0 -0.6,0.27 -0.6,0.6 m -120.343,2.163 c -0.402,0.25 -0.421,0.412 -0.073,0.627 0.549,0.339 0.961,0.039 0.758,-0.552 -0.084,-0.242 -0.366,-0.273 -0.685,-0.075 m 203.01,-0.096 c -0.461,0.46 -0.292,0.933 0.333,0.933 0.33,0 0.6,-0.27 0.6,-0.6 0,-0.625 -0.473,-0.794 -0.933,-0.333 m 7.333,0.3 c 0,0.348 0.285,0.633 0.633,0.633 0.349,0 0.562,-0.214 0.475,-0.475 -0.247,-0.742 -1.108,-0.865 -1.108,-0.158 m 28.267,-0.3 c -0.461,0.46 -0.292,0.933 0.333,0.933 0.33,0 0.6,-0.27 0.6,-0.6 0,-0.625 -0.473,-0.794 -0.933,-0.333 m -244.8,2.4 c -0.461,0.46 -0.292,0.933 0.333,0.933 0.33,0 0.6,-0.27 0.6,-0.6 0,-0.625 -0.473,-0.794 -0.933,-0.333 m 27.333,0.487 c 0,0.575 0.185,0.75 0.617,0.584 0.683,-0.262 0.599,-0.999 -0.142,-1.246 -0.264,-0.088 -0.475,0.206 -0.475,0.662 m 91.8,-0.354 c -0.292,0.472 0.087,1.2 0.624,1.2 0.207,0 0.376,-0.36 0.376,-0.8 0,-0.844 -0.582,-1.076 -1,-0.4 m -63.3,1.065 c -0.275,0.111 -0.5,0.437 -0.5,0.726 0,0.288 -0.27,0.627 -0.6,0.754 -0.33,0.126 -0.6,0.416 -0.6,0.642 0,0.227 0.27,0.413 0.6,0.413 0.33,0 0.6,-0.27 0.6,-0.6 0,-0.33 0.27,-0.6 0.6,-0.6 0.333,0 0.6,-0.356 0.6,-0.8 0,-0.44 -0.045,-0.786 -0.1,-0.768 -0.055,0.017 -0.325,0.122 -0.6,0.233 m 174.978,1.591 c -0.32,0.319 0.041,0.944 0.546,0.944 0.207,0 0.376,-0.27 0.376,-0.6 0,-0.619 -0.472,-0.795 -0.922,-0.344 M 351.2,175.4 c 0,0.33 0.27,0.6 0.6,0.6 0.33,0 0.6,-0.27 0.6,-0.6 0,-0.33 -0.27,-0.6 -0.6,-0.6 -0.33,0 -0.6,0.27 -0.6,0.6 m -320,2.433 c 0,0.349 0.214,0.562 0.475,0.475 0.742,-0.247 0.865,-1.108 0.158,-1.108 -0.348,0 -0.633,0.285 -0.633,0.633 m 95.2,-0.066 c 0,0.348 0.285,0.633 0.633,0.633 0.707,0 0.584,-0.861 -0.158,-1.108 -0.261,-0.087 -0.475,0.126 -0.475,0.475 m 161.2,0 c 0,0.348 0.285,0.633 0.633,0.633 0.349,0 0.562,-0.214 0.475,-0.475 -0.247,-0.742 -1.108,-0.865 -1.108,-0.158 M 262,179 c 0,0.333 0.356,0.6 0.8,0.6 0.444,0 0.8,-0.267 0.8,-0.6 0,-0.333 -0.356,-0.6 -0.8,-0.6 -0.444,0 -0.8,0.267 -0.8,0.6 m -130.4,4 c 0,0.33 0.27,0.6 0.6,0.6 0.33,0 0.6,-0.27 0.6,-0.6 0,-0.33 -0.27,-0.6 -0.6,-0.6 -0.33,0 -0.6,0.27 -0.6,0.6 m -112,6.187 c 0,0.536 0.192,0.714 0.6,0.558 0.33,-0.127 0.6,-0.481 0.6,-0.788 0,-0.306 -0.27,-0.557 -0.6,-0.557 -0.33,0 -0.6,0.354 -0.6,0.787 M 290,189.4 c 0,0.412 0.262,0.608 0.7,0.524 0.843,-0.163 0.79,-0.872 -0.079,-1.053 -0.362,-0.076 -0.621,0.145 -0.621,0.529 m -243.6,1.2 c 0,0.33 0.27,0.6 0.6,0.6 0.33,0 0.6,-0.27 0.6,-0.6 0,-0.33 -0.27,-0.6 -0.6,-0.6 -0.33,0 -0.6,0.27 -0.6,0.6 m 102.8,1.233 c 0,0.349 0.214,0.562 0.475,0.475 0.742,-0.247 0.865,-1.108 0.158,-1.108 -0.348,0 -0.633,0.285 -0.633,0.633 M 196,193.2 c 0,0.602 0.209,0.818 0.7,0.724 0.385,-0.074 0.7,-0.4 0.7,-0.724 0,-0.324 -0.315,-0.65 -0.7,-0.724 -0.491,-0.094 -0.7,0.122 -0.7,0.724 m 137.6,2.2 c 0,0.33 0.27,0.6 0.6,0.6 0.33,0 0.6,-0.27 0.6,-0.6 0,-0.33 -0.27,-0.6 -0.6,-0.6 -0.33,0 -0.6,0.27 -0.6,0.6 M 148,198.233 c 0,0.349 0.214,0.562 0.475,0.475 0.742,-0.247 0.865,-1.108 0.158,-1.108 -0.348,0 -0.633,0.285 -0.633,0.633 m -129.6,2.4 c 0,0.349 0.214,0.562 0.475,0.475 0.742,-0.247 0.865,-1.108 0.158,-1.108 -0.348,0 -0.633,0.285 -0.633,0.633 m 0,2.734 c 0,0.348 0.285,0.633 0.633,0.633 0.349,0 0.562,-0.214 0.475,-0.475 C 19.261,202.783 18.4,202.66 18.4,203.367 M 148,203.4 c 0,0.33 0.264,0.6 0.587,0.6 0.358,0 0.498,-0.235 0.358,-0.6 -0.127,-0.33 -0.391,-0.6 -0.588,-0.6 -0.196,0 -0.357,0.27 -0.357,0.6 m 48,4.833 c 0,0.349 0.214,0.562 0.475,0.475 0.742,-0.247 0.865,-1.108 0.158,-1.108 -0.348,0 -0.633,0.285 -0.633,0.633 m -66.708,1.042 c 0.247,0.742 1.108,0.865 1.108,0.158 0,-0.348 -0.285,-0.633 -0.633,-0.633 -0.349,0 -0.562,0.214 -0.475,0.475 M 357.6,213.4 c 0,0.33 0.292,0.6 0.649,0.6 0.531,0 0.559,-0.109 0.151,-0.6 -0.274,-0.33 -0.566,-0.6 -0.649,-0.6 -0.083,0 -0.151,0.27 -0.151,0.6 m -235.2,3.835 c 0,0.487 0.278,0.765 0.765,0.765 0.486,0 0.729,-0.243 0.666,-0.667 -0.141,-0.961 -1.431,-1.049 -1.431,-0.098 M 27.2,218.6 c 0,0.33 0.27,0.6 0.6,0.6 0.33,0 0.6,-0.27 0.6,-0.6 0,-0.33 -0.27,-0.6 -0.6,-0.6 -0.33,0 -0.6,0.27 -0.6,0.6 m 16.8,0 c 0,0.33 0.27,0.6 0.6,0.6 0.33,0 0.6,-0.27 0.6,-0.6 0,-0.33 -0.27,-0.6 -0.6,-0.6 -0.33,0 -0.6,0.27 -0.6,0.6 m 318.4,2.4 c 0,0.33 0.354,0.6 0.787,0.6 0.536,0 0.714,-0.192 0.558,-0.6 -0.127,-0.33 -0.481,-0.6 -0.788,-0.6 -0.306,0 -0.557,0.27 -0.557,0.6 m -11.2,2.4 c 0,0.33 0.27,0.6 0.6,0.6 0.33,0 0.6,-0.27 0.6,-0.6 0,-0.33 -0.27,-0.6 -0.6,-0.6 -0.33,0 -0.6,0.27 -0.6,0.6 M 172,225.8 c 0,0.33 0.27,0.6 0.6,0.6 0.33,0 0.6,-0.27 0.6,-0.6 0,-0.33 -0.27,-0.6 -0.6,-0.6 -0.33,0 -0.6,0.27 -0.6,0.6 m 146.278,0.056 c -0.374,0.373 0.077,0.944 0.746,0.944 0.317,0 0.576,-0.27 0.576,-0.6 0,-0.602 -0.844,-0.822 -1.322,-0.344 m 35.616,0.783 c -0.389,0.389 0.145,1.361 0.749,1.361 0.306,0 0.557,-0.36 0.557,-0.8 0,-0.753 -0.779,-1.088 -1.306,-0.561 m -150.019,0.419 c -0.522,0.522 -0.273,0.942 0.558,0.942 0.466,0 0.764,-0.21 0.675,-0.475 -0.195,-0.585 -0.862,-0.837 -1.233,-0.467 M 366.4,228 c 0,0.8 0.2,1.2 0.6,1.2 0.4,0 0.6,-0.4 0.6,-1.2 0,-0.8 -0.2,-1.2 -0.6,-1.2 -0.4,0 -0.6,0.4 -0.6,1.2 M 26,228.629 c 0,0.373 0.272,0.577 0.667,0.5 C 27.67,228.935 27.808,228 26.833,228 26.342,228 26,228.258 26,228.629 m 57.596,6.367 c 0.5,0.602 1.204,0.473 1.204,-0.22 0,-0.207 -0.382,-0.376 -0.849,-0.376 -0.706,0 -0.766,0.1 -0.355,0.596 m 7.296,2.279 c 0.247,0.742 1.108,0.865 1.108,0.158 0,-0.348 -0.285,-0.633 -0.633,-0.633 -0.349,0 -0.562,0.214 -0.475,0.475 m 62.4,0 c 0.247,0.742 1.108,0.865 1.108,0.158 0,-0.348 -0.285,-0.633 -0.633,-0.633 -0.349,0 -0.562,0.214 -0.475,0.475 M 198.8,245 c 0,0.33 0.161,0.6 0.357,0.6 0.197,0 0.461,-0.27 0.588,-0.6 0.14,-0.365 0,-0.6 -0.358,-0.6 -0.323,0 -0.587,0.27 -0.587,0.6 m -18.945,2.8 c -0.156,0.408 0.022,0.6 0.558,0.6 0.433,0 0.787,-0.27 0.787,-0.6 0,-0.33 -0.251,-0.6 -0.557,-0.6 -0.307,0 -0.661,0.27 -0.788,0.6"
       inkscape:connector-curvature="0"
       style="fill:#ffffff;fill-rule:evenodd;stroke:none" />
  </g>
</svg>
