<svg id="svg" version="1.1" width="400" height="400" xmlns="http://www.w3.org/2000/svg" xmlns:xlink="http://www.w3.org/1999/xlink" style="display: block;"><g id="svgg"><path id="path0" d="M183.500 0.681 C 91.546 12.367,24.838 80.191,14.509 172.500 L 13.837 178.500 19.023 171.000 C 58.718 113.585,124.129 77.615,189.000 77.528 C 244.157 77.453,267.424 98.594,270.676 151.737 L 271.304 162.000 200.152 162.000 C 143.886 162.000,129.005 161.738,129.022 160.750 C 129.256 147.226,140.665 118.780,151.040 105.852 C 157.331 98.013,157.104 97.903,145.834 103.325 C 90.274 130.056,59.621 179.843,59.532 243.500 C 59.348 375.194,199.275 439.824,342.250 374.084 L 349.000 370.980 349.000 328.407 C 349.000 304.991,348.663 285.991,348.250 286.184 C 347.837 286.377,341.388 289.552,333.917 293.240 C 317.549 301.320,301.730 307.763,289.281 311.421 C 211.450 334.291,135.412 302.923,131.301 246.250 L 130.703 238.000 258.451 238.000 L 386.199 238.000 385.747 200.250 C 384.974 135.672,375.085 103.306,344.503 65.264 C 308.411 20.369,241.085 -6.637,183.500 0.681 " stroke="none" fill="#000000" fill-rule="evenodd"></path></g></svg>