<?xml version="1.0" encoding="UTF-8" standalone="no"?>
<svg
   xmlns:dc="http://purl.org/dc/elements/1.1/"
   xmlns:cc="http://creativecommons.org/ns#"
   xmlns:rdf="http://www.w3.org/1999/02/22-rdf-syntax-ns#"
   xmlns:svg="http://www.w3.org/2000/svg"
   xmlns="http://www.w3.org/2000/svg"
   style="display: block;"
   height="400"
   width="400"
   version="1.1"
   id="svg">
  <metadata
     id="metadata9">
    <rdf:RDF>
      <cc:Work
         rdf:about="">
        <dc:format>image/svg+xml</dc:format>
        <dc:type
           rdf:resource="http://purl.org/dc/dcmitype/StillImage" />
        <dc:title></dc:title>
      </cc:Work>
    </rdf:RDF>
  </metadata>
  <defs
     id="defs7" />
  <g
     id="svgg">
    <path
       style="fill:#000000;fill-rule:evenodd;stroke:none;stroke-width:1.21635413"
       d="m 326.83994,24.166208 c -4.85691,1.519226 -6.36397,2.449737 -11.46414,7.077965 -1.28934,1.170132 -2.7891,2.128619 -3.3316,2.128619 -0.54371,0 -2.10064,1.036334 -3.46052,2.303775 -1.35867,1.266225 -4.19886,3.196579 -6.31045,4.287648 -2.11159,1.092286 -3.83881,2.416896 -3.83881,2.943577 0,0.526681 -1.91576,1.710194 -4.25724,2.628541 -2.34148,0.918348 -4.25724,2.144433 -4.25724,2.723417 0,0.578985 -1.64208,1.625049 -3.64906,2.324453 -2.00699,0.699403 -3.64907,1.71141 -3.64907,2.247822 0,2.143216 -11.90445,3.925175 -16.37334,2.450954 -2.36702,-0.782116 -4.30468,-1.839128 -4.30468,-2.349996 0,-0.512085 -2.18943,-1.586126 -4.86541,-2.387704 -2.67598,-0.801577 -4.86542,-1.908459 -4.86542,-2.458251 0,-0.551009 -3.42039,-1.716276 -7.60221,-2.589618 -4.18061,-0.873342 -7.88441,-2.003335 -8.22864,-2.511771 -0.99254,-1.465707 -27.07604,-4.74743 -37.73008,-4.74743 -5.64875,0 -9.68948,-0.50722 -9.68948,-1.216354 0,-0.668995 -2.18944,-1.216354 -4.86542,-1.216354 -2.67598,0 -4.86541,0.547359 -4.86541,1.216354 0,0.678725 -3.36079,1.227301 -7.60222,1.239464 -9.51918,0.03041 -30.90755,3.003179 -32.88291,4.571059 -0.81374,0.645884 -4.35334,1.89508 -7.86495,2.776937 -3.51161,0.881856 -6.38586,1.959546 -6.38586,2.395001 0,0.435455 -2.18944,1.514361 -4.86541,2.397434 -2.67599,0.883073 -4.86542,2.065369 -4.86542,2.627325 0,0.561955 -3.28416,1.021737 -7.29813,1.021737 -4.01397,0 -7.29812,-0.422075 -7.29812,-0.939025 0,-0.516951 -3.678254,-1.637213 -8.173899,-2.489877 -4.495644,-0.852664 -8.463391,-2.017932 -8.818567,-2.589618 -0.353959,-0.571687 -4.202503,-1.719925 -8.550969,-2.550695 -4.348466,-0.830769 -8.675033,-2.116456 -9.614058,-2.855999 -2.956957,-2.331751 -34.044535,-1.663972 -38.431924,0.825904 -2.006984,1.138508 -4.52727,2.072668 -5.600094,2.077533 -1.072825,0.0036 -3.535942,1.406106 -5.473594,3.116299 -1.937652,1.708978 -4.89096,4.316841 -6.5634461,5.794711 -6.6899477,5.909049 -8.39162707,29.047748 -2.4764971,33.668677 0.4281566,0.334497 1.7880405,2.797614 3.0214231,5.473593 1.2345991,2.675979 3.8059721,6.374912 5.7144321,8.221335 1.909676,1.84521 3.477556,3.76097 3.484854,4.25724 0.0073,0.49506 1.923056,2.75748 4.257239,5.02476 2.334184,2.2685 4.24386,4.56984 4.24386,5.11476 0,1.47544 5.181668,6.34086 8.76748,8.23229 2.65895,1.40367 3.473908,3.23185 5.285059,11.85946 1.177431,5.61104 2.48866,10.20156 2.915601,10.20156 0.42694,0 1.503413,3.28415 2.395001,7.29812 0.890371,4.01397 2.234442,7.30664 2.987365,7.31637 0.939026,0.0134 0.964569,0.29923 0.08271,0.91227 -0.706702,0.4914 -2.043475,2.80978 -2.971554,5.15126 -0.928078,2.34148 -1.996037,4.53092 -2.375539,4.86541 -0.378286,0.3345 -1.77831,2.79762 -3.110218,5.4736 -1.330691,2.67598 -3.104135,5.3033 -3.940987,5.8385 -0.835635,0.53519 -1.520442,1.73938 -1.520442,2.67598 0,0.93659 -0.716433,2.14078 -1.592208,2.67597 -0.875775,0.5352 -2.309856,2.75261 -3.188064,4.92624 -0.878208,2.17484 -1.994821,3.95315 -2.482579,3.95315 -0.486541,0 -1.901161,2.46312 -3.141842,5.47359 -1.241898,3.01048 -2.650436,5.4736 -3.12968,5.4736 -0.480459,0 -1.542337,2.0532 -2.359726,4.56132 -0.818607,2.50934 -1.864671,4.83501 -2.324453,5.16951 -1.941301,1.40975 -7.222711,14.55611 -8.6750371,21.59028 -0.8636115,4.18183 -2.0069844,7.60222 -2.5421802,7.60222 -0.5351958,0 -0.9730833,6.56831 -0.9730833,14.59625 0,8.02793 0.4768109,14.59625 1.0606608,14.59625 0.58385,0 1.4109708,2.18457 1.8366947,4.85325 0.4269403,2.6699 2.4132461,8.07416 4.4129321,12.01028 2.000903,3.93612 3.636899,7.64114 3.636899,8.2335 0,0.59236 1.094719,1.76128 2.432708,2.59692 1.33799,0.83563 2.432708,2.05928 2.432708,2.71855 0,1.62505 11.595504,13.37624 13.198659,13.37624 0.701836,0 1.713843,0.68481 2.249038,1.52045 1.578828,2.46798 11.835126,9.20658 15.357687,10.09087 1.789257,0.44883 3.252531,1.26136 3.252531,1.80629 0,0.54492 1.915758,1.62261 4.25724,2.395 2.457035,0.81131 4.257239,2.21133 4.257239,3.31213 0,1.0485 -1.915758,5.88959 -4.257239,10.75743 -2.341482,4.86785 -4.25724,9.6688 -4.25724,10.66986 0,0.99985 -0.535196,1.99969 -1.188378,2.2235 -0.654398,0.22259 -1.543553,2.18335 -1.976575,4.3582 l -0.788198,3.95315 h 7.782234 c 8.844106,0 10.019104,-1.21149 13.854268,-14.29216 1.030252,-3.51162 2.398651,-6.38586 3.042102,-6.38586 0.642235,0 1.168916,-0.7882 1.168916,-1.75277 0,-0.96457 0.519383,-2.07388 1.15432,-2.46555 1.46814,-0.9074 12.225575,1.7552 12.225575,3.02507 0,0.52304 2.053206,1.43773 4.561328,2.03131 l 4.561331,1.07891 -3.344977,2.90952 c -1.839127,1.60072 -3.344974,3.40822 -3.344974,4.0164 0,0.60818 -1.071608,2.0155 -2.380405,3.12603 -4.0833,3.46296 -4.609982,8.7091 -0.874558,8.7091 1.949815,0 3.357137,-0.83929 3.812054,-2.27215 0.396531,-1.2492 3.169818,-4.8642 6.16327,-8.03402 2.993446,-3.1686 5.451696,-6.38829 5.461426,-7.1546 0.0134,-0.95119 0.30287,-0.98403 0.91226,-0.1046 0.92443,1.33069 14.62302,4.18547 20.09053,4.18547 1.70654,0 3.32794,0.67264 3.60162,1.4949 0.66656,1.99969 46.79679,2.20647 48.09829,0.21529 0.47681,-0.73102 8.25783,-1.9936 17.28926,-2.80248 9.03143,-0.81009 16.60323,-1.99117 16.82583,-2.62367 0.2238,-0.6325 3.23428,-1.14824 6.68994,-1.14581 8.62152,0.005 32.90603,-2.57867 33.65287,-3.57973 0.3345,-0.44761 4.60755,-1.65789 9.49608,-2.68814 l 8.88911,-1.87318 4.49078,3.52377 c 9.82693,7.70804 11.47874,9.12266 18.52751,15.86491 7.36624,7.04634 10.89975,8.66896 10.89975,5.00895 0,-2.12619 -16.64702,-19.29016 -22.19846,-22.88692 -4.36063,-2.82559 -4.24508,-5.1464 0.30408,-6.14502 2.00699,-0.44032 3.64907,-1.21879 3.64907,-1.72844 0,-0.50966 2.18943,-1.5837 4.86541,-2.38527 2.67598,-0.80158 4.86542,-1.92428 4.86542,-2.49475 0,-2.70638 3.79989,-2.27701 4.87393,0.5498 0.63129,1.66032 1.6214,3.01777 2.2016,3.01777 1.94617,0 4.07722,9.50581 2.70639,12.06867 -2.40352,4.49078 -0.38923,6.17664 7.37719,6.17664 3.9422,0 7.16797,-0.47681 7.16797,-1.06066 0,-0.58385 2.15052,-1.40489 4.77906,-1.82575 2.62854,-0.41964 5.60009,-1.5849 6.60358,-2.58718 1.00228,-1.00349 2.27823,-1.82453 2.83532,-1.82453 0.55588,0 2.51056,-1.39029 4.34361,-3.08954 1.83304,-1.70046 3.33281,-2.60908 3.33281,-2.02037 0,0.58994 2.26241,1.81845 5.02597,2.73072 2.76477,0.91227 5.87256,2.50447 6.90768,3.53959 2.41932,2.41933 28.33983,2.69666 29.13411,0.3126 0.27003,-0.81009 1.24433,-1.473 2.16389,-1.473 4.35942,0 10.24535,-4.3363 10.98003,-8.08876 1.44868,-7.40638 0.6617,-8.29553 -7.6983,-8.6945 -8.72248,-0.41599 -8.85628,-0.59723 -3.93126,-5.3033 4.82284,-4.60877 7.1996,-13.06608 4.88731,-17.38657 -2.81951,-5.26802 -7.54383,-4.01275 -15.26403,4.05655 -5.32763,5.56968 -8.91344,2.93627 -9.34281,-6.86146 l -0.36004,-8.20066 h -5.4736 c -4.51024,0 -5.68524,0.48168 -6.67413,2.7368 -0.66048,1.50585 -1.61897,2.7368 -2.12862,2.7368 -0.51087,0 -0.92808,1.12634 -0.92808,2.50204 0,8.72247 -2.56529,13.31056 -7.44287,13.31056 -2.5957,0 -4.72067,-0.54736 -4.72067,-1.21635 0,-2.1116 -4.76446,-1.31732 -7.29813,1.21635 -2.48136,2.48136 -3.29145,6.08177 -1.36839,6.08177 0.58506,0 1.38907,1.62505 1.78682,3.61136 0.39653,1.9863 1.83426,4.7231 3.19293,6.08177 1.35867,1.35866 2.0605,2.47163 1.55815,2.47406 -0.50235,10e-4 -1.97049,1.58248 -3.26348,3.51283 -3.44958,5.15004 -10.17845,6.99404 -11.16613,3.06156 -0.40383,-1.61166 -1.11053,-2.92898 -1.5691,-2.92898 -0.45978,0 -1.85129,-2.46311 -3.09318,-5.47359 -1.24069,-3.01048 -2.73923,-5.47359 -3.32917,-5.47359 -4.7827,0 -2.5884,-5.61956 5.25709,-13.46504 4.54065,-4.54065 8.63854,-9.78192 9.10684,-11.64659 0.4683,-1.86467 1.85007,-4.46281 3.07008,-5.77404 1.22122,-1.31001 2.56164,-4.2025 2.97885,-6.426 0.41721,-2.22471 1.17378,-4.04437 1.681,-4.04437 0.50844,0 1.63843,-2.59935 2.51177,-5.77768 0.87334,-3.17834 2.00699,-6.06353 2.52029,-6.41384 4.46645,-3.05183 4.25602,-66.8715 -0.22138,-66.8715 -0.44275,0 -1.50341,-3.28416 -2.35486,-7.29812 -0.85145,-4.01397 -1.98266,-7.29813 -2.51299,-7.29813 -0.53033,0 -1.83913,-3.01047 -2.9083,-6.68995 -1.06918,-3.67947 -2.36703,-6.68994 -2.88276,-6.68994 -0.51573,0 -1.67249,-2.05321 -2.57016,-4.56133 -0.89767,-2.50812 -2.2393,-4.95178 -2.98128,-5.42981 -2.16754,-1.39394 -1.66032,-12.37397 0.67994,-14.71423 1.11661,-1.11661 2.37432,-3.60163 2.7964,-5.52347 0.74562,-3.39119 4.70972,-6.26179 8.64949,-6.26179 0.99376,0 2.10065,-0.76752 2.46069,-1.70411 0.35882,-0.93781 1.71019,-1.98144 3.00196,-2.31959 1.29177,-0.33814 2.34878,-1.48638 2.34878,-2.55191 0,-1.06674 0.54736,-1.93887 1.21635,-1.93887 0.669,0 1.21636,-1.64207 1.21636,-3.64906 0,-2.00698 -0.44276,-3.64906 -0.98282,-3.64906 -0.54006,0 -1.49854,-2.32567 -2.12862,-5.16951 l -1.1458,-5.1695 -6.74347,0.0195 -6.74225,0.0182 6.74225,-6.96971 c 8.67139,-8.96209 14.64977,-16.276025 14.64977,-17.921752 0,-0.714 0.56074,-1.29785 1.24676,-1.29785 0.68481,0 1.76615,-1.368398 2.4023,-3.040885 0.63616,-1.672487 1.71749,-3.040885 2.4023,-3.040885 0.68603,0 1.24676,-0.616692 1.24676,-1.369615 0,-0.754139 1.67857,-4.673227 3.72935,-8.70909 2.05077,-4.03708 4.04316,-9.9887 4.42631,-13.226635 0.38437,-3.237934 1.16892,-5.887154 1.74425,-5.887154 0.57655,0 1.04728,-3.557835 1.04728,-7.906301 0,-4.348466 -0.50357,-7.906302 -1.12026,-7.906302 -0.61548,0 -1.45963,-1.550851 -1.87683,-3.447148 -2.68936,-12.249902 -21.62313,-19.375305 -37.92957,-14.273915 m 19.03229,3.005611 c 0,0.603312 1.71019,1.694381 3.80232,2.422977 3.62838,1.265009 8.36122,5.524681 8.36122,7.5268 0,0.518166 0.8928,1.835478 1.98509,2.927764 2.29161,2.291611 2.90587,20.991839 0.73346,22.345641 -0.68724,0.428157 -1.87562,3.104136 -2.63949,5.947972 -0.76387,2.843836 -1.82939,5.169505 -2.36581,5.169505 -0.53763,0 -1.63356,2.189437 -2.43514,4.865416 -0.80158,2.675974 -1.85859,4.865412 -2.34878,4.865412 -0.49019,0 -1.97292,2.039825 -3.29632,4.532135 -2.88519,5.435886 -3.32794,5.988111 -13.23271,16.469429 -4.40321,4.65986 -9.54595,8.8356 -11.85459,9.62623 -2.24174,0.76752 -4.45794,1.97414 -4.9238,2.68206 -0.46465,0.7067 -1.08499,1.02782 -1.37813,0.71278 -0.90254,-0.97065 1.38664,-14.88087 2.57624,-15.65569 0.61669,-0.40139 1.78925,-2.781799 2.60786,-5.291138 0.81739,-2.508122 1.93157,-4.561328 2.4765,-4.561328 0.54492,0 1.32461,-1.330691 1.73209,-2.95574 0.40869,-1.626266 1.49125,-3.705015 2.40716,-4.620929 0.91591,-0.915915 2.61516,-3.501879 3.77678,-5.748485 1.1604,-2.24539 3.14792,-5.196265 4.41415,-6.554932 1.26744,-1.359884 2.30377,-3.190497 2.30377,-4.068705 0,-0.876991 0.40991,-1.599505 0.91227,-1.604371 1.06674,-0.01095 3.95315,-5.879856 3.95315,-8.037668 0,-0.814957 0.67508,-1.705328 1.49976,-1.980224 4.19521,-1.398807 1.75764,-14.691125 -3.69285,-20.141608 -5.00651,-5.006513 -5.67551,-7.537746 -1.99238,-7.537746 0.96456,0 1.75276,-0.547359 1.75276,-1.216354 0,-0.668995 1.09472,-1.216354 2.43271,-1.216354 1.33799,0 2.43271,0.493839 2.43271,1.097151 m -20.67802,4.984619 c 0,0.668995 -0.56439,1.216354 -1.25406,1.216354 -0.69089,0 -1.61532,0.958487 -2.05443,2.12862 -0.4391,1.171349 -2.2016,3.545672 -3.91544,5.278977 -4.38131,4.429961 -8.5534,10.005729 -8.57286,11.456839 -0.009,0.676293 -1.11053,1.912109 -2.44852,2.747744 -1.33799,0.835635 -2.43271,2.204034 -2.43271,3.040885 0,0.836852 -1.09472,2.20525 -2.43271,3.040885 -1.33799,0.835636 -2.43271,2.213765 -2.43271,3.06278 0,0.849015 -0.95849,2.45217 -2.12862,3.562701 -1.17013,1.110532 -3.17955,3.351056 -4.46402,4.98097 l -2.33418,2.963039 -6.48438,-6.535471 c -6.98674,-7.043906 -7.85644,-8.968178 -4.05046,-8.968178 1.33799,0 2.4327,-0.473162 2.4327,-1.05093 0,-0.577769 2.46312,-1.992388 5.4736,-3.141843 3.01047,-1.149455 5.47359,-2.526368 5.47359,-3.057914 0,-0.532763 1.64208,-1.649376 3.64906,-2.480146 2.00699,-0.83077 3.64907,-2.005768 3.64907,-2.610296 0,-0.604528 1.36839,-1.618967 3.04088,-2.255121 1.67249,-0.636153 3.04697,-1.580044 3.05427,-2.098211 0.009,-0.518166 2.19795,-1.988738 4.86541,-3.267127 2.66868,-1.278388 4.85204,-2.797614 4.85204,-3.375382 0,-0.577768 1.3684,-1.570313 3.04088,-2.206467 1.67249,-0.636153 3.04089,-1.717492 3.04089,-2.402299 0,-0.686024 0.54736,-1.246763 1.21635,-1.246763 0.669,0 1.21636,0.547359 1.21636,1.216354 M 63.664703,47.843757 c 0.341795,0.496273 4.590515,1.598289 9.440119,2.448521 4.849604,0.851448 8.818568,1.941301 8.818568,2.422977 0,0.885506 7.740877,3.033587 16.116691,4.471318 4.983399,0.856313 5.910259,2.353645 2.186999,3.535941 -1.306356,0.414777 -4.262099,2.640705 -6.568306,4.946912 -3.885035,3.885035 -9.302676,5.674292 -9.302676,3.072511 0,-0.617908 -2.021581,-1.789257 -4.493212,-2.605431 -2.470415,-0.814957 -5.584282,-2.499607 -6.918622,-3.742721 -1.334341,-1.24433 -3.144276,-2.261202 -4.022483,-2.261202 -0.876992,0 -1.594641,-0.439104 -1.594641,-0.975516 0,-0.537629 -2.736792,-1.960763 -6.081765,-3.163737 -3.344974,-1.202975 -6.081771,-2.624893 -6.081771,-3.160088 0,-0.535196 -2.859648,-1.659107 -6.35545,-2.497175 -12.658597,-3.03602 -11.546849,-5.286275 2.11524,-4.284 6.66562,0.490191 12.399513,1.295418 12.741309,1.79169 M 220.29705,47.703876 c 0.27124,0.814958 1.99847,1.48152 3.83881,1.48152 5.22546,0 17.12992,2.652868 17.12992,3.816919 0,0.576552 0.75778,1.048497 1.68465,1.048497 2.84018,0 14.12795,3.959233 14.12795,4.955427 0,0.515734 1.97901,1.590991 4.39833,2.388919 2.41812,0.799145 5.56604,2.508122 6.99404,3.79989 1.428,1.291768 3.46296,3.144276 4.52241,4.116143 1.05944,0.973083 2.45095,1.768578 3.09075,1.768578 1.23582,0 7.99875,7.183788 11.93608,12.678054 1.29542,1.808719 3.36322,4.449424 4.59417,5.868909 1.23095,1.418269 2.55556,3.847328 2.9448,5.395747 0.38801,1.549635 1.11904,2.817076 1.62505,2.817076 0.50478,0 1.89751,3.147925 3.09562,6.994035 1.19811,3.84611 2.76234,7.37475 3.47634,7.84061 0.714,0.46465 0.98281,1.16041 0.59844,1.54477 -0.87942,0.87943 -13.611,-1.77101 -14.43447,-3.00439 -0.77117,-1.15553 -19.17704,-3.64419 -26.95319,-3.64419 -3.23915,0 -5.88837,-0.54736 -5.88837,-1.21636 0,-1.78317 -3.63203,-1.4876 -3.74516,0.30409 -0.0766,1.21636 -0.21894,1.21636 -0.70913,0 -0.41843,-1.03633 -3.67826,-1.52044 -10.24292,-1.52044 -6.84199,0 -9.65785,0.44032 -9.72597,1.52044 -0.0766,1.21636 -0.21894,1.21636 -0.70913,0 -0.7286,-1.80507 -4.06019,-2.05442 -4.06019,-0.30409 0,0.669 -2.59935,1.21514 -5.77768,1.21514 -3.17834,-0.001 -13.08554,0.64345 -22.01723,1.43408 -16.04614,1.41827 -30.0111,0.25665 -31.80522,-2.648 -0.70184,-1.13608 -17.8354,-4.86663 -22.35173,-4.86663 -1.64451,0 -3.20387,-0.63981 -3.46417,-1.42192 -0.33693,-1.012007 -8.99129,-1.58491 -30.00625,-1.98874 l -29.533069,-0.565604 0.824688,-4.394688 c 0.4537,-2.416895 1.24433,-4.669583 1.758848,-5.006513 0.514518,-0.335714 1.853723,-2.403516 2.976418,-4.595386 2.475281,-4.830137 13.449225,-15.524323 18.064075,-17.604288 1.83912,-0.829554 3.34497,-1.856157 3.34497,-2.28188 0,-1.055796 11.65146,-6.641294 17.63714,-8.456094 2.67598,-0.811308 5.15612,-1.918191 5.5113,-2.459468 0.35517,-0.541278 4.73405,-1.649376 9.73083,-2.460684 4.99678,-0.811309 9.36714,-1.892647 9.71259,-2.404733 1.74182,-2.573805 66.94934,-2.713686 67.80566,-0.144746 M 14.820788,68.737071 c 0.223809,0.619125 1.049713,1.126344 1.837911,1.126344 2.278231,0 7.540179,5.451699 9.254022,9.58852 0.863611,2.084826 1.986306,3.791371 2.494742,3.791371 0.508436,0 1.543553,2.463117 2.302558,5.473593 0.757789,3.010476 1.916974,5.473593 2.576238,5.473593 0.659264,0 1.199325,1.094719 1.199325,2.432709 0,1.337989 -0.810091,2.432708 -1.80142,2.432708 -0.990112,0 -2.139567,1.346501 -2.551911,2.991011 -0.795495,3.17104 -4.161147,6.83591 -4.161147,4.53092 0,-0.70913 -1.642078,-3.08832 -3.649063,-5.28506 -2.006984,-2.197948 -3.649062,-4.635521 -3.649062,-5.418853 0,-0.782116 -0.821039,-1.73817 -1.824531,-2.123755 -1.003492,-0.384368 -1.824531,-1.510712 -1.824531,-2.50204 0,-0.991329 -0.84415,-2.274582 -1.874402,-2.851134 C 11.017248,87.203755 7.7622853,76.154399 7.7403909,70.036138 7.7257949,66.025818 13.466986,64.973672 14.820788,68.737071 M 126.90781,119.87624 c 5.67551,0.68237 10.60174,1.67005 10.94719,2.19673 0.34544,0.52668 3.5031,1.63843 7.01471,2.47163 3.51162,0.83199 6.38586,1.96928 6.38586,2.52637 0,0.55709 1.09472,1.3611 2.43271,1.78561 2.42541,0.76995 3.8376,11.55537 1.51193,11.55537 -0.50601,0 -1.62627,2.32567 -2.48988,5.1695 -1.92914,6.34815 -7.61802,17.94122 -8.80397,17.94122 -0.47924,0 -1.49855,1.50585 -2.26728,3.34498 -2.64436,6.33112 -8.53638,8.81857 -24.33439,10.27089 -32.089846,2.95088 -46.245775,-1.74547 -50.236633,-16.66526 -0.804005,-3.00562 -1.895075,-5.46508 -2.425405,-5.46508 -0.530331,0 -0.964569,-5.74363 -0.964569,-12.76199 0,-12.70604 2.084831,-18.86322 6.388287,-18.86322 0.596013,0 1.857372,-0.77361 2.80248,-1.71871 1.533822,-1.53382 5.314251,-2.09092 23.650789,-3.48486 5.941881,-0.45126 18.214901,0.23354 30.388171,1.69682 m 128.76203,7.45017 c 1.20176,1.20175 1.74304,1.14094 2.65652,-0.30409 0.7663,-1.21149 1.1531,-1.3088 1.16648,-0.29436 0.0122,0.99133 1.9486,1.52044 5.56239,1.52044 6.63643,0 22.79083,2.38163 23.64836,3.48729 0.33449,0.43059 2.7818,1.54356 5.43953,2.47285 9.95586,3.48364 12.05529,7.19717 11.16491,19.74508 -0.48046,6.77631 -1.41826,11.58577 -2.4619,12.6294 -0.92686,0.92686 -2.05563,3.65758 -2.50812,6.06596 -0.45127,2.4096 -1.61288,4.6854 -2.57867,5.05638 -0.967,0.36978 -1.75763,1.35745 -1.75763,2.19187 0,2.80735 -7.3857,7.68979 -12.87876,8.51327 -5.75579,0.86361 -33.52393,-1.41949 -34.5554,-2.84019 -0.33693,-0.46343 -4.02613,-1.52896 -8.19944,-2.36703 -10.23806,-2.05685 -20.97117,-14.14133 -20.99184,-23.63376 -0.002,-1.17134 -0.45735,-2.12862 -1.01079,-2.12862 -1.13729,0 -3.88017,-13.63654 -3.82057,-18.99336 0.0754,-6.8274 7.32002,-10.19914 21.91505,-10.19914 3.31213,0 6.02217,-0.54736 6.02217,-1.21635 0,-1.75398 11.39237,-1.50098 13.18771,0.29436 m -65.1236,6.91254 c 2.09213,0.7955 3.44107,2.75626 4.60269,6.68995 0.90375,3.06034 2.0082,5.56482 2.45581,5.56482 0.44762,0 1.5022,3.69406 2.34514,8.21039 0.84171,4.51632 1.89994,8.48407 2.34999,8.81856 0.45127,0.3345 1.51558,4.57593 2.36581,9.42675 0.85145,4.85082 1.99847,8.81857 2.55069,8.81857 0.55345,0 1.74912,2.23322 2.65895,4.9615 1.06675,3.19902 2.92534,5.68403 5.23398,6.99404 1.96927,1.11783 4.2694,2.66625 5.11355,3.44228 0.84293,0.77482 3.73299,1.78075 6.42235,2.23566 2.68936,0.4537 4.88974,1.26258 4.88974,1.79656 0,0.53519 2.46312,1.30758 5.4736,1.71749 3.01047,0.41113 7.93671,1.08255 10.94718,1.49368 8.06686,1.09959 6.73982,2.33054 -5.1695,4.79487 -5.8531,1.21149 -10.91678,2.57867 -11.25128,3.03845 -0.3345,0.45978 -5.53441,1.52531 -11.55536,2.36703 -6.02095,0.84171 -11.22087,1.95589 -11.55537,2.47406 -0.33571,0.51938 -8.27242,1.62627 -17.63713,2.46069 -9.36593,0.83441 -17.30264,1.92062 -17.63713,2.41567 -1.01079,1.49247 -21.89438,1.94982 -21.89438,0.47925 0,-0.71157 -1.91576,-2.04591 -4.25724,-2.96426 -2.34148,-0.91834 -4.25724,-2.07266 -4.25724,-2.56529 0,-0.49262 -1.97901,-1.54842 -4.39833,-2.34634 -4.33144,-1.42922 -6.26179,-2.75626 -11.88743,-8.16417 -1.56545,-1.50585 -3.34619,-2.7368 -3.9568,-2.7368 -0.61183,0 -2.04834,-1.09472 -3.19415,-2.43271 -1.14581,-1.33799 -2.90952,-2.43271 -3.91909,-2.43271 -1.01079,0 -1.8367,-0.82104 -1.8367,-1.82453 0,-1.2942 1.32704,-1.83061 4.56133,-1.84521 8.68112,-0.0414 25.60061,-3.44106 28.2705,-5.68159 6.41141,-5.38115 9.52041,-8.85627 11.08586,-12.39221 0.92442,-2.0897 2.05077,-3.79989 2.50325,-3.79989 0.45127,0 1.73087,-2.7368 2.84141,-6.08177 1.11053,-3.34498 2.43635,-6.08177 2.94479,-6.08177 0.50843,0 1.64573,-3.01048 2.5288,-6.68995 0.88307,-3.67947 1.99969,-6.68995 2.48258,-6.68995 0.48289,0 1.52287,-2.56407 2.31229,-5.6974 2.10672,-8.36608 8.46582,-11.19654 17.46684,-7.77372 m -89.46041,1.40246 c -1.168916,0.68115 -2.469197,3.39727 -2.892488,6.04406 -0.422075,2.64435 -1.245547,4.80825 -1.829397,4.80825 -0.58385,0 -1.06066,2.18943 -1.06066,4.86541 0,2.67598 0.509652,4.86542 1.131209,4.86542 0.622773,0 1.307581,1.22609 1.520443,2.72463 0.875777,6.13651 9.978963,3.20631 11.937293,-3.84246 3.92883,-14.14255 -0.63372,-24.22612 -8.8064,-19.46531 m 157.45217,9.87922 c -0.80279,0.8028 -1.45962,2.1712 -1.45962,3.04089 0,0.86969 -0.54736,1.58126 -1.21636,1.58126 -1.50827,0 -1.61045,10.21251 -0.13136,13.09284 0.59723,1.16161 1.6737,3.60162 2.39135,5.4225 2.95088,7.48301 10.48619,5.39575 11.78526,-3.26469 2.01671,-13.4541 -5.19019,-26.05187 -11.36927,-19.8728 M 54.078616,182.98434 c 0.59723,0 1.084988,0.714 1.084988,1.58613 0,2.5215 7.555992,9.10806 11.555359,10.07262 2.006985,0.48411 3.950718,1.33556 4.319274,1.89387 0.833202,1.25892 20.826415,3.42647 31.867253,3.45566 4.51633,0.0109 8.21039,0.53155 8.21039,1.15554 0,0.62399 1.00593,1.45354 2.23566,1.84277 1.22852,0.39045 4.74378,3.11387 7.81021,6.05136 3.06643,2.93872 6.71306,5.70349 8.10336,6.14503 1.39029,0.44153 2.5288,1.2723 2.5288,1.84764 0,0.57533 0.95727,1.34042 2.12862,1.70168 1.17134,0.36004 -4.42632,0.37098 -12.43601,0.0231 -8.01091,-0.34788 -14.8529,-1.07526 -15.20443,-1.6141 -0.90253,-1.38543 -11.360741,-2.77937 -13.808045,-1.84035 -4.833791,1.85494 -1.346504,6.99282 5.635369,8.30283 4.634306,0.8697 17.871886,11.89716 17.871886,14.88818 0,0.76873 0.74441,1.68222 1.65424,2.03131 0.90983,0.34909 2.28553,3.14428 3.05792,6.21192 0.77238,3.06765 1.85737,5.57698 2.4096,5.57698 0.55344,0 1.70654,3.14793 2.56164,6.99404 0.85631,3.84611 1.92792,7.26772 2.38162,7.60221 0.45492,0.3345 1.63113,4.16602 2.61516,8.51448 1.89873,8.39163 6.09637,11.49333 6.99525,5.16951 0.21286,-1.50585 0.78698,-2.7368 1.27596,-2.7368 0.48776,0 1.62626,-2.05199 2.53123,-4.56133 0.90375,-2.50812 3.75002,-6.55006 6.32626,-8.98156 2.57502,-2.43027 4.68175,-4.96637 4.68175,-5.63536 0,-0.669 1.26014,-1.4572 2.80126,-1.75155 2.83046,-0.54128 5.71321,1.44502 5.71321,3.93612 0,2.19187 3.27443,4.83014 5.99541,4.83014 1.428,0 2.51907,-0.78941 2.51907,-1.82453 0,-1.03877 -1.0935,-1.82453 -2.53853,-1.82453 -1.70289,0 -2.99101,-1.20054 -3.91544,-3.64907 -0.75779,-2.00698 -2.07875,-3.64906 -2.93506,-3.64906 -0.85753,0 -1.55815,-0.54736 -1.55815,-1.21635 0,-0.669 0.54736,-1.21636 1.21635,-1.21636 0.669,0 1.21635,-1.09471 1.21635,-2.4327 0,-1.33799 -0.54735,-2.43271 -1.21635,-2.43271 -0.66899,0 -1.21635,-2.4242 -1.21635,-5.38602 v -5.38723 l 6.99403,-1.53139 c 3.84611,-0.84293 7.28596,-1.95468 7.64357,-2.47042 0.6398,-0.92442 23.57173,-3.46782 31.27976,-3.46904 l 3.95315,-0.001 v 10.99827 c 0,9.31606 -0.3722,11.39724 -2.4327,13.60857 -2.65652,2.85113 -3.1163,4.58565 -1.21636,4.58565 1.82818,0 6.08177,-4.61971 6.08177,-6.6048 0,-3.05548 17.97285,3.99451 23.64471,9.2747 3.96653,3.69407 6.49776,2.77207 8.17512,-2.97398 0.82955,-2.84384 2.21984,-5.6074 3.08954,-6.14259 0.86969,-0.5352 1.58126,-2.05686 1.58126,-3.38268 0,-1.32583 0.74197,-2.69544 1.64816,-3.04332 0.90618,-0.34788 2.66138,-3.61501 3.90084,-7.2592 1.23947,-3.64542 2.62003,-6.62792 3.07008,-6.62792 0.44884,0 1.49855,-1.64694 2.33175,-3.65879 1.20906,-2.91803 2.47042,-3.81205 6.23017,-4.41293 2.59205,-0.41478 4.71337,-1.23095 4.71337,-1.8148 0,-0.58385 4.92623,-1.06066 10.94719,-1.06066 6.48681,0 10.94718,0.49505 10.94718,1.21635 0,0.669 1.27109,1.21636 2.82438,1.21636 3.78164,0 14.41258,3.68433 16.41956,5.69132 0.88429,0.88429 2.0897,1.6068 2.67963,1.6068 2.31594,0 13.4918,12.56372 14.16323,15.92329 0.38923,1.94617 1.18716,3.53838 1.77222,3.53838 0.58507,0 1.06431,5.19991 1.06431,11.55536 0,6.35545 -0.4245,11.55536 -0.94267,11.55536 -0.51817,0 -1.61167,4.20859 -2.43028,9.35377 -0.8186,5.14396 -2.08604,9.72353 -2.81829,10.1748 -0.73103,0.45248 -1.5472,3.95437 -1.81358,7.78345 -0.51817,7.47449 -6.87484,15.61434 -15.71408,20.12579 -1.96685,1.0035 -4.4847,2.64557 -5.59645,3.64907 -4.60511,4.15628 -7.61681,5.88958 -12.72914,7.32002 -2.96669,0.83076 -5.39332,1.94738 -5.39332,2.48136 0,0.53398 -3.01047,1.64451 -6.68994,2.46798 -3.67947,0.82347 -6.68995,1.8963 -6.68995,2.38284 0,0.48654 -3.69528,1.57396 -8.21039,2.41689 -4.51511,0.84172 -8.613,2.13592 -9.10441,2.87425 -0.62034,0.93294 -0.89889,0.87821 -0.91227,-0.17759 -0.01,-0.83564 -0.83928,-1.52044 -1.84277,-1.52044 -1.0035,0 -1.82453,0.47924 -1.82453,1.06552 0,0.58629 -2.87303,1.36962 -6.38586,1.74182 -3.51162,0.37099 -11.82418,1.25528 -18.47156,1.96441 -6.64737,0.71036 -12.39465,1.7698 -12.77171,2.35487 -0.77726,1.20662 -10.12129,2.22957 -30.4867,3.33889 -8.29189,0.45127 -14.34082,1.32218 -14.85412,2.13835 -1.03147,1.64086 -31.31017,1.54355 -32.45841,-0.10461 -0.40383,-0.57898 -5.64875,-1.74547 -11.6551,-2.59326 -6.00758,-0.8478 -11.20749,-1.94131 -11.55537,-2.42906 -0.34909,-0.48776 -4.87636,-1.86954 -10.060462,-3.07008 -5.185317,-1.19953 -9.426744,-2.63482 -9.426744,-3.18705 0,-0.55344 -2.200384,-1.37813 -4.889743,-1.83183 -2.689359,-0.45491 -5.583066,-1.52044 -6.430864,-2.36702 -0.846583,-0.8478 -3.70988,-2.30013 -6.361532,-3.22821 -2.651652,-0.92686 -5.094091,-1.97779 -5.428584,-2.33418 -0.334497,-0.35639 -2.933846,-1.67492 -5.777682,-2.92777 -2.843836,-1.25406 -5.169505,-2.64192 -5.169505,-3.08467 0,-0.44275 -1.892647,-1.5472 -4.206152,-2.45582 -2.313506,-0.9074 -4.485914,-2.37797 -4.82771,-3.26713 -0.341795,-0.89037 -1.227301,-1.61775 -1.969277,-1.61775 -0.74076,0 -2.989798,-1.64207 -4.996783,-3.64906 -2.006984,-2.00698 -4.391038,-3.64906 -5.298438,-3.64906 -0.906184,0 -1.975359,-1.03147 -2.37554,-2.29161 -0.636153,-2.00212 -2.426626,-4.26697 -9.739347,-12.31437 -0.917131,-1.00957 -2.043475,-3.33524 -2.504473,-5.16951 -0.459782,-1.83426 -1.302715,-3.33524 -1.871969,-3.33524 -0.57047,0 -1.715059,-2.32688 -2.545829,-5.1695 -0.83077,-2.84262 -2.084831,-5.56117 -2.785451,-6.0392 -1.858589,-1.26623 -1.712627,-34.83152 0.155693,-35.98584 0.785765,-0.48654 2.082399,-3.47634 2.880327,-6.64494 0.797928,-3.1686 1.813584,-5.76187 2.256337,-5.76187 0.443969,0 1.533822,-2.46312 2.422977,-5.47359 0.889155,-3.01048 2.015499,-5.4736 2.503257,-5.4736 0.488974,0 1.618967,-2.21619 2.512987,-4.92501 0.894021,-2.70882 2.24539,-5.30817 3.003179,-5.77769 0.757788,-0.46951 2.095778,-2.63219 2.973985,-4.80581 0.878208,-2.17363 2.010634,-3.95315 2.517853,-3.95315 0.50722,0 1.601939,-1.64208 2.432709,-3.64906 0.830769,-2.00699 1.880483,-3.64907 2.330534,-3.64907 0.451267,0 1.835478,-2.46311 3.077376,-5.47359 1.240681,-3.01048 2.655301,-5.47359 3.141843,-5.47359 0.487758,0 1.605587,-1.77953 2.485011,-3.95315 2.530017,-6.25571 4.050459,-6.33478 5.213294,-0.27247 0.574119,2.99345 1.532606,5.44197 2.128619,5.44197 M 174.18263,172.87522 c -3.4958,0.40261 -4.74621,1.24555 -5.87134,3.96288 -3.06035,7.38935 0.59115,13.86887 5.21208,9.24794 2.6334,-2.6334 3.06886,-2.42054 4.22561,2.06781 1.27839,4.9615 5.93338,6.30801 6.55858,1.89629 0.35274,-2.49352 0.97795,-2.77207 5.56725,-2.48258 5.15126,0.32477 5.16951,0.31139 5.16951,-3.89598 0,-6.57926 -2.25755,-10.41807 -6.12556,-10.41807 -1.8148,0 -4.87515,-0.19948 -6.7982,-0.44397 -1.92306,-0.24449 -5.49549,-0.2153 -7.93793,0.0657 m 83.96249,42.18559 c -0.80158,1.75885 -1.83426,3.1978 -2.29526,3.1978 -0.461,0 -1.85372,2.46312 -3.0944,5.47359 -1.2419,3.01048 -2.67112,5.4736 -3.1759,5.4736 -0.50479,0 -1.57397,2.18943 -2.37554,4.86541 -0.80158,2.67598 -1.844,4.86542 -2.31594,4.86542 -0.47316,0 -1.82818,2.5361 -3.0117,5.63658 -2.77328,7.26042 -9.12508,13.56357 -9.12508,9.05454 0,-0.6179 -1.91576,-1.7552 -4.25724,-2.52758 -2.34148,-0.77238 -4.25724,-1.77588 -4.25724,-2.22958 0,-0.45491 -1.51923,-1.49733 -3.37538,-2.31958 -8.94021,-3.95802 -4.73892,-15.65083 7.75547,-21.57934 2.27336,-1.07891 4.13439,-2.69544 4.13439,-3.59068 0,-0.99863 2.11889,-1.94738 5.47359,-2.45095 3.01048,-0.45127 5.47359,-1.25893 5.47359,-1.79656 0,-0.53641 3.28416,-1.67249 7.29813,-2.52393 4.01397,-0.85145 7.29812,-2.11281 7.29812,-2.80127 0,-0.68967 0.29436,-0.95848 0.65318,-0.59966 0.36005,0.36004 -10e-4,2.09335 -0.80279,3.85219 m -139.73111,12.74859 c 0,0.57047 4.91529,1.35502 10.92286,1.74425 11.18681,0.72495 19.48599,4.47984 19.48599,8.81735 0,0.86848 0.6167,1.7844 1.37083,2.03618 1.60559,0.5352 3.59676,11.90932 2.08484,11.90932 -0.56196,0 -1.02296,0.51574 -1.02296,1.14459 0,0.63007 -2.32567,3.55176 -5.1695,6.49169 -2.84384,2.94114 -5.97473,6.5306 -6.95877,7.97806 -2.23565,3.28902 -3.68433,3.36687 -3.68433,0.19827 0,-1.33799 -0.45735,-2.43271 -1.01687,-2.43271 -0.55953,0 -2.01794,-4.37888 -3.24037,-9.73083 -1.22244,-5.35196 -2.57016,-9.73084 -2.99588,-9.73084 -0.42451,0 -1.50098,-2.0155 -2.39257,-4.47861 -1.681,-4.65134 -2.49839,-5.90783 -7.07918,-10.89732 -3.03116,-3.30118 -3.32308,-4.08573 -1.52045,-4.08573 0.669,0 1.21636,0.46586 1.21636,1.03633 m 62.03406,15.89167 c 0,1.95103 0.5206,3.72934 1.15797,3.95315 1.31609,0.461 3.34011,12.46763 2.75504,16.34172 -0.38923,2.57867 -6.34572,2.89978 -6.34572,0.34179 0,-0.58993 -1.3684,-1.07404 -3.04088,-1.07404 -1.89265,0 -3.04089,0.68967 -3.04089,1.82453 0,1.0558 1.1008,1.82453 2.61395,1.82453 3.34375,0 -6.55858,5.41886 -12.1453,6.64616 -2.11646,0.46465 -3.84854,1.32704 -3.84854,1.91576 0,0.58993 -2.18944,1.72722 -4.86542,2.5288 -2.67598,0.80158 -4.86542,1.87562 -4.86542,2.3877 0,0.51087 -1.94616,1.57153 -4.32414,2.35608 -6.46613,2.1347 -5.17315,5.16829 2.80735,6.58534 3.5104,0.62399 6.38221,1.58248 6.38221,2.12862 0,0.54736 7.93671,0.99498 17.63713,0.99498 10.94719,0 17.63714,-0.461 17.63714,-1.21635 0,-0.72617 4.68539,-1.21636 11.62469,-1.21636 12.19395,0 21.93695,-1.76979 24.6482,-4.4774 0.88429,-0.88185 2.34149,-1.60437 3.23916,-1.60437 0.95483,0 1.97171,-2.0228 2.45581,-4.88974 0.45492,-2.68936 1.59708,-5.66091 2.53975,-6.60237 6.41505,-6.41505 -3.32308,-11.61862 -21.74111,-11.61862 -7.18014,0 -10.5908,-0.47073 -11.01774,-1.52044 -0.39896,-0.98525 -0.97065,-1.09229 -1.6214,-0.30409 -4.67688,5.66213 -9.52283,4.01275 -10.66864,-3.63082 -0.4537,-3.0202 -1.28933,-5.49183 -1.85859,-5.49183 -0.56925,0 -1.40489,-2.18944 -1.85737,-4.86542 -0.98038,-5.80323 -4.25724,-6.81767 -4.25724,-1.31731 M 362.203,302.8682 c 0.42937,1.71263 0.45248,4.86542 0.0511,7.0062 -1.66762,8.8879 8.72491,15.75908 12.6732,8.38068 0.64102,-1.19689 2.71247,-2.9752 4.60511,-3.95072 1.89144,-0.97551 3.79989,-2.27458 4.24022,-2.88641 0.44153,-0.61182 1.71019,-0.20191 2.82437,0.91105 1.11175,1.11175 1.47179,2.02158 0.80036,2.02158 -0.67143,0 -1.55937,1.06553 -1.97293,2.36703 -0.41356,1.3015 -2.64192,4.44942 -4.95421,6.99403 -3.13089,3.44715 -4.12344,5.55753 -3.89111,8.27608 l 0.31017,3.64906 8.12038,0.0109 c 9.89747,0.0146 10.1748,0.2457 5.95527,4.96759 -6.23868,6.98309 -37.79456,9.30632 -37.79456,2.78302 0,-0.58872 -0.71278,-1.07161 -1.58491,-1.07161 -4.39712,0 -17.7016,-12.19882 -18.68928,-17.136 -0.63737,-3.19171 -0.39288,-3.54202 2.48501,-3.54202 1.75642,0 3.19293,0.54736 3.19293,1.21635 0,0.669 1.91576,1.21636 4.25724,1.21636 6.0538,0 9.03873,-3.50432 10.4497,-12.26572 1.68222,-10.44605 7.16554,-15.94518 8.92196,-8.9475"
       id="path0" />
  </g>
</svg>
