<svg id="svg" version="1.1" xmlns="http://www.w3.org/2000/svg" xmlns:xlink="http://www.w3.org/1999/xlink" width="400" height="400" viewBox="0, 0, 400,400"><g id="svgg"><path id="path0" d="M190.556 4.263 C 188.926 4.510,186.676 4.669,185.556 4.616 C 184.435 4.563,182.852 4.688,182.037 4.893 C 181.222 5.098,179.222 5.403,177.593 5.571 C 174.132 5.928,172.300 6.193,170.000 6.672 C 169.083 6.863,167.651 7.111,166.817 7.223 C 165.983 7.334,164.775 7.577,164.132 7.761 C 163.489 7.946,162.963 8.029,162.963 7.946 C 162.963 7.864,162.563 7.948,162.075 8.134 C 161.586 8.320,160.467 8.579,159.587 8.710 C 158.708 8.841,157.660 9.124,157.258 9.339 C 156.857 9.554,155.935 9.808,155.209 9.903 C 154.483 9.998,152.972 10.386,151.852 10.765 C 150.731 11.145,149.148 11.613,148.333 11.806 C 147.519 11.999,146.269 12.360,145.556 12.608 C 143.607 13.285,139.544 14.724,138.704 15.034 C 138.296 15.184,137.880 15.335,137.778 15.370 C 133.059 17.001,117.654 24.366,115.598 25.975 C 115.112 26.356,114.508 26.667,114.255 26.667 C 114.002 26.667,113.573 26.934,113.301 27.261 C 113.030 27.588,112.468 28.004,112.052 28.186 C 110.896 28.692,109.738 29.463,108.148 30.783 C 107.639 31.206,106.755 31.795,106.184 32.092 C 105.613 32.389,104.846 32.915,104.480 33.260 C 103.421 34.261,102.232 35.185,102.004 35.185 C 101.320 35.185,98.663 38.372,99.305 38.420 C 99.687 38.449,100.000 38.334,100.000 38.165 C 100.000 37.996,100.458 37.729,101.019 37.570 C 101.579 37.412,102.120 37.259,102.222 37.230 C 102.443 37.166,106.549 35.239,107.557 34.726 C 108.734 34.127,113.477 32.193,114.130 32.046 C 114.467 31.970,115.217 31.669,115.797 31.376 C 116.820 30.860,123.235 28.585,124.415 28.320 C 124.737 28.248,125.542 28.025,126.204 27.824 C 126.866 27.623,127.407 27.551,127.407 27.664 C 127.407 27.776,127.616 27.703,127.870 27.500 C 128.615 26.908,140.012 23.990,143.519 23.494 C 144.333 23.379,145.631 23.121,146.401 22.921 C 147.664 22.593,149.793 22.294,155.370 21.660 C 156.389 21.544,157.806 21.360,158.519 21.251 C 164.437 20.349,188.706 20.393,193.889 21.315 C 194.296 21.388,195.546 21.482,196.667 21.526 C 197.787 21.569,199.204 21.735,199.815 21.895 C 200.426 22.055,201.593 22.252,202.407 22.333 C 203.222 22.414,204.889 22.685,206.111 22.935 C 208.108 23.343,214.811 24.808,215.741 25.040 C 215.944 25.091,216.861 25.301,217.778 25.507 C 219.117 25.808,222.072 26.643,225.000 27.548 C 225.204 27.610,225.870 27.785,226.481 27.936 C 227.093 28.087,228.093 28.425,228.704 28.687 C 229.315 28.949,230.731 29.448,231.852 29.796 C 234.126 30.501,239.361 32.452,240.310 32.948 C 240.649 33.125,241.843 33.628,242.963 34.065 C 245.615 35.100,257.185 40.843,257.346 41.204 C 257.414 41.356,257.747 41.482,258.086 41.482 C 258.426 41.483,259.685 42.150,260.883 42.964 C 262.082 43.778,263.220 44.444,263.412 44.444 C 263.913 44.444,274.264 51.344,276.588 53.228 C 277.666 54.101,278.674 54.815,278.829 54.815 C 278.983 54.815,279.685 55.393,280.388 56.099 C 281.091 56.806,281.833 57.391,282.037 57.400 C 282.241 57.408,283.074 58.043,283.889 58.811 C 284.704 59.579,286.201 60.869,287.217 61.677 C 290.603 64.374,300.726 74.943,304.074 79.278 C 304.583 79.938,305.252 80.747,305.561 81.077 C 305.869 81.407,306.531 82.258,307.032 82.968 C 307.533 83.678,308.083 84.426,308.253 84.630 C 308.424 84.833,308.845 85.432,309.189 85.959 C 311.152 88.969,313.741 92.833,314.030 93.182 C 314.410 93.642,317.237 98.832,319.357 102.963 C 321.664 107.458,324.697 114.722,325.929 118.704 C 326.560 120.741,327.213 122.741,327.381 123.148 C 328.297 125.375,329.949 132.883,330.995 139.585 C 332.258 147.671,332.385 162.510,331.251 169.630 C 329.959 177.750,328.031 186.291,327.096 188.038 C 326.860 188.479,326.666 189.143,326.664 189.513 C 326.663 189.883,326.448 190.602,326.187 191.111 C 325.926 191.620,325.404 192.870,325.028 193.889 C 323.341 198.452,317.731 209.105,315.470 212.037 C 315.313 212.241,313.765 214.276,312.029 216.561 C 309.120 220.390,303.491 226.432,300.364 229.082 C 295.612 233.109,292.984 235.045,287.870 238.288 C 277.160 245.079,262.515 249.672,249.569 250.298 C 215.071 251.967,186.760 237.635,173.965 212.023 C 164.862 193.802,165.216 172.064,174.905 154.301 C 175.670 152.897,176.296 151.674,176.296 151.582 C 176.296 151.348,179.336 146.967,179.937 146.332 C 181.280 144.918,183.341 141.794,183.144 141.474 C 181.816 139.326,163.742 144.998,160.741 148.504 C 160.639 148.623,160.056 149.037,159.444 149.424 C 150.646 154.992,139.972 169.993,137.028 180.926 C 136.864 181.537,136.401 183.204,136.000 184.630 C 135.598 186.056,135.087 188.556,134.863 190.185 C 134.640 191.815,134.287 194.347,134.080 195.812 C 133.613 199.116,133.599 204.283,134.050 207.222 C 134.710 211.531,134.917 215.556,134.478 215.556 C 133.432 215.556,130.084 205.045,128.521 196.852 C 128.093 194.611,127.513 191.611,127.231 190.185 C 125.528 181.570,125.523 164.616,127.220 155.556 C 128.889 146.643,129.566 143.696,131.131 138.519 C 135.043 125.578,141.905 111.277,148.676 101.950 C 149.302 101.087,150.481 99.445,151.296 98.302 C 156.214 91.401,165.156 81.796,171.667 76.422 C 176.856 72.138,177.389 71.732,180.741 69.503 C 182.472 68.351,184.090 67.241,184.336 67.038 C 184.582 66.834,184.890 66.667,185.020 66.667 C 185.150 66.667,185.738 66.323,186.328 65.904 C 187.533 65.045,196.096 60.741,196.598 60.741 C 196.776 60.741,197.212 60.421,197.566 60.029 C 198.441 59.062,197.608 58.624,193.991 58.149 C 192.509 57.954,190.713 57.640,190.000 57.451 C 189.287 57.262,186.537 57.003,183.889 56.875 C 181.241 56.747,178.241 56.561,177.222 56.462 C 174.703 56.217,162.110 56.948,157.778 57.592 C 155.843 57.879,152.843 58.302,151.111 58.531 C 149.380 58.761,147.296 59.105,146.481 59.296 C 140.373 60.726,132.465 62.718,130.926 63.213 C 127.875 64.195,120.635 66.713,119.444 67.207 C 118.833 67.460,117.333 68.054,116.111 68.526 C 92.363 77.700,67.112 96.232,53.333 114.599 C 52.620 115.549,51.870 116.533,51.667 116.784 C 50.469 118.264,46.490 124.162,45.498 125.926 C 45.097 126.639,44.105 128.389,43.293 129.815 C 42.481 131.241,41.163 133.741,40.364 135.370 C 39.565 137.000,38.583 138.821,38.183 139.418 L 37.455 140.502 37.191 139.451 C 37.046 138.874,37.116 137.636,37.348 136.700 C 37.579 135.765,37.869 134.250,37.991 133.333 C 38.538 129.239,41.354 114.579,41.702 114.017 C 41.794 113.868,42.042 112.779,42.254 111.596 C 42.466 110.412,42.871 108.611,43.154 107.593 C 43.437 106.574,44.038 104.324,44.491 102.593 C 45.686 98.018,49.086 87.730,50.202 85.314 C 50.847 83.918,50.887 83.097,50.328 82.752 C 49.530 82.259,38.160 94.748,34.097 100.579 C 30.349 105.959,27.374 110.424,26.256 112.348 C 25.565 113.538,24.737 114.955,24.416 115.496 C 21.918 119.713,15.830 132.430,14.813 135.556 C 14.647 136.065,14.066 137.648,13.522 139.074 C 11.924 143.261,10.203 148.743,8.928 153.704 C 8.273 156.250,7.506 159.167,7.222 160.185 C 6.056 164.370,4.220 175.768,3.702 182.037 C 3.484 184.685,3.146 188.269,2.952 190.000 C 2.504 193.996,2.506 210.458,2.956 213.914 C 3.143 215.353,3.478 219.103,3.701 222.247 C 3.923 225.391,4.338 229.463,4.623 231.296 C 4.907 233.130,5.211 235.130,5.298 235.741 C 5.384 236.352,5.713 238.102,6.028 239.630 C 6.344 241.157,6.683 242.824,6.782 243.333 C 6.974 244.320,9.646 254.495,10.526 257.593 C 15.854 276.342,28.854 302.341,40.334 317.205 C 41.271 318.418,42.287 319.774,42.593 320.218 C 43.485 321.515,46.191 325.026,46.735 325.592 C 47.010 325.877,48.563 327.694,50.187 329.630 C 53.944 334.107,66.577 346.777,70.885 350.388 C 76.143 354.796,76.955 355.441,82.095 359.293 C 95.561 369.384,110.082 377.511,127.037 384.448 C 135.409 387.873,147.046 391.452,156.049 393.371 C 157.849 393.755,159.432 394.137,159.568 394.220 C 159.894 394.421,168.416 395.916,171.481 396.311 C 182.104 397.679,183.747 397.763,199.815 397.763 C 215.897 397.763,217.810 397.665,228.519 396.284 C 231.978 395.838,239.384 394.541,241.015 394.096 C 241.781 393.887,244.241 393.288,246.481 392.766 C 250.524 391.824,251.310 391.612,256.667 390.008 C 263.838 387.862,273.268 384.432,277.737 382.344 C 278.835 381.830,280.447 381.105,281.320 380.731 C 285.485 378.945,299.631 371.515,300.770 370.514 C 301.091 370.231,301.451 370.000,301.568 370.000 C 302.232 370.000,316.715 360.279,318.515 358.625 C 319.022 358.159,319.539 357.778,319.664 357.778 C 319.789 357.778,320.303 357.403,320.805 356.944 C 321.308 356.486,322.275 355.694,322.955 355.185 C 331.744 348.600,347.058 333.453,354.004 324.472 C 356.862 320.778,362.025 313.904,362.406 313.286 C 362.610 312.954,363.760 311.204,364.960 309.397 C 370.824 300.565,373.912 295.136,378.204 286.111 C 380.241 281.828,380.881 280.417,382.235 277.222 C 382.580 276.407,383.219 274.945,383.654 273.972 C 384.089 272.999,384.445 271.999,384.447 271.749 C 384.448 271.500,384.718 270.796,385.047 270.185 C 385.376 269.574,385.778 268.574,385.942 267.963 C 386.105 267.352,386.672 265.650,387.202 264.180 C 389.019 259.136,392.575 246.413,393.132 242.963 C 393.247 242.250,393.503 240.917,393.702 240.000 C 393.901 239.083,394.139 237.917,394.230 237.407 C 394.321 236.898,394.580 235.565,394.806 234.444 C 395.032 233.324,395.304 231.407,395.410 230.185 C 395.517 228.963,395.830 226.963,396.105 225.741 C 397.186 220.940,397.704 188.723,396.805 182.222 C 396.566 180.491,396.359 178.276,396.346 177.301 C 396.333 176.326,396.225 175.369,396.105 175.175 C 395.985 174.982,395.807 174.030,395.708 173.060 C 395.609 172.090,395.420 170.713,395.288 170.000 C 394.965 168.267,394.907 167.837,394.774 166.178 C 394.711 165.400,394.528 164.681,394.367 164.582 C 394.206 164.482,394.074 163.868,394.074 163.216 C 394.074 162.565,393.903 161.450,393.695 160.738 C 393.486 160.027,393.223 158.882,393.109 158.194 C 392.895 156.898,392.791 156.384,392.241 153.889 C 391.631 151.125,391.534 150.790,391.124 150.024 C 390.899 149.603,390.824 149.259,390.958 149.259 C 391.092 149.259,391.037 149.051,390.837 148.796 C 390.636 148.542,390.472 148.083,390.472 147.778 C 390.473 147.472,390.001 145.722,389.423 143.889 C 388.846 142.056,388.355 140.472,388.332 140.370 C 388.118 139.410,386.848 135.483,386.442 134.524 C 386.158 133.856,385.926 133.078,385.926 132.796 C 385.926 132.514,385.527 131.478,385.039 130.493 C 384.552 129.509,384.039 128.162,383.899 127.500 C 383.759 126.838,383.491 126.296,383.304 126.296 C 383.116 126.296,382.963 126.043,382.963 125.733 C 382.963 125.423,382.296 123.740,381.481 121.992 C 380.667 120.245,380.000 118.720,380.000 118.604 C 380.000 118.301,373.574 105.407,373.313 105.185 C 373.192 105.083,372.979 104.750,372.837 104.444 C 372.525 103.768,370.342 99.786,369.606 98.550 C 369.314 98.058,368.811 97.378,368.490 97.040 C 368.169 96.701,367.535 95.659,367.083 94.724 C 366.630 93.788,366.018 92.822,365.722 92.577 C 365.427 92.332,365.185 91.902,365.185 91.621 C 365.185 91.341,365.019 91.111,364.815 91.111 C 364.611 91.111,364.444 90.887,364.444 90.613 C 364.444 90.339,364.111 89.813,363.704 89.444 C 363.296 89.076,362.963 88.581,362.963 88.345 C 362.963 88.109,362.463 87.437,361.852 86.852 C 361.241 86.266,360.740 85.610,360.740 85.394 C 360.739 85.177,360.240 84.417,359.630 83.704 C 359.019 82.991,358.520 82.284,358.519 82.132 C 358.519 81.855,358.062 81.280,355.370 78.162 C 354.556 77.218,353.556 75.978,353.148 75.405 C 352.741 74.833,351.949 73.895,351.389 73.322 C 350.829 72.748,350.370 72.181,350.370 72.061 C 350.370 71.820,349.046 70.368,344.722 65.871 C 343.144 64.228,341.852 62.755,341.852 62.597 C 341.852 62.438,341.506 62.218,341.084 62.108 C 340.661 61.997,340.235 61.600,340.137 61.224 C 340.039 60.849,339.365 60.135,338.640 59.638 C 337.914 59.141,337.147 58.352,336.934 57.886 C 336.722 57.419,336.419 57.037,336.262 57.037 C 336.104 57.037,335.067 56.162,333.956 55.093 C 331.593 52.817,329.132 50.633,327.176 49.074 C 326.409 48.463,325.320 47.505,324.755 46.944 C 324.191 46.384,323.620 45.926,323.487 45.926 C 323.355 45.926,322.702 45.468,322.037 44.907 C 321.371 44.347,320.349 43.528,319.766 43.087 C 319.182 42.646,318.287 41.920,317.778 41.474 C 317.269 41.028,316.102 40.149,315.185 39.521 C 314.269 38.893,313.249 38.078,312.920 37.708 C 312.590 37.339,312.157 37.037,311.958 37.037 C 311.758 37.037,311.194 36.685,310.705 36.255 C 310.215 35.825,308.981 34.983,307.963 34.384 C 306.944 33.785,304.778 32.460,303.148 31.439 C 301.519 30.418,299.727 29.410,299.167 29.199 C 298.606 28.989,298.148 28.684,298.148 28.522 C 298.148 28.361,297.735 28.125,297.230 27.998 C 296.725 27.871,295.516 27.308,294.545 26.747 C 293.573 26.185,292.036 25.396,291.129 24.993 C 290.222 24.589,287.591 23.301,285.283 22.130 C 282.975 20.958,280.924 20.000,280.725 20.000 C 280.525 20.000,279.656 19.680,278.792 19.288 C 275.427 17.761,271.979 16.351,270.741 15.993 C 270.028 15.787,268.028 15.098,266.296 14.463 C 264.565 13.827,262.852 13.239,262.490 13.155 C 262.128 13.070,259.961 12.416,257.675 11.700 C 251.168 9.663,248.251 8.926,241.481 7.607 C 238.935 7.111,236.435 6.613,235.926 6.499 C 234.695 6.223,232.852 5.960,230.370 5.704 C 227.619 5.421,226.649 5.282,225.556 5.017 C 225.046 4.893,223.130 4.717,221.296 4.624 C 219.463 4.532,217.380 4.359,216.667 4.240 C 213.975 3.791,193.554 3.809,190.556 4.263 " stroke="none" fill="#000000" fill-rule="evenodd"></path></g></svg>