<?xml version="1.0" encoding="UTF-8" standalone="no"?>
<svg
   xmlns:dc="http://purl.org/dc/elements/1.1/"
   xmlns:cc="http://creativecommons.org/ns#"
   xmlns:rdf="http://www.w3.org/1999/02/22-rdf-syntax-ns#"
   xmlns:svg="http://www.w3.org/2000/svg"
   xmlns="http://www.w3.org/2000/svg"
   xmlns:sodipodi="http://sodipodi.sourceforge.net/DTD/sodipodi-0.dtd"
   xmlns:inkscape="http://www.inkscape.org/namespaces/inkscape"
   id="svg"
   version="1.1"
   width="2500"
   height="2500"
   sodipodi:docname="firebase-alt.svg"
   inkscape:version="0.92.4 (5da689c313, 2019-01-14)">
  <metadata
     id="metadata9">
    <rdf:RDF>
      <cc:Work
         rdf:about="">
        <dc:format>image/svg+xml</dc:format>
        <dc:type
           rdf:resource="http://purl.org/dc/dcmitype/StillImage" />
        <dc:title></dc:title>
      </cc:Work>
    </rdf:RDF>
  </metadata>
  <defs
     id="defs7" />
  <sodipodi:namedview
     pagecolor="#ffffff"
     bordercolor="#666666"
     borderopacity="1"
     objecttolerance="10"
     gridtolerance="10"
     guidetolerance="10"
     inkscape:pageopacity="0"
     inkscape:pageshadow="2"
     inkscape:window-width="1920"
     inkscape:window-height="1027"
     id="namedview5"
     showgrid="false"
     inkscape:zoom="0.0944"
     inkscape:cx="-1742.1017"
     inkscape:cy="1207.6271"
     inkscape:window-x="-8"
     inkscape:window-y="-8"
     inkscape:window-maximized="1"
     inkscape:current-layer="svg" />
  <g
     id="svgg"
     transform="matrix(4.5221577,0,0,4.5221577,345.54585,0)">
    <path
       id="path0"
       d="M 71.619,0.837 C 69.005,2.527 66.742,5.74 65.951,8.886 65.769,9.611 50.855,104.752 32.81,220.311 L 0,430.42 l 0.002,7.006 0.002,7.006 90.673,50.616 c 49.87,27.839 91.467,50.964 92.438,51.388 0.97,0.424 2.694,1.072 3.83,1.441 l 2.066,0.669 h 10.044 10.044 l 2.362,-0.785 c 3.864,-1.285 3.692,-1.19 97.809,-53.696 l 90.62,-50.556 0.06,-3.622 0.06,-3.623 -25.572,-157.518 c -14.065,-86.634 -25.727,-158.06 -25.916,-158.724 -2.476,-8.685 -13.427,-12.754 -21.198,-7.876 -1.03,0.646 -9.475,8.988 -33.413,33.004 l -32.035,32.14 -22.883,-43.727 c -12.585,-24.05 -23.891,-45.649 -25.123,-47.998 -2.634,-5.022 -4.384,-7.079 -7.331,-8.615 -6.745,-3.517 -15.572,-1.519 -19.568,4.428 -0.455,0.678 -6.636,12.316 -13.735,25.863 -7.098,13.546 -12.974,24.63 -13.056,24.63 -0.082,0 -15.397,-28.648 -34.032,-63.662 C 88.725,-2.103 91.383,2.633 88.218,0.62 L 87.243,0 h -7.164 -7.164 l -1.296,0.837 m 265.33,115.573 c 2.618,0.741 4.982,3.102 5.781,5.774 0.415,1.389 51.644,316.309 51.516,316.688 -0.09,0.268 -177.155,99.003 -179.984,100.362 -9.827,4.722 -20.612,4.764 -30.28,0.119 C 179.948,537.414 6.08,440.837 6.196,440.6 c 0.41,-0.837 256.352,-256.122 257.068,-256.409 0.692,-0.276 8.093,-7.595 33.311,-32.941 32.332,-32.495 34.036,-34.135 36.173,-34.805 2.038,-0.64 2.062,-0.64 4.201,-0.035 M 161.69,138.085 c -0.205,0.448 0.711,2.306 7.708,15.633 4.367,8.319 10.583,20.16 13.813,26.315 3.229,6.155 10.584,20.166 16.344,31.135 l 10.473,19.945 -87.625,87.639 C 13.02,428.152 2.739,438.35 2.907,437.287 c 0.13,-0.819 0.763,-2.043 26.555,-51.33 16.334,-31.213 18.744,-35.82 46.733,-89.303 8.81,-16.835 21.004,-40.137 27.097,-51.783 6.093,-11.646 13.868,-26.506 17.279,-33.022 3.41,-6.517 12.787,-24.438 20.839,-39.825 8.051,-15.387 15.343,-29.309 16.203,-30.938 0.861,-1.629 1.551,-3.011 1.533,-3.072 -0.017,-0.06 0.397,-0.076 0.921,-0.034 0.523,0.042 1.132,-0.029 1.353,-0.158 0.538,-0.313 0.534,-0.317 0.27,0.263"
       inkscape:connector-curvature="0"
       style="fill:#000000;fill-rule:evenodd;stroke:none" />
  </g>
</svg>
