<svg id="svg" version="1.1" width="515" height="515" xmlns="http://www.w3.org/2000/svg" xmlns:xlink="http://www.w3.org/1999/xlink" style="display: block;"><g id="svgg"><path id="path0" d="M139.182 33.550 C 136.256 34.344,133.187 35.670,132.360 36.497 C 131.533 37.324,130.200 38.000,129.397 38.000 C 128.594 38.000,127.677 38.677,127.360 39.505 C 127.042 40.332,125.332 41.697,123.560 42.538 C 121.718 43.413,119.631 45.551,118.685 47.534 C 117.776 49.440,116.630 51.000,116.137 51.000 C 115.645 51.000,114.683 52.350,114.000 54.000 C 113.317 55.650,112.434 57.000,112.039 57.000 C 111.643 57.000,110.719 58.822,109.984 61.049 C 109.249 63.276,108.138 65.413,107.515 65.799 C 106.892 66.185,105.792 67.963,105.070 69.750 C 104.348 71.537,103.392 73.000,102.946 73.000 C 102.500 73.000,101.861 73.861,101.527 74.914 C 101.193 75.966,98.688 80.579,95.961 85.164 C 93.233 89.749,91.001 94.014,91.001 94.643 C 91.000 95.272,90.413 96.011,89.695 96.287 C 88.977 96.562,87.788 98.612,87.052 100.842 C 86.316 103.071,85.104 105.130,84.357 105.416 C 83.611 105.703,83.000 106.594,83.000 107.397 C 83.000 108.200,82.437 109.452,81.750 110.179 C 80.494 111.507,77.586 116.498,74.280 123.000 C 73.301 124.925,72.008 127.024,71.407 127.665 C 70.805 128.305,69.707 130.330,68.965 132.165 C 68.224 133.999,67.029 135.860,66.309 136.300 C 65.589 136.740,65.000 137.720,65.000 138.478 C 65.000 139.237,64.430 140.452,63.732 141.179 C 63.035 141.905,61.617 144.412,60.580 146.750 C 59.544 149.087,58.349 151.000,57.926 151.000 C 57.502 151.000,56.635 152.575,56.000 154.500 C 55.365 156.425,54.491 158.000,54.058 158.000 C 53.626 158.000,52.498 160.025,51.553 162.500 C 50.608 164.975,49.476 167.000,49.039 167.000 C 48.601 167.000,47.683 168.350,47.000 170.000 C 46.317 171.650,45.434 173.000,45.039 173.000 C 44.643 173.000,43.710 174.848,42.965 177.106 C 42.220 179.365,41.063 181.422,40.395 181.679 C 39.727 181.935,38.914 183.206,38.589 184.502 C 38.263 185.799,37.386 187.471,36.639 188.218 C 35.892 188.965,34.303 191.584,33.109 194.038 C 29.785 200.864,27.782 204.361,26.410 205.733 C 25.723 206.420,24.639 208.565,24.000 210.500 C 23.361 212.435,22.492 213.804,22.069 213.542 C 21.645 213.281,20.709 214.851,19.989 217.033 C 19.269 219.215,18.370 221.000,17.992 221.000 C 17.613 221.000,16.492 222.800,15.500 225.000 C 14.508 227.200,13.349 229.000,12.926 229.000 C 12.502 229.000,11.635 230.575,11.000 232.500 C 10.365 234.425,9.485 236.000,9.044 236.000 C 3.924 236.000,4.130 274.273,9.278 279.421 C 9.972 280.115,12.061 283.679,13.919 287.341 C 15.778 291.004,17.633 294.000,18.041 294.000 C 18.449 294.000,19.058 295.094,19.393 296.430 C 19.729 297.767,20.614 299.471,21.361 300.218 C 22.108 300.965,23.679 303.584,24.853 306.038 C 26.027 308.492,27.883 311.850,28.978 313.500 C 31.189 316.830,34.460 322.619,37.500 328.579 C 38.600 330.735,39.993 332.950,40.596 333.500 C 41.198 334.050,42.265 335.962,42.967 337.750 C 43.669 339.538,44.548 341.000,44.920 341.000 C 45.293 341.000,46.168 342.575,46.864 344.500 C 47.560 346.425,48.513 348.000,48.982 348.000 C 49.451 348.000,50.608 350.025,51.553 352.500 C 52.498 354.975,53.631 357.000,54.071 357.000 C 54.511 357.000,55.440 358.575,56.136 360.500 C 56.832 362.425,57.694 364.000,58.050 364.000 C 58.407 364.000,59.534 366.025,60.554 368.500 C 61.575 370.975,62.791 373.000,63.257 373.000 C 63.723 373.000,64.575 374.350,65.150 376.000 C 65.725 377.650,66.509 379.000,66.893 379.000 C 67.276 379.000,68.425 381.025,69.446 383.500 C 70.466 385.975,71.593 388.000,71.950 388.000 C 72.306 388.000,73.168 389.575,73.864 391.500 C 74.560 393.425,75.489 395.000,75.929 395.000 C 76.369 395.000,77.502 397.025,78.447 399.500 C 79.392 401.975,80.534 404.000,80.985 404.000 C 81.436 404.000,82.275 405.350,82.850 407.000 C 83.425 408.650,84.279 410.000,84.747 410.000 C 85.215 410.000,86.186 411.624,86.903 413.609 C 87.621 415.594,89.295 418.857,90.623 420.859 C 91.950 422.862,93.482 425.175,94.026 426.000 C 94.570 426.825,95.962 429.300,97.119 431.500 C 98.275 433.700,99.933 436.850,100.801 438.500 C 101.670 440.150,102.970 442.094,103.689 442.820 C 104.408 443.546,105.271 445.233,105.607 446.570 C 105.942 447.906,106.550 449.000,106.957 449.000 C 107.363 449.000,108.539 450.912,109.570 453.250 C 110.600 455.587,112.018 457.860,112.721 458.300 C 113.425 458.740,114.000 459.686,114.000 460.404 C 114.000 463.180,126.817 476.172,130.805 477.438 C 132.012 477.821,133.000 478.524,133.000 478.999 C 133.000 482.758,143.941 483.079,261.500 482.761 C 377.683 482.448,383.000 482.276,383.000 478.832 C 383.000 478.374,383.563 477.999,384.250 477.999 C 385.397 477.998,388.361 475.819,393.500 471.198 C 397.281 467.798,402.000 461.805,402.000 460.404 C 402.000 459.632,402.337 458.995,402.750 458.989 C 403.163 458.982,404.393 457.070,405.484 454.739 C 406.576 452.407,408.038 450.140,408.734 449.700 C 409.430 449.260,410.000 448.280,410.000 447.522 C 410.000 446.763,410.588 445.548,411.307 444.821 C 412.512 443.603,413.626 441.664,418.672 432.000 C 419.678 430.075,420.768 428.275,421.096 428.000 C 421.714 427.481,422.811 425.545,426.949 417.664 C 428.296 415.099,429.723 413.000,430.120 413.000 C 430.517 413.000,431.131 411.681,431.485 410.069 C 431.839 408.457,432.783 406.595,433.583 405.931 C 434.383 405.268,435.801 403.099,436.736 401.112 C 437.670 399.126,438.811 397.050,439.271 396.500 C 440.409 395.138,443.559 389.302,445.612 384.750 C 446.542 382.687,447.631 381.000,448.030 381.000 C 448.430 381.000,449.348 379.538,450.070 377.750 C 450.792 375.963,451.892 374.185,452.515 373.799 C 453.138 373.413,454.249 371.276,454.984 369.049 C 455.719 366.822,456.722 365.000,457.212 365.000 C 457.703 365.000,458.575 363.650,459.150 362.000 C 459.725 360.350,460.509 359.000,460.893 359.000 C 461.276 359.000,462.425 356.975,463.446 354.500 C 464.466 352.025,465.600 350.000,465.964 350.000 C 466.329 350.000,467.245 348.425,468.000 346.500 C 468.755 344.575,469.671 343.000,470.035 343.000 C 470.399 343.000,471.539 341.088,472.570 338.750 C 473.600 336.413,475.018 334.140,475.721 333.700 C 476.425 333.260,477.000 332.280,477.000 331.522 C 477.000 330.763,477.593 329.548,478.319 328.821 C 479.044 328.095,480.481 325.587,481.511 323.250 C 482.542 320.913,483.664 319.000,484.006 319.000 C 484.347 319.000,485.245 317.425,486.000 315.500 C 486.755 313.575,487.704 312.000,488.109 312.000 C 488.514 312.000,489.349 310.471,489.966 308.603 C 490.583 306.734,491.968 304.190,493.044 302.950 C 494.120 301.709,495.000 300.110,495.000 299.397 C 495.000 298.683,495.575 297.740,496.279 297.300 C 496.982 296.860,498.400 294.588,499.430 292.250 C 500.461 289.913,501.637 288.000,502.043 288.000 C 502.450 288.000,503.045 286.958,503.364 285.684 C 503.684 284.411,504.803 282.380,505.851 281.172 C 506.898 279.964,508.354 276.281,509.084 272.988 C 509.815 269.695,510.770 267.000,511.206 267.000 C 511.643 267.000,512.000 262.725,512.000 257.500 C 512.000 252.275,511.643 248.000,511.206 248.000 C 510.770 248.000,509.807 245.269,509.066 241.931 C 508.326 238.594,507.193 235.331,506.548 234.681 C 505.904 234.032,504.732 232.037,503.944 230.250 C 503.156 228.463,502.239 227.000,501.907 227.000 C 501.574 227.000,500.466 224.975,499.446 222.500 C 498.425 220.025,497.287 218.000,496.916 218.000 C 496.546 218.000,495.683 216.650,495.000 215.000 C 494.317 213.350,493.454 212.000,493.084 212.000 C 492.713 212.000,491.575 209.975,490.554 207.500 C 489.534 205.025,488.400 203.000,488.036 203.000 C 487.671 203.000,486.755 201.425,486.000 199.500 C 485.245 197.575,484.322 196.000,483.949 196.000 C 483.577 196.000,482.498 193.975,481.553 191.500 C 480.608 189.025,479.466 187.000,479.015 187.000 C 478.564 187.000,477.725 185.650,477.150 184.000 C 476.575 182.350,475.703 181.000,475.212 181.000 C 474.722 181.000,473.719 179.178,472.984 176.951 C 472.249 174.724,471.138 172.587,470.515 172.201 C 469.892 171.815,468.792 170.037,468.070 168.250 C 467.348 166.463,466.449 165.000,466.071 165.000 C 465.694 165.000,464.542 163.088,463.511 160.750 C 462.481 158.412,461.044 155.905,460.319 155.179 C 459.593 154.452,459.000 153.246,459.000 152.500 C 459.000 151.754,458.360 150.503,457.578 149.721 C 456.225 148.368,455.045 146.317,450.500 137.417 C 449.400 135.262,448.225 133.275,447.890 133.000 C 447.554 132.725,446.530 131.037,445.614 129.250 C 444.698 127.462,443.510 126.000,442.974 126.000 C 442.438 126.000,442.107 125.662,442.238 125.250 C 442.594 124.126,439.870 118.000,439.015 118.000 C 438.606 118.000,437.498 115.975,436.553 113.500 C 435.608 111.025,434.476 109.000,434.039 109.000 C 433.601 109.000,432.651 107.538,431.928 105.750 C 431.205 103.963,430.337 102.275,429.998 102.000 C 429.659 101.725,427.648 98.350,425.527 94.500 C 423.407 90.650,421.408 87.275,421.086 87.000 C 420.342 86.365,416.618 79.639,414.303 74.750 C 413.327 72.687,412.219 71.000,411.842 71.000 C 411.464 71.000,410.634 69.421,409.997 67.491 C 409.360 65.561,408.492 64.196,408.069 64.458 C 407.645 64.719,406.693 63.101,405.954 60.861 C 405.215 58.620,404.023 56.562,403.305 56.287 C 402.587 56.011,402.000 55.203,402.000 54.489 C 402.000 51.504,387.417 37.000,384.415 37.000 C 383.637 37.000,383.000 36.626,383.000 36.168 C 383.000 32.224,153.159 29.756,139.182 33.550 M262.321 110.100 C 264.135 110.927,265.192 112.795,266.567 117.600 C 267.573 121.120,268.686 124.000,269.039 124.000 C 269.393 124.000,270.258 126.588,270.961 129.750 C 271.665 132.912,272.658 135.765,273.168 136.089 C 274.020 136.629,276.960 146.180,276.989 148.500 C 276.996 149.132,269.994 149.500,257.955 149.500 C 239.418 149.500,238.923 149.447,239.387 147.500 C 239.649 146.400,240.169 143.813,240.543 141.750 C 240.917 139.688,241.578 138.000,242.012 138.000 C 242.445 138.000,243.361 135.637,244.045 132.750 C 244.730 129.863,245.611 127.275,246.003 127.000 C 246.395 126.725,247.471 123.074,248.396 118.886 C 250.473 109.471,254.862 106.702,262.321 110.100 M270.463 168.043 C 275.392 168.608,279.667 169.392,279.963 169.785 C 280.258 170.178,283.631 171.300,287.458 172.277 C 291.284 173.254,294.664 174.456,294.968 174.948 C 295.271 175.439,296.759 176.152,298.273 176.532 C 299.787 176.912,301.357 177.736,301.763 178.362 C 302.168 178.988,304.289 180.400,306.476 181.500 C 311.382 183.968,311.976 184.460,321.258 193.742 C 330.390 202.874,330.990 203.587,333.477 208.274 C 334.565 210.323,335.768 212.000,336.150 212.000 C 336.532 212.000,337.398 213.675,338.073 215.722 C 338.749 217.770,339.826 219.969,340.467 220.609 C 341.107 221.250,342.218 224.412,342.936 227.637 C 343.654 230.862,344.597 233.727,345.033 234.005 C 348.556 236.251,348.556 278.749,345.033 280.995 C 344.597 281.273,343.654 284.138,342.936 287.363 C 342.218 290.588,341.107 293.750,340.467 294.391 C 339.826 295.031,338.749 297.230,338.073 299.278 C 337.398 301.325,336.532 303.000,336.150 303.000 C 335.768 303.000,334.565 304.677,333.477 306.726 C 331.107 311.192,330.597 311.820,323.097 319.500 C 314.758 328.039,310.979 331.218,306.461 333.500 C 304.282 334.600,302.275 335.751,302.000 336.057 C 301.725 336.363,299.925 337.244,298.000 338.015 C 296.075 338.785,293.988 339.914,293.363 340.523 C 292.738 341.133,289.588 342.218,286.363 342.936 C 283.138 343.654,280.264 344.611,279.976 345.063 C 278.120 347.978,237.999 347.964,236.000 345.049 C 235.725 344.648,232.463 343.506,228.750 342.511 C 225.037 341.517,222.000 340.376,222.000 339.977 C 222.000 339.577,220.704 338.991,219.121 338.674 C 217.537 338.357,215.613 337.470,214.846 336.703 C 214.078 335.935,211.662 334.471,209.475 333.449 C 207.289 332.427,204.912 330.783,204.193 329.796 C 203.475 328.808,202.482 328.000,201.987 328.000 C 199.895 328.000,185.052 311.600,185.018 309.250 C 185.008 308.563,184.571 308.000,184.047 308.000 C 183.523 308.000,182.346 306.425,181.433 304.500 C 180.520 302.575,179.445 301.000,179.044 301.000 C 178.644 301.000,177.777 299.200,177.118 297.000 C 176.459 294.800,175.555 293.000,175.109 293.000 C 174.663 293.000,173.486 289.512,172.492 285.250 C 171.498 280.988,170.193 277.179,169.592 276.786 C 167.938 275.706,168.089 238.804,169.750 238.250 C 170.438 238.021,171.000 236.964,171.000 235.902 C 171.000 232.899,174.233 222.000,175.124 222.000 C 175.562 222.000,176.459 220.200,177.118 218.000 C 177.777 215.800,178.609 214.000,178.966 214.000 C 179.323 214.000,180.453 212.088,181.477 209.750 C 182.500 207.412,184.162 204.912,185.169 204.193 C 186.176 203.475,187.000 202.478,187.000 201.978 C 187.000 200.792,200.792 187.000,201.978 187.000 C 202.478 187.000,203.475 186.192,204.193 185.204 C 204.912 184.217,207.188 182.621,209.250 181.657 C 211.313 180.694,213.000 179.568,213.000 179.154 C 213.000 178.740,214.688 177.798,216.750 177.060 C 218.813 176.322,220.725 175.422,221.000 175.060 C 221.687 174.154,231.813 171.000,234.032 171.000 C 235.023 171.000,235.987 170.538,236.175 169.974 C 236.923 167.731,257.584 166.568,270.463 168.043 M244.000 187.817 C 244.000 188.266,241.054 189.219,237.454 189.934 C 233.853 190.650,230.353 191.790,229.676 192.467 C 228.999 193.144,226.770 194.251,224.722 194.927 C 222.675 195.602,221.000 196.549,221.000 197.031 C 221.000 197.512,219.537 198.604,217.750 199.457 C 212.418 202.000,200.536 214.355,198.714 219.250 C 198.356 220.213,197.617 221.000,197.072 221.000 C 196.526 221.000,195.541 222.800,194.882 225.000 C 194.223 227.200,193.359 229.000,192.963 229.000 C 192.005 229.000,189.000 241.099,189.000 244.956 C 189.000 246.630,188.550 248.000,188.000 248.000 C 187.404 248.000,187.000 251.833,187.000 257.500 C 187.000 263.167,187.404 267.000,188.000 267.000 C 188.550 267.000,189.000 268.370,189.000 270.044 C 189.000 274.065,192.024 286.000,193.042 286.000 C 193.482 286.000,194.144 287.380,194.515 289.068 C 194.885 290.755,195.804 292.371,196.556 292.660 C 197.308 292.949,198.230 294.149,198.604 295.328 C 200.303 300.681,215.397 316.000,218.973 316.000 C 219.572 316.000,220.313 316.653,220.620 317.452 C 220.926 318.250,222.825 319.440,224.838 320.097 C 226.852 320.753,228.765 321.696,229.089 322.193 C 229.787 323.264,239.532 325.971,242.750 325.988 C 243.988 325.995,245.000 326.450,245.000 327.000 C 245.000 327.615,250.000 328.000,258.000 328.000 C 266.000 328.000,271.000 327.615,271.000 327.000 C 271.000 326.450,271.920 326.000,273.044 326.000 C 276.303 326.000,288.000 322.837,288.000 321.956 C 288.000 321.515,289.575 320.635,291.500 320.000 C 293.425 319.365,295.000 318.502,295.000 318.083 C 295.000 317.664,296.107 316.817,297.461 316.200 C 302.378 313.960,313.960 302.378,316.200 297.461 C 316.817 296.107,317.664 295.000,318.083 295.000 C 318.502 295.000,319.365 293.425,320.000 291.500 C 320.635 289.575,321.502 288.000,321.926 288.000 C 322.823 288.000,326.000 278.619,326.000 275.968 C 326.000 274.977,326.563 273.979,327.250 273.750 C 328.180 273.440,328.500 269.278,328.500 257.500 C 328.500 245.722,328.180 241.560,327.250 241.250 C 326.563 241.021,326.000 240.023,326.000 239.032 C 326.000 235.976,322.676 226.545,321.301 225.700 C 320.585 225.260,320.000 224.280,320.000 223.522 C 320.000 222.763,319.396 221.539,318.658 220.801 C 317.920 220.063,316.761 218.421,316.082 217.154 C 313.298 211.951,302.099 200.914,297.461 198.800 C 296.107 198.183,295.000 197.336,295.000 196.917 C 295.000 196.498,293.425 195.635,291.500 195.000 C 289.575 194.365,288.000 193.456,288.000 192.980 C 288.000 192.504,284.400 191.305,280.000 190.316 C 275.600 189.327,272.000 188.177,272.000 187.759 C 272.000 187.342,265.700 187.000,258.000 187.000 C 250.300 187.000,244.000 187.367,244.000 187.817 M261.000 228.000 C 261.000 228.550,262.053 229.000,263.341 229.000 C 267.086 229.000,274.540 231.555,276.788 233.610 C 282.703 239.014,282.061 239.001,286.937 233.824 C 290.910 229.606,294.000 229.532,294.000 233.654 C 294.000 234.429,294.611 235.297,295.357 235.584 C 296.104 235.870,297.301 237.881,298.017 240.052 C 298.734 242.223,299.646 244.000,300.045 244.000 C 302.965 244.000,302.947 273.810,300.027 274.815 C 299.524 274.988,298.585 276.727,297.940 278.680 C 296.707 282.417,296.013 283.380,290.050 289.625 C 285.111 294.798,280.986 297.950,278.250 298.645 C 277.012 298.960,276.000 299.556,276.000 299.970 C 276.000 301.150,265.314 303.000,258.500 303.000 C 251.659 303.000,241.000 301.148,241.000 299.960 C 241.000 299.540,239.650 298.725,238.000 298.150 C 236.350 297.575,235.000 296.683,235.000 296.169 C 235.000 295.654,234.102 294.999,233.005 294.712 C 229.528 293.802,229.476 291.141,232.870 287.822 C 237.016 283.769,236.769 281.097,231.764 275.848 C 230.809 274.847,229.739 272.222,229.386 270.014 C 229.033 267.806,228.352 266.000,227.872 266.000 C 227.392 266.000,227.000 263.075,227.000 259.500 C 227.000 255.833,227.436 253.000,228.000 253.000 C 228.550 253.000,229.000 252.086,229.000 250.968 C 229.000 246.099,232.550 240.513,239.757 234.043 C 242.177 231.870,250.385 229.000,254.178 229.000 C 255.730 229.000,257.000 228.550,257.000 228.000 C 257.000 227.450,257.900 227.000,259.000 227.000 C 260.100 227.000,261.000 227.450,261.000 228.000 M251.250 235.647 C 250.012 235.918,249.000 236.489,249.000 236.918 C 249.000 237.346,247.220 238.499,245.045 239.480 C 242.002 240.852,240.675 242.271,239.295 245.628 C 238.308 248.028,237.162 249.994,236.750 249.996 C 236.338 249.998,236.000 253.375,236.000 257.500 C 236.000 261.625,236.382 265.000,236.849 265.000 C 237.316 265.000,238.526 267.005,239.536 269.456 C 240.797 272.515,242.283 274.289,244.272 275.113 C 245.866 275.773,247.881 277.024,248.751 277.893 C 250.764 279.907,266.100 280.200,266.754 278.237 C 266.981 277.557,267.729 277.000,268.417 277.000 C 269.845 277.000,277.000 270.132,277.000 268.762 C 277.000 268.264,277.675 267.182,278.500 266.357 C 280.445 264.412,280.610 250.769,278.712 248.821 C 278.004 248.095,276.682 245.925,275.774 244.000 C 274.749 241.826,272.869 239.962,270.812 239.080 C 268.990 238.299,267.219 237.239,266.876 236.725 C 266.177 235.677,254.728 234.887,251.250 235.647 M149.787 244.500 C 149.270 248.900,149.064 256.887,149.329 262.250 L 149.811 272.000 132.471 272.000 C 109.033 272.000,110.000 272.516,110.000 260.000 C 110.000 248.822,110.061 248.733,118.750 247.281 C 120.537 246.983,122.000 246.419,122.000 246.029 C 122.000 245.639,124.475 244.726,127.500 244.000 C 130.525 243.274,133.000 242.373,133.000 241.997 C 133.000 241.620,136.825 240.510,141.500 239.529 C 146.175 238.548,150.000 237.277,150.000 236.706 C 150.000 236.134,150.163 235.854,150.363 236.083 C 150.563 236.313,150.304 240.100,149.787 244.500 M374.500 239.576 C 378.900 240.589,382.725 241.719,383.000 242.088 C 383.275 242.457,386.087 243.335,389.250 244.039 C 392.413 244.742,395.000 245.652,395.000 246.059 C 395.000 246.467,397.237 247.337,399.972 247.993 C 405.805 249.393,406.499 251.163,405.833 262.953 C 405.321 272.006,406.625 271.454,384.919 271.811 L 366.000 272.121 366.000 268.561 C 366.000 266.602,366.450 265.000,367.000 265.000 C 368.224 265.000,368.367 249.310,367.147 248.833 C 366.677 248.650,366.038 245.605,365.725 242.068 C 365.412 238.530,365.459 236.107,365.828 236.684 C 366.198 237.261,370.100 238.562,374.500 239.576 " stroke="none" fill="#000000" fill-rule="evenodd"></path></g></svg>