<svg id="svg" version="1.1" width="400" height="400" xmlns="http://www.w3.org/2000/svg" xmlns:xlink="http://www.w3.org/1999/xlink" style="display: block;"><g id="svgg"><path id="path0" d="M238.000 71.942 C 231.310 73.158,220.086 76.714,217.415 78.464 C 216.125 79.309,214.380 80.000,213.535 80.000 C 212.691 80.000,212.000 80.420,212.000 80.933 C 212.000 81.446,211.107 82.149,210.015 82.495 C 207.766 83.209,197.668 91.220,194.251 95.000 C 187.605 102.354,185.653 104.816,183.945 108.000 C 179.219 116.811,178.994 116.889,166.500 113.991 C 154.196 111.138,125.257 113.713,116.037 118.481 C 114.421 119.316,112.506 120.000,111.780 120.000 C 110.183 120.000,96.566 127.264,90.672 131.260 C 83.790 135.926,68.433 151.061,67.456 154.140 C 67.131 155.163,66.434 156.000,65.908 156.000 C 65.381 156.000,64.519 157.012,63.993 158.250 C 63.466 159.488,61.907 162.300,60.528 164.500 C 57.481 169.362,56.000 172.654,56.000 174.565 C 56.000 175.354,55.622 176.000,55.160 176.000 C 54.698 176.000,53.733 177.912,53.016 180.250 C 52.299 182.588,51.054 186.525,50.250 189.000 C 44.499 206.706,46.508 208.910,67.784 208.242 C 84.726 207.710,104.000 211.371,104.000 215.121 C 104.000 215.605,104.787 216.010,105.750 216.022 C 106.713 216.034,108.625 216.924,110.000 218.000 C 113.931 221.075,117.982 220.560,122.217 216.446 C 131.074 207.844,143.993 206.993,154.802 214.300 C 160.876 218.406,162.234 218.438,170.213 214.665 C 185.696 207.345,207.597 205.428,218.500 210.439 C 220.700 211.450,223.576 212.775,224.891 213.383 C 232.089 216.712,239.000 227.128,239.000 234.648 C 239.000 238.441,235.310 248.000,233.845 248.000 C 233.346 248.000,232.636 248.788,232.267 249.750 C 231.899 250.713,230.675 252.316,229.549 253.314 C 228.101 254.596,227.867 255.281,228.750 255.648 C 229.438 255.933,230.000 256.995,230.000 258.006 C 230.000 259.018,231.350 261.196,233.000 262.846 C 234.650 264.496,236.000 266.331,236.000 266.923 C 236.000 267.515,236.398 268.000,236.884 268.000 C 238.859 268.000,243.845 280.612,244.498 287.259 C 245.448 296.942,248.725 299.351,257.791 297.033 C 263.336 295.614,276.000 289.863,276.000 288.763 C 276.000 288.343,276.468 288.000,277.040 288.000 C 277.613 288.000,279.375 287.043,280.956 285.874 L 283.832 283.748 292.523 287.481 C 309.482 294.765,331.516 294.455,345.500 286.736 C 346.600 286.129,348.648 285.052,350.051 284.342 C 372.853 272.811,385.935 237.038,376.633 211.651 C 371.075 196.479,353.265 176.000,345.629 176.000 C 344.798 176.000,343.881 175.616,343.591 175.147 C 343.301 174.678,340.574 173.511,337.532 172.554 C 334.489 171.597,331.960 170.293,331.910 169.657 C 331.861 169.021,331.896 161.703,331.988 153.395 C 332.159 137.941,329.677 124.931,325.337 118.527 C 324.602 117.443,324.000 116.003,324.000 115.328 C 324.000 114.653,322.538 112.013,320.750 109.462 C 318.962 106.911,316.971 103.887,316.323 102.743 C 315.676 101.598,314.439 100.265,313.573 99.781 C 312.708 99.297,312.000 98.248,312.000 97.450 C 312.000 96.653,311.663 95.990,311.250 95.977 C 310.837 95.965,307.810 93.471,304.521 90.436 C 301.233 87.402,297.408 84.334,296.021 83.621 C 294.635 82.907,291.475 81.186,289.000 79.795 C 276.937 73.019,252.652 69.280,238.000 71.942 M64.000 216.096 C 57.243 216.716,46.657 220.138,43.921 222.587 C 43.053 223.364,41.853 224.000,41.255 224.000 C 40.656 224.000,40.017 224.346,39.833 224.768 C 39.650 225.191,38.283 226.477,36.795 227.626 C 33.652 230.055,23.999 241.390,24.003 242.646 C 24.004 243.116,23.144 245.300,22.090 247.500 C 14.816 262.690,15.094 292.718,22.585 301.079 C 23.363 301.947,24.000 303.340,24.000 304.174 C 24.000 305.008,24.900 306.505,26.000 307.500 C 27.100 308.495,28.000 309.799,28.000 310.396 C 28.000 315.311,45.237 326.557,58.000 329.970 C 78.433 335.433,108.947 324.346,113.570 309.778 C 113.881 308.800,114.554 308.000,115.067 308.000 C 115.580 308.000,116.000 307.410,116.000 306.688 C 116.000 305.966,116.900 303.513,118.000 301.236 C 119.100 298.959,120.007 296.512,120.015 295.798 C 120.023 295.084,120.899 291.800,121.961 288.500 L 123.892 282.500 123.946 299.800 C 123.989 313.668,124.321 317.734,125.617 320.300 C 131.772 332.482,147.399 332.959,152.938 321.133 L 155.181 316.343 158.527 319.592 C 166.578 327.410,183.792 332.793,197.251 331.700 C 204.887 331.080,219.211 326.866,219.813 325.062 C 220.007 324.478,220.692 323.998,221.333 323.995 C 222.403 323.991,226.835 320.096,229.666 316.674 C 242.025 301.732,236.360 269.186,220.566 264.391 C 219.430 264.046,217.825 263.217,217.000 262.550 C 215.439 261.287,205.010 257.468,199.077 255.987 C 191.203 254.021,188.729 250.038,193.276 246.643 C 196.034 244.584,196.099 244.583,203.194 246.410 C 221.264 251.065,230.622 246.882,230.149 234.361 C 229.676 221.853,219.363 215.972,197.818 215.925 C 190.716 215.910,184.337 216.360,183.318 216.949 C 182.318 217.527,179.475 218.916,177.000 220.034 C 169.684 223.341,162.005 229.338,163.356 230.689 C 163.619 230.952,162.971 232.029,161.917 233.083 C 160.863 234.137,160.000 236.088,160.000 237.417 C 160.000 238.746,159.506 239.998,158.902 240.199 C 158.298 240.401,157.563 242.699,157.269 245.306 C 156.297 253.929,155.000 251.288,155.000 240.686 C 155.000 224.180,150.125 217.000,138.919 217.000 C 126.552 217.000,124.102 222.915,124.011 253.000 L 123.941 276.500 121.108 270.485 C 116.614 260.944,112.937 259.646,91.840 260.155 C 71.755 260.640,68.980 261.748,66.980 270.082 C 65.751 275.207,67.084 284.000,69.091 284.000 C 69.548 284.000,70.780 284.921,71.829 286.047 C 73.266 287.589,75.484 288.241,80.815 288.688 C 85.116 289.048,88.084 289.777,88.379 290.544 C 89.206 292.699,87.875 295.905,85.892 296.534 C 84.851 296.865,84.000 297.779,84.000 298.567 C 84.000 299.355,83.190 300.000,82.200 300.000 C 81.210 300.000,79.853 300.547,79.185 301.215 C 77.490 302.910,66.914 302.800,63.406 301.050 C 35.519 287.139,52.623 233.210,80.859 246.022 C 83.257 247.110,85.638 248.000,86.151 248.000 C 86.664 248.000,87.948 248.805,89.004 249.789 C 99.723 259.775,116.362 253.225,115.139 239.500 C 113.769 224.136,90.825 213.635,64.000 216.096 M158.610 262.932 C 161.623 271.591,176.719 283.977,184.295 284.004 C 186.653 284.013,199.081 288.780,201.520 290.612 C 210.963 297.703,192.741 304.237,180.832 298.030 C 173.904 294.418,163.700 295.116,159.582 299.482 C 155.001 304.339,155.000 304.333,155.000 278.633 C 155.000 254.940,155.330 253.504,158.610 262.932 " stroke="none" fill="#000000" fill-rule="evenodd"></path></g></svg>