<svg id="svg" version="1.1" width="400" height="400" xmlns="http://www.w3.org/2000/svg" xmlns:xlink="http://www.w3.org/1999/xlink" style="display: block;"><g id="svgg"><path id="path0" d="M69.250 88.195 C 62.931 89.348,62.830 89.781,68.135 93.000 C 73.829 96.455,74.398 96.818,84.000 103.121 C 88.675 106.190,94.404 109.893,96.730 111.350 L 100.960 114.000 200.000 114.000 L 299.040 114.000 303.270 111.350 C 305.596 109.893,311.325 106.190,316.000 103.121 C 325.602 96.818,326.171 96.455,331.865 93.000 C 337.272 89.719,337.130 89.402,329.668 88.103 C 321.552 86.689,77.031 86.776,69.250 88.195 M47.194 100.038 C 45.030 102.290,41.964 106.690,40.380 109.816 L 37.500 115.500 37.234 204.985 C 36.987 287.990,37.095 294.833,38.716 299.485 C 42.092 309.176,49.407 317.423,58.813 322.144 L 65.500 325.500 200.000 325.500 L 334.500 325.500 341.187 322.144 C 350.593 317.423,357.908 309.176,361.284 299.485 C 362.905 294.833,363.013 287.990,362.766 204.985 L 362.500 115.500 359.620 109.816 C 358.036 106.690,354.970 102.290,352.806 100.038 L 348.872 95.944 344.686 98.222 C 342.384 99.475,340.275 100.725,340.000 101.000 C 338.882 102.118,333.039 106.000,332.474 106.000 C 332.140 106.000,330.392 107.125,328.589 108.500 C 326.786 109.875,325.039 111.000,324.706 111.000 C 324.373 111.000,322.165 112.278,319.800 113.841 C 317.435 115.404,312.800 118.426,309.500 120.556 C 306.200 122.687,303.275 124.671,303.000 124.965 C 302.725 125.259,300.925 126.369,299.000 127.431 C 295.723 129.239,290.626 132.473,270.259 145.663 C 265.727 148.598,261.771 151.000,261.469 151.000 C 260.946 151.000,255.058 154.942,254.000 156.000 C 252.990 157.010,249.451 159.075,247.750 159.646 C 246.788 159.969,246.000 160.600,246.000 161.049 C 246.000 161.498,245.103 162.150,244.006 162.498 C 242.909 162.846,241.438 163.664,240.738 164.316 C 240.037 164.967,237.897 166.369,235.982 167.432 C 234.067 168.494,228.000 172.309,222.500 175.910 C 211.857 182.878,211.716 182.969,204.616 187.345 L 200.000 190.190 195.384 187.345 C 188.284 182.969,188.143 182.878,177.500 175.910 C 172.000 172.309,165.933 168.494,164.018 167.432 C 162.103 166.369,159.963 164.967,159.262 164.316 C 158.562 163.664,157.091 162.846,155.994 162.498 C 154.897 162.150,154.000 161.498,154.000 161.049 C 154.000 160.600,153.213 159.969,152.250 159.646 C 150.549 159.075,147.010 157.010,146.000 156.000 C 144.942 154.942,139.054 151.000,138.531 151.000 C 138.229 151.000,134.161 148.525,129.491 145.500 C 109.412 132.494,104.303 129.254,101.000 127.431 C 99.075 126.369,97.275 125.259,97.000 124.965 C 96.725 124.671,93.800 122.687,90.500 120.556 C 87.200 118.426,82.565 115.404,80.200 113.841 C 77.835 112.278,75.627 111.000,75.294 111.000 C 74.961 111.000,73.214 109.875,71.411 108.500 C 69.608 107.125,67.860 106.000,67.526 106.000 C 66.961 106.000,61.118 102.118,60.000 101.000 C 59.725 100.725,57.616 99.475,55.314 98.222 L 51.128 95.944 47.194 100.038 M84.303 162.319 C 88.811 165.244,94.067 168.507,95.982 169.569 C 97.897 170.631,100.037 172.033,100.738 172.684 C 101.438 173.336,102.909 174.154,104.006 174.502 C 105.103 174.850,106.000 175.502,106.000 175.951 C 106.000 176.400,106.787 177.031,107.750 177.354 C 109.492 177.939,113.047 180.026,114.000 181.023 C 114.885 181.949,121.589 186.253,127.614 189.764 C 129.751 191.009,134.875 194.241,139.000 196.946 C 143.125 199.652,149.200 203.554,152.500 205.619 C 155.800 207.685,163.000 212.318,168.500 215.916 C 181.677 224.536,182.208 224.862,184.250 225.601 C 185.213 225.949,186.000 226.558,186.000 226.956 C 186.000 227.353,187.795 228.538,189.989 229.589 C 192.182 230.640,193.982 231.783,193.989 232.129 C 193.995 232.474,195.350 233.317,197.000 234.000 C 199.916 235.208,205.978 233.949,206.011 232.129 C 206.018 231.783,207.818 230.640,210.011 229.589 C 212.205 228.538,214.000 227.353,214.000 226.956 C 214.000 226.558,214.787 225.949,215.750 225.601 C 217.792 224.862,218.323 224.536,231.500 215.916 C 237.000 212.318,244.200 207.685,247.500 205.619 C 250.800 203.554,256.875 199.652,261.000 196.946 C 265.125 194.241,270.249 191.009,272.386 189.764 C 278.411 186.253,285.115 181.949,286.000 181.023 C 286.953 180.026,290.508 177.939,292.250 177.354 C 293.212 177.031,294.000 176.400,294.000 175.951 C 294.000 175.502,294.897 174.850,295.994 174.502 C 297.091 174.154,298.562 173.336,299.262 172.684 C 299.963 172.033,302.103 170.631,304.018 169.569 C 305.933 168.507,311.189 165.244,315.697 162.319 C 320.206 159.393,324.143 157.000,324.447 157.000 C 324.751 157.000,325.000 189.175,325.000 228.500 L 325.000 300.000 200.000 300.000 L 75.000 300.000 75.000 228.500 C 75.000 189.175,75.249 157.000,75.553 157.000 C 75.857 157.000,79.794 159.393,84.303 162.319 " stroke="none" fill="#000000" fill-rule="evenodd"></path></g></svg>