<svg id="svg" version="1.1" width="515" height="515" xmlns="http://www.w3.org/2000/svg" xmlns:xlink="http://www.w3.org/1999/xlink" style="display: block;"><g id="svgg"><path id="path0" d="M237.000 21.671 C 111.924 34.217,21.542 133.145,21.542 257.500 C 21.542 311.688,35.649 354.123,69.501 401.765 C 93.575 435.646,144.206 471.074,185.500 482.934 C 237.817 497.959,281.552 497.830,330.145 482.510 C 355.274 474.586,381.476 460.525,400.948 444.513 C 406.969 439.561,424.783 422.409,427.500 418.947 C 429.150 416.845,432.566 412.509,435.091 409.312 C 473.881 360.201,492.255 280.616,478.971 219.250 L 477.834 214.000 367.417 214.000 L 257.000 214.000 257.000 260.000 L 257.000 306.000 320.000 306.000 C 369.819 306.000,383.000 306.262,383.000 307.253 C 383.000 310.099,378.956 322.329,375.271 330.625 C 344.070 400.876,234.476 419.123,169.500 364.886 C 139.200 339.593,120.393 303.237,119.096 267.444 C 118.959 263.658,118.679 260.290,118.475 259.959 C 117.308 258.071,120.359 232.742,122.977 222.589 C 147.609 127.058,266.336 86.573,342.000 147.905 L 344.500 149.931 379.238 115.233 L 413.977 80.534 411.738 78.472 C 369.266 39.343,296.530 15.700,237.000 21.671 " stroke="none" fill="#000000" fill-rule="evenodd"></path></g></svg>