<svg id="svg" version="1.1" width="515" height="515" xmlns="http://www.w3.org/2000/svg" xmlns:xlink="http://www.w3.org/1999/xlink" style="display: block;"><g id="svgg"><path id="path0" d="M112.394 31.998 C 102.203 33.492,90.738 42.738,87.135 52.369 L 85.000 58.075 85.000 257.500 L 85.000 456.925 87.135 462.631 C 90.895 472.680,101.640 481.087,113.099 482.946 C 121.926 484.379,393.074 484.379,401.901 482.946 C 413.360 481.087,424.105 472.680,427.865 462.631 L 430.000 456.925 430.000 298.255 L 430.000 139.584 375.750 85.303 L 321.500 31.021 219.500 31.135 C 163.400 31.198,115.203 31.586,112.394 31.998 M368.270 84.487 C 391.916 108.144,413.748 130.088,416.784 133.250 L 422.304 139.000 372.152 139.000 L 322.000 139.000 322.000 88.878 C 322.000 42.556,322.124 38.858,323.638 40.115 C 324.540 40.863,344.624 60.830,368.270 84.487 M331.500 239.105 C 343.813 247.125,343.141 242.066,342.792 324.164 L 342.500 392.829 339.461 397.152 C 337.789 399.531,334.414 402.832,331.961 404.488 L 327.500 407.500 257.500 407.500 L 187.500 407.500 183.039 404.488 C 180.586 402.832,177.211 399.531,175.539 397.152 L 172.500 392.829 172.208 324.164 C 172.047 286.399,172.172 254.082,172.485 252.350 C 173.465 246.919,181.441 239.194,188.500 236.840 C 189.600 236.473,221.325 236.246,259.000 236.336 L 327.500 236.500 331.500 239.105 M193.000 322.000 L 193.000 365.000 257.500 365.000 L 322.000 365.000 322.000 322.000 L 322.000 279.000 257.500 279.000 L 193.000 279.000 193.000 322.000 " stroke="none" fill="#000000" fill-rule="evenodd"></path></g></svg>