<svg id="svg" version="1.1" width="515" height="515" xmlns="http://www.w3.org/2000/svg" xmlns:xlink="http://www.w3.org/1999/xlink" style="display: block;"><g id="svgg"><path id="path0" d="M251.336 108.999 C 249.724 109.649,248.847 111.355,247.898 115.686 C 247.197 118.884,246.338 121.725,245.988 122.000 C 245.638 122.275,244.744 124.750,244.000 127.500 C 243.256 130.250,242.335 132.725,241.952 133.000 C 241.244 133.508,237.999 146.812,238.001 149.197 C 238.002 150.226,242.409 150.500,258.957 150.500 L 279.913 150.500 279.302 148.000 C 278.966 146.625,278.310 145.350,277.845 145.167 C 277.380 144.983,277.000 144.248,277.000 143.532 C 277.000 141.654,273.724 131.592,272.920 131.000 C 272.546 130.725,271.665 127.912,270.961 124.750 C 270.258 121.588,269.310 119.000,268.855 119.000 C 268.401 119.000,267.510 116.940,266.876 114.423 C 265.362 108.411,258.626 106.060,251.336 108.999 M250.000 166.000 C 250.000 166.550,248.275 167.000,246.167 167.000 C 241.778 167.000,230.747 169.023,230.000 169.966 C 229.725 170.312,226.688 171.433,223.250 172.456 C 219.813 173.480,217.000 174.695,217.000 175.158 C 217.000 175.621,216.325 176.000,215.500 176.000 C 214.675 176.000,213.199 176.787,212.220 177.750 C 211.240 178.713,209.103 180.162,207.470 180.972 C 203.410 182.983,202.678 183.605,193.141 193.141 C 182.984 203.298,182.666 203.679,180.912 207.750 C 180.142 209.537,179.207 211.000,178.833 211.000 C 178.460 211.000,177.635 212.575,177.000 214.500 C 176.365 216.425,175.498 218.000,175.074 218.000 C 174.271 218.000,171.000 227.259,171.000 229.532 C 171.000 230.248,170.586 230.983,170.080 231.167 C 166.274 232.545,166.225 281.528,170.028 282.833 C 170.563 283.017,171.000 283.832,171.000 284.645 C 171.000 287.143,174.303 296.422,175.690 297.821 C 176.411 298.548,177.000 299.754,177.000 300.500 C 177.000 301.246,177.617 302.474,178.370 303.227 C 179.124 303.981,180.496 306.059,181.420 307.846 C 185.187 315.130,200.678 330.682,207.500 334.028 C 209.150 334.838,211.372 336.288,212.439 337.250 C 213.505 338.212,214.967 339.000,215.689 339.000 C 216.410 339.000,217.000 339.350,217.000 339.778 C 217.000 340.547,227.471 344.000,229.799 344.000 C 230.460 344.000,231.000 344.404,231.000 344.897 C 231.000 345.975,241.988 348.000,247.832 348.000 C 250.124 348.000,252.000 348.450,252.000 349.000 C 252.000 349.564,254.833 350.000,258.500 350.000 C 262.167 350.000,265.000 349.564,265.000 349.000 C 265.000 348.450,266.651 348.000,268.668 348.000 C 274.104 348.000,285.000 345.930,285.000 344.897 C 285.000 344.404,285.623 344.000,286.385 344.000 C 288.591 344.000,298.000 340.766,298.000 340.008 C 298.000 339.630,299.800 338.726,302.000 338.000 C 304.200 337.274,306.000 336.357,306.000 335.961 C 306.000 335.566,307.306 334.702,308.901 334.041 C 310.497 333.380,312.825 331.750,314.076 330.420 C 315.326 329.089,316.711 328.000,317.153 328.000 C 319.087 328.000,332.021 313.243,334.115 308.647 C 334.778 307.191,335.644 306.000,336.039 306.000 C 336.434 306.000,337.355 304.538,338.086 302.750 C 338.817 300.962,339.948 298.954,340.599 298.287 C 341.250 297.620,342.347 294.695,343.037 291.787 C 343.726 288.879,344.720 286.221,345.245 285.879 C 345.770 285.538,346.695 281.825,347.299 277.629 C 347.904 273.433,348.759 270.000,349.199 270.000 C 349.640 270.000,350.000 264.375,350.000 257.500 C 350.000 250.625,349.640 245.000,349.199 245.000 C 348.759 245.000,347.904 241.567,347.299 237.371 C 346.695 233.175,345.770 229.462,345.245 229.121 C 344.720 228.779,343.726 226.121,343.037 223.213 C 342.347 220.305,341.250 217.380,340.599 216.713 C 339.948 216.046,338.817 214.037,338.086 212.250 C 337.355 210.463,336.434 209.000,336.039 209.000 C 335.644 209.000,334.778 207.809,334.115 206.353 C 330.986 199.487,316.593 184.958,309.000 181.003 C 307.625 180.287,306.275 179.430,306.000 179.099 C 305.725 178.768,304.150 177.823,302.500 176.998 C 300.850 176.174,298.990 175.022,298.366 174.438 C 297.743 173.853,294.705 172.769,291.616 172.028 C 288.527 171.287,286.000 170.380,286.000 170.013 C 286.000 169.147,274.337 167.000,269.635 167.000 C 267.636 167.000,266.000 166.550,266.000 166.000 C 266.000 165.417,262.667 165.000,258.000 165.000 C 253.333 165.000,250.000 165.417,250.000 166.000 M276.472 190.654 C 280.612 191.564,284.000 192.654,284.000 193.077 C 284.000 193.499,285.662 194.393,287.694 195.064 C 289.725 195.734,292.285 197.119,293.382 198.141 C 294.479 199.164,295.817 200.000,296.355 200.000 C 297.559 200.000,298.925 201.176,306.375 208.625 C 313.824 216.075,315.000 217.441,315.000 218.645 C 315.000 219.183,315.788 220.518,316.750 221.612 C 319.224 224.424,321.000 227.716,321.000 229.486 C 321.000 230.319,321.414 231.000,321.920 231.000 C 322.930 231.000,326.000 243.375,326.000 247.447 C 326.000 248.851,326.450 250.000,327.000 250.000 C 327.578 250.000,328.000 253.167,328.000 257.500 C 328.000 261.833,327.578 265.000,327.000 265.000 C 326.450 265.000,326.000 266.149,326.000 267.553 C 326.000 271.462,322.949 284.000,321.997 284.000 C 321.534 284.000,320.607 285.662,319.936 287.694 C 319.266 289.725,317.881 292.285,316.859 293.382 C 315.836 294.479,315.000 295.817,315.000 296.355 C 315.000 297.559,313.824 298.925,306.375 306.375 C 299.612 313.137,298.505 314.049,294.750 315.947 C 293.238 316.712,292.000 317.676,292.000 318.090 C 292.000 318.503,290.645 319.139,288.990 319.502 C 287.334 319.866,285.367 320.776,284.617 321.525 C 279.399 326.744,232.000 327.086,232.000 321.906 C 232.000 321.493,230.425 320.635,228.500 320.000 C 226.575 319.365,225.000 318.514,225.000 318.109 C 225.000 317.704,223.388 316.741,221.418 315.968 C 219.448 315.195,217.407 313.761,216.883 312.781 C 216.359 311.802,215.383 310.988,214.715 310.974 C 213.212 310.943,204.581 302.144,203.704 299.750 C 203.351 298.788,202.595 298.000,202.023 298.000 C 201.452 298.000,200.264 296.200,199.383 294.000 C 198.503 291.800,197.400 290.000,196.932 290.000 C 196.463 290.000,195.522 288.087,194.839 285.750 C 194.156 283.413,193.317 281.275,192.975 281.000 C 188.479 277.390,188.547 234.000,193.048 234.000 C 193.449 234.000,194.070 232.439,194.428 230.532 C 194.786 228.625,195.640 226.487,196.327 225.782 C 197.014 225.077,198.367 222.813,199.335 220.750 C 200.302 218.688,201.537 217.000,202.078 217.000 C 202.620 217.000,203.353 216.213,203.708 215.250 C 204.610 212.807,214.229 203.032,215.750 203.015 C 216.438 203.007,217.000 202.571,217.000 202.047 C 217.000 201.523,218.688 200.302,220.750 199.335 C 222.813 198.367,225.095 196.996,225.821 196.288 C 226.548 195.580,227.754 195.000,228.500 195.000 C 229.246 195.000,230.483 194.374,231.248 193.609 C 235.524 189.333,262.453 187.574,276.472 190.654 M252.750 226.688 C 250.688 226.926,249.000 227.445,249.000 227.842 C 249.000 228.239,246.938 229.172,244.417 229.917 C 241.896 230.661,239.615 231.840,239.348 232.536 C 239.080 233.233,237.995 234.030,236.936 234.307 C 235.877 234.584,234.700 235.640,234.321 236.655 C 233.942 237.670,232.866 239.052,231.930 239.727 C 230.994 240.401,229.916 242.197,229.535 243.717 C 229.154 245.236,228.315 246.806,227.671 247.204 C 226.144 248.147,226.040 270.762,227.557 271.786 C 228.138 272.179,229.200 273.951,229.918 275.725 C 230.635 277.499,232.064 279.921,233.094 281.108 C 234.949 283.247,234.930 283.302,230.983 287.132 C 228.792 289.258,227.000 291.203,227.000 291.453 C 227.000 292.440,231.783 296.581,234.562 298.000 C 236.178 298.825,238.039 300.007,238.698 300.627 C 243.476 305.120,280.000 304.417,280.000 299.832 C 280.000 299.374,280.563 298.999,281.250 298.999 C 283.564 298.997,295.000 288.485,295.000 286.360 C 295.000 285.612,295.473 285.000,296.052 285.000 C 296.631 285.000,297.575 283.650,298.150 282.000 C 298.725 280.350,299.548 279.000,299.979 279.000 C 304.728 279.000,304.344 244.201,299.543 239.400 C 298.694 238.551,298.000 237.237,298.000 236.478 C 298.000 235.720,297.438 234.740,296.750 234.300 C 296.063 233.860,295.004 232.600,294.398 231.500 C 292.676 228.376,289.611 228.543,286.206 231.947 C 282.653 235.500,281.075 235.737,278.782 233.058 C 277.867 231.990,275.180 230.549,272.809 229.857 C 270.439 229.164,268.275 228.284,268.000 227.900 C 267.317 226.949,257.355 226.157,252.750 226.688 M147.250 235.706 C 146.012 235.944,145.000 236.487,145.000 236.913 C 145.000 237.339,141.175 238.490,136.500 239.471 C 131.825 240.452,128.000 241.599,128.000 242.019 C 128.000 242.439,125.075 243.364,121.500 244.075 C 117.925 244.786,115.000 245.690,115.000 246.086 C 115.000 246.481,113.650 247.275,112.000 247.850 L 109.000 248.896 109.000 260.042 C 109.000 270.346,109.151 271.227,111.000 271.710 C 112.100 271.998,113.000 272.631,113.000 273.117 C 113.000 273.602,121.438 274.000,131.750 274.000 L 150.500 274.000 150.527 256.824 C 150.546 244.193,150.877 239.541,151.777 239.241 C 152.450 239.017,153.000 237.971,153.000 236.917 C 153.000 234.994,152.019 234.787,147.250 235.706 M364.660 240.607 C 365.122 243.848,365.420 252.688,365.323 260.250 L 365.146 274.000 384.205 274.000 C 407.846 274.000,407.000 274.523,407.000 259.918 C 407.000 249.543,406.002 247.000,401.929 247.000 C 400.868 247.000,400.000 246.611,400.000 246.137 C 400.000 245.662,397.300 244.700,394.000 244.000 C 390.700 243.300,388.000 242.415,388.000 242.034 C 388.000 241.652,384.288 240.544,379.750 239.569 C 375.212 238.595,371.253 237.400,370.950 236.914 C 370.648 236.428,368.920 235.734,367.110 235.372 L 363.820 234.714 364.660 240.607 M262.000 237.000 C 262.000 237.550,262.697 238.000,263.550 238.000 C 268.122 238.000,274.184 243.102,276.185 248.634 C 276.854 250.485,277.761 252.000,278.201 252.000 C 278.640 252.000,279.000 254.475,279.000 257.500 C 279.000 260.525,278.599 263.000,278.108 263.000 C 277.618 263.000,276.942 264.094,276.607 265.431 C 275.413 270.188,267.440 277.000,263.066 277.000 C 261.930 277.000,261.000 277.450,261.000 278.000 C 261.000 278.550,259.902 279.000,258.559 279.000 C 257.216 279.000,255.840 278.550,255.500 278.000 C 255.160 277.450,254.027 277.000,252.982 277.000 C 250.073 277.000,244.105 273.713,243.450 271.750 C 243.128 270.788,242.483 270.000,242.015 270.000 C 238.368 270.000,236.940 252.475,240.141 246.996 C 242.740 242.546,248.937 238.000,252.404 238.000 C 253.282 238.000,254.000 237.550,254.000 237.000 C 254.000 236.450,255.800 236.000,258.000 236.000 C 260.200 236.000,262.000 236.450,262.000 237.000 " stroke="none" fill="#000000" fill-rule="evenodd"></path></g></svg>