<svg id="svg" version="1.1" width="400" height="400" xmlns="http://www.w3.org/2000/svg" xmlns:xlink="http://www.w3.org/1999/xlink" style="display: block;"><g id="svgg"><path id="path0" d="M265.885 86.889 C 265.822 87.225,265.850 88.291,265.949 89.257 C 266.221 91.921,263.384 94.257,260.852 93.453 C 259.161 92.916,258.827 93.106,259.298 94.334 C 259.729 95.456,259.456 95.729,258.334 95.298 C 257.106 94.827,256.916 95.161,257.453 96.852 C 258.331 99.620,255.688 102.413,252.885 101.680 C 251.430 101.300,250.994 101.542,251.370 102.522 C 251.727 103.451,251.390 103.703,250.334 103.298 C 249.157 102.846,248.911 103.168,249.342 104.599 C 250.207 107.469,246.609 111.328,243.877 110.461 C 242.161 109.916,241.825 110.102,242.298 111.334 C 242.703 112.390,242.451 112.727,241.522 112.370 C 240.542 111.994,240.300 112.430,240.680 113.885 C 241.413 116.688,238.620 119.331,235.852 118.453 C 234.161 117.916,233.827 118.106,234.298 119.334 C 234.729 120.456,234.456 120.729,233.334 120.298 C 232.106 119.827,231.916 120.161,232.453 121.852 C 233.282 124.463,230.853 127.270,228.161 126.814 C 225.572 126.376,223.107 128.695,223.710 131.001 C 224.414 133.692,221.556 136.311,218.852 135.453 C 217.161 134.916,216.827 135.106,217.298 136.334 C 217.729 137.456,217.456 137.729,216.334 137.298 C 215.106 136.827,214.916 137.161,215.453 138.852 C 216.282 141.463,213.853 144.270,211.161 143.814 C 208.572 143.376,206.107 145.695,206.710 148.001 C 207.414 150.692,204.556 153.311,201.852 152.453 C 200.161 151.916,199.827 152.106,200.298 153.334 C 200.729 154.456,200.456 154.729,199.334 154.298 C 198.106 153.827,197.916 154.161,198.453 155.852 C 199.331 158.620,196.688 161.413,193.885 160.680 C 192.430 160.300,191.994 160.542,192.370 161.522 C 192.727 162.451,192.390 162.703,191.334 162.298 C 190.102 161.825,189.916 162.161,190.461 163.877 C 191.328 166.609,187.469 170.207,184.599 169.342 C 183.168 168.911,182.846 169.157,183.298 170.334 C 183.703 171.390,183.451 171.727,182.522 171.370 C 181.542 170.994,181.300 171.430,181.680 172.885 C 182.413 175.688,179.620 178.331,176.852 177.453 C 175.161 176.916,174.827 177.106,175.298 178.334 C 175.729 179.456,175.456 179.729,174.334 179.298 C 173.106 178.827,172.916 179.161,173.453 180.852 C 174.324 183.597,171.823 186.241,168.757 185.814 C 167.362 185.620,166.595 185.977,166.750 186.750 C 166.887 187.437,166.437 187.887,165.750 187.750 C 164.977 187.595,164.620 188.362,164.814 189.757 C 165.205 192.564,162.595 195.324,160.253 194.580 C 158.716 194.092,158.500 194.760,158.500 200.000 C 158.500 205.179,158.728 205.904,160.207 205.434 C 161.410 205.052,164.719 207.712,171.421 214.446 C 176.650 219.701,181.669 224.000,182.574 224.000 C 183.865 224.000,184.131 224.753,183.810 227.504 C 183.459 230.505,183.657 230.926,185.189 230.440 C 186.336 230.076,187.830 230.792,189.353 232.436 C 194.271 237.742,208.767 233.542,208.977 226.750 C 208.990 226.338,209.464 226.000,210.032 226.000 C 211.299 226.000,226.000 211.607,226.000 210.366 C 226.000 209.876,227.237 208.580,228.748 207.487 C 232.225 204.973,244.858 192.322,247.487 188.721 C 248.580 187.225,249.829 186.000,250.261 186.000 C 251.421 186.000,268.000 169.181,268.000 168.005 C 268.000 167.452,269.125 167.000,270.500 167.000 C 272.333 167.000,273.000 167.533,273.000 169.000 C 273.000 170.100,273.480 171.000,274.067 171.000 C 274.701 171.000,274.860 171.864,274.460 173.125 C 274.056 174.397,274.174 175.011,274.752 174.653 C 276.333 173.676,280.984 176.358,280.992 178.250 C 280.996 179.213,281.498 180.000,282.107 180.000 C 282.716 180.000,282.948 180.693,282.623 181.540 C 282.277 182.441,282.544 183.019,283.266 182.932 C 285.737 182.634,288.948 184.261,289.534 186.108 C 289.865 187.149,290.585 188.000,291.135 188.000 C 291.716 188.000,291.837 188.940,291.423 190.242 C 290.791 192.235,290.894 192.333,292.356 191.120 C 293.314 190.325,294.000 190.196,294.000 190.810 C 294.000 191.390,294.900 192.151,296.000 192.500 C 297.100 192.849,298.000 194.004,298.000 195.067 C 298.000 196.130,298.450 197.000,299.000 197.000 C 299.550 197.000,300.000 198.398,300.000 200.107 C 300.000 202.531,299.652 203.080,298.416 202.606 C 297.444 202.233,296.985 202.456,297.228 203.185 C 297.612 204.335,294.454 208.476,290.622 211.847 C 286.100 215.827,273.000 228.971,273.000 229.529 C 273.000 230.312,270.333 233.000,269.555 233.000 C 268.669 233.000,254.000 247.850,254.000 248.747 C 254.000 249.175,252.793 250.420,251.317 251.513 C 249.842 252.606,245.117 256.968,240.817 261.207 C 229.191 272.670,229.043 272.104,248.843 291.904 L 264.685 307.747 271.373 308.173 C 276.440 308.495,277.944 308.296,277.581 307.350 C 277.295 306.605,277.656 306.315,278.478 306.630 C 279.458 307.006,279.700 306.570,279.320 305.115 C 278.622 302.445,281.445 299.622,284.115 300.320 C 285.570 300.700,286.006 300.458,285.630 299.478 C 285.273 298.549,285.610 298.297,286.666 298.702 C 287.894 299.173,288.084 298.839,287.547 297.148 C 286.689 294.444,289.308 291.586,291.999 292.290 C 294.305 292.893,296.624 290.428,296.186 287.839 C 295.730 285.147,298.537 282.718,301.148 283.547 C 302.839 284.084,303.173 283.894,302.702 282.666 C 302.271 281.544,302.544 281.271,303.666 281.702 C 304.894 282.173,305.084 281.839,304.547 280.148 C 303.676 277.403,306.177 274.759,309.243 275.186 C 310.638 275.380,311.405 275.023,311.250 274.250 C 311.112 273.562,311.562 273.112,312.250 273.250 C 313.023 273.405,313.380 272.638,313.186 271.243 C 312.759 268.177,315.403 265.676,318.148 266.547 C 319.839 267.084,320.173 266.894,319.702 265.666 C 319.271 264.544,319.544 264.271,320.666 264.702 C 321.894 265.173,322.084 264.839,321.547 263.148 C 320.669 260.380,323.312 257.587,326.115 258.320 C 327.570 258.700,328.006 258.458,327.630 257.478 C 327.273 256.549,327.610 256.297,328.666 256.702 C 329.886 257.170,330.084 256.839,329.564 255.202 C 328.645 252.307,332.307 248.645,335.202 249.564 C 336.839 250.084,337.170 249.886,336.702 248.666 C 336.297 247.610,336.549 247.273,337.478 247.630 C 338.458 248.006,338.700 247.570,338.320 246.115 C 337.587 243.312,340.380 240.669,343.148 241.547 C 344.839 242.084,345.173 241.894,344.702 240.666 C 344.271 239.544,344.544 239.271,345.666 239.702 C 346.894 240.173,347.084 239.839,346.547 238.148 C 345.676 235.403,348.177 232.759,351.243 233.186 C 352.638 233.380,353.405 233.023,353.250 232.250 C 353.113 231.563,353.563 231.113,354.250 231.250 C 355.023 231.405,355.380 230.638,355.186 229.243 C 354.759 226.177,357.403 223.676,360.148 224.547 C 361.839 225.084,362.173 224.894,361.702 223.666 C 361.271 222.544,361.544 222.271,362.666 222.702 C 363.894 223.173,364.084 222.839,363.547 221.148 C 362.689 218.444,365.308 215.586,367.999 216.290 C 370.305 216.893,372.624 214.428,372.186 211.839 C 371.730 209.147,374.537 206.718,377.148 207.547 C 378.839 208.084,379.173 207.894,378.702 206.666 C 378.328 205.691,378.553 205.275,379.301 205.562 C 380.151 205.888,380.500 204.270,380.500 200.000 C 380.500 196.255,380.108 194.128,379.464 194.376 C 378.264 194.836,372.522 188.581,372.455 186.739 C 372.430 186.058,371.856 185.616,371.180 185.758 C 369.442 186.123,363.266 179.701,363.804 178.088 C 364.065 177.304,363.696 176.935,362.913 177.196 C 361.255 177.748,354.674 171.337,355.510 169.984 C 355.844 169.443,355.504 169.000,354.754 169.000 C 352.648 169.000,346.262 162.674,346.790 161.111 C 347.072 160.276,346.815 159.996,346.146 160.410 C 344.657 161.330,337.693 154.306,338.615 152.814 C 339.062 152.091,338.801 151.852,337.914 152.175 C 336.165 152.812,329.229 145.814,329.827 144.018 C 330.079 143.262,329.795 143.008,329.146 143.410 C 327.701 144.303,321.220 137.839,321.804 136.087 C 322.065 135.304,321.696 134.935,320.912 135.196 C 319.279 135.740,312.882 129.551,313.242 127.775 C 313.384 127.074,312.926 126.616,312.225 126.758 C 310.449 127.118,304.260 120.721,304.804 119.088 C 305.065 118.304,304.696 117.935,303.913 118.196 C 302.161 118.780,295.697 112.299,296.590 110.854 C 296.992 110.205,296.738 109.921,295.982 110.173 C 294.186 110.771,287.188 103.835,287.825 102.086 C 288.148 101.199,287.909 100.938,287.186 101.385 C 285.694 102.307,278.670 95.343,279.590 93.854 C 280.004 93.185,279.724 92.928,278.889 93.210 C 278.125 93.468,276.150 92.238,274.500 90.476 C 271.833 87.628,266.188 85.278,265.885 86.889 M274.000 86.416 C 274.000 87.471,277.012 90.321,277.554 89.780 C 277.806 89.527,277.110 88.504,276.006 87.506 C 274.903 86.507,274.000 86.017,274.000 86.416 M124.672 89.975 C 126.246 91.680,125.234 94.027,123.253 93.267 C 122.217 92.869,121.918 93.058,122.385 93.814 C 123.356 95.385,117.073 101.514,113.598 102.386 C 111.767 102.846,111.003 103.565,111.359 104.493 C 112.053 106.302,99.952 118.817,98.105 118.202 C 97.294 117.931,96.933 118.299,97.205 119.116 C 97.940 121.319,95.197 123.256,92.007 122.788 C 89.808 122.465,89.116 122.747,89.202 123.930 C 89.545 128.618,88.953 129.873,86.250 130.184 C 84.106 130.430,83.431 131.094,83.189 133.195 C 82.958 135.198,82.466 135.732,81.275 135.275 C 80.222 134.871,79.916 135.055,80.382 135.810 C 81.778 138.067,72.316 146.182,68.711 145.821 C 65.575 145.506,65.517 145.575,65.832 149.250 C 66.081 152.162,65.794 153.000,64.545 153.000 C 63.661 153.000,62.635 153.786,62.267 154.747 C 61.196 157.536,57.088 161.172,55.862 160.415 C 55.193 160.001,54.922 160.267,55.191 161.073 C 55.987 163.460,49.255 169.191,45.531 169.296 C 42.523 169.382,42.280 169.605,43.035 171.593 C 44.006 174.147,43.414 175.096,41.343 174.301 C 40.405 173.942,39.674 174.531,39.304 175.944 C 38.853 177.672,38.221 178.021,36.386 177.561 C 34.249 177.024,34.095 177.227,34.626 179.882 C 35.221 182.856,24.861 195.120,22.438 194.313 C 21.922 194.141,21.500 196.705,21.500 200.011 C 21.500 204.273,21.849 205.888,22.699 205.562 C 23.431 205.281,23.674 205.686,23.323 206.602 C 22.867 207.789,23.294 207.964,25.374 207.442 C 27.026 207.028,28.000 207.194,28.000 207.892 C 28.000 208.501,28.731 209.000,29.625 209.000 C 30.909 209.000,31.120 209.651,30.629 212.105 C 30.138 214.560,30.311 215.095,31.453 214.656 C 32.392 214.296,32.713 214.584,32.370 215.478 C 31.994 216.458,32.430 216.700,33.885 216.320 C 36.688 215.587,39.331 218.380,38.453 221.148 C 37.916 222.839,38.106 223.173,39.334 222.702 C 40.456 222.271,40.729 222.544,40.298 223.666 C 39.827 224.894,40.161 225.084,41.852 224.547 C 44.556 223.689,47.414 226.308,46.710 228.999 C 46.107 231.305,48.572 233.624,51.161 233.186 C 53.853 232.730,56.282 235.537,55.453 238.148 C 54.916 239.839,55.106 240.173,56.334 239.702 C 57.456 239.271,57.729 239.544,57.298 240.666 C 56.827 241.894,57.161 242.084,58.852 241.547 C 61.620 240.669,64.413 243.312,63.680 246.115 C 63.300 247.570,63.542 248.006,64.522 247.630 C 65.416 247.287,65.704 247.608,65.344 248.547 C 64.905 249.689,65.440 249.862,67.895 249.371 C 70.349 248.880,71.000 249.091,71.000 250.375 C 71.000 251.269,71.499 252.000,72.108 252.000 C 72.806 252.000,72.972 252.974,72.558 254.626 C 72.036 256.706,72.211 257.133,73.398 256.677 C 74.391 256.296,74.720 256.567,74.370 257.478 C 73.994 258.458,74.430 258.700,75.885 258.320 C 78.555 257.622,81.378 260.445,80.680 263.115 C 80.300 264.570,80.542 265.006,81.522 264.630 C 82.451 264.273,82.703 264.610,82.298 265.666 C 81.823 266.903,82.161 267.084,83.907 266.530 C 86.709 265.640,90.622 269.545,88.949 271.561 C 87.748 273.009,89.339 274.527,90.989 273.507 C 91.545 273.163,91.729 273.543,91.410 274.375 C 90.990 275.469,91.374 275.715,92.885 275.320 C 95.688 274.587,98.331 277.380,97.453 280.148 C 96.916 281.839,97.106 282.173,98.334 281.702 C 99.456 281.271,99.729 281.544,99.298 282.666 C 98.827 283.894,99.161 284.084,100.852 283.547 C 103.463 282.718,106.270 285.147,105.814 287.839 C 105.376 290.428,107.695 292.893,110.001 292.290 C 112.692 291.586,115.311 294.444,114.453 297.148 C 113.916 298.839,114.106 299.173,115.334 298.702 C 116.456 298.271,116.729 298.544,116.298 299.666 C 115.827 300.894,116.161 301.084,117.852 300.547 C 120.620 299.669,123.413 302.312,122.680 305.115 C 122.300 306.570,122.542 307.006,123.522 306.630 C 124.344 306.315,124.705 306.605,124.419 307.350 C 124.056 308.297,125.569 308.495,130.682 308.169 L 137.425 307.740 146.838 298.342 C 154.540 290.652,156.635 289.067,158.367 289.617 C 160.201 290.199,160.310 290.079,159.184 288.722 C 158.070 287.379,158.678 286.375,163.442 281.686 C 172.695 272.580,172.753 272.718,149.985 249.985 C 139.527 239.543,130.527 231.000,129.985 231.000 C 129.443 231.000,129.000 230.540,129.000 229.978 C 129.000 229.416,122.475 222.474,114.500 214.551 C 99.177 199.328,99.022 199.144,101.726 199.361 C 103.414 199.497,103.620 199.080,103.875 195.000 C 103.944 193.900,104.689 193.000,105.531 193.000 C 106.374 193.000,107.326 192.314,107.648 191.474 C 108.061 190.398,108.594 190.248,109.459 190.966 C 111.052 192.288,112.288 191.052,110.966 189.459 C 110.248 188.594,110.398 188.061,111.474 187.648 C 112.314 187.326,113.000 186.374,113.000 185.531 C 113.000 184.667,113.871 184.000,115.000 184.000 C 116.100 184.000,117.000 183.564,117.000 183.031 C 117.000 182.499,117.753 182.352,118.674 182.705 C 119.942 183.192,120.192 182.942,119.705 181.674 C 119.352 180.753,119.499 180.000,120.031 180.000 C 120.564 180.000,121.000 179.100,121.000 178.000 C 121.000 176.667,121.667 176.000,123.000 176.000 C 124.100 176.000,125.000 175.502,125.000 174.893 C 125.000 174.284,125.725 174.064,126.611 174.404 C 127.753 174.843,128.057 174.592,127.655 173.543 C 127.343 172.730,127.518 171.798,128.044 171.473 C 128.570 171.148,129.000 170.009,129.000 168.941 C 129.000 167.537,129.692 167.000,131.500 167.000 C 132.875 167.000,134.000 166.564,134.000 166.031 C 134.000 165.499,134.680 165.324,135.511 165.643 C 136.593 166.058,136.847 165.764,136.404 164.611 C 136.064 163.725,136.284 163.000,136.893 163.000 C 137.502 163.000,138.000 162.100,138.000 161.000 C 138.000 159.667,138.667 159.000,140.000 159.000 C 141.100 159.000,142.000 158.502,142.000 157.893 C 142.000 157.284,142.725 157.064,143.611 157.404 C 144.764 157.847,145.058 157.593,144.643 156.511 C 144.324 155.680,144.499 155.000,145.031 155.000 C 145.564 155.000,146.000 154.130,146.000 153.067 C 146.000 152.004,146.900 150.849,148.000 150.500 C 149.100 150.151,150.000 149.415,150.000 148.865 C 150.000 148.315,150.897 148.150,151.994 148.498 C 153.524 148.984,153.848 148.767,153.387 147.565 C 153.056 146.704,153.284 146.000,153.893 146.000 C 154.502 146.000,155.000 145.100,155.000 144.000 C 155.000 142.667,155.667 142.000,157.000 142.000 C 158.100 142.000,159.000 141.564,159.000 141.031 C 159.000 140.499,159.753 140.352,160.674 140.705 C 161.942 141.192,162.192 140.942,161.705 139.674 C 161.352 138.753,161.499 138.000,162.031 138.000 C 162.564 138.000,163.000 137.100,163.000 136.000 C 163.000 134.667,163.667 134.000,165.000 134.000 C 166.100 134.000,167.000 133.502,167.000 132.893 C 167.000 132.284,167.563 132.002,168.250 132.266 C 169.170 132.619,169.500 131.058,169.500 126.362 C 169.500 121.810,169.156 120.110,168.301 120.438 C 167.604 120.706,167.323 120.322,167.630 119.522 C 168.006 118.542,167.570 118.300,166.115 118.680 C 163.445 119.378,160.622 116.555,161.320 113.885 C 161.700 112.430,161.458 111.994,160.478 112.370 C 159.567 112.720,159.296 112.391,159.677 111.398 C 160.133 110.211,159.706 110.036,157.626 110.558 C 155.607 111.065,155.000 110.845,155.000 109.608 C 155.000 108.724,154.498 108.000,153.883 108.000 C 153.266 108.000,152.996 107.122,153.280 106.037 C 153.893 103.694,151.450 101.372,148.839 101.814 C 146.147 102.270,143.718 99.463,144.547 96.852 C 145.084 95.161,144.894 94.827,143.666 95.298 C 142.565 95.721,142.272 95.454,142.677 94.398 C 143.133 93.211,142.706 93.036,140.626 93.558 C 138.413 94.113,138.000 93.885,138.000 92.108 C 138.000 90.223,137.426 90.000,132.582 90.000 C 129.602 90.000,126.339 89.709,125.332 89.353 C 123.889 88.843,123.749 88.975,124.672 89.975 M283.506 97.006 C 284.504 98.110,285.527 98.806,285.780 98.554 C 286.321 98.012,283.471 95.000,282.416 95.000 C 282.017 95.000,282.507 95.903,283.506 97.006 M291.000 103.416 C 291.000 104.471,294.012 107.321,294.554 106.780 C 294.806 106.527,294.110 105.504,293.006 104.506 C 291.903 103.507,291.000 103.017,291.000 103.416 M300.506 114.006 C 301.504 115.110,302.527 115.806,302.780 115.554 C 303.321 115.012,300.471 112.000,299.416 112.000 C 299.017 112.000,299.507 112.903,300.506 114.006 M325.506 139.006 C 326.504 140.110,327.527 140.806,327.780 140.554 C 328.321 140.012,325.471 137.000,324.416 137.000 C 324.017 137.000,324.507 137.903,325.506 139.006 M333.000 145.416 C 333.000 146.471,336.012 149.321,336.554 148.780 C 336.806 148.527,336.110 147.504,335.006 146.506 C 333.903 145.507,333.000 145.017,333.000 145.416 M342.506 156.006 C 343.504 157.110,344.527 157.806,344.780 157.554 C 345.321 157.012,342.471 154.000,341.416 154.000 C 341.017 154.000,341.507 154.903,342.506 156.006 M350.000 162.416 C 350.000 163.471,353.012 166.321,353.554 165.780 C 353.806 165.527,353.110 164.504,352.006 163.506 C 350.903 162.507,350.000 162.017,350.000 162.416 M266.310 172.431 C 264.697 174.269,265.884 175.259,267.619 173.524 C 268.379 172.764,269.000 171.886,269.000 171.571 C 269.000 170.565,267.538 171.033,266.310 172.431 M258.149 180.604 C 256.327 182.665,257.500 183.643,259.452 181.690 C 260.304 180.839,261.000 179.886,261.000 179.571 C 261.000 178.521,259.515 179.059,258.149 180.604 M241.149 197.604 C 239.327 199.665,240.500 200.643,242.452 198.690 C 243.304 197.839,244.000 196.886,244.000 196.571 C 244.000 195.521,242.515 196.059,241.149 197.604 M233.149 205.671 C 231.297 207.674,232.523 208.620,234.460 206.683 C 235.315 205.827,235.674 204.921,235.258 204.669 C 234.841 204.416,233.892 204.867,233.149 205.671 M152.000 295.927 C 152.000 296.436,151.213 297.009,150.250 297.200 C 149.131 297.422,148.903 297.800,149.616 298.250 C 150.230 298.637,151.538 298.063,152.521 296.976 C 153.543 295.848,153.815 295.000,153.155 295.000 C 152.520 295.000,152.000 295.417,152.000 295.927 M142.571 304.571 C 141.512 305.346,140.929 306.263,141.275 306.609 C 141.622 306.955,142.655 306.488,143.571 305.571 C 145.727 303.416,145.061 302.751,142.571 304.571 M257.000 303.416 C 257.000 304.471,260.012 307.321,260.554 306.780 C 260.806 306.527,260.110 305.504,259.006 304.506 C 257.903 303.507,257.000 303.017,257.000 303.416 " stroke="none" fill="#000000" fill-rule="evenodd"></path></g></svg>