<svg id="svg" version="1.1" width="400" height="400" xmlns="http://www.w3.org/2000/svg" xmlns:xlink="http://www.w3.org/1999/xlink" style="display: block;"><g id="svgg"><path id="path0" d="M78.296 2.750 C 77.334 4.263,76.298 5.725,75.995 6.000 C 75.693 6.275,74.572 8.478,73.504 10.897 C 72.437 13.315,71.100 15.798,70.532 16.415 C 69.498 17.539,67.791 20.459,64.344 26.999 C 63.330 28.924,62.241 30.724,61.925 30.999 C 61.608 31.275,60.494 33.075,59.449 35.000 C 58.403 36.925,55.625 41.688,53.274 45.584 C 50.923 49.480,49.000 53.193,49.000 53.834 C 49.000 54.475,48.627 55.000,48.171 55.000 C 47.715 55.000,45.830 58.037,43.982 61.750 C 42.134 65.463,40.345 68.725,40.007 69.000 C 39.669 69.275,38.355 71.525,37.087 74.000 C 35.819 76.475,34.493 78.725,34.141 79.000 C 33.429 79.555,32.553 81.069,27.302 90.810 C 25.319 94.489,22.639 99.179,21.348 101.230 C 20.057 103.282,19.000 105.419,19.000 105.980 C 19.000 106.541,18.618 107.000,18.152 107.000 C 17.685 107.000,16.462 108.866,15.434 111.147 C 14.406 113.427,13.100 115.790,12.532 116.397 C 11.555 117.441,10.093 119.996,4.945 129.656 L 2.730 133.811 4.750 136.656 C 5.862 138.220,7.435 141.093,8.247 143.040 C 9.058 144.986,10.347 147.257,11.111 148.085 C 11.875 148.914,13.330 151.146,14.344 153.046 C 17.906 159.717,19.505 162.505,20.056 163.000 C 20.570 163.462,24.847 171.101,30.673 181.962 C 31.990 184.415,33.398 186.665,33.804 186.962 C 34.209 187.258,35.079 188.625,35.737 190.000 C 36.394 191.375,38.282 194.750,39.932 197.500 C 41.582 200.250,43.614 203.850,44.447 205.500 C 46.190 208.949,48.422 212.719,52.283 218.730 C 53.777 221.057,55.000 223.382,55.000 223.897 C 55.000 224.412,55.338 224.983,55.750 225.167 C 56.163 225.350,57.611 227.750,58.970 230.500 C 60.328 233.250,63.140 238.320,65.220 241.768 C 67.299 245.215,69.000 248.477,69.000 249.018 C 69.000 249.558,69.370 250.000,69.823 250.000 C 70.275 250.000,71.654 251.913,72.886 254.250 C 74.118 256.588,76.186 260.300,77.481 262.500 C 78.776 264.700,80.634 268.075,81.610 270.000 C 82.585 271.925,84.351 275.075,85.533 277.000 C 88.148 281.259,92.568 289.095,95.402 294.500 C 96.556 296.700,98.030 299.062,98.677 299.748 C 99.324 300.435,100.648 302.797,101.619 304.998 C 102.590 307.199,103.748 309.000,104.192 309.000 C 104.637 309.000,105.000 309.637,105.000 310.417 C 105.000 311.196,105.338 311.983,105.750 312.167 C 106.162 312.350,107.614 314.750,108.976 317.500 C 110.337 320.250,111.737 322.725,112.086 323.000 C 112.435 323.275,113.519 325.075,114.493 327.000 C 115.468 328.925,118.231 333.755,120.633 337.733 C 123.035 341.711,125.000 345.386,125.000 345.900 C 125.000 346.413,125.373 346.983,125.830 347.167 C 126.286 347.350,128.188 350.425,130.056 354.000 C 131.924 357.575,133.740 360.725,134.092 361.000 C 134.444 361.275,135.752 363.525,137.000 366.000 C 138.248 368.475,139.577 370.725,139.953 371.000 C 140.330 371.275,141.642 373.525,142.868 376.000 C 145.229 380.764,147.173 384.173,148.000 385.000 C 148.435 385.435,149.802 387.881,154.427 396.500 C 155.017 397.600,155.950 398.831,156.500 399.235 C 157.050 399.639,193.993 399.976,238.595 399.985 C 325.889 400.001,323.000 400.163,323.000 395.255 C 323.000 394.656,323.337 394.017,323.750 393.833 C 324.163 393.650,325.589 391.137,326.921 388.250 C 328.252 385.363,329.715 383.000,330.171 383.000 C 330.627 383.000,331.000 382.566,331.000 382.035 C 331.000 381.504,333.475 376.989,336.500 372.000 C 339.525 367.011,342.000 362.528,342.000 362.036 C 342.000 361.545,342.563 360.548,343.250 359.821 C 343.938 359.095,345.592 356.475,346.927 354.000 C 351.203 346.071,351.481 345.598,352.589 344.379 C 353.187 343.719,354.952 340.552,356.509 337.340 C 358.066 334.128,359.686 331.266,360.108 330.980 C 360.530 330.693,361.352 329.343,361.935 327.980 C 363.003 325.482,365.074 321.926,366.000 321.000 C 366.592 320.408,367.863 318.164,372.690 309.190 C 374.669 305.511,377.834 300.073,379.723 297.107 C 381.613 294.140,383.572 290.765,384.077 289.607 C 385.037 287.403,387.144 283.856,388.000 283.000 C 388.482 282.518,390.404 279.070,395.040 270.373 L 397.240 266.246 394.620 262.391 C 393.179 260.271,392.000 257.965,392.000 257.268 C 392.000 256.571,391.580 256.000,391.067 256.000 C 390.554 256.000,389.819 254.987,389.433 253.750 C 389.046 252.512,388.454 251.275,388.115 250.999 C 387.777 250.724,386.670 248.924,385.656 246.999 C 382.551 241.107,380.524 237.524,380.000 237.000 C 379.725 236.725,378.532 234.700,377.348 232.500 C 376.164 230.300,374.265 226.925,373.127 225.000 C 371.990 223.075,370.433 220.132,369.668 218.460 C 368.904 216.789,367.648 214.764,366.877 213.960 C 366.107 213.157,364.935 211.375,364.272 210.000 C 363.610 208.625,361.708 205.250,360.047 202.500 C 358.386 199.750,356.763 196.825,356.441 196.000 C 356.119 195.175,355.435 193.825,354.921 193.000 C 354.408 192.175,353.685 190.825,353.317 190.000 C 352.948 189.175,352.379 188.275,352.053 188.000 C 351.726 187.725,350.888 186.375,350.190 185.000 C 349.492 183.625,348.372 181.600,347.700 180.500 C 343.494 173.607,339.000 165.825,339.000 165.436 C 339.000 165.184,336.130 160.334,332.621 154.659 C 329.113 148.983,325.902 143.250,325.486 141.919 C 325.071 140.589,324.454 139.275,324.115 139.000 C 322.491 137.680,319.000 131.907,319.000 130.540 C 319.000 129.693,318.550 129.000,318.000 129.000 C 317.450 129.000,317.000 128.558,317.000 128.018 C 317.000 127.477,315.312 124.194,313.250 120.721 C 308.167 112.163,306.443 109.116,304.353 105.000 C 303.376 103.075,302.029 100.938,301.361 100.252 C 300.693 99.565,299.352 97.203,298.381 95.002 C 297.410 92.801,296.252 91.000,295.808 91.000 C 295.363 91.000,295.000 90.556,295.000 90.014 C 295.000 89.132,292.537 84.754,281.490 66.000 C 279.709 62.975,277.456 58.925,276.486 57.000 C 275.515 55.075,274.446 53.275,274.110 53.000 C 273.775 52.725,273.017 51.600,272.427 50.500 C 267.630 41.560,266.422 39.436,265.884 39.000 C 265.546 38.725,264.248 36.475,263.000 34.000 C 261.752 31.525,260.423 29.275,260.047 29.000 C 259.670 28.725,258.287 26.250,256.974 23.500 C 255.660 20.750,252.429 15.020,249.793 10.768 C 247.157 6.515,245.000 2.625,245.000 2.125 C 245.000 0.149,239.123 -0.000,160.941 -0.000 L 80.046 0.000 78.296 2.750 M241.073 7.573 C 242.408 10.089,243.944 13.014,244.487 14.073 C 245.030 15.133,245.818 16.000,246.237 16.000 C 246.657 16.000,247.000 16.430,247.000 16.956 C 247.000 17.482,248.419 20.294,250.154 23.206 C 251.889 26.118,254.509 30.750,255.976 33.500 C 257.443 36.250,259.849 40.404,261.322 42.730 C 262.795 45.057,264.000 47.387,264.000 47.909 C 264.000 48.430,264.576 49.452,265.279 50.179 C 265.983 50.905,269.211 56.225,272.452 62.000 C 275.694 67.775,280.743 76.474,283.673 81.330 C 286.603 86.187,289.000 90.363,289.000 90.610 C 289.000 90.858,291.387 94.984,294.304 99.780 C 297.221 104.576,299.927 109.175,300.317 110.000 C 300.707 110.825,302.051 113.300,303.303 115.500 C 304.555 117.700,306.462 121.075,307.540 123.000 C 308.618 124.925,309.725 126.725,310.000 127.000 C 316.159 133.159,318.472 132.971,236.500 132.985 L 164.500 132.998 161.572 127.749 C 159.962 124.862,154.970 116.200,150.478 108.500 C 145.987 100.800,141.173 92.475,139.781 90.000 C 138.389 87.525,133.988 79.875,130.000 73.000 C 126.012 66.125,121.621 58.475,120.242 56.000 C 118.862 53.525,116.279 49.025,114.502 46.000 C 102.982 26.395,101.000 22.869,101.000 21.986 C 101.000 21.444,100.550 21.000,100.000 21.000 C 99.450 21.000,99.000 20.542,99.000 19.983 C 99.000 19.424,96.975 15.630,94.500 11.553 C 92.025 7.476,90.000 3.883,90.000 3.570 C 90.000 3.256,123.445 3.000,164.323 3.000 L 238.645 3.000 241.073 7.573 M308.000 137.596 C 308.000 138.421,304.719 144.224,303.500 145.555 C 302.950 146.156,301.600 148.407,300.500 150.558 C 299.400 152.709,298.010 154.998,297.411 155.645 C 296.813 156.291,295.048 159.448,293.491 162.660 C 291.934 165.872,290.374 168.725,290.026 169.000 C 289.677 169.275,288.355 171.525,287.087 174.000 C 285.819 176.475,284.493 178.725,284.141 179.000 C 283.429 179.555,282.553 181.069,277.302 190.810 C 275.319 194.489,272.639 199.179,271.348 201.230 C 270.057 203.282,269.000 205.419,269.000 205.980 C 269.000 206.541,268.656 207.000,268.236 207.000 C 267.816 207.000,266.404 209.250,265.098 212.000 C 263.793 214.750,262.441 217.000,262.094 217.000 C 261.747 217.000,260.395 219.475,259.089 222.500 C 257.784 225.525,256.382 228.000,255.974 228.000 C 255.567 228.000,254.960 228.787,254.626 229.750 C 254.292 230.713,252.641 233.750,250.956 236.500 C 249.272 239.250,247.640 242.287,247.330 243.250 C 247.020 244.213,246.466 245.000,246.099 245.000 C 245.732 245.000,243.422 249.038,240.966 253.974 L 236.500 262.948 164.250 262.974 C 124.513 262.988,92.000 262.724,92.000 262.386 C 92.000 262.048,94.025 258.523,96.500 254.552 C 98.975 250.581,101.000 246.807,101.000 246.166 C 101.000 245.525,101.373 245.000,101.829 245.000 C 102.285 245.000,104.170 241.963,106.018 238.250 C 107.866 234.537,109.655 231.275,109.993 231.000 C 110.331 230.725,111.645 228.475,112.913 226.000 C 114.181 223.525,115.507 221.275,115.859 221.000 C 116.571 220.445,117.447 218.931,122.698 209.190 C 124.681 205.511,127.361 200.821,128.652 198.770 C 129.943 196.718,131.000 194.581,131.000 194.020 C 131.000 193.459,131.363 193.000,131.808 193.000 C 132.252 193.000,133.410 191.199,134.381 188.998 C 135.352 186.797,136.694 184.435,137.364 183.748 C 138.034 183.062,139.586 180.475,140.814 178.000 C 142.042 175.525,143.905 172.150,144.955 170.500 C 146.005 168.850,147.770 165.846,148.877 163.823 C 151.923 158.264,153.417 155.711,154.303 154.551 C 154.745 153.973,157.179 149.787,159.713 145.250 L 164.319 137.000 236.160 137.000 C 275.672 137.000,308.000 137.268,308.000 137.596 M239.078 273.259 C 241.046 276.692,248.644 289.850,255.962 302.500 C 263.281 315.150,270.627 327.975,272.287 331.000 C 273.947 334.025,276.137 337.694,277.153 339.154 C 278.169 340.614,279.000 342.071,279.000 342.391 C 279.000 343.087,288.486 359.362,291.135 363.210 C 292.161 364.700,293.000 366.170,293.000 366.478 C 293.000 366.785,294.800 369.999,297.000 373.620 C 299.200 377.242,301.000 380.391,301.000 380.619 C 301.000 380.847,303.025 384.370,305.500 388.447 C 307.975 392.524,310.000 396.117,310.000 396.430 C 310.000 396.744,276.577 397.000,235.727 397.000 L 161.455 397.000 159.493 393.250 C 158.414 391.188,155.091 385.450,152.107 380.500 C 149.124 375.550,145.484 369.250,144.019 366.500 C 142.555 363.750,140.247 359.700,138.893 357.500 C 137.538 355.300,135.887 352.375,135.225 351.000 C 134.563 349.625,132.246 345.575,130.076 342.000 C 125.916 335.146,121.475 327.440,115.958 317.500 C 114.126 314.200,112.261 311.350,111.814 311.167 C 111.366 310.983,111.000 310.407,111.000 309.887 C 111.000 309.366,108.525 304.877,105.500 299.912 C 102.475 294.947,100.000 290.675,100.000 290.419 C 100.000 289.772,90.675 273.614,89.947 273.000 C 88.465 271.750,88.019 268.605,89.216 267.845 C 89.922 267.397,123.125 267.028,163.000 267.025 L 235.500 267.019 239.078 273.259 " stroke="none" fill="#000000" fill-rule="evenodd"></path></g></svg>