<svg id="svg" version="1.1" width="400" height="400" xmlns="http://www.w3.org/2000/svg" xmlns:xlink="http://www.w3.org/1999/xlink" style="display: block;"><g id="svgg"><path id="path0" d="M84.250 63.662 C 83.324 64.036,83.000 68.269,83.000 80.000 C 83.000 89.811,82.614 95.960,81.986 96.167 C 81.429 96.350,86.379 96.350,92.986 96.166 L 105.000 95.833 105.002 148.666 L 105.004 201.500 93.252 200.982 C 86.788 200.698,81.312 200.585,81.083 200.732 C 80.854 200.880,81.192 201.000,81.833 201.000 C 83.341 201.000,83.505 233.665,82.000 234.167 C 81.450 234.350,100.982 234.500,125.405 234.500 C 149.827 234.500,169.380 234.235,168.856 233.911 C 168.296 233.565,168.026 226.575,168.202 216.911 L 168.500 200.500 156.265 201.000 L 144.030 201.500 143.765 148.677 L 143.500 95.854 156.764 96.177 C 164.059 96.355,169.572 96.350,169.014 96.167 C 168.385 95.960,168.000 89.825,168.000 80.024 C 168.000 66.530,167.768 64.125,166.418 63.607 C 164.530 62.882,86.052 62.935,84.250 63.662 M270.667 63.667 C 270.300 64.033,270.000 89.635,270.000 120.560 C 270.000 171.582,269.849 176.844,268.372 177.411 C 267.084 177.905,266.851 178.988,267.258 182.593 C 267.641 185.995,267.405 187.291,266.328 187.704 C 265.534 188.009,265.100 188.819,265.363 189.504 C 265.944 191.018,258.678 198.345,257.633 197.299 C 257.225 196.892,256.535 197.134,256.100 197.838 C 254.757 200.011,236.767 199.991,237.337 197.817 C 237.708 196.398,237.384 196.284,235.267 197.089 C 233.054 197.930,232.816 197.811,233.267 196.089 C 233.697 194.441,233.442 194.262,231.639 194.947 C 229.166 195.887,226.502 193.740,227.362 191.500 C 227.773 190.428,227.385 190.294,225.699 190.927 C 223.939 191.587,222.869 191.106,220.341 188.519 C 218.603 186.741,215.678 184.998,213.841 184.645 C 211.531 184.201,210.962 184.299,211.996 184.963 C 213.231 185.755,212.751 186.678,209.246 190.249 C 206.911 192.629,205.000 195.050,205.000 195.629 C 205.000 196.209,202.075 199.492,198.500 202.925 C 194.925 206.357,192.000 209.282,192.000 209.423 C 192.000 210.336,204.555 222.000,205.538 222.000 C 207.798 222.000,209.576 225.021,207.936 226.075 C 206.968 226.696,207.497 226.806,209.556 226.412 C 213.168 225.721,216.522 228.442,213.988 230.008 C 213.162 230.518,214.297 230.636,216.802 230.300 C 220.757 229.769,222.796 231.156,219.750 232.305 C 219.063 232.564,220.412 232.542,222.750 232.256 C 226.704 231.773,228.872 233.209,225.756 234.248 C 225.071 234.476,227.392 234.455,230.913 234.200 C 236.078 233.826,237.213 234.004,236.786 235.118 C 236.356 236.244,238.367 236.500,247.637 236.500 C 253.896 236.500,258.563 236.350,258.008 236.167 C 255.255 235.256,257.570 234.000,262.000 234.000 C 264.750 234.000,267.000 233.550,267.000 233.000 C 267.000 232.450,268.350 232.000,270.000 232.000 C 271.650 232.000,273.000 231.550,273.000 231.000 C 273.000 230.450,274.350 230.000,276.000 230.000 C 277.650 230.000,279.000 229.550,279.000 229.000 C 279.000 228.450,279.571 228.000,280.268 228.000 C 282.057 228.000,300.000 210.231,300.000 208.460 C 300.000 207.657,300.450 207.000,301.000 207.000 C 301.550 207.000,302.000 205.650,302.000 204.000 C 302.000 202.350,302.450 201.000,303.000 201.000 C 303.550 201.000,304.000 199.650,304.000 198.000 C 304.000 195.013,305.458 193.874,306.248 196.244 C 306.476 196.929,306.460 194.679,306.211 191.244 C 305.815 185.770,307.018 182.547,308.167 186.002 C 308.350 186.554,308.377 159.461,308.227 125.797 C 308.018 78.773,307.670 64.409,306.727 63.810 C 305.234 62.862,271.605 62.728,270.667 63.667 M56.440 340.297 C 56.163 341.017,56.064 347.432,56.219 354.553 L 56.500 367.500 133.000 368.000 L 209.500 368.500 209.000 354.000 L 208.500 339.500 132.721 339.244 C 71.012 339.035,56.849 339.230,56.440 340.297 " stroke="none" fill="#000000" fill-rule="evenodd"></path></g></svg>