<svg id="svg" version="1.1" width="400" height="400" xmlns="http://www.w3.org/2000/svg" xmlns:xlink="http://www.w3.org/1999/xlink" style="display: block;"><g id="svgg"><path id="path0" d="M138.241 91.325 C 133.380 94.025,131.209 100.194,133.345 105.242 C 138.418 117.229,155.000 114.275,155.000 101.384 C 155.000 92.716,145.743 87.159,138.241 91.325 M89.500 96.988 C 83.473 100.954,81.528 108.095,84.670 114.717 C 90.520 127.045,110.007 122.850,109.996 109.265 C 109.987 97.973,98.478 91.079,89.500 96.988 M44.182 118.030 C 30.558 126.337,39.522 148.563,55.302 145.603 C 68.210 143.182,71.486 125.234,60.359 117.898 C 56.438 115.313,48.533 115.378,44.182 118.030 M119.000 175.045 L 119.000 205.091 116.545 207.545 C 110.868 213.223,104.000 209.052,104.000 199.927 L 104.000 194.000 93.371 194.000 L 82.742 194.000 83.438 201.064 C 85.309 220.053,92.270 227.022,110.145 227.803 C 125.104 228.456,132.782 225.092,137.377 215.871 L 140.000 210.607 140.000 218.804 L 140.000 227.000 161.250 226.992 C 185.440 226.984,193.366 226.014,200.362 222.206 C 214.844 214.325,215.576 190.011,201.533 183.314 L 198.265 181.756 202.015 178.367 C 213.396 168.085,208.502 150.289,193.118 146.016 C 191.011 145.431,174.779 145.009,154.250 145.006 L 119.000 145.000 119.000 175.045 M183.035 162.518 C 193.600 167.981,186.135 177.000,171.050 177.000 L 162.000 177.000 162.000 169.000 L 162.000 161.000 171.050 161.000 C 177.186 161.000,181.044 161.489,183.035 162.518 M17.500 164.487 C 1.603 171.954,4.278 195.899,21.318 198.664 C 38.892 201.516,49.321 180.097,36.339 167.814 C 31.215 162.965,23.602 161.621,17.500 164.487 M230.951 166.300 C 217.032 170.243,208.022 181.976,211.933 191.065 C 214.151 196.222,214.640 204.282,213.067 209.767 C 212.245 212.634,212.512 213.511,215.317 217.158 C 227.305 232.741,255.919 231.336,266.056 214.667 L 267.853 211.713 269.278 215.122 C 275.407 229.792,307.123 233.141,319.806 220.457 L 324.128 216.136 327.642 220.025 C 339.449 233.094,372.493 230.032,378.649 215.298 C 384.059 202.349,377.445 193.560,359.587 189.967 C 343.931 186.818,338.276 182.599,344.934 179.035 C 349.983 176.333,359.000 178.911,359.000 183.057 C 359.000 184.844,359.759 185.000,368.475 185.000 L 377.950 185.000 377.332 181.750 C 373.732 162.809,333.285 158.475,324.742 176.114 L 323.202 179.292 321.696 176.396 C 312.791 159.274,269.000 163.003,269.000 180.885 C 269.000 183.201,268.641 182.949,265.588 178.487 C 258.395 167.975,243.517 162.740,230.951 166.300 M303.545 180.455 C 304.895 181.805,306.000 183.380,306.000 183.955 C 306.000 184.598,309.205 185.000,314.342 185.000 L 322.683 185.000 323.860 188.926 C 325.954 195.915,332.922 199.633,350.285 203.026 C 357.951 204.524,361.522 207.497,360.112 211.206 C 357.745 217.431,344.931 216.752,342.070 210.250 L 340.639 207.000 332.820 207.000 C 325.276 207.000,325.000 206.917,325.000 204.648 C 325.000 197.605,318.282 192.872,303.732 189.664 C 289.061 186.429,284.878 183.300,290.223 179.557 C 293.767 177.074,300.627 177.536,303.545 180.455 M246.287 182.760 C 251.001 187.025,252.718 197.265,250.067 205.298 C 246.337 216.600,232.096 215.469,228.892 203.616 C 224.735 188.236,236.608 174.000,246.287 182.760 M185.928 192.463 C 190.840 195.003,191.690 202.401,187.545 206.545 C 185.223 208.868,184.470 209.000,173.545 209.000 L 162.000 209.000 162.000 200.000 L 162.000 191.000 172.550 191.000 C 179.853 191.000,183.970 191.450,185.928 192.463 M278.507 198.567 C 280.339 199.333,285.888 200.861,290.837 201.964 C 301.570 204.354,304.768 205.692,305.536 208.114 C 308.108 216.217,291.065 218.398,287.275 210.451 L 285.630 207.000 277.698 207.000 C 269.961 207.000,269.782 206.945,270.370 204.750 C 270.701 203.512,270.979 200.363,270.986 197.750 L 271.000 193.000 273.088 195.088 C 274.236 196.236,276.674 197.802,278.507 198.567 M23.500 218.367 C 10.656 224.349,7.805 242.476,18.265 251.660 C 35.159 266.493,59.581 247.208,49.176 227.251 C 44.807 218.871,31.961 214.426,23.500 218.367 M70.500 256.866 C 48.761 266.766,55.833 299.000,79.744 299.000 C 97.633 299.000,107.830 279.655,97.869 264.615 C 92.215 256.080,79.889 252.590,70.500 256.866 M132.195 262.590 C 126.085 265.635,121.655 270.630,119.528 276.872 C 111.318 300.967,140.415 320.590,159.475 303.813 C 181.259 284.638,158.118 249.672,132.195 262.590 " stroke="none" fill="#000000" fill-rule="evenodd"></path></g></svg>