<svg id="svg" version="1.1" width="400" height="400" xmlns="http://www.w3.org/2000/svg" xmlns:xlink="http://www.w3.org/1999/xlink" style="display: block;"><g id="svgg"><path id="path0" d="M77.579 61.872 C 77.283 62.351,68.481 63.072,58.020 63.473 C 47.559 63.875,39.000 64.550,39.000 64.974 C 39.000 65.398,31.350 66.071,22.000 66.471 C 12.650 66.871,5.000 67.603,5.000 68.099 C 5.000 68.594,4.120 69.000,3.045 69.000 C 1.600 69.000,0.918 69.920,0.428 72.533 C -0.247 76.128,1.825 88.000,3.127 88.000 C 3.520 88.000,4.138 89.350,4.500 91.000 C 4.862 92.650,5.537 94.000,6.000 94.000 C 6.463 94.000,7.138 95.350,7.500 97.000 C 7.862 98.650,8.523 100.000,8.968 100.000 C 9.413 100.000,10.073 101.575,10.434 103.500 C 10.795 105.425,11.484 107.000,11.966 107.000 C 12.447 107.000,13.138 108.350,13.500 110.000 C 13.862 111.650,14.532 113.000,14.987 113.000 C 15.443 113.000,16.392 115.250,17.097 118.000 C 17.801 120.750,18.707 123.000,19.110 123.000 C 19.512 123.000,20.138 124.350,20.500 126.000 C 20.862 127.650,21.537 129.000,22.000 129.000 C 22.463 129.000,23.138 130.350,23.500 132.000 C 23.862 133.650,24.553 135.000,25.034 135.000 C 25.516 135.000,26.205 136.575,26.566 138.500 C 26.927 140.425,27.587 142.000,28.032 142.000 C 28.477 142.000,29.138 143.350,29.500 145.000 C 29.862 146.650,30.537 148.000,31.000 148.000 C 31.463 148.000,32.138 149.350,32.500 151.000 C 32.862 152.650,33.568 154.000,34.068 154.000 C 34.567 154.000,35.264 155.800,35.616 158.000 C 35.968 160.200,36.612 162.000,37.048 162.000 C 37.484 162.000,38.138 163.350,38.500 165.000 C 38.862 166.650,39.565 168.000,40.060 168.000 C 40.556 168.000,41.244 169.125,41.589 170.500 C 41.934 171.875,42.618 173.000,43.108 173.000 C 43.599 173.000,44.004 174.012,44.009 175.250 C 44.014 176.488,45.125 179.750,46.478 182.500 C 47.831 185.250,48.952 188.063,48.969 188.750 C 48.986 189.438,49.430 190.000,49.955 190.000 C 50.480 190.000,51.205 191.575,51.566 193.500 C 51.927 195.425,52.587 197.000,53.032 197.000 C 53.477 197.000,54.138 198.350,54.500 200.000 C 54.862 201.650,55.537 203.000,56.000 203.000 C 56.463 203.000,57.138 204.350,57.500 206.000 C 57.862 207.650,58.553 209.000,59.034 209.000 C 59.516 209.000,60.205 210.575,60.566 212.500 C 60.927 214.425,61.587 216.000,62.032 216.000 C 62.477 216.000,63.138 217.350,63.500 219.000 C 63.862 220.650,64.537 222.000,65.000 222.000 C 65.463 222.000,66.138 223.350,66.500 225.000 C 66.862 226.650,67.553 228.000,68.034 228.000 C 68.516 228.000,69.205 229.575,69.566 231.500 C 69.927 233.425,70.587 235.000,71.032 235.000 C 71.477 235.000,72.138 236.350,72.500 238.000 C 72.862 239.650,73.515 241.000,73.949 241.000 C 74.384 241.000,75.307 243.025,76.000 245.500 C 76.693 247.975,77.651 250.000,78.130 250.000 C 78.608 250.000,79.000 250.886,79.000 251.969 C 79.000 254.113,82.920 262.294,84.205 262.833 C 84.642 263.017,85.000 263.738,85.000 264.437 C 85.000 266.853,90.014 271.128,93.512 271.696 C 95.431 272.007,97.000 272.653,97.000 273.131 C 97.000 273.609,97.900 274.000,99.000 274.000 C 100.100 274.000,101.000 273.602,101.000 273.116 C 101.000 272.631,103.925 271.920,107.500 271.537 C 111.075 271.154,114.000 270.471,114.000 270.019 C 114.000 269.566,116.700 268.883,120.000 268.500 C 123.300 268.117,126.000 267.442,126.000 267.000 C 126.000 266.558,128.700 265.883,132.000 265.500 C 135.300 265.117,138.000 264.470,138.000 264.063 C 138.000 263.655,141.827 262.753,146.506 262.057 C 151.184 261.361,155.252 260.401,155.547 259.925 C 155.841 259.448,158.314 258.762,161.041 258.400 C 163.768 258.038,166.000 257.402,166.000 256.986 C 166.000 256.571,168.588 255.908,171.750 255.514 C 174.912 255.120,177.725 254.438,178.000 254.000 C 178.275 253.562,181.042 252.886,184.148 252.499 L 189.796 251.795 190.477 254.898 C 190.852 256.604,191.573 258.000,192.079 258.000 C 192.586 258.000,193.000 258.689,193.000 259.531 C 193.000 260.374,193.648 261.311,194.439 261.615 C 195.230 261.919,196.166 263.479,196.518 265.084 C 196.871 266.688,197.537 268.000,198.000 268.000 C 198.463 268.000,199.144 269.380,199.515 271.068 C 199.885 272.755,200.794 274.367,201.533 274.651 C 202.273 274.935,203.166 276.479,203.518 278.084 C 203.871 279.688,204.537 281.000,205.000 281.000 C 205.463 281.000,206.138 282.350,206.500 284.000 C 206.862 285.650,207.470 287.000,207.850 287.000 C 208.231 287.000,209.657 289.137,211.021 291.750 C 212.384 294.363,213.777 296.725,214.115 297.000 C 214.454 297.275,215.046 298.512,215.433 299.750 C 215.819 300.987,216.519 302.000,216.988 302.000 C 217.457 302.000,218.138 303.350,218.500 305.000 C 218.862 306.650,219.573 308.000,220.079 308.000 C 220.586 308.000,221.000 308.689,221.000 309.531 C 221.000 310.374,221.648 311.311,222.439 311.615 C 223.230 311.919,224.166 313.479,224.518 315.084 C 224.871 316.688,225.573 318.000,226.079 318.000 C 226.586 318.000,227.000 318.606,227.000 319.347 C 227.000 320.088,227.900 321.732,229.000 323.000 C 230.100 324.268,231.000 325.917,231.000 326.663 C 231.000 327.409,231.900 328.790,233.000 329.732 C 234.100 330.674,235.000 332.019,235.000 332.722 C 235.000 333.425,235.482 334.000,236.071 334.000 C 236.661 334.000,237.876 334.733,238.773 335.630 C 240.530 337.387,254.768 336.963,255.943 335.119 C 256.249 334.638,258.413 333.925,260.750 333.535 C 263.087 333.144,265.000 332.464,265.000 332.023 C 265.000 331.583,266.575 330.927,268.500 330.566 C 270.425 330.205,272.000 329.531,272.000 329.068 C 272.000 328.606,274.025 327.923,276.500 327.552 C 278.975 327.181,281.000 326.538,281.000 326.122 C 281.000 325.707,283.925 324.786,287.500 324.075 C 291.075 323.364,294.000 322.387,294.000 321.903 C 294.000 321.419,295.800 320.736,298.000 320.384 C 300.200 320.032,302.000 319.379,302.000 318.933 C 302.000 318.487,304.025 317.819,306.500 317.448 C 308.975 317.077,311.000 316.394,311.000 315.932 C 311.000 315.469,312.575 314.795,314.500 314.434 C 316.425 314.073,318.000 313.429,318.000 313.002 C 318.000 312.576,320.025 311.923,322.500 311.552 C 324.975 311.181,327.000 310.505,327.000 310.050 C 327.000 309.595,328.575 308.927,330.500 308.566 C 332.425 308.205,334.000 307.531,334.000 307.068 C 334.000 306.606,336.025 305.923,338.500 305.552 C 340.975 305.181,343.000 304.513,343.000 304.067 C 343.000 303.621,344.800 302.968,347.000 302.616 C 349.200 302.264,351.000 301.571,351.000 301.076 C 351.000 300.581,352.800 299.872,355.000 299.500 C 357.200 299.128,359.000 298.471,359.000 298.040 C 359.000 297.609,360.800 296.968,363.000 296.616 C 365.200 296.264,367.000 295.583,367.000 295.101 C 367.000 294.620,369.925 293.675,373.500 293.000 C 377.075 292.325,380.000 291.395,380.000 290.932 C 380.000 290.469,381.575 289.795,383.500 289.434 C 385.425 289.073,387.000 288.377,387.000 287.889 C 387.000 287.400,387.643 287.000,388.429 287.000 C 392.110 287.000,394.316 281.474,391.694 278.821 C 390.976 278.095,390.090 276.712,389.725 275.750 C 389.361 274.788,388.599 274.000,388.031 274.000 C 387.464 274.000,387.000 273.321,387.000 272.490 C 387.000 271.660,386.100 270.210,385.000 269.268 C 383.900 268.326,383.000 267.050,383.000 266.433 C 383.000 265.815,382.100 264.495,381.000 263.500 C 379.900 262.505,379.000 261.288,379.000 260.797 C 379.000 260.306,377.875 258.862,376.500 257.588 C 375.125 256.313,374.000 254.860,374.000 254.358 C 374.000 253.855,373.100 252.674,372.000 251.732 C 370.900 250.790,370.000 249.388,370.000 248.617 C 370.000 247.845,369.325 246.955,368.500 246.638 C 367.675 246.322,367.000 245.538,367.000 244.896 C 367.000 244.254,365.928 242.735,364.617 241.521 C 363.306 240.306,361.939 238.384,361.579 237.249 C 361.219 236.113,360.266 234.932,359.462 234.624 C 358.658 234.315,358.000 233.374,358.000 232.531 C 358.000 231.689,357.615 231.000,357.145 231.000 C 356.675 231.000,355.010 228.975,353.446 226.500 C 351.881 224.025,350.241 222.000,349.801 222.000 C 349.360 222.000,349.000 221.425,349.000 220.722 C 349.000 220.019,348.100 218.674,347.000 217.732 C 345.900 216.790,345.000 215.378,345.000 214.593 C 345.000 213.809,344.437 212.940,343.750 212.662 C 343.003 212.361,343.205 212.126,344.250 212.079 C 345.212 212.036,346.000 211.594,346.000 211.098 C 346.000 210.602,348.700 209.883,352.000 209.500 C 355.300 209.117,358.000 208.413,358.000 207.936 C 358.000 207.459,360.250 206.770,363.000 206.406 C 365.750 206.041,368.000 205.402,368.000 204.986 C 368.000 204.571,370.587 203.908,373.750 203.514 C 376.913 203.120,379.739 202.413,380.031 201.944 C 380.323 201.475,383.923 200.545,388.031 199.878 C 392.139 199.211,395.725 198.370,396.000 198.010 C 396.275 197.649,397.345 197.041,398.378 196.659 C 401.235 195.602,399.887 189.403,396.035 185.885 C 394.366 184.360,393.000 182.672,393.000 182.133 C 393.000 181.595,391.650 179.804,390.000 178.154 C 388.350 176.504,387.000 174.779,387.000 174.320 C 387.000 173.861,385.425 172.041,383.500 170.274 C 381.575 168.507,380.000 166.632,380.000 166.108 C 380.000 165.583,378.650 163.804,377.000 162.154 C 375.350 160.504,374.000 158.761,374.000 158.280 C 374.000 157.799,372.669 156.302,371.042 154.953 C 369.416 153.604,368.066 151.972,368.042 151.327 C 368.019 150.682,366.650 148.804,365.000 147.154 C 363.350 145.504,362.000 143.761,362.000 143.280 C 362.000 142.799,360.669 141.302,359.042 139.953 C 357.416 138.604,356.062 137.050,356.034 136.500 C 355.951 134.873,348.999 128.000,347.437 128.000 C 346.647 128.000,346.000 127.550,346.000 127.000 C 346.000 126.450,344.425 126.000,342.500 126.000 C 340.575 126.000,339.000 126.402,339.000 126.894 C 339.000 127.385,334.950 128.108,330.000 128.500 C 325.050 128.892,321.000 129.567,321.000 130.000 C 321.000 130.433,316.950 131.108,312.000 131.500 C 307.050 131.892,303.000 132.561,303.000 132.988 C 303.000 133.414,299.175 134.082,294.500 134.471 C 289.825 134.861,286.000 135.589,286.000 136.090 C 286.000 136.590,284.270 137.000,282.155 137.000 C 278.036 137.000,273.455 140.427,275.710 141.821 C 276.333 142.205,277.151 143.753,277.529 145.260 C 277.907 146.767,278.588 148.000,279.041 148.000 C 279.494 148.000,280.173 148.970,280.550 150.156 C 280.926 151.342,282.227 153.254,283.441 154.406 C 284.656 155.558,285.939 157.287,286.293 158.250 C 286.647 159.213,287.353 160.000,287.860 160.000 C 288.368 160.000,289.066 161.125,289.411 162.500 C 289.756 163.875,290.480 165.000,291.019 165.000 C 291.559 165.000,292.000 165.649,292.000 166.443 C 292.000 167.237,292.835 168.475,293.857 169.193 C 294.878 169.912,296.033 171.512,296.424 172.750 C 296.815 173.988,297.554 175.000,298.067 175.000 C 298.580 175.000,299.000 175.575,299.000 176.278 C 299.000 176.981,299.900 178.326,301.000 179.268 C 302.100 180.210,303.000 181.612,303.000 182.383 C 303.000 183.155,303.675 184.045,304.500 184.362 C 305.325 184.678,306.000 185.626,306.000 186.469 C 306.000 187.311,306.420 188.000,306.933 188.000 C 307.446 188.000,308.173 188.970,308.550 190.156 C 308.926 191.342,310.306 193.306,311.617 194.521 C 312.928 195.735,314.000 197.218,314.000 197.815 C 314.000 198.412,314.788 199.359,315.750 199.920 C 317.246 200.791,317.101 200.944,314.750 200.970 C 313.238 200.986,312.000 201.406,312.000 201.902 C 312.000 202.398,309.300 203.117,306.000 203.500 C 302.700 203.883,300.000 204.550,300.000 204.982 C 300.000 205.414,297.075 206.080,293.500 206.463 C 289.925 206.846,287.000 207.529,287.000 207.981 C 287.000 208.434,284.300 209.117,281.000 209.500 C 277.700 209.883,275.000 210.558,275.000 211.000 C 275.000 211.442,272.300 212.117,269.000 212.500 C 265.700 212.883,263.000 213.550,263.000 213.982 C 263.000 214.414,260.075 215.080,256.500 215.463 C 252.925 215.846,250.000 216.529,250.000 216.981 C 250.000 217.434,247.300 218.117,244.000 218.500 C 240.700 218.883,238.000 219.550,238.000 219.983 C 238.000 220.416,235.525 221.079,232.500 221.457 C 229.475 221.835,227.000 222.503,227.000 222.943 C 227.000 223.382,223.850 224.052,220.000 224.431 C 216.150 224.811,213.000 225.500,213.000 225.962 C 213.000 226.425,210.300 227.117,207.000 227.500 C 203.700 227.883,201.000 228.602,201.000 229.098 C 201.000 231.264,197.006 229.873,196.411 227.500 C 196.066 226.125,195.382 225.000,194.892 225.000 C 194.401 225.000,194.000 224.311,194.000 223.469 C 194.000 222.626,193.352 221.689,192.561 221.385 C 191.770 221.081,190.834 219.521,190.482 217.916 C 190.129 216.312,189.435 215.000,188.940 215.000 C 188.444 215.000,187.756 213.875,187.411 212.500 C 187.066 211.125,186.382 210.000,185.892 210.000 C 185.401 210.000,185.000 209.311,185.000 208.469 C 185.000 207.626,184.352 206.689,183.561 206.385 C 182.770 206.081,181.842 204.558,181.500 203.000 C 181.158 201.442,180.230 199.919,179.439 199.615 C 178.648 199.311,178.000 198.374,178.000 197.531 C 178.000 196.689,177.599 196.000,177.108 196.000 C 176.618 196.000,175.934 194.875,175.589 193.500 C 175.244 192.125,174.556 191.000,174.060 191.000 C 173.565 191.000,172.862 189.650,172.500 188.000 C 172.138 186.350,171.511 185.000,171.107 185.000 C 170.704 185.000,169.755 183.425,169.000 181.500 C 168.245 179.575,167.309 178.000,166.922 178.000 C 166.534 178.000,165.934 176.875,165.589 175.500 C 165.244 174.125,164.520 173.000,163.981 173.000 C 163.441 173.000,163.000 172.394,163.000 171.653 C 163.000 170.912,162.100 169.268,161.000 168.000 C 159.900 166.732,159.000 165.088,159.000 164.347 C 159.000 163.606,158.550 163.000,158.000 163.000 C 157.450 163.000,157.000 162.311,157.000 161.469 C 157.000 160.626,156.352 159.689,155.561 159.385 C 154.770 159.081,153.834 157.521,153.482 155.916 C 153.129 154.312,152.435 153.000,151.940 153.000 C 151.444 153.000,150.756 151.875,150.411 150.500 C 150.066 149.125,149.382 148.000,148.892 148.000 C 148.401 148.000,148.000 147.311,148.000 146.469 C 148.000 145.626,147.352 144.689,146.561 144.385 C 145.770 144.081,144.842 142.558,144.500 141.000 C 144.158 139.442,143.230 137.919,142.439 137.615 C 141.648 137.311,141.000 136.374,141.000 135.531 C 141.000 134.689,140.622 134.000,140.160 134.000 C 139.698 134.000,138.726 132.200,138.000 130.000 C 137.274 127.800,136.302 126.000,135.840 126.000 C 135.378 126.000,135.000 125.311,135.000 124.469 C 135.000 123.626,134.352 122.689,133.561 122.385 C 132.770 122.081,131.834 120.521,131.482 118.916 C 131.129 117.312,130.435 116.000,129.940 116.000 C 129.444 116.000,128.756 114.875,128.411 113.500 C 128.066 112.125,127.382 111.000,126.892 111.000 C 126.401 111.000,126.000 110.394,126.000 109.653 C 126.000 108.912,125.100 107.268,124.000 106.000 C 122.900 104.732,122.000 103.088,122.000 102.347 C 122.000 101.606,121.550 101.000,121.000 101.000 C 120.450 101.000,120.000 100.311,120.000 99.469 C 120.000 98.626,119.352 97.689,118.561 97.385 C 117.770 97.081,116.834 95.521,116.482 93.916 C 116.129 92.312,115.435 91.000,114.940 91.000 C 114.444 91.000,113.756 89.875,113.411 88.500 C 113.066 87.125,112.382 86.000,111.892 86.000 C 111.401 86.000,111.000 85.311,111.000 84.469 C 111.000 83.626,110.352 82.689,109.561 82.385 C 108.770 82.081,107.827 80.490,107.467 78.849 C 107.106 77.208,106.206 75.633,105.467 75.349 C 104.727 75.065,103.834 73.521,103.482 71.916 C 103.129 70.312,102.435 69.000,101.940 69.000 C 101.444 69.000,100.755 67.871,100.408 66.491 C 100.027 64.971,98.837 63.746,97.389 63.383 C 96.075 63.053,95.000 62.382,95.000 61.892 C 95.000 60.740,78.291 60.720,77.579 61.872 M88.500 77.000 C 88.849 78.100,89.519 79.000,89.988 79.000 C 90.457 79.000,91.129 80.312,91.482 81.916 C 91.834 83.521,92.770 85.081,93.561 85.385 C 94.352 85.689,95.000 86.626,95.000 87.469 C 95.000 88.311,95.414 89.000,95.921 89.000 C 96.427 89.000,97.138 90.350,97.500 92.000 C 97.862 93.650,98.565 95.000,99.060 95.000 C 99.556 95.000,100.244 96.125,100.589 97.500 C 100.934 98.875,101.582 100.000,102.029 100.000 C 102.476 100.000,103.129 101.312,103.482 102.916 C 103.834 104.521,104.727 106.065,105.467 106.349 C 106.206 106.633,107.115 108.245,107.485 109.932 C 107.856 111.620,108.573 113.000,109.079 113.000 C 109.586 113.000,110.000 113.689,110.000 114.531 C 110.000 115.374,110.648 116.311,111.439 116.615 C 112.230 116.919,113.166 118.479,113.518 120.084 C 113.871 121.688,114.565 123.000,115.060 123.000 C 115.556 123.000,116.244 124.125,116.589 125.500 C 116.934 126.875,117.582 128.000,118.029 128.000 C 118.476 128.000,119.129 129.312,119.482 130.916 C 119.834 132.521,120.770 134.081,121.561 134.385 C 122.352 134.689,123.000 135.626,123.000 136.469 C 123.000 137.311,123.414 138.000,123.921 138.000 C 124.427 138.000,125.129 139.312,125.482 140.916 C 125.834 142.521,126.770 144.081,127.561 144.385 C 128.352 144.689,129.000 145.626,129.000 146.469 C 129.000 147.311,129.414 148.000,129.921 148.000 C 130.427 148.000,131.138 149.350,131.500 151.000 C 131.862 152.650,132.565 154.000,133.060 154.000 C 133.556 154.000,134.244 155.125,134.589 156.500 C 134.934 157.875,135.534 159.000,135.922 159.000 C 136.309 159.000,137.245 160.575,138.000 162.500 C 138.755 164.425,139.704 166.000,140.107 166.000 C 140.511 166.000,141.129 167.312,141.482 168.916 C 141.834 170.521,142.770 172.081,143.561 172.385 C 144.352 172.689,145.000 173.626,145.000 174.469 C 145.000 175.311,145.414 176.000,145.921 176.000 C 146.427 176.000,147.138 177.350,147.500 179.000 C 147.862 180.650,148.565 182.000,149.060 182.000 C 149.556 182.000,150.244 183.125,150.589 184.500 C 150.934 185.875,151.618 187.000,152.108 187.000 C 152.599 187.000,153.000 187.689,153.000 188.531 C 153.000 189.374,153.648 190.311,154.439 190.615 C 155.230 190.919,156.166 192.479,156.518 194.084 C 156.871 195.688,157.573 197.000,158.079 197.000 C 158.586 197.000,159.000 197.689,159.000 198.531 C 159.000 199.374,159.648 200.311,160.439 200.615 C 161.230 200.919,162.166 202.479,162.518 204.084 C 162.871 205.688,163.573 207.000,164.079 207.000 C 164.586 207.000,165.000 207.643,165.000 208.429 C 165.000 209.214,165.607 210.464,166.349 211.206 C 167.091 211.948,168.239 214.194,168.900 216.198 C 169.561 218.201,170.754 220.381,171.551 221.042 C 172.348 221.704,173.000 222.865,173.000 223.622 C 173.000 224.380,173.450 225.000,174.000 225.000 C 174.550 225.000,175.000 225.468,175.000 226.040 C 175.000 226.613,175.953 228.370,177.118 229.945 C 179.722 233.468,178.928 235.000,174.500 235.000 C 172.640 235.000,170.859 235.419,170.543 235.930 C 170.227 236.442,167.501 237.168,164.484 237.545 C 161.468 237.922,159.000 238.584,159.000 239.017 C 159.000 239.450,156.300 240.117,153.000 240.500 C 149.700 240.883,147.000 241.566,147.000 242.019 C 147.000 242.471,144.075 243.154,140.500 243.537 C 136.925 243.920,134.000 244.586,134.000 245.018 C 134.000 245.450,131.300 246.117,128.000 246.500 C 124.700 246.883,122.000 247.558,122.000 248.000 C 122.000 248.442,119.300 249.117,116.000 249.500 C 112.700 249.883,110.000 250.602,110.000 251.098 C 110.000 254.948,101.536 250.983,100.441 246.621 C 100.079 245.179,99.418 244.000,98.971 244.000 C 98.524 244.000,97.862 242.650,97.500 241.000 C 97.138 239.350,96.463 238.000,96.000 238.000 C 95.537 238.000,94.862 236.650,94.500 235.000 C 94.138 233.350,93.435 232.000,92.940 232.000 C 92.444 232.000,91.756 230.875,91.411 229.500 C 91.066 228.125,90.387 227.000,89.903 227.000 C 89.420 227.000,88.736 225.200,88.384 223.000 C 88.032 220.800,87.388 219.000,86.952 219.000 C 86.516 219.000,85.862 217.650,85.500 216.000 C 85.138 214.350,84.463 213.000,84.000 213.000 C 83.537 213.000,82.862 211.650,82.500 210.000 C 82.138 208.350,81.463 207.000,81.000 207.000 C 80.537 207.000,79.862 205.650,79.500 204.000 C 79.138 202.350,78.445 201.000,77.961 201.000 C 77.476 201.000,76.541 199.200,75.882 197.000 C 75.223 194.800,74.340 193.000,73.921 193.000 C 73.502 193.000,72.862 191.650,72.500 190.000 C 72.138 188.350,71.463 187.000,71.000 187.000 C 70.537 187.000,69.862 185.650,69.500 184.000 C 69.138 182.350,68.484 181.000,68.048 181.000 C 67.612 181.000,66.968 179.200,66.616 177.000 C 66.264 174.800,65.580 173.000,65.097 173.000 C 64.613 173.000,63.934 171.875,63.589 170.500 C 63.244 169.125,62.556 168.000,62.060 168.000 C 61.565 168.000,60.862 166.650,60.500 165.000 C 60.138 163.350,59.463 162.000,59.000 162.000 C 58.537 162.000,57.862 160.650,57.500 159.000 C 57.138 157.350,56.463 156.000,56.000 156.000 C 55.537 156.000,54.862 154.650,54.500 153.000 C 54.138 151.350,53.463 150.000,53.000 150.000 C 52.537 150.000,51.862 148.650,51.500 147.000 C 51.138 145.350,50.463 144.000,50.000 144.000 C 49.537 144.000,48.862 142.650,48.500 141.000 C 48.138 139.350,47.512 138.000,47.110 138.000 C 46.707 138.000,45.801 135.750,45.097 133.000 C 44.392 130.250,43.443 128.000,42.987 128.000 C 42.532 128.000,41.862 126.650,41.500 125.000 C 41.138 123.350,40.463 122.000,40.000 122.000 C 39.537 122.000,38.862 120.650,38.500 119.000 C 38.138 117.350,37.463 116.000,37.000 116.000 C 36.537 116.000,35.862 114.650,35.500 113.000 C 35.138 111.350,34.463 110.000,34.000 110.000 C 33.537 110.000,32.862 108.650,32.500 107.000 C 32.138 105.350,31.463 104.000,31.000 104.000 C 30.537 104.000,29.862 102.650,29.500 101.000 C 29.138 99.350,28.463 98.000,28.000 98.000 C 27.537 98.000,26.862 96.650,26.500 95.000 C 26.138 93.350,25.463 92.000,25.000 92.000 C 24.537 92.000,23.842 90.537,23.454 88.750 C 23.066 86.963,22.416 85.275,22.009 85.000 C 16.871 81.526,20.927 79.034,31.750 79.014 C 35.737 79.006,39.000 78.603,39.000 78.117 C 39.000 77.302,63.833 75.542,80.683 75.162 C 87.064 75.018,87.936 75.223,88.500 77.000 M345.901 140.901 C 346.947 141.947,348.102 143.747,348.469 144.901 C 348.835 146.056,349.569 147.000,350.099 147.000 C 350.629 147.000,351.357 147.768,351.717 148.706 C 352.350 150.355,354.156 152.807,356.750 155.540 C 357.438 156.265,358.000 157.353,358.000 157.960 C 358.000 158.567,358.658 159.315,359.462 159.624 C 360.266 159.932,361.226 161.136,361.595 162.299 C 361.964 163.462,363.556 165.546,365.133 166.930 C 366.710 168.313,368.019 169.908,368.042 170.473 C 368.066 171.038,369.416 172.604,371.042 173.953 C 372.669 175.302,374.000 176.826,374.000 177.338 C 374.000 177.851,375.125 179.313,376.500 180.588 C 380.918 184.682,379.896 186.700,373.000 187.500 C 369.700 187.883,367.000 188.558,367.000 189.000 C 367.000 189.442,364.300 190.117,361.000 190.500 C 357.700 190.883,355.000 191.558,355.000 192.000 C 355.000 192.442,352.300 193.117,349.000 193.500 C 345.700 193.883,343.000 194.550,343.000 194.983 C 343.000 199.069,327.107 195.812,327.017 191.708 C 327.008 191.273,326.100 189.950,325.000 188.770 C 323.900 187.589,323.000 186.033,323.000 185.311 C 323.000 184.590,322.580 184.000,322.067 184.000 C 321.554 184.000,320.827 183.030,320.450 181.844 C 320.074 180.658,318.694 178.694,317.383 177.479 C 316.072 176.265,315.000 174.860,315.000 174.358 C 315.000 173.855,314.212 172.721,313.250 171.836 C 310.862 169.641,308.000 165.777,308.000 164.749 C 308.000 164.284,306.875 162.862,305.500 161.588 C 304.125 160.313,303.000 158.860,303.000 158.358 C 303.000 157.855,302.100 156.674,301.000 155.732 C 299.900 154.790,299.000 153.388,299.000 152.617 C 299.000 151.845,298.325 150.955,297.500 150.638 C 294.029 149.306,295.931 147.000,300.500 147.000 C 302.975 147.000,305.000 146.608,305.000 146.129 C 305.000 145.650,308.600 144.944,313.000 144.560 C 317.400 144.177,321.000 143.502,321.000 143.060 C 321.000 142.619,324.600 141.944,329.000 141.560 C 333.400 141.177,337.000 140.443,337.000 139.931 C 337.000 138.185,343.942 138.942,345.901 140.901 M328.592 217.250 C 329.897 218.488,330.973 220.063,330.983 220.750 C 330.992 221.438,331.420 222.000,331.933 222.000 C 332.446 222.000,333.158 222.923,333.516 224.051 C 334.090 225.860,335.333 227.416,341.528 234.084 C 342.338 234.955,343.000 236.193,343.000 236.834 C 343.000 237.475,343.420 238.000,343.933 238.000 C 344.446 238.000,345.173 238.970,345.550 240.156 C 345.926 241.342,347.306 243.306,348.617 244.521 C 349.928 245.735,351.000 247.140,351.000 247.642 C 351.000 248.145,351.900 249.326,353.000 250.268 C 354.100 251.210,355.000 252.637,355.000 253.441 C 355.000 254.244,355.563 255.260,356.250 255.700 C 357.597 256.562,362.000 262.540,362.000 263.507 C 362.000 263.831,363.125 265.138,364.500 266.412 C 365.875 267.687,367.000 269.218,367.000 269.815 C 367.000 270.412,367.788 271.365,368.750 271.932 C 370.778 273.127,368.980 274.956,365.750 274.985 C 364.788 274.993,364.000 275.399,364.000 275.886 C 364.000 276.374,361.975 277.077,359.500 277.448 C 357.025 277.819,355.000 278.517,355.000 279.000 C 355.000 279.483,352.975 280.181,350.500 280.552 C 348.025 280.923,346.000 281.598,346.000 282.052 C 346.000 282.506,343.975 283.181,341.500 283.552 C 339.025 283.923,337.000 284.598,337.000 285.052 C 337.000 285.506,334.975 286.181,332.500 286.552 C 330.025 286.923,328.000 287.586,328.000 288.026 C 328.000 288.465,326.200 289.128,324.000 289.500 C 321.800 289.872,320.000 290.496,320.000 290.888 C 320.000 291.279,317.300 292.158,314.000 292.839 C 310.700 293.521,308.000 294.460,308.000 294.926 C 308.000 295.392,305.975 296.077,303.500 296.448 C 301.025 296.819,299.000 297.494,299.000 297.948 C 299.000 298.402,296.975 299.077,294.500 299.448 C 292.025 299.819,290.000 300.517,290.000 301.000 C 290.000 301.483,287.975 302.181,285.500 302.552 C 283.025 302.923,281.000 303.598,281.000 304.052 C 281.000 304.506,278.975 305.181,276.500 305.552 C 274.025 305.923,272.000 306.598,272.000 307.052 C 272.000 307.506,269.975 308.181,267.500 308.552 C 265.025 308.923,263.000 309.576,263.000 310.002 C 263.000 310.429,261.314 311.094,259.252 311.480 C 257.191 311.867,255.279 312.527,255.002 312.948 C 253.750 314.852,246.985 315.124,246.293 313.298 C 245.918 312.309,245.024 310.905,244.306 310.179 C 243.588 309.452,243.000 308.214,243.000 307.429 C 243.000 306.643,242.550 306.000,242.000 306.000 C 241.450 306.000,241.000 305.311,241.000 304.469 C 241.000 303.626,240.352 302.689,239.561 302.385 C 238.770 302.081,237.834 300.521,237.482 298.916 C 237.129 297.312,236.427 296.000,235.921 296.000 C 235.414 296.000,235.000 295.347,235.000 294.550 C 235.000 293.752,234.389 292.740,233.641 292.300 C 232.894 291.860,231.734 289.813,231.064 287.750 C 230.393 285.688,229.466 284.000,229.002 284.000 C 228.538 284.000,227.862 282.650,227.500 281.000 C 227.138 279.350,226.427 278.000,225.921 278.000 C 225.414 278.000,225.000 277.311,225.000 276.469 C 225.000 275.626,224.352 274.689,223.561 274.385 C 222.770 274.081,221.834 272.521,221.482 270.916 C 221.129 269.312,220.427 268.000,219.921 268.000 C 219.414 268.000,219.000 267.394,219.000 266.653 C 219.000 265.912,218.100 264.268,217.000 263.000 C 215.900 261.732,215.000 260.088,215.000 259.347 C 215.000 258.606,214.559 258.000,214.019 258.000 C 213.480 258.000,212.756 256.875,212.411 255.500 C 212.066 254.125,211.431 253.000,211.000 253.000 C 210.569 253.000,209.907 251.767,209.529 250.260 C 209.151 248.753,208.315 247.185,207.671 246.775 C 206.994 246.345,207.659 246.024,209.250 246.015 C 210.762 246.007,212.000 245.608,212.000 245.129 C 212.000 244.650,214.250 243.959,217.000 243.594 C 219.750 243.230,222.000 242.541,222.000 242.064 C 222.000 241.587,224.700 240.883,228.000 240.500 C 231.300 240.117,234.000 239.442,234.000 239.000 C 234.000 238.558,236.700 237.883,240.000 237.500 C 243.300 237.117,246.000 236.413,246.000 235.936 C 246.000 235.459,248.250 234.770,251.000 234.406 C 253.750 234.041,256.000 233.416,256.000 233.016 C 256.000 232.617,260.050 231.710,265.000 231.000 C 269.950 230.290,274.000 229.383,274.000 228.984 C 274.000 228.584,276.250 227.959,279.000 227.594 C 281.750 227.230,284.000 226.541,284.000 226.064 C 284.000 225.587,286.700 224.883,290.000 224.500 C 293.300 224.117,296.000 223.442,296.000 223.000 C 296.000 222.558,298.700 221.883,302.000 221.500 C 305.300 221.117,308.000 220.456,308.000 220.031 C 308.000 219.606,310.250 218.959,313.000 218.594 C 315.750 218.230,318.000 217.525,318.000 217.029 C 318.000 216.533,319.462 215.945,321.250 215.723 C 323.038 215.502,324.887 215.248,325.359 215.160 C 325.832 215.072,327.286 216.012,328.592 217.250 " stroke="none" fill="#000000" fill-rule="evenodd"></path></g></svg>