<svg id="svg" version="1.1" width="515" height="515" xmlns="http://www.w3.org/2000/svg" xmlns:xlink="http://www.w3.org/1999/xlink" style="display: block;"><g id="svgg"><path id="path0" d="M388.000 99.729 C 387.175 100.043,386.255 100.672,385.956 101.126 C 385.656 101.581,380.931 102.661,375.456 103.527 C 369.980 104.393,361.450 105.768,356.500 106.583 C 351.550 107.399,339.175 108.487,329.000 109.003 C 274.315 111.772,259.307 112.341,236.500 112.509 C 209.196 112.709,207.941 112.874,205.997 116.506 C 204.488 119.325,205.624 133.357,209.032 154.000 C 210.077 160.325,211.427 169.542,212.034 174.481 C 212.640 179.421,213.743 186.171,214.486 189.481 C 215.228 192.792,216.149 199.264,216.532 203.864 C 217.325 213.395,218.967 216.000,224.180 216.000 C 227.209 216.000,236.000 208.460,236.000 205.861 C 236.000 202.713,239.831 205.764,242.175 210.777 C 250.837 229.311,252.004 232.639,255.472 248.694 C 256.802 254.850,258.547 261.156,259.348 262.707 C 260.150 264.258,261.128 267.770,261.521 270.513 C 262.330 276.158,265.288 283.803,268.686 289.036 C 270.674 292.097,270.839 293.039,269.917 296.036 C 268.973 299.101,268.312 302.997,266.315 317.250 C 266.026 319.313,265.500 320.999,265.145 320.999 C 264.294 320.997,261.002 309.730,260.994 306.793 C 260.990 305.532,260.408 303.375,259.700 302.000 C 258.991 300.625,257.809 296.800,257.073 293.500 C 256.337 290.200,254.705 284.125,253.446 280.000 C 252.187 275.875,249.755 267.100,248.040 260.500 C 246.326 253.900,244.041 246.241,242.962 243.481 C 241.883 240.720,241.000 237.233,241.000 235.731 C 241.000 234.229,240.606 233.000,240.125 233.000 C 239.644 233.000,238.997 231.735,238.688 230.189 C 237.650 224.998,230.866 223.484,226.306 227.425 L 223.500 229.850 223.702 243.175 C 223.813 250.504,224.600 260.100,225.452 264.500 C 226.303 268.900,227.000 274.075,227.001 276.000 C 227.001 277.925,227.639 282.650,228.418 286.500 C 229.196 290.350,230.116 297.775,230.462 303.000 C 230.807 308.225,231.794 321.568,232.653 332.651 C 234.084 351.095,234.081 353.344,232.608 359.215 C 231.724 362.742,231.000 366.621,231.000 367.835 C 231.000 371.929,223.836 388.447,220.146 392.863 C 213.229 401.141,202.732 411.183,197.870 414.175 C 191.188 418.286,189.756 425.050,195.000 427.725 C 198.059 429.286,280.333 429.421,297.000 427.892 C 302.775 427.363,333.758 426.708,365.852 426.438 C 427.684 425.917,429.829 425.743,430.105 421.224 C 430.207 419.557,430.387 392.393,431.522 206.615 C 432.114 109.886,432.548 116.380,425.295 113.350 C 423.212 112.480,419.422 111.976,416.123 112.131 C 410.812 112.381,410.485 112.260,410.237 109.948 C 409.601 104.013,407.949 100.220,405.744 99.629 C 402.957 98.882,390.034 98.955,388.000 99.729 M91.873 112.776 C 90.428 112.959,88.265 114.154,87.065 115.430 L 84.885 117.752 84.927 269.888 C 84.974 437.182,84.561 426.099,90.809 427.667 C 92.219 428.021,105.312 428.029,119.903 427.686 L 146.433 427.061 152.585 424.033 C 171.973 414.488,205.000 385.014,205.000 377.257 C 205.000 376.566,205.388 376.000,205.861 376.000 C 206.335 376.000,208.234 372.512,210.081 368.250 L 213.439 360.500 213.805 334.851 C 214.175 308.959,212.759 285.818,209.499 264.500 C 208.742 259.550,207.817 252.012,207.444 247.750 C 207.071 243.488,206.420 240.000,205.998 240.000 C 205.576 240.000,204.946 237.412,204.598 234.250 C 204.250 231.088,202.818 221.525,201.416 213.000 C 196.858 185.289,194.947 173.609,193.971 167.500 C 191.002 148.926,188.967 135.539,187.973 128.057 C 186.537 117.241,185.051 114.360,180.243 113.066 C 176.857 112.154,98.785 111.898,91.873 112.776 M118.510 199.696 C 119.219 202.625,120.805 205.025,123.812 207.720 C 128.608 212.018,128.601 213.411,123.769 216.500 C 121.742 217.796,120.147 219.996,119.237 222.750 C 117.541 227.886,115.836 228.138,110.809 223.994 C 107.643 221.384,106.803 221.124,104.441 222.022 C 99.512 223.896,96.106 218.750,99.669 214.813 C 101.234 213.084,101.202 212.695,99.169 208.625 C 95.600 201.477,98.314 196.363,104.243 199.065 C 106.360 200.029,107.312 199.817,110.616 197.645 C 115.768 194.258,117.291 194.653,118.510 199.696 M361.850 205.324 C 362.962 208.171,364.177 212.075,364.549 214.000 C 364.922 215.925,366.098 219.437,367.163 221.805 C 368.229 224.173,369.985 230.023,371.066 234.805 C 374.276 248.996,375.411 253.000,376.227 253.000 C 376.652 253.000,377.000 253.883,377.000 254.963 C 377.000 256.043,377.836 259.080,378.858 261.713 C 379.880 264.346,381.014 269.126,381.377 272.336 C 382.694 283.971,389.335 290.104,397.326 287.066 L 400.000 286.050 400.183 291.775 C 400.471 300.800,400.141 302.789,397.481 308.038 C 392.840 317.195,387.765 317.845,385.036 309.629 C 384.464 307.908,382.872 304.286,381.498 301.581 C 380.124 298.875,379.000 296.062,379.000 295.331 C 379.000 294.599,378.564 294.000,378.032 294.000 C 376.144 294.000,364.000 248.944,364.000 241.939 C 364.000 239.729,363.136 236.226,362.079 234.156 C 361.023 232.085,359.634 227.491,358.992 223.946 C 357.661 216.595,356.681 215.000,353.500 215.000 C 348.095 215.000,348.997 204.285,354.694 200.829 C 358.363 198.603,359.504 199.319,361.850 205.324 M303.156 209.000 C 304.617 212.025,306.192 214.970,306.656 215.544 C 308.936 218.364,314.167 230.325,316.038 237.000 C 317.195 241.125,319.002 247.200,320.054 250.500 C 321.106 253.800,323.531 262.117,325.443 268.983 C 328.213 278.927,329.437 281.843,331.460 283.317 C 334.534 285.556,334.778 290.064,332.520 302.896 C 329.873 317.933,329.186 318.342,326.036 306.750 C 320.857 287.692,319.880 284.282,318.372 280.000 C 315.852 272.845,313.036 261.735,313.017 258.876 C 312.998 255.912,310.361 247.864,309.139 247.041 C 308.698 246.743,307.096 241.941,305.579 236.368 C 301.947 223.020,297.695 215.827,292.695 214.574 C 288.057 213.411,287.709 210.202,291.750 205.879 C 296.206 201.112,299.825 202.102,303.156 209.000 M145.916 218.654 C 147.782 219.961,148.665 220.066,150.125 219.154 C 154.373 216.501,158.565 219.123,157.372 223.686 C 157.083 224.792,157.556 227.394,158.423 229.470 C 161.503 236.842,160.467 240.028,154.864 240.416 C 153.033 240.543,151.028 241.643,149.688 243.256 C 146.436 247.169,144.044 247.097,141.259 243.000 C 139.950 241.075,138.344 239.320,137.690 239.100 C 137.035 238.880,136.275 238.430,136.000 238.100 C 135.725 237.770,134.600 237.004,133.500 236.398 C 130.150 234.552,130.482 231.318,134.427 227.373 C 137.979 223.821,139.050 221.000,136.847 221.000 C 136.213 221.000,136.732 220.100,138.000 219.000 C 140.805 216.567,142.812 216.479,145.916 218.654 M167.215 249.016 C 168.915 251.187,170.796 252.240,173.935 252.776 C 180.144 253.836,181.063 255.859,177.604 260.850 C 175.039 264.551,174.919 265.134,176.066 268.306 C 178.216 274.251,173.025 277.883,168.643 273.500 C 166.596 271.453,164.327 271.618,161.770 274.000 C 156.917 278.521,153.222 275.565,154.473 268.161 C 154.984 265.136,154.708 264.046,153.054 262.548 C 149.539 259.368,151.008 255.000,155.592 255.000 C 157.149 255.000,157.982 254.205,158.470 252.250 C 160.074 245.822,163.674 244.491,167.215 249.016 M171.965 287.934 C 172.534 288.998,173.000 290.939,173.000 292.247 C 173.000 293.585,174.313 295.884,176.000 297.500 C 180.025 301.356,178.191 308.000,173.101 308.000 C 172.615 308.000,171.933 309.132,171.586 310.515 C 169.968 316.962,166.117 318.444,161.781 314.290 C 159.230 311.846,158.654 311.692,155.913 312.727 C 150.175 314.893,147.368 310.093,151.500 305.182 C 154.517 301.597,154.633 299.620,152.022 296.301 C 148.950 292.396,150.894 289.588,156.179 290.297 C 159.316 290.718,160.915 290.319,163.720 288.416 C 168.021 285.497,170.580 285.347,171.965 287.934 M143.443 322.553 C 144.939 324.837,145.562 325.038,149.365 324.468 C 155.013 323.621,156.710 325.394,154.939 330.293 C 153.904 333.155,153.989 334.404,155.488 338.330 C 157.859 344.537,156.562 346.357,150.423 345.436 C 146.502 344.848,145.918 345.060,143.255 348.041 C 139.130 352.657,134.873 351.362,133.816 345.168 C 133.346 342.419,132.146 340.169,130.302 338.581 L 127.500 336.170 130.750 331.556 C 132.537 329.018,134.000 326.080,134.000 325.027 C 134.000 320.415,140.863 318.616,143.443 322.553 M116.429 339.571 C 117.293 340.436,118.000 342.680,118.000 344.558 C 118.000 347.516,118.469 348.169,121.500 349.436 C 126.508 351.528,126.176 354.339,120.517 357.757 C 117.862 359.361,115.638 361.599,115.064 363.246 C 113.435 367.918,108.012 367.763,106.500 363.001 C 106.037 361.542,104.988 361.000,102.624 361.000 C 97.754 361.000,95.529 358.969,96.495 355.406 C 96.928 353.808,97.219 349.943,97.142 346.817 C 96.986 340.464,99.014 338.599,103.481 340.990 C 105.344 341.987,106.380 341.843,109.612 340.139 C 114.367 337.631,114.479 337.622,116.429 339.571 " stroke="none" fill="#000000" fill-rule="evenodd"></path></g></svg>