<svg id="svg" xmlns="http://www.w3.org/2000/svg" xmlns:xlink="http://www.w3.org/1999/xlink" width="400" height="400" viewBox="0, 0, 400,400"><g id="svgg"><path id="path0" d="M11.667 111.146 C 7.711 112.110,8.000 105.129,8.000 199.722 L 8.000 285.903 9.757 287.285 C 11.486 288.645,12.091 288.667,48.454 288.667 L 85.394 288.667 87.092 286.969 C 88.722 285.338,88.781 285.006,88.561 278.576 C 88.220 268.553,90.699 269.333,59.216 269.333 C 43.551 269.333,32.762 269.074,32.026 268.681 C 29.366 267.257,29.334 266.311,29.323 188.734 C 29.318 147.447,29.071 113.286,28.776 112.821 C 27.626 111.009,16.644 109.934,11.667 111.146 M186.571 111.111 C 181.749 111.696,182.111 106.655,181.796 177.675 C 181.490 246.853,181.499 246.667,177.826 253.560 C 166.405 274.986,138.902 278.700,118.717 261.541 C 112.058 255.880,112.114 255.874,106.708 262.978 C 100.362 271.316,100.438 272.121,108.168 278.314 C 122.885 290.105,142.772 294.555,160.886 290.111 C 164.123 289.317,167.295 288.667,167.934 288.667 C 168.574 288.667,171.775 287.351,175.048 285.744 C 188.566 279.106,199.035 264.968,201.997 249.351 C 203.489 241.483,202.853 113.708,201.314 112.316 C 199.924 111.058,192.210 110.427,186.571 111.111 M225.054 111.296 C 220.328 112.256,220.667 105.434,220.667 199.794 C 220.667 283.626,220.693 285.359,221.963 286.629 C 224.556 289.222,237.224 289.513,239.954 287.042 L 241.377 285.753 241.308 217.168 C 241.256 164.937,241.429 148.355,242.034 147.625 C 244.045 145.203,246.323 147.562,248.724 154.552 C 249.691 157.365,251.395 161.917,252.512 164.667 C 253.629 167.417,255.438 171.917,256.534 174.667 C 257.629 177.417,259.632 182.217,260.986 185.333 C 262.339 188.450,264.069 192.800,264.830 195.000 C 265.591 197.200,266.612 199.616,267.098 200.369 C 267.584 201.122,268.555 203.372,269.255 205.369 C 270.549 209.059,272.800 214.713,275.612 221.333 C 277.760 226.393,279.783 231.392,285.867 246.667 C 286.962 249.417,288.965 254.217,290.317 257.333 C 291.669 260.450,293.496 265.064,294.377 267.586 C 295.258 270.108,296.285 272.540,296.660 272.991 C 297.034 273.443,297.902 275.444,298.588 277.438 C 302.167 287.839,306.333 290.891,311.060 286.574 C 312.755 285.026,315.091 279.920,320.321 266.333 C 323.020 259.324,325.335 253.745,326.686 251.000 C 327.408 249.533,328.420 247.133,328.935 245.667 C 330.180 242.124,332.951 235.354,335.371 229.947 C 336.450 227.534,337.333 225.197,337.333 224.754 C 337.333 224.310,337.935 222.767,338.671 221.324 C 339.407 219.881,340.727 216.818,341.604 214.517 C 343.633 209.193,346.479 202.246,347.689 199.667 C 348.205 198.567,349.413 195.717,350.374 193.333 C 352.844 187.206,355.682 180.130,357.928 174.500 C 361.444 165.685,362.810 162.363,364.168 159.333 C 364.907 157.683,365.903 154.878,366.380 153.100 C 367.665 148.313,370.873 145.637,372.389 148.089 C 372.646 148.505,372.794 179.184,372.717 216.264 C 372.628 259.689,372.815 284.303,373.242 285.426 C 374.835 289.617,391.160 290.061,393.347 285.974 C 394.784 283.290,394.177 114.177,392.726 112.726 C 391.053 111.053,385.392 110.465,373.862 110.766 C 362.505 111.062,362.769 110.841,357.655 124.333 C 355.263 130.645,352.738 136.768,351.333 139.667 C 349.884 142.656,347.200 149.277,345.364 154.391 C 344.694 156.257,343.665 158.714,343.077 159.852 C 342.488 160.990,341.286 163.814,340.406 166.127 C 337.129 174.738,331.823 187.709,329.941 191.710 C 329.240 193.201,328.667 194.677,328.667 194.991 C 328.667 195.304,327.783 197.534,326.704 199.947 C 324.569 204.717,322.093 210.728,319.679 217.000 C 317.362 223.019,314.752 229.348,313.356 232.333 C 312.671 233.800,311.756 236.350,311.323 238.000 C 309.470 245.065,305.354 244.711,302.726 237.262 C 300.511 230.985,298.026 224.651,297.000 222.667 C 296.454 221.610,295.286 218.853,294.406 216.540 C 292.867 212.495,290.775 207.237,287.031 198.000 C 286.065 195.617,284.869 192.917,284.373 192.000 C 283.877 191.083,282.991 188.707,282.404 186.720 C 281.818 184.732,280.863 182.381,280.282 181.495 C 279.702 180.609,278.682 178.336,278.016 176.442 C 276.774 172.913,274.477 167.155,271.722 160.667 C 269.089 154.465,264.740 143.654,261.451 135.135 C 260.348 132.277,259.159 129.577,258.811 129.135 C 258.462 128.694,257.653 126.683,257.013 124.667 C 256.373 122.650,255.478 120.400,255.026 119.667 C 254.573 118.933,253.845 117.245,253.409 115.914 C 251.880 111.248,251.199 111.014,238.765 110.883 C 232.661 110.819,226.491 111.004,225.054 111.296 " stroke="none" fill="#000000" fill-rule="evenodd"></path></g></svg>