<svg id="svg" version="1.1" width="400" height="400" xmlns="http://www.w3.org/2000/svg" xmlns:xlink="http://www.w3.org/1999/xlink" style="display: block;"><g id="svgg"><path id="path0" d="M121.000 35.893 C 121.000 36.502,120.196 37.000,119.212 37.000 C 114.306 37.000,111.211 42.012,110.256 51.500 C 109.260 61.397,109.613 62.247,115.249 63.532 C 117.769 64.106,117.954 64.465,117.468 67.829 C 115.747 79.749,112.007 116.433,111.996 121.500 C 111.977 130.230,109.221 152.245,108.057 152.965 C 107.510 153.303,100.410 154.631,92.281 155.915 C 84.151 157.199,76.985 158.386,76.357 158.552 C 75.728 158.719,74.911 161.700,74.542 165.178 C 74.172 168.655,73.218 176.225,72.420 182.000 C 69.360 204.152,68.890 211.576,68.325 246.633 C 67.941 270.469,68.143 287.826,68.917 297.633 C 70.476 317.376,75.483 354.589,76.873 356.758 C 77.550 357.815,117.564 363.000,125.042 363.000 C 127.540 363.000,134.904 363.698,141.407 364.551 C 155.628 366.416,154.352 367.696,151.980 353.940 C 150.894 347.648,149.547 336.425,148.986 329.000 C 148.425 321.575,147.516 310.775,146.968 305.000 C 146.419 299.225,145.698 283.700,145.365 270.500 L 144.759 246.500 151.564 254.000 C 164.127 267.848,167.831 271.129,194.996 292.468 C 200.745 296.984,200.560 297.010,209.734 290.428 C 226.310 278.535,234.525 271.090,254.540 249.824 L 258.000 246.147 257.994 252.824 C 257.985 263.768,256.063 301.748,254.974 312.500 C 253.568 326.386,251.120 347.983,249.892 357.348 C 248.627 366.987,247.128 366.173,263.039 364.478 C 270.443 363.689,285.725 362.088,297.000 360.920 C 308.275 359.753,319.270 358.503,321.434 358.142 L 325.368 357.487 326.688 349.994 C 336.756 292.827,337.619 225.658,328.949 174.000 C 326.229 157.794,326.295 157.996,323.731 158.029 C 322.504 158.045,314.445 156.823,305.821 155.315 L 290.142 152.572 289.589 149.536 C 289.285 147.866,288.570 133.675,288.000 118.000 C 287.430 102.325,286.786 88.375,286.569 87.000 C 286.352 85.625,285.873 79.878,285.505 74.230 L 284.837 63.960 289.464 61.913 C 292.858 60.412,293.966 59.417,293.618 58.183 C 293.357 57.257,292.849 53.350,292.490 49.500 C 291.105 34.676,282.893 32.156,264.885 41.031 C 261.373 42.762,255.764 45.230,252.420 46.516 C 246.642 48.739,240.706 51.464,234.846 54.586 C 233.386 55.364,231.648 56.000,230.983 56.000 C 230.319 56.000,225.730 58.025,220.786 60.500 C 215.842 62.975,211.108 65.000,210.266 65.000 C 209.425 65.000,207.172 65.966,205.261 67.147 L 201.787 69.295 197.367 67.147 C 194.936 65.966,192.396 64.993,191.723 64.985 C 191.050 64.977,186.495 62.952,181.600 60.485 C 176.706 58.018,172.120 56.000,171.411 56.000 C 170.701 56.000,165.931 54.035,160.810 51.634 C 155.690 49.233,150.375 46.924,149.000 46.503 C 147.625 46.082,142.450 43.823,137.500 41.484 C 132.550 39.144,127.600 37.004,126.500 36.728 C 125.400 36.452,123.713 35.903,122.750 35.506 C 121.703 35.076,121.000 35.231,121.000 35.893 M131.799 69.400 C 136.364 71.251,140.377 73.043,140.716 73.383 C 141.056 73.722,142.297 74.000,143.476 74.000 C 144.654 74.000,150.624 76.161,156.743 78.802 L 167.869 83.605 160.184 87.268 C 155.958 89.283,150.700 91.641,148.500 92.508 C 146.300 93.375,142.426 95.078,139.892 96.292 L 135.284 98.500 134.686 105.417 C 133.967 113.738,133.730 113.288,139.687 114.936 C 144.321 116.218,149.087 122.168,149.017 126.585 C 149.008 127.181,150.508 130.781,152.352 134.585 C 154.196 138.388,156.284 143.300,156.992 145.500 C 157.701 147.700,159.339 151.716,160.634 154.423 C 163.432 160.278,163.132 161.279,159.867 156.988 C 158.565 155.276,156.100 152.247,154.389 150.255 L 151.277 146.635 142.389 147.865 C 125.319 150.228,120.476 150.948,117.101 151.626 L 113.701 152.310 114.387 146.905 C 114.765 143.932,115.271 139.700,115.512 137.500 C 115.753 135.300,116.863 125.400,117.979 115.500 C 119.616 100.971,121.913 73.298,121.985 67.250 C 122.006 65.510,122.449 65.607,131.799 69.400 M280.649 84.081 C 281.280 93.662,282.084 106.675,282.435 113.000 C 282.786 119.325,283.258 126.525,283.485 129.000 C 283.711 131.475,284.185 137.438,284.538 142.250 C 285.271 152.244,286.051 151.593,275.193 150.048 C 247.672 146.131,250.883 145.662,244.246 154.570 C 240.486 159.618,241.594 154.803,246.500 144.783 C 248.975 139.727,251.000 134.867,251.000 133.982 C 251.000 128.409,259.523 115.684,264.250 114.200 L 269.000 112.709 268.986 107.604 C 268.965 99.496,268.256 98.128,262.680 95.438 C 259.900 94.097,257.102 93.000,256.462 93.000 C 255.823 93.000,251.294 90.982,246.400 88.515 C 241.505 86.048,236.375 83.987,235.000 83.936 C 232.614 83.846,232.636 83.795,235.500 82.810 C 237.150 82.242,242.550 80.095,247.500 78.038 C 252.450 75.982,258.300 73.722,260.500 73.015 C 262.700 72.309,266.300 70.953,268.500 70.002 C 280.328 64.891,279.305 63.706,280.649 84.081 M218.596 102.000 C 219.240 102.000,224.020 103.770,229.218 105.933 C 234.416 108.097,241.709 110.849,245.424 112.049 L 252.179 114.231 251.514 117.778 C 251.148 119.729,248.858 125.754,246.424 131.169 C 243.991 136.583,242.000 141.481,242.000 142.054 C 242.000 142.627,239.975 147.401,237.500 152.662 C 235.025 157.923,233.000 162.613,233.000 163.084 C 233.000 166.196,226.845 175.849,219.982 183.500 C 210.738 193.805,206.880 198.263,203.569 202.465 L 201.233 205.430 198.367 202.000 C 196.790 200.113,190.887 193.287,185.250 186.830 C 179.613 180.373,175.000 174.854,175.000 174.564 C 175.000 174.275,173.268 170.317,171.150 165.769 C 169.033 161.221,166.988 156.218,166.606 154.650 C 166.224 153.083,164.132 148.196,161.956 143.790 C 159.780 139.384,158.000 135.198,158.000 134.489 C 158.000 133.780,156.185 129.252,153.967 124.429 C 149.425 114.550,149.304 114.912,158.000 112.381 C 163.594 110.753,165.261 110.100,175.000 105.725 C 178.025 104.366,183.650 102.275,187.500 101.080 C 191.350 99.884,196.028 98.094,197.896 97.102 C 201.288 95.300,201.301 95.301,209.358 98.649 C 213.795 100.492,217.952 102.000,218.596 102.000 M109.494 193.507 C 104.727 233.753,105.839 307.746,111.549 330.337 C 112.192 332.880,112.032 333.139,110.009 332.837 C 107.921 332.525,107.736 331.939,107.529 325.000 C 107.406 320.875,106.689 311.425,105.936 304.000 C 102.582 270.960,105.763 176.363,110.082 180.682 C 110.540 181.140,110.275 186.911,109.494 193.507 M292.931 185.250 C 298.618 213.075,299.414 279.746,294.503 316.976 C 293.729 322.846,293.330 328.547,293.617 329.644 C 294.414 332.692,291.387 334.815,289.267 332.695 C 287.756 331.185,287.760 330.923,289.319 329.200 C 296.453 321.317,297.897 229.381,291.513 189.500 C 290.362 182.311,290.356 180.000,291.488 180.000 C 291.692 180.000,292.341 182.363,292.931 185.250 M244.417 211.856 C 237.771 218.260,226.207 229.299,218.718 236.386 C 211.110 243.588,204.970 250.205,204.802 251.386 C 204.209 255.537,200.543 254.507,196.551 249.069 C 194.517 246.298,191.639 243.167,190.156 242.111 C 188.674 241.055,184.255 237.111,180.338 233.346 C 172.764 226.066,164.559 218.367,153.684 208.334 C 150.008 204.943,147.000 201.668,147.000 201.056 C 147.000 199.999,148.404 201.168,158.341 210.500 C 160.683 212.700,167.009 218.550,172.398 223.500 C 177.788 228.450,184.740 234.921,187.849 237.881 C 197.773 247.329,198.443 247.823,201.290 247.786 C 204.457 247.745,206.756 245.948,218.931 234.000 C 237.586 215.692,255.453 199.121,255.964 199.653 C 256.259 199.961,251.063 205.452,244.417 211.856 " stroke="none" fill="#000000" fill-rule="evenodd"></path></g></svg>