<svg id="svg" version="1.1" width="400" height="400" xmlns="http://www.w3.org/2000/svg" xmlns:xlink="http://www.w3.org/1999/xlink" style="display: block;"><g id="svgg"><path id="path0" d="M373.500 57.000 C 373.160 57.550,370.996 58.007,368.691 58.015 C 365.713 58.026,364.926 58.300,365.972 58.962 C 368.328 60.452,364.802 61.328,358.708 60.767 C 355.844 60.503,354.063 60.485,354.750 60.727 C 355.438 60.969,356.000 61.579,356.000 62.083 C 356.000 63.541,341.269 63.223,340.593 61.750 C 340.277 61.063,340.246 61.438,340.524 62.583 C 340.999 64.543,340.700 64.640,335.515 64.210 C 330.858 63.823,330.000 64.011,330.000 65.414 C 330.000 66.772,329.223 66.994,325.750 66.631 C 323.413 66.386,322.063 66.406,322.750 66.676 C 325.232 67.650,323.925 69.000,320.500 69.000 C 318.575 69.000,317.000 69.450,317.000 70.000 C 317.000 70.550,316.325 71.000,315.500 71.000 C 314.675 71.000,314.000 71.724,314.000 72.608 C 314.000 73.834,313.346 74.082,311.250 73.648 C 309.738 73.335,309.063 73.324,309.750 73.623 C 311.819 74.523,311.179 75.533,307.750 76.783 C 305.962 77.435,303.600 79.324,302.500 80.981 C 301.400 82.638,300.014 83.996,299.419 83.997 C 298.824 83.999,297.736 85.125,297.000 86.500 C 296.264 87.875,295.288 89.000,294.831 89.000 C 294.374 89.000,294.000 89.675,294.000 90.500 C 294.000 91.325,293.325 92.000,292.500 92.000 C 291.675 92.000,291.000 92.492,291.000 93.092 C 291.000 93.693,290.106 95.321,289.014 96.710 C 287.921 98.099,287.242 99.583,287.505 100.008 C 287.768 100.433,286.862 101.516,285.491 102.414 C 284.121 103.312,283.000 104.743,283.000 105.594 C 283.000 108.193,280.010 110.627,278.925 108.912 C 278.307 107.937,278.026 108.669,278.015 111.281 C 278.005 113.709,277.463 115.269,276.500 115.638 C 275.675 115.955,275.000 117.339,275.000 118.714 C 275.000 120.525,274.587 121.055,273.500 120.638 C 272.530 120.266,271.989 120.670,271.968 121.781 C 271.927 123.991,269.391 127.359,268.283 126.675 C 267.815 126.386,267.448 127.353,267.466 128.825 C 267.490 130.694,267.048 131.400,266.000 131.167 C 265.175 130.983,264.838 131.172,265.252 131.586 C 265.666 131.999,265.259 133.162,264.347 134.169 C 263.436 135.176,263.055 136.000,263.500 136.000 C 263.945 136.000,263.505 136.889,262.521 137.976 C 261.538 139.063,260.332 139.705,259.842 139.402 C 259.351 139.099,259.015 139.222,259.094 139.676 C 259.552 142.315,258.867 143.886,257.489 143.357 C 256.407 142.942,256.153 143.236,256.595 144.388 C 257.378 146.427,251.650 151.968,248.644 152.079 C 247.465 152.122,247.063 152.385,247.750 152.662 C 249.910 153.534,249.112 156.602,246.342 158.081 C 244.879 158.861,242.357 160.738,240.736 162.250 C 239.115 163.762,236.725 165.000,235.426 165.000 C 233.736 165.000,233.227 165.427,233.638 166.500 C 234.003 167.450,233.625 168.000,232.607 168.000 C 231.723 168.000,231.000 168.398,231.000 168.883 C 231.000 169.867,227.199 171.303,225.237 171.062 C 224.542 170.976,223.706 171.602,223.380 172.453 C 223.033 173.356,221.581 174.000,219.893 174.000 C 218.302 174.000,217.000 174.450,217.000 175.000 C 217.000 175.550,215.425 176.000,213.500 176.000 C 211.575 176.000,210.000 176.450,210.000 177.000 C 210.000 177.550,208.650 178.000,207.000 178.000 C 205.000 178.000,204.000 178.500,204.000 179.500 C 204.000 180.570,202.911 181.000,200.200 181.000 C 198.110 181.000,195.933 181.467,195.363 182.037 C 194.792 182.608,190.441 183.348,185.694 183.684 C 180.947 184.019,177.300 184.677,177.590 185.146 C 177.881 185.616,176.539 186.000,174.609 186.000 C 172.420 186.000,170.760 186.607,170.197 187.612 C 169.521 188.820,168.161 189.134,164.774 188.862 C 161.459 188.597,160.382 188.833,160.734 189.750 C 161.075 190.639,159.882 191.000,156.607 191.000 C 153.371 191.000,152.000 191.408,152.000 192.371 C 152.000 193.261,150.246 193.975,147.000 194.406 C 144.250 194.770,142.000 195.503,142.000 196.034 C 142.000 196.565,140.650 197.000,139.000 197.000 C 137.350 197.000,136.000 197.450,136.000 198.000 C 136.000 198.550,134.313 199.036,132.250 199.079 C 130.188 199.122,129.063 199.385,129.750 199.662 C 131.988 200.565,131.066 202.246,128.591 201.773 C 126.866 201.443,126.329 201.694,126.698 202.656 C 126.998 203.438,126.542 204.000,125.607 204.000 C 124.723 204.000,124.000 204.450,124.000 205.000 C 124.000 205.550,123.373 206.000,122.607 206.000 C 121.841 206.000,120.957 206.670,120.643 207.489 C 120.197 208.651,119.503 208.761,117.479 207.992 C 115.700 207.316,115.088 207.333,115.529 208.047 C 116.431 209.506,114.128 212.000,111.878 212.000 C 110.839 212.000,110.000 212.701,110.000 213.567 C 110.000 214.657,109.416 214.949,108.084 214.527 C 107.030 214.192,105.882 214.382,105.532 214.948 C 105.154 215.560,105.525 215.736,106.448 215.382 C 107.302 215.054,108.000 215.284,108.000 215.893 C 108.000 216.502,107.490 217.000,106.867 217.000 C 106.244 217.000,104.906 217.956,103.893 219.123 C 102.707 220.490,101.329 221.058,100.024 220.717 C 98.909 220.425,98.252 220.598,98.562 221.101 C 99.184 222.106,96.696 225.000,95.210 225.000 C 94.697 225.000,94.492 226.125,94.755 227.500 C 95.078 229.187,94.786 230.000,93.857 230.000 C 93.100 230.000,91.896 230.938,91.180 232.084 C 90.464 233.230,89.330 233.957,88.659 233.699 C 87.886 233.403,87.450 234.195,87.470 235.866 C 87.487 237.408,86.997 238.401,86.286 238.262 C 85.584 238.124,85.313 238.652,85.643 239.512 C 85.957 240.330,85.768 241.000,85.224 241.000 C 84.679 241.000,83.986 241.945,83.684 243.101 C 83.382 244.256,82.659 244.908,82.079 244.549 C 81.414 244.138,81.268 244.535,81.685 245.622 C 82.198 246.959,81.959 247.198,80.622 246.685 C 79.673 246.321,79.149 246.431,79.457 246.931 C 79.766 247.430,79.388 248.469,78.617 249.240 C 77.846 250.011,77.038 251.510,76.822 252.571 C 76.525 254.023,75.651 254.466,73.288 254.361 C 70.843 254.252,70.278 254.561,70.738 255.758 C 71.205 256.976,70.761 257.187,68.606 256.775 C 66.574 256.387,66.017 256.603,66.411 257.628 C 66.821 258.696,65.621 259.000,61.000 259.000 C 56.247 259.000,55.173 259.287,55.615 260.438 C 56.170 261.884,54.291 262.067,26.739 263.252 C 22.614 263.430,21.114 263.855,21.458 264.750 C 21.741 265.489,21.133 266.000,19.969 266.000 C 18.886 266.000,18.000 266.499,18.000 267.109 C 18.000 267.788,16.642 268.060,14.500 267.810 C 12.477 267.574,10.985 267.844,10.964 268.451 C 10.877 271.003,5.999 275.542,5.002 274.000 C 4.299 272.914,4.026 273.811,4.015 277.250 C 4.003 280.952,4.354 282.000,5.607 282.000 C 6.542 282.000,6.998 282.562,6.698 283.344 C 6.329 284.306,6.866 284.557,8.591 284.227 C 10.219 283.916,11.000 284.226,11.000 285.183 C 11.000 286.226,11.985 286.488,14.750 286.179 L 18.500 285.760 16.076 288.380 C 14.742 289.821,13.055 291.000,12.326 291.000 C 11.597 291.000,11.000 291.723,11.000 292.607 C 11.000 293.491,10.438 293.998,9.750 293.734 C 8.908 293.411,8.500 294.315,8.500 296.500 C 8.500 298.685,8.908 299.589,9.750 299.266 C 10.506 298.975,11.000 299.618,11.000 300.893 C 11.000 302.474,11.624 303.000,13.500 303.000 C 14.875 303.000,16.000 303.450,16.000 304.000 C 16.000 304.550,17.745 305.000,19.878 305.000 C 22.104 305.000,24.285 305.639,25.000 306.500 C 26.802 308.671,42.000 308.671,42.000 306.500 C 42.000 305.321,43.389 305.000,48.500 305.000 C 52.167 305.000,55.000 304.564,55.000 304.000 C 55.000 303.450,56.800 303.000,59.000 303.000 C 61.200 303.000,63.000 302.595,63.000 302.100 C 63.000 301.604,64.575 301.345,66.500 301.524 C 68.707 301.729,70.000 301.414,70.000 300.669 C 70.000 298.871,75.632 296.748,78.221 297.570 C 80.234 298.209,80.334 298.107,79.120 296.644 C 77.918 295.197,78.041 295.000,80.140 295.000 C 81.655 295.000,82.886 294.179,83.513 292.750 C 84.056 291.512,85.512 290.356,86.750 290.180 C 87.987 290.005,89.000 289.394,89.000 288.823 C 89.000 288.253,89.652 288.036,90.449 288.342 C 91.462 288.731,91.714 288.418,91.285 287.301 C 90.795 286.025,91.197 285.805,93.287 286.204 C 94.725 286.479,95.852 286.433,95.792 286.102 C 95.496 284.476,97.413 282.000,98.967 282.000 C 99.931 282.000,101.533 280.918,102.526 279.595 C 103.519 278.272,104.887 277.403,105.565 277.663 C 106.243 277.923,107.095 277.656,107.458 277.068 C 107.821 276.481,108.954 276.000,109.976 276.000 C 110.997 276.000,111.983 275.574,112.167 275.054 C 112.350 274.533,114.592 274.001,117.149 273.872 C 120.522 273.701,121.659 273.275,121.292 272.318 C 120.918 271.345,121.991 271.000,125.393 271.000 C 127.927 271.000,130.000 270.550,130.000 270.000 C 130.000 269.371,136.500 269.000,147.500 269.000 C 158.500 269.000,165.000 269.371,165.000 270.000 C 165.000 270.592,168.639 271.000,173.917 271.000 C 179.992 271.000,182.962 271.385,183.236 272.207 C 183.485 272.955,186.466 273.564,191.069 273.808 C 195.156 274.025,198.928 274.607,199.450 275.101 C 199.972 275.596,203.492 276.000,207.271 276.000 C 213.869 276.000,216.767 277.113,216.389 279.500 C 215.896 282.619,214.594 285.000,213.383 285.000 C 212.623 285.000,212.000 285.932,212.000 287.071 C 212.000 289.417,209.460 292.402,208.152 291.594 C 207.677 291.301,207.495 292.139,207.747 293.458 C 208.068 295.137,207.576 296.248,206.103 297.168 C 204.946 297.890,204.000 299.048,204.000 299.741 C 204.000 300.433,203.602 301.000,203.117 301.000 C 202.631 301.000,201.986 301.945,201.684 303.101 C 201.381 304.257,200.655 304.905,200.067 304.542 C 199.480 304.179,199.000 304.569,199.000 305.410 C 199.000 306.250,198.438 306.721,197.750 306.458 C 196.847 306.111,196.500 307.445,196.500 311.258 L 196.500 316.537 203.500 316.148 C 207.350 315.935,210.725 315.416,211.000 314.995 C 211.510 314.215,218.595 313.065,225.123 312.702 C 227.554 312.566,228.588 312.089,228.266 311.250 C 227.938 310.396,228.902 310.000,231.310 310.000 C 233.248 310.000,234.983 309.564,235.167 309.032 C 235.350 308.499,236.913 307.957,238.640 307.827 C 240.912 307.657,241.627 307.192,241.226 306.148 C 240.807 305.054,241.295 304.823,243.245 305.196 C 245.235 305.576,245.687 305.348,245.241 304.185 C 244.770 302.958,245.291 302.803,248.082 303.340 C 250.161 303.740,250.969 303.655,250.143 303.124 C 249.197 302.514,249.121 302.043,249.893 301.566 C 250.502 301.190,251.000 301.203,251.000 301.596 C 251.000 301.989,251.824 301.564,252.831 300.653 C 253.838 299.741,255.001 299.334,255.414 299.748 C 255.828 300.162,256.017 299.993,255.833 299.374 C 255.372 297.816,261.264 291.291,261.767 292.802 C 261.987 293.461,262.609 294.000,263.151 294.000 C 263.692 294.000,263.849 293.100,263.500 292.000 C 262.431 288.631,263.853 285.841,266.331 286.449 C 267.524 286.742,267.938 286.723,267.250 286.407 C 265.486 285.597,265.690 282.000,267.500 282.000 C 268.325 282.000,269.000 281.325,269.000 280.500 C 269.000 278.943,270.519 278.438,271.253 279.750 C 271.483 280.162,271.532 279.930,271.361 279.233 C 270.860 277.194,274.227 274.007,276.972 273.921 C 278.363 273.878,278.938 273.615,278.250 273.338 C 277.563 273.060,277.000 272.373,277.000 271.810 C 277.000 271.247,277.652 271.036,278.449 271.342 C 279.418 271.714,279.714 271.418,279.342 270.449 C 278.599 268.512,281.686 268.543,283.635 270.492 C 284.456 271.313,284.800 272.515,284.400 273.162 C 283.905 273.963,284.217 274.131,285.374 273.687 C 286.399 273.293,287.287 273.584,287.607 274.418 C 287.899 275.180,289.052 276.042,290.170 276.334 C 291.399 276.656,291.916 277.326,291.480 278.032 C 290.963 278.869,291.416 278.848,293.082 277.956 C 294.791 277.041,295.505 277.015,295.786 277.857 C 295.995 278.485,297.929 279.000,300.083 279.000 C 302.898 279.000,304.000 279.422,304.000 280.500 C 304.000 281.700,305.500 282.000,311.500 282.000 C 317.500 282.000,319.000 281.700,319.000 280.500 C 319.000 279.367,320.222 279.000,324.000 279.000 C 326.750 279.000,329.000 278.564,329.000 278.031 C 329.000 277.499,329.675 277.322,330.500 277.638 C 331.325 277.955,332.000 277.716,332.000 277.107 C 332.000 276.497,333.684 275.993,335.750 275.985 C 338.291 275.974,339.053 275.686,338.115 275.092 C 337.203 274.514,336.951 273.333,337.377 271.634 C 337.851 269.747,337.676 269.187,336.727 269.551 C 334.990 270.218,330.729 266.150,331.381 264.449 C 331.714 263.582,331.381 263.300,330.449 263.658 C 329.561 263.999,329.000 263.603,329.000 262.638 C 329.000 261.649,328.442 261.277,327.500 261.638 C 326.459 262.038,326.000 261.569,326.000 260.107 C 326.000 258.948,326.450 258.000,327.000 258.000 C 327.550 258.000,328.000 257.520,328.000 256.933 C 328.000 256.320,327.147 256.136,326.000 256.500 C 324.224 257.064,324.000 256.680,324.000 253.067 C 324.000 250.830,323.662 249.000,323.248 249.000 C 322.229 249.000,323.904 219.678,324.961 219.021 C 325.421 218.734,325.967 217.375,326.173 216.000 C 326.379 214.625,327.099 213.612,327.774 213.750 C 328.597 213.918,329.000 212.523,329.000 209.500 C 329.000 207.025,329.450 205.000,330.000 205.000 C 330.550 205.000,331.000 203.425,331.000 201.500 C 331.000 198.099,332.386 196.727,333.273 199.250 C 333.515 199.938,333.495 198.137,333.229 195.250 C 332.919 191.887,333.130 190.000,333.815 190.000 C 334.404 190.000,335.023 188.088,335.193 185.750 C 335.451 182.179,335.819 181.535,337.500 181.721 C 338.600 181.842,338.938 181.692,338.250 181.388 C 336.759 180.727,336.527 172.000,338.000 172.000 C 338.550 172.000,339.000 169.702,339.000 166.893 C 339.000 162.764,339.287 161.896,340.500 162.362 C 341.721 162.830,342.000 161.919,342.000 157.469 C 342.000 154.461,342.450 152.000,343.000 152.000 C 343.550 152.000,344.000 150.002,344.000 147.559 C 344.000 143.239,345.348 140.712,346.303 143.244 C 346.563 143.935,346.547 142.625,346.268 140.333 C 345.691 135.613,347.783 129.703,349.762 130.462 C 350.664 130.808,350.845 130.231,350.396 128.440 C 349.749 125.864,354.329 120.467,356.188 121.616 C 356.634 121.892,357.000 121.019,357.000 119.676 C 357.000 117.303,359.666 115.562,362.734 115.932 C 363.445 116.017,363.723 115.442,363.390 114.575 C 363.026 113.625,364.512 111.394,367.412 108.534 C 372.065 103.947,374.419 102.972,375.338 105.250 C 375.615 105.938,375.878 105.487,375.921 104.250 C 375.964 103.013,376.450 102.000,377.000 102.000 C 377.550 102.000,378.000 101.377,378.000 100.615 C 378.000 98.935,382.248 96.006,384.715 95.985 C 386.233 95.972,386.276 95.824,385.000 95.000 C 383.694 94.156,384.205 93.615,386.102 93.832 C 386.433 93.870,386.493 92.798,386.235 91.451 C 385.894 89.667,386.207 89.000,387.383 89.000 C 388.273 89.000,389.000 88.325,389.000 87.500 C 389.000 86.675,389.420 86.000,389.934 86.000 C 390.447 86.000,391.010 84.763,391.184 83.250 C 391.358 81.737,391.950 80.575,392.500 80.667 C 393.118 80.770,393.500 76.504,393.500 69.512 C 393.500 63.286,393.159 58.402,392.743 58.659 C 392.327 58.916,391.716 58.423,391.386 57.563 C 390.687 55.742,374.591 55.235,373.500 57.000 M359.106 77.901 C 357.398 79.497,356.000 81.522,356.000 82.401 C 356.000 83.281,355.298 84.000,354.441 84.000 C 353.505 84.000,353.171 84.468,353.605 85.170 C 354.091 85.957,353.783 86.131,352.664 85.701 C 351.342 85.194,351.000 85.673,351.000 88.031 C 351.000 89.664,350.597 91.000,350.105 91.000 C 349.613 91.000,349.047 92.706,348.849 94.791 C 348.497 98.474,348.570 98.570,351.403 98.154 C 353.669 97.822,354.192 98.056,353.751 99.207 C 353.321 100.327,353.770 100.576,355.591 100.227 C 356.916 99.974,358.000 99.379,358.000 98.905 C 358.000 98.431,359.121 98.554,360.492 99.178 C 364.183 100.860,361.793 103.390,357.215 102.647 C 354.346 102.182,354.019 102.318,355.041 103.550 C 356.007 104.713,355.930 105.000,354.654 105.000 C 353.577 105.000,353.270 105.541,353.705 106.674 C 354.192 107.942,353.942 108.192,352.674 107.705 C 351.618 107.300,351.000 107.561,351.000 108.414 C 351.000 110.110,343.199 118.000,341.521 118.000 C 340.734 118.000,340.453 118.917,340.755 120.500 C 341.106 122.333,340.802 123.000,339.617 123.000 C 338.487 123.000,338.000 123.904,338.000 126.000 C 338.000 127.650,337.588 129.000,337.085 129.000 C 336.582 129.000,335.854 132.375,335.468 136.500 C 334.907 142.484,334.435 144.000,333.133 143.999 C 331.779 143.998,331.558 144.936,331.843 149.499 C 332.062 153.019,331.792 155.000,331.093 155.000 C 330.480 155.000,330.000 156.804,330.000 159.107 C 330.000 161.982,329.625 163.070,328.750 162.733 C 327.825 162.377,327.593 163.558,327.856 167.274 C 328.159 171.542,327.974 172.204,326.618 171.684 C 325.742 171.347,325.072 171.393,325.130 171.786 C 325.638 175.193,324.832 181.283,324.039 180.029 C 322.545 177.667,322.162 179.151,322.949 184.250 C 323.353 186.863,323.304 189.000,322.841 189.000 C 322.379 189.000,322.000 190.364,322.000 192.031 C 322.000 193.803,321.377 195.302,320.500 195.638 C 319.645 195.966,319.000 197.458,319.000 199.107 C 319.000 200.698,318.550 202.000,318.000 202.000 C 317.450 202.000,317.000 203.575,317.000 205.500 C 317.000 207.425,316.602 209.000,316.117 209.000 C 315.631 209.000,314.986 209.945,314.684 211.101 C 314.373 212.290,313.661 212.908,313.043 212.526 C 312.442 212.155,312.051 212.222,312.174 212.676 C 313.149 216.278,310.726 223.050,308.682 222.433 C 306.903 221.897,306.731 222.018,307.750 223.088 C 309.200 224.610,309.430 228.000,308.083 228.000 C 307.579 228.000,306.940 227.437,306.662 226.750 C 306.385 226.063,306.122 226.512,306.079 227.750 C 306.036 228.988,305.550 230.000,305.000 230.000 C 304.450 230.000,304.000 230.845,304.000 231.878 C 304.000 234.130,301.506 236.431,300.044 235.527 C 298.749 234.727,298.716 236.002,299.979 238.000 C 300.993 239.603,295.425 245.381,293.822 244.390 C 293.382 244.118,293.321 244.673,293.685 245.622 C 294.215 247.001,293.968 247.202,292.454 246.621 C 291.413 246.221,290.886 246.219,291.283 246.616 C 292.246 247.579,289.079 251.000,287.225 251.000 C 286.046 251.000,285.848 249.779,286.211 244.756 C 286.460 241.321,286.476 239.071,286.248 239.756 C 285.520 241.940,284.000 241.091,284.000 238.500 C 284.000 236.250,283.600 236.000,280.000 236.000 C 276.242 236.000,276.000 236.178,276.000 238.935 C 276.000 243.135,274.308 247.055,272.753 246.459 C 271.771 246.082,271.539 246.963,271.827 249.978 C 272.065 252.479,271.792 254.000,271.105 254.000 C 270.497 254.000,270.000 254.675,270.000 255.500 C 270.000 256.325,269.387 257.000,268.639 257.000 C 267.703 257.000,267.437 257.834,267.787 259.664 C 268.206 261.860,267.998 262.213,266.596 261.675 C 265.661 261.316,265.140 261.417,265.437 261.898 C 265.735 262.380,265.287 263.346,264.443 264.047 C 263.600 264.747,263.128 265.890,263.395 266.587 C 264.001 268.167,261.456 270.400,260.044 269.527 C 259.404 269.132,258.969 270.162,258.921 272.191 C 258.878 274.011,258.615 274.938,258.338 274.250 C 257.544 272.282,255.799 272.792,256.438 274.805 C 257.298 277.513,251.371 283.253,248.617 282.378 C 246.759 281.789,246.674 281.902,247.880 283.356 C 249.051 284.767,249.014 285.000,247.622 285.000 C 246.730 285.000,246.053 285.337,246.118 285.750 C 246.430 287.725,245.872 288.349,245.000 287.000 C 244.172 285.718,244.028 285.754,244.015 287.250 C 244.007 288.212,243.373 289.000,242.607 289.000 C 241.841 289.000,240.958 289.667,240.645 290.483 C 240.319 291.333,239.414 291.712,238.527 291.372 C 237.367 290.927,237.147 291.220,237.652 292.537 C 238.213 293.997,237.891 294.212,235.755 293.804 C 233.882 293.446,233.323 293.678,233.698 294.656 C 234.029 295.519,233.460 296.000,232.107 296.000 C 230.948 296.000,230.000 296.450,230.000 297.000 C 230.000 297.550,228.875 298.000,227.500 298.000 C 225.944 298.000,225.000 298.567,225.000 299.500 C 225.000 300.420,224.065 301.000,222.582 301.000 C 221.252 301.000,219.564 301.151,218.832 301.336 C 218.099 301.521,217.838 301.483,218.250 301.253 C 218.662 301.022,219.000 299.971,219.000 298.917 C 219.000 297.863,219.675 297.000,220.500 297.000 C 221.325 297.000,222.000 296.550,222.000 296.000 C 222.000 295.450,222.613 295.000,223.361 295.000 C 224.274 295.000,224.565 294.176,224.245 292.500 C 223.966 291.041,224.232 290.000,224.883 290.000 C 225.498 290.000,226.000 289.155,226.000 288.122 C 226.000 286.003,228.463 283.550,229.775 284.361 C 230.250 284.654,230.443 283.568,230.206 281.947 C 229.968 280.326,230.222 279.000,230.770 279.000 C 231.318 279.000,232.014 278.055,232.316 276.899 C 232.619 275.743,233.345 275.095,233.933 275.458 C 234.612 275.878,235.000 274.836,235.000 272.590 C 235.000 270.103,235.384 269.210,236.303 269.563 C 237.265 269.932,237.498 269.139,237.193 266.531 C 236.900 264.019,237.173 263.001,238.141 263.002 C 239.173 263.003,239.419 261.561,239.161 257.002 C 238.956 253.359,239.224 251.000,239.845 251.000 C 240.450 251.000,240.996 246.995,241.184 241.172 L 241.500 231.343 237.264 231.126 C 233.625 230.940,233.121 231.152,233.688 232.628 C 234.192 233.944,233.954 234.196,232.674 233.705 C 231.387 233.211,231.000 233.634,231.000 235.531 C 231.000 237.101,230.432 238.000,229.441 238.000 C 228.584 238.000,228.131 238.403,228.436 238.897 C 229.763 241.044,227.759 249.058,226.032 248.510 C 224.644 248.070,224.421 248.511,224.785 250.987 C 225.051 252.798,224.783 254.000,224.113 254.000 C 223.501 254.000,223.000 254.675,223.000 255.500 C 223.000 256.325,222.387 257.000,221.639 257.000 C 220.703 257.000,220.437 257.834,220.787 259.664 C 221.200 261.824,220.987 262.209,219.660 261.700 C 218.657 261.315,218.116 261.542,218.262 262.286 C 218.436 263.173,215.173 263.576,206.131 263.782 C 196.394 264.004,193.867 263.791,194.256 262.782 C 194.643 261.780,192.594 261.569,184.875 261.816 C 176.443 262.087,175.000 261.904,175.000 260.566 C 175.000 259.206,172.765 259.000,158.000 259.000 C 147.333 259.000,141.000 258.627,141.000 258.000 C 141.000 257.450,139.875 257.000,138.500 257.000 C 137.125 257.000,136.000 257.450,136.000 258.000 C 136.000 258.578,132.833 259.000,128.500 259.000 C 122.500 259.000,121.000 259.300,121.000 260.500 C 121.000 262.378,114.442 262.599,113.593 260.750 C 113.277 260.063,113.270 260.512,113.577 261.750 C 114.020 263.538,113.710 264.000,112.067 264.000 C 110.930 264.000,110.000 264.407,110.000 264.905 C 110.000 265.403,108.246 265.641,106.101 265.434 C 102.630 265.100,102.259 265.275,102.718 267.031 C 103.130 268.604,102.604 269.129,100.117 269.627 C 98.403 269.969,97.000 270.644,97.000 271.125 C 97.000 271.606,95.875 272.000,94.500 272.000 C 92.816 272.000,91.974 272.571,91.921 273.750 C 91.874 274.795,91.639 274.997,91.338 274.250 C 90.497 272.167,88.818 272.852,89.500 275.000 C 89.995 276.560,89.680 277.000,88.067 277.000 C 86.930 277.000,86.000 277.388,86.000 277.861 C 86.000 278.335,84.869 278.506,83.486 278.242 C 81.458 277.854,81.094 278.083,81.608 279.421 C 82.076 280.642,81.418 281.393,79.123 282.260 C 77.405 282.908,76.000 283.790,76.000 284.219 C 76.000 284.649,74.875 285.000,73.500 285.000 C 71.944 285.000,71.000 285.567,71.000 286.500 C 71.000 288.018,67.520 288.632,66.747 287.250 C 66.517 286.837,66.488 287.123,66.684 287.884 C 66.962 288.964,66.112 289.144,62.822 288.703 C 60.218 288.354,59.147 288.473,60.023 289.014 C 61.993 290.232,61.041 290.867,56.819 291.152 C 54.180 291.329,53.360 291.773,53.757 292.810 C 54.189 293.935,53.347 294.149,49.650 293.855 C 46.386 293.596,45.000 293.860,45.000 294.743 C 45.000 295.685,42.179 295.971,33.750 295.884 C 27.563 295.820,23.288 295.562,24.250 295.311 C 25.212 295.059,26.000 294.163,26.000 293.318 C 26.000 292.190,26.647 291.946,28.439 292.395 C 29.780 292.732,31.153 292.561,31.491 292.015 C 31.844 291.444,31.445 291.276,30.552 291.618 C 28.586 292.373,28.557 291.300,30.492 289.365 C 31.313 288.544,32.433 288.150,32.981 288.488 C 33.578 288.857,33.712 288.412,33.315 287.378 C 32.808 286.056,33.044 285.803,34.326 286.295 C 35.737 286.836,36.000 286.236,36.000 282.469 L 36.000 278.000 28.750 277.930 C 21.627 277.861,14.100 276.230,20.167 276.070 C 21.633 276.032,22.983 275.575,23.167 275.056 C 23.350 274.537,26.313 274.013,29.750 273.892 C 34.317 273.731,36.000 273.297,36.000 272.280 C 36.000 271.148,38.397 270.946,48.875 271.194 C 58.346 271.419,61.631 271.193,61.302 270.339 C 60.733 268.862,73.777 268.033,74.493 269.500 C 74.762 270.050,74.730 269.488,74.423 268.250 C 73.980 266.462,74.290 266.000,75.933 266.000 C 77.070 266.000,78.000 265.657,78.000 265.237 C 78.000 264.818,78.976 264.030,80.168 263.487 C 81.361 262.944,82.823 261.619,83.418 260.542 C 84.969 257.735,86.692 256.000,87.929 256.000 C 88.518 256.000,89.000 255.502,89.000 254.893 C 89.000 254.284,89.576 254.007,90.280 254.277 C 91.125 254.602,91.551 253.872,91.530 252.134 C 91.510 250.344,92.221 249.184,93.750 248.513 C 94.987 247.970,96.015 246.620,96.033 245.513 C 96.076 242.926,99.423 238.894,101.162 239.334 C 101.898 239.520,102.210 239.499,101.856 239.288 C 100.724 238.613,102.181 235.000,103.585 235.000 C 104.376 235.000,104.698 234.378,104.362 233.500 C 103.786 231.999,105.461 231.335,106.253 232.750 C 106.483 233.162,106.537 232.942,106.371 232.260 C 105.888 230.269,111.009 225.769,113.128 226.323 C 114.158 226.593,115.000 226.373,115.000 225.835 C 115.000 223.917,118.094 221.791,120.115 222.320 C 121.557 222.697,122.005 222.456,121.638 221.500 C 120.916 219.618,123.578 217.656,125.996 218.289 C 127.100 218.577,127.749 218.402,127.438 217.900 C 127.127 217.397,127.689 216.675,128.687 216.296 C 129.684 215.917,131.353 214.528,132.395 213.211 C 133.878 211.336,135.020 210.900,137.645 211.207 C 139.931 211.474,141.000 211.184,141.000 210.299 C 141.000 209.585,141.689 209.000,142.531 209.000 C 143.374 209.000,144.319 208.333,144.631 207.518 C 145.063 206.392,145.659 206.282,147.114 207.061 C 148.556 207.833,148.963 207.766,148.764 206.793 C 148.587 205.925,149.691 205.500,152.124 205.500 C 154.830 205.500,155.610 205.143,155.206 204.091 C 154.782 202.989,155.352 202.820,157.832 203.316 C 160.885 203.927,162.312 202.696,159.750 201.662 C 158.696 201.237,166.055 200.548,168.214 200.870 C 168.607 200.928,168.671 200.306,168.357 199.488 C 167.624 197.578,174.944 197.375,176.912 199.250 C 177.982 200.268,178.105 200.104,177.580 198.361 C 176.958 196.296,177.309 196.198,187.896 195.507 C 196.667 194.934,198.750 194.512,198.321 193.395 C 197.934 192.386,198.646 192.000,200.893 192.000 C 202.602 192.000,204.000 191.550,204.000 191.000 C 204.000 190.450,205.575 190.000,207.500 190.000 C 209.425 190.000,211.000 189.550,211.000 189.000 C 211.000 188.450,212.350 188.000,214.000 188.000 C 216.000 188.000,217.000 187.500,217.000 186.500 C 217.000 184.691,220.624 184.482,221.338 186.250 C 221.615 186.938,221.878 186.468,221.921 185.206 C 221.964 183.945,222.563 182.998,223.250 183.102 C 226.527 183.601,232.827 181.712,232.317 180.384 C 231.969 179.476,232.508 179.000,233.885 179.000 C 235.039 179.000,236.545 178.100,237.232 177.000 C 237.919 175.900,239.498 175.000,240.741 175.000 C 241.986 175.000,243.000 174.386,243.000 173.631 C 243.000 172.836,244.496 172.019,246.565 171.683 C 248.665 171.342,250.925 170.094,252.064 168.646 C 253.377 166.976,254.721 166.321,256.249 166.604 C 257.487 166.834,257.938 166.755,257.250 166.428 C 255.434 165.564,255.713 163.676,257.552 164.382 C 258.510 164.749,258.850 164.566,258.440 163.902 C 257.518 162.412,263.933 156.018,266.446 155.921 C 267.576 155.878,267.938 155.615,267.250 155.338 C 266.563 155.060,266.000 153.923,266.000 152.810 C 266.000 151.422,266.471 150.967,267.500 151.362 C 268.414 151.712,269.000 151.363,269.000 150.469 C 269.000 149.661,269.450 149.000,270.000 149.000 C 270.550 149.000,271.000 148.325,271.000 147.500 C 271.000 146.675,271.450 146.000,272.000 146.000 C 272.550 146.000,273.000 145.424,273.000 144.721 C 273.000 144.017,273.900 142.793,275.000 142.000 C 276.100 141.207,277.000 139.533,277.000 138.279 C 277.000 137.026,277.450 136.000,278.000 136.000 C 278.550 136.000,279.000 135.052,279.000 133.893 C 279.000 132.400,279.452 131.959,280.552 132.382 C 281.448 132.725,281.844 132.556,281.489 131.981 C 281.150 131.434,281.577 130.716,282.437 130.386 C 283.296 130.056,284.000 128.709,284.000 127.393 C 284.000 126.077,284.450 125.000,285.000 125.000 C 285.550 125.000,286.000 124.052,286.000 122.893 C 286.000 121.464,286.466 120.965,287.449 121.342 C 288.392 121.704,288.714 121.418,288.370 120.522 C 287.990 119.532,288.496 119.269,290.171 119.584 C 291.452 119.825,291.938 119.755,291.250 119.428 C 289.417 118.556,289.625 114.642,291.466 115.349 C 292.612 115.788,292.809 115.295,292.368 113.089 C 291.884 110.671,292.176 110.173,294.402 109.614 C 296.058 109.198,297.000 108.274,297.000 107.063 C 297.000 104.100,298.081 102.000,299.607 102.000 C 300.373 102.000,301.000 101.325,301.000 100.500 C 301.000 99.675,301.450 99.000,302.000 99.000 C 302.550 99.000,303.000 98.325,303.000 97.500 C 303.000 96.675,303.702 96.000,304.559 96.000 C 305.416 96.000,305.873 95.603,305.573 95.118 C 304.518 93.411,314.226 84.810,316.678 85.279 C 317.922 85.517,318.689 85.306,318.384 84.812 C 317.554 83.469,319.976 81.000,322.122 81.000 C 323.155 81.000,324.000 80.325,324.000 79.500 C 324.000 77.554,328.647 77.504,330.571 79.429 C 332.654 81.511,332.326 82.296,329.591 81.773 C 327.866 81.443,327.329 81.694,327.698 82.656 C 327.998 83.438,327.542 84.000,326.607 84.000 C 325.560 84.000,325.000 84.870,325.000 86.500 C 325.000 87.875,324.550 89.000,324.000 89.000 C 323.450 89.000,323.000 90.575,323.000 92.500 C 323.000 95.605,323.294 96.000,325.607 96.000 C 327.282 96.000,328.042 96.447,327.734 97.250 C 327.397 98.129,328.515 98.500,331.500 98.500 C 334.485 98.500,335.603 98.129,335.266 97.250 C 334.937 96.392,335.918 96.000,338.393 96.000 C 340.790 96.000,342.000 95.538,342.000 94.622 C 342.000 92.605,344.979 90.347,345.826 91.722 C 346.197 92.323,346.500 89.772,346.500 86.054 L 346.500 79.293 339.560 79.088 C 335.743 78.976,332.256 78.658,331.810 78.383 C 329.940 77.227,331.233 76.429,334.382 76.796 C 336.242 77.014,338.068 76.698,338.441 76.096 C 338.868 75.404,343.374 75.000,350.665 75.000 L 362.212 75.000 359.106 77.901 M379.583 78.000 C 381.360 78.000,382.000 78.548,382.000 80.067 C 382.000 81.630,381.545 81.990,380.134 81.543 C 378.576 81.048,378.348 81.369,378.753 83.490 C 379.158 85.608,378.941 85.915,377.446 85.341 C 376.030 84.798,375.794 85.021,376.325 86.405 C 376.785 87.603,376.051 89.103,373.999 91.155 L 371.000 94.154 371.000 91.148 C 371.000 89.495,371.675 87.468,372.500 86.643 C 373.325 85.818,374.000 84.661,374.000 84.071 C 374.000 83.482,374.450 83.000,375.000 83.000 C 375.550 83.000,376.036 81.313,376.079 79.250 C 376.122 77.188,376.385 76.063,376.662 76.750 C 376.940 77.438,378.254 78.000,379.583 78.000 M311.465 250.250 C 311.800 253.137,312.153 256.705,312.249 258.178 C 312.345 259.651,312.809 260.618,313.279 260.327 C 313.750 260.037,314.382 260.744,314.684 261.899 C 314.986 263.055,315.631 264.000,316.117 264.000 C 316.602 264.000,317.000 264.900,317.000 266.000 C 317.000 267.782,316.333 268.000,310.893 268.000 C 306.191 268.000,304.905 267.691,305.302 266.656 C 305.671 265.694,305.134 265.443,303.409 265.773 C 302.027 266.037,301.000 265.757,301.000 265.117 C 301.000 264.502,300.067 264.000,298.927 264.000 C 297.473 264.000,296.968 263.477,297.236 262.250 C 297.447 261.288,298.142 260.608,298.781 260.741 C 299.614 260.913,299.675 260.276,298.996 258.491 C 298.253 256.534,298.366 256.000,299.525 256.000 C 300.336 256.000,301.000 255.523,301.000 254.941 C 301.000 254.359,301.520 254.203,302.155 254.595 C 302.830 255.013,303.039 254.872,302.658 254.255 C 302.300 253.676,303.580 251.820,305.503 250.131 C 307.426 248.443,309.000 246.597,309.000 246.031 C 309.000 242.548,310.961 245.905,311.465 250.250 " stroke="none" fill="#000000" fill-rule="evenodd"></path></g></svg>