<svg id="svg" version="1.1" width="400" height="400" xmlns="http://www.w3.org/2000/svg" xmlns:xlink="http://www.w3.org/1999/xlink" style="display: block;"><g id="svgg"><path id="path0" d="M17.000 3.875 C 17.000 4.356,15.646 5.021,13.991 5.352 C 10.468 6.056,5.000 9.845,5.000 11.581 C 5.000 12.244,4.369 13.028,3.598 13.324 C -0.692 14.970,-0.603 39.740,3.704 42.911 C 4.143 43.235,5.177 44.850,6.000 46.500 C 6.823 48.150,8.060 49.860,8.748 50.300 C 9.437 50.740,10.000 51.730,10.000 52.500 C 10.000 53.270,10.563 54.260,11.250 54.700 C 12.653 55.598,19.000 63.575,19.000 64.441 C 19.000 64.749,19.708 65.787,20.573 66.750 C 24.547 71.172,26.998 74.604,26.999 75.750 C 26.999 76.438,27.473 77.000,28.052 77.000 C 28.631 77.000,29.575 78.350,30.150 80.000 C 30.725 81.650,31.540 83.000,31.961 83.000 C 32.382 83.000,33.306 85.813,34.013 89.250 C 34.721 92.688,35.620 95.950,36.012 96.500 C 36.404 97.050,37.044 98.834,37.435 100.465 C 37.826 102.096,38.972 105.246,39.982 107.465 C 40.992 109.684,42.135 113.188,42.521 115.250 C 42.907 117.312,43.578 119.000,44.012 119.000 C 44.445 119.000,45.340 121.250,46.000 124.000 C 46.660 126.750,47.570 129.000,48.022 129.000 C 48.475 129.000,49.395 130.688,50.067 132.750 C 50.740 134.813,51.624 136.725,52.033 137.000 C 52.441 137.275,53.513 139.075,54.414 141.000 C 57.305 147.173,58.071 148.263,64.214 154.952 C 67.036 158.024,67.013 159.278,64.001 166.500 C 63.542 167.600,62.637 171.425,61.989 175.000 C 61.342 178.575,60.451 181.950,60.010 182.500 C 58.962 183.808,57.000 196.673,57.000 202.242 C 57.000 204.639,56.514 207.086,55.920 207.680 C 54.863 208.737,55.122 218.918,56.463 229.000 C 56.793 231.475,57.545 237.213,58.134 241.750 C 58.724 246.287,59.549 250.000,59.967 250.000 C 60.385 250.000,61.300 252.700,62.000 256.000 C 62.700 259.300,63.590 262.000,63.977 262.000 C 64.363 262.000,65.274 263.800,66.000 266.000 C 66.726 268.200,67.698 270.000,68.160 270.000 C 68.622 270.000,69.000 270.476,69.000 271.059 C 69.000 273.900,80.168 285.753,83.674 286.633 C 84.953 286.954,86.000 287.618,86.000 288.108 C 86.000 288.599,88.925 289.000,92.500 289.000 C 96.075 289.000,99.000 288.649,99.000 288.219 C 99.000 287.790,100.340 286.933,101.978 286.314 C 103.645 285.685,105.507 283.938,106.208 282.345 C 106.896 280.780,107.762 279.275,108.133 279.000 C 109.067 278.307,111.000 267.435,111.000 262.875 C 111.000 260.809,111.450 258.840,112.000 258.500 C 112.550 258.160,113.000 256.585,113.000 255.000 C 113.000 253.415,113.450 251.840,114.000 251.500 C 114.550 251.160,115.000 251.584,115.000 252.441 C 115.000 253.298,115.378 254.000,115.840 254.000 C 116.302 254.000,117.274 255.800,118.000 258.000 C 118.726 260.200,119.608 262.000,119.959 262.000 C 120.311 262.000,121.197 263.657,121.930 265.682 C 123.256 269.351,123.930 270.414,127.250 274.072 C 128.213 275.132,129.000 276.380,129.000 276.845 C 129.000 278.539,149.534 298.520,157.420 304.500 C 158.870 305.600,162.619 308.975,165.750 312.000 C 173.179 319.178,176.974 322.000,179.194 322.000 C 181.848 322.000,181.344 318.837,178.317 316.500 C 173.128 312.494,162.000 300.602,162.000 299.063 C 162.000 298.533,161.391 297.740,160.646 297.300 C 159.901 296.860,158.715 295.403,158.011 294.063 C 156.692 291.554,155.667 290.154,152.900 287.079 C 152.021 286.101,150.673 283.883,149.906 282.150 C 149.139 280.418,148.226 279.000,147.877 279.000 C 147.528 279.000,146.683 277.650,146.000 276.000 C 145.317 274.350,144.391 273.000,143.943 273.000 C 143.496 273.000,142.560 271.425,141.864 269.500 C 141.168 267.575,140.268 266.000,139.864 266.000 C 139.460 266.000,138.560 264.425,137.864 262.500 C 137.168 260.575,136.269 259.000,135.866 259.000 C 135.464 259.000,134.823 257.988,134.442 256.750 C 134.061 255.512,132.253 251.926,130.424 248.781 C 128.595 245.635,126.555 241.247,125.891 239.031 C 125.227 236.814,124.311 235.000,123.856 235.000 C 123.401 235.000,122.519 232.975,121.896 230.500 C 121.272 228.025,120.411 226.000,119.981 226.000 C 119.551 226.000,118.638 223.660,117.952 220.799 C 116.342 214.089,113.992 211.399,111.095 212.949 C 109.943 213.566,109.000 214.681,109.000 215.428 C 109.000 216.175,108.422 217.008,107.715 217.279 C 107.008 217.550,105.097 219.736,103.468 222.136 C 101.839 224.536,100.217 226.725,99.863 227.000 C 99.510 227.275,98.631 229.525,97.909 232.000 C 97.188 234.475,96.288 236.725,95.910 237.000 C 95.016 237.650,93.000 250.730,93.000 255.883 C 93.000 258.082,92.550 260.160,92.000 260.500 C 91.450 260.840,91.000 263.341,91.000 266.059 C 91.000 268.777,90.582 271.000,90.071 271.000 C 88.274 271.000,82.129 264.361,81.460 261.696 C 81.088 260.213,80.399 259.000,79.930 259.000 C 79.461 259.000,78.563 257.087,77.935 254.750 C 77.307 252.412,76.404 250.258,75.930 249.961 C 75.455 249.665,74.505 246.065,73.820 241.961 C 73.135 237.858,72.130 234.193,71.587 233.817 C 70.184 232.847,70.271 196.073,71.679 195.183 C 72.272 194.807,73.080 192.025,73.474 189.000 C 73.868 185.975,74.806 182.529,75.557 181.343 C 76.309 180.156,77.464 177.006,78.124 174.343 C 78.784 171.679,79.780 169.200,80.337 168.833 C 80.894 168.466,81.549 164.380,81.791 159.752 L 82.233 151.339 76.607 145.419 C 73.513 142.164,70.426 138.262,69.747 136.750 C 69.067 135.237,68.256 134.000,67.943 134.000 C 67.629 134.000,66.755 132.425,66.000 130.500 C 65.245 128.575,64.319 127.000,63.943 127.000 C 63.567 127.000,62.693 124.975,62.000 122.500 C 61.307 120.025,60.410 118.000,60.007 118.000 C 59.603 118.000,58.700 115.300,58.000 112.000 C 57.300 108.700,56.400 106.000,56.000 106.000 C 55.600 106.000,54.700 103.300,54.000 100.000 C 53.300 96.700,52.400 94.000,52.000 94.000 C 51.600 94.000,50.700 91.300,50.000 88.000 C 49.300 84.700,48.409 82.000,48.022 82.000 C 47.634 82.000,46.760 80.144,46.081 77.875 C 45.401 75.606,44.423 73.243,43.908 72.625 C 41.815 70.111,38.000 63.847,38.000 62.924 C 38.000 62.381,37.342 61.685,36.538 61.376 C 35.734 61.068,34.821 60.010,34.508 59.026 C 34.196 58.043,33.166 56.280,32.220 55.109 C 31.274 53.939,29.600 51.817,28.500 50.394 C 27.400 48.971,25.488 46.659,24.250 45.257 C 23.012 43.855,22.000 42.356,22.000 41.925 C 22.000 41.495,21.375 40.518,20.612 39.755 C 15.889 35.032,13.608 24.777,16.750 22.392 C 19.668 20.177,35.000 21.544,35.000 24.019 C 35.000 24.449,37.250 25.340,40.000 26.000 C 42.750 26.660,45.000 27.587,45.000 28.060 C 45.000 28.533,46.800 29.459,49.000 30.118 C 51.200 30.777,53.000 31.641,53.000 32.037 C 53.000 32.433,54.350 33.317,56.000 34.000 C 57.650 34.683,59.000 35.608,59.000 36.054 C 59.000 36.500,59.879 37.144,60.952 37.485 C 62.026 37.826,64.550 39.750,66.562 41.762 C 70.619 45.819,75.483 46.844,91.191 46.949 C 95.421 46.977,99.121 47.387,99.414 47.860 C 99.706 48.334,101.991 49.001,104.491 49.344 C 106.991 49.686,110.941 50.823,113.268 51.870 C 123.503 56.472,126.639 57.804,128.750 58.448 C 129.988 58.826,131.000 59.464,131.000 59.866 C 131.000 60.269,132.575 61.168,134.500 61.864 C 136.425 62.560,138.000 63.466,138.000 63.878 C 138.000 64.290,139.575 65.245,141.500 66.000 C 143.425 66.755,145.000 67.685,145.000 68.065 C 145.000 68.446,146.350 69.317,148.000 70.000 C 149.650 70.683,151.000 71.583,151.000 72.000 C 151.000 72.417,152.350 73.317,154.000 74.000 C 155.650 74.683,157.000 75.652,157.000 76.153 C 157.000 76.653,157.787 77.353,158.750 77.707 C 159.713 78.061,161.466 79.285,162.647 80.425 C 165.437 83.121,172.905 89.287,174.550 90.253 C 176.641 91.480,194.041 109.205,196.880 113.000 C 198.321 114.925,200.287 117.088,201.249 117.807 C 202.212 118.525,203.000 119.763,203.000 120.557 C 203.000 121.351,203.381 122.000,203.846 122.000 C 204.312 122.000,206.899 125.171,209.596 129.048 C 212.293 132.924,215.300 137.057,216.277 138.232 C 217.255 139.407,218.316 141.411,218.636 142.684 C 218.955 143.958,219.563 145.000,219.987 145.000 C 220.411 145.000,221.317 146.350,222.000 148.000 C 222.683 149.650,223.548 151.000,223.920 151.000 C 224.293 151.000,225.168 152.575,225.864 154.500 C 226.560 156.425,227.501 158.000,227.954 158.000 C 228.408 158.000,229.377 160.025,230.108 162.500 C 230.839 164.975,231.744 167.000,232.119 167.000 C 232.494 167.000,233.340 169.250,234.000 172.000 C 234.660 174.750,235.506 177.000,235.881 177.000 C 236.256 177.000,237.161 179.025,237.892 181.500 C 238.623 183.975,239.563 186.000,239.980 186.000 C 240.398 186.000,241.307 188.025,242.000 190.500 C 242.693 192.975,243.580 195.000,243.972 195.000 C 244.363 195.000,245.223 196.800,245.882 199.000 C 246.541 201.200,247.512 203.000,248.040 203.000 C 248.568 203.000,249.000 203.519,249.000 204.154 C 249.000 204.788,250.092 207.615,251.426 210.436 C 252.761 213.257,254.160 216.788,254.535 218.282 C 254.910 219.777,255.612 221.000,256.094 221.000 C 256.576 221.000,257.481 223.025,258.104 225.500 C 258.728 227.975,259.544 230.000,259.918 230.000 C 260.292 230.000,261.202 231.687,261.940 233.750 C 262.678 235.813,263.556 237.725,263.891 238.000 C 264.226 238.275,265.306 240.075,266.291 242.000 C 269.104 247.497,270.749 250.219,271.661 250.885 C 272.124 251.223,273.140 252.735,273.918 254.246 C 274.703 255.768,276.818 257.528,278.667 258.196 C 280.500 258.859,282.000 259.705,282.000 260.076 C 282.000 260.447,284.700 261.349,288.000 262.081 C 291.300 262.814,294.000 263.720,294.000 264.095 C 294.000 264.470,295.688 265.093,297.750 265.479 C 299.813 265.865,303.388 267.041,305.695 268.091 C 308.002 269.141,310.481 270.000,311.203 270.000 C 312.620 270.000,322.177 274.838,323.000 275.971 C 323.275 276.350,324.963 277.297,326.750 278.074 C 328.538 278.852,330.000 279.840,330.000 280.269 C 330.000 280.698,331.125 281.477,332.500 282.000 C 333.875 282.523,335.000 283.412,335.000 283.975 C 335.000 284.539,335.563 285.001,336.250 285.001 C 336.938 285.002,338.793 286.114,340.372 287.473 C 341.952 288.831,344.090 290.211,345.122 290.539 C 346.155 290.867,347.000 291.500,347.000 291.946 C 347.000 292.392,348.350 293.317,350.000 294.000 C 351.650 294.683,353.000 295.608,353.000 296.054 C 353.000 296.500,353.892 297.148,354.983 297.495 C 356.073 297.841,358.847 299.827,361.147 301.909 L 365.328 305.693 348.534 306.248 C 339.297 306.553,331.461 307.200,331.120 307.685 C 330.779 308.170,327.576 309.155,324.003 309.873 C 320.430 310.592,317.280 311.533,317.003 311.965 C 316.726 312.396,314.925 313.078,313.000 313.480 C 302.945 315.580,301.025 318.704,305.000 326.500 C 306.100 328.658,307.000 330.955,307.000 331.604 C 307.000 332.254,307.675 333.045,308.500 333.362 C 309.325 333.678,310.000 334.462,310.000 335.104 C 310.000 335.746,311.013 337.249,312.250 338.444 C 313.488 339.640,315.444 341.717,316.598 343.059 C 317.752 344.402,320.114 346.625,321.846 348.000 C 323.578 349.375,325.949 351.274,327.116 352.220 C 328.283 353.166,330.084 354.209,331.119 354.538 C 332.153 354.866,333.000 355.566,333.000 356.092 C 333.000 356.619,334.125 357.477,335.500 358.000 C 336.875 358.523,338.000 359.340,338.000 359.815 C 338.000 360.291,339.800 361.274,342.000 362.000 C 344.200 362.726,346.000 363.626,346.000 364.000 C 346.000 364.374,347.800 365.274,350.000 366.000 C 352.200 366.726,354.000 367.698,354.000 368.160 C 354.000 368.622,354.489 369.000,355.086 369.000 C 356.254 369.000,368.847 374.971,370.500 376.309 C 371.050 376.754,372.850 377.985,374.500 379.045 C 381.996 383.858,382.167 383.989,389.500 390.502 C 392.250 392.945,395.063 394.956,395.750 394.972 C 396.438 394.987,397.000 395.450,397.000 396.000 C 397.000 396.550,397.675 397.000,398.500 397.000 C 402.471 397.000,398.258 387.040,391.374 380.157 C 388.270 377.053,384.555 372.972,383.119 371.089 C 379.733 366.650,373.279 360.213,368.754 356.762 C 366.785 355.259,364.572 353.461,363.837 352.765 C 363.101 352.069,360.475 350.192,358.000 348.594 C 355.525 346.995,352.281 344.858,350.790 343.844 C 349.300 342.830,347.749 342.000,347.344 342.000 C 346.220 342.000,338.607 336.674,337.700 335.253 C 337.260 334.564,336.375 334.000,335.732 334.000 C 334.502 334.000,330.000 329.231,330.000 327.927 C 330.000 327.199,338.613 325.000,341.466 325.000 C 342.218 325.000,342.983 324.586,343.167 324.080 C 343.534 323.065,356.880 321.000,363.072 321.000 C 365.233 321.000,367.000 320.550,367.000 320.000 C 367.000 319.450,367.985 319.000,369.190 319.000 C 372.863 319.000,383.000 316.651,383.000 315.800 C 383.000 315.360,383.900 315.000,385.000 315.000 C 389.137 315.000,386.896 309.104,380.250 302.505 C 379.013 301.276,378.000 299.869,378.000 299.377 C 378.000 298.575,374.668 295.408,366.026 288.000 C 362.775 285.213,362.367 284.887,356.000 279.973 C 353.525 278.063,351.275 276.275,351.000 276.000 C 349.374 274.374,340.996 269.000,340.087 269.000 C 339.489 269.000,339.000 268.539,339.000 267.975 C 339.000 267.412,337.875 266.523,336.500 266.000 C 335.125 265.477,334.000 264.672,334.000 264.211 C 334.000 263.750,332.425 262.755,330.500 262.000 C 328.575 261.245,327.000 260.347,327.000 260.005 C 327.000 259.258,313.699 253.000,312.112 253.000 C 311.500 253.000,311.000 252.648,311.000 252.218 C 311.000 251.788,308.975 250.839,306.500 250.108 C 304.025 249.377,302.000 248.432,302.000 248.008 C 302.000 247.584,299.975 246.728,297.500 246.104 C 295.025 245.481,293.000 244.580,293.000 244.102 C 293.000 243.624,292.100 242.998,291.000 242.710 C 289.900 242.423,289.000 241.470,289.000 240.594 C 289.000 239.717,288.527 239.000,287.948 239.000 C 287.369 239.000,286.425 237.650,285.850 236.000 C 285.275 234.350,284.447 233.000,284.011 233.000 C 283.574 233.000,282.914 231.763,282.544 230.250 C 282.174 228.738,278.975 221.627,275.436 214.448 C 271.896 207.269,269.000 200.857,269.000 200.198 C 269.000 199.539,268.568 199.000,268.040 199.000 C 267.512 199.000,266.541 197.200,265.882 195.000 C 265.223 192.800,264.363 191.000,263.972 191.000 C 263.580 191.000,262.693 188.975,262.000 186.500 C 261.307 184.025,260.407 182.000,260.000 182.000 C 259.593 182.000,258.693 179.975,258.000 177.500 C 257.307 175.025,256.393 173.000,255.970 173.000 C 255.546 173.000,254.660 170.750,254.000 168.000 C 253.340 165.250,252.494 163.000,252.119 163.000 C 251.744 163.000,250.839 160.975,250.108 158.500 C 249.377 156.025,248.379 154.000,247.890 154.000 C 247.400 154.000,247.000 153.267,247.000 152.372 C 247.000 150.615,241.427 140.344,239.299 138.179 C 238.584 137.452,238.000 136.200,238.000 135.397 C 238.000 134.594,237.325 133.678,236.500 133.362 C 235.675 133.045,235.000 132.345,235.000 131.806 C 235.000 130.892,229.227 122.105,227.900 121.000 C 227.570 120.725,226.711 119.375,225.991 118.000 C 225.271 116.625,223.854 114.912,222.841 114.193 C 221.829 113.475,221.000 112.447,221.000 111.910 C 221.000 111.372,219.650 109.613,218.000 108.000 C 216.350 106.387,215.000 104.755,215.000 104.373 C 215.000 102.962,180.778 70.016,179.277 69.983 C 178.850 69.973,177.440 68.848,176.145 67.483 C 174.850 66.117,173.387 65.000,172.895 65.000 C 172.403 65.000,170.988 64.079,169.750 62.954 C 165.451 59.043,164.490 58.322,162.750 57.694 C 161.787 57.347,161.000 56.683,161.000 56.218 C 161.000 55.753,159.425 54.755,157.500 54.000 C 155.575 53.245,154.000 52.267,154.000 51.827 C 154.000 51.387,152.537 50.347,150.750 49.516 C 148.963 48.684,146.150 47.109,144.500 46.014 C 142.850 44.919,139.925 43.231,138.000 42.262 C 136.075 41.293,134.359 40.188,134.186 39.807 C 134.013 39.426,131.425 38.567,128.436 37.898 C 125.446 37.229,123.000 36.354,123.000 35.954 C 123.000 35.554,119.963 34.666,116.250 33.981 C 112.537 33.297,108.939 32.292,108.253 31.748 C 107.567 31.205,101.942 30.563,95.753 30.323 C 81.310 29.763,81.317 29.764,76.000 24.983 C 70.088 19.666,70.027 19.622,66.250 17.950 C 64.462 17.159,63.000 16.207,63.000 15.833 C 63.000 15.460,61.325 14.602,59.278 13.927 C 57.230 13.251,54.966 12.109,54.245 11.388 C 53.525 10.668,51.375 9.786,49.468 9.428 C 47.561 9.070,46.000 8.409,46.000 7.960 C 46.000 7.510,43.413 6.645,40.250 6.037 C 37.087 5.429,33.719 4.497,32.764 3.966 C 30.598 2.761,17.000 2.683,17.000 3.875 M82.250 70.723 C 79.202 71.102,77.151 75.000,80.000 75.000 C 80.550 75.000,81.002 75.563,81.004 76.250 C 81.007 76.938,83.032 79.731,85.504 82.458 C 87.977 85.185,89.996 87.885,89.991 88.458 C 89.978 90.104,94.390 99.000,95.220 99.000 C 97.804 99.000,102.064 93.153,102.635 88.821 C 103.510 82.190,102.545 79.493,97.492 74.439 C 92.834 69.782,91.824 69.535,82.250 70.723 " stroke="none" fill="#000000" fill-rule="evenodd"></path></g></svg>