<svg id="svg" version="1.1" width="515" height="515" xmlns="http://www.w3.org/2000/svg" xmlns:xlink="http://www.w3.org/1999/xlink" style="display: block;"><g id="svgg"><path id="path0" d="M290.500 10.570 C 287.750 11.335,284.375 11.978,283.000 11.999 C 281.625 12.019,275.100 13.370,268.500 15.000 C 261.900 16.630,255.600 17.964,254.500 17.964 C 253.400 17.965,246.650 19.304,239.500 20.941 C 224.769 24.313,208.134 27.801,200.000 29.223 C 196.975 29.752,188.862 31.493,181.970 33.093 C 175.079 34.692,168.609 36.000,167.594 36.000 C 166.578 36.000,160.164 37.350,153.340 39.000 C 146.515 40.650,139.870 42.000,138.572 42.000 C 137.275 42.000,130.878 43.349,124.357 44.997 C 117.836 46.646,111.452 47.996,110.171 47.997 C 108.890 47.999,101.357 49.575,93.431 51.500 C 85.505 53.425,78.003 55.005,76.760 55.012 C 75.517 55.018,70.000 56.179,64.500 57.592 C 59.000 59.004,51.800 60.519,48.500 60.958 C 45.200 61.398,37.100 62.962,30.500 64.434 C 23.900 65.906,16.487 67.561,14.028 68.111 C 11.568 68.661,9.474 69.199,9.376 69.306 C 8.828 69.897,8.779 89.013,8.885 260.205 L 9.000 446.909 12.750 447.508 C 14.813 447.838,22.350 449.437,29.500 451.062 C 36.650 452.687,43.408 454.013,44.519 454.008 C 45.629 454.004,51.921 455.350,58.500 457.000 C 65.079 458.650,71.371 459.994,72.481 459.986 C 73.592 459.979,81.475 461.532,90.000 463.438 C 98.525 465.343,112.025 468.253,120.000 469.904 C 127.975 471.554,139.900 474.112,146.500 475.587 C 153.100 477.062,160.750 478.596,163.500 478.995 C 168.674 479.747,185.739 483.343,204.000 487.530 C 209.775 488.854,217.200 490.371,220.500 490.901 C 223.800 491.431,231.334 493.021,237.242 494.433 C 243.150 495.845,249.008 497.000,250.260 497.000 C 251.513 497.000,257.921 498.350,264.500 500.000 C 271.079 501.650,277.596 503.008,278.981 503.017 C 280.367 503.027,284.875 503.919,289.000 505.000 C 293.125 506.081,297.512 506.973,298.750 506.983 L 301.000 507.000 301.000 483.028 L 301.000 459.056 365.750 458.778 L 430.500 458.500 435.195 456.250 C 437.777 455.012,440.315 454.000,440.835 454.000 C 442.794 454.000,453.119 442.742,454.636 438.952 L 456.217 435.000 464.059 435.000 C 486.298 435.000,500.454 425.747,506.132 407.500 C 506.646 405.848,507.039 387.303,507.007 366.222 L 506.948 327.945 504.363 322.222 C 502.941 319.075,500.925 315.568,499.883 314.430 C 498.017 312.389,498.025 312.325,500.494 310.005 C 501.872 308.711,503.000 306.920,503.000 306.026 C 503.000 305.132,503.389 303.972,503.864 303.450 C 506.622 300.415,507.048 294.343,507.049 258.005 C 507.051 221.655,506.626 215.589,503.864 212.550 C 503.389 212.028,503.000 210.787,503.000 209.793 C 503.000 208.800,501.874 207.008,500.497 205.811 C 498.031 203.666,498.022 203.604,499.889 201.567 C 501.581 199.721,504.515 193.859,506.376 188.607 C 508.282 183.228,507.088 109.814,505.025 105.552 C 503.911 103.251,503.000 100.904,503.000 100.337 C 503.000 99.770,502.054 98.225,500.897 96.903 C 499.741 95.581,498.277 93.825,497.644 93.000 C 492.267 85.990,481.694 81.963,466.808 81.256 L 456.116 80.748 454.585 76.922 C 452.327 71.278,443.175 62.762,436.301 59.908 L 430.500 57.500 365.750 57.222 L 301.000 56.944 301.000 32.972 L 301.000 9.000 298.250 9.089 C 296.738 9.139,293.250 9.805,290.500 10.570 M427.085 83.835 C 431.871 86.308,433.629 91.903,433.969 105.750 C 433.993 106.705,438.453 107.000,452.851 107.000 C 483.698 107.000,482.000 104.580,482.000 148.523 C 482.000 192.777,483.771 190.149,453.571 190.687 C 443.160 190.873,434.512 191.155,434.352 191.315 C 434.192 191.474,433.935 244.086,433.781 308.230 C 433.500 424.743,433.498 424.857,431.410 427.677 C 426.962 433.685,429.150 433.500,362.500 433.500 L 301.500 433.500 301.232 409.750 L 300.964 386.000 343.482 386.000 L 386.000 386.000 386.000 373.511 L 386.000 361.022 343.750 360.761 L 301.500 360.500 301.500 349.206 L 301.500 337.912 342.114 337.977 C 364.451 338.013,383.464 337.759,384.364 337.414 C 385.757 336.879,386.000 334.945,386.000 324.393 L 386.000 312.000 343.500 312.000 L 301.000 312.000 301.000 300.500 L 301.000 289.000 343.530 289.000 L 386.060 289.000 385.780 276.455 L 385.500 263.911 344.500 263.952 C 321.950 263.975,302.922 263.621,302.214 263.166 C 301.266 262.555,301.004 259.477,301.214 251.419 L 301.500 240.500 343.750 240.500 L 386.001 240.500 386.000 227.750 L 386.000 215.000 343.500 215.000 L 301.000 215.000 301.000 203.500 L 301.000 192.000 343.500 192.000 L 386.000 192.000 386.000 179.000 L 386.000 166.000 343.500 166.000 L 301.000 166.000 301.000 154.500 L 301.000 143.000 343.500 143.000 L 386.000 143.000 386.000 130.500 L 386.000 118.000 343.500 118.000 L 301.000 118.000 301.000 100.667 C 301.000 91.133,301.313 83.020,301.696 82.637 C 303.105 81.228,424.279 82.386,427.085 83.835 M233.000 255.000 C 233.000 313.300,232.662 360.987,232.250 360.972 C 231.838 360.956,223.175 360.294,213.000 359.500 C 202.825 358.706,193.535 358.044,192.355 358.028 C 190.656 358.006,189.338 356.184,186.005 349.250 C 169.164 314.213,163.920 303.218,158.937 292.500 C 157.147 288.650,154.629 283.821,153.341 281.770 C 152.054 279.718,151.000 277.376,151.000 276.564 C 151.000 275.752,149.650 272.798,148.000 270.000 C 146.350 267.202,145.000 264.432,145.000 263.846 C 145.000 263.260,143.693 260.242,142.095 257.140 C 138.781 250.707,129.002 230.454,123.330 218.277 C 121.224 213.755,119.162 210.042,118.750 210.027 C 118.338 210.012,118.000 242.427,118.000 282.059 C 118.000 321.691,117.662 353.921,117.250 353.679 C 116.838 353.438,110.425 352.949,103.000 352.592 C 95.575 352.236,87.813 351.692,85.750 351.384 L 82.000 350.824 82.000 255.912 C 82.000 180.645,82.259 161.001,83.250 161.007 C 83.938 161.011,91.593 160.290,100.263 159.405 C 118.755 157.517,117.924 157.330,121.393 164.157 C 122.886 167.096,125.369 171.750,126.911 174.500 C 128.453 177.250,131.407 182.650,133.476 186.500 C 135.544 190.350,137.633 193.927,138.118 194.450 C 138.603 194.972,139.000 196.062,139.000 196.871 C 139.000 197.680,139.628 199.053,140.397 199.921 C 141.165 200.790,144.381 206.450,147.544 212.500 C 150.708 218.550,153.676 223.992,154.140 224.593 C 155.044 225.763,161.021 236.904,164.285 243.500 C 165.373 245.700,166.590 247.725,166.989 248.000 C 167.388 248.275,168.831 250.750,170.195 253.500 C 172.616 258.381,176.344 265.368,183.001 277.500 C 184.811 280.800,187.915 286.546,189.896 290.268 L 193.500 297.036 193.757 226.121 L 194.013 155.205 203.139 153.528 C 208.158 152.606,216.335 151.430,221.309 150.915 C 226.284 150.401,230.574 149.759,230.843 149.490 C 231.113 149.220,231.708 149.000,232.167 149.000 C 232.625 149.000,233.000 196.700,233.000 255.000 M474.946 217.335 C 481.812 220.222,482.000 221.290,482.000 257.490 C 482.000 298.725,481.504 300.000,465.466 300.000 L 459.000 300.000 459.000 258.000 L 459.000 216.000 465.385 216.000 C 468.897 216.000,473.199 216.601,474.946 217.335 M472.975 326.088 C 481.823 327.986,482.000 328.787,482.000 366.926 C 482.000 407.788,481.528 409.000,465.599 409.000 L 459.000 409.000 459.000 367.000 L 459.000 325.000 463.451 325.000 C 465.899 325.000,470.185 325.490,472.975 326.088 " stroke="none" fill="#000000" fill-rule="evenodd"></path></g></svg>