<svg id="svg" version="1.1" width="515" height="515" xmlns="http://www.w3.org/2000/svg" xmlns:xlink="http://www.w3.org/1999/xlink" style="display: block;"><g id="svgg"><path id="path0" d="M14.667 81.667 C 13.309 83.025,14.062 86.603,16.000 88.000 C 17.100 88.793,18.000 90.017,18.000 90.721 C 18.000 91.424,18.509 92.000,19.130 92.000 C 19.871 92.000,20.092 93.491,19.772 96.334 C 19.308 100.451,19.401 100.646,21.642 100.218 C 23.449 99.872,24.000 100.210,24.000 101.663 C 24.000 102.705,24.900 104.207,26.000 105.000 C 27.100 105.793,28.000 107.242,28.000 108.221 C 28.000 109.333,28.749 110.000,30.000 110.000 C 31.333 110.000,32.000 110.667,32.000 112.000 C 32.000 113.100,32.511 114.000,33.136 114.000 C 33.907 114.000,34.074 115.446,33.655 118.500 C 33.286 121.194,33.432 123.000,34.019 123.000 C 34.559 123.000,35.000 122.325,35.000 121.500 C 35.000 120.675,35.727 120.000,36.617 120.000 C 37.802 120.000,38.106 120.667,37.755 122.500 C 37.391 124.407,37.698 125.000,39.053 125.000 C 41.437 125.000,48.000 131.488,48.000 133.844 C 48.000 135.309,48.551 135.617,50.500 135.245 C 52.333 134.894,53.000 135.198,53.000 136.383 C 53.000 137.273,52.325 138.000,51.500 138.000 C 50.675 138.000,50.000 138.470,50.000 139.045 C 50.000 139.698,51.313 139.844,53.500 139.434 C 56.602 138.852,57.000 139.017,57.000 140.889 C 57.000 142.568,57.614 143.000,60.000 143.000 C 61.650 143.000,63.000 143.450,63.000 144.000 C 63.000 144.550,63.900 145.000,65.000 145.000 C 66.333 145.000,67.000 145.667,67.000 147.000 C 67.000 148.572,67.667 149.000,70.117 149.000 C 72.883 149.000,73.181 149.275,72.766 151.445 C 72.337 153.690,72.542 153.842,75.275 153.295 C 77.444 152.861,78.503 153.147,79.176 154.350 C 79.684 155.257,80.973 156.000,82.041 156.000 C 83.109 156.000,84.545 156.900,85.232 158.000 C 86.120 159.423,87.564 160.000,90.232 160.000 C 92.900 160.000,94.344 160.577,95.232 162.000 C 95.969 163.180,97.564 164.000,99.124 164.000 C 100.926 164.000,101.933 164.636,102.290 166.000 C 102.716 167.629,103.654 168.000,107.347 168.000 C 109.841 168.000,112.160 168.450,112.500 169.000 C 112.840 169.550,116.241 170.000,120.059 170.000 C 126.333 170.000,127.000 170.192,127.000 172.000 C 127.000 173.810,127.667 174.000,134.000 174.000 C 139.489 174.000,141.000 174.317,141.000 175.469 C 141.000 176.428,141.577 176.716,142.664 176.299 C 143.783 175.869,144.091 176.043,143.605 176.830 C 143.072 177.692,145.397 178.000,152.441 178.000 C 158.502 178.000,162.000 178.388,162.000 179.059 C 162.000 179.641,161.492 179.804,160.870 179.420 C 160.185 178.996,159.922 179.268,160.202 180.111 C 160.556 181.176,163.558 181.566,173.064 181.783 C 179.885 181.938,185.901 182.501,186.433 183.033 C 187.007 183.607,198.107 184.000,213.742 184.000 C 238.701 184.000,240.196 184.105,242.230 186.000 C 244.333 187.959,245.759 188.000,311.119 188.000 L 377.861 188.000 378.180 190.250 C 378.482 192.374,379.020 192.516,387.750 192.788 C 392.837 192.946,397.000 193.508,397.000 194.038 C 397.000 194.567,399.250 195.000,402.000 195.000 C 405.862 195.000,407.000 195.355,407.000 196.559 C 407.000 197.416,407.450 197.840,408.000 197.500 C 408.550 197.160,409.000 197.359,409.000 197.941 C 409.000 198.523,410.800 199.000,413.000 199.000 C 415.925 199.000,417.000 199.411,417.000 200.531 C 417.000 201.374,417.788 202.361,418.750 202.725 C 422.542 204.161,423.180 205.792,422.674 212.760 C 421.872 223.819,421.108 226.244,418.621 225.620 C 416.652 225.126,416.519 225.420,416.847 229.543 C 417.136 233.183,416.895 234.000,415.529 234.000 C 413.421 234.000,411.000 236.367,411.000 238.429 C 411.000 239.333,410.152 240.000,409.000 240.000 C 407.667 240.000,407.000 240.667,407.000 242.000 C 407.000 243.292,406.333 244.000,405.117 244.000 C 404.074 244.000,403.000 244.893,402.710 246.000 C 402.423 247.100,401.508 248.000,400.677 248.000 C 399.847 248.000,398.568 249.355,397.835 251.012 C 397.101 252.668,395.737 254.266,394.802 254.563 C 393.867 254.860,392.824 255.979,392.484 257.051 C 392.144 258.123,391.206 259.000,390.401 259.000 C 389.596 259.000,388.653 259.741,388.305 260.648 C 387.957 261.554,386.396 263.515,384.836 265.006 C 383.276 266.497,382.000 268.262,382.000 268.930 C 382.000 270.921,379.260 273.227,378.659 271.741 C 378.384 271.058,378.122 271.482,378.079 272.683 C 378.033 273.942,377.154 275.134,376.000 275.500 C 374.900 275.849,374.000 276.579,374.000 277.123 C 374.000 277.666,371.300 280.761,368.000 284.000 C 364.700 287.239,362.000 290.171,362.000 290.516 C 362.000 291.295,359.345 294.000,358.580 294.000 C 358.271 294.000,356.690 295.389,355.068 297.086 C 353.077 299.170,351.522 299.983,350.283 299.590 C 348.670 299.078,348.495 299.499,348.835 303.071 C 349.175 306.630,348.836 307.455,346.111 309.712 C 343.896 311.548,343.000 313.152,343.000 315.285 C 343.000 316.962,342.230 318.867,341.250 319.614 C 339.756 320.754,340.450 320.861,346.000 320.350 C 352.799 319.724,357.000 317.079,357.000 313.427 C 357.000 312.195,357.645 311.890,359.500 312.245 C 361.596 312.645,362.000 312.341,362.000 310.361 C 362.000 308.897,362.588 308.000,363.547 308.000 C 364.397 308.000,365.860 306.653,366.797 305.006 C 367.733 303.360,369.288 302.010,370.250 302.006 C 371.331 302.002,372.000 301.236,372.000 300.000 C 372.000 298.667,372.667 298.000,374.000 298.000 C 375.100 298.000,376.000 297.586,376.000 297.079 C 376.000 296.573,377.350 295.862,379.000 295.500 C 381.063 295.047,382.000 294.241,382.000 292.921 C 382.000 290.761,383.985 290.385,385.800 292.200 C 386.715 293.115,387.278 293.122,388.167 292.233 C 389.057 291.343,388.938 290.913,387.667 290.426 C 384.797 289.324,385.602 286.683,388.580 287.431 C 390.833 287.996,391.078 287.822,390.518 286.056 C 389.865 283.998,393.716 279.000,395.955 279.000 C 396.530 279.000,397.000 278.550,397.000 278.000 C 397.000 277.450,398.350 277.000,400.000 277.000 C 402.333 277.000,403.000 276.556,403.000 275.000 C 403.000 273.846,403.667 273.000,404.576 273.000 C 405.443 273.000,409.451 269.738,413.482 265.750 C 423.638 255.704,423.667 255.684,427.549 256.314 C 430.716 256.828,430.854 256.737,429.716 254.876 C 428.703 253.221,428.792 252.723,430.250 251.895 C 431.212 251.348,432.000 250.248,432.000 249.450 C 432.000 248.653,432.900 248.000,434.000 248.000 C 435.333 248.000,436.000 247.333,436.000 246.000 C 436.000 244.834,436.667 244.000,437.599 244.000 C 438.478 244.000,440.459 242.650,442.000 241.000 C 443.541 239.350,445.522 238.000,446.401 238.000 C 447.333 238.000,448.000 237.166,448.000 236.000 C 448.000 234.444,448.667 234.000,451.000 234.000 C 453.061 234.000,454.000 233.508,454.000 232.429 C 454.000 230.607,455.748 228.673,458.250 227.725 C 459.212 227.361,460.000 226.149,460.000 225.031 C 460.000 222.834,461.938 222.338,463.687 224.087 C 464.414 224.814,464.983 224.837,465.403 224.156 C 465.749 223.596,465.595 222.868,465.060 222.537 C 463.875 221.805,464.811 219.000,466.240 219.000 C 467.466 219.000,471.000 215.094,471.000 213.739 C 471.000 213.213,472.061 213.050,473.358 213.375 C 475.438 213.897,475.660 213.674,475.242 211.483 C 474.857 209.472,475.169 209.000,476.883 209.000 C 478.505 209.000,479.000 208.382,479.000 206.358 C 479.000 204.727,480.147 202.620,482.000 200.850 C 483.763 199.164,485.000 196.956,485.000 195.491 C 485.000 193.105,485.683 192.655,489.000 192.852 C 489.825 192.902,490.050 192.731,489.500 192.473 C 488.894 192.189,488.623 187.673,488.812 181.002 C 489.083 171.471,488.912 170.000,487.531 170.000 C 486.654 170.000,485.635 169.214,485.267 168.253 C 484.066 165.123,480.151 162.000,477.429 162.000 C 475.190 162.000,474.837 161.634,475.207 159.699 C 475.632 157.474,475.454 157.412,469.823 157.819 C 465.941 158.100,464.000 157.867,464.000 157.120 C 464.000 156.370,460.777 156.000,454.237 156.000 C 445.072 156.000,444.414 155.862,443.487 153.750 C 442.453 151.394,403.995 149.078,403.999 151.372 C 403.999 151.852,403.352 151.707,402.559 151.049 C 401.767 150.392,401.365 149.212,401.666 148.427 C 402.138 147.197,389.367 146.998,309.357 146.985 C 257.164 146.976,217.094 146.593,217.857 146.110 C 220.892 144.186,215.765 143.475,193.500 142.732 C 137.735 140.871,141.000 141.106,141.000 138.950 C 141.000 137.168,140.260 137.000,132.392 137.000 L 123.783 137.000 124.422 134.250 C 124.773 132.738,124.710 131.950,124.280 132.500 C 123.310 133.744,108.000 133.199,108.000 131.921 C 108.000 131.414,105.248 131.000,101.883 131.000 C 96.039 131.000,95.786 130.897,96.207 128.699 C 96.632 126.474,96.454 126.412,90.823 126.819 C 85.424 127.210,85.000 127.086,85.000 125.120 C 85.000 123.313,84.409 123.000,81.000 123.000 C 77.667 123.000,77.000 122.667,77.000 121.000 C 77.000 119.444,76.333 119.000,74.000 119.000 C 72.000 119.000,71.000 118.500,71.000 117.500 C 71.000 116.488,69.987 116.000,67.883 116.000 C 65.260 116.000,64.849 115.684,65.289 114.001 C 65.577 112.902,65.404 111.750,64.906 111.442 C 64.408 111.134,64.000 111.281,64.000 111.768 C 64.000 113.607,57.460 111.597,54.542 108.861 C 52.668 107.105,50.402 106.007,48.642 106.005 C 46.139 106.001,45.857 105.707,46.375 103.642 C 46.897 101.562,46.674 101.340,44.483 101.758 C 42.543 102.129,42.000 101.817,42.000 100.332 C 42.000 99.280,40.660 97.640,39.000 96.659 C 37.350 95.684,36.000 94.237,36.000 93.443 C 36.000 92.650,35.100 92.000,34.000 92.000 C 32.667 92.000,32.000 91.333,32.000 90.000 C 32.000 88.667,31.333 88.000,30.000 88.000 C 28.704 88.000,28.000 87.333,28.000 86.107 C 28.000 83.951,26.137 83.000,21.918 83.000 C 20.313 83.000,19.000 82.550,19.000 82.000 C 19.000 80.883,15.704 80.629,14.667 81.667 M56.000 108.000 C 56.000 108.550,56.927 109.000,58.059 109.000 C 59.191 109.000,59.840 108.550,59.500 108.000 C 59.160 107.450,58.234 107.000,57.441 107.000 C 56.648 107.000,56.000 107.450,56.000 108.000 M62.000 146.416 C 62.000 147.471,65.012 150.321,65.554 149.780 C 65.806 149.527,65.110 148.504,64.006 147.506 C 62.903 146.507,62.000 146.017,62.000 146.416 M487.506 167.006 C 488.504 168.110,489.527 168.806,489.780 168.554 C 490.321 168.012,487.471 165.000,486.416 165.000 C 486.017 165.000,486.507 165.903,487.506 167.006 M409.250 271.496 C 407.753 273.196,407.598 276.000,409.000 276.000 C 409.550 276.000,410.000 275.100,410.000 274.000 C 410.000 272.667,410.667 272.000,412.000 272.000 C 413.100 272.000,414.000 271.550,414.000 271.000 C 414.000 269.516,410.689 269.861,409.250 271.496 M340.000 310.000 C 340.000 310.550,340.900 311.000,342.000 311.000 C 343.100 311.000,344.000 310.550,344.000 310.000 C 344.000 309.450,343.100 309.000,342.000 309.000 C 340.900 309.000,340.000 309.450,340.000 310.000 M294.304 344.954 C 276.628 345.515,273.000 346.526,273.000 350.891 C 273.000 351.427,272.100 352.151,271.000 352.500 C 269.900 352.849,269.000 353.680,269.000 354.347 C 269.000 355.013,268.100 356.207,267.000 357.000 C 265.900 357.793,265.000 359.242,265.000 360.221 C 265.000 361.333,264.251 362.000,263.000 362.000 C 261.444 362.000,261.000 362.667,261.000 365.000 C 261.000 367.333,260.556 368.000,259.000 368.000 C 255.805 368.000,255.914 392.903,259.112 393.740 C 260.906 394.209,261.150 394.849,260.729 397.985 C 260.259 401.490,260.362 401.653,262.761 401.195 C 265.046 400.758,265.228 400.957,264.649 403.261 C 264.106 405.427,264.300 405.734,265.939 405.306 C 268.518 404.631,275.347 411.333,274.570 413.776 C 273.682 416.565,308.607 415.759,311.058 412.933 C 313.058 410.627,315.000 410.414,315.000 412.500 C 315.000 413.325,315.506 414.000,316.125 414.000 C 316.848 414.000,317.030 412.900,316.634 410.920 C 315.806 406.779,317.955 404.612,322.007 405.501 C 323.888 405.915,325.000 405.758,325.000 405.079 C 325.000 404.486,324.325 404.000,323.500 404.000 C 322.675 404.000,322.000 403.273,322.000 402.383 C 322.000 401.219,322.667 400.894,324.383 401.222 C 326.625 401.651,326.736 401.450,326.252 397.839 C 325.904 395.248,326.124 394.000,326.927 394.000 C 327.582 394.000,327.840 393.550,327.500 393.000 C 327.160 392.450,327.823 392.000,328.973 392.000 C 332.359 392.000,331.651 368.663,328.250 368.180 C 326.549 367.939,326.000 367.200,326.000 365.151 C 326.000 363.589,325.153 361.831,324.000 361.000 C 322.900 360.207,322.000 359.013,322.000 358.347 C 322.000 357.680,321.100 356.849,320.000 356.500 C 318.900 356.151,318.000 355.401,318.000 354.834 C 318.000 354.267,316.616 352.509,314.924 350.929 C 312.682 348.835,312.022 347.505,312.491 346.028 C 312.845 344.912,312.767 344.092,312.317 344.204 C 311.868 344.316,303.762 344.653,294.304 344.954 M123.616 347.137 C 122.355 348.939,121.491 349.174,118.120 348.635 C 115.803 348.265,113.860 348.417,113.501 348.998 C 113.161 349.549,113.584 350.000,114.441 350.000 C 115.298 350.000,116.000 350.703,116.000 351.563 C 116.000 352.610,115.257 353.022,113.750 352.813 C 111.957 352.563,111.559 352.931,111.791 354.623 C 111.989 356.063,111.427 356.917,110.041 357.279 C 108.588 357.659,108.000 358.635,108.000 360.666 C 108.000 362.436,107.241 363.993,106.000 364.768 C 102.882 366.715,102.953 392.947,106.085 395.865 C 107.650 397.323,108.090 398.766,107.849 401.653 C 107.559 405.138,107.739 405.471,109.764 405.187 C 110.994 405.015,112.000 405.353,112.000 405.937 C 112.000 406.522,112.645 407.000,113.433 407.000 C 114.221 407.000,115.151 407.900,115.500 409.000 C 115.977 410.504,117.013 411.000,119.676 411.000 C 122.849 411.000,123.158 411.234,122.651 413.250 L 122.085 415.500 138.648 415.202 C 154.104 414.925,155.246 414.774,155.723 412.952 C 156.380 410.437,163.000 410.079,163.000 412.559 C 163.000 413.416,163.452 413.839,164.004 413.498 C 164.556 413.157,164.735 411.793,164.403 410.468 C 163.770 407.949,165.141 405.903,168.250 404.725 C 169.446 404.273,170.000 402.981,170.000 400.648 C 170.000 398.074,170.493 397.104,172.000 396.710 C 173.721 396.260,174.000 395.346,174.000 390.161 C 174.000 385.013,174.291 384.042,176.000 383.500 C 177.488 383.028,178.000 381.987,178.000 379.433 C 178.000 376.667,177.612 376.000,176.000 376.000 C 174.222 376.000,174.000 375.333,174.000 370.000 C 174.000 364.667,173.778 364.000,172.000 364.000 C 170.446 364.000,170.000 363.333,170.000 361.009 C 170.000 358.975,169.019 357.080,166.937 355.091 C 165.236 353.465,164.014 351.368,164.187 350.373 C 164.453 348.854,163.867 348.625,160.323 348.862 C 156.953 349.088,155.932 348.742,155.038 347.071 C 153.303 343.829,125.893 343.886,123.616 347.137 M270.000 412.000 C 270.000 413.100,270.450 414.000,271.000 414.000 C 271.550 414.000,272.000 413.100,272.000 412.000 C 272.000 410.900,271.550 410.000,271.000 410.000 C 270.450 410.000,270.000 410.900,270.000 412.000 " stroke="none" fill="#000000" fill-rule="evenodd"></path></g></svg>