<svg id="svg" version="1.1" width="400" height="400" viewBox="0 0 400 400" xmlns="http://www.w3.org/2000/svg" xmlns:xlink="http://www.w3.org/1999/xlink" ><g id="svgg"><path id="path0" d="M0.000 115.376 C 0.000 191.863,0.135 230.836,0.400 231.000 C 0.620 231.136,0.800 232.462,0.800 233.947 C 0.800 235.702,1.006 236.919,1.387 237.424 C 1.737 237.886,1.980 239.109,1.987 240.451 C 1.996 241.951,2.200 242.868,2.600 243.200 C 2.963 243.502,3.200 244.377,3.200 245.420 C 3.200 246.418,3.452 247.395,3.800 247.743 C 4.160 248.102,4.400 249.081,4.400 250.184 C 4.400 251.452,4.587 252.097,5.000 252.255 C 5.419 252.416,5.600 253.069,5.600 254.419 C 5.600 255.483,5.780 256.464,6.000 256.600 C 6.220 256.736,6.400 257.342,6.400 257.947 C 6.400 258.552,6.664 259.396,6.987 259.824 C 7.310 260.251,7.580 261.082,7.587 261.671 C 7.594 262.261,7.870 263.013,8.200 263.343 C 8.530 263.673,8.800 264.474,8.800 265.122 C 8.800 265.771,9.070 266.526,9.400 266.800 C 9.730 267.074,10.000 267.912,10.000 268.662 C 10.000 269.505,10.229 270.113,10.600 270.255 C 10.992 270.406,11.200 271.029,11.200 272.055 C 11.200 273.082,11.408 273.705,11.800 273.855 C 12.130 273.982,12.400 274.516,12.400 275.043 C 12.400 275.569,12.580 276.000,12.800 276.000 C 13.020 276.000,13.200 276.436,13.200 276.968 C 13.200 277.850,15.795 283.528,16.415 284.000 C 16.559 284.110,16.798 284.695,16.946 285.300 C 17.094 285.905,17.392 286.400,17.608 286.400 C 17.823 286.400,18.000 286.652,18.000 286.960 C 18.000 287.268,18.720 288.929,19.600 290.649 C 20.480 292.370,21.200 294.014,21.200 294.301 C 21.200 294.589,21.470 294.929,21.800 295.055 C 22.130 295.182,22.400 295.722,22.400 296.255 C 22.400 296.789,22.670 297.329,23.000 297.455 C 23.330 297.582,23.600 297.998,23.600 298.381 C 23.600 298.763,23.960 299.402,24.401 299.801 C 24.841 300.199,25.720 301.622,26.355 302.963 C 26.989 304.303,27.889 305.743,28.354 306.162 C 28.819 306.581,29.200 307.262,29.200 307.675 C 29.200 308.087,29.470 308.529,29.800 308.655 C 30.130 308.782,30.403 309.271,30.407 309.743 C 30.411 310.214,30.861 311.024,31.407 311.542 C 31.953 312.060,32.400 312.721,32.400 313.010 C 32.400 313.300,33.210 314.347,34.200 315.337 C 35.190 316.327,36.000 317.385,36.000 317.687 C 36.000 317.990,36.720 318.941,37.600 319.800 C 38.480 320.659,39.200 321.663,39.200 322.030 C 39.200 322.398,40.010 323.445,41.000 324.357 C 41.990 325.270,42.800 326.313,42.800 326.675 C 42.800 327.037,44.330 328.849,46.200 330.702 C 48.070 332.556,49.600 334.335,49.600 334.656 C 49.600 335.408,64.985 350.800,65.737 350.800 C 66.049 350.800,67.831 352.330,69.697 354.200 C 71.563 356.070,73.348 357.600,73.664 357.600 C 73.979 357.600,74.941 358.320,75.800 359.200 C 76.659 360.080,77.649 360.800,78.000 360.800 C 78.351 360.800,79.341 361.520,80.200 362.400 C 81.059 363.280,82.014 364.000,82.321 364.000 C 82.629 364.000,83.702 364.810,84.706 365.800 C 85.710 366.790,86.797 367.600,87.120 367.600 C 87.444 367.600,88.095 368.018,88.568 368.528 C 89.525 369.560,91.779 370.791,92.761 370.817 C 93.113 370.826,93.842 371.366,94.381 372.017 C 94.921 372.668,95.664 373.200,96.032 373.200 C 96.401 373.200,96.926 373.470,97.200 373.800 C 97.474 374.130,98.005 374.400,98.379 374.400 C 98.754 374.400,99.483 374.850,100.000 375.400 C 100.517 375.950,101.249 376.400,101.627 376.400 C 102.005 376.400,102.418 376.670,102.545 377.000 C 102.671 377.330,103.211 377.600,103.745 377.600 C 104.278 377.600,104.818 377.870,104.945 378.200 C 105.071 378.530,105.611 378.800,106.145 378.800 C 106.678 378.800,107.218 379.070,107.345 379.400 C 107.471 379.730,107.919 380.000,108.338 380.000 C 108.758 380.000,109.326 380.270,109.600 380.600 C 109.874 380.930,110.331 381.200,110.617 381.200 C 111.247 381.200,113.748 382.482,113.933 382.900 C 114.007 383.065,114.482 383.200,114.991 383.200 C 115.499 383.200,116.018 383.470,116.145 383.800 C 116.271 384.130,116.811 384.400,117.345 384.400 C 117.878 384.400,118.418 384.670,118.545 385.000 C 118.671 385.330,119.119 385.600,119.538 385.600 C 119.958 385.600,120.526 385.870,120.800 386.200 C 121.074 386.530,121.801 386.800,122.417 386.800 C 123.514 386.800,126.071 387.910,126.333 388.500 C 126.407 388.665,127.152 388.800,127.991 388.800 C 128.976 388.800,129.596 389.012,129.745 389.400 C 129.887 389.771,130.495 390.000,131.338 390.000 C 132.088 390.000,132.926 390.270,133.200 390.600 C 133.474 390.930,134.287 391.200,135.006 391.200 C 135.800 391.200,136.405 391.436,136.545 391.800 C 136.687 392.171,137.295 392.400,138.138 392.400 C 138.888 392.400,139.726 392.670,140.000 393.000 C 140.274 393.330,141.061 393.606,141.749 393.613 C 142.437 393.620,143.349 393.890,143.776 394.213 C 144.204 394.536,145.228 394.800,146.053 394.800 C 146.878 394.800,147.664 394.980,147.800 395.200 C 147.936 395.420,148.942 395.600,150.036 395.600 C 151.435 395.600,152.093 395.778,152.255 396.200 C 152.415 396.617,153.067 396.800,154.394 396.800 C 155.602 396.800,156.485 397.020,156.800 397.400 C 157.159 397.832,158.108 398.000,160.200 398.000 C 162.292 398.000,163.241 398.168,163.600 398.600 C 163.938 399.008,164.845 399.200,166.425 399.200 C 167.705 399.200,168.864 399.380,169.000 399.600 C 169.161 399.861,179.930 400.000,200.000 400.000 C 220.070 400.000,230.839 399.861,231.000 399.600 C 231.136 399.380,232.565 399.200,234.175 399.200 C 236.289 399.200,237.240 399.033,237.600 398.600 C 237.937 398.194,238.842 398.000,240.400 398.000 C 241.958 398.000,242.863 397.806,243.200 397.400 C 243.519 397.016,244.404 396.800,245.662 396.800 C 247.038 396.800,247.694 396.621,247.855 396.200 C 248.016 395.781,248.669 395.600,250.019 395.600 C 251.083 395.600,252.064 395.420,252.200 395.200 C 252.336 394.980,253.234 394.800,254.195 394.800 C 255.215 394.800,256.193 394.550,256.543 394.200 C 256.873 393.870,257.674 393.600,258.322 393.600 C 258.971 393.600,259.726 393.330,260.000 393.000 C 260.274 392.670,261.112 392.400,261.862 392.400 C 262.705 392.400,263.313 392.171,263.455 391.800 C 263.604 391.413,264.223 391.200,265.200 391.200 C 266.177 391.200,266.796 390.987,266.945 390.600 C 267.090 390.222,267.702 390.000,268.600 390.000 C 269.498 390.000,270.110 389.778,270.255 389.400 C 270.391 389.048,270.990 388.800,271.708 388.800 C 273.040 388.800,276.000 387.643,276.000 387.123 C 276.000 386.945,276.608 386.800,277.351 386.800 C 278.094 386.800,278.926 386.530,279.200 386.200 C 279.474 385.870,280.042 385.600,280.462 385.600 C 280.881 385.600,281.329 385.330,281.455 385.000 C 281.582 384.670,282.122 384.400,282.655 384.400 C 283.189 384.400,283.729 384.130,283.855 383.800 C 283.982 383.470,284.412 383.200,284.810 383.200 C 285.599 383.200,288.118 381.985,288.333 381.500 C 288.407 381.335,288.790 381.200,289.184 381.200 C 289.579 381.200,290.126 380.930,290.400 380.600 C 290.674 380.270,291.214 380.000,291.600 380.000 C 291.986 380.000,292.526 379.730,292.800 379.400 C 293.074 379.070,293.642 378.800,294.062 378.800 C 294.481 378.800,294.929 378.530,295.055 378.200 C 295.182 377.870,295.722 377.600,296.255 377.600 C 296.789 377.600,297.329 377.330,297.455 377.000 C 297.582 376.670,298.035 376.400,298.462 376.400 C 298.889 376.400,299.655 375.950,300.165 375.400 C 300.675 374.850,301.364 374.400,301.697 374.400 C 302.030 374.400,302.526 374.130,302.800 373.800 C 303.074 373.470,303.602 373.200,303.974 373.200 C 304.346 373.200,305.168 372.660,305.800 372.000 C 306.432 371.340,307.152 370.800,307.400 370.800 C 308.207 370.800,310.992 369.293,311.767 368.437 C 312.183 367.976,312.797 367.600,313.131 367.600 C 313.464 367.600,314.513 366.790,315.462 365.800 C 316.410 364.810,317.446 364.000,317.762 364.000 C 318.079 364.000,319.044 363.280,319.907 362.400 C 320.769 361.520,321.740 360.800,322.063 360.800 C 322.386 360.800,323.168 360.260,323.800 359.600 C 324.432 358.940,325.231 358.398,325.575 358.395 C 325.919 358.392,327.898 356.682,329.973 354.595 C 332.048 352.508,334.004 350.800,334.320 350.800 C 335.067 350.800,350.800 335.061,350.800 334.314 C 350.800 334.001,352.508 332.048,354.595 329.973 C 356.682 327.898,358.392 325.919,358.395 325.575 C 358.398 325.231,358.940 324.432,359.600 323.800 C 360.260 323.168,360.800 322.386,360.800 322.063 C 360.800 321.740,361.520 320.769,362.400 319.907 C 363.280 319.044,364.000 318.082,364.000 317.769 C 364.000 317.455,364.692 316.524,365.538 315.700 C 366.384 314.875,367.394 313.525,367.784 312.700 C 368.173 311.875,368.646 311.200,368.836 311.200 C 369.213 311.200,370.800 308.128,370.800 307.400 C 370.800 307.152,371.340 306.432,372.000 305.800 C 372.660 305.168,373.200 304.346,373.200 303.974 C 373.200 303.602,373.470 303.074,373.800 302.800 C 374.130 302.526,374.400 302.007,374.400 301.646 C 374.400 301.285,374.850 300.652,375.400 300.239 C 375.950 299.826,376.400 299.082,376.400 298.587 C 376.400 298.091,376.670 297.582,377.000 297.455 C 377.330 297.329,377.600 296.789,377.600 296.255 C 377.600 295.722,377.870 295.182,378.200 295.055 C 378.530 294.929,378.800 294.481,378.800 294.062 C 378.800 293.642,379.070 293.074,379.400 292.800 C 379.730 292.526,380.000 291.986,380.000 291.600 C 380.000 291.214,380.270 290.674,380.600 290.400 C 380.930 290.126,381.200 289.579,381.200 289.184 C 381.200 288.790,381.335 288.407,381.500 288.333 C 381.985 288.118,383.200 285.599,383.200 284.810 C 383.200 284.412,383.470 283.982,383.800 283.855 C 384.130 283.729,384.400 283.281,384.400 282.862 C 384.400 282.442,384.670 281.874,385.000 281.600 C 385.330 281.326,385.600 280.786,385.600 280.400 C 385.600 280.014,385.870 279.474,386.200 279.200 C 386.530 278.926,386.800 278.094,386.800 277.351 C 386.800 276.608,386.945 276.000,387.123 276.000 C 387.643 276.000,388.800 273.040,388.800 271.708 C 388.800 270.990,389.048 270.391,389.400 270.255 C 389.755 270.119,390.000 269.518,390.000 268.784 C 390.000 268.101,390.270 267.273,390.600 266.943 C 390.930 266.613,391.200 265.838,391.200 265.220 C 391.200 264.603,391.470 263.874,391.800 263.600 C 392.130 263.326,392.400 262.516,392.400 261.800 C 392.400 261.084,392.670 260.274,393.000 260.000 C 393.330 259.726,393.600 258.971,393.600 258.322 C 393.600 257.674,393.870 256.873,394.200 256.543 C 394.550 256.193,394.800 255.215,394.800 254.195 C 394.800 253.234,394.980 252.336,395.200 252.200 C 395.420 252.064,395.600 251.083,395.600 250.019 C 395.600 248.669,395.781 248.016,396.200 247.855 C 396.621 247.694,396.800 247.038,396.800 245.662 C 396.800 244.404,397.016 243.519,397.400 243.200 C 397.800 242.868,398.004 241.951,398.013 240.451 C 398.020 239.109,398.263 237.886,398.613 237.424 C 398.994 236.919,399.200 235.702,399.200 233.947 C 399.200 232.462,399.380 231.136,399.600 231.000 C 399.861 230.839,400.000 220.070,400.000 200.000 C 400.000 179.930,399.861 169.161,399.600 169.000 C 399.380 168.864,399.200 167.808,399.200 166.653 C 399.200 165.426,398.956 164.230,398.613 163.776 C 398.227 163.267,398.021 162.019,398.013 160.149 C 398.004 158.115,397.828 157.155,397.400 156.800 C 397.037 156.498,396.800 155.623,396.800 154.580 C 396.800 153.582,396.548 152.605,396.200 152.257 C 395.844 151.901,395.600 150.923,395.600 149.852 C 395.600 148.859,395.420 147.936,395.200 147.800 C 394.980 147.664,394.800 146.878,394.800 146.053 C 394.800 145.228,394.536 144.204,394.213 143.776 C 393.890 143.349,393.620 142.437,393.613 141.749 C 393.606 141.061,393.330 140.274,393.000 140.000 C 392.670 139.726,392.400 138.888,392.400 138.138 C 392.400 137.295,392.171 136.687,391.800 136.545 C 391.436 136.405,391.200 135.800,391.200 135.006 C 391.200 134.287,390.930 133.474,390.600 133.200 C 390.270 132.926,390.000 132.088,390.000 131.338 C 390.000 130.495,389.771 129.887,389.400 129.745 C 389.029 129.602,388.800 128.994,388.800 128.149 C 388.800 127.382,388.362 126.090,387.800 125.200 C 387.250 124.329,386.800 123.197,386.800 122.684 C 386.800 122.172,386.536 121.404,386.213 120.976 C 385.890 120.549,385.620 119.879,385.613 119.487 C 385.606 119.096,385.330 118.671,385.000 118.545 C 384.670 118.418,384.400 117.878,384.400 117.345 C 384.400 116.811,384.130 116.271,383.800 116.145 C 383.470 116.018,383.200 115.673,383.200 115.378 C 383.200 115.084,382.750 113.996,382.200 112.962 C 381.650 111.927,381.200 110.860,381.200 110.589 C 381.200 110.319,380.930 109.874,380.600 109.600 C 380.270 109.326,380.000 108.786,380.000 108.400 C 380.000 108.014,379.730 107.474,379.400 107.200 C 379.070 106.926,378.800 106.358,378.800 105.938 C 378.800 105.519,378.530 105.071,378.200 104.945 C 377.870 104.818,377.600 104.278,377.600 103.745 C 377.600 103.211,377.330 102.671,377.000 102.545 C 376.670 102.418,376.400 102.005,376.400 101.627 C 376.400 101.249,375.950 100.517,375.400 100.000 C 374.850 99.483,374.400 98.754,374.400 98.379 C 374.400 98.005,374.130 97.474,373.800 97.200 C 373.470 96.926,373.200 96.380,373.200 95.987 C 373.200 95.593,372.660 94.817,372.000 94.261 C 371.340 93.706,370.800 93.004,370.800 92.701 C 370.800 91.744,369.298 89.024,368.432 88.412 C 367.975 88.088,367.600 87.512,367.600 87.130 C 367.600 86.749,366.790 85.639,365.800 84.663 C 364.810 83.687,364.000 82.635,364.000 82.325 C 364.000 82.016,363.280 81.059,362.400 80.200 C 361.520 79.341,360.800 78.351,360.800 78.000 C 360.800 77.649,360.080 76.659,359.200 75.800 C 358.320 74.941,357.600 73.988,357.600 73.683 C 357.600 73.377,356.070 71.584,354.200 69.697 C 352.330 67.810,350.800 66.020,350.800 65.719 C 350.800 64.958,335.406 49.600,334.644 49.600 C 334.303 49.600,332.533 48.071,330.712 46.202 C 328.890 44.332,327.122 42.802,326.783 42.802 C 326.444 42.801,325.372 41.990,324.400 41.000 C 323.428 40.010,322.347 39.200,321.998 39.200 C 321.648 39.200,320.659 38.480,319.800 37.600 C 318.941 36.720,317.959 35.997,317.619 35.993 C 317.278 35.990,316.221 35.180,315.268 34.193 C 314.315 33.207,313.233 32.400,312.863 32.400 C 312.493 32.400,311.852 31.950,311.439 31.400 C 311.026 30.850,310.282 30.400,309.787 30.400 C 309.291 30.400,308.782 30.130,308.655 29.800 C 308.529 29.470,308.048 29.200,307.587 29.200 C 307.126 29.200,306.294 28.660,305.739 28.000 C 305.183 27.340,304.532 26.800,304.291 26.800 C 303.424 26.800,300.336 25.087,299.877 24.351 C 299.619 23.938,299.020 23.600,298.547 23.600 C 298.073 23.600,297.582 23.330,297.455 23.000 C 297.329 22.670,296.789 22.400,296.255 22.400 C 295.722 22.400,295.182 22.130,295.055 21.800 C 294.929 21.470,294.481 21.200,294.062 21.200 C 293.642 21.200,293.074 20.930,292.800 20.600 C 292.526 20.270,292.081 20.000,291.811 20.000 C 291.540 20.000,290.473 19.550,289.438 19.000 C 288.404 18.450,287.292 18.000,286.966 18.000 C 286.641 18.000,286.271 17.730,286.145 17.400 C 286.018 17.070,285.503 16.800,285.000 16.800 C 284.497 16.800,283.982 16.530,283.855 16.200 C 283.729 15.870,283.189 15.600,282.655 15.600 C 282.122 15.600,281.582 15.330,281.455 15.000 C 281.329 14.670,280.904 14.394,280.513 14.387 C 280.121 14.380,279.451 14.110,279.024 13.787 C 278.596 13.464,277.741 13.200,277.124 13.200 C 276.506 13.200,276.000 13.020,276.000 12.800 C 276.000 12.580,275.569 12.400,275.043 12.400 C 274.516 12.400,273.982 12.130,273.855 11.800 C 273.705 11.408,273.082 11.200,272.055 11.200 C 271.029 11.200,270.406 10.992,270.255 10.600 C 270.113 10.229,269.505 10.000,268.662 10.000 C 267.912 10.000,267.074 9.730,266.800 9.400 C 266.526 9.070,265.713 8.800,264.994 8.800 C 264.200 8.800,263.595 8.564,263.455 8.200 C 263.317 7.840,262.701 7.595,261.913 7.587 C 261.191 7.580,260.251 7.310,259.824 6.987 C 259.396 6.664,258.552 6.400,257.947 6.400 C 257.342 6.400,256.736 6.220,256.600 6.000 C 256.464 5.780,255.483 5.600,254.419 5.600 C 253.069 5.600,252.416 5.419,252.255 5.000 C 252.097 4.587,251.452 4.400,250.184 4.400 C 249.081 4.400,248.102 4.160,247.743 3.800 C 247.395 3.452,246.418 3.200,245.420 3.200 C 244.377 3.200,243.502 2.963,243.200 2.600 C 242.868 2.200,241.951 1.996,240.451 1.987 C 239.109 1.980,237.886 1.737,237.424 1.387 C 236.919 1.006,235.702 0.800,233.947 0.800 C 232.462 0.800,231.136 0.620,231.000 0.400 C 230.836 0.135,191.863 0.000,115.376 0.000 L 0.000 0.000 0.000 115.376 M89.200 146.200 C 89.541 146.610,90.450 146.800,92.078 146.800 C 93.659 146.800,94.658 147.001,95.057 147.400 C 95.407 147.750,96.385 148.000,97.405 148.000 C 98.366 148.000,99.264 148.180,99.400 148.400 C 99.536 148.620,100.002 148.800,100.436 148.800 C 100.870 148.800,101.329 149.070,101.455 149.400 C 101.604 149.787,102.223 150.000,103.200 150.000 C 104.177 150.000,104.796 150.213,104.945 150.600 C 105.071 150.930,105.611 151.200,106.145 151.200 C 106.678 151.200,107.218 151.470,107.345 151.800 C 107.471 152.130,107.872 152.400,108.235 152.400 C 108.598 152.400,109.509 152.940,110.261 153.600 C 111.013 154.260,111.855 154.800,112.133 154.800 C 112.410 154.800,113.341 155.520,114.200 156.400 C 115.059 157.280,116.018 158.000,116.330 158.000 C 117.079 158.000,126.000 166.908,126.000 167.655 C 126.000 167.973,126.810 169.028,127.800 170.000 C 128.790 170.972,129.600 171.970,129.600 172.219 C 129.600 172.744,132.009 177.702,132.409 178.000 C 132.556 178.110,132.798 178.695,132.946 179.300 C 133.094 179.905,133.392 180.400,133.608 180.400 C 133.823 180.400,134.000 180.738,134.000 181.151 C 134.000 181.564,134.270 182.126,134.600 182.400 C 134.930 182.674,135.200 183.495,135.200 184.225 C 135.200 184.955,135.380 185.664,135.600 185.800 C 135.820 185.936,136.000 186.722,136.000 187.547 C 136.000 188.372,136.264 189.396,136.587 189.824 C 136.973 190.334,137.179 191.583,137.187 193.471 C 137.196 195.477,137.381 196.524,137.800 196.943 C 138.676 197.819,138.676 208.073,137.800 208.800 C 137.372 209.155,137.196 210.115,137.187 212.149 C 137.179 214.019,136.973 215.267,136.587 215.776 C 136.264 216.204,136.000 217.228,136.000 218.053 C 136.000 218.878,135.820 219.664,135.600 219.800 C 135.380 219.936,135.200 220.737,135.200 221.581 C 135.200 222.575,134.989 223.195,134.600 223.345 C 134.270 223.471,134.000 223.919,134.000 224.338 C 134.000 224.758,133.730 225.326,133.400 225.600 C 133.070 225.874,132.800 226.359,132.800 226.678 C 132.800 226.996,132.530 227.527,132.200 227.857 C 131.870 228.187,131.600 228.804,131.600 229.229 C 131.600 229.653,131.455 230.000,131.277 230.000 C 130.925 230.000,129.600 232.786,129.600 233.526 C 129.600 233.778,128.790 234.730,127.800 235.643 C 126.810 236.555,126.000 237.591,126.000 237.945 C 126.000 238.772,117.214 247.600,116.390 247.600 C 116.047 247.600,114.972 248.410,114.000 249.400 C 113.028 250.390,111.951 251.200,111.606 251.200 C 111.260 251.200,110.659 251.572,110.269 252.028 C 109.879 252.483,109.029 253.041,108.380 253.267 C 107.731 253.493,107.200 253.841,107.200 254.039 C 107.200 254.238,106.853 254.400,106.429 254.400 C 106.004 254.400,105.387 254.670,105.057 255.000 C 104.727 255.330,103.926 255.600,103.278 255.600 C 102.629 255.600,101.874 255.870,101.600 256.200 C 101.326 256.530,100.488 256.800,99.738 256.800 C 98.895 256.800,98.287 257.029,98.145 257.400 C 98.004 257.767,97.397 258.000,96.581 258.000 C 95.847 258.000,95.136 258.180,95.000 258.400 C 94.864 258.620,93.696 258.800,92.405 258.800 C 90.851 258.800,89.854 259.003,89.457 259.400 C 88.676 260.181,73.368 260.304,73.110 259.531 C 73.021 259.263,71.848 258.987,70.377 258.888 C 68.960 258.792,67.629 258.553,67.420 258.357 C 67.211 258.160,66.195 258.000,65.163 258.000 C 63.863 258.000,63.215 257.815,63.055 257.400 C 62.929 257.070,62.389 256.800,61.855 256.800 C 61.322 256.800,60.782 256.530,60.655 256.200 C 60.513 255.829,59.905 255.600,59.062 255.600 C 58.312 255.600,57.474 255.330,57.200 255.000 C 56.926 254.670,56.469 254.400,56.183 254.400 C 55.368 254.400,53.094 253.089,52.194 252.100 C 51.743 251.605,51.020 251.192,50.587 251.183 C 50.154 251.174,49.358 250.634,48.819 249.983 C 48.279 249.332,47.541 248.800,47.178 248.800 C 46.311 248.800,35.200 237.664,35.200 236.795 C 35.200 236.425,34.390 235.386,33.400 234.485 C 32.410 233.584,31.600 232.563,31.600 232.215 C 31.600 231.868,31.150 230.871,30.600 230.000 C 30.050 229.129,29.600 228.164,29.600 227.857 C 29.600 227.549,29.330 227.074,29.000 226.800 C 28.670 226.526,28.400 225.986,28.400 225.600 C 28.400 225.214,28.130 224.674,27.800 224.400 C 27.470 224.126,27.200 223.288,27.200 222.538 C 27.200 221.695,26.971 221.087,26.600 220.945 C 26.209 220.795,26.000 220.172,26.000 219.157 C 26.000 218.301,25.820 217.600,25.600 217.600 C 25.378 217.600,25.200 216.543,25.200 215.229 C 25.200 213.654,24.998 212.656,24.600 212.257 C 23.724 211.381,23.736 194.583,24.613 193.424 C 24.956 192.970,25.200 191.774,25.200 190.547 C 25.200 189.392,25.380 188.336,25.600 188.200 C 25.820 188.064,26.000 187.263,26.000 186.419 C 26.000 185.425,26.211 184.805,26.600 184.655 C 26.971 184.513,27.200 183.905,27.200 183.062 C 27.200 182.312,27.470 181.474,27.800 181.200 C 28.130 180.926,28.400 180.441,28.400 180.122 C 28.400 179.804,28.670 179.273,29.000 178.943 C 29.330 178.613,29.600 177.996,29.600 177.571 C 29.600 177.147,29.745 176.800,29.923 176.800 C 30.275 176.800,31.600 174.014,31.600 173.274 C 31.600 173.022,32.410 172.070,33.400 171.157 C 34.390 170.245,35.200 169.208,35.200 168.854 C 35.200 168.013,46.394 156.800,47.233 156.800 C 47.587 156.800,48.198 156.445,48.591 156.010 C 49.304 155.222,52.302 153.600,53.045 153.600 C 53.261 153.600,53.879 153.068,54.419 152.417 C 55.169 151.512,55.742 151.230,56.857 151.217 C 57.771 151.206,58.400 150.976,58.545 150.600 C 58.671 150.270,59.119 150.000,59.538 150.000 C 59.958 150.000,60.526 149.730,60.800 149.400 C 61.074 149.070,61.895 148.800,62.625 148.800 C 63.355 148.800,64.064 148.620,64.200 148.400 C 64.336 148.180,64.852 148.000,65.347 148.000 C 65.842 148.000,66.596 147.736,67.024 147.413 C 67.535 147.026,68.785 146.821,70.684 146.813 C 72.700 146.804,73.724 146.624,74.084 146.215 C 74.855 145.341,88.476 145.328,89.200 146.200 M203.200 146.200 C 203.491 146.551,204.383 146.805,205.349 146.813 C 206.257 146.820,207.349 147.090,207.776 147.413 C 208.204 147.736,209.048 148.000,209.653 148.000 C 210.258 148.000,210.864 148.180,211.000 148.400 C 211.136 148.620,211.602 148.800,212.036 148.800 C 212.470 148.800,212.929 149.070,213.055 149.400 C 213.182 149.730,213.697 150.000,214.200 150.000 C 214.703 150.000,215.218 150.270,215.345 150.600 C 215.471 150.930,215.946 151.200,216.400 151.200 C 216.853 151.200,217.801 151.857,218.506 152.660 C 219.211 153.462,220.368 154.362,221.078 154.658 C 222.543 155.270,226.399 159.111,226.400 159.960 C 226.400 160.267,227.049 161.149,227.842 161.919 C 228.634 162.689,229.462 163.832,229.681 164.460 C 229.899 165.087,230.241 165.600,230.439 165.600 C 230.638 165.600,230.800 165.947,230.800 166.371 C 230.800 166.796,231.070 167.413,231.400 167.743 C 231.730 168.073,232.000 168.604,232.000 168.922 C 232.000 169.241,232.270 169.726,232.600 170.000 C 232.930 170.274,233.200 171.112,233.200 171.862 C 233.200 172.705,233.429 173.313,233.800 173.455 C 234.263 173.633,234.400 174.403,234.400 176.819 C 234.400 178.543,234.580 180.064,234.800 180.200 C 235.021 180.336,235.200 182.130,235.200 184.200 C 235.200 186.270,235.021 188.064,234.800 188.200 C 234.580 188.336,234.400 189.585,234.400 190.975 C 234.400 192.733,234.217 193.654,233.800 194.000 C 233.420 194.315,233.200 195.198,233.200 196.406 C 233.200 197.733,233.017 198.385,232.600 198.545 C 232.270 198.671,232.000 199.107,232.000 199.513 C 232.000 199.918,231.460 200.768,230.800 201.400 C 230.140 202.032,229.600 202.863,229.600 203.246 C 229.600 203.629,229.150 204.296,228.600 204.729 C 228.050 205.161,227.600 205.794,227.600 206.134 C 227.600 206.828,224.238 210.400,223.585 210.400 C 223.354 210.400,222.300 211.210,221.241 212.200 C 220.183 213.190,219.043 214.000,218.707 214.000 C 218.372 214.000,217.874 214.270,217.600 214.600 C 217.326 214.930,216.505 215.200,215.775 215.200 C 215.045 215.200,214.336 215.380,214.200 215.600 C 214.064 215.820,213.548 216.000,213.053 216.000 C 212.558 216.000,211.804 216.264,211.376 216.587 C 210.949 216.910,209.767 217.180,208.749 217.187 C 207.605 217.195,206.708 217.429,206.400 217.800 C 205.998 218.284,204.753 218.400,199.951 218.400 L 194.000 218.400 194.000 205.000 L 194.000 191.600 196.339 191.600 C 198.982 191.600,200.559 190.951,202.605 189.021 L 204.000 187.706 204.000 183.328 C 204.000 178.469,203.124 175.600,201.640 175.600 C 201.232 175.600,200.674 175.330,200.400 175.000 C 200.007 174.527,198.873 174.400,195.034 174.400 L 190.167 174.400 188.483 176.115 C 187.557 177.058,186.794 178.093,186.787 178.415 C 186.780 178.737,186.510 179.349,186.187 179.776 C 185.680 180.447,185.600 185.848,185.600 219.276 L 185.600 258.000 170.600 258.000 L 155.600 258.000 155.600 218.043 C 155.600 182.894,155.672 178.058,156.200 177.855 C 156.613 177.697,156.800 177.052,156.800 175.784 C 156.800 174.681,157.040 173.702,157.400 173.343 C 157.730 173.013,158.000 172.346,158.000 171.860 C 158.000 171.375,158.720 169.570,159.600 167.849 C 160.480 166.129,161.200 164.569,161.200 164.384 C 161.200 164.199,162.010 163.225,163.000 162.221 C 163.990 161.217,164.800 160.126,164.800 159.798 C 164.800 159.469,165.059 159.200,165.375 159.200 C 165.692 159.200,167.208 157.940,168.745 156.400 C 170.282 154.860,171.789 153.600,172.095 153.600 C 172.400 153.600,173.168 153.060,173.800 152.400 C 174.432 151.740,175.254 151.200,175.626 151.200 C 175.998 151.200,176.526 150.930,176.800 150.600 C 177.074 150.270,177.642 150.000,178.062 150.000 C 178.481 150.000,178.929 149.730,179.055 149.400 C 179.182 149.070,179.706 148.800,180.219 148.800 C 180.733 148.800,181.264 148.620,181.400 148.400 C 181.536 148.180,182.052 148.000,182.547 148.000 C 183.042 148.000,183.796 147.736,184.224 147.413 C 184.690 147.060,185.913 146.820,187.284 146.813 C 188.773 146.804,189.748 146.596,190.084 146.215 C 190.851 145.346,202.480 145.332,203.200 146.200 M324.400 162.400 L 324.400 176.800 311.880 176.800 C 302.676 176.800,299.233 176.927,298.880 177.280 C 298.513 177.647,298.400 187.209,298.400 217.880 L 298.400 258.000 283.400 258.000 L 268.400 258.000 268.400 217.880 C 268.400 187.209,268.287 177.647,267.920 177.280 C 267.567 176.927,264.124 176.800,254.920 176.800 L 242.400 176.800 242.400 162.400 L 242.400 148.000 283.400 148.000 L 324.400 148.000 324.400 162.400 M369.600 203.000 L 369.600 258.000 354.400 258.000 L 339.200 258.000 339.200 203.000 L 339.200 148.000 354.400 148.000 L 369.600 148.000 369.600 203.000 M73.457 176.200 C 73.127 176.530,72.326 176.800,71.678 176.800 C 71.029 176.800,70.274 177.070,70.000 177.400 C 69.726 177.730,69.282 178.000,69.012 178.000 C 67.421 178.000,58.400 185.746,58.400 187.113 C 58.400 187.319,57.860 188.499,57.200 189.736 C 56.540 190.973,56.000 192.338,56.000 192.769 C 56.000 193.200,55.820 193.664,55.600 193.800 C 55.380 193.936,55.200 195.185,55.200 196.575 C 55.200 198.333,55.017 199.254,54.600 199.600 C 54.174 199.953,54.000 200.888,54.000 202.820 C 54.000 204.707,54.184 205.727,54.600 206.143 C 55.000 206.543,55.200 207.543,55.200 209.148 C 55.200 210.471,55.380 211.664,55.600 211.800 C 55.820 211.936,56.000 212.452,56.000 212.947 C 56.000 213.442,56.264 214.196,56.587 214.624 C 56.910 215.051,57.180 215.681,57.187 216.025 C 57.194 216.369,57.740 217.168,58.400 217.800 C 59.060 218.432,59.604 219.231,59.610 219.575 C 59.621 220.271,66.035 226.800,66.708 226.800 C 67.268 226.800,69.762 228.114,69.933 228.500 C 70.007 228.665,70.752 228.800,71.591 228.800 C 72.576 228.800,73.196 229.012,73.345 229.400 C 73.538 229.904,74.791 230.000,81.200 230.000 C 87.609 230.000,88.862 229.904,89.055 229.400 C 89.182 229.070,89.773 228.800,90.368 228.800 C 91.963 228.800,94.512 227.434,95.930 225.819 C 96.615 225.038,97.472 224.400,97.835 224.400 C 98.644 224.400,101.600 221.512,101.600 220.722 C 101.600 220.407,102.140 219.632,102.800 219.000 C 103.460 218.368,104.000 217.629,104.000 217.358 C 104.000 216.747,105.291 214.249,105.700 214.067 C 105.865 213.993,106.000 213.248,106.000 212.409 C 106.000 211.424,106.212 210.804,106.600 210.655 C 107.103 210.462,107.200 209.236,107.200 203.041 C 107.200 197.011,107.090 195.547,106.600 195.057 C 106.270 194.727,106.000 194.028,106.000 193.505 C 106.000 192.197,103.335 186.891,102.378 186.293 C 101.950 186.026,101.600 185.460,101.600 185.035 C 101.600 184.176,97.473 180.000,96.624 180.000 C 96.327 180.000,95.660 179.553,95.142 179.007 C 94.624 178.461,93.814 178.011,93.343 178.007 C 92.871 178.003,92.382 177.730,92.255 177.400 C 92.113 177.029,91.505 176.800,90.662 176.800 C 89.912 176.800,89.074 176.530,88.800 176.200 C 88.391 175.708,87.023 175.600,81.180 175.600 C 75.382 175.600,73.946 175.712,73.457 176.200 " stroke="none" fill="#000000" fill-rule="evenodd"></path><path id="path1" d="M0.000 115.376 C 0.000 191.863,0.135 230.836,0.400 231.000 C 0.620 231.136,0.800 232.462,0.800 233.947 C 0.800 235.702,1.006 236.919,1.387 237.424 C 1.737 237.886,1.980 239.109,1.987 240.451 C 1.996 241.951,2.200 242.868,2.600 243.200 C 2.963 243.502,3.200 244.377,3.200 245.420 C 3.200 246.418,3.452 247.395,3.800 247.743 C 4.160 248.102,4.400 249.081,4.400 250.184 C 4.400 251.452,4.587 252.097,5.000 252.255 C 5.419 252.416,5.600 253.069,5.600 254.419 C 5.600 255.483,5.780 256.464,6.000 256.600 C 6.220 256.736,6.400 257.342,6.400 257.947 C 6.400 258.552,6.664 259.396,6.987 259.824 C 7.310 260.251,7.580 261.082,7.587 261.671 C 7.594 262.261,7.870 263.013,8.200 263.343 C 8.530 263.673,8.800 264.474,8.800 265.122 C 8.800 265.771,9.070 266.526,9.400 266.800 C 9.730 267.074,10.000 267.912,10.000 268.662 C 10.000 269.505,10.229 270.113,10.600 270.255 C 10.992 270.406,11.200 271.029,11.200 272.055 C 11.200 273.082,11.408 273.705,11.800 273.855 C 12.130 273.982,12.400 274.516,12.400 275.043 C 12.400 275.569,12.580 276.000,12.800 276.000 C 13.020 276.000,13.200 276.436,13.200 276.968 C 13.200 277.850,15.795 283.528,16.415 284.000 C 16.559 284.110,16.798 284.695,16.946 285.300 C 17.094 285.905,17.392 286.400,17.608 286.400 C 17.823 286.400,18.000 286.652,18.000 286.960 C 18.000 287.268,18.720 288.929,19.600 290.649 C 20.480 292.370,21.200 294.014,21.200 294.301 C 21.200 294.589,21.470 294.929,21.800 295.055 C 22.130 295.182,22.400 295.722,22.400 296.255 C 22.400 296.789,22.670 297.329,23.000 297.455 C 23.330 297.582,23.600 297.998,23.600 298.381 C 23.600 298.763,23.960 299.402,24.401 299.801 C 24.841 300.199,25.720 301.622,26.355 302.963 C 26.989 304.303,27.889 305.743,28.354 306.162 C 28.819 306.581,29.200 307.262,29.200 307.675 C 29.200 308.087,29.470 308.529,29.800 308.655 C 30.130 308.782,30.403 309.271,30.407 309.743 C 30.411 310.214,30.861 311.024,31.407 311.542 C 31.953 312.060,32.400 312.721,32.400 313.010 C 32.400 313.300,33.210 314.347,34.200 315.337 C 35.190 316.327,36.000 317.385,36.000 317.687 C 36.000 317.990,36.720 318.941,37.600 319.800 C 38.480 320.659,39.200 321.663,39.200 322.030 C 39.200 322.398,40.010 323.445,41.000 324.357 C 41.990 325.270,42.800 326.313,42.800 326.675 C 42.800 327.037,44.330 328.849,46.200 330.702 C 48.070 332.556,49.600 334.335,49.600 334.656 C 49.600 335.408,64.985 350.800,65.737 350.800 C 66.049 350.800,67.831 352.330,69.697 354.200 C 71.563 356.070,73.348 357.600,73.664 357.600 C 73.979 357.600,74.941 358.320,75.800 359.200 C 76.659 360.080,77.649 360.800,78.000 360.800 C 78.351 360.800,79.341 361.520,80.200 362.400 C 81.059 363.280,82.014 364.000,82.321 364.000 C 82.629 364.000,83.702 364.810,84.706 365.800 C 85.710 366.790,86.797 367.600,87.120 367.600 C 87.444 367.600,88.095 368.018,88.568 368.528 C 89.525 369.560,91.779 370.791,92.761 370.817 C 93.113 370.826,93.842 371.366,94.381 372.017 C 94.921 372.668,95.664 373.200,96.032 373.200 C 96.401 373.200,96.926 373.470,97.200 373.800 C 97.474 374.130,98.005 374.400,98.379 374.400 C 98.754 374.400,99.483 374.850,100.000 375.400 C 100.517 375.950,101.249 376.400,101.627 376.400 C 102.005 376.400,102.418 376.670,102.545 377.000 C 102.671 377.330,103.211 377.600,103.745 377.600 C 104.278 377.600,104.818 377.870,104.945 378.200 C 105.071 378.530,105.611 378.800,106.145 378.800 C 106.678 378.800,107.218 379.070,107.345 379.400 C 107.471 379.730,107.919 380.000,108.338 380.000 C 108.758 380.000,109.326 380.270,109.600 380.600 C 109.874 380.930,110.331 381.200,110.617 381.200 C 111.247 381.200,113.748 382.482,113.933 382.900 C 114.007 383.065,114.482 383.200,114.991 383.200 C 115.499 383.200,116.018 383.470,116.145 383.800 C 116.271 384.130,116.811 384.400,117.345 384.400 C 117.878 384.400,118.418 384.670,118.545 385.000 C 118.671 385.330,119.119 385.600,119.538 385.600 C 119.958 385.600,120.526 385.870,120.800 386.200 C 121.074 386.530,121.801 386.800,122.417 386.800 C 123.514 386.800,126.071 387.910,126.333 388.500 C 126.407 388.665,127.152 388.800,127.991 388.800 C 128.976 388.800,129.596 389.012,129.745 389.400 C 129.887 389.771,130.495 390.000,131.338 390.000 C 132.088 390.000,132.926 390.270,133.200 390.600 C 133.474 390.930,134.287 391.200,135.006 391.200 C 135.800 391.200,136.405 391.436,136.545 391.800 C 136.687 392.171,137.295 392.400,138.138 392.400 C 138.888 392.400,139.726 392.670,140.000 393.000 C 140.274 393.330,141.061 393.606,141.749 393.613 C 142.437 393.620,143.349 393.890,143.776 394.213 C 144.204 394.536,145.228 394.800,146.053 394.800 C 146.878 394.800,147.664 394.980,147.800 395.200 C 147.936 395.420,148.942 395.600,150.036 395.600 C 151.435 395.600,152.093 395.778,152.255 396.200 C 152.415 396.617,153.067 396.800,154.394 396.800 C 155.602 396.800,156.485 397.020,156.800 397.400 C 157.159 397.832,158.108 398.000,160.200 398.000 C 162.292 398.000,163.241 398.168,163.600 398.600 C 163.938 399.008,164.845 399.200,166.425 399.200 C 167.705 399.200,168.864 399.380,169.000 399.600 C 169.161 399.861,179.930 400.000,200.000 400.000 C 220.070 400.000,230.839 399.861,231.000 399.600 C 231.136 399.380,232.565 399.200,234.175 399.200 C 236.289 399.200,237.240 399.033,237.600 398.600 C 237.937 398.194,238.842 398.000,240.400 398.000 C 241.958 398.000,242.863 397.806,243.200 397.400 C 243.519 397.016,244.404 396.800,245.662 396.800 C 247.038 396.800,247.694 396.621,247.855 396.200 C 248.016 395.781,248.669 395.600,250.019 395.600 C 251.083 395.600,252.064 395.420,252.200 395.200 C 252.336 394.980,253.234 394.800,254.195 394.800 C 255.215 394.800,256.193 394.550,256.543 394.200 C 256.873 393.870,257.674 393.600,258.322 393.600 C 258.971 393.600,259.726 393.330,260.000 393.000 C 260.274 392.670,261.112 392.400,261.862 392.400 C 262.705 392.400,263.313 392.171,263.455 391.800 C 263.604 391.413,264.223 391.200,265.200 391.200 C 266.177 391.200,266.796 390.987,266.945 390.600 C 267.090 390.222,267.702 390.000,268.600 390.000 C 269.498 390.000,270.110 389.778,270.255 389.400 C 270.391 389.048,270.990 388.800,271.708 388.800 C 273.040 388.800,276.000 387.643,276.000 387.123 C 276.000 386.945,276.608 386.800,277.351 386.800 C 278.094 386.800,278.926 386.530,279.200 386.200 C 279.474 385.870,280.042 385.600,280.462 385.600 C 280.881 385.600,281.329 385.330,281.455 385.000 C 281.582 384.670,282.122 384.400,282.655 384.400 C 283.189 384.400,283.729 384.130,283.855 383.800 C 283.982 383.470,284.412 383.200,284.810 383.200 C 285.599 383.200,288.118 381.985,288.333 381.500 C 288.407 381.335,288.790 381.200,289.184 381.200 C 289.579 381.200,290.126 380.930,290.400 380.600 C 290.674 380.270,291.214 380.000,291.600 380.000 C 291.986 380.000,292.526 379.730,292.800 379.400 C 293.074 379.070,293.642 378.800,294.062 378.800 C 294.481 378.800,294.929 378.530,295.055 378.200 C 295.182 377.870,295.722 377.600,296.255 377.600 C 296.789 377.600,297.329 377.330,297.455 377.000 C 297.582 376.670,298.035 376.400,298.462 376.400 C 298.889 376.400,299.655 375.950,300.165 375.400 C 300.675 374.850,301.364 374.400,301.697 374.400 C 302.030 374.400,302.526 374.130,302.800 373.800 C 303.074 373.470,303.602 373.200,303.974 373.200 C 304.346 373.200,305.168 372.660,305.800 372.000 C 306.432 371.340,307.152 370.800,307.400 370.800 C 308.207 370.800,310.992 369.293,311.767 368.437 C 312.183 367.976,312.797 367.600,313.131 367.600 C 313.464 367.600,314.513 366.790,315.462 365.800 C 316.410 364.810,317.446 364.000,317.762 364.000 C 318.079 364.000,319.044 363.280,319.907 362.400 C 320.769 361.520,321.740 360.800,322.063 360.800 C 322.386 360.800,323.168 360.260,323.800 359.600 C 324.432 358.940,325.231 358.398,325.575 358.395 C 325.919 358.392,327.898 356.682,329.973 354.595 C 332.048 352.508,334.004 350.800,334.320 350.800 C 335.067 350.800,350.800 335.061,350.800 334.314 C 350.800 334.001,352.508 332.048,354.595 329.973 C 356.682 327.898,358.392 325.919,358.395 325.575 C 358.398 325.231,358.940 324.432,359.600 323.800 C 360.260 323.168,360.800 322.386,360.800 322.063 C 360.800 321.740,361.520 320.769,362.400 319.907 C 363.280 319.044,364.000 318.082,364.000 317.769 C 364.000 317.455,364.692 316.524,365.538 315.700 C 366.384 314.875,367.394 313.525,367.784 312.700 C 368.173 311.875,368.646 311.200,368.836 311.200 C 369.213 311.200,370.800 308.128,370.800 307.400 C 370.800 307.152,371.340 306.432,372.000 305.800 C 372.660 305.168,373.200 304.346,373.200 303.974 C 373.200 303.602,373.470 303.074,373.800 302.800 C 374.130 302.526,374.400 302.007,374.400 301.646 C 374.400 301.285,374.850 300.652,375.400 300.239 C 375.950 299.826,376.400 299.082,376.400 298.587 C 376.400 298.091,376.670 297.582,377.000 297.455 C 377.330 297.329,377.600 296.789,377.600 296.255 C 377.600 295.722,377.870 295.182,378.200 295.055 C 378.530 294.929,378.800 294.481,378.800 294.062 C 378.800 293.642,379.070 293.074,379.400 292.800 C 379.730 292.526,380.000 291.986,380.000 291.600 C 380.000 291.214,380.270 290.674,380.600 290.400 C 380.930 290.126,381.200 289.579,381.200 289.184 C 381.200 288.790,381.335 288.407,381.500 288.333 C 381.985 288.118,383.200 285.599,383.200 284.810 C 383.200 284.412,383.470 283.982,383.800 283.855 C 384.130 283.729,384.400 283.281,384.400 282.862 C 384.400 282.442,384.670 281.874,385.000 281.600 C 385.330 281.326,385.600 280.786,385.600 280.400 C 385.600 280.014,385.870 279.474,386.200 279.200 C 386.530 278.926,386.800 278.094,386.800 277.351 C 386.800 276.608,386.945 276.000,387.123 276.000 C 387.643 276.000,388.800 273.040,388.800 271.708 C 388.800 270.990,389.048 270.391,389.400 270.255 C 389.755 270.119,390.000 269.518,390.000 268.784 C 390.000 268.101,390.270 267.273,390.600 266.943 C 390.930 266.613,391.200 265.838,391.200 265.220 C 391.200 264.603,391.470 263.874,391.800 263.600 C 392.130 263.326,392.400 262.516,392.400 261.800 C 392.400 261.084,392.670 260.274,393.000 260.000 C 393.330 259.726,393.600 258.971,393.600 258.322 C 393.600 257.674,393.870 256.873,394.200 256.543 C 394.550 256.193,394.800 255.215,394.800 254.195 C 394.800 253.234,394.980 252.336,395.200 252.200 C 395.420 252.064,395.600 251.083,395.600 250.019 C 395.600 248.669,395.781 248.016,396.200 247.855 C 396.621 247.694,396.800 247.038,396.800 245.662 C 396.800 244.404,397.016 243.519,397.400 243.200 C 397.800 242.868,398.004 241.951,398.013 240.451 C 398.020 239.109,398.263 237.886,398.613 237.424 C 398.994 236.919,399.200 235.702,399.200 233.947 C 399.200 232.462,399.380 231.136,399.600 231.000 C 399.861 230.839,400.000 220.070,400.000 200.000 C 400.000 179.930,399.861 169.161,399.600 169.000 C 399.380 168.864,399.200 167.808,399.200 166.653 C 399.200 165.426,398.956 164.230,398.613 163.776 C 398.227 163.267,398.021 162.019,398.013 160.149 C 398.004 158.115,397.828 157.155,397.400 156.800 C 397.037 156.498,396.800 155.623,396.800 154.580 C 396.800 153.582,396.548 152.605,396.200 152.257 C 395.844 151.901,395.600 150.923,395.600 149.852 C 395.600 148.859,395.420 147.936,395.200 147.800 C 394.980 147.664,394.800 146.878,394.800 146.053 C 394.800 145.228,394.536 144.204,394.213 143.776 C 393.890 143.349,393.620 142.437,393.613 141.749 C 393.606 141.061,393.330 140.274,393.000 140.000 C 392.670 139.726,392.400 138.888,392.400 138.138 C 392.400 137.295,392.171 136.687,391.800 136.545 C 391.436 136.405,391.200 135.800,391.200 135.006 C 391.200 134.287,390.930 133.474,390.600 133.200 C 390.270 132.926,390.000 132.088,390.000 131.338 C 390.000 130.495,389.771 129.887,389.400 129.745 C 389.029 129.602,388.800 128.994,388.800 128.149 C 388.800 127.382,388.362 126.090,387.800 125.200 C 387.250 124.329,386.800 123.197,386.800 122.684 C 386.800 122.172,386.536 121.404,386.213 120.976 C 385.890 120.549,385.620 119.879,385.613 119.487 C 385.606 119.096,385.330 118.671,385.000 118.545 C 384.670 118.418,384.400 117.878,384.400 117.345 C 384.400 116.811,384.130 116.271,383.800 116.145 C 383.470 116.018,383.200 115.673,383.200 115.378 C 383.200 115.084,382.750 113.996,382.200 112.962 C 381.650 111.927,381.200 110.860,381.200 110.589 C 381.200 110.319,380.930 109.874,380.600 109.600 C 380.270 109.326,380.000 108.786,380.000 108.400 C 380.000 108.014,379.730 107.474,379.400 107.200 C 379.070 106.926,378.800 106.358,378.800 105.938 C 378.800 105.519,378.530 105.071,378.200 104.945 C 377.870 104.818,377.600 104.278,377.600 103.745 C 377.600 103.211,377.330 102.671,377.000 102.545 C 376.670 102.418,376.400 102.005,376.400 101.627 C 376.400 101.249,375.950 100.517,375.400 100.000 C 374.850 99.483,374.400 98.754,374.400 98.379 C 374.400 98.005,374.130 97.474,373.800 97.200 C 373.470 96.926,373.200 96.380,373.200 95.987 C 373.200 95.593,372.660 94.817,372.000 94.261 C 371.340 93.706,370.800 93.004,370.800 92.701 C 370.800 91.744,369.298 89.024,368.432 88.412 C 367.975 88.088,367.600 87.512,367.600 87.130 C 367.600 86.749,366.790 85.639,365.800 84.663 C 364.810 83.687,364.000 82.635,364.000 82.325 C 364.000 82.016,363.280 81.059,362.400 80.200 C 361.520 79.341,360.800 78.351,360.800 78.000 C 360.800 77.649,360.080 76.659,359.200 75.800 C 358.320 74.941,357.600 73.988,357.600 73.683 C 357.600 73.377,356.070 71.584,354.200 69.697 C 352.330 67.810,350.800 66.020,350.800 65.719 C 350.800 64.958,335.406 49.600,334.644 49.600 C 334.303 49.600,332.533 48.071,330.712 46.202 C 328.890 44.332,327.122 42.802,326.783 42.802 C 326.444 42.801,325.372 41.990,324.400 41.000 C 323.428 40.010,322.347 39.200,321.998 39.200 C 321.648 39.200,320.659 38.480,319.800 37.600 C 318.941 36.720,317.959 35.997,317.619 35.993 C 317.278 35.990,316.221 35.180,315.268 34.193 C 314.315 33.207,313.233 32.400,312.863 32.400 C 312.493 32.400,311.852 31.950,311.439 31.400 C 311.026 30.850,310.282 30.400,309.787 30.400 C 309.291 30.400,308.782 30.130,308.655 29.800 C 308.529 29.470,308.048 29.200,307.587 29.200 C 307.126 29.200,306.294 28.660,305.739 28.000 C 305.183 27.340,304.532 26.800,304.291 26.800 C 303.424 26.800,300.336 25.087,299.877 24.351 C 299.619 23.938,299.020 23.600,298.547 23.600 C 298.073 23.600,297.582 23.330,297.455 23.000 C 297.329 22.670,296.789 22.400,296.255 22.400 C 295.722 22.400,295.182 22.130,295.055 21.800 C 294.929 21.470,294.481 21.200,294.062 21.200 C 293.642 21.200,293.074 20.930,292.800 20.600 C 292.526 20.270,292.081 20.000,291.811 20.000 C 291.540 20.000,290.473 19.550,289.438 19.000 C 288.404 18.450,287.292 18.000,286.966 18.000 C 286.641 18.000,286.271 17.730,286.145 17.400 C 286.018 17.070,285.503 16.800,285.000 16.800 C 284.497 16.800,283.982 16.530,283.855 16.200 C 283.729 15.870,283.189 15.600,282.655 15.600 C 282.122 15.600,281.582 15.330,281.455 15.000 C 281.329 14.670,280.904 14.394,280.513 14.387 C 280.121 14.380,279.451 14.110,279.024 13.787 C 278.596 13.464,277.741 13.200,277.124 13.200 C 276.506 13.200,276.000 13.020,276.000 12.800 C 276.000 12.580,275.569 12.400,275.043 12.400 C 274.516 12.400,273.982 12.130,273.855 11.800 C 273.705 11.408,273.082 11.200,272.055 11.200 C 271.029 11.200,270.406 10.992,270.255 10.600 C 270.113 10.229,269.505 10.000,268.662 10.000 C 267.912 10.000,267.074 9.730,266.800 9.400 C 266.526 9.070,265.713 8.800,264.994 8.800 C 264.200 8.800,263.595 8.564,263.455 8.200 C 263.317 7.840,262.701 7.595,261.913 7.587 C 261.191 7.580,260.251 7.310,259.824 6.987 C 259.396 6.664,258.552 6.400,257.947 6.400 C 257.342 6.400,256.736 6.220,256.600 6.000 C 256.464 5.780,255.483 5.600,254.419 5.600 C 253.069 5.600,252.416 5.419,252.255 5.000 C 252.097 4.587,251.452 4.400,250.184 4.400 C 249.081 4.400,248.102 4.160,247.743 3.800 C 247.395 3.452,246.418 3.200,245.420 3.200 C 244.377 3.200,243.502 2.963,243.200 2.600 C 242.868 2.200,241.951 1.996,240.451 1.987 C 239.109 1.980,237.886 1.737,237.424 1.387 C 236.919 1.006,235.702 0.800,233.947 0.800 C 232.462 0.800,231.136 0.620,231.000 0.400 C 230.836 0.135,191.863 0.000,115.376 0.000 L 0.000 0.000 0.000 115.376 M89.200 146.200 C 89.541 146.610,90.450 146.800,92.078 146.800 C 93.659 146.800,94.658 147.001,95.057 147.400 C 95.407 147.750,96.385 148.000,97.405 148.000 C 98.366 148.000,99.264 148.180,99.400 148.400 C 99.536 148.620,100.002 148.800,100.436 148.800 C 100.870 148.800,101.329 149.070,101.455 149.400 C 101.604 149.787,102.223 150.000,103.200 150.000 C 104.177 150.000,104.796 150.213,104.945 150.600 C 105.071 150.930,105.611 151.200,106.145 151.200 C 106.678 151.200,107.218 151.470,107.345 151.800 C 107.471 152.130,107.872 152.400,108.235 152.400 C 108.598 152.400,109.509 152.940,110.261 153.600 C 111.013 154.260,111.855 154.800,112.133 154.800 C 112.410 154.800,113.341 155.520,114.200 156.400 C 115.059 157.280,116.018 158.000,116.330 158.000 C 117.079 158.000,126.000 166.908,126.000 167.655 C 126.000 167.973,126.810 169.028,127.800 170.000 C 128.790 170.972,129.600 171.970,129.600 172.219 C 129.600 172.744,132.009 177.702,132.409 178.000 C 132.556 178.110,132.798 178.695,132.946 179.300 C 133.094 179.905,133.392 180.400,133.608 180.400 C 133.823 180.400,134.000 180.738,134.000 181.151 C 134.000 181.564,134.270 182.126,134.600 182.400 C 134.930 182.674,135.200 183.495,135.200 184.225 C 135.200 184.955,135.380 185.664,135.600 185.800 C 135.820 185.936,136.000 186.722,136.000 187.547 C 136.000 188.372,136.264 189.396,136.587 189.824 C 136.973 190.334,137.179 191.583,137.187 193.471 C 137.196 195.477,137.381 196.524,137.800 196.943 C 138.676 197.819,138.676 208.073,137.800 208.800 C 137.372 209.155,137.196 210.115,137.187 212.149 C 137.179 214.019,136.973 215.267,136.587 215.776 C 136.264 216.204,136.000 217.228,136.000 218.053 C 136.000 218.878,135.820 219.664,135.600 219.800 C 135.380 219.936,135.200 220.737,135.200 221.581 C 135.200 222.575,134.989 223.195,134.600 223.345 C 134.270 223.471,134.000 223.919,134.000 224.338 C 134.000 224.758,133.730 225.326,133.400 225.600 C 133.070 225.874,132.800 226.359,132.800 226.678 C 132.800 226.996,132.530 227.527,132.200 227.857 C 131.870 228.187,131.600 228.804,131.600 229.229 C 131.600 229.653,131.455 230.000,131.277 230.000 C 130.925 230.000,129.600 232.786,129.600 233.526 C 129.600 233.778,128.790 234.730,127.800 235.643 C 126.810 236.555,126.000 237.591,126.000 237.945 C 126.000 238.772,117.214 247.600,116.390 247.600 C 116.047 247.600,114.972 248.410,114.000 249.400 C 113.028 250.390,111.951 251.200,111.606 251.200 C 111.260 251.200,110.659 251.572,110.269 252.028 C 109.879 252.483,109.029 253.041,108.380 253.267 C 107.731 253.493,107.200 253.841,107.200 254.039 C 107.200 254.238,106.853 254.400,106.429 254.400 C 106.004 254.400,105.387 254.670,105.057 255.000 C 104.727 255.330,103.926 255.600,103.278 255.600 C 102.629 255.600,101.874 255.870,101.600 256.200 C 101.326 256.530,100.488 256.800,99.738 256.800 C 98.895 256.800,98.287 257.029,98.145 257.400 C 98.004 257.767,97.397 258.000,96.581 258.000 C 95.847 258.000,95.136 258.180,95.000 258.400 C 94.864 258.620,93.696 258.800,92.405 258.800 C 90.851 258.800,89.854 259.003,89.457 259.400 C 88.676 260.181,73.368 260.304,73.110 259.531 C 73.021 259.263,71.848 258.987,70.377 258.888 C 68.960 258.792,67.629 258.553,67.420 258.357 C 67.211 258.160,66.195 258.000,65.163 258.000 C 63.863 258.000,63.215 257.815,63.055 257.400 C 62.929 257.070,62.389 256.800,61.855 256.800 C 61.322 256.800,60.782 256.530,60.655 256.200 C 60.513 255.829,59.905 255.600,59.062 255.600 C 58.312 255.600,57.474 255.330,57.200 255.000 C 56.926 254.670,56.469 254.400,56.183 254.400 C 55.368 254.400,53.094 253.089,52.194 252.100 C 51.743 251.605,51.020 251.192,50.587 251.183 C 50.154 251.174,49.358 250.634,48.819 249.983 C 48.279 249.332,47.541 248.800,47.178 248.800 C 46.311 248.800,35.200 237.664,35.200 236.795 C 35.200 236.425,34.390 235.386,33.400 234.485 C 32.410 233.584,31.600 232.563,31.600 232.215 C 31.600 231.868,31.150 230.871,30.600 230.000 C 30.050 229.129,29.600 228.164,29.600 227.857 C 29.600 227.549,29.330 227.074,29.000 226.800 C 28.670 226.526,28.400 225.986,28.400 225.600 C 28.400 225.214,28.130 224.674,27.800 224.400 C 27.470 224.126,27.200 223.288,27.200 222.538 C 27.200 221.695,26.971 221.087,26.600 220.945 C 26.209 220.795,26.000 220.172,26.000 219.157 C 26.000 218.301,25.820 217.600,25.600 217.600 C 25.378 217.600,25.200 216.543,25.200 215.229 C 25.200 213.654,24.998 212.656,24.600 212.257 C 23.724 211.381,23.736 194.583,24.613 193.424 C 24.956 192.970,25.200 191.774,25.200 190.547 C 25.200 189.392,25.380 188.336,25.600 188.200 C 25.820 188.064,26.000 187.263,26.000 186.419 C 26.000 185.425,26.211 184.805,26.600 184.655 C 26.971 184.513,27.200 183.905,27.200 183.062 C 27.200 182.312,27.470 181.474,27.800 181.200 C 28.130 180.926,28.400 180.441,28.400 180.122 C 28.400 179.804,28.670 179.273,29.000 178.943 C 29.330 178.613,29.600 177.996,29.600 177.571 C 29.600 177.147,29.745 176.800,29.923 176.800 C 30.275 176.800,31.600 174.014,31.600 173.274 C 31.600 173.022,32.410 172.070,33.400 171.157 C 34.390 170.245,35.200 169.208,35.200 168.854 C 35.200 168.013,46.394 156.800,47.233 156.800 C 47.587 156.800,48.198 156.445,48.591 156.010 C 49.304 155.222,52.302 153.600,53.045 153.600 C 53.261 153.600,53.879 153.068,54.419 152.417 C 55.169 151.512,55.742 151.230,56.857 151.217 C 57.771 151.206,58.400 150.976,58.545 150.600 C 58.671 150.270,59.119 150.000,59.538 150.000 C 59.958 150.000,60.526 149.730,60.800 149.400 C 61.074 149.070,61.895 148.800,62.625 148.800 C 63.355 148.800,64.064 148.620,64.200 148.400 C 64.336 148.180,64.852 148.000,65.347 148.000 C 65.842 148.000,66.596 147.736,67.024 147.413 C 67.535 147.026,68.785 146.821,70.684 146.813 C 72.700 146.804,73.724 146.624,74.084 146.215 C 74.855 145.341,88.476 145.328,89.200 146.200 M203.200 146.200 C 203.491 146.551,204.383 146.805,205.349 146.813 C 206.257 146.820,207.349 147.090,207.776 147.413 C 208.204 147.736,209.048 148.000,209.653 148.000 C 210.258 148.000,210.864 148.180,211.000 148.400 C 211.136 148.620,211.602 148.800,212.036 148.800 C 212.470 148.800,212.929 149.070,213.055 149.400 C 213.182 149.730,213.697 150.000,214.200 150.000 C 214.703 150.000,215.218 150.270,215.345 150.600 C 215.471 150.930,215.946 151.200,216.400 151.200 C 216.853 151.200,217.801 151.857,218.506 152.660 C 219.211 153.462,220.368 154.362,221.078 154.658 C 222.543 155.270,226.399 159.111,226.400 159.960 C 226.400 160.267,227.049 161.149,227.842 161.919 C 228.634 162.689,229.462 163.832,229.681 164.460 C 229.899 165.087,230.241 165.600,230.439 165.600 C 230.638 165.600,230.800 165.947,230.800 166.371 C 230.800 166.796,231.070 167.413,231.400 167.743 C 231.730 168.073,232.000 168.604,232.000 168.922 C 232.000 169.241,232.270 169.726,232.600 170.000 C 232.930 170.274,233.200 171.112,233.200 171.862 C 233.200 172.705,233.429 173.313,233.800 173.455 C 234.263 173.633,234.400 174.403,234.400 176.819 C 234.400 178.543,234.580 180.064,234.800 180.200 C 235.021 180.336,235.200 182.130,235.200 184.200 C 235.200 186.270,235.021 188.064,234.800 188.200 C 234.580 188.336,234.400 189.585,234.400 190.975 C 234.400 192.733,234.217 193.654,233.800 194.000 C 233.420 194.315,233.200 195.198,233.200 196.406 C 233.200 197.733,233.017 198.385,232.600 198.545 C 232.270 198.671,232.000 199.107,232.000 199.513 C 232.000 199.918,231.460 200.768,230.800 201.400 C 230.140 202.032,229.600 202.863,229.600 203.246 C 229.600 203.629,229.150 204.296,228.600 204.729 C 228.050 205.161,227.600 205.794,227.600 206.134 C 227.600 206.828,224.238 210.400,223.585 210.400 C 223.354 210.400,222.300 211.210,221.241 212.200 C 220.183 213.190,219.043 214.000,218.707 214.000 C 218.372 214.000,217.874 214.270,217.600 214.600 C 217.326 214.930,216.505 215.200,215.775 215.200 C 215.045 215.200,214.336 215.380,214.200 215.600 C 214.064 215.820,213.548 216.000,213.053 216.000 C 212.558 216.000,211.804 216.264,211.376 216.587 C 210.949 216.910,209.767 217.180,208.749 217.187 C 207.605 217.195,206.708 217.429,206.400 217.800 C 205.998 218.284,204.753 218.400,199.951 218.400 L 194.000 218.400 194.000 205.000 L 194.000 191.600 196.339 191.600 C 198.982 191.600,200.559 190.951,202.605 189.021 L 204.000 187.706 204.000 183.328 C 204.000 178.469,203.124 175.600,201.640 175.600 C 201.232 175.600,200.674 175.330,200.400 175.000 C 200.007 174.527,198.873 174.400,195.034 174.400 L 190.167 174.400 188.483 176.115 C 187.557 177.058,186.794 178.093,186.787 178.415 C 186.780 178.737,186.510 179.349,186.187 179.776 C 185.680 180.447,185.600 185.848,185.600 219.276 L 185.600 258.000 170.600 258.000 L 155.600 258.000 155.600 218.043 C 155.600 182.894,155.672 178.058,156.200 177.855 C 156.613 177.697,156.800 177.052,156.800 175.784 C 156.800 174.681,157.040 173.702,157.400 173.343 C 157.730 173.013,158.000 172.346,158.000 171.860 C 158.000 171.375,158.720 169.570,159.600 167.849 C 160.480 166.129,161.200 164.569,161.200 164.384 C 161.200 164.199,162.010 163.225,163.000 162.221 C 163.990 161.217,164.800 160.126,164.800 159.798 C 164.800 159.469,165.059 159.200,165.375 159.200 C 165.692 159.200,167.208 157.940,168.745 156.400 C 170.282 154.860,171.789 153.600,172.095 153.600 C 172.400 153.600,173.168 153.060,173.800 152.400 C 174.432 151.740,175.254 151.200,175.626 151.200 C 175.998 151.200,176.526 150.930,176.800 150.600 C 177.074 150.270,177.642 150.000,178.062 150.000 C 178.481 150.000,178.929 149.730,179.055 149.400 C 179.182 149.070,179.706 148.800,180.219 148.800 C 180.733 148.800,181.264 148.620,181.400 148.400 C 181.536 148.180,182.052 148.000,182.547 148.000 C 183.042 148.000,183.796 147.736,184.224 147.413 C 184.690 147.060,185.913 146.820,187.284 146.813 C 188.773 146.804,189.748 146.596,190.084 146.215 C 190.851 145.346,202.480 145.332,203.200 146.200 M324.400 162.400 L 324.400 176.800 311.880 176.800 C 302.676 176.800,299.233 176.927,298.880 177.280 C 298.513 177.647,298.400 187.209,298.400 217.880 L 298.400 258.000 283.400 258.000 L 268.400 258.000 268.400 217.880 C 268.400 187.209,268.287 177.647,267.920 177.280 C 267.567 176.927,264.124 176.800,254.920 176.800 L 242.400 176.800 242.400 162.400 L 242.400 148.000 283.400 148.000 L 324.400 148.000 324.400 162.400 M369.600 203.000 L 369.600 258.000 354.400 258.000 L 339.200 258.000 339.200 203.000 L 339.200 148.000 354.400 148.000 L 369.600 148.000 369.600 203.000 M73.457 176.200 C 73.127 176.530,72.326 176.800,71.678 176.800 C 71.029 176.800,70.274 177.070,70.000 177.400 C 69.726 177.730,69.282 178.000,69.012 178.000 C 67.421 178.000,58.400 185.746,58.400 187.113 C 58.400 187.319,57.860 188.499,57.200 189.736 C 56.540 190.973,56.000 192.338,56.000 192.769 C 56.000 193.200,55.820 193.664,55.600 193.800 C 55.380 193.936,55.200 195.185,55.200 196.575 C 55.200 198.333,55.017 199.254,54.600 199.600 C 54.174 199.953,54.000 200.888,54.000 202.820 C 54.000 204.707,54.184 205.727,54.600 206.143 C 55.000 206.543,55.200 207.543,55.200 209.148 C 55.200 210.471,55.380 211.664,55.600 211.800 C 55.820 211.936,56.000 212.452,56.000 212.947 C 56.000 213.442,56.264 214.196,56.587 214.624 C 56.910 215.051,57.180 215.681,57.187 216.025 C 57.194 216.369,57.740 217.168,58.400 217.800 C 59.060 218.432,59.604 219.231,59.610 219.575 C 59.621 220.271,66.035 226.800,66.708 226.800 C 67.268 226.800,69.762 228.114,69.933 228.500 C 70.007 228.665,70.752 228.800,71.591 228.800 C 72.576 228.800,73.196 229.012,73.345 229.400 C 73.538 229.904,74.791 230.000,81.200 230.000 C 87.609 230.000,88.862 229.904,89.055 229.400 C 89.182 229.070,89.773 228.800,90.368 228.800 C 91.963 228.800,94.512 227.434,95.930 225.819 C 96.615 225.038,97.472 224.400,97.835 224.400 C 98.644 224.400,101.600 221.512,101.600 220.722 C 101.600 220.407,102.140 219.632,102.800 219.000 C 103.460 218.368,104.000 217.629,104.000 217.358 C 104.000 216.747,105.291 214.249,105.700 214.067 C 105.865 213.993,106.000 213.248,106.000 212.409 C 106.000 211.424,106.212 210.804,106.600 210.655 C 107.103 210.462,107.200 209.236,107.200 203.041 C 107.200 197.011,107.090 195.547,106.600 195.057 C 106.270 194.727,106.000 194.028,106.000 193.505 C 106.000 192.197,103.335 186.891,102.378 186.293 C 101.950 186.026,101.600 185.460,101.600 185.035 C 101.600 184.176,97.473 180.000,96.624 180.000 C 96.327 180.000,95.660 179.553,95.142 179.007 C 94.624 178.461,93.814 178.011,93.343 178.007 C 92.871 178.003,92.382 177.730,92.255 177.400 C 92.113 177.029,91.505 176.800,90.662 176.800 C 89.912 176.800,89.074 176.530,88.800 176.200 C 88.391 175.708,87.023 175.600,81.180 175.600 C 75.382 175.600,73.946 175.712,73.457 176.200 " stroke="none" fill="#000000" fill-rule="evenodd"></path></g></svg>