<svg id="svg" version="1.1" width="515" height="515" xmlns="http://www.w3.org/2000/svg" xmlns:xlink="http://www.w3.org/1999/xlink" style="display: block;"><g id="svgg"><path id="path0" d="M282.500 3.040 C 275.900 4.600,269.395 5.904,268.045 5.938 C 266.694 5.972,258.819 7.368,250.545 9.041 C 213.259 16.577,206.253 17.958,202.500 18.509 C 200.300 18.832,193.100 20.179,186.500 21.502 C 179.900 22.824,167.300 25.300,158.500 27.003 C 149.700 28.705,135.975 31.433,128.000 33.064 C 120.025 34.695,112.658 36.022,111.628 36.014 C 110.599 36.007,103.849 37.307,96.628 38.905 C 89.408 40.503,81.645 42.057,79.377 42.358 C 77.110 42.659,69.910 44.035,63.377 45.415 C 48.257 48.608,26.115 52.991,19.000 54.198 C 15.975 54.711,10.912 55.613,7.750 56.202 L 2.000 57.273 2.000 255.534 L 2.000 453.795 15.250 456.846 C 27.923 459.765,49.574 464.429,64.500 467.456 C 82.597 471.125,92.613 473.206,106.000 476.078 C 113.975 477.789,126.800 480.510,134.500 482.124 C 142.200 483.739,153.450 486.144,159.500 487.469 C 165.550 488.794,172.300 490.162,174.500 490.508 C 176.700 490.855,184.350 492.422,191.500 493.990 C 203.957 496.722,215.664 499.187,248.500 505.993 C 256.750 507.703,269.350 510.438,276.500 512.071 C 284.604 513.922,292.231 515.032,296.750 515.020 L 304.000 515.000 304.000 257.500 L 304.000 0.000 299.250 0.101 C 296.637 0.157,289.100 1.479,282.500 3.040 M321.000 159.818 L 321.000 210.668 326.250 214.217 C 348.414 229.201,363.000 236.701,363.000 233.114 C 363.000 232.627,364.462 231.473,366.250 230.551 C 368.038 229.629,372.200 226.890,375.500 224.464 C 378.800 222.039,383.075 219.141,385.000 218.024 C 388.289 216.116,403.300 205.993,405.512 204.191 C 406.459 203.419,416.402 196.725,419.916 194.494 C 420.787 193.941,425.100 191.018,429.500 188.000 C 433.900 184.982,438.242 182.059,439.149 181.506 C 440.055 180.953,448.085 175.550,456.992 169.500 C 474.701 157.472,474.370 157.695,485.075 150.528 C 493.704 144.750,493.565 144.841,502.311 139.138 C 505.990 136.739,509.000 134.429,509.000 134.005 C 509.000 133.581,509.900 132.998,511.000 132.710 C 516.135 131.367,512.489 118.634,505.212 112.500 L 501.654 109.500 411.327 109.234 L 321.000 108.969 321.000 159.818 M167.077 169.991 C 192.360 173.649,213.510 198.396,219.646 231.500 C 223.564 252.636,221.383 283.863,214.899 299.481 C 213.304 303.321,212.000 306.754,212.000 307.110 C 212.000 309.447,203.013 322.212,196.590 329.000 C 179.755 346.791,151.098 351.835,128.291 341.023 C 120.535 337.346,103.000 321.985,103.000 318.868 C 103.000 318.367,101.906 316.279,100.569 314.229 C 97.227 309.103,91.323 294.361,90.666 289.500 C 90.368 287.300,89.590 283.250,88.937 280.500 C 87.041 272.519,87.299 248.140,89.408 236.000 C 97.439 189.760,127.447 164.257,167.077 169.991 M509.833 171.833 C 509.650 172.291,506.800 174.376,503.500 176.466 C 500.200 178.556,497.275 180.544,497.000 180.883 C 496.725 181.222,495.310 182.175,493.856 183.000 C 490.261 185.039,479.619 192.119,479.000 192.883 C 478.725 193.222,477.310 194.175,475.856 195.000 C 470.695 197.927,461.495 204.272,461.167 205.129 C 460.983 205.608,460.389 206.000,459.846 206.000 C 459.303 206.000,453.683 209.488,447.358 213.750 C 426.844 227.574,370.471 265.138,368.194 266.500 C 367.275 267.050,365.445 268.288,364.127 269.250 C 360.523 271.882,358.104 271.416,351.140 266.750 C 347.651 264.413,343.785 261.825,342.549 261.000 C 331.559 253.666,325.922 249.683,325.446 248.913 C 325.136 248.411,324.005 248.000,322.934 248.000 C 321.020 248.000,320.991 249.197,321.243 317.250 L 321.500 386.500 407.500 386.500 L 493.500 386.500 499.000 383.671 C 506.090 380.024,507.704 378.511,510.608 372.783 L 513.000 368.066 513.000 269.533 C 513.000 185.191,512.796 171.000,511.583 171.000 C 510.804 171.000,510.017 171.375,509.833 171.833 M142.500 203.572 C 123.758 213.019,114.937 242.772,120.546 277.626 C 128.388 326.365,179.834 327.697,188.679 279.389 C 193.386 253.686,188.734 224.367,177.862 211.210 C 169.660 201.284,153.824 197.864,142.500 203.572 " stroke="none" fill="#000000" fill-rule="evenodd"></path></g></svg>