<svg id="svg" version="1.1" width="400" height="400" xmlns="http://www.w3.org/2000/svg" xmlns:xlink="http://www.w3.org/1999/xlink" style="display: block;"><g id="svgg"><path id="path0" d="M123.853 51.000 C 123.125 52.127,122.753 52.190,122.359 51.250 C 121.632 49.522,119.658 49.666,120.323 51.399 C 120.618 52.168,119.541 54.274,117.930 56.079 C 116.318 57.884,115.000 60.404,115.000 61.680 C 115.000 63.076,114.402 64.000,113.500 64.000 C 112.667 64.000,112.000 64.889,112.000 66.000 C 112.000 67.100,112.450 68.000,113.000 68.000 C 113.550 68.000,114.000 69.575,114.000 71.500 C 114.000 73.425,113.590 75.000,113.089 75.000 C 112.588 75.000,111.945 77.588,111.660 80.750 C 111.375 83.912,110.410 90.550,109.516 95.500 C 108.621 100.450,107.328 108.550,106.642 113.500 C 105.956 118.450,105.114 123.175,104.770 124.000 C 104.426 124.825,103.855 128.088,103.501 131.250 C 103.122 134.625,102.370 137.003,101.678 137.006 C 100.855 137.010,100.446 140.385,100.320 148.191 C 100.221 154.340,99.706 160.300,99.177 161.435 C 98.270 163.378,96.596 172.873,95.374 183.000 C 95.075 185.475,94.151 188.031,93.321 188.680 C 92.301 189.476,92.006 190.776,92.413 192.680 C 93.436 197.467,89.136 222.718,87.533 221.335 C 87.001 220.876,87.181 221.303,87.934 222.284 C 88.965 223.630,89.038 224.613,88.229 226.284 C 87.079 228.659,85.638 238.749,85.810 243.217 C 85.867 244.712,85.484 246.201,84.957 246.526 C 84.431 246.852,84.000 248.468,84.000 250.118 C 84.000 251.877,83.584 252.861,82.993 252.496 C 82.439 252.153,81.683 252.662,81.313 253.627 C 80.926 254.635,81.141 255.547,81.820 255.773 C 83.162 256.221,83.460 263.000,82.137 263.000 C 81.662 263.000,80.952 267.384,80.559 272.742 C 80.166 278.099,79.477 282.937,79.029 283.492 C 78.581 284.046,78.010 286.525,77.760 289.000 C 77.510 291.475,76.693 296.773,75.945 300.773 L 74.585 308.046 77.810 311.273 L 81.036 314.500 110.518 314.793 L 140.000 315.085 140.000 319.459 C 140.000 321.865,139.567 323.983,139.038 324.167 C 136.398 325.082,136.587 348.860,139.256 351.528 L 141.810 354.083 172.655 353.791 L 203.500 353.500 207.159 349.807 C 210.543 346.393,210.873 345.526,211.540 338.307 C 211.937 334.013,212.629 330.263,213.078 329.974 C 213.527 329.684,214.208 325.297,214.591 320.224 C 214.974 315.151,215.672 311.000,216.143 311.000 C 216.615 311.000,217.000 308.563,217.000 305.583 C 217.000 302.604,217.438 300.017,217.973 299.833 C 218.507 299.650,219.247 296.238,219.616 292.250 C 219.985 288.262,220.673 285.000,221.144 285.000 C 221.615 285.000,222.006 283.538,222.014 281.750 C 222.036 276.451,223.085 274.017,225.619 273.381 C 226.929 273.052,228.000 272.382,228.000 271.892 C 228.000 271.401,232.725 271.000,238.500 271.000 C 244.275 271.000,249.000 270.616,249.000 270.147 C 249.000 269.678,253.824 268.983,259.719 268.602 C 265.615 268.220,270.677 267.525,270.969 267.056 C 271.261 266.587,274.087 265.880,277.250 265.486 C 280.413 265.092,283.000 264.377,283.000 263.897 C 283.000 263.416,284.800 262.736,287.000 262.384 C 289.200 262.032,291.000 261.388,291.000 260.952 C 291.000 260.516,292.350 259.862,294.000 259.500 C 295.650 259.138,297.000 258.476,297.000 258.029 C 297.000 257.582,298.125 256.934,299.500 256.589 C 300.875 256.244,302.000 255.520,302.000 254.981 C 302.000 254.441,302.601 254.000,303.335 254.000 C 304.069 254.000,305.872 252.650,307.342 251.000 C 308.813 249.350,310.483 248.000,311.055 248.000 C 312.314 248.000,317.000 243.087,317.000 241.769 C 317.000 241.252,318.575 239.435,320.500 237.731 C 322.425 236.026,324.000 234.026,324.000 233.285 C 324.000 232.544,324.675 231.678,325.500 231.362 C 326.325 231.045,327.000 230.191,327.000 229.464 C 327.000 228.738,327.620 227.523,328.378 226.765 C 329.136 226.007,330.072 223.950,330.458 222.193 C 330.843 220.437,331.534 219.000,331.992 219.000 C 332.450 219.000,333.128 217.200,333.500 215.000 C 333.872 212.800,334.554 211.000,335.016 211.000 C 335.478 211.000,336.165 208.525,336.543 205.500 C 336.921 202.475,337.629 200.000,338.115 200.000 C 338.602 200.000,339.000 198.237,339.000 196.083 C 339.000 193.916,339.538 191.987,340.206 191.765 C 341.961 191.180,341.995 155.832,340.242 155.247 C 339.559 155.020,339.000 153.971,339.000 152.917 C 339.000 151.862,338.555 151.000,338.012 151.000 C 337.468 151.000,336.736 149.200,336.384 147.000 C 336.032 144.800,335.382 143.000,334.940 143.000 C 334.497 143.000,333.845 142.087,333.491 140.971 C 332.664 138.367,323.328 129.000,321.559 129.000 C 320.819 129.000,319.955 128.325,319.638 127.500 C 319.297 126.611,317.795 126.000,315.952 126.000 C 313.013 126.000,312.878 125.834,313.503 122.988 C 314.664 117.699,315.622 105.000,314.859 105.000 C 314.454 105.000,313.839 102.862,313.493 100.250 C 313.146 97.638,312.505 94.600,312.067 93.500 C 310.792 90.295,307.031 82.666,305.712 80.611 C 303.636 77.374,292.355 66.000,291.222 66.000 C 290.630 66.000,289.253 64.866,288.163 63.480 C 286.819 61.772,286.015 61.369,285.669 62.230 C 285.388 62.928,285.122 62.479,285.079 61.231 C 285.015 59.379,284.580 59.067,282.712 59.536 C 281.405 59.864,278.321 59.209,275.524 58.010 C 272.830 56.855,268.672 55.643,266.285 55.316 C 263.898 54.988,261.706 54.334,261.414 53.860 C 261.121 53.387,260.057 53.000,259.048 53.000 C 258.039 53.000,256.926 52.250,256.574 51.333 C 256.087 50.062,255.657 49.943,254.767 50.833 C 253.246 52.354,242.292 52.376,241.786 50.859 C 241.136 48.908,125.114 49.047,123.853 51.000 M319.624 141.462 C 319.932 142.266,321.043 143.196,322.092 143.529 C 323.142 143.862,324.000 144.747,324.000 145.496 C 324.000 146.245,324.606 147.463,325.347 148.204 C 326.087 148.944,327.001 151.194,327.378 153.202 C 327.755 155.211,328.543 157.014,329.129 157.210 C 329.716 157.405,330.438 160.588,330.735 164.283 C 331.031 167.977,331.662 171.000,332.137 171.000 C 332.612 171.000,333.000 171.900,333.000 173.000 C 333.000 174.100,332.615 175.000,332.143 175.000 C 331.672 175.000,330.974 179.151,330.591 184.224 C 330.208 189.297,329.523 193.684,329.068 193.974 C 328.614 194.263,327.920 196.863,327.527 199.750 C 327.134 202.637,326.455 205.000,326.017 205.000 C 325.580 205.000,324.927 206.575,324.566 208.500 C 324.205 210.425,323.590 212.000,323.199 212.000 C 322.469 212.000,320.688 215.756,319.522 219.750 C 319.161 220.988,318.446 222.000,317.933 222.000 C 317.420 222.000,317.000 222.689,317.000 223.531 C 317.000 224.374,316.325 225.322,315.500 225.638 C 314.675 225.955,314.000 226.806,314.000 227.530 C 314.000 228.254,312.711 230.136,311.134 231.712 C 309.558 233.288,307.953 235.572,307.567 236.789 C 307.181 238.005,306.096 239.000,305.155 239.000 C 304.215 239.000,302.313 240.290,300.930 241.867 C 299.546 243.444,297.421 245.049,296.207 245.434 C 294.993 245.820,294.000 246.519,294.000 246.988 C 294.000 247.457,292.650 248.138,291.000 248.500 C 289.350 248.862,288.000 249.573,288.000 250.079 C 288.000 250.586,287.325 251.000,286.500 251.000 C 285.675 251.000,285.000 251.392,285.000 251.872 C 285.000 252.352,283.200 253.032,281.000 253.384 C 278.800 253.736,277.000 254.416,277.000 254.897 C 277.000 255.377,274.413 256.092,271.250 256.486 C 268.087 256.880,265.261 257.587,264.969 258.056 C 264.677 258.525,259.615 259.220,253.719 259.602 C 247.824 259.983,243.000 260.640,243.000 261.061 C 243.000 261.483,237.904 261.979,231.676 262.164 C 222.527 262.435,220.016 262.836,218.604 264.250 C 217.643 265.212,216.448 266.000,215.948 266.000 C 215.447 266.000,214.756 267.125,214.411 268.500 C 214.066 269.875,213.429 271.000,212.996 271.000 C 212.563 271.000,211.883 274.712,211.485 279.250 C 211.087 283.788,210.357 287.756,209.863 288.070 C 209.369 288.383,208.681 292.321,208.334 296.820 C 207.987 301.319,207.385 305.000,206.995 305.000 C 206.606 305.000,205.974 309.151,205.591 314.224 C 205.208 319.297,204.522 323.684,204.067 323.974 C 203.611 324.263,202.913 328.212,202.515 332.750 C 202.117 337.288,201.421 341.000,200.967 341.000 C 200.514 341.000,199.356 341.788,198.394 342.750 C 196.822 344.324,194.119 344.500,171.573 344.500 L 146.500 344.500 146.858 337.500 C 147.055 333.650,147.617 330.350,148.108 330.167 C 148.599 329.983,149.000 327.396,149.000 324.417 C 149.000 321.438,149.405 319.000,149.899 319.000 C 150.394 319.000,151.123 313.375,151.520 306.500 C 151.916 299.625,152.578 294.000,152.991 294.000 C 153.404 294.000,154.052 290.850,154.431 287.000 C 154.811 283.150,155.504 280.000,155.973 280.000 C 156.441 280.000,157.147 274.600,157.541 268.000 C 157.935 261.400,158.597 256.000,159.012 256.000 C 159.427 256.000,160.080 253.075,160.463 249.500 C 160.846 245.925,161.523 243.000,161.967 243.000 C 162.411 243.000,162.948 239.920,163.161 236.155 C 163.771 225.362,163.321 225.559,188.176 225.194 C 199.629 225.025,209.000 224.532,209.000 224.096 C 209.000 223.661,214.705 223.000,221.678 222.627 C 228.651 222.254,234.839 221.561,235.428 221.086 C 236.018 220.611,239.313 219.903,242.750 219.513 C 246.188 219.123,249.000 218.398,249.000 217.902 C 249.000 217.406,250.125 217.000,251.500 217.000 C 252.875 217.000,254.000 216.555,254.000 216.012 C 254.000 215.468,255.800 214.736,258.000 214.384 C 260.200 214.032,262.000 213.388,262.000 212.952 C 262.000 212.516,263.312 211.871,264.916 211.518 C 266.521 211.166,268.081 210.230,268.385 209.439 C 268.689 208.648,269.851 208.000,270.969 208.000 C 272.086 208.000,273.000 207.550,273.000 207.000 C 273.000 206.450,273.575 206.000,274.278 206.000 C 274.981 206.000,276.326 205.100,277.268 204.000 C 278.210 202.900,279.660 202.000,280.490 202.000 C 281.321 202.000,282.000 201.578,282.000 201.063 C 282.000 200.547,283.356 198.860,285.014 197.313 C 293.559 189.337,297.000 185.741,297.000 184.786 C 297.000 184.205,298.107 182.704,299.460 181.450 C 300.812 180.196,302.211 178.007,302.568 176.585 C 302.925 175.163,303.618 174.000,304.108 174.000 C 304.599 174.000,305.000 173.518,305.000 172.929 C 305.000 172.339,305.675 171.182,306.500 170.357 C 307.325 169.532,308.000 167.764,308.000 166.429 C 308.000 165.093,308.414 164.000,308.921 164.000 C 309.427 164.000,310.138 162.650,310.500 161.000 C 310.862 159.350,311.546 158.000,312.018 158.000 C 312.491 158.000,313.181 155.975,313.552 153.500 C 313.923 151.025,314.626 149.000,315.114 149.000 C 315.601 149.000,316.000 147.275,316.000 145.167 C 316.000 140.208,318.257 137.901,319.624 141.462 " stroke="none" fill="#000000" fill-rule="evenodd"></path></g></svg>