<svg id="svg" version="1.1" width="400" height="400" xmlns="http://www.w3.org/2000/svg" xmlns:xlink="http://www.w3.org/1999/xlink" style="display: block;"><g id="svgg"><path id="path0" d="M172.500 21.850 C 165.838 24.016,158.324 32.119,157.355 38.184 C 157.019 40.283,156.352 42.000,155.872 42.000 C 154.755 42.000,154.720 88.709,155.836 89.399 C 156.296 89.683,157.258 117.722,157.973 151.708 C 158.689 185.693,159.601 213.950,160.000 214.500 C 160.399 215.050,161.311 243.982,162.027 278.792 C 162.742 313.603,163.704 342.317,164.164 342.601 C 164.624 342.886,165.000 346.894,165.000 351.510 C 165.000 360.230,166.572 370.000,167.974 370.000 C 168.419 370.000,169.046 371.047,169.367 372.326 C 170.288 375.997,175.574 380.832,181.759 383.662 C 187.804 386.426,213.970 386.874,217.221 384.268 C 217.924 383.704,223.225 382.683,229.000 382.000 C 234.775 381.317,239.950 380.412,240.500 379.991 C 241.050 379.569,246.338 378.658,252.250 377.967 C 258.163 377.275,263.000 376.397,263.000 376.017 C 263.000 375.636,268.182 374.747,274.516 374.041 C 280.850 373.335,286.243 372.417,286.500 372.000 C 286.757 371.583,292.150 370.665,298.484 369.959 C 304.818 369.253,310.000 368.372,310.000 368.000 C 310.000 367.628,315.175 366.748,321.500 366.043 C 327.825 365.338,333.000 364.422,333.000 364.008 C 333.000 363.594,334.694 362.985,336.765 362.654 C 343.565 361.566,353.097 352.436,354.582 345.587 C 354.950 343.889,355.757 342.176,356.376 341.780 C 357.746 340.901,357.554 289.977,356.176 289.078 C 355.689 288.760,354.701 275.113,353.980 258.750 C 353.260 242.388,352.369 229.000,352.000 229.000 C 351.631 229.000,350.746 215.613,350.033 199.250 C 349.320 182.888,348.407 169.050,348.004 168.500 C 347.600 167.950,346.682 153.641,345.963 136.703 C 345.244 119.764,344.283 105.675,343.828 105.394 C 343.372 105.112,342.986 100.746,342.969 95.691 C 342.925 82.242,341.284 61.797,340.194 61.101 C 339.676 60.771,338.935 59.040,338.547 57.256 C 338.160 55.472,337.316 53.672,336.670 53.256 C 336.025 52.840,334.885 51.312,334.138 49.860 C 333.391 48.408,331.592 46.609,330.140 45.862 C 328.688 45.115,327.140 43.940,326.700 43.252 C 326.260 42.563,325.280 42.000,324.522 42.000 C 323.763 42.000,322.399 41.257,321.491 40.348 C 320.427 39.284,316.754 38.324,311.169 37.650 C 306.401 37.075,302.275 36.311,302.000 35.951 C 301.725 35.591,295.650 34.719,288.500 34.014 C 281.350 33.309,275.050 32.386,274.500 31.963 C 273.950 31.539,267.538 30.613,260.250 29.904 C 252.963 29.195,247.000 28.325,247.000 27.970 C 247.000 27.616,241.037 26.771,233.750 26.094 C 226.463 25.417,219.600 24.474,218.500 23.998 C 213.375 21.781,177.819 20.120,172.500 21.850 M99.000 55.999 C 98.175 56.484,96.303 57.131,94.839 57.437 C 92.515 57.923,88.024 61.707,84.333 66.289 C 81.101 70.301,80.991 75.058,82.079 163.000 C 82.675 211.125,83.576 251.534,84.081 252.797 C 84.586 254.060,85.020 268.235,85.044 284.297 C 85.090 315.628,86.145 334.215,87.910 334.803 C 88.510 335.003,89.000 335.786,89.000 336.543 C 89.000 338.721,96.556 345.852,99.673 346.616 C 101.228 346.996,102.822 347.801,103.215 348.404 C 104.075 349.723,128.095 349.696,130.146 348.373 C 130.891 347.893,138.250 346.825,146.500 346.000 L 161.500 344.500 161.147 318.500 C 160.953 304.200,160.391 292.073,159.897 291.550 C 159.404 291.028,159.000 289.275,159.000 287.656 L 159.000 284.713 152.250 285.320 C 119.569 288.262,116.613 287.745,108.285 277.634 C 105.925 274.769,105.015 263.198,105.008 235.950 C 105.003 220.774,104.591 207.973,104.090 207.450 C 102.359 205.643,102.273 120.724,104.000 118.672 C 112.163 108.976,114.140 108.427,135.546 109.909 C 144.216 110.509,151.916 111.000,152.655 111.000 C 154.221 111.000,154.371 103.448,153.344 76.364 L 152.694 59.229 134.847 57.934 C 125.031 57.222,117.000 56.270,117.000 55.820 C 117.000 54.720,100.903 54.881,99.000 55.999 M209.398 87.834 C 209.681 88.293,221.295 89.221,235.207 89.896 C 249.118 90.571,261.400 91.508,262.500 91.980 C 263.600 92.452,274.342 93.347,286.372 93.969 C 302.973 94.828,308.593 95.450,309.693 96.550 C 310.490 97.348,311.744 98.000,312.480 98.000 C 314.308 98.000,323.000 106.576,323.000 108.379 C 323.000 109.179,323.490 109.997,324.090 110.197 C 325.396 110.632,326.895 127.289,326.956 142.050 C 326.980 147.853,327.392 153.028,327.871 153.550 C 328.350 154.073,329.278 168.900,329.933 186.500 C 330.588 204.100,331.507 219.400,331.976 220.500 C 332.444 221.600,333.351 234.763,333.991 249.750 C 335.356 281.719,335.338 281.843,328.000 289.831 C 326.625 291.328,323.925 293.190,322.000 293.970 C 320.075 294.749,318.258 295.734,317.963 296.158 C 317.333 297.063,301.627 298.980,294.750 298.992 C 292.137 298.996,290.000 299.373,290.000 299.829 C 290.000 300.285,281.573 301.245,271.273 301.962 C 260.973 302.680,251.860 303.623,251.023 304.058 C 246.984 306.156,209.796 307.627,203.687 305.930 C 199.838 304.861,193.000 298.695,193.000 296.292 C 193.000 295.581,192.587 295.000,192.083 295.000 C 190.562 295.000,189.000 285.451,189.000 276.151 C 189.000 271.338,188.612 266.972,188.139 266.450 C 187.665 265.927,186.709 240.750,186.015 210.500 C 185.321 180.250,184.398 155.050,183.965 154.500 C 182.703 152.900,182.314 102.057,183.557 101.216 C 184.138 100.822,185.168 99.127,185.846 97.448 C 187.328 93.778,194.315 89.000,198.200 89.000 C 199.740 89.000,201.000 88.550,201.000 88.000 C 201.000 86.797,208.663 86.646,209.398 87.834 M196.250 90.654 C 195.012 90.921,194.000 91.558,194.000 92.070 C 194.000 92.581,193.406 93.000,192.680 93.000 C 188.879 93.000,185.000 101.132,185.000 109.101 L 185.000 113.715 191.147 114.358 C 194.527 114.711,199.676 115.000,202.588 115.000 C 205.500 115.000,208.124 115.391,208.419 115.869 C 208.714 116.346,210.745 117.023,212.932 117.373 C 218.191 118.214,225.684 125.134,226.638 130.031 C 227.010 131.939,227.638 133.725,228.033 134.000 C 228.429 134.275,229.319 153.625,230.013 177.000 C 230.706 200.375,231.621 219.950,232.045 220.500 C 233.822 222.803,233.612 265.522,231.816 267.323 C 230.889 268.252,229.862 269.861,229.532 270.898 C 229.203 271.936,227.598 273.338,225.967 274.014 C 224.335 274.690,223.000 275.585,223.000 276.003 C 223.000 277.095,214.814 279.000,210.116 279.000 C 207.917 279.000,205.840 279.450,205.500 280.000 C 205.160 280.550,201.759 281.000,197.941 281.000 L 191.000 281.000 191.000 285.500 C 191.000 287.975,191.400 290.000,191.889 290.000 C 192.377 290.000,193.066 291.541,193.420 293.424 C 194.014 296.592,195.013 297.728,202.976 304.285 C 204.719 305.720,228.006 305.595,228.925 304.145 C 229.241 303.646,234.941 302.914,241.592 302.518 L 253.684 301.798 253.220 284.149 C 252.965 274.442,252.420 266.050,252.009 265.500 C 251.598 264.950,250.680 244.813,249.969 220.750 C 249.258 196.688,248.371 177.000,247.997 177.000 C 247.623 177.000,247.014 166.313,246.645 153.250 C 246.275 140.188,245.683 121.287,245.329 111.250 L 244.686 93.000 237.926 93.000 C 234.208 93.000,231.017 92.601,230.833 92.114 C 230.471 91.151,199.926 89.862,196.250 90.654 M34.025 98.177 C 30.953 99.058,28.609 101.025,24.250 106.380 C 22.659 108.335,22.418 179.523,24.000 180.500 C 24.624 180.886,25.037 191.704,25.100 209.309 C 25.405 295.491,25.613 297.067,37.438 303.018 C 41.756 305.191,59.000 305.977,59.000 304.000 C 59.000 303.450,60.732 303.000,62.849 303.000 C 64.966 303.000,70.141 302.709,74.349 302.353 L 82.000 301.707 82.000 280.353 L 82.000 259.000 73.059 259.000 C 68.141 259.000,63.840 259.450,63.500 260.000 C 62.723 261.257,54.317 261.322,53.548 260.077 C 53.234 259.569,51.702 258.874,50.143 258.531 C 42.264 256.801,41.126 249.881,41.049 203.250 C 41.017 184.449,40.643 174.000,40.000 174.000 C 39.382 174.000,39.000 168.772,39.000 160.316 C 39.000 144.223,40.720 138.660,46.057 137.488 C 47.676 137.132,49.000 136.427,49.000 135.921 C 49.000 135.414,52.600 135.000,57.000 135.000 C 61.667 135.000,65.000 135.417,65.000 136.000 C 65.000 136.571,68.000 137.000,72.000 137.000 L 79.000 137.000 78.985 119.250 C 78.976 109.487,78.639 101.006,78.235 100.401 C 76.838 98.313,40.012 96.460,34.025 98.177 M111.682 113.149 C 106.646 115.696,105.000 119.806,105.000 129.837 L 105.000 137.738 108.750 138.358 C 110.813 138.699,115.103 138.983,118.285 138.989 C 128.178 139.008,134.163 144.101,134.810 153.054 C 135.047 156.324,135.636 159.000,136.120 159.000 C 136.613 159.000,137.000 177.916,137.000 202.000 C 137.000 227.929,136.630 245.000,136.067 245.000 C 135.554 245.000,134.824 246.012,134.443 247.250 C 133.084 251.672,127.738 255.000,121.994 255.000 C 120.412 255.000,118.840 255.450,118.500 256.000 C 118.160 256.550,115.434 257.000,112.441 257.000 L 107.000 257.000 107.000 262.941 C 107.000 266.209,107.389 269.123,107.865 269.417 C 108.341 269.711,108.990 271.550,109.307 273.504 C 109.896 277.135,114.491 283.000,116.747 283.000 C 117.436 283.000,118.000 283.450,118.000 284.000 C 118.000 284.603,122.167 285.000,128.500 285.000 C 134.833 285.000,139.000 284.603,139.000 284.000 C 139.000 283.444,141.667 283.000,145.000 283.000 L 151.000 283.000 151.007 261.250 C 151.018 224.705,148.830 120.563,148.029 119.500 C 147.615 118.950,146.980 117.263,146.619 115.750 C 145.987 113.104,145.720 113.000,139.540 113.000 C 136.008 113.000,132.840 112.550,132.500 112.000 C 131.366 110.166,115.892 111.020,111.682 113.149 " stroke="none" fill="#000000" fill-rule="evenodd"></path></g></svg>