<svg id="svg" version="1.1" width="515" height="515" xmlns="http://www.w3.org/2000/svg" xmlns:xlink="http://www.w3.org/1999/xlink" style="display: block;"><g id="svgg"><path id="path0" d="M164.000 235.500 L 164.000 295.000 171.500 295.000 L 179.000 295.000 179.000 235.500 L 179.000 176.000 171.500 176.000 L 164.000 176.000 164.000 235.500 M377.000 235.500 L 377.000 295.000 385.000 295.000 L 393.000 295.000 393.000 277.000 C 393.000 265.667,393.370 259.000,394.000 259.000 C 394.550 259.000,395.000 259.450,395.000 260.000 C 395.000 260.550,395.675 261.000,396.500 261.000 C 397.325 261.000,398.000 261.465,398.000 262.034 C 398.000 263.328,403.728 269.000,405.034 269.000 C 405.566 269.000,406.000 269.482,406.000 270.071 C 406.000 271.456,408.544 274.000,409.929 274.000 C 410.518 274.000,411.000 274.675,411.000 275.500 C 411.000 276.325,411.450 277.000,412.000 277.000 C 412.550 277.000,413.000 278.125,413.000 279.500 C 413.000 281.056,413.567 282.000,414.500 282.000 C 415.325 282.000,416.000 282.482,416.000 283.071 C 416.000 284.456,418.544 287.000,419.929 287.000 C 420.518 287.000,421.000 287.675,421.000 288.500 C 421.000 289.325,421.482 290.000,422.071 290.000 C 423.456 290.000,426.000 292.544,426.000 293.929 C 426.000 294.622,429.700 295.000,436.500 295.000 L 447.000 295.000 447.000 292.500 C 447.000 290.944,446.433 290.000,445.500 290.000 C 444.675 290.000,444.000 289.518,444.000 288.929 C 444.000 287.544,441.456 285.000,440.071 285.000 C 439.482 285.000,439.000 284.325,439.000 283.500 C 439.000 282.675,438.325 282.000,437.500 282.000 C 436.675 282.000,436.000 281.518,436.000 280.929 C 436.000 279.544,433.456 277.000,432.071 277.000 C 431.482 277.000,431.000 276.518,431.000 275.929 C 431.000 274.544,428.456 272.000,427.071 272.000 C 426.482 272.000,426.000 271.518,426.000 270.929 C 426.000 269.544,423.456 267.000,422.071 267.000 C 421.482 267.000,421.000 266.325,421.000 265.500 C 421.000 264.675,420.325 264.000,419.500 264.000 C 418.675 264.000,418.000 263.518,418.000 262.929 C 418.000 261.544,415.456 259.000,414.071 259.000 C 413.482 259.000,413.000 257.875,413.000 256.500 C 413.000 255.125,412.550 254.000,412.000 254.000 C 411.450 254.000,411.000 253.325,411.000 252.500 C 411.000 251.675,410.325 251.000,409.500 251.000 C 408.675 251.000,408.000 250.325,408.000 249.500 C 408.000 248.675,408.482 248.000,409.071 248.000 C 410.456 248.000,413.000 245.456,413.000 244.071 C 413.000 243.482,413.482 243.000,414.071 243.000 C 415.456 243.000,418.000 240.456,418.000 239.071 C 418.000 238.482,418.485 238.000,419.077 238.000 C 420.476 238.000,426.000 232.476,426.000 231.077 C 426.000 230.485,426.482 230.000,427.071 230.000 C 428.456 230.000,431.000 227.456,431.000 226.071 C 431.000 225.482,431.675 225.000,432.500 225.000 C 433.325 225.000,434.000 224.550,434.000 224.000 C 434.000 223.450,435.125 223.000,436.500 223.000 C 438.056 223.000,439.000 222.433,439.000 221.500 C 439.000 220.675,439.482 220.000,440.071 220.000 C 441.456 220.000,444.000 217.456,444.000 216.071 C 444.000 215.482,444.675 215.000,445.500 215.000 C 446.433 215.000,447.000 214.056,447.000 212.500 L 447.000 210.000 436.929 210.000 C 426.962 210.000,424.000 210.900,424.000 213.929 C 424.000 214.518,423.325 215.000,422.500 215.000 C 421.675 215.000,421.000 215.675,421.000 216.500 C 421.000 217.325,420.518 218.000,419.929 218.000 C 418.544 218.000,416.000 220.544,416.000 221.929 C 416.000 222.518,415.518 223.000,414.929 223.000 C 413.544 223.000,411.000 225.544,411.000 226.929 C 411.000 227.518,410.518 228.000,409.929 228.000 C 408.544 228.000,406.000 230.544,406.000 231.929 C 406.000 232.518,405.325 233.000,404.500 233.000 C 403.675 233.000,403.000 233.675,403.000 234.500 C 403.000 235.325,402.518 236.000,401.929 236.000 C 400.544 236.000,398.000 238.544,398.000 239.929 C 398.000 240.518,397.325 241.000,396.500 241.000 C 395.675 241.000,395.000 241.450,395.000 242.000 C 395.000 242.550,394.550 243.000,394.000 243.000 C 393.353 243.000,393.000 231.167,393.000 209.500 L 393.000 176.000 385.000 176.000 L 377.000 176.000 377.000 235.500 M89.000 208.500 C 89.000 209.708,87.444 210.000,81.000 210.000 C 76.333 210.000,73.000 210.417,73.000 211.000 C 73.000 211.550,71.875 212.000,70.500 212.000 L 68.000 212.000 68.000 274.000 L 68.000 336.000 76.000 336.000 L 84.000 336.000 84.000 315.500 L 84.000 295.000 99.500 295.000 C 112.611 295.000,115.000 294.769,115.000 293.500 C 115.000 292.452,116.056 292.000,118.500 292.000 C 120.425 292.000,122.000 291.550,122.000 291.000 C 122.000 290.450,123.125 290.000,124.500 290.000 C 126.056 290.000,127.000 289.433,127.000 288.500 C 127.000 287.675,127.485 287.000,128.077 287.000 C 129.476 287.000,135.000 281.476,135.000 280.077 C 135.000 279.485,135.675 279.000,136.500 279.000 C 137.433 279.000,138.000 278.056,138.000 276.500 C 138.000 275.125,138.450 274.000,139.000 274.000 C 139.550 274.000,140.000 272.875,140.000 271.500 C 140.000 269.944,140.567 269.000,141.500 269.000 C 142.773 269.000,143.000 266.500,143.000 252.500 C 143.000 238.500,142.773 236.000,141.500 236.000 C 140.500 236.000,140.000 235.000,140.000 233.000 C 140.000 231.350,139.550 230.000,139.000 230.000 C 138.450 230.000,138.000 228.875,138.000 227.500 C 138.000 226.125,137.518 225.000,136.929 225.000 C 135.544 225.000,133.000 222.456,133.000 221.071 C 133.000 220.482,132.325 220.000,131.500 220.000 C 130.675 220.000,130.000 219.550,130.000 219.000 C 130.000 218.450,129.325 218.000,128.500 218.000 C 127.675 218.000,127.000 217.325,127.000 216.500 C 127.000 215.567,126.056 215.000,124.500 215.000 C 122.944 215.000,122.000 214.433,122.000 213.500 C 122.000 212.567,121.056 212.000,119.500 212.000 C 118.125 212.000,117.000 211.550,117.000 211.000 C 117.000 210.436,114.167 210.000,110.500 210.000 C 105.389 210.000,104.000 209.679,104.000 208.500 C 104.000 207.300,102.500 207.000,96.500 207.000 C 90.500 207.000,89.000 207.300,89.000 208.500 M230.362 208.500 C 229.958 209.551,228.320 210.000,224.893 210.000 C 222.202 210.000,220.000 210.450,220.000 211.000 C 220.000 211.550,218.875 212.000,217.500 212.000 C 215.944 212.000,215.000 212.567,215.000 213.500 C 215.000 214.325,214.325 215.000,213.500 215.000 C 212.675 215.000,212.000 215.482,212.000 216.071 C 212.000 217.456,209.456 220.000,208.071 220.000 C 207.482 220.000,207.000 220.675,207.000 221.500 C 207.000 222.325,206.550 223.000,206.000 223.000 C 205.450 223.000,205.000 224.125,205.000 225.500 C 205.000 227.056,204.433 228.000,203.500 228.000 C 202.567 228.000,202.000 228.944,202.000 230.500 C 202.000 231.875,201.550 233.000,201.000 233.000 C 200.436 233.000,200.000 235.833,200.000 239.500 C 200.000 244.611,199.679 246.000,198.500 246.000 C 197.321 246.000,197.000 247.389,197.000 252.500 C 197.000 257.611,197.321 259.000,198.500 259.000 C 199.679 259.000,200.000 260.389,200.000 265.500 C 200.000 269.167,200.436 272.000,201.000 272.000 C 201.550 272.000,202.000 273.125,202.000 274.500 C 202.000 276.056,202.567 277.000,203.500 277.000 C 204.345 277.000,205.000 277.894,205.000 279.047 C 205.000 281.757,213.196 290.000,215.890 290.000 C 217.050 290.000,218.000 290.450,218.000 291.000 C 218.000 291.550,219.125 292.000,220.500 292.000 C 222.056 292.000,223.000 292.567,223.000 293.500 C 223.000 294.773,225.500 295.000,239.500 295.000 C 253.500 295.000,256.000 294.773,256.000 293.500 C 256.000 292.567,256.944 292.000,258.500 292.000 C 259.875 292.000,261.000 291.550,261.000 291.000 C 261.000 290.450,261.868 290.000,262.929 290.000 C 266.222 290.000,272.000 283.714,272.000 280.132 C 272.000 278.015,271.514 277.000,270.500 277.000 C 269.675 277.000,269.000 276.325,269.000 275.500 C 269.000 274.367,267.778 274.000,264.000 274.000 C 260.222 274.000,259.000 274.367,259.000 275.500 C 259.000 276.325,258.325 277.000,257.500 277.000 C 256.675 277.000,256.000 277.450,256.000 278.000 C 256.000 278.550,254.875 279.000,253.500 279.000 C 251.944 279.000,251.000 279.567,251.000 280.500 C 251.000 281.738,249.167 282.000,240.500 282.000 C 231.833 282.000,230.000 281.738,230.000 280.500 C 230.000 279.649,229.103 279.000,227.929 279.000 C 225.715 279.000,223.000 276.836,223.000 275.071 C 223.000 274.482,222.518 274.000,221.929 274.000 C 220.164 274.000,218.000 271.285,218.000 269.071 C 218.000 267.897,217.351 267.000,216.500 267.000 C 215.417 267.000,215.000 265.889,215.000 263.000 C 215.000 260.111,214.583 259.000,213.500 259.000 C 212.675 259.000,212.000 258.325,212.000 257.500 C 212.000 256.199,216.111 256.000,243.000 256.000 L 274.000 256.000 274.000 246.000 C 274.000 240.000,273.600 236.000,273.000 236.000 C 272.450 236.000,272.000 234.200,272.000 232.000 C 272.000 229.111,271.583 228.000,270.500 228.000 C 269.635 228.000,269.000 227.096,269.000 225.865 C 269.000 224.690,267.875 222.687,266.500 221.412 C 265.125 220.138,264.000 218.174,264.000 217.048 C 264.000 215.530,263.353 215.000,261.500 215.000 C 259.944 215.000,259.000 214.433,259.000 213.500 C 259.000 212.567,258.056 212.000,256.500 212.000 C 255.125 212.000,254.000 211.550,254.000 211.000 C 254.000 210.450,251.525 210.000,248.500 210.000 C 244.278 210.000,243.000 209.652,243.000 208.500 C 243.000 207.332,241.663 207.000,236.969 207.000 C 232.530 207.000,230.785 207.396,230.362 208.500 M318.000 208.500 C 318.000 209.583,316.889 210.000,314.000 210.000 C 311.800 210.000,310.000 210.450,310.000 211.000 C 310.000 211.550,308.875 212.000,307.500 212.000 C 305.944 212.000,305.000 212.567,305.000 213.500 C 305.000 214.325,304.550 215.000,304.000 215.000 C 303.450 215.000,303.000 215.675,303.000 216.500 C 303.000 217.325,302.325 218.000,301.500 218.000 C 300.567 218.000,300.000 218.944,300.000 220.500 C 300.000 222.056,299.433 223.000,298.500 223.000 C 297.278 223.000,297.000 224.667,297.000 232.000 C 297.000 239.333,297.278 241.000,298.500 241.000 C 299.433 241.000,300.000 241.944,300.000 243.500 C 300.000 244.875,300.482 246.000,301.071 246.000 C 302.456 246.000,305.000 248.544,305.000 249.929 C 305.000 250.518,305.675 251.000,306.500 251.000 C 307.325 251.000,308.000 251.675,308.000 252.500 C 308.000 253.548,309.056 254.000,311.500 254.000 C 313.425 254.000,315.000 254.450,315.000 255.000 C 315.000 255.550,316.800 256.000,319.000 256.000 C 321.889 256.000,323.000 256.417,323.000 257.500 C 323.000 258.583,324.111 259.000,327.000 259.000 C 329.200 259.000,331.000 259.450,331.000 260.000 C 331.000 260.550,332.125 261.000,333.500 261.000 C 335.056 261.000,336.000 261.567,336.000 262.500 C 336.000 263.433,336.944 264.000,338.500 264.000 C 340.500 264.000,341.000 264.500,341.000 266.500 C 341.000 268.056,341.567 269.000,342.500 269.000 C 343.433 269.000,344.000 269.944,344.000 271.500 C 344.000 273.056,343.433 274.000,342.500 274.000 C 341.567 274.000,341.000 274.944,341.000 276.500 C 341.000 278.500,340.500 279.000,338.500 279.000 C 336.944 279.000,336.000 279.567,336.000 280.500 C 336.000 281.722,334.333 282.000,327.000 282.000 C 319.667 282.000,318.000 281.722,318.000 280.500 C 318.000 279.567,317.056 279.000,315.500 279.000 C 314.125 279.000,313.000 278.550,313.000 278.000 C 313.000 277.450,312.325 277.000,311.500 277.000 C 310.675 277.000,310.000 276.518,310.000 275.929 C 310.000 273.793,307.066 272.000,303.571 272.000 C 301.607 272.000,300.000 272.450,300.000 273.000 C 300.000 273.550,299.325 274.000,298.500 274.000 C 297.675 274.000,297.000 274.675,297.000 275.500 C 297.000 276.325,296.550 277.000,296.000 277.000 C 295.450 277.000,295.000 278.607,295.000 280.571 C 295.000 284.066,296.793 287.000,298.929 287.000 C 299.518 287.000,300.000 287.675,300.000 288.500 C 300.000 289.433,300.944 290.000,302.500 290.000 C 303.875 290.000,305.000 290.450,305.000 291.000 C 305.000 291.550,306.125 292.000,307.500 292.000 C 309.056 292.000,310.000 292.567,310.000 293.500 C 310.000 294.679,311.389 295.000,316.500 295.000 C 320.167 295.000,323.000 295.436,323.000 296.000 C 323.000 296.550,324.125 297.000,325.500 297.000 C 326.875 297.000,328.000 296.550,328.000 296.000 C 328.000 295.417,331.333 295.000,336.000 295.000 C 342.444 295.000,344.000 294.708,344.000 293.500 C 344.000 292.649,344.897 292.000,346.071 292.000 C 348.285 292.000,351.000 289.836,351.000 288.071 C 351.000 287.482,351.445 287.000,351.989 287.000 C 353.943 287.000,357.000 283.510,357.000 281.278 C 357.000 280.025,357.450 279.000,358.000 279.000 C 358.593 279.000,359.000 275.333,359.000 270.000 C 359.000 264.667,358.593 261.000,358.000 261.000 C 357.450 261.000,357.000 259.875,357.000 258.500 C 357.000 256.944,356.433 256.000,355.500 256.000 C 354.675 256.000,354.000 255.550,354.000 255.000 C 354.000 254.450,353.325 254.000,352.500 254.000 C 351.675 254.000,351.000 253.325,351.000 252.500 C 351.000 251.585,350.067 251.000,348.607 251.000 C 347.291 251.000,345.955 250.325,345.638 249.500 C 345.322 248.675,344.149 248.000,343.031 248.000 C 341.914 248.000,341.000 247.550,341.000 247.000 C 341.000 246.450,339.200 246.000,337.000 246.000 C 334.111 246.000,333.000 245.583,333.000 244.500 C 333.000 243.452,331.944 243.000,329.500 243.000 C 327.575 243.000,326.000 242.550,326.000 242.000 C 326.000 241.450,324.875 241.000,323.500 241.000 C 321.944 241.000,321.000 240.433,321.000 239.500 C 321.000 238.500,320.000 238.000,318.000 238.000 C 315.467 238.000,315.000 237.611,315.000 235.500 C 315.000 234.125,314.550 233.000,314.000 233.000 C 313.450 233.000,313.000 231.875,313.000 230.500 C 313.000 229.125,313.450 228.000,314.000 228.000 C 314.550 228.000,315.000 227.325,315.000 226.500 C 315.000 225.675,315.675 225.000,316.500 225.000 C 317.325 225.000,318.000 224.550,318.000 224.000 C 318.000 223.400,322.024 223.000,328.071 223.000 C 338.038 223.000,341.000 223.900,341.000 226.929 C 341.000 227.518,341.675 228.000,342.500 228.000 C 343.325 228.000,344.000 228.450,344.000 229.000 C 344.000 229.550,346.250 230.000,349.000 230.000 C 351.750 230.000,354.000 229.550,354.000 229.000 C 354.000 228.450,354.675 228.000,355.500 228.000 C 356.325 228.000,357.000 227.325,357.000 226.500 C 357.000 225.675,357.450 225.000,358.000 225.000 C 358.550 225.000,359.000 224.068,359.000 222.929 C 359.000 220.715,356.836 218.000,355.071 218.000 C 354.482 218.000,354.000 217.325,354.000 216.500 C 354.000 215.675,353.325 215.000,352.500 215.000 C 351.675 215.000,351.000 214.325,351.000 213.500 C 351.000 212.567,350.056 212.000,348.500 212.000 C 347.125 212.000,346.000 211.550,346.000 211.000 C 346.000 210.450,344.425 210.000,342.500 210.000 C 340.056 210.000,339.000 209.548,339.000 208.500 C 339.000 207.262,337.167 207.000,328.500 207.000 C 319.833 207.000,318.000 207.262,318.000 208.500 M109.000 224.000 C 109.000 224.550,110.350 225.000,112.000 225.000 C 113.650 225.000,115.000 225.482,115.000 226.071 C 115.000 227.456,117.544 230.000,118.929 230.000 C 119.518 230.000,120.000 230.675,120.000 231.500 C 120.000 232.325,120.450 233.000,121.000 233.000 C 121.550 233.000,122.000 233.675,122.000 234.500 C 122.000 235.325,122.675 236.000,123.500 236.000 C 124.548 236.000,125.000 237.056,125.000 239.500 C 125.000 241.425,125.450 243.000,126.000 243.000 C 126.593 243.000,127.000 246.667,127.000 252.000 C 127.000 257.333,126.593 261.000,126.000 261.000 C 125.450 261.000,125.000 262.350,125.000 264.000 C 125.000 266.000,124.500 267.000,123.500 267.000 C 122.649 267.000,122.000 267.897,122.000 269.071 C 122.000 271.285,119.836 274.000,118.071 274.000 C 117.482 274.000,117.000 274.482,117.000 275.071 C 117.000 276.846,114.280 279.000,112.040 279.000 C 110.883 279.000,109.678 279.675,109.362 280.500 C 108.897 281.712,106.598 282.000,97.393 282.000 C 87.933 282.000,86.000 281.746,86.000 280.500 C 86.000 279.675,85.550 279.000,85.000 279.000 C 84.357 279.000,84.000 269.000,84.000 251.000 L 84.000 223.000 96.500 223.000 C 104.167 223.000,109.000 223.387,109.000 224.000 M249.250 224.392 C 250.213 225.123,251.000 226.233,251.000 226.860 C 251.000 227.487,251.482 228.000,252.071 228.000 C 253.456 228.000,256.000 230.544,256.000 231.929 C 256.000 232.518,256.675 233.000,257.500 233.000 C 258.633 233.000,259.000 234.222,259.000 238.000 L 259.000 243.000 237.000 243.000 L 215.000 243.000 215.000 239.607 C 215.000 237.513,215.574 235.994,216.500 235.638 C 217.325 235.322,218.000 234.117,218.000 232.960 C 218.000 230.720,220.154 228.000,221.929 228.000 C 222.518 228.000,223.000 227.325,223.000 226.500 C 223.000 225.567,223.944 225.000,225.500 225.000 C 226.875 225.000,228.000 224.550,228.000 224.000 C 228.000 222.432,247.133 222.785,249.250 224.392 M135.000 329.500 L 135.000 336.000 171.000 336.000 L 207.000 336.000 207.000 329.500 L 207.000 323.000 171.000 323.000 L 135.000 323.000 135.000 329.500 " stroke="none" fill="#000000" fill-rule="evenodd"></path></g></svg>