<svg id="svg" version="1.1" width="400" height="400" xmlns="http://www.w3.org/2000/svg" xmlns:xlink="http://www.w3.org/1999/xlink" style="display: block;"><g id="svgg"><path id="path0" d="M82.870 71.287 C 81.423 73.604,79.930 76.513,79.552 77.750 C 79.174 78.987,78.498 80.000,78.049 80.000 C 77.600 80.000,76.968 80.787,76.644 81.750 C 76.320 82.713,74.717 85.750,73.082 88.500 C 71.447 91.250,68.548 96.451,66.639 100.058 C 64.730 103.664,62.456 107.207,61.584 107.930 C 60.713 108.653,60.000 109.872,60.000 110.638 C 60.000 111.404,58.523 114.386,56.718 117.265 C 53.269 122.767,51.803 125.323,47.405 133.500 C 45.926 136.250,43.655 139.892,42.358 141.594 C 41.061 143.296,40.000 145.102,40.000 145.608 C 40.000 146.113,38.425 148.865,36.500 151.724 C 34.575 154.582,33.000 157.393,33.000 157.969 C 33.000 158.546,31.650 160.881,30.000 163.159 C 28.350 165.436,27.000 167.714,27.000 168.220 C 27.000 168.726,25.732 171.021,24.182 173.320 C 22.631 175.619,20.332 179.525,19.072 182.000 C 17.812 184.475,16.455 186.725,16.057 187.000 C 15.659 187.275,13.915 190.313,12.182 193.750 L 9.030 200.000 12.182 206.250 C 13.915 209.688,15.659 212.725,16.057 213.000 C 16.455 213.275,17.812 215.525,19.072 218.000 C 20.332 220.475,22.519 224.300,23.932 226.500 C 25.344 228.700,27.616 232.637,28.979 235.250 C 30.343 237.863,31.805 240.000,32.229 240.000 C 32.653 240.000,33.000 240.693,33.000 241.539 C 33.000 242.386,34.575 245.418,36.500 248.276 C 38.425 251.135,40.000 253.828,40.000 254.261 C 40.000 254.694,41.575 257.338,43.500 260.136 C 45.425 262.935,47.000 265.671,47.000 266.217 C 47.000 266.763,48.350 269.210,50.000 271.655 C 51.650 274.100,53.000 276.425,53.000 276.823 C 53.000 277.220,54.575 279.937,56.500 282.860 C 58.425 285.783,60.000 288.546,60.000 289.000 C 60.000 289.454,61.575 292.217,63.500 295.140 C 65.425 298.063,67.000 300.872,67.000 301.383 C 67.000 301.893,68.038 303.704,69.307 305.406 C 70.576 307.108,72.870 310.939,74.406 313.920 C 75.941 316.901,77.828 319.970,78.598 320.741 C 79.369 321.512,80.000 322.626,80.000 323.217 C 80.000 323.807,81.237 326.249,82.750 328.643 L 85.500 332.996 124.111 332.998 L 162.721 333.000 166.111 326.975 C 167.975 323.662,170.465 319.162,171.645 316.976 C 172.825 314.791,175.187 310.825,176.895 308.164 C 178.603 305.502,180.000 303.036,180.000 302.682 C 180.000 302.328,181.575 299.577,183.500 296.567 C 185.425 293.558,187.000 290.705,187.000 290.226 C 187.000 289.748,188.337 287.589,189.972 285.428 C 191.607 283.268,192.957 281.042,192.972 280.482 C 192.987 279.922,194.132 277.799,195.515 275.763 C 196.898 273.728,199.305 269.686,200.865 266.781 C 206.533 256.224,209.215 251.507,210.958 249.028 C 211.937 247.638,213.051 245.490,213.434 244.256 C 213.818 243.022,214.731 241.412,215.464 240.679 C 216.197 239.946,218.182 236.601,219.876 233.246 C 221.569 229.891,223.409 226.866,223.963 226.523 C 224.517 226.181,226.016 223.785,227.294 221.200 C 231.353 212.990,234.369 207.516,235.126 206.984 C 235.530 206.700,237.191 203.939,238.817 200.847 C 240.444 197.756,242.950 193.496,244.387 191.381 C 245.824 189.266,247.000 187.143,247.000 186.663 C 247.000 186.183,248.350 183.790,250.000 181.345 C 251.650 178.900,253.000 176.468,253.000 175.940 C 253.000 175.412,254.575 172.739,256.500 170.000 C 258.425 167.261,260.000 164.605,260.000 164.098 C 260.000 163.590,261.575 160.783,263.500 157.860 C 265.425 154.937,267.000 152.128,267.000 151.617 C 267.000 151.107,268.056 149.296,269.346 147.594 C 270.636 145.892,272.491 142.803,273.469 140.730 C 275.537 136.345,277.265 136.969,279.754 143.000 C 280.549 144.925,281.794 147.175,282.521 148.000 C 283.247 148.825,285.038 151.750,286.500 154.500 C 287.961 157.250,290.910 162.425,293.052 166.000 C 295.195 169.575,297.837 174.314,298.923 176.531 C 300.010 178.747,302.272 182.456,303.950 184.772 C 305.627 187.088,307.000 189.635,307.000 190.432 C 307.000 191.230,307.456 192.164,308.014 192.509 C 308.572 192.854,309.893 194.830,310.949 196.900 L 312.870 200.665 309.939 205.083 C 308.327 207.512,307.007 209.818,307.004 210.206 C 307.000 210.930,302.828 217.547,301.014 219.708 C 300.456 220.372,300.000 221.499,300.000 222.211 C 300.000 222.923,298.425 225.722,296.500 228.429 C 294.575 231.137,292.987 233.835,292.972 234.426 C 292.957 235.017,291.607 237.268,289.972 239.428 C 288.337 241.589,287.000 243.969,287.000 244.719 C 287.000 246.026,283.867 250.972,281.250 253.794 C 280.563 254.536,280.000 255.790,280.000 256.582 C 280.000 257.373,278.425 260.261,276.500 263.000 C 274.575 265.739,273.000 268.438,273.000 268.998 C 273.000 269.559,271.650 271.881,270.000 274.159 C 268.350 276.436,267.000 278.719,267.000 279.231 C 267.000 279.742,265.425 282.534,263.500 285.434 C 261.575 288.334,260.000 291.448,260.000 292.354 C 260.000 293.259,259.663 294.003,259.250 294.006 C 258.467 294.013,256.071 297.712,252.452 304.500 C 247.437 313.908,244.737 318.594,243.523 320.000 C 242.214 321.516,237.000 331.481,237.000 332.467 C 237.000 332.760,254.438 332.984,275.750 332.963 L 314.500 332.927 317.130 328.713 C 318.577 326.396,320.070 323.488,320.448 322.250 C 320.826 321.012,321.502 320.000,321.951 320.000 C 322.400 320.000,323.032 319.212,323.356 318.250 C 323.680 317.288,325.283 314.250,326.918 311.500 C 328.553 308.750,331.452 303.549,333.361 299.942 C 335.270 296.336,337.544 292.793,338.416 292.070 C 339.287 291.347,340.000 290.128,340.000 289.362 C 340.000 288.596,341.477 285.614,343.282 282.735 C 346.731 277.233,348.197 274.677,352.595 266.500 C 354.074 263.750,356.345 260.108,357.642 258.406 C 358.939 256.704,360.000 254.898,360.000 254.392 C 360.000 253.887,361.575 251.135,363.500 248.276 C 365.425 245.418,367.000 242.607,367.000 242.031 C 367.000 241.454,368.350 239.119,370.000 236.841 C 371.650 234.564,373.000 232.286,373.000 231.780 C 373.000 231.274,374.268 228.979,375.818 226.680 C 377.369 224.381,379.668 220.475,380.928 218.000 C 382.188 215.525,383.545 213.275,383.943 213.000 C 384.341 212.725,386.085 209.688,387.818 206.250 L 390.970 200.000 387.818 193.750 C 386.085 190.313,384.341 187.275,383.943 187.000 C 383.545 186.725,382.188 184.475,380.928 182.000 C 379.668 179.525,377.369 175.619,375.818 173.320 C 374.268 171.021,373.000 168.726,373.000 168.220 C 373.000 167.714,371.650 165.436,370.000 163.159 C 368.350 160.881,367.000 158.546,367.000 157.969 C 367.000 157.393,365.425 154.582,363.500 151.724 C 361.575 148.865,360.000 146.172,360.000 145.739 C 360.000 145.306,358.425 142.662,356.500 139.864 C 354.575 137.065,353.000 134.329,353.000 133.783 C 353.000 133.237,351.650 130.790,350.000 128.345 C 348.350 125.900,347.000 123.575,347.000 123.177 C 347.000 122.780,345.425 120.063,343.500 117.140 C 341.575 114.217,340.000 111.280,340.000 110.613 C 340.000 109.946,339.443 108.843,338.762 108.162 C 337.396 106.796,330.872 95.768,326.026 86.636 C 324.314 83.410,322.259 80.116,321.457 79.314 C 320.656 78.513,320.000 77.374,320.000 76.783 C 320.000 76.193,318.762 73.751,317.250 71.357 L 314.500 67.004 275.889 67.002 L 237.279 67.000 233.889 73.025 C 232.025 76.338,229.535 80.838,228.355 83.024 C 227.175 85.209,224.813 89.175,223.105 91.836 C 221.397 94.498,220.000 96.964,220.000 97.318 C 220.000 97.672,218.425 100.423,216.500 103.433 C 214.575 106.442,213.000 109.295,213.000 109.774 C 213.000 110.252,211.663 112.411,210.028 114.572 C 208.393 116.732,207.043 118.958,207.028 119.518 C 207.013 120.078,205.911 122.138,204.581 124.096 C 202.366 127.355,199.919 131.645,193.243 143.972 C 191.911 146.431,190.057 149.581,189.124 150.972 C 188.191 152.362,186.770 154.850,185.966 156.500 C 185.161 158.150,184.223 159.725,183.881 160.000 C 183.538 160.275,181.860 163.280,180.151 166.677 C 178.443 170.075,176.591 173.134,176.037 173.477 C 175.483 173.819,173.984 176.215,172.706 178.800 C 168.647 187.010,165.631 192.484,164.874 193.016 C 164.470 193.300,162.763 196.148,161.082 199.345 C 159.400 202.542,157.198 206.360,156.188 207.829 C 155.178 209.298,153.352 212.465,152.131 214.866 C 150.911 217.267,149.256 219.886,148.456 220.687 C 147.655 221.488,147.000 222.790,147.000 223.582 C 147.000 224.373,145.425 227.261,143.500 230.000 C 141.575 232.739,140.000 235.604,140.000 236.367 C 140.000 237.131,139.304 238.333,138.453 239.039 C 137.602 239.745,135.792 242.677,134.431 245.555 C 133.069 248.432,131.132 251.847,130.126 253.143 C 129.119 254.439,127.495 257.204,126.517 259.286 C 124.592 263.382,121.994 262.706,120.404 257.698 C 120.048 256.576,118.330 253.373,116.586 250.579 C 114.842 247.786,112.852 244.375,112.164 243.000 C 111.476 241.625,109.153 237.575,107.001 234.000 C 104.850 230.425,102.285 225.925,101.302 224.000 C 100.318 222.075,98.048 218.367,96.257 215.760 C 94.466 213.153,93.000 210.367,93.000 209.569 C 93.000 208.771,92.544 207.836,91.986 207.491 C 91.428 207.146,90.107 205.170,89.051 203.100 L 87.130 199.335 90.061 194.917 C 91.673 192.488,92.993 190.182,92.996 189.794 C 93.000 189.070,97.172 182.453,98.986 180.292 C 99.544 179.628,100.000 178.501,100.000 177.789 C 100.000 177.077,101.575 174.278,103.500 171.571 C 105.425 168.863,107.013 166.165,107.028 165.574 C 107.043 164.983,108.393 162.732,110.028 160.572 C 111.663 158.411,113.000 156.044,113.000 155.312 C 113.000 154.579,114.575 151.739,116.500 149.000 C 118.425 146.261,120.000 143.561,120.000 143.000 C 120.000 142.439,121.575 139.739,123.500 137.000 C 125.425 134.261,127.000 131.562,127.000 131.002 C 127.000 130.441,128.350 128.119,130.000 125.841 C 131.650 123.564,133.000 121.281,133.000 120.769 C 133.000 120.258,134.575 117.466,136.500 114.566 C 138.425 111.666,140.000 108.552,140.000 107.646 C 140.000 106.741,140.338 105.997,140.750 105.994 C 141.533 105.987,143.929 102.288,147.548 95.500 C 152.563 86.092,155.263 81.406,156.477 80.000 C 157.786 78.484,163.000 68.519,163.000 67.533 C 163.000 67.240,145.563 67.016,124.250 67.037 L 85.500 67.073 82.870 71.287 " stroke="none" fill="#000000" fill-rule="evenodd"></path></g></svg>