<svg id="svg" version="1.1" width="515" height="514" xmlns="http://www.w3.org/2000/svg" xmlns:xlink="http://www.w3.org/1999/xlink" style="display: block;"><g id="svgg"><path id="path0" d="M0.492 259.500 C 0.492 399.750,0.608 456.976,0.750 386.670 C 0.892 316.363,0.892 201.613,0.750 131.670 C 0.608 61.726,0.492 119.250,0.492 259.500 M255.206 17.250 L 255.500 24.500 348.250 24.755 L 441.000 25.010 441.000 102.505 L 441.000 180.000 433.607 180.000 C 425.016 180.000,425.000 180.017,425.000 189.589 L 425.000 196.014 355.750 195.757 L 286.500 195.500 286.206 188.250 L 285.912 181.000 278.456 181.000 L 271.000 181.000 271.000 188.458 L 271.000 195.916 263.250 196.208 L 255.500 196.500 255.206 203.738 L 254.913 210.976 293.706 211.238 L 332.500 211.500 332.793 219.293 L 333.086 227.086 340.293 226.793 L 347.500 226.500 347.792 218.750 L 348.084 211.000 386.498 211.000 L 424.912 211.000 425.206 203.750 L 425.500 196.500 432.458 196.200 C 441.492 195.810,442.000 195.304,442.000 186.718 L 442.000 179.682 464.500 180.314 L 487.000 180.947 487.000 172.973 L 487.000 165.000 472.000 165.000 L 457.000 165.000 457.000 95.000 L 457.000 25.000 449.500 25.000 L 442.000 25.000 442.000 17.500 L 442.000 10.000 348.456 10.000 L 254.912 10.000 255.206 17.250 M240.000 32.500 L 240.000 40.000 247.500 40.000 L 255.000 40.000 255.000 32.500 L 255.000 25.000 247.500 25.000 L 240.000 25.000 240.000 32.500 M225.152 41.317 C 224.284 42.363,224.052 60.181,224.243 111.111 L 224.500 179.500 239.500 179.500 L 254.500 179.500 254.500 172.500 L 254.500 165.500 246.758 165.208 L 239.015 164.916 238.758 102.708 L 238.500 40.500 232.409 40.206 C 228.106 39.999,225.975 40.325,225.152 41.317 M272.000 70.954 C 270.700 71.703,270.536 76.962,270.773 110.409 L 271.046 149.000 278.523 149.000 L 286.000 149.000 286.000 141.500 C 286.000 135.039,286.242 133.995,287.750 133.961 C 288.712 133.939,295.575 133.826,303.000 133.711 L 316.500 133.500 316.794 126.250 L 317.088 119.000 301.985 119.000 C 291.574 119.000,287.086 118.670,287.539 117.937 C 287.961 117.255,293.440 116.922,302.848 117.007 C 310.907 117.080,320.988 117.108,325.250 117.070 L 333.000 117.000 333.000 109.500 L 333.000 102.000 340.500 102.000 L 348.000 102.000 348.000 109.500 L 348.000 117.000 355.500 117.000 L 363.000 117.000 363.000 101.941 C 363.000 92.156,363.350 87.098,364.000 87.500 C 365.680 88.538,365.291 115.852,363.571 117.571 C 362.464 118.679,358.867 119.000,347.571 119.000 L 333.000 119.000 333.000 126.500 L 333.000 134.000 325.500 134.000 L 318.000 134.000 318.000 141.458 L 318.000 148.916 310.250 149.208 L 302.500 149.500 302.206 156.750 L 301.912 164.000 348.466 164.000 L 395.020 164.000 394.760 117.250 L 394.500 70.500 334.000 70.295 C 300.725 70.183,272.825 70.479,272.000 70.954 M255.706 149.627 C 255.318 150.015,255.000 153.408,255.000 157.167 L 255.000 164.000 263.044 164.000 L 271.088 164.000 270.794 156.750 L 270.500 149.500 263.456 149.210 C 259.582 149.051,256.095 149.239,255.706 149.627 M286.417 166.355 C 286.131 167.101,286.033 170.588,286.199 174.105 L 286.500 180.500 293.750 180.794 L 301.000 181.088 301.000 173.044 L 301.000 165.000 293.969 165.000 C 288.975 165.000,286.787 165.393,286.417 166.355 M209.206 188.250 L 209.500 195.500 216.500 195.500 L 223.500 195.500 223.794 188.250 L 224.088 181.000 216.500 181.000 L 208.912 181.000 209.206 188.250 M488.000 211.542 L 488.000 242.084 495.750 241.792 L 503.500 241.500 503.765 211.250 L 504.029 181.000 496.015 181.000 L 488.000 181.000 488.000 211.542 M193.667 196.667 C 193.300 197.033,193.000 200.408,193.000 204.167 L 193.000 211.000 200.500 211.000 L 208.000 211.000 208.000 203.500 L 208.000 196.000 201.167 196.000 C 197.408 196.000,194.033 196.300,193.667 196.667 M163.201 211.855 C 162.288 212.434,161.990 214.737,162.201 219.590 L 162.500 226.500 177.500 226.500 L 192.500 226.500 192.799 219.590 C 193.177 210.861,193.481 211.031,177.500 211.031 C 170.350 211.031,163.915 211.402,163.201 211.855 M84.419 228.350 C 84.129 229.106,84.029 232.374,84.196 235.612 L 84.500 241.500 123.000 241.500 L 161.500 241.500 161.500 234.500 L 161.500 227.500 123.223 227.238 C 91.506 227.021,84.856 227.212,84.419 228.350 M302.425 228.335 C 302.132 229.099,302.029 232.374,302.196 235.612 L 302.500 241.500 317.500 241.500 L 332.500 241.500 332.500 234.500 L 332.500 227.500 317.729 227.223 C 305.858 227.001,302.853 227.219,302.425 228.335 M472.667 242.667 C 472.300 243.033,472.000 246.633,472.000 250.667 L 472.000 258.000 464.500 258.000 L 457.000 258.000 457.000 265.393 C 457.000 273.928,457.076 274.000,466.082 274.000 L 472.000 274.000 472.000 266.000 L 472.000 258.000 479.500 258.000 L 487.000 258.000 487.000 250.000 L 487.000 242.000 480.167 242.000 C 476.408 242.000,473.033 242.300,472.667 242.667 M69.000 250.544 L 69.000 258.088 76.250 257.794 L 83.500 257.500 83.794 250.250 L 84.088 243.000 76.544 243.000 L 69.000 243.000 69.000 250.544 M162.206 250.250 L 162.500 257.500 185.500 258.000 L 208.500 258.500 209.000 266.000 L 209.500 273.500 216.500 273.500 L 223.500 273.500 223.791 265.793 L 224.083 258.086 231.291 257.793 L 238.500 257.500 238.794 250.250 L 239.088 243.000 200.500 243.000 L 161.912 243.000 162.206 250.250 M286.667 243.667 C 286.300 244.033,286.000 247.408,286.000 251.167 L 286.000 258.000 278.542 258.000 L 271.084 258.000 270.792 265.750 L 270.500 273.500 255.250 273.776 L 240.000 274.052 240.000 281.526 L 240.000 289.000 253.918 289.000 C 261.573 289.000,268.548 289.273,269.418 289.607 C 270.834 290.150,271.000 295.886,271.000 344.107 L 271.000 398.000 263.000 398.000 L 255.000 398.000 255.000 405.500 L 255.000 413.000 162.006 413.000 L 69.012 413.000 68.756 335.750 L 68.500 258.500 61.250 258.206 L 54.000 257.912 54.000 327.956 L 54.000 398.000 46.000 398.000 L 38.000 398.000 38.000 405.500 L 38.000 413.000 44.800 413.000 C 53.228 413.000,54.000 413.730,54.000 421.700 L 54.000 428.000 154.500 428.000 L 255.000 428.000 255.000 420.500 L 255.000 413.000 263.000 413.000 L 271.000 413.000 271.000 405.500 L 271.000 398.000 294.000 398.000 L 317.000 398.000 317.000 428.958 L 317.000 459.916 309.250 460.208 L 301.500 460.500 301.207 467.707 L 300.914 474.914 293.707 475.207 L 286.500 475.500 286.500 483.000 L 286.500 490.500 293.500 490.500 L 300.500 490.500 300.792 482.750 L 301.084 475.000 309.042 475.000 L 317.000 475.000 317.000 467.500 L 317.000 460.000 325.000 460.000 L 333.000 460.000 333.000 429.000 L 333.000 398.000 325.000 398.000 L 317.000 398.000 317.000 390.500 L 317.000 383.000 301.500 383.000 L 286.000 383.000 286.000 336.000 L 286.000 289.000 371.500 289.000 L 457.000 289.000 457.000 281.500 L 457.000 274.000 372.700 274.000 C 277.539 274.000,286.000 274.898,286.000 264.800 L 286.000 258.000 293.500 258.000 L 301.000 258.000 301.000 250.500 L 301.000 243.000 294.167 243.000 C 290.408 243.000,287.033 243.300,286.667 243.667 M348.000 250.500 L 348.000 258.000 378.876 258.000 L 409.752 258.000 410.226 252.285 C 411.069 242.123,414.029 243.000,378.883 243.000 L 348.000 243.000 348.000 250.500 M192.887 274.750 C 192.825 275.163,192.712 278.425,192.637 282.000 L 192.500 288.500 185.325 288.792 L 178.150 289.085 177.825 296.792 L 177.500 304.500 185.250 304.174 L 193.000 303.848 193.000 296.424 L 193.000 289.000 200.500 289.000 L 208.000 289.000 208.000 281.500 L 208.000 274.000 200.500 274.000 C 196.375 274.000,192.949 274.337,192.887 274.750 M99.000 335.000 L 99.000 381.000 92.500 381.000 C 88.804 381.000,86.000 381.434,86.000 382.007 C 86.000 382.675,109.100 382.927,154.750 382.757 L 223.500 382.500 223.500 344.000 L 223.500 305.500 216.293 305.207 L 209.086 304.914 208.793 312.707 L 208.500 320.500 193.250 320.776 L 178.000 321.052 177.799 336.276 C 177.688 344.649,177.444 348.012,177.257 343.750 L 176.916 336.000 169.382 336.000 L 161.848 336.000 162.174 344.014 C 162.433 350.373,162.225 351.921,161.168 351.514 C 160.436 351.231,156.723 351.000,152.918 351.000 L 146.000 351.000 146.000 343.542 L 146.000 336.084 153.750 335.792 L 161.500 335.500 161.791 327.793 L 162.083 320.086 169.291 319.793 L 176.500 319.500 176.500 312.500 L 176.500 305.500 169.500 304.927 L 162.500 304.353 169.750 304.177 L 177.000 304.000 177.000 296.500 L 177.000 289.000 138.000 289.000 L 99.000 289.000 99.000 335.000 M224.706 289.627 C 224.318 290.015,224.000 293.408,224.000 297.167 L 224.000 304.000 232.044 304.000 L 240.088 304.000 239.794 296.750 L 239.500 289.500 232.456 289.210 C 228.582 289.051,225.095 289.239,224.706 289.627 M161.000 367.000 C 161.000 367.621,155.520 368.000,146.559 368.000 C 138.010 368.000,131.866 367.592,131.500 367.000 C 131.098 366.350,136.156 366.000,145.941 366.000 C 155.314 366.000,161.000 366.378,161.000 367.000 M23.250 413.662 C 22.419 413.998,22.000 416.486,22.000 421.083 L 22.000 428.000 29.500 428.000 L 37.000 428.000 37.000 420.500 L 37.000 413.000 30.750 413.079 C 27.313 413.122,23.938 413.385,23.250 413.662 M7.235 460.250 L 7.500 490.500 12.434 490.812 C 15.147 490.984,18.410 490.863,19.684 490.543 L 22.000 489.962 22.000 459.981 L 22.000 430.000 14.485 430.000 L 6.971 430.000 7.235 460.250 M177.208 467.750 L 177.500 475.500 208.500 475.500 L 239.500 475.500 239.792 467.750 L 240.084 460.000 208.500 460.000 L 176.916 460.000 177.208 467.750 M29.707 491.744 L 21.914 492.086 22.207 499.293 L 22.500 506.500 154.000 506.500 L 285.500 506.500 285.792 498.750 L 286.084 491.000 161.792 491.201 C 93.431 491.312,33.993 491.556,29.707 491.744 " stroke="none" fill="#000000" fill-rule="evenodd"></path></g></svg>