<svg id="svg" version="1.1" width="400" height="400" xmlns="http://www.w3.org/2000/svg" xmlns:xlink="http://www.w3.org/1999/xlink" style="display: block;"><g id="svgg"><path id="path0" d="M195.000 32.000 C 195.000 32.550,193.425 33.000,191.500 33.000 C 189.575 33.000,188.000 33.398,188.000 33.885 C 188.000 34.371,185.525 35.079,182.500 35.457 C 179.475 35.835,177.000 36.562,177.000 37.072 C 177.000 37.582,175.875 38.000,174.500 38.000 C 173.125 38.000,172.000 38.450,172.000 39.000 C 172.000 39.550,171.100 40.000,170.000 40.000 C 168.900 40.000,168.000 40.450,168.000 41.000 C 168.000 41.550,166.875 42.000,165.500 42.000 C 164.125 42.000,163.000 42.391,163.000 42.868 C 163.000 43.346,161.097 43.992,158.772 44.304 C 156.446 44.616,154.383 45.350,154.188 45.935 C 153.993 46.521,152.521 47.000,150.917 47.000 C 149.313 47.000,148.000 47.450,148.000 48.000 C 148.000 48.550,147.325 49.000,146.500 49.000 C 145.675 49.000,145.000 49.418,145.000 49.928 C 145.000 50.438,142.525 51.165,139.500 51.543 C 136.475 51.921,134.000 52.629,134.000 53.115 C 134.000 53.602,133.325 54.000,132.500 54.000 C 131.675 54.000,131.000 54.450,131.000 55.000 C 131.000 55.550,129.650 56.000,128.000 56.000 C 126.350 56.000,125.000 56.450,125.000 57.000 C 125.000 57.550,124.325 58.000,123.500 58.000 C 122.675 58.000,122.000 58.398,122.000 58.885 C 122.000 59.371,119.525 60.079,116.500 60.457 C 113.475 60.835,111.000 61.562,111.000 62.072 C 111.000 62.582,110.325 63.000,109.500 63.000 C 108.675 63.000,108.000 63.450,108.000 64.000 C 108.000 64.550,106.688 65.000,105.083 65.000 C 103.479 65.000,102.007 65.479,101.812 66.065 C 101.617 66.650,99.554 67.384,97.228 67.696 C 94.903 68.008,93.000 68.654,93.000 69.132 C 93.000 69.609,92.325 70.000,91.500 70.000 C 90.675 70.000,90.000 70.450,90.000 71.000 C 90.000 71.550,88.650 72.000,87.000 72.000 C 85.350 72.000,84.000 72.450,84.000 73.000 C 84.000 73.550,82.912 74.000,81.583 74.000 C 80.254 74.000,79.007 74.479,78.812 75.065 C 78.617 75.650,76.554 76.384,74.228 76.696 C 71.903 77.008,70.000 77.654,70.000 78.132 C 70.000 78.609,69.325 79.000,68.500 79.000 C 67.675 79.000,67.000 79.450,67.000 80.000 C 67.000 80.550,65.650 81.000,64.000 81.000 C 62.350 81.000,61.000 81.445,61.000 81.988 C 61.000 82.532,59.190 83.266,56.978 83.620 C 54.766 83.973,52.714 84.654,52.419 85.131 C 52.124 85.609,50.784 86.000,49.441 86.000 C 48.098 86.000,47.000 86.450,47.000 87.000 C 47.000 87.550,46.325 88.000,45.500 88.000 C 44.675 88.000,44.000 88.450,44.000 89.000 C 44.000 89.550,42.688 90.000,41.083 90.000 C 39.479 90.000,38.007 90.479,37.812 91.065 C 37.617 91.650,35.554 92.384,33.228 92.696 C 30.903 93.008,29.000 93.654,29.000 94.132 C 29.000 94.609,28.325 95.000,27.500 95.000 C 26.675 95.000,26.000 95.450,26.000 96.000 C 26.000 96.550,24.650 97.000,23.000 97.000 C 21.350 97.000,20.000 97.445,20.000 97.988 C 20.000 98.532,18.200 99.264,16.000 99.616 C 13.800 99.968,12.000 100.648,12.000 101.128 C 12.000 101.608,11.307 102.000,10.460 102.000 C 9.614 102.000,7.139 103.818,4.960 106.040 L 1.000 110.081 1.000 132.040 C 1.000 146.013,1.364 154.000,2.000 154.000 C 2.550 154.000,3.000 154.627,3.000 155.394 C 3.000 157.760,8.392 162.708,11.782 163.452 C 15.126 164.186,16.566 168.000,13.500 168.000 C 12.675 168.000,12.000 168.450,12.000 169.000 C 12.000 169.550,11.100 170.000,10.000 170.000 C 8.900 170.000,8.000 170.441,8.000 170.981 C 8.000 171.520,6.875 172.244,5.500 172.589 C 3.936 172.982,3.000 173.925,3.000 175.108 C 3.000 176.149,2.550 177.000,2.000 177.000 C 1.364 177.000,1.000 185.000,1.000 199.000 C 1.000 211.100,1.394 221.000,1.875 221.000 C 2.356 221.000,3.018 222.338,3.345 223.973 C 3.783 226.163,4.672 227.128,6.720 227.633 C 11.049 228.702,15.027 234.000,11.500 234.000 C 10.675 234.000,10.000 234.394,10.000 234.875 C 10.000 235.356,8.686 236.013,7.080 236.334 C 5.347 236.681,3.898 237.747,3.513 238.959 C 3.157 240.082,2.446 241.000,1.933 241.000 C 0.421 241.000,0.727 285.839,2.250 287.537 C 6.794 292.604,8.552 294.000,10.390 294.000 C 11.202 294.000,12.151 294.900,12.500 296.000 C 12.849 297.100,14.004 298.000,15.067 298.000 C 16.130 298.000,17.000 298.399,17.000 298.886 C 17.000 299.374,19.025 300.077,21.500 300.448 C 23.975 300.819,26.000 301.545,26.000 302.061 C 26.000 302.578,26.675 303.000,27.500 303.000 C 28.325 303.000,29.000 303.450,29.000 304.000 C 29.000 304.550,29.900 305.000,31.000 305.000 C 32.100 305.000,33.000 305.399,33.000 305.886 C 33.000 306.374,35.025 307.077,37.500 307.448 C 39.975 307.819,42.000 308.545,42.000 309.061 C 42.000 309.578,43.125 310.000,44.500 310.000 C 45.875 310.000,47.000 310.450,47.000 311.000 C 47.000 311.550,47.900 312.000,49.000 312.000 C 50.100 312.000,51.000 312.450,51.000 313.000 C 51.000 313.550,51.675 314.000,52.500 314.000 C 53.325 314.000,54.000 314.391,54.000 314.868 C 54.000 315.346,55.903 315.992,58.228 316.304 C 60.554 316.616,62.617 317.350,62.812 317.935 C 63.007 318.521,64.029 319.000,65.083 319.000 C 66.138 319.000,67.000 319.450,67.000 320.000 C 67.000 320.550,68.125 321.000,69.500 321.000 C 70.875 321.000,72.000 321.422,72.000 321.939 C 72.000 322.455,74.025 323.181,76.500 323.552 C 78.975 323.923,81.000 324.626,81.000 325.114 C 81.000 325.601,81.675 326.000,82.500 326.000 C 83.325 326.000,84.000 326.450,84.000 327.000 C 84.000 327.550,85.350 328.000,87.000 328.000 C 88.650 328.000,90.000 328.450,90.000 329.000 C 90.000 329.550,90.675 330.000,91.500 330.000 C 92.325 330.000,93.000 330.422,93.000 330.939 C 93.000 331.455,95.025 332.181,97.500 332.552 C 99.975 332.923,102.000 333.626,102.000 334.114 C 102.000 334.601,102.900 335.000,104.000 335.000 C 105.100 335.000,106.000 335.450,106.000 336.000 C 106.000 336.550,107.125 337.000,108.500 337.000 C 109.875 337.000,111.000 337.400,111.000 337.889 C 111.000 338.377,112.575 339.073,114.500 339.434 C 116.425 339.795,118.000 340.520,118.000 341.045 C 118.000 341.570,119.350 342.000,121.000 342.000 C 122.650 342.000,124.000 342.450,124.000 343.000 C 124.000 343.550,124.675 344.000,125.500 344.000 C 126.325 344.000,127.000 344.450,127.000 345.000 C 127.000 345.550,127.849 346.000,128.886 346.000 C 129.923 346.000,132.060 346.672,133.636 347.494 C 135.211 348.315,137.287 348.990,138.250 348.994 C 139.213 348.997,140.000 349.450,140.000 350.000 C 140.000 350.550,141.125 351.000,142.500 351.000 C 143.875 351.000,145.000 351.450,145.000 352.000 C 145.000 352.550,145.675 353.000,146.500 353.000 C 147.325 353.000,148.000 353.391,148.000 353.868 C 148.000 354.346,149.903 354.992,152.228 355.304 C 154.554 355.616,156.617 356.350,156.812 356.935 C 157.007 357.521,158.029 358.000,159.083 358.000 C 160.137 358.000,161.000 358.450,161.000 359.000 C 161.000 359.550,162.125 360.000,163.500 360.000 C 164.875 360.000,166.000 360.450,166.000 361.000 C 166.000 361.550,166.900 362.000,168.000 362.000 C 169.100 362.000,170.000 362.430,170.000 362.955 C 170.000 363.480,171.575 364.205,173.500 364.566 C 175.425 364.927,177.000 365.623,177.000 366.111 C 177.000 366.600,178.125 367.000,179.500 367.000 C 180.875 367.000,182.000 367.450,182.000 368.000 C 182.000 368.550,183.575 369.000,185.500 369.000 C 187.425 369.000,189.000 369.450,189.000 370.000 C 189.000 370.583,192.333 371.000,197.000 371.000 C 201.667 371.000,205.000 370.583,205.000 370.000 C 205.000 369.450,206.575 369.000,208.500 369.000 C 210.425 369.000,212.000 368.550,212.000 368.000 C 212.000 367.450,213.350 367.000,215.000 367.000 C 216.650 367.000,218.000 366.570,218.000 366.045 C 218.000 365.520,219.575 364.795,221.500 364.434 C 223.425 364.073,225.000 363.377,225.000 362.889 C 225.000 362.400,225.675 362.000,226.500 362.000 C 227.325 362.000,228.000 361.550,228.000 361.000 C 228.000 360.450,228.900 360.000,230.000 360.000 C 231.100 360.000,232.000 359.550,232.000 359.000 C 232.000 358.450,232.900 358.000,234.000 358.000 C 235.100 358.000,236.000 357.608,236.000 357.128 C 236.000 356.648,237.800 355.968,240.000 355.616 C 242.200 355.264,244.000 354.532,244.000 353.988 C 244.000 353.445,244.900 353.000,246.000 353.000 C 247.100 353.000,248.000 352.550,248.000 352.000 C 248.000 351.450,248.900 351.000,250.000 351.000 C 251.100 351.000,252.000 350.608,252.000 350.128 C 252.000 349.648,253.800 348.968,256.000 348.616 C 258.200 348.264,260.000 347.532,260.000 346.988 C 260.000 346.445,260.900 346.000,262.000 346.000 C 263.100 346.000,264.000 345.550,264.000 345.000 C 264.000 344.450,264.900 344.000,266.000 344.000 C 267.100 344.000,268.000 343.550,268.000 343.000 C 268.000 342.450,269.125 342.000,270.500 342.000 C 271.875 342.000,273.000 341.570,273.000 341.045 C 273.000 340.520,274.575 339.795,276.500 339.434 C 278.425 339.073,280.000 338.377,280.000 337.889 C 280.000 337.400,281.125 337.000,282.500 337.000 C 283.875 337.000,285.000 336.550,285.000 336.000 C 285.000 335.450,285.863 335.000,286.917 335.000 C 287.971 335.000,288.993 334.521,289.188 333.935 C 289.383 333.350,291.446 332.616,293.772 332.304 C 296.097 331.992,298.000 331.346,298.000 330.868 C 298.000 330.391,298.675 330.000,299.500 330.000 C 300.325 330.000,301.000 329.550,301.000 329.000 C 301.000 328.450,301.900 328.000,303.000 328.000 C 304.100 328.000,305.000 327.550,305.000 327.000 C 305.000 326.450,306.125 326.000,307.500 326.000 C 308.875 326.000,310.000 325.600,310.000 325.111 C 310.000 324.623,311.575 323.927,313.500 323.566 C 315.425 323.205,317.000 322.480,317.000 321.955 C 317.000 321.430,318.350 321.000,320.000 321.000 C 321.650 321.000,323.000 320.550,323.000 320.000 C 323.000 319.450,323.675 319.000,324.500 319.000 C 325.325 319.000,326.000 318.578,326.000 318.061 C 326.000 317.545,328.025 316.819,330.500 316.448 C 332.975 316.077,335.000 315.374,335.000 314.886 C 335.000 314.399,335.900 314.000,337.000 314.000 C 338.100 314.000,339.000 313.550,339.000 313.000 C 339.000 312.450,339.675 312.000,340.500 312.000 C 341.325 312.000,342.000 311.550,342.000 311.000 C 342.000 310.450,342.900 310.000,344.000 310.000 C 345.100 310.000,346.000 309.601,346.000 309.114 C 346.000 308.626,348.025 307.923,350.500 307.552 C 352.975 307.181,355.000 306.455,355.000 305.939 C 355.000 305.422,355.675 305.000,356.500 305.000 C 357.325 305.000,358.000 304.550,358.000 304.000 C 358.000 303.450,358.900 303.000,360.000 303.000 C 361.100 303.000,362.000 302.601,362.000 302.114 C 362.000 301.626,364.025 300.923,366.500 300.552 C 368.975 300.181,371.000 299.455,371.000 298.939 C 371.000 298.422,371.675 298.000,372.500 298.000 C 373.325 298.000,374.000 297.550,374.000 297.000 C 374.000 296.450,374.900 296.000,376.000 296.000 C 377.100 296.000,378.000 295.550,378.000 295.000 C 378.000 294.450,378.675 294.000,379.500 294.000 C 380.325 294.000,381.000 293.600,381.000 293.111 C 381.000 292.623,382.477 291.945,384.282 291.607 C 386.088 291.268,388.212 290.093,389.003 288.995 C 389.794 287.898,391.049 287.000,391.792 287.000 C 396.057 287.000,396.486 284.696,396.803 260.102 C 397.130 234.644,396.886 232.000,394.202 232.000 C 393.234 232.000,391.793 231.100,391.000 230.000 C 390.207 228.900,388.501 228.000,387.208 228.000 C 385.118 228.000,385.024 227.833,386.357 226.500 C 387.182 225.675,388.099 225.000,388.395 225.000 C 388.690 225.000,390.748 223.331,392.966 221.291 L 397.000 217.582 397.000 193.944 C 397.000 168.764,396.469 166.000,391.633 166.000 C 390.735 166.000,390.000 165.570,390.000 165.045 C 390.000 164.520,388.425 163.795,386.500 163.434 C 384.575 163.073,383.000 162.582,383.000 162.343 C 383.000 161.461,387.943 157.000,388.921 157.000 C 389.478 157.000,391.523 155.410,393.467 153.467 L 397.000 149.933 397.000 126.122 C 397.000 100.670,396.672 99.000,391.671 99.000 C 390.752 99.000,390.000 98.550,390.000 98.000 C 390.000 97.450,389.325 97.000,388.500 97.000 C 387.675 97.000,387.000 96.550,387.000 96.000 C 387.000 95.450,385.688 95.000,384.083 95.000 C 382.479 95.000,381.007 94.521,380.812 93.935 C 380.617 93.350,378.554 92.616,376.228 92.304 C 373.903 91.992,372.000 91.346,372.000 90.868 C 372.000 90.391,371.325 90.000,370.500 90.000 C 369.675 90.000,369.000 89.550,369.000 89.000 C 369.000 88.450,367.875 88.000,366.500 88.000 C 365.125 88.000,364.000 87.550,364.000 87.000 C 364.000 86.450,362.688 86.000,361.083 86.000 C 359.479 86.000,358.007 85.521,357.812 84.935 C 357.617 84.350,355.554 83.616,353.228 83.304 C 350.903 82.992,349.000 82.346,349.000 81.868 C 349.000 81.391,348.325 81.000,347.500 81.000 C 346.675 81.000,346.000 80.550,346.000 80.000 C 346.000 79.450,344.650 79.000,343.000 79.000 C 341.350 79.000,340.000 78.555,340.000 78.012 C 340.000 77.468,338.200 76.736,336.000 76.384 C 333.800 76.032,332.000 75.352,332.000 74.872 C 332.000 74.392,331.100 74.000,330.000 74.000 C 328.900 74.000,328.000 73.550,328.000 73.000 C 328.000 72.450,326.875 72.000,325.500 72.000 C 324.125 72.000,323.000 71.550,323.000 71.000 C 323.000 70.450,321.688 70.000,320.083 70.000 C 318.479 70.000,317.007 69.521,316.812 68.935 C 316.617 68.350,314.554 67.616,312.228 67.304 C 309.903 66.992,308.000 66.346,308.000 65.868 C 308.000 65.391,307.325 65.000,306.500 65.000 C 305.675 65.000,305.000 64.550,305.000 64.000 C 305.000 63.450,303.875 63.000,302.500 63.000 C 301.125 63.000,300.000 62.578,300.000 62.061 C 300.000 61.545,297.975 60.819,295.500 60.448 C 293.025 60.077,291.000 59.374,291.000 58.886 C 291.000 58.399,290.100 58.000,289.000 58.000 C 287.900 58.000,287.000 57.550,287.000 57.000 C 287.000 56.450,285.875 56.000,284.500 56.000 C 283.125 56.000,282.000 55.550,282.000 55.000 C 282.000 54.450,281.100 54.000,280.000 54.000 C 278.900 54.000,278.000 53.592,278.000 53.094 C 278.000 52.595,275.750 51.878,273.000 51.500 C 270.250 51.122,268.000 50.405,268.000 49.906 C 268.000 49.408,267.100 49.000,266.000 49.000 C 264.900 49.000,264.000 48.550,264.000 48.000 C 264.000 47.450,262.875 47.000,261.500 47.000 C 260.125 47.000,259.000 46.578,259.000 46.061 C 259.000 45.545,256.975 44.819,254.500 44.448 C 252.025 44.077,250.000 43.374,250.000 42.886 C 250.000 42.399,249.100 42.000,248.000 42.000 C 246.900 42.000,246.000 41.550,246.000 41.000 C 246.000 40.450,244.875 40.000,243.500 40.000 C 242.125 40.000,241.000 39.550,241.000 39.000 C 241.000 38.450,240.151 38.000,239.114 38.000 C 238.077 38.000,235.940 37.328,234.364 36.506 C 232.789 35.685,230.488 35.010,229.250 35.006 C 228.012 35.003,227.000 34.550,227.000 34.000 C 227.000 33.450,225.425 33.000,223.500 33.000 C 221.575 33.000,220.000 32.550,220.000 32.000 C 220.000 31.387,215.167 31.000,207.500 31.000 C 199.833 31.000,195.000 31.387,195.000 32.000 M184.000 57.000 C 184.000 57.550,185.125 58.000,186.500 58.000 C 187.875 58.000,189.000 58.422,189.000 58.939 C 189.000 59.455,191.025 60.181,193.500 60.552 C 195.975 60.923,198.000 61.626,198.000 62.114 C 198.000 62.601,198.900 63.000,200.000 63.000 C 201.100 63.000,202.000 63.450,202.000 64.000 C 202.000 64.550,204.025 65.000,206.500 65.000 C 208.975 65.000,211.000 64.550,211.000 64.000 C 211.000 63.450,212.125 63.000,213.500 63.000 C 214.875 63.000,216.000 62.592,216.000 62.094 C 216.000 61.595,218.363 60.866,221.250 60.473 C 224.137 60.080,226.837 59.250,227.249 58.629 C 227.660 58.008,227.702 59.075,227.340 61.000 C 226.979 62.925,226.304 64.650,225.841 64.833 C 225.379 65.017,225.000 65.804,225.000 66.583 C 225.000 67.362,224.550 68.000,224.000 68.000 C 223.450 68.000,223.000 69.350,223.000 71.000 C 223.000 73.333,223.444 74.000,225.000 74.000 C 226.100 74.000,227.000 74.408,227.000 74.906 C 227.000 75.405,229.250 76.122,232.000 76.500 C 234.750 76.878,237.000 77.595,237.000 78.094 C 237.000 78.592,237.900 79.000,239.000 79.000 C 240.100 79.000,241.000 79.450,241.000 80.000 C 241.000 80.550,239.875 81.000,238.500 81.000 C 237.125 81.000,236.000 81.396,236.000 81.881 C 236.000 82.365,231.787 82.946,226.638 83.171 C 217.064 83.590,214.000 84.844,214.000 88.345 C 214.000 89.164,213.521 89.993,212.935 90.188 C 212.350 90.383,211.616 92.446,211.304 94.772 C 210.694 99.322,207.000 101.234,207.000 97.000 C 207.000 95.900,206.599 95.000,206.108 95.000 C 205.618 95.000,204.934 93.875,204.589 92.500 C 204.244 91.125,203.520 90.000,202.981 90.000 C 202.441 90.000,202.000 89.100,202.000 88.000 C 202.000 86.900,201.550 86.000,201.000 86.000 C 200.450 86.000,200.000 85.518,200.000 84.929 C 200.000 82.030,197.004 81.000,188.571 81.000 C 183.524 81.000,180.000 80.589,180.000 80.000 C 180.000 79.429,177.000 79.000,173.000 79.000 C 164.660 79.000,163.751 77.511,171.500 76.543 C 174.525 76.165,177.000 75.438,177.000 74.928 C 177.000 74.418,178.125 74.000,179.500 74.000 C 180.875 74.000,182.000 73.550,182.000 73.000 C 182.000 72.450,182.707 72.000,183.571 72.000 C 184.436 72.000,185.786 71.357,186.571 70.571 C 188.201 68.942,188.504 65.000,187.000 65.000 C 186.450 65.000,186.000 64.100,186.000 63.000 C 186.000 61.900,185.550 61.000,185.000 61.000 C 184.450 61.000,184.000 60.325,184.000 59.500 C 184.000 58.675,183.550 58.000,183.000 58.000 C 182.450 58.000,182.000 57.550,182.000 57.000 C 182.000 56.450,182.450 56.000,183.000 56.000 C 183.550 56.000,184.000 56.450,184.000 57.000 M292.000 89.000 C 292.000 89.550,293.313 90.000,294.917 90.000 C 296.521 90.000,297.993 90.479,298.188 91.065 C 298.383 91.650,300.446 92.384,302.772 92.696 C 305.097 93.008,307.000 93.654,307.000 94.132 C 307.000 94.609,307.675 95.000,308.500 95.000 C 309.325 95.000,310.000 95.450,310.000 96.000 C 310.000 96.550,311.350 97.000,313.000 97.000 C 314.650 97.000,316.000 97.445,316.000 97.988 C 316.000 98.532,317.800 99.264,320.000 99.616 C 322.200 99.968,324.000 100.648,324.000 101.128 C 324.000 101.608,324.900 102.000,326.000 102.000 C 327.100 102.000,328.000 102.450,328.000 103.000 C 328.000 103.550,329.125 104.000,330.500 104.000 C 331.875 104.000,333.000 104.450,333.000 105.000 C 333.000 105.550,333.900 106.000,335.000 106.000 C 336.100 106.000,337.000 106.417,337.000 106.927 C 337.000 107.436,337.788 108.059,338.750 108.311 C 339.827 108.592,339.442 108.813,337.750 108.884 C 336.238 108.948,335.000 109.450,335.000 110.000 C 335.000 110.550,334.325 111.000,333.500 111.000 C 332.675 111.000,332.000 111.450,332.000 112.000 C 332.000 112.550,330.688 113.000,329.083 113.000 C 327.479 113.000,326.007 113.479,325.812 114.065 C 325.617 114.650,323.554 115.384,321.228 115.696 C 318.903 116.008,317.000 116.654,317.000 117.132 C 317.000 117.609,316.325 118.000,315.500 118.000 C 314.675 118.000,314.000 118.450,314.000 119.000 C 314.000 119.550,312.650 120.000,311.000 120.000 C 309.350 120.000,308.000 120.450,308.000 121.000 C 308.000 121.550,307.325 122.000,306.500 122.000 C 305.675 122.000,305.000 122.399,305.000 122.886 C 305.000 123.374,302.975 124.077,300.500 124.448 C 298.025 124.819,296.000 125.545,296.000 126.061 C 296.000 126.578,295.100 127.000,294.000 127.000 C 292.900 127.000,292.000 127.450,292.000 128.000 C 292.000 128.550,290.875 129.000,289.500 129.000 C 288.125 129.000,287.000 129.450,287.000 130.000 C 287.000 130.550,286.325 131.000,285.500 131.000 C 284.675 131.000,284.000 130.550,284.000 130.000 C 284.000 129.450,283.100 129.000,282.000 129.000 C 280.900 129.000,280.000 128.550,280.000 128.000 C 280.000 127.450,278.875 127.000,277.500 127.000 C 276.125 127.000,275.000 126.578,275.000 126.061 C 275.000 125.545,272.975 124.819,270.500 124.448 C 268.025 124.077,266.000 123.374,266.000 122.886 C 266.000 122.399,265.100 122.000,264.000 122.000 C 262.900 122.000,262.000 121.550,262.000 121.000 C 262.000 120.450,260.875 120.000,259.500 120.000 C 258.125 120.000,257.000 119.550,257.000 119.000 C 257.000 118.450,256.151 118.000,255.114 118.000 C 254.077 118.000,251.940 117.328,250.364 116.506 C 248.789 115.685,246.488 115.010,245.250 115.006 C 244.012 115.003,243.000 114.550,243.000 114.000 C 243.000 113.450,242.100 113.000,241.000 113.000 C 239.900 113.000,239.000 112.550,239.000 112.000 C 239.000 111.450,238.325 111.000,237.500 111.000 C 234.292 111.000,236.213 108.990,240.000 108.384 C 242.200 108.032,244.000 107.352,244.000 106.872 C 244.000 106.392,244.900 106.000,246.000 106.000 C 247.100 106.000,248.000 105.550,248.000 105.000 C 248.000 104.450,249.125 104.000,250.500 104.000 C 251.875 104.000,253.000 103.550,253.000 103.000 C 253.000 102.450,254.313 102.000,255.917 102.000 C 257.521 102.000,258.993 101.521,259.188 100.935 C 259.383 100.350,261.446 99.616,263.772 99.304 C 266.097 98.992,268.000 98.346,268.000 97.868 C 268.000 97.391,268.675 97.000,269.500 97.000 C 270.325 97.000,271.000 96.550,271.000 96.000 C 271.000 95.450,272.125 95.000,273.500 95.000 C 274.875 95.000,276.000 94.578,276.000 94.061 C 276.000 93.545,278.025 92.819,280.500 92.448 C 282.975 92.077,285.000 91.374,285.000 90.886 C 285.000 90.399,285.900 90.000,287.000 90.000 C 288.100 90.000,289.000 89.550,289.000 89.000 C 289.000 88.450,289.675 88.000,290.500 88.000 C 291.325 88.000,292.000 88.450,292.000 89.000 M131.000 94.000 C 131.000 94.556,133.667 95.000,137.000 95.000 C 140.333 95.000,143.000 95.444,143.000 96.000 C 143.000 96.550,144.575 97.000,146.500 97.000 C 148.425 97.000,150.000 97.400,150.000 97.889 C 150.000 98.377,151.575 99.073,153.500 99.434 C 155.425 99.795,157.000 100.520,157.000 101.045 C 157.000 101.570,157.728 102.000,158.618 102.000 C 161.096 102.000,165.966 108.116,165.984 111.250 C 166.001 114.099,162.959 118.000,160.721 118.000 C 160.017 118.000,158.793 118.900,158.000 120.000 C 157.207 121.100,155.983 122.000,155.279 122.000 C 154.576 122.000,154.000 122.404,154.000 122.899 C 154.000 123.393,150.850 124.113,147.000 124.500 C 143.150 124.887,140.000 125.607,140.000 126.101 C 140.000 126.596,136.625 127.000,132.500 127.000 C 128.167 127.000,125.000 127.422,125.000 128.000 C 125.000 128.556,122.333 129.000,119.000 129.000 C 115.667 129.000,113.000 128.556,113.000 128.000 C 113.000 127.429,110.000 127.000,106.000 127.000 C 102.150 127.000,99.000 126.602,99.000 126.116 C 99.000 125.631,96.075 124.920,92.500 124.537 C 88.925 124.154,86.000 123.427,86.000 122.920 C 86.000 122.414,85.040 122.000,83.867 122.000 C 82.694 122.000,81.007 121.181,80.117 120.181 C 79.228 119.180,77.670 118.053,76.655 117.676 C 75.640 117.298,74.575 116.092,74.288 114.995 C 74.001 113.898,73.369 113.000,72.883 113.000 C 71.065 113.000,72.090 108.819,74.500 106.409 C 75.875 105.034,77.000 103.480,77.000 102.955 C 77.000 102.430,77.862 102.000,78.917 102.000 C 79.971 102.000,80.993 101.521,81.188 100.935 C 81.383 100.350,83.446 99.616,85.772 99.304 C 88.097 98.992,90.000 98.346,90.000 97.868 C 90.000 97.391,91.125 97.000,92.500 97.000 C 93.875 97.000,95.000 96.550,95.000 96.000 C 95.000 95.436,97.833 95.000,101.500 95.000 C 105.167 95.000,108.000 94.564,108.000 94.000 C 108.000 93.391,112.500 93.000,119.500 93.000 C 126.500 93.000,131.000 93.391,131.000 94.000 M230.000 134.000 C 230.000 135.100,229.580 136.000,229.067 136.000 C 228.554 136.000,227.815 137.012,227.424 138.250 C 227.034 139.488,225.878 141.228,224.857 142.117 C 223.836 143.007,223.000 144.421,223.000 145.260 C 223.000 146.099,222.325 147.045,221.500 147.362 C 220.675 147.678,220.000 148.671,220.000 149.567 C 220.000 150.464,218.650 152.459,217.000 154.000 C 215.350 155.541,214.000 157.297,214.000 157.901 C 214.000 158.506,213.580 159.000,213.067 159.000 C 212.554 159.000,211.826 159.974,211.448 161.165 C 210.181 165.155,204.000 169.998,204.000 167.000 C 204.000 166.450,202.688 166.000,201.083 166.000 C 199.479 166.000,198.007 165.521,197.812 164.935 C 197.617 164.350,195.554 163.616,193.228 163.304 C 190.903 162.992,189.000 162.346,189.000 161.868 C 189.000 161.391,188.325 161.000,187.500 161.000 C 186.675 161.000,186.000 160.550,186.000 160.000 C 186.000 159.450,185.100 159.000,184.000 159.000 C 182.900 159.000,182.000 158.601,182.000 158.114 C 182.000 157.626,179.975 156.923,177.500 156.552 C 175.025 156.181,173.000 155.455,173.000 154.939 C 173.000 154.422,171.875 154.000,170.500 154.000 C 169.125 154.000,168.000 153.550,168.000 153.000 C 168.000 152.450,167.100 152.000,166.000 152.000 C 164.900 152.000,164.000 151.550,164.000 151.000 C 164.000 150.450,163.325 150.000,162.500 150.000 C 161.675 150.000,161.000 149.601,161.000 149.114 C 161.000 148.626,158.975 147.923,156.500 147.552 C 151.726 146.836,150.287 145.000,154.500 145.000 C 155.875 145.000,157.000 144.550,157.000 144.000 C 157.000 143.450,159.475 143.000,162.500 143.000 C 165.525 143.000,168.000 142.595,168.000 142.101 C 168.000 141.606,173.625 140.877,180.500 140.480 C 187.375 140.084,193.000 139.364,193.000 138.880 C 193.000 138.396,195.475 138.000,198.500 138.000 C 201.525 138.000,204.000 137.550,204.000 137.000 C 204.000 136.450,206.250 136.000,209.000 136.000 C 211.750 136.000,214.000 135.550,214.000 135.000 C 214.000 134.436,216.833 134.000,220.500 134.000 C 224.167 134.000,227.000 133.564,227.000 133.000 C 227.000 132.450,227.675 132.000,228.500 132.000 C 229.333 132.000,230.000 132.889,230.000 134.000 " stroke="none" fill="#000000" fill-rule="evenodd"></path></g></svg>