<svg id="svg" version="1.1" width="400" height="400" xmlns="http://www.w3.org/2000/svg" xmlns:xlink="http://www.w3.org/1999/xlink" style="display: block;"><g id="svgg"><path id="path0" d="M74.405 4.765 C 73.803 5.169,72.496 9.775,71.500 15.000 C 70.504 20.225,69.391 24.725,69.026 25.000 C 68.662 25.275,67.300 30.675,66.000 37.000 C 64.700 43.325,63.359 48.725,63.019 49.000 C 62.679 49.275,61.329 55.237,60.017 62.250 C 58.706 69.263,57.324 75.000,56.947 75.000 C 56.569 75.000,55.229 80.287,53.970 86.750 C 52.710 93.213,51.386 98.725,51.028 99.000 C 50.357 99.515,48.610 107.251,47.470 114.750 C 47.115 117.087,46.496 119.000,46.096 119.000 C 45.695 119.000,44.302 124.625,43.000 131.500 C 41.698 138.375,40.324 144.000,39.947 144.000 C 39.569 144.000,38.229 149.287,36.970 155.750 C 35.710 162.213,34.391 167.725,34.040 168.000 C 33.688 168.275,32.587 172.891,31.593 178.257 C 30.599 183.624,29.444 188.225,29.028 188.483 C 28.611 188.741,27.237 194.250,25.974 200.726 C 24.712 207.202,23.363 212.725,22.977 213.000 C 22.591 213.275,21.206 218.900,19.900 225.500 C 18.594 232.100,17.254 237.725,16.923 238.000 C 16.592 238.275,15.290 243.787,14.030 250.250 C 12.771 256.712,11.349 262.000,10.870 262.000 C 10.392 262.000,10.000 263.125,10.000 264.500 L 10.000 267.000 47.000 267.000 L 84.000 267.000 84.000 294.000 C 84.000 317.333,84.204 321.000,85.500 321.000 C 87.331 321.000,87.828 148.630,86.000 147.500 C 85.366 147.108,85.000 134.823,85.000 113.941 L 85.000 81.000 203.840 81.000 L 322.680 81.000 323.340 105.162 C 323.703 118.451,324.000 171.776,324.000 223.662 L 324.000 318.000 206.500 318.000 C 102.722 318.000,89.000 318.175,89.000 319.500 C 89.000 320.797,92.757 321.002,116.750 321.015 C 132.012 321.024,144.019 321.361,143.432 321.765 C 142.844 322.169,141.300 327.675,140.000 334.000 C 138.700 340.325,137.353 345.725,137.005 346.000 C 136.658 346.275,135.321 351.675,134.035 358.000 C 132.748 364.325,131.371 369.725,130.976 370.000 C 130.580 370.275,129.457 375.000,128.480 380.500 C 127.503 386.000,126.255 390.792,125.706 391.149 C 125.157 391.506,124.985 392.519,125.323 393.399 C 126.372 396.134,336.000 395.820,336.000 393.083 C 336.000 392.029,336.363 391.017,336.807 390.833 C 337.250 390.650,338.669 385.325,339.959 379.000 C 341.249 372.675,342.612 367.275,342.987 367.000 C 343.362 366.725,344.704 360.875,345.968 354.000 C 347.233 347.125,348.585 341.275,348.973 341.000 C 349.361 340.725,350.508 336.450,351.522 331.500 C 352.537 326.550,353.658 322.275,354.014 322.000 C 354.371 321.725,355.683 316.325,356.931 310.000 C 358.179 303.675,359.510 298.275,359.888 298.000 C 360.266 297.725,361.638 291.875,362.936 285.000 C 364.234 278.125,365.597 272.275,365.965 272.000 C 366.332 271.725,367.463 267.450,368.478 262.500 C 369.492 257.550,370.639 253.275,371.027 253.000 C 371.415 252.725,372.767 246.875,374.032 240.000 C 375.296 233.125,376.638 227.275,377.013 227.000 C 377.388 226.725,378.748 221.325,380.035 215.000 C 381.321 208.675,382.656 203.275,383.000 203.000 C 383.344 202.725,384.679 197.325,385.965 191.000 C 387.252 184.675,388.596 179.275,388.952 179.000 C 389.308 178.725,390.427 174.000,391.440 168.500 C 392.452 163.000,393.586 158.275,393.958 158.000 C 395.216 157.073,399.272 135.221,398.648 132.735 C 398.148 130.741,396.898 129.954,392.088 128.605 C 388.820 127.688,386.001 126.605,385.823 126.198 C 385.645 125.791,382.012 124.376,377.750 123.053 C 373.488 121.730,370.000 120.343,370.000 119.970 C 370.000 119.597,366.625 118.289,362.500 117.065 C 358.375 115.840,355.000 114.532,355.000 114.157 C 355.000 113.782,352.075 112.637,348.500 111.614 C 344.925 110.590,342.000 109.423,342.000 109.022 C 342.000 108.620,338.738 107.306,334.750 106.101 C 324.979 103.149,325.000 103.185,325.000 89.542 L 325.000 78.000 309.625 78.000 L 294.250 78.000 292.962 65.000 C 292.254 57.850,291.378 52.000,291.015 52.000 C 290.653 52.000,289.515 43.675,288.487 33.500 C 287.458 23.325,286.253 15.000,285.809 15.000 C 285.364 15.000,284.994 13.538,284.986 11.750 C 284.979 9.962,284.701 7.488,284.370 6.250 L 283.767 4.000 179.633 4.015 C 122.360 4.024,75.007 4.361,74.405 4.765 M106.750 110.568 C 106.338 110.989,106.000 133.983,106.000 161.667 L 106.000 212.000 118.000 212.000 L 130.000 212.000 130.000 196.500 L 130.000 181.000 138.500 181.000 C 145.298 181.000,147.000 181.293,147.000 182.465 C 147.000 183.270,147.838 184.378,148.863 184.927 C 149.887 185.475,151.292 187.291,151.984 188.962 C 152.676 190.633,153.593 192.000,154.020 192.000 C 154.448 192.000,155.749 193.825,156.912 196.056 C 158.075 198.287,159.920 201.071,161.013 202.244 C 162.106 203.417,163.001 204.855,163.001 205.439 C 163.007 210.408,167.327 212.000,180.807 212.000 C 193.029 212.000,197.295 211.093,194.268 209.138 C 193.724 208.787,192.530 207.037,191.614 205.250 C 190.698 203.463,189.563 202.000,189.091 202.000 C 188.619 202.000,187.984 201.213,187.678 200.250 C 186.778 197.410,183.635 192.611,181.750 191.198 C 180.787 190.477,180.000 189.322,180.000 188.632 C 180.000 187.942,179.126 186.439,178.057 185.292 C 176.989 184.145,175.190 181.482,174.060 179.374 L 172.006 175.540 175.325 173.838 C 179.749 171.568,184.189 167.285,186.562 163.000 C 187.628 161.075,188.865 159.232,189.311 158.903 C 192.566 156.508,191.890 131.747,188.476 128.333 C 187.664 127.521,187.000 126.404,187.000 125.850 C 187.000 124.537,178.463 116.000,177.150 116.000 C 176.596 116.000,175.548 115.425,174.821 114.721 C 171.434 111.443,165.496 110.754,136.500 110.279 C 120.550 110.017,107.162 110.147,106.750 110.568 M223.366 110.765 C 222.743 111.169,221.666 115.662,220.974 120.750 L 219.716 130.000 211.858 130.000 L 204.000 130.000 204.000 140.500 L 204.000 151.000 210.067 151.000 C 215.364 151.000,216.073 151.222,215.649 152.750 C 215.382 153.713,214.875 157.200,214.523 160.500 C 213.470 170.347,213.784 170.000,205.933 170.000 L 199.000 170.000 199.000 180.500 L 199.000 191.000 204.131 191.000 L 209.262 191.000 208.634 194.750 C 208.288 196.813,207.715 201.537,207.359 205.250 L 206.713 212.000 216.726 212.000 L 226.738 212.000 227.358 208.250 C 227.699 206.188,227.983 203.262,227.989 201.750 C 227.995 200.238,228.423 199.000,228.940 199.000 C 229.456 199.000,230.019 197.313,230.190 195.250 L 230.500 191.500 239.594 191.215 L 248.689 190.929 247.800 197.215 C 247.312 200.672,246.437 204.453,245.857 205.619 C 243.371 210.612,244.712 211.476,255.429 211.788 C 266.898 212.122,266.559 212.374,267.517 202.827 C 267.894 199.072,268.607 196.000,269.101 196.000 C 269.596 196.000,270.000 194.650,270.000 193.000 L 270.000 190.000 277.535 190.000 L 285.070 190.000 284.785 179.750 L 284.500 169.500 278.750 169.200 C 274.310 168.969,269.922 167.000,273.846 167.000 C 274.311 167.000,275.098 163.512,275.596 159.250 L 276.500 151.500 283.250 151.204 L 290.000 150.909 290.000 140.454 L 290.000 130.000 285.361 130.000 L 280.721 130.000 281.361 125.000 C 281.712 122.250,282.288 117.750,282.639 115.000 L 283.279 110.000 272.707 110.000 C 260.794 110.000,261.611 109.397,260.519 119.000 C 260.176 122.025,259.657 125.737,259.368 127.250 L 258.841 130.000 249.853 130.000 C 241.771 130.000,240.915 129.824,241.360 128.250 C 241.633 127.287,242.137 124.025,242.481 121.000 C 242.824 117.975,243.343 114.263,243.632 112.750 L 244.159 110.000 234.329 110.015 C 228.923 110.024,223.990 110.361,223.366 110.765 M163.089 136.000 C 164.140 137.375,165.449 139.044,166.000 139.708 C 167.263 141.233,167.322 151.000,166.067 151.000 C 165.554 151.000,164.836 151.941,164.471 153.091 C 163.292 156.807,158.203 158.000,143.532 158.000 L 130.000 158.000 130.000 145.410 L 130.000 132.821 145.590 133.160 C 160.860 133.493,161.219 133.551,163.089 136.000 M254.661 154.750 C 254.334 156.813,253.764 161.088,253.395 164.250 L 252.725 170.000 243.862 170.000 C 237.440 170.000,235.000 169.656,234.999 168.750 C 234.998 168.063,235.516 163.787,236.150 159.250 L 237.303 151.000 246.279 151.000 L 255.256 151.000 254.661 154.750 M107.000 281.300 C 107.000 286.422,107.459 290.059,108.200 290.800 C 109.655 292.255,122.000 292.434,122.000 291.000 C 122.000 290.351,135.500 290.000,160.500 290.000 L 199.000 290.000 199.000 281.500 L 199.000 273.000 153.000 273.000 L 107.000 273.000 107.000 281.300 " stroke="none" fill="#000000" fill-rule="evenodd"></path></g></svg>