<svg id="svg" version="1.1" width="400" height="400" xmlns="http://www.w3.org/2000/svg" xmlns:xlink="http://www.w3.org/1999/xlink" style="display: block;"><g id="svgg"><path id="path0" d="M37.008 135.750 L 37.016 219.500 39.751 220.771 C 41.517 221.591,42.607 221.680,42.826 221.021 C 43.280 219.660,66.000 219.640,66.000 221.000 C 66.000 221.550,67.125 222.000,68.500 222.000 C 69.875 222.000,71.000 221.550,71.000 221.000 C 71.000 220.450,71.900 220.000,73.000 220.000 C 74.950 220.000,75.000 219.333,75.000 193.500 L 75.000 167.000 88.500 167.000 C 96.183 167.000,102.000 167.402,102.000 167.933 C 102.000 168.446,102.900 169.151,104.000 169.500 C 105.100 169.849,106.000 170.839,106.000 171.700 C 106.000 172.561,106.828 173.993,107.840 174.883 C 108.852 175.772,109.986 177.738,110.359 179.250 C 110.733 180.762,111.480 182.000,112.019 182.000 C 112.559 182.000,113.000 182.801,113.000 183.779 C 113.000 184.758,113.900 186.207,115.000 187.000 C 116.100 187.793,117.000 188.918,117.000 189.500 C 117.000 190.082,117.900 191.207,119.000 192.000 C 120.100 192.793,121.000 194.143,121.000 195.000 C 121.000 195.857,121.900 197.207,123.000 198.000 C 124.100 198.793,125.000 200.143,125.000 201.000 C 125.000 201.857,125.900 203.207,127.000 204.000 C 128.100 204.793,129.000 206.256,129.000 207.252 C 129.000 208.248,129.675 209.322,130.500 209.638 C 131.325 209.955,132.000 210.966,132.000 211.886 C 132.000 212.806,132.900 214.207,134.000 215.000 C 135.100 215.793,136.000 217.242,136.000 218.221 C 136.000 219.862,137.432 220.000,154.500 220.000 C 166.167 220.000,173.000 220.369,173.000 221.000 C 173.000 221.550,174.575 222.000,176.500 222.000 C 180.779 222.000,181.820 215.754,178.000 213.000 C 176.900 212.207,176.000 211.082,176.000 210.500 C 176.000 209.918,175.100 208.793,174.000 208.000 C 172.900 207.207,172.000 205.758,172.000 204.779 C 172.000 203.801,171.559 203.000,171.019 203.000 C 170.480 203.000,169.733 201.762,169.359 200.250 C 168.986 198.738,167.852 196.772,166.840 195.883 C 165.828 194.993,165.000 193.561,165.000 192.700 C 165.000 191.839,164.100 190.849,163.000 190.500 C 161.900 190.151,161.000 189.176,161.000 188.334 C 161.000 187.492,159.650 185.541,158.000 184.000 C 156.350 182.459,155.000 180.577,155.000 179.820 C 155.000 179.062,154.100 177.793,153.000 177.000 C 151.900 176.207,151.000 174.813,151.000 173.902 C 151.000 172.990,150.325 171.685,149.500 171.000 C 148.675 170.315,148.000 169.235,148.000 168.598 C 148.000 167.962,147.100 166.793,146.000 166.000 C 142.812 163.702,144.398 159.000,148.361 159.000 C 149.188 159.000,150.151 158.100,150.500 157.000 C 150.849 155.900,151.905 155.000,152.847 155.000 C 153.788 155.000,155.207 154.100,156.000 153.000 C 156.793 151.900,158.195 151.000,159.115 151.000 C 161.061 151.000,167.000 145.749,167.000 144.027 C 167.000 143.384,167.675 142.182,168.500 141.357 C 169.325 140.532,170.000 138.989,170.000 137.929 C 170.000 136.868,170.450 136.000,171.000 136.000 C 171.550 136.000,172.000 135.100,172.000 134.000 C 172.000 132.900,172.450 132.000,173.000 132.000 C 173.550 132.000,174.000 130.875,174.000 129.500 C 174.000 128.125,174.450 127.000,175.000 127.000 C 175.556 127.000,176.000 124.333,176.000 121.000 C 176.000 117.667,176.444 115.000,177.000 115.000 C 177.564 115.000,178.000 112.167,178.000 108.500 C 178.000 104.833,177.564 102.000,177.000 102.000 C 176.444 102.000,176.000 99.333,176.000 96.000 C 176.000 92.667,175.556 90.000,175.000 90.000 C 174.450 90.000,174.000 88.875,174.000 87.500 C 174.000 86.125,173.550 85.000,173.000 85.000 C 172.450 85.000,172.000 84.100,172.000 83.000 C 172.000 81.900,171.550 81.000,171.000 81.000 C 170.450 81.000,170.000 80.132,170.000 79.071 C 170.000 78.011,169.325 76.468,168.500 75.643 C 167.675 74.818,167.000 73.436,167.000 72.571 C 167.000 71.707,166.570 71.000,166.045 71.000 C 165.520 71.000,163.966 69.875,162.591 68.500 C 161.216 67.125,159.495 66.000,158.766 66.000 C 158.038 66.000,156.793 65.100,156.000 64.000 C 155.207 62.900,153.758 62.000,152.779 62.000 C 151.801 62.000,151.000 61.550,151.000 61.000 C 151.000 60.450,150.325 60.000,149.500 60.000 C 148.675 60.000,148.000 59.550,148.000 59.000 C 148.000 58.450,147.100 58.000,146.000 58.000 C 144.900 58.000,144.000 57.550,144.000 57.000 C 144.000 56.450,142.650 56.000,141.000 56.000 C 139.350 56.000,138.000 55.550,138.000 55.000 C 138.000 54.450,135.525 54.000,132.500 54.000 C 129.475 54.000,127.000 53.550,127.000 53.000 C 127.000 52.348,111.333 52.000,82.000 52.000 L 37.000 52.000 37.008 135.750 M210.667 52.667 C 210.300 53.033,210.000 90.833,210.000 136.667 L 210.000 220.000 253.000 220.000 C 281.000 220.000,296.000 219.651,296.000 219.000 C 296.000 218.450,297.800 218.000,300.000 218.000 C 302.200 218.000,304.000 217.550,304.000 217.000 C 304.000 216.450,305.575 216.000,307.500 216.000 C 309.425 216.000,311.000 215.550,311.000 215.000 C 311.000 214.450,311.900 214.000,313.000 214.000 C 314.100 214.000,315.000 213.550,315.000 213.000 C 315.000 212.450,315.900 212.000,317.000 212.000 C 318.100 212.000,319.000 211.600,319.000 211.111 C 319.000 210.623,320.672 209.909,322.716 209.525 C 324.760 209.142,327.035 207.967,327.773 206.914 C 328.510 205.861,329.664 205.000,330.336 205.000 C 331.008 205.000,332.207 204.100,333.000 203.000 C 333.793 201.900,335.029 201.000,335.747 201.000 C 337.180 201.000,346.000 192.570,346.000 191.201 C 346.000 190.732,347.125 189.292,348.500 188.000 C 349.875 186.708,351.000 184.929,351.000 184.046 C 351.000 183.164,351.900 181.793,353.000 181.000 C 354.100 180.207,355.000 178.758,355.000 177.779 C 355.000 176.801,355.450 176.000,356.000 176.000 C 356.550 176.000,357.000 175.100,357.000 174.000 C 357.000 172.900,357.450 172.000,358.000 172.000 C 358.550 172.000,359.000 170.875,359.000 169.500 C 359.000 168.125,359.450 167.000,360.000 167.000 C 360.550 167.000,361.000 165.650,361.000 164.000 C 361.000 162.350,361.450 161.000,362.000 161.000 C 362.550 161.000,363.007 158.637,363.015 155.750 C 363.026 151.992,363.306 150.926,364.000 152.000 C 364.648 153.003,364.974 148.111,364.985 137.250 C 364.994 127.073,364.626 121.000,364.000 121.000 C 363.450 121.000,363.000 118.750,363.000 116.000 C 363.000 113.250,362.550 111.000,362.000 111.000 C 361.450 111.000,361.000 109.875,361.000 108.500 C 361.000 107.125,360.550 106.000,360.000 106.000 C 359.450 106.000,359.000 105.100,359.000 104.000 C 359.000 102.900,358.550 102.000,358.000 102.000 C 357.450 102.000,357.000 101.100,357.000 100.000 C 357.000 98.900,356.550 98.000,356.000 98.000 C 355.450 98.000,355.000 97.100,355.000 96.000 C 355.000 94.900,354.550 94.000,354.000 94.000 C 353.450 94.000,353.000 93.148,353.000 92.107 C 353.000 91.066,352.296 89.944,351.437 89.614 C 350.577 89.284,350.141 88.581,350.468 88.052 C 351.330 86.656,334.340 70.000,332.053 70.000 C 330.998 70.000,329.849 69.100,329.500 68.000 C 329.151 66.900,327.996 66.000,326.933 66.000 C 325.870 66.000,325.000 65.550,325.000 65.000 C 325.000 64.450,324.100 64.000,323.000 64.000 C 321.900 64.000,321.000 63.550,321.000 63.000 C 321.000 62.450,320.100 62.000,319.000 62.000 C 317.900 62.000,317.000 61.550,317.000 61.000 C 317.000 60.450,316.100 60.000,315.000 60.000 C 313.900 60.000,313.000 59.550,313.000 59.000 C 313.000 58.450,311.875 58.000,310.500 58.000 C 309.125 58.000,308.000 57.550,308.000 57.000 C 308.000 56.450,306.650 56.000,305.000 56.000 C 303.350 56.000,302.000 55.550,302.000 55.000 C 302.000 54.444,299.333 54.000,296.000 54.000 C 292.667 54.000,290.000 53.556,290.000 53.000 C 290.000 51.874,211.788 51.545,210.667 52.667 M119.000 87.871 C 119.000 88.350,121.250 89.041,124.000 89.406 C 126.750 89.770,129.000 90.503,129.000 91.034 C 129.000 91.565,129.482 92.000,130.071 92.000 C 131.578 92.000,134.000 94.594,134.000 96.208 C 134.000 96.951,134.900 98.207,136.000 99.000 C 137.453 100.047,138.000 101.589,138.000 104.637 C 138.000 107.016,138.541 109.086,139.250 109.417 C 140.250 109.883,140.250 110.117,139.250 110.583 C 138.562 110.904,138.000 112.928,138.000 115.083 C 138.000 117.237,137.550 119.000,137.000 119.000 C 136.450 119.000,136.000 119.674,136.000 120.499 C 136.000 122.536,128.629 130.000,126.617 130.000 C 125.728 130.000,125.000 130.450,125.000 131.000 C 125.000 131.550,123.200 132.000,121.000 132.000 C 118.800 132.000,117.000 132.450,117.000 133.000 C 117.000 133.635,109.333 134.000,96.000 134.000 L 75.000 134.000 75.000 110.500 L 75.000 87.000 97.000 87.000 C 109.100 87.000,119.000 87.392,119.000 87.871 M285.000 87.884 C 285.000 88.369,287.925 89.080,291.500 89.463 C 295.075 89.846,298.000 90.573,298.000 91.080 C 298.000 91.586,298.801 92.000,299.779 92.000 C 300.758 92.000,302.207 92.900,303.000 94.000 C 303.793 95.100,305.143 96.000,306.000 96.000 C 306.857 96.000,308.220 96.962,309.029 98.138 C 309.838 99.314,311.512 101.318,312.750 102.593 C 313.988 103.867,315.000 105.505,315.000 106.234 C 315.000 106.962,315.900 108.207,317.000 109.000 C 318.100 109.793,319.000 111.017,319.000 111.721 C 319.000 112.424,319.450 113.000,320.000 113.000 C 320.550 113.000,321.000 113.900,321.000 115.000 C 321.000 116.100,321.450 117.000,322.000 117.000 C 322.550 117.000,323.000 118.350,323.000 120.000 C 323.000 121.650,323.450 123.000,324.000 123.000 C 324.617 123.000,325.000 128.167,325.000 136.500 C 325.000 144.833,324.617 150.000,324.000 150.000 C 323.450 150.000,323.000 151.575,323.000 153.500 C 323.000 155.425,322.550 157.000,322.000 157.000 C 321.450 157.000,321.000 157.900,321.000 159.000 C 321.000 160.100,320.550 161.000,320.000 161.000 C 319.450 161.000,319.000 161.719,319.000 162.599 C 319.000 163.478,317.725 165.391,316.166 166.849 C 314.608 168.307,312.792 170.512,312.131 171.750 C 311.470 172.988,310.451 174.000,309.866 174.000 C 309.281 174.000,307.541 175.350,306.000 177.000 C 304.459 178.650,302.478 180.000,301.599 180.000 C 300.719 180.000,300.000 180.450,300.000 181.000 C 300.000 181.550,299.100 182.000,298.000 182.000 C 296.900 182.000,296.000 182.450,296.000 183.000 C 296.000 183.550,294.875 184.000,293.500 184.000 C 292.125 184.000,291.000 184.450,291.000 185.000 C 291.000 185.583,287.667 186.000,283.000 186.000 C 278.333 186.000,275.000 186.417,275.000 187.000 C 275.000 187.606,270.667 188.000,264.000 188.000 C 257.333 188.000,253.000 187.606,253.000 187.000 C 253.000 186.450,251.650 186.000,250.000 186.000 L 247.000 186.000 247.000 139.059 C 247.000 108.844,247.356 91.898,248.000 91.500 C 248.550 91.160,249.000 90.009,249.000 88.941 C 249.000 87.092,249.849 87.000,267.000 87.000 C 276.900 87.000,285.000 87.398,285.000 87.884 M37.000 338.000 L 37.000 351.000 112.500 351.000 L 188.000 351.000 188.000 338.000 L 188.000 325.000 112.500 325.000 L 37.000 325.000 37.000 338.000 " stroke="none" fill="#000000" fill-rule="evenodd"></path></g></svg>