<svg id="svg" version="1.1" width="400" height="400" xmlns="http://www.w3.org/2000/svg" xmlns:xlink="http://www.w3.org/1999/xlink" style="display: block;"><g id="svgg"><path id="path0" d="M126.200 1.200 C 125.540 1.860,125.000 3.242,125.000 4.271 C 125.000 5.301,124.387 6.756,123.639 7.504 C 122.890 8.253,121.984 10.696,121.627 12.933 C 121.269 15.170,120.613 17.000,120.169 17.000 C 119.725 17.000,118.749 19.250,118.000 22.000 C 117.251 24.750,116.290 27.000,115.865 27.000 C 115.439 27.000,114.798 28.559,114.441 30.464 C 114.083 32.370,113.163 34.450,112.395 35.087 C 111.628 35.724,111.000 37.225,111.000 38.422 C 111.000 41.379,109.159 43.000,105.800 43.000 C 104.260 43.000,103.000 43.369,103.000 43.820 C 103.000 44.271,99.393 45.225,94.984 45.941 C 90.575 46.657,86.757 47.584,86.500 48.000 C 86.243 48.416,82.425 49.343,78.016 50.059 C 73.607 50.775,70.000 51.674,70.000 52.058 C 70.000 52.442,66.400 53.316,62.000 54.000 C 57.600 54.684,54.000 55.584,54.000 56.000 C 54.000 56.416,50.400 57.316,46.000 58.000 C 41.600 58.684,38.000 59.578,38.000 59.985 C 38.000 60.392,34.513 61.283,30.250 61.965 C 25.987 62.647,22.050 63.556,21.500 63.986 C 20.950 64.416,17.237 65.342,13.250 66.044 C 9.262 66.746,6.000 67.698,6.000 68.160 C 6.000 68.622,4.650 69.000,3.000 69.000 L 0.000 69.000 0.000 175.599 C 0.000 286.871,0.076 289.000,4.047 289.000 C 4.497 289.000,5.150 289.897,5.498 290.994 C 5.846 292.091,6.664 293.553,7.316 294.244 C 9.499 296.559,14.000 302.859,14.000 303.599 C 14.000 304.002,14.654 305.045,15.454 305.916 C 20.144 311.027,21.000 312.056,21.000 312.587 C 21.000 313.260,26.912 321.843,28.684 323.743 C 29.336 324.441,30.154 325.909,30.502 327.006 C 30.850 328.103,31.566 329.000,32.092 329.000 C 32.619 329.000,33.477 330.125,34.000 331.500 C 34.523 332.875,35.412 334.000,35.975 334.000 C 36.539 334.000,37.018 334.563,37.041 335.250 C 37.063 335.938,38.413 338.058,40.041 339.962 C 41.668 341.866,43.000 344.004,43.000 344.712 C 43.000 345.421,43.461 346.000,44.025 346.000 C 44.588 346.000,45.477 347.125,46.000 348.500 C 46.523 349.875,47.339 351.000,47.815 351.000 C 48.290 351.000,49.199 352.142,49.835 353.538 C 50.471 354.933,51.464 356.621,52.042 357.288 C 52.620 357.954,55.296 361.650,57.988 365.500 C 60.680 369.350,63.511 373.175,64.279 374.000 C 65.047 374.825,65.959 376.288,66.306 377.250 C 66.653 378.213,67.401 379.000,67.969 379.000 C 68.536 379.000,69.001 379.563,69.001 380.250 C 69.002 380.938,70.114 382.793,71.473 384.372 C 72.831 385.952,74.213 388.096,74.543 389.137 C 74.874 390.178,75.466 390.830,75.860 390.587 C 76.254 390.343,77.160 391.464,77.874 393.078 C 78.599 394.715,79.645 395.720,80.241 395.351 C 80.828 394.988,81.054 395.103,80.743 395.607 C 78.882 398.617,82.891 400.271,90.709 399.717 C 107.915 398.499,126.000 396.562,126.000 395.937 C 126.000 395.310,130.035 394.853,148.500 393.388 C 152.900 393.038,156.725 392.417,157.000 392.006 C 157.275 391.596,160.875 390.998,165.000 390.679 C 180.424 389.485,187.000 388.693,187.000 388.029 C 187.000 387.653,193.975 386.740,202.500 386.000 C 211.025 385.260,218.000 384.340,218.000 383.956 C 218.000 383.572,224.525 382.692,232.500 382.000 C 240.475 381.308,247.000 380.378,247.000 379.933 C 247.000 379.488,247.787 379.160,248.750 379.203 C 252.659 379.378,278.000 376.534,278.000 375.920 C 278.000 375.556,284.525 374.692,292.500 374.000 C 300.475 373.308,307.000 372.350,307.000 371.871 C 307.000 371.392,309.250 371.000,312.000 371.000 C 316.333 371.000,317.000 370.733,317.000 369.000 C 317.000 367.900,316.548 367.000,315.996 367.000 C 315.444 367.000,314.458 365.002,313.805 362.559 C 313.151 360.117,312.253 358.344,311.808 358.618 C 311.364 358.893,310.944 358.641,310.875 358.059 C 310.551 355.311,308.358 350.340,307.139 349.586 C 306.597 349.251,305.858 347.632,305.497 345.989 C 305.136 344.345,304.481 343.000,304.042 343.000 C 303.602 343.000,302.683 341.650,302.000 340.000 C 301.317 338.350,300.398 337.000,299.958 337.000 C 299.519 337.000,298.861 335.645,298.498 333.990 C 298.134 332.334,297.271 330.414,296.579 329.722 C 295.887 329.030,294.874 327.122,294.327 325.482 L 293.333 322.500 185.667 322.246 L 78.000 321.991 78.000 199.996 L 78.000 78.000 199.996 78.000 L 321.991 78.000 322.246 188.250 L 322.500 298.500 340.500 298.500 L 358.500 298.500 358.810 294.750 C 358.981 292.688,359.486 291.000,359.932 291.000 C 360.378 291.000,361.310 286.613,362.004 281.250 C 362.698 275.887,363.613 271.050,364.037 270.500 C 364.461 269.950,365.379 265.113,366.077 259.750 C 366.775 254.387,367.638 250.000,367.995 250.000 C 368.352 250.000,369.234 245.613,369.954 240.250 C 370.675 234.888,371.606 230.050,372.024 229.500 C 372.442 228.950,373.354 224.225,374.050 219.000 C 374.747 213.775,375.624 209.275,376.000 209.000 C 376.376 208.725,377.253 204.225,377.950 199.000 C 378.646 193.775,379.569 189.050,380.000 188.500 C 380.431 187.950,381.346 183.225,382.034 178.000 C 382.721 172.775,383.621 168.050,384.034 167.500 C 384.446 166.950,385.346 162.225,386.034 157.000 C 386.721 151.775,387.661 147.014,388.123 146.421 C 388.584 145.827,389.508 141.017,390.176 135.732 C 390.843 130.447,391.689 126.308,392.055 126.534 C 392.421 126.760,393.004 124.370,393.350 121.223 C 394.164 113.816,394.768 110.303,395.969 106.000 C 397.497 100.525,400.169 81.230,399.817 78.216 C 399.472 75.261,398.683 73.971,395.250 70.750 C 394.012 69.589,393.000 68.019,393.000 67.261 C 393.000 66.502,392.549 66.161,391.998 66.501 C 391.447 66.842,390.582 66.030,390.075 64.697 C 389.568 63.363,388.444 62.001,387.577 61.668 C 386.709 61.335,386.000 60.374,386.000 59.531 C 386.000 58.689,385.314 58.000,384.475 58.000 C 383.637 58.000,382.523 56.875,382.000 55.500 C 381.477 54.125,380.619 53.000,380.092 53.000 C 379.566 53.000,378.849 52.100,378.500 51.000 C 378.151 49.900,377.297 49.000,376.602 49.000 C 375.907 49.000,374.699 47.762,373.919 46.250 C 373.139 44.737,370.813 41.899,368.750 39.942 C 366.688 37.985,365.000 35.847,365.000 35.192 C 365.000 34.536,364.540 34.000,363.979 34.000 C 363.417 34.000,362.451 32.889,361.832 31.531 C 361.214 30.174,360.346 29.286,359.904 29.559 C 359.462 29.833,358.593 29.108,357.973 27.949 C 356.578 25.342,354.198 22.340,351.250 19.465 C 350.012 18.258,349.000 17.034,349.000 16.745 C 349.000 16.290,343.031 9.718,335.793 2.203 C 334.205 0.555,332.722 0.008,330.540 0.268 C 326.803 0.712,318.681 3.166,318.000 4.056 C 317.725 4.416,315.137 5.270,312.250 5.955 C 309.363 6.639,307.000 7.543,307.000 7.963 C 307.000 8.383,304.300 9.300,301.000 10.000 C 297.700 10.700,295.000 11.564,295.000 11.918 C 295.000 12.273,292.863 13.185,290.250 13.945 C 287.637 14.705,285.275 15.659,285.000 16.064 C 284.725 16.468,282.886 17.056,280.914 17.368 C 276.424 18.080,274.000 18.992,274.000 19.970 C 274.000 20.386,271.300 21.300,268.000 22.000 C 264.700 22.700,262.000 23.590,262.000 23.977 C 262.000 24.364,259.525 25.274,256.500 26.000 C 253.475 26.726,251.000 27.658,251.000 28.072 C 251.000 28.486,249.191 29.130,246.980 29.503 C 244.769 29.877,242.381 30.762,241.674 31.469 C 240.477 32.666,238.248 33.364,232.000 34.500 C 230.625 34.750,227.717 35.864,225.539 36.977 C 220.487 39.557,207.722 38.611,210.472 35.861 C 210.750 35.583,208.733 34.744,205.989 33.997 C 203.245 33.250,201.000 32.322,201.000 31.936 C 201.000 31.292,198.622 30.296,195.100 29.464 C 194.330 29.282,193.424 28.686,193.087 28.140 C 192.749 27.595,190.342 26.611,187.737 25.955 C 185.132 25.299,183.000 24.384,183.000 23.921 C 183.000 23.459,181.200 22.541,179.000 21.882 C 176.800 21.223,175.000 20.403,175.000 20.060 C 175.000 19.717,172.975 18.839,170.500 18.108 C 168.025 17.377,166.000 16.429,166.000 16.000 C 166.000 15.571,163.975 14.623,161.500 13.892 C 159.025 13.161,157.000 12.283,157.000 11.940 C 157.000 11.597,155.200 10.777,153.000 10.118 C 150.800 9.459,149.000 8.546,149.000 8.090 C 149.000 7.633,146.863 6.672,144.250 5.954 C 141.637 5.236,139.195 4.191,138.822 3.632 C 137.211 1.216,127.965 -0.565,126.200 1.200 M98.000 159.000 L 98.000 211.000 110.000 211.000 L 122.000 211.000 122.000 196.000 L 122.000 181.000 130.066 181.000 C 138.497 181.000,142.000 182.047,142.000 184.567 C 142.000 185.389,142.598 186.292,143.330 186.573 C 144.061 186.854,145.270 188.640,146.016 190.542 C 146.763 192.444,147.750 194.000,148.211 194.000 C 148.672 194.000,149.477 195.125,150.000 196.500 C 150.523 197.875,151.328 199.000,151.789 199.000 C 152.250 199.000,153.245 200.575,154.000 202.500 C 154.755 204.425,155.750 206.000,156.211 206.000 C 156.672 206.000,157.477 207.125,158.000 208.500 L 158.950 211.000 172.975 211.000 C 184.831 211.000,187.000 210.766,187.000 209.486 C 187.000 207.571,184.887 203.748,183.250 202.700 C 182.563 202.260,182.000 201.234,182.000 200.419 C 182.000 199.604,181.325 198.678,180.500 198.362 C 179.675 198.045,179.000 197.255,179.000 196.605 C 179.000 195.956,177.668 193.866,176.041 191.962 C 174.413 190.058,173.063 187.938,173.041 187.250 C 173.018 186.563,172.539 186.000,171.975 186.000 C 171.412 186.000,170.523 184.875,170.000 183.500 C 169.477 182.125,168.698 181.000,168.269 181.000 C 167.840 181.000,166.869 179.601,166.112 177.891 C 164.678 174.650,165.541 173.055,168.750 173.015 C 169.438 173.007,170.000 172.550,170.000 172.000 C 170.000 171.450,170.563 170.995,171.250 170.989 C 172.744 170.977,179.000 164.730,179.000 163.251 C 179.000 162.680,179.617 161.977,180.371 161.688 C 181.126 161.398,182.061 159.892,182.451 158.341 C 182.840 156.789,183.657 155.212,184.266 154.836 C 185.872 153.843,185.875 130.792,184.268 130.256 C 183.606 130.035,182.772 128.300,182.415 126.400 C 182.059 124.500,180.920 122.492,179.884 121.938 C 178.848 121.383,178.000 120.370,178.000 119.687 C 178.000 118.202,174.782 115.313,171.422 113.783 C 170.090 113.176,169.000 112.355,169.000 111.958 C 169.000 111.063,161.018 109.000,157.557 109.000 C 156.151 109.000,155.000 108.550,155.000 108.000 C 155.000 107.357,144.833 107.000,126.500 107.000 L 98.000 107.000 98.000 159.000 M197.000 159.000 L 197.000 211.000 209.000 211.000 L 221.000 211.000 221.068 179.750 C 221.118 156.525,221.414 149.078,222.220 150.750 C 222.817 151.988,223.632 153.000,224.031 153.000 C 224.431 153.000,225.317 154.350,226.000 156.000 C 226.683 157.650,227.583 159.000,228.000 159.000 C 228.417 159.000,229.317 160.350,230.000 162.000 C 230.683 163.650,231.583 165.000,232.000 165.000 C 232.417 165.000,233.317 166.350,234.000 168.000 C 234.683 169.650,235.583 171.000,236.000 171.000 C 236.417 171.000,237.317 172.350,238.000 174.000 C 238.683 175.650,239.594 177.000,240.023 177.000 C 240.453 177.000,241.275 178.350,241.850 180.000 C 242.425 181.650,243.260 183.000,243.704 183.000 C 244.148 183.000,245.109 184.350,245.840 186.000 C 247.832 190.501,251.065 188.994,254.094 182.150 C 254.861 180.418,255.840 179.000,256.269 179.000 C 256.698 179.000,257.477 177.875,258.000 176.500 C 258.523 175.125,259.328 174.000,259.789 174.000 C 260.250 174.000,261.245 172.425,262.000 170.500 C 262.755 168.575,263.763 167.000,264.239 167.000 C 264.715 167.000,265.575 165.650,266.150 164.000 C 266.725 162.350,267.547 161.000,267.977 161.000 C 268.406 161.000,269.317 159.650,270.000 158.000 C 270.683 156.350,271.583 155.000,272.000 155.000 C 272.417 155.000,273.317 153.650,274.000 152.000 C 276.573 145.789,277.000 149.777,277.000 180.000 L 277.000 211.000 289.500 211.000 L 302.000 211.000 302.000 159.000 L 302.000 107.000 288.584 107.000 L 275.168 107.000 273.840 110.000 C 273.109 111.650,272.226 113.000,271.877 113.000 C 271.528 113.000,270.683 114.350,270.000 116.000 C 269.317 117.650,268.417 119.000,268.000 119.000 C 267.583 119.000,266.652 120.463,265.930 122.250 C 265.208 124.037,264.064 125.840,263.387 126.256 C 262.710 126.672,261.860 128.359,261.499 130.006 C 261.137 131.653,260.416 133.000,259.896 133.000 C 259.376 133.000,258.523 134.125,258.000 135.500 C 257.477 136.875,256.679 138.000,256.226 138.000 C 255.773 138.000,254.832 139.575,254.136 141.500 C 253.440 143.425,252.480 145.000,252.003 145.000 C 251.525 145.000,250.852 145.892,250.506 146.982 C 249.736 149.406,246.759 147.161,245.557 143.250 C 245.176 142.012,244.500 141.000,244.054 141.000 C 243.608 141.000,242.683 139.650,242.000 138.000 C 241.317 136.350,240.406 135.000,239.977 135.000 C 239.547 135.000,238.725 133.650,238.150 132.000 C 237.575 130.350,236.715 129.000,236.239 129.000 C 235.763 129.000,234.755 127.425,234.000 125.500 C 233.245 123.575,232.345 122.000,232.000 122.000 C 231.655 122.000,230.755 120.425,230.000 118.500 C 229.245 116.575,228.291 115.000,227.881 115.000 C 227.470 115.000,226.866 114.153,226.538 113.119 C 224.787 107.602,223.123 107.000,209.633 107.000 L 197.000 107.000 197.000 159.000 M153.788 131.573 C 154.179 132.163,155.330 132.953,156.345 133.328 C 157.360 133.703,158.425 134.908,158.712 136.005 C 158.999 137.102,159.631 138.000,160.117 138.000 C 161.475 138.000,161.163 147.885,159.750 149.614 C 158.153 151.568,155.568 154.153,153.614 155.750 C 152.546 156.623,147.694 157.000,137.542 157.000 L 123.000 157.000 123.000 143.408 L 123.000 129.817 138.038 130.158 C 147.259 130.368,153.351 130.915,153.788 131.573 M99.000 285.510 L 99.000 294.020 146.250 293.760 L 193.500 293.500 193.790 285.250 L 194.081 277.000 146.540 277.000 L 99.000 277.000 99.000 285.510 " stroke="none" fill="#000000" fill-rule="evenodd"></path></g></svg>