<svg id="svg" version="1.1" width="400" height="400" xmlns="http://www.w3.org/2000/svg" xmlns:xlink="http://www.w3.org/1999/xlink" style="display: block;"><g id="svgg"><path id="path0" d="M198.500 15.838 C 186.950 17.829,177.275 19.743,177.000 20.093 C 176.725 20.442,169.750 21.861,161.500 23.247 C 153.250 24.633,128.275 28.829,106.000 32.571 C 83.725 36.314,65.275 39.675,65.000 40.038 C 64.725 40.402,62.700 40.952,60.500 41.260 C 55.569 41.950,9.542 49.787,5.750 50.582 L 3.000 51.159 3.000 200.111 C 3.000 318.362,3.258 349.157,4.250 349.519 C 5.573 350.003,49.346 357.601,57.000 358.676 C 59.475 359.023,61.725 359.620,62.000 360.001 C 62.275 360.383,80.500 363.702,102.500 367.376 C 170.969 378.813,173.487 379.255,174.000 379.931 C 174.512 380.607,218.091 388.072,221.250 388.026 C 222.910 388.001,223.000 378.371,223.000 200.000 C 223.000 21.577,222.911 12.006,221.250 12.110 C 220.287 12.170,210.050 13.848,198.500 15.838 M259.000 65.823 C 255.425 66.763,250.363 69.008,247.750 70.814 L 243.000 74.096 243.000 101.361 L 243.000 128.626 245.750 131.250 C 249.415 134.747,258.708 138.978,262.750 138.990 C 264.538 138.996,266.000 139.450,266.000 140.000 C 266.000 140.550,267.350 141.000,269.000 141.000 C 270.650 141.000,272.000 140.550,272.000 140.000 C 272.000 139.450,273.043 139.000,274.318 139.000 C 279.263 139.000,286.851 135.883,291.176 132.077 L 295.643 128.144 302.703 131.558 C 306.585 133.436,311.912 137.004,314.540 139.486 C 317.168 141.969,319.653 144.000,320.063 144.000 C 321.782 144.000,330.804 156.515,334.612 164.182 L 338.724 172.460 335.975 175.980 C 325.658 189.188,325.502 211.096,335.628 224.683 C 336.932 226.434,337.975 228.459,337.945 229.183 C 337.744 234.037,323.363 255.829,320.280 255.951 C 319.609 255.978,318.044 257.374,316.802 259.054 C 314.231 262.531,305.617 268.526,300.047 270.714 C 296.304 272.184,296.277 272.177,289.838 267.768 C 276.594 258.701,257.782 259.228,246.677 268.978 L 243.000 272.207 243.000 299.026 L 243.000 325.844 247.141 329.388 C 269.133 348.213,305.862 329.869,305.983 300.000 L 306.013 292.500 315.257 287.726 C 324.045 283.186,344.000 266.137,344.000 263.168 C 344.000 262.643,344.675 261.955,345.500 261.638 C 346.325 261.322,347.000 260.607,347.000 260.051 C 347.000 259.494,348.491 256.668,350.313 253.769 C 352.135 250.871,354.576 246.250,355.737 243.500 L 357.848 238.500 365.174 237.966 C 388.051 236.298,400.000 223.425,400.000 200.447 C 400.000 177.654,388.311 164.810,366.044 163.136 L 357.588 162.500 355.921 157.830 C 352.644 148.653,344.162 136.421,335.777 128.781 C 331.382 124.776,326.538 120.331,325.014 118.902 C 323.490 117.473,318.652 114.548,314.263 112.402 L 306.283 108.500 305.827 99.500 C 305.241 87.960,303.144 83.403,294.258 74.364 C 285.184 65.133,272.926 62.164,259.000 65.823 M131.000 125.226 L 135.500 126.585 135.778 140.885 C 135.931 148.750,135.706 155.010,135.278 154.795 C 112.696 143.457,93.839 146.251,91.587 161.269 C 89.923 172.367,94.150 178.245,112.368 190.160 C 124.889 198.349,133.100 206.461,136.500 214.000 C 137.492 216.200,138.643 218.000,139.058 218.000 C 139.473 218.000,139.565 218.946,139.263 220.102 C 138.940 221.337,139.288 222.560,140.107 223.066 C 142.010 224.244,142.144 248.119,140.250 248.750 C 139.563 248.979,139.000 249.744,139.000 250.449 C 139.000 261.991,123.036 275.231,107.354 276.696 C 103.860 277.022,101.000 277.764,101.000 278.345 C 101.000 279.005,100.551 278.951,99.800 278.200 C 99.140 277.540,96.778 276.992,94.550 276.983 C 88.691 276.958,76.749 273.629,71.514 270.561 L 67.000 267.916 67.030 253.208 C 67.050 243.546,67.383 239.051,68.000 240.108 C 71.720 246.472,88.933 253.462,99.128 252.748 C 109.712 252.008,113.987 247.621,113.987 237.500 C 113.988 229.422,107.997 219.352,101.122 215.875 C 70.448 200.362,58.723 171.720,72.176 145.166 C 81.483 126.794,107.265 118.055,131.000 125.226 " stroke="none" fill="#000000" fill-rule="evenodd"></path></g></svg>