<svg id="svg" version="1.1" width="515" height="515" xmlns="http://www.w3.org/2000/svg" xmlns:xlink="http://www.w3.org/1999/xlink" style="display: block;"><g id="svgg"><path id="path0" d="M134.503 15.172 C 52.101 24.559,-1.230 108.114,24.421 187.643 C 30.873 207.650,31.014 208.743,31.996 246.500 C 33.345 298.407,33.600 302.623,35.954 312.000 C 57.190 396.577,121.640 461.674,204.628 482.368 C 223.539 487.084,228.080 487.464,266.500 487.546 L 303.500 487.625 314.246 491.252 C 342.341 500.733,376.421 502.702,397.564 496.066 C 459.811 476.530,495.384 429.444,495.449 366.500 C 495.473 343.699,495.534 344.090,488.353 321.231 C 484.978 310.486,484.841 309.488,485.408 299.731 C 487.146 269.818,487.201 238.758,485.535 227.634 C 472.218 138.725,409.653 66.864,322.500 40.372 C 299.968 33.524,289.580 32.118,260.500 31.985 C 224.589 31.819,217.190 30.956,202.961 25.269 C 178.841 15.628,157.776 12.522,134.503 15.172 M280.500 102.067 C 324.158 105.874,357.658 123.864,370.510 150.403 C 382.288 174.725,376.827 197.155,357.106 205.456 C 340.372 212.499,327.503 206.323,312.479 184.041 C 293.300 155.598,278.898 148.284,247.275 150.929 C 191.766 155.570,182.173 194.022,232.500 210.147 C 235.800 211.205,251.550 215.400,267.500 219.470 C 344.650 239.158,369.849 252.694,382.975 281.500 C 411.124 343.274,363.214 407.824,284.536 414.128 C 216.931 419.545,170.281 405.390,144.949 371.772 C 116.295 333.745,123.442 295.828,159.225 296.044 C 175.073 296.140,181.370 301.386,194.955 325.816 C 211.117 354.877,222.873 363.168,251.222 365.496 C 323.634 371.441,347.588 307.301,280.373 287.441 C 271.270 284.751,239.655 276.588,232.500 275.081 C 191.837 266.511,159.807 249.215,143.525 227.034 C 130.717 209.586,130.977 165.178,143.999 146.001 C 167.046 112.064,215.670 96.414,280.500 102.067 " stroke="none" fill="#000000" fill-rule="evenodd"></path></g></svg>