<svg id="svg" version="1.1" width="400" height="400" xmlns="http://www.w3.org/2000/svg" xmlns:xlink="http://www.w3.org/1999/xlink" style="display: block;"><g id="svgg"><path id="path0" d="M251.750 33.662 C 253.231 34.260,253.447 38.000,252.000 38.000 C 250.599 38.000,250.749 42.349,252.200 43.800 C 252.860 44.460,255.158 45.000,257.307 45.000 C 260.369 45.000,261.089 45.324,260.638 46.500 C 260.206 47.626,260.803 48.000,263.031 48.000 C 264.664 48.000,266.000 48.450,266.000 49.000 C 266.000 49.550,267.575 50.000,269.500 50.000 C 271.425 50.000,273.000 50.450,273.000 51.000 C 273.000 51.550,274.125 52.000,275.500 52.000 C 276.875 52.000,278.000 52.450,278.000 53.000 C 278.000 53.550,278.675 54.000,279.500 54.000 C 280.325 54.000,281.036 54.788,281.079 55.750 C 281.126 56.795,281.361 56.997,281.662 56.250 C 282.240 54.819,286.000 54.530,286.000 55.917 C 286.000 56.421,285.438 57.078,284.750 57.377 C 284.063 57.676,284.738 57.665,286.250 57.352 C 288.346 56.918,289.000 57.166,289.000 58.392 C 289.000 59.349,289.834 60.000,291.059 60.000 C 292.191 60.000,292.840 60.450,292.500 61.000 C 292.160 61.550,292.771 62.000,293.858 62.000 C 294.944 62.000,296.060 62.563,296.338 63.250 C 296.676 64.089,296.868 64.120,296.921 63.344 C 297.012 62.012,301.000 62.767,301.000 64.117 C 301.000 64.602,301.845 65.000,302.878 65.000 C 305.024 65.000,307.446 67.469,306.616 68.812 C 306.311 69.306,307.139 69.505,308.458 69.253 C 310.137 68.932,311.248 69.424,312.168 70.897 C 312.890 72.054,314.048 73.000,314.741 73.000 C 315.433 73.000,316.000 73.450,316.000 74.000 C 316.000 74.550,316.675 75.000,317.500 75.000 C 319.318 75.000,319.485 76.611,317.750 77.407 C 317.063 77.723,317.449 77.750,318.609 77.468 C 321.434 76.780,324.234 77.948,323.617 79.556 C 322.964 81.257,325.569 83.385,327.126 82.422 C 327.955 81.910,328.143 82.184,327.721 83.285 C 327.287 84.415,327.534 84.732,328.542 84.345 C 329.336 84.041,330.258 84.510,330.596 85.391 C 330.934 86.269,331.609 86.742,332.096 86.440 C 333.332 85.677,338.250 90.786,337.480 92.033 C 337.134 92.592,337.222 92.985,337.676 92.906 C 340.744 92.373,342.200 93.129,341.711 94.999 C 341.423 96.098,341.665 97.293,342.248 97.654 C 342.872 98.039,343.015 97.833,342.595 97.155 C 341.138 94.797,343.331 96.107,346.102 99.250 C 347.678 101.037,348.975 103.314,348.984 104.309 C 348.994 105.433,349.443 105.844,350.170 105.395 C 350.957 104.909,351.131 105.217,350.701 106.336 C 350.194 107.658,350.673 108.000,353.031 108.000 C 354.664 108.000,356.000 107.518,356.000 106.929 C 356.000 105.448,358.622 102.956,359.381 103.714 C 359.721 104.055,360.000 102.458,360.000 100.167 C 360.000 97.875,359.550 96.000,359.000 96.000 C 358.450 96.000,358.000 95.025,358.000 93.833 C 358.000 92.642,357.727 91.940,357.393 92.273 C 356.524 93.142,354.101 90.679,354.759 89.595 C 355.062 89.098,354.821 88.993,354.224 89.362 C 352.824 90.227,347.613 85.435,348.461 84.063 C 348.858 83.420,348.458 83.271,347.415 83.671 C 346.241 84.121,345.869 83.892,346.194 82.917 C 346.451 82.146,345.725 81.025,344.581 80.426 C 343.436 79.827,342.607 78.827,342.738 78.204 C 342.876 77.546,342.305 77.330,341.373 77.687 C 340.090 78.179,339.891 77.822,340.375 75.901 C 340.709 74.581,340.723 74.063,340.407 74.750 C 339.099 77.598,334.166 74.940,334.841 71.750 C 334.929 71.338,334.662 71.053,334.250 71.118 C 332.187 71.444,331.000 70.853,331.000 69.500 C 331.000 68.675,330.140 68.000,329.089 68.000 C 328.038 68.000,326.102 66.721,324.786 65.158 C 323.471 63.595,321.140 62.001,319.607 61.616 C 317.730 61.145,317.000 60.443,317.373 59.470 C 317.678 58.675,317.607 58.072,317.214 58.130 C 314.395 58.551,312.585 57.914,314.000 57.000 C 315.174 56.241,314.918 56.027,312.821 56.015 C 311.348 56.007,309.468 55.325,308.643 54.500 C 307.818 53.675,306.211 53.000,305.071 53.000 C 303.932 53.000,303.000 52.550,303.000 52.000 C 303.000 51.450,302.325 51.000,301.500 51.000 C 300.675 51.000,300.000 50.550,300.000 50.000 C 300.000 49.450,299.052 49.000,297.893 49.000 C 296.495 49.000,295.967 48.528,296.325 47.596 C 296.713 46.585,296.167 46.268,294.375 46.464 C 292.758 46.642,292.050 46.313,292.352 45.525 C 292.664 44.713,292.021 44.464,290.409 44.773 C 289.027 45.037,288.000 44.757,288.000 44.117 C 288.000 43.502,286.664 43.000,285.031 43.000 C 282.926 43.000,282.216 42.601,282.589 41.628 C 282.977 40.617,282.441 40.384,280.558 40.744 C 279.127 41.018,278.000 40.770,278.000 40.183 C 278.000 39.605,276.762 38.990,275.250 38.816 C 273.738 38.642,272.601 37.972,272.724 37.327 C 272.885 36.488,272.089 36.401,269.925 37.022 C 267.138 37.821,266.943 37.716,267.441 35.694 C 267.738 34.488,267.723 34.063,267.407 34.750 C 266.558 36.599,260.000 36.378,260.000 34.500 C 260.000 33.366,258.841 33.019,255.250 33.079 C 252.637 33.122,251.063 33.385,251.750 33.662 M186.000 57.500 C 186.000 58.325,185.325 59.000,184.500 59.000 C 183.353 59.000,183.007 60.236,183.032 64.250 C 183.083 72.628,183.714 73.000,197.860 73.000 C 205.287 73.000,210.000 73.388,210.000 74.000 C 210.000 74.556,212.667 75.000,216.000 75.000 C 219.300 75.000,222.000 75.403,222.000 75.896 C 222.000 76.389,225.600 77.111,230.000 77.500 C 234.400 77.889,238.000 78.611,238.000 79.104 C 238.000 79.597,239.125 80.000,240.500 80.000 C 242.056 80.000,243.000 80.567,243.000 81.500 C 243.000 82.325,243.338 82.947,243.750 82.882 C 246.227 82.490,249.026 83.149,248.500 84.000 C 248.137 84.588,249.246 85.013,251.191 85.032 C 254.696 85.065,257.297 86.525,258.259 89.000 C 258.618 89.924,258.872 90.020,258.921 89.250 C 258.964 88.563,259.810 88.000,260.801 88.000 C 263.698 88.000,268.041 90.393,267.545 91.716 C 267.222 92.576,267.955 92.759,270.044 92.341 C 271.917 91.967,273.000 92.162,273.000 92.875 C 273.000 93.494,273.675 94.000,274.500 94.000 C 275.325 94.000,276.000 94.450,276.000 95.000 C 276.000 95.550,276.891 96.000,277.981 96.000 C 279.226 96.000,280.181 96.873,280.551 98.348 C 281.015 100.195,281.659 100.597,283.570 100.231 C 286.063 99.755,286.993 101.424,284.750 102.349 C 284.063 102.633,284.989 102.609,286.808 102.296 C 289.568 101.821,290.205 102.069,290.656 103.794 C 290.974 105.007,291.755 105.647,292.547 105.344 C 293.289 105.059,295.255 106.215,296.915 107.913 C 298.575 109.611,300.430 111.000,301.038 111.000 C 302.719 111.000,305.209 113.853,304.512 114.981 C 304.171 115.532,304.518 115.738,305.288 115.443 C 306.956 114.803,309.439 117.481,308.534 118.945 C 308.158 119.553,308.512 119.741,309.396 119.402 C 310.221 119.085,311.931 119.760,313.198 120.901 C 314.464 122.043,317.166 124.360,319.202 126.050 C 321.238 127.740,323.148 129.883,323.446 130.812 C 323.744 131.740,325.363 133.400,327.043 134.500 C 329.234 135.934,329.987 137.110,329.705 138.659 C 329.413 140.261,329.703 140.667,330.830 140.235 C 331.948 139.806,332.173 140.107,331.685 141.378 C 331.321 142.327,331.400 142.871,331.860 142.587 C 333.308 141.691,337.000 145.967,337.000 148.539 C 337.000 149.893,337.337 150.947,337.750 150.882 C 340.796 150.401,342.093 151.131,341.502 152.994 C 341.016 154.524,341.233 154.848,342.435 154.387 C 343.534 153.965,344.000 154.382,344.000 155.786 C 344.000 156.886,344.675 158.045,345.500 158.362 C 346.325 158.678,347.000 159.814,347.000 160.885 C 347.000 161.957,347.470 162.990,348.044 163.181 C 348.619 163.373,349.163 164.516,349.254 165.722 C 349.345 166.928,349.603 167.730,349.829 167.505 C 350.783 166.550,353.172 170.232,352.720 171.961 C 352.376 173.278,352.647 173.689,353.613 173.318 C 354.441 173.001,355.000 173.434,355.000 174.393 C 355.000 175.277,355.480 176.000,356.067 176.000 C 356.654 176.000,356.868 176.840,356.543 177.866 C 356.049 179.422,356.370 179.652,358.475 179.250 C 359.864 178.984,361.000 178.460,361.000 178.084 C 361.000 177.133,367.809 174.764,368.794 175.373 C 370.248 176.271,370.076 169.374,368.572 166.476 C 367.764 164.918,367.338 163.262,367.626 162.797 C 367.913 162.331,367.553 162.074,366.824 162.225 C 366.096 162.376,365.607 161.954,365.738 161.286 C 365.884 160.542,365.343 160.315,364.340 160.700 C 363.023 161.205,362.800 160.827,363.196 158.755 C 363.503 157.147,363.278 156.328,362.594 156.571 C 361.553 156.942,358.000 150.528,358.000 148.279 C 358.000 147.693,357.296 146.944,356.437 146.614 C 355.523 146.264,355.174 145.491,355.597 144.757 C 355.995 144.066,355.976 143.810,355.554 144.190 C 354.421 145.209,350.919 141.577,350.740 139.196 C 350.655 138.064,350.288 137.322,349.926 137.546 C 348.675 138.319,345.752 134.088,346.390 132.426 C 346.861 131.199,346.608 130.937,345.400 131.400 C 344.254 131.840,343.942 131.594,344.338 130.562 C 344.734 129.530,344.422 129.285,343.275 129.725 C 342.075 130.185,341.815 129.925,342.275 128.725 C 342.735 127.527,342.475 127.264,341.285 127.721 C 340.184 128.143,339.910 127.955,340.422 127.126 C 341.301 125.705,339.191 122.764,337.876 123.577 C 336.842 124.216,331.000 118.693,331.000 117.077 C 331.000 116.485,330.515 116.000,329.922 116.000 C 328.067 116.000,320.852 108.048,321.603 106.833 C 322.047 106.115,321.864 105.966,321.111 106.432 C 319.577 107.379,316.755 105.082,317.397 103.408 C 317.721 102.563,317.181 102.273,315.785 102.541 C 313.666 102.949,308.637 98.397,309.558 96.906 C 309.803 96.510,309.043 96.437,307.871 96.744 C 306.316 97.151,304.994 96.449,302.988 94.151 C 301.475 92.418,299.707 91.000,299.059 91.000 C 298.412 91.000,298.160 90.550,298.500 90.000 C 299.029 89.144,296.193 88.485,293.722 88.891 C 293.294 88.961,292.684 88.339,292.365 87.509 C 292.047 86.679,290.934 86.000,289.893 86.000 C 288.852 86.000,288.000 85.550,288.000 85.000 C 288.000 84.450,287.325 84.000,286.500 84.000 C 285.675 84.000,285.000 83.365,285.000 82.588 C 285.000 81.667,284.111 81.274,282.443 81.457 C 280.710 81.647,280.044 81.328,280.374 80.467 C 280.686 79.654,279.631 78.966,277.446 78.556 C 274.717 78.044,267.518 74.950,265.029 73.219 C 264.770 73.039,265.197 72.497,265.977 72.014 C 266.854 71.472,265.793 71.352,263.198 71.700 C 260.409 72.074,259.000 71.884,259.000 71.132 C 259.000 70.509,258.100 70.000,257.000 70.000 C 255.900 70.000,255.000 69.550,255.000 69.000 C 255.000 68.450,253.875 68.000,252.500 68.000 C 251.125 68.000,250.000 67.550,250.000 67.000 C 250.000 66.450,248.200 66.000,246.000 66.000 C 243.800 66.000,242.000 65.550,242.000 65.000 C 242.000 64.450,240.677 64.000,239.059 64.000 C 237.441 64.000,235.840 63.550,235.500 63.000 C 235.160 62.450,233.109 62.000,230.941 62.000 C 227.884 62.000,226.982 61.607,226.921 60.250 C 226.874 59.205,226.639 59.003,226.338 59.750 C 225.613 61.547,217.883 61.307,215.165 59.403 C 213.382 58.154,210.934 57.881,203.952 58.153 C 197.463 58.405,194.890 58.158,194.542 57.250 C 193.822 55.371,186.000 55.600,186.000 57.500 M132.000 90.000 C 132.000 90.565,129.147 91.000,125.441 91.000 C 120.927 91.000,119.094 91.343,119.562 92.100 C 120.034 92.864,118.526 93.092,114.619 92.850 C 109.352 92.522,107.399 93.187,110.250 94.338 C 110.938 94.615,109.813 94.878,107.750 94.921 C 105.676 94.965,104.000 95.505,104.000 96.130 C 104.000 96.882,102.410 97.092,99.250 96.759 C 96.638 96.483,95.063 96.462,95.750 96.712 C 98.100 97.567,97.004 99.000,94.000 99.000 C 92.350 99.000,91.000 99.450,91.000 100.000 C 91.000 100.550,89.902 101.000,88.559 101.000 C 87.216 101.000,85.877 101.389,85.583 101.865 C 85.289 102.341,83.910 102.605,82.519 102.453 C 81.128 102.300,80.244 102.586,80.554 103.088 C 81.048 103.887,78.925 104.462,76.750 104.118 C 76.337 104.053,76.112 104.562,76.250 105.250 C 76.416 106.078,75.319 106.456,73.000 106.369 C 71.075 106.297,70.063 106.447,70.750 106.702 C 71.438 106.958,72.000 107.579,72.000 108.083 C 72.000 109.468,68.248 109.183,67.612 107.750 C 67.308 107.063,67.158 107.397,67.279 108.494 C 67.455 110.080,66.580 110.728,63.000 111.663 C 60.525 112.310,58.870 112.875,59.321 112.920 C 60.776 113.062,57.199 116.000,55.571 116.000 C 54.707 116.000,54.000 116.639,54.000 117.421 C 54.000 118.202,52.646 119.138,50.991 119.502 C 49.229 119.889,48.255 120.603,48.640 121.226 C 49.065 121.914,48.387 122.116,46.725 121.798 C 44.784 121.427,44.030 121.778,43.651 123.228 C 43.374 124.284,42.215 125.393,41.074 125.691 C 39.933 125.989,39.000 126.679,39.000 127.224 C 39.000 127.768,38.348 127.964,37.551 127.658 C 36.538 127.269,36.286 127.582,36.715 128.699 C 37.203 129.971,36.804 130.196,34.755 129.804 C 32.761 129.423,32.313 129.651,32.761 130.820 C 33.148 131.828,32.937 132.079,32.126 131.578 C 30.528 130.590,27.972 132.762,28.650 134.531 C 28.990 135.417,28.248 136.151,26.591 136.567 C 25.166 136.924,24.000 137.618,24.000 138.108 C 24.000 138.599,23.325 139.000,22.500 139.000 C 21.675 139.000,20.993 139.787,20.985 140.750 C 20.972 142.246,20.828 142.282,20.000 141.000 C 19.204 139.768,19.028 139.872,19.015 141.585 C 19.000 143.684,13.935 149.000,11.950 149.000 C 11.362 149.000,11.207 149.526,11.605 150.170 C 12.073 150.926,11.807 151.140,10.853 150.774 C 9.730 150.343,9.324 151.135,9.149 154.104 C 8.982 156.929,9.314 158.000,10.354 158.000 C 12.077 158.000,18.000 163.346,18.000 164.901 C 18.000 165.506,19.125 166.000,20.500 166.000 C 22.136 166.000,23.000 165.441,23.000 164.383 C 23.000 163.259,23.609 162.926,24.999 163.289 C 26.098 163.577,27.293 163.335,27.654 162.752 C 28.039 162.128,27.833 161.985,27.155 162.405 C 24.849 163.829,26.088 161.912,30.000 158.000 C 33.912 154.088,35.829 152.849,34.405 155.155 C 33.948 155.893,34.132 156.037,34.914 155.553 C 35.586 155.138,35.912 154.212,35.637 153.497 C 34.885 151.536,36.024 150.942,38.252 152.135 C 39.692 152.906,40.052 152.894,39.557 152.092 C 38.706 150.715,41.620 147.647,42.981 148.488 C 43.578 148.857,43.712 148.412,43.315 147.378 C 42.796 146.025,43.038 145.801,44.438 146.338 C 45.809 146.864,46.077 146.644,45.597 145.392 C 45.098 144.091,45.473 143.857,47.455 144.236 C 48.822 144.497,49.702 144.326,49.411 143.856 C 49.120 143.385,49.569 143.000,50.410 143.000 C 51.357 143.000,51.718 142.430,51.362 141.500 C 51.045 140.675,51.303 140.000,51.935 140.000 C 52.567 140.000,54.050 139.100,55.230 138.000 C 56.411 136.900,58.192 136.000,59.189 136.000 C 60.185 136.000,61.000 135.559,61.000 135.019 C 61.000 134.480,62.125 133.756,63.500 133.411 C 64.875 133.066,66.000 132.382,66.000 131.892 C 66.000 131.401,67.111 131.000,68.469 131.000 C 70.154 131.000,70.770 130.563,70.409 129.623 C 69.841 128.143,76.179 126.375,78.006 127.503 C 78.553 127.842,78.717 127.427,78.382 126.552 C 77.996 125.546,78.352 125.000,79.393 125.000 C 80.277 125.000,81.000 124.550,81.000 124.000 C 81.000 123.450,82.125 123.000,83.500 123.000 C 84.875 123.000,86.000 122.602,86.000 122.117 C 86.000 121.008,89.652 119.816,93.205 119.766 C 94.692 119.745,95.817 119.226,95.705 118.614 C 95.590 117.989,96.872 117.501,98.623 117.502 C 100.869 117.504,101.598 117.116,101.218 116.124 C 100.812 115.069,101.520 114.842,104.231 115.158 C 106.825 115.461,107.641 115.228,107.279 114.286 C 106.934 113.387,107.854 113.000,110.334 113.000 C 112.285 113.000,114.141 112.580,114.458 112.067 C 114.776 111.554,118.637 110.820,123.039 110.436 C 127.442 110.052,131.286 109.347,131.581 108.869 C 131.876 108.391,135.931 108.000,140.590 108.000 C 147.199 108.000,149.189 107.670,149.638 106.500 C 150.101 105.294,152.347 105.000,161.107 105.000 C 170.123 105.000,172.000 105.258,172.000 106.500 C 172.000 107.722,173.667 108.000,181.000 108.000 C 185.950 108.000,190.000 108.384,190.000 108.853 C 190.000 109.323,193.397 109.994,197.550 110.345 C 201.702 110.696,205.948 111.437,206.984 111.991 C 208.020 112.546,210.248 113.000,211.934 113.000 C 213.620 113.000,215.000 113.450,215.000 114.000 C 215.000 114.550,216.173 115.000,217.607 115.000 C 219.455 115.000,220.054 115.416,219.666 116.428 C 219.231 117.562,219.859 117.735,222.727 117.269 C 225.717 116.784,226.233 116.950,225.739 118.237 C 225.275 119.447,225.791 119.746,228.072 119.588 C 229.755 119.472,231.000 119.882,231.000 120.554 C 231.000 121.279,232.006 121.530,233.649 121.216 C 235.477 120.867,236.078 121.065,235.590 121.855 C 235.129 122.601,235.774 123.000,237.441 123.000 C 238.848 123.000,240.000 123.450,240.000 124.000 C 240.000 124.550,240.675 125.000,241.500 125.000 C 242.325 125.000,243.000 125.702,243.000 126.559 C 243.000 127.416,243.461 127.833,244.024 127.485 C 245.861 126.350,251.191 128.059,250.602 129.595 C 250.229 130.568,250.822 131.000,252.531 131.000 C 253.889 131.000,255.000 131.450,255.000 132.000 C 255.000 132.550,255.873 133.000,256.941 133.000 C 258.009 133.000,259.177 133.478,259.538 134.062 C 259.899 134.646,261.319 135.551,262.694 136.074 C 264.069 136.596,265.414 137.866,265.683 138.896 C 265.989 140.066,266.811 140.601,267.876 140.322 C 268.812 140.077,270.418 140.805,271.444 141.938 C 272.470 143.072,273.728 144.000,274.238 144.000 C 274.749 144.000,276.696 145.575,278.566 147.500 C 280.435 149.425,282.398 151.000,282.927 151.000 C 283.456 151.000,286.104 153.250,288.811 156.000 C 291.518 158.750,294.243 161.000,294.866 161.000 C 295.490 161.000,296.000 161.394,296.000 161.876 C 296.000 162.358,297.800 164.664,300.000 167.000 C 303.667 170.894,304.564 172.777,304.047 175.500 C 303.943 176.050,304.400 175.966,305.064 175.314 C 306.494 173.910,309.555 176.293,308.505 177.992 C 308.162 178.547,308.575 179.000,309.422 179.000 C 310.269 179.000,311.244 180.125,311.589 181.500 C 311.934 182.875,312.618 184.000,313.108 184.000 C 313.599 184.000,314.007 185.012,314.015 186.250 C 314.028 188.069,314.216 188.213,315.000 187.000 C 315.822 185.728,315.972 185.775,315.985 187.309 C 315.993 188.304,316.453 188.838,317.007 188.496 C 318.602 187.510,319.460 191.082,317.896 192.195 C 316.783 192.987,316.841 193.080,318.177 192.654 C 320.332 191.966,322.383 194.428,321.731 196.920 C 321.377 198.275,321.639 198.692,322.613 198.318 C 323.525 197.968,324.000 198.507,324.000 199.893 C 324.000 201.052,324.450 202.000,325.000 202.000 C 325.550 202.000,326.000 202.975,326.000 204.167 C 326.000 205.358,326.279 206.055,326.619 205.714 C 327.962 204.371,330.192 208.108,329.641 210.780 C 329.332 212.276,329.324 212.938,329.623 212.250 C 330.607 209.988,332.243 210.947,331.755 213.500 C 331.420 215.253,331.718 216.000,332.752 216.000 C 333.810 216.000,334.107 216.818,333.802 218.896 C 333.510 220.882,333.758 221.646,334.589 221.328 C 335.358 221.032,336.052 222.349,336.488 224.931 C 336.866 227.169,337.586 229.000,338.088 229.000 C 338.590 229.000,339.000 230.125,339.000 231.500 C 339.000 233.145,339.558 234.000,340.632 234.000 C 341.971 234.000,342.162 234.752,341.700 238.198 C 341.352 240.795,341.472 241.854,342.015 240.976 C 343.371 238.781,344.129 241.680,344.329 249.827 C 344.462 255.269,344.774 256.575,345.750 255.777 C 346.717 254.987,347.000 255.789,347.000 259.319 C 347.000 261.828,347.450 264.160,348.000 264.500 C 348.550 264.840,349.000 267.765,349.000 271.000 C 349.000 274.235,349.450 277.160,350.000 277.500 C 350.613 277.879,351.000 285.844,351.000 298.059 C 351.000 310.686,350.633 318.000,350.000 318.000 C 349.436 318.000,349.000 320.833,349.000 324.500 C 349.000 328.167,348.564 331.000,348.000 331.000 C 347.450 331.000,347.000 332.998,347.000 335.441 C 347.000 337.884,346.603 340.127,346.118 340.427 C 345.633 340.727,344.919 343.936,344.531 347.560 C 344.041 352.133,343.451 354.003,342.601 353.677 C 341.756 353.353,341.508 354.103,341.802 356.104 C 342.121 358.278,341.825 359.000,340.613 359.000 C 339.436 359.000,339.000 359.946,339.000 362.500 C 339.000 364.425,338.550 366.000,338.000 366.000 C 337.450 366.000,337.000 367.545,337.000 369.433 C 337.000 373.074,339.128 374.655,342.359 373.416 C 343.271 373.066,344.000 373.278,344.000 373.893 C 344.000 374.502,344.675 375.000,345.500 375.000 C 346.325 375.000,347.000 375.693,347.000 376.541 C 347.000 377.699,347.949 378.025,350.826 377.855 C 354.240 377.654,354.604 377.380,354.209 375.315 C 353.960 374.013,354.255 373.000,354.883 373.000 C 355.498 373.000,356.000 372.073,356.000 370.941 C 356.000 369.809,356.450 369.160,357.000 369.500 C 357.597 369.869,358.000 368.636,358.000 366.437 C 358.000 363.613,358.291 362.993,359.250 363.777 C 360.226 364.575,360.539 363.238,360.679 357.673 C 360.780 353.653,361.324 350.392,361.929 350.190 C 362.518 349.994,363.000 348.322,363.000 346.476 C 363.000 343.262,364.831 340.475,365.157 343.191 C 365.373 344.986,366.957 332.062,367.571 323.500 C 367.847 319.650,368.538 315.570,369.108 314.432 C 370.767 311.118,368.682 261.461,366.929 262.544 C 366.410 262.865,366.000 261.129,366.000 258.609 C 366.000 255.500,365.499 253.819,364.388 253.197 C 363.177 252.519,362.866 251.158,363.138 247.730 C 363.339 245.208,363.079 243.241,362.556 243.333 C 361.420 243.534,360.286 238.991,360.103 233.500 C 360.004 230.523,359.722 229.884,359.000 231.000 C 358.245 232.169,358.027 231.893,358.015 229.750 C 358.007 228.238,357.550 227.000,357.000 227.000 C 356.450 227.000,356.000 225.425,356.000 223.500 C 356.000 221.575,355.499 220.000,354.887 220.000 C 354.227 220.000,353.946 218.819,354.198 217.104 C 354.525 214.873,354.288 214.336,353.164 214.767 C 352.051 215.194,351.821 214.716,352.196 212.755 C 352.575 210.771,352.346 210.314,351.194 210.756 C 350.013 211.209,349.839 210.778,350.363 208.691 C 350.841 206.786,350.674 206.185,349.762 206.527 C 348.517 206.994,346.000 202.829,346.000 200.301 C 346.000 199.585,345.592 199.000,345.094 199.000 C 344.595 199.000,344.423 198.100,344.710 197.000 C 345.003 195.882,344.741 195.000,344.117 195.000 C 343.502 195.000,342.964 193.762,342.921 192.250 C 342.878 190.738,342.615 190.063,342.338 190.750 C 342.060 191.437,341.373 192.000,340.810 192.000 C 340.247 192.000,340.036 191.348,340.342 190.551 C 340.714 189.582,340.418 189.286,339.449 189.658 C 337.623 190.359,337.429 186.420,339.250 185.612 C 339.938 185.308,339.704 185.158,338.732 185.279 C 337.069 185.487,334.854 182.775,333.399 178.750 C 333.051 177.787,332.369 177.000,331.883 177.000 C 331.398 177.000,331.000 176.325,331.000 175.500 C 331.000 174.675,330.334 174.000,329.519 174.000 C 328.705 174.000,327.756 172.875,327.411 171.500 C 327.066 170.125,326.352 169.000,325.824 169.000 C 325.297 169.000,325.116 167.988,325.423 166.750 C 325.730 165.512,325.723 165.063,325.407 165.750 C 324.598 167.511,323.000 167.306,323.000 165.441 C 323.000 164.584,322.594 164.133,322.097 164.440 C 321.601 164.747,320.724 163.648,320.149 161.999 C 319.574 160.349,318.582 159.000,317.945 159.000 C 317.308 159.000,317.036 158.348,317.342 157.551 C 317.734 156.531,317.418 156.286,316.275 156.725 C 315.075 157.185,314.815 156.925,315.275 155.725 C 315.697 154.627,315.465 154.268,314.560 154.615 C 313.778 154.915,312.033 153.448,310.361 151.086 C 308.787 148.862,307.075 147.033,306.555 147.021 C 305.048 146.987,300.000 141.764,300.000 140.240 C 300.000 139.470,299.239 139.000,298.289 139.183 C 296.171 139.591,291.843 135.738,292.321 133.871 C 292.514 133.117,292.483 132.838,292.253 133.250 C 291.477 134.637,289.780 134.016,290.342 132.551 C 290.714 131.582,290.418 131.286,289.449 131.658 C 288.652 131.964,288.000 131.768,288.000 131.224 C 288.000 130.679,287.055 129.986,285.899 129.684 C 284.744 129.382,284.092 128.659,284.451 128.079 C 284.849 127.435,284.494 127.257,283.541 127.623 C 282.428 128.050,282.147 127.780,282.568 126.684 C 283.023 125.499,282.652 125.278,280.953 125.723 C 279.474 126.109,278.432 125.737,277.793 124.594 C 277.268 123.656,275.653 122.438,274.203 121.887 C 272.072 121.077,271.848 120.704,273.034 119.940 C 274.210 119.181,274.104 119.026,272.500 119.155 C 268.275 119.497,266.780 119.015,267.362 117.500 C 267.777 116.417,267.253 116.000,265.477 116.000 C 264.100 116.000,262.467 115.120,261.768 114.000 C 261.081 112.900,259.955 112.000,259.266 112.000 C 257.002 112.000,250.000 108.552,250.000 107.437 C 250.000 106.782,248.739 106.531,246.840 106.810 C 244.393 107.169,243.805 106.951,244.231 105.841 C 244.593 104.897,244.056 104.354,242.655 104.249 C 241.486 104.161,240.373 103.619,240.181 103.044 C 239.990 102.470,239.233 102.000,238.500 102.000 C 237.767 102.000,236.940 101.438,236.662 100.750 C 236.385 100.063,236.122 99.985,236.079 100.577 C 235.985 101.865,230.000 101.185,230.000 99.887 C 230.000 99.399,228.875 99.000,227.500 99.000 C 226.116 99.000,225.000 98.420,225.000 97.701 C 225.000 96.805,223.914 96.528,221.500 96.810 C 219.191 97.080,218.000 96.804,218.000 96.000 C 218.000 95.196,216.808 94.920,214.496 95.190 C 211.381 95.554,211.047 95.372,211.487 93.550 C 211.759 92.422,211.760 91.953,211.488 92.507 C 210.888 93.734,202.000 93.164,202.000 91.899 C 202.000 91.405,199.075 91.000,195.500 91.000 C 191.833 91.000,189.000 90.564,189.000 90.000 C 189.000 89.357,178.833 89.000,160.500 89.000 C 142.167 89.000,132.000 89.357,132.000 90.000 " stroke="none" fill="#000000" fill-rule="evenodd"></path></g></svg>