<svg id="svg" version="1.1" width="400" height="400" xmlns="http://www.w3.org/2000/svg" xmlns:xlink="http://www.w3.org/1999/xlink" style="display: block;"><g id="svgg"><path id="path0" d="M310.293 101.989 C 310.007 103.083,309.374 103.731,308.886 103.430 C 308.399 103.128,308.000 103.809,308.000 104.941 C 308.000 106.073,307.550 107.000,307.000 107.000 C 306.450 107.000,306.000 107.675,306.000 108.500 C 306.000 109.325,305.298 110.000,304.441 110.000 C 303.584 110.000,303.160 110.450,303.500 111.000 C 303.840 111.550,303.416 112.000,302.559 112.000 C 301.702 112.000,301.000 112.591,301.000 113.313 C 301.000 114.653,295.873 120.071,294.343 120.348 C 293.880 120.431,293.613 120.838,293.750 121.250 C 293.887 121.662,293.298 122.000,292.441 122.000 C 291.584 122.000,291.160 122.450,291.500 123.000 C 291.840 123.550,291.486 124.000,290.714 124.000 C 289.942 124.000,288.505 124.889,287.521 125.976 C 286.538 127.063,285.332 127.705,284.842 127.402 C 284.351 127.099,284.074 127.427,284.225 128.130 C 284.376 128.834,283.921 129.430,283.214 129.455 C 282.506 129.480,281.556 130.101,281.102 130.835 C 280.648 131.570,279.989 132.132,279.638 132.085 C 277.742 131.832,276.743 132.077,277.321 132.654 C 278.350 133.683,262.160 142.217,260.787 141.368 C 260.346 141.096,259.716 141.577,259.386 142.437 C 259.029 143.366,257.589 144.000,255.834 144.000 C 254.121 144.000,253.141 144.420,253.500 145.000 C 253.844 145.556,253.094 146.000,251.809 146.001 C 250.539 146.001,247.053 146.931,244.062 148.068 C 241.071 149.205,237.808 149.921,236.810 149.661 C 235.813 149.400,235.223 149.552,235.500 149.999 C 236.164 151.074,226.437 152.388,224.892 151.433 C 224.131 150.963,223.953 151.114,224.405 151.845 C 224.938 152.708,216.448 153.047,190.809 153.188 C 148.572 153.419,146.935 153.487,145.977 155.036 C 145.548 155.732,144.264 156.041,143.085 155.732 C 141.901 155.423,140.341 155.801,139.554 156.589 C 138.778 157.365,137.389 158.000,136.467 158.000 C 134.463 158.000,125.195 162.532,122.813 164.677 C 121.885 165.512,120.648 165.900,120.063 165.539 C 119.478 165.178,119.000 165.584,119.000 166.441 C 119.000 167.298,118.662 167.947,118.250 167.882 C 116.398 167.589,114.926 168.071,115.387 168.818 C 115.665 169.268,114.947 170.280,113.791 171.068 C 112.635 171.856,111.003 173.264,110.166 174.199 C 109.328 175.133,108.262 175.662,107.797 175.374 C 107.331 175.087,107.074 175.447,107.225 176.176 C 107.376 176.904,106.954 177.393,106.286 177.262 C 105.584 177.124,105.313 177.652,105.643 178.512 C 106.016 179.485,105.600 180.000,104.440 180.000 C 103.465 180.000,102.940 180.273,103.273 180.606 C 103.607 180.940,103.007 182.150,101.940 183.295 C 100.873 184.440,100.000 185.994,100.000 186.748 C 100.000 187.501,99.550 187.840,99.000 187.500 C 98.450 187.160,97.944 187.359,97.875 187.941 C 97.806 188.523,97.694 189.466,97.625 190.036 C 97.556 190.607,96.899 191.444,96.165 191.898 C 95.430 192.352,94.977 192.898,95.157 193.112 C 95.925 194.021,92.610 201.877,91.696 201.312 C 91.143 200.971,90.965 201.134,91.299 201.675 C 91.633 202.216,91.240 204.873,90.425 207.579 C 87.994 215.655,87.564 228.463,89.455 236.500 C 90.361 240.350,91.176 244.266,91.265 245.202 C 91.355 246.139,91.640 246.694,91.898 246.436 C 92.393 245.941,95.087 251.450,95.597 253.999 C 95.761 254.823,96.932 256.327,98.198 257.342 C 99.464 258.356,102.168 260.719,104.206 262.593 C 106.245 264.467,108.382 266.000,108.956 266.000 C 109.530 266.000,110.000 266.750,110.000 267.667 C 110.000 268.583,110.289 269.044,110.642 268.691 C 110.995 268.338,112.345 270.043,113.642 272.479 C 116.931 278.658,116.734 284.206,113.000 290.500 C 109.160 296.974,110.157 299.986,114.652 295.491 C 115.482 294.661,116.528 294.208,116.976 294.485 C 117.424 294.762,118.048 294.316,118.364 293.494 C 118.679 292.672,119.851 292.000,120.969 292.000 C 122.086 292.000,123.000 291.614,123.000 291.142 C 123.000 287.918,193.413 287.862,197.539 291.084 C 198.111 291.530,208.461 291.960,220.539 292.040 C 248.228 292.222,251.423 292.110,251.833 290.946 C 252.017 290.426,254.492 289.985,257.333 289.966 C 260.619 289.944,265.199 288.866,269.913 287.007 C 273.990 285.399,277.772 284.359,278.318 284.696 C 278.863 285.033,279.017 284.837,278.660 284.259 C 277.919 283.059,280.703 281.699,282.115 282.571 C 282.629 282.889,282.926 282.593,282.775 281.913 C 282.624 281.233,283.499 280.412,284.719 280.089 C 287.926 279.238,300.000 269.002,300.000 267.134 C 300.000 266.510,300.482 266.000,301.071 266.000 C 302.286 266.000,304.494 264.002,304.940 262.500 C 305.513 260.570,307.686 258.018,308.340 258.506 C 308.703 258.778,308.788 258.713,308.530 258.363 C 308.271 258.012,308.946 256.480,310.030 254.959 C 311.113 253.437,312.000 251.473,312.000 250.596 C 312.000 249.718,312.450 249.000,313.000 249.000 C 313.550 249.000,314.000 248.415,314.000 247.700 C 314.000 246.985,314.535 245.865,315.190 245.210 C 315.844 244.556,316.470 243.408,316.579 242.660 C 316.689 241.912,318.234 237.070,320.012 231.900 C 321.879 226.472,323.464 219.542,323.763 215.500 C 324.047 211.650,324.691 208.234,325.193 207.908 C 326.339 207.166,326.283 160.805,325.135 160.050 C 324.675 159.748,324.023 155.450,323.686 150.500 C 323.350 145.550,321.656 134.975,319.921 127.000 C 318.187 119.025,316.616 110.739,316.430 108.587 C 316.244 106.435,315.555 104.343,314.900 103.938 C 314.245 103.533,313.985 102.481,314.323 101.601 C 314.764 100.452,314.355 100.000,312.875 100.000 C 311.658 100.000,310.600 100.815,310.293 101.989 M81.518 266.240 C 78.193 267.446,76.000 269.309,76.000 270.929 C 76.000 271.518,75.662 271.887,75.250 271.750 C 74.838 271.613,74.404 271.854,74.286 272.286 C 74.168 272.718,73.449 273.694,72.687 274.456 C 70.982 276.161,71.309 288.955,73.086 290.053 C 73.730 290.451,73.947 291.277,73.569 291.888 C 73.185 292.509,73.523 293.000,74.334 293.000 C 75.133 293.000,76.036 293.651,76.342 294.448 C 77.758 298.139,87.238 300.503,93.185 298.649 C 97.821 297.203,105.146 290.545,104.358 288.492 C 104.044 287.671,104.284 287.000,104.893 287.000 C 105.538 287.000,106.000 285.123,106.000 282.500 C 106.000 280.025,105.550 278.000,105.000 278.000 C 104.450 278.000,104.000 277.346,104.000 276.547 C 104.000 268.739,91.026 262.791,81.518 266.240 " stroke="none" fill="#000000" fill-rule="evenodd"></path></g></svg>