<?xml version="1.0" encoding="UTF-8" standalone="no"?>
<svg
   xmlns:dc="http://purl.org/dc/elements/1.1/"
   xmlns:cc="http://creativecommons.org/ns#"
   xmlns:rdf="http://www.w3.org/1999/02/22-rdf-syntax-ns#"
   xmlns:svg="http://www.w3.org/2000/svg"
   xmlns="http://www.w3.org/2000/svg"
   xmlns:sodipodi="http://sodipodi.sourceforge.net/DTD/sodipodi-0.dtd"
   xmlns:inkscape="http://www.inkscape.org/namespaces/inkscape"
   id="svg"
   version="1.1"
   width="665"
   height="665"
   sodipodi:docname="svelte.svg"
   inkscape:version="0.92.4 (5da689c313, 2019-01-14)">
  <metadata
     id="metadata9">
    <rdf:RDF>
      <cc:Work
         rdf:about="">
        <dc:format>image/svg+xml</dc:format>
        <dc:type
           rdf:resource="http://purl.org/dc/dcmitype/StillImage" />
        <dc:title></dc:title>
      </cc:Work>
    </rdf:RDF>
  </metadata>
  <defs
     id="defs7" />
  <sodipodi:namedview
     pagecolor="#ffffff"
     bordercolor="#666666"
     borderopacity="1"
     objecttolerance="10"
     gridtolerance="10"
     guidetolerance="10"
     inkscape:pageopacity="0"
     inkscape:pageshadow="2"
     inkscape:window-width="1920"
     inkscape:window-height="1027"
     id="namedview5"
     showgrid="false"
     inkscape:zoom="0.61203008"
     inkscape:cx="-76.79361"
     inkscape:cy="97.964373"
     inkscape:window-x="-8"
     inkscape:window-y="-8"
     inkscape:window-maximized="1"
     inkscape:current-layer="svg" />
  <g
     id="svgg"
     transform="matrix(1.6599629,0,0,1.6599629,-0.44524021,227.59331)">
    <path
       id="path0"
       d="m 241.494,1.317 c -0.165,0.433 -0.23,28.533 -0.145,62.442 l 0.155,61.655 h 2.406 2.406 V 63.158 0.902 l -2.261,-0.187 c -1.454,-0.12 -2.367,0.094 -2.561,0.602 m 40.478,24.965 -0.167,8.304 -7.219,0.301 -7.218,0.301 -0.186,2.256 -0.187,2.255 h 6.833 c 4.513,0 7.079,0.245 7.555,0.722 0.544,0.544 0.722,8.825 0.722,33.575 0,36.136 0.002,36.159 3.698,41.738 4.452,6.722 10.808,9.56 21.565,9.63 l 7.519,0.05 0.182,-2.171 0.181,-2.17 -6.798,-0.318 c -8.708,-0.407 -12.52,-1.759 -16.269,-5.767 -4.781,-5.111 -4.696,-4.323 -4.519,-41.926 L 287.82,40 l 12.817,-0.162 12.818,-0.163 -0.186,-2.243 -0.186,-2.244 -12.632,-0.301 -12.631,-0.301 -0.301,-8.12 -0.301,-8.12 -2.539,-0.184 -2.539,-0.184 -0.168,8.304 M 15.117,35.535 c -9.95,1.956 -15.1,9.537 -14.375,21.158 0.777,12.464 3.837,15.06 27.402,23.237 21.693,7.528 22.456,8.251 22.878,21.676 0.545,17.335 -2.758,19.296 -32.505,19.296 -18.186,0 -17.911,-0.053 -17.067,3.31 l 0.377,1.502 h 17.924 c 32.068,0 37.494,-3.487 36.663,-23.565 C 55.717,85.319 54.362,83.915 30.653,75.459 7.348,67.147 5.991,65.982 6.028,54.32 6.067,42.266 10.161,40.204 34.737,39.854 l 17.594,-0.25 v -2.358 -2.359 l -17.293,0.066 c -9.512,0.036 -18.476,0.298 -19.921,0.582 m 55.87,0.104 c 0.006,0.414 6.447,20.782 14.314,45.263 l 14.304,44.512 h 3.553 3.552 l 14.305,-44.512 c 16.214,-50.455 15.057,-46.015 11.991,-46.015 -3.256,0 -2.255,-2.567 -16.306,41.805 -7.02,22.165 -12.977,40.688 -13.238,41.162 -0.502,0.911 -1.392,-1.768 -17.479,-52.591 C 75.847,33.245 76.533,34.887 73.31,34.887 c -1.47,0 -2.329,0.278 -2.323,0.752 m 96.847,0.212 c -6.555,1.762 -11.408,5.881 -14.369,12.197 l -1.585,3.381 v 28.884 28.885 l 1.973,4.009 c 5.448,11.067 8.902,12.202 37.124,12.205 l 22.256,0.002 v -2.106 -2.105 l -21.654,-0.301 -21.654,-0.3 -3.447,-1.693 c -7.727,-3.794 -9.486,-8.224 -9.486,-23.888 v -11.4 l 28.722,-0.157 28.722,-0.156 0.162,-14.076 c 0.257,-22.431 -3.519,-30.138 -16.379,-33.428 -4.916,-1.257 -25.649,-1.225 -30.385,0.047 m 184.662,0 c -6.555,1.762 -11.408,5.881 -14.37,12.197 l -1.585,3.381 v 28.884 28.885 l 1.974,4.009 c 5.448,11.067 8.902,12.202 37.124,12.205 l 22.256,0.002 v -2.106 -2.105 l -21.654,-0.301 -21.655,-0.3 -3.446,-1.693 c -7.727,-3.794 -9.486,-8.224 -9.486,-23.888 v -11.4 l 28.722,-0.157 28.722,-0.156 0.161,-14.076 c 0.258,-22.431 -3.518,-30.138 -16.378,-33.428 -4.916,-1.257 -25.65,-1.225 -30.385,0.047 m -153.871,5.314 c 3.523,1.291 7.399,4.981 9.103,8.666 1.622,3.509 2.371,27.502 0.888,28.443 -0.901,0.571 -49.202,0.722 -50.672,0.158 -1.561,-0.599 -1.39,-23.129 0.207,-27.333 2.277,-5.993 5.974,-9.245 12.067,-10.616 5.072,-1.141 24.718,-0.67 28.407,0.682 m 184.661,0 c 3.524,1.291 7.4,4.981 9.104,8.666 1.622,3.509 2.371,27.502 0.888,28.443 -0.902,0.571 -49.203,0.722 -50.672,0.158 -1.562,-0.599 -1.391,-23.129 0.207,-27.333 2.277,-5.993 5.973,-9.245 12.067,-10.616 5.071,-1.141 24.717,-0.67 28.406,0.682"
       inkscape:connector-curvature="0"
       style="fill:#000000;fill-rule:evenodd;stroke:none" />
  </g>
</svg>
