<svg id="svg" version="1.1" width="515" height="515" xmlns="http://www.w3.org/2000/svg" xmlns:xlink="http://www.w3.org/1999/xlink" style="display: block;"><g id="svgg"><path id="path0" d="M15.250 0.700 C 14.012 0.941,13.000 1.558,13.000 2.070 C 13.000 2.581,12.325 3.000,11.500 3.000 C 10.675 3.000,10.000 3.470,10.000 4.045 C 10.000 5.403,5.403 10.000,4.045 10.000 C 3.470 10.000,3.000 10.637,3.000 11.417 C 3.000 12.196,2.438 13.021,1.750 13.250 C -0.089 13.863,-0.089 499.137,1.750 499.750 C 2.437 499.979,3.000 501.254,3.000 502.583 C 3.000 503.913,3.470 505.000,4.045 505.000 C 5.403 505.000,10.000 509.597,10.000 510.955 C 10.000 511.530,10.637 512.000,11.417 512.000 C 12.196 512.000,13.021 512.563,13.250 513.250 C 13.863 515.089,499.137 515.089,499.750 513.250 C 499.979 512.563,501.254 512.000,502.583 512.000 C 503.913 512.000,505.000 511.530,505.000 510.955 C 505.000 510.380,506.105 508.805,507.455 507.455 C 508.805 506.105,510.380 505.000,510.955 505.000 C 511.530 505.000,512.000 503.913,512.000 502.583 C 512.000 501.254,512.562 499.979,513.250 499.750 C 515.714 498.929,515.005 15.336,512.534 11.250 C 511.453 9.463,509.959 8.000,509.213 8.000 C 507.595 8.000,505.000 5.580,505.000 4.071 C 505.000 3.482,504.363 3.000,503.583 3.000 C 502.804 3.000,501.979 2.437,501.750 1.750 C 501.347 0.539,21.377 -0.497,15.250 0.700 M278.000 48.000 C 278.000 48.593,281.667 49.000,287.000 49.000 C 292.333 49.000,296.000 49.407,296.000 50.000 C 296.000 50.550,298.250 51.000,301.000 51.000 C 304.778 51.000,306.000 51.367,306.000 52.500 C 306.000 53.611,307.167 54.000,310.500 54.000 C 312.975 54.000,315.000 54.450,315.000 55.000 C 315.000 55.550,317.025 56.000,319.500 56.000 C 321.975 56.000,324.000 56.450,324.000 57.000 C 324.000 57.550,324.852 58.000,325.893 58.000 C 326.934 58.000,328.045 58.675,328.362 59.500 C 328.698 60.377,330.197 61.000,331.969 61.000 C 333.636 61.000,335.000 61.450,335.000 62.000 C 335.000 62.550,336.575 63.000,338.500 63.000 C 340.425 63.000,342.000 63.450,342.000 64.000 C 342.000 64.550,343.125 65.000,344.500 65.000 C 346.056 65.000,347.000 65.567,347.000 66.500 C 347.000 67.333,347.889 68.000,349.000 68.000 C 350.100 68.000,351.000 68.450,351.000 69.000 C 351.000 69.550,352.125 70.000,353.500 70.000 C 354.875 70.000,356.000 70.450,356.000 71.000 C 356.000 71.550,357.125 72.000,358.500 72.000 C 359.875 72.000,361.000 72.450,361.000 73.000 C 361.000 73.550,361.900 74.000,363.000 74.000 C 364.100 74.000,365.000 74.482,365.000 75.071 C 365.000 76.691,367.645 79.000,369.500 79.000 C 371.355 79.000,374.000 81.309,374.000 82.929 C 374.000 83.518,374.904 84.000,376.009 84.000 C 377.114 84.000,379.431 85.350,381.157 87.000 C 382.884 88.650,385.130 90.000,386.148 90.000 C 387.167 90.000,388.000 90.482,388.000 91.071 C 388.000 92.456,390.544 95.000,391.929 95.000 C 392.518 95.000,393.000 95.450,393.000 96.000 C 393.000 96.550,393.900 97.000,395.000 97.000 C 396.100 97.000,397.000 97.482,397.000 98.071 C 397.000 99.222,399.456 102.000,400.474 102.000 C 401.509 102.000,406.000 106.839,406.000 107.955 C 406.000 108.530,406.470 109.000,407.045 109.000 C 408.161 109.000,413.000 113.491,413.000 114.526 C 413.000 115.544,415.778 118.000,416.929 118.000 C 417.518 118.000,418.000 118.900,418.000 120.000 C 418.000 121.100,418.450 122.000,419.000 122.000 C 419.550 122.000,420.000 123.575,420.000 125.500 C 420.000 128.833,420.167 129.000,423.500 129.000 C 426.359 129.000,427.000 129.374,427.000 131.045 C 427.000 133.174,431.132 138.000,432.955 138.000 C 433.530 138.000,434.000 139.026,434.000 140.279 C 434.000 141.533,434.900 143.207,436.000 144.000 C 437.100 144.793,438.000 146.467,438.000 147.721 C 438.000 149.080,438.605 150.000,439.500 150.000 C 440.333 150.000,441.000 150.889,441.000 152.000 C 441.000 153.100,441.450 154.000,442.000 154.000 C 442.550 154.000,443.000 155.125,443.000 156.500 C 443.000 157.875,443.450 159.000,444.000 159.000 C 444.550 159.000,445.000 160.125,445.000 161.500 C 445.000 162.875,445.450 164.000,446.000 164.000 C 446.550 164.000,447.000 164.900,447.000 166.000 C 447.000 167.111,447.667 168.000,448.500 168.000 C 449.433 168.000,450.000 168.944,450.000 170.500 C 450.000 171.875,450.450 173.000,451.000 173.000 C 451.550 173.000,452.000 174.575,452.000 176.500 C 452.000 178.425,452.450 180.000,453.000 180.000 C 453.550 180.000,454.000 180.900,454.000 182.000 C 454.000 183.111,454.667 184.000,455.500 184.000 C 456.548 184.000,457.000 185.056,457.000 187.500 C 457.000 189.425,457.450 191.000,458.000 191.000 C 458.550 191.000,459.000 193.025,459.000 195.500 C 459.000 197.975,459.450 200.000,460.000 200.000 C 460.550 200.000,461.000 202.025,461.000 204.500 C 461.000 207.833,461.389 209.000,462.500 209.000 C 463.667 209.000,464.000 210.333,464.000 215.000 C 464.000 218.333,464.444 221.000,465.000 221.000 C 465.583 221.000,466.000 224.333,466.000 229.000 C 466.000 233.667,466.417 237.000,467.000 237.000 C 467.631 237.000,468.000 243.833,468.000 255.500 C 468.000 267.167,467.631 274.000,467.000 274.000 C 466.417 274.000,466.000 277.333,466.000 282.000 C 466.000 286.667,465.583 290.000,465.000 290.000 C 464.450 290.000,464.000 292.475,464.000 295.500 C 464.000 299.722,463.652 301.000,462.500 301.000 C 461.389 301.000,461.000 302.167,461.000 305.500 C 461.000 307.975,460.550 310.000,460.000 310.000 C 459.450 310.000,459.000 311.575,459.000 313.500 C 459.000 315.425,458.550 317.000,458.000 317.000 C 457.450 317.000,457.000 318.575,457.000 320.500 C 457.000 322.944,456.548 324.000,455.500 324.000 C 454.452 324.000,454.000 325.056,454.000 327.500 C 454.000 329.425,453.550 331.000,453.000 331.000 C 452.450 331.000,452.000 331.900,452.000 333.000 C 452.000 334.100,451.550 335.000,451.000 335.000 C 450.450 335.000,450.000 336.527,450.000 338.393 C 450.000 340.487,449.426 342.006,448.500 342.362 C 447.675 342.678,447.000 343.851,447.000 344.969 C 447.000 346.086,446.550 347.000,446.000 347.000 C 445.450 347.000,445.000 347.900,445.000 349.000 C 445.000 350.100,444.550 351.000,444.000 351.000 C 443.450 351.000,443.000 352.018,443.000 353.263 C 443.000 354.509,441.877 356.369,440.500 357.403 C 438.939 358.575,438.000 360.272,438.000 361.919 C 438.000 363.411,437.131 365.185,436.000 366.000 C 434.900 366.793,434.000 368.017,434.000 368.721 C 434.000 369.424,433.325 370.000,432.500 370.000 C 431.667 370.000,431.000 370.889,431.000 372.000 C 431.000 373.100,430.550 374.000,430.000 374.000 C 429.450 374.000,429.000 374.675,429.000 375.500 C 429.000 376.325,428.550 377.000,428.000 377.000 C 427.450 377.000,427.000 377.707,427.000 378.571 C 427.000 380.367,424.665 383.000,423.071 383.000 C 422.482 383.000,422.000 383.675,422.000 384.500 C 422.000 385.325,421.550 386.000,421.000 386.000 C 420.450 386.000,420.000 386.900,420.000 388.000 C 420.000 389.100,419.550 390.000,419.000 390.000 C 418.450 390.000,418.000 390.675,418.000 391.500 C 418.000 392.325,417.490 393.000,416.867 393.000 C 416.244 393.000,415.007 393.819,414.117 394.819 C 413.228 395.820,411.712 396.931,410.750 397.288 C 409.788 397.645,409.000 398.851,409.000 399.969 C 409.000 401.624,408.351 402.000,405.500 402.000 C 402.167 402.000,402.000 402.167,402.000 405.500 C 402.000 407.425,401.535 409.000,400.967 409.000 C 399.622 409.000,393.000 415.622,393.000 416.967 C 393.000 417.535,392.325 418.000,391.500 418.000 C 390.675 418.000,390.000 418.450,390.000 419.000 C 390.000 419.550,389.100 420.000,388.000 420.000 C 386.900 420.000,386.000 420.450,386.000 421.000 C 386.000 421.550,385.325 422.000,384.500 422.000 C 383.675 422.000,383.000 422.470,383.000 423.045 C 383.000 425.696,378.032 429.000,374.045 429.000 C 370.397 429.000,370.000 429.245,370.000 431.500 C 370.000 432.875,369.424 434.000,368.721 434.000 C 368.017 434.000,366.793 434.900,366.000 436.000 C 365.207 437.100,363.758 438.000,362.779 438.000 C 361.801 438.000,361.000 438.675,361.000 439.500 C 361.000 440.433,360.056 441.000,358.500 441.000 C 357.125 441.000,356.000 441.450,356.000 442.000 C 356.000 442.550,354.974 443.000,353.721 443.000 C 352.467 443.000,350.793 443.900,350.000 445.000 C 349.147 446.184,347.411 447.000,345.748 447.000 C 344.172 447.000,342.684 447.659,342.362 448.500 C 342.045 449.325,340.934 450.000,339.893 450.000 C 338.852 450.000,338.000 450.450,338.000 451.000 C 338.000 451.550,336.875 452.000,335.500 452.000 C 334.125 452.000,333.000 452.450,333.000 453.000 C 333.000 453.550,332.086 454.000,330.969 454.000 C 329.851 454.000,328.678 454.675,328.362 455.500 C 327.971 456.518,326.375 457.000,323.393 457.000 C 320.977 457.000,319.000 457.450,319.000 458.000 C 319.000 458.550,317.425 459.000,315.500 459.000 C 313.575 459.000,312.000 459.450,312.000 460.000 C 312.000 460.550,310.007 461.000,307.571 461.000 C 304.968 461.000,302.525 461.618,301.643 462.500 C 300.801 463.342,298.357 464.000,296.071 464.000 C 293.832 464.000,292.000 464.450,292.000 465.000 C 292.000 465.583,288.667 466.000,284.000 466.000 C 279.333 466.000,276.000 466.417,276.000 467.000 C 276.000 467.631,269.167 468.000,257.500 468.000 C 245.833 468.000,239.000 467.631,239.000 467.000 C 239.000 466.407,235.333 466.000,230.000 466.000 C 224.667 466.000,221.000 465.593,221.000 465.000 C 221.000 464.444,218.333 464.000,215.000 464.000 C 210.333 464.000,209.000 463.667,209.000 462.500 C 209.000 461.389,207.833 461.000,204.500 461.000 C 202.025 461.000,200.000 460.550,200.000 460.000 C 200.000 459.450,198.425 459.000,196.500 459.000 C 194.575 459.000,193.000 458.550,193.000 458.000 C 193.000 457.450,190.975 457.000,188.500 457.000 C 185.167 457.000,184.000 456.611,184.000 455.500 C 184.000 454.667,183.111 454.000,182.000 454.000 C 180.900 454.000,180.000 453.550,180.000 453.000 C 180.000 452.450,178.875 452.000,177.500 452.000 C 176.125 452.000,175.000 451.550,175.000 451.000 C 175.000 450.450,174.155 450.000,173.122 450.000 C 172.090 450.000,170.685 449.325,170.000 448.500 C 169.315 447.675,167.685 447.000,166.378 447.000 C 165.070 447.000,164.000 446.550,164.000 446.000 C 164.000 445.450,162.974 445.000,161.721 445.000 C 160.467 445.000,158.793 444.100,158.000 443.000 C 157.207 441.900,155.533 441.000,154.279 441.000 C 152.920 441.000,152.000 440.395,152.000 439.500 C 152.000 438.667,151.111 438.000,150.000 438.000 C 148.900 438.000,148.000 437.550,148.000 437.000 C 148.000 436.450,147.325 436.000,146.500 436.000 C 145.675 436.000,145.000 435.550,145.000 435.000 C 145.000 434.450,144.100 434.000,143.000 434.000 C 141.889 434.000,141.000 433.333,141.000 432.500 C 141.000 431.605,140.080 431.000,138.721 431.000 C 137.467 431.000,135.793 430.100,135.000 429.000 C 134.207 427.900,132.983 427.000,132.279 427.000 C 131.576 427.000,131.000 426.550,131.000 426.000 C 131.000 425.450,130.100 425.000,129.000 425.000 C 127.900 425.000,127.000 424.518,127.000 423.929 C 127.000 422.763,124.538 420.000,123.500 420.000 C 122.462 420.000,120.000 417.237,120.000 416.071 C 120.000 415.482,119.100 415.000,118.000 415.000 C 116.900 415.000,116.000 414.550,116.000 414.000 C 116.000 413.450,115.518 413.000,114.929 413.000 C 113.309 413.000,111.000 410.355,111.000 408.500 C 111.000 406.883,108.757 404.000,107.500 404.000 C 107.146 404.000,106.178 403.321,105.348 402.491 C 104.518 401.661,103.430 401.234,102.931 401.543 C 102.431 401.851,102.258 401.492,102.545 400.744 C 103.051 399.424,99.982 395.000,98.561 395.000 C 97.680 395.000,95.000 392.366,95.000 391.500 C 95.000 390.462,92.237 388.000,91.071 388.000 C 90.482 388.000,90.000 387.100,90.000 386.000 C 90.000 384.900,89.550 384.000,89.000 384.000 C 88.450 384.000,88.000 383.424,88.000 382.721 C 88.000 382.017,87.100 380.793,86.000 380.000 C 84.900 379.207,84.000 377.533,84.000 376.279 C 84.000 375.026,83.518 374.000,82.929 374.000 C 81.309 374.000,79.000 371.355,79.000 369.500 C 79.000 367.645,76.691 365.000,75.071 365.000 C 74.482 365.000,74.000 364.100,74.000 363.000 C 74.000 361.900,73.550 361.000,73.000 361.000 C 72.450 361.000,72.000 359.875,72.000 358.500 C 72.000 357.125,71.550 356.000,71.000 356.000 C 70.450 356.000,70.000 354.875,70.000 353.500 C 70.000 352.125,69.550 351.000,69.000 351.000 C 68.450 351.000,68.000 350.100,68.000 349.000 C 68.000 347.889,67.333 347.000,66.500 347.000 C 65.567 347.000,65.000 346.056,65.000 344.500 C 65.000 343.125,64.550 342.000,64.000 342.000 C 63.450 342.000,63.000 340.425,63.000 338.500 C 63.000 336.575,62.550 335.000,62.000 335.000 C 61.450 335.000,61.000 334.100,61.000 333.000 C 61.000 331.889,60.333 331.000,59.500 331.000 C 58.452 331.000,58.000 329.944,58.000 327.500 C 58.000 325.575,57.550 324.000,57.000 324.000 C 56.450 324.000,56.000 321.975,56.000 319.500 C 56.000 317.025,55.550 315.000,55.000 315.000 C 54.450 315.000,54.000 313.425,54.000 311.500 C 54.000 309.056,53.548 308.000,52.500 308.000 C 51.333 308.000,51.000 306.667,51.000 302.000 C 51.000 298.667,50.556 296.000,50.000 296.000 C 49.407 296.000,49.000 292.333,49.000 287.000 C 49.000 281.667,48.593 278.000,48.000 278.000 C 47.366 278.000,47.000 270.500,47.000 257.500 C 47.000 244.500,47.366 237.000,48.000 237.000 C 48.583 237.000,49.000 233.667,49.000 229.000 C 49.000 224.333,49.417 221.000,50.000 221.000 C 50.556 221.000,51.000 218.333,51.000 215.000 C 51.000 210.333,51.333 209.000,52.500 209.000 C 53.500 209.000,54.000 208.000,54.000 206.000 C 54.000 204.350,54.450 203.000,55.000 203.000 C 55.550 203.000,56.000 200.750,56.000 198.000 C 56.000 195.250,56.450 193.000,57.000 193.000 C 57.550 193.000,58.000 192.100,58.000 191.000 C 58.000 189.889,58.667 189.000,59.500 189.000 C 60.548 189.000,61.000 187.944,61.000 185.500 C 61.000 183.575,61.450 182.000,62.000 182.000 C 62.550 182.000,63.000 180.425,63.000 178.500 C 63.000 176.575,63.450 175.000,64.000 175.000 C 64.550 175.000,65.000 174.148,65.000 173.107 C 65.000 172.066,65.675 170.955,66.500 170.638 C 67.325 170.322,68.000 169.149,68.000 168.031 C 68.000 166.914,68.450 166.000,69.000 166.000 C 69.550 166.000,70.000 164.875,70.000 163.500 C 70.000 162.125,70.450 161.000,71.000 161.000 C 71.550 161.000,72.000 160.100,72.000 159.000 C 72.000 157.900,72.450 157.000,73.000 157.000 C 73.550 157.000,74.000 156.373,74.000 155.607 C 74.000 154.841,74.675 153.955,75.500 153.638 C 76.325 153.322,77.000 152.374,77.000 151.531 C 77.000 150.689,77.450 150.000,78.000 150.000 C 78.550 150.000,79.000 149.068,79.000 147.929 C 79.000 145.715,81.164 143.000,82.929 143.000 C 83.518 143.000,84.000 142.056,84.000 140.901 C 84.000 139.747,85.350 137.541,87.000 136.000 C 88.650 134.459,90.000 132.253,90.000 131.099 C 90.000 129.944,90.470 129.000,91.045 129.000 C 92.868 129.000,97.000 124.174,97.000 122.045 C 97.000 120.920,97.470 120.000,98.045 120.000 C 99.161 120.000,104.000 115.509,104.000 114.474 C 104.000 113.659,106.679 111.000,107.500 111.000 C 108.334 111.000,111.000 108.334,111.000 107.500 C 111.000 106.679,113.659 104.000,114.474 104.000 C 115.277 104.000,120.000 99.277,120.000 98.474 C 120.000 97.238,122.899 95.000,124.500 95.000 C 126.355 95.000,129.000 92.691,129.000 91.071 C 129.000 90.482,129.675 90.000,130.500 90.000 C 131.325 90.000,132.000 89.550,132.000 89.000 C 132.000 88.450,132.801 88.000,133.779 88.000 C 134.758 88.000,136.207 87.100,137.000 86.000 C 137.793 84.900,139.017 84.000,139.721 84.000 C 140.424 84.000,141.000 83.325,141.000 82.500 C 141.000 81.667,141.889 81.000,143.000 81.000 C 144.100 81.000,145.000 80.550,145.000 80.000 C 145.000 79.450,146.125 79.000,147.500 79.000 C 148.875 79.000,150.000 78.550,150.000 78.000 C 150.000 77.450,150.900 77.000,152.000 77.000 C 153.111 77.000,154.000 76.333,154.000 75.500 C 154.000 74.675,154.675 74.000,155.500 74.000 C 156.325 74.000,157.000 73.550,157.000 73.000 C 157.000 72.450,157.900 72.000,159.000 72.000 C 160.100 72.000,161.000 71.550,161.000 71.000 C 161.000 70.450,162.125 70.000,163.500 70.000 C 164.875 70.000,166.000 69.550,166.000 69.000 C 166.000 68.450,166.914 68.000,168.031 68.000 C 169.149 68.000,170.322 67.325,170.638 66.500 C 170.955 65.675,172.066 65.000,173.107 65.000 C 174.148 65.000,175.000 64.550,175.000 64.000 C 175.000 63.450,176.575 63.000,178.500 63.000 C 180.425 63.000,182.000 62.550,182.000 62.000 C 182.000 61.450,183.575 61.000,185.500 61.000 C 187.944 61.000,189.000 60.548,189.000 59.500 C 189.000 58.667,189.889 58.000,191.000 58.000 C 192.100 58.000,193.000 57.550,193.000 57.000 C 193.000 56.450,195.250 56.000,198.000 56.000 C 200.750 56.000,203.000 55.550,203.000 55.000 C 203.000 54.450,204.350 54.000,206.000 54.000 C 208.000 54.000,209.000 53.500,209.000 52.500 C 209.000 51.333,210.333 51.000,215.000 51.000 C 218.333 51.000,221.000 50.556,221.000 50.000 C 221.000 49.417,224.333 49.000,229.000 49.000 C 233.667 49.000,237.000 48.583,237.000 48.000 C 237.000 47.366,244.500 47.000,257.500 47.000 C 270.500 47.000,278.000 47.366,278.000 48.000 M411.000 117.500 C 411.000 118.325,411.188 119.000,411.418 119.000 C 411.648 119.000,412.601 119.293,413.535 119.652 C 415.001 120.214,415.075 120.009,414.081 118.152 C 412.754 115.672,411.000 115.301,411.000 117.500 M199.403 186.500 C 198.369 187.877,196.509 189.000,195.263 189.000 C 194.018 189.000,193.000 189.450,193.000 190.000 C 193.000 190.550,192.100 191.000,191.000 191.000 C 189.900 191.000,189.000 191.450,189.000 192.000 C 189.000 192.550,188.325 193.000,187.500 193.000 C 186.675 193.000,186.000 192.550,186.000 192.000 C 186.000 191.450,185.048 191.000,183.883 191.000 C 182.165 191.000,181.857 191.470,182.245 193.500 C 182.657 195.656,182.359 196.000,180.082 196.000 C 178.589 196.000,176.815 196.869,176.000 198.000 C 175.207 199.100,174.019 200.000,173.360 200.000 C 171.743 200.000,166.014 203.311,166.006 204.250 C 166.003 204.662,164.875 205.000,163.500 205.000 C 162.125 205.000,161.000 205.450,161.000 206.000 C 161.000 206.550,160.100 207.000,159.000 207.000 C 157.900 207.000,157.000 207.450,157.000 208.000 C 157.000 208.550,155.875 209.000,154.500 209.000 C 152.944 209.000,152.000 209.567,152.000 210.500 C 152.000 212.388,151.257 212.400,149.400 210.542 C 147.442 208.585,144.763 209.678,145.538 212.118 C 145.999 213.572,145.633 214.000,143.932 214.000 C 142.721 214.000,140.687 215.125,139.412 216.500 C 138.138 217.875,136.399 219.000,135.548 219.000 C 134.696 219.000,134.000 219.450,134.000 220.000 C 134.000 220.550,132.875 221.000,131.500 221.000 C 130.125 221.000,129.000 221.450,129.000 222.000 C 129.000 222.550,128.100 223.000,127.000 223.000 C 125.900 223.000,125.000 223.450,125.000 224.000 C 125.000 224.550,123.875 225.000,122.500 225.000 C 120.944 225.000,120.000 225.567,120.000 226.500 C 120.000 227.333,119.111 228.000,118.000 228.000 C 116.900 228.000,116.000 228.450,116.000 229.000 C 116.000 229.550,114.875 230.000,113.500 230.000 C 112.125 230.000,111.000 230.450,111.000 231.000 C 111.000 231.550,109.713 232.000,108.140 232.000 C 106.257 232.000,104.639 232.854,103.403 234.500 C 102.369 235.877,100.509 237.000,99.263 237.000 C 98.018 237.000,97.000 237.450,97.000 238.000 C 97.000 238.550,96.100 239.000,95.000 239.000 C 93.900 239.000,93.000 239.450,93.000 240.000 C 93.000 240.550,92.086 241.000,90.969 241.000 C 89.851 241.000,88.678 241.675,88.362 242.500 C 88.045 243.325,86.934 244.000,85.893 244.000 C 84.852 244.000,84.000 244.450,84.000 245.000 C 84.000 245.550,82.875 246.000,81.500 246.000 C 80.125 246.000,79.000 246.450,79.000 247.000 C 79.000 247.550,77.875 248.000,76.500 248.000 C 74.944 248.000,74.000 248.567,74.000 249.500 C 74.000 250.333,73.111 251.000,72.000 251.000 C 70.900 251.000,70.000 251.450,70.000 252.000 C 70.000 252.550,69.068 253.000,67.929 253.000 C 65.443 253.000,63.000 255.231,63.000 257.500 C 63.000 259.769,65.443 262.000,67.929 262.000 C 69.068 262.000,70.000 262.450,70.000 263.000 C 70.000 263.550,70.900 264.000,72.000 264.000 C 73.111 264.000,74.000 264.667,74.000 265.500 C 74.000 266.433,74.944 267.000,76.500 267.000 C 77.875 267.000,79.000 267.450,79.000 268.000 C 79.000 268.550,80.125 269.000,81.500 269.000 C 82.875 269.000,84.000 269.450,84.000 270.000 C 84.000 270.550,84.852 271.000,85.893 271.000 C 86.934 271.000,88.045 271.675,88.362 272.500 C 88.678 273.325,89.851 274.000,90.969 274.000 C 92.086 274.000,93.000 274.450,93.000 275.000 C 93.000 275.550,93.900 276.000,95.000 276.000 C 96.100 276.000,97.000 276.450,97.000 277.000 C 97.000 277.550,98.125 278.000,99.500 278.000 C 100.875 278.000,102.000 278.450,102.000 279.000 C 102.000 279.550,102.900 280.000,104.000 280.000 C 105.111 280.000,106.000 280.667,106.000 281.500 C 106.000 282.433,106.944 283.000,108.500 283.000 C 109.875 283.000,111.000 283.450,111.000 284.000 C 111.000 284.550,112.125 285.000,113.500 285.000 C 114.875 285.000,116.000 285.450,116.000 286.000 C 116.000 286.550,116.900 287.000,118.000 287.000 C 119.111 287.000,120.000 287.667,120.000 288.500 C 120.000 289.325,120.675 290.000,121.500 290.000 C 122.325 290.000,123.000 290.450,123.000 291.000 C 123.000 291.550,124.350 292.000,126.000 292.000 C 127.650 292.000,129.000 292.450,129.000 293.000 C 129.000 293.550,129.895 294.000,130.989 294.000 C 133.297 294.000,137.136 296.970,136.390 298.178 C 136.110 298.630,137.034 299.000,138.441 299.000 C 139.848 299.000,141.000 299.450,141.000 300.000 C 141.000 300.550,142.575 301.000,144.500 301.000 C 146.425 301.000,148.000 301.450,148.000 302.000 C 148.000 302.550,148.900 303.000,150.000 303.000 C 151.111 303.000,152.000 303.667,152.000 304.500 C 152.000 305.395,152.920 306.000,154.279 306.000 C 155.533 306.000,157.207 306.900,158.000 308.000 C 158.834 309.157,160.589 310.000,162.162 310.000 C 163.658 310.000,165.160 310.450,165.500 311.000 C 165.840 311.550,167.216 312.000,168.559 312.000 C 170.062 312.000,171.000 312.576,171.000 313.500 C 171.000 314.333,171.889 315.000,173.000 315.000 C 174.100 315.000,175.000 315.450,175.000 316.000 C 175.000 316.550,175.895 317.000,176.989 317.000 C 179.088 317.000,183.163 319.927,182.518 320.971 C 182.309 321.309,183.570 321.693,185.319 321.824 C 187.069 321.956,188.650 322.499,188.833 323.032 C 189.017 323.564,190.029 324.000,191.083 324.000 C 192.137 324.000,193.000 324.450,193.000 325.000 C 193.000 325.550,193.675 326.000,194.500 326.000 C 195.325 326.000,196.000 326.450,196.000 327.000 C 196.000 327.550,196.900 328.000,198.000 328.000 C 199.111 328.000,200.000 328.667,200.000 329.500 C 200.000 330.548,201.056 331.000,203.500 331.000 C 206.981 331.000,207.000 330.976,207.000 326.500 C 207.000 324.025,206.550 322.000,206.000 322.000 C 205.450 322.000,205.000 320.875,205.000 319.500 C 205.000 318.125,204.550 317.000,204.000 317.000 C 203.450 317.000,203.000 315.425,203.000 313.500 C 203.000 311.056,202.548 310.000,201.500 310.000 C 200.667 310.000,200.000 309.111,200.000 308.000 C 200.000 306.900,199.550 306.000,199.000 306.000 C 198.450 306.000,198.000 304.425,198.000 302.500 C 198.000 300.575,197.550 299.000,197.000 299.000 C 196.450 299.000,196.000 297.875,196.000 296.500 C 196.000 294.944,195.433 294.000,194.500 294.000 C 193.452 294.000,193.000 292.944,193.000 290.500 C 193.000 288.575,192.550 287.000,192.000 287.000 C 191.450 287.000,191.000 286.550,191.000 286.000 C 191.000 285.343,213.833 285.000,257.500 285.000 L 324.000 285.000 324.000 288.500 C 324.000 290.425,323.550 292.000,323.000 292.000 C 322.450 292.000,322.000 292.900,322.000 294.000 C 322.000 295.111,321.333 296.000,320.500 296.000 C 319.576 296.000,319.000 296.938,319.000 298.441 C 319.000 299.784,318.550 301.160,318.000 301.500 C 317.450 301.840,317.000 302.991,317.000 304.059 C 317.000 305.127,316.550 306.000,316.000 306.000 C 315.450 306.000,315.000 307.302,315.000 308.893 C 315.000 310.542,314.355 312.034,313.500 312.362 C 312.623 312.698,312.000 314.197,312.000 315.969 C 312.000 317.636,311.550 319.000,311.000 319.000 C 310.450 319.000,310.000 320.125,310.000 321.500 C 310.000 322.875,309.550 324.000,309.000 324.000 C 308.450 324.000,308.000 325.575,308.000 327.500 C 308.000 330.833,308.167 331.000,311.500 331.000 C 313.944 331.000,315.000 330.548,315.000 329.500 C 315.000 328.667,315.889 328.000,317.000 328.000 C 318.100 328.000,319.000 327.550,319.000 327.000 C 319.000 326.450,320.125 326.000,321.500 326.000 C 322.875 326.000,324.000 325.550,324.000 325.000 C 324.000 324.450,324.900 324.000,326.000 324.000 C 327.100 324.000,328.000 323.550,328.000 323.000 C 328.000 322.450,328.914 322.000,330.031 322.000 C 331.149 322.000,332.322 321.325,332.638 320.500 C 332.955 319.675,334.291 319.000,335.607 319.000 C 336.923 319.000,338.000 318.550,338.000 318.000 C 338.000 317.450,338.900 317.000,340.000 317.000 C 341.100 317.000,342.000 316.550,342.000 316.000 C 342.000 315.450,342.837 315.000,343.860 315.000 C 344.883 315.000,346.565 313.875,347.597 312.500 C 348.879 310.793,350.439 310.000,352.517 310.000 C 354.411 310.000,356.102 309.246,357.000 308.000 C 357.937 306.700,359.589 306.000,361.721 306.000 C 363.969 306.000,365.000 305.528,365.000 304.500 C 365.000 303.605,365.920 303.000,367.279 303.000 C 368.533 303.000,370.207 302.100,371.000 301.000 C 371.793 299.900,373.256 299.000,374.252 299.000 C 375.248 299.000,376.322 298.325,376.638 297.500 C 376.955 296.675,378.066 296.000,379.107 296.000 C 380.148 296.000,381.000 295.550,381.000 295.000 C 381.000 294.450,382.125 294.000,383.500 294.000 C 384.875 294.000,386.000 293.550,386.000 293.000 C 386.000 292.450,386.900 292.000,388.000 292.000 C 389.100 292.000,390.000 291.550,390.000 291.000 C 390.000 290.450,391.125 290.000,392.500 290.000 C 394.056 290.000,395.000 289.433,395.000 288.500 C 395.000 287.667,395.889 287.000,397.000 287.000 C 398.100 287.000,399.000 286.550,399.000 286.000 C 399.000 285.450,400.125 285.000,401.500 285.000 C 402.875 285.000,404.000 284.550,404.000 284.000 C 404.000 283.450,405.125 283.000,406.500 283.000 C 408.056 283.000,409.000 282.433,409.000 281.500 C 409.000 280.667,409.889 280.000,411.000 280.000 C 412.100 280.000,413.000 279.550,413.000 279.000 C 413.000 278.450,414.125 278.000,415.500 278.000 C 416.875 278.000,418.000 277.550,418.000 277.000 C 418.000 276.450,418.900 276.000,420.000 276.000 C 421.100 276.000,422.000 275.550,422.000 275.000 C 422.000 274.450,422.914 274.000,424.031 274.000 C 425.149 274.000,426.322 273.325,426.638 272.500 C 426.955 271.675,428.066 271.000,429.107 271.000 C 430.148 271.000,431.000 270.550,431.000 270.000 C 431.000 269.450,432.125 269.000,433.500 269.000 C 434.875 269.000,436.000 268.550,436.000 268.000 C 436.000 267.450,437.125 267.000,438.500 267.000 C 440.056 267.000,441.000 266.433,441.000 265.500 C 441.000 264.667,441.889 264.000,443.000 264.000 C 444.100 264.000,445.000 263.550,445.000 263.000 C 445.000 262.450,446.125 262.000,447.500 262.000 C 448.875 262.000,450.000 261.550,450.000 261.000 C 450.000 260.450,450.900 260.000,452.000 260.000 C 453.467 260.000,454.000 259.333,454.000 257.500 C 454.000 255.667,453.467 255.000,452.000 255.000 C 450.900 255.000,450.000 254.550,450.000 254.000 C 450.000 253.450,448.875 253.000,447.500 253.000 C 446.125 253.000,445.000 252.550,445.000 252.000 C 445.000 251.450,444.100 251.000,443.000 251.000 C 441.889 251.000,441.000 250.333,441.000 249.500 C 441.000 248.567,440.056 248.000,438.500 248.000 C 437.125 248.000,436.000 247.550,436.000 247.000 C 436.000 246.450,434.875 246.000,433.500 246.000 C 432.125 246.000,431.000 245.550,431.000 245.000 C 431.000 244.450,430.148 244.000,429.107 244.000 C 428.066 244.000,426.955 243.325,426.638 242.500 C 426.322 241.675,425.248 241.000,424.252 241.000 C 423.256 241.000,421.793 240.100,421.000 239.000 C 420.102 237.754,418.411 237.000,416.517 237.000 C 414.439 237.000,412.879 236.207,411.597 234.500 C 410.361 232.854,408.743 232.000,406.860 232.000 C 405.287 232.000,404.000 231.550,404.000 231.000 C 404.000 230.450,402.875 230.000,401.500 230.000 C 400.125 230.000,399.000 229.550,399.000 229.000 C 399.000 228.450,398.100 228.000,397.000 228.000 C 395.889 228.000,395.000 227.333,395.000 226.500 C 395.000 225.567,394.056 225.000,392.500 225.000 C 391.125 225.000,390.000 224.550,390.000 224.000 C 390.000 223.450,389.100 223.000,388.000 223.000 C 386.900 223.000,386.000 222.550,386.000 222.000 C 386.000 221.450,385.325 221.000,384.500 221.000 C 383.675 221.000,383.000 220.550,383.000 220.000 C 383.000 219.450,382.100 219.000,381.000 219.000 C 379.900 219.000,379.000 218.421,379.000 217.713 C 379.000 217.005,377.994 216.350,376.765 216.257 C 375.535 216.165,374.373 215.619,374.181 215.044 C 373.990 214.470,372.971 214.000,371.917 214.000 C 370.863 214.000,370.000 213.550,370.000 213.000 C 370.000 212.450,368.875 212.000,367.500 212.000 C 365.944 212.000,365.000 211.433,365.000 210.500 C 365.000 209.567,364.056 209.000,362.500 209.000 C 361.125 209.000,360.000 208.550,360.000 208.000 C 360.000 207.450,359.100 207.000,358.000 207.000 C 356.900 207.000,356.000 206.550,356.000 206.000 C 356.000 205.450,354.762 204.986,353.250 204.968 C 350.247 204.933,347.000 202.945,347.000 201.140 C 347.000 200.513,345.875 200.000,344.500 200.000 C 343.125 200.000,342.000 199.550,342.000 199.000 C 342.000 198.450,341.100 198.000,340.000 198.000 C 338.900 198.000,338.000 197.550,338.000 197.000 C 338.000 196.450,336.875 196.000,335.500 196.000 C 333.944 196.000,333.000 195.433,333.000 194.500 C 333.000 193.567,332.056 193.000,330.500 193.000 C 329.125 193.000,328.000 192.550,328.000 192.000 C 328.000 191.450,327.100 191.000,326.000 191.000 C 324.900 191.000,324.000 190.550,324.000 190.000 C 324.000 189.450,322.875 189.000,321.500 189.000 C 320.125 189.000,319.000 188.550,319.000 188.000 C 319.000 187.450,318.100 187.000,317.000 187.000 C 315.889 187.000,315.000 186.333,315.000 185.500 C 315.000 184.452,313.944 184.000,311.500 184.000 C 308.167 184.000,308.000 184.167,308.000 187.500 C 308.000 189.425,308.450 191.000,309.000 191.000 C 309.550 191.000,310.000 192.125,310.000 193.500 C 310.000 194.875,310.450 196.000,311.000 196.000 C 311.550 196.000,312.000 197.364,312.000 199.031 C 312.000 200.803,312.623 202.302,313.500 202.638 C 314.325 202.955,315.000 204.066,315.000 205.107 C 315.000 206.148,315.450 207.000,316.000 207.000 C 316.550 207.000,317.000 208.125,317.000 209.500 C 317.000 210.875,317.450 212.000,318.000 212.000 C 318.550 212.000,319.000 213.575,319.000 215.500 C 319.000 217.944,319.452 219.000,320.500 219.000 C 321.333 219.000,322.000 219.889,322.000 221.000 C 322.000 222.100,322.450 223.000,323.000 223.000 C 323.550 223.000,324.000 224.575,324.000 226.500 L 324.000 230.000 257.500 230.000 C 213.833 230.000,191.000 229.657,191.000 229.000 C 191.000 228.450,191.450 228.000,192.000 228.000 C 192.550 228.000,193.000 226.425,193.000 224.500 C 193.000 222.056,193.452 221.000,194.500 221.000 C 195.433 221.000,196.000 220.056,196.000 218.500 C 196.000 217.125,196.450 216.000,197.000 216.000 C 197.550 216.000,198.000 214.425,198.000 212.500 C 198.000 210.575,198.394 209.000,198.875 209.000 C 199.356 209.000,200.026 207.620,200.363 205.934 C 200.701 204.247,201.336 203.090,201.776 203.362 C 202.216 203.633,202.675 202.651,202.796 201.178 C 202.918 199.705,203.463 198.350,204.009 198.167 C 204.554 197.983,205.000 196.746,205.000 195.417 C 205.000 194.088,205.450 193.000,206.000 193.000 C 206.550 193.000,207.000 190.975,207.000 188.500 C 207.000 183.009,202.846 181.915,199.403 186.500 M216.000 311.108 C 216.000 311.534,216.457 312.165,217.016 312.510 C 217.575 312.856,217.774 313.557,217.457 314.069 C 217.141 314.581,217.921 314.964,219.191 314.921 C 220.461 314.878,220.919 314.609,220.208 314.324 C 219.216 313.926,219.187 313.480,220.081 312.403 C 220.721 311.631,221.077 310.962,220.872 310.917 C 218.531 310.393,216.000 310.492,216.000 311.108 " stroke="none" fill="#000000" fill-rule="evenodd"></path></g></svg>