<svg id="svg" version="1.1" width="515" height="515" xmlns="http://www.w3.org/2000/svg" xmlns:xlink="http://www.w3.org/1999/xlink" style="display: block;"><g id="svgg"><path id="path0" d="M301.000 18.000 C 301.000 18.550,298.525 19.000,295.500 19.000 C 291.278 19.000,290.000 19.348,290.000 20.500 C 290.000 21.667,288.667 22.000,284.000 22.000 C 280.667 22.000,278.000 22.444,278.000 23.000 C 278.000 23.550,275.525 24.000,272.500 24.000 C 269.475 24.000,267.000 24.450,267.000 25.000 C 267.000 25.556,264.333 26.000,261.000 26.000 C 256.333 26.000,255.000 26.333,255.000 27.500 C 255.000 28.652,253.722 29.000,249.500 29.000 C 246.475 29.000,244.000 29.450,244.000 30.000 C 244.000 30.556,241.333 31.000,238.000 31.000 C 234.667 31.000,232.000 31.444,232.000 32.000 C 232.000 32.550,229.525 33.000,226.500 33.000 C 223.475 33.000,221.000 33.450,221.000 34.000 C 221.000 34.565,218.156 35.000,214.469 35.000 C 209.585 35.000,207.792 35.379,207.362 36.500 C 206.948 37.577,205.264 38.000,201.393 38.000 C 198.427 38.000,196.000 38.450,196.000 39.000 C 196.000 39.556,193.333 40.000,190.000 40.000 C 186.667 40.000,184.000 40.444,184.000 41.000 C 184.000 41.550,181.525 42.000,178.500 42.000 C 174.278 42.000,173.000 42.348,173.000 43.500 C 173.000 44.667,171.667 45.000,167.000 45.000 C 163.667 45.000,161.000 45.444,161.000 46.000 C 161.000 46.550,158.525 47.000,155.500 47.000 C 152.475 47.000,150.000 47.450,150.000 48.000 C 150.000 48.550,147.511 49.000,144.469 49.000 C 140.474 49.000,138.777 49.417,138.362 50.500 C 137.948 51.577,136.264 52.000,132.393 52.000 C 129.427 52.000,127.000 52.450,127.000 53.000 C 127.000 53.550,124.525 54.000,121.500 54.000 C 118.475 54.000,116.000 54.450,116.000 55.000 C 116.000 55.556,113.333 56.000,110.000 56.000 C 106.667 56.000,104.000 56.444,104.000 57.000 C 104.000 57.550,101.525 58.000,98.500 58.000 C 94.278 58.000,93.000 58.348,93.000 59.500 C 93.000 60.667,91.667 61.000,87.000 61.000 C 83.667 61.000,81.000 61.444,81.000 62.000 C 81.000 62.550,78.525 63.000,75.500 63.000 C 72.475 63.000,70.000 63.450,70.000 64.000 C 70.000 64.556,67.333 65.000,64.000 65.000 C 59.333 65.000,58.000 65.333,58.000 66.500 C 58.000 67.652,56.722 68.000,52.500 68.000 C 49.475 68.000,47.000 68.450,47.000 69.000 C 47.000 69.556,44.333 70.000,41.000 70.000 C 37.667 70.000,35.000 70.444,35.000 71.000 C 35.000 71.550,32.718 72.000,29.929 72.000 C 26.867 72.000,24.291 72.566,23.429 73.429 C 22.200 74.657,22.000 101.667,22.000 265.929 L 22.000 457.000 27.500 457.000 C 30.525 457.000,33.000 457.450,33.000 458.000 C 33.000 458.571,36.000 459.000,40.000 459.000 C 44.000 459.000,47.000 459.429,47.000 460.000 C 47.000 460.571,50.000 461.000,54.000 461.000 C 58.000 461.000,61.000 461.429,61.000 462.000 C 61.000 462.550,63.475 463.000,66.500 463.000 C 70.722 463.000,72.000 463.348,72.000 464.500 C 72.000 465.690,73.444 466.000,79.000 466.000 C 83.000 466.000,86.000 466.429,86.000 467.000 C 86.000 467.571,89.000 468.000,93.000 468.000 C 97.000 468.000,100.000 468.429,100.000 469.000 C 100.000 469.564,102.833 470.000,106.500 470.000 C 111.611 470.000,113.000 470.321,113.000 471.500 C 113.000 472.690,114.444 473.000,120.000 473.000 C 124.000 473.000,127.000 473.429,127.000 474.000 C 127.000 474.571,130.000 475.000,134.000 475.000 C 138.000 475.000,141.000 475.429,141.000 476.000 C 141.000 476.571,144.000 477.000,148.000 477.000 C 153.556 477.000,155.000 477.310,155.000 478.500 C 155.000 479.679,156.389 480.000,161.500 480.000 C 165.167 480.000,168.000 480.436,168.000 481.000 C 168.000 481.571,171.000 482.000,175.000 482.000 C 179.000 482.000,182.000 482.429,182.000 483.000 C 182.000 483.571,185.000 484.000,189.000 484.000 C 193.000 484.000,196.000 484.429,196.000 485.000 C 196.000 485.564,198.833 486.000,202.500 486.000 C 207.611 486.000,209.000 486.321,209.000 487.500 C 209.000 488.690,210.444 489.000,216.000 489.000 C 220.000 489.000,223.000 489.429,223.000 490.000 C 223.000 490.571,226.000 491.000,230.000 491.000 C 234.000 491.000,237.000 491.429,237.000 492.000 C 237.000 492.571,240.000 493.000,244.000 493.000 C 249.556 493.000,251.000 493.310,251.000 494.500 C 251.000 495.679,252.389 496.000,257.500 496.000 C 261.167 496.000,264.000 496.436,264.000 497.000 C 264.000 497.571,267.000 498.000,271.000 498.000 C 275.000 498.000,278.000 498.429,278.000 499.000 C 278.000 499.556,280.667 500.000,284.000 500.000 C 287.333 500.000,290.000 500.444,290.000 501.000 C 290.000 501.564,292.833 502.000,296.500 502.000 C 301.611 502.000,303.000 502.321,303.000 503.500 C 303.000 504.433,303.944 505.000,305.500 505.000 L 308.000 505.000 308.000 261.000 L 308.000 17.000 304.500 17.000 C 302.575 17.000,301.000 17.450,301.000 18.000 M338.000 110.000 C 338.000 110.550,336.425 111.000,334.500 111.000 C 332.575 111.000,331.000 111.450,331.000 112.000 C 331.000 112.550,329.875 113.000,328.500 113.000 C 327.125 113.000,326.000 113.482,326.000 114.071 C 326.000 115.682,323.360 118.000,321.526 118.000 C 320.637 118.000,318.805 119.105,317.455 120.455 L 315.000 122.909 315.000 153.455 C 315.000 173.152,315.355 184.000,316.000 184.000 C 316.550 184.000,317.000 184.482,317.000 185.071 C 317.000 186.348,319.503 189.000,320.708 189.000 C 321.176 189.000,322.207 189.900,323.000 191.000 C 323.793 192.100,325.194 193.000,326.114 193.000 C 327.034 193.000,328.045 193.675,328.362 194.500 C 328.698 195.377,330.197 196.000,331.969 196.000 C 333.636 196.000,335.000 196.450,335.000 197.000 C 335.000 197.550,337.025 198.000,339.500 198.000 C 341.975 198.000,344.000 198.450,344.000 199.000 C 344.000 199.550,346.250 200.000,349.000 200.000 C 351.750 200.000,354.000 199.550,354.000 199.000 C 354.000 198.450,356.475 198.000,359.500 198.000 C 362.525 198.000,365.000 197.550,365.000 197.000 C 365.000 196.450,366.125 196.000,367.500 196.000 C 369.056 196.000,370.000 195.433,370.000 194.500 C 370.000 193.667,370.889 193.000,372.000 193.000 C 373.100 193.000,374.000 192.550,374.000 192.000 C 374.000 191.450,374.920 191.000,376.045 191.000 C 378.174 191.000,383.000 186.868,383.000 185.045 C 383.000 184.470,383.482 184.000,384.071 184.000 C 385.836 184.000,388.000 181.285,388.000 179.071 C 388.000 177.932,388.450 177.000,389.000 177.000 C 389.550 177.000,390.000 176.100,390.000 175.000 C 390.000 173.889,390.667 173.000,391.500 173.000 C 392.433 173.000,393.000 172.056,393.000 170.500 C 393.000 169.125,393.450 168.000,394.000 168.000 C 394.617 168.000,395.000 162.833,395.000 154.500 C 395.000 146.167,394.617 141.000,394.000 141.000 C 393.450 141.000,393.000 139.425,393.000 137.500 C 393.000 135.056,392.548 134.000,391.500 134.000 C 390.656 134.000,390.000 133.106,390.000 131.955 C 390.000 129.826,385.868 125.000,384.045 125.000 C 383.470 125.000,383.000 124.535,383.000 123.967 C 383.000 122.622,376.378 116.000,375.033 116.000 C 374.465 116.000,374.000 115.325,374.000 114.500 C 374.000 113.667,373.111 113.000,372.000 113.000 C 370.900 113.000,370.000 112.550,370.000 112.000 C 370.000 111.450,368.425 111.000,366.500 111.000 C 364.575 111.000,363.000 110.550,363.000 110.000 C 363.000 109.387,358.167 109.000,350.500 109.000 C 342.833 109.000,338.000 109.387,338.000 110.000 M457.000 133.000 C 457.000 133.550,454.750 134.000,452.000 134.000 C 449.250 134.000,447.000 134.450,447.000 135.000 C 447.000 135.550,445.650 136.000,444.000 136.000 C 442.350 136.000,441.000 136.450,441.000 137.000 C 441.000 137.550,440.163 138.000,439.140 138.000 C 438.117 138.000,436.435 139.125,435.403 140.500 C 434.370 141.875,433.150 143.000,432.691 143.000 C 431.724 143.000,429.000 145.564,429.000 146.474 C 429.000 147.509,424.161 152.000,423.045 152.000 C 422.470 152.000,422.000 153.125,422.000 154.500 C 422.000 155.875,421.550 157.000,421.000 157.000 C 420.450 157.000,420.000 158.575,420.000 160.500 C 420.000 162.425,419.550 164.000,419.000 164.000 C 418.450 164.000,418.000 166.025,418.000 168.500 C 418.000 171.833,417.611 173.000,416.500 173.000 C 415.348 173.000,415.000 174.278,415.000 178.500 C 415.000 182.722,415.348 184.000,416.500 184.000 C 417.611 184.000,418.000 185.167,418.000 188.500 C 418.000 190.975,418.450 193.000,419.000 193.000 C 419.550 193.000,420.000 194.125,420.000 195.500 C 420.000 196.875,420.450 198.000,421.000 198.000 C 421.550 198.000,422.000 199.125,422.000 200.500 C 422.000 202.056,422.567 203.000,423.500 203.000 C 424.325 203.000,425.000 203.801,425.000 204.779 C 425.000 205.758,425.900 207.207,427.000 208.000 C 428.100 208.793,429.000 209.824,429.000 210.292 C 429.000 211.497,431.652 214.000,432.929 214.000 C 433.518 214.000,434.000 214.450,434.000 215.000 C 434.000 215.550,434.900 216.000,436.000 216.000 C 437.111 216.000,438.000 216.667,438.000 217.500 C 438.000 218.433,438.944 219.000,440.500 219.000 C 441.875 219.000,443.000 219.450,443.000 220.000 C 443.000 220.550,444.575 221.000,446.500 221.000 C 448.425 221.000,450.000 221.450,450.000 222.000 C 450.000 222.613,454.833 223.000,462.500 223.000 C 470.167 223.000,475.000 222.613,475.000 222.000 C 475.000 221.450,476.575 221.000,478.500 221.000 C 480.425 221.000,482.000 220.550,482.000 220.000 C 482.000 219.450,482.900 219.000,484.000 219.000 C 485.111 219.000,486.000 218.333,486.000 217.500 C 486.000 216.675,486.470 216.000,487.045 216.000 C 488.403 216.000,493.000 211.403,493.000 210.045 C 493.000 209.470,493.465 209.000,494.033 209.000 C 495.887 209.000,502.000 202.120,502.000 200.033 C 502.000 198.893,502.658 198.000,503.500 198.000 C 504.548 198.000,505.000 196.944,505.000 194.500 C 505.000 192.575,505.450 191.000,506.000 191.000 C 506.613 191.000,507.000 186.167,507.000 178.500 C 507.000 170.833,506.613 166.000,506.000 166.000 C 505.450 166.000,505.000 164.425,505.000 162.500 C 505.000 160.056,504.548 159.000,503.500 159.000 C 502.667 159.000,502.000 158.111,502.000 157.000 C 502.000 155.900,501.550 155.000,501.000 155.000 C 500.450 155.000,500.000 154.079,500.000 152.952 C 500.000 150.293,490.707 141.000,488.048 141.000 C 486.921 141.000,486.000 140.518,486.000 139.929 C 486.000 137.898,483.135 136.000,480.071 136.000 C 478.382 136.000,477.000 135.550,477.000 135.000 C 477.000 134.450,474.975 134.000,472.500 134.000 C 470.025 134.000,468.000 133.550,468.000 133.000 C 468.000 132.450,465.525 132.000,462.500 132.000 C 459.475 132.000,457.000 132.450,457.000 133.000 M239.000 182.000 L 239.000 203.000 223.000 203.000 C 213.000 203.000,207.000 203.375,207.000 204.000 C 207.000 204.617,201.833 205.000,193.500 205.000 L 180.000 205.000 180.000 286.000 L 180.000 367.000 160.500 367.000 L 141.000 367.000 141.000 287.000 L 141.000 207.000 115.500 207.000 L 90.000 207.000 90.000 187.500 L 90.000 168.000 104.000 168.000 C 112.667 168.000,118.000 167.619,118.000 167.000 C 118.000 166.361,126.667 166.000,142.000 166.000 C 157.333 166.000,166.000 165.639,166.000 165.000 C 166.000 164.364,173.833 164.000,187.500 164.000 C 205.944 164.000,209.000 163.787,209.000 162.500 C 209.000 161.233,211.333 161.000,224.000 161.000 L 239.000 161.000 239.000 182.000 M317.000 316.000 L 317.000 413.000 342.000 413.000 C 358.000 413.000,367.000 412.640,367.000 412.000 C 367.000 411.450,368.575 411.000,370.500 411.000 C 372.425 411.000,374.000 410.550,374.000 410.000 C 374.000 409.450,375.125 409.000,376.500 409.000 C 378.056 409.000,379.000 408.433,379.000 407.500 C 379.000 406.667,379.889 406.000,381.000 406.000 C 382.100 406.000,383.000 405.550,383.000 405.000 C 383.000 404.450,383.932 404.000,385.071 404.000 C 387.285 404.000,390.000 401.836,390.000 400.071 C 390.000 399.482,390.470 399.000,391.045 399.000 C 392.868 399.000,397.000 394.174,397.000 392.045 C 397.000 390.920,397.450 390.000,398.000 390.000 C 398.550 390.000,399.000 389.100,399.000 388.000 C 399.000 386.889,399.667 386.000,400.500 386.000 C 401.548 386.000,402.000 384.944,402.000 382.500 C 402.000 380.575,402.450 379.000,403.000 379.000 C 403.658 379.000,404.000 351.667,404.000 299.000 L 404.000 219.000 360.500 219.000 L 317.000 219.000 317.000 316.000 M418.000 310.500 L 418.000 377.000 441.531 377.000 C 461.526 377.000,465.149 376.775,465.638 375.500 C 466.029 374.482,467.625 374.000,470.607 374.000 C 473.023 374.000,475.000 373.550,475.000 373.000 C 475.000 372.450,475.873 372.000,476.941 372.000 C 478.009 372.000,479.160 371.550,479.500 371.000 C 479.840 370.450,480.991 370.000,482.059 370.000 C 483.127 370.000,484.000 369.518,484.000 368.929 C 484.000 367.309,486.645 365.000,488.500 365.000 C 490.355 365.000,493.000 362.691,493.000 361.071 C 493.000 360.482,493.675 360.000,494.500 360.000 C 495.325 360.000,496.000 359.199,496.000 358.221 C 496.000 357.242,496.900 355.793,498.000 355.000 C 499.100 354.207,500.000 352.533,500.000 351.279 C 500.000 350.026,500.450 349.000,501.000 349.000 C 501.654 349.000,502.000 330.833,502.000 296.500 L 502.000 244.000 460.000 244.000 L 418.000 244.000 418.000 310.500 " stroke="none" fill="#000000" fill-rule="evenodd"></path></g></svg>