<?xml version="1.0" encoding="UTF-8" standalone="no"?>
<svg
   xmlns:dc="http://purl.org/dc/elements/1.1/"
   xmlns:cc="http://creativecommons.org/ns#"
   xmlns:rdf="http://www.w3.org/1999/02/22-rdf-syntax-ns#"
   xmlns:svg="http://www.w3.org/2000/svg"
   xmlns="http://www.w3.org/2000/svg"
   xmlns:sodipodi="http://sodipodi.sourceforge.net/DTD/sodipodi-0.dtd"
   xmlns:inkscape="http://www.inkscape.org/namespaces/inkscape"
   id="svg"
   version="1.1"
   width="400"
   height="400"
   style="display: block;"
   sodipodi:docname="testflight.svg"
   inkscape:version="0.92.2 (5c3e80d, 2017-08-06)">
  <metadata
     id="metadata9">
    <rdf:RDF>
      <cc:Work
         rdf:about="">
        <dc:format>image/svg+xml</dc:format>
        <dc:type
           rdf:resource="http://purl.org/dc/dcmitype/StillImage" />
      </cc:Work>
    </rdf:RDF>
  </metadata>
  <defs
     id="defs7" />
  <sodipodi:namedview
     pagecolor="#ffffff"
     bordercolor="#666666"
     borderopacity="1"
     objecttolerance="10"
     gridtolerance="10"
     guidetolerance="10"
     inkscape:pageopacity="0"
     inkscape:pageshadow="2"
     inkscape:window-width="1920"
     inkscape:window-height="1027"
     id="namedview5"
     showgrid="false"
     inkscape:zoom="3.337544"
     inkscape:cx="254.65293"
     inkscape:cy="127.4845"
     inkscape:window-x="1912"
     inkscape:window-y="-8"
     inkscape:window-maximized="1"
     inkscape:current-layer="svgg" />
  <g
     id="svgg">
    <path
       id="path0"
       d="m 184.29,33 c -0.587,2.242 -2.299,2.591 -4.063,0.827 -0.898,-0.898 -1.03,0.041 -0.561,4 0.518,4.376 0.36,5.173 -1.027,5.173 C 177.157,43 177,45.862 177,72.937 v 29.936 l -3.25,0.404 -3.25,0.403 3.25,0.16 3.25,0.16 v 6 c 0,3.333 -0.444,6 -1,6 -0.55,0 -1,0.45 -1,1 0,0.55 0.675,1 1.5,1 0.825,0 1.5,-0.45 1.5,-1 0,-0.55 0.45,-1 1,-1 0.634,0 1,7.461 1,20.383 0,19.543 0.083,20.405 2,20.907 1.875,0.49 2,1.364 2,14.009 0,11.066 0.269,13.59 1.5,14.063 2.878,1.104 1.988,8.638 -1.021,8.638 -1.72,0 -2.884,0.796 -3.661,2.5 -0.732,1.606 -1.957,2.5 -3.427,2.5 -2.419,0 -7.391,3.945 -7.391,5.865 0,0.624 -0.675,1.135 -1.5,1.135 -0.825,0 -1.5,0.675 -1.5,1.5 0,0.825 -0.675,1.5 -1.5,1.5 -0.825,0 -1.5,0.645 -1.5,1.433 0,0.788 -0.9,1.718 -2,2.067 -1.401,0.445 -2,1.513 -2,3.567 0,3.029 -3.348,4.39 -4.237,1.722 -0.222,-0.666 -0.509,3.196 -0.638,8.582 -0.152,6.365 0.178,10.289 0.943,11.211 1.271,1.531 0.568,1.808 -3.731,1.468 -1.399,-0.11 -2.395,0.558 -2.818,1.89 -0.682,2.15 -6.519,3.099 -6.519,1.06 0,-0.55 -0.675,-1 -1.5,-1 -0.825,0 -1.5,0.675 -1.5,1.5 0,0.825 0.45,1.5 1,1.5 3.451,0 0.126,1.947 -3.75,2.195 -4.053,0.26 -4.797,0.635 -5.07,2.555 -0.282,1.986 -0.898,2.25 -5.25,2.25 -2.711,0 -4.93,0.45 -4.93,1 0,0.55 -1.361,1 -3.025,1 -2.34,0 -3.249,0.591 -4.016,2.609 -0.821,2.157 -1.248,2.396 -2.47,1.382 -0.813,-0.674 -2.605,-1.011 -3.983,-0.747 -4.18929,-1.21135 -4.69663,4.42252 -7.537,4.756 -1.772,0 -3.271,0.623 -3.607,1.5 -0.732,1.907 -9.972,2.124 -10.642,0.25 -0.259,-0.727 -0.817,-0.879 -1.333,-0.363 -0.516,0.516 -0.364,1.074 0.363,1.333 3.001,1.072 1.314,4.28 -2.25,4.28 -2.444,0 -3.5,0.452 -3.5,1.5 0,1 -1,1.5 -3,1.5 -1.65,0 -3,-0.45 -3,-1 0,-0.55 -0.675,-1 -1.5,-1 -0.825,0 -1.5,0.45 -1.5,1 0,0.55 0.45,1 1,1 0.55,0 1,0.834 1,1.853 0,1.621 -0.626,1.793 -5,1.373 -4.584,-0.44 -5,-0.303 -5,1.647 0,1.764 -0.597,2.127 -3.5,2.127 -1.925,0 -3.5,-0.45 -3.5,-1 0,-0.55 -0.675,-1 -1.5,-1 -1.944,0 -1.944,1.893 0,2.638 3.565,1.368 1.277,2.615 -3.75,2.044 -4.226,-0.48 -4.94,-0.361 -3.662,0.611 2.148,1.633 1.273,3.707 -1.564,3.707 -1.271,0 -2.569,0.675 -2.886,1.5 -0.334,0.872 -1.831,1.5 -3.571,1.5 -1.903,0 -3.362,0.682 -3.996,1.868 -0.704,1.314 -1.748,1.725 -3.523,1.386 -1.796,-0.343 -2.721,0.033 -3.209,1.305 C 27.118,295.741 24.071,298 21,298 c -2.533,0 -3,0.389 -3,2.5 0,1.833 -0.533,2.5 -2,2.5 -2.97,0 -3.08,16.484 -0.115,17.26 1.437,0.376 1.763,1.13 1.372,3.176 -0.407,2.13 -0.074,2.799 1.615,3.241 2.232,0.583 3.27,7.323 1.128,7.323 -0.55,0 -1,0.45 -1,1 0,1.39 2.747,1.259 3.218,-0.153 0.227,-0.683 1.467,-0.071 3.038,1.5 4.111,4.111 19.744,3.745 19.744,-0.464 0,-2.236 7.502,-2.809 8.28,-0.633 0.259,0.727 0.817,0.879 1.333,0.363 0.516,-0.516 0.364,-1.074 -0.363,-1.333 -3.696,-1.32 -1.102,-3.534 3.5,-2.988 2.612,0.311 4.188,0.334 3.5,0.053 -2.958,-1.21 -1.334,-4.345 2.25,-4.345 2.444,0 3.5,-0.452 3.5,-1.5 0,-0.987 0.987,-1.5 2.883,-1.5 2.04,0 3.036,-0.584 3.405,-1.994 0.428,-1.637 1.076,-1.883 3.617,-1.375 2.683,0.537 3.095,0.336 3.095,-1.506 0,-1.762 0.598,-2.125 3.5,-2.125 2.569,0 3.5,-0.434 3.5,-1.63 0,-1.34 0.8,-1.54 4.5,-1.123 2.475,0.279 4.5,0.113 4.5,-0.37 0,-0.482 -0.436,-0.877 -0.969,-0.877 -0.532,0 -0.709,-0.675 -0.393,-1.5 0.32,-0.833 1.806,-1.5 3.34,-1.5 2.029,0 3.394,-0.92 5.134,-3.459 1.832,-2.673 2.868,-3.333 4.563,-2.908 1.536,0.386 2.585,-0.077 3.5,-1.541 1.37,-2.195 6.198,-2.915 7.325,-1.092 0.934,1.511 2.5,1.198 2.5,-0.5 0,-0.825 -0.45,-1.5 -1,-1.5 -1.577,0 -1.165,-2.999 0.5,-3.638 0.825,-0.317 1.5,-1.203 1.5,-1.969 0,-0.919 1.163,-1.393 3.417,-1.393 1.879,0 3.566,-0.379 3.75,-0.841 0.703,-1.777 6.683,-2.173 7.017,-0.465 0.289,1.478 0.434,1.475 1.688,-0.038 1.181,-1.425 1.146,-1.656 -0.25,-1.656 -0.955,0 -1.622,-0.822 -1.622,-2 0,-1.111 0.667,-2 1.5,-2 0.825,0 1.5,-0.675 1.5,-1.5 0,-1.048 1.056,-1.5 3.5,-1.5 1.925,0 3.5,0.45 3.5,1 0,0.55 0.675,1 1.5,1 1.771,0 2.017,-1.661 0.331,-2.223 -3.092,-1.031 1.498,-6.777 5.413,-6.777 2.066,0 3.756,-0.427 3.756,-0.948 0,-2.296 4.678,-5.949 6.88,-5.373 1.713,0.448 2.369,0.085 2.796,-1.547 0.306,-1.173 0.955,-2.132 1.441,-2.132 1.218,0 8.883,7.766 8.883,9 0,0.55 2.25,1 5,1 5.001,0 7.315,2.732 3.75,4.428 -0.687,0.327 -0.125,0.37 1.25,0.097 1.375,-0.274 6.705,-0.504 11.844,-0.511 8.496,-0.013 9.391,-0.195 9.866,-2.014 0.433,-1.656 1.364,-2 5.407,-2 3.572,0 4.883,-0.385 4.883,-1.433 0,-0.788 0.9,-1.718 2,-2.067 1.1,-0.349 2,-1.279 2,-2.067 0,-0.788 0.675,-1.433 1.5,-1.433 0.825,0 1.5,-0.675 1.5,-1.5 0,-2.269 2.689,-1.797 3.311,0.581 0.388,1.483 1.212,1.996 2.867,1.784 2.495,-0.32 6.822,2.761 6.822,4.857 0,0.794 1.326,1.278 3.5,1.278 2.323,0 3.5,0.468 3.5,1.392 0,0.765 1.125,1.674 2.5,2.019 1.375,0.345 2.5,1.294 2.5,2.108 0,0.815 0.899,1.481 1.999,1.481 1.099,0 3.853,1.8 6.12,4 2.464,2.391 5.079,4 6.502,4 1.308,0 2.379,0.45 2.379,1 0,0.55 1.35,1 3,1 2,0 3,0.5 3,1.5 0,0.825 0.666,1.5 1.481,1.5 0.814,0 1.763,1.125 2.108,2.5 0.486,1.937 1.271,2.5 3.484,2.5 1.876,0 3.241,0.719 3.977,2.094 0.767,1.432 1.762,1.927 3.146,1.565 2.053,-0.537 6.804,3.16 6.804,5.296 0,0.575 1.088,1.045 2.418,1.045 3.452,0 5.582,0.995 5.582,2.607 0,0.81 1.021,1.393 2.441,1.393 1.343,0 2.719,0.45 3.059,1 0.34,0.55 -0.084,1 -0.941,1 -0.857,0 -1.559,0.675 -1.559,1.5 0,0.825 0.675,1.5 1.5,1.5 0.825,0 1.5,-0.45 1.5,-1 0,-0.55 1.575,-1 3.5,-1 2.833,0 3.5,0.381 3.5,2 0,1.2 -0.667,2 -1.667,2 -0.916,0 -1.426,0.241 -1.132,0.535 0.294,0.294 2.446,0.105 4.782,-0.42 3.787,-0.851 4.301,-0.747 4.748,0.966 0.37,1.415 1.391,1.919 3.886,1.919 2.34,0 3.383,0.462 3.383,1.5 0,1.01 1.01,1.5 3.094,1.5 2.252,0 3.235,0.544 3.616,2 0.371,1.417 1.364,2 3.407,2 1.896,0 2.883,0.513 2.883,1.5 0,0.825 -0.45,1.5 -1,1.5 -0.55,0 -1,0.45 -1,1 0,0.55 0.675,1 1.5,1 0.825,0 1.5,-0.45 1.5,-1 0,-0.55 1.298,-1 2.883,-1 3.29,0 5.198,3.602 2.26,4.266 -0.904,0.204 4.432,0.371 11.857,0.371 7.425,0 12.761,-0.167 11.857,-0.371 -1.074,-0.243 -1.466,-1.045 -1.133,-2.319 0.569,-2.175 2.867,-2.626 3.556,-0.697 0.245,0.688 0.832,0.888 1.304,0.446 0.472,-0.443 0.243,-1.185 -0.509,-1.649 -1.705,-1.054 -0.675,-4.047 1.394,-4.047 1.034,0 1.531,-0.973 1.531,-3 0,-2 0.5,-3 1.5,-3 1.238,0 1.5,-1.833 1.5,-10.5 0,-8.667 -0.262,-10.5 -1.5,-10.5 -0.833,0 -1.5,-0.889 -1.5,-2 0,-1.1 0.45,-2 1,-2 0.55,0 1,-0.395 1,-0.877 0,-0.483 -2.025,-0.649 -4.5,-0.37 -2.978,0.336 -4.5,0.125 -4.5,-0.623 0,-0.621 0.45,-1.13 1,-1.13 0.55,0 1,-0.675 1,-1.5 0,-1.697 -2.645,-2.065 -3.186,-0.443 -0.512,1.536 -3.814,10e-4 -3.814,-1.772 0,-1.085 -0.665,-1.335 -2.396,-0.901 -1.622,0.408 -2.581,0.12 -2.968,-0.891 -0.36,-0.938 0.018,-1.493 1.018,-1.493 1.349,0 1.388,-0.245 0.255,-1.61 -0.836,-1.007 -1.474,-1.194 -1.706,-0.5 -0.586,1.758 -7.203,1.4 -7.203,-0.39 0,-1.048 -1.056,-1.5 -3.5,-1.5 -2.833,0 -3.5,-0.381 -3.5,-2 0,-1.619 -0.667,-2 -3.5,-2 -2.444,0 -3.5,-0.452 -3.5,-1.5 0,-0.996 -0.996,-1.5 -2.965,-1.5 -1.975,0 -3.335,-0.691 -4.073,-2.071 -0.893,-1.669 -1.906,-2.014 -5.21,-1.775 -4.237,0.306 -6.346,-1.551 -3.653,-3.215 0.739,-0.457 0.957,-1.192 0.485,-1.635 -0.472,-0.442 -1.059,-0.241 -1.304,0.446 -0.623,1.743 -5.773,1.566 -7.28,-0.25 -0.685,-0.825 -2.315,-1.5 -3.622,-1.5 -2.585,0 -3.449,-3.361 -1.128,-4.384 0.688,-0.303 -0.434,-0.291 -2.492,0.027 -5.249,0.809 -7.961,-0.268 -5.408,-2.148 1.018,-0.749 1.554,-1.842 1.191,-2.428 C 303.573,257.5 302,257.768 302,259.5 c 0,1.133 -1.222,1.5 -5,1.5 -4.921,0 -7.493,-2.937 -3.75,-4.283 0.688,-0.247 -0.181,-0.39 -1.931,-0.319 -1.75,0.072 -3.512,0.462 -3.917,0.866 C 286.07,258.596 285,258.033 285,256 c 0,-1.1 0.45,-2 1,-2 0.55,0 1,-0.675 1,-1.5 0,-1.698 -1.566,-2.011 -2.5,-0.5 -0.806,1.305 -9.5,1.305 -9.5,0 0,-0.55 -2.174,-1 -4.831,-1 -4.13,0 -5.025,-0.363 -6.169,-2.5 -1.144,-2.137 -2.039,-2.5 -6.169,-2.5 -3.628,0 -4.831,-0.374 -4.831,-1.5 0,-1.01 -1.01,-1.5 -3.094,-1.5 -2.3,0 -3.234,-0.538 -3.642,-2.097 -0.445,-1.702 -1.085,-1.989 -3.406,-1.525 L 240,239.95 v -8.402 c 0,-7.143 -0.257,-8.451 -1.716,-8.732 -1.38,-0.266 -1.66,-1.242 -1.43,-4.984 0.244,-3.963 -0.021,-4.75 -1.784,-5.31 C 232.994,211.863 232.124,209 234,209 c 0.55,0 1,-0.45 1,-1 0,-1.444 -2.755,-1.232 -3.254,0.25 -0.415,1.232 -8.746,-6.823 -8.746,-8.456 0,-0.437 -1.575,-0.794 -3.5,-0.794 -2.444,0 -3.5,-0.452 -3.5,-1.5 0,-0.825 -0.627,-1.5 -1.393,-1.5 -1.581,0 -2.526,-1.888 -1.876,-3.75 0.239,-0.688 1.073,-1.25 1.852,-1.25 1.165,0 1.417,-2.927 1.417,-16.465 0,-15.562 0.112,-16.525 2.045,-17.559 1.983,-1.061 2.041,-1.858 1.902,-26.253 -0.141,-24.805 0.393,-29.027 3.114,-24.624 0.457,0.739 1.192,0.957 1.635,0.485 0.442,-0.472 0.242,-1.059 -0.446,-1.304 -0.953,-0.34 -1.25,-6.12 -1.25,-24.29 0,-21.698 -0.154,-23.873 -1.71,-24.173 -1.492,-0.287 -1.672,-1.51 -1.415,-9.63 l 0.295,-9.301 -3.335,-3.432 -3.335,-3.433 -14.344,-0.01 C 185.649,31.001 184.782,31.117 184.29,33 M 212,92.356 v 31.856 l -2.5,1.967 -2.5,1.966 v 18.428 c 0,11.618 0.37,18.427 1,18.427 0.55,0 1,0.45 1,1 0,0.55 -0.9,1 -2,1 -1.1,0 -2,-0.436 -2,-0.969 0,-0.532 -0.705,-0.698 -1.567,-0.367 -1.111,0.426 -1.257,0.912 -0.5,1.669 2.112,2.112 1.346,22.451 -0.939,24.903 -1.554,1.669 -2.274,1.884 -3.2,0.958 -0.925,-0.925 -0.812,-1.194 0.506,-1.194 0.935,0 1.7,-0.675 1.7,-1.5 0,-0.825 -0.675,-1.5 -1.5,-1.5 -0.825,0 -1.5,0.45 -1.5,1 0,0.55 -0.437,1 -0.971,1 -0.565,0 -1.088,-5.539 -1.25,-13.25 -0.271,-12.882 -0.341,-13.259 -2.529,-13.57 -2.226,-0.316 -2.25,-0.49 -2.25,-16.25 -2.10885,-33.03782 -2.56103,-57.622337 -3,-66.68 V 60.5 h 12 12 v 31.856 m -33.812,65.707 c 0.24,0.721 1.028,1.509 1.75,1.75 0.75,0.25 1.125,-0.125 0.875,-0.875 -0.241,-0.722 -1.029,-1.51 -1.75,-1.75 -0.75,-0.25 -1.125,0.125 -0.875,0.875 m 0.281,34.987 c -0.95,1.538 0.351,2.53 1.635,1.246 0.718,-0.718 0.735,-1.277 0.052,-1.699 -0.56,-0.346 -1.319,-0.142 -1.687,0.453 M 215,193.5 c 0,0.825 0.675,1.5 1.5,1.5 0.825,0 1.5,-0.675 1.5,-1.5 0,-0.825 -0.675,-1.5 -1.5,-1.5 -0.825,0 -1.5,0.675 -1.5,1.5 m -13.638,11 c 0.406,1.058 2.057,1.5 5.607,1.5 3.805,0 5.031,0.365 5.031,1.5 0,0.825 -0.45,1.5 -1,1.5 -0.55,0 -1,0.395 -1,0.877 0,0.483 2.025,0.649 4.5,0.37 3.7,-0.417 4.5,-0.217 4.5,1.123 0,0.896 0.45,1.63 1,1.63 2.241,0 5.429,4.474 5.141,7.217 -0.235,2.244 0.11,2.783 1.784,2.783 1.973,0 2.075,0.535 2.075,10.918 0,11.875 -0.427,14.082 -2.724,14.082 -1.076,0 -1.37,0.727 -1.024,2.535 0.341,1.789 -0.066,2.83 -1.384,3.536 -1.027,0.549 -1.868,1.659 -1.868,2.464 0,0.806 -0.675,1.465 -1.5,1.465 -0.825,0 -1.5,0.675 -1.5,1.5 0,0.825 -0.675,1.5 -1.5,1.5 -0.825,0 -1.5,0.675 -1.5,1.5 0,1.048 -1.056,1.5 -3.5,1.5 -2.833,0 -3.5,0.381 -3.5,2 0,1.873 -0.667,2 -10.5,2 -9.7,0 -10.5,-0.147 -10.5,-1.927 0,-1.059 0.787,-2.128 1.75,-2.374 0.963,-0.246 -0.613,-0.217 -3.5,0.066 -4.407,0.431 -5.25,0.25 -5.25,-1.126 0,-0.901 0.45,-1.639 1,-1.639 0.55,0 1,-0.675 1,-1.5 0,-0.825 -0.45,-1.5 -1,-1.5 -0.55,0 -1,0.675 -1,1.5 0,0.825 -0.427,1.5 -0.948,1.5 -1.319,0 -6.052,-4.503 -6.052,-5.758 0,-0.565 -0.675,-1.287 -1.5,-1.604 -0.825,-0.316 -1.5,-1.714 -1.5,-3.107 0,-1.583 -0.562,-2.531 -1.5,-2.531 -0.825,0 -1.523,-0.338 -1.55,-0.75 -0.88,-13.077 -0.281,-24.25 1.3,-24.25 1.333,0 1.75,-0.833 1.75,-3.5 0,-2.444 0.452,-3.5 1.5,-3.5 0.825,0 1.5,-0.675 1.5,-1.5 0,-0.825 0.675,-1.5 1.5,-1.5 0.825,0 1.5,-0.675 1.5,-1.5 0,-1.048 1.056,-1.5 3.5,-1.5 2.833,0 3.5,-0.381 3.5,-2 0,-1.728 0.667,-2 4.893,-2 3.427,0 5.065,-0.449 5.469,-1.5 0.33,-0.86 1.823,-1.5 3.5,-1.5 1.677,0 3.17,0.64 3.5,1.5 m 62.638,41 c 0,0.825 0.661,1.5 1.469,1.5 0.894,0 1.243,-0.586 0.893,-1.5 -0.317,-0.825 -0.978,-1.5 -1.469,-1.5 -0.491,0 -0.893,0.675 -0.893,1.5 m -104,9.167 c 0,2.296 -0.467,3.333 -1.5,3.333 -0.825,0 -1.5,0.675 -1.5,1.5 0,1.026 -1.028,1.5 -3.25,1.5 -2.516,0 -3.881,0.791 -6.043,3.5 -2.059,2.581 -3.568,3.5 -5.75,3.5 -1.9,0 -2.957,0.512 -2.957,1.433 0,0.788 -0.9,1.718 -2,2.067 -1.1,0.349 -2,1.31 -2,2.135 0,1.081 -0.602,1.309 -2.157,0.815 -1.587,-0.503 -2.664,-0.058 -4.074,1.683 -1.299,1.604 -2.081,1.964 -2.426,1.117 -0.717,-1.758 -3.343,-1.562 -3.343,0.25 0,0.825 0.45,1.5 1,1.5 0.55,0 1,0.509 1,1.13 0,0.748 -1.522,0.959 -4.5,0.623 -2.475,-0.279 -4.5,-0.113 -4.5,0.37 0,0.482 0.45,0.877 1,0.877 0.55,0 1,0.675 1,1.5 0,0.825 -0.675,1.5 -1.5,1.5 -0.825,0 -1.5,0.675 -1.5,1.5 0,1.048 -1.056,1.5 -3.5,1.5 -1.925,0 -3.5,-0.45 -3.5,-1 0,-0.55 -0.675,-1 -1.5,-1 -0.825,0 -1.5,0.464 -1.5,1.031 0,0.568 0.675,1.291 1.5,1.607 2.878,1.105 1.718,3.356 -1.408,2.73 -2.287,-0.457 -3.148,-0.132 -4.035,1.525 C 100.379,294.161 98.948,295 97.465,295 96.109,295 95,295.482 95,296.071 95,297.456 92.456,300 91.071,300 90.482,300 90,300.675 90,301.5 c 0,1.048 -1.056,1.5 -3.5,1.5 -1.925,0 -3.5,0.45 -3.5,1 0,0.55 -1.135,1 -2.521,1 -1.72,0 -2.884,0.796 -3.661,2.5 -1.196,2.626 -2.302,3.144 -3.291,1.544 C 72.584,307.518 70,309.029 70,311.107 70,312.604 69.267,313 66.5,313 c -2.577,0 -3.5,0.432 -3.5,1.639 0,1.376 -0.843,1.557 -5.25,1.126 -2.887,-0.283 -4.463,-0.312 -3.5,-0.066 3.272,0.837 2.113,4.283 -1.5,4.459 -6.101,0.298 -10.093,-0.773 -7,-1.878 2.019,-0.721 1.464,-4.411 -0.75,-4.99 -1.391,-0.364 -2,-1.364 -2,-3.284 0,-1.519 -0.675,-3.321 -1.5,-4.006 -2.565,-2.129 -1.92,-6 1,-6 1.509,0 2.5,-0.571 2.5,-1.44 0,-0.941 1.297,-1.547 3.75,-1.75 3.012,-0.249 3.813,-0.753 4.07,-2.56 0.26,-1.834 0.953,-2.25 3.75,-2.25 1.886,0 3.43,-0.398 3.43,-0.883 0,-1.391 5.409,-2.074 6.206,-0.784 0.529,0.855 1.029,0.832 1.952,-0.091 0.943,-0.943 0.953,-1.242 0.042,-1.242 -0.66,0 -1.2,-0.889 -1.2,-1.975 0,-1.646 0.483,-1.878 2.899,-1.395 2.349,0.47 3.026,0.18 3.568,-1.525 C 74.181,281.853 84,280.823 84,283 c 0,0.55 0.675,1 1.5,1 0.825,0 1.5,-0.45 1.5,-1 0,-0.55 -0.675,-1 -1.5,-1 -0.825,0 -1.5,-0.675 -1.5,-1.5 0,-1 1,-1.5 3,-1.5 1.898,0 3,-0.512 3,-1.393 0,-1.529 2.101,-2.607 5.082,-2.607 1.055,0 1.918,-0.675 1.918,-1.5 0,-1.152 1.278,-1.5 5.5,-1.5 4.034,0 5.5,0.371 5.5,1.393 0,0.766 0.704,1.663 1.565,1.994 1.764,0.676 1.03,-3.331 -0.828,-4.525 -1.846,-1.186 0.337,-2.882 2.886,-2.242 1.992,0.5 2.612,0.196 3.055,-1.496 0.47,-1.8 1.301,-2.124 5.439,-2.124 3.674,0 4.883,-0.371 4.883,-1.5 0,-1.048 1.056,-1.5 3.5,-1.5 2.833,0 3.5,-0.381 3.5,-2 0,-1.728 0.667,-2 4.893,-2 3.427,0 5.065,-0.449 5.469,-1.5 0.661,-1.724 10.638,-2.193 10.638,-0.5 0,0.55 0.675,1 1.5,1 0.825,0 1.5,-0.675 1.5,-1.5 0,-0.825 -0.45,-1.5 -1,-1.5 -0.55,0 -1,-0.6 -1,-1.333 0,-0.815 1.167,-1.334 3,-1.334 2.733,0 3,0.297 3,3.334 m 82.823,-1.307 c 0.246,1.248 1.474,1.64 5.143,1.64 3.362,0 4.994,0.454 5.396,1.5 0.406,1.058 2.057,1.5 5.607,1.5 3.805,0 5.031,0.365 5.031,1.5 0,0.825 -0.45,1.5 -1,1.5 -0.55,0 -1,0.395 -1,0.877 0,0.483 2.025,0.649 4.5,0.37 3.7,-0.417 4.5,-0.217 4.5,1.123 0,1.284 1.036,1.63 4.883,1.63 4.141,0 4.968,0.324 5.44,2.128 0.442,1.689 1.111,2.022 3.241,1.615 2.046,-0.391 2.8,-0.065 3.176,1.372 0.398,1.522 1.434,1.885 5.377,1.885 3.674,0 4.883,0.371 4.883,1.5 0,1.038 1.043,1.5 3.383,1.5 2.543,0 3.514,0.497 3.907,2 0.4,1.532 1.364,2 4.116,2 2.528,0 3.594,0.445 3.594,1.5 0,1.133 1.222,1.5 5,1.5 4.423,0 5,0.244 5,2.113 0,1.78 0.474,2.044 3,1.674 1.65,-0.242 3,-0.101 3,0.315 0,1.616 3.261,3.898 5.571,3.898 1.336,0 2.429,0.45 2.429,1 0,0.55 1.35,1 3,1 3.118,0 4.475,3.314 1.75,4.274 -0.687,0.242 0.71,0.477 3.105,0.522 4.39,0.082 6.709,1.098 4.395,1.924 -1.762,0.63 -1.56,3.28 0.25,3.28 0.825,0 1.5,-0.45 1.5,-1 0,-0.55 1.35,-1 3,-1 2.514,0 3,0.395 3,2.441 0,2.609 -2.12,4.699 -2.774,2.736 -1.062,-3.186 -1.777,-0.483 -1.407,5.323 0.35,5.49 0.163,6.5 -1.203,6.5 -0.889,0 -1.616,0.675 -1.616,1.5 0,1.133 -1.222,1.5 -5,1.5 -4.333,0 -5,-0.267 -5,-2 0,-1.619 -0.667,-2 -3.5,-2 -2.444,0 -3.5,-0.452 -3.5,-1.5 0,-0.987 -0.987,-1.5 -2.883,-1.5 -3.3,0 -5.173,-3.573 -2.26,-4.31 0.904,-0.229 0.068,-0.354 -1.857,-0.279 -1.925,0.075 -4.062,0.49 -4.75,0.922 -0.849,0.533 -1.25,0.125 -1.25,-1.274 0,-1.132 0.45,-2.059 1,-2.059 0.55,0 1,-0.675 1,-1.5 0,-0.825 -0.675,-1.5 -1.5,-1.5 -0.825,0 -1.5,0.597 -1.5,1.327 0,0.905 -0.953,1.187 -3,0.886 -1.65,-0.242 -3,-0.839 -3,-1.326 0,-0.488 -1.751,-0.887 -3.892,-0.887 -3.317,0 -3.984,-0.369 -4.519,-2.5 -0.345,-1.375 -1.069,-2.5 -1.608,-2.5 -0.54,0 -0.981,-0.45 -0.981,-1 0,-0.55 0.675,-1 1.5,-1 1.793,0 1.98,-1.585 0.309,-2.618 -0.655,-0.405 -1.368,-0.206 -1.583,0.441 -0.732,2.196 -6.93,1.418 -7.548,-0.947 -0.452,-1.729 -1.047,-2 -3.2,-1.46 -2.129,0.535 -2.748,0.266 -3.178,-1.376 -0.383,-1.465 -1.355,-2.04 -3.448,-2.04 -1.668,0 -3.161,-0.641 -3.49,-1.5 -0.317,-0.825 -1.203,-1.5 -1.969,-1.5 -0.766,0 -1.393,-0.9 -1.393,-2 0,-1.619 -0.667,-2 -3.5,-2 -2.444,0 -3.5,-0.452 -3.5,-1.5 0,-0.825 -0.623,-1.5 -1.383,-1.5 -0.761,0 -1.619,-0.9 -1.907,-2 -0.359,-1.374 -0.03,-2 1.05,-2 0.865,0 1.333,-0.241 1.039,-0.535 -0.294,-0.294 -2.394,-0.117 -4.667,0.394 -2.273,0.511 -4.132,0.549 -4.132,0.086 0,-1.987 -4.903,-5.945 -7.365,-5.945 -1.449,0 -2.635,-0.46 -2.635,-1.021 0,-0.562 -1.125,-1.534 -2.5,-2.161 -1.375,-0.626 -2.5,-1.742 -2.5,-2.479 0,-0.821 -1.16,-1.339 -3,-1.339 -2,0 -3,-0.5 -3,-1.5 0,-0.825 -0.675,-1.5 -1.5,-1.5 -1.526,0 -1.722,-0.455 -1.722,-4 0,-2.91 -0.023,-2.89 2.972,-2.572 1.589,0.169 2.887,0.985 3.073,1.932 M 240,255.417 c 0,0.871 0.713,1.583 1.583,1.583 0.871,0 1.406,-0.534 1.188,-1.187 C 242.153,253.958 240,253.651 240,255.417 M 167.5,269 c -0.34,0.55 0.335,1 1.5,1 1.165,0 1.84,-0.45 1.5,-1 -0.34,-0.55 -1.015,-1 -1.5,-1 -0.485,0 -1.16,0.45 -1.5,1 m 59.043,-0.069 c -0.683,1.105 0.894,2.299 1.818,1.375 0.95,-0.951 0.773,-2.306 -0.302,-2.306 -0.518,0 -1.2,0.419 -1.516,0.931 m -4.084,3.136 c -0.363,0.586 -0.419,1.306 -0.126,1.6 0.717,0.716 2.667,-0.546 2.667,-1.726 0,-1.278 -1.726,-1.193 -2.541,0.126 M 42,304.417 c 0,0.871 0.712,1.583 1.583,1.583 0.871,0 1.406,-0.534 1.188,-1.187 C 44.153,302.958 42,302.651 42,304.417 m 247.188,2.646 c 0.24,0.721 1.028,1.509 1.75,1.75 0.75,0.25 1.125,-0.125 0.875,-0.875 -0.241,-0.722 -1.029,-1.51 -1.75,-1.75 -0.75,-0.25 -1.125,0.125 -0.875,0.875 m 10,7 c 0.24,0.721 1.028,1.509 1.75,1.75 0.75,0.25 1.125,-0.125 0.875,-0.875 -0.241,-0.722 -1.029,-1.51 -1.75,-1.75 -0.75,-0.25 -1.125,0.125 -0.875,0.875"
       inkscape:connector-curvature="0"
       style="fill:#000000;fill-rule:evenodd;stroke:none"
       sodipodi:nodetypes="cscsscccccssssssscscscsssssscscccccssssccsssccccccscsssssssscsssscccscscccssscccsscsscscccsssccssscsscsccccsscsscccssssssscssccsssccccssssssccsssssscssssscsccsssssssssssssccssscssssssscscccccsssssssscssscsccsccssssssccccccsccccsscccssscsssssscccscccsscsssscsscccccscccccccccccssssscscssssssccccccccccccccscccsssccsssscsscsssccsssssssssscssssssscsscssssssssscsccscsccssscsssscccssscssssssssscccsssssssccssscccccscssccsscsssccsssssssssssccccssssscssssssccscsssscsscccssscsssscsssscccssssccssssssscscssssscsscssscccccscssssscsssssscssssscccscccssscccscccsccscccccccccccc" />
  </g>
</svg>
