<svg id="svg" version="1.1" width="400" height="400" xmlns="http://www.w3.org/2000/svg" xmlns:xlink="http://www.w3.org/1999/xlink" style="display: block;"><g id="svgg"><path id="path0" d="M144.000 100.861 C 144.000 101.335,141.237 101.973,137.860 102.279 C 134.483 102.585,131.445 103.258,131.110 103.774 C 130.774 104.289,128.856 105.014,126.847 105.383 C 124.837 105.752,122.939 106.717,122.628 107.527 C 122.317 108.337,121.539 109.000,120.898 109.000 C 119.097 109.000,110.558 118.111,108.949 121.750 C 108.159 123.537,107.222 125.000,106.867 125.000 C 106.513 125.000,105.933 126.542,105.580 128.427 C 105.226 130.312,104.388 132.037,103.718 132.261 C 101.944 132.852,101.944 267.148,103.718 267.739 C 104.388 267.963,105.226 269.688,105.580 271.573 C 105.933 273.458,106.574 275.000,107.003 275.000 C 107.432 275.000,108.091 276.227,108.468 277.727 C 108.844 279.226,111.784 282.939,115.001 285.977 C 122.587 293.141,123.200 293.614,126.077 294.512 C 127.410 294.929,128.764 295.679,129.087 296.179 C 129.409 296.680,132.897 297.359,136.837 297.690 C 140.776 298.020,144.000 298.675,144.000 299.145 C 144.000 299.615,169.875 300.000,201.500 300.000 C 233.125 300.000,259.000 299.615,259.000 299.145 C 259.000 298.675,262.224 298.020,266.163 297.690 C 270.103 297.359,273.591 296.680,273.913 296.179 C 274.236 295.679,275.512 294.954,276.750 294.567 C 277.988 294.181,279.000 293.446,279.000 292.933 C 279.000 292.420,279.696 292.000,280.548 292.000 C 282.500 292.000,292.000 282.589,292.000 280.655 C 292.000 279.862,292.675 278.955,293.500 278.638 C 294.325 278.322,295.000 277.374,295.000 276.531 C 295.000 275.689,295.400 275.000,295.889 275.000 C 296.377 275.000,297.067 273.458,297.420 271.573 C 297.774 269.688,298.612 267.963,299.282 267.739 C 301.056 267.148,301.056 132.852,299.282 132.261 C 298.612 132.037,297.774 130.312,297.420 128.427 C 297.067 126.542,296.377 125.000,295.889 125.000 C 295.400 125.000,295.000 124.311,295.000 123.469 C 295.000 122.626,294.325 121.678,293.500 121.362 C 292.675 121.045,292.000 120.167,292.000 119.411 C 292.000 117.801,283.820 109.000,282.324 109.000 C 281.764 109.000,280.268 108.100,279.000 107.000 C 277.732 105.900,275.675 105.000,274.430 105.000 C 273.185 105.000,272.006 104.517,271.809 103.926 C 271.612 103.335,268.649 102.597,265.225 102.287 C 261.801 101.976,259.000 101.335,259.000 100.861 C 259.000 100.388,233.125 100.000,201.500 100.000 C 169.875 100.000,144.000 100.388,144.000 100.861 M267.787 106.549 C 268.179 107.125,270.465 108.172,272.868 108.874 C 275.270 109.576,278.246 111.242,279.482 112.575 C 280.718 113.909,282.140 115.000,282.642 115.000 C 283.776 115.000,287.000 118.682,287.000 119.976 C 287.000 120.501,287.863 121.392,288.919 121.956 C 289.974 122.521,291.135 124.337,291.498 125.992 C 291.862 127.646,292.551 129.000,293.030 129.000 C 293.509 129.000,294.206 131.700,294.580 135.000 C 294.953 138.300,295.650 141.000,296.129 141.000 C 296.614 141.000,297.000 167.600,297.000 201.000 C 297.000 236.191,296.625 261.000,296.094 261.000 C 295.595 261.000,294.878 263.250,294.500 266.000 C 294.122 268.750,293.440 271.000,292.986 271.000 C 292.531 271.000,291.856 272.380,291.485 274.068 C 291.115 275.755,290.179 277.378,289.406 277.675 C 288.633 277.971,288.000 278.683,288.000 279.256 C 288.000 280.571,281.441 287.000,280.099 287.000 C 279.549 287.000,278.740 287.611,278.300 288.359 C 277.860 289.106,275.700 290.296,273.500 291.003 C 271.300 291.711,269.179 292.787,268.786 293.395 C 268.277 294.183,249.005 294.500,201.500 294.500 C 153.995 294.500,134.723 294.183,134.214 293.395 C 133.821 292.787,131.725 291.711,129.556 291.003 C 125.212 289.586,125.296 289.642,119.250 284.205 C 116.912 282.103,115.000 279.896,115.000 279.299 C 115.000 278.702,114.325 277.955,113.500 277.638 C 112.675 277.322,112.000 276.411,112.000 275.615 C 112.000 274.818,111.543 274.014,110.985 273.828 C 110.427 273.642,109.447 270.680,108.808 267.245 C 108.170 263.810,107.276 261.000,106.823 261.000 C 106.371 261.000,106.000 234.000,106.000 201.000 C 106.000 168.000,106.350 141.000,106.779 141.000 C 107.207 141.000,108.069 137.750,108.695 133.778 C 109.320 129.806,110.320 126.393,110.916 126.195 C 111.512 125.996,112.000 125.182,112.000 124.385 C 112.000 123.589,112.675 122.678,113.500 122.362 C 114.325 122.045,115.008 121.272,115.017 120.643 C 115.035 119.445,119.305 115.000,120.439 115.000 C 120.800 115.000,122.092 113.925,123.309 112.612 C 124.526 111.298,127.542 109.633,130.011 108.910 C 132.480 108.188,134.729 107.275,135.009 106.880 C 136.406 104.909,266.452 104.585,267.787 106.549 M195.000 117.776 C 193.282 119.723,193.090 166.791,194.796 167.906 C 196.469 169.001,197.053 184.000,195.423 184.000 C 194.640 184.000,194.000 184.450,194.000 185.000 C 194.000 185.550,193.462 186.000,192.805 186.000 C 191.162 186.000,186.000 191.073,186.000 192.687 C 186.000 193.409,185.550 194.000,185.000 194.000 C 184.450 194.000,184.000 195.989,184.000 198.421 C 184.000 202.519,183.782 202.889,181.000 203.500 C 179.350 203.862,178.000 204.534,178.000 204.992 C 178.000 205.450,176.200 206.128,174.000 206.500 C 171.800 206.872,170.000 207.566,170.000 208.043 C 170.000 208.519,168.324 209.224,166.275 209.608 C 164.226 209.993,162.007 210.851,161.342 211.515 C 160.678 212.179,158.304 213.016,156.067 213.373 C 153.830 213.731,152.000 214.448,152.000 214.967 C 152.000 215.485,150.425 216.205,148.500 216.566 C 146.575 216.927,145.000 217.587,145.000 218.032 C 145.000 218.477,143.650 219.138,142.000 219.500 C 140.350 219.862,139.000 220.573,139.000 221.079 C 139.000 221.586,138.357 222.000,137.571 222.000 C 136.786 222.000,135.532 222.611,134.785 223.358 C 134.038 224.105,131.740 225.326,129.679 226.072 C 127.231 226.957,125.731 228.222,125.355 229.720 C 124.659 232.497,125.761 239.000,126.929 239.000 C 127.390 239.000,128.017 239.958,128.323 241.129 C 128.927 243.438,139.365 243.585,140.842 241.305 C 141.204 240.747,143.188 239.740,145.250 239.067 C 147.313 238.395,149.000 237.466,149.000 237.002 C 149.000 236.538,150.350 235.862,152.000 235.500 C 153.650 235.138,155.000 234.463,155.000 234.000 C 155.000 233.537,156.312 232.871,157.916 232.518 C 159.521 232.166,161.081 231.230,161.385 230.439 C 161.689 229.648,162.589 229.000,163.385 229.000 C 164.182 229.000,164.983 228.662,165.167 228.250 C 165.350 227.838,168.088 226.166,171.250 224.535 C 174.412 222.904,177.000 221.217,177.000 220.785 C 177.000 220.353,177.689 220.000,178.531 220.000 C 179.374 220.000,180.322 219.325,180.638 218.500 C 180.955 217.675,181.772 217.000,182.454 217.000 C 183.136 217.000,184.732 216.100,186.000 215.000 C 187.268 213.900,188.587 213.000,188.931 213.000 C 189.274 213.000,190.326 213.900,191.268 215.000 C 192.210 216.100,193.885 217.000,194.990 217.000 C 196.096 217.000,197.000 217.450,197.000 218.000 C 197.000 218.550,199.025 219.000,201.500 219.000 C 203.975 219.000,206.000 218.550,206.000 218.000 C 206.000 217.450,206.904 217.000,208.010 217.000 C 209.115 217.000,210.756 216.140,211.657 215.088 C 213.345 213.117,215.420 213.321,217.821 215.694 C 218.548 216.412,219.738 217.000,220.464 217.000 C 221.191 217.000,222.045 217.675,222.362 218.500 C 222.678 219.325,223.578 220.000,224.362 220.000 C 225.145 220.000,226.045 220.675,226.362 221.500 C 226.678 222.325,227.626 223.000,228.469 223.000 C 229.311 223.000,230.000 223.360,230.000 223.799 C 230.000 224.239,231.657 225.197,233.682 225.930 C 237.132 227.177,238.157 227.805,241.331 230.618 C 242.025 231.233,243.697 232.081,245.047 232.503 C 246.396 232.925,247.725 233.551,248.000 233.895 C 248.796 234.890,259.409 240.000,260.681 240.000 C 261.315 240.000,262.002 240.507,262.209 241.127 C 263.148 243.944,273.069 243.428,275.647 240.428 C 279.736 235.668,278.726 229.113,273.500 226.500 C 271.300 225.400,269.275 224.223,269.000 223.885 C 268.725 223.546,267.488 222.954,266.250 222.567 C 265.012 222.181,264.000 221.481,264.000 221.012 C 264.000 220.543,262.650 219.862,261.000 219.500 C 259.350 219.138,258.000 218.427,258.000 217.921 C 258.000 217.414,257.124 217.000,256.053 217.000 C 254.982 217.000,251.990 215.875,249.404 214.500 C 246.818 213.125,243.837 212.000,242.780 212.000 C 241.722 212.000,240.182 211.325,239.357 210.500 C 238.532 209.675,236.764 209.000,235.429 209.000 C 234.093 209.000,233.000 208.590,233.000 208.088 C 233.000 207.586,231.200 206.872,229.000 206.500 C 226.800 206.128,225.000 205.450,225.000 204.992 C 225.000 204.534,223.650 203.862,222.000 203.500 C 219.380 202.925,219.000 202.408,219.000 199.421 C 219.000 197.539,218.550 196.000,218.000 196.000 C 217.450 196.000,217.000 195.060,217.000 193.910 C 217.000 191.866,212.315 186.000,210.682 186.000 C 209.348 186.000,206.930 183.192,207.953 182.830 C 208.467 182.649,209.206 174.497,209.595 164.716 C 209.984 154.934,210.684 146.695,211.151 146.407 C 212.373 145.651,212.228 126.000,211.000 126.000 C 210.450 126.000,210.000 124.462,210.000 122.582 C 210.000 116.515,209.416 115.996,202.643 116.038 C 198.152 116.066,196.097 116.533,195.000 117.776 M206.605 150.221 C 206.218 162.443,205.502 172.689,205.015 172.991 C 204.527 173.292,203.987 175.780,203.814 178.519 C 203.586 182.140,203.090 183.500,202.000 183.500 C 200.792 183.500,200.326 181.019,199.605 170.750 C 199.113 163.738,198.326 158.000,197.855 158.000 C 197.385 158.000,197.000 151.250,197.000 143.000 L 197.000 128.000 202.154 128.000 L 207.309 128.000 206.605 150.221 M207.000 188.991 C 207.275 189.398,208.485 190.038,209.688 190.413 C 214.875 192.031,215.449 205.824,210.534 210.738 C 205.213 216.059,190.104 213.490,190.017 207.250 C 190.008 206.563,189.550 206.000,189.000 206.000 C 188.450 206.000,188.000 203.750,188.000 201.000 C 188.000 198.250,188.401 196.000,188.892 196.000 C 189.382 196.000,190.064 194.882,190.407 193.515 C 190.792 191.982,191.982 190.792,193.515 190.407 C 194.882 190.064,196.000 189.413,196.000 188.961 C 196.000 187.102,205.741 187.128,207.000 188.991 M186.000 208.071 C 186.000 209.509,184.129 211.186,180.500 213.000 C 177.339 214.580,176.931 214.857,173.097 218.019 C 171.775 219.108,170.136 220.000,169.454 220.000 C 168.772 220.000,167.955 220.675,167.638 221.500 C 167.322 222.325,166.374 223.000,165.531 223.000 C 164.689 223.000,164.000 223.414,164.000 223.921 C 164.000 224.427,162.620 225.144,160.932 225.515 C 159.245 225.885,157.633 226.794,157.349 227.533 C 157.065 228.273,155.521 229.166,153.916 229.518 C 152.312 229.871,151.000 230.524,151.000 230.971 C 151.000 231.418,149.767 232.093,148.260 232.471 C 146.753 232.849,145.268 233.566,144.960 234.064 C 143.857 235.849,138.000 236.391,138.000 234.708 C 138.000 233.860,137.583 233.017,137.074 232.833 C 133.514 231.552,134.998 227.261,139.429 226.020 C 141.943 225.316,144.000 224.349,144.000 223.870 C 144.000 223.392,144.643 223.000,145.429 223.000 C 146.214 223.000,147.463 222.394,148.204 221.653 C 148.944 220.913,151.226 219.993,153.275 219.608 C 155.324 219.224,157.000 218.500,157.000 218.000 C 157.000 217.500,158.575 216.795,160.500 216.434 C 162.425 216.073,164.000 215.422,164.000 214.988 C 164.000 214.555,166.250 213.660,169.000 213.000 C 171.750 212.340,174.000 211.423,174.000 210.962 C 174.000 210.500,176.025 209.819,178.500 209.448 C 180.975 209.077,183.000 208.374,183.000 207.886 C 183.000 207.399,183.675 207.000,184.500 207.000 C 185.325 207.000,186.000 207.482,186.000 208.071 M220.000 207.886 C 220.000 208.374,222.025 209.077,224.500 209.448 C 226.975 209.819,229.000 210.500,229.000 210.962 C 229.000 211.423,231.250 212.340,234.000 213.000 C 236.750 213.660,239.000 214.555,239.000 214.988 C 239.000 215.422,240.575 216.073,242.500 216.434 C 244.425 216.795,246.000 217.500,246.000 218.000 C 246.000 218.500,247.575 219.205,249.500 219.566 C 251.425 219.927,253.000 220.587,253.000 221.032 C 253.000 221.477,254.350 222.138,256.000 222.500 C 257.650 222.862,259.000 223.515,259.000 223.949 C 259.000 224.384,261.025 225.307,263.500 226.000 C 267.347 227.077,269.953 230.000,267.066 230.000 C 266.553 230.000,265.990 231.238,265.816 232.750 C 265.487 235.612,259.658 236.683,258.103 234.167 C 257.760 233.612,256.247 232.849,254.740 232.471 C 253.233 232.093,252.000 231.418,252.000 230.971 C 252.000 230.524,250.688 229.871,249.084 229.518 C 247.479 229.166,245.935 228.273,245.651 227.533 C 245.367 226.794,243.755 225.885,242.068 225.515 C 240.380 225.144,239.000 224.427,239.000 223.921 C 239.000 223.414,238.311 223.000,237.469 223.000 C 236.626 223.000,235.694 222.366,235.396 221.590 C 235.099 220.815,233.763 219.906,232.428 219.571 C 231.092 219.236,230.000 218.520,230.000 217.981 C 230.000 217.441,229.347 217.000,228.550 217.000 C 227.752 217.000,226.740 216.437,226.300 215.748 C 225.860 215.060,224.150 213.822,222.500 212.998 C 217.337 210.419,215.056 207.000,218.500 207.000 C 219.325 207.000,220.000 207.399,220.000 207.886 " stroke="none" fill="#000000" fill-rule="evenodd"></path></g></svg>