<?xml version="1.0" encoding="UTF-8" standalone="no"?>
<svg
   xmlns:dc="http://purl.org/dc/elements/1.1/"
   xmlns:cc="http://creativecommons.org/ns#"
   xmlns:rdf="http://www.w3.org/1999/02/22-rdf-syntax-ns#"
   xmlns:svg="http://www.w3.org/2000/svg"
   xmlns="http://www.w3.org/2000/svg"
   xmlns:sodipodi="http://sodipodi.sourceforge.net/DTD/sodipodi-0.dtd"
   xmlns:inkscape="http://www.inkscape.org/namespaces/inkscape"
   viewBox="0 0 640 640"
   version="1.1"
   id="svg4"
   sodipodi:docname="travels.svg"
   width="640"
   height="640"
   inkscape:version="0.92.4 (5da689c313, 2019-01-14)">
  <metadata
     id="metadata10">
    <rdf:RDF>
      <cc:Work
         rdf:about="">
        <dc:format>image/svg+xml</dc:format>
        <dc:type
           rdf:resource="http://purl.org/dc/dcmitype/StillImage" />
        <dc:title></dc:title>
      </cc:Work>
    </rdf:RDF>
  </metadata>
  <defs
     id="defs8" />
  <sodipodi:namedview
     pagecolor="#ffffff"
     bordercolor="#666666"
     borderopacity="1"
     objecttolerance="10"
     gridtolerance="10"
     guidetolerance="10"
     inkscape:pageopacity="0"
     inkscape:pageshadow="2"
     inkscape:window-width="1920"
     inkscape:window-height="1027"
     id="namedview6"
     showgrid="false"
     inkscape:zoom="0.44375"
     inkscape:cx="320"
     inkscape:cy="256"
     inkscape:window-x="-8"
     inkscape:window-y="-8"
     inkscape:window-maximized="1"
     inkscape:current-layer="svg4" />
  <path
     d="m 115.38,200.90284 102.11,37.18 c 35.19,-81.54 86.21,-144.289995 139,-173.699995 -95.88,-4.89 -188.78,36.959995 -248.53,111.799995 -6.69,8.4 -2.66,21.05 7.42,24.72 z m 132.25,48.16 238.48,86.83 c 35.76,-121.38 18.7,-231.66 -42.63,-253.979995 -7.4,-2.7 -15.13,-4 -23.09,-4 -58.02,0.01 -128.27,69.169995 -172.76,171.149995 z m 273.85,-124.56 c 6.22,16.3 10.83,34.6 13.2,55.19 5.74,49.89 -1.42,108.23 -18.95,166.98 l 102.62,37.36 c 10.09,3.67 21.31,-3.43 21.57,-14.17 2.32,-95.69 -41.91,-187.44 -118.44,-245.36 z m 38.52,387.48 H 321.06 l 64.94,-178.48 -60.14,-21.9 -72.9,200.37 H 16 c -8.84,0 -16,7.16 -16,16.01 v 32.01 c 0,8.84 7.16,16.01 16,16.01 h 544 c 8.84,0 16,-7.17 16,-16.01 v -32.01 c 0,-8.84 -7.16,-16 -16,-16 z"
     id="path2"
     inkscape:connector-curvature="0" />
</svg>
