<svg id="svg" version="1.1" width="400" height="400" xmlns="http://www.w3.org/2000/svg" xmlns:xlink="http://www.w3.org/1999/xlink" style="display: block;"><g id="svgg"><path id="path0" d="M70.500 52.499 C 62.573 55.738,55.116 63.378,52.162 71.288 L 50.000 77.075 50.000 200.000 L 50.000 322.925 52.138 328.712 C 55.067 336.640,63.360 344.933,71.288 347.862 L 77.075 350.000 200.000 350.000 L 322.925 350.000 328.712 347.862 C 336.640 344.933,344.933 336.640,347.862 328.712 L 350.000 322.925 350.000 200.000 L 350.000 77.075 347.862 71.288 C 344.933 63.360,336.640 55.067,328.712 52.138 L 322.925 50.000 199.712 50.024 L 76.500 50.047 70.500 52.499 M172.800 85.411 C 176.425 87.305,180.633 91.866,181.936 95.315 C 182.660 97.231,183.000 128.035,183.000 191.749 C 183.000 298.083,183.563 290.952,174.702 296.816 L 170.646 299.500 133.573 299.500 C 92.127 299.500,92.858 299.613,87.302 292.329 L 84.500 288.656 84.235 192.741 L 83.970 96.825 86.214 92.833 C 87.448 90.637,90.268 87.755,92.479 86.430 L 96.500 84.019 133.300 84.009 C 163.047 84.002,170.617 84.270,172.800 85.411 M307.212 86.239 C 309.438 87.490,312.256 90.287,313.598 92.577 L 316.000 96.676 316.000 145.888 C 316.000 213.329,320.257 208.000,266.385 208.000 C 212.907 208.000,217.000 213.130,217.000 146.105 C 217.000 78.632,212.726 84.009,266.364 84.004 C 302.691 84.000,303.286 84.033,307.212 86.239 " stroke="none" fill="#000000" fill-rule="evenodd"></path></g></svg>