<svg id="svg" xmlns="http://www.w3.org/2000/svg" xmlns:xlink="http://www.w3.org/1999/xlink" width="400" height="400" viewBox="0, 0, 400,400"><g id="svgg"><path id="path0" d="M245.263 160.395 C 242.549 161.371,233.163 163.785,231.010 164.060 C 228.421 164.390,228.520 164.141,228.376 170.702 L 228.246 176.667 231.745 176.842 C 236.617 177.086,236.129 173.491,236.135 209.211 L 236.140 239.649 243.813 239.649 L 251.485 239.649 252.583 237.193 L 253.682 234.736 255.396 235.968 C 265.374 243.136,280.247 241.495,287.791 232.393 C 296.412 221.993,296.674 200.409,288.314 189.289 C 281.633 180.400,267.027 178.381,256.811 184.933 C 255.926 185.500,255.097 185.965,254.969 185.965 C 254.841 185.965,254.737 180.044,254.737 172.807 L 254.737 159.649 250.965 159.675 C 248.141 159.694,246.708 159.875,245.263 160.395 M313.158 160.223 C 310.432 161.242,303.645 163.096,300.526 163.675 C 298.789 163.997,297.009 164.332,296.571 164.420 C 295.773 164.579,295.773 164.583,295.869 170.623 L 295.965 176.667 299.123 176.760 C 303.979 176.904,303.509 174.242,303.509 201.595 C 303.509 215.484,303.374 225.221,303.175 225.746 C 302.785 226.769,301.075 227.363,298.509 227.366 L 296.842 227.368 296.842 233.509 L 296.842 239.649 312.991 239.649 L 329.139 239.649 329.043 233.596 L 328.947 227.544 326.667 227.340 C 321.662 226.893,322.105 230.323,322.105 192.053 L 322.105 159.649 318.333 159.674 C 315.903 159.690,314.062 159.885,313.158 160.223 M20.000 162.250 C 20.000 169.792,13.979 179.094,6.800 182.641 L 4.211 183.920 4.211 189.680 L 4.211 195.439 8.750 195.439 L 13.290 195.439 13.409 209.561 L 13.528 223.684 14.479 226.519 C 16.810 233.460,21.888 238.125,29.041 239.896 C 35.615 241.524,46.800 239.727,49.566 236.600 C 50.298 235.772,46.867 225.025,45.910 225.149 C 45.651 225.182,44.254 225.471,42.807 225.791 C 37.668 226.926,34.349 225.674,32.824 222.024 C 32.368 220.932,32.281 218.699,32.281 208.081 L 32.281 195.439 39.649 195.439 L 47.018 195.439 47.018 188.772 L 47.018 182.105 39.649 182.105 L 32.281 182.105 32.281 172.105 L 32.281 162.105 26.140 162.105 C 22.763 162.105,20.000 162.170,20.000 162.250 M160.461 181.383 C 155.487 182.173,150.802 184.392,147.639 187.456 C 145.567 189.463,145.614 189.456,145.614 187.771 C 145.614 187.027,145.513 185.448,145.389 184.262 L 145.163 182.105 133.459 182.105 L 121.754 182.105 121.754 188.204 L 121.754 194.303 125.175 194.555 C 129.926 194.907,129.474 193.204,129.474 210.720 C 129.474 228.583,129.887 227.124,124.737 227.454 L 123.333 227.544 123.237 233.596 L 123.141 239.649 138.939 239.649 L 154.737 239.649 154.737 233.548 L 154.737 227.448 152.238 227.306 C 148.259 227.082,148.421 227.602,148.421 215.062 C 148.421 203.691,148.634 202.236,150.621 199.996 C 155.125 194.922,163.891 194.873,166.370 199.907 C 167.177 201.547,167.195 201.809,167.301 213.532 C 167.431 227.791,167.625 227.076,163.551 227.306 L 161.053 227.448 161.053 233.548 L 161.053 239.649 176.850 239.649 L 192.648 239.649 192.552 233.596 L 192.456 227.544 189.902 227.345 C 185.931 227.036,186.158 227.730,186.038 215.568 C 185.922 203.953,186.099 202.662,188.176 199.939 C 191.477 195.612,199.565 194.860,202.916 198.569 C 204.808 200.663,204.908 201.453,204.910 214.244 C 204.913 227.875,205.150 227.077,201.027 227.310 L 198.596 227.448 198.596 233.548 L 198.596 239.649 214.386 239.649 L 230.175 239.649 230.175 233.548 L 230.175 227.448 227.745 227.310 C 223.675 227.080,223.962 228.146,223.762 212.523 C 223.572 197.710,223.394 196.212,221.334 192.005 C 215.339 179.763,195.392 177.305,185.047 187.532 L 182.551 190.000 179.960 187.344 C 175.239 182.506,167.771 180.223,160.461 181.383 M368.548 181.729 C 365.525 182.544,362.918 183.812,360.412 185.684 C 359.384 186.452,358.501 187.027,358.451 186.961 C 358.400 186.896,357.978 185.737,357.513 184.386 L 356.667 181.930 345.526 181.837 L 334.386 181.745 334.386 188.065 L 334.386 194.386 337.193 194.386 C 341.742 194.386,341.404 193.103,341.404 210.328 C 341.404 227.843,341.532 227.368,336.790 227.368 L 335.088 227.368 335.088 233.509 L 335.088 239.649 350.885 239.649 L 366.683 239.649 366.587 233.596 L 366.491 227.544 364.386 227.337 C 359.738 226.881,359.916 227.454,360.073 213.460 C 360.226 199.758,360.721 197.929,364.887 195.662 C 367.102 194.456,367.151 194.468,367.640 196.296 C 369.866 204.618,383.789 204.037,386.800 195.496 C 390.044 186.297,379.922 178.662,368.548 181.729 M54.469 202.193 C 54.628 226.795,55.070 229.103,60.703 234.736 C 68.484 242.517,84.573 242.522,93.083 234.745 C 95.549 232.491,95.439 232.417,95.439 236.316 L 95.439 239.649 106.324 239.649 L 117.210 239.649 117.114 233.596 L 117.018 227.544 115.035 227.367 C 111.267 227.031,111.579 229.139,111.579 203.981 L 111.579 182.105 98.421 182.105 L 85.263 182.105 85.263 188.211 L 85.263 194.316 88.368 194.439 C 92.991 194.621,92.632 193.581,92.628 206.797 C 92.624 219.454,92.506 220.116,89.780 222.701 C 86.414 225.894,79.245 226.594,76.195 224.027 C 73.855 222.059,73.872 222.215,73.753 201.140 L 73.645 182.105 63.993 182.105 L 54.340 182.105 54.469 202.193 M269.314 196.515 C 278.178 201.074,277.265 223.417,268.111 225.959 C 263.512 227.237,258.237 225.487,255.738 221.855 L 254.695 220.339 254.804 210.959 C 254.904 202.272,254.966 201.477,255.639 200.194 C 257.854 195.972,264.685 194.134,269.314 196.515 M381.661 218.606 C 372.961 220.797,370.113 231.702,376.722 237.520 C 383.861 243.803,395.451 238.966,395.504 229.681 C 395.546 222.329,388.683 216.838,381.661 218.606 " stroke="none" fill="#000000" fill-rule="evenodd"></path></g></svg>