<svg id="svg" version="1.1" width="515" height="515" xmlns="http://www.w3.org/2000/svg" xmlns:xlink="http://www.w3.org/1999/xlink" style="display: block;"><g id="svgg"><path id="path0" d="M178.500 45.762 C 175.750 47.224,173.350 48.776,173.167 49.210 C 172.983 49.645,172.488 50.000,172.066 50.000 C 171.643 50.000,166.988 52.475,161.721 55.500 C 156.454 58.525,151.662 61.000,151.072 61.000 C 150.482 61.000,150.000 61.420,150.000 61.933 C 150.000 62.446,148.988 63.181,147.750 63.567 C 146.512 63.954,145.275 64.576,145.000 64.950 C 144.725 65.323,140.225 68.050,135.000 71.007 C 129.775 73.965,125.350 76.749,125.167 77.193 C 124.983 77.637,124.154 78.000,123.324 78.000 C 122.494 78.000,120.671 78.900,119.273 80.000 C 117.874 81.100,116.116 82.000,115.365 82.000 C 114.614 82.000,114.000 82.450,114.000 83.000 C 114.000 83.550,113.574 84.000,113.054 84.000 C 112.256 84.000,106.253 87.358,97.500 92.701 C 96.400 93.372,94.825 94.248,94.000 94.646 C 93.175 95.044,89.680 97.087,86.232 99.185 C 82.785 101.283,79.684 103.000,79.340 103.000 C 78.997 103.000,75.866 104.800,72.383 107.000 C 68.899 109.200,65.766 111.000,65.420 111.000 C 65.073 111.000,62.925 112.259,60.645 113.797 C 58.365 115.336,55.825 116.913,55.000 117.301 C 54.175 117.690,51.250 119.288,48.500 120.852 L 43.500 123.695 43.209 222.598 C 43.012 289.399,43.268 324.097,43.997 329.500 C 46.444 347.631,48.531 355.786,54.486 370.500 C 55.154 372.150,56.308 375.075,57.051 377.000 C 57.794 378.925,59.661 382.657,61.201 385.294 C 62.740 387.931,64.000 390.311,64.000 390.584 C 64.000 391.366,68.416 397.463,69.250 397.833 C 69.663 398.017,70.000 398.804,70.000 399.583 C 70.000 400.363,70.450 401.000,71.000 401.000 C 71.550 401.000,72.000 401.591,72.000 402.313 C 72.000 403.035,73.350 404.919,75.000 406.500 C 76.650 408.081,78.000 409.775,78.000 410.264 C 78.000 411.603,97.488 431.000,98.833 431.000 C 99.475 431.000,100.000 431.363,100.000 431.807 C 100.000 432.799,110.871 440.789,117.000 444.302 C 130.729 452.170,134.189 454.000,135.343 454.000 C 136.044 454.000,137.491 454.661,138.559 455.468 C 139.626 456.276,141.294 456.951,142.264 456.968 C 143.234 456.986,144.809 457.396,145.764 457.879 C 157.983 464.067,194.384 469.246,210.500 467.090 C 225.083 465.139,232.466 463.953,235.500 463.073 C 244.194 460.552,255.859 456.721,258.500 455.519 C 269.429 450.544,275.677 447.395,276.821 446.283 C 277.548 445.577,278.786 445.000,279.571 445.000 C 280.357 445.000,281.000 444.602,281.000 444.117 C 281.000 443.631,281.788 442.973,282.750 442.655 C 283.712 442.336,287.200 440.487,290.500 438.544 C 293.800 436.602,297.400 434.544,298.500 433.972 C 299.600 433.399,302.750 431.612,305.500 430.000 C 308.250 428.388,311.400 426.597,312.500 426.020 C 313.600 425.443,315.850 424.087,317.500 423.007 C 319.150 421.927,322.188 420.253,324.250 419.286 C 326.313 418.319,328.000 417.184,328.000 416.764 C 328.000 416.344,328.472 416.000,329.048 416.000 C 329.624 416.000,332.662 414.352,335.798 412.338 C 338.934 410.324,343.975 407.384,347.000 405.805 C 350.025 404.226,353.850 402.055,355.500 400.982 C 357.150 399.908,359.400 398.586,360.500 398.043 C 361.600 397.501,364.750 395.700,367.500 394.041 C 370.250 392.383,373.175 390.705,374.000 390.313 C 374.825 389.921,378.775 387.665,382.779 385.300 C 386.782 382.935,390.281 381.000,390.553 381.000 C 395.334 381.000,424.454 357.687,433.000 347.018 C 434.925 344.615,437.288 341.828,438.250 340.824 C 439.212 339.821,440.000 338.587,440.000 338.083 C 440.000 337.579,440.394 337.017,440.875 336.833 C 445.012 335.258,458.868 305.599,462.988 289.500 C 467.577 271.570,467.964 261.458,467.969 159.500 C 467.973 53.842,468.178 58.726,463.655 56.867 C 461.920 56.154,458.700 54.429,456.500 53.035 C 441.936 43.805,438.428 42.405,434.680 44.329 C 429.783 46.842,423.160 50.630,421.760 51.718 C 421.067 52.257,416.900 54.623,412.500 56.975 C 408.100 59.328,404.262 61.624,403.972 62.077 C 403.681 62.530,402.556 63.262,401.472 63.703 C 399.432 64.534,386.774 71.695,381.500 75.003 C 379.850 76.037,376.250 78.052,373.500 79.479 C 370.750 80.906,364.675 84.368,360.000 87.172 C 355.325 89.976,349.025 93.622,346.000 95.274 C 342.975 96.926,338.933 99.340,337.018 100.639 C 335.103 101.938,333.181 103.000,332.748 103.000 C 332.315 103.000,330.191 104.117,328.028 105.483 L 324.095 107.965 323.797 221.233 C 323.562 310.878,323.234 334.966,322.222 336.736 C 321.520 337.965,320.536 340.890,320.037 343.236 C 318.993 348.140,315.024 359.438,313.182 362.750 C 310.714 367.184,295.443 363.888,276.241 354.777 C 260.934 347.514,234.000 324.167,234.000 318.161 C 234.000 317.577,233.438 316.740,232.750 316.300 C 232.063 315.860,230.921 314.467,230.214 313.205 C 225.616 305.004,223.079 299.700,221.028 294.000 C 219.742 290.425,218.309 287.073,217.845 286.550 C 217.380 286.028,217.000 284.170,217.000 282.422 C 217.000 280.674,216.325 277.629,215.500 275.654 C 214.199 272.540,214.000 258.029,214.000 166.104 C 214.000 51.127,214.338 58.176,208.744 56.431 C 207.510 56.046,206.275 55.411,206.000 55.020 C 205.725 54.629,204.293 53.677,202.817 52.904 C 201.342 52.132,196.915 49.587,192.979 47.250 C 184.628 42.289,184.967 42.324,178.500 45.762 M184.246 175.750 C 184.483 252.159,184.837 274.810,185.870 279.500 C 190.313 299.673,197.160 317.257,205.473 329.837 C 207.413 332.773,209.000 335.548,209.000 336.004 C 209.000 336.460,209.338 336.983,209.750 337.167 C 210.162 337.350,212.075 339.862,214.000 342.748 C 215.925 345.635,218.063 347.997,218.750 347.998 C 219.438 347.999,220.000 348.429,220.000 348.952 C 220.000 351.822,238.268 367.339,251.500 375.708 C 259.678 380.881,279.962 389.911,283.770 390.074 C 284.722 390.115,287.274 390.931,289.442 391.888 L 293.384 393.628 289.040 398.341 C 284.651 403.103,268.542 416.349,264.081 418.864 C 222.466 442.330,174.680 443.210,138.000 421.186 C 136.075 420.030,133.098 418.368,131.385 417.492 C 129.672 416.617,127.328 415.023,126.177 413.950 C 125.026 412.878,123.883 412.000,123.638 412.000 C 121.479 412.000,102.929 393.120,97.135 385.025 C 87.925 372.158,78.000 351.131,78.000 344.485 C 78.000 343.338,77.588 341.972,77.084 341.450 C 73.654 337.892,73.000 320.150,73.000 230.690 C 73.000 133.577,72.469 142.174,78.677 138.714 C 87.285 133.916,94.578 129.563,95.000 128.971 C 95.275 128.585,96.513 127.954,97.750 127.567 C 98.987 127.181,100.000 126.446,100.000 125.933 C 100.000 125.420,100.873 125.000,101.941 125.000 C 103.009 125.000,104.153 124.562,104.483 124.027 C 104.814 123.491,106.753 122.264,108.792 121.299 C 110.832 120.334,114.582 118.176,117.127 116.503 C 119.671 114.830,124.396 112.120,127.627 110.481 C 130.857 108.841,133.725 107.212,134.000 106.859 C 134.275 106.507,136.300 105.240,138.500 104.044 C 140.700 102.847,143.850 101.072,145.500 100.099 C 147.150 99.125,151.200 96.838,154.500 95.015 C 157.800 93.192,160.734 91.346,161.020 90.913 C 161.307 90.480,162.657 89.639,164.020 89.046 C 165.384 88.452,168.750 86.611,171.500 84.955 C 174.250 83.298,177.469 81.534,178.653 81.033 C 179.837 80.533,181.101 79.646,181.462 79.062 C 181.823 78.478,182.529 78.000,183.031 78.000 C 183.573 78.000,184.066 117.708,184.246 175.750 M436.696 174.250 C 436.296 278.033,436.594 272.052,430.922 290.030 C 429.626 294.139,426.841 300.650,424.735 304.500 C 422.628 308.350,420.648 312.288,420.336 313.250 C 420.023 314.213,419.369 315.000,418.883 315.000 C 418.398 315.000,418.000 315.575,418.000 316.277 C 418.000 316.980,416.650 319.032,415.000 320.839 C 413.350 322.645,412.000 324.367,412.000 324.666 C 412.000 325.263,397.851 339.289,393.953 342.555 C 389.577 346.222,381.937 351.000,380.450 351.000 C 379.652 351.000,379.000 351.461,379.000 352.025 C 379.000 352.588,377.988 353.435,376.750 353.906 C 375.512 354.377,372.700 355.564,370.500 356.543 C 355.483 363.228,344.022 365.845,345.510 362.250 C 347.125 358.349,350.148 348.198,351.095 343.500 C 351.649 340.750,352.576 336.250,353.155 333.500 C 353.833 330.277,354.364 292.467,354.650 227.123 L 355.093 125.745 357.296 123.906 C 358.508 122.894,359.846 122.052,360.270 122.033 C 360.693 122.015,362.718 120.946,364.770 119.658 C 368.507 117.311,376.440 112.826,382.999 109.353 C 384.924 108.334,386.724 107.271,386.999 106.990 C 387.275 106.710,389.188 105.595,391.250 104.513 C 393.313 103.431,395.000 102.242,395.000 101.870 C 395.000 101.499,396.238 100.714,397.750 100.125 C 399.262 99.536,402.300 98.024,404.500 96.765 C 410.788 93.167,420.342 87.598,422.111 86.500 C 422.997 85.950,426.003 84.271,428.790 82.769 C 431.578 81.267,434.142 79.579,434.488 79.019 C 436.854 75.192,437.045 83.470,436.696 174.250 " stroke="none" fill="#000000" fill-rule="evenodd"></path></g></svg>