<svg id="svg" version="1.1" width="400" height="400" xmlns="http://www.w3.org/2000/svg" xmlns:xlink="http://www.w3.org/1999/xlink" style="display: block;"><g id="svgg"><path id="path0" d="M328.000 24.839 C 328.000 25.300,324.173 26.247,319.494 26.943 C 314.816 27.639,310.748 28.599,310.453 29.075 C 310.159 29.552,307.686 30.238,304.959 30.600 C 302.232 30.962,300.000 31.606,300.000 32.031 C 300.000 32.456,297.300 33.117,294.000 33.500 C 290.700 33.883,288.000 34.587,288.000 35.064 C 288.000 35.541,285.750 36.230,283.000 36.594 C 280.250 36.959,278.000 37.592,278.000 38.000 C 278.000 38.408,275.750 39.041,273.000 39.406 C 270.250 39.770,268.000 40.459,268.000 40.936 C 268.000 41.413,265.300 42.117,262.000 42.500 C 258.700 42.883,256.000 43.523,256.000 43.922 C 256.000 44.320,252.400 45.256,248.000 46.000 C 243.600 46.744,240.000 47.672,240.000 48.061 C 240.000 48.451,237.532 49.078,234.516 49.455 C 231.499 49.832,228.799 50.516,228.515 50.976 C 228.230 51.436,225.748 52.122,222.999 52.500 C 220.249 52.878,218.000 53.544,218.000 53.979 C 218.000 54.414,215.525 55.079,212.500 55.457 C 209.475 55.835,207.000 56.529,207.000 57.000 C 207.000 57.471,204.525 58.165,201.500 58.543 C 198.475 58.921,196.000 59.586,196.000 60.021 C 196.000 60.456,193.768 61.119,191.039 61.495 C 187.401 61.995,185.917 62.687,185.472 64.088 C 185.138 65.140,184.494 66.000,184.041 66.000 C 183.588 66.000,182.934 67.125,182.589 68.500 C 182.244 69.875,181.556 71.000,181.060 71.000 C 180.565 71.000,179.862 72.350,179.500 74.000 C 179.138 75.650,178.427 77.000,177.921 77.000 C 177.414 77.000,177.000 77.689,177.000 78.531 C 177.000 79.374,176.375 80.302,175.612 80.595 C 174.849 80.888,173.673 83.095,173.000 85.500 C 172.327 87.905,171.151 90.112,170.388 90.405 C 169.625 90.698,169.000 91.626,169.000 92.469 C 169.000 93.311,168.550 94.000,168.000 94.000 C 167.450 94.000,167.000 94.643,167.000 95.429 C 167.000 99.589,164.794 100.000,142.484 100.000 L 121.111 100.000 69.555 151.565 C 22.399 198.731,14.843 207.000,18.898 207.000 C 19.392 207.000,21.530 208.822,23.648 211.049 C 25.767 213.276,30.338 217.889,33.807 221.299 C 37.276 224.710,41.551 228.996,43.307 230.823 C 45.063 232.651,49.338 236.926,52.807 240.323 C 56.276 243.721,60.551 248.003,62.307 249.840 C 64.063 251.677,68.369 255.952,71.876 259.340 C 75.382 262.728,78.982 266.342,79.876 267.372 C 80.769 268.401,84.338 272.001,87.807 275.372 C 91.276 278.742,95.551 282.989,97.307 284.809 C 101.741 289.405,111.141 298.747,115.965 303.352 C 118.184 305.470,120.000 307.608,120.000 308.102 C 120.000 308.605,129.634 309.000,141.929 309.000 C 164.832 309.000,167.000 309.395,167.000 313.571 C 167.000 314.357,167.450 315.000,168.000 315.000 C 168.550 315.000,169.000 315.653,169.000 316.450 C 169.000 317.248,169.611 318.260,170.359 318.700 C 171.106 319.140,172.254 321.152,172.910 323.170 C 173.566 325.189,174.754 327.381,175.551 328.042 C 176.348 328.704,177.000 329.865,177.000 330.622 C 177.000 331.380,177.414 332.000,177.921 332.000 C 178.427 332.000,179.129 333.312,179.482 334.916 C 179.834 336.521,180.770 338.081,181.561 338.385 C 182.352 338.689,183.000 339.626,183.000 340.469 C 183.000 341.311,183.401 342.000,183.892 342.000 C 184.382 342.000,185.055 343.082,185.387 344.406 C 185.891 346.412,186.820 346.925,190.995 347.499 C 193.748 347.878,196.000 348.544,196.000 348.979 C 196.000 349.414,198.475 350.079,201.500 350.457 C 204.525 350.835,207.000 351.507,207.000 351.950 C 207.000 352.393,210.608 353.317,215.018 354.003 C 219.428 354.689,223.272 355.631,223.559 356.096 C 223.847 356.561,226.314 357.238,229.041 357.600 C 231.768 357.962,234.000 358.606,234.000 359.031 C 234.000 359.456,236.700 360.117,240.000 360.500 C 243.300 360.883,246.000 361.560,246.000 362.004 C 246.000 362.449,248.250 363.122,251.000 363.500 C 253.750 363.878,256.000 364.544,256.000 364.979 C 256.000 365.414,258.475 366.079,261.500 366.457 C 264.525 366.835,267.000 367.529,267.000 368.000 C 267.000 368.471,269.475 369.165,272.500 369.543 C 275.525 369.921,278.000 370.549,278.000 370.939 C 278.000 371.328,281.600 372.256,286.000 373.000 C 290.400 373.744,294.000 374.680,294.000 375.078 C 294.000 375.477,296.700 376.117,300.000 376.500 C 303.300 376.883,306.000 377.587,306.000 378.064 C 306.000 378.541,308.250 379.230,311.000 379.594 C 313.750 379.959,316.000 380.606,316.000 381.031 C 316.000 381.456,318.700 382.117,322.000 382.500 C 325.300 382.883,328.000 383.602,328.000 384.098 C 328.000 387.787,330.924 384.183,331.527 379.750 C 331.920 376.863,332.629 374.253,333.103 373.952 C 333.576 373.651,334.503 369.938,335.161 365.702 C 335.820 361.466,336.712 358.000,337.145 358.000 C 337.577 358.000,338.230 355.750,338.594 353.000 C 338.959 350.250,339.606 348.000,340.031 348.000 C 340.456 348.000,341.117 345.300,341.500 342.000 C 341.883 338.700,342.587 336.000,343.064 336.000 C 343.541 336.000,344.230 333.750,344.594 331.000 C 344.959 328.250,345.598 326.000,346.014 326.000 C 346.429 326.000,347.079 323.525,347.457 320.500 C 347.835 317.475,348.529 315.000,349.000 315.000 C 349.471 315.000,350.165 312.525,350.543 309.500 C 350.921 306.475,351.575 304.000,351.996 304.000 C 352.417 304.000,353.347 300.400,354.061 296.000 C 354.776 291.600,355.677 288.000,356.065 288.000 C 356.452 288.000,357.079 285.525,357.457 282.500 C 357.835 279.475,358.529 277.000,359.000 277.000 C 359.471 277.000,360.165 274.525,360.543 271.500 C 360.921 268.475,361.586 266.000,362.021 266.000 C 362.456 266.000,363.122 263.751,363.500 261.001 C 363.878 258.252,364.543 255.782,364.978 255.513 C 365.413 255.245,366.084 252.928,366.468 250.365 C 366.852 247.803,367.667 244.904,368.279 243.924 C 369.364 242.187,366.792 235.074,364.750 234.167 C 364.337 233.983,364.000 233.182,364.000 232.385 C 364.000 231.589,363.352 230.689,362.561 230.385 C 361.770 230.081,360.842 228.558,360.500 227.000 C 360.158 225.442,359.230 223.919,358.439 223.615 C 357.648 223.311,357.000 222.374,357.000 221.531 C 357.000 220.689,356.622 220.000,356.160 220.000 C 355.698 220.000,354.726 218.200,354.000 216.000 C 353.274 213.800,352.302 212.000,351.840 212.000 C 351.378 212.000,351.000 211.394,351.000 210.653 C 351.000 209.912,350.128 208.301,349.062 207.072 C 347.242 204.974,347.222 202.000,349.028 202.000 C 349.475 202.000,350.138 200.650,350.500 199.000 C 350.862 197.350,351.489 196.000,351.893 196.000 C 352.296 196.000,353.245 194.425,354.000 192.500 C 354.755 190.575,355.739 189.000,356.187 189.000 C 356.634 189.000,357.000 188.311,357.000 187.469 C 357.000 186.626,357.648 185.689,358.439 185.385 C 359.230 185.081,360.166 183.521,360.518 181.916 C 360.871 180.312,361.543 179.000,362.012 179.000 C 362.481 179.000,363.180 178.008,363.565 176.797 C 363.949 175.585,364.879 173.978,365.632 173.225 C 366.384 172.473,367.000 171.214,367.000 170.429 C 367.000 169.643,367.450 169.000,368.000 169.000 C 368.550 169.000,369.000 167.875,369.000 166.500 C 369.000 165.125,368.608 164.000,368.129 164.000 C 367.650 164.000,366.959 161.750,366.594 159.000 C 366.230 156.250,365.541 154.000,365.064 154.000 C 364.587 154.000,363.883 151.300,363.500 148.000 C 363.117 144.700,362.440 142.000,361.996 142.000 C 361.551 142.000,360.878 139.750,360.500 137.000 C 360.122 134.250,359.449 132.000,359.004 132.000 C 358.560 132.000,357.883 129.300,357.500 126.000 C 357.117 122.700,356.451 120.000,356.021 120.000 C 355.590 120.000,354.653 116.400,353.939 112.000 C 353.224 107.600,352.313 104.000,351.914 104.000 C 351.514 104.000,350.878 101.750,350.500 99.000 C 350.122 96.250,349.456 94.000,349.021 94.000 C 348.586 94.000,347.922 91.532,347.545 88.516 C 347.168 85.499,346.484 82.799,346.024 82.515 C 345.564 82.230,344.878 79.748,344.500 76.999 C 344.122 74.249,343.456 72.000,343.021 72.000 C 342.586 72.000,341.921 69.525,341.543 66.500 C 341.165 63.475,340.471 61.000,340.000 61.000 C 339.529 61.000,338.835 58.525,338.457 55.500 C 338.079 52.475,337.426 50.000,337.007 50.000 C 336.588 50.000,335.684 46.400,335.000 42.000 C 334.316 37.600,333.418 34.000,333.007 34.000 C 332.595 34.000,331.959 31.750,331.594 29.000 C 331.035 24.781,328.000 21.268,328.000 24.839 M276.250 80.662 C 275.563 80.940,275.000 81.818,275.000 82.615 C 275.000 83.411,274.352 84.311,273.561 84.615 C 272.770 84.919,271.834 86.479,271.482 88.084 C 271.129 89.688,270.427 91.000,269.921 91.000 C 269.414 91.000,269.000 91.643,269.000 92.429 C 269.000 93.214,268.418 94.452,267.708 95.179 C 266.997 95.905,265.817 97.963,265.086 99.750 C 264.355 101.537,263.398 103.000,262.958 103.000 C 262.519 103.000,261.862 104.350,261.500 106.000 C 261.138 107.650,260.427 109.000,259.921 109.000 C 259.414 109.000,259.000 109.689,259.000 110.531 C 259.000 111.374,258.352 112.311,257.561 112.615 C 256.770 112.919,255.834 114.479,255.482 116.084 C 255.129 117.688,254.427 119.000,253.921 119.000 C 253.414 119.000,253.000 119.689,253.000 120.531 C 253.000 121.374,252.366 122.306,251.590 122.604 C 250.815 122.901,249.879 124.345,249.511 125.812 C 249.143 127.280,248.520 128.709,248.128 128.990 C 247.735 129.270,246.122 132.088,244.543 135.250 C 242.965 138.412,241.332 141.000,240.916 141.000 C 240.500 141.000,239.862 142.350,239.500 144.000 C 239.138 145.650,238.427 147.000,237.921 147.000 C 237.414 147.000,237.000 147.689,237.000 148.531 C 237.000 149.374,236.352 150.311,235.561 150.615 C 234.770 150.919,233.834 152.479,233.482 154.084 C 233.129 155.688,232.427 157.000,231.921 157.000 C 231.414 157.000,231.000 157.653,231.000 158.450 C 231.000 159.248,230.389 160.260,229.641 160.700 C 228.894 161.140,227.734 163.188,227.064 165.250 C 226.393 167.313,225.430 169.000,224.922 169.000 C 224.415 169.000,224.000 169.643,224.000 170.429 C 224.000 171.214,223.384 172.473,222.632 173.225 C 221.879 173.978,220.949 175.585,220.565 176.797 C 220.180 178.008,219.481 179.000,219.012 179.000 C 218.543 179.000,217.862 180.350,217.500 182.001 C 216.572 186.223,218.995 186.082,152.500 185.776 L 92.500 185.500 96.222 181.625 C 98.269 179.494,100.212 176.907,100.540 175.875 C 100.867 174.844,101.509 174.000,101.967 174.000 C 102.425 174.000,106.614 170.119,111.275 165.375 C 115.936 160.631,120.144 156.351,120.625 155.862 C 121.106 155.374,124.425 152.086,128.000 148.556 C 131.575 145.026,135.942 140.644,137.705 138.819 C 139.468 136.993,143.968 132.463,147.705 128.752 C 151.442 125.040,155.006 121.496,155.624 120.876 C 167.560 108.902,171.026 106.000,173.397 106.000 C 174.828 106.000,176.000 105.594,176.000 105.098 C 176.000 104.602,178.700 103.883,182.000 103.500 C 185.300 103.117,188.000 102.460,188.000 102.039 C 188.000 101.324,202.611 98.431,204.250 98.821 C 204.662 98.920,205.000 98.565,205.000 98.034 C 205.000 97.503,207.250 96.770,210.000 96.406 C 212.750 96.041,215.000 95.394,215.000 94.969 C 215.000 94.544,217.700 93.883,221.000 93.500 C 224.300 93.117,227.000 92.442,227.000 92.000 C 227.000 91.558,229.700 90.883,233.000 90.500 C 236.300 90.117,239.000 89.450,239.000 89.017 C 239.000 88.584,241.475 87.921,244.500 87.543 C 247.525 87.165,250.000 86.483,250.000 86.026 C 250.000 85.570,252.700 84.883,256.000 84.500 C 259.300 84.117,262.000 83.471,262.000 83.064 C 262.000 82.657,264.587 81.866,267.750 81.307 C 274.076 80.189,278.199 79.876,276.250 80.662 M309.813 102.827 C 309.986 104.572,310.533 106.000,311.029 106.000 C 311.525 106.000,312.230 108.250,312.594 111.000 C 312.959 113.750,313.634 116.000,314.094 116.000 C 314.555 116.000,315.230 118.250,315.594 121.000 C 315.959 123.750,316.596 126.000,317.010 126.000 C 317.424 126.000,318.347 129.600,319.061 134.000 C 319.776 138.400,320.687 142.000,321.086 142.000 C 321.486 142.000,322.122 144.249,322.500 146.999 C 322.878 149.748,323.582 152.242,324.065 152.540 C 324.547 152.838,325.238 155.314,325.600 158.041 C 325.962 160.768,326.634 163.000,327.094 163.000 C 327.555 163.000,328.230 165.250,328.594 168.000 C 328.959 170.750,329.592 173.000,330.000 173.000 C 330.408 173.000,331.041 175.250,331.406 178.000 C 331.770 180.750,332.406 183.000,332.817 183.000 C 333.229 183.000,334.163 186.262,334.892 190.250 C 335.621 194.238,336.631 198.010,337.135 198.634 C 338.608 200.455,338.405 206.132,336.688 211.141 C 335.814 213.693,334.793 218.081,334.420 220.891 C 334.047 223.701,333.393 226.000,332.965 226.000 C 332.537 226.000,331.878 228.250,331.500 231.000 C 331.122 233.750,330.463 236.000,330.035 236.000 C 329.607 236.000,328.959 238.250,328.594 241.000 C 328.230 243.750,327.555 246.000,327.094 246.000 C 326.634 246.000,325.959 248.250,325.594 251.000 C 325.230 253.750,324.541 256.000,324.064 256.000 C 323.587 256.000,322.883 258.700,322.500 262.000 C 322.117 265.300,321.438 268.000,320.992 268.000 C 320.546 268.000,319.649 271.150,319.000 275.000 C 318.351 278.850,317.462 282.000,317.025 282.000 C 316.588 282.000,315.921 284.475,315.543 287.500 C 315.165 290.525,314.496 293.000,314.057 293.000 C 313.617 293.000,312.959 295.250,312.594 298.000 C 312.230 300.750,311.525 303.000,311.029 303.000 C 310.533 303.000,309.986 304.428,309.813 306.173 C 309.400 310.362,307.358 310.907,306.512 307.053 C 306.143 305.374,305.427 304.000,304.921 304.000 C 304.414 304.000,304.000 303.311,304.000 302.469 C 304.000 301.626,303.352 300.689,302.561 300.385 C 301.770 300.081,300.827 298.490,300.467 296.849 C 300.106 295.208,299.219 293.638,298.496 293.360 C 297.772 293.082,296.879 291.655,296.511 290.188 C 296.143 288.720,295.540 287.291,295.171 287.010 C 294.146 286.231,292.061 282.812,290.744 279.750 C 290.094 278.238,289.259 277.000,288.889 277.000 C 288.519 277.000,287.934 275.875,287.589 274.500 C 287.244 273.125,286.556 272.000,286.060 272.000 C 285.565 272.000,284.871 270.688,284.518 269.084 C 284.166 267.479,283.273 265.935,282.533 265.651 C 281.794 265.367,280.885 263.755,280.515 262.068 C 280.144 260.380,279.427 259.000,278.921 259.000 C 278.414 259.000,278.000 258.311,278.000 257.469 C 278.000 256.626,277.352 255.689,276.561 255.385 C 275.770 255.081,274.834 253.521,274.482 251.916 C 274.129 250.312,273.427 249.000,272.921 249.000 C 272.414 249.000,272.000 248.311,272.000 247.469 C 272.000 246.626,271.352 245.689,270.561 245.385 C 269.770 245.081,268.834 243.521,268.482 241.916 C 268.129 240.312,267.495 239.000,267.072 239.000 C 266.649 239.000,265.575 237.313,264.686 235.250 C 262.979 231.294,260.950 227.842,259.829 226.990 C 259.460 226.709,258.857 225.280,258.489 223.812 C 258.121 222.345,257.185 220.901,256.410 220.604 C 255.634 220.306,255.000 219.374,255.000 218.531 C 255.000 217.689,254.599 217.000,254.108 217.000 C 253.618 217.000,252.925 215.836,252.568 214.414 C 251.958 211.984,251.304 210.942,248.250 207.537 C 246.758 205.873,246.583 202.000,248.000 202.000 C 248.550 202.000,249.000 201.311,249.000 200.469 C 249.000 199.626,249.648 198.689,250.439 198.385 C 251.230 198.081,252.166 196.521,252.518 194.916 C 252.871 193.312,253.573 192.000,254.079 192.000 C 254.586 192.000,255.000 191.311,255.000 190.469 C 255.000 189.626,255.648 188.689,256.439 188.385 C 257.230 188.081,258.166 186.521,258.518 184.916 C 258.871 183.312,259.565 182.000,260.060 182.000 C 260.556 182.000,261.244 180.875,261.589 179.500 C 261.934 178.125,262.528 177.000,262.908 177.000 C 263.287 177.000,264.168 175.425,264.864 173.500 C 265.560 171.575,266.515 170.000,266.985 170.000 C 267.456 170.000,268.138 168.650,268.500 167.000 C 268.862 165.350,269.573 164.000,270.079 164.000 C 270.586 164.000,271.000 163.311,271.000 162.469 C 271.000 161.626,271.648 160.689,272.439 160.385 C 273.230 160.081,274.158 158.558,274.500 157.000 C 274.842 155.442,275.770 153.919,276.561 153.615 C 277.352 153.311,278.000 152.374,278.000 151.531 C 278.000 150.689,278.379 150.000,278.842 150.000 C 279.305 150.000,280.223 148.200,280.882 146.000 C 281.541 143.800,282.463 142.000,282.932 142.000 C 283.400 142.000,284.075 140.836,284.432 139.414 C 285.039 136.995,285.683 135.965,288.701 132.586 C 289.361 131.847,290.189 130.095,290.541 128.693 C 290.893 127.292,291.815 125.901,292.590 125.604 C 293.366 125.306,294.000 124.374,294.000 123.531 C 294.000 122.689,294.414 122.000,294.921 122.000 C 295.427 122.000,296.138 120.650,296.500 119.000 C 296.862 117.350,297.519 116.000,297.958 116.000 C 298.398 116.000,299.355 114.537,300.086 112.750 C 300.817 110.963,301.997 108.905,302.708 108.179 C 303.418 107.452,304.000 106.214,304.000 105.429 C 304.000 104.643,304.401 104.000,304.892 104.000 C 305.382 104.000,306.074 102.843,306.428 101.429 C 307.292 97.988,309.422 98.868,309.813 102.827 M215.671 223.775 C 216.315 224.185,217.143 225.720,217.511 227.188 C 217.879 228.655,218.815 230.099,219.590 230.396 C 220.366 230.694,221.000 231.626,221.000 232.469 C 221.000 233.311,221.414 234.000,221.921 234.000 C 222.427 234.000,223.138 235.350,223.500 237.000 C 223.862 238.650,224.538 240.000,225.002 240.000 C 225.466 240.000,226.365 241.575,227.000 243.500 C 227.635 245.425,228.521 247.000,228.969 247.000 C 229.417 247.000,230.066 248.125,230.411 249.500 C 230.756 250.875,231.444 252.000,231.940 252.000 C 232.435 252.000,233.129 253.312,233.482 254.916 C 233.834 256.521,234.770 258.081,235.561 258.385 C 236.352 258.689,237.000 259.626,237.000 260.469 C 237.000 261.311,237.414 262.000,237.921 262.000 C 238.427 262.000,239.129 263.312,239.482 264.916 C 239.834 266.521,240.770 268.081,241.561 268.385 C 242.352 268.689,243.000 269.626,243.000 270.469 C 243.000 271.311,243.401 272.000,243.892 272.000 C 244.382 272.000,245.085 273.202,245.454 274.671 C 245.822 276.140,246.996 278.451,248.062 279.806 C 249.128 281.161,250.000 282.884,250.000 283.635 C 250.000 284.386,250.441 285.000,250.981 285.000 C 251.520 285.000,252.244 286.125,252.589 287.500 C 252.934 288.875,253.582 290.000,254.029 290.000 C 254.476 290.000,255.129 291.312,255.482 292.916 C 255.834 294.521,256.770 296.081,257.561 296.385 C 258.352 296.689,259.000 297.626,259.000 298.469 C 259.000 299.311,259.450 300.000,260.000 300.000 C 260.550 300.000,261.000 300.689,261.000 301.531 C 261.000 302.374,261.634 303.306,262.410 303.604 C 263.185 303.901,264.121 305.350,264.491 306.822 C 264.860 308.295,266.700 312.034,268.581 315.131 C 270.461 318.228,272.000 321.265,272.000 321.881 C 272.000 322.496,272.420 323.000,272.933 323.000 C 273.446 323.000,274.181 324.012,274.567 325.250 C 274.954 326.488,275.771 327.844,276.385 328.264 C 276.998 328.684,275.475 328.729,273.000 328.362 C 270.525 327.996,268.275 327.360,268.000 326.950 C 267.725 326.539,264.913 325.880,261.750 325.486 C 258.587 325.092,256.000 324.423,256.000 324.000 C 256.000 323.577,253.532 322.922,250.516 322.545 C 247.499 322.168,244.802 321.488,244.521 321.034 C 244.241 320.580,240.184 319.639,235.506 318.943 C 230.827 318.247,227.000 317.345,227.000 316.937 C 227.000 316.530,224.300 315.883,221.000 315.500 C 217.700 315.117,215.000 314.440,215.000 313.996 C 215.000 313.551,212.750 312.878,210.000 312.500 C 207.250 312.122,205.000 311.449,205.000 311.004 C 205.000 310.560,202.300 309.883,199.000 309.500 C 195.700 309.117,193.000 308.430,193.000 307.974 C 193.000 307.517,190.525 306.835,187.500 306.457 C 184.475 306.079,182.000 305.423,182.000 305.000 C 182.000 304.577,179.469 303.914,176.376 303.528 L 170.753 302.825 135.376 267.481 C 115.919 248.042,100.000 231.657,100.000 231.069 C 100.000 230.481,99.325 230.000,98.500 230.000 C 97.675 230.000,97.000 229.425,97.000 228.722 C 97.000 227.366,94.210 224.628,91.891 223.709 C 91.126 223.406,118.400 223.129,152.500 223.094 C 186.600 223.059,215.027 223.366,215.671 223.775 " stroke="none" fill="#000000" fill-rule="evenodd"></path></g></svg>