<svg id="svg" version="1.1" width="515" height="515" xmlns="http://www.w3.org/2000/svg" xmlns:xlink="http://www.w3.org/1999/xlink" style="display: block;"><g id="svgg"><path id="path0" d="M332.500 14.094 C 325.349 14.834,311.866 17.618,303.429 20.098 C 301.740 20.594,299.377 21.000,298.179 21.000 C 296.676 21.000,296.000 21.613,296.000 22.974 C 296.000 25.011,292.680 27.197,287.819 28.361 C 286.066 28.781,285.028 29.773,284.819 31.227 C 284.597 32.778,283.277 33.913,280.461 34.976 C 271.815 38.238,266.132 42.952,270.750 43.029 C 272.563 43.060,269.401 46.271,263.592 50.297 C 262.167 51.285,261.000 52.924,261.000 53.940 C 261.000 58.044,236.538 59.429,215.940 56.491 C 199.730 54.180,189.298 54.811,178.000 58.787 C 173.325 60.432,167.862 62.064,165.861 62.413 C 161.308 63.209,150.967 68.254,144.866 72.656 C 142.317 74.495,139.918 76.000,139.534 76.000 C 139.151 76.000,136.961 77.507,134.668 79.349 C 132.376 81.191,129.037 83.538,127.250 84.565 C 125.462 85.591,124.000 86.732,124.000 87.099 C 124.000 88.841,112.220 92.493,107.025 92.363 C 101.890 92.234,101.300 91.949,97.525 87.792 C 86.419 75.561,77.654 77.663,83.311 91.201 C 86.536 98.921,111.492 103.461,122.066 98.250 C 124.577 97.012,126.961 96.000,127.364 96.000 C 127.767 96.000,130.478 94.476,133.390 92.614 C 144.021 85.813,162.000 78.908,162.000 81.625 C 162.000 85.106,152.342 102.394,145.408 111.325 C 140.036 118.244,137.041 119.686,124.642 121.327 L 115.500 122.536 112.701 131.518 C 111.161 136.458,108.961 142.607,107.812 145.182 C 105.844 149.590,105.821 149.964,107.423 151.566 C 112.014 156.156,114.386 163.226,114.950 174.000 L 115.500 184.500 247.000 184.500 L 378.500 184.500 378.778 171.378 L 379.056 158.256 375.590 154.790 C 373.684 152.884,368.721 149.841,364.562 148.027 C 360.403 146.214,357.000 144.342,357.000 143.868 C 357.000 143.394,355.519 141.317,353.709 139.253 C 351.899 137.189,349.761 134.540,348.959 133.366 C 348.157 132.193,344.946 128.096,341.825 124.263 C 335.240 116.177,332.009 111.139,332.004 108.950 C 331.998 106.373,342.574 96.181,345.628 95.821 C 347.237 95.631,348.996 94.458,349.926 92.953 C 355.029 84.693,356.338 83.000,357.615 83.000 C 358.395 83.000,359.790 81.411,360.716 79.469 C 362.751 75.203,365.485 74.340,370.427 76.405 C 374.907 78.277,378.335 76.649,380.661 71.546 C 381.425 69.871,383.359 66.250,384.958 63.500 C 388.731 57.014,388.984 57.947,381.399 50.362 C 377.769 46.732,374.175 42.269,373.413 40.445 C 372.651 38.621,370.661 36.322,368.990 35.335 C 366.939 34.123,365.616 32.288,364.914 29.679 C 363.218 23.383,361.800 21.000,359.747 21.000 C 358.685 21.000,356.695 20.118,355.325 19.041 C 352.923 17.152,342.672 12.860,341.212 13.133 C 340.821 13.206,336.900 13.639,332.500 14.094 M185.193 121.769 C 185.912 122.743,189.276 125.929,192.669 128.849 C 201.638 136.569,204.000 140.381,204.000 147.133 L 204.000 152.658 208.975 154.989 C 211.712 156.270,214.940 158.372,216.150 159.659 L 218.349 162.000 178.424 161.994 L 138.500 161.987 136.885 159.148 C 135.997 157.587,133.177 155.296,130.618 154.057 C 125.622 151.638,124.000 149.578,124.000 145.648 C 124.000 140.415,124.662 140.000,132.998 140.000 C 148.274 140.000,165.322 134.046,176.337 124.865 C 182.855 119.433,183.342 119.263,185.193 121.769 M249.992 123.679 C 260.126 127.620,260.686 129.204,255.592 139.512 L 251.831 147.121 253.490 151.310 C 254.403 153.615,256.554 156.963,258.271 158.750 L 261.392 162.000 254.618 162.000 C 248.059 162.000,247.725 161.877,244.125 158.130 C 241.461 155.357,238.739 153.775,234.523 152.550 C 225.873 150.035,222.571 146.314,221.064 137.380 C 218.993 125.101,219.714 121.631,224.500 120.834 C 232.330 119.531,242.145 120.626,249.992 123.679 M310.249 129.432 C 319.963 133.727,325.345 137.651,328.792 142.949 C 330.990 146.327,333.312 148.521,335.778 149.552 C 337.810 150.401,340.467 152.030,341.683 153.171 C 342.898 154.313,346.694 156.212,350.119 157.392 C 362.389 161.617,360.018 162.000,321.583 162.000 C 292.887 162.000,286.000 161.746,286.000 160.688 C 286.000 158.939,280.462 154.868,275.509 152.975 C 269.699 150.755,269.911 148.807,276.738 141.676 C 279.991 138.279,283.457 134.262,284.441 132.750 C 285.999 130.356,286.894 129.993,291.365 129.944 C 294.189 129.913,298.075 129.291,300.000 128.563 C 301.925 127.835,303.782 127.185,304.126 127.119 C 304.470 127.054,307.225 128.094,310.249 129.432 M115.000 213.500 L 115.000 225.007 246.750 224.754 L 378.500 224.500 378.500 213.500 L 378.500 202.500 246.750 202.246 L 115.000 201.993 115.000 213.500 M115.670 242.663 C 115.302 243.032,115.000 248.208,115.000 254.167 L 115.000 265.000 247.033 265.000 L 379.066 265.000 378.783 253.750 L 378.500 242.500 247.420 242.246 C 175.327 242.107,116.039 242.294,115.670 242.663 M115.000 331.235 C 115.000 397.904,118.588 416.699,135.689 439.594 C 136.960 441.296,138.000 443.019,138.000 443.423 C 138.000 446.539,160.480 469.335,170.619 476.500 C 173.862 478.791,187.995 487.000,188.697 487.000 C 188.954 487.000,192.351 488.399,196.246 490.108 C 265.338 520.433,349.565 481.203,372.536 408.000 C 378.395 389.331,378.367 389.683,378.436 334.500 L 378.500 283.500 367.777 283.216 C 354.554 282.867,356.085 276.058,355.688 337.000 L 355.366 386.500 352.699 395.885 C 323.006 500.380,174.684 504.694,142.748 401.991 C 141.296 397.321,139.548 391.700,138.864 389.500 C 137.962 386.600,137.518 371.400,137.252 334.250 L 136.884 283.000 125.942 283.000 L 115.000 283.000 115.000 331.235 M155.000 328.807 C 155.000 389.809,156.285 397.267,170.536 419.000 C 174.626 425.237,186.949 439.000,188.444 439.000 C 188.840 439.000,191.085 440.575,193.435 442.500 C 195.784 444.425,198.070 446.000,198.515 446.000 C 198.961 446.000,201.412 447.339,203.964 448.977 C 221.025 459.925,268.095 463.098,277.450 453.931 C 277.973 453.419,279.323 452.987,280.450 452.970 C 286.108 452.888,301.694 442.352,312.671 431.190 C 334.819 408.668,337.143 399.524,337.684 332.750 L 338.087 283.000 327.104 283.000 L 316.121 283.000 315.793 331.750 L 315.465 380.500 311.762 390.418 C 297.333 429.070,250.798 448.574,217.000 430.135 C 214.525 428.785,211.600 427.189,210.500 426.590 C 205.360 423.789,192.000 411.778,192.000 409.959 C 192.000 409.516,190.909 407.857,189.576 406.273 C 188.243 404.689,185.950 400.764,184.481 397.552 C 178.260 383.952,178.628 387.729,178.225 333.250 L 177.853 283.000 166.427 283.000 L 155.000 283.000 155.000 328.807 M195.997 328.750 C 195.994 372.872,196.072 374.767,198.183 382.000 C 210.618 424.603,267.528 431.942,290.152 393.861 C 296.681 382.871,296.925 380.538,296.965 328.750 L 297.000 283.000 286.029 283.000 L 275.058 283.000 274.779 328.750 C 274.500 374.480,274.499 374.502,272.165 379.000 C 261.155 400.213,234.113 401.357,222.212 381.113 L 219.500 376.500 219.204 329.750 L 218.908 283.000 207.454 283.000 L 196.000 283.000 195.997 328.750 " stroke="none" fill="#000000" fill-rule="evenodd"></path></g></svg>