<svg id="svg" xmlns="http://www.w3.org/2000/svg" xmlns:xlink="http://www.w3.org/1999/xlink" width="400" height="400" viewBox="0, 0, 400,400"><g id="svgg"><path id="path0" d="M182.875 2.511 C 119.325 4.817,70.296 22.211,47.690 50.472 C 29.444 73.283,19.685 103.763,17.268 145.500 C 12.667 224.929,24.262 272.892,55.406 303.251 C 68.144 315.668,87.066 326.338,104.149 330.735 L 105.174 330.999 105.337 333.663 C 105.427 335.129,105.501 344.888,105.502 355.351 C 105.504 374.918,105.560 376.206,106.540 379.250 C 108.435 385.139,111.796 388.503,116.925 389.644 C 123.584 391.126,129.190 388.003,138.729 377.500 C 151.122 363.856,162.462 351.114,167.614 345.045 L 169.592 342.716 170.734 342.854 C 177.260 343.645,212.117 343.944,222.750 343.299 C 254.041 341.404,279.201 336.891,303.750 328.770 C 343.223 315.712,368.491 286.400,377.900 242.753 C 382.342 222.146,385.269 183.253,384.278 158.000 C 382.258 106.540,370.920 70.336,349.350 46.473 C 321.962 16.172,259.676 -0.276,182.875 2.511 M212.375 29.998 C 268.747 31.816,310.833 44.906,329.213 66.340 C 349.402 89.881,359.349 134.340,356.295 187.375 C 354.143 224.747,350.492 242.969,341.672 260.365 C 330.393 282.611,312.484 296.759,286.585 303.882 C 262.848 310.410,243.590 313.610,217.875 315.298 C 212.509 315.650,188.409 315.736,180.750 315.431 L 175.875 315.236 169.000 323.426 C 129.761 370.171,123.262 377.172,118.841 377.456 L 117.307 377.555 116.504 375.472 L 115.701 373.390 115.788 339.613 L 115.875 305.835 112.125 304.648 C 70.687 291.529,48.912 259.659,44.764 206.059 C 43.897 194.856,43.898 168.437,44.767 151.625 C 47.387 100.892,61.930 69.339,90.625 52.126 C 118.178 35.598,158.544 28.262,212.375 29.998 M196.180 72.091 C 193.195 72.929,191.965 76.519,193.716 79.282 C 194.830 81.038,195.205 81.133,203.375 81.732 C 225.235 83.334,240.983 89.218,256.442 101.557 C 276.872 117.863,287.626 140.959,289.010 171.500 C 289.364 179.309,289.665 180.309,292.021 181.511 C 295.776 183.426,299.001 180.683,298.999 175.575 C 298.973 116.475,258.806 73.868,201.250 71.889 C 198.417 71.791,197.054 71.846,196.180 72.091 M128.162 83.129 C 120.311 85.120,106.588 96.488,101.123 105.528 C 94.877 115.861,96.325 123.163,110.142 151.000 C 133.626 198.312,159.720 227.609,199.750 251.608 C 220.062 263.786,244.713 275.407,253.907 277.140 C 263.083 278.870,272.215 274.462,281.531 263.806 C 291.734 252.135,294.499 244.749,291.235 237.875 C 288.264 231.617,256.578 208.601,248.000 206.471 C 240.809 204.685,235.431 207.293,229.188 215.595 C 221.567 225.726,217.290 226.442,202.500 220.061 C 179.527 210.149,161.640 190.317,152.107 164.190 C 149.291 156.471,150.850 152.780,159.810 145.954 C 168.008 139.709,170.245 135.036,168.645 127.494 C 167.285 121.076,154.841 102.609,142.202 88.250 C 138.086 83.574,133.297 81.827,128.162 83.129 M205.802 97.259 C 202.181 97.776,200.326 101.550,202.222 104.540 C 203.305 106.248,204.331 106.630,209.500 107.252 C 242.625 111.235,262.270 131.609,263.378 163.125 C 263.614 169.850,264.755 171.970,268.150 171.995 C 272.557 172.026,273.760 168.894,273.023 159.313 C 270.431 125.637,247.814 102.634,212.500 97.758 C 207.442 97.059,207.284 97.047,205.802 97.259 M212.561 123.869 C 207.053 125.426,207.968 132.519,213.750 133.091 C 229.327 134.633,235.815 140.738,237.993 155.907 C 238.716 160.941,238.709 160.913,239.437 161.778 C 241.332 164.031,244.631 164.063,246.773 161.850 L 247.625 160.970 247.609 156.673 C 247.554 141.745,239.198 129.751,226.000 125.655 C 219.468 123.629,215.349 123.081,212.561 123.869 " stroke="none" fill="#000000" fill-rule="evenodd"></path></g></svg>