<svg id="svg" version="1.1" width="515" height="515" xmlns="http://www.w3.org/2000/svg" xmlns:xlink="http://www.w3.org/1999/xlink" style="display: block;"><g id="svgg"><path id="path0" d="M296.000 4.167 C 296.000 4.625,294.902 5.000,293.559 5.000 C 292.216 5.000,290.840 5.450,290.500 6.000 C 290.160 6.550,288.784 7.000,287.441 7.000 C 286.098 7.000,285.000 7.450,285.000 8.000 C 285.000 8.550,284.412 9.000,283.693 9.000 C 282.000 9.000,270.414 14.843,266.343 17.750 C 264.609 18.988,262.698 20.000,262.096 20.000 C 261.493 20.000,261.000 20.450,261.000 21.000 C 261.000 21.550,260.100 22.000,259.000 22.000 C 257.900 22.000,257.000 22.450,257.000 23.000 C 257.000 23.550,256.100 24.000,255.000 24.000 C 253.900 24.000,253.000 24.450,253.000 25.000 C 253.000 25.550,252.325 26.000,251.500 26.000 C 250.675 26.000,250.000 26.450,250.000 27.000 C 250.000 27.550,249.199 28.000,248.221 28.000 C 247.242 28.000,245.793 28.900,245.000 30.000 C 244.207 31.100,242.857 32.000,242.000 32.000 C 241.143 32.000,239.793 32.900,239.000 34.000 C 238.207 35.100,236.979 36.000,236.270 36.000 C 235.562 36.000,233.569 37.350,231.843 39.000 C 230.116 40.650,228.328 42.000,227.869 42.000 C 225.528 42.000,205.000 63.270,205.000 65.695 C 205.000 66.413,204.550 67.000,204.000 67.000 C 203.450 67.000,203.000 67.900,203.000 69.000 C 203.000 70.100,202.550 71.000,202.000 71.000 C 200.725 71.000,200.667 86.408,201.934 88.764 C 202.447 89.719,203.445 92.638,204.152 95.250 C 204.859 97.862,205.788 100.000,206.218 100.000 C 206.648 100.000,207.000 100.900,207.000 102.000 C 207.000 103.100,207.450 104.000,208.000 104.000 C 208.550 104.000,209.000 104.900,209.000 106.000 C 209.000 107.100,209.450 108.000,210.000 108.000 C 210.550 108.000,211.000 108.862,211.000 109.917 C 211.000 110.971,211.416 111.983,211.925 112.167 C 212.434 112.350,212.996 113.175,213.175 114.000 C 213.354 114.825,214.287 116.228,215.250 117.117 C 216.213 118.007,217.001 119.357,217.001 120.117 C 217.002 121.436,219.515 124.902,223.956 129.714 C 225.080 130.932,226.000 132.300,226.000 132.754 C 226.000 133.208,227.800 135.569,230.000 138.000 C 232.200 140.431,234.000 142.805,234.000 143.275 C 234.000 143.745,236.265 146.336,239.032 149.032 C 241.800 151.728,243.938 154.116,243.782 154.338 C 243.433 154.839,250.810 163.729,253.382 165.907 C 254.417 166.783,256.671 168.850,258.390 170.500 C 260.108 172.150,262.749 174.139,264.257 174.919 C 265.766 175.699,267.000 176.712,267.000 177.169 C 267.000 177.626,268.350 178.000,270.000 178.000 C 273.102 178.000,274.708 171.173,272.000 169.500 C 271.450 169.160,271.000 167.334,271.000 165.441 C 271.000 163.548,270.550 162.000,270.000 162.000 C 269.450 162.000,269.000 160.650,269.000 159.000 C 269.000 157.350,268.550 156.000,268.000 156.000 C 267.450 156.000,267.000 154.650,267.000 153.000 C 267.000 151.350,266.550 150.000,266.000 150.000 C 265.450 150.000,265.000 148.902,265.000 147.559 C 265.000 146.216,264.550 144.840,264.000 144.500 C 263.450 144.160,263.000 143.002,263.000 141.927 C 263.000 140.852,262.587 139.191,262.083 138.236 C 261.579 137.281,260.412 133.912,259.490 130.750 C 258.568 127.588,257.406 125.000,256.907 125.000 C 256.408 125.000,256.000 123.173,256.000 120.941 C 256.000 118.490,255.604 117.127,255.000 117.500 C 254.396 117.873,254.000 116.510,254.000 114.059 C 254.000 111.827,253.550 110.000,253.000 110.000 C 252.450 110.000,252.000 107.552,252.000 104.559 C 252.000 101.566,251.550 98.840,251.000 98.500 C 250.450 98.160,250.000 94.984,250.000 91.441 C 250.000 87.814,250.437 85.000,251.000 85.000 C 251.550 85.000,252.000 83.677,252.000 82.059 C 252.000 80.441,252.450 78.840,253.000 78.500 C 253.550 78.160,254.000 76.784,254.000 75.441 C 254.000 74.098,254.450 73.000,255.000 73.000 C 255.550 73.000,256.000 72.311,256.000 71.469 C 256.000 70.626,256.634 69.694,257.408 69.397 C 258.183 69.100,259.363 67.539,260.030 65.928 C 260.697 64.318,261.638 63.000,262.121 63.000 C 262.605 63.000,263.000 62.410,263.000 61.689 C 263.000 60.967,263.900 59.411,265.000 58.230 C 266.100 57.050,267.000 55.615,267.000 55.042 C 267.000 54.469,267.450 54.000,268.000 54.000 C 268.550 54.000,269.000 53.281,269.000 52.401 C 269.000 51.522,270.350 49.541,272.000 48.000 C 273.650 46.459,275.000 44.668,275.000 44.020 C 275.000 43.373,276.800 41.114,279.000 39.000 C 281.200 36.886,283.000 34.743,283.000 34.237 C 283.000 33.732,284.947 31.257,287.326 28.738 C 289.706 26.219,292.968 22.497,294.576 20.466 C 296.184 18.436,298.512 15.588,299.749 14.137 C 300.986 12.687,301.998 10.938,301.999 10.250 C 301.999 9.563,302.450 9.000,303.000 9.000 C 305.179 9.000,304.035 4.045,301.750 3.583 C 298.550 2.935,296.000 3.194,296.000 4.167 M207.000 5.933 C 207.000 6.446,206.193 7.121,205.206 7.435 C 203.188 8.075,199.669 11.444,189.500 22.470 C 185.650 26.645,180.588 32.060,178.250 34.504 C 175.912 36.948,174.000 39.409,174.000 39.974 C 174.000 40.538,173.550 41.000,173.000 41.000 C 172.450 41.000,172.000 41.576,172.000 42.279 C 172.000 42.983,171.100 44.207,170.000 45.000 C 168.900 45.793,168.000 47.017,168.000 47.721 C 168.000 48.424,167.550 49.000,167.000 49.000 C 166.450 49.000,166.000 49.679,166.000 50.509 C 166.000 51.339,164.650 53.431,163.000 55.157 C 161.350 56.884,160.000 58.905,160.000 59.648 C 160.000 60.392,159.550 61.000,159.000 61.000 C 158.450 61.000,157.999 61.563,157.999 62.250 C 157.998 63.332,156.719 65.141,152.020 70.708 C 151.459 71.372,151.000 72.610,151.000 73.458 C 151.000 74.306,150.550 75.000,150.000 75.000 C 149.450 75.000,149.000 75.900,149.000 77.000 C 149.000 78.100,148.550 79.000,148.000 79.000 C 147.450 79.000,147.000 79.862,147.000 80.917 C 147.000 81.971,146.564 82.983,146.032 83.167 C 145.499 83.350,144.953 84.963,144.819 86.750 C 144.685 88.537,144.220 90.000,143.787 90.000 C 143.354 90.000,143.000 91.800,143.000 94.000 C 143.000 96.200,142.550 98.000,142.000 98.000 C 141.450 98.000,141.000 99.800,141.000 102.000 C 141.000 104.200,141.450 106.000,142.000 106.000 C 142.550 106.000,143.000 107.350,143.000 109.000 C 143.000 110.650,143.450 112.000,144.000 112.000 C 144.550 112.000,145.000 112.801,145.000 113.779 C 145.000 114.758,145.876 116.190,146.946 116.961 C 148.017 117.733,148.665 118.732,148.387 119.182 C 148.109 119.632,148.434 120.000,149.108 120.000 C 149.782 120.000,150.043 120.290,149.688 120.645 C 149.008 121.326,164.443 137.000,165.794 137.000 C 166.226 137.000,168.569 138.800,171.000 141.000 C 173.431 143.200,175.901 145.000,176.489 145.000 C 177.077 145.000,178.207 145.900,179.000 147.000 C 179.793 148.100,181.036 149.000,181.763 149.000 C 182.489 149.000,184.050 149.900,185.230 151.000 C 186.411 152.100,188.192 153.000,189.189 153.000 C 190.185 153.000,191.000 153.620,191.000 154.379 C 191.000 155.137,192.350 156.317,194.000 157.000 C 195.650 157.683,197.000 158.638,197.000 159.121 C 197.000 159.605,197.900 160.000,199.000 160.000 C 200.100 160.000,201.000 160.450,201.000 161.000 C 201.000 161.550,201.675 162.000,202.500 162.000 C 203.325 162.000,204.000 162.450,204.000 163.000 C 204.000 163.550,204.675 164.000,205.500 164.000 C 206.325 164.000,207.000 164.450,207.000 165.000 C 207.000 165.550,207.900 166.000,209.000 166.000 C 210.100 166.000,211.000 166.450,211.000 167.000 C 211.000 167.550,211.900 168.000,213.000 168.000 C 214.100 168.000,215.000 168.450,215.000 169.000 C 215.000 169.550,215.900 170.000,217.000 170.000 C 218.100 170.000,219.000 170.450,219.000 171.000 C 219.000 171.550,220.125 172.000,221.500 172.000 C 222.875 172.000,224.000 172.450,224.000 173.000 C 224.000 173.550,224.873 174.000,225.941 174.000 C 227.009 174.000,228.160 174.450,228.500 175.000 C 228.840 175.550,230.216 176.000,231.559 176.000 C 232.902 176.000,234.000 176.450,234.000 177.000 C 234.000 177.550,236.250 178.000,239.000 178.000 C 243.889 178.000,244.000 177.933,244.000 175.000 C 244.000 173.350,243.626 172.000,243.169 172.000 C 242.712 172.000,241.699 170.762,240.919 169.250 C 240.139 167.737,238.263 165.307,236.750 163.849 C 235.238 162.391,233.992 160.816,233.982 160.349 C 233.959 159.300,229.442 153.613,225.750 149.986 C 224.237 148.499,223.000 146.743,223.000 146.083 C 223.000 145.422,222.550 145.160,222.000 145.500 C 221.450 145.840,221.000 145.516,221.000 144.780 C 221.000 144.044,220.100 142.793,219.000 142.000 C 217.900 141.207,217.000 140.071,217.000 139.475 C 217.000 138.879,215.430 136.677,213.511 134.582 C 211.592 132.487,210.312 130.305,210.666 129.732 C 211.039 129.128,210.825 128.990,210.155 129.405 C 209.520 129.797,209.000 129.623,209.000 129.017 C 209.000 128.412,208.100 126.950,207.000 125.770 C 205.900 124.589,205.000 123.033,205.000 122.311 C 205.000 121.590,204.634 121.000,204.187 121.000 C 203.739 121.000,202.755 119.425,202.000 117.500 C 201.245 115.575,200.261 114.000,199.813 114.000 C 199.366 114.000,199.000 113.100,199.000 112.000 C 199.000 110.900,198.550 110.000,198.000 110.000 C 197.450 110.000,197.000 109.100,197.000 108.000 C 197.000 106.900,196.550 106.000,196.000 106.000 C 195.450 106.000,195.000 104.902,195.000 103.559 C 195.000 102.216,194.550 100.840,194.000 100.500 C 193.428 100.146,193.000 94.990,193.000 88.441 C 193.000 81.480,193.392 77.000,194.000 77.000 C 194.550 77.000,195.000 74.975,195.000 72.500 C 195.000 70.025,195.450 68.000,196.000 68.000 C 196.550 68.000,197.000 66.452,197.000 64.559 C 197.000 62.666,197.450 60.840,198.000 60.500 C 198.550 60.160,199.000 58.559,199.000 56.941 C 199.000 55.323,199.450 54.000,200.000 54.000 C 200.550 54.000,201.000 52.650,201.000 51.000 C 201.000 49.350,201.450 48.000,202.000 48.000 C 202.550 48.000,203.000 46.650,203.000 45.000 C 203.000 43.350,203.450 42.000,204.000 42.000 C 204.550 42.000,205.000 40.650,205.000 39.000 C 205.000 37.350,205.450 36.000,206.000 36.000 C 206.550 36.000,207.000 34.650,207.000 33.000 C 207.000 31.350,207.450 30.000,208.000 30.000 C 208.550 30.000,209.000 28.902,209.000 27.559 C 209.000 26.216,209.450 24.840,210.000 24.500 C 210.550 24.160,211.000 22.810,211.000 21.500 C 211.000 20.190,211.450 18.840,212.000 18.500 C 212.550 18.160,213.000 16.585,213.000 15.000 C 213.000 13.415,213.450 11.840,214.000 11.500 C 217.125 9.569,215.017 5.000,211.000 5.000 C 208.800 5.000,207.000 5.420,207.000 5.933 M370.000 32.877 C 370.000 33.359,365.387 33.831,359.750 33.925 C 354.113 34.020,349.350 34.525,349.167 35.048 C 348.983 35.572,346.171 36.000,342.917 36.000 C 339.639 36.000,337.000 36.446,337.000 37.000 C 337.000 37.550,334.750 38.000,332.000 38.000 C 329.250 38.000,327.000 38.366,327.000 38.813 C 327.000 39.260,324.863 39.736,322.250 39.869 C 319.637 40.003,317.073 40.537,316.550 41.056 C 316.028 41.575,314.367 42.000,312.859 42.000 C 311.351 42.000,309.840 42.450,309.500 43.000 C 309.160 43.550,307.585 44.000,306.000 44.000 C 304.415 44.000,302.840 44.450,302.500 45.000 C 302.160 45.550,300.810 46.000,299.500 46.000 C 298.190 46.000,296.840 46.450,296.500 47.000 C 296.160 47.550,295.009 48.000,293.941 48.000 C 292.873 48.000,292.000 48.450,292.000 49.000 C 292.000 49.550,291.132 50.000,290.071 50.000 C 289.011 50.000,287.468 50.675,286.643 51.500 C 285.818 52.325,284.310 53.000,283.292 53.000 C 282.274 53.000,280.793 53.900,280.000 55.000 C 279.207 56.100,277.944 57.000,277.193 57.000 C 274.243 57.000,265.237 67.858,264.520 72.278 C 263.208 80.371,262.815 97.000,263.936 97.000 C 264.579 97.000,265.000 99.571,265.000 103.500 C 265.000 107.167,265.436 110.000,266.000 110.000 C 266.550 110.000,267.000 111.773,267.000 113.941 C 267.000 116.109,267.450 118.160,268.000 118.500 C 268.550 118.840,269.000 120.891,269.000 123.059 C 269.000 125.227,269.450 127.000,270.000 127.000 C 270.550 127.000,271.000 128.155,271.000 129.566 C 271.000 130.977,271.453 132.978,272.007 134.013 C 272.561 135.047,273.109 137.043,273.225 138.447 C 273.341 139.851,273.788 141.000,274.218 141.000 C 274.648 141.000,275.000 141.906,275.000 143.014 C 275.000 144.121,275.450 145.921,276.000 147.014 C 276.550 148.106,277.450 149.894,278.000 150.986 C 278.550 152.079,279.000 153.852,279.000 154.927 C 279.000 156.002,279.450 157.160,280.000 157.500 C 280.550 157.840,281.000 158.991,281.000 160.059 C 281.000 161.127,281.450 162.000,282.000 162.000 C 282.550 162.000,283.000 163.098,283.000 164.441 C 283.000 165.784,283.450 167.160,284.000 167.500 C 284.550 167.840,285.000 168.991,285.000 170.059 C 285.000 171.127,285.450 172.000,286.000 172.000 C 286.550 172.000,287.000 172.900,287.000 174.000 C 287.000 175.100,287.398 176.000,287.883 176.000 C 288.369 176.000,289.031 176.788,289.354 177.750 C 290.897 182.344,294.285 186.000,297.000 186.000 C 301.835 186.000,302.000 185.013,302.000 156.071 C 302.000 138.690,302.358 129.000,303.000 129.000 C 303.588 129.000,304.000 125.500,304.000 120.500 C 304.000 115.500,304.412 112.000,305.000 112.000 C 305.550 112.000,306.000 110.200,306.000 108.000 C 306.000 105.800,306.450 104.000,307.000 104.000 C 307.550 104.000,308.000 102.650,308.000 101.000 C 308.000 99.350,308.450 98.000,309.000 98.000 C 309.550 98.000,310.000 97.100,310.000 96.000 C 310.000 94.900,310.450 94.000,311.000 94.000 C 311.550 94.000,312.000 93.199,312.000 92.221 C 312.000 91.242,312.900 89.793,314.000 89.000 C 315.100 88.207,316.000 87.196,316.000 86.753 C 316.000 85.298,324.912 77.000,326.474 77.000 C 327.313 77.000,328.000 76.550,328.000 76.000 C 328.000 75.450,328.576 75.000,329.279 75.000 C 329.983 75.000,331.207 74.100,332.000 73.000 C 332.793 71.900,334.143 71.000,335.000 71.000 C 335.857 71.000,337.207 70.100,338.000 69.000 C 338.793 67.900,340.143 67.000,341.000 67.000 C 341.857 67.000,343.207 66.100,344.000 65.000 C 344.793 63.900,346.242 63.000,347.221 63.000 C 348.199 63.000,349.000 62.605,349.000 62.121 C 349.000 61.638,350.350 60.683,352.000 60.000 C 353.650 59.317,355.000 58.362,355.000 57.879 C 355.000 57.395,355.900 57.000,357.000 57.000 C 358.100 57.000,359.000 56.633,359.000 56.185 C 359.000 55.737,360.575 54.619,362.500 53.701 C 364.425 52.783,366.000 51.575,366.000 51.016 C 366.000 50.457,366.900 50.000,368.000 50.000 C 369.100 50.000,370.000 49.550,370.000 49.000 C 370.000 48.450,370.900 48.000,372.000 48.000 C 373.100 48.000,374.000 47.550,374.000 47.000 C 374.000 46.450,374.590 46.000,375.311 46.000 C 376.033 46.000,377.589 45.100,378.770 44.000 C 379.950 42.900,381.417 42.000,382.030 42.000 C 383.975 42.000,386.000 39.232,386.000 36.571 C 386.000 34.693,385.477 34.000,384.059 34.000 C 382.991 34.000,381.840 33.550,381.500 33.000 C 380.741 31.771,370.000 31.656,370.000 32.877 M125.263 36.769 C 124.033 38.271,123.021 40.063,123.013 40.750 C 123.006 41.438,122.550 42.000,122.000 42.000 C 121.450 42.000,121.000 42.845,121.000 43.878 C 121.000 44.910,120.325 46.315,119.500 47.000 C 118.675 47.685,118.000 48.865,118.000 49.622 C 118.000 50.380,117.550 51.000,117.000 51.000 C 116.450 51.000,116.000 51.900,116.000 53.000 C 116.000 54.100,115.550 55.000,115.000 55.000 C 114.450 55.000,114.000 56.350,114.000 58.000 C 114.000 59.650,113.550 61.000,113.000 61.000 C 112.450 61.000,112.000 61.900,112.000 63.000 C 112.000 64.100,111.550 65.000,111.000 65.000 C 110.450 65.000,110.000 65.873,110.000 66.941 C 110.000 68.009,109.550 69.160,109.000 69.500 C 108.450 69.840,108.000 71.441,108.000 73.059 C 108.000 74.677,107.550 76.000,107.000 76.000 C 106.450 76.000,106.000 77.098,106.000 78.441 C 106.000 79.784,105.550 81.160,105.000 81.500 C 104.450 81.840,104.000 83.441,104.000 85.059 C 104.000 86.677,103.550 88.000,103.000 88.000 C 102.450 88.000,102.000 89.350,102.000 91.000 C 102.000 92.650,101.550 94.000,101.000 94.000 C 100.450 94.000,100.000 95.800,100.000 98.000 C 100.000 100.200,99.550 102.000,99.000 102.000 C 98.450 102.000,98.000 103.800,98.000 106.000 C 98.000 108.200,97.550 110.000,97.000 110.000 C 96.450 110.000,96.000 112.475,96.000 115.500 C 96.000 118.525,95.550 121.000,95.000 121.000 C 94.381 121.000,94.000 126.333,94.000 135.000 C 94.000 143.667,94.381 149.000,95.000 149.000 C 95.550 149.000,96.000 150.350,96.000 152.000 C 96.000 153.650,96.450 155.000,97.000 155.000 C 97.550 155.000,98.000 155.465,98.000 156.033 C 98.000 157.645,104.754 164.000,106.467 164.000 C 107.310 164.000,108.000 164.367,108.000 164.814 C 108.000 165.838,115.702 170.000,117.595 170.000 C 118.368 170.000,119.000 170.450,119.000 171.000 C 119.000 171.550,119.873 172.000,120.941 172.000 C 122.009 172.000,123.160 172.450,123.500 173.000 C 123.840 173.550,125.216 174.000,126.559 174.000 C 127.902 174.000,129.000 174.450,129.000 175.000 C 129.000 175.550,130.323 176.000,131.941 176.000 C 133.559 176.000,135.160 176.450,135.500 177.000 C 135.840 177.550,137.441 178.000,139.059 178.000 C 140.677 178.000,142.000 178.450,142.000 179.000 C 142.000 179.550,143.548 180.000,145.441 180.000 C 147.334 180.000,149.160 180.450,149.500 181.000 C 149.840 181.550,151.891 182.000,154.059 182.000 C 156.227 182.000,158.000 182.450,158.000 183.000 C 158.000 183.550,160.223 184.000,162.941 184.000 C 165.659 184.000,168.160 184.450,168.500 185.000 C 168.840 185.550,171.791 186.000,175.059 186.000 C 178.353 186.000,181.000 186.446,181.000 187.000 C 181.000 187.592,184.639 188.000,189.917 188.000 C 195.671 188.000,198.967 188.402,199.211 189.133 C 199.754 190.762,212.204 190.869,212.747 189.250 C 212.978 188.562,214.029 188.000,215.083 188.000 C 218.014 188.000,217.376 185.309,213.533 181.467 C 211.627 179.560,209.377 178.000,208.533 178.000 C 207.690 178.000,207.000 177.550,207.000 177.000 C 207.000 176.450,206.410 176.000,205.689 176.000 C 204.967 176.000,203.411 175.100,202.230 174.000 C 201.050 172.900,199.390 172.000,198.542 172.000 C 197.694 172.000,197.000 171.550,197.000 171.000 C 197.000 170.450,196.100 170.000,195.000 170.000 C 193.900 170.000,193.000 169.550,193.000 169.000 C 193.000 168.450,192.325 168.000,191.500 168.000 C 190.675 168.000,190.000 167.550,190.000 167.000 C 190.000 166.450,189.306 166.000,188.458 166.000 C 187.610 166.000,185.950 165.100,184.770 164.000 C 183.589 162.900,182.033 162.000,181.311 162.000 C 180.590 162.000,180.000 161.550,180.000 161.000 C 180.000 160.450,179.199 160.000,178.221 160.000 C 177.242 160.000,175.793 159.100,175.000 158.000 C 174.207 156.900,172.758 156.000,171.779 156.000 C 170.801 156.000,170.000 155.401,170.000 154.669 C 170.000 153.937,168.770 152.699,167.267 151.919 C 165.764 151.139,163.318 149.354,161.832 147.954 C 160.346 146.553,157.868 144.753,156.327 143.954 C 152.747 142.097,145.921 135.288,144.081 131.738 C 143.301 130.232,142.288 129.000,141.831 129.000 C 141.374 129.000,141.000 128.100,141.000 127.000 C 141.000 125.900,140.550 125.000,140.000 125.000 C 139.450 125.000,139.000 123.650,139.000 122.000 C 139.000 120.350,138.550 119.000,138.000 119.000 C 137.450 119.000,137.000 117.227,137.000 115.059 C 137.000 112.891,136.550 110.840,136.000 110.500 C 135.450 110.160,135.000 106.759,135.000 102.941 C 135.000 99.123,134.575 96.000,134.056 96.000 C 133.487 96.000,133.079 84.242,133.029 66.402 C 132.963 42.426,132.681 36.538,131.545 35.402 C 129.479 33.336,127.771 33.708,125.263 36.769 M355.500 74.000 C 355.160 74.550,352.010 75.000,348.500 75.000 C 344.990 75.000,341.876 75.392,341.580 75.871 C 341.284 76.350,339.707 77.009,338.076 77.335 C 332.944 78.361,322.000 91.044,322.000 95.965 C 322.000 97.084,321.550 98.000,321.000 98.000 C 320.450 98.000,320.000 99.350,320.000 101.000 C 320.000 102.650,319.550 104.000,319.000 104.000 C 318.450 104.000,318.000 106.025,318.000 108.500 C 318.000 110.975,317.587 113.000,317.082 113.000 C 314.909 113.000,312.854 193.254,314.974 195.374 C 315.538 195.938,316.000 197.795,316.000 199.500 C 316.000 201.205,316.540 203.140,317.200 203.800 C 318.683 205.283,322.000 205.381,322.000 203.941 C 322.000 203.359,322.450 203.160,323.000 203.500 C 323.550 203.840,324.000 203.218,324.000 202.118 C 324.000 201.018,324.422 199.858,324.937 199.539 C 326.171 198.776,329.000 193.063,329.000 191.333 C 329.000 190.585,329.450 189.079,330.000 187.986 C 330.550 186.894,331.450 185.106,332.000 184.014 C 332.550 182.921,333.000 181.431,333.000 180.701 C 333.000 179.972,333.900 177.513,335.000 175.236 C 336.100 172.959,337.000 170.400,337.000 169.548 C 337.000 168.697,337.450 168.000,338.000 168.000 C 338.550 168.000,339.000 166.875,339.000 165.500 C 339.000 164.125,339.450 163.000,340.000 163.000 C 340.550 163.000,341.000 161.902,341.000 160.559 C 341.000 159.216,341.450 157.840,342.000 157.500 C 342.550 157.160,343.000 156.009,343.000 154.941 C 343.000 153.873,343.450 153.000,344.000 153.000 C 344.550 153.000,345.000 152.100,345.000 151.000 C 345.000 149.900,345.450 149.000,346.000 149.000 C 346.550 149.000,347.000 148.100,347.000 147.000 C 347.000 145.900,347.450 145.000,348.000 145.000 C 348.550 145.000,349.000 144.100,349.000 143.000 C 349.000 141.900,349.450 141.000,350.000 141.000 C 350.550 141.000,351.000 140.100,351.000 139.000 C 351.000 137.900,351.450 137.000,352.000 137.000 C 352.550 137.000,353.000 136.199,353.000 135.221 C 353.000 134.242,353.900 132.793,355.000 132.000 C 356.100 131.207,357.000 129.983,357.000 129.279 C 357.000 128.576,357.450 128.000,358.000 128.000 C 358.550 128.000,359.000 127.544,359.000 126.986 C 359.000 125.727,365.124 120.069,366.529 120.029 C 367.095 120.013,368.207 119.100,369.000 118.000 C 369.793 116.900,371.242 116.000,372.221 116.000 C 373.199 116.000,374.000 115.550,374.000 115.000 C 374.000 114.450,375.152 114.000,376.559 114.000 C 378.010 114.000,378.851 113.567,378.500 113.000 C 378.139 112.417,379.156 112.000,380.941 112.000 C 382.623 112.000,384.000 111.550,384.000 111.000 C 384.000 110.450,385.323 110.000,386.941 110.000 C 388.559 110.000,390.160 109.550,390.500 109.000 C 390.840 108.450,392.640 108.000,394.500 108.000 C 396.360 108.000,398.160 107.550,398.500 107.000 C 398.840 106.450,401.116 106.000,403.559 106.000 C 406.002 106.000,408.000 105.550,408.000 105.000 C 408.000 104.450,410.025 104.000,412.500 104.000 C 414.975 104.000,417.000 103.630,417.000 103.179 C 417.000 102.727,419.363 102.251,422.250 102.121 C 425.137 101.992,427.927 101.461,428.450 100.943 C 428.972 100.424,431.758 100.000,434.641 100.000 C 437.524 100.000,440.160 99.550,440.500 99.000 C 440.840 98.450,443.116 98.000,445.559 98.000 C 448.002 98.000,450.000 97.550,450.000 97.000 C 450.000 96.450,450.900 96.000,452.000 96.000 C 453.495 96.000,454.000 95.333,454.000 93.360 C 454.000 90.350,451.549 88.078,448.250 88.032 C 447.012 88.014,446.000 87.656,446.000 87.235 C 446.000 86.158,436.765 83.000,433.616 83.000 C 432.177 83.000,431.000 82.550,431.000 82.000 C 431.000 81.450,429.290 81.000,427.200 81.000 C 425.110 81.000,422.972 80.594,422.450 80.097 C 421.506 79.200,416.771 78.427,405.750 77.373 C 402.587 77.070,400.000 76.412,400.000 75.911 C 400.000 75.410,395.500 75.000,390.000 75.000 C 384.000 75.000,380.000 74.600,380.000 74.000 C 380.000 73.389,375.353 73.000,368.059 73.000 C 361.177 73.000,355.856 73.424,355.500 74.000 M59.000 94.000 C 59.000 95.100,58.588 96.000,58.085 96.000 C 55.922 96.000,53.868 166.268,55.970 168.370 C 56.536 168.936,57.000 172.685,57.000 176.700 C 57.000 180.900,57.425 184.000,58.000 184.000 C 58.550 184.000,59.000 186.025,59.000 188.500 C 59.000 190.975,59.450 193.000,60.000 193.000 C 60.550 193.000,61.000 194.548,61.000 196.441 C 61.000 198.334,61.450 200.160,62.000 200.500 C 62.550 200.840,63.000 201.991,63.000 203.059 C 63.000 204.127,63.450 205.000,64.000 205.000 C 64.550 205.000,65.000 205.900,65.000 207.000 C 65.000 208.100,65.450 209.000,66.000 209.000 C 66.550 209.000,67.000 209.707,67.000 210.571 C 67.000 212.397,69.344 215.000,70.988 215.000 C 71.609 215.000,71.840 215.450,71.500 216.000 C 71.160 216.550,71.809 217.000,72.941 217.000 C 74.073 217.000,75.000 217.450,75.000 218.000 C 75.000 218.550,76.350 219.000,78.000 219.000 C 79.650 219.000,81.000 219.450,81.000 220.000 C 81.000 220.550,82.987 221.000,85.417 221.000 C 88.061 221.000,90.001 221.502,90.250 222.250 C 90.565 223.194,95.522 223.500,110.500 223.500 C 125.478 223.500,130.435 223.194,130.750 222.250 C 131.033 221.401,133.527 221.000,138.524 221.000 C 142.571 221.000,146.160 220.550,146.500 220.000 C 146.840 219.450,149.765 219.000,153.000 219.000 C 156.235 219.000,159.160 218.550,159.500 218.000 C 159.840 217.450,162.090 217.000,164.500 217.000 C 166.910 217.000,169.160 216.550,169.500 216.000 C 169.840 215.450,171.891 215.000,174.059 215.000 C 176.227 215.000,178.000 214.550,178.000 214.000 C 178.000 213.450,179.350 213.000,181.000 213.000 C 182.650 213.000,184.000 212.550,184.000 212.000 C 184.000 211.450,185.323 211.000,186.941 211.000 C 188.559 211.000,190.160 210.550,190.500 210.000 C 190.840 209.450,191.991 209.000,193.059 209.000 C 194.490 209.000,195.000 208.307,195.000 206.360 C 195.000 202.948,192.447 201.072,187.750 201.032 C 185.688 201.014,184.000 200.550,184.000 200.000 C 184.000 199.450,181.750 199.000,179.000 199.000 C 176.250 199.000,174.000 198.550,174.000 198.000 C 174.000 197.450,171.525 197.000,168.500 197.000 C 165.475 197.000,163.000 196.550,163.000 196.000 C 163.000 195.450,160.750 195.000,158.000 195.000 C 155.250 195.000,153.000 194.550,153.000 194.000 C 153.000 193.450,150.750 193.000,148.000 193.000 C 145.250 193.000,143.000 192.550,143.000 192.000 C 143.000 191.450,141.650 191.000,140.000 191.000 C 138.350 191.000,137.000 190.570,137.000 190.045 C 137.000 189.520,135.313 188.813,133.250 188.473 C 131.188 188.134,128.488 187.438,127.250 186.928 C 126.013 186.418,123.987 185.588,122.750 185.083 C 114.276 181.631,110.000 179.531,110.000 178.822 C 110.000 178.370,109.313 178.000,108.474 178.000 C 106.698 178.000,98.000 169.607,98.000 167.894 C 98.000 167.256,97.213 166.007,96.250 165.117 C 94.019 163.055,90.629 157.005,91.693 156.985 C 92.137 156.976,92.027 156.639,91.448 156.235 C 90.869 155.831,89.620 153.832,88.671 151.792 C 87.723 149.753,86.509 147.814,85.973 147.483 C 85.438 147.153,85.000 146.009,85.000 144.941 C 85.000 143.873,84.550 143.000,84.000 143.000 C 83.450 143.000,83.000 141.848,83.000 140.441 C 83.000 138.990,82.567 138.149,82.000 138.500 C 81.417 138.861,81.000 137.844,81.000 136.059 C 81.000 134.377,80.550 133.000,80.000 133.000 C 79.450 133.000,79.000 131.902,79.000 130.559 C 79.000 129.216,78.550 127.840,78.000 127.500 C 77.450 127.160,77.000 126.009,77.000 124.941 C 77.000 123.873,76.550 123.000,76.000 123.000 C 75.450 123.000,75.000 121.677,75.000 120.059 C 75.000 118.441,74.550 116.840,74.000 116.500 C 73.450 116.160,73.000 114.784,73.000 113.441 C 73.000 112.098,72.550 111.000,72.000 111.000 C 71.450 111.000,71.000 109.875,71.000 108.500 C 71.000 107.125,70.550 106.000,70.000 106.000 C 69.450 106.000,69.000 104.650,69.000 103.000 C 69.000 101.350,68.550 100.000,68.000 100.000 C 67.450 100.000,67.000 99.100,67.000 98.000 C 67.000 96.900,66.550 96.000,66.000 96.000 C 65.450 96.000,65.000 95.100,65.000 94.000 C 65.000 92.444,64.333 92.000,62.000 92.000 C 59.667 92.000,59.000 92.444,59.000 94.000 M387.000 116.934 C 387.000 117.520,386.163 118.000,385.140 118.000 C 384.117 118.000,382.435 119.125,381.403 120.500 C 380.370 121.875,378.897 123.000,378.129 123.000 C 376.684 123.000,372.003 127.850,372.001 129.349 C 372.001 129.816,370.650 131.459,369.000 133.000 C 367.350 134.541,366.000 136.522,366.000 137.401 C 366.000 138.281,365.550 139.000,365.000 139.000 C 364.450 139.000,364.000 139.590,364.000 140.311 C 364.000 141.033,363.209 142.495,362.242 143.561 C 359.444 146.647,357.000 150.798,357.000 152.465 C 357.000 153.309,356.550 154.000,356.000 154.000 C 355.450 154.000,355.000 154.900,355.000 156.000 C 355.000 157.100,354.550 158.000,354.000 158.000 C 353.450 158.000,353.000 158.900,353.000 160.000 C 353.000 161.100,352.550 162.000,352.000 162.000 C 351.450 162.000,351.000 162.873,351.000 163.941 C 351.000 165.009,350.550 166.160,350.000 166.500 C 349.450 166.840,349.000 168.216,349.000 169.559 C 349.000 170.902,348.550 172.000,348.000 172.000 C 347.450 172.000,347.000 172.900,347.000 174.000 C 347.000 175.100,346.550 176.000,346.000 176.000 C 345.450 176.000,345.000 177.350,345.000 179.000 C 345.000 180.650,344.550 182.000,344.000 182.000 C 343.450 182.000,343.000 183.125,343.000 184.500 C 343.000 185.875,342.550 187.000,342.000 187.000 C 341.450 187.000,341.000 188.323,341.000 189.941 C 341.000 191.559,340.550 193.160,340.000 193.500 C 339.450 193.840,339.000 195.190,339.000 196.500 C 339.000 197.810,338.550 199.160,338.000 199.500 C 337.450 199.840,337.000 201.415,337.000 203.000 C 337.000 204.585,336.550 206.160,336.000 206.500 C 335.450 206.840,335.000 208.640,335.000 210.500 C 335.000 212.360,334.550 214.160,334.000 214.500 C 333.450 214.840,333.000 218.466,333.000 222.559 L 333.000 230.000 335.750 229.978 C 337.670 229.963,339.406 228.870,341.500 226.357 C 343.150 224.377,345.962 221.252,347.750 219.412 C 349.538 217.572,351.000 215.648,351.000 215.136 C 351.000 214.624,354.262 210.817,358.250 206.677 C 368.367 196.173,374.000 190.008,374.000 189.440 C 374.000 188.440,385.003 178.000,386.057 178.000 C 386.662 178.000,388.886 176.200,391.000 174.000 C 393.114 171.800,395.553 170.000,396.422 170.000 C 397.290 170.000,398.000 169.550,398.000 169.000 C 398.000 168.450,398.873 168.000,399.941 168.000 C 401.009 168.000,402.160 167.550,402.500 167.000 C 402.840 166.450,404.190 166.000,405.500 166.000 C 406.810 166.000,408.160 165.550,408.500 165.000 C 408.876 164.392,416.344 164.000,427.559 164.000 C 439.186 164.000,446.000 164.369,446.000 165.000 C 446.000 165.563,448.814 166.000,452.441 166.000 C 455.984 166.000,459.160 166.450,459.500 167.000 C 459.840 167.550,462.566 168.000,465.559 168.000 C 468.552 168.000,471.000 168.373,471.000 168.829 C 471.000 169.285,473.587 169.760,476.750 169.885 C 479.913 170.010,482.650 170.537,482.833 171.056 C 483.561 173.117,500.000 172.184,500.000 170.082 C 500.000 168.161,492.936 160.000,491.274 160.000 C 490.788 160.000,488.749 158.537,486.742 156.750 C 481.204 151.818,477.586 149.028,476.708 149.013 C 476.273 149.006,474.950 148.100,473.770 147.000 C 472.589 145.900,471.033 145.000,470.311 145.000 C 469.590 145.000,469.000 144.550,469.000 144.000 C 469.000 143.450,468.100 143.000,467.000 143.000 C 465.900 143.000,465.000 142.550,465.000 142.000 C 465.000 141.450,464.325 141.000,463.500 141.000 C 462.675 141.000,462.000 140.550,462.000 140.000 C 462.000 139.450,461.100 139.000,460.000 139.000 C 458.900 139.000,458.000 138.550,458.000 138.000 C 458.000 137.450,457.100 137.000,456.000 137.000 C 454.900 137.000,454.000 136.550,454.000 136.000 C 454.000 135.450,453.100 135.000,452.000 135.000 C 450.900 135.000,450.000 134.550,450.000 134.000 C 450.000 133.450,449.100 133.000,448.000 133.000 C 446.900 133.000,446.000 132.550,446.000 132.000 C 446.000 131.450,445.100 131.000,444.000 131.000 C 442.900 131.000,442.000 130.550,442.000 130.000 C 442.000 129.450,441.100 129.000,440.000 129.000 C 438.900 129.000,438.000 128.550,438.000 128.000 C 438.000 127.450,437.127 127.000,436.059 127.000 C 434.991 127.000,433.840 126.550,433.500 126.000 C 433.160 125.450,431.559 125.000,429.941 125.000 C 428.323 125.000,427.000 124.550,427.000 124.000 C 427.000 123.450,426.100 123.000,425.000 123.000 C 423.900 123.000,423.000 122.550,423.000 122.000 C 423.000 121.450,421.705 121.000,420.122 121.000 C 418.540 121.000,416.723 120.371,416.084 119.601 C 414.037 117.135,387.000 114.655,387.000 116.934 M15.607 169.582 C 14.347 172.866,14.967 183.824,16.500 185.357 C 17.325 186.182,18.000 188.464,18.000 190.429 C 18.000 192.393,18.450 194.000,19.000 194.000 C 19.550 194.000,20.000 195.575,20.000 197.500 C 20.000 199.425,20.450 201.000,21.000 201.000 C 21.550 201.000,22.000 202.350,22.000 204.000 C 22.000 205.650,22.450 207.000,23.000 207.000 C 23.550 207.000,24.000 208.350,24.000 210.000 C 24.000 211.650,24.450 213.000,25.000 213.000 C 25.550 213.000,26.000 214.350,26.000 216.000 C 26.000 217.650,26.450 219.000,27.000 219.000 C 27.550 219.000,28.000 220.125,28.000 221.500 C 28.000 222.875,28.450 224.000,29.000 224.000 C 29.550 224.000,30.000 225.377,30.000 227.059 C 30.000 228.844,30.417 229.861,31.000 229.500 C 31.567 229.149,32.000 229.990,32.000 231.441 C 32.000 232.848,32.450 234.000,33.000 234.000 C 33.550 234.000,34.000 234.900,34.000 236.000 C 34.000 237.100,34.450 238.000,35.000 238.000 C 35.550 238.000,36.000 238.872,36.000 239.938 C 36.000 242.036,41.804 253.287,43.168 253.833 C 43.625 254.017,44.000 255.029,44.000 256.083 C 44.000 257.137,44.340 258.000,44.756 258.000 C 45.172 258.000,46.145 259.431,46.919 261.179 C 48.698 265.197,51.112 268.049,52.178 267.390 C 52.630 267.110,53.000 267.595,53.000 268.467 C 53.000 270.496,61.457 279.000,63.474 279.000 C 64.313 279.000,65.000 279.450,65.000 280.000 C 65.000 280.550,65.873 281.000,66.941 281.000 C 68.009 281.000,69.160 281.450,69.500 282.000 C 69.840 282.550,73.466 283.000,77.559 283.000 C 81.853 283.000,85.000 282.577,85.000 282.000 C 85.000 281.450,87.475 281.000,90.500 281.000 C 93.525 281.000,96.000 280.550,96.000 280.000 C 96.000 279.450,97.350 279.000,99.000 279.000 C 100.650 279.000,102.000 278.550,102.000 278.000 C 102.000 277.450,103.350 277.000,105.000 277.000 C 106.650 277.000,108.000 276.550,108.000 276.000 C 108.000 275.450,109.350 275.000,111.000 275.000 C 112.650 275.000,114.000 274.550,114.000 274.000 C 114.000 273.450,114.900 273.000,116.000 273.000 C 117.100 273.000,118.000 272.550,118.000 272.000 C 118.000 271.450,119.125 271.000,120.500 271.000 C 121.875 271.000,123.000 270.550,123.000 270.000 C 123.000 269.450,123.612 269.000,124.360 269.000 C 126.003 269.000,138.363 262.809,138.833 261.750 C 139.017 261.337,139.823 261.000,140.626 261.000 C 141.991 261.000,143.015 260.342,146.463 257.250 C 147.230 256.563,148.465 256.000,149.208 256.000 C 149.951 256.000,151.207 255.100,152.000 254.000 C 152.793 252.900,154.157 252.000,155.032 252.000 C 155.907 252.000,157.589 251.100,158.770 250.000 C 159.950 248.900,161.610 248.000,162.458 248.000 C 163.306 248.000,164.000 247.550,164.000 247.000 C 164.000 246.450,164.608 246.000,165.352 246.000 C 166.095 246.000,168.116 244.650,169.843 243.000 C 171.569 241.350,173.323 239.999,173.741 239.999 C 176.486 239.994,182.743 231.011,181.454 228.925 C 180.681 227.674,167.278 227.741,166.500 229.000 C 166.160 229.550,163.209 230.000,159.941 230.000 C 156.647 230.000,154.000 230.446,154.000 231.000 C 154.000 231.564,151.167 232.000,147.500 232.000 C 143.833 232.000,141.000 232.436,141.000 233.000 C 141.000 233.571,138.000 234.000,134.000 234.000 C 130.000 234.000,127.000 234.429,127.000 235.000 C 127.000 235.630,120.314 236.000,108.941 236.000 C 97.156 236.000,91.097 235.653,91.500 235.000 C 91.868 234.405,90.677 234.000,88.559 234.000 C 86.602 234.000,85.000 233.550,85.000 233.000 C 85.000 232.450,84.100 232.000,83.000 232.000 C 81.900 232.000,81.000 231.550,81.000 231.000 C 81.000 230.450,80.281 230.000,79.401 230.000 C 78.522 230.000,76.541 228.650,75.000 227.000 C 73.459 225.350,71.891 224.000,71.517 224.000 C 71.143 224.000,66.624 219.725,61.475 214.500 C 56.325 209.275,51.637 205.000,51.056 205.000 C 50.475 205.000,50.000 204.364,50.000 203.587 C 50.000 202.810,47.300 199.432,44.000 196.081 C 40.700 192.729,38.000 189.540,38.000 188.993 C 38.000 188.447,37.626 188.000,37.169 188.000 C 36.712 188.000,35.699 186.770,34.919 185.268 C 33.244 182.042,21.492 170.000,20.019 170.000 C 19.458 170.000,19.000 169.550,19.000 169.000 C 19.000 167.386,16.270 167.854,15.607 169.582 M421.000 171.000 C 421.000 171.550,419.650 172.000,418.000 172.000 C 416.350 172.000,415.000 172.450,415.000 173.000 C 415.000 173.550,414.100 174.000,413.000 174.000 C 411.900 174.000,411.000 174.450,411.000 175.000 C 411.000 175.550,410.100 176.000,409.000 176.000 C 407.900 176.000,407.000 176.450,407.000 177.000 C 407.000 177.550,406.413 178.000,405.695 178.000 C 404.978 178.000,402.671 179.575,400.570 181.500 C 398.468 183.425,396.330 185.000,395.818 185.000 C 394.577 185.000,365.307 214.494,361.542 219.538 C 359.915 221.717,357.344 224.678,355.827 226.118 C 354.311 227.559,353.270 228.937,353.515 229.182 C 353.759 229.426,352.394 231.286,350.480 233.315 C 348.566 235.344,347.000 237.579,347.000 238.282 C 347.000 238.984,346.100 240.207,345.000 241.000 C 343.900 241.793,343.000 243.242,343.000 244.221 C 343.000 245.199,342.550 246.000,342.000 246.000 C 341.450 246.000,341.000 246.675,341.000 247.500 C 341.000 248.325,340.550 249.000,340.000 249.000 C 339.450 249.000,339.000 251.250,339.000 254.000 C 339.000 258.889,339.067 259.000,342.000 259.000 C 344.000 259.000,345.000 258.500,345.000 257.500 C 345.000 256.667,345.889 256.000,347.000 256.000 C 348.100 256.000,349.000 255.550,349.000 255.000 C 349.000 254.450,349.900 254.000,351.000 254.000 C 352.100 254.000,353.000 253.550,353.000 253.000 C 353.000 252.450,353.900 252.000,355.000 252.000 C 356.100 252.000,357.000 251.550,357.000 251.000 C 357.000 250.450,357.900 250.000,359.000 250.000 C 360.100 250.000,361.000 249.550,361.000 249.000 C 361.000 248.450,361.900 248.000,363.000 248.000 C 364.100 248.000,365.000 247.550,365.000 247.000 C 365.000 246.450,365.675 246.000,366.500 246.000 C 367.325 246.000,368.000 245.550,368.000 245.000 C 368.000 244.450,368.900 244.000,370.000 244.000 C 371.100 244.000,372.000 243.550,372.000 243.000 C 372.000 242.450,372.900 242.000,374.000 242.000 C 375.100 242.000,376.000 241.550,376.000 241.000 C 376.000 240.450,376.900 240.000,378.000 240.000 C 379.100 240.000,380.000 239.550,380.000 239.000 C 380.000 238.450,380.900 238.000,382.000 238.000 C 383.100 238.000,384.000 237.550,384.000 237.000 C 384.000 236.450,384.900 236.000,386.000 236.000 C 387.100 236.000,388.000 235.550,388.000 235.000 C 388.000 234.450,388.900 234.000,390.000 234.000 C 391.100 234.000,392.000 233.550,392.000 233.000 C 392.000 232.450,392.900 232.000,394.000 232.000 C 395.100 232.000,396.000 231.550,396.000 231.000 C 396.000 230.450,397.125 230.000,398.500 230.000 C 399.875 230.000,401.000 229.550,401.000 229.000 C 401.000 228.450,401.873 228.000,402.941 228.000 C 404.009 228.000,405.160 227.550,405.500 227.000 C 405.840 226.450,407.216 226.000,408.559 226.000 C 409.902 226.000,411.000 225.608,411.000 225.128 C 411.000 224.648,412.800 223.968,415.000 223.616 C 417.200 223.264,419.000 222.532,419.000 221.988 C 419.000 221.425,422.226 221.000,426.500 221.000 C 430.774 221.000,434.000 221.425,434.000 221.988 C 434.000 222.532,435.810 223.266,438.022 223.620 C 440.234 223.973,442.286 224.654,442.581 225.131 C 442.876 225.609,444.216 226.000,445.559 226.000 C 446.902 226.000,448.000 226.450,448.000 227.000 C 448.000 227.550,448.661 228.000,449.470 228.000 C 450.278 228.000,452.542 228.900,454.500 230.000 C 456.458 231.100,458.722 232.000,459.530 232.000 C 460.339 232.000,461.000 232.450,461.000 233.000 C 461.000 233.550,461.900 234.000,463.000 234.000 C 464.100 234.000,465.000 234.450,465.000 235.000 C 465.000 235.550,465.900 236.000,467.000 236.000 C 468.100 236.000,469.000 236.450,469.000 237.000 C 469.000 237.550,469.900 238.000,471.000 238.000 C 472.100 238.000,473.000 238.450,473.000 239.000 C 473.000 239.550,473.900 240.000,475.000 240.000 C 476.100 240.000,477.000 240.450,477.000 241.000 C 477.000 241.550,477.694 242.000,478.542 242.000 C 479.390 242.000,481.050 242.900,482.230 244.000 C 483.411 245.100,484.967 246.000,485.689 246.000 C 486.410 246.000,487.000 246.450,487.000 247.000 C 487.000 247.550,487.585 248.000,488.301 248.000 C 490.140 248.000,494.983 250.352,494.992 251.250 C 494.996 251.662,495.675 252.000,496.500 252.000 C 497.325 252.000,498.000 252.450,498.000 253.000 C 498.000 253.550,498.900 254.000,500.000 254.000 C 501.100 254.000,502.000 254.450,502.000 255.000 C 502.000 255.550,502.707 256.000,503.571 256.000 C 504.436 256.000,505.818 256.675,506.643 257.500 C 510.144 261.001,514.000 259.429,514.000 254.500 C 514.000 252.025,513.550 250.000,513.000 250.000 C 512.450 250.000,512.000 249.100,512.000 248.000 C 512.000 246.900,511.550 246.000,511.000 246.000 C 510.450 246.000,510.000 245.265,510.000 244.367 C 510.000 243.469,509.128 241.978,508.062 241.054 C 506.996 240.130,505.984 238.752,505.812 237.992 C 505.516 236.681,503.692 234.496,496.250 226.534 C 494.462 224.621,493.000 222.590,493.000 222.020 C 493.000 220.883,490.258 217.621,482.250 209.232 C 479.363 206.207,477.000 203.117,477.000 202.366 C 477.000 201.615,476.250 201.000,475.333 201.000 C 474.417 201.000,473.950 200.716,474.297 200.370 C 475.123 199.544,468.276 193.374,464.750 191.766 C 463.238 191.076,462.000 190.260,462.000 189.951 C 462.000 188.692,455.128 182.000,453.836 182.000 C 453.069 182.000,451.793 181.100,451.000 180.000 C 450.207 178.900,448.983 178.000,448.279 178.000 C 447.576 178.000,447.000 177.550,447.000 177.000 C 447.000 176.450,446.325 176.000,445.500 176.000 C 444.675 176.000,444.000 175.550,444.000 175.000 C 444.000 174.450,442.875 174.000,441.500 174.000 C 440.125 174.000,439.000 173.550,439.000 173.000 C 439.000 172.450,437.902 172.000,436.559 172.000 C 435.216 172.000,433.840 171.550,433.500 171.000 C 433.160 170.450,430.209 170.000,426.941 170.000 C 423.647 170.000,421.000 170.446,421.000 171.000 M430.000 233.000 C 430.000 233.550,427.525 234.000,424.500 234.000 C 421.475 234.000,419.000 234.450,419.000 235.000 C 419.000 235.550,417.677 236.000,416.059 236.000 C 414.441 236.000,412.840 236.450,412.500 237.000 C 412.160 237.550,410.784 238.000,409.441 238.000 C 408.098 238.000,407.000 238.450,407.000 239.000 C 407.000 239.550,405.650 240.000,404.000 240.000 C 402.350 240.000,401.000 240.450,401.000 241.000 C 401.000 241.550,400.100 242.000,399.000 242.000 C 397.900 242.000,397.000 242.450,397.000 243.000 C 397.000 243.550,395.875 244.000,394.500 244.000 C 393.125 244.000,392.000 244.450,392.000 245.000 C 392.000 245.550,391.388 246.000,390.640 246.000 C 388.997 246.000,376.637 252.191,376.167 253.250 C 375.983 253.662,375.164 254.000,374.345 254.000 C 373.527 254.000,372.230 254.563,371.463 255.250 C 368.053 258.308,367.002 259.000,365.763 259.000 C 365.036 259.000,363.793 259.900,363.000 261.000 C 362.207 262.100,360.870 263.010,360.029 263.022 C 359.188 263.034,357.375 263.924,356.000 265.000 C 354.625 266.076,352.938 266.966,352.250 266.978 C 351.563 266.990,351.000 267.450,351.000 268.000 C 351.000 268.550,350.392 269.000,349.648 269.000 C 348.905 269.000,346.985 270.238,345.381 271.750 C 343.778 273.262,341.293 275.108,339.860 275.851 C 336.966 277.352,332.528 284.427,333.497 285.996 C 334.305 287.302,346.693 287.306,347.500 286.000 C 347.840 285.450,350.765 285.000,354.000 285.000 C 357.235 285.000,360.160 284.550,360.500 284.000 C 360.840 283.450,363.765 283.000,367.000 283.000 C 370.235 283.000,373.160 282.550,373.500 282.000 C 373.840 281.450,377.241 281.000,381.059 281.000 C 385.020 281.000,388.000 280.571,388.000 280.000 C 388.000 279.370,394.686 279.000,406.059 279.000 C 417.844 279.000,423.903 279.347,423.500 280.000 C 423.132 280.595,424.323 281.000,426.441 281.000 C 428.398 281.000,430.000 281.450,430.000 282.000 C 430.000 282.550,430.900 283.000,432.000 283.000 C 433.100 283.000,434.000 283.450,434.000 284.000 C 434.000 284.550,434.719 285.000,435.599 285.000 C 436.478 285.000,438.459 286.350,440.000 288.000 C 441.541 289.650,443.522 291.000,444.401 291.000 C 445.281 291.000,446.000 291.456,446.000 292.014 C 446.000 293.338,462.662 310.000,463.986 310.000 C 464.544 310.000,465.000 310.636,465.000 311.413 C 465.000 312.190,467.700 315.568,471.000 318.919 C 474.300 322.271,477.000 325.460,477.000 326.007 C 477.000 326.553,477.450 327.000,478.000 327.000 C 478.550 327.000,479.000 327.675,479.000 328.500 C 479.000 329.325,479.450 330.000,480.000 330.000 C 480.550 330.000,481.000 330.458,481.000 331.019 C 481.000 332.347,493.653 345.000,494.981 345.000 C 495.542 345.000,496.000 345.450,496.000 346.000 C 496.000 347.614,498.730 347.146,499.393 345.418 C 500.653 342.134,500.033 331.176,498.500 329.643 C 497.675 328.818,497.000 326.536,497.000 324.571 C 497.000 322.607,496.550 321.000,496.000 321.000 C 495.450 321.000,495.000 319.425,495.000 317.500 C 495.000 315.575,494.550 314.000,494.000 314.000 C 493.450 314.000,493.000 312.650,493.000 311.000 C 493.000 309.350,492.550 308.000,492.000 308.000 C 491.450 308.000,491.000 306.650,491.000 305.000 C 491.000 303.350,490.550 302.000,490.000 302.000 C 489.450 302.000,489.000 300.650,489.000 299.000 C 489.000 297.350,488.550 296.000,488.000 296.000 C 487.450 296.000,487.000 294.875,487.000 293.500 C 487.000 292.125,486.550 291.000,486.000 291.000 C 485.450 291.000,485.000 289.650,485.000 288.000 C 485.000 286.350,484.550 285.000,484.000 285.000 C 483.450 285.000,483.000 284.100,483.000 283.000 C 483.000 281.900,482.550 281.000,482.000 281.000 C 481.450 281.000,481.000 280.319,481.000 279.486 C 481.000 278.654,480.599 277.191,480.109 276.236 C 479.620 275.281,478.199 272.363,476.952 269.750 C 475.706 267.137,474.280 265.000,473.784 265.000 C 473.288 265.000,473.138 264.586,473.450 264.081 C 473.763 263.575,473.339 262.482,472.509 261.652 C 471.679 260.822,471.000 259.436,471.000 258.571 C 471.000 257.707,470.660 257.000,470.244 257.000 C 469.828 257.000,468.855 255.569,468.081 253.821 C 466.302 249.803,463.888 246.951,462.822 247.610 C 462.370 247.890,462.000 247.488,462.000 246.718 C 462.000 244.736,453.523 236.000,451.599 236.000 C 450.720 236.000,450.000 235.660,450.000 235.243 C 450.000 234.827,448.207 233.927,446.016 233.243 C 441.245 231.755,430.000 231.584,430.000 233.000 M1.000 260.500 C 1.000 262.975,1.450 265.000,2.000 265.000 C 2.550 265.000,3.000 265.801,3.000 266.779 C 3.000 267.758,3.900 269.207,5.000 270.000 C 6.100 270.793,7.000 272.143,7.000 273.000 C 7.000 273.857,7.900 275.207,9.000 276.000 C 10.100 276.793,11.000 278.038,11.000 278.766 C 11.000 280.337,15.455 285.000,16.955 285.000 C 17.530 285.000,18.000 285.801,18.000 286.779 C 18.000 287.758,18.900 289.207,20.000 290.000 C 21.100 290.793,22.000 291.967,22.000 292.608 C 22.000 293.250,23.346 294.838,24.991 296.137 C 26.636 297.437,27.986 299.087,27.991 299.805 C 27.996 300.523,30.690 303.752,33.979 306.979 C 37.600 310.533,39.473 313.044,38.729 313.345 C 38.053 313.618,38.539 313.878,39.809 313.921 C 41.079 313.964,41.840 314.450,41.500 315.000 C 41.160 315.550,41.610 316.000,42.500 316.000 C 43.390 316.000,43.840 316.450,43.500 317.000 C 43.160 317.550,43.403 318.000,44.040 318.000 C 44.677 318.000,46.459 319.350,48.000 321.000 C 49.541 322.650,51.297 324.000,51.901 324.000 C 52.506 324.000,53.001 324.337,53.001 324.750 C 53.004 326.324,57.810 331.000,59.425 331.000 C 60.356 331.000,60.840 331.450,60.500 332.000 C 60.160 332.550,60.484 333.000,61.220 333.000 C 61.956 333.000,63.207 333.900,64.000 335.000 C 64.793 336.100,66.269 337.000,67.280 337.000 C 68.291 337.000,68.840 337.450,68.500 338.000 C 68.149 338.567,68.990 339.000,70.441 339.000 C 71.848 339.000,73.000 339.450,73.000 340.000 C 73.000 340.550,73.900 341.000,75.000 341.000 C 76.100 341.000,77.000 341.450,77.000 342.000 C 77.000 342.550,78.350 343.000,80.000 343.000 C 81.650 343.000,83.000 343.450,83.000 344.000 C 83.000 344.550,85.025 345.000,87.500 345.000 C 89.975 345.000,92.000 344.550,92.000 344.000 C 92.000 343.450,93.800 343.000,96.000 343.000 C 98.200 343.000,100.000 342.550,100.000 342.000 C 100.000 341.450,100.900 341.000,102.000 341.000 C 103.100 341.000,104.000 340.550,104.000 340.000 C 104.000 339.450,104.900 339.000,106.000 339.000 C 107.100 339.000,108.000 338.550,108.000 338.000 C 108.000 337.450,108.702 337.000,109.559 337.000 C 110.416 337.000,110.840 336.550,110.500 336.000 C 110.160 335.450,110.709 335.000,111.720 335.000 C 112.731 335.000,114.207 334.100,115.000 333.000 C 115.793 331.900,117.044 331.000,117.780 331.000 C 118.516 331.000,118.840 330.550,118.500 330.000 C 118.160 329.450,118.359 329.000,118.941 329.000 C 119.523 329.000,120.000 328.325,120.000 327.500 C 120.000 326.675,120.498 326.000,121.107 326.000 C 121.716 326.000,121.951 326.684,121.630 327.521 C 121.310 328.357,126.886 323.179,134.023 316.014 C 141.161 308.849,147.000 302.508,147.000 301.922 C 147.000 300.469,149.577 298.000,151.095 298.000 C 151.776 298.000,152.063 297.730,151.732 297.399 C 151.402 297.068,153.127 294.858,155.566 292.488 C 158.005 290.118,160.000 287.644,160.000 286.990 C 160.000 286.337,161.350 284.541,163.000 283.000 C 164.650 281.459,166.000 279.577,166.000 278.820 C 166.000 278.062,166.900 276.793,168.000 276.000 C 169.100 275.207,170.000 273.857,170.000 273.000 C 170.000 272.143,170.900 270.793,172.000 270.000 C 173.100 269.207,174.000 267.758,174.000 266.779 C 174.000 265.801,174.450 265.000,175.000 265.000 C 175.550 265.000,176.000 262.975,176.000 260.500 C 176.000 256.167,175.889 256.000,173.000 256.000 C 171.000 256.000,170.000 256.500,170.000 257.500 C 170.000 258.333,169.111 259.000,168.000 259.000 C 166.900 259.000,166.000 259.450,166.000 260.000 C 166.000 260.550,165.199 261.000,164.221 261.000 C 163.242 261.000,161.793 261.900,161.000 263.000 C 160.207 264.100,158.758 265.000,157.779 265.000 C 156.801 265.000,156.000 265.450,156.000 266.000 C 156.000 266.550,155.190 267.000,154.199 267.000 C 151.965 267.000,147.018 269.235,147.008 270.250 C 147.004 270.663,146.199 271.000,145.221 271.000 C 144.242 271.000,142.793 271.900,142.000 273.000 C 141.207 274.100,139.758 275.000,138.779 275.000 C 137.801 275.000,137.000 275.450,137.000 276.000 C 137.000 276.550,136.100 277.000,135.000 277.000 C 133.900 277.000,133.000 277.450,133.000 278.000 C 133.000 278.550,132.100 279.000,131.000 279.000 C 129.900 279.000,129.000 279.477,129.000 280.059 C 129.000 280.641,128.586 280.862,128.081 280.550 C 127.575 280.237,126.482 280.661,125.652 281.491 C 124.822 282.321,123.184 283.000,122.012 283.000 C 120.841 283.000,120.160 283.450,120.500 284.000 C 120.860 284.582,119.863 285.000,118.118 285.000 C 116.468 285.000,114.840 285.450,114.500 286.000 C 114.160 286.550,113.009 287.000,111.941 287.000 C 110.873 287.000,110.000 287.450,110.000 288.000 C 110.000 288.550,108.650 289.000,107.000 289.000 C 105.350 289.000,104.000 289.450,104.000 290.000 C 104.000 290.550,102.861 291.000,101.469 291.000 C 100.076 291.000,98.678 291.675,98.362 292.500 C 97.481 294.796,79.475 294.679,78.589 292.372 C 78.114 291.133,77.132 290.879,74.482 291.309 C 71.859 291.735,71.000 291.520,71.000 290.437 C 71.000 289.647,70.100 289.000,69.000 289.000 C 67.900 289.000,67.000 288.550,67.000 288.000 C 67.000 287.450,65.623 287.000,63.941 287.000 C 62.156 287.000,61.139 286.583,61.500 286.000 C 61.851 285.433,61.010 285.000,59.559 285.000 C 58.152 285.000,57.000 284.550,57.000 284.000 C 57.000 283.450,56.073 283.000,54.941 283.000 C 53.809 283.000,53.160 282.550,53.500 282.000 C 53.862 281.415,52.824 281.000,51.000 281.000 C 49.176 281.000,48.138 280.585,48.500 280.000 C 48.851 279.433,48.010 279.000,46.559 279.000 C 45.152 279.000,44.000 278.550,44.000 278.000 C 44.000 277.450,43.199 277.000,42.221 277.000 C 41.242 277.000,39.793 276.100,39.000 275.000 C 38.207 273.900,36.758 273.000,35.779 273.000 C 34.801 273.000,34.000 272.550,34.000 272.000 C 34.000 271.450,33.100 271.000,32.000 271.000 C 30.900 271.000,30.000 270.550,30.000 270.000 C 30.000 269.450,29.199 269.000,28.221 269.000 C 27.242 269.000,25.793 268.100,25.000 267.000 C 24.207 265.900,22.758 265.000,21.779 265.000 C 20.801 265.000,20.000 264.550,20.000 264.000 C 20.000 263.450,18.875 263.000,17.500 263.000 C 16.125 263.000,15.000 262.550,15.000 262.000 C 15.000 261.450,14.100 261.000,13.000 261.000 C 11.900 261.000,11.000 260.550,11.000 260.000 C 11.000 259.450,10.100 259.000,9.000 259.000 C 7.889 259.000,7.000 258.333,7.000 257.500 C 7.000 256.500,6.000 256.000,4.000 256.000 C 1.111 256.000,1.000 256.167,1.000 260.500 M173.500 288.643 C 171.850 290.623,169.037 293.748,167.250 295.588 C 165.463 297.428,164.000 299.344,164.000 299.847 C 164.000 300.349,160.738 304.174,156.750 308.346 C 145.470 320.149,141.000 325.034,141.000 325.560 C 141.000 326.514,130.022 337.000,129.023 337.000 C 128.462 337.000,126.148 338.800,123.881 341.000 C 121.614 343.200,118.913 345.000,117.879 345.000 C 116.846 345.000,116.000 345.450,116.000 346.000 C 116.000 346.550,115.100 347.000,114.000 347.000 C 112.900 347.000,112.000 347.450,112.000 348.000 C 112.000 348.550,110.902 349.000,109.559 349.000 C 108.216 349.000,106.840 349.450,106.500 350.000 C 106.124 350.608,98.656 351.000,87.441 351.000 C 75.814 351.000,69.000 350.631,69.000 350.000 C 69.000 349.437,66.186 349.000,62.559 349.000 C 59.016 349.000,55.840 348.550,55.500 348.000 C 55.160 347.450,52.434 347.000,49.441 347.000 C 46.448 347.000,44.000 346.550,44.000 346.000 C 44.000 345.444,41.333 345.000,38.000 345.000 C 34.667 345.000,32.000 344.556,32.000 344.000 C 32.000 343.412,28.500 343.000,23.500 343.000 C 15.787 343.000,15.000 343.178,15.000 344.918 C 15.000 346.839,22.064 355.000,23.726 355.000 C 24.212 355.000,26.385 356.572,28.555 358.494 C 34.445 363.710,34.717 363.914,37.462 365.165 C 38.858 365.801,40.000 366.628,40.000 367.003 C 40.000 367.379,42.138 368.763,44.750 370.079 C 47.362 371.396,49.725 372.772,50.000 373.137 C 50.275 373.502,51.400 373.958,52.500 374.150 C 53.600 374.343,55.228 375.288,56.117 376.250 C 57.007 377.212,58.469 378.000,59.367 378.000 C 60.265 378.000,61.000 378.450,61.000 379.000 C 61.000 379.550,61.900 380.000,63.000 380.000 C 64.100 380.000,65.000 380.450,65.000 381.000 C 65.000 381.550,65.900 382.000,67.000 382.000 C 68.100 382.000,69.000 382.450,69.000 383.000 C 69.000 383.550,69.900 384.000,71.000 384.000 C 72.100 384.000,73.000 384.450,73.000 385.000 C 73.000 385.550,73.900 386.000,75.000 386.000 C 76.100 386.000,77.000 386.450,77.000 387.000 C 77.000 387.550,78.125 388.000,79.500 388.000 C 80.875 388.000,82.000 388.450,82.000 389.000 C 82.000 389.550,83.350 390.000,85.000 390.000 C 86.650 390.000,88.000 390.450,88.000 391.000 C 88.000 391.550,88.900 392.000,90.000 392.000 C 91.100 392.000,92.000 392.450,92.000 393.000 C 92.000 393.550,93.295 394.000,94.878 394.000 C 96.460 394.000,98.315 394.675,99.000 395.500 C 99.709 396.354,101.889 397.000,104.063 397.000 C 106.164 397.000,108.160 397.450,108.500 398.000 C 110.588 401.379,129.882 398.614,133.765 394.379 C 134.719 393.338,136.738 391.851,138.250 391.074 C 139.762 390.298,141.000 389.158,141.000 388.541 C 141.000 387.924,142.800 385.431,145.000 383.000 C 147.200 380.569,149.000 378.000,149.000 377.290 C 149.000 376.581,149.450 376.000,150.000 376.000 C 150.550 376.000,151.000 375.410,151.000 374.689 C 151.000 373.967,151.791 372.505,152.758 371.439 C 155.556 368.353,158.000 364.202,158.000 362.535 C 158.000 361.691,158.450 361.000,159.000 361.000 C 159.550 361.000,160.000 360.100,160.000 359.000 C 160.000 357.900,160.450 357.000,161.000 357.000 C 161.550 357.000,162.000 356.100,162.000 355.000 C 162.000 353.900,162.450 353.000,163.000 353.000 C 163.550 353.000,164.000 351.875,164.000 350.500 C 164.000 349.125,164.450 348.000,165.000 348.000 C 165.550 348.000,166.000 347.127,166.000 346.059 C 166.000 344.991,166.450 343.840,167.000 343.500 C 167.550 343.160,168.000 342.009,168.000 340.941 C 168.000 339.873,168.450 339.000,169.000 339.000 C 169.550 339.000,170.000 337.650,170.000 336.000 C 170.000 334.350,170.450 333.000,171.000 333.000 C 171.550 333.000,172.000 331.875,172.000 330.500 C 172.000 329.125,172.450 328.000,173.000 328.000 C 173.550 328.000,174.000 326.650,174.000 325.000 C 174.000 323.350,174.450 322.000,175.000 322.000 C 175.550 322.000,176.000 320.677,176.000 319.059 C 176.000 317.441,176.450 315.840,177.000 315.500 C 177.550 315.160,178.000 313.334,178.000 311.441 C 178.000 309.548,178.450 308.000,179.000 308.000 C 179.550 308.000,180.000 306.452,180.000 304.559 C 180.000 302.666,180.450 300.840,181.000 300.500 C 181.550 300.160,182.000 296.534,182.000 292.441 L 182.000 285.000 179.250 285.022 C 177.330 285.037,175.594 286.130,173.500 288.643 M386.750 291.677 C 385.238 291.928,384.000 292.553,384.000 293.066 C 384.000 293.580,380.400 294.000,376.000 294.000 C 371.333 294.000,368.000 294.417,368.000 295.000 C 368.000 295.564,365.167 296.000,361.500 296.000 C 357.925 296.000,355.000 296.405,355.000 296.899 C 355.000 297.394,352.863 298.078,350.250 298.419 C 338.453 299.960,337.000 300.254,337.000 301.101 C 337.000 301.595,335.650 302.000,334.000 302.000 C 332.350 302.000,331.000 302.450,331.000 303.000 C 331.000 303.550,329.677 304.000,328.059 304.000 C 326.441 304.000,324.840 304.450,324.500 305.000 C 324.160 305.550,323.009 306.000,321.941 306.000 C 320.510 306.000,320.000 306.693,320.000 308.640 C 320.000 312.052,322.553 313.928,327.250 313.968 C 329.313 313.986,331.000 314.450,331.000 315.000 C 331.000 315.550,333.250 316.000,336.000 316.000 C 338.750 316.000,341.000 316.370,341.000 316.821 C 341.000 317.273,343.363 317.748,346.250 317.877 C 349.137 318.005,351.650 318.536,351.833 319.055 C 352.017 319.575,354.379 320.000,357.083 320.000 C 359.788 320.000,362.000 320.450,362.000 321.000 C 362.000 321.550,364.250 322.000,367.000 322.000 C 369.750 322.000,372.000 322.450,372.000 323.000 C 372.000 323.550,373.800 324.000,376.000 324.000 C 378.200 324.000,380.000 324.414,380.000 324.921 C 380.000 325.427,381.448 326.159,383.217 326.548 C 384.987 326.936,387.124 327.595,387.967 328.010 C 388.810 328.426,390.850 329.322,392.500 330.000 C 394.150 330.678,396.281 331.631,397.236 332.117 C 398.191 332.603,399.879 333.000,400.986 333.000 C 402.094 333.000,403.000 333.374,403.000 333.831 C 403.000 334.288,404.232 335.301,405.738 336.081 C 409.293 337.923,417.000 345.569,417.000 347.253 C 417.000 347.971,417.900 349.207,419.000 350.000 C 420.100 350.793,421.000 352.242,421.000 353.221 C 421.000 354.199,421.450 355.000,422.000 355.000 C 422.550 355.000,423.000 355.900,423.000 357.000 C 423.000 358.100,423.358 359.000,423.795 359.000 C 424.232 359.000,425.425 361.025,426.446 363.500 C 427.466 365.975,428.684 368.000,429.151 368.000 C 429.618 368.000,430.000 368.900,430.000 370.000 C 430.000 371.100,430.450 372.000,431.000 372.000 C 431.550 372.000,432.000 372.873,432.000 373.941 C 432.000 375.009,432.450 376.160,433.000 376.500 C 433.550 376.840,434.000 378.216,434.000 379.559 C 434.000 380.902,434.450 382.000,435.000 382.000 C 435.550 382.000,436.000 383.098,436.000 384.441 C 436.000 385.784,436.450 387.160,437.000 387.500 C 437.550 387.840,438.000 388.991,438.000 390.059 C 438.000 391.127,438.450 392.000,439.000 392.000 C 439.550 392.000,440.000 393.323,440.000 394.941 C 440.000 396.559,440.450 398.160,441.000 398.500 C 441.550 398.840,442.000 400.190,442.000 401.500 C 442.000 402.810,442.450 404.160,443.000 404.500 C 443.550 404.840,444.000 405.991,444.000 407.059 C 444.000 408.127,444.450 409.000,445.000 409.000 C 445.550 409.000,446.000 410.350,446.000 412.000 C 446.000 413.650,446.450 415.000,447.000 415.000 C 447.550 415.000,448.000 415.900,448.000 417.000 C 448.000 418.100,448.450 419.000,449.000 419.000 C 449.550 419.000,450.000 419.900,450.000 421.000 C 450.000 422.556,450.667 423.000,453.000 423.000 C 455.333 423.000,456.000 422.556,456.000 421.000 C 456.000 419.900,456.450 419.000,457.000 419.000 C 457.564 419.000,458.000 416.167,458.000 412.500 C 458.000 408.833,458.436 406.000,459.000 406.000 C 459.644 406.000,460.000 395.500,460.000 376.500 C 460.000 357.500,459.644 347.000,459.000 347.000 C 458.417 347.000,458.000 343.667,458.000 339.000 C 458.000 334.333,457.583 331.000,457.000 331.000 C 456.450 331.000,456.000 328.975,456.000 326.500 C 456.000 324.025,455.550 322.000,455.000 322.000 C 454.450 322.000,454.000 320.452,454.000 318.559 C 454.000 316.666,453.550 314.840,453.000 314.500 C 452.450 314.160,452.000 313.009,452.000 311.941 C 452.000 310.873,451.550 310.000,451.000 310.000 C 450.450 310.000,450.000 309.100,450.000 308.000 C 450.000 306.900,449.550 306.000,449.000 306.000 C 448.450 306.000,448.000 305.293,448.000 304.429 C 448.000 302.603,445.656 300.000,444.012 300.000 C 443.391 300.000,443.160 299.550,443.500 299.000 C 443.840 298.450,443.191 298.000,442.059 298.000 C 440.927 298.000,440.000 297.550,440.000 297.000 C 440.000 296.450,438.650 296.000,437.000 296.000 C 435.350 296.000,434.000 295.550,434.000 295.000 C 434.000 294.450,432.012 294.000,429.583 294.000 C 426.938 294.000,425.000 293.499,424.751 292.750 C 424.334 291.494,393.158 290.614,386.750 291.677 M193.000 311.059 C 193.000 311.641,192.550 311.840,192.000 311.500 C 191.433 311.149,191.000 311.990,191.000 313.441 C 191.000 314.848,190.583 316.000,190.073 316.000 C 189.002 316.000,186.000 321.652,186.000 323.667 C 186.000 324.415,185.550 325.921,185.000 327.014 C 184.450 328.106,183.550 329.894,183.000 330.986 C 182.450 332.079,182.000 333.660,182.000 334.500 C 182.000 335.340,181.550 336.921,181.000 338.014 C 180.450 339.106,179.550 340.894,179.000 341.986 C 178.450 343.079,178.000 344.654,178.000 345.486 C 178.000 346.319,177.550 347.000,177.000 347.000 C 176.450 347.000,176.000 348.125,176.000 349.500 C 176.000 350.875,175.550 352.000,175.000 352.000 C 174.450 352.000,174.000 353.125,174.000 354.500 C 174.000 355.875,173.550 357.000,173.000 357.000 C 172.450 357.000,172.000 358.125,172.000 359.500 C 172.000 360.875,171.550 362.000,171.000 362.000 C 170.450 362.000,170.000 362.900,170.000 364.000 C 170.000 365.100,169.550 366.000,169.000 366.000 C 168.450 366.000,168.000 366.900,168.000 368.000 C 168.000 369.100,167.550 370.000,167.000 370.000 C 166.450 370.000,166.000 370.900,166.000 372.000 C 166.000 373.100,165.550 374.000,165.000 374.000 C 164.450 374.000,164.000 374.900,164.000 376.000 C 164.000 377.100,163.550 378.000,163.000 378.000 C 162.450 378.000,161.999 378.563,161.998 379.250 C 161.996 379.938,160.647 382.075,159.000 384.000 C 157.353 385.925,156.004 387.844,156.002 388.264 C 155.999 389.340,149.716 394.935,148.471 394.971 C 147.905 394.987,146.793 395.900,146.000 397.000 C 145.207 398.100,143.758 399.000,142.779 399.000 C 141.801 399.000,141.000 399.450,141.000 400.000 C 141.000 400.550,139.902 401.000,138.559 401.000 C 137.216 401.000,135.840 401.450,135.500 402.000 C 135.160 402.550,134.009 403.000,132.941 403.000 C 131.873 403.000,131.000 403.450,131.000 404.000 C 131.000 404.550,129.452 405.000,127.559 405.000 C 125.666 405.000,123.840 405.450,123.500 406.000 C 123.160 406.550,121.307 407.000,119.382 407.000 C 117.303 407.000,116.133 407.406,116.500 408.000 C 116.881 408.616,115.197 409.000,112.118 409.000 C 109.368 409.000,106.840 409.450,106.500 410.000 C 106.160 410.550,104.109 411.000,101.941 411.000 C 99.773 411.000,98.000 411.450,98.000 412.000 C 98.000 412.556,95.333 413.000,92.000 413.000 C 88.667 413.000,86.000 413.444,86.000 414.000 C 86.000 414.550,83.525 415.000,80.500 415.000 C 77.475 415.000,75.000 415.450,75.000 416.000 C 75.000 416.550,72.750 417.000,70.000 417.000 C 67.250 417.000,65.000 417.450,65.000 418.000 C 65.000 418.550,64.100 419.000,63.000 419.000 C 61.505 419.000,61.000 419.667,61.000 421.640 C 61.000 424.650,63.451 426.922,66.750 426.968 C 67.987 426.986,69.000 427.344,69.000 427.765 C 69.000 428.842,78.235 432.000,81.384 432.000 C 82.823 432.000,84.000 432.450,84.000 433.000 C 84.000 433.550,85.773 434.000,87.941 434.000 C 90.109 434.000,92.160 434.450,92.500 435.000 C 92.840 435.550,95.315 436.000,98.000 436.000 C 100.685 436.000,103.160 436.450,103.500 437.000 C 103.840 437.550,106.540 438.000,109.500 438.000 C 112.460 438.000,115.160 438.450,115.500 439.000 C 115.845 439.558,120.510 440.000,126.059 440.000 C 132.020 440.000,136.000 440.400,136.000 441.000 C 136.000 441.609,140.500 442.000,147.500 442.000 C 154.500 442.000,159.000 441.609,159.000 441.000 C 159.000 440.429,161.980 440.000,165.941 440.000 C 169.759 440.000,173.160 439.550,173.500 439.000 C 173.840 438.450,174.991 438.000,176.059 438.000 C 177.127 438.000,178.000 437.550,178.000 437.000 C 178.000 436.450,178.739 436.000,179.642 436.000 C 182.870 436.000,193.000 423.135,193.000 419.035 C 193.000 417.916,193.450 417.000,194.000 417.000 C 194.550 417.000,195.000 415.650,195.000 414.000 C 195.000 412.350,195.450 411.000,196.000 411.000 C 196.550 411.000,197.000 409.002,197.000 406.559 C 197.000 404.116,197.450 401.840,198.000 401.500 C 198.550 401.160,199.000 397.984,199.000 394.441 C 199.000 390.814,199.437 388.000,200.000 388.000 C 200.647 388.000,201.000 376.000,201.000 354.000 C 201.000 332.000,200.647 320.000,200.000 320.000 C 199.450 320.000,199.000 318.290,199.000 316.200 C 199.000 314.110,198.460 311.860,197.800 311.200 C 196.317 309.717,193.000 309.619,193.000 311.059 M303.750 324.639 C 302.788 324.918,302.000 325.564,302.000 326.073 C 302.000 326.583,301.100 327.000,300.000 327.000 C 296.984 327.000,297.577 329.644,301.467 333.533 C 303.373 335.440,305.623 337.000,306.467 337.000 C 307.310 337.000,308.000 337.450,308.000 338.000 C 308.000 338.550,308.590 339.000,309.311 339.000 C 310.033 339.000,311.589 339.900,312.770 341.000 C 313.950 342.100,315.610 343.000,316.458 343.000 C 317.306 343.000,318.000 343.450,318.000 344.000 C 318.000 344.550,318.900 345.000,320.000 345.000 C 321.100 345.000,322.000 345.450,322.000 346.000 C 322.000 346.550,322.675 347.000,323.500 347.000 C 324.325 347.000,325.000 347.450,325.000 348.000 C 325.000 348.550,325.900 349.000,327.000 349.000 C 328.100 349.000,329.000 349.450,329.000 350.000 C 329.000 350.550,329.590 351.000,330.311 351.000 C 331.033 351.000,332.589 351.900,333.770 353.000 C 334.950 354.100,336.511 355.000,337.237 355.000 C 337.964 355.000,339.207 355.900,340.000 357.000 C 340.793 358.100,342.242 359.000,343.221 359.000 C 344.199 359.000,345.000 359.599,345.000 360.331 C 345.000 361.063,346.230 362.301,347.733 363.081 C 349.236 363.861,351.682 365.646,353.168 367.046 C 354.654 368.447,357.132 370.247,358.673 371.046 C 362.253 372.903,369.079 379.712,370.919 383.262 C 371.699 384.768,372.712 386.000,373.169 386.000 C 373.626 386.000,374.000 386.900,374.000 388.000 C 374.000 389.100,374.450 390.000,375.000 390.000 C 375.550 390.000,376.000 391.350,376.000 393.000 C 376.000 394.650,376.450 396.000,377.000 396.000 C 377.550 396.000,378.000 397.773,378.000 399.941 C 378.000 402.109,378.450 404.160,379.000 404.500 C 379.550 404.840,380.000 408.665,380.000 413.000 C 380.000 417.335,380.450 421.160,381.000 421.500 C 381.628 421.888,382.000 432.534,382.000 450.130 C 382.000 478.973,382.267 481.000,386.062 481.000 C 387.556 481.000,391.997 475.951,391.999 474.250 C 391.999 473.563,392.450 473.000,393.000 473.000 C 393.550 473.000,394.000 472.155,394.000 471.122 C 394.000 470.090,394.675 468.685,395.500 468.000 C 396.325 467.315,397.000 466.135,397.000 465.378 C 397.000 464.620,397.450 464.000,398.000 464.000 C 398.550 464.000,399.000 463.100,399.000 462.000 C 399.000 460.900,399.450 460.000,400.000 460.000 C 400.550 460.000,401.000 458.650,401.000 457.000 C 401.000 455.350,401.450 454.000,402.000 454.000 C 402.550 454.000,403.000 453.100,403.000 452.000 C 403.000 450.900,403.450 450.000,404.000 450.000 C 404.550 450.000,405.000 449.127,405.000 448.059 C 405.000 446.991,405.450 445.840,406.000 445.500 C 406.550 445.160,407.000 443.810,407.000 442.500 C 407.000 441.190,407.450 439.840,408.000 439.500 C 408.550 439.160,409.000 437.810,409.000 436.500 C 409.000 435.190,409.450 433.840,410.000 433.500 C 410.550 433.160,411.000 431.559,411.000 429.941 C 411.000 428.323,411.450 427.000,412.000 427.000 C 412.550 427.000,413.000 425.677,413.000 424.059 C 413.000 422.441,413.450 420.840,414.000 420.500 C 414.550 420.160,415.000 418.334,415.000 416.441 C 415.000 414.548,415.450 413.000,416.000 413.000 C 416.550 413.000,417.000 411.200,417.000 409.000 C 417.000 406.800,417.450 405.000,418.000 405.000 C 418.550 405.000,419.000 402.552,419.000 399.559 C 419.000 396.566,419.450 393.840,420.000 393.500 C 420.586 393.138,421.000 387.323,421.000 379.441 C 421.000 371.147,420.617 366.000,420.000 366.000 C 419.450 366.000,419.000 364.650,419.000 363.000 C 419.000 361.350,418.550 360.000,418.000 360.000 C 417.450 360.000,417.000 359.535,417.000 358.967 C 417.000 357.514,411.026 351.780,407.743 350.081 C 406.234 349.301,405.000 348.288,405.000 347.831 C 405.000 347.374,404.100 347.000,403.000 347.000 C 401.900 347.000,401.000 346.550,401.000 346.000 C 401.000 345.450,399.875 345.000,398.500 345.000 C 397.125 345.000,396.000 344.550,396.000 344.000 C 396.000 343.450,395.100 343.000,394.000 343.000 C 392.900 343.000,392.000 342.550,392.000 342.000 C 392.000 341.450,390.650 341.000,389.000 341.000 C 387.350 341.000,386.000 340.550,386.000 340.000 C 386.000 339.450,384.650 339.000,383.000 339.000 C 381.350 339.000,380.000 338.550,380.000 338.000 C 380.000 337.450,378.677 337.000,377.059 337.000 C 375.441 337.000,373.840 336.550,373.500 336.000 C 373.160 335.450,371.360 335.000,369.500 335.000 C 367.640 335.000,365.840 334.550,365.500 334.000 C 365.160 333.450,363.135 333.000,361.000 333.000 C 358.865 333.000,356.840 332.550,356.500 332.000 C 356.160 331.450,353.974 331.000,351.641 331.000 C 349.308 331.000,346.972 330.590,346.450 330.088 C 345.429 329.108,338.565 328.241,325.006 327.379 C 320.334 327.082,316.013 326.426,315.405 325.921 C 314.059 324.804,306.171 323.937,303.750 324.639 M214.250 330.496 C 213.316 331.557,213.000 338.736,213.000 358.899 C 213.000 375.809,212.627 386.113,212.000 386.500 C 211.450 386.840,211.000 390.665,211.000 395.000 C 211.000 399.335,210.550 403.160,210.000 403.500 C 209.450 403.840,209.000 405.666,209.000 407.559 C 209.000 409.452,208.550 411.000,208.000 411.000 C 207.450 411.000,207.000 412.350,207.000 414.000 C 207.000 415.650,206.550 417.000,206.000 417.000 C 205.450 417.000,205.000 417.900,205.000 419.000 C 205.000 420.100,204.550 421.000,204.000 421.000 C 203.450 421.000,203.000 421.801,203.000 422.779 C 203.000 423.758,202.100 425.207,201.000 426.000 C 199.900 426.793,199.000 427.804,199.000 428.247 C 199.000 429.616,190.643 437.416,187.488 438.993 C 185.845 439.814,183.772 441.277,182.883 442.243 C 181.993 443.209,180.630 444.000,179.853 444.000 C 179.077 444.000,177.793 444.900,177.000 446.000 C 176.207 447.100,174.923 448.000,174.147 448.000 C 173.370 448.000,172.007 448.795,171.117 449.767 C 170.228 450.739,167.363 452.610,164.750 453.924 C 162.137 455.239,160.000 456.694,160.000 457.157 C 160.000 457.621,159.100 458.000,158.000 458.000 C 156.900 458.000,156.000 458.367,156.000 458.815 C 156.000 459.263,154.425 460.381,152.500 461.299 C 150.575 462.217,149.000 463.425,149.000 463.984 C 149.000 464.543,148.100 465.000,147.000 465.000 C 145.900 465.000,145.000 465.450,145.000 466.000 C 145.000 466.550,144.100 467.000,143.000 467.000 C 141.900 467.000,141.000 467.450,141.000 468.000 C 141.000 468.550,140.298 469.000,139.441 469.000 C 138.584 469.000,138.160 469.450,138.500 470.000 C 138.840 470.550,138.191 471.000,137.059 471.000 C 135.927 471.000,135.000 471.450,135.000 472.000 C 135.000 472.550,134.293 473.000,133.429 473.000 C 131.068 473.000,129.000 475.535,129.000 478.429 C 129.000 480.619,129.444 481.000,132.000 481.000 C 133.650 481.000,135.000 481.450,135.000 482.000 C 135.000 482.550,136.998 483.000,139.441 483.000 C 141.884 483.000,144.160 482.550,144.500 482.000 C 144.848 481.437,149.677 481.000,155.559 481.000 C 161.853 481.000,166.000 480.603,166.000 480.000 C 166.000 479.450,168.448 479.000,171.441 479.000 C 174.434 479.000,177.160 478.550,177.500 478.000 C 177.840 477.450,180.315 477.000,183.000 477.000 C 185.685 477.000,188.160 476.550,188.500 476.000 C 188.840 475.450,191.090 475.000,193.500 475.000 C 195.910 475.000,198.160 474.550,198.500 474.000 C 198.840 473.450,200.415 473.000,202.000 473.000 C 203.585 473.000,205.160 472.550,205.500 472.000 C 205.840 471.450,207.441 471.000,209.059 471.000 C 210.677 471.000,212.000 470.550,212.000 470.000 C 212.000 469.450,212.682 469.000,213.516 469.000 C 215.941 469.000,223.000 466.586,223.000 465.757 C 223.000 465.340,223.868 465.000,224.929 465.000 C 225.989 465.000,227.532 464.325,228.357 463.500 C 229.182 462.675,230.690 462.000,231.708 462.000 C 232.726 462.000,234.207 461.100,235.000 460.000 C 235.793 458.900,237.029 458.000,237.747 458.000 C 239.600 458.000,248.000 449.371,248.000 447.467 C 248.000 446.595,248.450 446.160,249.000 446.500 C 249.594 446.867,250.000 445.697,250.000 443.618 C 250.000 441.693,250.450 439.840,251.000 439.500 C 251.564 439.151,252.000 434.303,252.000 428.382 C 252.000 421.637,251.642 418.103,251.000 418.500 C 250.373 418.888,250.000 416.697,250.000 412.618 C 250.000 409.043,249.550 405.840,249.000 405.500 C 248.450 405.160,248.000 403.135,248.000 401.000 C 248.000 398.865,247.550 396.840,247.000 396.500 C 246.450 396.160,246.000 394.109,246.000 391.941 C 246.000 389.773,245.550 388.000,245.000 388.000 C 244.450 388.000,244.000 386.452,244.000 384.559 C 244.000 382.666,243.550 380.840,243.000 380.500 C 242.450 380.160,242.000 378.559,242.000 376.941 C 242.000 375.323,241.550 374.000,241.000 374.000 C 240.450 374.000,240.000 372.902,240.000 371.559 C 240.000 370.216,239.550 368.840,239.000 368.500 C 238.450 368.160,238.000 367.009,238.000 365.941 C 238.000 364.873,237.648 364.000,237.218 364.000 C 236.788 364.000,236.335 362.782,236.212 361.294 C 236.089 359.806,235.541 358.141,234.994 357.594 C 234.447 357.047,234.000 355.790,234.000 354.800 C 234.000 353.810,233.631 353.000,233.181 353.000 C 232.730 353.000,231.749 350.750,231.000 348.000 C 230.251 345.250,229.270 343.000,228.819 343.000 C 228.369 343.000,228.000 342.100,228.000 341.000 C 228.000 339.900,227.602 339.000,227.117 339.000 C 226.631 339.000,225.969 338.212,225.646 337.250 C 224.985 335.281,223.087 332.228,221.321 330.292 C 219.772 328.593,215.825 328.706,214.250 330.496 M242.129 342.000 C 242.255 344.750,242.727 347.000,243.179 347.000 C 243.630 347.000,244.000 348.350,244.000 350.000 C 244.000 351.650,244.450 353.000,245.000 353.000 C 245.550 353.000,246.000 354.350,246.000 356.000 C 246.000 357.650,246.450 359.000,247.000 359.000 C 247.550 359.000,248.000 360.350,248.000 362.000 C 248.000 363.650,248.450 365.000,249.000 365.000 C 249.550 365.000,250.000 366.098,250.000 367.441 C 250.000 368.784,250.450 370.160,251.000 370.500 C 251.550 370.840,252.000 371.998,252.000 373.073 C 252.000 374.148,252.413 375.809,252.917 376.764 C 253.421 377.719,254.588 381.087,255.510 384.250 C 256.432 387.413,257.594 390.000,258.093 390.000 C 258.592 390.000,259.000 391.575,259.000 393.500 C 259.000 395.425,259.450 397.000,260.000 397.000 C 260.550 397.000,261.000 398.800,261.000 401.000 C 261.000 403.200,261.450 405.000,262.000 405.000 C 262.556 405.000,263.000 407.667,263.000 411.000 C 263.000 414.333,263.444 417.000,264.000 417.000 C 264.564 417.000,265.000 419.833,265.000 423.500 C 265.000 427.167,264.564 430.000,264.000 430.000 C 263.450 430.000,263.000 431.350,263.000 433.000 C 263.000 434.650,262.550 436.000,262.000 436.000 C 261.450 436.000,261.000 437.350,261.000 439.000 C 261.000 440.650,260.550 442.000,260.000 442.000 C 259.450 442.000,259.000 442.689,259.000 443.531 C 259.000 444.374,258.366 445.306,257.592 445.603 C 256.817 445.900,255.637 447.461,254.970 449.072 C 254.303 450.682,253.362 452.000,252.879 452.000 C 252.395 452.000,252.000 452.590,252.000 453.311 C 252.000 454.033,251.100 455.589,250.000 456.770 C 248.900 457.950,248.000 459.385,248.000 459.958 C 248.000 460.531,247.550 461.000,247.000 461.000 C 246.450 461.000,246.000 461.719,246.000 462.599 C 246.000 463.478,244.650 465.459,243.000 467.000 C 241.350 468.541,240.000 470.332,240.000 470.980 C 240.000 471.627,238.200 473.886,236.000 476.000 C 233.800 478.114,232.000 480.257,232.000 480.763 C 232.000 481.268,230.053 483.743,227.674 486.262 C 225.294 488.781,222.032 492.522,220.424 494.575 C 218.816 496.628,216.600 499.271,215.500 500.449 C 214.400 501.627,213.354 503.245,213.175 504.045 C 212.996 504.845,212.434 505.650,211.925 505.833 C 210.378 506.391,210.893 510.745,212.582 511.393 C 215.062 512.345,219.000 512.104,219.000 511.000 C 219.000 510.450,220.350 510.000,222.000 510.000 C 223.650 510.000,225.000 509.550,225.000 509.000 C 225.000 508.450,226.125 508.000,227.500 508.000 C 228.875 508.000,230.000 507.550,230.000 507.000 C 230.000 506.450,230.615 506.000,231.366 506.000 C 233.501 506.000,247.315 498.861,249.117 496.826 C 250.007 495.822,251.469 495.000,252.367 495.000 C 253.265 495.000,254.000 494.550,254.000 494.000 C 254.000 493.450,254.900 493.000,256.000 493.000 C 257.100 493.000,258.000 492.550,258.000 492.000 C 258.000 491.450,258.900 491.000,260.000 491.000 C 261.100 491.000,262.000 490.550,262.000 490.000 C 262.000 489.450,262.675 489.000,263.500 489.000 C 264.325 489.000,265.000 488.550,265.000 488.000 C 265.000 487.450,265.801 487.000,266.779 487.000 C 267.758 487.000,269.207 486.100,270.000 485.000 C 270.793 483.900,272.143 483.000,273.000 483.000 C 273.857 483.000,275.207 482.100,276.000 481.000 C 276.793 479.900,277.950 479.000,278.572 479.000 C 279.194 479.000,281.118 477.648,282.847 475.995 C 284.577 474.343,286.250 473.105,286.567 473.245 C 287.230 473.538,293.486 468.411,295.883 465.610 C 296.772 464.570,300.313 460.866,303.750 457.378 C 307.188 453.891,310.000 450.354,310.000 449.519 C 310.000 448.683,310.450 448.000,311.000 448.000 C 311.550 448.000,312.000 447.127,312.000 446.059 C 312.000 444.991,312.450 443.840,313.000 443.500 C 313.550 443.160,314.000 439.309,314.000 434.941 C 314.000 430.314,313.583 427.000,313.000 427.000 C 312.450 427.000,312.000 425.452,312.000 423.559 C 312.000 421.666,311.550 419.840,311.000 419.500 C 310.450 419.160,310.000 418.009,310.000 416.941 C 310.000 415.873,309.550 415.000,309.000 415.000 C 308.450 415.000,308.000 414.100,308.000 413.000 C 308.000 411.900,307.550 411.000,307.000 411.000 C 306.450 411.000,306.000 410.100,306.000 409.000 C 306.000 407.900,305.550 407.000,305.000 407.000 C 304.450 407.000,304.000 406.100,304.000 405.000 C 304.000 403.900,303.550 403.000,303.000 403.000 C 302.450 403.000,302.000 402.199,302.000 401.221 C 302.000 400.242,301.100 398.793,300.000 398.000 C 298.900 397.207,297.999 395.870,297.999 395.029 C 297.998 393.580,295.601 390.223,291.044 385.286 C 289.920 384.068,289.000 382.606,289.000 382.037 C 289.000 381.468,287.200 379.148,285.000 376.881 C 282.800 374.614,281.000 372.328,281.000 371.801 C 281.000 371.274,279.200 369.114,277.000 367.000 C 274.800 364.886,273.000 362.747,273.000 362.246 C 273.000 361.290,264.853 351.892,261.618 349.115 C 260.583 348.227,258.329 346.150,256.610 344.500 C 254.892 342.850,252.251 340.861,250.743 340.081 C 249.234 339.301,248.000 338.288,248.000 337.831 C 248.000 337.374,246.628 337.000,244.951 337.000 C 241.927 337.000,241.903 337.043,242.129 342.000 M271.000 340.000 C 271.000 341.650,271.374 343.000,271.831 343.000 C 272.288 343.000,273.301 344.238,274.081 345.750 C 274.861 347.262,276.663 349.625,278.084 351.000 C 279.505 352.375,281.227 354.548,281.911 355.829 C 283.433 358.678,285.630 361.424,289.250 365.000 C 290.762 366.494,292.000 368.257,292.000 368.917 C 292.000 369.578,292.450 369.840,293.000 369.500 C 293.550 369.160,294.000 369.484,294.000 370.220 C 294.000 370.956,294.900 372.207,296.000 373.000 C 297.100 373.793,298.000 374.950,298.000 375.572 C 298.000 376.194,299.350 378.116,301.000 379.843 C 302.650 381.569,304.000 383.369,304.000 383.843 C 304.000 384.316,305.350 386.116,307.000 387.843 C 308.650 389.569,310.000 391.661,310.000 392.491 C 310.000 393.321,310.366 394.000,310.813 394.000 C 311.261 394.000,312.245 395.575,313.000 397.500 C 313.755 399.425,314.739 401.000,315.187 401.000 C 315.634 401.000,316.000 401.900,316.000 403.000 C 316.000 404.100,316.450 405.000,317.000 405.000 C 317.550 405.000,318.000 405.900,318.000 407.000 C 318.000 408.100,318.450 409.000,319.000 409.000 C 319.550 409.000,320.000 410.098,320.000 411.441 C 320.000 412.784,320.450 414.160,321.000 414.500 C 322.250 415.273,322.348 438.000,321.101 438.000 C 320.606 438.000,319.952 439.913,319.647 442.250 C 318.584 450.399,317.773 454.022,316.890 454.568 C 316.400 454.871,316.000 456.441,316.000 458.059 C 316.000 459.677,315.550 461.000,315.000 461.000 C 314.450 461.000,314.000 462.350,314.000 464.000 C 314.000 465.650,313.550 467.000,313.000 467.000 C 312.450 467.000,312.000 468.350,312.000 470.000 C 312.000 471.650,311.550 473.000,311.000 473.000 C 310.450 473.000,310.000 474.350,310.000 476.000 C 310.000 477.650,309.550 479.000,309.000 479.000 C 308.450 479.000,308.000 480.350,308.000 482.000 C 308.000 483.650,307.550 485.000,307.000 485.000 C 306.450 485.000,306.000 486.098,306.000 487.441 C 306.000 488.784,305.550 490.160,305.000 490.500 C 304.450 490.840,304.000 492.216,304.000 493.559 C 304.000 494.902,303.550 496.000,303.000 496.000 C 302.450 496.000,302.000 497.323,302.000 498.941 C 302.000 500.559,301.550 502.160,301.000 502.500 C 297.775 504.493,299.978 510.000,304.000 510.000 C 306.200 510.000,308.000 509.647,308.000 509.216 C 308.000 508.784,309.362 507.627,311.027 506.643 C 314.290 504.716,314.930 504.088,325.500 492.442 C 329.350 488.200,334.413 482.724,336.750 480.273 C 339.087 477.822,341.000 475.474,341.000 475.057 C 341.000 474.639,342.350 472.884,344.000 471.157 C 345.650 469.431,347.000 467.564,347.000 467.009 C 347.000 466.454,347.450 466.000,348.000 466.000 C 348.550 466.000,349.000 465.265,349.000 464.367 C 349.000 463.469,349.791 462.007,350.757 461.117 C 351.723 460.228,353.149 458.262,353.926 456.750 C 354.702 455.238,355.712 454.000,356.169 454.000 C 356.626 454.000,357.001 453.438,357.001 452.750 C 357.002 451.668,358.281 449.859,362.980 444.292 C 363.541 443.628,364.000 442.390,364.000 441.542 C 364.000 440.694,364.450 440.000,365.000 440.000 C 365.550 440.000,366.000 439.100,366.000 438.000 C 366.000 436.900,366.450 436.000,367.000 436.000 C 367.550 436.000,368.000 435.127,368.000 434.059 C 368.000 432.991,368.450 431.840,369.000 431.500 C 369.550 431.160,370.000 429.810,370.000 428.500 C 370.000 427.190,370.450 425.840,371.000 425.500 C 371.550 425.160,372.000 423.109,372.000 420.941 C 372.000 418.773,372.450 417.000,373.000 417.000 C 373.550 417.000,374.000 415.200,374.000 413.000 C 374.000 410.800,373.550 409.000,373.000 409.000 C 372.450 409.000,372.000 407.650,372.000 406.000 C 372.000 404.350,371.550 403.000,371.000 403.000 C 370.450 403.000,370.000 402.100,370.000 401.000 C 370.000 399.900,369.580 399.000,369.067 399.000 C 368.554 399.000,367.824 398.021,367.444 396.825 C 366.671 394.388,350.644 378.000,349.034 378.000 C 348.467 378.000,346.148 376.200,343.881 374.000 C 341.614 371.800,339.237 370.000,338.600 370.000 C 337.963 370.000,336.793 369.100,336.000 368.000 C 335.207 366.900,333.964 366.000,333.237 366.000 C 332.511 366.000,330.950 365.100,329.770 364.000 C 328.589 362.900,326.808 362.000,325.811 362.000 C 324.815 362.000,324.000 361.380,324.000 360.621 C 324.000 359.863,322.650 358.683,321.000 358.000 C 319.350 357.317,318.000 356.362,318.000 355.879 C 318.000 355.395,317.306 355.000,316.458 355.000 C 315.610 355.000,313.950 354.100,312.770 353.000 C 311.589 351.900,310.033 351.000,309.311 351.000 C 308.590 351.000,308.000 350.550,308.000 350.000 C 308.000 349.450,307.100 349.000,306.000 349.000 C 304.900 349.000,304.000 348.550,304.000 348.000 C 304.000 347.450,303.100 347.000,302.000 347.000 C 300.900 347.000,300.000 346.550,300.000 346.000 C 300.000 345.450,299.100 345.000,298.000 345.000 C 296.900 345.000,296.000 344.550,296.000 344.000 C 296.000 343.450,294.875 343.000,293.500 343.000 C 292.125 343.000,291.000 342.550,291.000 342.000 C 291.000 341.450,290.127 341.000,289.059 341.000 C 287.991 341.000,286.840 340.550,286.500 340.000 C 286.160 339.450,284.784 339.000,283.441 339.000 C 282.098 339.000,281.000 338.550,281.000 338.000 C 281.000 337.450,278.750 337.000,276.000 337.000 C 271.111 337.000,271.000 337.067,271.000 340.000 " stroke="none" fill="#000000" fill-rule="evenodd"></path></g></svg>