<svg id="svg" version="1.1" width="400" height="400" xmlns="http://www.w3.org/2000/svg" xmlns:xlink="http://www.w3.org/1999/xlink" style="display: block;"><g id="svgg"><path id="path0" d="M135.500 25.689 C 123.876 27.195,88.934 37.139,82.384 40.805 C 81.272 41.427,78.771 48.574,74.927 62.121 C 71.745 73.329,66.156 92.850,62.507 105.500 C 58.857 118.150,53.247 137.804,50.040 149.177 C 46.833 160.549,43.910 170.336,43.545 170.927 C 42.521 172.585,44.457 172.215,50.220 169.652 C 102.049 146.604,142.709 149.244,187.452 178.561 C 189.735 180.057,189.768 180.014,191.852 172.784 C 197.995 151.474,206.035 123.888,207.382 119.500 C 208.226 116.750,211.230 106.400,214.056 96.500 C 216.883 86.600,220.990 72.254,223.183 64.620 C 226.496 53.084,226.944 50.524,225.835 49.454 C 223.365 47.074,206.558 37.415,200.000 34.608 C 196.425 33.078,192.063 31.181,190.307 30.393 C 180.662 26.066,151.742 23.583,135.500 25.689 M243.652 72.250 C 242.263 76.787,239.274 87.250,237.010 95.500 C 234.746 103.750,232.262 112.300,231.491 114.500 C 230.719 116.700,227.614 127.275,224.590 138.000 C 221.567 148.725,216.835 165.375,214.076 175.000 C 211.316 184.625,209.049 192.950,209.038 193.500 C 209.017 194.537,217.882 200.482,224.000 203.533 C 225.925 204.493,227.725 205.612,228.000 206.018 C 228.795 207.194,242.399 212.740,249.767 214.892 C 265.802 219.575,287.528 221.449,298.307 219.078 C 300.613 218.570,306.550 217.384,311.500 216.441 C 328.672 213.169,354.233 203.710,355.315 200.227 C 356.723 195.694,369.747 150.331,374.617 133.000 C 377.631 122.275,380.498 112.600,380.989 111.500 C 381.779 109.731,392.000 73.523,392.000 72.494 C 392.000 72.271,390.087 72.785,387.750 73.636 C 328.004 95.388,291.446 93.857,253.395 68.009 C 245.907 62.922,246.600 62.621,243.652 72.250 M91.745 178.122 C 84.311 179.079,81.941 179.613,68.048 183.455 C 57.047 186.498,38.898 192.694,37.855 193.763 C 37.459 194.168,35.788 199.225,34.140 205.000 C 32.492 210.775,28.361 225.175,24.959 237.000 C 21.558 248.825,15.945 268.400,12.488 280.500 C 9.030 292.600,4.806 307.224,3.101 312.998 C 1.395 318.772,0.000 323.830,0.000 324.239 C 0.000 324.910,10.527 321.379,15.500 319.040 C 19.856 316.991,34.238 313.026,44.486 311.049 C 81.239 303.956,110.344 310.064,141.497 331.408 L 145.495 334.146 147.157 328.323 C 148.071 325.120,150.453 316.875,152.449 310.000 C 154.446 303.125,158.310 289.625,161.036 280.000 C 163.763 270.375,167.084 259.125,168.416 255.000 C 169.748 250.875,172.908 240.075,175.438 231.000 C 177.967 221.925,180.903 212.025,181.961 209.000 C 184.224 202.533,184.844 203.398,172.432 195.686 C 147.025 179.898,121.357 174.311,91.745 178.122 M200.108 223.250 C 198.895 227.787,196.384 236.450,194.527 242.500 C 190.945 254.174,184.009 278.220,175.921 307.000 C 173.217 316.625,169.601 328.932,167.886 334.349 C 164.297 345.688,163.849 344.565,174.500 350.946 C 214.064 374.651,259.452 376.605,303.410 356.498 C 306.414 355.124,309.332 354.000,309.894 354.000 C 310.851 354.000,312.628 348.752,316.495 334.500 C 317.391 331.200,318.528 327.600,319.022 326.500 C 319.517 325.400,322.374 315.725,325.372 305.000 C 330.233 287.610,339.519 255.375,346.328 232.250 C 347.664 227.713,348.386 224.000,347.931 224.000 C 346.867 224.000,329.991 229.869,327.947 230.949 C 327.094 231.401,323.044 232.679,318.947 233.791 C 276.394 245.334,240.727 240.576,209.375 219.176 C 206.010 216.879,203.045 215.000,202.786 215.000 C 202.526 215.000,201.321 218.713,200.108 223.250 " stroke="none" fill="#000000" fill-rule="evenodd"></path></g></svg>