<svg id="svg" version="1.1" width="515" height="515" xmlns="http://www.w3.org/2000/svg" xmlns:xlink="http://www.w3.org/1999/xlink" style="display: block;"><g id="svgg"><path id="path0" d="M283.500 37.569 C 282.950 37.794,271.700 39.982,258.500 42.430 C 245.300 44.878,222.350 49.186,207.500 52.003 C 192.650 54.820,172.175 58.685,162.000 60.592 C 151.825 62.499,134.050 65.832,122.500 67.998 C 110.950 70.165,92.050 73.709,80.500 75.873 C 68.950 78.037,51.963 81.254,42.750 83.022 L 26.000 86.236 26.000 257.438 L 26.000 428.640 37.750 430.847 C 44.213 432.061,60.075 435.036,73.000 437.457 C 85.925 439.879,107.525 443.945,121.000 446.492 C 151.020 452.167,186.740 458.900,214.000 464.022 C 225.275 466.140,246.542 470.152,261.260 472.937 C 275.979 475.722,288.466 478.000,289.010 478.000 C 289.633 478.000,290.000 469.846,290.000 456.000 L 290.000 434.000 380.634 434.000 C 477.881 434.000,476.001 434.097,482.473 428.762 C 490.723 421.961,490.000 438.426,490.000 257.441 C 490.000 78.330,490.625 93.507,482.968 86.590 C 476.664 80.895,478.801 81.012,380.750 81.006 L 290.000 81.000 290.000 59.000 L 290.000 37.000 287.250 37.079 C 285.738 37.122,284.050 37.343,283.500 37.569 M471.000 257.500 L 471.000 415.000 380.500 415.000 L 290.000 415.000 290.000 400.500 L 290.000 386.000 366.500 386.000 L 443.000 386.000 443.000 375.500 L 443.000 365.000 366.500 365.000 L 290.000 365.000 290.000 351.500 L 290.000 338.000 366.500 338.000 L 443.000 338.000 443.000 327.500 L 443.000 317.000 366.500 317.000 L 290.000 317.000 290.000 303.500 L 290.000 290.000 366.500 290.000 L 443.000 290.000 443.000 280.000 L 443.000 270.000 366.500 270.000 L 290.000 270.000 290.000 256.500 L 290.000 243.000 366.500 243.000 L 443.000 243.000 443.000 233.000 L 443.000 223.000 366.500 223.000 L 290.000 223.000 290.000 209.000 L 290.000 195.000 366.500 195.000 L 443.000 195.000 443.000 185.000 L 443.000 175.000 366.500 175.000 L 290.000 175.000 290.000 161.500 L 290.000 148.000 366.500 148.000 L 443.000 148.000 443.000 137.500 L 443.000 127.000 366.500 127.000 L 290.000 127.000 290.000 113.500 L 290.000 100.000 380.500 100.000 L 471.000 100.000 471.000 257.500 M235.631 182.750 C 235.290 184.262,233.204 192.925,230.994 202.000 C 228.785 211.075,224.909 227.050,222.382 237.500 C 219.855 247.950,216.096 263.475,214.027 272.000 C 211.959 280.525,208.392 295.375,206.100 305.000 C 203.808 314.625,201.679 323.330,201.369 324.345 C 200.845 326.060,199.934 326.140,188.443 325.477 C 170.771 324.458,169.735 324.167,168.825 319.967 C 168.412 318.060,166.026 307.275,163.523 296.000 C 161.020 284.725,156.928 266.275,154.429 255.000 C 151.931 243.725,149.325 231.125,148.639 227.000 L 147.393 219.500 146.619 225.500 C 145.859 231.398,144.555 237.615,136.972 271.500 C 128.584 308.980,125.975 320.358,125.708 320.625 C 125.391 320.942,98.638 318.936,98.247 318.566 C 98.108 318.435,96.200 309.591,94.008 298.913 C 91.816 288.236,87.757 268.700,84.988 255.500 C 72.718 197.005,71.903 192.678,73.028 191.982 C 74.194 191.262,95.081 189.748,95.674 190.341 C 96.606 191.272,111.041 275.370,111.712 283.771 C 112.421 292.662,112.664 292.499,114.514 281.891 C 115.319 277.276,117.781 265.625,119.985 256.000 C 122.189 246.375,126.014 229.500,128.486 218.500 C 130.958 207.500,133.557 196.025,134.262 193.000 L 135.543 187.500 141.522 186.851 C 144.810 186.494,151.096 186.044,155.491 185.851 L 163.482 185.500 165.222 193.500 C 166.179 197.900,168.303 207.800,169.942 215.500 C 171.581 223.200,175.639 242.100,178.961 257.500 C 182.282 272.900,184.999 287.161,185.000 289.191 C 185.000 295.874,186.699 294.087,187.348 286.720 C 187.698 282.749,189.138 273.425,190.546 266.000 C 191.955 258.575,195.093 241.700,197.519 228.500 C 204.920 188.236,205.984 182.682,206.379 182.287 C 206.824 181.843,224.273 180.344,231.375 180.140 C 236.200 180.001,236.244 180.028,235.631 182.750 " stroke="none" fill="#000000" fill-rule="evenodd"></path></g></svg>