<svg id="svg" version="1.1" width="400" height="400" viewBox="0 0 400 400" xmlns="http://www.w3.org/2000/svg" xmlns:xlink="http://www.w3.org/1999/xlink" ><g id="svgg"><path id="path0" d="M318.707 13.600 C 318.254 14.326,317.774 14.400,313.507 14.400 C 309.240 14.400,308.761 14.474,308.307 15.200 C 308.000 15.691,307.374 16.000,306.685 16.000 C 306.001 16.000,305.200 16.391,304.635 17.000 C 303.907 17.785,303.316 18.000,301.883 18.000 C 300.150 18.000,298.800 18.713,298.800 19.629 C 298.800 19.833,298.542 20.000,298.227 20.000 C 297.912 20.000,297.540 20.360,297.400 20.800 C 297.187 21.470,296.795 21.600,294.976 21.600 C 293.240 21.600,292.707 21.760,292.307 22.400 C 292.032 22.840,291.389 23.200,290.877 23.200 C 289.622 23.200,288.400 23.897,288.400 24.614 C 288.400 24.936,288.136 25.200,287.814 25.200 C 287.492 25.200,287.035 25.560,286.800 26.000 C 286.522 26.520,285.962 26.800,285.202 26.800 C 284.558 26.800,283.799 27.070,283.516 27.399 C 281.519 29.720,280.686 30.400,279.841 30.400 C 278.873 30.400,272.400 36.298,272.400 37.180 C 272.400 37.411,272.126 37.600,271.791 37.600 C 271.457 37.600,270.978 38.050,270.727 38.600 C 270.477 39.150,270.014 39.600,269.698 39.600 C 269.383 39.600,269.031 39.960,268.916 40.400 C 268.801 40.840,268.527 41.200,268.307 41.200 C 267.874 41.200,265.200 43.981,265.200 44.432 C 265.200 44.583,264.845 44.800,264.411 44.913 C 263.851 45.059,263.546 45.595,263.360 46.760 C 263.201 47.756,262.882 48.400,262.549 48.400 C 262.247 48.400,262.000 48.545,262.000 48.722 C 262.000 49.234,259.339 52.000,258.846 52.000 C 258.601 52.000,258.400 52.181,258.400 52.403 C 258.400 52.624,257.950 53.197,257.400 53.675 C 256.709 54.276,256.400 54.954,256.400 55.872 C 256.400 56.772,256.211 57.200,255.814 57.200 C 255.122 57.200,254.400 58.410,254.400 59.570 C 254.400 60.291,253.645 61.183,251.399 63.116 C 251.070 63.399,250.800 64.121,250.800 64.720 C 250.800 65.374,250.481 66.006,250.000 66.307 C 249.453 66.649,249.200 67.240,249.200 68.176 C 249.200 69.169,248.991 69.612,248.443 69.786 C 247.596 70.055,247.214 71.114,247.205 73.211 C 247.202 74.122,246.917 74.865,246.400 75.307 C 245.708 75.899,245.600 76.487,245.600 79.650 C 245.600 83.038,245.526 83.377,244.600 84.235 C 243.671 85.096,243.600 85.427,243.600 88.885 C 243.600 92.174,243.507 92.666,242.800 93.107 C 242.058 93.571,242.000 94.040,242.000 99.600 C 242.000 105.160,242.058 105.629,242.800 106.093 C 243.507 106.534,243.600 107.026,243.600 110.315 C 243.600 113.773,243.671 114.104,244.600 114.965 C 245.486 115.786,245.600 116.215,245.600 118.742 C 245.600 121.160,245.722 121.669,246.400 122.093 C 247.020 122.480,247.200 123.026,247.200 124.514 C 247.200 126.031,247.411 126.647,248.200 127.436 C 248.997 128.233,249.200 128.838,249.200 130.415 C 249.200 131.960,249.375 132.503,250.000 132.893 C 250.478 133.191,250.800 133.826,250.800 134.468 C 250.800 135.521,251.693 136.800,252.429 136.800 C 252.633 136.800,252.800 137.428,252.800 138.197 C 252.800 139.160,253.048 139.748,253.600 140.093 C 254.275 140.515,254.401 141.030,254.406 143.396 C 254.413 146.376,254.588 146.906,255.700 147.317 C 256.157 147.485,256.400 147.998,256.400 148.791 C 256.400 149.513,256.726 150.287,257.200 150.693 C 257.864 151.261,258.000 151.873,258.000 154.286 C 258.000 156.760,258.119 157.268,258.800 157.693 C 259.420 158.080,259.600 158.626,259.600 160.115 C 259.600 161.653,259.801 162.224,260.600 162.965 C 261.150 163.475,261.600 164.261,261.600 164.713 C 261.600 165.956,262.022 166.800,262.643 166.800 C 263.031 166.800,263.202 167.316,263.205 168.500 C 263.213 170.881,263.564 171.935,264.443 172.214 C 265.089 172.419,265.200 172.857,265.200 175.194 C 265.200 178.273,265.438 179.200,266.227 179.200 C 266.628 179.200,266.798 180.050,266.884 182.500 C 266.989 185.482,267.087 185.838,267.900 186.195 C 268.722 186.555,268.800 186.858,268.800 189.691 C 268.800 192.360,268.912 192.863,269.600 193.293 C 270.279 193.717,270.400 194.226,270.400 196.668 C 270.400 199.454,270.931 200.800,272.029 200.800 C 272.233 200.800,272.400 202.598,272.400 204.797 C 272.400 208.360,272.487 208.847,273.200 209.293 C 273.939 209.754,274.000 210.226,274.000 215.493 C 274.000 220.760,274.061 221.231,274.800 221.693 C 275.473 222.113,275.600 222.626,275.600 224.914 C 275.600 227.284,275.729 227.766,276.600 228.636 L 277.600 229.636 277.600 239.615 C 277.600 249.160,277.635 249.615,278.400 250.093 C 279.071 250.512,279.200 251.026,279.200 253.278 L 279.200 255.964 278.200 254.964 C 277.220 253.984,277.200 253.840,277.200 247.815 C 277.200 241.355,277.066 240.400,276.157 240.400 C 275.716 240.400,275.599 239.506,275.595 236.100 C 275.588 231.110,275.393 230.115,274.357 229.786 C 273.704 229.579,273.600 229.138,273.600 226.569 C 273.600 224.087,273.467 223.478,272.800 222.907 C 272.084 222.294,272.000 221.727,272.000 217.520 C 272.000 212.946,271.973 212.801,271.000 212.163 C 270.083 211.562,270.000 211.263,270.000 208.557 C 270.000 206.040,269.883 205.533,269.200 205.107 C 268.527 204.687,268.400 204.174,268.400 201.877 C 268.400 198.396,267.988 197.600,266.186 197.600 L 264.800 197.600 264.800 193.623 C 264.800 190.210,264.695 189.571,264.061 189.123 C 263.654 188.835,263.198 187.935,263.047 187.123 C 262.868 186.158,262.500 185.559,261.986 185.396 C 261.298 185.177,261.200 184.777,261.200 182.189 C 261.200 179.823,261.050 179.088,260.453 178.516 C 260.042 178.122,259.586 177.135,259.439 176.323 C 259.264 175.353,258.902 174.759,258.386 174.596 C 257.732 174.388,257.600 173.982,257.600 172.176 C 257.600 170.440,257.440 169.907,256.800 169.507 C 256.176 169.117,256.000 168.574,256.000 167.035 C 256.000 165.223,255.855 164.924,254.222 163.359 C 252.611 161.816,252.432 161.455,252.322 159.528 C 252.221 157.768,252.044 157.332,251.300 157.005 C 250.805 156.788,250.400 156.385,250.400 156.109 C 250.400 155.833,250.040 155.382,249.600 155.107 C 248.982 154.721,248.800 154.174,248.800 152.704 C 248.800 151.333,248.576 150.576,248.000 150.000 C 247.560 149.560,247.200 148.826,247.200 148.368 C 247.200 147.911,246.411 146.748,245.448 145.784 C 244.289 144.625,243.602 143.537,243.421 142.572 C 243.240 141.607,242.885 141.043,242.374 140.909 C 241.802 140.759,241.600 140.355,241.600 139.357 C 241.600 138.440,241.343 137.846,240.800 137.507 C 240.360 137.232,240.000 136.589,240.000 136.077 C 240.000 134.822,239.303 133.600,238.586 133.600 C 238.196 133.600,238.000 133.180,238.000 132.343 C 238.000 131.042,235.930 128.413,234.900 128.404 C 234.596 128.402,234.400 127.852,234.400 127.003 C 234.400 126.040,234.152 125.452,233.600 125.107 C 233.110 124.801,232.800 124.174,232.800 123.489 C 232.800 122.689,232.287 121.872,231.000 120.621 C 229.888 119.540,229.198 118.514,229.194 117.936 C 229.186 116.798,228.825 116.225,227.900 115.883 C 227.515 115.741,227.200 115.349,227.200 115.013 C 227.200 114.676,227.047 114.400,226.859 114.400 C 225.990 114.400,224.046 111.962,223.927 110.722 C 223.839 109.808,223.522 109.278,222.900 109.005 C 222.405 108.788,222.000 108.385,222.000 108.109 C 222.000 107.833,221.640 107.382,221.200 107.107 C 220.760 106.832,220.400 106.216,220.400 105.736 C 220.400 104.558,220.001 103.600,219.511 103.600 C 219.049 103.600,216.400 100.808,216.400 100.322 C 216.400 100.145,216.199 100.000,215.954 100.000 C 215.487 100.000,212.800 97.246,212.800 96.768 C 212.800 96.617,212.440 96.399,212.000 96.284 C 211.560 96.169,211.200 95.800,211.200 95.464 C 211.200 95.129,210.840 94.740,210.400 94.600 C 209.857 94.428,209.600 93.995,209.600 93.251 C 209.600 91.619,207.239 89.200,205.646 89.200 C 204.575 89.200,204.400 89.056,204.400 88.174 C 204.400 86.413,203.709 85.600,202.213 85.600 C 201.205 85.600,200.788 85.393,200.600 84.800 C 200.460 84.360,200.088 84.000,199.773 84.000 C 199.403 84.000,199.200 83.575,199.200 82.800 C 199.200 82.133,198.844 81.244,198.400 80.800 C 197.956 80.356,197.067 80.000,196.400 80.000 C 195.600 80.000,195.200 79.800,195.200 79.400 C 195.200 79.070,195.038 78.800,194.840 78.800 C 194.642 78.800,193.855 78.147,193.090 77.350 C 192.326 76.552,191.489 75.697,191.230 75.450 C 190.972 75.202,190.377 74.595,189.908 74.100 C 189.358 73.519,188.586 73.200,187.728 73.200 C 186.492 73.200,186.400 73.108,186.400 71.880 C 186.400 70.298,185.796 69.601,184.420 69.597 C 183.716 69.595,182.908 69.037,181.813 67.797 C 180.552 66.369,179.961 66.000,178.940 66.000 C 178.005 66.000,177.585 65.781,177.400 65.200 C 177.260 64.760,176.888 64.400,176.573 64.400 C 176.258 64.400,176.000 64.233,176.000 64.029 C 176.000 63.293,174.721 62.400,173.668 62.400 C 173.026 62.400,172.391 62.078,172.093 61.600 C 171.751 61.053,171.160 60.800,170.224 60.800 C 169.217 60.800,168.788 60.593,168.606 60.020 C 168.470 59.592,168.008 59.130,167.580 58.994 C 167.151 58.857,166.800 58.507,166.800 58.216 C 166.800 57.619,165.939 57.200,164.713 57.200 C 164.261 57.200,163.475 56.750,162.965 56.200 C 162.239 55.416,161.645 55.200,160.223 55.200 C 158.484 55.200,156.000 53.521,156.000 52.345 C 156.000 52.161,155.273 51.893,154.385 51.751 C 153.412 51.596,152.612 51.197,152.371 50.747 C 152.062 50.168,151.514 50.000,149.932 50.000 C 148.270 50.000,147.720 49.815,146.965 49.000 C 146.455 48.450,145.620 48.000,145.108 48.000 C 144.596 48.000,143.870 47.640,143.493 47.200 C 142.969 46.588,142.313 46.400,140.700 46.400 C 139.026 46.400,138.490 46.236,138.093 45.600 C 137.692 44.958,137.160 44.800,135.397 44.800 C 134.188 44.800,133.200 44.633,133.200 44.429 C 133.200 43.693,131.921 42.800,130.868 42.800 C 130.226 42.800,129.591 42.478,129.293 42.000 C 128.840 41.275,128.360 41.200,124.142 41.200 C 119.695 41.200,119.451 41.156,118.565 40.200 C 117.680 39.245,117.431 39.200,113.033 39.200 C 108.838 39.200,108.390 39.129,108.000 38.400 C 107.595 37.643,107.162 37.600,100.013 37.600 C 92.949 37.600,92.438 37.550,92.214 36.843 C 91.600 34.911,76.800 35.052,76.800 36.990 C 76.800 37.513,75.828 37.600,70.014 37.600 C 63.638 37.600,63.202 37.648,62.800 38.400 C 62.410 39.129,61.962 39.200,57.767 39.200 C 53.369 39.200,53.120 39.245,52.235 40.200 C 51.349 41.156,51.105 41.200,46.658 41.200 C 42.440 41.200,41.960 41.275,41.507 42.000 C 41.111 42.635,40.574 42.800,38.913 42.800 C 37.120 42.800,36.724 42.944,36.163 43.800 C 35.716 44.483,35.143 44.800,34.357 44.800 C 33.640 44.800,33.019 45.101,32.707 45.600 C 32.312 46.233,31.774 46.400,30.132 46.400 C 28.151 46.400,26.800 47.060,26.800 48.029 C 26.800 48.233,26.549 48.400,26.243 48.400 C 25.266 48.400,25.200 49.390,25.200 64.000 C 25.200 78.576,25.268 79.600,26.231 79.600 C 26.657 79.600,26.801 80.716,26.888 84.700 C 26.995 89.553,27.044 89.819,27.900 90.195 C 28.686 90.540,28.800 90.887,28.800 92.932 C 28.800 94.938,28.915 95.305,29.600 95.484 C 30.311 95.670,30.401 96.032,30.406 98.747 C 30.413 101.975,30.576 102.502,31.700 102.917 C 32.251 103.120,32.400 103.645,32.400 105.384 C 32.400 107.160,32.557 107.691,33.200 108.093 C 33.640 108.368,34.000 108.984,34.000 109.464 C 34.000 110.753,34.413 111.600,35.043 111.600 C 35.397 111.600,35.600 112.044,35.600 112.819 C 35.600 113.606,35.955 114.367,36.600 114.965 C 37.387 115.695,37.600 116.283,37.600 117.730 C 37.600 119.003,37.830 119.789,38.347 120.284 C 38.758 120.678,39.216 121.675,39.365 122.500 C 39.514 123.325,39.781 124.000,39.959 124.000 C 40.645 124.000,42.800 126.449,42.800 127.230 C 42.800 128.390,43.522 129.600,44.214 129.600 C 44.611 129.600,44.800 130.028,44.800 130.928 C 44.800 131.846,45.109 132.524,45.800 133.125 C 46.350 133.603,46.800 134.155,46.800 134.351 C 46.800 134.546,47.160 134.801,47.600 134.916 C 48.169 135.065,48.400 135.462,48.400 136.290 C 48.400 137.035,48.761 137.770,49.400 138.325 C 49.950 138.803,50.400 139.364,50.400 139.570 C 50.400 139.777,50.760 140.060,51.200 140.200 C 51.640 140.340,52.000 140.729,52.000 141.064 C 52.000 141.400,52.354 141.767,52.787 141.881 C 53.219 141.994,53.676 142.410,53.802 142.806 C 53.928 143.202,54.294 143.627,54.615 143.750 C 54.937 143.874,55.200 144.431,55.200 144.987 C 55.200 146.282,56.511 147.600,57.800 147.600 C 58.610 147.600,58.800 147.798,58.800 148.637 C 58.800 150.229,63.080 154.400,64.714 154.400 C 65.584 154.400,66.019 154.629,66.194 155.180 C 66.330 155.608,66.792 156.070,67.220 156.206 C 67.649 156.343,68.000 156.729,68.000 157.064 C 68.000 157.400,68.354 157.767,68.787 157.881 C 69.219 157.994,69.679 158.418,69.807 158.823 C 69.936 159.228,70.392 159.670,70.820 159.806 C 71.249 159.943,71.600 160.293,71.600 160.584 C 71.600 161.200,72.468 161.600,73.806 161.600 C 74.395 161.600,74.841 161.899,75.000 162.400 C 75.176 162.953,75.742 163.277,76.841 163.453 C 77.791 163.605,78.590 164.007,78.829 164.453 C 79.048 164.864,79.492 165.200,79.814 165.200 C 80.136 165.200,80.400 165.367,80.400 165.571 C 80.400 166.282,81.663 167.200,82.641 167.200 C 83.277 167.200,84.145 167.766,85.096 168.800 C 86.456 170.280,86.726 170.400,88.684 170.400 C 89.848 170.400,90.800 170.567,90.800 170.771 C 90.800 171.507,92.079 172.400,93.132 172.400 C 93.774 172.400,94.409 172.722,94.707 173.200 C 95.052 173.752,95.640 174.000,96.603 174.000 C 97.372 174.000,98.000 174.167,98.000 174.371 C 98.000 175.358,99.352 176.000,101.429 176.000 C 103.018 176.000,103.600 176.149,103.600 176.557 C 103.600 177.198,104.450 177.600,105.806 177.600 C 106.377 177.600,106.840 177.897,106.986 178.357 C 107.262 179.226,108.318 179.587,110.604 179.595 C 111.770 179.599,112.344 179.818,112.707 180.400 C 113.131 181.078,113.640 181.200,116.058 181.200 C 118.585 181.200,119.014 181.314,119.835 182.200 C 120.576 182.999,121.147 183.200,122.685 183.200 C 124.174 183.200,124.720 183.380,125.107 184.000 C 125.534 184.684,126.040 184.800,128.589 184.800 C 131.162 184.800,131.631 184.910,132.000 185.600 C 132.386 186.322,132.838 186.400,136.614 186.400 L 140.800 186.400 140.800 187.720 C 140.800 189.758,141.318 190.000,145.680 190.000 C 147.836 190.000,149.600 190.167,149.600 190.371 C 149.600 191.469,150.946 192.000,153.732 192.000 C 156.174 192.000,156.683 192.121,157.107 192.800 C 157.507 193.440,158.040 193.600,159.776 193.600 C 161.554 193.600,161.990 193.737,162.186 194.357 C 162.485 195.297,163.523 195.588,166.604 195.595 C 168.571 195.599,169.098 195.745,169.507 196.400 C 169.907 197.040,170.440 197.200,172.176 197.200 C 173.954 197.200,174.390 197.337,174.586 197.957 C 174.862 198.826,175.918 199.187,178.204 199.195 C 179.370 199.199,179.944 199.418,180.307 200.000 C 180.624 200.507,181.240 200.800,181.989 200.800 C 182.762 200.800,183.320 201.077,183.600 201.600 C 183.902 202.164,184.438 202.400,185.414 202.400 C 186.176 202.400,186.800 202.567,186.800 202.771 C 186.800 203.740,188.151 204.400,190.132 204.400 C 191.774 204.400,192.312 204.567,192.707 205.200 C 193.108 205.842,193.640 206.000,195.403 206.000 C 196.612 206.000,197.600 206.167,197.600 206.371 C 197.600 207.316,198.951 208.000,200.814 208.000 C 202.362 208.000,202.861 208.167,203.200 208.800 C 203.499 209.359,204.038 209.600,204.987 209.600 C 205.969 209.600,206.413 209.810,206.586 210.357 C 206.858 211.212,207.916 211.587,210.082 211.595 C 212.941 211.605,214.440 214.129,212.600 215.835 C 211.788 216.588,211.600 217.141,211.600 218.781 C 211.600 220.726,211.559 220.800,210.480 220.800 C 209.031 220.800,208.400 221.462,208.400 222.985 C 208.400 223.872,208.151 224.319,207.500 224.605 C 206.846 224.892,206.567 225.398,206.478 226.459 C 206.391 227.507,206.137 227.975,205.578 228.122 C 204.985 228.277,204.800 228.675,204.800 229.800 C 204.800 230.938,204.618 231.323,204.000 231.484 C 203.560 231.599,203.200 231.854,203.200 232.049 C 203.200 232.245,202.750 232.797,202.200 233.275 C 201.509 233.876,201.200 234.554,201.200 235.472 C 201.200 236.420,201.018 236.800,200.563 236.800 C 200.212 236.800,199.831 237.160,199.716 237.600 C 199.601 238.040,199.361 238.400,199.182 238.400 C 198.528 238.400,197.600 239.682,197.600 240.586 C 197.600 241.547,195.616 244.000,194.840 244.000 C 194.598 244.000,194.400 244.145,194.400 244.322 C 194.400 244.808,191.751 247.600,191.289 247.600 C 190.799 247.600,190.400 248.558,190.400 249.736 C 190.400 250.216,190.040 250.832,189.600 251.107 C 189.048 251.452,188.800 252.040,188.800 253.003 C 188.800 254.281,188.700 254.400,187.629 254.400 C 186.144 254.400,185.200 255.333,185.200 256.802 C 185.200 257.595,184.954 258.024,184.400 258.200 C 183.960 258.340,183.600 258.717,183.600 259.040 C 183.600 259.362,183.285 259.741,182.900 259.883 C 181.975 260.225,181.614 260.798,181.606 261.936 C 181.602 262.514,180.912 263.540,179.800 264.621 C 178.602 265.785,178.000 266.709,178.000 267.382 C 178.000 268.294,177.377 269.069,174.999 271.116 C 174.670 271.399,174.400 272.121,174.400 272.720 C 174.400 273.374,174.081 274.006,173.600 274.307 C 173.048 274.652,172.800 275.240,172.800 276.203 C 172.800 277.187,172.620 277.600,172.191 277.600 C 171.857 277.600,171.378 278.050,171.127 278.600 C 170.877 279.150,170.450 279.600,170.179 279.600 C 169.628 279.600,169.200 280.481,169.200 281.615 C 169.200 282.027,168.750 282.814,168.200 283.364 C 167.650 283.914,167.200 284.782,167.200 285.293 C 167.200 285.804,166.840 286.530,166.400 286.907 C 165.960 287.284,165.600 288.036,165.600 288.578 C 165.600 289.120,165.150 290.014,164.600 290.564 C 164.050 291.114,163.600 291.932,163.600 292.382 C 163.600 292.832,163.240 293.560,162.800 294.000 C 162.360 294.440,162.000 295.297,162.000 295.904 C 162.000 296.574,161.686 297.204,161.200 297.507 C 160.558 297.908,160.400 298.440,160.400 300.203 C 160.400 301.412,160.233 302.400,160.029 302.400 C 159.293 302.400,158.400 303.679,158.400 304.732 C 158.400 305.374,158.078 306.009,157.600 306.307 C 156.908 306.739,156.800 307.240,156.800 310.003 C 156.800 312.544,156.680 313.200,156.214 313.200 C 155.360 313.200,154.800 314.501,154.800 316.485 C 154.800 317.727,154.572 318.417,154.000 318.907 C 153.413 319.410,153.200 320.087,153.200 321.450 C 153.200 322.918,152.990 323.503,152.200 324.235 C 151.271 325.096,151.200 325.427,151.200 328.885 C 151.200 332.174,151.107 332.666,150.400 333.107 C 149.675 333.560,149.600 334.040,149.600 338.258 C 149.600 342.705,149.556 342.949,148.600 343.835 L 147.600 344.762 147.600 365.400 L 147.600 386.038 148.600 386.965 C 149.150 387.475,149.603 388.321,149.606 388.846 C 149.617 390.463,150.206 390.918,152.545 391.112 C 155.591 391.365,157.496 390.957,157.804 389.986 C 158.025 389.292,158.424 389.200,161.224 389.200 C 163.960 389.200,164.462 389.091,164.893 388.400 C 165.341 387.683,165.829 387.599,169.596 387.595 C 174.489 387.588,175.486 387.390,175.814 386.357 C 176.027 385.684,176.477 385.600,179.847 385.600 C 183.695 385.600,186.400 384.304,186.400 382.460 C 186.400 382.152,187.456 382.000,189.597 382.000 C 192.360 382.000,192.861 381.892,193.293 381.200 C 193.683 380.576,194.226 380.400,195.765 380.400 C 197.580 380.400,197.874 380.257,199.462 378.600 C 201.052 376.940,201.341 376.800,203.171 376.800 C 204.645 376.800,205.289 376.610,205.677 376.061 C 205.965 375.654,206.865 375.198,207.677 375.047 C 208.625 374.871,209.242 374.498,209.398 374.007 C 209.532 373.585,209.992 373.130,210.420 372.994 C 210.849 372.857,211.200 372.488,211.200 372.173 C 211.200 371.801,211.628 371.600,212.419 371.600 C 213.206 371.600,213.967 371.245,214.565 370.600 C 215.075 370.050,215.934 369.600,216.474 369.600 C 217.023 369.600,217.839 369.159,218.325 368.600 C 218.803 368.050,219.364 367.600,219.570 367.600 C 219.777 367.600,220.060 367.240,220.200 366.800 C 220.383 366.223,220.805 366.000,221.717 366.000 C 222.905 366.000,225.600 363.729,225.600 362.727 C 225.600 362.547,225.864 362.400,226.186 362.400 C 226.508 362.400,226.965 362.040,227.200 361.600 C 227.479 361.078,228.038 360.800,228.805 360.800 C 229.619 360.800,230.184 360.492,230.637 359.800 C 230.997 359.250,231.541 358.800,231.846 358.800 C 232.151 358.800,232.400 358.655,232.400 358.478 C 232.400 357.966,235.061 355.200,235.554 355.200 C 235.799 355.200,236.000 355.038,236.000 354.840 C 236.000 354.642,236.653 353.854,237.450 353.090 C 239.241 351.373,239.373 351.241,241.090 349.450 C 241.855 348.652,242.642 348.000,242.840 348.000 C 243.038 348.000,243.200 347.824,243.200 347.609 C 243.200 347.099,247.499 342.800,248.009 342.800 C 248.224 342.800,248.400 342.619,248.400 342.397 C 248.400 342.176,248.850 341.603,249.400 341.125 C 250.091 340.524,250.400 339.846,250.400 338.928 C 250.400 338.198,250.589 337.600,250.820 337.600 C 251.396 337.600,254.000 335.028,254.000 334.460 C 254.000 334.207,254.220 334.000,254.490 334.000 C 255.706 334.000,257.600 331.097,257.603 329.227 C 257.606 327.566,257.770 327.256,259.403 325.813 C 260.831 324.552,261.200 323.961,261.200 322.940 C 261.200 322.013,261.419 321.584,261.986 321.404 C 262.500 321.241,262.868 320.642,263.047 319.677 C 263.198 318.865,263.654 317.965,264.061 317.677 C 264.517 317.355,264.800 316.664,264.800 315.874 C 264.800 315.026,265.071 314.423,265.600 314.093 C 266.113 313.772,266.400 313.160,266.400 312.384 C 266.400 311.598,266.645 311.085,267.100 310.917 C 268.081 310.555,268.387 309.994,268.394 308.547 C 268.398 307.633,268.617 307.237,269.200 307.084 C 269.890 306.904,270.000 306.538,270.000 304.437 C 270.000 302.564,270.135 302.000,270.586 302.000 C 271.440 302.000,272.000 300.699,272.000 298.715 C 272.000 297.473,272.228 296.783,272.800 296.293 C 273.264 295.896,273.600 295.113,273.600 294.431 C 273.600 293.628,273.840 293.178,274.357 293.014 C 275.297 292.715,275.588 291.677,275.595 288.596 C 275.599 286.629,275.745 286.102,276.400 285.693 C 277.146 285.227,277.200 284.760,277.200 278.742 C 277.200 272.375,277.213 272.280,278.200 271.365 C 279.184 270.453,279.200 270.339,279.200 264.219 L 279.200 258.000 280.000 258.800 C 281.331 260.131,286.000 259.672,286.000 258.210 C 286.000 257.874,286.274 257.600,286.609 257.600 C 286.943 257.600,287.422 257.150,287.673 256.600 C 287.923 256.050,288.357 255.600,288.637 255.600 C 288.917 255.600,289.257 255.249,289.394 254.820 C 289.530 254.392,289.992 253.930,290.420 253.794 C 290.849 253.657,291.200 253.300,291.200 253.000 C 291.200 252.700,291.551 252.343,291.980 252.206 C 292.408 252.070,292.870 251.608,293.006 251.180 C 293.143 250.751,293.529 250.400,293.864 250.400 C 294.200 250.400,294.569 250.040,294.684 249.600 C 294.799 249.160,295.034 248.800,295.207 248.800 C 295.642 248.800,298.400 246.002,298.400 245.560 C 298.400 245.362,298.664 245.200,298.986 245.200 C 299.723 245.200,300.400 243.968,300.400 242.626 C 300.400 241.722,300.565 241.600,301.786 241.600 C 303.242 241.600,304.000 240.803,304.000 239.271 C 304.000 238.480,311.260 230.800,312.007 230.800 C 312.223 230.800,312.400 230.655,312.400 230.478 C 312.400 229.966,315.061 227.200,315.554 227.200 C 315.799 227.200,316.000 227.038,316.000 226.840 C 316.000 226.517,317.778 224.653,319.392 223.284 C 319.726 223.001,320.000 222.230,320.000 221.572 C 320.000 220.891,320.252 220.278,320.585 220.150 C 320.906 220.027,321.279 219.583,321.412 219.163 C 321.545 218.743,321.905 218.400,322.213 218.400 C 322.883 218.400,323.600 217.172,323.600 216.026 C 323.600 215.412,323.856 215.200,324.600 215.200 C 325.945 215.200,328.800 212.348,328.800 211.003 C 328.800 210.391,329.301 209.547,330.100 208.813 C 330.815 208.156,331.580 207.426,331.800 207.190 C 332.020 206.954,332.605 206.377,333.100 205.908 C 333.681 205.358,334.000 204.586,334.000 203.728 C 334.000 202.947,334.202 202.400,334.490 202.400 C 335.380 202.400,337.600 199.512,337.600 198.354 C 337.600 197.612,337.856 197.173,338.386 197.004 C 338.887 196.846,339.267 196.249,339.434 195.362 C 339.601 194.470,340.326 193.337,341.448 192.216 C 343.057 190.606,343.200 190.298,343.200 188.432 C 343.200 186.473,343.240 186.400,344.320 186.400 C 345.752 186.400,346.400 185.740,346.400 184.283 C 346.400 183.462,346.633 183.064,347.200 182.916 C 347.640 182.801,348.000 182.546,348.000 182.351 C 348.000 182.155,348.450 181.603,349.000 181.125 C 349.691 180.524,350.000 179.846,350.000 178.928 C 350.000 178.198,350.201 177.600,350.446 177.600 C 351.767 177.600,353.600 174.649,353.600 172.522 C 353.600 170.925,353.745 170.400,354.186 170.400 C 354.923 170.400,355.600 169.168,355.600 167.826 C 355.600 167.216,355.826 166.800,356.157 166.800 C 356.775 166.800,357.200 165.957,357.200 164.732 C 357.200 164.290,358.010 163.141,359.000 162.179 C 360.640 160.585,360.800 160.259,360.800 158.511 C 360.800 157.026,360.981 156.480,361.600 156.093 C 362.243 155.691,362.400 155.160,362.400 153.384 C 362.400 151.645,362.549 151.120,363.100 150.917 C 364.081 150.555,364.387 149.994,364.394 148.547 C 364.398 147.633,364.617 147.237,365.200 147.084 C 365.885 146.905,366.000 146.538,366.000 144.532 C 366.000 142.487,366.114 142.140,366.900 141.795 C 367.713 141.438,367.811 141.082,367.916 138.100 C 368.002 135.650,368.172 134.800,368.573 134.800 C 369.407 134.800,369.600 133.852,369.600 129.767 C 369.600 126.658,369.707 126.000,370.210 126.000 C 371.478 126.000,371.600 123.917,371.595 102.274 C 371.589 79.490,371.562 78.969,370.357 78.586 C 369.737 78.390,369.600 77.954,369.600 76.176 C 369.600 74.440,369.440 73.907,368.800 73.507 C 368.127 73.087,368.000 72.574,368.000 70.277 C 368.000 67.379,367.544 66.000,366.586 66.000 C 366.142 66.000,366.000 65.466,366.000 63.803 C 366.000 62.040,365.842 61.508,365.200 61.107 C 364.575 60.717,364.399 60.170,364.394 58.604 C 364.387 56.418,364.162 55.875,363.100 55.483 C 362.616 55.305,362.400 54.793,362.400 53.827 C 362.400 52.838,362.166 52.303,361.600 52.000 C 361.144 51.756,360.800 51.162,360.800 50.619 C 360.800 49.286,360.404 48.400,359.808 48.400 C 359.525 48.400,359.187 47.678,359.040 46.760 C 358.856 45.606,358.547 45.059,358.002 44.916 C 357.576 44.805,357.124 44.390,356.998 43.994 C 356.872 43.598,356.506 43.173,356.185 43.050 C 355.863 42.926,355.600 42.371,355.600 41.815 C 355.600 41.155,354.976 40.172,353.800 38.979 C 352.810 37.975,352.000 36.792,352.000 36.350 C 352.000 35.225,351.277 34.000,350.613 34.000 C 350.305 34.000,349.940 33.640,349.800 33.200 C 349.660 32.760,349.300 32.400,349.000 32.400 C 348.700 32.400,348.340 32.040,348.200 31.600 C 348.060 31.160,347.796 30.800,347.613 30.800 C 347.179 30.800,344.400 28.021,344.400 27.587 C 344.400 27.404,344.040 27.140,343.600 27.000 C 343.160 26.860,342.800 26.500,342.800 26.200 C 342.800 25.900,342.449 25.543,342.020 25.406 C 341.592 25.270,341.136 24.828,341.007 24.423 C 340.879 24.018,340.419 23.594,339.987 23.481 C 339.554 23.367,339.200 23.000,339.200 22.664 C 339.200 22.329,338.849 21.943,338.420 21.806 C 337.992 21.670,337.530 21.208,337.394 20.780 C 337.257 20.351,336.888 20.000,336.573 20.000 C 336.258 20.000,336.000 19.833,336.000 19.629 C 336.000 18.875,334.710 18.000,333.598 18.000 C 332.812 18.000,332.376 17.754,332.204 17.214 C 332.041 16.698,331.447 16.336,330.477 16.161 C 329.665 16.014,328.678 15.558,328.284 15.147 C 327.761 14.600,326.996 14.400,325.431 14.400 C 323.630 14.400,323.260 14.274,323.084 13.600 C 322.913 12.947,322.538 12.800,321.041 12.800 C 319.640 12.800,319.089 12.989,318.707 13.600 M238.700 147.377 L 240.400 147.754 240.400 149.873 C 240.400 151.560,240.563 152.095,241.200 152.493 C 241.678 152.791,242.000 153.426,242.000 154.068 C 242.000 155.091,242.888 156.400,243.582 156.400 C 243.761 156.400,244.001 156.760,244.116 157.200 C 244.231 157.640,244.612 158.000,244.963 158.000 C 245.459 158.000,245.600 158.434,245.600 159.967 C 245.600 162.308,245.888 163.200,246.643 163.200 C 246.997 163.200,247.200 163.644,247.200 164.419 C 247.200 165.206,247.555 165.967,248.200 166.565 C 248.778 167.100,249.200 167.935,249.200 168.542 C 249.200 169.160,249.530 169.799,250.000 170.093 C 250.633 170.488,250.800 171.026,250.800 172.668 C 250.800 174.649,251.460 176.000,252.429 176.000 C 252.633 176.000,252.800 176.647,252.800 177.437 C 252.800 178.538,252.987 178.924,253.600 179.084 C 254.273 179.260,254.400 179.630,254.400 181.418 C 254.400 183.448,255.051 184.800,256.029 184.800 C 256.233 184.800,256.400 185.788,256.400 186.997 C 256.400 188.760,256.558 189.292,257.200 189.693 C 257.686 189.996,258.000 190.626,258.000 191.296 C 258.000 191.903,258.360 192.760,258.800 193.200 C 259.437 193.837,259.600 194.533,259.600 196.618 C 259.600 198.878,259.737 199.373,260.600 200.236 C 261.475 201.112,261.600 201.584,261.600 204.022 C 261.600 206.313,261.742 206.930,262.400 207.493 C 262.917 207.935,263.202 208.678,263.205 209.589 C 263.214 211.686,263.596 212.745,264.443 213.014 C 265.096 213.221,265.200 213.662,265.200 216.231 C 265.200 218.713,265.333 219.322,266.000 219.893 C 266.658 220.456,266.801 221.078,266.806 223.389 C 266.813 226.376,266.987 226.906,268.100 227.317 C 268.703 227.539,268.800 228.131,268.800 231.584 C 268.800 235.160,268.886 235.647,269.600 236.093 C 270.302 236.531,270.400 237.026,270.400 240.123 C 270.400 243.766,270.799 245.200,271.814 245.200 C 272.258 245.200,272.393 245.710,272.373 247.300 C 272.350 249.113,272.286 249.276,271.909 248.495 C 271.611 247.875,270.988 247.512,269.936 247.343 C 268.673 247.141,268.400 246.935,268.400 246.182 C 268.400 244.541,267.947 244.001,266.356 243.747 C 265.073 243.541,264.800 243.337,264.800 242.582 C 264.800 240.941,264.347 240.401,262.756 240.147 C 261.398 239.929,261.200 239.762,261.200 238.829 C 261.200 237.406,260.519 236.800,258.920 236.800 C 257.693 236.800,257.600 236.707,257.600 235.480 C 257.600 233.823,256.990 233.200,255.367 233.200 C 254.444 233.200,254.038 232.987,253.891 232.426 C 253.756 231.911,253.190 231.559,252.197 231.373 C 250.819 231.114,248.400 229.183,248.400 228.341 C 248.400 228.153,248.151 228.000,247.846 228.000 C 247.541 228.000,246.997 227.550,246.637 227.000 C 246.184 226.308,245.619 226.000,244.805 226.000 C 244.038 226.000,243.479 225.722,243.200 225.200 C 242.965 224.760,242.508 224.400,242.186 224.400 C 241.864 224.400,241.600 224.233,241.600 224.029 C 241.600 223.323,240.339 222.400,239.375 222.400 C 238.512 222.400,237.695 221.736,235.684 219.399 C 235.401 219.070,234.710 218.800,234.149 218.800 C 233.466 218.800,232.551 218.205,231.379 217.000 C 230.417 216.010,229.376 215.200,229.065 215.200 C 228.754 215.200,228.395 214.675,228.267 214.033 C 227.989 212.645,227.006 212.312,225.566 213.117 C 224.603 213.655,224.459 213.622,223.484 212.647 C 222.877 212.041,221.966 211.589,221.318 211.575 C 220.250 211.550,220.240 211.533,221.100 211.188 C 221.894 210.868,222.000 210.541,222.000 208.413 C 222.000 206.776,222.158 206.000,222.490 206.000 C 223.380 206.000,225.600 203.112,225.600 201.954 C 225.600 201.226,225.856 200.773,226.357 200.614 C 227.236 200.335,227.587 199.281,227.595 196.900 C 227.598 195.716,227.769 195.200,228.157 195.200 C 229.007 195.200,229.200 194.270,229.200 190.167 L 229.200 186.400 230.520 186.400 C 232.696 186.400,232.800 186.064,232.800 179.016 C 232.800 173.026,232.854 172.559,233.600 172.093 C 234.375 171.609,234.400 171.160,234.400 157.824 C 234.400 144.526,234.427 144.045,235.180 143.806 C 235.608 143.670,236.103 143.163,236.280 142.680 C 236.517 142.028,236.652 142.473,236.800 144.400 L 237.000 147.000 238.700 147.377 M240.880 171.280 C 240.616 171.544,240.400 171.951,240.400 172.185 C 240.400 172.419,239.995 172.788,239.500 173.005 C 238.666 173.371,238.592 173.691,238.485 177.373 C 238.385 180.789,238.259 181.423,237.585 181.896 C 236.969 182.327,236.800 182.913,236.800 184.623 C 236.800 185.820,236.633 186.800,236.429 186.800 C 235.330 186.800,234.800 188.146,234.800 190.940 C 234.800 193.327,234.663 193.940,234.000 194.507 C 233.536 194.904,233.200 195.687,233.200 196.369 C 233.200 197.172,232.960 197.622,232.443 197.786 C 231.596 198.055,231.214 199.114,231.205 201.211 C 231.202 202.122,230.917 202.865,230.400 203.307 C 229.733 203.878,229.600 204.487,229.600 206.963 C 229.600 210.743,229.763 211.120,231.539 211.450 C 232.342 211.599,233.235 212.054,233.523 212.461 C 233.855 212.931,234.538 213.200,235.396 213.200 C 236.395 213.200,236.812 213.408,237.000 214.000 C 237.140 214.440,237.512 214.800,237.827 214.800 C 238.142 214.800,238.400 214.967,238.400 215.171 C 238.400 215.907,239.679 216.800,240.732 216.800 C 241.374 216.800,242.009 217.122,242.307 217.600 C 242.649 218.147,243.240 218.400,244.176 218.400 C 245.183 218.400,245.612 218.607,245.794 219.180 C 245.930 219.608,246.372 220.064,246.777 220.193 C 247.182 220.321,247.606 220.781,247.719 221.213 C 247.875 221.808,248.269 222.000,249.336 222.000 C 250.395 222.000,250.809 222.199,251.000 222.800 C 251.140 223.240,251.404 223.600,251.587 223.600 C 252.036 223.600,254.800 226.387,254.800 226.840 C 254.800 227.038,255.049 227.200,255.354 227.200 C 255.659 227.200,256.203 227.650,256.563 228.200 C 257.289 229.308,259.816 229.624,260.720 228.720 C 261.617 227.823,261.355 220.125,260.400 219.307 C 259.745 218.746,259.600 218.127,259.600 215.892 C 259.600 213.494,259.478 213.049,258.600 212.235 C 257.810 211.503,257.600 210.918,257.600 209.450 C 257.600 208.087,257.387 207.410,256.800 206.907 C 256.228 206.417,256.000 205.727,256.000 204.485 C 256.000 202.501,255.440 201.200,254.586 201.200 C 254.120 201.200,254.000 200.544,254.000 198.003 C 254.000 195.240,253.892 194.739,253.200 194.307 C 252.521 193.883,252.400 193.374,252.400 190.932 C 252.400 188.146,251.869 186.800,250.771 186.800 C 250.567 186.800,250.400 186.176,250.400 185.414 C 250.400 184.438,250.164 183.902,249.600 183.600 C 249.144 183.356,248.800 182.762,248.800 182.219 C 248.800 180.851,248.400 180.000,247.757 180.000 C 247.426 180.000,247.200 179.584,247.200 178.974 C 247.200 177.632,246.523 176.400,245.786 176.400 C 245.343 176.400,245.200 175.869,245.200 174.229 C 245.200 171.216,242.671 169.489,240.880 171.280 " stroke="none" fill="#000000" fill-rule="evenodd"></path><path id="path1" d="M318.707 13.600 C 318.254 14.326,317.774 14.400,313.507 14.400 C 309.240 14.400,308.761 14.474,308.307 15.200 C 308.000 15.691,307.374 16.000,306.685 16.000 C 306.001 16.000,305.200 16.391,304.635 17.000 C 303.907 17.785,303.316 18.000,301.883 18.000 C 300.150 18.000,298.800 18.713,298.800 19.629 C 298.800 19.833,298.542 20.000,298.227 20.000 C 297.912 20.000,297.540 20.360,297.400 20.800 C 297.187 21.470,296.795 21.600,294.976 21.600 C 293.240 21.600,292.707 21.760,292.307 22.400 C 292.032 22.840,291.389 23.200,290.877 23.200 C 289.622 23.200,288.400 23.897,288.400 24.614 C 288.400 24.936,288.136 25.200,287.814 25.200 C 287.492 25.200,287.035 25.560,286.800 26.000 C 286.522 26.520,285.962 26.800,285.202 26.800 C 284.558 26.800,283.799 27.070,283.516 27.399 C 281.519 29.720,280.686 30.400,279.841 30.400 C 278.873 30.400,272.400 36.298,272.400 37.180 C 272.400 37.411,272.126 37.600,271.791 37.600 C 271.457 37.600,270.978 38.050,270.727 38.600 C 270.477 39.150,270.014 39.600,269.698 39.600 C 269.383 39.600,269.031 39.960,268.916 40.400 C 268.801 40.840,268.527 41.200,268.307 41.200 C 267.874 41.200,265.200 43.981,265.200 44.432 C 265.200 44.583,264.845 44.800,264.411 44.913 C 263.851 45.059,263.546 45.595,263.360 46.760 C 263.201 47.756,262.882 48.400,262.549 48.400 C 262.247 48.400,262.000 48.545,262.000 48.722 C 262.000 49.234,259.339 52.000,258.846 52.000 C 258.601 52.000,258.400 52.181,258.400 52.403 C 258.400 52.624,257.950 53.197,257.400 53.675 C 256.709 54.276,256.400 54.954,256.400 55.872 C 256.400 56.772,256.211 57.200,255.814 57.200 C 255.122 57.200,254.400 58.410,254.400 59.570 C 254.400 60.291,253.645 61.183,251.399 63.116 C 251.070 63.399,250.800 64.121,250.800 64.720 C 250.800 65.374,250.481 66.006,250.000 66.307 C 249.453 66.649,249.200 67.240,249.200 68.176 C 249.200 69.169,248.991 69.612,248.443 69.786 C 247.596 70.055,247.214 71.114,247.205 73.211 C 247.202 74.122,246.917 74.865,246.400 75.307 C 245.708 75.899,245.600 76.487,245.600 79.650 C 245.600 83.038,245.526 83.377,244.600 84.235 C 243.671 85.096,243.600 85.427,243.600 88.885 C 243.600 92.174,243.507 92.666,242.800 93.107 C 242.058 93.571,242.000 94.040,242.000 99.600 C 242.000 105.160,242.058 105.629,242.800 106.093 C 243.507 106.534,243.600 107.026,243.600 110.315 C 243.600 113.773,243.671 114.104,244.600 114.965 C 245.486 115.786,245.600 116.215,245.600 118.742 C 245.600 121.160,245.722 121.669,246.400 122.093 C 247.020 122.480,247.200 123.026,247.200 124.514 C 247.200 126.031,247.411 126.647,248.200 127.436 C 248.997 128.233,249.200 128.838,249.200 130.415 C 249.200 131.960,249.375 132.503,250.000 132.893 C 250.478 133.191,250.800 133.826,250.800 134.468 C 250.800 135.521,251.693 136.800,252.429 136.800 C 252.633 136.800,252.800 137.428,252.800 138.197 C 252.800 139.160,253.048 139.748,253.600 140.093 C 254.275 140.515,254.401 141.030,254.406 143.396 C 254.413 146.376,254.588 146.906,255.700 147.317 C 256.157 147.485,256.400 147.998,256.400 148.791 C 256.400 149.513,256.726 150.287,257.200 150.693 C 257.864 151.261,258.000 151.873,258.000 154.286 C 258.000 156.760,258.119 157.268,258.800 157.693 C 259.420 158.080,259.600 158.626,259.600 160.115 C 259.600 161.653,259.801 162.224,260.600 162.965 C 261.150 163.475,261.600 164.261,261.600 164.713 C 261.600 165.956,262.022 166.800,262.643 166.800 C 263.031 166.800,263.202 167.316,263.205 168.500 C 263.213 170.881,263.564 171.935,264.443 172.214 C 265.089 172.419,265.200 172.857,265.200 175.194 C 265.200 178.273,265.438 179.200,266.227 179.200 C 266.628 179.200,266.798 180.050,266.884 182.500 C 266.989 185.482,267.087 185.838,267.900 186.195 C 268.722 186.555,268.800 186.858,268.800 189.691 C 268.800 192.360,268.912 192.863,269.600 193.293 C 270.279 193.717,270.400 194.226,270.400 196.668 C 270.400 199.454,270.931 200.800,272.029 200.800 C 272.233 200.800,272.400 202.598,272.400 204.797 C 272.400 208.360,272.487 208.847,273.200 209.293 C 273.939 209.754,274.000 210.226,274.000 215.493 C 274.000 220.760,274.061 221.231,274.800 221.693 C 275.473 222.113,275.600 222.626,275.600 224.914 C 275.600 227.284,275.729 227.766,276.600 228.636 L 277.600 229.636 277.600 239.615 C 277.600 249.160,277.635 249.615,278.400 250.093 C 279.071 250.512,279.200 251.026,279.200 253.278 L 279.200 255.964 278.200 254.964 C 277.220 253.984,277.200 253.840,277.200 247.815 C 277.200 241.355,277.066 240.400,276.157 240.400 C 275.716 240.400,275.599 239.506,275.595 236.100 C 275.588 231.110,275.393 230.115,274.357 229.786 C 273.704 229.579,273.600 229.138,273.600 226.569 C 273.600 224.087,273.467 223.478,272.800 222.907 C 272.084 222.294,272.000 221.727,272.000 217.520 C 272.000 212.946,271.973 212.801,271.000 212.163 C 270.083 211.562,270.000 211.263,270.000 208.557 C 270.000 206.040,269.883 205.533,269.200 205.107 C 268.527 204.687,268.400 204.174,268.400 201.877 C 268.400 198.396,267.988 197.600,266.186 197.600 L 264.800 197.600 264.800 193.623 C 264.800 190.210,264.695 189.571,264.061 189.123 C 263.654 188.835,263.198 187.935,263.047 187.123 C 262.868 186.158,262.500 185.559,261.986 185.396 C 261.298 185.177,261.200 184.777,261.200 182.189 C 261.200 179.823,261.050 179.088,260.453 178.516 C 260.042 178.122,259.586 177.135,259.439 176.323 C 259.264 175.353,258.902 174.759,258.386 174.596 C 257.732 174.388,257.600 173.982,257.600 172.176 C 257.600 170.440,257.440 169.907,256.800 169.507 C 256.176 169.117,256.000 168.574,256.000 167.035 C 256.000 165.223,255.855 164.924,254.222 163.359 C 252.611 161.816,252.432 161.455,252.322 159.528 C 252.221 157.768,252.044 157.332,251.300 157.005 C 250.805 156.788,250.400 156.385,250.400 156.109 C 250.400 155.833,250.040 155.382,249.600 155.107 C 248.982 154.721,248.800 154.174,248.800 152.704 C 248.800 151.333,248.576 150.576,248.000 150.000 C 247.560 149.560,247.200 148.826,247.200 148.368 C 247.200 147.911,246.411 146.748,245.448 145.784 C 244.289 144.625,243.602 143.537,243.421 142.572 C 243.240 141.607,242.885 141.043,242.374 140.909 C 241.802 140.759,241.600 140.355,241.600 139.357 C 241.600 138.440,241.343 137.846,240.800 137.507 C 240.360 137.232,240.000 136.589,240.000 136.077 C 240.000 134.822,239.303 133.600,238.586 133.600 C 238.196 133.600,238.000 133.180,238.000 132.343 C 238.000 131.042,235.930 128.413,234.900 128.404 C 234.596 128.402,234.400 127.852,234.400 127.003 C 234.400 126.040,234.152 125.452,233.600 125.107 C 233.110 124.801,232.800 124.174,232.800 123.489 C 232.800 122.689,232.287 121.872,231.000 120.621 C 229.888 119.540,229.198 118.514,229.194 117.936 C 229.186 116.798,228.825 116.225,227.900 115.883 C 227.515 115.741,227.200 115.349,227.200 115.013 C 227.200 114.676,227.047 114.400,226.859 114.400 C 225.990 114.400,224.046 111.962,223.927 110.722 C 223.839 109.808,223.522 109.278,222.900 109.005 C 222.405 108.788,222.000 108.385,222.000 108.109 C 222.000 107.833,221.640 107.382,221.200 107.107 C 220.760 106.832,220.400 106.216,220.400 105.736 C 220.400 104.558,220.001 103.600,219.511 103.600 C 219.049 103.600,216.400 100.808,216.400 100.322 C 216.400 100.145,216.199 100.000,215.954 100.000 C 215.487 100.000,212.800 97.246,212.800 96.768 C 212.800 96.617,212.440 96.399,212.000 96.284 C 211.560 96.169,211.200 95.800,211.200 95.464 C 211.200 95.129,210.840 94.740,210.400 94.600 C 209.857 94.428,209.600 93.995,209.600 93.251 C 209.600 91.619,207.239 89.200,205.646 89.200 C 204.575 89.200,204.400 89.056,204.400 88.174 C 204.400 86.413,203.709 85.600,202.213 85.600 C 201.205 85.600,200.788 85.393,200.600 84.800 C 200.460 84.360,200.088 84.000,199.773 84.000 C 199.403 84.000,199.200 83.575,199.200 82.800 C 199.200 82.133,198.844 81.244,198.400 80.800 C 197.956 80.356,197.067 80.000,196.400 80.000 C 195.600 80.000,195.200 79.800,195.200 79.400 C 195.200 79.070,195.038 78.800,194.840 78.800 C 194.642 78.800,193.855 78.147,193.090 77.350 C 192.326 76.552,191.489 75.697,191.230 75.450 C 190.972 75.202,190.377 74.595,189.908 74.100 C 189.358 73.519,188.586 73.200,187.728 73.200 C 186.492 73.200,186.400 73.108,186.400 71.880 C 186.400 70.298,185.796 69.601,184.420 69.597 C 183.716 69.595,182.908 69.037,181.813 67.797 C 180.552 66.369,179.961 66.000,178.940 66.000 C 178.005 66.000,177.585 65.781,177.400 65.200 C 177.260 64.760,176.888 64.400,176.573 64.400 C 176.258 64.400,176.000 64.233,176.000 64.029 C 176.000 63.293,174.721 62.400,173.668 62.400 C 173.026 62.400,172.391 62.078,172.093 61.600 C 171.751 61.053,171.160 60.800,170.224 60.800 C 169.217 60.800,168.788 60.593,168.606 60.020 C 168.470 59.592,168.008 59.130,167.580 58.994 C 167.151 58.857,166.800 58.507,166.800 58.216 C 166.800 57.619,165.939 57.200,164.713 57.200 C 164.261 57.200,163.475 56.750,162.965 56.200 C 162.239 55.416,161.645 55.200,160.223 55.200 C 158.484 55.200,156.000 53.521,156.000 52.345 C 156.000 52.161,155.273 51.893,154.385 51.751 C 153.412 51.596,152.612 51.197,152.371 50.747 C 152.062 50.168,151.514 50.000,149.932 50.000 C 148.270 50.000,147.720 49.815,146.965 49.000 C 146.455 48.450,145.620 48.000,145.108 48.000 C 144.596 48.000,143.870 47.640,143.493 47.200 C 142.969 46.588,142.313 46.400,140.700 46.400 C 139.026 46.400,138.490 46.236,138.093 45.600 C 137.692 44.958,137.160 44.800,135.397 44.800 C 134.188 44.800,133.200 44.633,133.200 44.429 C 133.200 43.693,131.921 42.800,130.868 42.800 C 130.226 42.800,129.591 42.478,129.293 42.000 C 128.840 41.275,128.360 41.200,124.142 41.200 C 119.695 41.200,119.451 41.156,118.565 40.200 C 117.680 39.245,117.431 39.200,113.033 39.200 C 108.838 39.200,108.390 39.129,108.000 38.400 C 107.595 37.643,107.162 37.600,100.013 37.600 C 92.949 37.600,92.438 37.550,92.214 36.843 C 91.600 34.911,76.800 35.052,76.800 36.990 C 76.800 37.513,75.828 37.600,70.014 37.600 C 63.638 37.600,63.202 37.648,62.800 38.400 C 62.410 39.129,61.962 39.200,57.767 39.200 C 53.369 39.200,53.120 39.245,52.235 40.200 C 51.349 41.156,51.105 41.200,46.658 41.200 C 42.440 41.200,41.960 41.275,41.507 42.000 C 41.111 42.635,40.574 42.800,38.913 42.800 C 37.120 42.800,36.724 42.944,36.163 43.800 C 35.716 44.483,35.143 44.800,34.357 44.800 C 33.640 44.800,33.019 45.101,32.707 45.600 C 32.312 46.233,31.774 46.400,30.132 46.400 C 28.151 46.400,26.800 47.060,26.800 48.029 C 26.800 48.233,26.549 48.400,26.243 48.400 C 25.266 48.400,25.200 49.390,25.200 64.000 C 25.200 78.576,25.268 79.600,26.231 79.600 C 26.657 79.600,26.801 80.716,26.888 84.700 C 26.995 89.553,27.044 89.819,27.900 90.195 C 28.686 90.540,28.800 90.887,28.800 92.932 C 28.800 94.938,28.915 95.305,29.600 95.484 C 30.311 95.670,30.401 96.032,30.406 98.747 C 30.413 101.975,30.576 102.502,31.700 102.917 C 32.251 103.120,32.400 103.645,32.400 105.384 C 32.400 107.160,32.557 107.691,33.200 108.093 C 33.640 108.368,34.000 108.984,34.000 109.464 C 34.000 110.753,34.413 111.600,35.043 111.600 C 35.397 111.600,35.600 112.044,35.600 112.819 C 35.600 113.606,35.955 114.367,36.600 114.965 C 37.387 115.695,37.600 116.283,37.600 117.730 C 37.600 119.003,37.830 119.789,38.347 120.284 C 38.758 120.678,39.216 121.675,39.365 122.500 C 39.514 123.325,39.781 124.000,39.959 124.000 C 40.645 124.000,42.800 126.449,42.800 127.230 C 42.800 128.390,43.522 129.600,44.214 129.600 C 44.611 129.600,44.800 130.028,44.800 130.928 C 44.800 131.846,45.109 132.524,45.800 133.125 C 46.350 133.603,46.800 134.155,46.800 134.351 C 46.800 134.546,47.160 134.801,47.600 134.916 C 48.169 135.065,48.400 135.462,48.400 136.290 C 48.400 137.035,48.761 137.770,49.400 138.325 C 49.950 138.803,50.400 139.364,50.400 139.570 C 50.400 139.777,50.760 140.060,51.200 140.200 C 51.640 140.340,52.000 140.729,52.000 141.064 C 52.000 141.400,52.354 141.767,52.787 141.881 C 53.219 141.994,53.676 142.410,53.802 142.806 C 53.928 143.202,54.294 143.627,54.615 143.750 C 54.937 143.874,55.200 144.431,55.200 144.987 C 55.200 146.282,56.511 147.600,57.800 147.600 C 58.610 147.600,58.800 147.798,58.800 148.637 C 58.800 150.229,63.080 154.400,64.714 154.400 C 65.584 154.400,66.019 154.629,66.194 155.180 C 66.330 155.608,66.792 156.070,67.220 156.206 C 67.649 156.343,68.000 156.729,68.000 157.064 C 68.000 157.400,68.354 157.767,68.787 157.881 C 69.219 157.994,69.679 158.418,69.807 158.823 C 69.936 159.228,70.392 159.670,70.820 159.806 C 71.249 159.943,71.600 160.293,71.600 160.584 C 71.600 161.200,72.468 161.600,73.806 161.600 C 74.395 161.600,74.841 161.899,75.000 162.400 C 75.176 162.953,75.742 163.277,76.841 163.453 C 77.791 163.605,78.590 164.007,78.829 164.453 C 79.048 164.864,79.492 165.200,79.814 165.200 C 80.136 165.200,80.400 165.367,80.400 165.571 C 80.400 166.282,81.663 167.200,82.641 167.200 C 83.277 167.200,84.145 167.766,85.096 168.800 C 86.456 170.280,86.726 170.400,88.684 170.400 C 89.848 170.400,90.800 170.567,90.800 170.771 C 90.800 171.507,92.079 172.400,93.132 172.400 C 93.774 172.400,94.409 172.722,94.707 173.200 C 95.052 173.752,95.640 174.000,96.603 174.000 C 97.372 174.000,98.000 174.167,98.000 174.371 C 98.000 175.358,99.352 176.000,101.429 176.000 C 103.018 176.000,103.600 176.149,103.600 176.557 C 103.600 177.198,104.450 177.600,105.806 177.600 C 106.377 177.600,106.840 177.897,106.986 178.357 C 107.262 179.226,108.318 179.587,110.604 179.595 C 111.770 179.599,112.344 179.818,112.707 180.400 C 113.131 181.078,113.640 181.200,116.058 181.200 C 118.585 181.200,119.014 181.314,119.835 182.200 C 120.576 182.999,121.147 183.200,122.685 183.200 C 124.174 183.200,124.720 183.380,125.107 184.000 C 125.534 184.684,126.040 184.800,128.589 184.800 C 131.162 184.800,131.631 184.910,132.000 185.600 C 132.386 186.322,132.838 186.400,136.614 186.400 L 140.800 186.400 140.800 187.720 C 140.800 189.758,141.318 190.000,145.680 190.000 C 147.836 190.000,149.600 190.167,149.600 190.371 C 149.600 191.469,150.946 192.000,153.732 192.000 C 156.174 192.000,156.683 192.121,157.107 192.800 C 157.507 193.440,158.040 193.600,159.776 193.600 C 161.554 193.600,161.990 193.737,162.186 194.357 C 162.485 195.297,163.523 195.588,166.604 195.595 C 168.571 195.599,169.098 195.745,169.507 196.400 C 169.907 197.040,170.440 197.200,172.176 197.200 C 173.954 197.200,174.390 197.337,174.586 197.957 C 174.862 198.826,175.918 199.187,178.204 199.195 C 179.370 199.199,179.944 199.418,180.307 200.000 C 180.624 200.507,181.240 200.800,181.989 200.800 C 182.762 200.800,183.320 201.077,183.600 201.600 C 183.902 202.164,184.438 202.400,185.414 202.400 C 186.176 202.400,186.800 202.567,186.800 202.771 C 186.800 203.740,188.151 204.400,190.132 204.400 C 191.774 204.400,192.312 204.567,192.707 205.200 C 193.108 205.842,193.640 206.000,195.403 206.000 C 196.612 206.000,197.600 206.167,197.600 206.371 C 197.600 207.316,198.951 208.000,200.814 208.000 C 202.362 208.000,202.861 208.167,203.200 208.800 C 203.499 209.359,204.038 209.600,204.987 209.600 C 205.969 209.600,206.413 209.810,206.586 210.357 C 206.858 211.212,207.916 211.587,210.082 211.595 C 212.941 211.605,214.440 214.129,212.600 215.835 C 211.788 216.588,211.600 217.141,211.600 218.781 C 211.600 220.726,211.559 220.800,210.480 220.800 C 209.031 220.800,208.400 221.462,208.400 222.985 C 208.400 223.872,208.151 224.319,207.500 224.605 C 206.846 224.892,206.567 225.398,206.478 226.459 C 206.391 227.507,206.137 227.975,205.578 228.122 C 204.985 228.277,204.800 228.675,204.800 229.800 C 204.800 230.938,204.618 231.323,204.000 231.484 C 203.560 231.599,203.200 231.854,203.200 232.049 C 203.200 232.245,202.750 232.797,202.200 233.275 C 201.509 233.876,201.200 234.554,201.200 235.472 C 201.200 236.420,201.018 236.800,200.563 236.800 C 200.212 236.800,199.831 237.160,199.716 237.600 C 199.601 238.040,199.361 238.400,199.182 238.400 C 198.528 238.400,197.600 239.682,197.600 240.586 C 197.600 241.547,195.616 244.000,194.840 244.000 C 194.598 244.000,194.400 244.145,194.400 244.322 C 194.400 244.808,191.751 247.600,191.289 247.600 C 190.799 247.600,190.400 248.558,190.400 249.736 C 190.400 250.216,190.040 250.832,189.600 251.107 C 189.048 251.452,188.800 252.040,188.800 253.003 C 188.800 254.281,188.700 254.400,187.629 254.400 C 186.144 254.400,185.200 255.333,185.200 256.802 C 185.200 257.595,184.954 258.024,184.400 258.200 C 183.960 258.340,183.600 258.717,183.600 259.040 C 183.600 259.362,183.285 259.741,182.900 259.883 C 181.975 260.225,181.614 260.798,181.606 261.936 C 181.602 262.514,180.912 263.540,179.800 264.621 C 178.602 265.785,178.000 266.709,178.000 267.382 C 178.000 268.294,177.377 269.069,174.999 271.116 C 174.670 271.399,174.400 272.121,174.400 272.720 C 174.400 273.374,174.081 274.006,173.600 274.307 C 173.048 274.652,172.800 275.240,172.800 276.203 C 172.800 277.187,172.620 277.600,172.191 277.600 C 171.857 277.600,171.378 278.050,171.127 278.600 C 170.877 279.150,170.450 279.600,170.179 279.600 C 169.628 279.600,169.200 280.481,169.200 281.615 C 169.200 282.027,168.750 282.814,168.200 283.364 C 167.650 283.914,167.200 284.782,167.200 285.293 C 167.200 285.804,166.840 286.530,166.400 286.907 C 165.960 287.284,165.600 288.036,165.600 288.578 C 165.600 289.120,165.150 290.014,164.600 290.564 C 164.050 291.114,163.600 291.932,163.600 292.382 C 163.600 292.832,163.240 293.560,162.800 294.000 C 162.360 294.440,162.000 295.297,162.000 295.904 C 162.000 296.574,161.686 297.204,161.200 297.507 C 160.558 297.908,160.400 298.440,160.400 300.203 C 160.400 301.412,160.233 302.400,160.029 302.400 C 159.293 302.400,158.400 303.679,158.400 304.732 C 158.400 305.374,158.078 306.009,157.600 306.307 C 156.908 306.739,156.800 307.240,156.800 310.003 C 156.800 312.544,156.680 313.200,156.214 313.200 C 155.360 313.200,154.800 314.501,154.800 316.485 C 154.800 317.727,154.572 318.417,154.000 318.907 C 153.413 319.410,153.200 320.087,153.200 321.450 C 153.200 322.918,152.990 323.503,152.200 324.235 C 151.271 325.096,151.200 325.427,151.200 328.885 C 151.200 332.174,151.107 332.666,150.400 333.107 C 149.675 333.560,149.600 334.040,149.600 338.258 C 149.600 342.705,149.556 342.949,148.600 343.835 L 147.600 344.762 147.600 365.400 L 147.600 386.038 148.600 386.965 C 149.150 387.475,149.603 388.321,149.606 388.846 C 149.617 390.463,150.206 390.918,152.545 391.112 C 155.591 391.365,157.496 390.957,157.804 389.986 C 158.025 389.292,158.424 389.200,161.224 389.200 C 163.960 389.200,164.462 389.091,164.893 388.400 C 165.341 387.683,165.829 387.599,169.596 387.595 C 174.489 387.588,175.486 387.390,175.814 386.357 C 176.027 385.684,176.477 385.600,179.847 385.600 C 183.695 385.600,186.400 384.304,186.400 382.460 C 186.400 382.152,187.456 382.000,189.597 382.000 C 192.360 382.000,192.861 381.892,193.293 381.200 C 193.683 380.576,194.226 380.400,195.765 380.400 C 197.580 380.400,197.874 380.257,199.462 378.600 C 201.052 376.940,201.341 376.800,203.171 376.800 C 204.645 376.800,205.289 376.610,205.677 376.061 C 205.965 375.654,206.865 375.198,207.677 375.047 C 208.625 374.871,209.242 374.498,209.398 374.007 C 209.532 373.585,209.992 373.130,210.420 372.994 C 210.849 372.857,211.200 372.488,211.200 372.173 C 211.200 371.801,211.628 371.600,212.419 371.600 C 213.206 371.600,213.967 371.245,214.565 370.600 C 215.075 370.050,215.934 369.600,216.474 369.600 C 217.023 369.600,217.839 369.159,218.325 368.600 C 218.803 368.050,219.364 367.600,219.570 367.600 C 219.777 367.600,220.060 367.240,220.200 366.800 C 220.383 366.223,220.805 366.000,221.717 366.000 C 222.905 366.000,225.600 363.729,225.600 362.727 C 225.600 362.547,225.864 362.400,226.186 362.400 C 226.508 362.400,226.965 362.040,227.200 361.600 C 227.479 361.078,228.038 360.800,228.805 360.800 C 229.619 360.800,230.184 360.492,230.637 359.800 C 230.997 359.250,231.541 358.800,231.846 358.800 C 232.151 358.800,232.400 358.655,232.400 358.478 C 232.400 357.966,235.061 355.200,235.554 355.200 C 235.799 355.200,236.000 355.038,236.000 354.840 C 236.000 354.642,236.653 353.854,237.450 353.090 C 239.241 351.373,239.373 351.241,241.090 349.450 C 241.855 348.652,242.642 348.000,242.840 348.000 C 243.038 348.000,243.200 347.824,243.200 347.609 C 243.200 347.099,247.499 342.800,248.009 342.800 C 248.224 342.800,248.400 342.619,248.400 342.397 C 248.400 342.176,248.850 341.603,249.400 341.125 C 250.091 340.524,250.400 339.846,250.400 338.928 C 250.400 338.198,250.589 337.600,250.820 337.600 C 251.396 337.600,254.000 335.028,254.000 334.460 C 254.000 334.207,254.220 334.000,254.490 334.000 C 255.706 334.000,257.600 331.097,257.603 329.227 C 257.606 327.566,257.770 327.256,259.403 325.813 C 260.831 324.552,261.200 323.961,261.200 322.940 C 261.200 322.013,261.419 321.584,261.986 321.404 C 262.500 321.241,262.868 320.642,263.047 319.677 C 263.198 318.865,263.654 317.965,264.061 317.677 C 264.517 317.355,264.800 316.664,264.800 315.874 C 264.800 315.026,265.071 314.423,265.600 314.093 C 266.113 313.772,266.400 313.160,266.400 312.384 C 266.400 311.598,266.645 311.085,267.100 310.917 C 268.081 310.555,268.387 309.994,268.394 308.547 C 268.398 307.633,268.617 307.237,269.200 307.084 C 269.890 306.904,270.000 306.538,270.000 304.437 C 270.000 302.564,270.135 302.000,270.586 302.000 C 271.440 302.000,272.000 300.699,272.000 298.715 C 272.000 297.473,272.228 296.783,272.800 296.293 C 273.264 295.896,273.600 295.113,273.600 294.431 C 273.600 293.628,273.840 293.178,274.357 293.014 C 275.297 292.715,275.588 291.677,275.595 288.596 C 275.599 286.629,275.745 286.102,276.400 285.693 C 277.146 285.227,277.200 284.760,277.200 278.742 C 277.200 272.375,277.213 272.280,278.200 271.365 C 279.184 270.453,279.200 270.339,279.200 264.219 L 279.200 258.000 280.000 258.800 C 281.331 260.131,286.000 259.672,286.000 258.210 C 286.000 257.874,286.274 257.600,286.609 257.600 C 286.943 257.600,287.422 257.150,287.673 256.600 C 287.923 256.050,288.357 255.600,288.637 255.600 C 288.917 255.600,289.257 255.249,289.394 254.820 C 289.530 254.392,289.992 253.930,290.420 253.794 C 290.849 253.657,291.200 253.300,291.200 253.000 C 291.200 252.700,291.551 252.343,291.980 252.206 C 292.408 252.070,292.870 251.608,293.006 251.180 C 293.143 250.751,293.529 250.400,293.864 250.400 C 294.200 250.400,294.569 250.040,294.684 249.600 C 294.799 249.160,295.034 248.800,295.207 248.800 C 295.642 248.800,298.400 246.002,298.400 245.560 C 298.400 245.362,298.664 245.200,298.986 245.200 C 299.723 245.200,300.400 243.968,300.400 242.626 C 300.400 241.722,300.565 241.600,301.786 241.600 C 303.242 241.600,304.000 240.803,304.000 239.271 C 304.000 238.480,311.260 230.800,312.007 230.800 C 312.223 230.800,312.400 230.655,312.400 230.478 C 312.400 229.966,315.061 227.200,315.554 227.200 C 315.799 227.200,316.000 227.038,316.000 226.840 C 316.000 226.517,317.778 224.653,319.392 223.284 C 319.726 223.001,320.000 222.230,320.000 221.572 C 320.000 220.891,320.252 220.278,320.585 220.150 C 320.906 220.027,321.279 219.583,321.412 219.163 C 321.545 218.743,321.905 218.400,322.213 218.400 C 322.883 218.400,323.600 217.172,323.600 216.026 C 323.600 215.412,323.856 215.200,324.600 215.200 C 325.945 215.200,328.800 212.348,328.800 211.003 C 328.800 210.391,329.301 209.547,330.100 208.813 C 330.815 208.156,331.580 207.426,331.800 207.190 C 332.020 206.954,332.605 206.377,333.100 205.908 C 333.681 205.358,334.000 204.586,334.000 203.728 C 334.000 202.947,334.202 202.400,334.490 202.400 C 335.380 202.400,337.600 199.512,337.600 198.354 C 337.600 197.612,337.856 197.173,338.386 197.004 C 338.887 196.846,339.267 196.249,339.434 195.362 C 339.601 194.470,340.326 193.337,341.448 192.216 C 343.057 190.606,343.200 190.298,343.200 188.432 C 343.200 186.473,343.240 186.400,344.320 186.400 C 345.752 186.400,346.400 185.740,346.400 184.283 C 346.400 183.462,346.633 183.064,347.200 182.916 C 347.640 182.801,348.000 182.546,348.000 182.351 C 348.000 182.155,348.450 181.603,349.000 181.125 C 349.691 180.524,350.000 179.846,350.000 178.928 C 350.000 178.198,350.201 177.600,350.446 177.600 C 351.767 177.600,353.600 174.649,353.600 172.522 C 353.600 170.925,353.745 170.400,354.186 170.400 C 354.923 170.400,355.600 169.168,355.600 167.826 C 355.600 167.216,355.826 166.800,356.157 166.800 C 356.775 166.800,357.200 165.957,357.200 164.732 C 357.200 164.290,358.010 163.141,359.000 162.179 C 360.640 160.585,360.800 160.259,360.800 158.511 C 360.800 157.026,360.981 156.480,361.600 156.093 C 362.243 155.691,362.400 155.160,362.400 153.384 C 362.400 151.645,362.549 151.120,363.100 150.917 C 364.081 150.555,364.387 149.994,364.394 148.547 C 364.398 147.633,364.617 147.237,365.200 147.084 C 365.885 146.905,366.000 146.538,366.000 144.532 C 366.000 142.487,366.114 142.140,366.900 141.795 C 367.713 141.438,367.811 141.082,367.916 138.100 C 368.002 135.650,368.172 134.800,368.573 134.800 C 369.407 134.800,369.600 133.852,369.600 129.767 C 369.600 126.658,369.707 126.000,370.210 126.000 C 371.478 126.000,371.600 123.917,371.595 102.274 C 371.589 79.490,371.562 78.969,370.357 78.586 C 369.737 78.390,369.600 77.954,369.600 76.176 C 369.600 74.440,369.440 73.907,368.800 73.507 C 368.127 73.087,368.000 72.574,368.000 70.277 C 368.000 67.379,367.544 66.000,366.586 66.000 C 366.142 66.000,366.000 65.466,366.000 63.803 C 366.000 62.040,365.842 61.508,365.200 61.107 C 364.575 60.717,364.399 60.170,364.394 58.604 C 364.387 56.418,364.162 55.875,363.100 55.483 C 362.616 55.305,362.400 54.793,362.400 53.827 C 362.400 52.838,362.166 52.303,361.600 52.000 C 361.144 51.756,360.800 51.162,360.800 50.619 C 360.800 49.286,360.404 48.400,359.808 48.400 C 359.525 48.400,359.187 47.678,359.040 46.760 C 358.856 45.606,358.547 45.059,358.002 44.916 C 357.576 44.805,357.124 44.390,356.998 43.994 C 356.872 43.598,356.506 43.173,356.185 43.050 C 355.863 42.926,355.600 42.371,355.600 41.815 C 355.600 41.155,354.976 40.172,353.800 38.979 C 352.810 37.975,352.000 36.792,352.000 36.350 C 352.000 35.225,351.277 34.000,350.613 34.000 C 350.305 34.000,349.940 33.640,349.800 33.200 C 349.660 32.760,349.300 32.400,349.000 32.400 C 348.700 32.400,348.340 32.040,348.200 31.600 C 348.060 31.160,347.796 30.800,347.613 30.800 C 347.179 30.800,344.400 28.021,344.400 27.587 C 344.400 27.404,344.040 27.140,343.600 27.000 C 343.160 26.860,342.800 26.500,342.800 26.200 C 342.800 25.900,342.449 25.543,342.020 25.406 C 341.592 25.270,341.136 24.828,341.007 24.423 C 340.879 24.018,340.419 23.594,339.987 23.481 C 339.554 23.367,339.200 23.000,339.200 22.664 C 339.200 22.329,338.849 21.943,338.420 21.806 C 337.992 21.670,337.530 21.208,337.394 20.780 C 337.257 20.351,336.888 20.000,336.573 20.000 C 336.258 20.000,336.000 19.833,336.000 19.629 C 336.000 18.875,334.710 18.000,333.598 18.000 C 332.812 18.000,332.376 17.754,332.204 17.214 C 332.041 16.698,331.447 16.336,330.477 16.161 C 329.665 16.014,328.678 15.558,328.284 15.147 C 327.761 14.600,326.996 14.400,325.431 14.400 C 323.630 14.400,323.260 14.274,323.084 13.600 C 322.913 12.947,322.538 12.800,321.041 12.800 C 319.640 12.800,319.089 12.989,318.707 13.600 M238.700 147.377 L 240.400 147.754 240.400 149.873 C 240.400 151.560,240.563 152.095,241.200 152.493 C 241.678 152.791,242.000 153.426,242.000 154.068 C 242.000 155.091,242.888 156.400,243.582 156.400 C 243.761 156.400,244.001 156.760,244.116 157.200 C 244.231 157.640,244.612 158.000,244.963 158.000 C 245.459 158.000,245.600 158.434,245.600 159.967 C 245.600 162.308,245.888 163.200,246.643 163.200 C 246.997 163.200,247.200 163.644,247.200 164.419 C 247.200 165.206,247.555 165.967,248.200 166.565 C 248.778 167.100,249.200 167.935,249.200 168.542 C 249.200 169.160,249.530 169.799,250.000 170.093 C 250.633 170.488,250.800 171.026,250.800 172.668 C 250.800 174.649,251.460 176.000,252.429 176.000 C 252.633 176.000,252.800 176.647,252.800 177.437 C 252.800 178.538,252.987 178.924,253.600 179.084 C 254.273 179.260,254.400 179.630,254.400 181.418 C 254.400 183.448,255.051 184.800,256.029 184.800 C 256.233 184.800,256.400 185.788,256.400 186.997 C 256.400 188.760,256.558 189.292,257.200 189.693 C 257.686 189.996,258.000 190.626,258.000 191.296 C 258.000 191.903,258.360 192.760,258.800 193.200 C 259.437 193.837,259.600 194.533,259.600 196.618 C 259.600 198.878,259.737 199.373,260.600 200.236 C 261.475 201.112,261.600 201.584,261.600 204.022 C 261.600 206.313,261.742 206.930,262.400 207.493 C 262.917 207.935,263.202 208.678,263.205 209.589 C 263.214 211.686,263.596 212.745,264.443 213.014 C 265.096 213.221,265.200 213.662,265.200 216.231 C 265.200 218.713,265.333 219.322,266.000 219.893 C 266.658 220.456,266.801 221.078,266.806 223.389 C 266.813 226.376,266.987 226.906,268.100 227.317 C 268.703 227.539,268.800 228.131,268.800 231.584 C 268.800 235.160,268.886 235.647,269.600 236.093 C 270.302 236.531,270.400 237.026,270.400 240.123 C 270.400 243.766,270.799 245.200,271.814 245.200 C 272.258 245.200,272.393 245.710,272.373 247.300 C 272.350 249.113,272.286 249.276,271.909 248.495 C 271.611 247.875,270.988 247.512,269.936 247.343 C 268.673 247.141,268.400 246.935,268.400 246.182 C 268.400 244.541,267.947 244.001,266.356 243.747 C 265.073 243.541,264.800 243.337,264.800 242.582 C 264.800 240.941,264.347 240.401,262.756 240.147 C 261.398 239.929,261.200 239.762,261.200 238.829 C 261.200 237.406,260.519 236.800,258.920 236.800 C 257.693 236.800,257.600 236.707,257.600 235.480 C 257.600 233.823,256.990 233.200,255.367 233.200 C 254.444 233.200,254.038 232.987,253.891 232.426 C 253.756 231.911,253.190 231.559,252.197 231.373 C 250.819 231.114,248.400 229.183,248.400 228.341 C 248.400 228.153,248.151 228.000,247.846 228.000 C 247.541 228.000,246.997 227.550,246.637 227.000 C 246.184 226.308,245.619 226.000,244.805 226.000 C 244.038 226.000,243.479 225.722,243.200 225.200 C 242.965 224.760,242.508 224.400,242.186 224.400 C 241.864 224.400,241.600 224.233,241.600 224.029 C 241.600 223.323,240.339 222.400,239.375 222.400 C 238.512 222.400,237.695 221.736,235.684 219.399 C 235.401 219.070,234.710 218.800,234.149 218.800 C 233.466 218.800,232.551 218.205,231.379 217.000 C 230.417 216.010,229.376 215.200,229.065 215.200 C 228.754 215.200,228.395 214.675,228.267 214.033 C 227.989 212.645,227.006 212.312,225.566 213.117 C 224.603 213.655,224.459 213.622,223.484 212.647 C 222.877 212.041,221.966 211.589,221.318 211.575 C 220.250 211.550,220.240 211.533,221.100 211.188 C 221.894 210.868,222.000 210.541,222.000 208.413 C 222.000 206.776,222.158 206.000,222.490 206.000 C 223.380 206.000,225.600 203.112,225.600 201.954 C 225.600 201.226,225.856 200.773,226.357 200.614 C 227.236 200.335,227.587 199.281,227.595 196.900 C 227.598 195.716,227.769 195.200,228.157 195.200 C 229.007 195.200,229.200 194.270,229.200 190.167 L 229.200 186.400 230.520 186.400 C 232.696 186.400,232.800 186.064,232.800 179.016 C 232.800 173.026,232.854 172.559,233.600 172.093 C 234.375 171.609,234.400 171.160,234.400 157.824 C 234.400 144.526,234.427 144.045,235.180 143.806 C 235.608 143.670,236.103 143.163,236.280 142.680 C 236.517 142.028,236.652 142.473,236.800 144.400 L 237.000 147.000 238.700 147.377 M240.880 171.280 C 240.616 171.544,240.400 171.951,240.400 172.185 C 240.400 172.419,239.995 172.788,239.500 173.005 C 238.666 173.371,238.592 173.691,238.485 177.373 C 238.385 180.789,238.259 181.423,237.585 181.896 C 236.969 182.327,236.800 182.913,236.800 184.623 C 236.800 185.820,236.633 186.800,236.429 186.800 C 235.330 186.800,234.800 188.146,234.800 190.940 C 234.800 193.327,234.663 193.940,234.000 194.507 C 233.536 194.904,233.200 195.687,233.200 196.369 C 233.200 197.172,232.960 197.622,232.443 197.786 C 231.596 198.055,231.214 199.114,231.205 201.211 C 231.202 202.122,230.917 202.865,230.400 203.307 C 229.733 203.878,229.600 204.487,229.600 206.963 C 229.600 210.743,229.763 211.120,231.539 211.450 C 232.342 211.599,233.235 212.054,233.523 212.461 C 233.855 212.931,234.538 213.200,235.396 213.200 C 236.395 213.200,236.812 213.408,237.000 214.000 C 237.140 214.440,237.512 214.800,237.827 214.800 C 238.142 214.800,238.400 214.967,238.400 215.171 C 238.400 215.907,239.679 216.800,240.732 216.800 C 241.374 216.800,242.009 217.122,242.307 217.600 C 242.649 218.147,243.240 218.400,244.176 218.400 C 245.183 218.400,245.612 218.607,245.794 219.180 C 245.930 219.608,246.372 220.064,246.777 220.193 C 247.182 220.321,247.606 220.781,247.719 221.213 C 247.875 221.808,248.269 222.000,249.336 222.000 C 250.395 222.000,250.809 222.199,251.000 222.800 C 251.140 223.240,251.404 223.600,251.587 223.600 C 252.036 223.600,254.800 226.387,254.800 226.840 C 254.800 227.038,255.049 227.200,255.354 227.200 C 255.659 227.200,256.203 227.650,256.563 228.200 C 257.289 229.308,259.816 229.624,260.720 228.720 C 261.617 227.823,261.355 220.125,260.400 219.307 C 259.745 218.746,259.600 218.127,259.600 215.892 C 259.600 213.494,259.478 213.049,258.600 212.235 C 257.810 211.503,257.600 210.918,257.600 209.450 C 257.600 208.087,257.387 207.410,256.800 206.907 C 256.228 206.417,256.000 205.727,256.000 204.485 C 256.000 202.501,255.440 201.200,254.586 201.200 C 254.120 201.200,254.000 200.544,254.000 198.003 C 254.000 195.240,253.892 194.739,253.200 194.307 C 252.521 193.883,252.400 193.374,252.400 190.932 C 252.400 188.146,251.869 186.800,250.771 186.800 C 250.567 186.800,250.400 186.176,250.400 185.414 C 250.400 184.438,250.164 183.902,249.600 183.600 C 249.144 183.356,248.800 182.762,248.800 182.219 C 248.800 180.851,248.400 180.000,247.757 180.000 C 247.426 180.000,247.200 179.584,247.200 178.974 C 247.200 177.632,246.523 176.400,245.786 176.400 C 245.343 176.400,245.200 175.869,245.200 174.229 C 245.200 171.216,242.671 169.489,240.880 171.280 " stroke="none" fill="#000000" fill-rule="evenodd"></path></g></svg>