<svg id="svg" xmlns="http://www.w3.org/2000/svg" xmlns:xlink="http://www.w3.org/1999/xlink" width="400" height="400" viewBox="0, 0, 400,400"><g id="svgg"><path id="path0" d="M164.194 3.775 C 56.148 60.915,18.626 194.411,81.287 298.743 C 133.751 386.096,243.509 422.759,338.311 384.598 C 343.592 382.472,348.169 380.476,348.483 380.162 C 349.096 379.549,342.921 365.806,342.032 365.806 C 341.747 365.806,338.802 366.982,335.488 368.420 C 270.028 396.811,189.656 384.149,134.548 336.763 C 30.509 247.300,50.673 79.098,172.786 17.799 C 176.093 16.139,178.706 14.548,178.593 14.263 C 177.298 10.999,171.956 0.003,171.669 0.011 C 171.461 0.017,168.097 1.710,164.194 3.775 M188.597 36.394 C 186.054 37.539,184.490 39.853,184.105 43.040 C 183.845 45.200,187.322 53.005,214.085 110.323 C 230.737 145.984,244.272 175.260,244.165 175.381 C 244.058 175.501,213.972 164.670,177.307 151.312 C 134.889 135.856,109.741 127.009,108.160 126.983 C 101.237 126.871,97.721 135.777,102.803 140.551 C 103.798 141.485,127.826 150.535,171.040 166.252 C 207.726 179.594,237.958 190.698,238.221 190.928 C 238.485 191.158,209.478 204.979,173.760 221.641 C 103.321 254.501,106.456 252.804,106.456 258.065 C 106.456 262.708,111.273 267.084,115.439 266.224 C 116.351 266.036,145.984 252.412,181.290 235.947 C 216.597 219.483,245.560 206.066,245.653 206.132 C 245.746 206.198,234.902 236.230,221.556 272.870 C 208.210 309.511,197.290 340.433,197.290 341.587 C 197.290 349.961,208.434 352.751,212.160 345.309 C 212.822 343.986,224.058 313.508,237.129 277.581 C 250.199 241.653,261.060 212.258,261.264 212.258 C 261.467 212.258,275.089 241.125,291.533 276.406 C 307.978 311.687,322.080 341.162,322.871 341.905 C 327.901 346.631,336.129 343.241,336.129 336.445 C 336.129 333.889,302.974 261.478,263.168 177.097 C 260.322 171.065,244.582 137.411,228.190 102.311 C 206.588 56.054,197.939 38.163,196.759 37.294 C 194.544 35.663,191.073 35.280,188.597 36.394 " stroke="none" fill="#000000" fill-rule="evenodd"></path></g></svg>