<svg id="svg" version="1.1" width="400" height="400" xmlns="http://www.w3.org/2000/svg" xmlns:xlink="http://www.w3.org/1999/xlink" style="display: block;"><g id="svgg"><path id="path0" d="M213.144 48.470 C 207.448 49.824,202.273 51.316,201.644 51.786 C 201.015 52.255,198.588 53.243,196.250 53.980 C 193.912 54.717,192.000 55.498,192.000 55.716 C 192.000 57.367,199.257 62.070,204.783 64.001 C 208.477 65.291,211.725 66.659,212.000 67.039 C 215.652 72.091,243.357 71.511,248.821 66.268 C 249.548 65.571,250.590 65.000,251.136 65.000 C 252.852 65.000,263.465 59.856,264.235 58.651 C 265.758 56.265,264.872 55.043,260.750 53.839 C 258.413 53.156,256.258 52.254,255.963 51.834 C 252.851 47.412,226.353 45.330,213.144 48.470 M331.111 48.072 C 326.497 49.154,321.322 50.678,319.611 51.461 C 317.900 52.243,314.587 53.376,312.250 53.980 C 307.787 55.132,306.805 56.606,309.750 57.731 C 310.712 58.098,312.331 59.171,313.346 60.114 C 314.362 61.057,317.962 62.851,321.346 64.101 C 324.731 65.351,327.725 66.680,328.000 67.054 C 331.413 71.701,353.340 71.790,361.523 67.189 C 362.610 66.578,367.438 64.247,372.250 62.010 C 382.160 57.404,382.914 56.002,376.500 54.108 C 374.025 53.377,372.000 52.477,372.000 52.108 C 372.000 51.739,369.863 50.849,367.250 50.130 C 364.637 49.411,361.150 48.386,359.500 47.852 C 353.466 45.899,339.938 46.004,331.111 48.072 M175.003 84.614 C 175.005 95.551,175.299 111.551,175.657 120.170 L 176.307 135.840 185.403 138.037 C 190.406 139.246,194.755 140.638,195.067 141.131 C 195.380 141.624,200.780 143.180,207.067 144.589 C 213.355 145.998,218.927 147.567,219.450 148.076 C 224.273 152.769,225.029 147.782,224.900 112.110 C 224.777 77.901,225.347 80.148,215.972 76.956 C 211.863 75.557,207.196 73.855,205.602 73.175 C 204.008 72.494,199.058 71.000,194.602 69.855 C 190.146 68.710,186.005 67.375,185.399 66.888 C 184.794 66.401,182.206 65.716,179.649 65.365 L 175.000 64.728 175.003 84.614 M273.750 65.696 C 272.788 65.944,272.000 66.487,272.000 66.902 C 272.000 67.318,267.387 68.936,261.750 70.499 C 256.113 72.061,251.275 73.658,251.000 74.048 C 250.725 74.437,248.000 75.541,244.944 76.500 C 234.680 79.720,235.540 76.231,235.213 115.987 C 234.880 156.583,234.321 154.502,244.599 150.966 C 247.790 149.868,250.648 148.614,250.950 148.179 C 251.253 147.744,255.100 146.100,259.500 144.525 C 263.900 142.950,267.725 141.348,268.000 140.965 C 268.275 140.582,271.044 139.071,274.153 137.608 C 281.427 134.183,281.181 135.331,279.934 110.663 C 277.477 62.083,277.829 64.644,273.750 65.696 M290.750 65.558 C 290.337 65.984,290.000 67.383,290.000 68.667 C 290.000 69.950,289.550 71.000,289.000 71.000 C 288.360 71.000,288.000 80.147,288.000 96.441 C 288.000 112.323,288.376 122.114,289.000 122.500 C 289.550 122.840,290.000 125.497,290.000 128.404 C 290.000 134.628,290.993 135.737,299.000 138.463 C 302.025 139.493,304.725 140.632,305.000 140.995 C 305.275 141.358,309.550 142.906,314.500 144.434 C 319.450 145.963,323.725 147.542,324.000 147.943 C 324.838 149.166,331.108 151.000,334.449 151.000 C 339.946 151.000,340.000 150.734,340.000 123.859 C 340.000 108.444,340.377 98.885,341.000 98.500 C 342.256 97.724,342.330 86.000,341.079 86.000 C 340.573 86.000,339.859 84.635,339.493 82.966 C 338.711 79.408,336.356 77.756,329.500 75.959 C 326.750 75.238,324.267 74.307,323.981 73.889 C 323.393 73.029,308.429 68.000,306.456 68.000 C 305.747 68.000,305.014 67.543,304.828 66.985 C 304.416 65.749,291.802 64.471,290.750 65.558 M385.000 66.807 C 383.075 67.865,378.012 69.778,373.750 71.057 C 369.488 72.336,366.000 73.674,366.000 74.031 C 366.000 74.387,363.016 75.532,359.368 76.575 C 349.844 79.299,350.211 77.956,349.956 111.000 C 349.624 153.974,349.496 152.000,352.596 152.000 C 355.762 152.000,366.304 149.037,367.008 147.950 C 367.287 147.518,370.646 145.987,374.471 144.547 C 378.296 143.107,381.699 141.487,382.034 140.945 C 382.368 140.404,385.708 139.084,389.456 138.013 C 393.203 136.941,396.455 135.878,396.683 135.651 C 397.552 134.781,398.035 68.443,397.181 67.174 C 395.632 64.874,388.887 64.671,385.000 66.807 M169.500 144.635 C 168.400 144.857,164.899 145.544,161.721 146.162 C 158.542 146.780,155.703 147.671,155.412 148.143 C 155.120 148.614,153.835 149.000,152.556 149.000 C 146.310 149.000,135.000 154.749,135.000 157.924 C 135.000 158.485,137.588 159.691,140.750 160.605 C 143.912 161.518,146.725 162.567,147.000 162.936 C 151.889 169.496,191.784 169.652,195.938 163.127 C 196.247 162.641,199.088 161.432,202.250 160.439 C 205.412 159.447,208.000 158.102,208.000 157.450 C 208.000 155.741,201.034 151.385,195.900 149.884 C 193.480 149.176,191.272 148.276,190.993 147.883 C 190.473 147.150,174.681 143.908,172.640 144.116 C 172.013 144.180,170.600 144.414,169.500 144.635 M44.000 146.230 C 40.975 146.776,38.275 147.544,38.000 147.936 C 37.725 148.327,35.250 149.252,32.500 149.990 C 18.796 153.670,14.678 158.151,22.797 160.548 C 25.160 161.246,28.577 162.521,30.390 163.381 C 44.399 170.028,74.336 169.911,78.938 163.190 C 79.247 162.738,82.145 161.627,85.378 160.722 C 92.427 158.749,92.465 158.718,90.903 156.216 C 89.509 153.984,83.133 150.627,78.250 149.555 C 76.462 149.162,75.000 148.505,75.000 148.093 C 75.000 145.600,54.365 144.359,44.000 146.230 M116.629 166.257 C 115.648 169.914,115.918 228.654,116.927 231.308 C 117.437 232.649,118.980 234.029,120.357 234.375 C 121.734 234.720,123.454 235.591,124.180 236.310 C 124.906 237.029,129.325 238.941,134.000 240.559 C 138.675 242.176,142.742 243.823,143.039 244.217 C 143.611 244.979,154.418 248.401,159.576 249.455 C 161.268 249.800,163.856 249.625,165.326 249.066 L 168.000 248.050 168.000 215.180 C 168.000 180.967,167.761 179.000,163.600 179.000 C 163.191 179.000,162.236 178.378,161.476 177.619 C 160.716 176.859,156.586 174.972,152.297 173.424 C 148.009 171.877,144.275 170.308,144.000 169.937 C 143.453 169.199,127.972 165.553,121.365 164.606 C 117.679 164.078,117.164 164.257,116.629 166.257 M211.607 166.513 C 206.716 167.795,202.441 169.229,202.107 169.699 C 201.773 170.169,197.486 171.891,192.580 173.527 C 187.674 175.162,183.174 176.955,182.580 177.512 C 181.986 178.068,180.262 179.071,178.750 179.740 L 176.000 180.957 176.000 215.479 L 176.000 250.000 179.290 250.000 C 184.080 250.000,193.612 247.330,200.500 244.058 C 203.800 242.491,208.917 240.433,211.870 239.484 C 214.824 238.535,218.087 236.913,219.120 235.880 C 220.154 234.846,221.432 234.000,221.960 234.000 C 225.515 234.000,226.498 167.191,222.976 164.964 C 221.206 163.845,222.405 163.682,211.607 166.513 M1.575 168.250 C 1.320 169.488,0.827 184.073,0.479 200.663 L -0.155 230.825 4.673 233.629 C 7.328 235.171,10.055 236.970,10.733 237.628 C 11.411 238.285,15.236 239.828,19.233 241.057 C 23.230 242.286,26.725 243.609,27.000 243.997 C 27.932 245.314,39.468 248.804,45.250 249.519 L 51.000 250.230 51.000 238.615 C 51.000 231.538,51.391 227.000,52.000 227.000 C 52.626 227.000,53.000 220.833,53.000 210.500 C 53.000 200.167,52.626 194.000,52.000 194.000 C 51.441 194.000,51.000 191.271,51.000 187.814 C 51.000 179.529,49.445 178.018,36.652 173.872 C 31.068 172.062,26.275 170.293,26.000 169.941 C 25.278 169.017,9.585 166.000,5.499 166.000 C 2.714 166.000,1.948 166.439,1.575 168.250 M91.250 167.657 C 87.813 168.472,85.000 169.513,85.000 169.972 C 85.000 170.430,81.936 171.736,78.191 172.873 C 61.066 178.075,60.589 179.903,62.657 232.340 L 63.314 249.000 66.343 249.000 C 70.729 249.000,82.005 246.062,85.500 244.009 C 87.150 243.039,90.849 241.484,93.721 240.553 C 96.775 239.562,100.406 237.394,102.471 235.329 L 106.000 231.800 106.000 199.935 C 106.000 161.866,106.947 163.938,91.250 167.657 M99.053 249.610 C 95.507 250.385,92.357 251.411,92.053 251.890 C 91.749 252.369,88.214 253.556,84.198 254.528 C 73.725 257.063,73.987 260.139,84.978 263.698 C 89.091 265.030,92.691 266.457,92.978 266.869 C 96.820 272.381,134.000 272.527,134.000 267.030 C 134.000 266.617,137.262 265.284,141.250 264.069 C 145.238 262.853,149.063 261.680,149.750 261.461 C 154.008 260.105,150.878 256.354,144.000 254.570 C 140.150 253.571,137.000 252.396,137.000 251.957 C 137.000 248.663,110.799 247.042,99.053 249.610 M57.410 269.627 C 56.369 275.177,57.514 323.077,58.707 323.845 C 59.265 324.205,60.046 326.694,60.441 329.376 C 61.180 334.384,64.509 339.000,67.383 339.000 C 68.194 339.000,69.452 339.579,70.179 340.286 C 70.905 340.993,75.550 342.905,80.500 344.536 C 85.450 346.166,89.725 347.768,90.000 348.095 C 90.851 349.107,104.664 353.000,107.405 353.000 C 109.759 353.000,110.000 352.634,110.000 349.059 C 110.000 346.891,110.450 344.840,111.000 344.500 C 111.630 344.111,112.000 332.990,112.000 314.441 C 112.000 295.480,111.644 285.000,111.000 285.000 C 110.450 285.000,109.993 284.438,109.985 283.750 C 109.951 280.970,107.945 279.912,97.949 277.397 C 92.202 275.951,87.275 274.422,87.000 274.000 C 86.348 272.998,70.477 268.000,67.948 268.000 C 66.877 268.000,66.000 267.550,66.000 267.000 C 66.000 263.667,58.074 266.091,57.410 269.627 M151.000 270.114 C 146.875 271.210,141.879 272.941,139.898 273.960 C 137.917 274.979,133.530 276.590,130.148 277.538 C 119.793 280.444,120.000 279.610,120.000 318.368 L 120.000 351.000 125.250 350.976 C 131.595 350.947,138.335 349.495,138.816 348.053 C 139.009 347.474,139.692 347.001,140.333 347.003 C 141.679 347.006,154.251 341.853,155.000 340.991 C 155.275 340.675,157.459 339.785,159.854 339.014 C 167.465 336.562,168.835 327.347,167.428 288.061 L 166.710 268.000 162.605 268.061 C 160.347 268.094,155.125 269.018,151.000 270.114 " stroke="none" fill="#000000" fill-rule="evenodd"></path></g></svg>