<svg id="svg" version="1.1" width="400" height="400" xmlns="http://www.w3.org/2000/svg" xmlns:xlink="http://www.w3.org/1999/xlink" style="display: block;"><g id="svgg"><path id="path0" d="M33.672 77.250 C 31.439 78.883,31.032 278.767,33.259 280.181 C 33.942 280.615,64.987 280.976,102.250 280.985 L 170.000 281.000 170.000 292.896 L 170.000 304.791 161.914 312.140 C 157.467 316.181,153.351 319.783,152.768 320.143 C 152.185 320.503,151.985 321.519,152.323 322.399 C 153.235 324.776,246.735 324.854,247.647 322.479 C 248.282 320.823,247.135 319.573,236.750 310.593 L 230.000 304.756 230.000 292.878 L 230.000 281.000 297.418 281.000 C 334.498 281.000,365.548 280.727,366.418 280.393 C 369.147 279.346,368.799 78.498,366.066 77.035 C 363.007 75.398,35.916 75.610,33.672 77.250 M355.000 178.000 L 355.000 265.000 200.000 265.000 L 45.000 265.000 45.000 178.000 L 45.000 91.000 200.000 91.000 L 355.000 91.000 355.000 178.000 " stroke="none" fill="#000000" fill-rule="evenodd"></path></g></svg>