<svg id="svg" version="1.1" width="400" height="400" xmlns="http://www.w3.org/2000/svg" xmlns:xlink="http://www.w3.org/1999/xlink" style="display: block;"><g id="svgg"><path id="path0" d="M187.750 0.648 C 186.787 0.922,186.000 1.533,186.000 2.006 C 186.000 2.479,185.005 3.181,183.788 3.567 C 181.739 4.217,143.000 42.129,143.000 43.483 C 143.000 44.001,145.848 47.309,148.919 50.358 C 150.039 51.470,156.448 57.879,157.919 59.358 C 159.383 60.830,163.487 64.934,164.780 66.220 C 166.082 67.513,172.853 74.285,173.783 75.223 C 174.711 76.158,179.482 80.930,180.780 82.220 C 181.332 82.768,183.407 84.758,185.392 86.642 C 187.376 88.525,189.000 90.502,189.000 91.033 C 189.000 91.565,189.900 92.000,191.000 92.000 C 192.100 92.000,193.000 91.550,193.000 91.000 C 193.000 90.417,196.333 90.000,201.000 90.000 C 205.400 90.000,209.000 90.414,209.000 90.921 C 209.000 91.427,210.462 92.162,212.249 92.555 C 214.036 92.947,216.226 94.108,217.116 95.134 C 218.006 96.160,219.051 97.000,219.439 97.000 C 220.352 97.000,223.000 99.648,223.000 100.561 C 223.000 100.949,223.916 102.060,225.035 103.030 C 226.364 104.183,227.280 106.565,227.674 109.898 C 228.007 112.704,228.666 115.000,229.139 115.000 C 229.613 115.000,230.000 117.025,230.000 119.500 C 230.000 121.975,229.550 124.000,229.000 124.000 C 228.450 124.000,228.000 125.575,228.000 127.500 C 228.000 129.425,228.435 131.000,228.967 131.000 C 229.498 131.000,231.475 132.624,233.358 134.608 C 235.242 136.593,237.232 138.668,237.780 139.220 C 239.068 140.515,243.485 144.932,244.780 146.220 C 246.080 147.511,252.489 153.920,253.780 155.220 C 255.068 156.515,259.485 160.932,260.780 162.220 C 261.332 162.768,263.295 164.718,265.142 166.554 C 266.989 168.389,269.080 170.591,269.789 171.446 C 270.805 172.670,273.298 173.000,281.539 173.000 C 287.846 173.000,292.000 173.397,292.000 174.000 C 292.000 174.550,292.900 175.000,294.000 175.000 C 295.100 175.000,296.000 175.450,296.000 176.000 C 296.000 176.550,296.900 177.000,298.000 177.000 C 299.100 177.000,300.000 177.450,300.000 178.000 C 300.000 178.550,300.606 179.000,301.347 179.000 C 303.272 179.000,307.000 182.459,307.000 184.245 C 307.000 185.075,307.675 186.315,308.500 187.000 C 309.325 187.685,310.000 189.315,310.000 190.622 C 310.000 191.930,310.450 193.000,311.000 193.000 C 311.550 193.000,312.000 194.575,312.000 196.500 C 312.000 198.425,312.450 200.000,313.000 200.000 C 313.550 200.000,314.000 200.900,314.000 202.000 C 314.000 203.100,313.550 204.000,313.000 204.000 C 312.450 204.000,312.000 205.800,312.000 208.000 C 312.000 210.200,311.550 212.000,311.000 212.000 C 310.450 212.000,310.000 212.900,310.000 214.000 C 310.000 215.100,309.580 216.000,309.067 216.000 C 308.554 216.000,307.826 216.974,307.448 218.165 C 306.768 220.307,302.666 225.000,301.474 225.000 C 301.135 225.000,300.182 225.675,299.357 226.500 C 298.532 227.325,296.791 228.000,295.488 228.000 C 294.184 228.000,292.840 228.450,292.500 229.000 C 291.742 230.227,275.000 230.347,275.000 229.125 C 275.000 228.644,273.645 227.979,271.990 227.648 C 270.334 227.317,267.433 225.573,265.544 223.773 C 263.655 221.973,261.409 219.920,260.554 219.211 C 259.699 218.501,259.000 217.039,259.000 215.961 C 259.000 214.882,258.550 214.000,258.000 214.000 C 257.450 214.000,257.000 213.325,257.000 212.500 C 257.000 211.675,256.550 211.000,256.000 211.000 C 255.407 211.000,255.000 207.333,255.000 202.000 C 255.000 196.667,255.407 193.000,256.000 193.000 C 259.172 193.000,256.651 188.071,250.239 181.734 C 248.043 179.564,244.405 175.955,242.079 173.639 C 241.451 173.012,239.938 171.480,238.718 170.234 C 237.498 168.988,235.483 166.963,234.239 165.734 C 231.515 163.042,227.920 159.474,226.361 157.916 C 225.735 157.290,224.160 155.764,222.861 154.527 C 221.563 153.289,219.825 151.295,219.000 150.096 C 218.000 148.643,216.666 148.014,215.000 148.208 L 212.500 148.500 212.242 203.773 L 211.983 259.047 214.839 259.618 C 216.410 259.932,218.326 261.109,219.097 262.232 C 219.869 263.356,221.512 265.318,222.750 266.593 C 223.988 267.867,225.000 269.380,225.000 269.955 C 225.000 270.530,225.422 271.000,225.939 271.000 C 226.455 271.000,227.181 273.025,227.552 275.500 C 227.923 277.975,228.626 280.000,229.114 280.000 C 229.601 280.000,230.000 282.025,230.000 284.500 C 230.000 286.975,229.550 289.000,229.000 289.000 C 228.450 289.000,228.000 290.069,228.000 291.375 C 228.000 296.223,226.731 299.951,224.881 300.538 C 223.846 300.866,223.000 301.774,223.000 302.556 C 223.000 304.673,219.809 308.000,217.778 308.000 C 216.800 308.000,216.000 308.450,216.000 309.000 C 216.000 309.550,215.100 310.000,214.000 310.000 C 212.900 310.000,212.000 310.450,212.000 311.000 C 212.000 311.550,211.325 312.000,210.500 312.000 C 209.675 312.000,209.000 312.450,209.000 313.000 C 209.000 313.583,205.667 314.000,201.000 314.000 C 196.333 314.000,193.000 313.583,193.000 313.000 C 193.000 312.450,192.040 312.000,190.867 312.000 C 189.694 312.000,188.007 311.172,187.117 310.160 C 186.228 309.148,184.292 308.022,182.817 307.658 C 181.341 307.293,179.848 306.096,179.499 304.998 C 179.151 303.899,178.446 303.000,177.933 303.000 C 177.420 303.000,177.000 302.325,177.000 301.500 C 177.000 300.675,176.550 300.000,176.000 300.000 C 175.450 300.000,175.000 299.137,175.000 298.083 C 175.000 297.029,174.438 295.979,173.750 295.749 C 172.853 295.450,172.500 292.276,172.500 284.499 C 172.500 276.722,172.853 273.549,173.750 273.250 C 174.438 273.021,175.000 272.001,175.000 270.984 C 175.000 269.967,175.900 268.849,177.000 268.500 C 178.100 268.151,179.000 267.493,179.000 267.038 C 179.000 265.619,184.731 260.000,186.179 260.000 C 190.970 260.000,191.000 259.643,191.000 201.917 C 191.000 147.069,190.874 145.000,187.526 145.000 C 186.011 145.000,175.000 133.685,175.000 132.129 C 175.000 131.600,174.438 130.979,173.750 130.750 C 172.832 130.444,172.500 126.718,172.500 116.705 C 172.500 103.586,172.412 103.009,170.157 101.288 C 168.868 100.305,166.780 98.437,165.518 97.139 C 164.256 95.840,162.708 94.265,162.079 93.639 C 161.451 93.012,159.938 91.483,158.718 90.239 C 155.894 87.360,152.640 84.106,149.761 81.282 C 145.222 76.829,140.865 72.414,138.393 69.761 C 137.234 68.517,135.320 66.837,134.139 66.027 C 132.959 65.216,131.739 63.754,131.429 62.777 C 129.468 56.597,128.005 57.877,64.441 121.431 C 31.198 154.669,4.000 182.311,4.000 182.860 C 4.000 183.408,3.212 184.645,2.250 185.607 C 0.034 187.824,-0.410 211.030,1.750 211.750 C 2.438 211.979,3.000 213.013,3.000 214.048 C 3.000 215.083,4.130 216.958,5.511 218.215 C 8.560 220.990,11.970 224.358,21.734 234.239 C 22.963 235.483,24.988 237.498,26.234 238.718 C 27.480 239.938,29.012 241.451,29.639 242.079 C 31.955 244.405,35.564 248.043,37.734 250.239 C 38.963 251.483,40.988 253.498,42.234 254.718 C 43.480 255.938,45.075 257.513,45.777 258.218 C 47.897 260.345,51.367 263.843,53.734 266.239 C 54.963 267.483,56.988 269.498,58.234 270.718 C 59.480 271.938,61.075 273.513,61.777 274.218 C 63.897 276.345,67.367 279.843,69.734 282.239 C 70.963 283.483,72.988 285.498,74.234 286.718 C 75.480 287.938,77.012 289.451,77.639 290.079 C 79.955 292.405,83.564 296.043,85.734 298.239 C 86.963 299.483,88.988 301.498,90.234 302.718 C 91.480 303.938,93.012 305.451,93.639 306.079 C 95.955 308.405,99.564 312.043,101.734 314.239 C 102.963 315.483,104.988 317.498,106.234 318.718 C 107.480 319.938,109.075 321.513,109.777 322.218 C 111.897 324.345,115.367 327.843,117.734 330.239 C 118.963 331.483,120.988 333.498,122.234 334.718 C 123.480 335.938,125.012 337.451,125.639 338.079 C 127.955 340.405,131.564 344.043,133.734 346.239 C 134.963 347.483,136.988 349.498,138.234 350.718 C 139.480 351.938,141.012 353.451,141.639 354.079 C 143.955 356.405,147.564 360.043,149.734 362.239 C 150.963 363.483,152.988 365.498,154.234 366.718 C 155.480 367.938,157.012 369.451,157.639 370.079 C 159.955 372.405,163.564 376.043,165.734 378.239 C 166.963 379.483,168.988 381.498,170.234 382.718 C 171.480 383.938,173.012 385.451,173.639 386.079 C 178.382 390.842,179.774 392.279,181.785 394.489 C 183.042 395.870,184.917 397.000,185.952 397.000 C 186.987 397.000,188.021 397.562,188.250 398.250 C 188.551 399.152,191.822 399.500,200.000 399.500 C 208.178 399.500,211.449 399.152,211.750 398.250 C 211.979 397.562,213.013 397.000,214.048 397.000 C 215.083 397.000,216.958 395.870,218.215 394.489 C 220.961 391.471,224.461 387.928,234.239 378.266 C 235.483 377.037,237.498 375.012,238.718 373.766 C 241.507 370.917,242.917 369.507,245.766 366.718 C 247.012 365.498,249.037 363.483,250.266 362.239 C 256.399 356.032,260.032 352.399,266.239 346.266 C 267.483 345.037,269.498 343.012,270.718 341.766 C 271.938 340.520,273.513 338.925,274.218 338.223 C 276.345 336.103,279.843 332.633,282.239 330.266 C 283.483 329.037,285.498 327.012,286.718 325.766 C 287.938 324.520,289.451 322.988,290.079 322.361 C 292.405 320.045,296.043 316.436,298.239 314.266 C 299.483 313.037,301.498 311.012,302.718 309.766 C 303.938 308.520,305.388 307.050,305.941 306.500 C 308.663 303.790,312.205 300.275,314.239 298.266 C 315.483 297.037,317.498 295.012,318.718 293.766 C 319.938 292.520,321.513 290.925,322.218 290.223 C 324.345 288.103,327.843 284.633,330.239 282.266 C 331.483 281.037,333.498 279.012,334.718 277.766 C 335.938 276.520,337.388 275.050,337.941 274.500 C 340.663 271.790,344.205 268.275,346.239 266.266 C 347.483 265.037,349.498 263.012,350.718 261.766 C 351.938 260.520,353.513 258.925,354.218 258.223 C 356.345 256.103,359.843 252.633,362.239 250.266 C 363.483 249.037,365.498 247.012,366.718 245.766 C 367.938 244.520,369.513 242.925,370.218 242.223 C 372.345 240.103,375.843 236.633,378.239 234.266 C 379.483 233.037,381.498 231.012,382.718 229.766 C 383.938 228.520,385.388 227.050,385.941 226.500 C 390.888 221.575,392.303 220.205,394.489 218.215 C 395.870 216.958,397.000 215.083,397.000 214.048 C 397.000 213.013,397.562 211.979,398.250 211.750 C 399.152 211.449,399.500 208.178,399.500 200.000 C 399.500 191.822,399.152 188.551,398.250 188.250 C 397.562 188.021,397.000 186.987,397.000 185.952 C 397.000 184.917,395.870 183.042,394.489 181.785 C 392.303 179.795,390.888 178.425,385.941 173.500 C 385.388 172.950,383.938 171.483,382.718 170.239 C 379.894 167.360,376.640 164.106,373.761 161.282 C 372.517 160.062,370.988 158.549,370.361 157.921 C 368.045 155.595,364.436 151.957,362.266 149.761 C 361.037 148.517,359.012 146.502,357.766 145.282 C 356.520 144.062,354.988 142.549,354.361 141.921 C 352.045 139.595,348.436 135.957,346.266 133.761 C 345.037 132.517,343.012 130.502,341.766 129.282 C 338.917 126.493,337.507 125.083,334.718 122.234 C 333.498 120.988,331.483 118.963,330.239 117.734 C 323.970 111.539,320.461 108.030,314.266 101.761 C 313.037 100.517,311.012 98.502,309.766 97.282 C 308.520 96.062,307.050 94.612,306.500 94.059 C 303.790 91.337,300.275 87.795,298.266 85.761 C 297.037 84.517,295.012 82.502,293.766 81.282 C 292.520 80.062,290.925 78.487,290.223 77.782 C 288.103 75.655,284.633 72.157,282.266 69.761 C 281.037 68.517,279.012 66.502,277.766 65.282 C 276.520 64.062,274.988 62.549,274.361 61.921 C 272.045 59.595,268.436 55.957,266.266 53.761 C 265.037 52.517,263.012 50.502,261.766 49.282 C 260.520 48.062,258.925 46.487,258.223 45.782 C 256.103 43.655,252.633 40.157,250.266 37.761 C 249.037 36.517,247.012 34.502,245.766 33.282 C 242.917 30.493,241.507 29.083,238.718 26.234 C 237.498 24.988,235.483 22.963,234.239 21.734 C 224.503 12.114,220.949 8.516,218.215 5.511 C 216.958 4.130,215.083 3.000,214.048 3.000 C 213.013 3.000,211.980 2.438,211.751 1.750 C 211.329 0.479,191.532 -0.431,187.750 0.648 " stroke="none" fill="#000000" fill-rule="evenodd"></path></g></svg>