<svg id="svg" version="1.1" width="400" height="400" xmlns="http://www.w3.org/2000/svg" xmlns:xlink="http://www.w3.org/1999/xlink" style="display: block;"><g id="svgg"><path id="path0" d="M172.000 25.000 C 172.000 25.556,169.333 26.000,166.000 26.000 C 162.700 26.000,160.000 26.402,160.000 26.894 C 160.000 27.385,155.950 28.108,151.000 28.500 C 146.050 28.892,142.000 29.615,142.000 30.106 C 142.000 30.598,140.875 31.000,139.500 31.000 C 137.667 31.000,137.000 31.533,137.000 33.000 C 137.000 34.556,136.333 35.000,134.000 35.000 C 132.350 35.000,131.000 35.408,131.000 35.906 C 131.000 36.405,128.750 37.122,126.000 37.500 C 123.250 37.878,121.000 38.595,121.000 39.094 C 121.000 39.592,120.100 40.000,119.000 40.000 C 117.900 40.000,117.000 40.450,117.000 41.000 C 117.000 41.550,115.875 42.000,114.500 42.000 C 112.667 42.000,112.000 42.533,112.000 44.000 C 112.000 45.309,111.333 46.000,110.071 46.000 C 109.011 46.000,107.468 46.675,106.643 47.500 C 105.818 48.325,104.211 49.000,103.071 49.000 C 101.932 49.000,101.000 49.450,101.000 50.000 C 101.000 50.550,100.109 51.000,99.019 51.000 C 97.740 51.000,96.816 51.886,96.411 53.500 C 95.949 55.341,95.117 56.000,93.259 56.000 C 90.978 56.000,87.000 59.205,87.000 61.042 C 87.000 61.446,85.405 62.077,83.455 62.443 C 80.876 62.926,79.639 63.819,78.916 65.720 C 78.370 67.156,76.928 69.149,75.712 70.147 C 74.495 71.146,72.956 72.421,72.292 72.981 C 71.628 73.542,70.615 74.000,70.042 74.000 C 69.469 74.000,69.000 74.900,69.000 76.000 C 69.000 77.100,68.570 78.000,68.045 78.000 C 66.805 78.000,62.000 82.805,62.000 84.045 C 62.000 84.570,61.100 85.000,60.000 85.000 C 58.889 85.000,58.000 85.667,58.000 86.500 C 58.000 87.325,57.550 88.000,57.000 88.000 C 56.450 88.000,56.000 88.707,56.000 89.571 C 56.000 90.436,55.438 91.770,54.750 92.537 C 51.782 95.846,51.000 96.977,51.000 97.958 C 51.000 98.531,50.100 99.000,49.000 99.000 C 47.656 99.000,47.000 99.667,47.000 101.031 C 47.000 102.149,46.325 103.322,45.500 103.638 C 44.645 103.966,44.000 105.458,44.000 107.107 C 44.000 108.698,43.550 110.000,43.000 110.000 C 42.450 110.000,42.000 110.675,42.000 111.500 C 42.000 112.325,41.550 113.000,41.000 113.000 C 40.450 113.000,40.000 113.900,40.000 115.000 C 40.000 116.111,39.333 117.000,38.500 117.000 C 37.667 117.000,37.000 117.889,37.000 119.000 C 37.000 120.100,36.550 121.000,36.000 121.000 C 35.450 121.000,35.000 121.675,35.000 122.500 C 35.000 123.325,34.550 124.000,34.000 124.000 C 33.450 124.000,33.000 124.900,33.000 126.000 C 33.000 127.100,32.550 128.000,32.000 128.000 C 31.450 128.000,31.000 129.575,31.000 131.500 C 31.000 133.425,30.550 135.000,30.000 135.000 C 29.450 135.000,29.000 135.675,29.000 136.500 C 29.000 137.325,28.325 138.000,27.500 138.000 C 26.417 138.000,26.000 139.111,26.000 142.000 C 26.000 144.200,25.550 146.000,25.000 146.000 C 24.450 146.000,24.000 147.537,24.000 149.417 C 24.000 151.296,23.560 152.983,23.023 153.167 C 22.485 153.350,21.744 157.438,21.375 162.250 C 21.007 167.062,20.321 171.000,19.852 171.000 C 19.384 171.000,19.000 174.825,19.000 179.500 C 19.000 187.333,18.843 188.000,17.000 188.000 C 15.086 188.000,15.000 188.667,15.000 203.500 C 15.000 218.333,15.086 219.000,17.000 219.000 C 18.833 219.000,19.000 219.667,19.000 227.000 C 19.000 231.400,19.385 235.000,19.857 235.000 C 20.328 235.000,21.025 239.162,21.406 244.250 C 21.788 249.338,22.527 253.650,23.050 253.833 C 23.572 254.017,24.000 255.929,24.000 258.083 C 24.000 260.238,24.450 262.000,25.000 262.000 C 25.550 262.000,26.000 263.125,26.000 264.500 C 26.000 266.056,26.567 267.000,27.500 267.000 C 28.433 267.000,29.000 267.944,29.000 269.500 C 29.000 270.875,29.450 272.000,30.000 272.000 C 30.550 272.000,31.000 272.900,31.000 274.000 C 31.000 275.100,31.450 276.000,32.000 276.000 C 32.550 276.000,33.000 277.575,33.000 279.500 C 33.000 281.425,33.450 283.000,34.000 283.000 C 34.550 283.000,35.000 283.891,35.000 284.981 C 35.000 286.260,35.886 287.184,37.500 287.589 C 39.446 288.078,40.000 288.858,40.000 291.108 C 40.000 292.699,40.450 294.000,41.000 294.000 C 41.550 294.000,42.000 294.576,42.000 295.279 C 42.000 295.983,42.900 297.207,44.000 298.000 C 45.100 298.793,46.000 300.205,46.000 301.139 C 46.000 304.166,47.172 306.000,49.107 306.000 C 50.333 306.000,51.000 306.704,51.000 308.000 C 51.000 309.100,51.441 310.000,51.981 310.000 C 52.520 310.000,53.244 311.125,53.589 312.500 C 53.934 313.875,54.618 315.000,55.108 315.000 C 55.599 315.000,56.000 315.707,56.000 316.571 C 56.000 318.575,58.093 320.679,60.559 321.154 C 61.614 321.357,62.648 322.411,62.857 323.497 C 63.066 324.583,64.196 326.257,65.369 327.217 C 66.541 328.177,68.044 329.421,68.708 329.981 C 69.372 330.542,70.192 331.000,70.529 331.000 C 71.714 331.000,74.000 333.873,74.000 335.361 C 74.000 336.188,74.877 337.144,75.949 337.484 C 77.021 337.824,78.176 338.979,78.516 340.051 C 78.912 341.299,80.035 342.000,81.639 342.000 C 84.129 342.000,87.000 344.022,87.000 345.776 C 87.000 347.769,90.872 351.000,93.260 351.000 C 94.649 351.000,96.045 351.675,96.362 352.500 C 96.678 353.325,97.851 354.000,98.969 354.000 C 100.333 354.000,101.000 354.656,101.000 356.000 C 101.000 357.415,101.667 358.000,103.279 358.000 C 104.533 358.000,106.197 358.886,106.977 359.968 C 107.825 361.145,110.127 362.196,112.698 362.582 C 115.064 362.937,117.000 363.626,117.000 364.114 C 117.000 364.601,117.900 365.000,119.000 365.000 C 120.333 365.000,121.000 365.667,121.000 367.000 C 121.000 368.610,121.667 369.000,124.417 369.000 C 126.296 369.000,127.998 369.494,128.199 370.098 C 128.401 370.702,130.688 371.436,133.283 371.728 C 135.877 372.021,138.000 372.652,138.000 373.130 C 138.000 373.609,140.695 374.000,143.989 374.000 C 154.111 374.000,154.000 374.268,154.000 349.778 L 154.000 329.000 148.000 329.000 C 144.667 329.000,142.000 329.444,142.000 330.000 C 142.000 330.571,139.000 331.000,135.000 331.000 C 131.150 331.000,128.000 330.615,128.000 330.144 C 128.000 329.674,124.521 329.026,120.270 328.704 C 116.018 328.383,112.381 327.643,112.187 327.060 C 111.992 326.477,111.164 326.000,110.345 326.000 C 108.618 326.000,106.000 323.633,106.000 322.071 C 106.000 321.482,104.875 321.000,103.500 321.000 C 101.912 321.000,101.000 320.436,101.000 319.455 C 101.000 318.605,99.875 316.784,98.500 315.409 C 97.125 314.034,96.000 311.805,96.000 310.455 C 96.000 308.667,95.457 308.000,94.000 308.000 C 92.533 308.000,92.000 307.333,92.000 305.500 C 92.000 304.125,91.550 303.000,91.000 303.000 C 90.450 303.000,90.000 301.854,90.000 300.452 C 90.000 299.019,88.906 296.891,87.500 295.588 C 86.052 294.246,85.000 292.162,85.000 290.635 C 85.000 288.699,84.488 288.000,83.071 288.000 C 82.011 288.000,80.468 287.325,79.643 286.500 C 78.818 285.675,77.760 285.000,77.292 285.000 C 76.824 285.000,75.793 284.100,75.000 283.000 C 74.207 281.900,72.983 281.000,72.279 281.000 C 71.576 281.000,71.000 280.363,71.000 279.583 C 71.000 278.804,70.442 277.981,69.759 277.753 C 68.856 277.452,68.973 276.884,70.188 275.670 C 72.006 273.851,76.000 273.391,76.000 275.000 C 76.000 275.550,76.675 276.000,77.500 276.000 C 78.548 276.000,79.000 277.056,79.000 279.500 C 79.000 282.333,79.381 283.000,81.000 283.000 C 82.100 283.000,83.000 283.450,83.000 284.000 C 83.000 286.614,87.078 284.860,87.650 282.000 C 88.323 278.633,90.000 277.919,90.000 281.000 C 90.000 282.100,89.580 283.000,89.067 283.000 C 87.765 283.000,86.827 286.387,87.584 288.359 C 88.495 290.733,95.685 290.643,96.311 288.250 C 96.746 286.583,96.774 286.583,96.884 288.250 C 96.948 289.212,97.450 290.000,98.000 290.000 C 98.550 290.000,99.000 290.450,99.000 291.000 C 99.000 291.550,98.325 292.000,97.500 292.000 C 95.942 292.000,95.421 296.327,96.607 299.418 C 97.748 302.391,102.987 301.445,103.079 298.250 C 103.125 296.631,103.395 296.117,103.735 297.000 C 104.053 297.825,105.143 299.228,106.157 300.117 C 108.531 302.200,108.488 303.000,106.000 303.000 C 103.558 303.000,103.158 308.300,105.429 310.571 C 108.167 313.310,112.000 312.393,112.000 309.000 C 112.000 305.640,113.322 305.179,115.813 307.670 C 117.027 308.884,117.144 309.452,116.241 309.753 C 114.541 310.320,114.673 315.816,116.429 317.571 C 119.487 320.630,124.000 319.395,124.000 315.500 L 124.000 312.000 134.250 312.079 C 139.887 312.122,143.938 312.385,143.250 312.662 C 139.293 314.259,143.460 319.000,148.822 319.000 C 153.421 319.000,154.293 317.684,153.399 312.092 C 152.964 309.375,153.239 307.903,154.400 306.743 C 155.343 305.800,156.000 303.471,156.000 301.071 C 156.000 297.667,156.327 297.000,158.000 297.000 C 159.111 297.000,160.000 296.333,160.000 295.500 C 160.000 294.675,160.450 294.000,161.000 294.000 C 161.550 294.000,162.000 292.636,162.000 290.969 C 162.000 289.197,162.623 287.698,163.500 287.362 C 166.245 286.308,165.410 281.000,162.500 281.000 C 160.944 281.000,160.000 280.433,160.000 279.500 C 160.000 278.348,158.722 278.000,154.500 278.000 C 151.475 278.000,149.000 277.550,149.000 277.000 C 149.000 276.450,146.975 276.000,144.500 276.000 C 142.025 276.000,140.000 275.550,140.000 275.000 C 140.000 274.450,138.425 274.000,136.500 274.000 C 134.575 274.000,133.000 273.582,133.000 273.072 C 133.000 272.562,130.525 271.835,127.500 271.457 C 123.022 270.897,122.000 270.419,122.000 268.885 C 122.000 267.848,121.424 267.000,120.721 267.000 C 120.017 267.000,118.793 266.100,118.000 265.000 C 117.207 263.900,115.602 263.000,114.432 263.000 C 112.040 263.000,108.000 259.898,108.000 258.061 C 108.000 256.415,105.858 254.407,103.203 253.565 C 101.934 253.162,101.000 252.046,101.000 250.933 C 101.000 249.870,100.550 249.000,100.000 249.000 C 99.450 249.000,99.000 248.325,99.000 247.500 C 99.000 246.675,98.600 246.000,98.111 246.000 C 97.623 246.000,96.918 244.375,96.545 242.389 C 96.100 240.014,95.206 238.605,93.934 238.272 C 92.704 237.951,92.000 236.899,92.000 235.383 C 92.000 234.073,91.550 233.000,91.000 233.000 C 90.450 233.000,90.000 231.912,90.000 230.583 C 90.000 229.254,89.530 228.010,88.955 227.818 C 88.333 227.611,87.664 221.705,87.301 213.235 C 86.967 205.406,86.312 199.000,85.846 199.000 C 85.381 199.000,85.000 196.975,85.000 194.500 C 85.000 192.025,85.386 190.000,85.857 190.000 C 86.328 190.000,87.029 185.388,87.414 179.750 C 87.799 174.113,88.539 169.350,89.057 169.167 C 89.576 168.983,90.000 167.971,90.000 166.917 C 90.000 165.862,90.450 165.000,91.000 165.000 C 91.550 165.000,92.000 163.875,92.000 162.500 C 92.000 160.667,92.533 160.000,94.000 160.000 C 95.309 160.000,96.000 159.333,96.000 158.071 C 96.000 157.011,96.675 155.468,97.500 154.643 C 98.325 153.818,99.000 152.661,99.000 152.071 C 99.000 151.482,99.450 151.000,100.000 151.000 C 100.550 151.000,101.000 150.100,101.000 149.000 C 101.000 147.900,101.450 147.000,102.000 147.000 C 102.550 147.000,103.000 145.875,103.000 144.500 C 103.000 143.125,102.550 142.000,102.000 142.000 C 101.450 142.000,101.000 139.525,101.000 136.500 C 101.000 133.475,100.550 131.000,100.000 131.000 C 99.450 131.000,99.000 128.975,99.000 126.500 C 99.000 124.025,99.450 122.000,100.000 122.000 C 100.571 122.000,101.000 119.000,101.000 115.000 C 101.000 111.000,101.429 108.000,102.000 108.000 C 102.550 108.000,103.000 106.875,103.000 105.500 C 103.000 103.944,103.567 103.000,104.500 103.000 C 105.325 103.000,106.000 102.550,106.000 102.000 C 106.000 101.450,108.475 101.000,111.500 101.000 C 114.525 101.000,117.000 101.394,117.000 101.876 C 117.000 102.358,119.565 102.965,122.700 103.225 C 125.834 103.485,128.572 104.216,128.783 104.849 C 128.994 105.482,130.029 106.000,131.083 106.000 C 132.138 106.000,133.000 106.450,133.000 107.000 C 133.000 107.550,134.125 108.000,135.500 108.000 C 137.295 108.000,138.000 108.539,138.000 109.912 C 138.000 111.382,138.982 111.990,142.245 112.541 C 144.579 112.936,147.220 114.100,148.112 115.129 C 149.903 117.194,163.000 117.960,163.000 116.000 C 163.000 115.436,165.833 115.000,169.500 115.000 C 173.167 115.000,176.000 114.564,176.000 114.000 C 176.000 113.362,184.333 113.000,199.000 113.000 C 213.667 113.000,222.000 113.362,222.000 114.000 C 222.000 114.564,224.833 115.000,228.500 115.000 C 232.167 115.000,235.000 115.436,235.000 116.000 C 235.000 116.556,237.667 117.000,241.000 117.000 C 244.333 117.000,247.000 116.556,247.000 116.000 C 247.000 115.450,247.900 115.000,249.000 115.000 C 250.100 115.000,251.000 114.601,251.000 114.114 C 251.000 113.626,253.025 112.923,255.500 112.552 C 258.549 112.095,260.000 111.390,260.000 110.367 C 260.000 107.953,262.613 106.000,265.845 106.000 C 267.489 106.000,268.998 105.506,269.199 104.902 C 269.401 104.298,271.688 103.564,274.283 103.272 C 276.877 102.979,279.000 102.348,279.000 101.870 C 279.000 101.391,281.925 101.000,285.500 101.000 C 290.611 101.000,292.000 101.321,292.000 102.500 C 292.000 103.325,292.858 104.000,293.907 104.000 C 296.428 104.000,297.553 117.633,296.542 135.919 C 295.937 146.869,296.062 148.919,297.418 150.275 C 298.288 151.145,299.000 152.339,299.000 152.929 C 299.000 153.518,299.450 154.000,300.000 154.000 C 300.550 154.000,301.000 154.900,301.000 156.000 C 301.000 157.100,301.450 158.000,302.000 158.000 C 302.550 158.000,303.000 158.900,303.000 160.000 C 303.000 161.111,303.667 162.000,304.500 162.000 C 305.433 162.000,306.000 162.944,306.000 164.500 C 306.000 165.875,306.450 167.000,307.000 167.000 C 307.550 167.000,308.000 167.900,308.000 169.000 C 308.000 170.100,308.450 171.000,309.000 171.000 C 309.550 171.000,310.000 172.800,310.000 175.000 C 310.000 177.200,310.450 179.000,311.000 179.000 C 311.626 179.000,312.000 185.167,312.000 195.500 C 312.000 205.833,311.626 212.000,311.000 212.000 C 310.444 212.000,310.000 214.667,310.000 218.000 C 310.000 221.333,309.556 224.000,309.000 224.000 C 308.450 224.000,308.000 225.575,308.000 227.500 C 308.000 229.425,307.550 231.000,307.000 231.000 C 306.450 231.000,306.000 231.900,306.000 233.000 C 306.000 234.111,305.333 235.000,304.500 235.000 C 303.567 235.000,303.000 235.944,303.000 237.500 C 303.000 238.875,302.550 240.000,302.000 240.000 C 301.450 240.000,301.000 240.900,301.000 242.000 C 301.000 243.100,300.550 244.000,300.000 244.000 C 299.450 244.000,299.000 245.125,299.000 246.500 C 299.000 247.875,298.580 249.000,298.067 249.000 C 297.554 249.000,296.849 249.900,296.500 251.000 C 296.151 252.100,295.064 253.000,294.086 253.000 C 291.549 253.000,288.436 256.030,287.633 259.280 C 287.128 261.328,286.163 262.217,283.973 262.655 C 282.338 262.982,281.000 263.644,281.000 264.125 C 281.000 264.606,280.325 265.000,279.500 265.000 C 278.675 265.000,278.000 265.450,278.000 266.000 C 278.000 266.550,277.100 267.000,276.000 267.000 C 274.707 267.000,274.000 267.667,274.000 268.886 C 274.000 270.356,273.005 270.922,269.500 271.448 C 267.025 271.819,265.000 272.545,265.000 273.061 C 265.000 273.578,263.425 274.000,261.500 274.000 C 259.575 274.000,258.000 274.450,258.000 275.000 C 258.000 275.550,255.975 276.000,253.500 276.000 C 251.025 276.000,249.000 276.450,249.000 277.000 C 249.000 277.556,246.333 278.000,243.000 278.000 C 238.333 278.000,237.000 278.333,237.000 279.500 C 237.000 280.500,236.000 281.000,234.000 281.000 C 230.412 281.000,229.864 283.740,233.000 286.000 C 234.100 286.793,235.000 288.017,235.000 288.721 C 235.000 289.424,235.450 290.000,236.000 290.000 C 236.550 290.000,237.006 291.012,237.014 292.250 C 237.039 296.480,238.198 299.000,240.117 299.000 C 241.925 299.000,242.000 300.389,242.000 334.000 C 242.000 356.667,242.352 369.000,243.000 369.000 C 243.550 369.000,244.000 369.482,244.000 370.071 C 244.000 372.740,247.024 374.000,253.429 374.000 C 257.143 374.000,260.000 373.565,260.000 373.000 C 260.000 372.450,261.462 371.997,263.250 371.994 C 265.038 371.990,267.789 371.315,269.364 370.494 C 270.940 369.672,273.077 369.000,274.114 369.000 C 275.333 369.000,276.000 368.293,276.000 367.000 C 276.000 365.889,276.667 365.000,277.500 365.000 C 278.325 365.000,279.000 364.578,279.000 364.061 C 279.000 363.545,281.025 362.819,283.500 362.448 C 285.975 362.077,288.000 361.374,288.000 360.886 C 288.000 360.399,288.900 360.000,290.000 360.000 C 291.100 360.000,292.000 359.550,292.000 359.000 C 292.000 358.450,293.125 358.000,294.500 358.000 C 296.344 358.000,297.000 357.468,297.000 355.975 C 297.000 354.529,297.850 353.780,299.970 353.356 C 301.644 353.021,303.201 351.941,303.538 350.881 C 303.866 349.846,305.004 349.000,306.067 349.000 C 307.130 349.000,308.000 348.550,308.000 348.000 C 308.000 347.450,308.900 347.000,310.000 347.000 C 311.100 347.000,312.000 346.394,312.000 345.653 C 312.000 343.668,315.483 340.000,317.367 340.000 C 318.265 340.000,319.000 339.599,319.000 339.108 C 319.000 338.618,320.125 337.934,321.500 337.589 C 322.875 337.244,324.000 336.263,324.000 335.410 C 324.000 333.865,326.274 331.000,327.500 331.000 C 327.854 331.000,328.731 330.438,329.449 329.750 C 330.167 329.063,331.710 327.838,332.877 327.029 C 334.045 326.220,335.000 324.758,335.000 323.779 C 335.000 322.801,335.450 322.000,336.000 322.000 C 336.550 322.000,337.000 321.325,337.000 320.500 C 337.000 319.675,337.470 319.000,338.045 319.000 C 339.845 319.000,343.591 314.600,345.527 310.211 C 346.723 307.501,348.029 306.000,349.192 306.000 C 350.454 306.000,351.000 305.245,351.000 303.500 C 351.000 302.125,351.420 301.000,351.933 301.000 C 352.446 301.000,353.185 299.988,353.576 298.750 C 353.966 297.512,355.122 295.772,356.143 294.883 C 357.164 293.993,358.000 292.081,358.000 290.633 C 358.000 288.721,358.516 288.000,359.883 288.000 C 361.802 288.000,362.961 285.480,362.986 281.250 C 362.994 280.012,363.450 279.000,364.000 279.000 C 364.550 279.000,365.000 278.325,365.000 277.500 C 365.000 276.675,365.450 276.000,366.000 276.000 C 366.550 276.000,367.000 274.425,367.000 272.500 C 367.000 270.575,367.450 269.000,368.000 269.000 C 368.550 269.000,369.000 268.100,369.000 267.000 C 369.000 265.889,369.667 265.000,370.500 265.000 C 371.611 265.000,372.000 263.833,372.000 260.500 C 372.000 258.025,372.450 256.000,373.000 256.000 C 373.550 256.000,374.000 254.875,374.000 253.500 C 374.000 252.125,374.450 251.000,375.000 251.000 C 375.550 251.000,376.000 249.013,376.000 246.583 C 376.000 243.939,376.502 241.999,377.250 241.750 C 378.221 241.426,378.500 232.878,378.500 203.500 C 378.500 174.122,378.221 165.574,377.250 165.250 C 376.502 165.001,376.000 163.061,376.000 160.417 C 376.000 157.988,375.550 156.000,375.000 156.000 C 374.450 156.000,374.000 153.975,374.000 151.500 C 374.000 149.025,373.550 147.000,373.000 147.000 C 372.450 147.000,372.000 145.875,372.000 144.500 C 372.000 142.944,371.433 142.000,370.500 142.000 C 369.567 142.000,369.000 141.056,369.000 139.500 C 369.000 138.125,368.550 137.000,368.000 137.000 C 367.450 137.000,367.000 135.650,367.000 134.000 C 367.000 132.350,366.550 131.000,366.000 131.000 C 365.450 131.000,365.000 129.875,365.000 128.500 C 365.000 127.125,364.578 126.000,364.061 126.000 C 363.545 126.000,362.819 123.975,362.448 121.500 C 361.922 117.995,361.356 117.000,359.886 117.000 C 358.689 117.000,358.000 116.295,358.000 115.067 C 358.000 114.004,357.100 112.849,356.000 112.500 C 354.614 112.060,354.000 110.987,354.000 109.004 C 354.000 107.430,353.325 105.468,352.500 104.643 C 351.675 103.818,351.000 102.661,351.000 102.071 C 351.000 101.482,350.148 101.000,349.107 101.000 C 347.229 101.000,346.000 99.175,346.000 96.385 C 346.000 94.733,339.603 88.000,338.033 88.000 C 337.465 88.000,337.000 87.056,337.000 85.901 C 337.000 83.874,331.717 78.000,329.894 78.000 C 329.402 78.000,329.000 77.100,329.000 76.000 C 329.000 74.889,328.333 74.000,327.500 74.000 C 326.675 74.000,326.000 73.580,326.000 73.067 C 326.000 72.554,325.123 71.856,324.051 71.516 C 322.979 71.176,321.824 70.021,321.484 68.949 C 321.056 67.601,319.961 67.000,317.933 67.000 C 316.023 67.000,315.000 66.489,315.000 65.534 C 315.000 63.094,309.289 58.000,306.553 58.000 C 304.704 58.000,303.872 57.338,303.411 55.500 C 303.055 54.081,302.061 53.000,301.112 53.000 C 300.193 53.000,298.793 52.100,298.000 51.000 C 297.207 49.900,295.533 49.000,294.279 49.000 C 293.026 49.000,292.000 48.581,292.000 48.070 C 292.000 47.558,290.988 46.995,289.750 46.820 C 288.304 46.614,287.386 45.696,287.180 44.250 C 286.932 42.501,286.208 42.000,283.930 42.000 C 282.319 42.000,281.000 41.550,281.000 41.000 C 281.000 40.450,279.875 40.000,278.500 40.000 C 277.125 40.000,276.000 39.601,276.000 39.114 C 276.000 38.626,273.975 37.923,271.500 37.552 C 269.025 37.181,267.000 36.455,267.000 35.939 C 267.000 35.422,265.425 35.000,263.500 35.000 C 260.667 35.000,260.000 34.619,260.000 33.000 C 260.000 31.444,259.333 31.000,257.000 31.000 C 255.350 31.000,254.000 30.581,254.000 30.069 C 254.000 29.557,250.400 28.823,246.000 28.440 C 241.600 28.056,238.000 27.350,238.000 26.871 C 238.000 26.392,235.300 26.000,232.000 26.000 C 228.667 26.000,226.000 25.556,226.000 25.000 C 226.000 24.358,216.333 24.000,199.000 24.000 C 181.667 24.000,172.000 24.358,172.000 25.000 M129.667 313.667 C 128.517 314.816,128.939 318.081,130.429 319.571 C 133.839 322.982,140.000 320.407,140.000 315.571 C 140.000 313.029,131.814 311.520,129.667 313.667 " stroke="none" fill="#000000" fill-rule="evenodd"></path></g></svg>