<svg id="svg" version="1.1" width="400" height="400" xmlns="http://www.w3.org/2000/svg" xmlns:xlink="http://www.w3.org/1999/xlink" style="display: block;"><g id="svgg"><path id="path0" d="M234.500 45.459 C 220.931 47.598,210.433 51.039,194.500 58.569 C 188.473 61.418,172.955 75.593,168.176 82.615 C 166.711 84.768,164.984 85.903,162.579 86.293 C 156.495 87.281,151.953 90.143,143.103 98.564 C 134.583 106.672,134.394 106.785,127.478 107.858 C 87.184 114.110,55.921 133.148,40.214 161.000 C 36.770 167.107,32.284 171.832,33.466 168.107 C 34.980 163.335,34.284 151.877,32.315 149.160 C 30.451 146.589,30.445 146.350,32.139 142.000 C 34.483 135.982,34.477 135.960,30.750 136.662 C 10.408 140.492,-6.348 164.569,2.757 176.885 C 3.905 178.438,5.324 181.462,5.910 183.604 C 8.433 192.828,14.206 197.991,22.000 197.995 L 26.500 197.997 26.189 212.249 C 26.017 220.087,26.302 229.183,26.820 232.462 C 27.339 235.741,27.416 239.341,26.991 240.462 C 23.545 249.551,21.930 251.935,14.021 259.602 L 5.500 267.863 5.630 273.435 C 5.751 278.625,6.544 281.762,9.311 288.000 C 14.777 300.326,33.304 314.000,44.538 314.000 C 48.576 314.000,48.649 314.321,46.000 320.500 C 40.115 334.230,46.224 340.217,73.000 346.960 C 74.925 347.445,78.352 348.327,80.616 348.921 C 86.746 350.528,102.524 350.297,105.901 348.551 C 110.929 345.951,112.913 340.781,113.507 328.731 C 113.678 325.259,114.669 322.539,117.151 318.731 C 121.949 311.368,123.000 308.575,122.998 303.203 L 122.996 298.500 132.673 298.823 L 142.350 299.145 139.425 301.480 C 128.152 310.477,149.576 350.749,167.816 354.847 C 175.860 356.655,187.737 352.190,191.500 345.945 C 197.370 336.203,210.461 326.636,216.133 327.944 C 222.999 329.527,254.388 329.282,258.380 327.615 C 265.241 324.748,268.611 311.530,264.494 303.636 C 263.428 301.591,263.000 297.559,263.000 289.551 C 263.000 277.303,262.043 273.287,255.461 257.909 L 251.877 249.536 254.689 252.018 C 256.235 253.383,258.850 255.885,260.500 257.578 C 279.503 277.075,306.839 270.109,314.659 243.776 C 316.007 239.238,316.320 238.905,318.809 239.371 C 353.513 245.873,382.564 230.133,394.242 198.500 C 405.797 167.198,398.632 106.999,382.110 96.569 C 373.553 91.168,367.182 92.264,360.990 100.202 C 358.717 103.116,356.102 106.458,355.179 107.628 C 353.558 109.683,347.222 113.989,345.809 113.996 C 345.428 113.998,343.704 111.349,341.978 108.109 C 337.427 99.571,330.787 92.581,320.936 85.957 C 316.175 82.755,311.650 79.543,310.882 78.818 C 310.115 78.093,306.789 75.251,303.493 72.502 C 300.197 69.753,296.037 66.192,294.249 64.590 C 283.027 54.534,267.312 46.979,253.678 45.086 C 244.582 43.823,244.919 43.817,234.500 45.459 M261.500 55.700 C 269.947 58.289,280.793 64.250,286.608 69.500 C 288.049 70.802,302.765 83.235,306.000 85.886 L 308.500 87.933 306.000 87.982 C 300.309 88.093,300.525 89.969,306.231 89.985 C 315.705 90.010,324.244 96.342,331.750 108.910 C 336.864 117.472,336.836 117.247,332.556 115.459 C 328.930 113.944,328.069 114.070,321.261 117.108 C 318.929 118.149,316.117 119.000,315.011 119.000 C 313.905 119.000,313.000 119.450,313.000 120.000 C 313.000 120.550,314.350 121.000,316.000 121.000 C 318.889 121.000,319.000 121.167,319.000 125.500 C 319.000 127.975,319.373 130.000,319.829 130.000 C 320.286 130.000,320.623 129.046,320.579 127.881 C 320.470 124.952,323.336 123.204,325.416 124.930 C 327.306 126.499,327.509 128.989,325.750 129.026 C 325.063 129.041,322.700 129.868,320.500 130.865 L 316.500 132.677 325.373 132.589 C 332.512 132.517,334.449 132.816,335.282 134.114 C 336.687 136.302,335.385 139.785,333.767 138.167 C 327.926 132.326,313.720 139.624,309.763 150.500 C 308.362 154.350,306.866 158.361,306.438 159.414 C 304.768 163.522,308.009 159.763,311.040 154.076 C 314.642 147.319,318.177 143.713,322.664 142.218 L 325.829 141.164 323.554 144.516 C 321.942 146.891,320.932 150.586,320.090 157.184 C 319.436 162.308,318.662 167.625,318.369 169.000 C 317.321 173.935,319.956 168.711,322.153 161.500 C 325.766 149.638,330.525 143.000,335.414 143.000 C 338.582 143.000,338.601 160.244,335.447 172.199 C 333.867 178.190,334.160 179.211,336.455 175.709 C 340.789 169.095,343.337 153.946,342.686 138.670 C 342.184 126.913,342.279 125.899,343.819 126.559 C 356.269 131.888,369.952 124.058,376.035 108.124 L 377.706 103.747 380.192 107.124 C 384.994 113.644,389.267 131.294,390.858 151.184 C 393.377 182.667,384.136 208.454,365.516 221.907 C 357.634 227.601,352.921 229.450,342.038 231.116 C 327.515 233.339,299.668 227.657,283.588 219.191 C 280.790 217.717,278.252 216.389,277.950 216.239 C 277.647 216.089,277.367 219.687,277.326 224.233 C 277.282 229.233,276.610 234.229,275.626 236.876 C 270.475 250.735,280.462 262.096,292.000 255.500 C 294.392 254.133,294.255 254.069,288.861 254.035 C 284.705 254.009,282.601 253.473,280.861 251.995 L 278.500 249.989 281.315 250.995 C 292.294 254.916,300.666 250.318,303.085 239.038 C 304.124 234.196,305.918 233.069,308.763 235.470 C 309.529 236.118,305.310 246.992,303.124 250.000 C 296.472 259.156,285.018 262.601,276.194 258.099 C 272.714 256.324,254.903 241.514,254.167 239.783 C 253.983 239.352,253.178 239.000,252.378 239.000 C 250.302 239.000,235.246 232.101,230.500 228.975 C 223.792 224.557,223.666 224.507,224.872 226.762 C 226.566 229.927,236.084 238.061,240.750 240.331 C 243.088 241.468,245.000 242.956,245.000 243.637 C 245.000 248.842,235.555 279.181,231.656 286.500 C 228.258 292.879,216.934 310.357,215.134 312.000 C 212.702 314.221,199.331 324.881,192.916 329.714 C 189.840 332.031,186.062 335.745,184.522 337.968 C 175.050 351.637,163.643 347.076,151.625 324.816 C 145.232 312.975,144.906 308.299,150.311 305.955 C 152.614 304.955,153.856 304.211,160.664 299.750 C 165.745 296.420,166.325 296.382,168.326 299.250 C 169.785 301.342,169.899 300.525,169.948 287.583 C 169.976 279.929,169.830 273.854,169.623 274.083 C 169.416 274.313,168.237 277.517,167.004 281.204 L 164.761 287.908 159.334 289.035 C 153.394 290.268,128.550 290.569,122.738 289.479 C 119.241 288.823,119.057 288.577,118.010 283.148 C 115.870 272.050,115.548 272.719,114.949 289.500 L 114.342 306.500 109.313 314.764 C 104.897 322.021,104.206 323.908,103.635 330.264 C 102.681 340.890,98.679 342.989,85.193 339.938 C 73.866 337.376,71.199 336.666,66.218 334.889 C 55.268 330.982,53.895 328.839,56.842 320.253 C 58.788 314.583,60.120 309.150,61.888 299.677 C 62.744 295.093,62.595 294.546,58.892 288.677 C 48.354 271.977,39.311 250.051,36.057 233.317 C 26.823 185.820,56.057 138.313,103.500 123.717 C 125.169 117.050,127.744 117.200,121.260 124.750 C 118.544 127.913,115.462 131.550,114.411 132.834 C 113.360 134.118,111.457 136.368,110.183 137.834 C 99.499 150.127,88.000 172.173,88.000 180.361 C 88.000 183.691,92.120 192.678,95.125 195.904 C 102.821 204.165,108.810 216.521,107.177 220.769 C 102.407 233.180,104.307 238.168,117.312 247.362 C 131.114 257.121,138.544 256.548,164.244 243.741 C 184.511 233.641,187.344 232.536,195.663 231.487 C 201.389 230.765,201.461 230.670,204.520 219.773 C 207.878 207.814,207.896 188.485,204.564 172.500 C 202.442 162.319,201.186 152.877,200.400 141.197 C 200.019 135.530,199.344 131.256,198.901 131.699 C 195.866 134.734,195.304 167.008,198.095 178.000 C 202.358 194.788,197.888 225.000,191.142 225.000 C 184.692 225.000,174.250 229.320,152.889 240.824 C 137.541 249.090,127.191 247.702,116.580 235.957 C 110.277 228.981,112.344 222.410,130.485 191.750 C 133.984 185.838,136.535 181.000,136.155 181.000 C 135.358 181.000,121.021 198.217,116.351 204.783 C 113.322 209.041,113.173 209.120,112.460 206.855 C 112.052 205.560,109.870 201.897,107.609 198.717 C 105.349 195.536,102.037 190.872,100.250 188.354 C 95.748 182.010,95.885 176.927,100.816 167.327 C 107.535 154.245,110.730 149.599,120.659 138.470 C 126.072 132.403,132.750 124.772,135.500 121.513 C 155.475 97.838,159.618 94.896,177.000 92.047 C 199.045 88.432,210.894 85.165,197.494 86.396 C 175.355 88.430,175.836 88.470,178.750 84.847 C 196.922 62.256,236.923 48.166,261.500 55.700 M249.940 102.878 C 238.949 107.179,235.000 111.924,235.000 120.827 C 235.000 127.404,236.298 128.075,237.843 122.296 C 239.843 114.820,244.208 109.492,252.946 103.864 C 257.962 100.632,256.720 100.225,249.940 102.878 M194.500 102.637 C 192.850 102.823,186.775 103.484,181.000 104.105 C 162.873 106.056,158.379 111.549,150.062 141.930 C 148.023 149.375,147.999 152.764,150.021 147.444 C 151.372 143.891,156.203 133.434,160.266 125.269 C 161.971 121.842,164.825 117.623,166.609 115.894 L 169.852 112.751 168.421 116.905 C 167.439 119.754,167.200 122.847,167.658 126.747 C 168.354 132.673,168.437 132.617,171.006 124.500 C 173.137 117.770,179.728 109.212,183.355 108.465 C 187.907 107.528,194.807 105.173,197.859 103.515 C 200.493 102.084,200.170 101.999,194.500 102.637 M374.846 102.884 C 380.496 106.465,356.712 126.670,347.846 125.821 C 342.957 125.352,343.944 123.848,351.123 120.824 C 354.745 119.299,358.770 116.691,360.488 114.758 C 362.144 112.893,365.351 109.260,367.614 106.684 C 371.879 101.827,372.590 101.454,374.846 102.884 M279.768 124.565 C 279.458 124.876,276.345 125.783,272.852 126.581 C 263.774 128.655,261.576 129.717,257.828 133.839 C 251.074 141.265,245.842 148.000,246.826 148.000 C 248.302 148.000,253.986 144.630,253.994 143.750 C 253.997 143.338,254.450 143.000,255.000 143.000 C 255.550 143.000,256.000 143.494,256.000 144.099 C 256.000 145.898,259.158 152.000,260.089 152.000 C 260.563 152.000,260.695 150.724,260.383 149.164 C 259.406 144.280,265.558 140.602,267.851 144.699 C 268.589 146.017,268.027 147.173,265.347 149.853 C 261.728 153.472,258.660 158.528,259.189 159.999 C 259.360 160.474,262.240 158.265,265.590 155.089 C 271.759 149.242,283.193 142.295,290.500 139.954 C 295.642 138.307,293.622 137.615,287.121 138.796 C 282.211 139.689,282.072 139.647,281.145 136.986 C 280.623 135.488,278.919 133.078,277.358 131.631 C 275.797 130.184,275.009 129.000,275.607 129.000 C 277.008 129.000,281.476 125.143,280.827 124.494 C 280.555 124.222,280.079 124.254,279.768 124.565 M21.076 151.736 C 20.586 153.443,19.863 158.282,19.469 162.490 C 18.914 168.408,18.213 170.781,16.376 172.965 C 13.417 176.482,13.422 176.685,16.613 181.380 C 19.584 185.753,22.686 185.929,29.956 182.140 L 33.699 180.189 32.451 183.821 C 28.894 194.168,16.071 192.715,12.565 181.569 C 11.641 178.629,10.250 175.386,9.474 174.362 C 5.722 169.408,8.324 160.557,15.468 153.973 C 17.540 152.063,19.745 149.983,20.368 149.351 C 21.960 147.734,22.094 148.185,21.076 151.736 M28.000 154.618 C 28.000 155.443,27.550 155.840,27.000 155.500 C 26.450 155.160,26.000 154.207,26.000 153.382 C 26.000 152.557,26.450 152.160,27.000 152.500 C 27.550 152.840,28.000 153.793,28.000 154.618 M31.839 171.406 C 31.653 171.544,29.883 172.859,27.906 174.328 C 23.356 177.710,22.598 177.693,24.341 174.250 C 25.106 172.738,26.049 169.754,26.436 167.620 L 27.139 163.741 29.659 167.448 C 31.044 169.487,32.025 171.268,31.839 171.406 M274.256 208.975 C 268.668 210.301,265.841 215.765,266.068 224.799 L 266.135 227.500 267.164 225.000 C 271.371 214.769,271.886 214.090,277.722 211.078 C 283.833 207.924,282.384 207.045,274.256 208.975 M36.456 261.000 C 39.761 269.797,47.171 284.733,51.181 290.680 C 54.335 295.357,54.506 296.460,52.604 299.890 C 46.047 311.721,18.747 294.027,16.328 276.377 L 15.718 271.926 23.859 263.585 C 28.337 258.998,32.000 254.424,32.000 253.422 C 32.000 250.502,33.418 252.914,36.456 261.000 M251.290 272.000 C 253.332 277.951,253.978 282.172,254.420 292.439 C 254.727 299.555,255.433 305.833,255.989 306.389 C 258.101 308.501,257.154 315.937,254.424 318.667 L 251.848 321.243 237.174 320.761 C 218.109 320.135,217.952 320.062,222.782 314.142 C 232.822 301.838,241.131 285.012,246.217 266.688 C 247.519 261.994,248.048 262.548,251.290 272.000 " stroke="none" fill="#000000" fill-rule="evenodd"></path></g></svg>