<svg id="svg" version="1.1" width="400" height="400" xmlns="http://www.w3.org/2000/svg" xmlns:xlink="http://www.w3.org/1999/xlink" style="display: block;"><g id="svgg"><path id="path0" d="M171.513 0.743 C 169.320 0.966,167.070 1.516,166.513 1.963 C 165.956 2.411,162.236 3.099,158.246 3.491 C 154.256 3.883,150.768 4.566,150.495 5.008 C 150.221 5.451,147.749 6.122,145.000 6.500 C 142.251 6.878,139.750 7.595,139.442 8.094 C 139.134 8.592,137.559 9.000,135.941 9.000 C 134.323 9.000,132.996 9.338,132.992 9.750 C 132.984 10.566,128.250 12.979,126.551 13.034 C 125.973 13.053,123.700 13.937,121.500 15.000 C 119.300 16.063,116.938 16.947,116.250 16.966 C 115.563 16.985,115.000 17.450,115.000 18.000 C 115.000 18.550,114.190 19.000,113.200 19.000 C 112.210 19.000,110.972 19.408,110.450 19.906 C 109.551 20.762,106.741 22.379,97.506 27.350 C 95.309 28.532,93.059 29.846,92.506 30.268 C 89.406 32.635,75.986 42.314,72.990 44.344 C 63.903 50.501,44.882 72.433,36.430 86.500 C 7.397 134.821,5.225 197.513,30.852 247.500 C 33.672 253.000,36.996 259.114,38.239 261.086 C 42.448 267.762,45.818 272.675,47.162 274.092 C 47.898 274.868,50.199 277.616,52.274 280.200 C 57.392 286.568,68.540 297.733,74.015 301.974 C 76.482 303.885,78.725 305.718,79.000 306.047 C 83.022 310.863,108.742 324.653,127.500 332.050 C 130.861 333.376,145.097 336.754,152.500 337.983 C 156.350 338.622,161.938 339.563,164.917 340.073 C 185.769 343.642,221.995 338.311,247.025 327.990 L 254.362 324.964 258.431 328.923 C 264.500 334.827,264.534 334.861,277.900 348.420 C 284.720 355.339,290.683 361.000,291.150 361.000 C 291.618 361.000,292.000 361.348,292.000 361.774 C 292.000 362.199,294.363 364.857,297.250 367.681 C 303.885 374.169,304.922 375.206,317.844 388.284 C 324.769 395.292,329.129 398.968,330.295 398.784 C 333.380 398.296,369.000 361.940,369.000 359.279 C 369.000 357.617,364.448 352.411,352.916 340.885 L 336.831 324.809 339.166 322.163 C 340.449 320.708,341.728 319.288,342.006 319.009 C 360.240 300.687,378.707 265.990,385.483 237.324 C 386.370 233.571,387.306 229.600,387.563 228.500 C 391.819 210.312,391.763 172.665,387.454 154.000 C 387.137 152.625,386.404 149.475,385.825 147.000 C 376.585 107.451,343.531 56.931,314.837 38.500 C 310.384 35.639,307.102 33.306,303.401 30.368 C 301.147 28.578,298.110 26.815,296.651 26.449 C 295.193 26.083,294.000 25.412,294.000 24.959 C 294.000 24.506,292.988 23.819,291.750 23.433 C 290.512 23.046,289.275 22.432,289.000 22.068 C 288.544 21.464,281.979 18.262,273.000 14.264 C 271.075 13.407,268.719 12.322,267.764 11.853 C 266.809 11.384,265.121 11.000,264.014 11.000 C 262.906 11.000,262.000 10.550,262.000 10.000 C 262.000 9.450,260.875 9.000,259.500 9.000 C 258.125 9.000,257.000 8.608,257.000 8.129 C 257.000 7.650,254.663 6.948,251.807 6.569 C 248.952 6.190,246.139 5.570,245.557 5.190 C 244.594 4.561,239.340 3.555,224.000 1.063 C 218.598 0.185,179.334 -0.055,171.513 0.743 M219.000 6.492 C 225.325 7.304,231.400 8.179,232.500 8.437 C 233.600 8.694,237.650 9.646,241.500 10.552 C 264.995 16.079,307.576 36.559,315.000 45.903 C 315.275 46.249,317.075 47.819,319.000 49.392 C 324.608 53.974,334.260 63.254,337.338 67.024 C 338.899 68.936,341.490 72.075,343.095 74.000 C 344.700 75.925,347.131 78.846,348.496 80.491 C 349.861 82.136,351.995 85.511,353.239 87.991 C 354.482 90.471,356.054 92.855,356.731 93.289 C 358.667 94.530,363.000 102.456,363.000 104.757 C 363.000 107.329,366.124 112.985,367.549 112.994 C 368.126 112.997,369.199 114.688,369.934 116.750 C 370.668 118.813,372.071 122.300,373.051 124.500 C 376.280 131.749,379.000 140.581,379.000 143.817 C 379.000 145.567,379.399 147.000,379.887 147.000 C 380.374 147.000,381.005 148.238,381.289 149.750 C 383.728 162.748,384.266 166.008,384.549 169.500 C 384.727 171.700,385.159 177.100,385.508 181.500 C 385.857 185.900,385.656 194.900,385.062 201.500 C 384.467 208.100,383.944 214.175,383.899 215.000 C 383.689 218.825,381.780 229.706,381.003 231.500 C 380.527 232.600,379.869 235.525,379.541 238.000 C 378.873 243.037,377.266 247.932,374.713 252.700 C 373.771 254.461,373.000 256.846,373.000 258.002 C 373.000 260.040,367.458 271.880,363.172 279.000 C 362.013 280.925,359.853 284.863,358.370 287.750 C 356.888 290.637,355.275 293.000,354.786 293.000 C 354.296 293.000,353.422 294.359,352.843 296.021 C 352.264 297.683,350.938 299.498,349.898 300.055 C 348.858 300.611,347.096 302.852,345.983 305.033 C 344.870 307.215,343.631 309.019,343.230 309.042 C 342.828 309.065,340.700 311.524,338.500 314.506 C 336.300 317.488,333.943 320.153,333.262 320.428 C 331.841 321.002,323.000 313.027,323.000 311.170 C 323.000 310.492,322.212 309.651,321.250 309.302 C 320.288 308.953,315.736 304.914,311.135 300.328 L 302.771 291.989 305.370 288.581 C 306.800 286.707,308.539 284.561,309.235 283.812 C 312.228 280.591,317.066 273.948,318.148 271.574 C 318.793 270.158,319.622 269.000,319.990 269.000 C 320.357 269.000,321.712 266.750,323.000 264.000 C 324.288 261.250,325.605 259.000,325.927 259.000 C 326.428 259.000,329.284 253.459,329.535 252.000 C 329.583 251.725,330.382 249.758,331.311 247.628 C 332.240 245.498,333.000 243.136,333.000 242.378 C 333.000 241.620,333.356 241.000,333.791 241.000 C 335.837 241.000,341.848 212.715,342.679 199.177 C 343.341 188.398,341.332 160.323,339.833 159.397 C 339.375 159.114,339.000 158.092,339.000 157.125 C 339.000 154.558,332.478 134.858,330.058 130.113 C 328.917 127.878,328.060 125.700,328.153 125.274 C 328.453 123.905,326.081 119.000,325.120 119.000 C 324.608 119.000,322.938 116.863,321.408 114.250 C 314.747 102.880,299.941 85.729,290.773 78.765 C 288.793 77.261,286.532 75.389,285.748 74.605 C 284.965 73.822,281.888 71.693,278.912 69.876 C 275.935 68.058,272.832 65.919,272.016 65.123 C 271.200 64.327,268.050 62.587,265.016 61.258 C 256.412 57.487,255.000 56.722,255.000 55.831 C 255.000 55.374,253.671 55.000,252.047 55.000 C 250.423 55.000,247.835 54.494,246.297 53.875 C 244.759 53.257,242.600 52.403,241.500 51.977 C 223.650 45.070,186.859 43.800,165.500 49.354 C 160.000 50.785,154.375 52.234,153.000 52.575 C 151.625 52.916,148.250 54.211,145.500 55.452 C 142.750 56.693,138.813 58.019,136.750 58.399 C 134.688 58.780,133.000 59.490,133.000 59.978 C 133.000 60.466,132.022 61.176,130.827 61.555 C 129.632 61.934,128.169 62.656,127.577 63.160 C 126.985 63.663,122.751 66.524,118.169 69.517 C 105.061 78.081,85.000 95.921,85.000 99.014 C 85.000 99.557,84.325 100.000,83.500 100.000 C 82.675 100.000,82.000 100.643,82.000 101.429 C 82.000 102.214,81.437 103.452,80.750 104.179 C 80.063 104.905,78.484 107.525,77.242 110.000 C 75.999 112.475,73.888 116.300,72.550 118.500 C 71.211 120.700,69.816 123.850,69.449 125.500 C 69.083 127.150,67.964 130.075,66.964 132.000 C 65.162 135.468,64.787 136.810,62.906 146.500 C 58.273 170.379,59.350 190.308,66.419 211.500 C 69.191 219.812,78.379 238.909,81.009 241.826 C 81.839 242.747,84.060 245.525,85.945 248.000 C 90.667 254.201,102.913 266.156,108.431 269.952 C 110.944 271.681,113.000 273.524,113.000 274.048 C 113.000 274.572,113.639 275.000,114.420 275.000 C 116.643 275.000,126.917 281.324,127.490 283.044 C 127.809 284.003,130.372 285.078,134.252 285.881 C 137.688 286.592,141.625 287.556,143.000 288.024 C 168.052 296.544,215.886 294.400,229.414 284.150 C 230.011 283.697,233.088 282.301,236.250 281.047 C 239.412 279.794,242.000 278.370,242.000 277.884 C 242.000 277.398,242.505 277.000,243.123 277.000 C 244.538 277.000,255.209 269.416,260.500 264.649 C 265.783 259.891,264.229 259.053,280.850 275.616 L 295.517 290.233 292.197 293.753 C 288.654 297.509,282.533 302.000,280.956 302.000 C 280.430 302.000,280.000 302.403,280.000 302.896 C 280.000 303.665,274.791 307.359,267.540 311.730 C 212.804 344.727,143.729 343.136,91.000 307.664 C 86.875 304.889,82.905 302.030,82.179 301.310 C 81.452 300.589,80.478 300.000,80.015 300.000 C 76.124 300.000,50.251 270.525,41.671 256.317 C 3.489 193.096,14.308 103.309,65.505 58.500 C 68.647 55.750,72.181 52.587,73.359 51.472 C 107.604 19.029,168.988 0.072,219.000 6.492 M215.199 97.020 C 227.036 99.341,238.319 102.973,241.105 105.357 C 242.160 106.261,243.425 107.000,243.917 107.000 C 246.021 107.000,253.458 111.723,255.334 114.250 C 256.457 115.763,257.910 117.000,258.562 117.000 C 259.715 117.000,267.000 123.154,267.000 124.128 C 267.000 124.395,269.078 126.838,271.619 129.557 C 274.159 132.275,277.448 136.989,278.927 140.031 C 280.406 143.073,282.560 146.898,283.715 148.531 C 292.293 160.666,295.915 197.540,289.998 212.500 C 289.562 213.600,288.205 217.425,286.981 221.000 C 285.757 224.575,283.910 228.305,282.878 229.289 C 281.845 230.273,280.995 231.848,280.989 232.789 C 280.976 234.864,272.830 246.730,270.111 248.635 C 267.436 250.508,258.000 245.555,258.000 242.278 C 258.000 241.575,257.498 241.000,256.884 241.000 C 255.686 241.000,248.000 232.998,248.000 231.750 C 248.000 231.338,247.538 231.000,246.974 231.000 C 246.409 231.000,243.926 228.978,241.455 226.507 L 236.962 222.015 239.545 218.111 C 254.659 195.273,247.812 163.085,224.750 148.560 C 221.588 146.568,219.000 144.593,219.000 144.170 C 219.000 141.165,192.454 139.736,184.883 142.335 C 174.659 145.844,163.099 152.496,163.037 154.906 C 162.970 157.481,168.036 162.981,197.624 192.447 C 213.781 208.538,227.000 222.273,227.000 222.970 C 227.000 224.444,221.626 229.352,218.000 231.188 C 216.625 231.885,213.824 233.475,211.777 234.723 C 196.779 243.860,160.914 243.491,150.525 234.094 C 149.411 233.087,147.215 231.958,145.644 231.586 C 144.018 231.200,142.569 230.068,142.278 228.954 C 141.997 227.880,140.986 227.000,140.032 227.000 C 135.979 227.000,120.000 208.203,120.000 203.436 C 120.000 202.214,119.413 200.989,118.695 200.713 C 117.977 200.438,116.806 198.252,116.091 195.856 C 115.376 193.460,114.362 190.408,113.836 189.072 C 110.549 180.720,113.274 154.147,118.241 146.110 C 119.468 144.124,120.371 142.275,120.248 142.000 C 119.310 139.907,129.152 126.000,131.572 126.000 C 132.357 126.000,133.000 125.459,133.000 124.799 C 133.000 123.353,141.659 115.000,143.157 115.000 C 143.737 115.000,145.042 113.945,146.057 112.655 C 147.072 111.365,150.062 109.504,152.701 108.521 C 155.340 107.537,158.400 105.968,159.500 105.033 C 161.811 103.068,175.744 98.646,184.500 97.099 C 187.800 96.516,191.400 95.857,192.500 95.635 C 197.398 94.648,205.677 95.153,215.199 97.020 " stroke="none" fill="#000000" fill-rule="evenodd"></path></g></svg>