<svg id="svg" version="1.1" width="400" height="400" xmlns="http://www.w3.org/2000/svg" xmlns:xlink="http://www.w3.org/1999/xlink" style="display: block;"><g id="svgg"><path id="path0" d="M19.655 151.658 C 19.295 159.170,19.000 171.545,19.000 179.158 C 19.000 192.333,18.904 193.000,17.000 193.000 C 15.068 193.000,15.000 193.667,15.000 212.500 C 15.000 224.833,14.632 232.000,14.000 232.000 C 13.373 232.000,13.000 238.333,13.000 249.000 L 13.000 266.000 29.000 266.000 L 45.000 266.000 45.000 257.000 C 45.000 251.667,45.407 248.000,46.000 248.000 C 46.609 248.000,47.000 243.500,47.000 236.500 C 47.000 225.931,47.152 225.000,48.871 225.000 C 50.415 225.000,50.860 226.047,51.420 231.000 C 51.794 234.300,52.527 237.000,53.050 237.000 C 53.572 237.000,54.000 238.575,54.000 240.500 C 54.000 243.333,54.381 244.000,56.000 244.000 C 57.667 244.000,58.000 244.667,58.000 248.000 C 58.000 250.200,58.392 252.000,58.871 252.000 C 59.350 252.000,60.047 254.700,60.420 258.000 C 60.992 263.050,61.408 264.000,63.050 264.000 C 64.122 264.000,65.000 264.450,65.000 265.000 C 65.000 265.622,70.667 266.000,80.000 266.000 C 94.333 266.000,95.000 265.911,95.000 264.000 C 95.000 262.702,95.667 262.000,96.899 262.000 C 98.515 262.000,98.901 260.962,99.500 255.000 C 99.887 251.150,100.607 248.000,101.101 248.000 C 101.596 248.000,102.000 246.425,102.000 244.500 C 102.000 241.667,102.381 241.000,104.000 241.000 C 105.619 241.000,106.000 240.333,106.000 237.500 C 106.000 235.575,106.404 234.000,106.899 234.000 C 107.393 234.000,108.113 230.850,108.500 227.000 C 109.764 214.416,111.000 219.608,111.000 237.500 C 111.000 248.500,111.371 255.000,112.000 255.000 C 112.550 255.000,113.000 257.475,113.000 260.500 L 113.000 266.000 129.000 266.000 L 145.000 266.000 145.000 250.000 C 145.000 235.017,144.881 234.000,143.123 234.000 C 141.333 234.000,141.213 232.226,140.506 195.500 C 140.099 174.325,139.369 157.000,138.883 157.000 C 138.397 157.000,138.000 152.725,138.000 147.500 L 138.000 138.000 121.000 138.000 L 104.000 138.000 104.000 140.500 C 104.000 142.289,103.460 143.000,102.101 143.000 C 100.485 143.000,100.099 144.038,99.500 150.000 C 99.113 153.850,98.393 157.000,97.899 157.000 C 97.404 157.000,97.000 158.575,97.000 160.500 C 97.000 163.244,96.599 164.000,95.142 164.000 C 93.600 164.000,93.174 165.061,92.633 170.250 C 92.274 173.688,91.535 176.650,90.990 176.833 C 90.446 177.017,90.000 178.704,90.000 180.583 C 90.000 182.463,89.550 184.000,89.000 184.000 C 88.450 184.000,88.000 185.125,88.000 186.500 C 88.000 188.296,87.461 189.000,86.085 189.000 C 84.432 189.000,84.075 190.023,83.468 196.500 C 83.081 200.625,82.368 204.000,81.883 204.000 C 81.397 204.000,81.000 205.575,81.000 207.500 C 81.000 214.826,77.392 210.170,76.481 201.669 C 75.880 196.057,75.468 195.000,73.884 195.000 C 72.457 195.000,72.000 194.271,72.000 192.000 C 72.000 190.350,71.550 189.000,71.000 189.000 C 70.450 189.000,70.000 187.875,70.000 186.500 C 70.000 185.125,69.596 184.000,69.101 184.000 C 68.607 184.000,67.887 180.850,67.500 177.000 C 66.901 171.038,66.515 170.000,64.899 170.000 C 63.395 170.000,63.000 169.271,63.000 166.500 C 63.000 164.575,62.602 163.000,62.116 163.000 C 61.631 163.000,60.920 160.075,60.537 156.500 C 59.948 150.998,59.546 150.000,57.920 150.000 C 56.392 150.000,56.000 149.285,56.000 146.500 C 56.000 144.575,55.550 143.000,55.000 143.000 C 54.450 143.000,54.000 141.875,54.000 140.500 L 54.000 138.000 37.155 138.000 L 20.310 138.000 19.655 151.658 M173.000 177.000 C 173.000 211.000,172.808 216.000,171.500 216.000 C 170.207 216.000,170.000 219.444,170.000 241.000 L 170.000 266.000 194.000 266.000 C 209.333 266.000,218.000 265.639,218.000 265.000 C 218.000 264.450,220.250 264.000,223.000 264.000 C 225.750 264.000,228.000 263.550,228.000 263.000 C 228.000 262.450,228.900 262.000,230.000 262.000 C 231.111 262.000,232.000 261.333,232.000 260.500 C 232.000 259.567,232.944 259.000,234.500 259.000 C 235.875 259.000,237.000 258.550,237.000 258.000 C 237.000 257.450,237.900 257.000,239.000 257.000 C 240.100 257.000,241.000 256.550,241.000 256.000 C 241.000 255.450,241.675 255.000,242.500 255.000 C 243.325 255.000,244.000 254.325,244.000 253.500 C 244.000 252.667,244.889 252.000,246.000 252.000 C 247.100 252.000,248.000 251.550,248.000 251.000 C 248.000 250.450,248.911 250.000,250.025 250.000 C 251.475 250.000,252.220 249.148,252.650 247.000 C 252.980 245.350,253.644 244.000,254.125 244.000 C 254.606 244.000,255.000 243.325,255.000 242.500 C 255.000 241.675,255.450 241.000,256.000 241.000 C 256.550 241.000,257.000 240.100,257.000 239.000 C 257.000 237.889,257.667 237.000,258.500 237.000 C 259.325 237.000,260.000 236.325,260.000 235.500 C 260.000 234.675,260.450 234.000,261.000 234.000 C 261.550 234.000,262.000 232.650,262.000 231.000 C 262.000 229.350,262.450 228.000,263.000 228.000 C 263.550 228.000,264.000 226.425,264.000 224.500 C 264.000 221.761,264.402 221.000,265.850 221.000 C 269.762 221.000,269.754 181.271,265.841 180.248 C 264.829 179.983,264.000 179.144,264.000 178.383 C 264.000 177.623,263.550 177.000,263.000 177.000 C 262.450 177.000,262.000 175.425,262.000 173.500 C 262.000 171.575,261.550 170.000,261.000 170.000 C 260.450 170.000,260.000 169.100,260.000 168.000 C 260.000 166.889,259.333 166.000,258.500 166.000 C 257.675 166.000,257.000 165.490,257.000 164.867 C 257.000 164.244,256.153 163.000,255.119 162.103 C 254.084 161.206,253.066 159.583,252.857 158.497 C 252.648 157.411,251.614 156.357,250.559 156.154 C 248.304 155.719,246.000 153.621,246.000 152.000 C 246.000 149.833,243.299 148.167,238.656 147.471 C 235.007 146.924,234.000 146.365,234.000 144.886 C 234.000 143.694,233.295 143.000,232.083 143.000 C 231.029 143.000,230.017 142.553,229.833 142.006 C 229.650 141.460,225.338 140.717,220.250 140.356 C 215.162 139.996,211.000 139.318,211.000 138.850 C 211.000 138.383,202.450 138.000,192.000 138.000 L 173.000 138.000 173.000 177.000 M292.000 202.000 L 292.000 266.000 320.000 266.000 C 338.000 266.000,348.000 265.643,348.000 265.000 C 348.000 264.450,349.800 264.000,352.000 264.000 C 354.200 264.000,356.000 263.550,356.000 263.000 C 356.000 262.450,357.350 262.000,359.000 262.000 C 361.000 262.000,362.000 261.500,362.000 260.500 C 362.000 259.656,362.894 259.000,364.045 259.000 C 366.174 259.000,371.000 254.868,371.000 253.045 C 371.000 252.470,371.470 252.000,372.045 252.000 C 373.868 252.000,378.000 247.174,378.000 245.045 C 378.000 243.920,378.450 243.000,379.000 243.000 C 379.550 243.000,380.000 241.650,380.000 240.000 C 380.000 238.000,380.500 237.000,381.500 237.000 C 382.756 237.000,383.000 234.889,383.000 224.000 C 383.000 213.111,382.756 211.000,381.500 211.000 C 380.452 211.000,380.000 209.944,380.000 207.500 C 380.000 205.575,379.550 204.000,379.000 204.000 C 378.450 204.000,378.000 203.100,378.000 202.000 C 378.000 200.900,377.550 200.000,377.000 200.000 C 376.450 200.000,376.000 199.100,376.000 198.000 C 376.000 196.900,375.550 196.000,375.000 196.000 C 374.450 196.000,374.000 195.325,374.000 194.500 C 374.000 193.675,373.325 193.000,372.500 193.000 C 371.675 193.000,371.000 192.150,371.000 191.111 C 371.000 189.745,370.033 189.041,367.500 188.566 C 363.662 187.846,361.830 180.000,365.500 180.000 C 366.728 180.000,367.000 178.278,367.000 170.500 C 367.000 162.722,366.728 161.000,365.500 161.000 C 364.452 161.000,364.000 159.944,364.000 157.500 C 364.000 155.575,363.550 154.000,363.000 154.000 C 362.450 154.000,362.000 153.293,362.000 152.429 C 362.000 150.420,359.904 148.320,357.429 147.848 C 356.343 147.640,355.360 146.501,355.180 145.240 C 354.981 143.844,354.165 143.000,353.014 143.000 C 351.998 143.000,351.014 142.543,350.828 141.985 C 350.642 141.427,347.455 140.687,343.745 140.341 C 340.035 139.994,337.000 139.326,337.000 138.855 C 337.000 138.385,326.875 138.000,314.500 138.000 L 292.000 138.000 292.000 202.000 M332.000 170.000 C 332.000 171.111,332.667 172.000,333.500 172.000 C 334.433 172.000,335.000 172.944,335.000 174.500 C 335.000 176.056,334.433 177.000,333.500 177.000 C 332.675 177.000,332.000 177.450,332.000 178.000 C 332.000 178.550,331.100 179.000,330.000 179.000 C 328.242 179.000,328.000 178.333,328.000 173.500 C 328.000 168.667,328.242 168.000,330.000 168.000 C 331.333 168.000,332.000 168.667,332.000 170.000 M220.223 174.327 C 220.634 174.972,220.976 176.259,220.985 177.187 C 220.995 178.354,222.000 178.970,224.250 179.187 C 227.108 179.462,227.538 179.892,227.813 182.750 C 227.986 184.537,228.548 186.000,229.063 186.000 C 229.579 186.000,230.000 186.675,230.000 187.500 C 230.000 188.325,230.450 189.000,231.000 189.000 C 231.606 189.000,232.000 193.333,232.000 200.000 C 232.000 206.667,231.606 211.000,231.000 211.000 C 230.450 211.000,230.000 212.382,230.000 214.071 C 230.000 215.761,229.325 217.818,228.500 218.643 C 227.675 219.468,227.000 221.236,227.000 222.571 C 227.000 224.600,226.509 225.000,224.019 225.000 C 221.673 225.000,220.904 225.533,220.411 227.500 C 219.922 229.446,219.142 230.000,216.892 230.000 C 215.301 230.000,214.000 230.450,214.000 231.000 C 214.000 231.550,212.425 232.000,210.500 232.000 L 207.000 232.000 207.000 201.871 L 207.000 171.742 213.238 172.447 C 216.669 172.836,219.813 173.681,220.223 174.327 M344.624 213.482 C 345.381 214.238,346.000 215.564,346.000 216.429 C 346.000 217.293,346.675 218.000,347.500 218.000 C 348.325 218.000,349.000 218.675,349.000 219.500 C 349.000 220.325,349.450 221.000,350.000 221.000 C 350.550 221.000,351.000 221.900,351.000 223.000 C 351.000 224.100,350.550 225.000,350.000 225.000 C 349.450 225.000,349.000 226.125,349.000 227.500 C 349.000 229.056,348.433 230.000,347.500 230.000 C 346.675 230.000,346.000 230.450,346.000 231.000 C 346.000 231.550,345.100 232.000,344.000 232.000 C 342.900 232.000,342.000 232.450,342.000 233.000 C 342.000 233.571,339.000 234.000,335.000 234.000 L 328.000 234.000 328.000 222.362 L 328.000 210.724 335.624 211.415 C 339.893 211.802,343.854 212.711,344.624 213.482 " stroke="none" fill="#000000" fill-rule="evenodd"></path></g></svg>