<svg id="svg" version="1.1" width="400" height="400" xmlns="http://www.w3.org/2000/svg" xmlns:xlink="http://www.w3.org/1999/xlink" style="display: block;"><g id="svgg"><path id="path0" d="M11.000 17.000 C 11.000 18.100,11.450 19.000,12.000 19.000 C 12.550 19.000,13.000 19.519,13.000 20.153 C 13.000 20.788,15.250 23.686,18.000 26.594 C 20.750 29.501,23.000 32.357,23.000 32.940 C 23.000 33.523,23.565 34.000,24.256 34.000 C 24.946 34.000,26.859 35.651,28.506 37.668 C 30.153 39.686,32.585 42.274,33.912 43.418 C 35.239 44.563,37.264 46.574,38.412 47.887 C 41.719 51.668,46.431 55.990,47.250 55.995 C 47.663 55.998,48.002 56.563,48.004 57.250 C 48.008 58.553,56.633 66.000,58.138 66.000 C 58.612 66.000,59.012 66.563,59.027 67.250 C 59.056 68.599,65.550 75.975,66.763 76.038 C 67.169 76.059,69.073 78.084,70.995 80.538 C 72.918 82.992,74.812 85.000,75.205 85.000 C 75.911 85.000,77.421 86.534,84.741 94.686 C 86.809 96.988,94.237 104.765,101.250 111.968 C 108.263 119.170,114.000 125.334,114.000 125.665 C 114.000 125.996,117.532 129.694,121.848 133.884 C 126.164 138.073,129.975 142.287,130.317 143.250 C 130.658 144.213,131.527 145.000,132.248 145.000 C 132.969 145.000,134.220 145.970,135.029 147.156 C 137.105 150.199,152.975 166.000,153.955 166.000 C 154.402 166.000,155.011 166.933,155.309 168.074 C 155.607 169.215,156.785 170.393,157.926 170.691 C 159.067 170.989,160.000 171.622,160.000 172.096 C 160.000 172.571,164.725 177.713,170.500 183.523 C 176.275 189.333,181.000 194.518,181.000 195.044 C 181.000 195.570,181.666 196.000,182.481 196.000 C 183.295 196.000,185.641 198.250,187.694 201.000 C 189.748 203.751,192.231 206.256,193.214 206.568 C 194.196 206.880,195.000 207.631,195.000 208.239 C 195.000 208.846,198.134 212.415,201.964 216.170 C 205.794 219.924,209.370 223.823,209.911 224.833 C 210.451 225.843,212.489 227.756,214.440 229.085 C 216.390 230.413,217.989 231.955,217.993 232.512 C 217.997 233.069,221.938 237.390,226.750 242.114 C 231.563 246.839,236.625 252.102,238.000 253.810 C 239.375 255.518,241.063 256.934,241.750 256.958 C 242.438 256.981,243.000 257.433,243.000 257.963 C 243.000 258.492,252.639 268.730,264.419 280.713 C 291.522 308.281,299.000 316.169,299.000 317.187 C 299.000 317.634,299.675 318.000,300.500 318.000 C 301.325 318.000,302.000 318.339,302.000 318.754 C 302.000 319.388,307.791 325.983,315.826 334.500 C 324.877 344.094,338.394 347.635,340.511 340.965 C 340.854 339.884,341.701 339.000,342.393 339.000 C 348.466 339.000,350.606 324.284,345.506 317.597 C 343.997 315.619,342.397 314.000,341.949 314.000 C 341.502 314.000,335.638 308.600,328.918 302.000 C 322.198 295.400,316.370 290.000,315.966 290.000 C 315.563 290.000,313.671 288.272,311.763 286.159 C 309.855 284.047,307.323 281.639,306.138 280.809 C 302.693 278.396,293.616 270.215,283.606 260.500 C 278.505 255.550,272.453 249.925,270.156 248.000 C 267.860 246.075,264.552 243.037,262.806 241.250 C 261.060 239.463,259.265 238.000,258.816 238.000 C 257.662 238.000,254.470 234.668,253.699 232.659 C 253.343 231.730,251.959 230.555,250.624 230.047 C 249.289 229.540,247.047 227.634,245.643 225.812 C 244.238 223.990,241.720 221.600,240.047 220.500 C 238.374 219.400,237.004 217.949,237.003 217.276 C 237.001 216.602,235.762 215.405,234.250 214.615 C 232.738 213.824,228.125 209.988,224.000 206.089 C 219.875 202.190,216.357 199.000,216.183 199.000 C 216.008 199.000,214.418 197.538,212.649 195.750 C 205.769 188.800,193.131 177.000,192.567 177.000 C 191.930 177.000,186.780 172.374,178.932 164.750 C 176.243 162.137,173.583 160.000,173.021 160.000 C 172.460 160.000,172.000 159.425,172.000 158.722 C 172.000 157.442,168.573 154.000,167.299 154.000 C 166.926 154.000,164.508 151.863,161.926 149.250 C 159.343 146.637,155.411 142.925,153.187 141.000 C 150.963 139.075,147.603 136.037,145.721 134.250 C 143.838 132.463,141.893 130.989,141.399 130.976 C 140.905 130.963,139.176 129.163,137.558 126.976 C 135.940 124.789,134.218 123.000,133.731 123.000 C 132.490 123.000,127.519 117.858,126.723 115.750 C 126.360 114.788,125.452 114.000,124.706 114.000 C 123.959 114.000,122.292 112.875,121.000 111.500 C 119.708 110.125,118.055 109.000,117.326 109.000 C 116.597 109.000,116.000 108.528,116.000 107.952 C 116.000 106.644,111.101 102.256,108.750 101.459 C 107.787 101.132,107.000 100.221,107.000 99.433 C 107.000 98.645,106.631 98.000,106.179 98.000 C 105.728 98.000,102.690 95.376,99.429 92.168 C 96.168 88.960,92.713 86.050,91.750 85.699 C 90.787 85.349,89.971 84.486,89.935 83.781 C 89.899 83.077,88.532 81.375,86.898 80.000 C 85.263 78.625,81.995 75.588,79.634 73.250 C 77.274 70.912,75.000 69.000,74.582 69.000 C 73.550 69.000,69.330 65.152,58.952 54.750 C 54.151 49.938,49.965 46.000,49.650 46.000 C 49.335 46.000,47.369 44.313,45.281 42.250 C 43.193 40.188,38.389 35.800,34.605 32.500 C 30.821 29.200,26.100 25.059,24.113 23.298 C 22.126 21.536,19.375 19.512,18.000 18.799 C 16.625 18.086,15.140 16.940,14.700 16.252 C 13.447 14.291,11.000 14.786,11.000 17.000 M111.000 48.805 C 111.000 49.797,112.575 52.329,114.500 54.430 C 116.425 56.532,118.000 58.424,118.000 58.634 C 118.000 59.729,123.519 65.000,124.665 65.000 C 125.399 65.000,126.000 65.598,126.000 66.329 C 126.000 67.060,128.363 69.916,131.250 72.676 C 138.102 79.224,149.000 90.624,149.000 91.243 C 149.000 91.510,152.589 95.277,156.976 99.614 C 161.362 103.951,164.962 107.818,164.976 108.208 C 164.989 108.597,168.825 112.689,173.500 117.301 C 178.175 121.914,182.000 126.208,182.000 126.844 C 182.000 127.480,182.597 128.000,183.326 128.000 C 184.823 128.000,189.000 132.118,189.000 133.594 C 189.000 134.124,189.940 135.220,191.088 136.029 C 194.067 138.127,198.000 141.802,198.000 142.487 C 198.000 142.807,201.150 146.127,205.000 149.864 C 208.850 153.601,212.012 157.073,212.027 157.579 C 212.042 158.086,214.067 160.261,216.527 162.413 C 218.987 164.565,221.000 166.830,221.000 167.447 C 221.000 168.064,222.350 169.366,224.000 170.341 C 225.650 171.316,227.000 172.587,227.000 173.166 C 227.000 173.746,231.162 178.404,236.250 183.519 C 241.338 188.633,246.712 194.096,248.194 195.659 C 249.675 197.221,251.371 198.950,251.962 199.500 C 256.154 203.401,277.004 225.322,277.021 225.846 C 277.033 226.206,280.858 230.274,285.521 234.887 C 290.185 239.500,294.000 243.583,294.000 243.960 C 294.000 244.337,298.499 249.112,303.998 254.572 C 309.497 260.033,314.252 265.287,314.565 266.250 C 314.879 267.212,315.595 268.000,316.157 268.000 C 317.629 268.000,323.000 273.268,323.000 274.712 C 323.000 275.382,323.934 276.430,325.076 277.041 C 327.410 278.290,331.000 281.673,331.000 282.624 C 331.000 282.967,333.000 285.008,335.444 287.160 C 337.888 289.311,340.143 291.875,340.455 292.858 C 340.767 293.840,342.817 295.653,345.011 296.886 C 347.205 298.119,349.000 299.549,349.000 300.064 C 349.000 300.579,351.925 301.000,355.500 301.000 C 359.075 301.000,362.000 300.601,362.000 300.114 C 362.000 299.627,363.513 298.510,365.362 297.632 C 373.730 293.662,373.891 275.005,365.590 271.223 C 364.224 270.600,362.381 268.985,361.495 267.632 C 360.609 266.280,357.435 263.690,354.442 261.876 C 351.449 260.062,349.000 258.051,349.000 257.407 C 349.000 256.764,347.537 255.114,345.750 253.740 C 343.962 252.366,340.025 248.825,337.000 245.871 C 330.016 239.051,325.245 235.000,324.197 235.000 C 323.745 235.000,322.378 233.650,321.158 232.000 C 319.938 230.350,318.391 229.000,317.720 229.000 C 317.049 229.000,314.795 227.000,312.710 224.555 C 310.626 222.110,308.038 219.830,306.960 219.487 C 305.882 219.145,305.000 218.299,305.000 217.607 C 305.000 216.195,300.880 212.018,299.436 211.967 C 298.027 211.917,294.000 208.329,294.000 207.125 C 294.000 206.545,292.988 205.542,291.750 204.896 C 290.512 204.250,287.475 201.775,285.000 199.396 C 275.818 190.572,268.478 184.028,267.747 184.014 C 267.333 184.006,265.369 182.200,263.381 180.000 C 261.393 177.800,259.398 176.000,258.947 176.000 C 258.497 176.000,254.796 172.625,250.724 168.500 C 246.653 164.375,242.955 161.000,242.507 161.000 C 242.059 161.000,239.990 159.312,237.908 157.250 C 235.827 155.188,232.254 151.925,229.969 150.000 C 227.683 148.075,223.675 144.475,221.062 142.000 C 207.807 129.444,200.711 122.999,200.137 122.995 C 199.787 122.992,195.675 119.367,191.000 114.941 C 186.325 110.514,180.797 105.516,178.716 103.835 C 176.635 102.154,173.642 99.590,172.066 98.139 C 170.490 96.688,166.924 93.475,164.141 91.000 C 161.359 88.525,155.279 82.787,150.631 78.250 C 145.983 73.713,141.743 70.000,141.209 70.000 C 140.675 70.000,139.036 68.425,137.568 66.500 C 136.100 64.575,134.293 63.000,133.553 63.000 C 132.813 63.000,130.824 61.425,129.134 59.500 C 127.444 57.575,125.705 56.000,125.270 56.000 C 124.260 56.000,119.003 51.151,118.992 50.210 C 118.983 49.343,114.098 47.000,112.301 47.000 C 111.585 47.000,111.000 47.812,111.000 48.805 M198.000 78.398 C 198.000 79.987,202.735 85.533,215.000 98.310 C 219.675 103.180,223.645 107.803,223.823 108.583 C 224.001 109.362,224.789 110.000,225.573 110.000 C 226.358 110.000,227.002 110.338,227.004 110.750 C 227.006 111.162,229.931 114.537,233.504 118.248 C 237.077 121.960,240.000 125.447,240.000 125.998 C 240.000 126.549,240.675 127.000,241.500 127.000 C 242.325 127.000,243.000 127.394,243.000 127.875 C 243.000 128.356,251.213 137.105,261.250 147.317 C 271.288 157.528,280.498 166.922,281.718 168.192 C 285.834 172.475,286.489 173.144,291.250 177.928 C 293.863 180.553,296.000 183.180,296.000 183.766 C 296.000 184.352,297.703 186.181,299.785 187.830 C 301.866 189.478,304.192 191.991,304.954 193.414 C 305.715 194.836,306.856 196.000,307.489 196.000 C 308.122 196.000,309.959 197.681,311.570 199.736 C 313.182 201.791,321.137 210.145,329.250 218.301 C 337.363 226.457,344.000 233.467,344.000 233.878 C 344.000 234.973,349.212 239.606,351.250 240.322 C 352.212 240.660,353.000 241.525,353.000 242.243 C 353.000 248.672,370.151 255.324,373.000 250.000 C 373.589 248.900,374.721 248.000,375.516 248.000 C 378.805 248.000,378.803 233.588,375.514 231.748 C 374.549 231.208,371.901 229.033,369.630 226.914 C 367.358 224.796,361.900 219.959,357.500 216.166 C 353.100 212.373,345.900 205.831,341.500 201.629 C 337.100 197.427,332.712 193.736,331.750 193.427 C 330.788 193.118,330.000 192.221,330.000 191.433 C 330.000 190.645,329.545 190.000,328.989 190.000 C 328.432 190.000,325.458 187.637,322.378 184.750 C 312.922 175.883,307.200 170.644,303.266 167.250 C 294.138 159.373,287.033 152.904,278.577 144.769 C 273.584 139.967,268.262 135.525,266.750 134.898 C 265.238 134.271,264.000 133.137,264.000 132.379 C 264.000 131.620,263.644 131.000,263.208 131.000 C 262.773 131.000,259.285 128.048,255.458 124.439 C 251.631 120.831,245.658 115.193,242.184 111.910 C 238.711 108.627,234.098 104.770,231.934 103.338 C 229.770 101.906,228.000 100.119,228.000 99.367 C 228.000 98.615,227.500 98.000,226.889 98.000 C 226.279 98.000,222.169 94.400,217.757 90.000 C 213.345 85.600,209.368 82.000,208.919 82.000 C 208.470 82.000,206.889 80.875,205.405 79.500 C 202.479 76.787,198.000 76.121,198.000 78.398 M43.393 113.419 C 42.711 115.196,45.251 119.190,50.747 124.983 C 53.086 127.448,55.000 129.780,55.000 130.165 C 55.000 130.550,55.900 131.151,57.000 131.500 C 58.100 131.849,59.000 132.566,59.000 133.094 C 59.000 134.619,65.183 141.000,66.661 141.000 C 67.397 141.000,68.004 141.563,68.009 142.250 C 68.017 143.459,74.834 151.155,85.060 161.500 C 87.778 164.250,90.002 167.037,90.001 167.693 C 90.000 168.350,91.315 169.664,92.922 170.613 C 94.529 171.562,96.378 173.339,97.033 174.561 C 97.687 175.783,99.961 178.070,102.087 179.642 C 104.213 181.214,105.963 182.810,105.976 183.188 C 105.989 183.566,109.825 187.718,114.500 192.414 C 119.175 197.110,123.000 201.413,123.000 201.976 C 123.000 202.539,123.450 203.000,124.000 203.000 C 125.139 203.000,129.000 206.635,129.000 207.708 C 129.000 208.097,131.051 210.459,133.557 212.958 C 145.051 224.415,153.000 233.000,153.000 233.956 C 153.000 234.530,153.338 235.000,153.750 235.001 C 154.933 235.002,162.000 241.567,162.000 242.664 C 162.000 244.010,166.347 248.000,167.814 248.000 C 168.467 248.000,169.000 248.547,169.000 249.215 C 169.000 249.883,172.938 254.294,177.750 259.017 C 182.563 263.740,189.200 270.677,192.500 274.434 C 198.078 280.784,206.906 290.188,224.750 308.788 C 228.738 312.945,232.000 316.718,232.000 317.173 C 232.000 317.628,232.647 318.000,233.438 318.000 C 234.229 318.000,236.289 319.968,238.016 322.373 C 239.743 324.778,242.246 327.329,243.578 328.042 C 244.910 328.755,246.000 329.706,246.000 330.157 C 246.000 330.607,248.250 333.099,251.000 335.694 C 253.750 338.290,256.000 340.736,256.000 341.131 C 256.000 341.525,259.605 345.522,264.012 350.012 C 268.419 354.503,272.485 359.037,273.047 360.088 C 273.610 361.140,274.674 362.000,275.413 362.000 C 276.151 362.000,277.315 362.675,278.000 363.500 C 280.974 367.084,294.046 365.506,298.902 360.977 L 303.216 356.955 302.834 349.379 C 302.532 343.398,302.054 341.513,300.566 340.424 C 298.940 339.236,296.689 337.194,292.500 333.110 C 291.950 332.574,288.125 329.136,284.000 325.470 C 279.875 321.805,274.471 316.824,271.991 314.403 C 269.511 311.981,267.131 310.000,266.701 310.000 C 265.909 310.000,264.385 308.587,250.253 294.750 C 245.900 290.487,241.835 287.000,241.220 287.000 C 240.605 287.000,238.900 285.425,237.432 283.500 C 235.964 281.575,234.254 279.985,233.631 279.967 C 232.054 279.920,228.000 276.410,228.000 275.090 C 228.000 274.490,227.540 274.000,226.979 274.000 C 226.417 274.000,223.791 271.863,221.143 269.250 C 215.330 263.516,202.050 251.613,201.018 251.213 C 200.611 251.055,197.814 248.580,194.803 245.713 C 188.824 240.020,177.529 229.783,172.000 225.046 C 170.075 223.396,166.395 220.124,163.822 217.774 C 161.249 215.423,157.762 212.453,156.072 211.174 C 154.382 209.895,153.000 208.237,153.000 207.491 C 153.000 206.745,152.120 205.855,151.044 205.514 C 149.968 205.172,148.056 203.672,146.794 202.180 C 145.532 200.688,142.363 197.936,139.750 196.064 C 137.137 194.192,135.000 192.278,135.000 191.809 C 135.000 191.340,133.988 190.488,132.750 189.915 C 131.512 189.341,129.375 187.338,128.000 185.464 C 126.625 183.589,125.130 182.043,124.679 182.028 C 124.227 182.012,123.262 181.438,122.536 180.750 C 116.858 175.380,109.585 168.852,105.543 165.500 C 102.891 163.300,98.903 159.588,96.680 157.250 C 94.458 154.912,92.046 153.000,91.320 153.000 C 90.594 153.000,90.000 152.598,90.000 152.106 C 90.000 150.968,84.885 145.465,83.317 144.915 C 81.836 144.396,72.885 136.600,63.591 127.736 C 47.367 112.263,44.591 110.295,43.393 113.419 M280.000 114.000 C 280.000 115.100,280.450 116.000,281.000 116.000 C 281.550 116.000,282.000 116.442,282.000 116.983 C 282.000 118.357,285.225 121.888,303.500 140.521 C 312.300 149.493,323.100 160.766,327.500 165.573 C 331.900 170.379,337.525 176.482,340.000 179.135 C 342.475 181.788,345.547 185.318,346.826 186.979 C 348.105 188.641,349.793 190.000,350.576 190.000 C 351.359 190.000,352.000 190.675,352.000 191.500 C 352.000 195.203,362.833 193.408,363.550 189.587 C 364.454 184.764,360.796 177.000,357.618 177.000 C 356.932 177.000,346.021 166.816,338.065 158.750 C 335.488 156.137,332.961 154.000,332.450 154.000 C 331.489 154.000,329.799 152.520,321.767 144.642 C 319.164 142.089,316.827 140.000,316.575 140.000 C 316.323 140.000,312.409 136.400,307.877 132.000 C 303.345 127.600,299.369 124.000,299.041 124.000 C 298.714 124.000,296.968 122.650,295.161 121.000 C 293.355 119.350,291.567 117.987,291.188 117.972 C 290.810 117.957,289.188 116.607,287.583 114.972 C 284.152 111.476,280.000 110.943,280.000 114.000 M74.000 198.000 C 74.000 198.550,74.450 199.000,75.000 199.000 C 75.550 199.000,76.000 199.675,76.000 200.500 C 76.000 201.325,76.450 202.000,77.000 202.000 C 77.550 202.000,78.000 202.617,78.000 203.370 C 78.000 204.124,80.700 207.449,84.000 210.760 C 87.300 214.070,90.000 217.278,90.000 217.889 C 90.000 218.500,90.675 219.000,91.500 219.000 C 92.325 219.000,93.000 219.409,93.000 219.908 C 93.000 220.408,95.700 223.492,99.000 226.761 C 102.300 230.031,105.000 233.033,105.000 233.433 C 105.000 233.833,108.375 237.449,112.500 241.468 C 116.625 245.487,120.000 249.176,120.000 249.666 C 120.000 250.656,123.606 253.974,124.761 254.046 C 125.168 254.072,126.400 255.246,127.500 256.657 C 128.600 258.067,134.563 264.363,140.750 270.648 C 146.937 276.933,152.008 282.395,152.017 282.787 C 152.044 283.906,156.658 288.000,157.891 288.000 C 158.501 288.000,159.000 288.455,159.000 289.011 C 159.000 290.237,166.701 298.529,201.647 334.930 C 223.423 357.613,223.998 358.228,224.036 358.882 C 224.172 361.174,231.706 365.000,236.084 365.000 C 243.676 365.000,247.000 361.599,247.000 353.832 L 247.000 347.841 240.836 341.921 C 237.445 338.664,234.070 336.000,233.336 336.000 C 232.601 336.000,232.000 335.568,232.000 335.040 C 232.000 333.937,226.900 329.000,225.760 329.000 C 224.665 329.000,221.000 325.177,221.000 324.035 C 221.000 323.505,219.988 322.546,218.750 321.905 C 217.513 321.264,214.250 318.524,211.500 315.818 C 203.492 307.936,201.289 306.000,200.322 306.000 C 199.822 306.000,197.290 303.750,194.694 301.000 C 192.099 298.250,189.628 296.000,189.203 296.000 C 188.779 296.000,187.634 294.650,186.659 293.000 C 185.684 291.350,184.290 290.000,183.560 290.000 C 182.830 290.000,180.705 288.313,178.837 286.250 C 175.756 282.848,172.596 280.268,168.118 277.500 C 167.228 276.950,163.129 273.012,159.009 268.750 C 154.889 264.488,151.005 261.000,150.378 261.000 C 149.750 261.000,148.048 259.441,146.595 257.536 C 145.142 255.630,142.388 253.329,140.476 252.422 C 138.564 251.514,137.000 250.248,137.000 249.607 C 137.000 248.966,136.037 247.780,134.860 246.971 C 132.651 245.453,120.954 234.727,113.354 227.250 C 110.978 224.912,108.689 222.998,108.267 222.995 C 107.126 222.988,101.000 217.049,101.000 215.949 C 101.000 215.427,100.510 215.000,99.910 215.000 C 98.671 215.000,95.099 211.843,87.746 204.250 C 84.950 201.363,82.063 199.000,81.331 199.000 C 80.599 199.000,80.000 198.550,80.000 198.000 C 80.000 197.450,78.650 197.000,77.000 197.000 C 75.350 197.000,74.000 197.450,74.000 198.000 M107.000 270.500 C 107.000 271.325,107.461 272.000,108.025 272.000 C 108.588 272.000,109.443 273.035,109.924 274.300 C 110.405 275.566,114.194 280.178,118.345 284.550 C 122.495 288.923,126.841 293.625,128.002 295.000 C 131.045 298.602,145.558 313.989,159.835 328.748 C 166.619 335.762,172.469 341.855,172.835 342.288 C 176.065 346.116,180.753 349.000,183.746 349.000 C 194.733 349.000,193.134 340.050,180.369 330.095 C 174.845 325.787,167.793 319.459,163.267 314.750 C 160.756 312.137,158.094 310.000,157.351 310.000 C 156.608 310.000,156.000 309.388,156.000 308.640 C 156.000 307.892,154.796 306.430,153.324 305.390 C 151.853 304.351,148.892 301.813,146.745 299.750 C 144.598 297.688,142.494 296.000,142.069 296.000 C 141.644 296.000,137.618 292.400,133.123 288.000 C 128.627 283.600,124.705 280.000,124.407 280.000 C 124.109 280.000,122.433 278.513,120.683 276.696 C 114.204 269.971,107.000 266.708,107.000 270.500 " stroke="none" fill="#000000" fill-rule="evenodd"></path></g></svg>