<svg id="svg" version="1.1" width="400" height="400" xmlns="http://www.w3.org/2000/svg" xmlns:xlink="http://www.w3.org/1999/xlink" style="display: block;"><g id="svgg"><path id="path0" d="M76.500 26.520 C 35.415 35.555,10.584 78.323,16.868 129.231 C 31.828 250.430,72.280 320.405,112.602 294.833 L 117.171 291.936 122.335 294.364 C 136.778 301.154,161.956 302.348,177.553 296.982 C 180.721 295.892,183.513 295.000,183.757 295.000 C 184.002 295.000,183.885 300.512,183.499 307.250 C 179.732 372.975,218.906 410.728,261.521 382.442 C 282.763 368.343,290.895 349.884,291.720 313.893 L 292.215 292.287 303.358 291.707 C 343.466 289.620,375.635 265.404,366.120 244.459 C 361.370 234.000,353.222 231.464,334.522 234.623 C 322.613 236.635,322.877 237.028,328.876 226.223 C 356.860 175.826,372.385 112.935,364.406 82.300 C 358.903 61.172,331.591 38.153,301.905 29.624 C 280.706 23.533,260.901 23.493,233.500 29.485 C 218.318 32.805,214.735 33.232,200.000 33.473 C 183.148 33.748,173.924 35.402,165.789 39.609 C 162.958 41.073,162.321 40.957,152.059 37.111 C 122.640 26.085,95.671 22.304,76.500 26.520 M120.874 44.942 C 128.535 46.851,143.963 51.767,144.886 52.593 C 145.098 52.783,142.654 55.765,139.455 59.219 C 120.086 80.130,108.232 113.746,109.029 145.500 C 109.471 163.081,109.441 175.567,108.914 194.000 C 108.302 215.420,112.844 227.506,126.811 241.623 L 133.122 248.002 125.311 256.831 C 121.015 261.688,114.718 268.822,111.317 272.685 C 98.050 287.756,87.503 286.459,74.819 268.197 C 60.448 247.505,42.428 188.714,35.064 138.500 C 24.786 68.415,60.185 29.820,120.874 44.942 M295.500 45.437 C 318.258 52.145,340.485 68.538,347.100 83.494 C 357.380 106.734,337.170 182.280,308.371 228.259 L 305.390 233.019 303.125 229.955 L 300.859 226.890 304.146 219.195 C 307.828 210.575,308.419 199.108,306.560 172.362 C 305.999 164.301,306.105 156.576,306.875 149.362 C 309.089 128.600,308.689 119.641,305.117 110.000 C 295.884 85.083,275.974 61.205,253.460 48.049 C 246.267 43.845,246.250 44.020,254.000 42.603 C 261.932 41.152,286.700 42.843,295.500 45.437 M221.999 52.989 C 248.549 59.801,271.156 78.455,284.126 104.251 C 290.885 117.694,290.967 116.656,283.042 117.993 C 258.276 122.170,246.739 140.540,252.481 166.650 C 256.166 183.405,270.410 213.449,282.670 230.324 L 289.081 239.148 286.749 240.982 C 277.939 247.912,275.867 258.138,274.991 299.000 C 274.543 319.865,273.785 335.267,273.071 337.972 C 264.769 369.421,230.888 385.565,214.686 365.793 C 203.247 351.833,200.820 340.151,200.080 295.500 C 199.635 268.675,199.181 259.916,198.133 258.000 C 195.157 252.557,188.749 247.150,182.610 244.902 C 179.250 243.672,176.400 242.603,176.279 242.528 C 176.157 242.453,178.049 237.432,180.482 231.372 C 192.314 201.905,194.505 179.078,188.388 149.000 C 182.959 122.305,162.032 111.198,133.748 120.001 L 127.805 121.851 128.491 118.175 C 137.978 67.310,175.599 41.084,221.999 52.989 M163.100 136.769 C 170.289 141.246,169.768 142.710,161.152 142.243 C 148.793 141.573,146.585 145.821,154.947 154.183 C 159.270 158.505,165.509 159.433,169.842 156.398 C 172.826 154.308,172.642 153.890,174.050 166.000 C 176.508 187.139,174.180 201.632,164.318 226.574 L 158.550 241.160 155.536 240.557 C 146.450 238.740,135.274 228.381,129.253 216.195 L 125.500 208.600 125.654 175.550 L 125.808 142.500 129.077 140.233 C 138.076 133.993,155.753 132.193,163.100 136.769 M290.639 141.250 C 288.842 161.939,288.800 171.757,290.452 184.430 C 292.039 196.601,291.894 205.445,290.051 208.836 C 289.588 209.687,286.585 204.791,281.770 195.336 C 270.354 172.918,264.473 154.042,269.791 156.888 C 275.386 159.882,284.459 156.881,287.482 151.035 C 290.479 145.240,286.693 142.020,276.816 141.964 L 270.500 141.928 273.390 139.565 C 276.674 136.880,284.102 134.153,288.384 134.062 L 291.269 134.000 290.639 141.250 M308.409 251.511 C 314.818 253.455,324.775 253.397,337.478 251.341 C 352.242 248.951,354.682 250.816,346.742 258.421 C 336.917 267.834,319.268 274.204,302.500 274.389 L 292.500 274.500 292.702 270.000 C 293.032 262.687,295.091 256.975,298.701 253.366 C 302.589 249.478,302.048 249.581,308.409 251.511 M176.936 260.591 C 181.589 262.453,184.000 266.321,184.000 271.926 C 184.000 280.856,158.157 286.223,137.668 281.549 C 119.109 277.316,120.914 271.543,142.555 265.923 C 149.125 264.217,156.300 261.799,158.500 260.549 C 163.228 257.863,170.157 257.879,176.936 260.591 " stroke="none" fill="#000000" fill-rule="evenodd"></path></g></svg>