<svg id="svg" version="1.1" width="400" height="400" xmlns="http://www.w3.org/2000/svg" xmlns:xlink="http://www.w3.org/1999/xlink" style="display: block;"><g id="svgg"><path id="path0" d="M199.000 87.000 C 199.000 89.200,199.450 91.000,200.000 91.000 C 200.550 91.000,201.000 92.350,201.000 94.000 L 201.000 97.000 211.000 97.000 L 221.000 97.000 221.000 93.000 C 221.000 90.800,220.550 89.000,220.000 89.000 C 219.450 89.000,219.000 87.650,219.000 86.000 L 219.000 83.000 209.000 83.000 L 199.000 83.000 199.000 87.000 M277.000 100.000 C 277.000 106.333,277.190 107.000,279.000 107.000 C 280.100 107.000,281.000 107.450,281.000 108.000 C 281.000 108.550,281.900 109.000,283.000 109.000 C 284.100 109.000,285.000 109.450,285.000 110.000 C 285.000 110.550,284.100 111.000,283.000 111.000 C 281.900 111.000,281.000 110.550,281.000 110.000 C 281.000 109.450,279.650 109.000,278.000 109.000 C 276.350 109.000,275.000 108.550,275.000 108.000 C 275.000 107.450,273.650 107.000,272.000 107.000 C 270.350 107.000,269.000 106.550,269.000 106.000 C 269.000 105.450,267.200 105.000,265.000 105.000 C 262.800 105.000,261.000 104.550,261.000 104.000 C 261.000 103.450,258.750 103.000,256.000 103.000 C 253.250 103.000,251.000 102.550,251.000 102.000 C 251.000 101.429,248.000 101.000,244.000 101.000 C 240.000 101.000,237.000 100.571,237.000 100.000 C 237.000 99.370,230.333 99.000,219.000 99.000 C 207.667 99.000,201.000 99.370,201.000 100.000 C 201.000 100.556,198.333 101.000,195.000 101.000 C 191.667 101.000,189.000 101.444,189.000 102.000 C 189.000 102.550,187.200 103.000,185.000 103.000 C 182.800 103.000,181.000 103.450,181.000 104.000 C 181.000 104.550,179.650 105.000,178.000 105.000 C 176.350 105.000,175.000 105.450,175.000 106.000 C 175.000 106.550,173.650 107.000,172.000 107.000 C 170.350 107.000,169.000 107.450,169.000 108.000 C 169.000 108.550,168.100 109.000,167.000 109.000 C 165.900 109.000,165.000 109.450,165.000 110.000 C 165.000 110.550,164.100 111.000,163.000 111.000 C 161.900 111.000,161.000 111.450,161.000 112.000 C 161.000 112.550,160.100 113.000,159.000 113.000 C 157.900 113.000,157.000 113.450,157.000 114.000 C 157.000 114.550,156.100 115.000,155.000 115.000 C 153.900 115.000,153.000 115.450,153.000 116.000 C 153.000 116.550,152.100 117.000,151.000 117.000 C 149.900 117.000,149.000 117.450,149.000 118.000 C 149.000 118.550,148.199 119.000,147.221 119.000 C 146.242 119.000,144.793 119.900,144.000 121.000 C 143.207 122.100,141.758 123.000,140.779 123.000 C 139.801 123.000,139.000 123.450,139.000 124.000 C 139.000 124.550,138.281 125.000,137.401 125.000 C 136.522 125.000,134.541 126.350,133.000 128.000 C 131.459 129.650,129.659 131.000,129.000 131.000 C 128.341 131.000,126.541 132.350,125.000 134.000 C 123.459 135.650,121.674 137.000,121.034 137.000 C 120.394 137.000,117.679 139.250,115.000 142.000 C 112.321 144.750,109.645 147.000,109.052 147.000 C 107.646 147.000,89.000 165.646,89.000 167.052 C 89.000 167.645,86.750 170.321,84.000 173.000 C 81.250 175.679,79.000 178.394,79.000 179.034 C 79.000 179.674,77.650 181.459,76.000 183.000 C 74.350 184.541,73.000 186.341,73.000 187.000 C 73.000 187.659,71.650 189.459,70.000 191.000 C 68.350 192.541,67.000 194.423,67.000 195.180 C 67.000 195.938,66.100 197.207,65.000 198.000 C 63.900 198.793,63.000 200.242,63.000 201.221 C 63.000 202.199,62.550 203.000,62.000 203.000 C 61.450 203.000,61.000 203.801,61.000 204.779 C 61.000 205.758,60.100 207.207,59.000 208.000 C 57.900 208.793,57.000 210.242,57.000 211.221 C 57.000 212.199,56.550 213.000,56.000 213.000 C 55.450 213.000,55.000 213.900,55.000 215.000 C 55.000 216.100,54.550 217.000,54.000 217.000 C 53.450 217.000,53.000 217.900,53.000 219.000 C 53.000 220.100,52.550 221.000,52.000 221.000 C 51.450 221.000,51.000 221.900,51.000 223.000 C 51.000 224.100,50.550 225.000,50.000 225.000 C 49.450 225.000,49.000 225.900,49.000 227.000 C 49.000 228.100,48.550 229.000,48.000 229.000 C 47.450 229.000,47.000 229.900,47.000 231.000 C 47.000 232.100,46.550 233.000,46.000 233.000 C 45.450 233.000,45.000 233.900,45.000 235.000 C 45.000 236.100,44.550 237.000,44.000 237.000 C 43.450 237.000,43.000 237.900,43.000 239.000 C 43.000 240.100,42.550 241.000,42.000 241.000 C 41.450 241.000,41.000 241.900,41.000 243.000 C 41.000 244.100,40.550 245.000,40.000 245.000 C 39.450 245.000,39.000 246.350,39.000 248.000 C 39.000 249.650,38.550 251.000,38.000 251.000 C 37.450 251.000,37.000 251.900,37.000 253.000 C 37.000 254.100,36.550 255.000,36.000 255.000 C 35.450 255.000,35.000 256.350,35.000 258.000 C 35.000 259.650,34.550 261.000,34.000 261.000 C 33.450 261.000,33.000 262.350,33.000 264.000 C 33.000 265.650,32.550 267.000,32.000 267.000 C 31.450 267.000,31.000 268.350,31.000 270.000 C 31.000 271.650,30.550 273.000,30.000 273.000 C 29.450 273.000,29.000 274.350,29.000 276.000 C 29.000 277.650,28.550 279.000,28.000 279.000 C 27.450 279.000,27.000 280.800,27.000 283.000 C 27.000 285.200,26.550 287.000,26.000 287.000 C 25.450 287.000,25.000 288.800,25.000 291.000 C 25.000 293.200,24.550 295.000,24.000 295.000 C 23.444 295.000,23.000 297.667,23.000 301.000 C 23.000 304.333,22.556 307.000,22.000 307.000 C 21.450 307.000,21.000 308.350,21.000 310.000 L 21.000 313.000 88.000 313.000 L 155.000 313.000 155.000 307.000 C 155.000 303.667,154.556 301.000,154.000 301.000 C 153.394 301.000,153.000 296.667,153.000 290.000 C 153.000 283.333,152.606 279.000,152.000 279.000 C 151.444 279.000,151.000 276.333,151.000 273.000 C 151.000 269.667,151.444 267.000,152.000 267.000 C 152.606 267.000,153.000 262.667,153.000 256.000 C 153.000 249.333,153.394 245.000,154.000 245.000 C 154.550 245.000,155.000 242.750,155.000 240.000 C 155.000 237.250,155.450 235.000,156.000 235.000 C 156.550 235.000,157.000 233.200,157.000 231.000 C 157.000 228.800,157.450 227.000,158.000 227.000 C 158.550 227.000,159.000 225.650,159.000 224.000 C 159.000 222.350,159.450 221.000,160.000 221.000 C 160.550 221.000,161.000 219.650,161.000 218.000 C 161.000 216.350,161.450 215.000,162.000 215.000 C 162.550 215.000,163.000 213.650,163.000 212.000 C 163.000 210.350,163.450 209.000,164.000 209.000 C 164.550 209.000,165.000 208.100,165.000 207.000 C 165.000 205.900,165.450 205.000,166.000 205.000 C 166.550 205.000,167.000 204.100,167.000 203.000 C 167.000 201.900,167.450 201.000,168.000 201.000 C 168.550 201.000,169.000 200.199,169.000 199.221 C 169.000 198.242,169.900 196.793,171.000 196.000 C 172.100 195.207,173.000 193.857,173.000 193.000 C 173.000 192.143,173.900 190.793,175.000 190.000 C 176.100 189.207,177.000 187.948,177.000 187.201 C 177.000 186.454,178.800 184.114,181.000 182.000 C 183.200 179.886,185.000 177.639,185.000 177.007 C 185.000 175.528,187.520 173.000,188.993 173.000 C 189.618 173.000,192.321 170.750,195.000 168.000 C 197.679 165.250,200.475 163.000,201.214 163.000 C 201.954 163.000,203.207 162.100,204.000 161.000 C 204.793 159.900,206.143 159.000,207.000 159.000 C 207.857 159.000,209.207 158.100,210.000 157.000 C 210.793 155.900,212.242 155.000,213.221 155.000 C 214.199 155.000,215.000 154.550,215.000 154.000 C 215.000 153.450,215.900 153.000,217.000 153.000 C 218.100 153.000,219.000 152.550,219.000 152.000 C 219.000 151.450,220.350 151.000,222.000 151.000 C 223.650 151.000,225.000 150.550,225.000 150.000 C 225.000 149.450,225.900 149.000,227.000 149.000 C 228.100 149.000,229.000 148.550,229.000 148.000 C 229.000 147.450,230.350 147.000,232.000 147.000 C 233.650 147.000,235.000 146.550,235.000 146.000 C 235.000 145.450,236.800 145.000,239.000 145.000 C 241.200 145.000,243.000 144.550,243.000 144.000 C 243.000 143.450,244.800 143.000,247.000 143.000 C 249.200 143.000,251.000 142.550,251.000 142.000 C 251.000 141.370,257.667 141.000,269.000 141.000 C 280.333 141.000,287.000 141.370,287.000 142.000 C 287.000 142.550,289.250 143.000,292.000 143.000 C 294.750 143.000,297.000 143.450,297.000 144.000 C 297.000 144.550,298.800 145.000,301.000 145.000 C 303.200 145.000,305.000 145.450,305.000 146.000 C 305.000 146.550,306.800 147.000,309.000 147.000 C 311.200 147.000,313.000 147.450,313.000 148.000 C 313.000 148.550,313.900 149.000,315.000 149.000 C 316.100 149.000,317.000 149.450,317.000 150.000 C 317.000 150.550,318.350 151.000,320.000 151.000 C 321.650 151.000,323.000 151.450,323.000 152.000 C 323.000 152.550,323.900 153.000,325.000 153.000 C 326.100 153.000,327.000 153.450,327.000 154.000 C 327.000 154.550,328.350 155.000,330.000 155.000 C 331.650 155.000,333.000 155.450,333.000 156.000 C 333.000 156.550,333.900 157.000,335.000 157.000 C 336.100 157.000,337.000 157.450,337.000 158.000 C 337.000 158.550,337.900 159.000,339.000 159.000 C 340.100 159.000,341.000 159.450,341.000 160.000 C 341.000 160.550,341.801 161.000,342.779 161.000 C 343.758 161.000,345.207 161.900,346.000 163.000 C 346.793 164.100,348.242 165.000,349.221 165.000 C 350.199 165.000,351.000 165.450,351.000 166.000 C 351.000 166.550,351.900 167.000,353.000 167.000 C 354.100 167.000,355.000 167.450,355.000 168.000 C 355.000 168.550,355.801 169.000,356.779 169.000 C 357.758 169.000,359.207 169.900,360.000 171.000 C 360.793 172.100,362.143 173.000,363.000 173.000 C 363.857 173.000,365.207 173.900,366.000 175.000 C 366.793 176.100,368.062 177.000,368.820 177.000 C 369.577 177.000,371.459 178.350,373.000 180.000 C 377.342 184.649,387.000 182.599,387.000 177.029 C 387.000 175.612,372.339 161.000,370.917 161.000 C 370.304 161.000,368.541 159.650,367.000 158.000 C 365.459 156.350,363.659 155.000,363.000 155.000 C 362.341 155.000,360.541 153.650,359.000 152.000 C 357.459 150.350,355.577 149.000,354.820 149.000 C 354.062 149.000,352.793 148.100,352.000 147.000 C 351.207 145.900,349.857 145.000,349.000 145.000 C 348.143 145.000,346.793 144.100,346.000 143.000 C 345.207 141.900,343.857 141.000,343.000 141.000 C 342.143 141.000,340.793 140.100,340.000 139.000 C 339.207 137.900,337.857 137.000,337.000 137.000 C 336.143 137.000,334.793 136.100,334.000 135.000 C 333.207 133.900,331.758 133.000,330.779 133.000 C 329.801 133.000,329.000 132.550,329.000 132.000 C 329.000 131.450,328.100 131.000,327.000 131.000 C 325.900 131.000,325.000 130.550,325.000 130.000 C 325.000 129.450,324.199 129.000,323.221 129.000 C 322.242 129.000,320.793 128.100,320.000 127.000 C 319.207 125.900,317.758 125.000,316.779 125.000 C 315.801 125.000,315.000 124.550,315.000 124.000 C 315.000 123.450,314.100 123.000,313.000 123.000 C 311.900 123.000,311.000 122.550,311.000 122.000 C 311.000 121.450,310.100 121.000,309.000 121.000 C 307.900 121.000,307.000 120.550,307.000 120.000 C 307.000 119.450,305.650 119.000,304.000 119.000 C 302.350 119.000,301.000 118.550,301.000 118.000 C 301.000 117.450,300.100 117.000,299.000 117.000 C 297.900 117.000,297.000 116.550,297.000 116.000 C 297.000 115.450,296.100 115.000,295.000 115.000 C 293.900 115.000,293.000 114.550,293.000 114.000 C 293.000 113.450,293.900 113.000,295.000 113.000 C 296.833 113.000,297.000 112.333,297.000 105.000 L 297.000 97.000 294.000 97.000 C 292.350 97.000,291.000 96.550,291.000 96.000 C 291.000 95.450,289.650 95.000,288.000 95.000 C 286.350 95.000,285.000 94.550,285.000 94.000 C 285.000 93.450,283.200 93.000,281.000 93.000 L 277.000 93.000 277.000 100.000 M139.000 100.000 C 139.000 100.550,138.199 101.000,137.221 101.000 C 136.242 101.000,134.793 101.900,134.000 103.000 C 133.207 104.100,131.758 105.000,130.779 105.000 C 128.239 105.000,128.401 110.127,131.000 112.000 C 132.100 112.793,133.000 114.038,133.000 114.766 C 133.000 116.591,137.565 121.000,139.455 121.000 C 140.305 121.000,141.000 120.550,141.000 120.000 C 141.000 119.450,141.801 119.000,142.779 119.000 C 143.758 119.000,145.207 118.100,146.000 117.000 C 146.793 115.900,148.049 115.000,148.792 115.000 C 149.535 115.000,150.786 114.357,151.571 113.571 C 153.210 111.933,153.485 109.000,152.000 109.000 C 151.450 109.000,151.000 108.199,151.000 107.221 C 151.000 106.242,150.100 104.793,149.000 104.000 C 147.900 103.207,147.000 101.758,147.000 100.779 C 147.000 99.370,146.168 99.000,143.000 99.000 C 140.800 99.000,139.000 99.450,139.000 100.000 M291.000 112.000 C 291.000 112.550,290.100 113.000,289.000 113.000 C 287.900 113.000,287.000 112.550,287.000 112.000 C 287.000 111.450,287.900 111.000,289.000 111.000 C 290.100 111.000,291.000 111.450,291.000 112.000 M277.000 150.000 L 277.000 157.000 280.000 157.000 C 281.650 157.000,283.000 157.450,283.000 158.000 C 283.000 158.571,286.000 159.000,290.000 159.000 L 297.000 159.000 297.000 152.000 L 297.000 145.000 291.000 145.000 C 287.667 145.000,285.000 144.556,285.000 144.000 C 285.000 143.450,283.200 143.000,281.000 143.000 L 277.000 143.000 277.000 150.000 M237.000 148.000 C 237.000 148.550,235.650 149.000,234.000 149.000 C 232.350 149.000,231.000 149.450,231.000 150.000 C 231.000 150.550,229.843 151.000,228.429 151.000 C 227.014 151.000,225.214 151.643,224.429 152.429 C 222.790 154.067,222.515 157.000,224.000 157.000 C 224.550 157.000,225.000 158.350,225.000 160.000 C 225.000 161.650,225.450 163.000,226.000 163.000 C 226.550 163.000,227.000 163.900,227.000 165.000 C 227.000 166.667,227.667 167.000,231.000 167.000 C 233.200 167.000,235.000 166.550,235.000 166.000 C 235.000 165.450,235.900 165.000,237.000 165.000 C 238.100 165.000,239.000 164.550,239.000 164.000 C 239.000 163.450,240.350 163.000,242.000 163.000 C 244.833 163.000,245.000 162.778,245.000 159.000 C 245.000 156.800,244.550 155.000,244.000 155.000 C 243.450 155.000,243.000 153.843,243.000 152.429 C 243.000 151.014,242.357 149.214,241.571 148.429 C 239.933 146.790,237.000 146.515,237.000 148.000 M68.250 154.555 C 62.089 160.898,61.480 167.000,67.007 167.000 C 67.639 167.000,69.886 168.800,72.000 171.000 C 76.942 176.144,76.881 176.156,84.519 168.519 C 91.039 161.998,93.167 157.000,89.422 157.000 C 88.553 157.000,86.114 155.200,84.000 153.000 C 78.394 147.165,75.112 147.489,68.250 154.555 M188.250 176.540 C 186.463 178.412,185.000 180.631,185.000 181.472 C 185.000 182.312,184.550 183.000,184.000 183.000 C 182.152 183.000,182.939 188.515,185.000 190.000 C 186.100 190.793,187.000 192.038,187.000 192.766 C 187.000 194.375,191.471 199.000,193.026 199.000 C 194.493 199.000,197.000 196.459,197.000 194.973 C 197.000 194.329,198.350 192.541,200.000 191.000 C 202.993 188.204,204.434 181.000,202.000 181.000 C 201.450 181.000,201.000 180.305,201.000 179.455 C 201.000 173.453,192.955 171.614,188.250 176.540 M163.000 222.000 C 163.000 223.650,162.550 225.000,162.000 225.000 C 161.450 225.000,161.000 226.350,161.000 228.000 C 161.000 229.650,160.550 231.000,160.000 231.000 C 159.450 231.000,159.000 232.587,159.000 234.526 C 159.000 238.320,166.288 247.000,169.474 247.000 C 170.313 247.000,171.000 247.450,171.000 248.000 C 171.000 248.550,172.350 249.000,174.000 249.000 L 177.000 249.000 177.000 243.000 C 177.000 239.667,177.444 237.000,178.000 237.000 C 181.261 237.000,178.914 227.861,174.526 223.474 C 168.748 217.695,163.000 216.960,163.000 222.000 M17.000 228.000 C 17.000 229.650,16.550 231.000,16.000 231.000 C 15.450 231.000,15.000 231.900,15.000 233.000 C 15.000 234.100,14.550 235.000,14.000 235.000 C 13.450 235.000,13.000 235.900,13.000 237.000 C 13.000 238.100,12.550 239.000,12.000 239.000 C 10.466 239.000,10.813 245.956,12.429 247.571 C 13.214 248.357,14.564 249.000,15.429 249.000 C 16.293 249.000,17.000 249.450,17.000 250.000 C 17.000 250.550,18.350 251.000,20.000 251.000 C 21.650 251.000,23.000 251.450,23.000 252.000 C 23.000 252.550,24.350 253.000,26.000 253.000 C 27.650 253.000,29.000 253.450,29.000 254.000 C 29.000 254.550,29.900 255.000,31.000 255.000 C 32.333 255.000,33.000 254.333,33.000 253.000 C 33.000 251.900,33.450 251.000,34.000 251.000 C 34.550 251.000,35.000 249.650,35.000 248.000 C 35.000 246.350,35.450 245.000,36.000 245.000 C 36.550 245.000,37.000 244.100,37.000 243.000 C 37.000 241.900,37.450 241.000,38.000 241.000 C 38.550 241.000,39.000 240.100,39.000 239.000 C 39.000 237.900,39.450 237.000,40.000 237.000 C 40.550 237.000,41.000 235.650,41.000 234.000 C 41.000 231.667,40.556 231.000,39.000 231.000 C 37.900 231.000,37.000 230.550,37.000 230.000 C 37.000 229.450,36.100 229.000,35.000 229.000 C 33.900 229.000,33.000 228.550,33.000 228.000 C 33.000 227.450,31.650 227.000,30.000 227.000 C 28.350 227.000,27.000 226.550,27.000 226.000 C 27.000 225.450,24.750 225.000,22.000 225.000 C 17.111 225.000,17.000 225.067,17.000 228.000 M157.000 287.000 C 157.000 293.000,157.400 297.000,158.000 297.000 C 158.550 297.000,159.000 297.707,159.000 298.571 C 159.000 300.932,161.535 303.000,164.429 303.000 C 165.843 303.000,167.000 303.450,167.000 304.000 C 167.000 304.550,168.350 305.000,170.000 305.000 C 171.650 305.000,173.000 305.450,173.000 306.000 C 173.000 306.550,174.800 307.000,177.000 307.000 L 181.000 307.000 181.000 301.000 C 181.000 297.667,180.556 295.000,180.000 295.000 C 179.450 295.000,179.000 292.943,179.000 290.429 C 179.000 285.710,177.385 283.000,174.571 283.000 C 173.707 283.000,173.000 282.550,173.000 282.000 C 173.000 281.450,172.100 281.000,171.000 281.000 C 169.900 281.000,169.000 280.550,169.000 280.000 C 169.000 279.450,167.650 279.000,166.000 279.000 C 164.350 279.000,163.000 278.550,163.000 278.000 C 163.000 277.450,161.650 277.000,160.000 277.000 L 157.000 277.000 157.000 287.000 " stroke="none" fill="#000000" fill-rule="evenodd"></path></g></svg>