<?xml version="1.0" encoding="UTF-8" standalone="no"?>
<svg
   xmlns:dc="http://purl.org/dc/elements/1.1/"
   xmlns:cc="http://creativecommons.org/ns#"
   xmlns:rdf="http://www.w3.org/1999/02/22-rdf-syntax-ns#"
   xmlns:svg="http://www.w3.org/2000/svg"
   xmlns="http://www.w3.org/2000/svg"
   xmlns:sodipodi="http://sodipodi.sourceforge.net/DTD/sodipodi-0.dtd"
   xmlns:inkscape="http://www.inkscape.org/namespaces/inkscape"
   id="svg"
   version="1.1"
   width="400"
   height="400"
   style="display: block;"
   sodipodi:docname="scala.svg"
   inkscape:version="0.92.2 (5c3e80d, 2017-08-06)">
  <metadata
     id="metadata9">
    <rdf:RDF>
      <cc:Work
         rdf:about="">
        <dc:format>image/svg+xml</dc:format>
        <dc:type
           rdf:resource="http://purl.org/dc/dcmitype/StillImage" />
      </cc:Work>
    </rdf:RDF>
  </metadata>
  <defs
     id="defs7" />
  <sodipodi:namedview
     pagecolor="#ffffff"
     bordercolor="#666666"
     borderopacity="1"
     objecttolerance="10"
     gridtolerance="10"
     guidetolerance="10"
     inkscape:pageopacity="0"
     inkscape:pageshadow="2"
     inkscape:window-width="1920"
     inkscape:window-height="1027"
     id="namedview5"
     showgrid="false"
     inkscape:zoom="0.417193"
     inkscape:cx="-243.2811"
     inkscape:cy="121.31376"
     inkscape:window-x="1912"
     inkscape:window-y="-8"
     inkscape:window-maximized="1"
     inkscape:current-layer="svgg" />
  <g
     id="svgg">
    <path
       id="path0"
       d="m 307,2.5 c 0,0.825 -0.45,1.5 -1,1.5 -0.55,0 -1,0.695 -1,1.545 0,1.962 -4.001,6.003 -6.835,6.903 -1.191,0.378 -2.165,1.106 -2.165,1.619 0,0.513 -0.9,0.933 -2,0.933 -1.1,0 -2,0.45 -2,1 0,0.55 -0.675,1 -1.5,1 -0.825,0 -1.5,0.422 -1.5,0.939 0,0.516 -2.025,1.242 -4.5,1.613 -2.475,0.371 -4.5,1.074 -4.5,1.562 0,0.487 -1.125,0.886 -2.5,0.886 -1.375,0 -2.5,0.45 -2.5,1 0,0.55 -1.35,1 -3,1 -1.65,0 -3,0.45 -3,1 0,0.55 -1.538,1 -3.417,1 -1.879,0 -3.569,0.457 -3.755,1.015 -0.186,0.558 -3.373,1.298 -7.083,1.644 -3.71,0.347 -6.745,1.015 -6.745,1.486 0,0.47 -1.575,0.855 -3.5,0.855 -1.925,0 -3.5,0.45 -3.5,1 0,0.55 -1.575,1 -3.5,1 -1.925,0 -3.5,0.414 -3.5,0.92 0,0.506 -4.5,1.239 -10,1.629 -5.5,0.39 -10,1.101 -10,1.58 0,0.479 -2.25,0.871 -5,0.871 -2.75,0 -5,0.45 -5,1 0,0.55 -2.025,1 -4.5,1 -2.475,0 -4.5,0.45 -4.5,1 0,0.55 -2.475,1 -5.5,1 -3.025,0 -5.5,0.405 -5.5,0.899 0,0.495 -5.625,1.224 -12.5,1.621 -6.875,0.396 -12.5,1.116 -12.5,1.6 0,0.484 -3.15,0.88 -7,0.88 -4,0 -7,0.429 -7,1 0,0.55 -2.475,1 -5.5,1 -3.025,0 -5.5,0.399 -5.5,0.888 0,0.488 -6.3,1.213 -14,1.612 -7.7,0.399 -14,1.124 -14,1.612 0,0.489 -3.15,0.888 -7,0.888 -4,0 -7,0.429 -7,1 0,0.55 -2.475,1 -5.5,1 -3.025,0 -5.5,0.45 -5.5,1 0,0.55 -2.475,1 -5.5,1 -3.025,0 -5.5,0.45 -5.5,1 0,0.55 -1.313,1 -2.918,1 C 60.56,60 61,56.485 61,108.607 V 156 h 4.5 c 2.475,0 4.5,-0.45 4.5,-1 0,-0.55 2.475,-1 5.5,-1 3.025,0 5.5,-0.45 5.5,-1 0,-0.55 2.025,-1 4.5,-1 2.475,0 4.5,-0.45 4.5,-1 0,-0.571 3,-1 7,-1 3.85,0 7,-0.399 7,-0.888 0,-0.488 6.3,-1.213 14,-1.612 7.7,-0.399 14,-1.124 14,-1.612 0,-0.489 3.375,-0.888 7.5,-0.888 4.333,0 7.5,-0.422 7.5,-1 0,-0.55 2.25,-1 5,-1 2.75,0 5,-0.404 5,-0.898 0,-0.493 6.075,-1.222 13.5,-1.62 7.425,-0.398 13.5,-1.119 13.5,-1.603 0,-0.483 2.475,-0.879 5.5,-0.879 3.025,0 5.5,-0.45 5.5,-1 0,-0.55 2.025,-1 4.5,-1 2.475,0 4.5,-0.45 4.5,-1 0,-0.55 2.25,-1 5,-1 2.75,0 5,-0.392 5,-0.871 0,-0.479 4.5,-1.19 10,-1.58 5.5,-0.39 10,-1.123 10,-1.629 0,-0.506 1.575,-0.92 3.5,-0.92 1.925,0 3.5,-0.45 3.5,-1 0,-0.55 1.575,-1 3.5,-1 1.925,0 3.5,-0.419 3.5,-0.931 0,-0.512 3.6,-1.246 8,-1.629 4.4,-0.384 8,-1.09 8,-1.569 0,-0.479 1.125,-0.871 2.5,-0.871 1.375,0 2.5,-0.45 2.5,-1 0,-0.55 1.35,-1 3,-1 1.65,0 3,-0.45 3,-1 0,-0.55 1.125,-1 2.5,-1 1.375,0 2.5,-0.418 2.5,-0.928 0,-0.51 2.461,-1.236 5.468,-1.611 4.115,-0.514 5.616,-1.151 6.067,-2.572 0.408,-1.286 1.536,-1.889 3.532,-1.889 1.613,0 2.933,-0.42 2.933,-0.933 0,-0.513 1.003,-1.251 2.23,-1.64 2.7,-0.857 7.77,-6.098 7.77,-8.033 0,-0.767 0.45,-1.394 1,-1.394 0.653,0 1,-17 1,-49 C 310,7.111 309.813,1 308.5,1 307.675,1 307,1.675 307,2.5 m 0,123.633 c 0,1.997 -3.354,5.867 -5.086,5.867 -0.428,0 -1.065,0.9 -1.414,2 -0.349,1.1 -1.504,2 -2.567,2 -1.063,0 -1.933,0.45 -1.933,1 0,0.55 -0.9,1 -2,1 -1.1,0 -2,0.43 -2,0.955 0,0.525 -1.575,1.25 -3.5,1.611 -1.925,0.361 -3.5,1.057 -3.5,1.545 0,0.489 -1.125,0.889 -2.5,0.889 -1.375,0 -2.5,0.45 -2.5,1 0,0.55 -1.125,1 -2.5,1 -1.375,0 -2.5,0.398 -2.5,0.885 0,0.486 -2.475,1.194 -5.5,1.572 -3.025,0.378 -5.5,1.105 -5.5,1.615 0,0.51 -1.575,0.928 -3.5,0.928 -1.925,0 -3.5,0.45 -3.5,1 0,0.55 -1.575,1 -3.5,1 -1.925,0 -3.5,0.45 -3.5,1 0,0.55 -1.575,1 -3.5,1 -1.925,0 -3.5,0.392 -3.5,0.871 0,0.479 -3.6,1.185 -8,1.569 -4.4,0.383 -8,1.117 -8,1.629 0,0.512 -2.475,0.931 -5.5,0.931 -3.025,0 -5.5,0.45 -5.5,1 0,0.55 -2.475,1 -5.5,1 -3.025,0 -5.5,0.396 -5.5,0.881 0,0.485 -4.275,1.202 -9.5,1.593 -5.225,0.392 -9.5,1.121 -9.5,1.619 0,0.499 -2.925,0.907 -6.5,0.907 -3.667,0 -6.5,0.436 -6.5,1 0,0.583 -3.333,1 -8,1 -4.667,0 -8,0.417 -8,1 0,0.55 -2.213,1 -4.917,1 -2.704,0 -5.066,0.419 -5.25,0.932 -0.183,0.513 -5.846,1.251 -12.583,1.642 -6.738,0.39 -12.25,1.096 -12.25,1.568 0,0.472 -3.6,0.858 -8,0.858 -4.667,0 -8,0.417 -8,1 0,0.564 -2.833,1 -6.5,1 -3.575,0 -6.5,0.407 -6.5,0.904 0,0.497 -4.725,1.226 -10.5,1.619 C 76.725,179.917 72,180.635 72,181.119 72,181.604 70.168,182 67.929,182 60.649,182 61,179.442 61,232.429 61,279.333 61.028,280 63,280 c 1.1,0 2,-0.45 2,-1 0,-0.55 1.575,-1 3.5,-1 1.925,0 3.5,-0.392 3.5,-0.871 0,-0.479 4.5,-1.19 10,-1.58 5.5,-0.39 10,-1.123 10,-1.629 0,-0.506 3.15,-0.92 7,-0.92 4,0 7,-0.429 7,-1 0,-0.571 3,-1 7,-1 3.85,0 7,-0.386 7,-0.858 0,-0.472 5.513,-1.178 12.25,-1.568 6.738,-0.391 12.4,-1.129 12.583,-1.642 0.184,-0.513 3.446,-0.932 7.25,-0.932 3.945,0 6.917,-0.43 6.917,-1 0,-0.564 2.833,-1 6.5,-1 3.667,0 6.5,-0.436 6.5,-1 0,-0.556 2.667,-1 6,-1 3.3,0 6,-0.396 6,-0.881 0,-0.484 4.725,-1.202 10.5,-1.596 5.775,-0.393 10.5,-1.122 10.5,-1.619 0,-0.497 2.475,-0.904 5.5,-0.904 3.025,0 5.5,-0.45 5.5,-1 0,-0.55 2.025,-1 4.5,-1 2.475,0 4.5,-0.385 4.5,-0.856 0,-0.47 3.479,-1.118 7.73,-1.44 4.252,-0.321 7.889,-1.061 8.083,-1.644 0.195,-0.583 2.341,-1.06 4.77,-1.06 2.43,0 4.417,-0.45 4.417,-1 0,-0.55 1.575,-1 3.5,-1 1.925,0 3.5,-0.45 3.5,-1 0,-0.55 1.575,-1 3.5,-1 1.925,0 3.5,-0.418 3.5,-0.928 0,-0.51 2.475,-1.237 5.5,-1.615 3.025,-0.378 5.5,-1.086 5.5,-1.572 0,-0.487 1.125,-0.885 2.5,-0.885 1.375,0 2.5,-0.45 2.5,-1 0,-0.55 1.125,-1 2.5,-1 1.375,0 2.5,-0.391 2.5,-0.868 0,-0.478 1.903,-1.124 4.228,-1.436 2.326,-0.312 4.389,-1.046 4.584,-1.631 0.195,-0.586 1.217,-1.065 2.271,-1.065 1.054,0 1.917,-0.45 1.917,-1 0,-0.55 0.47,-1 1.045,-1 0.575,0 2.129,-1.012 3.452,-2.25 1.324,-1.238 3.103,-2.83 3.955,-3.539 0.851,-0.71 1.548,-2.172 1.548,-3.25 0,-1.079 0.45,-1.961 1,-1.961 0.653,0 1,-16.833 1,-48.5 0,-42.444 -0.187,-48.5 -1.5,-48.5 -0.864,0 -1.5,0.904 -1.5,2.133 M 307,250 c 0,1.1 -0.43,2 -0.955,2 -1.24,0 -6.045,4.805 -6.045,6.045 0,0.525 -0.672,0.955 -1.493,0.955 -2.084,0 -9.507,3.307 -9.507,4.236 0,0.42 -0.9,0.764 -2,0.764 -1.1,0 -2,0.45 -2,1 0,0.55 -0.675,1 -1.5,1 -0.825,0 -1.5,0.414 -1.5,0.92 0,0.507 -2.925,1.234 -6.5,1.617 -3.575,0.383 -6.5,1.094 -6.5,1.579 0,0.486 -1.125,0.884 -2.5,0.884 -1.375,0 -2.5,0.45 -2.5,1 0,0.55 -1.125,1 -2.5,1 -1.375,0 -2.5,0.419 -2.5,0.931 0,0.512 -3.6,1.246 -8,1.629 -4.4,0.384 -8,1.09 -8,1.569 0,0.479 -1.575,0.871 -3.5,0.871 -1.925,0 -3.5,0.45 -3.5,1 0,0.55 -2.025,1 -4.5,1 -2.475,0 -4.5,0.45 -4.5,1 0,0.55 -2.025,1 -4.5,1 -2.475,0 -4.5,0.401 -4.5,0.891 0,0.49 -4.95,1.214 -11,1.609 -6.05,0.395 -11,1.119 -11,1.609 0,0.49 -1.8,0.891 -4,0.891 -2.2,0 -4,0.45 -4,1 0,0.564 -2.833,1 -6.5,1 -3.575,0 -6.5,0.399 -6.5,0.888 0,0.488 -6.3,1.213 -14,1.612 -7.7,0.399 -14,1.124 -14,1.612 0,0.489 -2.475,0.888 -5.5,0.888 -3.025,0 -5.5,0.45 -5.5,1 0,0.571 -3,1 -7,1 -4,0 -7,0.429 -7,1 0,0.571 -3,1 -7,1 -3.85,0 -7,0.396 -7,0.88 0,0.484 -5.625,1.204 -12.5,1.6 -6.875,0.397 -12.5,1.126 -12.5,1.621 0,0.494 -2.025,0.899 -4.5,0.899 -2.475,0 -4.5,0.45 -4.5,1 0,0.55 -2.025,1 -4.5,1 -2.475,0 -4.5,0.45 -4.5,1 0,0.55 -0.9,1 -2,1 -1.971,0 -2,0.667 -2,46.609 v 46.61 l 11.25,-0.729 c 6.188,-0.4 11.493,-1.111 11.79,-1.579 0.297,-0.467 5.601,-1.157 11.785,-1.533 6.185,-0.376 11.481,-1.064 11.769,-1.53 0.288,-0.467 3.647,-0.848 7.465,-0.848 3.961,0 6.941,-0.429 6.941,-1 0,-0.556 2.667,-1 6,-1 3.333,0 6,-0.444 6,-1 0,-0.564 2.833,-1 6.5,-1 3.575,0 6.5,-0.392 6.5,-0.872 0,-0.479 5.85,-1.195 13,-1.59 7.15,-0.396 13,-1.128 13,-1.629 0,-0.5 2.925,-0.909 6.5,-0.909 3.667,0 6.5,-0.436 6.5,-1 0,-0.55 2.25,-1 5,-1 2.75,0 5,-0.401 5,-0.891 0,-0.49 4.95,-1.214 11,-1.609 6.05,-0.395 11,-1.119 11,-1.609 0,-0.49 2.025,-0.891 4.5,-0.891 2.475,0 4.5,-0.45 4.5,-1 0,-0.55 2.025,-1 4.5,-1 2.475,0 4.5,-0.45 4.5,-1 0,-0.55 1.575,-1 3.5,-1 1.925,0 3.5,-0.392 3.5,-0.871 0,-0.479 3.6,-1.185 8,-1.569 4.4,-0.383 8,-1.117 8,-1.629 0,-0.512 1.575,-0.931 3.5,-0.931 1.925,0 3.5,-0.45 3.5,-1 0,-0.55 0.675,-1 1.5,-1 0.825,0 1.5,-0.398 1.5,-0.884 0,-0.485 2.925,-1.196 6.5,-1.579 3.575,-0.383 6.5,-1.11 6.5,-1.617 0,-0.506 1.125,-0.92 2.5,-0.92 1.375,0 2.5,-0.45 2.5,-1 0,-0.55 0.9,-1 2,-1 1.1,0 2,-0.45 2,-1 0,-0.55 0.675,-1 1.5,-1 0.825,0 1.5,-0.394 1.5,-0.875 0,-0.481 1.348,-1.145 2.995,-1.474 1.707,-0.341 5.147,-2.729 8,-5.551 L 310,345.147 V 296.574 C 310,254.064 309.813,248 308.5,248 c -0.833,0 -1.5,0.889 -1.5,2"
       inkscape:connector-curvature="0"
       style="fill:#000000;fill-rule:evenodd;stroke:none"
       sodipodi:nodetypes="csscssssssssssssscssssssssssssscssssssssssssssscsssssssssssssssssssssssssssscsssssssccsscssssccsssssssssssssssssssscssssscssssssccssssscsssssssssssssccsssssscsssssccssssssssssssccsssccssssccsssssssssssssscssssssssssssssssssssscssssssscccccsssssscssssssssssssscssssssssssssscccssc" />
  </g>
</svg>
