<svg id="svg" version="1.1" width="400" height="400" xmlns="http://www.w3.org/2000/svg" xmlns:xlink="http://www.w3.org/1999/xlink" style="display: block;"><g id="svgg"><path id="path0" d="M227.000 61.500 C 227.000 62.325,226.325 63.000,225.500 63.000 C 224.367 63.000,224.000 64.222,224.000 68.000 C 224.000 71.778,224.367 73.000,225.500 73.000 C 226.333 73.000,227.000 73.889,227.000 75.000 C 227.000 76.873,227.667 77.000,237.500 77.000 L 248.000 77.000 248.000 107.906 C 248.000 138.320,247.968 138.804,246.000 138.290 C 244.900 138.002,244.000 137.144,244.000 136.383 C 244.000 135.623,243.325 135.000,242.500 135.000 C 241.675 135.000,241.000 134.325,241.000 133.500 C 241.000 132.675,240.325 132.000,239.500 132.000 C 238.667 132.000,238.000 131.111,238.000 130.000 C 238.000 128.667,237.333 128.000,236.000 128.000 C 234.889 128.000,234.000 127.333,234.000 126.500 C 234.000 125.675,233.325 125.000,232.500 125.000 C 231.667 125.000,231.000 124.111,231.000 123.000 C 231.000 121.381,230.333 121.000,227.500 121.000 C 225.056 121.000,224.000 120.548,224.000 119.500 C 224.000 118.452,222.944 118.000,220.500 118.000 C 218.056 118.000,217.000 117.548,217.000 116.500 C 217.000 115.310,215.556 115.000,210.000 115.000 C 203.667 115.000,203.000 114.810,203.000 113.000 C 203.000 111.133,202.333 111.000,193.000 111.000 C 183.667 111.000,183.000 111.133,183.000 113.000 C 183.000 114.810,182.333 115.000,176.000 115.000 C 170.444 115.000,169.000 115.310,169.000 116.500 C 169.000 117.633,167.778 118.000,164.000 118.000 C 160.222 118.000,159.000 118.367,159.000 119.500 C 159.000 120.325,158.325 121.000,157.500 121.000 C 156.667 121.000,156.000 121.889,156.000 123.000 C 156.000 124.619,155.333 125.000,152.500 125.000 C 150.056 125.000,149.000 125.452,149.000 126.500 C 149.000 127.333,148.111 128.000,147.000 128.000 C 145.667 128.000,145.000 128.667,145.000 130.000 C 145.000 131.111,144.333 132.000,143.500 132.000 C 142.675 132.000,142.000 132.623,142.000 133.383 C 142.000 134.144,141.100 135.002,140.000 135.290 C 138.544 135.671,138.000 136.654,138.000 138.906 C 138.000 140.990,137.510 142.000,136.500 142.000 C 135.675 142.000,135.000 142.675,135.000 143.500 C 135.000 144.325,134.325 145.000,133.500 145.000 C 132.452 145.000,132.000 146.056,132.000 148.500 C 132.000 151.333,131.619 152.000,130.000 152.000 C 128.267 152.000,128.000 152.667,128.000 157.000 C 128.000 160.778,127.633 162.000,126.500 162.000 C 125.224 162.000,125.000 164.611,125.000 179.500 C 125.000 194.389,125.224 197.000,126.500 197.000 C 127.633 197.000,128.000 198.222,128.000 202.000 C 128.000 206.333,128.267 207.000,130.000 207.000 C 131.619 207.000,132.000 207.667,132.000 210.500 C 132.000 212.944,132.452 214.000,133.500 214.000 C 134.325 214.000,135.000 214.675,135.000 215.500 C 135.000 216.325,135.675 217.000,136.500 217.000 C 137.510 217.000,138.000 218.010,138.000 220.094 C 138.000 222.346,138.544 223.329,140.000 223.710 C 141.100 223.998,142.000 224.856,142.000 225.617 C 142.000 226.377,142.675 227.000,143.500 227.000 C 144.333 227.000,145.000 227.889,145.000 229.000 C 145.000 230.333,145.667 231.000,147.000 231.000 C 148.111 231.000,149.000 231.667,149.000 232.500 C 149.000 233.548,150.056 234.000,152.500 234.000 C 155.333 234.000,156.000 234.381,156.000 236.000 C 156.000 237.111,156.667 238.000,157.500 238.000 C 158.325 238.000,159.000 238.675,159.000 239.500 C 159.000 240.633,160.222 241.000,164.000 241.000 C 167.778 241.000,169.000 241.367,169.000 242.500 C 169.000 243.631,170.215 244.000,173.933 244.000 C 177.987 244.000,178.978 244.356,179.500 246.000 C 180.481 249.090,203.000 249.090,203.000 246.000 C 203.000 244.190,203.667 244.000,210.000 244.000 C 215.556 244.000,217.000 243.690,217.000 242.500 C 217.000 241.452,218.056 241.000,220.500 241.000 C 222.944 241.000,224.000 240.548,224.000 239.500 C 224.000 238.452,225.056 238.000,227.500 238.000 C 230.333 238.000,231.000 237.619,231.000 236.000 C 231.000 234.889,231.667 234.000,232.500 234.000 C 233.325 234.000,234.000 233.325,234.000 232.500 C 234.000 231.667,234.889 231.000,236.000 231.000 C 237.333 231.000,238.000 230.333,238.000 229.000 C 238.000 227.889,238.667 227.000,239.500 227.000 C 240.325 227.000,241.000 226.325,241.000 225.500 C 241.000 224.675,241.675 224.000,242.500 224.000 C 243.325 224.000,244.000 223.373,244.000 222.607 C 244.000 221.445,245.985 220.000,247.582 220.000 C 247.812 220.000,248.000 225.400,248.000 232.000 L 248.000 244.000 266.500 244.000 C 282.278 244.000,285.000 243.779,285.000 242.500 C 285.000 241.667,285.889 241.000,287.000 241.000 C 288.733 241.000,289.000 240.333,289.000 236.000 C 289.000 231.667,288.733 231.000,287.000 231.000 C 285.667 231.000,285.000 230.333,285.000 229.000 C 285.000 227.116,284.333 227.000,273.500 227.000 L 262.000 227.000 262.000 143.500 L 262.000 60.000 244.500 60.000 C 229.611 60.000,227.000 60.224,227.000 61.500 M210.000 130.000 C 210.000 131.619,210.667 132.000,213.500 132.000 C 215.944 132.000,217.000 132.452,217.000 133.500 C 217.000 134.548,218.056 135.000,220.500 135.000 C 222.944 135.000,224.000 135.452,224.000 136.500 C 224.000 137.325,224.675 138.000,225.500 138.000 C 226.333 138.000,227.000 138.889,227.000 140.000 C 227.000 141.619,227.667 142.000,230.500 142.000 C 232.944 142.000,234.000 142.452,234.000 143.500 C 234.000 144.333,234.889 145.000,236.000 145.000 C 237.619 145.000,238.000 145.667,238.000 148.500 C 238.000 150.944,238.452 152.000,239.500 152.000 C 240.333 152.000,241.000 152.889,241.000 154.000 C 241.000 155.111,241.667 156.000,242.500 156.000 C 243.616 156.000,244.000 157.177,244.000 160.594 C 244.000 164.346,244.366 165.283,246.000 165.710 C 247.873 166.200,248.000 167.074,248.000 179.500 C 248.000 191.926,247.873 192.800,246.000 193.290 C 244.366 193.717,244.000 194.654,244.000 198.406 C 244.000 201.823,243.616 203.000,242.500 203.000 C 241.667 203.000,241.000 203.889,241.000 205.000 C 241.000 206.111,240.333 207.000,239.500 207.000 C 238.452 207.000,238.000 208.056,238.000 210.500 C 238.000 213.333,237.619 214.000,236.000 214.000 C 234.889 214.000,234.000 214.667,234.000 215.500 C 234.000 216.548,232.944 217.000,230.500 217.000 C 227.667 217.000,227.000 217.381,227.000 219.000 C 227.000 220.111,226.333 221.000,225.500 221.000 C 224.675 221.000,224.000 221.675,224.000 222.500 C 224.000 223.548,222.944 224.000,220.500 224.000 C 218.056 224.000,217.000 224.452,217.000 225.500 C 217.000 226.548,215.944 227.000,213.500 227.000 C 210.667 227.000,210.000 227.381,210.000 229.000 C 210.000 230.922,209.333 231.000,193.000 231.000 C 176.667 231.000,176.000 230.922,176.000 229.000 C 176.000 227.381,175.333 227.000,172.500 227.000 C 170.056 227.000,169.000 226.548,169.000 225.500 C 169.000 224.452,167.944 224.000,165.500 224.000 C 163.056 224.000,162.000 223.548,162.000 222.500 C 162.000 221.675,161.325 221.000,160.500 221.000 C 159.667 221.000,159.000 220.111,159.000 219.000 C 159.000 217.889,158.333 217.000,157.500 217.000 C 156.675 217.000,156.000 216.325,156.000 215.500 C 156.000 214.667,155.111 214.000,154.000 214.000 C 152.667 214.000,152.000 213.333,152.000 212.000 C 152.000 210.889,151.333 210.000,150.500 210.000 C 149.675 210.000,149.000 209.325,149.000 208.500 C 149.000 207.667,148.111 207.000,147.000 207.000 C 145.381 207.000,145.000 206.333,145.000 203.500 C 145.000 201.056,144.548 200.000,143.500 200.000 C 142.452 200.000,142.000 198.944,142.000 196.500 C 142.000 193.667,141.619 193.000,140.000 193.000 C 138.099 193.000,138.000 192.333,138.000 179.500 C 138.000 166.667,138.099 166.000,140.000 166.000 C 141.619 166.000,142.000 165.333,142.000 162.500 C 142.000 160.056,142.452 159.000,143.500 159.000 C 144.548 159.000,145.000 157.944,145.000 155.500 C 145.000 152.667,145.381 152.000,147.000 152.000 C 148.111 152.000,149.000 151.333,149.000 150.500 C 149.000 149.675,149.675 149.000,150.500 149.000 C 151.333 149.000,152.000 148.111,152.000 147.000 C 152.000 145.667,152.667 145.000,154.000 145.000 C 155.111 145.000,156.000 144.333,156.000 143.500 C 156.000 142.675,156.675 142.000,157.500 142.000 C 158.333 142.000,159.000 141.111,159.000 140.000 C 159.000 138.889,159.667 138.000,160.500 138.000 C 161.325 138.000,162.000 137.325,162.000 136.500 C 162.000 135.452,163.056 135.000,165.500 135.000 C 167.944 135.000,169.000 134.548,169.000 133.500 C 169.000 132.452,170.056 132.000,172.500 132.000 C 175.333 132.000,176.000 131.619,176.000 130.000 C 176.000 128.078,176.667 128.000,193.000 128.000 C 209.333 128.000,210.000 128.078,210.000 130.000 M135.000 290.500 C 135.000 291.325,134.325 292.000,133.500 292.000 C 132.452 292.000,132.000 293.056,132.000 295.500 C 132.000 297.944,132.452 299.000,133.500 299.000 C 134.333 299.000,135.000 299.889,135.000 301.000 C 135.000 302.979,135.667 303.000,198.094 303.000 C 260.346 303.000,261.194 302.973,261.710 301.000 C 261.998 299.900,262.856 299.000,263.617 299.000 C 264.531 299.000,265.000 297.813,265.000 295.500 C 265.000 293.056,264.548 292.000,263.500 292.000 C 262.675 292.000,262.000 291.325,262.000 290.500 C 262.000 289.182,254.278 289.000,198.500 289.000 C 142.722 289.000,135.000 289.182,135.000 290.500 M135.000 328.500 C 135.000 329.325,134.325 330.000,133.500 330.000 C 132.452 330.000,132.000 331.056,132.000 333.500 C 132.000 335.944,132.452 337.000,133.500 337.000 C 134.325 337.000,135.000 337.675,135.000 338.500 C 135.000 339.818,142.722 340.000,198.500 340.000 C 254.278 340.000,262.000 339.818,262.000 338.500 C 262.000 337.675,262.675 337.000,263.500 337.000 C 264.548 337.000,265.000 335.944,265.000 333.500 C 265.000 331.056,264.548 330.000,263.500 330.000 C 262.675 330.000,262.000 329.325,262.000 328.500 C 262.000 327.182,254.278 327.000,198.500 327.000 C 142.722 327.000,135.000 327.182,135.000 328.500 " stroke="none" fill="#000000" fill-rule="evenodd"></path></g></svg>