<svg id="svg" version="1.1" width="400" height="400" xmlns="http://www.w3.org/2000/svg" xmlns:xlink="http://www.w3.org/1999/xlink" style="display: block;"><g id="svgg"><path id="path0" d="M179.000 38.195 C 167.383 39.596,149.185 44.239,140.500 48.017 C 128.155 53.386,108.624 64.026,106.500 66.539 C 105.950 67.189,103.293 69.204,100.596 71.015 C 97.899 72.826,93.961 76.039,91.846 78.154 C 89.731 80.269,87.795 82.000,87.545 82.000 C 86.953 82.000,82.000 86.953,82.000 87.545 C 82.000 87.795,80.269 89.731,78.154 91.846 C 76.039 93.961,72.826 97.899,71.015 100.596 C 69.204 103.293,67.189 105.950,66.539 106.500 C 64.026 108.624,53.386 128.155,48.017 140.500 C 33.662 173.500,33.662 226.500,48.017 259.500 C 53.386 271.845,64.026 291.376,66.539 293.500 C 67.189 294.050,69.204 296.707,71.015 299.404 C 72.826 302.101,76.039 306.039,78.154 308.154 C 80.269 310.269,82.000 312.205,82.000 312.455 C 82.000 313.047,86.953 318.000,87.545 318.000 C 87.795 318.000,89.731 319.731,91.846 321.846 C 93.961 323.961,97.899 327.174,100.596 328.985 C 103.293 330.796,105.950 332.811,106.500 333.461 C 108.624 335.974,128.155 346.614,140.500 351.983 C 173.500 366.338,226.500 366.338,259.500 351.983 C 271.845 346.614,291.376 335.974,293.500 333.461 C 294.050 332.811,296.707 330.796,299.404 328.985 C 302.101 327.174,306.039 323.961,308.154 321.846 C 310.269 319.731,312.205 318.000,312.455 318.000 C 313.047 318.000,318.000 313.047,318.000 312.455 C 318.000 312.205,319.731 310.269,321.846 308.154 C 323.961 306.039,327.174 302.101,328.985 299.404 C 330.796 296.707,332.811 294.050,333.461 293.500 C 337.396 290.174,351.801 261.759,355.259 250.500 C 365.569 216.943,365.569 183.057,355.259 149.500 C 351.801 138.241,337.396 109.826,333.461 106.500 C 332.811 105.950,330.796 103.293,328.985 100.596 C 327.174 97.899,323.961 93.961,321.846 91.846 C 319.731 89.731,318.000 87.795,318.000 87.545 C 318.000 86.953,313.047 82.000,312.455 82.000 C 312.205 82.000,310.269 80.269,308.154 78.154 C 306.039 76.039,302.101 72.826,299.404 71.015 C 296.707 69.204,294.050 67.189,293.500 66.539 C 291.376 64.026,271.845 53.386,259.500 48.017 C 238.912 39.061,205.555 34.991,179.000 38.195 M225.500 65.710 C 228.800 66.553,233.300 67.555,235.500 67.937 C 237.700 68.319,240.483 69.164,241.684 69.816 C 242.886 70.467,244.596 71.000,245.485 71.000 C 247.482 71.000,269.948 81.806,271.799 83.656 C 272.538 84.395,273.531 85.000,274.006 85.000 C 275.128 85.000,289.240 96.078,294.875 101.382 C 299.750 105.970,315.000 124.610,315.000 125.980 C 315.000 126.462,315.605 127.462,316.344 128.201 C 318.194 130.052,329.000 152.518,329.000 154.515 C 329.000 155.404,329.533 157.114,330.184 158.316 C 330.836 159.517,331.679 162.300,332.058 164.500 C 332.438 166.700,333.506 171.200,334.433 174.500 C 335.750 179.191,336.118 184.755,336.118 200.000 C 336.118 215.245,335.750 220.809,334.433 225.500 C 333.506 228.800,332.438 233.300,332.058 235.500 C 331.679 237.700,330.836 240.483,330.184 241.684 C 329.533 242.886,329.000 244.596,329.000 245.485 C 329.000 247.482,318.194 269.948,316.344 271.799 C 315.605 272.538,315.000 273.531,315.000 274.006 C 315.000 275.128,303.922 289.240,298.618 294.875 C 294.030 299.750,275.390 315.000,274.020 315.000 C 273.538 315.000,272.538 315.605,271.799 316.344 C 269.948 318.194,247.482 329.000,245.485 329.000 C 244.596 329.000,242.886 329.533,241.684 330.184 C 240.483 330.836,237.700 331.679,235.500 332.058 C 233.300 332.438,228.800 333.506,225.500 334.433 C 216.887 336.852,183.113 336.852,174.500 334.433 C 171.200 333.506,166.700 332.438,164.500 332.058 C 162.300 331.679,159.517 330.836,158.316 330.184 C 157.114 329.533,155.404 329.000,154.515 329.000 C 152.518 329.000,130.052 318.194,128.201 316.344 C 127.462 315.605,126.462 315.000,125.980 315.000 C 124.610 315.000,105.970 299.750,101.382 294.875 C 96.078 289.240,85.000 275.128,85.000 274.006 C 85.000 273.531,84.395 272.538,83.656 271.799 C 81.806 269.948,71.000 247.482,71.000 245.485 C 71.000 244.596,70.467 242.886,69.816 241.684 C 69.164 240.483,68.321 237.700,67.942 235.500 C 67.562 233.300,66.494 228.800,65.567 225.500 C 64.250 220.809,63.882 215.245,63.882 200.000 C 63.882 184.755,64.250 179.191,65.567 174.500 C 66.494 171.200,67.562 166.700,67.942 164.500 C 68.321 162.300,69.164 159.517,69.816 158.316 C 70.467 157.114,71.000 155.404,71.000 154.515 C 71.000 152.518,81.806 130.052,83.656 128.201 C 84.395 127.462,85.000 126.462,85.000 125.980 C 85.000 124.610,100.250 105.970,105.125 101.382 C 110.760 96.078,124.872 85.000,125.994 85.000 C 126.469 85.000,127.462 84.395,128.201 83.656 C 130.110 81.748,152.534 71.007,154.699 70.965 C 155.690 70.945,157.625 70.286,159.000 69.500 C 160.375 68.714,162.681 68.055,164.124 68.035 C 165.568 68.016,168.718 67.279,171.124 66.398 C 180.231 63.065,213.497 62.644,225.500 65.710 M188.500 101.896 C 185.750 102.882,181.025 104.489,178.000 105.467 C 171.552 107.552,162.195 111.876,161.422 113.127 C 161.125 113.607,160.093 114.000,159.130 114.000 C 158.166 114.000,156.491 114.787,155.409 115.750 C 154.326 116.713,151.879 118.363,149.970 119.418 C 148.062 120.472,145.314 122.272,143.864 123.418 C 142.414 124.563,139.489 126.835,137.364 128.466 C 132.541 132.167,114.640 149.972,113.704 152.000 C 113.322 152.825,111.203 155.975,108.995 159.000 C 106.786 162.025,104.257 165.963,103.375 167.750 C 102.494 169.537,101.373 171.000,100.886 171.000 C 100.399 171.000,99.998 171.787,99.996 172.750 C 99.994 173.713,99.154 175.874,98.130 177.554 C 91.933 187.717,83.972 225.000,88.000 225.000 C 88.550 225.000,89.000 224.570,89.000 224.044 C 89.000 223.183,92.743 217.008,94.786 214.500 C 95.234 213.950,95.867 212.825,96.192 212.000 C 97.477 208.737,110.564 191.709,116.500 185.574 C 128.953 172.706,143.222 167.112,147.385 173.465 C 149.719 177.027,149.841 255.355,147.517 258.672 C 145.728 261.226,135.710 263.232,129.250 262.330 C 126.850 261.995,125.000 262.145,125.000 262.674 C 125.000 265.942,141.495 282.000,144.853 282.000 C 145.484 282.000,146.001 282.337,146.002 282.750 C 146.006 283.973,161.131 291.235,169.118 293.850 C 196.010 302.652,198.972 302.366,211.506 289.750 C 217.107 284.113,222.589 278.706,223.689 277.736 C 225.621 276.031,226.092 276.174,237.851 282.047 L 250.013 288.122 256.257 284.966 C 259.691 283.230,263.210 281.177,264.079 280.405 C 264.947 279.632,266.007 279.000,266.434 279.000 C 267.206 279.000,272.054 275.354,275.084 272.495 C 275.955 271.673,276.969 271.000,277.337 271.000 C 277.704 271.000,282.293 266.613,287.534 261.250 C 299.508 248.999,300.000 248.465,300.000 247.718 C 300.000 247.380,301.028 245.994,302.285 244.637 C 303.542 243.281,305.229 240.896,306.033 239.336 C 306.838 237.776,307.807 236.266,308.185 235.980 C 309.355 235.096,313.083 225.750,312.499 225.166 C 312.196 224.862,309.372 227.108,306.224 230.155 C 303.076 233.202,298.925 236.755,297.000 238.050 C 295.075 239.344,293.275 240.684,293.000 241.026 C 292.725 241.369,290.475 242.685,288.000 243.950 C 285.525 245.216,282.631 246.700,281.568 247.248 C 275.406 250.426,266.245 249.195,263.935 244.879 C 263.262 243.620,263.010 226.872,263.204 196.230 L 263.500 149.500 266.000 145.000 C 267.375 142.525,269.962 138.367,271.750 135.760 C 273.538 133.153,275.000 130.791,275.000 130.510 C 275.000 130.230,275.705 129.213,276.567 128.250 C 278.228 126.395,283.821 118.788,285.500 116.101 C 286.050 115.220,286.937 114.187,287.471 113.804 C 290.789 111.427,276.775 114.088,271.216 116.891 C 267.167 118.932,261.834 121.000,260.619 121.000 C 259.897 121.000,258.268 121.900,257.000 123.000 C 255.732 124.100,254.200 125.013,253.597 125.028 C 250.474 125.109,231.000 139.797,231.000 142.071 C 231.000 143.585,228.779 143.133,226.564 141.170 C 223.507 138.459,212.000 135.603,212.000 137.554 C 212.000 137.859,213.260 139.456,214.799 141.104 C 217.514 144.009,218.744 146.109,222.642 154.500 C 225.499 160.650,226.064 237.959,223.263 239.500 C 206.022 248.986,198.167 250.984,192.130 247.418 C 187.923 244.932,188.029 246.262,188.014 195.750 L 188.000 150.000 185.674 150.000 C 178.069 150.000,172.880 133.311,177.409 123.417 C 178.773 120.438,180.364 118.000,180.945 118.000 C 181.525 118.000,182.000 117.478,182.000 116.839 C 182.000 115.532,185.789 111.949,194.250 105.254 C 197.412 102.752,200.000 100.546,200.000 100.352 C 200.000 99.368,192.893 100.322,188.500 101.896 " stroke="none" fill="#000000" fill-rule="evenodd"></path></g></svg>